<?xml version="1.0" encoding="UTF-8" standalone="no"?>
<!DOCTYPE svg PUBLIC "-//W3C//DTD SVG 1.1//EN"
 "http://www.w3.org/Graphics/SVG/1.1/DTD/svg11.dtd">
<!-- Generated by graphviz version 2.40.1 (20161225.0304)
 -->
<!-- Title: MidiIO::ReceivePitchBendEvent Pages: 1 -->
<svg width="566pt" height="218pt"
 viewBox="0.00 0.00 566.00 218.00" xmlns="http://www.w3.org/2000/svg" xmlns:xlink="http://www.w3.org/1999/xlink">
<g id="graph0" class="graph" transform="scale(1 1) rotate(0) translate(4 214)">
<title>MidiIO::ReceivePitchBendEvent</title>
<polygon fill="#ffffff" stroke="transparent" points="-4,4 -4,-214 562,-214 562,4 -4,4"/>
<!-- Node273 -->
<g id="node1" class="node">
<title>Node273</title>
<polygon fill="#bfbfbf" stroke="#000000" points="0,-109 0,-139 140,-139 140,-109 0,-109"/>
<text text-anchor="start" x="8" y="-127" font-family="Helvetica,sans-Serif" font-size="10.00" fill="#000000">MidiIO::ReceivePitchBend</text>
<text text-anchor="middle" x="70" y="-116" font-family="Helvetica,sans-Serif" font-size="10.00" fill="#000000">Event</text>
</g>
<!-- Node274 -->
<g id="node2" class="node">
<title>Node274</title>
<g id="a_node2"><a xlink:href="classEvent.html#aa67af0ae99b897e4f0ce42068c4e4c00" target="_top" xlink:title="Event::GetEventByType">
<polygon fill="#ffffff" stroke="#000000" points="206,-190.5 206,-209.5 337,-209.5 337,-190.5 206,-190.5"/>
<text text-anchor="middle" x="271.5" y="-197.5" font-family="Helvetica,sans-Serif" font-size="10.00" fill="#000000">Event::GetEventByType</text>
</a>
</g>
</g>
<!-- Node273&#45;&gt;Node274 -->
<g id="edge1" class="edge">
<title>Node273&#45;&gt;Node274</title>
<path fill="none" stroke="#191970" d="M93.0589,-139.0076C113.9274,-151.9427 145.9136,-170.1917 176,-181 183.5781,-183.7224 191.6424,-186.0894 199.7496,-188.1392"/>
<polygon fill="#191970" stroke="#191970" points="199.0921,-191.5803 209.6301,-190.4846 200.7088,-184.7695 199.0921,-191.5803"/>
</g>
<!-- Node275 -->
<g id="node3" class="node">
<title>Node275</title>
<g id="a_node3"><a xlink:href="classFweelin.html#a681d7ca8d0789199af135f22c26a5409" target="_top" xlink:title="Fweelin::getCFG">
<polygon fill="#ffffff" stroke="#000000" points="224,-152.5 224,-171.5 319,-171.5 319,-152.5 224,-152.5"/>
<text text-anchor="middle" x="271.5" y="-159.5" font-family="Helvetica,sans-Serif" font-size="10.00" fill="#000000">Fweelin::getCFG</text>
</a>
</g>
</g>
<!-- Node273&#45;&gt;Node275 -->
<g id="edge2" class="edge">
<title>Node273&#45;&gt;Node275</title>
<path fill="none" stroke="#191970" d="M140.1921,-137.2372C164.2341,-141.7712 190.8404,-146.7888 213.7814,-151.1151"/>
<polygon fill="#191970" stroke="#191970" points="213.2295,-154.5726 223.7049,-152.9865 214.5268,-147.6939 213.2295,-154.5726"/>
</g>
<!-- Node276 -->
<g id="node4" class="node">
<title>Node276</title>
<g id="a_node4"><a xlink:href="classFloConfig.html#aaedfda90b488c27061a73b3bc98faf9a" target="_top" xlink:title="FloConfig::IsDebugInfo">
<polygon fill="#ffffff" stroke="#000000" points="208.5,-114.5 208.5,-133.5 334.5,-133.5 334.5,-114.5 208.5,-114.5"/>
<text text-anchor="middle" x="271.5" y="-121.5" font-family="Helvetica,sans-Serif" font-size="10.00" fill="#000000">FloConfig::IsDebugInfo</text>
</a>
</g>
</g>
<!-- Node273&#45;&gt;Node276 -->
<g id="edge3" class="edge">
<title>Node273&#45;&gt;Node276</title>
<path fill="none" stroke="#191970" d="M140.1921,-124C158.9659,-124 179.3035,-124 198.2383,-124"/>
<polygon fill="#191970" stroke="#191970" points="198.2943,-127.5001 208.2943,-124 198.2943,-120.5001 198.2943,-127.5001"/>
</g>
<!-- Node277 -->
<g id="node5" class="node">
<title>Node277</title>
<g id="a_node5"><a xlink:href="classFweelin.html#a21e51d7b639faaecc415624ab6c16a71" target="_top" xlink:title="Fweelin::getEMG">
<polygon fill="#ffffff" stroke="#000000" points="222.5,-76.5 222.5,-95.5 320.5,-95.5 320.5,-76.5 222.5,-76.5"/>
<text text-anchor="middle" x="271.5" y="-83.5" font-family="Helvetica,sans-Serif" font-size="10.00" fill="#000000">Fweelin::getEMG</text>
</a>
</g>
</g>
<!-- Node273&#45;&gt;Node277 -->
<g id="edge4" class="edge">
<title>Node273&#45;&gt;Node277</title>
<path fill="none" stroke="#191970" d="M140.1921,-110.7628C163.7323,-106.3234 189.7309,-101.4205 212.3402,-97.1567"/>
<polygon fill="#191970" stroke="#191970" points="213.2906,-100.5392 222.4687,-95.2466 211.9933,-93.6605 213.2906,-100.5392"/>
</g>
<!-- Node278 -->
<g id="node6" class="node">
<title>Node278</title>
<g id="a_node6"><a xlink:href="classEventManager.html#a4a73f2e7ff1724f28427f7c0d5725c8e" target="_top" xlink:title="EventManager::BroadcastEventNow">
<polygon fill="#ffffff" stroke="#000000" points="176,-38.5 176,-57.5 367,-57.5 367,-38.5 176,-38.5"/>
<text text-anchor="middle" x="271.5" y="-45.5" font-family="Helvetica,sans-Serif" font-size="10.00" fill="#000000">EventManager::BroadcastEventNow</text>
</a>
</g>
</g>
<!-- Node273&#45;&gt;Node278 -->
<g id="edge5" class="edge">
<title>Node273&#45;&gt;Node278</title>
<path fill="none" stroke="#191970" d="M93.0589,-108.9924C113.9274,-96.0573 145.9136,-77.8083 176,-67 183.5781,-64.2776 191.6424,-61.9106 199.7496,-59.8608"/>
<polygon fill="#191970" stroke="#191970" points="200.7088,-63.2305 209.6301,-57.5154 199.0921,-56.4197 200.7088,-63.2305"/>
</g>
<!-- Node279 -->
<g id="node7" class="node">
<title>Node279</title>
<g id="a_node7"><a xlink:href="classEvent.html#ac4c4170579544b41dff38ca1b8110e30" target="_top" xlink:title="Event::GetType">
<polygon fill="#ffffff" stroke="#000000" points="435.5,-76.5 435.5,-95.5 525.5,-95.5 525.5,-76.5 435.5,-76.5"/>
<text text-anchor="middle" x="480.5" y="-83.5" font-family="Helvetica,sans-Serif" font-size="10.00" fill="#000000">Event::GetType</text>
</a>
</g>
</g>
<!-- Node278&#45;&gt;Node279 -->
<g id="edge6" class="edge">
<title>Node278&#45;&gt;Node279</title>
<path fill="none" stroke="#191970" d="M323.9698,-57.54C354.9568,-63.174 394.1385,-70.2979 425.5488,-76.0089"/>
<polygon fill="#191970" stroke="#191970" points="424.9888,-79.4644 435.4536,-77.8097 426.241,-72.5773 424.9888,-79.4644"/>
</g>
<!-- Node280 -->
<g id="node8" class="node">
<title>Node280</title>
<g id="a_node8"><a xlink:href="classEventListener.html#a831820a9229e852bd7e2fad686b725b2" target="_top" xlink:title="EventListener::ReceiveEvent">
<polygon fill="#ffffff" stroke="#000000" points="403,-38.5 403,-57.5 558,-57.5 558,-38.5 403,-38.5"/>
<text text-anchor="middle" x="480.5" y="-45.5" font-family="Helvetica,sans-Serif" font-size="10.00" fill="#000000">EventListener::ReceiveEvent</text>
</a>
</g>
</g>
<!-- Node278&#45;&gt;Node280 -->
<g id="edge7" class="edge">
<title>Node278&#45;&gt;Node280</title>
<path fill="none" stroke="#191970" d="M367.1311,-48C375.6132,-48 384.1737,-48 392.5871,-48"/>
<polygon fill="#191970" stroke="#191970" points="392.7614,-51.5001 402.7614,-48 392.7614,-44.5001 392.7614,-51.5001"/>
</g>
<!-- Node281 -->
<g id="node9" class="node">
<title>Node281</title>
<g id="a_node9"><a xlink:href="classPreallocated.html#aaf2139a79ca16de70acd9bc4564171b7" target="_top" xlink:title="Preallocated::RTDelete">
<polygon fill="#ffffff" stroke="#000000" points="416.5,-.5 416.5,-19.5 544.5,-19.5 544.5,-.5 416.5,-.5"/>
<text text-anchor="middle" x="480.5" y="-7.5" font-family="Helvetica,sans-Serif" font-size="10.00" fill="#000000">Preallocated::RTDelete</text>
</a>
</g>
</g>
<!-- Node278&#45;&gt;Node281 -->
<g id="edge8" class="edge">
<title>Node278&#45;&gt;Node281</title>
<path fill="none" stroke="#191970" d="M323.9698,-38.46C352.5413,-33.2652 388.0796,-26.8037 418.0691,-21.3511"/>
<polygon fill="#191970" stroke="#191970" points="418.7961,-24.7764 428.0087,-19.5439 417.5438,-17.8893 418.7961,-24.7764"/>
</g>
</g>
</svg>
