<?xml version="1.0" encoding="UTF-8" standalone="no"?>
<!DOCTYPE svg PUBLIC "-//W3C//DTD SVG 1.1//EN"
 "http://www.w3.org/Graphics/SVG/1.1/DTD/svg11.dtd">
<!-- Generated by graphviz version 2.40.1 (20161225.0304)
 -->
<!-- Title: Fweelin::getLOOPMGR Pages: 1 -->
<svg width="1278pt" height="306pt"
 viewBox="0.00 0.00 1278.00 306.00" xmlns="http://www.w3.org/2000/svg" xmlns:xlink="http://www.w3.org/1999/xlink">
<g id="graph0" class="graph" transform="scale(1 1) rotate(0) translate(4 302)">
<title>Fweelin::getLOOPMGR</title>
<polygon fill="#ffffff" stroke="transparent" points="-4,4 -4,-302 1274,-302 1274,4 -4,4"/>
<!-- Node321 -->
<g id="node1" class="node">
<title>Node321</title>
<polygon fill="#bfbfbf" stroke="#000000" points="0,-145.5 0,-164.5 125,-164.5 125,-145.5 0,-145.5"/>
<text text-anchor="middle" x="62.5" y="-152.5" font-family="Helvetica,sans-Serif" font-size="10.00" fill="#000000">Fweelin::getLOOPMGR</text>
</g>
<!-- Node322 -->
<g id="node2" class="node">
<title>Node322</title>
<g id="a_node2"><a xlink:href="classAudioIO.html#ab0eea49d0c149eba8716d8402a9caa73" target="_top" xlink:title="AudioIO::timebase_callback">
<polygon fill="#ffffff" stroke="#000000" points="163.5,-259.5 163.5,-278.5 315.5,-278.5 315.5,-259.5 163.5,-259.5"/>
<text text-anchor="middle" x="239.5" y="-266.5" font-family="Helvetica,sans-Serif" font-size="10.00" fill="#000000">AudioIO::timebase_callback</text>
</a>
</g>
</g>
<!-- Node321&#45;&gt;Node322 -->
<g id="edge1" class="edge">
<title>Node321&#45;&gt;Node322</title>
<path fill="none" stroke="#191970" d="M75.7078,-172.517C92.9328,-194.0908 125.1299,-230.2926 161,-250 168.0049,-253.8486 175.7822,-256.9253 183.6405,-259.383"/>
<polygon fill="#191970" stroke="#191970" points="78.3784,-170.2499 69.4704,-164.5142 72.8573,-174.5531 78.3784,-170.2499"/>
</g>
<!-- Node325 -->
<g id="node5" class="node">
<title>Node325</title>
<g id="a_node5"><a xlink:href="classLoop.html#a53ccedecccce6659493d58c3ff6750b9" target="_top" xlink:title="Loop::Save">
<polygon fill="#ffffff" stroke="#000000" points="204.5,-221.5 204.5,-240.5 274.5,-240.5 274.5,-221.5 204.5,-221.5"/>
<text text-anchor="middle" x="239.5" y="-228.5" font-family="Helvetica,sans-Serif" font-size="10.00" fill="#000000">Loop::Save</text>
</a>
</g>
</g>
<!-- Node321&#45;&gt;Node325 -->
<g id="edge5" class="edge">
<title>Node321&#45;&gt;Node325</title>
<path fill="none" stroke="#191970" d="M87.2819,-169.7661C106.8305,-180.9964 135.0374,-196.2909 161,-207 174.8332,-212.7059 190.5247,-217.7687 204.2231,-221.756"/>
<polygon fill="#191970" stroke="#191970" points="88.8327,-166.6191 78.4286,-164.6174 85.3136,-172.6702 88.8327,-166.6191"/>
</g>
<!-- Node327 -->
<g id="node7" class="node">
<title>Node327</title>
<g id="a_node7"><a xlink:href="classTriggerMap.html#aaa7bec4f62540981d1e5703fe8ed575e" target="_top" xlink:title="TriggerMap::Save">
<polygon fill="#ffffff" stroke="#000000" points="568.5,-183.5 568.5,-202.5 668.5,-202.5 668.5,-183.5 568.5,-183.5"/>
<text text-anchor="middle" x="618.5" y="-190.5" font-family="Helvetica,sans-Serif" font-size="10.00" fill="#000000">TriggerMap::Save</text>
</a>
</g>
</g>
<!-- Node321&#45;&gt;Node327 -->
<g id="edge14" class="edge">
<title>Node321&#45;&gt;Node327</title>
<path fill="none" stroke="#191970" d="M114.5441,-166.5406C129.4738,-169.442 145.8203,-172.2308 161,-174 308.2623,-191.1639 483.7701,-193.4034 568.2116,-193.3544"/>
<polygon fill="#191970" stroke="#191970" points="114.9584,-163.0542 104.4661,-164.5251 113.5855,-169.9183 114.9584,-163.0542"/>
</g>
<!-- Node331 -->
<g id="node11" class="node">
<title>Node331</title>
<g id="a_node11"><a xlink:href="classTriggerMap.html#a92e251eec5a7c5741807805b6869fab8" target="_top" xlink:title="TriggerMap::GoSave">
<polygon fill="#ffffff" stroke="#000000" points="183,-145.5 183,-164.5 296,-164.5 296,-145.5 183,-145.5"/>
<text text-anchor="middle" x="239.5" y="-152.5" font-family="Helvetica,sans-Serif" font-size="10.00" fill="#000000">TriggerMap::GoSave</text>
</a>
</g>
</g>
<!-- Node321&#45;&gt;Node331 -->
<g id="edge15" class="edge">
<title>Node321&#45;&gt;Node331</title>
<path fill="none" stroke="#191970" d="M135.6665,-155C151.4673,-155 167.9407,-155 182.9885,-155"/>
<polygon fill="#191970" stroke="#191970" points="135.402,-151.5001 125.402,-155 135.4019,-158.5001 135.402,-151.5001"/>
</g>
<!-- Node333 -->
<g id="node13" class="node">
<title>Node333</title>
<g id="a_node13"><a xlink:href="classLoopManager.html#a87f2148eddda1d6e097ecb6612e56dfa" target="_top" xlink:title="LoopManager::GetLongCount\lForAllPlayingLoops">
<polygon fill="#ffffff" stroke="#000000" points="161,-96 161,-126 318,-126 318,-96 161,-96"/>
<text text-anchor="start" x="169" y="-114" font-family="Helvetica,sans-Serif" font-size="10.00" fill="#000000">LoopManager::GetLongCount</text>
<text text-anchor="middle" x="239.5" y="-103" font-family="Helvetica,sans-Serif" font-size="10.00" fill="#000000">ForAllPlayingLoops</text>
</a>
</g>
</g>
<!-- Node321&#45;&gt;Node333 -->
<g id="edge17" class="edge">
<title>Node321&#45;&gt;Node333</title>
<path fill="none" stroke="#191970" d="M110.8779,-142.9739C131.8731,-137.7547 156.6897,-131.5856 178.8961,-126.0654"/>
<polygon fill="#191970" stroke="#191970" points="109.7666,-139.6435 100.9064,-145.4527 111.4554,-146.4368 109.7666,-139.6435"/>
</g>
<!-- Node334 -->
<g id="node14" class="node">
<title>Node334</title>
<g id="a_node14"><a xlink:href="classOSCClient.html#acbb974bf11667aa6fb48c111ae14a4fe" target="_top" xlink:title="OSCClient::SendPlayingLoops">
<polygon fill="#ffffff" stroke="#000000" points="354,-88.5 354,-107.5 514,-107.5 514,-88.5 354,-88.5"/>
<text text-anchor="middle" x="434" y="-95.5" font-family="Helvetica,sans-Serif" font-size="10.00" fill="#000000">OSCClient::SendPlayingLoops</text>
</a>
</g>
</g>
<!-- Node321&#45;&gt;Node334 -->
<g id="edge20" class="edge">
<title>Node321&#45;&gt;Node334</title>
<path fill="none" stroke="#191970" d="M79.5332,-138.3303C97.8909,-121.6361 128.8286,-97.0263 161,-87 241.3827,-61.9486 341.5412,-76.9247 395.4082,-88.4648"/>
<polygon fill="#191970" stroke="#191970" points="76.9307,-135.9723 72.0245,-145.3628 81.7158,-141.0814 76.9307,-135.9723"/>
</g>
<!-- Node336 -->
<g id="node16" class="node">
<title>Node336</title>
<g id="a_node16"><a xlink:href="classSDLIO.html#a491e66a604fb750866d5de45dfa6aae0" target="_top" xlink:title="SDLIO::handle_key">
<polygon fill="#ffffff" stroke="#000000" points="185.5,-19.5 185.5,-38.5 293.5,-38.5 293.5,-19.5 185.5,-19.5"/>
<text text-anchor="middle" x="239.5" y="-26.5" font-family="Helvetica,sans-Serif" font-size="10.00" fill="#000000">SDLIO::handle_key</text>
</a>
</g>
</g>
<!-- Node321&#45;&gt;Node336 -->
<g id="edge21" class="edge">
<title>Node321&#45;&gt;Node336</title>
<path fill="none" stroke="#191970" d="M75.1277,-137.1638C92.1304,-114.4207 124.4958,-75.3699 161,-53 171.0854,-46.8196 182.8828,-42.124 194.222,-38.6"/>
<polygon fill="#191970" stroke="#191970" points="72.2698,-135.1427 69.1951,-145.2816 77.9214,-139.273 72.2698,-135.1427"/>
</g>
<!-- Node323 -->
<g id="node3" class="node">
<title>Node323</title>
<g id="a_node3"><a xlink:href="classAudioIO.html#a1e4157d1900df901a60d5a2260d7509c" target="_top" xlink:title="AudioIO::open">
<polygon fill="#ffffff" stroke="#000000" points="391.5,-259.5 391.5,-278.5 476.5,-278.5 476.5,-259.5 391.5,-259.5"/>
<text text-anchor="middle" x="434" y="-266.5" font-family="Helvetica,sans-Serif" font-size="10.00" fill="#000000">AudioIO::open</text>
</a>
</g>
</g>
<!-- Node322&#45;&gt;Node323 -->
<g id="edge2" class="edge">
<title>Node322&#45;&gt;Node323</title>
<path fill="none" stroke="#191970" d="M325.5933,-269C348.4115,-269 372.0599,-269 391.4242,-269"/>
<polygon fill="#191970" stroke="#191970" points="325.5345,-265.5001 315.5344,-269 325.5344,-272.5001 325.5345,-265.5001"/>
</g>
<!-- Node324 -->
<g id="node4" class="node">
<title>Node324</title>
<g id="a_node4"><a xlink:href="classAudioIO.html#a012ce924f59ced78f2fac75e6e33b55c" target="_top" xlink:title="AudioIO::AudioIO">
<polygon fill="#ffffff" stroke="#000000" points="569,-278.5 569,-297.5 668,-297.5 668,-278.5 569,-278.5"/>
<text text-anchor="middle" x="618.5" y="-285.5" font-family="Helvetica,sans-Serif" font-size="10.00" fill="#000000">AudioIO::AudioIO</text>
</a>
</g>
</g>
<!-- Node322&#45;&gt;Node324 -->
<g id="edge4" class="edge">
<title>Node322&#45;&gt;Node324</title>
<path fill="none" stroke="#191970" d="M296.0535,-280.2771C314.4532,-283.4378 335.0223,-286.4361 354,-288 428.597,-294.1472 515.4305,-292.4664 568.6757,-290.4338"/>
<polygon fill="#191970" stroke="#191970" points="296.5354,-276.8081 286.0785,-278.5126 295.316,-283.7011 296.5354,-276.8081"/>
</g>
<!-- Node323&#45;&gt;Node324 -->
<g id="edge3" class="edge">
<title>Node323&#45;&gt;Node324</title>
<path fill="none" stroke="#191970" d="M486.7646,-274.4338C512.5427,-277.0884 543.3912,-280.2652 568.754,-282.8771"/>
<polygon fill="#191970" stroke="#191970" points="487.0977,-270.9496 476.7917,-273.4067 486.3806,-277.9128 487.0977,-270.9496"/>
</g>
<!-- Node326 -->
<g id="node6" class="node">
<title>Node326</title>
<g id="a_node6"><a xlink:href="classLoopManager.html#a87ecdd3c80b3c16018a50a397f906b03" target="_top" xlink:title="LoopManager::SaveLoop">
<polygon fill="#ffffff" stroke="#000000" points="366.5,-221.5 366.5,-240.5 501.5,-240.5 501.5,-221.5 366.5,-221.5"/>
<text text-anchor="middle" x="434" y="-228.5" font-family="Helvetica,sans-Serif" font-size="10.00" fill="#000000">LoopManager::SaveLoop</text>
</a>
</g>
</g>
<!-- Node325&#45;&gt;Node326 -->
<g id="edge6" class="edge">
<title>Node325&#45;&gt;Node326</title>
<path fill="none" stroke="#191970" d="M285.0432,-231C309.2512,-231 339.4865,-231 366.3796,-231"/>
<polygon fill="#191970" stroke="#191970" points="284.7225,-227.5001 274.7225,-231 284.7224,-234.5001 284.7225,-227.5001"/>
</g>
<!-- Node326&#45;&gt;Node327 -->
<g id="edge7" class="edge">
<title>Node326&#45;&gt;Node327</title>
<path fill="none" stroke="#191970" d="M490.3672,-219.3905C516.6074,-213.986 547.436,-207.6365 572.2776,-202.5201"/>
<polygon fill="#191970" stroke="#191970" points="489.6455,-215.9656 480.5571,-221.411 491.0576,-222.8217 489.6455,-215.9656"/>
</g>
<!-- Node330 -->
<g id="node10" class="node">
<title>Node330</title>
<g id="a_node10"><a xlink:href="classLoopManager.html#a4aada2d07b7ce0a67a8119ece4805966" target="_top" xlink:title="LoopManager::ReceiveEvent">
<polygon fill="#ffffff" stroke="#000000" points="1116,-183.5 1116,-202.5 1270,-202.5 1270,-183.5 1116,-183.5"/>
<text text-anchor="middle" x="1193" y="-190.5" font-family="Helvetica,sans-Serif" font-size="10.00" fill="#000000">LoopManager::ReceiveEvent</text>
</a>
</g>
</g>
<!-- Node326&#45;&gt;Node330 -->
<g id="edge13" class="edge">
<title>Node326&#45;&gt;Node330</title>
<path fill="none" stroke="#191970" d="M511.943,-232.148C633.5687,-233.1649 875.7475,-232.0797 1080,-212 1101.5798,-209.8785 1125.2688,-206.1191 1145.3587,-202.5012"/>
<polygon fill="#191970" stroke="#191970" points="511.6509,-228.6453 501.6195,-232.0542 511.5872,-235.645 511.6509,-228.6453"/>
</g>
<!-- Node328 -->
<g id="node8" class="node">
<title>Node328</title>
<g id="a_node8"><a xlink:href="classLoopManager.html#ac2adaa8b989e1284abf17fc07eb0baf2" target="_top" xlink:title="LoopManager::SaveNewScene">
<polygon fill="#ffffff" stroke="#000000" points="723,-145.5 723,-164.5 886,-164.5 886,-145.5 723,-145.5"/>
<text text-anchor="middle" x="804.5" y="-152.5" font-family="Helvetica,sans-Serif" font-size="10.00" fill="#000000">LoopManager::SaveNewScene</text>
</a>
</g>
</g>
<!-- Node327&#45;&gt;Node328 -->
<g id="edge8" class="edge">
<title>Node327&#45;&gt;Node328</title>
<path fill="none" stroke="#191970" d="M675.3255,-181.3905C701.779,-175.986 732.8583,-169.6365 757.9019,-164.5201"/>
<polygon fill="#191970" stroke="#191970" points="674.5327,-177.9801 665.4357,-183.411 675.9339,-184.8384 674.5327,-177.9801"/>
</g>
<!-- Node329 -->
<g id="node9" class="node">
<title>Node329</title>
<g id="a_node9"><a xlink:href="classLoopManager.html#abd2cda6ecc976fd447167d5de7cc5912" target="_top" xlink:title="LoopManager::SaveCurScene">
<polygon fill="#ffffff" stroke="#000000" points="922,-183.5 922,-202.5 1080,-202.5 1080,-183.5 922,-183.5"/>
<text text-anchor="middle" x="1001" y="-190.5" font-family="Helvetica,sans-Serif" font-size="10.00" fill="#000000">LoopManager::SaveCurScene</text>
</a>
</g>
</g>
<!-- Node327&#45;&gt;Node329 -->
<g id="edge12" class="edge">
<title>Node327&#45;&gt;Node329</title>
<path fill="none" stroke="#191970" d="M678.6778,-193C744.2494,-193 849.4337,-193 921.7022,-193"/>
<polygon fill="#191970" stroke="#191970" points="678.5052,-189.5001 668.5052,-193 678.5052,-196.5001 678.5052,-189.5001"/>
</g>
<!-- Node328&#45;&gt;Node329 -->
<g id="edge9" class="edge">
<title>Node328&#45;&gt;Node329</title>
<path fill="none" stroke="#191970" d="M863.9123,-166.4894C891.9495,-171.9114 925.0157,-178.3058 951.6481,-183.4561"/>
<polygon fill="#191970" stroke="#191970" points="864.3143,-163.0024 853.8316,-164.54 862.9852,-169.875 864.3143,-163.0024"/>
</g>
<!-- Node328&#45;&gt;Node330 -->
<g id="edge11" class="edge">
<title>Node328&#45;&gt;Node330</title>
<path fill="none" stroke="#191970" d="M896.2471,-159.0781C949.9288,-162.025 1018.945,-166.7792 1080,-174 1100.6448,-176.4416 1123.2642,-180.0558 1142.8061,-183.4785"/>
<polygon fill="#191970" stroke="#191970" points="896.2387,-155.5727 886.0652,-158.5307 895.8628,-162.5626 896.2387,-155.5727"/>
</g>
<!-- Node329&#45;&gt;Node330 -->
<g id="edge10" class="edge">
<title>Node329&#45;&gt;Node330</title>
<path fill="none" stroke="#191970" d="M1090.2044,-193C1098.7671,-193 1107.4022,-193 1115.8355,-193"/>
<polygon fill="#191970" stroke="#191970" points="1090.2023,-189.5001 1080.2022,-193 1090.2022,-196.5001 1090.2023,-189.5001"/>
</g>
<!-- Node332 -->
<g id="node12" class="node">
<title>Node332</title>
<g id="a_node12"><a xlink:href="classLoopManager.html#a00143be12c150c0a89c4f99c1e8d5e70" target="_top" xlink:title="LoopManager::GetWriteBlock">
<polygon fill="#ffffff" stroke="#000000" points="355,-145.5 355,-164.5 513,-164.5 513,-145.5 355,-145.5"/>
<text text-anchor="middle" x="434" y="-152.5" font-family="Helvetica,sans-Serif" font-size="10.00" fill="#000000">LoopManager::GetWriteBlock</text>
</a>
</g>
</g>
<!-- Node331&#45;&gt;Node332 -->
<g id="edge16" class="edge">
<title>Node331&#45;&gt;Node332</title>
<path fill="none" stroke="#191970" d="M306.1446,-155C321.8431,-155 338.7264,-155 354.9135,-155"/>
<polygon fill="#191970" stroke="#191970" points="306.0188,-151.5001 296.0187,-155 306.0187,-158.5001 306.0188,-151.5001"/>
</g>
<!-- Node333&#45;&gt;Node334 -->
<g id="edge18" class="edge">
<title>Node333&#45;&gt;Node334</title>
<path fill="none" stroke="#191970" d="M328.0876,-105.079C336.6878,-104.5042 345.379,-103.9233 353.8894,-103.3544"/>
<polygon fill="#191970" stroke="#191970" points="327.7942,-101.5907 318.05,-105.7499 328.2611,-108.5751 327.7942,-101.5907"/>
</g>
<!-- Node335 -->
<g id="node15" class="node">
<title>Node335</title>
<g id="a_node15"><a xlink:href="classOSCClient.html#a8b38ea5b76702f9e763daeb694091116" target="_top" xlink:title="OSCClient::ReceiveEvent">
<polygon fill="#ffffff" stroke="#000000" points="550,-88.5 550,-107.5 687,-107.5 687,-88.5 550,-88.5"/>
<text text-anchor="middle" x="618.5" y="-95.5" font-family="Helvetica,sans-Serif" font-size="10.00" fill="#000000">OSCClient::ReceiveEvent</text>
</a>
</g>
</g>
<!-- Node334&#45;&gt;Node335 -->
<g id="edge19" class="edge">
<title>Node334&#45;&gt;Node335</title>
<path fill="none" stroke="#191970" d="M524.1768,-98C532.7687,-98 541.3847,-98 549.7263,-98"/>
<polygon fill="#191970" stroke="#191970" points="524.1195,-94.5001 514.1195,-98 524.1194,-101.5001 524.1195,-94.5001"/>
</g>
<!-- Node337 -->
<g id="node17" class="node">
<title>Node337</title>
<g id="a_node17"><a xlink:href="classSDLIO.html#ad1b1bf6d23251b3014749b18497c1b91" target="_top" xlink:title="SDLIO::run_sdl_thread">
<polygon fill="#ffffff" stroke="#000000" points="372,-19.5 372,-38.5 496,-38.5 496,-19.5 372,-19.5"/>
<text text-anchor="middle" x="434" y="-26.5" font-family="Helvetica,sans-Serif" font-size="10.00" fill="#000000">SDLIO::run_sdl_thread</text>
</a>
</g>
</g>
<!-- Node336&#45;&gt;Node337 -->
<g id="edge22" class="edge">
<title>Node336&#45;&gt;Node337</title>
<path fill="none" stroke="#191970" d="M303.8684,-29C325.7569,-29 350.1643,-29 371.874,-29"/>
<polygon fill="#191970" stroke="#191970" points="303.6791,-25.5001 293.6791,-29 303.6791,-32.5001 303.6791,-25.5001"/>
</g>
<!-- Node338 -->
<g id="node18" class="node">
<title>Node338</title>
<g id="a_node18"><a xlink:href="classFweelin.html#a268997890fa59492e27b4787c6bdc41f" target="_top" xlink:title="Fweelin::go">
<polygon fill="#ffffff" stroke="#000000" points="582.5,-38.5 582.5,-57.5 654.5,-57.5 654.5,-38.5 582.5,-38.5"/>
<text text-anchor="middle" x="618.5" y="-45.5" font-family="Helvetica,sans-Serif" font-size="10.00" fill="#000000">Fweelin::go</text>
</a>
</g>
</g>
<!-- Node337&#45;&gt;Node338 -->
<g id="edge23" class="edge">
<title>Node337&#45;&gt;Node338</title>
<path fill="none" stroke="#191970" d="M506.4416,-36.4601C532.4897,-39.1426 560.7492,-42.0528 582.3728,-44.2796"/>
<polygon fill="#191970" stroke="#191970" points="506.512,-32.9489 496.2061,-35.406 505.7949,-39.9121 506.512,-32.9489"/>
</g>
<!-- Node341 -->
<g id="node21" class="node">
<title>Node341</title>
<g id="a_node21"><a xlink:href="classSDLIO.html#a219c64dd0f01ca0fe0319ba7a0a3379e" target="_top" xlink:title="SDLIO::activate">
<polygon fill="#ffffff" stroke="#000000" points="572.5,-.5 572.5,-19.5 664.5,-19.5 664.5,-.5 572.5,-.5"/>
<text text-anchor="middle" x="618.5" y="-7.5" font-family="Helvetica,sans-Serif" font-size="10.00" fill="#000000">SDLIO::activate</text>
</a>
</g>
</g>
<!-- Node337&#45;&gt;Node341 -->
<g id="edge26" class="edge">
<title>Node337&#45;&gt;Node341</title>
<path fill="none" stroke="#191970" d="M506.2801,-21.5565C528.4976,-19.2685 552.3383,-16.8134 572.3064,-14.7571"/>
<polygon fill="#191970" stroke="#191970" points="505.7949,-18.0879 496.2061,-22.594 506.512,-25.0511 505.7949,-18.0879"/>
</g>
<!-- Node339 -->
<g id="node19" class="node">
<title>Node339</title>
<g id="a_node19"><a xlink:href="fweelin_8cc.html#a97b0fa62b7b0972875f5f589322c4c24" target="_top" xlink:title="main">
<polygon fill="#ffffff" stroke="#000000" points="784,-19.5 784,-38.5 825,-38.5 825,-19.5 784,-19.5"/>
<text text-anchor="middle" x="804.5" y="-26.5" font-family="Helvetica,sans-Serif" font-size="10.00" fill="#000000">main</text>
</a>
</g>
</g>
<!-- Node338&#45;&gt;Node339 -->
<g id="edge24" class="edge">
<title>Node338&#45;&gt;Node339</title>
<path fill="none" stroke="#191970" d="M665.1583,-43.2338C703.2918,-39.3385 755.3892,-34.0167 783.8533,-31.1091"/>
<polygon fill="#191970" stroke="#191970" points="664.3967,-39.7933 654.8042,-44.2915 665.1082,-46.7571 664.3967,-39.7933"/>
</g>
<!-- Node340 -->
<g id="node20" class="node">
<title>Node340</title>
<g id="a_node20"><a xlink:href="classLoopTray.html#a307e6abe64c403e39fc463ec282bde27" target="_top" xlink:title="LoopTray::Draw">
<polygon fill="#ffffff" stroke="#000000" points="759,-57.5 759,-76.5 850,-76.5 850,-57.5 759,-57.5"/>
<text text-anchor="middle" x="804.5" y="-64.5" font-family="Helvetica,sans-Serif" font-size="10.00" fill="#000000">LoopTray::Draw</text>
</a>
</g>
</g>
<!-- Node338&#45;&gt;Node340 -->
<g id="edge25" class="edge">
<title>Node338&#45;&gt;Node340</title>
<path fill="none" stroke="#191970" d="M664.9704,-52.747C693.6192,-55.6735 730.2034,-59.4106 758.7229,-62.3238"/>
<polygon fill="#191970" stroke="#191970" points="665.1082,-49.2429 654.8042,-51.7085 664.3967,-56.2067 665.1082,-49.2429"/>
</g>
</g>
</svg>
