<?xml version="1.0" encoding="UTF-8" standalone="no"?>
<!DOCTYPE svg PUBLIC "-//W3C//DTD SVG 1.1//EN"
 "http://www.w3.org/Graphics/SVG/1.1/DTD/svg11.dtd">
<!-- Generated by graphviz version 2.40.1 (20161225.0304)
 -->
<!-- Title: HardwareMixerInterface::show_control_id Pages: 1 -->
<svg width="842pt" height="132pt"
 viewBox="0.00 0.00 842.00 132.12" xmlns="http://www.w3.org/2000/svg" xmlns:xlink="http://www.w3.org/1999/xlink">
<g id="graph0" class="graph" transform="scale(1 1) rotate(0) translate(4 128.1246)">
<title>HardwareMixerInterface::show_control_id</title>
<polygon fill="#ffffff" stroke="transparent" points="-4,4 -4,-128.1246 838,-128.1246 838,4 -4,4"/>
<!-- Node136 -->
<g id="node1" class="node">
<title>Node136</title>
<polygon fill="#bfbfbf" stroke="#000000" points="0,-16.6246 0,-46.6246 134,-46.6246 134,-16.6246 0,-16.6246"/>
<text text-anchor="start" x="8" y="-34.6246" font-family="Helvetica,sans-Serif" font-size="10.00" fill="#000000">HardwareMixerInterface</text>
<text text-anchor="middle" x="67" y="-23.6246" font-family="Helvetica,sans-Serif" font-size="10.00" fill="#000000">::show_control_id</text>
</g>
<!-- Node137 -->
<g id="node2" class="node">
<title>Node137</title>
<g id="a_node2"><a xlink:href="classHardwareMixerInterface.html#af7595788a2e9a99336ae2c52128a4b0e" target="_top" xlink:title="HardwareMixerInterface\l::show_control">
<polygon fill="#ffffff" stroke="#000000" points="170,-16.6246 170,-46.6246 304,-46.6246 304,-16.6246 170,-16.6246"/>
<text text-anchor="start" x="178" y="-34.6246" font-family="Helvetica,sans-Serif" font-size="10.00" fill="#000000">HardwareMixerInterface</text>
<text text-anchor="middle" x="237" y="-23.6246" font-family="Helvetica,sans-Serif" font-size="10.00" fill="#000000">::show_control</text>
</a>
</g>
</g>
<!-- Node136&#45;&gt;Node137 -->
<g id="edge1" class="edge">
<title>Node136&#45;&gt;Node137</title>
<path fill="none" stroke="#191970" d="M144.4246,-31.6246C152.8759,-31.6246 161.4279,-31.6246 169.7428,-31.6246"/>
<polygon fill="#191970" stroke="#191970" points="144.1885,-28.1247 134.1885,-31.6246 144.1885,-35.1247 144.1885,-28.1247"/>
</g>
<!-- Node138 -->
<g id="node3" class="node">
<title>Node138</title>
<g id="a_node3"><a xlink:href="classHardwareMixerInterface.html#a4de903c52121c3cae45ae147a288bd69" target="_top" xlink:title="HardwareMixerInterface\l::cset">
<polygon fill="#ffffff" stroke="#000000" points="340,-58.6246 340,-88.6246 474,-88.6246 474,-58.6246 340,-58.6246"/>
<text text-anchor="start" x="348" y="-76.6246" font-family="Helvetica,sans-Serif" font-size="10.00" fill="#000000">HardwareMixerInterface</text>
<text text-anchor="middle" x="407" y="-65.6246" font-family="Helvetica,sans-Serif" font-size="10.00" fill="#000000">::cset</text>
</a>
</g>
</g>
<!-- Node136&#45;&gt;Node138 -->
<g id="edge8" class="edge">
<title>Node136&#45;&gt;Node138</title>
<path fill="none" stroke="#191970" d="M131.4808,-49.0147C144.1736,-51.9439 157.4473,-54.665 170,-56.6246 226.8573,-65.5006 292.1237,-69.7511 339.7515,-71.7815"/>
<polygon fill="#191970" stroke="#191970" points="131.989,-45.5381 121.4508,-46.6315 130.3708,-52.3485 131.989,-45.5381"/>
</g>
<!-- Node140 -->
<g id="node5" class="node">
<title>Node140</title>
<g id="a_node5"><a xlink:href="classHardwareMixerInterface.html#af861d7e76ac7844ed799ee67ae648b43" target="_top" xlink:title="HardwareMixerInterface\l::HardwareMixerInterface">
<polygon fill="#ffffff" stroke="#000000" points="687,-30.6246 687,-60.6246 827,-60.6246 827,-30.6246 687,-30.6246"/>
<text text-anchor="start" x="695" y="-48.6246" font-family="Helvetica,sans-Serif" font-size="10.00" fill="#000000">HardwareMixerInterface</text>
<text text-anchor="middle" x="757" y="-37.6246" font-family="Helvetica,sans-Serif" font-size="10.00" fill="#000000">::HardwareMixerInterface</text>
</a>
</g>
</g>
<!-- Node136&#45;&gt;Node140 -->
<g id="edge9" class="edge">
<title>Node136&#45;&gt;Node140</title>
<path fill="none" stroke="#191970" d="M131.197,-14.2839C143.9613,-11.5126 157.334,-9.0807 170,-7.6246 355.9159,13.7493 576.4451,-14.9477 686.7707,-32.984"/>
<polygon fill="#191970" stroke="#191970" points="130.0958,-10.9445 121.1158,-16.5669 131.642,-17.7716 130.0958,-10.9445"/>
</g>
<!-- Node137&#45;&gt;Node138 -->
<g id="edge2" class="edge">
<title>Node137&#45;&gt;Node138</title>
<path fill="none" stroke="#191970" d="M307.9791,-49.1606C320.6979,-52.3029 333.8474,-55.5516 346.2459,-58.6147"/>
<polygon fill="#191970" stroke="#191970" points="308.4413,-45.6696 297.8937,-46.6689 306.7623,-52.4653 308.4413,-45.6696"/>
</g>
<!-- Node137&#45;&gt;Node140 -->
<g id="edge7" class="edge">
<title>Node137&#45;&gt;Node140</title>
<path fill="none" stroke="#191970" d="M314.2874,-33.7054C414.9677,-36.416 589.5597,-41.1166 686.6838,-43.7314"/>
<polygon fill="#191970" stroke="#191970" points="314.2725,-30.2038 304.1819,-33.4333 314.084,-37.2013 314.2725,-30.2038"/>
</g>
<!-- Node139 -->
<g id="node4" class="node">
<title>Node139</title>
<g id="a_node4"><a xlink:href="classHardwareMixerInterface.html#ab575fcbde123baa1dbd1338d69491e8d" target="_top" xlink:title="HardwareMixerInterface\l::ALSAMixerControlSet">
<polygon fill="#ffffff" stroke="#000000" points="510,-93.6246 510,-123.6246 644,-123.6246 644,-93.6246 510,-93.6246"/>
<text text-anchor="start" x="518" y="-111.6246" font-family="Helvetica,sans-Serif" font-size="10.00" fill="#000000">HardwareMixerInterface</text>
<text text-anchor="middle" x="577" y="-100.6246" font-family="Helvetica,sans-Serif" font-size="10.00" fill="#000000">::ALSAMixerControlSet</text>
</a>
</g>
</g>
<!-- Node138&#45;&gt;Node139 -->
<g id="edge3" class="edge">
<title>Node138&#45;&gt;Node139</title>
<path fill="none" stroke="#191970" d="M484.146,-89.5076C492.6879,-91.2662 501.3366,-93.0468 509.7428,-94.7775"/>
<polygon fill="#191970" stroke="#191970" points="484.6889,-86.046 474.1885,-87.4575 483.2773,-92.9022 484.6889,-86.046"/>
</g>
<!-- Node138&#45;&gt;Node140 -->
<g id="edge6" class="edge">
<title>Node138&#45;&gt;Node140</title>
<path fill="none" stroke="#191970" d="M484.3318,-67.438C544.842,-62.5972 628.2706,-55.9229 686.8589,-51.2358"/>
<polygon fill="#191970" stroke="#191970" points="483.7584,-63.9726 474.0694,-68.259 484.3167,-70.9503 483.7584,-63.9726"/>
</g>
<!-- Node139&#45;&gt;Node140 -->
<g id="edge4" class="edge">
<title>Node139&#45;&gt;Node140</title>
<path fill="none" stroke="#191970" d="M629.7186,-90.1731C656.5056,-80.7976 688.6448,-69.5489 713.9257,-60.7006"/>
<polygon fill="#191970" stroke="#191970" points="628.3968,-86.9274 620.1145,-93.5345 630.7093,-93.5344 628.3968,-86.9274"/>
</g>
<!-- Node141 -->
<g id="node6" class="node">
<title>Node141</title>
<g id="a_node6"><a xlink:href="classLoopManager.html#a4aada2d07b7ce0a67a8119ece4805966" target="_top" xlink:title="LoopManager::ReceiveEvent">
<polygon fill="#ffffff" stroke="#000000" points="680,-99.1246 680,-118.1246 834,-118.1246 834,-99.1246 680,-99.1246"/>
<text text-anchor="middle" x="757" y="-106.1246" font-family="Helvetica,sans-Serif" font-size="10.00" fill="#000000">LoopManager::ReceiveEvent</text>
</a>
</g>
</g>
<!-- Node139&#45;&gt;Node141 -->
<g id="edge5" class="edge">
<title>Node139&#45;&gt;Node141</title>
<path fill="none" stroke="#191970" d="M654.285,-108.6246C662.7758,-108.6246 671.4206,-108.6246 679.9091,-108.6246"/>
<polygon fill="#191970" stroke="#191970" points="654.0254,-105.1247 644.0254,-108.6246 654.0253,-112.1247 654.0254,-105.1247"/>
</g>
</g>
</svg>
