<?xml version="1.0" encoding="UTF-8" standalone="no"?>
<!DOCTYPE svg PUBLIC "-//W3C//DTD SVG 1.1//EN"
 "http://www.w3.org/Graphics/SVG/1.1/DTD/svg11.dtd">
<!-- Generated by graphviz version 2.40.1 (20161225.0304)
 -->
<!-- Title: LoopManager::GetSlot Pages: 1 -->
<svg width="281pt" height="66pt"
 viewBox="0.00 0.00 281.00 66.00" xmlns="http://www.w3.org/2000/svg" xmlns:xlink="http://www.w3.org/1999/xlink">
<g id="graph0" class="graph" transform="scale(1 1) rotate(0) translate(4 62)">
<title>LoopManager::GetSlot</title>
<polygon fill="#ffffff" stroke="transparent" points="-4,4 -4,-62 277,-62 277,4 -4,4"/>
<!-- Node516 -->
<g id="node1" class="node">
<title>Node516</title>
<polygon fill="#bfbfbf" stroke="#000000" points="0,-19.5 0,-38.5 124,-38.5 124,-19.5 0,-19.5"/>
<text text-anchor="middle" x="62" y="-26.5" font-family="Helvetica,sans-Serif" font-size="10.00" fill="#000000">LoopManager::GetSlot</text>
</g>
<!-- Node517 -->
<g id="node2" class="node">
<title>Node517</title>
<g id="a_node2"><a xlink:href="classFweelin.html#a10bb364ecf38990653b49a98c5a89c90" target="_top" xlink:title="Fweelin::getTMAP">
<polygon fill="#ffffff" stroke="#000000" points="165,-38.5 165,-57.5 268,-57.5 268,-38.5 165,-38.5"/>
<text text-anchor="middle" x="216.5" y="-45.5" font-family="Helvetica,sans-Serif" font-size="10.00" fill="#000000">Fweelin::getTMAP</text>
</a>
</g>
</g>
<!-- Node516&#45;&gt;Node517 -->
<g id="edge1" class="edge">
<title>Node516&#45;&gt;Node517</title>
<path fill="none" stroke="#191970" d="M124.3957,-36.6733C134.3409,-37.8963 144.6274,-39.1613 154.562,-40.383"/>
<polygon fill="#191970" stroke="#191970" points="154.4059,-43.8901 164.7583,-41.6369 155.2603,-36.9425 154.4059,-43.8901"/>
</g>
<!-- Node518 -->
<g id="node3" class="node">
<title>Node518</title>
<g id="a_node3"><a xlink:href="classTriggerMap.html#aca3f85b40f3aa29a280c2d7511b84217" target="_top" xlink:title="TriggerMap::GetMap">
<polygon fill="#ffffff" stroke="#000000" points="160,-.5 160,-19.5 273,-19.5 273,-.5 160,-.5"/>
<text text-anchor="middle" x="216.5" y="-7.5" font-family="Helvetica,sans-Serif" font-size="10.00" fill="#000000">TriggerMap::GetMap</text>
</a>
</g>
</g>
<!-- Node516&#45;&gt;Node518 -->
<g id="edge2" class="edge">
<title>Node516&#45;&gt;Node518</title>
<path fill="none" stroke="#191970" d="M124.3957,-21.3267C132.7314,-20.3016 141.3068,-19.2471 149.7138,-18.2132"/>
<polygon fill="#191970" stroke="#191970" points="150.3595,-21.6602 159.8575,-16.9657 149.505,-14.7126 150.3595,-21.6602"/>
</g>
</g>
</svg>
