<?xml version="1.0" encoding="UTF-8" standalone="no"?>
<!DOCTYPE svg PUBLIC "-//W3C//DTD SVG 1.1//EN"
 "http://www.w3.org/Graphics/SVG/1.1/DTD/svg11.dtd">
<!-- Generated by graphviz version 2.40.1 (20161225.0304)
 -->
<!-- Title: AudioBlock::GetExtendedData Pages: 1 -->
<svg width="989pt" height="528pt"
 viewBox="0.00 0.00 989.00 528.39" xmlns="http://www.w3.org/2000/svg" xmlns:xlink="http://www.w3.org/1999/xlink">
<g id="graph0" class="graph" transform="scale(1 1) rotate(0) translate(4 524.392)">
<title>AudioBlock::GetExtendedData</title>
<polygon fill="#ffffff" stroke="transparent" points="-4,4 -4,-524.392 985,-524.392 985,4 -4,4"/>
<!-- Node53 -->
<g id="node1" class="node">
<title>Node53</title>
<polygon fill="#bfbfbf" stroke="#000000" points="0,-98.5 0,-117.5 164,-117.5 164,-98.5 0,-98.5"/>
<text text-anchor="middle" x="82" y="-105.5" font-family="Helvetica,sans-Serif" font-size="10.00" fill="#000000">AudioBlock::GetExtendedData</text>
</g>
<!-- Node54 -->
<g id="node2" class="node">
<title>Node54</title>
<g id="a_node2"><a xlink:href="classAudioBlock.html#a09c778d19d7d45dbb68951fabff2f518" target="_top" xlink:title="AudioBlock::Smooth">
<polygon fill="#ffffff" stroke="#000000" points="226.5,-316.5 226.5,-335.5 341.5,-335.5 341.5,-316.5 226.5,-316.5"/>
<text text-anchor="middle" x="284" y="-323.5" font-family="Helvetica,sans-Serif" font-size="10.00" fill="#000000">AudioBlock::Smooth</text>
</a>
</g>
</g>
<!-- Node53&#45;&gt;Node54 -->
<g id="edge1" class="edge">
<title>Node53&#45;&gt;Node54</title>
<path fill="none" stroke="#191970" d="M97.9021,-125.1617C138.3042,-168.7639 243.908,-282.7324 275.1629,-316.4629"/>
<polygon fill="#191970" stroke="#191970" points="100.3044,-122.6047 90.9403,-117.6485 95.1698,-127.3625 100.3044,-122.6047"/>
</g>
<!-- Node64 -->
<g id="node12" class="node">
<title>Node64</title>
<g id="a_node12"><a xlink:href="classAudioBlock.html#aea20227efbc9017f7fb247cb2d851086" target="_top" xlink:title="AudioBlock::GenerateSubChain">
<polygon fill="#ffffff" stroke="#000000" points="200,-38.5 200,-57.5 368,-57.5 368,-38.5 200,-38.5"/>
<text text-anchor="middle" x="284" y="-45.5" font-family="Helvetica,sans-Serif" font-size="10.00" fill="#000000">AudioBlock::GenerateSubChain</text>
</a>
</g>
</g>
<!-- Node53&#45;&gt;Node64 -->
<g id="edge12" class="edge">
<title>Node53&#45;&gt;Node64</title>
<path fill="none" stroke="#191970" d="M122.6654,-95.3983C145.3874,-88.4062 174.2339,-79.6106 200,-72 216.4366,-67.1451 234.7292,-61.9 250.0369,-57.5551"/>
<polygon fill="#191970" stroke="#191970" points="121.5357,-92.084 113.0103,-98.3743 123.5976,-98.7735 121.5357,-92.084"/>
</g>
<!-- Node65 -->
<g id="node13" class="node">
<title>Node65</title>
<g id="a_node13"><a xlink:href="classRecordProcessor.html#aa20c0f68a5ee5e4739759b3783b6e4d1" target="_top" xlink:title="RecordProcessor::RecordProcessor">
<polygon fill="#ffffff" stroke="#000000" points="404,-6.5 404,-25.5 587,-25.5 587,-6.5 404,-6.5"/>
<text text-anchor="middle" x="495.5" y="-13.5" font-family="Helvetica,sans-Serif" font-size="10.00" fill="#000000">RecordProcessor::RecordProcessor</text>
</a>
</g>
</g>
<!-- Node53&#45;&gt;Node65 -->
<g id="edge33" class="edge">
<title>Node53&#45;&gt;Node65</title>
<path fill="none" stroke="#191970" d="M174.1018,-100.4191C230.7132,-94.3799 304.3471,-84.0317 368,-67 407.382,-56.4625 451.0403,-37.2472 475.6906,-25.6487"/>
<polygon fill="#191970" stroke="#191970" points="173.6785,-96.9441 164.0947,-101.4608 174.4033,-103.9065 173.6785,-96.9441"/>
</g>
<!-- Node66 -->
<g id="node14" class="node">
<title>Node66</title>
<g id="a_node14"><a xlink:href="classAudioBlockIterator.html#a5cc11c9589308f5da0fea19c701c84b3" target="_top" xlink:title="AudioBlockIterator\l::PutFragment">
<polygon fill="#ffffff" stroke="#000000" points="442,-208 442,-238 549,-238 549,-208 442,-208"/>
<text text-anchor="start" x="450" y="-226" font-family="Helvetica,sans-Serif" font-size="10.00" fill="#000000">AudioBlockIterator</text>
<text text-anchor="middle" x="495.5" y="-215" font-family="Helvetica,sans-Serif" font-size="10.00" fill="#000000">::PutFragment</text>
</a>
</g>
</g>
<!-- Node53&#45;&gt;Node66 -->
<g id="edge14" class="edge">
<title>Node53&#45;&gt;Node66</title>
<path fill="none" stroke="#191970" d="M113.307,-121.6125C136.842,-131.4987 170.0458,-144.716 200,-154 283.1547,-179.773 382.0844,-201.0236 441.7744,-212.8512"/>
<polygon fill="#191970" stroke="#191970" points="114.423,-118.2841 103.8502,-117.6007 111.6892,-124.7282 114.423,-118.2841"/>
</g>
<!-- Node70 -->
<g id="node18" class="node">
<title>Node70</title>
<g id="a_node18"><a xlink:href="classAudioBlockIterator.html#a86cfc4c09c380d6304ed3aa6ff2ea17b" target="_top" xlink:title="AudioBlockIterator\l::GetFragment">
<polygon fill="#ffffff" stroke="#000000" points="230.5,-115 230.5,-145 337.5,-145 337.5,-115 230.5,-115"/>
<text text-anchor="start" x="238.5" y="-133" font-family="Helvetica,sans-Serif" font-size="10.00" fill="#000000">AudioBlockIterator</text>
<text text-anchor="middle" x="284" y="-122" font-family="Helvetica,sans-Serif" font-size="10.00" fill="#000000">::GetFragment</text>
</a>
</g>
</g>
<!-- Node53&#45;&gt;Node70 -->
<g id="edge20" class="edge">
<title>Node53&#45;&gt;Node70</title>
<path fill="none" stroke="#191970" d="M174.1528,-118.0364C193.3631,-120.1287 213.0035,-122.2677 230.2656,-124.1477"/>
<polygon fill="#191970" stroke="#191970" points="174.4813,-114.5516 164.1611,-116.9482 173.7234,-121.5105 174.4813,-114.5516"/>
</g>
<!-- Node76 -->
<g id="node24" class="node">
<title>Node76</title>
<g id="a_node24"><a xlink:href="classVideoIO.html#adca60a99be6e51d8af7ce2a32f92349a" target="_top" xlink:title="VideoIO::DrawLoop">
<polygon fill="#ffffff" stroke="#000000" points="229,-.5 229,-19.5 339,-19.5 339,-.5 229,-.5"/>
<text text-anchor="middle" x="284" y="-7.5" font-family="Helvetica,sans-Serif" font-size="10.00" fill="#000000">VideoIO::DrawLoop</text>
</a>
</g>
</g>
<!-- Node53&#45;&gt;Node76 -->
<g id="edge34" class="edge">
<title>Node53&#45;&gt;Node76</title>
<path fill="none" stroke="#191970" d="M101.2155,-91.8447C123.5562,-73.8788 162.2126,-45.2532 200,-29 209.0652,-25.1009 219.0393,-21.9494 228.8513,-19.4191"/>
<polygon fill="#191970" stroke="#191970" points="98.747,-89.3421 93.2214,-98.3819 103.1783,-94.7609 98.747,-89.3421"/>
</g>
<!-- Node55 -->
<g id="node3" class="node">
<title>Node55</title>
<g id="a_node3"><a xlink:href="classBlockReadManager.html#a0956beb932559fdea3ecca152db2bd0a" target="_top" xlink:title="BlockReadManager::End">
<polygon fill="#ffffff" stroke="#000000" points="428.5,-436.5 428.5,-455.5 562.5,-455.5 562.5,-436.5 428.5,-436.5"/>
<text text-anchor="middle" x="495.5" y="-443.5" font-family="Helvetica,sans-Serif" font-size="10.00" fill="#000000">BlockReadManager::End</text>
</a>
</g>
</g>
<!-- Node54&#45;&gt;Node55 -->
<g id="edge2" class="edge">
<title>Node54&#45;&gt;Node55</title>
<path fill="none" stroke="#191970" d="M309.8564,-340.6703C353.709,-365.5512 441.5003,-415.3619 478.4689,-436.3369"/>
<polygon fill="#191970" stroke="#191970" points="311.3752,-337.5079 300.9504,-335.6173 307.9208,-343.5963 311.3752,-337.5079"/>
</g>
<!-- Node60 -->
<g id="node8" class="node">
<title>Node60</title>
<g id="a_node8"><a xlink:href="classRecordProcessor.html#a9984f573bbc265321ad0604f97b23820" target="_top" xlink:title="RecordProcessor::EndNow">
<polygon fill="#ffffff" stroke="#000000" points="424,-316.5 424,-335.5 567,-335.5 567,-316.5 424,-316.5"/>
<text text-anchor="middle" x="495.5" y="-323.5" font-family="Helvetica,sans-Serif" font-size="10.00" fill="#000000">RecordProcessor::EndNow</text>
</a>
</g>
</g>
<!-- Node54&#45;&gt;Node60 -->
<g id="edge8" class="edge">
<title>Node54&#45;&gt;Node60</title>
<path fill="none" stroke="#191970" d="M351.5231,-326C374.5196,-326 400.3029,-326 423.6277,-326"/>
<polygon fill="#191970" stroke="#191970" points="351.514,-322.5001 341.5139,-326 351.5139,-329.5001 351.514,-322.5001"/>
</g>
<!-- Node56 -->
<g id="node4" class="node">
<title>Node56</title>
<g id="a_node4"><a xlink:href="classBlockReadManager.html#a935aa663d9fa5b6d346f77c7b3882e2b" target="_top" xlink:title="BlockReadManager::\l~BlockReadManager">
<polygon fill="#ffffff" stroke="#000000" points="646,-431 646,-461 764,-461 764,-431 646,-431"/>
<text text-anchor="start" x="654" y="-449" font-family="Helvetica,sans-Serif" font-size="10.00" fill="#000000">BlockReadManager::</text>
<text text-anchor="middle" x="705" y="-438" font-family="Helvetica,sans-Serif" font-size="10.00" fill="#000000">~BlockReadManager</text>
</a>
</g>
</g>
<!-- Node55&#45;&gt;Node56 -->
<g id="edge3" class="edge">
<title>Node55&#45;&gt;Node56</title>
<path fill="none" stroke="#191970" d="M572.8661,-446C597.0372,-446 623.3006,-446 645.9978,-446"/>
<polygon fill="#191970" stroke="#191970" points="572.6516,-442.5001 562.6516,-446 572.6515,-449.5001 572.6516,-442.5001"/>
</g>
<!-- Node57 -->
<g id="node5" class="node">
<title>Node57</title>
<g id="a_node5"><a xlink:href="classBlockReadManager.html#af12804c61f944904eedf8c9edf5cd3bd" target="_top" xlink:title="BlockReadManager::Start">
<polygon fill="#ffffff" stroke="#000000" points="635.5,-392.5 635.5,-411.5 774.5,-411.5 774.5,-392.5 635.5,-392.5"/>
<text text-anchor="middle" x="705" y="-399.5" font-family="Helvetica,sans-Serif" font-size="10.00" fill="#000000">BlockReadManager::Start</text>
</a>
</g>
</g>
<!-- Node55&#45;&gt;Node57 -->
<g id="edge4" class="edge">
<title>Node55&#45;&gt;Node57</title>
<path fill="none" stroke="#191970" d="M551.1697,-434.308C585.0593,-427.1904 627.8048,-418.2128 659.6303,-411.5287"/>
<polygon fill="#191970" stroke="#191970" points="550.0255,-430.9719 540.9584,-436.4527 551.4643,-437.8225 550.0255,-430.9719"/>
</g>
<!-- Node58 -->
<g id="node6" class="node">
<title>Node58</title>
<g id="a_node6"><a xlink:href="classBlockReadManager.html#aa990976dec4a3ec5bd6384b54ce5f09b" target="_top" xlink:title="BlockReadManager::Manage">
<polygon fill="#ffffff" stroke="#000000" points="825,-455.5 825,-474.5 979,-474.5 979,-455.5 825,-455.5"/>
<text text-anchor="middle" x="902" y="-462.5" font-family="Helvetica,sans-Serif" font-size="10.00" fill="#000000">BlockReadManager::Manage</text>
</a>
</g>
</g>
<!-- Node55&#45;&gt;Node58 -->
<g id="edge6" class="edge">
<title>Node55&#45;&gt;Node58</title>
<path fill="none" stroke="#191970" d="M518.1674,-461.2332C542.7575,-476.764 583.7723,-499.8372 623,-509 693.9783,-525.5791 715.3244,-522.2437 787,-509 822.5253,-502.4359 861.2639,-485.363 883.491,-474.5168"/>
<polygon fill="#191970" stroke="#191970" points="519.8853,-458.1763 509.5851,-455.6949 516.0897,-464.058 519.8853,-458.1763"/>
</g>
<!-- Node59 -->
<g id="node7" class="node">
<title>Node59</title>
<g id="a_node7"><a xlink:href="classLoopManager.html#aadca58536e41c8b0b8fd148ac40b23c0" target="_top" xlink:title="LoopManager::~LoopManager">
<polygon fill="#ffffff" stroke="#000000" points="624.5,-480.5 624.5,-499.5 785.5,-499.5 785.5,-480.5 624.5,-480.5"/>
<text text-anchor="middle" x="705" y="-487.5" font-family="Helvetica,sans-Serif" font-size="10.00" fill="#000000">LoopManager::~LoopManager</text>
</a>
</g>
</g>
<!-- Node55&#45;&gt;Node59 -->
<g id="edge7" class="edge">
<title>Node55&#45;&gt;Node59</title>
<path fill="none" stroke="#191970" d="M551.1697,-457.692C585.0593,-464.8096 627.8048,-473.7872 659.6303,-480.4713"/>
<polygon fill="#191970" stroke="#191970" points="551.4643,-454.1775 540.9584,-455.5473 550.0255,-461.0281 551.4643,-454.1775"/>
</g>
<!-- Node57&#45;&gt;Node58 -->
<g id="edge5" class="edge">
<title>Node57&#45;&gt;Node58</title>
<path fill="none" stroke="#191970" d="M758.1602,-413.9908C767.8124,-416.444 777.7488,-419.1532 787,-422 819.3924,-431.9678 855.9095,-446.1413 878.932,-455.4511"/>
<polygon fill="#191970" stroke="#191970" points="758.7937,-410.542 748.2452,-411.5321 757.1088,-417.3362 758.7937,-410.542"/>
</g>
<!-- Node61 -->
<g id="node9" class="node">
<title>Node61</title>
<g id="a_node9"><a xlink:href="classRecordProcessor.html#a6168d8dc850602a348dc74ab1224263a" target="_top" xlink:title="RecordProcessor::PulseSync">
<polygon fill="#ffffff" stroke="#000000" points="826,-278.5 826,-297.5 978,-297.5 978,-278.5 826,-278.5"/>
<text text-anchor="middle" x="902" y="-285.5" font-family="Helvetica,sans-Serif" font-size="10.00" fill="#000000">RecordProcessor::PulseSync</text>
</a>
</g>
</g>
<!-- Node60&#45;&gt;Node61 -->
<g id="edge9" class="edge">
<title>Node60&#45;&gt;Node61</title>
<path fill="none" stroke="#191970" d="M577.55,-322.8161C636.0656,-320.0179 716.5372,-315.0972 787,-307 808.1088,-304.5743 831.248,-300.9421 851.201,-297.5012"/>
<polygon fill="#191970" stroke="#191970" points="577.0799,-319.3341 567.2543,-323.2974 577.4069,-326.3265 577.0799,-319.3341"/>
</g>
<!-- Node62 -->
<g id="node10" class="node">
<title>Node62</title>
<g id="a_node10"><a xlink:href="classRecordProcessor.html#ab035edfb707f8f1066b3597df7ddda7d" target="_top" xlink:title="RecordProcessor::End">
<polygon fill="#ffffff" stroke="#000000" points="644.5,-354.5 644.5,-373.5 765.5,-373.5 765.5,-354.5 644.5,-354.5"/>
<text text-anchor="middle" x="705" y="-361.5" font-family="Helvetica,sans-Serif" font-size="10.00" fill="#000000">RecordProcessor::End</text>
</a>
</g>
</g>
<!-- Node60&#45;&gt;Node62 -->
<g id="edge10" class="edge">
<title>Node60&#45;&gt;Node62</title>
<path fill="none" stroke="#191970" d="M558.0575,-337.347C588.116,-342.7991 623.7397,-349.2607 652.3831,-354.4561"/>
<polygon fill="#191970" stroke="#191970" points="558.5594,-333.8809 548.0953,-335.54 557.3101,-340.7686 558.5594,-333.8809"/>
</g>
<!-- Node63 -->
<g id="node11" class="node">
<title>Node63</title>
<g id="a_node11"><a xlink:href="classRecordProcessor.html#ad36d69ec9d41b424eb2e6c5fa2e0cf3a" target="_top" xlink:title="RecordProcessor::process">
<polygon fill="#ffffff" stroke="#000000" points="635,-278.5 635,-297.5 775,-297.5 775,-278.5 635,-278.5"/>
<text text-anchor="middle" x="705" y="-285.5" font-family="Helvetica,sans-Serif" font-size="10.00" fill="#000000">RecordProcessor::process</text>
</a>
</g>
</g>
<!-- Node60&#45;&gt;Node63 -->
<g id="edge11" class="edge">
<title>Node60&#45;&gt;Node63</title>
<path fill="none" stroke="#191970" d="M558.0575,-314.653C588.116,-309.2009 623.7397,-302.7393 652.3831,-297.5439"/>
<polygon fill="#191970" stroke="#191970" points="557.3101,-311.2314 548.0953,-316.46 558.5594,-318.1191 557.3101,-311.2314"/>
</g>
<!-- Node64&#45;&gt;Node65 -->
<g id="edge13" class="edge">
<title>Node64&#45;&gt;Node65</title>
<path fill="none" stroke="#191970" d="M356.8865,-36.9722C381.487,-33.2502 408.7221,-29.1295 432.4927,-25.533"/>
<polygon fill="#191970" stroke="#191970" points="356.2482,-33.5289 346.8843,-38.4856 357.2954,-40.4501 356.2482,-33.5289"/>
</g>
<!-- Node66&#45;&gt;Node63 -->
<g id="edge19" class="edge">
<title>Node66&#45;&gt;Node63</title>
<path fill="none" stroke="#191970" d="M543.0957,-241.6904C566.8755,-250.6382 596.2206,-261.097 623,-269 634.7732,-272.4744 647.6488,-275.7144 659.6359,-278.4998"/>
<polygon fill="#191970" stroke="#191970" points="544.1962,-238.3645 533.605,-238.0887 541.7126,-244.9091 544.1962,-238.3645"/>
</g>
<!-- Node67 -->
<g id="node15" class="node">
<title>Node67</title>
<g id="a_node15"><a xlink:href="classSndFileDecoder.html#a6f533159127e8f633a12c6fe3f86b4a2" target="_top" xlink:title="SndFileDecoder::ReadSamples">
<polygon fill="#ffffff" stroke="#000000" points="623,-164.5 623,-183.5 787,-183.5 787,-164.5 623,-164.5"/>
<text text-anchor="middle" x="705" y="-171.5" font-family="Helvetica,sans-Serif" font-size="10.00" fill="#000000">SndFileDecoder::ReadSamples</text>
</a>
</g>
</g>
<!-- Node66&#45;&gt;Node67 -->
<g id="edge15" class="edge">
<title>Node66&#45;&gt;Node67</title>
<path fill="none" stroke="#191970" d="M558.9799,-208.0187C579.4158,-203.2078 602.1619,-197.8657 623,-193 636.2343,-189.9098 650.6749,-186.5573 663.6987,-183.5409"/>
<polygon fill="#191970" stroke="#191970" points="558.0832,-204.634 549.1518,-210.3333 559.6879,-211.4476 558.0832,-204.634"/>
</g>
<!-- Node68 -->
<g id="node16" class="node">
<title>Node68</title>
<g id="a_node16"><a xlink:href="classVorbisDecoder.html#a605d498b0a32990607910576964da546" target="_top" xlink:title="VorbisDecoder::ReadSamples">
<polygon fill="#ffffff" stroke="#000000" points="625.5,-202.5 625.5,-221.5 784.5,-221.5 784.5,-202.5 625.5,-202.5"/>
<text text-anchor="middle" x="705" y="-209.5" font-family="Helvetica,sans-Serif" font-size="10.00" fill="#000000">VorbisDecoder::ReadSamples</text>
</a>
</g>
</g>
<!-- Node66&#45;&gt;Node68 -->
<g id="edge16" class="edge">
<title>Node66&#45;&gt;Node68</title>
<path fill="none" stroke="#191970" d="M559.1916,-219.6558C580.0459,-218.5608 603.4796,-217.3304 625.36,-216.1816"/>
<polygon fill="#191970" stroke="#191970" points="558.9821,-216.1619 549.1794,-220.1815 559.3492,-223.1523 558.9821,-216.1619"/>
</g>
<!-- Node69 -->
<g id="node17" class="node">
<title>Node69</title>
<g id="a_node17"><a xlink:href="classRecordProcessor.html#a8fbde2e8b6f9e9dafb89ef0b06e6a11a" target="_top" xlink:title="RecordProcessor::Jump">
<polygon fill="#ffffff" stroke="#000000" points="641,-240.5 641,-259.5 769,-259.5 769,-240.5 641,-240.5"/>
<text text-anchor="middle" x="705" y="-247.5" font-family="Helvetica,sans-Serif" font-size="10.00" fill="#000000">RecordProcessor::Jump</text>
</a>
</g>
</g>
<!-- Node66&#45;&gt;Node69 -->
<g id="edge17" class="edge">
<title>Node66&#45;&gt;Node69</title>
<path fill="none" stroke="#191970" d="M559.2274,-231.2131C585.0284,-234.5383 614.7728,-238.3717 640.6379,-241.7051"/>
<polygon fill="#191970" stroke="#191970" points="559.5448,-227.7251 549.1794,-229.9181 558.65,-234.6677 559.5448,-227.7251"/>
</g>
<!-- Node69&#45;&gt;Node61 -->
<g id="edge18" class="edge">
<title>Node69&#45;&gt;Node61</title>
<path fill="none" stroke="#191970" d="M764.5635,-261.4894C792.672,-266.9114 825.8224,-273.3058 852.5225,-278.4561"/>
<polygon fill="#191970" stroke="#191970" points="764.9391,-257.9974 754.4571,-259.54 763.6132,-264.8707 764.9391,-257.9974"/>
</g>
<!-- Node70&#45;&gt;Node63 -->
<g id="edge31" class="edge">
<title>Node70&#45;&gt;Node63</title>
<path fill="none" stroke="#191970" d="M300.2219,-153.3547C320.8541,-181.0248 359.2302,-226.1216 404,-248 477.0579,-283.7024 571.3544,-290.9028 634.7714,-290.9864"/>
<polygon fill="#191970" stroke="#191970" points="302.8781,-151.0566 294.161,-145.0347 297.2201,-155.1783 302.8781,-151.0566"/>
</g>
<!-- Node71 -->
<g id="node19" class="node">
<title>Node71</title>
<g id="a_node19"><a xlink:href="classBlockWriteManager.html#a0b50330873c237f482c48aa06a4b1a9a" target="_top" xlink:title="BlockWriteManager::\lManage">
<polygon fill="#ffffff" stroke="#000000" points="646.5,-115 646.5,-145 763.5,-145 763.5,-115 646.5,-115"/>
<text text-anchor="start" x="654.5" y="-133" font-family="Helvetica,sans-Serif" font-size="10.00" fill="#000000">BlockWriteManager::</text>
<text text-anchor="middle" x="705" y="-122" font-family="Helvetica,sans-Serif" font-size="10.00" fill="#000000">Manage</text>
</a>
</g>
</g>
<!-- Node70&#45;&gt;Node71 -->
<g id="edge21" class="edge">
<title>Node70&#45;&gt;Node71</title>
<path fill="none" stroke="#191970" d="M347.8201,-130C428.8602,-130 567.5744,-130 646.1632,-130"/>
<polygon fill="#191970" stroke="#191970" points="347.7476,-126.5001 337.7476,-130 347.7475,-133.5001 347.7476,-126.5001"/>
</g>
<!-- Node72 -->
<g id="node20" class="node">
<title>Node72</title>
<g id="a_node20"><a xlink:href="classAudioBlockIterator.html#ae0521dee0479a9203bed6515bfc89568" target="_top" xlink:title="AudioBlockIterator\l::NextFragment">
<polygon fill="#ffffff" stroke="#000000" points="442,-159 442,-189 549,-189 549,-159 442,-159"/>
<text text-anchor="start" x="450" y="-177" font-family="Helvetica,sans-Serif" font-size="10.00" fill="#000000">AudioBlockIterator</text>
<text text-anchor="middle" x="495.5" y="-166" font-family="Helvetica,sans-Serif" font-size="10.00" fill="#000000">::NextFragment</text>
</a>
</g>
</g>
<!-- Node70&#45;&gt;Node72 -->
<g id="edge22" class="edge">
<title>Node70&#45;&gt;Node72</title>
<path fill="none" stroke="#191970" d="M347.6199,-143.2353C377.7035,-149.4939 413.2251,-156.8837 441.9134,-162.852"/>
<polygon fill="#191970" stroke="#191970" points="348.1471,-139.7702 337.6438,-141.1599 346.7213,-146.6234 348.1471,-139.7702"/>
</g>
<!-- Node73 -->
<g id="node21" class="node">
<title>Node73</title>
<g id="a_node21"><a xlink:href="classLoopManager.html#a306ffe72c9623e33cad280ec3609c359" target="_top" xlink:title="LoopManager::SetupSaveLoop">
<polygon fill="#ffffff" stroke="#000000" points="623.5,-76.5 623.5,-95.5 786.5,-95.5 786.5,-76.5 623.5,-76.5"/>
<text text-anchor="middle" x="705" y="-83.5" font-family="Helvetica,sans-Serif" font-size="10.00" fill="#000000">LoopManager::SetupSaveLoop</text>
</a>
</g>
</g>
<!-- Node70&#45;&gt;Node73 -->
<g id="edge30" class="edge">
<title>Node70&#45;&gt;Node73</title>
<path fill="none" stroke="#191970" d="M347.8215,-123.3298C421.5237,-115.627 542.927,-102.9387 623.4234,-94.5258"/>
<polygon fill="#191970" stroke="#191970" points="347.3295,-119.8621 337.7476,-124.3827 348.0572,-126.8242 347.3295,-119.8621"/>
</g>
<!-- Node75 -->
<g id="node23" class="node">
<title>Node75</title>
<g id="a_node23"><a xlink:href="classPlayProcessor.html#a46bc1b738f48261e0c430f7345f4d99f" target="_top" xlink:title="PlayProcessor::process">
<polygon fill="#ffffff" stroke="#000000" points="641,-38.5 641,-57.5 769,-57.5 769,-38.5 641,-38.5"/>
<text text-anchor="middle" x="705" y="-45.5" font-family="Helvetica,sans-Serif" font-size="10.00" fill="#000000">PlayProcessor::process</text>
</a>
</g>
</g>
<!-- Node70&#45;&gt;Node75 -->
<g id="edge32" class="edge">
<title>Node70&#45;&gt;Node75</title>
<path fill="none" stroke="#191970" d="M341.8362,-112.1228C361.4454,-106.4608 383.5595,-100.5091 404,-96 485.0003,-78.1318 579.6569,-64.1491 640.8778,-55.9929"/>
<polygon fill="#191970" stroke="#191970" points="340.7483,-108.7942 332.132,-114.9593 342.7123,-115.5131 340.7483,-108.7942"/>
</g>
<!-- Node72&#45;&gt;Node63 -->
<g id="edge28" class="edge">
<title>Node72&#45;&gt;Node63</title>
<path fill="none" stroke="#191970" d="M559.0508,-183.9513C569.1064,-187.5341 578.8572,-192.3984 587,-199 614.1753,-221.0319 595.4,-247.5026 623,-269 627.9574,-272.8613 633.5629,-275.9614 639.4589,-278.4473"/>
<polygon fill="#191970" stroke="#191970" points="559.9488,-180.5646 549.3591,-180.894 557.8429,-187.2403 559.9488,-180.5646"/>
</g>
<!-- Node72&#45;&gt;Node67 -->
<g id="edge23" class="edge">
<title>Node72&#45;&gt;Node67</title>
<path fill="none" stroke="#191970" d="M559.421,-174C579.4547,-174 601.8504,-174 622.9545,-174"/>
<polygon fill="#191970" stroke="#191970" points="559.1794,-170.5001 549.1794,-174 559.1794,-177.5001 559.1794,-170.5001"/>
</g>
<!-- Node72&#45;&gt;Node68 -->
<g id="edge24" class="edge">
<title>Node72&#45;&gt;Node68</title>
<path fill="none" stroke="#191970" d="M559.0964,-185.5354C588.9918,-190.9579 624.2048,-197.345 652.5472,-202.4859"/>
<polygon fill="#191970" stroke="#191970" points="559.6435,-182.0776 549.1794,-183.7366 558.3942,-188.9652 559.6435,-182.0776"/>
</g>
<!-- Node72&#45;&gt;Node71 -->
<g id="edge25" class="edge">
<title>Node72&#45;&gt;Node71</title>
<path fill="none" stroke="#191970" d="M559.1678,-160.6282C586.8882,-154.8063 619.1696,-148.0264 646.3036,-142.3277"/>
<polygon fill="#191970" stroke="#191970" points="558.2465,-157.2453 549.1794,-162.726 559.6853,-164.0958 558.2465,-157.2453"/>
</g>
<!-- Node72&#45;&gt;Node73 -->
<g id="edge26" class="edge">
<title>Node72&#45;&gt;Node73</title>
<path fill="none" stroke="#191970" d="M527.7484,-153.3921C552.8581,-138.1381 589.0377,-117.8559 623,-105 632.8402,-101.2752 643.6316,-98.1426 654.0607,-95.5638"/>
<polygon fill="#191970" stroke="#191970" points="525.7053,-150.5396 519.0229,-158.7614 529.3739,-156.5013 525.7053,-150.5396"/>
</g>
<!-- Node72&#45;&gt;Node75 -->
<g id="edge29" class="edge">
<title>Node72&#45;&gt;Node75</title>
<path fill="none" stroke="#191970" d="M516.1512,-151.1804C539.6405,-126.6482 580.3048,-88.3101 623,-67 630.7143,-63.1496 639.2283,-60.0648 647.7636,-57.5972"/>
<polygon fill="#191970" stroke="#191970" points="513.4529,-148.9406 509.1475,-158.6213 518.5501,-153.7384 513.4529,-148.9406"/>
</g>
<!-- Node74 -->
<g id="node22" class="node">
<title>Node74</title>
<g id="a_node22"><a xlink:href="classLoopManager.html#a00143be12c150c0a89c4f99c1e8d5e70" target="_top" xlink:title="LoopManager::GetWriteBlock">
<polygon fill="#ffffff" stroke="#000000" points="823,-76.5 823,-95.5 981,-95.5 981,-76.5 823,-76.5"/>
<text text-anchor="middle" x="902" y="-83.5" font-family="Helvetica,sans-Serif" font-size="10.00" fill="#000000">LoopManager::GetWriteBlock</text>
</a>
</g>
</g>
<!-- Node73&#45;&gt;Node74 -->
<g id="edge27" class="edge">
<title>Node73&#45;&gt;Node74</title>
<path fill="none" stroke="#191970" d="M796.707,-86C805.4014,-86 814.1667,-86 822.7302,-86"/>
<polygon fill="#191970" stroke="#191970" points="796.5495,-82.5001 786.5495,-86 796.5494,-89.5001 796.5495,-82.5001"/>
</g>
</g>
</svg>
