<?xml version="1.0" encoding="UTF-8" standalone="no"?>
<!DOCTYPE svg PUBLIC "-//W3C//DTD SVG 1.1//EN"
 "http://www.w3.org/Graphics/SVG/1.1/DTD/svg11.dtd">
<!-- Generated by graphviz version 2.40.1 (20161225.0304)
 -->
<!-- Title: FloConfig::ConfigureRoot Pages: 1 -->
<svg width="731pt" height="154pt"
 viewBox="0.00 0.00 731.00 154.00" xmlns="http://www.w3.org/2000/svg" xmlns:xlink="http://www.w3.org/1999/xlink">
<g id="graph0" class="graph" transform="scale(1 1) rotate(0) translate(4 150)">
<title>FloConfig::ConfigureRoot</title>
<polygon fill="#ffffff" stroke="transparent" points="-4,4 -4,-150 727,-150 727,4 -4,4"/>
<!-- Node70 -->
<g id="node1" class="node">
<title>Node70</title>
<polygon fill="#bfbfbf" stroke="#000000" points="0,-44.5 0,-63.5 136,-63.5 136,-44.5 0,-44.5"/>
<text text-anchor="middle" x="68" y="-51.5" font-family="Helvetica,sans-Serif" font-size="10.00" fill="#000000">FloConfig::ConfigureRoot</text>
</g>
<!-- Node71 -->
<g id="node2" class="node">
<title>Node71</title>
<g id="a_node2"><a xlink:href="classFloConfig.html#a96460020d4ac390b2ab318d49ac42c95" target="_top" xlink:title="FloConfig::ConfigureBasics">
<polygon fill="#ffffff" stroke="#000000" points="180.5,-126.5 180.5,-145.5 326.5,-145.5 326.5,-126.5 180.5,-126.5"/>
<text text-anchor="middle" x="253.5" y="-133.5" font-family="Helvetica,sans-Serif" font-size="10.00" fill="#000000">FloConfig::ConfigureBasics</text>
</a>
</g>
</g>
<!-- Node70&#45;&gt;Node71 -->
<g id="edge1" class="edge">
<title>Node70&#45;&gt;Node71</title>
<path fill="none" stroke="#191970" d="M80.7513,-63.5703C99.6899,-77.3421 136.8099,-102.6646 172,-117 178.2377,-119.5411 184.8889,-121.7849 191.5994,-123.7558"/>
<polygon fill="#191970" stroke="#191970" points="190.8625,-127.1828 201.432,-126.4509 192.713,-120.4318 190.8625,-127.1828"/>
</g>
<!-- Node73 -->
<g id="node4" class="node">
<title>Node73</title>
<g id="a_node4"><a xlink:href="classFloConfig.html#ac5e0848d86cfc85a1bc8642de0bf35ed" target="_top" xlink:title="FloConfig::ConfigureGraphics">
<polygon fill="#ffffff" stroke="#000000" points="175,-88.5 175,-107.5 332,-107.5 332,-88.5 175,-88.5"/>
<text text-anchor="middle" x="253.5" y="-95.5" font-family="Helvetica,sans-Serif" font-size="10.00" fill="#000000">FloConfig::ConfigureGraphics</text>
</a>
</g>
</g>
<!-- Node70&#45;&gt;Node73 -->
<g id="edge3" class="edge">
<title>Node70&#45;&gt;Node73</title>
<path fill="none" stroke="#191970" d="M107.4927,-63.5609C126.9149,-68.2457 150.677,-73.9517 172,-79 181.8612,-81.3347 192.3989,-83.8076 202.5125,-86.1701"/>
<polygon fill="#191970" stroke="#191970" points="201.9103,-89.6235 212.444,-88.4866 203.5005,-82.8065 201.9103,-89.6235"/>
</g>
<!-- Node74 -->
<g id="node5" class="node">
<title>Node74</title>
<g id="a_node5"><a xlink:href="classFloConfig.html#a065ae173e7ad5b3d913229b1a581a6bd" target="_top" xlink:title="FloConfig::ConfigureEvent\lBindings">
<polygon fill="#ffffff" stroke="#000000" points="182.5,-39 182.5,-69 324.5,-69 324.5,-39 182.5,-39"/>
<text text-anchor="start" x="190.5" y="-57" font-family="Helvetica,sans-Serif" font-size="10.00" fill="#000000">FloConfig::ConfigureEvent</text>
<text text-anchor="middle" x="253.5" y="-46" font-family="Helvetica,sans-Serif" font-size="10.00" fill="#000000">Bindings</text>
</a>
</g>
</g>
<!-- Node70&#45;&gt;Node74 -->
<g id="edge4" class="edge">
<title>Node70&#45;&gt;Node74</title>
<path fill="none" stroke="#191970" d="M136.02,-54C147.8143,-54 160.1841,-54 172.2876,-54"/>
<polygon fill="#191970" stroke="#191970" points="172.3735,-57.5001 182.3735,-54 172.3735,-50.5001 172.3735,-57.5001"/>
</g>
<!-- Node75 -->
<g id="node6" class="node">
<title>Node75</title>
<g id="a_node6"><a xlink:href="classFloConfig.html#a5cc18494ea2e32020314e08e43c920c5" target="_top" xlink:title="FloConfig::ConfigureInterfaces">
<polygon fill="#ffffff" stroke="#000000" points="172,-.5 172,-19.5 335,-19.5 335,-.5 172,-.5"/>
<text text-anchor="middle" x="253.5" y="-7.5" font-family="Helvetica,sans-Serif" font-size="10.00" fill="#000000">FloConfig::ConfigureInterfaces</text>
</a>
</g>
</g>
<!-- Node70&#45;&gt;Node75 -->
<g id="edge5" class="edge">
<title>Node70&#45;&gt;Node75</title>
<path fill="none" stroke="#191970" d="M82.4615,-44.4652C100.582,-37.3904 132.8625,-29.3289 163.7451,-21.9623"/>
<polygon fill="#191970" stroke="#191970" points="164.7825,-25.3133 173.703,-19.5971 163.1648,-18.5028 164.7825,-25.3133"/>
</g>
<!-- Node72 -->
<g id="node3" class="node">
<title>Node72</title>
<g id="a_node3"><a xlink:href="classAudioBuffers.html#a3178afd68c48f41060d100606623a704" target="_top" xlink:title="AudioBuffers::GetIntAudioIns">
<polygon fill="#ffffff" stroke="#000000" points="380.5,-126.5 380.5,-145.5 537.5,-145.5 537.5,-126.5 380.5,-126.5"/>
<text text-anchor="middle" x="459" y="-133.5" font-family="Helvetica,sans-Serif" font-size="10.00" fill="#000000">AudioBuffers::GetIntAudioIns</text>
</a>
</g>
</g>
<!-- Node71&#45;&gt;Node72 -->
<g id="edge2" class="edge">
<title>Node71&#45;&gt;Node72</title>
<path fill="none" stroke="#191970" d="M326.5302,-136C340.684,-136 355.661,-136 370.2539,-136"/>
<polygon fill="#191970" stroke="#191970" points="370.2806,-139.5001 380.2806,-136 370.2805,-132.5001 370.2806,-139.5001"/>
</g>
<!-- Node75&#45;&gt;Node70 -->
<g id="edge8" class="edge">
<title>Node75&#45;&gt;Node70</title>
<path fill="none" stroke="#191970" d="M239.938,-19.5424C223.758,-25.8748 195.893,-32.3432 172,-38 163.5973,-39.9894 154.8158,-42.0809 146.0704,-44.1178"/>
<polygon fill="#191970" stroke="#191970" points="145.1918,-40.7285 136.234,-46.3861 146.7648,-47.5495 145.1918,-40.7285"/>
</g>
<!-- Node76 -->
<g id="node7" class="node">
<title>Node76</title>
<g id="a_node7"><a xlink:href="classFloConfig.html#a075086c8c0438a9663946af1a89a5cde" target="_top" xlink:title="FloConfig::PrepareLoadConfigFile">
<polygon fill="#ffffff" stroke="#000000" points="371,-.5 371,-19.5 547,-19.5 547,-.5 371,-.5"/>
<text text-anchor="middle" x="459" y="-7.5" font-family="Helvetica,sans-Serif" font-size="10.00" fill="#000000">FloConfig::PrepareLoadConfigFile</text>
</a>
</g>
</g>
<!-- Node75&#45;&gt;Node76 -->
<g id="edge6" class="edge">
<title>Node75&#45;&gt;Node76</title>
<path fill="none" stroke="#191970" d="M335.0142,-10C343.4712,-10 352.1288,-10 360.7443,-10"/>
<polygon fill="#191970" stroke="#191970" points="360.8242,-13.5001 370.8241,-10 360.8241,-6.5001 360.8242,-13.5001"/>
</g>
<!-- Node77 -->
<g id="node8" class="node">
<title>Node77</title>
<g id="a_node8"><a xlink:href="classFloConfig.html#ad00b1211eaa7345ebf870a192a29b23b" target="_top" xlink:title="FloConfig::CopyConfigFile">
<polygon fill="#ffffff" stroke="#000000" points="583,-.5 583,-19.5 723,-19.5 723,-.5 583,-.5"/>
<text text-anchor="middle" x="653" y="-7.5" font-family="Helvetica,sans-Serif" font-size="10.00" fill="#000000">FloConfig::CopyConfigFile</text>
</a>
</g>
</g>
<!-- Node76&#45;&gt;Node77 -->
<g id="edge7" class="edge">
<title>Node76&#45;&gt;Node77</title>
<path fill="none" stroke="#191970" d="M547.2012,-10C555.6693,-10 564.2275,-10 572.615,-10"/>
<polygon fill="#191970" stroke="#191970" points="572.7436,-13.5001 582.7435,-10 572.7435,-6.5001 572.7436,-13.5001"/>
</g>
</g>
</svg>
