<?xml version="1.0" encoding="UTF-8" standalone="no"?>
<!DOCTYPE svg PUBLIC "-//W3C//DTD SVG 1.1//EN"
 "http://www.w3.org/Graphics/SVG/1.1/DTD/svg11.dtd">
<!-- Generated by graphviz version 2.40.1 (20161225.0304)
 -->
<!-- Title: BlockManager::GrowChainOff Pages: 1 -->
<svg width="945pt" height="210pt"
 viewBox="0.00 0.00 945.00 210.04" xmlns="http://www.w3.org/2000/svg" xmlns:xlink="http://www.w3.org/1999/xlink">
<g id="graph0" class="graph" transform="scale(1 1) rotate(0) translate(4 206.038)">
<title>BlockManager::GrowChainOff</title>
<polygon fill="#ffffff" stroke="transparent" points="-4,4 -4,-206.038 941,-206.038 941,4 -4,4"/>
<!-- Node83 -->
<g id="node1" class="node">
<title>Node83</title>
<polygon fill="#bfbfbf" stroke="#000000" points="0,-87.538 0,-106.538 159,-106.538 159,-87.538 0,-87.538"/>
<text text-anchor="middle" x="79.5" y="-94.538" font-family="Helvetica,sans-Serif" font-size="10.00" fill="#000000">BlockManager::GrowChainOff</text>
</g>
<!-- Node84 -->
<g id="node2" class="node">
<title>Node84</title>
<g id="a_node2"><a xlink:href="classRecordProcessor.html#a9984f573bbc265321ad0604f97b23820" target="_top" xlink:title="RecordProcessor::EndNow">
<polygon fill="#ffffff" stroke="#000000" points="408.5,-106.538 408.5,-125.538 551.5,-125.538 551.5,-106.538 408.5,-106.538"/>
<text text-anchor="middle" x="480" y="-113.538" font-family="Helvetica,sans-Serif" font-size="10.00" fill="#000000">RecordProcessor::EndNow</text>
</a>
</g>
</g>
<!-- Node83&#45;&gt;Node84 -->
<g id="edge1" class="edge">
<title>Node83&#45;&gt;Node84</title>
<path fill="none" stroke="#191970" d="M169.0945,-101.2884C241.2507,-104.7116 341.3481,-109.4603 408.2754,-112.6353"/>
<polygon fill="#191970" stroke="#191970" points="169.2594,-97.7924 159.1048,-100.8145 168.9276,-104.7846 169.2594,-97.7924"/>
</g>
<!-- Node88 -->
<g id="node6" class="node">
<title>Node88</title>
<g id="a_node6"><a xlink:href="classRecordProcessor.html#a5bce44b8a038567efcf660cfeeae93f4" target="_top" xlink:title="RecordProcessor::AbortRecording">
<polygon fill="#ffffff" stroke="#000000" points="195,-68.538 195,-87.538 372,-87.538 372,-68.538 195,-68.538"/>
<text text-anchor="middle" x="283.5" y="-75.538" font-family="Helvetica,sans-Serif" font-size="10.00" fill="#000000">RecordProcessor::AbortRecording</text>
</a>
</g>
</g>
<!-- Node83&#45;&gt;Node88 -->
<g id="edge5" class="edge">
<title>Node83&#45;&gt;Node88</title>
<path fill="none" stroke="#191970" d="M169.4127,-88.6638C177.8034,-87.8823 186.3049,-87.0905 194.6856,-86.3099"/>
<polygon fill="#191970" stroke="#191970" points="168.8805,-85.1981 159.2482,-89.6105 169.5297,-92.168 168.8805,-85.1981"/>
</g>
<!-- Node85 -->
<g id="node3" class="node">
<title>Node85</title>
<g id="a_node3"><a xlink:href="classRecordProcessor.html#a6168d8dc850602a348dc74ab1224263a" target="_top" xlink:title="RecordProcessor::PulseSync">
<polygon fill="#ffffff" stroke="#000000" points="591.5,-182.538 591.5,-201.538 743.5,-201.538 743.5,-182.538 591.5,-182.538"/>
<text text-anchor="middle" x="667.5" y="-189.538" font-family="Helvetica,sans-Serif" font-size="10.00" fill="#000000">RecordProcessor::PulseSync</text>
</a>
</g>
</g>
<!-- Node84&#45;&gt;Node85 -->
<g id="edge2" class="edge">
<title>Node84&#45;&gt;Node85</title>
<path fill="none" stroke="#191970" d="M503.8725,-130.8833C525.2335,-143.6125 557.7536,-161.6495 588,-173.038 597.8276,-176.7384 608.6164,-179.887 618.9896,-182.4938"/>
<polygon fill="#191970" stroke="#191970" points="505.5345,-127.7982 495.166,-125.6196 501.9129,-133.7885 505.5345,-127.7982"/>
</g>
<!-- Node86 -->
<g id="node4" class="node">
<title>Node86</title>
<g id="a_node4"><a xlink:href="classRecordProcessor.html#ab035edfb707f8f1066b3597df7ddda7d" target="_top" xlink:title="RecordProcessor::End">
<polygon fill="#ffffff" stroke="#000000" points="607,-144.538 607,-163.538 728,-163.538 728,-144.538 607,-144.538"/>
<text text-anchor="middle" x="667.5" y="-151.538" font-family="Helvetica,sans-Serif" font-size="10.00" fill="#000000">RecordProcessor::End</text>
</a>
</g>
</g>
<!-- Node84&#45;&gt;Node86 -->
<g id="edge3" class="edge">
<title>Node84&#45;&gt;Node86</title>
<path fill="none" stroke="#191970" d="M537.2838,-127.6475C563.9506,-133.052 595.2805,-139.4015 620.5261,-144.518"/>
<polygon fill="#191970" stroke="#191970" points="537.8101,-124.1831 527.3142,-125.627 536.4197,-131.0436 537.8101,-124.1831"/>
</g>
<!-- Node87 -->
<g id="node5" class="node">
<title>Node87</title>
<g id="a_node5"><a xlink:href="classRecordProcessor.html#ad36d69ec9d41b424eb2e6c5fa2e0cf3a" target="_top" xlink:title="RecordProcessor::process">
<polygon fill="#ffffff" stroke="#000000" points="597.5,-106.538 597.5,-125.538 737.5,-125.538 737.5,-106.538 597.5,-106.538"/>
<text text-anchor="middle" x="667.5" y="-113.538" font-family="Helvetica,sans-Serif" font-size="10.00" fill="#000000">RecordProcessor::process</text>
</a>
</g>
</g>
<!-- Node84&#45;&gt;Node87 -->
<g id="edge4" class="edge">
<title>Node84&#45;&gt;Node87</title>
<path fill="none" stroke="#191970" d="M561.9808,-116.038C573.7889,-116.038 585.8502,-116.038 597.3991,-116.038"/>
<polygon fill="#191970" stroke="#191970" points="561.6883,-112.5381 551.6883,-116.038 561.6883,-119.5381 561.6883,-112.5381"/>
</g>
<!-- Node88&#45;&gt;Node84 -->
<g id="edge12" class="edge">
<title>Node88&#45;&gt;Node84</title>
<path fill="none" stroke="#191970" d="M342.9123,-89.5274C370.9495,-94.9494 404.0157,-101.3438 430.6481,-106.4941"/>
<polygon fill="#191970" stroke="#191970" points="343.3143,-86.0404 332.8316,-87.578 341.9852,-92.913 343.3143,-86.0404"/>
</g>
<!-- Node89 -->
<g id="node7" class="node">
<title>Node89</title>
<g id="a_node7"><a xlink:href="classLoopManager.html#a332a9868980750f28fbf0e05b2336174" target="_top" xlink:title="LoopManager::DeleteLoop">
<polygon fill="#ffffff" stroke="#000000" points="408.5,-68.538 408.5,-87.538 551.5,-87.538 551.5,-68.538 408.5,-68.538"/>
<text text-anchor="middle" x="480" y="-75.538" font-family="Helvetica,sans-Serif" font-size="10.00" fill="#000000">LoopManager::DeleteLoop</text>
</a>
</g>
</g>
<!-- Node88&#45;&gt;Node89 -->
<g id="edge6" class="edge">
<title>Node88&#45;&gt;Node89</title>
<path fill="none" stroke="#191970" d="M382.5058,-78.038C391.241,-78.038 399.9683,-78.038 408.4113,-78.038"/>
<polygon fill="#191970" stroke="#191970" points="382.2644,-74.5381 372.2644,-78.038 382.2643,-81.5381 382.2644,-74.5381"/>
</g>
<!-- Node93 -->
<g id="node11" class="node">
<title>Node93</title>
<g id="a_node11"><a xlink:href="classRecordProcessor.html#a63fbf98c72bafa6c2e24a3962bdae70c" target="_top" xlink:title="RecordProcessor::~Record\lProcessor">
<polygon fill="#ffffff" stroke="#000000" points="408,-19.038 408,-49.038 552,-49.038 552,-19.038 408,-19.038"/>
<text text-anchor="start" x="416" y="-37.038" font-family="Helvetica,sans-Serif" font-size="10.00" fill="#000000">RecordProcessor::~Record</text>
<text text-anchor="middle" x="480" y="-26.038" font-family="Helvetica,sans-Serif" font-size="10.00" fill="#000000">Processor</text>
</a>
</g>
</g>
<!-- Node88&#45;&gt;Node93 -->
<g id="edge11" class="edge">
<title>Node88&#45;&gt;Node93</title>
<path fill="none" stroke="#191970" d="M335.9406,-66.2956C359.5131,-61.0173 387.6183,-54.724 412.7195,-49.1034"/>
<polygon fill="#191970" stroke="#191970" points="335.1311,-62.8901 326.1376,-68.4907 336.6607,-69.7209 335.1311,-62.8901"/>
</g>
<!-- Node90 -->
<g id="node8" class="node">
<title>Node90</title>
<g id="a_node8"><a xlink:href="classLoopManager.html#a6048a702c9cec3676a1c56792b16ec44" target="_top" xlink:title="LoopManager::ReadComplete">
<polygon fill="#ffffff" stroke="#000000" points="588,-68.538 588,-87.538 747,-87.538 747,-68.538 588,-68.538"/>
<text text-anchor="middle" x="667.5" y="-75.538" font-family="Helvetica,sans-Serif" font-size="10.00" fill="#000000">LoopManager::ReadComplete</text>
</a>
</g>
</g>
<!-- Node89&#45;&gt;Node90 -->
<g id="edge7" class="edge">
<title>Node89&#45;&gt;Node90</title>
<path fill="none" stroke="#191970" d="M561.7316,-78.038C570.3562,-78.038 579.1187,-78.038 587.7208,-78.038"/>
<polygon fill="#191970" stroke="#191970" points="561.6883,-74.5381 551.6883,-78.038 561.6883,-81.5381 561.6883,-74.5381"/>
</g>
<!-- Node91 -->
<g id="node9" class="node">
<title>Node91</title>
<g id="a_node9"><a xlink:href="classLoopManager.html#a8efb4c8acabceb10faa8660c14c89d71" target="_top" xlink:title="LoopManager::DeletePulse">
<polygon fill="#ffffff" stroke="#000000" points="594.5,-30.538 594.5,-49.538 740.5,-49.538 740.5,-30.538 594.5,-30.538"/>
<text text-anchor="middle" x="667.5" y="-37.538" font-family="Helvetica,sans-Serif" font-size="10.00" fill="#000000">LoopManager::DeletePulse</text>
</a>
</g>
</g>
<!-- Node89&#45;&gt;Node91 -->
<g id="edge8" class="edge">
<title>Node89&#45;&gt;Node91</title>
<path fill="none" stroke="#191970" d="M537.2838,-66.4285C563.9506,-61.024 595.2805,-54.6745 620.5261,-49.5581"/>
<polygon fill="#191970" stroke="#191970" points="536.4197,-63.0324 527.3142,-68.449 537.8101,-69.8929 536.4197,-63.0324"/>
</g>
<!-- Node92 -->
<g id="node10" class="node">
<title>Node92</title>
<g id="a_node10"><a xlink:href="classLoopManager.html#a4aada2d07b7ce0a67a8119ece4805966" target="_top" xlink:title="LoopManager::ReceiveEvent">
<polygon fill="#ffffff" stroke="#000000" points="783,-11.538 783,-30.538 937,-30.538 937,-11.538 783,-11.538"/>
<text text-anchor="middle" x="860" y="-18.538" font-family="Helvetica,sans-Serif" font-size="10.00" fill="#000000">LoopManager::ReceiveEvent</text>
</a>
</g>
</g>
<!-- Node89&#45;&gt;Node92 -->
<g id="edge10" class="edge">
<title>Node89&#45;&gt;Node92</title>
<path fill="none" stroke="#191970" d="M537.8871,-64.9421C542.8032,-62.946 547.5794,-60.658 552,-58.038 571.7376,-46.3399 566.8633,-29.9632 588,-21.038 664.3475,11.2005 763.8485,-.763 818.876,-11.4747"/>
<polygon fill="#191970" stroke="#191970" points="536.5136,-61.7174 528.3176,-68.4313 538.9115,-68.2939 536.5136,-61.7174"/>
</g>
<!-- Node91&#45;&gt;Node92 -->
<g id="edge9" class="edge">
<title>Node91&#45;&gt;Node92</title>
<path fill="none" stroke="#191970" d="M750.6986,-31.8262C761.3711,-30.7728 772.2618,-29.6979 782.8326,-28.6545"/>
<polygon fill="#191970" stroke="#191970" points="750.1583,-28.3624 740.5505,-32.8278 750.8459,-35.3286 750.1583,-28.3624"/>
</g>
</g>
</svg>
