<?xml version="1.0" encoding="UTF-8" standalone="no"?>
<!DOCTYPE svg PUBLIC "-//W3C//DTD SVG 1.1//EN"
 "http://www.w3.org/Graphics/SVG/1.1/DTD/svg11.dtd">
<!-- Generated by graphviz version 2.40.1 (20161225.0304)
 -->
<!-- Title: Saveable::GetSaveStatus Pages: 1 -->
<svg width="1457pt" height="243pt"
 viewBox="0.00 0.00 1457.00 243.00" xmlns="http://www.w3.org/2000/svg" xmlns:xlink="http://www.w3.org/1999/xlink">
<g id="graph0" class="graph" transform="scale(1 1) rotate(0) translate(4 239)">
<title>Saveable::GetSaveStatus</title>
<polygon fill="#ffffff" stroke="transparent" points="-4,4 -4,-239 1453,-239 1453,4 -4,4"/>
<!-- Node27 -->
<g id="node1" class="node">
<title>Node27</title>
<polygon fill="#bfbfbf" stroke="#000000" points="0,-76.5 0,-95.5 140,-95.5 140,-76.5 0,-76.5"/>
<text text-anchor="middle" x="70" y="-83.5" font-family="Helvetica,sans-Serif" font-size="10.00" fill="#000000">Saveable::GetSaveStatus</text>
</g>
<!-- Node28 -->
<g id="node2" class="node">
<title>Node28</title>
<g id="a_node2"><a xlink:href="classLoopManager.html#afe9ad41d77128fff90501c3a15c76b34" target="_top" xlink:title="LoopManager::AddLoopToSave\lQueue">
<polygon fill="#ffffff" stroke="#000000" points="176,-153 176,-183 340,-183 340,-153 176,-153"/>
<text text-anchor="start" x="184" y="-171" font-family="Helvetica,sans-Serif" font-size="10.00" fill="#000000">LoopManager::AddLoopToSave</text>
<text text-anchor="middle" x="258" y="-160" font-family="Helvetica,sans-Serif" font-size="10.00" fill="#000000">Queue</text>
</a>
</g>
</g>
<!-- Node27&#45;&gt;Node28 -->
<g id="edge1" class="edge">
<title>Node27&#45;&gt;Node28</title>
<path fill="none" stroke="#191970" d="M94.2953,-100.8531C115.3548,-113.2879 146.9323,-130.8932 176,-143 184.6556,-146.6051 194.0171,-149.9498 203.2128,-152.9441"/>
<polygon fill="#191970" stroke="#191970" points="96.0591,-97.8299 85.6792,-95.707 92.4697,-103.8396 96.0591,-97.8299"/>
</g>
<!-- Node35 -->
<g id="node9" class="node">
<title>Node35</title>
<g id="a_node9"><a xlink:href="classLoopManager.html#af213761ccf6208b94354a3658de91cfb" target="_top" xlink:title="LoopManager::CheckSaveMap">
<polygon fill="#ffffff" stroke="#000000" points="177,-114.5 177,-133.5 339,-133.5 339,-114.5 177,-114.5"/>
<text text-anchor="middle" x="258" y="-121.5" font-family="Helvetica,sans-Serif" font-size="10.00" fill="#000000">LoopManager::CheckSaveMap</text>
</a>
</g>
</g>
<!-- Node27&#45;&gt;Node35 -->
<g id="edge11" class="edge">
<title>Node27&#45;&gt;Node35</title>
<path fill="none" stroke="#191970" d="M127.4365,-97.6095C154.1744,-103.014 185.5879,-109.3635 210.9008,-114.4799"/>
<polygon fill="#191970" stroke="#191970" points="127.9356,-94.1397 117.4403,-95.589 126.5487,-101.0009 127.9356,-94.1397"/>
</g>
<!-- Node37 -->
<g id="node11" class="node">
<title>Node37</title>
<g id="a_node11"><a xlink:href="classLoopManager.html#a306ffe72c9623e33cad280ec3609c359" target="_top" xlink:title="LoopManager::SetupSaveLoop">
<polygon fill="#ffffff" stroke="#000000" points="176.5,-76.5 176.5,-95.5 339.5,-95.5 339.5,-76.5 176.5,-76.5"/>
<text text-anchor="middle" x="258" y="-83.5" font-family="Helvetica,sans-Serif" font-size="10.00" fill="#000000">LoopManager::SetupSaveLoop</text>
</a>
</g>
</g>
<!-- Node27&#45;&gt;Node37 -->
<g id="edge13" class="edge">
<title>Node27&#45;&gt;Node37</title>
<path fill="none" stroke="#191970" d="M150.068,-86C158.7192,-86 167.5314,-86 176.2027,-86"/>
<polygon fill="#191970" stroke="#191970" points="150.0043,-82.5001 140.0043,-86 150.0042,-89.5001 150.0043,-82.5001"/>
</g>
<!-- Node38 -->
<g id="node12" class="node">
<title>Node38</title>
<g id="a_node12"><a xlink:href="classTriggerMap.html#af11490b9355860a768602bca28eedd9c" target="_top" xlink:title="TriggerMap::ScanForHash">
<polygon fill="#ffffff" stroke="#000000" points="188.5,-38.5 188.5,-57.5 327.5,-57.5 327.5,-38.5 188.5,-38.5"/>
<text text-anchor="middle" x="258" y="-45.5" font-family="Helvetica,sans-Serif" font-size="10.00" fill="#000000">TriggerMap::ScanForHash</text>
</a>
</g>
</g>
<!-- Node27&#45;&gt;Node38 -->
<g id="edge15" class="edge">
<title>Node27&#45;&gt;Node38</title>
<path fill="none" stroke="#191970" d="M127.4365,-74.3905C154.1744,-68.986 185.5879,-62.6365 210.9008,-57.5201"/>
<polygon fill="#191970" stroke="#191970" points="126.5487,-70.9991 117.4403,-76.411 127.9356,-77.8603 126.5487,-70.9991"/>
</g>
<!-- Node41 -->
<g id="node15" class="node">
<title>Node41</title>
<g id="a_node15"><a xlink:href="classOSCClient.html#acbb974bf11667aa6fb48c111ae14a4fe" target="_top" xlink:title="OSCClient::SendPlayingLoops">
<polygon fill="#ffffff" stroke="#000000" points="178,-.5 178,-19.5 338,-19.5 338,-.5 178,-.5"/>
<text text-anchor="middle" x="258" y="-7.5" font-family="Helvetica,sans-Serif" font-size="10.00" fill="#000000">OSCClient::SendPlayingLoops</text>
</a>
</g>
</g>
<!-- Node27&#45;&gt;Node41 -->
<g id="edge18" class="edge">
<title>Node27&#45;&gt;Node41</title>
<path fill="none" stroke="#191970" d="M93.3724,-71.0802C114.3002,-58.3026 146.1956,-40.2366 176,-29 185.8451,-25.2883 196.6387,-22.1615 207.0684,-19.5842"/>
<polygon fill="#191970" stroke="#191970" points="91.5002,-68.1227 84.8445,-76.366 95.1881,-74.0725 91.5002,-68.1227"/>
</g>
<!-- Node29 -->
<g id="node3" class="node">
<title>Node29</title>
<g id="a_node3"><a xlink:href="classLoop.html#a53ccedecccce6659493d58c3ff6750b9" target="_top" xlink:title="Loop::Save">
<polygon fill="#ffffff" stroke="#000000" points="422,-158.5 422,-177.5 492,-177.5 492,-158.5 422,-158.5"/>
<text text-anchor="middle" x="457" y="-165.5" font-family="Helvetica,sans-Serif" font-size="10.00" fill="#000000">Loop::Save</text>
</a>
</g>
</g>
<!-- Node28&#45;&gt;Node29 -->
<g id="edge2" class="edge">
<title>Node28&#45;&gt;Node29</title>
<path fill="none" stroke="#191970" d="M350.2053,-168C375.7317,-168 401.9017,-168 421.9469,-168"/>
<polygon fill="#191970" stroke="#191970" points="350.0899,-164.5001 340.0898,-168 350.0898,-171.5001 350.0899,-164.5001"/>
</g>
<!-- Node30 -->
<g id="node4" class="node">
<title>Node30</title>
<g id="a_node4"><a xlink:href="classLoopManager.html#a87ecdd3c80b3c16018a50a397f906b03" target="_top" xlink:title="LoopManager::SaveLoop">
<polygon fill="#ffffff" stroke="#000000" points="584.5,-158.5 584.5,-177.5 719.5,-177.5 719.5,-158.5 584.5,-158.5"/>
<text text-anchor="middle" x="652" y="-165.5" font-family="Helvetica,sans-Serif" font-size="10.00" fill="#000000">LoopManager::SaveLoop</text>
</a>
</g>
</g>
<!-- Node29&#45;&gt;Node30 -->
<g id="edge3" class="edge">
<title>Node29&#45;&gt;Node30</title>
<path fill="none" stroke="#191970" d="M502.3341,-168C526.6585,-168 557.1226,-168 584.2058,-168"/>
<polygon fill="#191970" stroke="#191970" points="502.3131,-164.5001 492.313,-168 502.313,-171.5001 502.3131,-164.5001"/>
</g>
<!-- Node31 -->
<g id="node5" class="node">
<title>Node31</title>
<g id="a_node5"><a xlink:href="classTriggerMap.html#aaa7bec4f62540981d1e5703fe8ed575e" target="_top" xlink:title="TriggerMap::Save">
<polygon fill="#ffffff" stroke="#000000" points="766,-177.5 766,-196.5 866,-196.5 866,-177.5 766,-177.5"/>
<text text-anchor="middle" x="816" y="-184.5" font-family="Helvetica,sans-Serif" font-size="10.00" fill="#000000">TriggerMap::Save</text>
</a>
</g>
</g>
<!-- Node30&#45;&gt;Node31 -->
<g id="edge4" class="edge">
<title>Node30&#45;&gt;Node31</title>
<path fill="none" stroke="#191970" d="M729.8617,-177.0206C742.079,-178.436 754.4191,-179.8656 765.7935,-181.1834"/>
<polygon fill="#191970" stroke="#191970" points="729.9883,-173.5119 719.6519,-175.8377 729.1827,-180.4654 729.9883,-173.5119"/>
</g>
<!-- Node34 -->
<g id="node8" class="node">
<title>Node34</title>
<g id="a_node8"><a xlink:href="classLoopManager.html#a4aada2d07b7ce0a67a8119ece4805966" target="_top" xlink:title="LoopManager::ReceiveEvent">
<polygon fill="#ffffff" stroke="#000000" points="1295,-177.5 1295,-196.5 1449,-196.5 1449,-177.5 1295,-177.5"/>
<text text-anchor="middle" x="1372" y="-184.5" font-family="Helvetica,sans-Serif" font-size="10.00" fill="#000000">LoopManager::ReceiveEvent</text>
</a>
</g>
</g>
<!-- Node30&#45;&gt;Node34 -->
<g id="edge10" class="edge">
<title>Node30&#45;&gt;Node34</title>
<path fill="none" stroke="#191970" d="M729.7345,-166.5691C812.7677,-165.3755 948.216,-164.3896 1065,-168 1143.3279,-170.4215 1232.7363,-176.3103 1294.7826,-180.8955"/>
<polygon fill="#191970" stroke="#191970" points="729.5705,-163.0711 719.6236,-166.7193 729.6744,-170.0703 729.5705,-163.0711"/>
</g>
<!-- Node32 -->
<g id="node6" class="node">
<title>Node32</title>
<g id="a_node6"><a xlink:href="classLoopManager.html#ac2adaa8b989e1284abf17fc07eb0baf2" target="_top" xlink:title="LoopManager::SaveNewScene">
<polygon fill="#ffffff" stroke="#000000" points="902,-177.5 902,-196.5 1065,-196.5 1065,-177.5 902,-177.5"/>
<text text-anchor="middle" x="983.5" y="-184.5" font-family="Helvetica,sans-Serif" font-size="10.00" fill="#000000">LoopManager::SaveNewScene</text>
</a>
</g>
</g>
<!-- Node31&#45;&gt;Node32 -->
<g id="edge5" class="edge">
<title>Node31&#45;&gt;Node32</title>
<path fill="none" stroke="#191970" d="M876.5263,-187C884.7945,-187 893.3907,-187 901.9561,-187"/>
<polygon fill="#191970" stroke="#191970" points="876.2556,-183.5001 866.2555,-187 876.2555,-190.5001 876.2556,-183.5001"/>
</g>
<!-- Node33 -->
<g id="node7" class="node">
<title>Node33</title>
<g id="a_node7"><a xlink:href="classLoopManager.html#abd2cda6ecc976fd447167d5de7cc5912" target="_top" xlink:title="LoopManager::SaveCurScene">
<polygon fill="#ffffff" stroke="#000000" points="1101,-215.5 1101,-234.5 1259,-234.5 1259,-215.5 1101,-215.5"/>
<text text-anchor="middle" x="1180" y="-222.5" font-family="Helvetica,sans-Serif" font-size="10.00" fill="#000000">LoopManager::SaveCurScene</text>
</a>
</g>
</g>
<!-- Node31&#45;&gt;Node33 -->
<g id="edge9" class="edge">
<title>Node31&#45;&gt;Node33</title>
<path fill="none" stroke="#191970" d="M863.2431,-198.7649C875.7738,-201.5203 889.3411,-204.1794 902,-206 968.6782,-215.5895 1045.0715,-220.3683 1100.8824,-222.7327"/>
<polygon fill="#191970" stroke="#191970" points="863.979,-195.343 853.453,-196.5487 862.4335,-202.1703 863.979,-195.343"/>
</g>
<!-- Node32&#45;&gt;Node33 -->
<g id="edge6" class="edge">
<title>Node32&#45;&gt;Node33</title>
<path fill="none" stroke="#191970" d="M1042.9123,-198.4894C1070.9495,-203.9114 1104.0157,-210.3058 1130.6481,-215.4561"/>
<polygon fill="#191970" stroke="#191970" points="1043.3143,-195.0024 1032.8316,-196.54 1041.9852,-201.875 1043.3143,-195.0024"/>
</g>
<!-- Node32&#45;&gt;Node34 -->
<g id="edge8" class="edge">
<title>Node32&#45;&gt;Node34</title>
<path fill="none" stroke="#191970" d="M1075.5213,-187C1142.3391,-187 1231.7252,-187 1294.824,-187"/>
<polygon fill="#191970" stroke="#191970" points="1075.4162,-183.5001 1065.4161,-187 1075.4161,-190.5001 1075.4162,-183.5001"/>
</g>
<!-- Node33&#45;&gt;Node34 -->
<g id="edge7" class="edge">
<title>Node33&#45;&gt;Node34</title>
<path fill="none" stroke="#191970" d="M1238.298,-213.4619C1265.6826,-208.042 1297.9334,-201.659 1323.8987,-196.5201"/>
<polygon fill="#191970" stroke="#191970" points="1237.5799,-210.036 1228.4497,-215.411 1238.939,-216.9028 1237.5799,-210.036"/>
</g>
<!-- Node36 -->
<g id="node10" class="node">
<title>Node36</title>
<g id="a_node10"><a xlink:href="classLoopManager.html#a00143be12c150c0a89c4f99c1e8d5e70" target="_top" xlink:title="LoopManager::GetWriteBlock">
<polygon fill="#ffffff" stroke="#000000" points="378,-95.5 378,-114.5 536,-114.5 536,-95.5 378,-95.5"/>
<text text-anchor="middle" x="457" y="-102.5" font-family="Helvetica,sans-Serif" font-size="10.00" fill="#000000">LoopManager::GetWriteBlock</text>
</a>
</g>
</g>
<!-- Node35&#45;&gt;Node36 -->
<g id="edge12" class="edge">
<title>Node35&#45;&gt;Node36</title>
<path fill="none" stroke="#191970" d="M349.1876,-115.2936C358.7955,-114.3763 368.5075,-113.449 377.9619,-112.5463"/>
<polygon fill="#191970" stroke="#191970" points="348.85,-111.8099 339.2279,-116.2446 349.5154,-118.7782 348.85,-111.8099"/>
</g>
<!-- Node37&#45;&gt;Node36 -->
<g id="edge14" class="edge">
<title>Node37&#45;&gt;Node36</title>
<path fill="none" stroke="#191970" d="M349.6772,-94.7531C359.091,-95.6519 368.5989,-96.5597 377.8608,-97.444"/>
<polygon fill="#191970" stroke="#191970" points="349.8025,-91.2492 339.5151,-93.7828 349.1371,-98.2175 349.8025,-91.2492"/>
</g>
<!-- Node39 -->
<g id="node13" class="node">
<title>Node39</title>
<g id="a_node13"><a xlink:href="classLoopManager.html#ac70cdd5344c524d6aedfe5c67e856409" target="_top" xlink:title="LoopManager::SetupLoadLoop">
<polygon fill="#ffffff" stroke="#000000" points="376,-38.5 376,-57.5 538,-57.5 538,-38.5 376,-38.5"/>
<text text-anchor="middle" x="457" y="-45.5" font-family="Helvetica,sans-Serif" font-size="10.00" fill="#000000">LoopManager::SetupLoadLoop</text>
</a>
</g>
</g>
<!-- Node38&#45;&gt;Node39 -->
<g id="edge16" class="edge">
<title>Node38&#45;&gt;Node39</title>
<path fill="none" stroke="#191970" d="M337.9611,-48C350.4362,-48 363.3378,-48 375.8393,-48"/>
<polygon fill="#191970" stroke="#191970" points="337.6006,-44.5001 327.6005,-48 337.6005,-51.5001 337.6006,-44.5001"/>
</g>
<!-- Node40 -->
<g id="node14" class="node">
<title>Node40</title>
<g id="a_node14"><a xlink:href="classLoopManager.html#a564ecf9fdbe0fa8709ebc046afc148d5" target="_top" xlink:title="LoopManager::GetReadBlock">
<polygon fill="#ffffff" stroke="#000000" points="574,-38.5 574,-57.5 730,-57.5 730,-38.5 574,-38.5"/>
<text text-anchor="middle" x="652" y="-45.5" font-family="Helvetica,sans-Serif" font-size="10.00" fill="#000000">LoopManager::GetReadBlock</text>
</a>
</g>
</g>
<!-- Node39&#45;&gt;Node40 -->
<g id="edge17" class="edge">
<title>Node39&#45;&gt;Node40</title>
<path fill="none" stroke="#191970" d="M548.0433,-48C556.6358,-48 565.2954,-48 573.7537,-48"/>
<polygon fill="#191970" stroke="#191970" points="548.0035,-44.5001 538.0035,-48 548.0035,-51.5001 548.0035,-44.5001"/>
</g>
<!-- Node42 -->
<g id="node16" class="node">
<title>Node42</title>
<g id="a_node16"><a xlink:href="classOSCClient.html#a8b38ea5b76702f9e763daeb694091116" target="_top" xlink:title="OSCClient::ReceiveEvent">
<polygon fill="#ffffff" stroke="#000000" points="388.5,-.5 388.5,-19.5 525.5,-19.5 525.5,-.5 388.5,-.5"/>
<text text-anchor="middle" x="457" y="-7.5" font-family="Helvetica,sans-Serif" font-size="10.00" fill="#000000">OSCClient::ReceiveEvent</text>
</a>
</g>
</g>
<!-- Node41&#45;&gt;Node42 -->
<g id="edge19" class="edge">
<title>Node41&#45;&gt;Node42</title>
<path fill="none" stroke="#191970" d="M348.2928,-10C361.7261,-10 375.3852,-10 388.2793,-10"/>
<polygon fill="#191970" stroke="#191970" points="348.0808,-6.5001 338.0807,-10 348.0807,-13.5001 348.0808,-6.5001"/>
</g>
</g>
</svg>
