<?xml version="1.0" encoding="UTF-8" standalone="no"?>
<!DOCTYPE svg PUBLIC "-//W3C//DTD SVG 1.1//EN"
 "http://www.w3.org/Graphics/SVG/1.1/DTD/svg11.dtd">
<!-- Generated by graphviz version 2.40.1 (20161225.0304)
 -->
<!-- Title: LoopManager::Deactivate Pages: 1 -->
<svg width="513pt" height="47pt"
 viewBox="0.00 0.00 513.00 47.00" xmlns="http://www.w3.org/2000/svg" xmlns:xlink="http://www.w3.org/1999/xlink">
<g id="graph0" class="graph" transform="scale(1 1) rotate(0) translate(4 43)">
<title>LoopManager::Deactivate</title>
<polygon fill="#ffffff" stroke="transparent" points="-4,4 -4,-43 509,-43 509,4 -4,4"/>
<!-- Node245 -->
<g id="node1" class="node">
<title>Node245</title>
<polygon fill="#bfbfbf" stroke="#000000" points="0,-.5 0,-19.5 141,-19.5 141,-.5 0,-.5"/>
<text text-anchor="middle" x="70.5" y="-7.5" font-family="Helvetica,sans-Serif" font-size="10.00" fill="#000000">LoopManager::Deactivate</text>
</g>
<!-- Node246 -->
<g id="node2" class="node">
<title>Node246</title>
<g id="a_node2"><a xlink:href="classFweelin.html#a4654015e2bc7cc94f3bfc421899a60d3" target="_top" xlink:title="Fweelin::TriggerSnapshot">
<polygon fill="#ffffff" stroke="#000000" points="177,-19.5 177,-38.5 315,-38.5 315,-19.5 177,-19.5"/>
<text text-anchor="middle" x="246" y="-26.5" font-family="Helvetica,sans-Serif" font-size="10.00" fill="#000000">Fweelin::TriggerSnapshot</text>
</a>
</g>
</g>
<!-- Node245&#45;&gt;Node246 -->
<g id="edge1" class="edge">
<title>Node245&#45;&gt;Node246</title>
<path fill="none" stroke="#191970" d="M151.1714,-18.7337C159.7832,-19.666 168.4866,-20.6082 176.9467,-21.5241"/>
<polygon fill="#191970" stroke="#191970" points="151.4426,-15.2427 141.124,-17.6459 150.6891,-22.202 151.4426,-15.2427"/>
</g>
<!-- Node247 -->
<g id="node3" class="node">
<title>Node247</title>
<g id="a_node3"><a xlink:href="classLoopManager.html#a4aada2d07b7ce0a67a8119ece4805966" target="_top" xlink:title="LoopManager::ReceiveEvent">
<polygon fill="#ffffff" stroke="#000000" points="351,-.5 351,-19.5 505,-19.5 505,-.5 351,-.5"/>
<text text-anchor="middle" x="428" y="-7.5" font-family="Helvetica,sans-Serif" font-size="10.00" fill="#000000">LoopManager::ReceiveEvent</text>
</a>
</g>
</g>
<!-- Node245&#45;&gt;Node247 -->
<g id="edge3" class="edge">
<title>Node245&#45;&gt;Node247</title>
<path fill="none" stroke="#191970" d="M151.2745,-10C210.9925,-10 291.8225,-10 350.6996,-10"/>
<polygon fill="#191970" stroke="#191970" points="151.1305,-6.5001 141.1305,-10 151.1305,-13.5001 151.1305,-6.5001"/>
</g>
<!-- Node246&#45;&gt;Node247 -->
<g id="edge2" class="edge">
<title>Node246&#45;&gt;Node247</title>
<path fill="none" stroke="#191970" d="M325.2897,-20.7225C333.7435,-19.84 342.3344,-18.9431 350.7641,-18.0631"/>
<polygon fill="#191970" stroke="#191970" points="324.6484,-17.2703 315.0659,-21.7898 325.3753,-24.2325 324.6484,-17.2703"/>
</g>
</g>
</svg>
