<?xml version="1.0" encoding="UTF-8" standalone="no"?>
<!DOCTYPE svg PUBLIC "-//W3C//DTD SVG 1.1//EN"
 "http://www.w3.org/Graphics/SVG/1.1/DTD/svg11.dtd">
<!-- Generated by graphviz version 2.40.1 (20161225.0304)
 -->
<!-- Title: ParamSetParam Pages: 1 -->
<svg width="122pt" height="182pt"
 viewBox="0.00 0.00 121.50 182.00" xmlns="http://www.w3.org/2000/svg" xmlns:xlink="http://www.w3.org/1999/xlink">
<g id="graph0" class="graph" transform="scale(1 1) rotate(0) translate(4 178)">
<title>ParamSetParam</title>
<polygon fill="#ffffff" stroke="transparent" points="-4,4 -4,-178 117.5,-178 117.5,4 -4,4"/>
<!-- Node1 -->
<g id="node1" class="node">
<title>Node1</title>
<polygon fill="#bfbfbf" stroke="#000000" points="0,-.5 0,-68.5 113,-68.5 113,-.5 0,-.5"/>
<text text-anchor="middle" x="56.5" y="-56.5" font-family="Helvetica,sans-Serif" font-size="10.00" fill="#000000">ParamSetParam</text>
<polyline fill="none" stroke="#000000" points="0,-49.5 113,-49.5 "/>
<text text-anchor="middle" x="56.5" y="-37.5" font-family="Helvetica,sans-Serif" font-size="10.00" fill="#000000"> </text>
<polyline fill="none" stroke="#000000" points="0,-30.5 113,-30.5 "/>
<text text-anchor="start" x="8" y="-18.5" font-family="Helvetica,sans-Serif" font-size="10.00" fill="#000000">+ ParamSetParam()</text>
<text text-anchor="start" x="8" y="-7.5" font-family="Helvetica,sans-Serif" font-size="10.00" fill="#000000">+ SetName()</text>
</g>
<!-- Node2 -->
<g id="node2" class="node">
<title>Node2</title>
<polygon fill="#ffffff" stroke="#bfbfbf" points="6.5,-116.5 6.5,-173.5 44.5,-173.5 44.5,-116.5 6.5,-116.5"/>
<text text-anchor="middle" x="25.5" y="-161.5" font-family="Helvetica,sans-Serif" font-size="10.00" fill="#000000">float</text>
<polyline fill="none" stroke="#bfbfbf" points="6.5,-154.5 44.5,-154.5 "/>
<text text-anchor="middle" x="25.5" y="-142.5" font-family="Helvetica,sans-Serif" font-size="10.00" fill="#000000"> </text>
<polyline fill="none" stroke="#bfbfbf" points="6.5,-135.5 44.5,-135.5 "/>
<text text-anchor="middle" x="25.5" y="-123.5" font-family="Helvetica,sans-Serif" font-size="10.00" fill="#000000"> </text>
</g>
<!-- Node2&#45;&gt;Node1 -->
<g id="edge1" class="edge">
<title>Node2&#45;&gt;Node1</title>
<path fill="none" stroke="#404040" d="M23.1813,-116.2763C23.1569,-106.8094 23.9381,-96.3225 26.5,-87 27.1628,-84.588 27.9622,-82.1702 28.8669,-79.7685"/>
<polygon fill="none" stroke="#404040" points="28.8956,-79.7035 27.666,-72.598 33.752,-68.7301 34.9816,-75.8356 28.8956,-79.7035"/>
<text text-anchor="middle" x="46" y="-90" font-family="Helvetica,sans-Serif" font-size="10.00" fill="#000000"> +value</text>
</g>
<!-- Node3 -->
<g id="node3" class="node">
<title>Node3</title>
<polygon fill="#ffffff" stroke="#bfbfbf" points="68.5,-116.5 68.5,-173.5 106.5,-173.5 106.5,-116.5 68.5,-116.5"/>
<text text-anchor="middle" x="87.5" y="-161.5" font-family="Helvetica,sans-Serif" font-size="10.00" fill="#000000">char</text>
<polyline fill="none" stroke="#bfbfbf" points="68.5,-154.5 106.5,-154.5 "/>
<text text-anchor="middle" x="87.5" y="-142.5" font-family="Helvetica,sans-Serif" font-size="10.00" fill="#000000"> </text>
<polyline fill="none" stroke="#bfbfbf" points="68.5,-135.5 106.5,-135.5 "/>
<text text-anchor="middle" x="87.5" y="-123.5" font-family="Helvetica,sans-Serif" font-size="10.00" fill="#000000"> </text>
</g>
<!-- Node3&#45;&gt;Node1 -->
<g id="edge2" class="edge">
<title>Node3&#45;&gt;Node1</title>
<path fill="none" stroke="#404040" d="M79.436,-116.2559C76.3683,-105.321 72.7914,-92.5708 69.3875,-80.4376"/>
<polygon fill="none" stroke="#404040" points="69.308,-80.154 63.8359,-75.4575 66.0665,-68.6001 71.5386,-73.2965 69.308,-80.154"/>
<text text-anchor="middle" x="93.5" y="-90" font-family="Helvetica,sans-Serif" font-size="10.00" fill="#000000"> +name</text>
</g>
</g>
</svg>
