<?xml version="1.0" encoding="UTF-8" standalone="no"?>
<!DOCTYPE svg PUBLIC "-//W3C//DTD SVG 1.1//EN"
 "http://www.w3.org/Graphics/SVG/1.1/DTD/svg11.dtd">
<!-- Generated by graphviz version 2.40.1 (20161225.0304)
 -->
<!-- Title: CfgToken Pages: 1 -->
<svg width="477pt" height="441pt"
 viewBox="0.00 0.00 477.00 441.00" xmlns="http://www.w3.org/2000/svg" xmlns:xlink="http://www.w3.org/1999/xlink">
<g id="graph0" class="graph" transform="scale(1 1) rotate(0) translate(4 437)">
<title>CfgToken</title>
<polygon fill="#ffffff" stroke="transparent" points="-4,4 -4,-437 473,-437 473,4 -4,4"/>
<!-- Node1 -->
<g id="node1" class="node">
<title>Node1</title>
<polygon fill="#bfbfbf" stroke="#000000" points="115,-.5 115,-79.5 195,-79.5 195,-.5 115,-.5"/>
<text text-anchor="middle" x="155" y="-67.5" font-family="Helvetica,sans-Serif" font-size="10.00" fill="#000000">CfgToken</text>
<polyline fill="none" stroke="#000000" points="115,-60.5 195,-60.5 "/>
<text text-anchor="middle" x="155" y="-48.5" font-family="Helvetica,sans-Serif" font-size="10.00" fill="#000000"> </text>
<polyline fill="none" stroke="#000000" points="115,-41.5 195,-41.5 "/>
<text text-anchor="start" x="123" y="-29.5" font-family="Helvetica,sans-Serif" font-size="10.00" fill="#000000">+ CfgToken()</text>
<text text-anchor="start" x="123" y="-18.5" font-family="Helvetica,sans-Serif" font-size="10.00" fill="#000000">+ Print()</text>
<text text-anchor="start" x="123" y="-7.5" font-family="Helvetica,sans-Serif" font-size="10.00" fill="#000000">+ Evaluate()</text>
</g>
<!-- Node2 -->
<g id="node2" class="node">
<title>Node2</title>
<polygon fill="#ffffff" stroke="#bfbfbf" points="0,-193.5 0,-250.5 84,-250.5 84,-193.5 0,-193.5"/>
<text text-anchor="middle" x="42" y="-238.5" font-family="Helvetica,sans-Serif" font-size="10.00" fill="#000000">CfgTokenType</text>
<polyline fill="none" stroke="#bfbfbf" points="0,-231.5 84,-231.5 "/>
<text text-anchor="middle" x="42" y="-219.5" font-family="Helvetica,sans-Serif" font-size="10.00" fill="#000000"> </text>
<polyline fill="none" stroke="#bfbfbf" points="0,-212.5 84,-212.5 "/>
<text text-anchor="middle" x="42" y="-200.5" font-family="Helvetica,sans-Serif" font-size="10.00" fill="#000000"> </text>
</g>
<!-- Node2&#45;&gt;Node1 -->
<g id="edge1" class="edge">
<title>Node2&#45;&gt;Node1</title>
<path fill="none" stroke="#404040" d="M58.6534,-193.4697C68.2645,-177.1447 80.6585,-156.3283 92,-138 101.6852,-122.3483 112.4453,-105.4409 122.2924,-90.1483"/>
<polygon fill="none" stroke="#404040" points="122.4299,-89.9353 122.3243,-82.725 128.9394,-79.8543 129.045,-87.0646 122.4299,-89.9353"/>
<text text-anchor="middle" x="129.5" y="-106.5" font-family="Helvetica,sans-Serif" font-size="10.00" fill="#000000"> +cvt</text>
</g>
<!-- Node3 -->
<g id="node3" class="node">
<title>Node3</title>
<g id="a_node3"><a xlink:href="classUserVariable.html" target="_top" xlink:title="{UserVariable\n||+ UserVariable()\l+ ~UserVariable()\l+ RaisePrecision()\l+ operator\&gt;()\l+ operator==()\l+ operator!=()\l+ operator+=()\l+ GetDelta()\l+ operator&#45;=()\l+ operator*=()\land 18 more...\l}">
<polygon fill="#ffffff" stroke="#000000" points="101.5,-138.5 101.5,-305.5 208.5,-305.5 208.5,-138.5 101.5,-138.5"/>
<text text-anchor="middle" x="155" y="-293.5" font-family="Helvetica,sans-Serif" font-size="10.00" fill="#000000">UserVariable</text>
<polyline fill="none" stroke="#000000" points="101.5,-286.5 208.5,-286.5 "/>
<text text-anchor="middle" x="155" y="-274.5" font-family="Helvetica,sans-Serif" font-size="10.00" fill="#000000"> </text>
<polyline fill="none" stroke="#000000" points="101.5,-267.5 208.5,-267.5 "/>
<text text-anchor="start" x="109.5" y="-255.5" font-family="Helvetica,sans-Serif" font-size="10.00" fill="#000000">+ UserVariable()</text>
<text text-anchor="start" x="109.5" y="-244.5" font-family="Helvetica,sans-Serif" font-size="10.00" fill="#000000">+ ~UserVariable()</text>
<text text-anchor="start" x="109.5" y="-233.5" font-family="Helvetica,sans-Serif" font-size="10.00" fill="#000000">+ RaisePrecision()</text>
<text text-anchor="start" x="109.5" y="-222.5" font-family="Helvetica,sans-Serif" font-size="10.00" fill="#000000">+ operator&gt;()</text>
<text text-anchor="start" x="109.5" y="-211.5" font-family="Helvetica,sans-Serif" font-size="10.00" fill="#000000">+ operator==()</text>
<text text-anchor="start" x="109.5" y="-200.5" font-family="Helvetica,sans-Serif" font-size="10.00" fill="#000000">+ operator!=()</text>
<text text-anchor="start" x="109.5" y="-189.5" font-family="Helvetica,sans-Serif" font-size="10.00" fill="#000000">+ operator+=()</text>
<text text-anchor="start" x="109.5" y="-178.5" font-family="Helvetica,sans-Serif" font-size="10.00" fill="#000000">+ GetDelta()</text>
<text text-anchor="start" x="109.5" y="-167.5" font-family="Helvetica,sans-Serif" font-size="10.00" fill="#000000">+ operator&#45;=()</text>
<text text-anchor="start" x="109.5" y="-156.5" font-family="Helvetica,sans-Serif" font-size="10.00" fill="#000000">+ operator*=()</text>
<text text-anchor="start" x="109.5" y="-145.5" font-family="Helvetica,sans-Serif" font-size="10.00" fill="#000000">and 18 more...</text>
</a>
</g>
</g>
<!-- Node3&#45;&gt;Node1 -->
<g id="edge2" class="edge">
<title>Node3&#45;&gt;Node1</title>
<path fill="none" stroke="#404040" d="M155,-138.4574C155,-122.7014 155,-106.6452 155,-92.1953"/>
<polygon fill="none" stroke="#404040" points="155.0001,-91.9583 151,-85.9583 155,-79.9583 159,-85.9582 155.0001,-91.9583"/>
<text text-anchor="middle" x="168.5" y="-112" font-family="Helvetica,sans-Serif" font-size="10.00" fill="#000000"> +val</text>
<text text-anchor="middle" x="168.5" y="-101" font-family="Helvetica,sans-Serif" font-size="10.00" fill="#000000">+var</text>
</g>
<!-- Node3&#45;&gt;Node3 -->
<g id="edge5" class="edge">
<title>Node3&#45;&gt;Node3</title>
<path fill="none" stroke="#404040" d="M208.6322,-242.0656C219.0804,-239.7354 226.5,-233.0469 226.5,-222 226.5,-215.4409 223.8843,-210.4183 219.5721,-206.9322"/>
<polygon fill="none" stroke="#404040" points="219.5471,-206.9209 212.4275,-208.0659 208.6322,-201.9344 215.7518,-200.7893 219.5471,-206.9209"/>
<text text-anchor="middle" x="243.5" y="-219.5" font-family="Helvetica,sans-Serif" font-size="10.00" fill="#000000"> +next</text>
</g>
<!-- Node4 -->
<g id="node4" class="node">
<title>Node4</title>
<polygon fill="#ffffff" stroke="#bfbfbf" points="240,-375.5 240,-432.5 278,-432.5 278,-375.5 240,-375.5"/>
<text text-anchor="middle" x="259" y="-420.5" font-family="Helvetica,sans-Serif" font-size="10.00" fill="#000000">char</text>
<polyline fill="none" stroke="#bfbfbf" points="240,-413.5 278,-413.5 "/>
<text text-anchor="middle" x="259" y="-401.5" font-family="Helvetica,sans-Serif" font-size="10.00" fill="#000000"> </text>
<polyline fill="none" stroke="#bfbfbf" points="240,-394.5 278,-394.5 "/>
<text text-anchor="middle" x="259" y="-382.5" font-family="Helvetica,sans-Serif" font-size="10.00" fill="#000000"> </text>
</g>
<!-- Node4&#45;&gt;Node3 -->
<g id="edge3" class="edge">
<title>Node4&#45;&gt;Node3</title>
<path fill="none" stroke="#404040" d="M245.4058,-375.14C237.957,-359.7689 228.3574,-340.6505 219,-324 217.5213,-321.3688 216.0058,-318.71 214.4624,-316.035"/>
<polygon fill="none" stroke="#404040" points="214.4522,-316.0175 207.969,-312.8604 208.3897,-305.6615 214.8729,-308.8187 214.4522,-316.0175"/>
<text text-anchor="middle" x="256.5" y="-349" font-family="Helvetica,sans-Serif" font-size="10.00" fill="#000000"> +value</text>
<text text-anchor="middle" x="256.5" y="-338" font-family="Helvetica,sans-Serif" font-size="10.00" fill="#000000">+data</text>
<text text-anchor="middle" x="256.5" y="-327" font-family="Helvetica,sans-Serif" font-size="10.00" fill="#000000">+name</text>
</g>
<!-- Node6 -->
<g id="node6" class="node">
<title>Node6</title>
<g id="a_node6"><a xlink:href="classEventParameter.html" target="_top" xlink:title="{EventParameter\n||+ EventParameter()\l}">
<polygon fill="#ffffff" stroke="#000000" points="278.5,-193.5 278.5,-250.5 391.5,-250.5 391.5,-193.5 278.5,-193.5"/>
<text text-anchor="middle" x="335" y="-238.5" font-family="Helvetica,sans-Serif" font-size="10.00" fill="#000000">EventParameter</text>
<polyline fill="none" stroke="#000000" points="278.5,-231.5 391.5,-231.5 "/>
<text text-anchor="middle" x="335" y="-219.5" font-family="Helvetica,sans-Serif" font-size="10.00" fill="#000000"> </text>
<polyline fill="none" stroke="#000000" points="278.5,-212.5 391.5,-212.5 "/>
<text text-anchor="start" x="286.5" y="-200.5" font-family="Helvetica,sans-Serif" font-size="10.00" fill="#000000">+ EventParameter()</text>
</a>
</g>
</g>
<!-- Node4&#45;&gt;Node6 -->
<g id="edge7" class="edge">
<title>Node4&#45;&gt;Node6</title>
<path fill="none" stroke="#404040" d="M272.7587,-375.2855C275.5501,-369.2728 278.4194,-362.9513 281,-357 294.7341,-325.3268 309.2054,-288.9663 319.7066,-261.9661"/>
<polygon fill="none" stroke="#404040" points="319.7592,-261.8302 318.1957,-254.7906 324.0925,-250.6399 325.6559,-257.6795 319.7592,-261.8302"/>
<text text-anchor="middle" x="314" y="-338" font-family="Helvetica,sans-Serif" font-size="10.00" fill="#000000"> +name</text>
</g>
<!-- Node5 -->
<g id="node5" class="node">
<title>Node5</title>
<polygon fill="#ffffff" stroke="#bfbfbf" points="116.5,-375.5 116.5,-432.5 201.5,-432.5 201.5,-375.5 116.5,-375.5"/>
<text text-anchor="middle" x="159" y="-420.5" font-family="Helvetica,sans-Serif" font-size="10.00" fill="#000000">CoreDataType</text>
<polyline fill="none" stroke="#bfbfbf" points="116.5,-413.5 201.5,-413.5 "/>
<text text-anchor="middle" x="159" y="-401.5" font-family="Helvetica,sans-Serif" font-size="10.00" fill="#000000"> </text>
<polyline fill="none" stroke="#bfbfbf" points="116.5,-394.5 201.5,-394.5 "/>
<text text-anchor="middle" x="159" y="-382.5" font-family="Helvetica,sans-Serif" font-size="10.00" fill="#000000"> </text>
</g>
<!-- Node5&#45;&gt;Node3 -->
<g id="edge4" class="edge">
<title>Node5&#45;&gt;Node3</title>
<path fill="none" stroke="#404040" d="M131.817,-375.4636C127.7893,-369.7374 124.2434,-363.4764 122,-357 117.6467,-344.4323 116.6983,-331.0174 117.8904,-317.7029"/>
<polygon fill="none" stroke="#404040" points="117.9288,-317.4206 114.7764,-310.935 119.5506,-305.5307 122.703,-312.0162 117.9288,-317.4206"/>
<text text-anchor="middle" x="139" y="-338" font-family="Helvetica,sans-Serif" font-size="10.00" fill="#000000"> +type</text>
</g>
<!-- Node5&#45;&gt;Node6 -->
<g id="edge9" class="edge">
<title>Node5&#45;&gt;Node6</title>
<path fill="none" stroke="#404040" d="M157.2818,-375.1414C157.8865,-358.0242 161.7256,-337.1661 175,-324 205.2011,-294.0454 232.6701,-328.125 269,-306 286.9315,-295.0797 301.9101,-277.3919 313.0409,-261.0571"/>
<polygon fill="none" stroke="#404040" points="313.2821,-260.6836 313.177,-253.4732 319.7922,-250.6029 319.8974,-257.8133 313.2821,-260.6836"/>
<text text-anchor="middle" x="195" y="-338" font-family="Helvetica,sans-Serif" font-size="10.00" fill="#000000"> +dtype</text>
</g>
<!-- Node6&#45;&gt;Node1 -->
<g id="edge6" class="edge">
<title>Node6&#45;&gt;Node1</title>
<path fill="none" stroke="#404040" d="M314.5988,-193.2551C302.1699,-176.4806 285.5403,-155.2863 269,-138 249.1279,-117.2317 225.2552,-96.1951 204.5019,-78.9648"/>
<polygon fill="none" stroke="#404040" points="204.483,-78.9493 197.3078,-78.2304 195.2117,-71.3307 202.3869,-72.0495 204.483,-78.9493"/>
<text text-anchor="middle" x="276.5" y="-106.5" font-family="Helvetica,sans-Serif" font-size="10.00" fill="#000000"> +evparam</text>
</g>
<!-- Node7 -->
<g id="node7" class="node">
<title>Node7</title>
<polygon fill="#ffffff" stroke="#bfbfbf" points="403.5,-375.5 403.5,-432.5 432.5,-432.5 432.5,-375.5 403.5,-375.5"/>
<text text-anchor="middle" x="418" y="-420.5" font-family="Helvetica,sans-Serif" font-size="10.00" fill="#000000">int</text>
<polyline fill="none" stroke="#bfbfbf" points="403.5,-413.5 432.5,-413.5 "/>
<text text-anchor="middle" x="418" y="-401.5" font-family="Helvetica,sans-Serif" font-size="10.00" fill="#000000"> </text>
<polyline fill="none" stroke="#bfbfbf" points="403.5,-394.5 432.5,-394.5 "/>
<text text-anchor="middle" x="418" y="-382.5" font-family="Helvetica,sans-Serif" font-size="10.00" fill="#000000"> </text>
</g>
<!-- Node7&#45;&gt;Node6 -->
<g id="edge8" class="edge">
<title>Node7&#45;&gt;Node6</title>
<path fill="none" stroke="#404040" d="M408.7428,-375.4828C403.4611,-360.0395 396.4251,-340.7466 389,-324 379.675,-302.9682 367.8518,-280.2835 357.6472,-261.6596"/>
<polygon fill="none" stroke="#404040" points="357.5147,-261.4203 351.1079,-258.1107 351.6988,-250.9239 358.1056,-254.2335 357.5147,-261.4203"/>
<text text-anchor="middle" x="436" y="-338" font-family="Helvetica,sans-Serif" font-size="10.00" fill="#000000"> +max_index</text>
</g>
<!-- Node8 -->
<g id="node8" class="node">
<title>Node8</title>
<polygon fill="#ffffff" stroke="#bfbfbf" points="347,-375.5 347,-432.5 385,-432.5 385,-375.5 347,-375.5"/>
<text text-anchor="middle" x="366" y="-420.5" font-family="Helvetica,sans-Serif" font-size="10.00" fill="#000000">long</text>
<polyline fill="none" stroke="#bfbfbf" points="347,-413.5 385,-413.5 "/>
<text text-anchor="middle" x="366" y="-401.5" font-family="Helvetica,sans-Serif" font-size="10.00" fill="#000000"> </text>
<polyline fill="none" stroke="#bfbfbf" points="347,-394.5 385,-394.5 "/>
<text text-anchor="middle" x="366" y="-382.5" font-family="Helvetica,sans-Serif" font-size="10.00" fill="#000000"> </text>
</g>
<!-- Node8&#45;&gt;Node6 -->
<g id="edge10" class="edge">
<title>Node8&#45;&gt;Node6</title>
<path fill="none" stroke="#404040" d="M361.088,-375.1616C355.9182,-344.8099 347.7382,-296.7856 341.917,-262.6097"/>
<polygon fill="none" stroke="#404040" points="341.9041,-262.5331 336.9534,-257.29 339.8891,-250.7035 344.8398,-255.9467 341.9041,-262.5331"/>
<text text-anchor="middle" x="371.5" y="-338" font-family="Helvetica,sans-Serif" font-size="10.00" fill="#000000"> +ofs</text>
</g>
</g>
</svg>
