<?xml version="1.0" encoding="UTF-8" standalone="no"?>
<!DOCTYPE svg PUBLIC "-//W3C//DTD SVG 1.1//EN"
 "http://www.w3.org/Graphics/SVG/1.1/DTD/svg11.dtd">
<!-- Generated by graphviz version 2.40.1 (20161225.0304)
 -->
<!-- Title: MemoryManager::run_mgr_thread Pages: 1 -->
<svg width="755pt" height="249pt"
 viewBox="0.00 0.00 755.00 249.00" xmlns="http://www.w3.org/2000/svg" xmlns:xlink="http://www.w3.org/1999/xlink">
<g id="graph0" class="graph" transform="scale(1 1) rotate(0) translate(4 245)">
<title>MemoryManager::run_mgr_thread</title>
<polygon fill="#ffffff" stroke="transparent" points="-4,4 -4,-245 751,-245 751,4 -4,4"/>
<!-- Node41 -->
<g id="node1" class="node">
<title>Node41</title>
<polygon fill="#bfbfbf" stroke="#000000" points="0,-93 0,-123 120,-123 120,-93 0,-93"/>
<text text-anchor="start" x="8" y="-111" font-family="Helvetica,sans-Serif" font-size="10.00" fill="#000000">MemoryManager::run</text>
<text text-anchor="middle" x="60" y="-100" font-family="Helvetica,sans-Serif" font-size="10.00" fill="#000000">_mgr_thread</text>
</g>
<!-- Node42 -->
<g id="node2" class="node">
<title>Node42</title>
<g id="a_node2"><a xlink:href="classMemoryManager.html#aaa906e019f7d28b616b038a4e4ee9006" target="_top" xlink:title="MemoryManager::ProcessQueue">
<polygon fill="#ffffff" stroke="#000000" points="156,-155.5 156,-174.5 329,-174.5 329,-155.5 156,-155.5"/>
<text text-anchor="middle" x="242.5" y="-162.5" font-family="Helvetica,sans-Serif" font-size="10.00" fill="#000000">MemoryManager::ProcessQueue</text>
</a>
</g>
</g>
<!-- Node41&#45;&gt;Node42 -->
<g id="edge1" class="edge">
<title>Node41&#45;&gt;Node42</title>
<path fill="none" stroke="#191970" d="M94.1823,-123.082C112.3032,-130.6795 135.0863,-139.6093 156,-146 164.44,-148.579 173.4437,-150.9567 182.3341,-153.0937"/>
<polygon fill="#191970" stroke="#191970" points="181.7552,-156.5523 192.2874,-155.4021 183.3367,-149.7333 181.7552,-156.5523"/>
</g>
<!-- Node52 -->
<g id="node12" class="node">
<title>Node52</title>
<g id="a_node12"><a xlink:href="classSLinkList.html#a5f39ddf694bcede83135db23c04baf89" target="_top" xlink:title="SLinkList::GetFirstItem">
<polygon fill="#ffffff" stroke="#000000" points="179.5,-117.5 179.5,-136.5 305.5,-136.5 305.5,-117.5 179.5,-117.5"/>
<text text-anchor="middle" x="242.5" y="-124.5" font-family="Helvetica,sans-Serif" font-size="10.00" fill="#000000">SLinkList::GetFirstItem</text>
</a>
</g>
</g>
<!-- Node41&#45;&gt;Node52 -->
<g id="edge11" class="edge">
<title>Node41&#45;&gt;Node52</title>
<path fill="none" stroke="#191970" d="M120.0101,-114.2476C135.7543,-115.8868 152.9096,-117.6728 169.2613,-119.3752"/>
<polygon fill="#191970" stroke="#191970" points="169.0102,-122.8678 179.3189,-120.4222 169.7352,-115.9055 169.0102,-122.8678"/>
</g>
<!-- Node53 -->
<g id="node13" class="node">
<title>Node53</title>
<g id="a_node13"><a xlink:href="classPreallocatedType.html#a6acac2959714f3e105801945a3cb8b03" target="_top" xlink:title="PreallocatedType::Cleanup">
<polygon fill="#ffffff" stroke="#000000" points="169.5,-79.5 169.5,-98.5 315.5,-98.5 315.5,-79.5 169.5,-79.5"/>
<text text-anchor="middle" x="242.5" y="-86.5" font-family="Helvetica,sans-Serif" font-size="10.00" fill="#000000">PreallocatedType::Cleanup</text>
</a>
</g>
</g>
<!-- Node41&#45;&gt;Node53 -->
<g id="edge12" class="edge">
<title>Node41&#45;&gt;Node53</title>
<path fill="none" stroke="#191970" d="M120.0101,-101.7524C132.5938,-100.4423 146.0789,-99.0384 159.3347,-97.6583"/>
<polygon fill="#191970" stroke="#191970" points="159.8242,-101.1264 169.408,-96.6096 159.0993,-94.164 159.8242,-101.1264"/>
</g>
<!-- Node54 -->
<g id="node14" class="node">
<title>Node54</title>
<g id="a_node14"><a xlink:href="classSLinkList.html#a8991b2be1afb80abf0aee5c0d7b85647" target="_top" xlink:title="SLinkList::GetNextItem">
<polygon fill="#ffffff" stroke="#000000" points="178,-41.5 178,-60.5 307,-60.5 307,-41.5 178,-41.5"/>
<text text-anchor="middle" x="242.5" y="-48.5" font-family="Helvetica,sans-Serif" font-size="10.00" fill="#000000">SLinkList::GetNextItem</text>
</a>
</g>
</g>
<!-- Node41&#45;&gt;Node54 -->
<g id="edge13" class="edge">
<title>Node41&#45;&gt;Node54</title>
<path fill="none" stroke="#191970" d="M94.1823,-92.918C112.3032,-85.3205 135.0863,-76.3907 156,-70 164.44,-67.421 173.4437,-65.0433 182.3341,-62.9063"/>
<polygon fill="#191970" stroke="#191970" points="183.3367,-66.2667 192.2874,-60.5979 181.7552,-59.4477 183.3367,-66.2667"/>
</g>
<!-- Node43 -->
<g id="node3" class="node">
<title>Node43</title>
<g id="a_node3"><a xlink:href="classSRMWRingBuffer.html#ae907e34d6dc9fff4f1e3955dd3aa53b7" target="_top" xlink:title="SRMWRingBuffer::ReadElement">
<polygon fill="#ffffff" stroke="#000000" points="367.5,-221.5 367.5,-240.5 536.5,-240.5 536.5,-221.5 367.5,-221.5"/>
<text text-anchor="middle" x="452" y="-228.5" font-family="Helvetica,sans-Serif" font-size="10.00" fill="#000000">SRMWRingBuffer::ReadElement</text>
</a>
</g>
</g>
<!-- Node42&#45;&gt;Node43 -->
<g id="edge2" class="edge">
<title>Node42&#45;&gt;Node43</title>
<path fill="none" stroke="#191970" d="M264.2822,-174.5109C288.5112,-184.8169 328.9915,-201.2278 365,-212 373.7018,-214.6032 382.9916,-217.0123 392.1413,-219.1792"/>
<polygon fill="#191970" stroke="#191970" points="391.451,-222.6116 401.9801,-221.4332 393.0142,-215.7884 391.451,-222.6116"/>
</g>
<!-- Node44 -->
<g id="node4" class="node">
<title>Node44</title>
<g id="a_node4"><a xlink:href="classMemoryManagerUpdate.html#aeee060760229cbcbdb9801f9873156d1" target="_top" xlink:title="MemoryManagerUpdate\l::IsValid">
<polygon fill="#ffffff" stroke="#000000" points="385,-172 385,-202 519,-202 519,-172 385,-172"/>
<text text-anchor="start" x="393" y="-190" font-family="Helvetica,sans-Serif" font-size="10.00" fill="#000000">MemoryManagerUpdate</text>
<text text-anchor="middle" x="452" y="-179" font-family="Helvetica,sans-Serif" font-size="10.00" fill="#000000">::IsValid</text>
</a>
</g>
</g>
<!-- Node42&#45;&gt;Node44 -->
<g id="edge3" class="edge">
<title>Node42&#45;&gt;Node44</title>
<path fill="none" stroke="#191970" d="M329.2239,-174.107C344.3151,-175.6918 359.9209,-177.3306 374.7371,-178.8865"/>
<polygon fill="#191970" stroke="#191970" points="374.5415,-182.3851 384.8524,-179.9487 375.2726,-175.4234 374.5415,-182.3851"/>
</g>
<!-- Node45 -->
<g id="node5" class="node">
<title>Node45</title>
<g id="a_node5"><a xlink:href="classPreallocatedType.html#aeb51d964fefa41b30cbcdf8b97882121" target="_top" xlink:title="PreallocatedType::GoPostdelete">
<polygon fill="#ffffff" stroke="#000000" points="366.5,-133.5 366.5,-152.5 537.5,-152.5 537.5,-133.5 366.5,-133.5"/>
<text text-anchor="middle" x="452" y="-140.5" font-family="Helvetica,sans-Serif" font-size="10.00" fill="#000000">PreallocatedType::GoPostdelete</text>
</a>
</g>
</g>
<!-- Node42&#45;&gt;Node45 -->
<g id="edge4" class="edge">
<title>Node42&#45;&gt;Node45</title>
<path fill="none" stroke="#191970" d="M329.2239,-155.893C338.1388,-154.9568 347.2332,-154.0018 356.2384,-153.0561"/>
<polygon fill="#191970" stroke="#191970" points="356.7736,-156.5192 366.3533,-151.9939 356.0425,-149.5575 356.7736,-156.5192"/>
</g>
<!-- Node47 -->
<g id="node7" class="node">
<title>Node47</title>
<g id="a_node7"><a xlink:href="classPreallocatedType.html#a58ec3848b8d6e75e6e65f6be93e79276" target="_top" xlink:title="PreallocatedType::GoPreallocate">
<polygon fill="#ffffff" stroke="#000000" points="365,-76.5 365,-95.5 539,-95.5 539,-76.5 365,-76.5"/>
<text text-anchor="middle" x="452" y="-83.5" font-family="Helvetica,sans-Serif" font-size="10.00" fill="#000000">PreallocatedType::GoPreallocate</text>
</a>
</g>
</g>
<!-- Node42&#45;&gt;Node47 -->
<g id="edge6" class="edge">
<title>Node42&#45;&gt;Node47</title>
<path fill="none" stroke="#191970" d="M299.158,-155.3947C309.2754,-152.8834 319.5852,-149.7865 329,-146 346.3969,-139.0033 348.3694,-132.6618 365,-124 382.069,-115.1098 401.6667,-106.424 417.9354,-99.6056"/>
<polygon fill="#191970" stroke="#191970" points="419.6787,-102.6722 427.5823,-95.6163 417.0037,-96.2034 419.6787,-102.6722"/>
</g>
<!-- Node46 -->
<g id="node6" class="node">
<title>Node46</title>
<g id="a_node6"><a xlink:href="classPreallocated.html#a5d458f28b1cd937b14fd9907278b7f45" target="_top" xlink:title="Preallocated::Recycle">
<polygon fill="#ffffff" stroke="#000000" points="600.5,-152.5 600.5,-171.5 721.5,-171.5 721.5,-152.5 600.5,-152.5"/>
<text text-anchor="middle" x="661" y="-159.5" font-family="Helvetica,sans-Serif" font-size="10.00" fill="#000000">Preallocated::Recycle</text>
</a>
</g>
</g>
<!-- Node45&#45;&gt;Node46 -->
<g id="edge5" class="edge">
<title>Node45&#45;&gt;Node46</title>
<path fill="none" stroke="#191970" d="M537.6113,-150.7828C555.0688,-152.3699 573.2537,-154.0231 590.129,-155.5572"/>
<polygon fill="#191970" stroke="#191970" points="590.1729,-159.0755 600.4488,-156.4953 590.8068,-152.1043 590.1729,-159.0755"/>
</g>
<!-- Node48 -->
<g id="node8" class="node">
<title>Node48</title>
<g id="a_node8"><a xlink:href="classPreallocated.html#a6c7fad49a12301624b0dfbd9cef2f358" target="_top" xlink:title="Preallocated::NewInstance">
<polygon fill="#ffffff" stroke="#000000" points="588,-114.5 588,-133.5 734,-133.5 734,-114.5 588,-114.5"/>
<text text-anchor="middle" x="661" y="-121.5" font-family="Helvetica,sans-Serif" font-size="10.00" fill="#000000">Preallocated::NewInstance</text>
</a>
</g>
</g>
<!-- Node47&#45;&gt;Node48 -->
<g id="edge7" class="edge">
<title>Node47&#45;&gt;Node48</title>
<path fill="none" stroke="#191970" d="M504.4698,-95.54C533.0413,-100.7348 568.5796,-107.1963 598.5691,-112.6489"/>
<polygon fill="#191970" stroke="#191970" points="598.0438,-116.1107 608.5087,-114.4561 599.2961,-109.2236 598.0438,-116.1107"/>
</g>
<!-- Node49 -->
<g id="node9" class="node">
<title>Node49</title>
<g id="a_node9"><a xlink:href="classPreallocated.html#ad31c546d3c1641b44135dccb4ef0cafd" target="_top" xlink:title="Preallocated::SetupPreallocated">
<polygon fill="#ffffff" stroke="#000000" points="575,-76.5 575,-95.5 747,-95.5 747,-76.5 575,-76.5"/>
<text text-anchor="middle" x="661" y="-83.5" font-family="Helvetica,sans-Serif" font-size="10.00" fill="#000000">Preallocated::SetupPreallocated</text>
</a>
</g>
</g>
<!-- Node47&#45;&gt;Node49 -->
<g id="edge8" class="edge">
<title>Node47&#45;&gt;Node49</title>
<path fill="none" stroke="#191970" d="M539.1214,-86C547.4825,-86 555.9963,-86 564.4406,-86"/>
<polygon fill="#191970" stroke="#191970" points="564.6913,-89.5001 574.6913,-86 564.6912,-82.5001 564.6913,-89.5001"/>
</g>
<!-- Node50 -->
<g id="node10" class="node">
<title>Node50</title>
<g id="a_node10"><a xlink:href="classRTStore.html#af3c93f31bd68ce149a812b05d9e7cd86" target="_top" xlink:title="RTStore::ChangeStateAtIdx">
<polygon fill="#ffffff" stroke="#000000" points="587,-38.5 587,-57.5 735,-57.5 735,-38.5 587,-38.5"/>
<text text-anchor="middle" x="661" y="-45.5" font-family="Helvetica,sans-Serif" font-size="10.00" fill="#000000">RTStore::ChangeStateAtIdx</text>
</a>
</g>
</g>
<!-- Node47&#45;&gt;Node50 -->
<g id="edge9" class="edge">
<title>Node47&#45;&gt;Node50</title>
<path fill="none" stroke="#191970" d="M504.4698,-76.46C533.0413,-71.2652 568.5796,-64.8037 598.5691,-59.3511"/>
<polygon fill="#191970" stroke="#191970" points="599.2961,-62.7764 608.5087,-57.5439 598.0438,-55.8893 599.2961,-62.7764"/>
</g>
<!-- Node51 -->
<g id="node11" class="node">
<title>Node51</title>
<g id="a_node11"><a xlink:href="classRTStore.html#a491601a177c671d8700a30d775d37bad" target="_top" xlink:title="RTStore::GetItemAtIdx">
<polygon fill="#ffffff" stroke="#000000" points="598.5,-.5 598.5,-19.5 723.5,-19.5 723.5,-.5 598.5,-.5"/>
<text text-anchor="middle" x="661" y="-7.5" font-family="Helvetica,sans-Serif" font-size="10.00" fill="#000000">RTStore::GetItemAtIdx</text>
</a>
</g>
</g>
<!-- Node47&#45;&gt;Node51 -->
<g id="edge10" class="edge">
<title>Node47&#45;&gt;Node51</title>
<path fill="none" stroke="#191970" d="M469.4294,-76.4499C492.8283,-63.9757 535.9779,-42.1786 575,-29 582.7244,-26.3913 590.9619,-24.0451 599.1636,-21.9651"/>
<polygon fill="#191970" stroke="#191970" points="600.2155,-25.3117 609.1134,-19.5603 598.571,-18.5076 600.2155,-25.3117"/>
</g>
</g>
</svg>
