<?xml version="1.0" encoding="UTF-8" standalone="no"?>
<!DOCTYPE svg PUBLIC "-//W3C//DTD SVG 1.1//EN"
 "http://www.w3.org/Graphics/SVG/1.1/DTD/svg11.dtd">
<!-- Generated by graphviz version 2.40.1 (20161225.0304)
 -->
<!-- Title: RT_RCU Pages: 1 -->
<svg width="157pt" height="259pt"
 viewBox="0.00 0.00 157.00 259.00" xmlns="http://www.w3.org/2000/svg" xmlns:xlink="http://www.w3.org/1999/xlink">
<g id="graph0" class="graph" transform="scale(1 1) rotate(0) translate(4 255)">
<title>RT_RCU</title>
<polygon fill="#ffffff" stroke="transparent" points="-4,4 -4,-255 153,-255 153,4 -4,4"/>
<!-- Node0 -->
<g id="node1" class="node">
<title>Node0</title>
<polygon fill="#bfbfbf" stroke="#000000" points="2.5,-.5 2.5,-156.5 146.5,-156.5 146.5,-.5 2.5,-.5"/>
<text text-anchor="middle" x="74.5" y="-144.5" font-family="Helvetica,sans-Serif" font-size="10.00" fill="#000000">RT_RCU</text>
<polyline fill="none" stroke="#000000" points="2.5,-137.5 146.5,-137.5 "/>
<text text-anchor="start" x="10.5" y="-125.5" font-family="Helvetica,sans-Serif" font-size="10.00" fill="#000000">&#45; global_time_count</text>
<text text-anchor="start" x="10.5" y="-114.5" font-family="Helvetica,sans-Serif" font-size="10.00" fill="#000000">&#45; last_update_time</text>
<text text-anchor="start" x="10.5" y="-103.5" font-family="Helvetica,sans-Serif" font-size="10.00" fill="#000000">&#45; reader_lock_times</text>
<text text-anchor="start" x="10.5" y="-92.5" font-family="Helvetica,sans-Serif" font-size="10.00" fill="#000000">&#45; num_readers</text>
<polyline fill="none" stroke="#000000" points="2.5,-85.5 146.5,-85.5 "/>
<text text-anchor="start" x="10.5" y="-73.5" font-family="Helvetica,sans-Serif" font-size="10.00" fill="#000000">+ RT_RCU()</text>
<text text-anchor="start" x="10.5" y="-62.5" font-family="Helvetica,sans-Serif" font-size="10.00" fill="#000000">+ ~RT_RCU()</text>
<text text-anchor="start" x="10.5" y="-51.5" font-family="Helvetica,sans-Serif" font-size="10.00" fill="#000000">+ ReadLock()</text>
<text text-anchor="start" x="10.5" y="-40.5" font-family="Helvetica,sans-Serif" font-size="10.00" fill="#000000">+ ReadUnlock()</text>
<text text-anchor="start" x="10.5" y="-29.5" font-family="Helvetica,sans-Serif" font-size="10.00" fill="#000000">+ Update()</text>
<text text-anchor="start" x="10.5" y="-18.5" font-family="Helvetica,sans-Serif" font-size="10.00" fill="#000000">+ Synchronize()</text>
<text text-anchor="start" x="10.5" y="-7.5" font-family="Helvetica,sans-Serif" font-size="10.00" fill="#000000">&#45; UpdateNumRWThreads()</text>
</g>
<!-- Node1 -->
<g id="node2" class="node">
<title>Node1</title>
<g id="a_node2"><a xlink:href="classRTDataStruct__Updater.html" target="_top" xlink:title="{RTDataStruct_Updater\n||# UpdateNumRWThreads()\l}">
<polygon fill="#ffffff" stroke="#000000" points="0,-193.5 0,-250.5 149,-250.5 149,-193.5 0,-193.5"/>
<text text-anchor="middle" x="74.5" y="-238.5" font-family="Helvetica,sans-Serif" font-size="10.00" fill="#000000">RTDataStruct_Updater</text>
<polyline fill="none" stroke="#000000" points="0,-231.5 149,-231.5 "/>
<text text-anchor="middle" x="74.5" y="-219.5" font-family="Helvetica,sans-Serif" font-size="10.00" fill="#000000"> </text>
<polyline fill="none" stroke="#000000" points="0,-212.5 149,-212.5 "/>
<text text-anchor="start" x="8" y="-200.5" font-family="Helvetica,sans-Serif" font-size="10.00" fill="#000000"># UpdateNumRWThreads()</text>
</a>
</g>
</g>
<!-- Node1&#45;&gt;Node0 -->
<g id="edge1" class="edge">
<title>Node1&#45;&gt;Node0</title>
<path fill="none" stroke="#191970" d="M74.5,-183.1909C74.5,-174.8484 74.5,-165.7471 74.5,-156.5064"/>
<polygon fill="none" stroke="#191970" points="71.0001,-183.3055 74.5,-193.3055 78.0001,-183.3056 71.0001,-183.3055"/>
</g>
</g>
</svg>
