<?xml version="1.0" encoding="UTF-8" standalone="no"?>
<!DOCTYPE svg PUBLIC "-//W3C//DTD SVG 1.1//EN"
 "http://www.w3.org/Graphics/SVG/1.1/DTD/svg11.dtd">
<!-- Generated by graphviz version 2.40.1 (20161225.0304)
 -->
<!-- Title: LoopManager::GetWriteBlock Pages: 1 -->
<svg width="1124pt" height="1270pt"
 viewBox="0.00 0.00 1124.00 1270.11" xmlns="http://www.w3.org/2000/svg" xmlns:xlink="http://www.w3.org/1999/xlink">
<g id="graph0" class="graph" transform="scale(1 1) rotate(0) translate(4 1266.1139)">
<title>LoopManager::GetWriteBlock</title>
<polygon fill="#ffffff" stroke="transparent" points="-4,4 -4,-1266.1139 1120,-1266.1139 1120,4 -4,4"/>
<!-- Node554 -->
<g id="node1" class="node">
<title>Node554</title>
<polygon fill="#bfbfbf" stroke="#000000" points="0,-1107 0,-1126 158,-1126 158,-1107 0,-1107"/>
<text text-anchor="middle" x="79" y="-1114" font-family="Helvetica,sans-Serif" font-size="10.00" fill="#000000">LoopManager::GetWriteBlock</text>
</g>
<!-- Node555 -->
<g id="node2" class="node">
<title>Node555</title>
<g id="a_node2"><a xlink:href="classLoopManager.html#af213761ccf6208b94354a3658de91cfb" target="_top" xlink:title="LoopManager::CheckSaveMap">
<polygon fill="#ffffff" stroke="#000000" points="194.5,-1050 194.5,-1069 356.5,-1069 356.5,-1050 194.5,-1050"/>
<text text-anchor="middle" x="275.5" y="-1057" font-family="Helvetica,sans-Serif" font-size="10.00" fill="#000000">LoopManager::CheckSaveMap</text>
</a>
</g>
</g>
<!-- Node554&#45;&gt;Node555 -->
<g id="edge1" class="edge">
<title>Node554&#45;&gt;Node555</title>
<path fill="none" stroke="#191970" d="M105.7428,-1106.9032C128.9163,-1098.7705 163.4344,-1087.094 194,-1078.5 202.8333,-1076.0164 212.2685,-1073.6018 221.471,-1071.3734"/>
<polygon fill="#191970" stroke="#191970" points="222.4047,-1074.7491 231.3258,-1069.0339 220.7878,-1067.9384 222.4047,-1074.7491"/>
</g>
<!-- Node556 -->
<g id="node3" class="node">
<title>Node556</title>
<g id="a_node3"><a xlink:href="classFweelin.html#a10bb364ecf38990653b49a98c5a89c90" target="_top" xlink:title="Fweelin::getTMAP">
<polygon fill="#ffffff" stroke="#000000" points="434.5,-1202 434.5,-1221 537.5,-1221 537.5,-1202 434.5,-1202"/>
<text text-anchor="middle" x="486" y="-1209" font-family="Helvetica,sans-Serif" font-size="10.00" fill="#000000">Fweelin::getTMAP</text>
</a>
</g>
</g>
<!-- Node554&#45;&gt;Node556 -->
<g id="edge12" class="edge">
<title>Node554&#45;&gt;Node556</title>
<path fill="none" stroke="#191970" d="M89.3963,-1126.1593C108.4314,-1143.1613 150.9033,-1178.0037 194,-1192.5 270.2417,-1218.1451 363.8779,-1219.3351 424.224,-1216.5109"/>
<polygon fill="#191970" stroke="#191970" points="424.5484,-1219.9989 434.3532,-1215.9844 424.185,-1213.0083 424.5484,-1219.9989"/>
</g>
<!-- Node565 -->
<g id="node12" class="node">
<title>Node565</title>
<g id="a_node12"><a xlink:href="classEvent.html#ac4c4170579544b41dff38ca1b8110e30" target="_top" xlink:title="Event::GetType">
<polygon fill="#ffffff" stroke="#000000" points="230.5,-1164 230.5,-1183 320.5,-1183 320.5,-1164 230.5,-1164"/>
<text text-anchor="middle" x="275.5" y="-1171" font-family="Helvetica,sans-Serif" font-size="10.00" fill="#000000">Event::GetType</text>
</a>
</g>
</g>
<!-- Node554&#45;&gt;Node565 -->
<g id="edge11" class="edge">
<title>Node554&#45;&gt;Node565</title>
<path fill="none" stroke="#191970" d="M105.7428,-1126.0968C128.9163,-1134.2295 163.4344,-1145.906 194,-1154.5 202.8333,-1156.9836 212.2685,-1159.3982 221.471,-1161.6266"/>
<polygon fill="#191970" stroke="#191970" points="220.7878,-1165.0616 231.3258,-1163.9661 222.4047,-1158.2509 220.7878,-1165.0616"/>
</g>
<!-- Node566 -->
<g id="node13" class="node">
<title>Node566</title>
<g id="a_node13"><a xlink:href="classTriggerMap.html#ac8bd578376cd8304371807f237a1d4ef" target="_top" xlink:title="TriggerMap::SearchMap">
<polygon fill="#ffffff" stroke="#000000" points="211,-1126 211,-1145 340,-1145 340,-1126 211,-1126"/>
<text text-anchor="middle" x="275.5" y="-1133" font-family="Helvetica,sans-Serif" font-size="10.00" fill="#000000">TriggerMap::SearchMap</text>
</a>
</g>
</g>
<!-- Node554&#45;&gt;Node566 -->
<g id="edge13" class="edge">
<title>Node554&#45;&gt;Node566</title>
<path fill="none" stroke="#191970" d="M158.0747,-1124.1459C172.1485,-1125.5067 186.7684,-1126.9204 200.718,-1128.2692"/>
<polygon fill="#191970" stroke="#191970" points="200.4491,-1131.7594 210.7396,-1129.2382 201.1229,-1124.7919 200.4491,-1131.7594"/>
</g>
<!-- Node567 -->
<g id="node14" class="node">
<title>Node567</title>
<g id="a_node14"><a xlink:href="classLoopManager.html#a66574bbc447d4f891ef382469c521b05" target="_top" xlink:title="LoopManager::GetStatus">
<polygon fill="#ffffff" stroke="#000000" points="207.5,-1088 207.5,-1107 343.5,-1107 343.5,-1088 207.5,-1088"/>
<text text-anchor="middle" x="275.5" y="-1095" font-family="Helvetica,sans-Serif" font-size="10.00" fill="#000000">LoopManager::GetStatus</text>
</a>
</g>
</g>
<!-- Node554&#45;&gt;Node567 -->
<g id="edge14" class="edge">
<title>Node554&#45;&gt;Node567</title>
<path fill="none" stroke="#191970" d="M158.0747,-1108.8541C170.9495,-1107.6092 184.2815,-1106.3201 197.1391,-1105.0769"/>
<polygon fill="#191970" stroke="#191970" points="197.7145,-1108.5377 207.3312,-1104.0914 197.0408,-1101.5702 197.7145,-1108.5377"/>
</g>
<!-- Node568 -->
<g id="node15" class="node">
<title>Node568</title>
<g id="a_node15"><a xlink:href="classEventManager.html#a42550b5fb771dea0b93254ab602ed3ab" target="_top" xlink:title="EventManager::RemoveEvent">
<polygon fill="#ffffff" stroke="#000000" points="195.5,-1240 195.5,-1259 355.5,-1259 355.5,-1240 195.5,-1240"/>
<text text-anchor="middle" x="275.5" y="-1247" font-family="Helvetica,sans-Serif" font-size="10.00" fill="#000000">EventManager::RemoveEvent</text>
</a>
</g>
</g>
<!-- Node554&#45;&gt;Node568 -->
<g id="edge15" class="edge">
<title>Node554&#45;&gt;Node568</title>
<path fill="none" stroke="#191970" d="M86.5095,-1126.2419C103.3851,-1147.4699 146.5622,-1198.1811 194,-1225.5 201.8849,-1230.0408 210.7021,-1233.7868 219.5445,-1236.8574"/>
<polygon fill="#191970" stroke="#191970" points="218.515,-1240.2028 229.1063,-1239.9299 220.6565,-1233.5384 218.515,-1240.2028"/>
</g>
<!-- Node569 -->
<g id="node16" class="node">
<title>Node569</title>
<g id="a_node16"><a xlink:href="classTriggerMap.html#a92e251eec5a7c5741807805b6869fab8" target="_top" xlink:title="TriggerMap::GoSave">
<polygon fill="#ffffff" stroke="#000000" points="219,-803 219,-822 332,-822 332,-803 219,-803"/>
<text text-anchor="middle" x="275.5" y="-810" font-family="Helvetica,sans-Serif" font-size="10.00" fill="#000000">TriggerMap::GoSave</text>
</a>
</g>
</g>
<!-- Node554&#45;&gt;Node569 -->
<g id="edge17" class="edge">
<title>Node554&#45;&gt;Node569</title>
<path fill="none" stroke="#191970" d="M85.3154,-1106.7297C113.3219,-1063.4015 226.5551,-888.2214 263.6617,-830.8147"/>
<polygon fill="#191970" stroke="#191970" points="266.817,-832.3806 269.3061,-822.0823 260.9382,-828.5807 266.817,-832.3806"/>
</g>
<!-- Node585 -->
<g id="node32" class="node">
<title>Node585</title>
<g id="a_node32"><a xlink:href="classLoopManager.html#a306ffe72c9623e33cad280ec3609c359" target="_top" xlink:title="LoopManager::SetupSaveLoop">
<polygon fill="#ffffff" stroke="#000000" points="194,-366 194,-385 357,-385 357,-366 194,-366"/>
<text text-anchor="middle" x="275.5" y="-373" font-family="Helvetica,sans-Serif" font-size="10.00" fill="#000000">LoopManager::SetupSaveLoop</text>
</a>
</g>
</g>
<!-- Node554&#45;&gt;Node585 -->
<g id="edge36" class="edge">
<title>Node554&#45;&gt;Node585</title>
<path fill="none" stroke="#191970" d="M81.5564,-1106.86C102.1944,-1029.0341 241.5577,-503.4962 270.3153,-395.0516"/>
<polygon fill="#191970" stroke="#191970" points="273.7624,-395.7068 272.9427,-385.1437 266.9963,-393.9125 273.7624,-395.7068"/>
</g>
<!-- Node555&#45;&gt;Node556 -->
<g id="edge2" class="edge">
<title>Node555&#45;&gt;Node556</title>
<path fill="none" stroke="#191970" d="M342.9399,-1069.0131C348.0602,-1071.5325 352.8425,-1074.6502 357,-1078.5 395.9861,-1114.5998 353.5211,-1156.9398 393,-1192.5 401.7127,-1200.3479 412.767,-1205.301 424.188,-1208.3622"/>
<polygon fill="#191970" stroke="#191970" points="423.7497,-1211.8497 434.2695,-1210.5906 425.2606,-1205.0147 423.7497,-1211.8497"/>
</g>
<!-- Node557 -->
<g id="node4" class="node">
<title>Node557</title>
<g id="a_node4"><a xlink:href="classTriggerMap.html#a00913cf6fc3d5f7fa161a4f7d30a9464" target="_top" xlink:title="TriggerMap::GetLastUpdate">
<polygon fill="#ffffff" stroke="#000000" points="411.5,-1164 411.5,-1183 560.5,-1183 560.5,-1164 411.5,-1164"/>
<text text-anchor="middle" x="486" y="-1171" font-family="Helvetica,sans-Serif" font-size="10.00" fill="#000000">TriggerMap::GetLastUpdate</text>
</a>
</g>
</g>
<!-- Node555&#45;&gt;Node557 -->
<g id="edge3" class="edge">
<title>Node555&#45;&gt;Node557</title>
<path fill="none" stroke="#191970" d="M341.1816,-1069.1026C346.8655,-1071.5838 352.2503,-1074.6691 357,-1078.5 386.0921,-1101.9646 363.5879,-1131.4378 393,-1154.5 395.8084,-1156.7021 398.8072,-1158.6676 401.9441,-1160.4208"/>
<polygon fill="#191970" stroke="#191970" points="400.5767,-1163.6467 411.1065,-1164.8195 403.6063,-1157.3363 400.5767,-1163.6467"/>
</g>
<!-- Node558 -->
<g id="node5" class="node">
<title>Node558</title>
<g id="a_node5"><a xlink:href="classEventManager.html#ae53beeffe291f5bf2896cb42685b07b0" target="_top" xlink:title="EventManager::DeleteQueue">
<polygon fill="#ffffff" stroke="#000000" points="408,-974 408,-993 564,-993 564,-974 408,-974"/>
<text text-anchor="middle" x="486" y="-981" font-family="Helvetica,sans-Serif" font-size="10.00" fill="#000000">EventManager::DeleteQueue</text>
</a>
</g>
</g>
<!-- Node555&#45;&gt;Node558 -->
<g id="edge4" class="edge">
<title>Node555&#45;&gt;Node558</title>
<path fill="none" stroke="#191970" d="M292.0591,-1049.8149C314.311,-1037.1914 355.4198,-1015.2293 393,-1002.5 400.9651,-999.802 409.4502,-997.4247 417.9314,-995.3474"/>
<polygon fill="#191970" stroke="#191970" points="418.9042,-998.7147 427.8545,-993.0453 417.3222,-991.8958 418.9042,-998.7147"/>
</g>
<!-- Node560 -->
<g id="node7" class="node">
<title>Node560</title>
<g id="a_node7"><a xlink:href="classTriggerMap.html#aa7d410849b2b17c3623c6d105241418e" target="_top" xlink:title="TriggerMap::GetMapSize">
<polygon fill="#ffffff" stroke="#000000" points="419,-1126 419,-1145 553,-1145 553,-1126 419,-1126"/>
<text text-anchor="middle" x="486" y="-1133" font-family="Helvetica,sans-Serif" font-size="10.00" fill="#000000">TriggerMap::GetMapSize</text>
</a>
</g>
</g>
<!-- Node555&#45;&gt;Node560 -->
<g id="edge6" class="edge">
<title>Node555&#45;&gt;Node560</title>
<path fill="none" stroke="#191970" d="M334.9389,-1069.0298C342.6335,-1071.4948 350.1944,-1074.5968 357,-1078.5 377.1809,-1090.0743 372.6618,-1105.2043 393,-1116.5 398.0761,-1119.3192 403.5165,-1121.7223 409.125,-1123.7704"/>
<polygon fill="#191970" stroke="#191970" points="408.095,-1127.1159 418.6875,-1126.8929 410.2679,-1120.4616 408.095,-1127.1159"/>
</g>
<!-- Node561 -->
<g id="node8" class="node">
<title>Node561</title>
<g id="a_node8"><a xlink:href="classTriggerMap.html#aca3f85b40f3aa29a280c2d7511b84217" target="_top" xlink:title="TriggerMap::GetMap">
<polygon fill="#ffffff" stroke="#000000" points="429.5,-1088 429.5,-1107 542.5,-1107 542.5,-1088 429.5,-1088"/>
<text text-anchor="middle" x="486" y="-1095" font-family="Helvetica,sans-Serif" font-size="10.00" fill="#000000">TriggerMap::GetMap</text>
</a>
</g>
</g>
<!-- Node555&#45;&gt;Node561 -->
<g id="edge7" class="edge">
<title>Node555&#45;&gt;Node561</title>
<path fill="none" stroke="#191970" d="M328.3463,-1069.04C357.1229,-1074.2348 392.9163,-1080.6963 423.121,-1086.1489"/>
<polygon fill="#191970" stroke="#191970" points="422.6692,-1089.6239 433.1319,-1087.9561 423.9128,-1082.7352 422.6692,-1089.6239"/>
</g>
<!-- Node562 -->
<g id="node9" class="node">
<title>Node562</title>
<g id="a_node9"><a xlink:href="classSaveable.html#adc2366ae4f62d203d464879f189e499d" target="_top" xlink:title="Saveable::GetSaveStatus">
<polygon fill="#ffffff" stroke="#000000" points="416,-746 416,-765 556,-765 556,-746 416,-746"/>
<text text-anchor="middle" x="486" y="-753" font-family="Helvetica,sans-Serif" font-size="10.00" fill="#000000">Saveable::GetSaveStatus</text>
</a>
</g>
</g>
<!-- Node555&#45;&gt;Node562 -->
<g id="edge8" class="edge">
<title>Node555&#45;&gt;Node562</title>
<path fill="none" stroke="#191970" d="M278.8906,-1049.7878C295.6359,-1002.0502 369.6394,-793.8054 393,-774.5 397.0252,-771.1735 401.4789,-768.3794 406.1932,-766.0369"/>
<polygon fill="#191970" stroke="#191970" points="407.7012,-769.199 415.5363,-762.0674 404.9639,-762.7564 407.7012,-769.199"/>
</g>
<!-- Node563 -->
<g id="node10" class="node">
<title>Node563</title>
<g id="a_node10"><a xlink:href="classEvent.html#aa67af0ae99b897e4f0ce42068c4e4c00" target="_top" xlink:title="Event::GetEventByType">
<polygon fill="#ffffff" stroke="#000000" points="420.5,-1050 420.5,-1069 551.5,-1069 551.5,-1050 420.5,-1050"/>
<text text-anchor="middle" x="486" y="-1057" font-family="Helvetica,sans-Serif" font-size="10.00" fill="#000000">Event::GetEventByType</text>
</a>
</g>
</g>
<!-- Node555&#45;&gt;Node563 -->
<g id="edge9" class="edge">
<title>Node555&#45;&gt;Node563</title>
<path fill="none" stroke="#191970" d="M356.5837,-1059.5C374.2043,-1059.5 392.7802,-1059.5 410.1877,-1059.5"/>
<polygon fill="#191970" stroke="#191970" points="410.286,-1063.0001 420.286,-1059.5 410.286,-1056.0001 410.286,-1063.0001"/>
</g>
<!-- Node564 -->
<g id="node11" class="node">
<title>Node564</title>
<g id="a_node11"><a xlink:href="classEventManager.html#a215075d1cc20ee7e2d55e9bb54ca516f" target="_top" xlink:title="EventManager::QueueEvent">
<polygon fill="#ffffff" stroke="#000000" points="410,-1012 410,-1031 562,-1031 562,-1012 410,-1012"/>
<text text-anchor="middle" x="486" y="-1019" font-family="Helvetica,sans-Serif" font-size="10.00" fill="#000000">EventManager::QueueEvent</text>
</a>
</g>
</g>
<!-- Node555&#45;&gt;Node564 -->
<g id="edge10" class="edge">
<title>Node555&#45;&gt;Node564</title>
<path fill="none" stroke="#191970" d="M328.3463,-1049.96C357.1229,-1044.7652 392.9163,-1038.3037 423.121,-1032.8511"/>
<polygon fill="#191970" stroke="#191970" points="423.9128,-1036.2648 433.1319,-1031.0439 422.6692,-1029.3761 423.9128,-1036.2648"/>
</g>
<!-- Node559 -->
<g id="node6" class="node">
<title>Node559</title>
<g id="a_node6"><a xlink:href="classPreallocated.html#aaf2139a79ca16de70acd9bc4564171b7" target="_top" xlink:title="Preallocated::RTDelete">
<polygon fill="#ffffff" stroke="#000000" points="624,-1107 624,-1126 752,-1126 752,-1107 624,-1107"/>
<text text-anchor="middle" x="688" y="-1114" font-family="Helvetica,sans-Serif" font-size="10.00" fill="#000000">Preallocated::RTDelete</text>
</a>
</g>
</g>
<!-- Node558&#45;&gt;Node559 -->
<g id="edge5" class="edge">
<title>Node558&#45;&gt;Node559</title>
<path fill="none" stroke="#191970" d="M556.2187,-993.0199C564.1622,-995.4898 571.9318,-998.5956 579,-1002.5 622.1217,-1026.3198 658.4669,-1072.9616 676.2636,-1098.5848"/>
<polygon fill="#191970" stroke="#191970" points="673.453,-1100.6765 681.9593,-1106.9928 679.2485,-1096.7506 673.453,-1100.6765"/>
</g>
<!-- Node568&#45;&gt;Node559 -->
<g id="edge16" class="edge">
<title>Node568&#45;&gt;Node559</title>
<path fill="none" stroke="#191970" d="M344.6794,-1259.0156C408.5704,-1264.6831 504.5565,-1265.1082 579,-1230.5 623.893,-1209.6296 659.7419,-1161.3782 676.9298,-1134.8303"/>
<polygon fill="#191970" stroke="#191970" points="680.0444,-1136.452 682.4001,-1126.1224 674.1169,-1132.7283 680.0444,-1136.452"/>
</g>
<!-- Node570 -->
<g id="node17" class="node">
<title>Node570</title>
<g id="a_node17"><a xlink:href="classFweelin.html#a681d7ca8d0789199af135f22c26a5409" target="_top" xlink:title="Fweelin::getCFG">
<polygon fill="#ffffff" stroke="#000000" points="831.5,-537 831.5,-556 926.5,-556 926.5,-537 831.5,-537"/>
<text text-anchor="middle" x="879" y="-544" font-family="Helvetica,sans-Serif" font-size="10.00" fill="#000000">Fweelin::getCFG</text>
</a>
</g>
</g>
<!-- Node569&#45;&gt;Node570 -->
<g id="edge18" class="edge">
<title>Node569&#45;&gt;Node570</title>
<path fill="none" stroke="#191970" d="M277.0638,-802.9708C283.5312,-766.9579 311.7749,-638.4724 393,-584.5 527.1526,-495.3583 730.4408,-517.7544 825.9286,-535.1157"/>
<polygon fill="#191970" stroke="#191970" points="825.4553,-538.5879 835.9286,-536.9878 826.7434,-531.7074 825.4553,-538.5879"/>
</g>
<!-- Node571 -->
<g id="node18" class="node">
<title>Node571</title>
<g id="a_node18"><a xlink:href="classFloConfig.html#a9acc5e0790ab29fe30856d58c5ffa0e8" target="_top" xlink:title="FloConfig::GetLibraryPath">
<polygon fill="#ffffff" stroke="#000000" points="809,-651 809,-670 949,-670 949,-651 809,-651"/>
<text text-anchor="middle" x="879" y="-658" font-family="Helvetica,sans-Serif" font-size="10.00" fill="#000000">FloConfig::GetLibraryPath</text>
</a>
</g>
</g>
<!-- Node569&#45;&gt;Node571 -->
<g id="edge19" class="edge">
<title>Node569&#45;&gt;Node571</title>
<path fill="none" stroke="#191970" d="M285.7712,-822.1697C304.9934,-839.5223 348.4962,-875.3617 393,-888.5 472.2839,-911.9061 501.2861,-916.6838 579,-888.5 678.0746,-852.5695 684.1848,-808.6539 761,-736.5 777.9569,-720.5721 778.1087,-712.0777 797,-698.5 810.7961,-688.5843 827.5918,-680.2583 842.3814,-673.9512"/>
<polygon fill="#191970" stroke="#191970" points="843.8371,-677.1371 851.7588,-670.1017 841.1788,-670.6615 843.8371,-677.1371"/>
</g>
<!-- Node572 -->
<g id="node19" class="node">
<title>Node572</title>
<g id="a_node19"><a xlink:href="classFweelin.html#a91b18ce962a309b483f19e75c5f5a040" target="_top" xlink:title="Fweelin::getSNAPS">
<polygon fill="#ffffff" stroke="#000000" points="432,-860 432,-879 540,-879 540,-860 432,-860"/>
<text text-anchor="middle" x="486" y="-867" font-family="Helvetica,sans-Serif" font-size="10.00" fill="#000000">Fweelin::getSNAPS</text>
</a>
</g>
</g>
<!-- Node569&#45;&gt;Node572 -->
<g id="edge20" class="edge">
<title>Node569&#45;&gt;Node572</title>
<path fill="none" stroke="#191970" d="M302.3158,-822.1152C325.9695,-830.3693 361.4835,-842.2118 393,-850.5 403.0244,-853.1362 413.737,-855.624 424.1945,-857.8771"/>
<polygon fill="#191970" stroke="#191970" points="423.6055,-861.3298 434.1118,-859.9626 425.0461,-854.4796 423.6055,-861.3298"/>
</g>
<!-- Node573 -->
<g id="node20" class="node">
<title>Node573</title>
<g id="a_node20"><a xlink:href="classFloConfig.html#a15b1ee51e84fb75465286ea8b7f3fe24" target="_top" xlink:title="FloConfig::GetMaxSnapshots">
<polygon fill="#ffffff" stroke="#000000" points="408.5,-822 408.5,-841 563.5,-841 563.5,-822 408.5,-822"/>
<text text-anchor="middle" x="486" y="-829" font-family="Helvetica,sans-Serif" font-size="10.00" fill="#000000">FloConfig::GetMaxSnapshots</text>
</a>
</g>
</g>
<!-- Node569&#45;&gt;Node573 -->
<g id="edge21" class="edge">
<title>Node569&#45;&gt;Node573</title>
<path fill="none" stroke="#191970" d="M332.187,-817.6166C352.462,-819.4467 375.8163,-821.5547 398.1031,-823.5663"/>
<polygon fill="#191970" stroke="#191970" points="397.9788,-827.0692 408.253,-824.4825 398.6081,-820.0976 397.9788,-827.0692"/>
</g>
<!-- Node574 -->
<g id="node21" class="node">
<title>Node574</title>
<g id="a_node21"><a xlink:href="classFweelin.html#a8c82599ae1dafbc94ce4741de86f12bd" target="_top" xlink:title="Fweelin::getBROWSER">
<polygon fill="#ffffff" stroke="#000000" points="423.5,-632 423.5,-651 548.5,-651 548.5,-632 423.5,-632"/>
<text text-anchor="middle" x="486" y="-639" font-family="Helvetica,sans-Serif" font-size="10.00" fill="#000000">Fweelin::getBROWSER</text>
</a>
</g>
</g>
<!-- Node569&#45;&gt;Node574 -->
<g id="edge22" class="edge">
<title>Node569&#45;&gt;Node574</title>
<path fill="none" stroke="#191970" d="M279.9442,-802.7382C292.958,-775.3451 333.8313,-697.3592 393,-660.5 399.2506,-656.6062 406.1528,-653.4928 413.2887,-651.0061"/>
<polygon fill="#191970" stroke="#191970" points="414.591,-654.2677 423.125,-647.9891 412.5382,-647.5754 414.591,-654.2677"/>
</g>
<!-- Node575 -->
<g id="node22" class="node">
<title>Node575</title>
<g id="a_node22"><a xlink:href="classFweelin.html#a5f9e0154dbb2ea46fb51beb0042cbcb6" target="_top" xlink:title="Fweelin::setCURSCENE">
<polygon fill="#ffffff" stroke="#000000" points="422,-784 422,-803 550,-803 550,-784 422,-784"/>
<text text-anchor="middle" x="486" y="-791" font-family="Helvetica,sans-Serif" font-size="10.00" fill="#000000">Fweelin::setCURSCENE</text>
</a>
</g>
</g>
<!-- Node569&#45;&gt;Node575 -->
<g id="edge23" class="edge">
<title>Node569&#45;&gt;Node575</title>
<path fill="none" stroke="#191970" d="M332.187,-807.3834C356.5898,-805.1807 385.4536,-802.5754 411.5478,-800.2202"/>
<polygon fill="#191970" stroke="#191970" points="412.1311,-803.6818 421.7759,-799.2969 411.5018,-796.7102 412.1311,-803.6818"/>
</g>
<!-- Node576 -->
<g id="node23" class="node">
<title>Node576</title>
<g id="a_node23"><a xlink:href="classFweelin.html#a7b1253ea49ee57244a0d8cca152d72e5" target="_top" xlink:title="Fweelin::getLOOPMGR">
<polygon fill="#ffffff" stroke="#000000" points="423.5,-936 423.5,-955 548.5,-955 548.5,-936 423.5,-936"/>
<text text-anchor="middle" x="486" y="-943" font-family="Helvetica,sans-Serif" font-size="10.00" fill="#000000">Fweelin::getLOOPMGR</text>
</a>
</g>
</g>
<!-- Node569&#45;&gt;Node576 -->
<g id="edge24" class="edge">
<title>Node569&#45;&gt;Node576</title>
<path fill="none" stroke="#191970" d="M282.8978,-822.0339C299.9198,-843.2944 344.1683,-894.8091 393,-921.5 401.4704,-926.1298 410.8657,-929.893 420.3343,-932.9448"/>
<polygon fill="#191970" stroke="#191970" points="419.6098,-936.3807 430.1925,-935.874 421.6037,-929.6706 419.6098,-936.3807"/>
</g>
<!-- Node577 -->
<g id="node24" class="node">
<title>Node577</title>
<g id="a_node24"><a xlink:href="classLoopManager.html#a0c2604681ae7de5415cef3f2690e4a0c" target="_top" xlink:title="LoopManager::AddSceneToBrowser">
<polygon fill="#ffffff" stroke="#000000" points="393,-670 393,-689 579,-689 579,-670 393,-670"/>
<text text-anchor="middle" x="486" y="-677" font-family="Helvetica,sans-Serif" font-size="10.00" fill="#000000">LoopManager::AddSceneToBrowser</text>
</a>
</g>
</g>
<!-- Node569&#45;&gt;Node577 -->
<g id="edge25" class="edge">
<title>Node569&#45;&gt;Node577</title>
<path fill="none" stroke="#191970" d="M282.445,-802.6695C298.8583,-780.2416 342.4832,-725.1799 393,-698.5 397.326,-696.2153 401.8994,-694.2049 406.6046,-692.436"/>
<polygon fill="#191970" stroke="#191970" points="408.0506,-695.6423 416.4106,-689.1338 405.8166,-689.0083 408.0506,-695.6423"/>
</g>
<!-- Node583 -->
<g id="node30" class="node">
<title>Node583</title>
<g id="a_node30"><a xlink:href="classBrowser.html#aa33b6a26b512beffbe68bbcd2153c123" target="_top" xlink:title="Browser::AddDivisions">
<polygon fill="#ffffff" stroke="#000000" points="423,-708 423,-727 549,-727 549,-708 423,-708"/>
<text text-anchor="middle" x="486" y="-715" font-family="Helvetica,sans-Serif" font-size="10.00" fill="#000000">Browser::AddDivisions</text>
</a>
</g>
</g>
<!-- Node569&#45;&gt;Node583 -->
<g id="edge33" class="edge">
<title>Node569&#45;&gt;Node583</title>
<path fill="none" stroke="#191970" d="M287.0172,-802.918C307.1693,-786.6635 350.7183,-753.7728 393,-736.5 399.3549,-733.9039 406.104,-731.6496 412.9509,-729.6946"/>
<polygon fill="#191970" stroke="#191970" points="414.241,-732.9742 423.0178,-727.0396 412.4558,-726.2056 414.241,-732.9742"/>
</g>
<!-- Node578 -->
<g id="node25" class="node">
<title>Node578</title>
<g id="a_node25"><a xlink:href="classBrowser.html#a614d2a2fddedf26b70ffba07b73a0678" target="_top" xlink:title="Browser::GetDisplayName">
<polygon fill="#ffffff" stroke="#000000" points="615,-594 615,-613 761,-613 761,-594 615,-594"/>
<text text-anchor="middle" x="688" y="-601" font-family="Helvetica,sans-Serif" font-size="10.00" fill="#000000">Browser::GetDisplayName</text>
</a>
</g>
</g>
<!-- Node577&#45;&gt;Node578 -->
<g id="edge26" class="edge">
<title>Node577&#45;&gt;Node578</title>
<path fill="none" stroke="#191970" d="M545.2239,-669.9957C556.5921,-667.4464 568.2866,-664.31 579,-660.5 609.8471,-649.53 642.8402,-631.2561 664.3455,-618.361"/>
<polygon fill="#191970" stroke="#191970" points="666.3752,-621.2229 673.0938,-613.0307 662.733,-615.2451 666.3752,-621.2229"/>
</g>
<!-- Node581 -->
<g id="node28" class="node">
<title>Node581</title>
<g id="a_node28"><a xlink:href="classBrowser.html#ade418b60a9e0e49826acb66811ac8af0" target="_top" xlink:title="Browser::AddItem">
<polygon fill="#ffffff" stroke="#000000" points="636,-670 636,-689 740,-689 740,-670 636,-670"/>
<text text-anchor="middle" x="688" y="-677" font-family="Helvetica,sans-Serif" font-size="10.00" fill="#000000">Browser::AddItem</text>
</a>
</g>
</g>
<!-- Node577&#45;&gt;Node581 -->
<g id="edge31" class="edge">
<title>Node577&#45;&gt;Node581</title>
<path fill="none" stroke="#191970" d="M579.0181,-679.5C594.9188,-679.5 611.085,-679.5 625.9271,-679.5"/>
<polygon fill="#191970" stroke="#191970" points="625.9713,-683.0001 635.9713,-679.5 625.9712,-676.0001 625.9713,-683.0001"/>
</g>
<!-- Node578&#45;&gt;Node570 -->
<g id="edge27" class="edge">
<title>Node578&#45;&gt;Node570</title>
<path fill="none" stroke="#191970" d="M718.3126,-593.9337C731.4848,-589.6738 747.0604,-584.4979 761,-579.5 777.16,-573.706 780.5959,-570.5616 797,-565.5 805.3193,-562.933 814.2076,-560.5318 822.9495,-558.3581"/>
<polygon fill="#191970" stroke="#191970" points="823.8172,-561.7493 832.719,-556.0041 822.1774,-554.9441 823.8172,-561.7493"/>
</g>
<!-- Node578&#45;&gt;Node571 -->
<g id="edge28" class="edge">
<title>Node578&#45;&gt;Node571</title>
<path fill="none" stroke="#191970" d="M718.3126,-613.0663C731.4848,-617.3262 747.0604,-622.5021 761,-627.5 777.16,-633.294 780.5959,-636.4384 797,-641.5 805.3193,-644.067 814.2076,-646.4682 822.9495,-648.6419"/>
<polygon fill="#191970" stroke="#191970" points="822.1774,-652.0559 832.719,-650.9959 823.8172,-645.2507 822.1774,-652.0559"/>
</g>
<!-- Node579 -->
<g id="node26" class="node">
<title>Node579</title>
<g id="a_node26"><a xlink:href="classSaveable.html#a4e8b7b5e6fe537a5c68c35927741a6e3" target="_top" xlink:title="Saveable::SplitFilename">
<polygon fill="#ffffff" stroke="#000000" points="812,-575 812,-594 946,-594 946,-575 812,-575"/>
<text text-anchor="middle" x="879" y="-582" font-family="Helvetica,sans-Serif" font-size="10.00" fill="#000000">Saveable::SplitFilename</text>
</a>
</g>
</g>
<!-- Node578&#45;&gt;Node579 -->
<g id="edge29" class="edge">
<title>Node578&#45;&gt;Node579</title>
<path fill="none" stroke="#191970" d="M761.0265,-596.2356C774.3699,-594.9082 788.3339,-593.5191 801.7942,-592.1802"/>
<polygon fill="#191970" stroke="#191970" points="802.3661,-595.6406 811.9705,-591.1679 801.6732,-588.675 802.3661,-595.6406"/>
</g>
<!-- Node580 -->
<g id="node27" class="node">
<title>Node580</title>
<g id="a_node27"><a xlink:href="classSaveable.html#afd744adf4ac3fbee68114daa3c513326" target="_top" xlink:title="Saveable::GetHashFirst">
<polygon fill="#ffffff" stroke="#000000" points="814,-613 814,-632 944,-632 944,-613 814,-613"/>
<text text-anchor="middle" x="879" y="-620" font-family="Helvetica,sans-Serif" font-size="10.00" fill="#000000">Saveable::GetHashFirst</text>
</a>
</g>
</g>
<!-- Node578&#45;&gt;Node580 -->
<g id="edge30" class="edge">
<title>Node578&#45;&gt;Node580</title>
<path fill="none" stroke="#191970" d="M761.0265,-610.7644C775.0092,-612.1554 789.6734,-613.6141 803.7252,-615.0119"/>
<polygon fill="#191970" stroke="#191970" points="803.5331,-618.51 813.8305,-616.0172 804.2261,-611.5444 803.5331,-618.51"/>
</g>
<!-- Node582 -->
<g id="node29" class="node">
<title>Node582</title>
<g id="a_node29"><a xlink:href="classBrowserItem.html#ae46a902950af8f0613490012a75c8194" target="_top" xlink:title="BrowserItem::Compare">
<polygon fill="#ffffff" stroke="#000000" points="814.5,-708 814.5,-727 943.5,-727 943.5,-708 814.5,-708"/>
<text text-anchor="middle" x="879" y="-715" font-family="Helvetica,sans-Serif" font-size="10.00" fill="#000000">BrowserItem::Compare</text>
</a>
</g>
</g>
<!-- Node581&#45;&gt;Node582 -->
<g id="edge32" class="edge">
<title>Node581&#45;&gt;Node582</title>
<path fill="none" stroke="#191970" d="M736.1974,-689.089C761.9696,-694.2165 793.8906,-700.5672 821.0124,-705.9632"/>
<polygon fill="#191970" stroke="#191970" points="820.6585,-709.4613 831.1492,-707.9799 822.0244,-702.5959 820.6585,-709.4613"/>
</g>
<!-- Node583&#45;&gt;Node582 -->
<g id="edge34" class="edge">
<title>Node583&#45;&gt;Node582</title>
<path fill="none" stroke="#191970" d="M538.5286,-727.0139C561.8616,-730.7796 589.7138,-734.6478 615,-736.5 679.7155,-741.2403 696.3177,-741.6741 761,-736.5 780.6368,-734.9292 801.9375,-731.9104 820.9673,-728.7336"/>
<polygon fill="#191970" stroke="#191970" points="821.7216,-732.1554 830.9847,-727.013 820.5365,-725.2564 821.7216,-732.1554"/>
</g>
<!-- Node584 -->
<g id="node31" class="node">
<title>Node584</title>
<g id="a_node31"><a xlink:href="classBrowserItem.html#a4ebfa0b72dd5eec1c43ed1b65287ae47" target="_top" xlink:title="BrowserItem::GetType">
<polygon fill="#ffffff" stroke="#000000" points="625.5,-708 625.5,-727 750.5,-727 750.5,-708 625.5,-708"/>
<text text-anchor="middle" x="688" y="-715" font-family="Helvetica,sans-Serif" font-size="10.00" fill="#000000">BrowserItem::GetType</text>
</a>
</g>
</g>
<!-- Node583&#45;&gt;Node584 -->
<g id="edge35" class="edge">
<title>Node583&#45;&gt;Node584</title>
<path fill="none" stroke="#191970" d="M549.0832,-717.5C570.0692,-717.5 593.6101,-717.5 615.2656,-717.5"/>
<polygon fill="#191970" stroke="#191970" points="615.395,-721.0001 625.3949,-717.5 615.3949,-714.0001 615.395,-721.0001"/>
</g>
<!-- Node585&#45;&gt;Node562 -->
<g id="edge37" class="edge">
<title>Node585&#45;&gt;Node562</title>
<path fill="none" stroke="#191970" d="M277.2668,-385.0226C287.1034,-437.031 336.7051,-686.2395 393,-736.5 396.9702,-740.0446 401.4189,-742.9973 406.1621,-745.4509"/>
<polygon fill="#191970" stroke="#191970" points="405.0338,-748.7775 415.5983,-749.5788 407.8393,-742.3643 405.0338,-748.7775"/>
</g>
<!-- Node585&#45;&gt;Node570 -->
<g id="edge51" class="edge">
<title>Node585&#45;&gt;Node570</title>
<path fill="none" stroke="#191970" d="M289.9021,-365.828C311.2934,-352.1058 353.2251,-327.6383 393,-318.5 473.5676,-299.9896 500.6592,-292.1089 579,-318.5 707.1306,-361.6641 823.9112,-483.7426 864.1527,-529.1792"/>
<polygon fill="#191970" stroke="#191970" points="861.7451,-531.7429 870.9621,-536.9675 867.0149,-527.1354 861.7451,-531.7429"/>
</g>
<!-- Node585&#45;&gt;Node571 -->
<g id="edge52" class="edge">
<title>Node585&#45;&gt;Node571</title>
<path fill="none" stroke="#191970" d="M281.7315,-385.2284C297.5682,-409.2584 341.7554,-472.1054 393,-508.5 465.8074,-560.2088 505.3045,-534.065 579,-584.5 598.1989,-597.6392 594.3398,-611.8047 615,-622.5 671.6931,-651.8486 743.8889,-660.6075 798.4478,-662.4415"/>
<polygon fill="#191970" stroke="#191970" points="798.6792,-665.9488 808.768,-662.7135 798.8637,-658.9512 798.6792,-665.9488"/>
</g>
<!-- Node585&#45;&gt;Node574 -->
<g id="edge55" class="edge">
<title>Node585&#45;&gt;Node574</title>
<path fill="none" stroke="#191970" d="M276.9791,-385.2134C283.2123,-422.5916 310.9222,-558.2516 393,-622.5 399.2044,-627.3566 406.3353,-631.0619 413.8301,-633.8765"/>
<polygon fill="#191970" stroke="#191970" points="412.8844,-637.2489 423.4759,-636.9849 415.0315,-630.5863 412.8844,-637.2489"/>
</g>
<!-- Node585&#45;&gt;Node583 -->
<g id="edge59" class="edge">
<title>Node585&#45;&gt;Node583</title>
<path fill="none" stroke="#191970" d="M275.8043,-385.2867C277.735,-429.378 291.7836,-611.1995 393,-698.5 398.9665,-703.6462 405.9483,-707.5328 413.3581,-710.4509"/>
<polygon fill="#191970" stroke="#191970" points="412.3346,-713.7991 422.9284,-713.6511 414.5545,-707.1604 412.3346,-713.7991"/>
</g>
<!-- Node586 -->
<g id="node33" class="node">
<title>Node586</title>
<g id="a_node33"><a xlink:href="classPulse.html#ac23f657cca68747e251b1b927a11ba0f" target="_top" xlink:title="Pulse::QuantizeLength">
<polygon fill="#ffffff" stroke="#000000" points="423.5,-252 423.5,-271 548.5,-271 548.5,-252 423.5,-252"/>
<text text-anchor="middle" x="486" y="-259" font-family="Helvetica,sans-Serif" font-size="10.00" fill="#000000">Pulse::QuantizeLength</text>
</a>
</g>
</g>
<!-- Node585&#45;&gt;Node586 -->
<g id="edge38" class="edge">
<title>Node585&#45;&gt;Node586</title>
<path fill="none" stroke="#191970" d="M285.2446,-365.7752C304.27,-347.3388 348.4113,-307.2093 393,-285.5 402.7567,-280.7497 413.5628,-276.8636 424.2543,-273.7093"/>
<polygon fill="#191970" stroke="#191970" points="425.3008,-277.0514 434.0075,-271.0144 423.4365,-270.3042 425.3008,-277.0514"/>
</g>
<!-- Node588 -->
<g id="node35" class="node">
<title>Node588</title>
<g id="a_node35"><a xlink:href="classAudioBlock.html#a380880c91c3af2322d232ce2de83b881" target="_top" xlink:title="AudioBlock::GetTotalLen">
<polygon fill="#ffffff" stroke="#000000" points="418.5,-214 418.5,-233 553.5,-233 553.5,-214 418.5,-214"/>
<text text-anchor="middle" x="486" y="-221" font-family="Helvetica,sans-Serif" font-size="10.00" fill="#000000">AudioBlock::GetTotalLen</text>
</a>
</g>
</g>
<!-- Node585&#45;&gt;Node588 -->
<g id="edge40" class="edge">
<title>Node585&#45;&gt;Node588</title>
<path fill="none" stroke="#191970" d="M280.9083,-365.8978C295.4544,-341.0332 338.0578,-274.2768 393,-242.5 397.8145,-239.7154 402.976,-237.3349 408.3093,-235.3001"/>
<polygon fill="#191970" stroke="#191970" points="409.7082,-238.5217 418.0568,-231.9986 407.4625,-231.8917 409.7082,-238.5217"/>
</g>
<!-- Node589 -->
<g id="node36" class="node">
<title>Node589</title>
<g id="a_node36"><a xlink:href="fweelin__event_8h.html#a0bb68d7f77df8d1848af0e9fc6716197" target="_top" xlink:title="mygettime">
<polygon fill="#ffffff" stroke="#000000" points="450.5,-176 450.5,-195 521.5,-195 521.5,-176 450.5,-176"/>
<text text-anchor="middle" x="486" y="-183" font-family="Helvetica,sans-Serif" font-size="10.00" fill="#000000">mygettime</text>
</a>
</g>
</g>
<!-- Node585&#45;&gt;Node589 -->
<g id="edge41" class="edge">
<title>Node585&#45;&gt;Node589</title>
<path fill="none" stroke="#191970" d="M279.0784,-365.8198C290.5367,-336.2686 329.3408,-246.677 393,-204.5 406.8612,-195.3164 424.2428,-190.4204 440.2166,-187.8589"/>
<polygon fill="#191970" stroke="#191970" points="441.0105,-191.284 450.4593,-186.4911 440.0839,-184.3456 441.0105,-191.284"/>
</g>
<!-- Node590 -->
<g id="node37" class="node">
<title>Node590</title>
<g id="a_node37"><a xlink:href="classAudioBlock.html#a5d7b94e41f0f024f767cb5e2d219b3ea" target="_top" xlink:title="AudioBlock::IsStereo">
<polygon fill="#ffffff" stroke="#000000" points="427.5,-138 427.5,-157 544.5,-157 544.5,-138 427.5,-138"/>
<text text-anchor="middle" x="486" y="-145" font-family="Helvetica,sans-Serif" font-size="10.00" fill="#000000">AudioBlock::IsStereo</text>
</a>
</g>
</g>
<!-- Node585&#45;&gt;Node590 -->
<g id="edge42" class="edge">
<title>Node585&#45;&gt;Node590</title>
<path fill="none" stroke="#191970" d="M277.8887,-365.6671C286.6479,-331.8453 320.353,-219.477 393,-166.5 400.3336,-161.152 408.8165,-157.2258 417.6146,-154.3571"/>
<polygon fill="#191970" stroke="#191970" points="418.5706,-157.7241 427.2458,-151.642 416.6713,-150.9866 418.5706,-157.7241"/>
</g>
<!-- Node591 -->
<g id="node38" class="node">
<title>Node591</title>
<g id="a_node38"><a xlink:href="classAudioBlockIterator.html#afdaa1beeae81dbfb277fae51bee42ca0" target="_top" xlink:title="AudioBlockIterator\l::GetTotalLength2Cur">
<polygon fill="#ffffff" stroke="#000000" points="426.5,-88.5 426.5,-118.5 545.5,-118.5 545.5,-88.5 426.5,-88.5"/>
<text text-anchor="start" x="434.5" y="-106.5" font-family="Helvetica,sans-Serif" font-size="10.00" fill="#000000">AudioBlockIterator</text>
<text text-anchor="middle" x="486" y="-95.5" font-family="Helvetica,sans-Serif" font-size="10.00" fill="#000000">::GetTotalLength2Cur</text>
</a>
</g>
</g>
<!-- Node585&#45;&gt;Node591 -->
<g id="edge43" class="edge">
<title>Node585&#45;&gt;Node591</title>
<path fill="none" stroke="#191970" d="M277.1011,-365.9376C283.7826,-329.1145 312.9224,-195.2247 393,-128.5 399.9801,-122.6838 408.1877,-118.2103 416.7869,-114.7717"/>
<polygon fill="#191970" stroke="#191970" points="417.971,-118.0654 426.2322,-111.4319 415.6374,-111.4658 417.971,-118.0654"/>
</g>
<!-- Node592 -->
<g id="node39" class="node">
<title>Node592</title>
<g id="a_node39"><a xlink:href="classAudioBlockIterator.html#a86cfc4c09c380d6304ed3aa6ff2ea17b" target="_top" xlink:title="AudioBlockIterator\l::GetFragment">
<polygon fill="#ffffff" stroke="#000000" points="634.5,-22.5 634.5,-52.5 741.5,-52.5 741.5,-22.5 634.5,-22.5"/>
<text text-anchor="start" x="642.5" y="-40.5" font-family="Helvetica,sans-Serif" font-size="10.00" fill="#000000">AudioBlockIterator</text>
<text text-anchor="middle" x="688" y="-29.5" font-family="Helvetica,sans-Serif" font-size="10.00" fill="#000000">::GetFragment</text>
</a>
</g>
</g>
<!-- Node585&#45;&gt;Node592 -->
<g id="edge44" class="edge">
<title>Node585&#45;&gt;Node592</title>
<path fill="none" stroke="#191970" d="M276.0256,-365.8155C278.8692,-323.7749 296.1415,-155.7911 393,-79.5 427.8353,-52.0618 548.3106,-42.5375 624.1019,-39.2391"/>
<polygon fill="#191970" stroke="#191970" points="624.6379,-42.7202 634.4862,-38.8138 624.3513,-35.726 624.6379,-42.7202"/>
</g>
<!-- Node595 -->
<g id="node42" class="node">
<title>Node595</title>
<g id="a_node42"><a xlink:href="classAudioBlockIterator.html#ae0521dee0479a9203bed6515bfc89568" target="_top" xlink:title="AudioBlockIterator\l::NextFragment">
<polygon fill="#ffffff" stroke="#000000" points="432.5,-.5 432.5,-30.5 539.5,-30.5 539.5,-.5 432.5,-.5"/>
<text text-anchor="start" x="440.5" y="-18.5" font-family="Helvetica,sans-Serif" font-size="10.00" fill="#000000">AudioBlockIterator</text>
<text text-anchor="middle" x="486" y="-7.5" font-family="Helvetica,sans-Serif" font-size="10.00" fill="#000000">::NextFragment</text>
</a>
</g>
</g>
<!-- Node585&#45;&gt;Node595 -->
<g id="edge47" class="edge">
<title>Node585&#45;&gt;Node595</title>
<path fill="none" stroke="#191970" d="M275.9663,-365.7673C278.5988,-321.8736 295.2389,-140.3693 393,-45.5 401.2865,-37.4586 411.7406,-31.5725 422.6239,-27.2641"/>
<polygon fill="#191970" stroke="#191970" points="423.9871,-30.4948 432.2549,-23.8696 421.6601,-23.8929 423.9871,-30.4948"/>
</g>
<!-- Node596 -->
<g id="node43" class="node">
<title>Node596</title>
<g id="a_node43"><a xlink:href="classSaveable.html#aa0fb624a251c8ec60d9e410aa1ffe2dd" target="_top" xlink:title="Saveable::GetSaveHash">
<polygon fill="#ffffff" stroke="#000000" points="419,-480 419,-499 553,-499 553,-480 419,-480"/>
<text text-anchor="middle" x="486" y="-487" font-family="Helvetica,sans-Serif" font-size="10.00" fill="#000000">Saveable::GetSaveHash</text>
</a>
</g>
</g>
<!-- Node585&#45;&gt;Node596 -->
<g id="edge49" class="edge">
<title>Node585&#45;&gt;Node596</title>
<path fill="none" stroke="#191970" d="M284.1744,-385.0948C302.3254,-404.5314 346.497,-448.5665 393,-470.5 398.2516,-472.9769 403.8193,-475.132 409.5166,-477.0068"/>
<polygon fill="#191970" stroke="#191970" points="408.6104,-480.389 419.1942,-479.9048 410.6186,-473.6832 408.6104,-480.389"/>
</g>
<!-- Node597 -->
<g id="node44" class="node">
<title>Node597</title>
<g id="a_node44"><a xlink:href="classSaveable.html#a60561f2bd64b6e0044bae84729d3a01a" target="_top" xlink:title="Saveable::SetSaveStatus">
<polygon fill="#ffffff" stroke="#000000" points="417,-442 417,-461 555,-461 555,-442 417,-442"/>
<text text-anchor="middle" x="486" y="-449" font-family="Helvetica,sans-Serif" font-size="10.00" fill="#000000">Saveable::SetSaveStatus</text>
</a>
</g>
</g>
<!-- Node585&#45;&gt;Node597 -->
<g id="edge50" class="edge">
<title>Node585&#45;&gt;Node597</title>
<path fill="none" stroke="#191970" d="M292.0591,-385.1851C314.311,-397.8086 355.4198,-419.7707 393,-432.5 400.9651,-435.198 409.4502,-437.5753 417.9314,-439.6526"/>
<polygon fill="#191970" stroke="#191970" points="417.3222,-443.1042 427.8545,-441.9547 418.9042,-436.2853 417.3222,-443.1042"/>
</g>
<!-- Node598 -->
<g id="node45" class="node">
<title>Node598</title>
<g id="a_node45"><a xlink:href="classFloConfig.html#a093cc61cbfbab35ca8ab89dc113922dc" target="_top" xlink:title="FloConfig::GetAudioFileExt">
<polygon fill="#ffffff" stroke="#000000" points="413.5,-404 413.5,-423 558.5,-423 558.5,-404 413.5,-404"/>
<text text-anchor="middle" x="486" y="-411" font-family="Helvetica,sans-Serif" font-size="10.00" fill="#000000">FloConfig::GetAudioFileExt</text>
</a>
</g>
</g>
<!-- Node585&#45;&gt;Node598 -->
<g id="edge53" class="edge">
<title>Node585&#45;&gt;Node598</title>
<path fill="none" stroke="#191970" d="M328.3463,-385.04C357.1229,-390.2348 392.9163,-396.6963 423.121,-402.1489"/>
<polygon fill="#191970" stroke="#191970" points="422.6692,-405.6239 433.1319,-403.9561 423.9128,-398.7352 422.6692,-405.6239"/>
</g>
<!-- Node599 -->
<g id="node46" class="node">
<title>Node599</title>
<g id="a_node46"><a xlink:href="classFloConfig.html#a0b52185644573f2b0bae10f391ec69fd" target="_top" xlink:title="FloConfig::GetLoopOutFormat">
<polygon fill="#ffffff" stroke="#000000" points="406,-366 406,-385 566,-385 566,-366 406,-366"/>
<text text-anchor="middle" x="486" y="-373" font-family="Helvetica,sans-Serif" font-size="10.00" fill="#000000">FloConfig::GetLoopOutFormat</text>
</a>
</g>
</g>
<!-- Node585&#45;&gt;Node599 -->
<g id="edge54" class="edge">
<title>Node585&#45;&gt;Node599</title>
<path fill="none" stroke="#191970" d="M357.1861,-375.5C369.7702,-375.5 382.8281,-375.5 395.5889,-375.5"/>
<polygon fill="#191970" stroke="#191970" points="395.7446,-379.0001 405.7445,-375.5 395.7445,-372.0001 395.7446,-379.0001"/>
</g>
<!-- Node600 -->
<g id="node47" class="node">
<title>Node600</title>
<g id="a_node47"><a xlink:href="classLoopManager.html#a175985d1a7e21f019251ff996217cbb0" target="_top" xlink:title="LoopManager::AddLoopToBrowser">
<polygon fill="#ffffff" stroke="#000000" points="396,-594 396,-613 576,-613 576,-594 396,-594"/>
<text text-anchor="middle" x="486" y="-601" font-family="Helvetica,sans-Serif" font-size="10.00" fill="#000000">LoopManager::AddLoopToBrowser</text>
</a>
</g>
</g>
<!-- Node585&#45;&gt;Node600 -->
<g id="edge56" class="edge">
<title>Node585&#45;&gt;Node600</title>
<path fill="none" stroke="#191970" d="M280.5776,-385.0291C295.2579,-411.9674 340.0948,-490.0537 393,-541.5 412.6961,-560.6529 439.051,-577.5841 458.6755,-588.8929"/>
<polygon fill="#191970" stroke="#191970" points="457.0091,-591.9713 467.4398,-593.8294 460.4444,-585.8722 457.0091,-591.9713"/>
</g>
<!-- Node601 -->
<g id="node48" class="node">
<title>Node601</title>
<g id="a_node48"><a xlink:href="classPulse.html#ae4c83e1199ea7a74791c9d0fe80a54f5" target="_top" xlink:title="Pulse::GetLength">
<polygon fill="#ffffff" stroke="#000000" points="436.5,-328 436.5,-347 535.5,-347 535.5,-328 436.5,-328"/>
<text text-anchor="middle" x="486" y="-335" font-family="Helvetica,sans-Serif" font-size="10.00" fill="#000000">Pulse::GetLength</text>
</a>
</g>
</g>
<!-- Node585&#45;&gt;Node601 -->
<g id="edge60" class="edge">
<title>Node585&#45;&gt;Node601</title>
<path fill="none" stroke="#191970" d="M328.3463,-365.96C358.1077,-360.5875 395.3743,-353.86 426.2018,-348.2949"/>
<polygon fill="#191970" stroke="#191970" points="427.1702,-351.6768 436.3893,-346.4558 425.9266,-344.7881 427.1702,-351.6768"/>
</g>
<!-- Node587 -->
<g id="node34" class="node">
<title>Node587</title>
<g id="a_node34"><a xlink:href="classPulse.html#a7df09d55ecd7193d5491170e6888350a" target="_top" xlink:title="Pulse::round">
<polygon fill="#ffffff" stroke="#000000" points="649.5,-252 649.5,-271 726.5,-271 726.5,-252 649.5,-252"/>
<text text-anchor="middle" x="688" y="-259" font-family="Helvetica,sans-Serif" font-size="10.00" fill="#000000">Pulse::round</text>
</a>
</g>
</g>
<!-- Node586&#45;&gt;Node587 -->
<g id="edge39" class="edge">
<title>Node586&#45;&gt;Node587</title>
<path fill="none" stroke="#191970" d="M548.5307,-261.5C577.71,-261.5 611.9256,-261.5 639.1644,-261.5"/>
<polygon fill="#191970" stroke="#191970" points="639.2373,-265.0001 649.2373,-261.5 639.2372,-258.0001 639.2373,-265.0001"/>
</g>
<!-- Node593 -->
<g id="node40" class="node">
<title>Node593</title>
<g id="a_node40"><a xlink:href="classAudioBlock.html#ae7aec1591ed6f228799c11b650b2cc1b" target="_top" xlink:title="AudioBlock::GetExtendedData">
<polygon fill="#ffffff" stroke="#000000" points="797,-28 797,-47 961,-47 961,-28 797,-28"/>
<text text-anchor="middle" x="879" y="-35" font-family="Helvetica,sans-Serif" font-size="10.00" fill="#000000">AudioBlock::GetExtendedData</text>
</a>
</g>
</g>
<!-- Node592&#45;&gt;Node593 -->
<g id="edge45" class="edge">
<title>Node592&#45;&gt;Node593</title>
<path fill="none" stroke="#191970" d="M741.7124,-37.5C755.7417,-37.5 771.2697,-37.5 786.6869,-37.5"/>
<polygon fill="#191970" stroke="#191970" points="786.7853,-41.0001 796.7853,-37.5 786.7852,-34.0001 786.7853,-41.0001"/>
</g>
<!-- Node594 -->
<g id="node41" class="node">
<title>Node594</title>
<g id="a_node41"><a xlink:href="classBlockExtendedData.html#ae33e9550384a32abf2a91386334a2be9" target="_top" xlink:title="BlockExtendedData::\lGetType">
<polygon fill="#ffffff" stroke="#000000" points="997,-22.5 997,-52.5 1116,-52.5 1116,-22.5 997,-22.5"/>
<text text-anchor="start" x="1005" y="-40.5" font-family="Helvetica,sans-Serif" font-size="10.00" fill="#000000">BlockExtendedData::</text>
<text text-anchor="middle" x="1056.5" y="-29.5" font-family="Helvetica,sans-Serif" font-size="10.00" fill="#000000">GetType</text>
</a>
</g>
</g>
<!-- Node593&#45;&gt;Node594 -->
<g id="edge46" class="edge">
<title>Node593&#45;&gt;Node594</title>
<path fill="none" stroke="#191970" d="M961.2549,-37.5C969.7652,-37.5 978.3555,-37.5 986.7106,-37.5"/>
<polygon fill="#191970" stroke="#191970" points="986.7642,-41.0001 996.7642,-37.5 986.7641,-34.0001 986.7642,-41.0001"/>
</g>
<!-- Node595&#45;&gt;Node592 -->
<g id="edge48" class="edge">
<title>Node595&#45;&gt;Node592</title>
<path fill="none" stroke="#191970" d="M539.602,-21.3378C565.6159,-24.171 597.0553,-27.5951 624.2874,-30.561"/>
<polygon fill="#191970" stroke="#191970" points="624.1782,-34.0697 634.4983,-31.6731 624.9361,-27.1109 624.1782,-34.0697"/>
</g>
<!-- Node600&#45;&gt;Node578 -->
<g id="edge57" class="edge">
<title>Node600&#45;&gt;Node578</title>
<path fill="none" stroke="#191970" d="M576.0708,-603.5C585.5741,-603.5 595.2079,-603.5 604.6305,-603.5"/>
<polygon fill="#191970" stroke="#191970" points="604.756,-607.0001 614.756,-603.5 604.7559,-600.0001 604.756,-607.0001"/>
</g>
<!-- Node600&#45;&gt;Node581 -->
<g id="edge58" class="edge">
<title>Node600&#45;&gt;Node581</title>
<path fill="none" stroke="#191970" d="M554.5057,-613.0482C562.9972,-615.5097 571.3667,-618.6058 579,-622.5 598.3345,-632.3635 596.2704,-644.5313 615,-655.5 622.4469,-659.8612 630.7914,-663.5507 639.1044,-666.6296"/>
<polygon fill="#191970" stroke="#191970" points="638.1983,-670.0193 648.793,-669.9671 640.4782,-663.401 638.1983,-670.0193"/>
</g>
</g>
</svg>
