<?xml version="1.0" encoding="UTF-8" standalone="no"?>
<!DOCTYPE svg PUBLIC "-//W3C//DTD SVG 1.1//EN"
 "http://www.w3.org/Graphics/SVG/1.1/DTD/svg11.dtd">
<!-- Generated by graphviz version 2.40.1 (20161225.0304)
 -->
<!-- Title: LoopManager::UnlockLoops Pages: 1 -->
<svg width="726pt" height="154pt"
 viewBox="0.00 0.00 726.00 153.50" xmlns="http://www.w3.org/2000/svg" xmlns:xlink="http://www.w3.org/1999/xlink">
<g id="graph0" class="graph" transform="scale(1 1) rotate(0) translate(4 149.5)">
<title>LoopManager::UnlockLoops</title>
<polygon fill="#ffffff" stroke="transparent" points="-4,4 -4,-149.5 722,-149.5 722,4 -4,4"/>
<!-- Node1225 -->
<g id="node1" class="node">
<title>Node1225</title>
<polygon fill="#bfbfbf" stroke="#000000" points="0,-48 0,-67 150,-67 150,-48 0,-48"/>
<text text-anchor="middle" x="75" y="-55" font-family="Helvetica,sans-Serif" font-size="10.00" fill="#000000">LoopManager::UnlockLoops</text>
</g>
<!-- Node1226 -->
<g id="node2" class="node">
<title>Node1226</title>
<g id="a_node2"><a xlink:href="classLoopManager.html#a332a9868980750f28fbf0e05b2336174" target="_top" xlink:title="LoopManager::DeleteLoop">
<polygon fill="#ffffff" stroke="#000000" points="188,-87 188,-106 331,-106 331,-87 188,-87"/>
<text text-anchor="middle" x="259.5" y="-94" font-family="Helvetica,sans-Serif" font-size="10.00" fill="#000000">LoopManager::DeleteLoop</text>
</a>
</g>
</g>
<!-- Node1225&#45;&gt;Node1226 -->
<g id="edge1" class="edge">
<title>Node1225&#45;&gt;Node1226</title>
<path fill="none" stroke="#191970" d="M130.1823,-69.1646C157.1097,-74.8565 189.0915,-81.6169 214.5128,-86.9905"/>
<polygon fill="#191970" stroke="#191970" points="130.6415,-65.6843 120.1338,-67.0405 129.1937,-72.533 130.6415,-65.6843"/>
</g>
<!-- Node1230 -->
<g id="node6" class="node">
<title>Node1230</title>
<g id="a_node6"><a xlink:href="classVideoIO.html#adca60a99be6e51d8af7ce2a32f92349a" target="_top" xlink:title="VideoIO::DrawLoop">
<polygon fill="#ffffff" stroke="#000000" points="204.5,-48 204.5,-67 314.5,-67 314.5,-48 204.5,-48"/>
<text text-anchor="middle" x="259.5" y="-55" font-family="Helvetica,sans-Serif" font-size="10.00" fill="#000000">VideoIO::DrawLoop</text>
</a>
</g>
</g>
<!-- Node1225&#45;&gt;Node1230 -->
<g id="edge6" class="edge">
<title>Node1225&#45;&gt;Node1230</title>
<path fill="none" stroke="#191970" d="M160.3345,-57.5C175.284,-57.5 190.477,-57.5 204.3314,-57.5"/>
<polygon fill="#191970" stroke="#191970" points="160.0432,-54.0001 150.0432,-57.5 160.0432,-61.0001 160.0432,-54.0001"/>
</g>
<!-- Node1231 -->
<g id="node7" class="node">
<title>Node1231</title>
<g id="a_node7"><a xlink:href="classVideoIO.html#a50e4ccae99e278ed7d65d9db86f18c92" target="_top" xlink:title="VideoIO::video_event_loop">
<polygon fill="#ffffff" stroke="#000000" points="186,-9 186,-28 333,-28 333,-9 186,-9"/>
<text text-anchor="middle" x="259.5" y="-16" font-family="Helvetica,sans-Serif" font-size="10.00" fill="#000000">VideoIO::video_event_loop</text>
</a>
</g>
</g>
<!-- Node1225&#45;&gt;Node1231 -->
<g id="edge7" class="edge">
<title>Node1225&#45;&gt;Node1231</title>
<path fill="none" stroke="#191970" d="M130.1823,-45.8354C157.1097,-40.1435 189.0915,-33.3831 214.5128,-28.0095"/>
<polygon fill="#191970" stroke="#191970" points="129.1937,-42.467 120.1338,-47.9595 130.6415,-49.3157 129.1937,-42.467"/>
</g>
<!-- Node1227 -->
<g id="node3" class="node">
<title>Node1227</title>
<g id="a_node3"><a xlink:href="classLoopManager.html#a6048a702c9cec3676a1c56792b16ec44" target="_top" xlink:title="LoopManager::ReadComplete">
<polygon fill="#ffffff" stroke="#000000" points="369,-126 369,-145 528,-145 528,-126 369,-126"/>
<text text-anchor="middle" x="448.5" y="-133" font-family="Helvetica,sans-Serif" font-size="10.00" fill="#000000">LoopManager::ReadComplete</text>
</a>
</g>
</g>
<!-- Node1226&#45;&gt;Node1227 -->
<g id="edge2" class="edge">
<title>Node1226&#45;&gt;Node1227</title>
<path fill="none" stroke="#191970" d="M315.664,-108.0894C343.3236,-113.7969 376.2595,-120.5932 402.4155,-125.9905"/>
<polygon fill="#191970" stroke="#191970" points="316.2356,-104.6337 305.7346,-106.0405 314.8209,-111.4893 316.2356,-104.6337"/>
</g>
<!-- Node1228 -->
<g id="node4" class="node">
<title>Node1228</title>
<g id="a_node4"><a xlink:href="classLoopManager.html#a8efb4c8acabceb10faa8660c14c89d71" target="_top" xlink:title="LoopManager::DeletePulse">
<polygon fill="#ffffff" stroke="#000000" points="375.5,-88 375.5,-107 521.5,-107 521.5,-88 375.5,-88"/>
<text text-anchor="middle" x="448.5" y="-95" font-family="Helvetica,sans-Serif" font-size="10.00" fill="#000000">LoopManager::DeletePulse</text>
</a>
</g>
</g>
<!-- Node1226&#45;&gt;Node1228 -->
<g id="edge3" class="edge">
<title>Node1226&#45;&gt;Node1228</title>
<path fill="none" stroke="#191970" d="M341.4601,-96.9337C352.7021,-96.9931 364.1852,-97.0539 375.2576,-97.1125"/>
<polygon fill="#191970" stroke="#191970" points="341.2407,-93.4325 331.2223,-96.8795 341.2036,-100.4324 341.2407,-93.4325"/>
</g>
<!-- Node1229 -->
<g id="node5" class="node">
<title>Node1229</title>
<g id="a_node5"><a xlink:href="classLoopManager.html#a4aada2d07b7ce0a67a8119ece4805966" target="_top" xlink:title="LoopManager::ReceiveEvent">
<polygon fill="#ffffff" stroke="#000000" points="564,-69 564,-88 718,-88 718,-69 564,-69"/>
<text text-anchor="middle" x="641" y="-76" font-family="Helvetica,sans-Serif" font-size="10.00" fill="#000000">LoopManager::ReceiveEvent</text>
</a>
</g>
</g>
<!-- Node1226&#45;&gt;Node1229 -->
<g id="edge5" class="edge">
<title>Node1226&#45;&gt;Node1229</title>
<path fill="none" stroke="#191970" d="M317.1365,-85.2194C333.8022,-82.449 352.065,-79.8826 369,-78.5 434.5389,-73.1491 509.257,-73.6194 563.777,-75.1613"/>
<polygon fill="#191970" stroke="#191970" points="316.2553,-81.8194 306.9923,-86.9619 317.4405,-88.7184 316.2553,-81.8194"/>
</g>
<!-- Node1228&#45;&gt;Node1229 -->
<g id="edge4" class="edge">
<title>Node1228&#45;&gt;Node1229</title>
<path fill="none" stroke="#191970" d="M531.6986,-89.2882C542.3711,-88.2348 553.2618,-87.1599 563.8326,-86.1165"/>
<polygon fill="#191970" stroke="#191970" points="531.1583,-85.8244 521.5505,-90.2898 531.8459,-92.7906 531.1583,-85.8244"/>
</g>
<!-- Node1232 -->
<g id="node8" class="node">
<title>Node1232</title>
<g id="a_node8"><a xlink:href="classVideoIO.html#adb25c81a2bfe792fd4f64e23a4e21176" target="_top" xlink:title="VideoIO::run_video\l_thread">
<polygon fill="#ffffff" stroke="#000000" points="394,-.5 394,-30.5 503,-30.5 503,-.5 394,-.5"/>
<text text-anchor="start" x="402" y="-18.5" font-family="Helvetica,sans-Serif" font-size="10.00" fill="#000000">VideoIO::run_video</text>
<text text-anchor="middle" x="448.5" y="-7.5" font-family="Helvetica,sans-Serif" font-size="10.00" fill="#000000">_thread</text>
</a>
</g>
</g>
<!-- Node1231&#45;&gt;Node1232 -->
<g id="edge8" class="edge">
<title>Node1231&#45;&gt;Node1232</title>
<path fill="none" stroke="#191970" d="M343.1522,-17.1722C360.3268,-16.8996 377.9858,-16.6193 393.8195,-16.3679"/>
<polygon fill="#191970" stroke="#191970" points="343.0567,-13.6732 333.1135,-17.3315 343.1678,-20.6723 343.0567,-13.6732"/>
</g>
</g>
</svg>
