<?xml version="1.0" encoding="UTF-8" standalone="no"?>
<!DOCTYPE svg PUBLIC "-//W3C//DTD SVG 1.1//EN"
 "http://www.w3.org/Graphics/SVG/1.1/DTD/svg11.dtd">
<!-- Generated by graphviz version 2.40.1 (20161225.0304)
 -->
<!-- Title: VorbisDecoder Pages: 1 -->
<svg width="122pt" height="303pt"
 viewBox="0.00 0.00 122.00 303.00" xmlns="http://www.w3.org/2000/svg" xmlns:xlink="http://www.w3.org/1999/xlink">
<g id="graph0" class="graph" transform="scale(1 1) rotate(0) translate(4 299)">
<title>VorbisDecoder</title>
<polygon fill="#ffffff" stroke="transparent" points="-4,4 -4,-299 118,-299 118,4 -4,4"/>
<!-- Node0 -->
<g id="node1" class="node">
<title>Node0</title>
<polygon fill="#bfbfbf" stroke="#000000" points="0,-.5 0,-123.5 114,-123.5 114,-.5 0,-.5"/>
<text text-anchor="middle" x="57" y="-111.5" font-family="Helvetica,sans-Serif" font-size="10.00" fill="#000000">VorbisDecoder</text>
<polyline fill="none" stroke="#000000" points="0,-104.5 114,-104.5 "/>
<text text-anchor="start" x="8" y="-92.5" font-family="Helvetica,sans-Serif" font-size="10.00" fill="#000000">&#45; vf</text>
<text text-anchor="start" x="8" y="-81.5" font-family="Helvetica,sans-Serif" font-size="10.00" fill="#000000">&#45; current_section</text>
<text text-anchor="start" x="8" y="-70.5" font-family="Helvetica,sans-Serif" font-size="10.00" fill="#000000">&#45; pcmout</text>
<polyline fill="none" stroke="#000000" points="0,-63.5 114,-63.5 "/>
<text text-anchor="start" x="8" y="-51.5" font-family="Helvetica,sans-Serif" font-size="10.00" fill="#000000">+ VorbisDecoder()</text>
<text text-anchor="start" x="8" y="-40.5" font-family="Helvetica,sans-Serif" font-size="10.00" fill="#000000">+ ~VorbisDecoder()</text>
<text text-anchor="start" x="8" y="-29.5" font-family="Helvetica,sans-Serif" font-size="10.00" fill="#000000">+ ReadSamples()</text>
<text text-anchor="start" x="8" y="-18.5" font-family="Helvetica,sans-Serif" font-size="10.00" fill="#000000">+ Stop()</text>
<text text-anchor="start" x="8" y="-7.5" font-family="Helvetica,sans-Serif" font-size="10.00" fill="#000000">+ ReadFromFile()</text>
</g>
<!-- Node1 -->
<g id="node2" class="node">
<title>Node1</title>
<g id="a_node2"><a xlink:href="classiFileDecoder.html" target="_top" xlink:title="{iFileDecoder\n|# app\l# stereo\l# infd\l|+ iFileDecoder()\l+ ~iFileDecoder()\l+ ReadFromFile()\l+ ReadSamples()\l+ Stop()\l+ IsStereo()\l}">
<polygon fill="#ffffff" stroke="#000000" points="5,-160.5 5,-294.5 109,-294.5 109,-160.5 5,-160.5"/>
<text text-anchor="middle" x="57" y="-282.5" font-family="Helvetica,sans-Serif" font-size="10.00" fill="#000000">iFileDecoder</text>
<polyline fill="none" stroke="#000000" points="5,-275.5 109,-275.5 "/>
<text text-anchor="start" x="13" y="-263.5" font-family="Helvetica,sans-Serif" font-size="10.00" fill="#000000"># app</text>
<text text-anchor="start" x="13" y="-252.5" font-family="Helvetica,sans-Serif" font-size="10.00" fill="#000000"># stereo</text>
<text text-anchor="start" x="13" y="-241.5" font-family="Helvetica,sans-Serif" font-size="10.00" fill="#000000"># infd</text>
<polyline fill="none" stroke="#000000" points="5,-234.5 109,-234.5 "/>
<text text-anchor="start" x="13" y="-222.5" font-family="Helvetica,sans-Serif" font-size="10.00" fill="#000000">+ iFileDecoder()</text>
<text text-anchor="start" x="13" y="-211.5" font-family="Helvetica,sans-Serif" font-size="10.00" fill="#000000">+ ~iFileDecoder()</text>
<text text-anchor="start" x="13" y="-200.5" font-family="Helvetica,sans-Serif" font-size="10.00" fill="#000000">+ ReadFromFile()</text>
<text text-anchor="start" x="13" y="-189.5" font-family="Helvetica,sans-Serif" font-size="10.00" fill="#000000">+ ReadSamples()</text>
<text text-anchor="start" x="13" y="-178.5" font-family="Helvetica,sans-Serif" font-size="10.00" fill="#000000">+ Stop()</text>
<text text-anchor="start" x="13" y="-167.5" font-family="Helvetica,sans-Serif" font-size="10.00" fill="#000000">+ IsStereo()</text>
</a>
</g>
</g>
<!-- Node1&#45;&gt;Node0 -->
<g id="edge1" class="edge">
<title>Node1&#45;&gt;Node0</title>
<path fill="none" stroke="#191970" d="M57,-149.9072C57,-141.1012 57,-132.2169 57,-123.6555"/>
<polygon fill="none" stroke="#191970" points="53.5001,-150.1848 57,-160.1848 60.5001,-150.1848 53.5001,-150.1848"/>
</g>
</g>
</svg>
