<?xml version="1.0" encoding="UTF-8" standalone="no"?>
<!DOCTYPE svg PUBLIC "-//W3C//DTD SVG 1.1//EN"
 "http://www.w3.org/Graphics/SVG/1.1/DTD/svg11.dtd">
<!-- Generated by graphviz version 2.40.1 (20161225.0304)
 -->
<!-- Title: EventManager::BroadcastEventNow Pages: 1 -->
<svg width="993pt" height="750pt"
 viewBox="0.00 0.00 993.00 750.00" xmlns="http://www.w3.org/2000/svg" xmlns:xlink="http://www.w3.org/1999/xlink">
<g id="graph0" class="graph" transform="scale(1 1) rotate(0) translate(4 746)">
<title>EventManager::BroadcastEventNow</title>
<polygon fill="#ffffff" stroke="transparent" points="-4,4 -4,-746 989,-746 989,4 -4,4"/>
<!-- Node28 -->
<g id="node1" class="node">
<title>Node28</title>
<polygon fill="#bfbfbf" stroke="#000000" points="0,-396.5 0,-415.5 191,-415.5 191,-396.5 0,-396.5"/>
<text text-anchor="middle" x="95.5" y="-403.5" font-family="Helvetica,sans-Serif" font-size="10.00" fill="#000000">EventManager::BroadcastEventNow</text>
</g>
<!-- Node29 -->
<g id="node2" class="node">
<title>Node29</title>
<g id="a_node2"><a xlink:href="classFweelinMac.html#ae3b1a5e95aea6b8827a079d965bb0df6" target="_top" xlink:title="FweelinMac::SetDebugMode">
<polygon fill="#ffffff" stroke="#000000" points="237,-722.5 237,-741.5 390,-741.5 390,-722.5 237,-722.5"/>
<text text-anchor="middle" x="313.5" y="-729.5" font-family="Helvetica,sans-Serif" font-size="10.00" fill="#000000">FweelinMac::SetDebugMode</text>
</a>
</g>
</g>
<!-- Node28&#45;&gt;Node29 -->
<g id="edge1" class="edge">
<title>Node28&#45;&gt;Node29</title>
<path fill="none" stroke="#191970" d="M97.7641,-425.7017C105.1612,-480.5241 133.7804,-635.8805 227,-713 231.6203,-716.8223 236.8403,-719.9209 242.3702,-722.4277"/>
<polygon fill="#191970" stroke="#191970" points="101.2134,-425.0782 96.4922,-415.5935 94.2681,-425.9522 101.2134,-425.0782"/>
</g>
<!-- Node31 -->
<g id="node4" class="node">
<title>Node31</title>
<g id="a_node4"><a xlink:href="classFweelinMac.html#a1454097dbdc67c119aa91662e66cb4b2" target="_top" xlink:title="FweelinMac::Quit">
<polygon fill="#ffffff" stroke="#000000" points="263.5,-684.5 263.5,-703.5 363.5,-703.5 363.5,-684.5 263.5,-684.5"/>
<text text-anchor="middle" x="313.5" y="-691.5" font-family="Helvetica,sans-Serif" font-size="10.00" fill="#000000">FweelinMac::Quit</text>
</a>
</g>
</g>
<!-- Node28&#45;&gt;Node31 -->
<g id="edge3" class="edge">
<title>Node28&#45;&gt;Node31</title>
<path fill="none" stroke="#191970" d="M99.0338,-425.5954C109.1417,-475.6668 143.0305,-608.9974 227,-675 237.3957,-683.1714 250.5687,-687.9968 263.4798,-690.8022"/>
<polygon fill="#191970" stroke="#191970" points="102.462,-424.888 97.1371,-415.7285 95.5878,-426.2094 102.462,-424.888"/>
</g>
<!-- Node33 -->
<g id="node6" class="node">
<title>Node33</title>
<g id="a_node6"><a xlink:href="classFweelinMac.html#ab485e9439ebef90a89b724c4219f9474" target="_top" xlink:title="FweelinMac::ShowHelp">
<polygon fill="#ffffff" stroke="#000000" points="249.5,-646.5 249.5,-665.5 377.5,-665.5 377.5,-646.5 249.5,-646.5"/>
<text text-anchor="middle" x="313.5" y="-653.5" font-family="Helvetica,sans-Serif" font-size="10.00" fill="#000000">FweelinMac::ShowHelp</text>
</a>
</g>
</g>
<!-- Node28&#45;&gt;Node33 -->
<g id="edge5" class="edge">
<title>Node28&#45;&gt;Node33</title>
<path fill="none" stroke="#191970" d="M100.682,-425.5243C113.6906,-470.5256 152.1649,-581.8901 227,-637 233.6855,-641.9233 241.3993,-645.615 249.4102,-648.3756"/>
<polygon fill="#191970" stroke="#191970" points="104.0326,-424.5092 97.9776,-415.8151 97.2893,-426.3876 104.0326,-424.5092"/>
</g>
<!-- Node35 -->
<g id="node8" class="node">
<title>Node35</title>
<g id="a_node8"><a xlink:href="classBrowser.html#a71b602afb445cf9d41ef51ddc2696485" target="_top" xlink:title="Browser::MoveTo">
<polygon fill="#ffffff" stroke="#000000" points="264,-608.5 264,-627.5 363,-627.5 363,-608.5 264,-608.5"/>
<text text-anchor="middle" x="313.5" y="-615.5" font-family="Helvetica,sans-Serif" font-size="10.00" fill="#000000">Browser::MoveTo</text>
</a>
</g>
</g>
<!-- Node28&#45;&gt;Node35 -->
<g id="edge7" class="edge">
<title>Node28&#45;&gt;Node35</title>
<path fill="none" stroke="#191970" d="M102.7041,-424.9343C118.6517,-464.1417 160.8472,-554.2785 227,-599 237.8271,-606.3195 251.0005,-610.873 263.7685,-613.6904"/>
<polygon fill="#191970" stroke="#191970" points="105.9102,-423.5239 98.9813,-415.5088 99.3996,-426.0954 105.9102,-423.5239"/>
</g>
<!-- Node36 -->
<g id="node9" class="node">
<title>Node36</title>
<g id="a_node9"><a xlink:href="classInputMatrix.html#aa74204a205a10f2b60809ea124db9173" target="_top" xlink:title="InputMatrix::ReceiveEvent">
<polygon fill="#ffffff" stroke="#000000" points="241.5,-570.5 241.5,-589.5 385.5,-589.5 385.5,-570.5 241.5,-570.5"/>
<text text-anchor="middle" x="313.5" y="-577.5" font-family="Helvetica,sans-Serif" font-size="10.00" fill="#000000">InputMatrix::ReceiveEvent</text>
</a>
</g>
</g>
<!-- Node28&#45;&gt;Node36 -->
<g id="edge8" class="edge">
<title>Node28&#45;&gt;Node36</title>
<path fill="none" stroke="#191970" d="M105.6646,-424.5384C124.7952,-457.5674 169.4561,-526.3711 227,-561 233.4552,-564.8846 240.6083,-567.9783 247.9557,-570.4414"/>
<polygon fill="#191970" stroke="#191970" points="108.5303,-422.4956 100.5611,-415.514 102.4371,-425.9414 108.5303,-422.4956"/>
</g>
<!-- Node37 -->
<g id="node10" class="node">
<title>Node37</title>
<g id="a_node10"><a xlink:href="classFloConfig.html#a87625b8761486bb3bc5d40ee2b70d7e4" target="_top" xlink:title="FloConfig::StartInterfaces">
<polygon fill="#ffffff" stroke="#000000" points="243.5,-532.5 243.5,-551.5 383.5,-551.5 383.5,-532.5 243.5,-532.5"/>
<text text-anchor="middle" x="313.5" y="-539.5" font-family="Helvetica,sans-Serif" font-size="10.00" fill="#000000">FloConfig::StartInterfaces</text>
</a>
</g>
</g>
<!-- Node28&#45;&gt;Node37 -->
<g id="edge9" class="edge">
<title>Node28&#45;&gt;Node37</title>
<path fill="none" stroke="#191970" d="M109.8812,-423.5629C132.1517,-449.5296 177.5971,-497.8013 227,-523 234.6701,-526.9122 243.1237,-530.022 251.6509,-532.4933"/>
<polygon fill="#191970" stroke="#191970" points="112.3618,-421.0749 103.2448,-415.6775 107.0061,-425.5823 112.3618,-421.0749"/>
</g>
<!-- Node38 -->
<g id="node11" class="node">
<title>Node38</title>
<g id="a_node11"><a xlink:href="classTriggerMap.html#af9da9145253cd2713f7c1c60701666fa" target="_top" xlink:title="TriggerMap::SetMap">
<polygon fill="#ffffff" stroke="#000000" points="257.5,-494.5 257.5,-513.5 369.5,-513.5 369.5,-494.5 257.5,-494.5"/>
<text text-anchor="middle" x="313.5" y="-501.5" font-family="Helvetica,sans-Serif" font-size="10.00" fill="#000000">TriggerMap::SetMap</text>
</a>
</g>
</g>
<!-- Node28&#45;&gt;Node38 -->
<g id="edge10" class="edge">
<title>Node28&#45;&gt;Node38</title>
<path fill="none" stroke="#191970" d="M116.5482,-421.6199C141.6146,-439.4949 185.3441,-468.4297 227,-485 236.572,-488.8076 247.0586,-491.9236 257.3254,-494.4492"/>
<polygon fill="#191970" stroke="#191970" points="118.3498,-418.6034 108.1961,-415.5781 114.2471,-424.275 118.3498,-418.6034"/>
</g>
<!-- Node46 -->
<g id="node19" class="node">
<title>Node46</title>
<g id="a_node19"><a xlink:href="classPulse.html#aec20778ec5fcc2a6cefed47add36272f" target="_top" xlink:title="Pulse::SetMIDIClock">
<polygon fill="#ffffff" stroke="#000000" points="257,-456.5 257,-475.5 370,-475.5 370,-456.5 257,-456.5"/>
<text text-anchor="middle" x="313.5" y="-463.5" font-family="Helvetica,sans-Serif" font-size="10.00" fill="#000000">Pulse::SetMIDIClock</text>
</a>
</g>
</g>
<!-- Node28&#45;&gt;Node46 -->
<g id="edge23" class="edge">
<title>Node28&#45;&gt;Node46</title>
<path fill="none" stroke="#191970" d="M133.0425,-418.6495C159.2114,-427.2339 195.0257,-438.5206 227,-447 239.781,-450.3895 253.7367,-453.6458 266.6353,-456.4761"/>
<polygon fill="#191970" stroke="#191970" points="134.1065,-415.3151 123.5134,-415.5033 131.9118,-421.9621 134.1065,-415.3151"/>
</g>
<!-- Node50 -->
<g id="node23" class="node">
<title>Node50</title>
<g id="a_node23"><a xlink:href="classPulse.html#adf28cef50c1f7543db7171b67126c38f" target="_top" xlink:title="Pulse::process">
<polygon fill="#ffffff" stroke="#000000" points="270.5,-418.5 270.5,-437.5 356.5,-437.5 356.5,-418.5 270.5,-418.5"/>
<text text-anchor="middle" x="313.5" y="-425.5" font-family="Helvetica,sans-Serif" font-size="10.00" fill="#000000">Pulse::process</text>
</a>
</g>
</g>
<!-- Node28&#45;&gt;Node50 -->
<g id="edge29" class="edge">
<title>Node28&#45;&gt;Node50</title>
<path fill="none" stroke="#191970" d="M200.0947,-416.5554C224.9551,-419.0643 250.1215,-421.604 270.4099,-423.6515"/>
<polygon fill="#191970" stroke="#191970" points="200.151,-413.0434 189.8501,-415.5216 199.4481,-420.008 200.151,-413.0434"/>
</g>
<!-- Node51 -->
<g id="node24" class="node">
<title>Node51</title>
<g id="a_node24"><a xlink:href="classEventManager.html#ab363d5886ccb130eaab896bf0f7faebb" target="_top" xlink:title="EventManager::run_dispatch\l_thread">
<polygon fill="#ffffff" stroke="#000000" points="236,-369 236,-399 391,-399 391,-369 236,-369"/>
<text text-anchor="start" x="244" y="-387" font-family="Helvetica,sans-Serif" font-size="10.00" fill="#000000">EventManager::run_dispatch</text>
<text text-anchor="middle" x="313.5" y="-376" font-family="Helvetica,sans-Serif" font-size="10.00" fill="#000000">_thread</text>
</a>
</g>
</g>
<!-- Node28&#45;&gt;Node51 -->
<g id="edge30" class="edge">
<title>Node28&#45;&gt;Node51</title>
<path fill="none" stroke="#191970" d="M199.9371,-395.4605C211.9818,-394.245 224.1008,-393.0219 235.7047,-391.8509"/>
<polygon fill="#191970" stroke="#191970" points="199.4481,-391.992 189.8501,-396.4784 200.151,-398.9566 199.4481,-391.992"/>
</g>
<!-- Node53 -->
<g id="node26" class="node">
<title>Node53</title>
<g id="a_node26"><a xlink:href="classMidiIO.html#a5fcccad3304e6bb1ad7b85048c63752f" target="_top" xlink:title="MidiIO::ReceiveNoteOffEvent">
<polygon fill="#ffffff" stroke="#000000" points="235,-330.5 235,-349.5 392,-349.5 392,-330.5 235,-330.5"/>
<text text-anchor="middle" x="313.5" y="-337.5" font-family="Helvetica,sans-Serif" font-size="10.00" fill="#000000">MidiIO::ReceiveNoteOffEvent</text>
</a>
</g>
</g>
<!-- Node28&#45;&gt;Node53 -->
<g id="edge32" class="edge">
<title>Node28&#45;&gt;Node53</title>
<path fill="none" stroke="#191970" d="M129.9693,-392.7807C156.303,-382.966 193.6277,-369.6637 227,-360 240.1767,-356.1844 254.6463,-352.6045 267.9172,-349.5576"/>
<polygon fill="#191970" stroke="#191970" points="128.5774,-389.5647 120.446,-396.3567 131.0381,-396.1179 128.5774,-389.5647"/>
</g>
<!-- Node56 -->
<g id="node29" class="node">
<title>Node56</title>
<g id="a_node29"><a xlink:href="classMidiIO.html#ad5430028f18c43ed962f2438e2994263" target="_top" xlink:title="MidiIO::ReceiveNoteOnEvent">
<polygon fill="#ffffff" stroke="#000000" points="235.5,-292.5 235.5,-311.5 391.5,-311.5 391.5,-292.5 235.5,-292.5"/>
<text text-anchor="middle" x="313.5" y="-299.5" font-family="Helvetica,sans-Serif" font-size="10.00" fill="#000000">MidiIO::ReceiveNoteOnEvent</text>
</a>
</g>
</g>
<!-- Node28&#45;&gt;Node56 -->
<g id="edge35" class="edge">
<title>Node28&#45;&gt;Node56</title>
<path fill="none" stroke="#191970" d="M115.1745,-390.0268C139.8356,-370.8048 184.0953,-338.8888 227,-321 236.2243,-317.154 246.3409,-314.0361 256.302,-311.5246"/>
<polygon fill="#191970" stroke="#191970" points="112.6837,-387.5345 107.0143,-396.4848 117.0278,-393.0235 112.6837,-387.5345"/>
</g>
<!-- Node57 -->
<g id="node30" class="node">
<title>Node57</title>
<g id="a_node30"><a xlink:href="classMidiIO.html#a001f1cae37f9d400fd18f2eb6b8863f9" target="_top" xlink:title="MidiIO::ReceivePitchBend\lEvent">
<polygon fill="#ffffff" stroke="#000000" points="243.5,-243 243.5,-273 383.5,-273 383.5,-243 243.5,-243"/>
<text text-anchor="start" x="251.5" y="-261" font-family="Helvetica,sans-Serif" font-size="10.00" fill="#000000">MidiIO::ReceivePitchBend</text>
<text text-anchor="middle" x="313.5" y="-250" font-family="Helvetica,sans-Serif" font-size="10.00" fill="#000000">Event</text>
</a>
</g>
</g>
<!-- Node28&#45;&gt;Node57 -->
<g id="edge37" class="edge">
<title>Node28&#45;&gt;Node57</title>
<path fill="none" stroke="#191970" d="M109.5711,-388.3227C131.7458,-361.6283 177.429,-311.1644 227,-283 233.7957,-279.1389 241.2366,-275.8324 248.8113,-273.0111"/>
<polygon fill="#191970" stroke="#191970" points="106.592,-386.4375 102.9806,-396.3978 112.0151,-390.8636 106.592,-386.4375"/>
</g>
<!-- Node58 -->
<g id="node31" class="node">
<title>Node58</title>
<g id="a_node31"><a xlink:href="classMidiIO.html#a3c920e2fb0aa4e148743ade4e2663121" target="_top" xlink:title="MidiIO::ReceiveChannelPressure\lEvent">
<polygon fill="#ffffff" stroke="#000000" points="227,-194 227,-224 400,-224 400,-194 227,-194"/>
<text text-anchor="start" x="235" y="-212" font-family="Helvetica,sans-Serif" font-size="10.00" fill="#000000">MidiIO::ReceiveChannelPressure</text>
<text text-anchor="middle" x="313.5" y="-201" font-family="Helvetica,sans-Serif" font-size="10.00" fill="#000000">Event</text>
</a>
</g>
</g>
<!-- Node28&#45;&gt;Node58 -->
<g id="edge39" class="edge">
<title>Node28&#45;&gt;Node58</title>
<path fill="none" stroke="#191970" d="M104.6047,-387.2902C122.8048,-351.8755 167.1279,-274.9347 227,-234 232.6779,-230.118 238.9593,-226.832 245.469,-224.0516"/>
<polygon fill="#191970" stroke="#191970" points="101.3454,-385.9817 99.9888,-396.4893 107.6019,-389.1211 101.3454,-385.9817"/>
</g>
<!-- Node59 -->
<g id="node32" class="node">
<title>Node59</title>
<g id="a_node32"><a xlink:href="classMidiIO.html#a1890f712cf869eba7a225a068ab90c21" target="_top" xlink:title="MidiIO::ReceiveProgramChange\lEvent">
<polygon fill="#ffffff" stroke="#000000" points="228.5,-145 228.5,-175 398.5,-175 398.5,-145 228.5,-145"/>
<text text-anchor="start" x="236.5" y="-163" font-family="Helvetica,sans-Serif" font-size="10.00" fill="#000000">MidiIO::ReceiveProgramChange</text>
<text text-anchor="middle" x="313.5" y="-152" font-family="Helvetica,sans-Serif" font-size="10.00" fill="#000000">Event</text>
</a>
</g>
</g>
<!-- Node28&#45;&gt;Node59 -->
<g id="edge41" class="edge">
<title>Node28&#45;&gt;Node59</title>
<path fill="none" stroke="#191970" d="M101.4699,-386.7671C115.8031,-343.8173 156.3168,-239.5973 227,-185 231.9485,-181.1777 237.4624,-177.9395 243.2442,-175.1962"/>
<polygon fill="#191970" stroke="#191970" points="98.1342,-385.7072 98.3875,-396.299 104.7946,-387.8611 98.1342,-385.7072"/>
</g>
<!-- Node60 -->
<g id="node33" class="node">
<title>Node60</title>
<g id="a_node33"><a xlink:href="classMidiIO.html#a6fcfe9477a84a6ccc6a449765aff6f63" target="_top" xlink:title="MidiIO::ReceiveControlChange\lEvent">
<polygon fill="#ffffff" stroke="#000000" points="231.5,-96 231.5,-126 395.5,-126 395.5,-96 231.5,-96"/>
<text text-anchor="start" x="239.5" y="-114" font-family="Helvetica,sans-Serif" font-size="10.00" fill="#000000">MidiIO::ReceiveControlChange</text>
<text text-anchor="middle" x="313.5" y="-103" font-family="Helvetica,sans-Serif" font-size="10.00" fill="#000000">Event</text>
</a>
</g>
</g>
<!-- Node28&#45;&gt;Node60 -->
<g id="edge43" class="edge">
<title>Node28&#45;&gt;Node60</title>
<path fill="none" stroke="#191970" d="M99.335,-386.3367C110.0785,-336.593 145.2013,-204.8229 227,-136 231.5453,-132.1757 236.6472,-128.9359 242.0402,-126.1913"/>
<polygon fill="#191970" stroke="#191970" points="95.8518,-385.8983 97.2576,-396.3994 102.7072,-387.3136 95.8518,-385.8983"/>
</g>
<!-- Node61 -->
<g id="node34" class="node">
<title>Node61</title>
<g id="a_node34"><a xlink:href="classMidiIO.html#a1753eb05e14eb572a5f52b9616480d55" target="_top" xlink:title="MidiIO::SetMIDIForPatch">
<polygon fill="#ffffff" stroke="#000000" points="247.5,-57.5 247.5,-76.5 379.5,-76.5 379.5,-57.5 247.5,-57.5"/>
<text text-anchor="middle" x="313.5" y="-64.5" font-family="Helvetica,sans-Serif" font-size="10.00" fill="#000000">MidiIO::SetMIDIForPatch</text>
</a>
</g>
</g>
<!-- Node28&#45;&gt;Node61 -->
<g id="edge45" class="edge">
<title>Node28&#45;&gt;Node61</title>
<path fill="none" stroke="#191970" d="M97.4613,-386.3346C104.1503,-330.2272 131.2705,-168.2076 227,-87 232.9946,-81.9148 240.0337,-78.062 247.4633,-75.1523"/>
<polygon fill="#191970" stroke="#191970" points="93.9728,-386.038 96.3539,-396.3618 100.9305,-386.8065 93.9728,-386.038"/>
</g>
<!-- Node64 -->
<g id="node37" class="node">
<title>Node64</title>
<g id="a_node37"><a xlink:href="classSDLIO.html#ad1b1bf6d23251b3014749b18497c1b91" target="_top" xlink:title="SDLIO::run_sdl_thread">
<polygon fill="#ffffff" stroke="#000000" points="251.5,-19.5 251.5,-38.5 375.5,-38.5 375.5,-19.5 251.5,-19.5"/>
<text text-anchor="middle" x="313.5" y="-26.5" font-family="Helvetica,sans-Serif" font-size="10.00" fill="#000000">SDLIO::run_sdl_thread</text>
</a>
</g>
</g>
<!-- Node28&#45;&gt;Node64 -->
<g id="edge49" class="edge">
<title>Node28&#45;&gt;Node64</title>
<path fill="none" stroke="#191970" d="M96.4276,-386.3594C100.4005,-325.7917 121.0787,-140.4324 227,-48 233.9508,-41.9344 242.395,-37.6683 251.2507,-34.6915"/>
<polygon fill="#191970" stroke="#191970" points="92.9269,-386.2729 95.8493,-396.4567 99.9155,-386.6732 92.9269,-386.2729"/>
</g>
<!-- Node30 -->
<g id="node3" class="node">
<title>Node30</title>
<g id="a_node3"><a xlink:href="interfaceSDLMain.html#a77e54985a7877b9a5acfa0d2c427b921" target="_top" xlink:title="&#45;[SDLMain toggleDebugMode:]">
<polygon fill="#ffffff" stroke="#000000" points="436,-722.5 436,-741.5 600,-741.5 600,-722.5 436,-722.5"/>
<text text-anchor="middle" x="518" y="-729.5" font-family="Helvetica,sans-Serif" font-size="10.00" fill="#000000">&#45;[SDLMain toggleDebugMode:]</text>
</a>
</g>
</g>
<!-- Node29&#45;&gt;Node30 -->
<g id="edge2" class="edge">
<title>Node29&#45;&gt;Node30</title>
<path fill="none" stroke="#191970" d="M400.4236,-732C412.1213,-732 424.093,-732 435.7071,-732"/>
<polygon fill="#191970" stroke="#191970" points="400.2301,-728.5001 390.2301,-732 400.23,-735.5001 400.2301,-728.5001"/>
</g>
<!-- Node32 -->
<g id="node5" class="node">
<title>Node32</title>
<g id="a_node5"><a xlink:href="interfaceSDLMain.html#a3a93b24c8af36c43942a8e9e43fd711d" target="_top" xlink:title="&#45;[SDLMain quitFW:]">
<polygon fill="#ffffff" stroke="#000000" points="463.5,-684.5 463.5,-703.5 572.5,-703.5 572.5,-684.5 463.5,-684.5"/>
<text text-anchor="middle" x="518" y="-691.5" font-family="Helvetica,sans-Serif" font-size="10.00" fill="#000000">&#45;[SDLMain quitFW:]</text>
</a>
</g>
</g>
<!-- Node31&#45;&gt;Node32 -->
<g id="edge4" class="edge">
<title>Node31&#45;&gt;Node32</title>
<path fill="none" stroke="#191970" d="M373.7377,-694C402.1545,-694 435.8119,-694 463.4664,-694"/>
<polygon fill="#191970" stroke="#191970" points="373.5264,-690.5001 363.5263,-694 373.5263,-697.5001 373.5264,-690.5001"/>
</g>
<!-- Node34 -->
<g id="node7" class="node">
<title>Node34</title>
<g id="a_node7"><a xlink:href="interfaceSDLMain.html#a4f87fa7a68047939f25b47c0c2b8bfdc" target="_top" xlink:title="&#45;[SDLMain showHelp:]">
<polygon fill="#ffffff" stroke="#000000" points="456,-646.5 456,-665.5 580,-665.5 580,-646.5 456,-646.5"/>
<text text-anchor="middle" x="518" y="-653.5" font-family="Helvetica,sans-Serif" font-size="10.00" fill="#000000">&#45;[SDLMain showHelp:]</text>
</a>
</g>
</g>
<!-- Node33&#45;&gt;Node34 -->
<g id="edge6" class="edge">
<title>Node33&#45;&gt;Node34</title>
<path fill="none" stroke="#191970" d="M387.7548,-656C410.0936,-656 434.3639,-656 455.8332,-656"/>
<polygon fill="#191970" stroke="#191970" points="387.644,-652.5001 377.644,-656 387.644,-659.5001 387.644,-652.5001"/>
</g>
<!-- Node39 -->
<g id="node12" class="node">
<title>Node39</title>
<g id="a_node12"><a xlink:href="classLoopManager.html#a6048a702c9cec3676a1c56792b16ec44" target="_top" xlink:title="LoopManager::ReadComplete">
<polygon fill="#ffffff" stroke="#000000" points="636,-531.5 636,-550.5 795,-550.5 795,-531.5 636,-531.5"/>
<text text-anchor="middle" x="715.5" y="-538.5" font-family="Helvetica,sans-Serif" font-size="10.00" fill="#000000">LoopManager::ReadComplete</text>
</a>
</g>
</g>
<!-- Node38&#45;&gt;Node39 -->
<g id="edge11" class="edge">
<title>Node38&#45;&gt;Node39</title>
<path fill="none" stroke="#191970" d="M379.727,-514.6954C397.9293,-517.3718 417.696,-520.0361 436,-522 503.2186,-529.2121 579.8429,-534.1938 635.8417,-537.2409"/>
<polygon fill="#191970" stroke="#191970" points="380.2021,-511.2276 369.7947,-513.2117 379.1678,-518.1508 380.2021,-511.2276"/>
</g>
<!-- Node40 -->
<g id="node13" class="node">
<title>Node40</title>
<g id="a_node13"><a xlink:href="classLoopManager.html#af67b2c3a3417115739cccbe6360828fe" target="_top" xlink:title="LoopManager::MoveLoop">
<polygon fill="#ffffff" stroke="#000000" points="647,-569.5 647,-588.5 784,-588.5 784,-569.5 647,-569.5"/>
<text text-anchor="middle" x="715.5" y="-576.5" font-family="Helvetica,sans-Serif" font-size="10.00" fill="#000000">LoopManager::MoveLoop</text>
</a>
</g>
</g>
<!-- Node38&#45;&gt;Node40 -->
<g id="edge12" class="edge">
<title>Node38&#45;&gt;Node40</title>
<path fill="none" stroke="#191970" d="M377.4023,-515.9846C385.106,-518.0293 392.7921,-520.3614 400,-523 416.9891,-529.2192 418.7631,-536.5048 436,-542 505.7194,-564.2269 589.3288,-573.1118 646.8281,-576.6576"/>
<polygon fill="#191970" stroke="#191970" points="378.2202,-512.5815 367.6695,-513.5469 376.5194,-519.3717 378.2202,-512.5815"/>
</g>
<!-- Node42 -->
<g id="node15" class="node">
<title>Node42</title>
<g id="a_node15"><a xlink:href="classLoopManager.html#a332a9868980750f28fbf0e05b2336174" target="_top" xlink:title="LoopManager::DeleteLoop">
<polygon fill="#ffffff" stroke="#000000" points="446.5,-493.5 446.5,-512.5 589.5,-512.5 589.5,-493.5 446.5,-493.5"/>
<text text-anchor="middle" x="518" y="-500.5" font-family="Helvetica,sans-Serif" font-size="10.00" fill="#000000">LoopManager::DeleteLoop</text>
</a>
</g>
</g>
<!-- Node38&#45;&gt;Node42 -->
<g id="edge14" class="edge">
<title>Node38&#45;&gt;Node42</title>
<path fill="none" stroke="#191970" d="M379.8555,-503.6755C401.0675,-503.5718 424.6401,-503.4565 446.2199,-503.351"/>
<polygon fill="#191970" stroke="#191970" points="379.6337,-500.1765 369.651,-503.7254 379.668,-507.1764 379.6337,-500.1765"/>
</g>
<!-- Node44 -->
<g id="node17" class="node">
<title>Node44</title>
<g id="a_node17"><a xlink:href="classLoopManager.html#a861cdd2ace9aeb53b4ecf92728215265" target="_top" xlink:title="LoopManager::Deactivate">
<polygon fill="#ffffff" stroke="#000000" points="447.5,-607.5 447.5,-626.5 588.5,-626.5 588.5,-607.5 447.5,-607.5"/>
<text text-anchor="middle" x="518" y="-614.5" font-family="Helvetica,sans-Serif" font-size="10.00" fill="#000000">LoopManager::Deactivate</text>
</a>
</g>
</g>
<!-- Node38&#45;&gt;Node44 -->
<g id="edge19" class="edge">
<title>Node38&#45;&gt;Node44</title>
<path fill="none" stroke="#191970" d="M379.2803,-511.8979C386.7205,-514.6392 393.8318,-518.2523 400,-523 427.7228,-544.3388 409.0242,-570.7242 436,-593 443.6633,-599.3281 452.932,-603.9878 462.441,-607.4188"/>
<polygon fill="#191970" stroke="#191970" points="380.3164,-508.5547 369.7263,-508.8718 378.2027,-515.228 380.3164,-508.5547"/>
</g>
<!-- Node41 -->
<g id="node14" class="node">
<title>Node41</title>
<g id="a_node14"><a xlink:href="classLoopManager.html#a4aada2d07b7ce0a67a8119ece4805966" target="_top" xlink:title="LoopManager::ReceiveEvent">
<polygon fill="#ffffff" stroke="#000000" points="831,-493.5 831,-512.5 985,-512.5 985,-493.5 831,-493.5"/>
<text text-anchor="middle" x="908" y="-500.5" font-family="Helvetica,sans-Serif" font-size="10.00" fill="#000000">LoopManager::ReceiveEvent</text>
</a>
</g>
</g>
<!-- Node40&#45;&gt;Node41 -->
<g id="edge13" class="edge">
<title>Node40&#45;&gt;Node41</title>
<path fill="none" stroke="#191970" d="M773.4775,-566.8139C780.8002,-564.7879 788.1287,-562.5151 795,-560 831.1091,-546.7828 870.6552,-524.9999 892.0655,-512.5386"/>
<polygon fill="#191970" stroke="#191970" points="772.3223,-563.4984 763.5389,-569.4232 774.0999,-570.269 772.3223,-563.4984"/>
</g>
<!-- Node42&#45;&gt;Node39 -->
<g id="edge15" class="edge">
<title>Node42&#45;&gt;Node39</title>
<path fill="none" stroke="#191970" d="M577.7147,-514.4894C605.8946,-519.9114 639.129,-526.3058 665.8969,-531.4561"/>
<polygon fill="#191970" stroke="#191970" points="578.0639,-510.9925 567.5827,-512.54 576.7412,-517.8664 578.0639,-510.9925"/>
</g>
<!-- Node42&#45;&gt;Node41 -->
<g id="edge18" class="edge">
<title>Node42&#45;&gt;Node41</title>
<path fill="none" stroke="#191970" d="M599.7884,-503C667.8836,-503 764.1576,-503 830.9122,-503"/>
<polygon fill="#191970" stroke="#191970" points="599.532,-499.5001 589.532,-503 599.532,-506.5001 599.532,-499.5001"/>
</g>
<!-- Node43 -->
<g id="node16" class="node">
<title>Node43</title>
<g id="a_node16"><a xlink:href="classLoopManager.html#a8efb4c8acabceb10faa8660c14c89d71" target="_top" xlink:title="LoopManager::DeletePulse">
<polygon fill="#ffffff" stroke="#000000" points="642.5,-455.5 642.5,-474.5 788.5,-474.5 788.5,-455.5 642.5,-455.5"/>
<text text-anchor="middle" x="715.5" y="-462.5" font-family="Helvetica,sans-Serif" font-size="10.00" fill="#000000">LoopManager::DeletePulse</text>
</a>
</g>
</g>
<!-- Node42&#45;&gt;Node43 -->
<g id="edge16" class="edge">
<title>Node42&#45;&gt;Node43</title>
<path fill="none" stroke="#191970" d="M577.7147,-491.5106C605.8946,-486.0886 639.129,-479.6942 665.8969,-474.5439"/>
<polygon fill="#191970" stroke="#191970" points="576.7412,-488.1336 567.5827,-493.46 578.0639,-495.0075 576.7412,-488.1336"/>
</g>
<!-- Node43&#45;&gt;Node41 -->
<g id="edge17" class="edge">
<title>Node43&#45;&gt;Node41</title>
<path fill="none" stroke="#191970" d="M773.9498,-476.5381C801.4057,-481.958 833.7405,-488.341 859.7734,-493.4799"/>
<polygon fill="#191970" stroke="#191970" points="774.5644,-473.092 764.0759,-474.589 773.2087,-479.9595 774.5644,-473.092"/>
</g>
<!-- Node44&#45;&gt;Node41 -->
<g id="edge22" class="edge">
<title>Node44&#45;&gt;Node41</title>
<path fill="none" stroke="#191970" d="M598.7154,-624.4032C655.6096,-626.5746 732.4902,-623.2416 795,-598 841.8179,-579.0948 883.4963,-533.029 900.2206,-512.7996"/>
<polygon fill="#191970" stroke="#191970" points="598.837,-620.9052 588.691,-623.9561 598.525,-627.8983 598.837,-620.9052"/>
</g>
<!-- Node45 -->
<g id="node18" class="node">
<title>Node45</title>
<g id="a_node18"><a xlink:href="classFweelin.html#a4654015e2bc7cc94f3bfc421899a60d3" target="_top" xlink:title="Fweelin::TriggerSnapshot">
<polygon fill="#ffffff" stroke="#000000" points="646.5,-645.5 646.5,-664.5 784.5,-664.5 784.5,-645.5 646.5,-645.5"/>
<text text-anchor="middle" x="715.5" y="-652.5" font-family="Helvetica,sans-Serif" font-size="10.00" fill="#000000">Fweelin::TriggerSnapshot</text>
</a>
</g>
</g>
<!-- Node44&#45;&gt;Node45 -->
<g id="edge20" class="edge">
<title>Node44&#45;&gt;Node45</title>
<path fill="none" stroke="#191970" d="M577.7147,-628.4894C605.8946,-633.9114 639.129,-640.3058 665.8969,-645.4561"/>
<polygon fill="#191970" stroke="#191970" points="578.0639,-624.9925 567.5827,-626.54 576.7412,-631.8664 578.0639,-624.9925"/>
</g>
<!-- Node45&#45;&gt;Node41 -->
<g id="edge21" class="edge">
<title>Node45&#45;&gt;Node41</title>
<path fill="none" stroke="#191970" d="M772.4443,-642.0636C780.3391,-639.0723 788.0982,-635.4275 795,-631 845.8987,-598.3488 887.4337,-536.4542 902.2072,-512.6567"/>
<polygon fill="#191970" stroke="#191970" points="771.1045,-638.8234 762.7956,-645.397 773.3903,-645.4397 771.1045,-638.8234"/>
</g>
<!-- Node47 -->
<g id="node20" class="node">
<title>Node47</title>
<g id="a_node20"><a xlink:href="classLoopManager.html#ab79aef15f1e783de1ab6827378bea274" target="_top" xlink:title="LoopManager::SelectPulse">
<polygon fill="#ffffff" stroke="#000000" points="446,-453.5 446,-472.5 590,-472.5 590,-453.5 446,-453.5"/>
<text text-anchor="middle" x="518" y="-460.5" font-family="Helvetica,sans-Serif" font-size="10.00" fill="#000000">LoopManager::SelectPulse</text>
</a>
</g>
</g>
<!-- Node46&#45;&gt;Node47 -->
<g id="edge24" class="edge">
<title>Node46&#45;&gt;Node47</title>
<path fill="none" stroke="#191970" d="M380.286,-465.0203C401.2546,-464.7126 424.4944,-464.3717 445.8189,-464.0589"/>
<polygon fill="#191970" stroke="#191970" points="380.1406,-461.5219 370.1931,-465.1683 380.2434,-468.5212 380.1406,-461.5219"/>
</g>
<!-- Node49 -->
<g id="node22" class="node">
<title>Node49</title>
<g id="a_node22"><a xlink:href="classLoopManager.html#a705436ae811a121ed3285ab34b144bfe" target="_top" xlink:title="LoopManager::CreatePulse">
<polygon fill="#ffffff" stroke="#000000" points="445,-415.5 445,-434.5 591,-434.5 591,-415.5 445,-415.5"/>
<text text-anchor="middle" x="518" y="-422.5" font-family="Helvetica,sans-Serif" font-size="10.00" fill="#000000">LoopManager::CreatePulse</text>
</a>
</g>
</g>
<!-- Node46&#45;&gt;Node49 -->
<g id="edge28" class="edge">
<title>Node46&#45;&gt;Node49</title>
<path fill="none" stroke="#191970" d="M370.8627,-454.4994C402.2792,-448.2007 440.7494,-440.4879 470.473,-434.5286"/>
<polygon fill="#191970" stroke="#191970" points="370.0473,-451.0932 360.9304,-456.4907 371.4234,-457.9566 370.0473,-451.0932"/>
</g>
<!-- Node47&#45;&gt;Node41 -->
<g id="edge27" class="edge">
<title>Node47&#45;&gt;Node41</title>
<path fill="none" stroke="#191970" d="M567.6257,-451.3414C623.6428,-440.1551 717.1179,-427.4692 795,-446 833.4766,-455.1549 873.7109,-479.6156 894.209,-493.3324"/>
<polygon fill="#191970" stroke="#191970" points="566.7018,-447.9582 557.6143,-453.4049 568.1149,-454.8141 566.7018,-447.9582"/>
</g>
<!-- Node48 -->
<g id="node21" class="node">
<title>Node48</title>
<g id="a_node21"><a xlink:href="classLoopManager.html#a67c6f44d33880b35c875a8e6ea8babac" target="_top" xlink:title="LoopManager::TapPulse">
<polygon fill="#ffffff" stroke="#000000" points="650,-379.5 650,-398.5 781,-398.5 781,-379.5 650,-379.5"/>
<text text-anchor="middle" x="715.5" y="-386.5" font-family="Helvetica,sans-Serif" font-size="10.00" fill="#000000">LoopManager::TapPulse</text>
</a>
</g>
</g>
<!-- Node47&#45;&gt;Node48 -->
<g id="edge25" class="edge">
<title>Node47&#45;&gt;Node48</title>
<path fill="none" stroke="#191970" d="M584.8224,-450.4258C590.0711,-448.5663 595.1939,-446.4371 600,-444 618.8318,-434.4507 617.4909,-423.1608 636,-413 647.1216,-406.8946 659.9912,-402.1508 672.0928,-398.5538"/>
<polygon fill="#191970" stroke="#191970" points="583.7313,-447.1 575.2801,-453.4897 585.8714,-453.7649 583.7313,-447.1"/>
</g>
<!-- Node48&#45;&gt;Node41 -->
<g id="edge26" class="edge">
<title>Node48&#45;&gt;Node41</title>
<path fill="none" stroke="#191970" d="M767.6103,-401.6231C776.9801,-404.7562 786.4708,-408.5283 795,-413 837.8699,-435.4759 880.3264,-475.2161 898.6266,-493.4145"/>
<polygon fill="#191970" stroke="#191970" points="768.5243,-398.2417 757.935,-398.5867 766.4282,-404.9205 768.5243,-398.2417"/>
</g>
<!-- Node52 -->
<g id="node25" class="node">
<title>Node52</title>
<g id="a_node25"><a xlink:href="classEventManager.html#a89099b22114f158b5c530edfea52371d" target="_top" xlink:title="EventManager::EventManager">
<polygon fill="#ffffff" stroke="#000000" points="437,-374.5 437,-393.5 599,-393.5 599,-374.5 437,-374.5"/>
<text text-anchor="middle" x="518" y="-381.5" font-family="Helvetica,sans-Serif" font-size="10.00" fill="#000000">EventManager::EventManager</text>
</a>
</g>
</g>
<!-- Node51&#45;&gt;Node52 -->
<g id="edge31" class="edge">
<title>Node51&#45;&gt;Node52</title>
<path fill="none" stroke="#191970" d="M401.3403,-384C413.0821,-384 425.0826,-384 436.7057,-384"/>
<polygon fill="#191970" stroke="#191970" points="401.1043,-380.5001 391.1043,-384 401.1042,-387.5001 401.1043,-380.5001"/>
</g>
<!-- Node54 -->
<g id="node27" class="node">
<title>Node54</title>
<g id="a_node27"><a xlink:href="classMidiIO.html#aef220bcce8b89bea36032298868a919e" target="_top" xlink:title="MidiIO::run_midi_thread">
<polygon fill="#ffffff" stroke="#000000" points="451.5,-199.5 451.5,-218.5 584.5,-218.5 584.5,-199.5 451.5,-199.5"/>
<text text-anchor="middle" x="518" y="-206.5" font-family="Helvetica,sans-Serif" font-size="10.00" fill="#000000">MidiIO::run_midi_thread</text>
</a>
</g>
</g>
<!-- Node53&#45;&gt;Node54 -->
<g id="edge33" class="edge">
<title>Node53&#45;&gt;Node54</title>
<path fill="none" stroke="#191970" d="M385.897,-327.2633C390.7809,-325.4466 395.5306,-323.3711 400,-321 450.1513,-294.3935 494.2929,-240.5228 510.9451,-218.6034"/>
<polygon fill="#191970" stroke="#191970" points="384.7508,-323.956 376.3776,-330.4476 386.9715,-330.5945 384.7508,-323.956"/>
</g>
<!-- Node55 -->
<g id="node28" class="node">
<title>Node55</title>
<g id="a_node28"><a xlink:href="classMidiIO.html#a222509803679fcf4bcb7b4b4a34cf0cd" target="_top" xlink:title="MidiIO::activate">
<polygon fill="#ffffff" stroke="#000000" points="669,-186.5 669,-205.5 762,-205.5 762,-186.5 669,-186.5"/>
<text text-anchor="middle" x="715.5" y="-193.5" font-family="Helvetica,sans-Serif" font-size="10.00" fill="#000000">MidiIO::activate</text>
</a>
</g>
</g>
<!-- Node54&#45;&gt;Node55 -->
<g id="edge34" class="edge">
<title>Node54&#45;&gt;Node55</title>
<path fill="none" stroke="#191970" d="M594.786,-203.9457C619.7713,-202.3011 646.7326,-200.5265 668.8238,-199.0724"/>
<polygon fill="#191970" stroke="#191970" points="594.3376,-200.4676 584.5892,-204.6169 594.7975,-207.4525 594.3376,-200.4676"/>
</g>
<!-- Node56&#45;&gt;Node54 -->
<g id="edge36" class="edge">
<title>Node56&#45;&gt;Node54</title>
<path fill="none" stroke="#191970" d="M380.1714,-289.8048C386.9693,-287.8373 393.6892,-285.5806 400,-283 441.6309,-265.9764 485.0583,-234.6261 505.695,-218.7543"/>
<polygon fill="#191970" stroke="#191970" points="378.9442,-286.5103 370.1945,-292.4846 380.7601,-293.2707 378.9442,-286.5103"/>
</g>
<!-- Node57&#45;&gt;Node54 -->
<g id="edge38" class="edge">
<title>Node57&#45;&gt;Node54</title>
<path fill="none" stroke="#191970" d="M386.1529,-240.5917C417.1441,-233.166 452.1048,-224.7891 478.2354,-218.528"/>
<polygon fill="#191970" stroke="#191970" points="385.1557,-237.2315 376.2465,-242.9654 386.7868,-244.0388 385.1557,-237.2315"/>
</g>
<!-- Node58&#45;&gt;Node54 -->
<g id="edge40" class="edge">
<title>Node58&#45;&gt;Node54</title>
<path fill="none" stroke="#191970" d="M410.2938,-209C424.1725,-209 438.1857,-209 451.3066,-209"/>
<polygon fill="#191970" stroke="#191970" points="410.2264,-205.5001 400.2264,-209 410.2264,-212.5001 410.2264,-205.5001"/>
</g>
<!-- Node59&#45;&gt;Node54 -->
<g id="edge42" class="edge">
<title>Node59&#45;&gt;Node54</title>
<path fill="none" stroke="#191970" d="M386.1529,-177.4083C417.1441,-184.834 452.1048,-193.2109 478.2354,-199.472"/>
<polygon fill="#191970" stroke="#191970" points="386.7868,-173.9612 376.2465,-175.0346 385.1557,-180.7685 386.7868,-173.9612"/>
</g>
<!-- Node60&#45;&gt;Node54 -->
<g id="edge44" class="edge">
<title>Node60&#45;&gt;Node54</title>
<path fill="none" stroke="#191970" d="M387.9337,-129.9368C392.1019,-131.7864 396.1551,-133.8032 400,-136 419.1088,-146.9179 417.841,-157.5663 436,-170 453.82,-182.2015 476.0512,-192.5129 492.8687,-199.4628"/>
<polygon fill="#191970" stroke="#191970" points="389.2419,-126.6905 378.6609,-126.1495 386.5951,-133.1708 389.2419,-126.6905"/>
</g>
<!-- Node62 -->
<g id="node35" class="node">
<title>Node62</title>
<g id="a_node35"><a xlink:href="classPatchBrowser.html#a90246446ed1a2650a2a7555f5d76c653" target="_top" xlink:title="PatchBrowser::SetMIDIFor\lPatch">
<polygon fill="#ffffff" stroke="#000000" points="447.5,-130 447.5,-160 588.5,-160 588.5,-130 447.5,-130"/>
<text text-anchor="start" x="455.5" y="-148" font-family="Helvetica,sans-Serif" font-size="10.00" fill="#000000">PatchBrowser::SetMIDIFor</text>
<text text-anchor="middle" x="518" y="-137" font-family="Helvetica,sans-Serif" font-size="10.00" fill="#000000">Patch</text>
</a>
</g>
</g>
<!-- Node61&#45;&gt;Node62 -->
<g id="edge46" class="edge">
<title>Node61&#45;&gt;Node62</title>
<path fill="none" stroke="#191970" d="M373.856,-79.0769C382.7197,-81.3905 391.6653,-84.0326 400,-87 432.6873,-98.6375 468.158,-116.9028 491.5833,-129.8226"/>
<polygon fill="#191970" stroke="#191970" points="374.4697,-75.6229 363.9204,-76.6046 372.7793,-82.4158 374.4697,-75.6229"/>
</g>
<!-- Node62&#45;&gt;Node55 -->
<g id="edge48" class="edge">
<title>Node62&#45;&gt;Node55</title>
<path fill="none" stroke="#191970" d="M586.0818,-162.5806C617.0933,-170.5886 652.5846,-179.7535 678.5473,-186.4578"/>
<polygon fill="#191970" stroke="#191970" points="586.7458,-159.1373 576.1883,-160.0258 584.9956,-165.915 586.7458,-159.1373"/>
</g>
<!-- Node63 -->
<g id="node36" class="node">
<title>Node63</title>
<g id="a_node36"><a xlink:href="classFweelin.html#acacaa80535c0688358984d2070fedb71" target="_top" xlink:title="Fweelin::ItemSelected">
<polygon fill="#ffffff" stroke="#000000" points="653,-135.5 653,-154.5 778,-154.5 778,-135.5 653,-135.5"/>
<text text-anchor="middle" x="715.5" y="-142.5" font-family="Helvetica,sans-Serif" font-size="10.00" fill="#000000">Fweelin::ItemSelected</text>
</a>
</g>
</g>
<!-- Node62&#45;&gt;Node63 -->
<g id="edge47" class="edge">
<title>Node62&#45;&gt;Node63</title>
<path fill="none" stroke="#191970" d="M598.9187,-145C616.889,-145 635.6741,-145 652.7861,-145"/>
<polygon fill="#191970" stroke="#191970" points="598.7442,-141.5001 588.7442,-145 598.7442,-148.5001 598.7442,-141.5001"/>
</g>
<!-- Node65 -->
<g id="node38" class="node">
<title>Node65</title>
<g id="a_node38"><a xlink:href="classFweelin.html#a268997890fa59492e27b4787c6bdc41f" target="_top" xlink:title="Fweelin::go">
<polygon fill="#ffffff" stroke="#000000" points="482,-38.5 482,-57.5 554,-57.5 554,-38.5 482,-38.5"/>
<text text-anchor="middle" x="518" y="-45.5" font-family="Helvetica,sans-Serif" font-size="10.00" fill="#000000">Fweelin::go</text>
</a>
</g>
</g>
<!-- Node64&#45;&gt;Node65 -->
<g id="edge50" class="edge">
<title>Node64&#45;&gt;Node65</title>
<path fill="none" stroke="#191970" d="M385.6495,-35.7034C418.2596,-38.7332 455.354,-42.1796 481.9579,-44.6513"/>
<polygon fill="#191970" stroke="#191970" points="385.9706,-32.2182 375.6897,-34.778 385.323,-39.1882 385.9706,-32.2182"/>
</g>
<!-- Node68 -->
<g id="node41" class="node">
<title>Node68</title>
<g id="a_node41"><a xlink:href="classSDLIO.html#a219c64dd0f01ca0fe0319ba7a0a3379e" target="_top" xlink:title="SDLIO::activate">
<polygon fill="#ffffff" stroke="#000000" points="472,-.5 472,-19.5 564,-19.5 564,-.5 472,-.5"/>
<text text-anchor="middle" x="518" y="-7.5" font-family="Helvetica,sans-Serif" font-size="10.00" fill="#000000">SDLIO::activate</text>
</a>
</g>
</g>
<!-- Node64&#45;&gt;Node68 -->
<g id="edge53" class="edge">
<title>Node64&#45;&gt;Node68</title>
<path fill="none" stroke="#191970" d="M386.0201,-22.2622C414.5245,-19.6139 446.4048,-16.6519 471.6911,-14.3025"/>
<polygon fill="#191970" stroke="#191970" points="385.323,-18.8118 375.6897,-23.222 385.9706,-25.7818 385.323,-18.8118"/>
</g>
<!-- Node66 -->
<g id="node39" class="node">
<title>Node66</title>
<g id="a_node39"><a xlink:href="fweelin_8cc.html#a97b0fa62b7b0972875f5f589322c4c24" target="_top" xlink:title="main">
<polygon fill="#ffffff" stroke="#000000" points="695,-57.5 695,-76.5 736,-76.5 736,-57.5 695,-57.5"/>
<text text-anchor="middle" x="715.5" y="-64.5" font-family="Helvetica,sans-Serif" font-size="10.00" fill="#000000">main</text>
</a>
</g>
</g>
<!-- Node65&#45;&gt;Node66 -->
<g id="edge51" class="edge">
<title>Node65&#45;&gt;Node66</title>
<path fill="none" stroke="#191970" d="M564.3344,-52.4575C605.6701,-56.4341 664.2593,-62.0705 694.9432,-65.0224"/>
<polygon fill="#191970" stroke="#191970" points="564.5138,-48.9587 554.2245,-51.4849 563.8434,-55.9265 564.5138,-48.9587"/>
</g>
<!-- Node67 -->
<g id="node40" class="node">
<title>Node67</title>
<g id="a_node40"><a xlink:href="classLoopTray.html#a307e6abe64c403e39fc463ec282bde27" target="_top" xlink:title="LoopTray::Draw">
<polygon fill="#ffffff" stroke="#000000" points="670,-19.5 670,-38.5 761,-38.5 761,-19.5 670,-19.5"/>
<text text-anchor="middle" x="715.5" y="-26.5" font-family="Helvetica,sans-Serif" font-size="10.00" fill="#000000">LoopTray::Draw</text>
</a>
</g>
</g>
<!-- Node65&#45;&gt;Node67 -->
<g id="edge52" class="edge">
<title>Node65&#45;&gt;Node67</title>
<path fill="none" stroke="#191970" d="M564.5782,-43.5191C596.3367,-40.4638 638.1944,-36.437 669.7708,-33.3993"/>
<polygon fill="#191970" stroke="#191970" points="563.8434,-40.0735 554.2245,-44.5151 564.5138,-47.0413 563.8434,-40.0735"/>
</g>
</g>
</svg>
