<?xml version="1.0" encoding="UTF-8" standalone="no"?>
<!DOCTYPE svg PUBLIC "-//W3C//DTD SVG 1.1//EN"
 "http://www.w3.org/Graphics/SVG/1.1/DTD/svg11.dtd">
<!-- Generated by graphviz version 2.40.1 (20161225.0304)
 -->
<!-- Title: InputMatrix::CheckConditions Pages: 1 -->
<svg width="782pt" height="47pt"
 viewBox="0.00 0.00 782.00 47.00" xmlns="http://www.w3.org/2000/svg" xmlns:xlink="http://www.w3.org/1999/xlink">
<g id="graph0" class="graph" transform="scale(1 1) rotate(0) translate(4 43)">
<title>InputMatrix::CheckConditions</title>
<polygon fill="#ffffff" stroke="transparent" points="-4,4 -4,-43 778,-43 778,4 -4,4"/>
<!-- Node15 -->
<g id="node1" class="node">
<title>Node15</title>
<polygon fill="#bfbfbf" stroke="#000000" points="0,-19.5 0,-38.5 160,-38.5 160,-19.5 0,-19.5"/>
<text text-anchor="middle" x="80" y="-26.5" font-family="Helvetica,sans-Serif" font-size="10.00" fill="#000000">InputMatrix::CheckConditions</text>
</g>
<!-- Node16 -->
<g id="node2" class="node">
<title>Node16</title>
<g id="a_node2"><a xlink:href="classCfgToken.html#a5e30ffe3bc7cf2483e390cf023eaa6c0" target="_top" xlink:title="CfgToken::Evaluate">
<polygon fill="#ffffff" stroke="#000000" points="383,-19.5 383,-38.5 493,-38.5 493,-19.5 383,-19.5"/>
<text text-anchor="middle" x="438" y="-26.5" font-family="Helvetica,sans-Serif" font-size="10.00" fill="#000000">CfgToken::Evaluate</text>
</a>
</g>
</g>
<!-- Node15&#45;&gt;Node16 -->
<g id="edge1" class="edge">
<title>Node15&#45;&gt;Node16</title>
<path fill="none" stroke="#191970" d="M160.3422,-29C224.4574,-29 313.1308,-29 372.8701,-29"/>
<polygon fill="#191970" stroke="#191970" points="372.9372,-32.5001 382.9372,-29 372.9372,-25.5001 372.9372,-32.5001"/>
</g>
<!-- Node19 -->
<g id="node5" class="node">
<title>Node19</title>
<g id="a_node5"><a xlink:href="classParsedExpression.html#a8b8c5462181f05c11f51df722809ac7e" target="_top" xlink:title="ParsedExpression::Evaluate">
<polygon fill="#ffffff" stroke="#000000" points="196,-.5 196,-19.5 347,-19.5 347,-.5 196,-.5"/>
<text text-anchor="middle" x="271.5" y="-7.5" font-family="Helvetica,sans-Serif" font-size="10.00" fill="#000000">ParsedExpression::Evaluate</text>
</a>
</g>
</g>
<!-- Node15&#45;&gt;Node19 -->
<g id="edge4" class="edge">
<title>Node15&#45;&gt;Node19</title>
<path fill="none" stroke="#191970" d="M160.1037,-21.0524C168.4832,-20.221 177.027,-19.3733 185.4691,-18.5357"/>
<polygon fill="#191970" stroke="#191970" points="186.0926,-21.9911 195.6981,-17.5208 185.4014,-15.0253 186.0926,-21.9911"/>
</g>
<!-- Node17 -->
<g id="node3" class="node">
<title>Node17</title>
<g id="a_node3"><a xlink:href="classUserVariable.html#a7cbb83559d78173a8b7810c3ecc3842f" target="_top" xlink:title="UserVariable::SetFrom">
<polygon fill="#ffffff" stroke="#000000" points="529,-19.5 529,-38.5 654,-38.5 654,-19.5 529,-19.5"/>
<text text-anchor="middle" x="591.5" y="-26.5" font-family="Helvetica,sans-Serif" font-size="10.00" fill="#000000">UserVariable::SetFrom</text>
</a>
</g>
</g>
<!-- Node16&#45;&gt;Node17 -->
<g id="edge2" class="edge">
<title>Node16&#45;&gt;Node17</title>
<path fill="none" stroke="#191970" d="M493.417,-29C501.598,-29 510.1303,-29 518.5998,-29"/>
<polygon fill="#191970" stroke="#191970" points="518.872,-32.5001 528.872,-29 518.8719,-25.5001 518.872,-32.5001"/>
</g>
<!-- Node18 -->
<g id="node4" class="node">
<title>Node18</title>
<g id="a_node4"><a xlink:href="classRange.html#a378dde258315602c6929b84cb10f8f8d" target="_top" xlink:title="Range::Range">
<polygon fill="#ffffff" stroke="#000000" points="690,-19.5 690,-38.5 774,-38.5 774,-19.5 690,-19.5"/>
<text text-anchor="middle" x="732" y="-26.5" font-family="Helvetica,sans-Serif" font-size="10.00" fill="#000000">Range::Range</text>
</a>
</g>
</g>
<!-- Node17&#45;&gt;Node18 -->
<g id="edge3" class="edge">
<title>Node17&#45;&gt;Node18</title>
<path fill="none" stroke="#191970" d="M654.353,-29C662.7782,-29 671.347,-29 679.5672,-29"/>
<polygon fill="#191970" stroke="#191970" points="679.7561,-32.5001 689.7561,-29 679.756,-25.5001 679.7561,-32.5001"/>
</g>
<!-- Node19&#45;&gt;Node16 -->
<g id="edge5" class="edge">
<title>Node19&#45;&gt;Node16</title>
<path fill="none" stroke="#191970" d="M347.4415,-18.666C355.856,-19.6262 364.3709,-20.5979 372.6387,-21.5414"/>
<polygon fill="#191970" stroke="#191970" points="372.2454,-25.0191 382.5778,-22.6755 373.0391,-18.0642 372.2454,-25.0191"/>
</g>
</g>
</svg>
