<?xml version="1.0" encoding="UTF-8" standalone="no"?>
<!DOCTYPE svg PUBLIC "-//W3C//DTD SVG 1.1//EN"
 "http://www.w3.org/Graphics/SVG/1.1/DTD/svg11.dtd">
<!-- Generated by graphviz version 2.40.1 (20161225.0304)
 -->
<!-- Title: EventManager::EventManager Pages: 1 -->
<svg width="792pt" height="142pt"
 viewBox="0.00 0.00 792.00 142.00" xmlns="http://www.w3.org/2000/svg" xmlns:xlink="http://www.w3.org/1999/xlink">
<g id="graph0" class="graph" transform="scale(1 1) rotate(0) translate(4 138)">
<title>EventManager::EventManager</title>
<polygon fill="#ffffff" stroke="transparent" points="-4,4 -4,-138 788,-138 788,4 -4,4"/>
<!-- Node0 -->
<g id="node1" class="node">
<title>Node0</title>
<polygon fill="#bfbfbf" stroke="#000000" points="0,-32.5 0,-51.5 162,-51.5 162,-32.5 0,-32.5"/>
<text text-anchor="middle" x="81" y="-39.5" font-family="Helvetica,sans-Serif" font-size="10.00" fill="#000000">EventManager::EventManager</text>
</g>
<!-- Node1 -->
<g id="node2" class="node">
<title>Node1</title>
<g id="a_node2"><a xlink:href="classEventManager.html#ab363d5886ccb130eaab896bf0f7faebb" target="_top" xlink:title="EventManager::run_dispatch\l_thread">
<polygon fill="#ffffff" stroke="#000000" points="204.5,-52 204.5,-82 359.5,-82 359.5,-52 204.5,-52"/>
<text text-anchor="start" x="212.5" y="-70" font-family="Helvetica,sans-Serif" font-size="10.00" fill="#000000">EventManager::run_dispatch</text>
<text text-anchor="middle" x="282" y="-59" font-family="Helvetica,sans-Serif" font-size="10.00" fill="#000000">_thread</text>
</a>
</g>
</g>
<!-- Node0&#45;&gt;Node1 -->
<g id="edge1" class="edge">
<title>Node0&#45;&gt;Node1</title>
<path fill="none" stroke="#191970" d="M157.5629,-51.5227C169.5239,-53.0104 181.9651,-54.5579 194.1541,-56.0739"/>
<polygon fill="#191970" stroke="#191970" points="193.9618,-59.5769 204.3174,-57.338 194.8258,-52.6304 193.9618,-59.5769"/>
</g>
<!-- Node8 -->
<g id="node9" class="node">
<title>Node8</title>
<g id="a_node9"><a xlink:href="classRT__RWThreads.html#af83b41e330638728272af35ff18dfa01" target="_top" xlink:title="RT_RWThreads::RegisterReader\lOrWriter">
<polygon fill="#ffffff" stroke="#000000" points="198,-3 198,-33 366,-33 366,-3 198,-3"/>
<text text-anchor="start" x="206" y="-21" font-family="Helvetica,sans-Serif" font-size="10.00" fill="#000000">RT_RWThreads::RegisterReader</text>
<text text-anchor="middle" x="282" y="-10" font-family="Helvetica,sans-Serif" font-size="10.00" fill="#000000">OrWriter</text>
</a>
</g>
</g>
<!-- Node0&#45;&gt;Node8 -->
<g id="edge9" class="edge">
<title>Node0&#45;&gt;Node8</title>
<path fill="none" stroke="#191970" d="M160.7292,-32.4801C169.5687,-31.4246 178.6324,-30.3424 187.6303,-29.268"/>
<polygon fill="#191970" stroke="#191970" points="188.2313,-32.7212 197.7458,-28.0602 187.4013,-25.7706 188.2313,-32.7212"/>
</g>
<!-- Node2 -->
<g id="node3" class="node">
<title>Node2</title>
<g id="a_node3"><a xlink:href="classSRMWRingBuffer.html#ae907e34d6dc9fff4f1e3955dd3aa53b7" target="_top" xlink:title="SRMWRingBuffer::ReadElement">
<polygon fill="#ffffff" stroke="#000000" points="413,-114.5 413,-133.5 582,-133.5 582,-114.5 413,-114.5"/>
<text text-anchor="middle" x="497.5" y="-121.5" font-family="Helvetica,sans-Serif" font-size="10.00" fill="#000000">SRMWRingBuffer::ReadElement</text>
</a>
</g>
</g>
<!-- Node1&#45;&gt;Node2 -->
<g id="edge2" class="edge">
<title>Node1&#45;&gt;Node2</title>
<path fill="none" stroke="#191970" d="M325.5512,-82.0666C348.181,-89.5696 376.39,-98.4189 402,-105 412.4044,-107.6737 423.528,-110.1907 434.3726,-112.4642"/>
<polygon fill="#191970" stroke="#191970" points="433.7261,-115.9043 444.2249,-114.481 435.13,-109.0465 433.7261,-115.9043"/>
</g>
<!-- Node3 -->
<g id="node4" class="node">
<title>Node3</title>
<g id="a_node4"><a xlink:href="classPreallocated.html#ac10843af6524399980eef0a2b5c2e91f" target="_top" xlink:title="Preallocated::GetMgr">
<polygon fill="#ffffff" stroke="#000000" points="438,-76.5 438,-95.5 557,-95.5 557,-76.5 438,-76.5"/>
<text text-anchor="middle" x="497.5" y="-83.5" font-family="Helvetica,sans-Serif" font-size="10.00" fill="#000000">Preallocated::GetMgr</text>
</a>
</g>
</g>
<!-- Node1&#45;&gt;Node3 -->
<g id="edge3" class="edge">
<title>Node1&#45;&gt;Node3</title>
<path fill="none" stroke="#191970" d="M359.8004,-73.8594C381.9691,-75.814 405.9751,-77.9305 427.6394,-79.8406"/>
<polygon fill="#191970" stroke="#191970" points="427.4708,-83.3392 437.7395,-80.7311 428.0856,-76.3663 427.4708,-83.3392"/>
</g>
<!-- Node4 -->
<g id="node5" class="node">
<title>Node4</title>
<g id="a_node5"><a xlink:href="classEventManager.html#a4a73f2e7ff1724f28427f7c0d5725c8e" target="_top" xlink:title="EventManager::BroadcastEventNow">
<polygon fill="#ffffff" stroke="#000000" points="402,-38.5 402,-57.5 593,-57.5 593,-38.5 402,-38.5"/>
<text text-anchor="middle" x="497.5" y="-45.5" font-family="Helvetica,sans-Serif" font-size="10.00" fill="#000000">EventManager::BroadcastEventNow</text>
</a>
</g>
</g>
<!-- Node1&#45;&gt;Node4 -->
<g id="edge4" class="edge">
<title>Node1&#45;&gt;Node4</title>
<path fill="none" stroke="#191970" d="M359.8004,-60.1406C370.1244,-59.2303 380.8469,-58.285 391.5458,-57.3417"/>
<polygon fill="#191970" stroke="#191970" points="392.1285,-60.804 401.7824,-56.4391 391.5137,-53.831 392.1285,-60.804"/>
</g>
<!-- Node7 -->
<g id="node8" class="node">
<title>Node7</title>
<g id="a_node8"><a xlink:href="classPreallocated.html#aaf2139a79ca16de70acd9bc4564171b7" target="_top" xlink:title="Preallocated::RTDelete">
<polygon fill="#ffffff" stroke="#000000" points="642.5,-.5 642.5,-19.5 770.5,-19.5 770.5,-.5 642.5,-.5"/>
<text text-anchor="middle" x="706.5" y="-7.5" font-family="Helvetica,sans-Serif" font-size="10.00" fill="#000000">Preallocated::RTDelete</text>
</a>
</g>
</g>
<!-- Node1&#45;&gt;Node7 -->
<g id="edge8" class="edge">
<title>Node1&#45;&gt;Node7</title>
<path fill="none" stroke="#191970" d="M337.3501,-51.9741C346.9501,-49.1436 356.8001,-46.0957 366,-43 382.2708,-37.5249 385.2339,-32.6895 402,-29 479.3003,-11.9896 570.1082,-8.3639 632.3165,-8.2931"/>
<polygon fill="#191970" stroke="#191970" points="632.426,-11.7932 642.4327,-8.3126 632.4395,-4.7932 632.426,-11.7932"/>
</g>
<!-- Node5 -->
<g id="node6" class="node">
<title>Node5</title>
<g id="a_node6"><a xlink:href="classEvent.html#ac4c4170579544b41dff38ca1b8110e30" target="_top" xlink:title="Event::GetType">
<polygon fill="#ffffff" stroke="#000000" points="661.5,-76.5 661.5,-95.5 751.5,-95.5 751.5,-76.5 661.5,-76.5"/>
<text text-anchor="middle" x="706.5" y="-83.5" font-family="Helvetica,sans-Serif" font-size="10.00" fill="#000000">Event::GetType</text>
</a>
</g>
</g>
<!-- Node4&#45;&gt;Node5 -->
<g id="edge5" class="edge">
<title>Node4&#45;&gt;Node5</title>
<path fill="none" stroke="#191970" d="M549.9698,-57.54C580.9568,-63.174 620.1385,-70.2979 651.5488,-76.0089"/>
<polygon fill="#191970" stroke="#191970" points="650.9888,-79.4644 661.4536,-77.8097 652.241,-72.5773 650.9888,-79.4644"/>
</g>
<!-- Node6 -->
<g id="node7" class="node">
<title>Node6</title>
<g id="a_node7"><a xlink:href="classEventListener.html#a831820a9229e852bd7e2fad686b725b2" target="_top" xlink:title="EventListener::ReceiveEvent">
<polygon fill="#ffffff" stroke="#000000" points="629,-38.5 629,-57.5 784,-57.5 784,-38.5 629,-38.5"/>
<text text-anchor="middle" x="706.5" y="-45.5" font-family="Helvetica,sans-Serif" font-size="10.00" fill="#000000">EventListener::ReceiveEvent</text>
</a>
</g>
</g>
<!-- Node4&#45;&gt;Node6 -->
<g id="edge6" class="edge">
<title>Node4&#45;&gt;Node6</title>
<path fill="none" stroke="#191970" d="M593.1311,-48C601.6132,-48 610.1737,-48 618.5871,-48"/>
<polygon fill="#191970" stroke="#191970" points="618.7614,-51.5001 628.7614,-48 618.7614,-44.5001 618.7614,-51.5001"/>
</g>
<!-- Node4&#45;&gt;Node7 -->
<g id="edge7" class="edge">
<title>Node4&#45;&gt;Node7</title>
<path fill="none" stroke="#191970" d="M549.9698,-38.46C578.5413,-33.2652 614.0796,-26.8037 644.0691,-21.3511"/>
<polygon fill="#191970" stroke="#191970" points="644.7961,-24.7764 654.0087,-19.5439 643.5438,-17.8893 644.7961,-24.7764"/>
</g>
</g>
</svg>
