<?xml version="1.0" encoding="UTF-8" standalone="no"?>
<!DOCTYPE svg PUBLIC "-//W3C//DTD SVG 1.1//EN"
 "http://www.w3.org/Graphics/SVG/1.1/DTD/svg11.dtd">
<!-- Generated by graphviz version 2.40.1 (20161225.0304)
 -->
<!-- Title: PassthroughProcessor::process Pages: 1 -->
<svg width="463pt" height="161pt"
 viewBox="0.00 0.00 463.00 161.00" xmlns="http://www.w3.org/2000/svg" xmlns:xlink="http://www.w3.org/1999/xlink">
<g id="graph0" class="graph" transform="scale(1 1) rotate(0) translate(4 157)">
<title>PassthroughProcessor::process</title>
<polygon fill="#ffffff" stroke="transparent" points="-4,4 -4,-157 459,-157 459,4 -4,4"/>
<!-- Node5 -->
<g id="node1" class="node">
<title>Node5</title>
<polygon fill="#bfbfbf" stroke="#000000" points="0,-71 0,-101 123,-101 123,-71 0,-71"/>
<text text-anchor="start" x="8" y="-89" font-family="Helvetica,sans-Serif" font-size="10.00" fill="#000000">PassthroughProcessor</text>
<text text-anchor="middle" x="61.5" y="-78" font-family="Helvetica,sans-Serif" font-size="10.00" fill="#000000">::process</text>
</g>
<!-- Node6 -->
<g id="node2" class="node">
<title>Node6</title>
<g id="a_node2"><a xlink:href="classFweelin.html#a538440216608aed67e6940c2903c3072" target="_top" xlink:title="Fweelin::getBUFSZ">
<polygon fill="#ffffff" stroke="#000000" points="181,-133.5 181,-152.5 289,-152.5 289,-133.5 181,-133.5"/>
<text text-anchor="middle" x="235" y="-140.5" font-family="Helvetica,sans-Serif" font-size="10.00" fill="#000000">Fweelin::getBUFSZ</text>
</a>
</g>
</g>
<!-- Node5&#45;&gt;Node6 -->
<g id="edge1" class="edge">
<title>Node5&#45;&gt;Node6</title>
<path fill="none" stroke="#191970" d="M97.2265,-101.1779C115.5056,-108.6216 138.2272,-117.3847 159,-124 166.7391,-126.4646 175.0033,-128.8133 183.1264,-130.966"/>
<polygon fill="#191970" stroke="#191970" points="182.363,-134.3835 192.92,-133.4893 184.1095,-127.6049 182.363,-134.3835"/>
</g>
<!-- Node7 -->
<g id="node3" class="node">
<title>Node7</title>
<g id="a_node3"><a xlink:href="classFweelin.html#a681d7ca8d0789199af135f22c26a5409" target="_top" xlink:title="Fweelin::getCFG">
<polygon fill="#ffffff" stroke="#000000" points="187.5,-95.5 187.5,-114.5 282.5,-114.5 282.5,-95.5 187.5,-95.5"/>
<text text-anchor="middle" x="235" y="-102.5" font-family="Helvetica,sans-Serif" font-size="10.00" fill="#000000">Fweelin::getCFG</text>
</a>
</g>
</g>
<!-- Node5&#45;&gt;Node7 -->
<g id="edge2" class="edge">
<title>Node5&#45;&gt;Node7</title>
<path fill="none" stroke="#191970" d="M123.1581,-92.7522C140.8264,-94.687 160.014,-96.7883 177.4265,-98.6951"/>
<polygon fill="#191970" stroke="#191970" points="177.1272,-102.1832 187.4488,-99.7927 177.8892,-95.2248 177.1272,-102.1832"/>
</g>
<!-- Node8 -->
<g id="node4" class="node">
<title>Node8</title>
<g id="a_node4"><a xlink:href="classFloConfig.html#a465f1edaef4e52387aedb29f0e28e574" target="_top" xlink:title="FloConfig::IsInputMonitoring">
<polygon fill="#ffffff" stroke="#000000" points="159,-57.5 159,-76.5 311,-76.5 311,-57.5 159,-57.5"/>
<text text-anchor="middle" x="235" y="-64.5" font-family="Helvetica,sans-Serif" font-size="10.00" fill="#000000">FloConfig::IsInputMonitoring</text>
</a>
</g>
</g>
<!-- Node5&#45;&gt;Node8 -->
<g id="edge3" class="edge">
<title>Node5&#45;&gt;Node8</title>
<path fill="none" stroke="#191970" d="M123.1581,-79.2478C131.4889,-78.3355 140.1574,-77.3862 148.8184,-76.4378"/>
<polygon fill="#191970" stroke="#191970" points="149.402,-79.8949 158.9615,-75.327 148.6399,-72.9365 149.402,-79.8949"/>
</g>
<!-- Node9 -->
<g id="node5" class="node">
<title>Node9</title>
<g id="a_node5"><a xlink:href="classAudioBuffers.html#a0ef951c1d9fa74a04d269cf8cbfe218d" target="_top" xlink:title="AudioBuffers::MixInputs">
<polygon fill="#ffffff" stroke="#000000" points="169,-19.5 169,-38.5 301,-38.5 301,-19.5 169,-19.5"/>
<text text-anchor="middle" x="235" y="-26.5" font-family="Helvetica,sans-Serif" font-size="10.00" fill="#000000">AudioBuffers::MixInputs</text>
</a>
</g>
</g>
<!-- Node5&#45;&gt;Node9 -->
<g id="edge4" class="edge">
<title>Node5&#45;&gt;Node9</title>
<path fill="none" stroke="#191970" d="M97.2265,-70.8221C115.5056,-63.3784 138.2272,-54.6153 159,-48 166.7391,-45.5354 175.0033,-43.1867 183.1264,-41.034"/>
<polygon fill="#191970" stroke="#191970" points="184.1095,-44.3951 192.92,-38.5107 182.363,-37.6165 184.1095,-44.3951"/>
</g>
<!-- Node10 -->
<g id="node6" class="node">
<title>Node10</title>
<g id="a_node6"><a xlink:href="classFweelin.html#acb51892233f08f4b0b9f2e7d7a625448" target="_top" xlink:title="Fweelin::getAUDIO">
<polygon fill="#ffffff" stroke="#000000" points="347,-38.5 347,-57.5 455,-57.5 455,-38.5 347,-38.5"/>
<text text-anchor="middle" x="401" y="-45.5" font-family="Helvetica,sans-Serif" font-size="10.00" fill="#000000">Fweelin::getAUDIO</text>
</a>
</g>
</g>
<!-- Node9&#45;&gt;Node10 -->
<g id="edge5" class="edge">
<title>Node9&#45;&gt;Node10</title>
<path fill="none" stroke="#191970" d="M301.0846,-36.5639C312.8328,-37.9086 325.0531,-39.3073 336.7494,-40.646"/>
<polygon fill="#191970" stroke="#191970" points="336.5347,-44.1442 346.8679,-41.8042 337.3308,-37.1896 336.5347,-44.1442"/>
</g>
<!-- Node11 -->
<g id="node7" class="node">
<title>Node11</title>
<g id="a_node7"><a xlink:href="classAudioIO.html#ab175bb73ae9aadb84940dace46c71fd8" target="_top" xlink:title="AudioIO::get_srate">
<polygon fill="#ffffff" stroke="#000000" points="347.5,-.5 347.5,-19.5 454.5,-19.5 454.5,-.5 347.5,-.5"/>
<text text-anchor="middle" x="401" y="-7.5" font-family="Helvetica,sans-Serif" font-size="10.00" fill="#000000">AudioIO::get_srate</text>
</a>
</g>
</g>
<!-- Node9&#45;&gt;Node11 -->
<g id="edge6" class="edge">
<title>Node9&#45;&gt;Node11</title>
<path fill="none" stroke="#191970" d="M301.0846,-21.4361C312.9726,-20.0754 325.3442,-18.6594 337.1669,-17.3062"/>
<polygon fill="#191970" stroke="#191970" points="337.8522,-20.7507 347.3893,-16.1362 337.0561,-13.7961 337.8522,-20.7507"/>
</g>
</g>
</svg>
