<?xml version="1.0" encoding="UTF-8" standalone="no"?>
<!DOCTYPE svg PUBLIC "-//W3C//DTD SVG 1.1//EN"
 "http://www.w3.org/Graphics/SVG/1.1/DTD/svg11.dtd">
<!-- Generated by graphviz version 2.40.1 (20161225.0304)
 -->
<!-- Title: LoopManager::ItemRenamed Pages: 1 -->
<svg width="689pt" height="268pt"
 viewBox="0.00 0.00 689.00 267.50" xmlns="http://www.w3.org/2000/svg" xmlns:xlink="http://www.w3.org/1999/xlink">
<g id="graph0" class="graph" transform="scale(1 1) rotate(0) translate(4 263.5)">
<title>LoopManager::ItemRenamed</title>
<polygon fill="#ffffff" stroke="transparent" points="-4,4 -4,-263.5 685,-263.5 685,4 -4,4"/>
<!-- Node621 -->
<g id="node1" class="node">
<title>Node621</title>
<polygon fill="#bfbfbf" stroke="#000000" points="0,-126 0,-145 156,-145 156,-126 0,-126"/>
<text text-anchor="middle" x="78" y="-133" font-family="Helvetica,sans-Serif" font-size="10.00" fill="#000000">LoopManager::ItemRenamed</text>
</g>
<!-- Node622 -->
<g id="node2" class="node">
<title>Node622</title>
<g id="a_node2"><a xlink:href="classFweelin.html#a681d7ca8d0789199af135f22c26a5409" target="_top" xlink:title="Fweelin::getCFG">
<polygon fill="#ffffff" stroke="#000000" points="223.5,-240 223.5,-259 318.5,-259 318.5,-240 223.5,-240"/>
<text text-anchor="middle" x="271" y="-247" font-family="Helvetica,sans-Serif" font-size="10.00" fill="#000000">Fweelin::getCFG</text>
</a>
</g>
</g>
<!-- Node621&#45;&gt;Node622 -->
<g id="edge1" class="edge">
<title>Node621&#45;&gt;Node622</title>
<path fill="none" stroke="#191970" d="M86.6863,-145.271C104.4601,-164.6355 147.105,-207.9551 192,-230.5 198.7492,-233.8892 206.1307,-236.6919 213.5849,-239.005"/>
<polygon fill="#191970" stroke="#191970" points="212.804,-242.4214 223.3789,-241.7721 214.7072,-235.6851 212.804,-242.4214"/>
</g>
<!-- Node623 -->
<g id="node3" class="node">
<title>Node623</title>
<g id="a_node3"><a xlink:href="classFloConfig.html#a093cc61cbfbab35ca8ab89dc113922dc" target="_top" xlink:title="FloConfig::GetAudioFileExt">
<polygon fill="#ffffff" stroke="#000000" points="198.5,-202 198.5,-221 343.5,-221 343.5,-202 198.5,-202"/>
<text text-anchor="middle" x="271" y="-209" font-family="Helvetica,sans-Serif" font-size="10.00" fill="#000000">FloConfig::GetAudioFileExt</text>
</a>
</g>
</g>
<!-- Node621&#45;&gt;Node623 -->
<g id="edge2" class="edge">
<title>Node621&#45;&gt;Node623</title>
<path fill="none" stroke="#191970" d="M94.0907,-145.022C115.7073,-157.465 155.622,-179.2278 192,-192.5 199.0028,-195.0549 206.4807,-197.3647 213.9392,-199.4215"/>
<polygon fill="#191970" stroke="#191970" points="213.1306,-202.8278 223.6914,-201.9793 214.9065,-196.0568 213.1306,-202.8278"/>
</g>
<!-- Node624 -->
<g id="node4" class="node">
<title>Node624</title>
<g id="a_node4"><a xlink:href="classSaveable.html#adae4cd33642810eed468c68042afe01e" target="_top" xlink:title="Saveable::RenameSaveable">
<polygon fill="#ffffff" stroke="#000000" points="195,-164 195,-183 347,-183 347,-164 195,-164"/>
<text text-anchor="middle" x="271" y="-171" font-family="Helvetica,sans-Serif" font-size="10.00" fill="#000000">Saveable::RenameSaveable</text>
</a>
</g>
</g>
<!-- Node621&#45;&gt;Node624 -->
<g id="edge3" class="edge">
<title>Node621&#45;&gt;Node624</title>
<path fill="none" stroke="#191970" d="M126.702,-145.089C152.8588,-150.239 185.2837,-156.6232 212.7671,-162.0344"/>
<polygon fill="#191970" stroke="#191970" points="212.1604,-165.4821 222.6482,-163.9799 213.5127,-158.614 212.1604,-165.4821"/>
</g>
<!-- Node626 -->
<g id="node6" class="node">
<title>Node626</title>
<g id="a_node6"><a xlink:href="classFloConfig.html#a9acc5e0790ab29fe30856d58c5ffa0e8" target="_top" xlink:title="FloConfig::GetLibraryPath">
<polygon fill="#ffffff" stroke="#000000" points="201,-126 201,-145 341,-145 341,-126 201,-126"/>
<text text-anchor="middle" x="271" y="-133" font-family="Helvetica,sans-Serif" font-size="10.00" fill="#000000">FloConfig::GetLibraryPath</text>
</a>
</g>
</g>
<!-- Node621&#45;&gt;Node626 -->
<g id="edge5" class="edge">
<title>Node621&#45;&gt;Node626</title>
<path fill="none" stroke="#191970" d="M156.2223,-135.5C167.5023,-135.5 179.1282,-135.5 190.4527,-135.5"/>
<polygon fill="#191970" stroke="#191970" points="190.7494,-139.0001 200.7494,-135.5 190.7494,-132.0001 190.7494,-139.0001"/>
</g>
<!-- Node627 -->
<g id="node7" class="node">
<title>Node627</title>
<g id="a_node7"><a xlink:href="classFweelin.html#a8c82599ae1dafbc94ce4741de86f12bd" target="_top" xlink:title="Fweelin::getBROWSER">
<polygon fill="#ffffff" stroke="#000000" points="208.5,-88 208.5,-107 333.5,-107 333.5,-88 208.5,-88"/>
<text text-anchor="middle" x="271" y="-95" font-family="Helvetica,sans-Serif" font-size="10.00" fill="#000000">Fweelin::getBROWSER</text>
</a>
</g>
</g>
<!-- Node621&#45;&gt;Node627 -->
<g id="edge6" class="edge">
<title>Node621&#45;&gt;Node627</title>
<path fill="none" stroke="#191970" d="M126.702,-125.911C152.8588,-120.761 185.2837,-114.3768 212.7671,-108.9656"/>
<polygon fill="#191970" stroke="#191970" points="213.5127,-112.386 222.6482,-107.0201 212.1604,-105.5179 213.5127,-112.386"/>
</g>
<!-- Node628 -->
<g id="node8" class="node">
<title>Node628</title>
<g id="a_node8"><a xlink:href="classLoopManager.html#afe784bb20bf5fc2605fdc3273b3c1be8" target="_top" xlink:title="LoopManager::RenameLoop">
<polygon fill="#ffffff" stroke="#000000" points="195.5,-50 195.5,-69 346.5,-69 346.5,-50 195.5,-50"/>
<text text-anchor="middle" x="271" y="-57" font-family="Helvetica,sans-Serif" font-size="10.00" fill="#000000">LoopManager::RenameLoop</text>
</a>
</g>
</g>
<!-- Node621&#45;&gt;Node628 -->
<g id="edge7" class="edge">
<title>Node621&#45;&gt;Node628</title>
<path fill="none" stroke="#191970" d="M94.0907,-125.978C115.7073,-113.535 155.622,-91.7722 192,-78.5 199.0028,-75.9451 206.4807,-73.6353 213.9392,-71.5785"/>
<polygon fill="#191970" stroke="#191970" points="214.9065,-74.9432 223.6914,-69.0207 213.1306,-68.1722 214.9065,-74.9432"/>
</g>
<!-- Node633 -->
<g id="node13" class="node">
<title>Node633</title>
<g id="a_node13"><a xlink:href="classLoopTray.html#a2bbe0c7c1a38e03de0d315a9c68befcc" target="_top" xlink:title="LoopTray::ItemRenamedFrom\lOutside">
<polygon fill="#ffffff" stroke="#000000" points="192,-.5 192,-30.5 350,-30.5 350,-.5 192,-.5"/>
<text text-anchor="start" x="200" y="-18.5" font-family="Helvetica,sans-Serif" font-size="10.00" fill="#000000">LoopTray::ItemRenamedFrom</text>
<text text-anchor="middle" x="271" y="-7.5" font-family="Helvetica,sans-Serif" font-size="10.00" fill="#000000">Outside</text>
</a>
</g>
</g>
<!-- Node621&#45;&gt;Node633 -->
<g id="edge12" class="edge">
<title>Node621&#45;&gt;Node633</title>
<path fill="none" stroke="#191970" d="M86.8263,-125.9959C104.8519,-107.1115 147.9269,-64.6122 192,-40.5 196.0129,-38.3046 200.2477,-36.2688 204.5873,-34.387"/>
<polygon fill="#191970" stroke="#191970" points="206.2418,-37.4939 214.2097,-30.5108 203.6262,-31.0009 206.2418,-37.4939"/>
</g>
<!-- Node625 -->
<g id="node5" class="node">
<title>Node625</title>
<g id="a_node5"><a xlink:href="classSaveable.html#a4e8b7b5e6fe537a5c68c35927741a6e3" target="_top" xlink:title="Saveable::SplitFilename">
<polygon fill="#ffffff" stroke="#000000" points="392,-164 392,-183 526,-183 526,-164 392,-164"/>
<text text-anchor="middle" x="459" y="-171" font-family="Helvetica,sans-Serif" font-size="10.00" fill="#000000">Saveable::SplitFilename</text>
</a>
</g>
</g>
<!-- Node624&#45;&gt;Node625 -->
<g id="edge4" class="edge">
<title>Node624&#45;&gt;Node625</title>
<path fill="none" stroke="#191970" d="M347.1958,-173.5C358.4953,-173.5 370.1512,-173.5 381.4775,-173.5"/>
<polygon fill="#191970" stroke="#191970" points="381.767,-177.0001 391.767,-173.5 381.7669,-170.0001 381.767,-177.0001"/>
</g>
<!-- Node629 -->
<g id="node9" class="node">
<title>Node629</title>
<g id="a_node9"><a xlink:href="classLoopManager.html#ab5444c4b3ee3ccbab1160e23d7363752" target="_top" xlink:title="LoopManager::GetSlot">
<polygon fill="#ffffff" stroke="#000000" points="397,-69 397,-88 521,-88 521,-69 397,-69"/>
<text text-anchor="middle" x="459" y="-76" font-family="Helvetica,sans-Serif" font-size="10.00" fill="#000000">LoopManager::GetSlot</text>
</a>
</g>
</g>
<!-- Node628&#45;&gt;Node629 -->
<g id="edge8" class="edge">
<title>Node628&#45;&gt;Node629</title>
<path fill="none" stroke="#191970" d="M346.6541,-67.1459C359.7772,-68.4722 373.3965,-69.8486 386.4348,-71.1663"/>
<polygon fill="#191970" stroke="#191970" points="386.4447,-74.685 396.746,-72.2084 387.1486,-67.7205 386.4447,-74.685"/>
</g>
<!-- Node632 -->
<g id="node12" class="node">
<title>Node632</title>
<g id="a_node12"><a xlink:href="classItemRenamer.html#adb9e449a8d5862f50921782c637e5a43" target="_top" xlink:title="ItemRenamer::IsRenaming">
<polygon fill="#ffffff" stroke="#000000" points="386,-31 386,-50 532,-50 532,-31 386,-31"/>
<text text-anchor="middle" x="459" y="-38" font-family="Helvetica,sans-Serif" font-size="10.00" fill="#000000">ItemRenamer::IsRenaming</text>
</a>
</g>
</g>
<!-- Node628&#45;&gt;Node632 -->
<g id="edge11" class="edge">
<title>Node628&#45;&gt;Node632</title>
<path fill="none" stroke="#191970" d="M346.6541,-51.8541C356.2714,-50.8821 366.1553,-49.8832 375.8816,-48.9003"/>
<polygon fill="#191970" stroke="#191970" points="376.3453,-52.3713 385.9427,-47.8835 375.6414,-45.4068 376.3453,-52.3713"/>
</g>
<!-- Node630 -->
<g id="node10" class="node">
<title>Node630</title>
<g id="a_node10"><a xlink:href="classFweelin.html#a10bb364ecf38990653b49a98c5a89c90" target="_top" xlink:title="Fweelin::getTMAP">
<polygon fill="#ffffff" stroke="#000000" points="573,-88 573,-107 676,-107 676,-88 573,-88"/>
<text text-anchor="middle" x="624.5" y="-95" font-family="Helvetica,sans-Serif" font-size="10.00" fill="#000000">Fweelin::getTMAP</text>
</a>
</g>
</g>
<!-- Node629&#45;&gt;Node630 -->
<g id="edge9" class="edge">
<title>Node629&#45;&gt;Node630</title>
<path fill="none" stroke="#191970" d="M521.097,-85.629C534.6918,-87.1897 549.0811,-88.8416 562.6656,-90.4012"/>
<polygon fill="#191970" stroke="#191970" points="562.5364,-93.9093 572.8704,-91.5727 563.3349,-86.9549 562.5364,-93.9093"/>
</g>
<!-- Node631 -->
<g id="node11" class="node">
<title>Node631</title>
<g id="a_node11"><a xlink:href="classTriggerMap.html#aca3f85b40f3aa29a280c2d7511b84217" target="_top" xlink:title="TriggerMap::GetMap">
<polygon fill="#ffffff" stroke="#000000" points="568,-50 568,-69 681,-69 681,-50 568,-50"/>
<text text-anchor="middle" x="624.5" y="-57" font-family="Helvetica,sans-Serif" font-size="10.00" fill="#000000">TriggerMap::GetMap</text>
</a>
</g>
</g>
<!-- Node629&#45;&gt;Node631 -->
<g id="edge10" class="edge">
<title>Node629&#45;&gt;Node631</title>
<path fill="none" stroke="#191970" d="M521.097,-71.371C533.0637,-69.9972 545.6461,-68.5527 557.7533,-67.1628"/>
<polygon fill="#191970" stroke="#191970" points="558.2521,-70.6286 567.7876,-66.0108 557.4536,-63.6743 558.2521,-70.6286"/>
</g>
</g>
</svg>
