<?xml version="1.0" encoding="UTF-8" standalone="no"?>
<!DOCTYPE svg PUBLIC "-//W3C//DTD SVG 1.1//EN"
 "http://www.w3.org/Graphics/SVG/1.1/DTD/svg11.dtd">
<!-- Generated by graphviz version 2.40.1 (20161225.0304)
 -->
<!-- Title: LoopManager::LoopManager Pages: 1 -->
<svg width="358pt" height="332pt"
 viewBox="0.00 0.00 358.00 332.00" xmlns="http://www.w3.org/2000/svg" xmlns:xlink="http://www.w3.org/1999/xlink">
<g id="graph0" class="graph" transform="scale(1 1) rotate(0) translate(4 328)">
<title>LoopManager::LoopManager</title>
<polygon fill="#ffffff" stroke="transparent" points="-4,4 -4,-328 354,-328 354,4 -4,4"/>
<!-- Node0 -->
<g id="node1" class="node">
<title>Node0</title>
<polygon fill="#bfbfbf" stroke="#000000" points="0,-152.5 0,-171.5 153,-171.5 153,-152.5 0,-152.5"/>
<text text-anchor="middle" x="76.5" y="-159.5" font-family="Helvetica,sans-Serif" font-size="10.00" fill="#000000">LoopManager::LoopManager</text>
</g>
<!-- Node1 -->
<g id="node2" class="node">
<title>Node1</title>
<g id="a_node2"><a xlink:href="classFweelin.html#a10bb364ecf38990653b49a98c5a89c90" target="_top" xlink:title="Fweelin::getTMAP">
<polygon fill="#ffffff" stroke="#000000" points="218,-304.5 218,-323.5 321,-323.5 321,-304.5 218,-304.5"/>
<text text-anchor="middle" x="269.5" y="-311.5" font-family="Helvetica,sans-Serif" font-size="10.00" fill="#000000">Fweelin::getTMAP</text>
</a>
</g>
</g>
<!-- Node0&#45;&gt;Node1 -->
<g id="edge1" class="edge">
<title>Node0&#45;&gt;Node1</title>
<path fill="none" stroke="#191970" d="M81.6209,-171.5107C95.4098,-196.1543 135.8955,-262.4234 189,-295 194.8389,-298.5819 201.297,-301.4886 207.9407,-303.8473"/>
<polygon fill="#191970" stroke="#191970" points="207.1677,-307.2729 217.7568,-306.926 209.2625,-300.5937 207.1677,-307.2729"/>
</g>
<!-- Node2 -->
<g id="node3" class="node">
<title>Node2</title>
<g id="a_node3"><a xlink:href="classTriggerMap.html#aa7d410849b2b17c3623c6d105241418e" target="_top" xlink:title="TriggerMap::GetMapSize">
<polygon fill="#ffffff" stroke="#000000" points="202.5,-266.5 202.5,-285.5 336.5,-285.5 336.5,-266.5 202.5,-266.5"/>
<text text-anchor="middle" x="269.5" y="-273.5" font-family="Helvetica,sans-Serif" font-size="10.00" fill="#000000">TriggerMap::GetMapSize</text>
</a>
</g>
</g>
<!-- Node0&#45;&gt;Node2 -->
<g id="edge2" class="edge">
<title>Node0&#45;&gt;Node2</title>
<path fill="none" stroke="#191970" d="M85.0349,-171.7921C102.5083,-191.1945 144.4782,-234.5789 189,-257 193.8094,-259.422 198.9372,-261.5422 204.1869,-263.3969"/>
<polygon fill="#191970" stroke="#191970" points="203.1342,-266.7348 213.7254,-266.4567 205.2724,-260.0694 203.1342,-266.7348"/>
</g>
<!-- Node3 -->
<g id="node4" class="node">
<title>Node3</title>
<g id="a_node4"><a xlink:href="classLoop.html#a5d0ccd861c092696db05f4f0d7382176" target="_top" xlink:title="Loop::SetupLoopPreallocation">
<polygon fill="#ffffff" stroke="#000000" points="189,-228.5 189,-247.5 350,-247.5 350,-228.5 189,-228.5"/>
<text text-anchor="middle" x="269.5" y="-235.5" font-family="Helvetica,sans-Serif" font-size="10.00" fill="#000000">Loop::SetupLoopPreallocation</text>
</a>
</g>
</g>
<!-- Node0&#45;&gt;Node3 -->
<g id="edge3" class="edge">
<title>Node0&#45;&gt;Node3</title>
<path fill="none" stroke="#191970" d="M92.3522,-171.5581C113.6547,-184.041 153.0115,-205.8479 189,-219 196.0334,-221.5704 203.5417,-223.882 211.0396,-225.9336"/>
<polygon fill="#191970" stroke="#191970" points="210.2909,-229.3551 220.8496,-228.4807 212.0502,-222.5798 210.2909,-229.3551"/>
</g>
<!-- Node4 -->
<g id="node5" class="node">
<title>Node4</title>
<g id="a_node5"><a xlink:href="classFweelin.html#a2fd02f86f34253432dd13776434f16db" target="_top" xlink:title="Fweelin::getMMG">
<polygon fill="#ffffff" stroke="#000000" points="219.5,-190.5 219.5,-209.5 319.5,-209.5 319.5,-190.5 219.5,-190.5"/>
<text text-anchor="middle" x="269.5" y="-197.5" font-family="Helvetica,sans-Serif" font-size="10.00" fill="#000000">Fweelin::getMMG</text>
</a>
</g>
</g>
<!-- Node0&#45;&gt;Node4 -->
<g id="edge4" class="edge">
<title>Node0&#45;&gt;Node4</title>
<path fill="none" stroke="#191970" d="M125.202,-171.589C151.3588,-176.739 183.7837,-183.1232 211.2671,-188.5344"/>
<polygon fill="#191970" stroke="#191970" points="210.6604,-191.9821 221.1482,-190.4799 212.0127,-185.114 210.6604,-191.9821"/>
</g>
<!-- Node5 -->
<g id="node6" class="node">
<title>Node5</title>
<g id="a_node6"><a xlink:href="classFweelin.html#a600688955c7470a1b7a2fa95ddcc4118" target="_top" xlink:title="Fweelin::getBMG">
<polygon fill="#ffffff" stroke="#000000" points="220.5,-152.5 220.5,-171.5 318.5,-171.5 318.5,-152.5 220.5,-152.5"/>
<text text-anchor="middle" x="269.5" y="-159.5" font-family="Helvetica,sans-Serif" font-size="10.00" fill="#000000">Fweelin::getBMG</text>
</a>
</g>
</g>
<!-- Node0&#45;&gt;Node5 -->
<g id="edge5" class="edge">
<title>Node0&#45;&gt;Node5</title>
<path fill="none" stroke="#191970" d="M153.0559,-162C172.0593,-162 192.1416,-162 210.1783,-162"/>
<polygon fill="#191970" stroke="#191970" points="210.2522,-165.5001 220.2522,-162 210.2521,-158.5001 210.2522,-165.5001"/>
</g>
<!-- Node6 -->
<g id="node7" class="node">
<title>Node6</title>
<g id="a_node7"><a xlink:href="classFweelin.html#a681d7ca8d0789199af135f22c26a5409" target="_top" xlink:title="Fweelin::getCFG">
<polygon fill="#ffffff" stroke="#000000" points="222,-114.5 222,-133.5 317,-133.5 317,-114.5 222,-114.5"/>
<text text-anchor="middle" x="269.5" y="-121.5" font-family="Helvetica,sans-Serif" font-size="10.00" fill="#000000">Fweelin::getCFG</text>
</a>
</g>
</g>
<!-- Node0&#45;&gt;Node6 -->
<g id="edge6" class="edge">
<title>Node0&#45;&gt;Node6</title>
<path fill="none" stroke="#191970" d="M125.202,-152.411C151.5577,-147.2218 184.2773,-140.7796 211.8932,-135.3423"/>
<polygon fill="#191970" stroke="#191970" points="212.6799,-138.7547 221.8154,-133.3887 211.3276,-131.8865 212.6799,-138.7547"/>
</g>
<!-- Node7 -->
<g id="node8" class="node">
<title>Node7</title>
<g id="a_node8"><a xlink:href="classBlockManager.html#aa5e8b71de591a2e25779a1eacdc09704" target="_top" xlink:title="BlockManager::AddManager">
<polygon fill="#ffffff" stroke="#000000" points="193.5,-76.5 193.5,-95.5 345.5,-95.5 345.5,-76.5 193.5,-76.5"/>
<text text-anchor="middle" x="269.5" y="-83.5" font-family="Helvetica,sans-Serif" font-size="10.00" fill="#000000">BlockManager::AddManager</text>
</a>
</g>
</g>
<!-- Node0&#45;&gt;Node7 -->
<g id="edge7" class="edge">
<title>Node0&#45;&gt;Node7</title>
<path fill="none" stroke="#191970" d="M92.3522,-152.4419C113.6547,-139.959 153.0115,-118.1521 189,-105 196.0334,-102.4296 203.5417,-100.118 211.0396,-98.0664"/>
<polygon fill="#191970" stroke="#191970" points="212.0502,-101.4202 220.8496,-95.5193 210.2909,-94.6449 212.0502,-101.4202"/>
</g>
<!-- Node8 -->
<g id="node9" class="node">
<title>Node8</title>
<g id="a_node9"><a xlink:href="classFweelin.html#a21e51d7b639faaecc415624ab6c16a71" target="_top" xlink:title="Fweelin::getEMG">
<polygon fill="#ffffff" stroke="#000000" points="220.5,-38.5 220.5,-57.5 318.5,-57.5 318.5,-38.5 220.5,-38.5"/>
<text text-anchor="middle" x="269.5" y="-45.5" font-family="Helvetica,sans-Serif" font-size="10.00" fill="#000000">Fweelin::getEMG</text>
</a>
</g>
</g>
<!-- Node0&#45;&gt;Node8 -->
<g id="edge8" class="edge">
<title>Node0&#45;&gt;Node8</title>
<path fill="none" stroke="#191970" d="M85.0349,-152.2079C102.5083,-132.8055 144.4782,-89.4211 189,-67 195.613,-63.6697 202.8278,-60.9102 210.1338,-58.6266"/>
<polygon fill="#191970" stroke="#191970" points="211.4393,-61.8944 220.1049,-55.7987 209.5293,-55.16 211.4393,-61.8944"/>
</g>
<!-- Node9 -->
<g id="node10" class="node">
<title>Node9</title>
<g id="a_node10"><a xlink:href="classEventManager.html#a900be2c959408f76e6926c96197bd773" target="_top" xlink:title="EventManager::ListenEvent">
<polygon fill="#ffffff" stroke="#000000" points="195,-.5 195,-19.5 344,-19.5 344,-.5 195,-.5"/>
<text text-anchor="middle" x="269.5" y="-7.5" font-family="Helvetica,sans-Serif" font-size="10.00" fill="#000000">EventManager::ListenEvent</text>
</a>
</g>
</g>
<!-- Node0&#45;&gt;Node9 -->
<g id="edge9" class="edge">
<title>Node0&#45;&gt;Node9</title>
<path fill="none" stroke="#191970" d="M81.6209,-152.4893C95.4098,-127.8457 135.8955,-61.5766 189,-29 192.5802,-26.8037 196.3933,-24.8613 200.3391,-23.1434"/>
<polygon fill="#191970" stroke="#191970" points="201.6626,-26.3844 209.7402,-19.5285 199.1502,-19.8507 201.6626,-26.3844"/>
</g>
</g>
</svg>
