<?xml version="1.0" encoding="UTF-8" standalone="no"?>
<!DOCTYPE svg PUBLIC "-//W3C//DTD SVG 1.1//EN"
 "http://www.w3.org/Graphics/SVG/1.1/DTD/svg11.dtd">
<!-- Generated by graphviz version 2.40.1 (20161225.0304)
 -->
<!-- Title: TriggerMap::GetMapSize Pages: 1 -->
<svg width="710pt" height="180pt"
 viewBox="0.00 0.00 710.00 180.00" xmlns="http://www.w3.org/2000/svg" xmlns:xlink="http://www.w3.org/1999/xlink">
<g id="graph0" class="graph" transform="scale(1 1) rotate(0) translate(4 176)">
<title>TriggerMap::GetMapSize</title>
<polygon fill="#ffffff" stroke="transparent" points="-4,4 -4,-176 706,-176 706,4 -4,4"/>
<!-- Node65 -->
<g id="node1" class="node">
<title>Node65</title>
<polygon fill="#bfbfbf" stroke="#000000" points="0,-57.5 0,-76.5 134,-76.5 134,-57.5 0,-57.5"/>
<text text-anchor="middle" x="67" y="-64.5" font-family="Helvetica,sans-Serif" font-size="10.00" fill="#000000">TriggerMap::GetMapSize</text>
</g>
<!-- Node66 -->
<g id="node2" class="node">
<title>Node66</title>
<g id="a_node2"><a xlink:href="classSnapshot.html#a1616e84bbc439dfb50eb827a27e4f6fd" target="_top" xlink:title="Snapshot::CreateSnapshot">
<polygon fill="#ffffff" stroke="#000000" points="178.5,-114.5 178.5,-133.5 323.5,-133.5 323.5,-114.5 178.5,-114.5"/>
<text text-anchor="middle" x="251" y="-121.5" font-family="Helvetica,sans-Serif" font-size="10.00" fill="#000000">Snapshot::CreateSnapshot</text>
</a>
</g>
</g>
<!-- Node65&#45;&gt;Node66 -->
<g id="edge1" class="edge">
<title>Node65&#45;&gt;Node66</title>
<path fill="none" stroke="#191970" d="M99.759,-80.2598C119.8281,-88.0881 146.1561,-97.8348 170,-105 181.4815,-108.4503 194.0325,-111.6605 205.7526,-114.4236"/>
<polygon fill="#191970" stroke="#191970" points="101.0349,-77.0007 90.448,-76.5907 98.4685,-83.5133 101.0349,-77.0007"/>
</g>
<!-- Node70 -->
<g id="node6" class="node">
<title>Node70</title>
<g id="a_node6"><a xlink:href="classLoopManager.html#a70967ac90529ee371dc5350cbced90a5" target="_top" xlink:title="LoopManager::LoopManager">
<polygon fill="#ffffff" stroke="#000000" points="174.5,-76.5 174.5,-95.5 327.5,-95.5 327.5,-76.5 174.5,-76.5"/>
<text text-anchor="middle" x="251" y="-83.5" font-family="Helvetica,sans-Serif" font-size="10.00" fill="#000000">LoopManager::LoopManager</text>
</a>
</g>
</g>
<!-- Node65&#45;&gt;Node70 -->
<g id="edge5" class="edge">
<title>Node65&#45;&gt;Node70</title>
<path fill="none" stroke="#191970" d="M144.4165,-74.9941C154.3106,-76.0158 164.4356,-77.0613 174.318,-78.0818"/>
<polygon fill="#191970" stroke="#191970" points="144.5159,-71.4858 134.2093,-73.9401 143.7968,-78.4488 144.5159,-71.4858"/>
</g>
<!-- Node73 -->
<g id="node9" class="node">
<title>Node73</title>
<g id="a_node9"><a xlink:href="classLoopManager.html#af213761ccf6208b94354a3658de91cfb" target="_top" xlink:title="LoopManager::CheckSaveMap">
<polygon fill="#ffffff" stroke="#000000" points="170,-38.5 170,-57.5 332,-57.5 332,-38.5 170,-38.5"/>
<text text-anchor="middle" x="251" y="-45.5" font-family="Helvetica,sans-Serif" font-size="10.00" fill="#000000">LoopManager::CheckSaveMap</text>
</a>
</g>
</g>
<!-- Node65&#45;&gt;Node73 -->
<g id="edge8" class="edge">
<title>Node65&#45;&gt;Node73</title>
<path fill="none" stroke="#191970" d="M144.3919,-59.0084C152.8243,-58.1377 161.4248,-57.2496 169.9,-56.3745"/>
<polygon fill="#191970" stroke="#191970" points="143.7968,-55.5512 134.2093,-60.0599 144.5159,-62.5142 143.7968,-55.5512"/>
</g>
<!-- Node75 -->
<g id="node11" class="node">
<title>Node75</title>
<g id="a_node11"><a xlink:href="classLoopManager.html#a4aada2d07b7ce0a67a8119ece4805966" target="_top" xlink:title="LoopManager::ReceiveEvent">
<polygon fill="#ffffff" stroke="#000000" points="174,-.5 174,-19.5 328,-19.5 328,-.5 174,-.5"/>
<text text-anchor="middle" x="251" y="-7.5" font-family="Helvetica,sans-Serif" font-size="10.00" fill="#000000">LoopManager::ReceiveEvent</text>
</a>
</g>
</g>
<!-- Node65&#45;&gt;Node75 -->
<g id="edge10" class="edge">
<title>Node65&#45;&gt;Node75</title>
<path fill="none" stroke="#191970" d="M99.759,-53.7402C119.8281,-45.9119 146.1561,-36.1652 170,-29 181.4815,-25.5497 194.0325,-22.3395 205.7526,-19.5764"/>
<polygon fill="#191970" stroke="#191970" points="98.4685,-50.4867 90.448,-57.4093 101.0349,-56.9993 98.4685,-50.4867"/>
</g>
<!-- Node67 -->
<g id="node3" class="node">
<title>Node67</title>
<g id="a_node3"><a xlink:href="classFweelin.html#a46ac4eb76aa2025f2bec97c23658abef" target="_top" xlink:title="Fweelin::CreateSnapshot">
<polygon fill="#ffffff" stroke="#000000" points="378.5,-152.5 378.5,-171.5 515.5,-171.5 515.5,-152.5 378.5,-152.5"/>
<text text-anchor="middle" x="447" y="-159.5" font-family="Helvetica,sans-Serif" font-size="10.00" fill="#000000">Fweelin::CreateSnapshot</text>
</a>
</g>
</g>
<!-- Node66&#45;&gt;Node67 -->
<g id="edge2" class="edge">
<title>Node66&#45;&gt;Node67</title>
<path fill="none" stroke="#191970" d="M310.2612,-135.4894C338.227,-140.9114 371.2091,-147.3058 397.7737,-152.4561"/>
<polygon fill="#191970" stroke="#191970" points="310.6895,-132.0073 300.2061,-133.54 309.3571,-138.8794 310.6895,-132.0073"/>
</g>
<!-- Node68 -->
<g id="node4" class="node">
<title>Node68</title>
<g id="a_node4"><a xlink:href="classFweelin.html#a057cfd43583e073f0216dd275e4b26a7" target="_top" xlink:title="Fweelin::LoadSnapshot">
<polygon fill="#ffffff" stroke="#000000" points="383,-114.5 383,-133.5 511,-133.5 511,-114.5 383,-114.5"/>
<text text-anchor="middle" x="447" y="-121.5" font-family="Helvetica,sans-Serif" font-size="10.00" fill="#000000">Fweelin::LoadSnapshot</text>
</a>
</g>
</g>
<!-- Node66&#45;&gt;Node68 -->
<g id="edge3" class="edge">
<title>Node66&#45;&gt;Node68</title>
<path fill="none" stroke="#191970" d="M333.8125,-124C350.1939,-124 367.1556,-124 382.8064,-124"/>
<polygon fill="#191970" stroke="#191970" points="333.7047,-120.5001 323.7046,-124 333.7046,-127.5001 333.7047,-120.5001"/>
</g>
<!-- Node69 -->
<g id="node5" class="node">
<title>Node69</title>
<g id="a_node5"><a xlink:href="classLoopManager.html#a05a6a438d14482e2f22aa802cfb432e8" target="_top" xlink:title="LoopManager::LoadScene">
<polygon fill="#ffffff" stroke="#000000" points="562,-114.5 562,-133.5 702,-133.5 702,-114.5 562,-114.5"/>
<text text-anchor="middle" x="632" y="-121.5" font-family="Helvetica,sans-Serif" font-size="10.00" fill="#000000">LoopManager::LoadScene</text>
</a>
</g>
</g>
<!-- Node68&#45;&gt;Node69 -->
<g id="edge4" class="edge">
<title>Node68&#45;&gt;Node69</title>
<path fill="none" stroke="#191970" d="M521.3119,-124C534.7159,-124 548.6503,-124 561.9286,-124"/>
<polygon fill="#191970" stroke="#191970" points="521.1849,-120.5001 511.1848,-124 521.1848,-127.5001 521.1849,-120.5001"/>
</g>
<!-- Node71 -->
<g id="node7" class="node">
<title>Node71</title>
<g id="a_node7"><a xlink:href="classFweelin.html#a1e47b97764f07dfd37458e91c0c54adf" target="_top" xlink:title="Fweelin::setup">
<polygon fill="#ffffff" stroke="#000000" points="403.5,-76.5 403.5,-95.5 490.5,-95.5 490.5,-76.5 403.5,-76.5"/>
<text text-anchor="middle" x="447" y="-83.5" font-family="Helvetica,sans-Serif" font-size="10.00" fill="#000000">Fweelin::setup</text>
</a>
</g>
</g>
<!-- Node70&#45;&gt;Node71 -->
<g id="edge6" class="edge">
<title>Node70&#45;&gt;Node71</title>
<path fill="none" stroke="#191970" d="M337.6308,-86C360.3368,-86 383.8681,-86 403.2601,-86"/>
<polygon fill="#191970" stroke="#191970" points="337.6208,-82.5001 327.6208,-86 337.6208,-89.5001 337.6208,-82.5001"/>
</g>
<!-- Node72 -->
<g id="node8" class="node">
<title>Node72</title>
<g id="a_node8"><a xlink:href="fweelin_8cc.html#a97b0fa62b7b0972875f5f589322c4c24" target="_top" xlink:title="main">
<polygon fill="#ffffff" stroke="#000000" points="611.5,-76.5 611.5,-95.5 652.5,-95.5 652.5,-76.5 611.5,-76.5"/>
<text text-anchor="middle" x="632" y="-83.5" font-family="Helvetica,sans-Serif" font-size="10.00" fill="#000000">main</text>
</a>
</g>
</g>
<!-- Node71&#45;&gt;Node72 -->
<g id="edge7" class="edge">
<title>Node71&#45;&gt;Node72</title>
<path fill="none" stroke="#191970" d="M500.964,-86C537.8764,-86 584.7583,-86 611.2664,-86"/>
<polygon fill="#191970" stroke="#191970" points="500.8425,-82.5001 490.8424,-86 500.8424,-89.5001 500.8425,-82.5001"/>
</g>
<!-- Node74 -->
<g id="node10" class="node">
<title>Node74</title>
<g id="a_node10"><a xlink:href="classLoopManager.html#a00143be12c150c0a89c4f99c1e8d5e70" target="_top" xlink:title="LoopManager::GetWriteBlock">
<polygon fill="#ffffff" stroke="#000000" points="368,-38.5 368,-57.5 526,-57.5 526,-38.5 368,-38.5"/>
<text text-anchor="middle" x="447" y="-45.5" font-family="Helvetica,sans-Serif" font-size="10.00" fill="#000000">LoopManager::GetWriteBlock</text>
</a>
</g>
</g>
<!-- Node73&#45;&gt;Node74 -->
<g id="edge9" class="edge">
<title>Node73&#45;&gt;Node74</title>
<path fill="none" stroke="#191970" d="M342.1516,-48C350.7248,-48 359.3683,-48 367.8178,-48"/>
<polygon fill="#191970" stroke="#191970" points="342.1356,-44.5001 332.1355,-48 342.1355,-51.5001 342.1356,-44.5001"/>
</g>
</g>
</svg>
