<?xml version="1.0" encoding="UTF-8" standalone="no"?>
<!DOCTYPE svg PUBLIC "-//W3C//DTD SVG 1.1//EN"
 "http://www.w3.org/Graphics/SVG/1.1/DTD/svg11.dtd">
<!-- Generated by graphviz version 2.40.1 (20161225.0304)
 -->
<!-- Title: LoopManager::GetLoopVolume Pages: 1 -->
<svg width="919pt" height="142pt"
 viewBox="0.00 0.00 919.00 142.00" xmlns="http://www.w3.org/2000/svg" xmlns:xlink="http://www.w3.org/1999/xlink">
<g id="graph0" class="graph" transform="scale(1 1) rotate(0) translate(4 138)">
<title>LoopManager::GetLoopVolume</title>
<polygon fill="#ffffff" stroke="transparent" points="-4,4 -4,-138 915,-138 915,4 -4,4"/>
<!-- Node405 -->
<g id="node1" class="node">
<title>Node405</title>
<polygon fill="#bfbfbf" stroke="#000000" points="0,-38.5 0,-57.5 165,-57.5 165,-38.5 0,-38.5"/>
<text text-anchor="middle" x="82.5" y="-45.5" font-family="Helvetica,sans-Serif" font-size="10.00" fill="#000000">LoopManager::GetLoopVolume</text>
</g>
<!-- Node406 -->
<g id="node2" class="node">
<title>Node406</title>
<g id="a_node2"><a xlink:href="classLoopManager.html#a7acf07456e2837b96814226e81fdac30" target="_top" xlink:title="LoopManager::UpdateLoopLists\l_ItemAdded">
<polygon fill="#ffffff" stroke="#000000" points="201,-77 201,-107 370,-107 370,-77 201,-77"/>
<text text-anchor="start" x="209" y="-95" font-family="Helvetica,sans-Serif" font-size="10.00" fill="#000000">LoopManager::UpdateLoopLists</text>
<text text-anchor="middle" x="285.5" y="-84" font-family="Helvetica,sans-Serif" font-size="10.00" fill="#000000">_ItemAdded</text>
</a>
</g>
</g>
<!-- Node405&#45;&gt;Node406 -->
<g id="edge1" class="edge">
<title>Node405&#45;&gt;Node406</title>
<path fill="none" stroke="#191970" d="M136.3494,-59.6718C160.7682,-64.9645 189.9466,-71.2889 215.9939,-76.9346"/>
<polygon fill="#191970" stroke="#191970" points="137.0625,-56.2451 126.548,-57.5473 135.5796,-63.0863 137.0625,-56.2451"/>
</g>
<!-- Node409 -->
<g id="node5" class="node">
<title>Node409</title>
<g id="a_node5"><a xlink:href="classLoopManager.html#a4aada2d07b7ce0a67a8119ece4805966" target="_top" xlink:title="LoopManager::ReceiveEvent">
<polygon fill="#ffffff" stroke="#000000" points="757,-76.5 757,-95.5 911,-95.5 911,-76.5 757,-76.5"/>
<text text-anchor="middle" x="834" y="-83.5" font-family="Helvetica,sans-Serif" font-size="10.00" fill="#000000">LoopManager::ReceiveEvent</text>
</a>
</g>
</g>
<!-- Node405&#45;&gt;Node409 -->
<g id="edge6" class="edge">
<title>Node405&#45;&gt;Node409</title>
<path fill="none" stroke="#191970" d="M175.1727,-52.686C325.0209,-60.2632 617.7498,-75.0652 756.9329,-82.1031"/>
<polygon fill="#191970" stroke="#191970" points="175.2374,-49.1849 165.0733,-52.1754 174.8838,-56.176 175.2374,-49.1849"/>
</g>
<!-- Node410 -->
<g id="node6" class="node">
<title>Node410</title>
<g id="a_node6"><a xlink:href="classVideoIO.html#adca60a99be6e51d8af7ce2a32f92349a" target="_top" xlink:title="VideoIO::DrawLoop">
<polygon fill="#ffffff" stroke="#000000" points="230.5,-.5 230.5,-19.5 340.5,-19.5 340.5,-.5 230.5,-.5"/>
<text text-anchor="middle" x="285.5" y="-7.5" font-family="Helvetica,sans-Serif" font-size="10.00" fill="#000000">VideoIO::DrawLoop</text>
</a>
</g>
</g>
<!-- Node405&#45;&gt;Node410 -->
<g id="edge7" class="edge">
<title>Node405&#45;&gt;Node410</title>
<path fill="none" stroke="#191970" d="M143.4968,-36.5819C172.5425,-31.1448 206.8816,-24.7168 234.5156,-19.5439"/>
<polygon fill="#191970" stroke="#191970" points="142.6487,-33.1798 133.4634,-38.46 143.9367,-40.0602 142.6487,-33.1798"/>
</g>
<!-- Node407 -->
<g id="node3" class="node">
<title>Node407</title>
<g id="a_node3"><a xlink:href="classLoopManager.html#a861cdd2ace9aeb53b4ecf92728215265" target="_top" xlink:title="LoopManager::Deactivate">
<polygon fill="#ffffff" stroke="#000000" points="406,-82.5 406,-101.5 547,-101.5 547,-82.5 406,-82.5"/>
<text text-anchor="middle" x="476.5" y="-89.5" font-family="Helvetica,sans-Serif" font-size="10.00" fill="#000000">LoopManager::Deactivate</text>
</a>
</g>
</g>
<!-- Node406&#45;&gt;Node407 -->
<g id="edge2" class="edge">
<title>Node406&#45;&gt;Node407</title>
<path fill="none" stroke="#191970" d="M380.2504,-92C388.9067,-92 397.5712,-92 405.9594,-92"/>
<polygon fill="#191970" stroke="#191970" points="380.1095,-88.5001 370.1095,-92 380.1094,-95.5001 380.1095,-88.5001"/>
</g>
<!-- Node408 -->
<g id="node4" class="node">
<title>Node408</title>
<g id="a_node4"><a xlink:href="classFweelin.html#a4654015e2bc7cc94f3bfc421899a60d3" target="_top" xlink:title="Fweelin::TriggerSnapshot">
<polygon fill="#ffffff" stroke="#000000" points="583,-114.5 583,-133.5 721,-133.5 721,-114.5 583,-114.5"/>
<text text-anchor="middle" x="652" y="-121.5" font-family="Helvetica,sans-Serif" font-size="10.00" fill="#000000">Fweelin::TriggerSnapshot</text>
</a>
</g>
</g>
<!-- Node407&#45;&gt;Node408 -->
<g id="edge3" class="edge">
<title>Node407&#45;&gt;Node408</title>
<path fill="none" stroke="#191970" d="M538.6179,-103.3263C558.5967,-106.9692 580.5188,-110.9664 599.7174,-114.467"/>
<polygon fill="#191970" stroke="#191970" points="539.1463,-99.8651 528.6806,-101.5144 537.8906,-106.7515 539.1463,-99.8651"/>
</g>
<!-- Node407&#45;&gt;Node409 -->
<g id="edge5" class="edge">
<title>Node407&#45;&gt;Node409</title>
<path fill="none" stroke="#191970" d="M557.2745,-90.6443C616.9925,-89.6421 697.8225,-88.2855 756.6996,-87.2973"/>
<polygon fill="#191970" stroke="#191970" points="557.0703,-87.1472 547.1305,-90.8146 557.1879,-94.1462 557.0703,-87.1472"/>
</g>
<!-- Node408&#45;&gt;Node409 -->
<g id="edge4" class="edge">
<title>Node408&#45;&gt;Node409</title>
<path fill="none" stroke="#191970" d="M707.9458,-112.319C733.7558,-106.9301 764.0069,-100.6139 788.404,-95.5201"/>
<polygon fill="#191970" stroke="#191970" points="706.9998,-108.941 697.9263,-114.411 708.4306,-115.7932 706.9998,-108.941"/>
</g>
</g>
</svg>
