<?xml version="1.0" encoding="UTF-8" standalone="no"?>
<!DOCTYPE svg PUBLIC "-//W3C//DTD SVG 1.1//EN"
 "http://www.w3.org/Graphics/SVG/1.1/DTD/svg11.dtd">
<!-- Generated by graphviz version 2.40.1 (20161225.0304)
 -->
<!-- Title: HiPriManagedChain::RefDeleted Pages: 1 -->
<svg width="1088pt" height="192pt"
 viewBox="0.00 0.00 1088.00 192.00" xmlns="http://www.w3.org/2000/svg" xmlns:xlink="http://www.w3.org/1999/xlink">
<g id="graph0" class="graph" transform="scale(1 1) rotate(0) translate(4 188)">
<title>HiPriManagedChain::RefDeleted</title>
<polygon fill="#ffffff" stroke="transparent" points="-4,4 -4,-188 1084,-188 1084,4 -4,4"/>
<!-- Node17 -->
<g id="node1" class="node">
<title>Node17</title>
<polygon fill="#bfbfbf" stroke="#000000" points="0,-83 0,-113 118,-113 118,-83 0,-83"/>
<text text-anchor="start" x="8" y="-101" font-family="Helvetica,sans-Serif" font-size="10.00" fill="#000000">HiPriManagedChain::</text>
<text text-anchor="middle" x="59" y="-90" font-family="Helvetica,sans-Serif" font-size="10.00" fill="#000000">RefDeleted</text>
</g>
<!-- Node18 -->
<g id="node2" class="node">
<title>Node18</title>
<g id="a_node2"><a xlink:href="classBlockManager.html#ac251e0ace481edc4b8da20dca37472a6" target="_top" xlink:title="BlockManager::HiRefDeleted">
<polygon fill="#ffffff" stroke="#000000" points="154,-88.5 154,-107.5 310,-107.5 310,-88.5 154,-88.5"/>
<text text-anchor="middle" x="232" y="-95.5" font-family="Helvetica,sans-Serif" font-size="10.00" fill="#000000">BlockManager::HiRefDeleted</text>
</a>
</g>
</g>
<!-- Node17&#45;&gt;Node18 -->
<g id="edge1" class="edge">
<title>Node17&#45;&gt;Node18</title>
<path fill="none" stroke="#191970" d="M128.2289,-98C136.6835,-98 145.3675,-98 153.9399,-98"/>
<polygon fill="#191970" stroke="#191970" points="128.053,-94.5001 118.0529,-98 128.0529,-101.5001 128.053,-94.5001"/>
</g>
<!-- Node19 -->
<g id="node3" class="node">
<title>Node19</title>
<g id="a_node3"><a xlink:href="classBlockManager.html#aed9f3464448ad90022bc613002b912f2" target="_top" xlink:title="BlockManager::RefDeleted">
<polygon fill="#ffffff" stroke="#000000" points="346,-88.5 346,-107.5 492,-107.5 492,-88.5 346,-88.5"/>
<text text-anchor="middle" x="419" y="-95.5" font-family="Helvetica,sans-Serif" font-size="10.00" fill="#000000">BlockManager::RefDeleted</text>
</a>
</g>
</g>
<!-- Node18&#45;&gt;Node19 -->
<g id="edge2" class="edge">
<title>Node18&#45;&gt;Node19</title>
<path fill="none" stroke="#191970" d="M320.2478,-98C328.8269,-98 337.4651,-98 345.8724,-98"/>
<polygon fill="#191970" stroke="#191970" points="320.2214,-94.5001 310.2213,-98 320.2213,-101.5001 320.2214,-94.5001"/>
</g>
<!-- Node20 -->
<g id="node4" class="node">
<title>Node20</title>
<g id="a_node4"><a xlink:href="classLoopManager.html#aadca58536e41c8b0b8fd148ac40b23c0" target="_top" xlink:title="LoopManager::~LoopManager">
<polygon fill="#ffffff" stroke="#000000" points="531,-164.5 531,-183.5 692,-183.5 692,-164.5 531,-164.5"/>
<text text-anchor="middle" x="611.5" y="-171.5" font-family="Helvetica,sans-Serif" font-size="10.00" fill="#000000">LoopManager::~LoopManager</text>
</a>
</g>
</g>
<!-- Node19&#45;&gt;Node20 -->
<g id="edge3" class="edge">
<title>Node19&#45;&gt;Node20</title>
<path fill="none" stroke="#191970" d="M443.0825,-112.9145C464.6341,-125.6885 497.4511,-143.7524 528,-155 538.0451,-158.6984 549.0448,-161.8194 559.6676,-164.3952"/>
<polygon fill="#191970" stroke="#191970" points="444.6719,-109.7861 434.2987,-107.6302 441.0634,-115.7844 444.6719,-109.7861"/>
</g>
<!-- Node21 -->
<g id="node5" class="node">
<title>Node21</title>
<g id="a_node5"><a xlink:href="classLoopManager.html#a332a9868980750f28fbf0e05b2336174" target="_top" xlink:title="LoopManager::DeleteLoop">
<polygon fill="#ffffff" stroke="#000000" points="540,-126.5 540,-145.5 683,-145.5 683,-126.5 540,-126.5"/>
<text text-anchor="middle" x="611.5" y="-133.5" font-family="Helvetica,sans-Serif" font-size="10.00" fill="#000000">LoopManager::DeleteLoop</text>
</a>
</g>
</g>
<!-- Node19&#45;&gt;Node21 -->
<g id="edge4" class="edge">
<title>Node19&#45;&gt;Node21</title>
<path fill="none" stroke="#191970" d="M477.4498,-109.5381C504.9057,-114.958 537.2405,-121.341 563.2734,-126.4799"/>
<polygon fill="#191970" stroke="#191970" points="478.0644,-106.092 467.5759,-107.589 476.7087,-112.9595 478.0644,-106.092"/>
</g>
<!-- Node25 -->
<g id="node9" class="node">
<title>Node25</title>
<g id="a_node9"><a xlink:href="classPulse.html#a0081f88108dfc1585a23eae533be0190" target="_top" xlink:title="Pulse::~Pulse">
<polygon fill="#ffffff" stroke="#000000" points="570,-88.5 570,-107.5 653,-107.5 653,-88.5 570,-88.5"/>
<text text-anchor="middle" x="611.5" y="-95.5" font-family="Helvetica,sans-Serif" font-size="10.00" fill="#000000">Pulse::~Pulse</text>
</a>
</g>
</g>
<!-- Node19&#45;&gt;Node25 -->
<g id="edge9" class="edge">
<title>Node19&#45;&gt;Node25</title>
<path fill="none" stroke="#191970" d="M502.3141,-98C525.6267,-98 549.9704,-98 569.7401,-98"/>
<polygon fill="#191970" stroke="#191970" points="502.0505,-94.5001 492.0505,-98 502.0504,-101.5001 502.0505,-94.5001"/>
</g>
<!-- Node26 -->
<g id="node10" class="node">
<title>Node26</title>
<g id="a_node10"><a xlink:href="classRecordProcessor.html#a63fbf98c72bafa6c2e24a3962bdae70c" target="_top" xlink:title="RecordProcessor::~Record\lProcessor">
<polygon fill="#ffffff" stroke="#000000" points="539.5,-39 539.5,-69 683.5,-69 683.5,-39 539.5,-39"/>
<text text-anchor="start" x="547.5" y="-57" font-family="Helvetica,sans-Serif" font-size="10.00" fill="#000000">RecordProcessor::~Record</text>
<text text-anchor="middle" x="611.5" y="-46" font-family="Helvetica,sans-Serif" font-size="10.00" fill="#000000">Processor</text>
</a>
</g>
</g>
<!-- Node19&#45;&gt;Node26 -->
<g id="edge10" class="edge">
<title>Node19&#45;&gt;Node26</title>
<path fill="none" stroke="#191970" d="M470.6826,-86.1868C493.7115,-80.9231 521.1086,-74.6609 545.589,-69.0654"/>
<polygon fill="#191970" stroke="#191970" points="469.7383,-82.8123 460.7696,-88.4527 471.2981,-89.6363 469.7383,-82.8123"/>
</g>
<!-- Node27 -->
<g id="node11" class="node">
<title>Node27</title>
<g id="a_node11"><a xlink:href="classPlayProcessor.html#a3df8da4a26e768d00b0cfada90b37cc9" target="_top" xlink:title="PlayProcessor::~PlayProcessor">
<polygon fill="#ffffff" stroke="#000000" points="528,-.5 528,-19.5 695,-19.5 695,-.5 528,-.5"/>
<text text-anchor="middle" x="611.5" y="-7.5" font-family="Helvetica,sans-Serif" font-size="10.00" fill="#000000">PlayProcessor::~PlayProcessor</text>
</a>
</g>
</g>
<!-- Node19&#45;&gt;Node27 -->
<g id="edge11" class="edge">
<title>Node19&#45;&gt;Node27</title>
<path fill="none" stroke="#191970" d="M439.1356,-82.2655C460.1768,-66.5657 494.705,-42.8437 528,-29 537.1976,-25.1757 547.3003,-22.0518 557.2043,-19.5236"/>
<polygon fill="#191970" stroke="#191970" points="436.836,-79.6169 430.9865,-88.4506 441.068,-85.1927 436.836,-79.6169"/>
</g>
<!-- Node22 -->
<g id="node6" class="node">
<title>Node22</title>
<g id="a_node6"><a xlink:href="classLoopManager.html#a6048a702c9cec3676a1c56792b16ec44" target="_top" xlink:title="LoopManager::ReadComplete">
<polygon fill="#ffffff" stroke="#000000" points="731,-164.5 731,-183.5 890,-183.5 890,-164.5 731,-164.5"/>
<text text-anchor="middle" x="810.5" y="-171.5" font-family="Helvetica,sans-Serif" font-size="10.00" fill="#000000">LoopManager::ReadComplete</text>
</a>
</g>
</g>
<!-- Node21&#45;&gt;Node22 -->
<g id="edge5" class="edge">
<title>Node21&#45;&gt;Node22</title>
<path fill="none" stroke="#191970" d="M671.2949,-147.4181C699.7682,-152.8552 733.4307,-159.2832 760.5202,-164.4561"/>
<polygon fill="#191970" stroke="#191970" points="671.9383,-143.9778 661.4592,-145.54 670.6253,-150.8536 671.9383,-143.9778"/>
</g>
<!-- Node23 -->
<g id="node7" class="node">
<title>Node23</title>
<g id="a_node7"><a xlink:href="classLoopManager.html#a8efb4c8acabceb10faa8660c14c89d71" target="_top" xlink:title="LoopManager::DeletePulse">
<polygon fill="#ffffff" stroke="#000000" points="737.5,-126.5 737.5,-145.5 883.5,-145.5 883.5,-126.5 737.5,-126.5"/>
<text text-anchor="middle" x="810.5" y="-133.5" font-family="Helvetica,sans-Serif" font-size="10.00" fill="#000000">LoopManager::DeletePulse</text>
</a>
</g>
</g>
<!-- Node21&#45;&gt;Node23 -->
<g id="edge6" class="edge">
<title>Node21&#45;&gt;Node23</title>
<path fill="none" stroke="#191970" d="M693.0833,-136C707.7046,-136 722.8596,-136 737.2288,-136"/>
<polygon fill="#191970" stroke="#191970" points="693.0625,-132.5001 683.0624,-136 693.0624,-139.5001 693.0625,-132.5001"/>
</g>
<!-- Node24 -->
<g id="node8" class="node">
<title>Node24</title>
<g id="a_node8"><a xlink:href="classLoopManager.html#a4aada2d07b7ce0a67a8119ece4805966" target="_top" xlink:title="LoopManager::ReceiveEvent">
<polygon fill="#ffffff" stroke="#000000" points="926,-107.5 926,-126.5 1080,-126.5 1080,-107.5 926,-107.5"/>
<text text-anchor="middle" x="1003" y="-114.5" font-family="Helvetica,sans-Serif" font-size="10.00" fill="#000000">LoopManager::ReceiveEvent</text>
</a>
</g>
</g>
<!-- Node21&#45;&gt;Node24 -->
<g id="edge8" class="edge">
<title>Node21&#45;&gt;Node24</title>
<path fill="none" stroke="#191970" d="M670.0097,-124.8102C689.3492,-121.6173 711.0267,-118.5779 731,-117 796.5527,-111.8212 871.2696,-112.2764 925.7856,-113.7687"/>
<polygon fill="#191970" stroke="#191970" points="669.4042,-121.3628 660.1309,-126.4869 670.5757,-128.2641 669.4042,-121.3628"/>
</g>
<!-- Node23&#45;&gt;Node24 -->
<g id="edge7" class="edge">
<title>Node23&#45;&gt;Node24</title>
<path fill="none" stroke="#191970" d="M893.6986,-127.7882C904.3711,-126.7348 915.2618,-125.6599 925.8326,-124.6165"/>
<polygon fill="#191970" stroke="#191970" points="893.1583,-124.3244 883.5505,-128.7898 893.8459,-131.2906 893.1583,-124.3244"/>
</g>
</g>
</svg>
