<?xml version="1.0" encoding="UTF-8" standalone="no"?>
<!DOCTYPE svg PUBLIC "-//W3C//DTD SVG 1.1//EN"
 "http://www.w3.org/Graphics/SVG/1.1/DTD/svg11.dtd">
<!-- Generated by graphviz version 2.40.1 (20161225.0304)
 -->
<!-- Title: LoopManager::UpdateLoopLists_ItemRemoved Pages: 1 -->
<svg width="741pt" height="85pt"
 viewBox="0.00 0.00 741.00 85.00" xmlns="http://www.w3.org/2000/svg" xmlns:xlink="http://www.w3.org/1999/xlink">
<g id="graph0" class="graph" transform="scale(1 1) rotate(0) translate(4 81)">
<title>LoopManager::UpdateLoopLists_ItemRemoved</title>
<polygon fill="#ffffff" stroke="transparent" points="-4,4 -4,-81 737,-81 737,4 -4,4"/>
<!-- Node1259 -->
<g id="node1" class="node">
<title>Node1259</title>
<polygon fill="#bfbfbf" stroke="#000000" points="0,-14 0,-44 169,-44 169,-14 0,-14"/>
<text text-anchor="start" x="8" y="-32" font-family="Helvetica,sans-Serif" font-size="10.00" fill="#000000">LoopManager::UpdateLoopLists</text>
<text text-anchor="middle" x="84.5" y="-21" font-family="Helvetica,sans-Serif" font-size="10.00" fill="#000000">_ItemRemoved</text>
</g>
<!-- Node1260 -->
<g id="node2" class="node">
<title>Node1260</title>
<g id="a_node2"><a xlink:href="classLoopManager.html#a332a9868980750f28fbf0e05b2336174" target="_top" xlink:title="LoopManager::DeleteLoop">
<polygon fill="#ffffff" stroke="#000000" points="205,-19.5 205,-38.5 348,-38.5 348,-19.5 205,-19.5"/>
<text text-anchor="middle" x="276.5" y="-26.5" font-family="Helvetica,sans-Serif" font-size="10.00" fill="#000000">LoopManager::DeleteLoop</text>
</a>
</g>
</g>
<!-- Node1259&#45;&gt;Node1260 -->
<g id="edge1" class="edge">
<title>Node1259&#45;&gt;Node1260</title>
<path fill="none" stroke="#191970" d="M179.3132,-29C187.885,-29 196.4694,-29 204.793,-29"/>
<polygon fill="#191970" stroke="#191970" points="179.2729,-25.5001 169.2729,-29 179.2729,-32.5001 179.2729,-25.5001"/>
</g>
<!-- Node1261 -->
<g id="node3" class="node">
<title>Node1261</title>
<g id="a_node3"><a xlink:href="classLoopManager.html#a6048a702c9cec3676a1c56792b16ec44" target="_top" xlink:title="LoopManager::ReadComplete">
<polygon fill="#ffffff" stroke="#000000" points="384,-57.5 384,-76.5 543,-76.5 543,-57.5 384,-57.5"/>
<text text-anchor="middle" x="463.5" y="-64.5" font-family="Helvetica,sans-Serif" font-size="10.00" fill="#000000">LoopManager::ReadComplete</text>
</a>
</g>
</g>
<!-- Node1260&#45;&gt;Node1261 -->
<g id="edge2" class="edge">
<title>Node1260&#45;&gt;Node1261</title>
<path fill="none" stroke="#191970" d="M333.631,-40.6095C360.2267,-46.014 391.4731,-52.3635 416.6513,-57.4799"/>
<polygon fill="#191970" stroke="#191970" points="334.1847,-37.1506 323.688,-38.589 332.7907,-44.0104 334.1847,-37.1506"/>
</g>
<!-- Node1262 -->
<g id="node4" class="node">
<title>Node1262</title>
<g id="a_node4"><a xlink:href="classLoopManager.html#a8efb4c8acabceb10faa8660c14c89d71" target="_top" xlink:title="LoopManager::DeletePulse">
<polygon fill="#ffffff" stroke="#000000" points="390.5,-19.5 390.5,-38.5 536.5,-38.5 536.5,-19.5 390.5,-19.5"/>
<text text-anchor="middle" x="463.5" y="-26.5" font-family="Helvetica,sans-Serif" font-size="10.00" fill="#000000">LoopManager::DeletePulse</text>
</a>
</g>
</g>
<!-- Node1260&#45;&gt;Node1262 -->
<g id="edge3" class="edge">
<title>Node1260&#45;&gt;Node1262</title>
<path fill="none" stroke="#191970" d="M358.3914,-29C369.0385,-29 379.8895,-29 390.3807,-29"/>
<polygon fill="#191970" stroke="#191970" points="358.2643,-25.5001 348.2643,-29 358.2642,-32.5001 358.2643,-25.5001"/>
</g>
<!-- Node1263 -->
<g id="node5" class="node">
<title>Node1263</title>
<g id="a_node5"><a xlink:href="classLoopManager.html#a4aada2d07b7ce0a67a8119ece4805966" target="_top" xlink:title="LoopManager::ReceiveEvent">
<polygon fill="#ffffff" stroke="#000000" points="579,-.5 579,-19.5 733,-19.5 733,-.5 579,-.5"/>
<text text-anchor="middle" x="656" y="-7.5" font-family="Helvetica,sans-Serif" font-size="10.00" fill="#000000">LoopManager::ReceiveEvent</text>
</a>
</g>
</g>
<!-- Node1260&#45;&gt;Node1263 -->
<g id="edge5" class="edge">
<title>Node1260&#45;&gt;Node1263</title>
<path fill="none" stroke="#191970" d="M330.0476,-17.6359C347.1981,-14.5077 366.3236,-11.5501 384,-10 449.5056,-4.2557 524.2266,-4.7605 578.7562,-6.4158"/>
<polygon fill="#191970" stroke="#191970" points="329.3841,-14.1993 320.2038,-19.4882 330.6786,-21.0786 329.3841,-14.1993"/>
</g>
<!-- Node1262&#45;&gt;Node1263 -->
<g id="edge4" class="edge">
<title>Node1262&#45;&gt;Node1263</title>
<path fill="none" stroke="#191970" d="M546.6986,-20.7882C557.3711,-19.7348 568.2618,-18.6599 578.8326,-17.6165"/>
<polygon fill="#191970" stroke="#191970" points="546.1583,-17.3244 536.5505,-21.7898 546.8459,-24.2906 546.1583,-17.3244"/>
</g>
</g>
</svg>
