<?xml version="1.0" encoding="UTF-8" standalone="no"?>
<!DOCTYPE svg PUBLIC "-//W3C//DTD SVG 1.1//EN"
 "http://www.w3.org/Graphics/SVG/1.1/DTD/svg11.dtd">
<!-- Generated by graphviz version 2.40.1 (20161225.0304)
 -->
<!-- Title: Pulse::DelPulseSync Pages: 1 -->
<svg width="326pt" height="192pt"
 viewBox="0.00 0.00 326.00 191.50" xmlns="http://www.w3.org/2000/svg" xmlns:xlink="http://www.w3.org/1999/xlink">
<g id="graph0" class="graph" transform="scale(1 1) rotate(0) translate(4 187.5)">
<title>Pulse::DelPulseSync</title>
<polygon fill="#ffffff" stroke="transparent" points="-4,4 -4,-187.5 322,-187.5 322,4 -4,4"/>
<!-- Node16 -->
<g id="node1" class="node">
<title>Node16</title>
<polygon fill="#bfbfbf" stroke="#000000" points="0,-76.5 0,-95.5 115,-95.5 115,-76.5 0,-76.5"/>
<text text-anchor="middle" x="57.5" y="-83.5" font-family="Helvetica,sans-Serif" font-size="10.00" fill="#000000">Pulse::DelPulseSync</text>
</g>
<!-- Node17 -->
<g id="node2" class="node">
<title>Node17</title>
<g id="a_node2"><a xlink:href="classRecordProcessor.html#a63fbf98c72bafa6c2e24a3962bdae70c" target="_top" xlink:title="RecordProcessor::~Record\lProcessor">
<polygon fill="#ffffff" stroke="#000000" points="162.5,-153 162.5,-183 306.5,-183 306.5,-153 162.5,-153"/>
<text text-anchor="start" x="170.5" y="-171" font-family="Helvetica,sans-Serif" font-size="10.00" fill="#000000">RecordProcessor::~Record</text>
<text text-anchor="middle" x="234.5" y="-160" font-family="Helvetica,sans-Serif" font-size="10.00" fill="#000000">Processor</text>
</a>
</g>
</g>
<!-- Node16&#45;&gt;Node17 -->
<g id="edge1" class="edge">
<title>Node16&#45;&gt;Node17</title>
<path fill="none" stroke="#191970" d="M79.0913,-101.3727C97.5011,-113.9285 125.0336,-131.4294 151,-143 159.2933,-146.6955 168.2859,-150.032 177.1945,-152.9748"/>
<polygon fill="#191970" stroke="#191970" points="81.0472,-98.4699 70.8334,-95.6539 77.0618,-104.2247 81.0472,-98.4699"/>
</g>
<!-- Node18 -->
<g id="node3" class="node">
<title>Node18</title>
<g id="a_node3"><a xlink:href="classRecordProcessor.html#a6168d8dc850602a348dc74ab1224263a" target="_top" xlink:title="RecordProcessor::PulseSync">
<polygon fill="#ffffff" stroke="#000000" points="158.5,-114.5 158.5,-133.5 310.5,-133.5 310.5,-114.5 158.5,-114.5"/>
<text text-anchor="middle" x="234.5" y="-121.5" font-family="Helvetica,sans-Serif" font-size="10.00" fill="#000000">RecordProcessor::PulseSync</text>
</a>
</g>
</g>
<!-- Node16&#45;&gt;Node18 -->
<g id="edge2" class="edge">
<title>Node16&#45;&gt;Node18</title>
<path fill="none" stroke="#191970" d="M112.2423,-97.7526C137.27,-103.1258 166.5348,-109.4086 190.1566,-114.4799"/>
<polygon fill="#191970" stroke="#191970" points="112.6765,-94.2661 102.1646,-95.589 111.2071,-101.1102 112.6765,-94.2661"/>
</g>
<!-- Node19 -->
<g id="node4" class="node">
<title>Node19</title>
<g id="a_node4"><a xlink:href="classRecordProcessor.html#ad36d69ec9d41b424eb2e6c5fa2e0cf3a" target="_top" xlink:title="RecordProcessor::process">
<polygon fill="#ffffff" stroke="#000000" points="164.5,-76.5 164.5,-95.5 304.5,-95.5 304.5,-76.5 164.5,-76.5"/>
<text text-anchor="middle" x="234.5" y="-83.5" font-family="Helvetica,sans-Serif" font-size="10.00" fill="#000000">RecordProcessor::process</text>
</a>
</g>
</g>
<!-- Node16&#45;&gt;Node19 -->
<g id="edge3" class="edge">
<title>Node16&#45;&gt;Node19</title>
<path fill="none" stroke="#191970" d="M125.5172,-86C138.2492,-86 151.5797,-86 164.3741,-86"/>
<polygon fill="#191970" stroke="#191970" points="125.4565,-82.5001 115.4564,-86 125.4564,-89.5001 125.4565,-82.5001"/>
</g>
<!-- Node20 -->
<g id="node5" class="node">
<title>Node20</title>
<g id="a_node5"><a xlink:href="classPlayProcessor.html#a3df8da4a26e768d00b0cfada90b37cc9" target="_top" xlink:title="PlayProcessor::~PlayProcessor">
<polygon fill="#ffffff" stroke="#000000" points="151,-38.5 151,-57.5 318,-57.5 318,-38.5 151,-38.5"/>
<text text-anchor="middle" x="234.5" y="-45.5" font-family="Helvetica,sans-Serif" font-size="10.00" fill="#000000">PlayProcessor::~PlayProcessor</text>
</a>
</g>
</g>
<!-- Node16&#45;&gt;Node20 -->
<g id="edge4" class="edge">
<title>Node16&#45;&gt;Node20</title>
<path fill="none" stroke="#191970" d="M112.2423,-74.2474C137.27,-68.8742 166.5348,-62.5914 190.1566,-57.5201"/>
<polygon fill="#191970" stroke="#191970" points="111.2071,-70.8898 102.1646,-76.411 112.6765,-77.7339 111.2071,-70.8898"/>
</g>
<!-- Node21 -->
<g id="node6" class="node">
<title>Node21</title>
<g id="a_node6"><a xlink:href="classPlayProcessor.html#a46bc1b738f48261e0c430f7345f4d99f" target="_top" xlink:title="PlayProcessor::process">
<polygon fill="#ffffff" stroke="#000000" points="170.5,-.5 170.5,-19.5 298.5,-19.5 298.5,-.5 170.5,-.5"/>
<text text-anchor="middle" x="234.5" y="-7.5" font-family="Helvetica,sans-Serif" font-size="10.00" fill="#000000">PlayProcessor::process</text>
</a>
</g>
</g>
<!-- Node16&#45;&gt;Node21 -->
<g id="edge5" class="edge">
<title>Node16&#45;&gt;Node21</title>
<path fill="none" stroke="#191970" d="M78.2701,-70.6119C96.5585,-57.7475 124.3569,-39.815 151,-29 160.3673,-25.1976 170.6497,-22.0747 180.7001,-19.5385"/>
<polygon fill="#191970" stroke="#191970" points="76.1912,-67.7958 70.1029,-76.4667 80.2696,-73.485 76.1912,-67.7958"/>
</g>
</g>
</svg>
