<?xml version="1.0" encoding="UTF-8" standalone="no"?>
<!DOCTYPE svg PUBLIC "-//W3C//DTD SVG 1.1//EN"
 "http://www.w3.org/Graphics/SVG/1.1/DTD/svg11.dtd">
<!-- Generated by graphviz version 2.40.1 (20161225.0304)
 -->
<!-- Title: BlockManager::GetApp Pages: 1 -->
<svg width="501pt" height="78pt"
 viewBox="0.00 0.00 501.00 77.50" xmlns="http://www.w3.org/2000/svg" xmlns:xlink="http://www.w3.org/1999/xlink">
<g id="graph0" class="graph" transform="scale(1 1) rotate(0) translate(4 73.5)">
<title>BlockManager::GetApp</title>
<polygon fill="#ffffff" stroke="transparent" points="-4,4 -4,-73.5 497,-73.5 497,4 -4,4"/>
<!-- Node73 -->
<g id="node1" class="node">
<title>Node73</title>
<polygon fill="#bfbfbf" stroke="#000000" points="0,-28 0,-47 128,-47 128,-28 0,-28"/>
<text text-anchor="middle" x="64" y="-35" font-family="Helvetica,sans-Serif" font-size="10.00" fill="#000000">BlockManager::GetApp</text>
</g>
<!-- Node74 -->
<g id="node2" class="node">
<title>Node74</title>
<g id="a_node2"><a xlink:href="classBlockReadManager.html#af12804c61f944904eedf8c9edf5cd3bd" target="_top" xlink:title="BlockReadManager::Start">
<polygon fill="#ffffff" stroke="#000000" points="164,-50 164,-69 303,-69 303,-50 164,-50"/>
<text text-anchor="middle" x="233.5" y="-57" font-family="Helvetica,sans-Serif" font-size="10.00" fill="#000000">BlockReadManager::Start</text>
</a>
</g>
</g>
<!-- Node73&#45;&gt;Node74 -->
<g id="edge1" class="edge">
<title>Node73&#45;&gt;Node74</title>
<path fill="none" stroke="#191970" d="M138.0799,-47.1151C146.6743,-48.2306 155.4176,-49.3654 163.9484,-50.4726"/>
<polygon fill="#191970" stroke="#191970" points="138.448,-43.6336 128.0807,-45.8173 137.547,-50.5754 138.448,-43.6336"/>
</g>
<!-- Node76 -->
<g id="node4" class="node">
<title>Node76</title>
<g id="a_node4"><a xlink:href="classBlockWriteManager.html#ad694fe4875f415467800cab9f05a504a" target="_top" xlink:title="BlockWriteManager::\lStart">
<polygon fill="#ffffff" stroke="#000000" points="175,-.5 175,-30.5 292,-30.5 292,-.5 175,-.5"/>
<text text-anchor="start" x="183" y="-18.5" font-family="Helvetica,sans-Serif" font-size="10.00" fill="#000000">BlockWriteManager::</text>
<text text-anchor="middle" x="233.5" y="-7.5" font-family="Helvetica,sans-Serif" font-size="10.00" fill="#000000">Start</text>
</a>
</g>
</g>
<!-- Node73&#45;&gt;Node76 -->
<g id="edge3" class="edge">
<title>Node73&#45;&gt;Node76</title>
<path fill="none" stroke="#191970" d="M138.2862,-27.8581C150.546,-26.2669 163.1024,-24.6371 174.9081,-23.1048"/>
<polygon fill="#191970" stroke="#191970" points="137.547,-24.4246 128.0807,-29.1827 138.448,-31.3664 137.547,-24.4246"/>
</g>
<!-- Node75 -->
<g id="node3" class="node">
<title>Node75</title>
<g id="a_node3"><a xlink:href="classBlockReadManager.html#aa990976dec4a3ec5bd6384b54ce5f09b" target="_top" xlink:title="BlockReadManager::Manage">
<polygon fill="#ffffff" stroke="#000000" points="339,-50 339,-69 493,-69 493,-50 339,-50"/>
<text text-anchor="middle" x="416" y="-57" font-family="Helvetica,sans-Serif" font-size="10.00" fill="#000000">BlockReadManager::Manage</text>
</a>
</g>
</g>
<!-- Node74&#45;&gt;Node75 -->
<g id="edge2" class="edge">
<title>Node74&#45;&gt;Node75</title>
<path fill="none" stroke="#191970" d="M313.2555,-59.5C321.721,-59.5 330.3205,-59.5 338.7565,-59.5"/>
<polygon fill="#191970" stroke="#191970" points="313.0161,-56.0001 303.016,-59.5 313.016,-63.0001 313.0161,-56.0001"/>
</g>
<!-- Node77 -->
<g id="node5" class="node">
<title>Node77</title>
<g id="a_node5"><a xlink:href="classBlockWriteManager.html#a0b50330873c237f482c48aa06a4b1a9a" target="_top" xlink:title="BlockWriteManager::\lManage">
<polygon fill="#ffffff" stroke="#000000" points="357.5,-.5 357.5,-30.5 474.5,-30.5 474.5,-.5 357.5,-.5"/>
<text text-anchor="start" x="365.5" y="-18.5" font-family="Helvetica,sans-Serif" font-size="10.00" fill="#000000">BlockWriteManager::</text>
<text text-anchor="middle" x="416" y="-7.5" font-family="Helvetica,sans-Serif" font-size="10.00" fill="#000000">Manage</text>
</a>
</g>
</g>
<!-- Node76&#45;&gt;Node77 -->
<g id="edge4" class="edge">
<title>Node76&#45;&gt;Node77</title>
<path fill="none" stroke="#191970" d="M302.4405,-15.5C320.5305,-15.5 339.8667,-15.5 357.3614,-15.5"/>
<polygon fill="#191970" stroke="#191970" points="302.2487,-12.0001 292.2487,-15.5 302.2487,-19.0001 302.2487,-12.0001"/>
</g>
</g>
</svg>
