<?xml version="1.0" encoding="UTF-8" standalone="no"?>
<!DOCTYPE svg PUBLIC "-//W3C//DTD SVG 1.1//EN"
 "http://www.w3.org/Graphics/SVG/1.1/DTD/svg11.dtd">
<!-- Generated by graphviz version 2.40.1 (20161225.0304)
 -->
<!-- Title: AudioBlock::GenerateSubChain Pages: 1 -->
<svg width="531pt" height="154pt"
 viewBox="0.00 0.00 531.00 153.50" xmlns="http://www.w3.org/2000/svg" xmlns:xlink="http://www.w3.org/1999/xlink">
<g id="graph0" class="graph" transform="scale(1 1) rotate(0) translate(4 149.5)">
<title>AudioBlock::GenerateSubChain</title>
<polygon fill="#ffffff" stroke="transparent" points="-4,4 -4,-149.5 527,-149.5 527,4 -4,4"/>
<!-- Node43 -->
<g id="node1" class="node">
<title>Node43</title>
<polygon fill="#bfbfbf" stroke="#000000" points="0,-69 0,-88 168,-88 168,-69 0,-69"/>
<text text-anchor="middle" x="84" y="-76" font-family="Helvetica,sans-Serif" font-size="10.00" fill="#000000">AudioBlock::GenerateSubChain</text>
</g>
<!-- Node44 -->
<g id="node2" class="node">
<title>Node44</title>
<g id="a_node2"><a xlink:href="classAudioBlock.html#a380880c91c3af2322d232ce2de83b881" target="_top" xlink:title="AudioBlock::GetTotalLen">
<polygon fill="#ffffff" stroke="#000000" points="218.5,-126 218.5,-145 353.5,-145 353.5,-126 218.5,-126"/>
<text text-anchor="middle" x="286" y="-133" font-family="Helvetica,sans-Serif" font-size="10.00" fill="#000000">AudioBlock::GetTotalLen</text>
</a>
</g>
</g>
<!-- Node43&#45;&gt;Node44 -->
<g id="edge1" class="edge">
<title>Node43&#45;&gt;Node44</title>
<path fill="none" stroke="#191970" d="M111.9395,-88.0372C136.1419,-96.1327 172.1729,-107.788 204,-116.5 213.0052,-118.965 222.623,-121.383 231.9868,-123.624"/>
<polygon fill="#191970" stroke="#191970" points="231.471,-127.0981 242.0067,-125.9801 233.0733,-120.284 231.471,-127.0981"/>
</g>
<!-- Node45 -->
<g id="node3" class="node">
<title>Node45</title>
<g id="a_node3"><a xlink:href="classAudioBlock.html#ae7aec1591ed6f228799c11b650b2cc1b" target="_top" xlink:title="AudioBlock::GetExtendedData">
<polygon fill="#ffffff" stroke="#000000" points="204,-88 204,-107 368,-107 368,-88 204,-88"/>
<text text-anchor="middle" x="286" y="-95" font-family="Helvetica,sans-Serif" font-size="10.00" fill="#000000">AudioBlock::GetExtendedData</text>
</a>
</g>
</g>
<!-- Node43&#45;&gt;Node45 -->
<g id="edge2" class="edge">
<title>Node43&#45;&gt;Node45</title>
<path fill="none" stroke="#191970" d="M168.2035,-86.4201C176.6846,-87.2179 185.3282,-88.0309 193.8861,-88.8358"/>
<polygon fill="#191970" stroke="#191970" points="193.5943,-92.3237 203.8781,-89.7757 194.2499,-85.3545 193.5943,-92.3237"/>
</g>
<!-- Node47 -->
<g id="node5" class="node">
<title>Node47</title>
<g id="a_node5"><a xlink:href="classPreallocated.html#a9195f3c7f49432b1dd7be89e53c6a5b1" target="_top" xlink:title="Preallocated::RTNew">
<polygon fill="#ffffff" stroke="#000000" points="227.5,-50 227.5,-69 344.5,-69 344.5,-50 227.5,-50"/>
<text text-anchor="middle" x="286" y="-57" font-family="Helvetica,sans-Serif" font-size="10.00" fill="#000000">Preallocated::RTNew</text>
</a>
</g>
</g>
<!-- Node43&#45;&gt;Node47 -->
<g id="edge4" class="edge">
<title>Node43&#45;&gt;Node47</title>
<path fill="none" stroke="#191970" d="M168.2035,-70.5799C184.5432,-69.043 201.4864,-67.4493 217.2571,-65.9659"/>
<polygon fill="#191970" stroke="#191970" points="217.8051,-69.4299 227.4334,-65.0087 217.1495,-62.4607 217.8051,-69.4299"/>
</g>
<!-- Node48 -->
<g id="node6" class="node">
<title>Node48</title>
<g id="a_node6"><a xlink:href="classAudioBlock.html#a4f53140535b4c56db4c5360f3fb9eb7d" target="_top" xlink:title="AudioBlock::SetPtrsFromAbs\lOffset">
<polygon fill="#ffffff" stroke="#000000" points="209,-.5 209,-30.5 363,-30.5 363,-.5 209,-.5"/>
<text text-anchor="start" x="217" y="-18.5" font-family="Helvetica,sans-Serif" font-size="10.00" fill="#000000">AudioBlock::SetPtrsFromAbs</text>
<text text-anchor="middle" x="286" y="-7.5" font-family="Helvetica,sans-Serif" font-size="10.00" fill="#000000">Offset</text>
</a>
</g>
</g>
<!-- Node43&#45;&gt;Node48 -->
<g id="edge5" class="edge">
<title>Node43&#45;&gt;Node48</title>
<path fill="none" stroke="#191970" d="M114.0546,-68.8842C138.3096,-61.1477 173.3233,-50.0332 204,-40.5 211.214,-38.2582 218.7909,-35.9225 226.3032,-33.6184"/>
<polygon fill="#191970" stroke="#191970" points="227.568,-36.8916 236.1058,-30.6181 225.5193,-30.1981 227.568,-36.8916"/>
</g>
<!-- Node46 -->
<g id="node4" class="node">
<title>Node46</title>
<g id="a_node4"><a xlink:href="classBlockExtendedData.html#ae33e9550384a32abf2a91386334a2be9" target="_top" xlink:title="BlockExtendedData::\lGetType">
<polygon fill="#ffffff" stroke="#000000" points="404,-82.5 404,-112.5 523,-112.5 523,-82.5 404,-82.5"/>
<text text-anchor="start" x="412" y="-100.5" font-family="Helvetica,sans-Serif" font-size="10.00" fill="#000000">BlockExtendedData::</text>
<text text-anchor="middle" x="463.5" y="-89.5" font-family="Helvetica,sans-Serif" font-size="10.00" fill="#000000">GetType</text>
</a>
</g>
</g>
<!-- Node45&#45;&gt;Node46 -->
<g id="edge3" class="edge">
<title>Node45&#45;&gt;Node46</title>
<path fill="none" stroke="#191970" d="M368.2549,-97.5C376.7652,-97.5 385.3555,-97.5 393.7106,-97.5"/>
<polygon fill="#191970" stroke="#191970" points="393.7642,-101.0001 403.7642,-97.5 393.7641,-94.0001 393.7642,-101.0001"/>
</g>
</g>
</svg>
