<?xml version="1.0" encoding="UTF-8" standalone="no"?>
<!DOCTYPE svg PUBLIC "-//W3C//DTD SVG 1.1//EN"
 "http://www.w3.org/Graphics/SVG/1.1/DTD/svg11.dtd">
<!-- Generated by graphviz version 2.40.1 (20161225.0304)
 -->
<!-- Title: InputMatrix::CreateConditions Pages: 1 -->
<svg width="823pt" height="294pt"
 viewBox="0.00 0.00 823.00 294.00" xmlns="http://www.w3.org/2000/svg" xmlns:xlink="http://www.w3.org/1999/xlink">
<g id="graph0" class="graph" transform="scale(1 1) rotate(0) translate(4 290)">
<title>InputMatrix::CreateConditions</title>
<polygon fill="#ffffff" stroke="transparent" points="-4,4 -4,-290 819,-290 819,4 -4,4"/>
<!-- Node49 -->
<g id="node1" class="node">
<title>Node49</title>
<polygon fill="#bfbfbf" stroke="#000000" points="0,-133.5 0,-152.5 162,-152.5 162,-133.5 0,-133.5"/>
<text text-anchor="middle" x="81" y="-140.5" font-family="Helvetica,sans-Serif" font-size="10.00" fill="#000000">InputMatrix::CreateConditions</text>
</g>
<!-- Node50 -->
<g id="node2" class="node">
<title>Node50</title>
<g id="a_node2"><a xlink:href="classInputMatrix.html#a9c70a379d4cd4ab0e820ad141246c5ce" target="_top" xlink:title="InputMatrix::RemoveSpaces">
<polygon fill="#ffffff" stroke="#000000" points="201,-266.5 201,-285.5 353,-285.5 353,-266.5 201,-266.5"/>
<text text-anchor="middle" x="277" y="-273.5" font-family="Helvetica,sans-Serif" font-size="10.00" fill="#000000">InputMatrix::RemoveSpaces</text>
</a>
</g>
</g>
<!-- Node49&#45;&gt;Node50 -->
<g id="edge1" class="edge">
<title>Node49&#45;&gt;Node50</title>
<path fill="none" stroke="#191970" d="M88.6978,-152.7047C105.9819,-173.8585 150.1251,-224.4311 198,-252 205.7617,-256.4696 214.4409,-260.1871 223.1272,-263.2534"/>
<polygon fill="#191970" stroke="#191970" points="222.2964,-266.664 232.889,-266.4441 224.4712,-260.0104 222.2964,-266.664"/>
</g>
<!-- Node51 -->
<g id="node3" class="node">
<title>Node51</title>
<g id="a_node3"><a xlink:href="classEvent.html#acf5ff334c2594af821ffe232e3b4ae07" target="_top" xlink:title="Event::GetNumParams">
<polygon fill="#ffffff" stroke="#000000" points="564.5,-247.5 564.5,-266.5 691.5,-266.5 691.5,-247.5 564.5,-247.5"/>
<text text-anchor="middle" x="628" y="-254.5" font-family="Helvetica,sans-Serif" font-size="10.00" fill="#000000">Event::GetNumParams</text>
</a>
</g>
</g>
<!-- Node49&#45;&gt;Node51 -->
<g id="edge2" class="edge">
<title>Node49&#45;&gt;Node51</title>
<path fill="none" stroke="#191970" d="M91.6449,-152.5579C111.1184,-169.3992 154.4935,-203.9954 198,-219 317.774,-260.308 466.8779,-263.63 554.3411,-261.1219"/>
<polygon fill="#191970" stroke="#191970" points="554.5518,-264.617 564.4345,-260.7985 554.3276,-257.6206 554.5518,-264.617"/>
</g>
<!-- Node52 -->
<g id="node4" class="node">
<title>Node52</title>
<g id="a_node4"><a xlink:href="classEvent.html#a26e6e1967674bcda9abad999b0954ed9" target="_top" xlink:title="Event::GetParam">
<polygon fill="#ffffff" stroke="#000000" points="579,-133.5 579,-152.5 677,-152.5 677,-133.5 579,-133.5"/>
<text text-anchor="middle" x="628" y="-140.5" font-family="Helvetica,sans-Serif" font-size="10.00" fill="#000000">Event::GetParam</text>
</a>
</g>
</g>
<!-- Node49&#45;&gt;Node52 -->
<g id="edge3" class="edge">
<title>Node49&#45;&gt;Node52</title>
<path fill="none" stroke="#191970" d="M162.0061,-143C273.1651,-143 470.3713,-143 568.751,-143"/>
<polygon fill="#191970" stroke="#191970" points="568.8162,-146.5001 578.8162,-143 568.8162,-139.5001 568.8162,-146.5001"/>
</g>
<!-- Node53 -->
<g id="node5" class="node">
<title>Node53</title>
<g id="a_node5"><a xlink:href="classEvent.html#ac4c4170579544b41dff38ca1b8110e30" target="_top" xlink:title="Event::GetType">
<polygon fill="#ffffff" stroke="#000000" points="232,-114.5 232,-133.5 322,-133.5 322,-114.5 232,-114.5"/>
<text text-anchor="middle" x="277" y="-121.5" font-family="Helvetica,sans-Serif" font-size="10.00" fill="#000000">Event::GetType</text>
</a>
</g>
</g>
<!-- Node49&#45;&gt;Node53 -->
<g id="edge4" class="edge">
<title>Node49&#45;&gt;Node53</title>
<path fill="none" stroke="#191970" d="M162.1355,-135.1348C182.2176,-133.1881 203.2738,-131.1469 221.793,-129.3517"/>
<polygon fill="#191970" stroke="#191970" points="222.1825,-132.8304 231.7981,-128.3818 221.507,-125.8631 222.1825,-132.8304"/>
</g>
<!-- Node54 -->
<g id="node6" class="node">
<title>Node54</title>
<g id="a_node6"><a xlink:href="classInputMatrix.html#a0f597dbf1d6c784c851626005fb2ee72" target="_top" xlink:title="InputMatrix::ParseExpression">
<polygon fill="#ffffff" stroke="#000000" points="198,-190.5 198,-209.5 356,-209.5 356,-190.5 198,-190.5"/>
<text text-anchor="middle" x="277" y="-197.5" font-family="Helvetica,sans-Serif" font-size="10.00" fill="#000000">InputMatrix::ParseExpression</text>
</a>
</g>
</g>
<!-- Node49&#45;&gt;Node54 -->
<g id="edge5" class="edge">
<title>Node49&#45;&gt;Node54</title>
<path fill="none" stroke="#191970" d="M113.806,-152.5405C146.8772,-162.1582 198.0764,-177.0477 234.2959,-187.581"/>
<polygon fill="#191970" stroke="#191970" points="233.5074,-190.9966 244.087,-190.4284 235.4622,-184.275 233.5074,-190.9966"/>
</g>
<!-- Node58 -->
<g id="node10" class="node">
<title>Node58</title>
<g id="a_node10"><a xlink:href="classParsedExpression.html#a18b7d8e3e735dc63abfb35f4e398e8ee" target="_top" xlink:title="ParsedExpression::IsStatic">
<polygon fill="#ffffff" stroke="#000000" points="205,-76.5 205,-95.5 349,-95.5 349,-76.5 205,-76.5"/>
<text text-anchor="middle" x="277" y="-83.5" font-family="Helvetica,sans-Serif" font-size="10.00" fill="#000000">ParsedExpression::IsStatic</text>
</a>
</g>
</g>
<!-- Node49&#45;&gt;Node58 -->
<g id="edge11" class="edge">
<title>Node49&#45;&gt;Node58</title>
<path fill="none" stroke="#191970" d="M108.2382,-133.4861C131.8338,-125.4052 166.963,-113.7581 198,-105 206.5816,-102.5784 215.7419,-100.1943 224.6717,-97.9768"/>
<polygon fill="#191970" stroke="#191970" points="225.7278,-101.3219 234.6129,-95.5508 224.0682,-94.5214 225.7278,-101.3219"/>
</g>
<!-- Node59 -->
<g id="node11" class="node">
<title>Node59</title>
<g id="a_node11"><a xlink:href="classParsedExpression.html#a8b8c5462181f05c11f51df722809ac7e" target="_top" xlink:title="ParsedExpression::Evaluate">
<polygon fill="#ffffff" stroke="#000000" points="201.5,-38.5 201.5,-57.5 352.5,-57.5 352.5,-38.5 201.5,-38.5"/>
<text text-anchor="middle" x="277" y="-45.5" font-family="Helvetica,sans-Serif" font-size="10.00" fill="#000000">ParsedExpression::Evaluate</text>
</a>
</g>
</g>
<!-- Node49&#45;&gt;Node59 -->
<g id="edge12" class="edge">
<title>Node49&#45;&gt;Node59</title>
<path fill="none" stroke="#191970" d="M92.8484,-133.3118C113.1393,-117.1966 156.3884,-84.8906 198,-67 203.7831,-64.5136 209.9506,-62.3167 216.1926,-60.3839"/>
<polygon fill="#191970" stroke="#191970" points="217.374,-63.6862 226.0185,-57.5605 215.4407,-56.9584 217.374,-63.6862"/>
</g>
<!-- Node63 -->
<g id="node15" class="node">
<title>Node63</title>
<g id="a_node15"><a xlink:href="classParsedExpression.html#a0d3a48a6f1743c631cc6892a2f37d545" target="_top" xlink:title="ParsedExpression::Print">
<polygon fill="#ffffff" stroke="#000000" points="211.5,-.5 211.5,-19.5 342.5,-19.5 342.5,-.5 211.5,-.5"/>
<text text-anchor="middle" x="277" y="-7.5" font-family="Helvetica,sans-Serif" font-size="10.00" fill="#000000">ParsedExpression::Print</text>
</a>
</g>
</g>
<!-- Node49&#45;&gt;Node63 -->
<g id="edge16" class="edge">
<title>Node49&#45;&gt;Node63</title>
<path fill="none" stroke="#191970" d="M87.9696,-133.2886C104.4272,-111.1112 148.0898,-56.54 198,-29 202.18,-26.6935 206.6355,-24.6648 211.2206,-22.8807"/>
<polygon fill="#191970" stroke="#191970" points="212.4775,-26.1492 220.7674,-19.5517 210.1726,-19.5395 212.4775,-26.1492"/>
</g>
<!-- Node55 -->
<g id="node7" class="node">
<title>Node55</title>
<g id="a_node7"><a xlink:href="classInputMatrix.html#a3fef785cfe7cbdd8c5cef1b3988a5928" target="_top" xlink:title="InputMatrix::ParseToken">
<polygon fill="#ffffff" stroke="#000000" points="392,-190.5 392,-209.5 525,-209.5 525,-190.5 392,-190.5"/>
<text text-anchor="middle" x="458.5" y="-197.5" font-family="Helvetica,sans-Serif" font-size="10.00" fill="#000000">InputMatrix::ParseToken</text>
</a>
</g>
</g>
<!-- Node54&#45;&gt;Node55 -->
<g id="edge6" class="edge">
<title>Node54&#45;&gt;Node55</title>
<path fill="none" stroke="#191970" d="M356.0806,-200C364.5699,-200 373.1978,-200 381.6603,-200"/>
<polygon fill="#191970" stroke="#191970" points="381.8804,-203.5001 391.8804,-200 381.8803,-196.5001 381.8804,-203.5001"/>
</g>
<!-- Node55&#45;&gt;Node51 -->
<g id="edge8" class="edge">
<title>Node55&#45;&gt;Node51</title>
<path fill="none" stroke="#191970" d="M485.4108,-209.5428C497.534,-213.8853 512.0127,-219.132 525,-224 541.0751,-230.0255 544.7238,-232.541 561,-238 567.8563,-240.2996 575.1663,-242.5618 582.3435,-244.6786"/>
<polygon fill="#191970" stroke="#191970" points="581.415,-248.0534 591.9935,-247.4648 583.3568,-241.3281 581.415,-248.0534"/>
</g>
<!-- Node55&#45;&gt;Node52 -->
<g id="edge9" class="edge">
<title>Node55&#45;&gt;Node52</title>
<path fill="none" stroke="#191970" d="M485.4108,-190.4572C497.534,-186.1147 512.0127,-180.868 525,-176 541.0751,-169.9745 544.7238,-167.459 561,-162 567.8563,-159.7004 575.1663,-157.4382 582.3435,-155.3214"/>
<polygon fill="#191970" stroke="#191970" points="583.3568,-158.6719 591.9935,-152.5352 581.415,-151.9466 583.3568,-158.6719"/>
</g>
<!-- Node56 -->
<g id="node8" class="node">
<title>Node56</title>
<g id="a_node8"><a xlink:href="classSDLIO.html#abaeb854236eac3b6f32bd3f180035c04" target="_top" xlink:title="SDLIO::GetSDLKey">
<polygon fill="#ffffff" stroke="#000000" points="575,-209.5 575,-228.5 681,-228.5 681,-209.5 575,-209.5"/>
<text text-anchor="middle" x="628" y="-216.5" font-family="Helvetica,sans-Serif" font-size="10.00" fill="#000000">SDLIO::GetSDLKey</text>
</a>
</g>
</g>
<!-- Node55&#45;&gt;Node56 -->
<g id="edge7" class="edge">
<title>Node55&#45;&gt;Node56</title>
<path fill="none" stroke="#191970" d="M525.0044,-207.4548C538.031,-208.915 551.6613,-210.4429 564.5839,-211.8914"/>
<polygon fill="#191970" stroke="#191970" points="564.443,-215.3975 574.7707,-213.0333 565.2228,-208.441 564.443,-215.3975"/>
</g>
<!-- Node57 -->
<g id="node9" class="node">
<title>Node57</title>
<g id="a_node9"><a xlink:href="classInputMatrix.html#acafdb1d056b52e894a11496f3f322078" target="_top" xlink:title="InputMatrix::SetVariable">
<polygon fill="#ffffff" stroke="#000000" points="561,-171.5 561,-190.5 695,-190.5 695,-171.5 561,-171.5"/>
<text text-anchor="middle" x="628" y="-178.5" font-family="Helvetica,sans-Serif" font-size="10.00" fill="#000000">InputMatrix::SetVariable</text>
</a>
</g>
</g>
<!-- Node55&#45;&gt;Node57 -->
<g id="edge10" class="edge">
<title>Node55&#45;&gt;Node57</title>
<path fill="none" stroke="#191970" d="M525.0044,-192.5452C533.4705,-191.5962 542.1915,-190.6187 550.8075,-189.6528"/>
<polygon fill="#191970" stroke="#191970" points="551.3044,-193.1192 560.8522,-188.5269 550.5245,-186.1627 551.3044,-193.1192"/>
</g>
<!-- Node60 -->
<g id="node12" class="node">
<title>Node60</title>
<g id="a_node12"><a xlink:href="classCfgToken.html#a5e30ffe3bc7cf2483e390cf023eaa6c0" target="_top" xlink:title="CfgToken::Evaluate">
<polygon fill="#ffffff" stroke="#000000" points="403.5,-38.5 403.5,-57.5 513.5,-57.5 513.5,-38.5 403.5,-38.5"/>
<text text-anchor="middle" x="458.5" y="-45.5" font-family="Helvetica,sans-Serif" font-size="10.00" fill="#000000">CfgToken::Evaluate</text>
</a>
</g>
</g>
<!-- Node59&#45;&gt;Node60 -->
<g id="edge13" class="edge">
<title>Node59&#45;&gt;Node60</title>
<path fill="none" stroke="#191970" d="M352.6581,-48C366.0895,-48 379.9747,-48 393.092,-48"/>
<polygon fill="#191970" stroke="#191970" points="393.4239,-51.5001 403.4238,-48 393.4238,-44.5001 393.4239,-51.5001"/>
</g>
<!-- Node61 -->
<g id="node13" class="node">
<title>Node61</title>
<g id="a_node13"><a xlink:href="classUserVariable.html#a7cbb83559d78173a8b7810c3ecc3842f" target="_top" xlink:title="UserVariable::SetFrom">
<polygon fill="#ffffff" stroke="#000000" points="565.5,-38.5 565.5,-57.5 690.5,-57.5 690.5,-38.5 565.5,-38.5"/>
<text text-anchor="middle" x="628" y="-45.5" font-family="Helvetica,sans-Serif" font-size="10.00" fill="#000000">UserVariable::SetFrom</text>
</a>
</g>
</g>
<!-- Node60&#45;&gt;Node61 -->
<g id="edge14" class="edge">
<title>Node60&#45;&gt;Node61</title>
<path fill="none" stroke="#191970" d="M513.5318,-48C526.8332,-48 541.2528,-48 555.2289,-48"/>
<polygon fill="#191970" stroke="#191970" points="555.305,-51.5001 565.3049,-48 555.3049,-44.5001 555.305,-51.5001"/>
</g>
<!-- Node62 -->
<g id="node14" class="node">
<title>Node62</title>
<g id="a_node14"><a xlink:href="classRange.html#a378dde258315602c6929b84cb10f8f8d" target="_top" xlink:title="Range::Range">
<polygon fill="#ffffff" stroke="#000000" points="731,-38.5 731,-57.5 815,-57.5 815,-38.5 731,-38.5"/>
<text text-anchor="middle" x="773" y="-45.5" font-family="Helvetica,sans-Serif" font-size="10.00" fill="#000000">Range::Range</text>
</a>
</g>
</g>
<!-- Node61&#45;&gt;Node62 -->
<g id="edge15" class="edge">
<title>Node61&#45;&gt;Node62</title>
<path fill="none" stroke="#191970" d="M690.7558,-48C700.6484,-48 710.7876,-48 720.4184,-48"/>
<polygon fill="#191970" stroke="#191970" points="720.6336,-51.5001 730.6336,-48 720.6336,-44.5001 720.6336,-51.5001"/>
</g>
<!-- Node64 -->
<g id="node16" class="node">
<title>Node64</title>
<g id="a_node16"><a xlink:href="classCfgToken.html#abba9204af7f225da0c2c0793c119cf8b" target="_top" xlink:title="CfgToken::Print">
<polygon fill="#ffffff" stroke="#000000" points="413.5,-.5 413.5,-19.5 503.5,-19.5 503.5,-.5 413.5,-.5"/>
<text text-anchor="middle" x="458.5" y="-7.5" font-family="Helvetica,sans-Serif" font-size="10.00" fill="#000000">CfgToken::Print</text>
</a>
</g>
</g>
<!-- Node63&#45;&gt;Node64 -->
<g id="edge17" class="edge">
<title>Node63&#45;&gt;Node64</title>
<path fill="none" stroke="#191970" d="M342.5257,-10C362.4081,-10 384.0452,-10 403.1869,-10"/>
<polygon fill="#191970" stroke="#191970" points="403.2411,-13.5001 413.2411,-10 403.2411,-6.5001 403.2411,-13.5001"/>
</g>
</g>
</svg>
