<?xml version="1.0" encoding="UTF-8" standalone="no"?>
<!DOCTYPE svg PUBLIC "-//W3C//DTD SVG 1.1//EN"
 "http://www.w3.org/Graphics/SVG/1.1/DTD/svg11.dtd">
<!-- Generated by graphviz version 2.40.1 (20161225.0304)
 -->
<!-- Title: MidiIO::ReceiveControlChangeEvent Pages: 1 -->
<svg width="590pt" height="218pt"
 viewBox="0.00 0.00 590.00 218.00" xmlns="http://www.w3.org/2000/svg" xmlns:xlink="http://www.w3.org/1999/xlink">
<g id="graph0" class="graph" transform="scale(1 1) rotate(0) translate(4 214)">
<title>MidiIO::ReceiveControlChangeEvent</title>
<polygon fill="#ffffff" stroke="transparent" points="-4,4 -4,-214 586,-214 586,4 -4,4"/>
<!-- Node212 -->
<g id="node1" class="node">
<title>Node212</title>
<polygon fill="#bfbfbf" stroke="#000000" points="0,-109 0,-139 164,-139 164,-109 0,-109"/>
<text text-anchor="start" x="8" y="-127" font-family="Helvetica,sans-Serif" font-size="10.00" fill="#000000">MidiIO::ReceiveControlChange</text>
<text text-anchor="middle" x="82" y="-116" font-family="Helvetica,sans-Serif" font-size="10.00" fill="#000000">Event</text>
</g>
<!-- Node213 -->
<g id="node2" class="node">
<title>Node213</title>
<g id="a_node2"><a xlink:href="classEvent.html#aa67af0ae99b897e4f0ce42068c4e4c00" target="_top" xlink:title="Event::GetEventByType">
<polygon fill="#ffffff" stroke="#000000" points="230,-190.5 230,-209.5 361,-209.5 361,-190.5 230,-190.5"/>
<text text-anchor="middle" x="295.5" y="-197.5" font-family="Helvetica,sans-Serif" font-size="10.00" fill="#000000">Event::GetEventByType</text>
</a>
</g>
</g>
<!-- Node212&#45;&gt;Node213 -->
<g id="edge1" class="edge">
<title>Node212&#45;&gt;Node213</title>
<path fill="none" stroke="#191970" d="M108.3653,-139.1405C131.7576,-151.9816 167.2089,-170.0171 200,-181 208.2108,-183.7501 216.9592,-186.1603 225.7013,-188.2566"/>
<polygon fill="#191970" stroke="#191970" points="225.013,-191.6893 235.5398,-190.4914 226.5635,-184.8632 225.013,-191.6893"/>
</g>
<!-- Node214 -->
<g id="node3" class="node">
<title>Node214</title>
<g id="a_node3"><a xlink:href="classFweelin.html#a681d7ca8d0789199af135f22c26a5409" target="_top" xlink:title="Fweelin::getCFG">
<polygon fill="#ffffff" stroke="#000000" points="248,-152.5 248,-171.5 343,-171.5 343,-152.5 248,-152.5"/>
<text text-anchor="middle" x="295.5" y="-159.5" font-family="Helvetica,sans-Serif" font-size="10.00" fill="#000000">Fweelin::getCFG</text>
</a>
</g>
</g>
<!-- Node212&#45;&gt;Node214 -->
<g id="edge2" class="edge">
<title>Node212&#45;&gt;Node214</title>
<path fill="none" stroke="#191970" d="M164.2393,-138.6374C188.7893,-143.007 215.1675,-147.7019 237.7911,-151.7286"/>
<polygon fill="#191970" stroke="#191970" points="237.4428,-155.2216 247.9014,-153.5281 238.6695,-148.3299 237.4428,-155.2216"/>
</g>
<!-- Node215 -->
<g id="node4" class="node">
<title>Node215</title>
<g id="a_node4"><a xlink:href="classFloConfig.html#aaedfda90b488c27061a73b3bc98faf9a" target="_top" xlink:title="FloConfig::IsDebugInfo">
<polygon fill="#ffffff" stroke="#000000" points="232.5,-114.5 232.5,-133.5 358.5,-133.5 358.5,-114.5 232.5,-114.5"/>
<text text-anchor="middle" x="295.5" y="-121.5" font-family="Helvetica,sans-Serif" font-size="10.00" fill="#000000">FloConfig::IsDebugInfo</text>
</a>
</g>
</g>
<!-- Node212&#45;&gt;Node215 -->
<g id="edge3" class="edge">
<title>Node212&#45;&gt;Node215</title>
<path fill="none" stroke="#191970" d="M164.2393,-124C183.2692,-124 203.3976,-124 222.0242,-124"/>
<polygon fill="#191970" stroke="#191970" points="222.2014,-127.5001 232.2014,-124 222.2013,-120.5001 222.2014,-127.5001"/>
</g>
<!-- Node216 -->
<g id="node5" class="node">
<title>Node216</title>
<g id="a_node5"><a xlink:href="classFweelin.html#a21e51d7b639faaecc415624ab6c16a71" target="_top" xlink:title="Fweelin::getEMG">
<polygon fill="#ffffff" stroke="#000000" points="246.5,-76.5 246.5,-95.5 344.5,-95.5 344.5,-76.5 246.5,-76.5"/>
<text text-anchor="middle" x="295.5" y="-83.5" font-family="Helvetica,sans-Serif" font-size="10.00" fill="#000000">Fweelin::getEMG</text>
</a>
</g>
</g>
<!-- Node212&#45;&gt;Node216 -->
<g id="edge4" class="edge">
<title>Node212&#45;&gt;Node216</title>
<path fill="none" stroke="#191970" d="M164.2393,-109.3626C188.2799,-105.0837 214.0738,-100.4927 236.3782,-96.5229"/>
<polygon fill="#191970" stroke="#191970" points="237.1298,-99.9442 246.3618,-94.7459 235.9032,-93.0525 237.1298,-99.9442"/>
</g>
<!-- Node217 -->
<g id="node6" class="node">
<title>Node217</title>
<g id="a_node6"><a xlink:href="classEventManager.html#a4a73f2e7ff1724f28427f7c0d5725c8e" target="_top" xlink:title="EventManager::BroadcastEventNow">
<polygon fill="#ffffff" stroke="#000000" points="200,-38.5 200,-57.5 391,-57.5 391,-38.5 200,-38.5"/>
<text text-anchor="middle" x="295.5" y="-45.5" font-family="Helvetica,sans-Serif" font-size="10.00" fill="#000000">EventManager::BroadcastEventNow</text>
</a>
</g>
</g>
<!-- Node212&#45;&gt;Node217 -->
<g id="edge5" class="edge">
<title>Node212&#45;&gt;Node217</title>
<path fill="none" stroke="#191970" d="M108.3653,-108.8595C131.7576,-96.0184 167.2089,-77.9829 200,-67 208.2108,-64.2499 216.9592,-61.8397 225.7013,-59.7434"/>
<polygon fill="#191970" stroke="#191970" points="226.5635,-63.1368 235.5398,-57.5086 225.013,-56.3107 226.5635,-63.1368"/>
</g>
<!-- Node218 -->
<g id="node7" class="node">
<title>Node218</title>
<g id="a_node7"><a xlink:href="classEvent.html#ac4c4170579544b41dff38ca1b8110e30" target="_top" xlink:title="Event::GetType">
<polygon fill="#ffffff" stroke="#000000" points="459.5,-76.5 459.5,-95.5 549.5,-95.5 549.5,-76.5 459.5,-76.5"/>
<text text-anchor="middle" x="504.5" y="-83.5" font-family="Helvetica,sans-Serif" font-size="10.00" fill="#000000">Event::GetType</text>
</a>
</g>
</g>
<!-- Node217&#45;&gt;Node218 -->
<g id="edge6" class="edge">
<title>Node217&#45;&gt;Node218</title>
<path fill="none" stroke="#191970" d="M347.9698,-57.54C378.9568,-63.174 418.1385,-70.2979 449.5488,-76.0089"/>
<polygon fill="#191970" stroke="#191970" points="448.9888,-79.4644 459.4536,-77.8097 450.241,-72.5773 448.9888,-79.4644"/>
</g>
<!-- Node219 -->
<g id="node8" class="node">
<title>Node219</title>
<g id="a_node8"><a xlink:href="classEventListener.html#a831820a9229e852bd7e2fad686b725b2" target="_top" xlink:title="EventListener::ReceiveEvent">
<polygon fill="#ffffff" stroke="#000000" points="427,-38.5 427,-57.5 582,-57.5 582,-38.5 427,-38.5"/>
<text text-anchor="middle" x="504.5" y="-45.5" font-family="Helvetica,sans-Serif" font-size="10.00" fill="#000000">EventListener::ReceiveEvent</text>
</a>
</g>
</g>
<!-- Node217&#45;&gt;Node219 -->
<g id="edge7" class="edge">
<title>Node217&#45;&gt;Node219</title>
<path fill="none" stroke="#191970" d="M391.1311,-48C399.6132,-48 408.1737,-48 416.5871,-48"/>
<polygon fill="#191970" stroke="#191970" points="416.7614,-51.5001 426.7614,-48 416.7614,-44.5001 416.7614,-51.5001"/>
</g>
<!-- Node220 -->
<g id="node9" class="node">
<title>Node220</title>
<g id="a_node9"><a xlink:href="classPreallocated.html#aaf2139a79ca16de70acd9bc4564171b7" target="_top" xlink:title="Preallocated::RTDelete">
<polygon fill="#ffffff" stroke="#000000" points="440.5,-.5 440.5,-19.5 568.5,-19.5 568.5,-.5 440.5,-.5"/>
<text text-anchor="middle" x="504.5" y="-7.5" font-family="Helvetica,sans-Serif" font-size="10.00" fill="#000000">Preallocated::RTDelete</text>
</a>
</g>
</g>
<!-- Node217&#45;&gt;Node220 -->
<g id="edge8" class="edge">
<title>Node217&#45;&gt;Node220</title>
<path fill="none" stroke="#191970" d="M347.9698,-38.46C376.5413,-33.2652 412.0796,-26.8037 442.0691,-21.3511"/>
<polygon fill="#191970" stroke="#191970" points="442.7961,-24.7764 452.0087,-19.5439 441.5438,-17.8893 442.7961,-24.7764"/>
</g>
</g>
</svg>
