<?xml version="1.0" encoding="UTF-8" standalone="no"?>
<!DOCTYPE svg PUBLIC "-//W3C//DTD SVG 1.1//EN"
 "http://www.w3.org/Graphics/SVG/1.1/DTD/svg11.dtd">
<!-- Generated by graphviz version 2.40.1 (20161225.0304)
 -->
<!-- Title: RootProcessor::AdjustInputVolume Pages: 1 -->
<svg width="504pt" height="66pt"
 viewBox="0.00 0.00 504.00 66.00" xmlns="http://www.w3.org/2000/svg" xmlns:xlink="http://www.w3.org/1999/xlink">
<g id="graph0" class="graph" transform="scale(1 1) rotate(0) translate(4 62)">
<title>RootProcessor::AdjustInputVolume</title>
<polygon fill="#ffffff" stroke="transparent" points="-4,4 -4,-62 500,-62 500,4 -4,4"/>
<!-- Node24 -->
<g id="node1" class="node">
<title>Node24</title>
<polygon fill="#bfbfbf" stroke="#000000" points="0,-14 0,-44 147,-44 147,-14 0,-14"/>
<text text-anchor="start" x="8" y="-32" font-family="Helvetica,sans-Serif" font-size="10.00" fill="#000000">RootProcessor::AdjustInput</text>
<text text-anchor="middle" x="73.5" y="-21" font-family="Helvetica,sans-Serif" font-size="10.00" fill="#000000">Volume</text>
</g>
<!-- Node25 -->
<g id="node2" class="node">
<title>Node25</title>
<g id="a_node2"><a xlink:href="classFweelin.html#acb51892233f08f4b0b9f2e7d7a625448" target="_top" xlink:title="Fweelin::getAUDIO">
<polygon fill="#ffffff" stroke="#000000" points="193.5,-38.5 193.5,-57.5 301.5,-57.5 301.5,-38.5 193.5,-38.5"/>
<text text-anchor="middle" x="247.5" y="-45.5" font-family="Helvetica,sans-Serif" font-size="10.00" fill="#000000">Fweelin::getAUDIO</text>
</a>
</g>
</g>
<!-- Node24&#45;&gt;Node25 -->
<g id="edge1" class="edge">
<title>Node24&#45;&gt;Node25</title>
<path fill="none" stroke="#191970" d="M147.0395,-37.0302C159.0913,-38.3462 171.4963,-39.7007 183.299,-40.9895"/>
<polygon fill="#191970" stroke="#191970" points="183.1712,-44.4963 193.492,-42.1026 183.9311,-37.5377 183.1712,-44.4963"/>
</g>
<!-- Node26 -->
<g id="node3" class="node">
<title>Node26</title>
<g id="a_node3"><a xlink:href="classAudioIO.html#a53438a70443717836d12c04b3c7850d0" target="_top" xlink:title="AudioIO::GetTimeScale">
<polygon fill="#ffffff" stroke="#000000" points="183,-.5 183,-19.5 312,-19.5 312,-.5 183,-.5"/>
<text text-anchor="middle" x="247.5" y="-7.5" font-family="Helvetica,sans-Serif" font-size="10.00" fill="#000000">AudioIO::GetTimeScale</text>
</a>
</g>
</g>
<!-- Node24&#45;&gt;Node26 -->
<g id="edge2" class="edge">
<title>Node24&#45;&gt;Node26</title>
<path fill="none" stroke="#191970" d="M147.0395,-20.9698C155.4798,-20.0482 164.0934,-19.1076 172.552,-18.184"/>
<polygon fill="#191970" stroke="#191970" points="173.2097,-21.6331 182.7707,-17.0681 172.4498,-14.6744 173.2097,-21.6331"/>
</g>
<!-- Node27 -->
<g id="node4" class="node">
<title>Node27</title>
<g id="a_node4"><a xlink:href="classAudioIO.html#a42b9c04861d014fce6b1f68097ca63fd" target="_top" xlink:title="AudioIO::RelocateTransport">
<polygon fill="#ffffff" stroke="#000000" points="348,-.5 348,-19.5 496,-19.5 496,-.5 348,-.5"/>
<text text-anchor="middle" x="422" y="-7.5" font-family="Helvetica,sans-Serif" font-size="10.00" fill="#000000">AudioIO::RelocateTransport</text>
</a>
</g>
</g>
<!-- Node26&#45;&gt;Node27 -->
<g id="edge3" class="edge">
<title>Node26&#45;&gt;Node27</title>
<path fill="none" stroke="#191970" d="M312.4774,-10C320.6753,-10 329.1543,-10 337.5977,-10"/>
<polygon fill="#191970" stroke="#191970" points="337.858,-13.5001 347.8579,-10 337.8579,-6.5001 337.858,-13.5001"/>
</g>
</g>
</svg>
