<?xml version="1.0" encoding="UTF-8" standalone="no"?>
<!DOCTYPE svg PUBLIC "-//W3C//DTD SVG 1.1//EN"
 "http://www.w3.org/Graphics/SVG/1.1/DTD/svg11.dtd">
<!-- Generated by graphviz version 2.40.1 (20161225.0304)
 -->
<!-- Title: LoopManager::AdjustLoopVolume Pages: 1 -->
<svg width="536pt" height="142pt"
 viewBox="0.00 0.00 536.00 142.00" xmlns="http://www.w3.org/2000/svg" xmlns:xlink="http://www.w3.org/1999/xlink">
<g id="graph0" class="graph" transform="scale(1 1) rotate(0) translate(4 138)">
<title>LoopManager::AdjustLoopVolume</title>
<polygon fill="#ffffff" stroke="transparent" points="-4,4 -4,-138 532,-138 532,4 -4,4"/>
<!-- Node117 -->
<g id="node1" class="node">
<title>Node117</title>
<polygon fill="#bfbfbf" stroke="#000000" points="0,-57.5 0,-76.5 179,-76.5 179,-57.5 0,-57.5"/>
<text text-anchor="middle" x="89.5" y="-64.5" font-family="Helvetica,sans-Serif" font-size="10.00" fill="#000000">LoopManager::AdjustLoopVolume</text>
</g>
<!-- Node118 -->
<g id="node2" class="node">
<title>Node118</title>
<g id="a_node2"><a xlink:href="classFweelin.html#a10bb364ecf38990653b49a98c5a89c90" target="_top" xlink:title="Fweelin::getTMAP">
<polygon fill="#ffffff" stroke="#000000" points="228,-114.5 228,-133.5 331,-133.5 331,-114.5 228,-114.5"/>
<text text-anchor="middle" x="279.5" y="-121.5" font-family="Helvetica,sans-Serif" font-size="10.00" fill="#000000">Fweelin::getTMAP</text>
</a>
</g>
</g>
<!-- Node117&#45;&gt;Node118 -->
<g id="edge1" class="edge">
<title>Node117&#45;&gt;Node118</title>
<path fill="none" stroke="#191970" d="M120.6833,-76.5132C146.0647,-84.2393 182.8259,-95.3904 215,-105 222.2329,-107.1603 229.9272,-109.4415 237.3883,-111.6447"/>
<polygon fill="#191970" stroke="#191970" points="236.4223,-115.0088 247.0039,-114.4794 238.4017,-108.2945 236.4223,-115.0088"/>
</g>
<!-- Node119 -->
<g id="node3" class="node">
<title>Node119</title>
<g id="a_node3"><a xlink:href="classTriggerMap.html#aca3f85b40f3aa29a280c2d7511b84217" target="_top" xlink:title="TriggerMap::GetMap">
<polygon fill="#ffffff" stroke="#000000" points="223,-76.5 223,-95.5 336,-95.5 336,-76.5 223,-76.5"/>
<text text-anchor="middle" x="279.5" y="-83.5" font-family="Helvetica,sans-Serif" font-size="10.00" fill="#000000">TriggerMap::GetMap</text>
</a>
</g>
</g>
<!-- Node117&#45;&gt;Node119 -->
<g id="edge2" class="edge">
<title>Node117&#45;&gt;Node119</title>
<path fill="none" stroke="#191970" d="M179.2143,-75.9714C190.5004,-77.1 201.8863,-78.2386 212.7322,-79.3232"/>
<polygon fill="#191970" stroke="#191970" points="212.6458,-82.8319 222.9444,-80.3444 213.3423,-75.8667 212.6458,-82.8319"/>
</g>
<!-- Node120 -->
<g id="node4" class="node">
<title>Node120</title>
<g id="a_node4"><a xlink:href="classFweelin.html#acb51892233f08f4b0b9f2e7d7a625448" target="_top" xlink:title="Fweelin::getAUDIO">
<polygon fill="#ffffff" stroke="#000000" points="225.5,-38.5 225.5,-57.5 333.5,-57.5 333.5,-38.5 225.5,-38.5"/>
<text text-anchor="middle" x="279.5" y="-45.5" font-family="Helvetica,sans-Serif" font-size="10.00" fill="#000000">Fweelin::getAUDIO</text>
</a>
</g>
</g>
<!-- Node117&#45;&gt;Node120 -->
<g id="edge3" class="edge">
<title>Node117&#45;&gt;Node120</title>
<path fill="none" stroke="#191970" d="M179.2143,-58.0286C191.402,-56.8098 203.7059,-55.5794 215.3206,-54.4179"/>
<polygon fill="#191970" stroke="#191970" points="215.7277,-57.8948 225.3297,-53.417 215.0311,-50.9295 215.7277,-57.8948"/>
</g>
<!-- Node121 -->
<g id="node5" class="node">
<title>Node121</title>
<g id="a_node5"><a xlink:href="classAudioIO.html#a53438a70443717836d12c04b3c7850d0" target="_top" xlink:title="AudioIO::GetTimeScale">
<polygon fill="#ffffff" stroke="#000000" points="215,-.5 215,-19.5 344,-19.5 344,-.5 215,-.5"/>
<text text-anchor="middle" x="279.5" y="-7.5" font-family="Helvetica,sans-Serif" font-size="10.00" fill="#000000">AudioIO::GetTimeScale</text>
</a>
</g>
</g>
<!-- Node117&#45;&gt;Node121 -->
<g id="edge4" class="edge">
<title>Node117&#45;&gt;Node121</title>
<path fill="none" stroke="#191970" d="M120.6833,-57.4868C146.0647,-49.7607 182.8259,-38.6096 215,-29 222.2329,-26.8397 229.9272,-24.5585 237.3883,-22.3553"/>
<polygon fill="#191970" stroke="#191970" points="238.4017,-25.7055 247.0039,-19.5206 236.4223,-18.9912 238.4017,-25.7055"/>
</g>
<!-- Node122 -->
<g id="node6" class="node">
<title>Node122</title>
<g id="a_node6"><a xlink:href="classAudioIO.html#a42b9c04861d014fce6b1f68097ca63fd" target="_top" xlink:title="AudioIO::RelocateTransport">
<polygon fill="#ffffff" stroke="#000000" points="380,-.5 380,-19.5 528,-19.5 528,-.5 380,-.5"/>
<text text-anchor="middle" x="454" y="-7.5" font-family="Helvetica,sans-Serif" font-size="10.00" fill="#000000">AudioIO::RelocateTransport</text>
</a>
</g>
</g>
<!-- Node121&#45;&gt;Node122 -->
<g id="edge5" class="edge">
<title>Node121&#45;&gt;Node122</title>
<path fill="none" stroke="#191970" d="M344.4774,-10C352.6753,-10 361.1543,-10 369.5977,-10"/>
<polygon fill="#191970" stroke="#191970" points="369.858,-13.5001 379.8579,-10 369.8579,-6.5001 369.858,-13.5001"/>
</g>
</g>
</svg>
