<?xml version="1.0" encoding="UTF-8" standalone="no"?>
<!DOCTYPE svg PUBLIC "-//W3C//DTD SVG 1.1//EN"
 "http://www.w3.org/Graphics/SVG/1.1/DTD/svg11.dtd">
<!-- Generated by graphviz version 2.40.1 (20161225.0304)
 -->
<!-- Title: MidiIO::EchoEventToPortChannel Pages: 1 -->
<svg width="386pt" height="522pt"
 viewBox="0.00 0.00 386.00 522.00" xmlns="http://www.w3.org/2000/svg" xmlns:xlink="http://www.w3.org/1999/xlink">
<g id="graph0" class="graph" transform="scale(1 1) rotate(0) translate(4 518)">
<title>MidiIO::EchoEventToPortChannel</title>
<polygon fill="#ffffff" stroke="transparent" points="-4,4 -4,-518 382,-518 382,4 -4,4"/>
<!-- Node86 -->
<g id="node1" class="node">
<title>Node86</title>
<polygon fill="#bfbfbf" stroke="#000000" points="0,-247.5 0,-266.5 174,-266.5 174,-247.5 0,-247.5"/>
<text text-anchor="middle" x="87" y="-254.5" font-family="Helvetica,sans-Serif" font-size="10.00" fill="#000000">MidiIO::EchoEventToPortChannel</text>
</g>
<!-- Node87 -->
<g id="node2" class="node">
<title>Node87</title>
<g id="a_node2"><a xlink:href="classFweelin.html#a681d7ca8d0789199af135f22c26a5409" target="_top" xlink:title="Fweelin::getCFG">
<polygon fill="#ffffff" stroke="#000000" points="246.5,-494.5 246.5,-513.5 341.5,-513.5 341.5,-494.5 246.5,-494.5"/>
<text text-anchor="middle" x="294" y="-501.5" font-family="Helvetica,sans-Serif" font-size="10.00" fill="#000000">Fweelin::getCFG</text>
</a>
</g>
</g>
<!-- Node86&#45;&gt;Node87 -->
<g id="edge1" class="edge">
<title>Node86&#45;&gt;Node87</title>
<path fill="none" stroke="#191970" d="M89.1635,-266.6612C97.6201,-302.0653 131.9019,-425.7207 210,-485 217.7784,-490.9041 227.0554,-495.0323 236.56,-497.9065"/>
<polygon fill="#191970" stroke="#191970" points="235.9366,-501.3602 246.494,-500.4696 237.6855,-494.5822 235.9366,-501.3602"/>
</g>
<!-- Node88 -->
<g id="node3" class="node">
<title>Node88</title>
<g id="a_node3"><a xlink:href="classEvent.html#ac4c4170579544b41dff38ca1b8110e30" target="_top" xlink:title="Event::GetType">
<polygon fill="#ffffff" stroke="#000000" points="249,-456.5 249,-475.5 339,-475.5 339,-456.5 249,-456.5"/>
<text text-anchor="middle" x="294" y="-463.5" font-family="Helvetica,sans-Serif" font-size="10.00" fill="#000000">Event::GetType</text>
</a>
</g>
</g>
<!-- Node86&#45;&gt;Node88 -->
<g id="edge2" class="edge">
<title>Node86&#45;&gt;Node88</title>
<path fill="none" stroke="#191970" d="M90.2777,-266.7779C101.4225,-298.4373 141.0442,-398.8711 210,-447 218.548,-452.9662 228.6702,-457.0919 238.8752,-459.9372"/>
<polygon fill="#191970" stroke="#191970" points="238.0943,-463.3491 248.6361,-462.291 239.7353,-456.5442 238.0943,-463.3491"/>
</g>
<!-- Node89 -->
<g id="node4" class="node">
<title>Node89</title>
<g id="a_node4"><a xlink:href="classMidiIO.html#a05eef19c13d0ab29813202dfcf93528a" target="_top" xlink:title="MidiIO::OutputClock">
<polygon fill="#ffffff" stroke="#000000" points="237.5,-418.5 237.5,-437.5 350.5,-437.5 350.5,-418.5 237.5,-418.5"/>
<text text-anchor="middle" x="294" y="-425.5" font-family="Helvetica,sans-Serif" font-size="10.00" fill="#000000">MidiIO::OutputClock</text>
</a>
</g>
</g>
<!-- Node86&#45;&gt;Node89 -->
<g id="edge3" class="edge">
<title>Node86&#45;&gt;Node89</title>
<path fill="none" stroke="#191970" d="M91.8235,-266.6997C105.8971,-293.9293 149.7554,-371.5264 210,-409 215.4156,-412.3687 221.3587,-415.1422 227.5031,-417.4255"/>
<polygon fill="#191970" stroke="#191970" points="226.6847,-420.8403 237.2773,-420.6249 228.8623,-414.1876 226.6847,-420.8403"/>
</g>
<!-- Node90 -->
<g id="node5" class="node">
<title>Node90</title>
<g id="a_node5"><a xlink:href="classMidiIO.html#ae64abd814691dd54b95cc3b0e59325ee" target="_top" xlink:title="MidiIO::OutputSPP">
<polygon fill="#ffffff" stroke="#000000" points="242,-380.5 242,-399.5 346,-399.5 346,-380.5 242,-380.5"/>
<text text-anchor="middle" x="294" y="-387.5" font-family="Helvetica,sans-Serif" font-size="10.00" fill="#000000">MidiIO::OutputSPP</text>
</a>
</g>
</g>
<!-- Node86&#45;&gt;Node90 -->
<g id="edge4" class="edge">
<title>Node86&#45;&gt;Node90</title>
<path fill="none" stroke="#191970" d="M94.4233,-266.7473C111.9273,-289.0002 158.2255,-343.7194 210,-371 216.8826,-374.6265 224.4374,-377.5638 232.107,-379.9421"/>
<polygon fill="#191970" stroke="#191970" points="231.2678,-383.3417 241.841,-382.6656 233.1539,-376.6005 231.2678,-383.3417"/>
</g>
<!-- Node91 -->
<g id="node6" class="node">
<title>Node91</title>
<g id="a_node6"><a xlink:href="classMidiIO.html#ad2ef39322497b4f96e8ef39d3e015846" target="_top" xlink:title="MidiIO::OutputStart">
<polygon fill="#ffffff" stroke="#000000" points="239,-342.5 239,-361.5 349,-361.5 349,-342.5 239,-342.5"/>
<text text-anchor="middle" x="294" y="-349.5" font-family="Helvetica,sans-Serif" font-size="10.00" fill="#000000">MidiIO::OutputStart</text>
</a>
</g>
</g>
<!-- Node86&#45;&gt;Node91 -->
<g id="edge5" class="edge">
<title>Node86&#45;&gt;Node91</title>
<path fill="none" stroke="#191970" d="M99.52,-266.7172C120.9459,-282.8752 166.5483,-315.2426 210,-333 216.2304,-335.5462 222.867,-337.7844 229.5743,-339.7442"/>
<polygon fill="#191970" stroke="#191970" points="228.8447,-343.1729 239.4128,-342.4199 230.6818,-336.4182 228.8447,-343.1729"/>
</g>
<!-- Node92 -->
<g id="node7" class="node">
<title>Node92</title>
<g id="a_node7"><a xlink:href="classMidiIO.html#a12a6021bb83e81c66933f76c1b38fc3c" target="_top" xlink:title="MidiIO::OutputStop">
<polygon fill="#ffffff" stroke="#000000" points="240,-304.5 240,-323.5 348,-323.5 348,-304.5 240,-304.5"/>
<text text-anchor="middle" x="294" y="-311.5" font-family="Helvetica,sans-Serif" font-size="10.00" fill="#000000">MidiIO::OutputStop</text>
</a>
</g>
</g>
<!-- Node86&#45;&gt;Node92 -->
<g id="edge6" class="edge">
<title>Node86&#45;&gt;Node92</title>
<path fill="none" stroke="#191970" d="M115.6469,-266.5381C140.4599,-274.6342 177.3948,-286.2899 210,-295 219.3273,-297.4917 229.2934,-299.9352 238.9826,-302.1963"/>
<polygon fill="#191970" stroke="#191970" points="238.4118,-305.6562 248.9412,-304.481 239.9771,-298.8334 238.4118,-305.6562"/>
</g>
<!-- Node93 -->
<g id="node8" class="node">
<title>Node93</title>
<g id="a_node8"><a xlink:href="classMidiIO.html#ade75d48e27670a86a2a109f99ea847b7" target="_top" xlink:title="MidiIO::OutputController">
<polygon fill="#ffffff" stroke="#000000" points="227,-266.5 227,-285.5 361,-285.5 361,-266.5 227,-266.5"/>
<text text-anchor="middle" x="294" y="-273.5" font-family="Helvetica,sans-Serif" font-size="10.00" fill="#000000">MidiIO::OutputController</text>
</a>
</g>
</g>
<!-- Node86&#45;&gt;Node93 -->
<g id="edge7" class="edge">
<title>Node86&#45;&gt;Node93</title>
<path fill="none" stroke="#191970" d="M174.1867,-265.0026C188.3236,-266.3002 202.8769,-267.636 216.7559,-268.91"/>
<polygon fill="#191970" stroke="#191970" points="216.449,-272.3964 226.7271,-269.8252 217.0889,-265.4257 216.449,-272.3964"/>
</g>
<!-- Node94 -->
<g id="node9" class="node">
<title>Node94</title>
<g id="a_node9"><a xlink:href="classMidiIO.html#a768bb4ca3d6df0d4d7b2dfcc95ce8417" target="_top" xlink:title="MidiIO::getBP">
<polygon fill="#ffffff" stroke="#000000" points="253,-228.5 253,-247.5 335,-247.5 335,-228.5 253,-228.5"/>
<text text-anchor="middle" x="294" y="-235.5" font-family="Helvetica,sans-Serif" font-size="10.00" fill="#000000">MidiIO::getBP</text>
</a>
</g>
</g>
<!-- Node86&#45;&gt;Node94 -->
<g id="edge8" class="edge">
<title>Node86&#45;&gt;Node94</title>
<path fill="none" stroke="#191970" d="M174.1867,-248.9974C197.5336,-246.8544 222.0166,-244.6072 242.7215,-242.7067"/>
<polygon fill="#191970" stroke="#191970" points="243.2304,-246.1748 252.8685,-241.7754 242.5905,-239.2041 243.2304,-246.1748"/>
</g>
<!-- Node95 -->
<g id="node10" class="node">
<title>Node95</title>
<g id="a_node10"><a xlink:href="classFweelin.html#a4422f3a93561eff272cd5f7ecb0782ee" target="_top" xlink:title="Fweelin::getRP">
<polygon fill="#ffffff" stroke="#000000" points="249.5,-190.5 249.5,-209.5 338.5,-209.5 338.5,-190.5 249.5,-190.5"/>
<text text-anchor="middle" x="294" y="-197.5" font-family="Helvetica,sans-Serif" font-size="10.00" fill="#000000">Fweelin::getRP</text>
</a>
</g>
</g>
<!-- Node86&#45;&gt;Node95 -->
<g id="edge9" class="edge">
<title>Node86&#45;&gt;Node95</title>
<path fill="none" stroke="#191970" d="M115.6469,-247.4619C140.4599,-239.3658 177.3948,-227.7101 210,-219 219.5338,-216.4531 229.735,-213.9566 239.6258,-211.6538"/>
<polygon fill="#191970" stroke="#191970" points="240.4105,-215.0648 249.3769,-209.4208 238.8479,-208.2414 240.4105,-215.0648"/>
</g>
<!-- Node96 -->
<g id="node11" class="node">
<title>Node96</title>
<g id="a_node11"><a xlink:href="classRootProcessor.html#a2aef0ef0e079427ff5c0b5604fbe7e51" target="_top" xlink:title="RootProcessor::GetSampleCnt">
<polygon fill="#ffffff" stroke="#000000" points="213,-152.5 213,-171.5 375,-171.5 375,-152.5 213,-152.5"/>
<text text-anchor="middle" x="294" y="-159.5" font-family="Helvetica,sans-Serif" font-size="10.00" fill="#000000">RootProcessor::GetSampleCnt</text>
</a>
</g>
</g>
<!-- Node86&#45;&gt;Node96 -->
<g id="edge10" class="edge">
<title>Node86&#45;&gt;Node96</title>
<path fill="none" stroke="#191970" d="M99.52,-247.2828C120.9459,-231.1248 166.5483,-198.7574 210,-181 216.2304,-178.4538 222.867,-176.2156 229.5743,-174.2558"/>
<polygon fill="#191970" stroke="#191970" points="230.6818,-177.5818 239.4128,-171.5801 228.8447,-170.8271 230.6818,-177.5818"/>
</g>
<!-- Node97 -->
<g id="node12" class="node">
<title>Node97</title>
<g id="a_node12"><a xlink:href="classMidiIO.html#a181e7eb8c9539f60b3ef934abcd3c5d5" target="_top" xlink:title="MidiIO::OutputProgramChange">
<polygon fill="#ffffff" stroke="#000000" points="212,-114.5 212,-133.5 376,-133.5 376,-114.5 212,-114.5"/>
<text text-anchor="middle" x="294" y="-121.5" font-family="Helvetica,sans-Serif" font-size="10.00" fill="#000000">MidiIO::OutputProgramChange</text>
</a>
</g>
</g>
<!-- Node86&#45;&gt;Node97 -->
<g id="edge11" class="edge">
<title>Node86&#45;&gt;Node97</title>
<path fill="none" stroke="#191970" d="M94.4233,-247.2527C111.9273,-224.9998 158.2255,-170.2806 210,-143 214.514,-140.6215 219.3172,-138.5395 224.2522,-136.7173"/>
<polygon fill="#191970" stroke="#191970" points="225.4777,-139.9983 233.8637,-133.5234 223.2702,-133.3554 225.4777,-139.9983"/>
</g>
<!-- Node98 -->
<g id="node13" class="node">
<title>Node98</title>
<g id="a_node13"><a xlink:href="classMidiIO.html#a99ddfc2bfcf9976ac7bab5e281a71f5e" target="_top" xlink:title="MidiIO::OutputChannelPressure">
<polygon fill="#ffffff" stroke="#000000" points="210,-76.5 210,-95.5 378,-95.5 378,-76.5 210,-76.5"/>
<text text-anchor="middle" x="294" y="-83.5" font-family="Helvetica,sans-Serif" font-size="10.00" fill="#000000">MidiIO::OutputChannelPressure</text>
</a>
</g>
</g>
<!-- Node86&#45;&gt;Node98 -->
<g id="edge12" class="edge">
<title>Node86&#45;&gt;Node98</title>
<path fill="none" stroke="#191970" d="M91.8235,-247.3003C105.8971,-220.0707 149.7554,-142.4736 210,-105 213.4021,-102.8838 217.0124,-101.0024 220.75,-99.3299"/>
<polygon fill="#191970" stroke="#191970" points="222.2335,-102.5075 230.2567,-95.588 219.6696,-95.9939 222.2335,-102.5075"/>
</g>
<!-- Node99 -->
<g id="node14" class="node">
<title>Node99</title>
<g id="a_node14"><a xlink:href="classMidiIO.html#a1632e2b71ba1d177a572c2e7e56c5ba3" target="_top" xlink:title="MidiIO::OutputPitchBend">
<polygon fill="#ffffff" stroke="#000000" points="226.5,-38.5 226.5,-57.5 361.5,-57.5 361.5,-38.5 226.5,-38.5"/>
<text text-anchor="middle" x="294" y="-45.5" font-family="Helvetica,sans-Serif" font-size="10.00" fill="#000000">MidiIO::OutputPitchBend</text>
</a>
</g>
</g>
<!-- Node86&#45;&gt;Node99 -->
<g id="edge13" class="edge">
<title>Node86&#45;&gt;Node99</title>
<path fill="none" stroke="#191970" d="M90.2777,-247.2221C101.4225,-215.5627 141.0442,-115.1289 210,-67 212.7586,-65.0746 215.6812,-63.3408 218.7177,-61.7799"/>
<polygon fill="#191970" stroke="#191970" points="220.4048,-64.8601 228.1184,-57.597 217.5591,-58.4646 220.4048,-64.8601"/>
</g>
<!-- Node100 -->
<g id="node15" class="node">
<title>Node100</title>
<g id="a_node15"><a xlink:href="classMidiIO.html#a5dc5d753cb512121574bc55483237572" target="_top" xlink:title="MidiIO::OutputNote">
<polygon fill="#ffffff" stroke="#000000" points="239,-.5 239,-19.5 349,-19.5 349,-.5 239,-.5"/>
<text text-anchor="middle" x="294" y="-7.5" font-family="Helvetica,sans-Serif" font-size="10.00" fill="#000000">MidiIO::OutputNote</text>
</a>
</g>
</g>
<!-- Node86&#45;&gt;Node100 -->
<g id="edge14" class="edge">
<title>Node86&#45;&gt;Node100</title>
<path fill="none" stroke="#191970" d="M89.1635,-247.3388C97.6201,-211.9347 131.9019,-88.2793 210,-29 215.6012,-24.7485 221.9795,-21.4178 228.6602,-18.8132"/>
<polygon fill="#191970" stroke="#191970" points="230.2312,-21.9788 238.6095,-15.4938 228.0158,-15.3386 230.2312,-21.9788"/>
</g>
</g>
</svg>
