<?xml version="1.0" encoding="UTF-8" standalone="no"?>
<!DOCTYPE svg PUBLIC "-//W3C//DTD SVG 1.1//EN"
 "http://www.w3.org/Graphics/SVG/1.1/DTD/svg11.dtd">
<!-- Generated by graphviz version 2.40.1 (20161225.0304)
 -->
<!-- Title: MidiIO::CheckBypass Pages: 1 -->
<svg width="325pt" height="180pt"
 viewBox="0.00 0.00 325.00 180.00" xmlns="http://www.w3.org/2000/svg" xmlns:xlink="http://www.w3.org/1999/xlink">
<g id="graph0" class="graph" transform="scale(1 1) rotate(0) translate(4 176)">
<title>MidiIO::CheckBypass</title>
<polygon fill="#ffffff" stroke="transparent" points="-4,4 -4,-176 321,-176 321,4 -4,4"/>
<!-- Node43 -->
<g id="node1" class="node">
<title>Node43</title>
<polygon fill="#bfbfbf" stroke="#000000" points="0,-76.5 0,-95.5 119,-95.5 119,-76.5 0,-76.5"/>
<text text-anchor="middle" x="59.5" y="-83.5" font-family="Helvetica,sans-Serif" font-size="10.00" fill="#000000">MidiIO::CheckBypass</text>
</g>
<!-- Node44 -->
<g id="node2" class="node">
<title>Node44</title>
<g id="a_node2"><a xlink:href="classFweelin.html#a4422f3a93561eff272cd5f7ecb0782ee" target="_top" xlink:title="Fweelin::getRP">
<polygon fill="#ffffff" stroke="#000000" points="191.5,-152.5 191.5,-171.5 280.5,-171.5 280.5,-152.5 191.5,-152.5"/>
<text text-anchor="middle" x="236" y="-159.5" font-family="Helvetica,sans-Serif" font-size="10.00" fill="#000000">Fweelin::getRP</text>
</a>
</g>
</g>
<!-- Node43&#45;&gt;Node44 -->
<g id="edge1" class="edge">
<title>Node43&#45;&gt;Node44</title>
<path fill="none" stroke="#191970" d="M72.7238,-95.7039C90.5494,-108.3482 123.6741,-130.3332 155,-143 163.2699,-146.344 172.2637,-149.1803 181.1509,-151.5593"/>
<polygon fill="#191970" stroke="#191970" points="180.5441,-155.0154 191.0952,-154.0536 182.2472,-148.2258 180.5441,-155.0154"/>
</g>
<!-- Node45 -->
<g id="node3" class="node">
<title>Node45</title>
<g id="a_node3"><a xlink:href="classRootProcessor.html#a2aef0ef0e079427ff5c0b5604fbe7e51" target="_top" xlink:title="RootProcessor::GetSampleCnt">
<polygon fill="#ffffff" stroke="#000000" points="155,-114.5 155,-133.5 317,-133.5 317,-114.5 155,-114.5"/>
<text text-anchor="middle" x="236" y="-121.5" font-family="Helvetica,sans-Serif" font-size="10.00" fill="#000000">RootProcessor::GetSampleCnt</text>
</a>
</g>
</g>
<!-- Node43&#45;&gt;Node45 -->
<g id="edge2" class="edge">
<title>Node43&#45;&gt;Node45</title>
<path fill="none" stroke="#191970" d="M104.0384,-95.589C127.6442,-100.6713 156.8325,-106.9554 181.7511,-112.3203"/>
<polygon fill="#191970" stroke="#191970" points="181.2692,-115.7967 191.7819,-114.4799 182.7426,-108.9535 181.2692,-115.7967"/>
</g>
<!-- Node46 -->
<g id="node4" class="node">
<title>Node46</title>
<g id="a_node4"><a xlink:href="classFweelin.html#a681d7ca8d0789199af135f22c26a5409" target="_top" xlink:title="Fweelin::getCFG">
<polygon fill="#ffffff" stroke="#000000" points="188.5,-76.5 188.5,-95.5 283.5,-95.5 283.5,-76.5 188.5,-76.5"/>
<text text-anchor="middle" x="236" y="-83.5" font-family="Helvetica,sans-Serif" font-size="10.00" fill="#000000">Fweelin::getCFG</text>
</a>
</g>
</g>
<!-- Node43&#45;&gt;Node46 -->
<g id="edge3" class="edge">
<title>Node43&#45;&gt;Node46</title>
<path fill="none" stroke="#191970" d="M119.2548,-86C138.2407,-86 159.1977,-86 178.0538,-86"/>
<polygon fill="#191970" stroke="#191970" points="178.2875,-89.5001 188.2874,-86 178.2874,-82.5001 178.2875,-89.5001"/>
</g>
<!-- Node47 -->
<g id="node5" class="node">
<title>Node47</title>
<g id="a_node5"><a xlink:href="classFloConfig.html#af6f1418b7595d065206abda285268305" target="_top" xlink:title="FloConfig::GetNumMIDIOuts">
<polygon fill="#ffffff" stroke="#000000" points="160,-38.5 160,-57.5 312,-57.5 312,-38.5 160,-38.5"/>
<text text-anchor="middle" x="236" y="-45.5" font-family="Helvetica,sans-Serif" font-size="10.00" fill="#000000">FloConfig::GetNumMIDIOuts</text>
</a>
</g>
</g>
<!-- Node43&#45;&gt;Node47 -->
<g id="edge4" class="edge">
<title>Node43&#45;&gt;Node47</title>
<path fill="none" stroke="#191970" d="M104.0384,-76.411C127.6442,-71.3287 156.8325,-65.0446 181.7511,-59.6797"/>
<polygon fill="#191970" stroke="#191970" points="182.7426,-63.0465 191.7819,-57.5201 181.2692,-56.2033 182.7426,-63.0465"/>
</g>
<!-- Node48 -->
<g id="node6" class="node">
<title>Node48</title>
<g id="a_node6"><a xlink:href="classMidiIO.html#ade75d48e27670a86a2a109f99ea847b7" target="_top" xlink:title="MidiIO::OutputController">
<polygon fill="#ffffff" stroke="#000000" points="169,-.5 169,-19.5 303,-19.5 303,-.5 169,-.5"/>
<text text-anchor="middle" x="236" y="-7.5" font-family="Helvetica,sans-Serif" font-size="10.00" fill="#000000">MidiIO::OutputController</text>
</a>
</g>
</g>
<!-- Node43&#45;&gt;Node48 -->
<g id="edge5" class="edge">
<title>Node43&#45;&gt;Node48</title>
<path fill="none" stroke="#191970" d="M72.7238,-76.2961C90.5494,-63.6518 123.6741,-41.6668 155,-29 161.2979,-26.4534 168.0156,-24.2012 174.7864,-22.2213"/>
<polygon fill="#191970" stroke="#191970" points="175.9774,-25.5242 184.7015,-19.5125 174.1326,-18.7717 175.9774,-25.5242"/>
</g>
</g>
</svg>
