<?xml version="1.0" encoding="UTF-8" standalone="no"?>
<!DOCTYPE svg PUBLIC "-//W3C//DTD SVG 1.1//EN"
 "http://www.w3.org/Graphics/SVG/1.1/DTD/svg11.dtd">
<!-- Generated by graphviz version 2.40.1 (20161225.0304)
 -->
<!-- Title: PassthroughProcessor Pages: 1 -->
<svg width="171pt" height="430pt"
 viewBox="0.00 0.00 171.00 430.00" xmlns="http://www.w3.org/2000/svg" xmlns:xlink="http://www.w3.org/1999/xlink">
<g id="graph0" class="graph" transform="scale(1 1) rotate(0) translate(4 426)">
<title>PassthroughProcessor</title>
<polygon fill="#ffffff" stroke="transparent" points="-4,4 -4,-426 167,-426 167,4 -4,4"/>
<!-- Node0 -->
<g id="node1" class="node">
<title>Node0</title>
<polygon fill="#bfbfbf" stroke="#000000" points="6.5,-.5 6.5,-101.5 156.5,-101.5 156.5,-.5 6.5,-.5"/>
<text text-anchor="middle" x="81.5" y="-89.5" font-family="Helvetica,sans-Serif" font-size="10.00" fill="#000000">PassthroughProcessor</text>
<polyline fill="none" stroke="#000000" points="6.5,-82.5 156.5,-82.5 "/>
<text text-anchor="start" x="14.5" y="-70.5" font-family="Helvetica,sans-Serif" font-size="10.00" fill="#000000">+ alliset</text>
<text text-anchor="start" x="14.5" y="-59.5" font-family="Helvetica,sans-Serif" font-size="10.00" fill="#000000">+ iset</text>
<text text-anchor="start" x="14.5" y="-48.5" font-family="Helvetica,sans-Serif" font-size="10.00" fill="#000000">+ inputvol</text>
<polyline fill="none" stroke="#000000" points="6.5,-41.5 156.5,-41.5 "/>
<text text-anchor="start" x="14.5" y="-29.5" font-family="Helvetica,sans-Serif" font-size="10.00" fill="#000000">+ PassthroughProcessor()</text>
<text text-anchor="start" x="14.5" y="-18.5" font-family="Helvetica,sans-Serif" font-size="10.00" fill="#000000">+ ~PassthroughProcessor()</text>
<text text-anchor="start" x="14.5" y="-7.5" font-family="Helvetica,sans-Serif" font-size="10.00" fill="#000000">+ process()</text>
</g>
<!-- Node1 -->
<g id="node2" class="node">
<title>Node1</title>
<g id="a_node2"><a xlink:href="classProcessor.html" target="_top" xlink:title="{Processor\n|+ MIN_VOL\l+ DEFAULT_SMOOTH_LENGTH\l# app\l# preab\l# prelen\l# prewritten\l# prewriting\l|+ Processor()\l+ ~Processor()\l+ process()\l+ getAPP()\l+ Halt()\l+ dopreprocess()\l# fadepreandcurrent()\l}">
<polygon fill="#ffffff" stroke="#000000" points="0,-138.5 0,-327.5 163,-327.5 163,-138.5 0,-138.5"/>
<text text-anchor="middle" x="81.5" y="-315.5" font-family="Helvetica,sans-Serif" font-size="10.00" fill="#000000">Processor</text>
<polyline fill="none" stroke="#000000" points="0,-308.5 163,-308.5 "/>
<text text-anchor="start" x="8" y="-296.5" font-family="Helvetica,sans-Serif" font-size="10.00" fill="#000000">+ MIN_VOL</text>
<text text-anchor="start" x="8" y="-285.5" font-family="Helvetica,sans-Serif" font-size="10.00" fill="#000000">+ DEFAULT_SMOOTH_LENGTH</text>
<text text-anchor="start" x="8" y="-274.5" font-family="Helvetica,sans-Serif" font-size="10.00" fill="#000000"># app</text>
<text text-anchor="start" x="8" y="-263.5" font-family="Helvetica,sans-Serif" font-size="10.00" fill="#000000"># preab</text>
<text text-anchor="start" x="8" y="-252.5" font-family="Helvetica,sans-Serif" font-size="10.00" fill="#000000"># prelen</text>
<text text-anchor="start" x="8" y="-241.5" font-family="Helvetica,sans-Serif" font-size="10.00" fill="#000000"># prewritten</text>
<text text-anchor="start" x="8" y="-230.5" font-family="Helvetica,sans-Serif" font-size="10.00" fill="#000000"># prewriting</text>
<polyline fill="none" stroke="#000000" points="0,-223.5 163,-223.5 "/>
<text text-anchor="start" x="8" y="-211.5" font-family="Helvetica,sans-Serif" font-size="10.00" fill="#000000">+ Processor()</text>
<text text-anchor="start" x="8" y="-200.5" font-family="Helvetica,sans-Serif" font-size="10.00" fill="#000000">+ ~Processor()</text>
<text text-anchor="start" x="8" y="-189.5" font-family="Helvetica,sans-Serif" font-size="10.00" fill="#000000">+ process()</text>
<text text-anchor="start" x="8" y="-178.5" font-family="Helvetica,sans-Serif" font-size="10.00" fill="#000000">+ getAPP()</text>
<text text-anchor="start" x="8" y="-167.5" font-family="Helvetica,sans-Serif" font-size="10.00" fill="#000000">+ Halt()</text>
<text text-anchor="start" x="8" y="-156.5" font-family="Helvetica,sans-Serif" font-size="10.00" fill="#000000">+ dopreprocess()</text>
<text text-anchor="start" x="8" y="-145.5" font-family="Helvetica,sans-Serif" font-size="10.00" fill="#000000"># fadepreandcurrent()</text>
</a>
</g>
</g>
<!-- Node1&#45;&gt;Node0 -->
<g id="edge1" class="edge">
<title>Node1&#45;&gt;Node0</title>
<path fill="none" stroke="#191970" d="M81.5,-128.258C81.5,-119.0849 81.5,-110.1025 81.5,-101.6953"/>
<polygon fill="none" stroke="#191970" points="78.0001,-128.2685 81.5,-138.2685 85.0001,-128.2685 78.0001,-128.2685"/>
</g>
<!-- Node2 -->
<g id="node3" class="node">
<title>Node2</title>
<g id="a_node3"><a xlink:href="classEventProducer.html" target="_top" xlink:title="{EventProducer\n||}">
<polygon fill="#ffffff" stroke="#000000" points="38,-364.5 38,-421.5 125,-421.5 125,-364.5 38,-364.5"/>
<text text-anchor="middle" x="81.5" y="-409.5" font-family="Helvetica,sans-Serif" font-size="10.00" fill="#000000">EventProducer</text>
<polyline fill="none" stroke="#000000" points="38,-402.5 125,-402.5 "/>
<text text-anchor="middle" x="81.5" y="-390.5" font-family="Helvetica,sans-Serif" font-size="10.00" fill="#000000"> </text>
<polyline fill="none" stroke="#000000" points="38,-383.5 125,-383.5 "/>
<text text-anchor="middle" x="81.5" y="-371.5" font-family="Helvetica,sans-Serif" font-size="10.00" fill="#000000"> </text>
</a>
</g>
</g>
<!-- Node2&#45;&gt;Node1 -->
<g id="edge2" class="edge">
<title>Node2&#45;&gt;Node1</title>
<path fill="none" stroke="#191970" d="M81.5,-354.1612C81.5,-345.9993 81.5,-337.0517 81.5,-327.8317"/>
<polygon fill="none" stroke="#191970" points="78.0001,-354.3952 81.5,-364.3952 85.0001,-354.3952 78.0001,-354.3952"/>
</g>
</g>
</svg>
