<?xml version="1.0" encoding="UTF-8" standalone="no"?>
<!DOCTYPE svg PUBLIC "-//W3C//DTD SVG 1.1//EN"
 "http://www.w3.org/Graphics/SVG/1.1/DTD/svg11.dtd">
<!-- Generated by graphviz version 2.40.1 (20161225.0304)
 -->
<!-- Title: PreallocatedType::RTDelete Pages: 1 -->
<svg width="563pt" height="66pt"
 viewBox="0.00 0.00 563.00 66.00" xmlns="http://www.w3.org/2000/svg" xmlns:xlink="http://www.w3.org/1999/xlink">
<g id="graph0" class="graph" transform="scale(1 1) rotate(0) translate(4 62)">
<title>PreallocatedType::RTDelete</title>
<polygon fill="#ffffff" stroke="transparent" points="-4,4 -4,-62 559,-62 559,4 -4,4"/>
<!-- Node36 -->
<g id="node1" class="node">
<title>Node36</title>
<polygon fill="#bfbfbf" stroke="#000000" points="0,-19.5 0,-38.5 150,-38.5 150,-19.5 0,-19.5"/>
<text text-anchor="middle" x="75" y="-26.5" font-family="Helvetica,sans-Serif" font-size="10.00" fill="#000000">PreallocatedType::RTDelete</text>
</g>
<!-- Node37 -->
<g id="node2" class="node">
<title>Node37</title>
<g id="a_node2"><a xlink:href="classMemoryManager.html#a3971e97751f5eccd04086eb2e6fb6f43" target="_top" xlink:title="MemoryManager::WakeUp">
<polygon fill="#ffffff" stroke="#000000" points="186,-19.5 186,-38.5 331,-38.5 331,-19.5 186,-19.5"/>
<text text-anchor="middle" x="258.5" y="-26.5" font-family="Helvetica,sans-Serif" font-size="10.00" fill="#000000">MemoryManager::WakeUp</text>
</a>
</g>
</g>
<!-- Node36&#45;&gt;Node37 -->
<g id="edge1" class="edge">
<title>Node36&#45;&gt;Node37</title>
<path fill="none" stroke="#191970" d="M150.1659,-29C158.5395,-29 167.1037,-29 175.5669,-29"/>
<polygon fill="#191970" stroke="#191970" points="175.8205,-32.5001 185.8205,-29 175.8205,-25.5001 175.8205,-32.5001"/>
</g>
<!-- Node38 -->
<g id="node3" class="node">
<title>Node38</title>
<g id="a_node3"><a xlink:href="classSRMWRingBuffer.html#a47699ccc0600c38559c8e10f0ca9bf3c" target="_top" xlink:title="SRMWRingBuffer::WriteElement">
<polygon fill="#ffffff" stroke="#000000" points="376,-38.5 376,-57.5 546,-57.5 546,-38.5 376,-38.5"/>
<text text-anchor="middle" x="461" y="-45.5" font-family="Helvetica,sans-Serif" font-size="10.00" fill="#000000">SRMWRingBuffer::WriteElement</text>
</a>
</g>
</g>
<!-- Node37&#45;&gt;Node38 -->
<g id="edge2" class="edge">
<title>Node37&#45;&gt;Node38</title>
<path fill="none" stroke="#191970" d="M331.0352,-35.8058C342.2704,-36.8599 354.0198,-37.9624 365.6646,-39.0549"/>
<polygon fill="#191970" stroke="#191970" points="365.5721,-42.5616 375.8553,-40.0111 366.226,-35.5922 365.5721,-42.5616"/>
</g>
<!-- Node39 -->
<g id="node4" class="node">
<title>Node39</title>
<g id="a_node4"><a xlink:href="classMemoryManager.html#ab15be510a88e9eab04db2d6554d7e947" target="_top" xlink:title="MemoryManager::WakeupIfNeeded">
<polygon fill="#ffffff" stroke="#000000" points="367,-.5 367,-19.5 555,-19.5 555,-.5 367,-.5"/>
<text text-anchor="middle" x="461" y="-7.5" font-family="Helvetica,sans-Serif" font-size="10.00" fill="#000000">MemoryManager::WakeupIfNeeded</text>
</a>
</g>
</g>
<!-- Node37&#45;&gt;Node39 -->
<g id="edge3" class="edge">
<title>Node37&#45;&gt;Node39</title>
<path fill="none" stroke="#191970" d="M331.0352,-22.1942C339.3552,-21.4136 347.9572,-20.6065 356.5898,-19.7965"/>
<polygon fill="#191970" stroke="#191970" points="357.0936,-23.2647 366.7229,-18.8458 356.4396,-16.2953 357.0936,-23.2647"/>
</g>
</g>
</svg>
