<?xml version="1.0" encoding="UTF-8" standalone="no"?>
<!DOCTYPE svg PUBLIC "-//W3C//DTD SVG 1.1//EN"
 "http://www.w3.org/Graphics/SVG/1.1/DTD/svg11.dtd">
<!-- Generated by graphviz version 2.40.1 (20161225.0304)
 -->
<!-- Title: MidiIO::ReceiveNoteOnEvent Pages: 1 -->
<svg width="582pt" height="218pt"
 viewBox="0.00 0.00 582.00 218.00" xmlns="http://www.w3.org/2000/svg" xmlns:xlink="http://www.w3.org/1999/xlink">
<g id="graph0" class="graph" transform="scale(1 1) rotate(0) translate(4 214)">
<title>MidiIO::ReceiveNoteOnEvent</title>
<polygon fill="#ffffff" stroke="transparent" points="-4,4 -4,-214 578,-214 578,4 -4,4"/>
<!-- Node261 -->
<g id="node1" class="node">
<title>Node261</title>
<polygon fill="#bfbfbf" stroke="#000000" points="0,-114.5 0,-133.5 156,-133.5 156,-114.5 0,-114.5"/>
<text text-anchor="middle" x="78" y="-121.5" font-family="Helvetica,sans-Serif" font-size="10.00" fill="#000000">MidiIO::ReceiveNoteOnEvent</text>
</g>
<!-- Node262 -->
<g id="node2" class="node">
<title>Node262</title>
<g id="a_node2"><a xlink:href="classEvent.html#aa67af0ae99b897e4f0ce42068c4e4c00" target="_top" xlink:title="Event::GetEventByType">
<polygon fill="#ffffff" stroke="#000000" points="222,-190.5 222,-209.5 353,-209.5 353,-190.5 222,-190.5"/>
<text text-anchor="middle" x="287.5" y="-197.5" font-family="Helvetica,sans-Serif" font-size="10.00" fill="#000000">Event::GetEventByType</text>
</a>
</g>
</g>
<!-- Node261&#45;&gt;Node262 -->
<g id="edge1" class="edge">
<title>Node261&#45;&gt;Node262</title>
<path fill="none" stroke="#191970" d="M93.6465,-133.5228C115.0902,-146.1708 155.1568,-168.3795 192,-181 199.9313,-183.7168 208.3737,-186.0941 216.8315,-188.1614"/>
<polygon fill="#191970" stroke="#191970" points="216.2066,-191.6091 226.7376,-190.4476 217.7808,-184.7884 216.2066,-191.6091"/>
</g>
<!-- Node263 -->
<g id="node3" class="node">
<title>Node263</title>
<g id="a_node3"><a xlink:href="classFweelin.html#a681d7ca8d0789199af135f22c26a5409" target="_top" xlink:title="Fweelin::getCFG">
<polygon fill="#ffffff" stroke="#000000" points="240,-152.5 240,-171.5 335,-171.5 335,-152.5 240,-152.5"/>
<text text-anchor="middle" x="287.5" y="-159.5" font-family="Helvetica,sans-Serif" font-size="10.00" fill="#000000">Fweelin::getCFG</text>
</a>
</g>
</g>
<!-- Node261&#45;&gt;Node263 -->
<g id="edge2" class="edge">
<title>Node261&#45;&gt;Node263</title>
<path fill="none" stroke="#191970" d="M130.5953,-133.54C160.7597,-139.0113 198.6709,-145.8878 229.6712,-151.5108"/>
<polygon fill="#191970" stroke="#191970" points="229.4341,-155.0248 239.8983,-153.3658 230.6835,-148.1372 229.4341,-155.0248"/>
</g>
<!-- Node264 -->
<g id="node4" class="node">
<title>Node264</title>
<g id="a_node4"><a xlink:href="classFloConfig.html#aaedfda90b488c27061a73b3bc98faf9a" target="_top" xlink:title="FloConfig::IsDebugInfo">
<polygon fill="#ffffff" stroke="#000000" points="224.5,-114.5 224.5,-133.5 350.5,-133.5 350.5,-114.5 224.5,-114.5"/>
<text text-anchor="middle" x="287.5" y="-121.5" font-family="Helvetica,sans-Serif" font-size="10.00" fill="#000000">FloConfig::IsDebugInfo</text>
</a>
</g>
</g>
<!-- Node261&#45;&gt;Node264 -->
<g id="edge3" class="edge">
<title>Node261&#45;&gt;Node264</title>
<path fill="none" stroke="#191970" d="M156.0101,-124C175.1409,-124 195.547,-124 214.4357,-124"/>
<polygon fill="#191970" stroke="#191970" points="214.4567,-127.5001 224.4567,-124 214.4567,-120.5001 214.4567,-127.5001"/>
</g>
<!-- Node265 -->
<g id="node5" class="node">
<title>Node265</title>
<g id="a_node5"><a xlink:href="classFweelin.html#a21e51d7b639faaecc415624ab6c16a71" target="_top" xlink:title="Fweelin::getEMG">
<polygon fill="#ffffff" stroke="#000000" points="238.5,-76.5 238.5,-95.5 336.5,-95.5 336.5,-76.5 238.5,-76.5"/>
<text text-anchor="middle" x="287.5" y="-83.5" font-family="Helvetica,sans-Serif" font-size="10.00" fill="#000000">Fweelin::getEMG</text>
</a>
</g>
</g>
<!-- Node261&#45;&gt;Node265 -->
<g id="edge4" class="edge">
<title>Node261&#45;&gt;Node265</title>
<path fill="none" stroke="#191970" d="M130.5953,-114.46C160.3241,-109.0677 197.5776,-102.3105 228.324,-96.7336"/>
<polygon fill="#191970" stroke="#191970" points="229.2665,-100.1198 238.4813,-94.8912 228.0171,-93.2322 229.2665,-100.1198"/>
</g>
<!-- Node266 -->
<g id="node6" class="node">
<title>Node266</title>
<g id="a_node6"><a xlink:href="classEventManager.html#a4a73f2e7ff1724f28427f7c0d5725c8e" target="_top" xlink:title="EventManager::BroadcastEventNow">
<polygon fill="#ffffff" stroke="#000000" points="192,-38.5 192,-57.5 383,-57.5 383,-38.5 192,-38.5"/>
<text text-anchor="middle" x="287.5" y="-45.5" font-family="Helvetica,sans-Serif" font-size="10.00" fill="#000000">EventManager::BroadcastEventNow</text>
</a>
</g>
</g>
<!-- Node261&#45;&gt;Node266 -->
<g id="edge5" class="edge">
<title>Node261&#45;&gt;Node266</title>
<path fill="none" stroke="#191970" d="M93.6465,-114.4772C115.0902,-101.8292 155.1568,-79.6205 192,-67 199.9313,-64.2832 208.3737,-61.9059 216.8315,-59.8386"/>
<polygon fill="#191970" stroke="#191970" points="217.7808,-63.2116 226.7376,-57.5524 216.2066,-56.3909 217.7808,-63.2116"/>
</g>
<!-- Node267 -->
<g id="node7" class="node">
<title>Node267</title>
<g id="a_node7"><a xlink:href="classEvent.html#ac4c4170579544b41dff38ca1b8110e30" target="_top" xlink:title="Event::GetType">
<polygon fill="#ffffff" stroke="#000000" points="451.5,-76.5 451.5,-95.5 541.5,-95.5 541.5,-76.5 451.5,-76.5"/>
<text text-anchor="middle" x="496.5" y="-83.5" font-family="Helvetica,sans-Serif" font-size="10.00" fill="#000000">Event::GetType</text>
</a>
</g>
</g>
<!-- Node266&#45;&gt;Node267 -->
<g id="edge6" class="edge">
<title>Node266&#45;&gt;Node267</title>
<path fill="none" stroke="#191970" d="M339.9698,-57.54C370.9568,-63.174 410.1385,-70.2979 441.5488,-76.0089"/>
<polygon fill="#191970" stroke="#191970" points="440.9888,-79.4644 451.4536,-77.8097 442.241,-72.5773 440.9888,-79.4644"/>
</g>
<!-- Node268 -->
<g id="node8" class="node">
<title>Node268</title>
<g id="a_node8"><a xlink:href="classEventListener.html#a831820a9229e852bd7e2fad686b725b2" target="_top" xlink:title="EventListener::ReceiveEvent">
<polygon fill="#ffffff" stroke="#000000" points="419,-38.5 419,-57.5 574,-57.5 574,-38.5 419,-38.5"/>
<text text-anchor="middle" x="496.5" y="-45.5" font-family="Helvetica,sans-Serif" font-size="10.00" fill="#000000">EventListener::ReceiveEvent</text>
</a>
</g>
</g>
<!-- Node266&#45;&gt;Node268 -->
<g id="edge7" class="edge">
<title>Node266&#45;&gt;Node268</title>
<path fill="none" stroke="#191970" d="M383.1311,-48C391.6132,-48 400.1737,-48 408.5871,-48"/>
<polygon fill="#191970" stroke="#191970" points="408.7614,-51.5001 418.7614,-48 408.7614,-44.5001 408.7614,-51.5001"/>
</g>
<!-- Node269 -->
<g id="node9" class="node">
<title>Node269</title>
<g id="a_node9"><a xlink:href="classPreallocated.html#aaf2139a79ca16de70acd9bc4564171b7" target="_top" xlink:title="Preallocated::RTDelete">
<polygon fill="#ffffff" stroke="#000000" points="432.5,-.5 432.5,-19.5 560.5,-19.5 560.5,-.5 432.5,-.5"/>
<text text-anchor="middle" x="496.5" y="-7.5" font-family="Helvetica,sans-Serif" font-size="10.00" fill="#000000">Preallocated::RTDelete</text>
</a>
</g>
</g>
<!-- Node266&#45;&gt;Node269 -->
<g id="edge8" class="edge">
<title>Node266&#45;&gt;Node269</title>
<path fill="none" stroke="#191970" d="M339.9698,-38.46C368.5413,-33.2652 404.0796,-26.8037 434.0691,-21.3511"/>
<polygon fill="#191970" stroke="#191970" points="434.7961,-24.7764 444.0087,-19.5439 433.5438,-17.8893 434.7961,-24.7764"/>
</g>
</g>
</svg>
