<?xml version="1.0" encoding="UTF-8" standalone="no"?>
<!DOCTYPE svg PUBLIC "-//W3C//DTD SVG 1.1//EN"
 "http://www.w3.org/Graphics/SVG/1.1/DTD/svg11.dtd">
<!-- Generated by graphviz version 2.40.1 (20161225.0304)
 -->
<!-- Title: LoopManager::Activate Pages: 1 -->
<svg width="705pt" height="408pt"
 viewBox="0.00 0.00 705.00 408.00" xmlns="http://www.w3.org/2000/svg" xmlns:xlink="http://www.w3.org/1999/xlink">
<g id="graph0" class="graph" transform="scale(1 1) rotate(0) translate(4 404)">
<title>LoopManager::Activate</title>
<polygon fill="#ffffff" stroke="transparent" points="-4,4 -4,-404 701,-404 701,4 -4,4"/>
<!-- Node42 -->
<g id="node1" class="node">
<title>Node42</title>
<polygon fill="#bfbfbf" stroke="#000000" points="0,-190.5 0,-209.5 128,-209.5 128,-190.5 0,-190.5"/>
<text text-anchor="middle" x="64" y="-197.5" font-family="Helvetica,sans-Serif" font-size="10.00" fill="#000000">LoopManager::Activate</text>
</g>
<!-- Node43 -->
<g id="node2" class="node">
<title>Node43</title>
<g id="a_node2"><a xlink:href="classFweelin.html#a10bb364ecf38990653b49a98c5a89c90" target="_top" xlink:title="Fweelin::getTMAP">
<polygon fill="#ffffff" stroke="#000000" points="204.5,-380.5 204.5,-399.5 307.5,-399.5 307.5,-380.5 204.5,-380.5"/>
<text text-anchor="middle" x="256" y="-387.5" font-family="Helvetica,sans-Serif" font-size="10.00" fill="#000000">Fweelin::getTMAP</text>
</a>
</g>
</g>
<!-- Node42&#45;&gt;Node43 -->
<g id="edge1" class="edge">
<title>Node42&#45;&gt;Node43</title>
<path fill="none" stroke="#191970" d="M66.5979,-209.6499C75.0616,-239.1136 104.7729,-328.4803 164,-371 172.9263,-377.4083 183.5265,-381.7595 194.3013,-384.6925"/>
<polygon fill="#191970" stroke="#191970" points="193.6684,-388.1389 204.2025,-387.0058 195.261,-381.3224 193.6684,-388.1389"/>
</g>
<!-- Node44 -->
<g id="node3" class="node">
<title>Node44</title>
<g id="a_node3"><a xlink:href="classTriggerMap.html#aca3f85b40f3aa29a280c2d7511b84217" target="_top" xlink:title="TriggerMap::GetMap">
<polygon fill="#ffffff" stroke="#000000" points="199.5,-342.5 199.5,-361.5 312.5,-361.5 312.5,-342.5 199.5,-342.5"/>
<text text-anchor="middle" x="256" y="-349.5" font-family="Helvetica,sans-Serif" font-size="10.00" fill="#000000">TriggerMap::GetMap</text>
</a>
</g>
</g>
<!-- Node42&#45;&gt;Node44 -->
<g id="edge2" class="edge">
<title>Node42&#45;&gt;Node44</title>
<path fill="none" stroke="#191970" d="M68.2014,-209.593C79.6125,-234.4354 113.7336,-301.143 164,-333 171.6886,-337.8727 180.3976,-341.5239 189.3166,-344.2545"/>
<polygon fill="#191970" stroke="#191970" points="188.4728,-347.6519 199.0388,-346.8705 190.2917,-340.8923 188.4728,-347.6519"/>
</g>
<!-- Node45 -->
<g id="node4" class="node">
<title>Node45</title>
<g id="a_node4"><a xlink:href="classFweelin.html#a4422f3a93561eff272cd5f7ecb0782ee" target="_top" xlink:title="Fweelin::getRP">
<polygon fill="#ffffff" stroke="#000000" points="211.5,-304.5 211.5,-323.5 300.5,-323.5 300.5,-304.5 211.5,-304.5"/>
<text text-anchor="middle" x="256" y="-311.5" font-family="Helvetica,sans-Serif" font-size="10.00" fill="#000000">Fweelin::getRP</text>
</a>
</g>
</g>
<!-- Node42&#45;&gt;Node45 -->
<g id="edge3" class="edge">
<title>Node42&#45;&gt;Node45</title>
<path fill="none" stroke="#191970" d="M71.0501,-209.6259C85.8847,-229.1199 122.4061,-273.2553 164,-295 175.4046,-300.9622 188.5192,-305.054 201.2061,-307.8621"/>
<polygon fill="#191970" stroke="#191970" points="200.7589,-311.3414 211.2482,-309.85 202.1183,-304.4746 200.7589,-311.3414"/>
</g>
<!-- Node46 -->
<g id="node5" class="node">
<title>Node46</title>
<g id="a_node5"><a xlink:href="classRootProcessor.html#a271996b05bc8f304dc39e5fda29da3df" target="_top" xlink:title="RootProcessor::GetInputVolumePtr">
<polygon fill="#ffffff" stroke="#000000" points="164,-266.5 164,-285.5 348,-285.5 348,-266.5 164,-266.5"/>
<text text-anchor="middle" x="256" y="-273.5" font-family="Helvetica,sans-Serif" font-size="10.00" fill="#000000">RootProcessor::GetInputVolumePtr</text>
</a>
</g>
</g>
<!-- Node42&#45;&gt;Node46 -->
<g id="edge4" class="edge">
<title>Node42&#45;&gt;Node46</title>
<path fill="none" stroke="#191970" d="M77.5531,-209.5821C96.1684,-222.2972 131.0945,-244.5818 164,-257 171.0024,-259.6426 178.4506,-261.9484 185.9598,-263.9531"/>
<polygon fill="#191970" stroke="#191970" points="185.2843,-267.3918 195.8343,-266.4181 186.9797,-260.6002 185.2843,-267.3918"/>
</g>
<!-- Node47 -->
<g id="node6" class="node">
<title>Node47</title>
<g id="a_node6"><a xlink:href="classRootProcessor.html#adc75260f6db8566d3e3eaaea2d5a6323" target="_top" xlink:title="RootProcessor::AddChild">
<polygon fill="#ffffff" stroke="#000000" points="188.5,-228.5 188.5,-247.5 323.5,-247.5 323.5,-228.5 188.5,-228.5"/>
<text text-anchor="middle" x="256" y="-235.5" font-family="Helvetica,sans-Serif" font-size="10.00" fill="#000000">RootProcessor::AddChild</text>
</a>
</g>
</g>
<!-- Node42&#45;&gt;Node47 -->
<g id="edge5" class="edge">
<title>Node42&#45;&gt;Node47</title>
<path fill="none" stroke="#191970" d="M112.4497,-209.589C138.471,-214.739 170.7279,-221.1232 198.0688,-226.5344"/>
<polygon fill="#191970" stroke="#191970" points="197.4094,-229.9718 207.8987,-228.4799 198.7685,-223.105 197.4094,-229.9718"/>
</g>
<!-- Node52 -->
<g id="node11" class="node">
<title>Node52</title>
<g id="a_node11"><a xlink:href="classFweelin.html#a67a6d56b73c169b0892ef5f6268dd728" target="_top" xlink:title="Fweelin::getISET">
<polygon fill="#ffffff" stroke="#000000" points="207.5,-190.5 207.5,-209.5 304.5,-209.5 304.5,-190.5 207.5,-190.5"/>
<text text-anchor="middle" x="256" y="-197.5" font-family="Helvetica,sans-Serif" font-size="10.00" fill="#000000">Fweelin::getISET</text>
</a>
</g>
</g>
<!-- Node42&#45;&gt;Node52 -->
<g id="edge10" class="edge">
<title>Node42&#45;&gt;Node52</title>
<path fill="none" stroke="#191970" d="M128.2002,-200C150.5044,-200 175.3905,-200 197.2333,-200"/>
<polygon fill="#191970" stroke="#191970" points="197.3598,-203.5001 207.3598,-200 197.3598,-196.5001 197.3598,-203.5001"/>
</g>
<!-- Node53 -->
<g id="node12" class="node">
<title>Node53</title>
<g id="a_node12"><a xlink:href="classLoopManager.html#a28c81cf1fb5fdf13a633e33d06975a0d" target="_top" xlink:title="LoopManager::GetCurPulse">
<polygon fill="#ffffff" stroke="#000000" points="182,-152.5 182,-171.5 330,-171.5 330,-152.5 182,-152.5"/>
<text text-anchor="middle" x="256" y="-159.5" font-family="Helvetica,sans-Serif" font-size="10.00" fill="#000000">LoopManager::GetCurPulse</text>
</a>
</g>
</g>
<!-- Node42&#45;&gt;Node53 -->
<g id="edge11" class="edge">
<title>Node42&#45;&gt;Node53</title>
<path fill="none" stroke="#191970" d="M112.4497,-190.411C138.471,-185.261 170.7279,-178.8768 198.0688,-173.4656"/>
<polygon fill="#191970" stroke="#191970" points="198.7685,-176.895 207.8987,-171.5201 197.4094,-170.0282 198.7685,-176.895"/>
</g>
<!-- Node54 -->
<g id="node13" class="node">
<title>Node54</title>
<g id="a_node13"><a xlink:href="classFweelin.html#a6532e9aca57e2ec68ee5336113152bd5" target="_top" xlink:title="Fweelin::getAUDIOMEM">
<polygon fill="#ffffff" stroke="#000000" points="190.5,-114.5 190.5,-133.5 321.5,-133.5 321.5,-114.5 190.5,-114.5"/>
<text text-anchor="middle" x="256" y="-121.5" font-family="Helvetica,sans-Serif" font-size="10.00" fill="#000000">Fweelin::getAUDIOMEM</text>
</a>
</g>
</g>
<!-- Node42&#45;&gt;Node54 -->
<g id="edge12" class="edge">
<title>Node42&#45;&gt;Node54</title>
<path fill="none" stroke="#191970" d="M77.5531,-190.4179C96.1684,-177.7028 131.0945,-155.4182 164,-143 171.0024,-140.3574 178.4506,-138.0516 185.9598,-136.0469"/>
<polygon fill="#191970" stroke="#191970" points="186.9797,-139.3998 195.8343,-133.5819 185.2843,-132.6082 186.9797,-139.3998"/>
</g>
<!-- Node55 -->
<g id="node14" class="node">
<title>Node55</title>
<g id="a_node14"><a xlink:href="classFweelin.html#ad34a1444de8b2ddef487facd33e626f6" target="_top" xlink:title="Fweelin::getAUDIOMEMI">
<polygon fill="#ffffff" stroke="#000000" points="189,-76.5 189,-95.5 323,-95.5 323,-76.5 189,-76.5"/>
<text text-anchor="middle" x="256" y="-83.5" font-family="Helvetica,sans-Serif" font-size="10.00" fill="#000000">Fweelin::getAUDIOMEMI</text>
</a>
</g>
</g>
<!-- Node42&#45;&gt;Node55 -->
<g id="edge13" class="edge">
<title>Node42&#45;&gt;Node55</title>
<path fill="none" stroke="#191970" d="M71.0501,-190.3741C85.8847,-170.8801 122.4061,-126.7447 164,-105 168.7877,-102.4971 173.8767,-100.3238 179.1089,-98.4367"/>
<polygon fill="#191970" stroke="#191970" points="180.2171,-101.7568 188.6475,-95.3396 178.0553,-95.0989 180.2171,-101.7568"/>
</g>
<!-- Node56 -->
<g id="node15" class="node">
<title>Node56</title>
<g id="a_node15"><a xlink:href="classFweelin.html#a681d7ca8d0789199af135f22c26a5409" target="_top" xlink:title="Fweelin::getCFG">
<polygon fill="#ffffff" stroke="#000000" points="208.5,-38.5 208.5,-57.5 303.5,-57.5 303.5,-38.5 208.5,-38.5"/>
<text text-anchor="middle" x="256" y="-45.5" font-family="Helvetica,sans-Serif" font-size="10.00" fill="#000000">Fweelin::getCFG</text>
</a>
</g>
</g>
<!-- Node42&#45;&gt;Node56 -->
<g id="edge14" class="edge">
<title>Node42&#45;&gt;Node56</title>
<path fill="none" stroke="#191970" d="M68.2014,-190.407C79.6125,-165.5646 113.7336,-98.857 164,-67 174.2242,-60.5203 186.2528,-56.2008 198.1802,-53.3335"/>
<polygon fill="#191970" stroke="#191970" points="199.0623,-56.7248 208.1336,-51.251 197.6288,-49.8732 199.0623,-56.7248"/>
</g>
<!-- Node57 -->
<g id="node16" class="node">
<title>Node57</title>
<g id="a_node16"><a xlink:href="classPulse.html#a4769535b925a7444569205947eaa2da1" target="_top" xlink:title="Pulse::ExtendLongCount">
<polygon fill="#ffffff" stroke="#000000" points="189,-.5 189,-19.5 323,-19.5 323,-.5 189,-.5"/>
<text text-anchor="middle" x="256" y="-7.5" font-family="Helvetica,sans-Serif" font-size="10.00" fill="#000000">Pulse::ExtendLongCount</text>
</a>
</g>
</g>
<!-- Node42&#45;&gt;Node57 -->
<g id="edge15" class="edge">
<title>Node42&#45;&gt;Node57</title>
<path fill="none" stroke="#191970" d="M66.5979,-190.3501C75.0616,-160.8864 104.7729,-71.5197 164,-29 168.753,-25.5878 173.9805,-22.7588 179.4563,-20.4166"/>
<polygon fill="#191970" stroke="#191970" points="180.7131,-23.6835 188.8661,-16.9174 178.2732,-17.1225 180.7131,-23.6835"/>
</g>
<!-- Node48 -->
<g id="node7" class="node">
<title>Node48</title>
<g id="a_node7"><a xlink:href="classProcessor.html#a1ff3aad172b41d0c3c9a1bd06cd6a4ef" target="_top" xlink:title="Processor::dopreprocess">
<polygon fill="#ffffff" stroke="#000000" points="401.5,-266.5 401.5,-285.5 536.5,-285.5 536.5,-266.5 401.5,-266.5"/>
<text text-anchor="middle" x="469" y="-273.5" font-family="Helvetica,sans-Serif" font-size="10.00" fill="#000000">Processor::dopreprocess</text>
</a>
</g>
</g>
<!-- Node47&#45;&gt;Node48 -->
<g id="edge6" class="edge">
<title>Node47&#45;&gt;Node48</title>
<path fill="none" stroke="#191970" d="M309.474,-247.54C338.5923,-252.7348 374.8108,-259.1963 405.3743,-264.6489"/>
<polygon fill="#191970" stroke="#191970" points="405.0447,-268.1453 415.504,-266.4561 406.2742,-261.2541 405.0447,-268.1453"/>
</g>
<!-- Node50 -->
<g id="node9" class="node">
<title>Node50</title>
<g id="a_node9"><a xlink:href="classEvent.html#aa67af0ae99b897e4f0ce42068c4e4c00" target="_top" xlink:title="Event::GetEventByType">
<polygon fill="#ffffff" stroke="#000000" points="403.5,-228.5 403.5,-247.5 534.5,-247.5 534.5,-228.5 403.5,-228.5"/>
<text text-anchor="middle" x="469" y="-235.5" font-family="Helvetica,sans-Serif" font-size="10.00" fill="#000000">Event::GetEventByType</text>
</a>
</g>
</g>
<!-- Node47&#45;&gt;Node50 -->
<g id="edge8" class="edge">
<title>Node47&#45;&gt;Node50</title>
<path fill="none" stroke="#191970" d="M323.6872,-238C345.7653,-238 370.4214,-238 393.0639,-238"/>
<polygon fill="#191970" stroke="#191970" points="393.309,-241.5001 403.309,-238 393.3089,-234.5001 393.309,-241.5001"/>
</g>
<!-- Node51 -->
<g id="node10" class="node">
<title>Node51</title>
<g id="a_node10"><a xlink:href="classSRMWRingBuffer.html#a47699ccc0600c38559c8e10f0ca9bf3c" target="_top" xlink:title="SRMWRingBuffer::WriteElement">
<polygon fill="#ffffff" stroke="#000000" points="384,-190.5 384,-209.5 554,-209.5 554,-190.5 384,-190.5"/>
<text text-anchor="middle" x="469" y="-197.5" font-family="Helvetica,sans-Serif" font-size="10.00" fill="#000000">SRMWRingBuffer::WriteElement</text>
</a>
</g>
</g>
<!-- Node47&#45;&gt;Node51 -->
<g id="edge9" class="edge">
<title>Node47&#45;&gt;Node51</title>
<path fill="none" stroke="#191970" d="M309.474,-228.46C338.5923,-223.2652 374.8108,-216.8037 405.3743,-211.3511"/>
<polygon fill="#191970" stroke="#191970" points="406.2742,-214.7459 415.504,-209.5439 405.0447,-207.8547 406.2742,-214.7459"/>
</g>
<!-- Node49 -->
<g id="node8" class="node">
<title>Node49</title>
<g id="a_node8"><a xlink:href="classProcessor.html#a2a6ea9cec150529a6b61898634540254" target="_top" xlink:title="Processor::process">
<polygon fill="#ffffff" stroke="#000000" points="590,-266.5 590,-285.5 697,-285.5 697,-266.5 590,-266.5"/>
<text text-anchor="middle" x="643.5" y="-273.5" font-family="Helvetica,sans-Serif" font-size="10.00" fill="#000000">Processor::process</text>
</a>
</g>
</g>
<!-- Node48&#45;&gt;Node49 -->
<g id="edge7" class="edge">
<title>Node48&#45;&gt;Node49</title>
<path fill="none" stroke="#191970" d="M536.9659,-276C550.9212,-276 565.5693,-276 579.3835,-276"/>
<polygon fill="#191970" stroke="#191970" points="579.7595,-279.5001 589.7594,-276 579.7594,-272.5001 579.7595,-279.5001"/>
</g>
<!-- Node58 -->
<g id="node17" class="node">
<title>Node58</title>
<g id="a_node17"><a xlink:href="fweelin__core__dsp_8cc.html#abc995860348321dce04aba6aea4adbb4" target="_top" xlink:title="math_lcm">
<polygon fill="#ffffff" stroke="#000000" points="436.5,-.5 436.5,-19.5 501.5,-19.5 501.5,-.5 436.5,-.5"/>
<text text-anchor="middle" x="469" y="-7.5" font-family="Helvetica,sans-Serif" font-size="10.00" fill="#000000">math_lcm</text>
</a>
</g>
</g>
<!-- Node57&#45;&gt;Node58 -->
<g id="edge16" class="edge">
<title>Node57&#45;&gt;Node58</title>
<path fill="none" stroke="#191970" d="M323.1022,-10C356.7697,-10 396.5521,-10 426.0645,-10"/>
<polygon fill="#191970" stroke="#191970" points="426.4425,-13.5001 436.4425,-10 426.4425,-6.5001 426.4425,-13.5001"/>
</g>
<!-- Node59 -->
<g id="node18" class="node">
<title>Node59</title>
<g id="a_node18"><a xlink:href="fweelin__core__dsp_8cc.html#a69d68c70844804445ba3e106f23c76a4" target="_top" xlink:title="math_gcd">
<polygon fill="#ffffff" stroke="#000000" points="611,-.5 611,-19.5 676,-19.5 676,-.5 611,-.5"/>
<text text-anchor="middle" x="643.5" y="-7.5" font-family="Helvetica,sans-Serif" font-size="10.00" fill="#000000">math_gcd</text>
</a>
</g>
</g>
<!-- Node58&#45;&gt;Node59 -->
<g id="edge17" class="edge">
<title>Node58&#45;&gt;Node59</title>
<path fill="none" stroke="#191970" d="M501.8221,-10C529.7296,-10 570.0064,-10 600.4881,-10"/>
<polygon fill="#191970" stroke="#191970" points="600.8251,-13.5001 610.8251,-10 600.825,-6.5001 600.8251,-13.5001"/>
</g>
<!-- Node59&#45;&gt;Node59 -->
<g id="edge18" class="edge">
<title>Node59&#45;&gt;Node59</title>
<path fill="none" stroke="#191970" d="M616.6815,-19.7571C603.6347,-28.5653 612.5742,-38 643.5,-38 664.2783,-38 675.1316,-33.741 676.0599,-28.2746"/>
<polygon fill="#191970" stroke="#191970" points="678.8102,-26.0928 670.3185,-19.7571 673.0057,-30.0054 678.8102,-26.0928"/>
</g>
</g>
</svg>
