<?xml version="1.0" encoding="UTF-8" standalone="no"?>
<!DOCTYPE svg PUBLIC "-//W3C//DTD SVG 1.1//EN"
 "http://www.w3.org/Graphics/SVG/1.1/DTD/svg11.dtd">
<!-- Generated by graphviz version 2.40.1 (20161225.0304)
 -->
<!-- Title: Fweelin::LoadSnapshot Pages: 1 -->
<svg width="506pt" height="256pt"
 viewBox="0.00 0.00 506.00 256.00" xmlns="http://www.w3.org/2000/svg" xmlns:xlink="http://www.w3.org/1999/xlink">
<g id="graph0" class="graph" transform="scale(1 1) rotate(0) translate(4 252)">
<title>Fweelin::LoadSnapshot</title>
<polygon fill="#ffffff" stroke="transparent" points="-4,4 -4,-252 502,-252 502,4 -4,4"/>
<!-- Node591 -->
<g id="node1" class="node">
<title>Node591</title>
<polygon fill="#bfbfbf" stroke="#000000" points="0,-133.5 0,-152.5 128,-152.5 128,-133.5 0,-133.5"/>
<text text-anchor="middle" x="64" y="-140.5" font-family="Helvetica,sans-Serif" font-size="10.00" fill="#000000">Fweelin::LoadSnapshot</text>
</g>
<!-- Node592 -->
<g id="node2" class="node">
<title>Node592</title>
<g id="a_node2"><a xlink:href="classTriggerMap.html#ac8dd153318fc2546c999bd5184c827cf" target="_top" xlink:title="TriggerMap::TouchMap">
<polygon fill="#ffffff" stroke="#000000" points="174.5,-190.5 174.5,-209.5 298.5,-209.5 298.5,-190.5 174.5,-190.5"/>
<text text-anchor="middle" x="236.5" y="-197.5" font-family="Helvetica,sans-Serif" font-size="10.00" fill="#000000">TriggerMap::TouchMap</text>
</a>
</g>
</g>
<!-- Node591&#45;&gt;Node592 -->
<g id="edge1" class="edge">
<title>Node591&#45;&gt;Node592</title>
<path fill="none" stroke="#191970" d="M92.8726,-152.5405C121.6055,-162.0349 165.8864,-176.6668 197.6836,-187.1737"/>
<polygon fill="#191970" stroke="#191970" points="196.94,-190.6141 207.5332,-190.4284 199.1363,-183.9675 196.94,-190.6141"/>
</g>
<!-- Node595 -->
<g id="node5" class="node">
<title>Node595</title>
<g id="a_node5"><a xlink:href="classSnapshot.html#a1616e84bbc439dfb50eb827a27e4f6fd" target="_top" xlink:title="Snapshot::CreateSnapshot">
<polygon fill="#ffffff" stroke="#000000" points="164,-95.5 164,-114.5 309,-114.5 309,-95.5 164,-95.5"/>
<text text-anchor="middle" x="236.5" y="-102.5" font-family="Helvetica,sans-Serif" font-size="10.00" fill="#000000">Snapshot::CreateSnapshot</text>
</a>
</g>
</g>
<!-- Node591&#45;&gt;Node595 -->
<g id="edge4" class="edge">
<title>Node591&#45;&gt;Node595</title>
<path fill="none" stroke="#191970" d="M107.529,-133.411C130.5999,-128.3287 159.1266,-122.0446 183.4805,-116.6797"/>
<polygon fill="#191970" stroke="#191970" points="184.2711,-120.0895 193.284,-114.5201 182.7651,-113.2534 184.2711,-120.0895"/>
</g>
<!-- Node593 -->
<g id="node3" class="node">
<title>Node593</title>
<g id="a_node3"><a xlink:href="fweelin__event_8h.html#a0bb68d7f77df8d1848af0e9fc6716197" target="_top" xlink:title="mygettime">
<polygon fill="#ffffff" stroke="#000000" points="386,-228.5 386,-247.5 457,-247.5 457,-228.5 386,-228.5"/>
<text text-anchor="middle" x="421.5" y="-235.5" font-family="Helvetica,sans-Serif" font-size="10.00" fill="#000000">mygettime</text>
</a>
</g>
</g>
<!-- Node592&#45;&gt;Node593 -->
<g id="edge2" class="edge">
<title>Node592&#45;&gt;Node593</title>
<path fill="none" stroke="#191970" d="M283.1833,-209.589C311.5925,-215.4244 347.7156,-222.8443 375.9215,-228.6379"/>
<polygon fill="#191970" stroke="#191970" points="375.4262,-232.1092 385.926,-230.6929 376.8347,-225.2524 375.4262,-232.1092"/>
</g>
<!-- Node594 -->
<g id="node4" class="node">
<title>Node594</title>
<g id="a_node4"><a xlink:href="classSaveable.html#a60561f2bd64b6e0044bae84729d3a01a" target="_top" xlink:title="Saveable::SetSaveStatus">
<polygon fill="#ffffff" stroke="#000000" points="352.5,-190.5 352.5,-209.5 490.5,-209.5 490.5,-190.5 352.5,-190.5"/>
<text text-anchor="middle" x="421.5" y="-197.5" font-family="Helvetica,sans-Serif" font-size="10.00" fill="#000000">Saveable::SetSaveStatus</text>
</a>
</g>
</g>
<!-- Node592&#45;&gt;Node594 -->
<g id="edge3" class="edge">
<title>Node592&#45;&gt;Node594</title>
<path fill="none" stroke="#191970" d="M298.617,-200C312.6042,-200 327.6341,-200 342.2165,-200"/>
<polygon fill="#191970" stroke="#191970" points="342.2223,-203.5001 352.2223,-200 342.2222,-196.5001 342.2223,-203.5001"/>
</g>
<!-- Node596 -->
<g id="node6" class="node">
<title>Node596</title>
<g id="a_node6"><a xlink:href="classTriggerMap.html#a17fce9bb5d04e10463484c2bd6dff6f4" target="_top" xlink:title="TriggerMap::CountLoops">
<polygon fill="#ffffff" stroke="#000000" points="355,-152.5 355,-171.5 488,-171.5 488,-152.5 355,-152.5"/>
<text text-anchor="middle" x="421.5" y="-159.5" font-family="Helvetica,sans-Serif" font-size="10.00" fill="#000000">TriggerMap::CountLoops</text>
</a>
</g>
</g>
<!-- Node595&#45;&gt;Node596 -->
<g id="edge5" class="edge">
<title>Node595&#45;&gt;Node596</title>
<path fill="none" stroke="#191970" d="M261.7111,-114.5824C283.5623,-122.706 316.1222,-134.3775 345,-143 353.1053,-145.4201 361.7564,-147.7793 370.2173,-149.9658"/>
<polygon fill="#191970" stroke="#191970" points="369.465,-153.3857 380.0181,-152.4465 371.1827,-146.5997 369.465,-153.3857"/>
</g>
<!-- Node597 -->
<g id="node7" class="node">
<title>Node597</title>
<g id="a_node7"><a xlink:href="classTriggerMap.html#aa7d410849b2b17c3623c6d105241418e" target="_top" xlink:title="TriggerMap::GetMapSize">
<polygon fill="#ffffff" stroke="#000000" points="354.5,-114.5 354.5,-133.5 488.5,-133.5 488.5,-114.5 354.5,-114.5"/>
<text text-anchor="middle" x="421.5" y="-121.5" font-family="Helvetica,sans-Serif" font-size="10.00" fill="#000000">TriggerMap::GetMapSize</text>
</a>
</g>
</g>
<!-- Node595&#45;&gt;Node597 -->
<g id="edge6" class="edge">
<title>Node595&#45;&gt;Node597</title>
<path fill="none" stroke="#191970" d="M309.0859,-112.4548C320.5951,-113.6368 332.536,-114.8632 344.1495,-116.0559"/>
<polygon fill="#191970" stroke="#191970" points="343.9466,-119.5534 354.2519,-117.0934 344.6618,-112.59 343.9466,-119.5534"/>
</g>
<!-- Node598 -->
<g id="node8" class="node">
<title>Node598</title>
<g id="a_node8"><a xlink:href="classTriggerMap.html#aca3f85b40f3aa29a280c2d7511b84217" target="_top" xlink:title="TriggerMap::GetMap">
<polygon fill="#ffffff" stroke="#000000" points="365,-76.5 365,-95.5 478,-95.5 478,-76.5 365,-76.5"/>
<text text-anchor="middle" x="421.5" y="-83.5" font-family="Helvetica,sans-Serif" font-size="10.00" fill="#000000">TriggerMap::GetMap</text>
</a>
</g>
</g>
<!-- Node595&#45;&gt;Node598 -->
<g id="edge7" class="edge">
<title>Node595&#45;&gt;Node598</title>
<path fill="none" stroke="#191970" d="M309.0859,-97.5452C324.1373,-95.9994 339.9271,-94.3778 354.7572,-92.8547"/>
<polygon fill="#191970" stroke="#191970" points="355.2598,-96.3215 364.8499,-91.8181 354.5446,-89.3582 355.2598,-96.3215"/>
</g>
<!-- Node599 -->
<g id="node9" class="node">
<title>Node599</title>
<g id="a_node9"><a xlink:href="classLoopManager.html#a66574bbc447d4f891ef382469c521b05" target="_top" xlink:title="LoopManager::GetStatus">
<polygon fill="#ffffff" stroke="#000000" points="353.5,-38.5 353.5,-57.5 489.5,-57.5 489.5,-38.5 353.5,-38.5"/>
<text text-anchor="middle" x="421.5" y="-45.5" font-family="Helvetica,sans-Serif" font-size="10.00" fill="#000000">LoopManager::GetStatus</text>
</a>
</g>
</g>
<!-- Node595&#45;&gt;Node599 -->
<g id="edge8" class="edge">
<title>Node595&#45;&gt;Node599</title>
<path fill="none" stroke="#191970" d="M261.7111,-95.4176C283.5623,-87.294 316.1222,-75.6225 345,-67 353.1053,-64.5799 361.7564,-62.2207 370.2173,-60.0342"/>
<polygon fill="#191970" stroke="#191970" points="371.1827,-63.4003 380.0181,-57.5535 369.465,-56.6143 371.1827,-63.4003"/>
</g>
<!-- Node600 -->
<g id="node10" class="node">
<title>Node600</title>
<g id="a_node10"><a xlink:href="classLoopManager.html#ab9c9e72e1a23b34c15a87dc13fb02672" target="_top" xlink:title="LoopManager::GetTriggerVol">
<polygon fill="#ffffff" stroke="#000000" points="345,-.5 345,-19.5 498,-19.5 498,-.5 345,-.5"/>
<text text-anchor="middle" x="421.5" y="-7.5" font-family="Helvetica,sans-Serif" font-size="10.00" fill="#000000">LoopManager::GetTriggerVol</text>
</a>
</g>
</g>
<!-- Node595&#45;&gt;Node600 -->
<g id="edge9" class="edge">
<title>Node595&#45;&gt;Node600</title>
<path fill="none" stroke="#191970" d="M247.3672,-95.2965C266.0066,-79.1586 305.859,-46.8202 345,-29 350.3458,-26.5662 356.0495,-24.4143 361.8408,-22.5184"/>
<polygon fill="#191970" stroke="#191970" points="363.0609,-25.8061 371.6221,-19.5646 361.0373,-19.105 363.0609,-25.8061"/>
</g>
</g>
</svg>
