<?xml version="1.0" encoding="UTF-8" standalone="no"?>
<!DOCTYPE svg PUBLIC "-//W3C//DTD SVG 1.1//EN"
 "http://www.w3.org/Graphics/SVG/1.1/DTD/svg11.dtd">
<!-- Generated by graphviz version 2.40.1 (20161225.0304)
 -->
<!-- Title: VorbisEncoder::GetAnalysisBuffer Pages: 1 -->
<svg width="353pt" height="39pt"
 viewBox="0.00 0.00 353.00 39.00" xmlns="http://www.w3.org/2000/svg" xmlns:xlink="http://www.w3.org/1999/xlink">
<g id="graph0" class="graph" transform="scale(1 1) rotate(0) translate(4 35)">
<title>VorbisEncoder::GetAnalysisBuffer</title>
<polygon fill="#ffffff" stroke="transparent" points="-4,4 -4,-35 349,-35 349,4 -4,4"/>
<!-- Node12 -->
<g id="node1" class="node">
<title>Node12</title>
<polygon fill="#bfbfbf" stroke="#000000" points="0,-.5 0,-30.5 150,-30.5 150,-.5 0,-.5"/>
<text text-anchor="start" x="8" y="-18.5" font-family="Helvetica,sans-Serif" font-size="10.00" fill="#000000">VorbisEncoder::GetAnalysis</text>
<text text-anchor="middle" x="75" y="-7.5" font-family="Helvetica,sans-Serif" font-size="10.00" fill="#000000">Buffer</text>
</g>
<!-- Node13 -->
<g id="node2" class="node">
<title>Node13</title>
<g id="a_node2"><a xlink:href="classVorbisEncoder.html#a671b24e3a07e29fecc67468cdfb30f96" target="_top" xlink:title="VorbisEncoder::WriteSamples\lToDisk">
<polygon fill="#ffffff" stroke="#000000" points="186,-.5 186,-30.5 345,-30.5 345,-.5 186,-.5"/>
<text text-anchor="start" x="194" y="-18.5" font-family="Helvetica,sans-Serif" font-size="10.00" fill="#000000">VorbisEncoder::WriteSamples</text>
<text text-anchor="middle" x="265.5" y="-7.5" font-family="Helvetica,sans-Serif" font-size="10.00" fill="#000000">ToDisk</text>
</a>
</g>
</g>
<!-- Node12&#45;&gt;Node13 -->
<g id="edge1" class="edge">
<title>Node12&#45;&gt;Node13</title>
<path fill="none" stroke="#191970" d="M160.0298,-15.5C168.6174,-15.5 177.3171,-15.5 185.8453,-15.5"/>
<polygon fill="#191970" stroke="#191970" points="160.0172,-12.0001 150.0172,-15.5 160.0172,-19.0001 160.0172,-12.0001"/>
</g>
</g>
</svg>
