<?xml version="1.0" encoding="UTF-8" standalone="no"?>
<!DOCTYPE svg PUBLIC "-//W3C//DTD SVG 1.1//EN"
 "http://www.w3.org/Graphics/SVG/1.1/DTD/svg11.dtd">
<!-- Generated by graphviz version 2.40.1 (20161225.0304)
 -->
<!-- Title: PreallocatedType::PreallocatedType Pages: 1 -->
<svg width="562pt" height="180pt"
 viewBox="0.00 0.00 562.00 180.00" xmlns="http://www.w3.org/2000/svg" xmlns:xlink="http://www.w3.org/1999/xlink">
<g id="graph0" class="graph" transform="scale(1 1) rotate(0) translate(4 176)">
<title>PreallocatedType::PreallocatedType</title>
<polygon fill="#ffffff" stroke="transparent" points="-4,4 -4,-176 558,-176 558,4 -4,4"/>
<!-- Node0 -->
<g id="node1" class="node">
<title>Node0</title>
<polygon fill="#bfbfbf" stroke="#000000" points="0,-76.5 0,-95.5 189,-95.5 189,-76.5 0,-76.5"/>
<text text-anchor="middle" x="94.5" y="-83.5" font-family="Helvetica,sans-Serif" font-size="10.00" fill="#000000">PreallocatedType::PreallocatedType</text>
</g>
<!-- Node1 -->
<g id="node2" class="node">
<title>Node1</title>
<g id="a_node2"><a xlink:href="classPreallocated.html#ad31c546d3c1641b44135dccb4ef0cafd" target="_top" xlink:title="Preallocated::SetupPreallocated">
<polygon fill="#ffffff" stroke="#000000" points="225,-152.5 225,-171.5 397,-171.5 397,-152.5 225,-152.5"/>
<text text-anchor="middle" x="311" y="-159.5" font-family="Helvetica,sans-Serif" font-size="10.00" fill="#000000">Preallocated::SetupPreallocated</text>
</a>
</g>
</g>
<!-- Node0&#45;&gt;Node1 -->
<g id="edge1" class="edge">
<title>Node0&#45;&gt;Node1</title>
<path fill="none" stroke="#191970" d="M113.4993,-95.7006C138.5064,-108.1392 184.0934,-129.6877 225,-143 233.047,-145.6187 241.634,-147.9932 250.1515,-150.1066"/>
<polygon fill="#191970" stroke="#191970" points="249.5436,-153.5596 260.0819,-152.4667 251.1621,-146.7492 249.5436,-153.5596"/>
</g>
<!-- Node2 -->
<g id="node3" class="node">
<title>Node2</title>
<g id="a_node3"><a xlink:href="classRTStore.html#a2be0d247570dc611a379ab0a80dd14da" target="_top" xlink:title="RTStore::FindItemWithState">
<polygon fill="#ffffff" stroke="#000000" points="236,-114.5 236,-133.5 386,-133.5 386,-114.5 236,-114.5"/>
<text text-anchor="middle" x="311" y="-121.5" font-family="Helvetica,sans-Serif" font-size="10.00" fill="#000000">RTStore::FindItemWithState</text>
</a>
</g>
</g>
<!-- Node0&#45;&gt;Node2 -->
<g id="edge2" class="edge">
<title>Node0&#45;&gt;Node2</title>
<path fill="none" stroke="#191970" d="M148.8526,-95.54C178.5781,-100.7574 215.5834,-107.2525 246.7336,-112.72"/>
<polygon fill="#191970" stroke="#191970" points="246.1705,-116.1746 256.625,-114.4561 247.3807,-109.28 246.1705,-116.1746"/>
</g>
<!-- Node3 -->
<g id="node4" class="node">
<title>Node3</title>
<g id="a_node4"><a xlink:href="classRTStore.html#af3c93f31bd68ce149a812b05d9e7cd86" target="_top" xlink:title="RTStore::ChangeStateAtIdx">
<polygon fill="#ffffff" stroke="#000000" points="237,-76.5 237,-95.5 385,-95.5 385,-76.5 237,-76.5"/>
<text text-anchor="middle" x="311" y="-83.5" font-family="Helvetica,sans-Serif" font-size="10.00" fill="#000000">RTStore::ChangeStateAtIdx</text>
</a>
</g>
</g>
<!-- Node0&#45;&gt;Node3 -->
<g id="edge3" class="edge">
<title>Node0&#45;&gt;Node3</title>
<path fill="none" stroke="#191970" d="M189.1451,-86C201.5901,-86 214.2788,-86 226.5393,-86"/>
<polygon fill="#191970" stroke="#191970" points="226.7226,-89.5001 236.7225,-86 226.7225,-82.5001 226.7226,-89.5001"/>
</g>
<!-- Node4 -->
<g id="node5" class="node">
<title>Node4</title>
<g id="a_node5"><a xlink:href="classPreallocated.html#a6c7fad49a12301624b0dfbd9cef2f358" target="_top" xlink:title="Preallocated::NewInstance">
<polygon fill="#ffffff" stroke="#000000" points="238,-38.5 238,-57.5 384,-57.5 384,-38.5 238,-38.5"/>
<text text-anchor="middle" x="311" y="-45.5" font-family="Helvetica,sans-Serif" font-size="10.00" fill="#000000">Preallocated::NewInstance</text>
</a>
</g>
</g>
<!-- Node0&#45;&gt;Node4 -->
<g id="edge4" class="edge">
<title>Node0&#45;&gt;Node4</title>
<path fill="none" stroke="#191970" d="M148.8526,-76.46C178.5781,-71.2426 215.5834,-64.7475 246.7336,-59.28"/>
<polygon fill="#191970" stroke="#191970" points="247.3807,-62.72 256.625,-57.5439 246.1705,-55.8254 247.3807,-62.72"/>
</g>
<!-- Node5 -->
<g id="node6" class="node">
<title>Node5</title>
<g id="a_node6"><a xlink:href="classMemoryManager.html#a82e879292ba9d168464a09d47f7c0ff0" target="_top" xlink:title="MemoryManager::AddType">
<polygon fill="#ffffff" stroke="#000000" points="238,-.5 238,-19.5 384,-19.5 384,-.5 238,-.5"/>
<text text-anchor="middle" x="311" y="-7.5" font-family="Helvetica,sans-Serif" font-size="10.00" fill="#000000">MemoryManager::AddType</text>
</a>
</g>
</g>
<!-- Node0&#45;&gt;Node5 -->
<g id="edge5" class="edge">
<title>Node0&#45;&gt;Node5</title>
<path fill="none" stroke="#191970" d="M113.4993,-76.2994C138.5064,-63.8608 184.0934,-42.3123 225,-29 233.047,-26.3813 241.634,-24.0068 250.1515,-21.8934"/>
<polygon fill="#191970" stroke="#191970" points="251.1621,-25.2508 260.0819,-19.5333 249.5436,-18.4404 251.1621,-25.2508"/>
</g>
<!-- Node6 -->
<g id="node7" class="node">
<title>Node6</title>
<g id="a_node7"><a xlink:href="classSLinkList.html#a431df31658149fad3425c7c62b887a42" target="_top" xlink:title="SLinkList::AddToHead">
<polygon fill="#ffffff" stroke="#000000" points="433,-.5 433,-19.5 554,-19.5 554,-.5 433,-.5"/>
<text text-anchor="middle" x="493.5" y="-7.5" font-family="Helvetica,sans-Serif" font-size="10.00" fill="#000000">SLinkList::AddToHead</text>
</a>
</g>
</g>
<!-- Node5&#45;&gt;Node6 -->
<g id="edge6" class="edge">
<title>Node5&#45;&gt;Node6</title>
<path fill="none" stroke="#191970" d="M384.1782,-10C396.9326,-10 410.1777,-10 422.8622,-10"/>
<polygon fill="#191970" stroke="#191970" points="422.8946,-13.5001 432.8945,-10 422.8945,-6.5001 422.8946,-13.5001"/>
</g>
</g>
</svg>
