<?xml version="1.0" encoding="UTF-8" standalone="no"?>
<!DOCTYPE svg PUBLIC "-//W3C//DTD SVG 1.1//EN"
 "http://www.w3.org/Graphics/SVG/1.1/DTD/svg11.dtd">
<!-- Generated by graphviz version 2.40.1 (20161225.0304)
 -->
<!-- Title: MidiIO::OutputProgramChange Pages: 1 -->
<svg width="759pt" height="78pt"
 viewBox="0.00 0.00 759.00 77.50" xmlns="http://www.w3.org/2000/svg" xmlns:xlink="http://www.w3.org/1999/xlink">
<g id="graph0" class="graph" transform="scale(1 1) rotate(0) translate(4 73.5)">
<title>MidiIO::OutputProgramChange</title>
<polygon fill="#ffffff" stroke="transparent" points="-4,4 -4,-73.5 755,-73.5 755,4 -4,4"/>
<!-- Node175 -->
<g id="node1" class="node">
<title>Node175</title>
<polygon fill="#bfbfbf" stroke="#000000" points="0,-28 0,-47 164,-47 164,-28 0,-28"/>
<text text-anchor="middle" x="82" y="-35" font-family="Helvetica,sans-Serif" font-size="10.00" fill="#000000">MidiIO::OutputProgramChange</text>
</g>
<!-- Node176 -->
<g id="node2" class="node">
<title>Node176</title>
<g id="a_node2"><a xlink:href="classMidiIO.html#a9f130a6f6732fcdc5c111a5708afb64f" target="_top" xlink:title="MidiIO::EchoEventToPortChannel">
<polygon fill="#ffffff" stroke="#000000" points="203,-50 203,-69 377,-69 377,-50 203,-50"/>
<text text-anchor="middle" x="290" y="-57" font-family="Helvetica,sans-Serif" font-size="10.00" fill="#000000">MidiIO::EchoEventToPortChannel</text>
</a>
</g>
</g>
<!-- Node175&#45;&gt;Node176 -->
<g id="edge1" class="edge">
<title>Node175&#45;&gt;Node176</title>
<path fill="none" stroke="#191970" d="M174.423,-47.2755C183.8986,-48.2777 193.5039,-49.2937 202.9192,-50.2895"/>
<polygon fill="#191970" stroke="#191970" points="174.5198,-43.7663 164.2071,-46.195 173.7835,-50.7275 174.5198,-43.7663"/>
</g>
<!-- Node179 -->
<g id="node5" class="node">
<title>Node179</title>
<g id="a_node5"><a xlink:href="classMidiIO.html#ad332f41abafbe8f2359779eaa99bec59" target="_top" xlink:title="MidiIO::SendBankProgramChange\lToPortChannel">
<polygon fill="#ffffff" stroke="#000000" points="200,-.5 200,-30.5 380,-30.5 380,-.5 200,-.5"/>
<text text-anchor="start" x="208" y="-18.5" font-family="Helvetica,sans-Serif" font-size="10.00" fill="#000000">MidiIO::SendBankProgramChange</text>
<text text-anchor="middle" x="290" y="-7.5" font-family="Helvetica,sans-Serif" font-size="10.00" fill="#000000">ToPortChannel</text>
</a>
</g>
</g>
<!-- Node175&#45;&gt;Node179 -->
<g id="edge4" class="edge">
<title>Node175&#45;&gt;Node179</title>
<path fill="none" stroke="#191970" d="M174.153,-27.753C182.6795,-26.8512 191.3136,-25.938 199.8221,-25.0381"/>
<polygon fill="#191970" stroke="#191970" points="173.7835,-24.2725 164.2071,-28.805 174.5198,-31.2337 173.7835,-24.2725"/>
</g>
<!-- Node177 -->
<g id="node3" class="node">
<title>Node177</title>
<g id="a_node3"><a xlink:href="classMidiIO.html#aae58e8a30b732a5eee97d76785a5909a" target="_top" xlink:title="MidiIO::EchoEvent">
<polygon fill="#ffffff" stroke="#000000" points="454,-50 454,-69 558,-69 558,-50 454,-50"/>
<text text-anchor="middle" x="506" y="-57" font-family="Helvetica,sans-Serif" font-size="10.00" fill="#000000">MidiIO::EchoEvent</text>
</a>
</g>
</g>
<!-- Node176&#45;&gt;Node177 -->
<g id="edge2" class="edge">
<title>Node176&#45;&gt;Node177</title>
<path fill="none" stroke="#191970" d="M387.3544,-59.5C410.2797,-59.5 433.8511,-59.5 453.8824,-59.5"/>
<polygon fill="#191970" stroke="#191970" points="387.2329,-56.0001 377.2329,-59.5 387.2328,-63.0001 387.2329,-56.0001"/>
</g>
<!-- Node178 -->
<g id="node4" class="node">
<title>Node178</title>
<g id="a_node4"><a xlink:href="classMidiIO.html#a90cc0dad2841a9386a0c86efc1d9dce6" target="_top" xlink:title="MidiIO::ReceiveEvent">
<polygon fill="#ffffff" stroke="#000000" points="632,-50 632,-69 751,-69 751,-50 632,-50"/>
<text text-anchor="middle" x="691.5" y="-57" font-family="Helvetica,sans-Serif" font-size="10.00" fill="#000000">MidiIO::ReceiveEvent</text>
</a>
</g>
</g>
<!-- Node177&#45;&gt;Node178 -->
<g id="edge3" class="edge">
<title>Node177&#45;&gt;Node178</title>
<path fill="none" stroke="#191970" d="M568.345,-59.5C588.8493,-59.5 611.5828,-59.5 631.8795,-59.5"/>
<polygon fill="#191970" stroke="#191970" points="568.1658,-56.0001 558.1657,-59.5 568.1657,-63.0001 568.1658,-56.0001"/>
</g>
<!-- Node180 -->
<g id="node6" class="node">
<title>Node180</title>
<g id="a_node6"><a xlink:href="classMidiIO.html#a6da1afe464151972b9d322964a968d29" target="_top" xlink:title="MidiIO::SendBankProgramChange">
<polygon fill="#ffffff" stroke="#000000" points="416,-6 416,-25 596,-25 596,-6 416,-6"/>
<text text-anchor="middle" x="506" y="-13" font-family="Helvetica,sans-Serif" font-size="10.00" fill="#000000">MidiIO::SendBankProgramChange</text>
</a>
</g>
</g>
<!-- Node179&#45;&gt;Node180 -->
<g id="edge5" class="edge">
<title>Node179&#45;&gt;Node180</title>
<path fill="none" stroke="#191970" d="M390.0586,-15.5C398.6309,-15.5 407.2703,-15.5 415.7592,-15.5"/>
<polygon fill="#191970" stroke="#191970" points="390.0394,-12.0001 380.0394,-15.5 390.0393,-19.0001 390.0394,-12.0001"/>
</g>
</g>
</svg>
