<?xml version="1.0" encoding="UTF-8" standalone="no"?>
<!DOCTYPE svg PUBLIC "-//W3C//DTD SVG 1.1//EN"
 "http://www.w3.org/Graphics/SVG/1.1/DTD/svg11.dtd">
<!-- Generated by graphviz version 2.40.1 (20161225.0304)
 -->
<!-- Title: AudioBlock::SetPtrsFromAbsOffset Pages: 1 -->
<svg width="1194pt" height="382pt"
 viewBox="0.00 0.00 1194.00 382.00" xmlns="http://www.w3.org/2000/svg" xmlns:xlink="http://www.w3.org/1999/xlink">
<g id="graph0" class="graph" transform="scale(1 1) rotate(0) translate(4 378)">
<title>AudioBlock::SetPtrsFromAbsOffset</title>
<polygon fill="#ffffff" stroke="transparent" points="-4,4 -4,-378 1190,-378 1190,4 -4,4"/>
<!-- Node143 -->
<g id="node1" class="node">
<title>Node143</title>
<polygon fill="#bfbfbf" stroke="#000000" points="0,-128 0,-158 154,-158 154,-128 0,-128"/>
<text text-anchor="start" x="8" y="-146" font-family="Helvetica,sans-Serif" font-size="10.00" fill="#000000">AudioBlock::SetPtrsFromAbs</text>
<text text-anchor="middle" x="77" y="-135" font-family="Helvetica,sans-Serif" font-size="10.00" fill="#000000">Offset</text>
</g>
<!-- Node144 -->
<g id="node2" class="node">
<title>Node144</title>
<g id="a_node2"><a xlink:href="classAudioBlock.html#a09c778d19d7d45dbb68951fabff2f518" target="_top" xlink:title="AudioBlock::Smooth">
<polygon fill="#ffffff" stroke="#000000" points="431,-190.5 431,-209.5 546,-209.5 546,-190.5 431,-190.5"/>
<text text-anchor="middle" x="488.5" y="-197.5" font-family="Helvetica,sans-Serif" font-size="10.00" fill="#000000">AudioBlock::Smooth</text>
</a>
</g>
</g>
<!-- Node143&#45;&gt;Node144 -->
<g id="edge1" class="edge">
<title>Node143&#45;&gt;Node144</title>
<path fill="none" stroke="#191970" d="M123.3048,-161.6136C143.4671,-168.9183 167.5724,-176.594 190,-181 272.6726,-197.2414 370.4553,-200.5277 430.9862,-200.7564"/>
<polygon fill="#191970" stroke="#191970" points="124.3415,-158.2652 113.7484,-158.0734 121.9098,-164.8293 124.3415,-158.2652"/>
</g>
<!-- Node154 -->
<g id="node12" class="node">
<title>Node154</title>
<g id="a_node12"><a xlink:href="classAudioBlock.html#aea20227efbc9017f7fb247cb2d851086" target="_top" xlink:title="AudioBlock::GenerateSubChain">
<polygon fill="#ffffff" stroke="#000000" points="191.5,-73.5 191.5,-92.5 359.5,-92.5 359.5,-73.5 191.5,-73.5"/>
<text text-anchor="middle" x="275.5" y="-80.5" font-family="Helvetica,sans-Serif" font-size="10.00" fill="#000000">AudioBlock::GenerateSubChain</text>
</a>
</g>
</g>
<!-- Node143&#45;&gt;Node154 -->
<g id="edge12" class="edge">
<title>Node143&#45;&gt;Node154</title>
<path fill="none" stroke="#191970" d="M136.5584,-124.9975C171.8572,-114.3278 215.1755,-101.2341 243.9648,-92.532"/>
<polygon fill="#191970" stroke="#191970" points="135.3933,-121.6932 126.8337,-127.9369 137.4187,-128.3938 135.3933,-121.6932"/>
</g>
<!-- Node156 -->
<g id="node14" class="node">
<title>Node156</title>
<g id="a_node14"><a xlink:href="classAudioBlock.html#aa9e0bc3fa297c7c97aedda16f240108f" target="_top" xlink:title="AudioBlock::HackTotalLengthBy">
<polygon fill="#ffffff" stroke="#000000" points="190,-152.5 190,-171.5 361,-171.5 361,-152.5 190,-152.5"/>
<text text-anchor="middle" x="275.5" y="-159.5" font-family="Helvetica,sans-Serif" font-size="10.00" fill="#000000">AudioBlock::HackTotalLengthBy</text>
</a>
</g>
</g>
<!-- Node143&#45;&gt;Node156 -->
<g id="edge14" class="edge">
<title>Node143&#45;&gt;Node156</title>
<path fill="none" stroke="#191970" d="M164.0486,-151.3321C172.6454,-152.155 181.3662,-152.9897 189.9477,-153.8111"/>
<polygon fill="#191970" stroke="#191970" points="164.3174,-147.8419 154.0294,-150.3731 163.6504,-154.8101 164.3174,-147.8419"/>
</g>
<!-- Node157 -->
<g id="node15" class="node">
<title>Node157</title>
<g id="a_node15"><a xlink:href="classAudioBlockIterator.html#aee775d7a85e66fa08144b582658a9cac" target="_top" xlink:title="AudioBlockIterator\l::Jump">
<polygon fill="#ffffff" stroke="#000000" points="435,-109 435,-139 542,-139 542,-109 435,-109"/>
<text text-anchor="start" x="443" y="-127" font-family="Helvetica,sans-Serif" font-size="10.00" fill="#000000">AudioBlockIterator</text>
<text text-anchor="middle" x="488.5" y="-116" font-family="Helvetica,sans-Serif" font-size="10.00" fill="#000000">::Jump</text>
</a>
</g>
</g>
<!-- Node143&#45;&gt;Node157 -->
<g id="edge16" class="edge">
<title>Node143&#45;&gt;Node157</title>
<path fill="none" stroke="#191970" d="M164.4402,-138.9627C246.3108,-135.1825 366.0371,-129.6544 434.7151,-126.4834"/>
<polygon fill="#191970" stroke="#191970" points="164.2279,-135.4686 154.4,-139.4262 164.5508,-142.4612 164.2279,-135.4686"/>
</g>
<!-- Node145 -->
<g id="node3" class="node">
<title>Node145</title>
<g id="a_node3"><a xlink:href="classBlockReadManager.html#a0956beb932559fdea3ecca152db2bd0a" target="_top" xlink:title="BlockReadManager::End">
<polygon fill="#ffffff" stroke="#000000" points="640.5,-266.5 640.5,-285.5 774.5,-285.5 774.5,-266.5 640.5,-266.5"/>
<text text-anchor="middle" x="707.5" y="-273.5" font-family="Helvetica,sans-Serif" font-size="10.00" fill="#000000">BlockReadManager::End</text>
</a>
</g>
</g>
<!-- Node144&#45;&gt;Node145 -->
<g id="edge2" class="edge">
<title>Node144&#45;&gt;Node145</title>
<path fill="none" stroke="#191970" d="M525.9285,-212.9889C569.6753,-228.1704 641.0318,-252.9334 679.9887,-266.4527"/>
<polygon fill="#191970" stroke="#191970" points="526.8313,-209.5975 516.2365,-209.6255 524.5363,-216.2106 526.8313,-209.5975"/>
</g>
<!-- Node150 -->
<g id="node8" class="node">
<title>Node150</title>
<g id="a_node8"><a xlink:href="classRecordProcessor.html#a9984f573bbc265321ad0604f97b23820" target="_top" xlink:title="RecordProcessor::EndNow">
<polygon fill="#ffffff" stroke="#000000" points="636,-190.5 636,-209.5 779,-209.5 779,-190.5 636,-190.5"/>
<text text-anchor="middle" x="707.5" y="-197.5" font-family="Helvetica,sans-Serif" font-size="10.00" fill="#000000">RecordProcessor::EndNow</text>
</a>
</g>
</g>
<!-- Node144&#45;&gt;Node150 -->
<g id="edge8" class="edge">
<title>Node144&#45;&gt;Node150</title>
<path fill="none" stroke="#191970" d="M556.2631,-200C581.5193,-200 610.2591,-200 635.8528,-200"/>
<polygon fill="#191970" stroke="#191970" points="556.0397,-196.5001 546.0397,-200 556.0396,-203.5001 556.0397,-196.5001"/>
</g>
<!-- Node146 -->
<g id="node4" class="node">
<title>Node146</title>
<g id="a_node4"><a xlink:href="classBlockReadManager.html#a935aa663d9fa5b6d346f77c7b3882e2b" target="_top" xlink:title="BlockReadManager::\l~BlockReadManager">
<polygon fill="#ffffff" stroke="#000000" points="856.5,-305 856.5,-335 974.5,-335 974.5,-305 856.5,-305"/>
<text text-anchor="start" x="864.5" y="-323" font-family="Helvetica,sans-Serif" font-size="10.00" fill="#000000">BlockReadManager::</text>
<text text-anchor="middle" x="915.5" y="-312" font-family="Helvetica,sans-Serif" font-size="10.00" fill="#000000">~BlockReadManager</text>
</a>
</g>
</g>
<!-- Node145&#45;&gt;Node146 -->
<g id="edge3" class="edge">
<title>Node145&#45;&gt;Node146</title>
<path fill="none" stroke="#191970" d="M762.5477,-287.6447C791.404,-293.7489 826.7743,-301.2311 856.2304,-307.4622"/>
<polygon fill="#191970" stroke="#191970" points="763.1408,-284.1928 752.6329,-285.5473 761.692,-291.0412 763.1408,-284.1928"/>
</g>
<!-- Node147 -->
<g id="node5" class="node">
<title>Node147</title>
<g id="a_node5"><a xlink:href="classBlockReadManager.html#af12804c61f944904eedf8c9edf5cd3bd" target="_top" xlink:title="BlockReadManager::Start">
<polygon fill="#ffffff" stroke="#000000" points="846,-266.5 846,-285.5 985,-285.5 985,-266.5 846,-266.5"/>
<text text-anchor="middle" x="915.5" y="-273.5" font-family="Helvetica,sans-Serif" font-size="10.00" fill="#000000">BlockReadManager::Start</text>
</a>
</g>
</g>
<!-- Node145&#45;&gt;Node147 -->
<g id="edge4" class="edge">
<title>Node145&#45;&gt;Node147</title>
<path fill="none" stroke="#191970" d="M784.779,-276C804.8489,-276 826.3429,-276 845.986,-276"/>
<polygon fill="#191970" stroke="#191970" points="784.7444,-272.5001 774.7444,-276 784.7444,-279.5001 784.7444,-272.5001"/>
</g>
<!-- Node148 -->
<g id="node6" class="node">
<title>Node148</title>
<g id="a_node6"><a xlink:href="classBlockReadManager.html#aa990976dec4a3ec5bd6384b54ce5f09b" target="_top" xlink:title="BlockReadManager::Manage">
<polygon fill="#ffffff" stroke="#000000" points="1032,-247.5 1032,-266.5 1186,-266.5 1186,-247.5 1032,-247.5"/>
<text text-anchor="middle" x="1109" y="-254.5" font-family="Helvetica,sans-Serif" font-size="10.00" fill="#000000">BlockReadManager::Manage</text>
</a>
</g>
</g>
<!-- Node145&#45;&gt;Node148 -->
<g id="edge6" class="edge">
<title>Node145&#45;&gt;Node148</title>
<path fill="none" stroke="#191970" d="M769.3878,-264.8974C790.1666,-261.6725 813.5183,-258.5918 835,-257 901.2965,-252.0874 976.8641,-252.5383 1031.8239,-253.9609"/>
<polygon fill="#191970" stroke="#191970" points="768.7382,-261.4566 759.4133,-266.4863 769.8395,-268.3695 768.7382,-261.4566"/>
</g>
<!-- Node149 -->
<g id="node7" class="node">
<title>Node149</title>
<g id="a_node7"><a xlink:href="classLoopManager.html#aadca58536e41c8b0b8fd148ac40b23c0" target="_top" xlink:title="LoopManager::~LoopManager">
<polygon fill="#ffffff" stroke="#000000" points="835,-354.5 835,-373.5 996,-373.5 996,-354.5 835,-354.5"/>
<text text-anchor="middle" x="915.5" y="-361.5" font-family="Helvetica,sans-Serif" font-size="10.00" fill="#000000">LoopManager::~LoopManager</text>
</a>
</g>
</g>
<!-- Node145&#45;&gt;Node149 -->
<g id="edge7" class="edge">
<title>Node145&#45;&gt;Node149</title>
<path fill="none" stroke="#191970" d="M730.9106,-291.1298C755.8239,-306.6319 796.8331,-330.4631 835,-345 844.7961,-348.7311 855.5511,-351.8793 865.9217,-354.4736"/>
<polygon fill="#191970" stroke="#191970" points="732.516,-288.0044 722.1899,-285.633 728.7833,-293.9262 732.516,-288.0044"/>
</g>
<!-- Node147&#45;&gt;Node148 -->
<g id="edge5" class="edge">
<title>Node147&#45;&gt;Node148</title>
<path fill="none" stroke="#191970" d="M995.1609,-268.178C1007.2806,-266.9879 1019.7699,-265.7616 1031.8351,-264.5769"/>
<polygon fill="#191970" stroke="#191970" points="994.6946,-264.7069 985.0846,-269.1674 995.3788,-271.6734 994.6946,-264.7069"/>
</g>
<!-- Node151 -->
<g id="node9" class="node">
<title>Node151</title>
<g id="a_node9"><a xlink:href="classRecordProcessor.html#a6168d8dc850602a348dc74ab1224263a" target="_top" xlink:title="RecordProcessor::PulseSync">
<polygon fill="#ffffff" stroke="#000000" points="839.5,-95.5 839.5,-114.5 991.5,-114.5 991.5,-95.5 839.5,-95.5"/>
<text text-anchor="middle" x="915.5" y="-102.5" font-family="Helvetica,sans-Serif" font-size="10.00" fill="#000000">RecordProcessor::PulseSync</text>
</a>
</g>
</g>
<!-- Node150&#45;&gt;Node151 -->
<g id="edge9" class="edge">
<title>Node150&#45;&gt;Node151</title>
<path fill="none" stroke="#191970" d="M737.9454,-186.0946C780.7931,-166.5248 857.7661,-131.3688 894.6646,-114.5162"/>
<polygon fill="#191970" stroke="#191970" points="736.2309,-183.0299 728.5888,-190.3681 739.1391,-189.3972 736.2309,-183.0299"/>
</g>
<!-- Node152 -->
<g id="node10" class="node">
<title>Node152</title>
<g id="a_node10"><a xlink:href="classRecordProcessor.html#ab035edfb707f8f1066b3597df7ddda7d" target="_top" xlink:title="RecordProcessor::End">
<polygon fill="#ffffff" stroke="#000000" points="855,-190.5 855,-209.5 976,-209.5 976,-190.5 855,-190.5"/>
<text text-anchor="middle" x="915.5" y="-197.5" font-family="Helvetica,sans-Serif" font-size="10.00" fill="#000000">RecordProcessor::End</text>
</a>
</g>
</g>
<!-- Node150&#45;&gt;Node152 -->
<g id="edge10" class="edge">
<title>Node150&#45;&gt;Node152</title>
<path fill="none" stroke="#191970" d="M789.339,-200C811.1789,-200 834.3861,-200 854.8617,-200"/>
<polygon fill="#191970" stroke="#191970" points="789.0818,-196.5001 779.0818,-200 789.0818,-203.5001 789.0818,-196.5001"/>
</g>
<!-- Node153 -->
<g id="node11" class="node">
<title>Node153</title>
<g id="a_node11"><a xlink:href="classRecordProcessor.html#ad36d69ec9d41b424eb2e6c5fa2e0cf3a" target="_top" xlink:title="RecordProcessor::process">
<polygon fill="#ffffff" stroke="#000000" points="845.5,-152.5 845.5,-171.5 985.5,-171.5 985.5,-152.5 845.5,-152.5"/>
<text text-anchor="middle" x="915.5" y="-159.5" font-family="Helvetica,sans-Serif" font-size="10.00" fill="#000000">RecordProcessor::process</text>
</a>
</g>
</g>
<!-- Node150&#45;&gt;Node153 -->
<g id="edge11" class="edge">
<title>Node150&#45;&gt;Node153</title>
<path fill="none" stroke="#191970" d="M769.6096,-188.653C799.4528,-183.2009 834.8215,-176.7393 863.2598,-171.5439"/>
<polygon fill="#191970" stroke="#191970" points="768.9268,-185.2198 759.7187,-190.46 770.1849,-192.1058 768.9268,-185.2198"/>
</g>
<!-- Node155 -->
<g id="node13" class="node">
<title>Node155</title>
<g id="a_node13"><a xlink:href="classRecordProcessor.html#aa20c0f68a5ee5e4739759b3783b6e4d1" target="_top" xlink:title="RecordProcessor::RecordProcessor">
<polygon fill="#ffffff" stroke="#000000" points="397,-70.5 397,-89.5 580,-89.5 580,-70.5 397,-70.5"/>
<text text-anchor="middle" x="488.5" y="-77.5" font-family="Helvetica,sans-Serif" font-size="10.00" fill="#000000">RecordProcessor::RecordProcessor</text>
</a>
</g>
</g>
<!-- Node154&#45;&gt;Node155 -->
<g id="edge13" class="edge">
<title>Node154&#45;&gt;Node155</title>
<path fill="none" stroke="#191970" d="M369.777,-81.6722C378.774,-81.5454 387.8888,-81.4171 396.8602,-81.2907"/>
<polygon fill="#191970" stroke="#191970" points="369.6329,-78.1737 359.6832,-81.8143 369.7316,-85.173 369.6329,-78.1737"/>
</g>
<!-- Node156&#45;&gt;Node144 -->
<g id="edge15" class="edge">
<title>Node156&#45;&gt;Node144</title>
<path fill="none" stroke="#191970" d="M339.1026,-173.347C369.6632,-178.7991 405.8821,-185.2607 435.004,-190.4561"/>
<polygon fill="#191970" stroke="#191970" points="339.4333,-169.8507 328.974,-171.54 338.2038,-176.7419 339.4333,-169.8507"/>
</g>
<!-- Node157&#45;&gt;Node153 -->
<g id="edge20" class="edge">
<title>Node157&#45;&gt;Node153</title>
<path fill="none" stroke="#191970" d="M552.1335,-134.5635C572.4909,-137.6526 595.1528,-140.7894 616,-143 694.3635,-151.3095 784.6756,-156.4324 845.4631,-159.2336"/>
<polygon fill="#191970" stroke="#191970" points="552.4491,-131.0709 542.0326,-133.0065 551.3826,-137.9891 552.4491,-131.0709"/>
</g>
<!-- Node158 -->
<g id="node16" class="node">
<title>Node158</title>
<g id="a_node16"><a xlink:href="classRecordProcessor.html#a1aea5f833c59a12398b05b514b26b572" target="_top" xlink:title="RecordProcessor::RecordProcessor">
<polygon fill="#ffffff" stroke="#000000" points="616,-.5 616,-19.5 799,-19.5 799,-.5 616,-.5"/>
<text text-anchor="middle" x="707.5" y="-7.5" font-family="Helvetica,sans-Serif" font-size="10.00" fill="#000000">RecordProcessor::RecordProcessor</text>
</a>
</g>
</g>
<!-- Node157&#45;&gt;Node158 -->
<g id="edge17" class="edge">
<title>Node157&#45;&gt;Node158</title>
<path fill="none" stroke="#191970" d="M552.0508,-114.0487C562.1064,-110.4659 571.8572,-105.6016 580,-99 607.1753,-76.9681 588.1551,-50.1793 616,-29 621.0362,-25.1694 626.6615,-22.0649 632.5796,-19.5543"/>
<polygon fill="#191970" stroke="#191970" points="550.8429,-110.7597 542.3591,-117.106 552.9488,-117.4354 550.8429,-110.7597"/>
</g>
<!-- Node159 -->
<g id="node17" class="node">
<title>Node159</title>
<g id="a_node17"><a xlink:href="classRecordProcessor.html#a8fbde2e8b6f9e9dafb89ef0b06e6a11a" target="_top" xlink:title="RecordProcessor::Jump">
<polygon fill="#ffffff" stroke="#000000" points="643.5,-76.5 643.5,-95.5 771.5,-95.5 771.5,-76.5 643.5,-76.5"/>
<text text-anchor="middle" x="707.5" y="-83.5" font-family="Helvetica,sans-Serif" font-size="10.00" fill="#000000">RecordProcessor::Jump</text>
</a>
</g>
</g>
<!-- Node157&#45;&gt;Node159 -->
<g id="edge18" class="edge">
<title>Node157&#45;&gt;Node159</title>
<path fill="none" stroke="#191970" d="M552.161,-112.9538C583.9665,-107.435 622.0681,-100.8238 652.576,-95.5302"/>
<polygon fill="#191970" stroke="#191970" points="551.3278,-109.546 542.0734,-114.7042 552.5246,-116.4429 551.3278,-109.546"/>
</g>
<!-- Node160 -->
<g id="node18" class="node">
<title>Node160</title>
<g id="a_node18"><a xlink:href="classPlayProcessor.html#a4f2f7e937cc77b2516d03aa76d29519d" target="_top" xlink:title="PlayProcessor::PlayProcessor">
<polygon fill="#ffffff" stroke="#000000" points="628,-114.5 628,-133.5 787,-133.5 787,-114.5 628,-114.5"/>
<text text-anchor="middle" x="707.5" y="-121.5" font-family="Helvetica,sans-Serif" font-size="10.00" fill="#000000">PlayProcessor::PlayProcessor</text>
</a>
</g>
</g>
<!-- Node157&#45;&gt;Node160 -->
<g id="edge21" class="edge">
<title>Node157&#45;&gt;Node160</title>
<path fill="none" stroke="#191970" d="M552.3279,-124C575.9804,-124 603.0968,-124 627.9763,-124"/>
<polygon fill="#191970" stroke="#191970" points="552.0735,-120.5001 542.0734,-124 552.0734,-127.5001 552.0735,-120.5001"/>
</g>
<!-- Node161 -->
<g id="node19" class="node">
<title>Node161</title>
<g id="a_node19"><a xlink:href="classPlayProcessor.html#a13ce406fdf45f876f305b01c031f04a2" target="_top" xlink:title="PlayProcessor::PulseSync">
<polygon fill="#ffffff" stroke="#000000" points="637.5,-38.5 637.5,-57.5 777.5,-57.5 777.5,-38.5 637.5,-38.5"/>
<text text-anchor="middle" x="707.5" y="-45.5" font-family="Helvetica,sans-Serif" font-size="10.00" fill="#000000">PlayProcessor::PulseSync</text>
</a>
</g>
</g>
<!-- Node157&#45;&gt;Node161 -->
<g id="edge22" class="edge">
<title>Node157&#45;&gt;Node161</title>
<path fill="none" stroke="#191970" d="M552.0013,-110.7557C561.6722,-107.5827 571.3133,-103.7082 580,-99 598.8206,-88.7993 596.8724,-76.6127 616,-67 623.6832,-63.1388 632.1069,-60.0619 640.6353,-57.6102"/>
<polygon fill="#191970" stroke="#191970" points="550.8975,-107.4331 542.3547,-113.6998 552.9409,-114.1283 550.8975,-107.4331"/>
</g>
<!-- Node159&#45;&gt;Node151 -->
<g id="edge19" class="edge">
<title>Node159&#45;&gt;Node151</title>
<path fill="none" stroke="#191970" d="M781.7965,-92.7867C800.4308,-94.4889 820.4538,-96.3179 839.1846,-98.0289"/>
<polygon fill="#191970" stroke="#191970" points="781.881,-89.2799 771.6041,-91.8557 781.2442,-96.2509 781.881,-89.2799"/>
</g>
</g>
</svg>
