<?xml version="1.0" encoding="UTF-8" standalone="no"?>
<!DOCTYPE svg PUBLIC "-//W3C//DTD SVG 1.1//EN"
 "http://www.w3.org/Graphics/SVG/1.1/DTD/svg11.dtd">
<!-- Generated by graphviz version 2.40.1 (20161225.0304)
 -->
<!-- Title: FloLayoutElementGeometry::Draw Pages: 1 -->
<svg width="489pt" height="39pt"
 viewBox="0.00 0.00 489.00 39.00" xmlns="http://www.w3.org/2000/svg" xmlns:xlink="http://www.w3.org/1999/xlink">
<g id="graph0" class="graph" transform="scale(1 1) rotate(0) translate(4 35)">
<title>FloLayoutElementGeometry::Draw</title>
<polygon fill="#ffffff" stroke="transparent" points="-4,4 -4,-35 485,-35 485,4 -4,4"/>
<!-- Node5 -->
<g id="node1" class="node">
<title>Node5</title>
<polygon fill="#bfbfbf" stroke="#000000" points="0,-.5 0,-30.5 153,-30.5 153,-.5 0,-.5"/>
<text text-anchor="start" x="8" y="-18.5" font-family="Helvetica,sans-Serif" font-size="10.00" fill="#000000">FloLayoutElementGeometry</text>
<text text-anchor="middle" x="76.5" y="-7.5" font-family="Helvetica,sans-Serif" font-size="10.00" fill="#000000">::Draw</text>
</g>
<!-- Node6 -->
<g id="node2" class="node">
<title>Node6</title>
<g id="a_node2"><a xlink:href="classVideoIO.html#a50e4ccae99e278ed7d65d9db86f18c92" target="_top" xlink:title="VideoIO::video_event_loop">
<polygon fill="#ffffff" stroke="#000000" points="189,-6 189,-25 336,-25 336,-6 189,-6"/>
<text text-anchor="middle" x="262.5" y="-13" font-family="Helvetica,sans-Serif" font-size="10.00" fill="#000000">VideoIO::video_event_loop</text>
</a>
</g>
</g>
<!-- Node5&#45;&gt;Node6 -->
<g id="edge1" class="edge">
<title>Node5&#45;&gt;Node6</title>
<path fill="none" stroke="#191970" d="M163.2585,-15.5C171.8466,-15.5 180.506,-15.5 188.942,-15.5"/>
<polygon fill="#191970" stroke="#191970" points="163.2272,-12.0001 153.2272,-15.5 163.2271,-19.0001 163.2272,-12.0001"/>
</g>
<!-- Node7 -->
<g id="node3" class="node">
<title>Node7</title>
<g id="a_node3"><a xlink:href="classVideoIO.html#adb25c81a2bfe792fd4f64e23a4e21176" target="_top" xlink:title="VideoIO::run_video\l_thread">
<polygon fill="#ffffff" stroke="#000000" points="372,-.5 372,-30.5 481,-30.5 481,-.5 372,-.5"/>
<text text-anchor="start" x="380" y="-18.5" font-family="Helvetica,sans-Serif" font-size="10.00" fill="#000000">VideoIO::run_video</text>
<text text-anchor="middle" x="426.5" y="-7.5" font-family="Helvetica,sans-Serif" font-size="10.00" fill="#000000">_thread</text>
</a>
</g>
</g>
<!-- Node6&#45;&gt;Node7 -->
<g id="edge2" class="edge">
<title>Node6&#45;&gt;Node7</title>
<path fill="none" stroke="#191970" d="M346.4193,-15.5C355.0101,-15.5 363.5729,-15.5 371.7301,-15.5"/>
<polygon fill="#191970" stroke="#191970" points="346.3441,-12.0001 336.344,-15.5 346.344,-19.0001 346.3441,-12.0001"/>
</g>
</g>
</svg>
