<?xml version="1.0" encoding="UTF-8" standalone="no"?>
<!DOCTYPE svg PUBLIC "-//W3C//DTD SVG 1.1//EN"
 "http://www.w3.org/Graphics/SVG/1.1/DTD/svg11.dtd">
<!-- Generated by graphviz version 2.40.1 (20161225.0304)
 -->
<!-- Title: AudioBlockIterator::GetFragment Pages: 1 -->
<svg width="652pt" height="230pt"
 viewBox="0.00 0.00 652.00 229.50" xmlns="http://www.w3.org/2000/svg" xmlns:xlink="http://www.w3.org/1999/xlink">
<g id="graph0" class="graph" transform="scale(1 1) rotate(0) translate(4 225.5)">
<title>AudioBlockIterator::GetFragment</title>
<polygon fill="#ffffff" stroke="transparent" points="-4,4 -4,-225.5 648,-225.5 648,4 -4,4"/>
<!-- Node36 -->
<g id="node1" class="node">
<title>Node36</title>
<polygon fill="#bfbfbf" stroke="#000000" points="0,-71 0,-101 107,-101 107,-71 0,-71"/>
<text text-anchor="start" x="8" y="-89" font-family="Helvetica,sans-Serif" font-size="10.00" fill="#000000">AudioBlockIterator</text>
<text text-anchor="middle" x="53.5" y="-78" font-family="Helvetica,sans-Serif" font-size="10.00" fill="#000000">::GetFragment</text>
</g>
<!-- Node37 -->
<g id="node2" class="node">
<title>Node37</title>
<g id="a_node2"><a xlink:href="classBlockWriteManager.html#a0b50330873c237f482c48aa06a4b1a9a" target="_top" xlink:title="BlockWriteManager::\lManage">
<polygon fill="#ffffff" stroke="#000000" points="309.5,-191 309.5,-221 426.5,-221 426.5,-191 309.5,-191"/>
<text text-anchor="start" x="317.5" y="-209" font-family="Helvetica,sans-Serif" font-size="10.00" fill="#000000">BlockWriteManager::</text>
<text text-anchor="middle" x="368" y="-198" font-family="Helvetica,sans-Serif" font-size="10.00" fill="#000000">Manage</text>
</a>
</g>
</g>
<!-- Node36&#45;&gt;Node37 -->
<g id="edge1" class="edge">
<title>Node36&#45;&gt;Node37</title>
<path fill="none" stroke="#191970" d="M76.3252,-108.1517C93.3824,-123.5029 117.9802,-143.2261 143,-155 196.2745,-180.07 262.5552,-193.1648 309.3392,-199.7708"/>
<polygon fill="#191970" stroke="#191970" points="78.3138,-105.2246 68.5887,-101.0208 73.5697,-110.3718 78.3138,-105.2246"/>
</g>
<!-- Node38 -->
<g id="node3" class="node">
<title>Node38</title>
<g id="a_node3"><a xlink:href="classAudioBlockIterator.html#ae0521dee0479a9203bed6515bfc89568" target="_top" xlink:title="AudioBlockIterator\l::NextFragment">
<polygon fill="#ffffff" stroke="#000000" points="143,-115 143,-145 250,-145 250,-115 143,-115"/>
<text text-anchor="start" x="151" y="-133" font-family="Helvetica,sans-Serif" font-size="10.00" fill="#000000">AudioBlockIterator</text>
<text text-anchor="middle" x="196.5" y="-122" font-family="Helvetica,sans-Serif" font-size="10.00" fill="#000000">::NextFragment</text>
</a>
</g>
</g>
<!-- Node36&#45;&gt;Node38 -->
<g id="edge2" class="edge">
<title>Node36&#45;&gt;Node38</title>
<path fill="none" stroke="#191970" d="M112.042,-104.0129C123.7947,-107.6292 136.0307,-111.3941 147.422,-114.8991"/>
<polygon fill="#191970" stroke="#191970" points="112.8996,-100.6149 102.3125,-101.0192 110.841,-107.3054 112.8996,-100.6149"/>
</g>
<!-- Node41 -->
<g id="node6" class="node">
<title>Node41</title>
<g id="a_node6"><a xlink:href="classLoopManager.html#a306ffe72c9623e33cad280ec3609c359" target="_top" xlink:title="LoopManager::SetupSaveLoop">
<polygon fill="#ffffff" stroke="#000000" points="286.5,-76.5 286.5,-95.5 449.5,-95.5 449.5,-76.5 286.5,-76.5"/>
<text text-anchor="middle" x="368" y="-83.5" font-family="Helvetica,sans-Serif" font-size="10.00" fill="#000000">LoopManager::SetupSaveLoop</text>
</a>
</g>
</g>
<!-- Node36&#45;&gt;Node41 -->
<g id="edge10" class="edge">
<title>Node36&#45;&gt;Node41</title>
<path fill="none" stroke="#191970" d="M117.3209,-86C166.1128,-86 233.7325,-86 286.4471,-86"/>
<polygon fill="#191970" stroke="#191970" points="117.2072,-82.5001 107.2071,-86 117.2071,-89.5001 117.2072,-82.5001"/>
</g>
<!-- Node43 -->
<g id="node8" class="node">
<title>Node43</title>
<g id="a_node8"><a xlink:href="classRecordProcessor.html#ad36d69ec9d41b424eb2e6c5fa2e0cf3a" target="_top" xlink:title="RecordProcessor::process">
<polygon fill="#ffffff" stroke="#000000" points="298,-38.5 298,-57.5 438,-57.5 438,-38.5 298,-38.5"/>
<text text-anchor="middle" x="368" y="-45.5" font-family="Helvetica,sans-Serif" font-size="10.00" fill="#000000">RecordProcessor::process</text>
</a>
</g>
</g>
<!-- Node36&#45;&gt;Node43 -->
<g id="edge11" class="edge">
<title>Node36&#45;&gt;Node43</title>
<path fill="none" stroke="#191970" d="M117.3897,-78.2804C169.8109,-71.9465 243.931,-62.9909 297.9612,-56.4626"/>
<polygon fill="#191970" stroke="#191970" points="116.7151,-74.8364 107.2071,-79.5107 117.5548,-81.7858 116.7151,-74.8364"/>
</g>
<!-- Node44 -->
<g id="node9" class="node">
<title>Node44</title>
<g id="a_node9"><a xlink:href="classPlayProcessor.html#a46bc1b738f48261e0c430f7345f4d99f" target="_top" xlink:title="PlayProcessor::process">
<polygon fill="#ffffff" stroke="#000000" points="304,-.5 304,-19.5 432,-19.5 432,-.5 304,-.5"/>
<text text-anchor="middle" x="368" y="-7.5" font-family="Helvetica,sans-Serif" font-size="10.00" fill="#000000">PlayProcessor::process</text>
</a>
</g>
</g>
<!-- Node36&#45;&gt;Node44 -->
<g id="edge12" class="edge">
<title>Node36&#45;&gt;Node44</title>
<path fill="none" stroke="#191970" d="M108.5744,-67.8873C119.9039,-64.4106 131.7947,-60.9412 143,-58 202.1082,-42.4851 270.9321,-28.3701 316.7453,-19.5235"/>
<polygon fill="#191970" stroke="#191970" points="107.302,-64.6177 98.794,-70.9314 109.3823,-71.3014 107.302,-64.6177"/>
</g>
<!-- Node38&#45;&gt;Node37 -->
<g id="edge5" class="edge">
<title>Node38&#45;&gt;Node37</title>
<path fill="none" stroke="#191970" d="M228.4808,-150.5307C245.166,-160.6406 266.1841,-172.4595 286,-181 294.474,-184.6522 303.653,-188.0017 312.6986,-190.981"/>
<polygon fill="#191970" stroke="#191970" points="230.0429,-147.3824 219.6921,-145.1216 226.3739,-153.3438 230.0429,-147.3824"/>
</g>
<!-- Node39 -->
<g id="node4" class="node">
<title>Node39</title>
<g id="a_node4"><a xlink:href="classSndFileDecoder.html#a6f533159127e8f633a12c6fe3f86b4a2" target="_top" xlink:title="SndFileDecoder::ReadSamples">
<polygon fill="#ffffff" stroke="#000000" points="286,-152.5 286,-171.5 450,-171.5 450,-152.5 286,-152.5"/>
<text text-anchor="middle" x="368" y="-159.5" font-family="Helvetica,sans-Serif" font-size="10.00" fill="#000000">SndFileDecoder::ReadSamples</text>
</a>
</g>
</g>
<!-- Node38&#45;&gt;Node39 -->
<g id="edge3" class="edge">
<title>Node38&#45;&gt;Node39</title>
<path fill="none" stroke="#191970" d="M260.2268,-141.8907C278.9634,-145.3868 299.2047,-149.1636 317.0313,-152.4898"/>
<polygon fill="#191970" stroke="#191970" points="260.7655,-138.4309 250.2931,-140.0372 259.4815,-145.3121 260.7655,-138.4309"/>
</g>
<!-- Node40 -->
<g id="node5" class="node">
<title>Node40</title>
<g id="a_node5"><a xlink:href="classVorbisDecoder.html#a605d498b0a32990607910576964da546" target="_top" xlink:title="VorbisDecoder::ReadSamples">
<polygon fill="#ffffff" stroke="#000000" points="288.5,-114.5 288.5,-133.5 447.5,-133.5 447.5,-114.5 288.5,-114.5"/>
<text text-anchor="middle" x="368" y="-121.5" font-family="Helvetica,sans-Serif" font-size="10.00" fill="#000000">VorbisDecoder::ReadSamples</text>
</a>
</g>
</g>
<!-- Node38&#45;&gt;Node40 -->
<g id="edge4" class="edge">
<title>Node38&#45;&gt;Node40</title>
<path fill="none" stroke="#191970" d="M260.4023,-127.7644C269.51,-127.4457 278.9699,-127.1148 288.3327,-126.7872"/>
<polygon fill="#191970" stroke="#191970" points="260.1646,-124.2704 250.2931,-128.118 260.4094,-131.2661 260.1646,-124.2704"/>
</g>
<!-- Node38&#45;&gt;Node41 -->
<g id="edge6" class="edge">
<title>Node38&#45;&gt;Node41</title>
<path fill="none" stroke="#191970" d="M258.7325,-112.2312C267.86,-109.7372 277.161,-107.2573 286,-105 298.743,-101.7457 312.6609,-98.4312 325.3527,-95.5011"/>
<polygon fill="#191970" stroke="#191970" points="257.6373,-108.9024 248.9262,-114.933 259.4967,-115.651 257.6373,-108.9024"/>
</g>
<!-- Node38&#45;&gt;Node43 -->
<g id="edge8" class="edge">
<title>Node38&#45;&gt;Node43</title>
<path fill="none" stroke="#191970" d="M221.5922,-108.3371C238.7008,-94.6155 262.4471,-77.5327 286,-67 294.5377,-63.182 303.9315,-60.0855 313.2198,-57.5884"/>
<polygon fill="#191970" stroke="#191970" points="219.2717,-105.7136 213.7565,-114.7597 223.7092,-111.1273 219.2717,-105.7136"/>
</g>
<!-- Node38&#45;&gt;Node44 -->
<g id="edge9" class="edge">
<title>Node38&#45;&gt;Node44</title>
<path fill="none" stroke="#191970" d="M211.2894,-106.0365C226.9484,-82.7365 253.8269,-48.1411 286,-29 292.5305,-25.1147 299.7913,-22.0239 307.2163,-19.5651"/>
<polygon fill="#191970" stroke="#191970" points="208.198,-104.3692 205.6605,-114.6557 214.0589,-108.1968 208.198,-104.3692"/>
</g>
<!-- Node42 -->
<g id="node7" class="node">
<title>Node42</title>
<g id="a_node7"><a xlink:href="classLoopManager.html#a00143be12c150c0a89c4f99c1e8d5e70" target="_top" xlink:title="LoopManager::GetWriteBlock">
<polygon fill="#ffffff" stroke="#000000" points="486,-76.5 486,-95.5 644,-95.5 644,-76.5 486,-76.5"/>
<text text-anchor="middle" x="565" y="-83.5" font-family="Helvetica,sans-Serif" font-size="10.00" fill="#000000">LoopManager::GetWriteBlock</text>
</a>
</g>
</g>
<!-- Node41&#45;&gt;Node42 -->
<g id="edge7" class="edge">
<title>Node41&#45;&gt;Node42</title>
<path fill="none" stroke="#191970" d="M459.707,-86C468.4014,-86 477.1667,-86 485.7302,-86"/>
<polygon fill="#191970" stroke="#191970" points="459.5495,-82.5001 449.5495,-86 459.5494,-89.5001 459.5495,-82.5001"/>
</g>
</g>
</svg>
