<?xml version="1.0" encoding="UTF-8" standalone="no"?>
<!DOCTYPE svg PUBLIC "-//W3C//DTD SVG 1.1//EN"
 "http://www.w3.org/Graphics/SVG/1.1/DTD/svg11.dtd">
<!-- Generated by graphviz version 2.40.1 (20161225.0304)
 -->
<!-- Title: BlockReadManager::End Pages: 1 -->
<svg width="529pt" height="154pt"
 viewBox="0.00 0.00 529.00 153.50" xmlns="http://www.w3.org/2000/svg" xmlns:xlink="http://www.w3.org/1999/xlink">
<g id="graph0" class="graph" transform="scale(1 1) rotate(0) translate(4 149.5)">
<title>BlockReadManager::End</title>
<polygon fill="#ffffff" stroke="transparent" points="-4,4 -4,-149.5 525,-149.5 525,4 -4,4"/>
<!-- Node38 -->
<g id="node1" class="node">
<title>Node38</title>
<polygon fill="#bfbfbf" stroke="#000000" points="0,-57.5 0,-76.5 134,-76.5 134,-57.5 0,-57.5"/>
<text text-anchor="middle" x="67" y="-64.5" font-family="Helvetica,sans-Serif" font-size="10.00" fill="#000000">BlockReadManager::End</text>
</g>
<!-- Node39 -->
<g id="node2" class="node">
<title>Node39</title>
<g id="a_node2"><a xlink:href="classBlockReadManager.html#a935aa663d9fa5b6d346f77c7b3882e2b" target="_top" xlink:title="BlockReadManager::\l~BlockReadManager">
<polygon fill="#ffffff" stroke="#000000" points="191.5,-115 191.5,-145 309.5,-145 309.5,-115 191.5,-115"/>
<text text-anchor="start" x="199.5" y="-133" font-family="Helvetica,sans-Serif" font-size="10.00" fill="#000000">BlockReadManager::</text>
<text text-anchor="middle" x="250.5" y="-122" font-family="Helvetica,sans-Serif" font-size="10.00" fill="#000000">~BlockReadManager</text>
</a>
</g>
</g>
<!-- Node38&#45;&gt;Node39 -->
<g id="edge1" class="edge">
<title>Node38&#45;&gt;Node39</title>
<path fill="none" stroke="#191970" d="M101.4244,-80.2126C121.3633,-87.7366 146.9946,-97.19 170,-105 179.8387,-108.3401 190.4121,-111.7505 200.5557,-114.9353"/>
<polygon fill="#191970" stroke="#191970" points="102.4372,-76.8535 91.8459,-76.5815 99.9559,-83.399 102.4372,-76.8535"/>
</g>
<!-- Node40 -->
<g id="node3" class="node">
<title>Node40</title>
<g id="a_node3"><a xlink:href="classBlockReadManager.html#af12804c61f944904eedf8c9edf5cd3bd" target="_top" xlink:title="BlockReadManager::Start">
<polygon fill="#ffffff" stroke="#000000" points="181,-76.5 181,-95.5 320,-95.5 320,-76.5 181,-76.5"/>
<text text-anchor="middle" x="250.5" y="-83.5" font-family="Helvetica,sans-Serif" font-size="10.00" fill="#000000">BlockReadManager::Start</text>
</a>
</g>
</g>
<!-- Node38&#45;&gt;Node40 -->
<g id="edge2" class="edge">
<title>Node38&#45;&gt;Node40</title>
<path fill="none" stroke="#191970" d="M144.1595,-74.9893C156.3444,-76.2509 168.8817,-77.5491 180.8817,-78.7916"/>
<polygon fill="#191970" stroke="#191970" points="144.334,-71.4887 134.0266,-73.9401 143.613,-78.4515 144.334,-71.4887"/>
</g>
<!-- Node41 -->
<g id="node4" class="node">
<title>Node41</title>
<g id="a_node4"><a xlink:href="classBlockReadManager.html#aa990976dec4a3ec5bd6384b54ce5f09b" target="_top" xlink:title="BlockReadManager::Manage">
<polygon fill="#ffffff" stroke="#000000" points="367,-57.5 367,-76.5 521,-76.5 521,-57.5 367,-57.5"/>
<text text-anchor="middle" x="444" y="-64.5" font-family="Helvetica,sans-Serif" font-size="10.00" fill="#000000">BlockReadManager::Manage</text>
</a>
</g>
</g>
<!-- Node38&#45;&gt;Node41 -->
<g id="edge4" class="edge">
<title>Node38&#45;&gt;Node41</title>
<path fill="none" stroke="#191970" d="M144.589,-67C209.5872,-67 301.8911,-67 366.7845,-67"/>
<polygon fill="#191970" stroke="#191970" points="144.4001,-63.5001 134.4,-67 144.4,-70.5001 144.4001,-63.5001"/>
</g>
<!-- Node42 -->
<g id="node5" class="node">
<title>Node42</title>
<g id="a_node5"><a xlink:href="classLoopManager.html#aadca58536e41c8b0b8fd148ac40b23c0" target="_top" xlink:title="LoopManager::~LoopManager">
<polygon fill="#ffffff" stroke="#000000" points="170,-.5 170,-19.5 331,-19.5 331,-.5 170,-.5"/>
<text text-anchor="middle" x="250.5" y="-7.5" font-family="Helvetica,sans-Serif" font-size="10.00" fill="#000000">LoopManager::~LoopManager</text>
</a>
</g>
</g>
<!-- Node38&#45;&gt;Node42 -->
<g id="edge5" class="edge">
<title>Node38&#45;&gt;Node42</title>
<path fill="none" stroke="#191970" d="M105.8898,-54.3347C125.1477,-48.1153 148.7659,-40.5662 170,-34 185.7439,-29.1315 203.2735,-23.8849 217.9448,-19.5425"/>
<polygon fill="#191970" stroke="#191970" points="104.6888,-51.0445 96.2523,-57.4535 106.8441,-57.7045 104.6888,-51.0445"/>
</g>
<!-- Node40&#45;&gt;Node41 -->
<g id="edge3" class="edge">
<title>Node40&#45;&gt;Node41</title>
<path fill="none" stroke="#191970" d="M330.1609,-78.178C342.2806,-76.9879 354.7699,-75.7616 366.8351,-74.5769"/>
<polygon fill="#191970" stroke="#191970" points="329.6946,-74.7069 320.0846,-79.1674 330.3788,-81.6734 329.6946,-74.7069"/>
</g>
</g>
</svg>
