<?xml version="1.0" encoding="UTF-8" standalone="no"?>
<!DOCTYPE svg PUBLIC "-//W3C//DTD SVG 1.1//EN"
 "http://www.w3.org/Graphics/SVG/1.1/DTD/svg11.dtd">
<!-- Generated by graphviz version 2.40.1 (20161225.0304)
 -->
<!-- Title: Browser::ClearAllItems Pages: 1 -->
<svg width="357pt" height="66pt"
 viewBox="0.00 0.00 357.00 66.00" xmlns="http://www.w3.org/2000/svg" xmlns:xlink="http://www.w3.org/1999/xlink">
<g id="graph0" class="graph" transform="scale(1 1) rotate(0) translate(4 62)">
<title>Browser::ClearAllItems</title>
<polygon fill="#ffffff" stroke="transparent" points="-4,4 -4,-62 353,-62 353,4 -4,4"/>
<!-- Node25 -->
<g id="node1" class="node">
<title>Node25</title>
<polygon fill="#bfbfbf" stroke="#000000" points="0,-19.5 0,-38.5 128,-38.5 128,-19.5 0,-19.5"/>
<text text-anchor="middle" x="64" y="-26.5" font-family="Helvetica,sans-Serif" font-size="10.00" fill="#000000">Browser::ClearAllItems</text>
</g>
<!-- Node26 -->
<g id="node2" class="node">
<title>Node26</title>
<g id="a_node2"><a xlink:href="classLoopManager.html#a860dd45d2721ff2c9912e53bb1486722" target="_top" xlink:title="LoopManager::SetupLoopBrowser">
<polygon fill="#ffffff" stroke="#000000" points="167,-38.5 167,-57.5 346,-57.5 346,-38.5 167,-38.5"/>
<text text-anchor="middle" x="256.5" y="-45.5" font-family="Helvetica,sans-Serif" font-size="10.00" fill="#000000">LoopManager::SetupLoopBrowser</text>
</a>
</g>
</g>
<!-- Node25&#45;&gt;Node26 -->
<g id="edge1" class="edge">
<title>Node25&#45;&gt;Node26</title>
<path fill="none" stroke="#191970" d="M138.1892,-36.3226C147.6122,-37.2526 157.3333,-38.2121 166.9643,-39.1627"/>
<polygon fill="#191970" stroke="#191970" points="138.3952,-32.826 128.0997,-35.3267 137.7075,-39.7921 138.3952,-32.826"/>
</g>
<!-- Node27 -->
<g id="node3" class="node">
<title>Node27</title>
<g id="a_node3"><a xlink:href="classLoopManager.html#ad1c61813e7c16f4b973a3087413eed84" target="_top" xlink:title="LoopManager::SetupSceneBrowser">
<polygon fill="#ffffff" stroke="#000000" points="164,-.5 164,-19.5 349,-19.5 349,-.5 164,-.5"/>
<text text-anchor="middle" x="256.5" y="-7.5" font-family="Helvetica,sans-Serif" font-size="10.00" fill="#000000">LoopManager::SetupSceneBrowser</text>
</a>
</g>
</g>
<!-- Node25&#45;&gt;Node27 -->
<g id="edge2" class="edge">
<title>Node25&#45;&gt;Node27</title>
<path fill="none" stroke="#191970" d="M138.213,-21.6751C146.6154,-20.8457 155.2547,-19.993 163.8555,-19.1441"/>
<polygon fill="#191970" stroke="#191970" points="137.7075,-18.2079 128.0997,-22.6733 138.3952,-25.174 137.7075,-18.2079"/>
</g>
</g>
</svg>
