<?xml version="1.0" encoding="UTF-8" standalone="no"?>
<!DOCTYPE svg PUBLIC "-//W3C//DTD SVG 1.1//EN"
 "http://www.w3.org/Graphics/SVG/1.1/DTD/svg11.dtd">
<!-- Generated by graphviz version 2.40.1 (20161225.0304)
 -->
<!-- Title: Fweelin::getRP Pages: 1 -->
<svg width="908pt" height="753pt"
 viewBox="0.00 0.00 908.00 753.00" xmlns="http://www.w3.org/2000/svg" xmlns:xlink="http://www.w3.org/1999/xlink">
<g id="graph0" class="graph" transform="scale(1 1) rotate(0) translate(4 748.9989)">
<title>Fweelin::getRP</title>
<polygon fill="#ffffff" stroke="transparent" points="-4,4 -4,-748.9989 904,-748.9989 904,4 -4,4"/>
<!-- Node395 -->
<g id="node1" class="node">
<title>Node395</title>
<polygon fill="#bfbfbf" stroke="#000000" points="0,-373.5 0,-392.5 89,-392.5 89,-373.5 0,-373.5"/>
<text text-anchor="middle" x="44.5" y="-380.5" font-family="Helvetica,sans-Serif" font-size="10.00" fill="#000000">Fweelin::getRP</text>
</g>
<!-- Node396 -->
<g id="node2" class="node">
<title>Node396</title>
<g id="a_node2"><a xlink:href="classLoopManager.html#aea540a972ff4cba15544e2af9ed33ff6" target="_top" xlink:title="LoopManager::AdjustOutput\lVolume">
<polygon fill="#ffffff" stroke="#000000" points="547.5,-665 547.5,-695 699.5,-695 699.5,-665 547.5,-665"/>
<text text-anchor="start" x="555.5" y="-683" font-family="Helvetica,sans-Serif" font-size="10.00" fill="#000000">LoopManager::AdjustOutput</text>
<text text-anchor="middle" x="623.5" y="-672" font-family="Helvetica,sans-Serif" font-size="10.00" fill="#000000">Volume</text>
</a>
</g>
</g>
<!-- Node395&#45;&gt;Node396 -->
<g id="edge1" class="edge">
<title>Node395&#45;&gt;Node396</title>
<path fill="none" stroke="#191970" d="M47.9267,-402.5651C57.7709,-456.4047 87.8244,-604.7685 125,-635 187.8678,-686.1247 423.7067,-686.6422 547.1262,-683.1551"/>
<polygon fill="#191970" stroke="#191970" points="51.3477,-401.8128 46.1375,-392.5876 44.4576,-403.0484 51.3477,-401.8128"/>
</g>
<!-- Node397 -->
<g id="node3" class="node">
<title>Node397</title>
<g id="a_node3"><a xlink:href="classLoopManager.html#a4aada2d07b7ce0a67a8119ece4805966" target="_top" xlink:title="LoopManager::ReceiveEvent">
<polygon fill="#ffffff" stroke="#000000" points="746,-512.5 746,-531.5 900,-531.5 900,-512.5 746,-512.5"/>
<text text-anchor="middle" x="823" y="-519.5" font-family="Helvetica,sans-Serif" font-size="10.00" fill="#000000">LoopManager::ReceiveEvent</text>
</a>
</g>
</g>
<!-- Node395&#45;&gt;Node397 -->
<g id="edge28" class="edge">
<title>Node395&#45;&gt;Node397</title>
<path fill="none" stroke="#191970" d="M47.2007,-402.8462C55.6501,-461.8573 83.5161,-634.3455 125,-670 223.7659,-754.887 596.2647,-768.4411 710,-705 780.1109,-665.8924 812.1605,-563.3966 820.6281,-531.569"/>
<polygon fill="#191970" stroke="#191970" points="50.6234,-402.0497 45.7714,-392.6312 43.6909,-403.0198 50.6234,-402.0497"/>
</g>
<!-- Node398 -->
<g id="node4" class="node">
<title>Node398</title>
<g id="a_node4"><a xlink:href="classLoopManager.html#a82f420b74ebb790061772cb2ea23d83d" target="_top" xlink:title="LoopManager::SetOutputVolume">
<polygon fill="#ffffff" stroke="#000000" points="537,-626.5 537,-645.5 710,-645.5 710,-626.5 537,-626.5"/>
<text text-anchor="middle" x="623.5" y="-633.5" font-family="Helvetica,sans-Serif" font-size="10.00" fill="#000000">LoopManager::SetOutputVolume</text>
</a>
</g>
</g>
<!-- Node395&#45;&gt;Node398 -->
<g id="edge3" class="edge">
<title>Node395&#45;&gt;Node398</title>
<path fill="none" stroke="#191970" d="M48.8348,-402.7178C60.0779,-451.9287 91.6339,-577.9984 125,-603 187.9033,-650.1342 411.6202,-647.0677 536.9042,-641.2583"/>
<polygon fill="#191970" stroke="#191970" points="52.1915,-401.6915 46.5859,-392.7011 45.3616,-403.2249 52.1915,-401.6915"/>
</g>
<!-- Node399 -->
<g id="node5" class="node">
<title>Node399</title>
<g id="a_node5"><a xlink:href="classLoopManager.html#a8f64a19e15059db80af9cd9f1fa0c05b" target="_top" xlink:title="LoopManager::GetOutputVolume">
<polygon fill="#ffffff" stroke="#000000" points="125,-544.5 125,-563.5 300,-563.5 300,-544.5 125,-544.5"/>
<text text-anchor="middle" x="212.5" y="-551.5" font-family="Helvetica,sans-Serif" font-size="10.00" fill="#000000">LoopManager::GetOutputVolume</text>
</a>
</g>
</g>
<!-- Node395&#45;&gt;Node399 -->
<g id="edge5" class="edge">
<title>Node395&#45;&gt;Node399</title>
<path fill="none" stroke="#191970" d="M49.7307,-402.4038C59.2671,-434.0076 82.5228,-496.4341 125,-530 133.0334,-536.3481 142.6283,-541.0198 152.4739,-544.4571"/>
<polygon fill="#191970" stroke="#191970" points="53.0426,-401.2555 46.9207,-392.6084 46.314,-403.1858 53.0426,-401.2555"/>
</g>
<!-- Node400 -->
<g id="node6" class="node">
<title>Node400</title>
<g id="a_node6"><a xlink:href="classLoopManager.html#a861cdd2ace9aeb53b4ecf92728215265" target="_top" xlink:title="LoopManager::Deactivate">
<polygon fill="#ffffff" stroke="#000000" points="348,-566.5 348,-585.5 489,-585.5 489,-566.5 348,-566.5"/>
<text text-anchor="middle" x="418.5" y="-573.5" font-family="Helvetica,sans-Serif" font-size="10.00" fill="#000000">LoopManager::Deactivate</text>
</a>
</g>
</g>
<!-- Node395&#45;&gt;Node400 -->
<g id="edge27" class="edge">
<title>Node395&#45;&gt;Node400</title>
<path fill="none" stroke="#191970" d="M46.072,-402.9158C50.4482,-443.2142 66.6288,-533.9061 125,-573 206.5025,-627.5859 331.3876,-601.776 388.3277,-585.6134"/>
<polygon fill="#191970" stroke="#191970" points="49.5376,-402.386 45.1086,-392.7613 42.5689,-403.0472 49.5376,-402.386"/>
</g>
<!-- Node402 -->
<g id="node8" class="node">
<title>Node402</title>
<g id="a_node8"><a xlink:href="classLoopManager.html#a3a31dbd91e9ad302fc64ea941f0a0165" target="_top" xlink:title="LoopManager::AdjustInput\lVolume">
<polygon fill="#ffffff" stroke="#000000" points="552,-463 552,-493 695,-493 695,-463 552,-463"/>
<text text-anchor="start" x="560" y="-481" font-family="Helvetica,sans-Serif" font-size="10.00" fill="#000000">LoopManager::AdjustInput</text>
<text text-anchor="middle" x="623.5" y="-470" font-family="Helvetica,sans-Serif" font-size="10.00" fill="#000000">Volume</text>
</a>
</g>
</g>
<!-- Node395&#45;&gt;Node402 -->
<g id="edge10" class="edge">
<title>Node395&#45;&gt;Node402</title>
<path fill="none" stroke="#191970" d="M61.9557,-399.9299C77.2388,-413.6094 100.7403,-432.0144 125,-441 269.2464,-494.428 452.7233,-491.6083 551.9547,-484.8177"/>
<polygon fill="#191970" stroke="#191970" points="64.0769,-397.1243 54.358,-392.9061 59.3251,-402.2645 64.0769,-397.1243"/>
</g>
<!-- Node403 -->
<g id="node9" class="node">
<title>Node403</title>
<g id="a_node9"><a xlink:href="classLoopManager.html#ad636c6280f2a5a6bfe45f94946dc3a9f" target="_top" xlink:title="LoopManager::SetInputVolume">
<polygon fill="#ffffff" stroke="#000000" points="336,-430.5 336,-449.5 501,-449.5 501,-430.5 336,-430.5"/>
<text text-anchor="middle" x="418.5" y="-437.5" font-family="Helvetica,sans-Serif" font-size="10.00" fill="#000000">LoopManager::SetInputVolume</text>
</a>
</g>
</g>
<!-- Node395&#45;&gt;Node403 -->
<g id="edge12" class="edge">
<title>Node395&#45;&gt;Node403</title>
<path fill="none" stroke="#191970" d="M72.4608,-396.9509C87.6297,-403.8752 106.9267,-411.6668 125,-416 194.8509,-432.7474 276.4354,-438.341 335.834,-439.9793"/>
<polygon fill="#191970" stroke="#191970" points="73.6821,-393.6577 63.1431,-392.571 70.7042,-399.9927 73.6821,-393.6577"/>
</g>
<!-- Node404 -->
<g id="node10" class="node">
<title>Node404</title>
<g id="a_node10"><a xlink:href="classLoopManager.html#a1ad38984a6127d5a791247545ac79999" target="_top" xlink:title="LoopManager::GetInputVolume">
<polygon fill="#ffffff" stroke="#000000" points="129,-278.5 129,-297.5 296,-297.5 296,-278.5 129,-278.5"/>
<text text-anchor="middle" x="212.5" y="-285.5" font-family="Helvetica,sans-Serif" font-size="10.00" fill="#000000">LoopManager::GetInputVolume</text>
</a>
</g>
</g>
<!-- Node395&#45;&gt;Node404 -->
<g id="edge14" class="edge">
<title>Node395&#45;&gt;Node404</title>
<path fill="none" stroke="#191970" d="M58.0682,-365.5162C72.6719,-347.956 97.5321,-321.4835 125,-307 132.4253,-303.0847 140.6113,-299.9758 148.9068,-297.5073"/>
<polygon fill="#191970" stroke="#191970" points="55.318,-363.3509 51.7565,-373.3292 60.7632,-367.7498 55.318,-363.3509"/>
</g>
<!-- Node405 -->
<g id="node11" class="node">
<title>Node405</title>
<g id="a_node11"><a xlink:href="classLoopManager.html#a705436ae811a121ed3285ab34b144bfe" target="_top" xlink:title="LoopManager::CreatePulse">
<polygon fill="#ffffff" stroke="#000000" points="139.5,-240.5 139.5,-259.5 285.5,-259.5 285.5,-240.5 139.5,-240.5"/>
<text text-anchor="middle" x="212.5" y="-247.5" font-family="Helvetica,sans-Serif" font-size="10.00" fill="#000000">LoopManager::CreatePulse</text>
</a>
</g>
</g>
<!-- Node395&#45;&gt;Node405 -->
<g id="edge15" class="edge">
<title>Node395&#45;&gt;Node405</title>
<path fill="none" stroke="#191970" d="M52.6202,-363.7472C64.5446,-337.9357 89.3125,-292.6317 125,-269 130.8324,-265.1379 137.3181,-262.0464 144.047,-259.5741"/>
<polygon fill="#191970" stroke="#191970" points="49.2834,-362.638 48.4279,-373.1982 55.6821,-365.4764 49.2834,-362.638"/>
</g>
<!-- Node406 -->
<g id="node12" class="node">
<title>Node406</title>
<g id="a_node12"><a xlink:href="classLoopManager.html#a67c6f44d33880b35c875a8e6ea8babac" target="_top" xlink:title="LoopManager::TapPulse">
<polygon fill="#ffffff" stroke="#000000" points="558,-386.5 558,-405.5 689,-405.5 689,-386.5 558,-386.5"/>
<text text-anchor="middle" x="623.5" y="-393.5" font-family="Helvetica,sans-Serif" font-size="10.00" fill="#000000">LoopManager::TapPulse</text>
</a>
</g>
</g>
<!-- Node395&#45;&gt;Node406 -->
<g id="edge16" class="edge">
<title>Node395&#45;&gt;Node406</title>
<path fill="none" stroke="#191970" d="M99.2094,-384.3797C107.8391,-384.5914 116.6623,-384.8044 125,-385 280.1273,-388.6386 462.4171,-392.5747 557.7765,-394.6078"/>
<polygon fill="#191970" stroke="#191970" points="99.2917,-380.8807 89.2083,-384.1328 99.1189,-387.8786 99.2917,-380.8807"/>
</g>
<!-- Node407 -->
<g id="node13" class="node">
<title>Node407</title>
<g id="a_node13"><a xlink:href="classLoopManager.html#a8efb4c8acabceb10faa8660c14c89d71" target="_top" xlink:title="LoopManager::DeletePulse">
<polygon fill="#ffffff" stroke="#000000" points="345.5,-348.5 345.5,-367.5 491.5,-367.5 491.5,-348.5 345.5,-348.5"/>
<text text-anchor="middle" x="418.5" y="-355.5" font-family="Helvetica,sans-Serif" font-size="10.00" fill="#000000">LoopManager::DeletePulse</text>
</a>
</g>
</g>
<!-- Node395&#45;&gt;Node407 -->
<g id="edge18" class="edge">
<title>Node395&#45;&gt;Node407</title>
<path fill="none" stroke="#191970" d="M99.3007,-379.3368C164.3933,-374.9857 273.2276,-367.7107 345.436,-362.884"/>
<polygon fill="#191970" stroke="#191970" points="98.9859,-375.85 89.2417,-380.0092 99.4529,-382.8344 98.9859,-375.85"/>
</g>
<!-- Node408 -->
<g id="node14" class="node">
<title>Node408</title>
<g id="a_node14"><a xlink:href="classLoopManager.html#a332a9868980750f28fbf0e05b2336174" target="_top" xlink:title="LoopManager::DeleteLoop">
<polygon fill="#ffffff" stroke="#000000" points="141,-316.5 141,-335.5 284,-335.5 284,-316.5 141,-316.5"/>
<text text-anchor="middle" x="212.5" y="-323.5" font-family="Helvetica,sans-Serif" font-size="10.00" fill="#000000">LoopManager::DeleteLoop</text>
</a>
</g>
</g>
<!-- Node395&#45;&gt;Node408 -->
<g id="edge20" class="edge">
<title>Node395&#45;&gt;Node408</title>
<path fill="none" stroke="#191970" d="M75.0145,-369.4685C89.9248,-363.1205 108.2285,-355.7142 125,-350 140.805,-344.6151 158.5232,-339.5748 173.8604,-335.517"/>
<polygon fill="#191970" stroke="#191970" points="73.5546,-366.2865 65.7566,-373.4588 76.3253,-372.7148 73.5546,-366.2865"/>
</g>
<!-- Node410 -->
<g id="node16" class="node">
<title>Node410</title>
<g id="a_node16"><a xlink:href="classLoopManager.html#add3b21cda3c0eddecabf19d24c610cdc" target="_top" xlink:title="LoopManager::Activate">
<polygon fill="#ffffff" stroke="#000000" points="354.5,-512.5 354.5,-531.5 482.5,-531.5 482.5,-512.5 354.5,-512.5"/>
<text text-anchor="middle" x="418.5" y="-519.5" font-family="Helvetica,sans-Serif" font-size="10.00" fill="#000000">LoopManager::Activate</text>
</a>
</g>
</g>
<!-- Node395&#45;&gt;Node410 -->
<g id="edge24" class="edge">
<title>Node395&#45;&gt;Node410</title>
<path fill="none" stroke="#191970" d="M52.5009,-401.9869C64.2879,-427.3323 88.8984,-471.4126 125,-492 195.7455,-532.3436 291.8316,-534.1456 354.49,-529.7191"/>
<polygon fill="#191970" stroke="#191970" points="55.6262,-400.4012 48.3626,-392.6882 49.2309,-403.2474 55.6262,-400.4012"/>
</g>
<!-- Node411 -->
<g id="node17" class="node">
<title>Node411</title>
<g id="a_node17"><a xlink:href="classFileStreamer.html#ac88e06227e5c2075c8e669e7637af147" target="_top" xlink:title="FileStreamer::ReceiveEvent">
<polygon fill="#ffffff" stroke="#000000" points="137.5,-202.5 137.5,-221.5 287.5,-221.5 287.5,-202.5 137.5,-202.5"/>
<text text-anchor="middle" x="212.5" y="-209.5" font-family="Helvetica,sans-Serif" font-size="10.00" fill="#000000">FileStreamer::ReceiveEvent</text>
</a>
</g>
</g>
<!-- Node395&#45;&gt;Node411 -->
<g id="edge29" class="edge">
<title>Node395&#45;&gt;Node411</title>
<path fill="none" stroke="#191970" d="M49.0852,-363.5851C57.8757,-330.8356 80.3212,-264.8794 125,-231 130.0785,-227.149 135.7746,-224.0443 141.7604,-221.5454"/>
<polygon fill="#191970" stroke="#191970" points="45.6811,-362.7706 46.6152,-373.3242 52.4662,-364.4915 45.6811,-362.7706"/>
</g>
<!-- Node412 -->
<g id="node18" class="node">
<title>Node412</title>
<g id="a_node18"><a xlink:href="classFileStreamer.html#a89b7803d85f99c20fb0e3722c12b4323" target="_top" xlink:title="FileStreamer::run_encode\l_thread">
<polygon fill="#ffffff" stroke="#000000" points="142.5,-153 142.5,-183 282.5,-183 282.5,-153 142.5,-153"/>
<text text-anchor="start" x="150.5" y="-171" font-family="Helvetica,sans-Serif" font-size="10.00" fill="#000000">FileStreamer::run_encode</text>
<text text-anchor="middle" x="212.5" y="-160" font-family="Helvetica,sans-Serif" font-size="10.00" fill="#000000">_thread</text>
</a>
</g>
</g>
<!-- Node395&#45;&gt;Node412 -->
<g id="edge30" class="edge">
<title>Node395&#45;&gt;Node412</title>
<path fill="none" stroke="#191970" d="M47.1424,-363.5271C53.4005,-325.0973 72.7337,-239.2281 125,-193 130.0887,-188.4992 135.9365,-184.8051 142.145,-181.7736"/>
<polygon fill="#191970" stroke="#191970" points="43.6782,-363.0278 45.6523,-373.4371 50.6004,-364.0687 43.6782,-363.0278"/>
</g>
<!-- Node414 -->
<g id="node20" class="node">
<title>Node414</title>
<g id="a_node20"><a xlink:href="classMidiIO.html#a9f130a6f6732fcdc5c111a5708afb64f" target="_top" xlink:title="MidiIO::EchoEventToPortChannel">
<polygon fill="#ffffff" stroke="#000000" points="125.5,-114.5 125.5,-133.5 299.5,-133.5 299.5,-114.5 125.5,-114.5"/>
<text text-anchor="middle" x="212.5" y="-121.5" font-family="Helvetica,sans-Serif" font-size="10.00" fill="#000000">MidiIO::EchoEventToPortChannel</text>
</a>
</g>
</g>
<!-- Node395&#45;&gt;Node414 -->
<g id="edge32" class="edge">
<title>Node395&#45;&gt;Node414</title>
<path fill="none" stroke="#191970" d="M48.4789,-363.6408C59.4125,-312.2864 91.3456,-174.4413 125,-144 129.7382,-139.7142 135.203,-136.2882 141.0403,-133.5565"/>
<polygon fill="#191970" stroke="#191970" points="45.0443,-362.9664 46.4189,-373.4717 51.8955,-364.4021 45.0443,-362.9664"/>
</g>
<!-- Node417 -->
<g id="node23" class="node">
<title>Node417</title>
<g id="a_node23"><a xlink:href="classMidiIO.html#a690fe0a8460ce500fa09580f3b9de957" target="_top" xlink:title="MidiIO::CheckBypass">
<polygon fill="#ffffff" stroke="#000000" points="153,-76.5 153,-95.5 272,-95.5 272,-76.5 153,-76.5"/>
<text text-anchor="middle" x="212.5" y="-83.5" font-family="Helvetica,sans-Serif" font-size="10.00" fill="#000000">MidiIO::CheckBypass</text>
</a>
</g>
</g>
<!-- Node395&#45;&gt;Node417 -->
<g id="edge35" class="edge">
<title>Node395&#45;&gt;Node417</title>
<path fill="none" stroke="#191970" d="M47.505,-363.5538C56.7124,-306.4797 86.2744,-141.1766 125,-105 132.7244,-97.784 142.519,-93.0609 152.7388,-90.0156"/>
<polygon fill="#191970" stroke="#191970" points="44.0443,-363.0311 45.9382,-373.4553 50.9582,-364.1252 44.0443,-363.0311"/>
</g>
<!-- Node420 -->
<g id="node26" class="node">
<title>Node420</title>
<g id="a_node26"><a xlink:href="classSDLIO.html#a491e66a604fb750866d5de45dfa6aae0" target="_top" xlink:title="SDLIO::handle_key">
<polygon fill="#ffffff" stroke="#000000" points="158.5,-38.5 158.5,-57.5 266.5,-57.5 266.5,-38.5 158.5,-38.5"/>
<text text-anchor="middle" x="212.5" y="-45.5" font-family="Helvetica,sans-Serif" font-size="10.00" fill="#000000">SDLIO::handle_key</text>
</a>
</g>
</g>
<!-- Node395&#45;&gt;Node420 -->
<g id="edge38" class="edge">
<title>Node395&#45;&gt;Node420</title>
<path fill="none" stroke="#191970" d="M46.802,-363.4083C54.5202,-301.0795 81.4714,-109.0051 125,-67 134.0606,-58.2565 146.1475,-53.1438 158.4384,-50.2397"/>
<polygon fill="#191970" stroke="#191970" points="43.311,-363.1232 45.585,-373.4712 50.2604,-363.9638 43.311,-363.1232"/>
</g>
<!-- Node396&#45;&gt;Node397 -->
<g id="edge2" class="edge">
<title>Node396&#45;&gt;Node397</title>
<path fill="none" stroke="#191970" d="M700.1394,-660.6165C703.5553,-658.897 706.8618,-657.029 710,-655 762.1606,-621.2763 803.2441,-556.2769 817.5431,-531.7171"/>
<polygon fill="#191970" stroke="#191970" points="698.5342,-657.5016 690.8822,-664.8296 701.4338,-663.8728 698.5342,-657.5016"/>
</g>
<!-- Node398&#45;&gt;Node397 -->
<g id="edge4" class="edge">
<title>Node398&#45;&gt;Node397</title>
<path fill="none" stroke="#191970" d="M680.9176,-623.5778C690.8806,-620.4441 700.9411,-616.62 710,-612 753.1205,-590.0087 795.4497,-550.0224 813.6721,-531.6735"/>
<polygon fill="#191970" stroke="#191970" points="679.6346,-620.3068 671.0279,-626.4853 681.6091,-627.0226 679.6346,-620.3068"/>
</g>
<!-- Node399&#45;&gt;Node400 -->
<g id="edge6" class="edge">
<title>Node399&#45;&gt;Node400</title>
<path fill="none" stroke="#191970" d="M310.2613,-564.4405C322.9015,-565.7905 335.6472,-567.1516 347.7343,-568.4425"/>
<polygon fill="#191970" stroke="#191970" points="310.4764,-560.9437 300.1613,-563.3619 309.733,-567.9041 310.4764,-560.9437"/>
</g>
<!-- Node400&#45;&gt;Node397 -->
<g id="edge9" class="edge">
<title>Node400&#45;&gt;Node397</title>
<path fill="none" stroke="#191970" d="M493.253,-586.594C552.8047,-592.6982 637.858,-596.165 710,-579 748.4766,-569.8451 788.7109,-545.3844 809.209,-531.6676"/>
<polygon fill="#191970" stroke="#191970" points="493.4979,-583.1003 483.1811,-585.5116 492.7498,-590.0602 493.4979,-583.1003"/>
</g>
<!-- Node401 -->
<g id="node7" class="node">
<title>Node401</title>
<g id="a_node7"><a xlink:href="classFweelin.html#a4654015e2bc7cc94f3bfc421899a60d3" target="_top" xlink:title="Fweelin::TriggerSnapshot">
<polygon fill="#ffffff" stroke="#000000" points="554.5,-550.5 554.5,-569.5 692.5,-569.5 692.5,-550.5 554.5,-550.5"/>
<text text-anchor="middle" x="623.5" y="-557.5" font-family="Helvetica,sans-Serif" font-size="10.00" fill="#000000">Fweelin::TriggerSnapshot</text>
</a>
</g>
</g>
<!-- Node400&#45;&gt;Node401 -->
<g id="edge7" class="edge">
<title>Node400&#45;&gt;Node401</title>
<path fill="none" stroke="#191970" d="M499.0613,-569.7123C517.2906,-568.2895 536.4913,-566.7909 554.208,-565.4082"/>
<polygon fill="#191970" stroke="#191970" points="498.7467,-566.2261 489.0494,-570.4937 499.2914,-573.2049 498.7467,-566.2261"/>
</g>
<!-- Node401&#45;&gt;Node397 -->
<g id="edge8" class="edge">
<title>Node401&#45;&gt;Node397</title>
<path fill="none" stroke="#191970" d="M683.4451,-548.5819C711.99,-543.1448 745.7371,-536.7168 772.8946,-531.5439"/>
<polygon fill="#191970" stroke="#191970" points="682.7532,-545.1507 673.5848,-550.46 684.0631,-552.027 682.7532,-545.1507"/>
</g>
<!-- Node402&#45;&gt;Node397 -->
<g id="edge11" class="edge">
<title>Node402&#45;&gt;Node397</title>
<path fill="none" stroke="#191970" d="M701.673,-495.2412C728.2779,-501.1089 757.0336,-507.451 779.8698,-512.4876"/>
<polygon fill="#191970" stroke="#191970" points="702.1178,-491.7552 691.5986,-493.0192 700.6101,-498.5909 702.1178,-491.7552"/>
</g>
<!-- Node403&#45;&gt;Node397 -->
<g id="edge13" class="edge">
<title>Node403&#45;&gt;Node397</title>
<path fill="none" stroke="#191970" d="M511.3526,-433.0202C569.6159,-431.4139 645.63,-434.4503 710,-454 750.7492,-466.3759 791.9366,-496.6648 811.4143,-512.3037"/>
<polygon fill="#191970" stroke="#191970" points="510.9364,-429.5318 501.0563,-433.3571 511.1654,-436.5281 510.9364,-429.5318"/>
</g>
<!-- Node406&#45;&gt;Node397 -->
<g id="edge17" class="edge">
<title>Node406&#45;&gt;Node397</title>
<path fill="none" stroke="#191970" d="M682.8294,-408.5016C692.213,-411.5885 701.5862,-415.3766 710,-420 755.6285,-445.0732 797.9481,-491.9594 815.0311,-512.2392"/>
<polygon fill="#191970" stroke="#191970" points="683.6725,-405.0997 673.0866,-405.5328 681.6321,-411.7957 683.6725,-405.0997"/>
</g>
<!-- Node407&#45;&gt;Node397 -->
<g id="edge19" class="edge">
<title>Node407&#45;&gt;Node397</title>
<path fill="none" stroke="#191970" d="M486.2395,-347.3765C548.1845,-341.0119 640.4771,-340.1898 710,-377 768.9497,-408.212 806.9623,-485.1059 818.933,-512.2884"/>
<polygon fill="#191970" stroke="#191970" points="485.7414,-343.9101 476.1854,-348.4855 486.5089,-350.8679 485.7414,-343.9101"/>
</g>
<!-- Node408&#45;&gt;Node397 -->
<g id="edge23" class="edge">
<title>Node408&#45;&gt;Node397</title>
<path fill="none" stroke="#191970" d="M294.3516,-319.1351C417.0294,-310.3623 641.5067,-300.6332 710,-340 779.0054,-379.6611 811.6058,-480.1939 820.4455,-512.1136"/>
<polygon fill="#191970" stroke="#191970" points="293.9713,-315.6534 284.2523,-319.8716 294.4805,-322.6349 293.9713,-315.6534"/>
</g>
<!-- Node408&#45;&gt;Node407 -->
<g id="edge22" class="edge">
<title>Node408&#45;&gt;Node407</title>
<path fill="none" stroke="#191970" d="M283.8108,-337.0774C307.6876,-340.7864 334.0816,-344.8865 357.1312,-348.467"/>
<polygon fill="#191970" stroke="#191970" points="284.1678,-333.591 273.749,-335.5144 283.0933,-340.508 284.1678,-333.591"/>
</g>
<!-- Node409 -->
<g id="node15" class="node">
<title>Node409</title>
<g id="a_node15"><a xlink:href="classLoopManager.html#a6048a702c9cec3676a1c56792b16ec44" target="_top" xlink:title="LoopManager::ReadComplete">
<polygon fill="#ffffff" stroke="#000000" points="339,-272.5 339,-291.5 498,-291.5 498,-272.5 339,-272.5"/>
<text text-anchor="middle" x="418.5" y="-279.5" font-family="Helvetica,sans-Serif" font-size="10.00" fill="#000000">LoopManager::ReadComplete</text>
</a>
</g>
</g>
<!-- Node408&#45;&gt;Node409 -->
<g id="edge21" class="edge">
<title>Node408&#45;&gt;Node409</title>
<path fill="none" stroke="#191970" d="M267.2396,-314.308C300.5631,-307.1904 342.5945,-298.2128 373.8883,-291.5287"/>
<polygon fill="#191970" stroke="#191970" points="266.2472,-310.941 257.1989,-316.4527 267.7095,-317.7866 266.2472,-310.941"/>
</g>
<!-- Node410&#45;&gt;Node397 -->
<g id="edge26" class="edge">
<title>Node410&#45;&gt;Node397</title>
<path fill="none" stroke="#191970" d="M492.916,-522C564.7246,-522 672.9681,-522 745.7249,-522"/>
<polygon fill="#191970" stroke="#191970" points="492.5943,-518.5001 482.5942,-522 492.5942,-525.5001 492.5943,-518.5001"/>
</g>
<!-- Node410&#45;&gt;Node401 -->
<g id="edge25" class="edge">
<title>Node410&#45;&gt;Node401</title>
<path fill="none" stroke="#191970" d="M480.0978,-533.4181C509.4296,-538.8552 544.107,-545.2832 572.0133,-550.4561"/>
<polygon fill="#191970" stroke="#191970" points="480.436,-529.9213 469.9655,-531.54 479.1601,-536.804 480.436,-529.9213"/>
</g>
<!-- Node413 -->
<g id="node19" class="node">
<title>Node413</title>
<g id="a_node19"><a xlink:href="classFileStreamer.html#a1cc038c52d8211d59503a4e7f8a16cd9" target="_top" xlink:title="FileStreamer::FileStreamer">
<polygon fill="#ffffff" stroke="#000000" points="345.5,-158.5 345.5,-177.5 491.5,-177.5 491.5,-158.5 345.5,-158.5"/>
<text text-anchor="middle" x="418.5" y="-165.5" font-family="Helvetica,sans-Serif" font-size="10.00" fill="#000000">FileStreamer::FileStreamer</text>
</a>
</g>
</g>
<!-- Node412&#45;&gt;Node413 -->
<g id="edge31" class="edge">
<title>Node412&#45;&gt;Node413</title>
<path fill="none" stroke="#191970" d="M292.598,-168C309.9033,-168 328.1171,-168 345.1486,-168"/>
<polygon fill="#191970" stroke="#191970" points="292.5297,-164.5001 282.5296,-168 292.5296,-171.5001 292.5297,-164.5001"/>
</g>
<!-- Node415 -->
<g id="node21" class="node">
<title>Node415</title>
<g id="a_node21"><a xlink:href="classMidiIO.html#aae58e8a30b732a5eee97d76785a5909a" target="_top" xlink:title="MidiIO::EchoEvent">
<polygon fill="#ffffff" stroke="#000000" points="366.5,-114.5 366.5,-133.5 470.5,-133.5 470.5,-114.5 366.5,-114.5"/>
<text text-anchor="middle" x="418.5" y="-121.5" font-family="Helvetica,sans-Serif" font-size="10.00" fill="#000000">MidiIO::EchoEvent</text>
</a>
</g>
</g>
<!-- Node414&#45;&gt;Node415 -->
<g id="edge33" class="edge">
<title>Node414&#45;&gt;Node415</title>
<path fill="none" stroke="#191970" d="M309.7413,-124C329.2801,-124 349.0961,-124 366.3652,-124"/>
<polygon fill="#191970" stroke="#191970" points="309.564,-120.5001 299.564,-124 309.5639,-127.5001 309.564,-120.5001"/>
</g>
<!-- Node416 -->
<g id="node22" class="node">
<title>Node416</title>
<g id="a_node22"><a xlink:href="classMidiIO.html#a90cc0dad2841a9386a0c86efc1d9dce6" target="_top" xlink:title="MidiIO::ReceiveEvent">
<polygon fill="#ffffff" stroke="#000000" points="564,-114.5 564,-133.5 683,-133.5 683,-114.5 564,-114.5"/>
<text text-anchor="middle" x="623.5" y="-121.5" font-family="Helvetica,sans-Serif" font-size="10.00" fill="#000000">MidiIO::ReceiveEvent</text>
</a>
</g>
</g>
<!-- Node415&#45;&gt;Node416 -->
<g id="edge34" class="edge">
<title>Node415&#45;&gt;Node416</title>
<path fill="none" stroke="#191970" d="M480.9884,-124C507.2752,-124 537.7266,-124 563.7158,-124"/>
<polygon fill="#191970" stroke="#191970" points="480.7606,-120.5001 470.7606,-124 480.7605,-127.5001 480.7606,-120.5001"/>
</g>
<!-- Node418 -->
<g id="node24" class="node">
<title>Node418</title>
<g id="a_node24"><a xlink:href="classMidiIO.html#aef220bcce8b89bea36032298868a919e" target="_top" xlink:title="MidiIO::run_midi_thread">
<polygon fill="#ffffff" stroke="#000000" points="352,-76.5 352,-95.5 485,-95.5 485,-76.5 352,-76.5"/>
<text text-anchor="middle" x="418.5" y="-83.5" font-family="Helvetica,sans-Serif" font-size="10.00" fill="#000000">MidiIO::run_midi_thread</text>
</a>
</g>
</g>
<!-- Node417&#45;&gt;Node418 -->
<g id="edge36" class="edge">
<title>Node417&#45;&gt;Node418</title>
<path fill="none" stroke="#191970" d="M282.2286,-86C304.7104,-86 329.5613,-86 351.8178,-86"/>
<polygon fill="#191970" stroke="#191970" points="282.0838,-82.5001 272.0837,-86 282.0837,-89.5001 282.0838,-82.5001"/>
</g>
<!-- Node419 -->
<g id="node25" class="node">
<title>Node419</title>
<g id="a_node25"><a xlink:href="classMidiIO.html#a222509803679fcf4bcb7b4b4a34cf0cd" target="_top" xlink:title="MidiIO::activate">
<polygon fill="#ffffff" stroke="#000000" points="577,-76.5 577,-95.5 670,-95.5 670,-76.5 577,-76.5"/>
<text text-anchor="middle" x="623.5" y="-83.5" font-family="Helvetica,sans-Serif" font-size="10.00" fill="#000000">MidiIO::activate</text>
</a>
</g>
</g>
<!-- Node418&#45;&gt;Node419 -->
<g id="edge37" class="edge">
<title>Node418&#45;&gt;Node419</title>
<path fill="none" stroke="#191970" d="M495.3915,-86C522.7324,-86 552.6707,-86 576.7258,-86"/>
<polygon fill="#191970" stroke="#191970" points="495.0577,-82.5001 485.0576,-86 495.0576,-89.5001 495.0577,-82.5001"/>
</g>
<!-- Node421 -->
<g id="node27" class="node">
<title>Node421</title>
<g id="a_node27"><a xlink:href="classSDLIO.html#ad1b1bf6d23251b3014749b18497c1b91" target="_top" xlink:title="SDLIO::run_sdl_thread">
<polygon fill="#ffffff" stroke="#000000" points="356.5,-38.5 356.5,-57.5 480.5,-57.5 480.5,-38.5 356.5,-38.5"/>
<text text-anchor="middle" x="418.5" y="-45.5" font-family="Helvetica,sans-Serif" font-size="10.00" fill="#000000">SDLIO::run_sdl_thread</text>
</a>
</g>
</g>
<!-- Node420&#45;&gt;Node421 -->
<g id="edge39" class="edge">
<title>Node420&#45;&gt;Node421</title>
<path fill="none" stroke="#191970" d="M276.875,-48C302.2261,-48 331.2277,-48 356.3571,-48"/>
<polygon fill="#191970" stroke="#191970" points="276.6241,-44.5001 266.6241,-48 276.624,-51.5001 276.6241,-44.5001"/>
</g>
<!-- Node422 -->
<g id="node28" class="node">
<title>Node422</title>
<g id="a_node28"><a xlink:href="classFweelin.html#a268997890fa59492e27b4787c6bdc41f" target="_top" xlink:title="Fweelin::go">
<polygon fill="#ffffff" stroke="#000000" points="587.5,-38.5 587.5,-57.5 659.5,-57.5 659.5,-38.5 587.5,-38.5"/>
<text text-anchor="middle" x="623.5" y="-45.5" font-family="Helvetica,sans-Serif" font-size="10.00" fill="#000000">Fweelin::go</text>
</a>
</g>
</g>
<!-- Node421&#45;&gt;Node422 -->
<g id="edge40" class="edge">
<title>Node421&#45;&gt;Node422</title>
<path fill="none" stroke="#191970" d="M490.9765,-48C523.5893,-48 560.6496,-48 587.2705,-48"/>
<polygon fill="#191970" stroke="#191970" points="490.5631,-44.5001 480.5631,-48 490.563,-51.5001 490.5631,-44.5001"/>
</g>
<!-- Node425 -->
<g id="node31" class="node">
<title>Node425</title>
<g id="a_node31"><a xlink:href="classSDLIO.html#a219c64dd0f01ca0fe0319ba7a0a3379e" target="_top" xlink:title="SDLIO::activate">
<polygon fill="#ffffff" stroke="#000000" points="577.5,-.5 577.5,-19.5 669.5,-19.5 669.5,-.5 577.5,-.5"/>
<text text-anchor="middle" x="623.5" y="-7.5" font-family="Helvetica,sans-Serif" font-size="10.00" fill="#000000">SDLIO::activate</text>
</a>
</g>
</g>
<!-- Node421&#45;&gt;Node425 -->
<g id="edge43" class="edge">
<title>Node421&#45;&gt;Node425</title>
<path fill="none" stroke="#191970" d="M479.8772,-36.6228C511.1241,-30.8307 548.483,-23.9056 577.2654,-18.5703"/>
<polygon fill="#191970" stroke="#191970" points="479.1601,-33.196 469.9655,-38.46 480.436,-40.0787 479.1601,-33.196"/>
</g>
<!-- Node423 -->
<g id="node29" class="node">
<title>Node423</title>
<g id="a_node29"><a xlink:href="fweelin_8cc.html#a97b0fa62b7b0972875f5f589322c4c24" target="_top" xlink:title="main">
<polygon fill="#ffffff" stroke="#000000" points="802.5,-57.5 802.5,-76.5 843.5,-76.5 843.5,-57.5 802.5,-57.5"/>
<text text-anchor="middle" x="823" y="-64.5" font-family="Helvetica,sans-Serif" font-size="10.00" fill="#000000">main</text>
</a>
</g>
</g>
<!-- Node422&#45;&gt;Node423 -->
<g id="edge41" class="edge">
<title>Node422&#45;&gt;Node423</title>
<path fill="none" stroke="#191970" d="M669.5916,-52.3897C711.4584,-56.377 771.2803,-62.0743 802.4043,-65.0385"/>
<polygon fill="#191970" stroke="#191970" points="669.9148,-48.9047 659.6279,-51.4408 669.251,-55.8732 669.9148,-48.9047"/>
</g>
<!-- Node424 -->
<g id="node30" class="node">
<title>Node424</title>
<g id="a_node30"><a xlink:href="classLoopTray.html#a307e6abe64c403e39fc463ec282bde27" target="_top" xlink:title="LoopTray::Draw">
<polygon fill="#ffffff" stroke="#000000" points="777.5,-19.5 777.5,-38.5 868.5,-38.5 868.5,-19.5 777.5,-19.5"/>
<text text-anchor="middle" x="823" y="-26.5" font-family="Helvetica,sans-Serif" font-size="10.00" fill="#000000">LoopTray::Draw</text>
</a>
</g>
</g>
<!-- Node422&#45;&gt;Node424 -->
<g id="edge42" class="edge">
<title>Node422&#45;&gt;Node424</title>
<path fill="none" stroke="#191970" d="M669.7288,-43.5973C702.0777,-40.5164 745.0957,-36.4195 777.3225,-33.3502"/>
<polygon fill="#191970" stroke="#191970" points="669.251,-40.1268 659.6279,-44.5592 669.9148,-47.0953 669.251,-40.1268"/>
</g>
</g>
</svg>
