<?xml version="1.0" encoding="UTF-8" standalone="no"?>
<!DOCTYPE svg PUBLIC "-//W3C//DTD SVG 1.1//EN"
 "http://www.w3.org/Graphics/SVG/1.1/DTD/svg11.dtd">
<!-- Generated by graphviz version 2.40.1 (20161225.0304)
 -->
<!-- Title: AudioLevel::fader_to_dB Pages: 1 -->
<svg width="274pt" height="66pt"
 viewBox="0.00 0.00 274.00 66.00" xmlns="http://www.w3.org/2000/svg" xmlns:xlink="http://www.w3.org/1999/xlink">
<g id="graph0" class="graph" transform="scale(1 1) rotate(0) translate(4 62)">
<title>AudioLevel::fader_to_dB</title>
<polygon fill="#ffffff" stroke="transparent" points="-4,4 -4,-62 270,-62 270,4 -4,4"/>
<!-- Node5 -->
<g id="node1" class="node">
<title>Node5</title>
<polygon fill="#bfbfbf" stroke="#000000" points="0,-19.5 0,-38.5 135,-38.5 135,-19.5 0,-19.5"/>
<text text-anchor="middle" x="67.5" y="-26.5" font-family="Helvetica,sans-Serif" font-size="10.00" fill="#000000">AudioLevel::fader_to_dB</text>
</g>
<!-- Node6 -->
<g id="node2" class="node">
<title>Node6</title>
<g id="a_node2"><a xlink:href="fweelin__core__dsp_8cc.html#aa8e70840b54e71eb9300384906358f42" target="_top" xlink:title="iec_dB_to_fader">
<polygon fill="#ffffff" stroke="#000000" points="171,-38.5 171,-57.5 266,-57.5 266,-38.5 171,-38.5"/>
<text text-anchor="middle" x="218.5" y="-45.5" font-family="Helvetica,sans-Serif" font-size="10.00" fill="#000000">iec_dB_to_fader</text>
</a>
</g>
</g>
<!-- Node5&#45;&gt;Node6 -->
<g id="edge1" class="edge">
<title>Node5&#45;&gt;Node6</title>
<path fill="none" stroke="#191970" d="M135.0502,-37.4997C143.6474,-38.5815 152.3837,-39.6807 160.8064,-40.7405"/>
<polygon fill="#191970" stroke="#191970" points="160.5356,-44.234 170.8943,-42.0099 161.4095,-37.2887 160.5356,-44.234"/>
</g>
<!-- Node7 -->
<g id="node3" class="node">
<title>Node7</title>
<g id="a_node3"><a xlink:href="fweelin__core__dsp_8cc.html#aef093fccb62a8f826bff45f18e39cf5d" target="_top" xlink:title="iec_fader_to_dB">
<polygon fill="#ffffff" stroke="#000000" points="171,-.5 171,-19.5 266,-19.5 266,-.5 171,-.5"/>
<text text-anchor="middle" x="218.5" y="-7.5" font-family="Helvetica,sans-Serif" font-size="10.00" fill="#000000">iec_fader_to_dB</text>
</a>
</g>
</g>
<!-- Node5&#45;&gt;Node7 -->
<g id="edge2" class="edge">
<title>Node5&#45;&gt;Node7</title>
<path fill="none" stroke="#191970" d="M135.0502,-20.5003C143.6474,-19.4185 152.3837,-18.3193 160.8064,-17.2595"/>
<polygon fill="#191970" stroke="#191970" points="161.4095,-20.7113 170.8943,-15.9901 160.5356,-13.766 161.4095,-20.7113"/>
</g>
</g>
</svg>
