<?xml version="1.0" encoding="UTF-8" standalone="no"?>
<!DOCTYPE svg PUBLIC "-//W3C//DTD SVG 1.1//EN"
 "http://www.w3.org/Graphics/SVG/1.1/DTD/svg11.dtd">
<!-- Generated by graphviz version 2.40.1 (20161225.0304)
 -->
<!-- Title: RootProcessor::process Pages: 1 -->
<svg width="769pt" height="294pt"
 viewBox="0.00 0.00 769.00 294.00" xmlns="http://www.w3.org/2000/svg" xmlns:xlink="http://www.w3.org/1999/xlink">
<g id="graph0" class="graph" transform="scale(1 1) rotate(0) translate(4 290)">
<title>RootProcessor::process</title>
<polygon fill="#ffffff" stroke="transparent" points="-4,4 -4,-290 765,-290 765,4 -4,4"/>
<!-- Node78 -->
<g id="node1" class="node">
<title>Node78</title>
<polygon fill="#bfbfbf" stroke="#000000" points="0,-95.5 0,-114.5 129,-114.5 129,-95.5 0,-95.5"/>
<text text-anchor="middle" x="64.5" y="-102.5" font-family="Helvetica,sans-Serif" font-size="10.00" fill="#000000">RootProcessor::process</text>
</g>
<!-- Node79 -->
<g id="node2" class="node">
<title>Node79</title>
<g id="a_node2"><a xlink:href="classFweelin.html#a538440216608aed67e6940c2903c3072" target="_top" xlink:title="Fweelin::getBUFSZ">
<polygon fill="#ffffff" stroke="#000000" points="200.5,-171.5 200.5,-190.5 308.5,-190.5 308.5,-171.5 200.5,-171.5"/>
<text text-anchor="middle" x="254.5" y="-178.5" font-family="Helvetica,sans-Serif" font-size="10.00" fill="#000000">Fweelin::getBUFSZ</text>
</a>
</g>
</g>
<!-- Node78&#45;&gt;Node79 -->
<g id="edge1" class="edge">
<title>Node78&#45;&gt;Node79</title>
<path fill="none" stroke="#191970" d="M78.1388,-114.552C96.8677,-127.233 131.9914,-149.4791 165,-162 173.0931,-165.0699 181.796,-167.6938 190.4824,-169.9224"/>
<polygon fill="#191970" stroke="#191970" points="189.7078,-173.3358 200.2492,-172.2733 191.346,-166.5302 189.7078,-173.3358"/>
</g>
<!-- Node80 -->
<g id="node3" class="node">
<title>Node80</title>
<g id="a_node3"><a xlink:href="classRootProcessor.html#acb13a2a0320ef6b5a57ede966e468842" target="_top" xlink:title="RootProcessor::UpdateProcessors">
<polygon fill="#ffffff" stroke="#000000" points="165,-133.5 165,-152.5 344,-152.5 344,-133.5 165,-133.5"/>
<text text-anchor="middle" x="254.5" y="-140.5" font-family="Helvetica,sans-Serif" font-size="10.00" fill="#000000">RootProcessor::UpdateProcessors</text>
</a>
</g>
</g>
<!-- Node78&#45;&gt;Node80 -->
<g id="edge2" class="edge">
<title>Node78&#45;&gt;Node80</title>
<path fill="none" stroke="#191970" d="M112.445,-114.589C138.0823,-119.7165 169.8362,-126.0672 196.816,-131.4632"/>
<polygon fill="#191970" stroke="#191970" points="196.4075,-134.9507 206.8997,-133.4799 197.7804,-128.0867 196.4075,-134.9507"/>
</g>
<!-- Node89 -->
<g id="node12" class="node">
<title>Node89</title>
<g id="a_node12"><a xlink:href="classRootProcessor.html#ae6ad61c89d499509728d7720ee71df68" target="_top" xlink:title="RootProcessor::processchain">
<polygon fill="#ffffff" stroke="#000000" points="177,-76.5 177,-95.5 332,-95.5 332,-76.5 177,-76.5"/>
<text text-anchor="middle" x="254.5" y="-83.5" font-family="Helvetica,sans-Serif" font-size="10.00" fill="#000000">RootProcessor::processchain</text>
</a>
</g>
</g>
<!-- Node78&#45;&gt;Node89 -->
<g id="edge11" class="edge">
<title>Node78&#45;&gt;Node89</title>
<path fill="none" stroke="#191970" d="M129.0905,-98.541C141.2294,-97.3271 154.1089,-96.0391 166.8129,-94.7687"/>
<polygon fill="#191970" stroke="#191970" points="167.3441,-98.2331 176.9462,-93.7554 166.6476,-91.2679 167.3441,-98.2331"/>
</g>
<!-- Node91 -->
<g id="node14" class="node">
<title>Node91</title>
<g id="a_node14"><a xlink:href="classProcessor.html#a5df6a0b8a5cf976315492246ab6c671e" target="_top" xlink:title="Processor::fadepreandcurrent">
<polygon fill="#ffffff" stroke="#000000" points="174.5,-38.5 174.5,-57.5 334.5,-57.5 334.5,-38.5 174.5,-38.5"/>
<text text-anchor="middle" x="254.5" y="-45.5" font-family="Helvetica,sans-Serif" font-size="10.00" fill="#000000">Processor::fadepreandcurrent</text>
</a>
</g>
</g>
<!-- Node78&#45;&gt;Node91 -->
<g id="edge15" class="edge">
<title>Node78&#45;&gt;Node91</title>
<path fill="none" stroke="#191970" d="M86.9158,-95.397C107.065,-87.0378 137.6141,-75.0335 165,-67 174.0501,-64.3452 183.7166,-61.8998 193.2268,-59.7095"/>
<polygon fill="#191970" stroke="#191970" points="194.0489,-63.1122 203.0484,-57.5212 192.5266,-56.2798 194.0489,-63.1122"/>
</g>
<!-- Node81 -->
<g id="node4" class="node">
<title>Node81</title>
<g id="a_node4"><a xlink:href="classSRMWRingBuffer.html#ae907e34d6dc9fff4f1e3955dd3aa53b7" target="_top" xlink:title="SRMWRingBuffer::ReadElement">
<polygon fill="#ffffff" stroke="#000000" points="380,-266.5 380,-285.5 549,-285.5 549,-266.5 380,-266.5"/>
<text text-anchor="middle" x="464.5" y="-273.5" font-family="Helvetica,sans-Serif" font-size="10.00" fill="#000000">SRMWRingBuffer::ReadElement</text>
</a>
</g>
</g>
<!-- Node80&#45;&gt;Node81 -->
<g id="edge3" class="edge">
<title>Node80&#45;&gt;Node81</title>
<path fill="none" stroke="#191970" d="M329.1368,-152.5242C334.4973,-155.0571 339.5386,-158.174 344,-162 378.2747,-191.3932 345.9021,-227.4018 380,-257 381.7991,-258.5617 383.6991,-260.0028 385.6808,-261.3324"/>
<polygon fill="#191970" stroke="#191970" points="384.3993,-264.627 394.8318,-266.4747 387.8286,-258.5245 384.3993,-264.627"/>
</g>
<!-- Node82 -->
<g id="node5" class="node">
<title>Node82</title>
<g id="a_node5"><a xlink:href="classEvent.html#ac4c4170579544b41dff38ca1b8110e30" target="_top" xlink:title="Event::GetType">
<polygon fill="#ffffff" stroke="#000000" points="419.5,-228.5 419.5,-247.5 509.5,-247.5 509.5,-228.5 419.5,-228.5"/>
<text text-anchor="middle" x="464.5" y="-235.5" font-family="Helvetica,sans-Serif" font-size="10.00" fill="#000000">Event::GetType</text>
</a>
</g>
</g>
<!-- Node80&#45;&gt;Node82 -->
<g id="edge4" class="edge">
<title>Node80&#45;&gt;Node82</title>
<path fill="none" stroke="#191970" d="M326.0865,-152.6406C332.4381,-155.1141 338.5254,-158.1873 344,-162 368.5877,-179.1238 355.5154,-201.7291 380,-219 388.6596,-225.1083 398.9554,-229.2934 409.3303,-232.1512"/>
<polygon fill="#191970" stroke="#191970" points="408.713,-235.6018 419.2508,-234.504 410.3284,-228.7907 408.713,-235.6018"/>
</g>
<!-- Node83 -->
<g id="node6" class="node">
<title>Node83</title>
<g id="a_node6"><a xlink:href="classEvent.html#aa67af0ae99b897e4f0ce42068c4e4c00" target="_top" xlink:title="Event::GetEventByType">
<polygon fill="#ffffff" stroke="#000000" points="399,-76.5 399,-95.5 530,-95.5 530,-76.5 399,-76.5"/>
<text text-anchor="middle" x="464.5" y="-83.5" font-family="Helvetica,sans-Serif" font-size="10.00" fill="#000000">Event::GetEventByType</text>
</a>
</g>
</g>
<!-- Node80&#45;&gt;Node83 -->
<g id="edge5" class="edge">
<title>Node80&#45;&gt;Node83</title>
<path fill="none" stroke="#191970" d="M283.7427,-133.4856C309.0685,-125.4045 346.7589,-113.7572 380,-105 389.3887,-102.5266 399.417,-100.0921 409.165,-97.8343"/>
<polygon fill="#191970" stroke="#191970" points="410.2111,-101.1858 419.1834,-95.5512 408.6556,-94.3608 410.2111,-101.1858"/>
</g>
<!-- Node84 -->
<g id="node7" class="node">
<title>Node84</title>
<g id="a_node7"><a xlink:href="classFweelin.html#a21e51d7b639faaecc415624ab6c16a71" target="_top" xlink:title="Fweelin::getEMG">
<polygon fill="#ffffff" stroke="#000000" points="415.5,-190.5 415.5,-209.5 513.5,-209.5 513.5,-190.5 415.5,-190.5"/>
<text text-anchor="middle" x="464.5" y="-197.5" font-family="Helvetica,sans-Serif" font-size="10.00" fill="#000000">Fweelin::getEMG</text>
</a>
</g>
</g>
<!-- Node80&#45;&gt;Node84 -->
<g id="edge6" class="edge">
<title>Node80&#45;&gt;Node84</title>
<path fill="none" stroke="#191970" d="M311.0272,-152.5199C322.116,-155.0785 333.5451,-158.2144 344,-162 361.0109,-168.1594 363.0264,-174.7387 380,-181 388.0102,-183.9548 396.6242,-186.5336 405.1799,-188.7578"/>
<polygon fill="#191970" stroke="#191970" points="404.6111,-192.2221 415.1573,-191.2072 406.2801,-185.4239 404.6111,-192.2221"/>
</g>
<!-- Node85 -->
<g id="node8" class="node">
<title>Node85</title>
<g id="a_node8"><a xlink:href="classEventManager.html#ac7c4b4ceee333a360274d73d166b8c69" target="_top" xlink:title="EventManager::BroadcastEvent">
<polygon fill="#ffffff" stroke="#000000" points="380,-152.5 380,-171.5 549,-171.5 549,-152.5 380,-152.5"/>
<text text-anchor="middle" x="464.5" y="-159.5" font-family="Helvetica,sans-Serif" font-size="10.00" fill="#000000">EventManager::BroadcastEvent</text>
</a>
</g>
</g>
<!-- Node80&#45;&gt;Node85 -->
<g id="edge7" class="edge">
<title>Node80&#45;&gt;Node85</title>
<path fill="none" stroke="#191970" d="M344.168,-151.1128C352.6614,-151.8813 361.2915,-152.6621 369.8296,-153.4346"/>
<polygon fill="#191970" stroke="#191970" points="369.5219,-156.921 379.7966,-154.3364 370.1527,-149.9494 369.5219,-156.921"/>
</g>
<!-- Node88 -->
<g id="node11" class="node">
<title>Node88</title>
<g id="a_node11"><a xlink:href="classPreallocated.html#aaf2139a79ca16de70acd9bc4564171b7" target="_top" xlink:title="Preallocated::RTDelete">
<polygon fill="#ffffff" stroke="#000000" points="400.5,-114.5 400.5,-133.5 528.5,-133.5 528.5,-114.5 400.5,-114.5"/>
<text text-anchor="middle" x="464.5" y="-121.5" font-family="Helvetica,sans-Serif" font-size="10.00" fill="#000000">Preallocated::RTDelete</text>
</a>
</g>
</g>
<!-- Node80&#45;&gt;Node88 -->
<g id="edge10" class="edge">
<title>Node80&#45;&gt;Node88</title>
<path fill="none" stroke="#191970" d="M344.168,-134.8872C359.4755,-133.5022 375.2273,-132.0771 390.0841,-130.7329"/>
<polygon fill="#191970" stroke="#191970" points="390.5662,-134.2036 400.2101,-129.8167 389.9354,-127.2321 390.5662,-134.2036"/>
</g>
<!-- Node86 -->
<g id="node9" class="node">
<title>Node86</title>
<g id="a_node9"><a xlink:href="classSRMWRingBuffer.html#a47699ccc0600c38559c8e10f0ca9bf3c" target="_top" xlink:title="SRMWRingBuffer::WriteElement">
<polygon fill="#ffffff" stroke="#000000" points="588,-76.5 588,-95.5 758,-95.5 758,-76.5 588,-76.5"/>
<text text-anchor="middle" x="673" y="-83.5" font-family="Helvetica,sans-Serif" font-size="10.00" fill="#000000">SRMWRingBuffer::WriteElement</text>
</a>
</g>
</g>
<!-- Node85&#45;&gt;Node86 -->
<g id="edge8" class="edge">
<title>Node85&#45;&gt;Node86</title>
<path fill="none" stroke="#191970" d="M515.0235,-152.4578C526.329,-149.8215 538.1743,-146.66 549,-143 583.6761,-131.2764 621.6593,-112.9438 646.3291,-100.2487"/>
<polygon fill="#191970" stroke="#191970" points="648.1577,-103.2427 655.4108,-95.5198 644.9247,-97.034 648.1577,-103.2427"/>
</g>
<!-- Node87 -->
<g id="node10" class="node">
<title>Node87</title>
<g id="a_node10"><a xlink:href="classEventManager.html#a529567a1f3b56ecbc97aceec5ee0b46e" target="_top" xlink:title="EventManager::WakeupIfNeeded">
<polygon fill="#ffffff" stroke="#000000" points="585,-152.5 585,-171.5 761,-171.5 761,-152.5 585,-152.5"/>
<text text-anchor="middle" x="673" y="-159.5" font-family="Helvetica,sans-Serif" font-size="10.00" fill="#000000">EventManager::WakeupIfNeeded</text>
</a>
</g>
</g>
<!-- Node85&#45;&gt;Node87 -->
<g id="edge9" class="edge">
<title>Node85&#45;&gt;Node87</title>
<path fill="none" stroke="#191970" d="M549.0044,-162C557.5234,-162 566.2251,-162 574.8705,-162"/>
<polygon fill="#191970" stroke="#191970" points="574.9792,-165.5001 584.9792,-162 574.9791,-158.5001 574.9792,-165.5001"/>
</g>
<!-- Node89&#45;&gt;Node83 -->
<g id="edge13" class="edge">
<title>Node89&#45;&gt;Node83</title>
<path fill="none" stroke="#191970" d="M332.0996,-86C350.6331,-86 370.3911,-86 388.836,-86"/>
<polygon fill="#191970" stroke="#191970" points="388.932,-89.5001 398.932,-86 388.9319,-82.5001 388.932,-89.5001"/>
</g>
<!-- Node89&#45;&gt;Node86 -->
<g id="edge14" class="edge">
<title>Node89&#45;&gt;Node86</title>
<path fill="none" stroke="#191970" d="M305.5929,-76.4864C328.2909,-72.7207 355.3888,-68.8524 380,-67 454.8992,-61.3625 474.1058,-61.2954 549,-67 569.8068,-68.5848 592.4084,-71.6448 612.5468,-74.8537"/>
<polygon fill="#191970" stroke="#191970" points="612.0884,-78.3252 622.5225,-76.4865 613.2192,-71.4171 612.0884,-78.3252"/>
</g>
<!-- Node90 -->
<g id="node13" class="node">
<title>Node90</title>
<g id="a_node13"><a xlink:href="classProcessor.html#a2a6ea9cec150529a6b61898634540254" target="_top" xlink:title="Processor::process">
<polygon fill="#ffffff" stroke="#000000" points="411,-.5 411,-19.5 518,-19.5 518,-.5 411,-.5"/>
<text text-anchor="middle" x="464.5" y="-7.5" font-family="Helvetica,sans-Serif" font-size="10.00" fill="#000000">Processor::process</text>
</a>
</g>
</g>
<!-- Node89&#45;&gt;Node90 -->
<g id="edge12" class="edge">
<title>Node89&#45;&gt;Node90</title>
<path fill="none" stroke="#191970" d="M319.9611,-76.377C328.2938,-73.9273 336.5154,-70.8545 344,-67 363.2966,-57.0625 361.05,-44.5835 380,-34 388.1157,-29.4675 397.157,-25.7327 406.2232,-22.6728"/>
<polygon fill="#191970" stroke="#191970" points="407.5257,-25.9329 416.0281,-19.6115 405.4394,-19.251 407.5257,-25.9329"/>
</g>
</g>
</svg>
