<?xml version="1.0" encoding="UTF-8" standalone="no"?>
<!DOCTYPE svg PUBLIC "-//W3C//DTD SVG 1.1//EN"
 "http://www.w3.org/Graphics/SVG/1.1/DTD/svg11.dtd">
<!-- Generated by graphviz version 2.40.1 (20161225.0304)
 -->
<!-- Title: LoopManager::SetupSceneBrowser Pages: 1 -->
<svg width="542pt" height="104pt"
 viewBox="0.00 0.00 542.00 104.00" xmlns="http://www.w3.org/2000/svg" xmlns:xlink="http://www.w3.org/1999/xlink">
<g id="graph0" class="graph" transform="scale(1 1) rotate(0) translate(4 100)">
<title>LoopManager::SetupSceneBrowser</title>
<polygon fill="#ffffff" stroke="transparent" points="-4,4 -4,-100 538,-100 538,4 -4,4"/>
<!-- Node1142 -->
<g id="node1" class="node">
<title>Node1142</title>
<polygon fill="#bfbfbf" stroke="#000000" points="0,-38.5 0,-57.5 185,-57.5 185,-38.5 0,-38.5"/>
<text text-anchor="middle" x="92.5" y="-45.5" font-family="Helvetica,sans-Serif" font-size="10.00" fill="#000000">LoopManager::SetupSceneBrowser</text>
</g>
<!-- Node1143 -->
<g id="node2" class="node">
<title>Node1143</title>
<g id="a_node2"><a xlink:href="classBrowser.html#add244d7739c8910a29a63599d765efc9" target="_top" xlink:title="Browser::ClearAllItems">
<polygon fill="#ffffff" stroke="#000000" points="231,-76.5 231,-95.5 359,-95.5 359,-76.5 231,-76.5"/>
<text text-anchor="middle" x="295" y="-83.5" font-family="Helvetica,sans-Serif" font-size="10.00" fill="#000000">Browser::ClearAllItems</text>
</a>
</g>
</g>
<!-- Node1142&#45;&gt;Node1143 -->
<g id="edge1" class="edge">
<title>Node1142&#45;&gt;Node1143</title>
<path fill="none" stroke="#191970" d="M143.3379,-57.54C170.9005,-62.7122 205.1547,-69.1401 234.1314,-74.5778"/>
<polygon fill="#191970" stroke="#191970" points="233.6672,-78.0516 244.1412,-76.4561 234.9583,-71.1717 233.6672,-78.0516"/>
</g>
<!-- Node1144 -->
<g id="node3" class="node">
<title>Node1144</title>
<g id="a_node3"><a xlink:href="classBrowser.html#aa33b6a26b512beffbe68bbcd2153c123" target="_top" xlink:title="Browser::AddDivisions">
<polygon fill="#ffffff" stroke="#000000" points="232,-38.5 232,-57.5 358,-57.5 358,-38.5 232,-38.5"/>
<text text-anchor="middle" x="295" y="-45.5" font-family="Helvetica,sans-Serif" font-size="10.00" fill="#000000">Browser::AddDivisions</text>
</a>
</g>
</g>
<!-- Node1142&#45;&gt;Node1144 -->
<g id="edge2" class="edge">
<title>Node1142&#45;&gt;Node1144</title>
<path fill="none" stroke="#191970" d="M185.1569,-48C197.4001,-48 209.8121,-48 221.6699,-48"/>
<polygon fill="#191970" stroke="#191970" points="221.9296,-51.5001 231.9296,-48 221.9295,-44.5001 221.9296,-51.5001"/>
</g>
<!-- Node1147 -->
<g id="node6" class="node">
<title>Node1147</title>
<g id="a_node6"><a xlink:href="classBrowser.html#a59891b80034d9b3594b42bf416cbb23b" target="_top" xlink:title="Browser::MoveToBeginning">
<polygon fill="#ffffff" stroke="#000000" points="221,-.5 221,-19.5 369,-19.5 369,-.5 221,-.5"/>
<text text-anchor="middle" x="295" y="-7.5" font-family="Helvetica,sans-Serif" font-size="10.00" fill="#000000">Browser::MoveToBeginning</text>
</a>
</g>
</g>
<!-- Node1142&#45;&gt;Node1147 -->
<g id="edge5" class="edge">
<title>Node1142&#45;&gt;Node1147</title>
<path fill="none" stroke="#191970" d="M143.3379,-38.46C170.9005,-33.2878 205.1547,-26.8599 234.1314,-21.4222"/>
<polygon fill="#191970" stroke="#191970" points="234.9583,-24.8283 244.1412,-19.5439 233.6672,-17.9484 234.9583,-24.8283"/>
</g>
<!-- Node1145 -->
<g id="node4" class="node">
<title>Node1145</title>
<g id="a_node4"><a xlink:href="classBrowserItem.html#ae46a902950af8f0613490012a75c8194" target="_top" xlink:title="BrowserItem::Compare">
<polygon fill="#ffffff" stroke="#000000" points="405,-57.5 405,-76.5 534,-76.5 534,-57.5 405,-57.5"/>
<text text-anchor="middle" x="469.5" y="-64.5" font-family="Helvetica,sans-Serif" font-size="10.00" fill="#000000">BrowserItem::Compare</text>
</a>
</g>
</g>
<!-- Node1144&#45;&gt;Node1145 -->
<g id="edge3" class="edge">
<title>Node1144&#45;&gt;Node1145</title>
<path fill="none" stroke="#191970" d="M358.4921,-54.9132C370.2926,-56.198 382.7207,-57.5512 394.8194,-58.8686"/>
<polygon fill="#191970" stroke="#191970" points="394.5638,-62.3614 404.8839,-59.9644 395.3215,-55.4025 394.5638,-62.3614"/>
</g>
<!-- Node1146 -->
<g id="node5" class="node">
<title>Node1146</title>
<g id="a_node5"><a xlink:href="classBrowserItem.html#a4ebfa0b72dd5eec1c43ed1b65287ae47" target="_top" xlink:title="BrowserItem::GetType">
<polygon fill="#ffffff" stroke="#000000" points="407,-19.5 407,-38.5 532,-38.5 532,-19.5 407,-19.5"/>
<text text-anchor="middle" x="469.5" y="-26.5" font-family="Helvetica,sans-Serif" font-size="10.00" fill="#000000">BrowserItem::GetType</text>
</a>
</g>
</g>
<!-- Node1144&#45;&gt;Node1146 -->
<g id="edge4" class="edge">
<title>Node1144&#45;&gt;Node1146</title>
<path fill="none" stroke="#191970" d="M358.4921,-41.0868C370.9488,-39.7305 384.1049,-38.298 396.8347,-36.912"/>
<polygon fill="#191970" stroke="#191970" points="397.3685,-40.3746 406.9309,-35.8127 396.6108,-33.4158 397.3685,-40.3746"/>
</g>
</g>
</svg>
