<?xml version="1.0" encoding="UTF-8" standalone="no"?>
<!DOCTYPE svg PUBLIC "-//W3C//DTD SVG 1.1//EN"
 "http://www.w3.org/Graphics/SVG/1.1/DTD/svg11.dtd">
<!-- Generated by graphviz version 2.40.1 (20161225.0304)
 -->
<!-- Title: LoopManager::LoadLoop Pages: 1 -->
<svg width="530pt" height="66pt"
 viewBox="0.00 0.00 530.00 66.00" xmlns="http://www.w3.org/2000/svg" xmlns:xlink="http://www.w3.org/1999/xlink">
<g id="graph0" class="graph" transform="scale(1 1) rotate(0) translate(4 62)">
<title>LoopManager::LoadLoop</title>
<polygon fill="#ffffff" stroke="transparent" points="-4,4 -4,-62 526,-62 526,4 -4,4"/>
<!-- Node638 -->
<g id="node1" class="node">
<title>Node638</title>
<polygon fill="#bfbfbf" stroke="#000000" points="0,-19.5 0,-38.5 134,-38.5 134,-19.5 0,-19.5"/>
<text text-anchor="middle" x="67" y="-26.5" font-family="Helvetica,sans-Serif" font-size="10.00" fill="#000000">LoopManager::LoadLoop</text>
</g>
<!-- Node639 -->
<g id="node2" class="node">
<title>Node639</title>
<g id="a_node2"><a xlink:href="classLoopManager.html#a5db9d5ddb2f42a75645a2541c7b3cc79" target="_top" xlink:title="LoopManager::AddLoopToLoad\lQueue">
<polygon fill="#ffffff" stroke="#000000" points="170,-14 170,-44 334,-44 334,-14 170,-14"/>
<text text-anchor="start" x="178" y="-32" font-family="Helvetica,sans-Serif" font-size="10.00" fill="#000000">LoopManager::AddLoopToLoad</text>
<text text-anchor="middle" x="252" y="-21" font-family="Helvetica,sans-Serif" font-size="10.00" fill="#000000">Queue</text>
</a>
</g>
</g>
<!-- Node638&#45;&gt;Node639 -->
<g id="edge1" class="edge">
<title>Node638&#45;&gt;Node639</title>
<path fill="none" stroke="#191970" d="M134.0508,-29C142.375,-29 150.9973,-29 159.6183,-29"/>
<polygon fill="#191970" stroke="#191970" points="159.72,-32.5001 169.72,-29 159.72,-25.5001 159.72,-32.5001"/>
</g>
<!-- Node640 -->
<g id="node3" class="node">
<title>Node640</title>
<g id="a_node3"><a xlink:href="classEvent.html#aa67af0ae99b897e4f0ce42068c4e4c00" target="_top" xlink:title="Event::GetEventByType">
<polygon fill="#ffffff" stroke="#000000" points="380.5,-38.5 380.5,-57.5 511.5,-57.5 511.5,-38.5 380.5,-38.5"/>
<text text-anchor="middle" x="446" y="-45.5" font-family="Helvetica,sans-Serif" font-size="10.00" fill="#000000">Event::GetEventByType</text>
</a>
</g>
</g>
<!-- Node639&#45;&gt;Node640 -->
<g id="edge2" class="edge">
<title>Node639&#45;&gt;Node640</title>
<path fill="none" stroke="#191970" d="M334.2735,-37.0577C346.1746,-38.2233 358.3786,-39.4185 370.1461,-40.571"/>
<polygon fill="#191970" stroke="#191970" points="370.0628,-44.0795 380.3564,-41.571 370.7452,-37.1128 370.0628,-44.0795"/>
</g>
<!-- Node641 -->
<g id="node4" class="node">
<title>Node641</title>
<g id="a_node4"><a xlink:href="classEventManager.html#a215075d1cc20ee7e2d55e9bb54ca516f" target="_top" xlink:title="EventManager::QueueEvent">
<polygon fill="#ffffff" stroke="#000000" points="370,-.5 370,-19.5 522,-19.5 522,-.5 370,-.5"/>
<text text-anchor="middle" x="446" y="-7.5" font-family="Helvetica,sans-Serif" font-size="10.00" fill="#000000">EventManager::QueueEvent</text>
</a>
</g>
</g>
<!-- Node639&#45;&gt;Node641 -->
<g id="edge3" class="edge">
<title>Node639&#45;&gt;Node641</title>
<path fill="none" stroke="#191970" d="M334.2735,-20.9423C342.6432,-20.1226 351.1628,-19.2882 359.575,-18.4643"/>
<polygon fill="#191970" stroke="#191970" points="360.1543,-21.9244 369.7655,-17.4663 359.4719,-14.9577 360.1543,-21.9244"/>
</g>
</g>
</svg>
