<?xml version="1.0" encoding="UTF-8" standalone="no"?>
<!DOCTYPE svg PUBLIC "-//W3C//DTD SVG 1.1//EN"
 "http://www.w3.org/Graphics/SVG/1.1/DTD/svg11.dtd">
<!-- Generated by graphviz version 2.40.1 (20161225.0304)
 -->
<!-- Title: LoopManager::GetCurSave Pages: 1 -->
<svg width="482pt" height="39pt"
 viewBox="0.00 0.00 482.00 39.00" xmlns="http://www.w3.org/2000/svg" xmlns:xlink="http://www.w3.org/1999/xlink">
<g id="graph0" class="graph" transform="scale(1 1) rotate(0) translate(4 35)">
<title>LoopManager::GetCurSave</title>
<polygon fill="#ffffff" stroke="transparent" points="-4,4 -4,-35 478,-35 478,4 -4,4"/>
<!-- Node367 -->
<g id="node1" class="node">
<title>Node367</title>
<polygon fill="#bfbfbf" stroke="#000000" points="0,-6 0,-25 146,-25 146,-6 0,-6"/>
<text text-anchor="middle" x="73" y="-13" font-family="Helvetica,sans-Serif" font-size="10.00" fill="#000000">LoopManager::GetCurSave</text>
</g>
<!-- Node368 -->
<g id="node2" class="node">
<title>Node368</title>
<g id="a_node2"><a xlink:href="classVideoIO.html#a50e4ccae99e278ed7d65d9db86f18c92" target="_top" xlink:title="VideoIO::video_event_loop">
<polygon fill="#ffffff" stroke="#000000" points="182,-6 182,-25 329,-25 329,-6 182,-6"/>
<text text-anchor="middle" x="255.5" y="-13" font-family="Helvetica,sans-Serif" font-size="10.00" fill="#000000">VideoIO::video_event_loop</text>
</a>
</g>
</g>
<!-- Node367&#45;&gt;Node368 -->
<g id="edge1" class="edge">
<title>Node367&#45;&gt;Node368</title>
<path fill="none" stroke="#191970" d="M156.4096,-15.5C164.8502,-15.5 173.3809,-15.5 181.71,-15.5"/>
<polygon fill="#191970" stroke="#191970" points="156.1782,-12.0001 146.1782,-15.5 156.1781,-19.0001 156.1782,-12.0001"/>
</g>
<!-- Node369 -->
<g id="node3" class="node">
<title>Node369</title>
<g id="a_node3"><a xlink:href="classVideoIO.html#adb25c81a2bfe792fd4f64e23a4e21176" target="_top" xlink:title="VideoIO::run_video\l_thread">
<polygon fill="#ffffff" stroke="#000000" points="365,-.5 365,-30.5 474,-30.5 474,-.5 365,-.5"/>
<text text-anchor="start" x="373" y="-18.5" font-family="Helvetica,sans-Serif" font-size="10.00" fill="#000000">VideoIO::run_video</text>
<text text-anchor="middle" x="419.5" y="-7.5" font-family="Helvetica,sans-Serif" font-size="10.00" fill="#000000">_thread</text>
</a>
</g>
</g>
<!-- Node368&#45;&gt;Node369 -->
<g id="edge2" class="edge">
<title>Node368&#45;&gt;Node369</title>
<path fill="none" stroke="#191970" d="M339.4193,-15.5C348.0101,-15.5 356.5729,-15.5 364.7301,-15.5"/>
<polygon fill="#191970" stroke="#191970" points="339.3441,-12.0001 329.344,-15.5 339.344,-19.0001 339.3441,-12.0001"/>
</g>
</g>
</svg>
