<?xml version="1.0" encoding="UTF-8" standalone="no"?>
<!DOCTYPE svg PUBLIC "-//W3C//DTD SVG 1.1//EN"
 "http://www.w3.org/Graphics/SVG/1.1/DTD/svg11.dtd">
<!-- Generated by graphviz version 2.40.1 (20161225.0304)
 -->
<!-- Title: AudioIO::timebase_callback Pages: 1 -->
<svg width="416pt" height="47pt"
 viewBox="0.00 0.00 416.00 47.00" xmlns="http://www.w3.org/2000/svg" xmlns:xlink="http://www.w3.org/1999/xlink">
<g id="graph0" class="graph" transform="scale(1 1) rotate(0) translate(4 43)">
<title>AudioIO::timebase_callback</title>
<polygon fill="#ffffff" stroke="transparent" points="-4,4 -4,-43 412,-43 412,4 -4,4"/>
<!-- Node153 -->
<g id="node1" class="node">
<title>Node153</title>
<polygon fill="#bfbfbf" stroke="#000000" points="0,-.5 0,-19.5 152,-19.5 152,-.5 0,-.5"/>
<text text-anchor="middle" x="76" y="-7.5" font-family="Helvetica,sans-Serif" font-size="10.00" fill="#000000">AudioIO::timebase_callback</text>
</g>
<!-- Node154 -->
<g id="node2" class="node">
<title>Node154</title>
<g id="a_node2"><a xlink:href="classAudioIO.html#a1e4157d1900df901a60d5a2260d7509c" target="_top" xlink:title="AudioIO::open">
<polygon fill="#ffffff" stroke="#000000" points="188,-19.5 188,-38.5 273,-38.5 273,-19.5 188,-19.5"/>
<text text-anchor="middle" x="230.5" y="-26.5" font-family="Helvetica,sans-Serif" font-size="10.00" fill="#000000">AudioIO::open</text>
</a>
</g>
</g>
<!-- Node153&#45;&gt;Node154 -->
<g id="edge1" class="edge">
<title>Node153&#45;&gt;Node154</title>
<path fill="none" stroke="#191970" d="M162.305,-20.6136C171.0891,-21.6938 179.7149,-22.7546 187.7196,-23.739"/>
<polygon fill="#191970" stroke="#191970" points="162.6972,-17.1355 152.3447,-19.3887 161.8427,-24.0832 162.6972,-17.1355"/>
</g>
<!-- Node155 -->
<g id="node3" class="node">
<title>Node155</title>
<g id="a_node3"><a xlink:href="classAudioIO.html#a012ce924f59ced78f2fac75e6e33b55c" target="_top" xlink:title="AudioIO::AudioIO">
<polygon fill="#ffffff" stroke="#000000" points="309,-.5 309,-19.5 408,-19.5 408,-.5 309,-.5"/>
<text text-anchor="middle" x="358.5" y="-7.5" font-family="Helvetica,sans-Serif" font-size="10.00" fill="#000000">AudioIO::AudioIO</text>
</a>
</g>
</g>
<!-- Node153&#45;&gt;Node155 -->
<g id="edge3" class="edge">
<title>Node153&#45;&gt;Node155</title>
<path fill="none" stroke="#191970" d="M162.146,-10C210.0961,-10 268.0935,-10 308.574,-10"/>
<polygon fill="#191970" stroke="#191970" points="162.0765,-6.5001 152.0764,-10 162.0764,-13.5001 162.0765,-6.5001"/>
</g>
<!-- Node154&#45;&gt;Node155 -->
<g id="edge2" class="edge">
<title>Node154&#45;&gt;Node155</title>
<path fill="none" stroke="#191970" d="M283.0252,-21.2033C291.6053,-19.9297 300.4699,-18.6138 308.9747,-17.3514"/>
<polygon fill="#191970" stroke="#191970" points="282.4998,-17.7428 273.1221,-22.6733 283.5277,-24.667 282.4998,-17.7428"/>
</g>
</g>
</svg>
