<?xml version="1.0" encoding="UTF-8" standalone="no"?>
<!DOCTYPE svg PUBLIC "-//W3C//DTD SVG 1.1//EN"
 "http://www.w3.org/Graphics/SVG/1.1/DTD/svg11.dtd">
<!-- Generated by graphviz version 2.40.1 (20161225.0304)
 -->
<!-- Title: LoopList::Remove Pages: 1 -->
<svg width="880pt" height="120pt"
 viewBox="0.00 0.00 880.00 120.00" xmlns="http://www.w3.org/2000/svg" xmlns:xlink="http://www.w3.org/1999/xlink">
<g id="graph0" class="graph" transform="scale(1 1) rotate(0) translate(4 116)">
<title>LoopList::Remove</title>
<polygon fill="#ffffff" stroke="transparent" points="-4,4 -4,-116 876,-116 876,4 -4,4"/>
<!-- Node8 -->
<g id="node1" class="node">
<title>Node8</title>
<polygon fill="#bfbfbf" stroke="#000000" points="0,-.5 0,-19.5 103,-19.5 103,-.5 0,-.5"/>
<text text-anchor="middle" x="51.5" y="-7.5" font-family="Helvetica,sans-Serif" font-size="10.00" fill="#000000">LoopList::Remove</text>
</g>
<!-- Node9 -->
<g id="node2" class="node">
<title>Node9</title>
<g id="a_node2"><a xlink:href="classLoopManager.html#af9b1708b49b00b353059227a458e1887" target="_top" xlink:title="LoopManager::UpdateLoopLists\l_ItemRemoved">
<polygon fill="#ffffff" stroke="#000000" points="139,-33 139,-63 308,-63 308,-33 139,-33"/>
<text text-anchor="start" x="147" y="-51" font-family="Helvetica,sans-Serif" font-size="10.00" fill="#000000">LoopManager::UpdateLoopLists</text>
<text text-anchor="middle" x="223.5" y="-40" font-family="Helvetica,sans-Serif" font-size="10.00" fill="#000000">_ItemRemoved</text>
</a>
</g>
</g>
<!-- Node8&#45;&gt;Node9 -->
<g id="edge1" class="edge">
<title>Node8&#45;&gt;Node9</title>
<path fill="none" stroke="#191970" d="M105.0797,-21.8374C120.9887,-25.3522 138.6317,-29.25 155.3358,-32.9405"/>
<polygon fill="#191970" stroke="#191970" points="105.4225,-18.3288 94.9029,-19.589 103.9123,-25.1639 105.4225,-18.3288"/>
</g>
<!-- Node13 -->
<g id="node6" class="node">
<title>Node13</title>
<g id="a_node6"><a xlink:href="classLoopManager.html#a4aada2d07b7ce0a67a8119ece4805966" target="_top" xlink:title="LoopManager::ReceiveEvent">
<polygon fill="#ffffff" stroke="#000000" points="718,-16.5 718,-35.5 872,-35.5 872,-16.5 718,-16.5"/>
<text text-anchor="middle" x="795" y="-23.5" font-family="Helvetica,sans-Serif" font-size="10.00" fill="#000000">LoopManager::ReceiveEvent</text>
</a>
</g>
</g>
<!-- Node8&#45;&gt;Node13 -->
<g id="edge7" class="edge">
<title>Node8&#45;&gt;Node13</title>
<path fill="none" stroke="#191970" d="M113.3657,-11.3313C248.4762,-14.2389 569.654,-21.1506 717.7571,-24.3377"/>
<polygon fill="#191970" stroke="#191970" points="113.2642,-7.8284 103.1912,-11.1124 113.1135,-14.8268 113.2642,-7.8284"/>
</g>
<!-- Node10 -->
<g id="node3" class="node">
<title>Node10</title>
<g id="a_node3"><a xlink:href="classLoopManager.html#a332a9868980750f28fbf0e05b2336174" target="_top" xlink:title="LoopManager::DeleteLoop">
<polygon fill="#ffffff" stroke="#000000" points="344,-46.5 344,-65.5 487,-65.5 487,-46.5 344,-46.5"/>
<text text-anchor="middle" x="415.5" y="-53.5" font-family="Helvetica,sans-Serif" font-size="10.00" fill="#000000">LoopManager::DeleteLoop</text>
</a>
</g>
</g>
<!-- Node9&#45;&gt;Node10 -->
<g id="edge2" class="edge">
<title>Node9&#45;&gt;Node10</title>
<path fill="none" stroke="#191970" d="M318.3132,-51.9506C326.885,-52.3077 335.4694,-52.6654 343.793,-53.0122"/>
<polygon fill="#191970" stroke="#191970" points="318.41,-48.4516 308.2729,-51.5322 318.1185,-55.4456 318.41,-48.4516"/>
</g>
<!-- Node11 -->
<g id="node4" class="node">
<title>Node11</title>
<g id="a_node4"><a xlink:href="classLoopManager.html#a6048a702c9cec3676a1c56792b16ec44" target="_top" xlink:title="LoopManager::ReadComplete">
<polygon fill="#ffffff" stroke="#000000" points="523,-92.5 523,-111.5 682,-111.5 682,-92.5 523,-92.5"/>
<text text-anchor="middle" x="602.5" y="-99.5" font-family="Helvetica,sans-Serif" font-size="10.00" fill="#000000">LoopManager::ReadComplete</text>
</a>
</g>
</g>
<!-- Node10&#45;&gt;Node11 -->
<g id="edge3" class="edge">
<title>Node10&#45;&gt;Node11</title>
<path fill="none" stroke="#191970" d="M463.0403,-68.0651C481.7199,-72.7731 503.3553,-78.1857 523,-83 535.6803,-86.1076 549.5141,-89.4354 562.0346,-92.4239"/>
<polygon fill="#191970" stroke="#191970" points="463.8364,-64.6563 453.2839,-65.6025 462.1232,-71.4435 463.8364,-64.6563"/>
</g>
<!-- Node12 -->
<g id="node5" class="node">
<title>Node12</title>
<g id="a_node5"><a xlink:href="classLoopManager.html#a8efb4c8acabceb10faa8660c14c89d71" target="_top" xlink:title="LoopManager::DeletePulse">
<polygon fill="#ffffff" stroke="#000000" points="529.5,-54.5 529.5,-73.5 675.5,-73.5 675.5,-54.5 529.5,-54.5"/>
<text text-anchor="middle" x="602.5" y="-61.5" font-family="Helvetica,sans-Serif" font-size="10.00" fill="#000000">LoopManager::DeletePulse</text>
</a>
</g>
</g>
<!-- Node10&#45;&gt;Node12 -->
<g id="edge4" class="edge">
<title>Node10&#45;&gt;Node12</title>
<path fill="none" stroke="#191970" d="M497.3914,-59.5034C508.0385,-59.9589 518.8895,-60.4231 529.3807,-60.8719"/>
<polygon fill="#191970" stroke="#191970" points="497.4048,-56.0008 487.2643,-59.0701 497.1055,-62.9944 497.4048,-56.0008"/>
</g>
<!-- Node10&#45;&gt;Node13 -->
<g id="edge6" class="edge">
<title>Node10&#45;&gt;Node13</title>
<path fill="none" stroke="#191970" d="M497.316,-47.351C505.9836,-46.5175 514.6706,-45.7169 523,-45 588.6744,-39.3476 663.3806,-34.2228 717.8616,-30.7239"/>
<polygon fill="#191970" stroke="#191970" points="496.7849,-43.8861 487.1724,-48.3415 497.4653,-50.853 496.7849,-43.8861"/>
</g>
<!-- Node12&#45;&gt;Node13 -->
<g id="edge5" class="edge">
<title>Node12&#45;&gt;Node13</title>
<path fill="none" stroke="#191970" d="M660.9498,-52.4619C688.4057,-47.042 720.7405,-40.659 746.7734,-35.5201"/>
<polygon fill="#191970" stroke="#191970" points="660.2087,-49.0405 651.0759,-54.411 661.5644,-55.908 660.2087,-49.0405"/>
</g>
</g>
</svg>
