<?xml version="1.0" encoding="UTF-8" standalone="no"?>
<!DOCTYPE svg PUBLIC "-//W3C//DTD SVG 1.1//EN"
 "http://www.w3.org/Graphics/SVG/1.1/DTD/svg11.dtd">
<!-- Generated by graphviz version 2.40.1 (20161225.0304)
 -->
<!-- Title: Processor::fadepreandcurrent Pages: 1 -->
<svg width="344pt" height="104pt"
 viewBox="0.00 0.00 344.00 104.00" xmlns="http://www.w3.org/2000/svg" xmlns:xlink="http://www.w3.org/1999/xlink">
<g id="graph0" class="graph" transform="scale(1 1) rotate(0) translate(4 100)">
<title>Processor::fadepreandcurrent</title>
<polygon fill="#ffffff" stroke="transparent" points="-4,4 -4,-100 340,-100 340,4 -4,4"/>
<!-- Node27 -->
<g id="node1" class="node">
<title>Node27</title>
<polygon fill="#bfbfbf" stroke="#000000" points="0,-38.5 0,-57.5 160,-57.5 160,-38.5 0,-38.5"/>
<text text-anchor="middle" x="80" y="-45.5" font-family="Helvetica,sans-Serif" font-size="10.00" fill="#000000">Processor::fadepreandcurrent</text>
</g>
<!-- Node28 -->
<g id="node2" class="node">
<title>Node28</title>
<g id="a_node2"><a xlink:href="classRootProcessor.html#a014d1405fbd7d67ee4edeb19713ded04" target="_top" xlink:title="RootProcessor::process">
<polygon fill="#ffffff" stroke="#000000" points="201.5,-76.5 201.5,-95.5 330.5,-95.5 330.5,-76.5 201.5,-76.5"/>
<text text-anchor="middle" x="266" y="-83.5" font-family="Helvetica,sans-Serif" font-size="10.00" fill="#000000">RootProcessor::process</text>
</a>
</g>
</g>
<!-- Node27&#45;&gt;Node28 -->
<g id="edge1" class="edge">
<title>Node27&#45;&gt;Node28</title>
<path fill="none" stroke="#191970" d="M136.8255,-59.6095C163.279,-65.014 194.3583,-71.3635 219.4019,-76.4799"/>
<polygon fill="#191970" stroke="#191970" points="137.4339,-56.1616 126.9357,-57.589 136.0327,-63.0199 137.4339,-56.1616"/>
</g>
<!-- Node29 -->
<g id="node3" class="node">
<title>Node29</title>
<g id="a_node3"><a xlink:href="classRecordProcessor.html#ad36d69ec9d41b424eb2e6c5fa2e0cf3a" target="_top" xlink:title="RecordProcessor::process">
<polygon fill="#ffffff" stroke="#000000" points="196,-38.5 196,-57.5 336,-57.5 336,-38.5 196,-38.5"/>
<text text-anchor="middle" x="266" y="-45.5" font-family="Helvetica,sans-Serif" font-size="10.00" fill="#000000">RecordProcessor::process</text>
</a>
</g>
</g>
<!-- Node27&#45;&gt;Node29 -->
<g id="edge2" class="edge">
<title>Node27&#45;&gt;Node29</title>
<path fill="none" stroke="#191970" d="M170.318,-48C178.9384,-48 187.5896,-48 195.9749,-48"/>
<polygon fill="#191970" stroke="#191970" points="170.2303,-44.5001 160.2303,-48 170.2303,-51.5001 170.2303,-44.5001"/>
</g>
<!-- Node30 -->
<g id="node4" class="node">
<title>Node30</title>
<g id="a_node4"><a xlink:href="classPlayProcessor.html#a46bc1b738f48261e0c430f7345f4d99f" target="_top" xlink:title="PlayProcessor::process">
<polygon fill="#ffffff" stroke="#000000" points="202,-.5 202,-19.5 330,-19.5 330,-.5 202,-.5"/>
<text text-anchor="middle" x="266" y="-7.5" font-family="Helvetica,sans-Serif" font-size="10.00" fill="#000000">PlayProcessor::process</text>
</a>
</g>
</g>
<!-- Node27&#45;&gt;Node30 -->
<g id="edge3" class="edge">
<title>Node27&#45;&gt;Node30</title>
<path fill="none" stroke="#191970" d="M136.8255,-36.3905C163.279,-30.986 194.3583,-24.6365 219.4019,-19.5201"/>
<polygon fill="#191970" stroke="#191970" points="136.0327,-32.9801 126.9357,-38.411 137.4339,-39.8384 136.0327,-32.9801"/>
</g>
</g>
</svg>
