<?xml version="1.0" encoding="UTF-8" standalone="no"?>
<!DOCTYPE svg PUBLIC "-//W3C//DTD SVG 1.1//EN"
 "http://www.w3.org/Graphics/SVG/1.1/DTD/svg11.dtd">
<!-- Generated by graphviz version 2.40.1 (20161225.0304)
 -->
<!-- Title: FloConfig::AddEventHook Pages: 1 -->
<svg width="683pt" height="116pt"
 viewBox="0.00 0.00 683.00 115.50" xmlns="http://www.w3.org/2000/svg" xmlns:xlink="http://www.w3.org/1999/xlink">
<g id="graph0" class="graph" transform="scale(1 1) rotate(0) translate(4 111.5)">
<title>FloConfig::AddEventHook</title>
<polygon fill="#ffffff" stroke="transparent" points="-4,4 -4,-111.5 679,-111.5 679,4 -4,4"/>
<!-- Node7 -->
<g id="node1" class="node">
<title>Node7</title>
<polygon fill="#bfbfbf" stroke="#000000" points="0,-50 0,-69 140,-69 140,-50 0,-50"/>
<text text-anchor="middle" x="70" y="-57" font-family="Helvetica,sans-Serif" font-size="10.00" fill="#000000">FloConfig::AddEventHook</text>
</g>
<!-- Node8 -->
<g id="node2" class="node">
<title>Node8</title>
<g id="a_node2"><a xlink:href="classItemRenamer.html#a142fa081aa16f3ce9bddfcb44619a90f" target="_top" xlink:title="ItemRenamer::ItemRenamer">
<polygon fill="#ffffff" stroke="#000000" points="176,-50 176,-69 331,-69 331,-50 176,-50"/>
<text text-anchor="middle" x="253.5" y="-57" font-family="Helvetica,sans-Serif" font-size="10.00" fill="#000000">ItemRenamer::ItemRenamer</text>
</a>
</g>
</g>
<!-- Node7&#45;&gt;Node8 -->
<g id="edge1" class="edge">
<title>Node7&#45;&gt;Node8</title>
<path fill="none" stroke="#191970" d="M150.3526,-59.5C158.7785,-59.5 167.3347,-59.5 175.7309,-59.5"/>
<polygon fill="#191970" stroke="#191970" points="150.159,-56.0001 140.1589,-59.5 150.1589,-63.0001 150.159,-56.0001"/>
</g>
<!-- Node9 -->
<g id="node3" class="node">
<title>Node9</title>
<g id="a_node3"><a xlink:href="classBrowser.html#a517f5d012c377402b3bdbfd10e4c8db5" target="_top" xlink:title="Browser::Rename">
<polygon fill="#ffffff" stroke="#000000" points="375,-88 375,-107 477,-107 477,-88 375,-88"/>
<text text-anchor="middle" x="426" y="-95" font-family="Helvetica,sans-Serif" font-size="10.00" fill="#000000">Browser::Rename</text>
</a>
</g>
</g>
<!-- Node8&#45;&gt;Node9 -->
<g id="edge2" class="edge">
<title>Node8&#45;&gt;Node9</title>
<path fill="none" stroke="#191970" d="M306.8505,-71.2526C331.242,-76.6258 359.7627,-82.9086 382.784,-87.9799"/>
<polygon fill="#191970" stroke="#191970" points="307.5479,-67.8224 297.029,-69.089 306.0419,-74.6584 307.5479,-67.8224"/>
</g>
<!-- Node10 -->
<g id="node4" class="node">
<title>Node10</title>
<g id="a_node4"><a xlink:href="classLoopTray.html#a2b7540addc2966370cc4034d36c552f8" target="_top" xlink:title="LoopTray::Rename">
<polygon fill="#ffffff" stroke="#000000" points="373.5,-50 373.5,-69 478.5,-69 478.5,-50 373.5,-50"/>
<text text-anchor="middle" x="426" y="-57" font-family="Helvetica,sans-Serif" font-size="10.00" fill="#000000">LoopTray::Rename</text>
</a>
</g>
</g>
<!-- Node8&#45;&gt;Node10 -->
<g id="edge3" class="edge">
<title>Node8&#45;&gt;Node10</title>
<path fill="none" stroke="#191970" d="M341.2636,-59.5C352.2652,-59.5 363.2341,-59.5 373.4537,-59.5"/>
<polygon fill="#191970" stroke="#191970" points="341.1714,-56.0001 331.1713,-59.5 341.1713,-63.0001 341.1714,-56.0001"/>
</g>
<!-- Node11 -->
<g id="node5" class="node">
<title>Node11</title>
<g id="a_node5"><a xlink:href="classFloDisplaySnapshots.html#afb7aeeaa71af5466e371927d3c11f39f" target="_top" xlink:title="FloDisplaySnapshots\l::Rename">
<polygon fill="#ffffff" stroke="#000000" points="367,-.5 367,-30.5 485,-30.5 485,-.5 367,-.5"/>
<text text-anchor="start" x="375" y="-18.5" font-family="Helvetica,sans-Serif" font-size="10.00" fill="#000000">FloDisplaySnapshots</text>
<text text-anchor="middle" x="426" y="-7.5" font-family="Helvetica,sans-Serif" font-size="10.00" fill="#000000">::Rename</text>
</a>
</g>
</g>
<!-- Node8&#45;&gt;Node11 -->
<g id="edge4" class="edge">
<title>Node8&#45;&gt;Node11</title>
<path fill="none" stroke="#191970" d="M300.648,-47.4739C321.1093,-42.2547 345.295,-36.0856 366.9369,-30.5654"/>
<polygon fill="#191970" stroke="#191970" points="299.7546,-44.0896 290.9299,-49.9527 301.4848,-50.8724 299.7546,-44.0896"/>
</g>
<!-- Node12 -->
<g id="node6" class="node">
<title>Node12</title>
<g id="a_node6"><a xlink:href="classLoopManager.html#a4aada2d07b7ce0a67a8119ece4805966" target="_top" xlink:title="LoopManager::ReceiveEvent">
<polygon fill="#ffffff" stroke="#000000" points="521,-6 521,-25 675,-25 675,-6 521,-6"/>
<text text-anchor="middle" x="598" y="-13" font-family="Helvetica,sans-Serif" font-size="10.00" fill="#000000">LoopManager::ReceiveEvent</text>
</a>
</g>
</g>
<!-- Node11&#45;&gt;Node12 -->
<g id="edge5" class="edge">
<title>Node11&#45;&gt;Node12</title>
<path fill="none" stroke="#191970" d="M495.2909,-15.5C503.6778,-15.5 512.2852,-15.5 520.7772,-15.5"/>
<polygon fill="#191970" stroke="#191970" points="495.1927,-12.0001 485.1926,-15.5 495.1926,-19.0001 495.1927,-12.0001"/>
</g>
</g>
</svg>
