<?xml version="1.0" encoding="UTF-8" standalone="no"?>
<!DOCTYPE svg PUBLIC "-//W3C//DTD SVG 1.1//EN"
 "http://www.w3.org/Graphics/SVG/1.1/DTD/svg11.dtd">
<!-- Generated by graphviz version 2.40.1 (20161225.0304)
 -->
<!-- Title: LoopManager::GetLoopdVolume Pages: 1 -->
<svg width="328pt" height="66pt"
 viewBox="0.00 0.00 328.00 66.00" xmlns="http://www.w3.org/2000/svg" xmlns:xlink="http://www.w3.org/1999/xlink">
<g id="graph0" class="graph" transform="scale(1 1) rotate(0) translate(4 62)">
<title>LoopManager::GetLoopdVolume</title>
<polygon fill="#ffffff" stroke="transparent" points="-4,4 -4,-62 324,-62 324,4 -4,4"/>
<!-- Node397 -->
<g id="node1" class="node">
<title>Node397</title>
<polygon fill="#bfbfbf" stroke="#000000" points="0,-19.5 0,-38.5 171,-38.5 171,-19.5 0,-19.5"/>
<text text-anchor="middle" x="85.5" y="-26.5" font-family="Helvetica,sans-Serif" font-size="10.00" fill="#000000">LoopManager::GetLoopdVolume</text>
</g>
<!-- Node398 -->
<g id="node2" class="node">
<title>Node398</title>
<g id="a_node2"><a xlink:href="classFweelin.html#a10bb364ecf38990653b49a98c5a89c90" target="_top" xlink:title="Fweelin::getTMAP">
<polygon fill="#ffffff" stroke="#000000" points="212,-38.5 212,-57.5 315,-57.5 315,-38.5 212,-38.5"/>
<text text-anchor="middle" x="263.5" y="-45.5" font-family="Helvetica,sans-Serif" font-size="10.00" fill="#000000">Fweelin::getTMAP</text>
</a>
</g>
</g>
<!-- Node397&#45;&gt;Node398 -->
<g id="edge1" class="edge">
<title>Node397&#45;&gt;Node398</title>
<path fill="none" stroke="#191970" d="M171.1111,-38.1383C181.423,-39.239 191.7956,-40.3462 201.6742,-41.4006"/>
<polygon fill="#191970" stroke="#191970" points="201.4515,-44.8966 211.7666,-42.4779 202.1946,-37.9362 201.4515,-44.8966"/>
</g>
<!-- Node399 -->
<g id="node3" class="node">
<title>Node399</title>
<g id="a_node3"><a xlink:href="classTriggerMap.html#aca3f85b40f3aa29a280c2d7511b84217" target="_top" xlink:title="TriggerMap::GetMap">
<polygon fill="#ffffff" stroke="#000000" points="207,-.5 207,-19.5 320,-19.5 320,-.5 207,-.5"/>
<text text-anchor="middle" x="263.5" y="-7.5" font-family="Helvetica,sans-Serif" font-size="10.00" fill="#000000">TriggerMap::GetMap</text>
</a>
</g>
</g>
<!-- Node397&#45;&gt;Node399 -->
<g id="edge2" class="edge">
<title>Node397&#45;&gt;Node399</title>
<path fill="none" stroke="#191970" d="M171.1111,-19.8617C179.7224,-18.9426 188.3761,-18.0188 196.749,-17.1251"/>
<polygon fill="#191970" stroke="#191970" points="197.2293,-20.5938 206.8013,-16.0521 196.4862,-13.6334 197.2293,-20.5938"/>
</g>
</g>
</svg>
