<?xml version="1.0" encoding="UTF-8" standalone="no"?>
<!DOCTYPE svg PUBLIC "-//W3C//DTD SVG 1.1//EN"
 "http://www.w3.org/Graphics/SVG/1.1/DTD/svg11.dtd">
<!-- Generated by graphviz version 2.40.1 (20161225.0304)
 -->
<!-- Title: LoopManager::SetLoopdVolume Pages: 1 -->
<svg width="327pt" height="66pt"
 viewBox="0.00 0.00 327.00 66.00" xmlns="http://www.w3.org/2000/svg" xmlns:xlink="http://www.w3.org/1999/xlink">
<g id="graph0" class="graph" transform="scale(1 1) rotate(0) translate(4 62)">
<title>LoopManager::SetLoopdVolume</title>
<polygon fill="#ffffff" stroke="transparent" points="-4,4 -4,-62 323,-62 323,4 -4,4"/>
<!-- Node1023 -->
<g id="node1" class="node">
<title>Node1023</title>
<polygon fill="#bfbfbf" stroke="#000000" points="0,-19.5 0,-38.5 170,-38.5 170,-19.5 0,-19.5"/>
<text text-anchor="middle" x="85" y="-26.5" font-family="Helvetica,sans-Serif" font-size="10.00" fill="#000000">LoopManager::SetLoopdVolume</text>
</g>
<!-- Node1024 -->
<g id="node2" class="node">
<title>Node1024</title>
<g id="a_node2"><a xlink:href="classFweelin.html#a10bb364ecf38990653b49a98c5a89c90" target="_top" xlink:title="Fweelin::getTMAP">
<polygon fill="#ffffff" stroke="#000000" points="211,-38.5 211,-57.5 314,-57.5 314,-38.5 211,-38.5"/>
<text text-anchor="middle" x="262.5" y="-45.5" font-family="Helvetica,sans-Serif" font-size="10.00" fill="#000000">Fweelin::getTMAP</text>
</a>
</g>
</g>
<!-- Node1023&#45;&gt;Node1024 -->
<g id="edge1" class="edge">
<title>Node1023&#45;&gt;Node1024</title>
<path fill="none" stroke="#191970" d="M170.1108,-38.1104C180.4122,-39.2131 190.7791,-40.3228 200.6551,-41.38"/>
<polygon fill="#191970" stroke="#191970" points="200.4302,-44.8758 210.7459,-42.4601 201.1753,-37.9156 200.4302,-44.8758"/>
</g>
<!-- Node1025 -->
<g id="node3" class="node">
<title>Node1025</title>
<g id="a_node3"><a xlink:href="classTriggerMap.html#aca3f85b40f3aa29a280c2d7511b84217" target="_top" xlink:title="TriggerMap::GetMap">
<polygon fill="#ffffff" stroke="#000000" points="206,-.5 206,-19.5 319,-19.5 319,-.5 206,-.5"/>
<text text-anchor="middle" x="262.5" y="-7.5" font-family="Helvetica,sans-Serif" font-size="10.00" fill="#000000">TriggerMap::GetMap</text>
</a>
</g>
</g>
<!-- Node1023&#45;&gt;Node1025 -->
<g id="edge2" class="edge">
<title>Node1023&#45;&gt;Node1025</title>
<path fill="none" stroke="#191970" d="M170.1108,-19.8896C178.7134,-18.9687 187.3616,-18.043 195.7315,-17.147"/>
<polygon fill="#191970" stroke="#191970" points="196.2105,-20.6159 205.7812,-16.0713 195.4654,-13.6556 196.2105,-20.6159"/>
</g>
</g>
</svg>
