<?xml version="1.0" encoding="UTF-8" standalone="no"?>
<!DOCTYPE svg PUBLIC "-//W3C//DTD SVG 1.1//EN"
 "http://www.w3.org/Graphics/SVG/1.1/DTD/svg11.dtd">
<!-- Generated by graphviz version 2.40.1 (20161225.0304)
 -->
<!-- Title: PreallocatedType::RTNew Pages: 1 -->
<svg width="977pt" height="294pt"
 viewBox="0.00 0.00 977.00 294.00" xmlns="http://www.w3.org/2000/svg" xmlns:xlink="http://www.w3.org/1999/xlink">
<g id="graph0" class="graph" transform="scale(1 1) rotate(0) translate(4 290)">
<title>PreallocatedType::RTNew</title>
<polygon fill="#ffffff" stroke="transparent" points="-4,4 -4,-290 973,-290 973,4 -4,4"/>
<!-- Node47 -->
<g id="node1" class="node">
<title>Node47</title>
<polygon fill="#bfbfbf" stroke="#000000" points="0,-114.5 0,-133.5 140,-133.5 140,-114.5 0,-114.5"/>
<text text-anchor="middle" x="70" y="-121.5" font-family="Helvetica,sans-Serif" font-size="10.00" fill="#000000">PreallocatedType::RTNew</text>
</g>
<!-- Node48 -->
<g id="node2" class="node">
<title>Node48</title>
<g id="a_node2"><a xlink:href="classAudioBlockIterator.html#a5cc11c9589308f5da0fea19c701c84b3" target="_top" xlink:title="AudioBlockIterator\l::PutFragment">
<polygon fill="#ffffff" stroke="#000000" points="214.5,-185 214.5,-215 321.5,-215 321.5,-185 214.5,-185"/>
<text text-anchor="start" x="222.5" y="-203" font-family="Helvetica,sans-Serif" font-size="10.00" fill="#000000">AudioBlockIterator</text>
<text text-anchor="middle" x="268" y="-192" font-family="Helvetica,sans-Serif" font-size="10.00" fill="#000000">::PutFragment</text>
</a>
</g>
</g>
<!-- Node47&#45;&gt;Node48 -->
<g id="edge1" class="edge">
<title>Node47&#45;&gt;Node48</title>
<path fill="none" stroke="#191970" d="M104.7736,-137.3475C139.4602,-150.6615 192.6537,-171.0792 228.815,-184.9593"/>
<polygon fill="#191970" stroke="#191970" points="105.667,-133.9414 95.0768,-133.6255 103.1585,-140.4765 105.667,-133.9414"/>
</g>
<!-- Node54 -->
<g id="node8" class="node">
<title>Node54</title>
<g id="a_node8"><a xlink:href="classRecordProcessor.html#aa20c0f68a5ee5e4739759b3783b6e4d1" target="_top" xlink:title="RecordProcessor::RecordProcessor">
<polygon fill="#ffffff" stroke="#000000" points="596,-95.5 596,-114.5 779,-114.5 779,-95.5 596,-95.5"/>
<text text-anchor="middle" x="687.5" y="-102.5" font-family="Helvetica,sans-Serif" font-size="10.00" fill="#000000">RecordProcessor::RecordProcessor</text>
</a>
</g>
</g>
<!-- Node47&#45;&gt;Node54 -->
<g id="edge7" class="edge">
<title>Node47&#45;&gt;Node54</title>
<path fill="none" stroke="#191970" d="M150.3538,-121.5276C265.058,-117.9982 475.1739,-111.5331 595.8125,-107.8212"/>
<polygon fill="#191970" stroke="#191970" points="150.1215,-118.033 140.2339,-121.839 150.3369,-125.0297 150.1215,-118.033"/>
</g>
<!-- Node55 -->
<g id="node9" class="node">
<title>Node55</title>
<g id="a_node9"><a xlink:href="classPreallocatedType.html#a232eab10b1d49ee50f435d175c4ceda5" target="_top" xlink:title="PreallocatedType::RTNewWithWait">
<polygon fill="#ffffff" stroke="#000000" points="176,-57.5 176,-76.5 360,-76.5 360,-57.5 176,-57.5"/>
<text text-anchor="middle" x="268" y="-64.5" font-family="Helvetica,sans-Serif" font-size="10.00" fill="#000000">PreallocatedType::RTNewWithWait</text>
</a>
</g>
</g>
<!-- Node47&#45;&gt;Node55 -->
<g id="edge8" class="edge">
<title>Node47&#45;&gt;Node55</title>
<path fill="none" stroke="#191970" d="M113.0215,-111.615C149.578,-101.0912 201.303,-86.2007 234.7511,-76.5716"/>
<polygon fill="#191970" stroke="#191970" points="111.7822,-108.3296 103.1407,-114.4595 113.7188,-115.0564 111.7822,-108.3296"/>
</g>
<!-- Node49 -->
<g id="node3" class="node">
<title>Node49</title>
<g id="a_node3"><a xlink:href="classSndFileDecoder.html#a6f533159127e8f633a12c6fe3f86b4a2" target="_top" xlink:title="SndFileDecoder::ReadSamples">
<polygon fill="#ffffff" stroke="#000000" points="396,-266.5 396,-285.5 560,-285.5 560,-266.5 396,-266.5"/>
<text text-anchor="middle" x="478" y="-273.5" font-family="Helvetica,sans-Serif" font-size="10.00" fill="#000000">SndFileDecoder::ReadSamples</text>
</a>
</g>
</g>
<!-- Node48&#45;&gt;Node49 -->
<g id="edge2" class="edge">
<title>Node48&#45;&gt;Node49</title>
<path fill="none" stroke="#191970" d="M306.5038,-219.4698C331.5235,-231.5355 365.1164,-246.6516 396,-257 406.8078,-260.6214 418.642,-263.7999 429.8738,-266.4692"/>
<polygon fill="#191970" stroke="#191970" points="307.8805,-216.2472 297.358,-215.0112 304.813,-222.5394 307.8805,-216.2472"/>
</g>
<!-- Node50 -->
<g id="node4" class="node">
<title>Node50</title>
<g id="a_node4"><a xlink:href="classVorbisDecoder.html#a605d498b0a32990607910576964da546" target="_top" xlink:title="VorbisDecoder::ReadSamples">
<polygon fill="#ffffff" stroke="#000000" points="398.5,-228.5 398.5,-247.5 557.5,-247.5 557.5,-228.5 398.5,-228.5"/>
<text text-anchor="middle" x="478" y="-235.5" font-family="Helvetica,sans-Serif" font-size="10.00" fill="#000000">VorbisDecoder::ReadSamples</text>
</a>
</g>
</g>
<!-- Node48&#45;&gt;Node50 -->
<g id="edge3" class="edge">
<title>Node48&#45;&gt;Node50</title>
<path fill="none" stroke="#191970" d="M331.4777,-211.4864C361.4559,-216.9111 396.8169,-223.3097 425.2898,-228.462"/>
<polygon fill="#191970" stroke="#191970" points="331.9987,-208.0239 321.5352,-209.6873 330.7522,-214.9121 331.9987,-208.0239"/>
</g>
<!-- Node51 -->
<g id="node5" class="node">
<title>Node51</title>
<g id="a_node5"><a xlink:href="classRecordProcessor.html#a8fbde2e8b6f9e9dafb89ef0b06e6a11a" target="_top" xlink:title="RecordProcessor::Jump">
<polygon fill="#ffffff" stroke="#000000" points="414,-190.5 414,-209.5 542,-209.5 542,-190.5 414,-190.5"/>
<text text-anchor="middle" x="478" y="-197.5" font-family="Helvetica,sans-Serif" font-size="10.00" fill="#000000">RecordProcessor::Jump</text>
</a>
</g>
</g>
<!-- Node48&#45;&gt;Node51 -->
<g id="edge4" class="edge">
<title>Node48&#45;&gt;Node51</title>
<path fill="none" stroke="#191970" d="M331.6538,-200C357.6436,-200 387.6554,-200 413.7101,-200"/>
<polygon fill="#191970" stroke="#191970" points="331.5353,-196.5001 321.5352,-200 331.5352,-203.5001 331.5353,-196.5001"/>
</g>
<!-- Node53 -->
<g id="node7" class="node">
<title>Node53</title>
<g id="a_node7"><a xlink:href="classRecordProcessor.html#ad36d69ec9d41b424eb2e6c5fa2e0cf3a" target="_top" xlink:title="RecordProcessor::process">
<polygon fill="#ffffff" stroke="#000000" points="408,-152.5 408,-171.5 548,-171.5 548,-152.5 408,-152.5"/>
<text text-anchor="middle" x="478" y="-159.5" font-family="Helvetica,sans-Serif" font-size="10.00" fill="#000000">RecordProcessor::process</text>
</a>
</g>
</g>
<!-- Node48&#45;&gt;Node53 -->
<g id="edge6" class="edge">
<title>Node48&#45;&gt;Node53</title>
<path fill="none" stroke="#191970" d="M331.4777,-188.5136C361.4559,-183.0889 396.8169,-176.6903 425.2898,-171.538"/>
<polygon fill="#191970" stroke="#191970" points="330.7522,-185.0879 321.5352,-190.3127 331.9987,-191.9761 330.7522,-185.0879"/>
</g>
<!-- Node52 -->
<g id="node6" class="node">
<title>Node52</title>
<g id="a_node6"><a xlink:href="classRecordProcessor.html#a6168d8dc850602a348dc74ab1224263a" target="_top" xlink:title="RecordProcessor::PulseSync">
<polygon fill="#ffffff" stroke="#000000" points="611.5,-190.5 611.5,-209.5 763.5,-209.5 763.5,-190.5 611.5,-190.5"/>
<text text-anchor="middle" x="687.5" y="-197.5" font-family="Helvetica,sans-Serif" font-size="10.00" fill="#000000">RecordProcessor::PulseSync</text>
</a>
</g>
</g>
<!-- Node51&#45;&gt;Node52 -->
<g id="edge5" class="edge">
<title>Node51&#45;&gt;Node52</title>
<path fill="none" stroke="#191970" d="M552.4059,-200C571.4799,-200 592.023,-200 611.1914,-200"/>
<polygon fill="#191970" stroke="#191970" points="552.2807,-196.5001 542.2807,-200 552.2806,-203.5001 552.2807,-196.5001"/>
</g>
<!-- Node56 -->
<g id="node10" class="node">
<title>Node56</title>
<g id="a_node10"><a xlink:href="classBlockReadManager.html#af12804c61f944904eedf8c9edf5cd3bd" target="_top" xlink:title="BlockReadManager::Start">
<polygon fill="#ffffff" stroke="#000000" points="618,-38.5 618,-57.5 757,-57.5 757,-38.5 618,-38.5"/>
<text text-anchor="middle" x="687.5" y="-45.5" font-family="Helvetica,sans-Serif" font-size="10.00" fill="#000000">BlockReadManager::Start</text>
</a>
</g>
</g>
<!-- Node55&#45;&gt;Node56 -->
<g id="edge9" class="edge">
<title>Node55&#45;&gt;Node56</title>
<path fill="none" stroke="#191970" d="M370.2428,-62.3692C447.0598,-58.89 550.2423,-54.2167 617.7756,-51.158"/>
<polygon fill="#191970" stroke="#191970" points="369.8924,-58.8814 360.0611,-62.8304 370.2092,-65.8742 369.8924,-58.8814"/>
</g>
<!-- Node58 -->
<g id="node12" class="node">
<title>Node58</title>
<g id="a_node12"><a xlink:href="classBlockManager.html#ac12004ae7d335e81c7cbd463cd614b34" target="_top" xlink:title="BlockManager::GrowChainOn">
<polygon fill="#ffffff" stroke="#000000" points="399,-76.5 399,-95.5 557,-95.5 557,-76.5 399,-76.5"/>
<text text-anchor="middle" x="478" y="-83.5" font-family="Helvetica,sans-Serif" font-size="10.00" fill="#000000">BlockManager::GrowChainOn</text>
</a>
</g>
</g>
<!-- Node55&#45;&gt;Node58 -->
<g id="edge11" class="edge">
<title>Node55&#45;&gt;Node58</title>
<path fill="none" stroke="#191970" d="M370.1205,-76.2395C379.7518,-77.1109 389.4154,-77.9852 398.7869,-78.8331"/>
<polygon fill="#191970" stroke="#191970" points="370.3838,-72.7491 360.1091,-75.3337 369.753,-79.7206 370.3838,-72.7491"/>
</g>
<!-- Node59 -->
<g id="node13" class="node">
<title>Node59</title>
<g id="a_node13"><a xlink:href="classBlockManager.html#af050835c736257358a3f572f8422ff1d" target="_top" xlink:title="BlockManager::PeakAvgOn">
<polygon fill="#ffffff" stroke="#000000" points="404.5,-.5 404.5,-19.5 551.5,-19.5 551.5,-.5 404.5,-.5"/>
<text text-anchor="middle" x="478" y="-7.5" font-family="Helvetica,sans-Serif" font-size="10.00" fill="#000000">BlockManager::PeakAvgOn</text>
</a>
</g>
</g>
<!-- Node55&#45;&gt;Node59 -->
<g id="edge13" class="edge">
<title>Node55&#45;&gt;Node59</title>
<path fill="none" stroke="#191970" d="M313.1327,-54.7497C351.9317,-44.2185 407.1092,-29.2418 442.736,-19.5716"/>
<polygon fill="#191970" stroke="#191970" points="311.8832,-51.4621 303.1493,-57.4595 313.7169,-58.2177 311.8832,-51.4621"/>
</g>
<!-- Node57 -->
<g id="node11" class="node">
<title>Node57</title>
<g id="a_node11"><a xlink:href="classBlockReadManager.html#aa990976dec4a3ec5bd6384b54ce5f09b" target="_top" xlink:title="BlockReadManager::Manage">
<polygon fill="#ffffff" stroke="#000000" points="815,-38.5 815,-57.5 969,-57.5 969,-38.5 815,-38.5"/>
<text text-anchor="middle" x="892" y="-45.5" font-family="Helvetica,sans-Serif" font-size="10.00" fill="#000000">BlockReadManager::Manage</text>
</a>
</g>
</g>
<!-- Node56&#45;&gt;Node57 -->
<g id="edge10" class="edge">
<title>Node56&#45;&gt;Node57</title>
<path fill="none" stroke="#191970" d="M767.2097,-48C782.9047,-48 799.3454,-48 814.9508,-48"/>
<polygon fill="#191970" stroke="#191970" points="767.0198,-44.5001 757.0197,-48 767.0197,-51.5001 767.0198,-44.5001"/>
</g>
<!-- Node58&#45;&gt;Node54 -->
<g id="edge12" class="edge">
<title>Node58&#45;&gt;Node54</title>
<path fill="none" stroke="#191970" d="M567.3643,-94.1046C576.8042,-94.9608 586.4144,-95.8323 595.8793,-96.6907"/>
<polygon fill="#191970" stroke="#191970" points="567.4783,-90.6007 557.203,-93.1831 566.8459,-97.5721 567.4783,-90.6007"/>
</g>
<!-- Node59&#45;&gt;Node56 -->
<g id="edge14" class="edge">
<title>Node59&#45;&gt;Node56</title>
<path fill="none" stroke="#191970" d="M540.5575,-21.347C570.616,-26.7991 606.2397,-33.2607 634.8831,-38.4561"/>
<polygon fill="#191970" stroke="#191970" points="541.0594,-17.8809 530.5953,-19.54 539.8101,-24.7686 541.0594,-17.8809"/>
</g>
<!-- Node60 -->
<g id="node14" class="node">
<title>Node60</title>
<g id="a_node14"><a xlink:href="classRecordProcessor.html#a1aea5f833c59a12398b05b514b26b572" target="_top" xlink:title="RecordProcessor::RecordProcessor">
<polygon fill="#ffffff" stroke="#000000" points="596,-.5 596,-19.5 779,-19.5 779,-.5 596,-.5"/>
<text text-anchor="middle" x="687.5" y="-7.5" font-family="Helvetica,sans-Serif" font-size="10.00" fill="#000000">RecordProcessor::RecordProcessor</text>
</a>
</g>
</g>
<!-- Node59&#45;&gt;Node60 -->
<g id="edge15" class="edge">
<title>Node59&#45;&gt;Node60</title>
<path fill="none" stroke="#191970" d="M561.7226,-10C572.8993,-10 584.4092,-10 595.7144,-10"/>
<polygon fill="#191970" stroke="#191970" points="561.5673,-6.5001 551.5673,-10 561.5672,-13.5001 561.5673,-6.5001"/>
</g>
</g>
</svg>
