<?xml version="1.0" encoding="UTF-8" standalone="no"?>
<!DOCTYPE svg PUBLIC "-//W3C//DTD SVG 1.1//EN"
 "http://www.w3.org/Graphics/SVG/1.1/DTD/svg11.dtd">
<!-- Generated by graphviz version 2.40.1 (20161225.0304)
 -->
<!-- Title: Fweelin::getBMG Pages: 1 -->
<svg width="903pt" height="458pt"
 viewBox="0.00 0.00 903.00 458.00" xmlns="http://www.w3.org/2000/svg" xmlns:xlink="http://www.w3.org/1999/xlink">
<g id="graph0" class="graph" transform="scale(1 1) rotate(0) translate(4 454)">
<title>Fweelin::getBMG</title>
<polygon fill="#ffffff" stroke="transparent" points="-4,4 -4,-454 899,-454 899,4 -4,4"/>
<!-- Node101 -->
<g id="node1" class="node">
<title>Node101</title>
<polygon fill="#bfbfbf" stroke="#000000" points="0,-209.5 0,-228.5 98,-228.5 98,-209.5 0,-209.5"/>
<text text-anchor="middle" x="49" y="-216.5" font-family="Helvetica,sans-Serif" font-size="10.00" fill="#000000">Fweelin::getBMG</text>
</g>
<!-- Node102 -->
<g id="node2" class="node">
<title>Node102</title>
<g id="a_node2"><a xlink:href="classLoopManager.html#a70967ac90529ee371dc5350cbced90a5" target="_top" xlink:title="LoopManager::LoopManager">
<polygon fill="#ffffff" stroke="#000000" points="149,-424.5 149,-443.5 302,-443.5 302,-424.5 149,-424.5"/>
<text text-anchor="middle" x="225.5" y="-431.5" font-family="Helvetica,sans-Serif" font-size="10.00" fill="#000000">LoopManager::LoopManager</text>
</a>
</g>
</g>
<!-- Node101&#45;&gt;Node102 -->
<g id="edge1" class="edge">
<title>Node101&#45;&gt;Node102</title>
<path fill="none" stroke="#191970" d="M52.0885,-238.5473C59.2298,-277.11 80.5509,-363.2053 134,-409 142.0034,-415.8573 151.7239,-420.8484 161.8027,-424.4779"/>
<polygon fill="#191970" stroke="#191970" points="55.5217,-237.8599 50.371,-228.6014 48.6238,-239.0512 55.5217,-237.8599"/>
</g>
<!-- Node105 -->
<g id="node5" class="node">
<title>Node105</title>
<g id="a_node5"><a xlink:href="classLoopManager.html#aadca58536e41c8b0b8fd148ac40b23c0" target="_top" xlink:title="LoopManager::~LoopManager">
<polygon fill="#ffffff" stroke="#000000" points="145,-380.5 145,-399.5 306,-399.5 306,-380.5 145,-380.5"/>
<text text-anchor="middle" x="225.5" y="-387.5" font-family="Helvetica,sans-Serif" font-size="10.00" fill="#000000">LoopManager::~LoopManager</text>
</a>
</g>
</g>
<!-- Node101&#45;&gt;Node105 -->
<g id="edge4" class="edge">
<title>Node101&#45;&gt;Node105</title>
<path fill="none" stroke="#191970" d="M54.1392,-238.4793C63.868,-271.3257 88.2206,-337.4231 134,-371 139.233,-374.8382 145.0646,-377.9408 151.18,-380.444"/>
<polygon fill="#191970" stroke="#191970" points="57.4682,-237.3882 51.3907,-228.7099 50.7298,-239.2841 57.4682,-237.3882"/>
</g>
<!-- Node106 -->
<g id="node6" class="node">
<title>Node106</title>
<g id="a_node6"><a xlink:href="classLoopManager.html#a5630b6fefdfc931ac0ab511c6b77cecf" target="_top" xlink:title="LoopManager::StripePulseOn">
<polygon fill="#ffffff" stroke="#000000" points="147.5,-342.5 147.5,-361.5 303.5,-361.5 303.5,-342.5 147.5,-342.5"/>
<text text-anchor="middle" x="225.5" y="-349.5" font-family="Helvetica,sans-Serif" font-size="10.00" fill="#000000">LoopManager::StripePulseOn</text>
</a>
</g>
</g>
<!-- Node101&#45;&gt;Node106 -->
<g id="edge5" class="edge">
<title>Node101&#45;&gt;Node106</title>
<path fill="none" stroke="#191970" d="M58.4313,-237.5653C71.8473,-262.0655 98.7736,-304.7947 134,-328 143.6001,-334.3241 154.7915,-338.9841 165.9861,-342.4173"/>
<polygon fill="#191970" stroke="#191970" points="61.443,-235.7736 53.669,-228.5753 55.2573,-239.0505 61.443,-235.7736"/>
</g>
<!-- Node111 -->
<g id="node11" class="node">
<title>Node111</title>
<g id="a_node11"><a xlink:href="classLoopManager.html#a810b5807daa4272b2275d955190326df" target="_top" xlink:title="LoopManager::StripePulseOff">
<polygon fill="#ffffff" stroke="#000000" points="353,-278.5 353,-297.5 510,-297.5 510,-278.5 353,-278.5"/>
<text text-anchor="middle" x="431.5" y="-285.5" font-family="Helvetica,sans-Serif" font-size="10.00" fill="#000000">LoopManager::StripePulseOff</text>
</a>
</g>
</g>
<!-- Node101&#45;&gt;Node111 -->
<g id="edge12" class="edge">
<title>Node101&#45;&gt;Node111</title>
<path fill="none" stroke="#191970" d="M66.8382,-235.3132C83.0319,-248.9914 108.2535,-267.5959 134,-276 205.3754,-299.2982 291.5286,-300.0215 352.7129,-296.2868"/>
<polygon fill="#191970" stroke="#191970" points="69.0763,-232.6211 59.2379,-228.6896 64.4772,-237.8983 69.0763,-232.6211"/>
</g>
<!-- Node113 -->
<g id="node13" class="node">
<title>Node113</title>
<g id="a_node13"><a xlink:href="classLoopManager.html#a332a9868980750f28fbf0e05b2336174" target="_top" xlink:title="LoopManager::DeleteLoop">
<polygon fill="#ffffff" stroke="#000000" points="360,-240.5 360,-259.5 503,-259.5 503,-240.5 360,-240.5"/>
<text text-anchor="middle" x="431.5" y="-247.5" font-family="Helvetica,sans-Serif" font-size="10.00" fill="#000000">LoopManager::DeleteLoop</text>
</a>
</g>
</g>
<!-- Node101&#45;&gt;Node113 -->
<g id="edge15" class="edge">
<title>Node101&#45;&gt;Node113</title>
<path fill="none" stroke="#191970" d="M73.8654,-233.4717C90.3255,-242.1914 112.7237,-252.4606 134,-257 214.7159,-274.2211 310.5427,-267.2236 371.19,-259.5275"/>
<polygon fill="#191970" stroke="#191970" points="75.366,-230.3031 64.9136,-228.5717 72.0049,-236.4434 75.366,-230.3031"/>
</g>
<!-- Node115 -->
<g id="node15" class="node">
<title>Node115</title>
<g id="a_node15"><a xlink:href="classPulse.html#a0081f88108dfc1585a23eae533be0190" target="_top" xlink:title="Pulse::~Pulse">
<polygon fill="#ffffff" stroke="#000000" points="184,-114.5 184,-133.5 267,-133.5 267,-114.5 184,-114.5"/>
<text text-anchor="middle" x="225.5" y="-121.5" font-family="Helvetica,sans-Serif" font-size="10.00" fill="#000000">Pulse::~Pulse</text>
</a>
</g>
</g>
<!-- Node101&#45;&gt;Node115 -->
<g id="edge19" class="edge">
<title>Node101&#45;&gt;Node115</title>
<path fill="none" stroke="#191970" d="M64.9241,-201.9129C80.9088,-185.7454 106.9788,-161.9375 134,-148 149.3254,-140.0952 167.472,-134.6373 183.5475,-130.949"/>
<polygon fill="#191970" stroke="#191970" points="62.3557,-199.5341 57.9273,-209.1591 67.3914,-204.3965 62.3557,-199.5341"/>
</g>
<!-- Node116 -->
<g id="node16" class="node">
<title>Node116</title>
<g id="a_node16"><a xlink:href="classPulse.html#adf28cef50c1f7543db7171b67126c38f" target="_top" xlink:title="Pulse::process">
<polygon fill="#ffffff" stroke="#000000" points="182.5,-76.5 182.5,-95.5 268.5,-95.5 268.5,-76.5 182.5,-76.5"/>
<text text-anchor="middle" x="225.5" y="-83.5" font-family="Helvetica,sans-Serif" font-size="10.00" fill="#000000">Pulse::process</text>
</a>
</g>
</g>
<!-- Node101&#45;&gt;Node116 -->
<g id="edge20" class="edge">
<title>Node101&#45;&gt;Node116</title>
<path fill="none" stroke="#191970" d="M57.6635,-200.0359C70.4901,-174.2209 97.0581,-128.5446 134,-105 148.229,-95.9313 165.998,-91.0951 182.0824,-88.5493"/>
<polygon fill="#191970" stroke="#191970" points="54.4527,-198.6373 53.2899,-209.1681 60.766,-201.6609 54.4527,-198.6373"/>
</g>
<!-- Node117 -->
<g id="node17" class="node">
<title>Node117</title>
<g id="a_node17"><a xlink:href="classRecordProcessor.html#a1aea5f833c59a12398b05b514b26b572" target="_top" xlink:title="RecordProcessor::RecordProcessor">
<polygon fill="#ffffff" stroke="#000000" points="134,-38.5 134,-57.5 317,-57.5 317,-38.5 134,-38.5"/>
<text text-anchor="middle" x="225.5" y="-45.5" font-family="Helvetica,sans-Serif" font-size="10.00" fill="#000000">RecordProcessor::RecordProcessor</text>
</a>
</g>
</g>
<!-- Node101&#45;&gt;Node117 -->
<g id="edge21" class="edge">
<title>Node101&#45;&gt;Node117</title>
<path fill="none" stroke="#191970" d="M54.1392,-199.5207C63.868,-166.6743 88.2206,-100.5769 134,-67 139.233,-63.1618 145.0646,-60.0592 151.18,-57.556"/>
<polygon fill="#191970" stroke="#191970" points="50.7298,-198.7159 51.3907,-209.2901 57.4682,-200.6118 50.7298,-198.7159"/>
</g>
<!-- Node118 -->
<g id="node18" class="node">
<title>Node118</title>
<g id="a_node18"><a xlink:href="classRecordProcessor.html#a63fbf98c72bafa6c2e24a3962bdae70c" target="_top" xlink:title="RecordProcessor::~Record\lProcessor">
<polygon fill="#ffffff" stroke="#000000" points="359.5,-191 359.5,-221 503.5,-221 503.5,-191 359.5,-191"/>
<text text-anchor="start" x="367.5" y="-209" font-family="Helvetica,sans-Serif" font-size="10.00" fill="#000000">RecordProcessor::~Record</text>
<text text-anchor="middle" x="431.5" y="-198" font-family="Helvetica,sans-Serif" font-size="10.00" fill="#000000">Processor</text>
</a>
</g>
</g>
<!-- Node101&#45;&gt;Node118 -->
<g id="edge22" class="edge">
<title>Node101&#45;&gt;Node118</title>
<path fill="none" stroke="#191970" d="M108.2934,-216.9848C175.9687,-214.6847 286.6567,-210.9228 359.2992,-208.4539"/>
<polygon fill="#191970" stroke="#191970" points="108.0974,-213.4893 98.2221,-217.3271 108.3353,-220.4853 108.0974,-213.4893"/>
</g>
<!-- Node119 -->
<g id="node19" class="node">
<title>Node119</title>
<g id="a_node19"><a xlink:href="classRecordProcessor.html#a9984f573bbc265321ad0604f97b23820" target="_top" xlink:title="RecordProcessor::EndNow">
<polygon fill="#ffffff" stroke="#000000" points="360,-152.5 360,-171.5 503,-171.5 503,-152.5 360,-152.5"/>
<text text-anchor="middle" x="431.5" y="-159.5" font-family="Helvetica,sans-Serif" font-size="10.00" fill="#000000">RecordProcessor::EndNow</text>
</a>
</g>
</g>
<!-- Node101&#45;&gt;Node119 -->
<g id="edge23" class="edge">
<title>Node101&#45;&gt;Node119</title>
<path fill="none" stroke="#191970" d="M108.4113,-209.8754C116.996,-208.568 125.7238,-207.2449 134,-206 214.027,-193.9624 306.2075,-180.3715 366.4872,-171.5212"/>
<polygon fill="#191970" stroke="#191970" points="107.7928,-206.4291 98.435,-211.3972 108.8485,-213.3491 107.7928,-206.4291"/>
</g>
<!-- Node123 -->
<g id="node23" class="node">
<title>Node123</title>
<g id="a_node23"><a xlink:href="classRecordProcessor.html#a5bce44b8a038567efcf660cfeeae93f4" target="_top" xlink:title="RecordProcessor::AbortRecording">
<polygon fill="#ffffff" stroke="#000000" points="137,-228.5 137,-247.5 314,-247.5 314,-228.5 137,-228.5"/>
<text text-anchor="middle" x="225.5" y="-235.5" font-family="Helvetica,sans-Serif" font-size="10.00" fill="#000000">RecordProcessor::AbortRecording</text>
</a>
</g>
</g>
<!-- Node101&#45;&gt;Node123 -->
<g id="edge27" class="edge">
<title>Node101&#45;&gt;Node123</title>
<path fill="none" stroke="#191970" d="M108.3744,-225.3916C117.6179,-226.3866 127.3365,-227.4328 137.0581,-228.4793"/>
<polygon fill="#191970" stroke="#191970" points="108.4823,-221.8831 98.1651,-224.2926 107.733,-228.8428 108.4823,-221.8831"/>
</g>
<!-- Node124 -->
<g id="node24" class="node">
<title>Node124</title>
<g id="a_node24"><a xlink:href="classPlayProcessor.html#a3df8da4a26e768d00b0cfada90b37cc9" target="_top" xlink:title="PlayProcessor::~PlayProcessor">
<polygon fill="#ffffff" stroke="#000000" points="142,-.5 142,-19.5 309,-19.5 309,-.5 142,-.5"/>
<text text-anchor="middle" x="225.5" y="-7.5" font-family="Helvetica,sans-Serif" font-size="10.00" fill="#000000">PlayProcessor::~PlayProcessor</text>
</a>
</g>
</g>
<!-- Node101&#45;&gt;Node124 -->
<g id="edge31" class="edge">
<title>Node101&#45;&gt;Node124</title>
<path fill="none" stroke="#191970" d="M51.8494,-199.1648C58.5634,-160.0874 79.1577,-73.1168 134,-29 138.6774,-25.2373 143.9141,-22.1654 149.4508,-19.6632"/>
<polygon fill="#191970" stroke="#191970" points="48.3597,-198.8244 50.2474,-209.2497 55.273,-199.9227 48.3597,-198.8244"/>
</g>
<!-- Node103 -->
<g id="node3" class="node">
<title>Node103</title>
<g id="a_node3"><a xlink:href="classFweelin.html#a1e47b97764f07dfd37458e91c0c54adf" target="_top" xlink:title="Fweelin::setup">
<polygon fill="#ffffff" stroke="#000000" points="388,-430.5 388,-449.5 475,-449.5 475,-430.5 388,-430.5"/>
<text text-anchor="middle" x="431.5" y="-437.5" font-family="Helvetica,sans-Serif" font-size="10.00" fill="#000000">Fweelin::setup</text>
</a>
</g>
</g>
<!-- Node102&#45;&gt;Node103 -->
<g id="edge2" class="edge">
<title>Node102&#45;&gt;Node103</title>
<path fill="none" stroke="#191970" d="M312.4876,-436.5336C338.5302,-437.2921 365.9726,-438.0914 387.9347,-438.7311"/>
<polygon fill="#191970" stroke="#191970" points="312.3045,-433.0269 302.2068,-436.2342 312.1006,-440.0239 312.3045,-433.0269"/>
</g>
<!-- Node104 -->
<g id="node4" class="node">
<title>Node104</title>
<g id="a_node4"><a xlink:href="fweelin_8cc.html#a97b0fa62b7b0972875f5f589322c4c24" target="_top" xlink:title="main">
<polygon fill="#ffffff" stroke="#000000" points="605,-430.5 605,-449.5 646,-449.5 646,-430.5 605,-430.5"/>
<text text-anchor="middle" x="625.5" y="-437.5" font-family="Helvetica,sans-Serif" font-size="10.00" fill="#000000">main</text>
</a>
</g>
</g>
<!-- Node103&#45;&gt;Node104 -->
<g id="edge3" class="edge">
<title>Node103&#45;&gt;Node104</title>
<path fill="none" stroke="#191970" d="M485.1045,-440C524.8086,-440 576.7314,-440 604.9917,-440"/>
<polygon fill="#191970" stroke="#191970" points="485.0374,-436.5001 475.0374,-440 485.0374,-443.5001 485.0374,-436.5001"/>
</g>
<!-- Node107 -->
<g id="node7" class="node">
<title>Node107</title>
<g id="a_node7"><a xlink:href="classLoopManager.html#ab79aef15f1e783de1ab6827378bea274" target="_top" xlink:title="LoopManager::SelectPulse">
<polygon fill="#ffffff" stroke="#000000" points="359.5,-392.5 359.5,-411.5 503.5,-411.5 503.5,-392.5 359.5,-392.5"/>
<text text-anchor="middle" x="431.5" y="-399.5" font-family="Helvetica,sans-Serif" font-size="10.00" fill="#000000">LoopManager::SelectPulse</text>
</a>
</g>
</g>
<!-- Node106&#45;&gt;Node107 -->
<g id="edge6" class="edge">
<title>Node106&#45;&gt;Node107</title>
<path fill="none" stroke="#191970" d="M284.0067,-363.6066C294.9949,-365.9399 306.3683,-368.4593 317,-371 344.4413,-377.5577 375.3038,-385.9748 398.0667,-392.383"/>
<polygon fill="#191970" stroke="#191970" points="284.5615,-360.1469 274.0561,-361.5208 283.1254,-366.998 284.5615,-360.1469"/>
</g>
<!-- Node108 -->
<g id="node8" class="node">
<title>Node108</title>
<g id="a_node8"><a xlink:href="classLoopManager.html#a67c6f44d33880b35c875a8e6ea8babac" target="_top" xlink:title="LoopManager::TapPulse">
<polygon fill="#ffffff" stroke="#000000" points="560,-354.5 560,-373.5 691,-373.5 691,-354.5 560,-354.5"/>
<text text-anchor="middle" x="625.5" y="-361.5" font-family="Helvetica,sans-Serif" font-size="10.00" fill="#000000">LoopManager::TapPulse</text>
</a>
</g>
</g>
<!-- Node106&#45;&gt;Node108 -->
<g id="edge11" class="edge">
<title>Node106&#45;&gt;Node108</title>
<path fill="none" stroke="#191970" d="M313.8539,-354.6506C388.1836,-356.8805 492.7861,-360.0186 559.8672,-362.031"/>
<polygon fill="#191970" stroke="#191970" points="313.6741,-351.1437 303.5736,-354.3422 313.4641,-358.1406 313.6741,-351.1437"/>
</g>
<!-- Node110 -->
<g id="node10" class="node">
<title>Node110</title>
<g id="a_node10"><a xlink:href="classLoopManager.html#a705436ae811a121ed3285ab34b144bfe" target="_top" xlink:title="LoopManager::CreatePulse">
<polygon fill="#ffffff" stroke="#000000" points="358.5,-316.5 358.5,-335.5 504.5,-335.5 504.5,-316.5 358.5,-316.5"/>
<text text-anchor="middle" x="431.5" y="-323.5" font-family="Helvetica,sans-Serif" font-size="10.00" fill="#000000">LoopManager::CreatePulse</text>
</a>
</g>
</g>
<!-- Node106&#45;&gt;Node110 -->
<g id="edge10" class="edge">
<title>Node106&#45;&gt;Node110</title>
<path fill="none" stroke="#191970" d="M311.2373,-341.1788C326.9037,-339.2015 343.1186,-337.1549 358.376,-335.2292"/>
<polygon fill="#191970" stroke="#191970" points="310.5201,-337.7415 301.0371,-342.4662 311.3967,-344.6864 310.5201,-337.7415"/>
</g>
<!-- Node107&#45;&gt;Node108 -->
<g id="edge7" class="edge">
<title>Node107&#45;&gt;Node108</title>
<path fill="none" stroke="#191970" d="M490.4052,-390.4619C518.0751,-385.042 550.6619,-378.659 576.8976,-373.5201"/>
<polygon fill="#191970" stroke="#191970" points="489.5951,-387.054 480.4544,-392.411 490.9407,-393.9234 489.5951,-387.054"/>
</g>
<!-- Node109 -->
<g id="node9" class="node">
<title>Node109</title>
<g id="a_node9"><a xlink:href="classLoopManager.html#a4aada2d07b7ce0a67a8119ece4805966" target="_top" xlink:title="LoopManager::ReceiveEvent">
<polygon fill="#ffffff" stroke="#000000" points="741,-332.5 741,-351.5 895,-351.5 895,-332.5 741,-332.5"/>
<text text-anchor="middle" x="818" y="-339.5" font-family="Helvetica,sans-Serif" font-size="10.00" fill="#000000">LoopManager::ReceiveEvent</text>
</a>
</g>
</g>
<!-- Node107&#45;&gt;Node109 -->
<g id="edge9" class="edge">
<title>Node107&#45;&gt;Node109</title>
<path fill="none" stroke="#191970" d="M513.6622,-402.2315C568.4059,-400.9386 641.6573,-396.4156 705,-383 738.279,-375.9517 774.9907,-361.2571 797.2721,-351.5108"/>
<polygon fill="#191970" stroke="#191970" points="513.5884,-398.7322 503.6623,-402.4368 513.7321,-405.7307 513.5884,-398.7322"/>
</g>
<!-- Node108&#45;&gt;Node109 -->
<g id="edge8" class="edge">
<title>Node108&#45;&gt;Node109</title>
<path fill="none" stroke="#191970" d="M701.4898,-355.3155C714.4704,-353.832 727.966,-352.2896 740.9733,-350.8031"/>
<polygon fill="#191970" stroke="#191970" points="700.7471,-351.8775 691.2092,-356.4904 701.5419,-358.8322 700.7471,-351.8775"/>
</g>
<!-- Node112 -->
<g id="node12" class="node">
<title>Node112</title>
<g id="a_node12"><a xlink:href="classLoopManager.html#a8efb4c8acabceb10faa8660c14c89d71" target="_top" xlink:title="LoopManager::DeletePulse">
<polygon fill="#ffffff" stroke="#000000" points="552.5,-310.5 552.5,-329.5 698.5,-329.5 698.5,-310.5 552.5,-310.5"/>
<text text-anchor="middle" x="625.5" y="-317.5" font-family="Helvetica,sans-Serif" font-size="10.00" fill="#000000">LoopManager::DeletePulse</text>
</a>
</g>
</g>
<!-- Node111&#45;&gt;Node112 -->
<g id="edge13" class="edge">
<title>Node111&#45;&gt;Node112</title>
<path fill="none" stroke="#191970" d="M499.2596,-299.1768C521.5863,-302.8596 546.193,-306.9184 567.7061,-310.467"/>
<polygon fill="#191970" stroke="#191970" points="499.6175,-295.6887 489.1811,-297.5144 498.4782,-302.5953 499.6175,-295.6887"/>
</g>
<!-- Node112&#45;&gt;Node109 -->
<g id="edge14" class="edge">
<title>Node112&#45;&gt;Node109</title>
<path fill="none" stroke="#191970" d="M708.6986,-329.5084C719.3711,-330.7281 730.2618,-331.9728 740.8326,-333.1809"/>
<polygon fill="#191970" stroke="#191970" points="708.8832,-326.0068 698.5505,-328.3486 708.0884,-332.9615 708.8832,-326.0068"/>
</g>
<!-- Node113&#45;&gt;Node109 -->
<g id="edge18" class="edge">
<title>Node113&#45;&gt;Node109</title>
<path fill="none" stroke="#191970" d="M513.3559,-242.2072C568.8887,-239.7111 643.164,-241.9015 705,-263 748.4967,-277.8411 790.3109,-314.858 808.4994,-332.439"/>
<polygon fill="#191970" stroke="#191970" points="513.0209,-238.7196 503.2121,-242.7243 513.3773,-245.7105 513.0209,-238.7196"/>
</g>
<!-- Node113&#45;&gt;Node112 -->
<g id="edge17" class="edge">
<title>Node113&#45;&gt;Node112</title>
<path fill="none" stroke="#191970" d="M495.8891,-262.8006C500.7726,-264.6074 505.5332,-266.6628 510,-269 528.9678,-278.9245 527.018,-291.1028 546,-301 553.424,-304.8709 561.6488,-307.9667 569.9108,-310.4391"/>
<polygon fill="#191970" stroke="#191970" points="496.9846,-259.4765 486.3908,-259.6239 494.7643,-266.115 496.9846,-259.4765"/>
</g>
<!-- Node114 -->
<g id="node14" class="node">
<title>Node114</title>
<g id="a_node14"><a xlink:href="classLoopManager.html#a6048a702c9cec3676a1c56792b16ec44" target="_top" xlink:title="LoopManager::ReadComplete">
<polygon fill="#ffffff" stroke="#000000" points="546,-272.5 546,-291.5 705,-291.5 705,-272.5 546,-272.5"/>
<text text-anchor="middle" x="625.5" y="-279.5" font-family="Helvetica,sans-Serif" font-size="10.00" fill="#000000">LoopManager::ReadComplete</text>
</a>
</g>
</g>
<!-- Node113&#45;&gt;Node114 -->
<g id="edge16" class="edge">
<title>Node113&#45;&gt;Node114</title>
<path fill="none" stroke="#191970" d="M499.2596,-261.1768C521.5863,-264.8596 546.193,-268.9184 567.7061,-272.467"/>
<polygon fill="#191970" stroke="#191970" points="499.6175,-257.6887 489.1811,-259.5144 498.4782,-264.5953 499.6175,-257.6887"/>
</g>
<!-- Node120 -->
<g id="node20" class="node">
<title>Node120</title>
<g id="a_node20"><a xlink:href="classRecordProcessor.html#a6168d8dc850602a348dc74ab1224263a" target="_top" xlink:title="RecordProcessor::PulseSync">
<polygon fill="#ffffff" stroke="#000000" points="549.5,-190.5 549.5,-209.5 701.5,-209.5 701.5,-190.5 549.5,-190.5"/>
<text text-anchor="middle" x="625.5" y="-197.5" font-family="Helvetica,sans-Serif" font-size="10.00" fill="#000000">RecordProcessor::PulseSync</text>
</a>
</g>
</g>
<!-- Node119&#45;&gt;Node120 -->
<g id="edge24" class="edge">
<title>Node119&#45;&gt;Node120</title>
<path fill="none" stroke="#191970" d="M490.4052,-173.5381C518.0751,-178.958 550.6619,-185.341 576.8976,-190.4799"/>
<polygon fill="#191970" stroke="#191970" points="490.9407,-170.0766 480.4544,-171.589 489.5951,-176.946 490.9407,-170.0766"/>
</g>
<!-- Node121 -->
<g id="node21" class="node">
<title>Node121</title>
<g id="a_node21"><a xlink:href="classRecordProcessor.html#ab035edfb707f8f1066b3597df7ddda7d" target="_top" xlink:title="RecordProcessor::End">
<polygon fill="#ffffff" stroke="#000000" points="565,-152.5 565,-171.5 686,-171.5 686,-152.5 565,-152.5"/>
<text text-anchor="middle" x="625.5" y="-159.5" font-family="Helvetica,sans-Serif" font-size="10.00" fill="#000000">RecordProcessor::End</text>
</a>
</g>
</g>
<!-- Node119&#45;&gt;Node121 -->
<g id="edge25" class="edge">
<title>Node119&#45;&gt;Node121</title>
<path fill="none" stroke="#191970" d="M513.2858,-162C530.5967,-162 548.5706,-162 564.9276,-162"/>
<polygon fill="#191970" stroke="#191970" points="513.1873,-158.5001 503.1873,-162 513.1872,-165.5001 513.1873,-158.5001"/>
</g>
<!-- Node122 -->
<g id="node22" class="node">
<title>Node122</title>
<g id="a_node22"><a xlink:href="classRecordProcessor.html#ad36d69ec9d41b424eb2e6c5fa2e0cf3a" target="_top" xlink:title="RecordProcessor::process">
<polygon fill="#ffffff" stroke="#000000" points="555.5,-114.5 555.5,-133.5 695.5,-133.5 695.5,-114.5 555.5,-114.5"/>
<text text-anchor="middle" x="625.5" y="-121.5" font-family="Helvetica,sans-Serif" font-size="10.00" fill="#000000">RecordProcessor::process</text>
</a>
</g>
</g>
<!-- Node119&#45;&gt;Node122 -->
<g id="edge26" class="edge">
<title>Node119&#45;&gt;Node122</title>
<path fill="none" stroke="#191970" d="M490.4052,-150.4619C518.0751,-145.042 550.6619,-138.659 576.8976,-133.5201"/>
<polygon fill="#191970" stroke="#191970" points="489.5951,-147.054 480.4544,-152.411 490.9407,-153.9234 489.5951,-147.054"/>
</g>
<!-- Node123&#45;&gt;Node113 -->
<g id="edge28" class="edge">
<title>Node123&#45;&gt;Node113</title>
<path fill="none" stroke="#191970" d="M324.1245,-243.7451C336.1478,-244.4455 348.2508,-245.1505 359.7765,-245.8219"/>
<polygon fill="#191970" stroke="#191970" points="324.2447,-240.2463 314.0581,-243.1587 323.8376,-247.2344 324.2447,-240.2463"/>
</g>
<!-- Node123&#45;&gt;Node118 -->
<g id="edge29" class="edge">
<title>Node123&#45;&gt;Node118</title>
<path fill="none" stroke="#191970" d="M296.8108,-226.9226C317.0001,-223.7864 338.9891,-220.3706 359.2341,-217.2258"/>
<polygon fill="#191970" stroke="#191970" points="296.0933,-223.492 286.749,-228.4856 297.1678,-230.409 296.0933,-223.492"/>
</g>
<!-- Node123&#45;&gt;Node119 -->
<g id="edge30" class="edge">
<title>Node123&#45;&gt;Node119</title>
<path fill="none" stroke="#191970" d="M253.6251,-224.0446C279.1111,-211.7876 317.934,-194.076 353,-182 364.4358,-178.0617 377.0472,-174.5124 388.7538,-171.5352"/>
<polygon fill="#191970" stroke="#191970" points="252.0135,-220.9363 244.5459,-228.452 255.0705,-227.2335 252.0135,-220.9363"/>
</g>
</g>
</svg>
