<?xml version="1.0" encoding="UTF-8" standalone="no"?>
<!DOCTYPE svg PUBLIC "-//W3C//DTD SVG 1.1//EN"
 "http://www.w3.org/Graphics/SVG/1.1/DTD/svg11.dtd">
<!-- Generated by graphviz version 2.40.1 (20161225.0304)
 -->
<!-- Title: UserVariable::IsSystemVariable Pages: 1 -->
<svg width="358pt" height="78pt"
 viewBox="0.00 0.00 358.00 77.50" xmlns="http://www.w3.org/2000/svg" xmlns:xlink="http://www.w3.org/1999/xlink">
<g id="graph0" class="graph" transform="scale(1 1) rotate(0) translate(4 73.5)">
<title>UserVariable::IsSystemVariable</title>
<polygon fill="#ffffff" stroke="transparent" points="-4,4 -4,-73.5 354,-73.5 354,4 -4,4"/>
<!-- Node20 -->
<g id="node1" class="node">
<title>Node20</title>
<polygon fill="#bfbfbf" stroke="#000000" points="0,-28 0,-47 170,-47 170,-28 0,-28"/>
<text text-anchor="middle" x="85" y="-35" font-family="Helvetica,sans-Serif" font-size="10.00" fill="#000000">UserVariable::IsSystemVariable</text>
</g>
<!-- Node21 -->
<g id="node2" class="node">
<title>Node21</title>
<g id="a_node2"><a xlink:href="classInputMatrix.html#aa74204a205a10f2b60809ea124db9173" target="_top" xlink:title="InputMatrix::ReceiveEvent">
<polygon fill="#ffffff" stroke="#000000" points="206,-50 206,-69 350,-69 350,-50 206,-50"/>
<text text-anchor="middle" x="278" y="-57" font-family="Helvetica,sans-Serif" font-size="10.00" fill="#000000">InputMatrix::ReceiveEvent</text>
</a>
</g>
</g>
<!-- Node20&#45;&gt;Node21 -->
<g id="edge1" class="edge">
<title>Node20&#45;&gt;Node21</title>
<path fill="none" stroke="#191970" d="M178.4804,-48.1558C187.6781,-49.2042 196.9125,-50.2569 205.8487,-51.2755"/>
<polygon fill="#191970" stroke="#191970" points="178.8622,-44.6767 168.5301,-47.0216 178.0693,-51.6317 178.8622,-44.6767"/>
</g>
<!-- Node22 -->
<g id="node3" class="node">
<title>Node22</title>
<g id="a_node3"><a xlink:href="classFloDisplayParamSet.html#a80785cfd3aaeaa5fd4bdf7d64a24f247" target="_top" xlink:title="FloDisplayParamSet\l::ReceiveEvent">
<polygon fill="#ffffff" stroke="#000000" points="221,-.5 221,-30.5 335,-30.5 335,-.5 221,-.5"/>
<text text-anchor="start" x="229" y="-18.5" font-family="Helvetica,sans-Serif" font-size="10.00" fill="#000000">FloDisplayParamSet</text>
<text text-anchor="middle" x="278" y="-7.5" font-family="Helvetica,sans-Serif" font-size="10.00" fill="#000000">::ReceiveEvent</text>
</a>
</g>
</g>
<!-- Node20&#45;&gt;Node22 -->
<g id="edge2" class="edge">
<title>Node20&#45;&gt;Node22</title>
<path fill="none" stroke="#191970" d="M178.49,-26.8431C192.9203,-25.1982 207.4403,-23.5431 220.7578,-22.025"/>
<polygon fill="#191970" stroke="#191970" points="178.0693,-23.3683 168.5301,-27.9784 178.8622,-30.3233 178.0693,-23.3683"/>
</g>
</g>
</svg>
