<?xml version="1.0" encoding="UTF-8" standalone="no"?>
<!DOCTYPE svg PUBLIC "-//W3C//DTD SVG 1.1//EN"
 "http://www.w3.org/Graphics/SVG/1.1/DTD/svg11.dtd">
<!-- Generated by graphviz version 2.40.1 (20161225.0304)
 -->
<!-- Title: AutoLimitProcessor::AutoLimitProcessor Pages: 1 -->
<svg width="488pt" height="104pt"
 viewBox="0.00 0.00 488.00 104.00" xmlns="http://www.w3.org/2000/svg" xmlns:xlink="http://www.w3.org/1999/xlink">
<g id="graph0" class="graph" transform="scale(1 1) rotate(0) translate(4 100)">
<title>AutoLimitProcessor::AutoLimitProcessor</title>
<polygon fill="#ffffff" stroke="transparent" points="-4,4 -4,-100 484,-100 484,4 -4,4"/>
<!-- Node0 -->
<g id="node1" class="node">
<title>Node0</title>
<polygon fill="#bfbfbf" stroke="#000000" points="0,-33 0,-63 117,-63 117,-33 0,-33"/>
<text text-anchor="start" x="8" y="-51" font-family="Helvetica,sans-Serif" font-size="10.00" fill="#000000">AutoLimitProcessor</text>
<text text-anchor="middle" x="58.5" y="-40" font-family="Helvetica,sans-Serif" font-size="10.00" fill="#000000">::AutoLimitProcessor</text>
</g>
<!-- Node1 -->
<g id="node2" class="node">
<title>Node1</title>
<g id="a_node2"><a xlink:href="classAutoLimitProcessor.html#a8b769b0b6d4eb0aa759d13a0387ade4c" target="_top" xlink:title="AutoLimitProcessor\l::ResetLimiter">
<polygon fill="#ffffff" stroke="#000000" points="153,-33 153,-63 264,-63 264,-33 153,-33"/>
<text text-anchor="start" x="161" y="-51" font-family="Helvetica,sans-Serif" font-size="10.00" fill="#000000">AutoLimitProcessor</text>
<text text-anchor="middle" x="208.5" y="-40" font-family="Helvetica,sans-Serif" font-size="10.00" fill="#000000">::ResetLimiter</text>
</a>
</g>
</g>
<!-- Node0&#45;&gt;Node1 -->
<g id="edge1" class="edge">
<title>Node0&#45;&gt;Node1</title>
<path fill="none" stroke="#191970" d="M117.3535,-48C125.6394,-48 134.2013,-48 142.6083,-48"/>
<polygon fill="#191970" stroke="#191970" points="142.7572,-51.5001 152.7571,-48 142.7571,-44.5001 142.7572,-51.5001"/>
</g>
<!-- Node2 -->
<g id="node3" class="node">
<title>Node2</title>
<g id="a_node3"><a xlink:href="classFweelin.html#a681d7ca8d0789199af135f22c26a5409" target="_top" xlink:title="Fweelin::getCFG">
<polygon fill="#ffffff" stroke="#000000" points="342.5,-76.5 342.5,-95.5 437.5,-95.5 437.5,-76.5 342.5,-76.5"/>
<text text-anchor="middle" x="390" y="-83.5" font-family="Helvetica,sans-Serif" font-size="10.00" fill="#000000">Fweelin::getCFG</text>
</a>
</g>
</g>
<!-- Node1&#45;&gt;Node2 -->
<g id="edge2" class="edge">
<title>Node1&#45;&gt;Node2</title>
<path fill="none" stroke="#191970" d="M264.437,-59.7113C286.7472,-64.3823 312.3661,-69.7461 334.6206,-74.4054"/>
<polygon fill="#191970" stroke="#191970" points="334.0799,-77.868 344.585,-76.4916 335.5144,-71.0166 334.0799,-77.868"/>
</g>
<!-- Node3 -->
<g id="node4" class="node">
<title>Node3</title>
<g id="a_node4"><a xlink:href="classFloConfig.html#a5d6c14dc286302dc59bbcc570a8f052f" target="_top" xlink:title="FloConfig::GetLimiterReleaseRate">
<polygon fill="#ffffff" stroke="#000000" points="300,-38.5 300,-57.5 480,-57.5 480,-38.5 300,-38.5"/>
<text text-anchor="middle" x="390" y="-45.5" font-family="Helvetica,sans-Serif" font-size="10.00" fill="#000000">FloConfig::GetLimiterReleaseRate</text>
</a>
</g>
</g>
<!-- Node1&#45;&gt;Node3 -->
<g id="edge3" class="edge">
<title>Node1&#45;&gt;Node3</title>
<path fill="none" stroke="#191970" d="M264.437,-48C272.5223,-48 281.0421,-48 289.6789,-48"/>
<polygon fill="#191970" stroke="#191970" points="289.8524,-51.5001 299.8524,-48 289.8523,-44.5001 289.8524,-51.5001"/>
</g>
<!-- Node4 -->
<g id="node5" class="node">
<title>Node4</title>
<g id="a_node5"><a xlink:href="classFloConfig.html#a28a35578641ab8f0f8bf9db338abd856" target="_top" xlink:title="FloConfig::GetLimiterThreshhold">
<polygon fill="#ffffff" stroke="#000000" points="303.5,-.5 303.5,-19.5 476.5,-19.5 476.5,-.5 303.5,-.5"/>
<text text-anchor="middle" x="390" y="-7.5" font-family="Helvetica,sans-Serif" font-size="10.00" fill="#000000">FloConfig::GetLimiterThreshhold</text>
</a>
</g>
</g>
<!-- Node1&#45;&gt;Node4 -->
<g id="edge4" class="edge">
<title>Node1&#45;&gt;Node4</title>
<path fill="none" stroke="#191970" d="M264.437,-36.2887C286.7472,-31.6177 312.3661,-26.2539 334.6206,-21.5946"/>
<polygon fill="#191970" stroke="#191970" points="335.5144,-24.9834 344.585,-19.5084 334.0799,-18.132 335.5144,-24.9834"/>
</g>
</g>
</svg>
