<?xml version="1.0" encoding="UTF-8" standalone="no"?>
<!DOCTYPE svg PUBLIC "-//W3C//DTD SVG 1.1//EN"
 "http://www.w3.org/Graphics/SVG/1.1/DTD/svg11.dtd">
<!-- Generated by graphviz version 2.40.1 (20161225.0304)
 -->
<!-- Title: ItemRenamer::ItemRenamer Pages: 1 -->
<svg width="339pt" height="180pt"
 viewBox="0.00 0.00 339.00 180.00" xmlns="http://www.w3.org/2000/svg" xmlns:xlink="http://www.w3.org/1999/xlink">
<g id="graph0" class="graph" transform="scale(1 1) rotate(0) translate(4 176)">
<title>ItemRenamer::ItemRenamer</title>
<polygon fill="#ffffff" stroke="transparent" points="-4,4 -4,-176 335,-176 335,4 -4,4"/>
<!-- Node0 -->
<g id="node1" class="node">
<title>Node0</title>
<polygon fill="#bfbfbf" stroke="#000000" points="0,-76.5 0,-95.5 155,-95.5 155,-76.5 0,-76.5"/>
<text text-anchor="middle" x="77.5" y="-83.5" font-family="Helvetica,sans-Serif" font-size="10.00" fill="#000000">ItemRenamer::ItemRenamer</text>
</g>
<!-- Node1 -->
<g id="node2" class="node">
<title>Node1</title>
<g id="a_node2"><a xlink:href="classFweelin.html#a681d7ca8d0789199af135f22c26a5409" target="_top" xlink:title="Fweelin::getCFG">
<polygon fill="#ffffff" stroke="#000000" points="213.5,-152.5 213.5,-171.5 308.5,-171.5 308.5,-152.5 213.5,-152.5"/>
<text text-anchor="middle" x="261" y="-159.5" font-family="Helvetica,sans-Serif" font-size="10.00" fill="#000000">Fweelin::getCFG</text>
</a>
</g>
</g>
<!-- Node0&#45;&gt;Node1 -->
<g id="edge1" class="edge">
<title>Node0&#45;&gt;Node1</title>
<path fill="none" stroke="#191970" d="M93.9446,-95.5802C115.608,-107.8888 155.1633,-129.2968 191,-143 197.243,-145.3872 203.9064,-147.6013 210.5475,-149.6114"/>
<polygon fill="#191970" stroke="#191970" points="209.6311,-152.9898 220.2099,-152.4069 211.5766,-146.2655 209.6311,-152.9898"/>
</g>
<!-- Node2 -->
<g id="node3" class="node">
<title>Node2</title>
<g id="a_node3"><a xlink:href="classFloConfig.html#aac54136f9c70ae1996a104ac86b691dd" target="_top" xlink:title="FloConfig::AddEventHook">
<polygon fill="#ffffff" stroke="#000000" points="191,-114.5 191,-133.5 331,-133.5 331,-114.5 191,-114.5"/>
<text text-anchor="middle" x="261" y="-121.5" font-family="Helvetica,sans-Serif" font-size="10.00" fill="#000000">FloConfig::AddEventHook</text>
</a>
</g>
</g>
<!-- Node0&#45;&gt;Node2 -->
<g id="edge2" class="edge">
<title>Node0&#45;&gt;Node2</title>
<path fill="none" stroke="#191970" d="M123.8048,-95.589C148.4559,-100.6939 178.9625,-107.0113 204.9447,-112.3918"/>
<polygon fill="#191970" stroke="#191970" points="204.5262,-115.8793 215.0282,-114.4799 205.9457,-109.0248 204.5262,-115.8793"/>
</g>
<!-- Node3 -->
<g id="node4" class="node">
<title>Node3</title>
<g id="a_node4"><a xlink:href="classFweelin.html#aa35dbda0867fa05ac034bbe6109fe7b3" target="_top" xlink:title="Fweelin::getSDLIO">
<polygon fill="#ffffff" stroke="#000000" points="208.5,-76.5 208.5,-95.5 313.5,-95.5 313.5,-76.5 208.5,-76.5"/>
<text text-anchor="middle" x="261" y="-83.5" font-family="Helvetica,sans-Serif" font-size="10.00" fill="#000000">Fweelin::getSDLIO</text>
</a>
</g>
</g>
<!-- Node0&#45;&gt;Node3 -->
<g id="edge3" class="edge">
<title>Node0&#45;&gt;Node3</title>
<path fill="none" stroke="#191970" d="M155.0545,-86C169.3967,-86 184.2131,-86 198.0559,-86"/>
<polygon fill="#191970" stroke="#191970" points="198.4278,-89.5001 208.4278,-86 198.4277,-82.5001 198.4278,-89.5001"/>
</g>
<!-- Node4 -->
<g id="node5" class="node">
<title>Node4</title>
<g id="a_node5"><a xlink:href="classSDLIO.html#abf96a6353a25f3ea3ae662f6d84f4353" target="_top" xlink:title="SDLIO::EnableUNICODE">
<polygon fill="#ffffff" stroke="#000000" points="195.5,-38.5 195.5,-57.5 326.5,-57.5 326.5,-38.5 195.5,-38.5"/>
<text text-anchor="middle" x="261" y="-45.5" font-family="Helvetica,sans-Serif" font-size="10.00" fill="#000000">SDLIO::EnableUNICODE</text>
</a>
</g>
</g>
<!-- Node0&#45;&gt;Node4 -->
<g id="edge4" class="edge">
<title>Node0&#45;&gt;Node4</title>
<path fill="none" stroke="#191970" d="M123.8048,-76.411C148.4559,-71.3061 178.9625,-64.9887 204.9447,-59.6082"/>
<polygon fill="#191970" stroke="#191970" points="205.9457,-62.9752 215.0282,-57.5201 204.5262,-56.1207 205.9457,-62.9752"/>
</g>
<!-- Node5 -->
<g id="node6" class="node">
<title>Node5</title>
<g id="a_node6"><a xlink:href="classSDLIO.html#ab44a16efa49008f84b68bf849aaea01d" target="_top" xlink:title="SDLIO::EnableKeyRepeat">
<polygon fill="#ffffff" stroke="#000000" points="192.5,-.5 192.5,-19.5 329.5,-19.5 329.5,-.5 192.5,-.5"/>
<text text-anchor="middle" x="261" y="-7.5" font-family="Helvetica,sans-Serif" font-size="10.00" fill="#000000">SDLIO::EnableKeyRepeat</text>
</a>
</g>
</g>
<!-- Node0&#45;&gt;Node5 -->
<g id="edge5" class="edge">
<title>Node0&#45;&gt;Node5</title>
<path fill="none" stroke="#191970" d="M93.9446,-76.4198C115.608,-64.1112 155.1633,-42.7032 191,-29 197.243,-26.6128 203.9064,-24.3987 210.5475,-22.3886"/>
<polygon fill="#191970" stroke="#191970" points="211.5766,-25.7345 220.2099,-19.5931 209.6311,-19.0102 211.5766,-25.7345"/>
</g>
</g>
</svg>
