<?xml version="1.0" encoding="UTF-8" standalone="no"?>
<!DOCTYPE svg PUBLIC "-//W3C//DTD SVG 1.1//EN"
 "http://www.w3.org/Graphics/SVG/1.1/DTD/svg11.dtd">
<!-- Generated by graphviz version 2.40.1 (20161225.0304)
 -->
<!-- Title: Browser::Draw_Item Pages: 1 -->
<svg width="285pt" height="66pt"
 viewBox="0.00 0.00 285.00 66.00" xmlns="http://www.w3.org/2000/svg" xmlns:xlink="http://www.w3.org/1999/xlink">
<g id="graph0" class="graph" transform="scale(1 1) rotate(0) translate(4 62)">
<title>Browser::Draw_Item</title>
<polygon fill="#ffffff" stroke="transparent" points="-4,4 -4,-62 281,-62 281,4 -4,4"/>
<!-- Node31 -->
<g id="node1" class="node">
<title>Node31</title>
<polygon fill="#bfbfbf" stroke="#000000" points="0,-19.5 0,-38.5 116,-38.5 116,-19.5 0,-19.5"/>
<text text-anchor="middle" x="58" y="-26.5" font-family="Helvetica,sans-Serif" font-size="10.00" fill="#000000">Browser::Draw_Item</text>
</g>
<!-- Node32 -->
<g id="node2" class="node">
<title>Node32</title>
<g id="a_node2"><a xlink:href="classBrowserItem.html#a4ebfa0b72dd5eec1c43ed1b65287ae47" target="_top" xlink:title="BrowserItem::GetType">
<polygon fill="#ffffff" stroke="#000000" points="152,-38.5 152,-57.5 277,-57.5 277,-38.5 152,-38.5"/>
<text text-anchor="middle" x="214.5" y="-45.5" font-family="Helvetica,sans-Serif" font-size="10.00" fill="#000000">BrowserItem::GetType</text>
</a>
</g>
</g>
<!-- Node31&#45;&gt;Node32 -->
<g id="edge1" class="edge">
<title>Node31&#45;&gt;Node32</title>
<path fill="none" stroke="#191970" d="M116.2748,-36.0749C124.6448,-37.0911 133.3416,-38.1469 141.946,-39.1915"/>
<polygon fill="#191970" stroke="#191970" points="141.6304,-42.6788 151.9794,-40.4096 142.4741,-35.7299 141.6304,-42.6788"/>
</g>
<!-- Node33 -->
<g id="node3" class="node">
<title>Node33</title>
<g id="a_node3"><a xlink:href="classVideoIO.html#a8a7592b69863218540f5185683f8b3fc" target="_top" xlink:title="VideoIO::draw_text">
<polygon fill="#ffffff" stroke="#000000" points="159.5,-.5 159.5,-19.5 269.5,-19.5 269.5,-.5 159.5,-.5"/>
<text text-anchor="middle" x="214.5" y="-7.5" font-family="Helvetica,sans-Serif" font-size="10.00" fill="#000000">VideoIO::draw_text</text>
</a>
</g>
</g>
<!-- Node31&#45;&gt;Node33 -->
<g id="edge2" class="edge">
<title>Node31&#45;&gt;Node33</title>
<path fill="none" stroke="#191970" d="M116.2748,-21.9251C127.0537,-20.6165 138.3745,-19.2421 149.3422,-17.9105"/>
<polygon fill="#191970" stroke="#191970" points="149.7843,-21.3826 159.2896,-16.7029 148.9406,-14.4337 149.7843,-21.3826"/>
</g>
</g>
</svg>
