<?xml version="1.0" encoding="UTF-8" standalone="no"?>
<!DOCTYPE svg PUBLIC "-//W3C//DTD SVG 1.1//EN"
 "http://www.w3.org/Graphics/SVG/1.1/DTD/svg11.dtd">
<!-- Generated by graphviz version 2.40.1 (20161225.0304)
 -->
<!-- Title: LoopManager::GetCurCnt Pages: 1 -->
<svg width="295pt" height="66pt"
 viewBox="0.00 0.00 295.00 66.00" xmlns="http://www.w3.org/2000/svg" xmlns:xlink="http://www.w3.org/1999/xlink">
<g id="graph0" class="graph" transform="scale(1 1) rotate(0) translate(4 62)">
<title>LoopManager::GetCurCnt</title>
<polygon fill="#ffffff" stroke="transparent" points="-4,4 -4,-62 291,-62 291,4 -4,4"/>
<!-- Node336 -->
<g id="node1" class="node">
<title>Node336</title>
<polygon fill="#bfbfbf" stroke="#000000" points="0,-19.5 0,-38.5 138,-38.5 138,-19.5 0,-19.5"/>
<text text-anchor="middle" x="69" y="-26.5" font-family="Helvetica,sans-Serif" font-size="10.00" fill="#000000">LoopManager::GetCurCnt</text>
</g>
<!-- Node337 -->
<g id="node2" class="node">
<title>Node337</title>
<g id="a_node2"><a xlink:href="classFweelin.html#a10bb364ecf38990653b49a98c5a89c90" target="_top" xlink:title="Fweelin::getTMAP">
<polygon fill="#ffffff" stroke="#000000" points="179,-38.5 179,-57.5 282,-57.5 282,-38.5 179,-38.5"/>
<text text-anchor="middle" x="230.5" y="-45.5" font-family="Helvetica,sans-Serif" font-size="10.00" fill="#000000">Fweelin::getTMAP</text>
</a>
</g>
</g>
<!-- Node336&#45;&gt;Node337 -->
<g id="edge1" class="edge">
<title>Node336&#45;&gt;Node337</title>
<path fill="none" stroke="#191970" d="M138.4278,-37.168C148.4531,-38.3474 158.7159,-39.5548 168.5816,-40.7155"/>
<polygon fill="#191970" stroke="#191970" points="168.3518,-44.2125 178.6923,-41.905 169.1698,-37.2604 168.3518,-44.2125"/>
</g>
<!-- Node338 -->
<g id="node3" class="node">
<title>Node338</title>
<g id="a_node3"><a xlink:href="classTriggerMap.html#aca3f85b40f3aa29a280c2d7511b84217" target="_top" xlink:title="TriggerMap::GetMap">
<polygon fill="#ffffff" stroke="#000000" points="174,-.5 174,-19.5 287,-19.5 287,-.5 174,-.5"/>
<text text-anchor="middle" x="230.5" y="-7.5" font-family="Helvetica,sans-Serif" font-size="10.00" fill="#000000">TriggerMap::GetMap</text>
</a>
</g>
</g>
<!-- Node336&#45;&gt;Node338 -->
<g id="edge2" class="edge">
<title>Node336&#45;&gt;Node338</title>
<path fill="none" stroke="#191970" d="M138.4278,-20.832C146.8154,-19.8452 155.3692,-18.8389 163.7177,-17.8567"/>
<polygon fill="#191970" stroke="#191970" points="164.2515,-21.3182 173.774,-16.6736 163.4336,-14.3661 164.2515,-21.3182"/>
</g>
</g>
</svg>
