<?xml version="1.0" encoding="UTF-8" standalone="no"?>
<!DOCTYPE svg PUBLIC "-//W3C//DTD SVG 1.1//EN"
 "http://www.w3.org/Graphics/SVG/1.1/DTD/svg11.dtd">
<!-- Generated by graphviz version 2.40.1 (20161225.0304)
 -->
<!-- Title: BlockManager::BlockManager Pages: 1 -->
<svg width="543pt" height="142pt"
 viewBox="0.00 0.00 543.00 142.00" xmlns="http://www.w3.org/2000/svg" xmlns:xlink="http://www.w3.org/1999/xlink">
<g id="graph0" class="graph" transform="scale(1 1) rotate(0) translate(4 138)">
<title>BlockManager::BlockManager</title>
<polygon fill="#ffffff" stroke="transparent" points="-4,4 -4,-138 539,-138 539,4 -4,4"/>
<!-- Node0 -->
<g id="node1" class="node">
<title>Node0</title>
<polygon fill="#bfbfbf" stroke="#000000" points="0,-57.5 0,-76.5 161,-76.5 161,-57.5 0,-57.5"/>
<text text-anchor="middle" x="80.5" y="-64.5" font-family="Helvetica,sans-Serif" font-size="10.00" fill="#000000">BlockManager::BlockManager</text>
</g>
<!-- Node1 -->
<g id="node2" class="node">
<title>Node1</title>
<g id="a_node2"><a xlink:href="classFweelin.html#a2fd02f86f34253432dd13776434f16db" target="_top" xlink:title="Fweelin::getMMG">
<polygon fill="#ffffff" stroke="#000000" points="231,-101.5 231,-120.5 331,-120.5 331,-101.5 231,-101.5"/>
<text text-anchor="middle" x="281" y="-108.5" font-family="Helvetica,sans-Serif" font-size="10.00" fill="#000000">Fweelin::getMMG</text>
</a>
</g>
</g>
<!-- Node0&#45;&gt;Node1 -->
<g id="edge1" class="edge">
<title>Node0&#45;&gt;Node1</title>
<path fill="none" stroke="#191970" d="M124.0055,-76.5473C154.3518,-83.2069 195.0417,-92.1363 227.3926,-99.2358"/>
<polygon fill="#191970" stroke="#191970" points="227.0616,-102.7464 237.5794,-101.4713 228.5621,-95.9091 227.0616,-102.7464"/>
</g>
<!-- Node2 -->
<g id="node3" class="node">
<title>Node2</title>
<g id="a_node3"><a xlink:href="classBlockManager.html#a07b5a821c70151176fbf3db215dbba82" target="_top" xlink:title="BlockManager::run_manage\l_thread">
<polygon fill="#ffffff" stroke="#000000" points="205,-52 205,-82 357,-82 357,-52 205,-52"/>
<text text-anchor="start" x="213" y="-70" font-family="Helvetica,sans-Serif" font-size="10.00" fill="#000000">BlockManager::run_manage</text>
<text text-anchor="middle" x="281" y="-59" font-family="Helvetica,sans-Serif" font-size="10.00" fill="#000000">_thread</text>
</a>
</g>
</g>
<!-- Node0&#45;&gt;Node2 -->
<g id="edge2" class="edge">
<title>Node0&#45;&gt;Node2</title>
<path fill="none" stroke="#191970" d="M161.1843,-67C172.1815,-67 183.5055,-67 194.5989,-67"/>
<polygon fill="#191970" stroke="#191970" points="194.7059,-70.5001 204.7058,-67 194.7058,-63.5001 194.7059,-70.5001"/>
</g>
<!-- Node7 -->
<g id="node8" class="node">
<title>Node7</title>
<g id="a_node8"><a xlink:href="classRT__RWThreads.html#af83b41e330638728272af35ff18dfa01" target="_top" xlink:title="RT_RWThreads::RegisterReader\lOrWriter">
<polygon fill="#ffffff" stroke="#000000" points="197,-3 197,-33 365,-33 365,-3 197,-3"/>
<text text-anchor="start" x="205" y="-21" font-family="Helvetica,sans-Serif" font-size="10.00" fill="#000000">RT_RWThreads::RegisterReader</text>
<text text-anchor="middle" x="281" y="-10" font-family="Helvetica,sans-Serif" font-size="10.00" fill="#000000">OrWriter</text>
</a>
</g>
</g>
<!-- Node0&#45;&gt;Node7 -->
<g id="edge7" class="edge">
<title>Node0&#45;&gt;Node7</title>
<path fill="none" stroke="#191970" d="M119.6344,-57.436C145.1292,-51.2053 179.1516,-42.8906 209.3822,-35.5026"/>
<polygon fill="#191970" stroke="#191970" points="210.588,-38.811 219.4712,-33.037 208.9261,-32.0111 210.588,-38.811"/>
</g>
<!-- Node3 -->
<g id="node4" class="node">
<title>Node3</title>
<g id="a_node4"><a xlink:href="classManagedChain.html#a24205aa4547a5a79484244a941760662" target="_top" xlink:title="ManagedChain::Manage">
<polygon fill="#ffffff" stroke="#000000" points="401.5,-114.5 401.5,-133.5 534.5,-133.5 534.5,-114.5 401.5,-114.5"/>
<text text-anchor="middle" x="468" y="-121.5" font-family="Helvetica,sans-Serif" font-size="10.00" fill="#000000">ManagedChain::Manage</text>
</a>
</g>
</g>
<!-- Node2&#45;&gt;Node3 -->
<g id="edge3" class="edge">
<title>Node2&#45;&gt;Node3</title>
<path fill="none" stroke="#191970" d="M333.1233,-82.0073C343.7074,-85.1965 354.7383,-88.6232 365,-92 381.1589,-97.3173 384.8071,-99.7874 401,-105 407.9629,-107.2414 415.3768,-109.4846 422.6396,-111.6035"/>
<polygon fill="#191970" stroke="#191970" points="421.8156,-115.0083 432.3932,-114.4041 423.7476,-108.2801 421.8156,-115.0083"/>
</g>
<!-- Node4 -->
<g id="node5" class="node">
<title>Node4</title>
<g id="a_node5"><a xlink:href="classPreallocated.html#aaf2139a79ca16de70acd9bc4564171b7" target="_top" xlink:title="Preallocated::RTDelete">
<polygon fill="#ffffff" stroke="#000000" points="404,-76.5 404,-95.5 532,-95.5 532,-76.5 404,-76.5"/>
<text text-anchor="middle" x="468" y="-83.5" font-family="Helvetica,sans-Serif" font-size="10.00" fill="#000000">Preallocated::RTDelete</text>
</a>
</g>
</g>
<!-- Node2&#45;&gt;Node4 -->
<g id="edge4" class="edge">
<title>Node2&#45;&gt;Node4</title>
<path fill="none" stroke="#191970" d="M357.0601,-74.728C369.2257,-75.9641 381.7998,-77.2417 393.9185,-78.473"/>
<polygon fill="#191970" stroke="#191970" points="393.6696,-81.9656 403.9722,-79.4945 394.3772,-75.0015 393.6696,-81.9656"/>
</g>
<!-- Node5 -->
<g id="node6" class="node">
<title>Node5</title>
<g id="a_node6"><a xlink:href="classFweelin.html#a681d7ca8d0789199af135f22c26a5409" target="_top" xlink:title="Fweelin::getCFG">
<polygon fill="#ffffff" stroke="#000000" points="420.5,-38.5 420.5,-57.5 515.5,-57.5 515.5,-38.5 420.5,-38.5"/>
<text text-anchor="middle" x="468" y="-45.5" font-family="Helvetica,sans-Serif" font-size="10.00" fill="#000000">Fweelin::getCFG</text>
</a>
</g>
</g>
<!-- Node2&#45;&gt;Node5 -->
<g id="edge5" class="edge">
<title>Node2&#45;&gt;Node5</title>
<path fill="none" stroke="#191970" d="M357.0601,-59.272C374.8124,-57.4683 393.4344,-55.5762 410.2424,-53.8684"/>
<polygon fill="#191970" stroke="#191970" points="410.8543,-57.3244 420.4493,-52.8314 410.1467,-50.3602 410.8543,-57.3244"/>
</g>
<!-- Node6 -->
<g id="node7" class="node">
<title>Node6</title>
<g id="a_node7"><a xlink:href="classManagedChain.html#a6a392adc8f5b7725af60baac4ab93180" target="_top" xlink:title="ManagedChain::GetType">
<polygon fill="#ffffff" stroke="#000000" points="401,-.5 401,-19.5 535,-19.5 535,-.5 401,-.5"/>
<text text-anchor="middle" x="468" y="-7.5" font-family="Helvetica,sans-Serif" font-size="10.00" fill="#000000">ManagedChain::GetType</text>
</a>
</g>
</g>
<!-- Node2&#45;&gt;Node6 -->
<g id="edge6" class="edge">
<title>Node2&#45;&gt;Node6</title>
<path fill="none" stroke="#191970" d="M333.1233,-51.9927C343.7074,-48.8035 354.7383,-45.3768 365,-42 381.1589,-36.6827 384.8071,-34.2126 401,-29 407.9629,-26.7586 415.3768,-24.5154 422.6396,-22.3965"/>
<polygon fill="#191970" stroke="#191970" points="423.7476,-25.7199 432.3932,-19.5959 421.8156,-18.9917 423.7476,-25.7199"/>
</g>
</g>
</svg>
