<?xml version="1.0" encoding="UTF-8" standalone="no"?>
<!DOCTYPE svg PUBLIC "-//W3C//DTD SVG 1.1//EN"
 "http://www.w3.org/Graphics/SVG/1.1/DTD/svg11.dtd">
<!-- Generated by graphviz version 2.40.1 (20161225.0304)
 -->
<!-- Title: BlockManager::StripeBlockOn Pages: 1 -->
<svg width="523pt" height="160pt"
 viewBox="0.00 0.00 523.00 159.50" xmlns="http://www.w3.org/2000/svg" xmlns:xlink="http://www.w3.org/1999/xlink">
<g id="graph0" class="graph" transform="scale(1 1) rotate(0) translate(4 155.5)">
<title>BlockManager::StripeBlockOn</title>
<polygon fill="#ffffff" stroke="transparent" points="-4,4 -4,-155.5 519,-155.5 519,4 -4,4"/>
<!-- Node185 -->
<g id="node1" class="node">
<title>Node185</title>
<polygon fill="#bfbfbf" stroke="#000000" points="0,-66.5 0,-85.5 161,-85.5 161,-66.5 0,-66.5"/>
<text text-anchor="middle" x="80.5" y="-73.5" font-family="Helvetica,sans-Serif" font-size="10.00" fill="#000000">BlockManager::StripeBlockOn</text>
</g>
<!-- Node186 -->
<g id="node2" class="node">
<title>Node186</title>
<g id="a_node2"><a xlink:href="classBlockManager.html#a5566277a4ec6c8a5347470433843b998" target="_top" xlink:title="BlockManager::DelHiManager">
<polygon fill="#ffffff" stroke="#000000" points="198.5,-126.5 198.5,-145.5 359.5,-145.5 359.5,-126.5 198.5,-126.5"/>
<text text-anchor="middle" x="279" y="-133.5" font-family="Helvetica,sans-Serif" font-size="10.00" fill="#000000">BlockManager::DelHiManager</text>
</a>
</g>
</g>
<!-- Node185&#45;&gt;Node186 -->
<g id="edge1" class="edge">
<title>Node185&#45;&gt;Node186</title>
<path fill="none" stroke="#191970" d="M105.2391,-85.6045C128.6469,-94.477 164.8819,-107.6584 197,-117 205.5638,-119.4908 214.7049,-121.8738 223.6613,-124.0589"/>
<polygon fill="#191970" stroke="#191970" points="223.1156,-127.5268 233.6542,-126.4371 224.7362,-120.7169 223.1156,-127.5268"/>
</g>
<!-- Node188 -->
<g id="node4" class="node">
<title>Node188</title>
<g id="a_node4"><a xlink:href="classFweelin.html#a6cb99744f75b371673c3e90031797972" target="_top" xlink:title="Fweelin::getPRE_TIMEMARKER">
<polygon fill="#ffffff" stroke="#000000" points="197,-88.5 197,-107.5 361,-107.5 361,-88.5 197,-88.5"/>
<text text-anchor="middle" x="279" y="-95.5" font-family="Helvetica,sans-Serif" font-size="10.00" fill="#000000">Fweelin::getPRE_TIMEMARKER</text>
</a>
</g>
</g>
<!-- Node185&#45;&gt;Node188 -->
<g id="edge3" class="edge">
<title>Node185&#45;&gt;Node188</title>
<path fill="none" stroke="#191970" d="M161.2375,-84.9482C169.6466,-85.8802 178.2395,-86.8326 186.7631,-87.7773"/>
<polygon fill="#191970" stroke="#191970" points="186.3973,-91.2581 196.722,-88.881 187.1684,-84.3007 186.3973,-91.2581"/>
</g>
<!-- Node189 -->
<g id="node5" class="node">
<title>Node189</title>
<g id="a_node5"><a xlink:href="classStripeBlockManager.html#a0bd66e4d0743493ad80c17203301a2db" target="_top" xlink:title="StripeBlockManager\l::Setup">
<polygon fill="#ffffff" stroke="#000000" points="222,-39 222,-69 336,-69 336,-39 222,-39"/>
<text text-anchor="start" x="230" y="-57" font-family="Helvetica,sans-Serif" font-size="10.00" fill="#000000">StripeBlockManager</text>
<text text-anchor="middle" x="279" y="-46" font-family="Helvetica,sans-Serif" font-size="10.00" fill="#000000">::Setup</text>
</a>
</g>
</g>
<!-- Node185&#45;&gt;Node189 -->
<g id="edge4" class="edge">
<title>Node185&#45;&gt;Node189</title>
<path fill="none" stroke="#191970" d="M161.2375,-67.0518C177.8788,-65.2074 195.2398,-63.2832 211.3589,-61.4967"/>
<polygon fill="#191970" stroke="#191970" points="212.1985,-64.9252 221.7521,-60.3449 211.4273,-57.9678 212.1985,-64.9252"/>
</g>
<!-- Node190 -->
<g id="node6" class="node">
<title>Node190</title>
<g id="a_node6"><a xlink:href="classBlockManager.html#ac62e5c20f032e777abfe76aad9cecee1" target="_top" xlink:title="BlockManager::AddHiManager">
<polygon fill="#ffffff" stroke="#000000" points="197.5,-.5 197.5,-19.5 360.5,-19.5 360.5,-.5 197.5,-.5"/>
<text text-anchor="middle" x="279" y="-7.5" font-family="Helvetica,sans-Serif" font-size="10.00" fill="#000000">BlockManager::AddHiManager</text>
</a>
</g>
</g>
<!-- Node185&#45;&gt;Node190 -->
<g id="edge5" class="edge">
<title>Node185&#45;&gt;Node190</title>
<path fill="none" stroke="#191970" d="M102.0794,-66.448C125.2259,-56.4472 163.2194,-40.7332 197,-30 206.0175,-27.1348 215.7029,-24.4426 225.1454,-22.0184"/>
<polygon fill="#191970" stroke="#191970" points="226.0052,-25.4113 234.8596,-19.5932 224.3095,-18.6198 226.0052,-25.4113"/>
</g>
<!-- Node187 -->
<g id="node3" class="node">
<title>Node187</title>
<g id="a_node3"><a xlink:href="classHiPriManagedChain.html#a65066950fc82d852fd81af83cf558b4f" target="_top" xlink:title="HiPriManagedChain::\lGetType">
<polygon fill="#ffffff" stroke="#000000" points="397,-121 397,-151 515,-151 515,-121 397,-121"/>
<text text-anchor="start" x="405" y="-139" font-family="Helvetica,sans-Serif" font-size="10.00" fill="#000000">HiPriManagedChain::</text>
<text text-anchor="middle" x="456" y="-128" font-family="Helvetica,sans-Serif" font-size="10.00" fill="#000000">GetType</text>
</a>
</g>
</g>
<!-- Node186&#45;&gt;Node187 -->
<g id="edge2" class="edge">
<title>Node186&#45;&gt;Node187</title>
<path fill="none" stroke="#191970" d="M359.7306,-136C368.7085,-136 377.794,-136 386.6134,-136"/>
<polygon fill="#191970" stroke="#191970" points="386.8222,-139.5001 396.8222,-136 386.8222,-132.5001 386.8222,-139.5001"/>
</g>
</g>
</svg>
