<?xml version="1.0" encoding="UTF-8" standalone="no"?>
<!DOCTYPE svg PUBLIC "-//W3C//DTD SVG 1.1//EN"
 "http://www.w3.org/Graphics/SVG/1.1/DTD/svg11.dtd">
<!-- Generated by graphviz version 2.40.1 (20161225.0304)
 -->
<!-- Title: LoopManager::SaveNewScene Pages: 1 -->
<svg width="1038pt" height="348pt"
 viewBox="0.00 0.00 1038.00 347.67" xmlns="http://www.w3.org/2000/svg" xmlns:xlink="http://www.w3.org/1999/xlink">
<g id="graph0" class="graph" transform="scale(1 1) rotate(0) translate(4 343.6699)">
<title>LoopManager::SaveNewScene</title>
<polygon fill="#ffffff" stroke="transparent" points="-4,4 -4,-343.6699 1034,-343.6699 1034,4 -4,4"/>
<!-- Node953 -->
<g id="node1" class="node">
<title>Node953</title>
<polygon fill="#bfbfbf" stroke="#000000" points="0,-213.1699 0,-232.1699 163,-232.1699 163,-213.1699 0,-213.1699"/>
<text text-anchor="middle" x="81.5" y="-220.1699" font-family="Helvetica,sans-Serif" font-size="10.00" fill="#000000">LoopManager::SaveNewScene</text>
</g>
<!-- Node954 -->
<g id="node2" class="node">
<title>Node954</title>
<g id="a_node2"><a xlink:href="classFweelin.html#a10bb364ecf38990653b49a98c5a89c90" target="_top" xlink:title="Fweelin::getTMAP">
<polygon fill="#ffffff" stroke="#000000" points="525,-320.1699 525,-339.1699 628,-339.1699 628,-320.1699 525,-320.1699"/>
<text text-anchor="middle" x="576.5" y="-327.1699" font-family="Helvetica,sans-Serif" font-size="10.00" fill="#000000">Fweelin::getTMAP</text>
</a>
</g>
</g>
<!-- Node953&#45;&gt;Node954 -->
<g id="edge1" class="edge">
<title>Node953&#45;&gt;Node954</title>
<path fill="none" stroke="#191970" d="M104.7964,-232.2003C148.9051,-249.8134 247.9976,-287.3319 335,-305.6699 395.2368,-318.3663 465.3805,-324.3879 514.5015,-327.218"/>
<polygon fill="#191970" stroke="#191970" points="514.4764,-330.7218 524.6531,-327.7747 514.8598,-323.7323 514.4764,-330.7218"/>
</g>
<!-- Node955 -->
<g id="node3" class="node">
<title>Node955</title>
<g id="a_node3"><a xlink:href="classTriggerMap.html#aaa7bec4f62540981d1e5703fe8ed575e" target="_top" xlink:title="TriggerMap::Save">
<polygon fill="#ffffff" stroke="#000000" points="199,-156.1699 199,-175.1699 299,-175.1699 299,-156.1699 199,-156.1699"/>
<text text-anchor="middle" x="249" y="-163.1699" font-family="Helvetica,sans-Serif" font-size="10.00" fill="#000000">TriggerMap::Save</text>
</a>
</g>
</g>
<!-- Node953&#45;&gt;Node955 -->
<g id="edge2" class="edge">
<title>Node953&#45;&gt;Node955</title>
<path fill="none" stroke="#191970" d="M109.5357,-213.1294C137.4358,-203.635 180.4331,-189.0031 211.3087,-178.4962"/>
<polygon fill="#191970" stroke="#191970" points="212.5335,-181.7766 220.8728,-175.2415 210.2784,-175.1497 212.5335,-181.7766"/>
</g>
<!-- Node956 -->
<g id="node4" class="node">
<title>Node956</title>
<g id="a_node4"><a xlink:href="classFweelin.html#a7b1253ea49ee57244a0d8cca152d72e5" target="_top" xlink:title="Fweelin::getLOOPMGR">
<polygon fill="#ffffff" stroke="#000000" points="693,-181.1699 693,-200.1699 818,-200.1699 818,-181.1699 693,-181.1699"/>
<text text-anchor="middle" x="755.5" y="-188.1699" font-family="Helvetica,sans-Serif" font-size="10.00" fill="#000000">Fweelin::getLOOPMGR</text>
</a>
</g>
</g>
<!-- Node955&#45;&gt;Node956 -->
<g id="edge3" class="edge">
<title>Node955&#45;&gt;Node956</title>
<path fill="none" stroke="#191970" d="M299.4169,-168.1584C389.4994,-172.6047 578.3945,-181.9282 682.6041,-187.0719"/>
<polygon fill="#191970" stroke="#191970" points="682.5657,-190.5741 692.7261,-187.5715 682.9108,-183.5826 682.5657,-190.5741"/>
</g>
<!-- Node957 -->
<g id="node5" class="node">
<title>Node957</title>
<g id="a_node5"><a xlink:href="classLoopManager.html#a4d60e86c91ab29a63f57a713edd57921" target="_top" xlink:title="LoopManager::SetAutoLoop\lSaving">
<polygon fill="#ffffff" stroke="#000000" points="335,-128.6699 335,-158.6699 484,-158.6699 484,-128.6699 335,-128.6699"/>
<text text-anchor="start" x="343" y="-146.6699" font-family="Helvetica,sans-Serif" font-size="10.00" fill="#000000">LoopManager::SetAutoLoop</text>
<text text-anchor="middle" x="409.5" y="-135.6699" font-family="Helvetica,sans-Serif" font-size="10.00" fill="#000000">Saving</text>
</a>
</g>
</g>
<!-- Node955&#45;&gt;Node957 -->
<g id="edge4" class="edge">
<title>Node955&#45;&gt;Node957</title>
<path fill="none" stroke="#191970" d="M299.3428,-158.7693C307.5586,-157.6432 316.2623,-156.4501 325.0334,-155.2478"/>
<polygon fill="#191970" stroke="#191970" points="325.5105,-158.7153 334.9425,-153.8896 324.5598,-151.7801 325.5105,-158.7153"/>
</g>
<!-- Node958 -->
<g id="node6" class="node">
<title>Node958</title>
<g id="a_node6"><a xlink:href="classFweelin.html#a681d7ca8d0789199af135f22c26a5409" target="_top" xlink:title="Fweelin::getCFG">
<polygon fill="#ffffff" stroke="#000000" points="362,-90.1699 362,-109.1699 457,-109.1699 457,-90.1699 362,-90.1699"/>
<text text-anchor="middle" x="409.5" y="-97.1699" font-family="Helvetica,sans-Serif" font-size="10.00" fill="#000000">Fweelin::getCFG</text>
</a>
</g>
</g>
<!-- Node955&#45;&gt;Node958 -->
<g id="edge5" class="edge">
<title>Node955&#45;&gt;Node958</title>
<path fill="none" stroke="#191970" d="M263.6689,-156.1625C280.3597,-145.7048 308.7176,-129.0134 335,-118.6699 341.2589,-116.2067 347.9403,-113.977 354.6355,-111.9844"/>
<polygon fill="#191970" stroke="#191970" points="355.7286,-115.3128 364.4068,-109.235 353.8326,-108.5745 355.7286,-115.3128"/>
</g>
<!-- Node959 -->
<g id="node7" class="node">
<title>Node959</title>
<g id="a_node7"><a xlink:href="classFloConfig.html#aced480ca5828c2c7b6841441a9b3d86d" target="_top" xlink:title="FloConfig::GetNumTriggers">
<polygon fill="#ffffff" stroke="#000000" points="336.5,-52.1699 336.5,-71.1699 482.5,-71.1699 482.5,-52.1699 336.5,-52.1699"/>
<text text-anchor="middle" x="409.5" y="-59.1699" font-family="Helvetica,sans-Serif" font-size="10.00" fill="#000000">FloConfig::GetNumTriggers</text>
</a>
</g>
</g>
<!-- Node955&#45;&gt;Node959 -->
<g id="edge6" class="edge">
<title>Node955&#45;&gt;Node959</title>
<path fill="none" stroke="#191970" d="M255.859,-156.1084C269.0824,-138.4019 299.9148,-100.5089 335,-80.6699 338.9632,-78.4289 343.1929,-76.4477 347.5477,-74.697"/>
<polygon fill="#191970" stroke="#191970" points="348.9977,-77.8952 357.2261,-71.221 346.6316,-71.3072 348.9977,-77.8952"/>
</g>
<!-- Node960 -->
<g id="node8" class="node">
<title>Node960</title>
<g id="a_node8"><a xlink:href="classLoopManager.html#a87ecdd3c80b3c16018a50a397f906b03" target="_top" xlink:title="LoopManager::SaveLoop">
<polygon fill="#ffffff" stroke="#000000" points="342,-235.1699 342,-254.1699 477,-254.1699 477,-235.1699 342,-235.1699"/>
<text text-anchor="middle" x="409.5" y="-242.1699" font-family="Helvetica,sans-Serif" font-size="10.00" fill="#000000">LoopManager::SaveLoop</text>
</a>
</g>
</g>
<!-- Node955&#45;&gt;Node960 -->
<g id="edge7" class="edge">
<title>Node955&#45;&gt;Node960</title>
<path fill="none" stroke="#191970" d="M268.3601,-175.1991C296.4373,-189.0191 348.6384,-214.7131 381.083,-230.6827"/>
<polygon fill="#191970" stroke="#191970" points="379.5536,-233.8309 390.0713,-235.1068 382.6449,-227.5504 379.5536,-233.8309"/>
</g>
<!-- Node965 -->
<g id="node13" class="node">
<title>Node965</title>
<g id="a_node13"><a xlink:href="classEvent.html#aa67af0ae99b897e4f0ce42068c4e4c00" target="_top" xlink:title="Event::GetEventByType">
<polygon fill="#ffffff" stroke="#000000" points="888.5,-107.1699 888.5,-126.1699 1019.5,-126.1699 1019.5,-107.1699 888.5,-107.1699"/>
<text text-anchor="middle" x="954" y="-114.1699" font-family="Helvetica,sans-Serif" font-size="10.00" fill="#000000">Event::GetEventByType</text>
</a>
</g>
</g>
<!-- Node955&#45;&gt;Node965 -->
<g id="edge16" class="edge">
<title>Node955&#45;&gt;Node965</title>
<path fill="none" stroke="#191970" d="M252.2394,-155.9086C260.9779,-131.3774 287.6287,-67.3504 335,-42.6699 540.3627,64.3246 834.8247,-59.2123 926.0109,-102.6784"/>
<polygon fill="#191970" stroke="#191970" points="924.628,-105.8973 935.1548,-107.0958 927.673,-99.5943 924.628,-105.8973"/>
</g>
<!-- Node967 -->
<g id="node15" class="node">
<title>Node967</title>
<g id="a_node15"><a xlink:href="classLoopManager.html#acaae95d3c0fe9468fba36553dc83547a" target="_top" xlink:title="LoopManager::AddToSaveQueue">
<polygon fill="#ffffff" stroke="#000000" points="669,-282.1699 669,-301.1699 842,-301.1699 842,-282.1699 669,-282.1699"/>
<text text-anchor="middle" x="755.5" y="-289.1699" font-family="Helvetica,sans-Serif" font-size="10.00" fill="#000000">LoopManager::AddToSaveQueue</text>
</a>
</g>
</g>
<!-- Node955&#45;&gt;Node967 -->
<g id="edge17" class="edge">
<title>Node955&#45;&gt;Node967</title>
<path fill="none" stroke="#191970" d="M254.054,-175.4269C265.3431,-196.0569 294.8097,-243.8323 335,-263.6699 448.4393,-319.6624 600.4645,-312.7923 687.2051,-302.433"/>
<polygon fill="#191970" stroke="#191970" points="687.7037,-305.898 697.1949,-301.1898 686.8391,-298.9516 687.7037,-305.898"/>
</g>
<!-- Node960&#45;&gt;Node954 -->
<g id="edge8" class="edge">
<title>Node960&#45;&gt;Node954</title>
<path fill="none" stroke="#191970" d="M428.3324,-254.2552C457.7277,-269.2169 514.6733,-298.2012 548.7679,-315.5547"/>
<polygon fill="#191970" stroke="#191970" points="547.2368,-318.7027 557.7364,-320.1196 550.412,-312.4642 547.2368,-318.7027"/>
</g>
<!-- Node961 -->
<g id="node9" class="node">
<title>Node961</title>
<g id="a_node9"><a xlink:href="classTriggerMap.html#aca3f85b40f3aa29a280c2d7511b84217" target="_top" xlink:title="TriggerMap::GetMap">
<polygon fill="#ffffff" stroke="#000000" points="520,-206.1699 520,-225.1699 633,-225.1699 633,-206.1699 520,-206.1699"/>
<text text-anchor="middle" x="576.5" y="-213.1699" font-family="Helvetica,sans-Serif" font-size="10.00" fill="#000000">TriggerMap::GetMap</text>
</a>
</g>
</g>
<!-- Node960&#45;&gt;Node961 -->
<g id="edge9" class="edge">
<title>Node960&#45;&gt;Node961</title>
<path fill="none" stroke="#191970" d="M464.6449,-235.0938C479.6864,-232.4818 496.1208,-229.6279 511.6486,-226.9315"/>
<polygon fill="#191970" stroke="#191970" points="512.4441,-230.3458 521.6978,-225.1864 511.2464,-223.449 512.4441,-230.3458"/>
</g>
<!-- Node962 -->
<g id="node10" class="node">
<title>Node962</title>
<g id="a_node10"><a xlink:href="classLoop.html#a53ccedecccce6659493d58c3ff6750b9" target="_top" xlink:title="Loop::Save">
<polygon fill="#ffffff" stroke="#000000" points="541.5,-244.1699 541.5,-263.1699 611.5,-263.1699 611.5,-244.1699 541.5,-244.1699"/>
<text text-anchor="middle" x="576.5" y="-251.1699" font-family="Helvetica,sans-Serif" font-size="10.00" fill="#000000">Loop::Save</text>
</a>
</g>
</g>
<!-- Node960&#45;&gt;Node962 -->
<g id="edge10" class="edge">
<title>Node960&#45;&gt;Node962</title>
<path fill="none" stroke="#191970" d="M477.4253,-248.3305C495.3517,-249.2966 514.2711,-250.3162 530.7186,-251.2026"/>
<polygon fill="#191970" stroke="#191970" points="530.9608,-254.7207 541.1346,-251.764 531.3375,-247.7308 530.9608,-254.7207"/>
</g>
<!-- Node962&#45;&gt;Node956 -->
<g id="edge11" class="edge">
<title>Node962&#45;&gt;Node956</title>
<path fill="none" stroke="#191970" d="M605.2817,-244.1174C614.1809,-241.1299 624.0072,-237.7966 633,-234.6699 662.265,-224.4946 695.3214,-212.5974 719.7133,-203.7415"/>
<polygon fill="#191970" stroke="#191970" points="721.0674,-206.9734 729.2693,-200.2667 718.6752,-200.3948 721.0674,-206.9734"/>
</g>
<!-- Node963 -->
<g id="node11" class="node">
<title>Node963</title>
<g id="a_node11"><a xlink:href="classLoopManager.html#afe9ad41d77128fff90501c3a15c76b34" target="_top" xlink:title="LoopManager::AddLoopToSave\lQueue">
<polygon fill="#ffffff" stroke="#000000" points="673.5,-232.6699 673.5,-262.6699 837.5,-262.6699 837.5,-232.6699 673.5,-232.6699"/>
<text text-anchor="start" x="681.5" y="-250.6699" font-family="Helvetica,sans-Serif" font-size="10.00" fill="#000000">LoopManager::AddLoopToSave</text>
<text text-anchor="middle" x="755.5" y="-239.6699" font-family="Helvetica,sans-Serif" font-size="10.00" fill="#000000">Queue</text>
</a>
</g>
</g>
<!-- Node962&#45;&gt;Node963 -->
<g id="edge12" class="edge">
<title>Node962&#45;&gt;Node963</title>
<path fill="none" stroke="#191970" d="M611.8646,-252.4845C626.7369,-251.986 644.8038,-251.3804 663.0348,-250.7693"/>
<polygon fill="#191970" stroke="#191970" points="663.2838,-254.263 673.1609,-250.4298 663.0492,-247.2669 663.2838,-254.263"/>
</g>
<!-- Node964 -->
<g id="node12" class="node">
<title>Node964</title>
<g id="a_node12"><a xlink:href="classSaveable.html#adc2366ae4f62d203d464879f189e499d" target="_top" xlink:title="Saveable::GetSaveStatus">
<polygon fill="#ffffff" stroke="#000000" points="884,-238.1699 884,-257.1699 1024,-257.1699 1024,-238.1699 884,-238.1699"/>
<text text-anchor="middle" x="954" y="-245.1699" font-family="Helvetica,sans-Serif" font-size="10.00" fill="#000000">Saveable::GetSaveStatus</text>
</a>
</g>
</g>
<!-- Node963&#45;&gt;Node964 -->
<g id="edge13" class="edge">
<title>Node963&#45;&gt;Node964</title>
<path fill="none" stroke="#191970" d="M837.6704,-247.6699C849.5494,-247.6699 861.7649,-247.6699 873.6085,-247.6699"/>
<polygon fill="#191970" stroke="#191970" points="873.9029,-251.17 883.9029,-247.6699 873.9028,-244.17 873.9029,-251.17"/>
</g>
<!-- Node963&#45;&gt;Node965 -->
<g id="edge14" class="edge">
<title>Node963&#45;&gt;Node965</title>
<path fill="none" stroke="#191970" d="M796.2947,-232.5076C811.1438,-226.2828 827.767,-218.464 842,-209.6699 878.6054,-187.0527 916.0578,-153.3864 937.0409,-133.3702"/>
<polygon fill="#191970" stroke="#191970" points="939.4776,-135.8826 944.2403,-126.4186 934.6153,-130.8469 939.4776,-135.8826"/>
</g>
<!-- Node966 -->
<g id="node14" class="node">
<title>Node966</title>
<g id="a_node14"><a xlink:href="classEventManager.html#a215075d1cc20ee7e2d55e9bb54ca516f" target="_top" xlink:title="EventManager::QueueEvent">
<polygon fill="#ffffff" stroke="#000000" points="878,-279.1699 878,-298.1699 1030,-298.1699 1030,-279.1699 878,-279.1699"/>
<text text-anchor="middle" x="954" y="-286.1699" font-family="Helvetica,sans-Serif" font-size="10.00" fill="#000000">EventManager::QueueEvent</text>
</a>
</g>
</g>
<!-- Node963&#45;&gt;Node966 -->
<g id="edge15" class="edge">
<title>Node963&#45;&gt;Node966</title>
<path fill="none" stroke="#191970" d="M828.2869,-262.704C851.2118,-267.4391 876.1688,-272.5939 897.7592,-277.0534"/>
<polygon fill="#191970" stroke="#191970" points="897.2411,-280.5202 907.7424,-279.1154 898.6571,-273.6649 897.2411,-280.5202"/>
</g>
<!-- Node967&#45;&gt;Node966 -->
<g id="edge18" class="edge">
<title>Node967&#45;&gt;Node966</title>
<path fill="none" stroke="#191970" d="M842.2762,-290.3584C850.7313,-290.2306 859.309,-290.101 867.7588,-289.9733"/>
<polygon fill="#191970" stroke="#191970" points="868.0393,-293.4695 877.9853,-289.8187 867.9335,-286.4703 868.0393,-293.4695"/>
</g>
</g>
</svg>
