<?xml version="1.0" encoding="UTF-8" standalone="no"?>
<!DOCTYPE svg PUBLIC "-//W3C//DTD SVG 1.1//EN"
 "http://www.w3.org/Graphics/SVG/1.1/DTD/svg11.dtd">
<!-- Generated by graphviz version 2.40.1 (20161225.0304)
 -->
<!-- Title: LoopManager::SetSubdivide Pages: 1 -->
<svg width="719pt" height="85pt"
 viewBox="0.00 0.00 719.00 85.00" xmlns="http://www.w3.org/2000/svg" xmlns:xlink="http://www.w3.org/1999/xlink">
<g id="graph0" class="graph" transform="scale(1 1) rotate(0) translate(4 81)">
<title>LoopManager::SetSubdivide</title>
<polygon fill="#ffffff" stroke="transparent" points="-4,4 -4,-81 715,-81 715,4 -4,4"/>
<!-- Node1048 -->
<g id="node1" class="node">
<title>Node1048</title>
<polygon fill="#bfbfbf" stroke="#000000" points="0,-19.5 0,-38.5 152,-38.5 152,-19.5 0,-19.5"/>
<text text-anchor="middle" x="76" y="-26.5" font-family="Helvetica,sans-Serif" font-size="10.00" fill="#000000">LoopManager::SetSubdivide</text>
</g>
<!-- Node1049 -->
<g id="node2" class="node">
<title>Node1049</title>
<g id="a_node2"><a xlink:href="classSDLIO.html#a491e66a604fb750866d5de45dfa6aae0" target="_top" xlink:title="SDLIO::handle_key">
<polygon fill="#ffffff" stroke="#000000" points="188,-19.5 188,-38.5 296,-38.5 296,-19.5 188,-19.5"/>
<text text-anchor="middle" x="242" y="-26.5" font-family="Helvetica,sans-Serif" font-size="10.00" fill="#000000">SDLIO::handle_key</text>
</a>
</g>
</g>
<!-- Node1048&#45;&gt;Node1049 -->
<g id="edge1" class="edge">
<title>Node1048&#45;&gt;Node1049</title>
<path fill="none" stroke="#191970" d="M162.2888,-29C170.885,-29 179.434,-29 187.5664,-29"/>
<polygon fill="#191970" stroke="#191970" points="162.1982,-25.5001 152.1982,-29 162.1982,-32.5001 162.1982,-25.5001"/>
</g>
<!-- Node1050 -->
<g id="node3" class="node">
<title>Node1050</title>
<g id="a_node3"><a xlink:href="classSDLIO.html#ad1b1bf6d23251b3014749b18497c1b91" target="_top" xlink:title="SDLIO::run_sdl_thread">
<polygon fill="#ffffff" stroke="#000000" points="332,-19.5 332,-38.5 456,-38.5 456,-19.5 332,-19.5"/>
<text text-anchor="middle" x="394" y="-26.5" font-family="Helvetica,sans-Serif" font-size="10.00" fill="#000000">SDLIO::run_sdl_thread</text>
</a>
</g>
</g>
<!-- Node1049&#45;&gt;Node1050 -->
<g id="edge2" class="edge">
<title>Node1049&#45;&gt;Node1050</title>
<path fill="none" stroke="#191970" d="M306.2393,-29C314.725,-29 323.4111,-29 331.8606,-29"/>
<polygon fill="#191970" stroke="#191970" points="306.0175,-25.5001 296.0175,-29 306.0175,-32.5001 306.0175,-25.5001"/>
</g>
<!-- Node1051 -->
<g id="node4" class="node">
<title>Node1051</title>
<g id="a_node4"><a xlink:href="classFweelin.html#a268997890fa59492e27b4787c6bdc41f" target="_top" xlink:title="Fweelin::go">
<polygon fill="#ffffff" stroke="#000000" points="502,-38.5 502,-57.5 574,-57.5 574,-38.5 502,-38.5"/>
<text text-anchor="middle" x="538" y="-45.5" font-family="Helvetica,sans-Serif" font-size="10.00" fill="#000000">Fweelin::go</text>
</a>
</g>
</g>
<!-- Node1050&#45;&gt;Node1051 -->
<g id="edge3" class="edge">
<title>Node1050&#45;&gt;Node1051</title>
<path fill="none" stroke="#191970" d="M466.5557,-38.5733C478.7682,-40.1847 490.9594,-41.7933 501.7237,-43.2135"/>
<polygon fill="#191970" stroke="#191970" points="466.6949,-35.0614 456.323,-37.2232 465.7792,-42.0013 466.6949,-35.0614"/>
</g>
<!-- Node1054 -->
<g id="node7" class="node">
<title>Node1054</title>
<g id="a_node7"><a xlink:href="classSDLIO.html#a219c64dd0f01ca0fe0319ba7a0a3379e" target="_top" xlink:title="SDLIO::activate">
<polygon fill="#ffffff" stroke="#000000" points="492,-.5 492,-19.5 584,-19.5 584,-.5 492,-.5"/>
<text text-anchor="middle" x="538" y="-7.5" font-family="Helvetica,sans-Serif" font-size="10.00" fill="#000000">SDLIO::activate</text>
</a>
</g>
</g>
<!-- Node1050&#45;&gt;Node1054 -->
<g id="edge6" class="edge">
<title>Node1050&#45;&gt;Node1054</title>
<path fill="none" stroke="#191970" d="M466.3832,-19.4494C474.9752,-18.3158 483.56,-17.1831 491.648,-16.1159"/>
<polygon fill="#191970" stroke="#191970" points="465.7792,-15.9987 456.323,-20.7768 466.6949,-22.9386 465.7792,-15.9987"/>
</g>
<!-- Node1052 -->
<g id="node5" class="node">
<title>Node1052</title>
<g id="a_node5"><a xlink:href="fweelin_8cc.html#a97b0fa62b7b0972875f5f589322c4c24" target="_top" xlink:title="main">
<polygon fill="#ffffff" stroke="#000000" points="645,-57.5 645,-76.5 686,-76.5 686,-57.5 645,-57.5"/>
<text text-anchor="middle" x="665.5" y="-64.5" font-family="Helvetica,sans-Serif" font-size="10.00" fill="#000000">main</text>
</a>
</g>
</g>
<!-- Node1051&#45;&gt;Node1052 -->
<g id="edge4" class="edge">
<title>Node1051&#45;&gt;Node1052</title>
<path fill="none" stroke="#191970" d="M584.127,-54.8738C604.8883,-57.9677 628.3559,-61.4648 644.7356,-63.9057"/>
<polygon fill="#191970" stroke="#191970" points="584.602,-51.406 574.1953,-53.3938 583.5702,-58.3296 584.602,-51.406"/>
</g>
<!-- Node1053 -->
<g id="node6" class="node">
<title>Node1053</title>
<g id="a_node6"><a xlink:href="classLoopTray.html#a307e6abe64c403e39fc463ec282bde27" target="_top" xlink:title="LoopTray::Draw">
<polygon fill="#ffffff" stroke="#000000" points="620,-19.5 620,-38.5 711,-38.5 711,-19.5 620,-19.5"/>
<text text-anchor="middle" x="665.5" y="-26.5" font-family="Helvetica,sans-Serif" font-size="10.00" fill="#000000">LoopTray::Draw</text>
</a>
</g>
</g>
<!-- Node1051&#45;&gt;Node1053 -->
<g id="edge5" class="edge">
<title>Node1051&#45;&gt;Node1053</title>
<path fill="none" stroke="#191970" d="M584.1051,-41.1294C595.6768,-39.405 608.0904,-37.5552 619.6497,-35.8326"/>
<polygon fill="#191970" stroke="#191970" points="583.5702,-37.6704 574.1953,-42.6062 584.602,-44.594 583.5702,-37.6704"/>
</g>
</g>
</svg>
