<?xml version="1.0" encoding="UTF-8" standalone="no"?>
<!DOCTYPE svg PUBLIC "-//W3C//DTD SVG 1.1//EN"
 "http://www.w3.org/Graphics/SVG/1.1/DTD/svg11.dtd">
<!-- Generated by graphviz version 2.40.1 (20161225.0304)
 -->
<!-- Title: Fweelin::getBROWSER Pages: 1 -->
<svg width="526pt" height="142pt"
 viewBox="0.00 0.00 526.00 142.00" xmlns="http://www.w3.org/2000/svg" xmlns:xlink="http://www.w3.org/1999/xlink">
<g id="graph0" class="graph" transform="scale(1 1) rotate(0) translate(4 138)">
<title>Fweelin::getBROWSER</title>
<polygon fill="#ffffff" stroke="transparent" points="-4,4 -4,-138 522,-138 522,4 -4,4"/>
<!-- Node126 -->
<g id="node1" class="node">
<title>Node126</title>
<polygon fill="#bfbfbf" stroke="#000000" points="0,-57.5 0,-76.5 125,-76.5 125,-57.5 0,-57.5"/>
<text text-anchor="middle" x="62.5" y="-64.5" font-family="Helvetica,sans-Serif" font-size="10.00" fill="#000000">Fweelin::getBROWSER</text>
</g>
<!-- Node127 -->
<g id="node2" class="node">
<title>Node127</title>
<g id="a_node2"><a xlink:href="classTriggerMap.html#a92e251eec5a7c5741807805b6869fab8" target="_top" xlink:title="TriggerMap::GoSave">
<polygon fill="#ffffff" stroke="#000000" points="186,-114.5 186,-133.5 299,-133.5 299,-114.5 186,-114.5"/>
<text text-anchor="middle" x="242.5" y="-121.5" font-family="Helvetica,sans-Serif" font-size="10.00" fill="#000000">TriggerMap::GoSave</text>
</a>
</g>
</g>
<!-- Node126&#45;&gt;Node127 -->
<g id="edge1" class="edge">
<title>Node126&#45;&gt;Node127</title>
<path fill="none" stroke="#191970" d="M94.2941,-80.562C113.3986,-88.384 138.3252,-98.0202 161,-105 172.3863,-108.5049 184.8402,-111.7139 196.5095,-114.457"/>
<polygon fill="#191970" stroke="#191970" points="95.4553,-77.2547 84.8771,-76.6607 92.7761,-83.7217 95.4553,-77.2547"/>
</g>
<!-- Node129 -->
<g id="node4" class="node">
<title>Node129</title>
<g id="a_node4"><a xlink:href="classLoopManager.html#a306ffe72c9623e33cad280ec3609c359" target="_top" xlink:title="LoopManager::SetupSaveLoop">
<polygon fill="#ffffff" stroke="#000000" points="161,-76.5 161,-95.5 324,-95.5 324,-76.5 161,-76.5"/>
<text text-anchor="middle" x="242.5" y="-83.5" font-family="Helvetica,sans-Serif" font-size="10.00" fill="#000000">LoopManager::SetupSaveLoop</text>
</a>
</g>
</g>
<!-- Node126&#45;&gt;Node129 -->
<g id="edge3" class="edge">
<title>Node126&#45;&gt;Node129</title>
<path fill="none" stroke="#191970" d="M135.2881,-74.6832C143.6571,-75.5666 152.2323,-76.4717 160.7095,-77.3666"/>
<polygon fill="#191970" stroke="#191970" points="135.5148,-71.1878 125.2026,-73.6186 134.7799,-78.1491 135.5148,-71.1878"/>
</g>
<!-- Node130 -->
<g id="node5" class="node">
<title>Node130</title>
<g id="a_node5"><a xlink:href="classLoopManager.html#a242f1bd7eba01c186de801ba393503e7" target="_top" xlink:title="LoopManager::ItemRenamed">
<polygon fill="#ffffff" stroke="#000000" points="164.5,-38.5 164.5,-57.5 320.5,-57.5 320.5,-38.5 164.5,-38.5"/>
<text text-anchor="middle" x="242.5" y="-45.5" font-family="Helvetica,sans-Serif" font-size="10.00" fill="#000000">LoopManager::ItemRenamed</text>
</a>
</g>
</g>
<!-- Node126&#45;&gt;Node130 -->
<g id="edge5" class="edge">
<title>Node126&#45;&gt;Node130</title>
<path fill="none" stroke="#191970" d="M135.3736,-59.3078C144.8615,-58.3063 154.6132,-57.2769 164.1855,-56.2665"/>
<polygon fill="#191970" stroke="#191970" points="134.7799,-55.8509 125.2026,-60.3814 135.5148,-62.8122 134.7799,-55.8509"/>
</g>
<!-- Node131 -->
<g id="node6" class="node">
<title>Node131</title>
<g id="a_node6"><a xlink:href="classMidiIO.html#a222509803679fcf4bcb7b4b4a34cf0cd" target="_top" xlink:title="MidiIO::activate">
<polygon fill="#ffffff" stroke="#000000" points="196,-.5 196,-19.5 289,-19.5 289,-.5 196,-.5"/>
<text text-anchor="middle" x="242.5" y="-7.5" font-family="Helvetica,sans-Serif" font-size="10.00" fill="#000000">MidiIO::activate</text>
</a>
</g>
</g>
<!-- Node126&#45;&gt;Node131 -->
<g id="edge6" class="edge">
<title>Node126&#45;&gt;Node131</title>
<path fill="none" stroke="#191970" d="M94.2941,-53.438C113.3986,-45.616 138.3252,-35.9798 161,-29 172.3863,-25.4951 184.8402,-22.2861 196.5095,-19.543"/>
<polygon fill="#191970" stroke="#191970" points="92.7761,-50.2783 84.8771,-57.3393 95.4553,-56.7453 92.7761,-50.2783"/>
</g>
<!-- Node128 -->
<g id="node3" class="node">
<title>Node128</title>
<g id="a_node3"><a xlink:href="classLoopManager.html#a00143be12c150c0a89c4f99c1e8d5e70" target="_top" xlink:title="LoopManager::GetWriteBlock">
<polygon fill="#ffffff" stroke="#000000" points="360,-95.5 360,-114.5 518,-114.5 518,-95.5 360,-95.5"/>
<text text-anchor="middle" x="439" y="-102.5" font-family="Helvetica,sans-Serif" font-size="10.00" fill="#000000">LoopManager::GetWriteBlock</text>
</a>
</g>
</g>
<!-- Node127&#45;&gt;Node128 -->
<g id="edge2" class="edge">
<title>Node127&#45;&gt;Node128</title>
<path fill="none" stroke="#191970" d="M309.0413,-117.566C325.3532,-115.9888 342.9711,-114.2852 359.812,-112.6569"/>
<polygon fill="#191970" stroke="#191970" points="308.689,-114.0836 299.0723,-118.5299 309.3628,-121.0511 308.689,-114.0836"/>
</g>
<!-- Node129&#45;&gt;Node128 -->
<g id="edge4" class="edge">
<title>Node129&#45;&gt;Node128</title>
<path fill="none" stroke="#191970" d="M334.1537,-94.8622C342.7352,-95.692 351.3841,-96.5282 359.8369,-97.3456"/>
<polygon fill="#191970" stroke="#191970" points="334.4171,-91.3714 324.1266,-93.8926 333.7433,-98.3389 334.4171,-91.3714"/>
</g>
</g>
</svg>
