<?xml version="1.0" encoding="UTF-8" standalone="no"?>
<!DOCTYPE svg PUBLIC "-//W3C//DTD SVG 1.1//EN"
 "http://www.w3.org/Graphics/SVG/1.1/DTD/svg11.dtd">
<!-- Generated by graphviz version 2.40.1 (20161225.0304)
 -->
<!-- Title: UserVariable::GetType Pages: 1 -->
<svg width="323pt" height="116pt"
 viewBox="0.00 0.00 323.00 115.50" xmlns="http://www.w3.org/2000/svg" xmlns:xlink="http://www.w3.org/1999/xlink">
<g id="graph0" class="graph" transform="scale(1 1) rotate(0) translate(4 111.5)">
<title>UserVariable::GetType</title>
<polygon fill="#ffffff" stroke="transparent" points="-4,4 -4,-111.5 319,-111.5 319,4 -4,4"/>
<!-- Node12 -->
<g id="node1" class="node">
<title>Node12</title>
<polygon fill="#bfbfbf" stroke="#000000" points="0,-50 0,-69 125,-69 125,-50 0,-50"/>
<text text-anchor="middle" x="62.5" y="-57" font-family="Helvetica,sans-Serif" font-size="10.00" fill="#000000">UserVariable::GetType</text>
</g>
<!-- Node13 -->
<g id="node2" class="node">
<title>Node13</title>
<g id="a_node2"><a xlink:href="classInputMatrix.html#aa74204a205a10f2b60809ea124db9173" target="_top" xlink:title="InputMatrix::ReceiveEvent">
<polygon fill="#ffffff" stroke="#000000" points="166,-88 166,-107 310,-107 310,-88 166,-88"/>
<text text-anchor="middle" x="238" y="-95" font-family="Helvetica,sans-Serif" font-size="10.00" fill="#000000">InputMatrix::ReceiveEvent</text>
</a>
</g>
</g>
<!-- Node12&#45;&gt;Node13 -->
<g id="edge1" class="edge">
<title>Node12&#45;&gt;Node13</title>
<path fill="none" stroke="#191970" d="M116.7783,-71.2526C141.594,-76.6258 170.6108,-82.9086 194.0324,-87.9799"/>
<polygon fill="#191970" stroke="#191970" points="117.3003,-67.7846 106.7861,-69.089 115.8189,-74.626 117.3003,-67.7846"/>
</g>
<!-- Node14 -->
<g id="node3" class="node">
<title>Node14</title>
<g id="a_node3"><a xlink:href="classLoopManager.html#a4aada2d07b7ce0a67a8119ece4805966" target="_top" xlink:title="LoopManager::ReceiveEvent">
<polygon fill="#ffffff" stroke="#000000" points="161,-50 161,-69 315,-69 315,-50 161,-50"/>
<text text-anchor="middle" x="238" y="-57" font-family="Helvetica,sans-Serif" font-size="10.00" fill="#000000">LoopManager::ReceiveEvent</text>
</a>
</g>
</g>
<!-- Node12&#45;&gt;Node14 -->
<g id="edge2" class="edge">
<title>Node12&#45;&gt;Node14</title>
<path fill="none" stroke="#191970" d="M135.4777,-59.5C143.8621,-59.5 152.4318,-59.5 160.8685,-59.5"/>
<polygon fill="#191970" stroke="#191970" points="135.3639,-56.0001 125.3638,-59.5 135.3638,-63.0001 135.3639,-56.0001"/>
</g>
<!-- Node15 -->
<g id="node4" class="node">
<title>Node15</title>
<g id="a_node4"><a xlink:href="classFloDisplayParamSet.html#a80785cfd3aaeaa5fd4bdf7d64a24f247" target="_top" xlink:title="FloDisplayParamSet\l::ReceiveEvent">
<polygon fill="#ffffff" stroke="#000000" points="181,-.5 181,-30.5 295,-30.5 295,-.5 181,-.5"/>
<text text-anchor="start" x="189" y="-18.5" font-family="Helvetica,sans-Serif" font-size="10.00" fill="#000000">FloDisplayParamSet</text>
<text text-anchor="middle" x="238" y="-7.5" font-family="Helvetica,sans-Serif" font-size="10.00" fill="#000000">::ReceiveEvent</text>
</a>
</g>
</g>
<!-- Node12&#45;&gt;Node15 -->
<g id="edge3" class="edge">
<title>Node12&#45;&gt;Node15</title>
<path fill="none" stroke="#191970" d="M110.2881,-47.5189C132.1156,-42.0465 158.1379,-35.5224 180.9804,-29.7955"/>
<polygon fill="#191970" stroke="#191970" points="109.4295,-44.1258 100.5809,-49.9527 111.1319,-50.9157 109.4295,-44.1258"/>
</g>
</g>
</svg>
