<?xml version="1.0" encoding="UTF-8" standalone="no"?>
<!DOCTYPE svg PUBLIC "-//W3C//DTD SVG 1.1//EN"
 "http://www.w3.org/Graphics/SVG/1.1/DTD/svg11.dtd">
<!-- Generated by graphviz version 2.40.1 (20161225.0304)
 -->
<!-- Title: AutoLimitProcessor::ResetLimiter Pages: 1 -->
<svg width="335pt" height="104pt"
 viewBox="0.00 0.00 335.00 104.00" xmlns="http://www.w3.org/2000/svg" xmlns:xlink="http://www.w3.org/1999/xlink">
<g id="graph0" class="graph" transform="scale(1 1) rotate(0) translate(4 100)">
<title>AutoLimitProcessor::ResetLimiter</title>
<polygon fill="#ffffff" stroke="transparent" points="-4,4 -4,-100 331,-100 331,4 -4,4"/>
<!-- Node18 -->
<g id="node1" class="node">
<title>Node18</title>
<polygon fill="#bfbfbf" stroke="#000000" points="0,-33 0,-63 111,-63 111,-33 0,-33"/>
<text text-anchor="start" x="8" y="-51" font-family="Helvetica,sans-Serif" font-size="10.00" fill="#000000">AutoLimitProcessor</text>
<text text-anchor="middle" x="55.5" y="-40" font-family="Helvetica,sans-Serif" font-size="10.00" fill="#000000">::ResetLimiter</text>
</g>
<!-- Node19 -->
<g id="node2" class="node">
<title>Node19</title>
<g id="a_node2"><a xlink:href="classFweelin.html#a681d7ca8d0789199af135f22c26a5409" target="_top" xlink:title="Fweelin::getCFG">
<polygon fill="#ffffff" stroke="#000000" points="189.5,-76.5 189.5,-95.5 284.5,-95.5 284.5,-76.5 189.5,-76.5"/>
<text text-anchor="middle" x="237" y="-83.5" font-family="Helvetica,sans-Serif" font-size="10.00" fill="#000000">Fweelin::getCFG</text>
</a>
</g>
</g>
<!-- Node18&#45;&gt;Node19 -->
<g id="edge1" class="edge">
<title>Node18&#45;&gt;Node19</title>
<path fill="none" stroke="#191970" d="M111.437,-59.7113C133.7472,-64.3823 159.3661,-69.7461 181.6206,-74.4054"/>
<polygon fill="#191970" stroke="#191970" points="181.0799,-77.868 191.585,-76.4916 182.5144,-71.0166 181.0799,-77.868"/>
</g>
<!-- Node20 -->
<g id="node3" class="node">
<title>Node20</title>
<g id="a_node3"><a xlink:href="classFloConfig.html#a5d6c14dc286302dc59bbcc570a8f052f" target="_top" xlink:title="FloConfig::GetLimiterReleaseRate">
<polygon fill="#ffffff" stroke="#000000" points="147,-38.5 147,-57.5 327,-57.5 327,-38.5 147,-38.5"/>
<text text-anchor="middle" x="237" y="-45.5" font-family="Helvetica,sans-Serif" font-size="10.00" fill="#000000">FloConfig::GetLimiterReleaseRate</text>
</a>
</g>
</g>
<!-- Node18&#45;&gt;Node20 -->
<g id="edge2" class="edge">
<title>Node18&#45;&gt;Node20</title>
<path fill="none" stroke="#191970" d="M111.437,-48C119.5223,-48 128.0421,-48 136.6789,-48"/>
<polygon fill="#191970" stroke="#191970" points="136.8524,-51.5001 146.8524,-48 136.8523,-44.5001 136.8524,-51.5001"/>
</g>
<!-- Node21 -->
<g id="node4" class="node">
<title>Node21</title>
<g id="a_node4"><a xlink:href="classFloConfig.html#a28a35578641ab8f0f8bf9db338abd856" target="_top" xlink:title="FloConfig::GetLimiterThreshhold">
<polygon fill="#ffffff" stroke="#000000" points="150.5,-.5 150.5,-19.5 323.5,-19.5 323.5,-.5 150.5,-.5"/>
<text text-anchor="middle" x="237" y="-7.5" font-family="Helvetica,sans-Serif" font-size="10.00" fill="#000000">FloConfig::GetLimiterThreshhold</text>
</a>
</g>
</g>
<!-- Node18&#45;&gt;Node21 -->
<g id="edge3" class="edge">
<title>Node18&#45;&gt;Node21</title>
<path fill="none" stroke="#191970" d="M111.437,-36.2887C133.7472,-31.6177 159.3661,-26.2539 181.6206,-21.5946"/>
<polygon fill="#191970" stroke="#191970" points="182.5144,-24.9834 191.585,-19.5084 181.0799,-18.132 182.5144,-24.9834"/>
</g>
</g>
</svg>
