<?xml version="1.0" encoding="UTF-8" standalone="no"?>
<!DOCTYPE svg PUBLIC "-//W3C//DTD SVG 1.1//EN"
 "http://www.w3.org/Graphics/SVG/1.1/DTD/svg11.dtd">
<!-- Generated by graphviz version 2.40.1 (20161225.0304)
 -->
<!-- Title: MidiIO::ReceiveProgramChangeEvent Pages: 1 -->
<svg width="476pt" height="39pt"
 viewBox="0.00 0.00 476.00 39.00" xmlns="http://www.w3.org/2000/svg" xmlns:xlink="http://www.w3.org/1999/xlink">
<g id="graph0" class="graph" transform="scale(1 1) rotate(0) translate(4 35)">
<title>MidiIO::ReceiveProgramChangeEvent</title>
<polygon fill="#ffffff" stroke="transparent" points="-4,4 -4,-35 472,-35 472,4 -4,4"/>
<!-- Node294 -->
<g id="node1" class="node">
<title>Node294</title>
<polygon fill="#bfbfbf" stroke="#000000" points="0,-.5 0,-30.5 170,-30.5 170,-.5 0,-.5"/>
<text text-anchor="start" x="8" y="-18.5" font-family="Helvetica,sans-Serif" font-size="10.00" fill="#000000">MidiIO::ReceiveProgramChange</text>
<text text-anchor="middle" x="85" y="-7.5" font-family="Helvetica,sans-Serif" font-size="10.00" fill="#000000">Event</text>
</g>
<!-- Node295 -->
<g id="node2" class="node">
<title>Node295</title>
<g id="a_node2"><a xlink:href="classMidiIO.html#aef220bcce8b89bea36032298868a919e" target="_top" xlink:title="MidiIO::run_midi_thread">
<polygon fill="#ffffff" stroke="#000000" points="206,-6 206,-25 339,-25 339,-6 206,-6"/>
<text text-anchor="middle" x="272.5" y="-13" font-family="Helvetica,sans-Serif" font-size="10.00" fill="#000000">MidiIO::run_midi_thread</text>
</a>
</g>
</g>
<!-- Node294&#45;&gt;Node295 -->
<g id="edge1" class="edge">
<title>Node294&#45;&gt;Node295</title>
<path fill="none" stroke="#191970" d="M180.3123,-15.5C188.8951,-15.5 197.4605,-15.5 205.7205,-15.5"/>
<polygon fill="#191970" stroke="#191970" points="180.246,-12.0001 170.246,-15.5 180.246,-19.0001 180.246,-12.0001"/>
</g>
<!-- Node296 -->
<g id="node3" class="node">
<title>Node296</title>
<g id="a_node3"><a xlink:href="classMidiIO.html#a222509803679fcf4bcb7b4b4a34cf0cd" target="_top" xlink:title="MidiIO::activate">
<polygon fill="#ffffff" stroke="#000000" points="375,-6 375,-25 468,-25 468,-6 375,-6"/>
<text text-anchor="middle" x="421.5" y="-13" font-family="Helvetica,sans-Serif" font-size="10.00" fill="#000000">MidiIO::activate</text>
</a>
</g>
</g>
<!-- Node295&#45;&gt;Node296 -->
<g id="edge2" class="edge">
<title>Node295&#45;&gt;Node296</title>
<path fill="none" stroke="#191970" d="M349.3918,-15.5C358.1189,-15.5 366.8022,-15.5 374.962,-15.5"/>
<polygon fill="#191970" stroke="#191970" points="349.1556,-12.0001 339.1555,-15.5 349.1555,-19.0001 349.1556,-12.0001"/>
</g>
</g>
</svg>
