<?xml version="1.0" encoding="UTF-8" standalone="no"?>
<!DOCTYPE svg PUBLIC "-//W3C//DTD SVG 1.1//EN"
 "http://www.w3.org/Graphics/SVG/1.1/DTD/svg11.dtd">
<!-- Generated by graphviz version 2.40.1 (20161225.0304)
 -->
<!-- Title: MidiIO::OutputController Pages: 1 -->
<svg width="729pt" height="154pt"
 viewBox="0.00 0.00 729.00 154.00" xmlns="http://www.w3.org/2000/svg" xmlns:xlink="http://www.w3.org/1999/xlink">
<g id="graph0" class="graph" transform="scale(1 1) rotate(0) translate(4 150)">
<title>MidiIO::OutputController</title>
<polygon fill="#ffffff" stroke="transparent" points="-4,4 -4,-150 725,-150 725,4 -4,4"/>
<!-- Node150 -->
<g id="node1" class="node">
<title>Node150</title>
<polygon fill="#bfbfbf" stroke="#000000" points="0,-60.5 0,-79.5 134,-79.5 134,-60.5 0,-60.5"/>
<text text-anchor="middle" x="67" y="-67.5" font-family="Helvetica,sans-Serif" font-size="10.00" fill="#000000">MidiIO::OutputController</text>
</g>
<!-- Node151 -->
<g id="node2" class="node">
<title>Node151</title>
<g id="a_node2"><a xlink:href="classMidiIO.html#a9f130a6f6732fcdc5c111a5708afb64f" target="_top" xlink:title="MidiIO::EchoEventToPortChannel">
<polygon fill="#ffffff" stroke="#000000" points="173,-126.5 173,-145.5 347,-145.5 347,-126.5 173,-126.5"/>
<text text-anchor="middle" x="260" y="-133.5" font-family="Helvetica,sans-Serif" font-size="10.00" fill="#000000">MidiIO::EchoEventToPortChannel</text>
</a>
</g>
</g>
<!-- Node150&#45;&gt;Node151 -->
<g id="edge1" class="edge">
<title>Node150&#45;&gt;Node151</title>
<path fill="none" stroke="#191970" d="M93.7531,-84.184C114.1685,-94.5164 143.2454,-108.191 170,-117 181.2246,-120.6957 193.4801,-123.8424 205.2326,-126.4487"/>
<polygon fill="#191970" stroke="#191970" points="95.2431,-81.0147 84.7488,-79.559 92.0448,-87.2414 95.2431,-81.0147"/>
</g>
<!-- Node154 -->
<g id="node5" class="node">
<title>Node154</title>
<g id="a_node5"><a xlink:href="classMidiIO.html#ad332f41abafbe8f2359779eaa99bec59" target="_top" xlink:title="MidiIO::SendBankProgramChange\lToPortChannel">
<polygon fill="#ffffff" stroke="#000000" points="170,-77 170,-107 350,-107 350,-77 170,-77"/>
<text text-anchor="start" x="178" y="-95" font-family="Helvetica,sans-Serif" font-size="10.00" fill="#000000">MidiIO::SendBankProgramChange</text>
<text text-anchor="middle" x="260" y="-84" font-family="Helvetica,sans-Serif" font-size="10.00" fill="#000000">ToPortChannel</text>
</a>
</g>
</g>
<!-- Node150&#45;&gt;Node154 -->
<g id="edge4" class="edge">
<title>Node150&#45;&gt;Node154</title>
<path fill="none" stroke="#191970" d="M144.3674,-78.8191C152.7743,-79.7774 161.383,-80.7587 169.9242,-81.7323"/>
<polygon fill="#191970" stroke="#191970" points="144.5632,-75.3188 134.2311,-77.6636 143.7703,-82.2738 144.5632,-75.3188"/>
</g>
<!-- Node156 -->
<g id="node7" class="node">
<title>Node156</title>
<g id="a_node7"><a xlink:href="classMidiIO.html#a690fe0a8460ce500fa09580f3b9de957" target="_top" xlink:title="MidiIO::CheckBypass">
<polygon fill="#ffffff" stroke="#000000" points="200.5,-38.5 200.5,-57.5 319.5,-57.5 319.5,-38.5 200.5,-38.5"/>
<text text-anchor="middle" x="260" y="-45.5" font-family="Helvetica,sans-Serif" font-size="10.00" fill="#000000">MidiIO::CheckBypass</text>
</a>
</g>
</g>
<!-- Node150&#45;&gt;Node156 -->
<g id="edge6" class="edge">
<title>Node150&#45;&gt;Node156</title>
<path fill="none" stroke="#191970" d="M144.2079,-61.1991C162.9255,-59.0655 182.6526,-56.8168 200.4149,-54.7921"/>
<polygon fill="#191970" stroke="#191970" points="143.7703,-57.7262 134.2311,-62.3364 144.5632,-64.6812 143.7703,-57.7262"/>
</g>
<!-- Node159 -->
<g id="node10" class="node">
<title>Node159</title>
<g id="a_node10"><a xlink:href="classMidiIO.html#a6551af8e78f2eed77b3193c83fa52d15" target="_top" xlink:title="MidiIO::CheckUnbypass">
<polygon fill="#ffffff" stroke="#000000" points="194.5,-.5 194.5,-19.5 325.5,-19.5 325.5,-.5 194.5,-.5"/>
<text text-anchor="middle" x="260" y="-7.5" font-family="Helvetica,sans-Serif" font-size="10.00" fill="#000000">MidiIO::CheckUnbypass</text>
</a>
</g>
</g>
<!-- Node150&#45;&gt;Node159 -->
<g id="edge9" class="edge">
<title>Node150&#45;&gt;Node159</title>
<path fill="none" stroke="#191970" d="M97.2594,-56.368C117.5287,-47.6336 144.9839,-36.5591 170,-29 181.9237,-25.3971 194.9365,-22.2258 207.2677,-19.5577"/>
<polygon fill="#191970" stroke="#191970" points="95.6924,-53.233 87.9284,-60.4421 98.4934,-59.6482 95.6924,-53.233"/>
</g>
<!-- Node152 -->
<g id="node3" class="node">
<title>Node152</title>
<g id="a_node3"><a xlink:href="classMidiIO.html#aae58e8a30b732a5eee97d76785a5909a" target="_top" xlink:title="MidiIO::EchoEvent">
<polygon fill="#ffffff" stroke="#000000" points="424,-126.5 424,-145.5 528,-145.5 528,-126.5 424,-126.5"/>
<text text-anchor="middle" x="476" y="-133.5" font-family="Helvetica,sans-Serif" font-size="10.00" fill="#000000">MidiIO::EchoEvent</text>
</a>
</g>
</g>
<!-- Node151&#45;&gt;Node152 -->
<g id="edge2" class="edge">
<title>Node151&#45;&gt;Node152</title>
<path fill="none" stroke="#191970" d="M357.3544,-136C380.2797,-136 403.8511,-136 423.8824,-136"/>
<polygon fill="#191970" stroke="#191970" points="357.2329,-132.5001 347.2329,-136 357.2328,-139.5001 357.2329,-132.5001"/>
</g>
<!-- Node153 -->
<g id="node4" class="node">
<title>Node153</title>
<g id="a_node4"><a xlink:href="classMidiIO.html#a90cc0dad2841a9386a0c86efc1d9dce6" target="_top" xlink:title="MidiIO::ReceiveEvent">
<polygon fill="#ffffff" stroke="#000000" points="602,-126.5 602,-145.5 721,-145.5 721,-126.5 602,-126.5"/>
<text text-anchor="middle" x="661.5" y="-133.5" font-family="Helvetica,sans-Serif" font-size="10.00" fill="#000000">MidiIO::ReceiveEvent</text>
</a>
</g>
</g>
<!-- Node152&#45;&gt;Node153 -->
<g id="edge3" class="edge">
<title>Node152&#45;&gt;Node153</title>
<path fill="none" stroke="#191970" d="M538.345,-136C558.8493,-136 581.5828,-136 601.8795,-136"/>
<polygon fill="#191970" stroke="#191970" points="538.1658,-132.5001 528.1657,-136 538.1657,-139.5001 538.1658,-132.5001"/>
</g>
<!-- Node155 -->
<g id="node6" class="node">
<title>Node155</title>
<g id="a_node6"><a xlink:href="classMidiIO.html#a6da1afe464151972b9d322964a968d29" target="_top" xlink:title="MidiIO::SendBankProgramChange">
<polygon fill="#ffffff" stroke="#000000" points="386,-82.5 386,-101.5 566,-101.5 566,-82.5 386,-82.5"/>
<text text-anchor="middle" x="476" y="-89.5" font-family="Helvetica,sans-Serif" font-size="10.00" fill="#000000">MidiIO::SendBankProgramChange</text>
</a>
</g>
</g>
<!-- Node154&#45;&gt;Node155 -->
<g id="edge5" class="edge">
<title>Node154&#45;&gt;Node155</title>
<path fill="none" stroke="#191970" d="M360.0586,-92C368.6309,-92 377.2703,-92 385.7592,-92"/>
<polygon fill="#191970" stroke="#191970" points="360.0394,-88.5001 350.0394,-92 360.0393,-95.5001 360.0394,-88.5001"/>
</g>
<!-- Node157 -->
<g id="node8" class="node">
<title>Node157</title>
<g id="a_node8"><a xlink:href="classMidiIO.html#aef220bcce8b89bea36032298868a919e" target="_top" xlink:title="MidiIO::run_midi_thread">
<polygon fill="#ffffff" stroke="#000000" points="409.5,-19.5 409.5,-38.5 542.5,-38.5 542.5,-19.5 409.5,-19.5"/>
<text text-anchor="middle" x="476" y="-26.5" font-family="Helvetica,sans-Serif" font-size="10.00" fill="#000000">MidiIO::run_midi_thread</text>
</a>
</g>
</g>
<!-- Node156&#45;&gt;Node157 -->
<g id="edge7" class="edge">
<title>Node156&#45;&gt;Node157</title>
<path fill="none" stroke="#191970" d="M329.5915,-41.8785C355.1736,-39.6282 384.0615,-37.0872 409.3763,-34.8604"/>
<polygon fill="#191970" stroke="#191970" points="329.2496,-38.395 319.5947,-42.7579 329.863,-45.3681 329.2496,-38.395"/>
</g>
<!-- Node158 -->
<g id="node9" class="node">
<title>Node158</title>
<g id="a_node9"><a xlink:href="classMidiIO.html#a222509803679fcf4bcb7b4b4a34cf0cd" target="_top" xlink:title="MidiIO::activate">
<polygon fill="#ffffff" stroke="#000000" points="615,-19.5 615,-38.5 708,-38.5 708,-19.5 615,-19.5"/>
<text text-anchor="middle" x="661.5" y="-26.5" font-family="Helvetica,sans-Serif" font-size="10.00" fill="#000000">MidiIO::activate</text>
</a>
</g>
</g>
<!-- Node157&#45;&gt;Node158 -->
<g id="edge8" class="edge">
<title>Node157&#45;&gt;Node158</title>
<path fill="none" stroke="#191970" d="M552.9154,-29C573.9318,-29 596.0661,-29 614.8281,-29"/>
<polygon fill="#191970" stroke="#191970" points="552.7077,-25.5001 542.7077,-29 552.7076,-32.5001 552.7077,-25.5001"/>
</g>
<!-- Node159&#45;&gt;Node157 -->
<g id="edge10" class="edge">
<title>Node159&#45;&gt;Node157</title>
<path fill="none" stroke="#191970" d="M335.7737,-16.6653C359.6768,-18.7679 385.8985,-21.0744 409.1338,-23.1182"/>
<polygon fill="#191970" stroke="#191970" points="335.9551,-13.1678 325.6869,-15.778 335.3417,-20.1409 335.9551,-13.1678"/>
</g>
</g>
</svg>
