<?xml version="1.0" encoding="UTF-8" standalone="no"?>
<!DOCTYPE svg PUBLIC "-//W3C//DTD SVG 1.1//EN"
 "http://www.w3.org/Graphics/SVG/1.1/DTD/svg11.dtd">
<!-- Generated by graphviz version 2.40.1 (20161225.0304)
 -->
<!-- Title: Fweelin::setCURSCENE Pages: 1 -->
<svg width="520pt" height="104pt"
 viewBox="0.00 0.00 520.00 104.00" xmlns="http://www.w3.org/2000/svg" xmlns:xlink="http://www.w3.org/1999/xlink">
<g id="graph0" class="graph" transform="scale(1 1) rotate(0) translate(4 100)">
<title>Fweelin::setCURSCENE</title>
<polygon fill="#ffffff" stroke="transparent" points="-4,4 -4,-100 516,-100 516,4 -4,4"/>
<!-- Node607 -->
<g id="node1" class="node">
<title>Node607</title>
<polygon fill="#bfbfbf" stroke="#000000" points="0,-38.5 0,-57.5 128,-57.5 128,-38.5 0,-38.5"/>
<text text-anchor="middle" x="64" y="-45.5" font-family="Helvetica,sans-Serif" font-size="10.00" fill="#000000">Fweelin::setCURSCENE</text>
</g>
<!-- Node608 -->
<g id="node2" class="node">
<title>Node608</title>
<g id="a_node2"><a xlink:href="classTriggerMap.html#a92e251eec5a7c5741807805b6869fab8" target="_top" xlink:title="TriggerMap::GoSave">
<polygon fill="#ffffff" stroke="#000000" points="184.5,-76.5 184.5,-95.5 297.5,-95.5 297.5,-76.5 184.5,-76.5"/>
<text text-anchor="middle" x="241" y="-83.5" font-family="Helvetica,sans-Serif" font-size="10.00" fill="#000000">TriggerMap::GoSave</text>
</a>
</g>
</g>
<!-- Node607&#45;&gt;Node608 -->
<g id="edge1" class="edge">
<title>Node607&#45;&gt;Node608</title>
<path fill="none" stroke="#191970" d="M118.7423,-59.7526C143.77,-65.1258 173.0348,-71.4086 196.6566,-76.4799"/>
<polygon fill="#191970" stroke="#191970" points="119.1765,-56.2661 108.6646,-57.589 117.7071,-63.1102 119.1765,-56.2661"/>
</g>
<!-- Node610 -->
<g id="node4" class="node">
<title>Node610</title>
<g id="a_node4"><a xlink:href="classLoopManager.html#a05a6a438d14482e2f22aa802cfb432e8" target="_top" xlink:title="LoopManager::LoadScene">
<polygon fill="#ffffff" stroke="#000000" points="171,-38.5 171,-57.5 311,-57.5 311,-38.5 171,-38.5"/>
<text text-anchor="middle" x="241" y="-45.5" font-family="Helvetica,sans-Serif" font-size="10.00" fill="#000000">LoopManager::LoadScene</text>
</a>
</g>
</g>
<!-- Node607&#45;&gt;Node610 -->
<g id="edge3" class="edge">
<title>Node607&#45;&gt;Node610</title>
<path fill="none" stroke="#191970" d="M138.3452,-48C149.0912,-48 160.1231,-48 170.7847,-48"/>
<polygon fill="#191970" stroke="#191970" points="138.1514,-44.5001 128.1513,-48 138.1513,-51.5001 138.1514,-44.5001"/>
</g>
<!-- Node611 -->
<g id="node5" class="node">
<title>Node611</title>
<g id="a_node5"><a xlink:href="classLoopManager.html#a4aada2d07b7ce0a67a8119ece4805966" target="_top" xlink:title="LoopManager::ReceiveEvent">
<polygon fill="#ffffff" stroke="#000000" points="164,-.5 164,-19.5 318,-19.5 318,-.5 164,-.5"/>
<text text-anchor="middle" x="241" y="-7.5" font-family="Helvetica,sans-Serif" font-size="10.00" fill="#000000">LoopManager::ReceiveEvent</text>
</a>
</g>
</g>
<!-- Node607&#45;&gt;Node611 -->
<g id="edge4" class="edge">
<title>Node607&#45;&gt;Node611</title>
<path fill="none" stroke="#191970" d="M118.7423,-36.2474C143.77,-30.8742 173.0348,-24.5914 196.6566,-19.5201"/>
<polygon fill="#191970" stroke="#191970" points="117.7071,-32.8898 108.6646,-38.411 119.1765,-39.7339 117.7071,-32.8898"/>
</g>
<!-- Node609 -->
<g id="node3" class="node">
<title>Node609</title>
<g id="a_node3"><a xlink:href="classLoopManager.html#a00143be12c150c0a89c4f99c1e8d5e70" target="_top" xlink:title="LoopManager::GetWriteBlock">
<polygon fill="#ffffff" stroke="#000000" points="354,-76.5 354,-95.5 512,-95.5 512,-76.5 354,-76.5"/>
<text text-anchor="middle" x="433" y="-83.5" font-family="Helvetica,sans-Serif" font-size="10.00" fill="#000000">LoopManager::GetWriteBlock</text>
</a>
</g>
</g>
<!-- Node608&#45;&gt;Node609 -->
<g id="edge2" class="edge">
<title>Node608&#45;&gt;Node609</title>
<path fill="none" stroke="#191970" d="M307.6665,-86C322.5215,-86 338.4132,-86 353.7197,-86"/>
<polygon fill="#191970" stroke="#191970" points="307.5679,-82.5001 297.5679,-86 307.5678,-89.5001 307.5679,-82.5001"/>
</g>
</g>
</svg>
