<?xml version="1.0" encoding="UTF-8" standalone="no"?>
<!DOCTYPE svg PUBLIC "-//W3C//DTD SVG 1.1//EN"
 "http://www.w3.org/Graphics/SVG/1.1/DTD/svg11.dtd">
<!-- Generated by graphviz version 2.40.1 (20161225.0304)
 -->
<!-- Title: SDLIO::run_sdl_thread Pages: 1 -->
<svg width="550pt" height="408pt"
 viewBox="0.00 0.00 550.00 408.00" xmlns="http://www.w3.org/2000/svg" xmlns:xlink="http://www.w3.org/1999/xlink">
<g id="graph0" class="graph" transform="scale(1 1) rotate(0) translate(4 404)">
<title>SDLIO::run_sdl_thread</title>
<polygon fill="#ffffff" stroke="transparent" points="-4,4 -4,-404 546,-404 546,4 -4,4"/>
<!-- Node83 -->
<g id="node1" class="node">
<title>Node83</title>
<polygon fill="#bfbfbf" stroke="#000000" points="0,-228.5 0,-247.5 124,-247.5 124,-228.5 0,-228.5"/>
<text text-anchor="middle" x="62" y="-235.5" font-family="Helvetica,sans-Serif" font-size="10.00" fill="#000000">SDLIO::run_sdl_thread</text>
</g>
<!-- Node84 -->
<g id="node2" class="node">
<title>Node84</title>
<g id="a_node2"><a xlink:href="classFweelin.html#a21e51d7b639faaecc415624ab6c16a71" target="_top" xlink:title="Fweelin::getEMG">
<polygon fill="#ffffff" stroke="#000000" points="206.5,-380.5 206.5,-399.5 304.5,-399.5 304.5,-380.5 206.5,-380.5"/>
<text text-anchor="middle" x="255.5" y="-387.5" font-family="Helvetica,sans-Serif" font-size="10.00" fill="#000000">Fweelin::getEMG</text>
</a>
</g>
</g>
<!-- Node83&#45;&gt;Node84 -->
<g id="edge1" class="edge">
<title>Node83&#45;&gt;Node84</title>
<path fill="none" stroke="#191970" d="M66.048,-247.6123C77.0633,-272.5013 110.1324,-339.3116 160,-371 170.8079,-377.8679 183.5813,-382.3349 196.2107,-385.2206"/>
<polygon fill="#191970" stroke="#191970" points="195.7788,-388.703 206.2681,-387.2115 197.1381,-381.8362 195.7788,-388.703"/>
</g>
<!-- Node85 -->
<g id="node3" class="node">
<title>Node85</title>
<g id="a_node3"><a xlink:href="classEventManager.html#a900be2c959408f76e6926c96197bd773" target="_top" xlink:title="EventManager::ListenEvent">
<polygon fill="#ffffff" stroke="#000000" points="181,-342.5 181,-361.5 330,-361.5 330,-342.5 181,-342.5"/>
<text text-anchor="middle" x="255.5" y="-349.5" font-family="Helvetica,sans-Serif" font-size="10.00" fill="#000000">EventManager::ListenEvent</text>
</a>
</g>
</g>
<!-- Node83&#45;&gt;Node85 -->
<g id="edge2" class="edge">
<title>Node83&#45;&gt;Node85</title>
<path fill="none" stroke="#191970" d="M68.8487,-247.6538C83.2753,-267.1993 118.8717,-311.4247 160,-333 164.5156,-335.3688 169.2929,-337.4432 174.2076,-339.2596"/>
<polygon fill="#191970" stroke="#191970" points="173.202,-342.6136 183.7955,-342.4444 175.4087,-335.9704 173.202,-342.6136"/>
</g>
<!-- Node86 -->
<g id="node4" class="node">
<title>Node86</title>
<g id="a_node4"><a xlink:href="classEvent.html#aa67af0ae99b897e4f0ce42068c4e4c00" target="_top" xlink:title="Event::GetEventByType">
<polygon fill="#ffffff" stroke="#000000" points="190,-304.5 190,-323.5 321,-323.5 321,-304.5 190,-304.5"/>
<text text-anchor="middle" x="255.5" y="-311.5" font-family="Helvetica,sans-Serif" font-size="10.00" fill="#000000">Event::GetEventByType</text>
</a>
</g>
</g>
<!-- Node83&#45;&gt;Node86 -->
<g id="edge3" class="edge">
<title>Node83&#45;&gt;Node86</title>
<path fill="none" stroke="#191970" d="M75.237,-247.6299C93.429,-260.3993 127.599,-282.7451 160,-295 167.1708,-297.7122 174.7981,-300.0597 182.4951,-302.0867"/>
<polygon fill="#191970" stroke="#191970" points="181.7062,-305.4969 192.2527,-304.486 183.3777,-298.6994 181.7062,-305.4969"/>
</g>
<!-- Node87 -->
<g id="node5" class="node">
<title>Node87</title>
<g id="a_node5"><a xlink:href="classEventManager.html#a4a73f2e7ff1724f28427f7c0d5725c8e" target="_top" xlink:title="EventManager::BroadcastEventNow">
<polygon fill="#ffffff" stroke="#000000" points="160,-266.5 160,-285.5 351,-285.5 351,-266.5 160,-266.5"/>
<text text-anchor="middle" x="255.5" y="-273.5" font-family="Helvetica,sans-Serif" font-size="10.00" fill="#000000">EventManager::BroadcastEventNow</text>
</a>
</g>
</g>
<!-- Node83&#45;&gt;Node87 -->
<g id="edge4" class="edge">
<title>Node83&#45;&gt;Node87</title>
<path fill="none" stroke="#191970" d="M110.8282,-247.589C137.0528,-252.739 169.5617,-259.1232 197.1162,-264.5344"/>
<polygon fill="#191970" stroke="#191970" points="196.5358,-267.9873 207.0229,-266.4799 197.8848,-261.1185 196.5358,-267.9873"/>
</g>
<!-- Node91 -->
<g id="node9" class="node">
<title>Node91</title>
<g id="a_node9"><a xlink:href="classFweelin.html#a681d7ca8d0789199af135f22c26a5409" target="_top" xlink:title="Fweelin::getCFG">
<polygon fill="#ffffff" stroke="#000000" points="417,-228.5 417,-247.5 512,-247.5 512,-228.5 417,-228.5"/>
<text text-anchor="middle" x="464.5" y="-235.5" font-family="Helvetica,sans-Serif" font-size="10.00" fill="#000000">Fweelin::getCFG</text>
</a>
</g>
</g>
<!-- Node83&#45;&gt;Node91 -->
<g id="edge8" class="edge">
<title>Node83&#45;&gt;Node91</title>
<path fill="none" stroke="#191970" d="M124.0085,-238C201.092,-238 331.6315,-238 406.7045,-238"/>
<polygon fill="#191970" stroke="#191970" points="406.9182,-241.5001 416.9182,-238 406.9182,-234.5001 406.9182,-241.5001"/>
</g>
<!-- Node92 -->
<g id="node10" class="node">
<title>Node92</title>
<g id="a_node10"><a xlink:href="classFloConfig.html#aaedfda90b488c27061a73b3bc98faf9a" target="_top" xlink:title="FloConfig::IsDebugInfo">
<polygon fill="#ffffff" stroke="#000000" points="192.5,-190.5 192.5,-209.5 318.5,-209.5 318.5,-190.5 192.5,-190.5"/>
<text text-anchor="middle" x="255.5" y="-197.5" font-family="Helvetica,sans-Serif" font-size="10.00" fill="#000000">FloConfig::IsDebugInfo</text>
</a>
</g>
</g>
<!-- Node83&#45;&gt;Node92 -->
<g id="edge9" class="edge">
<title>Node83&#45;&gt;Node92</title>
<path fill="none" stroke="#191970" d="M110.8282,-228.411C137.0528,-223.261 169.5617,-216.8768 197.1162,-211.4656"/>
<polygon fill="#191970" stroke="#191970" points="197.8848,-214.8815 207.0229,-209.5201 196.5358,-208.0127 197.8848,-214.8815"/>
</g>
<!-- Node93 -->
<g id="node11" class="node">
<title>Node93</title>
<g id="a_node11"><a xlink:href="classSDLIO.html#ab0043db04cba9d0a26b8cce4b20f85f8" target="_top" xlink:title="SDLIO::GetSDLName">
<polygon fill="#ffffff" stroke="#000000" points="197,-152.5 197,-171.5 314,-171.5 314,-152.5 197,-152.5"/>
<text text-anchor="middle" x="255.5" y="-159.5" font-family="Helvetica,sans-Serif" font-size="10.00" fill="#000000">SDLIO::GetSDLName</text>
</a>
</g>
</g>
<!-- Node83&#45;&gt;Node93 -->
<g id="edge10" class="edge">
<title>Node83&#45;&gt;Node93</title>
<path fill="none" stroke="#191970" d="M75.237,-228.3701C93.429,-215.6007 127.599,-193.2549 160,-181 168.5346,-177.772 177.7157,-175.0606 186.8914,-172.7913"/>
<polygon fill="#191970" stroke="#191970" points="187.8593,-176.16 196.815,-170.4991 186.2838,-169.3396 187.8593,-176.16"/>
</g>
<!-- Node94 -->
<g id="node12" class="node">
<title>Node94</title>
<g id="a_node12"><a xlink:href="classSDLIO.html#a491e66a604fb750866d5de45dfa6aae0" target="_top" xlink:title="SDLIO::handle_key">
<polygon fill="#ffffff" stroke="#000000" points="201.5,-114.5 201.5,-133.5 309.5,-133.5 309.5,-114.5 201.5,-114.5"/>
<text text-anchor="middle" x="255.5" y="-121.5" font-family="Helvetica,sans-Serif" font-size="10.00" fill="#000000">SDLIO::handle_key</text>
</a>
</g>
</g>
<!-- Node83&#45;&gt;Node94 -->
<g id="edge11" class="edge">
<title>Node83&#45;&gt;Node94</title>
<path fill="none" stroke="#191970" d="M68.8487,-228.3462C83.2753,-208.8007 118.8717,-164.5753 160,-143 169.6276,-137.9495 180.4451,-134.2375 191.247,-131.5101"/>
<polygon fill="#191970" stroke="#191970" points="192.1483,-134.8947 201.1281,-129.2721 190.602,-128.0676 192.1483,-134.8947"/>
</g>
<!-- Node101 -->
<g id="node19" class="node">
<title>Node101</title>
<g id="a_node19"><a xlink:href="classEventManager.html#abfc3ddd37f9bd472a41ab43632e44736" target="_top" xlink:title="EventManager::UnlistenEvent">
<polygon fill="#ffffff" stroke="#000000" points="175,-76.5 175,-95.5 336,-95.5 336,-76.5 175,-76.5"/>
<text text-anchor="middle" x="255.5" y="-83.5" font-family="Helvetica,sans-Serif" font-size="10.00" fill="#000000">EventManager::UnlistenEvent</text>
</a>
</g>
</g>
<!-- Node83&#45;&gt;Node101 -->
<g id="edge19" class="edge">
<title>Node83&#45;&gt;Node101</title>
<path fill="none" stroke="#191970" d="M66.048,-228.3877C77.0633,-203.4987 110.1324,-136.6884 160,-105 163.1835,-102.977 166.5376,-101.1624 170.0082,-99.5351"/>
<polygon fill="#191970" stroke="#191970" points="171.5194,-102.6979 179.4306,-95.6507 168.8514,-96.2263 171.5194,-102.6979"/>
</g>
<!-- Node88 -->
<g id="node6" class="node">
<title>Node88</title>
<g id="a_node6"><a xlink:href="classEvent.html#ac4c4170579544b41dff38ca1b8110e30" target="_top" xlink:title="Event::GetType">
<polygon fill="#ffffff" stroke="#000000" points="419.5,-342.5 419.5,-361.5 509.5,-361.5 509.5,-342.5 419.5,-342.5"/>
<text text-anchor="middle" x="464.5" y="-349.5" font-family="Helvetica,sans-Serif" font-size="10.00" fill="#000000">Event::GetType</text>
</a>
</g>
</g>
<!-- Node87&#45;&gt;Node88 -->
<g id="edge5" class="edge">
<title>Node87&#45;&gt;Node88</title>
<path fill="none" stroke="#191970" d="M328.6165,-285.6359C336.4235,-288.0899 344.0442,-291.1602 351,-295 371.3672,-306.2434 366.8853,-321.311 387,-333 393.9826,-337.0577 401.804,-340.2527 409.7201,-342.7674"/>
<polygon fill="#191970" stroke="#191970" points="408.7969,-346.1436 419.3728,-345.5096 410.7099,-339.41 408.7969,-346.1436"/>
</g>
<!-- Node89 -->
<g id="node7" class="node">
<title>Node89</title>
<g id="a_node7"><a xlink:href="classEventListener.html#a831820a9229e852bd7e2fad686b725b2" target="_top" xlink:title="EventListener::ReceiveEvent">
<polygon fill="#ffffff" stroke="#000000" points="387,-304.5 387,-323.5 542,-323.5 542,-304.5 387,-304.5"/>
<text text-anchor="middle" x="464.5" y="-311.5" font-family="Helvetica,sans-Serif" font-size="10.00" fill="#000000">EventListener::ReceiveEvent</text>
</a>
</g>
</g>
<!-- Node87&#45;&gt;Node89 -->
<g id="edge6" class="edge">
<title>Node87&#45;&gt;Node89</title>
<path fill="none" stroke="#191970" d="M307.9698,-285.54C336.5413,-290.7348 372.0796,-297.1963 402.0691,-302.6489"/>
<polygon fill="#191970" stroke="#191970" points="401.5438,-306.1107 412.0087,-304.4561 402.7961,-299.2236 401.5438,-306.1107"/>
</g>
<!-- Node90 -->
<g id="node8" class="node">
<title>Node90</title>
<g id="a_node8"><a xlink:href="classPreallocated.html#aaf2139a79ca16de70acd9bc4564171b7" target="_top" xlink:title="Preallocated::RTDelete">
<polygon fill="#ffffff" stroke="#000000" points="400.5,-266.5 400.5,-285.5 528.5,-285.5 528.5,-266.5 400.5,-266.5"/>
<text text-anchor="middle" x="464.5" y="-273.5" font-family="Helvetica,sans-Serif" font-size="10.00" fill="#000000">Preallocated::RTDelete</text>
</a>
</g>
</g>
<!-- Node87&#45;&gt;Node90 -->
<g id="edge7" class="edge">
<title>Node87&#45;&gt;Node90</title>
<path fill="none" stroke="#191970" d="M351.1311,-276C364.277,-276 377.6115,-276 390.2943,-276"/>
<polygon fill="#191970" stroke="#191970" points="390.3099,-279.5001 400.3099,-276 390.3098,-272.5001 390.3099,-279.5001"/>
</g>
<!-- Node94&#45;&gt;Node91 -->
<g id="edge13" class="edge">
<title>Node94&#45;&gt;Node91</title>
<path fill="none" stroke="#191970" d="M309.749,-125.9876C324.3195,-128.7467 339.2699,-133.8509 351,-143 380.4713,-165.9866 358.0419,-195.3702 387,-219 392.8295,-223.7569 399.6739,-227.3506 406.84,-230.0605"/>
<polygon fill="#191970" stroke="#191970" points="406.1553,-233.5163 416.7464,-233.2343 408.2911,-226.8501 406.1553,-233.5163"/>
</g>
<!-- Node95 -->
<g id="node13" class="node">
<title>Node95</title>
<g id="a_node13"><a xlink:href="classFweelin.html#a4422f3a93561eff272cd5f7ecb0782ee" target="_top" xlink:title="Fweelin::getRP">
<polygon fill="#ffffff" stroke="#000000" points="420,-190.5 420,-209.5 509,-209.5 509,-190.5 420,-190.5"/>
<text text-anchor="middle" x="464.5" y="-197.5" font-family="Helvetica,sans-Serif" font-size="10.00" fill="#000000">Fweelin::getRP</text>
</a>
</g>
</g>
<!-- Node94&#45;&gt;Node95 -->
<g id="edge12" class="edge">
<title>Node94&#45;&gt;Node95</title>
<path fill="none" stroke="#191970" d="M309.568,-128.8117C323.6661,-131.6281 338.4204,-136.0556 351,-143 371.3672,-154.2434 366.8853,-169.311 387,-181 394.0678,-185.1072 401.9949,-188.3305 410.0097,-190.8591"/>
<polygon fill="#191970" stroke="#191970" points="409.2031,-194.268 419.7776,-193.6116 411.1018,-187.5304 409.2031,-194.268"/>
</g>
<!-- Node96 -->
<g id="node14" class="node">
<title>Node96</title>
<g id="a_node14"><a xlink:href="classFweelin.html#a7b1253ea49ee57244a0d8cca152d72e5" target="_top" xlink:title="Fweelin::getLOOPMGR">
<polygon fill="#ffffff" stroke="#000000" points="402,-152.5 402,-171.5 527,-171.5 527,-152.5 402,-152.5"/>
<text text-anchor="middle" x="464.5" y="-159.5" font-family="Helvetica,sans-Serif" font-size="10.00" fill="#000000">Fweelin::getLOOPMGR</text>
</a>
</g>
</g>
<!-- Node94&#45;&gt;Node96 -->
<g id="edge14" class="edge">
<title>Node94&#45;&gt;Node96</title>
<path fill="none" stroke="#191970" d="M307.9698,-133.54C336.5413,-138.7348 372.0796,-145.1963 402.0691,-150.6489"/>
<polygon fill="#191970" stroke="#191970" points="401.5438,-154.1107 412.0087,-152.4561 402.7961,-147.2236 401.5438,-154.1107"/>
</g>
<!-- Node97 -->
<g id="node15" class="node">
<title>Node97</title>
<g id="a_node15"><a xlink:href="classLoopManager.html#a855f253885183cbe40f1b9e1b176895d" target="_top" xlink:title="LoopManager::SetSubdivide">
<polygon fill="#ffffff" stroke="#000000" points="388.5,-114.5 388.5,-133.5 540.5,-133.5 540.5,-114.5 388.5,-114.5"/>
<text text-anchor="middle" x="464.5" y="-121.5" font-family="Helvetica,sans-Serif" font-size="10.00" fill="#000000">LoopManager::SetSubdivide</text>
</a>
</g>
</g>
<!-- Node94&#45;&gt;Node97 -->
<g id="edge15" class="edge">
<title>Node94&#45;&gt;Node97</title>
<path fill="none" stroke="#191970" d="M309.5945,-124C330.4554,-124 354.8402,-124 378.0075,-124"/>
<polygon fill="#191970" stroke="#191970" points="378.1972,-127.5001 388.1972,-124 378.1972,-120.5001 378.1972,-127.5001"/>
</g>
<!-- Node98 -->
<g id="node16" class="node">
<title>Node98</title>
<g id="a_node16"><a xlink:href="classLoopManager.html#a28c81cf1fb5fdf13a633e33d06975a0d" target="_top" xlink:title="LoopManager::GetCurPulse">
<polygon fill="#ffffff" stroke="#000000" points="390.5,-76.5 390.5,-95.5 538.5,-95.5 538.5,-76.5 390.5,-76.5"/>
<text text-anchor="middle" x="464.5" y="-83.5" font-family="Helvetica,sans-Serif" font-size="10.00" fill="#000000">LoopManager::GetCurPulse</text>
</a>
</g>
</g>
<!-- Node94&#45;&gt;Node98 -->
<g id="edge16" class="edge">
<title>Node94&#45;&gt;Node98</title>
<path fill="none" stroke="#191970" d="M307.9698,-114.46C336.5413,-109.2652 372.0796,-102.8037 402.0691,-97.3511"/>
<polygon fill="#191970" stroke="#191970" points="402.7961,-100.7764 412.0087,-95.5439 401.5438,-93.8893 402.7961,-100.7764"/>
</g>
<!-- Node99 -->
<g id="node17" class="node">
<title>Node99</title>
<g id="a_node17"><a xlink:href="classPulse.html#a360cef541dc2460d10b6d2f5e29cc7b8" target="_top" xlink:title="Pulse::SwitchMetronome">
<polygon fill="#ffffff" stroke="#000000" points="396,-38.5 396,-57.5 533,-57.5 533,-38.5 396,-38.5"/>
<text text-anchor="middle" x="464.5" y="-45.5" font-family="Helvetica,sans-Serif" font-size="10.00" fill="#000000">Pulse::SwitchMetronome</text>
</a>
</g>
</g>
<!-- Node94&#45;&gt;Node99 -->
<g id="edge17" class="edge">
<title>Node94&#45;&gt;Node99</title>
<path fill="none" stroke="#191970" d="M309.568,-119.1883C323.6661,-116.3719 338.4204,-111.9444 351,-105 371.3672,-93.7566 366.8853,-78.689 387,-67 390.8778,-64.7466 395.0143,-62.7592 399.282,-61.0067"/>
<polygon fill="#191970" stroke="#191970" points="400.5943,-64.2535 408.7849,-57.533 398.191,-57.679 400.5943,-64.2535"/>
</g>
<!-- Node100 -->
<g id="node18" class="node">
<title>Node100</title>
<g id="a_node18"><a xlink:href="classPulse.html#a1bbb8df37e9d9c23cd3835995378a80b" target="_top" xlink:title="Pulse::IsMetronomeActive">
<polygon fill="#ffffff" stroke="#000000" points="393,-.5 393,-19.5 536,-19.5 536,-.5 393,-.5"/>
<text text-anchor="middle" x="464.5" y="-7.5" font-family="Helvetica,sans-Serif" font-size="10.00" fill="#000000">Pulse::IsMetronomeActive</text>
</a>
</g>
</g>
<!-- Node94&#45;&gt;Node100 -->
<g id="edge18" class="edge">
<title>Node94&#45;&gt;Node100</title>
<path fill="none" stroke="#191970" d="M309.749,-122.0124C324.3195,-119.2533 339.2699,-114.1491 351,-105 380.4713,-82.0134 358.0419,-52.6298 387,-29 389.0662,-27.314 391.2598,-25.7741 393.5501,-24.368"/>
<polygon fill="#191970" stroke="#191970" points="395.5261,-27.2862 402.7976,-19.5806 392.3079,-21.0698 395.5261,-27.2862"/>
</g>
</g>
</svg>
