<?xml version="1.0" encoding="UTF-8" standalone="no"?>
<!DOCTYPE svg PUBLIC "-//W3C//DTD SVG 1.1//EN"
 "http://www.w3.org/Graphics/SVG/1.1/DTD/svg11.dtd">
<!-- Generated by graphviz version 2.40.1 (20161225.0304)
 -->
<!-- Title: ParamSetParam::SetName Pages: 1 -->
<svg width="569pt" height="80pt"
 viewBox="0.00 0.00 569.00 79.95" xmlns="http://www.w3.org/2000/svg" xmlns:xlink="http://www.w3.org/1999/xlink">
<g id="graph0" class="graph" transform="scale(1 1) rotate(0) translate(4 75.954)">
<title>ParamSetParam::SetName</title>
<polygon fill="#ffffff" stroke="transparent" points="-4,4 -4,-75.954 565,-75.954 565,4 -4,4"/>
<!-- Node4 -->
<g id="node1" class="node">
<title>Node4</title>
<polygon fill="#bfbfbf" stroke="#000000" points="0,-38.5 0,-57.5 145,-57.5 145,-38.5 0,-38.5"/>
<text text-anchor="middle" x="72.5" y="-45.5" font-family="Helvetica,sans-Serif" font-size="10.00" fill="#000000">ParamSetParam::SetName</text>
</g>
<!-- Node5 -->
<g id="node2" class="node">
<title>Node5</title>
<g id="a_node2"><a xlink:href="classFloConfig.html#a1fc3f8f090196bce687748ec038ad3e0" target="_top" xlink:title="FloConfig::SetupParamSetBank">
<polygon fill="#ffffff" stroke="#000000" points="394,-38.5 394,-57.5 561,-57.5 561,-38.5 394,-38.5"/>
<text text-anchor="middle" x="477.5" y="-45.5" font-family="Helvetica,sans-Serif" font-size="10.00" fill="#000000">FloConfig::SetupParamSetBank</text>
</a>
</g>
</g>
<!-- Node4&#45;&gt;Node5 -->
<g id="edge1" class="edge">
<title>Node4&#45;&gt;Node5</title>
<path fill="none" stroke="#191970" d="M126.5502,-59.3642C143.8604,-62.4925 163.1629,-65.45 181,-67 259.3713,-73.8102 279.5777,-73.1955 358,-67 381.4549,-65.147 407.2598,-61.2787 428.8691,-57.5131"/>
<polygon fill="#191970" stroke="#191970" points="127.0867,-55.904 116.6146,-57.5119 125.8038,-62.7854 127.0867,-55.904"/>
</g>
<!-- Node6 -->
<g id="node3" class="node">
<title>Node6</title>
<g id="a_node3"><a xlink:href="classParamSetParam.html#a018258bbe921cac21782578c52926efb" target="_top" xlink:title="ParamSetParam::ParamSetParam">
<polygon fill="#ffffff" stroke="#000000" points="181,-38.5 181,-57.5 358,-57.5 358,-38.5 181,-38.5"/>
<text text-anchor="middle" x="269.5" y="-45.5" font-family="Helvetica,sans-Serif" font-size="10.00" fill="#000000">ParamSetParam::ParamSetParam</text>
</a>
</g>
</g>
<!-- Node4&#45;&gt;Node6 -->
<g id="edge2" class="edge">
<title>Node4&#45;&gt;Node6</title>
<path fill="none" stroke="#191970" d="M155.2141,-48C163.6532,-48 172.2511,-48 180.7511,-48"/>
<polygon fill="#191970" stroke="#191970" points="155.0163,-44.5001 145.0163,-48 155.0162,-51.5001 155.0163,-44.5001"/>
</g>
<!-- Node7 -->
<g id="node4" class="node">
<title>Node7</title>
<g id="a_node4"><a xlink:href="classParamSetBank.html#a1b4ae125145830304a638760c4765f61" target="_top" xlink:title="ParamSetBank::Setup">
<polygon fill="#ffffff" stroke="#000000" points="208.5,-.5 208.5,-19.5 330.5,-19.5 330.5,-.5 208.5,-.5"/>
<text text-anchor="middle" x="269.5" y="-7.5" font-family="Helvetica,sans-Serif" font-size="10.00" fill="#000000">ParamSetBank::Setup</text>
</a>
</g>
</g>
<!-- Node4&#45;&gt;Node7 -->
<g id="edge3" class="edge">
<title>Node4&#45;&gt;Node7</title>
<path fill="none" stroke="#191970" d="M132.0635,-36.5106C160.172,-31.0886 193.3224,-24.6942 220.0225,-19.5439"/>
<polygon fill="#191970" stroke="#191970" points="131.1132,-33.1293 121.9571,-38.46 132.4391,-40.0026 131.1132,-33.1293"/>
</g>
<!-- Node7&#45;&gt;Node5 -->
<g id="edge4" class="edge">
<title>Node7&#45;&gt;Node5</title>
<path fill="none" stroke="#191970" d="M331.6096,-21.347C361.4528,-26.7991 396.8215,-33.2607 425.2598,-38.4561"/>
<polygon fill="#191970" stroke="#191970" points="332.1849,-17.8942 321.7187,-19.54 330.9268,-24.7802 332.1849,-17.8942"/>
</g>
</g>
</svg>
