<?xml version="1.0" encoding="UTF-8" standalone="no"?>
<!DOCTYPE svg PUBLIC "-//W3C//DTD SVG 1.1//EN"
 "http://www.w3.org/Graphics/SVG/1.1/DTD/svg11.dtd">
<!-- Generated by graphviz version 2.40.1 (20161225.0304)
 -->
<!-- Title: LoopManager::DeletePulse Pages: 1 -->
<svg width="978pt" height="904pt"
 viewBox="0.00 0.00 978.00 904.00" xmlns="http://www.w3.org/2000/svg" xmlns:xlink="http://www.w3.org/1999/xlink">
<g id="graph0" class="graph" transform="scale(1 1) rotate(0) translate(4 900)">
<title>LoopManager::DeletePulse</title>
<polygon fill="#ffffff" stroke="transparent" points="-4,4 -4,-900 974,-900 974,4 -4,4"/>
<!-- Node288 -->
<g id="node1" class="node">
<title>Node288</title>
<polygon fill="#bfbfbf" stroke="#000000" points="0,-193.5 0,-212.5 146,-212.5 146,-193.5 0,-193.5"/>
<text text-anchor="middle" x="73" y="-200.5" font-family="Helvetica,sans-Serif" font-size="10.00" fill="#000000">LoopManager::DeletePulse</text>
</g>
<!-- Node289 -->
<g id="node2" class="node">
<title>Node289</title>
<g id="a_node2"><a xlink:href="classLoopManager.html#a810b5807daa4272b2275d955190326df" target="_top" xlink:title="LoopManager::StripePulseOff">
<polygon fill="#ffffff" stroke="#000000" points="182,-87.5 182,-106.5 339,-106.5 339,-87.5 182,-87.5"/>
<text text-anchor="middle" x="260.5" y="-94.5" font-family="Helvetica,sans-Serif" font-size="10.00" fill="#000000">LoopManager::StripePulseOff</text>
</a>
</g>
</g>
<!-- Node288&#45;&gt;Node289 -->
<g id="edge1" class="edge">
<title>Node288&#45;&gt;Node289</title>
<path fill="none" stroke="#191970" d="M89.9734,-193.3016C111.3975,-181.0703 149.3933,-159.4114 182,-141 199.4625,-131.1398 219.1488,-120.1056 234.4387,-111.5537"/>
<polygon fill="#191970" stroke="#191970" points="236.3107,-114.517 243.3315,-106.5823 232.895,-108.4069 236.3107,-114.517"/>
</g>
<!-- Node296 -->
<g id="node9" class="node">
<title>Node296</title>
<g id="a_node9"><a xlink:href="classFweelin.html#a681d7ca8d0789199af135f22c26a5409" target="_top" xlink:title="Fweelin::getCFG">
<polygon fill="#ffffff" stroke="#000000" points="636,-351.5 636,-370.5 731,-370.5 731,-351.5 636,-351.5"/>
<text text-anchor="middle" x="683.5" y="-358.5" font-family="Helvetica,sans-Serif" font-size="10.00" fill="#000000">Fweelin::getCFG</text>
</a>
</g>
</g>
<!-- Node288&#45;&gt;Node296 -->
<g id="edge8" class="edge">
<title>Node288&#45;&gt;Node296</title>
<path fill="none" stroke="#191970" d="M100.2136,-212.5811C152.8182,-230.8729 272.3304,-271.3201 375,-298 468.5581,-322.3121 493.2624,-322.791 588,-342 600.2886,-344.4916 613.4731,-347.1344 626.0029,-349.6316"/>
<polygon fill="#191970" stroke="#191970" points="625.3907,-353.0783 635.8815,-351.5974 626.7569,-346.2129 625.3907,-353.0783"/>
</g>
<!-- Node297 -->
<g id="node10" class="node">
<title>Node297</title>
<g id="a_node10"><a xlink:href="classFloConfig.html#aced480ca5828c2c7b6841441a9b3d86d" target="_top" xlink:title="FloConfig::GetNumTriggers">
<polygon fill="#ffffff" stroke="#000000" points="187.5,-49.5 187.5,-68.5 333.5,-68.5 333.5,-49.5 187.5,-49.5"/>
<text text-anchor="middle" x="260.5" y="-56.5" font-family="Helvetica,sans-Serif" font-size="10.00" fill="#000000">FloConfig::GetNumTriggers</text>
</a>
</g>
</g>
<!-- Node288&#45;&gt;Node297 -->
<g id="edge9" class="edge">
<title>Node288&#45;&gt;Node297</title>
<path fill="none" stroke="#191970" d="M78.4498,-193.3956C92.3856,-169.7586 131.7886,-108.4796 182,-78 185.5735,-75.8308 189.3792,-73.9092 193.3147,-72.2069"/>
<polygon fill="#191970" stroke="#191970" points="194.5972,-75.4637 202.6847,-68.6195 192.0943,-68.9264 194.5972,-75.4637"/>
</g>
<!-- Node298 -->
<g id="node11" class="node">
<title>Node298</title>
<g id="a_node11"><a xlink:href="classLoopManager.html#a7d068368e26e78955a044fce68b0cfea" target="_top" xlink:title="LoopManager::GetPulse">
<polygon fill="#ffffff" stroke="#000000" points="195,-553.5 195,-572.5 326,-572.5 326,-553.5 195,-553.5"/>
<text text-anchor="middle" x="260.5" y="-560.5" font-family="Helvetica,sans-Serif" font-size="10.00" fill="#000000">LoopManager::GetPulse</text>
</a>
</g>
</g>
<!-- Node288&#45;&gt;Node298 -->
<g id="edge10" class="edge">
<title>Node288&#45;&gt;Node298</title>
<path fill="none" stroke="#191970" d="M74.5829,-212.6091C81.3977,-251.7061 111.1629,-401.4281 182,-500 196.2418,-519.8179 218.3069,-536.7623 235.4212,-548.0705"/>
<polygon fill="#191970" stroke="#191970" points="233.5402,-551.0221 243.8519,-553.4556 237.3084,-545.1229 233.5402,-551.0221"/>
</g>
<!-- Node302 -->
<g id="node15" class="node">
<title>Node302</title>
<g id="a_node15"><a xlink:href="classLoopManager.html#a332a9868980750f28fbf0e05b2336174" target="_top" xlink:title="LoopManager::DeleteLoop">
<polygon fill="#ffffff" stroke="#000000" points="189,-471.5 189,-490.5 332,-490.5 332,-471.5 189,-471.5"/>
<text text-anchor="middle" x="260.5" y="-478.5" font-family="Helvetica,sans-Serif" font-size="10.00" fill="#000000">LoopManager::DeleteLoop</text>
</a>
</g>
</g>
<!-- Node288&#45;&gt;Node302 -->
<g id="edge14" class="edge">
<title>Node288&#45;&gt;Node302</title>
<path fill="none" stroke="#191970" d="M79.4542,-212.5694C106.6689,-252.9198 212.311,-409.5518 248.3637,-463.0059"/>
<polygon fill="#191970" stroke="#191970" points="245.5796,-465.1374 254.073,-471.4709 251.383,-461.2232 245.5796,-465.1374"/>
</g>
<!-- Node323 -->
<g id="node36" class="node">
<title>Node323</title>
<g id="a_node36"><a xlink:href="classFweelin.html#a4422f3a93561eff272cd5f7ecb0782ee" target="_top" xlink:title="Fweelin::getRP">
<polygon fill="#ffffff" stroke="#000000" points="419,-193.5 419,-212.5 508,-212.5 508,-193.5 419,-193.5"/>
<text text-anchor="middle" x="463.5" y="-200.5" font-family="Helvetica,sans-Serif" font-size="10.00" fill="#000000">Fweelin::getRP</text>
</a>
</g>
</g>
<!-- Node288&#45;&gt;Node323 -->
<g id="edge54" class="edge">
<title>Node288&#45;&gt;Node323</title>
<path fill="none" stroke="#191970" d="M146.4501,-203C222.7332,-203 340.3155,-203 408.8042,-203"/>
<polygon fill="#191970" stroke="#191970" points="408.9514,-206.5001 418.9514,-203 408.9513,-199.5001 408.9514,-206.5001"/>
</g>
<!-- Node324 -->
<g id="node37" class="node">
<title>Node324</title>
<g id="a_node37"><a xlink:href="classRootProcessor.html#a479ddcf191d529562b634e65e7ea05b3" target="_top" xlink:title="RootProcessor::DelChild">
<polygon fill="#ffffff" stroke="#000000" points="397,-114.5 397,-133.5 530,-133.5 530,-114.5 397,-114.5"/>
<text text-anchor="middle" x="463.5" y="-121.5" font-family="Helvetica,sans-Serif" font-size="10.00" fill="#000000">RootProcessor::DelChild</text>
</a>
</g>
</g>
<!-- Node288&#45;&gt;Node324 -->
<g id="edge55" class="edge">
<title>Node288&#45;&gt;Node324</title>
<path fill="none" stroke="#191970" d="M120.1034,-193.4708C192.0313,-178.9194 329.0301,-151.2039 406.474,-135.5366"/>
<polygon fill="#191970" stroke="#191970" points="407.4264,-138.9149 416.5338,-133.5015 406.0384,-132.0539 407.4264,-138.9149"/>
</g>
<!-- Node290 -->
<g id="node3" class="node">
<title>Node290</title>
<g id="a_node3"><a xlink:href="classFweelin.html#a600688955c7470a1b7a2fa95ddcc4118" target="_top" xlink:title="Fweelin::getBMG">
<polygon fill="#ffffff" stroke="#000000" points="634.5,-149.5 634.5,-168.5 732.5,-168.5 732.5,-149.5 634.5,-149.5"/>
<text text-anchor="middle" x="683.5" y="-156.5" font-family="Helvetica,sans-Serif" font-size="10.00" fill="#000000">Fweelin::getBMG</text>
</a>
</g>
</g>
<!-- Node289&#45;&gt;Node290 -->
<g id="edge2" class="edge">
<title>Node289&#45;&gt;Node290</title>
<path fill="none" stroke="#191970" d="M278.9337,-106.6274C301.0692,-117.6569 339.6441,-135.2082 375,-143 460.2091,-161.7785 561.7126,-163.151 624.385,-161.6568"/>
<polygon fill="#191970" stroke="#191970" points="624.5799,-165.1529 634.4814,-161.3831 624.3902,-158.1555 624.5799,-165.1529"/>
</g>
<!-- Node291 -->
<g id="node4" class="node">
<title>Node291</title>
<g id="a_node4"><a xlink:href="classBlockManager.html#a290ea3b68216dc3fbd0f5dadab956290" target="_top" xlink:title="BlockManager::StripeBlockOff">
<polygon fill="#ffffff" stroke="#000000" points="383,-38.5 383,-57.5 544,-57.5 544,-38.5 383,-38.5"/>
<text text-anchor="middle" x="463.5" y="-45.5" font-family="Helvetica,sans-Serif" font-size="10.00" fill="#000000">BlockManager::StripeBlockOff</text>
</a>
</g>
</g>
<!-- Node289&#45;&gt;Node291 -->
<g id="edge3" class="edge">
<title>Node289&#45;&gt;Node291</title>
<path fill="none" stroke="#191970" d="M301.7658,-87.4962C313.8071,-84.5924 326.9627,-81.2927 339,-78 355.1374,-73.5858 358.8066,-71.2041 375,-67 384.8107,-64.4529 395.2958,-61.9832 405.4926,-59.7136"/>
<polygon fill="#191970" stroke="#191970" points="406.5348,-63.0685 415.5576,-57.5152 405.0411,-56.2298 406.5348,-63.0685"/>
</g>
<!-- Node294 -->
<g id="node7" class="node">
<title>Node294</title>
<g id="a_node7"><a xlink:href="classFweelin.html#a079cfb110e3dd58369b57009b4e74342" target="_top" xlink:title="Fweelin::getAMPEAKS">
<polygon fill="#ffffff" stroke="#000000" points="402.5,-.5 402.5,-19.5 524.5,-19.5 524.5,-.5 402.5,-.5"/>
<text text-anchor="middle" x="463.5" y="-7.5" font-family="Helvetica,sans-Serif" font-size="10.00" fill="#000000">Fweelin::getAMPEAKS</text>
</a>
</g>
</g>
<!-- Node289&#45;&gt;Node294 -->
<g id="edge6" class="edge">
<title>Node289&#45;&gt;Node294</title>
<path fill="none" stroke="#191970" d="M319.849,-87.4381C326.6129,-84.9772 333.1638,-81.885 339,-78 361.4952,-63.0255 352.3121,-43.6809 375,-29 380.3681,-25.5264 386.2654,-22.677 392.388,-20.3412"/>
<polygon fill="#191970" stroke="#191970" points="393.7768,-23.5674 402.1512,-17.0773 391.5574,-16.9285 393.7768,-23.5674"/>
</g>
<!-- Node295 -->
<g id="node8" class="node">
<title>Node295</title>
<g id="a_node8"><a xlink:href="classFweelin.html#a6532e9aca57e2ec68ee5336113152bd5" target="_top" xlink:title="Fweelin::getAUDIOMEM">
<polygon fill="#ffffff" stroke="#000000" points="398,-76.5 398,-95.5 529,-95.5 529,-76.5 398,-76.5"/>
<text text-anchor="middle" x="463.5" y="-83.5" font-family="Helvetica,sans-Serif" font-size="10.00" fill="#000000">Fweelin::getAUDIOMEM</text>
</a>
</g>
</g>
<!-- Node289&#45;&gt;Node295 -->
<g id="edge7" class="edge">
<title>Node289&#45;&gt;Node295</title>
<path fill="none" stroke="#191970" d="M339.2757,-92.7314C355.1832,-91.8694 371.8758,-90.9649 387.6794,-90.1085"/>
<polygon fill="#191970" stroke="#191970" points="388.1232,-93.5897 397.9191,-89.5536 387.7444,-86.5999 388.1232,-93.5897"/>
</g>
<!-- Node292 -->
<g id="node5" class="node">
<title>Node292</title>
<g id="a_node5"><a xlink:href="classBlockManager.html#a5566277a4ec6c8a5347470433843b998" target="_top" xlink:title="BlockManager::DelHiManager">
<polygon fill="#ffffff" stroke="#000000" points="603,-34.5 603,-53.5 764,-53.5 764,-34.5 603,-34.5"/>
<text text-anchor="middle" x="683.5" y="-41.5" font-family="Helvetica,sans-Serif" font-size="10.00" fill="#000000">BlockManager::DelHiManager</text>
</a>
</g>
</g>
<!-- Node291&#45;&gt;Node292 -->
<g id="edge4" class="edge">
<title>Node291&#45;&gt;Node292</title>
<path fill="none" stroke="#191970" d="M544.1707,-46.5333C559.8638,-46.2479 576.4161,-45.947 592.4178,-45.656"/>
<polygon fill="#191970" stroke="#191970" points="592.9044,-49.1479 602.8391,-45.4666 592.7771,-42.149 592.9044,-49.1479"/>
</g>
<!-- Node293 -->
<g id="node6" class="node">
<title>Node293</title>
<g id="a_node6"><a xlink:href="classHiPriManagedChain.html#a65066950fc82d852fd81af83cf558b4f" target="_top" xlink:title="HiPriManagedChain::\lGetType">
<polygon fill="#ffffff" stroke="#000000" points="833.5,-26 833.5,-56 951.5,-56 951.5,-26 833.5,-26"/>
<text text-anchor="start" x="841.5" y="-44" font-family="Helvetica,sans-Serif" font-size="10.00" fill="#000000">HiPriManagedChain::</text>
<text text-anchor="middle" x="892.5" y="-33" font-family="Helvetica,sans-Serif" font-size="10.00" fill="#000000">GetType</text>
</a>
</g>
</g>
<!-- Node292&#45;&gt;Node293 -->
<g id="edge5" class="edge">
<title>Node292&#45;&gt;Node293</title>
<path fill="none" stroke="#191970" d="M764.0059,-42.8444C783.5982,-42.5632 804.38,-42.2649 823.3901,-41.992"/>
<polygon fill="#191970" stroke="#191970" points="823.5021,-45.4909 833.4508,-41.8476 823.4016,-38.4916 823.5021,-45.4909"/>
</g>
<!-- Node299 -->
<g id="node12" class="node">
<title>Node299</title>
<g id="a_node12"><a xlink:href="classLoopManager.html#ab5444c4b3ee3ccbab1160e23d7363752" target="_top" xlink:title="LoopManager::GetSlot">
<polygon fill="#ffffff" stroke="#000000" points="401.5,-597.5 401.5,-616.5 525.5,-616.5 525.5,-597.5 401.5,-597.5"/>
<text text-anchor="middle" x="463.5" y="-604.5" font-family="Helvetica,sans-Serif" font-size="10.00" fill="#000000">LoopManager::GetSlot</text>
</a>
</g>
</g>
<!-- Node298&#45;&gt;Node299 -->
<g id="edge11" class="edge">
<title>Node298&#45;&gt;Node299</title>
<path fill="none" stroke="#191970" d="M303.9889,-572.5328C325.3742,-577.2109 351.5345,-582.9194 375,-588 385.936,-590.3678 397.6349,-592.8883 408.8264,-595.2934"/>
<polygon fill="#191970" stroke="#191970" points="408.4132,-598.7844 418.9252,-597.462 409.8829,-591.9404 408.4132,-598.7844"/>
</g>
<!-- Node300 -->
<g id="node13" class="node">
<title>Node300</title>
<g id="a_node13"><a xlink:href="classFweelin.html#a10bb364ecf38990653b49a98c5a89c90" target="_top" xlink:title="Fweelin::getTMAP">
<polygon fill="#ffffff" stroke="#000000" points="632,-617.5 632,-636.5 735,-636.5 735,-617.5 632,-617.5"/>
<text text-anchor="middle" x="683.5" y="-624.5" font-family="Helvetica,sans-Serif" font-size="10.00" fill="#000000">Fweelin::getTMAP</text>
</a>
</g>
</g>
<!-- Node299&#45;&gt;Node300 -->
<g id="edge12" class="edge">
<title>Node299&#45;&gt;Node300</title>
<path fill="none" stroke="#191970" d="M525.661,-612.651C555.6678,-615.3789 591.5732,-618.643 621.5521,-621.3684"/>
<polygon fill="#191970" stroke="#191970" points="621.6135,-624.8883 631.8894,-622.3081 622.2474,-617.9171 621.6135,-624.8883"/>
</g>
<!-- Node301 -->
<g id="node14" class="node">
<title>Node301</title>
<g id="a_node14"><a xlink:href="classTriggerMap.html#aca3f85b40f3aa29a280c2d7511b84217" target="_top" xlink:title="TriggerMap::GetMap">
<polygon fill="#ffffff" stroke="#000000" points="627,-579.5 627,-598.5 740,-598.5 740,-579.5 627,-579.5"/>
<text text-anchor="middle" x="683.5" y="-586.5" font-family="Helvetica,sans-Serif" font-size="10.00" fill="#000000">TriggerMap::GetMap</text>
</a>
</g>
</g>
<!-- Node299&#45;&gt;Node301 -->
<g id="edge13" class="edge">
<title>Node299&#45;&gt;Node301</title>
<path fill="none" stroke="#191970" d="M525.661,-601.9141C554.0766,-599.5892 587.7817,-596.8315 616.7345,-594.4626"/>
<polygon fill="#191970" stroke="#191970" points="617.0795,-597.9462 626.7608,-593.6423 616.5086,-590.9695 617.0795,-597.9462"/>
</g>
<!-- Node302&#45;&gt;Node290 -->
<g id="edge34" class="edge">
<title>Node302&#45;&gt;Node290</title>
<path fill="none" stroke="#191970" d="M262.4734,-471.1376C270.0217,-436.1319 300.4724,-316.9067 375,-260 438.9485,-211.1711 483.3341,-263.9365 552,-222 573.5635,-208.8305 566.3378,-191.0064 588,-178 598.8641,-171.477 611.5542,-167.1449 624.0693,-164.2801"/>
<polygon fill="#191970" stroke="#191970" points="624.9135,-167.6806 634.0305,-162.2833 623.5376,-160.8171 624.9135,-167.6806"/>
</g>
<!-- Node302&#45;&gt;Node300 -->
<g id="edge16" class="edge">
<title>Node302&#45;&gt;Node300</title>
<path fill="none" stroke="#191970" d="M276.5552,-490.5482C293.9173,-501.5609 321.4567,-521.118 339,-544 363.2172,-575.5868 341.7109,-604.1818 375,-626 414.1193,-651.6395 543.4592,-642.7589 621.7031,-634.5269"/>
<polygon fill="#191970" stroke="#191970" points="622.3531,-637.9772 631.9202,-633.4252 621.6026,-631.0176 622.3531,-637.9772"/>
</g>
<!-- Node302&#45;&gt;Node301 -->
<g id="edge17" class="edge">
<title>Node302&#45;&gt;Node301</title>
<path fill="none" stroke="#191970" d="M316.4737,-490.5528C395.1176,-504.2153 531.0998,-528.8096 552,-539 570.9789,-548.2536 569.021,-560.7466 588,-570 597.003,-574.3895 606.9543,-577.765 616.9325,-580.3606"/>
<polygon fill="#191970" stroke="#191970" points="616.3496,-583.819 626.8857,-582.7049 617.9545,-577.0054 616.3496,-583.819"/>
</g>
<!-- Node303 -->
<g id="node16" class="node">
<title>Node303</title>
<g id="a_node16"><a xlink:href="classLoopManager.html#a081849cd73540c791b32be3aab90dec4" target="_top" xlink:title="LoopManager::LockLoops">
<polygon fill="#ffffff" stroke="#000000" points="394,-781.5 394,-800.5 533,-800.5 533,-781.5 394,-781.5"/>
<text text-anchor="middle" x="463.5" y="-788.5" font-family="Helvetica,sans-Serif" font-size="10.00" fill="#000000">LoopManager::LockLoops</text>
</a>
</g>
</g>
<!-- Node302&#45;&gt;Node303 -->
<g id="edge15" class="edge">
<title>Node302&#45;&gt;Node303</title>
<path fill="none" stroke="#191970" d="M279.059,-490.5438C297.4445,-501.0372 324.8433,-519.687 339,-544 389.5168,-630.7587 307.8247,-692.391 375,-767 378.352,-770.723 382.2173,-773.8933 386.4189,-776.5906"/>
<polygon fill="#191970" stroke="#191970" points="384.9992,-779.8021 395.459,-781.4884 388.3337,-773.6474 384.9992,-779.8021"/>
</g>
<!-- Node304 -->
<g id="node17" class="node">
<title>Node304</title>
<g id="a_node17"><a xlink:href="classTriggerMap.html#af9da9145253cd2713f7c1c60701666fa" target="_top" xlink:title="TriggerMap::SetMap">
<polygon fill="#ffffff" stroke="#000000" points="407.5,-819.5 407.5,-838.5 519.5,-838.5 519.5,-819.5 407.5,-819.5"/>
<text text-anchor="middle" x="463.5" y="-826.5" font-family="Helvetica,sans-Serif" font-size="10.00" fill="#000000">TriggerMap::SetMap</text>
</a>
</g>
</g>
<!-- Node302&#45;&gt;Node304 -->
<g id="edge18" class="edge">
<title>Node302&#45;&gt;Node304</title>
<path fill="none" stroke="#191970" d="M279.5332,-490.6653C298.0166,-501.1359 325.2409,-519.6604 339,-544 397.7088,-647.8546 293.9498,-722.4594 375,-810 381.128,-816.6187 388.9571,-821.2246 397.4163,-824.3875"/>
<polygon fill="#191970" stroke="#191970" points="396.5913,-827.7952 407.1778,-827.3758 398.6404,-821.1018 396.5913,-827.7952"/>
</g>
<!-- Node310 -->
<g id="node23" class="node">
<title>Node310</title>
<g id="a_node23"><a xlink:href="classPreallocated.html#aaf2139a79ca16de70acd9bc4564171b7" target="_top" xlink:title="Preallocated::RTDelete">
<polygon fill="#ffffff" stroke="#000000" points="828.5,-743.5 828.5,-762.5 956.5,-762.5 956.5,-743.5 828.5,-743.5"/>
<text text-anchor="middle" x="892.5" y="-750.5" font-family="Helvetica,sans-Serif" font-size="10.00" fill="#000000">Preallocated::RTDelete</text>
</a>
</g>
</g>
<!-- Node302&#45;&gt;Node310 -->
<g id="edge46" class="edge">
<title>Node302&#45;&gt;Node310</title>
<path fill="none" stroke="#191970" d="M278.404,-490.5385C296.5345,-501.1495 323.9803,-520.004 339,-544 377.2121,-605.0491 321.977,-653.2586 375,-702 437.9319,-759.8501 690.9366,-760.0204 818.3713,-756.1903"/>
<polygon fill="#191970" stroke="#191970" points="818.5578,-759.6863 828.442,-755.8714 818.3362,-752.6898 818.5578,-759.6863"/>
</g>
<!-- Node311 -->
<g id="node24" class="node">
<title>Node311</title>
<g id="a_node24"><a xlink:href="classRecordProcessor.html#a5bce44b8a038567efcf660cfeeae93f4" target="_top" xlink:title="RecordProcessor::AbortRecording">
<polygon fill="#ffffff" stroke="#000000" points="375,-269.5 375,-288.5 552,-288.5 552,-269.5 375,-269.5"/>
<text text-anchor="middle" x="463.5" y="-276.5" font-family="Helvetica,sans-Serif" font-size="10.00" fill="#000000">RecordProcessor::AbortRecording</text>
</a>
</g>
</g>
<!-- Node302&#45;&gt;Node311 -->
<g id="edge25" class="edge">
<title>Node302&#45;&gt;Node311</title>
<path fill="none" stroke="#191970" d="M270.2911,-471.2571C302.5153,-439.1917 405.5377,-336.6768 446.4848,-295.9314"/>
<polygon fill="#191970" stroke="#191970" points="449.1874,-298.1797 453.8071,-288.6451 444.2498,-293.2177 449.1874,-298.1797"/>
</g>
<!-- Node317 -->
<g id="node30" class="node">
<title>Node317</title>
<g id="a_node30"><a xlink:href="classRecordProcessor.html#aa9c85550bcd7e6172d9017ffc73fa25f" target="_top" xlink:title="RecordProcessor::GetFirst\lRecordedBlock">
<polygon fill="#ffffff" stroke="#000000" points="393.5,-548 393.5,-578 533.5,-578 533.5,-548 393.5,-548"/>
<text text-anchor="start" x="401.5" y="-566" font-family="Helvetica,sans-Serif" font-size="10.00" fill="#000000">RecordProcessor::GetFirst</text>
<text text-anchor="middle" x="463.5" y="-555" font-family="Helvetica,sans-Serif" font-size="10.00" fill="#000000">RecordedBlock</text>
</a>
</g>
</g>
<!-- Node302&#45;&gt;Node317 -->
<g id="edge33" class="edge">
<title>Node302&#45;&gt;Node317</title>
<path fill="none" stroke="#191970" d="M280.1007,-490.6235C302.6993,-501.549 341.0945,-519.5927 375,-533 385.1646,-537.0194 396.1089,-541.0011 406.7185,-544.6865"/>
<polygon fill="#191970" stroke="#191970" points="405.7412,-548.0514 416.3358,-547.9804 408.0094,-541.429 405.7412,-548.0514"/>
</g>
<!-- Node318 -->
<g id="node31" class="node">
<title>Node318</title>
<g id="a_node31"><a xlink:href="classBlockManager.html#aed9f3464448ad90022bc613002b912f2" target="_top" xlink:title="BlockManager::RefDeleted">
<polygon fill="#ffffff" stroke="#000000" points="390.5,-471.5 390.5,-490.5 536.5,-490.5 536.5,-471.5 390.5,-471.5"/>
<text text-anchor="middle" x="463.5" y="-478.5" font-family="Helvetica,sans-Serif" font-size="10.00" fill="#000000">BlockManager::RefDeleted</text>
</a>
</g>
</g>
<!-- Node302&#45;&gt;Node318 -->
<g id="edge35" class="edge">
<title>Node302&#45;&gt;Node318</title>
<path fill="none" stroke="#191970" d="M332.0702,-481C347.5206,-481 363.9872,-481 379.8528,-481"/>
<polygon fill="#191970" stroke="#191970" points="380.1754,-484.5001 390.1754,-481 380.1753,-477.5001 380.1754,-484.5001"/>
</g>
<!-- Node321 -->
<g id="node34" class="node">
<title>Node321</title>
<g id="a_node34"><a xlink:href="classAudioBlock.html#adeb97443eade7fd99e54dc15a05dfaef" target="_top" xlink:title="AudioBlock::DeleteChain">
<polygon fill="#ffffff" stroke="#000000" points="395,-673.5 395,-692.5 532,-692.5 532,-673.5 395,-673.5"/>
<text text-anchor="middle" x="463.5" y="-680.5" font-family="Helvetica,sans-Serif" font-size="10.00" fill="#000000">AudioBlock::DeleteChain</text>
</a>
</g>
</g>
<!-- Node302&#45;&gt;Node321 -->
<g id="edge38" class="edge">
<title>Node302&#45;&gt;Node321</title>
<path fill="none" stroke="#191970" d="M277.6948,-490.5878C295.5079,-501.3663 322.9418,-520.4744 339,-544 369.1937,-588.2344 336.4064,-621.8667 375,-659 379.0868,-662.9322 383.75,-666.2347 388.7501,-669.0067"/>
<polygon fill="#191970" stroke="#191970" points="387.5292,-672.302 398.0622,-673.4447 390.5408,-665.9829 387.5292,-672.302"/>
</g>
<!-- Node302&#45;&gt;Node323 -->
<g id="edge41" class="edge">
<title>Node302&#45;&gt;Node323</title>
<path fill="none" stroke="#191970" d="M261.8521,-471.4401C267.6647,-434.0047 294.0254,-296.0461 375,-227 384.654,-218.7682 396.8741,-213.3357 409.127,-209.7574"/>
<polygon fill="#191970" stroke="#191970" points="410.0843,-213.1254 418.9122,-207.2672 408.3579,-206.3417 410.0843,-213.1254"/>
</g>
<!-- Node302&#45;&gt;Node324 -->
<g id="edge42" class="edge">
<title>Node302&#45;&gt;Node324</title>
<path fill="none" stroke="#191970" d="M262.0288,-471.4931C268.7559,-432.1725 298.8459,-279.8301 375,-184 390.6812,-164.2672 414.6247,-148.5877 433.6545,-138.2129"/>
<polygon fill="#191970" stroke="#191970" points="435.3131,-141.2952 442.5439,-133.5514 432.0622,-135.0958 435.3131,-141.2952"/>
</g>
<!-- Node328 -->
<g id="node41" class="node">
<title>Node328</title>
<g id="a_node41"><a xlink:href="classLoopManager.html#af9b1708b49b00b353059227a458e1887" target="_top" xlink:title="LoopManager::UpdateLoopLists\l_ItemRemoved">
<polygon fill="#ffffff" stroke="#000000" points="379,-384 379,-414 548,-414 548,-384 379,-384"/>
<text text-anchor="start" x="387" y="-402" font-family="Helvetica,sans-Serif" font-size="10.00" fill="#000000">LoopManager::UpdateLoopLists</text>
<text text-anchor="middle" x="463.5" y="-391" font-family="Helvetica,sans-Serif" font-size="10.00" fill="#000000">_ItemRemoved</text>
</a>
</g>
</g>
<!-- Node302&#45;&gt;Node328 -->
<g id="edge47" class="edge">
<title>Node302&#45;&gt;Node328</title>
<path fill="none" stroke="#191970" d="M277.1235,-471.487C299.0143,-459.2511 338.9578,-437.9217 375,-424 381.3041,-421.565 387.943,-419.2517 394.6336,-417.0865"/>
<polygon fill="#191970" stroke="#191970" points="395.9386,-420.3457 404.4402,-414.0233 393.8514,-413.6641 395.9386,-420.3457"/>
</g>
<!-- Node333 -->
<g id="node46" class="node">
<title>Node333</title>
<g id="a_node46"><a xlink:href="classLoopManager.html#ad91cfa5fc2818dd578edbd4470c389e7" target="_top" xlink:title="LoopManager::UnlockLoops">
<polygon fill="#ffffff" stroke="#000000" points="388.5,-433.5 388.5,-452.5 538.5,-452.5 538.5,-433.5 388.5,-433.5"/>
<text text-anchor="middle" x="463.5" y="-440.5" font-family="Helvetica,sans-Serif" font-size="10.00" fill="#000000">LoopManager::UnlockLoops</text>
</a>
</g>
</g>
<!-- Node302&#45;&gt;Node333 -->
<g id="edge53" class="edge">
<title>Node302&#45;&gt;Node333</title>
<path fill="none" stroke="#191970" d="M311.4634,-471.46C339.0941,-466.2878 373.4328,-459.8599 402.4811,-454.4222"/>
<polygon fill="#191970" stroke="#191970" points="403.3303,-457.8242 412.5156,-452.5439 402.0423,-450.9437 403.3303,-457.8242"/>
</g>
<!-- Node305 -->
<g id="node18" class="node">
<title>Node305</title>
<g id="a_node18"><a xlink:href="classEvent.html#aa67af0ae99b897e4f0ce42068c4e4c00" target="_top" xlink:title="Event::GetEventByType">
<polygon fill="#ffffff" stroke="#000000" points="618,-819.5 618,-838.5 749,-838.5 749,-819.5 618,-819.5"/>
<text text-anchor="middle" x="683.5" y="-826.5" font-family="Helvetica,sans-Serif" font-size="10.00" fill="#000000">Event::GetEventByType</text>
</a>
</g>
</g>
<!-- Node304&#45;&gt;Node305 -->
<g id="edge19" class="edge">
<title>Node304&#45;&gt;Node305</title>
<path fill="none" stroke="#191970" d="M519.5845,-829C546.3461,-829 578.764,-829 607.6822,-829"/>
<polygon fill="#191970" stroke="#191970" points="607.7501,-832.5001 617.75,-829 607.75,-825.5001 607.7501,-832.5001"/>
</g>
<!-- Node306 -->
<g id="node19" class="node">
<title>Node306</title>
<g id="a_node19"><a xlink:href="classFweelin.html#a21e51d7b639faaecc415624ab6c16a71" target="_top" xlink:title="Fweelin::getEMG">
<polygon fill="#ffffff" stroke="#000000" points="634.5,-781.5 634.5,-800.5 732.5,-800.5 732.5,-781.5 634.5,-781.5"/>
<text text-anchor="middle" x="683.5" y="-788.5" font-family="Helvetica,sans-Serif" font-size="10.00" fill="#000000">Fweelin::getEMG</text>
</a>
</g>
</g>
<!-- Node304&#45;&gt;Node306 -->
<g id="edge20" class="edge">
<title>Node304&#45;&gt;Node306</title>
<path fill="none" stroke="#191970" d="M518.7313,-819.46C550.9137,-813.9013 591.4932,-806.8921 624.3278,-801.2207"/>
<polygon fill="#191970" stroke="#191970" points="624.993,-804.6577 634.2513,-799.5066 623.8015,-797.7598 624.993,-804.6577"/>
</g>
<!-- Node307 -->
<g id="node20" class="node">
<title>Node307</title>
<g id="a_node20"><a xlink:href="classEventManager.html#a4a73f2e7ff1724f28427f7c0d5725c8e" target="_top" xlink:title="EventManager::BroadcastEventNow">
<polygon fill="#ffffff" stroke="#000000" points="588,-857.5 588,-876.5 779,-876.5 779,-857.5 588,-857.5"/>
<text text-anchor="middle" x="683.5" y="-864.5" font-family="Helvetica,sans-Serif" font-size="10.00" fill="#000000">EventManager::BroadcastEventNow</text>
</a>
</g>
</g>
<!-- Node304&#45;&gt;Node307 -->
<g id="edge21" class="edge">
<title>Node304&#45;&gt;Node307</title>
<path fill="none" stroke="#191970" d="M518.7313,-838.54C548.9374,-843.7574 586.5408,-850.2525 618.1947,-855.72"/>
<polygon fill="#191970" stroke="#191970" points="617.7961,-859.2029 628.246,-857.4561 618.9876,-852.305 617.7961,-859.2029"/>
</g>
<!-- Node308 -->
<g id="node21" class="node">
<title>Node308</title>
<g id="a_node21"><a xlink:href="classEvent.html#ac4c4170579544b41dff38ca1b8110e30" target="_top" xlink:title="Event::GetType">
<polygon fill="#ffffff" stroke="#000000" points="847.5,-838.5 847.5,-857.5 937.5,-857.5 937.5,-838.5 847.5,-838.5"/>
<text text-anchor="middle" x="892.5" y="-845.5" font-family="Helvetica,sans-Serif" font-size="10.00" fill="#000000">Event::GetType</text>
</a>
</g>
</g>
<!-- Node307&#45;&gt;Node308 -->
<g id="edge22" class="edge">
<title>Node307&#45;&gt;Node308</title>
<path fill="none" stroke="#191970" d="M779.1311,-858.3063C798.9881,-856.5011 819.2753,-854.6568 837.097,-853.0366"/>
<polygon fill="#191970" stroke="#191970" points="837.6413,-856.5017 847.2834,-852.1106 837.0075,-849.5304 837.6413,-856.5017"/>
</g>
<!-- Node309 -->
<g id="node22" class="node">
<title>Node309</title>
<g id="a_node22"><a xlink:href="classEventListener.html#a831820a9229e852bd7e2fad686b725b2" target="_top" xlink:title="EventListener::ReceiveEvent">
<polygon fill="#ffffff" stroke="#000000" points="815,-876.5 815,-895.5 970,-895.5 970,-876.5 815,-876.5"/>
<text text-anchor="middle" x="892.5" y="-883.5" font-family="Helvetica,sans-Serif" font-size="10.00" fill="#000000">EventListener::ReceiveEvent</text>
</a>
</g>
</g>
<!-- Node307&#45;&gt;Node309 -->
<g id="edge23" class="edge">
<title>Node307&#45;&gt;Node309</title>
<path fill="none" stroke="#191970" d="M779.1311,-875.6937C787.6132,-876.4648 796.1737,-877.2431 804.5871,-878.0079"/>
<polygon fill="#191970" stroke="#191970" points="804.4856,-881.513 814.7614,-878.9329 805.1194,-874.5418 804.4856,-881.513"/>
</g>
<!-- Node307&#45;&gt;Node310 -->
<g id="edge24" class="edge">
<title>Node307&#45;&gt;Node310</title>
<path fill="none" stroke="#191970" d="M752.9192,-857.4756C761.9247,-855.01 770.8431,-851.9065 779,-848 819.2784,-828.7097 857.1791,-791.8263 877.3663,-770.1284"/>
<polygon fill="#191970" stroke="#191970" points="880.0558,-772.3733 884.204,-762.6243 874.8816,-767.6586 880.0558,-772.3733"/>
</g>
<!-- Node311&#45;&gt;Node290 -->
<g id="edge28" class="edge">
<title>Node311&#45;&gt;Node290</title>
<path fill="none" stroke="#191970" d="M525.9262,-269.4847C535.3592,-266.0349 544.4454,-261.352 552,-255 580.915,-230.6878 558.2702,-201.3088 588,-178 598.3892,-169.8546 611.3269,-164.9107 624.2914,-161.973"/>
<polygon fill="#191970" stroke="#191970" points="624.9972,-165.4016 634.1689,-160.0978 623.6916,-158.5244 624.9972,-165.4016"/>
</g>
<!-- Node312 -->
<g id="node25" class="node">
<title>Node312</title>
<g id="a_node25"><a xlink:href="classAudioBlockIterator.html#a48be225cf6283fb66268a832abd89b30" target="_top" xlink:title="AudioBlockIterator\l::Stop">
<polygon fill="#ffffff" stroke="#000000" points="630,-264 630,-294 737,-294 737,-264 630,-264"/>
<text text-anchor="start" x="638" y="-282" font-family="Helvetica,sans-Serif" font-size="10.00" fill="#000000">AudioBlockIterator</text>
<text text-anchor="middle" x="683.5" y="-271" font-family="Helvetica,sans-Serif" font-size="10.00" fill="#000000">::Stop</text>
</a>
</g>
</g>
<!-- Node311&#45;&gt;Node312 -->
<g id="edge26" class="edge">
<title>Node311&#45;&gt;Node312</title>
<path fill="none" stroke="#191970" d="M552.0315,-279C574.7079,-279 598.6508,-279 619.8004,-279"/>
<polygon fill="#191970" stroke="#191970" points="619.9408,-282.5001 629.9408,-279 619.9407,-275.5001 619.9408,-282.5001"/>
</g>
<!-- Node313 -->
<g id="node26" class="node">
<title>Node313</title>
<g id="a_node26"><a xlink:href="classPeaksAvgsManager.html#a7d5c60dc637af4095167410c4ae924f4" target="_top" xlink:title="PeaksAvgsManager::End">
<polygon fill="#ffffff" stroke="#000000" points="616,-225.5 616,-244.5 751,-244.5 751,-225.5 616,-225.5"/>
<text text-anchor="middle" x="683.5" y="-232.5" font-family="Helvetica,sans-Serif" font-size="10.00" fill="#000000">PeaksAvgsManager::End</text>
</a>
</g>
</g>
<!-- Node311&#45;&gt;Node313 -->
<g id="edge27" class="edge">
<title>Node311&#45;&gt;Node313</title>
<path fill="none" stroke="#191970" d="M511.2367,-269.4527C544.8227,-262.7355 589.9557,-253.7089 625.5988,-246.5802"/>
<polygon fill="#191970" stroke="#191970" points="626.7371,-249.922 635.8564,-244.5287 625.3642,-243.0579 626.7371,-249.922"/>
</g>
<!-- Node314 -->
<g id="node27" class="node">
<title>Node314</title>
<g id="a_node27"><a xlink:href="classBlockManager.html#a7380825963fc62c90186a0b3c72e8d89" target="_top" xlink:title="BlockManager::PeakAvgOff">
<polygon fill="#ffffff" stroke="#000000" points="609.5,-313.5 609.5,-332.5 757.5,-332.5 757.5,-313.5 609.5,-313.5"/>
<text text-anchor="middle" x="683.5" y="-320.5" font-family="Helvetica,sans-Serif" font-size="10.00" fill="#000000">BlockManager::PeakAvgOff</text>
</a>
</g>
</g>
<!-- Node311&#45;&gt;Node314 -->
<g id="edge29" class="edge">
<title>Node311&#45;&gt;Node314</title>
<path fill="none" stroke="#191970" d="M510.7916,-288.5169C534.0456,-293.1912 562.4902,-298.9012 588,-304 600.0442,-306.4074 612.9443,-308.9787 625.2443,-311.427"/>
<polygon fill="#191970" stroke="#191970" points="624.9125,-314.9295 635.4032,-313.4484 626.2785,-308.0641 624.9125,-314.9295"/>
</g>
<!-- Node316 -->
<g id="node29" class="node">
<title>Node316</title>
<g id="a_node29"><a xlink:href="classBlockManager.html#add099506b29910e9dabdab9f6a1af92f" target="_top" xlink:title="BlockManager::GrowChainOff">
<polygon fill="#ffffff" stroke="#000000" points="604,-187.5 604,-206.5 763,-206.5 763,-187.5 604,-187.5"/>
<text text-anchor="middle" x="683.5" y="-194.5" font-family="Helvetica,sans-Serif" font-size="10.00" fill="#000000">BlockManager::GrowChainOff</text>
</a>
</g>
</g>
<!-- Node311&#45;&gt;Node316 -->
<g id="edge31" class="edge">
<title>Node311&#45;&gt;Node316</title>
<path fill="none" stroke="#191970" d="M517.8875,-269.394C529.6518,-265.937 541.6546,-261.2733 552,-255 572.1705,-242.769 567.4229,-227.5338 588,-216 592.0068,-213.7541 596.239,-211.7709 600.6035,-210.0199"/>
<polygon fill="#191970" stroke="#191970" points="602.0926,-213.2047 610.3334,-206.546 599.7388,-206.6123 602.0926,-213.2047"/>
</g>
<!-- Node315 -->
<g id="node28" class="node">
<title>Node315</title>
<g id="a_node28"><a xlink:href="classBlockManager.html#ae59dae7f7f6572b004dcdacc740204ac" target="_top" xlink:title="BlockManager::DelManager">
<polygon fill="#ffffff" stroke="#000000" points="817.5,-250.5 817.5,-269.5 967.5,-269.5 967.5,-250.5 817.5,-250.5"/>
<text text-anchor="middle" x="892.5" y="-257.5" font-family="Helvetica,sans-Serif" font-size="10.00" fill="#000000">BlockManager::DelManager</text>
</a>
</g>
</g>
<!-- Node314&#45;&gt;Node315 -->
<g id="edge30" class="edge">
<title>Node314&#45;&gt;Node315</title>
<path fill="none" stroke="#191970" d="M739.9461,-313.4559C752.8818,-310.8038 766.5015,-307.6361 779,-304 807.6361,-295.6691 839.1901,-283.1528 861.7437,-273.5969"/>
<polygon fill="#191970" stroke="#191970" points="863.3159,-276.731 871.1263,-269.5722 860.5563,-270.2978 863.3159,-276.731"/>
</g>
<!-- Node316&#45;&gt;Node315 -->
<g id="edge32" class="edge">
<title>Node316&#45;&gt;Node315</title>
<path fill="none" stroke="#191970" d="M739.9461,-206.5441C752.8818,-209.1962 766.5015,-212.3639 779,-216 807.6361,-224.3309 839.1901,-236.8472 861.7437,-246.4031"/>
<polygon fill="#191970" stroke="#191970" points="860.5563,-249.7022 871.1263,-250.4278 863.3159,-243.269 860.5563,-249.7022"/>
</g>
<!-- Node319 -->
<g id="node32" class="node">
<title>Node319</title>
<g id="a_node32"><a xlink:href="classBlockManager.html#ac251e0ace481edc4b8da20dca37472a6" target="_top" xlink:title="BlockManager::HiRefDeleted">
<polygon fill="#ffffff" stroke="#000000" points="605.5,-541.5 605.5,-560.5 761.5,-560.5 761.5,-541.5 605.5,-541.5"/>
<text text-anchor="middle" x="683.5" y="-548.5" font-family="Helvetica,sans-Serif" font-size="10.00" fill="#000000">BlockManager::HiRefDeleted</text>
</a>
</g>
</g>
<!-- Node318&#45;&gt;Node319 -->
<g id="edge36" class="edge">
<title>Node318&#45;&gt;Node319</title>
<path fill="none" stroke="#191970" d="M511.552,-490.5014C525.0193,-494.0975 539.4109,-498.8541 552,-505 569.9726,-513.7741 569.7378,-523.8458 588,-532 593.7234,-534.5555 599.7922,-536.7694 605.9863,-538.6869"/>
<polygon fill="#191970" stroke="#191970" points="605.2163,-542.1063 615.7915,-541.4627 607.1231,-535.371 605.2163,-542.1063"/>
</g>
<!-- Node320 -->
<g id="node33" class="node">
<title>Node320</title>
<g id="a_node33"><a xlink:href="classHiPriManagedChain.html#ac1e45103a45f1dc90be396aeb8c226eb" target="_top" xlink:title="HiPriManagedChain::\lRefDeleted">
<polygon fill="#ffffff" stroke="#000000" points="833.5,-536 833.5,-566 951.5,-566 951.5,-536 833.5,-536"/>
<text text-anchor="start" x="841.5" y="-554" font-family="Helvetica,sans-Serif" font-size="10.00" fill="#000000">HiPriManagedChain::</text>
<text text-anchor="middle" x="892.5" y="-543" font-family="Helvetica,sans-Serif" font-size="10.00" fill="#000000">RefDeleted</text>
</a>
</g>
</g>
<!-- Node319&#45;&gt;Node320 -->
<g id="edge37" class="edge">
<title>Node319&#45;&gt;Node320</title>
<path fill="none" stroke="#191970" d="M761.6211,-551C781.8615,-551 803.5146,-551 823.2641,-551"/>
<polygon fill="#191970" stroke="#191970" points="823.4008,-554.5001 833.4007,-551 823.4007,-547.5001 823.4008,-554.5001"/>
</g>
<!-- Node321&#45;&gt;Node310 -->
<g id="edge40" class="edge">
<title>Node321&#45;&gt;Node310</title>
<path fill="none" stroke="#191970" d="M521.8033,-692.5134C600.5054,-705.3552 740.481,-728.195 824.0736,-741.8349"/>
<polygon fill="#191970" stroke="#191970" points="823.5472,-745.2952 833.9804,-743.4513 824.6746,-738.3865 823.5472,-745.2952"/>
</g>
<!-- Node322 -->
<g id="node35" class="node">
<title>Node322</title>
<g id="a_node35"><a xlink:href="classBlockExtendedData.html#ae33e9550384a32abf2a91386334a2be9" target="_top" xlink:title="BlockExtendedData::\lGetType">
<polygon fill="#ffffff" stroke="#000000" points="624,-656 624,-686 743,-686 743,-656 624,-656"/>
<text text-anchor="start" x="632" y="-674" font-family="Helvetica,sans-Serif" font-size="10.00" fill="#000000">BlockExtendedData::</text>
<text text-anchor="middle" x="683.5" y="-663" font-family="Helvetica,sans-Serif" font-size="10.00" fill="#000000">GetType</text>
</a>
</g>
</g>
<!-- Node321&#45;&gt;Node322 -->
<g id="edge39" class="edge">
<title>Node321&#45;&gt;Node322</title>
<path fill="none" stroke="#191970" d="M532.2044,-679.2525C558.1375,-677.838 587.6528,-676.228 613.6864,-674.808"/>
<polygon fill="#191970" stroke="#191970" points="614.0587,-678.293 623.8532,-674.2535 613.6774,-671.3034 614.0587,-678.293"/>
</g>
<!-- Node325 -->
<g id="node38" class="node">
<title>Node325</title>
<g id="a_node38"><a xlink:href="classProcessor.html#a1ff3aad172b41d0c3c9a1bd06cd6a4ef" target="_top" xlink:title="Processor::dopreprocess">
<polygon fill="#ffffff" stroke="#000000" points="616,-73.5 616,-92.5 751,-92.5 751,-73.5 616,-73.5"/>
<text text-anchor="middle" x="683.5" y="-80.5" font-family="Helvetica,sans-Serif" font-size="10.00" fill="#000000">Processor::dopreprocess</text>
</a>
</g>
</g>
<!-- Node324&#45;&gt;Node325 -->
<g id="edge43" class="edge">
<title>Node324&#45;&gt;Node325</title>
<path fill="none" stroke="#191970" d="M514.5254,-114.4907C546.6199,-108.5095 588.224,-100.756 622.1184,-94.4393"/>
<polygon fill="#191970" stroke="#191970" points="623.1812,-97.8016 632.3707,-92.5286 621.8987,-90.92 623.1812,-97.8016"/>
</g>
<!-- Node327 -->
<g id="node40" class="node">
<title>Node327</title>
<g id="a_node40"><a xlink:href="classProcessor.html#a60bc657202aee43816ed92dae0d93ecb" target="_top" xlink:title="Processor::Halt">
<polygon fill="#ffffff" stroke="#000000" points="638.5,-111.5 638.5,-130.5 728.5,-130.5 728.5,-111.5 638.5,-111.5"/>
<text text-anchor="middle" x="683.5" y="-118.5" font-family="Helvetica,sans-Serif" font-size="10.00" fill="#000000">Processor::Halt</text>
</a>
</g>
</g>
<!-- Node324&#45;&gt;Node327 -->
<g id="edge45" class="edge">
<title>Node324&#45;&gt;Node327</title>
<path fill="none" stroke="#191970" d="M530.1043,-123.0918C561.4412,-122.6644 598.374,-122.1608 628.1469,-121.7548"/>
<polygon fill="#191970" stroke="#191970" points="628.4071,-125.2517 638.3584,-121.6156 628.3116,-118.2523 628.4071,-125.2517"/>
</g>
<!-- Node326 -->
<g id="node39" class="node">
<title>Node326</title>
<g id="a_node39"><a xlink:href="classProcessor.html#a2a6ea9cec150529a6b61898634540254" target="_top" xlink:title="Processor::process">
<polygon fill="#ffffff" stroke="#000000" points="839,-75.5 839,-94.5 946,-94.5 946,-75.5 839,-75.5"/>
<text text-anchor="middle" x="892.5" y="-82.5" font-family="Helvetica,sans-Serif" font-size="10.00" fill="#000000">Processor::process</text>
</a>
</g>
</g>
<!-- Node325&#45;&gt;Node326 -->
<g id="edge44" class="edge">
<title>Node325&#45;&gt;Node326</title>
<path fill="none" stroke="#191970" d="M751.0677,-83.6466C775.9041,-83.8842 803.9346,-84.1525 828.4522,-84.3871"/>
<polygon fill="#191970" stroke="#191970" points="828.692,-87.8895 838.725,-84.4854 828.759,-80.8898 828.692,-87.8895"/>
</g>
<!-- Node328&#45;&gt;Node296 -->
<g id="edge51" class="edge">
<title>Node328&#45;&gt;Node296</title>
<path fill="none" stroke="#191970" d="M548.2431,-384.3626C574.192,-379.8805 602.1232,-375.056 625.8276,-370.9616"/>
<polygon fill="#191970" stroke="#191970" points="626.4515,-374.4058 635.7098,-369.2547 625.2599,-367.5079 626.4515,-374.4058"/>
</g>
<!-- Node329 -->
<g id="node42" class="node">
<title>Node329</title>
<g id="a_node42"><a xlink:href="classFweelin.html#a2923ee8b565905c8429845f2dc51d261" target="_top" xlink:title="Fweelin::getLOOPSEL">
<polygon fill="#ffffff" stroke="#000000" points="624,-427.5 624,-446.5 743,-446.5 743,-427.5 624,-427.5"/>
<text text-anchor="middle" x="683.5" y="-434.5" font-family="Helvetica,sans-Serif" font-size="10.00" fill="#000000">Fweelin::getLOOPSEL</text>
</a>
</g>
</g>
<!-- Node328&#45;&gt;Node329 -->
<g id="edge48" class="edge">
<title>Node328&#45;&gt;Node329</title>
<path fill="none" stroke="#191970" d="M548.2431,-413.6374C571.546,-417.6625 596.4477,-421.9637 618.4511,-425.7643"/>
<polygon fill="#191970" stroke="#191970" points="617.8909,-429.2193 628.3407,-427.4725 619.0824,-422.3214 617.8909,-429.2193"/>
</g>
<!-- Node330 -->
<g id="node43" class="node">
<title>Node330</title>
<g id="a_node43"><a xlink:href="classLoopList.html#a9cf010c61a3bc72c14c395592ad3448d" target="_top" xlink:title="LoopList::Remove">
<polygon fill="#ffffff" stroke="#000000" points="632,-389.5 632,-408.5 735,-408.5 735,-389.5 632,-389.5"/>
<text text-anchor="middle" x="683.5" y="-396.5" font-family="Helvetica,sans-Serif" font-size="10.00" fill="#000000">LoopList::Remove</text>
</a>
</g>
</g>
<!-- Node328&#45;&gt;Node330 -->
<g id="edge49" class="edge">
<title>Node328&#45;&gt;Node330</title>
<path fill="none" stroke="#191970" d="M548.2431,-399C572.7007,-399 598.9193,-399 621.7,-399"/>
<polygon fill="#191970" stroke="#191970" points="621.9062,-402.5001 631.9062,-399 621.9062,-395.5001 621.9062,-402.5001"/>
</g>
<!-- Node331 -->
<g id="node44" class="node">
<title>Node331</title>
<g id="a_node44"><a xlink:href="classFweelin.html#a91b18ce962a309b483f19e75c5f5a040" target="_top" xlink:title="Fweelin::getSNAPS">
<polygon fill="#ffffff" stroke="#000000" points="629.5,-503.5 629.5,-522.5 737.5,-522.5 737.5,-503.5 629.5,-503.5"/>
<text text-anchor="middle" x="683.5" y="-510.5" font-family="Helvetica,sans-Serif" font-size="10.00" fill="#000000">Fweelin::getSNAPS</text>
</a>
</g>
</g>
<!-- Node328&#45;&gt;Node331 -->
<g id="edge50" class="edge">
<title>Node328&#45;&gt;Node331</title>
<path fill="none" stroke="#191970" d="M536.5122,-414.155C542.0516,-416.9074 547.3037,-420.159 552,-424 579.0804,-446.1485 560.0669,-472.9371 588,-494 597.1868,-500.9273 608.2392,-505.5141 619.5157,-508.5153"/>
<polygon fill="#191970" stroke="#191970" points="618.9158,-511.968 629.4419,-510.7635 620.4621,-505.1409 618.9158,-511.968"/>
</g>
<!-- Node332 -->
<g id="node45" class="node">
<title>Node332</title>
<g id="a_node45"><a xlink:href="classFloConfig.html#a15b1ee51e84fb75465286ea8b7f3fe24" target="_top" xlink:title="FloConfig::GetMaxSnapshots">
<polygon fill="#ffffff" stroke="#000000" points="606,-465.5 606,-484.5 761,-484.5 761,-465.5 606,-465.5"/>
<text text-anchor="middle" x="683.5" y="-472.5" font-family="Helvetica,sans-Serif" font-size="10.00" fill="#000000">FloConfig::GetMaxSnapshots</text>
</a>
</g>
</g>
<!-- Node328&#45;&gt;Node332 -->
<g id="edge52" class="edge">
<title>Node328&#45;&gt;Node332</title>
<path fill="none" stroke="#191970" d="M529.589,-414.0636C537.3553,-416.8759 544.9981,-420.1659 552,-424 570.7766,-434.2816 568.8324,-446.4672 588,-456 592.9193,-458.4465 598.1287,-460.5781 603.4753,-462.4353"/>
<polygon fill="#191970" stroke="#191970" points="602.6252,-465.8367 613.2143,-465.4905 604.7205,-459.1576 602.6252,-465.8367"/>
</g>
</g>
</svg>
