<?xml version="1.0" encoding="UTF-8" standalone="no"?>
<!DOCTYPE svg PUBLIC "-//W3C//DTD SVG 1.1//EN"
 "http://www.w3.org/Graphics/SVG/1.1/DTD/svg11.dtd">
<!-- Generated by graphviz version 2.40.1 (20161225.0304)
 -->
<!-- Title: CfgToken::Evaluate Pages: 1 -->
<svg width="932pt" height="492pt"
 viewBox="0.00 0.00 932.00 492.00" xmlns="http://www.w3.org/2000/svg" xmlns:xlink="http://www.w3.org/1999/xlink">
<g id="graph0" class="graph" transform="scale(1 1) rotate(0) translate(4 488)">
<title>CfgToken::Evaluate</title>
<polygon fill="#ffffff" stroke="transparent" points="-4,4 -4,-488 928,-488 928,4 -4,4"/>
<!-- Node5 -->
<g id="node1" class="node">
<title>Node5</title>
<polygon fill="#bfbfbf" stroke="#000000" points="0,-257.5 0,-276.5 110,-276.5 110,-257.5 0,-257.5"/>
<text text-anchor="middle" x="55" y="-264.5" font-family="Helvetica,sans-Serif" font-size="10.00" fill="#000000">CfgToken::Evaluate</text>
</g>
<!-- Node6 -->
<g id="node2" class="node">
<title>Node6</title>
<g id="a_node2"><a xlink:href="classParsedExpression.html#a8b8c5462181f05c11f51df722809ac7e" target="_top" xlink:title="ParsedExpression::Evaluate">
<polygon fill="#ffffff" stroke="#000000" points="146,-257.5 146,-276.5 297,-276.5 297,-257.5 146,-257.5"/>
<text text-anchor="middle" x="221.5" y="-264.5" font-family="Helvetica,sans-Serif" font-size="10.00" fill="#000000">ParsedExpression::Evaluate</text>
</a>
</g>
</g>
<!-- Node5&#45;&gt;Node6 -->
<g id="edge1" class="edge">
<title>Node5&#45;&gt;Node6</title>
<path fill="none" stroke="#191970" d="M120.4578,-267C128.7899,-267 137.3715,-267 145.8471,-267"/>
<polygon fill="#191970" stroke="#191970" points="120.4421,-263.5001 110.4421,-267 120.4421,-270.5001 120.4421,-263.5001"/>
</g>
<!-- Node12 -->
<g id="node8" class="node">
<title>Node12</title>
<g id="a_node8"><a xlink:href="classInputMatrix.html#a807406bec8679e3cce28776cee3a01d3" target="_top" xlink:title="InputMatrix::CheckConditions">
<polygon fill="#ffffff" stroke="#000000" points="344,-464.5 344,-483.5 504,-483.5 504,-464.5 344,-464.5"/>
<text text-anchor="middle" x="424" y="-471.5" font-family="Helvetica,sans-Serif" font-size="10.00" fill="#000000">InputMatrix::CheckConditions</text>
</a>
</g>
</g>
<!-- Node5&#45;&gt;Node12 -->
<g id="edge19" class="edge">
<title>Node5&#45;&gt;Node12</title>
<path fill="none" stroke="#191970" d="M73.2838,-283.1908C115.6869,-319.8325 225.3453,-409.4559 333,-455 342.067,-458.8358 351.9797,-461.9225 361.8205,-464.3991"/>
<polygon fill="#191970" stroke="#191970" points="75.5584,-280.5304 65.7205,-276.5977 70.9586,-285.807 75.5584,-280.5304"/>
</g>
<!-- Node22 -->
<g id="node18" class="node">
<title>Node22</title>
<g id="a_node18"><a xlink:href="classParsedExpression.html#ad5786c9f763dee1580050648f130a6c0" target="_top" xlink:title="ParsedExpression::\l~ParsedExpression">
<polygon fill="#ffffff" stroke="#000000" points="166.5,-208 166.5,-238 276.5,-238 276.5,-208 166.5,-208"/>
<text text-anchor="start" x="174.5" y="-226" font-family="Helvetica,sans-Serif" font-size="10.00" fill="#000000">ParsedExpression::</text>
<text text-anchor="middle" x="221.5" y="-215" font-family="Helvetica,sans-Serif" font-size="10.00" fill="#000000">~ParsedExpression</text>
</a>
</g>
</g>
<!-- Node5&#45;&gt;Node22 -->
<g id="edge20" class="edge">
<title>Node5&#45;&gt;Node22</title>
<path fill="none" stroke="#191970" d="M101.0451,-254.8319C121.2976,-249.4799 145.2485,-243.1505 166.4372,-237.5511"/>
<polygon fill="#191970" stroke="#191970" points="99.9019,-251.5138 91.128,-257.4527 101.6904,-258.2815 99.9019,-251.5138"/>
</g>
<!-- Node7 -->
<g id="node3" class="node">
<title>Node7</title>
<g id="a_node3"><a xlink:href="classInputMatrix.html#ab36ad421b65b64d6e64f228b84792b4c" target="_top" xlink:title="InputMatrix::CreateParameterSets">
<polygon fill="#ffffff" stroke="#000000" points="333,-426.5 333,-445.5 515,-445.5 515,-426.5 333,-426.5"/>
<text text-anchor="middle" x="424" y="-433.5" font-family="Helvetica,sans-Serif" font-size="10.00" fill="#000000">InputMatrix::CreateParameterSets</text>
</a>
</g>
</g>
<!-- Node6&#45;&gt;Node7 -->
<g id="edge2" class="edge">
<title>Node6&#45;&gt;Node7</title>
<path fill="none" stroke="#191970" d="M233.9121,-285.1608C260.0459,-323.1752 319.4524,-408.3411 333,-417 338.9835,-420.8243 345.5985,-423.8953 352.451,-426.359"/>
<polygon fill="#191970" stroke="#191970" points="236.575,-282.8552 228.033,-276.5873 230.8019,-286.814 236.575,-282.8552"/>
</g>
<!-- Node9 -->
<g id="node5" class="node">
<title>Node9</title>
<g id="a_node5"><a xlink:href="classInputMatrix.html#a767b7c5cd149e18a51105922aa9e8abb" target="_top" xlink:title="InputMatrix::CreateConditions">
<polygon fill="#ffffff" stroke="#000000" points="343,-388.5 343,-407.5 505,-407.5 505,-388.5 343,-388.5"/>
<text text-anchor="middle" x="424" y="-395.5" font-family="Helvetica,sans-Serif" font-size="10.00" fill="#000000">InputMatrix::CreateConditions</text>
</a>
</g>
</g>
<!-- Node6&#45;&gt;Node9 -->
<g id="edge4" class="edge">
<title>Node6&#45;&gt;Node9</title>
<path fill="none" stroke="#191970" d="M234.8936,-284.5465C254.0392,-308.3955 291.5317,-350.7316 333,-374 344.1142,-380.2363 356.9036,-384.9004 369.3156,-388.3714"/>
<polygon fill="#191970" stroke="#191970" points="237.6293,-282.3632 228.6967,-276.666 232.1268,-286.6902 237.6293,-282.3632"/>
</g>
<!-- Node10 -->
<g id="node6" class="node">
<title>Node10</title>
<g id="a_node6"><a xlink:href="classInputMatrix.html#a00d9617869e0fc8ab7101a4f2ff22591" target="_top" xlink:title="InputMatrix::SetDynamicParameters">
<polygon fill="#ffffff" stroke="#000000" points="551,-369.5 551,-388.5 744,-388.5 744,-369.5 551,-369.5"/>
<text text-anchor="middle" x="647.5" y="-376.5" font-family="Helvetica,sans-Serif" font-size="10.00" fill="#000000">InputMatrix::SetDynamicParameters</text>
</a>
</g>
</g>
<!-- Node6&#45;&gt;Node10 -->
<g id="edge6" class="edge">
<title>Node6&#45;&gt;Node10</title>
<path fill="none" stroke="#191970" d="M240.0741,-283.0583C261.097,-300.2533 297.107,-326.8359 333,-340 403.1208,-365.7175 487.3095,-375.1268 550.9291,-378.292"/>
<polygon fill="#191970" stroke="#191970" points="242.196,-280.2703 232.2776,-276.5453 237.7082,-285.6425 242.196,-280.2703"/>
</g>
<!-- Node6&#45;&gt;Node12 -->
<g id="edge8" class="edge">
<title>Node6&#45;&gt;Node12</title>
<path fill="none" stroke="#191970" d="M235.4026,-284.6641C251.4365,-305.5115 278.0205,-341.5793 297,-375 316.254,-408.904 302.6065,-430.578 333,-455 337.7808,-458.8415 343.1473,-461.9612 348.8204,-464.4887"/>
<polygon fill="#191970" stroke="#191970" points="238.127,-282.4659 229.2298,-276.7134 232.5978,-286.7587 238.127,-282.4659"/>
</g>
<!-- Node14 -->
<g id="node10" class="node">
<title>Node14</title>
<g id="a_node10"><a xlink:href="classFloConfig.html#a84e84f401372ccc9c70b7a96765b96b9" target="_top" xlink:title="FloConfig::ConfigureDisplay\l_Common">
<polygon fill="#ffffff" stroke="#000000" points="348.5,-252 348.5,-282 499.5,-282 499.5,-252 348.5,-252"/>
<text text-anchor="start" x="356.5" y="-270" font-family="Helvetica,sans-Serif" font-size="10.00" fill="#000000">FloConfig::ConfigureDisplay</text>
<text text-anchor="middle" x="424" y="-259" font-family="Helvetica,sans-Serif" font-size="10.00" fill="#000000">_Common</text>
</a>
</g>
</g>
<!-- Node6&#45;&gt;Node14 -->
<g id="edge11" class="edge">
<title>Node6&#45;&gt;Node14</title>
<path fill="none" stroke="#191970" d="M307.4981,-267C321.0937,-267 335.0647,-267 348.4002,-267"/>
<polygon fill="#191970" stroke="#191970" points="307.1915,-263.5001 297.1915,-267 307.1915,-270.5001 307.1915,-263.5001"/>
</g>
<!-- Node15 -->
<g id="node11" class="node">
<title>Node15</title>
<g id="a_node11"><a xlink:href="classFloConfig.html#a0418811597242166fc9cfd76a0e086c9" target="_top" xlink:title="FloConfig::ConfigureDisplay">
<polygon fill="#ffffff" stroke="#000000" points="348.5,-213.5 348.5,-232.5 499.5,-232.5 499.5,-213.5 348.5,-213.5"/>
<text text-anchor="middle" x="424" y="-220.5" font-family="Helvetica,sans-Serif" font-size="10.00" fill="#000000">FloConfig::ConfigureDisplay</text>
</a>
</g>
</g>
<!-- Node6&#45;&gt;Node15 -->
<g id="edge12" class="edge">
<title>Node6&#45;&gt;Node15</title>
<path fill="none" stroke="#191970" d="M273.1633,-255.2499C291.9856,-251.013 313.442,-246.2341 333,-242 347.512,-238.8583 363.3462,-235.5208 377.678,-232.5341"/>
<polygon fill="#191970" stroke="#191970" points="272.2812,-251.8608 263.2964,-257.4755 273.8215,-258.6893 272.2812,-251.8608"/>
</g>
<!-- Node16 -->
<g id="node12" class="node">
<title>Node16</title>
<g id="a_node12"><a xlink:href="classFloDisplayText.html#a7fba83ced538ac59c4e7e9b0fd5c7c5f" target="_top" xlink:title="FloDisplayText::Draw">
<polygon fill="#ffffff" stroke="#000000" points="364.5,-175.5 364.5,-194.5 483.5,-194.5 483.5,-175.5 364.5,-175.5"/>
<text text-anchor="middle" x="424" y="-182.5" font-family="Helvetica,sans-Serif" font-size="10.00" fill="#000000">FloDisplayText::Draw</text>
</a>
</g>
</g>
<!-- Node6&#45;&gt;Node16 -->
<g id="edge13" class="edge">
<title>Node6&#45;&gt;Node16</title>
<path fill="none" stroke="#191970" d="M283.9583,-253.8164C288.5197,-251.8499 292.9236,-249.592 297,-247 318.0328,-233.6263 311.6195,-216.8104 333,-204 342.4142,-198.3593 353.2478,-194.3747 364.0824,-191.5643"/>
<polygon fill="#191970" stroke="#191970" points="282.5208,-250.6188 274.4288,-257.4577 285.0194,-257.1578 282.5208,-250.6188"/>
</g>
<!-- Node17 -->
<g id="node13" class="node">
<title>Node17</title>
<g id="a_node13"><a xlink:href="classFloDisplaySwitch.html#acdd027d06c761826dd773346a94f5875" target="_top" xlink:title="FloDisplaySwitch::Draw">
<polygon fill="#ffffff" stroke="#000000" points="358.5,-137.5 358.5,-156.5 489.5,-156.5 489.5,-137.5 358.5,-137.5"/>
<text text-anchor="middle" x="424" y="-144.5" font-family="Helvetica,sans-Serif" font-size="10.00" fill="#000000">FloDisplaySwitch::Draw</text>
</a>
</g>
</g>
<!-- Node6&#45;&gt;Node17 -->
<g id="edge14" class="edge">
<title>Node6&#45;&gt;Node17</title>
<path fill="none" stroke="#191970" d="M288.8547,-252.8007C291.7354,-251.0803 294.4715,-249.1548 297,-247 326.9845,-221.4476 302.3475,-190.7472 333,-166 340.409,-160.0184 349.2364,-155.7848 358.4349,-152.8111"/>
<polygon fill="#191970" stroke="#191970" points="287.1777,-249.7268 279.8414,-257.3708 290.3433,-255.9701 287.1777,-249.7268"/>
</g>
<!-- Node18 -->
<g id="node14" class="node">
<title>Node18</title>
<g id="a_node14"><a xlink:href="classFloDisplayCircleSwitch.html#a592f8a024274ed06523ad2e71402fe05" target="_top" xlink:title="FloDisplayCircleSwitch\l::Draw">
<polygon fill="#ffffff" stroke="#000000" points="360,-88 360,-118 488,-118 488,-88 360,-88"/>
<text text-anchor="start" x="368" y="-106" font-family="Helvetica,sans-Serif" font-size="10.00" fill="#000000">FloDisplayCircleSwitch</text>
<text text-anchor="middle" x="424" y="-95" font-family="Helvetica,sans-Serif" font-size="10.00" fill="#000000">::Draw</text>
</a>
</g>
</g>
<!-- Node6&#45;&gt;Node18 -->
<g id="edge15" class="edge">
<title>Node6&#45;&gt;Node18</title>
<path fill="none" stroke="#191970" d="M290.6743,-252.1796C292.9162,-250.617 295.0371,-248.8957 297,-247 336.7461,-208.6141 293.43,-166.5675 333,-128 340.509,-120.6812 349.9511,-115.4593 359.8903,-111.7433"/>
<polygon fill="#191970" stroke="#191970" points="288.4292,-249.4331 281.5055,-257.4526 291.9191,-255.5012 288.4292,-249.4331"/>
</g>
<!-- Node19 -->
<g id="node15" class="node">
<title>Node19</title>
<g id="a_node15"><a xlink:href="classFloDisplayTextSwitch.html#adae37b9c2217f4edb941b5fb1dcac359" target="_top" xlink:title="FloDisplayTextSwitch\l::Draw">
<polygon fill="#ffffff" stroke="#000000" points="364,-39 364,-69 484,-69 484,-39 364,-39"/>
<text text-anchor="start" x="372" y="-57" font-family="Helvetica,sans-Serif" font-size="10.00" fill="#000000">FloDisplayTextSwitch</text>
<text text-anchor="middle" x="424" y="-46" font-family="Helvetica,sans-Serif" font-size="10.00" fill="#000000">::Draw</text>
</a>
</g>
</g>
<!-- Node6&#45;&gt;Node19 -->
<g id="edge16" class="edge">
<title>Node6&#45;&gt;Node19</title>
<path fill="none" stroke="#191970" d="M291.1654,-252.1728C293.244,-250.6097 295.2001,-248.8905 297,-247 349.9546,-191.3809 280.0151,-133.5903 333,-78 341.2292,-69.3662 352.1647,-63.7048 363.594,-60.0227"/>
<polygon fill="#191970" stroke="#191970" points="289.278,-249.2247 282.6116,-257.4593 292.9581,-255.1792 289.278,-249.2247"/>
</g>
<!-- Node20 -->
<g id="node16" class="node">
<title>Node20</title>
<g id="a_node16"><a xlink:href="classFloDisplayBar.html#aa49253add55fdb47e70ee4344dfc38e2" target="_top" xlink:title="FloDisplayBar::Draw">
<polygon fill="#ffffff" stroke="#000000" points="366,-.5 366,-19.5 482,-19.5 482,-.5 366,-.5"/>
<text text-anchor="middle" x="424" y="-7.5" font-family="Helvetica,sans-Serif" font-size="10.00" fill="#000000">FloDisplayBar::Draw</text>
</a>
</g>
</g>
<!-- Node6&#45;&gt;Node20 -->
<g id="edge17" class="edge">
<title>Node6&#45;&gt;Node20</title>
<path fill="none" stroke="#191970" d="M291.8436,-251.8319C293.6794,-250.3595 295.4067,-248.7528 297,-247 363.0526,-174.3329 265.0409,-99.8874 333,-29 341.7119,-19.9128 353.5629,-14.5992 365.8313,-11.6034"/>
<polygon fill="#191970" stroke="#191970" points="289.6566,-249.0791 283.1802,-257.4639 293.4719,-254.9479 289.6566,-249.0791"/>
</g>
<!-- Node21 -->
<g id="node17" class="node">
<title>Node21</title>
<g id="a_node17"><a xlink:href="classFloDisplayBarSwitch.html#a272468a8334d56f0c493b5273774c88d" target="_top" xlink:title="FloDisplayBarSwitch\l::Draw">
<polygon fill="#ffffff" stroke="#000000" points="366,-301 366,-331 482,-331 482,-301 366,-301"/>
<text text-anchor="start" x="374" y="-319" font-family="Helvetica,sans-Serif" font-size="10.00" fill="#000000">FloDisplayBarSwitch</text>
<text text-anchor="middle" x="424" y="-308" font-family="Helvetica,sans-Serif" font-size="10.00" fill="#000000">::Draw</text>
</a>
</g>
</g>
<!-- Node6&#45;&gt;Node21 -->
<g id="edge18" class="edge">
<title>Node6&#45;&gt;Node21</title>
<path fill="none" stroke="#191970" d="M270.8197,-278.9341C299.4726,-285.8674 335.7335,-294.6417 365.7819,-301.9127"/>
<polygon fill="#191970" stroke="#191970" points="271.5674,-275.5141 261.0248,-276.564 269.9211,-282.3178 271.5674,-275.5141"/>
</g>
<!-- Node8 -->
<g id="node4" class="node">
<title>Node8</title>
<g id="a_node4"><a xlink:href="classInputMatrix.html#a792ede8dc637e3d8e6c4aa8141596d18" target="_top" xlink:title="InputMatrix::CreateBinding">
<polygon fill="#ffffff" stroke="#000000" points="574,-416.5 574,-435.5 721,-435.5 721,-416.5 574,-416.5"/>
<text text-anchor="middle" x="647.5" y="-423.5" font-family="Helvetica,sans-Serif" font-size="10.00" fill="#000000">InputMatrix::CreateBinding</text>
</a>
</g>
</g>
<!-- Node7&#45;&gt;Node8 -->
<g id="edge3" class="edge">
<title>Node7&#45;&gt;Node8</title>
<path fill="none" stroke="#191970" d="M525.3751,-431.4642C541.754,-430.7314 558.4328,-429.9851 573.9876,-429.2891"/>
<polygon fill="#191970" stroke="#191970" points="525.0619,-427.9746 515.2284,-431.9182 525.3748,-434.9676 525.0619,-427.9746"/>
</g>
<!-- Node9&#45;&gt;Node8 -->
<g id="edge5" class="edge">
<title>Node9&#45;&gt;Node8</title>
<path fill="none" stroke="#191970" d="M510.1453,-408.7922C531.0906,-411.4163 553.3042,-414.1992 573.6232,-416.7447"/>
<polygon fill="#191970" stroke="#191970" points="510.3363,-405.2889 499.9788,-407.5186 509.4661,-412.2346 510.3363,-405.2889"/>
</g>
<!-- Node11 -->
<g id="node7" class="node">
<title>Node11</title>
<g id="a_node7"><a xlink:href="classInputMatrix.html#aa74204a205a10f2b60809ea124db9173" target="_top" xlink:title="InputMatrix::ReceiveEvent">
<polygon fill="#ffffff" stroke="#000000" points="780,-407.5 780,-426.5 924,-426.5 924,-407.5 780,-407.5"/>
<text text-anchor="middle" x="852" y="-414.5" font-family="Helvetica,sans-Serif" font-size="10.00" fill="#000000">InputMatrix::ReceiveEvent</text>
</a>
</g>
</g>
<!-- Node10&#45;&gt;Node11 -->
<g id="edge7" class="edge">
<title>Node10&#45;&gt;Node11</title>
<path fill="none" stroke="#191970" d="M708.9475,-390.4181C738.2078,-395.8552 772.8006,-402.2832 800.6389,-407.4561"/>
<polygon fill="#191970" stroke="#191970" points="709.3112,-386.9259 698.84,-388.54 708.0323,-393.808 709.3112,-386.9259"/>
</g>
<!-- Node13 -->
<g id="node9" class="node">
<title>Node13</title>
<g id="a_node9"><a xlink:href="classInputMatrix.html#a3de81b8f75cd4030108b107bfb584246" target="_top" xlink:title="InputMatrix::MatchBinding">
<polygon fill="#ffffff" stroke="#000000" points="575.5,-459.5 575.5,-478.5 719.5,-478.5 719.5,-459.5 575.5,-459.5"/>
<text text-anchor="middle" x="647.5" y="-466.5" font-family="Helvetica,sans-Serif" font-size="10.00" fill="#000000">InputMatrix::MatchBinding</text>
</a>
</g>
</g>
<!-- Node12&#45;&gt;Node13 -->
<g id="edge9" class="edge">
<title>Node12&#45;&gt;Node13</title>
<path fill="none" stroke="#191970" d="M514.2709,-471.9805C534.6157,-471.5254 555.9475,-471.0482 575.4301,-470.6123"/>
<polygon fill="#191970" stroke="#191970" points="513.9765,-468.4861 504.0573,-472.209 514.1332,-475.4844 513.9765,-468.4861"/>
</g>
<!-- Node13&#45;&gt;Node11 -->
<g id="edge10" class="edge">
<title>Node13&#45;&gt;Node11</title>
<path fill="none" stroke="#191970" d="M696.2713,-456.9701C711.5595,-453.1724 728.4897,-448.9392 744,-445 767.8428,-438.9445 794.6089,-432.0062 815.5298,-426.5512"/>
<polygon fill="#191970" stroke="#191970" points="695.3566,-453.5909 686.4933,-459.3955 697.0419,-460.385 695.3566,-453.5909"/>
</g>
</g>
</svg>
