<?xml version="1.0" encoding="UTF-8" standalone="no"?>
<!DOCTYPE svg PUBLIC "-//W3C//DTD SVG 1.1//EN"
 "http://www.w3.org/Graphics/SVG/1.1/DTD/svg11.dtd">
<!-- Generated by graphviz version 2.40.1 (20161225.0304)
 -->
<!-- Title: BlockWriteManager::End Pages: 1 -->
<svg width="340pt" height="127pt"
 viewBox="0.00 0.00 340.00 126.50" xmlns="http://www.w3.org/2000/svg" xmlns:xlink="http://www.w3.org/1999/xlink">
<g id="graph0" class="graph" transform="scale(1 1) rotate(0) translate(4 122.5)">
<title>BlockWriteManager::End</title>
<polygon fill="#ffffff" stroke="transparent" points="-4,4 -4,-122.5 336,-122.5 336,4 -4,4"/>
<!-- Node8 -->
<g id="node1" class="node">
<title>Node8</title>
<polygon fill="#bfbfbf" stroke="#000000" points="0,-44.5 0,-63.5 135,-63.5 135,-44.5 0,-44.5"/>
<text text-anchor="middle" x="67.5" y="-51.5" font-family="Helvetica,sans-Serif" font-size="10.00" fill="#000000">BlockWriteManager::End</text>
</g>
<!-- Node9 -->
<g id="node2" class="node">
<title>Node9</title>
<g id="a_node2"><a xlink:href="classBlockWriteManager.html#ac169c86e8b5a32eee41db76a58d9aee5" target="_top" xlink:title="BlockWriteManager::\l~BlockWriteManager">
<polygon fill="#ffffff" stroke="#000000" points="192,-88 192,-118 311,-118 311,-88 192,-88"/>
<text text-anchor="start" x="200" y="-106" font-family="Helvetica,sans-Serif" font-size="10.00" fill="#000000">BlockWriteManager::</text>
<text text-anchor="middle" x="251.5" y="-95" font-family="Helvetica,sans-Serif" font-size="10.00" fill="#000000">~BlockWriteManager</text>
</a>
</g>
</g>
<!-- Node8&#45;&gt;Node9 -->
<g id="edge1" class="edge">
<title>Node8&#45;&gt;Node9</title>
<path fill="none" stroke="#191970" d="M113.2731,-66.1896C138.024,-72.7808 168.8059,-80.9782 195.0347,-87.963"/>
<polygon fill="#191970" stroke="#191970" points="113.9778,-62.7553 103.4139,-63.564 112.1764,-69.5196 113.9778,-62.7553"/>
</g>
<!-- Node10 -->
<g id="node3" class="node">
<title>Node10</title>
<g id="a_node3"><a xlink:href="classBlockWriteManager.html#a0b50330873c237f482c48aa06a4b1a9a" target="_top" xlink:title="BlockWriteManager::\lManage">
<polygon fill="#ffffff" stroke="#000000" points="193,-39 193,-69 310,-69 310,-39 193,-39"/>
<text text-anchor="start" x="201" y="-57" font-family="Helvetica,sans-Serif" font-size="10.00" fill="#000000">BlockWriteManager::</text>
<text text-anchor="middle" x="251.5" y="-46" font-family="Helvetica,sans-Serif" font-size="10.00" fill="#000000">Manage</text>
</a>
</g>
</g>
<!-- Node8&#45;&gt;Node10 -->
<g id="edge2" class="edge">
<title>Node8&#45;&gt;Node10</title>
<path fill="none" stroke="#191970" d="M145.5727,-54C161.4658,-54 177.9266,-54 192.9983,-54"/>
<polygon fill="#191970" stroke="#191970" points="145.231,-50.5001 135.2309,-54 145.2309,-57.5001 145.231,-50.5001"/>
</g>
<!-- Node11 -->
<g id="node4" class="node">
<title>Node11</title>
<g id="a_node4"><a xlink:href="classLoopManager.html#aadca58536e41c8b0b8fd148ac40b23c0" target="_top" xlink:title="LoopManager::~LoopManager">
<polygon fill="#ffffff" stroke="#000000" points="171,-.5 171,-19.5 332,-19.5 332,-.5 171,-.5"/>
<text text-anchor="middle" x="251.5" y="-7.5" font-family="Helvetica,sans-Serif" font-size="10.00" fill="#000000">LoopManager::~LoopManager</text>
</a>
</g>
</g>
<!-- Node8&#45;&gt;Node11 -->
<g id="edge3" class="edge">
<title>Node8&#45;&gt;Node11</title>
<path fill="none" stroke="#191970" d="M117.1651,-42.1236C146.8049,-35.0358 183.9419,-26.1552 211.6527,-19.5287"/>
<polygon fill="#191970" stroke="#191970" points="116.337,-38.7228 107.4253,-44.4527 117.9651,-45.5309 116.337,-38.7228"/>
</g>
</g>
</svg>
