<?xml version="1.0" encoding="UTF-8" standalone="no"?>
<!DOCTYPE svg PUBLIC "-//W3C//DTD SVG 1.1//EN"
 "http://www.w3.org/Graphics/SVG/1.1/DTD/svg11.dtd">
<!-- Generated by graphviz version 2.40.1 (20161225.0304)
 -->
<!-- Title: LoopManager::GetInputVolume Pages: 1 -->
<svg width="381pt" height="66pt"
 viewBox="0.00 0.00 381.00 66.00" xmlns="http://www.w3.org/2000/svg" xmlns:xlink="http://www.w3.org/1999/xlink">
<g id="graph0" class="graph" transform="scale(1 1) rotate(0) translate(4 62)">
<title>LoopManager::GetInputVolume</title>
<polygon fill="#ffffff" stroke="transparent" points="-4,4 -4,-62 377,-62 377,4 -4,4"/>
<!-- Node370 -->
<g id="node1" class="node">
<title>Node370</title>
<polygon fill="#bfbfbf" stroke="#000000" points="0,-19.5 0,-38.5 167,-38.5 167,-19.5 0,-19.5"/>
<text text-anchor="middle" x="83.5" y="-26.5" font-family="Helvetica,sans-Serif" font-size="10.00" fill="#000000">LoopManager::GetInputVolume</text>
</g>
<!-- Node371 -->
<g id="node2" class="node">
<title>Node371</title>
<g id="a_node2"><a xlink:href="classFweelin.html#a4422f3a93561eff272cd5f7ecb0782ee" target="_top" xlink:title="Fweelin::getRP">
<polygon fill="#ffffff" stroke="#000000" points="243.5,-38.5 243.5,-57.5 332.5,-57.5 332.5,-38.5 243.5,-38.5"/>
<text text-anchor="middle" x="288" y="-45.5" font-family="Helvetica,sans-Serif" font-size="10.00" fill="#000000">Fweelin::getRP</text>
</a>
</g>
</g>
<!-- Node370&#45;&gt;Node371 -->
<g id="edge1" class="edge">
<title>Node370&#45;&gt;Node371</title>
<path fill="none" stroke="#191970" d="M167.268,-36.7828C189.5373,-38.8519 213.0164,-41.0333 233.2887,-42.9168"/>
<polygon fill="#191970" stroke="#191970" points="232.9868,-46.4037 243.2678,-43.8439 233.6345,-39.4338 232.9868,-46.4037"/>
</g>
<!-- Node372 -->
<g id="node3" class="node">
<title>Node372</title>
<g id="a_node3"><a xlink:href="classRootProcessor.html#a0fb959f2dc95433cab19b2fa0598d83d" target="_top" xlink:title="RootProcessor::GetInputVolume">
<polygon fill="#ffffff" stroke="#000000" points="203,-.5 203,-19.5 373,-19.5 373,-.5 203,-.5"/>
<text text-anchor="middle" x="288" y="-7.5" font-family="Helvetica,sans-Serif" font-size="10.00" fill="#000000">RootProcessor::GetInputVolume</text>
</a>
</g>
</g>
<!-- Node370&#45;&gt;Node372 -->
<g id="edge2" class="edge">
<title>Node370&#45;&gt;Node372</title>
<path fill="none" stroke="#191970" d="M167.268,-21.2172C175.5804,-20.4448 184.0614,-19.6569 192.4813,-18.8746"/>
<polygon fill="#191970" stroke="#191970" points="193.0726,-22.3348 202.7059,-17.9246 192.4249,-15.3648 193.0726,-22.3348"/>
</g>
</g>
</svg>
