<?xml version="1.0" encoding="UTF-8" standalone="no"?>
<!DOCTYPE svg PUBLIC "-//W3C//DTD SVG 1.1//EN"
 "http://www.w3.org/Graphics/SVG/1.1/DTD/svg11.dtd">
<!-- Generated by graphviz version 2.40.1 (20161225.0304)
 -->
<!-- Title: Range::Range Pages: 1 -->
<svg width="1231pt" height="520pt"
 viewBox="0.00 0.00 1231.00 520.00" xmlns="http://www.w3.org/2000/svg" xmlns:xlink="http://www.w3.org/1999/xlink">
<g id="graph0" class="graph" transform="scale(1 1) rotate(0) translate(4 516)">
<title>Range::Range</title>
<polygon fill="#ffffff" stroke="transparent" points="-4,4 -4,-516 1227,-516 1227,4 -4,4"/>
<!-- Node1 -->
<g id="node1" class="node">
<title>Node1</title>
<polygon fill="#bfbfbf" stroke="#000000" points="0,-244.5 0,-263.5 84,-263.5 84,-244.5 0,-244.5"/>
<text text-anchor="middle" x="42" y="-251.5" font-family="Helvetica,sans-Serif" font-size="10.00" fill="#000000">Range::Range</text>
</g>
<!-- Node2 -->
<g id="node2" class="node">
<title>Node2</title>
<g id="a_node2"><a xlink:href="classUserVariable.html#aef41a39f902c366f511812e92ec2971d" target="_top" xlink:title="UserVariable::operator==">
<polygon fill="#ffffff" stroke="#000000" points="120,-358.5 120,-377.5 263,-377.5 263,-358.5 120,-358.5"/>
<text text-anchor="middle" x="191.5" y="-365.5" font-family="Helvetica,sans-Serif" font-size="10.00" fill="#000000">UserVariable::operator==</text>
</a>
</g>
</g>
<!-- Node1&#45;&gt;Node2 -->
<g id="edge1" class="edge">
<title>Node1&#45;&gt;Node2</title>
<path fill="none" stroke="#191970" d="M52.3694,-272.66C65.3611,-294.2965 89.6489,-329.4799 120,-349 126.0495,-352.8907 132.8737,-355.9884 139.8443,-358.4539"/>
<polygon fill="#191970" stroke="#191970" points="55.2607,-270.669 47.2139,-263.777 49.2065,-274.1828 55.2607,-270.669"/>
</g>
<!-- Node3 -->
<g id="node3" class="node">
<title>Node3</title>
<g id="a_node3"><a xlink:href="classUserVariable.html#ab70b45038f2a9f57a10e3c16f96c4713" target="_top" xlink:title="UserVariable::operator+=">
<polygon fill="#ffffff" stroke="#000000" points="120,-320.5 120,-339.5 263,-339.5 263,-320.5 120,-320.5"/>
<text text-anchor="middle" x="191.5" y="-327.5" font-family="Helvetica,sans-Serif" font-size="10.00" fill="#000000">UserVariable::operator+=</text>
</a>
</g>
</g>
<!-- Node1&#45;&gt;Node3 -->
<g id="edge2" class="edge">
<title>Node1&#45;&gt;Node3</title>
<path fill="none" stroke="#191970" d="M60.337,-270.4727C75.3916,-283.2042 97.7788,-300.3916 120,-311 127.8818,-314.7628 136.6212,-317.8672 145.2065,-320.3974"/>
<polygon fill="#191970" stroke="#191970" points="62.6271,-267.826 52.7753,-263.9282 58.0461,-273.1189 62.6271,-267.826"/>
</g>
<!-- Node4 -->
<g id="node4" class="node">
<title>Node4</title>
<g id="a_node4"><a xlink:href="classUserVariable.html#a5b1cd3ffcedcb5cfee4936e390935700" target="_top" xlink:title="UserVariable::operator&#45;=">
<polygon fill="#ffffff" stroke="#000000" points="123,-282.5 123,-301.5 260,-301.5 260,-282.5 123,-282.5"/>
<text text-anchor="middle" x="191.5" y="-289.5" font-family="Helvetica,sans-Serif" font-size="10.00" fill="#000000">UserVariable::operator&#45;=</text>
</a>
</g>
</g>
<!-- Node1&#45;&gt;Node4 -->
<g id="edge3" class="edge">
<title>Node1&#45;&gt;Node4</title>
<path fill="none" stroke="#191970" d="M89.6516,-266.1121C110.4726,-271.4044 134.5377,-277.5213 154.0461,-282.4799"/>
<polygon fill="#191970" stroke="#191970" points="90.2792,-262.6604 79.7252,-263.589 88.5547,-269.4447 90.2792,-262.6604"/>
</g>
<!-- Node5 -->
<g id="node5" class="node">
<title>Node5</title>
<g id="a_node5"><a xlink:href="classUserVariable.html#a88652519de38878913f4858ff16b48f7" target="_top" xlink:title="UserVariable::operator*=">
<polygon fill="#ffffff" stroke="#000000" points="121.5,-244.5 121.5,-263.5 261.5,-263.5 261.5,-244.5 121.5,-244.5"/>
<text text-anchor="middle" x="191.5" y="-251.5" font-family="Helvetica,sans-Serif" font-size="10.00" fill="#000000">UserVariable::operator*=</text>
</a>
</g>
</g>
<!-- Node1&#45;&gt;Node5 -->
<g id="edge4" class="edge">
<title>Node1&#45;&gt;Node5</title>
<path fill="none" stroke="#191970" d="M94.1596,-254C102.9885,-254 112.2815,-254 121.4787,-254"/>
<polygon fill="#191970" stroke="#191970" points="94.042,-250.5001 84.0419,-254 94.0419,-257.5001 94.042,-250.5001"/>
</g>
<!-- Node6 -->
<g id="node6" class="node">
<title>Node6</title>
<g id="a_node6"><a xlink:href="classUserVariable.html#a90ae333e83842d7280f5ded9dfc26d8c" target="_top" xlink:title="UserVariable::operator/=">
<polygon fill="#ffffff" stroke="#000000" points="123,-206.5 123,-225.5 260,-225.5 260,-206.5 123,-206.5"/>
<text text-anchor="middle" x="191.5" y="-213.5" font-family="Helvetica,sans-Serif" font-size="10.00" fill="#000000">UserVariable::operator/=</text>
</a>
</g>
</g>
<!-- Node1&#45;&gt;Node6 -->
<g id="edge5" class="edge">
<title>Node1&#45;&gt;Node6</title>
<path fill="none" stroke="#191970" d="M89.6516,-241.8879C110.4726,-236.5956 134.5377,-230.4787 154.0461,-225.5201"/>
<polygon fill="#191970" stroke="#191970" points="88.5547,-238.5553 79.7252,-244.411 90.2792,-245.3396 88.5547,-238.5553"/>
</g>
<!-- Node7 -->
<g id="node7" class="node">
<title>Node7</title>
<g id="a_node7"><a xlink:href="classUserVariable.html#ad64a6b115c2b37ffa76045920b46bdfd" target="_top" xlink:title="UserVariable::operator\l Range">
<polygon fill="#ffffff" stroke="#000000" points="128.5,-157 128.5,-187 254.5,-187 254.5,-157 128.5,-157"/>
<text text-anchor="start" x="136.5" y="-175" font-family="Helvetica,sans-Serif" font-size="10.00" fill="#000000">UserVariable::operator</text>
<text text-anchor="middle" x="191.5" y="-164" font-family="Helvetica,sans-Serif" font-size="10.00" fill="#000000"> Range</text>
</a>
</g>
</g>
<!-- Node1&#45;&gt;Node7 -->
<g id="edge6" class="edge">
<title>Node1&#45;&gt;Node7</title>
<path fill="none" stroke="#191970" d="M60.9913,-237.64C76.1678,-225.1998 98.4033,-208.3458 120,-197 126.9848,-193.3305 134.6232,-190.0078 142.2249,-187.0709"/>
<polygon fill="#191970" stroke="#191970" points="58.3569,-235.2804 52.9295,-244.3795 62.8466,-240.6509 58.3569,-235.2804"/>
</g>
<!-- Node8 -->
<g id="node8" class="node">
<title>Node8</title>
<g id="a_node8"><a xlink:href="classUserVariable.html#a7cbb83559d78173a8b7810c3ecc3842f" target="_top" xlink:title="UserVariable::SetFrom">
<polygon fill="#ffffff" stroke="#000000" points="129,-118.5 129,-137.5 254,-137.5 254,-118.5 129,-118.5"/>
<text text-anchor="middle" x="191.5" y="-125.5" font-family="Helvetica,sans-Serif" font-size="10.00" fill="#000000">UserVariable::SetFrom</text>
</a>
</g>
</g>
<!-- Node1&#45;&gt;Node8 -->
<g id="edge7" class="edge">
<title>Node1&#45;&gt;Node8</title>
<path fill="none" stroke="#191970" d="M50.6963,-235.1053C62.7867,-210.9661 86.9703,-169.6119 120,-147 125.7231,-143.082 132.2132,-139.9715 138.8919,-137.5022"/>
<polygon fill="#191970" stroke="#191970" points="47.4572,-233.7643 46.2646,-244.2918 53.762,-236.8059 47.4572,-233.7643"/>
</g>
<!-- Node9 -->
<g id="node9" class="node">
<title>Node9</title>
<g id="a_node9"><a xlink:href="classCfgToken.html#a5e30ffe3bc7cf2483e390cf023eaa6c0" target="_top" xlink:title="CfgToken::Evaluate">
<polygon fill="#ffffff" stroke="#000000" points="299,-290.5 299,-309.5 409,-309.5 409,-290.5 299,-290.5"/>
<text text-anchor="middle" x="354" y="-297.5" font-family="Helvetica,sans-Serif" font-size="10.00" fill="#000000">CfgToken::Evaluate</text>
</a>
</g>
</g>
<!-- Node8&#45;&gt;Node9 -->
<g id="edge8" class="edge">
<title>Node8&#45;&gt;Node9</title>
<path fill="none" stroke="#191970" d="M255.0975,-141.9109C257.8657,-143.4346 260.518,-145.125 263,-147 314.5392,-185.9353 342.5778,-263.274 351.136,-290.3594"/>
<polygon fill="#191970" stroke="#191970" points="256.4667,-138.687 245.9289,-137.589 253.4819,-145.0188 256.4667,-138.687"/>
</g>
<!-- Node15 -->
<g id="node15" class="node">
<title>Node15</title>
<g id="a_node15"><a xlink:href="classInputMatrix.html#aa74204a205a10f2b60809ea124db9173" target="_top" xlink:title="InputMatrix::ReceiveEvent">
<polygon fill="#ffffff" stroke="#000000" points="1079,-340.5 1079,-359.5 1223,-359.5 1223,-340.5 1079,-340.5"/>
<text text-anchor="middle" x="1151" y="-347.5" font-family="Helvetica,sans-Serif" font-size="10.00" fill="#000000">InputMatrix::ReceiveEvent</text>
</a>
</g>
</g>
<!-- Node8&#45;&gt;Node15 -->
<g id="edge29" class="edge">
<title>Node8&#45;&gt;Node15</title>
<path fill="none" stroke="#191970" d="M213.5234,-112.7814C264.833,-78.8576 397.3493,0 520.5,0 520.5,0 520.5,0 723,0 944.2508,0 1114.0583,-283.7461 1145.6919,-340.2737"/>
<polygon fill="#191970" stroke="#191970" points="211.5337,-109.9016 205.1791,-118.3792 215.4334,-115.7147 211.5337,-109.9016"/>
</g>
<!-- Node10 -->
<g id="node10" class="node">
<title>Node10</title>
<g id="a_node10"><a xlink:href="classParsedExpression.html#a8b8c5462181f05c11f51df722809ac7e" target="_top" xlink:title="ParsedExpression::Evaluate">
<polygon fill="#ffffff" stroke="#000000" points="445,-271.5 445,-290.5 596,-290.5 596,-271.5 445,-271.5"/>
<text text-anchor="middle" x="520.5" y="-278.5" font-family="Helvetica,sans-Serif" font-size="10.00" fill="#000000">ParsedExpression::Evaluate</text>
</a>
</g>
</g>
<!-- Node9&#45;&gt;Node10 -->
<g id="edge9" class="edge">
<title>Node9&#45;&gt;Node10</title>
<path fill="none" stroke="#191970" d="M419.4578,-292.5303C427.7899,-291.5795 436.3715,-290.6003 444.8471,-289.6331"/>
<polygon fill="#191970" stroke="#191970" points="418.9808,-289.062 409.4421,-293.6733 419.7745,-296.0168 418.9808,-289.062"/>
</g>
<!-- Node16 -->
<g id="node16" class="node">
<title>Node16</title>
<g id="a_node16"><a xlink:href="classInputMatrix.html#a807406bec8679e3cce28776cee3a01d3" target="_top" xlink:title="InputMatrix::CheckConditions">
<polygon fill="#ffffff" stroke="#000000" points="643,-492.5 643,-511.5 803,-511.5 803,-492.5 643,-492.5"/>
<text text-anchor="middle" x="723" y="-499.5" font-family="Helvetica,sans-Serif" font-size="10.00" fill="#000000">InputMatrix::CheckConditions</text>
</a>
</g>
</g>
<!-- Node9&#45;&gt;Node16 -->
<g id="edge27" class="edge">
<title>Node9&#45;&gt;Node16</title>
<path fill="none" stroke="#191970" d="M419.3274,-302.2906C482.0323,-305.8565 570.8237,-314.938 596,-338 644.9634,-382.8516 584.1749,-436.9365 632,-483 635.836,-486.6947 640.1952,-489.7526 644.8789,-492.2765"/>
<polygon fill="#191970" stroke="#191970" points="419.2856,-298.7834 409.113,-301.7448 418.912,-305.7735 419.2856,-298.7834"/>
</g>
<!-- Node26 -->
<g id="node26" class="node">
<title>Node26</title>
<g id="a_node26"><a xlink:href="classParsedExpression.html#ad5786c9f763dee1580050648f130a6c0" target="_top" xlink:title="ParsedExpression::\l~ParsedExpression">
<polygon fill="#ffffff" stroke="#000000" points="465.5,-348 465.5,-378 575.5,-378 575.5,-348 465.5,-348"/>
<text text-anchor="start" x="473.5" y="-366" font-family="Helvetica,sans-Serif" font-size="10.00" fill="#000000">ParsedExpression::</text>
<text text-anchor="middle" x="520.5" y="-355" font-family="Helvetica,sans-Serif" font-size="10.00" fill="#000000">~ParsedExpression</text>
</a>
</g>
</g>
<!-- Node9&#45;&gt;Node26 -->
<g id="edge28" class="edge">
<title>Node9&#45;&gt;Node26</title>
<path fill="none" stroke="#191970" d="M388.6638,-313.116C415.4819,-323.2634 452.6484,-337.3264 480.6852,-347.935"/>
<polygon fill="#191970" stroke="#191970" points="389.8793,-309.8338 379.2878,-309.5683 387.402,-316.3808 389.8793,-309.8338"/>
</g>
<!-- Node11 -->
<g id="node11" class="node">
<title>Node11</title>
<g id="a_node11"><a xlink:href="classInputMatrix.html#ab36ad421b65b64d6e64f228b84792b4c" target="_top" xlink:title="InputMatrix::CreateParameterSets">
<polygon fill="#ffffff" stroke="#000000" points="632,-416.5 632,-435.5 814,-435.5 814,-416.5 632,-416.5"/>
<text text-anchor="middle" x="723" y="-423.5" font-family="Helvetica,sans-Serif" font-size="10.00" fill="#000000">InputMatrix::CreateParameterSets</text>
</a>
</g>
</g>
<!-- Node10&#45;&gt;Node11 -->
<g id="edge10" class="edge">
<title>Node10&#45;&gt;Node11</title>
<path fill="none" stroke="#191970" d="M582.1493,-294.9967C587.2038,-297.7531 591.9255,-301.0519 596,-305 630.5248,-338.4536 595.8155,-375.3489 632,-407 636.3732,-410.8253 641.316,-413.9505 646.5817,-416.4968"/>
<polygon fill="#191970" stroke="#191970" points="583.3,-291.6708 572.7596,-290.598 580.3305,-298.0097 583.3,-291.6708"/>
</g>
<!-- Node13 -->
<g id="node13" class="node">
<title>Node13</title>
<g id="a_node13"><a xlink:href="classInputMatrix.html#a767b7c5cd149e18a51105922aa9e8abb" target="_top" xlink:title="InputMatrix::CreateConditions">
<polygon fill="#ffffff" stroke="#000000" points="642,-378.5 642,-397.5 804,-397.5 804,-378.5 642,-378.5"/>
<text text-anchor="middle" x="723" y="-385.5" font-family="Helvetica,sans-Serif" font-size="10.00" fill="#000000">InputMatrix::CreateConditions</text>
</a>
</g>
</g>
<!-- Node10&#45;&gt;Node13 -->
<g id="edge12" class="edge">
<title>Node10&#45;&gt;Node13</title>
<path fill="none" stroke="#191970" d="M578.0839,-294.4128C584.4825,-297.2914 590.6203,-300.7785 596,-305 620.1659,-323.9635 607.3684,-345.6454 632,-364 640.5159,-370.3458 650.574,-375.0163 660.842,-378.4532"/>
<polygon fill="#191970" stroke="#191970" points="579.1654,-291.076 568.5805,-290.616 576.5683,-297.5764 579.1654,-291.076"/>
</g>
<!-- Node14 -->
<g id="node14" class="node">
<title>Node14</title>
<g id="a_node14"><a xlink:href="classInputMatrix.html#a00d9617869e0fc8ab7101a4f2ff22591" target="_top" xlink:title="InputMatrix::SetDynamicParameters">
<polygon fill="#ffffff" stroke="#000000" points="850,-340.5 850,-359.5 1043,-359.5 1043,-340.5 850,-340.5"/>
<text text-anchor="middle" x="946.5" y="-347.5" font-family="Helvetica,sans-Serif" font-size="10.00" fill="#000000">InputMatrix::SetDynamicParameters</text>
</a>
</g>
</g>
<!-- Node10&#45;&gt;Node14 -->
<g id="edge14" class="edge">
<title>Node10&#45;&gt;Node14</title>
<path fill="none" stroke="#191970" d="M567.9725,-293.6959C577.461,-296.8947 587.2076,-300.6724 596,-305 613.4774,-313.6023 613.6048,-323.5911 632,-330 702.1355,-354.4351 786.3232,-358.5794 849.9387,-357.0814"/>
<polygon fill="#191970" stroke="#191970" points="568.8197,-290.2921 558.2286,-290.5733 566.6834,-296.9582 568.8197,-290.2921"/>
</g>
<!-- Node10&#45;&gt;Node16 -->
<g id="edge16" class="edge">
<title>Node10&#45;&gt;Node16</title>
<path fill="none" stroke="#191970" d="M583.9873,-295.1549C588.4393,-297.8833 592.5297,-301.1322 596,-305 649.9023,-365.0759 575.1068,-425.7485 632,-483 635.7542,-486.7778 640.0526,-489.8974 644.6926,-492.4657"/>
<polygon fill="#191970" stroke="#191970" points="585.5375,-292.0163 575.0484,-290.5236 582.3173,-298.2316 585.5375,-292.0163"/>
</g>
<!-- Node18 -->
<g id="node18" class="node">
<title>Node18</title>
<g id="a_node18"><a xlink:href="classFloConfig.html#a84e84f401372ccc9c70b7a96765b96b9" target="_top" xlink:title="FloConfig::ConfigureDisplay\l_Common">
<polygon fill="#ffffff" stroke="#000000" points="647.5,-242 647.5,-272 798.5,-272 798.5,-242 647.5,-242"/>
<text text-anchor="start" x="655.5" y="-260" font-family="Helvetica,sans-Serif" font-size="10.00" fill="#000000">FloConfig::ConfigureDisplay</text>
<text text-anchor="middle" x="723" y="-249" font-family="Helvetica,sans-Serif" font-size="10.00" fill="#000000">_Common</text>
</a>
</g>
</g>
<!-- Node10&#45;&gt;Node18 -->
<g id="edge19" class="edge">
<title>Node10&#45;&gt;Node18</title>
<path fill="none" stroke="#191970" d="M606.4981,-270.8076C620.0937,-269.1963 634.0647,-267.5405 647.4002,-265.96"/>
<polygon fill="#191970" stroke="#191970" points="605.71,-267.3764 596.1915,-272.0292 606.534,-274.3278 605.71,-267.3764"/>
</g>
<!-- Node19 -->
<g id="node19" class="node">
<title>Node19</title>
<g id="a_node19"><a xlink:href="classFloConfig.html#a0418811597242166fc9cfd76a0e086c9" target="_top" xlink:title="FloConfig::ConfigureDisplay">
<polygon fill="#ffffff" stroke="#000000" points="647.5,-203.5 647.5,-222.5 798.5,-222.5 798.5,-203.5 647.5,-203.5"/>
<text text-anchor="middle" x="723" y="-210.5" font-family="Helvetica,sans-Serif" font-size="10.00" fill="#000000">FloConfig::ConfigureDisplay</text>
</a>
</g>
</g>
<!-- Node10&#45;&gt;Node19 -->
<g id="edge20" class="edge">
<title>Node10&#45;&gt;Node19</title>
<path fill="none" stroke="#191970" d="M548.1268,-266.9256C570.3171,-256.0981 602.5309,-241.438 632,-232 643.5277,-228.3081 656.1115,-225.1486 668.1431,-222.5265"/>
<polygon fill="#191970" stroke="#191970" points="546.3877,-263.881 538.9754,-271.4513 549.4907,-270.1557 546.3877,-263.881"/>
</g>
<!-- Node20 -->
<g id="node20" class="node">
<title>Node20</title>
<g id="a_node20"><a xlink:href="classFloDisplayText.html#a7fba83ced538ac59c4e7e9b0fd5c7c5f" target="_top" xlink:title="FloDisplayText::Draw">
<polygon fill="#ffffff" stroke="#000000" points="663.5,-165.5 663.5,-184.5 782.5,-184.5 782.5,-165.5 663.5,-165.5"/>
<text text-anchor="middle" x="723" y="-172.5" font-family="Helvetica,sans-Serif" font-size="10.00" fill="#000000">FloDisplayText::Draw</text>
</a>
</g>
</g>
<!-- Node10&#45;&gt;Node20 -->
<g id="edge21" class="edge">
<title>Node10&#45;&gt;Node20</title>
<path fill="none" stroke="#191970" d="M536.8374,-264.2213C557.2236,-244.3102 594.0479,-211.5996 632,-194 641.8099,-189.4509 652.7181,-185.9815 663.4778,-183.3383"/>
<polygon fill="#191970" stroke="#191970" points="534.2374,-261.8711 529.6238,-271.4086 539.1781,-266.8299 534.2374,-261.8711"/>
</g>
<!-- Node21 -->
<g id="node21" class="node">
<title>Node21</title>
<g id="a_node21"><a xlink:href="classFloDisplaySwitch.html#acdd027d06c761826dd773346a94f5875" target="_top" xlink:title="FloDisplaySwitch::Draw">
<polygon fill="#ffffff" stroke="#000000" points="657.5,-127.5 657.5,-146.5 788.5,-146.5 788.5,-127.5 657.5,-127.5"/>
<text text-anchor="middle" x="723" y="-134.5" font-family="Helvetica,sans-Serif" font-size="10.00" fill="#000000">FloDisplaySwitch::Draw</text>
</a>
</g>
</g>
<!-- Node10&#45;&gt;Node21 -->
<g id="edge22" class="edge">
<title>Node10&#45;&gt;Node21</title>
<path fill="none" stroke="#191970" d="M531.4376,-262.5659C548.9567,-234.769 586.0565,-182.5578 632,-156 639.8248,-151.4769 648.5807,-148.0234 657.4859,-145.3881"/>
<polygon fill="#191970" stroke="#191970" points="528.3259,-260.9447 526.0751,-271.2977 534.2909,-264.608 528.3259,-260.9447"/>
</g>
<!-- Node22 -->
<g id="node22" class="node">
<title>Node22</title>
<g id="a_node22"><a xlink:href="classFloDisplayCircleSwitch.html#a592f8a024274ed06523ad2e71402fe05" target="_top" xlink:title="FloDisplayCircleSwitch\l::Draw">
<polygon fill="#ffffff" stroke="#000000" points="659,-78 659,-108 787,-108 787,-78 659,-78"/>
<text text-anchor="start" x="667" y="-96" font-family="Helvetica,sans-Serif" font-size="10.00" fill="#000000">FloDisplayCircleSwitch</text>
<text text-anchor="middle" x="723" y="-85" font-family="Helvetica,sans-Serif" font-size="10.00" fill="#000000">::Draw</text>
</a>
</g>
</g>
<!-- Node10&#45;&gt;Node22 -->
<g id="edge23" class="edge">
<title>Node10&#45;&gt;Node22</title>
<path fill="none" stroke="#191970" d="M528.2627,-261.795C543.1157,-227.5251 578.8744,-155.8854 632,-118 640.0037,-112.2923 649.2544,-107.8869 658.728,-104.4867"/>
<polygon fill="#191970" stroke="#191970" points="524.978,-260.5771 524.3282,-271.152 531.4308,-263.2904 524.978,-260.5771"/>
</g>
<!-- Node23 -->
<g id="node23" class="node">
<title>Node23</title>
<g id="a_node23"><a xlink:href="classFloDisplayTextSwitch.html#adae37b9c2217f4edb941b5fb1dcac359" target="_top" xlink:title="FloDisplayTextSwitch\l::Draw">
<polygon fill="#ffffff" stroke="#000000" points="663,-29 663,-59 783,-59 783,-29 663,-29"/>
<text text-anchor="start" x="671" y="-47" font-family="Helvetica,sans-Serif" font-size="10.00" fill="#000000">FloDisplayTextSwitch</text>
<text text-anchor="middle" x="723" y="-36" font-family="Helvetica,sans-Serif" font-size="10.00" fill="#000000">::Draw</text>
</a>
</g>
</g>
<!-- Node10&#45;&gt;Node23 -->
<g id="edge24" class="edge">
<title>Node10&#45;&gt;Node23</title>
<path fill="none" stroke="#191970" d="M525.0805,-261.2689C535.9331,-219.0485 567.2949,-119.6013 632,-68 640.9419,-60.869 651.7976,-55.8433 662.8519,-52.3048"/>
<polygon fill="#191970" stroke="#191970" points="521.6419,-260.5951 522.6532,-271.1416 528.4395,-262.2664 521.6419,-260.5951"/>
</g>
<!-- Node24 -->
<g id="node24" class="node">
<title>Node24</title>
<g id="a_node24"><a xlink:href="classFloDisplayBar.html#aa49253add55fdb47e70ee4344dfc38e2" target="_top" xlink:title="FloDisplayBar::Draw">
<polygon fill="#ffffff" stroke="#000000" points="665,-454.5 665,-473.5 781,-473.5 781,-454.5 665,-454.5"/>
<text text-anchor="middle" x="723" y="-461.5" font-family="Helvetica,sans-Serif" font-size="10.00" fill="#000000">FloDisplayBar::Draw</text>
</a>
</g>
</g>
<!-- Node10&#45;&gt;Node24 -->
<g id="edge25" class="edge">
<title>Node10&#45;&gt;Node24</title>
<path fill="none" stroke="#191970" d="M583.5522,-295.2254C588.135,-297.9372 592.3725,-301.1631 596,-305 640.1373,-351.6851 585.5413,-400.6243 632,-445 640.9865,-453.5836 652.7998,-458.7226 664.9264,-461.7125"/>
<polygon fill="#191970" stroke="#191970" points="584.8898,-291.9806 574.3828,-290.6186 581.7472,-298.2356 584.8898,-291.9806"/>
</g>
<!-- Node25 -->
<g id="node25" class="node">
<title>Node25</title>
<g id="a_node25"><a xlink:href="classFloDisplayBarSwitch.html#a272468a8334d56f0c493b5273774c88d" target="_top" xlink:title="FloDisplayBarSwitch\l::Draw">
<polygon fill="#ffffff" stroke="#000000" points="665,-291 665,-321 781,-321 781,-291 665,-291"/>
<text text-anchor="start" x="673" y="-309" font-family="Helvetica,sans-Serif" font-size="10.00" fill="#000000">FloDisplayBarSwitch</text>
<text text-anchor="middle" x="723" y="-298" font-family="Helvetica,sans-Serif" font-size="10.00" fill="#000000">::Draw</text>
</a>
</g>
</g>
<!-- Node10&#45;&gt;Node25 -->
<g id="edge26" class="edge">
<title>Node10&#45;&gt;Node25</title>
<path fill="none" stroke="#191970" d="M606.1306,-291.5717C625.9074,-294.0133 646.4989,-296.5554 664.7883,-298.8134"/>
<polygon fill="#191970" stroke="#191970" points="606.545,-288.0964 596.1915,-290.3446 605.6873,-295.0436 606.545,-288.0964"/>
</g>
<!-- Node12 -->
<g id="node12" class="node">
<title>Node12</title>
<g id="a_node12"><a xlink:href="classInputMatrix.html#a792ede8dc637e3d8e6c4aa8141596d18" target="_top" xlink:title="InputMatrix::CreateBinding">
<polygon fill="#ffffff" stroke="#000000" points="873,-397.5 873,-416.5 1020,-416.5 1020,-397.5 873,-397.5"/>
<text text-anchor="middle" x="946.5" y="-404.5" font-family="Helvetica,sans-Serif" font-size="10.00" fill="#000000">InputMatrix::CreateBinding</text>
</a>
</g>
</g>
<!-- Node11&#45;&gt;Node12 -->
<g id="edge11" class="edge">
<title>Node11&#45;&gt;Node12</title>
<path fill="none" stroke="#191970" d="M824.3751,-417.382C840.754,-415.9896 857.4328,-414.5717 872.9876,-413.2494"/>
<polygon fill="#191970" stroke="#191970" points="823.8959,-413.91 814.2284,-418.2446 824.4889,-420.8848 823.8959,-413.91"/>
</g>
<!-- Node13&#45;&gt;Node12 -->
<g id="edge13" class="edge">
<title>Node13&#45;&gt;Node12</title>
<path fill="none" stroke="#191970" d="M814.124,-395.7466C833.6521,-397.4067 854.0508,-399.1408 872.8218,-400.7365"/>
<polygon fill="#191970" stroke="#191970" points="814.2652,-392.246 804.0046,-394.8863 813.6722,-399.2209 814.2652,-392.246"/>
</g>
<!-- Node14&#45;&gt;Node15 -->
<g id="edge15" class="edge">
<title>Node14&#45;&gt;Node15</title>
<path fill="none" stroke="#191970" d="M1053.2802,-350C1061.9813,-350 1070.6385,-350 1078.9993,-350"/>
<polygon fill="#191970" stroke="#191970" points="1053.061,-346.5001 1043.061,-350 1053.0609,-353.5001 1053.061,-346.5001"/>
</g>
<!-- Node17 -->
<g id="node17" class="node">
<title>Node17</title>
<g id="a_node17"><a xlink:href="classInputMatrix.html#a3de81b8f75cd4030108b107bfb584246" target="_top" xlink:title="InputMatrix::MatchBinding">
<polygon fill="#ffffff" stroke="#000000" points="874.5,-463.5 874.5,-482.5 1018.5,-482.5 1018.5,-463.5 874.5,-463.5"/>
<text text-anchor="middle" x="946.5" y="-470.5" font-family="Helvetica,sans-Serif" font-size="10.00" fill="#000000">InputMatrix::MatchBinding</text>
</a>
</g>
</g>
<!-- Node16&#45;&gt;Node17 -->
<g id="edge17" class="edge">
<title>Node16&#45;&gt;Node17</title>
<path fill="none" stroke="#191970" d="M806.6189,-491.1501C828.9359,-488.2544 852.8538,-485.151 874.4873,-482.3439"/>
<polygon fill="#191970" stroke="#191970" points="805.9583,-487.7064 796.4918,-492.4641 806.8591,-494.6482 805.9583,-487.7064"/>
</g>
<!-- Node17&#45;&gt;Node15 -->
<g id="edge18" class="edge">
<title>Node17&#45;&gt;Node15</title>
<path fill="none" stroke="#191970" d="M978.0671,-459.1786C997.2437,-450.4043 1021.9954,-438.398 1043,-426 1079.3296,-404.5565 1119.2283,-374.6763 1138.7977,-359.5649"/>
<polygon fill="#191970" stroke="#191970" points="976.5409,-456.0275 968.8699,-463.3354 979.4239,-462.4063 976.5409,-456.0275"/>
</g>
</g>
</svg>
