<?xml version="1.0" encoding="UTF-8" standalone="no"?>
<!DOCTYPE svg PUBLIC "-//W3C//DTD SVG 1.1//EN"
 "http://www.w3.org/Graphics/SVG/1.1/DTD/svg11.dtd">
<!-- Generated by graphviz version 2.40.1 (20161225.0304)
 -->
<!-- Title: LoopManager::AddLoopToLoadQueue Pages: 1 -->
<svg width="360pt" height="66pt"
 viewBox="0.00 0.00 360.00 66.00" xmlns="http://www.w3.org/2000/svg" xmlns:xlink="http://www.w3.org/1999/xlink">
<g id="graph0" class="graph" transform="scale(1 1) rotate(0) translate(4 62)">
<title>LoopManager::AddLoopToLoadQueue</title>
<polygon fill="#ffffff" stroke="transparent" points="-4,4 -4,-62 356,-62 356,4 -4,4"/>
<!-- Node74 -->
<g id="node1" class="node">
<title>Node74</title>
<polygon fill="#bfbfbf" stroke="#000000" points="0,-14 0,-44 164,-44 164,-14 0,-14"/>
<text text-anchor="start" x="8" y="-32" font-family="Helvetica,sans-Serif" font-size="10.00" fill="#000000">LoopManager::AddLoopToLoad</text>
<text text-anchor="middle" x="82" y="-21" font-family="Helvetica,sans-Serif" font-size="10.00" fill="#000000">Queue</text>
</g>
<!-- Node75 -->
<g id="node2" class="node">
<title>Node75</title>
<g id="a_node2"><a xlink:href="classEvent.html#aa67af0ae99b897e4f0ce42068c4e4c00" target="_top" xlink:title="Event::GetEventByType">
<polygon fill="#ffffff" stroke="#000000" points="210.5,-38.5 210.5,-57.5 341.5,-57.5 341.5,-38.5 210.5,-38.5"/>
<text text-anchor="middle" x="276" y="-45.5" font-family="Helvetica,sans-Serif" font-size="10.00" fill="#000000">Event::GetEventByType</text>
</a>
</g>
</g>
<!-- Node74&#45;&gt;Node75 -->
<g id="edge1" class="edge">
<title>Node74&#45;&gt;Node75</title>
<path fill="none" stroke="#191970" d="M164.2735,-37.0577C176.1746,-38.2233 188.3786,-39.4185 200.1461,-40.571"/>
<polygon fill="#191970" stroke="#191970" points="200.0628,-44.0795 210.3564,-41.571 200.7452,-37.1128 200.0628,-44.0795"/>
</g>
<!-- Node76 -->
<g id="node3" class="node">
<title>Node76</title>
<g id="a_node3"><a xlink:href="classEventManager.html#a215075d1cc20ee7e2d55e9bb54ca516f" target="_top" xlink:title="EventManager::QueueEvent">
<polygon fill="#ffffff" stroke="#000000" points="200,-.5 200,-19.5 352,-19.5 352,-.5 200,-.5"/>
<text text-anchor="middle" x="276" y="-7.5" font-family="Helvetica,sans-Serif" font-size="10.00" fill="#000000">EventManager::QueueEvent</text>
</a>
</g>
</g>
<!-- Node74&#45;&gt;Node76 -->
<g id="edge2" class="edge">
<title>Node74&#45;&gt;Node76</title>
<path fill="none" stroke="#191970" d="M164.2735,-20.9423C172.6432,-20.1226 181.1628,-19.2882 189.575,-18.4643"/>
<polygon fill="#191970" stroke="#191970" points="190.1543,-21.9244 199.7655,-17.4663 189.4719,-14.9577 190.1543,-21.9244"/>
</g>
</g>
</svg>
