<?xml version="1.0" encoding="UTF-8" standalone="no"?>
<!DOCTYPE svg PUBLIC "-//W3C//DTD SVG 1.1//EN"
 "http://www.w3.org/Graphics/SVG/1.1/DTD/svg11.dtd">
<!-- Generated by graphviz version 2.40.1 (20161225.0304)
 -->
<!-- Title: FloStringList Pages: 1 -->
<svg width="164pt" height="193pt"
 viewBox="0.00 0.00 164.00 193.00" xmlns="http://www.w3.org/2000/svg" xmlns:xlink="http://www.w3.org/1999/xlink">
<g id="graph0" class="graph" transform="scale(1 1) rotate(0) translate(4 189)">
<title>FloStringList</title>
<polygon fill="#ffffff" stroke="transparent" points="-4,4 -4,-189 160,-189 160,4 -4,4"/>
<!-- Node1 -->
<g id="node1" class="node">
<title>Node1</title>
<polygon fill="#bfbfbf" stroke="#000000" points="0,-.5 0,-68.5 104,-68.5 104,-.5 0,-.5"/>
<text text-anchor="middle" x="52" y="-56.5" font-family="Helvetica,sans-Serif" font-size="10.00" fill="#000000">FloStringList</text>
<polyline fill="none" stroke="#000000" points="0,-49.5 104,-49.5 "/>
<text text-anchor="middle" x="52" y="-37.5" font-family="Helvetica,sans-Serif" font-size="10.00" fill="#000000"> </text>
<polyline fill="none" stroke="#000000" points="0,-30.5 104,-30.5 "/>
<text text-anchor="start" x="8" y="-18.5" font-family="Helvetica,sans-Serif" font-size="10.00" fill="#000000">+ FloStringList()</text>
<text text-anchor="start" x="8" y="-7.5" font-family="Helvetica,sans-Serif" font-size="10.00" fill="#000000">+ ~FloStringList()</text>
</g>
<!-- Node1&#45;&gt;Node1 -->
<g id="edge2" class="edge">
<title>Node1&#45;&gt;Node1</title>
<path fill="none" stroke="#404040" d="M104.2024,-45.6454C114.5916,-44.3909 122,-40.6758 122,-34.5 122,-31.1226 119.7843,-28.4812 116.0772,-26.5756"/>
<polygon fill="none" stroke="#404040" points="115.7839,-26.4961 108.946,-28.7859 104.2024,-23.3546 111.0403,-21.0649 115.7839,-26.4961"/>
<text text-anchor="middle" x="139" y="-32" font-family="Helvetica,sans-Serif" font-size="10.00" fill="#000000"> +next</text>
</g>
<!-- Node2 -->
<g id="node2" class="node">
<title>Node2</title>
<polygon fill="#ffffff" stroke="#bfbfbf" points="33,-127.5 33,-184.5 71,-184.5 71,-127.5 33,-127.5"/>
<text text-anchor="middle" x="52" y="-172.5" font-family="Helvetica,sans-Serif" font-size="10.00" fill="#000000">char</text>
<polyline fill="none" stroke="#bfbfbf" points="33,-165.5 71,-165.5 "/>
<text text-anchor="middle" x="52" y="-153.5" font-family="Helvetica,sans-Serif" font-size="10.00" fill="#000000"> </text>
<polyline fill="none" stroke="#bfbfbf" points="33,-146.5 71,-146.5 "/>
<text text-anchor="middle" x="52" y="-134.5" font-family="Helvetica,sans-Serif" font-size="10.00" fill="#000000"> </text>
</g>
<!-- Node2&#45;&gt;Node1 -->
<g id="edge1" class="edge">
<title>Node2&#45;&gt;Node1</title>
<path fill="none" stroke="#404040" d="M52,-127.2062C52,-113.3632 52,-96.4255 52,-80.8327"/>
<polygon fill="none" stroke="#404040" points="52.0001,-80.7007 48,-74.7008 52,-68.7007 56,-74.7007 52.0001,-80.7007"/>
<text text-anchor="middle" x="66" y="-101" font-family="Helvetica,sans-Serif" font-size="10.00" fill="#000000"> +str</text>
<text text-anchor="middle" x="66" y="-90" font-family="Helvetica,sans-Serif" font-size="10.00" fill="#000000">+str2</text>
</g>
</g>
</svg>
