<?xml version="1.0" encoding="UTF-8" standalone="no"?>
<!DOCTYPE svg PUBLIC "-//W3C//DTD SVG 1.1//EN"
 "http://www.w3.org/Graphics/SVG/1.1/DTD/svg11.dtd">
<!-- Generated by graphviz version 2.40.1 (20161225.0304)
 -->
<!-- Title: LoopManager::SaveLoop Pages: 1 -->
<svg width="680pt" height="164pt"
 viewBox="0.00 0.00 680.00 164.00" xmlns="http://www.w3.org/2000/svg" xmlns:xlink="http://www.w3.org/1999/xlink">
<g id="graph0" class="graph" transform="scale(1 1) rotate(0) translate(4 160)">
<title>LoopManager::SaveLoop</title>
<polygon fill="#ffffff" stroke="transparent" points="-4,4 -4,-160 676,-160 676,4 -4,4"/>
<!-- Node939 -->
<g id="node1" class="node">
<title>Node939</title>
<polygon fill="#bfbfbf" stroke="#000000" points="0,-98.5 0,-117.5 135,-117.5 135,-98.5 0,-98.5"/>
<text text-anchor="middle" x="67.5" y="-105.5" font-family="Helvetica,sans-Serif" font-size="10.00" fill="#000000">LoopManager::SaveLoop</text>
</g>
<!-- Node940 -->
<g id="node2" class="node">
<title>Node940</title>
<g id="a_node2"><a xlink:href="classFweelin.html#a10bb364ecf38990653b49a98c5a89c90" target="_top" xlink:title="Fweelin::getTMAP">
<polygon fill="#ffffff" stroke="#000000" points="176,-136.5 176,-155.5 279,-155.5 279,-136.5 176,-136.5"/>
<text text-anchor="middle" x="227.5" y="-143.5" font-family="Helvetica,sans-Serif" font-size="10.00" fill="#000000">Fweelin::getTMAP</text>
</a>
</g>
</g>
<!-- Node939&#45;&gt;Node940 -->
<g id="edge1" class="edge">
<title>Node939&#45;&gt;Node940</title>
<path fill="none" stroke="#191970" d="M107.8748,-117.589C128.9885,-122.6035 155.0287,-128.7881 177.4169,-134.1053"/>
<polygon fill="#191970" stroke="#191970" points="176.8774,-137.5744 187.4156,-136.4799 178.495,-130.7639 176.8774,-137.5744"/>
</g>
<!-- Node941 -->
<g id="node3" class="node">
<title>Node941</title>
<g id="a_node3"><a xlink:href="classTriggerMap.html#aca3f85b40f3aa29a280c2d7511b84217" target="_top" xlink:title="TriggerMap::GetMap">
<polygon fill="#ffffff" stroke="#000000" points="171,-98.5 171,-117.5 284,-117.5 284,-98.5 171,-98.5"/>
<text text-anchor="middle" x="227.5" y="-105.5" font-family="Helvetica,sans-Serif" font-size="10.00" fill="#000000">TriggerMap::GetMap</text>
</a>
</g>
</g>
<!-- Node939&#45;&gt;Node941 -->
<g id="edge2" class="edge">
<title>Node939&#45;&gt;Node941</title>
<path fill="none" stroke="#191970" d="M135.3544,-108C143.7106,-108 152.2477,-108 160.5897,-108"/>
<polygon fill="#191970" stroke="#191970" points="160.643,-111.5001 170.643,-108 160.643,-104.5001 160.643,-111.5001"/>
</g>
<!-- Node942 -->
<g id="node4" class="node">
<title>Node942</title>
<g id="a_node4"><a xlink:href="classLoop.html#a53ccedecccce6659493d58c3ff6750b9" target="_top" xlink:title="Loop::Save">
<polygon fill="#ffffff" stroke="#000000" points="192.5,-60.5 192.5,-79.5 262.5,-79.5 262.5,-60.5 192.5,-60.5"/>
<text text-anchor="middle" x="227.5" y="-67.5" font-family="Helvetica,sans-Serif" font-size="10.00" fill="#000000">Loop::Save</text>
</a>
</g>
</g>
<!-- Node939&#45;&gt;Node942 -->
<g id="edge3" class="edge">
<title>Node939&#45;&gt;Node942</title>
<path fill="none" stroke="#191970" d="M107.8748,-98.411C130.5352,-93.0292 158.8702,-86.2996 182.2748,-80.741"/>
<polygon fill="#191970" stroke="#191970" points="183.3863,-84.0744 192.3069,-78.3584 181.7687,-77.2639 183.3863,-84.0744"/>
</g>
<!-- Node943 -->
<g id="node5" class="node">
<title>Node943</title>
<g id="a_node5"><a xlink:href="classFweelin.html#a7b1253ea49ee57244a0d8cca152d72e5" target="_top" xlink:title="Fweelin::getLOOPMGR">
<polygon fill="#ffffff" stroke="#000000" points="339.5,-82.5 339.5,-101.5 464.5,-101.5 464.5,-82.5 339.5,-82.5"/>
<text text-anchor="middle" x="402" y="-89.5" font-family="Helvetica,sans-Serif" font-size="10.00" fill="#000000">Fweelin::getLOOPMGR</text>
</a>
</g>
</g>
<!-- Node942&#45;&gt;Node943 -->
<g id="edge4" class="edge">
<title>Node942&#45;&gt;Node943</title>
<path fill="none" stroke="#191970" d="M262.8127,-74.452C281.8979,-76.8582 306.196,-79.9216 329.1309,-82.8131"/>
<polygon fill="#191970" stroke="#191970" points="328.8425,-86.3043 339.2018,-84.0828 329.7182,-79.3593 328.8425,-86.3043"/>
</g>
<!-- Node944 -->
<g id="node6" class="node">
<title>Node944</title>
<g id="a_node6"><a xlink:href="classLoopManager.html#afe9ad41d77128fff90501c3a15c76b34" target="_top" xlink:title="LoopManager::AddLoopToSave\lQueue">
<polygon fill="#ffffff" stroke="#000000" points="320,-33 320,-63 484,-63 484,-33 320,-33"/>
<text text-anchor="start" x="328" y="-51" font-family="Helvetica,sans-Serif" font-size="10.00" fill="#000000">LoopManager::AddLoopToSave</text>
<text text-anchor="middle" x="402" y="-40" font-family="Helvetica,sans-Serif" font-size="10.00" fill="#000000">Queue</text>
</a>
</g>
</g>
<!-- Node942&#45;&gt;Node944 -->
<g id="edge5" class="edge">
<title>Node942&#45;&gt;Node944</title>
<path fill="none" stroke="#191970" d="M262.8127,-65.548C276.503,-63.822 292.8757,-61.7578 309.5033,-59.6615"/>
<polygon fill="#191970" stroke="#191970" points="310.384,-63.0782 319.8677,-58.3548 309.5084,-56.1332 310.384,-63.0782"/>
</g>
<!-- Node945 -->
<g id="node7" class="node">
<title>Node945</title>
<g id="a_node7"><a xlink:href="classSaveable.html#adc2366ae4f62d203d464879f189e499d" target="_top" xlink:title="Saveable::GetSaveStatus">
<polygon fill="#ffffff" stroke="#000000" points="526,-76.5 526,-95.5 666,-95.5 666,-76.5 526,-76.5"/>
<text text-anchor="middle" x="596" y="-83.5" font-family="Helvetica,sans-Serif" font-size="10.00" fill="#000000">Saveable::GetSaveStatus</text>
</a>
</g>
</g>
<!-- Node944&#45;&gt;Node945 -->
<g id="edge6" class="edge">
<title>Node944&#45;&gt;Node945</title>
<path fill="none" stroke="#191970" d="M478.6739,-63.0186C498.2443,-66.852 518.9704,-70.9117 537.4689,-74.5352"/>
<polygon fill="#191970" stroke="#191970" points="537.009,-78.0115 547.4953,-76.4991 538.3546,-71.142 537.009,-78.0115"/>
</g>
<!-- Node946 -->
<g id="node8" class="node">
<title>Node946</title>
<g id="a_node8"><a xlink:href="classEvent.html#aa67af0ae99b897e4f0ce42068c4e4c00" target="_top" xlink:title="Event::GetEventByType">
<polygon fill="#ffffff" stroke="#000000" points="530.5,-38.5 530.5,-57.5 661.5,-57.5 661.5,-38.5 530.5,-38.5"/>
<text text-anchor="middle" x="596" y="-45.5" font-family="Helvetica,sans-Serif" font-size="10.00" fill="#000000">Event::GetEventByType</text>
</a>
</g>
</g>
<!-- Node944&#45;&gt;Node946 -->
<g id="edge7" class="edge">
<title>Node944&#45;&gt;Node946</title>
<path fill="none" stroke="#191970" d="M484.2735,-48C496.1746,-48 508.3786,-48 520.1461,-48"/>
<polygon fill="#191970" stroke="#191970" points="520.3564,-51.5001 530.3564,-48 520.3563,-44.5001 520.3564,-51.5001"/>
</g>
<!-- Node947 -->
<g id="node9" class="node">
<title>Node947</title>
<g id="a_node9"><a xlink:href="classEventManager.html#a215075d1cc20ee7e2d55e9bb54ca516f" target="_top" xlink:title="EventManager::QueueEvent">
<polygon fill="#ffffff" stroke="#000000" points="520,-.5 520,-19.5 672,-19.5 672,-.5 520,-.5"/>
<text text-anchor="middle" x="596" y="-7.5" font-family="Helvetica,sans-Serif" font-size="10.00" fill="#000000">EventManager::QueueEvent</text>
</a>
</g>
</g>
<!-- Node944&#45;&gt;Node947 -->
<g id="edge8" class="edge">
<title>Node944&#45;&gt;Node947</title>
<path fill="none" stroke="#191970" d="M478.6739,-32.9814C498.2443,-29.148 518.9704,-25.0883 537.4689,-21.4648"/>
<polygon fill="#191970" stroke="#191970" points="538.3546,-24.858 547.4953,-19.5009 537.009,-17.9885 538.3546,-24.858"/>
</g>
</g>
</svg>
