<?xml version="1.0" encoding="UTF-8" standalone="no"?>
<!DOCTYPE svg PUBLIC "-//W3C//DTD SVG 1.1//EN"
 "http://www.w3.org/Graphics/SVG/1.1/DTD/svg11.dtd">
<!-- Generated by graphviz version 2.40.1 (20161225.0304)
 -->
<!-- Title: AudioBlock::HackTotalLengthBy Pages: 1 -->
<svg width="896pt" height="268pt"
 viewBox="0.00 0.00 896.00 267.50" xmlns="http://www.w3.org/2000/svg" xmlns:xlink="http://www.w3.org/1999/xlink">
<g id="graph0" class="graph" transform="scale(1 1) rotate(0) translate(4 263.5)">
<title>AudioBlock::HackTotalLengthBy</title>
<polygon fill="#ffffff" stroke="transparent" points="-4,4 -4,-263.5 892,-263.5 892,4 -4,4"/>
<!-- Node115 -->
<g id="node1" class="node">
<title>Node115</title>
<polygon fill="#bfbfbf" stroke="#000000" points="0,-95.5 0,-114.5 171,-114.5 171,-95.5 0,-95.5"/>
<text text-anchor="middle" x="85.5" y="-102.5" font-family="Helvetica,sans-Serif" font-size="10.00" fill="#000000">AudioBlock::HackTotalLengthBy</text>
</g>
<!-- Node116 -->
<g id="node2" class="node">
<title>Node116</title>
<g id="a_node2"><a xlink:href="classAudioBlock.html#a09c778d19d7d45dbb68951fabff2f518" target="_top" xlink:title="AudioBlock::Smooth">
<polygon fill="#ffffff" stroke="#000000" points="207,-95.5 207,-114.5 322,-114.5 322,-95.5 207,-95.5"/>
<text text-anchor="middle" x="264.5" y="-102.5" font-family="Helvetica,sans-Serif" font-size="10.00" fill="#000000">AudioBlock::Smooth</text>
</a>
</g>
</g>
<!-- Node115&#45;&gt;Node116 -->
<g id="edge1" class="edge">
<title>Node115&#45;&gt;Node116</title>
<path fill="none" stroke="#191970" d="M181.3096,-105C190.0195,-105 198.6493,-105 206.8669,-105"/>
<polygon fill="#191970" stroke="#191970" points="181.0681,-101.5001 171.068,-105 181.068,-108.5001 181.0681,-101.5001"/>
</g>
<!-- Node117 -->
<g id="node3" class="node">
<title>Node117</title>
<g id="a_node3"><a xlink:href="classBlockReadManager.html#a0956beb932559fdea3ecca152db2bd0a" target="_top" xlink:title="BlockReadManager::End">
<polygon fill="#ffffff" stroke="#000000" points="362.5,-152.5 362.5,-171.5 496.5,-171.5 496.5,-152.5 362.5,-152.5"/>
<text text-anchor="middle" x="429.5" y="-159.5" font-family="Helvetica,sans-Serif" font-size="10.00" fill="#000000">BlockReadManager::End</text>
</a>
</g>
</g>
<!-- Node116&#45;&gt;Node117 -->
<g id="edge2" class="edge">
<title>Node116&#45;&gt;Node117</title>
<path fill="none" stroke="#191970" d="M301.9245,-117.9285C332.2842,-128.4164 374.3956,-142.9639 401.7926,-152.4284"/>
<polygon fill="#191970" stroke="#191970" points="302.712,-114.4976 292.1173,-114.5405 300.4264,-121.114 302.712,-114.4976"/>
</g>
<!-- Node122 -->
<g id="node8" class="node">
<title>Node122</title>
<g id="a_node8"><a xlink:href="classRecordProcessor.html#a9984f573bbc265321ad0604f97b23820" target="_top" xlink:title="RecordProcessor::EndNow">
<polygon fill="#ffffff" stroke="#000000" points="358,-57.5 358,-76.5 501,-76.5 501,-57.5 358,-57.5"/>
<text text-anchor="middle" x="429.5" y="-64.5" font-family="Helvetica,sans-Serif" font-size="10.00" fill="#000000">RecordProcessor::EndNow</text>
</a>
</g>
</g>
<!-- Node116&#45;&gt;Node122 -->
<g id="edge8" class="edge">
<title>Node116&#45;&gt;Node122</title>
<path fill="none" stroke="#191970" d="M316.154,-93.1039C339.3465,-87.7626 366.3383,-81.5463 388.1629,-76.5201"/>
<polygon fill="#191970" stroke="#191970" points="315.0959,-89.7559 306.1365,-95.411 316.6669,-96.5774 315.0959,-89.7559"/>
</g>
<!-- Node118 -->
<g id="node4" class="node">
<title>Node118</title>
<g id="a_node4"><a xlink:href="classBlockReadManager.html#a935aa663d9fa5b6d346f77c7b3882e2b" target="_top" xlink:title="BlockReadManager::\l~BlockReadManager">
<polygon fill="#ffffff" stroke="#000000" points="558.5,-229 558.5,-259 676.5,-259 676.5,-229 558.5,-229"/>
<text text-anchor="start" x="566.5" y="-247" font-family="Helvetica,sans-Serif" font-size="10.00" fill="#000000">BlockReadManager::</text>
<text text-anchor="middle" x="617.5" y="-236" font-family="Helvetica,sans-Serif" font-size="10.00" fill="#000000">~BlockReadManager</text>
</a>
</g>
</g>
<!-- Node117&#45;&gt;Node118 -->
<g id="edge3" class="edge">
<title>Node117&#45;&gt;Node118</title>
<path fill="none" stroke="#191970" d="M454.1836,-176.7904C475.5688,-189.1863 507.6087,-206.7696 537,-219 545.6471,-222.5982 555.0019,-225.9599 564.1701,-228.9783"/>
<polygon fill="#191970" stroke="#191970" points="455.8301,-173.6986 445.4328,-171.6622 452.2909,-179.738 455.8301,-173.6986"/>
</g>
<!-- Node119 -->
<g id="node5" class="node">
<title>Node119</title>
<g id="a_node5"><a xlink:href="classBlockReadManager.html#af12804c61f944904eedf8c9edf5cd3bd" target="_top" xlink:title="BlockReadManager::Start">
<polygon fill="#ffffff" stroke="#000000" points="548,-190.5 548,-209.5 687,-209.5 687,-190.5 548,-190.5"/>
<text text-anchor="middle" x="617.5" y="-197.5" font-family="Helvetica,sans-Serif" font-size="10.00" fill="#000000">BlockReadManager::Start</text>
</a>
</g>
</g>
<!-- Node117&#45;&gt;Node119 -->
<g id="edge4" class="edge">
<title>Node117&#45;&gt;Node119</title>
<path fill="none" stroke="#191970" d="M486.9365,-173.6095C513.6744,-179.014 545.0879,-185.3635 570.4008,-190.4799"/>
<polygon fill="#191970" stroke="#191970" points="487.4356,-170.1397 476.9403,-171.589 486.0487,-177.0009 487.4356,-170.1397"/>
</g>
<!-- Node120 -->
<g id="node6" class="node">
<title>Node120</title>
<g id="a_node6"><a xlink:href="classBlockReadManager.html#aa990976dec4a3ec5bd6384b54ce5f09b" target="_top" xlink:title="BlockReadManager::Manage">
<polygon fill="#ffffff" stroke="#000000" points="734,-171.5 734,-190.5 888,-190.5 888,-171.5 734,-171.5"/>
<text text-anchor="middle" x="811" y="-178.5" font-family="Helvetica,sans-Serif" font-size="10.00" fill="#000000">BlockReadManager::Manage</text>
</a>
</g>
</g>
<!-- Node117&#45;&gt;Node120 -->
<g id="edge6" class="edge">
<title>Node117&#45;&gt;Node120</title>
<path fill="none" stroke="#191970" d="M507.1896,-165.8692C573.333,-169.1634 667.8544,-173.8709 733.8444,-177.1574"/>
<polygon fill="#191970" stroke="#191970" points="506.9881,-162.3549 496.8264,-165.3531 506.6399,-169.3463 506.9881,-162.3549"/>
</g>
<!-- Node121 -->
<g id="node7" class="node">
<title>Node121</title>
<g id="a_node7"><a xlink:href="classLoopManager.html#aadca58536e41c8b0b8fd148ac40b23c0" target="_top" xlink:title="LoopManager::~LoopManager">
<polygon fill="#ffffff" stroke="#000000" points="537,-114.5 537,-133.5 698,-133.5 698,-114.5 537,-114.5"/>
<text text-anchor="middle" x="617.5" y="-121.5" font-family="Helvetica,sans-Serif" font-size="10.00" fill="#000000">LoopManager::~LoopManager</text>
</a>
</g>
</g>
<!-- Node117&#45;&gt;Node121 -->
<g id="edge7" class="edge">
<title>Node117&#45;&gt;Node121</title>
<path fill="none" stroke="#191970" d="M486.9365,-150.3905C513.6744,-144.986 545.0879,-138.6365 570.4008,-133.5201"/>
<polygon fill="#191970" stroke="#191970" points="486.0487,-146.9991 476.9403,-152.411 487.4356,-153.8603 486.0487,-146.9991"/>
</g>
<!-- Node119&#45;&gt;Node120 -->
<g id="edge5" class="edge">
<title>Node119&#45;&gt;Node120</title>
<path fill="none" stroke="#191970" d="M697.1609,-192.178C709.2806,-190.9879 721.7699,-189.7616 733.8351,-188.5769"/>
<polygon fill="#191970" stroke="#191970" points="696.6946,-188.7069 687.0846,-193.1674 697.3788,-195.6734 696.6946,-188.7069"/>
</g>
<!-- Node123 -->
<g id="node9" class="node">
<title>Node123</title>
<g id="a_node9"><a xlink:href="classRecordProcessor.html#a6168d8dc850602a348dc74ab1224263a" target="_top" xlink:title="RecordProcessor::PulseSync">
<polygon fill="#ffffff" stroke="#000000" points="541.5,-76.5 541.5,-95.5 693.5,-95.5 693.5,-76.5 541.5,-76.5"/>
<text text-anchor="middle" x="617.5" y="-83.5" font-family="Helvetica,sans-Serif" font-size="10.00" fill="#000000">RecordProcessor::PulseSync</text>
</a>
</g>
</g>
<!-- Node122&#45;&gt;Node123 -->
<g id="edge9" class="edge">
<title>Node122&#45;&gt;Node123</title>
<path fill="none" stroke="#191970" d="M511.0942,-75.2462C521.1593,-76.2634 531.4175,-77.3002 541.3963,-78.3087"/>
<polygon fill="#191970" stroke="#191970" points="511.4123,-71.7606 501.111,-74.2373 510.7084,-78.7252 511.4123,-71.7606"/>
</g>
<!-- Node124 -->
<g id="node10" class="node">
<title>Node124</title>
<g id="a_node10"><a xlink:href="classRecordProcessor.html#ab035edfb707f8f1066b3597df7ddda7d" target="_top" xlink:title="RecordProcessor::End">
<polygon fill="#ffffff" stroke="#000000" points="557,-38.5 557,-57.5 678,-57.5 678,-38.5 557,-38.5"/>
<text text-anchor="middle" x="617.5" y="-45.5" font-family="Helvetica,sans-Serif" font-size="10.00" fill="#000000">RecordProcessor::End</text>
</a>
</g>
</g>
<!-- Node122&#45;&gt;Node124 -->
<g id="edge10" class="edge">
<title>Node122&#45;&gt;Node124</title>
<path fill="none" stroke="#191970" d="M511.1116,-58.752C526.4547,-57.2014 542.246,-55.6055 556.8116,-54.1334"/>
<polygon fill="#191970" stroke="#191970" points="510.7084,-55.2748 501.111,-59.7627 511.4123,-62.2394 510.7084,-55.2748"/>
</g>
<!-- Node125 -->
<g id="node11" class="node">
<title>Node125</title>
<g id="a_node11"><a xlink:href="classRecordProcessor.html#ad36d69ec9d41b424eb2e6c5fa2e0cf3a" target="_top" xlink:title="RecordProcessor::process">
<polygon fill="#ffffff" stroke="#000000" points="547.5,-.5 547.5,-19.5 687.5,-19.5 687.5,-.5 547.5,-.5"/>
<text text-anchor="middle" x="617.5" y="-7.5" font-family="Helvetica,sans-Serif" font-size="10.00" fill="#000000">RecordProcessor::process</text>
</a>
</g>
</g>
<!-- Node122&#45;&gt;Node125 -->
<g id="edge11" class="edge">
<title>Node122&#45;&gt;Node125</title>
<path fill="none" stroke="#191970" d="M463.4603,-53.9356C484.4619,-46.1221 512.0789,-36.3224 537,-29 548.7107,-25.5591 561.5195,-22.3085 573.4061,-19.5012"/>
<polygon fill="#191970" stroke="#191970" points="462.1489,-50.6894 454.017,-57.4808 464.6091,-57.2428 462.1489,-50.6894"/>
</g>
</g>
</svg>
