<?xml version="1.0" encoding="UTF-8" standalone="no"?>
<!DOCTYPE svg PUBLIC "-//W3C//DTD SVG 1.1//EN"
 "http://www.w3.org/Graphics/SVG/1.1/DTD/svg11.dtd">
<!-- Generated by graphviz version 2.40.1 (20161225.0304)
 -->
<!-- Title: Fweelin::getPRE_EXTRACHANNEL Pages: 1 -->
<svg width="596pt" height="66pt"
 viewBox="0.00 0.00 596.00 66.00" xmlns="http://www.w3.org/2000/svg" xmlns:xlink="http://www.w3.org/1999/xlink">
<g id="graph0" class="graph" transform="scale(1 1) rotate(0) translate(4 62)">
<title>Fweelin::getPRE_EXTRACHANNEL</title>
<polygon fill="#ffffff" stroke="transparent" points="-4,4 -4,-62 592,-62 592,4 -4,4"/>
<!-- Node382 -->
<g id="node1" class="node">
<title>Node382</title>
<polygon fill="#bfbfbf" stroke="#000000" points="0,-19.5 0,-38.5 179,-38.5 179,-19.5 0,-19.5"/>
<text text-anchor="middle" x="89.5" y="-26.5" font-family="Helvetica,sans-Serif" font-size="10.00" fill="#000000">Fweelin::getPRE_EXTRACHANNEL</text>
</g>
<!-- Node383 -->
<g id="node2" class="node">
<title>Node383</title>
<g id="a_node2"><a xlink:href="classBlockReadManager.html#af12804c61f944904eedf8c9edf5cd3bd" target="_top" xlink:title="BlockReadManager::Start">
<polygon fill="#ffffff" stroke="#000000" points="237,-38.5 237,-57.5 376,-57.5 376,-38.5 237,-38.5"/>
<text text-anchor="middle" x="306.5" y="-45.5" font-family="Helvetica,sans-Serif" font-size="10.00" fill="#000000">BlockReadManager::Start</text>
</a>
</g>
</g>
<!-- Node382&#45;&gt;Node383 -->
<g id="edge1" class="edge">
<title>Node382&#45;&gt;Node383</title>
<path fill="none" stroke="#191970" d="M189.0079,-37.7127C205.1331,-39.1246 221.5251,-40.5598 236.7459,-41.8925"/>
<polygon fill="#191970" stroke="#191970" points="189.2822,-34.2234 179.015,-36.8377 188.6716,-41.1967 189.2822,-34.2234"/>
</g>
<!-- Node385 -->
<g id="node4" class="node">
<title>Node385</title>
<g id="a_node4"><a xlink:href="classRecordProcessor.html#a1aea5f833c59a12398b05b514b26b572" target="_top" xlink:title="RecordProcessor::RecordProcessor">
<polygon fill="#ffffff" stroke="#000000" points="215,-.5 215,-19.5 398,-19.5 398,-.5 215,-.5"/>
<text text-anchor="middle" x="306.5" y="-7.5" font-family="Helvetica,sans-Serif" font-size="10.00" fill="#000000">RecordProcessor::RecordProcessor</text>
</a>
</g>
</g>
<!-- Node382&#45;&gt;Node385 -->
<g id="edge3" class="edge">
<title>Node382&#45;&gt;Node385</title>
<path fill="none" stroke="#191970" d="M189.0245,-20.2859C197.5915,-19.5358 206.2337,-18.7791 214.7354,-18.0347"/>
<polygon fill="#191970" stroke="#191970" points="188.6716,-16.8033 179.015,-21.1623 189.2822,-23.7766 188.6716,-16.8033"/>
</g>
<!-- Node384 -->
<g id="node3" class="node">
<title>Node384</title>
<g id="a_node3"><a xlink:href="classBlockReadManager.html#aa990976dec4a3ec5bd6384b54ce5f09b" target="_top" xlink:title="BlockReadManager::Manage">
<polygon fill="#ffffff" stroke="#000000" points="434,-38.5 434,-57.5 588,-57.5 588,-38.5 434,-38.5"/>
<text text-anchor="middle" x="511" y="-45.5" font-family="Helvetica,sans-Serif" font-size="10.00" fill="#000000">BlockReadManager::Manage</text>
</a>
</g>
</g>
<!-- Node383&#45;&gt;Node384 -->
<g id="edge2" class="edge">
<title>Node383&#45;&gt;Node384</title>
<path fill="none" stroke="#191970" d="M386.2097,-48C401.9047,-48 418.3454,-48 433.9508,-48"/>
<polygon fill="#191970" stroke="#191970" points="386.0198,-44.5001 376.0197,-48 386.0197,-51.5001 386.0198,-44.5001"/>
</g>
</g>
</svg>
