<?xml version="1.0" encoding="UTF-8" standalone="no"?>
<!DOCTYPE svg PUBLIC "-//W3C//DTD SVG 1.1//EN"
 "http://www.w3.org/Graphics/SVG/1.1/DTD/svg11.dtd">
<!-- Generated by graphviz version 2.40.1 (20161225.0304)
 -->
<!-- Title: AudioIO::getbufsz Pages: 1 -->
<svg width="480pt" height="66pt"
 viewBox="0.00 0.00 480.00 66.00" xmlns="http://www.w3.org/2000/svg" xmlns:xlink="http://www.w3.org/1999/xlink">
<g id="graph0" class="graph" transform="scale(1 1) rotate(0) translate(4 62)">
<title>AudioIO::getbufsz</title>
<polygon fill="#ffffff" stroke="transparent" points="-4,4 -4,-62 476,-62 476,4 -4,4"/>
<!-- Node61 -->
<g id="node1" class="node">
<title>Node61</title>
<polygon fill="#bfbfbf" stroke="#000000" points="0,-19.5 0,-38.5 103,-38.5 103,-19.5 0,-19.5"/>
<text text-anchor="middle" x="51.5" y="-26.5" font-family="Helvetica,sans-Serif" font-size="10.00" fill="#000000">AudioIO::getbufsz</text>
</g>
<!-- Node62 -->
<g id="node2" class="node">
<title>Node62</title>
<g id="a_node2"><a xlink:href="classAudioIO.html#a012ce924f59ced78f2fac75e6e33b55c" target="_top" xlink:title="AudioIO::AudioIO">
<polygon fill="#ffffff" stroke="#000000" points="169.5,-38.5 169.5,-57.5 268.5,-57.5 268.5,-38.5 169.5,-38.5"/>
<text text-anchor="middle" x="219" y="-45.5" font-family="Helvetica,sans-Serif" font-size="10.00" fill="#000000">AudioIO::AudioIO</text>
</a>
</g>
</g>
<!-- Node61&#45;&gt;Node62 -->
<g id="edge1" class="edge">
<title>Node61&#45;&gt;Node62</title>
<path fill="none" stroke="#191970" d="M113.1987,-35.9987C131.6666,-38.0935 151.6749,-40.3631 169.2696,-42.3589"/>
<polygon fill="#191970" stroke="#191970" points="113.4531,-32.5052 103.1223,-34.8557 112.664,-39.4605 113.4531,-32.5052"/>
</g>
<!-- Node63 -->
<g id="node3" class="node">
<title>Node63</title>
<g id="a_node3"><a xlink:href="classOSCClient.html#acbb974bf11667aa6fb48c111ae14a4fe" target="_top" xlink:title="OSCClient::SendPlayingLoops">
<polygon fill="#ffffff" stroke="#000000" points="139,-.5 139,-19.5 299,-19.5 299,-.5 139,-.5"/>
<text text-anchor="middle" x="219" y="-7.5" font-family="Helvetica,sans-Serif" font-size="10.00" fill="#000000">OSCClient::SendPlayingLoops</text>
</a>
</g>
</g>
<!-- Node61&#45;&gt;Node63 -->
<g id="edge2" class="edge">
<title>Node61&#45;&gt;Node63</title>
<path fill="none" stroke="#191970" d="M113.1659,-22.0051C121.5495,-21.0541 130.2511,-20.067 138.9006,-19.0859"/>
<polygon fill="#191970" stroke="#191970" points="112.664,-18.5395 103.1223,-23.1443 113.4531,-25.4948 112.664,-18.5395"/>
</g>
<!-- Node64 -->
<g id="node4" class="node">
<title>Node64</title>
<g id="a_node4"><a xlink:href="classOSCClient.html#a8b38ea5b76702f9e763daeb694091116" target="_top" xlink:title="OSCClient::ReceiveEvent">
<polygon fill="#ffffff" stroke="#000000" points="335,-.5 335,-19.5 472,-19.5 472,-.5 335,-.5"/>
<text text-anchor="middle" x="403.5" y="-7.5" font-family="Helvetica,sans-Serif" font-size="10.00" fill="#000000">OSCClient::ReceiveEvent</text>
</a>
</g>
</g>
<!-- Node63&#45;&gt;Node64 -->
<g id="edge3" class="edge">
<title>Node63&#45;&gt;Node64</title>
<path fill="none" stroke="#191970" d="M309.1768,-10C317.7687,-10 326.3847,-10 334.7263,-10"/>
<polygon fill="#191970" stroke="#191970" points="309.1195,-6.5001 299.1195,-10 309.1194,-13.5001 309.1195,-6.5001"/>
</g>
</g>
</svg>
