<?xml version="1.0" encoding="UTF-8" standalone="no"?>
<!DOCTYPE svg PUBLIC "-//W3C//DTD SVG 1.1//EN"
 "http://www.w3.org/Graphics/SVG/1.1/DTD/svg11.dtd">
<!-- Generated by graphviz version 2.40.1 (20161225.0304)
 -->
<!-- Title: LoopSnapshot Pages: 1 -->
<svg width="191pt" height="182pt"
 viewBox="0.00 0.00 191.00 182.00" xmlns="http://www.w3.org/2000/svg" xmlns:xlink="http://www.w3.org/1999/xlink">
<g id="graph0" class="graph" transform="scale(1 1) rotate(0) translate(4 178)">
<title>LoopSnapshot</title>
<polygon fill="#ffffff" stroke="transparent" points="-4,4 -4,-178 187,-178 187,4 -4,4"/>
<!-- Node1 -->
<g id="node1" class="node">
<title>Node1</title>
<polygon fill="#bfbfbf" stroke="#000000" points="40,-.5 40,-57.5 144,-57.5 144,-.5 40,-.5"/>
<text text-anchor="middle" x="92" y="-45.5" font-family="Helvetica,sans-Serif" font-size="10.00" fill="#000000">LoopSnapshot</text>
<polyline fill="none" stroke="#000000" points="40,-38.5 144,-38.5 "/>
<text text-anchor="middle" x="92" y="-26.5" font-family="Helvetica,sans-Serif" font-size="10.00" fill="#000000"> </text>
<polyline fill="none" stroke="#000000" points="40,-19.5 144,-19.5 "/>
<text text-anchor="start" x="48" y="-7.5" font-family="Helvetica,sans-Serif" font-size="10.00" fill="#000000">+ LoopSnapshot()</text>
</g>
<!-- Node2 -->
<g id="node2" class="node">
<title>Node2</title>
<polygon fill="#ffffff" stroke="#bfbfbf" points="0,-116.5 0,-173.5 38,-173.5 38,-116.5 0,-116.5"/>
<text text-anchor="middle" x="19" y="-161.5" font-family="Helvetica,sans-Serif" font-size="10.00" fill="#000000">float</text>
<polyline fill="none" stroke="#bfbfbf" points="0,-154.5 38,-154.5 "/>
<text text-anchor="middle" x="19" y="-142.5" font-family="Helvetica,sans-Serif" font-size="10.00" fill="#000000"> </text>
<polyline fill="none" stroke="#bfbfbf" points="0,-135.5 38,-135.5 "/>
<text text-anchor="middle" x="19" y="-123.5" font-family="Helvetica,sans-Serif" font-size="10.00" fill="#000000"> </text>
</g>
<!-- Node2&#45;&gt;Node1 -->
<g id="edge1" class="edge">
<title>Node2&#45;&gt;Node1</title>
<path fill="none" stroke="#404040" d="M31.2896,-116.3159C37.2036,-103.5897 44.7902,-88.662 53,-76 54.8928,-73.0808 56.941,-70.1378 59.0739,-67.225"/>
<polygon fill="none" stroke="#404040" points="59.2275,-67.0254 59.7182,-59.831 66.5479,-57.5169 66.0572,-64.7113 59.2275,-67.0254"/>
<text text-anchor="middle" x="70.5" y="-90" font-family="Helvetica,sans-Serif" font-size="10.00" fill="#000000"> +l_vol</text>
<text text-anchor="middle" x="70.5" y="-79" font-family="Helvetica,sans-Serif" font-size="10.00" fill="#000000">+t_vol</text>
</g>
<!-- Node3 -->
<g id="node3" class="node">
<title>Node3</title>
<polygon fill="#ffffff" stroke="#bfbfbf" points="56.5,-116.5 56.5,-173.5 127.5,-173.5 127.5,-116.5 56.5,-116.5"/>
<text text-anchor="middle" x="92" y="-161.5" font-family="Helvetica,sans-Serif" font-size="10.00" fill="#000000">LoopStatus</text>
<polyline fill="none" stroke="#bfbfbf" points="56.5,-154.5 127.5,-154.5 "/>
<text text-anchor="middle" x="92" y="-142.5" font-family="Helvetica,sans-Serif" font-size="10.00" fill="#000000"> </text>
<polyline fill="none" stroke="#bfbfbf" points="56.5,-135.5 127.5,-135.5 "/>
<text text-anchor="middle" x="92" y="-123.5" font-family="Helvetica,sans-Serif" font-size="10.00" fill="#000000"> </text>
</g>
<!-- Node3&#45;&gt;Node1 -->
<g id="edge2" class="edge">
<title>Node3&#45;&gt;Node1</title>
<path fill="none" stroke="#404040" d="M92,-116.3258C92,-102.3834 92,-85.3727 92,-70.0815"/>
<polygon fill="none" stroke="#404040" points="92.0001,-69.7463 88,-63.7464 92,-57.7463 96,-63.7463 92.0001,-69.7463"/>
<text text-anchor="middle" x="113" y="-84.5" font-family="Helvetica,sans-Serif" font-size="10.00" fill="#000000"> +status</text>
</g>
<!-- Node4 -->
<g id="node4" class="node">
<title>Node4</title>
<polygon fill="#ffffff" stroke="#bfbfbf" points="145.5,-116.5 145.5,-173.5 174.5,-173.5 174.5,-116.5 145.5,-116.5"/>
<text text-anchor="middle" x="160" y="-161.5" font-family="Helvetica,sans-Serif" font-size="10.00" fill="#000000">int</text>
<polyline fill="none" stroke="#bfbfbf" points="145.5,-154.5 174.5,-154.5 "/>
<text text-anchor="middle" x="160" y="-142.5" font-family="Helvetica,sans-Serif" font-size="10.00" fill="#000000"> </text>
<polyline fill="none" stroke="#bfbfbf" points="145.5,-135.5 174.5,-135.5 "/>
<text text-anchor="middle" x="160" y="-123.5" font-family="Helvetica,sans-Serif" font-size="10.00" fill="#000000"> </text>
</g>
<!-- Node4&#45;&gt;Node1 -->
<g id="edge3" class="edge">
<title>Node4&#45;&gt;Node1</title>
<path fill="none" stroke="#404040" d="M154.0234,-116.199C150.5606,-103.3081 145.3897,-88.2819 138,-76 136.1182,-72.8724 133.9891,-69.7931 131.7037,-66.7986"/>
<polygon fill="none" stroke="#404040" points="131.6828,-66.7736 124.7651,-64.7374 123.9841,-57.5687 130.9017,-59.6049 131.6828,-66.7736"/>
<text text-anchor="middle" x="165.5" y="-84.5" font-family="Helvetica,sans-Serif" font-size="10.00" fill="#000000"> +l_idx</text>
</g>
</g>
</svg>
