<?xml version="1.0" encoding="UTF-8" standalone="no"?>
<!DOCTYPE svg PUBLIC "-//W3C//DTD SVG 1.1//EN"
 "http://www.w3.org/Graphics/SVG/1.1/DTD/svg11.dtd">
<!-- Generated by graphviz version 2.40.1 (20161225.0304)
 -->
<!-- Title: AudioBuffers::IsStereoMaster Pages: 1 -->
<svg width="363pt" height="66pt"
 viewBox="0.00 0.00 363.00 66.00" xmlns="http://www.w3.org/2000/svg" xmlns:xlink="http://www.w3.org/1999/xlink">
<g id="graph0" class="graph" transform="scale(1 1) rotate(0) translate(4 62)">
<title>AudioBuffers::IsStereoMaster</title>
<polygon fill="#ffffff" stroke="transparent" points="-4,4 -4,-62 359,-62 359,4 -4,4"/>
<!-- Node40 -->
<g id="node1" class="node">
<title>Node40</title>
<polygon fill="#bfbfbf" stroke="#000000" points="0,-19.5 0,-38.5 158,-38.5 158,-19.5 0,-19.5"/>
<text text-anchor="middle" x="79" y="-26.5" font-family="Helvetica,sans-Serif" font-size="10.00" fill="#000000">AudioBuffers::IsStereoMaster</text>
</g>
<!-- Node41 -->
<g id="node2" class="node">
<title>Node41</title>
<g id="a_node2"><a xlink:href="classProcessor.html#a2d113c5c4d42aad6cfd6db30614be629" target="_top" xlink:title="Processor::Processor">
<polygon fill="#ffffff" stroke="#000000" points="216,-38.5 216,-57.5 333,-57.5 333,-38.5 216,-38.5"/>
<text text-anchor="middle" x="274.5" y="-45.5" font-family="Helvetica,sans-Serif" font-size="10.00" fill="#000000">Processor::Processor</text>
</a>
</g>
</g>
<!-- Node40&#45;&gt;Node41 -->
<g id="edge1" class="edge">
<title>Node40&#45;&gt;Node41</title>
<path fill="none" stroke="#191970" d="M168.2406,-37.673C184.3998,-39.2435 200.8716,-40.8443 215.8715,-42.3021"/>
<polygon fill="#191970" stroke="#191970" points="168.5272,-34.1844 158.2355,-36.7006 167.85,-41.1516 168.5272,-34.1844"/>
</g>
<!-- Node42 -->
<g id="node3" class="node">
<title>Node42</title>
<g id="a_node3"><a xlink:href="classRootProcessor.html#aec5fac86449797c873b0c6a1c364309c" target="_top" xlink:title="RootProcessor::RootProcessor">
<polygon fill="#ffffff" stroke="#000000" points="194,-.5 194,-19.5 355,-19.5 355,-.5 194,-.5"/>
<text text-anchor="middle" x="274.5" y="-7.5" font-family="Helvetica,sans-Serif" font-size="10.00" fill="#000000">RootProcessor::RootProcessor</text>
</a>
</g>
</g>
<!-- Node40&#45;&gt;Node42 -->
<g id="edge2" class="edge">
<title>Node40&#45;&gt;Node42</title>
<path fill="none" stroke="#191970" d="M168.2205,-20.329C176.7741,-19.4977 185.4154,-18.6578 193.8799,-17.8352"/>
<polygon fill="#191970" stroke="#191970" points="167.85,-16.8484 158.2355,-21.2994 168.5272,-23.8156 167.85,-16.8484"/>
</g>
</g>
</svg>
