<?xml version="1.0" encoding="UTF-8" standalone="no"?>
<!DOCTYPE svg PUBLIC "-//W3C//DTD SVG 1.1//EN"
 "http://www.w3.org/Graphics/SVG/1.1/DTD/svg11.dtd">
<!-- Generated by graphviz version 2.40.1 (20161225.0304)
 -->
<!-- Title: FloLayoutElementGeometry::Inside Pages: 1 -->
<svg width="500pt" height="39pt"
 viewBox="0.00 0.00 500.00 39.00" xmlns="http://www.w3.org/2000/svg" xmlns:xlink="http://www.w3.org/1999/xlink">
<g id="graph0" class="graph" transform="scale(1 1) rotate(0) translate(4 35)">
<title>FloLayoutElementGeometry::Inside</title>
<polygon fill="#ffffff" stroke="transparent" points="-4,4 -4,-35 496,-35 496,4 -4,4"/>
<!-- Node9 -->
<g id="node1" class="node">
<title>Node9</title>
<polygon fill="#bfbfbf" stroke="#000000" points="0,-.5 0,-30.5 153,-30.5 153,-.5 0,-.5"/>
<text text-anchor="start" x="8" y="-18.5" font-family="Helvetica,sans-Serif" font-size="10.00" fill="#000000">FloLayoutElementGeometry</text>
<text text-anchor="middle" x="76.5" y="-7.5" font-family="Helvetica,sans-Serif" font-size="10.00" fill="#000000">::Inside</text>
</g>
<!-- Node10 -->
<g id="node2" class="node">
<title>Node10</title>
<g id="a_node2"><a xlink:href="classFloLayoutElement.html#a9db58f740fb624d6ccbbf249aa178064" target="_top" xlink:title="FloLayoutElement::Inside">
<polygon fill="#ffffff" stroke="#000000" points="189,-6 189,-25 329,-25 329,-6 189,-6"/>
<text text-anchor="middle" x="259" y="-13" font-family="Helvetica,sans-Serif" font-size="10.00" fill="#000000">FloLayoutElement::Inside</text>
</a>
</g>
</g>
<!-- Node9&#45;&gt;Node10 -->
<g id="edge1" class="edge">
<title>Node9&#45;&gt;Node10</title>
<path fill="none" stroke="#191970" d="M163.2066,-15.5C171.8504,-15.5 180.5487,-15.5 188.9902,-15.5"/>
<polygon fill="#191970" stroke="#191970" points="163.1032,-12.0001 153.1032,-15.5 163.1032,-19.0001 163.1032,-12.0001"/>
</g>
<!-- Node11 -->
<g id="node3" class="node">
<title>Node11</title>
<g id="a_node3"><a xlink:href="classVideoIO.html#a9204143b8f6947c0a2a7c0987a1decad" target="_top" xlink:title="VideoIO::ReceiveEvent">
<polygon fill="#ffffff" stroke="#000000" points="365,-6 365,-25 492,-25 492,-6 365,-6"/>
<text text-anchor="middle" x="428.5" y="-13" font-family="Helvetica,sans-Serif" font-size="10.00" fill="#000000">VideoIO::ReceiveEvent</text>
</a>
</g>
</g>
<!-- Node10&#45;&gt;Node11 -->
<g id="edge2" class="edge">
<title>Node10&#45;&gt;Node11</title>
<path fill="none" stroke="#191970" d="M339.6579,-15.5C348.0993,-15.5 356.595,-15.5 364.8089,-15.5"/>
<polygon fill="#191970" stroke="#191970" points="339.4108,-12.0001 329.4107,-15.5 339.4107,-19.0001 339.4108,-12.0001"/>
</g>
</g>
</svg>
