<?xml version="1.0" encoding="UTF-8" standalone="no"?>
<!DOCTYPE svg PUBLIC "-//W3C//DTD SVG 1.1//EN"
 "http://www.w3.org/Graphics/SVG/1.1/DTD/svg11.dtd">
<!-- Generated by graphviz version 2.40.1 (20161225.0304)
 -->
<!-- Title: MemoryManagerUpdate Pages: 1 -->
<svg width="1606pt" height="987pt"
 viewBox="0.00 0.00 1606.00 987.00" xmlns="http://www.w3.org/2000/svg" xmlns:xlink="http://www.w3.org/1999/xlink">
<g id="graph0" class="graph" transform="scale(1 1) rotate(0) translate(4 983)">
<title>MemoryManagerUpdate</title>
<polygon fill="#ffffff" stroke="transparent" points="-4,4 -4,-983 1602,-983 1602,4 -4,4"/>
<!-- Node1 -->
<g id="node1" class="node">
<title>Node1</title>
<polygon fill="#bfbfbf" stroke="#000000" points="169,-794.5 169,-873.5 321,-873.5 321,-794.5 169,-794.5"/>
<text text-anchor="middle" x="245" y="-861.5" font-family="Helvetica,sans-Serif" font-size="10.00" fill="#000000">MemoryManagerUpdate</text>
<polyline fill="none" stroke="#000000" points="169,-854.5 321,-854.5 "/>
<text text-anchor="middle" x="245" y="-842.5" font-family="Helvetica,sans-Serif" font-size="10.00" fill="#000000"> </text>
<polyline fill="none" stroke="#000000" points="169,-835.5 321,-835.5 "/>
<text text-anchor="start" x="177" y="-823.5" font-family="Helvetica,sans-Serif" font-size="10.00" fill="#000000">+ MemoryManagerUpdate()</text>
<text text-anchor="start" x="177" y="-812.5" font-family="Helvetica,sans-Serif" font-size="10.00" fill="#000000">+ MemoryManagerUpdate()</text>
<text text-anchor="start" x="177" y="-801.5" font-family="Helvetica,sans-Serif" font-size="10.00" fill="#000000">+ IsValid()</text>
</g>
<!-- Node12 -->
<g id="node12" class="node">
<title>Node12</title>
<g id="a_node12"><a xlink:href="classSRMWRingBuffer.html" target="_top" xlink:title="{SRMWRingBuffer\&lt; MemoryManager\lUpdate \&gt;\n||+ SRMWRingBuffer()\l+ ~SRMWRingBuffer()\l+ WriteElement()\l+ ReadElement()\l&#45; UpdateNumRWThreads()\l}">
<polygon fill="#ffffff" stroke="#000000" points="435.5,-634.5 435.5,-746.5 626.5,-746.5 626.5,-634.5 435.5,-634.5"/>
<text text-anchor="start" x="443.5" y="-734.5" font-family="Helvetica,sans-Serif" font-size="10.00" fill="#000000">SRMWRingBuffer&lt; MemoryManager</text>
<text text-anchor="middle" x="531" y="-723.5" font-family="Helvetica,sans-Serif" font-size="10.00" fill="#000000">Update &gt;</text>
<polyline fill="none" stroke="#000000" points="435.5,-716.5 626.5,-716.5 "/>
<text text-anchor="middle" x="531" y="-704.5" font-family="Helvetica,sans-Serif" font-size="10.00" fill="#000000"> </text>
<polyline fill="none" stroke="#000000" points="435.5,-697.5 626.5,-697.5 "/>
<text text-anchor="start" x="443.5" y="-685.5" font-family="Helvetica,sans-Serif" font-size="10.00" fill="#000000">+ SRMWRingBuffer()</text>
<text text-anchor="start" x="443.5" y="-674.5" font-family="Helvetica,sans-Serif" font-size="10.00" fill="#000000">+ ~SRMWRingBuffer()</text>
<text text-anchor="start" x="443.5" y="-663.5" font-family="Helvetica,sans-Serif" font-size="10.00" fill="#000000">+ WriteElement()</text>
<text text-anchor="start" x="443.5" y="-652.5" font-family="Helvetica,sans-Serif" font-size="10.00" fill="#000000">+ ReadElement()</text>
<text text-anchor="start" x="443.5" y="-641.5" font-family="Helvetica,sans-Serif" font-size="10.00" fill="#000000">&#45; UpdateNumRWThreads()</text>
</a>
</g>
</g>
<!-- Node1&#45;&gt;Node12 -->
<g id="edge17" class="edge">
<title>Node1&#45;&gt;Node12</title>
<path fill="none" stroke="#404040" d="M291.2549,-794.4833C305.0526,-783.9507 320.6137,-773.2266 336,-765 357.5673,-753.4685 365.0664,-755.4954 388,-747 399.6661,-742.6785 411.824,-738.0578 423.908,-733.3902"/>
<polygon fill="none" stroke="#404040" points="424.2658,-733.2514 428.4117,-727.3513 435.4526,-728.909 431.3067,-734.8091 424.2658,-733.2514"/>
<text text-anchor="middle" x="360.5" y="-768" font-family="Helvetica,sans-Serif" font-size="10.00" fill="#000000"> &#45;tmpread</text>
</g>
<!-- Node2 -->
<g id="node2" class="node">
<title>Node2</title>
<g id="a_node2"><a xlink:href="classPreallocated.html" target="_top" xlink:title="{Preallocated\n|&#45; FWMEM_DEFINE_DELBLOCK\l|+ Preallocated()\l+ ~Preallocated()\l+ operator new()\l+ operator delete()\l+ RTNew()\l+ RTNewWithWait()\l+ RTDelete()\l+ GetMgr()\l+ SetupPreallocated()\l&#45; NewInstance()\l&#45; Recycle()\l}">
<polygon fill="#ffffff" stroke="#000000" points="1014,-.5 1014,-167.5 1172,-167.5 1172,-.5 1014,-.5"/>
<text text-anchor="middle" x="1093" y="-155.5" font-family="Helvetica,sans-Serif" font-size="10.00" fill="#000000">Preallocated</text>
<polyline fill="none" stroke="#000000" points="1014,-148.5 1172,-148.5 "/>
<text text-anchor="start" x="1022" y="-136.5" font-family="Helvetica,sans-Serif" font-size="10.00" fill="#000000">&#45; FWMEM_DEFINE_DELBLOCK</text>
<polyline fill="none" stroke="#000000" points="1014,-129.5 1172,-129.5 "/>
<text text-anchor="start" x="1022" y="-117.5" font-family="Helvetica,sans-Serif" font-size="10.00" fill="#000000">+ Preallocated()</text>
<text text-anchor="start" x="1022" y="-106.5" font-family="Helvetica,sans-Serif" font-size="10.00" fill="#000000">+ ~Preallocated()</text>
<text text-anchor="start" x="1022" y="-95.5" font-family="Helvetica,sans-Serif" font-size="10.00" fill="#000000">+ operator new()</text>
<text text-anchor="start" x="1022" y="-84.5" font-family="Helvetica,sans-Serif" font-size="10.00" fill="#000000">+ operator delete()</text>
<text text-anchor="start" x="1022" y="-73.5" font-family="Helvetica,sans-Serif" font-size="10.00" fill="#000000">+ RTNew()</text>
<text text-anchor="start" x="1022" y="-62.5" font-family="Helvetica,sans-Serif" font-size="10.00" fill="#000000">+ RTNewWithWait()</text>
<text text-anchor="start" x="1022" y="-51.5" font-family="Helvetica,sans-Serif" font-size="10.00" fill="#000000">+ RTDelete()</text>
<text text-anchor="start" x="1022" y="-40.5" font-family="Helvetica,sans-Serif" font-size="10.00" fill="#000000">+ GetMgr()</text>
<text text-anchor="start" x="1022" y="-29.5" font-family="Helvetica,sans-Serif" font-size="10.00" fill="#000000">+ SetupPreallocated()</text>
<text text-anchor="start" x="1022" y="-18.5" font-family="Helvetica,sans-Serif" font-size="10.00" fill="#000000">&#45; NewInstance()</text>
<text text-anchor="start" x="1022" y="-7.5" font-family="Helvetica,sans-Serif" font-size="10.00" fill="#000000">&#45; Recycle()</text>
</a>
</g>
</g>
<!-- Node2&#45;&gt;Node1 -->
<g id="edge1" class="edge">
<title>Node2&#45;&gt;Node1</title>
<path fill="none" stroke="#404040" d="M1013.6562,-86.0228C793.3075,-93.7744 190,-130.3935 190,-299 190,-690.5 190,-690.5 190,-690.5 190,-722.8333 202.3253,-756.7121 215.3066,-783.4273"/>
<polygon fill="none" stroke="#404040" points="215.4498,-783.7097 221.7307,-787.2524 220.8762,-794.4127 214.5953,-790.87 215.4498,-783.7097"/>
<text text-anchor="middle" x="210.5" y="-517" font-family="Helvetica,sans-Serif" font-size="10.00" fill="#000000"> +tofree</text>
</g>
<!-- Node2&#45;&gt;Node2 -->
<g id="edge2" class="edge">
<title>Node2&#45;&gt;Node2</title>
<path fill="none" stroke="#404040" d="M1172.1632,-102.6301C1182.8708,-99.5069 1190,-93.2969 1190,-84 1190,-78.48 1187.4867,-74.0482 1183.2033,-70.7047"/>
<polygon fill="none" stroke="#404040" points="1182.9679,-70.5909 1175.8252,-71.582 1172.1632,-65.3699 1179.3059,-64.3789 1182.9679,-70.5909"/>
<text text-anchor="middle" x="1229" y="-81.5" font-family="Helvetica,sans-Serif" font-size="10.00" fill="#000000"> +prealloc_next</text>
</g>
<!-- Node3 -->
<g id="node3" class="node">
<title>Node3</title>
<g id="a_node3"><a xlink:href="classPreallocatedType.html" target="_top" xlink:title="{PreallocatedType\n||+ PreallocatedType()\l+ ~PreallocatedType()\l+ RTNew()\l+ RTNewWithWait()\l+ RTDelete()\l+ GoPreallocate()\l+ GoPostdelete()\l+ Cleanup()\l+ GetBlockSize()\l}">
<polygon fill="#ffffff" stroke="#000000" points="911.5,-226.5 911.5,-371.5 1038.5,-371.5 1038.5,-226.5 911.5,-226.5"/>
<text text-anchor="middle" x="975" y="-359.5" font-family="Helvetica,sans-Serif" font-size="10.00" fill="#000000">PreallocatedType</text>
<polyline fill="none" stroke="#000000" points="911.5,-352.5 1038.5,-352.5 "/>
<text text-anchor="middle" x="975" y="-340.5" font-family="Helvetica,sans-Serif" font-size="10.00" fill="#000000"> </text>
<polyline fill="none" stroke="#000000" points="911.5,-333.5 1038.5,-333.5 "/>
<text text-anchor="start" x="919.5" y="-321.5" font-family="Helvetica,sans-Serif" font-size="10.00" fill="#000000">+ PreallocatedType()</text>
<text text-anchor="start" x="919.5" y="-310.5" font-family="Helvetica,sans-Serif" font-size="10.00" fill="#000000">+ ~PreallocatedType()</text>
<text text-anchor="start" x="919.5" y="-299.5" font-family="Helvetica,sans-Serif" font-size="10.00" fill="#000000">+ RTNew()</text>
<text text-anchor="start" x="919.5" y="-288.5" font-family="Helvetica,sans-Serif" font-size="10.00" fill="#000000">+ RTNewWithWait()</text>
<text text-anchor="start" x="919.5" y="-277.5" font-family="Helvetica,sans-Serif" font-size="10.00" fill="#000000">+ RTDelete()</text>
<text text-anchor="start" x="919.5" y="-266.5" font-family="Helvetica,sans-Serif" font-size="10.00" fill="#000000">+ GoPreallocate()</text>
<text text-anchor="start" x="919.5" y="-255.5" font-family="Helvetica,sans-Serif" font-size="10.00" fill="#000000">+ GoPostdelete()</text>
<text text-anchor="start" x="919.5" y="-244.5" font-family="Helvetica,sans-Serif" font-size="10.00" fill="#000000">+ Cleanup()</text>
<text text-anchor="start" x="919.5" y="-233.5" font-family="Helvetica,sans-Serif" font-size="10.00" fill="#000000">+ GetBlockSize()</text>
</a>
</g>
</g>
<!-- Node2&#45;&gt;Node3 -->
<g id="edge6" class="edge">
<title>Node2&#45;&gt;Node3</title>
<path fill="none" stroke="#404040" d="M1049.8014,-167.6485C1042.6207,-181.1925 1035.1746,-195.0247 1028,-208 1026.619,-210.4975 1025.2094,-213.0287 1023.7798,-215.5803"/>
<polygon fill="none" stroke="#404040" points="1023.7118,-215.7008 1024.2451,-222.8922 1017.812,-226.1503 1017.2787,-218.959 1023.7118,-215.7008"/>
<text text-anchor="middle" x="1074" y="-200" font-family="Helvetica,sans-Serif" font-size="10.00" fill="#000000"> &#45;blocks_list</text>
<text text-anchor="middle" x="1074" y="-189" font-family="Helvetica,sans-Serif" font-size="10.00" fill="#000000">&#45;prealloc_base</text>
</g>
<!-- Node3&#45;&gt;Node1 -->
<g id="edge30" class="edge">
<title>Node3&#45;&gt;Node1</title>
<path fill="none" stroke="#404040" d="M911.2743,-307.1033C772.7602,-328.3193 443.8084,-398.9062 283,-605 243.5758,-655.5265 238.468,-731.6449 240.2555,-782.0638"/>
<polygon fill="none" stroke="#404040" points="240.2673,-782.311 244.55,-788.1126 240.8418,-794.2972 236.5591,-788.4956 240.2673,-782.311"/>
<text text-anchor="middle" x="310.5" y="-608" font-family="Helvetica,sans-Serif" font-size="10.00" fill="#000000"> +which_pt</text>
</g>
<!-- Node3&#45;&gt;Node2 -->
<g id="edge3" class="edge">
<title>Node3&#45;&gt;Node2</title>
<path fill="none" stroke="#404040" d="M950.4528,-226.4233C949.3091,-212.5223 950.7811,-198.4377 957,-186 967.6703,-164.6594 985.1637,-146.6253 1004.1069,-131.9376"/>
<polygon fill="none" stroke="#404040" points="1004.1508,-131.9052 1006.6035,-125.124 1013.8064,-124.7799 1011.3537,-131.5611 1004.1508,-131.9052"/>
<text text-anchor="middle" x="992.5" y="-194.5" font-family="Helvetica,sans-Serif" font-size="10.00" fill="#000000"> &#45;prealloc_mgr</text>
</g>
<!-- Node4 -->
<g id="node4" class="node">
<title>Node4</title>
<g id="a_node4"><a xlink:href="classSListItem.html" target="_top" xlink:title="{SListItem\n||+ SListItem()\l}">
<polygon fill="#ffffff" stroke="#000000" points="893.5,-805.5 893.5,-862.5 974.5,-862.5 974.5,-805.5 893.5,-805.5"/>
<text text-anchor="middle" x="934" y="-850.5" font-family="Helvetica,sans-Serif" font-size="10.00" fill="#000000">SListItem</text>
<polyline fill="none" stroke="#000000" points="893.5,-843.5 974.5,-843.5 "/>
<text text-anchor="middle" x="934" y="-831.5" font-family="Helvetica,sans-Serif" font-size="10.00" fill="#000000"> </text>
<polyline fill="none" stroke="#000000" points="893.5,-824.5 974.5,-824.5 "/>
<text text-anchor="start" x="901.5" y="-812.5" font-family="Helvetica,sans-Serif" font-size="10.00" fill="#000000">+ SListItem()</text>
</a>
</g>
</g>
<!-- Node4&#45;&gt;Node3 -->
<g id="edge4" class="edge">
<title>Node4&#45;&gt;Node3</title>
<path fill="none" stroke="#191970" d="M951.8515,-795.9635C957.9362,-781.0423 963.966,-763.5537 967,-747 976.0541,-697.6007 987.9857,-679.6275 967,-634 961.8634,-622.8319 951.1366,-627.1681 946,-616 910.2064,-538.1768 928.3878,-438.3828 948.3055,-371.7527"/>
<polygon fill="none" stroke="#191970" points="948.5481,-794.7889 947.8759,-805.3624 954.9951,-797.5159 948.5481,-794.7889"/>
</g>
<!-- Node4&#45;&gt;Node4 -->
<g id="edge5" class="edge">
<title>Node4&#45;&gt;Node4</title>
<path fill="none" stroke="#404040" d="M974.735,-845.4654C984.9013,-844.6636 992.5,-840.8418 992.5,-834 992.5,-830.2584 990.2274,-827.42 986.5052,-825.4848"/>
<polygon fill="none" stroke="#404040" points="986.3749,-825.4522 979.5824,-827.8734 974.735,-822.5346 981.5275,-820.1134 986.3749,-825.4522"/>
<text text-anchor="middle" x="1020" y="-831.5" font-family="Helvetica,sans-Serif" font-size="10.00" fill="#000000"> &#45;slist_next</text>
</g>
<!-- Node8 -->
<g id="node8" class="node">
<title>Node8</title>
<g id="a_node8"><a xlink:href="classSLinkList.html" target="_top" xlink:title="{SLinkList\n||+ SLinkList()\l+ AddToHead()\l+ FindAndRemove()\l+ GetFirstItem()\l+ GetNextItem()\l}">
<polygon fill="#ffffff" stroke="#000000" points="844.5,-640 844.5,-741 957.5,-741 957.5,-640 844.5,-640"/>
<text text-anchor="middle" x="901" y="-729" font-family="Helvetica,sans-Serif" font-size="10.00" fill="#000000">SLinkList</text>
<polyline fill="none" stroke="#000000" points="844.5,-722 957.5,-722 "/>
<text text-anchor="middle" x="901" y="-710" font-family="Helvetica,sans-Serif" font-size="10.00" fill="#000000"> </text>
<polyline fill="none" stroke="#000000" points="844.5,-703 957.5,-703 "/>
<text text-anchor="start" x="852.5" y="-691" font-family="Helvetica,sans-Serif" font-size="10.00" fill="#000000">+ SLinkList()</text>
<text text-anchor="start" x="852.5" y="-680" font-family="Helvetica,sans-Serif" font-size="10.00" fill="#000000">+ AddToHead()</text>
<text text-anchor="start" x="852.5" y="-669" font-family="Helvetica,sans-Serif" font-size="10.00" fill="#000000">+ FindAndRemove()</text>
<text text-anchor="start" x="852.5" y="-658" font-family="Helvetica,sans-Serif" font-size="10.00" fill="#000000">+ GetFirstItem()</text>
<text text-anchor="start" x="852.5" y="-647" font-family="Helvetica,sans-Serif" font-size="10.00" fill="#000000">+ GetNextItem()</text>
</a>
</g>
</g>
<!-- Node4&#45;&gt;Node8 -->
<g id="edge11" class="edge">
<title>Node4&#45;&gt;Node8</title>
<path fill="none" stroke="#404040" d="M927.4013,-805.3055C923.9451,-790.2764 919.5692,-771.2479 915.3789,-753.0264"/>
<polygon fill="none" stroke="#404040" points="915.353,-752.9137 910.1101,-747.9628 912.6636,-741.2189 917.9066,-746.1698 915.353,-752.9137"/>
<text text-anchor="middle" x="933" y="-768" font-family="Helvetica,sans-Serif" font-size="10.00" fill="#000000"> &#45;first</text>
</g>
<!-- Node5 -->
<g id="node5" class="node">
<title>Node5</title>
<g id="a_node5"><a xlink:href="classMemoryManager.html" target="_top" xlink:title="{MemoryManager\n||+ MemoryManager()\l+ ~MemoryManager()\l+ AddType()\l+ DelType()\l+ WakeUp()\l+ WakeupIfNeeded()\l&#45; ProcessQueue()\l&#45; run_mgr_thread()\l}">
<polygon fill="#ffffff" stroke="#000000" points="663.5,-452.5 663.5,-586.5 788.5,-586.5 788.5,-452.5 663.5,-452.5"/>
<text text-anchor="middle" x="726" y="-574.5" font-family="Helvetica,sans-Serif" font-size="10.00" fill="#000000">MemoryManager</text>
<polyline fill="none" stroke="#000000" points="663.5,-567.5 788.5,-567.5 "/>
<text text-anchor="middle" x="726" y="-555.5" font-family="Helvetica,sans-Serif" font-size="10.00" fill="#000000"> </text>
<polyline fill="none" stroke="#000000" points="663.5,-548.5 788.5,-548.5 "/>
<text text-anchor="start" x="671.5" y="-536.5" font-family="Helvetica,sans-Serif" font-size="10.00" fill="#000000">+ MemoryManager()</text>
<text text-anchor="start" x="671.5" y="-525.5" font-family="Helvetica,sans-Serif" font-size="10.00" fill="#000000">+ ~MemoryManager()</text>
<text text-anchor="start" x="671.5" y="-514.5" font-family="Helvetica,sans-Serif" font-size="10.00" fill="#000000">+ AddType()</text>
<text text-anchor="start" x="671.5" y="-503.5" font-family="Helvetica,sans-Serif" font-size="10.00" fill="#000000">+ DelType()</text>
<text text-anchor="start" x="671.5" y="-492.5" font-family="Helvetica,sans-Serif" font-size="10.00" fill="#000000">+ WakeUp()</text>
<text text-anchor="start" x="671.5" y="-481.5" font-family="Helvetica,sans-Serif" font-size="10.00" fill="#000000">+ WakeupIfNeeded()</text>
<text text-anchor="start" x="671.5" y="-470.5" font-family="Helvetica,sans-Serif" font-size="10.00" fill="#000000">&#45; ProcessQueue()</text>
<text text-anchor="start" x="671.5" y="-459.5" font-family="Helvetica,sans-Serif" font-size="10.00" fill="#000000">&#45; run_mgr_thread()</text>
</a>
</g>
</g>
<!-- Node5&#45;&gt;Node3 -->
<g id="edge7" class="edge">
<title>Node5&#45;&gt;Node3</title>
<path fill="none" stroke="#404040" d="M788.5118,-464.1432C823.0411,-433.566 866.1111,-395.4257 902.1581,-363.5046"/>
<polygon fill="none" stroke="#404040" points="902.1779,-363.487 904.018,-356.5146 911.1618,-355.5314 909.3217,-362.5038 902.1779,-363.487"/>
<text text-anchor="middle" x="883.5" y="-409.5" font-family="Helvetica,sans-Serif" font-size="10.00" fill="#000000"> &#45;mmgr</text>
</g>
<!-- Node6 -->
<g id="node6" class="node">
<title>Node6</title>
<polygon fill="#ffffff" stroke="#bfbfbf" points="1014,-662 1014,-719 1052,-719 1052,-662 1014,-662"/>
<text text-anchor="middle" x="1033" y="-707" font-family="Helvetica,sans-Serif" font-size="10.00" fill="#000000">char</text>
<polyline fill="none" stroke="#bfbfbf" points="1014,-700 1052,-700 "/>
<text text-anchor="middle" x="1033" y="-688" font-family="Helvetica,sans-Serif" font-size="10.00" fill="#000000"> </text>
<polyline fill="none" stroke="#bfbfbf" points="1014,-681 1052,-681 "/>
<text text-anchor="middle" x="1033" y="-669" font-family="Helvetica,sans-Serif" font-size="10.00" fill="#000000"> </text>
</g>
<!-- Node6&#45;&gt;Node2 -->
<g id="edge27" class="edge">
<title>Node6&#45;&gt;Node2</title>
<path fill="none" stroke="#404040" d="M1047.8434,-661.7927C1057.7851,-641.4187 1070.3985,-613.1529 1078,-587 1125.2252,-424.5213 1109.5126,-377.1431 1114,-208 1114.2593,-198.2257 1114.991,-195.7274 1114,-186 1113.789,-183.9287 1113.5545,-181.8374 1113.299,-179.732"/>
<polygon fill="none" stroke="#404040" points="1113.2603,-179.4499 1108.4796,-174.0513 1111.6242,-167.562 1116.4049,-172.9606 1113.2603,-179.4499"/>
<text text-anchor="middle" x="1185.5" y="-426" font-family="Helvetica,sans-Serif" font-size="10.00" fill="#000000"> +PREALLOC_BASE_INSTANCE</text>
<text text-anchor="middle" x="1185.5" y="-415" font-family="Helvetica,sans-Serif" font-size="10.00" fill="#000000">&#45;prealloc_status</text>
<text text-anchor="middle" x="1185.5" y="-404" font-family="Helvetica,sans-Serif" font-size="10.00" fill="#000000">+PREALLOC_FREE</text>
<text text-anchor="middle" x="1185.5" y="-393" font-family="Helvetica,sans-Serif" font-size="10.00" fill="#000000">+PREALLOC_IN_USE</text>
</g>
<!-- Node6&#45;&gt;Node3 -->
<g id="edge20" class="edge">
<title>Node6&#45;&gt;Node3</title>
<path fill="none" stroke="#404040" d="M1032.0216,-661.8815C1030.625,-644.8323 1027.388,-623.0664 1020,-605 1016.2647,-595.866 1010.5508,-596.2073 1007,-587 981.862,-521.8159 974.5805,-442.602 973.1796,-383.7616"/>
<polygon fill="none" stroke="#404040" points="973.1756,-383.5255 969.0713,-377.5964 972.9657,-371.5274 977.07,-377.4565 973.1756,-383.5255"/>
<text text-anchor="middle" x="1040.5" y="-517" font-family="Helvetica,sans-Serif" font-size="10.00" fill="#000000"> &#45;block_mode</text>
</g>
<!-- Node6&#45;&gt;Node5 -->
<g id="edge8" class="edge">
<title>Node6&#45;&gt;Node5</title>
<path fill="none" stroke="#404040" d="M1013.8694,-671.7329C1001.2416,-659.9693 983.9532,-645.0049 967,-634 913.9219,-599.5451 848.8648,-569.2575 799.7278,-548.501"/>
<polygon fill="none" stroke="#404040" points="799.6195,-548.4557 792.5408,-549.8315 788.5483,-543.8265 795.6269,-542.4507 799.6195,-548.4557"/>
<text text-anchor="middle" x="976" y="-608" font-family="Helvetica,sans-Serif" font-size="10.00" fill="#000000"> &#45;needs_wakeup</text>
</g>
<!-- Node7 -->
<g id="node7" class="node">
<title>Node7</title>
<polygon fill="#ffffff" stroke="#bfbfbf" points="726,-662 726,-719 826,-719 826,-662 726,-662"/>
<text text-anchor="middle" x="776" y="-707" font-family="Helvetica,sans-Serif" font-size="10.00" fill="#000000">pthread_mutex_t</text>
<polyline fill="none" stroke="#bfbfbf" points="726,-700 826,-700 "/>
<text text-anchor="middle" x="776" y="-688" font-family="Helvetica,sans-Serif" font-size="10.00" fill="#000000"> </text>
<polyline fill="none" stroke="#bfbfbf" points="726,-681 826,-681 "/>
<text text-anchor="middle" x="776" y="-669" font-family="Helvetica,sans-Serif" font-size="10.00" fill="#000000"> </text>
</g>
<!-- Node7&#45;&gt;Node5 -->
<g id="edge9" class="edge">
<title>Node7&#45;&gt;Node5</title>
<path fill="none" stroke="#404040" d="M767.6311,-661.8784C762.5176,-644.3902 755.7051,-621.0916 749.0744,-598.4145"/>
<polygon fill="none" stroke="#404040" points="749.0013,-598.1643 743.4782,-593.5281 745.6335,-586.6466 751.1567,-591.2828 749.0013,-598.1643"/>
<text text-anchor="middle" x="797.5" y="-608" font-family="Helvetica,sans-Serif" font-size="10.00" fill="#000000"> &#45;mgr_thread_lock</text>
</g>
<!-- Node8&#45;&gt;Node5 -->
<g id="edge10" class="edge">
<title>Node8&#45;&gt;Node5</title>
<path fill="none" stroke="#404040" d="M872.866,-639.7662C864.9955,-627.7044 855.8664,-615.3459 846,-605 832.1112,-590.4362 815.4258,-576.749 798.9745,-564.775"/>
<polygon fill="none" stroke="#404040" points="798.5756,-564.4921 791.3675,-564.2826 788.7886,-557.5484 795.9967,-557.7579 798.5756,-564.4921"/>
<text text-anchor="middle" x="866" y="-608" font-family="Helvetica,sans-Serif" font-size="10.00" fill="#000000"> &#45;pts</text>
</g>
<!-- Node9 -->
<g id="node9" class="node">
<title>Node9</title>
<polygon fill="#ffffff" stroke="#bfbfbf" points="644.5,-662 644.5,-719 707.5,-719 707.5,-662 644.5,-662"/>
<text text-anchor="middle" x="676" y="-707" font-family="Helvetica,sans-Serif" font-size="10.00" fill="#000000">pthread_t</text>
<polyline fill="none" stroke="#bfbfbf" points="644.5,-700 707.5,-700 "/>
<text text-anchor="middle" x="676" y="-688" font-family="Helvetica,sans-Serif" font-size="10.00" fill="#000000"> </text>
<polyline fill="none" stroke="#bfbfbf" points="644.5,-681 707.5,-681 "/>
<text text-anchor="middle" x="676" y="-669" font-family="Helvetica,sans-Serif" font-size="10.00" fill="#000000"> </text>
</g>
<!-- Node9&#45;&gt;Node5 -->
<g id="edge12" class="edge">
<title>Node9&#45;&gt;Node5</title>
<path fill="none" stroke="#404040" d="M675.6229,-661.9075C676.0676,-645.0624 677.8044,-623.4967 683,-605 683.6403,-602.7205 684.3425,-600.4299 685.0978,-598.1365"/>
<polygon fill="none" stroke="#404040" points="685.1631,-597.9573 683.4615,-590.9498 689.2755,-586.6839 690.9771,-593.6914 685.1631,-597.9573"/>
<text text-anchor="middle" x="715" y="-608" font-family="Helvetica,sans-Serif" font-size="10.00" fill="#000000"> &#45;mgr_thread</text>
</g>
<!-- Node10 -->
<g id="node10" class="node">
<title>Node10</title>
<polygon fill="#ffffff" stroke="#bfbfbf" points="1073.5,-921.5 1073.5,-978.5 1102.5,-978.5 1102.5,-921.5 1073.5,-921.5"/>
<text text-anchor="middle" x="1088" y="-966.5" font-family="Helvetica,sans-Serif" font-size="10.00" fill="#000000">int</text>
<polyline fill="none" stroke="#bfbfbf" points="1073.5,-959.5 1102.5,-959.5 "/>
<text text-anchor="middle" x="1088" y="-947.5" font-family="Helvetica,sans-Serif" font-size="10.00" fill="#000000"> </text>
<polyline fill="none" stroke="#bfbfbf" points="1073.5,-940.5 1102.5,-940.5 "/>
<text text-anchor="middle" x="1088" y="-928.5" font-family="Helvetica,sans-Serif" font-size="10.00" fill="#000000"> </text>
</g>
<!-- Node10&#45;&gt;Node1 -->
<g id="edge32" class="edge">
<title>Node10&#45;&gt;Node1</title>
<path fill="none" stroke="#404040" d="M1073.3809,-949.6478C973.9495,-947.1801 398.8183,-931.7351 327,-903 314.3075,-897.9216 302.1459,-890.0743 291.2559,-881.4657"/>
<polygon fill="none" stroke="#404040" points="291.2389,-881.4515 284.07,-880.6724 282.032,-873.7552 289.2009,-874.5344 291.2389,-881.4515"/>
<text text-anchor="middle" x="360" y="-895" font-family="Helvetica,sans-Serif" font-size="10.00" fill="#000000"> +update_idx</text>
</g>
<!-- Node10&#45;&gt;Node2 -->
<g id="edge28" class="edge">
<title>Node10&#45;&gt;Node2</title>
<path fill="none" stroke="#404040" d="M1102.7201,-948.5915C1170.8187,-941.6784 1452,-908.6165 1452,-834 1452,-834 1452,-834 1452,-299 1452,-174.3092 1290.6282,-120.1731 1184.2682,-98.0338"/>
<polygon fill="none" stroke="#404040" points="1183.9933,-97.9786 1177.3228,-100.7182 1172.2285,-95.6145 1178.899,-92.8749 1183.9933,-97.9786"/>
<text text-anchor="middle" x="1503.5" y="-608" font-family="Helvetica,sans-Serif" font-size="10.00" fill="#000000"> +prealloc_num_free</text>
</g>
<!-- Node10&#45;&gt;Node3 -->
<g id="edge21" class="edge">
<title>Node10&#45;&gt;Node3</title>
<path fill="none" stroke="#404040" d="M1088,-921.3974C1088,-897.9189 1088,-863.8056 1088,-834 1088,-834 1088,-834 1088,-519.5 1088,-470.5364 1065.6593,-421.5212 1040.845,-382.1806"/>
<polygon fill="none" stroke="#404040" points="1040.6856,-381.9352 1034.0624,-379.0833 1034.1476,-371.8727 1040.7708,-374.7246 1040.6856,-381.9352"/>
<text text-anchor="start" x="1088" y="-710" font-family="Helvetica,sans-Serif" font-size="10.00" fill="#000000"> +PREALLOC_DEFAULT_NUM</text>
<text text-anchor="middle" x="1157" y="-699" font-family="Helvetica,sans-Serif" font-size="10.00" fill="#000000">_INSTANCES</text>
<text text-anchor="middle" x="1157" y="-688" font-family="Helvetica,sans-Serif" font-size="10.00" fill="#000000">&#45;prealloc_num_instances</text>
<text text-anchor="middle" x="1157" y="-677" font-family="Helvetica,sans-Serif" font-size="10.00" fill="#000000">&#45;instance_size</text>
<text text-anchor="middle" x="1157" y="-666" font-family="Helvetica,sans-Serif" font-size="10.00" fill="#000000">&#45;block_last_idx</text>
</g>
<!-- Node10&#45;&gt;Node5 -->
<g id="edge13" class="edge">
<title>Node10&#45;&gt;Node5</title>
<path fill="none" stroke="#404040" d="M1073.4137,-949.3878C981.3157,-945.3824 482.83,-921.5883 437,-874 399.9719,-835.5513 396.7478,-677.9794 427,-634 453.2187,-595.8843 571.753,-558.9271 651.4681,-537.7364"/>
<polygon fill="none" stroke="#404040" points="651.813,-537.646 656.601,-532.2538 663.4199,-534.5996 658.6319,-539.9918 651.813,-537.646"/>
<text text-anchor="middle" x="432.5" y="-768" font-family="Helvetica,sans-Serif" font-size="10.00" fill="#000000"> &#45;threadgo</text>
</g>
<!-- Node10&#45;&gt;Node12 -->
<g id="edge19" class="edge">
<title>Node10&#45;&gt;Node12</title>
<path fill="none" stroke="#404040" d="M1073.2318,-948.3986C1030.8166,-943.2866 905.9795,-924.6179 817,-874 772.188,-848.5077 775.3721,-823.3697 733,-794 696.5501,-768.7352 681.0145,-768.651 637.7314,-747.7078"/>
<polygon fill="none" stroke="#404040" points="637.5033,-747.5943 630.3493,-748.5002 626.7615,-742.245 633.9155,-741.339 637.5033,-747.5943"/>
<text text-anchor="middle" x="851" y="-837" font-family="Helvetica,sans-Serif" font-size="10.00" fill="#000000"> &#45;num_writers</text>
<text text-anchor="middle" x="851" y="-826" font-family="Helvetica,sans-Serif" font-size="10.00" fill="#000000">&#45;numel</text>
</g>
<!-- Node15 -->
<g id="node15" class="node">
<title>Node15</title>
<g id="a_node15"><a xlink:href="classRTStore.html" target="_top" xlink:title="{RTStore\&lt; PreallocatedInstance \&gt;\n||+ RTStore()\l+ ~RTStore()\l+ FindItemWithState()\l+ ChangeStateAtIdx()\l+ GetItemAtIdx()\l}">
<polygon fill="#ffffff" stroke="#000000" points="1244.5,-640 1244.5,-741 1423.5,-741 1423.5,-640 1244.5,-640"/>
<text text-anchor="middle" x="1334" y="-729" font-family="Helvetica,sans-Serif" font-size="10.00" fill="#000000">RTStore&lt; PreallocatedInstance &gt;</text>
<polyline fill="none" stroke="#000000" points="1244.5,-722 1423.5,-722 "/>
<text text-anchor="middle" x="1334" y="-710" font-family="Helvetica,sans-Serif" font-size="10.00" fill="#000000"> </text>
<polyline fill="none" stroke="#000000" points="1244.5,-703 1423.5,-703 "/>
<text text-anchor="start" x="1252.5" y="-691" font-family="Helvetica,sans-Serif" font-size="10.00" fill="#000000">+ RTStore()</text>
<text text-anchor="start" x="1252.5" y="-680" font-family="Helvetica,sans-Serif" font-size="10.00" fill="#000000">+ ~RTStore()</text>
<text text-anchor="start" x="1252.5" y="-669" font-family="Helvetica,sans-Serif" font-size="10.00" fill="#000000">+ FindItemWithState()</text>
<text text-anchor="start" x="1252.5" y="-658" font-family="Helvetica,sans-Serif" font-size="10.00" fill="#000000">+ ChangeStateAtIdx()</text>
<text text-anchor="start" x="1252.5" y="-647" font-family="Helvetica,sans-Serif" font-size="10.00" fill="#000000">+ GetItemAtIdx()</text>
</a>
</g>
</g>
<!-- Node10&#45;&gt;Node15 -->
<g id="edge23" class="edge">
<title>Node10&#45;&gt;Node15</title>
<path fill="none" stroke="#404040" d="M1098.0371,-921.3752C1110.885,-887.8416 1135.7733,-832.0407 1171,-794 1181.9032,-782.2259 1207.4498,-764.782 1235.1618,-747.5561"/>
<polygon fill="none" stroke="#404040" points="1235.225,-747.5173 1238.2401,-740.9668 1245.4464,-741.2305 1242.4313,-747.7811 1235.225,-747.5173"/>
<text text-anchor="middle" x="1211" y="-848" font-family="Helvetica,sans-Serif" font-size="10.00" fill="#000000"> +ITEM_DONE</text>
<text text-anchor="middle" x="1211" y="-837" font-family="Helvetica,sans-Serif" font-size="10.00" fill="#000000">&#45;num_items</text>
<text text-anchor="middle" x="1211" y="-826" font-family="Helvetica,sans-Serif" font-size="10.00" fill="#000000">+ITEM_BUSY</text>
<text text-anchor="middle" x="1211" y="-815" font-family="Helvetica,sans-Serif" font-size="10.00" fill="#000000">+ITEM_WAITING</text>
</g>
<!-- Node16 -->
<g id="node16" class="node">
<title>Node16</title>
<g id="a_node16"><a xlink:href="classRTStore_1_1RTStoreItem.html" target="_top" xlink:title="{RTStore\&lt; T \&gt;::RTStoreItem\n||+ RTStoreItem()\l}">
<polygon fill="#ffffff" stroke="#000000" points="1259.5,-805.5 1259.5,-862.5 1408.5,-862.5 1408.5,-805.5 1259.5,-805.5"/>
<text text-anchor="middle" x="1334" y="-850.5" font-family="Helvetica,sans-Serif" font-size="10.00" fill="#000000">RTStore&lt; T &gt;::RTStoreItem</text>
<polyline fill="none" stroke="#000000" points="1259.5,-843.5 1408.5,-843.5 "/>
<text text-anchor="middle" x="1334" y="-831.5" font-family="Helvetica,sans-Serif" font-size="10.00" fill="#000000"> </text>
<polyline fill="none" stroke="#000000" points="1259.5,-824.5 1408.5,-824.5 "/>
<text text-anchor="start" x="1267.5" y="-812.5" font-family="Helvetica,sans-Serif" font-size="10.00" fill="#000000">+ RTStoreItem()</text>
</a>
</g>
</g>
<!-- Node10&#45;&gt;Node16 -->
<g id="edge26" class="edge">
<title>Node10&#45;&gt;Node16</title>
<path fill="none" stroke="#404040" d="M1102.6517,-943.0911C1133.4401,-928.573 1206.6211,-894.0648 1262.4982,-867.7163"/>
<polygon fill="none" stroke="#404040" points="1262.5714,-867.6818 1266.2923,-861.5048 1273.4253,-862.5637 1269.7044,-868.7407 1262.5714,-867.6818"/>
<text text-anchor="middle" x="1246" y="-895" font-family="Helvetica,sans-Serif" font-size="10.00" fill="#000000"> +item_status</text>
</g>
<!-- Node11 -->
<g id="node11" class="node">
<title>Node11</title>
<polygon fill="#ffffff" stroke="#bfbfbf" points="287,-662 287,-719 379,-719 379,-662 287,-662"/>
<text text-anchor="middle" x="333" y="-707" font-family="Helvetica,sans-Serif" font-size="10.00" fill="#000000">pthread_cond_t</text>
<polyline fill="none" stroke="#bfbfbf" points="287,-700 379,-700 "/>
<text text-anchor="middle" x="333" y="-688" font-family="Helvetica,sans-Serif" font-size="10.00" fill="#000000"> </text>
<polyline fill="none" stroke="#bfbfbf" points="287,-681 379,-681 "/>
<text text-anchor="middle" x="333" y="-669" font-family="Helvetica,sans-Serif" font-size="10.00" fill="#000000"> </text>
</g>
<!-- Node11&#45;&gt;Node5 -->
<g id="edge14" class="edge">
<title>Node11&#45;&gt;Node5</title>
<path fill="none" stroke="#404040" d="M330.8564,-661.9132C331.0781,-643.3433 334.6515,-619.9048 349,-605 390.0656,-562.3425 553.6308,-537.8696 651.3149,-526.7794"/>
<polygon fill="none" stroke="#404040" points="651.5458,-526.7538 657.0677,-522.1161 663.4725,-525.4295 657.9506,-530.0672 651.5458,-526.7538"/>
<text text-anchor="middle" x="371" y="-608" font-family="Helvetica,sans-Serif" font-size="10.00" fill="#000000"> &#45;mgr_go</text>
</g>
<!-- Node12&#45;&gt;Node5 -->
<g id="edge15" class="edge">
<title>Node12&#45;&gt;Node5</title>
<path fill="none" stroke="#404040" d="M572.5406,-634.105C581.1147,-623.9343 590.4566,-613.7842 600,-605 616.1653,-590.1208 635.1144,-575.8912 653.336,-563.4577"/>
<polygon fill="none" stroke="#404040" points="653.3918,-563.4204 656.1509,-556.7579 663.362,-556.7423 660.6029,-563.4047 653.3918,-563.4204"/>
<text text-anchor="middle" x="638" y="-608" font-family="Helvetica,sans-Serif" font-size="10.00" fill="#000000"> &#45;update_queue</text>
</g>
<!-- Node13 -->
<g id="node13" class="node">
<title>Node13</title>
<g id="a_node13"><a xlink:href="classRTDataStruct__Updater.html" target="_top" xlink:title="{RTDataStruct_Updater\n||# UpdateNumRWThreads()\l}">
<polygon fill="#ffffff" stroke="#000000" points="445.5,-805.5 445.5,-862.5 594.5,-862.5 594.5,-805.5 445.5,-805.5"/>
<text text-anchor="middle" x="520" y="-850.5" font-family="Helvetica,sans-Serif" font-size="10.00" fill="#000000">RTDataStruct_Updater</text>
<polyline fill="none" stroke="#000000" points="445.5,-843.5 594.5,-843.5 "/>
<text text-anchor="middle" x="520" y="-831.5" font-family="Helvetica,sans-Serif" font-size="10.00" fill="#000000"> </text>
<polyline fill="none" stroke="#000000" points="445.5,-824.5 594.5,-824.5 "/>
<text text-anchor="start" x="453.5" y="-812.5" font-family="Helvetica,sans-Serif" font-size="10.00" fill="#000000"># UpdateNumRWThreads()</text>
</a>
</g>
</g>
<!-- Node13&#45;&gt;Node12 -->
<g id="edge16" class="edge">
<title>Node13&#45;&gt;Node12</title>
<path fill="none" stroke="#191970" d="M522.9925,-794.9611C524.131,-780.1089 525.4519,-762.8775 526.6886,-746.7445"/>
<polygon fill="none" stroke="#191970" points="519.4742,-795.0672 522.1996,-805.3055 526.4537,-795.6023 519.4742,-795.0672"/>
</g>
<!-- Node14 -->
<g id="node14" class="node">
<title>Node14</title>
<polygon fill="#ffffff" stroke="#bfbfbf" points="612,-805.5 612,-862.5 724,-862.5 724,-805.5 612,-805.5"/>
<text text-anchor="middle" x="668" y="-850.5" font-family="Helvetica,sans-Serif" font-size="10.00" fill="#000000">jack_ringbuffer_t **</text>
<polyline fill="none" stroke="#bfbfbf" points="612,-843.5 724,-843.5 "/>
<text text-anchor="middle" x="668" y="-831.5" font-family="Helvetica,sans-Serif" font-size="10.00" fill="#000000"> </text>
<polyline fill="none" stroke="#bfbfbf" points="612,-824.5 724,-824.5 "/>
<text text-anchor="middle" x="668" y="-812.5" font-family="Helvetica,sans-Serif" font-size="10.00" fill="#000000"> </text>
</g>
<!-- Node14&#45;&gt;Node12 -->
<g id="edge18" class="edge">
<title>Node14&#45;&gt;Node12</title>
<path fill="none" stroke="#404040" d="M640.6053,-805.3055C626.9738,-791.0273 609.8959,-773.1392 593.3066,-755.7627"/>
<polygon fill="none" stroke="#404040" points="592.9833,-755.4241 585.9468,-753.8464 584.6968,-746.7445 591.7332,-748.3221 592.9833,-755.4241"/>
<text text-anchor="middle" x="629.5" y="-768" font-family="Helvetica,sans-Serif" font-size="10.00" fill="#000000"> &#45;wbufs</text>
</g>
<!-- Node15&#45;&gt;Node3 -->
<g id="edge22" class="edge">
<title>Node15&#45;&gt;Node3</title>
<path fill="none" stroke="#404040" d="M1341.4157,-639.8605C1348.0322,-574.0412 1348.8063,-459.3458 1288,-390 1256.7954,-354.4131 1132.7353,-326.4798 1050.4882,-311.392"/>
<polygon fill="none" stroke="#404040" points="1050.482,-311.3909 1043.867,-314.2617 1038.6727,-309.2597 1045.2878,-306.3889 1050.482,-311.3909"/>
<text text-anchor="middle" x="1371.5" y="-517" font-family="Helvetica,sans-Serif" font-size="10.00" fill="#000000"> &#45;ready_list</text>
</g>
<!-- Node16&#45;&gt;Node15 -->
<g id="edge24" class="edge">
<title>Node16&#45;&gt;Node15</title>
<path fill="none" stroke="#404040" d="M1334,-805.3055C1334,-790.348 1334,-771.4291 1334,-753.2868"/>
<polygon fill="none" stroke="#404040" points="1334.0001,-753.2189 1330,-747.219 1334,-741.2189 1338,-747.2189 1334.0001,-753.2189"/>
<text text-anchor="middle" x="1351.5" y="-768" font-family="Helvetica,sans-Serif" font-size="10.00" fill="#000000"> &#45;items</text>
</g>
<!-- Node17 -->
<g id="node17" class="node">
<title>Node17</title>
<g id="a_node17"><a xlink:href="classT.html" target="_top" xlink:title="{T\n||}">
<polygon fill="#ffffff" stroke="#000000" points="1462.5,-921.5 1462.5,-978.5 1491.5,-978.5 1491.5,-921.5 1462.5,-921.5"/>
<text text-anchor="middle" x="1477" y="-966.5" font-family="Helvetica,sans-Serif" font-size="10.00" fill="#000000">T</text>
<polyline fill="none" stroke="#000000" points="1462.5,-959.5 1491.5,-959.5 "/>
<text text-anchor="middle" x="1477" y="-947.5" font-family="Helvetica,sans-Serif" font-size="10.00" fill="#000000"> </text>
<polyline fill="none" stroke="#000000" points="1462.5,-940.5 1491.5,-940.5 "/>
<text text-anchor="middle" x="1477" y="-928.5" font-family="Helvetica,sans-Serif" font-size="10.00" fill="#000000"> </text>
</a>
</g>
</g>
<!-- Node17&#45;&gt;Node16 -->
<g id="edge25" class="edge">
<title>Node17&#45;&gt;Node16</title>
<path fill="none" stroke="#191970" d="M1454.4316,-931.6928C1431.5645,-913.1432 1395.8635,-884.183 1369.2609,-862.6032"/>
<polygon fill="none" stroke="#191970" points="1452.264,-934.4412 1462.2351,-938.0229 1456.6739,-929.0049 1452.264,-934.4412"/>
</g>
<!-- Node18 -->
<g id="node18" class="node">
<title>Node18</title>
<polygon fill="#ffffff" stroke="#bfbfbf" points="1480,-270.5 1480,-327.5 1598,-327.5 1598,-270.5 1480,-270.5"/>
<text text-anchor="middle" x="1539" y="-315.5" font-family="Helvetica,sans-Serif" font-size="10.00" fill="#000000">anonymous:&#45;predata</text>
<polyline fill="none" stroke="#bfbfbf" points="1480,-308.5 1598,-308.5 "/>
<text text-anchor="middle" x="1539" y="-296.5" font-family="Helvetica,sans-Serif" font-size="10.00" fill="#000000"> </text>
<polyline fill="none" stroke="#bfbfbf" points="1480,-289.5 1598,-289.5 "/>
<text text-anchor="middle" x="1539" y="-277.5" font-family="Helvetica,sans-Serif" font-size="10.00" fill="#000000"> </text>
</g>
<!-- Node18&#45;&gt;Node2 -->
<g id="edge29" class="edge">
<title>Node18&#45;&gt;Node2</title>
<path fill="none" stroke="#404040" d="M1527.6293,-270.3488C1515.9404,-244.5402 1495.3015,-207.4576 1466,-186 1382.7961,-125.0694 1265.1412,-100.5355 1184.3393,-90.6573"/>
<polygon fill="none" stroke="#404040" points="1184.1166,-90.6315 1177.6957,-93.9136 1172.1965,-89.2489 1178.6174,-85.9669 1184.1166,-90.6315"/>
<text text-anchor="middle" x="1509.5" y="-194.5" font-family="Helvetica,sans-Serif" font-size="10.00" fill="#000000"> &#45;predata</text>
</g>
<!-- Node19 -->
<g id="node19" class="node">
<title>Node19</title>
<polygon fill="#ffffff" stroke="#bfbfbf" points="0,-921.5 0,-978.5 134,-978.5 134,-921.5 0,-921.5"/>
<text text-anchor="middle" x="67" y="-966.5" font-family="Helvetica,sans-Serif" font-size="10.00" fill="#000000">anonymous:+updatedat</text>
<polyline fill="none" stroke="#bfbfbf" points="0,-959.5 134,-959.5 "/>
<text text-anchor="middle" x="67" y="-947.5" font-family="Helvetica,sans-Serif" font-size="10.00" fill="#000000"> </text>
<polyline fill="none" stroke="#bfbfbf" points="0,-940.5 134,-940.5 "/>
<text text-anchor="middle" x="67" y="-928.5" font-family="Helvetica,sans-Serif" font-size="10.00" fill="#000000"> </text>
</g>
<!-- Node19&#45;&gt;Node1 -->
<g id="edge31" class="edge">
<title>Node19&#45;&gt;Node1</title>
<path fill="none" stroke="#404040" d="M111,-921.3258C130.0218,-908.9296 152.7653,-894.108 174.0672,-880.2259"/>
<polygon fill="none" stroke="#404040" points="174.3324,-880.053 177.1753,-873.4259 184.386,-873.5012 181.5432,-880.1283 174.3324,-880.053"/>
<text text-anchor="middle" x="186.5" y="-895" font-family="Helvetica,sans-Serif" font-size="10.00" fill="#000000"> +updatedat</text>
</g>
<!-- Node20 -->
<g id="node20" class="node">
<title>Node20</title>
<polygon fill="#ffffff" stroke="#bfbfbf" points="152,-921.5 152,-978.5 308,-978.5 308,-921.5 152,-921.5"/>
<text text-anchor="middle" x="230" y="-966.5" font-family="Helvetica,sans-Serif" font-size="10.00" fill="#000000">MemoryManagerUpdateType</text>
<polyline fill="none" stroke="#bfbfbf" points="152,-959.5 308,-959.5 "/>
<text text-anchor="middle" x="230" y="-947.5" font-family="Helvetica,sans-Serif" font-size="10.00" fill="#000000"> </text>
<polyline fill="none" stroke="#bfbfbf" points="152,-940.5 308,-940.5 "/>
<text text-anchor="middle" x="230" y="-928.5" font-family="Helvetica,sans-Serif" font-size="10.00" fill="#000000"> </text>
</g>
<!-- Node20&#45;&gt;Node1 -->
<g id="edge33" class="edge">
<title>Node20&#45;&gt;Node1</title>
<path fill="none" stroke="#404040" d="M229.2507,-921.2945C229.3376,-911.9242 229.7878,-901.4903 231,-892 231.2617,-889.9514 231.5675,-887.8701 231.909,-885.7736"/>
<polygon fill="none" stroke="#404040" points="231.9586,-885.5119 229.1477,-878.8712 234.1964,-873.7223 237.0073,-880.363 231.9586,-885.5119"/>
<text text-anchor="middle" x="267.5" y="-895" font-family="Helvetica,sans-Serif" font-size="10.00" fill="#000000"> +update_type</text>
</g>
</g>
</svg>
