<?xml version="1.0" encoding="UTF-8" standalone="no"?>
<!DOCTYPE svg PUBLIC "-//W3C//DTD SVG 1.1//EN"
 "http://www.w3.org/Graphics/SVG/1.1/DTD/svg11.dtd">
<!-- Generated by graphviz version 2.40.1 (20161225.0304)
 -->
<!-- Title: Saveable::SetSaveStatus Pages: 1 -->
<svg width="749pt" height="192pt"
 viewBox="0.00 0.00 749.00 192.00" xmlns="http://www.w3.org/2000/svg" xmlns:xlink="http://www.w3.org/1999/xlink">
<g id="graph0" class="graph" transform="scale(1 1) rotate(0) translate(4 188)">
<title>Saveable::SetSaveStatus</title>
<polygon fill="#ffffff" stroke="transparent" points="-4,4 -4,-188 745,-188 745,4 -4,4"/>
<!-- Node64 -->
<g id="node1" class="node">
<title>Node64</title>
<polygon fill="#bfbfbf" stroke="#000000" points="0,-76.5 0,-95.5 138,-95.5 138,-76.5 0,-76.5"/>
<text text-anchor="middle" x="69" y="-83.5" font-family="Helvetica,sans-Serif" font-size="10.00" fill="#000000">Saveable::SetSaveStatus</text>
</g>
<!-- Node65 -->
<g id="node2" class="node">
<title>Node65</title>
<g id="a_node2"><a xlink:href="classLoopManager.html#a306ffe72c9623e33cad280ec3609c359" target="_top" xlink:title="LoopManager::SetupSaveLoop">
<polygon fill="#ffffff" stroke="#000000" points="184,-164.5 184,-183.5 347,-183.5 347,-164.5 184,-164.5"/>
<text text-anchor="middle" x="265.5" y="-171.5" font-family="Helvetica,sans-Serif" font-size="10.00" fill="#000000">LoopManager::SetupSaveLoop</text>
</a>
</g>
</g>
<!-- Node64&#45;&gt;Node65 -->
<g id="edge1" class="edge">
<title>Node64&#45;&gt;Node65</title>
<path fill="none" stroke="#191970" d="M88.5154,-102.1092C108.6891,-117.9382 141.7042,-141.609 174,-155 183.292,-158.8528 193.45,-161.9538 203.5097,-164.4413"/>
<polygon fill="#191970" stroke="#191970" points="90.4425,-99.1687 80.447,-95.6559 86.0702,-104.6353 90.4425,-99.1687"/>
</g>
<!-- Node67 -->
<g id="node4" class="node">
<title>Node67</title>
<g id="a_node4"><a xlink:href="classSaveable.html#ae80419c61613dd2ec659d23b3fe0e788" target="_top" xlink:title="Saveable::SetSaveableHash\lFromText">
<polygon fill="#ffffff" stroke="#000000" points="189,-115 189,-145 342,-145 342,-115 189,-115"/>
<text text-anchor="start" x="197" y="-133" font-family="Helvetica,sans-Serif" font-size="10.00" fill="#000000">Saveable::SetSaveableHash</text>
<text text-anchor="middle" x="265.5" y="-122" font-family="Helvetica,sans-Serif" font-size="10.00" fill="#000000">FromText</text>
</a>
</g>
</g>
<!-- Node64&#45;&gt;Node67 -->
<g id="edge3" class="edge">
<title>Node64&#45;&gt;Node67</title>
<path fill="none" stroke="#191970" d="M121.4406,-97.7424C145.0131,-103.0207 173.1183,-109.314 198.2195,-114.9346"/>
<polygon fill="#191970" stroke="#191970" points="122.1607,-94.3171 111.6376,-95.5473 120.6311,-101.1479 122.1607,-94.3171"/>
</g>
<!-- Node69 -->
<g id="node6" class="node">
<title>Node69</title>
<g id="a_node6"><a xlink:href="classLoop.html#ad4b7c1ec11bb3c98332d543f77d22523" target="_top" xlink:title="Loop::Recycle">
<polygon fill="#ffffff" stroke="#000000" points="224,-76.5 224,-95.5 307,-95.5 307,-76.5 224,-76.5"/>
<text text-anchor="middle" x="265.5" y="-83.5" font-family="Helvetica,sans-Serif" font-size="10.00" fill="#000000">Loop::Recycle</text>
</a>
</g>
</g>
<!-- Node64&#45;&gt;Node69 -->
<g id="edge5" class="edge">
<title>Node64&#45;&gt;Node69</title>
<path fill="none" stroke="#191970" d="M148.2041,-86C174.1105,-86 201.8541,-86 223.8523,-86"/>
<polygon fill="#191970" stroke="#191970" points="148.0023,-82.5001 138.0022,-86 148.0022,-89.5001 148.0023,-82.5001"/>
</g>
<!-- Node70 -->
<g id="node7" class="node">
<title>Node70</title>
<g id="a_node7"><a xlink:href="classTriggerMap.html#ac8dd153318fc2546c999bd5184c827cf" target="_top" xlink:title="TriggerMap::TouchMap">
<polygon fill="#ffffff" stroke="#000000" points="203.5,-38.5 203.5,-57.5 327.5,-57.5 327.5,-38.5 203.5,-38.5"/>
<text text-anchor="middle" x="265.5" y="-45.5" font-family="Helvetica,sans-Serif" font-size="10.00" fill="#000000">TriggerMap::TouchMap</text>
</a>
</g>
</g>
<!-- Node64&#45;&gt;Node70 -->
<g id="edge6" class="edge">
<title>Node64&#45;&gt;Node70</title>
<path fill="none" stroke="#191970" d="M128.4123,-74.5106C156.4495,-69.0886 189.5157,-62.6942 216.1481,-57.5439"/>
<polygon fill="#191970" stroke="#191970" points="127.4852,-71.125 118.3316,-76.46 128.8143,-77.9976 127.4852,-71.125"/>
</g>
<!-- Node76 -->
<g id="node13" class="node">
<title>Node76</title>
<g id="a_node13"><a xlink:href="classRecordProcessor.html#a1aea5f833c59a12398b05b514b26b572" target="_top" xlink:title="RecordProcessor::RecordProcessor">
<polygon fill="#ffffff" stroke="#000000" points="174,-.5 174,-19.5 357,-19.5 357,-.5 174,-.5"/>
<text text-anchor="middle" x="265.5" y="-7.5" font-family="Helvetica,sans-Serif" font-size="10.00" fill="#000000">RecordProcessor::RecordProcessor</text>
</a>
</g>
</g>
<!-- Node64&#45;&gt;Node76 -->
<g id="edge12" class="edge">
<title>Node64&#45;&gt;Node76</title>
<path fill="none" stroke="#191970" d="M91.9949,-70.9483C112.6705,-58.0522 144.2732,-39.8862 174,-29 184.3597,-25.2062 195.6717,-22.0873 206.6992,-19.5524"/>
<polygon fill="#191970" stroke="#191970" points="89.8796,-68.1453 83.3102,-76.4576 93.6293,-74.0563 89.8796,-68.1453"/>
</g>
<!-- Node66 -->
<g id="node3" class="node">
<title>Node66</title>
<g id="a_node3"><a xlink:href="classLoopManager.html#a00143be12c150c0a89c4f99c1e8d5e70" target="_top" xlink:title="LoopManager::GetWriteBlock">
<polygon fill="#ffffff" stroke="#000000" points="393,-164.5 393,-183.5 551,-183.5 551,-164.5 393,-164.5"/>
<text text-anchor="middle" x="472" y="-171.5" font-family="Helvetica,sans-Serif" font-size="10.00" fill="#000000">LoopManager::GetWriteBlock</text>
</a>
</g>
</g>
<!-- Node65&#45;&gt;Node66 -->
<g id="edge2" class="edge">
<title>Node65&#45;&gt;Node66</title>
<path fill="none" stroke="#191970" d="M357.3879,-174C369.1546,-174 381.1207,-174 392.6647,-174"/>
<polygon fill="#191970" stroke="#191970" points="357.1143,-170.5001 347.1143,-174 357.1142,-177.5001 357.1143,-170.5001"/>
</g>
<!-- Node68 -->
<g id="node5" class="node">
<title>Node68</title>
<g id="a_node5"><a xlink:href="classLoopManager.html#a7954eacf6a4f8d0300c4100133a4b725" target="_top" xlink:title="LoopManager::ItemRenamed">
<polygon fill="#ffffff" stroke="#000000" points="394,-120.5 394,-139.5 550,-139.5 550,-120.5 394,-120.5"/>
<text text-anchor="middle" x="472" y="-127.5" font-family="Helvetica,sans-Serif" font-size="10.00" fill="#000000">LoopManager::ItemRenamed</text>
</a>
</g>
</g>
<!-- Node67&#45;&gt;Node68 -->
<g id="edge4" class="edge">
<title>Node67&#45;&gt;Node68</title>
<path fill="none" stroke="#191970" d="M352.491,-130C366.2015,-130 380.3043,-130 393.7995,-130"/>
<polygon fill="#191970" stroke="#191970" points="352.0996,-126.5001 342.0995,-130 352.0995,-133.5001 352.0996,-126.5001"/>
</g>
<!-- Node71 -->
<g id="node8" class="node">
<title>Node71</title>
<g id="a_node8"><a xlink:href="classFweelin.html#a46ac4eb76aa2025f2bec97c23658abef" target="_top" xlink:title="Fweelin::CreateSnapshot">
<polygon fill="#ffffff" stroke="#000000" points="403.5,-76.5 403.5,-95.5 540.5,-95.5 540.5,-76.5 403.5,-76.5"/>
<text text-anchor="middle" x="472" y="-83.5" font-family="Helvetica,sans-Serif" font-size="10.00" fill="#000000">Fweelin::CreateSnapshot</text>
</a>
</g>
</g>
<!-- Node70&#45;&gt;Node71 -->
<g id="edge7" class="edge">
<title>Node70&#45;&gt;Node71</title>
<path fill="none" stroke="#191970" d="M327.5485,-59.4181C357.0949,-64.8552 392.0261,-71.2832 420.1365,-76.4561"/>
<polygon fill="#191970" stroke="#191970" points="327.8105,-55.9076 317.3421,-57.54 326.5435,-62.792 327.8105,-55.9076"/>
</g>
<!-- Node72 -->
<g id="node9" class="node">
<title>Node72</title>
<g id="a_node9"><a xlink:href="classFweelin.html#aae8cb8c1b763a13c1d906e45b5d0690b" target="_top" xlink:title="Fweelin::SwapSnapshots">
<polygon fill="#ffffff" stroke="#000000" points="403.5,-38.5 403.5,-57.5 540.5,-57.5 540.5,-38.5 403.5,-38.5"/>
<text text-anchor="middle" x="472" y="-45.5" font-family="Helvetica,sans-Serif" font-size="10.00" fill="#000000">Fweelin::SwapSnapshots</text>
</a>
</g>
</g>
<!-- Node70&#45;&gt;Node72 -->
<g id="edge8" class="edge">
<title>Node70&#45;&gt;Node72</title>
<path fill="none" stroke="#191970" d="M337.9962,-48C359.2441,-48 382.4042,-48 403.4015,-48"/>
<polygon fill="#191970" stroke="#191970" points="337.7369,-44.5001 327.7368,-48 337.7368,-51.5001 337.7369,-44.5001"/>
</g>
<!-- Node74 -->
<g id="node11" class="node">
<title>Node74</title>
<g id="a_node11"><a xlink:href="classFweelin.html#a057cfd43583e073f0216dd275e4b26a7" target="_top" xlink:title="Fweelin::LoadSnapshot">
<polygon fill="#ffffff" stroke="#000000" points="408,-.5 408,-19.5 536,-19.5 536,-.5 408,-.5"/>
<text text-anchor="middle" x="472" y="-7.5" font-family="Helvetica,sans-Serif" font-size="10.00" fill="#000000">Fweelin::LoadSnapshot</text>
</a>
</g>
</g>
<!-- Node70&#45;&gt;Node74 -->
<g id="edge10" class="edge">
<title>Node70&#45;&gt;Node74</title>
<path fill="none" stroke="#191970" d="M327.5485,-36.5819C357.0949,-31.1448 392.0261,-24.7168 420.1365,-19.5439"/>
<polygon fill="#191970" stroke="#191970" points="326.5435,-33.208 317.3421,-38.46 327.8105,-40.0924 326.5435,-33.208"/>
</g>
<!-- Node73 -->
<g id="node10" class="node">
<title>Node73</title>
<g id="a_node10"><a xlink:href="classLoopManager.html#a4aada2d07b7ce0a67a8119ece4805966" target="_top" xlink:title="LoopManager::ReceiveEvent">
<polygon fill="#ffffff" stroke="#000000" points="587,-38.5 587,-57.5 741,-57.5 741,-38.5 587,-38.5"/>
<text text-anchor="middle" x="664" y="-45.5" font-family="Helvetica,sans-Serif" font-size="10.00" fill="#000000">LoopManager::ReceiveEvent</text>
</a>
</g>
</g>
<!-- Node72&#45;&gt;Node73 -->
<g id="edge9" class="edge">
<title>Node72&#45;&gt;Node73</title>
<path fill="none" stroke="#191970" d="M550.8089,-48C562.6635,-48 574.8797,-48 586.7022,-48"/>
<polygon fill="#191970" stroke="#191970" points="550.5033,-44.5001 540.5033,-48 550.5032,-51.5001 550.5033,-44.5001"/>
</g>
<!-- Node75 -->
<g id="node12" class="node">
<title>Node75</title>
<g id="a_node12"><a xlink:href="classLoopManager.html#a05a6a438d14482e2f22aa802cfb432e8" target="_top" xlink:title="LoopManager::LoadScene">
<polygon fill="#ffffff" stroke="#000000" points="594,-.5 594,-19.5 734,-19.5 734,-.5 594,-.5"/>
<text text-anchor="middle" x="664" y="-7.5" font-family="Helvetica,sans-Serif" font-size="10.00" fill="#000000">LoopManager::LoadScene</text>
</a>
</g>
</g>
<!-- Node74&#45;&gt;Node75 -->
<g id="edge11" class="edge">
<title>Node74&#45;&gt;Node75</title>
<path fill="none" stroke="#191970" d="M546.3443,-10C561.9868,-10 578.4386,-10 593.9185,-10"/>
<polygon fill="#191970" stroke="#191970" points="546.2002,-6.5001 536.2002,-10 546.2001,-13.5001 546.2002,-6.5001"/>
</g>
</g>
</svg>
