<?xml version="1.0" encoding="UTF-8" standalone="no"?>
<!DOCTYPE svg PUBLIC "-//W3C//DTD SVG 1.1//EN"
 "http://www.w3.org/Graphics/SVG/1.1/DTD/svg11.dtd">
<!-- Generated by graphviz version 2.40.1 (20161225.0304)
 -->
<!-- Title: Fweelin::getPRE_AUDIOBLOCK Pages: 1 -->
<svg width="582pt" height="66pt"
 viewBox="0.00 0.00 582.00 66.00" xmlns="http://www.w3.org/2000/svg" xmlns:xlink="http://www.w3.org/1999/xlink">
<g id="graph0" class="graph" transform="scale(1 1) rotate(0) translate(4 62)">
<title>Fweelin::getPRE_AUDIOBLOCK</title>
<polygon fill="#ffffff" stroke="transparent" points="-4,4 -4,-62 578,-62 578,4 -4,4"/>
<!-- Node377 -->
<g id="node1" class="node">
<title>Node377</title>
<polygon fill="#bfbfbf" stroke="#000000" points="0,-19.5 0,-38.5 165,-38.5 165,-19.5 0,-19.5"/>
<text text-anchor="middle" x="82.5" y="-26.5" font-family="Helvetica,sans-Serif" font-size="10.00" fill="#000000">Fweelin::getPRE_AUDIOBLOCK</text>
</g>
<!-- Node378 -->
<g id="node2" class="node">
<title>Node378</title>
<g id="a_node2"><a xlink:href="classBlockReadManager.html#af12804c61f944904eedf8c9edf5cd3bd" target="_top" xlink:title="BlockReadManager::Start">
<polygon fill="#ffffff" stroke="#000000" points="223,-38.5 223,-57.5 362,-57.5 362,-38.5 223,-38.5"/>
<text text-anchor="middle" x="292.5" y="-45.5" font-family="Helvetica,sans-Serif" font-size="10.00" fill="#000000">BlockReadManager::Start</text>
</a>
</g>
</g>
<!-- Node377&#45;&gt;Node378 -->
<g id="edge1" class="edge">
<title>Node377&#45;&gt;Node378</title>
<path fill="none" stroke="#191970" d="M175.5509,-37.4189C191.4125,-38.854 207.6425,-40.3224 222.7679,-41.6909"/>
<polygon fill="#191970" stroke="#191970" points="175.4708,-33.8974 165.1961,-36.482 174.84,-40.869 175.4708,-33.8974"/>
</g>
<!-- Node380 -->
<g id="node4" class="node">
<title>Node380</title>
<g id="a_node4"><a xlink:href="classRecordProcessor.html#aa20c0f68a5ee5e4739759b3783b6e4d1" target="_top" xlink:title="RecordProcessor::RecordProcessor">
<polygon fill="#ffffff" stroke="#000000" points="201,-.5 201,-19.5 384,-19.5 384,-.5 201,-.5"/>
<text text-anchor="middle" x="292.5" y="-7.5" font-family="Helvetica,sans-Serif" font-size="10.00" fill="#000000">RecordProcessor::RecordProcessor</text>
</a>
</g>
</g>
<!-- Node377&#45;&gt;Node380 -->
<g id="edge3" class="edge">
<title>Node377&#45;&gt;Node380</title>
<path fill="none" stroke="#191970" d="M175.4308,-20.592C183.8765,-19.8278 192.4279,-19.0541 200.8623,-18.291"/>
<polygon fill="#191970" stroke="#191970" points="174.84,-17.131 165.1961,-21.518 175.4708,-24.1026 174.84,-17.131"/>
</g>
<!-- Node379 -->
<g id="node3" class="node">
<title>Node379</title>
<g id="a_node3"><a xlink:href="classBlockReadManager.html#aa990976dec4a3ec5bd6384b54ce5f09b" target="_top" xlink:title="BlockReadManager::Manage">
<polygon fill="#ffffff" stroke="#000000" points="420,-38.5 420,-57.5 574,-57.5 574,-38.5 420,-38.5"/>
<text text-anchor="middle" x="497" y="-45.5" font-family="Helvetica,sans-Serif" font-size="10.00" fill="#000000">BlockReadManager::Manage</text>
</a>
</g>
</g>
<!-- Node378&#45;&gt;Node379 -->
<g id="edge2" class="edge">
<title>Node378&#45;&gt;Node379</title>
<path fill="none" stroke="#191970" d="M372.2097,-48C387.9047,-48 404.3454,-48 419.9508,-48"/>
<polygon fill="#191970" stroke="#191970" points="372.0198,-44.5001 362.0197,-48 372.0197,-51.5001 372.0198,-44.5001"/>
</g>
</g>
</svg>
