<?xml version="1.0" encoding="UTF-8" standalone="no"?>
<!DOCTYPE svg PUBLIC "-//W3C//DTD SVG 1.1//EN"
 "http://www.w3.org/Graphics/SVG/1.1/DTD/svg11.dtd">
<!-- Generated by graphviz version 2.40.1 (20161225.0304)
 -->
<!-- Title: LoopManager::GetRoundedLength Pages: 1 -->
<svg width="557pt" height="66pt"
 viewBox="0.00 0.00 557.00 66.00" xmlns="http://www.w3.org/2000/svg" xmlns:xlink="http://www.w3.org/1999/xlink">
<g id="graph0" class="graph" transform="scale(1 1) rotate(0) translate(4 62)">
<title>LoopManager::GetRoundedLength</title>
<polygon fill="#ffffff" stroke="transparent" points="-4,4 -4,-62 553,-62 553,4 -4,4"/>
<!-- Node512 -->
<g id="node1" class="node">
<title>Node512</title>
<polygon fill="#bfbfbf" stroke="#000000" points="0,-19.5 0,-38.5 180,-38.5 180,-19.5 0,-19.5"/>
<text text-anchor="middle" x="90" y="-26.5" font-family="Helvetica,sans-Serif" font-size="10.00" fill="#000000">LoopManager::GetRoundedLength</text>
</g>
<!-- Node513 -->
<g id="node2" class="node">
<title>Node513</title>
<g id="a_node2"><a xlink:href="classOSCClient.html#acbb974bf11667aa6fb48c111ae14a4fe" target="_top" xlink:title="OSCClient::SendPlayingLoops">
<polygon fill="#ffffff" stroke="#000000" points="216,-38.5 216,-57.5 376,-57.5 376,-38.5 216,-38.5"/>
<text text-anchor="middle" x="296" y="-45.5" font-family="Helvetica,sans-Serif" font-size="10.00" fill="#000000">OSCClient::SendPlayingLoops</text>
</a>
</g>
</g>
<!-- Node512&#45;&gt;Node513 -->
<g id="edge1" class="edge">
<title>Node512&#45;&gt;Node513</title>
<path fill="none" stroke="#191970" d="M190.1444,-38.2366C198.7619,-39.0314 207.4061,-39.8287 215.8355,-40.6062"/>
<polygon fill="#191970" stroke="#191970" points="190.3341,-34.7394 180.0549,-37.306 189.6912,-41.7098 190.3341,-34.7394"/>
</g>
<!-- Node515 -->
<g id="node4" class="node">
<title>Node515</title>
<g id="a_node4"><a xlink:href="classVideoIO.html#adca60a99be6e51d8af7ce2a32f92349a" target="_top" xlink:title="VideoIO::DrawLoop">
<polygon fill="#ffffff" stroke="#000000" points="241,-.5 241,-19.5 351,-19.5 351,-.5 241,-.5"/>
<text text-anchor="middle" x="296" y="-7.5" font-family="Helvetica,sans-Serif" font-size="10.00" fill="#000000">VideoIO::DrawLoop</text>
</a>
</g>
</g>
<!-- Node512&#45;&gt;Node515 -->
<g id="edge3" class="edge">
<title>Node512&#45;&gt;Node515</title>
<path fill="none" stroke="#191970" d="M190.2747,-19.7514C207.678,-18.1462 225.1852,-16.5315 240.8069,-15.0906"/>
<polygon fill="#191970" stroke="#191970" points="189.6912,-16.2902 180.0549,-20.694 190.3341,-23.2607 189.6912,-16.2902"/>
</g>
<!-- Node514 -->
<g id="node3" class="node">
<title>Node514</title>
<g id="a_node3"><a xlink:href="classOSCClient.html#a8b38ea5b76702f9e763daeb694091116" target="_top" xlink:title="OSCClient::ReceiveEvent">
<polygon fill="#ffffff" stroke="#000000" points="412,-38.5 412,-57.5 549,-57.5 549,-38.5 412,-38.5"/>
<text text-anchor="middle" x="480.5" y="-45.5" font-family="Helvetica,sans-Serif" font-size="10.00" fill="#000000">OSCClient::ReceiveEvent</text>
</a>
</g>
</g>
<!-- Node513&#45;&gt;Node514 -->
<g id="edge2" class="edge">
<title>Node513&#45;&gt;Node514</title>
<path fill="none" stroke="#191970" d="M386.1768,-48C394.7687,-48 403.3847,-48 411.7263,-48"/>
<polygon fill="#191970" stroke="#191970" points="386.1195,-44.5001 376.1195,-48 386.1194,-51.5001 386.1195,-44.5001"/>
</g>
</g>
</svg>
