<?xml version="1.0" encoding="UTF-8" standalone="no"?>
<!DOCTYPE svg PUBLIC "-//W3C//DTD SVG 1.1//EN"
 "http://www.w3.org/Graphics/SVG/1.1/DTD/svg11.dtd">
<!-- Generated by graphviz version 2.40.1 (20161225.0304)
 -->
<!-- Title: EventParameter Pages: 1 -->
<svg width="278pt" height="171pt"
 viewBox="0.00 0.00 278.00 171.00" xmlns="http://www.w3.org/2000/svg" xmlns:xlink="http://www.w3.org/1999/xlink">
<g id="graph0" class="graph" transform="scale(1 1) rotate(0) translate(4 167)">
<title>EventParameter</title>
<polygon fill="#ffffff" stroke="transparent" points="-4,4 -4,-167 274,-167 274,4 -4,4"/>
<!-- Node1 -->
<g id="node1" class="node">
<title>Node1</title>
<polygon fill="#bfbfbf" stroke="#000000" points="69.5,-.5 69.5,-57.5 182.5,-57.5 182.5,-.5 69.5,-.5"/>
<text text-anchor="middle" x="126" y="-45.5" font-family="Helvetica,sans-Serif" font-size="10.00" fill="#000000">EventParameter</text>
<polyline fill="none" stroke="#000000" points="69.5,-38.5 182.5,-38.5 "/>
<text text-anchor="middle" x="126" y="-26.5" font-family="Helvetica,sans-Serif" font-size="10.00" fill="#000000"> </text>
<polyline fill="none" stroke="#000000" points="69.5,-19.5 182.5,-19.5 "/>
<text text-anchor="start" x="77.5" y="-7.5" font-family="Helvetica,sans-Serif" font-size="10.00" fill="#000000">+ EventParameter()</text>
</g>
<!-- Node2 -->
<g id="node2" class="node">
<title>Node2</title>
<polygon fill="#ffffff" stroke="#bfbfbf" points="0,-105.5 0,-162.5 38,-162.5 38,-105.5 0,-105.5"/>
<text text-anchor="middle" x="19" y="-150.5" font-family="Helvetica,sans-Serif" font-size="10.00" fill="#000000">char</text>
<polyline fill="none" stroke="#bfbfbf" points="0,-143.5 38,-143.5 "/>
<text text-anchor="middle" x="19" y="-131.5" font-family="Helvetica,sans-Serif" font-size="10.00" fill="#000000"> </text>
<polyline fill="none" stroke="#bfbfbf" points="0,-124.5 38,-124.5 "/>
<text text-anchor="middle" x="19" y="-112.5" font-family="Helvetica,sans-Serif" font-size="10.00" fill="#000000"> </text>
</g>
<!-- Node2&#45;&gt;Node1 -->
<g id="edge1" class="edge">
<title>Node2&#45;&gt;Node1</title>
<path fill="none" stroke="#404040" d="M22.1164,-105.2679C24.3837,-95.1621 28.2872,-84.2738 35,-76 41.5223,-67.961 49.7844,-61.1476 58.6576,-55.4182"/>
<polygon fill="none" stroke="#404040" points="58.9371,-55.2543 62.088,-48.768 69.2872,-49.1818 66.1363,-55.6681 58.9371,-55.2543"/>
<text text-anchor="middle" x="55" y="-79" font-family="Helvetica,sans-Serif" font-size="10.00" fill="#000000"> +name</text>
</g>
<!-- Node3 -->
<g id="node3" class="node">
<title>Node3</title>
<polygon fill="#ffffff" stroke="#bfbfbf" points="67.5,-105.5 67.5,-162.5 96.5,-162.5 96.5,-105.5 67.5,-105.5"/>
<text text-anchor="middle" x="82" y="-150.5" font-family="Helvetica,sans-Serif" font-size="10.00" fill="#000000">int</text>
<polyline fill="none" stroke="#bfbfbf" points="67.5,-143.5 96.5,-143.5 "/>
<text text-anchor="middle" x="82" y="-131.5" font-family="Helvetica,sans-Serif" font-size="10.00" fill="#000000"> </text>
<polyline fill="none" stroke="#bfbfbf" points="67.5,-124.5 96.5,-124.5 "/>
<text text-anchor="middle" x="82" y="-112.5" font-family="Helvetica,sans-Serif" font-size="10.00" fill="#000000"> </text>
</g>
<!-- Node3&#45;&gt;Node1 -->
<g id="edge2" class="edge">
<title>Node3&#45;&gt;Node1</title>
<path fill="none" stroke="#404040" d="M78.4984,-105.469C78.3447,-95.8173 79.3473,-85.1687 83,-76 84.1461,-73.1232 85.5558,-70.3135 87.1579,-67.5906"/>
<polygon fill="none" stroke="#404040" points="87.284,-67.4093 87.4286,-60.1997 94.1392,-57.5602 93.9947,-64.7698 87.284,-67.4093"/>
<text text-anchor="middle" x="116" y="-79" font-family="Helvetica,sans-Serif" font-size="10.00" fill="#000000"> +max_index</text>
</g>
<!-- Node4 -->
<g id="node4" class="node">
<title>Node4</title>
<polygon fill="#ffffff" stroke="#bfbfbf" points="128.5,-105.5 128.5,-162.5 213.5,-162.5 213.5,-105.5 128.5,-105.5"/>
<text text-anchor="middle" x="171" y="-150.5" font-family="Helvetica,sans-Serif" font-size="10.00" fill="#000000">CoreDataType</text>
<polyline fill="none" stroke="#bfbfbf" points="128.5,-143.5 213.5,-143.5 "/>
<text text-anchor="middle" x="171" y="-131.5" font-family="Helvetica,sans-Serif" font-size="10.00" fill="#000000"> </text>
<polyline fill="none" stroke="#bfbfbf" points="128.5,-124.5 213.5,-124.5 "/>
<text text-anchor="middle" x="171" y="-112.5" font-family="Helvetica,sans-Serif" font-size="10.00" fill="#000000"> </text>
</g>
<!-- Node4&#45;&gt;Node1 -->
<g id="edge3" class="edge">
<title>Node4&#45;&gt;Node1</title>
<path fill="none" stroke="#404040" d="M160.7773,-105.4688C157.2312,-96.0146 153.1099,-85.4867 149,-76 147.9437,-73.5618 146.8285,-71.0672 145.6817,-68.5609"/>
<polygon fill="none" stroke="#404040" points="145.6494,-68.4923 139.4739,-64.769 140.5357,-57.6364 146.7112,-61.3598 145.6494,-68.4923"/>
<text text-anchor="middle" x="173" y="-79" font-family="Helvetica,sans-Serif" font-size="10.00" fill="#000000"> +dtype</text>
</g>
<!-- Node5 -->
<g id="node5" class="node">
<title>Node5</title>
<polygon fill="#ffffff" stroke="#bfbfbf" points="232,-105.5 232,-162.5 270,-162.5 270,-105.5 232,-105.5"/>
<text text-anchor="middle" x="251" y="-150.5" font-family="Helvetica,sans-Serif" font-size="10.00" fill="#000000">long</text>
<polyline fill="none" stroke="#bfbfbf" points="232,-143.5 270,-143.5 "/>
<text text-anchor="middle" x="251" y="-131.5" font-family="Helvetica,sans-Serif" font-size="10.00" fill="#000000"> </text>
<polyline fill="none" stroke="#bfbfbf" points="232,-124.5 270,-124.5 "/>
<text text-anchor="middle" x="251" y="-112.5" font-family="Helvetica,sans-Serif" font-size="10.00" fill="#000000"> </text>
</g>
<!-- Node5&#45;&gt;Node1 -->
<g id="edge4" class="edge">
<title>Node5&#45;&gt;Node1</title>
<path fill="none" stroke="#404040" d="M231.8892,-111.0397C222.0378,-99.8605 209.4912,-86.5837 197,-76 192.3953,-72.0984 187.4534,-68.2459 182.399,-64.5259"/>
<polygon fill="none" stroke="#404040" points="182.3792,-64.5119 175.1713,-64.2947 172.5996,-57.5577 179.8074,-57.7749 182.3792,-64.5119"/>
<text text-anchor="middle" x="221.5" y="-79" font-family="Helvetica,sans-Serif" font-size="10.00" fill="#000000"> +ofs</text>
</g>
</g>
</svg>
