<?xml version="1.0" encoding="UTF-8" standalone="no"?>
<!DOCTYPE svg PUBLIC "-//W3C//DTD SVG 1.1//EN"
 "http://www.w3.org/Graphics/SVG/1.1/DTD/svg11.dtd">
<!-- Generated by graphviz version 2.40.1 (20161225.0304)
 -->
<!-- Title: Browser::AddItem Pages: 1 -->
<svg width="727pt" height="116pt"
 viewBox="0.00 0.00 727.00 115.50" xmlns="http://www.w3.org/2000/svg" xmlns:xlink="http://www.w3.org/1999/xlink">
<g id="graph0" class="graph" transform="scale(1 1) rotate(0) translate(4 111.5)">
<title>Browser::AddItem</title>
<polygon fill="#ffffff" stroke="transparent" points="-4,4 -4,-111.5 723,-111.5 723,4 -4,4"/>
<!-- Node17 -->
<g id="node1" class="node">
<title>Node17</title>
<polygon fill="#bfbfbf" stroke="#000000" points="0,-38.5 0,-57.5 104,-57.5 104,-38.5 0,-38.5"/>
<text text-anchor="middle" x="52" y="-45.5" font-family="Helvetica,sans-Serif" font-size="10.00" fill="#000000">Browser::AddItem</text>
</g>
<!-- Node18 -->
<g id="node2" class="node">
<title>Node18</title>
<g id="a_node2"><a xlink:href="classFloConfig.html#a68d751b6f2a72fbec8cab3dbcd92b684" target="_top" xlink:title="FloConfig::ConfigurePatch\lBanks">
<polygon fill="#ffffff" stroke="#000000" points="163,-77 163,-107 303,-107 303,-77 163,-77"/>
<text text-anchor="start" x="171" y="-95" font-family="Helvetica,sans-Serif" font-size="10.00" fill="#000000">FloConfig::ConfigurePatch</text>
<text text-anchor="middle" x="233" y="-84" font-family="Helvetica,sans-Serif" font-size="10.00" fill="#000000">Banks</text>
</a>
</g>
</g>
<!-- Node17&#45;&gt;Node18 -->
<g id="edge1" class="edge">
<title>Node17&#45;&gt;Node18</title>
<path fill="none" stroke="#191970" d="M101.1787,-59.955C122.7101,-65.1892 148.2151,-71.3893 171.0266,-76.9346"/>
<polygon fill="#191970" stroke="#191970" points="101.8181,-56.5086 91.2743,-57.5473 100.1645,-63.3105 101.8181,-56.5086"/>
</g>
<!-- Node19 -->
<g id="node3" class="node">
<title>Node19</title>
<g id="a_node3"><a xlink:href="classLoopManager.html#a175985d1a7e21f019251ff996217cbb0" target="_top" xlink:title="LoopManager::AddLoopToBrowser">
<polygon fill="#ffffff" stroke="#000000" points="143,-38.5 143,-57.5 323,-57.5 323,-38.5 143,-38.5"/>
<text text-anchor="middle" x="233" y="-45.5" font-family="Helvetica,sans-Serif" font-size="10.00" fill="#000000">LoopManager::AddLoopToBrowser</text>
</a>
</g>
</g>
<!-- Node17&#45;&gt;Node19 -->
<g id="edge2" class="edge">
<title>Node17&#45;&gt;Node19</title>
<path fill="none" stroke="#191970" d="M114.5148,-48C123.6964,-48 133.3043,-48 142.906,-48"/>
<polygon fill="#191970" stroke="#191970" points="114.3527,-44.5001 104.3527,-48 114.3527,-51.5001 114.3527,-44.5001"/>
</g>
<!-- Node22 -->
<g id="node6" class="node">
<title>Node22</title>
<g id="a_node6"><a xlink:href="classLoopManager.html#a0c2604681ae7de5415cef3f2690e4a0c" target="_top" xlink:title="LoopManager::AddSceneToBrowser">
<polygon fill="#ffffff" stroke="#000000" points="140,-.5 140,-19.5 326,-19.5 326,-.5 140,-.5"/>
<text text-anchor="middle" x="233" y="-7.5" font-family="Helvetica,sans-Serif" font-size="10.00" fill="#000000">LoopManager::AddSceneToBrowser</text>
</a>
</g>
</g>
<!-- Node17&#45;&gt;Node22 -->
<g id="edge5" class="edge">
<title>Node17&#45;&gt;Node22</title>
<path fill="none" stroke="#191970" d="M105.6354,-36.3202C116.9777,-33.8782 128.8794,-31.3364 140,-29 154.8371,-25.8828 171.021,-22.5522 185.6675,-19.5642"/>
<polygon fill="#191970" stroke="#191970" points="104.8823,-32.9021 95.8457,-38.4329 106.359,-39.7446 104.8823,-32.9021"/>
</g>
<!-- Node20 -->
<g id="node4" class="node">
<title>Node20</title>
<g id="a_node4"><a xlink:href="classLoopManager.html#a306ffe72c9623e33cad280ec3609c359" target="_top" xlink:title="LoopManager::SetupSaveLoop">
<polygon fill="#ffffff" stroke="#000000" points="362,-38.5 362,-57.5 525,-57.5 525,-38.5 362,-38.5"/>
<text text-anchor="middle" x="443.5" y="-45.5" font-family="Helvetica,sans-Serif" font-size="10.00" fill="#000000">LoopManager::SetupSaveLoop</text>
</a>
</g>
</g>
<!-- Node19&#45;&gt;Node20 -->
<g id="edge3" class="edge">
<title>Node19&#45;&gt;Node20</title>
<path fill="none" stroke="#191970" d="M333.4629,-48C342.9652,-48 352.5197,-48 361.8157,-48"/>
<polygon fill="#191970" stroke="#191970" points="333.187,-44.5001 323.187,-48 333.187,-51.5001 333.187,-44.5001"/>
</g>
<!-- Node21 -->
<g id="node5" class="node">
<title>Node21</title>
<g id="a_node5"><a xlink:href="classLoopManager.html#a00143be12c150c0a89c4f99c1e8d5e70" target="_top" xlink:title="LoopManager::GetWriteBlock">
<polygon fill="#ffffff" stroke="#000000" points="561,-19.5 561,-38.5 719,-38.5 719,-19.5 561,-19.5"/>
<text text-anchor="middle" x="640" y="-26.5" font-family="Helvetica,sans-Serif" font-size="10.00" fill="#000000">LoopManager::GetWriteBlock</text>
</a>
</g>
</g>
<!-- Node20&#45;&gt;Node21 -->
<g id="edge4" class="edge">
<title>Node20&#45;&gt;Node21</title>
<path fill="none" stroke="#191970" d="M535.1537,-39.1378C543.7352,-38.308 552.3841,-37.4718 560.8369,-36.6544"/>
<polygon fill="#191970" stroke="#191970" points="534.7433,-35.6611 525.1266,-40.1074 535.4171,-42.6286 534.7433,-35.6611"/>
</g>
<!-- Node23 -->
<g id="node7" class="node">
<title>Node23</title>
<g id="a_node7"><a xlink:href="classTriggerMap.html#a92e251eec5a7c5741807805b6869fab8" target="_top" xlink:title="TriggerMap::GoSave">
<polygon fill="#ffffff" stroke="#000000" points="387,-.5 387,-19.5 500,-19.5 500,-.5 387,-.5"/>
<text text-anchor="middle" x="443.5" y="-7.5" font-family="Helvetica,sans-Serif" font-size="10.00" fill="#000000">TriggerMap::GoSave</text>
</a>
</g>
</g>
<!-- Node22&#45;&gt;Node23 -->
<g id="edge6" class="edge">
<title>Node22&#45;&gt;Node23</title>
<path fill="none" stroke="#191970" d="M336.4595,-10C353.8407,-10 371.2871,-10 386.9017,-10"/>
<polygon fill="#191970" stroke="#191970" points="336.2477,-6.5001 326.2476,-10 336.2476,-13.5001 336.2477,-6.5001"/>
</g>
<!-- Node23&#45;&gt;Node21 -->
<g id="edge7" class="edge">
<title>Node23&#45;&gt;Node21</title>
<path fill="none" stroke="#191970" d="M510.0413,-16.434C526.3532,-18.0112 543.9711,-19.7148 560.812,-21.3431"/>
<polygon fill="#191970" stroke="#191970" points="510.3628,-12.9489 500.0723,-15.4701 509.689,-19.9164 510.3628,-12.9489"/>
</g>
</g>
</svg>
