<?xml version="1.0" encoding="UTF-8" standalone="no"?>
<!DOCTYPE svg PUBLIC "-//W3C//DTD SVG 1.1//EN"
 "http://www.w3.org/Graphics/SVG/1.1/DTD/svg11.dtd">
<!-- Generated by graphviz version 2.40.1 (20161225.0304)
 -->
<!-- Title: PatchBrowser::Setup Pages: 1 -->
<svg width="435pt" height="75pt"
 viewBox="0.00 0.00 435.00 75.00" xmlns="http://www.w3.org/2000/svg" xmlns:xlink="http://www.w3.org/1999/xlink">
<g id="graph0" class="graph" transform="scale(1 1) rotate(0) translate(4 71)">
<title>PatchBrowser::Setup</title>
<polygon fill="#ffffff" stroke="transparent" points="-4,4 -4,-71 431,-71 431,4 -4,4"/>
<!-- Node43 -->
<g id="node1" class="node">
<title>Node43</title>
<polygon fill="#bfbfbf" stroke="#000000" points="0,-28.5 0,-47.5 116,-47.5 116,-28.5 0,-28.5"/>
<text text-anchor="middle" x="58" y="-35.5" font-family="Helvetica,sans-Serif" font-size="10.00" fill="#000000">PatchBrowser::Setup</text>
</g>
<!-- Node44 -->
<g id="node2" class="node">
<title>Node44</title>
<g id="a_node2"><a xlink:href="classBrowser.html#a8e239fa3c820e6217144facca1c5f7f6" target="_top" xlink:title="Browser::Setup">
<polygon fill="#ffffff" stroke="#000000" points="152,-28.5 152,-47.5 242,-47.5 242,-28.5 152,-28.5"/>
<text text-anchor="middle" x="197" y="-35.5" font-family="Helvetica,sans-Serif" font-size="10.00" fill="#000000">Browser::Setup</text>
</a>
</g>
</g>
<!-- Node43&#45;&gt;Node44 -->
<g id="edge1" class="edge">
<title>Node43&#45;&gt;Node44</title>
<path fill="none" stroke="#191970" d="M116.1431,-38C124.6054,-38 133.2986,-38 141.7024,-38"/>
<polygon fill="#191970" stroke="#191970" points="141.7747,-41.5001 151.7746,-38 141.7746,-34.5001 141.7747,-41.5001"/>
</g>
<!-- Node45 -->
<g id="node3" class="node">
<title>Node45</title>
<g id="a_node3"><a xlink:href="classFweelin.html#a21e51d7b639faaecc415624ab6c16a71" target="_top" xlink:title="Fweelin::getEMG">
<polygon fill="#ffffff" stroke="#000000" points="303.5,-47.5 303.5,-66.5 401.5,-66.5 401.5,-47.5 303.5,-47.5"/>
<text text-anchor="middle" x="352.5" y="-54.5" font-family="Helvetica,sans-Serif" font-size="10.00" fill="#000000">Fweelin::getEMG</text>
</a>
</g>
</g>
<!-- Node43&#45;&gt;Node45 -->
<g id="edge4" class="edge">
<title>Node43&#45;&gt;Node45</title>
<path fill="none" stroke="#191970" d="M96.1541,-47.5098C113.1337,-51.2748 133.4452,-55.1436 152,-57 199.3158,-61.734 253.2275,-61.4157 293.2221,-60.089"/>
<polygon fill="#191970" stroke="#191970" points="293.4701,-63.5824 303.3367,-59.7223 293.2164,-56.587 293.4701,-63.5824"/>
</g>
<!-- Node46 -->
<g id="node4" class="node">
<title>Node46</title>
<g id="a_node4"><a xlink:href="classEventManager.html#a900be2c959408f76e6926c96197bd773" target="_top" xlink:title="EventManager::ListenEvent">
<polygon fill="#ffffff" stroke="#000000" points="278,-.5 278,-19.5 427,-19.5 427,-.5 278,-.5"/>
<text text-anchor="middle" x="352.5" y="-7.5" font-family="Helvetica,sans-Serif" font-size="10.00" fill="#000000">EventManager::ListenEvent</text>
</a>
</g>
</g>
<!-- Node43&#45;&gt;Node46 -->
<g id="edge5" class="edge">
<title>Node43&#45;&gt;Node46</title>
<path fill="none" stroke="#191970" d="M98.0306,-28.4884C114.6339,-24.9149 134.1525,-21.191 152,-19 189.6153,-14.3823 231.4594,-12.0638 267.1493,-10.9244"/>
<polygon fill="#191970" stroke="#191970" points="267.6354,-14.4117 277.5285,-10.6203 267.4303,-7.4147 267.6354,-14.4117"/>
</g>
<!-- Node44&#45;&gt;Node45 -->
<g id="edge2" class="edge">
<title>Node44&#45;&gt;Node45</title>
<path fill="none" stroke="#191970" d="M242.3951,-43.5467C258.2075,-45.4787 276.193,-47.6763 292.9776,-49.7272"/>
<polygon fill="#191970" stroke="#191970" points="292.8922,-53.2427 303.2429,-50.9815 293.7413,-46.2944 292.8922,-53.2427"/>
</g>
<!-- Node44&#45;&gt;Node46 -->
<g id="edge3" class="edge">
<title>Node44&#45;&gt;Node46</title>
<path fill="none" stroke="#191970" d="M242.3951,-29.826C257.1023,-27.1777 273.6896,-24.1909 289.4418,-21.3545"/>
<polygon fill="#191970" stroke="#191970" points="290.4232,-24.7342 299.6446,-19.5174 289.1826,-17.845 290.4232,-24.7342"/>
</g>
</g>
</svg>
