<?xml version="1.0" encoding="UTF-8" standalone="no"?>
<!DOCTYPE svg PUBLIC "-//W3C//DTD SVG 1.1//EN"
 "http://www.w3.org/Graphics/SVG/1.1/DTD/svg11.dtd">
<!-- Generated by graphviz version 2.40.1 (20161225.0304)
 -->
<!-- Title: InputMatrix Pages: 1 -->
<svg width="214pt" height="369pt"
 viewBox="0.00 0.00 214.00 369.00" xmlns="http://www.w3.org/2000/svg" xmlns:xlink="http://www.w3.org/1999/xlink">
<g id="graph0" class="graph" transform="scale(1 1) rotate(0) translate(4 365)">
<title>InputMatrix</title>
<polygon fill="#ffffff" stroke="transparent" points="-4,4 -4,-365 210,-365 210,4 -4,4"/>
<!-- Node0 -->
<g id="node1" class="node">
<title>Node0</title>
<polygon fill="#bfbfbf" stroke="#000000" points="26.5,-.5 26.5,-266.5 172.5,-266.5 172.5,-.5 26.5,-.5"/>
<text text-anchor="middle" x="99.5" y="-254.5" font-family="Helvetica,sans-Serif" font-size="10.00" fill="#000000">InputMatrix</text>
<polyline fill="none" stroke="#000000" points="26.5,-247.5 172.5,-247.5 "/>
<text text-anchor="start" x="34.5" y="-235.5" font-family="Helvetica,sans-Serif" font-size="10.00" fill="#000000">+ vars</text>
<text text-anchor="start" x="34.5" y="-224.5" font-family="Helvetica,sans-Serif" font-size="10.00" fill="#000000">+ app</text>
<text text-anchor="start" x="34.5" y="-213.5" font-family="Helvetica,sans-Serif" font-size="10.00" fill="#000000">&#45; input_bind</text>
<polyline fill="none" stroke="#000000" points="26.5,-206.5 172.5,-206.5 "/>
<text text-anchor="start" x="34.5" y="-194.5" font-family="Helvetica,sans-Serif" font-size="10.00" fill="#000000">+ InputMatrix()</text>
<text text-anchor="start" x="34.5" y="-183.5" font-family="Helvetica,sans-Serif" font-size="10.00" fill="#000000">+ ~InputMatrix()</text>
<text text-anchor="start" x="34.5" y="-172.5" font-family="Helvetica,sans-Serif" font-size="10.00" fill="#000000">+ SetVariable()</text>
<text text-anchor="start" x="34.5" y="-161.5" font-family="Helvetica,sans-Serif" font-size="10.00" fill="#000000">+ CreateVariable()</text>
<text text-anchor="start" x="34.5" y="-150.5" font-family="Helvetica,sans-Serif" font-size="10.00" fill="#000000">+ CreateBinding()</text>
<text text-anchor="start" x="34.5" y="-139.5" font-family="Helvetica,sans-Serif" font-size="10.00" fill="#000000">+ CheckConditions()</text>
<text text-anchor="start" x="34.5" y="-128.5" font-family="Helvetica,sans-Serif" font-size="10.00" fill="#000000">+ ReceiveEvent()</text>
<text text-anchor="start" x="34.5" y="-117.5" font-family="Helvetica,sans-Serif" font-size="10.00" fill="#000000">+ Start()</text>
<text text-anchor="start" x="34.5" y="-106.5" font-family="Helvetica,sans-Serif" font-size="10.00" fill="#000000">+ ParseExpression()</text>
<text text-anchor="start" x="34.5" y="-95.5" font-family="Helvetica,sans-Serif" font-size="10.00" fill="#000000">&#45; RemoveSpaces()</text>
<text text-anchor="start" x="34.5" y="-84.5" font-family="Helvetica,sans-Serif" font-size="10.00" fill="#000000">&#45; AddOneKey()</text>
<text text-anchor="start" x="34.5" y="-73.5" font-family="Helvetica,sans-Serif" font-size="10.00" fill="#000000">&#45; ExtractKeys()</text>
<text text-anchor="start" x="34.5" y="-62.5" font-family="Helvetica,sans-Serif" font-size="10.00" fill="#000000">&#45; ParseToken()</text>
<text text-anchor="start" x="34.5" y="-51.5" font-family="Helvetica,sans-Serif" font-size="10.00" fill="#000000">&#45; StoreParameter()</text>
<text text-anchor="start" x="34.5" y="-40.5" font-family="Helvetica,sans-Serif" font-size="10.00" fill="#000000">&#45; SetDynamicParameters()</text>
<text text-anchor="start" x="34.5" y="-29.5" font-family="Helvetica,sans-Serif" font-size="10.00" fill="#000000">&#45; CreateParameterSets()</text>
<text text-anchor="start" x="34.5" y="-18.5" font-family="Helvetica,sans-Serif" font-size="10.00" fill="#000000">&#45; CreateConditions()</text>
<text text-anchor="start" x="34.5" y="-7.5" font-family="Helvetica,sans-Serif" font-size="10.00" fill="#000000">&#45; MatchBinding()</text>
</g>
<!-- Node1 -->
<g id="node2" class="node">
<title>Node1</title>
<g id="a_node2"><a xlink:href="classEventProducer.html" target="_top" xlink:title="{EventProducer\n||}">
<polygon fill="#ffffff" stroke="#000000" points="0,-303.5 0,-360.5 87,-360.5 87,-303.5 0,-303.5"/>
<text text-anchor="middle" x="43.5" y="-348.5" font-family="Helvetica,sans-Serif" font-size="10.00" fill="#000000">EventProducer</text>
<polyline fill="none" stroke="#000000" points="0,-341.5 87,-341.5 "/>
<text text-anchor="middle" x="43.5" y="-329.5" font-family="Helvetica,sans-Serif" font-size="10.00" fill="#000000"> </text>
<polyline fill="none" stroke="#000000" points="0,-322.5 87,-322.5 "/>
<text text-anchor="middle" x="43.5" y="-310.5" font-family="Helvetica,sans-Serif" font-size="10.00" fill="#000000"> </text>
</a>
</g>
</g>
<!-- Node1&#45;&gt;Node0 -->
<g id="edge1" class="edge">
<title>Node1&#45;&gt;Node0</title>
<path fill="none" stroke="#191970" d="M54.4142,-293.3132C56.7141,-285.1609 59.2629,-276.126 61.9447,-266.6202"/>
<polygon fill="none" stroke="#191970" points="50.9896,-292.5617 51.6429,-303.1364 57.7266,-294.4624 50.9896,-292.5617"/>
</g>
<!-- Node2 -->
<g id="node3" class="node">
<title>Node2</title>
<g id="a_node3"><a xlink:href="classEventListener.html" target="_top" xlink:title="{EventListener\n||+ ReceiveEvent()\l}">
<polygon fill="#ffffff" stroke="#000000" points="105,-303.5 105,-360.5 206,-360.5 206,-303.5 105,-303.5"/>
<text text-anchor="middle" x="155.5" y="-348.5" font-family="Helvetica,sans-Serif" font-size="10.00" fill="#000000">EventListener</text>
<polyline fill="none" stroke="#000000" points="105,-341.5 206,-341.5 "/>
<text text-anchor="middle" x="155.5" y="-329.5" font-family="Helvetica,sans-Serif" font-size="10.00" fill="#000000"> </text>
<polyline fill="none" stroke="#000000" points="105,-322.5 206,-322.5 "/>
<text text-anchor="start" x="113" y="-310.5" font-family="Helvetica,sans-Serif" font-size="10.00" fill="#000000">+ ReceiveEvent()</text>
</a>
</g>
</g>
<!-- Node2&#45;&gt;Node0 -->
<g id="edge2" class="edge">
<title>Node2&#45;&gt;Node0</title>
<path fill="none" stroke="#191970" d="M144.5858,-293.3132C142.2859,-285.1609 139.7371,-276.126 137.0553,-266.6202"/>
<polygon fill="none" stroke="#191970" points="141.2734,-294.4624 147.3571,-303.1364 148.0104,-292.5617 141.2734,-294.4624"/>
</g>
</g>
</svg>
