<?xml version="1.0" encoding="UTF-8" standalone="no"?>
<!DOCTYPE svg PUBLIC "-//W3C//DTD SVG 1.1//EN"
 "http://www.w3.org/Graphics/SVG/1.1/DTD/svg11.dtd">
<!-- Generated by graphviz version 2.40.1 (20161225.0304)
 -->
<!-- Title: Fweelin::ToggleDiskOutput Pages: 1 -->
<svg width="540pt" height="66pt"
 viewBox="0.00 0.00 540.00 66.00" xmlns="http://www.w3.org/2000/svg" xmlns:xlink="http://www.w3.org/1999/xlink">
<g id="graph0" class="graph" transform="scale(1 1) rotate(0) translate(4 62)">
<title>Fweelin::ToggleDiskOutput</title>
<polygon fill="#ffffff" stroke="transparent" points="-4,4 -4,-62 536,-62 536,4 -4,4"/>
<!-- Node644 -->
<g id="node1" class="node">
<title>Node644</title>
<polygon fill="#bfbfbf" stroke="#000000" points="0,-19.5 0,-38.5 146,-38.5 146,-19.5 0,-19.5"/>
<text text-anchor="middle" x="73" y="-26.5" font-family="Helvetica,sans-Serif" font-size="10.00" fill="#000000">Fweelin::ToggleDiskOutput</text>
</g>
<!-- Node645 -->
<g id="node2" class="node">
<title>Node645</title>
<g id="a_node2"><a xlink:href="classLibraryHelper.html#a7fcac5fdf997c87d1d968e16b473f753" target="_top" xlink:title="LibraryHelper::GetNextAvailable\lStreamOutFilename">
<polygon fill="#ffffff" stroke="#000000" points="182,-14 182,-44 356,-44 356,-14 182,-14"/>
<text text-anchor="start" x="190" y="-32" font-family="Helvetica,sans-Serif" font-size="10.00" fill="#000000">LibraryHelper::GetNextAvailable</text>
<text text-anchor="middle" x="269" y="-21" font-family="Helvetica,sans-Serif" font-size="10.00" fill="#000000">StreamOutFilename</text>
</a>
</g>
</g>
<!-- Node644&#45;&gt;Node645 -->
<g id="edge1" class="edge">
<title>Node644&#45;&gt;Node645</title>
<path fill="none" stroke="#191970" d="M146.2619,-29C154.6241,-29 163.2434,-29 171.8539,-29"/>
<polygon fill="#191970" stroke="#191970" points="171.942,-32.5001 181.942,-29 171.942,-25.5001 171.942,-32.5001"/>
</g>
<!-- Node646 -->
<g id="node3" class="node">
<title>Node646</title>
<g id="a_node3"><a xlink:href="classFweelin.html#a681d7ca8d0789199af135f22c26a5409" target="_top" xlink:title="Fweelin::getCFG">
<polygon fill="#ffffff" stroke="#000000" points="414.5,-38.5 414.5,-57.5 509.5,-57.5 509.5,-38.5 414.5,-38.5"/>
<text text-anchor="middle" x="462" y="-45.5" font-family="Helvetica,sans-Serif" font-size="10.00" fill="#000000">Fweelin::getCFG</text>
</a>
</g>
</g>
<!-- Node645&#45;&gt;Node646 -->
<g id="edge2" class="edge">
<title>Node645&#45;&gt;Node646</title>
<path fill="none" stroke="#191970" d="M356.1833,-37.5828C372.4164,-39.1809 389.0043,-40.8139 404.0867,-42.2987"/>
<polygon fill="#191970" stroke="#191970" points="403.9702,-45.8041 414.265,-43.3007 404.6561,-38.8377 403.9702,-45.8041"/>
</g>
<!-- Node647 -->
<g id="node4" class="node">
<title>Node647</title>
<g id="a_node4"><a xlink:href="classFloConfig.html#a9acc5e0790ab29fe30856d58c5ffa0e8" target="_top" xlink:title="FloConfig::GetLibraryPath">
<polygon fill="#ffffff" stroke="#000000" points="392,-.5 392,-19.5 532,-19.5 532,-.5 392,-.5"/>
<text text-anchor="middle" x="462" y="-7.5" font-family="Helvetica,sans-Serif" font-size="10.00" fill="#000000">FloConfig::GetLibraryPath</text>
</a>
</g>
</g>
<!-- Node645&#45;&gt;Node647 -->
<g id="edge3" class="edge">
<title>Node645&#45;&gt;Node647</title>
<path fill="none" stroke="#191970" d="M356.1833,-20.4172C364.7057,-19.5782 373.3258,-18.7296 381.7746,-17.8978"/>
<polygon fill="#191970" stroke="#191970" points="382.3682,-21.3564 391.9772,-16.8934 381.6823,-14.3901 382.3682,-21.3564"/>
</g>
</g>
</svg>
