<?xml version="1.0" encoding="UTF-8" standalone="no"?>
<!DOCTYPE svg PUBLIC "-//W3C//DTD SVG 1.1//EN"
 "http://www.w3.org/Graphics/SVG/1.1/DTD/svg11.dtd">
<!-- Generated by graphviz version 2.40.1 (20161225.0304)
 -->
<!-- Title: LoopManager::GetOutputVolume Pages: 1 -->
<svg width="724pt" height="47pt"
 viewBox="0.00 0.00 724.00 47.00" xmlns="http://www.w3.org/2000/svg" xmlns:xlink="http://www.w3.org/1999/xlink">
<g id="graph0" class="graph" transform="scale(1 1) rotate(0) translate(4 43)">
<title>LoopManager::GetOutputVolume</title>
<polygon fill="#ffffff" stroke="transparent" points="-4,4 -4,-43 720,-43 720,4 -4,4"/>
<!-- Node424 -->
<g id="node1" class="node">
<title>Node424</title>
<polygon fill="#bfbfbf" stroke="#000000" points="0,-.5 0,-19.5 175,-19.5 175,-.5 0,-.5"/>
<text text-anchor="middle" x="87.5" y="-7.5" font-family="Helvetica,sans-Serif" font-size="10.00" fill="#000000">LoopManager::GetOutputVolume</text>
</g>
<!-- Node425 -->
<g id="node2" class="node">
<title>Node425</title>
<g id="a_node2"><a xlink:href="classLoopManager.html#a861cdd2ace9aeb53b4ecf92728215265" target="_top" xlink:title="LoopManager::Deactivate">
<polygon fill="#ffffff" stroke="#000000" points="211,-.5 211,-19.5 352,-19.5 352,-.5 211,-.5"/>
<text text-anchor="middle" x="281.5" y="-7.5" font-family="Helvetica,sans-Serif" font-size="10.00" fill="#000000">LoopManager::Deactivate</text>
</a>
</g>
</g>
<!-- Node424&#45;&gt;Node425 -->
<g id="edge1" class="edge">
<title>Node424&#45;&gt;Node425</title>
<path fill="none" stroke="#191970" d="M185.2462,-10C193.8703,-10 202.4865,-10 210.8221,-10"/>
<polygon fill="#191970" stroke="#191970" points="185.1351,-6.5001 175.1351,-10 185.135,-13.5001 185.1351,-6.5001"/>
</g>
<!-- Node426 -->
<g id="node3" class="node">
<title>Node426</title>
<g id="a_node3"><a xlink:href="classFweelin.html#a4654015e2bc7cc94f3bfc421899a60d3" target="_top" xlink:title="Fweelin::TriggerSnapshot">
<polygon fill="#ffffff" stroke="#000000" points="388,-19.5 388,-38.5 526,-38.5 526,-19.5 388,-19.5"/>
<text text-anchor="middle" x="457" y="-26.5" font-family="Helvetica,sans-Serif" font-size="10.00" fill="#000000">Fweelin::TriggerSnapshot</text>
</a>
</g>
</g>
<!-- Node425&#45;&gt;Node426 -->
<g id="edge2" class="edge">
<title>Node425&#45;&gt;Node426</title>
<path fill="none" stroke="#191970" d="M362.1714,-18.7337C370.7832,-19.666 379.4866,-20.6082 387.9467,-21.5241"/>
<polygon fill="#191970" stroke="#191970" points="362.4426,-15.2427 352.124,-17.6459 361.6891,-22.202 362.4426,-15.2427"/>
</g>
<!-- Node427 -->
<g id="node4" class="node">
<title>Node427</title>
<g id="a_node4"><a xlink:href="classLoopManager.html#a4aada2d07b7ce0a67a8119ece4805966" target="_top" xlink:title="LoopManager::ReceiveEvent">
<polygon fill="#ffffff" stroke="#000000" points="562,-.5 562,-19.5 716,-19.5 716,-.5 562,-.5"/>
<text text-anchor="middle" x="639" y="-7.5" font-family="Helvetica,sans-Serif" font-size="10.00" fill="#000000">LoopManager::ReceiveEvent</text>
</a>
</g>
</g>
<!-- Node425&#45;&gt;Node427 -->
<g id="edge4" class="edge">
<title>Node425&#45;&gt;Node427</title>
<path fill="none" stroke="#191970" d="M362.2745,-10C421.9925,-10 502.8225,-10 561.6996,-10"/>
<polygon fill="#191970" stroke="#191970" points="362.1305,-6.5001 352.1305,-10 362.1305,-13.5001 362.1305,-6.5001"/>
</g>
<!-- Node426&#45;&gt;Node427 -->
<g id="edge3" class="edge">
<title>Node426&#45;&gt;Node427</title>
<path fill="none" stroke="#191970" d="M536.2897,-20.7225C544.7435,-19.84 553.3344,-18.9431 561.7641,-18.0631"/>
<polygon fill="#191970" stroke="#191970" points="535.6484,-17.2703 526.0659,-21.7898 536.3753,-24.2325 535.6484,-17.2703"/>
</g>
</g>
</svg>
