<?xml version="1.0" encoding="UTF-8" standalone="no"?>
<!DOCTYPE svg PUBLIC "-//W3C//DTD SVG 1.1//EN"
 "http://www.w3.org/Graphics/SVG/1.1/DTD/svg11.dtd">
<!-- Generated by graphviz version 2.40.1 (20161225.0304)
 -->
<!-- Title: BlockManager::PeakAvgOn Pages: 1 -->
<svg width="564pt" height="66pt"
 viewBox="0.00 0.00 564.00 66.00" xmlns="http://www.w3.org/2000/svg" xmlns:xlink="http://www.w3.org/1999/xlink">
<g id="graph0" class="graph" transform="scale(1 1) rotate(0) translate(4 62)">
<title>BlockManager::PeakAvgOn</title>
<polygon fill="#ffffff" stroke="transparent" points="-4,4 -4,-62 560,-62 560,4 -4,4"/>
<!-- Node152 -->
<g id="node1" class="node">
<title>Node152</title>
<polygon fill="#bfbfbf" stroke="#000000" points="0,-19.5 0,-38.5 147,-38.5 147,-19.5 0,-19.5"/>
<text text-anchor="middle" x="73.5" y="-26.5" font-family="Helvetica,sans-Serif" font-size="10.00" fill="#000000">BlockManager::PeakAvgOn</text>
</g>
<!-- Node153 -->
<g id="node2" class="node">
<title>Node153</title>
<g id="a_node2"><a xlink:href="classBlockReadManager.html#af12804c61f944904eedf8c9edf5cd3bd" target="_top" xlink:title="BlockReadManager::Start">
<polygon fill="#ffffff" stroke="#000000" points="205,-38.5 205,-57.5 344,-57.5 344,-38.5 205,-38.5"/>
<text text-anchor="middle" x="274.5" y="-45.5" font-family="Helvetica,sans-Serif" font-size="10.00" fill="#000000">BlockReadManager::Start</text>
</a>
</g>
</g>
<!-- Node152&#45;&gt;Node153 -->
<g id="edge1" class="edge">
<title>Node152&#45;&gt;Node153</title>
<path fill="none" stroke="#191970" d="M157.4646,-36.9369C173.2269,-38.4269 189.5473,-39.9696 204.8169,-41.413"/>
<polygon fill="#191970" stroke="#191970" points="157.4887,-33.4237 147.2036,-35.967 156.8299,-40.3926 157.4887,-33.4237"/>
</g>
<!-- Node155 -->
<g id="node4" class="node">
<title>Node155</title>
<g id="a_node4"><a xlink:href="classRecordProcessor.html#a1aea5f833c59a12398b05b514b26b572" target="_top" xlink:title="RecordProcessor::RecordProcessor">
<polygon fill="#ffffff" stroke="#000000" points="183,-.5 183,-19.5 366,-19.5 366,-.5 183,-.5"/>
<text text-anchor="middle" x="274.5" y="-7.5" font-family="Helvetica,sans-Serif" font-size="10.00" fill="#000000">RecordProcessor::RecordProcessor</text>
</a>
</g>
</g>
<!-- Node152&#45;&gt;Node155 -->
<g id="edge3" class="edge">
<title>Node152&#45;&gt;Node155</title>
<path fill="none" stroke="#191970" d="M157.3225,-21.0765C165.696,-20.285 174.2285,-19.4784 182.6785,-18.6796"/>
<polygon fill="#191970" stroke="#191970" points="156.8299,-17.6074 147.2036,-22.033 157.4887,-24.5763 156.8299,-17.6074"/>
</g>
<!-- Node154 -->
<g id="node3" class="node">
<title>Node154</title>
<g id="a_node3"><a xlink:href="classBlockReadManager.html#aa990976dec4a3ec5bd6384b54ce5f09b" target="_top" xlink:title="BlockReadManager::Manage">
<polygon fill="#ffffff" stroke="#000000" points="402,-38.5 402,-57.5 556,-57.5 556,-38.5 402,-38.5"/>
<text text-anchor="middle" x="479" y="-45.5" font-family="Helvetica,sans-Serif" font-size="10.00" fill="#000000">BlockReadManager::Manage</text>
</a>
</g>
</g>
<!-- Node153&#45;&gt;Node154 -->
<g id="edge2" class="edge">
<title>Node153&#45;&gt;Node154</title>
<path fill="none" stroke="#191970" d="M354.2097,-48C369.9047,-48 386.3454,-48 401.9508,-48"/>
<polygon fill="#191970" stroke="#191970" points="354.0198,-44.5001 344.0197,-48 354.0197,-51.5001 354.0198,-44.5001"/>
</g>
</g>
</svg>
