<?xml version="1.0" encoding="UTF-8" standalone="no"?>
<!DOCTYPE svg PUBLIC "-//W3C//DTD SVG 1.1//EN"
 "http://www.w3.org/Graphics/SVG/1.1/DTD/svg11.dtd">
<!-- Generated by graphviz version 2.40.1 (20161225.0304)
 -->
<!-- Title: DynamicToken Pages: 1 -->
<svg width="499pt" height="811pt"
 viewBox="0.00 0.00 498.50 811.00" xmlns="http://www.w3.org/2000/svg" xmlns:xlink="http://www.w3.org/1999/xlink">
<g id="graph0" class="graph" transform="scale(1 1) rotate(0) translate(4 807)">
<title>DynamicToken</title>
<polygon fill="#ffffff" stroke="transparent" points="-4,4 -4,-807 494.5,-807 494.5,4 -4,4"/>
<!-- Node1 -->
<g id="node1" class="node">
<title>Node1</title>
<polygon fill="#bfbfbf" stroke="#000000" points="230.5,-.5 230.5,-68.5 346.5,-68.5 346.5,-.5 230.5,-.5"/>
<text text-anchor="middle" x="288.5" y="-56.5" font-family="Helvetica,sans-Serif" font-size="10.00" fill="#000000">DynamicToken</text>
<polyline fill="none" stroke="#000000" points="230.5,-49.5 346.5,-49.5 "/>
<text text-anchor="middle" x="288.5" y="-37.5" font-family="Helvetica,sans-Serif" font-size="10.00" fill="#000000"> </text>
<polyline fill="none" stroke="#000000" points="230.5,-30.5 346.5,-30.5 "/>
<text text-anchor="start" x="238.5" y="-18.5" font-family="Helvetica,sans-Serif" font-size="10.00" fill="#000000">+ DynamicToken()</text>
<text text-anchor="start" x="238.5" y="-7.5" font-family="Helvetica,sans-Serif" font-size="10.00" fill="#000000">+ ~DynamicToken()</text>
</g>
<!-- Node1&#45;&gt;Node1 -->
<g id="edge19" class="edge">
<title>Node1&#45;&gt;Node1</title>
<path fill="none" stroke="#404040" d="M346.8117,-44.7371C357.2258,-43.4065 364.5,-39.9941 364.5,-34.5 364.5,-31.4954 362.3245,-29.1134 358.6497,-27.354"/>
<polygon fill="none" stroke="#404040" points="358.4224,-27.2947 351.6065,-29.649 346.8117,-24.2629 353.6277,-21.9086 358.4224,-27.2947"/>
<text text-anchor="middle" x="381.5" y="-32" font-family="Helvetica,sans-Serif" font-size="10.00" fill="#000000"> +next</text>
</g>
<!-- Node2 -->
<g id="node2" class="node">
<title>Node2</title>
<g id="a_node2"><a xlink:href="classCfgToken.html" target="_top" xlink:title="{CfgToken\n||+ CfgToken()\l+ Print()\l+ Evaluate()\l}">
<polygon fill="#ffffff" stroke="#000000" points="177.5,-370.5 177.5,-449.5 257.5,-449.5 257.5,-370.5 177.5,-370.5"/>
<text text-anchor="middle" x="217.5" y="-437.5" font-family="Helvetica,sans-Serif" font-size="10.00" fill="#000000">CfgToken</text>
<polyline fill="none" stroke="#000000" points="177.5,-430.5 257.5,-430.5 "/>
<text text-anchor="middle" x="217.5" y="-418.5" font-family="Helvetica,sans-Serif" font-size="10.00" fill="#000000"> </text>
<polyline fill="none" stroke="#000000" points="177.5,-411.5 257.5,-411.5 "/>
<text text-anchor="start" x="185.5" y="-399.5" font-family="Helvetica,sans-Serif" font-size="10.00" fill="#000000">+ CfgToken()</text>
<text text-anchor="start" x="185.5" y="-388.5" font-family="Helvetica,sans-Serif" font-size="10.00" fill="#000000">+ Print()</text>
<text text-anchor="start" x="185.5" y="-377.5" font-family="Helvetica,sans-Serif" font-size="10.00" fill="#000000">+ Evaluate()</text>
</a>
</g>
</g>
<!-- Node2&#45;&gt;Node1 -->
<g id="edge1" class="edge">
<title>Node2&#45;&gt;Node1</title>
<path fill="none" stroke="#404040" d="M257.5879,-393.8215C286.4339,-379.7963 323.1879,-356.4502 340.5,-323 381.3762,-244.0197 342.2235,-138.4456 313.2485,-79.3792"/>
<polygon fill="none" stroke="#404040" points="313.196,-79.275 306.9243,-75.7161 307.7972,-68.558 314.0689,-72.1169 313.196,-79.275"/>
<text text-anchor="middle" x="377.5" y="-239" font-family="Helvetica,sans-Serif" font-size="10.00" fill="#000000"> +token</text>
</g>
<!-- Node10 -->
<g id="node10" class="node">
<title>Node10</title>
<g id="a_node10"><a xlink:href="classParsedExpression.html" target="_top" xlink:title="{ParsedExpression\n||+ ParsedExpression()\l+ ~ParsedExpression()\l+ Evaluate()\l+ IsStatic()\l+ Print()\l}">
<polygon fill="#ffffff" stroke="#000000" points="153,-116.5 153,-217.5 282,-217.5 282,-116.5 153,-116.5"/>
<text text-anchor="middle" x="217.5" y="-205.5" font-family="Helvetica,sans-Serif" font-size="10.00" fill="#000000">ParsedExpression</text>
<polyline fill="none" stroke="#000000" points="153,-198.5 282,-198.5 "/>
<text text-anchor="middle" x="217.5" y="-186.5" font-family="Helvetica,sans-Serif" font-size="10.00" fill="#000000"> </text>
<polyline fill="none" stroke="#000000" points="153,-179.5 282,-179.5 "/>
<text text-anchor="start" x="161" y="-167.5" font-family="Helvetica,sans-Serif" font-size="10.00" fill="#000000">+ ParsedExpression()</text>
<text text-anchor="start" x="161" y="-156.5" font-family="Helvetica,sans-Serif" font-size="10.00" fill="#000000">+ ~ParsedExpression()</text>
<text text-anchor="start" x="161" y="-145.5" font-family="Helvetica,sans-Serif" font-size="10.00" fill="#000000">+ Evaluate()</text>
<text text-anchor="start" x="161" y="-134.5" font-family="Helvetica,sans-Serif" font-size="10.00" fill="#000000">+ IsStatic()</text>
<text text-anchor="start" x="161" y="-123.5" font-family="Helvetica,sans-Serif" font-size="10.00" fill="#000000">+ Print()</text>
</a>
</g>
</g>
<!-- Node2&#45;&gt;Node10 -->
<g id="edge13" class="edge">
<title>Node2&#45;&gt;Node10</title>
<path fill="none" stroke="#404040" d="M177.3514,-388.7814C153.7126,-373.8638 125.895,-351.4944 112.5,-323 101.5333,-299.6713 102.2263,-288.642 112.5,-265 119.646,-248.5554 131.0617,-233.6171 143.7847,-220.6363"/>
<polygon fill="none" stroke="#404040" points="144.1313,-220.3017 145.6703,-213.2568 152.7653,-211.9678 151.2263,-219.0128 144.1313,-220.3017"/>
<text text-anchor="middle" x="129.5" y="-291.5" font-family="Helvetica,sans-Serif" font-size="10.00" fill="#000000"> +start</text>
</g>
<!-- Node11 -->
<g id="node11" class="node">
<title>Node11</title>
<g id="a_node11"><a xlink:href="classCfgMathOperation.html" target="_top" xlink:title="{CfgMathOperation\n||+ CfgMathOperation()\l}">
<polygon fill="#ffffff" stroke="#000000" points="155.5,-265.5 155.5,-322.5 279.5,-322.5 279.5,-265.5 155.5,-265.5"/>
<text text-anchor="middle" x="217.5" y="-310.5" font-family="Helvetica,sans-Serif" font-size="10.00" fill="#000000">CfgMathOperation</text>
<polyline fill="none" stroke="#000000" points="155.5,-303.5 279.5,-303.5 "/>
<text text-anchor="middle" x="217.5" y="-291.5" font-family="Helvetica,sans-Serif" font-size="10.00" fill="#000000"> </text>
<polyline fill="none" stroke="#000000" points="155.5,-284.5 279.5,-284.5 "/>
<text text-anchor="start" x="163.5" y="-272.5" font-family="Helvetica,sans-Serif" font-size="10.00" fill="#000000">+ CfgMathOperation()</text>
</a>
</g>
</g>
<!-- Node2&#45;&gt;Node11 -->
<g id="edge15" class="edge">
<title>Node2&#45;&gt;Node11</title>
<path fill="none" stroke="#404040" d="M217.5,-370.4038C217.5,-358.9323 217.5,-346.3893 217.5,-334.8431"/>
<polygon fill="none" stroke="#404040" points="217.5001,-334.8034 213.5,-328.8034 217.5,-322.8034 221.5,-328.8034 217.5001,-334.8034"/>
<text text-anchor="middle" x="243.5" y="-344" font-family="Helvetica,sans-Serif" font-size="10.00" fill="#000000"> +operand</text>
</g>
<!-- Node3 -->
<g id="node3" class="node">
<title>Node3</title>
<polygon fill="#ffffff" stroke="#bfbfbf" points="175.5,-563.5 175.5,-620.5 259.5,-620.5 259.5,-563.5 175.5,-563.5"/>
<text text-anchor="middle" x="217.5" y="-608.5" font-family="Helvetica,sans-Serif" font-size="10.00" fill="#000000">CfgTokenType</text>
<polyline fill="none" stroke="#bfbfbf" points="175.5,-601.5 259.5,-601.5 "/>
<text text-anchor="middle" x="217.5" y="-589.5" font-family="Helvetica,sans-Serif" font-size="10.00" fill="#000000"> </text>
<polyline fill="none" stroke="#bfbfbf" points="175.5,-582.5 259.5,-582.5 "/>
<text text-anchor="middle" x="217.5" y="-570.5" font-family="Helvetica,sans-Serif" font-size="10.00" fill="#000000"> </text>
</g>
<!-- Node3&#45;&gt;Node2 -->
<g id="edge2" class="edge">
<title>Node3&#45;&gt;Node2</title>
<path fill="none" stroke="#404040" d="M217.5,-563.1616C217.5,-535.9649 217.5,-494.5787 217.5,-461.6807"/>
<polygon fill="none" stroke="#404040" points="217.5001,-461.5351 213.5,-455.5351 217.5,-449.5351 221.5,-455.5351 217.5001,-461.5351"/>
<text text-anchor="middle" x="231" y="-476.5" font-family="Helvetica,sans-Serif" font-size="10.00" fill="#000000"> +cvt</text>
</g>
<!-- Node4 -->
<g id="node4" class="node">
<title>Node4</title>
<g id="a_node4"><a xlink:href="classUserVariable.html" target="_top" xlink:title="{UserVariable\n||+ UserVariable()\l+ ~UserVariable()\l+ RaisePrecision()\l+ operator\&gt;()\l+ operator==()\l+ operator!=()\l+ operator+=()\l+ GetDelta()\l+ operator&#45;=()\l+ operator*=()\land 18 more...\l}">
<polygon fill="#ffffff" stroke="#000000" points="277,-508.5 277,-675.5 384,-675.5 384,-508.5 277,-508.5"/>
<text text-anchor="middle" x="330.5" y="-663.5" font-family="Helvetica,sans-Serif" font-size="10.00" fill="#000000">UserVariable</text>
<polyline fill="none" stroke="#000000" points="277,-656.5 384,-656.5 "/>
<text text-anchor="middle" x="330.5" y="-644.5" font-family="Helvetica,sans-Serif" font-size="10.00" fill="#000000"> </text>
<polyline fill="none" stroke="#000000" points="277,-637.5 384,-637.5 "/>
<text text-anchor="start" x="285" y="-625.5" font-family="Helvetica,sans-Serif" font-size="10.00" fill="#000000">+ UserVariable()</text>
<text text-anchor="start" x="285" y="-614.5" font-family="Helvetica,sans-Serif" font-size="10.00" fill="#000000">+ ~UserVariable()</text>
<text text-anchor="start" x="285" y="-603.5" font-family="Helvetica,sans-Serif" font-size="10.00" fill="#000000">+ RaisePrecision()</text>
<text text-anchor="start" x="285" y="-592.5" font-family="Helvetica,sans-Serif" font-size="10.00" fill="#000000">+ operator&gt;()</text>
<text text-anchor="start" x="285" y="-581.5" font-family="Helvetica,sans-Serif" font-size="10.00" fill="#000000">+ operator==()</text>
<text text-anchor="start" x="285" y="-570.5" font-family="Helvetica,sans-Serif" font-size="10.00" fill="#000000">+ operator!=()</text>
<text text-anchor="start" x="285" y="-559.5" font-family="Helvetica,sans-Serif" font-size="10.00" fill="#000000">+ operator+=()</text>
<text text-anchor="start" x="285" y="-548.5" font-family="Helvetica,sans-Serif" font-size="10.00" fill="#000000">+ GetDelta()</text>
<text text-anchor="start" x="285" y="-537.5" font-family="Helvetica,sans-Serif" font-size="10.00" fill="#000000">+ operator&#45;=()</text>
<text text-anchor="start" x="285" y="-526.5" font-family="Helvetica,sans-Serif" font-size="10.00" fill="#000000">+ operator*=()</text>
<text text-anchor="start" x="285" y="-515.5" font-family="Helvetica,sans-Serif" font-size="10.00" fill="#000000">and 18 more...</text>
</a>
</g>
</g>
<!-- Node4&#45;&gt;Node2 -->
<g id="edge3" class="edge">
<title>Node4&#45;&gt;Node2</title>
<path fill="none" stroke="#404040" d="M278.6301,-508.4574C268.4523,-492.0648 258.0727,-475.3473 248.8244,-460.4518"/>
<polygon fill="none" stroke="#404040" points="248.639,-460.1531 242.0759,-457.1656 242.3092,-449.9583 248.8724,-452.9457 248.639,-460.1531"/>
<text text-anchor="middle" x="277" y="-482" font-family="Helvetica,sans-Serif" font-size="10.00" fill="#000000"> +val</text>
<text text-anchor="middle" x="277" y="-471" font-family="Helvetica,sans-Serif" font-size="10.00" fill="#000000">+var</text>
</g>
<!-- Node4&#45;&gt;Node4 -->
<g id="edge6" class="edge">
<title>Node4&#45;&gt;Node4</title>
<path fill="none" stroke="#404040" d="M384.1322,-612.0656C394.5804,-609.7354 402,-603.0469 402,-592 402,-585.4409 399.3843,-580.4183 395.0721,-576.9322"/>
<polygon fill="none" stroke="#404040" points="395.0471,-576.9209 387.9275,-578.0659 384.1322,-571.9344 391.2518,-570.7893 395.0471,-576.9209"/>
<text text-anchor="middle" x="419" y="-589.5" font-family="Helvetica,sans-Serif" font-size="10.00" fill="#000000"> +next</text>
</g>
<!-- Node5 -->
<g id="node5" class="node">
<title>Node5</title>
<polygon fill="#ffffff" stroke="#bfbfbf" points="333.5,-745.5 333.5,-802.5 371.5,-802.5 371.5,-745.5 333.5,-745.5"/>
<text text-anchor="middle" x="352.5" y="-790.5" font-family="Helvetica,sans-Serif" font-size="10.00" fill="#000000">char</text>
<polyline fill="none" stroke="#bfbfbf" points="333.5,-783.5 371.5,-783.5 "/>
<text text-anchor="middle" x="352.5" y="-771.5" font-family="Helvetica,sans-Serif" font-size="10.00" fill="#000000"> </text>
<polyline fill="none" stroke="#bfbfbf" points="333.5,-764.5 371.5,-764.5 "/>
<text text-anchor="middle" x="352.5" y="-752.5" font-family="Helvetica,sans-Serif" font-size="10.00" fill="#000000"> </text>
</g>
<!-- Node5&#45;&gt;Node4 -->
<g id="edge4" class="edge">
<title>Node5&#45;&gt;Node4</title>
<path fill="none" stroke="#404040" d="M349.014,-745.1616C347.101,-729.3358 344.6072,-708.7053 342.0728,-687.7385"/>
<polygon fill="none" stroke="#404040" points="342.0623,-687.6511 337.3711,-682.1745 340.6222,-675.7378 345.3133,-681.2144 342.0623,-687.6511"/>
<text text-anchor="middle" x="366" y="-719" font-family="Helvetica,sans-Serif" font-size="10.00" fill="#000000"> +value</text>
<text text-anchor="middle" x="366" y="-708" font-family="Helvetica,sans-Serif" font-size="10.00" fill="#000000">+data</text>
<text text-anchor="middle" x="366" y="-697" font-family="Helvetica,sans-Serif" font-size="10.00" fill="#000000">+name</text>
</g>
<!-- Node7 -->
<g id="node7" class="node">
<title>Node7</title>
<g id="a_node7"><a xlink:href="classEventParameter.html" target="_top" xlink:title="{EventParameter\n||+ EventParameter()\l}">
<polygon fill="#ffffff" stroke="#000000" points="44,-563.5 44,-620.5 157,-620.5 157,-563.5 44,-563.5"/>
<text text-anchor="middle" x="100.5" y="-608.5" font-family="Helvetica,sans-Serif" font-size="10.00" fill="#000000">EventParameter</text>
<polyline fill="none" stroke="#000000" points="44,-601.5 157,-601.5 "/>
<text text-anchor="middle" x="100.5" y="-589.5" font-family="Helvetica,sans-Serif" font-size="10.00" fill="#000000"> </text>
<polyline fill="none" stroke="#000000" points="44,-582.5 157,-582.5 "/>
<text text-anchor="start" x="52" y="-570.5" font-family="Helvetica,sans-Serif" font-size="10.00" fill="#000000">+ EventParameter()</text>
</a>
</g>
</g>
<!-- Node5&#45;&gt;Node7 -->
<g id="edge8" class="edge">
<title>Node5&#45;&gt;Node7</title>
<path fill="none" stroke="#404040" d="M333.343,-758.1385C322.8289,-749.2333 309.692,-737.775 298.5,-727 284.0034,-713.0434 285.1933,-703.5857 267.5,-694 227.4094,-672.2801 205.5943,-699.466 166.5,-676 148.4988,-665.1949 133.5122,-647.5205 122.394,-631.1647"/>
<polygon fill="none" stroke="#404040" points="122.1484,-630.783 115.5375,-627.9027 115.6536,-620.6925 122.2645,-623.5729 122.1484,-630.783"/>
<text text-anchor="middle" x="318.5" y="-708" font-family="Helvetica,sans-Serif" font-size="10.00" fill="#000000"> +name</text>
</g>
<!-- Node5&#45;&gt;Node11 -->
<g id="edge16" class="edge">
<title>Node5&#45;&gt;Node11</title>
<path fill="none" stroke="#404040" d="M371.5342,-761.0836C394.1352,-744.4645 430.6372,-713.2535 445.5,-676 473.1686,-606.649 474.5816,-576.7704 445.5,-508 412.0589,-428.9205 332.9158,-365.873 277.3034,-329.2311"/>
<polygon fill="none" stroke="#404040" points="277.2839,-329.2184 270.0734,-329.3166 267.2096,-322.6986 274.42,-322.6004 277.2839,-329.2184"/>
<text text-anchor="middle" x="463" y="-482" font-family="Helvetica,sans-Serif" font-size="10.00" fill="#000000"> +otype</text>
<text text-anchor="middle" x="463" y="-471" font-family="Helvetica,sans-Serif" font-size="10.00" fill="#000000">+operators</text>
</g>
<!-- Node6 -->
<g id="node6" class="node">
<title>Node6</title>
<polygon fill="#ffffff" stroke="#bfbfbf" points="174,-745.5 174,-802.5 259,-802.5 259,-745.5 174,-745.5"/>
<text text-anchor="middle" x="216.5" y="-790.5" font-family="Helvetica,sans-Serif" font-size="10.00" fill="#000000">CoreDataType</text>
<polyline fill="none" stroke="#bfbfbf" points="174,-783.5 259,-783.5 "/>
<text text-anchor="middle" x="216.5" y="-771.5" font-family="Helvetica,sans-Serif" font-size="10.00" fill="#000000"> </text>
<polyline fill="none" stroke="#bfbfbf" points="174,-764.5 259,-764.5 "/>
<text text-anchor="middle" x="216.5" y="-752.5" font-family="Helvetica,sans-Serif" font-size="10.00" fill="#000000"> </text>
</g>
<!-- Node6&#45;&gt;Node4 -->
<g id="edge5" class="edge">
<title>Node6&#45;&gt;Node4</title>
<path fill="none" stroke="#404040" d="M216.6882,-745.2136C218.1475,-728.753 222.3773,-708.5529 233.5,-694 242.3793,-682.3823 251.5616,-685.5307 266.8584,-675.9047"/>
<polygon fill="none" stroke="#404040" points="267.0315,-675.7743 269.4163,-668.9689 276.6154,-668.5527 274.2306,-675.3581 267.0315,-675.7743"/>
<text text-anchor="middle" x="250.5" y="-708" font-family="Helvetica,sans-Serif" font-size="10.00" fill="#000000"> +type</text>
</g>
<!-- Node6&#45;&gt;Node7 -->
<g id="edge10" class="edge">
<title>Node6&#45;&gt;Node7</title>
<path fill="none" stroke="#404040" d="M189.9183,-745.4442C184.8951,-739.5279 179.8559,-733.2031 175.5,-727 154.0356,-696.4333 133.7229,-659.1575 119.6643,-631.5257"/>
<polygon fill="none" stroke="#404040" points="119.6108,-631.4191 113.3427,-627.8537 114.223,-620.6965 120.4911,-624.2619 119.6108,-631.4191"/>
<text text-anchor="middle" x="195.5" y="-708" font-family="Helvetica,sans-Serif" font-size="10.00" fill="#000000"> +dtype</text>
</g>
<!-- Node7&#45;&gt;Node2 -->
<g id="edge7" class="edge">
<title>Node7&#45;&gt;Node2</title>
<path fill="none" stroke="#404040" d="M110.5253,-563.3691C120.4497,-537.1867 137.2242,-498.0727 158.5,-468 161.6653,-463.5259 165.1978,-459.097 168.9177,-454.7992"/>
<polygon fill="none" stroke="#404040" points="169.1971,-454.4933 170.2905,-447.3656 177.2906,-445.6335 176.1971,-452.7613 169.1971,-454.4933"/>
<text text-anchor="middle" x="186" y="-476.5" font-family="Helvetica,sans-Serif" font-size="10.00" fill="#000000"> +evparam</text>
</g>
<!-- Node8 -->
<g id="node8" class="node">
<title>Node8</title>
<polygon fill="#ffffff" stroke="#bfbfbf" points="0,-745.5 0,-802.5 29,-802.5 29,-745.5 0,-745.5"/>
<text text-anchor="middle" x="14.5" y="-790.5" font-family="Helvetica,sans-Serif" font-size="10.00" fill="#000000">int</text>
<polyline fill="none" stroke="#bfbfbf" points="0,-783.5 29,-783.5 "/>
<text text-anchor="middle" x="14.5" y="-771.5" font-family="Helvetica,sans-Serif" font-size="10.00" fill="#000000"> </text>
<polyline fill="none" stroke="#bfbfbf" points="0,-764.5 29,-764.5 "/>
<text text-anchor="middle" x="14.5" y="-752.5" font-family="Helvetica,sans-Serif" font-size="10.00" fill="#000000"> </text>
</g>
<!-- Node8&#45;&gt;Node7 -->
<g id="edge9" class="edge">
<title>Node8&#45;&gt;Node7</title>
<path fill="none" stroke="#404040" d="M23.1307,-745.3734C28.1403,-729.898 34.9457,-710.6094 42.5,-694 52.2292,-672.6087 64.9675,-649.784 76.0274,-631.1615"/>
<polygon fill="none" stroke="#404040" points="76.1209,-631.006 75.7884,-623.8025 82.3099,-620.725 82.6424,-627.9285 76.1209,-631.006"/>
<text text-anchor="middle" x="75.5" y="-708" font-family="Helvetica,sans-Serif" font-size="10.00" fill="#000000"> +max_index</text>
</g>
<!-- Node8&#45;&gt;Node11 -->
<g id="edge17" class="edge">
<title>Node8&#45;&gt;Node11</title>
<path fill="none" stroke="#404040" d="M10.9948,-745.1043C6.1009,-694.7758 1.2094,-588.6991 34.5,-508 64.4597,-435.3753 128.9224,-369.598 172.7618,-330.6916"/>
<polygon fill="none" stroke="#404040" points="173.0209,-330.4652 174.907,-323.5051 182.0571,-322.5692 180.171,-329.5293 173.0209,-330.4652"/>
<text text-anchor="middle" x="80" y="-476.5" font-family="Helvetica,sans-Serif" font-size="10.00" fill="#000000"> +numops</text>
</g>
<!-- Node9 -->
<g id="node9" class="node">
<title>Node9</title>
<polygon fill="#ffffff" stroke="#bfbfbf" points="100.5,-745.5 100.5,-802.5 138.5,-802.5 138.5,-745.5 100.5,-745.5"/>
<text text-anchor="middle" x="119.5" y="-790.5" font-family="Helvetica,sans-Serif" font-size="10.00" fill="#000000">long</text>
<polyline fill="none" stroke="#bfbfbf" points="100.5,-783.5 138.5,-783.5 "/>
<text text-anchor="middle" x="119.5" y="-771.5" font-family="Helvetica,sans-Serif" font-size="10.00" fill="#000000"> </text>
<polyline fill="none" stroke="#bfbfbf" points="100.5,-764.5 138.5,-764.5 "/>
<text text-anchor="middle" x="119.5" y="-752.5" font-family="Helvetica,sans-Serif" font-size="10.00" fill="#000000"> </text>
</g>
<!-- Node9&#45;&gt;Node7 -->
<g id="edge11" class="edge">
<title>Node9&#45;&gt;Node7</title>
<path fill="none" stroke="#404040" d="M116.4894,-745.1616C113.3347,-714.943 108.3512,-667.2065 104.7865,-633.0602"/>
<polygon fill="none" stroke="#404040" points="104.7426,-632.6387 100.1412,-627.0864 103.4965,-620.7035 108.0979,-626.2557 104.7426,-632.6387"/>
<text text-anchor="middle" x="128" y="-708" font-family="Helvetica,sans-Serif" font-size="10.00" fill="#000000"> +ofs</text>
</g>
<!-- Node10&#45;&gt;Node1 -->
<g id="edge12" class="edge">
<title>Node10&#45;&gt;Node1</title>
<path fill="none" stroke="#404040" d="M244.7474,-116.151C251.2079,-104.0945 258.0544,-91.3176 264.3652,-79.5404"/>
<polygon fill="none" stroke="#404040" points="264.5537,-79.1885 263.8619,-72.0106 270.2215,-68.6113 270.9133,-75.7891 264.5537,-79.1885"/>
<text text-anchor="middle" x="273.5" y="-90" font-family="Helvetica,sans-Serif" font-size="10.00" fill="#000000"> +exp</text>
</g>
<!-- Node11&#45;&gt;Node10 -->
<g id="edge14" class="edge">
<title>Node11&#45;&gt;Node10</title>
<path fill="none" stroke="#404040" d="M217.5,-265.4987C217.5,-254.9128 217.5,-242.4397 217.5,-229.9926"/>
<polygon fill="none" stroke="#404040" points="217.5001,-229.625 213.5,-223.625 217.5,-217.625 221.5,-223.625 217.5001,-229.625"/>
<text text-anchor="middle" x="232" y="-239" font-family="Helvetica,sans-Serif" font-size="10.00" fill="#000000"> +ops</text>
</g>
<!-- Node11&#45;&gt;Node11 -->
<g id="edge18" class="edge">
<title>Node11&#45;&gt;Node11</title>
<path fill="none" stroke="#404040" d="M279.5546,-303.1019C290.1554,-301.8582 297.5,-298.8242 297.5,-294 297.5,-291.2864 295.1761,-289.1392 291.256,-287.5585"/>
<polygon fill="none" stroke="#404040" points="291.256,-287.5585 284.5185,-290.1288 279.5546,-284.8981 286.2921,-282.3278 291.256,-287.5585"/>
<text text-anchor="middle" x="314.5" y="-291.5" font-family="Helvetica,sans-Serif" font-size="10.00" fill="#000000"> +next</text>
</g>
</g>
</svg>
