<?xml version="1.0" encoding="UTF-8" standalone="no"?>
<!DOCTYPE svg PUBLIC "-//W3C//DTD SVG 1.1//EN"
 "http://www.w3.org/Graphics/SVG/1.1/DTD/svg11.dtd">
<!-- Generated by graphviz version 2.40.1 (20161225.0304)
 -->
<!-- Title: LoopManager::IsActive Pages: 1 -->
<svg width="508pt" height="142pt"
 viewBox="0.00 0.00 508.00 142.00" xmlns="http://www.w3.org/2000/svg" xmlns:xlink="http://www.w3.org/1999/xlink">
<g id="graph0" class="graph" transform="scale(1 1) rotate(0) translate(4 138)">
<title>LoopManager::IsActive</title>
<polygon fill="#ffffff" stroke="transparent" points="-4,4 -4,-138 504,-138 504,4 -4,4"/>
<!-- Node604 -->
<g id="node1" class="node">
<title>Node604</title>
<polygon fill="#bfbfbf" stroke="#000000" points="0,-57.5 0,-76.5 127,-76.5 127,-57.5 0,-57.5"/>
<text text-anchor="middle" x="63.5" y="-64.5" font-family="Helvetica,sans-Serif" font-size="10.00" fill="#000000">LoopManager::IsActive</text>
</g>
<!-- Node605 -->
<g id="node2" class="node">
<title>Node605</title>
<g id="a_node2"><a xlink:href="classFweelin.html#a4654015e2bc7cc94f3bfc421899a60d3" target="_top" xlink:title="Fweelin::TriggerSnapshot">
<polygon fill="#ffffff" stroke="#000000" points="167.5,-114.5 167.5,-133.5 305.5,-133.5 305.5,-114.5 167.5,-114.5"/>
<text text-anchor="middle" x="236.5" y="-121.5" font-family="Helvetica,sans-Serif" font-size="10.00" fill="#000000">Fweelin::TriggerSnapshot</text>
</a>
</g>
</g>
<!-- Node604&#45;&gt;Node605 -->
<g id="edge1" class="edge">
<title>Node604&#45;&gt;Node605</title>
<path fill="none" stroke="#191970" d="M101.7693,-79.7382C120.2611,-85.8816 142.7777,-93.345 163,-100 177.5358,-104.7836 193.701,-110.0661 207.1618,-114.4546"/>
<polygon fill="#191970" stroke="#191970" points="102.8192,-76.399 92.2257,-76.5661 100.6113,-83.0417 102.8192,-76.399"/>
</g>
<!-- Node606 -->
<g id="node3" class="node">
<title>Node606</title>
<g id="a_node3"><a xlink:href="classLoopManager.html#a4aada2d07b7ce0a67a8119ece4805966" target="_top" xlink:title="LoopManager::ReceiveEvent">
<polygon fill="#ffffff" stroke="#000000" points="346,-98.5 346,-117.5 500,-117.5 500,-98.5 346,-98.5"/>
<text text-anchor="middle" x="423" y="-105.5" font-family="Helvetica,sans-Serif" font-size="10.00" fill="#000000">LoopManager::ReceiveEvent</text>
</a>
</g>
</g>
<!-- Node604&#45;&gt;Node606 -->
<g id="edge3" class="edge">
<title>Node604&#45;&gt;Node606</title>
<path fill="none" stroke="#191970" d="M137.6575,-75.4575C198.5093,-82.3974 284.3747,-92.1902 345.9911,-99.2173"/>
<polygon fill="#191970" stroke="#191970" points="137.6894,-71.9385 127.3571,-74.2827 136.8961,-78.8934 137.6894,-71.9385"/>
</g>
<!-- Node607 -->
<g id="node4" class="node">
<title>Node607</title>
<g id="a_node4"><a xlink:href="classVideoIO.html#a50e4ccae99e278ed7d65d9db86f18c92" target="_top" xlink:title="VideoIO::video_event_loop">
<polygon fill="#ffffff" stroke="#000000" points="163,-38.5 163,-57.5 310,-57.5 310,-38.5 163,-38.5"/>
<text text-anchor="middle" x="236.5" y="-45.5" font-family="Helvetica,sans-Serif" font-size="10.00" fill="#000000">VideoIO::video_event_loop</text>
</a>
</g>
</g>
<!-- Node604&#45;&gt;Node607 -->
<g id="edge4" class="edge">
<title>Node604&#45;&gt;Node607</title>
<path fill="none" stroke="#191970" d="M137.5664,-58.8655C145.9615,-57.9435 154.5161,-57.004 162.9051,-56.0827"/>
<polygon fill="#191970" stroke="#191970" points="136.9854,-55.4082 127.4273,-59.9791 137.7497,-62.3664 136.9854,-55.4082"/>
</g>
<!-- Node609 -->
<g id="node6" class="node">
<title>Node609</title>
<g id="a_node6"><a xlink:href="classLoopTray.html#adb34eb649311a401b0cbf8d4b09613c7" target="_top" xlink:title="LoopTray::Draw_Item">
<polygon fill="#ffffff" stroke="#000000" points="177,-.5 177,-19.5 296,-19.5 296,-.5 177,-.5"/>
<text text-anchor="middle" x="236.5" y="-7.5" font-family="Helvetica,sans-Serif" font-size="10.00" fill="#000000">LoopTray::Draw_Item</text>
</a>
</g>
</g>
<!-- Node604&#45;&gt;Node609 -->
<g id="edge6" class="edge">
<title>Node604&#45;&gt;Node609</title>
<path fill="none" stroke="#191970" d="M96.0748,-53.5021C115.3487,-45.7824 140.3482,-36.2283 163,-29 173.6727,-25.5943 185.361,-22.3556 196.214,-19.5483"/>
<polygon fill="#191970" stroke="#191970" points="94.5188,-50.356 86.5604,-57.3499 97.1432,-56.8454 94.5188,-50.356"/>
</g>
<!-- Node605&#45;&gt;Node606 -->
<g id="edge2" class="edge">
<title>Node605&#45;&gt;Node606</title>
<path fill="none" stroke="#191970" d="M315.8987,-117.1883C325.7963,-116.3392 335.9068,-115.4718 345.7707,-114.6256"/>
<polygon fill="#191970" stroke="#191970" points="315.3449,-113.7229 305.6807,-118.0649 315.9433,-120.6973 315.3449,-113.7229"/>
</g>
<!-- Node608 -->
<g id="node5" class="node">
<title>Node608</title>
<g id="a_node5"><a xlink:href="classVideoIO.html#adb25c81a2bfe792fd4f64e23a4e21176" target="_top" xlink:title="VideoIO::run_video\l_thread">
<polygon fill="#ffffff" stroke="#000000" points="368.5,-33 368.5,-63 477.5,-63 477.5,-33 368.5,-33"/>
<text text-anchor="start" x="376.5" y="-51" font-family="Helvetica,sans-Serif" font-size="10.00" fill="#000000">VideoIO::run_video</text>
<text text-anchor="middle" x="423" y="-40" font-family="Helvetica,sans-Serif" font-size="10.00" fill="#000000">_thread</text>
</a>
</g>
</g>
<!-- Node607&#45;&gt;Node608 -->
<g id="edge5" class="edge">
<title>Node607&#45;&gt;Node608</title>
<path fill="none" stroke="#191970" d="M320.2707,-48C336.5388,-48 353.1957,-48 368.2333,-48"/>
<polygon fill="#191970" stroke="#191970" points="320.2098,-44.5001 310.2097,-48 320.2097,-51.5001 320.2098,-44.5001"/>
</g>
</g>
</svg>
