<?xml version="1.0" encoding="UTF-8" standalone="no"?>
<!DOCTYPE svg PUBLIC "-//W3C//DTD SVG 1.1//EN"
 "http://www.w3.org/Graphics/SVG/1.1/DTD/svg11.dtd">
<!-- Generated by graphviz version 2.40.1 (20161225.0304)
 -->
<!-- Title: EventManager::WakeupIfNeeded Pages: 1 -->
<svg width="792pt" height="246pt"
 viewBox="0.00 0.00 792.00 246.00" xmlns="http://www.w3.org/2000/svg" xmlns:xlink="http://www.w3.org/1999/xlink">
<g id="graph0" class="graph" transform="scale(1 1) rotate(0) translate(4 242)">
<title>EventManager::WakeupIfNeeded</title>
<polygon fill="#ffffff" stroke="transparent" points="-4,4 -4,-242 788,-242 788,4 -4,4"/>
<!-- Node147 -->
<g id="node1" class="node">
<title>Node147</title>
<polygon fill="#bfbfbf" stroke="#000000" points="0,-142.5 0,-161.5 176,-161.5 176,-142.5 0,-142.5"/>
<text text-anchor="middle" x="88" y="-149.5" font-family="Helvetica,sans-Serif" font-size="10.00" fill="#000000">EventManager::WakeupIfNeeded</text>
</g>
<!-- Node148 -->
<g id="node2" class="node">
<title>Node148</title>
<g id="a_node2"><a xlink:href="classAudioIO.html#aa131b2f89b09eeb058f56676833bf2df" target="_top" xlink:title="AudioIO::process">
<polygon fill="#ffffff" stroke="#000000" points="247.5,-180.5 247.5,-199.5 345.5,-199.5 345.5,-180.5 247.5,-180.5"/>
<text text-anchor="middle" x="296.5" y="-187.5" font-family="Helvetica,sans-Serif" font-size="10.00" fill="#000000">AudioIO::process</text>
</a>
</g>
</g>
<!-- Node147&#45;&gt;Node148 -->
<g id="edge1" class="edge">
<title>Node147&#45;&gt;Node148</title>
<path fill="none" stroke="#191970" d="M150.2026,-163.3367C181.2685,-168.9986 218.3188,-175.7512 247.3607,-181.0442"/>
<polygon fill="#191970" stroke="#191970" points="150.8098,-159.8898 140.3442,-161.54 149.5546,-166.7763 150.8098,-159.8898"/>
</g>
<!-- Node151 -->
<g id="node5" class="node">
<title>Node151</title>
<g id="a_node5"><a xlink:href="classEventManager.html#ac7c4b4ceee333a360274d73d166b8c69" target="_top" xlink:title="EventManager::BroadcastEvent">
<polygon fill="#ffffff" stroke="#000000" points="212,-123.5 212,-142.5 381,-142.5 381,-123.5 212,-123.5"/>
<text text-anchor="middle" x="296.5" y="-130.5" font-family="Helvetica,sans-Serif" font-size="10.00" fill="#000000">EventManager::BroadcastEvent</text>
</a>
</g>
</g>
<!-- Node147&#45;&gt;Node151 -->
<g id="edge5" class="edge">
<title>Node147&#45;&gt;Node151</title>
<path fill="none" stroke="#191970" d="M186.1138,-143.0592C194.6599,-142.2804 203.2612,-141.4966 211.6868,-140.7288"/>
<polygon fill="#191970" stroke="#191970" points="185.7616,-139.5767 176.1206,-143.9698 186.397,-146.5478 185.7616,-139.5767"/>
</g>
<!-- Node149 -->
<g id="node3" class="node">
<title>Node149</title>
<g id="a_node3"><a xlink:href="classAudioIO.html#a1e4157d1900df901a60d5a2260d7509c" target="_top" xlink:title="AudioIO::open">
<polygon fill="#ffffff" stroke="#000000" points="464,-218.5 464,-237.5 549,-237.5 549,-218.5 464,-218.5"/>
<text text-anchor="middle" x="506.5" y="-225.5" font-family="Helvetica,sans-Serif" font-size="10.00" fill="#000000">AudioIO::open</text>
</a>
</g>
</g>
<!-- Node148&#45;&gt;Node149 -->
<g id="edge2" class="edge">
<title>Node148&#45;&gt;Node149</title>
<path fill="none" stroke="#191970" d="M355.685,-200.7097C390.1549,-206.9471 432.8192,-214.6673 463.9638,-220.303"/>
<polygon fill="#191970" stroke="#191970" points="356.1991,-197.2459 345.7357,-198.9093 354.9526,-204.1341 356.1991,-197.2459"/>
</g>
<!-- Node150 -->
<g id="node4" class="node">
<title>Node150</title>
<g id="a_node4"><a xlink:href="classAudioIO.html#a012ce924f59ced78f2fac75e6e33b55c" target="_top" xlink:title="AudioIO::AudioIO">
<polygon fill="#ffffff" stroke="#000000" points="658.5,-199.5 658.5,-218.5 757.5,-218.5 757.5,-199.5 658.5,-199.5"/>
<text text-anchor="middle" x="708" y="-206.5" font-family="Helvetica,sans-Serif" font-size="10.00" fill="#000000">AudioIO::AudioIO</text>
</a>
</g>
</g>
<!-- Node148&#45;&gt;Node150 -->
<g id="edge4" class="edge">
<title>Node148&#45;&gt;Node150</title>
<path fill="none" stroke="#191970" d="M355.823,-192.7391C437.3021,-196.5012 582.3688,-203.1993 658.3951,-206.7096"/>
<polygon fill="#191970" stroke="#191970" points="355.8786,-189.238 345.7278,-192.273 355.5557,-196.2306 355.8786,-189.238"/>
</g>
<!-- Node149&#45;&gt;Node150 -->
<g id="edge3" class="edge">
<title>Node149&#45;&gt;Node150</title>
<path fill="none" stroke="#191970" d="M559.2888,-223.0224C589.878,-220.1381 628.1609,-216.5283 658.2233,-213.6936"/>
<polygon fill="#191970" stroke="#191970" points="558.8602,-219.5472 549.233,-223.9706 559.5174,-226.5163 558.8602,-219.5472"/>
</g>
<!-- Node152 -->
<g id="node6" class="node">
<title>Node152</title>
<g id="a_node6"><a xlink:href="classLoopTray.html#ad51e58a17792f36a249b1543a96a02a6" target="_top" xlink:title="LoopTray::MouseButton">
<polygon fill="#ffffff" stroke="#000000" points="442,-142.5 442,-161.5 571,-161.5 571,-142.5 442,-142.5"/>
<text text-anchor="middle" x="506.5" y="-149.5" font-family="Helvetica,sans-Serif" font-size="10.00" fill="#000000">LoopTray::MouseButton</text>
</a>
</g>
</g>
<!-- Node151&#45;&gt;Node152 -->
<g id="edge6" class="edge">
<title>Node151&#45;&gt;Node152</title>
<path fill="none" stroke="#191970" d="M391.0639,-141.5558C408.242,-143.11 425.7964,-144.6982 441.8635,-146.1519"/>
<polygon fill="#191970" stroke="#191970" points="391.282,-138.0613 381.0073,-140.6459 390.6512,-145.0328 391.282,-138.0613"/>
</g>
<!-- Node153 -->
<g id="node7" class="node">
<title>Node153</title>
<g id="a_node7"><a xlink:href="classRootProcessor.html#acb13a2a0320ef6b5a57ede966e468842" target="_top" xlink:title="RootProcessor::UpdateProcessors">
<polygon fill="#ffffff" stroke="#000000" points="417,-104.5 417,-123.5 596,-123.5 596,-104.5 417,-104.5"/>
<text text-anchor="middle" x="506.5" y="-111.5" font-family="Helvetica,sans-Serif" font-size="10.00" fill="#000000">RootProcessor::UpdateProcessors</text>
</a>
</g>
</g>
<!-- Node151&#45;&gt;Node153 -->
<g id="edge7" class="edge">
<title>Node151&#45;&gt;Node153</title>
<path fill="none" stroke="#191970" d="M390.9828,-124.4516C399.5288,-123.6783 408.1688,-122.8966 416.6731,-122.1272"/>
<polygon fill="#191970" stroke="#191970" points="390.6512,-120.9672 381.0073,-125.3541 391.282,-127.9387 390.6512,-120.9672"/>
</g>
<!-- Node155 -->
<g id="node9" class="node">
<title>Node155</title>
<g id="a_node9"><a xlink:href="classRecordProcessor.html#a9984f573bbc265321ad0604f97b23820" target="_top" xlink:title="RecordProcessor::EndNow">
<polygon fill="#ffffff" stroke="#000000" points="435,-57.5 435,-76.5 578,-76.5 578,-57.5 435,-57.5"/>
<text text-anchor="middle" x="506.5" y="-64.5" font-family="Helvetica,sans-Serif" font-size="10.00" fill="#000000">RecordProcessor::EndNow</text>
</a>
</g>
</g>
<!-- Node151&#45;&gt;Node155 -->
<g id="edge9" class="edge">
<title>Node151&#45;&gt;Node155</title>
<path fill="none" stroke="#191970" d="M336.3168,-120.4186C359.7933,-113.0067 390.0818,-103.455 417,-95 436.5711,-88.8527 458.5582,-81.9737 475.8419,-76.5724"/>
<polygon fill="#191970" stroke="#191970" points="335.184,-117.1059 326.7021,-123.4547 337.2919,-123.781 335.184,-117.1059"/>
</g>
<!-- Node154 -->
<g id="node8" class="node">
<title>Node154</title>
<g id="a_node8"><a xlink:href="classRootProcessor.html#a014d1405fbd7d67ee4edeb19713ded04" target="_top" xlink:title="RootProcessor::process">
<polygon fill="#ffffff" stroke="#000000" points="643.5,-114.5 643.5,-133.5 772.5,-133.5 772.5,-114.5 643.5,-114.5"/>
<text text-anchor="middle" x="708" y="-121.5" font-family="Helvetica,sans-Serif" font-size="10.00" fill="#000000">RootProcessor::process</text>
</a>
</g>
</g>
<!-- Node153&#45;&gt;Node154 -->
<g id="edge8" class="edge">
<title>Node153&#45;&gt;Node154</title>
<path fill="none" stroke="#191970" d="M606.1999,-118.9479C618.8756,-119.577 631.5734,-120.2071 643.4908,-120.7985"/>
<polygon fill="#191970" stroke="#191970" points="606.2155,-115.4444 596.0543,-118.4444 605.8685,-122.4358 606.2155,-115.4444"/>
</g>
<!-- Node156 -->
<g id="node10" class="node">
<title>Node156</title>
<g id="a_node10"><a xlink:href="classRecordProcessor.html#a6168d8dc850602a348dc74ab1224263a" target="_top" xlink:title="RecordProcessor::PulseSync">
<polygon fill="#ffffff" stroke="#000000" points="632,-76.5 632,-95.5 784,-95.5 784,-76.5 632,-76.5"/>
<text text-anchor="middle" x="708" y="-83.5" font-family="Helvetica,sans-Serif" font-size="10.00" fill="#000000">RecordProcessor::PulseSync</text>
</a>
</g>
</g>
<!-- Node155&#45;&gt;Node156 -->
<g id="edge10" class="edge">
<title>Node155&#45;&gt;Node156</title>
<path fill="none" stroke="#191970" d="M588.444,-74.7267C602.7898,-76.0794 617.6631,-77.4819 631.8439,-78.819"/>
<polygon fill="#191970" stroke="#191970" points="588.3932,-71.2065 578.1087,-73.7522 587.736,-78.1756 588.3932,-71.2065"/>
</g>
<!-- Node157 -->
<g id="node11" class="node">
<title>Node157</title>
<g id="a_node11"><a xlink:href="classRecordProcessor.html#ab035edfb707f8f1066b3597df7ddda7d" target="_top" xlink:title="RecordProcessor::End">
<polygon fill="#ffffff" stroke="#000000" points="647.5,-38.5 647.5,-57.5 768.5,-57.5 768.5,-38.5 647.5,-38.5"/>
<text text-anchor="middle" x="708" y="-45.5" font-family="Helvetica,sans-Serif" font-size="10.00" fill="#000000">RecordProcessor::End</text>
</a>
</g>
</g>
<!-- Node155&#45;&gt;Node157 -->
<g id="edge11" class="edge">
<title>Node155&#45;&gt;Node157</title>
<path fill="none" stroke="#191970" d="M588.3084,-59.2861C608.02,-57.4274 628.7351,-55.4741 647.2872,-53.7248"/>
<polygon fill="#191970" stroke="#191970" points="587.736,-55.8244 578.1087,-60.2478 588.3932,-62.7935 587.736,-55.8244"/>
</g>
<!-- Node158 -->
<g id="node12" class="node">
<title>Node158</title>
<g id="a_node12"><a xlink:href="classRecordProcessor.html#ad36d69ec9d41b424eb2e6c5fa2e0cf3a" target="_top" xlink:title="RecordProcessor::process">
<polygon fill="#ffffff" stroke="#000000" points="638,-.5 638,-19.5 778,-19.5 778,-.5 638,-.5"/>
<text text-anchor="middle" x="708" y="-7.5" font-family="Helvetica,sans-Serif" font-size="10.00" fill="#000000">RecordProcessor::process</text>
</a>
</g>
</g>
<!-- Node155&#45;&gt;Node158 -->
<g id="edge12" class="edge">
<title>Node155&#45;&gt;Node158</title>
<path fill="none" stroke="#191970" d="M546.2608,-54.4163C570.8701,-46.7636 603.1672,-36.9641 632,-29 643.6676,-25.7772 656.4082,-22.4989 668.0657,-19.5931"/>
<polygon fill="#191970" stroke="#191970" points="545.0581,-51.1252 536.5559,-57.4468 547.1446,-57.807 545.0581,-51.1252"/>
</g>
</g>
</svg>
