<?xml version="1.0" encoding="UTF-8" standalone="no"?>
<!DOCTYPE svg PUBLIC "-//W3C//DTD SVG 1.1//EN"
 "http://www.w3.org/Graphics/SVG/1.1/DTD/svg11.dtd">
<!-- Generated by graphviz version 2.40.1 (20161225.0304)
 -->
<!-- Title: EventManager::QueueEvent Pages: 1 -->
<svg width="1482pt" height="199pt"
 viewBox="0.00 0.00 1482.00 199.00" xmlns="http://www.w3.org/2000/svg" xmlns:xlink="http://www.w3.org/1999/xlink">
<g id="graph0" class="graph" transform="scale(1 1) rotate(0) translate(4 195)">
<title>EventManager::QueueEvent</title>
<polygon fill="#ffffff" stroke="transparent" points="-4,4 -4,-195 1478,-195 1478,4 -4,4"/>
<!-- Node98 -->
<g id="node1" class="node">
<title>Node98</title>
<polygon fill="#bfbfbf" stroke="#000000" points="0,-68.5 0,-87.5 152,-87.5 152,-68.5 0,-68.5"/>
<text text-anchor="middle" x="76" y="-75.5" font-family="Helvetica,sans-Serif" font-size="10.00" fill="#000000">EventManager::QueueEvent</text>
</g>
<!-- Node99 -->
<g id="node2" class="node">
<title>Node99</title>
<g id="a_node2"><a xlink:href="classLoopManager.html#acaae95d3c0fe9468fba36553dc83547a" target="_top" xlink:title="LoopManager::AddToSaveQueue">
<polygon fill="#ffffff" stroke="#000000" points="582,-137.5 582,-156.5 755,-156.5 755,-137.5 582,-137.5"/>
<text text-anchor="middle" x="668.5" y="-144.5" font-family="Helvetica,sans-Serif" font-size="10.00" fill="#000000">LoopManager::AddToSaveQueue</text>
</a>
</g>
</g>
<!-- Node98&#45;&gt;Node99 -->
<g id="edge1" class="edge">
<title>Node98&#45;&gt;Node99</title>
<path fill="none" stroke="#191970" d="M101.0175,-92.5041C123.098,-104.4771 156.5722,-120.6513 188,-128 322.7424,-159.5065 484.4322,-158.1795 581.6899,-153.328"/>
<polygon fill="#191970" stroke="#191970" points="102.4498,-89.2962 92.0071,-87.507 99.0547,-95.4178 102.4498,-89.2962"/>
</g>
<!-- Node104 -->
<g id="node7" class="node">
<title>Node104</title>
<g id="a_node7"><a xlink:href="classLoopManager.html#afe9ad41d77128fff90501c3a15c76b34" target="_top" xlink:title="LoopManager::AddLoopToSave\lQueue">
<polygon fill="#ffffff" stroke="#000000" points="188,-88 188,-118 352,-118 352,-88 188,-88"/>
<text text-anchor="start" x="196" y="-106" font-family="Helvetica,sans-Serif" font-size="10.00" fill="#000000">LoopManager::AddLoopToSave</text>
<text text-anchor="middle" x="270" y="-95" font-family="Helvetica,sans-Serif" font-size="10.00" fill="#000000">Queue</text>
</a>
</g>
</g>
<!-- Node98&#45;&gt;Node104 -->
<g id="edge8" class="edge">
<title>Node98&#45;&gt;Node104</title>
<path fill="none" stroke="#191970" d="M159.8917,-88.8108C169.1772,-90.0074 178.6259,-91.225 187.8891,-92.4187"/>
<polygon fill="#191970" stroke="#191970" points="160.2619,-85.3296 149.8965,-87.5227 159.3671,-92.2722 160.2619,-85.3296"/>
</g>
<!-- Node107 -->
<g id="node10" class="node">
<title>Node107</title>
<g id="a_node10"><a xlink:href="classLoopManager.html#a5db9d5ddb2f42a75645a2541c7b3cc79" target="_top" xlink:title="LoopManager::AddLoopToLoad\lQueue">
<polygon fill="#ffffff" stroke="#000000" points="188,-39 188,-69 352,-69 352,-39 188,-39"/>
<text text-anchor="start" x="196" y="-57" font-family="Helvetica,sans-Serif" font-size="10.00" fill="#000000">LoopManager::AddLoopToLoad</text>
<text text-anchor="middle" x="270" y="-46" font-family="Helvetica,sans-Serif" font-size="10.00" fill="#000000">Queue</text>
</a>
</g>
</g>
<!-- Node98&#45;&gt;Node107 -->
<g id="edge13" class="edge">
<title>Node98&#45;&gt;Node107</title>
<path fill="none" stroke="#191970" d="M162.054,-67.3541C170.577,-66.2997 179.2143,-65.2312 187.698,-64.1817"/>
<polygon fill="#191970" stroke="#191970" points="161.6117,-63.8821 152.1171,-68.5834 162.4712,-70.8291 161.6117,-63.8821"/>
</g>
<!-- Node110 -->
<g id="node13" class="node">
<title>Node110</title>
<g id="a_node13"><a xlink:href="classLoopManager.html#af213761ccf6208b94354a3658de91cfb" target="_top" xlink:title="LoopManager::CheckSaveMap">
<polygon fill="#ffffff" stroke="#000000" points="189,-.5 189,-19.5 351,-19.5 351,-.5 189,-.5"/>
<text text-anchor="middle" x="270" y="-7.5" font-family="Helvetica,sans-Serif" font-size="10.00" fill="#000000">LoopManager::CheckSaveMap</text>
</a>
</g>
</g>
<!-- Node98&#45;&gt;Node110 -->
<g id="edge16" class="edge">
<title>Node98&#45;&gt;Node110</title>
<path fill="none" stroke="#191970" d="M104.2157,-63.9175C126.5274,-53.2104 158.6928,-38.7137 188,-29 198.8195,-25.4139 210.6583,-22.2493 221.8909,-19.5821"/>
<polygon fill="#191970" stroke="#191970" points="102.465,-60.8767 94.9991,-68.3941 105.5234,-67.1733 102.465,-60.8767"/>
</g>
<!-- Node100 -->
<g id="node3" class="node">
<title>Node100</title>
<g id="a_node3"><a xlink:href="classTriggerMap.html#aaa7bec4f62540981d1e5703fe8ed575e" target="_top" xlink:title="TriggerMap::Save">
<polygon fill="#ffffff" stroke="#000000" points="791,-136.5 791,-155.5 891,-155.5 891,-136.5 791,-136.5"/>
<text text-anchor="middle" x="841" y="-143.5" font-family="Helvetica,sans-Serif" font-size="10.00" fill="#000000">TriggerMap::Save</text>
</a>
</g>
</g>
<!-- Node99&#45;&gt;Node100 -->
<g id="edge2" class="edge">
<title>Node99&#45;&gt;Node100</title>
<path fill="none" stroke="#191970" d="M765.0488,-146.4403C773.9094,-146.3889 782.6229,-146.3384 790.808,-146.291"/>
<polygon fill="#191970" stroke="#191970" points="764.9822,-142.9405 755.0027,-146.4985 765.0228,-149.9404 764.9822,-142.9405"/>
</g>
<!-- Node101 -->
<g id="node4" class="node">
<title>Node101</title>
<g id="a_node4"><a xlink:href="classLoopManager.html#ac2adaa8b989e1284abf17fc07eb0baf2" target="_top" xlink:title="LoopManager::SaveNewScene">
<polygon fill="#ffffff" stroke="#000000" points="927,-133.5 927,-152.5 1090,-152.5 1090,-133.5 927,-133.5"/>
<text text-anchor="middle" x="1008.5" y="-140.5" font-family="Helvetica,sans-Serif" font-size="10.00" fill="#000000">LoopManager::SaveNewScene</text>
</a>
</g>
</g>
<!-- Node100&#45;&gt;Node101 -->
<g id="edge3" class="edge">
<title>Node100&#45;&gt;Node101</title>
<path fill="none" stroke="#191970" d="M901.5263,-144.9159C909.7945,-144.7679 918.3907,-144.6139 926.9561,-144.4605"/>
<polygon fill="#191970" stroke="#191970" points="901.1912,-141.4213 891.2555,-145.0999 901.3166,-148.4202 901.1912,-141.4213"/>
</g>
<!-- Node102 -->
<g id="node5" class="node">
<title>Node102</title>
<g id="a_node5"><a xlink:href="classLoopManager.html#abd2cda6ecc976fd447167d5de7cc5912" target="_top" xlink:title="LoopManager::SaveCurScene">
<polygon fill="#ffffff" stroke="#000000" points="1126,-171.5 1126,-190.5 1284,-190.5 1284,-171.5 1126,-171.5"/>
<text text-anchor="middle" x="1205" y="-178.5" font-family="Helvetica,sans-Serif" font-size="10.00" fill="#000000">LoopManager::SaveCurScene</text>
</a>
</g>
</g>
<!-- Node100&#45;&gt;Node102 -->
<g id="edge7" class="edge">
<title>Node100&#45;&gt;Node102</title>
<path fill="none" stroke="#191970" d="M896.7131,-157.3359C906.763,-159.1035 917.1693,-160.7538 927,-162 993.8294,-170.4716 1070.2094,-175.3486 1125.9768,-178.0351"/>
<polygon fill="#191970" stroke="#191970" points="897.2808,-153.8818 886.8165,-155.5399 896.0308,-160.7694 897.2808,-153.8818"/>
</g>
<!-- Node101&#45;&gt;Node102 -->
<g id="edge4" class="edge">
<title>Node101&#45;&gt;Node102</title>
<path fill="none" stroke="#191970" d="M1067.9123,-154.4894C1095.9495,-159.9114 1129.0157,-166.3058 1155.6481,-171.4561"/>
<polygon fill="#191970" stroke="#191970" points="1068.3143,-151.0024 1057.8316,-152.54 1066.9852,-157.875 1068.3143,-151.0024"/>
</g>
<!-- Node103 -->
<g id="node6" class="node">
<title>Node103</title>
<g id="a_node6"><a xlink:href="classLoopManager.html#a4aada2d07b7ce0a67a8119ece4805966" target="_top" xlink:title="LoopManager::ReceiveEvent">
<polygon fill="#ffffff" stroke="#000000" points="1320,-133.5 1320,-152.5 1474,-152.5 1474,-133.5 1320,-133.5"/>
<text text-anchor="middle" x="1397" y="-140.5" font-family="Helvetica,sans-Serif" font-size="10.00" fill="#000000">LoopManager::ReceiveEvent</text>
</a>
</g>
</g>
<!-- Node101&#45;&gt;Node103 -->
<g id="edge6" class="edge">
<title>Node101&#45;&gt;Node103</title>
<path fill="none" stroke="#191970" d="M1100.5213,-143C1167.3391,-143 1256.7252,-143 1319.824,-143"/>
<polygon fill="#191970" stroke="#191970" points="1100.4162,-139.5001 1090.4161,-143 1100.4161,-146.5001 1100.4162,-139.5001"/>
</g>
<!-- Node102&#45;&gt;Node103 -->
<g id="edge5" class="edge">
<title>Node102&#45;&gt;Node103</title>
<path fill="none" stroke="#191970" d="M1263.298,-169.4619C1290.6826,-164.042 1322.9334,-157.659 1348.8987,-152.5201"/>
<polygon fill="#191970" stroke="#191970" points="1262.5799,-166.036 1253.4497,-171.411 1263.939,-172.9028 1262.5799,-166.036"/>
</g>
<!-- Node105 -->
<g id="node8" class="node">
<title>Node105</title>
<g id="a_node8"><a xlink:href="classLoop.html#a53ccedecccce6659493d58c3ff6750b9" target="_top" xlink:title="Loop::Save">
<polygon fill="#ffffff" stroke="#000000" points="432,-94.5 432,-113.5 502,-113.5 502,-94.5 432,-94.5"/>
<text text-anchor="middle" x="467" y="-101.5" font-family="Helvetica,sans-Serif" font-size="10.00" fill="#000000">Loop::Save</text>
</a>
</g>
</g>
<!-- Node104&#45;&gt;Node105 -->
<g id="edge9" class="edge">
<title>Node104&#45;&gt;Node105</title>
<path fill="none" stroke="#191970" d="M362.3073,-103.4686C387.0679,-103.5943 412.3523,-103.7226 431.8691,-103.8217"/>
<polygon fill="#191970" stroke="#191970" points="362.1369,-99.9678 352.1192,-103.4168 362.1013,-106.9677 362.1369,-99.9678"/>
</g>
<!-- Node106 -->
<g id="node9" class="node">
<title>Node106</title>
<g id="a_node9"><a xlink:href="classLoopManager.html#a87ecdd3c80b3c16018a50a397f906b03" target="_top" xlink:title="LoopManager::SaveLoop">
<polygon fill="#ffffff" stroke="#000000" points="601,-95.5 601,-114.5 736,-114.5 736,-95.5 601,-95.5"/>
<text text-anchor="middle" x="668.5" y="-102.5" font-family="Helvetica,sans-Serif" font-size="10.00" fill="#000000">LoopManager::SaveLoop</text>
</a>
</g>
</g>
<!-- Node105&#45;&gt;Node106 -->
<g id="edge10" class="edge">
<title>Node105&#45;&gt;Node106</title>
<path fill="none" stroke="#191970" d="M512.4374,-104.2255C538.5089,-104.3549 571.7415,-104.5198 600.8341,-104.6642"/>
<polygon fill="#191970" stroke="#191970" points="512.1159,-100.724 502.0986,-104.1742 512.0811,-107.7239 512.1159,-100.724"/>
</g>
<!-- Node106&#45;&gt;Node100 -->
<g id="edge11" class="edge">
<title>Node106&#45;&gt;Node100</title>
<path fill="none" stroke="#191970" d="M718.2686,-116.8291C744.5087,-123.0658 776.2716,-130.6153 800.91,-136.4714"/>
<polygon fill="#191970" stroke="#191970" points="719.0469,-113.4166 708.5085,-114.5093 717.4282,-120.2269 719.0469,-113.4166"/>
</g>
<!-- Node106&#45;&gt;Node103 -->
<g id="edge12" class="edge">
<title>Node106&#45;&gt;Node103</title>
<path fill="none" stroke="#191970" d="M746.0813,-108.1071C830.6584,-111.5854 969.9806,-117.5814 1090,-124 1168.2535,-128.185 1257.6728,-133.8154 1319.7419,-137.859"/>
<polygon fill="#191970" stroke="#191970" points="746.1784,-104.6082 736.0434,-107.6955 745.8916,-111.6024 746.1784,-104.6082"/>
</g>
<!-- Node108 -->
<g id="node11" class="node">
<title>Node108</title>
<g id="a_node11"><a xlink:href="classLoopManager.html#a87e2d8190169a6cdc93207c661b5e47d" target="_top" xlink:title="LoopManager::LoadLoop">
<polygon fill="#ffffff" stroke="#000000" points="400,-44.5 400,-63.5 534,-63.5 534,-44.5 400,-44.5"/>
<text text-anchor="middle" x="467" y="-51.5" font-family="Helvetica,sans-Serif" font-size="10.00" fill="#000000">LoopManager::LoadLoop</text>
</a>
</g>
</g>
<!-- Node107&#45;&gt;Node108 -->
<g id="edge14" class="edge">
<title>Node107&#45;&gt;Node108</title>
<path fill="none" stroke="#191970" d="M362.2698,-54C374.9841,-54 387.8374,-54 399.9778,-54"/>
<polygon fill="#191970" stroke="#191970" points="362.1193,-50.5001 352.1192,-54 362.1192,-57.5001 362.1193,-50.5001"/>
</g>
<!-- Node109 -->
<g id="node12" class="node">
<title>Node109</title>
<g id="a_node12"><a xlink:href="classLoopManager.html#a05a6a438d14482e2f22aa802cfb432e8" target="_top" xlink:title="LoopManager::LoadScene">
<polygon fill="#ffffff" stroke="#000000" points="598.5,-44.5 598.5,-63.5 738.5,-63.5 738.5,-44.5 598.5,-44.5"/>
<text text-anchor="middle" x="668.5" y="-51.5" font-family="Helvetica,sans-Serif" font-size="10.00" fill="#000000">LoopManager::LoadScene</text>
</a>
</g>
</g>
<!-- Node108&#45;&gt;Node109 -->
<g id="edge15" class="edge">
<title>Node108&#45;&gt;Node109</title>
<path fill="none" stroke="#191970" d="M544.3928,-54C562.1105,-54 580.8481,-54 598.2461,-54"/>
<polygon fill="#191970" stroke="#191970" points="544.0966,-50.5001 534.0966,-54 544.0965,-57.5001 544.0966,-50.5001"/>
</g>
<!-- Node111 -->
<g id="node14" class="node">
<title>Node111</title>
<g id="a_node14"><a xlink:href="classLoopManager.html#a00143be12c150c0a89c4f99c1e8d5e70" target="_top" xlink:title="LoopManager::GetWriteBlock">
<polygon fill="#ffffff" stroke="#000000" points="388,-.5 388,-19.5 546,-19.5 546,-.5 388,-.5"/>
<text text-anchor="middle" x="467" y="-7.5" font-family="Helvetica,sans-Serif" font-size="10.00" fill="#000000">LoopManager::GetWriteBlock</text>
</a>
</g>
</g>
<!-- Node110&#45;&gt;Node111 -->
<g id="edge17" class="edge">
<title>Node110&#45;&gt;Node111</title>
<path fill="none" stroke="#191970" d="M361.5274,-10C370.3131,-10 379.1731,-10 387.826,-10"/>
<polygon fill="#191970" stroke="#191970" points="361.2648,-6.5001 351.2648,-10 361.2648,-13.5001 361.2648,-6.5001"/>
</g>
</g>
</svg>
