<?xml version="1.0" encoding="UTF-8" standalone="no"?>
<!DOCTYPE svg PUBLIC "-//W3C//DTD SVG 1.1//EN"
 "http://www.w3.org/Graphics/SVG/1.1/DTD/svg11.dtd">
<!-- Generated by graphviz version 2.40.1 (20161225.0304)
 -->
<!-- Title: FloLayoutElementGeometry Pages: 1 -->
<svg width="240pt" height="99pt"
 viewBox="0.00 0.00 240.00 99.00" xmlns="http://www.w3.org/2000/svg" xmlns:xlink="http://www.w3.org/1999/xlink">
<g id="graph0" class="graph" transform="scale(1 1) rotate(0) translate(4 95)">
<title>FloLayoutElementGeometry</title>
<polygon fill="#ffffff" stroke="transparent" points="-4,4 -4,-95 236,-95 236,4 -4,4"/>
<!-- Node2 -->
<g id="node1" class="node">
<title>Node2</title>
<polygon fill="#bfbfbf" stroke="#000000" points="0,-.5 0,-90.5 180,-90.5 180,-.5 0,-.5"/>
<text text-anchor="middle" x="90" y="-78.5" font-family="Helvetica,sans-Serif" font-size="10.00" fill="#000000">FloLayoutElementGeometry</text>
<polyline fill="none" stroke="#000000" points="0,-71.5 180,-71.5 "/>
<text text-anchor="middle" x="90" y="-59.5" font-family="Helvetica,sans-Serif" font-size="10.00" fill="#000000"> </text>
<polyline fill="none" stroke="#000000" points="0,-52.5 180,-52.5 "/>
<text text-anchor="start" x="8" y="-40.5" font-family="Helvetica,sans-Serif" font-size="10.00" fill="#000000">+ FloLayoutElementGeometry()</text>
<text text-anchor="start" x="8" y="-29.5" font-family="Helvetica,sans-Serif" font-size="10.00" fill="#000000">+ ~FloLayoutElementGeometry()</text>
<text text-anchor="start" x="8" y="-18.5" font-family="Helvetica,sans-Serif" font-size="10.00" fill="#000000">+ Draw()</text>
<text text-anchor="start" x="8" y="-7.5" font-family="Helvetica,sans-Serif" font-size="10.00" fill="#000000">+ Inside()</text>
</g>
<!-- Node2&#45;&gt;Node2 -->
<g id="edge1" class="edge">
<title>Node2&#45;&gt;Node2</title>
<path fill="none" stroke="#404040" d="M180.2021,-60.002C190.9688,-57.3652 198,-52.5313 198,-45.5 198,-41.4351 195.65,-38.1045 191.5867,-35.5083"/>
<polygon fill="none" stroke="#404040" points="191.3585,-35.418 184.307,-36.9268 180.2021,-30.998 187.2537,-29.4892 191.3585,-35.418"/>
<text text-anchor="middle" x="215" y="-43" font-family="Helvetica,sans-Serif" font-size="10.00" fill="#000000"> +next</text>
</g>
</g>
</svg>
