<?xml version="1.0" encoding="UTF-8" standalone="no"?>
<!DOCTYPE svg PUBLIC "-//W3C//DTD SVG 1.1//EN"
 "http://www.w3.org/Graphics/SVG/1.1/DTD/svg11.dtd">
<!-- Generated by graphviz version 2.40.1 (20161225.0304)
 -->
<!-- Title: FloConfig::GetNumTriggers Pages: 1 -->
<svg width="930pt" height="215pt"
 viewBox="0.00 0.00 930.00 215.39" xmlns="http://www.w3.org/2000/svg" xmlns:xlink="http://www.w3.org/1999/xlink">
<g id="graph0" class="graph" transform="scale(1 1) rotate(0) translate(4 211.3934)">
<title>FloConfig::GetNumTriggers</title>
<polygon fill="#ffffff" stroke="transparent" points="-4,4 -4,-211.3934 926,-211.3934 926,4 -4,4"/>
<!-- Node222 -->
<g id="node1" class="node">
<title>Node222</title>
<polygon fill="#bfbfbf" stroke="#000000" points="0,-73.8934 0,-92.8934 146,-92.8934 146,-73.8934 0,-73.8934"/>
<text text-anchor="middle" x="73" y="-80.8934" font-family="Helvetica,sans-Serif" font-size="10.00" fill="#000000">FloConfig::GetNumTriggers</text>
</g>
<!-- Node223 -->
<g id="node2" class="node">
<title>Node223</title>
<g id="a_node2"><a xlink:href="classTriggerMap.html#aaa7bec4f62540981d1e5703fe8ed575e" target="_top" xlink:title="TriggerMap::Save">
<polygon fill="#ffffff" stroke="#000000" points="210.5,-149.8934 210.5,-168.8934 310.5,-168.8934 310.5,-149.8934 210.5,-149.8934"/>
<text text-anchor="middle" x="260.5" y="-156.8934" font-family="Helvetica,sans-Serif" font-size="10.00" fill="#000000">TriggerMap::Save</text>
</a>
</g>
</g>
<!-- Node222&#45;&gt;Node223 -->
<g id="edge1" class="edge">
<title>Node222&#45;&gt;Node223</title>
<path fill="none" stroke="#191970" d="M100.1238,-97.7206C121.8813,-108.8723 153.4031,-124.2714 182,-135.3934 195.9461,-140.8173 211.658,-145.8294 225.341,-149.855"/>
<polygon fill="#191970" stroke="#191970" points="101.6373,-94.563 91.1472,-93.0765 98.4207,-100.7802 101.6373,-94.563"/>
</g>
<!-- Node226 -->
<g id="node5" class="node">
<title>Node226</title>
<g id="a_node5"><a xlink:href="classLoopManager.html#a4aada2d07b7ce0a67a8119ece4805966" target="_top" xlink:title="LoopManager::ReceiveEvent">
<polygon fill="#ffffff" stroke="#000000" points="768,-130.8934 768,-149.8934 922,-149.8934 922,-130.8934 768,-130.8934"/>
<text text-anchor="middle" x="845" y="-137.8934" font-family="Helvetica,sans-Serif" font-size="10.00" fill="#000000">LoopManager::ReceiveEvent</text>
</a>
</g>
</g>
<!-- Node222&#45;&gt;Node226 -->
<g id="edge12" class="edge">
<title>Node222&#45;&gt;Node226</title>
<path fill="none" stroke="#191970" d="M151.8919,-94.1226C162.0131,-95.3236 172.2435,-96.4514 182,-97.3934 393.5413,-117.8181 644.017,-131.1166 767.8031,-136.9667"/>
<polygon fill="#191970" stroke="#191970" points="152.1776,-90.6317 141.8287,-92.9013 151.3342,-97.5807 152.1776,-90.6317"/>
</g>
<!-- Node227 -->
<g id="node6" class="node">
<title>Node227</title>
<g id="a_node6"><a xlink:href="classLoopManager.html#a8efb4c8acabceb10faa8660c14c89d71" target="_top" xlink:title="LoopManager::DeletePulse">
<polygon fill="#ffffff" stroke="#000000" points="383.5,-73.8934 383.5,-92.8934 529.5,-92.8934 529.5,-73.8934 383.5,-73.8934"/>
<text text-anchor="middle" x="456.5" y="-80.8934" font-family="Helvetica,sans-Serif" font-size="10.00" fill="#000000">LoopManager::DeletePulse</text>
</a>
</g>
</g>
<!-- Node222&#45;&gt;Node227 -->
<g id="edge7" class="edge">
<title>Node222&#45;&gt;Node227</title>
<path fill="none" stroke="#191970" d="M156.2443,-83.3934C223.9607,-83.3934 318.5896,-83.3934 383.41,-83.3934"/>
<polygon fill="#191970" stroke="#191970" points="156.0361,-79.8935 146.0361,-83.3934 156.0361,-86.8935 156.0361,-79.8935"/>
</g>
<!-- Node228 -->
<g id="node7" class="node">
<title>Node228</title>
<g id="a_node7"><a xlink:href="classLoopManager.html#a87f2148eddda1d6e097ecb6612e56dfa" target="_top" xlink:title="LoopManager::GetLongCount\lForAllPlayingLoops">
<polygon fill="#ffffff" stroke="#000000" points="182,-24.3934 182,-54.3934 339,-54.3934 339,-24.3934 182,-24.3934"/>
<text text-anchor="start" x="190" y="-42.3934" font-family="Helvetica,sans-Serif" font-size="10.00" fill="#000000">LoopManager::GetLongCount</text>
<text text-anchor="middle" x="260.5" y="-31.3934" font-family="Helvetica,sans-Serif" font-size="10.00" fill="#000000">ForAllPlayingLoops</text>
</a>
</g>
</g>
<!-- Node222&#45;&gt;Node228 -->
<g id="edge9" class="edge">
<title>Node222&#45;&gt;Node228</title>
<path fill="none" stroke="#191970" d="M123.6422,-71.5093C146.0102,-66.2603 172.5634,-60.0292 196.301,-54.4587"/>
<polygon fill="#191970" stroke="#191970" points="122.6206,-68.1539 113.6847,-73.846 124.2199,-74.9688 122.6206,-68.1539"/>
</g>
<!-- Node229 -->
<g id="node8" class="node">
<title>Node229</title>
<g id="a_node8"><a xlink:href="classOSCClient.html#acbb974bf11667aa6fb48c111ae14a4fe" target="_top" xlink:title="OSCClient::SendPlayingLoops">
<polygon fill="#ffffff" stroke="#000000" points="376.5,-7.8934 376.5,-26.8934 536.5,-26.8934 536.5,-7.8934 376.5,-7.8934"/>
<text text-anchor="middle" x="456.5" y="-14.8934" font-family="Helvetica,sans-Serif" font-size="10.00" fill="#000000">OSCClient::SendPlayingLoops</text>
</a>
</g>
</g>
<!-- Node222&#45;&gt;Node229 -->
<g id="edge13" class="edge">
<title>Node222&#45;&gt;Node229</title>
<path fill="none" stroke="#191970" d="M91.2589,-67.1818C111.6983,-50.2172 146.6148,-24.6519 182,-14.3934 256.4976,7.2043 347.2168,.1284 403.4226,-7.8922"/>
<polygon fill="#191970" stroke="#191970" points="88.7677,-64.7062 83.4264,-73.8561 93.3079,-70.0342 88.7677,-64.7062"/>
</g>
<!-- Node224 -->
<g id="node3" class="node">
<title>Node224</title>
<g id="a_node3"><a xlink:href="classLoopManager.html#ac2adaa8b989e1284abf17fc07eb0baf2" target="_top" xlink:title="LoopManager::SaveNewScene">
<polygon fill="#ffffff" stroke="#000000" points="375,-149.8934 375,-168.8934 538,-168.8934 538,-149.8934 375,-149.8934"/>
<text text-anchor="middle" x="456.5" y="-156.8934" font-family="Helvetica,sans-Serif" font-size="10.00" fill="#000000">LoopManager::SaveNewScene</text>
</a>
</g>
</g>
<!-- Node223&#45;&gt;Node224 -->
<g id="edge2" class="edge">
<title>Node223&#45;&gt;Node224</title>
<path fill="none" stroke="#191970" d="M321.0533,-159.3934C338.052,-159.3934 356.8201,-159.3934 374.8309,-159.3934"/>
<polygon fill="#191970" stroke="#191970" points="320.7204,-155.8935 310.7204,-159.3934 320.7203,-162.8935 320.7204,-155.8935"/>
</g>
<!-- Node225 -->
<g id="node4" class="node">
<title>Node225</title>
<g id="a_node4"><a xlink:href="classLoopManager.html#abd2cda6ecc976fd447167d5de7cc5912" target="_top" xlink:title="LoopManager::SaveCurScene">
<polygon fill="#ffffff" stroke="#000000" points="574,-187.8934 574,-206.8934 732,-206.8934 732,-187.8934 574,-187.8934"/>
<text text-anchor="middle" x="653" y="-194.8934" font-family="Helvetica,sans-Serif" font-size="10.00" fill="#000000">LoopManager::SaveCurScene</text>
</a>
</g>
</g>
<!-- Node223&#45;&gt;Node225 -->
<g id="edge6" class="edge">
<title>Node223&#45;&gt;Node225</title>
<path fill="none" stroke="#191970" d="M320.5961,-170.4819C338.0903,-173.4067 357.2656,-176.3208 375,-178.3934 441.7888,-186.1988 518.0077,-191.1295 573.7259,-194.0061"/>
<polygon fill="#191970" stroke="#191970" points="320.9594,-166.9934 310.5137,-168.7648 319.7842,-173.8941 320.9594,-166.9934"/>
</g>
<!-- Node224&#45;&gt;Node225 -->
<g id="edge3" class="edge">
<title>Node224&#45;&gt;Node225</title>
<path fill="none" stroke="#191970" d="M515.9123,-170.8828C543.9495,-176.3047 577.0157,-182.6992 603.6481,-187.8495"/>
<polygon fill="#191970" stroke="#191970" points="516.3143,-167.3957 505.8316,-168.9333 514.9852,-174.2684 516.3143,-167.3957"/>
</g>
<!-- Node224&#45;&gt;Node226 -->
<g id="edge5" class="edge">
<title>Node224&#45;&gt;Node226</title>
<path fill="none" stroke="#191970" d="M548.5213,-154.893C615.3391,-151.6252 704.7252,-147.2536 767.824,-144.1677"/>
<polygon fill="#191970" stroke="#191970" points="548.2332,-151.4028 538.4161,-155.3872 548.5752,-158.3944 548.2332,-151.4028"/>
</g>
<!-- Node225&#45;&gt;Node226 -->
<g id="edge4" class="edge">
<title>Node225&#45;&gt;Node226</title>
<path fill="none" stroke="#191970" d="M695.1731,-184.8732C730.595,-174.3574 780.4627,-159.5529 812.7587,-149.965"/>
<polygon fill="#191970" stroke="#191970" points="693.7268,-181.6515 685.1365,-187.8528 695.7191,-188.3621 693.7268,-181.6515"/>
</g>
<!-- Node227&#45;&gt;Node226 -->
<g id="edge8" class="edge">
<title>Node227&#45;&gt;Node226</title>
<path fill="none" stroke="#191970" d="M539.5818,-86.3598C594.5572,-89.3677 668.0318,-95.3883 732,-107.3934 761.9294,-113.0103 795.299,-123.2678 817.9653,-130.8613"/>
<polygon fill="#191970" stroke="#191970" points="539.7083,-82.8617 529.5385,-85.8325 539.3412,-89.8521 539.7083,-82.8617"/>
</g>
<!-- Node228&#45;&gt;Node229 -->
<g id="edge10" class="edge">
<title>Node228&#45;&gt;Node229</title>
<path fill="none" stroke="#191970" d="M349.2163,-29.4354C358.2385,-28.4227 367.3667,-27.3981 376.2911,-26.3964"/>
<polygon fill="#191970" stroke="#191970" points="348.6385,-25.9782 339.0914,-30.5719 349.4194,-32.9345 348.6385,-25.9782"/>
</g>
<!-- Node230 -->
<g id="node9" class="node">
<title>Node230</title>
<g id="a_node9"><a xlink:href="classOSCClient.html#a8b38ea5b76702f9e763daeb694091116" target="_top" xlink:title="OSCClient::ReceiveEvent">
<polygon fill="#ffffff" stroke="#000000" points="584.5,-7.8934 584.5,-26.8934 721.5,-26.8934 721.5,-7.8934 584.5,-7.8934"/>
<text text-anchor="middle" x="653" y="-14.8934" font-family="Helvetica,sans-Serif" font-size="10.00" fill="#000000">OSCClient::ReceiveEvent</text>
</a>
</g>
</g>
<!-- Node229&#45;&gt;Node230 -->
<g id="edge11" class="edge">
<title>Node229&#45;&gt;Node230</title>
<path fill="none" stroke="#191970" d="M546.7837,-17.3934C559.4152,-17.3934 572.2235,-17.3934 584.366,-17.3934"/>
<polygon fill="#191970" stroke="#191970" points="546.7075,-13.8935 536.7075,-17.3934 546.7075,-20.8935 546.7075,-13.8935"/>
</g>
</g>
</svg>
