<?xml version="1.0" encoding="UTF-8" standalone="no"?>
<!DOCTYPE svg PUBLIC "-//W3C//DTD SVG 1.1//EN"
 "http://www.w3.org/Graphics/SVG/1.1/DTD/svg11.dtd">
<!-- Generated by graphviz version 2.40.1 (20161225.0304)
 -->
<!-- Title: Fweelin::getSNAPS Pages: 1 -->
<svg width="911pt" height="268pt"
 viewBox="0.00 0.00 911.00 268.00" xmlns="http://www.w3.org/2000/svg" xmlns:xlink="http://www.w3.org/1999/xlink">
<g id="graph0" class="graph" transform="scale(1 1) rotate(0) translate(4 264)">
<title>Fweelin::getSNAPS</title>
<polygon fill="#ffffff" stroke="transparent" points="-4,4 -4,-264 907,-264 907,4 -4,4"/>
<!-- Node446 -->
<g id="node1" class="node">
<title>Node446</title>
<polygon fill="#bfbfbf" stroke="#000000" points="0,-130.5 0,-149.5 108,-149.5 108,-130.5 0,-130.5"/>
<text text-anchor="middle" x="54" y="-137.5" font-family="Helvetica,sans-Serif" font-size="10.00" fill="#000000">Fweelin::getSNAPS</text>
</g>
<!-- Node447 -->
<g id="node2" class="node">
<title>Node447</title>
<g id="a_node2"><a xlink:href="classTriggerMap.html#a92e251eec5a7c5741807805b6869fab8" target="_top" xlink:title="TriggerMap::GoSave">
<polygon fill="#ffffff" stroke="#000000" points="172,-240.5 172,-259.5 285,-259.5 285,-240.5 172,-240.5"/>
<text text-anchor="middle" x="228.5" y="-247.5" font-family="Helvetica,sans-Serif" font-size="10.00" fill="#000000">TriggerMap::GoSave</text>
</a>
</g>
</g>
<!-- Node446&#45;&gt;Node447 -->
<g id="edge1" class="edge">
<title>Node446&#45;&gt;Node447</title>
<path fill="none" stroke="#191970" d="M66.7401,-158.0824C82.4554,-178.9728 111.1559,-212.7984 144,-231 152.5487,-235.7375 162.2038,-239.2942 171.8524,-241.9642"/>
<polygon fill="#191970" stroke="#191970" points="69.3742,-155.7551 60.6452,-149.7506 63.7245,-159.8881 69.3742,-155.7551"/>
</g>
<!-- Node449 -->
<g id="node4" class="node">
<title>Node449</title>
<g id="a_node4"><a xlink:href="classLoopManager.html#a7acf07456e2837b96814226e81fdac30" target="_top" xlink:title="LoopManager::UpdateLoopLists\l_ItemAdded">
<polygon fill="#ffffff" stroke="#000000" points="144,-191 144,-221 313,-221 313,-191 144,-191"/>
<text text-anchor="start" x="152" y="-209" font-family="Helvetica,sans-Serif" font-size="10.00" fill="#000000">LoopManager::UpdateLoopLists</text>
<text text-anchor="middle" x="228.5" y="-198" font-family="Helvetica,sans-Serif" font-size="10.00" fill="#000000">_ItemAdded</text>
</a>
</g>
</g>
<!-- Node446&#45;&gt;Node449 -->
<g id="edge3" class="edge">
<title>Node446&#45;&gt;Node449</title>
<path fill="none" stroke="#191970" d="M86.7047,-153.4414C103.7266,-160.3459 124.9154,-168.7985 144,-176 157.254,-181.0014 171.7625,-186.2378 184.9588,-190.9102"/>
<polygon fill="#191970" stroke="#191970" points="87.793,-150.1056 77.2114,-149.5762 85.1533,-156.5888 87.793,-150.1056"/>
</g>
<!-- Node452 -->
<g id="node7" class="node">
<title>Node452</title>
<g id="a_node7"><a xlink:href="classLoopManager.html#a4aada2d07b7ce0a67a8119ece4805966" target="_top" xlink:title="LoopManager::ReceiveEvent">
<polygon fill="#ffffff" stroke="#000000" points="749,-133.5 749,-152.5 903,-152.5 903,-133.5 749,-133.5"/>
<text text-anchor="middle" x="826" y="-140.5" font-family="Helvetica,sans-Serif" font-size="10.00" fill="#000000">LoopManager::ReceiveEvent</text>
</a>
</g>
</g>
<!-- Node446&#45;&gt;Node452 -->
<g id="edge18" class="edge">
<title>Node446&#45;&gt;Node452</title>
<path fill="none" stroke="#191970" d="M118.305,-142.4045C126.9418,-142.651 135.686,-142.8615 144,-143 363.3107,-146.6542 622.3461,-145.0198 748.7731,-143.8373"/>
<polygon fill="#191970" stroke="#191970" points="118.3488,-138.9043 108.2477,-142.1007 118.1374,-145.9011 118.3488,-138.9043"/>
</g>
<!-- Node453 -->
<g id="node8" class="node">
<title>Node453</title>
<g id="a_node8"><a xlink:href="classLoopManager.html#af9b1708b49b00b353059227a458e1887" target="_top" xlink:title="LoopManager::UpdateLoopLists\l_ItemRemoved">
<polygon fill="#ffffff" stroke="#000000" points="144,-103 144,-133 313,-133 313,-103 144,-103"/>
<text text-anchor="start" x="152" y="-121" font-family="Helvetica,sans-Serif" font-size="10.00" fill="#000000">LoopManager::UpdateLoopLists</text>
<text text-anchor="middle" x="228.5" y="-110" font-family="Helvetica,sans-Serif" font-size="10.00" fill="#000000">_ItemRemoved</text>
</a>
</g>
</g>
<!-- Node446&#45;&gt;Node453 -->
<g id="edge8" class="edge">
<title>Node446&#45;&gt;Node453</title>
<path fill="none" stroke="#191970" d="M118.2551,-131.8991C126.5934,-130.8478 135.2334,-129.7585 143.8398,-128.6735"/>
<polygon fill="#191970" stroke="#191970" points="117.74,-128.4362 108.2564,-133.1597 118.6156,-135.3812 117.74,-128.4362"/>
</g>
<!-- Node457 -->
<g id="node12" class="node">
<title>Node457</title>
<g id="a_node12"><a xlink:href="classLoopManager.html#aeabdbc5dd40563f5c4577228908f5179" target="_top" xlink:title="LoopManager::UpdateLoopLists\l_ItemMoved">
<polygon fill="#ffffff" stroke="#000000" points="349,-27 349,-57 518,-57 518,-27 349,-27"/>
<text text-anchor="start" x="357" y="-45" font-family="Helvetica,sans-Serif" font-size="10.00" fill="#000000">LoopManager::UpdateLoopLists</text>
<text text-anchor="middle" x="433.5" y="-34" font-family="Helvetica,sans-Serif" font-size="10.00" fill="#000000">_ItemMoved</text>
</a>
</g>
</g>
<!-- Node446&#45;&gt;Node457 -->
<g id="edge14" class="edge">
<title>Node446&#45;&gt;Node457</title>
<path fill="none" stroke="#191970" d="M78.3273,-125.072C95.9642,-114.8802 120.7099,-101.8504 144,-94 211.0198,-71.4095 290.2581,-58.0424 348.8776,-50.5308"/>
<polygon fill="#191970" stroke="#191970" points="76.1477,-122.2942 69.3147,-130.3912 79.7057,-128.3226 76.1477,-122.2942"/>
</g>
<!-- Node459 -->
<g id="node14" class="node">
<title>Node459</title>
<g id="a_node14"><a xlink:href="classLoopManager.html#a05a6a438d14482e2f22aa802cfb432e8" target="_top" xlink:title="LoopManager::LoadScene">
<polygon fill="#ffffff" stroke="#000000" points="158.5,-26.5 158.5,-45.5 298.5,-45.5 298.5,-26.5 158.5,-26.5"/>
<text text-anchor="middle" x="228.5" y="-33.5" font-family="Helvetica,sans-Serif" font-size="10.00" fill="#000000">LoopManager::LoadScene</text>
</a>
</g>
</g>
<!-- Node446&#45;&gt;Node459 -->
<g id="edge17" class="edge">
<title>Node446&#45;&gt;Node459</title>
<path fill="none" stroke="#191970" d="M68.9002,-122.7846C85.4935,-104.6478 113.9584,-76.4777 144,-60 155.2317,-53.8394 168.1904,-49.1377 180.5335,-45.6008"/>
<polygon fill="#191970" stroke="#191970" points="66.2062,-120.5466 62.1486,-130.3337 71.4238,-125.2131 66.2062,-120.5466"/>
</g>
<!-- Node448 -->
<g id="node3" class="node">
<title>Node448</title>
<g id="a_node3"><a xlink:href="classLoopManager.html#a00143be12c150c0a89c4f99c1e8d5e70" target="_top" xlink:title="LoopManager::GetWriteBlock">
<polygon fill="#ffffff" stroke="#000000" points="354.5,-240.5 354.5,-259.5 512.5,-259.5 512.5,-240.5 354.5,-240.5"/>
<text text-anchor="middle" x="433.5" y="-247.5" font-family="Helvetica,sans-Serif" font-size="10.00" fill="#000000">LoopManager::GetWriteBlock</text>
</a>
</g>
</g>
<!-- Node447&#45;&gt;Node448 -->
<g id="edge2" class="edge">
<title>Node447&#45;&gt;Node448</title>
<path fill="none" stroke="#191970" d="M295.0813,-250C314.0386,-250 334.8724,-250 354.4925,-250"/>
<polygon fill="#191970" stroke="#191970" points="295.0599,-246.5001 285.0598,-250 295.0598,-253.5001 295.0599,-246.5001"/>
</g>
<!-- Node450 -->
<g id="node5" class="node">
<title>Node450</title>
<g id="a_node5"><a xlink:href="classLoopManager.html#a861cdd2ace9aeb53b4ecf92728215265" target="_top" xlink:title="LoopManager::Deactivate">
<polygon fill="#ffffff" stroke="#000000" points="363,-196.5 363,-215.5 504,-215.5 504,-196.5 363,-196.5"/>
<text text-anchor="middle" x="433.5" y="-203.5" font-family="Helvetica,sans-Serif" font-size="10.00" fill="#000000">LoopManager::Deactivate</text>
</a>
</g>
</g>
<!-- Node449&#45;&gt;Node450 -->
<g id="edge4" class="edge">
<title>Node449&#45;&gt;Node450</title>
<path fill="none" stroke="#191970" d="M323.2109,-206C336.5434,-206 350.0528,-206 362.8296,-206"/>
<polygon fill="#191970" stroke="#191970" points="323.0649,-202.5001 313.0649,-206 323.0649,-209.5001 323.0649,-202.5001"/>
</g>
<!-- Node451 -->
<g id="node6" class="node">
<title>Node451</title>
<g id="a_node6"><a xlink:href="classFweelin.html#a4654015e2bc7cc94f3bfc421899a60d3" target="_top" xlink:title="Fweelin::TriggerSnapshot">
<polygon fill="#ffffff" stroke="#000000" points="564.5,-228.5 564.5,-247.5 702.5,-247.5 702.5,-228.5 564.5,-228.5"/>
<text text-anchor="middle" x="633.5" y="-235.5" font-family="Helvetica,sans-Serif" font-size="10.00" fill="#000000">Fweelin::TriggerSnapshot</text>
</a>
</g>
</g>
<!-- Node450&#45;&gt;Node451 -->
<g id="edge5" class="edge">
<title>Node450&#45;&gt;Node451</title>
<path fill="none" stroke="#191970" d="M503.0444,-217.1271C526.1439,-220.823 551.6403,-224.9024 573.9187,-228.467"/>
<polygon fill="#191970" stroke="#191970" points="503.3925,-213.6384 492.9651,-215.5144 502.2865,-220.5504 503.3925,-213.6384"/>
</g>
<!-- Node450&#45;&gt;Node452 -->
<g id="edge7" class="edge">
<title>Node450&#45;&gt;Node452</title>
<path fill="none" stroke="#191970" d="M514.3263,-201.1306C570.4507,-196.8233 646.75,-189.1215 713,-176 742.6711,-170.1233 775.8028,-160.012 798.4769,-152.5265"/>
<polygon fill="#191970" stroke="#191970" points="513.7996,-197.6601 504.0884,-201.8958 514.3215,-204.6406 513.7996,-197.6601"/>
</g>
<!-- Node451&#45;&gt;Node452 -->
<g id="edge6" class="edge">
<title>Node451&#45;&gt;Node452</title>
<path fill="none" stroke="#191970" d="M682.3948,-225.4923C692.6929,-222.2375 703.3541,-218.3898 713,-214 751.591,-196.4373 792.7521,-167.7027 813.0888,-152.743"/>
<polygon fill="#191970" stroke="#191970" points="681.2371,-222.1858 672.6776,-228.4297 683.2626,-228.8863 681.2371,-222.1858"/>
</g>
<!-- Node454 -->
<g id="node9" class="node">
<title>Node454</title>
<g id="a_node9"><a xlink:href="classLoopManager.html#a332a9868980750f28fbf0e05b2336174" target="_top" xlink:title="LoopManager::DeleteLoop">
<polygon fill="#ffffff" stroke="#000000" points="362,-92.5 362,-111.5 505,-111.5 505,-92.5 362,-92.5"/>
<text text-anchor="middle" x="433.5" y="-99.5" font-family="Helvetica,sans-Serif" font-size="10.00" fill="#000000">LoopManager::DeleteLoop</text>
</a>
</g>
</g>
<!-- Node453&#45;&gt;Node454 -->
<g id="edge9" class="edge">
<title>Node453&#45;&gt;Node454</title>
<path fill="none" stroke="#191970" d="M323.3913,-110.5939C336.3306,-109.584 349.4325,-108.5614 361.8662,-107.5909"/>
<polygon fill="#191970" stroke="#191970" points="322.7622,-107.1322 313.0649,-111.3998 323.307,-114.111 322.7622,-107.1322"/>
</g>
<!-- Node454&#45;&gt;Node452 -->
<g id="edge13" class="edge">
<title>Node454&#45;&gt;Node452</title>
<path fill="none" stroke="#191970" d="M515.3829,-110.5534C584.108,-117.7323 681.5745,-127.9135 748.9156,-134.9479"/>
<polygon fill="#191970" stroke="#191970" points="515.3437,-107.0303 505.0342,-109.4724 514.6164,-113.9924 515.3437,-107.0303"/>
</g>
<!-- Node455 -->
<g id="node10" class="node">
<title>Node455</title>
<g id="a_node10"><a xlink:href="classLoopManager.html#a6048a702c9cec3676a1c56792b16ec44" target="_top" xlink:title="LoopManager::ReadComplete">
<polygon fill="#ffffff" stroke="#000000" points="554,-76.5 554,-95.5 713,-95.5 713,-76.5 554,-76.5"/>
<text text-anchor="middle" x="633.5" y="-83.5" font-family="Helvetica,sans-Serif" font-size="10.00" fill="#000000">LoopManager::ReadComplete</text>
</a>
</g>
</g>
<!-- Node454&#45;&gt;Node455 -->
<g id="edge10" class="edge">
<title>Node454&#45;&gt;Node455</title>
<path fill="none" stroke="#191970" d="M515.2617,-95.4591C528.013,-94.439 541.1739,-93.3861 553.8767,-92.3699"/>
<polygon fill="#191970" stroke="#191970" points="514.8287,-91.9824 505.1397,-96.2688 515.387,-98.9601 514.8287,-91.9824"/>
</g>
<!-- Node456 -->
<g id="node11" class="node">
<title>Node456</title>
<g id="a_node11"><a xlink:href="classLoopManager.html#a8efb4c8acabceb10faa8660c14c89d71" target="_top" xlink:title="LoopManager::DeletePulse">
<polygon fill="#ffffff" stroke="#000000" points="560.5,-38.5 560.5,-57.5 706.5,-57.5 706.5,-38.5 560.5,-38.5"/>
<text text-anchor="middle" x="633.5" y="-45.5" font-family="Helvetica,sans-Serif" font-size="10.00" fill="#000000">LoopManager::DeletePulse</text>
</a>
</g>
</g>
<!-- Node454&#45;&gt;Node456 -->
<g id="edge11" class="edge">
<title>Node454&#45;&gt;Node456</title>
<path fill="none" stroke="#191970" d="M474.7036,-89.5001C497.9183,-82.5914 527.4909,-74.0133 554,-67 566.2097,-63.7698 579.5386,-60.4891 591.7328,-57.5836"/>
<polygon fill="#191970" stroke="#191970" points="473.4243,-86.2294 464.8457,-92.447 475.4292,-92.9361 473.4243,-86.2294"/>
</g>
<!-- Node456&#45;&gt;Node452 -->
<g id="edge12" class="edge">
<title>Node456&#45;&gt;Node452</title>
<path fill="none" stroke="#191970" d="M695.0106,-60.3534C701.1895,-62.288 707.2859,-64.4938 713,-67 753.488,-84.7581 795.1206,-117.1252 814.6219,-133.2829"/>
<polygon fill="#191970" stroke="#191970" points="695.8552,-56.9542 685.2762,-57.5322 693.9067,-63.6775 695.8552,-56.9542"/>
</g>
<!-- Node458 -->
<g id="node13" class="node">
<title>Node458</title>
<g id="a_node13"><a xlink:href="classLoopManager.html#af67b2c3a3417115739cccbe6360828fe" target="_top" xlink:title="LoopManager::MoveLoop">
<polygon fill="#ffffff" stroke="#000000" points="565,-.5 565,-19.5 702,-19.5 702,-.5 565,-.5"/>
<text text-anchor="middle" x="633.5" y="-7.5" font-family="Helvetica,sans-Serif" font-size="10.00" fill="#000000">LoopManager::MoveLoop</text>
</a>
</g>
</g>
<!-- Node457&#45;&gt;Node458 -->
<g id="edge15" class="edge">
<title>Node457&#45;&gt;Node458</title>
<path fill="none" stroke="#191970" d="M528.2571,-26.8389C543.885,-24.3384 559.6841,-21.8105 574.122,-19.5005"/>
<polygon fill="#191970" stroke="#191970" points="527.3495,-23.4395 518.0281,-28.4755 528.4555,-30.3516 527.3495,-23.4395"/>
</g>
<!-- Node458&#45;&gt;Node452 -->
<g id="edge16" class="edge">
<title>Node458&#45;&gt;Node452</title>
<path fill="none" stroke="#191970" d="M700.3397,-23.0108C704.7321,-24.7624 708.9953,-26.7484 713,-29 761.8248,-56.4517 803.6405,-111.0733 819.3546,-133.2764"/>
<polygon fill="#191970" stroke="#191970" points="701.1627,-19.5889 690.568,-19.5388 698.819,-26.185 701.1627,-19.5889"/>
</g>
</g>
</svg>
