<?xml version="1.0" encoding="UTF-8" standalone="no"?>
<!DOCTYPE svg PUBLIC "-//W3C//DTD SVG 1.1//EN"
 "http://www.w3.org/Graphics/SVG/1.1/DTD/svg11.dtd">
<!-- Generated by graphviz version 2.40.1 (20161225.0304)
 -->
<!-- Title: MidiIO::ReceiveNoteOffEvent Pages: 1 -->
<svg width="583pt" height="218pt"
 viewBox="0.00 0.00 583.00 218.00" xmlns="http://www.w3.org/2000/svg" xmlns:xlink="http://www.w3.org/1999/xlink">
<g id="graph0" class="graph" transform="scale(1 1) rotate(0) translate(4 214)">
<title>MidiIO::ReceiveNoteOffEvent</title>
<polygon fill="#ffffff" stroke="transparent" points="-4,4 -4,-214 579,-214 579,4 -4,4"/>
<!-- Node249 -->
<g id="node1" class="node">
<title>Node249</title>
<polygon fill="#bfbfbf" stroke="#000000" points="0,-114.5 0,-133.5 157,-133.5 157,-114.5 0,-114.5"/>
<text text-anchor="middle" x="78.5" y="-121.5" font-family="Helvetica,sans-Serif" font-size="10.00" fill="#000000">MidiIO::ReceiveNoteOffEvent</text>
</g>
<!-- Node250 -->
<g id="node2" class="node">
<title>Node250</title>
<g id="a_node2"><a xlink:href="classEvent.html#aa67af0ae99b897e4f0ce42068c4e4c00" target="_top" xlink:title="Event::GetEventByType">
<polygon fill="#ffffff" stroke="#000000" points="223,-190.5 223,-209.5 354,-209.5 354,-190.5 223,-190.5"/>
<text text-anchor="middle" x="288.5" y="-197.5" font-family="Helvetica,sans-Serif" font-size="10.00" fill="#000000">Event::GetEventByType</text>
</a>
</g>
</g>
<!-- Node249&#45;&gt;Node250 -->
<g id="edge1" class="edge">
<title>Node249&#45;&gt;Node250</title>
<path fill="none" stroke="#191970" d="M94.2213,-133.5193C115.7661,-146.1633 156.0164,-168.3675 193,-181 200.9912,-183.7295 209.4999,-186.1173 218.02,-188.1927"/>
<polygon fill="#191970" stroke="#191970" points="217.4666,-191.6567 227.9967,-190.4873 219.0357,-184.8348 217.4666,-191.6567"/>
</g>
<!-- Node251 -->
<g id="node3" class="node">
<title>Node251</title>
<g id="a_node3"><a xlink:href="classFweelin.html#a681d7ca8d0789199af135f22c26a5409" target="_top" xlink:title="Fweelin::getCFG">
<polygon fill="#ffffff" stroke="#000000" points="241,-152.5 241,-171.5 336,-171.5 336,-152.5 241,-152.5"/>
<text text-anchor="middle" x="288.5" y="-159.5" font-family="Helvetica,sans-Serif" font-size="10.00" fill="#000000">Fweelin::getCFG</text>
</a>
</g>
</g>
<!-- Node249&#45;&gt;Node251 -->
<g id="edge2" class="edge">
<title>Node249&#45;&gt;Node251</title>
<path fill="none" stroke="#191970" d="M131.2208,-133.54C161.5887,-139.0351 199.7895,-145.9476 230.9381,-151.584"/>
<polygon fill="#191970" stroke="#191970" points="230.3212,-155.0292 240.7847,-153.3658 231.5677,-148.141 230.3212,-155.0292"/>
</g>
<!-- Node252 -->
<g id="node4" class="node">
<title>Node252</title>
<g id="a_node4"><a xlink:href="classFloConfig.html#aaedfda90b488c27061a73b3bc98faf9a" target="_top" xlink:title="FloConfig::IsDebugInfo">
<polygon fill="#ffffff" stroke="#000000" points="225.5,-114.5 225.5,-133.5 351.5,-133.5 351.5,-114.5 225.5,-114.5"/>
<text text-anchor="middle" x="288.5" y="-121.5" font-family="Helvetica,sans-Serif" font-size="10.00" fill="#000000">FloConfig::IsDebugInfo</text>
</a>
</g>
</g>
<!-- Node249&#45;&gt;Node252 -->
<g id="edge3" class="edge">
<title>Node249&#45;&gt;Node252</title>
<path fill="none" stroke="#191970" d="M157.2937,-124C176.246,-124 196.4153,-124 215.1101,-124"/>
<polygon fill="#191970" stroke="#191970" points="215.3274,-127.5001 225.3274,-124 215.3273,-120.5001 215.3274,-127.5001"/>
</g>
<!-- Node253 -->
<g id="node5" class="node">
<title>Node253</title>
<g id="a_node5"><a xlink:href="classFweelin.html#a21e51d7b639faaecc415624ab6c16a71" target="_top" xlink:title="Fweelin::getEMG">
<polygon fill="#ffffff" stroke="#000000" points="239.5,-76.5 239.5,-95.5 337.5,-95.5 337.5,-76.5 239.5,-76.5"/>
<text text-anchor="middle" x="288.5" y="-83.5" font-family="Helvetica,sans-Serif" font-size="10.00" fill="#000000">Fweelin::getEMG</text>
</a>
</g>
</g>
<!-- Node249&#45;&gt;Node253 -->
<g id="edge4" class="edge">
<title>Node249&#45;&gt;Node253</title>
<path fill="none" stroke="#191970" d="M131.2208,-114.46C161.0206,-109.0677 198.363,-102.3105 229.1827,-96.7336"/>
<polygon fill="#191970" stroke="#191970" points="230.1473,-100.116 239.3643,-94.8912 228.9009,-93.2278 230.1473,-100.116"/>
</g>
<!-- Node254 -->
<g id="node6" class="node">
<title>Node254</title>
<g id="a_node6"><a xlink:href="classEventManager.html#a4a73f2e7ff1724f28427f7c0d5725c8e" target="_top" xlink:title="EventManager::BroadcastEventNow">
<polygon fill="#ffffff" stroke="#000000" points="193,-38.5 193,-57.5 384,-57.5 384,-38.5 193,-38.5"/>
<text text-anchor="middle" x="288.5" y="-45.5" font-family="Helvetica,sans-Serif" font-size="10.00" fill="#000000">EventManager::BroadcastEventNow</text>
</a>
</g>
</g>
<!-- Node249&#45;&gt;Node254 -->
<g id="edge5" class="edge">
<title>Node249&#45;&gt;Node254</title>
<path fill="none" stroke="#191970" d="M94.2213,-114.4807C115.7661,-101.8367 156.0164,-79.6325 193,-67 200.9912,-64.2705 209.4999,-61.8827 218.02,-59.8073"/>
<polygon fill="#191970" stroke="#191970" points="219.0357,-63.1652 227.9967,-57.5127 217.4666,-56.3433 219.0357,-63.1652"/>
</g>
<!-- Node255 -->
<g id="node7" class="node">
<title>Node255</title>
<g id="a_node7"><a xlink:href="classEvent.html#ac4c4170579544b41dff38ca1b8110e30" target="_top" xlink:title="Event::GetType">
<polygon fill="#ffffff" stroke="#000000" points="452.5,-76.5 452.5,-95.5 542.5,-95.5 542.5,-76.5 452.5,-76.5"/>
<text text-anchor="middle" x="497.5" y="-83.5" font-family="Helvetica,sans-Serif" font-size="10.00" fill="#000000">Event::GetType</text>
</a>
</g>
</g>
<!-- Node254&#45;&gt;Node255 -->
<g id="edge6" class="edge">
<title>Node254&#45;&gt;Node255</title>
<path fill="none" stroke="#191970" d="M340.9698,-57.54C371.9568,-63.174 411.1385,-70.2979 442.5488,-76.0089"/>
<polygon fill="#191970" stroke="#191970" points="441.9888,-79.4644 452.4536,-77.8097 443.241,-72.5773 441.9888,-79.4644"/>
</g>
<!-- Node256 -->
<g id="node8" class="node">
<title>Node256</title>
<g id="a_node8"><a xlink:href="classEventListener.html#a831820a9229e852bd7e2fad686b725b2" target="_top" xlink:title="EventListener::ReceiveEvent">
<polygon fill="#ffffff" stroke="#000000" points="420,-38.5 420,-57.5 575,-57.5 575,-38.5 420,-38.5"/>
<text text-anchor="middle" x="497.5" y="-45.5" font-family="Helvetica,sans-Serif" font-size="10.00" fill="#000000">EventListener::ReceiveEvent</text>
</a>
</g>
</g>
<!-- Node254&#45;&gt;Node256 -->
<g id="edge7" class="edge">
<title>Node254&#45;&gt;Node256</title>
<path fill="none" stroke="#191970" d="M384.1311,-48C392.6132,-48 401.1737,-48 409.5871,-48"/>
<polygon fill="#191970" stroke="#191970" points="409.7614,-51.5001 419.7614,-48 409.7614,-44.5001 409.7614,-51.5001"/>
</g>
<!-- Node257 -->
<g id="node9" class="node">
<title>Node257</title>
<g id="a_node9"><a xlink:href="classPreallocated.html#aaf2139a79ca16de70acd9bc4564171b7" target="_top" xlink:title="Preallocated::RTDelete">
<polygon fill="#ffffff" stroke="#000000" points="433.5,-.5 433.5,-19.5 561.5,-19.5 561.5,-.5 433.5,-.5"/>
<text text-anchor="middle" x="497.5" y="-7.5" font-family="Helvetica,sans-Serif" font-size="10.00" fill="#000000">Preallocated::RTDelete</text>
</a>
</g>
</g>
<!-- Node254&#45;&gt;Node257 -->
<g id="edge8" class="edge">
<title>Node254&#45;&gt;Node257</title>
<path fill="none" stroke="#191970" d="M340.9698,-38.46C369.5413,-33.2652 405.0796,-26.8037 435.0691,-21.3511"/>
<polygon fill="#191970" stroke="#191970" points="435.7961,-24.7764 445.0087,-19.5439 434.5438,-17.8893 435.7961,-24.7764"/>
</g>
</g>
</svg>
