<?xml version="1.0" encoding="UTF-8" standalone="no"?>
<!DOCTYPE svg PUBLIC "-//W3C//DTD SVG 1.1//EN"
 "http://www.w3.org/Graphics/SVG/1.1/DTD/svg11.dtd">
<!-- Generated by graphviz version 2.40.1 (20161225.0304)
 -->
<!-- Title: VorbisEncoder::WriteSamplesToDisk Pages: 1 -->
<svg width="363pt" height="116pt"
 viewBox="0.00 0.00 363.00 115.50" xmlns="http://www.w3.org/2000/svg" xmlns:xlink="http://www.w3.org/1999/xlink">
<g id="graph0" class="graph" transform="scale(1 1) rotate(0) translate(4 111.5)">
<title>VorbisEncoder::WriteSamplesToDisk</title>
<polygon fill="#ffffff" stroke="transparent" points="-4,4 -4,-111.5 359,-111.5 359,4 -4,4"/>
<!-- Node20 -->
<g id="node1" class="node">
<title>Node20</title>
<polygon fill="#bfbfbf" stroke="#000000" points="0,-33 0,-63 159,-63 159,-33 0,-33"/>
<text text-anchor="start" x="8" y="-51" font-family="Helvetica,sans-Serif" font-size="10.00" fill="#000000">VorbisEncoder::WriteSamples</text>
<text text-anchor="middle" x="79.5" y="-40" font-family="Helvetica,sans-Serif" font-size="10.00" fill="#000000">ToDisk</text>
</g>
<!-- Node21 -->
<g id="node2" class="node">
<title>Node21</title>
<g id="a_node2"><a xlink:href="classVorbisEncoder.html#a75bd281beaa2424d4098d758a2015285" target="_top" xlink:title="VorbisEncoder::GetAnalysis\lBuffer">
<polygon fill="#ffffff" stroke="#000000" points="200,-77 200,-107 350,-107 350,-77 200,-77"/>
<text text-anchor="start" x="208" y="-95" font-family="Helvetica,sans-Serif" font-size="10.00" fill="#000000">VorbisEncoder::GetAnalysis</text>
<text text-anchor="middle" x="275" y="-84" font-family="Helvetica,sans-Serif" font-size="10.00" fill="#000000">Buffer</text>
</a>
</g>
</g>
<!-- Node20&#45;&gt;Node21 -->
<g id="edge1" class="edge">
<title>Node20&#45;&gt;Node21</title>
<path fill="none" stroke="#191970" d="M146.2332,-63.0192C162.9698,-66.786 181.0597,-70.8574 198.2415,-74.7244"/>
<polygon fill="#191970" stroke="#191970" points="197.7113,-78.1926 208.2358,-76.9738 199.2484,-71.3634 197.7113,-78.1926"/>
</g>
<!-- Node22 -->
<g id="node3" class="node">
<title>Node22</title>
<g id="a_node3"><a xlink:href="classVorbisEncoder.html#ac5158c1a7afd1441ef07a3a12f71ac23" target="_top" xlink:title="VorbisEncoder::WroteToBuffer">
<polygon fill="#ffffff" stroke="#000000" points="195,-38.5 195,-57.5 355,-57.5 355,-38.5 195,-38.5"/>
<text text-anchor="middle" x="275" y="-45.5" font-family="Helvetica,sans-Serif" font-size="10.00" fill="#000000">VorbisEncoder::WroteToBuffer</text>
</a>
</g>
</g>
<!-- Node20&#45;&gt;Node22 -->
<g id="edge2" class="edge">
<title>Node20&#45;&gt;Node22</title>
<path fill="none" stroke="#191970" d="M159.0173,-48C167.5273,-48 176.2283,-48 184.8501,-48"/>
<polygon fill="#191970" stroke="#191970" points="184.9186,-51.5001 194.9186,-48 184.9185,-44.5001 184.9186,-51.5001"/>
</g>
<!-- Node23 -->
<g id="node4" class="node">
<title>Node23</title>
<g id="a_node4"><a xlink:href="classVorbisEncoder.html#ab25e2064c164236ee119ee6ccd0c66f3" target="_top" xlink:title="VorbisEncoder::Encode">
<polygon fill="#ffffff" stroke="#000000" points="211.5,-.5 211.5,-19.5 338.5,-19.5 338.5,-.5 211.5,-.5"/>
<text text-anchor="middle" x="275" y="-7.5" font-family="Helvetica,sans-Serif" font-size="10.00" fill="#000000">VorbisEncoder::Encode</text>
</a>
</g>
</g>
<!-- Node20&#45;&gt;Node23 -->
<g id="edge3" class="edge">
<title>Node20&#45;&gt;Node23</title>
<path fill="none" stroke="#191970" d="M156.7668,-32.9814C176.5797,-29.1303 197.5682,-25.0507 216.2752,-21.4145"/>
<polygon fill="#191970" stroke="#191970" points="216.9718,-24.8447 226.1203,-19.5009 215.6361,-17.9733 216.9718,-24.8447"/>
</g>
</g>
</svg>
