<?xml version="1.0" encoding="UTF-8" standalone="no"?>
<!DOCTYPE svg PUBLIC "-//W3C//DTD SVG 1.1//EN"
 "http://www.w3.org/Graphics/SVG/1.1/DTD/svg11.dtd">
<!-- Generated by graphviz version 2.40.1 (20161225.0304)
 -->
<!-- Title: PeaksAvgsManager::End Pages: 1 -->
<svg width="938pt" height="298pt"
 viewBox="0.00 0.00 938.00 297.54" xmlns="http://www.w3.org/2000/svg" xmlns:xlink="http://www.w3.org/1999/xlink">
<g id="graph0" class="graph" transform="scale(1 1) rotate(0) translate(4 293.538)">
<title>PeaksAvgsManager::End</title>
<polygon fill="#ffffff" stroke="transparent" points="-4,4 -4,-293.538 934,-293.538 934,4 -4,4"/>
<!-- Node5 -->
<g id="node1" class="node">
<title>Node5</title>
<polygon fill="#bfbfbf" stroke="#000000" points="0,-106.538 0,-125.538 135,-125.538 135,-106.538 0,-106.538"/>
<text text-anchor="middle" x="67.5" y="-113.538" font-family="Helvetica,sans-Serif" font-size="10.00" fill="#000000">PeaksAvgsManager::End</text>
</g>
<!-- Node6 -->
<g id="node2" class="node">
<title>Node6</title>
<g id="a_node2"><a xlink:href="classBlockReadManager.html#a0956beb932559fdea3ecca152db2bd0a" target="_top" xlink:title="BlockReadManager::End">
<polygon fill="#ffffff" stroke="#000000" points="192.5,-182.538 192.5,-201.538 326.5,-201.538 326.5,-182.538 192.5,-182.538"/>
<text text-anchor="middle" x="259.5" y="-189.538" font-family="Helvetica,sans-Serif" font-size="10.00" fill="#000000">BlockReadManager::End</text>
</a>
</g>
</g>
<!-- Node5&#45;&gt;Node6 -->
<g id="edge1" class="edge">
<title>Node5&#45;&gt;Node6</title>
<path fill="none" stroke="#191970" d="M101.5332,-129.5095C139.9813,-144.7285 201.586,-169.1137 235.3805,-182.4907"/>
<polygon fill="#191970" stroke="#191970" points="102.4032,-126.0897 91.8169,-125.6635 99.8268,-132.5983 102.4032,-126.0897"/>
</g>
<!-- Node11 -->
<g id="node7" class="node">
<title>Node11</title>
<g id="a_node7"><a xlink:href="classRecordProcessor.html#a9984f573bbc265321ad0604f97b23820" target="_top" xlink:title="RecordProcessor::EndNow">
<polygon fill="#ffffff" stroke="#000000" points="393,-106.538 393,-125.538 536,-125.538 536,-106.538 393,-106.538"/>
<text text-anchor="middle" x="464.5" y="-113.538" font-family="Helvetica,sans-Serif" font-size="10.00" fill="#000000">RecordProcessor::EndNow</text>
</a>
</g>
</g>
<!-- Node5&#45;&gt;Node11 -->
<g id="edge7" class="edge">
<title>Node5&#45;&gt;Node11</title>
<path fill="none" stroke="#191970" d="M145.648,-116.038C217.5341,-116.038 323.2484,-116.038 392.9618,-116.038"/>
<polygon fill="#191970" stroke="#191970" points="145.2957,-112.5381 135.2956,-116.038 145.2956,-119.5381 145.2957,-112.5381"/>
</g>
<!-- Node15 -->
<g id="node11" class="node">
<title>Node15</title>
<g id="a_node11"><a xlink:href="classRecordProcessor.html#a5bce44b8a038567efcf660cfeeae93f4" target="_top" xlink:title="RecordProcessor::AbortRecording">
<polygon fill="#ffffff" stroke="#000000" points="171,-68.538 171,-87.538 348,-87.538 348,-68.538 171,-68.538"/>
<text text-anchor="middle" x="259.5" y="-75.538" font-family="Helvetica,sans-Serif" font-size="10.00" fill="#000000">RecordProcessor::AbortRecording</text>
</a>
</g>
</g>
<!-- Node5&#45;&gt;Node15 -->
<g id="edge11" class="edge">
<title>Node5&#45;&gt;Node15</title>
<path fill="none" stroke="#191970" d="M125.798,-104.4999C153.1826,-99.08 185.4334,-92.697 211.3987,-87.5581"/>
<polygon fill="#191970" stroke="#191970" points="125.0799,-101.074 115.9497,-106.449 126.439,-107.9408 125.0799,-101.074"/>
</g>
<!-- Node7 -->
<g id="node3" class="node">
<title>Node7</title>
<g id="a_node3"><a xlink:href="classBlockReadManager.html#a935aa663d9fa5b6d346f77c7b3882e2b" target="_top" xlink:title="BlockReadManager::\l~BlockReadManager">
<polygon fill="#ffffff" stroke="#000000" points="405.5,-259.038 405.5,-289.038 523.5,-289.038 523.5,-259.038 405.5,-259.038"/>
<text text-anchor="start" x="413.5" y="-277.038" font-family="Helvetica,sans-Serif" font-size="10.00" fill="#000000">BlockReadManager::</text>
<text text-anchor="middle" x="464.5" y="-266.038" font-family="Helvetica,sans-Serif" font-size="10.00" fill="#000000">~BlockReadManager</text>
</a>
</g>
</g>
<!-- Node6&#45;&gt;Node7 -->
<g id="edge2" class="edge">
<title>Node6&#45;&gt;Node7</title>
<path fill="none" stroke="#191970" d="M287.8139,-206.2642C312.7639,-218.4937 350.2843,-236.1455 384,-249.038 393.1582,-252.54 403.0366,-255.9213 412.6309,-259.0053"/>
<polygon fill="#191970" stroke="#191970" points="289.0969,-202.9943 278.5809,-201.7045 285.9973,-209.2707 289.0969,-202.9943"/>
</g>
<!-- Node8 -->
<g id="node4" class="node">
<title>Node8</title>
<g id="a_node4"><a xlink:href="classBlockReadManager.html#af12804c61f944904eedf8c9edf5cd3bd" target="_top" xlink:title="BlockReadManager::Start">
<polygon fill="#ffffff" stroke="#000000" points="395,-220.538 395,-239.538 534,-239.538 534,-220.538 395,-220.538"/>
<text text-anchor="middle" x="464.5" y="-227.538" font-family="Helvetica,sans-Serif" font-size="10.00" fill="#000000">BlockReadManager::Start</text>
</a>
</g>
</g>
<!-- Node6&#45;&gt;Node8 -->
<g id="edge3" class="edge">
<title>Node6&#45;&gt;Node8</title>
<path fill="none" stroke="#191970" d="M321.0978,-203.4561C350.4296,-208.8933 385.107,-215.3213 413.0133,-220.4941"/>
<polygon fill="#191970" stroke="#191970" points="321.436,-199.9593 310.9655,-201.578 320.1601,-206.842 321.436,-199.9593"/>
</g>
<!-- Node9 -->
<g id="node5" class="node">
<title>Node9</title>
<g id="a_node5"><a xlink:href="classBlockReadManager.html#aa990976dec4a3ec5bd6384b54ce5f09b" target="_top" xlink:title="BlockReadManager::Manage">
<polygon fill="#ffffff" stroke="#000000" points="583.5,-220.538 583.5,-239.538 737.5,-239.538 737.5,-220.538 583.5,-220.538"/>
<text text-anchor="middle" x="660.5" y="-227.538" font-family="Helvetica,sans-Serif" font-size="10.00" fill="#000000">BlockReadManager::Manage</text>
</a>
</g>
</g>
<!-- Node6&#45;&gt;Node9 -->
<g id="edge5" class="edge">
<title>Node6&#45;&gt;Node9</title>
<path fill="none" stroke="#191970" d="M336.6921,-195.1543C394.2417,-197.9678 474.7038,-202.9361 545,-211.038 566.0964,-213.4694 589.2153,-217.0818 609.1903,-220.5058"/>
<polygon fill="#191970" stroke="#191970" points="336.7368,-191.6526 326.581,-194.6706 336.4023,-198.6446 336.7368,-191.6526"/>
</g>
<!-- Node10 -->
<g id="node6" class="node">
<title>Node10</title>
<g id="a_node6"><a xlink:href="classLoopManager.html#aadca58536e41c8b0b8fd148ac40b23c0" target="_top" xlink:title="LoopManager::~LoopManager">
<polygon fill="#ffffff" stroke="#000000" points="384,-144.538 384,-163.538 545,-163.538 545,-144.538 384,-144.538"/>
<text text-anchor="middle" x="464.5" y="-151.538" font-family="Helvetica,sans-Serif" font-size="10.00" fill="#000000">LoopManager::~LoopManager</text>
</a>
</g>
</g>
<!-- Node6&#45;&gt;Node10 -->
<g id="edge6" class="edge">
<title>Node6&#45;&gt;Node10</title>
<path fill="none" stroke="#191970" d="M321.0978,-180.6199C350.4296,-175.1828 385.107,-168.7548 413.0133,-163.5819"/>
<polygon fill="#191970" stroke="#191970" points="320.1601,-177.234 310.9655,-182.4981 321.436,-184.1167 320.1601,-177.234"/>
</g>
<!-- Node8&#45;&gt;Node9 -->
<g id="edge4" class="edge">
<title>Node8&#45;&gt;Node9</title>
<path fill="none" stroke="#191970" d="M544.3789,-230.038C557.2664,-230.038 570.587,-230.038 583.407,-230.038"/>
<polygon fill="#191970" stroke="#191970" points="544.1542,-226.5381 534.1541,-230.038 544.1541,-233.5381 544.1542,-226.5381"/>
</g>
<!-- Node12 -->
<g id="node8" class="node">
<title>Node12</title>
<g id="a_node8"><a xlink:href="classRecordProcessor.html#a6168d8dc850602a348dc74ab1224263a" target="_top" xlink:title="RecordProcessor::PulseSync">
<polygon fill="#ffffff" stroke="#000000" points="584.5,-182.538 584.5,-201.538 736.5,-201.538 736.5,-182.538 584.5,-182.538"/>
<text text-anchor="middle" x="660.5" y="-189.538" font-family="Helvetica,sans-Serif" font-size="10.00" fill="#000000">RecordProcessor::PulseSync</text>
</a>
</g>
</g>
<!-- Node11&#45;&gt;Node12 -->
<g id="edge8" class="edge">
<title>Node11&#45;&gt;Node12</title>
<path fill="none" stroke="#191970" d="M532.7133,-129.0884C536.9792,-130.8294 541.1143,-132.8024 545,-135.038 565.165,-146.64 560.8513,-161.4077 581,-173.038 587.7596,-176.9398 595.2843,-180.0421 602.9332,-182.5083"/>
<polygon fill="#191970" stroke="#191970" points="533.8055,-125.7614 523.2114,-125.6354 531.4146,-132.3405 533.8055,-125.7614"/>
</g>
<!-- Node13 -->
<g id="node9" class="node">
<title>Node13</title>
<g id="a_node9"><a xlink:href="classRecordProcessor.html#ab035edfb707f8f1066b3597df7ddda7d" target="_top" xlink:title="RecordProcessor::End">
<polygon fill="#ffffff" stroke="#000000" points="600,-144.538 600,-163.538 721,-163.538 721,-144.538 600,-144.538"/>
<text text-anchor="middle" x="660.5" y="-151.538" font-family="Helvetica,sans-Serif" font-size="10.00" fill="#000000">RecordProcessor::End</text>
</a>
</g>
</g>
<!-- Node11&#45;&gt;Node13 -->
<g id="edge9" class="edge">
<title>Node11&#45;&gt;Node13</title>
<path fill="none" stroke="#191970" d="M523.7612,-127.5274C551.727,-132.9494 584.7091,-139.3438 611.2737,-144.4941"/>
<polygon fill="#191970" stroke="#191970" points="524.1895,-124.0454 513.7061,-125.578 522.8571,-130.9174 524.1895,-124.0454"/>
</g>
<!-- Node14 -->
<g id="node10" class="node">
<title>Node14</title>
<g id="a_node10"><a xlink:href="classRecordProcessor.html#ad36d69ec9d41b424eb2e6c5fa2e0cf3a" target="_top" xlink:title="RecordProcessor::process">
<polygon fill="#ffffff" stroke="#000000" points="590.5,-106.538 590.5,-125.538 730.5,-125.538 730.5,-106.538 590.5,-106.538"/>
<text text-anchor="middle" x="660.5" y="-113.538" font-family="Helvetica,sans-Serif" font-size="10.00" fill="#000000">RecordProcessor::process</text>
</a>
</g>
</g>
<!-- Node11&#45;&gt;Node14 -->
<g id="edge10" class="edge">
<title>Node11&#45;&gt;Node14</title>
<path fill="none" stroke="#191970" d="M546.1718,-116.038C560.8717,-116.038 576.0759,-116.038 590.4109,-116.038"/>
<polygon fill="#191970" stroke="#191970" points="546.0925,-112.5381 536.0925,-116.038 546.0924,-119.5381 546.0925,-112.5381"/>
</g>
<!-- Node15&#45;&gt;Node11 -->
<g id="edge18" class="edge">
<title>Node15&#45;&gt;Node11</title>
<path fill="none" stroke="#191970" d="M321.0978,-89.4561C350.4296,-94.8933 385.107,-101.3213 413.0133,-106.4941"/>
<polygon fill="#191970" stroke="#191970" points="321.436,-85.9593 310.9655,-87.578 320.1601,-92.842 321.436,-85.9593"/>
</g>
<!-- Node16 -->
<g id="node12" class="node">
<title>Node16</title>
<g id="a_node12"><a xlink:href="classLoopManager.html#a332a9868980750f28fbf0e05b2336174" target="_top" xlink:title="LoopManager::DeleteLoop">
<polygon fill="#ffffff" stroke="#000000" points="393,-68.538 393,-87.538 536,-87.538 536,-68.538 393,-68.538"/>
<text text-anchor="middle" x="464.5" y="-75.538" font-family="Helvetica,sans-Serif" font-size="10.00" fill="#000000">LoopManager::DeleteLoop</text>
</a>
</g>
</g>
<!-- Node15&#45;&gt;Node16 -->
<g id="edge12" class="edge">
<title>Node15&#45;&gt;Node16</title>
<path fill="none" stroke="#191970" d="M358.4195,-78.038C370.057,-78.038 381.756,-78.038 392.9156,-78.038"/>
<polygon fill="#191970" stroke="#191970" points="358.2237,-74.5381 348.2237,-78.038 358.2237,-81.5381 358.2237,-74.5381"/>
</g>
<!-- Node20 -->
<g id="node16" class="node">
<title>Node20</title>
<g id="a_node16"><a xlink:href="classRecordProcessor.html#a63fbf98c72bafa6c2e24a3962bdae70c" target="_top" xlink:title="RecordProcessor::~Record\lProcessor">
<polygon fill="#ffffff" stroke="#000000" points="392.5,-19.038 392.5,-49.038 536.5,-49.038 536.5,-19.038 392.5,-19.038"/>
<text text-anchor="start" x="400.5" y="-37.038" font-family="Helvetica,sans-Serif" font-size="10.00" fill="#000000">RecordProcessor::~Record</text>
<text text-anchor="middle" x="464.5" y="-26.038" font-family="Helvetica,sans-Serif" font-size="10.00" fill="#000000">Processor</text>
</a>
</g>
</g>
<!-- Node15&#45;&gt;Node20 -->
<g id="edge17" class="edge">
<title>Node15&#45;&gt;Node20</title>
<path fill="none" stroke="#191970" d="M313.8799,-66.3662C338.5393,-61.0735 368.0052,-54.7491 394.3091,-49.1034"/>
<polygon fill="#191970" stroke="#191970" points="313.0248,-62.97 303.9819,-68.4907 314.4938,-69.8141 313.0248,-62.97"/>
</g>
<!-- Node17 -->
<g id="node13" class="node">
<title>Node17</title>
<g id="a_node13"><a xlink:href="classLoopManager.html#a6048a702c9cec3676a1c56792b16ec44" target="_top" xlink:title="LoopManager::ReadComplete">
<polygon fill="#ffffff" stroke="#000000" points="581,-68.538 581,-87.538 740,-87.538 740,-68.538 581,-68.538"/>
<text text-anchor="middle" x="660.5" y="-75.538" font-family="Helvetica,sans-Serif" font-size="10.00" fill="#000000">LoopManager::ReadComplete</text>
</a>
</g>
</g>
<!-- Node16&#45;&gt;Node17 -->
<g id="edge13" class="edge">
<title>Node16&#45;&gt;Node17</title>
<path fill="none" stroke="#191970" d="M546.4389,-78.038C557.8157,-78.038 569.4894,-78.038 580.824,-78.038"/>
<polygon fill="#191970" stroke="#191970" points="546.0925,-74.5381 536.0925,-78.038 546.0924,-81.5381 546.0925,-74.5381"/>
</g>
<!-- Node18 -->
<g id="node14" class="node">
<title>Node18</title>
<g id="a_node14"><a xlink:href="classLoopManager.html#a8efb4c8acabceb10faa8660c14c89d71" target="_top" xlink:title="LoopManager::DeletePulse">
<polygon fill="#ffffff" stroke="#000000" points="587.5,-30.538 587.5,-49.538 733.5,-49.538 733.5,-30.538 587.5,-30.538"/>
<text text-anchor="middle" x="660.5" y="-37.538" font-family="Helvetica,sans-Serif" font-size="10.00" fill="#000000">LoopManager::DeletePulse</text>
</a>
</g>
</g>
<!-- Node16&#45;&gt;Node18 -->
<g id="edge14" class="edge">
<title>Node16&#45;&gt;Node18</title>
<path fill="none" stroke="#191970" d="M523.7612,-66.5486C551.727,-61.1267 584.7091,-54.7322 611.2737,-49.5819"/>
<polygon fill="#191970" stroke="#191970" points="522.8571,-63.1586 513.7061,-68.4981 524.1895,-70.0307 522.8571,-63.1586"/>
</g>
<!-- Node19 -->
<g id="node15" class="node">
<title>Node19</title>
<g id="a_node15"><a xlink:href="classLoopManager.html#a4aada2d07b7ce0a67a8119ece4805966" target="_top" xlink:title="LoopManager::ReceiveEvent">
<polygon fill="#ffffff" stroke="#000000" points="776,-11.538 776,-30.538 930,-30.538 930,-11.538 776,-11.538"/>
<text text-anchor="middle" x="853" y="-18.538" font-family="Helvetica,sans-Serif" font-size="10.00" fill="#000000">LoopManager::ReceiveEvent</text>
</a>
</g>
</g>
<!-- Node16&#45;&gt;Node19 -->
<g id="edge16" class="edge">
<title>Node16&#45;&gt;Node19</title>
<path fill="none" stroke="#191970" d="M529.8301,-65.178C535.1108,-63.1356 540.2391,-60.7722 545,-58.038 564.8962,-46.6117 559.8633,-29.9632 581,-21.038 657.3475,11.2005 756.8485,-.763 811.876,-11.4747"/>
<polygon fill="#191970" stroke="#191970" points="528.5062,-61.9326 520.2069,-68.5184 530.8017,-68.5455 528.5062,-61.9326"/>
</g>
<!-- Node18&#45;&gt;Node19 -->
<g id="edge15" class="edge">
<title>Node18&#45;&gt;Node19</title>
<path fill="none" stroke="#191970" d="M743.6986,-31.8262C754.3711,-30.7728 765.2618,-29.6979 775.8326,-28.6545"/>
<polygon fill="#191970" stroke="#191970" points="743.1583,-28.3624 733.5505,-32.8278 743.8459,-35.3286 743.1583,-28.3624"/>
</g>
</g>
</svg>
