<?xml version="1.0" encoding="UTF-8" standalone="no"?>
<!DOCTYPE svg PUBLIC "-//W3C//DTD SVG 1.1//EN"
 "http://www.w3.org/Graphics/SVG/1.1/DTD/svg11.dtd">
<!-- Generated by graphviz version 2.40.1 (20161225.0304)
 -->
<!-- Title: MidiIO::ReceivePitchBendEvent Pages: 1 -->
<svg width="446pt" height="39pt"
 viewBox="0.00 0.00 446.00 39.00" xmlns="http://www.w3.org/2000/svg" xmlns:xlink="http://www.w3.org/1999/xlink">
<g id="graph0" class="graph" transform="scale(1 1) rotate(0) translate(4 35)">
<title>MidiIO::ReceivePitchBendEvent</title>
<polygon fill="#ffffff" stroke="transparent" points="-4,4 -4,-35 442,-35 442,4 -4,4"/>
<!-- Node282 -->
<g id="node1" class="node">
<title>Node282</title>
<polygon fill="#bfbfbf" stroke="#000000" points="0,-.5 0,-30.5 140,-30.5 140,-.5 0,-.5"/>
<text text-anchor="start" x="8" y="-18.5" font-family="Helvetica,sans-Serif" font-size="10.00" fill="#000000">MidiIO::ReceivePitchBend</text>
<text text-anchor="middle" x="70" y="-7.5" font-family="Helvetica,sans-Serif" font-size="10.00" fill="#000000">Event</text>
</g>
<!-- Node283 -->
<g id="node2" class="node">
<title>Node283</title>
<g id="a_node2"><a xlink:href="classMidiIO.html#aef220bcce8b89bea36032298868a919e" target="_top" xlink:title="MidiIO::run_midi_thread">
<polygon fill="#ffffff" stroke="#000000" points="176,-6 176,-25 309,-25 309,-6 176,-6"/>
<text text-anchor="middle" x="242.5" y="-13" font-family="Helvetica,sans-Serif" font-size="10.00" fill="#000000">MidiIO::run_midi_thread</text>
</a>
</g>
</g>
<!-- Node282&#45;&gt;Node283 -->
<g id="edge1" class="edge">
<title>Node282&#45;&gt;Node283</title>
<path fill="none" stroke="#191970" d="M150.4357,-15.5C158.9067,-15.5 167.4529,-15.5 175.7453,-15.5"/>
<polygon fill="#191970" stroke="#191970" points="150.1624,-12.0001 140.1624,-15.5 150.1623,-19.0001 150.1624,-12.0001"/>
</g>
<!-- Node284 -->
<g id="node3" class="node">
<title>Node284</title>
<g id="a_node3"><a xlink:href="classMidiIO.html#a222509803679fcf4bcb7b4b4a34cf0cd" target="_top" xlink:title="MidiIO::activate">
<polygon fill="#ffffff" stroke="#000000" points="345,-6 345,-25 438,-25 438,-6 345,-6"/>
<text text-anchor="middle" x="391.5" y="-13" font-family="Helvetica,sans-Serif" font-size="10.00" fill="#000000">MidiIO::activate</text>
</a>
</g>
</g>
<!-- Node283&#45;&gt;Node284 -->
<g id="edge2" class="edge">
<title>Node283&#45;&gt;Node284</title>
<path fill="none" stroke="#191970" d="M319.3918,-15.5C328.1189,-15.5 336.8022,-15.5 344.962,-15.5"/>
<polygon fill="#191970" stroke="#191970" points="319.1556,-12.0001 309.1555,-15.5 319.1555,-19.0001 319.1556,-12.0001"/>
</g>
</g>
</svg>
