<?xml version="1.0" encoding="UTF-8" standalone="no"?>
<!DOCTYPE svg PUBLIC "-//W3C//DTD SVG 1.1//EN"
 "http://www.w3.org/Graphics/SVG/1.1/DTD/svg11.dtd">
<!-- Generated by graphviz version 2.40.1 (20161225.0304)
 -->
<!-- Title: TriggerMap::Save Pages: 1 -->
<svg width="691pt" height="66pt"
 viewBox="0.00 0.00 691.00 66.00" xmlns="http://www.w3.org/2000/svg" xmlns:xlink="http://www.w3.org/1999/xlink">
<g id="graph0" class="graph" transform="scale(1 1) rotate(0) translate(4 62)">
<title>TriggerMap::Save</title>
<polygon fill="#ffffff" stroke="transparent" points="-4,4 -4,-62 687,-62 687,4 -4,4"/>
<!-- Node108 -->
<g id="node1" class="node">
<title>Node108</title>
<polygon fill="#bfbfbf" stroke="#000000" points="0,-19.5 0,-38.5 100,-38.5 100,-19.5 0,-19.5"/>
<text text-anchor="middle" x="50" y="-26.5" font-family="Helvetica,sans-Serif" font-size="10.00" fill="#000000">TriggerMap::Save</text>
</g>
<!-- Node109 -->
<g id="node2" class="node">
<title>Node109</title>
<g id="a_node2"><a xlink:href="classLoopManager.html#ac2adaa8b989e1284abf17fc07eb0baf2" target="_top" xlink:title="LoopManager::SaveNewScene">
<polygon fill="#ffffff" stroke="#000000" points="136,-.5 136,-19.5 299,-19.5 299,-.5 136,-.5"/>
<text text-anchor="middle" x="217.5" y="-7.5" font-family="Helvetica,sans-Serif" font-size="10.00" fill="#000000">LoopManager::SaveNewScene</text>
</a>
</g>
</g>
<!-- Node108&#45;&gt;Node109 -->
<g id="edge1" class="edge">
<title>Node108&#45;&gt;Node109</title>
<path fill="none" stroke="#191970" d="M110.2508,-22.1656C118.6035,-21.2181 127.2956,-20.2321 135.9561,-19.2498"/>
<polygon fill="#191970" stroke="#191970" points="109.7973,-18.6945 100.2555,-23.2994 110.5863,-25.6499 109.7973,-18.6945"/>
</g>
<!-- Node110 -->
<g id="node3" class="node">
<title>Node110</title>
<g id="a_node3"><a xlink:href="classLoopManager.html#abd2cda6ecc976fd447167d5de7cc5912" target="_top" xlink:title="LoopManager::SaveCurScene">
<polygon fill="#ffffff" stroke="#000000" points="335,-38.5 335,-57.5 493,-57.5 493,-38.5 335,-38.5"/>
<text text-anchor="middle" x="414" y="-45.5" font-family="Helvetica,sans-Serif" font-size="10.00" fill="#000000">LoopManager::SaveCurScene</text>
</a>
</g>
</g>
<!-- Node108&#45;&gt;Node110 -->
<g id="edge5" class="edge">
<title>Node108&#45;&gt;Node110</title>
<path fill="none" stroke="#191970" d="M110.5471,-32.1604C172.0274,-35.3696 267.5223,-40.3542 334.9394,-43.8732"/>
<polygon fill="#191970" stroke="#191970" points="110.3994,-28.648 100.2305,-31.6219 110.0344,-35.6385 110.3994,-28.648"/>
</g>
<!-- Node109&#45;&gt;Node110 -->
<g id="edge2" class="edge">
<title>Node109&#45;&gt;Node110</title>
<path fill="none" stroke="#191970" d="M276.9123,-21.4894C304.9495,-26.9114 338.0157,-33.3058 364.6481,-38.4561"/>
<polygon fill="#191970" stroke="#191970" points="277.3143,-18.0024 266.8316,-19.54 275.9852,-24.875 277.3143,-18.0024"/>
</g>
<!-- Node111 -->
<g id="node4" class="node">
<title>Node111</title>
<g id="a_node4"><a xlink:href="classLoopManager.html#a4aada2d07b7ce0a67a8119ece4805966" target="_top" xlink:title="LoopManager::ReceiveEvent">
<polygon fill="#ffffff" stroke="#000000" points="529,-19.5 529,-38.5 683,-38.5 683,-19.5 529,-19.5"/>
<text text-anchor="middle" x="606" y="-26.5" font-family="Helvetica,sans-Serif" font-size="10.00" fill="#000000">LoopManager::ReceiveEvent</text>
</a>
</g>
</g>
<!-- Node109&#45;&gt;Node111 -->
<g id="edge4" class="edge">
<title>Node109&#45;&gt;Node111</title>
<path fill="none" stroke="#191970" d="M309.5213,-14.5004C376.3391,-17.7682 465.7252,-22.1397 528.824,-25.2256"/>
<polygon fill="#191970" stroke="#191970" points="309.5752,-10.9989 299.4161,-14.0062 309.2332,-17.9906 309.5752,-10.9989"/>
</g>
<!-- Node110&#45;&gt;Node111 -->
<g id="edge3" class="edge">
<title>Node110&#45;&gt;Node111</title>
<path fill="none" stroke="#191970" d="M503.2044,-39.1725C511.7671,-38.3251 520.4022,-37.4706 528.8355,-36.6361"/>
<polygon fill="#191970" stroke="#191970" points="502.8089,-35.6944 493.2022,-40.1623 503.4983,-42.6604 502.8089,-35.6944"/>
</g>
</g>
</svg>
