<?xml version="1.0" encoding="UTF-8" standalone="no"?>
<!DOCTYPE svg PUBLIC "-//W3C//DTD SVG 1.1//EN"
 "http://www.w3.org/Graphics/SVG/1.1/DTD/svg11.dtd">
<!-- Generated by graphviz version 2.40.1 (20161225.0304)
 -->
<!-- Title: AudioLevel::dB_to_fader Pages: 1 -->
<svg width="295pt" height="78pt"
 viewBox="0.00 0.00 295.00 77.50" xmlns="http://www.w3.org/2000/svg" xmlns:xlink="http://www.w3.org/1999/xlink">
<g id="graph0" class="graph" transform="scale(1 1) rotate(0) translate(4 73.5)">
<title>AudioLevel::dB_to_fader</title>
<polygon fill="#ffffff" stroke="transparent" points="-4,4 -4,-73.5 291,-73.5 291,4 -4,4"/>
<!-- Node2 -->
<g id="node1" class="node">
<title>Node2</title>
<polygon fill="#bfbfbf" stroke="#000000" points="0,-28 0,-47 135,-47 135,-28 0,-28"/>
<text text-anchor="middle" x="67.5" y="-35" font-family="Helvetica,sans-Serif" font-size="10.00" fill="#000000">AudioLevel::dB_to_fader</text>
</g>
<!-- Node3 -->
<g id="node2" class="node">
<title>Node3</title>
<g id="a_node2"><a xlink:href="classFloDisplayBar.html#aa49253add55fdb47e70ee4344dfc38e2" target="_top" xlink:title="FloDisplayBar::Draw">
<polygon fill="#ffffff" stroke="#000000" points="171,-50 171,-69 287,-69 287,-50 171,-50"/>
<text text-anchor="middle" x="229" y="-57" font-family="Helvetica,sans-Serif" font-size="10.00" fill="#000000">FloDisplayBar::Draw</text>
</a>
</g>
</g>
<!-- Node2&#45;&gt;Node3 -->
<g id="edge1" class="edge">
<title>Node2&#45;&gt;Node3</title>
<path fill="none" stroke="#191970" d="M145.1888,-48.083C153.8605,-49.2643 162.5792,-50.452 170.9443,-51.5915"/>
<polygon fill="#191970" stroke="#191970" points="145.4357,-44.5844 135.0548,-46.7025 144.4908,-51.5203 145.4357,-44.5844"/>
</g>
<!-- Node4 -->
<g id="node3" class="node">
<title>Node4</title>
<g id="a_node3"><a xlink:href="classFloDisplayBarSwitch.html#a272468a8334d56f0c493b5273774c88d" target="_top" xlink:title="FloDisplayBarSwitch\l::Draw">
<polygon fill="#ffffff" stroke="#000000" points="171,-.5 171,-30.5 287,-30.5 287,-.5 171,-.5"/>
<text text-anchor="start" x="179" y="-18.5" font-family="Helvetica,sans-Serif" font-size="10.00" fill="#000000">FloDisplayBarSwitch</text>
<text text-anchor="middle" x="229" y="-7.5" font-family="Helvetica,sans-Serif" font-size="10.00" fill="#000000">::Draw</text>
</a>
</g>
</g>
<!-- Node2&#45;&gt;Node4 -->
<g id="edge2" class="edge">
<title>Node2&#45;&gt;Node4</title>
<path fill="none" stroke="#191970" d="M145.1888,-26.917C153.8605,-25.7357 162.5792,-24.548 170.9443,-23.4085"/>
<polygon fill="#191970" stroke="#191970" points="144.4908,-23.4797 135.0548,-28.2975 145.4357,-30.4156 144.4908,-23.4797"/>
</g>
</g>
</svg>
