<?xml version="1.0" encoding="UTF-8" standalone="no"?>
<!DOCTYPE svg PUBLIC "-//W3C//DTD SVG 1.1//EN"
 "http://www.w3.org/Graphics/SVG/1.1/DTD/svg11.dtd">
<!-- Generated by graphviz version 2.40.1 (20161225.0304)
 -->
<!-- Title: EventManager::run_dispatch_thread Pages: 1 -->
<svg width="581pt" height="142pt"
 viewBox="0.00 0.00 581.00 142.00" xmlns="http://www.w3.org/2000/svg" xmlns:xlink="http://www.w3.org/1999/xlink">
<g id="graph0" class="graph" transform="scale(1 1) rotate(0) translate(4 138)">
<title>EventManager::run_dispatch_thread</title>
<polygon fill="#ffffff" stroke="transparent" points="-4,4 -4,-138 577,-138 577,4 -4,4"/>
<!-- Node118 -->
<g id="node1" class="node">
<title>Node118</title>
<polygon fill="#bfbfbf" stroke="#000000" points="0,-52 0,-82 155,-82 155,-52 0,-52"/>
<text text-anchor="start" x="8" y="-70" font-family="Helvetica,sans-Serif" font-size="10.00" fill="#000000">EventManager::run_dispatch</text>
<text text-anchor="middle" x="77.5" y="-59" font-family="Helvetica,sans-Serif" font-size="10.00" fill="#000000">_thread</text>
</g>
<!-- Node119 -->
<g id="node2" class="node">
<title>Node119</title>
<g id="a_node2"><a xlink:href="classSRMWRingBuffer.html#ae907e34d6dc9fff4f1e3955dd3aa53b7" target="_top" xlink:title="SRMWRingBuffer::ReadElement">
<polygon fill="#ffffff" stroke="#000000" points="202,-114.5 202,-133.5 371,-133.5 371,-114.5 202,-114.5"/>
<text text-anchor="middle" x="286.5" y="-121.5" font-family="Helvetica,sans-Serif" font-size="10.00" fill="#000000">SRMWRingBuffer::ReadElement</text>
</a>
</g>
</g>
<!-- Node118&#45;&gt;Node119 -->
<g id="edge1" class="edge">
<title>Node118&#45;&gt;Node119</title>
<path fill="none" stroke="#191970" d="M118.3626,-82.0765C139.7938,-89.627 166.5992,-98.5159 191,-105 201.0905,-107.6814 211.8708,-110.1748 222.4207,-112.415"/>
<polygon fill="#191970" stroke="#191970" points="221.9336,-115.8882 232.4349,-114.483 223.3494,-109.0329 221.9336,-115.8882"/>
</g>
<!-- Node120 -->
<g id="node3" class="node">
<title>Node120</title>
<g id="a_node3"><a xlink:href="classPreallocated.html#ac10843af6524399980eef0a2b5c2e91f" target="_top" xlink:title="Preallocated::GetMgr">
<polygon fill="#ffffff" stroke="#000000" points="227,-76.5 227,-95.5 346,-95.5 346,-76.5 227,-76.5"/>
<text text-anchor="middle" x="286.5" y="-83.5" font-family="Helvetica,sans-Serif" font-size="10.00" fill="#000000">Preallocated::GetMgr</text>
</a>
</g>
</g>
<!-- Node118&#45;&gt;Node120 -->
<g id="edge2" class="edge">
<title>Node118&#45;&gt;Node120</title>
<path fill="none" stroke="#191970" d="M155.0269,-74.0479C175.2079,-75.8825 196.8295,-77.8481 216.591,-79.6446"/>
<polygon fill="#191970" stroke="#191970" points="216.4621,-83.1473 226.738,-80.5671 217.0959,-76.176 216.4621,-83.1473"/>
</g>
<!-- Node121 -->
<g id="node4" class="node">
<title>Node121</title>
<g id="a_node4"><a xlink:href="classEventManager.html#a4a73f2e7ff1724f28427f7c0d5725c8e" target="_top" xlink:title="EventManager::BroadcastEventNow">
<polygon fill="#ffffff" stroke="#000000" points="191,-38.5 191,-57.5 382,-57.5 382,-38.5 191,-38.5"/>
<text text-anchor="middle" x="286.5" y="-45.5" font-family="Helvetica,sans-Serif" font-size="10.00" fill="#000000">EventManager::BroadcastEventNow</text>
</a>
</g>
</g>
<!-- Node118&#45;&gt;Node121 -->
<g id="edge3" class="edge">
<title>Node118&#45;&gt;Node121</title>
<path fill="none" stroke="#191970" d="M155.0269,-59.9521C163.3766,-59.193 171.973,-58.4115 180.5822,-57.6289"/>
<polygon fill="#191970" stroke="#191970" points="181.0385,-61.1019 190.6806,-56.7109 180.4047,-54.1307 181.0385,-61.1019"/>
</g>
<!-- Node124 -->
<g id="node7" class="node">
<title>Node124</title>
<g id="a_node7"><a xlink:href="classPreallocated.html#aaf2139a79ca16de70acd9bc4564171b7" target="_top" xlink:title="Preallocated::RTDelete">
<polygon fill="#ffffff" stroke="#000000" points="431.5,-.5 431.5,-19.5 559.5,-19.5 559.5,-.5 431.5,-.5"/>
<text text-anchor="middle" x="495.5" y="-7.5" font-family="Helvetica,sans-Serif" font-size="10.00" fill="#000000">Preallocated::RTDelete</text>
</a>
</g>
</g>
<!-- Node118&#45;&gt;Node124 -->
<g id="edge7" class="edge">
<title>Node118&#45;&gt;Node124</title>
<path fill="none" stroke="#191970" d="M114.4148,-51.9166C136.2973,-43.668 164.792,-34.1136 191,-29 268.5618,-13.8665 359.1408,-9.9191 421.221,-9.2595"/>
<polygon fill="#191970" stroke="#191970" points="421.3453,-12.7587 431.3169,-9.1785 421.2891,-5.7589 421.3453,-12.7587"/>
</g>
<!-- Node122 -->
<g id="node5" class="node">
<title>Node122</title>
<g id="a_node5"><a xlink:href="classEvent.html#ac4c4170579544b41dff38ca1b8110e30" target="_top" xlink:title="Event::GetType">
<polygon fill="#ffffff" stroke="#000000" points="450.5,-76.5 450.5,-95.5 540.5,-95.5 540.5,-76.5 450.5,-76.5"/>
<text text-anchor="middle" x="495.5" y="-83.5" font-family="Helvetica,sans-Serif" font-size="10.00" fill="#000000">Event::GetType</text>
</a>
</g>
</g>
<!-- Node121&#45;&gt;Node122 -->
<g id="edge4" class="edge">
<title>Node121&#45;&gt;Node122</title>
<path fill="none" stroke="#191970" d="M338.9698,-57.54C369.9568,-63.174 409.1385,-70.2979 440.5488,-76.0089"/>
<polygon fill="#191970" stroke="#191970" points="439.9888,-79.4644 450.4536,-77.8097 441.241,-72.5773 439.9888,-79.4644"/>
</g>
<!-- Node123 -->
<g id="node6" class="node">
<title>Node123</title>
<g id="a_node6"><a xlink:href="classEventListener.html#a831820a9229e852bd7e2fad686b725b2" target="_top" xlink:title="EventListener::ReceiveEvent">
<polygon fill="#ffffff" stroke="#000000" points="418,-38.5 418,-57.5 573,-57.5 573,-38.5 418,-38.5"/>
<text text-anchor="middle" x="495.5" y="-45.5" font-family="Helvetica,sans-Serif" font-size="10.00" fill="#000000">EventListener::ReceiveEvent</text>
</a>
</g>
</g>
<!-- Node121&#45;&gt;Node123 -->
<g id="edge5" class="edge">
<title>Node121&#45;&gt;Node123</title>
<path fill="none" stroke="#191970" d="M382.1311,-48C390.6132,-48 399.1737,-48 407.5871,-48"/>
<polygon fill="#191970" stroke="#191970" points="407.7614,-51.5001 417.7614,-48 407.7614,-44.5001 407.7614,-51.5001"/>
</g>
<!-- Node121&#45;&gt;Node124 -->
<g id="edge6" class="edge">
<title>Node121&#45;&gt;Node124</title>
<path fill="none" stroke="#191970" d="M338.9698,-38.46C367.5413,-33.2652 403.0796,-26.8037 433.0691,-21.3511"/>
<polygon fill="#191970" stroke="#191970" points="433.7961,-24.7764 443.0087,-19.5439 432.5438,-17.8893 433.7961,-24.7764"/>
</g>
</g>
</svg>
