<?xml version="1.0" encoding="UTF-8" standalone="no"?>
<!DOCTYPE svg PUBLIC "-//W3C//DTD SVG 1.1//EN"
 "http://www.w3.org/Graphics/SVG/1.1/DTD/svg11.dtd">
<!-- Generated by graphviz version 2.40.1 (20161225.0304)
 -->
<!-- Title: MidiIO::OutputPitchBend Pages: 1 -->
<svg width="648pt" height="28pt"
 viewBox="0.00 0.00 648.00 28.00" xmlns="http://www.w3.org/2000/svg" xmlns:xlink="http://www.w3.org/1999/xlink">
<g id="graph0" class="graph" transform="scale(1 1) rotate(0) translate(4 24)">
<title>MidiIO::OutputPitchBend</title>
<polygon fill="#ffffff" stroke="transparent" points="-4,4 -4,-24 644,-24 644,4 -4,4"/>
<!-- Node170 -->
<g id="node1" class="node">
<title>Node170</title>
<polygon fill="#bfbfbf" stroke="#000000" points="0,-.5 0,-19.5 135,-19.5 135,-.5 0,-.5"/>
<text text-anchor="middle" x="67.5" y="-7.5" font-family="Helvetica,sans-Serif" font-size="10.00" fill="#000000">MidiIO::OutputPitchBend</text>
</g>
<!-- Node171 -->
<g id="node2" class="node">
<title>Node171</title>
<g id="a_node2"><a xlink:href="classMidiIO.html#a9f130a6f6732fcdc5c111a5708afb64f" target="_top" xlink:title="MidiIO::EchoEventToPortChannel">
<polygon fill="#ffffff" stroke="#000000" points="171,-.5 171,-19.5 345,-19.5 345,-.5 171,-.5"/>
<text text-anchor="middle" x="258" y="-7.5" font-family="Helvetica,sans-Serif" font-size="10.00" fill="#000000">MidiIO::EchoEventToPortChannel</text>
</a>
</g>
</g>
<!-- Node170&#45;&gt;Node171 -->
<g id="edge1" class="edge">
<title>Node170&#45;&gt;Node171</title>
<path fill="none" stroke="#191970" d="M145.3453,-10C153.7543,-10 162.3506,-10 170.86,-10"/>
<polygon fill="#191970" stroke="#191970" points="145.1996,-6.5001 135.1996,-10 145.1995,-13.5001 145.1996,-6.5001"/>
</g>
<!-- Node172 -->
<g id="node3" class="node">
<title>Node172</title>
<g id="a_node3"><a xlink:href="classMidiIO.html#aae58e8a30b732a5eee97d76785a5909a" target="_top" xlink:title="MidiIO::EchoEvent">
<polygon fill="#ffffff" stroke="#000000" points="381,-.5 381,-19.5 485,-19.5 485,-.5 381,-.5"/>
<text text-anchor="middle" x="433" y="-7.5" font-family="Helvetica,sans-Serif" font-size="10.00" fill="#000000">MidiIO::EchoEvent</text>
</a>
</g>
</g>
<!-- Node171&#45;&gt;Node172 -->
<g id="edge2" class="edge">
<title>Node171&#45;&gt;Node172</title>
<path fill="none" stroke="#191970" d="M355.4822,-10C364.1696,-10 372.7241,-10 380.797,-10"/>
<polygon fill="#191970" stroke="#191970" points="355.2437,-6.5001 345.2437,-10 355.2436,-13.5001 355.2437,-6.5001"/>
</g>
<!-- Node173 -->
<g id="node4" class="node">
<title>Node173</title>
<g id="a_node4"><a xlink:href="classMidiIO.html#a90cc0dad2841a9386a0c86efc1d9dce6" target="_top" xlink:title="MidiIO::ReceiveEvent">
<polygon fill="#ffffff" stroke="#000000" points="521,-.5 521,-19.5 640,-19.5 640,-.5 521,-.5"/>
<text text-anchor="middle" x="580.5" y="-7.5" font-family="Helvetica,sans-Serif" font-size="10.00" fill="#000000">MidiIO::ReceiveEvent</text>
</a>
</g>
</g>
<!-- Node172&#45;&gt;Node173 -->
<g id="edge3" class="edge">
<title>Node172&#45;&gt;Node173</title>
<path fill="none" stroke="#191970" d="M495.2392,-10C503.7419,-10 512.4539,-10 520.908,-10"/>
<polygon fill="#191970" stroke="#191970" points="495.003,-6.5001 485.003,-10 495.0029,-13.5001 495.003,-6.5001"/>
</g>
</g>
</svg>
