<?xml version="1.0" encoding="UTF-8" standalone="no"?>
<!DOCTYPE svg PUBLIC "-//W3C//DTD SVG 1.1//EN"
 "http://www.w3.org/Graphics/SVG/1.1/DTD/svg11.dtd">
<!-- Generated by graphviz version 2.40.1 (20161225.0304)
 -->
<!-- Title: FweelinMac::SetDebugMode Pages: 1 -->
<svg width="579pt" height="142pt"
 viewBox="0.00 0.00 579.00 142.00" xmlns="http://www.w3.org/2000/svg" xmlns:xlink="http://www.w3.org/1999/xlink">
<g id="graph0" class="graph" transform="scale(1 1) rotate(0) translate(4 138)">
<title>FweelinMac::SetDebugMode</title>
<polygon fill="#ffffff" stroke="transparent" points="-4,4 -4,-138 575,-138 575,4 -4,4"/>
<!-- Node19 -->
<g id="node1" class="node">
<title>Node19</title>
<polygon fill="#bfbfbf" stroke="#000000" points="0,-76.5 0,-95.5 153,-95.5 153,-76.5 0,-76.5"/>
<text text-anchor="middle" x="76.5" y="-83.5" font-family="Helvetica,sans-Serif" font-size="10.00" fill="#000000">FweelinMac::SetDebugMode</text>
</g>
<!-- Node20 -->
<g id="node2" class="node">
<title>Node20</title>
<g id="a_node2"><a xlink:href="classEvent.html#aa67af0ae99b897e4f0ce42068c4e4c00" target="_top" xlink:title="Event::GetEventByType">
<polygon fill="#ffffff" stroke="#000000" points="219,-114.5 219,-133.5 350,-133.5 350,-114.5 219,-114.5"/>
<text text-anchor="middle" x="284.5" y="-121.5" font-family="Helvetica,sans-Serif" font-size="10.00" fill="#000000">Event::GetEventByType</text>
</a>
</g>
</g>
<!-- Node19&#45;&gt;Node20 -->
<g id="edge1" class="edge">
<title>Node19&#45;&gt;Node20</title>
<path fill="none" stroke="#191970" d="M128.7187,-95.54C157.1535,-100.7348 192.5218,-107.1963 222.3678,-112.6489"/>
<polygon fill="#191970" stroke="#191970" points="221.7936,-116.1019 232.2598,-114.4561 223.0517,-109.2158 221.7936,-116.1019"/>
</g>
<!-- Node21 -->
<g id="node3" class="node">
<title>Node21</title>
<g id="a_node3"><a xlink:href="classFweelin.html#a21e51d7b639faaecc415624ab6c16a71" target="_top" xlink:title="Fweelin::getEMG">
<polygon fill="#ffffff" stroke="#000000" points="235.5,-76.5 235.5,-95.5 333.5,-95.5 333.5,-76.5 235.5,-76.5"/>
<text text-anchor="middle" x="284.5" y="-83.5" font-family="Helvetica,sans-Serif" font-size="10.00" fill="#000000">Fweelin::getEMG</text>
</a>
</g>
</g>
<!-- Node19&#45;&gt;Node21 -->
<g id="edge2" class="edge">
<title>Node19&#45;&gt;Node21</title>
<path fill="none" stroke="#191970" d="M153.0654,-86C176.8722,-86 202.7447,-86 225.1884,-86"/>
<polygon fill="#191970" stroke="#191970" points="225.2394,-89.5001 235.2393,-86 225.2393,-82.5001 225.2394,-89.5001"/>
</g>
<!-- Node22 -->
<g id="node4" class="node">
<title>Node22</title>
<g id="a_node4"><a xlink:href="classEventManager.html#a4a73f2e7ff1724f28427f7c0d5725c8e" target="_top" xlink:title="EventManager::BroadcastEventNow">
<polygon fill="#ffffff" stroke="#000000" points="189,-38.5 189,-57.5 380,-57.5 380,-38.5 189,-38.5"/>
<text text-anchor="middle" x="284.5" y="-45.5" font-family="Helvetica,sans-Serif" font-size="10.00" fill="#000000">EventManager::BroadcastEventNow</text>
</a>
</g>
</g>
<!-- Node19&#45;&gt;Node22 -->
<g id="edge3" class="edge">
<title>Node19&#45;&gt;Node22</title>
<path fill="none" stroke="#191970" d="M128.7187,-76.46C157.1535,-71.2652 192.5218,-64.8037 222.3678,-59.3511"/>
<polygon fill="#191970" stroke="#191970" points="223.0517,-62.7842 232.2598,-57.5439 221.7936,-55.8981 223.0517,-62.7842"/>
</g>
<!-- Node23 -->
<g id="node5" class="node">
<title>Node23</title>
<g id="a_node5"><a xlink:href="classEvent.html#ac4c4170579544b41dff38ca1b8110e30" target="_top" xlink:title="Event::GetType">
<polygon fill="#ffffff" stroke="#000000" points="448.5,-76.5 448.5,-95.5 538.5,-95.5 538.5,-76.5 448.5,-76.5"/>
<text text-anchor="middle" x="493.5" y="-83.5" font-family="Helvetica,sans-Serif" font-size="10.00" fill="#000000">Event::GetType</text>
</a>
</g>
</g>
<!-- Node22&#45;&gt;Node23 -->
<g id="edge4" class="edge">
<title>Node22&#45;&gt;Node23</title>
<path fill="none" stroke="#191970" d="M336.9698,-57.54C367.9568,-63.174 407.1385,-70.2979 438.5488,-76.0089"/>
<polygon fill="#191970" stroke="#191970" points="437.9888,-79.4644 448.4536,-77.8097 439.241,-72.5773 437.9888,-79.4644"/>
</g>
<!-- Node24 -->
<g id="node6" class="node">
<title>Node24</title>
<g id="a_node6"><a xlink:href="classEventListener.html#a831820a9229e852bd7e2fad686b725b2" target="_top" xlink:title="EventListener::ReceiveEvent">
<polygon fill="#ffffff" stroke="#000000" points="416,-38.5 416,-57.5 571,-57.5 571,-38.5 416,-38.5"/>
<text text-anchor="middle" x="493.5" y="-45.5" font-family="Helvetica,sans-Serif" font-size="10.00" fill="#000000">EventListener::ReceiveEvent</text>
</a>
</g>
</g>
<!-- Node22&#45;&gt;Node24 -->
<g id="edge5" class="edge">
<title>Node22&#45;&gt;Node24</title>
<path fill="none" stroke="#191970" d="M380.1311,-48C388.6132,-48 397.1737,-48 405.5871,-48"/>
<polygon fill="#191970" stroke="#191970" points="405.7614,-51.5001 415.7614,-48 405.7614,-44.5001 405.7614,-51.5001"/>
</g>
<!-- Node25 -->
<g id="node7" class="node">
<title>Node25</title>
<g id="a_node7"><a xlink:href="classPreallocated.html#aaf2139a79ca16de70acd9bc4564171b7" target="_top" xlink:title="Preallocated::RTDelete">
<polygon fill="#ffffff" stroke="#000000" points="429.5,-.5 429.5,-19.5 557.5,-19.5 557.5,-.5 429.5,-.5"/>
<text text-anchor="middle" x="493.5" y="-7.5" font-family="Helvetica,sans-Serif" font-size="10.00" fill="#000000">Preallocated::RTDelete</text>
</a>
</g>
</g>
<!-- Node22&#45;&gt;Node25 -->
<g id="edge6" class="edge">
<title>Node22&#45;&gt;Node25</title>
<path fill="none" stroke="#191970" d="M336.9698,-38.46C365.5413,-33.2652 401.0796,-26.8037 431.0691,-21.3511"/>
<polygon fill="#191970" stroke="#191970" points="431.7961,-24.7764 441.0087,-19.5439 430.5438,-17.8893 431.7961,-24.7764"/>
</g>
</g>
</svg>
