<?xml version="1.0" encoding="UTF-8" standalone="no"?>
<!DOCTYPE svg PUBLIC "-//W3C//DTD SVG 1.1//EN"
 "http://www.w3.org/Graphics/SVG/1.1/DTD/svg11.dtd">
<!-- Generated by graphviz version 2.40.1 (20161225.0304)
 -->
<!-- Title: SDLIO::EnableKeyRepeat Pages: 1 -->
<svg width="680pt" height="116pt"
 viewBox="0.00 0.00 680.00 115.50" xmlns="http://www.w3.org/2000/svg" xmlns:xlink="http://www.w3.org/1999/xlink">
<g id="graph0" class="graph" transform="scale(1 1) rotate(0) translate(4 111.5)">
<title>SDLIO::EnableKeyRepeat</title>
<polygon fill="#ffffff" stroke="transparent" points="-4,4 -4,-111.5 676,-111.5 676,4 -4,4"/>
<!-- Node29 -->
<g id="node1" class="node">
<title>Node29</title>
<polygon fill="#bfbfbf" stroke="#000000" points="0,-31 0,-50 137,-50 137,-31 0,-31"/>
<text text-anchor="middle" x="68.5" y="-38" font-family="Helvetica,sans-Serif" font-size="10.00" fill="#000000">SDLIO::EnableKeyRepeat</text>
</g>
<!-- Node30 -->
<g id="node2" class="node">
<title>Node30</title>
<g id="a_node2"><a xlink:href="classItemRenamer.html#a142fa081aa16f3ce9bddfcb44619a90f" target="_top" xlink:title="ItemRenamer::ItemRenamer">
<polygon fill="#ffffff" stroke="#000000" points="173,-50 173,-69 328,-69 328,-50 173,-50"/>
<text text-anchor="middle" x="250.5" y="-57" font-family="Helvetica,sans-Serif" font-size="10.00" fill="#000000">ItemRenamer::ItemRenamer</text>
</a>
</g>
</g>
<!-- Node29&#45;&gt;Node30 -->
<g id="edge1" class="edge">
<title>Node29&#45;&gt;Node30</title>
<path fill="none" stroke="#191970" d="M147.0158,-48.6967C155.5825,-49.591 164.2997,-50.5011 172.8558,-51.3943"/>
<polygon fill="#191970" stroke="#191970" points="147.3564,-45.2133 137.0471,-47.656 146.6296,-52.1755 147.3564,-45.2133"/>
</g>
<!-- Node35 -->
<g id="node7" class="node">
<title>Node35</title>
<g id="a_node7"><a xlink:href="classItemRenamer.html#abec484b81397379c8ec02a8cc2fb881a" target="_top" xlink:title="ItemRenamer::HookEvent">
<polygon fill="#ffffff" stroke="#000000" points="179.5,-12 179.5,-31 321.5,-31 321.5,-12 179.5,-12"/>
<text text-anchor="middle" x="250.5" y="-19" font-family="Helvetica,sans-Serif" font-size="10.00" fill="#000000">ItemRenamer::HookEvent</text>
</a>
</g>
</g>
<!-- Node29&#45;&gt;Node35 -->
<g id="edge6" class="edge">
<title>Node29&#45;&gt;Node35</title>
<path fill="none" stroke="#191970" d="M147.1868,-32.2854C157.8567,-31.1716 168.7567,-30.0336 179.2853,-28.9345"/>
<polygon fill="#191970" stroke="#191970" points="146.6296,-28.8245 137.0471,-33.344 147.3564,-35.7867 146.6296,-28.8245"/>
</g>
<!-- Node31 -->
<g id="node3" class="node">
<title>Node31</title>
<g id="a_node3"><a xlink:href="classBrowser.html#a517f5d012c377402b3bdbfd10e4c8db5" target="_top" xlink:title="Browser::Rename">
<polygon fill="#ffffff" stroke="#000000" points="372,-88 372,-107 474,-107 474,-88 372,-88"/>
<text text-anchor="middle" x="423" y="-95" font-family="Helvetica,sans-Serif" font-size="10.00" fill="#000000">Browser::Rename</text>
</a>
</g>
</g>
<!-- Node30&#45;&gt;Node31 -->
<g id="edge2" class="edge">
<title>Node30&#45;&gt;Node31</title>
<path fill="none" stroke="#191970" d="M303.8505,-71.2526C328.242,-76.6258 356.7627,-82.9086 379.784,-87.9799"/>
<polygon fill="#191970" stroke="#191970" points="304.5479,-67.8224 294.029,-69.089 303.0419,-74.6584 304.5479,-67.8224"/>
</g>
<!-- Node32 -->
<g id="node4" class="node">
<title>Node32</title>
<g id="a_node4"><a xlink:href="classLoopTray.html#a2b7540addc2966370cc4034d36c552f8" target="_top" xlink:title="LoopTray::Rename">
<polygon fill="#ffffff" stroke="#000000" points="370.5,-50 370.5,-69 475.5,-69 475.5,-50 370.5,-50"/>
<text text-anchor="middle" x="423" y="-57" font-family="Helvetica,sans-Serif" font-size="10.00" fill="#000000">LoopTray::Rename</text>
</a>
</g>
</g>
<!-- Node30&#45;&gt;Node32 -->
<g id="edge3" class="edge">
<title>Node30&#45;&gt;Node32</title>
<path fill="none" stroke="#191970" d="M338.2636,-59.5C349.2652,-59.5 360.2341,-59.5 370.4537,-59.5"/>
<polygon fill="#191970" stroke="#191970" points="338.1714,-56.0001 328.1713,-59.5 338.1713,-63.0001 338.1714,-56.0001"/>
</g>
<!-- Node33 -->
<g id="node5" class="node">
<title>Node33</title>
<g id="a_node5"><a xlink:href="classFloDisplaySnapshots.html#afb7aeeaa71af5466e371927d3c11f39f" target="_top" xlink:title="FloDisplaySnapshots\l::Rename">
<polygon fill="#ffffff" stroke="#000000" points="364,-.5 364,-30.5 482,-30.5 482,-.5 364,-.5"/>
<text text-anchor="start" x="372" y="-18.5" font-family="Helvetica,sans-Serif" font-size="10.00" fill="#000000">FloDisplaySnapshots</text>
<text text-anchor="middle" x="423" y="-7.5" font-family="Helvetica,sans-Serif" font-size="10.00" fill="#000000">::Rename</text>
</a>
</g>
</g>
<!-- Node30&#45;&gt;Node33 -->
<g id="edge4" class="edge">
<title>Node30&#45;&gt;Node33</title>
<path fill="none" stroke="#191970" d="M299.9102,-47.5189C309.2475,-45.2173 318.9287,-42.8054 328,-40.5 340.4795,-37.3285 353.8611,-33.8532 366.5271,-30.5291"/>
<polygon fill="#191970" stroke="#191970" points="298.835,-44.1789 289.9583,-49.9629 300.5045,-50.9769 298.835,-44.1789"/>
</g>
<!-- Node34 -->
<g id="node6" class="node">
<title>Node34</title>
<g id="a_node6"><a xlink:href="classLoopManager.html#a4aada2d07b7ce0a67a8119ece4805966" target="_top" xlink:title="LoopManager::ReceiveEvent">
<polygon fill="#ffffff" stroke="#000000" points="518,-6 518,-25 672,-25 672,-6 518,-6"/>
<text text-anchor="middle" x="595" y="-13" font-family="Helvetica,sans-Serif" font-size="10.00" fill="#000000">LoopManager::ReceiveEvent</text>
</a>
</g>
</g>
<!-- Node33&#45;&gt;Node34 -->
<g id="edge5" class="edge">
<title>Node33&#45;&gt;Node34</title>
<path fill="none" stroke="#191970" d="M492.2909,-15.5C500.6778,-15.5 509.2852,-15.5 517.7772,-15.5"/>
<polygon fill="#191970" stroke="#191970" points="492.1927,-12.0001 482.1926,-15.5 492.1926,-19.0001 492.1927,-12.0001"/>
</g>
</g>
</svg>
