<?xml version="1.0" encoding="UTF-8" standalone="no"?>
<!DOCTYPE svg PUBLIC "-//W3C//DTD SVG 1.1//EN"
 "http://www.w3.org/Graphics/SVG/1.1/DTD/svg11.dtd">
<!-- Generated by graphviz version 2.40.1 (20161225.0304)
 -->
<!-- Title: MidiIO::EchoEvent Pages: 1 -->
<svg width="528pt" height="522pt"
 viewBox="0.00 0.00 528.00 522.00" xmlns="http://www.w3.org/2000/svg" xmlns:xlink="http://www.w3.org/1999/xlink">
<g id="graph0" class="graph" transform="scale(1 1) rotate(0) translate(4 518)">
<title>MidiIO::EchoEvent</title>
<polygon fill="#ffffff" stroke="transparent" points="-4,4 -4,-518 524,-518 524,4 -4,4"/>
<!-- Node62 -->
<g id="node1" class="node">
<title>Node62</title>
<polygon fill="#bfbfbf" stroke="#000000" points="0,-209.5 0,-228.5 104,-228.5 104,-209.5 0,-209.5"/>
<text text-anchor="middle" x="52" y="-216.5" font-family="Helvetica,sans-Serif" font-size="10.00" fill="#000000">MidiIO::EchoEvent</text>
</g>
<!-- Node63 -->
<g id="node2" class="node">
<title>Node63</title>
<g id="a_node2"><a xlink:href="classEvent.html#ac4c4170579544b41dff38ca1b8110e30" target="_top" xlink:title="Event::GetType">
<polygon fill="#ffffff" stroke="#000000" points="391,-494.5 391,-513.5 481,-513.5 481,-494.5 391,-494.5"/>
<text text-anchor="middle" x="436" y="-501.5" font-family="Helvetica,sans-Serif" font-size="10.00" fill="#000000">Event::GetType</text>
</a>
</g>
</g>
<!-- Node62&#45;&gt;Node63 -->
<g id="edge1" class="edge">
<title>Node62&#45;&gt;Node63</title>
<path fill="none" stroke="#191970" d="M54.6771,-228.6393C62.8797,-256.5605 90.1801,-338.52 140,-386 207.9498,-450.7585 315.8553,-481.5105 380.9033,-494.8867"/>
<polygon fill="#191970" stroke="#191970" points="380.4718,-498.3694 390.9624,-496.8869 381.837,-491.5038 380.4718,-498.3694"/>
</g>
<!-- Node64 -->
<g id="node3" class="node">
<title>Node64</title>
<g id="a_node3"><a xlink:href="classFweelin.html#a681d7ca8d0789199af135f22c26a5409" target="_top" xlink:title="Fweelin::getCFG">
<polygon fill="#ffffff" stroke="#000000" points="388.5,-456.5 388.5,-475.5 483.5,-475.5 483.5,-456.5 388.5,-456.5"/>
<text text-anchor="middle" x="436" y="-463.5" font-family="Helvetica,sans-Serif" font-size="10.00" fill="#000000">Fweelin::getCFG</text>
</a>
</g>
</g>
<!-- Node62&#45;&gt;Node64 -->
<g id="edge2" class="edge">
<title>Node62&#45;&gt;Node64</title>
<path fill="none" stroke="#191970" d="M59.5181,-228.6797C73.8815,-246.7918 106.7631,-286.4586 140,-314 225.646,-384.9698 249.1811,-404.571 352,-447 360.4244,-450.4764 369.5992,-453.3745 378.6894,-455.7726"/>
<polygon fill="#191970" stroke="#191970" points="377.9339,-459.191 388.4806,-458.1822 379.6068,-452.3938 377.9339,-459.191"/>
</g>
<!-- Node65 -->
<g id="node4" class="node">
<title>Node65</title>
<g id="a_node4"><a xlink:href="classFloConfig.html#aa4a3222eb6e05faeac2e61cf2ea2e32d" target="_top" xlink:title="FloConfig::GetMIDISyncOuts">
<polygon fill="#ffffff" stroke="#000000" points="152,-247.5 152,-266.5 304,-266.5 304,-247.5 152,-247.5"/>
<text text-anchor="middle" x="228" y="-254.5" font-family="Helvetica,sans-Serif" font-size="10.00" fill="#000000">FloConfig::GetMIDISyncOuts</text>
</a>
</g>
</g>
<!-- Node62&#45;&gt;Node65 -->
<g id="edge3" class="edge">
<title>Node62&#45;&gt;Node65</title>
<path fill="none" stroke="#191970" d="M96.4122,-228.589C119.9512,-233.6713 149.0567,-239.9554 173.9048,-245.3203"/>
<polygon fill="#191970" stroke="#191970" points="173.3937,-248.7906 183.9071,-247.4799 174.8711,-241.9482 173.3937,-248.7906"/>
</g>
<!-- Node66 -->
<g id="node5" class="node">
<title>Node66</title>
<g id="a_node5"><a xlink:href="classFloConfig.html#a5fd605df948e783b360f7c2063ee31b8" target="_top" xlink:title="FloConfig::GetNumMIDISyncOuts">
<polygon fill="#ffffff" stroke="#000000" points="140,-209.5 140,-228.5 316,-228.5 316,-209.5 140,-209.5"/>
<text text-anchor="middle" x="228" y="-216.5" font-family="Helvetica,sans-Serif" font-size="10.00" fill="#000000">FloConfig::GetNumMIDISyncOuts</text>
</a>
</g>
</g>
<!-- Node62&#45;&gt;Node66 -->
<g id="edge4" class="edge">
<title>Node62&#45;&gt;Node66</title>
<path fill="none" stroke="#191970" d="M104.3293,-219C112.4134,-219 120.9809,-219 129.6849,-219"/>
<polygon fill="#191970" stroke="#191970" points="129.9446,-222.5001 139.9446,-219 129.9446,-215.5001 129.9446,-222.5001"/>
</g>
<!-- Node67 -->
<g id="node6" class="node">
<title>Node67</title>
<g id="a_node6"><a xlink:href="classMidiIO.html#a8b3bd89f9467c68bf87b966ecbf22ea4" target="_top" xlink:title="MidiIO::OutputStartOnPort">
<polygon fill="#ffffff" stroke="#000000" points="156.5,-171.5 156.5,-190.5 299.5,-190.5 299.5,-171.5 156.5,-171.5"/>
<text text-anchor="middle" x="228" y="-178.5" font-family="Helvetica,sans-Serif" font-size="10.00" fill="#000000">MidiIO::OutputStartOnPort</text>
</a>
</g>
</g>
<!-- Node62&#45;&gt;Node67 -->
<g id="edge5" class="edge">
<title>Node62&#45;&gt;Node67</title>
<path fill="none" stroke="#191970" d="M96.4122,-209.411C119.9512,-204.3287 149.0567,-198.0446 173.9048,-192.6797"/>
<polygon fill="#191970" stroke="#191970" points="174.8711,-196.0518 183.9071,-190.5201 173.3937,-189.2094 174.8711,-196.0518"/>
</g>
<!-- Node68 -->
<g id="node7" class="node">
<title>Node68</title>
<g id="a_node7"><a xlink:href="classMidiIO.html#a9f130a6f6732fcdc5c111a5708afb64f" target="_top" xlink:title="MidiIO::EchoEventToPortChannel">
<polygon fill="#ffffff" stroke="#000000" points="141,-285.5 141,-304.5 315,-304.5 315,-285.5 141,-285.5"/>
<text text-anchor="middle" x="228" y="-292.5" font-family="Helvetica,sans-Serif" font-size="10.00" fill="#000000">MidiIO::EchoEventToPortChannel</text>
</a>
</g>
</g>
<!-- Node62&#45;&gt;Node68 -->
<g id="edge6" class="edge">
<title>Node62&#45;&gt;Node68</title>
<path fill="none" stroke="#191970" d="M63.7425,-228.6197C79.9152,-241.3774 110.4143,-263.7101 140,-276 146.2066,-278.5782 152.811,-280.8264 159.5044,-282.7826"/>
<polygon fill="#191970" stroke="#191970" points="158.7716,-286.2102 169.3387,-285.4443 160.6004,-279.4533 158.7716,-286.2102"/>
</g>
<!-- Node81 -->
<g id="node20" class="node">
<title>Node81</title>
<g id="a_node20"><a xlink:href="classMidiIO.html#a86380cf62a271e59f5b7d5b1eba74f30" target="_top" xlink:title="MidiIO::OutputEndOnPort">
<polygon fill="#ffffff" stroke="#000000" points="159.5,-133.5 159.5,-152.5 296.5,-152.5 296.5,-133.5 159.5,-133.5"/>
<text text-anchor="middle" x="228" y="-140.5" font-family="Helvetica,sans-Serif" font-size="10.00" fill="#000000">MidiIO::OutputEndOnPort</text>
</a>
</g>
</g>
<!-- Node62&#45;&gt;Node81 -->
<g id="edge21" class="edge">
<title>Node62&#45;&gt;Node81</title>
<path fill="none" stroke="#191970" d="M63.7425,-209.3803C79.9152,-196.6226 110.4143,-174.2899 140,-162 146.2066,-159.4218 152.811,-157.1736 159.5044,-155.2174"/>
<polygon fill="#191970" stroke="#191970" points="160.6004,-158.5467 169.3387,-152.5557 158.7716,-151.7898 160.6004,-158.5467"/>
</g>
<!-- Node82 -->
<g id="node21" class="node">
<title>Node82</title>
<g id="a_node21"><a xlink:href="classPatchItem.html#a193dba9833309437fed1241957cd20dd" target="_top" xlink:title="PatchItem::IsCombi">
<polygon fill="#ffffff" stroke="#000000" points="172.5,-95.5 172.5,-114.5 283.5,-114.5 283.5,-95.5 172.5,-95.5"/>
<text text-anchor="middle" x="228" y="-102.5" font-family="Helvetica,sans-Serif" font-size="10.00" fill="#000000">PatchItem::IsCombi</text>
</a>
</g>
</g>
<!-- Node62&#45;&gt;Node82 -->
<g id="edge22" class="edge">
<title>Node62&#45;&gt;Node82</title>
<path fill="none" stroke="#191970" d="M57.9276,-209.3871C70.472,-189.917 101.7194,-145.8234 140,-124 146.9504,-120.0376 154.6396,-116.9002 162.4943,-114.4162"/>
<polygon fill="#191970" stroke="#191970" points="163.446,-117.7844 172.1188,-111.6989 161.5439,-111.0478 163.446,-117.7844"/>
</g>
<!-- Node83 -->
<g id="node22" class="node">
<title>Node83</title>
<g id="a_node22"><a xlink:href="classPatchItem.html#a80e0a72bb7db8f68cd4f7bc32bb36361" target="_top" xlink:title="PatchItem::GetZone">
<polygon fill="#ffffff" stroke="#000000" points="171.5,-57.5 171.5,-76.5 284.5,-76.5 284.5,-57.5 171.5,-57.5"/>
<text text-anchor="middle" x="228" y="-64.5" font-family="Helvetica,sans-Serif" font-size="10.00" fill="#000000">PatchItem::GetZone</text>
</a>
</g>
</g>
<!-- Node62&#45;&gt;Node83 -->
<g id="edge23" class="edge">
<title>Node62&#45;&gt;Node83</title>
<path fill="none" stroke="#191970" d="M55.3704,-209.4438C64.6233,-184.6904 92.9093,-118.179 140,-86 146.533,-81.5357 153.9235,-78.0941 161.5769,-75.4452"/>
<polygon fill="#191970" stroke="#191970" points="162.8012,-78.7319 171.367,-72.4967 160.7825,-72.0292 162.8012,-78.7319"/>
</g>
<!-- Node68&#45;&gt;Node63 -->
<g id="edge8" class="edge">
<title>Node68&#45;&gt;Node63</title>
<path fill="none" stroke="#191970" d="M231.329,-304.7789C242.64,-336.4413 282.7891,-436.8832 352,-485 360.559,-490.9504 370.6862,-495.0689 380.8927,-497.912"/>
<polygon fill="#191970" stroke="#191970" points="380.1122,-501.3241 390.654,-500.2653 381.7529,-494.519 380.1122,-501.3241"/>
</g>
<!-- Node68&#45;&gt;Node64 -->
<g id="edge7" class="edge">
<title>Node68&#45;&gt;Node64</title>
<path fill="none" stroke="#191970" d="M237.1346,-304.6107C253.5705,-322.0675 288.9351,-360.3852 316,-395 333.314,-417.1438 328.7034,-431.2714 352,-447 359.9095,-452.3401 369.0967,-456.1984 378.4328,-458.9819"/>
<polygon fill="#191970" stroke="#191970" points="377.6098,-462.3842 388.1686,-461.5106 379.3696,-455.609 377.6098,-462.3842"/>
</g>
<!-- Node69 -->
<g id="node8" class="node">
<title>Node69</title>
<g id="a_node8"><a xlink:href="classMidiIO.html#a05eef19c13d0ab29813202dfcf93528a" target="_top" xlink:title="MidiIO::OutputClock">
<polygon fill="#ffffff" stroke="#000000" points="379.5,-190.5 379.5,-209.5 492.5,-209.5 492.5,-190.5 379.5,-190.5"/>
<text text-anchor="middle" x="436" y="-197.5" font-family="Helvetica,sans-Serif" font-size="10.00" fill="#000000">MidiIO::OutputClock</text>
</a>
</g>
</g>
<!-- Node68&#45;&gt;Node69 -->
<g id="edge9" class="edge">
<title>Node68&#45;&gt;Node69</title>
<path fill="none" stroke="#191970" d="M297.9456,-285.4249C304.3508,-282.9435 310.4915,-279.8505 316,-276 340.558,-258.8337 327.5264,-236.2865 352,-219 357.2895,-215.2638 363.1937,-212.248 369.3531,-209.8158"/>
<polygon fill="#191970" stroke="#191970" points="370.8595,-212.9998 379.1907,-206.4543 368.5961,-206.3758 370.8595,-212.9998"/>
</g>
<!-- Node70 -->
<g id="node9" class="node">
<title>Node70</title>
<g id="a_node9"><a xlink:href="classMidiIO.html#ae64abd814691dd54b95cc3b0e59325ee" target="_top" xlink:title="MidiIO::OutputSPP">
<polygon fill="#ffffff" stroke="#000000" points="384,-152.5 384,-171.5 488,-171.5 488,-152.5 384,-152.5"/>
<text text-anchor="middle" x="436" y="-159.5" font-family="Helvetica,sans-Serif" font-size="10.00" fill="#000000">MidiIO::OutputSPP</text>
</a>
</g>
</g>
<!-- Node68&#45;&gt;Node70 -->
<g id="edge10" class="edge">
<title>Node68&#45;&gt;Node70</title>
<path fill="none" stroke="#191970" d="M301.3931,-285.3578C306.6621,-282.851 311.6167,-279.7722 316,-276 350.2238,-246.5475 317.921,-210.6199 352,-181 358.4077,-175.4307 366.1055,-171.3972 374.2057,-168.4923"/>
<polygon fill="#191970" stroke="#191970" points="375.288,-171.8216 383.8463,-165.5761 373.2613,-165.1214 375.288,-171.8216"/>
</g>
<!-- Node71 -->
<g id="node10" class="node">
<title>Node71</title>
<g id="a_node10"><a xlink:href="classMidiIO.html#ad2ef39322497b4f96e8ef39d3e015846" target="_top" xlink:title="MidiIO::OutputStart">
<polygon fill="#ffffff" stroke="#000000" points="381,-114.5 381,-133.5 491,-133.5 491,-114.5 381,-114.5"/>
<text text-anchor="middle" x="436" y="-121.5" font-family="Helvetica,sans-Serif" font-size="10.00" fill="#000000">MidiIO::OutputStart</text>
</a>
</g>
</g>
<!-- Node68&#45;&gt;Node71 -->
<g id="edge11" class="edge">
<title>Node68&#45;&gt;Node71</title>
<path fill="none" stroke="#191970" d="M302.6461,-285.3903C307.5061,-282.859 312.0331,-279.7669 316,-276 360.4067,-233.8317 307.8005,-185.3855 352,-143 357.416,-137.8062 363.9369,-133.9187 370.9213,-131.0247"/>
<polygon fill="#191970" stroke="#191970" points="372.3581,-134.2317 380.6725,-127.665 370.0778,-127.6135 372.3581,-134.2317"/>
</g>
<!-- Node72 -->
<g id="node11" class="node">
<title>Node72</title>
<g id="a_node11"><a xlink:href="classMidiIO.html#a12a6021bb83e81c66933f76c1b38fc3c" target="_top" xlink:title="MidiIO::OutputStop">
<polygon fill="#ffffff" stroke="#000000" points="382,-76.5 382,-95.5 490,-95.5 490,-76.5 382,-76.5"/>
<text text-anchor="middle" x="436" y="-83.5" font-family="Helvetica,sans-Serif" font-size="10.00" fill="#000000">MidiIO::OutputStop</text>
</a>
</g>
</g>
<!-- Node68&#45;&gt;Node72 -->
<g id="edge12" class="edge">
<title>Node68&#45;&gt;Node72</title>
<path fill="none" stroke="#191970" d="M303.3,-285.4157C307.9474,-282.8691 312.252,-279.7673 316,-276 370.7766,-220.9407 297.494,-160.3271 352,-105 357.6073,-99.3083 364.5337,-95.1648 371.9843,-92.1713"/>
<polygon fill="#191970" stroke="#191970" points="373.2545,-95.4375 381.6421,-88.9646 371.0486,-88.7942 373.2545,-95.4375"/>
</g>
<!-- Node73 -->
<g id="node12" class="node">
<title>Node73</title>
<g id="a_node12"><a xlink:href="classMidiIO.html#ade75d48e27670a86a2a109f99ea847b7" target="_top" xlink:title="MidiIO::OutputController">
<polygon fill="#ffffff" stroke="#000000" points="369,-38.5 369,-57.5 503,-57.5 503,-38.5 369,-38.5"/>
<text text-anchor="middle" x="436" y="-45.5" font-family="Helvetica,sans-Serif" font-size="10.00" fill="#000000">MidiIO::OutputController</text>
</a>
</g>
</g>
<!-- Node68&#45;&gt;Node73 -->
<g id="edge13" class="edge">
<title>Node68&#45;&gt;Node73</title>
<path fill="none" stroke="#191970" d="M303.8642,-285.341C308.3188,-282.802 312.4304,-279.723 316,-276 381.233,-207.9632 287.1012,-135.3557 352,-67 354.3678,-64.5061 356.9882,-62.3069 359.7966,-60.3697"/>
<polygon fill="#191970" stroke="#191970" points="361.7478,-63.2869 368.7217,-55.311 358.2961,-57.1971 361.7478,-63.2869"/>
</g>
<!-- Node74 -->
<g id="node13" class="node">
<title>Node74</title>
<g id="a_node13"><a xlink:href="classMidiIO.html#a768bb4ca3d6df0d4d7b2dfcc95ce8417" target="_top" xlink:title="MidiIO::getBP">
<polygon fill="#ffffff" stroke="#000000" points="395,-.5 395,-19.5 477,-19.5 477,-.5 395,-.5"/>
<text text-anchor="middle" x="436" y="-7.5" font-family="Helvetica,sans-Serif" font-size="10.00" fill="#000000">MidiIO::getBP</text>
</a>
</g>
</g>
<!-- Node68&#45;&gt;Node74 -->
<g id="edge14" class="edge">
<title>Node68&#45;&gt;Node74</title>
<path fill="none" stroke="#191970" d="M303.9744,-285.4453C308.4031,-282.8818 312.4788,-279.7689 316,-276 391.7363,-194.9372 276.662,-110.433 352,-29 360.5728,-19.7337 372.6276,-14.5128 384.9352,-11.6769"/>
<polygon fill="#191970" stroke="#191970" points="385.5864,-15.116 394.7982,-9.8822 384.3331,-8.2291 385.5864,-15.116"/>
</g>
<!-- Node75 -->
<g id="node14" class="node">
<title>Node75</title>
<g id="a_node14"><a xlink:href="classFweelin.html#a4422f3a93561eff272cd5f7ecb0782ee" target="_top" xlink:title="Fweelin::getRP">
<polygon fill="#ffffff" stroke="#000000" points="391.5,-418.5 391.5,-437.5 480.5,-437.5 480.5,-418.5 391.5,-418.5"/>
<text text-anchor="middle" x="436" y="-425.5" font-family="Helvetica,sans-Serif" font-size="10.00" fill="#000000">Fweelin::getRP</text>
</a>
</g>
</g>
<!-- Node68&#45;&gt;Node75 -->
<g id="edge15" class="edge">
<title>Node68&#45;&gt;Node75</title>
<path fill="none" stroke="#191970" d="M235.5029,-304.7453C253.1896,-326.994 299.9434,-381.7048 352,-409 361.0376,-413.7387 371.2267,-417.3012 381.311,-419.9778"/>
<polygon fill="#191970" stroke="#191970" points="380.774,-423.448 391.3138,-422.3698 382.4021,-416.6399 380.774,-423.448"/>
</g>
<!-- Node76 -->
<g id="node15" class="node">
<title>Node76</title>
<g id="a_node15"><a xlink:href="classRootProcessor.html#a2aef0ef0e079427ff5c0b5604fbe7e51" target="_top" xlink:title="RootProcessor::GetSampleCnt">
<polygon fill="#ffffff" stroke="#000000" points="355,-380.5 355,-399.5 517,-399.5 517,-380.5 355,-380.5"/>
<text text-anchor="middle" x="436" y="-387.5" font-family="Helvetica,sans-Serif" font-size="10.00" fill="#000000">RootProcessor::GetSampleCnt</text>
</a>
</g>
</g>
<!-- Node68&#45;&gt;Node76 -->
<g id="edge16" class="edge">
<title>Node68&#45;&gt;Node76</title>
<path fill="none" stroke="#191970" d="M240.636,-304.7116C262.257,-320.8614 308.2601,-353.217 352,-371 358.235,-373.5349 364.8746,-375.7658 371.5837,-377.7213"/>
<polygon fill="#191970" stroke="#191970" points="370.8563,-381.1504 381.4239,-380.3925 372.6901,-374.3949 370.8563,-381.1504"/>
</g>
<!-- Node77 -->
<g id="node16" class="node">
<title>Node77</title>
<g id="a_node16"><a xlink:href="classMidiIO.html#a181e7eb8c9539f60b3ef934abcd3c5d5" target="_top" xlink:title="MidiIO::OutputProgramChange">
<polygon fill="#ffffff" stroke="#000000" points="354,-342.5 354,-361.5 518,-361.5 518,-342.5 354,-342.5"/>
<text text-anchor="middle" x="436" y="-349.5" font-family="Helvetica,sans-Serif" font-size="10.00" fill="#000000">MidiIO::OutputProgramChange</text>
</a>
</g>
</g>
<!-- Node68&#45;&gt;Node77 -->
<g id="edge17" class="edge">
<title>Node68&#45;&gt;Node77</title>
<path fill="none" stroke="#191970" d="M256.8864,-304.5244C281.9053,-312.6118 319.1428,-324.2626 352,-333 361.3301,-335.4811 371.2976,-337.9193 380.9874,-340.1785"/>
<polygon fill="#191970" stroke="#191970" points="380.4168,-343.6384 390.9462,-342.4623 381.9815,-336.8155 380.4168,-343.6384"/>
</g>
<!-- Node78 -->
<g id="node17" class="node">
<title>Node78</title>
<g id="a_node17"><a xlink:href="classMidiIO.html#a99ddfc2bfcf9976ac7bab5e281a71f5e" target="_top" xlink:title="MidiIO::OutputChannelPressure">
<polygon fill="#ffffff" stroke="#000000" points="352,-304.5 352,-323.5 520,-323.5 520,-304.5 352,-304.5"/>
<text text-anchor="middle" x="436" y="-311.5" font-family="Helvetica,sans-Serif" font-size="10.00" fill="#000000">MidiIO::OutputChannelPressure</text>
</a>
</g>
</g>
<!-- Node68&#45;&gt;Node78 -->
<g id="edge18" class="edge">
<title>Node68&#45;&gt;Node78</title>
<path fill="none" stroke="#191970" d="M315.0055,-302.9476C323.8218,-303.753 332.8055,-304.5736 341.694,-305.3855"/>
<polygon fill="#191970" stroke="#191970" points="341.3979,-308.8729 351.6749,-306.2972 342.0347,-301.902 341.3979,-308.8729"/>
</g>
<!-- Node79 -->
<g id="node18" class="node">
<title>Node79</title>
<g id="a_node18"><a xlink:href="classMidiIO.html#a1632e2b71ba1d177a572c2e7e56c5ba3" target="_top" xlink:title="MidiIO::OutputPitchBend">
<polygon fill="#ffffff" stroke="#000000" points="368.5,-266.5 368.5,-285.5 503.5,-285.5 503.5,-266.5 368.5,-266.5"/>
<text text-anchor="middle" x="436" y="-273.5" font-family="Helvetica,sans-Serif" font-size="10.00" fill="#000000">MidiIO::OutputPitchBend</text>
</a>
</g>
</g>
<!-- Node68&#45;&gt;Node79 -->
<g id="edge19" class="edge">
<title>Node68&#45;&gt;Node79</title>
<path fill="none" stroke="#191970" d="M315.0055,-287.0524C329.3384,-285.7431 344.1138,-284.3934 358.203,-283.1065"/>
<polygon fill="#191970" stroke="#191970" points="358.6845,-286.5771 368.3246,-282.1819 358.0477,-279.6062 358.6845,-286.5771"/>
</g>
<!-- Node80 -->
<g id="node19" class="node">
<title>Node80</title>
<g id="a_node19"><a xlink:href="classMidiIO.html#a5dc5d753cb512121574bc55483237572" target="_top" xlink:title="MidiIO::OutputNote">
<polygon fill="#ffffff" stroke="#000000" points="381,-228.5 381,-247.5 491,-247.5 491,-228.5 381,-228.5"/>
<text text-anchor="middle" x="436" y="-235.5" font-family="Helvetica,sans-Serif" font-size="10.00" fill="#000000">MidiIO::OutputNote</text>
</a>
</g>
</g>
<!-- Node68&#45;&gt;Node80 -->
<g id="edge20" class="edge">
<title>Node68&#45;&gt;Node80</title>
<path fill="none" stroke="#191970" d="M283.5779,-285.4121C294.4811,-282.8592 305.7192,-279.7427 316,-276 333.0002,-269.8111 335.0303,-263.2721 352,-257 359.021,-254.405 366.5083,-252.0983 374.0112,-250.0664"/>
<polygon fill="#191970" stroke="#191970" points="375.0238,-253.4202 383.8454,-247.5525 373.29,-246.6383 375.0238,-253.4202"/>
</g>
</g>
</svg>
