<?xml version="1.0" encoding="UTF-8" standalone="no"?>
<!DOCTYPE svg PUBLIC "-//W3C//DTD SVG 1.1//EN"
 "http://www.w3.org/Graphics/SVG/1.1/DTD/svg11.dtd">
<!-- Generated by graphviz version 2.40.1 (20161225.0304)
 -->
<!-- Title: LoopManager::AddToSaveQueue Pages: 1 -->
<svg width="900pt" height="66pt"
 viewBox="0.00 0.00 900.00 66.00" xmlns="http://www.w3.org/2000/svg" xmlns:xlink="http://www.w3.org/1999/xlink">
<g id="graph0" class="graph" transform="scale(1 1) rotate(0) translate(4 62)">
<title>LoopManager::AddToSaveQueue</title>
<polygon fill="#ffffff" stroke="transparent" points="-4,4 -4,-62 896,-62 896,4 -4,4"/>
<!-- Node104 -->
<g id="node1" class="node">
<title>Node104</title>
<polygon fill="#bfbfbf" stroke="#000000" points="0,-19.5 0,-38.5 173,-38.5 173,-19.5 0,-19.5"/>
<text text-anchor="middle" x="86.5" y="-26.5" font-family="Helvetica,sans-Serif" font-size="10.00" fill="#000000">LoopManager::AddToSaveQueue</text>
</g>
<!-- Node105 -->
<g id="node2" class="node">
<title>Node105</title>
<g id="a_node2"><a xlink:href="classTriggerMap.html#aaa7bec4f62540981d1e5703fe8ed575e" target="_top" xlink:title="TriggerMap::Save">
<polygon fill="#ffffff" stroke="#000000" points="209,-19.5 209,-38.5 309,-38.5 309,-19.5 209,-19.5"/>
<text text-anchor="middle" x="259" y="-26.5" font-family="Helvetica,sans-Serif" font-size="10.00" fill="#000000">TriggerMap::Save</text>
</a>
</g>
</g>
<!-- Node104&#45;&gt;Node105 -->
<g id="edge1" class="edge">
<title>Node104&#45;&gt;Node105</title>
<path fill="none" stroke="#191970" d="M183.0488,-29C191.9094,-29 200.6229,-29 208.808,-29"/>
<polygon fill="#191970" stroke="#191970" points="183.0027,-25.5001 173.0027,-29 183.0027,-32.5001 183.0027,-25.5001"/>
</g>
<!-- Node106 -->
<g id="node3" class="node">
<title>Node106</title>
<g id="a_node3"><a xlink:href="classLoopManager.html#ac2adaa8b989e1284abf17fc07eb0baf2" target="_top" xlink:title="LoopManager::SaveNewScene">
<polygon fill="#ffffff" stroke="#000000" points="345,-.5 345,-19.5 508,-19.5 508,-.5 345,-.5"/>
<text text-anchor="middle" x="426.5" y="-7.5" font-family="Helvetica,sans-Serif" font-size="10.00" fill="#000000">LoopManager::SaveNewScene</text>
</a>
</g>
</g>
<!-- Node105&#45;&gt;Node106 -->
<g id="edge2" class="edge">
<title>Node105&#45;&gt;Node106</title>
<path fill="none" stroke="#191970" d="M319.2508,-22.1656C327.6035,-21.2181 336.2956,-20.2321 344.9561,-19.2498"/>
<polygon fill="#191970" stroke="#191970" points="318.7973,-18.6945 309.2555,-23.2994 319.5863,-25.6499 318.7973,-18.6945"/>
</g>
<!-- Node107 -->
<g id="node4" class="node">
<title>Node107</title>
<g id="a_node4"><a xlink:href="classLoopManager.html#abd2cda6ecc976fd447167d5de7cc5912" target="_top" xlink:title="LoopManager::SaveCurScene">
<polygon fill="#ffffff" stroke="#000000" points="544,-38.5 544,-57.5 702,-57.5 702,-38.5 544,-38.5"/>
<text text-anchor="middle" x="623" y="-45.5" font-family="Helvetica,sans-Serif" font-size="10.00" fill="#000000">LoopManager::SaveCurScene</text>
</a>
</g>
</g>
<!-- Node105&#45;&gt;Node107 -->
<g id="edge6" class="edge">
<title>Node105&#45;&gt;Node107</title>
<path fill="none" stroke="#191970" d="M319.5471,-32.1604C381.0274,-35.3696 476.5223,-40.3542 543.9394,-43.8732"/>
<polygon fill="#191970" stroke="#191970" points="319.3994,-28.648 309.2305,-31.6219 319.0344,-35.6385 319.3994,-28.648"/>
</g>
<!-- Node106&#45;&gt;Node107 -->
<g id="edge3" class="edge">
<title>Node106&#45;&gt;Node107</title>
<path fill="none" stroke="#191970" d="M485.9123,-21.4894C513.9495,-26.9114 547.0157,-33.3058 573.6481,-38.4561"/>
<polygon fill="#191970" stroke="#191970" points="486.3143,-18.0024 475.8316,-19.54 484.9852,-24.875 486.3143,-18.0024"/>
</g>
<!-- Node108 -->
<g id="node5" class="node">
<title>Node108</title>
<g id="a_node5"><a xlink:href="classLoopManager.html#a4aada2d07b7ce0a67a8119ece4805966" target="_top" xlink:title="LoopManager::ReceiveEvent">
<polygon fill="#ffffff" stroke="#000000" points="738,-19.5 738,-38.5 892,-38.5 892,-19.5 738,-19.5"/>
<text text-anchor="middle" x="815" y="-26.5" font-family="Helvetica,sans-Serif" font-size="10.00" fill="#000000">LoopManager::ReceiveEvent</text>
</a>
</g>
</g>
<!-- Node106&#45;&gt;Node108 -->
<g id="edge5" class="edge">
<title>Node106&#45;&gt;Node108</title>
<path fill="none" stroke="#191970" d="M518.5213,-14.5004C585.3391,-17.7682 674.7252,-22.1397 737.824,-25.2256"/>
<polygon fill="#191970" stroke="#191970" points="518.5752,-10.9989 508.4161,-14.0062 518.2332,-17.9906 518.5752,-10.9989"/>
</g>
<!-- Node107&#45;&gt;Node108 -->
<g id="edge4" class="edge">
<title>Node107&#45;&gt;Node108</title>
<path fill="none" stroke="#191970" d="M712.2044,-39.1725C720.7671,-38.3251 729.4022,-37.4706 737.8355,-36.6361"/>
<polygon fill="#191970" stroke="#191970" points="711.8089,-35.6944 702.2022,-40.1623 712.4983,-42.6604 711.8089,-35.6944"/>
</g>
</g>
</svg>
