<?xml version="1.0" encoding="UTF-8" standalone="no"?>
<!DOCTYPE svg PUBLIC "-//W3C//DTD SVG 1.1//EN"
 "http://www.w3.org/Graphics/SVG/1.1/DTD/svg11.dtd">
<!-- Generated by graphviz version 2.40.1 (20161225.0304)
 -->
<!-- Title: RT_RWThreads::InitAll Pages: 1 -->
<svg width="331pt" height="28pt"
 viewBox="0.00 0.00 331.00 28.00" xmlns="http://www.w3.org/2000/svg" xmlns:xlink="http://www.w3.org/1999/xlink">
<g id="graph0" class="graph" transform="scale(1 1) rotate(0) translate(4 24)">
<title>RT_RWThreads::InitAll</title>
<polygon fill="#ffffff" stroke="transparent" points="-4,4 -4,-24 327,-24 327,4 -4,4"/>
<!-- Node6 -->
<g id="node1" class="node">
<title>Node6</title>
<polygon fill="#bfbfbf" stroke="#000000" points="0,-.5 0,-19.5 123,-19.5 123,-.5 0,-.5"/>
<text text-anchor="middle" x="61.5" y="-7.5" font-family="Helvetica,sans-Serif" font-size="10.00" fill="#000000">RT_RWThreads::InitAll</text>
</g>
<!-- Node7 -->
<g id="node2" class="node">
<title>Node7</title>
<g id="a_node2"><a xlink:href="classFweelin.html#a1e47b97764f07dfd37458e91c0c54adf" target="_top" xlink:title="Fweelin::setup">
<polygon fill="#ffffff" stroke="#000000" points="159,-.5 159,-19.5 246,-19.5 246,-.5 159,-.5"/>
<text text-anchor="middle" x="202.5" y="-7.5" font-family="Helvetica,sans-Serif" font-size="10.00" fill="#000000">Fweelin::setup</text>
</a>
</g>
</g>
<!-- Node6&#45;&gt;Node7 -->
<g id="edge1" class="edge">
<title>Node6&#45;&gt;Node7</title>
<path fill="none" stroke="#191970" d="M133.5077,-10C142.18,-10 150.8218,-10 158.908,-10"/>
<polygon fill="#191970" stroke="#191970" points="133.3447,-6.5001 123.3447,-10 133.3446,-13.5001 133.3447,-6.5001"/>
</g>
<!-- Node8 -->
<g id="node3" class="node">
<title>Node8</title>
<g id="a_node3"><a xlink:href="fweelin_8cc.html#a97b0fa62b7b0972875f5f589322c4c24" target="_top" xlink:title="main">
<polygon fill="#ffffff" stroke="#000000" points="282,-.5 282,-19.5 323,-19.5 323,-.5 282,-.5"/>
<text text-anchor="middle" x="302.5" y="-7.5" font-family="Helvetica,sans-Serif" font-size="10.00" fill="#000000">main</text>
</a>
</g>
</g>
<!-- Node7&#45;&gt;Node8 -->
<g id="edge2" class="edge">
<title>Node7&#45;&gt;Node8</title>
<path fill="none" stroke="#191970" d="M256.3166,-10C265.385,-10 274.285,-10 281.8141,-10"/>
<polygon fill="#191970" stroke="#191970" points="256.0706,-6.5001 246.0706,-10 256.0705,-13.5001 256.0706,-6.5001"/>
</g>
</g>
</svg>
