<?xml version="1.0" encoding="UTF-8" standalone="no"?>
<!DOCTYPE svg PUBLIC "-//W3C//DTD SVG 1.1//EN"
 "http://www.w3.org/Graphics/SVG/1.1/DTD/svg11.dtd">
<!-- Generated by graphviz version 2.40.1 (20161225.0304)
 -->
<!-- Title: Fweelin::go Pages: 1 -->
<svg width="207pt" height="66pt"
 viewBox="0.00 0.00 207.00 66.00" xmlns="http://www.w3.org/2000/svg" xmlns:xlink="http://www.w3.org/1999/xlink">
<g id="graph0" class="graph" transform="scale(1 1) rotate(0) translate(4 62)">
<title>Fweelin::go</title>
<polygon fill="#ffffff" stroke="transparent" points="-4,4 -4,-62 203,-62 203,4 -4,4"/>
<!-- Node563 -->
<g id="node1" class="node">
<title>Node563</title>
<polygon fill="#bfbfbf" stroke="#000000" points="0,-19.5 0,-38.5 72,-38.5 72,-19.5 0,-19.5"/>
<text text-anchor="middle" x="36" y="-26.5" font-family="Helvetica,sans-Serif" font-size="10.00" fill="#000000">Fweelin::go</text>
</g>
<!-- Node564 -->
<g id="node2" class="node">
<title>Node564</title>
<g id="a_node2"><a xlink:href="fweelin_8cc.html#a97b0fa62b7b0972875f5f589322c4c24" target="_top" xlink:title="main">
<polygon fill="#ffffff" stroke="#000000" points="133,-38.5 133,-57.5 174,-57.5 174,-38.5 133,-38.5"/>
<text text-anchor="middle" x="153.5" y="-45.5" font-family="Helvetica,sans-Serif" font-size="10.00" fill="#000000">main</text>
</a>
</g>
</g>
<!-- Node563&#45;&gt;Node564 -->
<g id="edge1" class="edge">
<title>Node563&#45;&gt;Node564</title>
<path fill="none" stroke="#191970" d="M82.3163,-36.4895C99.8666,-39.3274 118.9683,-42.4161 132.9617,-44.6789"/>
<polygon fill="#191970" stroke="#191970" points="82.6431,-32.9969 72.2126,-34.8557 81.5257,-39.9071 82.6431,-32.9969"/>
</g>
<!-- Node565 -->
<g id="node3" class="node">
<title>Node565</title>
<g id="a_node3"><a xlink:href="classLoopTray.html#a307e6abe64c403e39fc463ec282bde27" target="_top" xlink:title="LoopTray::Draw">
<polygon fill="#ffffff" stroke="#000000" points="108,-.5 108,-19.5 199,-19.5 199,-.5 108,-.5"/>
<text text-anchor="middle" x="153.5" y="-7.5" font-family="Helvetica,sans-Serif" font-size="10.00" fill="#000000">LoopTray::Draw</text>
</a>
</g>
</g>
<!-- Node563&#45;&gt;Node565 -->
<g id="edge2" class="edge">
<title>Node563&#45;&gt;Node565</title>
<path fill="none" stroke="#191970" d="M82.1934,-21.5304C90.5605,-20.1775 99.2841,-18.7668 107.6416,-17.4154"/>
<polygon fill="#191970" stroke="#191970" points="81.5257,-18.0928 72.2126,-23.1443 82.6431,-25.0031 81.5257,-18.0928"/>
</g>
</g>
</svg>
