<?xml version="1.0" encoding="UTF-8" standalone="no"?>
<!DOCTYPE svg PUBLIC "-//W3C//DTD SVG 1.1//EN"
 "http://www.w3.org/Graphics/SVG/1.1/DTD/svg11.dtd">
<!-- Generated by graphviz version 2.40.1 (20161225.0304)
 -->
<!-- Title: Fweelin::getPRE_TIMEMARKER Pages: 1 -->
<svg width="1100pt" height="104pt"
 viewBox="0.00 0.00 1100.00 104.00" xmlns="http://www.w3.org/2000/svg" xmlns:xlink="http://www.w3.org/1999/xlink">
<g id="graph0" class="graph" transform="scale(1 1) rotate(0) translate(4 100)">
<title>Fweelin::getPRE_TIMEMARKER</title>
<polygon fill="#ffffff" stroke="transparent" points="-4,4 -4,-100 1096,-100 1096,4 -4,4"/>
<!-- Node387 -->
<g id="node1" class="node">
<title>Node387</title>
<polygon fill="#bfbfbf" stroke="#000000" points="0,-38.5 0,-57.5 164,-57.5 164,-38.5 0,-38.5"/>
<text text-anchor="middle" x="82" y="-45.5" font-family="Helvetica,sans-Serif" font-size="10.00" fill="#000000">Fweelin::getPRE_TIMEMARKER</text>
</g>
<!-- Node388 -->
<g id="node2" class="node">
<title>Node388</title>
<g id="a_node2"><a xlink:href="classBlockManager.html#a718110289099d5b729ce3b28d0ac09fb" target="_top" xlink:title="BlockManager::StripeBlockOn">
<polygon fill="#ffffff" stroke="#000000" points="200,-38.5 200,-57.5 361,-57.5 361,-38.5 200,-38.5"/>
<text text-anchor="middle" x="280.5" y="-45.5" font-family="Helvetica,sans-Serif" font-size="10.00" fill="#000000">BlockManager::StripeBlockOn</text>
</a>
</g>
</g>
<!-- Node387&#45;&gt;Node388 -->
<g id="edge1" class="edge">
<title>Node387&#45;&gt;Node388</title>
<path fill="none" stroke="#191970" d="M174.2233,-48C182.8278,-48 191.5031,-48 199.9888,-48"/>
<polygon fill="#191970" stroke="#191970" points="174.1705,-44.5001 164.1704,-48 174.1704,-51.5001 174.1705,-44.5001"/>
</g>
<!-- Node389 -->
<g id="node3" class="node">
<title>Node389</title>
<g id="a_node3"><a xlink:href="classLoopManager.html#a5630b6fefdfc931ac0ab511c6b77cecf" target="_top" xlink:title="LoopManager::StripePulseOn">
<polygon fill="#ffffff" stroke="#000000" points="397,-38.5 397,-57.5 553,-57.5 553,-38.5 397,-38.5"/>
<text text-anchor="middle" x="475" y="-45.5" font-family="Helvetica,sans-Serif" font-size="10.00" fill="#000000">LoopManager::StripePulseOn</text>
</a>
</g>
</g>
<!-- Node388&#45;&gt;Node389 -->
<g id="edge2" class="edge">
<title>Node388&#45;&gt;Node389</title>
<path fill="none" stroke="#191970" d="M371.0432,-48C379.6273,-48 388.2813,-48 396.7362,-48"/>
<polygon fill="#191970" stroke="#191970" points="371.0146,-44.5001 361.0146,-48 371.0146,-51.5001 371.0146,-44.5001"/>
</g>
<!-- Node390 -->
<g id="node4" class="node">
<title>Node390</title>
<g id="a_node4"><a xlink:href="classLoopManager.html#ab79aef15f1e783de1ab6827378bea274" target="_top" xlink:title="LoopManager::SelectPulse">
<polygon fill="#ffffff" stroke="#000000" points="590,-38.5 590,-57.5 734,-57.5 734,-38.5 590,-38.5"/>
<text text-anchor="middle" x="662" y="-45.5" font-family="Helvetica,sans-Serif" font-size="10.00" fill="#000000">LoopManager::SelectPulse</text>
</a>
</g>
</g>
<!-- Node389&#45;&gt;Node390 -->
<g id="edge3" class="edge">
<title>Node389&#45;&gt;Node390</title>
<path fill="none" stroke="#191970" d="M563.5039,-48C572.3023,-48 581.1598,-48 589.7636,-48"/>
<polygon fill="#191970" stroke="#191970" points="563.2214,-44.5001 553.2213,-48 563.2213,-51.5001 563.2214,-44.5001"/>
</g>
<!-- Node391 -->
<g id="node5" class="node">
<title>Node391</title>
<g id="a_node5"><a xlink:href="classLoopManager.html#a67c6f44d33880b35c875a8e6ea8babac" target="_top" xlink:title="LoopManager::TapPulse">
<polygon fill="#ffffff" stroke="#000000" points="771,-76.5 771,-95.5 902,-95.5 902,-76.5 771,-76.5"/>
<text text-anchor="middle" x="836.5" y="-83.5" font-family="Helvetica,sans-Serif" font-size="10.00" fill="#000000">LoopManager::TapPulse</text>
</a>
</g>
</g>
<!-- Node389&#45;&gt;Node391 -->
<g id="edge8" class="edge">
<title>Node389&#45;&gt;Node391</title>
<path fill="none" stroke="#191970" d="M536.0784,-59.2037C553.1609,-62.058 571.7668,-64.9066 589,-67 650.4972,-74.4704 720.9691,-79.5421 770.946,-82.5534"/>
<polygon fill="#191970" stroke="#191970" points="536.6636,-55.7531 526.2185,-57.5282 535.4908,-62.6541 536.6636,-55.7531"/>
</g>
<!-- Node393 -->
<g id="node7" class="node">
<title>Node393</title>
<g id="a_node7"><a xlink:href="classLoopManager.html#a705436ae811a121ed3285ab34b144bfe" target="_top" xlink:title="LoopManager::CreatePulse">
<polygon fill="#ffffff" stroke="#000000" points="589,-.5 589,-19.5 735,-19.5 735,-.5 589,-.5"/>
<text text-anchor="middle" x="662" y="-7.5" font-family="Helvetica,sans-Serif" font-size="10.00" fill="#000000">LoopManager::CreatePulse</text>
</a>
</g>
</g>
<!-- Node389&#45;&gt;Node393 -->
<g id="edge7" class="edge">
<title>Node389&#45;&gt;Node393</title>
<path fill="none" stroke="#191970" d="M532.131,-36.3905C558.7267,-30.986 589.9731,-24.6365 615.1513,-19.5201"/>
<polygon fill="#191970" stroke="#191970" points="531.2907,-32.9896 522.188,-38.411 532.6847,-39.8494 531.2907,-32.9896"/>
</g>
<!-- Node390&#45;&gt;Node391 -->
<g id="edge4" class="edge">
<title>Node390&#45;&gt;Node391</title>
<path fill="none" stroke="#191970" d="M715.9691,-59.7526C740.6433,-65.1258 769.4948,-71.4086 792.7829,-76.4799"/>
<polygon fill="#191970" stroke="#191970" points="716.5495,-56.297 706.0337,-57.589 715.06,-63.1367 716.5495,-56.297"/>
</g>
<!-- Node392 -->
<g id="node6" class="node">
<title>Node392</title>
<g id="a_node6"><a xlink:href="classLoopManager.html#a4aada2d07b7ce0a67a8119ece4805966" target="_top" xlink:title="LoopManager::ReceiveEvent">
<polygon fill="#ffffff" stroke="#000000" points="938,-57.5 938,-76.5 1092,-76.5 1092,-57.5 938,-57.5"/>
<text text-anchor="middle" x="1015" y="-64.5" font-family="Helvetica,sans-Serif" font-size="10.00" fill="#000000">LoopManager::ReceiveEvent</text>
</a>
</g>
</g>
<!-- Node390&#45;&gt;Node392 -->
<g id="edge6" class="edge">
<title>Node390&#45;&gt;Node392</title>
<path fill="none" stroke="#191970" d="M744.5901,-52.4454C803.0026,-55.5894 880.776,-59.7755 937.9178,-62.8511"/>
<polygon fill="#191970" stroke="#191970" points="744.4603,-48.9334 734.2866,-51.8908 744.084,-55.9233 744.4603,-48.9334"/>
</g>
<!-- Node391&#45;&gt;Node392 -->
<g id="edge5" class="edge">
<title>Node391&#45;&gt;Node392</title>
<path fill="none" stroke="#191970" d="M912.4152,-77.9194C920.8683,-77.0196 929.4846,-76.1025 937.9516,-75.2012"/>
<polygon fill="#191970" stroke="#191970" points="911.7797,-74.4672 902.2064,-79.006 912.5207,-81.4279 911.7797,-74.4672"/>
</g>
</g>
</svg>
