<?xml version="1.0" encoding="UTF-8" standalone="no"?>
<!DOCTYPE svg PUBLIC "-//W3C//DTD SVG 1.1//EN"
 "http://www.w3.org/Graphics/SVG/1.1/DTD/svg11.dtd">
<!-- Generated by graphviz version 2.40.1 (20161225.0304)
 -->
<!-- Title: RecordProcessor::Jump Pages: 1 -->
<svg width="926pt" height="373pt"
 viewBox="0.00 0.00 926.00 372.50" xmlns="http://www.w3.org/2000/svg" xmlns:xlink="http://www.w3.org/1999/xlink">
<g id="graph0" class="graph" transform="scale(1 1) rotate(0) translate(4 368.5)">
<title>RecordProcessor::Jump</title>
<polygon fill="#ffffff" stroke="transparent" points="-4,4 -4,-368.5 922,-368.5 922,4 -4,4"/>
<!-- Node178 -->
<g id="node1" class="node">
<title>Node178</title>
<polygon fill="#bfbfbf" stroke="#000000" points="0,-191.5 0,-210.5 128,-210.5 128,-191.5 0,-191.5"/>
<text text-anchor="middle" x="64" y="-198.5" font-family="Helvetica,sans-Serif" font-size="10.00" fill="#000000">RecordProcessor::Jump</text>
</g>
<!-- Node179 -->
<g id="node2" class="node">
<title>Node179</title>
<g id="a_node2"><a xlink:href="classAudioBlockIterator.html#afdaa1beeae81dbfb277fae51bee42ca0" target="_top" xlink:title="AudioBlockIterator\l::GetTotalLength2Cur">
<polygon fill="#ffffff" stroke="#000000" points="176,-334 176,-364 295,-364 295,-334 176,-334"/>
<text text-anchor="start" x="184" y="-352" font-family="Helvetica,sans-Serif" font-size="10.00" fill="#000000">AudioBlockIterator</text>
<text text-anchor="middle" x="235.5" y="-341" font-family="Helvetica,sans-Serif" font-size="10.00" fill="#000000">::GetTotalLength2Cur</text>
</a>
</g>
</g>
<!-- Node178&#45;&gt;Node179 -->
<g id="edge1" class="edge">
<title>Node178&#45;&gt;Node179</title>
<path fill="none" stroke="#191970" d="M69.8359,-210.581C83.6475,-232.5456 120.4674,-287.091 164,-319 169.2013,-322.8125 174.9598,-326.2487 180.8848,-329.3159"/>
<polygon fill="#191970" stroke="#191970" points="179.7475,-332.6526 190.2764,-333.8331 182.7817,-326.3444 179.7475,-332.6526"/>
</g>
<!-- Node180 -->
<g id="node3" class="node">
<title>Node180</title>
<g id="a_node3"><a xlink:href="classAudioBlock.html#a380880c91c3af2322d232ce2de83b881" target="_top" xlink:title="AudioBlock::GetTotalLen">
<polygon fill="#ffffff" stroke="#000000" points="358,-248.5 358,-267.5 493,-267.5 493,-248.5 358,-248.5"/>
<text text-anchor="middle" x="425.5" y="-255.5" font-family="Helvetica,sans-Serif" font-size="10.00" fill="#000000">AudioBlock::GetTotalLen</text>
</a>
</g>
</g>
<!-- Node178&#45;&gt;Node180 -->
<g id="edge2" class="edge">
<title>Node178&#45;&gt;Node180</title>
<path fill="none" stroke="#191970" d="M71.224,-210.5673C86.1041,-229.3763 122.2965,-270.6708 164,-286 241.9432,-314.6501 341.126,-288.4587 392.0282,-270.8891"/>
<polygon fill="#191970" stroke="#191970" points="393.2927,-274.1543 401.5443,-267.509 390.9496,-267.5581 393.2927,-274.1543"/>
</g>
<!-- Node181 -->
<g id="node4" class="node">
<title>Node181</title>
<g id="a_node4"><a xlink:href="classPulse.html#ae4c83e1199ea7a74791c9d0fe80a54f5" target="_top" xlink:title="Pulse::GetLength">
<polygon fill="#ffffff" stroke="#000000" points="186,-257.5 186,-276.5 285,-276.5 285,-257.5 186,-257.5"/>
<text text-anchor="middle" x="235.5" y="-264.5" font-family="Helvetica,sans-Serif" font-size="10.00" fill="#000000">Pulse::GetLength</text>
</a>
</g>
</g>
<!-- Node178&#45;&gt;Node181 -->
<g id="edge3" class="edge">
<title>Node178&#45;&gt;Node181</title>
<path fill="none" stroke="#191970" d="M82.0103,-210.6729C101.7153,-220.9672 134.4423,-237.2258 164,-248 170.5672,-250.3939 177.5736,-252.6286 184.5355,-254.6636"/>
<polygon fill="#191970" stroke="#191970" points="184.0739,-258.1691 194.6474,-257.4976 185.963,-251.4288 184.0739,-258.1691"/>
</g>
<!-- Node182 -->
<g id="node5" class="node">
<title>Node182</title>
<g id="a_node5"><a xlink:href="classRecordProcessor.html#ab8e5a9b5fca2d7690df56a5209b57e50" target="_top" xlink:title="RecordProcessor::FadeOut\l_Input">
<polygon fill="#ffffff" stroke="#000000" points="164,-208 164,-238 307,-238 307,-208 164,-208"/>
<text text-anchor="start" x="172" y="-226" font-family="Helvetica,sans-Serif" font-size="10.00" fill="#000000">RecordProcessor::FadeOut</text>
<text text-anchor="middle" x="235.5" y="-215" font-family="Helvetica,sans-Serif" font-size="10.00" fill="#000000">_Input</text>
</a>
</g>
</g>
<!-- Node178&#45;&gt;Node182 -->
<g id="edge4" class="edge">
<title>Node178&#45;&gt;Node182</title>
<path fill="none" stroke="#191970" d="M128.3482,-209.2546C136.6826,-210.3237 145.3051,-211.4298 153.8727,-212.5289"/>
<polygon fill="#191970" stroke="#191970" points="153.5203,-216.0123 163.8844,-213.8132 154.4111,-209.0691 153.5203,-216.0123"/>
</g>
<!-- Node183 -->
<g id="node6" class="node">
<title>Node183</title>
<g id="a_node6"><a xlink:href="classFweelin.html#a538440216608aed67e6940c2903c3072" target="_top" xlink:title="Fweelin::getBUFSZ">
<polygon fill="#ffffff" stroke="#000000" points="181.5,-169.5 181.5,-188.5 289.5,-188.5 289.5,-169.5 181.5,-169.5"/>
<text text-anchor="middle" x="235.5" y="-176.5" font-family="Helvetica,sans-Serif" font-size="10.00" fill="#000000">Fweelin::getBUFSZ</text>
</a>
</g>
</g>
<!-- Node178&#45;&gt;Node183 -->
<g id="edge5" class="edge">
<title>Node178&#45;&gt;Node183</title>
<path fill="none" stroke="#191970" d="M128.3482,-192.7454C142.421,-190.9402 157.3154,-189.0295 171.3793,-187.2254"/>
<polygon fill="#191970" stroke="#191970" points="171.9763,-190.6776 181.4497,-185.9336 171.0856,-183.7345 171.9763,-190.6776"/>
</g>
<!-- Node184 -->
<g id="node7" class="node">
<title>Node184</title>
<g id="a_node7"><a xlink:href="classAudioBlockIterator.html#aee775d7a85e66fa08144b582658a9cac" target="_top" xlink:title="AudioBlockIterator\l::Jump">
<polygon fill="#ffffff" stroke="#000000" points="182,-120 182,-150 289,-150 289,-120 182,-120"/>
<text text-anchor="start" x="190" y="-138" font-family="Helvetica,sans-Serif" font-size="10.00" fill="#000000">AudioBlockIterator</text>
<text text-anchor="middle" x="235.5" y="-127" font-family="Helvetica,sans-Serif" font-size="10.00" fill="#000000">::Jump</text>
</a>
</g>
</g>
<!-- Node178&#45;&gt;Node184 -->
<g id="edge6" class="edge">
<title>Node178&#45;&gt;Node184</title>
<path fill="none" stroke="#191970" d="M86.503,-191.3765C106.6826,-182.8419 137.1596,-170.1865 164,-160 169.5921,-157.8777 175.4541,-155.7203 181.3136,-153.6074"/>
<polygon fill="#191970" stroke="#191970" points="182.8818,-156.7641 191.1244,-150.1074 180.5297,-150.171 182.8818,-156.7641"/>
</g>
<!-- Node186 -->
<g id="node9" class="node">
<title>Node186</title>
<g id="a_node9"><a xlink:href="classAudioBlockIterator.html#a5cc11c9589308f5da0fea19c701c84b3" target="_top" xlink:title="AudioBlockIterator\l::PutFragment">
<polygon fill="#ffffff" stroke="#000000" points="182,-71 182,-101 289,-101 289,-71 182,-71"/>
<text text-anchor="start" x="190" y="-89" font-family="Helvetica,sans-Serif" font-size="10.00" fill="#000000">AudioBlockIterator</text>
<text text-anchor="middle" x="235.5" y="-78" font-family="Helvetica,sans-Serif" font-size="10.00" fill="#000000">::PutFragment</text>
</a>
</g>
</g>
<!-- Node178&#45;&gt;Node186 -->
<g id="edge9" class="edge">
<title>Node178&#45;&gt;Node186</title>
<path fill="none" stroke="#191970" d="M72.3897,-191.2215C88.4558,-173.0491 125.4115,-133.8482 164,-111 167.5643,-108.8896 171.3341,-106.92 175.2047,-105.0885"/>
<polygon fill="#191970" stroke="#191970" points="176.6206,-108.2894 184.37,-101.0646 173.8066,-101.8799 176.6206,-108.2894"/>
</g>
<!-- Node196 -->
<g id="node19" class="node">
<title>Node196</title>
<g id="a_node19"><a xlink:href="classProcessor.html#a1ff3aad172b41d0c3c9a1bd06cd6a4ef" target="_top" xlink:title="Processor::dopreprocess">
<polygon fill="#ffffff" stroke="#000000" points="168,-16.5 168,-35.5 303,-35.5 303,-16.5 168,-16.5"/>
<text text-anchor="middle" x="235.5" y="-23.5" font-family="Helvetica,sans-Serif" font-size="10.00" fill="#000000">Processor::dopreprocess</text>
</a>
</g>
</g>
<!-- Node178&#45;&gt;Node196 -->
<g id="edge19" class="edge">
<title>Node178&#45;&gt;Node196</title>
<path fill="none" stroke="#191970" d="M68.8072,-191.3602C81.4099,-166.9025 117.6565,-101.5762 164,-62 174.5075,-53.0269 187.6377,-45.5937 199.7686,-39.8577"/>
<polygon fill="#191970" stroke="#191970" points="201.5201,-42.9082 209.214,-35.6243 198.6571,-36.5204 201.5201,-42.9082"/>
</g>
<!-- Node184&#45;&gt;Node180 -->
<g id="edge7" class="edge">
<title>Node184&#45;&gt;Node180</title>
<path fill="none" stroke="#191970" d="M286.6615,-150.0117C293.7045,-152.8962 300.6806,-156.2192 307,-160 325.6261,-171.1436 326.4639,-178.9405 343,-193 363.4656,-210.4004 387.6977,-229.2998 404.5838,-242.2104"/>
<polygon fill="#191970" stroke="#191970" points="402.6083,-245.1054 412.6856,-248.3764 406.8476,-239.535 402.6083,-245.1054"/>
</g>
<!-- Node185 -->
<g id="node8" class="node">
<title>Node185</title>
<g id="a_node8"><a xlink:href="classAudioBlock.html#a4f53140535b4c56db4c5360f3fb9eb7d" target="_top" xlink:title="AudioBlock::SetPtrsFromAbs\lOffset">
<polygon fill="#ffffff" stroke="#000000" points="348.5,-153 348.5,-183 502.5,-183 502.5,-153 348.5,-153"/>
<text text-anchor="start" x="356.5" y="-171" font-family="Helvetica,sans-Serif" font-size="10.00" fill="#000000">AudioBlock::SetPtrsFromAbs</text>
<text text-anchor="middle" x="425.5" y="-160" font-family="Helvetica,sans-Serif" font-size="10.00" fill="#000000">Offset</text>
</a>
</g>
</g>
<!-- Node184&#45;&gt;Node185 -->
<g id="edge8" class="edge">
<title>Node184&#45;&gt;Node185</title>
<path fill="none" stroke="#191970" d="M289.1845,-144.3242C304.3608,-146.96 321.284,-149.8993 337.9033,-152.7858"/>
<polygon fill="#191970" stroke="#191970" points="337.7421,-156.3102 348.1935,-154.5731 338.94,-149.4134 337.7421,-156.3102"/>
</g>
<!-- Node187 -->
<g id="node10" class="node">
<title>Node187</title>
<g id="a_node10"><a xlink:href="classAudioBlock.html#ae7aec1591ed6f228799c11b650b2cc1b" target="_top" xlink:title="AudioBlock::GetExtendedData">
<polygon fill="#ffffff" stroke="#000000" points="343.5,-114.5 343.5,-133.5 507.5,-133.5 507.5,-114.5 343.5,-114.5"/>
<text text-anchor="middle" x="425.5" y="-121.5" font-family="Helvetica,sans-Serif" font-size="10.00" fill="#000000">AudioBlock::GetExtendedData</text>
</a>
</g>
</g>
<!-- Node186&#45;&gt;Node187 -->
<g id="edge10" class="edge">
<title>Node186&#45;&gt;Node187</title>
<path fill="none" stroke="#191970" d="M289.1845,-96.7369C313.6824,-101.6365 342.7325,-107.4465 367.7078,-112.4416"/>
<polygon fill="#191970" stroke="#191970" points="367.284,-115.9261 377.7763,-114.4553 368.6569,-109.062 367.284,-115.9261"/>
</g>
<!-- Node189 -->
<g id="node12" class="node">
<title>Node189</title>
<g id="a_node12"><a xlink:href="classPreallocatedType.html#ae8a5326530dd0f38ecbb094f7818bd42" target="_top" xlink:title="PreallocatedType::RTNew">
<polygon fill="#ffffff" stroke="#000000" points="355.5,-76.5 355.5,-95.5 495.5,-95.5 495.5,-76.5 355.5,-76.5"/>
<text text-anchor="middle" x="425.5" y="-83.5" font-family="Helvetica,sans-Serif" font-size="10.00" fill="#000000">PreallocatedType::RTNew</text>
</a>
</g>
</g>
<!-- Node186&#45;&gt;Node189 -->
<g id="edge12" class="edge">
<title>Node186&#45;&gt;Node189</title>
<path fill="none" stroke="#191970" d="M289.1845,-86C306.5791,-86 326.2687,-86 345.1651,-86"/>
<polygon fill="#191970" stroke="#191970" points="345.2587,-89.5001 355.2587,-86 345.2587,-82.5001 345.2587,-89.5001"/>
</g>
<!-- Node195 -->
<g id="node18" class="node">
<title>Node195</title>
<g id="a_node18"><a xlink:href="classAudioBlock.html#aa3129140d4e8c54e83afbef223cf8a65" target="_top" xlink:title="AudioBlock::AddExtendedData">
<polygon fill="#ffffff" stroke="#000000" points="343,-38.5 343,-57.5 508,-57.5 508,-38.5 343,-38.5"/>
<text text-anchor="middle" x="425.5" y="-45.5" font-family="Helvetica,sans-Serif" font-size="10.00" fill="#000000">AudioBlock::AddExtendedData</text>
</a>
</g>
</g>
<!-- Node186&#45;&gt;Node195 -->
<g id="edge18" class="edge">
<title>Node186&#45;&gt;Node195</title>
<path fill="none" stroke="#191970" d="M289.1845,-75.2631C313.6824,-70.3635 342.7325,-64.5535 367.7078,-59.5584"/>
<polygon fill="#191970" stroke="#191970" points="368.6569,-62.938 377.7763,-57.5447 367.284,-56.0739 368.6569,-62.938"/>
</g>
<!-- Node188 -->
<g id="node11" class="node">
<title>Node188</title>
<g id="a_node11"><a xlink:href="classBlockExtendedData.html#ae33e9550384a32abf2a91386334a2be9" target="_top" xlink:title="BlockExtendedData::\lGetType">
<polygon fill="#ffffff" stroke="#000000" points="559.5,-134 559.5,-164 678.5,-164 678.5,-134 559.5,-134"/>
<text text-anchor="start" x="567.5" y="-152" font-family="Helvetica,sans-Serif" font-size="10.00" fill="#000000">BlockExtendedData::</text>
<text text-anchor="middle" x="619" y="-141" font-family="Helvetica,sans-Serif" font-size="10.00" fill="#000000">GetType</text>
</a>
</g>
</g>
<!-- Node187&#45;&gt;Node188 -->
<g id="edge11" class="edge">
<title>Node187&#45;&gt;Node188</title>
<path fill="none" stroke="#191970" d="M499.206,-133.5227C515.657,-135.6482 533.0518,-137.8956 549.3335,-139.9992"/>
<polygon fill="#191970" stroke="#191970" points="548.943,-143.4777 559.309,-141.288 549.84,-136.5354 548.943,-143.4777"/>
</g>
<!-- Node190 -->
<g id="node13" class="node">
<title>Node190</title>
<g id="a_node13"><a xlink:href="classRTStore.html#a2be0d247570dc611a379ab0a80dd14da" target="_top" xlink:title="RTStore::FindItemWithState">
<polygon fill="#ffffff" stroke="#000000" points="544,-95.5 544,-114.5 694,-114.5 694,-95.5 544,-95.5"/>
<text text-anchor="middle" x="619" y="-102.5" font-family="Helvetica,sans-Serif" font-size="10.00" fill="#000000">RTStore::FindItemWithState</text>
</a>
</g>
</g>
<!-- Node189&#45;&gt;Node190 -->
<g id="edge13" class="edge">
<title>Node189&#45;&gt;Node190</title>
<path fill="none" stroke="#191970" d="M495.6315,-92.8863C508.0062,-94.1014 521.0109,-95.3783 533.746,-96.6288"/>
<polygon fill="#191970" stroke="#191970" points="533.5902,-100.1303 543.8844,-97.6243 534.2743,-93.1638 533.5902,-100.1303"/>
</g>
<!-- Node191 -->
<g id="node14" class="node">
<title>Node191</title>
<g id="a_node14"><a xlink:href="classRTStore.html#af3c93f31bd68ce149a812b05d9e7cd86" target="_top" xlink:title="RTStore::ChangeStateAtIdx">
<polygon fill="#ffffff" stroke="#000000" points="545,-57.5 545,-76.5 693,-76.5 693,-57.5 545,-57.5"/>
<text text-anchor="middle" x="619" y="-64.5" font-family="Helvetica,sans-Serif" font-size="10.00" fill="#000000">RTStore::ChangeStateAtIdx</text>
</a>
</g>
</g>
<!-- Node189&#45;&gt;Node191 -->
<g id="edge14" class="edge">
<title>Node189&#45;&gt;Node191</title>
<path fill="none" stroke="#191970" d="M495.6315,-79.1137C508.2622,-77.8735 521.5493,-76.5688 534.5361,-75.2936"/>
<polygon fill="#191970" stroke="#191970" points="535.2586,-78.7396 544.8687,-74.279 534.5745,-71.7731 535.2586,-78.7396"/>
</g>
<!-- Node192 -->
<g id="node15" class="node">
<title>Node192</title>
<g id="a_node15"><a xlink:href="classMemoryManager.html#a3971e97751f5eccd04086eb2e6fb6f43" target="_top" xlink:title="MemoryManager::WakeUp">
<polygon fill="#ffffff" stroke="#000000" points="546.5,-19.5 546.5,-38.5 691.5,-38.5 691.5,-19.5 546.5,-19.5"/>
<text text-anchor="middle" x="619" y="-26.5" font-family="Helvetica,sans-Serif" font-size="10.00" fill="#000000">MemoryManager::WakeUp</text>
</a>
</g>
</g>
<!-- Node189&#45;&gt;Node192 -->
<g id="edge15" class="edge">
<title>Node189&#45;&gt;Node192</title>
<path fill="none" stroke="#191970" d="M476.2837,-76.4863C486.9136,-73.8911 497.9433,-70.7394 508,-67 524.9574,-60.6947 527.1122,-54.4894 544,-48 550.4024,-45.5398 557.2346,-43.3051 564.0705,-41.3038"/>
<polygon fill="#191970" stroke="#191970" points="565.3376,-44.5846 574.0387,-38.5397 563.4671,-37.8392 565.3376,-44.5846"/>
</g>
<!-- Node193 -->
<g id="node16" class="node">
<title>Node193</title>
<g id="a_node16"><a xlink:href="classSRMWRingBuffer.html#a47699ccc0600c38559c8e10f0ca9bf3c" target="_top" xlink:title="SRMWRingBuffer::WriteElement">
<polygon fill="#ffffff" stroke="#000000" points="739,-38.5 739,-57.5 909,-57.5 909,-38.5 739,-38.5"/>
<text text-anchor="middle" x="824" y="-45.5" font-family="Helvetica,sans-Serif" font-size="10.00" fill="#000000">SRMWRingBuffer::WriteElement</text>
</a>
</g>
</g>
<!-- Node192&#45;&gt;Node193 -->
<g id="edge16" class="edge">
<title>Node192&#45;&gt;Node193</title>
<path fill="none" stroke="#191970" d="M691.5638,-35.7254C703.6514,-36.8457 716.3479,-38.0225 728.8957,-39.1855"/>
<polygon fill="#191970" stroke="#191970" points="728.6322,-42.6759 738.9125,-40.1138 729.2783,-35.7058 728.6322,-42.6759"/>
</g>
<!-- Node194 -->
<g id="node17" class="node">
<title>Node194</title>
<g id="a_node17"><a xlink:href="classMemoryManager.html#ab15be510a88e9eab04db2d6554d7e947" target="_top" xlink:title="MemoryManager::WakeupIfNeeded">
<polygon fill="#ffffff" stroke="#000000" points="730,-.5 730,-19.5 918,-19.5 918,-.5 730,-.5"/>
<text text-anchor="middle" x="824" y="-7.5" font-family="Helvetica,sans-Serif" font-size="10.00" fill="#000000">MemoryManager::WakeupIfNeeded</text>
</a>
</g>
</g>
<!-- Node192&#45;&gt;Node194 -->
<g id="edge17" class="edge">
<title>Node192&#45;&gt;Node194</title>
<path fill="none" stroke="#191970" d="M691.5638,-22.2746C700.7962,-21.4189 710.3838,-20.5303 719.9891,-19.64"/>
<polygon fill="#191970" stroke="#191970" points="720.3568,-23.1211 729.991,-18.713 719.7107,-16.1509 720.3568,-23.1211"/>
</g>
<!-- Node197 -->
<g id="node20" class="node">
<title>Node197</title>
<g id="a_node20"><a xlink:href="classProcessor.html#a2a6ea9cec150529a6b61898634540254" target="_top" xlink:title="Processor::process">
<polygon fill="#ffffff" stroke="#000000" points="372,-.5 372,-19.5 479,-19.5 479,-.5 372,-.5"/>
<text text-anchor="middle" x="425.5" y="-7.5" font-family="Helvetica,sans-Serif" font-size="10.00" fill="#000000">Processor::process</text>
</a>
</g>
</g>
<!-- Node196&#45;&gt;Node197 -->
<g id="edge20" class="edge">
<title>Node196&#45;&gt;Node197</title>
<path fill="none" stroke="#191970" d="M303.0219,-20.3139C322.1895,-18.6998 342.9901,-16.9482 361.9161,-15.3544"/>
<polygon fill="#191970" stroke="#191970" points="362.2474,-18.839 371.9184,-14.5121 361.66,-11.8637 362.2474,-18.839"/>
</g>
</g>
</svg>
