<?xml version="1.0" encoding="UTF-8" standalone="no"?>
<!DOCTYPE svg PUBLIC "-//W3C//DTD SVG 1.1//EN"
 "http://www.w3.org/Graphics/SVG/1.1/DTD/svg11.dtd">
<!-- Generated by graphviz version 2.40.1 (20161225.0304)
 -->
<!-- Title: FileStreamer::StartWriting Pages: 1 -->
<svg width="331pt" height="66pt"
 viewBox="0.00 0.00 331.00 66.00" xmlns="http://www.w3.org/2000/svg" xmlns:xlink="http://www.w3.org/1999/xlink">
<g id="graph0" class="graph" transform="scale(1 1) rotate(0) translate(4 62)">
<title>FileStreamer::StartWriting</title>
<polygon fill="#ffffff" stroke="transparent" points="-4,4 -4,-62 327,-62 327,4 -4,4"/>
<!-- Node55 -->
<g id="node1" class="node">
<title>Node55</title>
<polygon fill="#bfbfbf" stroke="#000000" points="0,-19.5 0,-38.5 142,-38.5 142,-19.5 0,-19.5"/>
<text text-anchor="middle" x="71" y="-26.5" font-family="Helvetica,sans-Serif" font-size="10.00" fill="#000000">FileStreamer::StartWriting</text>
</g>
<!-- Node56 -->
<g id="node2" class="node">
<title>Node56</title>
<g id="a_node2"><a xlink:href="classFweelin.html#a681d7ca8d0789199af135f22c26a5409" target="_top" xlink:title="Fweelin::getCFG">
<polygon fill="#ffffff" stroke="#000000" points="203,-38.5 203,-57.5 298,-57.5 298,-38.5 203,-38.5"/>
<text text-anchor="middle" x="250.5" y="-45.5" font-family="Helvetica,sans-Serif" font-size="10.00" fill="#000000">Fweelin::getCFG</text>
</a>
</g>
</g>
<!-- Node55&#45;&gt;Node56 -->
<g id="edge1" class="edge">
<title>Node55&#45;&gt;Node56</title>
<path fill="none" stroke="#191970" d="M142.201,-36.5366C158.902,-38.3044 176.4991,-40.167 192.5402,-41.865"/>
<polygon fill="#191970" stroke="#191970" points="192.5189,-45.3822 202.8318,-42.9543 193.2558,-38.4211 192.5189,-45.3822"/>
</g>
<!-- Node57 -->
<g id="node3" class="node">
<title>Node57</title>
<g id="a_node3"><a xlink:href="classFloConfig.html#a093cc61cbfbab35ca8ab89dc113922dc" target="_top" xlink:title="FloConfig::GetAudioFileExt">
<polygon fill="#ffffff" stroke="#000000" points="178,-.5 178,-19.5 323,-19.5 323,-.5 178,-.5"/>
<text text-anchor="middle" x="250.5" y="-7.5" font-family="Helvetica,sans-Serif" font-size="10.00" fill="#000000">FloConfig::GetAudioFileExt</text>
</a>
</g>
</g>
<!-- Node55&#45;&gt;Node57 -->
<g id="edge2" class="edge">
<title>Node55&#45;&gt;Node57</title>
<path fill="none" stroke="#191970" d="M142.201,-21.4634C150.6432,-20.5698 159.3145,-19.6519 167.898,-18.7434"/>
<polygon fill="#191970" stroke="#191970" points="168.3389,-22.2164 177.9149,-17.6831 167.6021,-15.2552 168.3389,-22.2164"/>
</g>
</g>
</svg>
