<?xml version="1.0" encoding="UTF-8" standalone="no"?>
<!DOCTYPE svg PUBLIC "-//W3C//DTD SVG 1.1//EN"
 "http://www.w3.org/Graphics/SVG/1.1/DTD/svg11.dtd">
<!-- Generated by graphviz version 2.40.1 (20161225.0304)
 -->
<!-- Title: FileStreamer::FileStreamer Pages: 1 -->
<svg width="561pt" height="444pt"
 viewBox="0.00 0.00 561.00 443.50" xmlns="http://www.w3.org/2000/svg" xmlns:xlink="http://www.w3.org/1999/xlink">
<g id="graph0" class="graph" transform="scale(1 1) rotate(0) translate(4 439.5)">
<title>FileStreamer::FileStreamer</title>
<polygon fill="#ffffff" stroke="transparent" points="-4,4 -4,-439.5 557,-439.5 557,4 -4,4"/>
<!-- Node0 -->
<g id="node1" class="node">
<title>Node0</title>
<polygon fill="#bfbfbf" stroke="#000000" points="0,-177.5 0,-196.5 146,-196.5 146,-177.5 0,-177.5"/>
<text text-anchor="middle" x="73" y="-184.5" font-family="Helvetica,sans-Serif" font-size="10.00" fill="#000000">FileStreamer::FileStreamer</text>
</g>
<!-- Node1 -->
<g id="node2" class="node">
<title>Node1</title>
<g id="a_node2"><a xlink:href="classFileStreamer.html#a89b7803d85f99c20fb0e3722c12b4323" target="_top" xlink:title="FileStreamer::run_encode\l_thread">
<polygon fill="#ffffff" stroke="#000000" points="196,-197 196,-227 336,-227 336,-197 196,-197"/>
<text text-anchor="start" x="204" y="-215" font-family="Helvetica,sans-Serif" font-size="10.00" fill="#000000">FileStreamer::run_encode</text>
<text text-anchor="middle" x="266" y="-204" font-family="Helvetica,sans-Serif" font-size="10.00" fill="#000000">_thread</text>
</a>
</g>
</g>
<!-- Node0&#45;&gt;Node1 -->
<g id="edge1" class="edge">
<title>Node0&#45;&gt;Node1</title>
<path fill="none" stroke="#191970" d="M146.2402,-196.4871C159.2416,-198.1712 172.842,-199.9329 186.0189,-201.6398"/>
<polygon fill="#191970" stroke="#191970" points="185.629,-205.1184 195.9958,-202.9321 186.5283,-198.1764 185.629,-205.1184"/>
</g>
<!-- Node13 -->
<g id="node14" class="node">
<title>Node13</title>
<g id="a_node14"><a xlink:href="classRT__RWThreads.html#af83b41e330638728272af35ff18dfa01" target="_top" xlink:title="RT_RWThreads::RegisterReader\lOrWriter">
<polygon fill="#ffffff" stroke="#000000" points="182,-148 182,-178 350,-178 350,-148 182,-148"/>
<text text-anchor="start" x="190" y="-166" font-family="Helvetica,sans-Serif" font-size="10.00" fill="#000000">RT_RWThreads::RegisterReader</text>
<text text-anchor="middle" x="266" y="-155" font-family="Helvetica,sans-Serif" font-size="10.00" fill="#000000">OrWriter</text>
</a>
</g>
</g>
<!-- Node0&#45;&gt;Node13 -->
<g id="edge13" class="edge">
<title>Node0&#45;&gt;Node13</title>
<path fill="none" stroke="#191970" d="M146.2402,-177.8924C154.5946,-176.8535 163.1963,-175.7839 171.774,-174.7172"/>
<polygon fill="#191970" stroke="#191970" points="172.3246,-178.1758 181.8162,-173.4685 171.4607,-171.2293 172.3246,-178.1758"/>
</g>
<!-- Node2 -->
<g id="node3" class="node">
<title>Node2</title>
<g id="a_node3"><a xlink:href="classiFileEncoder.html#a6b11df3424d8aa35873ffc34bacc5dc9" target="_top" xlink:title="iFileEncoder::WriteSamples\lToDisk">
<polygon fill="#ffffff" stroke="#000000" points="395,-405 395,-435 544,-435 544,-405 395,-405"/>
<text text-anchor="start" x="403" y="-423" font-family="Helvetica,sans-Serif" font-size="10.00" fill="#000000">iFileEncoder::WriteSamples</text>
<text text-anchor="middle" x="469.5" y="-412" font-family="Helvetica,sans-Serif" font-size="10.00" fill="#000000">ToDisk</text>
</a>
</g>
</g>
<!-- Node1&#45;&gt;Node2 -->
<g id="edge2" class="edge">
<title>Node1&#45;&gt;Node2</title>
<path fill="none" stroke="#191970" d="M271.6555,-227.129C285.5231,-262.1411 324.6259,-349.242 386,-395 388.5268,-396.8839 391.1952,-398.6267 393.9653,-400.2389"/>
<polygon fill="#191970" stroke="#191970" points="392.6183,-403.4823 403.1101,-404.9565 395.8276,-397.2613 392.6183,-403.4823"/>
</g>
<!-- Node3 -->
<g id="node4" class="node">
<title>Node3</title>
<g id="a_node4"><a xlink:href="classFileStreamer.html#a9cf743c2fac9d70ef66e5f19e8acace3" target="_top" xlink:title="FileStreamer::InitStreamer">
<polygon fill="#ffffff" stroke="#000000" points="397,-366.5 397,-385.5 542,-385.5 542,-366.5 397,-366.5"/>
<text text-anchor="middle" x="469.5" y="-373.5" font-family="Helvetica,sans-Serif" font-size="10.00" fill="#000000">FileStreamer::InitStreamer</text>
</a>
</g>
</g>
<!-- Node1&#45;&gt;Node3 -->
<g id="edge3" class="edge">
<title>Node1&#45;&gt;Node3</title>
<path fill="none" stroke="#191970" d="M273.9493,-227.0872C290.5118,-256.9555 331.7315,-323.6083 386,-357 389.5612,-359.1912 393.3478,-361.1303 397.2672,-362.8462"/>
<polygon fill="#191970" stroke="#191970" points="396.0207,-366.1168 406.6101,-366.4586 398.5452,-359.5878 396.0207,-366.1168"/>
</g>
<!-- Node4 -->
<g id="node5" class="node">
<title>Node4</title>
<g id="a_node5"><a xlink:href="classFweelin.html#a21e51d7b639faaecc415624ab6c16a71" target="_top" xlink:title="Fweelin::getEMG">
<polygon fill="#ffffff" stroke="#000000" points="420.5,-328.5 420.5,-347.5 518.5,-347.5 518.5,-328.5 420.5,-328.5"/>
<text text-anchor="middle" x="469.5" y="-335.5" font-family="Helvetica,sans-Serif" font-size="10.00" fill="#000000">Fweelin::getEMG</text>
</a>
</g>
</g>
<!-- Node1&#45;&gt;Node4 -->
<g id="edge4" class="edge">
<title>Node1&#45;&gt;Node4</title>
<path fill="none" stroke="#191970" d="M278.3041,-227.0463C298.3294,-250.4866 340.3494,-295.4675 386,-319 393.5984,-322.9169 401.996,-326.0328 410.4504,-328.5099"/>
<polygon fill="#191970" stroke="#191970" points="409.7939,-331.9567 420.3568,-331.1341 411.5865,-325.1901 409.7939,-331.9567"/>
</g>
<!-- Node5 -->
<g id="node6" class="node">
<title>Node5</title>
<g id="a_node6"><a xlink:href="classEventManager.html#a900be2c959408f76e6926c96197bd773" target="_top" xlink:title="EventManager::ListenEvent">
<polygon fill="#ffffff" stroke="#000000" points="395,-290.5 395,-309.5 544,-309.5 544,-290.5 395,-290.5"/>
<text text-anchor="middle" x="469.5" y="-297.5" font-family="Helvetica,sans-Serif" font-size="10.00" fill="#000000">EventManager::ListenEvent</text>
</a>
</g>
</g>
<!-- Node1&#45;&gt;Node5 -->
<g id="edge5" class="edge">
<title>Node1&#45;&gt;Node5</title>
<path fill="none" stroke="#191970" d="M287.5602,-227.0538C310.8447,-242.6609 349.5186,-266.7332 386,-281 392.6634,-283.6058 399.7723,-285.9034 406.9239,-287.9165"/>
<polygon fill="#191970" stroke="#191970" points="406.1024,-291.3195 416.6645,-290.4875 407.8889,-284.5513 406.1024,-291.3195"/>
</g>
<!-- Node6 -->
<g id="node7" class="node">
<title>Node6</title>
<g id="a_node7"><a xlink:href="classiFileEncoder.html#ae134e439d1cf7a729ead45d624f6bb23" target="_top" xlink:title="iFileEncoder::SetupFileFor\lWriting">
<polygon fill="#ffffff" stroke="#000000" points="399.5,-241 399.5,-271 539.5,-271 539.5,-241 399.5,-241"/>
<text text-anchor="start" x="407.5" y="-259" font-family="Helvetica,sans-Serif" font-size="10.00" fill="#000000">iFileEncoder::SetupFileFor</text>
<text text-anchor="middle" x="469.5" y="-248" font-family="Helvetica,sans-Serif" font-size="10.00" fill="#000000">Writing</text>
</a>
</g>
</g>
<!-- Node1&#45;&gt;Node6 -->
<g id="edge6" class="edge">
<title>Node1&#45;&gt;Node6</title>
<path fill="none" stroke="#191970" d="M335.464,-227.0192C353.0482,-230.8212 372.0677,-234.9336 390.1017,-238.8328"/>
<polygon fill="#191970" stroke="#191970" points="389.49,-242.2813 400.0038,-240.9738 390.9694,-235.4394 389.49,-242.2813"/>
</g>
<!-- Node7 -->
<g id="node8" class="node">
<title>Node7</title>
<g id="a_node8"><a xlink:href="classFweelin.html#a4422f3a93561eff272cd5f7ecb0782ee" target="_top" xlink:title="Fweelin::getRP">
<polygon fill="#ffffff" stroke="#000000" points="425,-202.5 425,-221.5 514,-221.5 514,-202.5 425,-202.5"/>
<text text-anchor="middle" x="469.5" y="-209.5" font-family="Helvetica,sans-Serif" font-size="10.00" fill="#000000">Fweelin::getRP</text>
</a>
</g>
</g>
<!-- Node1&#45;&gt;Node7 -->
<g id="edge7" class="edge">
<title>Node1&#45;&gt;Node7</title>
<path fill="none" stroke="#191970" d="M336.0332,-212C361.7867,-212 390.5523,-212 414.765,-212"/>
<polygon fill="#191970" stroke="#191970" points="414.8411,-215.5001 424.8411,-212 414.841,-208.5001 414.8411,-215.5001"/>
</g>
<!-- Node8 -->
<g id="node9" class="node">
<title>Node8</title>
<g id="a_node9"><a xlink:href="classRootProcessor.html#a2aef0ef0e079427ff5c0b5604fbe7e51" target="_top" xlink:title="RootProcessor::GetSampleCnt">
<polygon fill="#ffffff" stroke="#000000" points="388.5,-164.5 388.5,-183.5 550.5,-183.5 550.5,-164.5 388.5,-164.5"/>
<text text-anchor="middle" x="469.5" y="-171.5" font-family="Helvetica,sans-Serif" font-size="10.00" fill="#000000">RootProcessor::GetSampleCnt</text>
</a>
</g>
</g>
<!-- Node1&#45;&gt;Node8 -->
<g id="edge8" class="edge">
<title>Node1&#45;&gt;Node8</title>
<path fill="none" stroke="#191970" d="M336.0332,-198.9226C359.6687,-194.509 385.8413,-189.6218 408.703,-185.3528"/>
<polygon fill="#191970" stroke="#191970" points="409.4284,-188.7779 418.616,-183.5017 408.1434,-181.8968 409.4284,-188.7779"/>
</g>
<!-- Node9 -->
<g id="node10" class="node">
<title>Node9</title>
<g id="a_node10"><a xlink:href="classFweelin.html#a1df20111cd1d263b7741e98123006446" target="_top" xlink:title="Fweelin::FlushStreamOutName">
<polygon fill="#ffffff" stroke="#000000" points="386,-126.5 386,-145.5 553,-145.5 553,-126.5 386,-126.5"/>
<text text-anchor="middle" x="469.5" y="-133.5" font-family="Helvetica,sans-Serif" font-size="10.00" fill="#000000">Fweelin::FlushStreamOutName</text>
</a>
</g>
</g>
<!-- Node1&#45;&gt;Node9 -->
<g id="edge9" class="edge">
<title>Node1&#45;&gt;Node9</title>
<path fill="none" stroke="#191970" d="M330.5471,-196.9234C337.2989,-194.3639 343.9115,-191.4067 350,-188 368.9417,-177.4017 366.7762,-165.0776 386,-155 390.4934,-152.6444 395.2726,-150.5793 400.1815,-148.7689"/>
<polygon fill="#191970" stroke="#191970" points="401.3546,-152.0673 409.7405,-145.5922 399.147,-145.4245 401.3546,-152.0673"/>
</g>
<!-- Node10 -->
<g id="node11" class="node">
<title>Node10</title>
<g id="a_node11"><a xlink:href="classiFileEncoder.html#a688c77631f58abe047c36ef552ec83bb" target="_top" xlink:title="iFileEncoder::PrepareFile\lForClosing">
<polygon fill="#ffffff" stroke="#000000" points="402,-77 402,-107 537,-107 537,-77 402,-77"/>
<text text-anchor="start" x="410" y="-95" font-family="Helvetica,sans-Serif" font-size="10.00" fill="#000000">iFileEncoder::PrepareFile</text>
<text text-anchor="middle" x="469.5" y="-84" font-family="Helvetica,sans-Serif" font-size="10.00" fill="#000000">ForClosing</text>
</a>
</g>
</g>
<!-- Node1&#45;&gt;Node10 -->
<g id="edge10" class="edge">
<title>Node1&#45;&gt;Node10</title>
<path fill="none" stroke="#191970" d="M336.1532,-196.9899C341.1006,-194.4476 345.7886,-191.4752 350,-188 377.2887,-165.4815 358.8538,-139.69 386,-117 388.2314,-115.1349 390.5984,-113.4089 393.068,-111.8117"/>
<polygon fill="#191970" stroke="#191970" points="394.8337,-114.8341 401.8123,-106.8622 391.3856,-108.7423 394.8337,-114.8341"/>
</g>
<!-- Node11 -->
<g id="node12" class="node">
<title>Node11</title>
<g id="a_node12"><a xlink:href="classFileStreamer.html#a4d5a80c78b430442839671ed38f20763" target="_top" xlink:title="FileStreamer::EndStreamer">
<polygon fill="#ffffff" stroke="#000000" points="396,-38.5 396,-57.5 543,-57.5 543,-38.5 396,-38.5"/>
<text text-anchor="middle" x="469.5" y="-45.5" font-family="Helvetica,sans-Serif" font-size="10.00" fill="#000000">FileStreamer::EndStreamer</text>
</a>
</g>
</g>
<!-- Node1&#45;&gt;Node11 -->
<g id="edge11" class="edge">
<title>Node1&#45;&gt;Node11</title>
<path fill="none" stroke="#191970" d="M336.073,-198.2368C341.1628,-195.4238 345.8979,-192.0485 350,-188 389.631,-148.887 345.5333,-106.2478 386,-68 388.1328,-65.9841 390.4314,-64.16 392.8577,-62.5101"/>
<polygon fill="#191970" stroke="#191970" points="394.5981,-65.5468 401.5436,-57.5462 391.1248,-59.4693 394.5981,-65.5468"/>
</g>
<!-- Node12 -->
<g id="node13" class="node">
<title>Node12</title>
<g id="a_node13"><a xlink:href="classEventManager.html#abfc3ddd37f9bd472a41ab43632e44736" target="_top" xlink:title="EventManager::UnlistenEvent">
<polygon fill="#ffffff" stroke="#000000" points="389,-.5 389,-19.5 550,-19.5 550,-.5 389,-.5"/>
<text text-anchor="middle" x="469.5" y="-7.5" font-family="Helvetica,sans-Serif" font-size="10.00" fill="#000000">EventManager::UnlistenEvent</text>
</a>
</g>
</g>
<!-- Node1&#45;&gt;Node12 -->
<g id="edge12" class="edge">
<title>Node1&#45;&gt;Node12</title>
<path fill="none" stroke="#191970" d="M336.3812,-198.5384C341.4041,-195.66 346.0396,-192.1871 350,-188 399.7887,-135.3611 334.7939,-80.2612 386,-29 387.3002,-27.6984 388.6699,-26.4782 390.0992,-25.3346"/>
<polygon fill="#191970" stroke="#191970" points="392.4228,-27.9966 398.8698,-19.589 388.5869,-22.1412 392.4228,-27.9966"/>
</g>
</g>
</svg>
