<?xml version="1.0" encoding="UTF-8" standalone="no"?>
<!DOCTYPE svg PUBLIC "-//W3C//DTD SVG 1.1//EN"
 "http://www.w3.org/Graphics/SVG/1.1/DTD/svg11.dtd">
<!-- Generated by graphviz version 2.40.1 (20161225.0304)
 -->
<!-- Title: Preallocated Pages: 1 -->
<svg width="1174pt" height="1194pt"
 viewBox="0.00 0.00 1173.94 1194.00" xmlns="http://www.w3.org/2000/svg" xmlns:xlink="http://www.w3.org/1999/xlink">
<g id="graph0" class="graph" transform="scale(1 1) rotate(0) translate(4 1190)">
<title>Preallocated</title>
<polygon fill="#ffffff" stroke="transparent" points="-4,4 -4,-1190 1169.937,-1190 1169.937,4 -4,4"/>
<!-- Node111 -->
<g id="node1" class="node">
<title>Node111</title>
<polygon fill="#bfbfbf" stroke="#000000" points="502.937,-764.5 502.937,-931.5 660.937,-931.5 660.937,-764.5 502.937,-764.5"/>
<text text-anchor="middle" x="581.937" y="-919.5" font-family="Helvetica,sans-Serif" font-size="10.00" fill="#000000">Preallocated</text>
<polyline fill="none" stroke="#000000" points="502.937,-912.5 660.937,-912.5 "/>
<text text-anchor="start" x="510.937" y="-900.5" font-family="Helvetica,sans-Serif" font-size="10.00" fill="#000000">&#45; FWMEM_DEFINE_DELBLOCK</text>
<polyline fill="none" stroke="#000000" points="502.937,-893.5 660.937,-893.5 "/>
<text text-anchor="start" x="510.937" y="-881.5" font-family="Helvetica,sans-Serif" font-size="10.00" fill="#000000">+ Preallocated()</text>
<text text-anchor="start" x="510.937" y="-870.5" font-family="Helvetica,sans-Serif" font-size="10.00" fill="#000000">+ ~Preallocated()</text>
<text text-anchor="start" x="510.937" y="-859.5" font-family="Helvetica,sans-Serif" font-size="10.00" fill="#000000">+ operator new()</text>
<text text-anchor="start" x="510.937" y="-848.5" font-family="Helvetica,sans-Serif" font-size="10.00" fill="#000000">+ operator delete()</text>
<text text-anchor="start" x="510.937" y="-837.5" font-family="Helvetica,sans-Serif" font-size="10.00" fill="#000000">+ RTNew()</text>
<text text-anchor="start" x="510.937" y="-826.5" font-family="Helvetica,sans-Serif" font-size="10.00" fill="#000000">+ RTNewWithWait()</text>
<text text-anchor="start" x="510.937" y="-815.5" font-family="Helvetica,sans-Serif" font-size="10.00" fill="#000000">+ RTDelete()</text>
<text text-anchor="start" x="510.937" y="-804.5" font-family="Helvetica,sans-Serif" font-size="10.00" fill="#000000">+ GetMgr()</text>
<text text-anchor="start" x="510.937" y="-793.5" font-family="Helvetica,sans-Serif" font-size="10.00" fill="#000000">+ SetupPreallocated()</text>
<text text-anchor="start" x="510.937" y="-782.5" font-family="Helvetica,sans-Serif" font-size="10.00" fill="#000000">&#45; NewInstance()</text>
<text text-anchor="start" x="510.937" y="-771.5" font-family="Helvetica,sans-Serif" font-size="10.00" fill="#000000">&#45; Recycle()</text>
</g>
<!-- Node111&#45;&gt;Node111 -->
<g id="edge1" class="edge">
<title>Node111&#45;&gt;Node111</title>
<path fill="none" stroke="#404040" d="M661.1001,-866.6301C671.8078,-863.5069 678.937,-857.2969 678.937,-848 678.937,-842.48 676.4237,-838.0482 672.1403,-834.7047"/>
<polygon fill="none" stroke="#404040" points="671.9048,-834.5909 664.7622,-835.582 661.1001,-829.3699 668.2428,-828.3789 671.9048,-834.5909"/>
<text text-anchor="middle" x="717.937" y="-845.5" font-family="Helvetica,sans-Serif" font-size="10.00" fill="#000000"> +prealloc_next</text>
</g>
<!-- Node112 -->
<g id="node2" class="node">
<title>Node112</title>
<g id="a_node2"><a xlink:href="classPreallocatedType.html" target="_top" xlink:title="{PreallocatedType\n||+ PreallocatedType()\l+ ~PreallocatedType()\l+ RTNew()\l+ RTNewWithWait()\l+ RTDelete()\l+ GoPreallocate()\l+ GoPostdelete()\l+ Cleanup()\l+ GetBlockSize()\l}">
<polygon fill="#ffffff" stroke="#000000" points="382.437,-560.5 382.437,-705.5 509.437,-705.5 509.437,-560.5 382.437,-560.5"/>
<text text-anchor="middle" x="445.937" y="-693.5" font-family="Helvetica,sans-Serif" font-size="10.00" fill="#000000">PreallocatedType</text>
<polyline fill="none" stroke="#000000" points="382.437,-686.5 509.437,-686.5 "/>
<text text-anchor="middle" x="445.937" y="-674.5" font-family="Helvetica,sans-Serif" font-size="10.00" fill="#000000"> </text>
<polyline fill="none" stroke="#000000" points="382.437,-667.5 509.437,-667.5 "/>
<text text-anchor="start" x="390.437" y="-655.5" font-family="Helvetica,sans-Serif" font-size="10.00" fill="#000000">+ PreallocatedType()</text>
<text text-anchor="start" x="390.437" y="-644.5" font-family="Helvetica,sans-Serif" font-size="10.00" fill="#000000">+ ~PreallocatedType()</text>
<text text-anchor="start" x="390.437" y="-633.5" font-family="Helvetica,sans-Serif" font-size="10.00" fill="#000000">+ RTNew()</text>
<text text-anchor="start" x="390.437" y="-622.5" font-family="Helvetica,sans-Serif" font-size="10.00" fill="#000000">+ RTNewWithWait()</text>
<text text-anchor="start" x="390.437" y="-611.5" font-family="Helvetica,sans-Serif" font-size="10.00" fill="#000000">+ RTDelete()</text>
<text text-anchor="start" x="390.437" y="-600.5" font-family="Helvetica,sans-Serif" font-size="10.00" fill="#000000">+ GoPreallocate()</text>
<text text-anchor="start" x="390.437" y="-589.5" font-family="Helvetica,sans-Serif" font-size="10.00" fill="#000000">+ GoPostdelete()</text>
<text text-anchor="start" x="390.437" y="-578.5" font-family="Helvetica,sans-Serif" font-size="10.00" fill="#000000">+ Cleanup()</text>
<text text-anchor="start" x="390.437" y="-567.5" font-family="Helvetica,sans-Serif" font-size="10.00" fill="#000000">+ GetBlockSize()</text>
</a>
</g>
</g>
<!-- Node111&#45;&gt;Node112 -->
<g id="edge5" class="edge">
<title>Node111&#45;&gt;Node112</title>
<path fill="none" stroke="#404040" d="M502.8512,-773.6627C498.2485,-770.2596 493.5954,-767.0132 488.937,-764 472.2269,-753.1915 458.9661,-762.5652 447.937,-746 442.2706,-737.4893 438.8281,-727.7614 436.939,-717.6644"/>
<polygon fill="none" stroke="#404040" points="436.93,-717.5941 432.1953,-712.1552 435.3947,-705.6927 440.1295,-711.1316 436.93,-717.5941"/>
<text text-anchor="middle" x="483.937" y="-738" font-family="Helvetica,sans-Serif" font-size="10.00" fill="#000000"> &#45;blocks_list</text>
<text text-anchor="middle" x="483.937" y="-727" font-family="Helvetica,sans-Serif" font-size="10.00" fill="#000000">&#45;prealloc_base</text>
</g>
<!-- Node123 -->
<g id="node13" class="node">
<title>Node123</title>
<g id="a_node13"><a xlink:href="classMemoryManagerUpdate.html" target="_top" xlink:title="{MemoryManagerUpdate\n||+ MemoryManagerUpdate()\l+ MemoryManagerUpdate()\l+ IsValid()\l}">
<polygon fill="#ffffff" stroke="#000000" points="516.937,-342.5 516.937,-421.5 668.937,-421.5 668.937,-342.5 516.937,-342.5"/>
<text text-anchor="middle" x="592.937" y="-409.5" font-family="Helvetica,sans-Serif" font-size="10.00" fill="#000000">MemoryManagerUpdate</text>
<polyline fill="none" stroke="#000000" points="516.937,-402.5 668.937,-402.5 "/>
<text text-anchor="middle" x="592.937" y="-390.5" font-family="Helvetica,sans-Serif" font-size="10.00" fill="#000000"> </text>
<polyline fill="none" stroke="#000000" points="516.937,-383.5 668.937,-383.5 "/>
<text text-anchor="start" x="524.937" y="-371.5" font-family="Helvetica,sans-Serif" font-size="10.00" fill="#000000">+ MemoryManagerUpdate()</text>
<text text-anchor="start" x="524.937" y="-360.5" font-family="Helvetica,sans-Serif" font-size="10.00" fill="#000000">+ MemoryManagerUpdate()</text>
<text text-anchor="start" x="524.937" y="-349.5" font-family="Helvetica,sans-Serif" font-size="10.00" fill="#000000">+ IsValid()</text>
</a>
</g>
</g>
<!-- Node111&#45;&gt;Node123 -->
<g id="edge17" class="edge">
<title>Node111&#45;&gt;Node123</title>
<path fill="none" stroke="#404040" d="M620.2144,-764.3611C621.707,-750.025 619.5335,-735.9271 610.937,-724 596.1448,-703.477 571.7291,-726.523 556.937,-706 518.9958,-653.3594 550.4732,-624.5662 556.937,-560 561.2494,-516.9234 571.2926,-468.8476 579.6783,-433.5281"/>
<polygon fill="none" stroke="#404040" points="579.743,-433.2603 577.2652,-426.4882 582.5632,-421.5963 585.0411,-428.3684 579.743,-433.2603"/>
<text text-anchor="middle" x="577.437" y="-630.5" font-family="Helvetica,sans-Serif" font-size="10.00" fill="#000000"> +tofree</text>
</g>
<!-- Node112&#45;&gt;Node111 -->
<g id="edge2" class="edge">
<title>Node112&#45;&gt;Node111</title>
<path fill="none" stroke="#404040" d="M509.573,-703.6095C514.6671,-710.3283 519.5368,-717.1813 523.937,-724 529.8989,-733.239 535.6003,-743.1886 540.9406,-753.2902"/>
<polygon fill="none" stroke="#404040" points="541.1053,-753.6108 547.405,-757.1199 546.5889,-764.2847 540.2891,-760.7756 541.1053,-753.6108"/>
<text text-anchor="middle" x="571.437" y="-732.5" font-family="Helvetica,sans-Serif" font-size="10.00" fill="#000000"> &#45;prealloc_mgr</text>
</g>
<!-- Node112&#45;&gt;Node123 -->
<g id="edge18" class="edge">
<title>Node112&#45;&gt;Node123</title>
<path fill="none" stroke="#404040" d="M455.1563,-560.4206C462.1129,-509.8965 471.6678,-449.871 478.937,-440 486.3211,-429.9729 495.9405,-421.5556 506.4615,-414.524"/>
<polygon fill="none" stroke="#404040" points="506.5498,-414.4699 509.5755,-407.9243 516.7814,-408.1997 513.7557,-414.7453 506.5498,-414.4699"/>
<text text-anchor="middle" x="506.437" y="-488.5" font-family="Helvetica,sans-Serif" font-size="10.00" fill="#000000"> +which_pt</text>
</g>
<!-- Node113 -->
<g id="node3" class="node">
<title>Node113</title>
<g id="a_node3"><a xlink:href="classSListItem.html" target="_top" xlink:title="{SListItem\n||+ SListItem()\l}">
<polygon fill="#ffffff" stroke="#000000" points="30.437,-819.5 30.437,-876.5 111.437,-876.5 111.437,-819.5 30.437,-819.5"/>
<text text-anchor="middle" x="70.937" y="-864.5" font-family="Helvetica,sans-Serif" font-size="10.00" fill="#000000">SListItem</text>
<polyline fill="none" stroke="#000000" points="30.437,-857.5 111.437,-857.5 "/>
<text text-anchor="middle" x="70.937" y="-845.5" font-family="Helvetica,sans-Serif" font-size="10.00" fill="#000000"> </text>
<polyline fill="none" stroke="#000000" points="30.437,-838.5 111.437,-838.5 "/>
<text text-anchor="start" x="38.437" y="-826.5" font-family="Helvetica,sans-Serif" font-size="10.00" fill="#000000">+ SListItem()</text>
</a>
</g>
</g>
<!-- Node113&#45;&gt;Node112 -->
<g id="edge3" class="edge">
<title>Node113&#45;&gt;Node112</title>
<path fill="none" stroke="#191970" d="M117.9604,-813.582C140.2536,-797.7982 167.5175,-779.2503 192.937,-764 255.7107,-726.3392 330.4621,-688.4398 382.3613,-663.1649"/>
<polygon fill="none" stroke="#191970" points="115.7891,-810.8314 109.6739,-819.4833 119.8497,-816.5333 115.7891,-810.8314"/>
</g>
<!-- Node113&#45;&gt;Node113 -->
<g id="edge4" class="edge">
<title>Node113&#45;&gt;Node113</title>
<path fill="none" stroke="#404040" d="M111.6719,-868.7116C121.8382,-867.2632 129.437,-860.3594 129.437,-848 129.437,-840.8547 126.8972,-835.5329 122.79,-832.0344"/>
<polygon fill="none" stroke="#404040" points="122.7085,-831.9996 115.6198,-833.3229 111.6719,-827.2884 118.7606,-825.9652 122.7085,-831.9996"/>
<text text-anchor="middle" x="156.937" y="-845.5" font-family="Helvetica,sans-Serif" font-size="10.00" fill="#000000"> &#45;slist_next</text>
</g>
<!-- Node117 -->
<g id="node7" class="node">
<title>Node117</title>
<g id="a_node7"><a xlink:href="classSLinkList.html" target="_top" xlink:title="{SLinkList\n||+ SLinkList()\l+ AddToHead()\l+ FindAndRemove()\l+ GetFirstItem()\l+ GetNextItem()\l}">
<polygon fill="#ffffff" stroke="#000000" points="105.437,-440.5 105.437,-541.5 218.437,-541.5 218.437,-440.5 105.437,-440.5"/>
<text text-anchor="middle" x="161.937" y="-529.5" font-family="Helvetica,sans-Serif" font-size="10.00" fill="#000000">SLinkList</text>
<polyline fill="none" stroke="#000000" points="105.437,-522.5 218.437,-522.5 "/>
<text text-anchor="middle" x="161.937" y="-510.5" font-family="Helvetica,sans-Serif" font-size="10.00" fill="#000000"> </text>
<polyline fill="none" stroke="#000000" points="105.437,-503.5 218.437,-503.5 "/>
<text text-anchor="start" x="113.437" y="-491.5" font-family="Helvetica,sans-Serif" font-size="10.00" fill="#000000">+ SLinkList()</text>
<text text-anchor="start" x="113.437" y="-480.5" font-family="Helvetica,sans-Serif" font-size="10.00" fill="#000000">+ AddToHead()</text>
<text text-anchor="start" x="113.437" y="-469.5" font-family="Helvetica,sans-Serif" font-size="10.00" fill="#000000">+ FindAndRemove()</text>
<text text-anchor="start" x="113.437" y="-458.5" font-family="Helvetica,sans-Serif" font-size="10.00" fill="#000000">+ GetFirstItem()</text>
<text text-anchor="start" x="113.437" y="-447.5" font-family="Helvetica,sans-Serif" font-size="10.00" fill="#000000">+ GetNextItem()</text>
</a>
</g>
</g>
<!-- Node113&#45;&gt;Node117 -->
<g id="edge10" class="edge">
<title>Node113&#45;&gt;Node117</title>
<path fill="none" stroke="#404040" d="M78.23,-819.3887C92.8424,-762.0631 126.0088,-631.9489 145.9275,-553.8064"/>
<polygon fill="none" stroke="#404040" points="146.0416,-553.3585 143.6476,-546.5564 149.0057,-541.7303 151.3997,-548.5325 146.0416,-553.3585"/>
<text text-anchor="middle" x="114.937" y="-732.5" font-family="Helvetica,sans-Serif" font-size="10.00" fill="#000000"> &#45;first</text>
</g>
<!-- Node114 -->
<g id="node4" class="node">
<title>Node114</title>
<g id="a_node4"><a xlink:href="classMemoryManager.html" target="_top" xlink:title="{MemoryManager\n||+ MemoryManager()\l+ ~MemoryManager()\l+ AddType()\l+ DelType()\l+ WakeUp()\l+ WakeupIfNeeded()\l&#45; ProcessQueue()\l&#45; run_mgr_thread()\l}">
<polygon fill="#ffffff" stroke="#000000" points="412.437,-.5 412.437,-134.5 537.437,-134.5 537.437,-.5 412.437,-.5"/>
<text text-anchor="middle" x="474.937" y="-122.5" font-family="Helvetica,sans-Serif" font-size="10.00" fill="#000000">MemoryManager</text>
<polyline fill="none" stroke="#000000" points="412.437,-115.5 537.437,-115.5 "/>
<text text-anchor="middle" x="474.937" y="-103.5" font-family="Helvetica,sans-Serif" font-size="10.00" fill="#000000"> </text>
<polyline fill="none" stroke="#000000" points="412.437,-96.5 537.437,-96.5 "/>
<text text-anchor="start" x="420.437" y="-84.5" font-family="Helvetica,sans-Serif" font-size="10.00" fill="#000000">+ MemoryManager()</text>
<text text-anchor="start" x="420.437" y="-73.5" font-family="Helvetica,sans-Serif" font-size="10.00" fill="#000000">+ ~MemoryManager()</text>
<text text-anchor="start" x="420.437" y="-62.5" font-family="Helvetica,sans-Serif" font-size="10.00" fill="#000000">+ AddType()</text>
<text text-anchor="start" x="420.437" y="-51.5" font-family="Helvetica,sans-Serif" font-size="10.00" fill="#000000">+ DelType()</text>
<text text-anchor="start" x="420.437" y="-40.5" font-family="Helvetica,sans-Serif" font-size="10.00" fill="#000000">+ WakeUp()</text>
<text text-anchor="start" x="420.437" y="-29.5" font-family="Helvetica,sans-Serif" font-size="10.00" fill="#000000">+ WakeupIfNeeded()</text>
<text text-anchor="start" x="420.437" y="-18.5" font-family="Helvetica,sans-Serif" font-size="10.00" fill="#000000">&#45; ProcessQueue()</text>
<text text-anchor="start" x="420.437" y="-7.5" font-family="Helvetica,sans-Serif" font-size="10.00" fill="#000000">&#45; run_mgr_thread()</text>
</a>
</g>
</g>
<!-- Node114&#45;&gt;Node112 -->
<g id="edge6" class="edge">
<title>Node114&#45;&gt;Node112</title>
<path fill="none" stroke="#404040" d="M467.8525,-134.6535C466.3897,-150.1871 464.9792,-166.6585 463.937,-182 455.279,-309.4403 450.3489,-457.4428 447.9095,-548.1512"/>
<polygon fill="none" stroke="#404040" points="447.9059,-548.293 451.746,-554.3966 447.5888,-560.2888 443.7487,-554.1853 447.9059,-548.293"/>
<text text-anchor="middle" x="475.437" y="-316" font-family="Helvetica,sans-Serif" font-size="10.00" fill="#000000"> &#45;mmgr</text>
</g>
<!-- Node115 -->
<g id="node5" class="node">
<title>Node115</title>
<polygon fill="#ffffff" stroke="#bfbfbf" points="431.937,-1023.5 431.937,-1080.5 469.937,-1080.5 469.937,-1023.5 431.937,-1023.5"/>
<text text-anchor="middle" x="450.937" y="-1068.5" font-family="Helvetica,sans-Serif" font-size="10.00" fill="#000000">char</text>
<polyline fill="none" stroke="#bfbfbf" points="431.937,-1061.5 469.937,-1061.5 "/>
<text text-anchor="middle" x="450.937" y="-1049.5" font-family="Helvetica,sans-Serif" font-size="10.00" fill="#000000"> </text>
<polyline fill="none" stroke="#bfbfbf" points="431.937,-1042.5 469.937,-1042.5 "/>
<text text-anchor="middle" x="450.937" y="-1030.5" font-family="Helvetica,sans-Serif" font-size="10.00" fill="#000000"> </text>
</g>
<!-- Node115&#45;&gt;Node111 -->
<g id="edge31" class="edge">
<title>Node115&#45;&gt;Node111</title>
<path fill="none" stroke="#404040" d="M441.8116,-1023.2309C436.7183,-1001.3743 433.8903,-971.5075 447.937,-950 458.8191,-933.3378 472.2269,-942.8085 488.937,-932 490.2471,-931.1525 491.5569,-930.2866 492.8652,-929.404"/>
<polygon fill="none" stroke="#404040" points="493.0558,-929.2692 495.6429,-922.5381 502.8512,-922.3373 500.2641,-929.0683 493.0558,-929.2692"/>
<text text-anchor="middle" x="521.437" y="-991.5" font-family="Helvetica,sans-Serif" font-size="10.00" fill="#000000"> +PREALLOC_BASE_INSTANCE</text>
<text text-anchor="middle" x="521.437" y="-980.5" font-family="Helvetica,sans-Serif" font-size="10.00" fill="#000000">&#45;prealloc_status</text>
<text text-anchor="middle" x="521.437" y="-969.5" font-family="Helvetica,sans-Serif" font-size="10.00" fill="#000000">+PREALLOC_FREE</text>
<text text-anchor="middle" x="521.437" y="-958.5" font-family="Helvetica,sans-Serif" font-size="10.00" fill="#000000">+PREALLOC_IN_USE</text>
</g>
<!-- Node115&#45;&gt;Node112 -->
<g id="edge24" class="edge">
<title>Node115&#45;&gt;Node112</title>
<path fill="none" stroke="#404040" d="M439.2534,-1023.2569C437.1993,-1017.3022 435.2894,-1011.0104 433.937,-1005 426.7819,-973.2018 428.4943,-964.556 426.937,-932 423.3693,-857.4186 421.5643,-838.4731 426.937,-764 428.0199,-748.9882 429.7923,-733.0836 431.8305,-717.7255"/>
<polygon fill="none" stroke="#404040" points="431.8699,-717.4401 428.7296,-710.9486 433.5139,-705.5532 436.6542,-712.0447 431.8699,-717.4401"/>
<text text-anchor="middle" x="460.437" y="-845.5" font-family="Helvetica,sans-Serif" font-size="10.00" fill="#000000"> &#45;block_mode</text>
</g>
<!-- Node115&#45;&gt;Node114 -->
<g id="edge7" class="edge">
<title>Node115&#45;&gt;Node114</title>
<path fill="none" stroke="#404040" d="M431.7476,-1029.0368C428.9955,-1026.7161 426.0378,-1024.6216 422.937,-1023 378.6497,-999.8393 360.8857,-1015.0894 311.937,-1005 181.3416,-978.0815 114.1164,-1027.38 20.937,-932 -5.8109,-904.6205 1.937,-886.2764 1.937,-848 1.937,-848 1.937,-848 1.937,-238.5 1.937,-154.8823 266.6736,-100.6701 400.0326,-78.6657"/>
<polygon fill="none" stroke="#404040" points="400.2818,-78.6253 405.562,-73.7141 412.1262,-76.6991 406.846,-81.6103 400.2818,-78.6253"/>
<text text-anchor="middle" x="41.937" y="-488.5" font-family="Helvetica,sans-Serif" font-size="10.00" fill="#000000"> &#45;needs_wakeup</text>
</g>
<!-- Node116 -->
<g id="node6" class="node">
<title>Node116</title>
<polygon fill="#ffffff" stroke="#bfbfbf" points="290.937,-210 290.937,-267 390.937,-267 390.937,-210 290.937,-210"/>
<text text-anchor="middle" x="340.937" y="-255" font-family="Helvetica,sans-Serif" font-size="10.00" fill="#000000">pthread_mutex_t</text>
<polyline fill="none" stroke="#bfbfbf" points="290.937,-248 390.937,-248 "/>
<text text-anchor="middle" x="340.937" y="-236" font-family="Helvetica,sans-Serif" font-size="10.00" fill="#000000"> </text>
<polyline fill="none" stroke="#bfbfbf" points="290.937,-229 390.937,-229 "/>
<text text-anchor="middle" x="340.937" y="-217" font-family="Helvetica,sans-Serif" font-size="10.00" fill="#000000"> </text>
</g>
<!-- Node116&#45;&gt;Node114 -->
<g id="edge8" class="edge">
<title>Node116&#45;&gt;Node114</title>
<path fill="none" stroke="#404040" d="M334.7338,-209.8199C332.4775,-192.3397 332.4468,-170.1436 341.937,-153 355.1949,-129.0499 378.3068,-110.7846 401.5833,-97.4096"/>
<polygon fill="none" stroke="#404040" points="401.713,-97.3391 405.0727,-90.9584 412.2547,-91.6056 408.895,-97.9862 401.713,-97.3391"/>
<text text-anchor="middle" x="386.437" y="-156" font-family="Helvetica,sans-Serif" font-size="10.00" fill="#000000"> &#45;mgr_thread_lock</text>
</g>
<!-- Node117&#45;&gt;Node114 -->
<g id="edge9" class="edge">
<title>Node117&#45;&gt;Node114</title>
<path fill="none" stroke="#404040" d="M170.9418,-440.2841C184.8479,-374.358 217.0213,-258.6211 281.937,-182 313.8199,-144.368 361.3677,-115.9545 401.2902,-96.845"/>
<polygon fill="none" stroke="#404040" points="401.4515,-96.7699 405.2008,-90.6101 412.3288,-91.7019 408.5795,-97.8617 401.4515,-96.7699"/>
<text text-anchor="middle" x="219.937" y="-316" font-family="Helvetica,sans-Serif" font-size="10.00" fill="#000000"> &#45;pts</text>
</g>
<!-- Node118 -->
<g id="node8" class="node">
<title>Node118</title>
<polygon fill="#ffffff" stroke="#bfbfbf" points="473.437,-210 473.437,-267 536.437,-267 536.437,-210 473.437,-210"/>
<text text-anchor="middle" x="504.937" y="-255" font-family="Helvetica,sans-Serif" font-size="10.00" fill="#000000">pthread_t</text>
<polyline fill="none" stroke="#bfbfbf" points="473.437,-248 536.437,-248 "/>
<text text-anchor="middle" x="504.937" y="-236" font-family="Helvetica,sans-Serif" font-size="10.00" fill="#000000"> </text>
<polyline fill="none" stroke="#bfbfbf" points="473.437,-229 536.437,-229 "/>
<text text-anchor="middle" x="504.937" y="-217" font-family="Helvetica,sans-Serif" font-size="10.00" fill="#000000"> </text>
</g>
<!-- Node118&#45;&gt;Node114 -->
<g id="edge11" class="edge">
<title>Node118&#45;&gt;Node114</title>
<path fill="none" stroke="#404040" d="M499.9156,-209.8784C496.8616,-192.4704 492.7975,-169.3052 488.8364,-146.7266"/>
<polygon fill="none" stroke="#404040" points="488.7907,-146.4661 483.8141,-141.2476 486.7171,-134.6466 491.6937,-139.8651 488.7907,-146.4661"/>
<text text-anchor="middle" x="523.937" y="-156" font-family="Helvetica,sans-Serif" font-size="10.00" fill="#000000"> &#45;mgr_thread</text>
</g>
<!-- Node119 -->
<g id="node9" class="node">
<title>Node119</title>
<polygon fill="#ffffff" stroke="#bfbfbf" points="797.437,-1128.5 797.437,-1185.5 826.437,-1185.5 826.437,-1128.5 797.437,-1128.5"/>
<text text-anchor="middle" x="811.937" y="-1173.5" font-family="Helvetica,sans-Serif" font-size="10.00" fill="#000000">int</text>
<polyline fill="none" stroke="#bfbfbf" points="797.437,-1166.5 826.437,-1166.5 "/>
<text text-anchor="middle" x="811.937" y="-1154.5" font-family="Helvetica,sans-Serif" font-size="10.00" fill="#000000"> </text>
<polyline fill="none" stroke="#bfbfbf" points="797.437,-1147.5 826.437,-1147.5 "/>
<text text-anchor="middle" x="811.937" y="-1135.5" font-family="Helvetica,sans-Serif" font-size="10.00" fill="#000000"> </text>
</g>
<!-- Node119&#45;&gt;Node111 -->
<g id="edge32" class="edge">
<title>Node119&#45;&gt;Node111</title>
<path fill="none" stroke="#404040" d="M797.094,-1151.1942C772.3906,-1140.7993 722.808,-1116.7044 694.937,-1081 657.0564,-1032.4728 677.2364,-1005.1776 649.937,-950 648.6629,-947.4248 647.334,-944.8375 645.9598,-942.2466"/>
<polygon fill="none" stroke="#404040" points="645.8795,-942.1011 639.4774,-938.7826 640.0783,-931.5965 646.4804,-934.9151 645.8795,-942.1011"/>
<text text-anchor="middle" x="746.437" y="-1049.5" font-family="Helvetica,sans-Serif" font-size="10.00" fill="#000000"> +prealloc_num_free</text>
</g>
<!-- Node119&#45;&gt;Node112 -->
<g id="edge25" class="edge">
<title>Node119&#45;&gt;Node112</title>
<path fill="none" stroke="#404040" d="M812.8638,-1128.4079C812.8672,-1100.6612 810.4723,-1057.7662 797.937,-1023 794.6758,-1013.9552 789.1016,-1014.0791 785.937,-1005 750.5605,-903.5096 835.2198,-846.1687 765.937,-764 697.7023,-683.0743 629.7987,-752.9701 534.937,-706 529.7797,-703.4464 524.6566,-700.5436 519.6251,-697.4025"/>
<polygon fill="none" stroke="#404040" points="519.4474,-697.2848 512.2363,-697.3045 509.4446,-690.6557 516.6557,-690.636 519.4474,-697.2848"/>
<text text-anchor="start" x="785.937" y="-997" font-family="Helvetica,sans-Serif" font-size="10.00" fill="#000000"> +PREALLOC_DEFAULT_NUM</text>
<text text-anchor="middle" x="854.937" y="-986" font-family="Helvetica,sans-Serif" font-size="10.00" fill="#000000">_INSTANCES</text>
<text text-anchor="middle" x="854.937" y="-975" font-family="Helvetica,sans-Serif" font-size="10.00" fill="#000000">&#45;prealloc_num_instances</text>
<text text-anchor="middle" x="854.937" y="-964" font-family="Helvetica,sans-Serif" font-size="10.00" fill="#000000">&#45;instance_size</text>
<text text-anchor="middle" x="854.937" y="-953" font-family="Helvetica,sans-Serif" font-size="10.00" fill="#000000">&#45;block_last_idx</text>
</g>
<!-- Node119&#45;&gt;Node114 -->
<g id="edge12" class="edge">
<title>Node119&#45;&gt;Node114</title>
<path fill="none" stroke="#404040" d="M826.5513,-1155.2058C887.0767,-1147.3764 1114.937,-1113.7972 1114.937,-1052 1114.937,-1052 1114.937,-1052 1114.937,-238.5 1114.937,-122.5945 718.1971,-83.1994 549.4566,-71.6857"/>
<polygon fill="none" stroke="#404040" points="549.4417,-71.6848 543.1895,-75.2778 537.4681,-70.8885 543.7203,-67.2954 549.4417,-71.6848"/>
<text text-anchor="middle" x="1140.437" y="-630.5" font-family="Helvetica,sans-Serif" font-size="10.00" fill="#000000"> &#45;threadgo</text>
</g>
<!-- Node121 -->
<g id="node11" class="node">
<title>Node121</title>
<g id="a_node11"><a xlink:href="classSRMWRingBuffer.html" target="_top" xlink:title="{SRMWRingBuffer\&lt; MemoryManager\lUpdate \&gt;\n||+ SRMWRingBuffer()\l+ ~SRMWRingBuffer()\l+ WriteElement()\l+ ReadElement()\l&#45; UpdateNumRWThreads()\l}">
<polygon fill="#ffffff" stroke="#000000" points="604.437,-182.5 604.437,-294.5 795.437,-294.5 795.437,-182.5 604.437,-182.5"/>
<text text-anchor="start" x="612.437" y="-282.5" font-family="Helvetica,sans-Serif" font-size="10.00" fill="#000000">SRMWRingBuffer&lt; MemoryManager</text>
<text text-anchor="middle" x="699.937" y="-271.5" font-family="Helvetica,sans-Serif" font-size="10.00" fill="#000000">Update &gt;</text>
<polyline fill="none" stroke="#000000" points="604.437,-264.5 795.437,-264.5 "/>
<text text-anchor="middle" x="699.937" y="-252.5" font-family="Helvetica,sans-Serif" font-size="10.00" fill="#000000"> </text>
<polyline fill="none" stroke="#000000" points="604.437,-245.5 795.437,-245.5 "/>
<text text-anchor="start" x="612.437" y="-233.5" font-family="Helvetica,sans-Serif" font-size="10.00" fill="#000000">+ SRMWRingBuffer()</text>
<text text-anchor="start" x="612.437" y="-222.5" font-family="Helvetica,sans-Serif" font-size="10.00" fill="#000000">+ ~SRMWRingBuffer()</text>
<text text-anchor="start" x="612.437" y="-211.5" font-family="Helvetica,sans-Serif" font-size="10.00" fill="#000000">+ WriteElement()</text>
<text text-anchor="start" x="612.437" y="-200.5" font-family="Helvetica,sans-Serif" font-size="10.00" fill="#000000">+ ReadElement()</text>
<text text-anchor="start" x="612.437" y="-189.5" font-family="Helvetica,sans-Serif" font-size="10.00" fill="#000000">&#45; UpdateNumRWThreads()</text>
</a>
</g>
</g>
<!-- Node119&#45;&gt;Node121 -->
<g id="edge23" class="edge">
<title>Node119&#45;&gt;Node121</title>
<path fill="none" stroke="#404040" d="M826.7134,-1153.3716C876.0401,-1140.8339 1031.937,-1097.6015 1031.937,-1052 1031.937,-1052 1031.937,-1052 1031.937,-382 1031.937,-327.8086 913.654,-334.5745 806.932,-295.4495"/>
<polygon fill="none" stroke="#404040" points="806.8535,-295.4194 799.8185,-297.0033 795.6507,-291.1185 802.6857,-289.5347 806.8535,-295.4194"/>
<text text-anchor="middle" x="1065.937" y="-738" font-family="Helvetica,sans-Serif" font-size="10.00" fill="#000000"> &#45;num_writers</text>
<text text-anchor="middle" x="1065.937" y="-727" font-family="Helvetica,sans-Serif" font-size="10.00" fill="#000000">&#45;numel</text>
</g>
<!-- Node119&#45;&gt;Node123 -->
<g id="edge20" class="edge">
<title>Node119&#45;&gt;Node123</title>
<path fill="none" stroke="#404040" d="M826.5543,-1143.6983C852.2167,-1119.236 904.4928,-1064.1669 923.937,-1005 954.8106,-911.0541 946.9766,-656.1675 923.937,-560 909.9978,-501.8179 912.3579,-473.7199 862.937,-440 831.3494,-418.4478 733.8239,-430.7623 681.144,-421.9666"/>
<polygon fill="none" stroke="#404040" points="681.1227,-421.962 674.4105,-424.5978 669.3959,-419.4158 676.108,-416.78 681.1227,-421.962"/>
<text text-anchor="middle" x="976.937" y="-845.5" font-family="Helvetica,sans-Serif" font-size="10.00" fill="#000000"> +update_idx</text>
</g>
<!-- Node127 -->
<g id="node17" class="node">
<title>Node127</title>
<g id="a_node17"><a xlink:href="classRTStore.html" target="_top" xlink:title="{RTStore\&lt; PreallocatedInstance \&gt;\n||+ RTStore()\l+ ~RTStore()\l+ FindItemWithState()\l+ ChangeStateAtIdx()\l+ GetItemAtIdx()\l}">
<polygon fill="#ffffff" stroke="#000000" points="202.437,-797.5 202.437,-898.5 381.437,-898.5 381.437,-797.5 202.437,-797.5"/>
<text text-anchor="middle" x="291.937" y="-886.5" font-family="Helvetica,sans-Serif" font-size="10.00" fill="#000000">RTStore&lt; PreallocatedInstance &gt;</text>
<polyline fill="none" stroke="#000000" points="202.437,-879.5 381.437,-879.5 "/>
<text text-anchor="middle" x="291.937" y="-867.5" font-family="Helvetica,sans-Serif" font-size="10.00" fill="#000000"> </text>
<polyline fill="none" stroke="#000000" points="202.437,-860.5 381.437,-860.5 "/>
<text text-anchor="start" x="210.437" y="-848.5" font-family="Helvetica,sans-Serif" font-size="10.00" fill="#000000">+ RTStore()</text>
<text text-anchor="start" x="210.437" y="-837.5" font-family="Helvetica,sans-Serif" font-size="10.00" fill="#000000">+ ~RTStore()</text>
<text text-anchor="start" x="210.437" y="-826.5" font-family="Helvetica,sans-Serif" font-size="10.00" fill="#000000">+ FindItemWithState()</text>
<text text-anchor="start" x="210.437" y="-815.5" font-family="Helvetica,sans-Serif" font-size="10.00" fill="#000000">+ ChangeStateAtIdx()</text>
<text text-anchor="start" x="210.437" y="-804.5" font-family="Helvetica,sans-Serif" font-size="10.00" fill="#000000">+ GetItemAtIdx()</text>
</a>
</g>
</g>
<!-- Node119&#45;&gt;Node127 -->
<g id="edge27" class="edge">
<title>Node119&#45;&gt;Node127</title>
<path fill="none" stroke="#404040" d="M797.3444,-1156.3932C706.3047,-1152.4623 218.7524,-1129.2363 175.937,-1081 130.6606,-1029.9911 179.0989,-958.1346 226.4829,-907.7461"/>
<polygon fill="none" stroke="#404040" points="226.6646,-907.5573 227.9433,-900.4605 234.986,-898.9112 233.7073,-906.0081 226.6646,-907.5573"/>
<text text-anchor="middle" x="215.937" y="-1066" font-family="Helvetica,sans-Serif" font-size="10.00" fill="#000000"> +ITEM_DONE</text>
<text text-anchor="middle" x="215.937" y="-1055" font-family="Helvetica,sans-Serif" font-size="10.00" fill="#000000">&#45;num_items</text>
<text text-anchor="middle" x="215.937" y="-1044" font-family="Helvetica,sans-Serif" font-size="10.00" fill="#000000">+ITEM_BUSY</text>
<text text-anchor="middle" x="215.937" y="-1033" font-family="Helvetica,sans-Serif" font-size="10.00" fill="#000000">+ITEM_WAITING</text>
</g>
<!-- Node128 -->
<g id="node18" class="node">
<title>Node128</title>
<g id="a_node18"><a xlink:href="classRTStore_1_1RTStoreItem.html" target="_top" xlink:title="{RTStore\&lt; T \&gt;::RTStoreItem\n||+ RTStoreItem()\l}">
<polygon fill="#ffffff" stroke="#000000" points="265.437,-1023.5 265.437,-1080.5 414.437,-1080.5 414.437,-1023.5 265.437,-1023.5"/>
<text text-anchor="middle" x="339.937" y="-1068.5" font-family="Helvetica,sans-Serif" font-size="10.00" fill="#000000">RTStore&lt; T &gt;::RTStoreItem</text>
<polyline fill="none" stroke="#000000" points="265.437,-1061.5 414.437,-1061.5 "/>
<text text-anchor="middle" x="339.937" y="-1049.5" font-family="Helvetica,sans-Serif" font-size="10.00" fill="#000000"> </text>
<polyline fill="none" stroke="#000000" points="265.437,-1042.5 414.437,-1042.5 "/>
<text text-anchor="start" x="273.437" y="-1030.5" font-family="Helvetica,sans-Serif" font-size="10.00" fill="#000000">+ RTStoreItem()</text>
</a>
</g>
</g>
<!-- Node119&#45;&gt;Node128 -->
<g id="edge30" class="edge">
<title>Node119&#45;&gt;Node128</title>
<path fill="none" stroke="#404040" d="M797.2817,-1154.9123C746.8432,-1147.568 575.7292,-1121.3322 426.5032,-1081.8407"/>
<polygon fill="none" stroke="#404040" points="426.4782,-1081.8341 419.6471,-1084.1443 414.8873,-1078.7273 421.7183,-1076.4171 426.4782,-1081.8341"/>
<text text-anchor="middle" x="574.937" y="-1102" font-family="Helvetica,sans-Serif" font-size="10.00" fill="#000000"> +item_status</text>
</g>
<!-- Node120 -->
<g id="node10" class="node">
<title>Node120</title>
<polygon fill="#ffffff" stroke="#bfbfbf" points="813.937,-210 813.937,-267 905.937,-267 905.937,-210 813.937,-210"/>
<text text-anchor="middle" x="859.937" y="-255" font-family="Helvetica,sans-Serif" font-size="10.00" fill="#000000">pthread_cond_t</text>
<polyline fill="none" stroke="#bfbfbf" points="813.937,-248 905.937,-248 "/>
<text text-anchor="middle" x="859.937" y="-236" font-family="Helvetica,sans-Serif" font-size="10.00" fill="#000000"> </text>
<polyline fill="none" stroke="#bfbfbf" points="813.937,-229 905.937,-229 "/>
<text text-anchor="middle" x="859.937" y="-217" font-family="Helvetica,sans-Serif" font-size="10.00" fill="#000000"> </text>
</g>
<!-- Node120&#45;&gt;Node114 -->
<g id="edge13" class="edge">
<title>Node120&#45;&gt;Node114</title>
<path fill="none" stroke="#404040" d="M836.9646,-209.8952C827.844,-199.9841 816.7193,-189.4926 804.937,-182 724.8789,-131.0897 619.4243,-99.6416 549.5144,-82.8818"/>
<polygon fill="none" stroke="#404040" points="549.4323,-82.8626 542.6768,-85.3852 537.7499,-80.1196 544.5054,-77.597 549.4323,-82.8626"/>
<text text-anchor="middle" x="793.937" y="-156" font-family="Helvetica,sans-Serif" font-size="10.00" fill="#000000"> &#45;mgr_go</text>
</g>
<!-- Node121&#45;&gt;Node114 -->
<g id="edge14" class="edge">
<title>Node121&#45;&gt;Node114</title>
<path fill="none" stroke="#404040" d="M625.9519,-182.2714C600.7364,-163.1076 572.5852,-141.7126 547.4837,-122.6355"/>
<polygon fill="none" stroke="#404040" points="547.2168,-122.4327 540.0195,-121.9868 537.6628,-115.1716 544.8601,-115.6175 547.2168,-122.4327"/>
<text text-anchor="middle" x="637.937" y="-156" font-family="Helvetica,sans-Serif" font-size="10.00" fill="#000000"> &#45;update_queue</text>
</g>
<!-- Node122 -->
<g id="node12" class="node">
<title>Node122</title>
<g id="a_node12"><a xlink:href="classRTDataStruct__Updater.html" target="_top" xlink:title="{RTDataStruct_Updater\n||# UpdateNumRWThreads()\l}">
<polygon fill="#ffffff" stroke="#000000" points="817.437,-353.5 817.437,-410.5 966.437,-410.5 966.437,-353.5 817.437,-353.5"/>
<text text-anchor="middle" x="891.937" y="-398.5" font-family="Helvetica,sans-Serif" font-size="10.00" fill="#000000">RTDataStruct_Updater</text>
<polyline fill="none" stroke="#000000" points="817.437,-391.5 966.437,-391.5 "/>
<text text-anchor="middle" x="891.937" y="-379.5" font-family="Helvetica,sans-Serif" font-size="10.00" fill="#000000"> </text>
<polyline fill="none" stroke="#000000" points="817.437,-372.5 966.437,-372.5 "/>
<text text-anchor="start" x="825.437" y="-360.5" font-family="Helvetica,sans-Serif" font-size="10.00" fill="#000000"># UpdateNumRWThreads()</text>
</a>
</g>
</g>
<!-- Node122&#45;&gt;Node121 -->
<g id="edge15" class="edge">
<title>Node122&#45;&gt;Node121</title>
<path fill="none" stroke="#191970" d="M845.3973,-347.2165C824.3224,-331.4652 798.8722,-312.4438 775.1909,-294.7445"/>
<polygon fill="none" stroke="#191970" points="843.439,-350.1224 853.5444,-353.3055 847.6297,-344.5153 843.439,-350.1224"/>
</g>
<!-- Node123&#45;&gt;Node121 -->
<g id="edge16" class="edge">
<title>Node123&#45;&gt;Node121</title>
<path fill="none" stroke="#404040" d="M622.4584,-342.4081C631.2326,-330.6409 641.0917,-317.4186 650.7612,-304.4506"/>
<polygon fill="none" stroke="#404040" points="650.9243,-304.2319 651.3042,-297.0308 658.0975,-294.6118 657.7176,-301.813 650.9243,-304.2319"/>
<text text-anchor="middle" x="667.437" y="-316" font-family="Helvetica,sans-Serif" font-size="10.00" fill="#000000"> &#45;tmpread</text>
</g>
<!-- Node124 -->
<g id="node14" class="node">
<title>Node124</title>
<polygon fill="#ffffff" stroke="#bfbfbf" points="606.937,-604.5 606.937,-661.5 740.937,-661.5 740.937,-604.5 606.937,-604.5"/>
<text text-anchor="middle" x="673.937" y="-649.5" font-family="Helvetica,sans-Serif" font-size="10.00" fill="#000000">anonymous:+updatedat</text>
<polyline fill="none" stroke="#bfbfbf" points="606.937,-642.5 740.937,-642.5 "/>
<text text-anchor="middle" x="673.937" y="-630.5" font-family="Helvetica,sans-Serif" font-size="10.00" fill="#000000"> </text>
<polyline fill="none" stroke="#bfbfbf" points="606.937,-623.5 740.937,-623.5 "/>
<text text-anchor="middle" x="673.937" y="-611.5" font-family="Helvetica,sans-Serif" font-size="10.00" fill="#000000"> </text>
</g>
<!-- Node124&#45;&gt;Node123 -->
<g id="edge19" class="edge">
<title>Node124&#45;&gt;Node123</title>
<path fill="none" stroke="#404040" d="M664.6452,-604.2071C651.1906,-562.5145 626.0763,-484.6911 609.4297,-433.107"/>
<polygon fill="none" stroke="#404040" points="609.3887,-432.9798 603.7393,-428.4982 605.7032,-421.5597 611.3526,-426.0412 609.3887,-432.9798"/>
<text text-anchor="middle" x="673.437" y="-488.5" font-family="Helvetica,sans-Serif" font-size="10.00" fill="#000000"> +updatedat</text>
</g>
<!-- Node125 -->
<g id="node15" class="node">
<title>Node125</title>
<polygon fill="#ffffff" stroke="#bfbfbf" points="758.937,-604.5 758.937,-661.5 914.937,-661.5 914.937,-604.5 758.937,-604.5"/>
<text text-anchor="middle" x="836.937" y="-649.5" font-family="Helvetica,sans-Serif" font-size="10.00" fill="#000000">MemoryManagerUpdateType</text>
<polyline fill="none" stroke="#bfbfbf" points="758.937,-642.5 914.937,-642.5 "/>
<text text-anchor="middle" x="836.937" y="-630.5" font-family="Helvetica,sans-Serif" font-size="10.00" fill="#000000"> </text>
<polyline fill="none" stroke="#bfbfbf" points="758.937,-623.5 914.937,-623.5 "/>
<text text-anchor="middle" x="836.937" y="-611.5" font-family="Helvetica,sans-Serif" font-size="10.00" fill="#000000"> </text>
</g>
<!-- Node125&#45;&gt;Node123 -->
<g id="edge21" class="edge">
<title>Node125&#45;&gt;Node123</title>
<path fill="none" stroke="#404040" d="M823.7776,-604.4391C803.7394,-563.5376 762.1163,-487.9385 707.937,-440 704.8207,-437.2427 693.7946,-431.1855 679.7217,-423.9805"/>
<polygon fill="none" stroke="#404040" points="679.7144,-423.9769 672.5551,-424.8391 669.0056,-418.562 676.165,-417.6998 679.7144,-423.9769"/>
<text text-anchor="middle" x="822.437" y="-488.5" font-family="Helvetica,sans-Serif" font-size="10.00" fill="#000000"> +update_type</text>
</g>
<!-- Node126 -->
<g id="node16" class="node">
<title>Node126</title>
<polygon fill="#ffffff" stroke="#bfbfbf" points="686.937,-353.5 686.937,-410.5 798.937,-410.5 798.937,-353.5 686.937,-353.5"/>
<text text-anchor="middle" x="742.937" y="-398.5" font-family="Helvetica,sans-Serif" font-size="10.00" fill="#000000">jack_ringbuffer_t **</text>
<polyline fill="none" stroke="#bfbfbf" points="686.937,-391.5 798.937,-391.5 "/>
<text text-anchor="middle" x="742.937" y="-379.5" font-family="Helvetica,sans-Serif" font-size="10.00" fill="#000000"> </text>
<polyline fill="none" stroke="#bfbfbf" points="686.937,-372.5 798.937,-372.5 "/>
<text text-anchor="middle" x="742.937" y="-360.5" font-family="Helvetica,sans-Serif" font-size="10.00" fill="#000000"> </text>
</g>
<!-- Node126&#45;&gt;Node121 -->
<g id="edge22" class="edge">
<title>Node126&#45;&gt;Node121</title>
<path fill="none" stroke="#404040" d="M734.3386,-353.3055C730.2956,-339.8132 725.2868,-323.0976 720.3541,-306.6362"/>
<polygon fill="none" stroke="#404040" points="720.2353,-306.2395 714.6813,-301.6402 716.7907,-294.7445 722.3447,-299.3438 720.2353,-306.2395"/>
<text text-anchor="middle" x="743.437" y="-316" font-family="Helvetica,sans-Serif" font-size="10.00" fill="#000000"> &#45;wbufs</text>
</g>
<!-- Node127&#45;&gt;Node112 -->
<g id="edge26" class="edge">
<title>Node127&#45;&gt;Node112</title>
<path fill="none" stroke="#404040" d="M310.0232,-797.3177C319.6673,-773.8543 332.8764,-746.3034 348.937,-724 356.197,-713.918 364.6901,-704.0541 373.5773,-694.7621"/>
<polygon fill="none" stroke="#404040" points="373.759,-694.5781 375.1292,-687.4983 382.1913,-686.0401 380.8212,-693.1198 373.759,-694.5781"/>
<text text-anchor="middle" x="376.437" y="-732.5" font-family="Helvetica,sans-Serif" font-size="10.00" fill="#000000"> &#45;ready_list</text>
</g>
<!-- Node128&#45;&gt;Node127 -->
<g id="edge28" class="edge">
<title>Node128&#45;&gt;Node127</title>
<path fill="none" stroke="#404040" d="M333.1615,-1023.2045C326.3059,-994.0679 315.487,-948.0876 306.6525,-910.5409"/>
<polygon fill="none" stroke="#404040" points="306.6099,-910.3598 301.342,-905.4355 303.8614,-898.6788 309.1293,-903.6032 306.6099,-910.3598"/>
<text text-anchor="middle" x="346.437" y="-975" font-family="Helvetica,sans-Serif" font-size="10.00" fill="#000000"> &#45;items</text>
</g>
<!-- Node129 -->
<g id="node19" class="node">
<title>Node129</title>
<g id="a_node19"><a xlink:href="classT.html" target="_top" xlink:title="{T\n||}">
<polygon fill="#ffffff" stroke="#000000" points="325.437,-1128.5 325.437,-1185.5 354.437,-1185.5 354.437,-1128.5 325.437,-1128.5"/>
<text text-anchor="middle" x="339.937" y="-1173.5" font-family="Helvetica,sans-Serif" font-size="10.00" fill="#000000">T</text>
<polyline fill="none" stroke="#000000" points="325.437,-1166.5 354.437,-1166.5 "/>
<text text-anchor="middle" x="339.937" y="-1154.5" font-family="Helvetica,sans-Serif" font-size="10.00" fill="#000000"> </text>
<polyline fill="none" stroke="#000000" points="325.437,-1147.5 354.437,-1147.5 "/>
<text text-anchor="middle" x="339.937" y="-1135.5" font-family="Helvetica,sans-Serif" font-size="10.00" fill="#000000"> </text>
</a>
</g>
</g>
<!-- Node129&#45;&gt;Node128 -->
<g id="edge29" class="edge">
<title>Node129&#45;&gt;Node128</title>
<path fill="none" stroke="#191970" d="M339.937,-1118.192C339.937,-1105.7605 339.937,-1092.2278 339.937,-1080.657"/>
<polygon fill="none" stroke="#191970" points="336.4371,-1118.3083 339.937,-1128.3083 343.4371,-1118.3083 336.4371,-1118.3083"/>
</g>
<!-- Node130 -->
<g id="node20" class="node">
<title>Node130</title>
<polygon fill="#ffffff" stroke="#bfbfbf" points="526.937,-1023.5 526.937,-1080.5 644.937,-1080.5 644.937,-1023.5 526.937,-1023.5"/>
<text text-anchor="middle" x="585.937" y="-1068.5" font-family="Helvetica,sans-Serif" font-size="10.00" fill="#000000">anonymous:&#45;predata</text>
<polyline fill="none" stroke="#bfbfbf" points="526.937,-1061.5 644.937,-1061.5 "/>
<text text-anchor="middle" x="585.937" y="-1049.5" font-family="Helvetica,sans-Serif" font-size="10.00" fill="#000000"> </text>
<polyline fill="none" stroke="#bfbfbf" points="526.937,-1042.5 644.937,-1042.5 "/>
<text text-anchor="middle" x="585.937" y="-1030.5" font-family="Helvetica,sans-Serif" font-size="10.00" fill="#000000"> </text>
</g>
<!-- Node130&#45;&gt;Node111 -->
<g id="edge33" class="edge">
<title>Node130&#45;&gt;Node111</title>
<path fill="none" stroke="#404040" d="M595.1597,-1023.4232C596.73,-1017.4006 598.117,-1011.0402 598.937,-1005 601.6219,-985.2216 601.4048,-963.9952 599.7192,-943.7439"/>
<polygon fill="none" stroke="#404040" points="599.7013,-943.561 595.135,-937.9799 598.5305,-931.6182 603.0968,-937.1994 599.7013,-943.561"/>
<text text-anchor="middle" x="623.437" y="-975" font-family="Helvetica,sans-Serif" font-size="10.00" fill="#000000"> &#45;predata</text>
</g>
</g>
</svg>
