<?xml version="1.0" encoding="UTF-8" standalone="no"?>
<!DOCTYPE svg PUBLIC "-//W3C//DTD SVG 1.1//EN"
 "http://www.w3.org/Graphics/SVG/1.1/DTD/svg11.dtd">
<!-- Generated by graphviz version 2.40.1 (20161225.0304)
 -->
<!-- Title: PeaksAvgsManager::Manage Pages: 1 -->
<svg width="720pt" height="154pt"
 viewBox="0.00 0.00 720.00 153.50" xmlns="http://www.w3.org/2000/svg" xmlns:xlink="http://www.w3.org/1999/xlink">
<g id="graph0" class="graph" transform="scale(1 1) rotate(0) translate(4 149.5)">
<title>PeaksAvgsManager::Manage</title>
<polygon fill="#ffffff" stroke="transparent" points="-4,4 -4,-149.5 716,-149.5 716,4 -4,4"/>
<!-- Node33 -->
<g id="node1" class="node">
<title>Node33</title>
<polygon fill="#bfbfbf" stroke="#000000" points="0,-57.5 0,-76.5 155,-76.5 155,-57.5 0,-57.5"/>
<text text-anchor="middle" x="77.5" y="-64.5" font-family="Helvetica,sans-Serif" font-size="10.00" fill="#000000">PeaksAvgsManager::Manage</text>
</g>
<!-- Node34 -->
<g id="node2" class="node">
<title>Node34</title>
<g id="a_node2"><a xlink:href="classBlockReadManager.html#a0956beb932559fdea3ecca152db2bd0a" target="_top" xlink:title="BlockReadManager::End">
<polygon fill="#ffffff" stroke="#000000" points="191,-57.5 191,-76.5 325,-76.5 325,-57.5 191,-57.5"/>
<text text-anchor="middle" x="258" y="-64.5" font-family="Helvetica,sans-Serif" font-size="10.00" fill="#000000">BlockReadManager::End</text>
</a>
</g>
</g>
<!-- Node33&#45;&gt;Node34 -->
<g id="edge1" class="edge">
<title>Node33&#45;&gt;Node34</title>
<path fill="none" stroke="#191970" d="M165.2258,-67C173.8835,-67 182.5722,-67 190.9728,-67"/>
<polygon fill="#191970" stroke="#191970" points="165.0958,-63.5001 155.0958,-67 165.0957,-70.5001 165.0958,-63.5001"/>
</g>
<!-- Node35 -->
<g id="node3" class="node">
<title>Node35</title>
<g id="a_node3"><a xlink:href="classBlockReadManager.html#a935aa663d9fa5b6d346f77c7b3882e2b" target="_top" xlink:title="BlockReadManager::\l~BlockReadManager">
<polygon fill="#ffffff" stroke="#000000" points="382.5,-115 382.5,-145 500.5,-145 500.5,-115 382.5,-115"/>
<text text-anchor="start" x="390.5" y="-133" font-family="Helvetica,sans-Serif" font-size="10.00" fill="#000000">BlockReadManager::</text>
<text text-anchor="middle" x="441.5" y="-122" font-family="Helvetica,sans-Serif" font-size="10.00" fill="#000000">~BlockReadManager</text>
</a>
</g>
</g>
<!-- Node34&#45;&gt;Node35 -->
<g id="edge2" class="edge">
<title>Node34&#45;&gt;Node35</title>
<path fill="none" stroke="#191970" d="M292.4244,-80.2126C312.3633,-87.7366 337.9946,-97.19 361,-105 370.8387,-108.3401 381.4121,-111.7505 391.5557,-114.9353"/>
<polygon fill="#191970" stroke="#191970" points="293.4372,-76.8535 282.8459,-76.5815 290.9559,-83.399 293.4372,-76.8535"/>
</g>
<!-- Node36 -->
<g id="node4" class="node">
<title>Node36</title>
<g id="a_node4"><a xlink:href="classBlockReadManager.html#af12804c61f944904eedf8c9edf5cd3bd" target="_top" xlink:title="BlockReadManager::Start">
<polygon fill="#ffffff" stroke="#000000" points="372,-76.5 372,-95.5 511,-95.5 511,-76.5 372,-76.5"/>
<text text-anchor="middle" x="441.5" y="-83.5" font-family="Helvetica,sans-Serif" font-size="10.00" fill="#000000">BlockReadManager::Start</text>
</a>
</g>
</g>
<!-- Node34&#45;&gt;Node36 -->
<g id="edge3" class="edge">
<title>Node34&#45;&gt;Node36</title>
<path fill="none" stroke="#191970" d="M335.1595,-74.9893C347.3444,-76.2509 359.8817,-77.5491 371.8817,-78.7916"/>
<polygon fill="#191970" stroke="#191970" points="335.334,-71.4887 325.0266,-73.9401 334.613,-78.4515 335.334,-71.4887"/>
</g>
<!-- Node37 -->
<g id="node5" class="node">
<title>Node37</title>
<g id="a_node5"><a xlink:href="classBlockReadManager.html#aa990976dec4a3ec5bd6384b54ce5f09b" target="_top" xlink:title="BlockReadManager::Manage">
<polygon fill="#ffffff" stroke="#000000" points="558,-57.5 558,-76.5 712,-76.5 712,-57.5 558,-57.5"/>
<text text-anchor="middle" x="635" y="-64.5" font-family="Helvetica,sans-Serif" font-size="10.00" fill="#000000">BlockReadManager::Manage</text>
</a>
</g>
</g>
<!-- Node34&#45;&gt;Node37 -->
<g id="edge5" class="edge">
<title>Node34&#45;&gt;Node37</title>
<path fill="none" stroke="#191970" d="M335.589,-67C400.5872,-67 492.8911,-67 557.7845,-67"/>
<polygon fill="#191970" stroke="#191970" points="335.4001,-63.5001 325.4,-67 335.4,-70.5001 335.4001,-63.5001"/>
</g>
<!-- Node38 -->
<g id="node6" class="node">
<title>Node38</title>
<g id="a_node6"><a xlink:href="classLoopManager.html#aadca58536e41c8b0b8fd148ac40b23c0" target="_top" xlink:title="LoopManager::~LoopManager">
<polygon fill="#ffffff" stroke="#000000" points="361,-.5 361,-19.5 522,-19.5 522,-.5 361,-.5"/>
<text text-anchor="middle" x="441.5" y="-7.5" font-family="Helvetica,sans-Serif" font-size="10.00" fill="#000000">LoopManager::~LoopManager</text>
</a>
</g>
</g>
<!-- Node34&#45;&gt;Node38 -->
<g id="edge6" class="edge">
<title>Node34&#45;&gt;Node38</title>
<path fill="none" stroke="#191970" d="M296.8898,-54.3347C316.1477,-48.1153 339.7659,-40.5662 361,-34 376.7439,-29.1315 394.2735,-23.8849 408.9448,-19.5425"/>
<polygon fill="#191970" stroke="#191970" points="295.6888,-51.0445 287.2523,-57.4535 297.8441,-57.7045 295.6888,-51.0445"/>
</g>
<!-- Node36&#45;&gt;Node37 -->
<g id="edge4" class="edge">
<title>Node36&#45;&gt;Node37</title>
<path fill="none" stroke="#191970" d="M521.1609,-78.178C533.2806,-76.9879 545.7699,-75.7616 557.8351,-74.5769"/>
<polygon fill="#191970" stroke="#191970" points="520.6946,-74.7069 511.0846,-79.1674 521.3788,-81.6734 520.6946,-74.7069"/>
</g>
</g>
</svg>
