<?xml version="1.0" encoding="UTF-8" standalone="no"?>
<!DOCTYPE svg PUBLIC "-//W3C//DTD SVG 1.1//EN"
 "http://www.w3.org/Graphics/SVG/1.1/DTD/svg11.dtd">
<!-- Generated by graphviz version 2.40.1 (20161225.0304)
 -->
<!-- Title: PlayProcessor::~PlayProcessor Pages: 1 -->
<svg width="703pt" height="104pt"
 viewBox="0.00 0.00 703.00 104.00" xmlns="http://www.w3.org/2000/svg" xmlns:xlink="http://www.w3.org/1999/xlink">
<g id="graph0" class="graph" transform="scale(1 1) rotate(0) translate(4 100)">
<title>PlayProcessor::~PlayProcessor</title>
<polygon fill="#ffffff" stroke="transparent" points="-4,4 -4,-100 699,-100 699,4 -4,4"/>
<!-- Node7 -->
<g id="node1" class="node">
<title>Node7</title>
<polygon fill="#bfbfbf" stroke="#000000" points="0,-38.5 0,-57.5 167,-57.5 167,-38.5 0,-38.5"/>
<text text-anchor="middle" x="83.5" y="-45.5" font-family="Helvetica,sans-Serif" font-size="10.00" fill="#000000">PlayProcessor::~PlayProcessor</text>
</g>
<!-- Node8 -->
<g id="node2" class="node">
<title>Node8</title>
<g id="a_node2"><a xlink:href="classFweelin.html#a600688955c7470a1b7a2fa95ddcc4118" target="_top" xlink:title="Fweelin::getBMG">
<polygon fill="#ffffff" stroke="#000000" points="227,-76.5 227,-95.5 325,-95.5 325,-76.5 227,-76.5"/>
<text text-anchor="middle" x="276" y="-83.5" font-family="Helvetica,sans-Serif" font-size="10.00" fill="#000000">Fweelin::getBMG</text>
</a>
</g>
</g>
<!-- Node7&#45;&gt;Node8 -->
<g id="edge1" class="edge">
<title>Node7&#45;&gt;Node8</title>
<path fill="none" stroke="#191970" d="M132.0759,-57.589C158.1649,-62.739 190.5058,-69.1232 217.9179,-74.5344"/>
<polygon fill="#191970" stroke="#191970" points="217.2849,-77.977 227.7734,-76.4799 218.6406,-71.1095 217.2849,-77.977"/>
</g>
<!-- Node9 -->
<g id="node3" class="node">
<title>Node9</title>
<g id="a_node3"><a xlink:href="classBlockManager.html#aed9f3464448ad90022bc613002b912f2" target="_top" xlink:title="BlockManager::RefDeleted">
<polygon fill="#ffffff" stroke="#000000" points="203,-38.5 203,-57.5 349,-57.5 349,-38.5 203,-38.5"/>
<text text-anchor="middle" x="276" y="-45.5" font-family="Helvetica,sans-Serif" font-size="10.00" fill="#000000">BlockManager::RefDeleted</text>
</a>
</g>
</g>
<!-- Node7&#45;&gt;Node9 -->
<g id="edge2" class="edge">
<title>Node7&#45;&gt;Node9</title>
<path fill="none" stroke="#191970" d="M167.0935,-48C175.5333,-48 184.1053,-48 192.5437,-48"/>
<polygon fill="#191970" stroke="#191970" points="192.7527,-51.5001 202.7527,-48 192.7526,-44.5001 192.7527,-51.5001"/>
</g>
<!-- Node12 -->
<g id="node6" class="node">
<title>Node12</title>
<g id="a_node6"><a xlink:href="classPulse.html#a3251783157dd6440cb94ca966d2de06e" target="_top" xlink:title="Pulse::DelPulseSync">
<polygon fill="#ffffff" stroke="#000000" points="218.5,-.5 218.5,-19.5 333.5,-19.5 333.5,-.5 218.5,-.5"/>
<text text-anchor="middle" x="276" y="-7.5" font-family="Helvetica,sans-Serif" font-size="10.00" fill="#000000">Pulse::DelPulseSync</text>
</a>
</g>
</g>
<!-- Node7&#45;&gt;Node12 -->
<g id="edge5" class="edge">
<title>Node7&#45;&gt;Node12</title>
<path fill="none" stroke="#191970" d="M132.0759,-38.411C158.1649,-33.261 190.5058,-26.8768 217.9179,-21.4656"/>
<polygon fill="#191970" stroke="#191970" points="218.6406,-24.8905 227.7734,-19.5201 217.2849,-18.023 218.6406,-24.8905"/>
</g>
<!-- Node10 -->
<g id="node4" class="node">
<title>Node10</title>
<g id="a_node4"><a xlink:href="classBlockManager.html#ac251e0ace481edc4b8da20dca37472a6" target="_top" xlink:title="BlockManager::HiRefDeleted">
<polygon fill="#ffffff" stroke="#000000" points="385,-38.5 385,-57.5 541,-57.5 541,-38.5 385,-38.5"/>
<text text-anchor="middle" x="463" y="-45.5" font-family="Helvetica,sans-Serif" font-size="10.00" fill="#000000">BlockManager::HiRefDeleted</text>
</a>
</g>
</g>
<!-- Node9&#45;&gt;Node10 -->
<g id="edge3" class="edge">
<title>Node9&#45;&gt;Node10</title>
<path fill="none" stroke="#191970" d="M349.1025,-48C357.496,-48 366.12,-48 374.6858,-48"/>
<polygon fill="#191970" stroke="#191970" points="374.6973,-51.5001 384.6973,-48 374.6972,-44.5001 374.6973,-51.5001"/>
</g>
<!-- Node11 -->
<g id="node5" class="node">
<title>Node11</title>
<g id="a_node5"><a xlink:href="classHiPriManagedChain.html#ac1e45103a45f1dc90be396aeb8c226eb" target="_top" xlink:title="HiPriManagedChain::\lRefDeleted">
<polygon fill="#ffffff" stroke="#000000" points="577,-33 577,-63 695,-63 695,-33 577,-33"/>
<text text-anchor="start" x="585" y="-51" font-family="Helvetica,sans-Serif" font-size="10.00" fill="#000000">HiPriManagedChain::</text>
<text text-anchor="middle" x="636" y="-40" font-family="Helvetica,sans-Serif" font-size="10.00" fill="#000000">RefDeleted</text>
</a>
</g>
</g>
<!-- Node10&#45;&gt;Node11 -->
<g id="edge4" class="edge">
<title>Node10&#45;&gt;Node11</title>
<path fill="none" stroke="#191970" d="M541.1488,-48C549.6792,-48 558.319,-48 566.7321,-48"/>
<polygon fill="#191970" stroke="#191970" points="566.8593,-51.5001 576.8593,-48 566.8592,-44.5001 566.8593,-51.5001"/>
</g>
</g>
</svg>
