<?xml version="1.0" encoding="UTF-8" standalone="no"?>
<!DOCTYPE svg PUBLIC "-//W3C//DTD SVG 1.1//EN"
 "http://www.w3.org/Graphics/SVG/1.1/DTD/svg11.dtd">
<!-- Generated by graphviz version 2.40.1 (20161225.0304)
 -->
<!-- Title: FloConfig::GetLayouts Pages: 1 -->
<svg width="459pt" height="72pt"
 viewBox="0.00 0.00 459.00 71.50" xmlns="http://www.w3.org/2000/svg" xmlns:xlink="http://www.w3.org/1999/xlink">
<g id="graph0" class="graph" transform="scale(1 1) rotate(0) translate(4 67.5)">
<title>FloConfig::GetLayouts</title>
<polygon fill="#ffffff" stroke="transparent" points="-4,4 -4,-67.5 455,-67.5 455,4 -4,4"/>
<!-- Node142 -->
<g id="node1" class="node">
<title>Node142</title>
<polygon fill="#bfbfbf" stroke="#000000" points="0,-25 0,-44 123,-44 123,-25 0,-25"/>
<text text-anchor="middle" x="61.5" y="-32" font-family="Helvetica,sans-Serif" font-size="10.00" fill="#000000">FloConfig::GetLayouts</text>
</g>
<!-- Node143 -->
<g id="node2" class="node">
<title>Node143</title>
<g id="a_node2"><a xlink:href="classLoopTray.html#a21244637a1cbb93a0b5603fa760ac25a" target="_top" xlink:title="LoopTray::ReceiveEvent">
<polygon fill="#ffffff" stroke="#000000" points="167,-44 167,-63 298,-63 298,-44 167,-44"/>
<text text-anchor="middle" x="232.5" y="-51" font-family="Helvetica,sans-Serif" font-size="10.00" fill="#000000">LoopTray::ReceiveEvent</text>
</a>
</g>
</g>
<!-- Node142&#45;&gt;Node143 -->
<g id="edge1" class="edge">
<title>Node142&#45;&gt;Node143</title>
<path fill="none" stroke="#191970" d="M133.3235,-42.4804C144.4299,-43.7144 155.8524,-44.9836 166.8149,-46.2017"/>
<polygon fill="#191970" stroke="#191970" points="133.5603,-38.9852 123.2349,-41.3594 132.7872,-45.9424 133.5603,-38.9852"/>
</g>
<!-- Node144 -->
<g id="node3" class="node">
<title>Node144</title>
<g id="a_node3"><a xlink:href="classVideoIO.html#a50e4ccae99e278ed7d65d9db86f18c92" target="_top" xlink:title="VideoIO::video_event_loop">
<polygon fill="#ffffff" stroke="#000000" points="159,-6 159,-25 306,-25 306,-6 159,-6"/>
<text text-anchor="middle" x="232.5" y="-13" font-family="Helvetica,sans-Serif" font-size="10.00" fill="#000000">VideoIO::video_event_loop</text>
</a>
</g>
</g>
<!-- Node142&#45;&gt;Node144 -->
<g id="edge2" class="edge">
<title>Node142&#45;&gt;Node144</title>
<path fill="none" stroke="#191970" d="M133.4085,-26.5102C141.8414,-25.5732 150.4552,-24.6161 158.9106,-23.6766"/>
<polygon fill="#191970" stroke="#191970" points="132.7872,-23.0576 123.2349,-27.6406 133.5603,-30.0148 132.7872,-23.0576"/>
</g>
<!-- Node145 -->
<g id="node4" class="node">
<title>Node145</title>
<g id="a_node4"><a xlink:href="classVideoIO.html#adb25c81a2bfe792fd4f64e23a4e21176" target="_top" xlink:title="VideoIO::run_video\l_thread">
<polygon fill="#ffffff" stroke="#000000" points="342,-.5 342,-30.5 451,-30.5 451,-.5 342,-.5"/>
<text text-anchor="start" x="350" y="-18.5" font-family="Helvetica,sans-Serif" font-size="10.00" fill="#000000">VideoIO::run_video</text>
<text text-anchor="middle" x="396.5" y="-7.5" font-family="Helvetica,sans-Serif" font-size="10.00" fill="#000000">_thread</text>
</a>
</g>
</g>
<!-- Node144&#45;&gt;Node145 -->
<g id="edge3" class="edge">
<title>Node144&#45;&gt;Node145</title>
<path fill="none" stroke="#191970" d="M316.4193,-15.5C325.0101,-15.5 333.5729,-15.5 341.7301,-15.5"/>
<polygon fill="#191970" stroke="#191970" points="316.3441,-12.0001 306.344,-15.5 316.344,-19.0001 316.3441,-12.0001"/>
</g>
</g>
</svg>
