<?xml version="1.0" encoding="UTF-8" standalone="no"?>
<!DOCTYPE svg PUBLIC "-//W3C//DTD SVG 1.1//EN"
 "http://www.w3.org/Graphics/SVG/1.1/DTD/svg11.dtd">
<!-- Generated by graphviz version 2.40.1 (20161225.0304)
 -->
<!-- Title: BrowserItem::GetType Pages: 1 -->
<svg width="750pt" height="389pt"
 viewBox="0.00 0.00 750.00 389.00" xmlns="http://www.w3.org/2000/svg" xmlns:xlink="http://www.w3.org/1999/xlink">
<g id="graph0" class="graph" transform="scale(1 1) rotate(0) translate(4 385)">
<title>BrowserItem::GetType</title>
<polygon fill="#ffffff" stroke="transparent" points="-4,4 -4,-385 746,-385 746,4 -4,4"/>
<!-- Node18 -->
<g id="node1" class="node">
<title>Node18</title>
<polygon fill="#bfbfbf" stroke="#000000" points="0,-171.5 0,-190.5 125,-190.5 125,-171.5 0,-171.5"/>
<text text-anchor="middle" x="62.5" y="-178.5" font-family="Helvetica,sans-Serif" font-size="10.00" fill="#000000">BrowserItem::GetType</text>
</g>
<!-- Node19 -->
<g id="node2" class="node">
<title>Node19</title>
<g id="a_node2"><a xlink:href="classBrowser.html#aee94636eb5ce0a916b6ceba90ab5802c" target="_top" xlink:title="Browser::ItemRenamedOnDisk">
<polygon fill="#ffffff" stroke="#000000" points="161,-342.5 161,-361.5 327,-361.5 327,-342.5 161,-342.5"/>
<text text-anchor="middle" x="244" y="-349.5" font-family="Helvetica,sans-Serif" font-size="10.00" fill="#000000">Browser::ItemRenamedOnDisk</text>
</a>
</g>
</g>
<!-- Node18&#45;&gt;Node19 -->
<g id="edge1" class="edge">
<title>Node18&#45;&gt;Node19</title>
<path fill="none" stroke="#191970" d="M69.45,-200.422C82.2174,-233.1822 112.6175,-299.154 161,-333 166.5719,-336.8978 172.8213,-340.0083 179.3247,-342.4886"/>
<polygon fill="#191970" stroke="#191970" points="72.5848,-198.8134 65.7957,-190.6796 66.0307,-201.2718 72.5848,-198.8134"/>
</g>
<!-- Node20 -->
<g id="node3" class="node">
<title>Node20</title>
<g id="a_node3"><a xlink:href="classBrowser.html#aa33b6a26b512beffbe68bbcd2153c123" target="_top" xlink:title="Browser::AddDivisions">
<polygon fill="#ffffff" stroke="#000000" points="181,-304.5 181,-323.5 307,-323.5 307,-304.5 181,-304.5"/>
<text text-anchor="middle" x="244" y="-311.5" font-family="Helvetica,sans-Serif" font-size="10.00" fill="#000000">Browser::AddDivisions</text>
</a>
</g>
</g>
<!-- Node18&#45;&gt;Node20 -->
<g id="edge2" class="edge">
<title>Node18&#45;&gt;Node20</title>
<path fill="none" stroke="#191970" d="M73.1883,-199.5162C88.9858,-225.141 121.0541,-270.967 161,-295 167.46,-298.8866 174.6402,-301.9787 181.9973,-304.4386"/>
<polygon fill="#191970" stroke="#191970" points="76.0906,-197.5503 67.9479,-190.7719 70.0863,-201.1487 76.0906,-197.5503"/>
</g>
<!-- Node26 -->
<g id="node9" class="node">
<title>Node26</title>
<g id="a_node9"><a xlink:href="classBrowserItem.html#adec8f6fae238595501d6cdc5306108f4" target="_top" xlink:title="BrowserItem::~BrowserItem">
<polygon fill="#ffffff" stroke="#000000" points="166.5,-266.5 166.5,-285.5 321.5,-285.5 321.5,-266.5 166.5,-266.5"/>
<text text-anchor="middle" x="244" y="-273.5" font-family="Helvetica,sans-Serif" font-size="10.00" fill="#000000">BrowserItem::~BrowserItem</text>
</a>
</g>
</g>
<!-- Node18&#45;&gt;Node26 -->
<g id="edge9" class="edge">
<title>Node18&#45;&gt;Node26</title>
<path fill="none" stroke="#191970" d="M79.1888,-197.6066C97.6423,-215.0167 129.0136,-241.8984 161,-257 169.1542,-260.8498 178.1349,-263.9437 187.0854,-266.4234"/>
<polygon fill="#191970" stroke="#191970" points="81.5144,-194.9871 71.8849,-190.5686 76.6572,-200.0278 81.5144,-194.9871"/>
</g>
<!-- Node27 -->
<g id="node10" class="node">
<title>Node27</title>
<g id="a_node10"><a xlink:href="classLoopManager.html#ac082fe5994fd699c11873484d29db286" target="_top" xlink:title="LoopManager::ItemSelected">
<polygon fill="#ffffff" stroke="#000000" points="168,-228.5 168,-247.5 320,-247.5 320,-228.5 168,-228.5"/>
<text text-anchor="middle" x="244" y="-235.5" font-family="Helvetica,sans-Serif" font-size="10.00" fill="#000000">LoopManager::ItemSelected</text>
</a>
</g>
</g>
<!-- Node18&#45;&gt;Node27 -->
<g id="edge10" class="edge">
<title>Node18&#45;&gt;Node27</title>
<path fill="none" stroke="#191970" d="M93.9077,-194.4409C113.0568,-202.302 138.162,-212.02 161,-219 172.4509,-222.4998 184.9649,-225.687 196.7229,-228.4091"/>
<polygon fill="#191970" stroke="#191970" points="95.0579,-191.1288 84.4804,-190.5237 92.3719,-197.593 95.0579,-191.1288"/>
</g>
<!-- Node28 -->
<g id="node11" class="node">
<title>Node28</title>
<g id="a_node11"><a xlink:href="classLoopManager.html#a7954eacf6a4f8d0300c4100133a4b725" target="_top" xlink:title="LoopManager::ItemRenamed">
<polygon fill="#ffffff" stroke="#000000" points="166,-190.5 166,-209.5 322,-209.5 322,-190.5 166,-190.5"/>
<text text-anchor="middle" x="244" y="-197.5" font-family="Helvetica,sans-Serif" font-size="10.00" fill="#000000">LoopManager::ItemRenamed</text>
</a>
</g>
</g>
<!-- Node18&#45;&gt;Node28 -->
<g id="edge11" class="edge">
<title>Node18&#45;&gt;Node28</title>
<path fill="none" stroke="#191970" d="M135.1956,-188.61C145.2983,-189.6676 155.7121,-190.7577 165.9084,-191.8251"/>
<polygon fill="#191970" stroke="#191970" points="135.5262,-185.1256 125.2162,-187.5653 134.7974,-192.0875 135.5262,-185.1256"/>
</g>
<!-- Node29 -->
<g id="node12" class="node">
<title>Node29</title>
<g id="a_node12"><a xlink:href="classFweelin.html#acacaa80535c0688358984d2070fedb71" target="_top" xlink:title="Fweelin::ItemSelected">
<polygon fill="#ffffff" stroke="#000000" points="181.5,-152.5 181.5,-171.5 306.5,-171.5 306.5,-152.5 181.5,-152.5"/>
<text text-anchor="middle" x="244" y="-159.5" font-family="Helvetica,sans-Serif" font-size="10.00" fill="#000000">Fweelin::ItemSelected</text>
</a>
</g>
</g>
<!-- Node18&#45;&gt;Node29 -->
<g id="edge12" class="edge">
<title>Node18&#45;&gt;Node29</title>
<path fill="none" stroke="#191970" d="M135.5706,-173.3507C150.7164,-171.7652 166.5456,-170.1082 181.2814,-168.5656"/>
<polygon fill="#191970" stroke="#191970" points="134.7974,-169.9125 125.2162,-174.4347 135.5262,-176.8744 134.7974,-169.9125"/>
</g>
<!-- Node30 -->
<g id="node13" class="node">
<title>Node30</title>
<g id="a_node13"><a xlink:href="classLoopTrayItem.html#acd39b3b64e971a2ac1d33dbbbcbc6dd3" target="_top" xlink:title="LoopTrayItem::Compare">
<polygon fill="#ffffff" stroke="#000000" points="177.5,-114.5 177.5,-133.5 310.5,-133.5 310.5,-114.5 177.5,-114.5"/>
<text text-anchor="middle" x="244" y="-121.5" font-family="Helvetica,sans-Serif" font-size="10.00" fill="#000000">LoopTrayItem::Compare</text>
</a>
</g>
</g>
<!-- Node18&#45;&gt;Node30 -->
<g id="edge13" class="edge">
<title>Node18&#45;&gt;Node30</title>
<path fill="none" stroke="#191970" d="M93.9077,-167.5591C113.0568,-159.698 138.162,-149.98 161,-143 172.4509,-139.5002 184.9649,-136.313 196.7229,-133.5909"/>
<polygon fill="#191970" stroke="#191970" points="92.3719,-164.407 84.4804,-171.4763 95.0579,-170.8712 92.3719,-164.407"/>
</g>
<!-- Node31 -->
<g id="node14" class="node">
<title>Node31</title>
<g id="a_node14"><a xlink:href="classLoopBrowserItem.html#a7b41b6e24a31e7ce87ac09a63042ba43" target="_top" xlink:title="LoopBrowserItem::Compare">
<polygon fill="#ffffff" stroke="#000000" points="168,-76.5 168,-95.5 320,-95.5 320,-76.5 168,-76.5"/>
<text text-anchor="middle" x="244" y="-83.5" font-family="Helvetica,sans-Serif" font-size="10.00" fill="#000000">LoopBrowserItem::Compare</text>
</a>
</g>
</g>
<!-- Node18&#45;&gt;Node31 -->
<g id="edge14" class="edge">
<title>Node18&#45;&gt;Node31</title>
<path fill="none" stroke="#191970" d="M79.1888,-164.3934C97.6423,-146.9833 129.0136,-120.1016 161,-105 169.1542,-101.1502 178.1349,-98.0563 187.0854,-95.5766"/>
<polygon fill="#191970" stroke="#191970" points="76.6572,-161.9722 71.8849,-171.4314 81.5144,-167.0129 76.6572,-161.9722"/>
</g>
<!-- Node32 -->
<g id="node15" class="node">
<title>Node32</title>
<g id="a_node15"><a xlink:href="classSceneBrowserItem.html#a664c1925e0be0763072f4b180737a525" target="_top" xlink:title="SceneBrowserItem::Compare">
<polygon fill="#ffffff" stroke="#000000" points="165,-38.5 165,-57.5 323,-57.5 323,-38.5 165,-38.5"/>
<text text-anchor="middle" x="244" y="-45.5" font-family="Helvetica,sans-Serif" font-size="10.00" fill="#000000">SceneBrowserItem::Compare</text>
</a>
</g>
</g>
<!-- Node18&#45;&gt;Node32 -->
<g id="edge15" class="edge">
<title>Node18&#45;&gt;Node32</title>
<path fill="none" stroke="#191970" d="M73.1883,-162.4838C88.9858,-136.859 121.0541,-91.033 161,-67 167.46,-63.1134 174.6402,-60.0213 181.9973,-57.5614"/>
<polygon fill="#191970" stroke="#191970" points="70.0863,-160.8513 67.9479,-171.2281 76.0906,-164.4497 70.0863,-160.8513"/>
</g>
<!-- Node33 -->
<g id="node16" class="node">
<title>Node33</title>
<g id="a_node16"><a xlink:href="classBrowser.html#a1abf3fd16c00c24795a9fbd2b001bfb5" target="_top" xlink:title="Browser::Draw_Item">
<polygon fill="#ffffff" stroke="#000000" points="186,-.5 186,-19.5 302,-19.5 302,-.5 186,-.5"/>
<text text-anchor="middle" x="244" y="-7.5" font-family="Helvetica,sans-Serif" font-size="10.00" fill="#000000">Browser::Draw_Item</text>
</a>
</g>
</g>
<!-- Node18&#45;&gt;Node33 -->
<g id="edge16" class="edge">
<title>Node18&#45;&gt;Node33</title>
<path fill="none" stroke="#191970" d="M69.45,-161.578C82.2174,-128.8178 112.6175,-62.846 161,-29 168.3888,-23.8312 176.969,-20.0468 185.7532,-17.2806"/>
<polygon fill="#191970" stroke="#191970" points="66.0307,-160.7282 65.7957,-171.3204 72.5848,-163.1866 66.0307,-160.7282"/>
</g>
<!-- Node21 -->
<g id="node4" class="node">
<title>Node21</title>
<g id="a_node4"><a xlink:href="classLoopManager.html#a860dd45d2721ff2c9912e53bb1486722" target="_top" xlink:title="LoopManager::SetupLoopBrowser">
<polygon fill="#ffffff" stroke="#000000" points="366,-361.5 366,-380.5 545,-380.5 545,-361.5 366,-361.5"/>
<text text-anchor="middle" x="455.5" y="-368.5" font-family="Helvetica,sans-Serif" font-size="10.00" fill="#000000">LoopManager::SetupLoopBrowser</text>
</a>
</g>
</g>
<!-- Node20&#45;&gt;Node21 -->
<g id="edge3" class="edge">
<title>Node20&#45;&gt;Node21</title>
<path fill="none" stroke="#191970" d="M305.4993,-326.1744C312.8294,-328.1827 320.1398,-330.4543 327,-333 343.9615,-339.2941 345.9689,-345.8967 363,-352 373.4946,-355.7609 384.9404,-358.8643 396.0917,-361.3943"/>
<polygon fill="#191970" stroke="#191970" points="306.0898,-322.7121 295.532,-323.598 304.3379,-329.4893 306.0898,-322.7121"/>
</g>
<!-- Node22 -->
<g id="node5" class="node">
<title>Node22</title>
<g id="a_node5"><a xlink:href="classLoopManager.html#ad1c61813e7c16f4b973a3087413eed84" target="_top" xlink:title="LoopManager::SetupSceneBrowser">
<polygon fill="#ffffff" stroke="#000000" points="363,-323.5 363,-342.5 548,-342.5 548,-323.5 363,-323.5"/>
<text text-anchor="middle" x="455.5" y="-330.5" font-family="Helvetica,sans-Serif" font-size="10.00" fill="#000000">LoopManager::SetupSceneBrowser</text>
</a>
</g>
</g>
<!-- Node20&#45;&gt;Node22 -->
<g id="edge4" class="edge">
<title>Node20&#45;&gt;Node22</title>
<path fill="none" stroke="#191970" d="M317.2115,-320.5769C331.9542,-321.9013 347.6317,-323.3097 362.9349,-324.6845"/>
<polygon fill="#191970" stroke="#191970" points="317.4436,-317.0838 307.1705,-319.6749 316.8172,-324.0557 317.4436,-317.0838"/>
</g>
<!-- Node23 -->
<g id="node6" class="node">
<title>Node23</title>
<g id="a_node6"><a xlink:href="classTriggerMap.html#a92e251eec5a7c5741807805b6869fab8" target="_top" xlink:title="TriggerMap::GoSave">
<polygon fill="#ffffff" stroke="#000000" points="399,-285.5 399,-304.5 512,-304.5 512,-285.5 399,-285.5"/>
<text text-anchor="middle" x="455.5" y="-292.5" font-family="Helvetica,sans-Serif" font-size="10.00" fill="#000000">TriggerMap::GoSave</text>
</a>
</g>
</g>
<!-- Node20&#45;&gt;Node23 -->
<g id="edge5" class="edge">
<title>Node20&#45;&gt;Node23</title>
<path fill="none" stroke="#191970" d="M317.2396,-307.4206C343.9456,-305.0214 373.7159,-302.347 398.7714,-300.0962"/>
<polygon fill="#191970" stroke="#191970" points="316.8172,-303.9443 307.1705,-308.3251 317.4436,-310.9162 316.8172,-303.9443"/>
</g>
<!-- Node25 -->
<g id="node8" class="node">
<title>Node25</title>
<g id="a_node8"><a xlink:href="classLoopManager.html#a306ffe72c9623e33cad280ec3609c359" target="_top" xlink:title="LoopManager::SetupSaveLoop">
<polygon fill="#ffffff" stroke="#000000" points="374,-247.5 374,-266.5 537,-266.5 537,-247.5 374,-247.5"/>
<text text-anchor="middle" x="455.5" y="-254.5" font-family="Helvetica,sans-Serif" font-size="10.00" fill="#000000">LoopManager::SetupSaveLoop</text>
</a>
</g>
</g>
<!-- Node20&#45;&gt;Node25 -->
<g id="edge7" class="edge">
<title>Node20&#45;&gt;Node25</title>
<path fill="none" stroke="#191970" d="M305.4993,-301.8256C312.8294,-299.8173 320.1398,-297.5457 327,-295 343.9615,-288.7059 345.9689,-282.1033 363,-276 373.4946,-272.2391 384.9404,-269.1357 396.0917,-266.6057"/>
<polygon fill="#191970" stroke="#191970" points="304.3379,-298.5107 295.532,-304.402 306.0898,-305.2879 304.3379,-298.5107"/>
</g>
<!-- Node24 -->
<g id="node7" class="node">
<title>Node24</title>
<g id="a_node7"><a xlink:href="classLoopManager.html#a00143be12c150c0a89c4f99c1e8d5e70" target="_top" xlink:title="LoopManager::GetWriteBlock">
<polygon fill="#ffffff" stroke="#000000" points="584,-266.5 584,-285.5 742,-285.5 742,-266.5 584,-266.5"/>
<text text-anchor="middle" x="663" y="-273.5" font-family="Helvetica,sans-Serif" font-size="10.00" fill="#000000">LoopManager::GetWriteBlock</text>
</a>
</g>
</g>
<!-- Node23&#45;&gt;Node24 -->
<g id="edge6" class="edge">
<title>Node23&#45;&gt;Node24</title>
<path fill="none" stroke="#191970" d="M522.2529,-288.8877C541.8641,-287.092 563.5047,-285.1104 583.8131,-283.2508"/>
<polygon fill="#191970" stroke="#191970" points="521.8394,-285.4108 512.2003,-289.8082 522.4778,-292.3816 521.8394,-285.4108"/>
</g>
<!-- Node25&#45;&gt;Node24 -->
<g id="edge8" class="edge">
<title>Node25&#45;&gt;Node24</title>
<path fill="none" stroke="#191970" d="M547.3406,-265.4095C559.4784,-266.5209 571.8364,-267.6525 583.7385,-268.7423"/>
<polygon fill="#191970" stroke="#191970" points="547.4892,-261.9085 537.2116,-264.482 546.8508,-268.8794 547.4892,-261.9085"/>
</g>
</g>
</svg>
