<?xml version="1.0" encoding="UTF-8" standalone="no"?>
<!DOCTYPE svg PUBLIC "-//W3C//DTD SVG 1.1//EN"
 "http://www.w3.org/Graphics/SVG/1.1/DTD/svg11.dtd">
<!-- Generated by graphviz version 2.40.1 (20161225.0304)
 -->
<!-- Title: ParsedExpression::Evaluate Pages: 1 -->
<svg width="586pt" height="28pt"
 viewBox="0.00 0.00 586.00 28.00" xmlns="http://www.w3.org/2000/svg" xmlns:xlink="http://www.w3.org/1999/xlink">
<g id="graph0" class="graph" transform="scale(1 1) rotate(0) translate(4 24)">
<title>ParsedExpression::Evaluate</title>
<polygon fill="#ffffff" stroke="transparent" points="-4,4 -4,-24 582,-24 582,4 -4,4"/>
<!-- Node8 -->
<g id="node1" class="node">
<title>Node8</title>
<polygon fill="#bfbfbf" stroke="#000000" points="0,-.5 0,-19.5 151,-19.5 151,-.5 0,-.5"/>
<text text-anchor="middle" x="75.5" y="-7.5" font-family="Helvetica,sans-Serif" font-size="10.00" fill="#000000">ParsedExpression::Evaluate</text>
</g>
<!-- Node9 -->
<g id="node2" class="node">
<title>Node9</title>
<g id="a_node2"><a xlink:href="classCfgToken.html#a5e30ffe3bc7cf2483e390cf023eaa6c0" target="_top" xlink:title="CfgToken::Evaluate">
<polygon fill="#ffffff" stroke="#000000" points="187,-.5 187,-19.5 297,-19.5 297,-.5 187,-.5"/>
<text text-anchor="middle" x="242" y="-7.5" font-family="Helvetica,sans-Serif" font-size="10.00" fill="#000000">CfgToken::Evaluate</text>
</a>
</g>
</g>
<!-- Node8&#45;&gt;Node9 -->
<g id="edge1" class="edge">
<title>Node8&#45;&gt;Node9</title>
<path fill="none" stroke="#191970" d="M151.4415,-10C159.7636,-10 168.1838,-10 176.3661,-10"/>
<polygon fill="#191970" stroke="#191970" points="176.5778,-13.5001 186.5778,-10 176.5778,-6.5001 176.5778,-13.5001"/>
</g>
<!-- Node10 -->
<g id="node3" class="node">
<title>Node10</title>
<g id="a_node3"><a xlink:href="classUserVariable.html#a7cbb83559d78173a8b7810c3ecc3842f" target="_top" xlink:title="UserVariable::SetFrom">
<polygon fill="#ffffff" stroke="#000000" points="333,-.5 333,-19.5 458,-19.5 458,-.5 333,-.5"/>
<text text-anchor="middle" x="395.5" y="-7.5" font-family="Helvetica,sans-Serif" font-size="10.00" fill="#000000">UserVariable::SetFrom</text>
</a>
</g>
</g>
<!-- Node9&#45;&gt;Node10 -->
<g id="edge2" class="edge">
<title>Node9&#45;&gt;Node10</title>
<path fill="none" stroke="#191970" d="M297.417,-10C305.598,-10 314.1303,-10 322.5998,-10"/>
<polygon fill="#191970" stroke="#191970" points="322.872,-13.5001 332.872,-10 322.8719,-6.5001 322.872,-13.5001"/>
</g>
<!-- Node11 -->
<g id="node4" class="node">
<title>Node11</title>
<g id="a_node4"><a xlink:href="classRange.html#a378dde258315602c6929b84cb10f8f8d" target="_top" xlink:title="Range::Range">
<polygon fill="#ffffff" stroke="#000000" points="494,-.5 494,-19.5 578,-19.5 578,-.5 494,-.5"/>
<text text-anchor="middle" x="536" y="-7.5" font-family="Helvetica,sans-Serif" font-size="10.00" fill="#000000">Range::Range</text>
</a>
</g>
</g>
<!-- Node10&#45;&gt;Node11 -->
<g id="edge3" class="edge">
<title>Node10&#45;&gt;Node11</title>
<path fill="none" stroke="#191970" d="M458.353,-10C466.7782,-10 475.347,-10 483.5672,-10"/>
<polygon fill="#191970" stroke="#191970" points="483.7561,-13.5001 493.7561,-10 483.756,-6.5001 483.7561,-13.5001"/>
</g>
</g>
</svg>
