<?xml version="1.0" encoding="UTF-8" standalone="no"?>
<!DOCTYPE svg PUBLIC "-//W3C//DTD SVG 1.1//EN"
 "http://www.w3.org/Graphics/SVG/1.1/DTD/svg11.dtd">
<!-- Generated by graphviz version 2.40.1 (20161225.0304)
 -->
<!-- Title: LibraryHelper::GetStubnameFromLoop Pages: 1 -->
<svg width="339pt" height="104pt"
 viewBox="0.00 0.00 339.00 104.00" xmlns="http://www.w3.org/2000/svg" xmlns:xlink="http://www.w3.org/1999/xlink">
<g id="graph0" class="graph" transform="scale(1 1) rotate(0) translate(4 100)">
<title>LibraryHelper::GetStubnameFromLoop</title>
<polygon fill="#ffffff" stroke="transparent" points="-4,4 -4,-100 335,-100 335,4 -4,4"/>
<!-- Node18 -->
<g id="node1" class="node">
<title>Node18</title>
<polygon fill="#bfbfbf" stroke="#000000" points="0,-33 0,-63 155,-63 155,-33 0,-33"/>
<text text-anchor="start" x="8" y="-51" font-family="Helvetica,sans-Serif" font-size="10.00" fill="#000000">LibraryHelper::GetStubname</text>
<text text-anchor="middle" x="77.5" y="-40" font-family="Helvetica,sans-Serif" font-size="10.00" fill="#000000">FromLoop</text>
</g>
<!-- Node19 -->
<g id="node2" class="node">
<title>Node19</title>
<g id="a_node2"><a xlink:href="classSaveable.html#aa0fb624a251c8ec60d9e410aa1ffe2dd" target="_top" xlink:title="Saveable::GetSaveHash">
<polygon fill="#ffffff" stroke="#000000" points="194,-76.5 194,-95.5 328,-95.5 328,-76.5 194,-76.5"/>
<text text-anchor="middle" x="261" y="-83.5" font-family="Helvetica,sans-Serif" font-size="10.00" fill="#000000">Saveable::GetSaveHash</text>
</a>
</g>
</g>
<!-- Node18&#45;&gt;Node19 -->
<g id="edge1" class="edge">
<title>Node18&#45;&gt;Node19</title>
<path fill="none" stroke="#191970" d="M150.0241,-63.0186C168.3638,-66.8165 187.7765,-70.8366 205.1503,-74.4344"/>
<polygon fill="#191970" stroke="#191970" points="204.6185,-77.8985 215.1205,-76.4991 206.0381,-71.0439 204.6185,-77.8985"/>
</g>
<!-- Node20 -->
<g id="node3" class="node">
<title>Node20</title>
<g id="a_node3"><a xlink:href="classFweelin.html#a681d7ca8d0789199af135f22c26a5409" target="_top" xlink:title="Fweelin::getCFG">
<polygon fill="#ffffff" stroke="#000000" points="213.5,-38.5 213.5,-57.5 308.5,-57.5 308.5,-38.5 213.5,-38.5"/>
<text text-anchor="middle" x="261" y="-45.5" font-family="Helvetica,sans-Serif" font-size="10.00" fill="#000000">Fweelin::getCFG</text>
</a>
</g>
</g>
<!-- Node18&#45;&gt;Node20 -->
<g id="edge2" class="edge">
<title>Node18&#45;&gt;Node20</title>
<path fill="none" stroke="#191970" d="M155.0545,-48C171.1084,-48 187.7566,-48 202.9683,-48"/>
<polygon fill="#191970" stroke="#191970" points="203.2451,-51.5001 213.2451,-48 203.245,-44.5001 203.2451,-51.5001"/>
</g>
<!-- Node21 -->
<g id="node4" class="node">
<title>Node21</title>
<g id="a_node4"><a xlink:href="classFloConfig.html#a9acc5e0790ab29fe30856d58c5ffa0e8" target="_top" xlink:title="FloConfig::GetLibraryPath">
<polygon fill="#ffffff" stroke="#000000" points="191,-.5 191,-19.5 331,-19.5 331,-.5 191,-.5"/>
<text text-anchor="middle" x="261" y="-7.5" font-family="Helvetica,sans-Serif" font-size="10.00" fill="#000000">FloConfig::GetLibraryPath</text>
</a>
</g>
</g>
<!-- Node18&#45;&gt;Node21 -->
<g id="edge3" class="edge">
<title>Node18&#45;&gt;Node21</title>
<path fill="none" stroke="#191970" d="M150.0241,-32.9814C168.3638,-29.1835 187.7765,-25.1634 205.1503,-21.5656"/>
<polygon fill="#191970" stroke="#191970" points="206.0381,-24.9561 215.1205,-19.5009 204.6185,-18.1015 206.0381,-24.9561"/>
</g>
</g>
</svg>
