<?xml version="1.0" encoding="UTF-8" standalone="no"?>
<!DOCTYPE svg PUBLIC "-//W3C//DTD SVG 1.1//EN"
 "http://www.w3.org/Graphics/SVG/1.1/DTD/svg11.dtd">
<!-- Generated by graphviz version 2.40.1 (20161225.0304)
 -->
<!-- Title: AutoLimitProcessor::ResetLimiter Pages: 1 -->
<svg width="272pt" height="39pt"
 viewBox="0.00 0.00 272.00 39.00" xmlns="http://www.w3.org/2000/svg" xmlns:xlink="http://www.w3.org/1999/xlink">
<g id="graph0" class="graph" transform="scale(1 1) rotate(0) translate(4 35)">
<title>AutoLimitProcessor::ResetLimiter</title>
<polygon fill="#ffffff" stroke="transparent" points="-4,4 -4,-35 268,-35 268,4 -4,4"/>
<!-- Node22 -->
<g id="node1" class="node">
<title>Node22</title>
<polygon fill="#bfbfbf" stroke="#000000" points="0,-.5 0,-30.5 111,-30.5 111,-.5 0,-.5"/>
<text text-anchor="start" x="8" y="-18.5" font-family="Helvetica,sans-Serif" font-size="10.00" fill="#000000">AutoLimitProcessor</text>
<text text-anchor="middle" x="55.5" y="-7.5" font-family="Helvetica,sans-Serif" font-size="10.00" fill="#000000">::ResetLimiter</text>
</g>
<!-- Node23 -->
<g id="node2" class="node">
<title>Node23</title>
<g id="a_node2"><a xlink:href="classAutoLimitProcessor.html#a1f9aa779b4405ce033c0a77c39d80bb4" target="_top" xlink:title="AutoLimitProcessor\l::AutoLimitProcessor">
<polygon fill="#ffffff" stroke="#000000" points="147,-.5 147,-30.5 264,-30.5 264,-.5 147,-.5"/>
<text text-anchor="start" x="155" y="-18.5" font-family="Helvetica,sans-Serif" font-size="10.00" fill="#000000">AutoLimitProcessor</text>
<text text-anchor="middle" x="205.5" y="-7.5" font-family="Helvetica,sans-Serif" font-size="10.00" fill="#000000">::AutoLimitProcessor</text>
</a>
</g>
</g>
<!-- Node22&#45;&gt;Node23 -->
<g id="edge1" class="edge">
<title>Node22&#45;&gt;Node23</title>
<path fill="none" stroke="#191970" d="M121.5291,-15.5C129.9568,-15.5 138.5378,-15.5 146.8381,-15.5"/>
<polygon fill="#191970" stroke="#191970" points="121.3545,-12.0001 111.3545,-15.5 121.3544,-19.0001 121.3545,-12.0001"/>
</g>
</g>
</svg>
