<?xml version="1.0" encoding="UTF-8" standalone="no"?>
<!DOCTYPE svg PUBLIC "-//W3C//DTD SVG 1.1//EN"
 "http://www.w3.org/Graphics/SVG/1.1/DTD/svg11.dtd">
<!-- Generated by graphviz version 2.40.1 (20161225.0304)
 -->
<!-- Title: LoopTray::~LoopTray Pages: 1 -->
<svg width="322pt" height="66pt"
 viewBox="0.00 0.00 322.00 66.00" xmlns="http://www.w3.org/2000/svg" xmlns:xlink="http://www.w3.org/1999/xlink">
<g id="graph0" class="graph" transform="scale(1 1) rotate(0) translate(4 62)">
<title>LoopTray::~LoopTray</title>
<polygon fill="#ffffff" stroke="transparent" points="-4,4 -4,-62 318,-62 318,4 -4,4"/>
<!-- Node2 -->
<g id="node1" class="node">
<title>Node2</title>
<polygon fill="#bfbfbf" stroke="#000000" points="0,-19.5 0,-38.5 117,-38.5 117,-19.5 0,-19.5"/>
<text text-anchor="middle" x="58.5" y="-26.5" font-family="Helvetica,sans-Serif" font-size="10.00" fill="#000000">LoopTray::~LoopTray</text>
</g>
<!-- Node3 -->
<g id="node2" class="node">
<title>Node3</title>
<g id="a_node2"><a xlink:href="classFweelin.html#a21e51d7b639faaecc415624ab6c16a71" target="_top" xlink:title="Fweelin::getEMG">
<polygon fill="#ffffff" stroke="#000000" points="184.5,-38.5 184.5,-57.5 282.5,-57.5 282.5,-38.5 184.5,-38.5"/>
<text text-anchor="middle" x="233.5" y="-45.5" font-family="Helvetica,sans-Serif" font-size="10.00" fill="#000000">Fweelin::getEMG</text>
</a>
</g>
</g>
<!-- Node2&#45;&gt;Node3 -->
<g id="edge1" class="edge">
<title>Node2&#45;&gt;Node3</title>
<path fill="none" stroke="#191970" d="M117.2593,-35.3796C135.6073,-37.3716 155.8519,-39.5696 174.2344,-41.5655"/>
<polygon fill="#191970" stroke="#191970" points="173.9121,-45.0509 184.2315,-42.6508 174.6677,-38.0918 173.9121,-45.0509"/>
</g>
<!-- Node4 -->
<g id="node3" class="node">
<title>Node4</title>
<g id="a_node3"><a xlink:href="classEventManager.html#abfc3ddd37f9bd472a41ab43632e44736" target="_top" xlink:title="EventManager::UnlistenEvent">
<polygon fill="#ffffff" stroke="#000000" points="153,-.5 153,-19.5 314,-19.5 314,-.5 153,-.5"/>
<text text-anchor="middle" x="233.5" y="-7.5" font-family="Helvetica,sans-Serif" font-size="10.00" fill="#000000">EventManager::UnlistenEvent</text>
</a>
</g>
</g>
<!-- Node2&#45;&gt;Node4 -->
<g id="edge2" class="edge">
<title>Node2&#45;&gt;Node4</title>
<path fill="none" stroke="#191970" d="M117.2593,-22.6204C125.4667,-21.7293 134.0536,-20.797 142.6836,-19.8601"/>
<polygon fill="#191970" stroke="#191970" points="143.2503,-23.3192 152.8141,-18.7602 142.4947,-16.3601 143.2503,-23.3192"/>
</g>
</g>
</svg>
