<?xml version="1.0" encoding="UTF-8" standalone="no"?>
<!DOCTYPE svg PUBLIC "-//W3C//DTD SVG 1.1//EN"
 "http://www.w3.org/Graphics/SVG/1.1/DTD/svg11.dtd">
<!-- Generated by graphviz version 2.40.1 (20161225.0304)
 -->
<!-- Title: OSCClient::SendPlayingLoops Pages: 1 -->
<svg width="679pt" height="721pt"
 viewBox="0.00 0.00 679.00 720.50" xmlns="http://www.w3.org/2000/svg" xmlns:xlink="http://www.w3.org/1999/xlink">
<g id="graph0" class="graph" transform="scale(1 1) rotate(0) translate(4 716.5)">
<title>OSCClient::SendPlayingLoops</title>
<polygon fill="#ffffff" stroke="transparent" points="-4,4 -4,-716.5 675,-716.5 675,4 -4,4"/>
<!-- Node42 -->
<g id="node1" class="node">
<title>Node42</title>
<polygon fill="#bfbfbf" stroke="#000000" points="0,-323.5 0,-342.5 160,-342.5 160,-323.5 0,-323.5"/>
<text text-anchor="middle" x="80" y="-330.5" font-family="Helvetica,sans-Serif" font-size="10.00" fill="#000000">OSCClient::SendPlayingLoops</text>
</g>
<!-- Node43 -->
<g id="node2" class="node">
<title>Node43</title>
<g id="a_node2"><a xlink:href="classOSCClient.html#aa48dc1abf461f9b7e1b1f4fc1dce767e" target="_top" xlink:title="OSCClient::open_qtractor\l_connection">
<polygon fill="#ffffff" stroke="#000000" points="216.5,-682 216.5,-712 355.5,-712 355.5,-682 216.5,-682"/>
<text text-anchor="start" x="224.5" y="-700" font-family="Helvetica,sans-Serif" font-size="10.00" fill="#000000">OSCClient::open_qtractor</text>
<text text-anchor="middle" x="286" y="-689" font-family="Helvetica,sans-Serif" font-size="10.00" fill="#000000">_connection</text>
</a>
</g>
</g>
<!-- Node42&#45;&gt;Node43 -->
<g id="edge1" class="edge">
<title>Node42&#45;&gt;Node43</title>
<path fill="none" stroke="#191970" d="M81.9947,-342.5706C92.621,-392.6911 144.0399,-624.4675 196,-673 199.4161,-676.1907 203.2082,-678.9669 207.2478,-681.3814"/>
<polygon fill="#191970" stroke="#191970" points="205.9437,-684.6465 216.437,-686.1102 209.1468,-678.4223 205.9437,-684.6465"/>
</g>
<!-- Node44 -->
<g id="node3" class="node">
<title>Node44</title>
<g id="a_node3"><a xlink:href="classFweelin.html#a7b1253ea49ee57244a0d8cca152d72e5" target="_top" xlink:title="Fweelin::getLOOPMGR">
<polygon fill="#ffffff" stroke="#000000" points="422.5,-503.5 422.5,-522.5 547.5,-522.5 547.5,-503.5 422.5,-503.5"/>
<text text-anchor="middle" x="485" y="-510.5" font-family="Helvetica,sans-Serif" font-size="10.00" fill="#000000">Fweelin::getLOOPMGR</text>
</a>
</g>
</g>
<!-- Node42&#45;&gt;Node44 -->
<g id="edge2" class="edge">
<title>Node42&#45;&gt;Node44</title>
<path fill="none" stroke="#191970" d="M83.9395,-342.8212C95.8645,-371.0953 134.5667,-452.8403 196,-487 262.4166,-523.9306 350.9098,-526.3654 412.3995,-522.1352"/>
<polygon fill="#191970" stroke="#191970" points="412.7047,-525.6222 422.4094,-521.3716 412.1721,-518.6425 412.7047,-525.6222"/>
</g>
<!-- Node45 -->
<g id="node4" class="node">
<title>Node45</title>
<g id="a_node4"><a xlink:href="classLoopManager.html#a87f2148eddda1d6e097ecb6612e56dfa" target="_top" xlink:title="LoopManager::GetLongCount\lForAllPlayingLoops">
<polygon fill="#ffffff" stroke="#000000" points="207.5,-419 207.5,-449 364.5,-449 364.5,-419 207.5,-419"/>
<text text-anchor="start" x="215.5" y="-437" font-family="Helvetica,sans-Serif" font-size="10.00" fill="#000000">LoopManager::GetLongCount</text>
<text text-anchor="middle" x="286" y="-426" font-family="Helvetica,sans-Serif" font-size="10.00" fill="#000000">ForAllPlayingLoops</text>
</a>
</g>
</g>
<!-- Node42&#45;&gt;Node45 -->
<g id="edge3" class="edge">
<title>Node42&#45;&gt;Node45</title>
<path fill="none" stroke="#191970" d="M93.3611,-342.5806C114.3811,-357.323 156.8237,-385.7715 196,-404 205.0717,-408.221 214.9061,-412.1281 224.6304,-415.6325"/>
<polygon fill="#191970" stroke="#191970" points="223.6908,-419.0115 234.2856,-418.9995 225.9957,-412.4019 223.6908,-419.0115"/>
</g>
<!-- Node46 -->
<g id="node5" class="node">
<title>Node46</title>
<g id="a_node5"><a xlink:href="classFweelin.html#a681d7ca8d0789199af135f22c26a5409" target="_top" xlink:title="Fweelin::getCFG">
<polygon fill="#ffffff" stroke="#000000" points="437.5,-591.5 437.5,-610.5 532.5,-610.5 532.5,-591.5 437.5,-591.5"/>
<text text-anchor="middle" x="485" y="-598.5" font-family="Helvetica,sans-Serif" font-size="10.00" fill="#000000">Fweelin::getCFG</text>
</a>
</g>
</g>
<!-- Node42&#45;&gt;Node46 -->
<g id="edge18" class="edge">
<title>Node42&#45;&gt;Node46</title>
<path fill="none" stroke="#191970" d="M81.0077,-342.7479C85.5882,-381.4784 108.192,-525.2682 196,-585 267.8274,-633.8609 374.4366,-624.027 436.0964,-612.4893"/>
<polygon fill="#191970" stroke="#191970" points="436.822,-615.9138 445.9625,-610.5564 435.4762,-609.0443 436.822,-615.9138"/>
</g>
<!-- Node47 -->
<g id="node6" class="node">
<title>Node47</title>
<g id="a_node6"><a xlink:href="classFloConfig.html#aced480ca5828c2c7b6841441a9b3d86d" target="_top" xlink:title="FloConfig::GetNumTriggers">
<polygon fill="#ffffff" stroke="#000000" points="412,-464.5 412,-483.5 558,-483.5 558,-464.5 412,-464.5"/>
<text text-anchor="middle" x="485" y="-471.5" font-family="Helvetica,sans-Serif" font-size="10.00" fill="#000000">FloConfig::GetNumTriggers</text>
</a>
</g>
</g>
<!-- Node42&#45;&gt;Node47 -->
<g id="edge19" class="edge">
<title>Node42&#45;&gt;Node47</title>
<path fill="none" stroke="#191970" d="M85.2025,-342.5609C99.2327,-367.2367 140.5639,-432.9507 196,-459 265.3125,-491.5698 354.546,-490.6713 415.4027,-484.6135"/>
<polygon fill="#191970" stroke="#191970" points="416.0991,-488.0591 425.6703,-483.5158 415.3549,-481.0988 416.0991,-488.0591"/>
</g>
<!-- Node48 -->
<g id="node7" class="node">
<title>Node48</title>
<g id="a_node7"><a xlink:href="classLoopManager.html#a66574bbc447d4f891ef382469c521b05" target="_top" xlink:title="LoopManager::GetStatus">
<polygon fill="#ffffff" stroke="#000000" points="417,-383.5 417,-402.5 553,-402.5 553,-383.5 417,-383.5"/>
<text text-anchor="middle" x="485" y="-390.5" font-family="Helvetica,sans-Serif" font-size="10.00" fill="#000000">LoopManager::GetStatus</text>
</a>
</g>
</g>
<!-- Node42&#45;&gt;Node48 -->
<g id="edge20" class="edge">
<title>Node42&#45;&gt;Node48</title>
<path fill="none" stroke="#191970" d="M121.9999,-342.5355C143.9669,-347.3079 171.3482,-352.9211 196,-357 266.9396,-368.7376 348.2474,-378.5438 406.5124,-384.9423"/>
<polygon fill="#191970" stroke="#191970" points="406.4307,-388.4541 416.7509,-386.0577 407.1888,-381.4952 406.4307,-388.4541"/>
</g>
<!-- Node49 -->
<g id="node8" class="node">
<title>Node49</title>
<g id="a_node8"><a xlink:href="classFweelin.html#a10bb364ecf38990653b49a98c5a89c90" target="_top" xlink:title="Fweelin::getTMAP">
<polygon fill="#ffffff" stroke="#000000" points="433.5,-342.5 433.5,-361.5 536.5,-361.5 536.5,-342.5 433.5,-342.5"/>
<text text-anchor="middle" x="485" y="-349.5" font-family="Helvetica,sans-Serif" font-size="10.00" fill="#000000">Fweelin::getTMAP</text>
</a>
</g>
</g>
<!-- Node42&#45;&gt;Node49 -->
<g id="edge21" class="edge">
<title>Node42&#45;&gt;Node49</title>
<path fill="none" stroke="#191970" d="M160.015,-336.7538C237.3565,-340.3822 352.8815,-345.8018 423.3395,-349.1073"/>
<polygon fill="#191970" stroke="#191970" points="423.245,-352.6066 433.3981,-349.5792 423.5731,-345.6143 423.245,-352.6066"/>
</g>
<!-- Node50 -->
<g id="node9" class="node">
<title>Node50</title>
<g id="a_node9"><a xlink:href="classTriggerMap.html#aca3f85b40f3aa29a280c2d7511b84217" target="_top" xlink:title="TriggerMap::GetMap">
<polygon fill="#ffffff" stroke="#000000" points="428.5,-304.5 428.5,-323.5 541.5,-323.5 541.5,-304.5 428.5,-304.5"/>
<text text-anchor="middle" x="485" y="-311.5" font-family="Helvetica,sans-Serif" font-size="10.00" fill="#000000">TriggerMap::GetMap</text>
</a>
</g>
</g>
<!-- Node42&#45;&gt;Node50 -->
<g id="edge22" class="edge">
<title>Node42&#45;&gt;Node50</title>
<path fill="none" stroke="#191970" d="M160.015,-329.2462C235.4889,-325.7055 347.3244,-320.4589 418.1577,-317.1358"/>
<polygon fill="#191970" stroke="#191970" points="418.4768,-320.6248 428.3017,-316.6599 418.1487,-313.6325 418.4768,-320.6248"/>
</g>
<!-- Node53 -->
<g id="node12" class="node">
<title>Node53</title>
<g id="a_node12"><a xlink:href="classFweelin.html#af5750c2388bfe7d280182c3a8c3cab13" target="_top" xlink:title="Fweelin::GetSyncSpeed">
<polygon fill="#ffffff" stroke="#000000" points="220.5,-228.5 220.5,-247.5 351.5,-247.5 351.5,-228.5 220.5,-228.5"/>
<text text-anchor="middle" x="286" y="-235.5" font-family="Helvetica,sans-Serif" font-size="10.00" fill="#000000">Fweelin::GetSyncSpeed</text>
</a>
</g>
</g>
<!-- Node42&#45;&gt;Node53 -->
<g id="edge13" class="edge">
<title>Node42&#45;&gt;Node53</title>
<path fill="none" stroke="#191970" d="M91.3589,-323.44C111.2369,-307.2189 154.2051,-274.3772 196,-257 202.2416,-254.4049 208.8796,-252.1486 215.6123,-250.1899"/>
<polygon fill="#191970" stroke="#191970" points="216.7613,-253.5053 225.5093,-247.5284 214.9434,-246.7455 216.7613,-253.5053"/>
</g>
<!-- Node54 -->
<g id="node13" class="node">
<title>Node54</title>
<g id="a_node13"><a xlink:href="classFweelin.html#acd22ca1ad294b86d1d180de907418d27" target="_top" xlink:title="Fweelin::GetSyncType">
<polygon fill="#ffffff" stroke="#000000" points="224.5,-190.5 224.5,-209.5 347.5,-209.5 347.5,-190.5 224.5,-190.5"/>
<text text-anchor="middle" x="286" y="-197.5" font-family="Helvetica,sans-Serif" font-size="10.00" fill="#000000">Fweelin::GetSyncType</text>
</a>
</g>
</g>
<!-- Node42&#45;&gt;Node54 -->
<g id="edge14" class="edge">
<title>Node42&#45;&gt;Node54</title>
<path fill="none" stroke="#191970" d="M86.8368,-323.1902C102.9995,-300.8059 145.987,-245.8294 196,-219 201.862,-215.8553 208.1993,-213.231 214.702,-211.0409"/>
<polygon fill="#191970" stroke="#191970" points="215.7539,-214.3794 224.3114,-208.1328 213.7263,-207.6795 215.7539,-214.3794"/>
</g>
<!-- Node55 -->
<g id="node14" class="node">
<title>Node55</title>
<g id="a_node14"><a xlink:href="classPulse.html#ae4c83e1199ea7a74791c9d0fe80a54f5" target="_top" xlink:title="Pulse::GetLength">
<polygon fill="#ffffff" stroke="#000000" points="236.5,-152.5 236.5,-171.5 335.5,-171.5 335.5,-152.5 236.5,-152.5"/>
<text text-anchor="middle" x="286" y="-159.5" font-family="Helvetica,sans-Serif" font-size="10.00" fill="#000000">Pulse::GetLength</text>
</a>
</g>
</g>
<!-- Node42&#45;&gt;Node55 -->
<g id="edge15" class="edge">
<title>Node42&#45;&gt;Node55</title>
<path fill="none" stroke="#191970" d="M84.3633,-323.2583C97.1473,-295.9182 137.3475,-218.0581 196,-181 205.1993,-175.1877 215.8777,-171.1234 226.5962,-168.2884"/>
<polygon fill="#191970" stroke="#191970" points="227.4572,-171.6817 236.4096,-166.0155 225.8777,-164.8622 227.4572,-171.6817"/>
</g>
<!-- Node56 -->
<g id="node15" class="node">
<title>Node56</title>
<g id="a_node15"><a xlink:href="classFweelin.html#acb51892233f08f4b0b9f2e7d7a625448" target="_top" xlink:title="Fweelin::getAUDIO">
<polygon fill="#ffffff" stroke="#000000" points="232,-114.5 232,-133.5 340,-133.5 340,-114.5 232,-114.5"/>
<text text-anchor="middle" x="286" y="-121.5" font-family="Helvetica,sans-Serif" font-size="10.00" fill="#000000">Fweelin::getAUDIO</text>
</a>
</g>
</g>
<!-- Node42&#45;&gt;Node56 -->
<g id="edge16" class="edge">
<title>Node42&#45;&gt;Node56</title>
<path fill="none" stroke="#191970" d="M82.889,-323.1909C92.7803,-291.436 128.465,-190.7428 196,-143 203.7425,-137.5266 212.7349,-133.57 221.9809,-130.7211"/>
<polygon fill="#191970" stroke="#191970" points="222.9071,-134.0965 231.6663,-128.1361 221.1019,-127.3333 222.9071,-134.0965"/>
</g>
<!-- Node57 -->
<g id="node16" class="node">
<title>Node57</title>
<g id="a_node16"><a xlink:href="classAudioIO.html#ab175bb73ae9aadb84940dace46c71fd8" target="_top" xlink:title="AudioIO::get_srate">
<polygon fill="#ffffff" stroke="#000000" points="232.5,-76.5 232.5,-95.5 339.5,-95.5 339.5,-76.5 232.5,-76.5"/>
<text text-anchor="middle" x="286" y="-83.5" font-family="Helvetica,sans-Serif" font-size="10.00" fill="#000000">AudioIO::get_srate</text>
</a>
</g>
</g>
<!-- Node42&#45;&gt;Node57 -->
<g id="edge17" class="edge">
<title>Node42&#45;&gt;Node57</title>
<path fill="none" stroke="#191970" d="M81.8301,-323.3143C89.0715,-287.8247 119.1661,-163.9089 196,-105 203.7128,-99.0866 212.845,-94.9109 222.2857,-91.981"/>
<polygon fill="#191970" stroke="#191970" points="223.4184,-95.3018 232.189,-89.3581 221.6262,-88.5351 223.4184,-95.3018"/>
</g>
<!-- Node58 -->
<g id="node17" class="node">
<title>Node58</title>
<g id="a_node17"><a xlink:href="classSaveable.html#adc2366ae4f62d203d464879f189e499d" target="_top" xlink:title="Saveable::GetSaveStatus">
<polygon fill="#ffffff" stroke="#000000" points="216,-38.5 216,-57.5 356,-57.5 356,-38.5 216,-38.5"/>
<text text-anchor="middle" x="286" y="-45.5" font-family="Helvetica,sans-Serif" font-size="10.00" fill="#000000">Saveable::GetSaveStatus</text>
</a>
</g>
</g>
<!-- Node42&#45;&gt;Node58 -->
<g id="edge23" class="edge">
<title>Node42&#45;&gt;Node58</title>
<path fill="none" stroke="#191970" d="M81.0721,-323.3877C85.9505,-284.4714 109.6915,-137.3403 196,-67 199.1818,-64.4069 202.6319,-62.1429 206.2644,-60.1682"/>
<polygon fill="#191970" stroke="#191970" points="208.019,-63.2128 215.6206,-55.8326 205.0758,-56.8615 208.019,-63.2128"/>
</g>
<!-- Node59 -->
<g id="node18" class="node">
<title>Node59</title>
<g id="a_node18"><a xlink:href="classLibraryHelper.html#ad03d914ba92415c02d7582d112e0fa6a" target="_top" xlink:title="LibraryHelper::GetStubname\lFromLoop">
<polygon fill="#ffffff" stroke="#000000" points="208.5,-633 208.5,-663 363.5,-663 363.5,-633 208.5,-633"/>
<text text-anchor="start" x="216.5" y="-651" font-family="Helvetica,sans-Serif" font-size="10.00" fill="#000000">LibraryHelper::GetStubname</text>
<text text-anchor="middle" x="286" y="-640" font-family="Helvetica,sans-Serif" font-size="10.00" fill="#000000">FromLoop</text>
</a>
</g>
</g>
<!-- Node42&#45;&gt;Node59 -->
<g id="edge24" class="edge">
<title>Node42&#45;&gt;Node59</title>
<path fill="none" stroke="#191970" d="M81.0484,-342.7245C85.8887,-382.831 109.6643,-537.0843 196,-618 200.0558,-621.8012 204.6065,-625.1216 209.4511,-628.0218"/>
<polygon fill="#191970" stroke="#191970" points="207.9723,-631.1994 218.4453,-632.8016 211.2573,-625.0181 207.9723,-631.1994"/>
</g>
<!-- Node62 -->
<g id="node21" class="node">
<title>Node62</title>
<g id="a_node21"><a xlink:href="classLibraryHelper.html#ac597cbdafca97cae600e77348ec5ac79" target="_top" xlink:title="LibraryHelper::GetLoopFilename\lFromStub">
<polygon fill="#ffffff" stroke="#000000" points="199.5,-545 199.5,-575 372.5,-575 372.5,-545 199.5,-545"/>
<text text-anchor="start" x="207.5" y="-563" font-family="Helvetica,sans-Serif" font-size="10.00" fill="#000000">LibraryHelper::GetLoopFilename</text>
<text text-anchor="middle" x="286" y="-552" font-family="Helvetica,sans-Serif" font-size="10.00" fill="#000000">FromStub</text>
</a>
</g>
</g>
<!-- Node42&#45;&gt;Node62 -->
<g id="edge28" class="edge">
<title>Node42&#45;&gt;Node62</title>
<path fill="none" stroke="#191970" d="M83.0102,-342.8541C93.2726,-374.8095 129.9655,-476.5797 196,-530 200.9579,-534.0108 206.4748,-537.4946 212.2682,-540.5191"/>
<polygon fill="#191970" stroke="#191970" points="211.0219,-543.8011 221.5592,-544.9035 214.0093,-537.4705 211.0219,-543.8011"/>
</g>
<!-- Node64 -->
<g id="node23" class="node">
<title>Node64</title>
<g id="a_node23"><a xlink:href="classAudioIO.html#a1bef309084b0324f171b957b1caed224" target="_top" xlink:title="AudioIO::getbufsz">
<polygon fill="#ffffff" stroke="#000000" points="234.5,-.5 234.5,-19.5 337.5,-19.5 337.5,-.5 234.5,-.5"/>
<text text-anchor="middle" x="286" y="-7.5" font-family="Helvetica,sans-Serif" font-size="10.00" fill="#000000">AudioIO::getbufsz</text>
</a>
</g>
</g>
<!-- Node42&#45;&gt;Node64 -->
<g id="edge31" class="edge">
<title>Node42&#45;&gt;Node64</title>
<path fill="none" stroke="#191970" d="M80.5118,-323.2276C83.2894,-280.7762 100.2353,-110.8413 196,-29 204.0959,-22.0812 214.0812,-17.4777 224.4221,-14.4528"/>
<polygon fill="#191970" stroke="#191970" points="225.5141,-17.789 234.3956,-12.0123 223.8502,-10.9896 225.5141,-17.789"/>
</g>
<!-- Node65 -->
<g id="node24" class="node">
<title>Node65</title>
<g id="a_node24"><a xlink:href="classLoopManager.html#ada4d7a3e7f2d1a07b295aae79c1c5489" target="_top" xlink:title="LoopManager::GetRoundedLength">
<polygon fill="#ffffff" stroke="#000000" points="196,-266.5 196,-285.5 376,-285.5 376,-266.5 196,-266.5"/>
<text text-anchor="middle" x="286" y="-273.5" font-family="Helvetica,sans-Serif" font-size="10.00" fill="#000000">LoopManager::GetRoundedLength</text>
</a>
</g>
</g>
<!-- Node42&#45;&gt;Node65 -->
<g id="edge32" class="edge">
<title>Node42&#45;&gt;Node65</title>
<path fill="none" stroke="#191970" d="M112.9598,-323.4665C136.1547,-316.796 167.942,-307.7315 196,-300 210.1759,-296.0938 225.6361,-291.9346 239.6797,-288.1949"/>
<polygon fill="#191970" stroke="#191970" points="240.8502,-291.5055 249.6167,-285.5557 239.0533,-284.74 240.8502,-291.5055"/>
</g>
<!-- Node45&#45;&gt;Node44 -->
<g id="edge6" class="edge">
<title>Node45&#45;&gt;Node44</title>
<path fill="none" stroke="#191970" d="M314.4296,-449.0216C339.5853,-461.8965 377.5449,-480.3186 412,-493 419.4569,-495.7446 427.464,-498.3085 435.3454,-500.6239"/>
<polygon fill="#191970" stroke="#191970" points="434.6348,-504.0603 445.2102,-503.4187 436.543,-497.3253 434.6348,-504.0603"/>
</g>
<!-- Node45&#45;&gt;Node46 -->
<g id="edge4" class="edge">
<title>Node45&#45;&gt;Node46</title>
<path fill="none" stroke="#191970" d="M299.542,-449.0994C317.2629,-468.9149 349.2147,-504.8372 376,-536 392.2467,-554.9018 391.1959,-565.2732 412,-579 417.2204,-582.4445 423.0005,-585.3669 428.9559,-587.8427"/>
<polygon fill="#191970" stroke="#191970" points="427.8111,-591.1512 438.4036,-591.3763 430.2634,-584.5948 427.8111,-591.1512"/>
</g>
<!-- Node45&#45;&gt;Node47 -->
<g id="edge5" class="edge">
<title>Node45&#45;&gt;Node47</title>
<path fill="none" stroke="#191970" d="M360.6664,-449.0083C382.8445,-453.4662 406.7811,-458.2776 427.6736,-462.4771"/>
<polygon fill="#191970" stroke="#191970" points="427.1707,-465.9459 437.6643,-464.4853 428.5502,-459.0832 427.1707,-465.9459"/>
</g>
<!-- Node45&#45;&gt;Node48 -->
<g id="edge7" class="edge">
<title>Node45&#45;&gt;Node48</title>
<path fill="none" stroke="#191970" d="M358.9703,-418.9659C381.9529,-414.2308 406.9728,-409.076 428.6176,-404.6165"/>
<polygon fill="#191970" stroke="#191970" points="429.5379,-408.0005 438.6259,-402.5545 428.1253,-401.1445 429.5379,-408.0005"/>
</g>
<!-- Node45&#45;&gt;Node49 -->
<g id="edge8" class="edge">
<title>Node45&#45;&gt;Node49</title>
<path fill="none" stroke="#191970" d="M314.4795,-418.9079C339.6673,-405.9327 377.6458,-387.2681 412,-374 420.7958,-370.6029 430.3489,-367.393 439.5567,-364.529"/>
<polygon fill="#191970" stroke="#191970" points="440.8015,-367.8092 449.3605,-361.5646 438.7755,-361.1088 440.8015,-367.8092"/>
</g>
<!-- Node45&#45;&gt;Node50 -->
<g id="edge9" class="edge">
<title>Node45&#45;&gt;Node50</title>
<path fill="none" stroke="#191970" d="M300.4294,-418.9339C322.4398,-396.8265 366.6477,-355.7623 412,-333 416.636,-330.6732 421.585,-328.6115 426.6392,-326.7887"/>
<polygon fill="#191970" stroke="#191970" points="428.0257,-330.0173 436.4336,-323.5708 425.8407,-323.3671 428.0257,-330.0173"/>
</g>
<!-- Node51 -->
<g id="node10" class="node">
<title>Node51</title>
<g id="a_node10"><a xlink:href="fweelin__core__dsp_8cc.html#abc995860348321dce04aba6aea4adbb4" target="_top" xlink:title="math_lcm">
<polygon fill="#ffffff" stroke="#000000" points="452.5,-424.5 452.5,-443.5 517.5,-443.5 517.5,-424.5 452.5,-424.5"/>
<text text-anchor="middle" x="485" y="-431.5" font-family="Helvetica,sans-Serif" font-size="10.00" fill="#000000">math_lcm</text>
</a>
</g>
</g>
<!-- Node45&#45;&gt;Node51 -->
<g id="edge10" class="edge">
<title>Node45&#45;&gt;Node51</title>
<path fill="none" stroke="#191970" d="M364.6501,-434C391.0043,-434 419.4018,-434 441.9903,-434"/>
<polygon fill="#191970" stroke="#191970" points="442.2542,-437.5001 452.2542,-434 442.2541,-430.5001 442.2542,-437.5001"/>
</g>
<!-- Node52 -->
<g id="node11" class="node">
<title>Node52</title>
<g id="a_node11"><a xlink:href="fweelin__core__dsp_8cc.html#a69d68c70844804445ba3e106f23c76a4" target="_top" xlink:title="math_gcd">
<polygon fill="#ffffff" stroke="#000000" points="600,-424.5 600,-443.5 665,-443.5 665,-424.5 600,-424.5"/>
<text text-anchor="middle" x="632.5" y="-431.5" font-family="Helvetica,sans-Serif" font-size="10.00" fill="#000000">math_gcd</text>
</a>
</g>
</g>
<!-- Node51&#45;&gt;Node52 -->
<g id="edge11" class="edge">
<title>Node51&#45;&gt;Node52</title>
<path fill="none" stroke="#191970" d="M517.735,-434C538.9319,-434 566.7568,-434 589.6999,-434"/>
<polygon fill="#191970" stroke="#191970" points="589.8565,-437.5001 599.8565,-434 589.8564,-430.5001 589.8565,-437.5001"/>
</g>
<!-- Node52&#45;&gt;Node52 -->
<g id="edge12" class="edge">
<title>Node52&#45;&gt;Node52</title>
<path fill="none" stroke="#191970" d="M609.9972,-443.7571C599.0498,-452.5653 606.5508,-462 632.5,-462 649.5292,-462 658.6133,-457.9368 659.7525,-452.6539"/>
<polygon fill="#191970" stroke="#191970" points="662.7999,-450.9303 655.0028,-443.7571 656.6248,-454.227 662.7999,-450.9303"/>
</g>
<!-- Node59&#45;&gt;Node46 -->
<g id="edge26" class="edge">
<title>Node59&#45;&gt;Node46</title>
<path fill="none" stroke="#191970" d="M349.512,-632.9997C377.0264,-626.5013 408.7841,-619.0007 434.6343,-612.8954"/>
<polygon fill="#191970" stroke="#191970" points="435.6649,-616.2484 444.5926,-610.5434 434.0559,-609.4358 435.6649,-616.2484"/>
</g>
<!-- Node60 -->
<g id="node19" class="node">
<title>Node60</title>
<g id="a_node19"><a xlink:href="classSaveable.html#aa0fb624a251c8ec60d9e410aa1ffe2dd" target="_top" xlink:title="Saveable::GetSaveHash">
<polygon fill="#ffffff" stroke="#000000" points="418,-671.5 418,-690.5 552,-690.5 552,-671.5 418,-671.5"/>
<text text-anchor="middle" x="485" y="-678.5" font-family="Helvetica,sans-Serif" font-size="10.00" fill="#000000">Saveable::GetSaveHash</text>
</a>
</g>
</g>
<!-- Node59&#45;&gt;Node60 -->
<g id="edge25" class="edge">
<title>Node59&#45;&gt;Node60</title>
<path fill="none" stroke="#191970" d="M363.5084,-660.8532C381.2979,-663.8032 400.0746,-666.9169 417.4067,-669.7911"/>
<polygon fill="#191970" stroke="#191970" points="416.9885,-673.2694 427.4263,-671.4526 418.1337,-666.3637 416.9885,-673.2694"/>
</g>
<!-- Node61 -->
<g id="node20" class="node">
<title>Node61</title>
<g id="a_node20"><a xlink:href="classFloConfig.html#a9acc5e0790ab29fe30856d58c5ffa0e8" target="_top" xlink:title="FloConfig::GetLibraryPath">
<polygon fill="#ffffff" stroke="#000000" points="415,-633.5 415,-652.5 555,-652.5 555,-633.5 415,-633.5"/>
<text text-anchor="middle" x="485" y="-640.5" font-family="Helvetica,sans-Serif" font-size="10.00" fill="#000000">FloConfig::GetLibraryPath</text>
</a>
</g>
</g>
<!-- Node59&#45;&gt;Node61 -->
<g id="edge27" class="edge">
<title>Node59&#45;&gt;Node61</title>
<path fill="none" stroke="#191970" d="M363.5084,-646.0526C376.988,-645.7139 391.0344,-645.3609 404.5897,-645.0204"/>
<polygon fill="#191970" stroke="#191970" points="404.9333,-648.5129 414.8422,-644.7628 404.7574,-641.5151 404.9333,-648.5129"/>
</g>
<!-- Node62&#45;&gt;Node46 -->
<g id="edge29" class="edge">
<title>Node62&#45;&gt;Node46</title>
<path fill="none" stroke="#191970" d="M358.9703,-575.0341C381.9529,-579.7692 406.9728,-584.924 428.6176,-589.3835"/>
<polygon fill="#191970" stroke="#191970" points="428.1253,-592.8555 438.6259,-591.4455 429.5379,-585.9995 428.1253,-592.8555"/>
</g>
<!-- Node63 -->
<g id="node22" class="node">
<title>Node63</title>
<g id="a_node22"><a xlink:href="classFloConfig.html#a093cc61cbfbab35ca8ab89dc113922dc" target="_top" xlink:title="FloConfig::GetAudioFileExt">
<polygon fill="#ffffff" stroke="#000000" points="412.5,-550.5 412.5,-569.5 557.5,-569.5 557.5,-550.5 412.5,-550.5"/>
<text text-anchor="middle" x="485" y="-557.5" font-family="Helvetica,sans-Serif" font-size="10.00" fill="#000000">FloConfig::GetAudioFileExt</text>
</a>
</g>
</g>
<!-- Node62&#45;&gt;Node63 -->
<g id="edge30" class="edge">
<title>Node62&#45;&gt;Node63</title>
<path fill="none" stroke="#191970" d="M372.7054,-560C382.5001,-560 392.4631,-560 402.206,-560"/>
<polygon fill="#191970" stroke="#191970" points="402.2633,-563.5001 412.2633,-560 402.2632,-556.5001 402.2633,-563.5001"/>
</g>
<!-- Node65&#45;&gt;Node49 -->
<g id="edge33" class="edge">
<title>Node65&#45;&gt;Node49</title>
<path fill="none" stroke="#191970" d="M304.3773,-285.5132C328.558,-297.7492 372.6116,-319.0789 412,-333 418.8759,-335.4302 426.2147,-337.7021 433.4896,-339.7697"/>
<polygon fill="#191970" stroke="#191970" points="432.7518,-343.1964 443.3209,-342.4582 434.5983,-336.4443 432.7518,-343.1964"/>
</g>
<!-- Node65&#45;&gt;Node50 -->
<g id="edge34" class="edge">
<title>Node65&#45;&gt;Node50</title>
<path fill="none" stroke="#191970" d="M335.9592,-285.54C363.0454,-290.7122 396.7075,-297.1401 425.1835,-302.5778"/>
<polygon fill="#191970" stroke="#191970" points="424.5412,-306.0183 435.0202,-304.4561 425.8542,-299.1425 424.5412,-306.0183"/>
</g>
<!-- Node66 -->
<g id="node25" class="node">
<title>Node66</title>
<g id="a_node25"><a xlink:href="classPulse.html#ac23f657cca68747e251b1b927a11ba0f" target="_top" xlink:title="Pulse::QuantizeLength">
<polygon fill="#ffffff" stroke="#000000" points="422.5,-228.5 422.5,-247.5 547.5,-247.5 547.5,-228.5 422.5,-228.5"/>
<text text-anchor="middle" x="485" y="-235.5" font-family="Helvetica,sans-Serif" font-size="10.00" fill="#000000">Pulse::QuantizeLength</text>
</a>
</g>
</g>
<!-- Node65&#45;&gt;Node66 -->
<g id="edge35" class="edge">
<title>Node65&#45;&gt;Node66</title>
<path fill="none" stroke="#191970" d="M335.9592,-266.46C363.0454,-261.2878 396.7075,-254.8599 425.1835,-249.4222"/>
<polygon fill="#191970" stroke="#191970" points="425.8542,-252.8575 435.0202,-247.5439 424.5412,-245.9817 425.8542,-252.8575"/>
</g>
<!-- Node68 -->
<g id="node27" class="node">
<title>Node68</title>
<g id="a_node27"><a xlink:href="classAudioBlock.html#a380880c91c3af2322d232ce2de83b881" target="_top" xlink:title="AudioBlock::GetTotalLen">
<polygon fill="#ffffff" stroke="#000000" points="417.5,-266.5 417.5,-285.5 552.5,-285.5 552.5,-266.5 417.5,-266.5"/>
<text text-anchor="middle" x="485" y="-273.5" font-family="Helvetica,sans-Serif" font-size="10.00" fill="#000000">AudioBlock::GetTotalLen</text>
</a>
</g>
</g>
<!-- Node65&#45;&gt;Node68 -->
<g id="edge37" class="edge">
<title>Node65&#45;&gt;Node68</title>
<path fill="none" stroke="#191970" d="M376.184,-276C386.5963,-276 397.1459,-276 407.3713,-276"/>
<polygon fill="#191970" stroke="#191970" points="407.4715,-279.5001 417.4715,-276 407.4715,-272.5001 407.4715,-279.5001"/>
</g>
<!-- Node67 -->
<g id="node26" class="node">
<title>Node67</title>
<g id="a_node26"><a xlink:href="classPulse.html#a7df09d55ecd7193d5491170e6888350a" target="_top" xlink:title="Pulse::round">
<polygon fill="#ffffff" stroke="#000000" points="594,-228.5 594,-247.5 671,-247.5 671,-228.5 594,-228.5"/>
<text text-anchor="middle" x="632.5" y="-235.5" font-family="Helvetica,sans-Serif" font-size="10.00" fill="#000000">Pulse::round</text>
</a>
</g>
</g>
<!-- Node66&#45;&gt;Node67 -->
<g id="edge36" class="edge">
<title>Node66&#45;&gt;Node67</title>
<path fill="none" stroke="#191970" d="M547.5533,-238C559.5763,-238 572.0058,-238 583.5233,-238"/>
<polygon fill="#191970" stroke="#191970" points="583.8064,-241.5001 593.8063,-238 583.8063,-234.5001 583.8064,-241.5001"/>
</g>
</g>
</svg>
