<?xml version="1.0" encoding="UTF-8" standalone="no"?>
<!DOCTYPE svg PUBLIC "-//W3C//DTD SVG 1.1//EN"
 "http://www.w3.org/Graphics/SVG/1.1/DTD/svg11.dtd">
<!-- Generated by graphviz version 2.40.1 (20161225.0304)
 -->
<!-- Title: LoopTray::MouseButton Pages: 1 -->
<svg width="554pt" height="123pt"
 viewBox="0.00 0.00 554.00 123.00" xmlns="http://www.w3.org/2000/svg" xmlns:xlink="http://www.w3.org/1999/xlink">
<g id="graph0" class="graph" transform="scale(1 1) rotate(0) translate(4 119)">
<title>LoopTray::MouseButton</title>
<polygon fill="#ffffff" stroke="transparent" points="-4,4 -4,-119 550,-119 550,4 -4,4"/>
<!-- Node49 -->
<g id="node1" class="node">
<title>Node49</title>
<polygon fill="#bfbfbf" stroke="#000000" points="0,-57.5 0,-76.5 129,-76.5 129,-57.5 0,-57.5"/>
<text text-anchor="middle" x="64.5" y="-64.5" font-family="Helvetica,sans-Serif" font-size="10.00" fill="#000000">LoopTray::MouseButton</text>
</g>
<!-- Node50 -->
<g id="node2" class="node">
<title>Node50</title>
<g id="a_node2"><a xlink:href="classEvent.html#aa67af0ae99b897e4f0ce42068c4e4c00" target="_top" xlink:title="Event::GetEventByType">
<polygon fill="#ffffff" stroke="#000000" points="184,-95.5 184,-114.5 315,-114.5 315,-95.5 184,-95.5"/>
<text text-anchor="middle" x="249.5" y="-102.5" font-family="Helvetica,sans-Serif" font-size="10.00" fill="#000000">Event::GetEventByType</text>
</a>
</g>
</g>
<!-- Node49&#45;&gt;Node50 -->
<g id="edge1" class="edge">
<title>Node49&#45;&gt;Node50</title>
<path fill="none" stroke="#191970" d="M111.1833,-76.589C136.1459,-81.7165 167.0642,-88.0672 193.334,-93.4632"/>
<polygon fill="#191970" stroke="#191970" points="192.6526,-96.8962 203.1524,-95.4799 194.0611,-90.0394 192.6526,-96.8962"/>
</g>
<!-- Node51 -->
<g id="node3" class="node">
<title>Node51</title>
<g id="a_node3"><a xlink:href="classFweelin.html#a21e51d7b639faaecc415624ab6c16a71" target="_top" xlink:title="Fweelin::getEMG">
<polygon fill="#ffffff" stroke="#000000" points="200.5,-57.5 200.5,-76.5 298.5,-76.5 298.5,-57.5 200.5,-57.5"/>
<text text-anchor="middle" x="249.5" y="-64.5" font-family="Helvetica,sans-Serif" font-size="10.00" fill="#000000">Fweelin::getEMG</text>
</a>
</g>
</g>
<!-- Node49&#45;&gt;Node51 -->
<g id="edge2" class="edge">
<title>Node49&#45;&gt;Node51</title>
<path fill="none" stroke="#191970" d="M129.204,-67C148.9883,-67 170.6429,-67 190.0596,-67"/>
<polygon fill="#191970" stroke="#191970" points="190.2878,-70.5001 200.2878,-67 190.2878,-63.5001 190.2878,-70.5001"/>
</g>
<!-- Node52 -->
<g id="node4" class="node">
<title>Node52</title>
<g id="a_node4"><a xlink:href="classEventManager.html#ac7c4b4ceee333a360274d73d166b8c69" target="_top" xlink:title="EventManager::BroadcastEvent">
<polygon fill="#ffffff" stroke="#000000" points="165,-19.5 165,-38.5 334,-38.5 334,-19.5 165,-19.5"/>
<text text-anchor="middle" x="249.5" y="-26.5" font-family="Helvetica,sans-Serif" font-size="10.00" fill="#000000">EventManager::BroadcastEvent</text>
</a>
</g>
</g>
<!-- Node49&#45;&gt;Node52 -->
<g id="edge3" class="edge">
<title>Node49&#45;&gt;Node52</title>
<path fill="none" stroke="#191970" d="M111.1833,-57.411C136.1459,-52.2835 167.0642,-45.9328 193.334,-40.5368"/>
<polygon fill="#191970" stroke="#191970" points="194.0611,-43.9606 203.1524,-38.5201 192.6526,-37.1038 194.0611,-43.9606"/>
</g>
<!-- Node53 -->
<g id="node5" class="node">
<title>Node53</title>
<g id="a_node5"><a xlink:href="classSRMWRingBuffer.html#a47699ccc0600c38559c8e10f0ca9bf3c" target="_top" xlink:title="SRMWRingBuffer::WriteElement">
<polygon fill="#ffffff" stroke="#000000" points="373,-38.5 373,-57.5 543,-57.5 543,-38.5 373,-38.5"/>
<text text-anchor="middle" x="458" y="-45.5" font-family="Helvetica,sans-Serif" font-size="10.00" fill="#000000">SRMWRingBuffer::WriteElement</text>
</a>
</g>
</g>
<!-- Node52&#45;&gt;Node53 -->
<g id="edge4" class="edge">
<title>Node52&#45;&gt;Node53</title>
<path fill="none" stroke="#191970" d="M334.0044,-36.7006C343.3718,-37.5543 352.96,-38.428 362.4514,-39.2929"/>
<polygon fill="#191970" stroke="#191970" points="362.4211,-42.8046 372.6975,-40.2266 363.0564,-35.8335 362.4211,-42.8046"/>
</g>
<!-- Node54 -->
<g id="node6" class="node">
<title>Node54</title>
<g id="a_node6"><a xlink:href="classEventManager.html#a529567a1f3b56ecbc97aceec5ee0b46e" target="_top" xlink:title="EventManager::WakeupIfNeeded">
<polygon fill="#ffffff" stroke="#000000" points="370,-.5 370,-19.5 546,-19.5 546,-.5 370,-.5"/>
<text text-anchor="middle" x="458" y="-7.5" font-family="Helvetica,sans-Serif" font-size="10.00" fill="#000000">EventManager::WakeupIfNeeded</text>
</a>
</g>
</g>
<!-- Node52&#45;&gt;Node54 -->
<g id="edge5" class="edge">
<title>Node52&#45;&gt;Node54</title>
<path fill="none" stroke="#191970" d="M334.0044,-21.2994C342.5234,-20.523 351.2251,-19.7301 359.8705,-18.9423"/>
<polygon fill="#191970" stroke="#191970" points="360.3381,-22.4142 369.9792,-18.0211 359.7028,-15.4431 360.3381,-22.4142"/>
</g>
</g>
</svg>
