<?xml version="1.0" encoding="UTF-8" standalone="no"?>
<!DOCTYPE svg PUBLIC "-//W3C//DTD SVG 1.1//EN"
 "http://www.w3.org/Graphics/SVG/1.1/DTD/svg11.dtd">
<!-- Generated by graphviz version 2.40.1 (20161225.0304)
 -->
<!-- Title: BrowserItem Pages: 1 -->
<svg width="643pt" height="391pt"
 viewBox="0.00 0.00 642.50 391.00" xmlns="http://www.w3.org/2000/svg" xmlns:xlink="http://www.w3.org/1999/xlink">
<g id="graph0" class="graph" transform="scale(1 1) rotate(0) translate(4 387)">
<title>BrowserItem</title>
<polygon fill="#ffffff" stroke="transparent" points="-4,4 -4,-387 638.5,-387 638.5,4 -4,4"/>
<!-- Node0 -->
<g id="node1" class="node">
<title>Node0</title>
<polygon fill="#bfbfbf" stroke="#000000" points="259,-248.5 259,-382.5 365,-382.5 365,-248.5 259,-248.5"/>
<text text-anchor="middle" x="312" y="-370.5" font-family="Helvetica,sans-Serif" font-size="10.00" fill="#000000">BrowserItem</text>
<polyline fill="none" stroke="#000000" points="259,-363.5 365,-363.5 "/>
<text text-anchor="start" x="267" y="-351.5" font-family="Helvetica,sans-Serif" font-size="10.00" fill="#000000">+ default_name</text>
<text text-anchor="start" x="267" y="-340.5" font-family="Helvetica,sans-Serif" font-size="10.00" fill="#000000">+ name</text>
<text text-anchor="start" x="267" y="-329.5" font-family="Helvetica,sans-Serif" font-size="10.00" fill="#000000">+ next</text>
<text text-anchor="start" x="267" y="-318.5" font-family="Helvetica,sans-Serif" font-size="10.00" fill="#000000">+ prev</text>
<polyline fill="none" stroke="#000000" points="259,-311.5 365,-311.5 "/>
<text text-anchor="start" x="267" y="-299.5" font-family="Helvetica,sans-Serif" font-size="10.00" fill="#000000">+ BrowserItem()</text>
<text text-anchor="start" x="267" y="-288.5" font-family="Helvetica,sans-Serif" font-size="10.00" fill="#000000">+ ~BrowserItem()</text>
<text text-anchor="start" x="267" y="-277.5" font-family="Helvetica,sans-Serif" font-size="10.00" fill="#000000">+ GetType()</text>
<text text-anchor="start" x="267" y="-266.5" font-family="Helvetica,sans-Serif" font-size="10.00" fill="#000000">+ Compare()</text>
<text text-anchor="start" x="267" y="-255.5" font-family="Helvetica,sans-Serif" font-size="10.00" fill="#000000">+ MatchItem()</text>
</g>
<!-- Node1 -->
<g id="node2" class="node">
<title>Node1</title>
<g id="a_node2"><a xlink:href="classBrowserDivision.html" target="_top" xlink:title="{BrowserDivision\n||+ GetType()\l}">
<polygon fill="#ffffff" stroke="#000000" points="0,-77.5 0,-134.5 96,-134.5 96,-77.5 0,-77.5"/>
<text text-anchor="middle" x="48" y="-122.5" font-family="Helvetica,sans-Serif" font-size="10.00" fill="#000000">BrowserDivision</text>
<polyline fill="none" stroke="#000000" points="0,-115.5 96,-115.5 "/>
<text text-anchor="middle" x="48" y="-103.5" font-family="Helvetica,sans-Serif" font-size="10.00" fill="#000000"> </text>
<polyline fill="none" stroke="#000000" points="0,-96.5 96,-96.5 "/>
<text text-anchor="start" x="8" y="-84.5" font-family="Helvetica,sans-Serif" font-size="10.00" fill="#000000">+ GetType()</text>
</a>
</g>
</g>
<!-- Node0&#45;&gt;Node1 -->
<g id="edge1" class="edge">
<title>Node0&#45;&gt;Node1</title>
<path fill="none" stroke="#191970" d="M249.3992,-295.7105C204.8251,-279.0864 145.8264,-251.6303 105,-212 82.6607,-190.3152 67.0164,-157.9643 57.8414,-134.7092"/>
<polygon fill="none" stroke="#191970" points="248.3713,-299.061 258.9653,-299.1955 250.7674,-292.4839 248.3713,-299.061"/>
</g>
<!-- Node2 -->
<g id="node3" class="node">
<title>Node2</title>
<g id="a_node3"><a xlink:href="classLoopBrowserItem.html" target="_top" xlink:title="{LoopBrowserItem\n|+ time\l+ filename\l|+ LoopBrowserItem()\l+ ~LoopBrowserItem()\l+ Compare()\l+ GetType()\l}">
<polygon fill="#ffffff" stroke="#000000" points="114.5,-55.5 114.5,-156.5 243.5,-156.5 243.5,-55.5 114.5,-55.5"/>
<text text-anchor="middle" x="179" y="-144.5" font-family="Helvetica,sans-Serif" font-size="10.00" fill="#000000">LoopBrowserItem</text>
<polyline fill="none" stroke="#000000" points="114.5,-137.5 243.5,-137.5 "/>
<text text-anchor="start" x="122.5" y="-125.5" font-family="Helvetica,sans-Serif" font-size="10.00" fill="#000000">+ time</text>
<text text-anchor="start" x="122.5" y="-114.5" font-family="Helvetica,sans-Serif" font-size="10.00" fill="#000000">+ filename</text>
<polyline fill="none" stroke="#000000" points="114.5,-107.5 243.5,-107.5 "/>
<text text-anchor="start" x="122.5" y="-95.5" font-family="Helvetica,sans-Serif" font-size="10.00" fill="#000000">+ LoopBrowserItem()</text>
<text text-anchor="start" x="122.5" y="-84.5" font-family="Helvetica,sans-Serif" font-size="10.00" fill="#000000">+ ~LoopBrowserItem()</text>
<text text-anchor="start" x="122.5" y="-73.5" font-family="Helvetica,sans-Serif" font-size="10.00" fill="#000000">+ Compare()</text>
<text text-anchor="start" x="122.5" y="-62.5" font-family="Helvetica,sans-Serif" font-size="10.00" fill="#000000">+ GetType()</text>
</a>
</g>
</g>
<!-- Node0&#45;&gt;Node2 -->
<g id="edge2" class="edge">
<title>Node0&#45;&gt;Node2</title>
<path fill="none" stroke="#191970" d="M263.9759,-239.853C246.3841,-212.1426 226.9187,-181.4809 211.0615,-156.5028"/>
<polygon fill="none" stroke="#191970" points="261.0547,-241.7819 269.3692,-248.3484 266.9644,-238.0301 261.0547,-241.7819"/>
</g>
<!-- Node3 -->
<g id="node4" class="node">
<title>Node3</title>
<g id="a_node4"><a xlink:href="classLoopTrayItem.html" target="_top" xlink:title="{LoopTrayItem\n|+ l\l+ loopid\l+ xpos\l+ ypos\l+ placename\l|+ LoopTrayItem()\l+ Compare()\l+ MatchItem()\l+ GetType()\l}">
<polygon fill="#ffffff" stroke="#000000" points="261.5,-39 261.5,-173 362.5,-173 362.5,-39 261.5,-39"/>
<text text-anchor="middle" x="312" y="-161" font-family="Helvetica,sans-Serif" font-size="10.00" fill="#000000">LoopTrayItem</text>
<polyline fill="none" stroke="#000000" points="261.5,-154 362.5,-154 "/>
<text text-anchor="start" x="269.5" y="-142" font-family="Helvetica,sans-Serif" font-size="10.00" fill="#000000">+ l</text>
<text text-anchor="start" x="269.5" y="-131" font-family="Helvetica,sans-Serif" font-size="10.00" fill="#000000">+ loopid</text>
<text text-anchor="start" x="269.5" y="-120" font-family="Helvetica,sans-Serif" font-size="10.00" fill="#000000">+ xpos</text>
<text text-anchor="start" x="269.5" y="-109" font-family="Helvetica,sans-Serif" font-size="10.00" fill="#000000">+ ypos</text>
<text text-anchor="start" x="269.5" y="-98" font-family="Helvetica,sans-Serif" font-size="10.00" fill="#000000">+ placename</text>
<polyline fill="none" stroke="#000000" points="261.5,-91 362.5,-91 "/>
<text text-anchor="start" x="269.5" y="-79" font-family="Helvetica,sans-Serif" font-size="10.00" fill="#000000">+ LoopTrayItem()</text>
<text text-anchor="start" x="269.5" y="-68" font-family="Helvetica,sans-Serif" font-size="10.00" fill="#000000">+ Compare()</text>
<text text-anchor="start" x="269.5" y="-57" font-family="Helvetica,sans-Serif" font-size="10.00" fill="#000000">+ MatchItem()</text>
<text text-anchor="start" x="269.5" y="-46" font-family="Helvetica,sans-Serif" font-size="10.00" fill="#000000">+ GetType()</text>
</a>
</g>
</g>
<!-- Node0&#45;&gt;Node3 -->
<g id="edge3" class="edge">
<title>Node0&#45;&gt;Node3</title>
<path fill="none" stroke="#191970" d="M312,-238.3261C312,-216.9371 312,-193.8966 312,-173.1307"/>
<polygon fill="none" stroke="#191970" points="308.5001,-238.3484 312,-248.3484 315.5001,-238.3485 308.5001,-238.3484"/>
</g>
<!-- Node4 -->
<g id="node5" class="node">
<title>Node4</title>
<g id="a_node5"><a xlink:href="classPatchItem.html" target="_top" xlink:title="{PatchItem\n|+ id\l+ bank\l+ prog\l+ channel\l+ bypasscc\l+ bypasschannel\l+ bypasstime1\l+ bypasstime2\l+ zones\l+ numzones\l|+ PatchItem()\l+ ~PatchItem()\l+ SetupZones()\l+ GetZone()\l+ IsCombi()\l+ GetType()\l}">
<polygon fill="#ffffff" stroke="#000000" points="380.5,-.5 380.5,-211.5 481.5,-211.5 481.5,-.5 380.5,-.5"/>
<text text-anchor="middle" x="431" y="-199.5" font-family="Helvetica,sans-Serif" font-size="10.00" fill="#000000">PatchItem</text>
<polyline fill="none" stroke="#000000" points="380.5,-192.5 481.5,-192.5 "/>
<text text-anchor="start" x="388.5" y="-180.5" font-family="Helvetica,sans-Serif" font-size="10.00" fill="#000000">+ id</text>
<text text-anchor="start" x="388.5" y="-169.5" font-family="Helvetica,sans-Serif" font-size="10.00" fill="#000000">+ bank</text>
<text text-anchor="start" x="388.5" y="-158.5" font-family="Helvetica,sans-Serif" font-size="10.00" fill="#000000">+ prog</text>
<text text-anchor="start" x="388.5" y="-147.5" font-family="Helvetica,sans-Serif" font-size="10.00" fill="#000000">+ channel</text>
<text text-anchor="start" x="388.5" y="-136.5" font-family="Helvetica,sans-Serif" font-size="10.00" fill="#000000">+ bypasscc</text>
<text text-anchor="start" x="388.5" y="-125.5" font-family="Helvetica,sans-Serif" font-size="10.00" fill="#000000">+ bypasschannel</text>
<text text-anchor="start" x="388.5" y="-114.5" font-family="Helvetica,sans-Serif" font-size="10.00" fill="#000000">+ bypasstime1</text>
<text text-anchor="start" x="388.5" y="-103.5" font-family="Helvetica,sans-Serif" font-size="10.00" fill="#000000">+ bypasstime2</text>
<text text-anchor="start" x="388.5" y="-92.5" font-family="Helvetica,sans-Serif" font-size="10.00" fill="#000000">+ zones</text>
<text text-anchor="start" x="388.5" y="-81.5" font-family="Helvetica,sans-Serif" font-size="10.00" fill="#000000">+ numzones</text>
<polyline fill="none" stroke="#000000" points="380.5,-74.5 481.5,-74.5 "/>
<text text-anchor="start" x="388.5" y="-62.5" font-family="Helvetica,sans-Serif" font-size="10.00" fill="#000000">+ PatchItem()</text>
<text text-anchor="start" x="388.5" y="-51.5" font-family="Helvetica,sans-Serif" font-size="10.00" fill="#000000">+ ~PatchItem()</text>
<text text-anchor="start" x="388.5" y="-40.5" font-family="Helvetica,sans-Serif" font-size="10.00" fill="#000000">+ SetupZones()</text>
<text text-anchor="start" x="388.5" y="-29.5" font-family="Helvetica,sans-Serif" font-size="10.00" fill="#000000">+ GetZone()</text>
<text text-anchor="start" x="388.5" y="-18.5" font-family="Helvetica,sans-Serif" font-size="10.00" fill="#000000">+ IsCombi()</text>
<text text-anchor="start" x="388.5" y="-7.5" font-family="Helvetica,sans-Serif" font-size="10.00" fill="#000000">+ GetType()</text>
</a>
</g>
</g>
<!-- Node0&#45;&gt;Node4 -->
<g id="edge4" class="edge">
<title>Node0&#45;&gt;Node4</title>
<path fill="none" stroke="#191970" d="M356.3031,-239.4258C361.6163,-230.1996 366.9465,-220.8955 372,-212 374.7569,-207.1472 377.5752,-202.1632 380.4128,-197.1272"/>
<polygon fill="none" stroke="#191970" points="353.1884,-237.8207 351.2237,-248.2318 359.252,-241.3183 353.1884,-237.8207"/>
</g>
<!-- Node5 -->
<g id="node6" class="node">
<title>Node5</title>
<g id="a_node6"><a xlink:href="classSceneBrowserItem.html" target="_top" xlink:title="{SceneBrowserItem\n|+ time\l+ filename\l|+ SceneBrowserItem()\l+ ~SceneBrowserItem()\l+ Compare()\l+ GetType()\l}">
<polygon fill="#ffffff" stroke="#000000" points="499.5,-55.5 499.5,-156.5 634.5,-156.5 634.5,-55.5 499.5,-55.5"/>
<text text-anchor="middle" x="567" y="-144.5" font-family="Helvetica,sans-Serif" font-size="10.00" fill="#000000">SceneBrowserItem</text>
<polyline fill="none" stroke="#000000" points="499.5,-137.5 634.5,-137.5 "/>
<text text-anchor="start" x="507.5" y="-125.5" font-family="Helvetica,sans-Serif" font-size="10.00" fill="#000000">+ time</text>
<text text-anchor="start" x="507.5" y="-114.5" font-family="Helvetica,sans-Serif" font-size="10.00" fill="#000000">+ filename</text>
<polyline fill="none" stroke="#000000" points="499.5,-107.5 634.5,-107.5 "/>
<text text-anchor="start" x="507.5" y="-95.5" font-family="Helvetica,sans-Serif" font-size="10.00" fill="#000000">+ SceneBrowserItem()</text>
<text text-anchor="start" x="507.5" y="-84.5" font-family="Helvetica,sans-Serif" font-size="10.00" fill="#000000">+ ~SceneBrowserItem()</text>
<text text-anchor="start" x="507.5" y="-73.5" font-family="Helvetica,sans-Serif" font-size="10.00" fill="#000000">+ Compare()</text>
<text text-anchor="start" x="507.5" y="-62.5" font-family="Helvetica,sans-Serif" font-size="10.00" fill="#000000">+ GetType()</text>
</a>
</g>
</g>
<!-- Node0&#45;&gt;Node5 -->
<g id="edge5" class="edge">
<title>Node0&#45;&gt;Node5</title>
<path fill="none" stroke="#191970" d="M374.291,-287.7368C410.8202,-269.5399 456.4326,-243.3423 491,-212 508.5301,-196.1054 524.4124,-175.5245 537.0711,-156.7318"/>
<polygon fill="none" stroke="#191970" points="372.6494,-284.6436 365.2118,-292.189 375.7314,-290.9286 372.6494,-284.6436"/>
</g>
</g>
</svg>
