<?xml version="1.0" encoding="UTF-8" standalone="no"?>
<!DOCTYPE svg PUBLIC "-//W3C//DTD SVG 1.1//EN"
 "http://www.w3.org/Graphics/SVG/1.1/DTD/svg11.dtd">
<!-- Generated by graphviz version 2.40.1 (20161225.0304)
 -->
<!-- Title: AudioBlockIterator::GetTotalLength2Cur Pages: 1 -->
<svg width="540pt" height="280pt"
 viewBox="0.00 0.00 540.00 280.00" xmlns="http://www.w3.org/2000/svg" xmlns:xlink="http://www.w3.org/1999/xlink">
<g id="graph0" class="graph" transform="scale(1 1) rotate(0) translate(4 276)">
<title>AudioBlockIterator::GetTotalLength2Cur</title>
<polygon fill="#ffffff" stroke="transparent" points="-4,4 -4,-276 536,-276 536,4 -4,4"/>
<!-- Node46 -->
<g id="node1" class="node">
<title>Node46</title>
<polygon fill="#bfbfbf" stroke="#000000" points="0,-121 0,-151 119,-151 119,-121 0,-121"/>
<text text-anchor="start" x="8" y="-139" font-family="Helvetica,sans-Serif" font-size="10.00" fill="#000000">AudioBlockIterator</text>
<text text-anchor="middle" x="59.5" y="-128" font-family="Helvetica,sans-Serif" font-size="10.00" fill="#000000">::GetTotalLength2Cur</text>
</g>
<!-- Node47 -->
<g id="node2" class="node">
<title>Node47</title>
<g id="a_node2"><a xlink:href="classLoopManager.html#a306ffe72c9623e33cad280ec3609c359" target="_top" xlink:title="LoopManager::SetupSaveLoop">
<polygon fill="#ffffff" stroke="#000000" points="165,-252.5 165,-271.5 328,-271.5 328,-252.5 165,-252.5"/>
<text text-anchor="middle" x="246.5" y="-259.5" font-family="Helvetica,sans-Serif" font-size="10.00" fill="#000000">LoopManager::SetupSaveLoop</text>
</a>
</g>
</g>
<!-- Node46&#45;&gt;Node47 -->
<g id="edge1" class="edge">
<title>Node46&#45;&gt;Node47</title>
<path fill="none" stroke="#191970" d="M73.9711,-159.673C90.4311,-184.4745 119.6596,-222.604 155,-243 161.7449,-246.8927 169.1773,-249.9936 176.8023,-252.4628"/>
<polygon fill="#191970" stroke="#191970" points="76.8622,-157.6981 68.497,-151.1962 70.9817,-161.4956 76.8622,-157.6981"/>
</g>
<!-- Node49 -->
<g id="node4" class="node">
<title>Node49</title>
<g id="a_node4"><a xlink:href="classRecordProcessor.html#aa20c0f68a5ee5e4739759b3783b6e4d1" target="_top" xlink:title="RecordProcessor::RecordProcessor">
<polygon fill="#ffffff" stroke="#000000" points="155,-214.5 155,-233.5 338,-233.5 338,-214.5 155,-214.5"/>
<text text-anchor="middle" x="246.5" y="-221.5" font-family="Helvetica,sans-Serif" font-size="10.00" fill="#000000">RecordProcessor::RecordProcessor</text>
</a>
</g>
</g>
<!-- Node46&#45;&gt;Node49 -->
<g id="edge3" class="edge">
<title>Node46&#45;&gt;Node49</title>
<path fill="none" stroke="#191970" d="M83.5514,-157.8209C101.8644,-173.2738 128.3814,-193.2655 155,-205 163.759,-208.8613 173.3407,-211.952 182.9007,-214.4221"/>
<polygon fill="#191970" stroke="#191970" points="85.602,-154.9675 75.7437,-151.0862 81.0299,-160.2681 85.602,-154.9675"/>
</g>
<!-- Node50 -->
<g id="node5" class="node">
<title>Node50</title>
<g id="a_node5"><a xlink:href="classRecordProcessor.html#a9f62f8dba4cd6c099005374949fa0225" target="_top" xlink:title="RecordProcessor::GetRecorded\lLength">
<polygon fill="#ffffff" stroke="#000000" points="164,-165 164,-195 329,-195 329,-165 164,-165"/>
<text text-anchor="start" x="172" y="-183" font-family="Helvetica,sans-Serif" font-size="10.00" fill="#000000">RecordProcessor::GetRecorded</text>
<text text-anchor="middle" x="246.5" y="-172" font-family="Helvetica,sans-Serif" font-size="10.00" fill="#000000">Length</text>
</a>
</g>
</g>
<!-- Node46&#45;&gt;Node50 -->
<g id="edge4" class="edge">
<title>Node46&#45;&gt;Node50</title>
<path fill="none" stroke="#191970" d="M129.3017,-152.4239C146.7546,-156.5305 165.3868,-160.9145 182.5406,-164.9507"/>
<polygon fill="#191970" stroke="#191970" points="129.7179,-148.9264 119.1821,-150.0428 128.1146,-155.7403 129.7179,-148.9264"/>
</g>
<!-- Node51 -->
<g id="node6" class="node">
<title>Node51</title>
<g id="a_node6"><a xlink:href="classRecordProcessor.html#a9984f573bbc265321ad0604f97b23820" target="_top" xlink:title="RecordProcessor::EndNow">
<polygon fill="#ffffff" stroke="#000000" points="175,-88.5 175,-107.5 318,-107.5 318,-88.5 175,-88.5"/>
<text text-anchor="middle" x="246.5" y="-95.5" font-family="Helvetica,sans-Serif" font-size="10.00" fill="#000000">RecordProcessor::EndNow</text>
</a>
</g>
</g>
<!-- Node46&#45;&gt;Node51 -->
<g id="edge5" class="edge">
<title>Node46&#45;&gt;Node51</title>
<path fill="none" stroke="#191970" d="M129.0921,-121.8583C152.5672,-117.0879 178.1978,-111.8796 199.5053,-107.5497"/>
<polygon fill="#191970" stroke="#191970" points="128.2848,-118.4507 119.1821,-123.8721 129.6788,-125.3105 128.2848,-118.4507"/>
</g>
<!-- Node55 -->
<g id="node10" class="node">
<title>Node55</title>
<g id="a_node10"><a xlink:href="classRecordProcessor.html#a8fbde2e8b6f9e9dafb89ef0b06e6a11a" target="_top" xlink:title="RecordProcessor::Jump">
<polygon fill="#ffffff" stroke="#000000" points="182.5,-126.5 182.5,-145.5 310.5,-145.5 310.5,-126.5 182.5,-126.5"/>
<text text-anchor="middle" x="246.5" y="-133.5" font-family="Helvetica,sans-Serif" font-size="10.00" fill="#000000">RecordProcessor::Jump</text>
</a>
</g>
</g>
<!-- Node46&#45;&gt;Node55 -->
<g id="edge9" class="edge">
<title>Node46&#45;&gt;Node55</title>
<path fill="none" stroke="#191970" d="M129.2473,-136C146.6054,-136 165.1332,-136 182.2147,-136"/>
<polygon fill="#191970" stroke="#191970" points="129.1821,-132.5001 119.1821,-136 129.1821,-139.5001 129.1821,-132.5001"/>
</g>
<!-- Node56 -->
<g id="node11" class="node">
<title>Node56</title>
<g id="a_node11"><a xlink:href="classPlayProcessor.html#aa517007176ce668cd2990043069c4e72" target="_top" xlink:title="PlayProcessor::GetPlayed\lLength">
<polygon fill="#ffffff" stroke="#000000" points="176,-39 176,-69 317,-69 317,-39 176,-39"/>
<text text-anchor="start" x="184" y="-57" font-family="Helvetica,sans-Serif" font-size="10.00" fill="#000000">PlayProcessor::GetPlayed</text>
<text text-anchor="middle" x="246.5" y="-46" font-family="Helvetica,sans-Serif" font-size="10.00" fill="#000000">Length</text>
</a>
</g>
</g>
<!-- Node46&#45;&gt;Node56 -->
<g id="edge11" class="edge">
<title>Node46&#45;&gt;Node56</title>
<path fill="none" stroke="#191970" d="M89.445,-115.2476C107.7254,-103.3233 131.9456,-88.8128 155,-79 163.7883,-75.2594 173.2911,-71.9305 182.7337,-69.0187"/>
<polygon fill="#191970" stroke="#191970" points="87.3789,-112.4181 80.9793,-120.8617 91.2477,-118.2519 87.3789,-112.4181"/>
</g>
<!-- Node57 -->
<g id="node12" class="node">
<title>Node57</title>
<g id="a_node12"><a xlink:href="classVideoIO.html#adca60a99be6e51d8af7ce2a32f92349a" target="_top" xlink:title="VideoIO::DrawLoop">
<polygon fill="#ffffff" stroke="#000000" points="191.5,-.5 191.5,-19.5 301.5,-19.5 301.5,-.5 191.5,-.5"/>
<text text-anchor="middle" x="246.5" y="-7.5" font-family="Helvetica,sans-Serif" font-size="10.00" fill="#000000">VideoIO::DrawLoop</text>
</a>
</g>
</g>
<!-- Node46&#45;&gt;Node57 -->
<g id="edge12" class="edge">
<title>Node46&#45;&gt;Node57</title>
<path fill="none" stroke="#191970" d="M73.9711,-112.327C90.4311,-87.5255 119.6596,-49.396 155,-29 165.9605,-22.6743 178.7364,-18.4395 191.2037,-15.6087"/>
<polygon fill="#191970" stroke="#191970" points="70.9817,-110.5044 68.497,-120.8038 76.8622,-114.3019 70.9817,-110.5044"/>
</g>
<!-- Node48 -->
<g id="node3" class="node">
<title>Node48</title>
<g id="a_node3"><a xlink:href="classLoopManager.html#a00143be12c150c0a89c4f99c1e8d5e70" target="_top" xlink:title="LoopManager::GetWriteBlock">
<polygon fill="#ffffff" stroke="#000000" points="374,-252.5 374,-271.5 532,-271.5 532,-252.5 374,-252.5"/>
<text text-anchor="middle" x="453" y="-259.5" font-family="Helvetica,sans-Serif" font-size="10.00" fill="#000000">LoopManager::GetWriteBlock</text>
</a>
</g>
</g>
<!-- Node47&#45;&gt;Node48 -->
<g id="edge2" class="edge">
<title>Node47&#45;&gt;Node48</title>
<path fill="none" stroke="#191970" d="M338.3879,-262C350.1546,-262 362.1207,-262 373.6647,-262"/>
<polygon fill="#191970" stroke="#191970" points="338.1143,-258.5001 328.1143,-262 338.1142,-265.5001 338.1143,-258.5001"/>
</g>
<!-- Node52 -->
<g id="node7" class="node">
<title>Node52</title>
<g id="a_node7"><a xlink:href="classRecordProcessor.html#a6168d8dc850602a348dc74ab1224263a" target="_top" xlink:title="RecordProcessor::PulseSync">
<polygon fill="#ffffff" stroke="#000000" points="377,-126.5 377,-145.5 529,-145.5 529,-126.5 377,-126.5"/>
<text text-anchor="middle" x="453" y="-133.5" font-family="Helvetica,sans-Serif" font-size="10.00" fill="#000000">RecordProcessor::PulseSync</text>
</a>
</g>
</g>
<!-- Node51&#45;&gt;Node52 -->
<g id="edge6" class="edge">
<title>Node51&#45;&gt;Node52</title>
<path fill="none" stroke="#191970" d="M308.5485,-109.4181C338.0949,-114.8552 373.0261,-121.2832 401.1365,-126.4561"/>
<polygon fill="#191970" stroke="#191970" points="308.8105,-105.9076 298.3421,-107.54 307.5435,-112.792 308.8105,-105.9076"/>
</g>
<!-- Node53 -->
<g id="node8" class="node">
<title>Node53</title>
<g id="a_node8"><a xlink:href="classRecordProcessor.html#ab035edfb707f8f1066b3597df7ddda7d" target="_top" xlink:title="RecordProcessor::End">
<polygon fill="#ffffff" stroke="#000000" points="392.5,-88.5 392.5,-107.5 513.5,-107.5 513.5,-88.5 392.5,-88.5"/>
<text text-anchor="middle" x="453" y="-95.5" font-family="Helvetica,sans-Serif" font-size="10.00" fill="#000000">RecordProcessor::End</text>
</a>
</g>
</g>
<!-- Node51&#45;&gt;Node53 -->
<g id="edge7" class="edge">
<title>Node51&#45;&gt;Node53</title>
<path fill="none" stroke="#191970" d="M328.2106,-98C349.636,-98 372.3565,-98 392.4559,-98"/>
<polygon fill="#191970" stroke="#191970" points="328.1442,-94.5001 318.1441,-98 328.1441,-101.5001 328.1442,-94.5001"/>
</g>
<!-- Node54 -->
<g id="node9" class="node">
<title>Node54</title>
<g id="a_node9"><a xlink:href="classRecordProcessor.html#ad36d69ec9d41b424eb2e6c5fa2e0cf3a" target="_top" xlink:title="RecordProcessor::process">
<polygon fill="#ffffff" stroke="#000000" points="383,-50.5 383,-69.5 523,-69.5 523,-50.5 383,-50.5"/>
<text text-anchor="middle" x="453" y="-57.5" font-family="Helvetica,sans-Serif" font-size="10.00" fill="#000000">RecordProcessor::process</text>
</a>
</g>
</g>
<!-- Node51&#45;&gt;Node54 -->
<g id="edge8" class="edge">
<title>Node51&#45;&gt;Node54</title>
<path fill="none" stroke="#191970" d="M308.5485,-86.5819C338.0949,-81.1448 373.0261,-74.7168 401.1365,-69.5439"/>
<polygon fill="#191970" stroke="#191970" points="307.5435,-83.208 298.3421,-88.46 308.8105,-90.0924 307.5435,-83.208"/>
</g>
<!-- Node55&#45;&gt;Node52 -->
<g id="edge10" class="edge">
<title>Node55&#45;&gt;Node52</title>
<path fill="none" stroke="#191970" d="M320.9509,-136C339.1362,-136 358.6171,-136 376.8792,-136"/>
<polygon fill="#191970" stroke="#191970" points="320.706,-132.5001 310.7059,-136 320.7059,-139.5001 320.706,-132.5001"/>
</g>
</g>
</svg>
