<?xml version="1.0" encoding="UTF-8" standalone="no"?>
<!DOCTYPE svg PUBLIC "-//W3C//DTD SVG 1.1//EN"
 "http://www.w3.org/Graphics/SVG/1.1/DTD/svg11.dtd">
<!-- Generated by graphviz version 2.40.1 (20161225.0304)
 -->
<!-- Title: VideoIO::DrawLoop Pages: 1 -->
<svg width="822pt" height="800pt"
 viewBox="0.00 0.00 822.00 800.00" xmlns="http://www.w3.org/2000/svg" xmlns:xlink="http://www.w3.org/1999/xlink">
<g id="graph0" class="graph" transform="scale(1 1) rotate(0) translate(4 796)">
<title>VideoIO::DrawLoop</title>
<polygon fill="#ffffff" stroke="transparent" points="-4,4 -4,-796 818,-796 818,4 -4,4"/>
<!-- Node32 -->
<g id="node1" class="node">
<title>Node32</title>
<polygon fill="#bfbfbf" stroke="#000000" points="0,-380.5 0,-399.5 110,-399.5 110,-380.5 0,-380.5"/>
<text text-anchor="middle" x="55" y="-387.5" font-family="Helvetica,sans-Serif" font-size="10.00" fill="#000000">VideoIO::DrawLoop</text>
</g>
<!-- Node33 -->
<g id="node2" class="node">
<title>Node33</title>
<g id="a_node2"><a xlink:href="classLoopManager.html#a081849cd73540c791b32be3aab90dec4" target="_top" xlink:title="LoopManager::LockLoops">
<polygon fill="#ffffff" stroke="#000000" points="160.5,-772.5 160.5,-791.5 299.5,-791.5 299.5,-772.5 160.5,-772.5"/>
<text text-anchor="middle" x="230" y="-779.5" font-family="Helvetica,sans-Serif" font-size="10.00" fill="#000000">LoopManager::LockLoops</text>
</a>
</g>
</g>
<!-- Node32&#45;&gt;Node33 -->
<g id="edge1" class="edge">
<title>Node32&#45;&gt;Node33</title>
<path fill="none" stroke="#191970" d="M56.0072,-399.7865C61.7038,-453.2431 91.58,-709.4891 146,-763 147.6891,-764.6609 149.4909,-766.189 151.385,-767.5944"/>
<polygon fill="#191970" stroke="#191970" points="149.8609,-770.7651 160.2171,-773.0013 153.5158,-764.795 149.8609,-770.7651"/>
</g>
<!-- Node34 -->
<g id="node3" class="node">
<title>Node34</title>
<g id="a_node3"><a xlink:href="classLoopManager.html#a66574bbc447d4f891ef382469c521b05" target="_top" xlink:title="LoopManager::GetStatus">
<polygon fill="#ffffff" stroke="#000000" points="162,-734.5 162,-753.5 298,-753.5 298,-734.5 162,-734.5"/>
<text text-anchor="middle" x="230" y="-741.5" font-family="Helvetica,sans-Serif" font-size="10.00" fill="#000000">LoopManager::GetStatus</text>
</a>
</g>
</g>
<!-- Node32&#45;&gt;Node34 -->
<g id="edge2" class="edge">
<title>Node32&#45;&gt;Node34</title>
<path fill="none" stroke="#191970" d="M56.2919,-399.768C63.1121,-449.878 96.4989,-677.5732 146,-725 148.1761,-727.0849 150.5303,-728.9593 153.021,-730.6434"/>
<polygon fill="#191970" stroke="#191970" points="151.5229,-733.8163 161.9551,-735.6655 154.953,-727.7143 151.5229,-733.8163"/>
</g>
<!-- Node35 -->
<g id="node4" class="node">
<title>Node35</title>
<g id="a_node4"><a xlink:href="classPeaksAvgsManager.html#abbc5f22be91120a5a40d9c838e28375e" target="_top" xlink:title="PeaksAvgsManager::GetPeaksI">
<polygon fill="#ffffff" stroke="#000000" points="146.5,-696.5 146.5,-715.5 313.5,-715.5 313.5,-696.5 146.5,-696.5"/>
<text text-anchor="middle" x="230" y="-703.5" font-family="Helvetica,sans-Serif" font-size="10.00" fill="#000000">PeaksAvgsManager::GetPeaksI</text>
</a>
</g>
</g>
<!-- Node32&#45;&gt;Node35 -->
<g id="edge3" class="edge">
<title>Node32&#45;&gt;Node35</title>
<path fill="none" stroke="#191970" d="M56.6157,-399.5725C64.6082,-445.8164 101.327,-645.5523 146,-687 147.5208,-688.411 149.1235,-689.7249 150.7948,-690.948"/>
<polygon fill="#191970" stroke="#191970" points="149.2974,-694.1336 159.6606,-696.3368 152.9332,-688.1519 149.2974,-694.1336"/>
</g>
<!-- Node36 -->
<g id="node5" class="node">
<title>Node36</title>
<g id="a_node5"><a xlink:href="classAudioBlockIterator.html#afdaa1beeae81dbfb277fae51bee42ca0" target="_top" xlink:title="AudioBlockIterator\l::GetTotalLength2Cur">
<polygon fill="#ffffff" stroke="#000000" points="170.5,-647 170.5,-677 289.5,-677 289.5,-647 170.5,-647"/>
<text text-anchor="start" x="178.5" y="-665" font-family="Helvetica,sans-Serif" font-size="10.00" fill="#000000">AudioBlockIterator</text>
<text text-anchor="middle" x="230" y="-654" font-family="Helvetica,sans-Serif" font-size="10.00" fill="#000000">::GetTotalLength2Cur</text>
</a>
</g>
</g>
<!-- Node32&#45;&gt;Node36 -->
<g id="edge4" class="edge">
<title>Node32&#45;&gt;Node36</title>
<path fill="none" stroke="#191970" d="M55.8084,-399.8781C59.299,-436.1421 76.2347,-563.3869 146,-632 150.4922,-636.418 155.6783,-640.1894 161.2243,-643.4083"/>
<polygon fill="#191970" stroke="#191970" points="159.695,-646.5575 170.1877,-648.0251 162.9003,-640.3345 159.695,-646.5575"/>
</g>
<!-- Node37 -->
<g id="node6" class="node">
<title>Node37</title>
<g id="a_node6"><a xlink:href="classLoopManager.html#ab5444c4b3ee3ccbab1160e23d7363752" target="_top" xlink:title="LoopManager::GetSlot">
<polygon fill="#ffffff" stroke="#000000" points="378,-475.5 378,-494.5 502,-494.5 502,-475.5 378,-475.5"/>
<text text-anchor="middle" x="440" y="-482.5" font-family="Helvetica,sans-Serif" font-size="10.00" fill="#000000">LoopManager::GetSlot</text>
</a>
</g>
</g>
<!-- Node32&#45;&gt;Node37 -->
<g id="edge5" class="edge">
<title>Node32&#45;&gt;Node37</title>
<path fill="none" stroke="#191970" d="M60.4921,-399.6857C72.7177,-420.1259 104.4096,-467.2465 146,-485 225.8775,-519.097 329.4565,-507.8673 389.9404,-496.502"/>
<polygon fill="#191970" stroke="#191970" points="390.8493,-499.8907 399.9919,-494.5369 389.5062,-493.0207 390.8493,-499.8907"/>
</g>
<!-- Node40 -->
<g id="node9" class="node">
<title>Node40</title>
<g id="a_node9"><a xlink:href="classAudioBlock.html#ae7aec1591ed6f228799c11b650b2cc1b" target="_top" xlink:title="AudioBlock::GetExtendedData">
<polygon fill="#ffffff" stroke="#000000" points="148,-304.5 148,-323.5 312,-323.5 312,-304.5 148,-304.5"/>
<text text-anchor="middle" x="230" y="-311.5" font-family="Helvetica,sans-Serif" font-size="10.00" fill="#000000">AudioBlock::GetExtendedData</text>
</a>
</g>
</g>
<!-- Node32&#45;&gt;Node40 -->
<g id="edge8" class="edge">
<title>Node32&#45;&gt;Node40</title>
<path fill="none" stroke="#191970" d="M69.2578,-380.4036C86.7179,-368.9999 117.4932,-350.0096 146,-338 156.5943,-333.5368 168.2788,-329.6125 179.4792,-326.2994"/>
<polygon fill="#191970" stroke="#191970" points="180.4966,-329.649 189.1579,-323.547 178.5818,-322.9159 180.4966,-329.649"/>
</g>
<!-- Node42 -->
<g id="node11" class="node">
<title>Node42</title>
<g id="a_node11"><a xlink:href="classAudioBlock.html#a380880c91c3af2322d232ce2de83b881" target="_top" xlink:title="AudioBlock::GetTotalLen">
<polygon fill="#ffffff" stroke="#000000" points="566,-399.5 566,-418.5 701,-418.5 701,-399.5 566,-399.5"/>
<text text-anchor="middle" x="633.5" y="-406.5" font-family="Helvetica,sans-Serif" font-size="10.00" fill="#000000">AudioBlock::GetTotalLen</text>
</a>
</g>
</g>
<!-- Node32&#45;&gt;Node42 -->
<g id="edge10" class="edge">
<title>Node32&#45;&gt;Node42</title>
<path fill="none" stroke="#191970" d="M110.0027,-386.7723C198.6396,-382.2956 378.478,-376.2074 530,-390 546.8747,-391.5361 565.1078,-394.4531 581.4998,-397.5488"/>
<polygon fill="#191970" stroke="#191970" points="580.9544,-401.0083 591.4397,-399.4887 582.2953,-394.138 580.9544,-401.0083"/>
</g>
<!-- Node43 -->
<g id="node12" class="node">
<title>Node43</title>
<g id="a_node12"><a xlink:href="classLoopManager.html#acca75f9dd9685cbf0a6e2ccbea1a1475" target="_top" xlink:title="LoopManager::GetLoopVolume">
<polygon fill="#ffffff" stroke="#000000" points="357.5,-589.5 357.5,-608.5 522.5,-608.5 522.5,-589.5 357.5,-589.5"/>
<text text-anchor="middle" x="440" y="-596.5" font-family="Helvetica,sans-Serif" font-size="10.00" fill="#000000">LoopManager::GetLoopVolume</text>
</a>
</g>
</g>
<!-- Node32&#45;&gt;Node43 -->
<g id="edge11" class="edge">
<title>Node32&#45;&gt;Node43</title>
<path fill="none" stroke="#191970" d="M56.5281,-399.5856C62.0259,-430.5748 83.8771,-528.5043 146,-571 213.6859,-617.3011 311.5568,-616.6761 375.4738,-609.6882"/>
<polygon fill="#191970" stroke="#191970" points="375.9075,-613.1615 385.4307,-608.5183 375.0906,-606.2093 375.9075,-613.1615"/>
</g>
<!-- Node44 -->
<g id="node13" class="node">
<title>Node44</title>
<g id="a_node13"><a xlink:href="classLoopManager.html#a881c3e5431ebc1d571081a353b6fb9d1" target="_top" xlink:title="LoopManager::GetLoopdVolume">
<polygon fill="#ffffff" stroke="#000000" points="354.5,-551.5 354.5,-570.5 525.5,-570.5 525.5,-551.5 354.5,-551.5"/>
<text text-anchor="middle" x="440" y="-558.5" font-family="Helvetica,sans-Serif" font-size="10.00" fill="#000000">LoopManager::GetLoopdVolume</text>
</a>
</g>
</g>
<!-- Node32&#45;&gt;Node44 -->
<g id="edge14" class="edge">
<title>Node32&#45;&gt;Node44</title>
<path fill="none" stroke="#191970" d="M57.6098,-399.8821C65.499,-427.558 91.9466,-505.9632 146,-539 216.5361,-582.1107 315.0905,-579.5815 378.2349,-571.841"/>
<polygon fill="#191970" stroke="#191970" points="378.9786,-575.2736 388.4404,-570.5067 378.0711,-568.3327 378.9786,-575.2736"/>
</g>
<!-- Node45 -->
<g id="node14" class="node">
<title>Node45</title>
<g id="a_node14"><a xlink:href="classLoopManager.html#ab7ecd057a74061239c0f5309838de9c2" target="_top" xlink:title="LoopManager::GetCurCnt">
<polygon fill="#ffffff" stroke="#000000" points="371,-513.5 371,-532.5 509,-532.5 509,-513.5 371,-513.5"/>
<text text-anchor="middle" x="440" y="-520.5" font-family="Helvetica,sans-Serif" font-size="10.00" fill="#000000">LoopManager::GetCurCnt</text>
</a>
</g>
</g>
<!-- Node32&#45;&gt;Node45 -->
<g id="edge17" class="edge">
<title>Node32&#45;&gt;Node45</title>
<path fill="none" stroke="#191970" d="M58.8919,-399.7753C69.0251,-423.7334 98.7655,-485.2236 146,-510 220.6817,-549.1735 321.2824,-543.2357 383.3313,-534.0739"/>
<polygon fill="#191970" stroke="#191970" points="383.9806,-537.5151 393.3245,-532.521 382.9057,-530.5981 383.9806,-537.5151"/>
</g>
<!-- Node46 -->
<g id="node15" class="node">
<title>Node46</title>
<g id="a_node15"><a xlink:href="classCircularMap.html#a795dc11af14e46513e859cc2372f5338" target="_top" xlink:title="CircularMap::Map">
<polygon fill="#ffffff" stroke="#000000" points="179.5,-266.5 179.5,-285.5 280.5,-285.5 280.5,-266.5 179.5,-266.5"/>
<text text-anchor="middle" x="230" y="-273.5" font-family="Helvetica,sans-Serif" font-size="10.00" fill="#000000">CircularMap::Map</text>
</a>
</g>
</g>
<!-- Node32&#45;&gt;Node46 -->
<g id="edge20" class="edge">
<title>Node32&#45;&gt;Node46</title>
<path fill="none" stroke="#191970" d="M61.2319,-380.422C74.3925,-361.0163 107.0348,-317.0353 146,-295 153.2964,-290.8738 161.4256,-287.6436 169.6729,-285.1149"/>
<polygon fill="#191970" stroke="#191970" points="170.6475,-288.4769 179.3659,-282.4569 168.7963,-281.7261 170.6475,-288.4769"/>
</g>
<!-- Node47 -->
<g id="node16" class="node">
<title>Node47</title>
<g id="a_node16"><a xlink:href="classLoopManager.html#aa0d9e2fff052bf7776c1146f3f2a452e" target="_top" xlink:title="LoopManager::GetPos">
<polygon fill="#ffffff" stroke="#000000" points="379,-399.5 379,-418.5 501,-418.5 501,-399.5 379,-399.5"/>
<text text-anchor="middle" x="440" y="-406.5" font-family="Helvetica,sans-Serif" font-size="10.00" fill="#000000">LoopManager::GetPos</text>
</a>
</g>
</g>
<!-- Node32&#45;&gt;Node47 -->
<g id="edge21" class="edge">
<title>Node32&#45;&gt;Node47</title>
<path fill="none" stroke="#191970" d="M110.1611,-392.7222C178.1753,-396.0788 293.9175,-401.7907 368.6389,-405.4783"/>
<polygon fill="#191970" stroke="#191970" points="368.7405,-408.9875 378.9009,-405.9847 369.0856,-401.996 368.7405,-408.9875"/>
</g>
<!-- Node50 -->
<g id="node19" class="node">
<title>Node50</title>
<g id="a_node19"><a xlink:href="classLoopManager.html#ab9c9e72e1a23b34c15a87dc13fb02672" target="_top" xlink:title="LoopManager::GetTriggerVol">
<polygon fill="#ffffff" stroke="#000000" points="153.5,-228.5 153.5,-247.5 306.5,-247.5 306.5,-228.5 153.5,-228.5"/>
<text text-anchor="middle" x="230" y="-235.5" font-family="Helvetica,sans-Serif" font-size="10.00" fill="#000000">LoopManager::GetTriggerVol</text>
</a>
</g>
</g>
<!-- Node32&#45;&gt;Node50 -->
<g id="edge27" class="edge">
<title>Node32&#45;&gt;Node50</title>
<path fill="none" stroke="#191970" d="M58.6018,-380.4669C68.4512,-355.7691 98.3219,-289.3807 146,-257 148.9337,-255.0075 152.0449,-253.2212 155.2755,-251.6199"/>
<polygon fill="#191970" stroke="#191970" points="156.8504,-254.7524 164.6478,-247.5794 154.0791,-248.3243 156.8504,-254.7524"/>
</g>
<!-- Node51 -->
<g id="node20" class="node">
<title>Node51</title>
<g id="a_node20"><a xlink:href="classLoopManager.html#af47f3bd7ef30b86f965d5b6b37755480" target="_top" xlink:title="LoopManager::GetRenamer">
<polygon fill="#ffffff" stroke="#000000" points="155.5,-190.5 155.5,-209.5 304.5,-209.5 304.5,-190.5 155.5,-190.5"/>
<text text-anchor="middle" x="230" y="-197.5" font-family="Helvetica,sans-Serif" font-size="10.00" fill="#000000">LoopManager::GetRenamer</text>
</a>
</g>
</g>
<!-- Node32&#45;&gt;Node51 -->
<g id="edge28" class="edge">
<title>Node32&#45;&gt;Node51</title>
<path fill="none" stroke="#191970" d="M57.1187,-380.4162C64.1142,-351.1428 89.3342,-262.2655 146,-219 148.3396,-217.2136 150.8162,-215.5897 153.3948,-214.1137"/>
<polygon fill="#191970" stroke="#191970" points="155.0683,-217.1913 162.5045,-209.6445 151.9851,-210.9068 155.0683,-217.1913"/>
</g>
<!-- Node52 -->
<g id="node21" class="node">
<title>Node52</title>
<g id="a_node21"><a xlink:href="classLoopManager.html#af506adbf56eb92170096175db4d0936a" target="_top" xlink:title="LoopManager::GetRenameLoop">
<polygon fill="#ffffff" stroke="#000000" points="146,-152.5 146,-171.5 314,-171.5 314,-152.5 146,-152.5"/>
<text text-anchor="middle" x="230" y="-159.5" font-family="Helvetica,sans-Serif" font-size="10.00" fill="#000000">LoopManager::GetRenameLoop</text>
</a>
</g>
</g>
<!-- Node32&#45;&gt;Node52 -->
<g id="edge29" class="edge">
<title>Node32&#45;&gt;Node52</title>
<path fill="none" stroke="#191970" d="M56.1473,-380.2785C60.6355,-346.8206 80.143,-235.4978 146,-181 148.0158,-179.3319 150.1486,-177.803 152.3729,-176.4022"/>
<polygon fill="#191970" stroke="#191970" points="154.1779,-179.4061 161.3522,-171.61 150.8821,-173.2306 154.1779,-179.4061"/>
</g>
<!-- Node53 -->
<g id="node22" class="node">
<title>Node53</title>
<g id="a_node22"><a xlink:href="classItemRenamer.html#a1769ff20cc01293b9ef3c4bf17cca172" target="_top" xlink:title="ItemRenamer::UpdateUIVars">
<polygon fill="#ffffff" stroke="#000000" points="152.5,-114.5 152.5,-133.5 307.5,-133.5 307.5,-114.5 152.5,-114.5"/>
<text text-anchor="middle" x="230" y="-121.5" font-family="Helvetica,sans-Serif" font-size="10.00" fill="#000000">ItemRenamer::UpdateUIVars</text>
</a>
</g>
</g>
<!-- Node32&#45;&gt;Node53 -->
<g id="edge30" class="edge">
<title>Node32&#45;&gt;Node53</title>
<path fill="none" stroke="#191970" d="M55.4235,-380.4027C57.5969,-343.4515 70.5942,-209.1529 146,-143 147.7808,-141.4377 149.6629,-139.9961 151.6269,-138.6661"/>
<polygon fill="#191970" stroke="#191970" points="153.7291,-141.4978 160.7033,-133.5222 150.2776,-135.4078 153.7291,-141.4978"/>
</g>
<!-- Node55 -->
<g id="node24" class="node">
<title>Node55</title>
<g id="a_node24"><a xlink:href="classItemRenamer.html#adfe2134b3ae959cbfaef060d9f0f24b9" target="_top" xlink:title="ItemRenamer::GetCurName">
<polygon fill="#ffffff" stroke="#000000" points="154,-76.5 154,-95.5 306,-95.5 306,-76.5 154,-76.5"/>
<text text-anchor="middle" x="230" y="-83.5" font-family="Helvetica,sans-Serif" font-size="10.00" fill="#000000">ItemRenamer::GetCurName</text>
</a>
</g>
</g>
<!-- Node32&#45;&gt;Node55 -->
<g id="edge32" class="edge">
<title>Node32&#45;&gt;Node55</title>
<path fill="none" stroke="#191970" d="M56.7854,-380.2119C65.2741,-334.7198 102.9317,-144.4905 146,-105 147.7013,-103.4401 149.5028,-101.9992 151.3863,-100.6687"/>
<polygon fill="#191970" stroke="#191970" points="153.2825,-103.6137 160.1133,-95.5149 149.7229,-97.5863 153.2825,-103.6137"/>
</g>
<!-- Node56 -->
<g id="node25" class="node">
<title>Node56</title>
<g id="a_node25"><a xlink:href="classVideoIO.html#a8a7592b69863218540f5185683f8b3fc" target="_top" xlink:title="VideoIO::draw_text">
<polygon fill="#ffffff" stroke="#000000" points="175,-38.5 175,-57.5 285,-57.5 285,-38.5 175,-38.5"/>
<text text-anchor="middle" x="230" y="-45.5" font-family="Helvetica,sans-Serif" font-size="10.00" fill="#000000">VideoIO::draw_text</text>
</a>
</g>
</g>
<!-- Node32&#45;&gt;Node56 -->
<g id="edge33" class="edge">
<title>Node32&#45;&gt;Node56</title>
<path fill="none" stroke="#191970" d="M56.3924,-380.2567C63.5833,-331.2788 98.0394,-112.5216 146,-67 151.4426,-61.8341 157.9797,-57.9635 164.9729,-55.0788"/>
<polygon fill="#191970" stroke="#191970" points="166.4109,-58.2857 174.7318,-51.7272 164.1372,-51.6652 166.4109,-58.2857"/>
</g>
<!-- Node57 -->
<g id="node26" class="node">
<title>Node57</title>
<g id="a_node26"><a xlink:href="classLoopManager.html#a7d068368e26e78955a044fce68b0cfea" target="_top" xlink:title="LoopManager::GetPulse">
<polygon fill="#ffffff" stroke="#000000" points="164.5,-456.5 164.5,-475.5 295.5,-475.5 295.5,-456.5 164.5,-456.5"/>
<text text-anchor="middle" x="230" y="-463.5" font-family="Helvetica,sans-Serif" font-size="10.00" fill="#000000">LoopManager::GetPulse</text>
</a>
</g>
</g>
<!-- Node32&#45;&gt;Node57 -->
<g id="edge34" class="edge">
<title>Node32&#45;&gt;Node57</title>
<path fill="none" stroke="#191970" d="M69.2578,-399.5964C86.7179,-411.0001 117.4932,-429.9904 146,-442 156.5943,-446.4632 168.2788,-450.3875 179.4792,-453.7006"/>
<polygon fill="#191970" stroke="#191970" points="178.5818,-457.0841 189.1579,-456.453 180.4966,-450.351 178.5818,-457.0841"/>
</g>
<!-- Node58 -->
<g id="node27" class="node">
<title>Node58</title>
<g id="a_node27"><a xlink:href="classLoopManager.html#ada4d7a3e7f2d1a07b295aae79c1c5489" target="_top" xlink:title="LoopManager::GetRoundedLength">
<polygon fill="#ffffff" stroke="#000000" points="350,-437.5 350,-456.5 530,-456.5 530,-437.5 350,-437.5"/>
<text text-anchor="middle" x="440" y="-444.5" font-family="Helvetica,sans-Serif" font-size="10.00" fill="#000000">LoopManager::GetRoundedLength</text>
</a>
</g>
</g>
<!-- Node32&#45;&gt;Node58 -->
<g id="edge36" class="edge">
<title>Node32&#45;&gt;Node58</title>
<path fill="none" stroke="#191970" d="M90.2301,-399.5496C107.019,-403.8346 127.4431,-408.6644 146,-412 210.0719,-423.5168 282.7029,-432.2044 339.7435,-438.0436"/>
<polygon fill="#191970" stroke="#191970" points="339.5428,-441.5411 349.8441,-439.0646 340.2468,-434.5766 339.5428,-441.5411"/>
</g>
<!-- Node59 -->
<g id="node28" class="node">
<title>Node59</title>
<g id="a_node28"><a xlink:href="classLoopManager.html#ad91cfa5fc2818dd578edbd4470c389e7" target="_top" xlink:title="LoopManager::UnlockLoops">
<polygon fill="#ffffff" stroke="#000000" points="155,-.5 155,-19.5 305,-19.5 305,-.5 155,-.5"/>
<text text-anchor="middle" x="230" y="-7.5" font-family="Helvetica,sans-Serif" font-size="10.00" fill="#000000">LoopManager::UnlockLoops</text>
</a>
</g>
</g>
<!-- Node32&#45;&gt;Node59 -->
<g id="edge41" class="edge">
<title>Node32&#45;&gt;Node59</title>
<path fill="none" stroke="#191970" d="M56.095,-380.1831C62.1459,-327.6872 93.1487,-80.5728 146,-29 147.4447,-27.5903 148.9705,-26.2764 150.5651,-25.0522"/>
<polygon fill="#191970" stroke="#191970" points="152.4954,-27.9724 159.0515,-19.6497 148.7362,-22.0675 152.4954,-27.9724"/>
</g>
<!-- Node38 -->
<g id="node7" class="node">
<title>Node38</title>
<g id="a_node7"><a xlink:href="classFweelin.html#a10bb364ecf38990653b49a98c5a89c90" target="_top" xlink:title="Fweelin::getTMAP">
<polygon fill="#ffffff" stroke="#000000" points="582,-513.5 582,-532.5 685,-532.5 685,-513.5 582,-513.5"/>
<text text-anchor="middle" x="633.5" y="-520.5" font-family="Helvetica,sans-Serif" font-size="10.00" fill="#000000">Fweelin::getTMAP</text>
</a>
</g>
</g>
<!-- Node37&#45;&gt;Node38 -->
<g id="edge6" class="edge">
<title>Node37&#45;&gt;Node38</title>
<path fill="none" stroke="#191970" d="M488.8282,-494.589C515.0528,-499.739 547.5617,-506.1232 575.1162,-511.5344"/>
<polygon fill="#191970" stroke="#191970" points="574.5358,-514.9873 585.0229,-513.4799 575.8848,-508.1185 574.5358,-514.9873"/>
</g>
<!-- Node39 -->
<g id="node8" class="node">
<title>Node39</title>
<g id="a_node8"><a xlink:href="classTriggerMap.html#aca3f85b40f3aa29a280c2d7511b84217" target="_top" xlink:title="TriggerMap::GetMap">
<polygon fill="#ffffff" stroke="#000000" points="577,-475.5 577,-494.5 690,-494.5 690,-475.5 577,-475.5"/>
<text text-anchor="middle" x="633.5" y="-482.5" font-family="Helvetica,sans-Serif" font-size="10.00" fill="#000000">TriggerMap::GetMap</text>
</a>
</g>
</g>
<!-- Node37&#45;&gt;Node39 -->
<g id="edge7" class="edge">
<title>Node37&#45;&gt;Node39</title>
<path fill="none" stroke="#191970" d="M502.023,-485C522.6376,-485 545.6773,-485 566.6408,-485"/>
<polygon fill="#191970" stroke="#191970" points="566.7455,-488.5001 576.7455,-485 566.7454,-481.5001 566.7455,-488.5001"/>
</g>
<!-- Node41 -->
<g id="node10" class="node">
<title>Node41</title>
<g id="a_node10"><a xlink:href="classBlockExtendedData.html#ae33e9550384a32abf2a91386334a2be9" target="_top" xlink:title="BlockExtendedData::\lGetType">
<polygon fill="#ffffff" stroke="#000000" points="380.5,-293 380.5,-323 499.5,-323 499.5,-293 380.5,-293"/>
<text text-anchor="start" x="388.5" y="-311" font-family="Helvetica,sans-Serif" font-size="10.00" fill="#000000">BlockExtendedData::</text>
<text text-anchor="middle" x="440" y="-300" font-family="Helvetica,sans-Serif" font-size="10.00" fill="#000000">GetType</text>
</a>
</g>
</g>
<!-- Node40&#45;&gt;Node41 -->
<g id="edge9" class="edge">
<title>Node40&#45;&gt;Node41</title>
<path fill="none" stroke="#191970" d="M312.0937,-311.6545C331.3121,-311.1054 351.6067,-310.5255 370.229,-309.9935"/>
<polygon fill="#191970" stroke="#191970" points="370.4893,-313.4875 380.3852,-309.7033 370.2893,-306.4904 370.4893,-313.4875"/>
</g>
<!-- Node43&#45;&gt;Node38 -->
<g id="edge12" class="edge">
<title>Node43&#45;&gt;Node38</title>
<path fill="none" stroke="#191970" d="M497.8539,-589.4285C508.699,-586.8953 519.8207,-583.782 530,-580 559.3486,-569.096 590.4909,-550.9334 610.8563,-538.043"/>
<polygon fill="#191970" stroke="#191970" points="612.8962,-540.8924 619.4099,-532.5364 609.1071,-535.0066 612.8962,-540.8924"/>
</g>
<!-- Node43&#45;&gt;Node39 -->
<g id="edge13" class="edge">
<title>Node43&#45;&gt;Node39</title>
<path fill="none" stroke="#191970" d="M514.2775,-589.3114C519.9047,-586.8224 525.2369,-583.76 530,-580 559.3367,-556.8419 537.4473,-528.1181 566,-504 567.9938,-502.3159 570.1269,-500.7806 572.3622,-499.381"/>
<polygon fill="#191970" stroke="#191970" points="574.1857,-502.3768 581.4109,-494.6278 570.9303,-496.1797 574.1857,-502.3768"/>
</g>
<!-- Node44&#45;&gt;Node38 -->
<g id="edge15" class="edge">
<title>Node44&#45;&gt;Node38</title>
<path fill="none" stroke="#191970" d="M488.8282,-551.411C515.0528,-546.261 547.5617,-539.8768 575.1162,-534.4656"/>
<polygon fill="#191970" stroke="#191970" points="575.8848,-537.8815 585.0229,-532.5201 574.5358,-531.0127 575.8848,-537.8815"/>
</g>
<!-- Node44&#45;&gt;Node39 -->
<g id="edge16" class="edge">
<title>Node44&#45;&gt;Node39</title>
<path fill="none" stroke="#191970" d="M507.5063,-551.4665C515.3532,-549.0007 523.0323,-545.8996 530,-542 550.3012,-530.638 546.0867,-516.0289 566,-504 569.5755,-501.8402 573.4052,-499.918 577.3567,-498.2085"/>
<polygon fill="#191970" stroke="#191970" points="578.6631,-501.456 586.7356,-494.5942 576.1459,-494.9243 578.6631,-501.456"/>
</g>
<!-- Node45&#45;&gt;Node38 -->
<g id="edge18" class="edge">
<title>Node45&#45;&gt;Node38</title>
<path fill="none" stroke="#191970" d="M509.0384,-523C529.4644,-523 551.6901,-523 571.6328,-523"/>
<polygon fill="#191970" stroke="#191970" points="571.8318,-526.5001 581.8318,-523 571.8317,-519.5001 571.8318,-526.5001"/>
</g>
<!-- Node45&#45;&gt;Node39 -->
<g id="edge19" class="edge">
<title>Node45&#45;&gt;Node39</title>
<path fill="none" stroke="#191970" d="M488.8282,-513.411C515.0528,-508.261 547.5617,-501.8768 575.1162,-496.4656"/>
<polygon fill="#191970" stroke="#191970" points="575.8848,-499.8815 585.0229,-494.5201 574.5358,-493.0127 575.8848,-499.8815"/>
</g>
<!-- Node47&#45;&gt;Node38 -->
<g id="edge22" class="edge">
<title>Node47&#45;&gt;Node38</title>
<path fill="none" stroke="#191970" d="M501.0002,-413.9366C511.4349,-416.9098 521.6018,-421.3705 530,-428 559.3367,-451.1581 537.4473,-479.8819 566,-504 568.0344,-505.7185 570.2141,-507.282 572.4992,-508.7045"/>
<polygon fill="#191970" stroke="#191970" points="571.2659,-512.0083 581.7522,-513.5215 574.4983,-505.7993 571.2659,-512.0083"/>
</g>
<!-- Node47&#45;&gt;Node39 -->
<g id="edge23" class="edge">
<title>Node47&#45;&gt;Node39</title>
<path fill="none" stroke="#191970" d="M501.3612,-416.7362C511.3119,-419.4407 521.2207,-423.0865 530,-428 550.3012,-439.362 546.0867,-453.9711 566,-466 569.5755,-468.1598 573.4052,-470.082 577.3567,-471.7915"/>
<polygon fill="#191970" stroke="#191970" points="576.1459,-475.0757 586.7356,-475.4058 578.6631,-468.544 576.1459,-475.0757"/>
</g>
<!-- Node47&#45;&gt;Node42 -->
<g id="edge24" class="edge">
<title>Node47&#45;&gt;Node42</title>
<path fill="none" stroke="#191970" d="M501.2246,-409C518.5205,-409 537.5754,-409 555.706,-409"/>
<polygon fill="#191970" stroke="#191970" points="555.959,-412.5001 565.9589,-409 555.9589,-405.5001 555.959,-412.5001"/>
</g>
<!-- Node48 -->
<g id="node17" class="node">
<title>Node48</title>
<g id="a_node17"><a xlink:href="classPulse.html#ac23f657cca68747e251b1b927a11ba0f" target="_top" xlink:title="Pulse::QuantizeLength">
<polygon fill="#ffffff" stroke="#000000" points="571,-437.5 571,-456.5 696,-456.5 696,-437.5 571,-437.5"/>
<text text-anchor="middle" x="633.5" y="-444.5" font-family="Helvetica,sans-Serif" font-size="10.00" fill="#000000">Pulse::QuantizeLength</text>
</a>
</g>
</g>
<!-- Node47&#45;&gt;Node48 -->
<g id="edge25" class="edge">
<title>Node47&#45;&gt;Node48</title>
<path fill="none" stroke="#191970" d="M488.8282,-418.589C515.0528,-423.739 547.5617,-430.1232 575.1162,-435.5344"/>
<polygon fill="#191970" stroke="#191970" points="574.5358,-438.9873 585.0229,-437.4799 575.8848,-432.1185 574.5358,-438.9873"/>
</g>
<!-- Node49 -->
<g id="node18" class="node">
<title>Node49</title>
<g id="a_node18"><a xlink:href="classPulse.html#a7df09d55ecd7193d5491170e6888350a" target="_top" xlink:title="Pulse::round">
<polygon fill="#ffffff" stroke="#000000" points="737,-437.5 737,-456.5 814,-456.5 814,-437.5 737,-437.5"/>
<text text-anchor="middle" x="775.5" y="-444.5" font-family="Helvetica,sans-Serif" font-size="10.00" fill="#000000">Pulse::round</text>
</a>
</g>
</g>
<!-- Node48&#45;&gt;Node49 -->
<g id="edge26" class="edge">
<title>Node48&#45;&gt;Node49</title>
<path fill="none" stroke="#191970" d="M696.1966,-447C706.453,-447 716.9438,-447 726.7969,-447"/>
<polygon fill="#191970" stroke="#191970" points="726.7976,-450.5001 736.7976,-447 726.7975,-443.5001 726.7976,-450.5001"/>
</g>
<!-- Node54 -->
<g id="node23" class="node">
<title>Node54</title>
<g id="a_node23"><a xlink:href="fweelin__event_8h.html#a0bb68d7f77df8d1848af0e9fc6716197" target="_top" xlink:title="mygettime">
<polygon fill="#ffffff" stroke="#000000" points="404.5,-114.5 404.5,-133.5 475.5,-133.5 475.5,-114.5 404.5,-114.5"/>
<text text-anchor="middle" x="440" y="-121.5" font-family="Helvetica,sans-Serif" font-size="10.00" fill="#000000">mygettime</text>
</a>
</g>
</g>
<!-- Node53&#45;&gt;Node54 -->
<g id="edge31" class="edge">
<title>Node53&#45;&gt;Node54</title>
<path fill="none" stroke="#191970" d="M307.5996,-124C336.7635,-124 368.9597,-124 394.3001,-124"/>
<polygon fill="#191970" stroke="#191970" points="394.3578,-127.5001 404.3578,-124 394.3578,-120.5001 394.3578,-127.5001"/>
</g>
<!-- Node57&#45;&gt;Node37 -->
<g id="edge35" class="edge">
<title>Node57&#45;&gt;Node37</title>
<path fill="none" stroke="#191970" d="M295.5815,-471.9336C318.4347,-474.0012 344.2024,-476.3326 367.5787,-478.4476"/>
<polygon fill="#191970" stroke="#191970" points="367.5076,-481.9554 377.7823,-479.3708 368.1384,-474.9838 367.5076,-481.9554"/>
</g>
<!-- Node58&#45;&gt;Node38 -->
<g id="edge37" class="edge">
<title>Node58&#45;&gt;Node38</title>
<path fill="none" stroke="#191970" d="M507.5063,-456.5335C515.3532,-458.9993 523.0323,-462.1004 530,-466 550.3012,-477.362 546.0867,-491.9711 566,-504 569.5755,-506.1598 573.4052,-508.082 577.3567,-509.7915"/>
<polygon fill="#191970" stroke="#191970" points="576.1459,-513.0757 586.7356,-513.4058 578.6631,-506.544 576.1459,-513.0757"/>
</g>
<!-- Node58&#45;&gt;Node39 -->
<g id="edge38" class="edge">
<title>Node58&#45;&gt;Node39</title>
<path fill="none" stroke="#191970" d="M488.8282,-456.589C515.0528,-461.739 547.5617,-468.1232 575.1162,-473.5344"/>
<polygon fill="#191970" stroke="#191970" points="574.5358,-476.9873 585.0229,-475.4799 575.8848,-470.1185 574.5358,-476.9873"/>
</g>
<!-- Node58&#45;&gt;Node42 -->
<g id="edge40" class="edge">
<title>Node58&#45;&gt;Node42</title>
<path fill="none" stroke="#191970" d="M488.8282,-437.411C515.0528,-432.261 547.5617,-425.8768 575.1162,-420.4656"/>
<polygon fill="#191970" stroke="#191970" points="575.8848,-423.8815 585.0229,-418.5201 574.5358,-417.0127 575.8848,-423.8815"/>
</g>
<!-- Node58&#45;&gt;Node48 -->
<g id="edge39" class="edge">
<title>Node58&#45;&gt;Node48</title>
<path fill="none" stroke="#191970" d="M530.2351,-447C540.3996,-447 550.6604,-447 560.5661,-447"/>
<polygon fill="#191970" stroke="#191970" points="560.7414,-450.5001 570.7414,-447 560.7413,-443.5001 560.7414,-450.5001"/>
</g>
</g>
</svg>
