<?xml version="1.0" encoding="UTF-8" standalone="no"?>
<!DOCTYPE svg PUBLIC "-//W3C//DTD SVG 1.1//EN"
 "http://www.w3.org/Graphics/SVG/1.1/DTD/svg11.dtd">
<!-- Generated by graphviz version 2.40.1 (20161225.0304)
 -->
<!-- Title: RecordProcessor::process Pages: 1 -->
<svg width="993pt" height="856pt"
 viewBox="0.00 0.00 993.00 855.79" xmlns="http://www.w3.org/2000/svg" xmlns:xlink="http://www.w3.org/1999/xlink">
<g id="graph0" class="graph" transform="scale(1 1) rotate(0) translate(4 851.7885)">
<title>RecordProcessor::process</title>
<polygon fill="#ffffff" stroke="transparent" points="-4,4 -4,-851.7885 989,-851.7885 989,4 -4,4"/>
<!-- Node200 -->
<g id="node1" class="node">
<title>Node200</title>
<polygon fill="#bfbfbf" stroke="#000000" points="0,-296 0,-315 140,-315 140,-296 0,-296"/>
<text text-anchor="middle" x="70" y="-303" font-family="Helvetica,sans-Serif" font-size="10.00" fill="#000000">RecordProcessor::process</text>
</g>
<!-- Node201 -->
<g id="node2" class="node">
<title>Node201</title>
<g id="a_node2"><a xlink:href="classFweelin.html#a538440216608aed67e6940c2903c3072" target="_top" xlink:title="Fweelin::getBUFSZ">
<polygon fill="#ffffff" stroke="#000000" points="202,-699 202,-718 310,-718 310,-699 202,-699"/>
<text text-anchor="middle" x="256" y="-706" font-family="Helvetica,sans-Serif" font-size="10.00" fill="#000000">Fweelin::getBUFSZ</text>
</a>
</g>
</g>
<!-- Node200&#45;&gt;Node201 -->
<g id="edge1" class="edge">
<title>Node200&#45;&gt;Node201</title>
<path fill="none" stroke="#191970" d="M71.3361,-315.2213C78.9834,-369.4792 118.878,-634.4068 176,-689.5 180.6526,-693.9874 186.1622,-697.4817 192.0801,-700.194"/>
<polygon fill="#191970" stroke="#191970" points="191.0604,-703.5509 201.6513,-703.8426 193.5539,-697.01 191.0604,-703.5509"/>
</g>
<!-- Node202 -->
<g id="node3" class="node">
<title>Node202</title>
<g id="a_node3"><a xlink:href="classPulse.html#a5eee2c71b153156f961ea9f71a55086e" target="_top" xlink:title="Pulse::AddPulseSync">
<polygon fill="#ffffff" stroke="#000000" points="197.5,-661 197.5,-680 314.5,-680 314.5,-661 197.5,-661"/>
<text text-anchor="middle" x="256" y="-668" font-family="Helvetica,sans-Serif" font-size="10.00" fill="#000000">Pulse::AddPulseSync</text>
</a>
</g>
</g>
<!-- Node200&#45;&gt;Node202 -->
<g id="edge2" class="edge">
<title>Node200&#45;&gt;Node202</title>
<path fill="none" stroke="#191970" d="M71.652,-315.2537C80.4919,-366.3308 123.7597,-602.5054 176,-651.5 179.5858,-654.863 183.6545,-657.665 188.0113,-659.9961"/>
<polygon fill="#191970" stroke="#191970" points="186.739,-663.2611 197.2966,-664.1486 189.5968,-656.871 186.739,-663.2611"/>
</g>
<!-- Node203 -->
<g id="node4" class="node">
<title>Node203</title>
<g id="a_node4"><a xlink:href="classPulse.html#a3251783157dd6440cb94ca966d2de06e" target="_top" xlink:title="Pulse::DelPulseSync">
<polygon fill="#ffffff" stroke="#000000" points="198.5,-623 198.5,-642 313.5,-642 313.5,-623 198.5,-623"/>
<text text-anchor="middle" x="256" y="-630" font-family="Helvetica,sans-Serif" font-size="10.00" fill="#000000">Pulse::DelPulseSync</text>
</a>
</g>
</g>
<!-- Node200&#45;&gt;Node203 -->
<g id="edge3" class="edge">
<title>Node200&#45;&gt;Node203</title>
<path fill="none" stroke="#191970" d="M72.0078,-315.1139C82.0852,-362.4828 128.5448,-570.4937 176,-613.5 179.8675,-617.0049 184.2621,-619.8962 188.9544,-622.2777"/>
<polygon fill="#191970" stroke="#191970" points="187.713,-625.5533 198.2845,-626.2564 190.4589,-619.1143 187.713,-625.5533"/>
</g>
<!-- Node204 -->
<g id="node5" class="node">
<title>Node204</title>
<g id="a_node5"><a xlink:href="classLoop.html#a74cea590fcf8c174888dd916e252389b" target="_top" xlink:title="Loop::UpdateVolume">
<polygon fill="#ffffff" stroke="#000000" points="197,-585 197,-604 315,-604 315,-585 197,-585"/>
<text text-anchor="middle" x="256" y="-592" font-family="Helvetica,sans-Serif" font-size="10.00" fill="#000000">Loop::UpdateVolume</text>
</a>
</g>
</g>
<!-- Node200&#45;&gt;Node204 -->
<g id="edge4" class="edge">
<title>Node200&#45;&gt;Node204</title>
<path fill="none" stroke="#191970" d="M70.6897,-315.1693C74.0234,-354.3315 91.9601,-502.541 176,-575.5 179.4899,-578.5298 183.3766,-581.0971 187.5039,-583.2705"/>
<polygon fill="#191970" stroke="#191970" points="186.303,-586.5668 196.863,-587.4258 189.1436,-580.169 186.303,-586.5668"/>
</g>
<!-- Node205 -->
<g id="node6" class="node">
<title>Node205</title>
<g id="a_node6"><a xlink:href="classAudioBlockIterator.html#aee775d7a85e66fa08144b582658a9cac" target="_top" xlink:title="AudioBlockIterator\l::Jump">
<polygon fill="#ffffff" stroke="#000000" points="619.5,-544.5 619.5,-574.5 726.5,-574.5 726.5,-544.5 619.5,-544.5"/>
<text text-anchor="start" x="627.5" y="-562.5" font-family="Helvetica,sans-Serif" font-size="10.00" fill="#000000">AudioBlockIterator</text>
<text text-anchor="middle" x="673" y="-551.5" font-family="Helvetica,sans-Serif" font-size="10.00" fill="#000000">::Jump</text>
</a>
</g>
</g>
<!-- Node200&#45;&gt;Node205 -->
<g id="edge5" class="edge">
<title>Node200&#45;&gt;Node205</title>
<path fill="none" stroke="#191970" d="M83.2105,-315.1056C103.0939,-329.4752 142.0075,-357.2575 176,-379.5 261.4698,-435.4259 276.8848,-462.2725 372,-499.5 393.7997,-508.0323 527.5098,-533.1241 609.2135,-548.0199"/>
<polygon fill="#191970" stroke="#191970" points="608.9336,-551.5263 619.3986,-549.8731 610.1867,-544.6394 608.9336,-551.5263"/>
</g>
<!-- Node208 -->
<g id="node9" class="node">
<title>Node208</title>
<g id="a_node9"><a xlink:href="classAudioBlockIterator.html#a86cfc4c09c380d6304ed3aa6ff2ea17b" target="_top" xlink:title="AudioBlockIterator\l::GetFragment">
<polygon fill="#ffffff" stroke="#000000" points="407,-219.5 407,-249.5 514,-249.5 514,-219.5 407,-219.5"/>
<text text-anchor="start" x="415" y="-237.5" font-family="Helvetica,sans-Serif" font-size="10.00" fill="#000000">AudioBlockIterator</text>
<text text-anchor="middle" x="460.5" y="-226.5" font-family="Helvetica,sans-Serif" font-size="10.00" fill="#000000">::GetFragment</text>
</a>
</g>
</g>
<!-- Node200&#45;&gt;Node208 -->
<g id="edge8" class="edge">
<title>Node200&#45;&gt;Node208</title>
<path fill="none" stroke="#191970" d="M109.3978,-295.9988C129.3047,-291.3461 153.8715,-285.829 176,-281.5 251.5468,-266.7206 338.9821,-252.7389 396.768,-243.9288"/>
<polygon fill="#191970" stroke="#191970" points="397.4855,-247.3601 406.8469,-242.3988 396.4349,-240.4394 397.4855,-247.3601"/>
</g>
<!-- Node211 -->
<g id="node12" class="node">
<title>Node211</title>
<g id="a_node12"><a xlink:href="classAudioBuffers.html#a0ef951c1d9fa74a04d269cf8cbfe218d" target="_top" xlink:title="AudioBuffers::MixInputs">
<polygon fill="#ffffff" stroke="#000000" points="190,-214 190,-233 322,-233 322,-214 190,-214"/>
<text text-anchor="middle" x="256" y="-221" font-family="Helvetica,sans-Serif" font-size="10.00" fill="#000000">AudioBuffers::MixInputs</text>
</a>
</g>
</g>
<!-- Node200&#45;&gt;Node211 -->
<g id="edge11" class="edge">
<title>Node200&#45;&gt;Node211</title>
<path fill="none" stroke="#191970" d="M85.2944,-295.7941C105.4574,-283.3156 142.3248,-261.5816 176,-247.5 186.3449,-243.1742 197.7395,-239.2719 208.6058,-235.932"/>
<polygon fill="#191970" stroke="#191970" points="209.801,-239.2282 218.3913,-233.0268 207.8087,-232.5177 209.801,-239.2282"/>
</g>
<!-- Node214 -->
<g id="node15" class="node">
<title>Node214</title>
<g id="a_node15"><a xlink:href="classRecordProcessor.html#ab8e5a9b5fca2d7690df56a5209b57e50" target="_top" xlink:title="RecordProcessor::FadeOut\l_Input">
<polygon fill="#ffffff" stroke="#000000" points="184.5,-164.5 184.5,-194.5 327.5,-194.5 327.5,-164.5 184.5,-164.5"/>
<text text-anchor="start" x="192.5" y="-182.5" font-family="Helvetica,sans-Serif" font-size="10.00" fill="#000000">RecordProcessor::FadeOut</text>
<text text-anchor="middle" x="256" y="-171.5" font-family="Helvetica,sans-Serif" font-size="10.00" fill="#000000">_Input</text>
</a>
</g>
</g>
<!-- Node200&#45;&gt;Node214 -->
<g id="edge14" class="edge">
<title>Node200&#45;&gt;Node214</title>
<path fill="none" stroke="#191970" d="M77.4193,-295.9268C93.3382,-276.0197 132.8469,-229.9041 176,-204.5 179.6679,-202.3407 183.542,-200.3485 187.5273,-198.5134"/>
<polygon fill="#191970" stroke="#191970" points="189.1381,-201.6323 196.9834,-194.5118 186.41,-195.1857 189.1381,-201.6323"/>
</g>
<!-- Node215 -->
<g id="node16" class="node">
<title>Node215</title>
<g id="a_node16"><a xlink:href="classAudioBlockIterator.html#a5cc11c9589308f5da0fea19c701c84b3" target="_top" xlink:title="AudioBlockIterator\l::PutFragment">
<polygon fill="#ffffff" stroke="#000000" points="202.5,-339.5 202.5,-369.5 309.5,-369.5 309.5,-339.5 202.5,-339.5"/>
<text text-anchor="start" x="210.5" y="-357.5" font-family="Helvetica,sans-Serif" font-size="10.00" fill="#000000">AudioBlockIterator</text>
<text text-anchor="middle" x="256" y="-346.5" font-family="Helvetica,sans-Serif" font-size="10.00" fill="#000000">::PutFragment</text>
</a>
</g>
</g>
<!-- Node200&#45;&gt;Node215 -->
<g id="edge15" class="edge">
<title>Node200&#45;&gt;Node215</title>
<path fill="none" stroke="#191970" d="M106.3042,-315.064C130.7036,-321.4918 163.5223,-330.1376 192.2126,-337.6958"/>
<polygon fill="#191970" stroke="#191970" points="191.6062,-341.1554 202.1679,-340.3184 193.3895,-334.3863 191.6062,-341.1554"/>
</g>
<!-- Node223 -->
<g id="node24" class="node">
<title>Node223</title>
<g id="a_node24"><a xlink:href="classFweelin.html#a681d7ca8d0789199af135f22c26a5409" target="_top" xlink:title="Fweelin::getCFG">
<polygon fill="#ffffff" stroke="#000000" points="208.5,-126 208.5,-145 303.5,-145 303.5,-126 208.5,-126"/>
<text text-anchor="middle" x="256" y="-133" font-family="Helvetica,sans-Serif" font-size="10.00" fill="#000000">Fweelin::getCFG</text>
</a>
</g>
</g>
<!-- Node200&#45;&gt;Node223 -->
<g id="edge24" class="edge">
<title>Node200&#45;&gt;Node223</title>
<path fill="none" stroke="#191970" d="M73.8045,-295.8993C85.006,-268.9414 120.598,-192.0748 176,-154.5 182.8034,-149.8858 190.594,-146.3861 198.5835,-143.7329"/>
<polygon fill="#191970" stroke="#191970" points="199.7422,-147.0413 208.3745,-140.8985 197.7956,-140.3173 199.7422,-147.0413"/>
</g>
<!-- Node224 -->
<g id="node25" class="node">
<title>Node224</title>
<g id="a_node25"><a xlink:href="classFloConfig.html#a4025d10075b94c5668acab38aedb0f1e" target="_top" xlink:title="FloConfig::GetMaxPlayVol">
<polygon fill="#ffffff" stroke="#000000" points="185.5,-88 185.5,-107 326.5,-107 326.5,-88 185.5,-88"/>
<text text-anchor="middle" x="256" y="-95" font-family="Helvetica,sans-Serif" font-size="10.00" fill="#000000">FloConfig::GetMaxPlayVol</text>
</a>
</g>
</g>
<!-- Node200&#45;&gt;Node224 -->
<g id="edge25" class="edge">
<title>Node200&#45;&gt;Node224</title>
<path fill="none" stroke="#191970" d="M72.4339,-295.8234C80.841,-264.4834 111.7346,-164.993 176,-116.5 178.4838,-114.6258 181.1246,-112.933 183.8776,-111.4043"/>
<polygon fill="#191970" stroke="#191970" points="185.4749,-114.5204 192.9972,-107.0595 182.4641,-108.2009 185.4749,-114.5204"/>
</g>
<!-- Node225 -->
<g id="node26" class="node">
<title>Node225</title>
<g id="a_node26"><a xlink:href="classProcessor.html#a5df6a0b8a5cf976315492246ab6c671e" target="_top" xlink:title="Processor::fadepreandcurrent">
<polygon fill="#ffffff" stroke="#000000" points="176,-50 176,-69 336,-69 336,-50 176,-50"/>
<text text-anchor="middle" x="256" y="-57" font-family="Helvetica,sans-Serif" font-size="10.00" fill="#000000">Processor::fadepreandcurrent</text>
</a>
</g>
</g>
<!-- Node200&#45;&gt;Node225 -->
<g id="edge26" class="edge">
<title>Node200&#45;&gt;Node225</title>
<path fill="none" stroke="#191970" d="M71.4539,-295.9382C77.3082,-260.8887 102.4841,-138.3828 176,-78.5 178.0822,-76.8039 180.2904,-75.2546 182.5948,-73.8395"/>
<polygon fill="#191970" stroke="#191970" points="184.6277,-76.7282 191.8972,-69.0207 181.4079,-70.5126 184.6277,-76.7282"/>
</g>
<!-- Node226 -->
<g id="node27" class="node">
<title>Node226</title>
<g id="a_node27"><a xlink:href="classRecordProcessor.html#ace40b6e2a9910f34da767ae8e21d6420" target="_top" xlink:title="RecordProcessor::FadeIn\l_Input">
<polygon fill="#ffffff" stroke="#000000" points="189,-.5 189,-30.5 323,-30.5 323,-.5 189,-.5"/>
<text text-anchor="start" x="197" y="-18.5" font-family="Helvetica,sans-Serif" font-size="10.00" fill="#000000">RecordProcessor::FadeIn</text>
<text text-anchor="middle" x="256" y="-7.5" font-family="Helvetica,sans-Serif" font-size="10.00" fill="#000000">_Input</text>
</a>
</g>
</g>
<!-- Node200&#45;&gt;Node226 -->
<g id="edge27" class="edge">
<title>Node200&#45;&gt;Node226</title>
<path fill="none" stroke="#191970" d="M70.9232,-295.9063C75.1177,-257.6794 95.802,-114.7026 176,-40.5 177.6922,-38.9343 179.4814,-37.4666 181.3491,-36.0908"/>
<polygon fill="#191970" stroke="#191970" points="183.4038,-38.9326 189.9834,-30.6284 179.6613,-33.017 183.4038,-38.9326"/>
</g>
<!-- Node227 -->
<g id="node28" class="node">
<title>Node227</title>
<g id="a_node28"><a xlink:href="classRecordProcessor.html#a9984f573bbc265321ad0604f97b23820" target="_top" xlink:title="RecordProcessor::EndNow">
<polygon fill="#ffffff" stroke="#000000" points="184.5,-547 184.5,-566 327.5,-566 327.5,-547 184.5,-547"/>
<text text-anchor="middle" x="256" y="-554" font-family="Helvetica,sans-Serif" font-size="10.00" fill="#000000">RecordProcessor::EndNow</text>
</a>
</g>
</g>
<!-- Node200&#45;&gt;Node227 -->
<g id="edge28" class="edge">
<title>Node200&#45;&gt;Node227</title>
<path fill="none" stroke="#191970" d="M71.6587,-315.4029C78.0787,-350.592 104.5891,-470.7852 176,-532.5 180.8238,-536.6689 186.3506,-540.1137 192.1965,-542.9602"/>
<polygon fill="#191970" stroke="#191970" points="191.0185,-546.2626 201.5905,-546.9588 193.7602,-539.8218 191.0185,-546.2626"/>
</g>
<!-- Node245 -->
<g id="node46" class="node">
<title>Node245</title>
<g id="a_node46"><a xlink:href="classAudioBlockIterator.html#ae0521dee0479a9203bed6515bfc89568" target="_top" xlink:title="AudioBlockIterator\l::NextFragment">
<polygon fill="#ffffff" stroke="#000000" points="202.5,-290.5 202.5,-320.5 309.5,-320.5 309.5,-290.5 202.5,-290.5"/>
<text text-anchor="start" x="210.5" y="-308.5" font-family="Helvetica,sans-Serif" font-size="10.00" fill="#000000">AudioBlockIterator</text>
<text text-anchor="middle" x="256" y="-297.5" font-family="Helvetica,sans-Serif" font-size="10.00" fill="#000000">::NextFragment</text>
</a>
</g>
</g>
<!-- Node200&#45;&gt;Node245 -->
<g id="edge58" class="edge">
<title>Node200&#45;&gt;Node245</title>
<path fill="none" stroke="#191970" d="M140.0536,-305.5C157.1095,-305.5 175.2638,-305.5 192.0209,-305.5"/>
<polygon fill="#191970" stroke="#191970" points="192.2518,-309.0001 202.2518,-305.5 192.2518,-302.0001 192.2518,-309.0001"/>
</g>
<!-- Node206 -->
<g id="node7" class="node">
<title>Node206</title>
<g id="a_node7"><a xlink:href="classAudioBlock.html#a380880c91c3af2322d232ce2de83b881" target="_top" xlink:title="AudioBlock::GetTotalLen">
<polygon fill="#ffffff" stroke="#000000" points="823.5,-506 823.5,-525 958.5,-525 958.5,-506 823.5,-506"/>
<text text-anchor="middle" x="891" y="-513" font-family="Helvetica,sans-Serif" font-size="10.00" fill="#000000">AudioBlock::GetTotalLen</text>
</a>
</g>
</g>
<!-- Node205&#45;&gt;Node206 -->
<g id="edge6" class="edge">
<title>Node205&#45;&gt;Node206</title>
<path fill="none" stroke="#191970" d="M726.608,-548.68C759.1695,-542.108 800.713,-533.7231 833.8905,-527.0267"/>
<polygon fill="#191970" stroke="#191970" points="834.7893,-530.4159 843.8991,-525.0066 833.4043,-523.5543 834.7893,-530.4159"/>
</g>
<!-- Node207 -->
<g id="node8" class="node">
<title>Node207</title>
<g id="a_node8"><a xlink:href="classAudioBlock.html#a4f53140535b4c56db4c5360f3fb9eb7d" target="_top" xlink:title="AudioBlock::SetPtrsFromAbs\lOffset">
<polygon fill="#ffffff" stroke="#000000" points="814,-544.5 814,-574.5 968,-574.5 968,-544.5 814,-544.5"/>
<text text-anchor="start" x="822" y="-562.5" font-family="Helvetica,sans-Serif" font-size="10.00" fill="#000000">AudioBlock::SetPtrsFromAbs</text>
<text text-anchor="middle" x="891" y="-551.5" font-family="Helvetica,sans-Serif" font-size="10.00" fill="#000000">Offset</text>
</a>
</g>
</g>
<!-- Node205&#45;&gt;Node207 -->
<g id="edge7" class="edge">
<title>Node205&#45;&gt;Node207</title>
<path fill="none" stroke="#191970" d="M726.608,-559.5C749.7576,-559.5 777.4471,-559.5 803.4426,-559.5"/>
<polygon fill="#191970" stroke="#191970" points="803.6907,-563.0001 813.6907,-559.5 803.6906,-556.0001 803.6907,-563.0001"/>
</g>
<!-- Node209 -->
<g id="node10" class="node">
<title>Node209</title>
<g id="a_node10"><a xlink:href="classAudioBlock.html#ae7aec1591ed6f228799c11b650b2cc1b" target="_top" xlink:title="AudioBlock::GetExtendedData">
<polygon fill="#ffffff" stroke="#000000" points="591,-202 591,-221 755,-221 755,-202 591,-202"/>
<text text-anchor="middle" x="673" y="-209" font-family="Helvetica,sans-Serif" font-size="10.00" fill="#000000">AudioBlock::GetExtendedData</text>
</a>
</g>
</g>
<!-- Node208&#45;&gt;Node209 -->
<g id="edge9" class="edge">
<title>Node208&#45;&gt;Node209</title>
<path fill="none" stroke="#191970" d="M514.1227,-228.6961C534.3651,-226.5052 558.017,-223.9452 580.7927,-221.4801"/>
<polygon fill="#191970" stroke="#191970" points="581.2672,-224.9493 590.8324,-220.3934 580.5139,-217.9899 581.2672,-224.9493"/>
</g>
<!-- Node210 -->
<g id="node11" class="node">
<title>Node210</title>
<g id="a_node11"><a xlink:href="classBlockExtendedData.html#ae33e9550384a32abf2a91386334a2be9" target="_top" xlink:title="BlockExtendedData::\lGetType">
<polygon fill="#ffffff" stroke="#000000" points="831.5,-196.5 831.5,-226.5 950.5,-226.5 950.5,-196.5 831.5,-196.5"/>
<text text-anchor="start" x="839.5" y="-214.5" font-family="Helvetica,sans-Serif" font-size="10.00" fill="#000000">BlockExtendedData::</text>
<text text-anchor="middle" x="891" y="-203.5" font-family="Helvetica,sans-Serif" font-size="10.00" fill="#000000">GetType</text>
</a>
</g>
</g>
<!-- Node209&#45;&gt;Node210 -->
<g id="edge10" class="edge">
<title>Node209&#45;&gt;Node210</title>
<path fill="none" stroke="#191970" d="M755.1058,-211.5C776.8877,-211.5 800.1979,-211.5 821.2528,-211.5"/>
<polygon fill="#191970" stroke="#191970" points="821.3912,-215.0001 831.3911,-211.5 821.3911,-208.0001 821.3912,-215.0001"/>
</g>
<!-- Node212 -->
<g id="node13" class="node">
<title>Node212</title>
<g id="a_node13"><a xlink:href="classFweelin.html#acb51892233f08f4b0b9f2e7d7a625448" target="_top" xlink:title="Fweelin::getAUDIO">
<polygon fill="#ffffff" stroke="#000000" points="406.5,-181 406.5,-200 514.5,-200 514.5,-181 406.5,-181"/>
<text text-anchor="middle" x="460.5" y="-188" font-family="Helvetica,sans-Serif" font-size="10.00" fill="#000000">Fweelin::getAUDIO</text>
</a>
</g>
</g>
<!-- Node211&#45;&gt;Node212 -->
<g id="edge12" class="edge">
<title>Node211&#45;&gt;Node212</title>
<path fill="none" stroke="#191970" d="M314.8755,-213.9993C340.2923,-209.8978 370.0984,-205.088 396.1017,-200.8919"/>
<polygon fill="#191970" stroke="#191970" points="396.9221,-204.3049 406.2367,-199.2564 395.8068,-197.3943 396.9221,-204.3049"/>
</g>
<!-- Node213 -->
<g id="node14" class="node">
<title>Node213</title>
<g id="a_node14"><a xlink:href="classAudioIO.html#ab175bb73ae9aadb84940dace46c71fd8" target="_top" xlink:title="AudioIO::get_srate">
<polygon fill="#ffffff" stroke="#000000" points="407,-143 407,-162 514,-162 514,-143 407,-143"/>
<text text-anchor="middle" x="460.5" y="-150" font-family="Helvetica,sans-Serif" font-size="10.00" fill="#000000">AudioIO::get_srate</text>
</a>
</g>
</g>
<!-- Node211&#45;&gt;Node213 -->
<g id="edge13" class="edge">
<title>Node211&#45;&gt;Node213</title>
<path fill="none" stroke="#191970" d="M309.4046,-213.9694C318.5634,-211.273 327.7711,-207.845 336,-203.5 354.9304,-193.5044 352.9049,-181.1771 372,-171.5 379.7402,-167.5774 388.2589,-164.463 396.86,-161.9906"/>
<polygon fill="#191970" stroke="#191970" points="397.7732,-165.3696 406.5689,-159.4632 396.0097,-158.5954 397.7732,-165.3696"/>
</g>
<!-- Node215&#45;&gt;Node209 -->
<g id="edge16" class="edge">
<title>Node215&#45;&gt;Node209</title>
<path fill="none" stroke="#191970" d="M309.884,-341.9865C318.8969,-338.8769 327.9312,-335.0846 336,-330.5 354.8716,-319.7773 352.7149,-307.4596 372,-297.5 443.4886,-260.5804 476.3697,-294.1197 549,-259.5 567.5465,-250.6597 566.4587,-239.3511 585,-230.5 590.2409,-227.9981 595.8143,-225.8223 601.5132,-223.9305"/>
<polygon fill="#191970" stroke="#191970" points="602.6261,-227.2506 611.1861,-221.0075 600.6012,-220.5498 602.6261,-227.2506"/>
</g>
<!-- Node216 -->
<g id="node17" class="node">
<title>Node216</title>
<g id="a_node17"><a xlink:href="classPreallocatedType.html#ae8a5326530dd0f38ecbb094f7818bd42" target="_top" xlink:title="PreallocatedType::RTNew">
<polygon fill="#ffffff" stroke="#000000" points="390.5,-345 390.5,-364 530.5,-364 530.5,-345 390.5,-345"/>
<text text-anchor="middle" x="460.5" y="-352" font-family="Helvetica,sans-Serif" font-size="10.00" fill="#000000">PreallocatedType::RTNew</text>
</a>
</g>
</g>
<!-- Node215&#45;&gt;Node216 -->
<g id="edge17" class="edge">
<title>Node215&#45;&gt;Node216</title>
<path fill="none" stroke="#191970" d="M309.73,-354.5C331.2678,-354.5 356.5445,-354.5 380.1806,-354.5"/>
<polygon fill="#191970" stroke="#191970" points="380.1943,-358.0001 390.1943,-354.5 380.1942,-351.0001 380.1943,-358.0001"/>
</g>
<!-- Node222 -->
<g id="node23" class="node">
<title>Node222</title>
<g id="a_node23"><a xlink:href="classAudioBlock.html#aa3129140d4e8c54e83afbef223cf8a65" target="_top" xlink:title="AudioBlock::AddExtendedData">
<polygon fill="#ffffff" stroke="#000000" points="378,-307 378,-326 543,-326 543,-307 378,-307"/>
<text text-anchor="middle" x="460.5" y="-314" font-family="Helvetica,sans-Serif" font-size="10.00" fill="#000000">AudioBlock::AddExtendedData</text>
</a>
</g>
</g>
<!-- Node215&#45;&gt;Node222 -->
<g id="edge23" class="edge">
<title>Node215&#45;&gt;Node222</title>
<path fill="none" stroke="#191970" d="M309.73,-344.5159C337.2531,-339.4016 370.8822,-333.1527 399.3906,-327.8553"/>
<polygon fill="#191970" stroke="#191970" points="400.0501,-331.2927 409.2424,-326.0246 398.7712,-324.4105 400.0501,-331.2927"/>
</g>
<!-- Node217 -->
<g id="node18" class="node">
<title>Node217</title>
<g id="a_node18"><a xlink:href="classRTStore.html#a2be0d247570dc611a379ab0a80dd14da" target="_top" xlink:title="RTStore::FindItemWithState">
<polygon fill="#ffffff" stroke="#000000" points="598,-240 598,-259 748,-259 748,-240 598,-240"/>
<text text-anchor="middle" x="673" y="-247" font-family="Helvetica,sans-Serif" font-size="10.00" fill="#000000">RTStore::FindItemWithState</text>
</a>
</g>
</g>
<!-- Node216&#45;&gt;Node217 -->
<g id="edge18" class="edge">
<title>Node216&#45;&gt;Node217</title>
<path fill="none" stroke="#191970" d="M530.6845,-345.5389C537.2316,-342.9427 543.473,-339.6548 549,-335.5 576.0207,-315.1875 557.9911,-288.8282 585,-268.5 587.48,-266.6334 590.1049,-264.9421 592.8371,-263.41"/>
<polygon fill="#191970" stroke="#191970" points="594.4011,-266.5415 601.8827,-259.0398 591.3559,-260.2386 594.4011,-266.5415"/>
</g>
<!-- Node218 -->
<g id="node19" class="node">
<title>Node218</title>
<g id="a_node19"><a xlink:href="classRTStore.html#af3c93f31bd68ce149a812b05d9e7cd86" target="_top" xlink:title="RTStore::ChangeStateAtIdx">
<polygon fill="#ffffff" stroke="#000000" points="599,-316 599,-335 747,-335 747,-316 599,-316"/>
<text text-anchor="middle" x="673" y="-323" font-family="Helvetica,sans-Serif" font-size="10.00" fill="#000000">RTStore::ChangeStateAtIdx</text>
</a>
</g>
</g>
<!-- Node216&#45;&gt;Node218 -->
<g id="edge19" class="edge">
<title>Node216&#45;&gt;Node218</title>
<path fill="none" stroke="#191970" d="M530.3748,-344.9641C550.4384,-342.226 572.4702,-339.2194 593.0894,-336.4055"/>
<polygon fill="#191970" stroke="#191970" points="593.6484,-339.8617 603.0832,-335.0416 592.7018,-332.926 593.6484,-339.8617"/>
</g>
<!-- Node219 -->
<g id="node20" class="node">
<title>Node219</title>
<g id="a_node20"><a xlink:href="classMemoryManager.html#a3971e97751f5eccd04086eb2e6fb6f43" target="_top" xlink:title="MemoryManager::WakeUp">
<polygon fill="#ffffff" stroke="#000000" points="600.5,-278 600.5,-297 745.5,-297 745.5,-278 600.5,-278"/>
<text text-anchor="middle" x="673" y="-285" font-family="Helvetica,sans-Serif" font-size="10.00" fill="#000000">MemoryManager::WakeUp</text>
</a>
</g>
</g>
<!-- Node216&#45;&gt;Node219 -->
<g id="edge20" class="edge">
<title>Node216&#45;&gt;Node219</title>
<path fill="none" stroke="#191970" d="M523.1336,-344.8931C532.0417,-342.4339 540.9142,-339.3541 549,-335.5 567.5465,-326.6597 566.4587,-315.3511 585,-306.5 590.2409,-303.9981 595.8143,-301.8223 601.5132,-299.9305"/>
<polygon fill="#191970" stroke="#191970" points="602.6261,-303.2506 611.1861,-297.0075 600.6012,-296.5498 602.6261,-303.2506"/>
</g>
<!-- Node220 -->
<g id="node21" class="node">
<title>Node220</title>
<g id="a_node21"><a xlink:href="classSRMWRingBuffer.html#a47699ccc0600c38559c8e10f0ca9bf3c" target="_top" xlink:title="SRMWRingBuffer::WriteElement">
<polygon fill="#ffffff" stroke="#000000" points="806,-335 806,-354 976,-354 976,-335 806,-335"/>
<text text-anchor="middle" x="891" y="-342" font-family="Helvetica,sans-Serif" font-size="10.00" fill="#000000">SRMWRingBuffer::WriteElement</text>
</a>
</g>
</g>
<!-- Node219&#45;&gt;Node220 -->
<g id="edge21" class="edge">
<title>Node219&#45;&gt;Node220</title>
<path fill="none" stroke="#191970" d="M720.1856,-297.0355C733.4346,-299.8897 747.8198,-303.1554 761,-306.5 791.3822,-314.2098 825.3726,-324.194 850.9754,-331.9934"/>
<polygon fill="#191970" stroke="#191970" points="850.1131,-335.3898 860.6998,-334.9735 852.1642,-328.697 850.1131,-335.3898"/>
</g>
<!-- Node221 -->
<g id="node22" class="node">
<title>Node221</title>
<g id="a_node22"><a xlink:href="classMemoryManager.html#ab15be510a88e9eab04db2d6554d7e947" target="_top" xlink:title="MemoryManager::WakeupIfNeeded">
<polygon fill="#ffffff" stroke="#000000" points="797,-278 797,-297 985,-297 985,-278 797,-278"/>
<text text-anchor="middle" x="891" y="-285" font-family="Helvetica,sans-Serif" font-size="10.00" fill="#000000">MemoryManager::WakeupIfNeeded</text>
</a>
</g>
</g>
<!-- Node219&#45;&gt;Node221 -->
<g id="edge22" class="edge">
<title>Node219&#45;&gt;Node221</title>
<path fill="none" stroke="#191970" d="M745.5908,-287.5C758.7471,-287.5 772.7029,-287.5 786.5602,-287.5"/>
<polygon fill="#191970" stroke="#191970" points="786.6203,-291.0001 796.6202,-287.5 786.6202,-284.0001 786.6203,-291.0001"/>
</g>
<!-- Node228 -->
<g id="node29" class="node">
<title>Node228</title>
<g id="a_node29"><a xlink:href="classEvent.html#aa67af0ae99b897e4f0ce42068c4e4c00" target="_top" xlink:title="Event::GetEventByType">
<polygon fill="#ffffff" stroke="#000000" points="395,-749 395,-768 526,-768 526,-749 395,-749"/>
<text text-anchor="middle" x="460.5" y="-756" font-family="Helvetica,sans-Serif" font-size="10.00" fill="#000000">Event::GetEventByType</text>
</a>
</g>
</g>
<!-- Node227&#45;&gt;Node228 -->
<g id="edge29" class="edge">
<title>Node227&#45;&gt;Node228</title>
<path fill="none" stroke="#191970" d="M323.3403,-566.1545C327.9937,-568.6587 332.2972,-571.7334 336,-575.5 388.3144,-628.7165 319.1113,-686.8543 372,-739.5 375.9677,-743.4495 380.545,-746.6677 385.4854,-749.2817"/>
<polygon fill="#191970" stroke="#191970" points="384.1555,-752.5205 394.7169,-753.3618 386.9853,-746.118 384.1555,-752.5205"/>
</g>
<!-- Node229 -->
<g id="node30" class="node">
<title>Node229</title>
<g id="a_node30"><a xlink:href="classAudioBlockIterator.html#afdaa1beeae81dbfb277fae51bee42ca0" target="_top" xlink:title="AudioBlockIterator\l::GetTotalLength2Cur">
<polygon fill="#ffffff" stroke="#000000" points="401,-699.5 401,-729.5 520,-729.5 520,-699.5 401,-699.5"/>
<text text-anchor="start" x="409" y="-717.5" font-family="Helvetica,sans-Serif" font-size="10.00" fill="#000000">AudioBlockIterator</text>
<text text-anchor="middle" x="460.5" y="-706.5" font-family="Helvetica,sans-Serif" font-size="10.00" fill="#000000">::GetTotalLength2Cur</text>
</a>
</g>
</g>
<!-- Node227&#45;&gt;Node229 -->
<g id="edge30" class="edge">
<title>Node227&#45;&gt;Node229</title>
<path fill="none" stroke="#191970" d="M322.207,-566.1396C327.2312,-568.632 331.9228,-571.709 336,-575.5 374.9112,-611.6805 333.8595,-652.5079 372,-689.5 377.6409,-694.971 384.384,-699.2624 391.5971,-702.6255"/>
<polygon fill="#191970" stroke="#191970" points="390.3548,-705.8985 400.9374,-706.408 392.9823,-699.4103 390.3548,-705.8985"/>
</g>
<!-- Node230 -->
<g id="node31" class="node">
<title>Node230</title>
<g id="a_node31"><a xlink:href="classRecordProcessor.html#a5bce44b8a038567efcf660cfeeae93f4" target="_top" xlink:title="RecordProcessor::AbortRecording">
<polygon fill="#ffffff" stroke="#000000" points="372,-661 372,-680 549,-680 549,-661 372,-661"/>
<text text-anchor="middle" x="460.5" y="-668" font-family="Helvetica,sans-Serif" font-size="10.00" fill="#000000">RecordProcessor::AbortRecording</text>
</a>
</g>
</g>
<!-- Node227&#45;&gt;Node230 -->
<g id="edge31" class="edge">
<title>Node227&#45;&gt;Node230</title>
<path fill="none" stroke="#191970" d="M319.5724,-566.0112C325.4655,-568.5001 331.0664,-571.6126 336,-575.5 363.7897,-597.3971 344.5601,-624.166 372,-646.5 377.2262,-650.7537 383.1436,-654.2569 389.3807,-657.1414"/>
<polygon fill="#191970" stroke="#191970" points="388.123,-660.4083 398.7045,-660.9404 390.7644,-653.9257 388.123,-660.4083"/>
</g>
<!-- Node232 -->
<g id="node33" class="node">
<title>Node232</title>
<g id="a_node33"><a xlink:href="classPeaksAvgsManager.html#a7d5c60dc637af4095167410c4ae924f4" target="_top" xlink:title="PeaksAvgsManager::End">
<polygon fill="#ffffff" stroke="#000000" points="605.5,-670 605.5,-689 740.5,-689 740.5,-670 605.5,-670"/>
<text text-anchor="middle" x="673" y="-677" font-family="Helvetica,sans-Serif" font-size="10.00" fill="#000000">PeaksAvgsManager::End</text>
</a>
</g>
</g>
<!-- Node227&#45;&gt;Node232 -->
<g id="edge52" class="edge">
<title>Node227&#45;&gt;Node232</title>
<path fill="none" stroke="#191970" d="M313.4104,-566.0335C321.2662,-568.5008 329.0204,-571.6024 336,-575.5 355.7558,-586.5321 352.1842,-600.5759 372,-611.5 442.6289,-650.4364 470.5404,-632.8296 549,-651.5 565.0444,-655.318 568.9374,-656.7592 585,-660.5 595.3822,-662.9179 606.4785,-665.3961 617.1715,-667.7307"/>
<polygon fill="#191970" stroke="#191970" points="616.749,-671.2204 627.2635,-669.9185 618.2321,-664.3793 616.749,-671.2204"/>
</g>
<!-- Node233 -->
<g id="node34" class="node">
<title>Node233</title>
<g id="a_node34"><a xlink:href="classFweelin.html#a600688955c7470a1b7a2fa95ddcc4118" target="_top" xlink:title="Fweelin::getBMG">
<polygon fill="#ffffff" stroke="#000000" points="624,-632 624,-651 722,-651 722,-632 624,-632"/>
<text text-anchor="middle" x="673" y="-639" font-family="Helvetica,sans-Serif" font-size="10.00" fill="#000000">Fweelin::getBMG</text>
</a>
</g>
</g>
<!-- Node227&#45;&gt;Node233 -->
<g id="edge42" class="edge">
<title>Node227&#45;&gt;Node233</title>
<path fill="none" stroke="#191970" d="M302.6214,-566.0032C379.6386,-581.7021 533.1768,-612.9989 616.333,-629.9492"/>
<polygon fill="#191970" stroke="#191970" points="615.8625,-633.4252 626.3601,-631.9931 617.2607,-626.5662 615.8625,-633.4252"/>
</g>
<!-- Node234 -->
<g id="node35" class="node">
<title>Node234</title>
<g id="a_node35"><a xlink:href="classBlockManager.html#a7380825963fc62c90186a0b3c72e8d89" target="_top" xlink:title="BlockManager::PeakAvgOff">
<polygon fill="#ffffff" stroke="#000000" points="599,-774 599,-793 747,-793 747,-774 599,-774"/>
<text text-anchor="middle" x="673" y="-781" font-family="Helvetica,sans-Serif" font-size="10.00" fill="#000000">BlockManager::PeakAvgOff</text>
</a>
</g>
</g>
<!-- Node227&#45;&gt;Node234 -->
<g id="edge53" class="edge">
<title>Node227&#45;&gt;Node234</title>
<path fill="none" stroke="#191970" d="M323.8796,-566.2019C328.3522,-568.7037 332.4708,-571.7644 336,-575.5 398.6252,-641.7882 302.6759,-718.253 372,-777.5 403.4191,-804.352 510.8926,-800.317 588.4612,-793.3095"/>
<polygon fill="#191970" stroke="#191970" points="589.0882,-796.7662 598.7188,-792.3501 588.4363,-789.7966 589.0882,-796.7662"/>
</g>
<!-- Node236 -->
<g id="node37" class="node">
<title>Node236</title>
<g id="a_node37"><a xlink:href="classBlockManager.html#add099506b29910e9dabdab9f6a1af92f" target="_top" xlink:title="BlockManager::GrowChainOff">
<polygon fill="#ffffff" stroke="#000000" points="593.5,-812 593.5,-831 752.5,-831 752.5,-812 593.5,-812"/>
<text text-anchor="middle" x="673" y="-819" font-family="Helvetica,sans-Serif" font-size="10.00" fill="#000000">BlockManager::GrowChainOff</text>
</a>
</g>
</g>
<!-- Node227&#45;&gt;Node236 -->
<g id="edge43" class="edge">
<title>Node227&#45;&gt;Node236</title>
<path fill="none" stroke="#191970" d="M323.9561,-566.1303C328.4115,-568.6481 332.5053,-571.7321 336,-575.5 405.1654,-650.0736 296.8616,-732.9485 372,-801.5 442.512,-865.8307 565.1803,-848.702 630.0063,-833.4938"/>
<polygon fill="#191970" stroke="#191970" points="631.0108,-836.8516 639.897,-831.0823 629.3525,-830.0508 631.0108,-836.8516"/>
</g>
<!-- Node237 -->
<g id="node38" class="node">
<title>Node237</title>
<g id="a_node38"><a xlink:href="classAudioBlockIterator.html#a33e1c3a6381e3c0ba5dd129885509eb3" target="_top" xlink:title="AudioBlockIterator\l::EndChain">
<polygon fill="#ffffff" stroke="#000000" points="407,-421.5 407,-451.5 514,-451.5 514,-421.5 407,-421.5"/>
<text text-anchor="start" x="415" y="-439.5" font-family="Helvetica,sans-Serif" font-size="10.00" fill="#000000">AudioBlockIterator</text>
<text text-anchor="middle" x="460.5" y="-428.5" font-family="Helvetica,sans-Serif" font-size="10.00" fill="#000000">::EndChain</text>
</a>
</g>
</g>
<!-- Node227&#45;&gt;Node237 -->
<g id="edge39" class="edge">
<title>Node227&#45;&gt;Node237</title>
<path fill="none" stroke="#191970" d="M264.9539,-546.8872C283.2469,-527.8072 326.994,-484.9738 372,-461.5 379.8168,-457.423 388.379,-453.9416 397.0013,-450.9887"/>
<polygon fill="#191970" stroke="#191970" points="398.2686,-454.258 406.7252,-447.8756 396.1342,-447.5913 398.2686,-454.258"/>
</g>
<!-- Node240 -->
<g id="node41" class="node">
<title>Node240</title>
<g id="a_node41"><a xlink:href="classAudioBlock.html#a09c778d19d7d45dbb68951fabff2f518" target="_top" xlink:title="AudioBlock::Smooth">
<polygon fill="#ffffff" stroke="#000000" points="403,-471 403,-490 518,-490 518,-471 403,-471"/>
<text text-anchor="middle" x="460.5" y="-478" font-family="Helvetica,sans-Serif" font-size="10.00" fill="#000000">AudioBlock::Smooth</text>
</a>
</g>
</g>
<!-- Node227&#45;&gt;Node240 -->
<g id="edge44" class="edge">
<title>Node227&#45;&gt;Node240</title>
<path fill="none" stroke="#191970" d="M281.9001,-546.8745C318.2402,-533.3692 384.4736,-508.7543 425.269,-493.5932"/>
<polygon fill="#191970" stroke="#191970" points="426.6559,-496.8117 434.8102,-490.0473 424.2173,-490.2502 426.6559,-496.8117"/>
</g>
<!-- Node242 -->
<g id="node43" class="node">
<title>Node242</title>
<g id="a_node43"><a xlink:href="classFweelin.html#a21e51d7b639faaecc415624ab6c16a71" target="_top" xlink:title="Fweelin::getEMG">
<polygon fill="#ffffff" stroke="#000000" points="411.5,-547 411.5,-566 509.5,-566 509.5,-547 411.5,-547"/>
<text text-anchor="middle" x="460.5" y="-554" font-family="Helvetica,sans-Serif" font-size="10.00" fill="#000000">Fweelin::getEMG</text>
</a>
</g>
</g>
<!-- Node227&#45;&gt;Node242 -->
<g id="edge54" class="edge">
<title>Node227&#45;&gt;Node242</title>
<path fill="none" stroke="#191970" d="M327.5242,-556.5C351.4959,-556.5 377.9515,-556.5 400.9106,-556.5"/>
<polygon fill="#191970" stroke="#191970" points="401.1918,-560.0001 411.1918,-556.5 401.1918,-553.0001 401.1918,-560.0001"/>
</g>
<!-- Node243 -->
<g id="node44" class="node">
<title>Node243</title>
<g id="a_node44"><a xlink:href="classEventManager.html#ac7c4b4ceee333a360274d73d166b8c69" target="_top" xlink:title="EventManager::BroadcastEvent">
<polygon fill="#ffffff" stroke="#000000" points="376,-383 376,-402 545,-402 545,-383 376,-383"/>
<text text-anchor="middle" x="460.5" y="-390" font-family="Helvetica,sans-Serif" font-size="10.00" fill="#000000">EventManager::BroadcastEvent</text>
</a>
</g>
</g>
<!-- Node227&#45;&gt;Node243 -->
<g id="edge55" class="edge">
<title>Node227&#45;&gt;Node243</title>
<path fill="none" stroke="#191970" d="M260.7288,-546.9367C274.173,-520.8096 315.3363,-447.8256 372,-412.5 376.1271,-409.9271 380.546,-407.6838 385.1263,-405.7282"/>
<polygon fill="#191970" stroke="#191970" points="386.5963,-408.9143 394.7128,-402.1044 384.1212,-402.3665 386.5963,-408.9143"/>
</g>
<!-- Node231 -->
<g id="node32" class="node">
<title>Node231</title>
<g id="a_node32"><a xlink:href="classAudioBlockIterator.html#a48be225cf6283fb66268a832abd89b30" target="_top" xlink:title="AudioBlockIterator\l::Stop">
<polygon fill="#ffffff" stroke="#000000" points="619.5,-708.5 619.5,-738.5 726.5,-738.5 726.5,-708.5 619.5,-708.5"/>
<text text-anchor="start" x="627.5" y="-726.5" font-family="Helvetica,sans-Serif" font-size="10.00" fill="#000000">AudioBlockIterator</text>
<text text-anchor="middle" x="673" y="-715.5" font-family="Helvetica,sans-Serif" font-size="10.00" fill="#000000">::Stop</text>
</a>
</g>
</g>
<!-- Node230&#45;&gt;Node231 -->
<g id="edge32" class="edge">
<title>Node230&#45;&gt;Node231</title>
<path fill="none" stroke="#191970" d="M504.2407,-680.0405C518.5349,-683.2501 534.4687,-686.9258 549,-690.5 568.8012,-695.3704 590.2954,-700.9769 609.7404,-706.1704"/>
<polygon fill="#191970" stroke="#191970" points="608.8372,-709.5518 619.4025,-708.7618 610.6506,-702.7908 608.8372,-709.5518"/>
</g>
<!-- Node230&#45;&gt;Node232 -->
<g id="edge33" class="edge">
<title>Node230&#45;&gt;Node232</title>
<path fill="none" stroke="#191970" d="M549.0804,-674.2516C564.3477,-674.8983 580.1158,-675.5661 595.0757,-676.1997"/>
<polygon fill="#191970" stroke="#191970" points="595.1482,-679.7058 605.2873,-676.6322 595.4444,-672.7121 595.1482,-679.7058"/>
</g>
<!-- Node230&#45;&gt;Node233 -->
<g id="edge34" class="edge">
<title>Node230&#45;&gt;Node233</title>
<path fill="none" stroke="#191970" d="M530.3748,-660.9641C557.3932,-657.2769 587.9804,-653.1027 613.8813,-649.568"/>
<polygon fill="#191970" stroke="#191970" points="614.4938,-653.0169 623.9287,-648.1968 613.5472,-646.0812 614.4938,-653.0169"/>
</g>
<!-- Node230&#45;&gt;Node234 -->
<g id="edge35" class="edge">
<title>Node230&#45;&gt;Node234</title>
<path fill="none" stroke="#191970" d="M529.0874,-680.1384C536.1699,-682.8141 542.9692,-686.2057 549,-690.5 573.7143,-708.0982 561.735,-729.0261 585,-748.5 596.4732,-758.1036 610.9092,-765.3021 624.7518,-770.592"/>
<polygon fill="#191970" stroke="#191970" points="623.6021,-773.8978 634.1968,-773.9554 625.9504,-767.3034 623.6021,-773.8978"/>
</g>
<!-- Node230&#45;&gt;Node236 -->
<g id="edge37" class="edge">
<title>Node230&#45;&gt;Node236</title>
<path fill="none" stroke="#191970" d="M533.2651,-680.1037C538.9949,-682.8342 544.3514,-686.2467 549,-690.5 587.5754,-725.7954 546.2555,-767.3903 585,-802.5 586.6938,-804.0349 588.4814,-805.4565 590.3463,-806.7727"/>
<polygon fill="#191970" stroke="#191970" points="588.5836,-809.7965 598.969,-811.8927 592.1576,-803.7776 588.5836,-809.7965"/>
</g>
<!-- Node235 -->
<g id="node36" class="node">
<title>Node235</title>
<g id="a_node36"><a xlink:href="classBlockManager.html#ae59dae7f7f6572b004dcdacc740204ac" target="_top" xlink:title="BlockManager::DelManager">
<polygon fill="#ffffff" stroke="#000000" points="816,-793 816,-812 966,-812 966,-793 816,-793"/>
<text text-anchor="middle" x="891" y="-800" font-family="Helvetica,sans-Serif" font-size="10.00" fill="#000000">BlockManager::DelManager</text>
</a>
</g>
</g>
<!-- Node234&#45;&gt;Node235 -->
<g id="edge36" class="edge">
<title>Node234&#45;&gt;Node235</title>
<path fill="none" stroke="#191970" d="M747.109,-789.959C766.0293,-791.6081 786.5174,-793.3937 805.9389,-795.0864"/>
<polygon fill="#191970" stroke="#191970" points="805.7178,-798.5803 815.9839,-795.9619 806.3256,-791.6068 805.7178,-798.5803"/>
</g>
<!-- Node236&#45;&gt;Node235 -->
<g id="edge38" class="edge">
<title>Node236&#45;&gt;Node235</title>
<path fill="none" stroke="#191970" d="M752.6284,-814.5599C769.9132,-813.0534 788.2628,-811.4542 805.7546,-809.9296"/>
<polygon fill="#191970" stroke="#191970" points="806.2815,-813.3971 815.9398,-809.0419 805.6737,-806.4235 806.2815,-813.3971"/>
</g>
<!-- Node238 -->
<g id="node39" class="node">
<title>Node238</title>
<g id="a_node39"><a xlink:href="classAudioBlock.html#a1577ddd5048ce06dbddfae7702b35c81" target="_top" xlink:title="AudioBlock::ChopChain">
<polygon fill="#ffffff" stroke="#000000" points="608,-430 608,-449 738,-449 738,-430 608,-430"/>
<text text-anchor="middle" x="673" y="-437" font-family="Helvetica,sans-Serif" font-size="10.00" fill="#000000">AudioBlock::ChopChain</text>
</a>
</g>
</g>
<!-- Node237&#45;&gt;Node238 -->
<g id="edge40" class="edge">
<title>Node237&#45;&gt;Node238</title>
<path fill="none" stroke="#191970" d="M514.1227,-437.257C539.4182,-437.6141 570.0378,-438.0464 597.6185,-438.4358"/>
<polygon fill="#191970" stroke="#191970" points="597.5784,-441.9355 607.6268,-438.5771 597.6773,-434.9362 597.5784,-441.9355"/>
</g>
<!-- Node239 -->
<g id="node40" class="node">
<title>Node239</title>
<g id="a_node40"><a xlink:href="classPreallocated.html#aaf2139a79ca16de70acd9bc4564171b7" target="_top" xlink:title="Preallocated::RTDelete">
<polygon fill="#ffffff" stroke="#000000" points="827,-449 827,-468 955,-468 955,-449 827,-449"/>
<text text-anchor="middle" x="891" y="-456" font-family="Helvetica,sans-Serif" font-size="10.00" fill="#000000">Preallocated::RTDelete</text>
</a>
</g>
</g>
<!-- Node238&#45;&gt;Node239 -->
<g id="edge41" class="edge">
<title>Node238&#45;&gt;Node239</title>
<path fill="none" stroke="#191970" d="M738.1119,-445.1749C762.9223,-447.3373 791.3745,-449.817 816.9544,-452.0465"/>
<polygon fill="#191970" stroke="#191970" points="816.7078,-455.5382 826.974,-452.9198 817.3157,-448.5646 816.7078,-455.5382"/>
</g>
<!-- Node240&#45;&gt;Node206 -->
<g id="edge45" class="edge">
<title>Node240&#45;&gt;Node206</title>
<path fill="none" stroke="#191970" d="M518.0567,-488.6997C539.0879,-491.4836 563.0888,-494.4141 585,-496.5 662.5489,-503.8826 751.4397,-509.0338 813.359,-512.0921"/>
<polygon fill="#191970" stroke="#191970" points="813.2843,-515.5926 823.4428,-512.5835 813.625,-508.6009 813.2843,-515.5926"/>
</g>
<!-- Node240&#45;&gt;Node207 -->
<g id="edge46" class="edge">
<title>Node240&#45;&gt;Node207</title>
<path fill="none" stroke="#191970" d="M479.4312,-490.1746C498.3039,-500.3712 527.4989,-517.6824 549,-537.5 568.3477,-555.3329 561.4061,-572.8521 585,-584.5 668.4769,-625.711 780.4821,-599.0528 843.233,-577.9508"/>
<polygon fill="#191970" stroke="#191970" points="844.5596,-581.1956 852.8693,-574.623 842.2746,-574.579 844.5596,-581.1956"/>
</g>
<!-- Node240&#45;&gt;Node209 -->
<g id="edge47" class="edge">
<title>Node240&#45;&gt;Node209</title>
<path fill="none" stroke="#191970" d="M518.0673,-478.4059C529.6667,-475.3834 540.7985,-470.1818 549,-461.5 620.3537,-385.9679 513.6904,-306.0737 585,-230.5 586.2168,-229.2104 587.4985,-227.9979 588.8371,-226.858"/>
<polygon fill="#191970" stroke="#191970" points="590.8841,-229.6974 597.0678,-221.0944 586.8688,-223.9635 590.8841,-229.6974"/>
</g>
<!-- Node241 -->
<g id="node42" class="node">
<title>Node241</title>
<g id="a_node42"><a xlink:href="classAudioBlock.html#aa9e0bc3fa297c7c97aedda16f240108f" target="_top" xlink:title="AudioBlock::HackTotalLengthBy">
<polygon fill="#ffffff" stroke="#000000" points="587.5,-468 587.5,-487 758.5,-487 758.5,-468 587.5,-468"/>
<text text-anchor="middle" x="673" y="-475" font-family="Helvetica,sans-Serif" font-size="10.00" fill="#000000">AudioBlock::HackTotalLengthBy</text>
</a>
</g>
</g>
<!-- Node240&#45;&gt;Node241 -->
<g id="edge48" class="edge">
<title>Node240&#45;&gt;Node241</title>
<path fill="none" stroke="#191970" d="M518.0056,-479.6882C536.1966,-479.4313 556.8214,-479.1402 576.9531,-478.856"/>
<polygon fill="#191970" stroke="#191970" points="577.151,-482.3536 587.1005,-478.7127 577.0521,-475.3543 577.151,-482.3536"/>
</g>
<!-- Node241&#45;&gt;Node206 -->
<g id="edge49" class="edge">
<title>Node241&#45;&gt;Node206</title>
<path fill="none" stroke="#191970" d="M727.7292,-487.04C757.6607,-492.2574 794.9223,-498.7525 826.2884,-504.22"/>
<polygon fill="#191970" stroke="#191970" points="825.7958,-507.6868 836.2483,-505.9561 826.9979,-500.7908 825.7958,-507.6868"/>
</g>
<!-- Node241&#45;&gt;Node207 -->
<g id="edge50" class="edge">
<title>Node241&#45;&gt;Node207</title>
<path fill="none" stroke="#191970" d="M691.0769,-487.0017C714.8643,-499.2253 758.2086,-520.5416 797,-534.5 803.8821,-536.9764 811.1262,-539.3305 818.4128,-541.5327"/>
<polygon fill="#191970" stroke="#191970" points="817.7649,-544.9898 828.3454,-544.4389 819.7307,-538.2715 817.7649,-544.9898"/>
</g>
<!-- Node241&#45;&gt;Node239 -->
<g id="edge51" class="edge">
<title>Node241&#45;&gt;Node239</title>
<path fill="none" stroke="#191970" d="M758.5337,-470.0452C777.8462,-468.362 798.1905,-466.5889 816.9829,-464.951"/>
<polygon fill="#191970" stroke="#191970" points="817.2916,-468.4375 826.9499,-464.0823 816.6837,-461.4639 817.2916,-468.4375"/>
</g>
<!-- Node243&#45;&gt;Node220 -->
<g id="edge56" class="edge">
<title>Node243&#45;&gt;Node220</title>
<path fill="none" stroke="#191970" d="M545.0393,-383.074C617.071,-375.0426 720.5326,-363.5068 795.5314,-355.1446"/>
<polygon fill="#191970" stroke="#191970" points="796.3684,-358.573 805.9189,-353.9864 795.5926,-351.6161 796.3684,-358.573"/>
</g>
<!-- Node244 -->
<g id="node45" class="node">
<title>Node244</title>
<g id="a_node45"><a xlink:href="classEventManager.html#a529567a1f3b56ecbc97aceec5ee0b46e" target="_top" xlink:title="EventManager::WakeupIfNeeded">
<polygon fill="#ffffff" stroke="#000000" points="585,-392 585,-411 761,-411 761,-392 585,-392"/>
<text text-anchor="middle" x="673" y="-399" font-family="Helvetica,sans-Serif" font-size="10.00" fill="#000000">EventManager::WakeupIfNeeded</text>
</a>
</g>
</g>
<!-- Node243&#45;&gt;Node244 -->
<g id="edge57" class="edge">
<title>Node243&#45;&gt;Node244</title>
<path fill="none" stroke="#191970" d="M545.0962,-396.0829C554.8031,-396.494 564.7618,-396.9158 574.6293,-397.3337"/>
<polygon fill="#191970" stroke="#191970" points="574.7258,-400.8408 584.865,-397.7672 575.0221,-393.8471 574.7258,-400.8408"/>
</g>
<!-- Node245&#45;&gt;Node208 -->
<g id="edge59" class="edge">
<title>Node245&#45;&gt;Node208</title>
<path fill="none" stroke="#191970" d="M298.1056,-290.4706C320.1011,-282.6568 347.4759,-272.9902 372,-264.5 382.9087,-260.7234 394.5905,-256.7285 405.7729,-252.9284"/>
<polygon fill="#191970" stroke="#191970" points="407.0937,-256.1764 415.4393,-249.6495 404.845,-249.5474 407.0937,-256.1764"/>
</g>
</g>
</svg>
