<?xml version="1.0" encoding="UTF-8" standalone="no"?>
<!DOCTYPE svg PUBLIC "-//W3C//DTD SVG 1.1//EN"
 "http://www.w3.org/Graphics/SVG/1.1/DTD/svg11.dtd">
<!-- Generated by graphviz version 2.40.1 (20161225.0304)
 -->
<!-- Title: SndFileDecoder::ReadSamples Pages: 1 -->
<svg width="940pt" height="173pt"
 viewBox="0.00 0.00 940.00 172.50" xmlns="http://www.w3.org/2000/svg" xmlns:xlink="http://www.w3.org/1999/xlink">
<g id="graph0" class="graph" transform="scale(1 1) rotate(0) translate(4 168.5)">
<title>SndFileDecoder::ReadSamples</title>
<polygon fill="#ffffff" stroke="transparent" points="-4,4 -4,-168.5 936,-168.5 936,4 -4,4"/>
<!-- Node8 -->
<g id="node1" class="node">
<title>Node8</title>
<polygon fill="#bfbfbf" stroke="#000000" points="0,-97.5 0,-116.5 164,-116.5 164,-97.5 0,-97.5"/>
<text text-anchor="middle" x="82" y="-104.5" font-family="Helvetica,sans-Serif" font-size="10.00" fill="#000000">SndFileDecoder::ReadSamples</text>
</g>
<!-- Node9 -->
<g id="node2" class="node">
<title>Node9</title>
<g id="a_node2"><a xlink:href="classAudioBlockIterator.html#a5cc11c9589308f5da0fea19c701c84b3" target="_top" xlink:title="AudioBlockIterator\l::PutFragment">
<polygon fill="#ffffff" stroke="#000000" points="200,-68 200,-98 307,-98 307,-68 200,-68"/>
<text text-anchor="start" x="208" y="-86" font-family="Helvetica,sans-Serif" font-size="10.00" fill="#000000">AudioBlockIterator</text>
<text text-anchor="middle" x="253.5" y="-75" font-family="Helvetica,sans-Serif" font-size="10.00" fill="#000000">::PutFragment</text>
</a>
</g>
</g>
<!-- Node8&#45;&gt;Node9 -->
<g id="edge1" class="edge">
<title>Node8&#45;&gt;Node9</title>
<path fill="none" stroke="#191970" d="M150.2741,-97.4456C163.3201,-95.6199 176.9297,-93.7154 189.8247,-91.9108"/>
<polygon fill="#191970" stroke="#191970" points="190.5701,-95.3407 199.9885,-90.4885 189.5999,-88.4083 190.5701,-95.3407"/>
</g>
<!-- Node19 -->
<g id="node12" class="node">
<title>Node19</title>
<g id="a_node12"><a xlink:href="classAudioBlockIterator.html#ae0521dee0479a9203bed6515bfc89568" target="_top" xlink:title="AudioBlockIterator\l::NextFragment">
<polygon fill="#ffffff" stroke="#000000" points="200,-125 200,-155 307,-155 307,-125 200,-125"/>
<text text-anchor="start" x="208" y="-143" font-family="Helvetica,sans-Serif" font-size="10.00" fill="#000000">AudioBlockIterator</text>
<text text-anchor="middle" x="253.5" y="-132" font-family="Helvetica,sans-Serif" font-size="10.00" fill="#000000">::NextFragment</text>
</a>
</g>
</g>
<!-- Node8&#45;&gt;Node19 -->
<g id="edge11" class="edge">
<title>Node8&#45;&gt;Node19</title>
<path fill="none" stroke="#191970" d="M131.6049,-116.545C149.8012,-120.0463 170.6555,-124.0591 189.9095,-127.7639"/>
<polygon fill="#191970" stroke="#191970" points="189.3284,-131.2163 199.8097,-129.6689 190.6512,-124.3423 189.3284,-131.2163"/>
</g>
<!-- Node10 -->
<g id="node3" class="node">
<title>Node10</title>
<g id="a_node3"><a xlink:href="classAudioBlock.html#ae7aec1591ed6f228799c11b650b2cc1b" target="_top" xlink:title="AudioBlock::GetExtendedData">
<polygon fill="#ffffff" stroke="#000000" points="544,-136.5 544,-155.5 708,-155.5 708,-136.5 544,-136.5"/>
<text text-anchor="middle" x="626" y="-143.5" font-family="Helvetica,sans-Serif" font-size="10.00" fill="#000000">AudioBlock::GetExtendedData</text>
</a>
</g>
</g>
<!-- Node9&#45;&gt;Node10 -->
<g id="edge2" class="edge">
<title>Node9&#45;&gt;Node10</title>
<path fill="none" stroke="#191970" d="M307.155,-91.6538C358.6832,-100.012 438.7044,-113.1164 508,-125 525.8297,-128.0576 545.1581,-131.4604 562.9112,-134.6213"/>
<polygon fill="#191970" stroke="#191970" points="562.6992,-138.1387 573.1586,-136.45 563.929,-131.2475 562.6992,-138.1387"/>
</g>
<!-- Node12 -->
<g id="node5" class="node">
<title>Node12</title>
<g id="a_node5"><a xlink:href="classPreallocatedType.html#ae8a5326530dd0f38ecbb094f7818bd42" target="_top" xlink:title="PreallocatedType::RTNew">
<polygon fill="#ffffff" stroke="#000000" points="355.5,-57.5 355.5,-76.5 495.5,-76.5 495.5,-57.5 355.5,-57.5"/>
<text text-anchor="middle" x="425.5" y="-64.5" font-family="Helvetica,sans-Serif" font-size="10.00" fill="#000000">PreallocatedType::RTNew</text>
</a>
</g>
</g>
<!-- Node9&#45;&gt;Node12 -->
<g id="edge4" class="edge">
<title>Node9&#45;&gt;Node12</title>
<path fill="none" stroke="#191970" d="M307.45,-77.9814C319.4216,-76.8678 332.3602,-75.6642 345.1324,-74.4761"/>
<polygon fill="#191970" stroke="#191970" points="345.6853,-77.9398 355.3181,-73.5285 345.0369,-70.9699 345.6853,-77.9398"/>
</g>
<!-- Node18 -->
<g id="node11" class="node">
<title>Node18</title>
<g id="a_node11"><a xlink:href="classAudioBlock.html#aa3129140d4e8c54e83afbef223cf8a65" target="_top" xlink:title="AudioBlock::AddExtendedData">
<polygon fill="#ffffff" stroke="#000000" points="343,-19.5 343,-38.5 508,-38.5 508,-19.5 343,-19.5"/>
<text text-anchor="middle" x="425.5" y="-26.5" font-family="Helvetica,sans-Serif" font-size="10.00" fill="#000000">AudioBlock::AddExtendedData</text>
</a>
</g>
</g>
<!-- Node9&#45;&gt;Node18 -->
<g id="edge10" class="edge">
<title>Node9&#45;&gt;Node18</title>
<path fill="none" stroke="#191970" d="M288.3602,-67.9961C304.7451,-61.3001 324.6678,-53.6621 343,-48 351.1758,-45.4748 359.8998,-43.1155 368.4997,-40.9772"/>
<polygon fill="#191970" stroke="#191970" points="369.5941,-44.3139 378.498,-38.5719 367.9568,-37.5081 369.5941,-44.3139"/>
</g>
<!-- Node11 -->
<g id="node4" class="node">
<title>Node11</title>
<g id="a_node4"><a xlink:href="classBlockExtendedData.html#ae33e9550384a32abf2a91386334a2be9" target="_top" xlink:title="BlockExtendedData::\lGetType">
<polygon fill="#ffffff" stroke="#000000" points="778.5,-131 778.5,-161 897.5,-161 897.5,-131 778.5,-131"/>
<text text-anchor="start" x="786.5" y="-149" font-family="Helvetica,sans-Serif" font-size="10.00" fill="#000000">BlockExtendedData::</text>
<text text-anchor="middle" x="838" y="-138" font-family="Helvetica,sans-Serif" font-size="10.00" fill="#000000">GetType</text>
</a>
</g>
</g>
<!-- Node10&#45;&gt;Node11 -->
<g id="edge3" class="edge">
<title>Node10&#45;&gt;Node11</title>
<path fill="none" stroke="#191970" d="M708.2682,-146C728.0986,-146 749.0971,-146 768.2903,-146"/>
<polygon fill="#191970" stroke="#191970" points="768.4466,-149.5001 778.4465,-146 768.4465,-142.5001 768.4466,-149.5001"/>
</g>
<!-- Node13 -->
<g id="node6" class="node">
<title>Node13</title>
<g id="a_node6"><a xlink:href="classRTStore.html#a2be0d247570dc611a379ab0a80dd14da" target="_top" xlink:title="RTStore::FindItemWithState">
<polygon fill="#ffffff" stroke="#000000" points="551,-95.5 551,-114.5 701,-114.5 701,-95.5 551,-95.5"/>
<text text-anchor="middle" x="626" y="-102.5" font-family="Helvetica,sans-Serif" font-size="10.00" fill="#000000">RTStore::FindItemWithState</text>
</a>
</g>
</g>
<!-- Node12&#45;&gt;Node13 -->
<g id="edge5" class="edge">
<title>Node12&#45;&gt;Node13</title>
<path fill="none" stroke="#191970" d="M475.8358,-76.54C503.1262,-81.7122 537.042,-88.1401 565.7326,-93.5778"/>
<polygon fill="#191970" stroke="#191970" points="565.1666,-97.0327 575.6435,-95.4561 566.4701,-90.1551 565.1666,-97.0327"/>
</g>
<!-- Node14 -->
<g id="node7" class="node">
<title>Node14</title>
<g id="a_node7"><a xlink:href="classRTStore.html#af3c93f31bd68ce149a812b05d9e7cd86" target="_top" xlink:title="RTStore::ChangeStateAtIdx">
<polygon fill="#ffffff" stroke="#000000" points="552,-57.5 552,-76.5 700,-76.5 700,-57.5 552,-57.5"/>
<text text-anchor="middle" x="626" y="-64.5" font-family="Helvetica,sans-Serif" font-size="10.00" fill="#000000">RTStore::ChangeStateAtIdx</text>
</a>
</g>
</g>
<!-- Node12&#45;&gt;Node14 -->
<g id="edge6" class="edge">
<title>Node12&#45;&gt;Node14</title>
<path fill="none" stroke="#191970" d="M495.6252,-67C510.5394,-67 526.4343,-67 541.8116,-67"/>
<polygon fill="#191970" stroke="#191970" points="541.8264,-70.5001 551.8263,-67 541.8263,-63.5001 541.8264,-70.5001"/>
</g>
<!-- Node15 -->
<g id="node8" class="node">
<title>Node15</title>
<g id="a_node8"><a xlink:href="classMemoryManager.html#a3971e97751f5eccd04086eb2e6fb6f43" target="_top" xlink:title="MemoryManager::WakeUp">
<polygon fill="#ffffff" stroke="#000000" points="553.5,-19.5 553.5,-38.5 698.5,-38.5 698.5,-19.5 553.5,-19.5"/>
<text text-anchor="middle" x="626" y="-26.5" font-family="Helvetica,sans-Serif" font-size="10.00" fill="#000000">MemoryManager::WakeUp</text>
</a>
</g>
</g>
<!-- Node12&#45;&gt;Node15 -->
<g id="edge7" class="edge">
<title>Node12&#45;&gt;Node15</title>
<path fill="none" stroke="#191970" d="M475.8358,-57.46C503.1262,-52.2878 537.042,-45.8599 565.7326,-40.4222"/>
<polygon fill="#191970" stroke="#191970" points="566.4701,-43.8449 575.6435,-38.5439 565.1666,-36.9673 566.4701,-43.8449"/>
</g>
<!-- Node16 -->
<g id="node9" class="node">
<title>Node16</title>
<g id="a_node9"><a xlink:href="classSRMWRingBuffer.html#a47699ccc0600c38559c8e10f0ca9bf3c" target="_top" xlink:title="SRMWRingBuffer::WriteElement">
<polygon fill="#ffffff" stroke="#000000" points="753,-38.5 753,-57.5 923,-57.5 923,-38.5 753,-38.5"/>
<text text-anchor="middle" x="838" y="-45.5" font-family="Helvetica,sans-Serif" font-size="10.00" fill="#000000">SRMWRingBuffer::WriteElement</text>
</a>
</g>
</g>
<!-- Node15&#45;&gt;Node16 -->
<g id="edge8" class="edge">
<title>Node15&#45;&gt;Node16</title>
<path fill="none" stroke="#191970" d="M698.6618,-35.5121C712.7831,-36.7777 727.7833,-38.1221 742.5102,-39.442"/>
<polygon fill="#191970" stroke="#191970" points="742.3754,-42.9438 752.6479,-40.3505 743.0003,-35.9718 742.3754,-42.9438"/>
</g>
<!-- Node17 -->
<g id="node10" class="node">
<title>Node17</title>
<g id="a_node10"><a xlink:href="classMemoryManager.html#ab15be510a88e9eab04db2d6554d7e947" target="_top" xlink:title="MemoryManager::WakeupIfNeeded">
<polygon fill="#ffffff" stroke="#000000" points="744,-.5 744,-19.5 932,-19.5 932,-.5 744,-.5"/>
<text text-anchor="middle" x="838" y="-7.5" font-family="Helvetica,sans-Serif" font-size="10.00" fill="#000000">MemoryManager::WakeupIfNeeded</text>
</a>
</g>
</g>
<!-- Node15&#45;&gt;Node17 -->
<g id="edge9" class="edge">
<title>Node15&#45;&gt;Node17</title>
<path fill="none" stroke="#191970" d="M698.6618,-22.4879C709.8792,-21.4825 721.6513,-20.4275 733.4004,-19.3745"/>
<polygon fill="#191970" stroke="#191970" points="734.0573,-22.8297 743.7049,-18.451 733.4324,-15.8577 734.0573,-22.8297"/>
</g>
<!-- Node20 -->
<g id="node13" class="node">
<title>Node20</title>
<g id="a_node13"><a xlink:href="classAudioBlockIterator.html#a86cfc4c09c380d6304ed3aa6ff2ea17b" target="_top" xlink:title="AudioBlockIterator\l::GetFragment">
<polygon fill="#ffffff" stroke="#000000" points="372,-134 372,-164 479,-164 479,-134 372,-134"/>
<text text-anchor="start" x="380" y="-152" font-family="Helvetica,sans-Serif" font-size="10.00" fill="#000000">AudioBlockIterator</text>
<text text-anchor="middle" x="425.5" y="-141" font-family="Helvetica,sans-Serif" font-size="10.00" fill="#000000">::GetFragment</text>
</a>
</g>
</g>
<!-- Node19&#45;&gt;Node20 -->
<g id="edge12" class="edge">
<title>Node19&#45;&gt;Node20</title>
<path fill="none" stroke="#191970" d="M307.45,-142.823C324.58,-143.7193 343.6898,-144.7192 361.4592,-145.649"/>
<polygon fill="#191970" stroke="#191970" points="361.5722,-149.1596 371.7415,-146.1871 361.9381,-142.1692 361.5722,-149.1596"/>
</g>
<!-- Node20&#45;&gt;Node10 -->
<g id="edge13" class="edge">
<title>Node20&#45;&gt;Node10</title>
<path fill="none" stroke="#191970" d="M479.2303,-148.1961C496.044,-147.9445 515.1009,-147.6593 533.7834,-147.3798"/>
<polygon fill="#191970" stroke="#191970" points="533.8584,-150.8792 543.8049,-147.2299 533.7536,-143.88 533.8584,-150.8792"/>
</g>
</g>
</svg>
