<?xml version="1.0" encoding="UTF-8" standalone="no"?>
<!DOCTYPE svg PUBLIC "-//W3C//DTD SVG 1.1//EN"
 "http://www.w3.org/Graphics/SVG/1.1/DTD/svg11.dtd">
<!-- Generated by graphviz version 2.40.1 (20161225.0304)
 -->
<!-- Title: FweelinMac::Quit Pages: 1 -->
<svg width="526pt" height="142pt"
 viewBox="0.00 0.00 526.00 142.00" xmlns="http://www.w3.org/2000/svg" xmlns:xlink="http://www.w3.org/1999/xlink">
<g id="graph0" class="graph" transform="scale(1 1) rotate(0) translate(4 138)">
<title>FweelinMac::Quit</title>
<polygon fill="#ffffff" stroke="transparent" points="-4,4 -4,-138 522,-138 522,4 -4,4"/>
<!-- Node10 -->
<g id="node1" class="node">
<title>Node10</title>
<polygon fill="#bfbfbf" stroke="#000000" points="0,-76.5 0,-95.5 100,-95.5 100,-76.5 0,-76.5"/>
<text text-anchor="middle" x="50" y="-83.5" font-family="Helvetica,sans-Serif" font-size="10.00" fill="#000000">FweelinMac::Quit</text>
</g>
<!-- Node11 -->
<g id="node2" class="node">
<title>Node11</title>
<g id="a_node2"><a xlink:href="classEvent.html#aa67af0ae99b897e4f0ce42068c4e4c00" target="_top" xlink:title="Event::GetEventByType">
<polygon fill="#ffffff" stroke="#000000" points="166,-114.5 166,-133.5 297,-133.5 297,-114.5 166,-114.5"/>
<text text-anchor="middle" x="231.5" y="-121.5" font-family="Helvetica,sans-Serif" font-size="10.00" fill="#000000">Event::GetEventByType</text>
</a>
</g>
</g>
<!-- Node10&#45;&gt;Node11 -->
<g id="edge1" class="edge">
<title>Node10&#45;&gt;Node11</title>
<path fill="none" stroke="#191970" d="M92.3919,-95.5514C106.2755,-98.6299 121.7838,-102.0158 136,-105 147.7619,-107.469 160.3563,-110.032 172.4136,-112.4464"/>
<polygon fill="#191970" stroke="#191970" points="171.894,-115.9116 182.3853,-114.4342 173.2625,-109.0467 171.894,-115.9116"/>
</g>
<!-- Node12 -->
<g id="node3" class="node">
<title>Node12</title>
<g id="a_node3"><a xlink:href="classFweelin.html#a21e51d7b639faaecc415624ab6c16a71" target="_top" xlink:title="Fweelin::getEMG">
<polygon fill="#ffffff" stroke="#000000" points="182.5,-76.5 182.5,-95.5 280.5,-95.5 280.5,-76.5 182.5,-76.5"/>
<text text-anchor="middle" x="231.5" y="-83.5" font-family="Helvetica,sans-Serif" font-size="10.00" fill="#000000">Fweelin::getEMG</text>
</a>
</g>
</g>
<!-- Node10&#45;&gt;Node12 -->
<g id="edge2" class="edge">
<title>Node10&#45;&gt;Node12</title>
<path fill="none" stroke="#191970" d="M100.0761,-86C122.3782,-86 148.8124,-86 172.1047,-86"/>
<polygon fill="#191970" stroke="#191970" points="172.2152,-89.5001 182.2152,-86 172.2151,-82.5001 172.2152,-89.5001"/>
</g>
<!-- Node13 -->
<g id="node4" class="node">
<title>Node13</title>
<g id="a_node4"><a xlink:href="classEventManager.html#a4a73f2e7ff1724f28427f7c0d5725c8e" target="_top" xlink:title="EventManager::BroadcastEventNow">
<polygon fill="#ffffff" stroke="#000000" points="136,-38.5 136,-57.5 327,-57.5 327,-38.5 136,-38.5"/>
<text text-anchor="middle" x="231.5" y="-45.5" font-family="Helvetica,sans-Serif" font-size="10.00" fill="#000000">EventManager::BroadcastEventNow</text>
</a>
</g>
</g>
<!-- Node10&#45;&gt;Node13 -->
<g id="edge3" class="edge">
<title>Node10&#45;&gt;Node13</title>
<path fill="none" stroke="#191970" d="M92.3919,-76.4486C106.2755,-73.3701 121.7838,-69.9842 136,-67 147.7619,-64.531 160.3563,-61.968 172.4136,-59.5536"/>
<polygon fill="#191970" stroke="#191970" points="173.2625,-62.9533 182.3853,-57.5658 171.894,-56.0884 173.2625,-62.9533"/>
</g>
<!-- Node14 -->
<g id="node5" class="node">
<title>Node14</title>
<g id="a_node5"><a xlink:href="classEvent.html#ac4c4170579544b41dff38ca1b8110e30" target="_top" xlink:title="Event::GetType">
<polygon fill="#ffffff" stroke="#000000" points="395.5,-76.5 395.5,-95.5 485.5,-95.5 485.5,-76.5 395.5,-76.5"/>
<text text-anchor="middle" x="440.5" y="-83.5" font-family="Helvetica,sans-Serif" font-size="10.00" fill="#000000">Event::GetType</text>
</a>
</g>
</g>
<!-- Node13&#45;&gt;Node14 -->
<g id="edge4" class="edge">
<title>Node13&#45;&gt;Node14</title>
<path fill="none" stroke="#191970" d="M283.9698,-57.54C314.9568,-63.174 354.1385,-70.2979 385.5488,-76.0089"/>
<polygon fill="#191970" stroke="#191970" points="384.9888,-79.4644 395.4536,-77.8097 386.241,-72.5773 384.9888,-79.4644"/>
</g>
<!-- Node15 -->
<g id="node6" class="node">
<title>Node15</title>
<g id="a_node6"><a xlink:href="classEventListener.html#a831820a9229e852bd7e2fad686b725b2" target="_top" xlink:title="EventListener::ReceiveEvent">
<polygon fill="#ffffff" stroke="#000000" points="363,-38.5 363,-57.5 518,-57.5 518,-38.5 363,-38.5"/>
<text text-anchor="middle" x="440.5" y="-45.5" font-family="Helvetica,sans-Serif" font-size="10.00" fill="#000000">EventListener::ReceiveEvent</text>
</a>
</g>
</g>
<!-- Node13&#45;&gt;Node15 -->
<g id="edge5" class="edge">
<title>Node13&#45;&gt;Node15</title>
<path fill="none" stroke="#191970" d="M327.1311,-48C335.6132,-48 344.1737,-48 352.5871,-48"/>
<polygon fill="#191970" stroke="#191970" points="352.7614,-51.5001 362.7614,-48 352.7614,-44.5001 352.7614,-51.5001"/>
</g>
<!-- Node16 -->
<g id="node7" class="node">
<title>Node16</title>
<g id="a_node7"><a xlink:href="classPreallocated.html#aaf2139a79ca16de70acd9bc4564171b7" target="_top" xlink:title="Preallocated::RTDelete">
<polygon fill="#ffffff" stroke="#000000" points="376.5,-.5 376.5,-19.5 504.5,-19.5 504.5,-.5 376.5,-.5"/>
<text text-anchor="middle" x="440.5" y="-7.5" font-family="Helvetica,sans-Serif" font-size="10.00" fill="#000000">Preallocated::RTDelete</text>
</a>
</g>
</g>
<!-- Node13&#45;&gt;Node16 -->
<g id="edge6" class="edge">
<title>Node13&#45;&gt;Node16</title>
<path fill="none" stroke="#191970" d="M283.9698,-38.46C312.5413,-33.2652 348.0796,-26.8037 378.0691,-21.3511"/>
<polygon fill="#191970" stroke="#191970" points="378.7961,-24.7764 388.0087,-19.5439 377.5438,-17.8893 378.7961,-24.7764"/>
</g>
</g>
</svg>
