<?xml version="1.0" encoding="UTF-8" standalone="no"?>
<!DOCTYPE svg PUBLIC "-//W3C//DTD SVG 1.1//EN"
 "http://www.w3.org/Graphics/SVG/1.1/DTD/svg11.dtd">
<!-- Generated by graphviz version 2.40.1 (20161225.0304)
 -->
<!-- Title: LoopManager::GetNumSave Pages: 1 -->
<svg width="488pt" height="39pt"
 viewBox="0.00 0.00 488.00 39.00" xmlns="http://www.w3.org/2000/svg" xmlns:xlink="http://www.w3.org/1999/xlink">
<g id="graph0" class="graph" transform="scale(1 1) rotate(0) translate(4 35)">
<title>LoopManager::GetNumSave</title>
<polygon fill="#ffffff" stroke="transparent" points="-4,4 -4,-35 484,-35 484,4 -4,4"/>
<!-- Node418 -->
<g id="node1" class="node">
<title>Node418</title>
<polygon fill="#bfbfbf" stroke="#000000" points="0,-6 0,-25 152,-25 152,-6 0,-6"/>
<text text-anchor="middle" x="76" y="-13" font-family="Helvetica,sans-Serif" font-size="10.00" fill="#000000">LoopManager::GetNumSave</text>
</g>
<!-- Node419 -->
<g id="node2" class="node">
<title>Node419</title>
<g id="a_node2"><a xlink:href="classVideoIO.html#a50e4ccae99e278ed7d65d9db86f18c92" target="_top" xlink:title="VideoIO::video_event_loop">
<polygon fill="#ffffff" stroke="#000000" points="188,-6 188,-25 335,-25 335,-6 188,-6"/>
<text text-anchor="middle" x="261.5" y="-13" font-family="Helvetica,sans-Serif" font-size="10.00" fill="#000000">VideoIO::video_event_loop</text>
</a>
</g>
</g>
<!-- Node418&#45;&gt;Node419 -->
<g id="edge1" class="edge">
<title>Node418&#45;&gt;Node419</title>
<path fill="none" stroke="#191970" d="M162.2717,-15.5C170.8502,-15.5 179.503,-15.5 187.9347,-15.5"/>
<polygon fill="#191970" stroke="#191970" points="162.253,-12.0001 152.253,-15.5 162.253,-19.0001 162.253,-12.0001"/>
</g>
<!-- Node420 -->
<g id="node3" class="node">
<title>Node420</title>
<g id="a_node3"><a xlink:href="classVideoIO.html#adb25c81a2bfe792fd4f64e23a4e21176" target="_top" xlink:title="VideoIO::run_video\l_thread">
<polygon fill="#ffffff" stroke="#000000" points="371,-.5 371,-30.5 480,-30.5 480,-.5 371,-.5"/>
<text text-anchor="start" x="379" y="-18.5" font-family="Helvetica,sans-Serif" font-size="10.00" fill="#000000">VideoIO::run_video</text>
<text text-anchor="middle" x="425.5" y="-7.5" font-family="Helvetica,sans-Serif" font-size="10.00" fill="#000000">_thread</text>
</a>
</g>
</g>
<!-- Node419&#45;&gt;Node420 -->
<g id="edge2" class="edge">
<title>Node419&#45;&gt;Node420</title>
<path fill="none" stroke="#191970" d="M345.4193,-15.5C354.0101,-15.5 362.5729,-15.5 370.7301,-15.5"/>
<polygon fill="#191970" stroke="#191970" points="345.3441,-12.0001 335.344,-15.5 345.344,-19.0001 345.3441,-12.0001"/>
</g>
</g>
</svg>
