<?xml version="1.0" encoding="UTF-8" standalone="no"?>
<!DOCTYPE svg PUBLIC "-//W3C//DTD SVG 1.1//EN"
 "http://www.w3.org/Graphics/SVG/1.1/DTD/svg11.dtd">
<!-- Generated by graphviz version 2.40.1 (20161225.0304)
 -->
<!-- Title: Event::GetNumParams Pages: 1 -->
<svg width="899pt" height="66pt"
 viewBox="0.00 0.00 899.00 66.00" xmlns="http://www.w3.org/2000/svg" xmlns:xlink="http://www.w3.org/1999/xlink">
<g id="graph0" class="graph" transform="scale(1 1) rotate(0) translate(4 62)">
<title>Event::GetNumParams</title>
<polygon fill="#ffffff" stroke="transparent" points="-4,4 -4,-62 895,-62 895,4 -4,4"/>
<!-- Node78 -->
<g id="node1" class="node">
<title>Node78</title>
<polygon fill="#bfbfbf" stroke="#000000" points="0,-19.5 0,-38.5 127,-38.5 127,-19.5 0,-19.5"/>
<text text-anchor="middle" x="63.5" y="-26.5" font-family="Helvetica,sans-Serif" font-size="10.00" fill="#000000">Event::GetNumParams</text>
</g>
<!-- Node79 -->
<g id="node2" class="node">
<title>Node79</title>
<g id="a_node2"><a xlink:href="classInputMatrix.html#ab36ad421b65b64d6e64f228b84792b4c" target="_top" xlink:title="InputMatrix::CreateParameterSets">
<polygon fill="#ffffff" stroke="#000000" points="526,-38.5 526,-57.5 708,-57.5 708,-38.5 526,-38.5"/>
<text text-anchor="middle" x="617" y="-45.5" font-family="Helvetica,sans-Serif" font-size="10.00" fill="#000000">InputMatrix::CreateParameterSets</text>
</a>
</g>
</g>
<!-- Node78&#45;&gt;Node79 -->
<g id="edge1" class="edge">
<title>Node78&#45;&gt;Node79</title>
<path fill="none" stroke="#191970" d="M113.9171,-40.5381C129.5589,-43.6012 146.9143,-46.4779 163,-48 288.3541,-59.8613 434.0504,-56.9192 525.8873,-53.0301"/>
<polygon fill="#191970" stroke="#191970" points="114.4122,-37.0674 103.9161,-38.5107 113.0214,-43.9278 114.4122,-37.0674"/>
</g>
<!-- Node81 -->
<g id="node4" class="node">
<title>Node81</title>
<g id="a_node4"><a xlink:href="classInputMatrix.html#a767b7c5cd149e18a51105922aa9e8abb" target="_top" xlink:title="InputMatrix::CreateConditions">
<polygon fill="#ffffff" stroke="#000000" points="536,-.5 536,-19.5 698,-19.5 698,-.5 536,-.5"/>
<text text-anchor="middle" x="617" y="-7.5" font-family="Helvetica,sans-Serif" font-size="10.00" fill="#000000">InputMatrix::CreateConditions</text>
</a>
</g>
</g>
<!-- Node78&#45;&gt;Node81 -->
<g id="edge3" class="edge">
<title>Node78&#45;&gt;Node81</title>
<path fill="none" stroke="#191970" d="M113.9171,-17.4619C129.5589,-14.3988 146.9143,-11.5221 163,-10 292.8661,2.2883 444.5651,-1.3118 535.5912,-5.3929"/>
<polygon fill="#191970" stroke="#191970" points="113.0214,-14.0722 103.9161,-19.4893 114.4122,-20.9326 113.0214,-14.0722"/>
</g>
<!-- Node82 -->
<g id="node5" class="node">
<title>Node82</title>
<g id="a_node5"><a xlink:href="classInputMatrix.html#a3fef785cfe7cbdd8c5cef1b3988a5928" target="_top" xlink:title="InputMatrix::ParseToken">
<polygon fill="#ffffff" stroke="#000000" points="163,-19.5 163,-38.5 296,-38.5 296,-19.5 163,-19.5"/>
<text text-anchor="middle" x="229.5" y="-26.5" font-family="Helvetica,sans-Serif" font-size="10.00" fill="#000000">InputMatrix::ParseToken</text>
</a>
</g>
</g>
<!-- Node78&#45;&gt;Node82 -->
<g id="edge5" class="edge">
<title>Node78&#45;&gt;Node82</title>
<path fill="none" stroke="#191970" d="M137.4657,-29C145.9491,-29 154.5599,-29 162.9379,-29"/>
<polygon fill="#191970" stroke="#191970" points="137.2052,-25.5001 127.2052,-29 137.2052,-32.5001 137.2052,-25.5001"/>
</g>
<!-- Node80 -->
<g id="node3" class="node">
<title>Node80</title>
<g id="a_node3"><a xlink:href="classInputMatrix.html#a792ede8dc637e3d8e6c4aa8141596d18" target="_top" xlink:title="InputMatrix::CreateBinding">
<polygon fill="#ffffff" stroke="#000000" points="744,-19.5 744,-38.5 891,-38.5 891,-19.5 744,-19.5"/>
<text text-anchor="middle" x="817.5" y="-26.5" font-family="Helvetica,sans-Serif" font-size="10.00" fill="#000000">InputMatrix::CreateBinding</text>
</a>
</g>
</g>
<!-- Node79&#45;&gt;Node80 -->
<g id="edge2" class="edge">
<title>Node79&#45;&gt;Node80</title>
<path fill="none" stroke="#191970" d="M718.3074,-38.3998C726.9636,-37.5795 735.6093,-36.7602 743.9864,-35.9664"/>
<polygon fill="#191970" stroke="#191970" points="717.7816,-34.9339 708.1564,-39.3617 718.442,-41.9026 717.7816,-34.9339"/>
</g>
<!-- Node81&#45;&gt;Node80 -->
<g id="edge4" class="edge">
<title>Node81&#45;&gt;Node80</title>
<path fill="none" stroke="#191970" d="M708.2344,-18.6456C720.1722,-19.7769 732.282,-20.9245 743.8792,-22.0235"/>
<polygon fill="#191970" stroke="#191970" points="708.5476,-15.1597 698.262,-17.7006 707.8872,-22.1285 708.5476,-15.1597"/>
</g>
<!-- Node83 -->
<g id="node6" class="node">
<title>Node83</title>
<g id="a_node6"><a xlink:href="classInputMatrix.html#a0f597dbf1d6c784c851626005fb2ee72" target="_top" xlink:title="InputMatrix::ParseExpression">
<polygon fill="#ffffff" stroke="#000000" points="332,-19.5 332,-38.5 490,-38.5 490,-19.5 332,-19.5"/>
<text text-anchor="middle" x="411" y="-26.5" font-family="Helvetica,sans-Serif" font-size="10.00" fill="#000000">InputMatrix::ParseExpression</text>
</a>
</g>
</g>
<!-- Node82&#45;&gt;Node83 -->
<g id="edge6" class="edge">
<title>Node82&#45;&gt;Node83</title>
<path fill="none" stroke="#191970" d="M306.2659,-29C314.7226,-29 323.3454,-29 331.8308,-29"/>
<polygon fill="#191970" stroke="#191970" points="306.0533,-25.5001 296.0533,-29 306.0533,-32.5001 306.0533,-25.5001"/>
</g>
<!-- Node83&#45;&gt;Node79 -->
<g id="edge7" class="edge">
<title>Node83&#45;&gt;Node79</title>
<path fill="none" stroke="#191970" d="M500.2839,-37.2349C508.7328,-38.0142 517.3071,-38.805 525.7739,-39.5859"/>
<polygon fill="#191970" stroke="#191970" points="500.335,-33.7249 490.0558,-36.2916 499.6921,-40.6953 500.335,-33.7249"/>
</g>
<!-- Node83&#45;&gt;Node81 -->
<g id="edge8" class="edge">
<title>Node83&#45;&gt;Node81</title>
<path fill="none" stroke="#191970" d="M500.3298,-20.7608C512.1102,-19.6743 524.1333,-18.5654 535.7682,-17.4923"/>
<polygon fill="#191970" stroke="#191970" points="499.6921,-17.3047 490.0558,-21.7084 500.335,-24.2751 499.6921,-17.3047"/>
</g>
</g>
</svg>
