<?xml version="1.0" encoding="UTF-8" standalone="no"?>
<!DOCTYPE svg PUBLIC "-//W3C//DTD SVG 1.1//EN"
 "http://www.w3.org/Graphics/SVG/1.1/DTD/svg11.dtd">
<!-- Generated by graphviz version 2.40.1 (20161225.0304)
 -->
<!-- Title: Fweelin::go Pages: 1 -->
<svg width="668pt" height="408pt"
 viewBox="0.00 0.00 668.00 408.00" xmlns="http://www.w3.org/2000/svg" xmlns:xlink="http://www.w3.org/1999/xlink">
<g id="graph0" class="graph" transform="scale(1 1) rotate(0) translate(4 404)">
<title>Fweelin::go</title>
<polygon fill="#ffffff" stroke="transparent" points="-4,4 -4,-404 664,-404 664,4 -4,4"/>
<!-- Node541 -->
<g id="node1" class="node">
<title>Node541</title>
<polygon fill="#bfbfbf" stroke="#000000" points="0,-266.5 0,-285.5 72,-285.5 72,-266.5 0,-266.5"/>
<text text-anchor="middle" x="36" y="-273.5" font-family="Helvetica,sans-Serif" font-size="10.00" fill="#000000">Fweelin::go</text>
</g>
<!-- Node542 -->
<g id="node2" class="node">
<title>Node542</title>
<g id="a_node2"><a xlink:href="classEvent.html#aa67af0ae99b897e4f0ce42068c4e4c00" target="_top" xlink:title="Event::GetEventByType">
<polygon fill="#ffffff" stroke="#000000" points="308,-380.5 308,-399.5 439,-399.5 439,-380.5 308,-380.5"/>
<text text-anchor="middle" x="373.5" y="-387.5" font-family="Helvetica,sans-Serif" font-size="10.00" fill="#000000">Event::GetEventByType</text>
</a>
</g>
</g>
<!-- Node541&#45;&gt;Node542 -->
<g id="edge1" class="edge">
<title>Node541&#45;&gt;Node542</title>
<path fill="none" stroke="#191970" d="M52.2153,-285.5319C66.5707,-293.7326 88.2505,-305.5435 108,-314 181.2564,-345.3675 200.9878,-350.5171 278,-371 288.0899,-373.6836 298.8699,-376.1782 309.4196,-378.4189"/>
<polygon fill="#191970" stroke="#191970" points="308.9325,-381.8921 319.4338,-380.4871 310.3484,-375.0367 308.9325,-381.8921"/>
</g>
<!-- Node543 -->
<g id="node3" class="node">
<title>Node543</title>
<g id="a_node3"><a xlink:href="classPreallocated.html#a9195f3c7f49432b1dd7be89e53c6a5b1" target="_top" xlink:title="Preallocated::RTNew">
<polygon fill="#ffffff" stroke="#000000" points="116.5,-285.5 116.5,-304.5 233.5,-304.5 233.5,-285.5 116.5,-285.5"/>
<text text-anchor="middle" x="175" y="-292.5" font-family="Helvetica,sans-Serif" font-size="10.00" fill="#000000">Preallocated::RTNew</text>
</a>
</g>
</g>
<!-- Node541&#45;&gt;Node543 -->
<g id="edge2" class="edge">
<title>Node541&#45;&gt;Node543</title>
<path fill="none" stroke="#191970" d="M72.1578,-280.9424C82.7155,-282.3856 94.6185,-284.0126 106.4832,-285.6344"/>
<polygon fill="#191970" stroke="#191970" points="106.0284,-289.1047 116.4103,-286.9913 106.9765,-282.1692 106.0284,-289.1047"/>
</g>
<!-- Node544 -->
<g id="node4" class="node">
<title>Node544</title>
<g id="a_node4"><a xlink:href="classSDLIO.html#ad1b1bf6d23251b3014749b18497c1b91" target="_top" xlink:title="SDLIO::run_sdl_thread">
<polygon fill="#ffffff" stroke="#000000" points="113,-247.5 113,-266.5 237,-266.5 237,-247.5 113,-247.5"/>
<text text-anchor="middle" x="175" y="-254.5" font-family="Helvetica,sans-Serif" font-size="10.00" fill="#000000">SDLIO::run_sdl_thread</text>
</a>
</g>
</g>
<!-- Node541&#45;&gt;Node544 -->
<g id="edge3" class="edge">
<title>Node541&#45;&gt;Node544</title>
<path fill="none" stroke="#191970" d="M72.1578,-271.0576C81.6063,-269.7661 92.1323,-268.3272 102.7441,-266.8767"/>
<polygon fill="#191970" stroke="#191970" points="103.4783,-270.309 112.9122,-265.4868 102.5303,-263.3735 103.4783,-270.309"/>
</g>
<!-- Node562 -->
<g id="node22" class="node">
<title>Node562</title>
<g id="a_node22"><a xlink:href="classRT__RWThreads.html#af25100de29d6f7623a9f14fcdc9bddf6" target="_top" xlink:title="RT_RWThreads::CloseAll">
<polygon fill="#ffffff" stroke="#000000" points="108,-209.5 108,-228.5 242,-228.5 242,-209.5 108,-209.5"/>
<text text-anchor="middle" x="175" y="-216.5" font-family="Helvetica,sans-Serif" font-size="10.00" fill="#000000">RT_RWThreads::CloseAll</text>
</a>
</g>
</g>
<!-- Node541&#45;&gt;Node562 -->
<g id="edge23" class="edge">
<title>Node541&#45;&gt;Node562</title>
<path fill="none" stroke="#191970" d="M51.8381,-266.4006C66.1282,-258.0437 87.9253,-246.0408 108,-238 113.8188,-235.6693 120.0287,-233.5034 126.2325,-231.5311"/>
<polygon fill="#191970" stroke="#191970" points="127.3644,-234.8453 135.9194,-228.5953 125.3341,-228.1462 127.3644,-234.8453"/>
</g>
<!-- Node544&#45;&gt;Node542 -->
<g id="edge6" class="edge">
<title>Node544&#45;&gt;Node542</title>
<path fill="none" stroke="#191970" d="M227.682,-266.6316C232.905,-269.0864 237.813,-272.158 242,-276 275.2688,-306.5271 243.538,-341.8267 278,-371 283.9876,-376.0687 290.9425,-379.9241 298.3174,-382.8395"/>
<polygon fill="#191970" stroke="#191970" points="297.2481,-386.1725 307.8422,-386.0502 299.4841,-379.5392 297.2481,-386.1725"/>
</g>
<!-- Node545 -->
<g id="node5" class="node">
<title>Node545</title>
<g id="a_node5"><a xlink:href="classFweelin.html#a21e51d7b639faaecc415624ab6c16a71" target="_top" xlink:title="Fweelin::getEMG">
<polygon fill="#ffffff" stroke="#000000" points="324.5,-342.5 324.5,-361.5 422.5,-361.5 422.5,-342.5 324.5,-342.5"/>
<text text-anchor="middle" x="373.5" y="-349.5" font-family="Helvetica,sans-Serif" font-size="10.00" fill="#000000">Fweelin::getEMG</text>
</a>
</g>
</g>
<!-- Node544&#45;&gt;Node545 -->
<g id="edge4" class="edge">
<title>Node544&#45;&gt;Node545</title>
<path fill="none" stroke="#191970" d="M224.5465,-266.519C230.7662,-268.9857 236.7706,-272.091 242,-276 265.999,-293.9394 253.3033,-316.0338 278,-333 288.6647,-340.3264 301.489,-344.9703 314.2282,-347.8809"/>
<polygon fill="#191970" stroke="#191970" points="313.8987,-351.3825 324.3838,-349.8616 315.2387,-344.5119 313.8987,-351.3825"/>
</g>
<!-- Node546 -->
<g id="node6" class="node">
<title>Node546</title>
<g id="a_node6"><a xlink:href="classEventManager.html#a900be2c959408f76e6926c96197bd773" target="_top" xlink:title="EventManager::ListenEvent">
<polygon fill="#ffffff" stroke="#000000" points="299,-304.5 299,-323.5 448,-323.5 448,-304.5 299,-304.5"/>
<text text-anchor="middle" x="373.5" y="-311.5" font-family="Helvetica,sans-Serif" font-size="10.00" fill="#000000">EventManager::ListenEvent</text>
</a>
</g>
</g>
<!-- Node544&#45;&gt;Node546 -->
<g id="edge5" class="edge">
<title>Node544&#45;&gt;Node546</title>
<path fill="none" stroke="#191970" d="M214.0806,-266.5953C223.3585,-269.2795 233.1332,-272.4485 242,-276 258.7945,-282.7269 260.9501,-288.9495 278,-295 285.6452,-297.713 293.78,-300.0766 301.952,-302.1263"/>
<polygon fill="#191970" stroke="#191970" points="301.372,-305.5855 311.9083,-304.4733 302.9782,-298.7722 301.372,-305.5855"/>
</g>
<!-- Node547 -->
<g id="node7" class="node">
<title>Node547</title>
<g id="a_node7"><a xlink:href="classEventManager.html#a4a73f2e7ff1724f28427f7c0d5725c8e" target="_top" xlink:title="EventManager::BroadcastEventNow">
<polygon fill="#ffffff" stroke="#000000" points="278,-266.5 278,-285.5 469,-285.5 469,-266.5 278,-266.5"/>
<text text-anchor="middle" x="373.5" y="-273.5" font-family="Helvetica,sans-Serif" font-size="10.00" fill="#000000">EventManager::BroadcastEventNow</text>
</a>
</g>
</g>
<!-- Node544&#45;&gt;Node547 -->
<g id="edge7" class="edge">
<title>Node544&#45;&gt;Node547</title>
<path fill="none" stroke="#191970" d="M237.262,-262.9596C246.9983,-263.8915 257.2888,-264.8765 267.6757,-265.8707"/>
<polygon fill="#191970" stroke="#191970" points="267.3609,-269.3565 277.6489,-266.8253 268.028,-262.3883 267.3609,-269.3565"/>
</g>
<!-- Node551 -->
<g id="node11" class="node">
<title>Node551</title>
<g id="a_node11"><a xlink:href="classFweelin.html#a681d7ca8d0789199af135f22c26a5409" target="_top" xlink:title="Fweelin::getCFG">
<polygon fill="#ffffff" stroke="#000000" points="535,-228.5 535,-247.5 630,-247.5 630,-228.5 535,-228.5"/>
<text text-anchor="middle" x="582.5" y="-235.5" font-family="Helvetica,sans-Serif" font-size="10.00" fill="#000000">Fweelin::getCFG</text>
</a>
</g>
</g>
<!-- Node544&#45;&gt;Node551 -->
<g id="edge11" class="edge">
<title>Node544&#45;&gt;Node551</title>
<path fill="none" stroke="#191970" d="M237.3341,-254.0936C315.4828,-250.4499 448.4007,-244.2525 524.472,-240.7056"/>
<polygon fill="#191970" stroke="#191970" points="524.991,-244.1853 534.8171,-240.2233 524.6649,-237.1929 524.991,-244.1853"/>
</g>
<!-- Node552 -->
<g id="node12" class="node">
<title>Node552</title>
<g id="a_node12"><a xlink:href="classFloConfig.html#aaedfda90b488c27061a73b3bc98faf9a" target="_top" xlink:title="FloConfig::IsDebugInfo">
<polygon fill="#ffffff" stroke="#000000" points="310.5,-190.5 310.5,-209.5 436.5,-209.5 436.5,-190.5 310.5,-190.5"/>
<text text-anchor="middle" x="373.5" y="-197.5" font-family="Helvetica,sans-Serif" font-size="10.00" fill="#000000">FloConfig::IsDebugInfo</text>
</a>
</g>
</g>
<!-- Node544&#45;&gt;Node552 -->
<g id="edge12" class="edge">
<title>Node544&#45;&gt;Node552</title>
<path fill="none" stroke="#191970" d="M211.0065,-247.4648C221.0946,-244.6107 232.0272,-241.3449 242,-238 258.2762,-232.541 261.6434,-229.2133 278,-224 291.7621,-219.6136 306.8429,-215.5083 320.8728,-211.9763"/>
<polygon fill="#191970" stroke="#191970" points="321.9986,-215.3036 330.8691,-209.51 320.3218,-208.5074 321.9986,-215.3036"/>
</g>
<!-- Node553 -->
<g id="node13" class="node">
<title>Node553</title>
<g id="a_node13"><a xlink:href="classSDLIO.html#ab0043db04cba9d0a26b8cce4b20f85f8" target="_top" xlink:title="SDLIO::GetSDLName">
<polygon fill="#ffffff" stroke="#000000" points="315,-152.5 315,-171.5 432,-171.5 432,-152.5 315,-152.5"/>
<text text-anchor="middle" x="373.5" y="-159.5" font-family="Helvetica,sans-Serif" font-size="10.00" fill="#000000">SDLIO::GetSDLName</text>
</a>
</g>
</g>
<!-- Node544&#45;&gt;Node553 -->
<g id="edge13" class="edge">
<title>Node544&#45;&gt;Node553</title>
<path fill="none" stroke="#191970" d="M224.5465,-247.481C230.7662,-245.0143 236.7706,-241.909 242,-238 265.999,-220.0606 253.3033,-197.9662 278,-181 286.1512,-175.4003 295.564,-171.3677 305.2361,-168.4783"/>
<polygon fill="#191970" stroke="#191970" points="306.1581,-171.8551 314.9576,-165.9544 304.399,-165.0797 306.1581,-171.8551"/>
</g>
<!-- Node554 -->
<g id="node14" class="node">
<title>Node554</title>
<g id="a_node14"><a xlink:href="classSDLIO.html#a491e66a604fb750866d5de45dfa6aae0" target="_top" xlink:title="SDLIO::handle_key">
<polygon fill="#ffffff" stroke="#000000" points="319.5,-114.5 319.5,-133.5 427.5,-133.5 427.5,-114.5 319.5,-114.5"/>
<text text-anchor="middle" x="373.5" y="-121.5" font-family="Helvetica,sans-Serif" font-size="10.00" fill="#000000">SDLIO::handle_key</text>
</a>
</g>
</g>
<!-- Node544&#45;&gt;Node554 -->
<g id="edge14" class="edge">
<title>Node544&#45;&gt;Node554</title>
<path fill="none" stroke="#191970" d="M227.682,-247.3684C232.905,-244.9136 237.813,-241.842 242,-238 275.2688,-207.4729 243.538,-172.1733 278,-143 286.8815,-135.4815 297.8916,-130.6325 309.2434,-127.5611"/>
<polygon fill="#191970" stroke="#191970" points="310.2796,-130.9153 319.2622,-125.2971 308.7366,-124.0874 310.2796,-130.9153"/>
</g>
<!-- Node561 -->
<g id="node21" class="node">
<title>Node561</title>
<g id="a_node21"><a xlink:href="classEventManager.html#abfc3ddd37f9bd472a41ab43632e44736" target="_top" xlink:title="EventManager::UnlistenEvent">
<polygon fill="#ffffff" stroke="#000000" points="293,-76.5 293,-95.5 454,-95.5 454,-76.5 293,-76.5"/>
<text text-anchor="middle" x="373.5" y="-83.5" font-family="Helvetica,sans-Serif" font-size="10.00" fill="#000000">EventManager::UnlistenEvent</text>
</a>
</g>
</g>
<!-- Node544&#45;&gt;Node561 -->
<g id="edge22" class="edge">
<title>Node544&#45;&gt;Node561</title>
<path fill="none" stroke="#191970" d="M228.7236,-247.4423C233.626,-244.9669 238.1759,-241.8702 242,-238 285.0417,-194.4393 233.252,-146.806 278,-105 279.9455,-103.1824 282.0132,-101.5165 284.1805,-99.9905"/>
<polygon fill="#191970" stroke="#191970" points="286.1672,-102.8817 292.9871,-94.7737 282.5995,-96.8591 286.1672,-102.8817"/>
</g>
<!-- Node548 -->
<g id="node8" class="node">
<title>Node548</title>
<g id="a_node8"><a xlink:href="classEvent.html#ac4c4170579544b41dff38ca1b8110e30" target="_top" xlink:title="Event::GetType">
<polygon fill="#ffffff" stroke="#000000" points="537.5,-342.5 537.5,-361.5 627.5,-361.5 627.5,-342.5 537.5,-342.5"/>
<text text-anchor="middle" x="582.5" y="-349.5" font-family="Helvetica,sans-Serif" font-size="10.00" fill="#000000">Event::GetType</text>
</a>
</g>
</g>
<!-- Node547&#45;&gt;Node548 -->
<g id="edge8" class="edge">
<title>Node547&#45;&gt;Node548</title>
<path fill="none" stroke="#191970" d="M446.6165,-285.6359C454.4235,-288.0899 462.0442,-291.1602 469,-295 489.3672,-306.2434 484.8853,-321.311 505,-333 511.9826,-337.0577 519.804,-340.2527 527.7201,-342.7674"/>
<polygon fill="#191970" stroke="#191970" points="526.7969,-346.1436 537.3728,-345.5096 528.7099,-339.41 526.7969,-346.1436"/>
</g>
<!-- Node549 -->
<g id="node9" class="node">
<title>Node549</title>
<g id="a_node9"><a xlink:href="classEventListener.html#a831820a9229e852bd7e2fad686b725b2" target="_top" xlink:title="EventListener::ReceiveEvent">
<polygon fill="#ffffff" stroke="#000000" points="505,-304.5 505,-323.5 660,-323.5 660,-304.5 505,-304.5"/>
<text text-anchor="middle" x="582.5" y="-311.5" font-family="Helvetica,sans-Serif" font-size="10.00" fill="#000000">EventListener::ReceiveEvent</text>
</a>
</g>
</g>
<!-- Node547&#45;&gt;Node549 -->
<g id="edge9" class="edge">
<title>Node547&#45;&gt;Node549</title>
<path fill="none" stroke="#191970" d="M425.9698,-285.54C454.5413,-290.7348 490.0796,-297.1963 520.0691,-302.6489"/>
<polygon fill="#191970" stroke="#191970" points="519.5438,-306.1107 530.0087,-304.4561 520.7961,-299.2236 519.5438,-306.1107"/>
</g>
<!-- Node550 -->
<g id="node10" class="node">
<title>Node550</title>
<g id="a_node10"><a xlink:href="classPreallocated.html#aaf2139a79ca16de70acd9bc4564171b7" target="_top" xlink:title="Preallocated::RTDelete">
<polygon fill="#ffffff" stroke="#000000" points="518.5,-266.5 518.5,-285.5 646.5,-285.5 646.5,-266.5 518.5,-266.5"/>
<text text-anchor="middle" x="582.5" y="-273.5" font-family="Helvetica,sans-Serif" font-size="10.00" fill="#000000">Preallocated::RTDelete</text>
</a>
</g>
</g>
<!-- Node547&#45;&gt;Node550 -->
<g id="edge10" class="edge">
<title>Node547&#45;&gt;Node550</title>
<path fill="none" stroke="#191970" d="M469.1311,-276C482.277,-276 495.6115,-276 508.2943,-276"/>
<polygon fill="#191970" stroke="#191970" points="508.3099,-279.5001 518.3099,-276 508.3098,-272.5001 508.3099,-279.5001"/>
</g>
<!-- Node554&#45;&gt;Node551 -->
<g id="edge16" class="edge">
<title>Node554&#45;&gt;Node551</title>
<path fill="none" stroke="#191970" d="M427.749,-125.9876C442.3195,-128.7467 457.2699,-133.8509 469,-143 498.4713,-165.9866 476.0419,-195.3702 505,-219 510.8295,-223.7569 517.6739,-227.3506 524.84,-230.0605"/>
<polygon fill="#191970" stroke="#191970" points="524.1553,-233.5163 534.7464,-233.2343 526.2911,-226.8501 524.1553,-233.5163"/>
</g>
<!-- Node555 -->
<g id="node15" class="node">
<title>Node555</title>
<g id="a_node15"><a xlink:href="classFweelin.html#a4422f3a93561eff272cd5f7ecb0782ee" target="_top" xlink:title="Fweelin::getRP">
<polygon fill="#ffffff" stroke="#000000" points="538,-190.5 538,-209.5 627,-209.5 627,-190.5 538,-190.5"/>
<text text-anchor="middle" x="582.5" y="-197.5" font-family="Helvetica,sans-Serif" font-size="10.00" fill="#000000">Fweelin::getRP</text>
</a>
</g>
</g>
<!-- Node554&#45;&gt;Node555 -->
<g id="edge15" class="edge">
<title>Node554&#45;&gt;Node555</title>
<path fill="none" stroke="#191970" d="M427.568,-128.8117C441.6661,-131.6281 456.4204,-136.0556 469,-143 489.3672,-154.2434 484.8853,-169.311 505,-181 512.0678,-185.1072 519.9949,-188.3305 528.0097,-190.8591"/>
<polygon fill="#191970" stroke="#191970" points="527.2031,-194.268 537.7776,-193.6116 529.1018,-187.5304 527.2031,-194.268"/>
</g>
<!-- Node556 -->
<g id="node16" class="node">
<title>Node556</title>
<g id="a_node16"><a xlink:href="classFweelin.html#a7b1253ea49ee57244a0d8cca152d72e5" target="_top" xlink:title="Fweelin::getLOOPMGR">
<polygon fill="#ffffff" stroke="#000000" points="520,-152.5 520,-171.5 645,-171.5 645,-152.5 520,-152.5"/>
<text text-anchor="middle" x="582.5" y="-159.5" font-family="Helvetica,sans-Serif" font-size="10.00" fill="#000000">Fweelin::getLOOPMGR</text>
</a>
</g>
</g>
<!-- Node554&#45;&gt;Node556 -->
<g id="edge17" class="edge">
<title>Node554&#45;&gt;Node556</title>
<path fill="none" stroke="#191970" d="M425.9698,-133.54C454.5413,-138.7348 490.0796,-145.1963 520.0691,-150.6489"/>
<polygon fill="#191970" stroke="#191970" points="519.5438,-154.1107 530.0087,-152.4561 520.7961,-147.2236 519.5438,-154.1107"/>
</g>
<!-- Node557 -->
<g id="node17" class="node">
<title>Node557</title>
<g id="a_node17"><a xlink:href="classLoopManager.html#a855f253885183cbe40f1b9e1b176895d" target="_top" xlink:title="LoopManager::SetSubdivide">
<polygon fill="#ffffff" stroke="#000000" points="506.5,-114.5 506.5,-133.5 658.5,-133.5 658.5,-114.5 506.5,-114.5"/>
<text text-anchor="middle" x="582.5" y="-121.5" font-family="Helvetica,sans-Serif" font-size="10.00" fill="#000000">LoopManager::SetSubdivide</text>
</a>
</g>
</g>
<!-- Node554&#45;&gt;Node557 -->
<g id="edge18" class="edge">
<title>Node554&#45;&gt;Node557</title>
<path fill="none" stroke="#191970" d="M427.5945,-124C448.4554,-124 472.8402,-124 496.0075,-124"/>
<polygon fill="#191970" stroke="#191970" points="496.1972,-127.5001 506.1972,-124 496.1972,-120.5001 496.1972,-127.5001"/>
</g>
<!-- Node558 -->
<g id="node18" class="node">
<title>Node558</title>
<g id="a_node18"><a xlink:href="classLoopManager.html#a28c81cf1fb5fdf13a633e33d06975a0d" target="_top" xlink:title="LoopManager::GetCurPulse">
<polygon fill="#ffffff" stroke="#000000" points="508.5,-76.5 508.5,-95.5 656.5,-95.5 656.5,-76.5 508.5,-76.5"/>
<text text-anchor="middle" x="582.5" y="-83.5" font-family="Helvetica,sans-Serif" font-size="10.00" fill="#000000">LoopManager::GetCurPulse</text>
</a>
</g>
</g>
<!-- Node554&#45;&gt;Node558 -->
<g id="edge19" class="edge">
<title>Node554&#45;&gt;Node558</title>
<path fill="none" stroke="#191970" d="M425.9698,-114.46C454.5413,-109.2652 490.0796,-102.8037 520.0691,-97.3511"/>
<polygon fill="#191970" stroke="#191970" points="520.7961,-100.7764 530.0087,-95.5439 519.5438,-93.8893 520.7961,-100.7764"/>
</g>
<!-- Node559 -->
<g id="node19" class="node">
<title>Node559</title>
<g id="a_node19"><a xlink:href="classPulse.html#a360cef541dc2460d10b6d2f5e29cc7b8" target="_top" xlink:title="Pulse::SwitchMetronome">
<polygon fill="#ffffff" stroke="#000000" points="514,-38.5 514,-57.5 651,-57.5 651,-38.5 514,-38.5"/>
<text text-anchor="middle" x="582.5" y="-45.5" font-family="Helvetica,sans-Serif" font-size="10.00" fill="#000000">Pulse::SwitchMetronome</text>
</a>
</g>
</g>
<!-- Node554&#45;&gt;Node559 -->
<g id="edge20" class="edge">
<title>Node554&#45;&gt;Node559</title>
<path fill="none" stroke="#191970" d="M427.568,-119.1883C441.6661,-116.3719 456.4204,-111.9444 469,-105 489.3672,-93.7566 484.8853,-78.689 505,-67 508.8778,-64.7466 513.0143,-62.7592 517.282,-61.0067"/>
<polygon fill="#191970" stroke="#191970" points="518.5943,-64.2535 526.7849,-57.533 516.191,-57.679 518.5943,-64.2535"/>
</g>
<!-- Node560 -->
<g id="node20" class="node">
<title>Node560</title>
<g id="a_node20"><a xlink:href="classPulse.html#a1bbb8df37e9d9c23cd3835995378a80b" target="_top" xlink:title="Pulse::IsMetronomeActive">
<polygon fill="#ffffff" stroke="#000000" points="511,-.5 511,-19.5 654,-19.5 654,-.5 511,-.5"/>
<text text-anchor="middle" x="582.5" y="-7.5" font-family="Helvetica,sans-Serif" font-size="10.00" fill="#000000">Pulse::IsMetronomeActive</text>
</a>
</g>
</g>
<!-- Node554&#45;&gt;Node560 -->
<g id="edge21" class="edge">
<title>Node554&#45;&gt;Node560</title>
<path fill="none" stroke="#191970" d="M427.749,-122.0124C442.3195,-119.2533 457.2699,-114.1491 469,-105 498.4713,-82.0134 476.0419,-52.6298 505,-29 507.0662,-27.314 509.2598,-25.7741 511.5501,-24.368"/>
<polygon fill="#191970" stroke="#191970" points="513.5261,-27.2862 520.7976,-19.5806 510.3079,-21.0698 513.5261,-27.2862"/>
</g>
</g>
</svg>
