<?xml version="1.0" encoding="UTF-8" standalone="no"?>
<!DOCTYPE svg PUBLIC "-//W3C//DTD SVG 1.1//EN"
 "http://www.w3.org/Graphics/SVG/1.1/DTD/svg11.dtd">
<!-- Generated by graphviz version 2.40.1 (20161225.0304)
 -->
<!-- Title: DListItem Pages: 1 -->
<svg width="163pt" height="182pt"
 viewBox="0.00 0.00 163.00 182.00" xmlns="http://www.w3.org/2000/svg" xmlns:xlink="http://www.w3.org/1999/xlink">
<g id="graph0" class="graph" transform="scale(1 1) rotate(0) translate(4 178)">
<title>DListItem</title>
<polygon fill="#ffffff" stroke="transparent" points="-4,4 -4,-178 159,-178 159,4 -4,4"/>
<!-- Node1 -->
<g id="node1" class="node">
<title>Node1</title>
<polygon fill="#bfbfbf" stroke="#000000" points="0,-.5 0,-57.5 83,-57.5 83,-.5 0,-.5"/>
<text text-anchor="middle" x="41.5" y="-45.5" font-family="Helvetica,sans-Serif" font-size="10.00" fill="#000000">DListItem</text>
<polyline fill="none" stroke="#000000" points="0,-38.5 83,-38.5 "/>
<text text-anchor="middle" x="41.5" y="-26.5" font-family="Helvetica,sans-Serif" font-size="10.00" fill="#000000"> </text>
<polyline fill="none" stroke="#000000" points="0,-19.5 83,-19.5 "/>
<text text-anchor="start" x="8" y="-7.5" font-family="Helvetica,sans-Serif" font-size="10.00" fill="#000000">+ DListItem()</text>
</g>
<!-- Node2 -->
<g id="node2" class="node">
<title>Node2</title>
<g id="a_node2"><a xlink:href="classSListItem.html" target="_top" xlink:title="{SListItem\n||+ SListItem()\l}">
<polygon fill="#ffffff" stroke="#000000" points="1,-116.5 1,-173.5 82,-173.5 82,-116.5 1,-116.5"/>
<text text-anchor="middle" x="41.5" y="-161.5" font-family="Helvetica,sans-Serif" font-size="10.00" fill="#000000">SListItem</text>
<polyline fill="none" stroke="#000000" points="1,-154.5 82,-154.5 "/>
<text text-anchor="middle" x="41.5" y="-142.5" font-family="Helvetica,sans-Serif" font-size="10.00" fill="#000000"> </text>
<polyline fill="none" stroke="#000000" points="1,-135.5 82,-135.5 "/>
<text text-anchor="start" x="9" y="-123.5" font-family="Helvetica,sans-Serif" font-size="10.00" fill="#000000">+ SListItem()</text>
</a>
</g>
</g>
<!-- Node2&#45;&gt;Node1 -->
<g id="edge1" class="edge">
<title>Node2&#45;&gt;Node1</title>
<path fill="none" stroke="#404040" d="M41.5,-116.3258C41.5,-102.3834 41.5,-85.3727 41.5,-70.0815"/>
<polygon fill="none" stroke="#404040" points="41.5001,-69.7463 37.5,-63.7464 41.5,-57.7463 45.5,-63.7463 41.5001,-69.7463"/>
<text text-anchor="middle" x="71" y="-90" font-family="Helvetica,sans-Serif" font-size="10.00" fill="#000000"> +slist_prev</text>
<text text-anchor="middle" x="71" y="-79" font-family="Helvetica,sans-Serif" font-size="10.00" fill="#000000">+slist_next</text>
</g>
<!-- Node2&#45;&gt;Node2 -->
<g id="edge2" class="edge">
<title>Node2&#45;&gt;Node2</title>
<path fill="none" stroke="#404040" d="M82.235,-155.7257C92.4013,-154.9756 100,-151.4004 100,-145 100,-141.4998 97.7274,-138.8445 94.0052,-137.0342"/>
<polygon fill="none" stroke="#404040" points="93.9181,-137.0138 87.1634,-139.5385 82.235,-134.2743 88.9897,-131.7497 93.9181,-137.0138"/>
<text text-anchor="middle" x="127.5" y="-142.5" font-family="Helvetica,sans-Serif" font-size="10.00" fill="#000000"> &#45;slist_next</text>
</g>
</g>
</svg>
