<?xml version="1.0" encoding="UTF-8" standalone="no"?>
<!DOCTYPE svg PUBLIC "-//W3C//DTD SVG 1.1//EN"
 "http://www.w3.org/Graphics/SVG/1.1/DTD/svg11.dtd">
<!-- Generated by graphviz version 2.40.1 (20161225.0304)
 -->
<!-- Title: AudioBuffers::MixInputs Pages: 1 -->
<svg width="316pt" height="78pt"
 viewBox="0.00 0.00 316.00 77.50" xmlns="http://www.w3.org/2000/svg" xmlns:xlink="http://www.w3.org/1999/xlink">
<g id="graph0" class="graph" transform="scale(1 1) rotate(0) translate(4 73.5)">
<title>AudioBuffers::MixInputs</title>
<polygon fill="#ffffff" stroke="transparent" points="-4,4 -4,-73.5 312,-73.5 312,4 -4,4"/>
<!-- Node52 -->
<g id="node1" class="node">
<title>Node52</title>
<polygon fill="#bfbfbf" stroke="#000000" points="0,-28 0,-47 132,-47 132,-28 0,-28"/>
<text text-anchor="middle" x="66" y="-35" font-family="Helvetica,sans-Serif" font-size="10.00" fill="#000000">AudioBuffers::MixInputs</text>
</g>
<!-- Node53 -->
<g id="node2" class="node">
<title>Node53</title>
<g id="a_node2"><a xlink:href="classRecordProcessor.html#ad36d69ec9d41b424eb2e6c5fa2e0cf3a" target="_top" xlink:title="RecordProcessor::process">
<polygon fill="#ffffff" stroke="#000000" points="168,-50 168,-69 308,-69 308,-50 168,-50"/>
<text text-anchor="middle" x="238" y="-57" font-family="Helvetica,sans-Serif" font-size="10.00" fill="#000000">RecordProcessor::process</text>
</a>
</g>
</g>
<!-- Node52&#45;&gt;Node53 -->
<g id="edge1" class="edge">
<title>Node52&#45;&gt;Node53</title>
<path fill="none" stroke="#191970" d="M142.0236,-47.2239C150.6263,-48.3243 159.3639,-49.4419 167.886,-50.5319"/>
<polygon fill="#191970" stroke="#191970" points="142.3711,-43.74 132.0078,-45.9429 141.4829,-50.6834 142.3711,-43.74"/>
</g>
<!-- Node54 -->
<g id="node3" class="node">
<title>Node54</title>
<g id="a_node3"><a xlink:href="classPassthroughProcessor.html#a10fbf639d2b8899ef15011532da47ad8" target="_top" xlink:title="PassthroughProcessor\l::process">
<polygon fill="#ffffff" stroke="#000000" points="176.5,-.5 176.5,-30.5 299.5,-30.5 299.5,-.5 176.5,-.5"/>
<text text-anchor="start" x="184.5" y="-18.5" font-family="Helvetica,sans-Serif" font-size="10.00" fill="#000000">PassthroughProcessor</text>
<text text-anchor="middle" x="238" y="-7.5" font-family="Helvetica,sans-Serif" font-size="10.00" fill="#000000">::process</text>
</a>
</g>
</g>
<!-- Node52&#45;&gt;Node54 -->
<g id="edge2" class="edge">
<title>Node52&#45;&gt;Node54</title>
<path fill="none" stroke="#191970" d="M142.0281,-27.7755C153.5251,-26.3049 165.263,-24.8036 176.405,-23.3784"/>
<polygon fill="#191970" stroke="#191970" points="141.4829,-24.3166 132.0078,-29.0571 142.3711,-31.26 141.4829,-24.3166"/>
</g>
</g>
</svg>
