<?xml version="1.0" encoding="UTF-8" standalone="no"?>
<!DOCTYPE svg PUBLIC "-//W3C//DTD SVG 1.1//EN"
 "http://www.w3.org/Graphics/SVG/1.1/DTD/svg11.dtd">
<!-- Generated by graphviz version 2.40.1 (20161225.0304)
 -->
<!-- Title: Pulse::GetPct Pages: 1 -->
<svg width="672pt" height="186pt"
 viewBox="0.00 0.00 672.00 185.50" xmlns="http://www.w3.org/2000/svg" xmlns:xlink="http://www.w3.org/1999/xlink">
<g id="graph0" class="graph" transform="scale(1 1) rotate(0) translate(4 181.5)">
<title>Pulse::GetPct</title>
<polygon fill="#ffffff" stroke="transparent" points="-4,4 -4,-181.5 668,-181.5 668,4 -4,4"/>
<!-- Node55 -->
<g id="node1" class="node">
<title>Node55</title>
<polygon fill="#bfbfbf" stroke="#000000" points="0,-82 0,-101 81,-101 81,-82 0,-82"/>
<text text-anchor="middle" x="40.5" y="-89" font-family="Helvetica,sans-Serif" font-size="10.00" fill="#000000">Pulse::GetPct</text>
</g>
<!-- Node56 -->
<g id="node2" class="node">
<title>Node56</title>
<g id="a_node2"><a xlink:href="classLoopManager.html#a67c6f44d33880b35c875a8e6ea8babac" target="_top" xlink:title="LoopManager::TapPulse">
<polygon fill="#ffffff" stroke="#000000" points="339.5,-158 339.5,-177 470.5,-177 470.5,-158 339.5,-158"/>
<text text-anchor="middle" x="405" y="-165" font-family="Helvetica,sans-Serif" font-size="10.00" fill="#000000">LoopManager::TapPulse</text>
</a>
</g>
</g>
<!-- Node55&#45;&gt;Node56 -->
<g id="edge1" class="edge">
<title>Node55&#45;&gt;Node56</title>
<path fill="none" stroke="#191970" d="M57.3448,-108.6316C71.7885,-122.1053 93.876,-139.9773 117,-148.5 189.6412,-175.273 279.5008,-176.6505 339.3374,-173.5342"/>
<polygon fill="#191970" stroke="#191970" points="59.3956,-105.746 49.7738,-101.3107 54.5296,-110.7782 59.3956,-105.746"/>
</g>
<!-- Node58 -->
<g id="node4" class="node">
<title>Node58</title>
<g id="a_node4"><a xlink:href="classLoopManager.html#a861cdd2ace9aeb53b4ecf92728215265" target="_top" xlink:title="LoopManager::Deactivate">
<polygon fill="#ffffff" stroke="#000000" points="138,-120 138,-139 279,-139 279,-120 138,-120"/>
<text text-anchor="middle" x="208.5" y="-127" font-family="Helvetica,sans-Serif" font-size="10.00" fill="#000000">LoopManager::Deactivate</text>
</a>
</g>
</g>
<!-- Node55&#45;&gt;Node58 -->
<g id="edge3" class="edge">
<title>Node55&#45;&gt;Node58</title>
<path fill="none" stroke="#191970" d="M87.6673,-103.5185C97.3527,-105.9009 107.4934,-108.3333 117,-110.5 131.2368,-113.7448 146.7723,-117.0565 160.9339,-119.9869"/>
<polygon fill="#191970" stroke="#191970" points="88.333,-100.0776 77.7845,-101.0671 86.6478,-106.8717 88.333,-100.0776"/>
</g>
<!-- Node60 -->
<g id="node6" class="node">
<title>Node60</title>
<g id="a_node6"><a xlink:href="classRecordProcessor.html#aa20c0f68a5ee5e4739759b3783b6e4d1" target="_top" xlink:title="RecordProcessor::RecordProcessor">
<polygon fill="#ffffff" stroke="#000000" points="117,-82 117,-101 300,-101 300,-82 117,-82"/>
<text text-anchor="middle" x="208.5" y="-89" font-family="Helvetica,sans-Serif" font-size="10.00" fill="#000000">RecordProcessor::RecordProcessor</text>
</a>
</g>
</g>
<!-- Node55&#45;&gt;Node60 -->
<g id="edge7" class="edge">
<title>Node55&#45;&gt;Node60</title>
<path fill="none" stroke="#191970" d="M91.1788,-91.5C99.3149,-91.5 107.9488,-91.5 116.6965,-91.5"/>
<polygon fill="#191970" stroke="#191970" points="91.1681,-88.0001 81.1681,-91.5 91.1681,-95.0001 91.1681,-88.0001"/>
</g>
<!-- Node61 -->
<g id="node7" class="node">
<title>Node61</title>
<g id="a_node7"><a xlink:href="classRecordProcessor.html#ab035edfb707f8f1066b3597df7ddda7d" target="_top" xlink:title="RecordProcessor::End">
<polygon fill="#ffffff" stroke="#000000" points="148,-44 148,-63 269,-63 269,-44 148,-44"/>
<text text-anchor="middle" x="208.5" y="-51" font-family="Helvetica,sans-Serif" font-size="10.00" fill="#000000">RecordProcessor::End</text>
</a>
</g>
</g>
<!-- Node55&#45;&gt;Node61 -->
<g id="edge8" class="edge">
<title>Node55&#45;&gt;Node61</title>
<path fill="none" stroke="#191970" d="M87.6673,-79.4815C97.3527,-77.0991 107.4934,-74.6667 117,-72.5 131.2368,-69.2552 146.7723,-65.9435 160.9339,-63.0131"/>
<polygon fill="#191970" stroke="#191970" points="86.6478,-76.1283 77.7845,-81.9329 88.333,-82.9224 86.6478,-76.1283"/>
</g>
<!-- Node62 -->
<g id="node8" class="node">
<title>Node62</title>
<g id="a_node8"><a xlink:href="classVideoIO.html#a50e4ccae99e278ed7d65d9db86f18c92" target="_top" xlink:title="VideoIO::video_event_loop">
<polygon fill="#ffffff" stroke="#000000" points="135,-6 135,-25 282,-25 282,-6 135,-6"/>
<text text-anchor="middle" x="208.5" y="-13" font-family="Helvetica,sans-Serif" font-size="10.00" fill="#000000">VideoIO::video_event_loop</text>
</a>
</g>
</g>
<!-- Node55&#45;&gt;Node62 -->
<g id="edge9" class="edge">
<title>Node55&#45;&gt;Node62</title>
<path fill="none" stroke="#191970" d="M58.1817,-74.7623C72.8291,-61.8262 94.7755,-44.4929 117,-34.5 125.5824,-30.6411 134.9727,-27.5554 144.3642,-25.0908"/>
<polygon fill="#191970" stroke="#191970" points="55.5027,-72.4674 50.454,-81.782 60.2094,-77.6488 55.5027,-72.4674"/>
</g>
<!-- Node57 -->
<g id="node3" class="node">
<title>Node57</title>
<g id="a_node3"><a xlink:href="classLoopManager.html#a4aada2d07b7ce0a67a8119ece4805966" target="_top" xlink:title="LoopManager::ReceiveEvent">
<polygon fill="#ffffff" stroke="#000000" points="510,-120 510,-139 664,-139 664,-120 510,-120"/>
<text text-anchor="middle" x="587" y="-127" font-family="Helvetica,sans-Serif" font-size="10.00" fill="#000000">LoopManager::ReceiveEvent</text>
</a>
</g>
</g>
<!-- Node56&#45;&gt;Node57 -->
<g id="edge2" class="edge">
<title>Node56&#45;&gt;Node57</title>
<path fill="none" stroke="#191970" d="M460.9458,-155.819C486.7558,-150.4301 517.0069,-144.1139 541.404,-139.0201"/>
<polygon fill="#191970" stroke="#191970" points="459.9998,-152.441 450.9263,-157.911 461.4306,-159.2932 459.9998,-152.441"/>
</g>
<!-- Node58&#45;&gt;Node57 -->
<g id="edge6" class="edge">
<title>Node58&#45;&gt;Node57</title>
<path fill="none" stroke="#191970" d="M289.4775,-129.5C354.6404,-129.5 445.6111,-129.5 509.7599,-129.5"/>
<polygon fill="#191970" stroke="#191970" points="289.249,-126.0001 279.2489,-129.5 289.2489,-133.0001 289.249,-126.0001"/>
</g>
<!-- Node59 -->
<g id="node5" class="node">
<title>Node59</title>
<g id="a_node5"><a xlink:href="classFweelin.html#a4654015e2bc7cc94f3bfc421899a60d3" target="_top" xlink:title="Fweelin::TriggerSnapshot">
<polygon fill="#ffffff" stroke="#000000" points="336,-82 336,-101 474,-101 474,-82 336,-82"/>
<text text-anchor="middle" x="405" y="-89" font-family="Helvetica,sans-Serif" font-size="10.00" fill="#000000">Fweelin::TriggerSnapshot</text>
</a>
</g>
</g>
<!-- Node58&#45;&gt;Node59 -->
<g id="edge4" class="edge">
<title>Node58&#45;&gt;Node59</title>
<path fill="none" stroke="#191970" d="M267.9123,-118.0106C295.9495,-112.5886 329.0157,-106.1942 355.6481,-101.0439"/>
<polygon fill="#191970" stroke="#191970" points="266.9852,-114.625 257.8316,-119.96 268.3143,-121.4976 266.9852,-114.625"/>
</g>
<!-- Node59&#45;&gt;Node57 -->
<g id="edge5" class="edge">
<title>Node59&#45;&gt;Node57</title>
<path fill="none" stroke="#191970" d="M460.9458,-103.181C486.7558,-108.5699 517.0069,-114.8861 541.404,-119.9799"/>
<polygon fill="#191970" stroke="#191970" points="461.4306,-99.7068 450.9263,-101.089 459.9998,-106.559 461.4306,-99.7068"/>
</g>
<!-- Node63 -->
<g id="node9" class="node">
<title>Node63</title>
<g id="a_node9"><a xlink:href="classVideoIO.html#adb25c81a2bfe792fd4f64e23a4e21176" target="_top" xlink:title="VideoIO::run_video\l_thread">
<polygon fill="#ffffff" stroke="#000000" points="350.5,-.5 350.5,-30.5 459.5,-30.5 459.5,-.5 350.5,-.5"/>
<text text-anchor="start" x="358.5" y="-18.5" font-family="Helvetica,sans-Serif" font-size="10.00" fill="#000000">VideoIO::run_video</text>
<text text-anchor="middle" x="405" y="-7.5" font-family="Helvetica,sans-Serif" font-size="10.00" fill="#000000">_thread</text>
</a>
</g>
</g>
<!-- Node62&#45;&gt;Node63 -->
<g id="edge10" class="edge">
<title>Node62&#45;&gt;Node63</title>
<path fill="none" stroke="#191970" d="M292.3716,-15.5C311.9362,-15.5 332.2782,-15.5 350.2036,-15.5"/>
<polygon fill="#191970" stroke="#191970" points="292.2284,-12.0001 282.2284,-15.5 292.2284,-19.0001 292.2284,-12.0001"/>
</g>
</g>
</svg>
