<?xml version="1.0" encoding="UTF-8" standalone="no"?>
<!DOCTYPE svg PUBLIC "-//W3C//DTD SVG 1.1//EN"
 "http://www.w3.org/Graphics/SVG/1.1/DTD/svg11.dtd">
<!-- Generated by graphviz version 2.40.1 (20161225.0304)
 -->
<!-- Title: TriggerMap::ScanForHash Pages: 1 -->
<svg width="537pt" height="28pt"
 viewBox="0.00 0.00 537.00 28.00" xmlns="http://www.w3.org/2000/svg" xmlns:xlink="http://www.w3.org/1999/xlink">
<g id="graph0" class="graph" transform="scale(1 1) rotate(0) translate(4 24)">
<title>TriggerMap::ScanForHash</title>
<polygon fill="#ffffff" stroke="transparent" points="-4,4 -4,-24 533,-24 533,4 -4,4"/>
<!-- Node115 -->
<g id="node1" class="node">
<title>Node115</title>
<polygon fill="#bfbfbf" stroke="#000000" points="0,-.5 0,-19.5 139,-19.5 139,-.5 0,-.5"/>
<text text-anchor="middle" x="69.5" y="-7.5" font-family="Helvetica,sans-Serif" font-size="10.00" fill="#000000">TriggerMap::ScanForHash</text>
</g>
<!-- Node116 -->
<g id="node2" class="node">
<title>Node116</title>
<g id="a_node2"><a xlink:href="classLoopManager.html#ac70cdd5344c524d6aedfe5c67e856409" target="_top" xlink:title="LoopManager::SetupLoadLoop">
<polygon fill="#ffffff" stroke="#000000" points="175,-.5 175,-19.5 337,-19.5 337,-.5 175,-.5"/>
<text text-anchor="middle" x="256" y="-7.5" font-family="Helvetica,sans-Serif" font-size="10.00" fill="#000000">LoopManager::SetupLoadLoop</text>
</a>
</g>
</g>
<!-- Node115&#45;&gt;Node116 -->
<g id="edge1" class="edge">
<title>Node115&#45;&gt;Node116</title>
<path fill="none" stroke="#191970" d="M149.3709,-10C157.7759,-10 166.329,-10 174.7494,-10"/>
<polygon fill="#191970" stroke="#191970" points="149.211,-6.5001 139.2109,-10 149.2109,-13.5001 149.211,-6.5001"/>
</g>
<!-- Node117 -->
<g id="node3" class="node">
<title>Node117</title>
<g id="a_node3"><a xlink:href="classLoopManager.html#a564ecf9fdbe0fa8709ebc046afc148d5" target="_top" xlink:title="LoopManager::GetReadBlock">
<polygon fill="#ffffff" stroke="#000000" points="373,-.5 373,-19.5 529,-19.5 529,-.5 373,-.5"/>
<text text-anchor="middle" x="451" y="-7.5" font-family="Helvetica,sans-Serif" font-size="10.00" fill="#000000">LoopManager::GetReadBlock</text>
</a>
</g>
</g>
<!-- Node116&#45;&gt;Node117 -->
<g id="edge2" class="edge">
<title>Node116&#45;&gt;Node117</title>
<path fill="none" stroke="#191970" d="M347.0433,-10C355.6358,-10 364.2954,-10 372.7537,-10"/>
<polygon fill="#191970" stroke="#191970" points="347.0035,-6.5001 337.0035,-10 347.0035,-13.5001 347.0035,-6.5001"/>
</g>
</g>
</svg>
