<?xml version="1.0" encoding="UTF-8" standalone="no"?>
<!DOCTYPE svg PUBLIC "-//W3C//DTD SVG 1.1//EN"
 "http://www.w3.org/Graphics/SVG/1.1/DTD/svg11.dtd">
<!-- Generated by graphviz version 2.40.1 (20161225.0304)
 -->
<!-- Title: LoopTray::Draw Pages: 1 -->
<svg width="857pt" height="484pt"
 viewBox="0.00 0.00 857.00 484.00" xmlns="http://www.w3.org/2000/svg" xmlns:xlink="http://www.w3.org/1999/xlink">
<g id="graph0" class="graph" transform="scale(1 1) rotate(0) translate(4 480)">
<title>LoopTray::Draw</title>
<polygon fill="#ffffff" stroke="transparent" points="-4,4 -4,-480 853,-480 853,4 -4,4"/>
<!-- Node6 -->
<g id="node1" class="node">
<title>Node6</title>
<polygon fill="#bfbfbf" stroke="#000000" points="0,-361.5 0,-380.5 91,-380.5 91,-361.5 0,-361.5"/>
<text text-anchor="middle" x="45.5" y="-368.5" font-family="Helvetica,sans-Serif" font-size="10.00" fill="#000000">LoopTray::Draw</text>
</g>
<!-- Node7 -->
<g id="node2" class="node">
<title>Node7</title>
<g id="a_node2"><a xlink:href="classVideoIO.html#a4d8da5474d57c6d5568977ca22938a40" target="_top" xlink:title="VideoIO::CreateMap">
<polygon fill="#ffffff" stroke="#000000" points="135.5,-408.5 135.5,-427.5 248.5,-427.5 248.5,-408.5 135.5,-408.5"/>
<text text-anchor="middle" x="192" y="-415.5" font-family="Helvetica,sans-Serif" font-size="10.00" fill="#000000">VideoIO::CreateMap</text>
</a>
</g>
</g>
<!-- Node6&#45;&gt;Node7 -->
<g id="edge1" class="edge">
<title>Node6&#45;&gt;Node7</title>
<path fill="none" stroke="#191970" d="M75.1465,-380.5112C97.4122,-387.6544 128.1291,-397.509 152.4819,-405.3218"/>
<polygon fill="#191970" stroke="#191970" points="151.5554,-408.7002 162.1466,-408.4224 153.6938,-402.0349 151.5554,-408.7002"/>
</g>
<!-- Node12 -->
<g id="node7" class="node">
<title>Node12</title>
<g id="a_node7"><a xlink:href="classVideoIO.html#a3dad87abeda5e52b10184a8cae21ebf2" target="_top" xlink:title="VideoIO::getLSCOPEPIC">
<polygon fill="#ffffff" stroke="#000000" points="127,-361.5 127,-380.5 257,-380.5 257,-361.5 127,-361.5"/>
<text text-anchor="middle" x="192" y="-368.5" font-family="Helvetica,sans-Serif" font-size="10.00" fill="#000000">VideoIO::getLSCOPEPIC</text>
</a>
</g>
</g>
<!-- Node6&#45;&gt;Node12 -->
<g id="edge6" class="edge">
<title>Node6&#45;&gt;Node12</title>
<path fill="none" stroke="#191970" d="M91.0505,-371C99.2006,-371 107.8873,-371 116.6144,-371"/>
<polygon fill="#191970" stroke="#191970" points="116.8482,-374.5001 126.8481,-371 116.8481,-367.5001 116.8482,-374.5001"/>
</g>
<!-- Node13 -->
<g id="node8" class="node">
<title>Node13</title>
<g id="a_node8"><a xlink:href="classFweelin.html#a268997890fa59492e27b4787c6bdc41f" target="_top" xlink:title="Fweelin::go">
<polygon fill="#ffffff" stroke="#000000" points="156,-304.5 156,-323.5 228,-323.5 228,-304.5 156,-304.5"/>
<text text-anchor="middle" x="192" y="-311.5" font-family="Helvetica,sans-Serif" font-size="10.00" fill="#000000">Fweelin::go</text>
</a>
</g>
</g>
<!-- Node6&#45;&gt;Node13 -->
<g id="edge7" class="edge">
<title>Node6&#45;&gt;Node13</title>
<path fill="none" stroke="#191970" d="M70.0208,-361.4595C94.106,-352.0884 131.055,-337.7124 157.9767,-327.2377"/>
<polygon fill="#191970" stroke="#191970" points="159.3489,-330.4595 167.3992,-323.5716 156.8106,-323.9359 159.3489,-330.4595"/>
</g>
<!-- Node8 -->
<g id="node3" class="node">
<title>Node8</title>
<g id="a_node3"><a xlink:href="classCircularMap.html#a93bcd986b5facd210b516d4578e47ac9" target="_top" xlink:title="CircularMap::Scan">
<polygon fill="#ffffff" stroke="#000000" points="310,-456.5 310,-475.5 414,-475.5 414,-456.5 310,-456.5"/>
<text text-anchor="middle" x="362" y="-463.5" font-family="Helvetica,sans-Serif" font-size="10.00" fill="#000000">CircularMap::Scan</text>
</a>
</g>
</g>
<!-- Node7&#45;&gt;Node8 -->
<g id="edge2" class="edge">
<title>Node7&#45;&gt;Node8</title>
<path fill="none" stroke="#191970" d="M225.1815,-427.6259C244.8761,-433.3147 270.3451,-440.6286 293,-447 300.8232,-449.2002 309.153,-451.5164 317.2198,-453.7456"/>
<polygon fill="#191970" stroke="#191970" points="316.3068,-457.1244 326.8774,-456.4081 318.1673,-450.3762 316.3068,-457.1244"/>
</g>
<!-- Node9 -->
<g id="node4" class="node">
<title>Node9</title>
<g id="a_node4"><a xlink:href="classCircularMap.html#a67fde3f05bd5315b404a3fc80b4b4874" target="_top" xlink:title="CircularMap::CircularMap">
<polygon fill="#ffffff" stroke="#000000" points="293,-418.5 293,-437.5 431,-437.5 431,-418.5 293,-418.5"/>
<text text-anchor="middle" x="362" y="-425.5" font-family="Helvetica,sans-Serif" font-size="10.00" fill="#000000">CircularMap::CircularMap</text>
</a>
</g>
</g>
<!-- Node7&#45;&gt;Node9 -->
<g id="edge3" class="edge">
<title>Node7&#45;&gt;Node9</title>
<path fill="none" stroke="#191970" d="M248.6075,-421.3299C259.5892,-421.9758 271.2851,-422.6638 282.8366,-423.3433"/>
<polygon fill="#191970" stroke="#191970" points="282.7409,-426.8437 292.9292,-423.937 283.152,-419.8557 282.7409,-426.8437"/>
</g>
<!-- Node11 -->
<g id="node6" class="node">
<title>Node11</title>
<g id="a_node6"><a xlink:href="classCircularMap.html#aa3f607fb4ed428bf290485840668ef65" target="_top" xlink:title="CircularMap::Link">
<polygon fill="#ffffff" stroke="#000000" points="311.5,-380.5 311.5,-399.5 412.5,-399.5 412.5,-380.5 311.5,-380.5"/>
<text text-anchor="middle" x="362" y="-387.5" font-family="Helvetica,sans-Serif" font-size="10.00" fill="#000000">CircularMap::Link</text>
</a>
</g>
</g>
<!-- Node7&#45;&gt;Node11 -->
<g id="edge5" class="edge">
<title>Node7&#45;&gt;Node11</title>
<path fill="none" stroke="#191970" d="M248.6075,-408.6764C265.5633,-405.8837 284.222,-402.8105 301.4226,-399.9775"/>
<polygon fill="#191970" stroke="#191970" points="302.0594,-403.4198 311.3577,-398.3411 300.9218,-396.5129 302.0594,-403.4198"/>
</g>
<!-- Node10 -->
<g id="node5" class="node">
<title>Node10</title>
<g id="a_node5"><a xlink:href="fweelin__videoio_8cc.html#aca98650976595473ab628238766254f7" target="_top" xlink:title="myround">
<polygon fill="#ffffff" stroke="#000000" points="532.5,-418.5 532.5,-437.5 592.5,-437.5 592.5,-418.5 532.5,-418.5"/>
<text text-anchor="middle" x="562.5" y="-425.5" font-family="Helvetica,sans-Serif" font-size="10.00" fill="#000000">myround</text>
</a>
</g>
</g>
<!-- Node9&#45;&gt;Node10 -->
<g id="edge4" class="edge">
<title>Node9&#45;&gt;Node10</title>
<path fill="none" stroke="#191970" d="M431.0007,-428C461.3663,-428 495.982,-428 522.0734,-428"/>
<polygon fill="#191970" stroke="#191970" points="522.3391,-431.5001 532.339,-428 522.339,-424.5001 522.3391,-431.5001"/>
</g>
<!-- Node14 -->
<g id="node9" class="node">
<title>Node14</title>
<g id="a_node9"><a xlink:href="classEvent.html#aa67af0ae99b897e4f0ce42068c4e4c00" target="_top" xlink:title="Event::GetEventByType">
<polygon fill="#ffffff" stroke="#000000" points="497,-380.5 497,-399.5 628,-399.5 628,-380.5 497,-380.5"/>
<text text-anchor="middle" x="562.5" y="-387.5" font-family="Helvetica,sans-Serif" font-size="10.00" fill="#000000">Event::GetEventByType</text>
</a>
</g>
</g>
<!-- Node13&#45;&gt;Node14 -->
<g id="edge8" class="edge">
<title>Node13&#45;&gt;Node14</title>
<path fill="none" stroke="#191970" d="M228.0173,-321.5611C280.538,-332.5649 381.2309,-353.5795 467,-371 478.9072,-373.4185 491.6562,-375.9766 503.8358,-378.4054"/>
<polygon fill="#191970" stroke="#191970" points="503.4107,-381.8894 513.9016,-380.4092 504.7774,-375.0241 503.4107,-381.8894"/>
</g>
<!-- Node15 -->
<g id="node10" class="node">
<title>Node15</title>
<g id="a_node10"><a xlink:href="classPreallocated.html#a9195f3c7f49432b1dd7be89e53c6a5b1" target="_top" xlink:title="Preallocated::RTNew">
<polygon fill="#ffffff" stroke="#000000" points="303.5,-304.5 303.5,-323.5 420.5,-323.5 420.5,-304.5 303.5,-304.5"/>
<text text-anchor="middle" x="362" y="-311.5" font-family="Helvetica,sans-Serif" font-size="10.00" fill="#000000">Preallocated::RTNew</text>
</a>
</g>
</g>
<!-- Node13&#45;&gt;Node15 -->
<g id="edge9" class="edge">
<title>Node13&#45;&gt;Node15</title>
<path fill="none" stroke="#191970" d="M228.0526,-314C246.9852,-314 270.8323,-314 293.1398,-314"/>
<polygon fill="#191970" stroke="#191970" points="293.2576,-317.5001 303.2576,-314 293.2576,-310.5001 293.2576,-317.5001"/>
</g>
<!-- Node16 -->
<g id="node11" class="node">
<title>Node16</title>
<g id="a_node11"><a xlink:href="classSDLIO.html#ad1b1bf6d23251b3014749b18497c1b91" target="_top" xlink:title="SDLIO::run_sdl_thread">
<polygon fill="#ffffff" stroke="#000000" points="300,-266.5 300,-285.5 424,-285.5 424,-266.5 300,-266.5"/>
<text text-anchor="middle" x="362" y="-273.5" font-family="Helvetica,sans-Serif" font-size="10.00" fill="#000000">SDLIO::run_sdl_thread</text>
</a>
</g>
</g>
<!-- Node13&#45;&gt;Node16 -->
<g id="edge10" class="edge">
<title>Node13&#45;&gt;Node16</title>
<path fill="none" stroke="#191970" d="M228.0526,-305.9412C251.7328,-300.648 283.1014,-293.6362 309.5293,-287.7288"/>
<polygon fill="#191970" stroke="#191970" points="310.3941,-291.1219 319.3898,-285.5246 308.8671,-284.2905 310.3941,-291.1219"/>
</g>
<!-- Node34 -->
<g id="node29" class="node">
<title>Node34</title>
<g id="a_node29"><a xlink:href="classRT__RWThreads.html#af25100de29d6f7623a9f14fcdc9bddf6" target="_top" xlink:title="RT_RWThreads::CloseAll">
<polygon fill="#ffffff" stroke="#000000" points="295,-228.5 295,-247.5 429,-247.5 429,-228.5 295,-228.5"/>
<text text-anchor="middle" x="362" y="-235.5" font-family="Helvetica,sans-Serif" font-size="10.00" fill="#000000">RT_RWThreads::CloseAll</text>
</a>
</g>
</g>
<!-- Node13&#45;&gt;Node34 -->
<g id="edge30" class="edge">
<title>Node13&#45;&gt;Node34</title>
<path fill="none" stroke="#191970" d="M206.4807,-304.3141C225.593,-291.8913 260.6136,-270.36 293,-257 298.8041,-254.6057 305.0052,-252.4164 311.2205,-250.4443"/>
<polygon fill="#191970" stroke="#191970" points="312.3723,-253.753 320.9441,-247.5261 310.36,-247.0484 312.3723,-253.753"/>
</g>
<!-- Node16&#45;&gt;Node14 -->
<g id="edge13" class="edge">
<title>Node16&#45;&gt;Node14</title>
<path fill="none" stroke="#191970" d="M415.5874,-285.6504C421.1528,-288.0992 426.433,-291.1644 431,-295 459.621,-319.0369 437.5287,-348.0134 467,-371 472.9567,-375.646 479.7438,-379.249 486.8899,-382.0315"/>
<polygon fill="#191970" stroke="#191970" points="486.2192,-385.4971 496.8128,-385.3381 488.4322,-378.8561 486.2192,-385.4971"/>
</g>
<!-- Node17 -->
<g id="node12" class="node">
<title>Node17</title>
<g id="a_node12"><a xlink:href="classFweelin.html#a21e51d7b639faaecc415624ab6c16a71" target="_top" xlink:title="Fweelin::getEMG">
<polygon fill="#ffffff" stroke="#000000" points="513.5,-342.5 513.5,-361.5 611.5,-361.5 611.5,-342.5 513.5,-342.5"/>
<text text-anchor="middle" x="562.5" y="-349.5" font-family="Helvetica,sans-Serif" font-size="10.00" fill="#000000">Fweelin::getEMG</text>
</a>
</g>
</g>
<!-- Node16&#45;&gt;Node17 -->
<g id="edge11" class="edge">
<title>Node16&#45;&gt;Node17</title>
<path fill="none" stroke="#191970" d="M410.1651,-285.6115C417.4218,-288.0817 424.6079,-291.1635 431,-295 450.9474,-306.9723 446.6328,-321.7566 467,-333 478.0939,-339.1242 490.8791,-343.2909 503.414,-346.1215"/>
<polygon fill="#191970" stroke="#191970" points="502.8833,-349.5846 513.3759,-348.117 504.2582,-342.721 502.8833,-349.5846"/>
</g>
<!-- Node18 -->
<g id="node13" class="node">
<title>Node18</title>
<g id="a_node13"><a xlink:href="classEventManager.html#a900be2c959408f76e6926c96197bd773" target="_top" xlink:title="EventManager::ListenEvent">
<polygon fill="#ffffff" stroke="#000000" points="488,-304.5 488,-323.5 637,-323.5 637,-304.5 488,-304.5"/>
<text text-anchor="middle" x="562.5" y="-311.5" font-family="Helvetica,sans-Serif" font-size="10.00" fill="#000000">EventManager::ListenEvent</text>
</a>
</g>
</g>
<!-- Node16&#45;&gt;Node18 -->
<g id="edge12" class="edge">
<title>Node16&#45;&gt;Node18</title>
<path fill="none" stroke="#191970" d="M412.3358,-285.54C439.6262,-290.7122 473.542,-297.1401 502.2326,-302.5778"/>
<polygon fill="#191970" stroke="#191970" points="501.6666,-306.0327 512.1435,-304.4561 502.9701,-299.1551 501.6666,-306.0327"/>
</g>
<!-- Node19 -->
<g id="node14" class="node">
<title>Node19</title>
<g id="a_node14"><a xlink:href="classEventManager.html#a4a73f2e7ff1724f28427f7c0d5725c8e" target="_top" xlink:title="EventManager::BroadcastEventNow">
<polygon fill="#ffffff" stroke="#000000" points="467,-266.5 467,-285.5 658,-285.5 658,-266.5 467,-266.5"/>
<text text-anchor="middle" x="562.5" y="-273.5" font-family="Helvetica,sans-Serif" font-size="10.00" fill="#000000">EventManager::BroadcastEventNow</text>
</a>
</g>
</g>
<!-- Node16&#45;&gt;Node19 -->
<g id="edge14" class="edge">
<title>Node16&#45;&gt;Node19</title>
<path fill="none" stroke="#191970" d="M424.0664,-276C434.4567,-276 445.4905,-276 456.6171,-276"/>
<polygon fill="#191970" stroke="#191970" points="456.8457,-279.5001 466.8457,-276 456.8456,-272.5001 456.8457,-279.5001"/>
</g>
<!-- Node23 -->
<g id="node18" class="node">
<title>Node23</title>
<g id="a_node18"><a xlink:href="classFweelin.html#a681d7ca8d0789199af135f22c26a5409" target="_top" xlink:title="Fweelin::getCFG">
<polygon fill="#ffffff" stroke="#000000" points="724,-228.5 724,-247.5 819,-247.5 819,-228.5 724,-228.5"/>
<text text-anchor="middle" x="771.5" y="-235.5" font-family="Helvetica,sans-Serif" font-size="10.00" fill="#000000">Fweelin::getCFG</text>
</a>
</g>
</g>
<!-- Node16&#45;&gt;Node23 -->
<g id="edge18" class="edge">
<title>Node16&#45;&gt;Node23</title>
<path fill="none" stroke="#191970" d="M408.0833,-266.4602C426.3549,-262.993 447.598,-259.3526 467,-257 552.4955,-246.6332 652.2221,-241.7705 713.6144,-239.6022"/>
<polygon fill="#191970" stroke="#191970" points="713.9993,-243.0912 723.8742,-239.2524 713.7607,-236.0952 713.9993,-243.0912"/>
</g>
<!-- Node24 -->
<g id="node19" class="node">
<title>Node24</title>
<g id="a_node19"><a xlink:href="classFloConfig.html#aaedfda90b488c27061a73b3bc98faf9a" target="_top" xlink:title="FloConfig::IsDebugInfo">
<polygon fill="#ffffff" stroke="#000000" points="499.5,-190.5 499.5,-209.5 625.5,-209.5 625.5,-190.5 499.5,-190.5"/>
<text text-anchor="middle" x="562.5" y="-197.5" font-family="Helvetica,sans-Serif" font-size="10.00" fill="#000000">FloConfig::IsDebugInfo</text>
</a>
</g>
</g>
<!-- Node16&#45;&gt;Node24 -->
<g id="edge19" class="edge">
<title>Node16&#45;&gt;Node24</title>
<path fill="none" stroke="#191970" d="M408.4769,-266.4648C416.2503,-263.9618 424.0418,-260.8495 431,-257 449.9923,-246.4927 447.8907,-234.293 467,-224 475.8048,-219.2574 485.5724,-215.4291 495.4032,-212.3448"/>
<polygon fill="#191970" stroke="#191970" points="496.5894,-215.6452 505.2216,-209.5022 494.6427,-208.9213 496.5894,-215.6452"/>
</g>
<!-- Node25 -->
<g id="node20" class="node">
<title>Node25</title>
<g id="a_node20"><a xlink:href="classSDLIO.html#ab0043db04cba9d0a26b8cce4b20f85f8" target="_top" xlink:title="SDLIO::GetSDLName">
<polygon fill="#ffffff" stroke="#000000" points="504,-152.5 504,-171.5 621,-171.5 621,-152.5 504,-152.5"/>
<text text-anchor="middle" x="562.5" y="-159.5" font-family="Helvetica,sans-Serif" font-size="10.00" fill="#000000">SDLIO::GetSDLName</text>
</a>
</g>
</g>
<!-- Node16&#45;&gt;Node25 -->
<g id="edge20" class="edge">
<title>Node16&#45;&gt;Node25</title>
<path fill="none" stroke="#191970" d="M415.5874,-266.3496C421.1528,-263.9008 426.433,-260.8356 431,-257 459.621,-232.9631 437.5287,-203.9866 467,-181 474.8978,-174.8399 484.2555,-170.5136 493.9742,-167.502"/>
<polygon fill="#191970" stroke="#191970" points="495.0004,-170.851 503.7725,-164.9095 493.2098,-164.0839 495.0004,-170.851"/>
</g>
<!-- Node26 -->
<g id="node21" class="node">
<title>Node26</title>
<g id="a_node21"><a xlink:href="classSDLIO.html#a491e66a604fb750866d5de45dfa6aae0" target="_top" xlink:title="SDLIO::handle_key">
<polygon fill="#ffffff" stroke="#000000" points="508.5,-114.5 508.5,-133.5 616.5,-133.5 616.5,-114.5 508.5,-114.5"/>
<text text-anchor="middle" x="562.5" y="-121.5" font-family="Helvetica,sans-Serif" font-size="10.00" fill="#000000">SDLIO::handle_key</text>
</a>
</g>
</g>
<!-- Node16&#45;&gt;Node26 -->
<g id="edge21" class="edge">
<title>Node16&#45;&gt;Node26</title>
<path fill="none" stroke="#191970" d="M417.1476,-266.4612C422.2307,-263.9821 426.9736,-260.8795 431,-257 469.2625,-220.1341 427.4298,-178.4586 467,-143 475.8521,-135.0677 487.0459,-130.0594 498.6272,-126.9673"/>
<polygon fill="#191970" stroke="#191970" points="499.3991,-130.3813 508.4037,-124.7986 497.883,-123.5474 499.3991,-130.3813"/>
</g>
<!-- Node33 -->
<g id="node28" class="node">
<title>Node33</title>
<g id="a_node28"><a xlink:href="classEventManager.html#abfc3ddd37f9bd472a41ab43632e44736" target="_top" xlink:title="EventManager::UnlistenEvent">
<polygon fill="#ffffff" stroke="#000000" points="482,-76.5 482,-95.5 643,-95.5 643,-76.5 482,-76.5"/>
<text text-anchor="middle" x="562.5" y="-83.5" font-family="Helvetica,sans-Serif" font-size="10.00" fill="#000000">EventManager::UnlistenEvent</text>
</a>
</g>
</g>
<!-- Node16&#45;&gt;Node33 -->
<g id="edge29" class="edge">
<title>Node16&#45;&gt;Node33</title>
<path fill="none" stroke="#191970" d="M418.1108,-266.4147C422.8812,-263.9353 427.291,-260.8456 431,-257 479.1953,-207.0304 417.0298,-153.1948 467,-105 468.9164,-103.1517 470.9585,-101.4589 473.1035,-99.9094"/>
<polygon fill="#191970" stroke="#191970" points="475.0993,-102.7926 481.8396,-94.6182 471.4729,-96.8052 475.0993,-102.7926"/>
</g>
<!-- Node20 -->
<g id="node15" class="node">
<title>Node20</title>
<g id="a_node15"><a xlink:href="classEvent.html#ac4c4170579544b41dff38ca1b8110e30" target="_top" xlink:title="Event::GetType">
<polygon fill="#ffffff" stroke="#000000" points="726.5,-342.5 726.5,-361.5 816.5,-361.5 816.5,-342.5 726.5,-342.5"/>
<text text-anchor="middle" x="771.5" y="-349.5" font-family="Helvetica,sans-Serif" font-size="10.00" fill="#000000">Event::GetType</text>
</a>
</g>
</g>
<!-- Node19&#45;&gt;Node20 -->
<g id="edge15" class="edge">
<title>Node19&#45;&gt;Node20</title>
<path fill="none" stroke="#191970" d="M635.6165,-285.6359C643.4235,-288.0899 651.0442,-291.1602 658,-295 678.3672,-306.2434 673.8853,-321.311 694,-333 700.9826,-337.0577 708.804,-340.2527 716.7201,-342.7674"/>
<polygon fill="#191970" stroke="#191970" points="715.7969,-346.1436 726.3728,-345.5096 717.7099,-339.41 715.7969,-346.1436"/>
</g>
<!-- Node21 -->
<g id="node16" class="node">
<title>Node21</title>
<g id="a_node16"><a xlink:href="classEventListener.html#a831820a9229e852bd7e2fad686b725b2" target="_top" xlink:title="EventListener::ReceiveEvent">
<polygon fill="#ffffff" stroke="#000000" points="694,-304.5 694,-323.5 849,-323.5 849,-304.5 694,-304.5"/>
<text text-anchor="middle" x="771.5" y="-311.5" font-family="Helvetica,sans-Serif" font-size="10.00" fill="#000000">EventListener::ReceiveEvent</text>
</a>
</g>
</g>
<!-- Node19&#45;&gt;Node21 -->
<g id="edge16" class="edge">
<title>Node19&#45;&gt;Node21</title>
<path fill="none" stroke="#191970" d="M614.9698,-285.54C643.5413,-290.7348 679.0796,-297.1963 709.0691,-302.6489"/>
<polygon fill="#191970" stroke="#191970" points="708.5438,-306.1107 719.0087,-304.4561 709.7961,-299.2236 708.5438,-306.1107"/>
</g>
<!-- Node22 -->
<g id="node17" class="node">
<title>Node22</title>
<g id="a_node17"><a xlink:href="classPreallocated.html#aaf2139a79ca16de70acd9bc4564171b7" target="_top" xlink:title="Preallocated::RTDelete">
<polygon fill="#ffffff" stroke="#000000" points="707.5,-266.5 707.5,-285.5 835.5,-285.5 835.5,-266.5 707.5,-266.5"/>
<text text-anchor="middle" x="771.5" y="-273.5" font-family="Helvetica,sans-Serif" font-size="10.00" fill="#000000">Preallocated::RTDelete</text>
</a>
</g>
</g>
<!-- Node19&#45;&gt;Node22 -->
<g id="edge17" class="edge">
<title>Node19&#45;&gt;Node22</title>
<path fill="none" stroke="#191970" d="M658.1311,-276C671.277,-276 684.6115,-276 697.2943,-276"/>
<polygon fill="#191970" stroke="#191970" points="697.3099,-279.5001 707.3099,-276 697.3098,-272.5001 697.3099,-279.5001"/>
</g>
<!-- Node26&#45;&gt;Node23 -->
<g id="edge23" class="edge">
<title>Node26&#45;&gt;Node23</title>
<path fill="none" stroke="#191970" d="M616.749,-125.9876C631.3195,-128.7467 646.2699,-133.8509 658,-143 687.4713,-165.9866 665.0419,-195.3702 694,-219 699.8295,-223.7569 706.6739,-227.3506 713.84,-230.0605"/>
<polygon fill="#191970" stroke="#191970" points="713.1553,-233.5163 723.7464,-233.2343 715.2911,-226.8501 713.1553,-233.5163"/>
</g>
<!-- Node27 -->
<g id="node22" class="node">
<title>Node27</title>
<g id="a_node22"><a xlink:href="classFweelin.html#a4422f3a93561eff272cd5f7ecb0782ee" target="_top" xlink:title="Fweelin::getRP">
<polygon fill="#ffffff" stroke="#000000" points="727,-190.5 727,-209.5 816,-209.5 816,-190.5 727,-190.5"/>
<text text-anchor="middle" x="771.5" y="-197.5" font-family="Helvetica,sans-Serif" font-size="10.00" fill="#000000">Fweelin::getRP</text>
</a>
</g>
</g>
<!-- Node26&#45;&gt;Node27 -->
<g id="edge22" class="edge">
<title>Node26&#45;&gt;Node27</title>
<path fill="none" stroke="#191970" d="M616.568,-128.8117C630.6661,-131.6281 645.4204,-136.0556 658,-143 678.3672,-154.2434 673.8853,-169.311 694,-181 701.0678,-185.1072 708.9949,-188.3305 717.0097,-190.8591"/>
<polygon fill="#191970" stroke="#191970" points="716.2031,-194.268 726.7776,-193.6116 718.1018,-187.5304 716.2031,-194.268"/>
</g>
<!-- Node28 -->
<g id="node23" class="node">
<title>Node28</title>
<g id="a_node23"><a xlink:href="classFweelin.html#a7b1253ea49ee57244a0d8cca152d72e5" target="_top" xlink:title="Fweelin::getLOOPMGR">
<polygon fill="#ffffff" stroke="#000000" points="709,-152.5 709,-171.5 834,-171.5 834,-152.5 709,-152.5"/>
<text text-anchor="middle" x="771.5" y="-159.5" font-family="Helvetica,sans-Serif" font-size="10.00" fill="#000000">Fweelin::getLOOPMGR</text>
</a>
</g>
</g>
<!-- Node26&#45;&gt;Node28 -->
<g id="edge24" class="edge">
<title>Node26&#45;&gt;Node28</title>
<path fill="none" stroke="#191970" d="M614.9698,-133.54C643.5413,-138.7348 679.0796,-145.1963 709.0691,-150.6489"/>
<polygon fill="#191970" stroke="#191970" points="708.5438,-154.1107 719.0087,-152.4561 709.7961,-147.2236 708.5438,-154.1107"/>
</g>
<!-- Node29 -->
<g id="node24" class="node">
<title>Node29</title>
<g id="a_node24"><a xlink:href="classLoopManager.html#a855f253885183cbe40f1b9e1b176895d" target="_top" xlink:title="LoopManager::SetSubdivide">
<polygon fill="#ffffff" stroke="#000000" points="695.5,-114.5 695.5,-133.5 847.5,-133.5 847.5,-114.5 695.5,-114.5"/>
<text text-anchor="middle" x="771.5" y="-121.5" font-family="Helvetica,sans-Serif" font-size="10.00" fill="#000000">LoopManager::SetSubdivide</text>
</a>
</g>
</g>
<!-- Node26&#45;&gt;Node29 -->
<g id="edge25" class="edge">
<title>Node26&#45;&gt;Node29</title>
<path fill="none" stroke="#191970" d="M616.5945,-124C637.4554,-124 661.8402,-124 685.0075,-124"/>
<polygon fill="#191970" stroke="#191970" points="685.1972,-127.5001 695.1972,-124 685.1972,-120.5001 685.1972,-127.5001"/>
</g>
<!-- Node30 -->
<g id="node25" class="node">
<title>Node30</title>
<g id="a_node25"><a xlink:href="classLoopManager.html#a28c81cf1fb5fdf13a633e33d06975a0d" target="_top" xlink:title="LoopManager::GetCurPulse">
<polygon fill="#ffffff" stroke="#000000" points="697.5,-76.5 697.5,-95.5 845.5,-95.5 845.5,-76.5 697.5,-76.5"/>
<text text-anchor="middle" x="771.5" y="-83.5" font-family="Helvetica,sans-Serif" font-size="10.00" fill="#000000">LoopManager::GetCurPulse</text>
</a>
</g>
</g>
<!-- Node26&#45;&gt;Node30 -->
<g id="edge26" class="edge">
<title>Node26&#45;&gt;Node30</title>
<path fill="none" stroke="#191970" d="M614.9698,-114.46C643.5413,-109.2652 679.0796,-102.8037 709.0691,-97.3511"/>
<polygon fill="#191970" stroke="#191970" points="709.7961,-100.7764 719.0087,-95.5439 708.5438,-93.8893 709.7961,-100.7764"/>
</g>
<!-- Node31 -->
<g id="node26" class="node">
<title>Node31</title>
<g id="a_node26"><a xlink:href="classPulse.html#a360cef541dc2460d10b6d2f5e29cc7b8" target="_top" xlink:title="Pulse::SwitchMetronome">
<polygon fill="#ffffff" stroke="#000000" points="703,-38.5 703,-57.5 840,-57.5 840,-38.5 703,-38.5"/>
<text text-anchor="middle" x="771.5" y="-45.5" font-family="Helvetica,sans-Serif" font-size="10.00" fill="#000000">Pulse::SwitchMetronome</text>
</a>
</g>
</g>
<!-- Node26&#45;&gt;Node31 -->
<g id="edge27" class="edge">
<title>Node26&#45;&gt;Node31</title>
<path fill="none" stroke="#191970" d="M616.568,-119.1883C630.6661,-116.3719 645.4204,-111.9444 658,-105 678.3672,-93.7566 673.8853,-78.689 694,-67 697.8778,-64.7466 702.0143,-62.7592 706.282,-61.0067"/>
<polygon fill="#191970" stroke="#191970" points="707.5943,-64.2535 715.7849,-57.533 705.191,-57.679 707.5943,-64.2535"/>
</g>
<!-- Node32 -->
<g id="node27" class="node">
<title>Node32</title>
<g id="a_node27"><a xlink:href="classPulse.html#a1bbb8df37e9d9c23cd3835995378a80b" target="_top" xlink:title="Pulse::IsMetronomeActive">
<polygon fill="#ffffff" stroke="#000000" points="700,-.5 700,-19.5 843,-19.5 843,-.5 700,-.5"/>
<text text-anchor="middle" x="771.5" y="-7.5" font-family="Helvetica,sans-Serif" font-size="10.00" fill="#000000">Pulse::IsMetronomeActive</text>
</a>
</g>
</g>
<!-- Node26&#45;&gt;Node32 -->
<g id="edge28" class="edge">
<title>Node26&#45;&gt;Node32</title>
<path fill="none" stroke="#191970" d="M616.749,-122.0124C631.3195,-119.2533 646.2699,-114.1491 658,-105 687.4713,-82.0134 665.0419,-52.6298 694,-29 696.0662,-27.314 698.2598,-25.7741 700.5501,-24.368"/>
<polygon fill="#191970" stroke="#191970" points="702.5261,-27.2862 709.7976,-19.5806 699.3079,-21.0698 702.5261,-27.2862"/>
</g>
</g>
</svg>
