<?xml version="1.0" encoding="UTF-8" standalone="no"?>
<!DOCTYPE svg PUBLIC "-//W3C//DTD SVG 1.1//EN"
 "http://www.w3.org/Graphics/SVG/1.1/DTD/svg11.dtd">
<!-- Generated by graphviz version 2.40.1 (20161225.0304)
 -->
<!-- Title: LoopManager::AddLoopToLoadQueue Pages: 1 -->
<svg width="518pt" height="39pt"
 viewBox="0.00 0.00 518.00 39.00" xmlns="http://www.w3.org/2000/svg" xmlns:xlink="http://www.w3.org/1999/xlink">
<g id="graph0" class="graph" transform="scale(1 1) rotate(0) translate(4 35)">
<title>LoopManager::AddLoopToLoadQueue</title>
<polygon fill="#ffffff" stroke="transparent" points="-4,4 -4,-35 514,-35 514,4 -4,4"/>
<!-- Node77 -->
<g id="node1" class="node">
<title>Node77</title>
<polygon fill="#bfbfbf" stroke="#000000" points="0,-.5 0,-30.5 164,-30.5 164,-.5 0,-.5"/>
<text text-anchor="start" x="8" y="-18.5" font-family="Helvetica,sans-Serif" font-size="10.00" fill="#000000">LoopManager::AddLoopToLoad</text>
<text text-anchor="middle" x="82" y="-7.5" font-family="Helvetica,sans-Serif" font-size="10.00" fill="#000000">Queue</text>
</g>
<!-- Node78 -->
<g id="node2" class="node">
<title>Node78</title>
<g id="a_node2"><a xlink:href="classLoopManager.html#a87e2d8190169a6cdc93207c661b5e47d" target="_top" xlink:title="LoopManager::LoadLoop">
<polygon fill="#ffffff" stroke="#000000" points="200,-6 200,-25 334,-25 334,-6 200,-6"/>
<text text-anchor="middle" x="267" y="-13" font-family="Helvetica,sans-Serif" font-size="10.00" fill="#000000">LoopManager::LoadLoop</text>
</a>
</g>
</g>
<!-- Node77&#45;&gt;Node78 -->
<g id="edge1" class="edge">
<title>Node77&#45;&gt;Node78</title>
<path fill="none" stroke="#191970" d="M174.2727,-15.5C182.8513,-15.5 191.4325,-15.5 199.7212,-15.5"/>
<polygon fill="#191970" stroke="#191970" points="174.2211,-12.0001 164.2211,-15.5 174.221,-19.0001 174.2211,-12.0001"/>
</g>
<!-- Node79 -->
<g id="node3" class="node">
<title>Node79</title>
<g id="a_node3"><a xlink:href="classLoopManager.html#a05a6a438d14482e2f22aa802cfb432e8" target="_top" xlink:title="LoopManager::LoadScene">
<polygon fill="#ffffff" stroke="#000000" points="370,-6 370,-25 510,-25 510,-6 370,-6"/>
<text text-anchor="middle" x="440" y="-13" font-family="Helvetica,sans-Serif" font-size="10.00" fill="#000000">LoopManager::LoadScene</text>
</a>
</g>
</g>
<!-- Node78&#45;&gt;Node79 -->
<g id="edge2" class="edge">
<title>Node78&#45;&gt;Node79</title>
<path fill="none" stroke="#191970" d="M344.6019,-15.5C353.0451,-15.5 361.6026,-15.5 369.948,-15.5"/>
<polygon fill="#191970" stroke="#191970" points="344.3817,-12.0001 334.3817,-15.5 344.3817,-19.0001 344.3817,-12.0001"/>
</g>
</g>
</svg>
