<?xml version="1.0" encoding="UTF-8" standalone="no"?>
<!DOCTYPE svg PUBLIC "-//W3C//DTD SVG 1.1//EN"
 "http://www.w3.org/Graphics/SVG/1.1/DTD/svg11.dtd">
<!-- Generated by graphviz version 2.40.1 (20161225.0304)
 -->
<!-- Title: RecordProcessor::AbortRecording Pages: 1 -->
<svg width="566pt" height="192pt"
 viewBox="0.00 0.00 566.00 191.50" xmlns="http://www.w3.org/2000/svg" xmlns:xlink="http://www.w3.org/1999/xlink">
<g id="graph0" class="graph" transform="scale(1 1) rotate(0) translate(4 187.5)">
<title>RecordProcessor::AbortRecording</title>
<polygon fill="#ffffff" stroke="transparent" points="-4,4 -4,-187.5 562,-187.5 562,4 -4,4"/>
<!-- Node75 -->
<g id="node1" class="node">
<title>Node75</title>
<polygon fill="#bfbfbf" stroke="#000000" points="0,-76.5 0,-95.5 177,-95.5 177,-76.5 0,-76.5"/>
<text text-anchor="middle" x="88.5" y="-83.5" font-family="Helvetica,sans-Serif" font-size="10.00" fill="#000000">RecordProcessor::AbortRecording</text>
</g>
<!-- Node76 -->
<g id="node2" class="node">
<title>Node76</title>
<g id="a_node2"><a xlink:href="classAudioBlockIterator.html#a48be225cf6283fb66268a832abd89b30" target="_top" xlink:title="AudioBlockIterator\l::Stop">
<polygon fill="#ffffff" stroke="#000000" points="239,-153 239,-183 346,-183 346,-153 239,-153"/>
<text text-anchor="start" x="247" y="-171" font-family="Helvetica,sans-Serif" font-size="10.00" fill="#000000">AudioBlockIterator</text>
<text text-anchor="middle" x="292.5" y="-160" font-family="Helvetica,sans-Serif" font-size="10.00" fill="#000000">::Stop</text>
</a>
</g>
</g>
<!-- Node75&#45;&gt;Node76 -->
<g id="edge1" class="edge">
<title>Node75&#45;&gt;Node76</title>
<path fill="none" stroke="#191970" d="M107.5893,-95.6445C131.7528,-107.6409 174.8348,-128.3282 213,-143 218.9379,-145.2827 225.1813,-147.5188 231.4501,-149.6569"/>
<polygon fill="#191970" stroke="#191970" points="230.6881,-153.0919 241.2816,-152.9287 232.8985,-146.4501 230.6881,-153.0919"/>
</g>
<!-- Node77 -->
<g id="node3" class="node">
<title>Node77</title>
<g id="a_node3"><a xlink:href="classPeaksAvgsManager.html#a7d5c60dc637af4095167410c4ae924f4" target="_top" xlink:title="PeaksAvgsManager::End">
<polygon fill="#ffffff" stroke="#000000" points="225,-114.5 225,-133.5 360,-133.5 360,-114.5 225,-114.5"/>
<text text-anchor="middle" x="292.5" y="-121.5" font-family="Helvetica,sans-Serif" font-size="10.00" fill="#000000">PeaksAvgsManager::End</text>
</a>
</g>
</g>
<!-- Node75&#45;&gt;Node77 -->
<g id="edge2" class="edge">
<title>Node75&#45;&gt;Node77</title>
<path fill="none" stroke="#191970" d="M139.7145,-95.54C167.4812,-100.7122 201.9891,-107.1401 231.1806,-112.5778"/>
<polygon fill="#191970" stroke="#191970" points="230.7926,-116.0656 241.2644,-114.4561 232.0745,-109.184 230.7926,-116.0656"/>
</g>
<!-- Node78 -->
<g id="node4" class="node">
<title>Node78</title>
<g id="a_node4"><a xlink:href="classFweelin.html#a600688955c7470a1b7a2fa95ddcc4118" target="_top" xlink:title="Fweelin::getBMG">
<polygon fill="#ffffff" stroke="#000000" points="243.5,-76.5 243.5,-95.5 341.5,-95.5 341.5,-76.5 243.5,-76.5"/>
<text text-anchor="middle" x="292.5" y="-83.5" font-family="Helvetica,sans-Serif" font-size="10.00" fill="#000000">Fweelin::getBMG</text>
</a>
</g>
</g>
<!-- Node75&#45;&gt;Node78 -->
<g id="edge3" class="edge">
<title>Node75&#45;&gt;Node78</title>
<path fill="none" stroke="#191970" d="M177.0874,-86C196.0533,-86 215.6488,-86 233.1892,-86"/>
<polygon fill="#191970" stroke="#191970" points="233.2591,-89.5001 243.259,-86 233.259,-82.5001 233.2591,-89.5001"/>
</g>
<!-- Node79 -->
<g id="node5" class="node">
<title>Node79</title>
<g id="a_node5"><a xlink:href="classBlockManager.html#a7380825963fc62c90186a0b3c72e8d89" target="_top" xlink:title="BlockManager::PeakAvgOff">
<polygon fill="#ffffff" stroke="#000000" points="218.5,-38.5 218.5,-57.5 366.5,-57.5 366.5,-38.5 218.5,-38.5"/>
<text text-anchor="middle" x="292.5" y="-45.5" font-family="Helvetica,sans-Serif" font-size="10.00" fill="#000000">BlockManager::PeakAvgOff</text>
</a>
</g>
</g>
<!-- Node75&#45;&gt;Node79 -->
<g id="edge4" class="edge">
<title>Node75&#45;&gt;Node79</title>
<path fill="none" stroke="#191970" d="M139.7145,-76.46C167.4812,-71.2878 201.9891,-64.8599 231.1806,-59.4222"/>
<polygon fill="#191970" stroke="#191970" points="232.0745,-62.816 241.2644,-57.5439 230.7926,-55.9344 232.0745,-62.816"/>
</g>
<!-- Node81 -->
<g id="node7" class="node">
<title>Node81</title>
<g id="a_node7"><a xlink:href="classBlockManager.html#add099506b29910e9dabdab9f6a1af92f" target="_top" xlink:title="BlockManager::GrowChainOff">
<polygon fill="#ffffff" stroke="#000000" points="213,-.5 213,-19.5 372,-19.5 372,-.5 213,-.5"/>
<text text-anchor="middle" x="292.5" y="-7.5" font-family="Helvetica,sans-Serif" font-size="10.00" fill="#000000">BlockManager::GrowChainOff</text>
</a>
</g>
</g>
<!-- Node75&#45;&gt;Node81 -->
<g id="edge6" class="edge">
<title>Node75&#45;&gt;Node81</title>
<path fill="none" stroke="#191970" d="M106.6014,-76.3512C130.4323,-63.9686 173.8947,-42.4807 213,-29 220.3578,-26.4635 228.2118,-24.1419 236.0117,-22.0593"/>
<polygon fill="#191970" stroke="#191970" points="236.9998,-25.4194 245.8211,-19.5512 235.2657,-18.6375 236.9998,-25.4194"/>
</g>
<!-- Node80 -->
<g id="node6" class="node">
<title>Node80</title>
<g id="a_node6"><a xlink:href="classBlockManager.html#ae59dae7f7f6572b004dcdacc740204ac" target="_top" xlink:title="BlockManager::DelManager">
<polygon fill="#ffffff" stroke="#000000" points="408,-19.5 408,-38.5 558,-38.5 558,-19.5 408,-19.5"/>
<text text-anchor="middle" x="483" y="-26.5" font-family="Helvetica,sans-Serif" font-size="10.00" fill="#000000">BlockManager::DelManager</text>
</a>
</g>
</g>
<!-- Node79&#45;&gt;Node80 -->
<g id="edge5" class="edge">
<title>Node79&#45;&gt;Node80</title>
<path fill="none" stroke="#191970" d="M366.6978,-40.5997C376.8053,-39.5916 387.2459,-38.5503 397.5326,-37.5243"/>
<polygon fill="#191970" stroke="#191970" points="398.1467,-40.9805 407.75,-36.5053 397.4519,-34.0151 398.1467,-40.9805"/>
</g>
<!-- Node81&#45;&gt;Node80 -->
<g id="edge7" class="edge">
<title>Node81&#45;&gt;Node80</title>
<path fill="none" stroke="#191970" d="M372.1854,-17.9476C380.686,-18.7955 389.3567,-19.6602 397.9165,-20.514"/>
<polygon fill="#191970" stroke="#191970" points="397.5994,-23.9996 407.8974,-21.5094 398.2941,-17.0342 397.5994,-23.9996"/>
</g>
</g>
</svg>
