<?xml version="1.0" encoding="UTF-8" standalone="no"?>
<!DOCTYPE svg PUBLIC "-//W3C//DTD SVG 1.1//EN"
 "http://www.w3.org/Graphics/SVG/1.1/DTD/svg11.dtd">
<!-- Generated by graphviz version 2.40.1 (20161225.0304)
 -->
<!-- Title: Fweelin::getAMPEAKSI Pages: 1 -->
<svg width="864pt" height="104pt"
 viewBox="0.00 0.00 864.00 104.00" xmlns="http://www.w3.org/2000/svg" xmlns:xlink="http://www.w3.org/1999/xlink">
<g id="graph0" class="graph" transform="scale(1 1) rotate(0) translate(4 100)">
<title>Fweelin::getAMPEAKSI</title>
<polygon fill="#ffffff" stroke="transparent" points="-4,4 -4,-100 860,-100 860,4 -4,4"/>
<!-- Node44 -->
<g id="node1" class="node">
<title>Node44</title>
<polygon fill="#bfbfbf" stroke="#000000" points="0,-38.5 0,-57.5 125,-57.5 125,-38.5 0,-38.5"/>
<text text-anchor="middle" x="62.5" y="-45.5" font-family="Helvetica,sans-Serif" font-size="10.00" fill="#000000">Fweelin::getAMPEAKSI</text>
</g>
<!-- Node45 -->
<g id="node2" class="node">
<title>Node45</title>
<g id="a_node2"><a xlink:href="classLoopManager.html#a5630b6fefdfc931ac0ab511c6b77cecf" target="_top" xlink:title="LoopManager::StripePulseOn">
<polygon fill="#ffffff" stroke="#000000" points="161,-38.5 161,-57.5 317,-57.5 317,-38.5 161,-38.5"/>
<text text-anchor="middle" x="239" y="-45.5" font-family="Helvetica,sans-Serif" font-size="10.00" fill="#000000">LoopManager::StripePulseOn</text>
</a>
</g>
</g>
<!-- Node44&#45;&gt;Node45 -->
<g id="edge1" class="edge">
<title>Node44&#45;&gt;Node45</title>
<path fill="none" stroke="#191970" d="M135.3288,-48C143.7079,-48 152.2784,-48 160.7254,-48"/>
<polygon fill="#191970" stroke="#191970" points="135.2243,-44.5001 125.2243,-48 135.2242,-51.5001 135.2243,-44.5001"/>
</g>
<!-- Node46 -->
<g id="node3" class="node">
<title>Node46</title>
<g id="a_node3"><a xlink:href="classLoopManager.html#ab79aef15f1e783de1ab6827378bea274" target="_top" xlink:title="LoopManager::SelectPulse">
<polygon fill="#ffffff" stroke="#000000" points="354,-38.5 354,-57.5 498,-57.5 498,-38.5 354,-38.5"/>
<text text-anchor="middle" x="426" y="-45.5" font-family="Helvetica,sans-Serif" font-size="10.00" fill="#000000">LoopManager::SelectPulse</text>
</a>
</g>
</g>
<!-- Node45&#45;&gt;Node46 -->
<g id="edge2" class="edge">
<title>Node45&#45;&gt;Node46</title>
<path fill="none" stroke="#191970" d="M327.5039,-48C336.3023,-48 345.1598,-48 353.7636,-48"/>
<polygon fill="#191970" stroke="#191970" points="327.2214,-44.5001 317.2213,-48 327.2213,-51.5001 327.2214,-44.5001"/>
</g>
<!-- Node47 -->
<g id="node4" class="node">
<title>Node47</title>
<g id="a_node4"><a xlink:href="classLoopManager.html#a67c6f44d33880b35c875a8e6ea8babac" target="_top" xlink:title="LoopManager::TapPulse">
<polygon fill="#ffffff" stroke="#000000" points="535,-76.5 535,-95.5 666,-95.5 666,-76.5 535,-76.5"/>
<text text-anchor="middle" x="600.5" y="-83.5" font-family="Helvetica,sans-Serif" font-size="10.00" fill="#000000">LoopManager::TapPulse</text>
</a>
</g>
</g>
<!-- Node45&#45;&gt;Node47 -->
<g id="edge7" class="edge">
<title>Node45&#45;&gt;Node47</title>
<path fill="none" stroke="#191970" d="M300.0784,-59.2037C317.1609,-62.058 335.7668,-64.9066 353,-67 414.4972,-74.4704 484.9691,-79.5421 534.946,-82.5534"/>
<polygon fill="#191970" stroke="#191970" points="300.6636,-55.7531 290.2185,-57.5282 299.4908,-62.6541 300.6636,-55.7531"/>
</g>
<!-- Node49 -->
<g id="node6" class="node">
<title>Node49</title>
<g id="a_node6"><a xlink:href="classLoopManager.html#a705436ae811a121ed3285ab34b144bfe" target="_top" xlink:title="LoopManager::CreatePulse">
<polygon fill="#ffffff" stroke="#000000" points="353,-.5 353,-19.5 499,-19.5 499,-.5 353,-.5"/>
<text text-anchor="middle" x="426" y="-7.5" font-family="Helvetica,sans-Serif" font-size="10.00" fill="#000000">LoopManager::CreatePulse</text>
</a>
</g>
</g>
<!-- Node45&#45;&gt;Node49 -->
<g id="edge6" class="edge">
<title>Node45&#45;&gt;Node49</title>
<path fill="none" stroke="#191970" d="M296.131,-36.3905C322.7267,-30.986 353.9731,-24.6365 379.1513,-19.5201"/>
<polygon fill="#191970" stroke="#191970" points="295.2907,-32.9896 286.188,-38.411 296.6847,-39.8494 295.2907,-32.9896"/>
</g>
<!-- Node46&#45;&gt;Node47 -->
<g id="edge3" class="edge">
<title>Node46&#45;&gt;Node47</title>
<path fill="none" stroke="#191970" d="M479.9691,-59.7526C504.6433,-65.1258 533.4948,-71.4086 556.7829,-76.4799"/>
<polygon fill="#191970" stroke="#191970" points="480.5495,-56.297 470.0337,-57.589 479.06,-63.1367 480.5495,-56.297"/>
</g>
<!-- Node48 -->
<g id="node5" class="node">
<title>Node48</title>
<g id="a_node5"><a xlink:href="classLoopManager.html#a4aada2d07b7ce0a67a8119ece4805966" target="_top" xlink:title="LoopManager::ReceiveEvent">
<polygon fill="#ffffff" stroke="#000000" points="702,-57.5 702,-76.5 856,-76.5 856,-57.5 702,-57.5"/>
<text text-anchor="middle" x="779" y="-64.5" font-family="Helvetica,sans-Serif" font-size="10.00" fill="#000000">LoopManager::ReceiveEvent</text>
</a>
</g>
</g>
<!-- Node46&#45;&gt;Node48 -->
<g id="edge5" class="edge">
<title>Node46&#45;&gt;Node48</title>
<path fill="none" stroke="#191970" d="M508.5901,-52.4454C567.0026,-55.5894 644.776,-59.7755 701.9178,-62.8511"/>
<polygon fill="#191970" stroke="#191970" points="508.4603,-48.9334 498.2866,-51.8908 508.084,-55.9233 508.4603,-48.9334"/>
</g>
<!-- Node47&#45;&gt;Node48 -->
<g id="edge4" class="edge">
<title>Node47&#45;&gt;Node48</title>
<path fill="none" stroke="#191970" d="M676.4152,-77.9194C684.8683,-77.0196 693.4846,-76.1025 701.9516,-75.2012"/>
<polygon fill="#191970" stroke="#191970" points="675.7797,-74.4672 666.2064,-79.006 676.5207,-81.4279 675.7797,-74.4672"/>
</g>
</g>
</svg>
