<?xml version="1.0" encoding="UTF-8" standalone="no"?>
<!DOCTYPE svg PUBLIC "-//W3C//DTD SVG 1.1//EN"
 "http://www.w3.org/Graphics/SVG/1.1/DTD/svg11.dtd">
<!-- Generated by graphviz version 2.40.1 (20161225.0304)
 -->
<!-- Title: FloConfig::StartInterfaces Pages: 1 -->
<svg width="566pt" height="180pt"
 viewBox="0.00 0.00 566.00 180.00" xmlns="http://www.w3.org/2000/svg" xmlns:xlink="http://www.w3.org/1999/xlink">
<g id="graph0" class="graph" transform="scale(1 1) rotate(0) translate(4 176)">
<title>FloConfig::StartInterfaces</title>
<polygon fill="#ffffff" stroke="transparent" points="-4,4 -4,-176 562,-176 562,4 -4,4"/>
<!-- Node319 -->
<g id="node1" class="node">
<title>Node319</title>
<polygon fill="#bfbfbf" stroke="#000000" points="0,-95.5 0,-114.5 140,-114.5 140,-95.5 0,-95.5"/>
<text text-anchor="middle" x="70" y="-102.5" font-family="Helvetica,sans-Serif" font-size="10.00" fill="#000000">FloConfig::StartInterfaces</text>
</g>
<!-- Node320 -->
<g id="node2" class="node">
<title>Node320</title>
<g id="a_node2"><a xlink:href="classEvent.html#aa67af0ae99b897e4f0ce42068c4e4c00" target="_top" xlink:title="Event::GetEventByType">
<polygon fill="#ffffff" stroke="#000000" points="206,-152.5 206,-171.5 337,-171.5 337,-152.5 206,-152.5"/>
<text text-anchor="middle" x="271.5" y="-159.5" font-family="Helvetica,sans-Serif" font-size="10.00" fill="#000000">Event::GetEventByType</text>
</a>
</g>
</g>
<!-- Node319&#45;&gt;Node320 -->
<g id="edge1" class="edge">
<title>Node319&#45;&gt;Node320</title>
<path fill="none" stroke="#191970" d="M93.6716,-114.6256C114.9426,-122.9997 147.1752,-135.0131 176,-143 185.7135,-145.6915 196.0829,-148.1599 206.2756,-150.3632"/>
<polygon fill="#191970" stroke="#191970" points="205.8739,-153.8548 216.3787,-152.4765 207.3072,-147.0031 205.8739,-153.8548"/>
</g>
<!-- Node321 -->
<g id="node3" class="node">
<title>Node321</title>
<g id="a_node3"><a xlink:href="classPreallocated.html#a7f5f1cd18a8514708572fe4da06ad790" target="_top" xlink:title="Preallocated::RTNewWithWait">
<polygon fill="#ffffff" stroke="#000000" points="191,-114.5 191,-133.5 352,-133.5 352,-114.5 191,-114.5"/>
<text text-anchor="middle" x="271.5" y="-121.5" font-family="Helvetica,sans-Serif" font-size="10.00" fill="#000000">Preallocated::RTNewWithWait</text>
</a>
</g>
</g>
<!-- Node319&#45;&gt;Node321 -->
<g id="edge2" class="edge">
<title>Node319&#45;&gt;Node321</title>
<path fill="none" stroke="#191970" d="M140.1921,-111.6186C153.2253,-112.8475 167.0121,-114.1475 180.5601,-115.425"/>
<polygon fill="#191970" stroke="#191970" points="180.5729,-118.9417 190.8573,-116.396 181.2301,-111.9726 180.5729,-118.9417"/>
</g>
<!-- Node322 -->
<g id="node4" class="node">
<title>Node322</title>
<g id="a_node4"><a xlink:href="classFweelin.html#a21e51d7b639faaecc415624ab6c16a71" target="_top" xlink:title="Fweelin::getEMG">
<polygon fill="#ffffff" stroke="#000000" points="222.5,-76.5 222.5,-95.5 320.5,-95.5 320.5,-76.5 222.5,-76.5"/>
<text text-anchor="middle" x="271.5" y="-83.5" font-family="Helvetica,sans-Serif" font-size="10.00" fill="#000000">Fweelin::getEMG</text>
</a>
</g>
</g>
<!-- Node319&#45;&gt;Node322 -->
<g id="edge3" class="edge">
<title>Node319&#45;&gt;Node322</title>
<path fill="none" stroke="#191970" d="M140.1921,-98.3814C163.7323,-96.1617 189.7309,-93.7102 212.3402,-91.5783"/>
<polygon fill="#191970" stroke="#191970" points="212.8415,-95.0467 222.4687,-90.6233 212.1843,-88.0776 212.8415,-95.0467"/>
</g>
<!-- Node323 -->
<g id="node5" class="node">
<title>Node323</title>
<g id="a_node5"><a xlink:href="classEventManager.html#a4a73f2e7ff1724f28427f7c0d5725c8e" target="_top" xlink:title="EventManager::BroadcastEventNow">
<polygon fill="#ffffff" stroke="#000000" points="176,-38.5 176,-57.5 367,-57.5 367,-38.5 176,-38.5"/>
<text text-anchor="middle" x="271.5" y="-45.5" font-family="Helvetica,sans-Serif" font-size="10.00" fill="#000000">EventManager::BroadcastEventNow</text>
</a>
</g>
</g>
<!-- Node319&#45;&gt;Node323 -->
<g id="edge4" class="edge">
<title>Node319&#45;&gt;Node323</title>
<path fill="none" stroke="#191970" d="M93.6716,-95.3744C114.9426,-87.0003 147.1752,-74.9869 176,-67 185.7135,-64.3085 196.0829,-61.8401 206.2756,-59.6368"/>
<polygon fill="#191970" stroke="#191970" points="207.3072,-62.9969 216.3787,-57.5235 205.8739,-56.1452 207.3072,-62.9969"/>
</g>
<!-- Node324 -->
<g id="node6" class="node">
<title>Node324</title>
<g id="a_node6"><a xlink:href="classEvent.html#ac4c4170579544b41dff38ca1b8110e30" target="_top" xlink:title="Event::GetType">
<polygon fill="#ffffff" stroke="#000000" points="435.5,-76.5 435.5,-95.5 525.5,-95.5 525.5,-76.5 435.5,-76.5"/>
<text text-anchor="middle" x="480.5" y="-83.5" font-family="Helvetica,sans-Serif" font-size="10.00" fill="#000000">Event::GetType</text>
</a>
</g>
</g>
<!-- Node323&#45;&gt;Node324 -->
<g id="edge5" class="edge">
<title>Node323&#45;&gt;Node324</title>
<path fill="none" stroke="#191970" d="M323.9698,-57.54C354.9568,-63.174 394.1385,-70.2979 425.5488,-76.0089"/>
<polygon fill="#191970" stroke="#191970" points="424.9888,-79.4644 435.4536,-77.8097 426.241,-72.5773 424.9888,-79.4644"/>
</g>
<!-- Node325 -->
<g id="node7" class="node">
<title>Node325</title>
<g id="a_node7"><a xlink:href="classEventListener.html#a831820a9229e852bd7e2fad686b725b2" target="_top" xlink:title="EventListener::ReceiveEvent">
<polygon fill="#ffffff" stroke="#000000" points="403,-38.5 403,-57.5 558,-57.5 558,-38.5 403,-38.5"/>
<text text-anchor="middle" x="480.5" y="-45.5" font-family="Helvetica,sans-Serif" font-size="10.00" fill="#000000">EventListener::ReceiveEvent</text>
</a>
</g>
</g>
<!-- Node323&#45;&gt;Node325 -->
<g id="edge6" class="edge">
<title>Node323&#45;&gt;Node325</title>
<path fill="none" stroke="#191970" d="M367.1311,-48C375.6132,-48 384.1737,-48 392.5871,-48"/>
<polygon fill="#191970" stroke="#191970" points="392.7614,-51.5001 402.7614,-48 392.7614,-44.5001 392.7614,-51.5001"/>
</g>
<!-- Node326 -->
<g id="node8" class="node">
<title>Node326</title>
<g id="a_node8"><a xlink:href="classPreallocated.html#aaf2139a79ca16de70acd9bc4564171b7" target="_top" xlink:title="Preallocated::RTDelete">
<polygon fill="#ffffff" stroke="#000000" points="416.5,-.5 416.5,-19.5 544.5,-19.5 544.5,-.5 416.5,-.5"/>
<text text-anchor="middle" x="480.5" y="-7.5" font-family="Helvetica,sans-Serif" font-size="10.00" fill="#000000">Preallocated::RTDelete</text>
</a>
</g>
</g>
<!-- Node323&#45;&gt;Node326 -->
<g id="edge7" class="edge">
<title>Node323&#45;&gt;Node326</title>
<path fill="none" stroke="#191970" d="M323.9698,-38.46C352.5413,-33.2652 388.0796,-26.8037 418.0691,-21.3511"/>
<polygon fill="#191970" stroke="#191970" points="418.7961,-24.7764 428.0087,-19.5439 417.5438,-17.8893 418.7961,-24.7764"/>
</g>
</g>
</svg>
