<?xml version="1.0" encoding="UTF-8" standalone="no"?>
<!DOCTYPE svg PUBLIC "-//W3C//DTD SVG 1.1//EN"
 "http://www.w3.org/Graphics/SVG/1.1/DTD/svg11.dtd">
<!-- Generated by graphviz version 2.40.1 (20161225.0304)
 -->
<!-- Title: FloConfig::GetMIDISyncOuts Pages: 1 -->
<svg width="455pt" height="28pt"
 viewBox="0.00 0.00 455.00 28.00" xmlns="http://www.w3.org/2000/svg" xmlns:xlink="http://www.w3.org/1999/xlink">
<g id="graph0" class="graph" transform="scale(1 1) rotate(0) translate(4 24)">
<title>FloConfig::GetMIDISyncOuts</title>
<polygon fill="#ffffff" stroke="transparent" points="-4,4 -4,-24 451,-24 451,4 -4,4"/>
<!-- Node205 -->
<g id="node1" class="node">
<title>Node205</title>
<polygon fill="#bfbfbf" stroke="#000000" points="0,-.5 0,-19.5 152,-19.5 152,-.5 0,-.5"/>
<text text-anchor="middle" x="76" y="-7.5" font-family="Helvetica,sans-Serif" font-size="10.00" fill="#000000">FloConfig::GetMIDISyncOuts</text>
</g>
<!-- Node206 -->
<g id="node2" class="node">
<title>Node206</title>
<g id="a_node2"><a xlink:href="classMidiIO.html#aae58e8a30b732a5eee97d76785a5909a" target="_top" xlink:title="MidiIO::EchoEvent">
<polygon fill="#ffffff" stroke="#000000" points="188,-.5 188,-19.5 292,-19.5 292,-.5 188,-.5"/>
<text text-anchor="middle" x="240" y="-7.5" font-family="Helvetica,sans-Serif" font-size="10.00" fill="#000000">MidiIO::EchoEvent</text>
</a>
</g>
</g>
<!-- Node205&#45;&gt;Node206 -->
<g id="edge1" class="edge">
<title>Node205&#45;&gt;Node206</title>
<path fill="none" stroke="#191970" d="M162.418,-10C171.0834,-10 179.6828,-10 187.8277,-10"/>
<polygon fill="#191970" stroke="#191970" points="162.2386,-6.5001 152.2386,-10 162.2386,-13.5001 162.2386,-6.5001"/>
</g>
<!-- Node207 -->
<g id="node3" class="node">
<title>Node207</title>
<g id="a_node3"><a xlink:href="classMidiIO.html#a90cc0dad2841a9386a0c86efc1d9dce6" target="_top" xlink:title="MidiIO::ReceiveEvent">
<polygon fill="#ffffff" stroke="#000000" points="328,-.5 328,-19.5 447,-19.5 447,-.5 328,-.5"/>
<text text-anchor="middle" x="387.5" y="-7.5" font-family="Helvetica,sans-Serif" font-size="10.00" fill="#000000">MidiIO::ReceiveEvent</text>
</a>
</g>
</g>
<!-- Node206&#45;&gt;Node207 -->
<g id="edge2" class="edge">
<title>Node206&#45;&gt;Node207</title>
<path fill="none" stroke="#191970" d="M302.2392,-10C310.7419,-10 319.4539,-10 327.908,-10"/>
<polygon fill="#191970" stroke="#191970" points="302.003,-6.5001 292.003,-10 302.0029,-13.5001 302.003,-6.5001"/>
</g>
</g>
</svg>
