<?xml version="1.0" encoding="UTF-8" standalone="no"?>
<!DOCTYPE svg PUBLIC "-//W3C//DTD SVG 1.1//EN"
 "http://www.w3.org/Graphics/SVG/1.1/DTD/svg11.dtd">
<!-- Generated by graphviz version 2.40.1 (20161225.0304)
 -->
<!-- Title: LibraryFileInfo Pages: 1 -->
<svg width="178pt" height="171pt"
 viewBox="0.00 0.00 177.50 171.00" xmlns="http://www.w3.org/2000/svg" xmlns:xlink="http://www.w3.org/1999/xlink">
<g id="graph0" class="graph" transform="scale(1 1) rotate(0) translate(4 167)">
<title>LibraryFileInfo</title>
<polygon fill="#ffffff" stroke="transparent" points="-4,4 -4,-167 173.5,-167 173.5,4 -4,4"/>
<!-- Node1 -->
<g id="node1" class="node">
<title>Node1</title>
<polygon fill="#bfbfbf" stroke="#000000" points="30.5,-.5 30.5,-57.5 134.5,-57.5 134.5,-.5 30.5,-.5"/>
<text text-anchor="middle" x="82.5" y="-45.5" font-family="Helvetica,sans-Serif" font-size="10.00" fill="#000000">LibraryFileInfo</text>
<polyline fill="none" stroke="#000000" points="30.5,-38.5 134.5,-38.5 "/>
<text text-anchor="middle" x="82.5" y="-26.5" font-family="Helvetica,sans-Serif" font-size="10.00" fill="#000000"> </text>
<polyline fill="none" stroke="#000000" points="30.5,-19.5 134.5,-19.5 "/>
<text text-anchor="start" x="38.5" y="-7.5" font-family="Helvetica,sans-Serif" font-size="10.00" fill="#000000">+ LibraryFileInfo()</text>
</g>
<!-- Node2 -->
<g id="node2" class="node">
<title>Node2</title>
<polygon fill="#ffffff" stroke="#bfbfbf" points="0,-105.5 0,-162.5 45,-162.5 45,-105.5 0,-105.5"/>
<text text-anchor="middle" x="22.5" y="-150.5" font-family="Helvetica,sans-Serif" font-size="10.00" fill="#000000">codec</text>
<polyline fill="none" stroke="#bfbfbf" points="0,-143.5 45,-143.5 "/>
<text text-anchor="middle" x="22.5" y="-131.5" font-family="Helvetica,sans-Serif" font-size="10.00" fill="#000000"> </text>
<polyline fill="none" stroke="#bfbfbf" points="0,-124.5 45,-124.5 "/>
<text text-anchor="middle" x="22.5" y="-112.5" font-family="Helvetica,sans-Serif" font-size="10.00" fill="#000000"> </text>
</g>
<!-- Node2&#45;&gt;Node1 -->
<g id="edge1" class="edge">
<title>Node2&#45;&gt;Node1</title>
<path fill="none" stroke="#404040" d="M38.8953,-105.3083C45.4432,-93.8493 53.0883,-80.4705 60.1321,-68.1439"/>
<polygon fill="none" stroke="#404040" points="60.1708,-68.076 59.6747,-60.8819 66.1246,-57.657 66.6207,-64.8511 60.1708,-68.076"/>
<text text-anchor="middle" x="62" y="-79" font-family="Helvetica,sans-Serif" font-size="10.00" fill="#000000"> +c</text>
</g>
<!-- Node3 -->
<g id="node3" class="node">
<title>Node3</title>
<polygon fill="#ffffff" stroke="#bfbfbf" points="63.5,-105.5 63.5,-162.5 101.5,-162.5 101.5,-105.5 63.5,-105.5"/>
<text text-anchor="middle" x="82.5" y="-150.5" font-family="Helvetica,sans-Serif" font-size="10.00" fill="#000000">char</text>
<polyline fill="none" stroke="#bfbfbf" points="63.5,-143.5 101.5,-143.5 "/>
<text text-anchor="middle" x="82.5" y="-131.5" font-family="Helvetica,sans-Serif" font-size="10.00" fill="#000000"> </text>
<polyline fill="none" stroke="#bfbfbf" points="63.5,-124.5 101.5,-124.5 "/>
<text text-anchor="middle" x="82.5" y="-112.5" font-family="Helvetica,sans-Serif" font-size="10.00" fill="#000000"> </text>
</g>
<!-- Node3&#45;&gt;Node1 -->
<g id="edge2" class="edge">
<title>Node3&#45;&gt;Node1</title>
<path fill="none" stroke="#404040" d="M82.5,-105.3083C82.5,-94.4281 82.5,-81.817 82.5,-70.0192"/>
<polygon fill="none" stroke="#404040" points="82.5001,-69.657 78.5,-63.6571 82.5,-57.657 86.5,-63.657 82.5001,-69.657"/>
<text text-anchor="middle" x="103" y="-79" font-family="Helvetica,sans-Serif" font-size="10.00" fill="#000000"> +exists</text>
</g>
<!-- Node4 -->
<g id="node4" class="node">
<title>Node4</title>
<polygon fill="#ffffff" stroke="#bfbfbf" points="124.5,-105.5 124.5,-162.5 168.5,-162.5 168.5,-105.5 124.5,-105.5"/>
<text text-anchor="middle" x="146.5" y="-150.5" font-family="Helvetica,sans-Serif" font-size="10.00" fill="#000000">string</text>
<polyline fill="none" stroke="#bfbfbf" points="124.5,-143.5 168.5,-143.5 "/>
<text text-anchor="middle" x="146.5" y="-131.5" font-family="Helvetica,sans-Serif" font-size="10.00" fill="#000000"> </text>
<polyline fill="none" stroke="#bfbfbf" points="124.5,-124.5 168.5,-124.5 "/>
<text text-anchor="middle" x="146.5" y="-112.5" font-family="Helvetica,sans-Serif" font-size="10.00" fill="#000000"> </text>
</g>
<!-- Node4&#45;&gt;Node1 -->
<g id="edge3" class="edge">
<title>Node4&#45;&gt;Node1</title>
<path fill="none" stroke="#404040" d="M137.9656,-105.2992C134.4879,-95.6338 129.9797,-85.0201 124.5,-76 122.689,-73.0189 120.6778,-70.0515 118.5445,-67.1406"/>
<polygon fill="none" stroke="#404040" points="118.3805,-66.9334 111.5204,-64.7109 110.9334,-57.5237 117.7935,-59.7462 118.3805,-66.9334"/>
<text text-anchor="middle" x="149.5" y="-79" font-family="Helvetica,sans-Serif" font-size="10.00" fill="#000000"> +name</text>
</g>
</g>
</svg>
