<?xml version="1.0" encoding="UTF-8" standalone="no"?>
<!DOCTYPE svg PUBLIC "-//W3C//DTD SVG 1.1//EN"
 "http://www.w3.org/Graphics/SVG/1.1/DTD/svg11.dtd">
<!-- Generated by graphviz version 2.40.1 (20161225.0304)
 -->
<!-- Title: Loop::Save Pages: 1 -->
<svg width="466pt" height="110pt"
 viewBox="0.00 0.00 466.00 110.00" xmlns="http://www.w3.org/2000/svg" xmlns:xlink="http://www.w3.org/1999/xlink">
<g id="graph0" class="graph" transform="scale(1 1) rotate(0) translate(4 106)">
<title>Loop::Save</title>
<polygon fill="#ffffff" stroke="transparent" points="-4,4 -4,-106 462,-106 462,4 -4,4"/>
<!-- Node24 -->
<g id="node1" class="node">
<title>Node24</title>
<polygon fill="#bfbfbf" stroke="#000000" points="0,-60.5 0,-79.5 70,-79.5 70,-60.5 0,-60.5"/>
<text text-anchor="middle" x="35" y="-67.5" font-family="Helvetica,sans-Serif" font-size="10.00" fill="#000000">Loop::Save</text>
</g>
<!-- Node25 -->
<g id="node2" class="node">
<title>Node25</title>
<g id="a_node2"><a xlink:href="classFweelin.html#a7b1253ea49ee57244a0d8cca152d72e5" target="_top" xlink:title="Fweelin::getLOOPMGR">
<polygon fill="#ffffff" stroke="#000000" points="125.5,-82.5 125.5,-101.5 250.5,-101.5 250.5,-82.5 125.5,-82.5"/>
<text text-anchor="middle" x="188" y="-89.5" font-family="Helvetica,sans-Serif" font-size="10.00" fill="#000000">Fweelin::getLOOPMGR</text>
</a>
</g>
</g>
<!-- Node24&#45;&gt;Node25 -->
<g id="edge1" class="edge">
<title>Node24&#45;&gt;Node25</title>
<path fill="none" stroke="#191970" d="M70.1013,-75.0472C83.5624,-76.9828 99.4707,-79.2703 115.1723,-81.528"/>
<polygon fill="#191970" stroke="#191970" points="115.0364,-85.0444 125.4328,-83.0034 116.0328,-78.1157 115.0364,-85.0444"/>
</g>
<!-- Node26 -->
<g id="node3" class="node">
<title>Node26</title>
<g id="a_node3"><a xlink:href="classLoopManager.html#afe9ad41d77128fff90501c3a15c76b34" target="_top" xlink:title="LoopManager::AddLoopToSave\lQueue">
<polygon fill="#ffffff" stroke="#000000" points="106,-33 106,-63 270,-63 270,-33 106,-33"/>
<text text-anchor="start" x="114" y="-51" font-family="Helvetica,sans-Serif" font-size="10.00" fill="#000000">LoopManager::AddLoopToSave</text>
<text text-anchor="middle" x="188" y="-40" font-family="Helvetica,sans-Serif" font-size="10.00" fill="#000000">Queue</text>
</a>
</g>
</g>
<!-- Node24&#45;&gt;Node26 -->
<g id="edge2" class="edge">
<title>Node24&#45;&gt;Node26</title>
<path fill="none" stroke="#191970" d="M70.1013,-64.9528C78.0056,-63.8162 86.7538,-62.5583 95.8084,-61.2563"/>
<polygon fill="#191970" stroke="#191970" points="96.3285,-64.7176 105.7285,-59.8299 95.3321,-57.7889 96.3285,-64.7176"/>
</g>
<!-- Node27 -->
<g id="node4" class="node">
<title>Node27</title>
<g id="a_node4"><a xlink:href="classSaveable.html#adc2366ae4f62d203d464879f189e499d" target="_top" xlink:title="Saveable::GetSaveStatus">
<polygon fill="#ffffff" stroke="#000000" points="312,-76.5 312,-95.5 452,-95.5 452,-76.5 312,-76.5"/>
<text text-anchor="middle" x="382" y="-83.5" font-family="Helvetica,sans-Serif" font-size="10.00" fill="#000000">Saveable::GetSaveStatus</text>
</a>
</g>
</g>
<!-- Node26&#45;&gt;Node27 -->
<g id="edge3" class="edge">
<title>Node26&#45;&gt;Node27</title>
<path fill="none" stroke="#191970" d="M264.6739,-63.0186C284.2443,-66.852 304.9704,-70.9117 323.4689,-74.5352"/>
<polygon fill="#191970" stroke="#191970" points="323.009,-78.0115 333.4953,-76.4991 324.3546,-71.142 323.009,-78.0115"/>
</g>
<!-- Node28 -->
<g id="node5" class="node">
<title>Node28</title>
<g id="a_node5"><a xlink:href="classEvent.html#aa67af0ae99b897e4f0ce42068c4e4c00" target="_top" xlink:title="Event::GetEventByType">
<polygon fill="#ffffff" stroke="#000000" points="316.5,-38.5 316.5,-57.5 447.5,-57.5 447.5,-38.5 316.5,-38.5"/>
<text text-anchor="middle" x="382" y="-45.5" font-family="Helvetica,sans-Serif" font-size="10.00" fill="#000000">Event::GetEventByType</text>
</a>
</g>
</g>
<!-- Node26&#45;&gt;Node28 -->
<g id="edge4" class="edge">
<title>Node26&#45;&gt;Node28</title>
<path fill="none" stroke="#191970" d="M270.2735,-48C282.1746,-48 294.3786,-48 306.1461,-48"/>
<polygon fill="#191970" stroke="#191970" points="306.3564,-51.5001 316.3564,-48 306.3563,-44.5001 306.3564,-51.5001"/>
</g>
<!-- Node29 -->
<g id="node6" class="node">
<title>Node29</title>
<g id="a_node6"><a xlink:href="classEventManager.html#a215075d1cc20ee7e2d55e9bb54ca516f" target="_top" xlink:title="EventManager::QueueEvent">
<polygon fill="#ffffff" stroke="#000000" points="306,-.5 306,-19.5 458,-19.5 458,-.5 306,-.5"/>
<text text-anchor="middle" x="382" y="-7.5" font-family="Helvetica,sans-Serif" font-size="10.00" fill="#000000">EventManager::QueueEvent</text>
</a>
</g>
</g>
<!-- Node26&#45;&gt;Node29 -->
<g id="edge5" class="edge">
<title>Node26&#45;&gt;Node29</title>
<path fill="none" stroke="#191970" d="M264.6739,-32.9814C284.2443,-29.148 304.9704,-25.0883 323.4689,-21.4648"/>
<polygon fill="#191970" stroke="#191970" points="324.3546,-24.858 333.4953,-19.5009 323.009,-17.9885 324.3546,-24.858"/>
</g>
</g>
</svg>
