<?xml version="1.0" encoding="UTF-8" standalone="no"?>
<!DOCTYPE svg PUBLIC "-//W3C//DTD SVG 1.1//EN"
 "http://www.w3.org/Graphics/SVG/1.1/DTD/svg11.dtd">
<!-- Generated by graphviz version 2.40.1 (20161225.0304)
 -->
<!-- Title: AudioBuffers::AudioBuffers Pages: 1 -->
<svg width="348pt" height="142pt"
 viewBox="0.00 0.00 348.00 142.00" xmlns="http://www.w3.org/2000/svg" xmlns:xlink="http://www.w3.org/1999/xlink">
<g id="graph0" class="graph" transform="scale(1 1) rotate(0) translate(4 138)">
<title>AudioBuffers::AudioBuffers</title>
<polygon fill="#ffffff" stroke="transparent" points="-4,4 -4,-138 344,-138 344,4 -4,4"/>
<!-- Node0 -->
<g id="node1" class="node">
<title>Node0</title>
<polygon fill="#bfbfbf" stroke="#000000" points="0,-57.5 0,-76.5 147,-76.5 147,-57.5 0,-57.5"/>
<text text-anchor="middle" x="73.5" y="-64.5" font-family="Helvetica,sans-Serif" font-size="10.00" fill="#000000">AudioBuffers::AudioBuffers</text>
</g>
<!-- Node1 -->
<g id="node2" class="node">
<title>Node1</title>
<g id="a_node2"><a xlink:href="classFweelin.html#a681d7ca8d0789199af135f22c26a5409" target="_top" xlink:title="Fweelin::getCFG">
<polygon fill="#ffffff" stroke="#000000" points="214,-114.5 214,-133.5 309,-133.5 309,-114.5 214,-114.5"/>
<text text-anchor="middle" x="261.5" y="-121.5" font-family="Helvetica,sans-Serif" font-size="10.00" fill="#000000">Fweelin::getCFG</text>
</a>
</g>
</g>
<!-- Node0&#45;&gt;Node1 -->
<g id="edge1" class="edge">
<title>Node0&#45;&gt;Node1</title>
<path fill="none" stroke="#191970" d="M98.9389,-76.6115C120.9886,-84.7533 153.847,-96.4351 183,-105 191.4063,-107.4697 200.3856,-109.8657 209.1574,-112.0768"/>
<polygon fill="#191970" stroke="#191970" points="208.3839,-115.4909 218.9312,-114.4889 210.0611,-108.6948 208.3839,-115.4909"/>
</g>
<!-- Node2 -->
<g id="node3" class="node">
<title>Node2</title>
<g id="a_node3"><a xlink:href="classFloConfig.html#a85df9ee6485a198bd3cbc42159c76ed4" target="_top" xlink:title="FloConfig::GetExtAudioIns">
<polygon fill="#ffffff" stroke="#000000" points="190,-76.5 190,-95.5 333,-95.5 333,-76.5 190,-76.5"/>
<text text-anchor="middle" x="261.5" y="-83.5" font-family="Helvetica,sans-Serif" font-size="10.00" fill="#000000">FloConfig::GetExtAudioIns</text>
</a>
</g>
</g>
<!-- Node0&#45;&gt;Node2 -->
<g id="edge2" class="edge">
<title>Node0&#45;&gt;Node2</title>
<path fill="none" stroke="#191970" d="M147.263,-74.4548C157.865,-75.5262 168.8276,-76.6342 179.5759,-77.7204"/>
<polygon fill="#191970" stroke="#191970" points="179.4954,-81.23 189.7967,-78.7534 180.1993,-74.2655 179.4954,-81.23"/>
</g>
<!-- Node3 -->
<g id="node4" class="node">
<title>Node3</title>
<g id="a_node4"><a xlink:href="classAudioBuffers.html#a3178afd68c48f41060d100606623a704" target="_top" xlink:title="AudioBuffers::GetIntAudioIns">
<polygon fill="#ffffff" stroke="#000000" points="183,-38.5 183,-57.5 340,-57.5 340,-38.5 183,-38.5"/>
<text text-anchor="middle" x="261.5" y="-45.5" font-family="Helvetica,sans-Serif" font-size="10.00" fill="#000000">AudioBuffers::GetIntAudioIns</text>
</a>
</g>
</g>
<!-- Node0&#45;&gt;Node3 -->
<g id="edge3" class="edge">
<title>Node0&#45;&gt;Node3</title>
<path fill="none" stroke="#191970" d="M147.263,-59.5452C155.6919,-58.6934 164.3487,-57.8185 172.9445,-56.9498"/>
<polygon fill="#191970" stroke="#191970" points="173.3927,-60.4224 182.99,-55.9345 172.6888,-53.4579 173.3927,-60.4224"/>
</g>
<!-- Node4 -->
<g id="node5" class="node">
<title>Node4</title>
<g id="a_node5"><a xlink:href="classAudioBuffers.html#a180ca942a16535dfe416bdc25d19d659" target="_top" xlink:title="AudioBuffers::GetAudioOuts">
<polygon fill="#ffffff" stroke="#000000" points="185.5,-.5 185.5,-19.5 337.5,-19.5 337.5,-.5 185.5,-.5"/>
<text text-anchor="middle" x="261.5" y="-7.5" font-family="Helvetica,sans-Serif" font-size="10.00" fill="#000000">AudioBuffers::GetAudioOuts</text>
</a>
</g>
</g>
<!-- Node0&#45;&gt;Node4 -->
<g id="edge4" class="edge">
<title>Node0&#45;&gt;Node4</title>
<path fill="none" stroke="#191970" d="M98.9389,-57.3885C120.9886,-49.2467 153.847,-37.5649 183,-29 191.4063,-26.5303 200.3856,-24.1343 209.1574,-21.9232"/>
<polygon fill="#191970" stroke="#191970" points="210.0611,-25.3052 218.9312,-19.5111 208.3839,-18.5091 210.0611,-25.3052"/>
</g>
</g>
</svg>
