<?xml version="1.0" encoding="UTF-8" standalone="no"?>
<!DOCTYPE svg PUBLIC "-//W3C//DTD SVG 1.1//EN"
 "http://www.w3.org/Graphics/SVG/1.1/DTD/svg11.dtd">
<!-- Generated by graphviz version 2.40.1 (20161225.0304)
 -->
<!-- Title: LoopManager::AdjustInputVolume Pages: 1 -->
<svg width="683pt" height="91pt"
 viewBox="0.00 0.00 683.00 91.00" xmlns="http://www.w3.org/2000/svg" xmlns:xlink="http://www.w3.org/1999/xlink">
<g id="graph0" class="graph" transform="scale(1 1) rotate(0) translate(4 87)">
<title>LoopManager::AdjustInputVolume</title>
<polygon fill="#ffffff" stroke="transparent" points="-4,4 -4,-87 679,-87 679,4 -4,4"/>
<!-- Node109 -->
<g id="node1" class="node">
<title>Node109</title>
<polygon fill="#bfbfbf" stroke="#000000" points="0,-36 0,-66 143,-66 143,-36 0,-36"/>
<text text-anchor="start" x="8" y="-54" font-family="Helvetica,sans-Serif" font-size="10.00" fill="#000000">LoopManager::AdjustInput</text>
<text text-anchor="middle" x="71.5" y="-43" font-family="Helvetica,sans-Serif" font-size="10.00" fill="#000000">Volume</text>
</g>
<!-- Node110 -->
<g id="node2" class="node">
<title>Node110</title>
<g id="a_node2"><a xlink:href="classFweelin.html#a4422f3a93561eff272cd5f7ecb0782ee" target="_top" xlink:title="Fweelin::getRP">
<polygon fill="#ffffff" stroke="#000000" points="208,-63.5 208,-82.5 297,-82.5 297,-63.5 208,-63.5"/>
<text text-anchor="middle" x="252.5" y="-70.5" font-family="Helvetica,sans-Serif" font-size="10.00" fill="#000000">Fweelin::getRP</text>
</a>
</g>
</g>
<!-- Node109&#45;&gt;Node110 -->
<g id="edge1" class="edge">
<title>Node109&#45;&gt;Node110</title>
<path fill="none" stroke="#191970" d="M143.036,-59.695C161.1204,-61.8931 180.2627,-64.2198 197.3958,-66.3023"/>
<polygon fill="#191970" stroke="#191970" points="197.4273,-69.8318 207.7766,-67.564 198.272,-62.8829 197.4273,-69.8318"/>
</g>
<!-- Node111 -->
<g id="node3" class="node">
<title>Node111</title>
<g id="a_node3"><a xlink:href="classRootProcessor.html#af1a55b84d3f7d50eb13cc8f0c0a5c315" target="_top" xlink:title="RootProcessor::AdjustInput\lVolume">
<polygon fill="#ffffff" stroke="#000000" points="179,-14 179,-44 326,-44 326,-14 179,-14"/>
<text text-anchor="start" x="187" y="-32" font-family="Helvetica,sans-Serif" font-size="10.00" fill="#000000">RootProcessor::AdjustInput</text>
<text text-anchor="middle" x="252.5" y="-21" font-family="Helvetica,sans-Serif" font-size="10.00" fill="#000000">Volume</text>
</a>
</g>
</g>
<!-- Node109&#45;&gt;Node111 -->
<g id="edge2" class="edge">
<title>Node109&#45;&gt;Node111</title>
<path fill="none" stroke="#191970" d="M143.036,-42.305C151.4877,-41.2777 160.1703,-40.2224 168.771,-39.177"/>
<polygon fill="#191970" stroke="#191970" points="169.3064,-42.6378 178.811,-37.9567 168.4618,-35.6889 169.3064,-42.6378"/>
</g>
<!-- Node112 -->
<g id="node4" class="node">
<title>Node112</title>
<g id="a_node4"><a xlink:href="classFweelin.html#acb51892233f08f4b0b9f2e7d7a625448" target="_top" xlink:title="Fweelin::getAUDIO">
<polygon fill="#ffffff" stroke="#000000" points="372.5,-38.5 372.5,-57.5 480.5,-57.5 480.5,-38.5 372.5,-38.5"/>
<text text-anchor="middle" x="426.5" y="-45.5" font-family="Helvetica,sans-Serif" font-size="10.00" fill="#000000">Fweelin::getAUDIO</text>
</a>
</g>
</g>
<!-- Node111&#45;&gt;Node112 -->
<g id="edge3" class="edge">
<title>Node111&#45;&gt;Node112</title>
<path fill="none" stroke="#191970" d="M326.0395,-37.0302C338.0913,-38.3462 350.4963,-39.7007 362.299,-40.9895"/>
<polygon fill="#191970" stroke="#191970" points="362.1712,-44.4963 372.492,-42.1026 362.9311,-37.5377 362.1712,-44.4963"/>
</g>
<!-- Node113 -->
<g id="node5" class="node">
<title>Node113</title>
<g id="a_node5"><a xlink:href="classAudioIO.html#a53438a70443717836d12c04b3c7850d0" target="_top" xlink:title="AudioIO::GetTimeScale">
<polygon fill="#ffffff" stroke="#000000" points="362,-.5 362,-19.5 491,-19.5 491,-.5 362,-.5"/>
<text text-anchor="middle" x="426.5" y="-7.5" font-family="Helvetica,sans-Serif" font-size="10.00" fill="#000000">AudioIO::GetTimeScale</text>
</a>
</g>
</g>
<!-- Node111&#45;&gt;Node113 -->
<g id="edge4" class="edge">
<title>Node111&#45;&gt;Node113</title>
<path fill="none" stroke="#191970" d="M326.0395,-20.9698C334.4798,-20.0482 343.0934,-19.1076 351.552,-18.184"/>
<polygon fill="#191970" stroke="#191970" points="352.2097,-21.6331 361.7707,-17.0681 351.4498,-14.6744 352.2097,-21.6331"/>
</g>
<!-- Node114 -->
<g id="node6" class="node">
<title>Node114</title>
<g id="a_node6"><a xlink:href="classAudioIO.html#a42b9c04861d014fce6b1f68097ca63fd" target="_top" xlink:title="AudioIO::RelocateTransport">
<polygon fill="#ffffff" stroke="#000000" points="527,-.5 527,-19.5 675,-19.5 675,-.5 527,-.5"/>
<text text-anchor="middle" x="601" y="-7.5" font-family="Helvetica,sans-Serif" font-size="10.00" fill="#000000">AudioIO::RelocateTransport</text>
</a>
</g>
</g>
<!-- Node113&#45;&gt;Node114 -->
<g id="edge5" class="edge">
<title>Node113&#45;&gt;Node114</title>
<path fill="none" stroke="#191970" d="M491.4774,-10C499.6753,-10 508.1543,-10 516.5977,-10"/>
<polygon fill="#191970" stroke="#191970" points="516.858,-13.5001 526.8579,-10 516.8579,-6.5001 516.858,-13.5001"/>
</g>
</g>
</svg>
