<?xml version="1.0" encoding="UTF-8" standalone="no"?>
<!DOCTYPE svg PUBLIC "-//W3C//DTD SVG 1.1//EN"
 "http://www.w3.org/Graphics/SVG/1.1/DTD/svg11.dtd">
<!-- Generated by graphviz version 2.40.1 (20161225.0304)
 -->
<!-- Title: MidiIO::ReceiveChannelPressureEvent Pages: 1 -->
<svg width="599pt" height="218pt"
 viewBox="0.00 0.00 599.00 218.00" xmlns="http://www.w3.org/2000/svg" xmlns:xlink="http://www.w3.org/1999/xlink">
<g id="graph0" class="graph" transform="scale(1 1) rotate(0) translate(4 214)">
<title>MidiIO::ReceiveChannelPressureEvent</title>
<polygon fill="#ffffff" stroke="transparent" points="-4,4 -4,-214 595,-214 595,4 -4,4"/>
<!-- Node200 -->
<g id="node1" class="node">
<title>Node200</title>
<polygon fill="#bfbfbf" stroke="#000000" points="0,-109 0,-139 173,-139 173,-109 0,-109"/>
<text text-anchor="start" x="8" y="-127" font-family="Helvetica,sans-Serif" font-size="10.00" fill="#000000">MidiIO::ReceiveChannelPressure</text>
<text text-anchor="middle" x="86.5" y="-116" font-family="Helvetica,sans-Serif" font-size="10.00" fill="#000000">Event</text>
</g>
<!-- Node201 -->
<g id="node2" class="node">
<title>Node201</title>
<g id="a_node2"><a xlink:href="classEvent.html#aa67af0ae99b897e4f0ce42068c4e4c00" target="_top" xlink:title="Event::GetEventByType">
<polygon fill="#ffffff" stroke="#000000" points="239,-190.5 239,-209.5 370,-209.5 370,-190.5 239,-190.5"/>
<text text-anchor="middle" x="304.5" y="-197.5" font-family="Helvetica,sans-Serif" font-size="10.00" fill="#000000">Event::GetEventByType</text>
</a>
</g>
</g>
<!-- Node200&#45;&gt;Node201 -->
<g id="edge1" class="edge">
<title>Node200&#45;&gt;Node201</title>
<path fill="none" stroke="#191970" d="M113.9459,-139.0931C138.2786,-151.904 175.1103,-169.9215 209,-181 217.3472,-183.7287 226.2393,-186.1324 235.1114,-188.2305"/>
<polygon fill="#191970" stroke="#191970" points="234.5658,-191.6951 245.0897,-190.4707 236.0992,-184.8651 234.5658,-191.6951"/>
</g>
<!-- Node202 -->
<g id="node3" class="node">
<title>Node202</title>
<g id="a_node3"><a xlink:href="classFweelin.html#a681d7ca8d0789199af135f22c26a5409" target="_top" xlink:title="Fweelin::getCFG">
<polygon fill="#ffffff" stroke="#000000" points="257,-152.5 257,-171.5 352,-171.5 352,-152.5 257,-152.5"/>
<text text-anchor="middle" x="304.5" y="-159.5" font-family="Helvetica,sans-Serif" font-size="10.00" fill="#000000">Fweelin::getCFG</text>
</a>
</g>
</g>
<!-- Node200&#45;&gt;Node202 -->
<g id="edge2" class="edge">
<title>Node200&#45;&gt;Node202</title>
<path fill="none" stroke="#191970" d="M172.6594,-139.0186C197.5322,-143.3542 224.0664,-147.9795 246.7614,-151.9355"/>
<polygon fill="#191970" stroke="#191970" points="246.4464,-155.4333 256.8989,-153.7026 247.6485,-148.5372 246.4464,-155.4333"/>
</g>
<!-- Node203 -->
<g id="node4" class="node">
<title>Node203</title>
<g id="a_node4"><a xlink:href="classFloConfig.html#aaedfda90b488c27061a73b3bc98faf9a" target="_top" xlink:title="FloConfig::IsDebugInfo">
<polygon fill="#ffffff" stroke="#000000" points="241.5,-114.5 241.5,-133.5 367.5,-133.5 367.5,-114.5 241.5,-114.5"/>
<text text-anchor="middle" x="304.5" y="-121.5" font-family="Helvetica,sans-Serif" font-size="10.00" fill="#000000">FloConfig::IsDebugInfo</text>
</a>
</g>
</g>
<!-- Node200&#45;&gt;Node203 -->
<g id="edge3" class="edge">
<title>Node200&#45;&gt;Node203</title>
<path fill="none" stroke="#191970" d="M173.2858,-124C192.4209,-124 212.5099,-124 231.0566,-124"/>
<polygon fill="#191970" stroke="#191970" points="231.1858,-127.5001 241.1857,-124 231.1857,-120.5001 231.1858,-127.5001"/>
</g>
<!-- Node204 -->
<g id="node5" class="node">
<title>Node204</title>
<g id="a_node5"><a xlink:href="classFweelin.html#a21e51d7b639faaecc415624ab6c16a71" target="_top" xlink:title="Fweelin::getEMG">
<polygon fill="#ffffff" stroke="#000000" points="255.5,-76.5 255.5,-95.5 353.5,-95.5 353.5,-76.5 255.5,-76.5"/>
<text text-anchor="middle" x="304.5" y="-83.5" font-family="Helvetica,sans-Serif" font-size="10.00" fill="#000000">Fweelin::getEMG</text>
</a>
</g>
</g>
<!-- Node200&#45;&gt;Node204 -->
<g id="edge4" class="edge">
<title>Node200&#45;&gt;Node204</title>
<path fill="none" stroke="#191970" d="M172.6594,-108.9814C197.0162,-104.7357 222.9661,-100.2123 245.3439,-96.3116"/>
<polygon fill="#191970" stroke="#191970" points="246.1053,-99.7317 255.3557,-94.5664 244.9032,-92.8357 246.1053,-99.7317"/>
</g>
<!-- Node205 -->
<g id="node6" class="node">
<title>Node205</title>
<g id="a_node6"><a xlink:href="classEventManager.html#a4a73f2e7ff1724f28427f7c0d5725c8e" target="_top" xlink:title="EventManager::BroadcastEventNow">
<polygon fill="#ffffff" stroke="#000000" points="209,-38.5 209,-57.5 400,-57.5 400,-38.5 209,-38.5"/>
<text text-anchor="middle" x="304.5" y="-45.5" font-family="Helvetica,sans-Serif" font-size="10.00" fill="#000000">EventManager::BroadcastEventNow</text>
</a>
</g>
</g>
<!-- Node200&#45;&gt;Node205 -->
<g id="edge5" class="edge">
<title>Node200&#45;&gt;Node205</title>
<path fill="none" stroke="#191970" d="M113.9459,-108.9069C138.2786,-96.096 175.1103,-78.0785 209,-67 217.3472,-64.2713 226.2393,-61.8676 235.1114,-59.7695"/>
<polygon fill="#191970" stroke="#191970" points="236.0992,-63.1349 245.0897,-57.5293 234.5658,-56.3049 236.0992,-63.1349"/>
</g>
<!-- Node206 -->
<g id="node7" class="node">
<title>Node206</title>
<g id="a_node7"><a xlink:href="classEvent.html#ac4c4170579544b41dff38ca1b8110e30" target="_top" xlink:title="Event::GetType">
<polygon fill="#ffffff" stroke="#000000" points="468.5,-76.5 468.5,-95.5 558.5,-95.5 558.5,-76.5 468.5,-76.5"/>
<text text-anchor="middle" x="513.5" y="-83.5" font-family="Helvetica,sans-Serif" font-size="10.00" fill="#000000">Event::GetType</text>
</a>
</g>
</g>
<!-- Node205&#45;&gt;Node206 -->
<g id="edge6" class="edge">
<title>Node205&#45;&gt;Node206</title>
<path fill="none" stroke="#191970" d="M356.9698,-57.54C387.9568,-63.174 427.1385,-70.2979 458.5488,-76.0089"/>
<polygon fill="#191970" stroke="#191970" points="457.9888,-79.4644 468.4536,-77.8097 459.241,-72.5773 457.9888,-79.4644"/>
</g>
<!-- Node207 -->
<g id="node8" class="node">
<title>Node207</title>
<g id="a_node8"><a xlink:href="classEventListener.html#a831820a9229e852bd7e2fad686b725b2" target="_top" xlink:title="EventListener::ReceiveEvent">
<polygon fill="#ffffff" stroke="#000000" points="436,-38.5 436,-57.5 591,-57.5 591,-38.5 436,-38.5"/>
<text text-anchor="middle" x="513.5" y="-45.5" font-family="Helvetica,sans-Serif" font-size="10.00" fill="#000000">EventListener::ReceiveEvent</text>
</a>
</g>
</g>
<!-- Node205&#45;&gt;Node207 -->
<g id="edge7" class="edge">
<title>Node205&#45;&gt;Node207</title>
<path fill="none" stroke="#191970" d="M400.1311,-48C408.6132,-48 417.1737,-48 425.5871,-48"/>
<polygon fill="#191970" stroke="#191970" points="425.7614,-51.5001 435.7614,-48 425.7614,-44.5001 425.7614,-51.5001"/>
</g>
<!-- Node208 -->
<g id="node9" class="node">
<title>Node208</title>
<g id="a_node9"><a xlink:href="classPreallocated.html#aaf2139a79ca16de70acd9bc4564171b7" target="_top" xlink:title="Preallocated::RTDelete">
<polygon fill="#ffffff" stroke="#000000" points="449.5,-.5 449.5,-19.5 577.5,-19.5 577.5,-.5 449.5,-.5"/>
<text text-anchor="middle" x="513.5" y="-7.5" font-family="Helvetica,sans-Serif" font-size="10.00" fill="#000000">Preallocated::RTDelete</text>
</a>
</g>
</g>
<!-- Node205&#45;&gt;Node208 -->
<g id="edge8" class="edge">
<title>Node205&#45;&gt;Node208</title>
<path fill="none" stroke="#191970" d="M356.9698,-38.46C385.5413,-33.2652 421.0796,-26.8037 451.0691,-21.3511"/>
<polygon fill="#191970" stroke="#191970" points="451.7961,-24.7764 461.0087,-19.5439 450.5438,-17.8893 451.7961,-24.7764"/>
</g>
</g>
</svg>
