<?xml version="1.0" encoding="UTF-8" standalone="no"?>
<!DOCTYPE svg PUBLIC "-//W3C//DTD SVG 1.1//EN"
 "http://www.w3.org/Graphics/SVG/1.1/DTD/svg11.dtd">
<!-- Generated by graphviz version 2.40.1 (20161225.0304)
 -->
<!-- Title: Pulse::SetMIDIClock Pages: 1 -->
<svg width="539pt" height="218pt"
 viewBox="0.00 0.00 539.00 218.00" xmlns="http://www.w3.org/2000/svg" xmlns:xlink="http://www.w3.org/1999/xlink">
<g id="graph0" class="graph" transform="scale(1 1) rotate(0) translate(4 214)">
<title>Pulse::SetMIDIClock</title>
<polygon fill="#ffffff" stroke="transparent" points="-4,4 -4,-214 535,-214 535,4 -4,4"/>
<!-- Node132 -->
<g id="node1" class="node">
<title>Node132</title>
<polygon fill="#bfbfbf" stroke="#000000" points="0,-114.5 0,-133.5 113,-133.5 113,-114.5 0,-114.5"/>
<text text-anchor="middle" x="56.5" y="-121.5" font-family="Helvetica,sans-Serif" font-size="10.00" fill="#000000">Pulse::SetMIDIClock</text>
</g>
<!-- Node133 -->
<g id="node2" class="node">
<title>Node133</title>
<g id="a_node2"><a xlink:href="classFweelin.html#aee46aec225c2ee5c88854dc9943e7d62" target="_top" xlink:title="Fweelin::getMIDI">
<polygon fill="#ffffff" stroke="#000000" points="195.5,-190.5 195.5,-209.5 293.5,-209.5 293.5,-190.5 195.5,-190.5"/>
<text text-anchor="middle" x="244.5" y="-197.5" font-family="Helvetica,sans-Serif" font-size="10.00" fill="#000000">Fweelin::getMIDI</text>
</a>
</g>
</g>
<!-- Node132&#45;&gt;Node133 -->
<g id="edge1" class="edge">
<title>Node132&#45;&gt;Node133</title>
<path fill="none" stroke="#191970" d="M68.901,-133.6639C85.9666,-146.4717 118.0997,-168.861 149,-181 160.4319,-185.491 173.0673,-188.9632 185.3022,-191.6332"/>
<polygon fill="#191970" stroke="#191970" points="184.9538,-195.1338 195.4501,-193.6921 186.3457,-188.2735 184.9538,-195.1338"/>
</g>
<!-- Node134 -->
<g id="node3" class="node">
<title>Node134</title>
<g id="a_node3"><a xlink:href="classMidiIO.html#ab468c4eab816c7f75f28f9113c3072e4" target="_top" xlink:title="MidiIO::GetMIDISyncTransmit">
<polygon fill="#ffffff" stroke="#000000" points="165.5,-152.5 165.5,-171.5 323.5,-171.5 323.5,-152.5 165.5,-152.5"/>
<text text-anchor="middle" x="244.5" y="-159.5" font-family="Helvetica,sans-Serif" font-size="10.00" fill="#000000">MidiIO::GetMIDISyncTransmit</text>
</a>
</g>
</g>
<!-- Node132&#45;&gt;Node134 -->
<g id="edge2" class="edge">
<title>Node132&#45;&gt;Node134</title>
<path fill="none" stroke="#191970" d="M102.5978,-133.5273C117.4112,-136.5732 133.895,-139.9461 149,-143 161.0388,-145.434 173.9366,-148.0168 186.2361,-150.468"/>
<polygon fill="#191970" stroke="#191970" points="185.9041,-153.9704 196.3949,-152.4898 187.2705,-147.1051 185.9041,-153.9704"/>
</g>
<!-- Node135 -->
<g id="node4" class="node">
<title>Node135</title>
<g id="a_node4"><a xlink:href="classEvent.html#aa67af0ae99b897e4f0ce42068c4e4c00" target="_top" xlink:title="Event::GetEventByType">
<polygon fill="#ffffff" stroke="#000000" points="179,-114.5 179,-133.5 310,-133.5 310,-114.5 179,-114.5"/>
<text text-anchor="middle" x="244.5" y="-121.5" font-family="Helvetica,sans-Serif" font-size="10.00" fill="#000000">Event::GetEventByType</text>
</a>
</g>
</g>
<!-- Node132&#45;&gt;Node135 -->
<g id="edge3" class="edge">
<title>Node132&#45;&gt;Node135</title>
<path fill="none" stroke="#191970" d="M113.1611,-124C130.5847,-124 150.0519,-124 168.5501,-124"/>
<polygon fill="#191970" stroke="#191970" points="168.7081,-127.5001 178.708,-124 168.708,-120.5001 168.7081,-127.5001"/>
</g>
<!-- Node136 -->
<g id="node5" class="node">
<title>Node136</title>
<g id="a_node5"><a xlink:href="classFweelin.html#a21e51d7b639faaecc415624ab6c16a71" target="_top" xlink:title="Fweelin::getEMG">
<polygon fill="#ffffff" stroke="#000000" points="195.5,-76.5 195.5,-95.5 293.5,-95.5 293.5,-76.5 195.5,-76.5"/>
<text text-anchor="middle" x="244.5" y="-83.5" font-family="Helvetica,sans-Serif" font-size="10.00" fill="#000000">Fweelin::getEMG</text>
</a>
</g>
</g>
<!-- Node132&#45;&gt;Node136 -->
<g id="edge4" class="edge">
<title>Node132&#45;&gt;Node136</title>
<path fill="none" stroke="#191970" d="M102.5978,-114.4727C117.4112,-111.4268 133.895,-108.0539 149,-105 161.0388,-102.566 173.9366,-99.9832 186.2361,-97.532"/>
<polygon fill="#191970" stroke="#191970" points="187.2705,-100.8949 196.3949,-95.5102 185.9041,-94.0296 187.2705,-100.8949"/>
</g>
<!-- Node137 -->
<g id="node6" class="node">
<title>Node137</title>
<g id="a_node6"><a xlink:href="classEventManager.html#a4a73f2e7ff1724f28427f7c0d5725c8e" target="_top" xlink:title="EventManager::BroadcastEventNow">
<polygon fill="#ffffff" stroke="#000000" points="149,-38.5 149,-57.5 340,-57.5 340,-38.5 149,-38.5"/>
<text text-anchor="middle" x="244.5" y="-45.5" font-family="Helvetica,sans-Serif" font-size="10.00" fill="#000000">EventManager::BroadcastEventNow</text>
</a>
</g>
</g>
<!-- Node132&#45;&gt;Node137 -->
<g id="edge5" class="edge">
<title>Node132&#45;&gt;Node137</title>
<path fill="none" stroke="#191970" d="M68.901,-114.3361C85.9666,-101.5283 118.0997,-79.139 149,-67 155.7608,-64.344 162.9425,-62.0444 170.2134,-60.0563"/>
<polygon fill="#191970" stroke="#191970" points="171.3205,-63.3864 180.1523,-57.5341 169.5986,-56.6014 171.3205,-63.3864"/>
</g>
<!-- Node138 -->
<g id="node7" class="node">
<title>Node138</title>
<g id="a_node7"><a xlink:href="classEvent.html#ac4c4170579544b41dff38ca1b8110e30" target="_top" xlink:title="Event::GetType">
<polygon fill="#ffffff" stroke="#000000" points="408.5,-76.5 408.5,-95.5 498.5,-95.5 498.5,-76.5 408.5,-76.5"/>
<text text-anchor="middle" x="453.5" y="-83.5" font-family="Helvetica,sans-Serif" font-size="10.00" fill="#000000">Event::GetType</text>
</a>
</g>
</g>
<!-- Node137&#45;&gt;Node138 -->
<g id="edge6" class="edge">
<title>Node137&#45;&gt;Node138</title>
<path fill="none" stroke="#191970" d="M296.9698,-57.54C327.9568,-63.174 367.1385,-70.2979 398.5488,-76.0089"/>
<polygon fill="#191970" stroke="#191970" points="397.9888,-79.4644 408.4536,-77.8097 399.241,-72.5773 397.9888,-79.4644"/>
</g>
<!-- Node139 -->
<g id="node8" class="node">
<title>Node139</title>
<g id="a_node8"><a xlink:href="classEventListener.html#a831820a9229e852bd7e2fad686b725b2" target="_top" xlink:title="EventListener::ReceiveEvent">
<polygon fill="#ffffff" stroke="#000000" points="376,-38.5 376,-57.5 531,-57.5 531,-38.5 376,-38.5"/>
<text text-anchor="middle" x="453.5" y="-45.5" font-family="Helvetica,sans-Serif" font-size="10.00" fill="#000000">EventListener::ReceiveEvent</text>
</a>
</g>
</g>
<!-- Node137&#45;&gt;Node139 -->
<g id="edge7" class="edge">
<title>Node137&#45;&gt;Node139</title>
<path fill="none" stroke="#191970" d="M340.1311,-48C348.6132,-48 357.1737,-48 365.5871,-48"/>
<polygon fill="#191970" stroke="#191970" points="365.7614,-51.5001 375.7614,-48 365.7614,-44.5001 365.7614,-51.5001"/>
</g>
<!-- Node140 -->
<g id="node9" class="node">
<title>Node140</title>
<g id="a_node9"><a xlink:href="classPreallocated.html#aaf2139a79ca16de70acd9bc4564171b7" target="_top" xlink:title="Preallocated::RTDelete">
<polygon fill="#ffffff" stroke="#000000" points="389.5,-.5 389.5,-19.5 517.5,-19.5 517.5,-.5 389.5,-.5"/>
<text text-anchor="middle" x="453.5" y="-7.5" font-family="Helvetica,sans-Serif" font-size="10.00" fill="#000000">Preallocated::RTDelete</text>
</a>
</g>
</g>
<!-- Node137&#45;&gt;Node140 -->
<g id="edge8" class="edge">
<title>Node137&#45;&gt;Node140</title>
<path fill="none" stroke="#191970" d="M296.9698,-38.46C325.5413,-33.2652 361.0796,-26.8037 391.0691,-21.3511"/>
<polygon fill="#191970" stroke="#191970" points="391.7961,-24.7764 401.0087,-19.5439 390.5438,-17.8893 391.7961,-24.7764"/>
</g>
</g>
</svg>
