<?xml version="1.0" encoding="UTF-8" standalone="no"?>
<!DOCTYPE svg PUBLIC "-//W3C//DTD SVG 1.1//EN"
 "http://www.w3.org/Graphics/SVG/1.1/DTD/svg11.dtd">
<!-- Generated by graphviz version 2.40.1 (20161225.0304)
 -->
<!-- Title: Saveable::CompareHash Pages: 1 -->
<svg width="710pt" height="28pt"
 viewBox="0.00 0.00 710.00 28.00" xmlns="http://www.w3.org/2000/svg" xmlns:xlink="http://www.w3.org/1999/xlink">
<g id="graph0" class="graph" transform="scale(1 1) rotate(0) translate(4 24)">
<title>Saveable::CompareHash</title>
<polygon fill="#ffffff" stroke="transparent" points="-4,4 -4,-24 706,-24 706,4 -4,4"/>
<!-- Node6 -->
<g id="node1" class="node">
<title>Node6</title>
<polygon fill="#bfbfbf" stroke="#000000" points="0,-.5 0,-19.5 137,-19.5 137,-.5 0,-.5"/>
<text text-anchor="middle" x="68.5" y="-7.5" font-family="Helvetica,sans-Serif" font-size="10.00" fill="#000000">Saveable::CompareHash</text>
</g>
<!-- Node7 -->
<g id="node2" class="node">
<title>Node7</title>
<g id="a_node2"><a xlink:href="classTriggerMap.html#af11490b9355860a768602bca28eedd9c" target="_top" xlink:title="TriggerMap::ScanForHash">
<polygon fill="#ffffff" stroke="#000000" points="173,-.5 173,-19.5 312,-19.5 312,-.5 173,-.5"/>
<text text-anchor="middle" x="242.5" y="-7.5" font-family="Helvetica,sans-Serif" font-size="10.00" fill="#000000">TriggerMap::ScanForHash</text>
</a>
</g>
</g>
<!-- Node6&#45;&gt;Node7 -->
<g id="edge1" class="edge">
<title>Node6&#45;&gt;Node7</title>
<path fill="none" stroke="#191970" d="M147.4952,-10C155.9374,-10 164.481,-10 172.8045,-10"/>
<polygon fill="#191970" stroke="#191970" points="147.2694,-6.5001 137.2694,-10 147.2694,-13.5001 147.2694,-6.5001"/>
</g>
<!-- Node8 -->
<g id="node3" class="node">
<title>Node8</title>
<g id="a_node3"><a xlink:href="classLoopManager.html#ac70cdd5344c524d6aedfe5c67e856409" target="_top" xlink:title="LoopManager::SetupLoadLoop">
<polygon fill="#ffffff" stroke="#000000" points="348,-.5 348,-19.5 510,-19.5 510,-.5 348,-.5"/>
<text text-anchor="middle" x="429" y="-7.5" font-family="Helvetica,sans-Serif" font-size="10.00" fill="#000000">LoopManager::SetupLoadLoop</text>
</a>
</g>
</g>
<!-- Node7&#45;&gt;Node8 -->
<g id="edge2" class="edge">
<title>Node7&#45;&gt;Node8</title>
<path fill="none" stroke="#191970" d="M322.3709,-10C330.7759,-10 339.329,-10 347.7494,-10"/>
<polygon fill="#191970" stroke="#191970" points="322.211,-6.5001 312.2109,-10 322.2109,-13.5001 322.211,-6.5001"/>
</g>
<!-- Node9 -->
<g id="node4" class="node">
<title>Node9</title>
<g id="a_node4"><a xlink:href="classLoopManager.html#a564ecf9fdbe0fa8709ebc046afc148d5" target="_top" xlink:title="LoopManager::GetReadBlock">
<polygon fill="#ffffff" stroke="#000000" points="546,-.5 546,-19.5 702,-19.5 702,-.5 546,-.5"/>
<text text-anchor="middle" x="624" y="-7.5" font-family="Helvetica,sans-Serif" font-size="10.00" fill="#000000">LoopManager::GetReadBlock</text>
</a>
</g>
</g>
<!-- Node8&#45;&gt;Node9 -->
<g id="edge3" class="edge">
<title>Node8&#45;&gt;Node9</title>
<path fill="none" stroke="#191970" d="M520.0433,-10C528.6358,-10 537.2954,-10 545.7537,-10"/>
<polygon fill="#191970" stroke="#191970" points="520.0035,-6.5001 510.0035,-10 520.0035,-13.5001 520.0035,-6.5001"/>
</g>
</g>
</svg>
