<?xml version="1.0" encoding="UTF-8" standalone="no"?>
<!DOCTYPE svg PUBLIC "-//W3C//DTD SVG 1.1//EN"
 "http://www.w3.org/Graphics/SVG/1.1/DTD/svg11.dtd">
<!-- Generated by graphviz version 2.40.1 (20161225.0304)
 -->
<!-- Title: FileStreamer::InitStreamer Pages: 1 -->
<svg width="511pt" height="39pt"
 viewBox="0.00 0.00 511.00 39.00" xmlns="http://www.w3.org/2000/svg" xmlns:xlink="http://www.w3.org/1999/xlink">
<g id="graph0" class="graph" transform="scale(1 1) rotate(0) translate(4 35)">
<title>FileStreamer::InitStreamer</title>
<polygon fill="#ffffff" stroke="transparent" points="-4,4 -4,-35 507,-35 507,4 -4,4"/>
<!-- Node30 -->
<g id="node1" class="node">
<title>Node30</title>
<polygon fill="#bfbfbf" stroke="#000000" points="0,-6 0,-25 145,-25 145,-6 0,-6"/>
<text text-anchor="middle" x="72.5" y="-13" font-family="Helvetica,sans-Serif" font-size="10.00" fill="#000000">FileStreamer::InitStreamer</text>
</g>
<!-- Node31 -->
<g id="node2" class="node">
<title>Node31</title>
<g id="a_node2"><a xlink:href="classFileStreamer.html#a89b7803d85f99c20fb0e3722c12b4323" target="_top" xlink:title="FileStreamer::run_encode\l_thread">
<polygon fill="#ffffff" stroke="#000000" points="181,-.5 181,-30.5 321,-30.5 321,-.5 181,-.5"/>
<text text-anchor="start" x="189" y="-18.5" font-family="Helvetica,sans-Serif" font-size="10.00" fill="#000000">FileStreamer::run_encode</text>
<text text-anchor="middle" x="251" y="-7.5" font-family="Helvetica,sans-Serif" font-size="10.00" fill="#000000">_thread</text>
</a>
</g>
</g>
<!-- Node30&#45;&gt;Node31 -->
<g id="edge1" class="edge">
<title>Node30&#45;&gt;Node31</title>
<path fill="none" stroke="#191970" d="M155.1144,-15.5C163.6913,-15.5 172.3503,-15.5 180.7723,-15.5"/>
<polygon fill="#191970" stroke="#191970" points="155.1028,-12.0001 145.1028,-15.5 155.1027,-19.0001 155.1028,-12.0001"/>
</g>
<!-- Node32 -->
<g id="node3" class="node">
<title>Node32</title>
<g id="a_node3"><a xlink:href="classFileStreamer.html#a1cc038c52d8211d59503a4e7f8a16cd9" target="_top" xlink:title="FileStreamer::FileStreamer">
<polygon fill="#ffffff" stroke="#000000" points="357,-6 357,-25 503,-25 503,-6 357,-6"/>
<text text-anchor="middle" x="430" y="-13" font-family="Helvetica,sans-Serif" font-size="10.00" fill="#000000">FileStreamer::FileStreamer</text>
</a>
</g>
</g>
<!-- Node31&#45;&gt;Node32 -->
<g id="edge2" class="edge">
<title>Node31&#45;&gt;Node32</title>
<path fill="none" stroke="#191970" d="M331.4336,-15.5C339.858,-15.5 348.3906,-15.5 356.7288,-15.5"/>
<polygon fill="#191970" stroke="#191970" points="331.2318,-12.0001 321.2318,-15.5 331.2318,-19.0001 331.2318,-12.0001"/>
</g>
</g>
</svg>
