<?xml version="1.0" encoding="UTF-8" standalone="no"?>
<!DOCTYPE svg PUBLIC "-//W3C//DTD SVG 1.1//EN"
 "http://www.w3.org/Graphics/SVG/1.1/DTD/svg11.dtd">
<!-- Generated by graphviz version 2.40.1 (20161225.0304)
 -->
<!-- Title: RT_RWThreads::UnregisterRTDataStruct Pages: 1 -->
<svg width="381pt" height="78pt"
 viewBox="0.00 0.00 381.00 77.50" xmlns="http://www.w3.org/2000/svg" xmlns:xlink="http://www.w3.org/1999/xlink">
<g id="graph0" class="graph" transform="scale(1 1) rotate(0) translate(4 73.5)">
<title>RT_RWThreads::UnregisterRTDataStruct</title>
<polygon fill="#ffffff" stroke="transparent" points="-4,4 -4,-73.5 377,-73.5 377,4 -4,4"/>
<!-- Node29 -->
<g id="node1" class="node">
<title>Node29</title>
<polygon fill="#bfbfbf" stroke="#000000" points="0,-17 0,-47 146,-47 146,-17 0,-17"/>
<text text-anchor="start" x="8" y="-35" font-family="Helvetica,sans-Serif" font-size="10.00" fill="#000000">RT_RWThreads::Unregister</text>
<text text-anchor="middle" x="73" y="-24" font-family="Helvetica,sans-Serif" font-size="10.00" fill="#000000">RTDataStruct</text>
</g>
<!-- Node30 -->
<g id="node2" class="node">
<title>Node30</title>
<g id="a_node2"><a xlink:href="classSRMWRingBuffer.html#a19b19980a28898788fc611b8d16b6ea3" target="_top" xlink:title="SRMWRingBuffer\&lt; MemoryManager\lUpdate \&gt;::~SRMWRingBuffer">
<polygon fill="#ffffff" stroke="#000000" points="182,-39 182,-69 373,-69 373,-39 182,-39"/>
<text text-anchor="start" x="190" y="-57" font-family="Helvetica,sans-Serif" font-size="10.00" fill="#000000">SRMWRingBuffer&lt; MemoryManager</text>
<text text-anchor="middle" x="277.5" y="-46" font-family="Helvetica,sans-Serif" font-size="10.00" fill="#000000">Update &gt;::~SRMWRingBuffer</text>
</a>
</g>
</g>
<!-- Node29&#45;&gt;Node30 -->
<g id="edge1" class="edge">
<title>Node29&#45;&gt;Node30</title>
<path fill="none" stroke="#191970" d="M156.4091,-40.9731C164.8212,-41.8781 173.4095,-42.802 181.9356,-43.7192"/>
<polygon fill="#191970" stroke="#191970" points="156.5686,-37.4702 146.2516,-39.8804 155.8198,-44.43 156.5686,-37.4702"/>
</g>
<!-- Node31 -->
<g id="node3" class="node">
<title>Node31</title>
<g id="a_node3"><a xlink:href="classRT__RCU.html#a11aa099869f56cfa6d8f86202697610f" target="_top" xlink:title="RT_RCU::~RT_RCU">
<polygon fill="#ffffff" stroke="#000000" points="224.5,-.5 224.5,-19.5 330.5,-19.5 330.5,-.5 224.5,-.5"/>
<text text-anchor="middle" x="277.5" y="-7.5" font-family="Helvetica,sans-Serif" font-size="10.00" fill="#000000">RT_RCU::~RT_RCU</text>
</a>
</g>
</g>
<!-- Node29&#45;&gt;Node31 -->
<g id="edge2" class="edge">
<title>Node29&#45;&gt;Node31</title>
<path fill="none" stroke="#191970" d="M156.3418,-23.0341C179.3006,-20.5642 203.5773,-17.9526 224.3216,-15.7209"/>
<polygon fill="#191970" stroke="#191970" points="155.8198,-19.57 146.2516,-24.1196 156.5686,-26.5298 155.8198,-19.57"/>
</g>
</g>
</svg>
