<?xml version="1.0" encoding="UTF-8" standalone="no"?>
<!DOCTYPE svg PUBLIC "-//W3C//DTD SVG 1.1//EN"
 "http://www.w3.org/Graphics/SVG/1.1/DTD/svg11.dtd">
<!-- Generated by graphviz version 2.40.1 (20161225.0304)
 -->
<!-- Title: FloConfig::GetLoopOutFormat Pages: 1 -->
<svg width="751pt" height="135pt"
 viewBox="0.00 0.00 751.00 134.50" xmlns="http://www.w3.org/2000/svg" xmlns:xlink="http://www.w3.org/1999/xlink">
<g id="graph0" class="graph" transform="scale(1 1) rotate(0) translate(4 130.5)">
<title>FloConfig::GetLoopOutFormat</title>
<polygon fill="#ffffff" stroke="transparent" points="-4,4 -4,-130.5 747,-130.5 747,4 -4,4"/>
<!-- Node175 -->
<g id="node1" class="node">
<title>Node175</title>
<polygon fill="#bfbfbf" stroke="#000000" points="0,-57.5 0,-76.5 160,-76.5 160,-57.5 0,-57.5"/>
<text text-anchor="middle" x="80" y="-64.5" font-family="Helvetica,sans-Serif" font-size="10.00" fill="#000000">FloConfig::GetLoopOutFormat</text>
</g>
<!-- Node176 -->
<g id="node2" class="node">
<title>Node176</title>
<g id="a_node2"><a xlink:href="classBlockWriteManager.html#ad694fe4875f415467800cab9f05a504a" target="_top" xlink:title="BlockWriteManager::\lStart">
<polygon fill="#ffffff" stroke="#000000" points="219,-96 219,-126 336,-126 336,-96 219,-96"/>
<text text-anchor="start" x="227" y="-114" font-family="Helvetica,sans-Serif" font-size="10.00" fill="#000000">BlockWriteManager::</text>
<text text-anchor="middle" x="277.5" y="-103" font-family="Helvetica,sans-Serif" font-size="10.00" fill="#000000">Start</text>
</a>
</g>
</g>
<!-- Node175&#45;&gt;Node176 -->
<g id="edge1" class="edge">
<title>Node175&#45;&gt;Node176</title>
<path fill="none" stroke="#191970" d="M132.7414,-78.75C159.3286,-84.6732 191.6461,-91.873 218.9951,-97.966"/>
<polygon fill="#191970" stroke="#191970" points="133.3764,-75.3057 122.8546,-76.5473 131.8542,-82.1382 133.3764,-75.3057"/>
</g>
<!-- Node178 -->
<g id="node4" class="node">
<title>Node178</title>
<g id="a_node4"><a xlink:href="classLoopManager.html#a306ffe72c9623e33cad280ec3609c359" target="_top" xlink:title="LoopManager::SetupSaveLoop">
<polygon fill="#ffffff" stroke="#000000" points="196,-57.5 196,-76.5 359,-76.5 359,-57.5 196,-57.5"/>
<text text-anchor="middle" x="277.5" y="-64.5" font-family="Helvetica,sans-Serif" font-size="10.00" fill="#000000">LoopManager::SetupSaveLoop</text>
</a>
</g>
</g>
<!-- Node175&#45;&gt;Node178 -->
<g id="edge3" class="edge">
<title>Node175&#45;&gt;Node178</title>
<path fill="none" stroke="#191970" d="M170.3211,-67C178.7925,-67 187.3472,-67 195.7335,-67"/>
<polygon fill="#191970" stroke="#191970" points="170.0461,-63.5001 160.0461,-67 170.0461,-70.5001 170.0461,-63.5001"/>
</g>
<!-- Node180 -->
<g id="node6" class="node">
<title>Node180</title>
<g id="a_node6"><a xlink:href="classLoopManager.html#a861cdd2ace9aeb53b4ecf92728215265" target="_top" xlink:title="LoopManager::Deactivate">
<polygon fill="#ffffff" stroke="#000000" points="207,-19.5 207,-38.5 348,-38.5 348,-19.5 207,-19.5"/>
<text text-anchor="middle" x="277.5" y="-26.5" font-family="Helvetica,sans-Serif" font-size="10.00" fill="#000000">LoopManager::Deactivate</text>
</a>
</g>
</g>
<!-- Node175&#45;&gt;Node180 -->
<g id="edge5" class="edge">
<title>Node175&#45;&gt;Node180</title>
<path fill="none" stroke="#191970" d="M139.7147,-55.5106C167.8946,-50.0886 201.129,-43.6942 227.8969,-38.5439"/>
<polygon fill="#191970" stroke="#191970" points="138.7412,-52.1336 129.5827,-57.46 140.0639,-59.0075 138.7412,-52.1336"/>
</g>
<!-- Node177 -->
<g id="node3" class="node">
<title>Node177</title>
<g id="a_node3"><a xlink:href="classBlockWriteManager.html#a0b50330873c237f482c48aa06a4b1a9a" target="_top" xlink:title="BlockWriteManager::\lManage">
<polygon fill="#ffffff" stroke="#000000" points="415.5,-96 415.5,-126 532.5,-126 532.5,-96 415.5,-96"/>
<text text-anchor="start" x="423.5" y="-114" font-family="Helvetica,sans-Serif" font-size="10.00" fill="#000000">BlockWriteManager::</text>
<text text-anchor="middle" x="474" y="-103" font-family="Helvetica,sans-Serif" font-size="10.00" fill="#000000">Manage</text>
</a>
</g>
</g>
<!-- Node176&#45;&gt;Node177 -->
<g id="edge2" class="edge">
<title>Node176&#45;&gt;Node177</title>
<path fill="none" stroke="#191970" d="M346.3462,-111C368.8387,-111 393.5958,-111 415.2728,-111"/>
<polygon fill="#191970" stroke="#191970" points="346.1903,-107.5001 336.1903,-111 346.1903,-114.5001 346.1903,-107.5001"/>
</g>
<!-- Node179 -->
<g id="node5" class="node">
<title>Node179</title>
<g id="a_node5"><a xlink:href="classLoopManager.html#a00143be12c150c0a89c4f99c1e8d5e70" target="_top" xlink:title="LoopManager::GetWriteBlock">
<polygon fill="#ffffff" stroke="#000000" points="395,-57.5 395,-76.5 553,-76.5 553,-57.5 395,-57.5"/>
<text text-anchor="middle" x="474" y="-64.5" font-family="Helvetica,sans-Serif" font-size="10.00" fill="#000000">LoopManager::GetWriteBlock</text>
</a>
</g>
</g>
<!-- Node178&#45;&gt;Node179 -->
<g id="edge4" class="edge">
<title>Node178&#45;&gt;Node179</title>
<path fill="none" stroke="#191970" d="M369.1537,-67C377.7352,-67 386.3841,-67 394.8369,-67"/>
<polygon fill="#191970" stroke="#191970" points="369.1266,-63.5001 359.1266,-67 369.1266,-70.5001 369.1266,-63.5001"/>
</g>
<!-- Node181 -->
<g id="node7" class="node">
<title>Node181</title>
<g id="a_node7"><a xlink:href="classFweelin.html#a4654015e2bc7cc94f3bfc421899a60d3" target="_top" xlink:title="Fweelin::TriggerSnapshot">
<polygon fill="#ffffff" stroke="#000000" points="405,-19.5 405,-38.5 543,-38.5 543,-19.5 405,-19.5"/>
<text text-anchor="middle" x="474" y="-26.5" font-family="Helvetica,sans-Serif" font-size="10.00" fill="#000000">Fweelin::TriggerSnapshot</text>
</a>
</g>
</g>
<!-- Node180&#45;&gt;Node181 -->
<g id="edge6" class="edge">
<title>Node180&#45;&gt;Node181</title>
<path fill="none" stroke="#191970" d="M358.2482,-29C373.7521,-29 389.8568,-29 404.9503,-29"/>
<polygon fill="#191970" stroke="#191970" points="358.1634,-25.5001 348.1634,-29 358.1634,-32.5001 358.1634,-25.5001"/>
</g>
<!-- Node182 -->
<g id="node8" class="node">
<title>Node182</title>
<g id="a_node8"><a xlink:href="classLoopManager.html#a4aada2d07b7ce0a67a8119ece4805966" target="_top" xlink:title="LoopManager::ReceiveEvent">
<polygon fill="#ffffff" stroke="#000000" points="589,-.5 589,-19.5 743,-19.5 743,-.5 589,-.5"/>
<text text-anchor="middle" x="666" y="-7.5" font-family="Helvetica,sans-Serif" font-size="10.00" fill="#000000">LoopManager::ReceiveEvent</text>
</a>
</g>
</g>
<!-- Node180&#45;&gt;Node182 -->
<g id="edge8" class="edge">
<title>Node180&#45;&gt;Node182</title>
<path fill="none" stroke="#191970" d="M335.2849,-17.7664C354.234,-14.5897 375.4448,-11.5709 395,-10 460.1876,-4.7635 534.4804,-5.2135 588.7725,-6.7187"/>
<polygon fill="#191970" stroke="#191970" points="334.5696,-14.3381 325.3101,-19.4871 335.7595,-21.2362 334.5696,-14.3381"/>
</g>
<!-- Node181&#45;&gt;Node182 -->
<g id="edge7" class="edge">
<title>Node181&#45;&gt;Node182</title>
<path fill="none" stroke="#191970" d="M553.2547,-21.1571C564.9943,-19.9954 577.0788,-18.7995 588.7761,-17.6419"/>
<polygon fill="#191970" stroke="#191970" points="552.6518,-17.6996 543.0451,-22.1674 553.3412,-24.6655 552.6518,-17.6996"/>
</g>
</g>
</svg>
