<?xml version="1.0" encoding="UTF-8" standalone="no"?>
<!DOCTYPE svg PUBLIC "-//W3C//DTD SVG 1.1//EN"
 "http://www.w3.org/Graphics/SVG/1.1/DTD/svg11.dtd">
<!-- Generated by graphviz version 2.40.1 (20161225.0304)
 -->
<!-- Title: RecordProcessor::RecordProcessor Pages: 1 -->
<svg width="1212pt" height="344pt"
 viewBox="0.00 0.00 1212.00 344.00" xmlns="http://www.w3.org/2000/svg" xmlns:xlink="http://www.w3.org/1999/xlink">
<g id="graph0" class="graph" transform="scale(1 1) rotate(0) translate(4 340)">
<title>RecordProcessor::RecordProcessor</title>
<polygon fill="#ffffff" stroke="transparent" points="-4,4 -4,-340 1208,-340 1208,4 -4,4"/>
<!-- Node5 -->
<g id="node1" class="node">
<title>Node5</title>
<polygon fill="#bfbfbf" stroke="#000000" points="0,-202.5 0,-221.5 183,-221.5 183,-202.5 0,-202.5"/>
<text text-anchor="middle" x="91.5" y="-209.5" font-family="Helvetica,sans-Serif" font-size="10.00" fill="#000000">RecordProcessor::RecordProcessor</text>
</g>
<!-- Node6 -->
<g id="node2" class="node">
<title>Node6</title>
<g id="a_node2"><a xlink:href="classSaveable.html#a60561f2bd64b6e0044bae84729d3a01a" target="_top" xlink:title="Saveable::SetSaveStatus">
<polygon fill="#ffffff" stroke="#000000" points="239.5,-316.5 239.5,-335.5 377.5,-335.5 377.5,-316.5 239.5,-316.5"/>
<text text-anchor="middle" x="308.5" y="-323.5" font-family="Helvetica,sans-Serif" font-size="10.00" fill="#000000">Saveable::SetSaveStatus</text>
</a>
</g>
</g>
<!-- Node5&#45;&gt;Node6 -->
<g id="edge1" class="edge">
<title>Node5&#45;&gt;Node6</title>
<path fill="none" stroke="#191970" d="M101.1045,-221.5349C121.1542,-240.861 169.7037,-284.7029 219,-307 224.4703,-309.4743 230.2763,-311.6321 236.1995,-313.5129"/>
<polygon fill="#191970" stroke="#191970" points="235.6611,-317.0009 246.2402,-316.4238 237.6102,-310.2777 235.6611,-317.0009"/>
</g>
<!-- Node7 -->
<g id="node3" class="node">
<title>Node7</title>
<g id="a_node3"><a xlink:href="classFweelin.html#a538440216608aed67e6940c2903c3072" target="_top" xlink:title="Fweelin::getBUFSZ">
<polygon fill="#ffffff" stroke="#000000" points="254.5,-278.5 254.5,-297.5 362.5,-297.5 362.5,-278.5 254.5,-278.5"/>
<text text-anchor="middle" x="308.5" y="-285.5" font-family="Helvetica,sans-Serif" font-size="10.00" fill="#000000">Fweelin::getBUFSZ</text>
</a>
</g>
</g>
<!-- Node5&#45;&gt;Node7 -->
<g id="edge2" class="edge">
<title>Node5&#45;&gt;Node7</title>
<path fill="none" stroke="#191970" d="M109.598,-221.5624C133.8873,-234.0501 178.6533,-255.8622 219,-269 227.2304,-271.68 236.0122,-274.08 244.7377,-276.1977"/>
<polygon fill="#191970" stroke="#191970" points="244.0006,-279.6196 254.5327,-278.4686 245.5816,-272.8004 244.0006,-279.6196"/>
</g>
<!-- Node8 -->
<g id="node4" class="node">
<title>Node8</title>
<g id="a_node4"><a xlink:href="classAudioBlock.html#a5d7b94e41f0f024f767cb5e2d219b3ea" target="_top" xlink:title="AudioBlock::IsStereo">
<polygon fill="#ffffff" stroke="#000000" points="250,-240.5 250,-259.5 367,-259.5 367,-240.5 250,-240.5"/>
<text text-anchor="middle" x="308.5" y="-247.5" font-family="Helvetica,sans-Serif" font-size="10.00" fill="#000000">AudioBlock::IsStereo</text>
</a>
</g>
</g>
<!-- Node5&#45;&gt;Node8 -->
<g id="edge3" class="edge">
<title>Node5&#45;&gt;Node8</title>
<path fill="none" stroke="#191970" d="M145.9782,-221.54C175.7723,-226.7574 212.863,-233.2525 244.0852,-238.72"/>
<polygon fill="#191970" stroke="#191970" points="243.5456,-242.1787 253.9994,-240.4561 244.7531,-235.2836 243.5456,-242.1787"/>
</g>
<!-- Node9 -->
<g id="node5" class="node">
<title>Node9</title>
<g id="a_node5"><a xlink:href="classFweelin.html#a8bbb791d815a8c4f39f9ce672828b50e" target="_top" xlink:title="Fweelin::getPRE_EXTRACHANNEL">
<polygon fill="#ffffff" stroke="#000000" points="219,-202.5 219,-221.5 398,-221.5 398,-202.5 219,-202.5"/>
<text text-anchor="middle" x="308.5" y="-209.5" font-family="Helvetica,sans-Serif" font-size="10.00" fill="#000000">Fweelin::getPRE_EXTRACHANNEL</text>
</a>
</g>
</g>
<!-- Node5&#45;&gt;Node9 -->
<g id="edge4" class="edge">
<title>Node5&#45;&gt;Node9</title>
<path fill="none" stroke="#191970" d="M183.213,-212C191.6011,-212 200.1263,-212 208.5816,-212"/>
<polygon fill="#191970" stroke="#191970" points="208.8466,-215.5001 218.8466,-212 208.8465,-208.5001 208.8466,-215.5001"/>
</g>
<!-- Node10 -->
<g id="node6" class="node">
<title>Node10</title>
<g id="a_node6"><a xlink:href="classAudioBlockIterator.html#aee775d7a85e66fa08144b582658a9cac" target="_top" xlink:title="AudioBlockIterator\l::Jump">
<polygon fill="#ffffff" stroke="#000000" points="255,-153 255,-183 362,-183 362,-153 255,-153"/>
<text text-anchor="start" x="263" y="-171" font-family="Helvetica,sans-Serif" font-size="10.00" fill="#000000">AudioBlockIterator</text>
<text text-anchor="middle" x="308.5" y="-160" font-family="Helvetica,sans-Serif" font-size="10.00" fill="#000000">::Jump</text>
</a>
</g>
</g>
<!-- Node5&#45;&gt;Node10 -->
<g id="edge5" class="edge">
<title>Node5&#45;&gt;Node10</title>
<path fill="none" stroke="#191970" d="M138.5858,-202.4527C169.6716,-196.1495 210.7861,-187.813 244.7849,-180.9192"/>
<polygon fill="#191970" stroke="#191970" points="245.5237,-184.3407 254.6287,-178.9232 244.1326,-177.4803 245.5237,-184.3407"/>
</g>
<!-- Node13 -->
<g id="node9" class="node">
<title>Node13</title>
<g id="a_node9"><a xlink:href="classFweelin.html#a600688955c7470a1b7a2fa95ddcc4118" target="_top" xlink:title="Fweelin::getBMG">
<polygon fill="#ffffff" stroke="#000000" points="259.5,-114.5 259.5,-133.5 357.5,-133.5 357.5,-114.5 259.5,-114.5"/>
<text text-anchor="middle" x="308.5" y="-121.5" font-family="Helvetica,sans-Serif" font-size="10.00" fill="#000000">Fweelin::getBMG</text>
</a>
</g>
</g>
<!-- Node5&#45;&gt;Node13 -->
<g id="edge8" class="edge">
<title>Node5&#45;&gt;Node13</title>
<path fill="none" stroke="#191970" d="M106.1887,-202.4571C129.2966,-187.8465 175.9522,-159.9534 219,-144 228.5174,-140.4729 238.8448,-137.4622 248.9886,-134.9294"/>
<polygon fill="#191970" stroke="#191970" points="250.1079,-138.2614 259.0344,-132.5546 248.4974,-131.4492 250.1079,-138.2614"/>
</g>
<!-- Node14 -->
<g id="node10" class="node">
<title>Node14</title>
<g id="a_node10"><a xlink:href="classBlockManager.html#af050835c736257358a3f572f8422ff1d" target="_top" xlink:title="BlockManager::PeakAvgOn">
<polygon fill="#ffffff" stroke="#000000" points="235,-76.5 235,-95.5 382,-95.5 382,-76.5 235,-76.5"/>
<text text-anchor="middle" x="308.5" y="-83.5" font-family="Helvetica,sans-Serif" font-size="10.00" fill="#000000">BlockManager::PeakAvgOn</text>
</a>
</g>
</g>
<!-- Node5&#45;&gt;Node14 -->
<g id="edge9" class="edge">
<title>Node5&#45;&gt;Node14</title>
<path fill="none" stroke="#191970" d="M99.9605,-202.1969C118.939,-180.8799 167.3118,-130.2041 219,-105 223.9971,-102.5633 229.3008,-100.4378 234.7338,-98.5838"/>
<polygon fill="#191970" stroke="#191970" points="236.093,-101.8272 244.6145,-95.5315 234.0269,-95.139 236.093,-101.8272"/>
</g>
<!-- Node11 -->
<g id="node7" class="node">
<title>Node11</title>
<g id="a_node7"><a xlink:href="classAudioBlock.html#a380880c91c3af2322d232ce2de83b881" target="_top" xlink:title="AudioBlock::GetTotalLen">
<polygon fill="#ffffff" stroke="#000000" points="458.5,-202.5 458.5,-221.5 593.5,-221.5 593.5,-202.5 458.5,-202.5"/>
<text text-anchor="middle" x="526" y="-209.5" font-family="Helvetica,sans-Serif" font-size="10.00" fill="#000000">AudioBlock::GetTotalLen</text>
</a>
</g>
</g>
<!-- Node10&#45;&gt;Node11 -->
<g id="edge6" class="edge">
<title>Node10&#45;&gt;Node11</title>
<path fill="none" stroke="#191970" d="M362.2641,-178.8764C394.641,-185.4262 435.842,-193.7611 468.8142,-200.4314"/>
<polygon fill="#191970" stroke="#191970" points="468.2684,-203.8918 478.7639,-202.4442 469.6564,-197.0308 468.2684,-203.8918"/>
</g>
<!-- Node12 -->
<g id="node8" class="node">
<title>Node12</title>
<g id="a_node8"><a xlink:href="classAudioBlock.html#a4f53140535b4c56db4c5360f3fb9eb7d" target="_top" xlink:title="AudioBlock::SetPtrsFromAbs\lOffset">
<polygon fill="#ffffff" stroke="#000000" points="449,-153 449,-183 603,-183 603,-153 449,-153"/>
<text text-anchor="start" x="457" y="-171" font-family="Helvetica,sans-Serif" font-size="10.00" fill="#000000">AudioBlock::SetPtrsFromAbs</text>
<text text-anchor="middle" x="526" y="-160" font-family="Helvetica,sans-Serif" font-size="10.00" fill="#000000">Offset</text>
</a>
</g>
</g>
<!-- Node10&#45;&gt;Node12 -->
<g id="edge7" class="edge">
<title>Node10&#45;&gt;Node12</title>
<path fill="none" stroke="#191970" d="M362.2641,-168C385.2524,-168 412.6893,-168 438.4707,-168"/>
<polygon fill="#191970" stroke="#191970" points="438.6358,-171.5001 448.6358,-168 438.6358,-164.5001 438.6358,-171.5001"/>
</g>
<!-- Node15 -->
<g id="node11" class="node">
<title>Node15</title>
<g id="a_node11"><a xlink:href="classBlockManager.html#ae59dae7f7f6572b004dcdacc740204ac" target="_top" xlink:title="BlockManager::DelManager">
<polygon fill="#ffffff" stroke="#000000" points="451,-114.5 451,-133.5 601,-133.5 601,-114.5 451,-114.5"/>
<text text-anchor="middle" x="526" y="-121.5" font-family="Helvetica,sans-Serif" font-size="10.00" fill="#000000">BlockManager::DelManager</text>
</a>
</g>
</g>
<!-- Node14&#45;&gt;Node15 -->
<g id="edge10" class="edge">
<title>Node14&#45;&gt;Node15</title>
<path fill="none" stroke="#191970" d="M363.1037,-95.54C392.9665,-100.7574 430.1426,-107.2525 461.4368,-112.72"/>
<polygon fill="#191970" stroke="#191970" points="460.9207,-116.1828 471.3738,-114.4561 462.1255,-109.2872 460.9207,-116.1828"/>
</g>
<!-- Node16 -->
<g id="node12" class="node">
<title>Node16</title>
<g id="a_node12"><a xlink:href="classPreallocatedType.html#a232eab10b1d49ee50f435d175c4ceda5" target="_top" xlink:title="PreallocatedType::RTNewWithWait">
<polygon fill="#ffffff" stroke="#000000" points="434,-76.5 434,-95.5 618,-95.5 618,-76.5 434,-76.5"/>
<text text-anchor="middle" x="526" y="-83.5" font-family="Helvetica,sans-Serif" font-size="10.00" fill="#000000">PreallocatedType::RTNewWithWait</text>
</a>
</g>
</g>
<!-- Node14&#45;&gt;Node16 -->
<g id="edge11" class="edge">
<title>Node14&#45;&gt;Node16</title>
<path fill="none" stroke="#191970" d="M382.1356,-86C395.5234,-86 409.7066,-86 423.7449,-86"/>
<polygon fill="#191970" stroke="#191970" points="423.9279,-89.5001 433.9279,-86 423.9279,-82.5001 423.9279,-89.5001"/>
</g>
<!-- Node23 -->
<g id="node19" class="node">
<title>Node23</title>
<g id="a_node19"><a xlink:href="classPeaksAvgsManager.html#a4523d9df43dc9ee00f25cad935271380" target="_top" xlink:title="PeaksAvgsManager::Setup">
<polygon fill="#ffffff" stroke="#000000" points="453.5,-38.5 453.5,-57.5 598.5,-57.5 598.5,-38.5 453.5,-38.5"/>
<text text-anchor="middle" x="526" y="-45.5" font-family="Helvetica,sans-Serif" font-size="10.00" fill="#000000">PeaksAvgsManager::Setup</text>
</a>
</g>
</g>
<!-- Node14&#45;&gt;Node23 -->
<g id="edge18" class="edge">
<title>Node14&#45;&gt;Node23</title>
<path fill="none" stroke="#191970" d="M363.1037,-76.46C392.9665,-71.2426 430.1426,-64.7475 461.4368,-59.28"/>
<polygon fill="#191970" stroke="#191970" points="462.1255,-62.7128 471.3738,-57.5439 460.9207,-55.8172 462.1255,-62.7128"/>
</g>
<!-- Node25 -->
<g id="node21" class="node">
<title>Node25</title>
<g id="a_node21"><a xlink:href="classBlockManager.html#aa5e8b71de591a2e25779a1eacdc09704" target="_top" xlink:title="BlockManager::AddManager">
<polygon fill="#ffffff" stroke="#000000" points="450,-.5 450,-19.5 602,-19.5 602,-.5 450,-.5"/>
<text text-anchor="middle" x="526" y="-7.5" font-family="Helvetica,sans-Serif" font-size="10.00" fill="#000000">BlockManager::AddManager</text>
</a>
</g>
</g>
<!-- Node14&#45;&gt;Node25 -->
<g id="edge20" class="edge">
<title>Node14&#45;&gt;Node25</title>
<path fill="none" stroke="#191970" d="M326.2831,-76.3884C350.1569,-63.8463 394.1827,-41.9741 434,-29 442.2247,-26.3201 450.9904,-23.935 459.72,-21.8377"/>
<polygon fill="#191970" stroke="#191970" points="460.5632,-25.2353 469.5298,-19.5917 459.0009,-18.4119 460.5632,-25.2353"/>
</g>
<!-- Node17 -->
<g id="node13" class="node">
<title>Node17</title>
<g id="a_node13"><a xlink:href="classPreallocatedType.html#ae8a5326530dd0f38ecbb094f7818bd42" target="_top" xlink:title="PreallocatedType::RTNew">
<polygon fill="#ffffff" stroke="#000000" points="654,-79.5 654,-98.5 794,-98.5 794,-79.5 654,-79.5"/>
<text text-anchor="middle" x="724" y="-86.5" font-family="Helvetica,sans-Serif" font-size="10.00" fill="#000000">PreallocatedType::RTNew</text>
</a>
</g>
</g>
<!-- Node16&#45;&gt;Node17 -->
<g id="edge12" class="edge">
<title>Node16&#45;&gt;Node17</title>
<path fill="none" stroke="#191970" d="M618.0442,-87.3946C626.588,-87.5241 635.2013,-87.6546 643.6278,-87.7822"/>
<polygon fill="#191970" stroke="#191970" points="643.7444,-91.2843 653.7963,-87.9363 643.8506,-84.2851 643.7444,-91.2843"/>
</g>
<!-- Node18 -->
<g id="node14" class="node">
<title>Node18</title>
<g id="a_node14"><a xlink:href="classRTStore.html#a2be0d247570dc611a379ab0a80dd14da" target="_top" xlink:title="RTStore::FindItemWithState">
<polygon fill="#ffffff" stroke="#000000" points="830,-117.5 830,-136.5 980,-136.5 980,-117.5 830,-117.5"/>
<text text-anchor="middle" x="905" y="-124.5" font-family="Helvetica,sans-Serif" font-size="10.00" fill="#000000">RTStore::FindItemWithState</text>
</a>
</g>
</g>
<!-- Node17&#45;&gt;Node18 -->
<g id="edge13" class="edge">
<title>Node17&#45;&gt;Node18</title>
<path fill="none" stroke="#191970" d="M769.6739,-98.589C793.9892,-103.6939 824.0802,-110.0113 849.7084,-115.3918"/>
<polygon fill="#191970" stroke="#191970" points="849.1487,-118.8505 859.6545,-117.4799 850.587,-111.9999 849.1487,-118.8505"/>
</g>
<!-- Node19 -->
<g id="node15" class="node">
<title>Node19</title>
<g id="a_node15"><a xlink:href="classRTStore.html#af3c93f31bd68ce149a812b05d9e7cd86" target="_top" xlink:title="RTStore::ChangeStateAtIdx">
<polygon fill="#ffffff" stroke="#000000" points="831,-79.5 831,-98.5 979,-98.5 979,-79.5 831,-79.5"/>
<text text-anchor="middle" x="905" y="-86.5" font-family="Helvetica,sans-Serif" font-size="10.00" fill="#000000">RTStore::ChangeStateAtIdx</text>
</a>
</g>
</g>
<!-- Node17&#45;&gt;Node19 -->
<g id="edge14" class="edge">
<title>Node17&#45;&gt;Node19</title>
<path fill="none" stroke="#191970" d="M794.2384,-89C802.9745,-89 811.9761,-89 820.8945,-89"/>
<polygon fill="#191970" stroke="#191970" points="820.9097,-92.5001 830.9097,-89 820.9096,-85.5001 820.9097,-92.5001"/>
</g>
<!-- Node20 -->
<g id="node16" class="node">
<title>Node20</title>
<g id="a_node16"><a xlink:href="classMemoryManager.html#a3971e97751f5eccd04086eb2e6fb6f43" target="_top" xlink:title="MemoryManager::WakeUp">
<polygon fill="#ffffff" stroke="#000000" points="832.5,-41.5 832.5,-60.5 977.5,-60.5 977.5,-41.5 832.5,-41.5"/>
<text text-anchor="middle" x="905" y="-48.5" font-family="Helvetica,sans-Serif" font-size="10.00" fill="#000000">MemoryManager::WakeUp</text>
</a>
</g>
</g>
<!-- Node17&#45;&gt;Node20 -->
<g id="edge15" class="edge">
<title>Node17&#45;&gt;Node20</title>
<path fill="none" stroke="#191970" d="M769.6739,-79.411C793.9892,-74.3061 824.0802,-67.9887 849.7084,-62.6082"/>
<polygon fill="#191970" stroke="#191970" points="850.587,-66.0001 859.6545,-60.5201 849.1487,-59.1495 850.587,-66.0001"/>
</g>
<!-- Node21 -->
<g id="node17" class="node">
<title>Node21</title>
<g id="a_node17"><a xlink:href="classSRMWRingBuffer.html#a47699ccc0600c38559c8e10f0ca9bf3c" target="_top" xlink:title="SRMWRingBuffer::WriteElement">
<polygon fill="#ffffff" stroke="#000000" points="1025,-60.5 1025,-79.5 1195,-79.5 1195,-60.5 1025,-60.5"/>
<text text-anchor="middle" x="1110" y="-67.5" font-family="Helvetica,sans-Serif" font-size="10.00" fill="#000000">SRMWRingBuffer::WriteElement</text>
</a>
</g>
</g>
<!-- Node20&#45;&gt;Node21 -->
<g id="edge16" class="edge">
<title>Node20&#45;&gt;Node21</title>
<path fill="none" stroke="#191970" d="M977.5638,-57.7254C989.6514,-58.8457 1002.3479,-60.0225 1014.8957,-61.1855"/>
<polygon fill="#191970" stroke="#191970" points="1014.6322,-64.6759 1024.9125,-62.1138 1015.2783,-57.7058 1014.6322,-64.6759"/>
</g>
<!-- Node22 -->
<g id="node18" class="node">
<title>Node22</title>
<g id="a_node18"><a xlink:href="classMemoryManager.html#ab15be510a88e9eab04db2d6554d7e947" target="_top" xlink:title="MemoryManager::WakeupIfNeeded">
<polygon fill="#ffffff" stroke="#000000" points="1016,-22.5 1016,-41.5 1204,-41.5 1204,-22.5 1016,-22.5"/>
<text text-anchor="middle" x="1110" y="-29.5" font-family="Helvetica,sans-Serif" font-size="10.00" fill="#000000">MemoryManager::WakeupIfNeeded</text>
</a>
</g>
</g>
<!-- Node20&#45;&gt;Node22 -->
<g id="edge17" class="edge">
<title>Node20&#45;&gt;Node22</title>
<path fill="none" stroke="#191970" d="M977.5638,-44.2746C986.7962,-43.4189 996.3838,-42.5303 1005.9891,-41.64"/>
<polygon fill="#191970" stroke="#191970" points="1006.3568,-45.1211 1015.991,-40.713 1005.7107,-38.1509 1006.3568,-45.1211"/>
</g>
<!-- Node24 -->
<g id="node20" class="node">
<title>Node24</title>
<g id="a_node20"><a xlink:href="classAudioBlockIterator.html#a1dc8579425203e09e42b1776095cc10b" target="_top" xlink:title="AudioBlockIterator\l::AudioBlockIterator">
<polygon fill="#ffffff" stroke="#000000" points="667.5,-30 667.5,-60 780.5,-60 780.5,-30 667.5,-30"/>
<text text-anchor="start" x="675.5" y="-48" font-family="Helvetica,sans-Serif" font-size="10.00" fill="#000000">AudioBlockIterator</text>
<text text-anchor="middle" x="724" y="-37" font-family="Helvetica,sans-Serif" font-size="10.00" fill="#000000">::AudioBlockIterator</text>
</a>
</g>
</g>
<!-- Node23&#45;&gt;Node24 -->
<g id="edge19" class="edge">
<title>Node23&#45;&gt;Node24</title>
<path fill="none" stroke="#191970" d="M598.6036,-46.8999C617.694,-46.6107 638.1972,-46.3 656.9798,-46.0155"/>
<polygon fill="#191970" stroke="#191970" points="657.2718,-49.5115 667.2176,-45.8603 657.1657,-42.5123 657.2718,-49.5115"/>
</g>
</g>
</svg>
