<?xml version="1.0" encoding="UTF-8" standalone="no"?>
<!DOCTYPE svg PUBLIC "-//W3C//DTD SVG 1.1//EN"
 "http://www.w3.org/Graphics/SVG/1.1/DTD/svg11.dtd">
<!-- Generated by graphviz version 2.40.1 (20161225.0304)
 -->
<!-- Title: SDLIO::run_sdl_thread Pages: 1 -->
<svg width="387pt" height="85pt"
 viewBox="0.00 0.00 387.00 85.00" xmlns="http://www.w3.org/2000/svg" xmlns:xlink="http://www.w3.org/1999/xlink">
<g id="graph0" class="graph" transform="scale(1 1) rotate(0) translate(4 81)">
<title>SDLIO::run_sdl_thread</title>
<polygon fill="#ffffff" stroke="transparent" points="-4,4 -4,-81 383,-81 383,4 -4,4"/>
<!-- Node102 -->
<g id="node1" class="node">
<title>Node102</title>
<polygon fill="#bfbfbf" stroke="#000000" points="0,-19.5 0,-38.5 124,-38.5 124,-19.5 0,-19.5"/>
<text text-anchor="middle" x="62" y="-26.5" font-family="Helvetica,sans-Serif" font-size="10.00" fill="#000000">SDLIO::run_sdl_thread</text>
</g>
<!-- Node103 -->
<g id="node2" class="node">
<title>Node103</title>
<g id="a_node2"><a xlink:href="classFweelin.html#a268997890fa59492e27b4787c6bdc41f" target="_top" xlink:title="Fweelin::go">
<polygon fill="#ffffff" stroke="#000000" points="170,-38.5 170,-57.5 242,-57.5 242,-38.5 170,-38.5"/>
<text text-anchor="middle" x="206" y="-45.5" font-family="Helvetica,sans-Serif" font-size="10.00" fill="#000000">Fweelin::go</text>
</a>
</g>
</g>
<!-- Node102&#45;&gt;Node103 -->
<g id="edge1" class="edge">
<title>Node102&#45;&gt;Node103</title>
<path fill="none" stroke="#191970" d="M134.5557,-38.5733C146.7682,-40.1847 158.9594,-41.7933 169.7237,-43.2135"/>
<polygon fill="#191970" stroke="#191970" points="134.6949,-35.0614 124.323,-37.2232 133.7792,-42.0013 134.6949,-35.0614"/>
</g>
<!-- Node106 -->
<g id="node5" class="node">
<title>Node106</title>
<g id="a_node5"><a xlink:href="classSDLIO.html#a219c64dd0f01ca0fe0319ba7a0a3379e" target="_top" xlink:title="SDLIO::activate">
<polygon fill="#ffffff" stroke="#000000" points="160,-.5 160,-19.5 252,-19.5 252,-.5 160,-.5"/>
<text text-anchor="middle" x="206" y="-7.5" font-family="Helvetica,sans-Serif" font-size="10.00" fill="#000000">SDLIO::activate</text>
</a>
</g>
</g>
<!-- Node102&#45;&gt;Node106 -->
<g id="edge4" class="edge">
<title>Node102&#45;&gt;Node106</title>
<path fill="none" stroke="#191970" d="M134.3832,-19.4494C142.9752,-18.3158 151.56,-17.1831 159.648,-16.1159"/>
<polygon fill="#191970" stroke="#191970" points="133.7792,-15.9987 124.323,-20.7768 134.6949,-22.9386 133.7792,-15.9987"/>
</g>
<!-- Node104 -->
<g id="node3" class="node">
<title>Node104</title>
<g id="a_node3"><a xlink:href="fweelin_8cc.html#a97b0fa62b7b0972875f5f589322c4c24" target="_top" xlink:title="main">
<polygon fill="#ffffff" stroke="#000000" points="313,-57.5 313,-76.5 354,-76.5 354,-57.5 313,-57.5"/>
<text text-anchor="middle" x="333.5" y="-64.5" font-family="Helvetica,sans-Serif" font-size="10.00" fill="#000000">main</text>
</a>
</g>
</g>
<!-- Node103&#45;&gt;Node104 -->
<g id="edge2" class="edge">
<title>Node103&#45;&gt;Node104</title>
<path fill="none" stroke="#191970" d="M252.127,-54.8738C272.8883,-57.9677 296.3559,-61.4648 312.7356,-63.9057"/>
<polygon fill="#191970" stroke="#191970" points="252.602,-51.406 242.1953,-53.3938 251.5702,-58.3296 252.602,-51.406"/>
</g>
<!-- Node105 -->
<g id="node4" class="node">
<title>Node105</title>
<g id="a_node4"><a xlink:href="classLoopTray.html#a307e6abe64c403e39fc463ec282bde27" target="_top" xlink:title="LoopTray::Draw">
<polygon fill="#ffffff" stroke="#000000" points="288,-19.5 288,-38.5 379,-38.5 379,-19.5 288,-19.5"/>
<text text-anchor="middle" x="333.5" y="-26.5" font-family="Helvetica,sans-Serif" font-size="10.00" fill="#000000">LoopTray::Draw</text>
</a>
</g>
</g>
<!-- Node103&#45;&gt;Node105 -->
<g id="edge3" class="edge">
<title>Node103&#45;&gt;Node105</title>
<path fill="none" stroke="#191970" d="M252.1051,-41.1294C263.6768,-39.405 276.0904,-37.5552 287.6497,-35.8326"/>
<polygon fill="#191970" stroke="#191970" points="251.5702,-37.6704 242.1953,-42.6062 252.602,-44.594 251.5702,-37.6704"/>
</g>
</g>
</svg>
