<?xml version="1.0" encoding="UTF-8" standalone="no"?>
<!DOCTYPE svg PUBLIC "-//W3C//DTD SVG 1.1//EN"
 "http://www.w3.org/Graphics/SVG/1.1/DTD/svg11.dtd">
<!-- Generated by graphviz version 2.40.1 (20161225.0304)
 -->
<!-- Title: LoopManager::AdjustOutputVolume Pages: 1 -->
<svg width="700pt" height="91pt"
 viewBox="0.00 0.00 700.00 91.00" xmlns="http://www.w3.org/2000/svg" xmlns:xlink="http://www.w3.org/1999/xlink">
<g id="graph0" class="graph" transform="scale(1 1) rotate(0) translate(4 87)">
<title>LoopManager::AdjustOutputVolume</title>
<polygon fill="#ffffff" stroke="transparent" points="-4,4 -4,-87 696,-87 696,4 -4,4"/>
<!-- Node127 -->
<g id="node1" class="node">
<title>Node127</title>
<polygon fill="#bfbfbf" stroke="#000000" points="0,-36 0,-66 152,-66 152,-36 0,-36"/>
<text text-anchor="start" x="8" y="-54" font-family="Helvetica,sans-Serif" font-size="10.00" fill="#000000">LoopManager::AdjustOutput</text>
<text text-anchor="middle" x="76" y="-43" font-family="Helvetica,sans-Serif" font-size="10.00" fill="#000000">Volume</text>
</g>
<!-- Node128 -->
<g id="node2" class="node">
<title>Node128</title>
<g id="a_node2"><a xlink:href="classFweelin.html#a4422f3a93561eff272cd5f7ecb0782ee" target="_top" xlink:title="Fweelin::getRP">
<polygon fill="#ffffff" stroke="#000000" points="221,-63.5 221,-82.5 310,-82.5 310,-63.5 221,-63.5"/>
<text text-anchor="middle" x="265.5" y="-70.5" font-family="Helvetica,sans-Serif" font-size="10.00" fill="#000000">Fweelin::getRP</text>
</a>
</g>
</g>
<!-- Node127&#45;&gt;Node128 -->
<g id="edge1" class="edge">
<title>Node127&#45;&gt;Node128</title>
<path fill="none" stroke="#191970" d="M152.2578,-59.8531C171.7784,-62.1194 192.3885,-64.5121 210.5978,-66.6261"/>
<polygon fill="#191970" stroke="#191970" points="210.392,-70.1257 220.729,-67.8023 211.1994,-63.1724 210.392,-70.1257"/>
</g>
<!-- Node129 -->
<g id="node3" class="node">
<title>Node129</title>
<g id="a_node3"><a xlink:href="classRootProcessor.html#acbec725df020a7e0592399291eb701a6" target="_top" xlink:title="RootProcessor::AdjustOutput\lVolume">
<polygon fill="#ffffff" stroke="#000000" points="188,-14 188,-44 343,-44 343,-14 188,-14"/>
<text text-anchor="start" x="196" y="-32" font-family="Helvetica,sans-Serif" font-size="10.00" fill="#000000">RootProcessor::AdjustOutput</text>
<text text-anchor="middle" x="265.5" y="-21" font-family="Helvetica,sans-Serif" font-size="10.00" fill="#000000">Volume</text>
</a>
</g>
</g>
<!-- Node127&#45;&gt;Node129 -->
<g id="edge2" class="edge">
<title>Node127&#45;&gt;Node129</title>
<path fill="none" stroke="#191970" d="M152.2578,-42.1469C160.6847,-41.1685 169.3147,-40.1666 177.8669,-39.1738"/>
<polygon fill="#191970" stroke="#191970" points="178.3243,-42.6443 187.8539,-38.0143 177.517,-35.691 178.3243,-42.6443"/>
</g>
<!-- Node130 -->
<g id="node4" class="node">
<title>Node130</title>
<g id="a_node4"><a xlink:href="classFweelin.html#acb51892233f08f4b0b9f2e7d7a625448" target="_top" xlink:title="Fweelin::getAUDIO">
<polygon fill="#ffffff" stroke="#000000" points="389.5,-38.5 389.5,-57.5 497.5,-57.5 497.5,-38.5 389.5,-38.5"/>
<text text-anchor="middle" x="443.5" y="-45.5" font-family="Helvetica,sans-Serif" font-size="10.00" fill="#000000">Fweelin::getAUDIO</text>
</a>
</g>
</g>
<!-- Node129&#45;&gt;Node130 -->
<g id="edge3" class="edge">
<title>Node129&#45;&gt;Node130</title>
<path fill="none" stroke="#191970" d="M343.0556,-37.2784C355.1565,-38.5701 367.5444,-39.8924 379.3043,-41.1477"/>
<polygon fill="#191970" stroke="#191970" points="379.1392,-44.6498 389.4542,-42.2311 379.8822,-37.6894 379.1392,-44.6498"/>
</g>
<!-- Node131 -->
<g id="node5" class="node">
<title>Node131</title>
<g id="a_node5"><a xlink:href="classAudioIO.html#a53438a70443717836d12c04b3c7850d0" target="_top" xlink:title="AudioIO::GetTimeScale">
<polygon fill="#ffffff" stroke="#000000" points="379,-.5 379,-19.5 508,-19.5 508,-.5 379,-.5"/>
<text text-anchor="middle" x="443.5" y="-7.5" font-family="Helvetica,sans-Serif" font-size="10.00" fill="#000000">AudioIO::GetTimeScale</text>
</a>
</g>
</g>
<!-- Node129&#45;&gt;Node131 -->
<g id="edge4" class="edge">
<title>Node129&#45;&gt;Node131</title>
<path fill="none" stroke="#191970" d="M343.0556,-20.7216C351.6747,-19.8016 360.4395,-18.866 369.0192,-17.9502"/>
<polygon fill="#191970" stroke="#191970" points="369.4142,-21.428 378.9862,-16.8863 368.6712,-14.4675 369.4142,-21.428"/>
</g>
<!-- Node132 -->
<g id="node6" class="node">
<title>Node132</title>
<g id="a_node6"><a xlink:href="classAudioIO.html#a42b9c04861d014fce6b1f68097ca63fd" target="_top" xlink:title="AudioIO::RelocateTransport">
<polygon fill="#ffffff" stroke="#000000" points="544,-.5 544,-19.5 692,-19.5 692,-.5 544,-.5"/>
<text text-anchor="middle" x="618" y="-7.5" font-family="Helvetica,sans-Serif" font-size="10.00" fill="#000000">AudioIO::RelocateTransport</text>
</a>
</g>
</g>
<!-- Node131&#45;&gt;Node132 -->
<g id="edge5" class="edge">
<title>Node131&#45;&gt;Node132</title>
<path fill="none" stroke="#191970" d="M508.4774,-10C516.6753,-10 525.1543,-10 533.5977,-10"/>
<polygon fill="#191970" stroke="#191970" points="533.858,-13.5001 543.8579,-10 533.8579,-6.5001 533.858,-13.5001"/>
</g>
</g>
</svg>
