<?xml version="1.0" encoding="UTF-8" standalone="no"?>
<!DOCTYPE svg PUBLIC "-//W3C//DTD SVG 1.1//EN"
 "http://www.w3.org/Graphics/SVG/1.1/DTD/svg11.dtd">
<!-- Generated by graphviz version 2.40.1 (20161225.0304)
 -->
<!-- Title: BlockExtendedData::GetType Pages: 1 -->
<svg width="1144pt" height="616pt"
 viewBox="0.00 0.00 1144.00 616.00" xmlns="http://www.w3.org/2000/svg" xmlns:xlink="http://www.w3.org/1999/xlink">
<g id="graph0" class="graph" transform="scale(1 1) rotate(0) translate(4 612)">
<title>BlockExtendedData::GetType</title>
<polygon fill="#ffffff" stroke="transparent" points="-4,4 -4,-612 1140,-612 1140,4 -4,4"/>
<!-- Node7 -->
<g id="node1" class="node">
<title>Node7</title>
<polygon fill="#bfbfbf" stroke="#000000" points="0,-303 0,-333 119,-333 119,-303 0,-303"/>
<text text-anchor="start" x="8" y="-321" font-family="Helvetica,sans-Serif" font-size="10.00" fill="#000000">BlockExtendedData::</text>
<text text-anchor="middle" x="59.5" y="-310" font-family="Helvetica,sans-Serif" font-size="10.00" fill="#000000">GetType</text>
</g>
<!-- Node8 -->
<g id="node2" class="node">
<title>Node8</title>
<g id="a_node2"><a xlink:href="classAudioBlock.html#adeb97443eade7fd99e54dc15a05dfaef" target="_top" xlink:title="AudioBlock::DeleteChain">
<polygon fill="#ffffff" stroke="#000000" points="168.5,-424.5 168.5,-443.5 305.5,-443.5 305.5,-424.5 168.5,-424.5"/>
<text text-anchor="middle" x="237" y="-431.5" font-family="Helvetica,sans-Serif" font-size="10.00" fill="#000000">AudioBlock::DeleteChain</text>
</a>
</g>
</g>
<!-- Node7&#45;&gt;Node8 -->
<g id="edge1" class="edge">
<title>Node7&#45;&gt;Node8</title>
<path fill="none" stroke="#191970" d="M91.4865,-338.9038C130.1071,-364.1432 193.4383,-405.5315 222.0909,-424.2566"/>
<polygon fill="#191970" stroke="#191970" points="92.9907,-335.7058 82.705,-333.165 89.1613,-341.5654 92.9907,-335.7058"/>
</g>
<!-- Node18 -->
<g id="node12" class="node">
<title>Node18</title>
<g id="a_node12"><a xlink:href="classAudioBlock.html#ae7aec1591ed6f228799c11b650b2cc1b" target="_top" xlink:title="AudioBlock::GetExtendedData">
<polygon fill="#ffffff" stroke="#000000" points="155,-210.5 155,-229.5 319,-229.5 319,-210.5 155,-210.5"/>
<text text-anchor="middle" x="237" y="-217.5" font-family="Helvetica,sans-Serif" font-size="10.00" fill="#000000">AudioBlock::GetExtendedData</text>
</a>
</g>
</g>
<!-- Node7&#45;&gt;Node18 -->
<g id="edge13" class="edge">
<title>Node7&#45;&gt;Node18</title>
<path fill="none" stroke="#191970" d="M95.9871,-297.855C133.7193,-277.0226 191.0301,-245.3806 219.5736,-229.6213"/>
<polygon fill="#191970" stroke="#191970" points="93.908,-295.0048 86.8454,-302.9023 97.2914,-301.1329 93.908,-295.0048"/>
</g>
<!-- Node9 -->
<g id="node3" class="node">
<title>Node9</title>
<g id="a_node3"><a xlink:href="classBlockReadManager.html#a0956beb932559fdea3ecca152db2bd0a" target="_top" xlink:title="BlockReadManager::End">
<polygon fill="#ffffff" stroke="#000000" points="583.5,-424.5 583.5,-443.5 717.5,-443.5 717.5,-424.5 583.5,-424.5"/>
<text text-anchor="middle" x="650.5" y="-431.5" font-family="Helvetica,sans-Serif" font-size="10.00" fill="#000000">BlockReadManager::End</text>
</a>
</g>
</g>
<!-- Node8&#45;&gt;Node9 -->
<g id="edge2" class="edge">
<title>Node8&#45;&gt;Node9</title>
<path fill="none" stroke="#191970" d="M315.9303,-434C393.3698,-434 510.1809,-434 583.3063,-434"/>
<polygon fill="#191970" stroke="#191970" points="315.7453,-430.5001 305.7453,-434 315.7453,-437.5001 315.7453,-430.5001"/>
</g>
<!-- Node14 -->
<g id="node8" class="node">
<title>Node14</title>
<g id="a_node8"><a xlink:href="classLoopManager.html#a332a9868980750f28fbf0e05b2336174" target="_top" xlink:title="LoopManager::DeleteLoop">
<polygon fill="#ffffff" stroke="#000000" points="367.5,-531.5 367.5,-550.5 510.5,-550.5 510.5,-531.5 367.5,-531.5"/>
<text text-anchor="middle" x="439" y="-538.5" font-family="Helvetica,sans-Serif" font-size="10.00" fill="#000000">LoopManager::DeleteLoop</text>
</a>
</g>
</g>
<!-- Node8&#45;&gt;Node14 -->
<g id="edge8" class="edge">
<title>Node8&#45;&gt;Node14</title>
<path fill="none" stroke="#191970" d="M264.3718,-448.4989C306.3211,-470.7196 385.3772,-512.5958 420.9044,-531.4147"/>
<polygon fill="#191970" stroke="#191970" points="265.7576,-445.2723 255.2824,-443.6843 262.4809,-451.4581 265.7576,-445.2723"/>
</g>
<!-- Node10 -->
<g id="node4" class="node">
<title>Node10</title>
<g id="a_node4"><a xlink:href="classBlockReadManager.html#a935aa663d9fa5b6d346f77c7b3882e2b" target="_top" xlink:title="BlockReadManager::\l~BlockReadManager">
<polygon fill="#ffffff" stroke="#000000" points="801,-463 801,-493 919,-493 919,-463 801,-463"/>
<text text-anchor="start" x="809" y="-481" font-family="Helvetica,sans-Serif" font-size="10.00" fill="#000000">BlockReadManager::</text>
<text text-anchor="middle" x="860" y="-470" font-family="Helvetica,sans-Serif" font-size="10.00" fill="#000000">~BlockReadManager</text>
</a>
</g>
</g>
<!-- Node9&#45;&gt;Node10 -->
<g id="edge3" class="edge">
<title>Node9&#45;&gt;Node10</title>
<path fill="none" stroke="#191970" d="M705.9851,-445.6532C735.1701,-451.7827 770.9619,-459.2999 800.6944,-465.5444"/>
<polygon fill="#191970" stroke="#191970" points="706.4643,-442.1775 695.9584,-443.5473 705.0255,-449.0281 706.4643,-442.1775"/>
</g>
<!-- Node11 -->
<g id="node5" class="node">
<title>Node11</title>
<g id="a_node5"><a xlink:href="classBlockReadManager.html#af12804c61f944904eedf8c9edf5cd3bd" target="_top" xlink:title="BlockReadManager::Start">
<polygon fill="#ffffff" stroke="#000000" points="790.5,-386.5 790.5,-405.5 929.5,-405.5 929.5,-386.5 790.5,-386.5"/>
<text text-anchor="middle" x="860" y="-393.5" font-family="Helvetica,sans-Serif" font-size="10.00" fill="#000000">BlockReadManager::Start</text>
</a>
</g>
</g>
<!-- Node9&#45;&gt;Node11 -->
<g id="edge4" class="edge">
<title>Node9&#45;&gt;Node11</title>
<path fill="none" stroke="#191970" d="M713.0575,-422.653C743.116,-417.2009 778.7397,-410.7393 807.3831,-405.5439"/>
<polygon fill="#191970" stroke="#191970" points="712.3101,-419.2314 703.0953,-424.46 713.5594,-426.1191 712.3101,-419.2314"/>
</g>
<!-- Node12 -->
<g id="node6" class="node">
<title>Node12</title>
<g id="a_node6"><a xlink:href="classBlockReadManager.html#aa990976dec4a3ec5bd6384b54ce5f09b" target="_top" xlink:title="BlockReadManager::Manage">
<polygon fill="#ffffff" stroke="#000000" points="980,-405.5 980,-424.5 1134,-424.5 1134,-405.5 980,-405.5"/>
<text text-anchor="middle" x="1057" y="-412.5" font-family="Helvetica,sans-Serif" font-size="10.00" fill="#000000">BlockReadManager::Manage</text>
</a>
</g>
</g>
<!-- Node9&#45;&gt;Node12 -->
<g id="edge6" class="edge">
<title>Node9&#45;&gt;Node12</title>
<path fill="none" stroke="#191970" d="M728.0271,-430.3763C800.3027,-426.9982 907.5072,-421.9874 979.7072,-418.6127"/>
<polygon fill="#191970" stroke="#191970" points="727.4509,-426.8994 717.6252,-430.8625 727.7777,-433.8917 727.4509,-426.8994"/>
</g>
<!-- Node13 -->
<g id="node7" class="node">
<title>Node13</title>
<g id="a_node7"><a xlink:href="classLoopManager.html#aadca58536e41c8b0b8fd148ac40b23c0" target="_top" xlink:title="LoopManager::~LoopManager">
<polygon fill="#ffffff" stroke="#000000" points="779.5,-512.5 779.5,-531.5 940.5,-531.5 940.5,-512.5 779.5,-512.5"/>
<text text-anchor="middle" x="860" y="-519.5" font-family="Helvetica,sans-Serif" font-size="10.00" fill="#000000">LoopManager::~LoopManager</text>
</a>
</g>
</g>
<!-- Node9&#45;&gt;Node13 -->
<g id="edge7" class="edge">
<title>Node9&#45;&gt;Node13</title>
<path fill="none" stroke="#191970" d="M674.3753,-449.0846C699.3709,-464.3053 740.1754,-487.564 778,-502 788.8153,-506.1277 800.7644,-509.6125 812.1176,-512.458"/>
<polygon fill="#191970" stroke="#191970" points="675.9578,-445.9485 665.6087,-443.6798 672.2842,-451.9071 675.9578,-445.9485"/>
</g>
<!-- Node11&#45;&gt;Node12 -->
<g id="edge5" class="edge">
<title>Node11&#45;&gt;Node12</title>
<path fill="none" stroke="#191970" d="M939.7724,-403.6938C953.0439,-404.9738 966.7865,-406.2992 979.9877,-407.5724"/>
<polygon fill="#191970" stroke="#191970" points="940.0219,-400.2017 929.7321,-402.7254 939.3498,-407.1694 940.0219,-400.2017"/>
</g>
<!-- Node15 -->
<g id="node9" class="node">
<title>Node15</title>
<g id="a_node9"><a xlink:href="classLoopManager.html#a6048a702c9cec3676a1c56792b16ec44" target="_top" xlink:title="LoopManager::ReadComplete">
<polygon fill="#ffffff" stroke="#000000" points="571,-588.5 571,-607.5 730,-607.5 730,-588.5 571,-588.5"/>
<text text-anchor="middle" x="650.5" y="-595.5" font-family="Helvetica,sans-Serif" font-size="10.00" fill="#000000">LoopManager::ReadComplete</text>
</a>
</g>
</g>
<!-- Node14&#45;&gt;Node15 -->
<g id="edge9" class="edge">
<title>Node14&#45;&gt;Node15</title>
<path fill="none" stroke="#191970" d="M483.0516,-553.2485C505.7265,-559.5192 533.8248,-567.237 559,-574 576.9223,-578.8146 596.8504,-584.055 613.5216,-588.4071"/>
<polygon fill="#191970" stroke="#191970" points="483.9399,-549.8629 473.3685,-550.5676 482.072,-556.6091 483.9399,-549.8629"/>
</g>
<!-- Node16 -->
<g id="node10" class="node">
<title>Node16</title>
<g id="a_node10"><a xlink:href="classLoopManager.html#a8efb4c8acabceb10faa8660c14c89d71" target="_top" xlink:title="LoopManager::DeletePulse">
<polygon fill="#ffffff" stroke="#000000" points="577.5,-512.5 577.5,-531.5 723.5,-531.5 723.5,-512.5 577.5,-512.5"/>
<text text-anchor="middle" x="650.5" y="-519.5" font-family="Helvetica,sans-Serif" font-size="10.00" fill="#000000">LoopManager::DeletePulse</text>
</a>
</g>
</g>
<!-- Node14&#45;&gt;Node16 -->
<g id="edge10" class="edge">
<title>Node14&#45;&gt;Node16</title>
<path fill="none" stroke="#191970" d="M520.7977,-533.6517C539.3666,-531.9836 558.9755,-530.2221 577.1675,-528.5878"/>
<polygon fill="#191970" stroke="#191970" points="520.251,-530.1867 510.6043,-534.5675 520.8773,-537.1586 520.251,-530.1867"/>
</g>
<!-- Node17 -->
<g id="node11" class="node">
<title>Node17</title>
<g id="a_node11"><a xlink:href="classLoopManager.html#a4aada2d07b7ce0a67a8119ece4805966" target="_top" xlink:title="LoopManager::ReceiveEvent">
<polygon fill="#ffffff" stroke="#000000" points="783,-550.5 783,-569.5 937,-569.5 937,-550.5 783,-550.5"/>
<text text-anchor="middle" x="860" y="-557.5" font-family="Helvetica,sans-Serif" font-size="10.00" fill="#000000">LoopManager::ReceiveEvent</text>
</a>
</g>
</g>
<!-- Node14&#45;&gt;Node17 -->
<g id="edge12" class="edge">
<title>Node14&#45;&gt;Node17</title>
<path fill="none" stroke="#191970" d="M521.3378,-544.716C597.0867,-548.1346 708.5846,-553.1665 782.6959,-556.5112"/>
<polygon fill="#191970" stroke="#191970" points="521.0418,-541.1991 510.8941,-544.2446 520.7261,-548.192 521.0418,-541.1991"/>
</g>
<!-- Node16&#45;&gt;Node17 -->
<g id="edge11" class="edge">
<title>Node16&#45;&gt;Node17</title>
<path fill="none" stroke="#191970" d="M713.0575,-533.347C743.116,-538.7991 778.7397,-545.2607 807.3831,-550.4561"/>
<polygon fill="#191970" stroke="#191970" points="713.5594,-529.8809 703.0953,-531.54 712.3101,-536.7686 713.5594,-529.8809"/>
</g>
<!-- Node19 -->
<g id="node13" class="node">
<title>Node19</title>
<g id="a_node13"><a xlink:href="classAudioBlock.html#a09c778d19d7d45dbb68951fabff2f518" target="_top" xlink:title="AudioBlock::Smooth">
<polygon fill="#ffffff" stroke="#000000" points="381.5,-278.5 381.5,-297.5 496.5,-297.5 496.5,-278.5 381.5,-278.5"/>
<text text-anchor="middle" x="439" y="-285.5" font-family="Helvetica,sans-Serif" font-size="10.00" fill="#000000">AudioBlock::Smooth</text>
</a>
</g>
</g>
<!-- Node18&#45;&gt;Node19 -->
<g id="edge14" class="edge">
<title>Node18&#45;&gt;Node19</title>
<path fill="none" stroke="#191970" d="M275.0517,-232.8095C314.4857,-246.0843 375.2099,-266.5261 410.6318,-278.4503"/>
<polygon fill="#191970" stroke="#191970" points="276.1073,-229.4719 265.5132,-229.5985 273.874,-236.1061 276.1073,-229.4719"/>
</g>
<!-- Node24 -->
<g id="node18" class="node">
<title>Node24</title>
<g id="a_node18"><a xlink:href="classAudioBlock.html#aea20227efbc9017f7fb247cb2d851086" target="_top" xlink:title="AudioBlock::GenerateSubChain">
<polygon fill="#ffffff" stroke="#000000" points="355,-10.5 355,-29.5 523,-29.5 523,-10.5 355,-10.5"/>
<text text-anchor="middle" x="439" y="-17.5" font-family="Helvetica,sans-Serif" font-size="10.00" fill="#000000">AudioBlock::GenerateSubChain</text>
</a>
</g>
</g>
<!-- Node18&#45;&gt;Node24 -->
<g id="edge20" class="edge">
<title>Node18&#45;&gt;Node24</title>
<path fill="none" stroke="#191970" d="M250.222,-202.0457C270.9051,-174.5725 312.9181,-121.172 355,-82 377.2888,-61.2524 406.4994,-41.0348 423.9479,-29.5869"/>
<polygon fill="#191970" stroke="#191970" points="247.2303,-200.2025 244.0561,-210.3107 252.8411,-204.3882 247.2303,-200.2025"/>
</g>
<!-- Node25 -->
<g id="node19" class="node">
<title>Node25</title>
<g id="a_node19"><a xlink:href="classRecordProcessor.html#aa20c0f68a5ee5e4739759b3783b6e4d1" target="_top" xlink:title="RecordProcessor::RecordProcessor">
<polygon fill="#ffffff" stroke="#000000" points="559,-.5 559,-19.5 742,-19.5 742,-.5 559,-.5"/>
<text text-anchor="middle" x="650.5" y="-7.5" font-family="Helvetica,sans-Serif" font-size="10.00" fill="#000000">RecordProcessor::RecordProcessor</text>
</a>
</g>
</g>
<!-- Node18&#45;&gt;Node25 -->
<g id="edge41" class="edge">
<title>Node18&#45;&gt;Node25</title>
<path fill="none" stroke="#191970" d="M256.2603,-203.7812C278.8713,-185.2723 317.9969,-154.8712 355,-134 448.0412,-81.5212 567.7394,-38.0106 621.7734,-19.5352"/>
<polygon fill="#191970" stroke="#191970" points="253.9169,-201.1774 248.4419,-210.248 258.3784,-206.5714 253.9169,-201.1774"/>
</g>
<!-- Node26 -->
<g id="node20" class="node">
<title>Node26</title>
<g id="a_node20"><a xlink:href="classAudioBlockIterator.html#a5cc11c9589308f5da0fea19c701c84b3" target="_top" xlink:title="AudioBlockIterator\l::PutFragment">
<polygon fill="#ffffff" stroke="#000000" points="597,-205 597,-235 704,-235 704,-205 597,-205"/>
<text text-anchor="start" x="605" y="-223" font-family="Helvetica,sans-Serif" font-size="10.00" fill="#000000">AudioBlockIterator</text>
<text text-anchor="middle" x="650.5" y="-212" font-family="Helvetica,sans-Serif" font-size="10.00" fill="#000000">::PutFragment</text>
</a>
</g>
</g>
<!-- Node18&#45;&gt;Node26 -->
<g id="edge22" class="edge">
<title>Node18&#45;&gt;Node26</title>
<path fill="none" stroke="#191970" d="M329.2868,-220C411.5101,-220 529.0012,-220 596.742,-220"/>
<polygon fill="#191970" stroke="#191970" points="329.1887,-216.5001 319.1887,-220 329.1886,-223.5001 329.1887,-216.5001"/>
</g>
<!-- Node30 -->
<g id="node24" class="node">
<title>Node30</title>
<g id="a_node24"><a xlink:href="classAudioBlockIterator.html#a86cfc4c09c380d6304ed3aa6ff2ea17b" target="_top" xlink:title="AudioBlockIterator\l::GetFragment">
<polygon fill="#ffffff" stroke="#000000" points="385.5,-144 385.5,-174 492.5,-174 492.5,-144 385.5,-144"/>
<text text-anchor="start" x="393.5" y="-162" font-family="Helvetica,sans-Serif" font-size="10.00" fill="#000000">AudioBlockIterator</text>
<text text-anchor="middle" x="439" y="-151" font-family="Helvetica,sans-Serif" font-size="10.00" fill="#000000">::GetFragment</text>
</a>
</g>
</g>
<!-- Node18&#45;&gt;Node30 -->
<g id="edge28" class="edge">
<title>Node18&#45;&gt;Node30</title>
<path fill="none" stroke="#191970" d="M278.5184,-207.4623C310.6201,-197.7682 355.1765,-184.313 389.197,-174.0395"/>
<polygon fill="#191970" stroke="#191970" points="277.1237,-204.2273 268.5625,-210.4688 279.1474,-210.9284 277.1237,-204.2273"/>
</g>
<!-- Node36 -->
<g id="node30" class="node">
<title>Node36</title>
<g id="a_node30"><a xlink:href="classVideoIO.html#adca60a99be6e51d8af7ce2a32f92349a" target="_top" xlink:title="VideoIO::DrawLoop">
<polygon fill="#ffffff" stroke="#000000" points="384,-316.5 384,-335.5 494,-335.5 494,-316.5 384,-316.5"/>
<text text-anchor="middle" x="439" y="-323.5" font-family="Helvetica,sans-Serif" font-size="10.00" fill="#000000">VideoIO::DrawLoop</text>
</a>
</g>
</g>
<!-- Node18&#45;&gt;Node36 -->
<g id="edge42" class="edge">
<title>Node18&#45;&gt;Node36</title>
<path fill="none" stroke="#191970" d="M254.2448,-236.3713C276.003,-256.1107 315.3869,-288.8862 355,-307 363.9744,-311.1037 373.9046,-314.3543 383.7013,-316.9189"/>
<polygon fill="#191970" stroke="#191970" points="256.5265,-233.7143 246.805,-229.502 251.7779,-238.8573 256.5265,-233.7143"/>
</g>
<!-- Node19&#45;&gt;Node9 -->
<g id="edge15" class="edge">
<title>Node19&#45;&gt;Node9</title>
<path fill="none" stroke="#191970" d="M506.4195,-299.6404C512.186,-301.706 517.7967,-304.1376 523,-307 551.6059,-322.7369 618.4849,-397.4263 642.0779,-424.3209"/>
<polygon fill="#191970" stroke="#191970" points="507.2034,-296.2164 496.6123,-296.4985 505.0677,-302.8826 507.2034,-296.2164"/>
</g>
<!-- Node20 -->
<g id="node14" class="node">
<title>Node20</title>
<g id="a_node14"><a xlink:href="classRecordProcessor.html#a9984f573bbc265321ad0604f97b23820" target="_top" xlink:title="RecordProcessor::EndNow">
<polygon fill="#ffffff" stroke="#000000" points="579,-307.5 579,-326.5 722,-326.5 722,-307.5 579,-307.5"/>
<text text-anchor="middle" x="650.5" y="-314.5" font-family="Helvetica,sans-Serif" font-size="10.00" fill="#000000">RecordProcessor::EndNow</text>
</a>
</g>
</g>
<!-- Node19&#45;&gt;Node20 -->
<g id="edge16" class="edge">
<title>Node19&#45;&gt;Node20</title>
<path fill="none" stroke="#191970" d="M506.5006,-297.2554C530.268,-300.5143 557.0144,-304.1816 580.9478,-307.4633"/>
<polygon fill="#191970" stroke="#191970" points="506.8967,-293.777 496.5139,-295.8861 505.9458,-300.7122 506.8967,-293.777"/>
</g>
<!-- Node21 -->
<g id="node15" class="node">
<title>Node21</title>
<g id="a_node15"><a xlink:href="classRecordProcessor.html#a6168d8dc850602a348dc74ab1224263a" target="_top" xlink:title="RecordProcessor::PulseSync">
<polygon fill="#ffffff" stroke="#000000" points="981,-272.5 981,-291.5 1133,-291.5 1133,-272.5 981,-272.5"/>
<text text-anchor="middle" x="1057" y="-279.5" font-family="Helvetica,sans-Serif" font-size="10.00" fill="#000000">RecordProcessor::PulseSync</text>
</a>
</g>
</g>
<!-- Node20&#45;&gt;Node21 -->
<g id="edge17" class="edge">
<title>Node20&#45;&gt;Node21</title>
<path fill="none" stroke="#191970" d="M732.5517,-314.8822C791.0681,-312.7903 871.54,-308.7311 942,-301 963.3221,-298.6605 986.7034,-295.0009 1006.7829,-291.5155"/>
<polygon fill="#191970" stroke="#191970" points="732.129,-311.3946 722.2559,-315.2381 732.3709,-318.3905 732.129,-311.3946"/>
</g>
<!-- Node22 -->
<g id="node16" class="node">
<title>Node22</title>
<g id="a_node16"><a xlink:href="classRecordProcessor.html#ab035edfb707f8f1066b3597df7ddda7d" target="_top" xlink:title="RecordProcessor::End">
<polygon fill="#ffffff" stroke="#000000" points="799.5,-348.5 799.5,-367.5 920.5,-367.5 920.5,-348.5 799.5,-348.5"/>
<text text-anchor="middle" x="860" y="-355.5" font-family="Helvetica,sans-Serif" font-size="10.00" fill="#000000">RecordProcessor::End</text>
</a>
</g>
</g>
<!-- Node20&#45;&gt;Node22 -->
<g id="edge18" class="edge">
<title>Node20&#45;&gt;Node22</title>
<path fill="none" stroke="#191970" d="M709.2652,-328.5006C741.4499,-334.7993 780.8606,-342.5121 811.311,-348.4714"/>
<polygon fill="#191970" stroke="#191970" points="709.5762,-324.9951 699.0901,-326.5093 708.2317,-331.8648 709.5762,-324.9951"/>
</g>
<!-- Node23 -->
<g id="node17" class="node">
<title>Node23</title>
<g id="a_node17"><a xlink:href="classRecordProcessor.html#ad36d69ec9d41b424eb2e6c5fa2e0cf3a" target="_top" xlink:title="RecordProcessor::process">
<polygon fill="#ffffff" stroke="#000000" points="790,-272.5 790,-291.5 930,-291.5 930,-272.5 790,-272.5"/>
<text text-anchor="middle" x="860" y="-279.5" font-family="Helvetica,sans-Serif" font-size="10.00" fill="#000000">RecordProcessor::process</text>
</a>
</g>
</g>
<!-- Node20&#45;&gt;Node23 -->
<g id="edge19" class="edge">
<title>Node20&#45;&gt;Node23</title>
<path fill="none" stroke="#191970" d="M717.4275,-305.8188C744.9969,-301.2129 776.6039,-295.9325 803.0413,-291.5158"/>
<polygon fill="#191970" stroke="#191970" points="716.7566,-302.3823 707.4701,-307.4823 717.9101,-309.2866 716.7566,-302.3823"/>
</g>
<!-- Node24&#45;&gt;Node25 -->
<g id="edge21" class="edge">
<title>Node24&#45;&gt;Node25</title>
<path fill="none" stroke="#191970" d="M533.4657,-15.5335C541.9351,-15.1331 550.5022,-14.728 558.9463,-14.3288"/>
<polygon fill="#191970" stroke="#191970" points="533.0216,-12.0505 523.1981,-16.019 533.3523,-19.0427 533.0216,-12.0505"/>
</g>
<!-- Node26&#45;&gt;Node23 -->
<g id="edge27" class="edge">
<title>Node26&#45;&gt;Node23</title>
<path fill="none" stroke="#191970" d="M701.4413,-238.45C724.6335,-246.5207 752.5351,-255.7743 778,-263 789.9495,-266.3907 803.0039,-269.6244 815.1121,-272.4316"/>
<polygon fill="#191970" stroke="#191970" points="702.4058,-235.0794 691.8109,-235.073 700.0893,-241.685 702.4058,-235.0794"/>
</g>
<!-- Node27 -->
<g id="node21" class="node">
<title>Node27</title>
<g id="a_node21"><a xlink:href="classSndFileDecoder.html#a6f533159127e8f633a12c6fe3f86b4a2" target="_top" xlink:title="SndFileDecoder::ReadSamples">
<polygon fill="#ffffff" stroke="#000000" points="778,-196.5 778,-215.5 942,-215.5 942,-196.5 778,-196.5"/>
<text text-anchor="middle" x="860" y="-203.5" font-family="Helvetica,sans-Serif" font-size="10.00" fill="#000000">SndFileDecoder::ReadSamples</text>
</a>
</g>
</g>
<!-- Node26&#45;&gt;Node27 -->
<g id="edge23" class="edge">
<title>Node26&#45;&gt;Node27</title>
<path fill="none" stroke="#191970" d="M714.421,-215.7284C734.4547,-214.3897 756.8504,-212.8931 777.9545,-211.4828"/>
<polygon fill="#191970" stroke="#191970" points="713.9238,-212.2538 704.1794,-216.4128 714.3906,-219.2382 713.9238,-212.2538"/>
</g>
<!-- Node28 -->
<g id="node22" class="node">
<title>Node28</title>
<g id="a_node22"><a xlink:href="classVorbisDecoder.html#a605d498b0a32990607910576964da546" target="_top" xlink:title="VorbisDecoder::ReadSamples">
<polygon fill="#ffffff" stroke="#000000" points="780.5,-158.5 780.5,-177.5 939.5,-177.5 939.5,-158.5 780.5,-158.5"/>
<text text-anchor="middle" x="860" y="-165.5" font-family="Helvetica,sans-Serif" font-size="10.00" fill="#000000">VorbisDecoder::ReadSamples</text>
</a>
</g>
</g>
<!-- Node26&#45;&gt;Node28 -->
<g id="edge24" class="edge">
<title>Node26&#45;&gt;Node28</title>
<path fill="none" stroke="#191970" d="M713.9092,-203.2472C734.3412,-197.9404 757.103,-192.1244 778,-187 790.9154,-183.8328 805.0101,-180.5165 817.8138,-177.5573"/>
<polygon fill="#191970" stroke="#191970" points="712.8794,-199.8986 704.0845,-205.8062 714.6438,-206.6726 712.8794,-199.8986"/>
</g>
<!-- Node29 -->
<g id="node23" class="node">
<title>Node29</title>
<g id="a_node23"><a xlink:href="classRecordProcessor.html#a8fbde2e8b6f9e9dafb89ef0b06e6a11a" target="_top" xlink:title="RecordProcessor::Jump">
<polygon fill="#ffffff" stroke="#000000" points="796,-234.5 796,-253.5 924,-253.5 924,-234.5 796,-234.5"/>
<text text-anchor="middle" x="860" y="-241.5" font-family="Helvetica,sans-Serif" font-size="10.00" fill="#000000">RecordProcessor::Jump</text>
</a>
</g>
</g>
<!-- Node26&#45;&gt;Node29 -->
<g id="edge25" class="edge">
<title>Node26&#45;&gt;Node29</title>
<path fill="none" stroke="#191970" d="M714.2274,-227.3005C740.0284,-230.2562 769.7728,-233.6637 795.6379,-236.6268"/>
<polygon fill="#191970" stroke="#191970" points="714.5128,-223.8104 704.1794,-226.1494 713.716,-230.7649 714.5128,-223.8104"/>
</g>
<!-- Node29&#45;&gt;Node21 -->
<g id="edge26" class="edge">
<title>Node29&#45;&gt;Node21</title>
<path fill="none" stroke="#191970" d="M919.5635,-255.4894C947.672,-260.9114 980.8224,-267.3058 1007.5225,-272.4561"/>
<polygon fill="#191970" stroke="#191970" points="919.9391,-251.9974 909.4571,-253.54 918.6132,-258.8707 919.9391,-251.9974"/>
</g>
<!-- Node30&#45;&gt;Node23 -->
<g id="edge39" class="edge">
<title>Node30&#45;&gt;Node23</title>
<path fill="none" stroke="#191970" d="M462.3974,-180.96C485.187,-200.9595 521.7523,-229.5127 559,-244 634.2295,-273.2601 727.256,-281.1058 789.8125,-282.6901"/>
<polygon fill="#191970" stroke="#191970" points="464.7183,-178.3401 454.9324,-174.2797 460.0503,-183.5565 464.7183,-178.3401"/>
</g>
<!-- Node31 -->
<g id="node25" class="node">
<title>Node31</title>
<g id="a_node25"><a xlink:href="classBlockWriteManager.html#a0b50330873c237f482c48aa06a4b1a9a" target="_top" xlink:title="BlockWriteManager::\lManage">
<polygon fill="#ffffff" stroke="#000000" points="801.5,-109 801.5,-139 918.5,-139 918.5,-109 801.5,-109"/>
<text text-anchor="start" x="809.5" y="-127" font-family="Helvetica,sans-Serif" font-size="10.00" fill="#000000">BlockWriteManager::</text>
<text text-anchor="middle" x="860" y="-116" font-family="Helvetica,sans-Serif" font-size="10.00" fill="#000000">Manage</text>
</a>
</g>
</g>
<!-- Node30&#45;&gt;Node31 -->
<g id="edge29" class="edge">
<title>Node30&#45;&gt;Node31</title>
<path fill="none" stroke="#191970" d="M502.5829,-149.6844C520.7741,-147.2469 540.6451,-144.8008 559,-143 643.0286,-134.7561 740.6233,-129.3593 801.3555,-126.4937"/>
<polygon fill="#191970" stroke="#191970" points="502.1065,-146.2169 492.6699,-151.0336 503.0505,-153.153 502.1065,-146.2169"/>
</g>
<!-- Node32 -->
<g id="node26" class="node">
<title>Node32</title>
<g id="a_node26"><a xlink:href="classAudioBlockIterator.html#ae0521dee0479a9203bed6515bfc89568" target="_top" xlink:title="AudioBlockIterator\l::NextFragment">
<polygon fill="#ffffff" stroke="#000000" points="597,-153 597,-183 704,-183 704,-153 597,-153"/>
<text text-anchor="start" x="605" y="-171" font-family="Helvetica,sans-Serif" font-size="10.00" fill="#000000">AudioBlockIterator</text>
<text text-anchor="middle" x="650.5" y="-160" font-family="Helvetica,sans-Serif" font-size="10.00" fill="#000000">::NextFragment</text>
</a>
</g>
</g>
<!-- Node30&#45;&gt;Node32 -->
<g id="edge30" class="edge">
<title>Node30&#45;&gt;Node32</title>
<path fill="none" stroke="#191970" d="M503.0126,-161.7239C533.0123,-163.0005 568.3498,-164.5042 596.9134,-165.7197"/>
<polygon fill="#191970" stroke="#191970" points="502.7836,-158.2111 492.6438,-161.2827 502.4859,-165.2048 502.7836,-158.2111"/>
</g>
<!-- Node33 -->
<g id="node27" class="node">
<title>Node33</title>
<g id="a_node27"><a xlink:href="classLoopManager.html#a306ffe72c9623e33cad280ec3609c359" target="_top" xlink:title="LoopManager::SetupSaveLoop">
<polygon fill="#ffffff" stroke="#000000" points="778.5,-70.5 778.5,-89.5 941.5,-89.5 941.5,-70.5 778.5,-70.5"/>
<text text-anchor="middle" x="860" y="-77.5" font-family="Helvetica,sans-Serif" font-size="10.00" fill="#000000">LoopManager::SetupSaveLoop</text>
</a>
</g>
</g>
<!-- Node30&#45;&gt;Node33 -->
<g id="edge38" class="edge">
<title>Node30&#45;&gt;Node33</title>
<path fill="none" stroke="#191970" d="M498.4203,-141.1837C517.6357,-135.8196 539.1153,-130.2385 559,-126 633.7097,-110.0755 719.9799,-97.4724 780.9569,-89.5147"/>
<polygon fill="#191970" stroke="#191970" points="497.2692,-137.8719 488.5987,-143.9608 499.1738,-144.6078 497.2692,-137.8719"/>
</g>
<!-- Node35 -->
<g id="node29" class="node">
<title>Node35</title>
<g id="a_node29"><a xlink:href="classPlayProcessor.html#a46bc1b738f48261e0c430f7345f4d99f" target="_top" xlink:title="PlayProcessor::process">
<polygon fill="#ffffff" stroke="#000000" points="796,-32.5 796,-51.5 924,-51.5 924,-32.5 796,-32.5"/>
<text text-anchor="middle" x="860" y="-39.5" font-family="Helvetica,sans-Serif" font-size="10.00" fill="#000000">PlayProcessor::process</text>
</a>
</g>
</g>
<!-- Node30&#45;&gt;Node35 -->
<g id="edge40" class="edge">
<title>Node30&#45;&gt;Node35</title>
<path fill="none" stroke="#191970" d="M473.4685,-138.9587C505.6456,-120.381 550.0203,-95.1453 559,-92 637.8668,-64.3754 733.831,-51.8102 795.8743,-46.2343"/>
<polygon fill="#191970" stroke="#191970" points="471.6598,-135.9615 464.7559,-143.9981 475.1647,-142.0209 471.6598,-135.9615"/>
</g>
<!-- Node32&#45;&gt;Node23 -->
<g id="edge36" class="edge">
<title>Node32&#45;&gt;Node23</title>
<path fill="none" stroke="#191970" d="M714.0184,-179.5196C724.0776,-183.302 733.838,-188.3262 742,-195 768.4732,-216.6461 750.8973,-242.1475 778,-263 782.9802,-266.8317 788.6009,-269.9123 794.5064,-272.3859"/>
<polygon fill="#191970" stroke="#191970" points="714.9188,-176.1299 704.3248,-176.2604 712.6879,-182.7649 714.9188,-176.1299"/>
</g>
<!-- Node32&#45;&gt;Node27 -->
<g id="edge31" class="edge">
<title>Node32&#45;&gt;Node27</title>
<path fill="none" stroke="#191970" d="M714.0964,-179.5354C743.9918,-184.9579 779.2048,-191.345 807.5472,-196.4859"/>
<polygon fill="#191970" stroke="#191970" points="714.6435,-176.0776 704.1794,-177.7366 713.3942,-182.9652 714.6435,-176.0776"/>
</g>
<!-- Node32&#45;&gt;Node28 -->
<g id="edge32" class="edge">
<title>Node32&#45;&gt;Node28</title>
<path fill="none" stroke="#191970" d="M714.1916,-168C735.0459,-168 758.4796,-168 780.36,-168"/>
<polygon fill="#191970" stroke="#191970" points="714.1794,-164.5001 704.1794,-168 714.1794,-171.5001 714.1794,-164.5001"/>
</g>
<!-- Node32&#45;&gt;Node31 -->
<g id="edge33" class="edge">
<title>Node32&#45;&gt;Node31</title>
<path fill="none" stroke="#191970" d="M714.1678,-154.6282C741.8882,-148.8063 774.1696,-142.0264 801.3036,-136.3277"/>
<polygon fill="#191970" stroke="#191970" points="713.2465,-151.2453 704.1794,-156.726 714.6853,-158.0958 713.2465,-151.2453"/>
</g>
<!-- Node32&#45;&gt;Node33 -->
<g id="edge34" class="edge">
<title>Node32&#45;&gt;Node33</title>
<path fill="none" stroke="#191970" d="M682.7484,-147.3921C707.8581,-132.1381 744.0377,-111.8559 778,-99 787.8402,-95.2752 798.6316,-92.1426 809.0607,-89.5638"/>
<polygon fill="#191970" stroke="#191970" points="680.7053,-144.5396 674.0229,-152.7614 684.3739,-150.5013 680.7053,-144.5396"/>
</g>
<!-- Node32&#45;&gt;Node35 -->
<g id="edge37" class="edge">
<title>Node32&#45;&gt;Node35</title>
<path fill="none" stroke="#191970" d="M671.1512,-145.1804C694.6405,-120.6482 735.3048,-82.3101 778,-61 785.7143,-57.1496 794.2283,-54.0648 802.7636,-51.5972"/>
<polygon fill="#191970" stroke="#191970" points="668.4529,-142.9406 664.1475,-152.6213 673.5501,-147.7384 668.4529,-142.9406"/>
</g>
<!-- Node34 -->
<g id="node28" class="node">
<title>Node34</title>
<g id="a_node28"><a xlink:href="classLoopManager.html#a00143be12c150c0a89c4f99c1e8d5e70" target="_top" xlink:title="LoopManager::GetWriteBlock">
<polygon fill="#ffffff" stroke="#000000" points="978,-70.5 978,-89.5 1136,-89.5 1136,-70.5 978,-70.5"/>
<text text-anchor="middle" x="1057" y="-77.5" font-family="Helvetica,sans-Serif" font-size="10.00" fill="#000000">LoopManager::GetWriteBlock</text>
</a>
</g>
</g>
<!-- Node33&#45;&gt;Node34 -->
<g id="edge35" class="edge">
<title>Node33&#45;&gt;Node34</title>
<path fill="none" stroke="#191970" d="M951.707,-80C960.4014,-80 969.1667,-80 977.7302,-80"/>
<polygon fill="#191970" stroke="#191970" points="951.5495,-76.5001 941.5495,-80 951.5494,-83.5001 951.5495,-76.5001"/>
</g>
</g>
</svg>
