<?xml version="1.0" encoding="UTF-8" standalone="no"?>
<!DOCTYPE svg PUBLIC "-//W3C//DTD SVG 1.1//EN"
 "http://www.w3.org/Graphics/SVG/1.1/DTD/svg11.dtd">
<!-- Generated by graphviz version 2.40.1 (20161225.0304)
 -->
<!-- Title: BrowserDivision Pages: 1 -->
<svg width="166pt" height="321pt"
 viewBox="0.00 0.00 166.00 321.00" xmlns="http://www.w3.org/2000/svg" xmlns:xlink="http://www.w3.org/1999/xlink">
<g id="graph0" class="graph" transform="scale(1 1) rotate(0) translate(4 317)">
<title>BrowserDivision</title>
<polygon fill="#ffffff" stroke="transparent" points="-4,4 -4,-317 162,-317 162,4 -4,4"/>
<!-- Node2 -->
<g id="node1" class="node">
<title>Node2</title>
<polygon fill="#bfbfbf" stroke="#000000" points="5,-.5 5,-57.5 101,-57.5 101,-.5 5,-.5"/>
<text text-anchor="middle" x="53" y="-45.5" font-family="Helvetica,sans-Serif" font-size="10.00" fill="#000000">BrowserDivision</text>
<polyline fill="none" stroke="#000000" points="5,-38.5 101,-38.5 "/>
<text text-anchor="middle" x="53" y="-26.5" font-family="Helvetica,sans-Serif" font-size="10.00" fill="#000000"> </text>
<polyline fill="none" stroke="#000000" points="5,-19.5 101,-19.5 "/>
<text text-anchor="start" x="13" y="-7.5" font-family="Helvetica,sans-Serif" font-size="10.00" fill="#000000">+ GetType()</text>
</g>
<!-- Node3 -->
<g id="node2" class="node">
<title>Node3</title>
<g id="a_node2"><a xlink:href="classBrowserItem.html" target="_top" xlink:title="{BrowserItem\n||+ BrowserItem()\l+ ~BrowserItem()\l+ GetType()\l+ Compare()\l+ MatchItem()\l}">
<polygon fill="#ffffff" stroke="#000000" points="0,-95.5 0,-196.5 106,-196.5 106,-95.5 0,-95.5"/>
<text text-anchor="middle" x="53" y="-184.5" font-family="Helvetica,sans-Serif" font-size="10.00" fill="#000000">BrowserItem</text>
<polyline fill="none" stroke="#000000" points="0,-177.5 106,-177.5 "/>
<text text-anchor="middle" x="53" y="-165.5" font-family="Helvetica,sans-Serif" font-size="10.00" fill="#000000"> </text>
<polyline fill="none" stroke="#000000" points="0,-158.5 106,-158.5 "/>
<text text-anchor="start" x="8" y="-146.5" font-family="Helvetica,sans-Serif" font-size="10.00" fill="#000000">+ BrowserItem()</text>
<text text-anchor="start" x="8" y="-135.5" font-family="Helvetica,sans-Serif" font-size="10.00" fill="#000000">+ ~BrowserItem()</text>
<text text-anchor="start" x="8" y="-124.5" font-family="Helvetica,sans-Serif" font-size="10.00" fill="#000000">+ GetType()</text>
<text text-anchor="start" x="8" y="-113.5" font-family="Helvetica,sans-Serif" font-size="10.00" fill="#000000">+ Compare()</text>
<text text-anchor="start" x="8" y="-102.5" font-family="Helvetica,sans-Serif" font-size="10.00" fill="#000000">+ MatchItem()</text>
</a>
</g>
</g>
<!-- Node3&#45;&gt;Node2 -->
<g id="edge1" class="edge">
<title>Node3&#45;&gt;Node2</title>
<path fill="none" stroke="#191970" d="M53,-85.0646C53,-75.5614 53,-66.1441 53,-57.8181"/>
<polygon fill="none" stroke="#191970" points="49.5001,-85.3625 53,-95.3626 56.5001,-85.3626 49.5001,-85.3625"/>
</g>
<!-- Node3&#45;&gt;Node3 -->
<g id="edge3" class="edge">
<title>Node3&#45;&gt;Node3</title>
<path fill="none" stroke="#404040" d="M106.2572,-158.1827C116.6323,-156.7679 124,-152.707 124,-146 124,-142.2273 121.6688,-139.2918 117.7825,-137.1936"/>
<polygon fill="none" stroke="#404040" points="117.7732,-137.191 110.8906,-139.3428 106.2572,-133.8173 113.1397,-131.6655 117.7732,-137.191"/>
<text text-anchor="middle" x="141" y="-149" font-family="Helvetica,sans-Serif" font-size="10.00" fill="#000000"> +prev</text>
<text text-anchor="middle" x="141" y="-138" font-family="Helvetica,sans-Serif" font-size="10.00" fill="#000000">+next</text>
</g>
<!-- Node4 -->
<g id="node3" class="node">
<title>Node4</title>
<polygon fill="#ffffff" stroke="#bfbfbf" points="34,-255.5 34,-312.5 72,-312.5 72,-255.5 34,-255.5"/>
<text text-anchor="middle" x="53" y="-300.5" font-family="Helvetica,sans-Serif" font-size="10.00" fill="#000000">char</text>
<polyline fill="none" stroke="#bfbfbf" points="34,-293.5 72,-293.5 "/>
<text text-anchor="middle" x="53" y="-281.5" font-family="Helvetica,sans-Serif" font-size="10.00" fill="#000000"> </text>
<polyline fill="none" stroke="#bfbfbf" points="34,-274.5 72,-274.5 "/>
<text text-anchor="middle" x="53" y="-262.5" font-family="Helvetica,sans-Serif" font-size="10.00" fill="#000000"> </text>
</g>
<!-- Node4&#45;&gt;Node3 -->
<g id="edge2" class="edge">
<title>Node4&#45;&gt;Node3</title>
<path fill="none" stroke="#404040" d="M53,-255.4063C53,-241.8804 53,-225.1561 53,-208.8884"/>
<polygon fill="none" stroke="#404040" points="53.0001,-208.5979 49,-202.5979 53,-196.5979 57,-202.5979 53.0001,-208.5979"/>
<text text-anchor="middle" x="91" y="-229" font-family="Helvetica,sans-Serif" font-size="10.00" fill="#000000"> +name</text>
<text text-anchor="middle" x="91" y="-218" font-family="Helvetica,sans-Serif" font-size="10.00" fill="#000000">+default_name</text>
</g>
</g>
</svg>
