<?xml version="1.0" encoding="UTF-8" standalone="no"?>
<!DOCTYPE svg PUBLIC "-//W3C//DTD SVG 1.1//EN"
 "http://www.w3.org/Graphics/SVG/1.1/DTD/svg11.dtd">
<!-- Generated by graphviz version 2.40.1 (20161225.0304)
 -->
<!-- Title: FloConfig::GetVSize Pages: 1 -->
<svg width="448pt" height="39pt"
 viewBox="0.00 0.00 448.00 39.00" xmlns="http://www.w3.org/2000/svg" xmlns:xlink="http://www.w3.org/1999/xlink">
<g id="graph0" class="graph" transform="scale(1 1) rotate(0) translate(4 35)">
<title>FloConfig::GetVSize</title>
<polygon fill="#ffffff" stroke="transparent" points="-4,4 -4,-35 444,-35 444,4 -4,4"/>
<!-- Node243 -->
<g id="node1" class="node">
<title>Node243</title>
<polygon fill="#bfbfbf" stroke="#000000" points="0,-6 0,-25 112,-25 112,-6 0,-6"/>
<text text-anchor="middle" x="56" y="-13" font-family="Helvetica,sans-Serif" font-size="10.00" fill="#000000">FloConfig::GetVSize</text>
</g>
<!-- Node244 -->
<g id="node2" class="node">
<title>Node244</title>
<g id="a_node2"><a xlink:href="classVideoIO.html#a50e4ccae99e278ed7d65d9db86f18c92" target="_top" xlink:title="VideoIO::video_event_loop">
<polygon fill="#ffffff" stroke="#000000" points="148,-6 148,-25 295,-25 295,-6 148,-6"/>
<text text-anchor="middle" x="221.5" y="-13" font-family="Helvetica,sans-Serif" font-size="10.00" fill="#000000">VideoIO::video_event_loop</text>
</a>
</g>
</g>
<!-- Node243&#45;&gt;Node244 -->
<g id="edge1" class="edge">
<title>Node243&#45;&gt;Node244</title>
<path fill="none" stroke="#191970" d="M122.2026,-15.5C130.66,-15.5 139.3578,-15.5 147.9229,-15.5"/>
<polygon fill="#191970" stroke="#191970" points="122.0308,-12.0001 112.0308,-15.5 122.0307,-19.0001 122.0308,-12.0001"/>
</g>
<!-- Node245 -->
<g id="node3" class="node">
<title>Node245</title>
<g id="a_node3"><a xlink:href="classVideoIO.html#adb25c81a2bfe792fd4f64e23a4e21176" target="_top" xlink:title="VideoIO::run_video\l_thread">
<polygon fill="#ffffff" stroke="#000000" points="331,-.5 331,-30.5 440,-30.5 440,-.5 331,-.5"/>
<text text-anchor="start" x="339" y="-18.5" font-family="Helvetica,sans-Serif" font-size="10.00" fill="#000000">VideoIO::run_video</text>
<text text-anchor="middle" x="385.5" y="-7.5" font-family="Helvetica,sans-Serif" font-size="10.00" fill="#000000">_thread</text>
</a>
</g>
</g>
<!-- Node244&#45;&gt;Node245 -->
<g id="edge2" class="edge">
<title>Node244&#45;&gt;Node245</title>
<path fill="none" stroke="#191970" d="M305.4193,-15.5C314.0101,-15.5 322.5729,-15.5 330.7301,-15.5"/>
<polygon fill="#191970" stroke="#191970" points="305.3441,-12.0001 295.344,-15.5 305.344,-19.0001 305.3441,-12.0001"/>
</g>
</g>
</svg>
