<?xml version="1.0" encoding="UTF-8" standalone="no"?>
<!DOCTYPE svg PUBLIC "-//W3C//DTD SVG 1.1//EN"
 "http://www.w3.org/Graphics/SVG/1.1/DTD/svg11.dtd">
<!-- Generated by graphviz version 2.40.1 (20161225.0304)
 -->
<!-- Title: Pulse::SetMIDIClock Pages: 1 -->
<svg width="660pt" height="85pt"
 viewBox="0.00 0.00 660.00 85.00" xmlns="http://www.w3.org/2000/svg" xmlns:xlink="http://www.w3.org/1999/xlink">
<g id="graph0" class="graph" transform="scale(1 1) rotate(0) translate(4 81)">
<title>Pulse::SetMIDIClock</title>
<polygon fill="#ffffff" stroke="transparent" points="-4,4 -4,-81 656,-81 656,4 -4,4"/>
<!-- Node141 -->
<g id="node1" class="node">
<title>Node141</title>
<polygon fill="#bfbfbf" stroke="#000000" points="0,-19.5 0,-38.5 113,-38.5 113,-19.5 0,-19.5"/>
<text text-anchor="middle" x="56.5" y="-26.5" font-family="Helvetica,sans-Serif" font-size="10.00" fill="#000000">Pulse::SetMIDIClock</text>
</g>
<!-- Node142 -->
<g id="node2" class="node">
<title>Node142</title>
<g id="a_node2"><a xlink:href="classLoopManager.html#ab79aef15f1e783de1ab6827378bea274" target="_top" xlink:title="LoopManager::SelectPulse">
<polygon fill="#ffffff" stroke="#000000" points="150,-38.5 150,-57.5 294,-57.5 294,-38.5 150,-38.5"/>
<text text-anchor="middle" x="222" y="-45.5" font-family="Helvetica,sans-Serif" font-size="10.00" fill="#000000">LoopManager::SelectPulse</text>
</a>
</g>
</g>
<!-- Node141&#45;&gt;Node142 -->
<g id="edge1" class="edge">
<title>Node141&#45;&gt;Node142</title>
<path fill="none" stroke="#191970" d="M123.4745,-36.6889C132.1228,-37.6818 141.0097,-38.702 149.7384,-39.7041"/>
<polygon fill="#191970" stroke="#191970" points="123.7897,-33.2022 113.4557,-35.5387 122.9912,-40.1565 123.7897,-33.2022"/>
</g>
<!-- Node145 -->
<g id="node5" class="node">
<title>Node145</title>
<g id="a_node5"><a xlink:href="classLoopManager.html#a705436ae811a121ed3285ab34b144bfe" target="_top" xlink:title="LoopManager::CreatePulse">
<polygon fill="#ffffff" stroke="#000000" points="149,-.5 149,-19.5 295,-19.5 295,-.5 149,-.5"/>
<text text-anchor="middle" x="222" y="-7.5" font-family="Helvetica,sans-Serif" font-size="10.00" fill="#000000">LoopManager::CreatePulse</text>
</a>
</g>
</g>
<!-- Node141&#45;&gt;Node145 -->
<g id="edge5" class="edge">
<title>Node141&#45;&gt;Node145</title>
<path fill="none" stroke="#191970" d="M123.5061,-21.3075C131.8556,-20.3489 140.4271,-19.3649 148.8635,-18.3963"/>
<polygon fill="#191970" stroke="#191970" points="122.9912,-17.8435 113.4557,-22.4613 123.7897,-24.7978 122.9912,-17.8435"/>
</g>
<!-- Node143 -->
<g id="node3" class="node">
<title>Node143</title>
<g id="a_node3"><a xlink:href="classLoopManager.html#a67c6f44d33880b35c875a8e6ea8babac" target="_top" xlink:title="LoopManager::TapPulse">
<polygon fill="#ffffff" stroke="#000000" points="331,-57.5 331,-76.5 462,-76.5 462,-57.5 331,-57.5"/>
<text text-anchor="middle" x="396.5" y="-64.5" font-family="Helvetica,sans-Serif" font-size="10.00" fill="#000000">LoopManager::TapPulse</text>
</a>
</g>
</g>
<!-- Node142&#45;&gt;Node143 -->
<g id="edge2" class="edge">
<title>Node142&#45;&gt;Node143</title>
<path fill="none" stroke="#191970" d="M304.2266,-56.953C313.1197,-57.9213 322.0826,-58.8972 330.7442,-59.8403"/>
<polygon fill="#191970" stroke="#191970" points="304.5556,-53.4683 294.2355,-55.8652 303.7978,-60.4271 304.5556,-53.4683"/>
</g>
<!-- Node144 -->
<g id="node4" class="node">
<title>Node144</title>
<g id="a_node4"><a xlink:href="classLoopManager.html#a4aada2d07b7ce0a67a8119ece4805966" target="_top" xlink:title="LoopManager::ReceiveEvent">
<polygon fill="#ffffff" stroke="#000000" points="498,-38.5 498,-57.5 652,-57.5 652,-38.5 498,-38.5"/>
<text text-anchor="middle" x="575" y="-45.5" font-family="Helvetica,sans-Serif" font-size="10.00" fill="#000000">LoopManager::ReceiveEvent</text>
</a>
</g>
</g>
<!-- Node142&#45;&gt;Node144 -->
<g id="edge4" class="edge">
<title>Node142&#45;&gt;Node144</title>
<path fill="none" stroke="#191970" d="M304.5901,-48C363.0026,-48 440.776,-48 497.9178,-48"/>
<polygon fill="#191970" stroke="#191970" points="304.2867,-44.5001 294.2866,-48 304.2866,-51.5001 304.2867,-44.5001"/>
</g>
<!-- Node143&#45;&gt;Node144 -->
<g id="edge3" class="edge">
<title>Node143&#45;&gt;Node144</title>
<path fill="none" stroke="#191970" d="M472.4152,-58.9194C480.8683,-58.0196 489.4846,-57.1025 497.9516,-56.2012"/>
<polygon fill="#191970" stroke="#191970" points="471.7797,-55.4672 462.2064,-60.006 472.5207,-62.4279 471.7797,-55.4672"/>
</g>
</g>
</svg>
