<?xml version="1.0" encoding="UTF-8" standalone="no"?>
<!DOCTYPE svg PUBLIC "-//W3C//DTD SVG 1.1//EN"
 "http://www.w3.org/Graphics/SVG/1.1/DTD/svg11.dtd">
<!-- Generated by graphviz version 2.40.1 (20161225.0304)
 -->
<!-- Title: Event::GetParam Pages: 1 -->
<svg width="879pt" height="174pt"
 viewBox="0.00 0.00 879.00 173.65" xmlns="http://www.w3.org/2000/svg" xmlns:xlink="http://www.w3.org/1999/xlink">
<g id="graph0" class="graph" transform="scale(1 1) rotate(0) translate(4 169.6493)">
<title>Event::GetParam</title>
<polygon fill="#ffffff" stroke="transparent" points="-4,4 -4,-169.6493 875,-169.6493 875,4 -4,4"/>
<!-- Node85 -->
<g id="node1" class="node">
<title>Node85</title>
<polygon fill="#bfbfbf" stroke="#000000" points="0,-70.1493 0,-89.1493 98,-89.1493 98,-70.1493 0,-70.1493"/>
<text text-anchor="middle" x="49" y="-77.1493" font-family="Helvetica,sans-Serif" font-size="10.00" fill="#000000">Event::GetParam</text>
</g>
<!-- Node86 -->
<g id="node2" class="node">
<title>Node86</title>
<g id="a_node2"><a xlink:href="classInputMatrix.html#a941629c2da3685c5379825be93413ed9" target="_top" xlink:title="InputMatrix::~InputMatrix">
<polygon fill="#ffffff" stroke="#000000" points="134,-146.1493 134,-165.1493 276,-165.1493 276,-146.1493 134,-146.1493"/>
<text text-anchor="middle" x="205" y="-153.1493" font-family="Helvetica,sans-Serif" font-size="10.00" fill="#000000">InputMatrix::~InputMatrix</text>
</a>
</g>
</g>
<!-- Node85&#45;&gt;Node86 -->
<g id="edge1" class="edge">
<title>Node85&#45;&gt;Node86</title>
<path fill="none" stroke="#191970" d="M71.1083,-95.0692C87.8313,-106.2565 111.6555,-121.1982 134,-131.6493 146.0218,-137.2723 159.7351,-142.2245 171.8836,-146.1478"/>
<polygon fill="#191970" stroke="#191970" points="72.8418,-92.0156 62.6028,-89.2927 68.9089,-97.8064 72.8418,-92.0156"/>
</g>
<!-- Node87 -->
<g id="node3" class="node">
<title>Node87</title>
<g id="a_node3"><a xlink:href="classInputMatrix.html#ab36ad421b65b64d6e64f228b84792b4c" target="_top" xlink:title="InputMatrix::CreateParameterSets">
<polygon fill="#ffffff" stroke="#000000" points="506,-70.1493 506,-89.1493 688,-89.1493 688,-70.1493 506,-70.1493"/>
<text text-anchor="middle" x="597" y="-77.1493" font-family="Helvetica,sans-Serif" font-size="10.00" fill="#000000">InputMatrix::CreateParameterSets</text>
</a>
</g>
</g>
<!-- Node85&#45;&gt;Node87 -->
<g id="edge2" class="edge">
<title>Node85&#45;&gt;Node87</title>
<path fill="none" stroke="#191970" d="M108.1864,-79.6493C203.8165,-79.6493 392.9742,-79.6493 505.8848,-79.6493"/>
<polygon fill="#191970" stroke="#191970" points="108.1136,-76.1494 98.1136,-79.6493 108.1136,-83.1494 108.1136,-76.1494"/>
</g>
<!-- Node88 -->
<g id="node4" class="node">
<title>Node88</title>
<g id="a_node4"><a xlink:href="classInputMatrix.html#a792ede8dc637e3d8e6c4aa8141596d18" target="_top" xlink:title="InputMatrix::CreateBinding">
<polygon fill="#ffffff" stroke="#000000" points="724,-70.1493 724,-89.1493 871,-89.1493 871,-70.1493 724,-70.1493"/>
<text text-anchor="middle" x="797.5" y="-77.1493" font-family="Helvetica,sans-Serif" font-size="10.00" fill="#000000">InputMatrix::CreateBinding</text>
</a>
</g>
</g>
<!-- Node85&#45;&gt;Node88 -->
<g id="edge6" class="edge">
<title>Node85&#45;&gt;Node88</title>
<path fill="none" stroke="#191970" d="M108.2728,-90.5755C116.8778,-91.8225 125.6481,-92.9096 134,-93.6493 379.2721,-115.3733 442.6757,-119.7753 688,-98.6493 709.5301,-96.7953 733.1804,-92.9268 752.9746,-89.1614"/>
<polygon fill="#191970" stroke="#191970" points="108.6962,-87.0997 98.2823,-89.0496 107.6392,-94.0194 108.6962,-87.0997"/>
</g>
<!-- Node89 -->
<g id="node5" class="node">
<title>Node89</title>
<g id="a_node5"><a xlink:href="classInputMatrix.html#a767b7c5cd149e18a51105922aa9e8abb" target="_top" xlink:title="InputMatrix::CreateConditions">
<polygon fill="#ffffff" stroke="#000000" points="516,-32.1493 516,-51.1493 678,-51.1493 678,-32.1493 516,-32.1493"/>
<text text-anchor="middle" x="597" y="-39.1493" font-family="Helvetica,sans-Serif" font-size="10.00" fill="#000000">InputMatrix::CreateConditions</text>
</a>
</g>
</g>
<!-- Node85&#45;&gt;Node89 -->
<g id="edge4" class="edge">
<title>Node85&#45;&gt;Node89</title>
<path fill="none" stroke="#191970" d="M66.4879,-63.312C82.6177,-49.446 107.9446,-30.5768 134,-22.6493 286.5851,23.7755 480.5111,-13.0984 560.2402,-32.0974"/>
<polygon fill="#191970" stroke="#191970" points="64.0865,-60.7637 58.9363,-70.0225 68.7363,-65.9963 64.0865,-60.7637"/>
</g>
<!-- Node90 -->
<g id="node6" class="node">
<title>Node90</title>
<g id="a_node6"><a xlink:href="classInputMatrix.html#a3fef785cfe7cbdd8c5cef1b3988a5928" target="_top" xlink:title="InputMatrix::ParseToken">
<polygon fill="#ffffff" stroke="#000000" points="138.5,-32.1493 138.5,-51.1493 271.5,-51.1493 271.5,-32.1493 138.5,-32.1493"/>
<text text-anchor="middle" x="205" y="-39.1493" font-family="Helvetica,sans-Serif" font-size="10.00" fill="#000000">InputMatrix::ParseToken</text>
</a>
</g>
</g>
<!-- Node85&#45;&gt;Node90 -->
<g id="edge7" class="edge">
<title>Node85&#45;&gt;Node90</title>
<path fill="none" stroke="#191970" d="M98.1317,-67.6814C119.9927,-62.3562 145.3761,-56.1731 165.9177,-51.1694"/>
<polygon fill="#191970" stroke="#191970" points="97.2529,-64.293 88.3654,-70.0603 98.9097,-71.0941 97.2529,-64.293"/>
</g>
<!-- Node87&#45;&gt;Node88 -->
<g id="edge3" class="edge">
<title>Node87&#45;&gt;Node88</title>
<path fill="none" stroke="#191970" d="M698.3074,-79.6493C706.9636,-79.6493 715.6093,-79.6493 723.9864,-79.6493"/>
<polygon fill="#191970" stroke="#191970" points="698.1564,-76.1494 688.1564,-79.6493 698.1564,-83.1494 698.1564,-76.1494"/>
</g>
<!-- Node89&#45;&gt;Node88 -->
<g id="edge5" class="edge">
<title>Node89&#45;&gt;Node88</title>
<path fill="none" stroke="#191970" d="M657.2456,-53.0675C685.9336,-58.5046 719.8498,-64.9326 747.1435,-70.1055"/>
<polygon fill="#191970" stroke="#191970" points="657.8127,-49.6127 647.3358,-51.1893 656.5091,-56.4903 657.8127,-49.6127"/>
</g>
<!-- Node91 -->
<g id="node7" class="node">
<title>Node91</title>
<g id="a_node7"><a xlink:href="classInputMatrix.html#a0f597dbf1d6c784c851626005fb2ee72" target="_top" xlink:title="InputMatrix::ParseExpression">
<polygon fill="#ffffff" stroke="#000000" points="312,-32.1493 312,-51.1493 470,-51.1493 470,-32.1493 312,-32.1493"/>
<text text-anchor="middle" x="391" y="-39.1493" font-family="Helvetica,sans-Serif" font-size="10.00" fill="#000000">InputMatrix::ParseExpression</text>
</a>
</g>
</g>
<!-- Node90&#45;&gt;Node91 -->
<g id="edge8" class="edge">
<title>Node90&#45;&gt;Node91</title>
<path fill="none" stroke="#191970" d="M281.8333,-41.6493C291.7357,-41.6493 301.8904,-41.6493 311.8295,-41.6493"/>
<polygon fill="#191970" stroke="#191970" points="281.6249,-38.1494 271.6249,-41.6493 281.6249,-45.1494 281.6249,-38.1494"/>
</g>
<!-- Node91&#45;&gt;Node87 -->
<g id="edge9" class="edge">
<title>Node91&#45;&gt;Node87</title>
<path fill="none" stroke="#191970" d="M452.8982,-53.0675C482.3731,-58.5046 517.2197,-64.9326 545.2621,-70.1055"/>
<polygon fill="#191970" stroke="#191970" points="453.1856,-49.5615 442.7166,-51.1893 451.9157,-56.4454 453.1856,-49.5615"/>
</g>
<!-- Node91&#45;&gt;Node89 -->
<g id="edge10" class="edge">
<title>Node91&#45;&gt;Node89</title>
<path fill="none" stroke="#191970" d="M480.3298,-41.6493C492.1102,-41.6493 504.1333,-41.6493 515.7682,-41.6493"/>
<polygon fill="#191970" stroke="#191970" points="480.0559,-38.1494 470.0558,-41.6493 480.0558,-45.1494 480.0559,-38.1494"/>
</g>
</g>
</svg>
