<?xml version="1.0" encoding="UTF-8" standalone="no"?>
<!DOCTYPE svg PUBLIC "-//W3C//DTD SVG 1.1//EN"
 "http://www.w3.org/Graphics/SVG/1.1/DTD/svg11.dtd">
<!-- Generated by graphviz version 2.40.1 (20161225.0304)
 -->
<!-- Title: FloConfig::ConfigureDisplay Pages: 1 -->
<svg width="786pt" height="104pt"
 viewBox="0.00 0.00 786.00 104.00" xmlns="http://www.w3.org/2000/svg" xmlns:xlink="http://www.w3.org/1999/xlink">
<g id="graph0" class="graph" transform="scale(1 1) rotate(0) translate(4 100)">
<title>FloConfig::ConfigureDisplay</title>
<polygon fill="#ffffff" stroke="transparent" points="-4,4 -4,-100 782,-100 782,4 -4,4"/>
<!-- Node21 -->
<g id="node1" class="node">
<title>Node21</title>
<polygon fill="#bfbfbf" stroke="#000000" points="0,-38.5 0,-57.5 151,-57.5 151,-38.5 0,-38.5"/>
<text text-anchor="middle" x="75.5" y="-45.5" font-family="Helvetica,sans-Serif" font-size="10.00" fill="#000000">FloConfig::ConfigureDisplay</text>
</g>
<!-- Node22 -->
<g id="node2" class="node">
<title>Node22</title>
<g id="a_node2"><a xlink:href="classParsedExpression.html#a8b8c5462181f05c11f51df722809ac7e" target="_top" xlink:title="ParsedExpression::Evaluate">
<polygon fill="#ffffff" stroke="#000000" points="193.5,-76.5 193.5,-95.5 344.5,-95.5 344.5,-76.5 193.5,-76.5"/>
<text text-anchor="middle" x="269" y="-83.5" font-family="Helvetica,sans-Serif" font-size="10.00" fill="#000000">ParsedExpression::Evaluate</text>
</a>
</g>
</g>
<!-- Node21&#45;&gt;Node22 -->
<g id="edge1" class="edge">
<title>Node21&#45;&gt;Node22</title>
<path fill="none" stroke="#191970" d="M124.3282,-57.589C150.5528,-62.739 183.0617,-69.1232 210.6162,-74.5344"/>
<polygon fill="#191970" stroke="#191970" points="210.0358,-77.9873 220.5229,-76.4799 211.3848,-71.1185 210.0358,-77.9873"/>
</g>
<!-- Node26 -->
<g id="node6" class="node">
<title>Node26</title>
<g id="a_node6"><a xlink:href="classBrowser.html#ac1d344a3dfa54d17a5f5353a855b28b4" target="_top" xlink:title="Browser::GetTypeName">
<polygon fill="#ffffff" stroke="#000000" points="203.5,-38.5 203.5,-57.5 334.5,-57.5 334.5,-38.5 203.5,-38.5"/>
<text text-anchor="middle" x="269" y="-45.5" font-family="Helvetica,sans-Serif" font-size="10.00" fill="#000000">Browser::GetTypeName</text>
</a>
</g>
</g>
<!-- Node21&#45;&gt;Node26 -->
<g id="edge5" class="edge">
<title>Node21&#45;&gt;Node26</title>
<path fill="none" stroke="#191970" d="M151.1435,-48C164.9117,-48 179.2793,-48 193.0562,-48"/>
<polygon fill="#191970" stroke="#191970" points="193.4566,-51.5001 203.4565,-48 193.4565,-44.5001 193.4566,-51.5001"/>
</g>
<!-- Node27 -->
<g id="node7" class="node">
<title>Node27</title>
<g id="a_node7"><a xlink:href="classFloDisplay.html#a5860339e2de95b54b15fab648430f68a" target="_top" xlink:title="FloDisplay::GetFloDisplayType">
<polygon fill="#ffffff" stroke="#000000" points="187,-.5 187,-19.5 351,-19.5 351,-.5 187,-.5"/>
<text text-anchor="middle" x="269" y="-7.5" font-family="Helvetica,sans-Serif" font-size="10.00" fill="#000000">FloDisplay::GetFloDisplayType</text>
</a>
</g>
</g>
<!-- Node21&#45;&gt;Node27 -->
<g id="edge6" class="edge">
<title>Node21&#45;&gt;Node27</title>
<path fill="none" stroke="#191970" d="M124.3282,-38.411C150.5528,-33.261 183.0617,-26.8768 210.6162,-21.4656"/>
<polygon fill="#191970" stroke="#191970" points="211.3848,-24.8815 220.5229,-19.5201 210.0358,-18.0127 211.3848,-24.8815"/>
</g>
<!-- Node23 -->
<g id="node3" class="node">
<title>Node23</title>
<g id="a_node3"><a xlink:href="classCfgToken.html#a5e30ffe3bc7cf2483e390cf023eaa6c0" target="_top" xlink:title="CfgToken::Evaluate">
<polygon fill="#ffffff" stroke="#000000" points="387,-76.5 387,-95.5 497,-95.5 497,-76.5 387,-76.5"/>
<text text-anchor="middle" x="442" y="-83.5" font-family="Helvetica,sans-Serif" font-size="10.00" fill="#000000">CfgToken::Evaluate</text>
</a>
</g>
</g>
<!-- Node22&#45;&gt;Node23 -->
<g id="edge2" class="edge">
<title>Node22&#45;&gt;Node23</title>
<path fill="none" stroke="#191970" d="M344.6286,-86C355.2664,-86 366.1271,-86 376.5532,-86"/>
<polygon fill="#191970" stroke="#191970" points="376.8103,-89.5001 386.8102,-86 376.8102,-82.5001 376.8103,-89.5001"/>
</g>
<!-- Node24 -->
<g id="node4" class="node">
<title>Node24</title>
<g id="a_node4"><a xlink:href="classUserVariable.html#a7cbb83559d78173a8b7810c3ecc3842f" target="_top" xlink:title="UserVariable::SetFrom">
<polygon fill="#ffffff" stroke="#000000" points="533,-76.5 533,-95.5 658,-95.5 658,-76.5 533,-76.5"/>
<text text-anchor="middle" x="595.5" y="-83.5" font-family="Helvetica,sans-Serif" font-size="10.00" fill="#000000">UserVariable::SetFrom</text>
</a>
</g>
</g>
<!-- Node23&#45;&gt;Node24 -->
<g id="edge3" class="edge">
<title>Node23&#45;&gt;Node24</title>
<path fill="none" stroke="#191970" d="M497.417,-86C505.598,-86 514.1303,-86 522.5998,-86"/>
<polygon fill="#191970" stroke="#191970" points="522.872,-89.5001 532.872,-86 522.8719,-82.5001 522.872,-89.5001"/>
</g>
<!-- Node25 -->
<g id="node5" class="node">
<title>Node25</title>
<g id="a_node5"><a xlink:href="classRange.html#a378dde258315602c6929b84cb10f8f8d" target="_top" xlink:title="Range::Range">
<polygon fill="#ffffff" stroke="#000000" points="694,-76.5 694,-95.5 778,-95.5 778,-76.5 694,-76.5"/>
<text text-anchor="middle" x="736" y="-83.5" font-family="Helvetica,sans-Serif" font-size="10.00" fill="#000000">Range::Range</text>
</a>
</g>
</g>
<!-- Node24&#45;&gt;Node25 -->
<g id="edge4" class="edge">
<title>Node24&#45;&gt;Node25</title>
<path fill="none" stroke="#191970" d="M658.353,-86C666.7782,-86 675.347,-86 683.5672,-86"/>
<polygon fill="#191970" stroke="#191970" points="683.7561,-89.5001 693.7561,-86 683.756,-82.5001 683.7561,-89.5001"/>
</g>
</g>
</svg>
