<?xml version="1.0" encoding="UTF-8" standalone="no"?>
<!DOCTYPE svg PUBLIC "-//W3C//DTD SVG 1.1//EN"
 "http://www.w3.org/Graphics/SVG/1.1/DTD/svg11.dtd">
<!-- Generated by graphviz version 2.40.1 (20161225.0304)
 -->
<!-- Title: PatchBrowser::SetMIDIForPatch Pages: 1 -->
<svg width="735pt" height="332pt"
 viewBox="0.00 0.00 735.00 332.00" xmlns="http://www.w3.org/2000/svg" xmlns:xlink="http://www.w3.org/1999/xlink">
<g id="graph0" class="graph" transform="scale(1 1) rotate(0) translate(4 328)">
<title>PatchBrowser::SetMIDIForPatch</title>
<polygon fill="#ffffff" stroke="transparent" points="-4,4 -4,-328 731,-328 731,4 -4,4"/>
<!-- Node26 -->
<g id="node1" class="node">
<title>Node26</title>
<polygon fill="#bfbfbf" stroke="#000000" points="0,-185 0,-215 141,-215 141,-185 0,-185"/>
<text text-anchor="start" x="8" y="-203" font-family="Helvetica,sans-Serif" font-size="10.00" fill="#000000">PatchBrowser::SetMIDIFor</text>
<text text-anchor="middle" x="70.5" y="-192" font-family="Helvetica,sans-Serif" font-size="10.00" fill="#000000">Patch</text>
</g>
<!-- Node27 -->
<g id="node2" class="node">
<title>Node27</title>
<g id="a_node2"><a xlink:href="classFweelin.html#aee46aec225c2ee5c88854dc9943e7d62" target="_top" xlink:title="Fweelin::getMIDI">
<polygon fill="#ffffff" stroke="#000000" points="194,-209.5 194,-228.5 292,-228.5 292,-209.5 194,-209.5"/>
<text text-anchor="middle" x="243" y="-216.5" font-family="Helvetica,sans-Serif" font-size="10.00" fill="#000000">Fweelin::getMIDI</text>
</a>
</g>
</g>
<!-- Node26&#45;&gt;Node27 -->
<g id="edge1" class="edge">
<title>Node26&#45;&gt;Node27</title>
<path fill="none" stroke="#191970" d="M141.1601,-207.7828C155.2474,-209.3345 169.9087,-210.9494 183.5726,-212.4544"/>
<polygon fill="#191970" stroke="#191970" points="183.478,-215.965 193.8011,-213.581 184.2444,-209.0071 183.478,-215.965"/>
</g>
<!-- Node28 -->
<g id="node3" class="node">
<title>Node28</title>
<g id="a_node3"><a xlink:href="classMidiIO.html#a1753eb05e14eb572a5f52b9616480d55" target="_top" xlink:title="MidiIO::SetMIDIForPatch">
<polygon fill="#ffffff" stroke="#000000" points="177,-171.5 177,-190.5 309,-190.5 309,-171.5 177,-171.5"/>
<text text-anchor="middle" x="243" y="-178.5" font-family="Helvetica,sans-Serif" font-size="10.00" fill="#000000">MidiIO::SetMIDIForPatch</text>
</a>
</g>
</g>
<!-- Node26&#45;&gt;Node28 -->
<g id="edge2" class="edge">
<title>Node26&#45;&gt;Node28</title>
<path fill="none" stroke="#191970" d="M141.1601,-192.2172C149.6532,-191.2817 158.3549,-190.3232 166.9209,-189.3797"/>
<polygon fill="#191970" stroke="#191970" points="167.3371,-192.8551 176.8937,-188.2813 166.5706,-185.8972 167.3371,-192.8551"/>
</g>
<!-- Node29 -->
<g id="node4" class="node">
<title>Node29</title>
<g id="a_node4"><a xlink:href="classPatchItem.html#a193dba9833309437fed1241957cd20dd" target="_top" xlink:title="PatchItem::IsCombi">
<polygon fill="#ffffff" stroke="#000000" points="385,-304.5 385,-323.5 496,-323.5 496,-304.5 385,-304.5"/>
<text text-anchor="middle" x="440.5" y="-311.5" font-family="Helvetica,sans-Serif" font-size="10.00" fill="#000000">PatchItem::IsCombi</text>
</a>
</g>
</g>
<!-- Node28&#45;&gt;Node29 -->
<g id="edge3" class="edge">
<title>Node28&#45;&gt;Node29</title>
<path fill="none" stroke="#191970" d="M294.5726,-190.5665C299.8395,-193.0304 304.7906,-196.1221 309,-200 342.2081,-230.5931 310.538,-265.8267 345,-295 353.4955,-302.1917 363.9384,-306.9409 374.7651,-310.0282"/>
<polygon fill="#191970" stroke="#191970" points="374.2314,-313.4991 384.771,-312.4187 375.858,-306.6907 374.2314,-313.4991"/>
</g>
<!-- Node30 -->
<g id="node5" class="node">
<title>Node30</title>
<g id="a_node5"><a xlink:href="classPatchItem.html#a80e0a72bb7db8f68cd4f7bc32bb36361" target="_top" xlink:title="PatchItem::GetZone">
<polygon fill="#ffffff" stroke="#000000" points="384,-266.5 384,-285.5 497,-285.5 497,-266.5 384,-266.5"/>
<text text-anchor="middle" x="440.5" y="-273.5" font-family="Helvetica,sans-Serif" font-size="10.00" fill="#000000">PatchItem::GetZone</text>
</a>
</g>
</g>
<!-- Node28&#45;&gt;Node30 -->
<g id="edge4" class="edge">
<title>Node28&#45;&gt;Node30</title>
<path fill="none" stroke="#191970" d="M291.8104,-190.6007C297.9368,-193.0547 303.8505,-196.1347 309,-200 332.9634,-217.9871 320.3033,-240.0338 345,-257 353.6585,-262.9482 363.7404,-267.1282 374.0447,-270.0479"/>
<polygon fill="#191970" stroke="#191970" points="373.407,-273.4952 383.9529,-272.4777 375.0743,-266.6966 373.407,-273.4952"/>
</g>
<!-- Node31 -->
<g id="node6" class="node">
<title>Node31</title>
<g id="a_node6"><a xlink:href="classMidiIO.html#a768bb4ca3d6df0d4d7b2dfcc95ce8417" target="_top" xlink:title="MidiIO::getBP">
<polygon fill="#ffffff" stroke="#000000" points="399.5,-228.5 399.5,-247.5 481.5,-247.5 481.5,-228.5 399.5,-228.5"/>
<text text-anchor="middle" x="440.5" y="-235.5" font-family="Helvetica,sans-Serif" font-size="10.00" fill="#000000">MidiIO::getBP</text>
</a>
</g>
</g>
<!-- Node28&#45;&gt;Node31 -->
<g id="edge5" class="edge">
<title>Node28&#45;&gt;Node31</title>
<path fill="none" stroke="#191970" d="M281.1462,-190.539C290.3887,-193.2435 300.152,-196.4356 309,-200 325.7812,-206.7603 327.9501,-212.9495 345,-219 359.1093,-224.0069 374.8858,-227.8235 389.4874,-230.6741"/>
<polygon fill="#191970" stroke="#191970" points="388.9049,-234.1256 399.3736,-232.496 390.1736,-227.2415 388.9049,-234.1256"/>
</g>
<!-- Node32 -->
<g id="node7" class="node">
<title>Node32</title>
<g id="a_node7"><a xlink:href="classFweelin.html#acb51892233f08f4b0b9f2e7d7a625448" target="_top" xlink:title="Fweelin::getAUDIO">
<polygon fill="#ffffff" stroke="#000000" points="386.5,-190.5 386.5,-209.5 494.5,-209.5 494.5,-190.5 386.5,-190.5"/>
<text text-anchor="middle" x="440.5" y="-197.5" font-family="Helvetica,sans-Serif" font-size="10.00" fill="#000000">Fweelin::getAUDIO</text>
</a>
</g>
</g>
<!-- Node28&#45;&gt;Node32 -->
<g id="edge6" class="edge">
<title>Node28&#45;&gt;Node32</title>
<path fill="none" stroke="#191970" d="M309.0392,-187.3531C330.7239,-189.4393 354.781,-191.7536 376.3252,-193.8262"/>
<polygon fill="#191970" stroke="#191970" points="376.0635,-197.3171 386.3527,-194.7909 376.7338,-190.3493 376.0635,-197.3171"/>
</g>
<!-- Node33 -->
<g id="node8" class="node">
<title>Node33</title>
<g id="a_node8"><a xlink:href="classAudioIO.html#ab175bb73ae9aadb84940dace46c71fd8" target="_top" xlink:title="AudioIO::get_srate">
<polygon fill="#ffffff" stroke="#000000" points="387,-152.5 387,-171.5 494,-171.5 494,-152.5 387,-152.5"/>
<text text-anchor="middle" x="440.5" y="-159.5" font-family="Helvetica,sans-Serif" font-size="10.00" fill="#000000">AudioIO::get_srate</text>
</a>
</g>
</g>
<!-- Node28&#45;&gt;Node33 -->
<g id="edge7" class="edge">
<title>Node28&#45;&gt;Node33</title>
<path fill="none" stroke="#191970" d="M309.0392,-174.6469C330.9175,-172.5421 355.2108,-170.205 376.9017,-168.1183"/>
<polygon fill="#191970" stroke="#191970" points="377.3728,-171.5893 386.9916,-167.1476 376.7024,-164.6214 377.3728,-171.5893"/>
</g>
<!-- Node34 -->
<g id="node9" class="node">
<title>Node34</title>
<g id="a_node9"><a xlink:href="classEvent.html#aa67af0ae99b897e4f0ce42068c4e4c00" target="_top" xlink:title="Event::GetEventByType">
<polygon fill="#ffffff" stroke="#000000" points="375,-114.5 375,-133.5 506,-133.5 506,-114.5 375,-114.5"/>
<text text-anchor="middle" x="440.5" y="-121.5" font-family="Helvetica,sans-Serif" font-size="10.00" fill="#000000">Event::GetEventByType</text>
</a>
</g>
</g>
<!-- Node28&#45;&gt;Node34 -->
<g id="edge8" class="edge">
<title>Node28&#45;&gt;Node34</title>
<path fill="none" stroke="#191970" d="M265.3411,-171.4931C285.7788,-163.0822 317.0036,-150.9446 345,-143 354.5747,-140.283 364.7964,-137.8107 374.8613,-135.6144"/>
<polygon fill="#191970" stroke="#191970" points="375.7804,-138.9977 384.844,-133.5112 374.3373,-132.148 375.7804,-138.9977"/>
</g>
<!-- Node35 -->
<g id="node10" class="node">
<title>Node35</title>
<g id="a_node10"><a xlink:href="classFweelin.html#a21e51d7b639faaecc415624ab6c16a71" target="_top" xlink:title="Fweelin::getEMG">
<polygon fill="#ffffff" stroke="#000000" points="391.5,-76.5 391.5,-95.5 489.5,-95.5 489.5,-76.5 391.5,-76.5"/>
<text text-anchor="middle" x="440.5" y="-83.5" font-family="Helvetica,sans-Serif" font-size="10.00" fill="#000000">Fweelin::getEMG</text>
</a>
</g>
</g>
<!-- Node28&#45;&gt;Node35 -->
<g id="edge9" class="edge">
<title>Node28&#45;&gt;Node35</title>
<path fill="none" stroke="#191970" d="M252.7371,-171.3321C269.8372,-154.948 307.0639,-121.8672 345,-105 356.2231,-100.01 368.7681,-96.322 380.9808,-93.5989"/>
<polygon fill="#191970" stroke="#191970" points="382.0256,-96.958 391.125,-91.531 380.6273,-90.099 382.0256,-96.958"/>
</g>
<!-- Node36 -->
<g id="node11" class="node">
<title>Node36</title>
<g id="a_node11"><a xlink:href="classEventManager.html#a4a73f2e7ff1724f28427f7c0d5725c8e" target="_top" xlink:title="EventManager::BroadcastEventNow">
<polygon fill="#ffffff" stroke="#000000" points="345,-38.5 345,-57.5 536,-57.5 536,-38.5 345,-38.5"/>
<text text-anchor="middle" x="440.5" y="-45.5" font-family="Helvetica,sans-Serif" font-size="10.00" fill="#000000">EventManager::BroadcastEventNow</text>
</a>
</g>
</g>
<!-- Node28&#45;&gt;Node36 -->
<g id="edge10" class="edge">
<title>Node28&#45;&gt;Node36</title>
<path fill="none" stroke="#191970" d="M248.4815,-171.4724C261.8372,-149.1973 298.4089,-93.5924 345,-67 348.9044,-64.7715 353.0282,-62.801 357.2837,-61.0589"/>
<polygon fill="#191970" stroke="#191970" points="358.5796,-64.3119 366.776,-57.5985 356.182,-57.7352 358.5796,-64.3119"/>
</g>
<!-- Node37 -->
<g id="node12" class="node">
<title>Node37</title>
<g id="a_node12"><a xlink:href="classEvent.html#ac4c4170579544b41dff38ca1b8110e30" target="_top" xlink:title="Event::GetType">
<polygon fill="#ffffff" stroke="#000000" points="604.5,-76.5 604.5,-95.5 694.5,-95.5 694.5,-76.5 604.5,-76.5"/>
<text text-anchor="middle" x="649.5" y="-83.5" font-family="Helvetica,sans-Serif" font-size="10.00" fill="#000000">Event::GetType</text>
</a>
</g>
</g>
<!-- Node36&#45;&gt;Node37 -->
<g id="edge11" class="edge">
<title>Node36&#45;&gt;Node37</title>
<path fill="none" stroke="#191970" d="M492.9698,-57.54C523.9568,-63.174 563.1385,-70.2979 594.5488,-76.0089"/>
<polygon fill="#191970" stroke="#191970" points="593.9888,-79.4644 604.4536,-77.8097 595.241,-72.5773 593.9888,-79.4644"/>
</g>
<!-- Node38 -->
<g id="node13" class="node">
<title>Node38</title>
<g id="a_node13"><a xlink:href="classEventListener.html#a831820a9229e852bd7e2fad686b725b2" target="_top" xlink:title="EventListener::ReceiveEvent">
<polygon fill="#ffffff" stroke="#000000" points="572,-38.5 572,-57.5 727,-57.5 727,-38.5 572,-38.5"/>
<text text-anchor="middle" x="649.5" y="-45.5" font-family="Helvetica,sans-Serif" font-size="10.00" fill="#000000">EventListener::ReceiveEvent</text>
</a>
</g>
</g>
<!-- Node36&#45;&gt;Node38 -->
<g id="edge12" class="edge">
<title>Node36&#45;&gt;Node38</title>
<path fill="none" stroke="#191970" d="M536.1311,-48C544.6132,-48 553.1737,-48 561.5871,-48"/>
<polygon fill="#191970" stroke="#191970" points="561.7614,-51.5001 571.7614,-48 561.7614,-44.5001 561.7614,-51.5001"/>
</g>
<!-- Node39 -->
<g id="node14" class="node">
<title>Node39</title>
<g id="a_node14"><a xlink:href="classPreallocated.html#aaf2139a79ca16de70acd9bc4564171b7" target="_top" xlink:title="Preallocated::RTDelete">
<polygon fill="#ffffff" stroke="#000000" points="585.5,-.5 585.5,-19.5 713.5,-19.5 713.5,-.5 585.5,-.5"/>
<text text-anchor="middle" x="649.5" y="-7.5" font-family="Helvetica,sans-Serif" font-size="10.00" fill="#000000">Preallocated::RTDelete</text>
</a>
</g>
</g>
<!-- Node36&#45;&gt;Node39 -->
<g id="edge13" class="edge">
<title>Node36&#45;&gt;Node39</title>
<path fill="none" stroke="#191970" d="M492.9698,-38.46C521.5413,-33.2652 557.0796,-26.8037 587.0691,-21.3511"/>
<polygon fill="#191970" stroke="#191970" points="587.7961,-24.7764 597.0087,-19.5439 586.5438,-17.8893 587.7961,-24.7764"/>
</g>
</g>
</svg>
