<?xml version="1.0" encoding="UTF-8" standalone="no"?>
<!DOCTYPE svg PUBLIC "-//W3C//DTD SVG 1.1//EN"
 "http://www.w3.org/Graphics/SVG/1.1/DTD/svg11.dtd">
<!-- Generated by graphviz version 2.40.1 (20161225.0304)
 -->
<!-- Title: MidiIO::run_midi_thread Pages: 1 -->
<svg width="768pt" height="610pt"
 viewBox="0.00 0.00 768.00 609.50" xmlns="http://www.w3.org/2000/svg" xmlns:xlink="http://www.w3.org/1999/xlink">
<g id="graph0" class="graph" transform="scale(1 1) rotate(0) translate(4 605.5)">
<title>MidiIO::run_midi_thread</title>
<polygon fill="#ffffff" stroke="transparent" points="-4,4 -4,-605.5 764,-605.5 764,4 -4,4"/>
<!-- Node299 -->
<g id="node1" class="node">
<title>Node299</title>
<polygon fill="#bfbfbf" stroke="#000000" points="0,-270.5 0,-289.5 133,-289.5 133,-270.5 0,-270.5"/>
<text text-anchor="middle" x="66.5" y="-277.5" font-family="Helvetica,sans-Serif" font-size="10.00" fill="#000000">MidiIO::run_midi_thread</text>
</g>
<!-- Node300 -->
<g id="node2" class="node">
<title>Node300</title>
<g id="a_node2"><a xlink:href="classFweelin.html#a681d7ca8d0789199af135f22c26a5409" target="_top" xlink:title="Fweelin::getCFG">
<polygon fill="#ffffff" stroke="#000000" points="426,-380.5 426,-399.5 521,-399.5 521,-380.5 426,-380.5"/>
<text text-anchor="middle" x="473.5" y="-387.5" font-family="Helvetica,sans-Serif" font-size="10.00" fill="#000000">Fweelin::getCFG</text>
</a>
</g>
</g>
<!-- Node299&#45;&gt;Node300 -->
<g id="edge1" class="edge">
<title>Node299&#45;&gt;Node300</title>
<path fill="none" stroke="#191970" d="M115.0717,-289.5338C191.4163,-304.6174 331.906,-332.8125 342,-338 361.3049,-347.9212 358.6403,-361.1862 378,-371 389.5407,-376.8502 402.7172,-380.9006 415.5197,-383.7045"/>
<polygon fill="#191970" stroke="#191970" points="415.1816,-387.2048 425.6685,-385.6964 416.5299,-380.3359 415.1816,-387.2048"/>
</g>
<!-- Node301 -->
<g id="node3" class="node">
<title>Node301</title>
<g id="a_node3"><a xlink:href="classFweelin.html#acb51892233f08f4b0b9f2e7d7a625448" target="_top" xlink:title="Fweelin::getAUDIO">
<polygon fill="#ffffff" stroke="#000000" points="201.5,-76.5 201.5,-95.5 309.5,-95.5 309.5,-76.5 201.5,-76.5"/>
<text text-anchor="middle" x="255.5" y="-83.5" font-family="Helvetica,sans-Serif" font-size="10.00" fill="#000000">Fweelin::getAUDIO</text>
</a>
</g>
</g>
<!-- Node299&#45;&gt;Node301 -->
<g id="edge2" class="edge">
<title>Node299&#45;&gt;Node301</title>
<path fill="none" stroke="#191970" d="M69.1922,-270.1578C77.9517,-240.101 108.6227,-148.8911 169,-105 175.7935,-100.0615 183.6262,-96.3655 191.7453,-93.6065"/>
<polygon fill="#191970" stroke="#191970" points="192.7556,-96.9577 201.3629,-90.7799 190.7817,-90.2418 192.7556,-96.9577"/>
</g>
<!-- Node302 -->
<g id="node4" class="node">
<title>Node302</title>
<g id="a_node4"><a xlink:href="classAudioIO.html#ab175bb73ae9aadb84940dace46c71fd8" target="_top" xlink:title="AudioIO::get_srate">
<polygon fill="#ffffff" stroke="#000000" points="202,-38.5 202,-57.5 309,-57.5 309,-38.5 202,-38.5"/>
<text text-anchor="middle" x="255.5" y="-45.5" font-family="Helvetica,sans-Serif" font-size="10.00" fill="#000000">AudioIO::get_srate</text>
</a>
</g>
</g>
<!-- Node299&#45;&gt;Node302 -->
<g id="edge3" class="edge">
<title>Node299&#45;&gt;Node302</title>
<path fill="none" stroke="#191970" d="M68.1334,-270.0523C74.3035,-235.8232 99.4791,-121.9936 169,-67 175.7604,-61.6523 183.7082,-57.7356 191.9992,-54.8796"/>
<polygon fill="#191970" stroke="#191970" points="193.2293,-58.1663 201.8391,-51.992 191.2581,-51.4495 193.2293,-58.1663"/>
</g>
<!-- Node303 -->
<g id="node5" class="node">
<title>Node303</title>
<g id="a_node5"><a xlink:href="classMidiIO.html#a560704e140df57157a004567766f5f2b" target="_top" xlink:title="MidiIO::open_midi">
<polygon fill="#ffffff" stroke="#000000" points="203.5,-.5 203.5,-19.5 307.5,-19.5 307.5,-.5 203.5,-.5"/>
<text text-anchor="middle" x="255.5" y="-7.5" font-family="Helvetica,sans-Serif" font-size="10.00" fill="#000000">MidiIO::open_midi</text>
</a>
</g>
</g>
<!-- Node299&#45;&gt;Node303 -->
<g id="edge4" class="edge">
<title>Node299&#45;&gt;Node303</title>
<path fill="none" stroke="#191970" d="M67.3107,-270.4613C71.0191,-233.1248 89.7751,-95.6841 169,-29 176.0836,-23.0377 184.6209,-18.8291 193.5362,-15.879"/>
<polygon fill="#191970" stroke="#191970" points="194.6185,-19.2108 203.3075,-13.1485 192.7345,-12.469 194.6185,-19.2108"/>
</g>
<!-- Node304 -->
<g id="node6" class="node">
<title>Node304</title>
<g id="a_node6"><a xlink:href="classFloConfig.html#af6f1418b7595d065206abda285268305" target="_top" xlink:title="FloConfig::GetNumMIDIOuts">
<polygon fill="#ffffff" stroke="#000000" points="397.5,-152.5 397.5,-171.5 549.5,-171.5 549.5,-152.5 397.5,-152.5"/>
<text text-anchor="middle" x="473.5" y="-159.5" font-family="Helvetica,sans-Serif" font-size="10.00" fill="#000000">FloConfig::GetNumMIDIOuts</text>
</a>
</g>
</g>
<!-- Node299&#45;&gt;Node304 -->
<g id="edge5" class="edge">
<title>Node299&#45;&gt;Node304</title>
<path fill="none" stroke="#191970" d="M73.059,-270.3195C87.5538,-249.8553 124.575,-202.4855 169,-183 237.8376,-152.8068 323.8817,-149.6266 386.9276,-152.7935"/>
<polygon fill="#191970" stroke="#191970" points="387.0541,-156.3062 397.2362,-153.3778 387.4503,-149.3174 387.0541,-156.3062"/>
</g>
<!-- Node305 -->
<g id="node7" class="node">
<title>Node305</title>
<g id="a_node7"><a xlink:href="classMidiIO.html#a510f4d3b7afdc23558eaf7d99945624a" target="_top" xlink:title="MidiIO::listen_events">
<polygon fill="#ffffff" stroke="#000000" points="196,-270.5 196,-289.5 315,-289.5 315,-270.5 196,-270.5"/>
<text text-anchor="middle" x="255.5" y="-277.5" font-family="Helvetica,sans-Serif" font-size="10.00" fill="#000000">MidiIO::listen_events</text>
</a>
</g>
</g>
<!-- Node299&#45;&gt;Node305 -->
<g id="edge6" class="edge">
<title>Node299&#45;&gt;Node305</title>
<path fill="none" stroke="#191970" d="M133.1343,-280C150.0325,-280 168.2362,-280 185.3049,-280"/>
<polygon fill="#191970" stroke="#191970" points="185.7641,-283.5001 195.7641,-280 185.7641,-276.5001 185.7641,-283.5001"/>
</g>
<!-- Node309 -->
<g id="node11" class="node">
<title>Node309</title>
<g id="a_node11"><a xlink:href="classMidiIO.html#a6551af8e78f2eed77b3193c83fa52d15" target="_top" xlink:title="MidiIO::CheckUnbypass">
<polygon fill="#ffffff" stroke="#000000" points="190,-114.5 190,-133.5 321,-133.5 321,-114.5 190,-114.5"/>
<text text-anchor="middle" x="255.5" y="-121.5" font-family="Helvetica,sans-Serif" font-size="10.00" fill="#000000">MidiIO::CheckUnbypass</text>
</a>
</g>
</g>
<!-- Node299&#45;&gt;Node309 -->
<g id="edge11" class="edge">
<title>Node299&#45;&gt;Node309</title>
<path fill="none" stroke="#191970" d="M71.2425,-270.4196C83.7263,-246.2071 119.9447,-182.1375 169,-149 176.341,-144.0411 184.6708,-140.0525 193.192,-136.8478"/>
<polygon fill="#191970" stroke="#191970" points="194.517,-140.0939 202.8514,-133.5526 192.2568,-133.4688 194.517,-140.0939"/>
</g>
<!-- Node314 -->
<g id="node16" class="node">
<title>Node314</title>
<g id="a_node16"><a xlink:href="classMidiIO.html#a6fcfe9477a84a6ccc6a449765aff6f63" target="_top" xlink:title="MidiIO::ReceiveControlChange\lEvent">
<polygon fill="#ffffff" stroke="#000000" points="173.5,-445 173.5,-475 337.5,-475 337.5,-445 173.5,-445"/>
<text text-anchor="start" x="181.5" y="-463" font-family="Helvetica,sans-Serif" font-size="10.00" fill="#000000">MidiIO::ReceiveControlChange</text>
<text text-anchor="middle" x="255.5" y="-452" font-family="Helvetica,sans-Serif" font-size="10.00" fill="#000000">Event</text>
</a>
</g>
</g>
<!-- Node299&#45;&gt;Node314 -->
<g id="edge16" class="edge">
<title>Node299&#45;&gt;Node314</title>
<path fill="none" stroke="#191970" d="M70.0624,-289.8087C80.5876,-317.3701 114.2754,-396.0941 169,-436 170.8928,-437.3802 172.8615,-438.6811 174.8907,-439.9072"/>
<polygon fill="#191970" stroke="#191970" points="173.6548,-443.2141 184.1275,-444.8183 176.941,-437.0333 173.6548,-443.2141"/>
</g>
<!-- Node321 -->
<g id="node23" class="node">
<title>Node321</title>
<g id="a_node23"><a xlink:href="classMidiIO.html#a3c920e2fb0aa4e148743ade4e2663121" target="_top" xlink:title="MidiIO::ReceiveChannelPressure\lEvent">
<polygon fill="#ffffff" stroke="#000000" points="169,-396 169,-426 342,-426 342,-396 169,-396"/>
<text text-anchor="start" x="177" y="-414" font-family="Helvetica,sans-Serif" font-size="10.00" fill="#000000">MidiIO::ReceiveChannelPressure</text>
<text text-anchor="middle" x="255.5" y="-403" font-family="Helvetica,sans-Serif" font-size="10.00" fill="#000000">Event</text>
</a>
</g>
</g>
<!-- Node299&#45;&gt;Node321 -->
<g id="edge25" class="edge">
<title>Node299&#45;&gt;Node321</title>
<path fill="none" stroke="#191970" d="M72.9466,-289.6453C87.4959,-310.6476 125.0599,-360.7349 169,-387 171.9659,-388.7729 175.067,-390.4187 178.2574,-391.9462"/>
<polygon fill="#191970" stroke="#191970" points="176.8817,-395.1644 187.4477,-395.9447 179.6744,-388.7457 176.8817,-395.1644"/>
</g>
<!-- Node322 -->
<g id="node24" class="node">
<title>Node322</title>
<g id="a_node24"><a xlink:href="classMidiIO.html#a1890f712cf869eba7a225a068ab90c21" target="_top" xlink:title="MidiIO::ReceiveProgramChange\lEvent">
<polygon fill="#ffffff" stroke="#000000" points="170.5,-347 170.5,-377 340.5,-377 340.5,-347 170.5,-347"/>
<text text-anchor="start" x="178.5" y="-365" font-family="Helvetica,sans-Serif" font-size="10.00" fill="#000000">MidiIO::ReceiveProgramChange</text>
<text text-anchor="middle" x="255.5" y="-354" font-family="Helvetica,sans-Serif" font-size="10.00" fill="#000000">Event</text>
</a>
</g>
</g>
<!-- Node299&#45;&gt;Node322 -->
<g id="edge31" class="edge">
<title>Node299&#45;&gt;Node322</title>
<path fill="none" stroke="#191970" d="M83.5707,-289.5633C103.6442,-300.5953 138.1451,-318.8942 169,-332 178.5346,-336.0498 188.8206,-339.982 198.8575,-343.5939"/>
<polygon fill="#191970" stroke="#191970" points="197.7768,-346.924 208.3716,-346.9521 200.1068,-340.3231 197.7768,-346.924"/>
</g>
<!-- Node323 -->
<g id="node25" class="node">
<title>Node323</title>
<g id="a_node25"><a xlink:href="classMidiIO.html#a001f1cae37f9d400fd18f2eb6b8863f9" target="_top" xlink:title="MidiIO::ReceivePitchBend\lEvent">
<polygon fill="#ffffff" stroke="#000000" points="185.5,-571 185.5,-601 325.5,-601 325.5,-571 185.5,-571"/>
<text text-anchor="start" x="193.5" y="-589" font-family="Helvetica,sans-Serif" font-size="10.00" fill="#000000">MidiIO::ReceivePitchBend</text>
<text text-anchor="middle" x="255.5" y="-578" font-family="Helvetica,sans-Serif" font-size="10.00" fill="#000000">Event</text>
</a>
</g>
</g>
<!-- Node299&#45;&gt;Node323 -->
<g id="edge37" class="edge">
<title>Node299&#45;&gt;Node323</title>
<path fill="none" stroke="#191970" d="M67.0025,-289.6575C69.6065,-329.4756 84.9324,-482.4962 169,-561 171.3243,-563.1705 173.8254,-565.1538 176.4606,-566.9662"/>
<polygon fill="#191970" stroke="#191970" points="174.893,-570.1055 185.2804,-572.1917 178.4611,-564.0832 174.893,-570.1055"/>
</g>
<!-- Node324 -->
<g id="node26" class="node">
<title>Node324</title>
<g id="a_node26"><a xlink:href="classMidiIO.html#ad5430028f18c43ed962f2438e2994263" target="_top" xlink:title="MidiIO::ReceiveNoteOnEvent">
<polygon fill="#ffffff" stroke="#000000" points="177.5,-532.5 177.5,-551.5 333.5,-551.5 333.5,-532.5 177.5,-532.5"/>
<text text-anchor="middle" x="255.5" y="-539.5" font-family="Helvetica,sans-Serif" font-size="10.00" fill="#000000">MidiIO::ReceiveNoteOnEvent</text>
</a>
</g>
</g>
<!-- Node299&#45;&gt;Node324 -->
<g id="edge43" class="edge">
<title>Node299&#45;&gt;Node324</title>
<path fill="none" stroke="#191970" d="M67.4738,-289.742C71.7055,-326.6283 91.9155,-458.8691 169,-523 171.0167,-524.6778 173.1489,-526.2164 175.3721,-527.6269"/>
<polygon fill="#191970" stroke="#191970" points="173.8827,-530.7999 184.3474,-532.4552 177.199,-524.6353 173.8827,-530.7999"/>
</g>
<!-- Node325 -->
<g id="node27" class="node">
<title>Node325</title>
<g id="a_node27"><a xlink:href="classMidiIO.html#a5fcccad3304e6bb1ad7b85048c63752f" target="_top" xlink:title="MidiIO::ReceiveNoteOffEvent">
<polygon fill="#ffffff" stroke="#000000" points="177,-494.5 177,-513.5 334,-513.5 334,-494.5 177,-494.5"/>
<text text-anchor="middle" x="255.5" y="-501.5" font-family="Helvetica,sans-Serif" font-size="10.00" fill="#000000">MidiIO::ReceiveNoteOffEvent</text>
</a>
</g>
</g>
<!-- Node299&#45;&gt;Node325 -->
<g id="edge49" class="edge">
<title>Node299&#45;&gt;Node325</title>
<path fill="none" stroke="#191970" d="M68.2588,-289.5826C74.8382,-322.5542 101.1899,-432.189 169,-485 171.1228,-486.6533 173.3597,-488.1693 175.685,-489.5591"/>
<polygon fill="#191970" stroke="#191970" points="174.5386,-492.9028 185.0386,-494.3175 177.7126,-486.6637 174.5386,-492.9028"/>
</g>
<!-- Node326 -->
<g id="node28" class="node">
<title>Node326</title>
<g id="a_node28"><a xlink:href="classMidiIO.html#a690fe0a8460ce500fa09580f3b9de957" target="_top" xlink:title="MidiIO::CheckBypass">
<polygon fill="#ffffff" stroke="#000000" points="196,-192.5 196,-211.5 315,-211.5 315,-192.5 196,-192.5"/>
<text text-anchor="middle" x="255.5" y="-199.5" font-family="Helvetica,sans-Serif" font-size="10.00" fill="#000000">MidiIO::CheckBypass</text>
</a>
</g>
</g>
<!-- Node299&#45;&gt;Node326 -->
<g id="edge55" class="edge">
<title>Node299&#45;&gt;Node326</title>
<path fill="none" stroke="#191970" d="M80.8244,-270.3901C100.102,-257.8498 135.8153,-235.9797 169,-223 177.7588,-219.5741 187.2418,-216.5903 196.6096,-214.0319"/>
<polygon fill="#191970" stroke="#191970" points="197.4944,-217.4183 206.295,-211.5192 195.7365,-210.6427 197.4944,-217.4183"/>
</g>
<!-- Node329 -->
<g id="node31" class="node">
<title>Node329</title>
<g id="a_node31"><a xlink:href="classMidiIO.html#a2fc0035cc0c0e522da0768eca0bdfc61" target="_top" xlink:title="MidiIO::unlisten_events">
<polygon fill="#ffffff" stroke="#000000" points="190,-232.5 190,-251.5 321,-251.5 321,-232.5 190,-232.5"/>
<text text-anchor="middle" x="255.5" y="-239.5" font-family="Helvetica,sans-Serif" font-size="10.00" fill="#000000">MidiIO::unlisten_events</text>
</a>
</g>
</g>
<!-- Node299&#45;&gt;Node329 -->
<g id="edge61" class="edge">
<title>Node299&#45;&gt;Node329</title>
<path fill="none" stroke="#191970" d="M114.1927,-270.411C139.695,-265.2835 171.2818,-258.9328 198.1196,-253.5368"/>
<polygon fill="#191970" stroke="#191970" points="199.0364,-256.9226 208.1503,-251.5201 197.6565,-250.0599 199.0364,-256.9226"/>
</g>
<!-- Node305&#45;&gt;Node300 -->
<g id="edge7" class="edge">
<title>Node305&#45;&gt;Node300</title>
<path fill="none" stroke="#191970" d="M314.8867,-289.5833C324.6148,-293.0163 334.0863,-297.6761 342,-304 368.408,-325.1029 350.8268,-350.892 378,-371 388.9369,-379.0932 402.4363,-383.9756 415.8059,-386.866"/>
<polygon fill="#191970" stroke="#191970" points="415.4956,-390.3668 425.9598,-388.7083 416.7453,-383.4792 415.4956,-390.3668"/>
</g>
<!-- Node306 -->
<g id="node8" class="node">
<title>Node306</title>
<g id="a_node8"><a xlink:href="classFweelin.html#a21e51d7b639faaecc415624ab6c16a71" target="_top" xlink:title="Fweelin::getEMG">
<polygon fill="#ffffff" stroke="#000000" points="424.5,-418.5 424.5,-437.5 522.5,-437.5 522.5,-418.5 424.5,-418.5"/>
<text text-anchor="middle" x="473.5" y="-425.5" font-family="Helvetica,sans-Serif" font-size="10.00" fill="#000000">Fweelin::getEMG</text>
</a>
</g>
</g>
<!-- Node305&#45;&gt;Node306 -->
<g id="edge8" class="edge">
<title>Node305&#45;&gt;Node306</title>
<path fill="none" stroke="#191970" d="M275.4976,-289.5882C294.5512,-299.531 323.0622,-316.6114 342,-338 365.4538,-364.4891 349.8122,-387.6177 378,-409 388.5179,-416.9785 401.5057,-421.8573 414.4779,-424.7852"/>
<polygon fill="#191970" stroke="#191970" points="413.8757,-428.2333 424.3535,-426.6629 415.1833,-421.3565 413.8757,-428.2333"/>
</g>
<!-- Node307 -->
<g id="node9" class="node">
<title>Node307</title>
<g id="a_node9"><a xlink:href="classEventManager.html#a900be2c959408f76e6926c96197bd773" target="_top" xlink:title="EventManager::ListenEvent">
<polygon fill="#ffffff" stroke="#000000" points="399,-342.5 399,-361.5 548,-361.5 548,-342.5 399,-342.5"/>
<text text-anchor="middle" x="473.5" y="-349.5" font-family="Helvetica,sans-Serif" font-size="10.00" fill="#000000">EventManager::ListenEvent</text>
</a>
</g>
</g>
<!-- Node305&#45;&gt;Node307 -->
<g id="edge9" class="edge">
<title>Node305&#45;&gt;Node307</title>
<path fill="none" stroke="#191970" d="M303.5,-289.5949C316.4031,-293.1603 330.0772,-297.8777 342,-304 360.2769,-313.3851 359.3873,-324.2999 378,-333 383.3469,-335.4993 389.0116,-337.6703 394.8081,-339.556"/>
<polygon fill="#191970" stroke="#191970" points="394.0726,-342.9883 404.6547,-342.4678 396.0577,-336.2756 394.0726,-342.9883"/>
</g>
<!-- Node308 -->
<g id="node10" class="node">
<title>Node308</title>
<g id="a_node10"><a xlink:href="classFloConfig.html#aec6fbf3c9b048a875b3f4ef86cbf6f83" target="_top" xlink:title="FloConfig::GetInputMatrix">
<polygon fill="#ffffff" stroke="#000000" points="403.5,-304.5 403.5,-323.5 543.5,-323.5 543.5,-304.5 403.5,-304.5"/>
<text text-anchor="middle" x="473.5" y="-311.5" font-family="Helvetica,sans-Serif" font-size="10.00" fill="#000000">FloConfig::GetInputMatrix</text>
</a>
</g>
</g>
<!-- Node305&#45;&gt;Node308 -->
<g id="edge10" class="edge">
<title>Node305&#45;&gt;Node308</title>
<path fill="none" stroke="#191970" d="M315.0695,-289.2906C342.0161,-293.4933 374.0762,-298.4935 402.2836,-302.8929"/>
<polygon fill="#191970" stroke="#191970" points="402.065,-306.401 412.485,-304.4839 403.1438,-299.4846 402.065,-306.401"/>
</g>
<!-- Node310 -->
<g id="node12" class="node">
<title>Node310</title>
<g id="a_node12"><a xlink:href="classPatchItem.html#a193dba9833309437fed1241957cd20dd" target="_top" xlink:title="PatchItem::IsCombi">
<polygon fill="#ffffff" stroke="#000000" points="418,-76.5 418,-95.5 529,-95.5 529,-76.5 418,-76.5"/>
<text text-anchor="middle" x="473.5" y="-83.5" font-family="Helvetica,sans-Serif" font-size="10.00" fill="#000000">PatchItem::IsCombi</text>
</a>
</g>
</g>
<!-- Node309&#45;&gt;Node310 -->
<g id="edge12" class="edge">
<title>Node309&#45;&gt;Node310</title>
<path fill="none" stroke="#191970" d="M310.2292,-114.46C340.1607,-109.2426 377.4223,-102.7475 408.7884,-97.28"/>
<polygon fill="#191970" stroke="#191970" points="409.4979,-100.7092 418.7483,-95.5439 408.2958,-93.8132 409.4979,-100.7092"/>
</g>
<!-- Node311 -->
<g id="node13" class="node">
<title>Node311</title>
<g id="a_node13"><a xlink:href="classPatchItem.html#a80e0a72bb7db8f68cd4f7bc32bb36361" target="_top" xlink:title="PatchItem::GetZone">
<polygon fill="#ffffff" stroke="#000000" points="417,-38.5 417,-57.5 530,-57.5 530,-38.5 417,-38.5"/>
<text text-anchor="middle" x="473.5" y="-45.5" font-family="Helvetica,sans-Serif" font-size="10.00" fill="#000000">PatchItem::GetZone</text>
</a>
</g>
</g>
<!-- Node309&#45;&gt;Node311 -->
<g id="edge13" class="edge">
<title>Node309&#45;&gt;Node311</title>
<path fill="none" stroke="#191970" d="M319.9354,-114.3827C327.6332,-111.9322 335.173,-108.8575 342,-105 362.2547,-93.5552 357.6328,-78.2434 378,-67 386.9722,-62.047 397.0507,-58.3744 407.2084,-55.6534"/>
<polygon fill="#191970" stroke="#191970" points="408.0268,-59.0565 416.9379,-53.3256 406.3979,-52.2486 408.0268,-59.0565"/>
</g>
<!-- Node312 -->
<g id="node14" class="node">
<title>Node312</title>
<g id="a_node14"><a xlink:href="classMidiIO.html#a768bb4ca3d6df0d4d7b2dfcc95ce8417" target="_top" xlink:title="MidiIO::getBP">
<polygon fill="#ffffff" stroke="#000000" points="432.5,-.5 432.5,-19.5 514.5,-19.5 514.5,-.5 432.5,-.5"/>
<text text-anchor="middle" x="473.5" y="-7.5" font-family="Helvetica,sans-Serif" font-size="10.00" fill="#000000">MidiIO::getBP</text>
</a>
</g>
</g>
<!-- Node309&#45;&gt;Node312 -->
<g id="edge14" class="edge">
<title>Node309&#45;&gt;Node312</title>
<path fill="none" stroke="#191970" d="M321.2666,-116.3567C328.7414,-113.5756 335.865,-109.8837 342,-105 371.2419,-81.7223 348.5287,-51.9866 378,-29 390.5747,-19.1922 406.85,-14.0326 422.391,-11.4275"/>
<polygon fill="#191970" stroke="#191970" points="423.0134,-14.8752 432.4514,-10.0612 422.0713,-7.9388 423.0134,-14.8752"/>
</g>
<!-- Node313 -->
<g id="node15" class="node">
<title>Node313</title>
<g id="a_node15"><a xlink:href="classMidiIO.html#ade75d48e27670a86a2a109f99ea847b7" target="_top" xlink:title="MidiIO::OutputController">
<polygon fill="#ffffff" stroke="#000000" points="406.5,-114.5 406.5,-133.5 540.5,-133.5 540.5,-114.5 406.5,-114.5"/>
<text text-anchor="middle" x="473.5" y="-121.5" font-family="Helvetica,sans-Serif" font-size="10.00" fill="#000000">MidiIO::OutputController</text>
</a>
</g>
</g>
<!-- Node309&#45;&gt;Node313 -->
<g id="edge15" class="edge">
<title>Node309&#45;&gt;Node313</title>
<path fill="none" stroke="#191970" d="M321.2028,-124C344.893,-124 371.8414,-124 396.4162,-124"/>
<polygon fill="#191970" stroke="#191970" points="396.4238,-127.5001 406.4238,-124 396.4237,-120.5001 396.4238,-127.5001"/>
</g>
<!-- Node314&#45;&gt;Node300 -->
<g id="edge18" class="edge">
<title>Node314&#45;&gt;Node300</title>
<path fill="none" stroke="#191970" d="M320.2649,-444.9117C327.749,-442.3295 335.1474,-439.3702 342,-436 359.9469,-427.1735 359.7378,-417.1542 378,-409 389.6928,-403.7791 402.8274,-399.9844 415.5268,-397.2289"/>
<polygon fill="#191970" stroke="#191970" points="416.4543,-400.6132 425.5823,-395.2345 415.0924,-393.7469 416.4543,-400.6132"/>
</g>
<!-- Node314&#45;&gt;Node306 -->
<g id="edge20" class="edge">
<title>Node314&#45;&gt;Node306</title>
<path fill="none" stroke="#191970" d="M337.6058,-447.9478C363.0491,-444.213 390.5777,-440.1721 414.1614,-436.7103"/>
<polygon fill="#191970" stroke="#191970" points="414.9669,-440.1296 424.3525,-435.2143 413.9502,-433.2038 414.9669,-440.1296"/>
</g>
<!-- Node315 -->
<g id="node17" class="node">
<title>Node315</title>
<g id="a_node17"><a xlink:href="classEvent.html#aa67af0ae99b897e4f0ce42068c4e4c00" target="_top" xlink:title="Event::GetEventByType">
<polygon fill="#ffffff" stroke="#000000" points="408,-456.5 408,-475.5 539,-475.5 539,-456.5 408,-456.5"/>
<text text-anchor="middle" x="473.5" y="-463.5" font-family="Helvetica,sans-Serif" font-size="10.00" fill="#000000">Event::GetEventByType</text>
</a>
</g>
</g>
<!-- Node314&#45;&gt;Node315 -->
<g id="edge17" class="edge">
<title>Node314&#45;&gt;Node315</title>
<path fill="none" stroke="#191970" d="M337.6058,-462.2598C357.3396,-462.8029 378.3279,-463.3806 397.757,-463.9153"/>
<polygon fill="#191970" stroke="#191970" points="397.6677,-467.4141 407.7602,-464.1906 397.8603,-460.4168 397.6677,-467.4141"/>
</g>
<!-- Node316 -->
<g id="node18" class="node">
<title>Node316</title>
<g id="a_node18"><a xlink:href="classFloConfig.html#aaedfda90b488c27061a73b3bc98faf9a" target="_top" xlink:title="FloConfig::IsDebugInfo">
<polygon fill="#ffffff" stroke="#000000" points="410.5,-532.5 410.5,-551.5 536.5,-551.5 536.5,-532.5 410.5,-532.5"/>
<text text-anchor="middle" x="473.5" y="-539.5" font-family="Helvetica,sans-Serif" font-size="10.00" fill="#000000">FloConfig::IsDebugInfo</text>
</a>
</g>
</g>
<!-- Node314&#45;&gt;Node316 -->
<g id="edge19" class="edge">
<title>Node314&#45;&gt;Node316</title>
<path fill="none" stroke="#191970" d="M321.7756,-475.1418C328.8377,-477.9189 335.7245,-481.1793 342,-485 361.8713,-497.0982 357.6328,-511.7566 378,-523 385.0494,-526.8915 392.7818,-529.9927 400.6989,-532.4629"/>
<polygon fill="#191970" stroke="#191970" points="399.8414,-535.8572 410.4142,-535.1737 401.7228,-529.1148 399.8414,-535.8572"/>
</g>
<!-- Node317 -->
<g id="node19" class="node">
<title>Node317</title>
<g id="a_node19"><a xlink:href="classEventManager.html#a4a73f2e7ff1724f28427f7c0d5725c8e" target="_top" xlink:title="EventManager::BroadcastEventNow">
<polygon fill="#ffffff" stroke="#000000" points="378,-494.5 378,-513.5 569,-513.5 569,-494.5 378,-494.5"/>
<text text-anchor="middle" x="473.5" y="-501.5" font-family="Helvetica,sans-Serif" font-size="10.00" fill="#000000">EventManager::BroadcastEventNow</text>
</a>
</g>
</g>
<!-- Node314&#45;&gt;Node317 -->
<g id="edge21" class="edge">
<title>Node314&#45;&gt;Node317</title>
<path fill="none" stroke="#191970" d="M329.0101,-475.0634C345.1477,-478.3531 362.1479,-481.8055 378,-485 390.0404,-487.4263 402.9388,-490.0059 415.2385,-492.4562"/>
<polygon fill="#191970" stroke="#191970" points="414.9065,-495.9587 425.3973,-494.4779 416.2728,-489.0933 414.9065,-495.9587"/>
</g>
<!-- Node318 -->
<g id="node20" class="node">
<title>Node318</title>
<g id="a_node20"><a xlink:href="classEvent.html#ac4c4170579544b41dff38ca1b8110e30" target="_top" xlink:title="Event::GetType">
<polygon fill="#ffffff" stroke="#000000" points="637.5,-532.5 637.5,-551.5 727.5,-551.5 727.5,-532.5 637.5,-532.5"/>
<text text-anchor="middle" x="682.5" y="-539.5" font-family="Helvetica,sans-Serif" font-size="10.00" fill="#000000">Event::GetType</text>
</a>
</g>
</g>
<!-- Node317&#45;&gt;Node318 -->
<g id="edge22" class="edge">
<title>Node317&#45;&gt;Node318</title>
<path fill="none" stroke="#191970" d="M525.9698,-513.54C556.9568,-519.174 596.1385,-526.2979 627.5488,-532.0089"/>
<polygon fill="#191970" stroke="#191970" points="626.9888,-535.4644 637.4536,-533.8097 628.241,-528.5773 626.9888,-535.4644"/>
</g>
<!-- Node319 -->
<g id="node21" class="node">
<title>Node319</title>
<g id="a_node21"><a xlink:href="classEventListener.html#a831820a9229e852bd7e2fad686b725b2" target="_top" xlink:title="EventListener::ReceiveEvent">
<polygon fill="#ffffff" stroke="#000000" points="605,-494.5 605,-513.5 760,-513.5 760,-494.5 605,-494.5"/>
<text text-anchor="middle" x="682.5" y="-501.5" font-family="Helvetica,sans-Serif" font-size="10.00" fill="#000000">EventListener::ReceiveEvent</text>
</a>
</g>
</g>
<!-- Node317&#45;&gt;Node319 -->
<g id="edge23" class="edge">
<title>Node317&#45;&gt;Node319</title>
<path fill="none" stroke="#191970" d="M569.1311,-504C577.6132,-504 586.1737,-504 594.5871,-504"/>
<polygon fill="#191970" stroke="#191970" points="594.7614,-507.5001 604.7614,-504 594.7614,-500.5001 594.7614,-507.5001"/>
</g>
<!-- Node320 -->
<g id="node22" class="node">
<title>Node320</title>
<g id="a_node22"><a xlink:href="classPreallocated.html#aaf2139a79ca16de70acd9bc4564171b7" target="_top" xlink:title="Preallocated::RTDelete">
<polygon fill="#ffffff" stroke="#000000" points="618.5,-456.5 618.5,-475.5 746.5,-475.5 746.5,-456.5 618.5,-456.5"/>
<text text-anchor="middle" x="682.5" y="-463.5" font-family="Helvetica,sans-Serif" font-size="10.00" fill="#000000">Preallocated::RTDelete</text>
</a>
</g>
</g>
<!-- Node317&#45;&gt;Node320 -->
<g id="edge24" class="edge">
<title>Node317&#45;&gt;Node320</title>
<path fill="none" stroke="#191970" d="M525.9698,-494.46C554.5413,-489.2652 590.0796,-482.8037 620.0691,-477.3511"/>
<polygon fill="#191970" stroke="#191970" points="620.7961,-480.7764 630.0087,-475.5439 619.5438,-473.8893 620.7961,-480.7764"/>
</g>
<!-- Node321&#45;&gt;Node300 -->
<g id="edge27" class="edge">
<title>Node321&#45;&gt;Node300</title>
<path fill="none" stroke="#191970" d="M342.2858,-402.6399C366.9978,-400.2594 393.3008,-397.7256 415.8179,-395.5565"/>
<polygon fill="#191970" stroke="#191970" points="416.2596,-399.0303 425.8779,-394.5875 415.5883,-392.0625 416.2596,-399.0303"/>
</g>
<!-- Node321&#45;&gt;Node306 -->
<g id="edge29" class="edge">
<title>Node321&#45;&gt;Node306</title>
<path fill="none" stroke="#191970" d="M342.2858,-417.7677C366.374,-419.6461 391.9738,-421.6425 414.1055,-423.3683"/>
<polygon fill="#191970" stroke="#191970" points="414.0979,-426.8783 424.3398,-424.1664 414.6422,-419.8995 414.0979,-426.8783"/>
</g>
<!-- Node321&#45;&gt;Node315 -->
<g id="edge26" class="edge">
<title>Node321&#45;&gt;Node315</title>
<path fill="none" stroke="#191970" d="M308.1419,-426.0761C319.328,-429.3184 331.0617,-432.7484 342,-436 358.0367,-440.7672 361.7753,-442.9182 378,-447 388.5434,-449.6525 399.8165,-452.1714 410.7873,-454.4565"/>
<polygon fill="#191970" stroke="#191970" points="410.2504,-457.9189 420.7479,-456.4863 411.6482,-451.0599 410.2504,-457.9189"/>
</g>
<!-- Node321&#45;&gt;Node316 -->
<g id="edge28" class="edge">
<title>Node321&#45;&gt;Node316</title>
<path fill="none" stroke="#191970" d="M327.6383,-426.1171C332.8184,-428.8793 337.6897,-432.1434 342,-436 373.1855,-463.903 345.6577,-496.4466 378,-523 384.6675,-528.4741 392.4716,-532.5207 400.6943,-535.4915"/>
<polygon fill="#191970" stroke="#191970" points="399.9092,-538.9118 410.4962,-538.5059 401.9668,-532.221 399.9092,-538.9118"/>
</g>
<!-- Node321&#45;&gt;Node317 -->
<g id="edge30" class="edge">
<title>Node321&#45;&gt;Node317</title>
<path fill="none" stroke="#191970" d="M324.0503,-426.1322C330.3867,-428.8937 336.4877,-432.1534 342,-436 364.1613,-451.4644 355.202,-470.4907 378,-485 381.1821,-487.0252 384.535,-488.8417 388.0047,-490.4705"/>
<polygon fill="#191970" stroke="#191970" points="386.8461,-493.7786 397.4251,-494.358 389.5164,-487.3079 386.8461,-493.7786"/>
</g>
<!-- Node322&#45;&gt;Node300 -->
<g id="edge33" class="edge">
<title>Node322&#45;&gt;Node300</title>
<path fill="none" stroke="#191970" d="M340.7211,-372.9458C365.8952,-376.1792 392.8483,-379.6411 415.8478,-382.5951"/>
<polygon fill="#191970" stroke="#191970" points="415.4156,-386.0683 425.78,-383.8708 416.3074,-379.1253 415.4156,-386.0683"/>
</g>
<!-- Node322&#45;&gt;Node306 -->
<g id="edge35" class="edge">
<title>Node322&#45;&gt;Node306</title>
<path fill="none" stroke="#191970" d="M315.3399,-377.023C324.4155,-379.9496 333.5598,-383.2819 342,-387 359.1598,-394.5594 360.5346,-402.1762 378,-409 389.4402,-413.4698 402.0792,-416.9328 414.315,-419.6006"/>
<polygon fill="#191970" stroke="#191970" points="413.9668,-423.1012 424.463,-421.6591 415.3584,-416.2409 413.9668,-423.1012"/>
</g>
<!-- Node322&#45;&gt;Node315 -->
<g id="edge32" class="edge">
<title>Node322&#45;&gt;Node315</title>
<path fill="none" stroke="#191970" d="M325.3065,-377.0111C331.2495,-379.7936 336.9206,-383.0914 342,-387 366.6462,-405.9652 352.5707,-429.0986 378,-447 384.0822,-451.2817 390.8948,-454.6528 398.0071,-457.2999"/>
<polygon fill="#191970" stroke="#191970" points="397.2592,-460.7362 407.8509,-460.4783 399.4101,-454.0749 397.2592,-460.7362"/>
</g>
<!-- Node322&#45;&gt;Node316 -->
<g id="edge34" class="edge">
<title>Node322&#45;&gt;Node316</title>
<path fill="none" stroke="#191970" d="M329.4456,-377.2204C334.0301,-379.9677 338.2845,-383.1996 342,-387 385.7108,-431.7091 332.43,-480.1876 378,-523 384.4451,-529.0551 392.244,-533.429 400.5743,-536.5558"/>
<polygon fill="#191970" stroke="#191970" points="399.5716,-539.9094 410.1613,-539.5794 401.6771,-533.2336 399.5716,-539.9094"/>
</g>
<!-- Node322&#45;&gt;Node317 -->
<g id="edge36" class="edge">
<title>Node322&#45;&gt;Node317</title>
<path fill="none" stroke="#191970" d="M328.227,-377.1566C333.2127,-379.9122 337.8826,-383.1639 342,-387 375.9497,-418.6307 342.7376,-454.8396 378,-485 379.7745,-486.5177 381.6354,-487.927 383.5684,-489.235"/>
<polygon fill="#191970" stroke="#191970" points="382.046,-492.3969 392.4603,-494.3448 385.5338,-486.3276 382.046,-492.3969"/>
</g>
<!-- Node323&#45;&gt;Node300 -->
<g id="edge39" class="edge">
<title>Node323&#45;&gt;Node300</title>
<path fill="none" stroke="#191970" d="M325.871,-572.9881C331.8455,-569.8052 337.3644,-565.8675 342,-561 389.8783,-510.7266 328.0298,-457.1948 378,-409 388.1829,-399.1789 401.9138,-393.7485 415.7849,-390.8876"/>
<polygon fill="#191970" stroke="#191970" points="416.5608,-394.3072 425.8612,-389.2325 415.4261,-387.3997 416.5608,-394.3072"/>
</g>
<!-- Node323&#45;&gt;Node306 -->
<g id="edge41" class="edge">
<title>Node323&#45;&gt;Node306</title>
<path fill="none" stroke="#191970" d="M325.507,-572.6284C331.5538,-569.517 337.1891,-565.6944 342,-561 380.0286,-523.8929 338.4298,-482.4586 378,-447 388.0324,-438.01 401.0725,-432.7758 414.2757,-429.8303"/>
<polygon fill="#191970" stroke="#191970" points="415.1433,-433.2301 424.357,-427.9997 413.8925,-426.3427 415.1433,-433.2301"/>
</g>
<!-- Node323&#45;&gt;Node315 -->
<g id="edge38" class="edge">
<title>Node323&#45;&gt;Node315</title>
<path fill="none" stroke="#191970" d="M325.7247,-571.5057C331.5815,-568.6166 337.1183,-565.1528 342,-561 370.4685,-536.7826 348.5287,-507.9866 378,-485 383.9567,-480.354 390.7438,-476.751 397.8899,-473.9685"/>
<polygon fill="#191970" stroke="#191970" points="399.4322,-477.1439 407.8128,-470.6619 397.2192,-470.5029 399.4322,-477.1439"/>
</g>
<!-- Node323&#45;&gt;Node316 -->
<g id="edge40" class="edge">
<title>Node323&#45;&gt;Node316</title>
<path fill="none" stroke="#191970" d="M325.6765,-571.8359C354.9424,-565.9291 388.5034,-559.1553 416.2428,-553.5565"/>
<polygon fill="#191970" stroke="#191970" points="417.0706,-556.9601 426.1805,-551.5507 415.6856,-550.0984 417.0706,-556.9601"/>
</g>
<!-- Node323&#45;&gt;Node317 -->
<g id="edge42" class="edge">
<title>Node323&#45;&gt;Node317</title>
<path fill="none" stroke="#191970" d="M321.7756,-570.8582C328.8377,-568.0811 335.7245,-564.8207 342,-561 361.8713,-548.9018 357.6328,-534.2434 378,-523 382.0213,-520.7801 386.2649,-518.8174 390.6382,-517.0823"/>
<polygon fill="#191970" stroke="#191970" points="392.1226,-520.2698 400.3835,-513.6359 389.7887,-513.6703 392.1226,-520.2698"/>
</g>
<!-- Node324&#45;&gt;Node300 -->
<g id="edge45" class="edge">
<title>Node324&#45;&gt;Node300</title>
<path fill="none" stroke="#191970" d="M328.2979,-532.2958C333.2676,-529.7946 337.9146,-526.7346 342,-523 381.2166,-487.1508 338.4298,-444.4586 378,-409 388.4347,-399.6496 402.1231,-394.3621 415.8646,-391.4869"/>
<polygon fill="#191970" stroke="#191970" points="416.5602,-394.919 425.8342,-389.7961 415.3897,-388.0176 416.5602,-394.919"/>
</g>
<!-- Node324&#45;&gt;Node306 -->
<g id="edge47" class="edge">
<title>Node324&#45;&gt;Node306</title>
<path fill="none" stroke="#191970" d="M326.0479,-532.4272C331.7684,-529.9276 337.1883,-526.8303 342,-523 371.2419,-499.7223 348.5287,-469.9866 378,-447 388.4097,-438.8808 401.3553,-433.9471 414.3211,-431.0109"/>
<polygon fill="#191970" stroke="#191970" points="415.0268,-434.4396 424.1983,-429.1353 413.7209,-427.5625 415.0268,-434.4396"/>
</g>
<!-- Node324&#45;&gt;Node315 -->
<g id="edge44" class="edge">
<title>Node324&#45;&gt;Node315</title>
<path fill="none" stroke="#191970" d="M319.9354,-532.3827C327.6332,-529.9322 335.173,-526.8575 342,-523 362.2547,-511.5552 357.6328,-496.2434 378,-485 384.3083,-481.5176 391.1635,-478.6681 398.2086,-476.3373"/>
<polygon fill="#191970" stroke="#191970" points="399.3037,-479.6634 407.8996,-473.4698 397.3175,-472.9511 399.3037,-479.6634"/>
</g>
<!-- Node324&#45;&gt;Node316 -->
<g id="edge46" class="edge">
<title>Node324&#45;&gt;Node316</title>
<path fill="none" stroke="#191970" d="M333.5873,-542C355.3141,-542 378.8273,-542 400.2647,-542"/>
<polygon fill="#191970" stroke="#191970" points="400.2784,-545.5001 410.2784,-542 400.2784,-538.5001 400.2784,-545.5001"/>
</g>
<!-- Node324&#45;&gt;Node317 -->
<g id="edge48" class="edge">
<title>Node324&#45;&gt;Node317</title>
<path fill="none" stroke="#191970" d="M310.2292,-532.46C340.1607,-527.2426 377.4223,-520.7475 408.7884,-515.28"/>
<polygon fill="#191970" stroke="#191970" points="409.4979,-518.7092 418.7483,-513.5439 408.2958,-511.8132 409.4979,-518.7092"/>
</g>
<!-- Node325&#45;&gt;Node300 -->
<g id="edge51" class="edge">
<title>Node325&#45;&gt;Node300</title>
<path fill="none" stroke="#191970" d="M326.0479,-494.4272C331.7684,-491.9276 337.1883,-488.8303 342,-485 371.2419,-461.7223 348.5287,-431.9866 378,-409 388.7283,-400.6323 402.1503,-395.648 415.5118,-392.7469"/>
<polygon fill="#191970" stroke="#191970" points="416.4528,-396.1337 425.672,-390.9129 415.2093,-389.245 416.4528,-396.1337"/>
</g>
<!-- Node325&#45;&gt;Node306 -->
<g id="edge53" class="edge">
<title>Node325&#45;&gt;Node306</title>
<path fill="none" stroke="#191970" d="M319.9354,-494.3827C327.6332,-491.9322 335.173,-488.8575 342,-485 362.2547,-473.5552 357.6328,-458.2434 378,-447 389.0939,-440.8758 401.8791,-436.7091 414.414,-433.8785"/>
<polygon fill="#191970" stroke="#191970" points="415.2582,-437.279 424.3759,-431.883 413.8833,-430.4154 415.2582,-437.279"/>
</g>
<!-- Node325&#45;&gt;Node315 -->
<g id="edge50" class="edge">
<title>Node325&#45;&gt;Node315</title>
<path fill="none" stroke="#191970" d="M310.2292,-494.46C340.1607,-489.2426 377.4223,-482.7475 408.7884,-477.28"/>
<polygon fill="#191970" stroke="#191970" points="409.4979,-480.7092 418.7483,-475.5439 408.2958,-473.8132 409.4979,-480.7092"/>
</g>
<!-- Node325&#45;&gt;Node316 -->
<g id="edge52" class="edge">
<title>Node325&#45;&gt;Node316</title>
<path fill="none" stroke="#191970" d="M310.2292,-513.54C340.1607,-518.7574 377.4223,-525.2525 408.7884,-530.72"/>
<polygon fill="#191970" stroke="#191970" points="408.2958,-534.1868 418.7483,-532.4561 409.4979,-527.2908 408.2958,-534.1868"/>
</g>
<!-- Node325&#45;&gt;Node317 -->
<g id="edge54" class="edge">
<title>Node325&#45;&gt;Node317</title>
<path fill="none" stroke="#191970" d="M334.203,-504C345.0346,-504 356.2997,-504 367.5221,-504"/>
<polygon fill="#191970" stroke="#191970" points="367.8028,-507.5001 377.8027,-504 367.8027,-500.5001 367.8028,-507.5001"/>
</g>
<!-- Node326&#45;&gt;Node300 -->
<g id="edge58" class="edge">
<title>Node326&#45;&gt;Node300</title>
<path fill="none" stroke="#191970" d="M315.3522,-207.4686C325.2623,-210.7536 334.6771,-215.6803 342,-223 389.8787,-270.8575 329.1321,-324.153 378,-371 388.2125,-380.7902 401.9538,-386.2099 415.8252,-389.0704"/>
<polygon fill="#191970" stroke="#191970" points="415.4648,-392.5581 425.9002,-390.7269 416.6006,-385.6508 415.4648,-392.5581"/>
</g>
<!-- Node326&#45;&gt;Node304 -->
<g id="edge59" class="edge">
<title>Node326&#45;&gt;Node304</title>
<path fill="none" stroke="#191970" d="M307.4395,-192.4698C338.7113,-186.7319 378.7096,-179.3927 411.6145,-173.3551"/>
<polygon fill="#191970" stroke="#191970" points="412.377,-176.7738 421.5811,-171.5264 411.1136,-169.8887 412.377,-176.7738"/>
</g>
<!-- Node326&#45;&gt;Node313 -->
<g id="edge60" class="edge">
<title>Node326&#45;&gt;Node313</title>
<path fill="none" stroke="#191970" d="M271.9763,-192.3965C294.983,-179.3803 338.3738,-156.2469 378,-143 386.2124,-140.2546 394.9617,-137.8472 403.7044,-135.7525"/>
<polygon fill="#191970" stroke="#191970" points="404.5663,-139.1459 413.5433,-133.5189 403.0165,-132.3196 404.5663,-139.1459"/>
</g>
<!-- Node327 -->
<g id="node29" class="node">
<title>Node327</title>
<g id="a_node29"><a xlink:href="classFweelin.html#a4422f3a93561eff272cd5f7ecb0782ee" target="_top" xlink:title="Fweelin::getRP">
<polygon fill="#ffffff" stroke="#000000" points="429,-190.5 429,-209.5 518,-209.5 518,-190.5 429,-190.5"/>
<text text-anchor="middle" x="473.5" y="-197.5" font-family="Helvetica,sans-Serif" font-size="10.00" fill="#000000">Fweelin::getRP</text>
</a>
</g>
</g>
<!-- Node326&#45;&gt;Node327 -->
<g id="edge56" class="edge">
<title>Node326&#45;&gt;Node327</title>
<path fill="none" stroke="#191970" d="M315.0695,-201.4535C347.3492,-201.1573 386.9669,-200.7939 418.5096,-200.5045"/>
<polygon fill="#191970" stroke="#191970" points="418.9074,-204.0011 428.8749,-200.4094 418.8431,-197.0014 418.9074,-204.0011"/>
</g>
<!-- Node328 -->
<g id="node30" class="node">
<title>Node328</title>
<g id="a_node30"><a xlink:href="classRootProcessor.html#a2aef0ef0e079427ff5c0b5604fbe7e51" target="_top" xlink:title="RootProcessor::GetSampleCnt">
<polygon fill="#ffffff" stroke="#000000" points="392.5,-228.5 392.5,-247.5 554.5,-247.5 554.5,-228.5 392.5,-228.5"/>
<text text-anchor="middle" x="473.5" y="-235.5" font-family="Helvetica,sans-Serif" font-size="10.00" fill="#000000">RootProcessor::GetSampleCnt</text>
</a>
</g>
</g>
<!-- Node326&#45;&gt;Node328 -->
<g id="edge57" class="edge">
<title>Node326&#45;&gt;Node328</title>
<path fill="none" stroke="#191970" d="M313.0621,-211.5057C341.5091,-216.2033 376.0211,-221.9026 405.7369,-226.8098"/>
<polygon fill="#191970" stroke="#191970" points="405.1783,-230.2648 415.6149,-228.441 406.3189,-223.3584 405.1783,-230.2648"/>
</g>
<!-- Node329&#45;&gt;Node300 -->
<g id="edge62" class="edge">
<title>Node329&#45;&gt;Node300</title>
<path fill="none" stroke="#191970" d="M321.0127,-248.5815C328.7084,-251.5156 335.9569,-255.5332 342,-261 380.1475,-295.5092 339.5122,-336.8707 378,-371 388.4832,-380.296 402.1887,-385.5643 415.9312,-388.4384"/>
<polygon fill="#191970" stroke="#191970" points="415.4539,-391.9074 425.8988,-390.1314 416.6261,-385.0062 415.4539,-391.9074"/>
</g>
<!-- Node329&#45;&gt;Node306 -->
<g id="edge63" class="edge">
<title>Node329&#45;&gt;Node306</title>
<path fill="none" stroke="#191970" d="M321.4217,-248.1467C329.0523,-251.15 336.1737,-255.3027 342,-261 390.401,-308.3293 329.1321,-362.153 378,-409 387.8216,-418.4155 400.907,-423.7887 414.2332,-426.7306"/>
<polygon fill="#191970" stroke="#191970" points="413.9638,-430.2372 424.4207,-428.5331 415.1834,-423.3443 413.9638,-430.2372"/>
</g>
<!-- Node329&#45;&gt;Node308 -->
<g id="edge65" class="edge">
<title>Node329&#45;&gt;Node308</title>
<path fill="none" stroke="#191970" d="M318.3686,-251.5694C326.5689,-254.0283 334.6607,-257.118 342,-261 361.4541,-271.29 358.4448,-284.9034 378,-295 382.9287,-297.5448 388.1629,-299.7493 393.5433,-301.6591"/>
<polygon fill="#191970" stroke="#191970" points="392.7606,-305.0831 403.3514,-304.7881 394.8882,-298.4143 392.7606,-305.0831"/>
</g>
<!-- Node330 -->
<g id="node32" class="node">
<title>Node330</title>
<g id="a_node32"><a xlink:href="classEventManager.html#abfc3ddd37f9bd472a41ab43632e44736" target="_top" xlink:title="EventManager::UnlistenEvent">
<polygon fill="#ffffff" stroke="#000000" points="393,-266.5 393,-285.5 554,-285.5 554,-266.5 393,-266.5"/>
<text text-anchor="middle" x="473.5" y="-273.5" font-family="Helvetica,sans-Serif" font-size="10.00" fill="#000000">EventManager::UnlistenEvent</text>
</a>
</g>
</g>
<!-- Node329&#45;&gt;Node330 -->
<g id="edge64" class="edge">
<title>Node329&#45;&gt;Node330</title>
<path fill="none" stroke="#191970" d="M316.515,-251.5161C343.2149,-255.6803 374.7139,-260.593 402.4622,-264.9207"/>
<polygon fill="#191970" stroke="#191970" points="402.0798,-268.4033 412.4997,-266.4862 403.1585,-261.4869 402.0798,-268.4033"/>
</g>
</g>
</svg>
