<?xml version="1.0" encoding="UTF-8" standalone="no"?>
<!DOCTYPE svg PUBLIC "-//W3C//DTD SVG 1.1//EN"
 "http://www.w3.org/Graphics/SVG/1.1/DTD/svg11.dtd">
<!-- Generated by graphviz version 2.40.1 (20161225.0304)
 -->
<!-- Title: CfgToken::Evaluate Pages: 1 -->
<svg width="399pt" height="28pt"
 viewBox="0.00 0.00 399.00 28.00" xmlns="http://www.w3.org/2000/svg" xmlns:xlink="http://www.w3.org/1999/xlink">
<g id="graph0" class="graph" transform="scale(1 1) rotate(0) translate(4 24)">
<title>CfgToken::Evaluate</title>
<polygon fill="#ffffff" stroke="transparent" points="-4,4 -4,-24 395,-24 395,4 -4,4"/>
<!-- Node2 -->
<g id="node1" class="node">
<title>Node2</title>
<polygon fill="#bfbfbf" stroke="#000000" points="0,-.5 0,-19.5 110,-19.5 110,-.5 0,-.5"/>
<text text-anchor="middle" x="55" y="-7.5" font-family="Helvetica,sans-Serif" font-size="10.00" fill="#000000">CfgToken::Evaluate</text>
</g>
<!-- Node3 -->
<g id="node2" class="node">
<title>Node3</title>
<g id="a_node2"><a xlink:href="classUserVariable.html#a7cbb83559d78173a8b7810c3ecc3842f" target="_top" xlink:title="UserVariable::SetFrom">
<polygon fill="#ffffff" stroke="#000000" points="146,-.5 146,-19.5 271,-19.5 271,-.5 146,-.5"/>
<text text-anchor="middle" x="208.5" y="-7.5" font-family="Helvetica,sans-Serif" font-size="10.00" fill="#000000">UserVariable::SetFrom</text>
</a>
</g>
</g>
<!-- Node2&#45;&gt;Node3 -->
<g id="edge1" class="edge">
<title>Node2&#45;&gt;Node3</title>
<path fill="none" stroke="#191970" d="M110.417,-10C118.598,-10 127.1303,-10 135.5998,-10"/>
<polygon fill="#191970" stroke="#191970" points="135.872,-13.5001 145.872,-10 135.8719,-6.5001 135.872,-13.5001"/>
</g>
<!-- Node4 -->
<g id="node3" class="node">
<title>Node4</title>
<g id="a_node3"><a xlink:href="classRange.html#a378dde258315602c6929b84cb10f8f8d" target="_top" xlink:title="Range::Range">
<polygon fill="#ffffff" stroke="#000000" points="307,-.5 307,-19.5 391,-19.5 391,-.5 307,-.5"/>
<text text-anchor="middle" x="349" y="-7.5" font-family="Helvetica,sans-Serif" font-size="10.00" fill="#000000">Range::Range</text>
</a>
</g>
</g>
<!-- Node3&#45;&gt;Node4 -->
<g id="edge2" class="edge">
<title>Node3&#45;&gt;Node4</title>
<path fill="none" stroke="#191970" d="M271.353,-10C279.7782,-10 288.347,-10 296.5672,-10"/>
<polygon fill="#191970" stroke="#191970" points="296.7561,-13.5001 306.7561,-10 296.756,-6.5001 296.7561,-13.5001"/>
</g>
</g>
</svg>
