<?xml version="1.0" encoding="UTF-8" standalone="no"?>
<!DOCTYPE svg PUBLIC "-//W3C//DTD SVG 1.1//EN"
 "http://www.w3.org/Graphics/SVG/1.1/DTD/svg11.dtd">
<!-- Generated by graphviz version 2.40.1 (20161225.0304)
 -->
<!-- Title: LoopTray::Draw_Item Pages: 1 -->
<svg width="465pt" height="161pt"
 viewBox="0.00 0.00 465.00 161.00" xmlns="http://www.w3.org/2000/svg" xmlns:xlink="http://www.w3.org/1999/xlink">
<g id="graph0" class="graph" transform="scale(1 1) rotate(0) translate(4 157)">
<title>LoopTray::Draw_Item</title>
<polygon fill="#ffffff" stroke="transparent" points="-4,4 -4,-157 461,-157 461,4 -4,4"/>
<!-- Node36 -->
<g id="node1" class="node">
<title>Node36</title>
<polygon fill="#bfbfbf" stroke="#000000" points="0,-57.5 0,-76.5 119,-76.5 119,-57.5 0,-57.5"/>
<text text-anchor="middle" x="59.5" y="-64.5" font-family="Helvetica,sans-Serif" font-size="10.00" fill="#000000">LoopTray::Draw_Item</text>
</g>
<!-- Node37 -->
<g id="node2" class="node">
<title>Node37</title>
<g id="a_node2"><a xlink:href="classLoopManager.html#ab5444c4b3ee3ccbab1160e23d7363752" target="_top" xlink:title="LoopManager::GetSlot">
<polygon fill="#ffffff" stroke="#000000" points="169.5,-114.5 169.5,-133.5 293.5,-133.5 293.5,-114.5 169.5,-114.5"/>
<text text-anchor="middle" x="231.5" y="-121.5" font-family="Helvetica,sans-Serif" font-size="10.00" fill="#000000">LoopManager::GetSlot</text>
</a>
</g>
</g>
<!-- Node36&#45;&gt;Node37 -->
<g id="edge1" class="edge">
<title>Node36&#45;&gt;Node37</title>
<path fill="none" stroke="#191970" d="M81.1931,-76.6085C100.3526,-84.8583 129.1786,-96.6982 155,-105 162.6875,-107.4716 170.8955,-109.8133 178.9757,-111.9536"/>
<polygon fill="#191970" stroke="#191970" points="178.1681,-115.3597 188.7247,-114.4596 179.9109,-108.5801 178.1681,-115.3597"/>
</g>
<!-- Node40 -->
<g id="node5" class="node">
<title>Node40</title>
<g id="a_node5"><a xlink:href="classLoopManager.html#a038d8bb8230e77094aa6cfc2f9b3fc00" target="_top" xlink:title="LoopManager::IsActive">
<polygon fill="#ffffff" stroke="#000000" points="168,-76.5 168,-95.5 295,-95.5 295,-76.5 168,-76.5"/>
<text text-anchor="middle" x="231.5" y="-83.5" font-family="Helvetica,sans-Serif" font-size="10.00" fill="#000000">LoopManager::IsActive</text>
</a>
</g>
</g>
<!-- Node36&#45;&gt;Node40 -->
<g id="edge4" class="edge">
<title>Node36&#45;&gt;Node40</title>
<path fill="none" stroke="#191970" d="M119.1745,-73.592C131.5773,-74.962 144.7885,-76.4214 157.6314,-77.8401"/>
<polygon fill="#191970" stroke="#191970" points="157.5058,-81.3474 167.8297,-78.9666 158.2744,-74.3898 157.5058,-81.3474"/>
</g>
<!-- Node41 -->
<g id="node6" class="node">
<title>Node41</title>
<g id="a_node6"><a xlink:href="classLoopManager.html#ab9c9e72e1a23b34c15a87dc13fb02672" target="_top" xlink:title="LoopManager::GetTriggerVol">
<polygon fill="#ffffff" stroke="#000000" points="155,-38.5 155,-57.5 308,-57.5 308,-38.5 155,-38.5"/>
<text text-anchor="middle" x="231.5" y="-45.5" font-family="Helvetica,sans-Serif" font-size="10.00" fill="#000000">LoopManager::GetTriggerVol</text>
</a>
</g>
</g>
<!-- Node36&#45;&gt;Node41 -->
<g id="edge5" class="edge">
<title>Node36&#45;&gt;Node41</title>
<path fill="none" stroke="#191970" d="M119.1745,-60.408C127.4734,-59.4913 136.1341,-58.5346 144.8043,-57.5768"/>
<polygon fill="#191970" stroke="#191970" points="145.4104,-61.0313 154.9656,-56.4544 144.6417,-54.0736 145.4104,-61.0313"/>
</g>
<!-- Node42 -->
<g id="node7" class="node">
<title>Node42</title>
<g id="a_node7"><a xlink:href="classVideoIO.html#a8a7592b69863218540f5185683f8b3fc" target="_top" xlink:title="VideoIO::draw_text">
<polygon fill="#ffffff" stroke="#000000" points="176.5,-.5 176.5,-19.5 286.5,-19.5 286.5,-.5 176.5,-.5"/>
<text text-anchor="middle" x="231.5" y="-7.5" font-family="Helvetica,sans-Serif" font-size="10.00" fill="#000000">VideoIO::draw_text</text>
</a>
</g>
</g>
<!-- Node36&#45;&gt;Node42 -->
<g id="edge6" class="edge">
<title>Node36&#45;&gt;Node42</title>
<path fill="none" stroke="#191970" d="M81.1931,-57.3915C100.3526,-49.1417 129.1786,-37.3018 155,-29 162.6875,-26.5284 170.8955,-24.1867 178.9757,-22.0464"/>
<polygon fill="#191970" stroke="#191970" points="179.9109,-25.4199 188.7247,-19.5404 178.1681,-18.6403 179.9109,-25.4199"/>
</g>
<!-- Node38 -->
<g id="node3" class="node">
<title>Node38</title>
<g id="a_node3"><a xlink:href="classFweelin.html#a10bb364ecf38990653b49a98c5a89c90" target="_top" xlink:title="Fweelin::getTMAP">
<polygon fill="#ffffff" stroke="#000000" points="349,-133.5 349,-152.5 452,-152.5 452,-133.5 349,-133.5"/>
<text text-anchor="middle" x="400.5" y="-140.5" font-family="Helvetica,sans-Serif" font-size="10.00" fill="#000000">Fweelin::getTMAP</text>
</a>
</g>
</g>
<!-- Node37&#45;&gt;Node38 -->
<g id="edge2" class="edge">
<title>Node37&#45;&gt;Node38</title>
<path fill="none" stroke="#191970" d="M293.9492,-131.0209C308.6174,-132.67 324.2388,-134.4263 338.8707,-136.0713"/>
<polygon fill="#191970" stroke="#191970" points="338.4902,-139.5504 348.8186,-137.1897 339.2723,-132.5943 338.4902,-139.5504"/>
</g>
<!-- Node39 -->
<g id="node4" class="node">
<title>Node39</title>
<g id="a_node4"><a xlink:href="classTriggerMap.html#aca3f85b40f3aa29a280c2d7511b84217" target="_top" xlink:title="TriggerMap::GetMap">
<polygon fill="#ffffff" stroke="#000000" points="344,-95.5 344,-114.5 457,-114.5 457,-95.5 344,-95.5"/>
<text text-anchor="middle" x="400.5" y="-102.5" font-family="Helvetica,sans-Serif" font-size="10.00" fill="#000000">TriggerMap::GetMap</text>
</a>
</g>
</g>
<!-- Node37&#45;&gt;Node39 -->
<g id="edge3" class="edge">
<title>Node37&#45;&gt;Node39</title>
<path fill="none" stroke="#191970" d="M293.9492,-116.9791C306.8588,-115.5277 320.5067,-113.9933 333.5687,-112.5248"/>
<polygon fill="#191970" stroke="#191970" points="334.3468,-115.9595 343.8931,-111.3641 333.5647,-109.0033 334.3468,-115.9595"/>
</g>
</g>
</svg>
