<?xml version="1.0" encoding="UTF-8" standalone="no"?>
<!DOCTYPE svg PUBLIC "-//W3C//DTD SVG 1.1//EN"
 "http://www.w3.org/Graphics/SVG/1.1/DTD/svg11.dtd">
<!-- Generated by graphviz version 2.40.1 (20161225.0304)
 -->
<!-- Title: AudioBlock::ChopChain Pages: 1 -->
<svg width="847pt" height="268pt"
 viewBox="0.00 0.00 847.00 267.50" xmlns="http://www.w3.org/2000/svg" xmlns:xlink="http://www.w3.org/1999/xlink">
<g id="graph0" class="graph" transform="scale(1 1) rotate(0) translate(4 263.5)">
<title>AudioBlock::ChopChain</title>
<polygon fill="#ffffff" stroke="transparent" points="-4,4 -4,-263.5 843,-263.5 843,4 -4,4"/>
<!-- Node19 -->
<g id="node1" class="node">
<title>Node19</title>
<polygon fill="#bfbfbf" stroke="#000000" points="0,-95.5 0,-114.5 130,-114.5 130,-95.5 0,-95.5"/>
<text text-anchor="middle" x="65" y="-102.5" font-family="Helvetica,sans-Serif" font-size="10.00" fill="#000000">AudioBlock::ChopChain</text>
</g>
<!-- Node20 -->
<g id="node2" class="node">
<title>Node20</title>
<g id="a_node2"><a xlink:href="classAudioBlockIterator.html#a33e1c3a6381e3c0ba5dd129885509eb3" target="_top" xlink:title="AudioBlockIterator\l::EndChain">
<polygon fill="#ffffff" stroke="#000000" points="166,-90 166,-120 273,-120 273,-90 166,-90"/>
<text text-anchor="start" x="174" y="-108" font-family="Helvetica,sans-Serif" font-size="10.00" fill="#000000">AudioBlockIterator</text>
<text text-anchor="middle" x="219.5" y="-97" font-family="Helvetica,sans-Serif" font-size="10.00" fill="#000000">::EndChain</text>
</a>
</g>
</g>
<!-- Node19&#45;&gt;Node20 -->
<g id="edge1" class="edge">
<title>Node19&#45;&gt;Node20</title>
<path fill="none" stroke="#191970" d="M140.1616,-105C148.7903,-105 157.4538,-105 165.7209,-105"/>
<polygon fill="#191970" stroke="#191970" points="140.0742,-101.5001 130.0741,-105 140.0741,-108.5001 140.0742,-101.5001"/>
</g>
<!-- Node21 -->
<g id="node3" class="node">
<title>Node21</title>
<g id="a_node3"><a xlink:href="classBlockReadManager.html#a0956beb932559fdea3ecca152db2bd0a" target="_top" xlink:title="BlockReadManager::End">
<polygon fill="#ffffff" stroke="#000000" points="313.5,-152.5 313.5,-171.5 447.5,-171.5 447.5,-152.5 313.5,-152.5"/>
<text text-anchor="middle" x="380.5" y="-159.5" font-family="Helvetica,sans-Serif" font-size="10.00" fill="#000000">BlockReadManager::End</text>
</a>
</g>
</g>
<!-- Node20&#45;&gt;Node21 -->
<g id="edge2" class="edge">
<title>Node20&#45;&gt;Node21</title>
<path fill="none" stroke="#191970" d="M271.9722,-123.5771C299.106,-133.1835 331.0941,-144.5085 353.2811,-152.3635"/>
<polygon fill="#191970" stroke="#191970" points="272.8171,-120.1634 262.2224,-120.1253 270.4809,-126.7621 272.8171,-120.1634"/>
</g>
<!-- Node26 -->
<g id="node8" class="node">
<title>Node26</title>
<g id="a_node8"><a xlink:href="classRecordProcessor.html#a9984f573bbc265321ad0604f97b23820" target="_top" xlink:title="RecordProcessor::EndNow">
<polygon fill="#ffffff" stroke="#000000" points="309,-57.5 309,-76.5 452,-76.5 452,-57.5 309,-57.5"/>
<text text-anchor="middle" x="380.5" y="-64.5" font-family="Helvetica,sans-Serif" font-size="10.00" fill="#000000">RecordProcessor::EndNow</text>
</a>
</g>
</g>
<!-- Node20&#45;&gt;Node26 -->
<g id="edge8" class="edge">
<title>Node20&#45;&gt;Node26</title>
<path fill="none" stroke="#191970" d="M283.0192,-90.0079C302.2504,-85.4688 322.8363,-80.6101 340.1115,-76.5327"/>
<polygon fill="#191970" stroke="#191970" points="282.0392,-86.6429 273.1107,-92.3466 283.6473,-93.4557 282.0392,-86.6429"/>
</g>
<!-- Node22 -->
<g id="node4" class="node">
<title>Node22</title>
<g id="a_node4"><a xlink:href="classBlockReadManager.html#a935aa663d9fa5b6d346f77c7b3882e2b" target="_top" xlink:title="BlockReadManager::\l~BlockReadManager">
<polygon fill="#ffffff" stroke="#000000" points="509.5,-229 509.5,-259 627.5,-259 627.5,-229 509.5,-229"/>
<text text-anchor="start" x="517.5" y="-247" font-family="Helvetica,sans-Serif" font-size="10.00" fill="#000000">BlockReadManager::</text>
<text text-anchor="middle" x="568.5" y="-236" font-family="Helvetica,sans-Serif" font-size="10.00" fill="#000000">~BlockReadManager</text>
</a>
</g>
</g>
<!-- Node21&#45;&gt;Node22 -->
<g id="edge3" class="edge">
<title>Node21&#45;&gt;Node22</title>
<path fill="none" stroke="#191970" d="M405.1836,-176.7904C426.5688,-189.1863 458.6087,-206.7696 488,-219 496.6471,-222.5982 506.0019,-225.9599 515.1701,-228.9783"/>
<polygon fill="#191970" stroke="#191970" points="406.8301,-173.6986 396.4328,-171.6622 403.2909,-179.738 406.8301,-173.6986"/>
</g>
<!-- Node23 -->
<g id="node5" class="node">
<title>Node23</title>
<g id="a_node5"><a xlink:href="classBlockReadManager.html#af12804c61f944904eedf8c9edf5cd3bd" target="_top" xlink:title="BlockReadManager::Start">
<polygon fill="#ffffff" stroke="#000000" points="499,-190.5 499,-209.5 638,-209.5 638,-190.5 499,-190.5"/>
<text text-anchor="middle" x="568.5" y="-197.5" font-family="Helvetica,sans-Serif" font-size="10.00" fill="#000000">BlockReadManager::Start</text>
</a>
</g>
</g>
<!-- Node21&#45;&gt;Node23 -->
<g id="edge4" class="edge">
<title>Node21&#45;&gt;Node23</title>
<path fill="none" stroke="#191970" d="M437.9365,-173.6095C464.6744,-179.014 496.0879,-185.3635 521.4008,-190.4799"/>
<polygon fill="#191970" stroke="#191970" points="438.4356,-170.1397 427.9403,-171.589 437.0487,-177.0009 438.4356,-170.1397"/>
</g>
<!-- Node24 -->
<g id="node6" class="node">
<title>Node24</title>
<g id="a_node6"><a xlink:href="classBlockReadManager.html#aa990976dec4a3ec5bd6384b54ce5f09b" target="_top" xlink:title="BlockReadManager::Manage">
<polygon fill="#ffffff" stroke="#000000" points="685,-171.5 685,-190.5 839,-190.5 839,-171.5 685,-171.5"/>
<text text-anchor="middle" x="762" y="-178.5" font-family="Helvetica,sans-Serif" font-size="10.00" fill="#000000">BlockReadManager::Manage</text>
</a>
</g>
</g>
<!-- Node21&#45;&gt;Node24 -->
<g id="edge6" class="edge">
<title>Node21&#45;&gt;Node24</title>
<path fill="none" stroke="#191970" d="M458.1896,-165.8692C524.333,-169.1634 618.8544,-173.8709 684.8444,-177.1574"/>
<polygon fill="#191970" stroke="#191970" points="457.9881,-162.3549 447.8264,-165.3531 457.6399,-169.3463 457.9881,-162.3549"/>
</g>
<!-- Node25 -->
<g id="node7" class="node">
<title>Node25</title>
<g id="a_node7"><a xlink:href="classLoopManager.html#aadca58536e41c8b0b8fd148ac40b23c0" target="_top" xlink:title="LoopManager::~LoopManager">
<polygon fill="#ffffff" stroke="#000000" points="488,-114.5 488,-133.5 649,-133.5 649,-114.5 488,-114.5"/>
<text text-anchor="middle" x="568.5" y="-121.5" font-family="Helvetica,sans-Serif" font-size="10.00" fill="#000000">LoopManager::~LoopManager</text>
</a>
</g>
</g>
<!-- Node21&#45;&gt;Node25 -->
<g id="edge7" class="edge">
<title>Node21&#45;&gt;Node25</title>
<path fill="none" stroke="#191970" d="M437.9365,-150.3905C464.6744,-144.986 496.0879,-138.6365 521.4008,-133.5201"/>
<polygon fill="#191970" stroke="#191970" points="437.0487,-146.9991 427.9403,-152.411 438.4356,-153.8603 437.0487,-146.9991"/>
</g>
<!-- Node23&#45;&gt;Node24 -->
<g id="edge5" class="edge">
<title>Node23&#45;&gt;Node24</title>
<path fill="none" stroke="#191970" d="M648.1609,-192.178C660.2806,-190.9879 672.7699,-189.7616 684.8351,-188.5769"/>
<polygon fill="#191970" stroke="#191970" points="647.6946,-188.7069 638.0846,-193.1674 648.3788,-195.6734 647.6946,-188.7069"/>
</g>
<!-- Node27 -->
<g id="node9" class="node">
<title>Node27</title>
<g id="a_node9"><a xlink:href="classRecordProcessor.html#a6168d8dc850602a348dc74ab1224263a" target="_top" xlink:title="RecordProcessor::PulseSync">
<polygon fill="#ffffff" stroke="#000000" points="492.5,-76.5 492.5,-95.5 644.5,-95.5 644.5,-76.5 492.5,-76.5"/>
<text text-anchor="middle" x="568.5" y="-83.5" font-family="Helvetica,sans-Serif" font-size="10.00" fill="#000000">RecordProcessor::PulseSync</text>
</a>
</g>
</g>
<!-- Node26&#45;&gt;Node27 -->
<g id="edge9" class="edge">
<title>Node26&#45;&gt;Node27</title>
<path fill="none" stroke="#191970" d="M462.0942,-75.2462C472.1593,-76.2634 482.4175,-77.3002 492.3963,-78.3087"/>
<polygon fill="#191970" stroke="#191970" points="462.4123,-71.7606 452.111,-74.2373 461.7084,-78.7252 462.4123,-71.7606"/>
</g>
<!-- Node28 -->
<g id="node10" class="node">
<title>Node28</title>
<g id="a_node10"><a xlink:href="classRecordProcessor.html#ab035edfb707f8f1066b3597df7ddda7d" target="_top" xlink:title="RecordProcessor::End">
<polygon fill="#ffffff" stroke="#000000" points="508,-38.5 508,-57.5 629,-57.5 629,-38.5 508,-38.5"/>
<text text-anchor="middle" x="568.5" y="-45.5" font-family="Helvetica,sans-Serif" font-size="10.00" fill="#000000">RecordProcessor::End</text>
</a>
</g>
</g>
<!-- Node26&#45;&gt;Node28 -->
<g id="edge10" class="edge">
<title>Node26&#45;&gt;Node28</title>
<path fill="none" stroke="#191970" d="M462.1116,-58.752C477.4547,-57.2014 493.246,-55.6055 507.8116,-54.1334"/>
<polygon fill="#191970" stroke="#191970" points="461.7084,-55.2748 452.111,-59.7627 462.4123,-62.2394 461.7084,-55.2748"/>
</g>
<!-- Node29 -->
<g id="node11" class="node">
<title>Node29</title>
<g id="a_node11"><a xlink:href="classRecordProcessor.html#ad36d69ec9d41b424eb2e6c5fa2e0cf3a" target="_top" xlink:title="RecordProcessor::process">
<polygon fill="#ffffff" stroke="#000000" points="498.5,-.5 498.5,-19.5 638.5,-19.5 638.5,-.5 498.5,-.5"/>
<text text-anchor="middle" x="568.5" y="-7.5" font-family="Helvetica,sans-Serif" font-size="10.00" fill="#000000">RecordProcessor::process</text>
</a>
</g>
</g>
<!-- Node26&#45;&gt;Node29 -->
<g id="edge11" class="edge">
<title>Node26&#45;&gt;Node29</title>
<path fill="none" stroke="#191970" d="M414.4603,-53.9356C435.4619,-46.1221 463.0789,-36.3224 488,-29 499.7107,-25.5591 512.5195,-22.3085 524.4061,-19.5012"/>
<polygon fill="#191970" stroke="#191970" points="413.1489,-50.6894 405.017,-57.4808 415.6091,-57.2428 413.1489,-50.6894"/>
</g>
</g>
</svg>
