<?xml version="1.0" encoding="UTF-8" standalone="no"?>
<!DOCTYPE svg PUBLIC "-//W3C//DTD SVG 1.1//EN"
 "http://www.w3.org/Graphics/SVG/1.1/DTD/svg11.dtd">
<!-- Generated by graphviz version 2.40.1 (20161225.0304)
 -->
<!-- Title: RecordProcessor::GetRecordedLength Pages: 1 -->
<svg width="328pt" height="39pt"
 viewBox="0.00 0.00 328.00 39.00" xmlns="http://www.w3.org/2000/svg" xmlns:xlink="http://www.w3.org/1999/xlink">
<g id="graph0" class="graph" transform="scale(1 1) rotate(0) translate(4 35)">
<title>RecordProcessor::GetRecordedLength</title>
<polygon fill="#ffffff" stroke="transparent" points="-4,4 -4,-35 324,-35 324,4 -4,4"/>
<!-- Node171 -->
<g id="node1" class="node">
<title>Node171</title>
<polygon fill="#bfbfbf" stroke="#000000" points="0,-.5 0,-30.5 165,-30.5 165,-.5 0,-.5"/>
<text text-anchor="start" x="8" y="-18.5" font-family="Helvetica,sans-Serif" font-size="10.00" fill="#000000">RecordProcessor::GetRecorded</text>
<text text-anchor="middle" x="82.5" y="-7.5" font-family="Helvetica,sans-Serif" font-size="10.00" fill="#000000">Length</text>
</g>
<!-- Node172 -->
<g id="node2" class="node">
<title>Node172</title>
<g id="a_node2"><a xlink:href="classAudioBlockIterator.html#afdaa1beeae81dbfb277fae51bee42ca0" target="_top" xlink:title="AudioBlockIterator\l::GetTotalLength2Cur">
<polygon fill="#ffffff" stroke="#000000" points="201,-.5 201,-30.5 320,-30.5 320,-.5 201,-.5"/>
<text text-anchor="start" x="209" y="-18.5" font-family="Helvetica,sans-Serif" font-size="10.00" fill="#000000">AudioBlockIterator</text>
<text text-anchor="middle" x="260.5" y="-7.5" font-family="Helvetica,sans-Serif" font-size="10.00" fill="#000000">::GetTotalLength2Cur</text>
</a>
</g>
</g>
<!-- Node171&#45;&gt;Node172 -->
<g id="edge1" class="edge">
<title>Node171&#45;&gt;Node172</title>
<path fill="none" stroke="#191970" d="M165.2468,-15.5C173.7667,-15.5 182.3634,-15.5 190.7225,-15.5"/>
<polygon fill="#191970" stroke="#191970" points="190.7799,-19.0001 200.7799,-15.5 190.7798,-12.0001 190.7799,-19.0001"/>
</g>
</g>
</svg>
