<?xml version="1.0" encoding="UTF-8" standalone="no"?>
<!DOCTYPE svg PUBLIC "-//W3C//DTD SVG 1.1//EN"
 "http://www.w3.org/Graphics/SVG/1.1/DTD/svg11.dtd">
<!-- Generated by graphviz version 2.40.1 (20161225.0304)
 -->
<!-- Title: FweelinMac::ShowHelp Pages: 1 -->
<svg width="554pt" height="142pt"
 viewBox="0.00 0.00 554.00 142.00" xmlns="http://www.w3.org/2000/svg" xmlns:xlink="http://www.w3.org/1999/xlink">
<g id="graph0" class="graph" transform="scale(1 1) rotate(0) translate(4 138)">
<title>FweelinMac::ShowHelp</title>
<polygon fill="#ffffff" stroke="transparent" points="-4,4 -4,-138 550,-138 550,4 -4,4"/>
<!-- Node34 -->
<g id="node1" class="node">
<title>Node34</title>
<polygon fill="#bfbfbf" stroke="#000000" points="0,-76.5 0,-95.5 128,-95.5 128,-76.5 0,-76.5"/>
<text text-anchor="middle" x="64" y="-83.5" font-family="Helvetica,sans-Serif" font-size="10.00" fill="#000000">FweelinMac::ShowHelp</text>
</g>
<!-- Node35 -->
<g id="node2" class="node">
<title>Node35</title>
<g id="a_node2"><a xlink:href="classEvent.html#aa67af0ae99b897e4f0ce42068c4e4c00" target="_top" xlink:title="Event::GetEventByType">
<polygon fill="#ffffff" stroke="#000000" points="194,-114.5 194,-133.5 325,-133.5 325,-114.5 194,-114.5"/>
<text text-anchor="middle" x="259.5" y="-121.5" font-family="Helvetica,sans-Serif" font-size="10.00" fill="#000000">Event::GetEventByType</text>
</a>
</g>
</g>
<!-- Node34&#45;&gt;Node35 -->
<g id="edge1" class="edge">
<title>Node34&#45;&gt;Node35</title>
<path fill="none" stroke="#191970" d="M113.0806,-95.54C139.5741,-100.6896 172.4717,-107.084 200.3688,-112.5065"/>
<polygon fill="#191970" stroke="#191970" points="199.9151,-115.9837 210.3992,-114.4561 201.2508,-109.1123 199.9151,-115.9837"/>
</g>
<!-- Node36 -->
<g id="node3" class="node">
<title>Node36</title>
<g id="a_node3"><a xlink:href="classFweelin.html#a21e51d7b639faaecc415624ab6c16a71" target="_top" xlink:title="Fweelin::getEMG">
<polygon fill="#ffffff" stroke="#000000" points="210.5,-76.5 210.5,-95.5 308.5,-95.5 308.5,-76.5 210.5,-76.5"/>
<text text-anchor="middle" x="259.5" y="-83.5" font-family="Helvetica,sans-Serif" font-size="10.00" fill="#000000">Fweelin::getEMG</text>
</a>
</g>
</g>
<!-- Node34&#45;&gt;Node36 -->
<g id="edge2" class="edge">
<title>Node34&#45;&gt;Node36</title>
<path fill="none" stroke="#191970" d="M128.014,-86C151.1907,-86 177.2514,-86 200.0218,-86"/>
<polygon fill="#191970" stroke="#191970" points="200.2303,-89.5001 210.2302,-86 200.2302,-82.5001 200.2303,-89.5001"/>
</g>
<!-- Node37 -->
<g id="node4" class="node">
<title>Node37</title>
<g id="a_node4"><a xlink:href="classEventManager.html#a4a73f2e7ff1724f28427f7c0d5725c8e" target="_top" xlink:title="EventManager::BroadcastEventNow">
<polygon fill="#ffffff" stroke="#000000" points="164,-38.5 164,-57.5 355,-57.5 355,-38.5 164,-38.5"/>
<text text-anchor="middle" x="259.5" y="-45.5" font-family="Helvetica,sans-Serif" font-size="10.00" fill="#000000">EventManager::BroadcastEventNow</text>
</a>
</g>
</g>
<!-- Node34&#45;&gt;Node37 -->
<g id="edge3" class="edge">
<title>Node34&#45;&gt;Node37</title>
<path fill="none" stroke="#191970" d="M113.0806,-76.46C139.5741,-71.3104 172.4717,-64.916 200.3688,-59.4935"/>
<polygon fill="#191970" stroke="#191970" points="201.2508,-62.8877 210.3992,-57.5439 199.9151,-56.0163 201.2508,-62.8877"/>
</g>
<!-- Node38 -->
<g id="node5" class="node">
<title>Node38</title>
<g id="a_node5"><a xlink:href="classEvent.html#ac4c4170579544b41dff38ca1b8110e30" target="_top" xlink:title="Event::GetType">
<polygon fill="#ffffff" stroke="#000000" points="423.5,-76.5 423.5,-95.5 513.5,-95.5 513.5,-76.5 423.5,-76.5"/>
<text text-anchor="middle" x="468.5" y="-83.5" font-family="Helvetica,sans-Serif" font-size="10.00" fill="#000000">Event::GetType</text>
</a>
</g>
</g>
<!-- Node37&#45;&gt;Node38 -->
<g id="edge4" class="edge">
<title>Node37&#45;&gt;Node38</title>
<path fill="none" stroke="#191970" d="M311.9698,-57.54C342.9568,-63.174 382.1385,-70.2979 413.5488,-76.0089"/>
<polygon fill="#191970" stroke="#191970" points="412.9888,-79.4644 423.4536,-77.8097 414.241,-72.5773 412.9888,-79.4644"/>
</g>
<!-- Node39 -->
<g id="node6" class="node">
<title>Node39</title>
<g id="a_node6"><a xlink:href="classEventListener.html#a831820a9229e852bd7e2fad686b725b2" target="_top" xlink:title="EventListener::ReceiveEvent">
<polygon fill="#ffffff" stroke="#000000" points="391,-38.5 391,-57.5 546,-57.5 546,-38.5 391,-38.5"/>
<text text-anchor="middle" x="468.5" y="-45.5" font-family="Helvetica,sans-Serif" font-size="10.00" fill="#000000">EventListener::ReceiveEvent</text>
</a>
</g>
</g>
<!-- Node37&#45;&gt;Node39 -->
<g id="edge5" class="edge">
<title>Node37&#45;&gt;Node39</title>
<path fill="none" stroke="#191970" d="M355.1311,-48C363.6132,-48 372.1737,-48 380.5871,-48"/>
<polygon fill="#191970" stroke="#191970" points="380.7614,-51.5001 390.7614,-48 380.7614,-44.5001 380.7614,-51.5001"/>
</g>
<!-- Node40 -->
<g id="node7" class="node">
<title>Node40</title>
<g id="a_node7"><a xlink:href="classPreallocated.html#aaf2139a79ca16de70acd9bc4564171b7" target="_top" xlink:title="Preallocated::RTDelete">
<polygon fill="#ffffff" stroke="#000000" points="404.5,-.5 404.5,-19.5 532.5,-19.5 532.5,-.5 404.5,-.5"/>
<text text-anchor="middle" x="468.5" y="-7.5" font-family="Helvetica,sans-Serif" font-size="10.00" fill="#000000">Preallocated::RTDelete</text>
</a>
</g>
</g>
<!-- Node37&#45;&gt;Node40 -->
<g id="edge6" class="edge">
<title>Node37&#45;&gt;Node40</title>
<path fill="none" stroke="#191970" d="M311.9698,-38.46C340.5413,-33.2652 376.0796,-26.8037 406.0691,-21.3511"/>
<polygon fill="#191970" stroke="#191970" points="406.7961,-24.7764 416.0087,-19.5439 405.5438,-17.8893 406.7961,-24.7764"/>
</g>
</g>
</svg>
