<?xml version="1.0" encoding="UTF-8" standalone="no"?>
<!DOCTYPE svg PUBLIC "-//W3C//DTD SVG 1.1//EN"
 "http://www.w3.org/Graphics/SVG/1.1/DTD/svg11.dtd">
<!-- Generated by graphviz version 2.40.1 (20161225.0304)
 -->
<!-- Title: SLinkList::AddToHead Pages: 1 -->
<svg width="536pt" height="28pt"
 viewBox="0.00 0.00 536.00 28.00" xmlns="http://www.w3.org/2000/svg" xmlns:xlink="http://www.w3.org/1999/xlink">
<g id="graph0" class="graph" transform="scale(1 1) rotate(0) translate(4 24)">
<title>SLinkList::AddToHead</title>
<polygon fill="#ffffff" stroke="transparent" points="-4,4 -4,-24 532,-24 532,4 -4,4"/>
<!-- Node3 -->
<g id="node1" class="node">
<title>Node3</title>
<polygon fill="#bfbfbf" stroke="#000000" points="0,-.5 0,-19.5 121,-19.5 121,-.5 0,-.5"/>
<text text-anchor="middle" x="60.5" y="-7.5" font-family="Helvetica,sans-Serif" font-size="10.00" fill="#000000">SLinkList::AddToHead</text>
</g>
<!-- Node4 -->
<g id="node2" class="node">
<title>Node4</title>
<g id="a_node2"><a xlink:href="classMemoryManager.html#a82e879292ba9d168464a09d47f7c0ff0" target="_top" xlink:title="MemoryManager::AddType">
<polygon fill="#ffffff" stroke="#000000" points="157,-.5 157,-19.5 303,-19.5 303,-.5 157,-.5"/>
<text text-anchor="middle" x="230" y="-7.5" font-family="Helvetica,sans-Serif" font-size="10.00" fill="#000000">MemoryManager::AddType</text>
</a>
</g>
</g>
<!-- Node3&#45;&gt;Node4 -->
<g id="edge1" class="edge">
<title>Node3&#45;&gt;Node4</title>
<path fill="none" stroke="#191970" d="M131.405,-10C139.8552,-10 148.4941,-10 156.9734,-10"/>
<polygon fill="#191970" stroke="#191970" points="131.2147,-6.5001 121.2146,-10 131.2146,-13.5001 131.2147,-6.5001"/>
</g>
<!-- Node5 -->
<g id="node3" class="node">
<title>Node5</title>
<g id="a_node3"><a xlink:href="classPreallocatedType.html#a47a56c8e647fd52937675b473657fb9c" target="_top" xlink:title="PreallocatedType::PreallocatedType">
<polygon fill="#ffffff" stroke="#000000" points="339,-.5 339,-19.5 528,-19.5 528,-.5 339,-.5"/>
<text text-anchor="middle" x="433.5" y="-7.5" font-family="Helvetica,sans-Serif" font-size="10.00" fill="#000000">PreallocatedType::PreallocatedType</text>
</a>
</g>
</g>
<!-- Node4&#45;&gt;Node5 -->
<g id="edge2" class="edge">
<title>Node4&#45;&gt;Node5</title>
<path fill="none" stroke="#191970" d="M313.379,-10C321.8243,-10 330.4442,-10 338.9955,-10"/>
<polygon fill="#191970" stroke="#191970" points="313.1807,-6.5001 303.1807,-10 313.1806,-13.5001 313.1807,-6.5001"/>
</g>
</g>
</svg>
