<?xml version="1.0" encoding="UTF-8" standalone="no"?>
<!DOCTYPE svg PUBLIC "-//W3C//DTD SVG 1.1//EN"
 "http://www.w3.org/Graphics/SVG/1.1/DTD/svg11.dtd">
<!-- Generated by graphviz version 2.40.1 (20161225.0304)
 -->
<!-- Title: LibraryHelper::GetLoopFilenameFromStub Pages: 1 -->
<svg width="362pt" height="66pt"
 viewBox="0.00 0.00 362.00 66.00" xmlns="http://www.w3.org/2000/svg" xmlns:xlink="http://www.w3.org/1999/xlink">
<g id="graph0" class="graph" transform="scale(1 1) rotate(0) translate(4 62)">
<title>LibraryHelper::GetLoopFilenameFromStub</title>
<polygon fill="#ffffff" stroke="transparent" points="-4,4 -4,-62 358,-62 358,4 -4,4"/>
<!-- Node4 -->
<g id="node1" class="node">
<title>Node4</title>
<polygon fill="#bfbfbf" stroke="#000000" points="0,-14 0,-44 173,-44 173,-14 0,-14"/>
<text text-anchor="start" x="8" y="-32" font-family="Helvetica,sans-Serif" font-size="10.00" fill="#000000">LibraryHelper::GetLoopFilename</text>
<text text-anchor="middle" x="86.5" y="-21" font-family="Helvetica,sans-Serif" font-size="10.00" fill="#000000">FromStub</text>
</g>
<!-- Node5 -->
<g id="node2" class="node">
<title>Node5</title>
<g id="a_node2"><a xlink:href="classFweelin.html#a681d7ca8d0789199af135f22c26a5409" target="_top" xlink:title="Fweelin::getCFG">
<polygon fill="#ffffff" stroke="#000000" points="234,-38.5 234,-57.5 329,-57.5 329,-38.5 234,-38.5"/>
<text text-anchor="middle" x="281.5" y="-45.5" font-family="Helvetica,sans-Serif" font-size="10.00" fill="#000000">Fweelin::getCFG</text>
</a>
</g>
</g>
<!-- Node4&#45;&gt;Node5 -->
<g id="edge1" class="edge">
<title>Node4&#45;&gt;Node5</title>
<path fill="none" stroke="#191970" d="M173.1654,-37.4443C190.2708,-39.111 207.8265,-40.8216 223.6915,-42.3674"/>
<polygon fill="#191970" stroke="#191970" points="223.5589,-45.8709 233.8512,-43.3573 224.2378,-38.9039 223.5589,-45.8709"/>
</g>
<!-- Node6 -->
<g id="node3" class="node">
<title>Node6</title>
<g id="a_node3"><a xlink:href="classFloConfig.html#a093cc61cbfbab35ca8ab89dc113922dc" target="_top" xlink:title="FloConfig::GetAudioFileExt">
<polygon fill="#ffffff" stroke="#000000" points="209,-.5 209,-19.5 354,-19.5 354,-.5 209,-.5"/>
<text text-anchor="middle" x="281.5" y="-7.5" font-family="Helvetica,sans-Serif" font-size="10.00" fill="#000000">FloConfig::GetAudioFileExt</text>
</a>
</g>
</g>
<!-- Node4&#45;&gt;Node6 -->
<g id="edge2" class="edge">
<title>Node4&#45;&gt;Node6</title>
<path fill="none" stroke="#191970" d="M173.1654,-20.5557C181.6263,-19.7313 190.1974,-18.8962 198.6196,-18.0755"/>
<polygon fill="#191970" stroke="#191970" points="199.1881,-21.5368 208.8015,-17.0834 198.5092,-14.5698 199.1881,-21.5368"/>
</g>
</g>
</svg>
