<?xml version="1.0" encoding="UTF-8" standalone="no"?>
<!DOCTYPE svg PUBLIC "-//W3C//DTD SVG 1.1//EN"
 "http://www.w3.org/Graphics/SVG/1.1/DTD/svg11.dtd">
<!-- Generated by graphviz version 2.40.1 (20161225.0304)
 -->
<!-- Title: FloDisplayParamSet Pages: 1 -->
<svg width="359pt" height="468pt"
 viewBox="0.00 0.00 358.50 468.00" xmlns="http://www.w3.org/2000/svg" xmlns:xlink="http://www.w3.org/1999/xlink">
<g id="graph0" class="graph" transform="scale(1 1) rotate(0) translate(4 464)">
<title>FloDisplayParamSet</title>
<polygon fill="#ffffff" stroke="transparent" points="-4,4 -4,-464 354.5,-464 354.5,4 -4,4"/>
<!-- Node0 -->
<g id="node1" class="node">
<title>Node0</title>
<polygon fill="#bfbfbf" stroke="#000000" points="124.5,-.5 124.5,-222.5 265.5,-222.5 265.5,-.5 124.5,-.5"/>
<text text-anchor="middle" x="195" y="-210.5" font-family="Helvetica,sans-Serif" font-size="10.00" fill="#000000">FloDisplayParamSet</text>
<polyline fill="none" stroke="#000000" points="124.5,-203.5 265.5,-203.5 "/>
<text text-anchor="start" x="132.5" y="-191.5" font-family="Helvetica,sans-Serif" font-size="10.00" fill="#000000">+ app</text>
<text text-anchor="start" x="132.5" y="-180.5" font-family="Helvetica,sans-Serif" font-size="10.00" fill="#000000">+ name</text>
<text text-anchor="start" x="132.5" y="-169.5" font-family="Helvetica,sans-Serif" font-size="10.00" fill="#000000">+ numactiveparams</text>
<text text-anchor="start" x="132.5" y="-158.5" font-family="Helvetica,sans-Serif" font-size="10.00" fill="#000000">+ activeparam</text>
<text text-anchor="start" x="132.5" y="-147.5" font-family="Helvetica,sans-Serif" font-size="10.00" fill="#000000">+ invalidparam</text>
<text text-anchor="start" x="132.5" y="-136.5" font-family="Helvetica,sans-Serif" font-size="10.00" fill="#000000">+ sx</text>
<text text-anchor="start" x="132.5" y="-125.5" font-family="Helvetica,sans-Serif" font-size="10.00" fill="#000000">+ sy</text>
<text text-anchor="start" x="132.5" y="-114.5" font-family="Helvetica,sans-Serif" font-size="10.00" fill="#000000">+ margin</text>
<text text-anchor="start" x="132.5" y="-103.5" font-family="Helvetica,sans-Serif" font-size="10.00" fill="#000000">+ numbanks</text>
<text text-anchor="start" x="132.5" y="-92.5" font-family="Helvetica,sans-Serif" font-size="10.00" fill="#000000">+ curbank</text>
<text text-anchor="start" x="132.5" y="-81.5" font-family="Helvetica,sans-Serif" font-size="10.00" fill="#000000">+ banks</text>
<polyline fill="none" stroke="#000000" points="124.5,-74.5 265.5,-74.5 "/>
<text text-anchor="start" x="132.5" y="-62.5" font-family="Helvetica,sans-Serif" font-size="10.00" fill="#000000">+ FloDisplayParamSet()</text>
<text text-anchor="start" x="132.5" y="-51.5" font-family="Helvetica,sans-Serif" font-size="10.00" fill="#000000">+ ~FloDisplayParamSet()</text>
<text text-anchor="start" x="132.5" y="-40.5" font-family="Helvetica,sans-Serif" font-size="10.00" fill="#000000">+ ListenEvents()</text>
<text text-anchor="start" x="132.5" y="-29.5" font-family="Helvetica,sans-Serif" font-size="10.00" fill="#000000">+ GetFloDisplayType()</text>
<text text-anchor="start" x="132.5" y="-18.5" font-family="Helvetica,sans-Serif" font-size="10.00" fill="#000000">+ Draw()</text>
<text text-anchor="start" x="132.5" y="-7.5" font-family="Helvetica,sans-Serif" font-size="10.00" fill="#000000">+ ReceiveEvent()</text>
</g>
<!-- Node1 -->
<g id="node2" class="node">
<title>Node1</title>
<g id="a_node2"><a xlink:href="classFloDisplay.html" target="_top" xlink:title="{FloDisplay\n|+ iid\l+ id\l+ exp\l+ font\l+ title\l+ xpos\l+ ypos\l+ show\l+ forceshow\l+ next\l|+ FloDisplay()\l+ ~FloDisplay()\l+ Draw()\l+ GetFloDisplayType()\l+ SetShow()\l}">
<polygon fill="#ffffff" stroke="#000000" points="0,-259.5 0,-459.5 126,-459.5 126,-259.5 0,-259.5"/>
<text text-anchor="middle" x="63" y="-447.5" font-family="Helvetica,sans-Serif" font-size="10.00" fill="#000000">FloDisplay</text>
<polyline fill="none" stroke="#000000" points="0,-440.5 126,-440.5 "/>
<text text-anchor="start" x="8" y="-428.5" font-family="Helvetica,sans-Serif" font-size="10.00" fill="#000000">+ iid</text>
<text text-anchor="start" x="8" y="-417.5" font-family="Helvetica,sans-Serif" font-size="10.00" fill="#000000">+ id</text>
<text text-anchor="start" x="8" y="-406.5" font-family="Helvetica,sans-Serif" font-size="10.00" fill="#000000">+ exp</text>
<text text-anchor="start" x="8" y="-395.5" font-family="Helvetica,sans-Serif" font-size="10.00" fill="#000000">+ font</text>
<text text-anchor="start" x="8" y="-384.5" font-family="Helvetica,sans-Serif" font-size="10.00" fill="#000000">+ title</text>
<text text-anchor="start" x="8" y="-373.5" font-family="Helvetica,sans-Serif" font-size="10.00" fill="#000000">+ xpos</text>
<text text-anchor="start" x="8" y="-362.5" font-family="Helvetica,sans-Serif" font-size="10.00" fill="#000000">+ ypos</text>
<text text-anchor="start" x="8" y="-351.5" font-family="Helvetica,sans-Serif" font-size="10.00" fill="#000000">+ show</text>
<text text-anchor="start" x="8" y="-340.5" font-family="Helvetica,sans-Serif" font-size="10.00" fill="#000000">+ forceshow</text>
<text text-anchor="start" x="8" y="-329.5" font-family="Helvetica,sans-Serif" font-size="10.00" fill="#000000">+ next</text>
<polyline fill="none" stroke="#000000" points="0,-322.5 126,-322.5 "/>
<text text-anchor="start" x="8" y="-310.5" font-family="Helvetica,sans-Serif" font-size="10.00" fill="#000000">+ FloDisplay()</text>
<text text-anchor="start" x="8" y="-299.5" font-family="Helvetica,sans-Serif" font-size="10.00" fill="#000000">+ ~FloDisplay()</text>
<text text-anchor="start" x="8" y="-288.5" font-family="Helvetica,sans-Serif" font-size="10.00" fill="#000000">+ Draw()</text>
<text text-anchor="start" x="8" y="-277.5" font-family="Helvetica,sans-Serif" font-size="10.00" fill="#000000">+ GetFloDisplayType()</text>
<text text-anchor="start" x="8" y="-266.5" font-family="Helvetica,sans-Serif" font-size="10.00" fill="#000000">+ SetShow()</text>
</a>
</g>
</g>
<!-- Node1&#45;&gt;Node0 -->
<g id="edge1" class="edge">
<title>Node1&#45;&gt;Node0</title>
<path fill="none" stroke="#191970" d="M121.0136,-250.5047C125.9438,-241.242 130.9342,-231.866 135.8728,-222.5875"/>
<polygon fill="none" stroke="#191970" points="117.9179,-248.8718 116.309,-259.3438 124.0971,-252.1608 117.9179,-248.8718"/>
</g>
<!-- Node2 -->
<g id="node3" class="node">
<title>Node2</title>
<g id="a_node3"><a xlink:href="classEventListener.html" target="_top" xlink:title="{EventListener\n||+ ReceiveEvent()\l}">
<polygon fill="#ffffff" stroke="#000000" points="144.5,-331 144.5,-388 245.5,-388 245.5,-331 144.5,-331"/>
<text text-anchor="middle" x="195" y="-376" font-family="Helvetica,sans-Serif" font-size="10.00" fill="#000000">EventListener</text>
<polyline fill="none" stroke="#000000" points="144.5,-369 245.5,-369 "/>
<text text-anchor="middle" x="195" y="-357" font-family="Helvetica,sans-Serif" font-size="10.00" fill="#000000"> </text>
<polyline fill="none" stroke="#000000" points="144.5,-350 245.5,-350 "/>
<text text-anchor="start" x="152.5" y="-338" font-family="Helvetica,sans-Serif" font-size="10.00" fill="#000000">+ ReceiveEvent()</text>
</a>
</g>
</g>
<!-- Node2&#45;&gt;Node0 -->
<g id="edge2" class="edge">
<title>Node2&#45;&gt;Node0</title>
<path fill="none" stroke="#191970" d="M195,-320.221C195,-293.7634 195,-257.4451 195,-222.5161"/>
<polygon fill="none" stroke="#191970" points="191.5001,-320.5659 195,-330.5659 198.5001,-320.5659 191.5001,-320.5659"/>
</g>
<!-- Node3 -->
<g id="node4" class="node">
<title>Node3</title>
<g id="a_node4"><a xlink:href="classEventProducer.html" target="_top" xlink:title="{EventProducer\n||}">
<polygon fill="#ffffff" stroke="#000000" points="263.5,-331 263.5,-388 350.5,-388 350.5,-331 263.5,-331"/>
<text text-anchor="middle" x="307" y="-376" font-family="Helvetica,sans-Serif" font-size="10.00" fill="#000000">EventProducer</text>
<polyline fill="none" stroke="#000000" points="263.5,-369 350.5,-369 "/>
<text text-anchor="middle" x="307" y="-357" font-family="Helvetica,sans-Serif" font-size="10.00" fill="#000000"> </text>
<polyline fill="none" stroke="#000000" points="263.5,-350 350.5,-350 "/>
<text text-anchor="middle" x="307" y="-338" font-family="Helvetica,sans-Serif" font-size="10.00" fill="#000000"> </text>
</a>
</g>
</g>
<!-- Node3&#45;&gt;Node0 -->
<g id="edge3" class="edge">
<title>Node3&#45;&gt;Node0</title>
<path fill="none" stroke="#191970" d="M289.7367,-321.2741C277.75,-294.7321 261.121,-257.9108 245.1363,-222.5161"/>
<polygon fill="none" stroke="#191970" points="286.6273,-322.8927 293.933,-330.5659 293.0069,-320.0116 286.6273,-322.8927"/>
</g>
</g>
</svg>
