<?xml version="1.0" encoding="UTF-8" standalone="no"?>
<!DOCTYPE svg PUBLIC "-//W3C//DTD SVG 1.1//EN"
 "http://www.w3.org/Graphics/SVG/1.1/DTD/svg11.dtd">
<!-- Generated by graphviz version 2.40.1 (20161225.0304)
 -->
<!-- Title: TriggerMap::CountLoops Pages: 1 -->
<svg width="671pt" height="66pt"
 viewBox="0.00 0.00 671.00 66.00" xmlns="http://www.w3.org/2000/svg" xmlns:xlink="http://www.w3.org/1999/xlink">
<g id="graph0" class="graph" transform="scale(1 1) rotate(0) translate(4 62)">
<title>TriggerMap::CountLoops</title>
<polygon fill="#ffffff" stroke="transparent" points="-4,4 -4,-62 667,-62 667,4 -4,4"/>
<!-- Node6 -->
<g id="node1" class="node">
<title>Node6</title>
<polygon fill="#bfbfbf" stroke="#000000" points="0,-19.5 0,-38.5 133,-38.5 133,-19.5 0,-19.5"/>
<text text-anchor="middle" x="66.5" y="-26.5" font-family="Helvetica,sans-Serif" font-size="10.00" fill="#000000">TriggerMap::CountLoops</text>
</g>
<!-- Node7 -->
<g id="node2" class="node">
<title>Node7</title>
<g id="a_node2"><a xlink:href="classSnapshot.html#a1616e84bbc439dfb50eb827a27e4f6fd" target="_top" xlink:title="Snapshot::CreateSnapshot">
<polygon fill="#ffffff" stroke="#000000" points="169,-19.5 169,-38.5 314,-38.5 314,-19.5 169,-19.5"/>
<text text-anchor="middle" x="241.5" y="-26.5" font-family="Helvetica,sans-Serif" font-size="10.00" fill="#000000">Snapshot::CreateSnapshot</text>
</a>
</g>
</g>
<!-- Node6&#45;&gt;Node7 -->
<g id="edge1" class="edge">
<title>Node6&#45;&gt;Node7</title>
<path fill="none" stroke="#191970" d="M143.4048,-29C151.8769,-29 160.4834,-29 168.9004,-29"/>
<polygon fill="#191970" stroke="#191970" points="143.1593,-25.5001 133.1592,-29 143.1592,-32.5001 143.1593,-25.5001"/>
</g>
<!-- Node8 -->
<g id="node3" class="node">
<title>Node8</title>
<g id="a_node3"><a xlink:href="classFweelin.html#a46ac4eb76aa2025f2bec97c23658abef" target="_top" xlink:title="Fweelin::CreateSnapshot">
<polygon fill="#ffffff" stroke="#000000" points="350,-38.5 350,-57.5 487,-57.5 487,-38.5 350,-38.5"/>
<text text-anchor="middle" x="418.5" y="-45.5" font-family="Helvetica,sans-Serif" font-size="10.00" fill="#000000">Fweelin::CreateSnapshot</text>
</a>
</g>
</g>
<!-- Node7&#45;&gt;Node8 -->
<g id="edge2" class="edge">
<title>Node7&#45;&gt;Node8</title>
<path fill="none" stroke="#191970" d="M324.066,-37.863C332.6842,-38.7881 341.3777,-39.7213 349.8178,-40.6273"/>
<polygon fill="#191970" stroke="#191970" points="324.3198,-34.3702 314.0034,-36.7828 323.5727,-41.3303 324.3198,-34.3702"/>
</g>
<!-- Node9 -->
<g id="node4" class="node">
<title>Node9</title>
<g id="a_node4"><a xlink:href="classFweelin.html#a057cfd43583e073f0216dd275e4b26a7" target="_top" xlink:title="Fweelin::LoadSnapshot">
<polygon fill="#ffffff" stroke="#000000" points="354.5,-.5 354.5,-19.5 482.5,-19.5 482.5,-.5 354.5,-.5"/>
<text text-anchor="middle" x="418.5" y="-7.5" font-family="Helvetica,sans-Serif" font-size="10.00" fill="#000000">Fweelin::LoadSnapshot</text>
</a>
</g>
</g>
<!-- Node7&#45;&gt;Node9 -->
<g id="edge3" class="edge">
<title>Node7&#45;&gt;Node9</title>
<path fill="none" stroke="#191970" d="M324.1023,-20.1331C334.2558,-19.0432 344.5133,-17.9421 354.3369,-16.8876"/>
<polygon fill="#191970" stroke="#191970" points="323.5727,-16.6697 314.0034,-21.2172 324.3198,-23.6298 323.5727,-16.6697"/>
</g>
<!-- Node10 -->
<g id="node5" class="node">
<title>Node10</title>
<g id="a_node5"><a xlink:href="classLoopManager.html#a05a6a438d14482e2f22aa802cfb432e8" target="_top" xlink:title="LoopManager::LoadScene">
<polygon fill="#ffffff" stroke="#000000" points="523,-.5 523,-19.5 663,-19.5 663,-.5 523,-.5"/>
<text text-anchor="middle" x="593" y="-7.5" font-family="Helvetica,sans-Serif" font-size="10.00" fill="#000000">LoopManager::LoadScene</text>
</a>
</g>
</g>
<!-- Node9&#45;&gt;Node10 -->
<g id="edge4" class="edge">
<title>Node9&#45;&gt;Node10</title>
<path fill="none" stroke="#191970" d="M493.1667,-10C503.0375,-10 513.1278,-10 522.9178,-10"/>
<polygon fill="#191970" stroke="#191970" points="492.9816,-6.5001 482.9816,-10 492.9815,-13.5001 492.9816,-6.5001"/>
</g>
</g>
</svg>
