<?xml version="1.0" encoding="UTF-8" standalone="no"?>
<!DOCTYPE svg PUBLIC "-//W3C//DTD SVG 1.1//EN"
 "http://www.w3.org/Graphics/SVG/1.1/DTD/svg11.dtd">
<!-- Generated by graphviz version 2.40.1 (20161225.0304)
 -->
<!-- Title: LoopManager::GetLongCountForAllPlayingLoops Pages: 1 -->
<svg width="448pt" height="256pt"
 viewBox="0.00 0.00 448.00 256.00" xmlns="http://www.w3.org/2000/svg" xmlns:xlink="http://www.w3.org/1999/xlink">
<g id="graph0" class="graph" transform="scale(1 1) rotate(0) translate(4 252)">
<title>LoopManager::GetLongCountForAllPlayingLoops</title>
<polygon fill="#ffffff" stroke="transparent" points="-4,4 -4,-252 444,-252 444,4 -4,4"/>
<!-- Node385 -->
<g id="node1" class="node">
<title>Node385</title>
<polygon fill="#bfbfbf" stroke="#000000" points="0,-109 0,-139 157,-139 157,-109 0,-109"/>
<text text-anchor="start" x="8" y="-127" font-family="Helvetica,sans-Serif" font-size="10.00" fill="#000000">LoopManager::GetLongCount</text>
<text text-anchor="middle" x="78.5" y="-116" font-family="Helvetica,sans-Serif" font-size="10.00" fill="#000000">ForAllPlayingLoops</text>
</g>
<!-- Node386 -->
<g id="node2" class="node">
<title>Node386</title>
<g id="a_node2"><a xlink:href="classFweelin.html#a681d7ca8d0789199af135f22c26a5409" target="_top" xlink:title="Fweelin::getCFG">
<polygon fill="#ffffff" stroke="#000000" points="218.5,-228.5 218.5,-247.5 313.5,-247.5 313.5,-228.5 218.5,-228.5"/>
<text text-anchor="middle" x="266" y="-235.5" font-family="Helvetica,sans-Serif" font-size="10.00" fill="#000000">Fweelin::getCFG</text>
</a>
</g>
</g>
<!-- Node385&#45;&gt;Node386 -->
<g id="edge1" class="edge">
<title>Node385&#45;&gt;Node386</title>
<path fill="none" stroke="#191970" d="M92.516,-139.2434C112.7106,-160.2928 152.0838,-198.03 193,-219 197.8803,-221.5012 203.1172,-223.6925 208.4635,-225.6084"/>
<polygon fill="#191970" stroke="#191970" points="207.5592,-228.9948 218.1516,-228.7669 209.7291,-222.3396 207.5592,-228.9948"/>
</g>
<!-- Node387 -->
<g id="node3" class="node">
<title>Node387</title>
<g id="a_node3"><a xlink:href="classFloConfig.html#aced480ca5828c2c7b6841441a9b3d86d" target="_top" xlink:title="FloConfig::GetNumTriggers">
<polygon fill="#ffffff" stroke="#000000" points="193,-190.5 193,-209.5 339,-209.5 339,-190.5 193,-190.5"/>
<text text-anchor="middle" x="266" y="-197.5" font-family="Helvetica,sans-Serif" font-size="10.00" fill="#000000">FloConfig::GetNumTriggers</text>
</a>
</g>
</g>
<!-- Node385&#45;&gt;Node387 -->
<g id="edge2" class="edge">
<title>Node385&#45;&gt;Node387</title>
<path fill="none" stroke="#191970" d="M105.0915,-139.2175C127.8576,-151.7586 161.8067,-169.3206 193,-181 199.4273,-183.4065 206.2823,-185.624 213.1206,-187.6289"/>
<polygon fill="#191970" stroke="#191970" points="212.5026,-191.0903 223.0757,-190.4116 214.3871,-184.3487 212.5026,-191.0903"/>
</g>
<!-- Node388 -->
<g id="node4" class="node">
<title>Node388</title>
<g id="a_node4"><a xlink:href="classFweelin.html#a7b1253ea49ee57244a0d8cca152d72e5" target="_top" xlink:title="Fweelin::getLOOPMGR">
<polygon fill="#ffffff" stroke="#000000" points="203.5,-152.5 203.5,-171.5 328.5,-171.5 328.5,-152.5 203.5,-152.5"/>
<text text-anchor="middle" x="266" y="-159.5" font-family="Helvetica,sans-Serif" font-size="10.00" fill="#000000">Fweelin::getLOOPMGR</text>
</a>
</g>
</g>
<!-- Node385&#45;&gt;Node388 -->
<g id="edge3" class="edge">
<title>Node385&#45;&gt;Node388</title>
<path fill="none" stroke="#191970" d="M152.605,-139.0186C171.3445,-142.8165 191.1804,-146.8366 208.9329,-150.4344"/>
<polygon fill="#191970" stroke="#191970" points="208.6245,-153.943 219.1204,-152.4991 210.0149,-147.0825 208.6245,-153.943"/>
</g>
<!-- Node389 -->
<g id="node5" class="node">
<title>Node389</title>
<g id="a_node5"><a xlink:href="classLoopManager.html#a66574bbc447d4f891ef382469c521b05" target="_top" xlink:title="LoopManager::GetStatus">
<polygon fill="#ffffff" stroke="#000000" points="198,-114.5 198,-133.5 334,-133.5 334,-114.5 198,-114.5"/>
<text text-anchor="middle" x="266" y="-121.5" font-family="Helvetica,sans-Serif" font-size="10.00" fill="#000000">LoopManager::GetStatus</text>
</a>
</g>
</g>
<!-- Node385&#45;&gt;Node389 -->
<g id="edge4" class="edge">
<title>Node385&#45;&gt;Node389</title>
<path fill="none" stroke="#191970" d="M157.2019,-124C167.3489,-124 177.7375,-124 187.8751,-124"/>
<polygon fill="#191970" stroke="#191970" points="187.911,-127.5001 197.911,-124 187.911,-120.5001 187.911,-127.5001"/>
</g>
<!-- Node390 -->
<g id="node6" class="node">
<title>Node390</title>
<g id="a_node6"><a xlink:href="classFweelin.html#a10bb364ecf38990653b49a98c5a89c90" target="_top" xlink:title="Fweelin::getTMAP">
<polygon fill="#ffffff" stroke="#000000" points="214.5,-76.5 214.5,-95.5 317.5,-95.5 317.5,-76.5 214.5,-76.5"/>
<text text-anchor="middle" x="266" y="-83.5" font-family="Helvetica,sans-Serif" font-size="10.00" fill="#000000">Fweelin::getTMAP</text>
</a>
</g>
</g>
<!-- Node385&#45;&gt;Node390 -->
<g id="edge5" class="edge">
<title>Node385&#45;&gt;Node390</title>
<path fill="none" stroke="#191970" d="M152.605,-108.9814C171.3445,-105.1835 191.1804,-101.1634 208.9329,-97.5656"/>
<polygon fill="#191970" stroke="#191970" points="210.0149,-100.9175 219.1204,-95.5009 208.6245,-94.057 210.0149,-100.9175"/>
</g>
<!-- Node391 -->
<g id="node7" class="node">
<title>Node391</title>
<g id="a_node7"><a xlink:href="classTriggerMap.html#aca3f85b40f3aa29a280c2d7511b84217" target="_top" xlink:title="TriggerMap::GetMap">
<polygon fill="#ffffff" stroke="#000000" points="209.5,-38.5 209.5,-57.5 322.5,-57.5 322.5,-38.5 209.5,-38.5"/>
<text text-anchor="middle" x="266" y="-45.5" font-family="Helvetica,sans-Serif" font-size="10.00" fill="#000000">TriggerMap::GetMap</text>
</a>
</g>
</g>
<!-- Node385&#45;&gt;Node391 -->
<g id="edge6" class="edge">
<title>Node385&#45;&gt;Node391</title>
<path fill="none" stroke="#191970" d="M105.0915,-108.7825C127.8576,-96.2414 161.8067,-78.6794 193,-67 199.4273,-64.5935 206.2823,-62.376 213.1206,-60.3711"/>
<polygon fill="#191970" stroke="#191970" points="214.3871,-63.6513 223.0757,-57.5884 212.5026,-56.9097 214.3871,-63.6513"/>
</g>
<!-- Node392 -->
<g id="node8" class="node">
<title>Node392</title>
<g id="a_node8"><a xlink:href="fweelin__core__dsp_8cc.html#abc995860348321dce04aba6aea4adbb4" target="_top" xlink:title="math_lcm">
<polygon fill="#ffffff" stroke="#000000" points="233.5,-.5 233.5,-19.5 298.5,-19.5 298.5,-.5 233.5,-.5"/>
<text text-anchor="middle" x="266" y="-7.5" font-family="Helvetica,sans-Serif" font-size="10.00" fill="#000000">math_lcm</text>
</a>
</g>
</g>
<!-- Node385&#45;&gt;Node392 -->
<g id="edge7" class="edge">
<title>Node385&#45;&gt;Node392</title>
<path fill="none" stroke="#191970" d="M92.516,-108.7566C112.7106,-87.7072 152.0838,-49.97 193,-29 202.3526,-24.2067 213.0151,-20.5515 223.2472,-17.7918"/>
<polygon fill="#191970" stroke="#191970" points="224.3992,-21.1127 233.2714,-15.3218 222.7244,-14.316 224.3992,-21.1127"/>
</g>
<!-- Node393 -->
<g id="node9" class="node">
<title>Node393</title>
<g id="a_node9"><a xlink:href="fweelin__core__dsp_8cc.html#a69d68c70844804445ba3e106f23c76a4" target="_top" xlink:title="math_gcd">
<polygon fill="#ffffff" stroke="#000000" points="375,-.5 375,-19.5 440,-19.5 440,-.5 375,-.5"/>
<text text-anchor="middle" x="407.5" y="-7.5" font-family="Helvetica,sans-Serif" font-size="10.00" fill="#000000">math_gcd</text>
</a>
</g>
</g>
<!-- Node392&#45;&gt;Node393 -->
<g id="edge8" class="edge">
<title>Node392&#45;&gt;Node393</title>
<path fill="none" stroke="#191970" d="M298.8186,-10C318.4636,-10 343.6482,-10 364.8264,-10"/>
<polygon fill="#191970" stroke="#191970" points="364.8594,-13.5001 374.8594,-10 364.8593,-6.5001 364.8594,-13.5001"/>
</g>
<!-- Node393&#45;&gt;Node393 -->
<g id="edge9" class="edge">
<title>Node393&#45;&gt;Node393</title>
<path fill="none" stroke="#191970" d="M385.9219,-19.7571C375.4245,-28.5653 382.6172,-38 407.5,-38 423.4406,-38 432.1211,-34.128 433.5416,-29.0292"/>
<polygon fill="#191970" stroke="#191970" points="436.5692,-27.2493 429.0781,-19.7571 430.262,-30.2855 436.5692,-27.2493"/>
</g>
</g>
</svg>
