<?xml version="1.0" encoding="UTF-8" standalone="no"?>
<!DOCTYPE svg PUBLIC "-//W3C//DTD SVG 1.1//EN"
 "http://www.w3.org/Graphics/SVG/1.1/DTD/svg11.dtd">
<!-- Generated by graphviz version 2.40.1 (20161225.0304)
 -->
<!-- Title: AudioBlockIterator::Jump Pages: 1 -->
<svg width="522pt" height="180pt"
 viewBox="0.00 0.00 522.00 180.00" xmlns="http://www.w3.org/2000/svg" xmlns:xlink="http://www.w3.org/1999/xlink">
<g id="graph0" class="graph" transform="scale(1 1) rotate(0) translate(4 176)">
<title>AudioBlockIterator::Jump</title>
<polygon fill="#ffffff" stroke="transparent" points="-4,4 -4,-176 518,-176 518,4 -4,4"/>
<!-- Node63 -->
<g id="node1" class="node">
<title>Node63</title>
<polygon fill="#bfbfbf" stroke="#000000" points="0,-71 0,-101 107,-101 107,-71 0,-71"/>
<text text-anchor="start" x="8" y="-89" font-family="Helvetica,sans-Serif" font-size="10.00" fill="#000000">AudioBlockIterator</text>
<text text-anchor="middle" x="53.5" y="-78" font-family="Helvetica,sans-Serif" font-size="10.00" fill="#000000">::Jump</text>
</g>
<!-- Node64 -->
<g id="node2" class="node">
<title>Node64</title>
<g id="a_node2"><a xlink:href="classRecordProcessor.html#a1aea5f833c59a12398b05b514b26b572" target="_top" xlink:title="RecordProcessor::RecordProcessor">
<polygon fill="#ffffff" stroke="#000000" points="143,-152.5 143,-171.5 326,-171.5 326,-152.5 143,-152.5"/>
<text text-anchor="middle" x="234.5" y="-159.5" font-family="Helvetica,sans-Serif" font-size="10.00" fill="#000000">RecordProcessor::RecordProcessor</text>
</a>
</g>
</g>
<!-- Node63&#45;&gt;Node64 -->
<g id="edge1" class="edge">
<title>Node63&#45;&gt;Node64</title>
<path fill="none" stroke="#191970" d="M80.9636,-107.2C97.9788,-119.3629 120.7636,-133.9656 143,-143 152.4696,-146.8474 162.8198,-149.9518 173.0437,-152.4459"/>
<polygon fill="#191970" stroke="#191970" points="82.7636,-104.1803 72.6251,-101.1043 78.6325,-109.8314 82.7636,-104.1803"/>
</g>
<!-- Node65 -->
<g id="node3" class="node">
<title>Node65</title>
<g id="a_node3"><a xlink:href="classRecordProcessor.html#a8fbde2e8b6f9e9dafb89ef0b06e6a11a" target="_top" xlink:title="RecordProcessor::Jump">
<polygon fill="#ffffff" stroke="#000000" points="170.5,-114.5 170.5,-133.5 298.5,-133.5 298.5,-114.5 170.5,-114.5"/>
<text text-anchor="middle" x="234.5" y="-121.5" font-family="Helvetica,sans-Serif" font-size="10.00" fill="#000000">RecordProcessor::Jump</text>
</a>
</g>
</g>
<!-- Node63&#45;&gt;Node65 -->
<g id="edge2" class="edge">
<title>Node63&#45;&gt;Node65</title>
<path fill="none" stroke="#191970" d="M117.4469,-99.6115C126.0358,-101.4291 134.7317,-103.2639 143,-105 157.7666,-108.1005 173.8799,-111.4558 188.4126,-114.4716"/>
<polygon fill="#191970" stroke="#191970" points="117.9537,-96.1412 107.4454,-97.4926 116.5028,-102.9892 117.9537,-96.1412"/>
</g>
<!-- Node67 -->
<g id="node5" class="node">
<title>Node67</title>
<g id="a_node5"><a xlink:href="classRecordProcessor.html#ad36d69ec9d41b424eb2e6c5fa2e0cf3a" target="_top" xlink:title="RecordProcessor::process">
<polygon fill="#ffffff" stroke="#000000" points="164.5,-76.5 164.5,-95.5 304.5,-95.5 304.5,-76.5 164.5,-76.5"/>
<text text-anchor="middle" x="234.5" y="-83.5" font-family="Helvetica,sans-Serif" font-size="10.00" fill="#000000">RecordProcessor::process</text>
</a>
</g>
</g>
<!-- Node63&#45;&gt;Node67 -->
<g id="edge4" class="edge">
<title>Node63&#45;&gt;Node67</title>
<path fill="none" stroke="#191970" d="M117.6181,-86C132.7829,-86 149.0307,-86 164.4438,-86"/>
<polygon fill="#191970" stroke="#191970" points="117.3159,-82.5001 107.3159,-86 117.3159,-89.5001 117.3159,-82.5001"/>
</g>
<!-- Node68 -->
<g id="node6" class="node">
<title>Node68</title>
<g id="a_node6"><a xlink:href="classPlayProcessor.html#a4f2f7e937cc77b2516d03aa76d29519d" target="_top" xlink:title="PlayProcessor::PlayProcessor">
<polygon fill="#ffffff" stroke="#000000" points="155,-38.5 155,-57.5 314,-57.5 314,-38.5 155,-38.5"/>
<text text-anchor="middle" x="234.5" y="-45.5" font-family="Helvetica,sans-Serif" font-size="10.00" fill="#000000">PlayProcessor::PlayProcessor</text>
</a>
</g>
</g>
<!-- Node63&#45;&gt;Node68 -->
<g id="edge5" class="edge">
<title>Node63&#45;&gt;Node68</title>
<path fill="none" stroke="#191970" d="M117.4469,-72.3885C126.0358,-70.5709 134.7317,-68.7361 143,-67 157.7666,-63.8995 173.8799,-60.5442 188.4126,-57.5284"/>
<polygon fill="#191970" stroke="#191970" points="116.5028,-69.0108 107.4454,-74.5074 117.9537,-75.8588 116.5028,-69.0108"/>
</g>
<!-- Node69 -->
<g id="node7" class="node">
<title>Node69</title>
<g id="a_node7"><a xlink:href="classPlayProcessor.html#a13ce406fdf45f876f305b01c031f04a2" target="_top" xlink:title="PlayProcessor::PulseSync">
<polygon fill="#ffffff" stroke="#000000" points="164.5,-.5 164.5,-19.5 304.5,-19.5 304.5,-.5 164.5,-.5"/>
<text text-anchor="middle" x="234.5" y="-7.5" font-family="Helvetica,sans-Serif" font-size="10.00" fill="#000000">PlayProcessor::PulseSync</text>
</a>
</g>
</g>
<!-- Node63&#45;&gt;Node69 -->
<g id="edge6" class="edge">
<title>Node63&#45;&gt;Node69</title>
<path fill="none" stroke="#191970" d="M80.9636,-64.8C97.9788,-52.6371 120.7636,-38.0344 143,-29 152.4696,-25.1526 162.8198,-22.0482 173.0437,-19.5541"/>
<polygon fill="#191970" stroke="#191970" points="78.6325,-62.1686 72.6251,-70.8957 82.7636,-67.8197 78.6325,-62.1686"/>
</g>
<!-- Node66 -->
<g id="node4" class="node">
<title>Node66</title>
<g id="a_node4"><a xlink:href="classRecordProcessor.html#a6168d8dc850602a348dc74ab1224263a" target="_top" xlink:title="RecordProcessor::PulseSync">
<polygon fill="#ffffff" stroke="#000000" points="362,-114.5 362,-133.5 514,-133.5 514,-114.5 362,-114.5"/>
<text text-anchor="middle" x="438" y="-121.5" font-family="Helvetica,sans-Serif" font-size="10.00" fill="#000000">RecordProcessor::PulseSync</text>
</a>
</g>
</g>
<!-- Node65&#45;&gt;Node66 -->
<g id="edge3" class="edge">
<title>Node65&#45;&gt;Node66</title>
<path fill="none" stroke="#191970" d="M308.6385,-124C325.9263,-124 344.3646,-124 361.7424,-124"/>
<polygon fill="#191970" stroke="#191970" points="308.6094,-120.5001 298.6094,-124 308.6093,-127.5001 308.6094,-120.5001"/>
</g>
</g>
</svg>
