<?xml version="1.0" encoding="UTF-8" standalone="no"?>
<!DOCTYPE svg PUBLIC "-//W3C//DTD SVG 1.1//EN"
 "http://www.w3.org/Graphics/SVG/1.1/DTD/svg11.dtd">
<!-- Generated by graphviz version 2.40.1 (20161225.0304)
 -->
<!-- Title: MemoryManager::ProcessQueue Pages: 1 -->
<svg width="599pt" height="249pt"
 viewBox="0.00 0.00 599.00 249.00" xmlns="http://www.w3.org/2000/svg" xmlns:xlink="http://www.w3.org/1999/xlink">
<g id="graph0" class="graph" transform="scale(1 1) rotate(0) translate(4 245)">
<title>MemoryManager::ProcessQueue</title>
<polygon fill="#ffffff" stroke="transparent" points="-4,4 -4,-245 595,-245 595,4 -4,4"/>
<!-- Node28 -->
<g id="node1" class="node">
<title>Node28</title>
<polygon fill="#bfbfbf" stroke="#000000" points="0,-155.5 0,-174.5 173,-174.5 173,-155.5 0,-155.5"/>
<text text-anchor="middle" x="86.5" y="-162.5" font-family="Helvetica,sans-Serif" font-size="10.00" fill="#000000">MemoryManager::ProcessQueue</text>
</g>
<!-- Node29 -->
<g id="node2" class="node">
<title>Node29</title>
<g id="a_node2"><a xlink:href="classSRMWRingBuffer.html#ae907e34d6dc9fff4f1e3955dd3aa53b7" target="_top" xlink:title="SRMWRingBuffer::ReadElement">
<polygon fill="#ffffff" stroke="#000000" points="211.5,-221.5 211.5,-240.5 380.5,-240.5 380.5,-221.5 211.5,-221.5"/>
<text text-anchor="middle" x="296" y="-228.5" font-family="Helvetica,sans-Serif" font-size="10.00" fill="#000000">SRMWRingBuffer::ReadElement</text>
</a>
</g>
</g>
<!-- Node28&#45;&gt;Node29 -->
<g id="edge1" class="edge">
<title>Node28&#45;&gt;Node29</title>
<path fill="none" stroke="#191970" d="M108.2822,-174.5109C132.5112,-184.8169 172.9915,-201.2278 209,-212 217.7018,-214.6032 226.9916,-217.0123 236.1413,-219.1792"/>
<polygon fill="#191970" stroke="#191970" points="235.451,-222.6116 245.9801,-221.4332 237.0142,-215.7884 235.451,-222.6116"/>
</g>
<!-- Node30 -->
<g id="node3" class="node">
<title>Node30</title>
<g id="a_node3"><a xlink:href="classMemoryManagerUpdate.html#aeee060760229cbcbdb9801f9873156d1" target="_top" xlink:title="MemoryManagerUpdate\l::IsValid">
<polygon fill="#ffffff" stroke="#000000" points="229,-172 229,-202 363,-202 363,-172 229,-172"/>
<text text-anchor="start" x="237" y="-190" font-family="Helvetica,sans-Serif" font-size="10.00" fill="#000000">MemoryManagerUpdate</text>
<text text-anchor="middle" x="296" y="-179" font-family="Helvetica,sans-Serif" font-size="10.00" fill="#000000">::IsValid</text>
</a>
</g>
</g>
<!-- Node28&#45;&gt;Node30 -->
<g id="edge2" class="edge">
<title>Node28&#45;&gt;Node30</title>
<path fill="none" stroke="#191970" d="M173.2239,-174.107C188.3151,-175.6918 203.9209,-177.3306 218.7371,-178.8865"/>
<polygon fill="#191970" stroke="#191970" points="218.5415,-182.3851 228.8524,-179.9487 219.2726,-175.4234 218.5415,-182.3851"/>
</g>
<!-- Node31 -->
<g id="node4" class="node">
<title>Node31</title>
<g id="a_node4"><a xlink:href="classPreallocatedType.html#aeb51d964fefa41b30cbcdf8b97882121" target="_top" xlink:title="PreallocatedType::GoPostdelete">
<polygon fill="#ffffff" stroke="#000000" points="210.5,-133.5 210.5,-152.5 381.5,-152.5 381.5,-133.5 210.5,-133.5"/>
<text text-anchor="middle" x="296" y="-140.5" font-family="Helvetica,sans-Serif" font-size="10.00" fill="#000000">PreallocatedType::GoPostdelete</text>
</a>
</g>
</g>
<!-- Node28&#45;&gt;Node31 -->
<g id="edge3" class="edge">
<title>Node28&#45;&gt;Node31</title>
<path fill="none" stroke="#191970" d="M173.2239,-155.893C182.1388,-154.9568 191.2332,-154.0018 200.2384,-153.0561"/>
<polygon fill="#191970" stroke="#191970" points="200.7736,-156.5192 210.3533,-151.9939 200.0425,-149.5575 200.7736,-156.5192"/>
</g>
<!-- Node33 -->
<g id="node6" class="node">
<title>Node33</title>
<g id="a_node6"><a xlink:href="classPreallocatedType.html#a58ec3848b8d6e75e6e65f6be93e79276" target="_top" xlink:title="PreallocatedType::GoPreallocate">
<polygon fill="#ffffff" stroke="#000000" points="209,-76.5 209,-95.5 383,-95.5 383,-76.5 209,-76.5"/>
<text text-anchor="middle" x="296" y="-83.5" font-family="Helvetica,sans-Serif" font-size="10.00" fill="#000000">PreallocatedType::GoPreallocate</text>
</a>
</g>
</g>
<!-- Node28&#45;&gt;Node33 -->
<g id="edge5" class="edge">
<title>Node28&#45;&gt;Node33</title>
<path fill="none" stroke="#191970" d="M111.7706,-155.4708C149.0489,-141.4135 218.9064,-115.0711 261.0654,-99.1734"/>
<polygon fill="#191970" stroke="#191970" points="262.5179,-102.3664 270.6398,-95.563 260.048,-95.8166 262.5179,-102.3664"/>
</g>
<!-- Node32 -->
<g id="node5" class="node">
<title>Node32</title>
<g id="a_node5"><a xlink:href="classPreallocated.html#a5d458f28b1cd937b14fd9907278b7f45" target="_top" xlink:title="Preallocated::Recycle">
<polygon fill="#ffffff" stroke="#000000" points="444.5,-152.5 444.5,-171.5 565.5,-171.5 565.5,-152.5 444.5,-152.5"/>
<text text-anchor="middle" x="505" y="-159.5" font-family="Helvetica,sans-Serif" font-size="10.00" fill="#000000">Preallocated::Recycle</text>
</a>
</g>
</g>
<!-- Node31&#45;&gt;Node32 -->
<g id="edge4" class="edge">
<title>Node31&#45;&gt;Node32</title>
<path fill="none" stroke="#191970" d="M381.6113,-150.7828C399.0688,-152.3699 417.2537,-154.0231 434.129,-155.5572"/>
<polygon fill="#191970" stroke="#191970" points="434.1729,-159.0755 444.4488,-156.4953 434.8068,-152.1043 434.1729,-159.0755"/>
</g>
<!-- Node34 -->
<g id="node7" class="node">
<title>Node34</title>
<g id="a_node7"><a xlink:href="classPreallocated.html#a6c7fad49a12301624b0dfbd9cef2f358" target="_top" xlink:title="Preallocated::NewInstance">
<polygon fill="#ffffff" stroke="#000000" points="432,-114.5 432,-133.5 578,-133.5 578,-114.5 432,-114.5"/>
<text text-anchor="middle" x="505" y="-121.5" font-family="Helvetica,sans-Serif" font-size="10.00" fill="#000000">Preallocated::NewInstance</text>
</a>
</g>
</g>
<!-- Node33&#45;&gt;Node34 -->
<g id="edge6" class="edge">
<title>Node33&#45;&gt;Node34</title>
<path fill="none" stroke="#191970" d="M348.4698,-95.54C377.0413,-100.7348 412.5796,-107.1963 442.5691,-112.6489"/>
<polygon fill="#191970" stroke="#191970" points="442.0438,-116.1107 452.5087,-114.4561 443.2961,-109.2236 442.0438,-116.1107"/>
</g>
<!-- Node35 -->
<g id="node8" class="node">
<title>Node35</title>
<g id="a_node8"><a xlink:href="classPreallocated.html#ad31c546d3c1641b44135dccb4ef0cafd" target="_top" xlink:title="Preallocated::SetupPreallocated">
<polygon fill="#ffffff" stroke="#000000" points="419,-76.5 419,-95.5 591,-95.5 591,-76.5 419,-76.5"/>
<text text-anchor="middle" x="505" y="-83.5" font-family="Helvetica,sans-Serif" font-size="10.00" fill="#000000">Preallocated::SetupPreallocated</text>
</a>
</g>
</g>
<!-- Node33&#45;&gt;Node35 -->
<g id="edge7" class="edge">
<title>Node33&#45;&gt;Node35</title>
<path fill="none" stroke="#191970" d="M383.1214,-86C391.4825,-86 399.9963,-86 408.4406,-86"/>
<polygon fill="#191970" stroke="#191970" points="408.6913,-89.5001 418.6913,-86 408.6912,-82.5001 408.6913,-89.5001"/>
</g>
<!-- Node36 -->
<g id="node9" class="node">
<title>Node36</title>
<g id="a_node9"><a xlink:href="classRTStore.html#af3c93f31bd68ce149a812b05d9e7cd86" target="_top" xlink:title="RTStore::ChangeStateAtIdx">
<polygon fill="#ffffff" stroke="#000000" points="431,-38.5 431,-57.5 579,-57.5 579,-38.5 431,-38.5"/>
<text text-anchor="middle" x="505" y="-45.5" font-family="Helvetica,sans-Serif" font-size="10.00" fill="#000000">RTStore::ChangeStateAtIdx</text>
</a>
</g>
</g>
<!-- Node33&#45;&gt;Node36 -->
<g id="edge8" class="edge">
<title>Node33&#45;&gt;Node36</title>
<path fill="none" stroke="#191970" d="M348.4698,-76.46C377.0413,-71.2652 412.5796,-64.8037 442.5691,-59.3511"/>
<polygon fill="#191970" stroke="#191970" points="443.2961,-62.7764 452.5087,-57.5439 442.0438,-55.8893 443.2961,-62.7764"/>
</g>
<!-- Node37 -->
<g id="node10" class="node">
<title>Node37</title>
<g id="a_node10"><a xlink:href="classRTStore.html#a491601a177c671d8700a30d775d37bad" target="_top" xlink:title="RTStore::GetItemAtIdx">
<polygon fill="#ffffff" stroke="#000000" points="442.5,-.5 442.5,-19.5 567.5,-19.5 567.5,-.5 442.5,-.5"/>
<text text-anchor="middle" x="505" y="-7.5" font-family="Helvetica,sans-Serif" font-size="10.00" fill="#000000">RTStore::GetItemAtIdx</text>
</a>
</g>
</g>
<!-- Node33&#45;&gt;Node37 -->
<g id="edge9" class="edge">
<title>Node33&#45;&gt;Node37</title>
<path fill="none" stroke="#191970" d="M313.4294,-76.4499C336.8283,-63.9757 379.9779,-42.1786 419,-29 426.7244,-26.3913 434.9619,-24.0451 443.1636,-21.9651"/>
<polygon fill="#191970" stroke="#191970" points="444.2155,-25.3117 453.1134,-19.5603 442.571,-18.5076 444.2155,-25.3117"/>
</g>
</g>
</svg>
