<?xml version="1.0" encoding="UTF-8" standalone="no"?>
<!DOCTYPE svg PUBLIC "-//W3C//DTD SVG 1.1//EN"
 "http://www.w3.org/Graphics/SVG/1.1/DTD/svg11.dtd">
<!-- Generated by graphviz version 2.40.1 (20161225.0304)
 -->
<!-- Title: FloConfig::SetupParamSetBank Pages: 1 -->
<svg width="514pt" height="47pt"
 viewBox="0.00 0.00 514.00 47.00" xmlns="http://www.w3.org/2000/svg" xmlns:xlink="http://www.w3.org/1999/xlink">
<g id="graph0" class="graph" transform="scale(1 1) rotate(0) translate(4 43)">
<title>FloConfig::SetupParamSetBank</title>
<polygon fill="#ffffff" stroke="transparent" points="-4,4 -4,-43 510,-43 510,4 -4,4"/>
<!-- Node313 -->
<g id="node1" class="node">
<title>Node313</title>
<polygon fill="#bfbfbf" stroke="#000000" points="0,-.5 0,-19.5 167,-19.5 167,-.5 0,-.5"/>
<text text-anchor="middle" x="83.5" y="-7.5" font-family="Helvetica,sans-Serif" font-size="10.00" fill="#000000">FloConfig::SetupParamSetBank</text>
</g>
<!-- Node314 -->
<g id="node2" class="node">
<title>Node314</title>
<g id="a_node2"><a xlink:href="classParamSetBank.html#a1b4ae125145830304a638760c4765f61" target="_top" xlink:title="ParamSetBank::Setup">
<polygon fill="#ffffff" stroke="#000000" points="203,-19.5 203,-38.5 325,-38.5 325,-19.5 203,-19.5"/>
<text text-anchor="middle" x="264" y="-26.5" font-family="Helvetica,sans-Serif" font-size="10.00" fill="#000000">ParamSetBank::Setup</text>
</a>
</g>
</g>
<!-- Node313&#45;&gt;Node314 -->
<g id="edge1" class="edge">
<title>Node313&#45;&gt;Node314</title>
<path fill="none" stroke="#191970" d="M167.1451,-18.8048C175.7337,-19.7088 184.4024,-20.6213 192.8379,-21.5093"/>
<polygon fill="#191970" stroke="#191970" points="192.6792,-25.0118 202.9907,-22.578 193.4121,-18.0503 192.6792,-25.0118"/>
</g>
<!-- Node315 -->
<g id="node3" class="node">
<title>Node315</title>
<g id="a_node3"><a xlink:href="classParamSetParam.html#aedcdcfd286d7be4595f36c21153959eb" target="_top" xlink:title="ParamSetParam::SetName">
<polygon fill="#ffffff" stroke="#000000" points="361,-.5 361,-19.5 506,-19.5 506,-.5 361,-.5"/>
<text text-anchor="middle" x="433.5" y="-7.5" font-family="Helvetica,sans-Serif" font-size="10.00" fill="#000000">ParamSetParam::SetName</text>
</a>
</g>
</g>
<!-- Node313&#45;&gt;Node315 -->
<g id="edge3" class="edge">
<title>Node313&#45;&gt;Node315</title>
<path fill="none" stroke="#191970" d="M167.3337,-10C222.8311,-10 295.2997,-10 350.6044,-10"/>
<polygon fill="#191970" stroke="#191970" points="350.7233,-13.5001 360.7233,-10 350.7232,-6.5001 350.7233,-13.5001"/>
</g>
<!-- Node314&#45;&gt;Node315 -->
<g id="edge2" class="edge">
<title>Node314&#45;&gt;Node315</title>
<path fill="none" stroke="#191970" d="M325.1934,-22.1406C333.5085,-21.2085 342.1522,-20.2396 350.7682,-19.2738"/>
<polygon fill="#191970" stroke="#191970" points="351.3005,-22.7361 360.8484,-18.1438 350.5207,-15.7797 351.3005,-22.7361"/>
</g>
</g>
</svg>
