<?xml version="1.0" encoding="UTF-8" standalone="no"?>
<!DOCTYPE svg PUBLIC "-//W3C//DTD SVG 1.1//EN"
 "http://www.w3.org/Graphics/SVG/1.1/DTD/svg11.dtd">
<!-- Generated by graphviz version 2.40.1 (20161225.0304)
 -->
<!-- Title: VideoIO::ReceiveEvent Pages: 1 -->
<svg width="524pt" height="180pt"
 viewBox="0.00 0.00 524.00 180.00" xmlns="http://www.w3.org/2000/svg" xmlns:xlink="http://www.w3.org/1999/xlink">
<g id="graph0" class="graph" transform="scale(1 1) rotate(0) translate(4 176)">
<title>VideoIO::ReceiveEvent</title>
<polygon fill="#ffffff" stroke="transparent" points="-4,4 -4,-176 520,-176 520,4 -4,4"/>
<!-- Node70 -->
<g id="node1" class="node">
<title>Node70</title>
<polygon fill="#bfbfbf" stroke="#000000" points="0,-76.5 0,-95.5 127,-95.5 127,-76.5 0,-76.5"/>
<text text-anchor="middle" x="63.5" y="-83.5" font-family="Helvetica,sans-Serif" font-size="10.00" fill="#000000">VideoIO::ReceiveEvent</text>
</g>
<!-- Node71 -->
<g id="node2" class="node">
<title>Node71</title>
<g id="a_node2"><a xlink:href="classEvent.html#ac4c4170579544b41dff38ca1b8110e30" target="_top" xlink:title="Event::GetType">
<polygon fill="#ffffff" stroke="#000000" points="200,-152.5 200,-171.5 290,-171.5 290,-152.5 200,-152.5"/>
<text text-anchor="middle" x="245" y="-159.5" font-family="Helvetica,sans-Serif" font-size="10.00" fill="#000000">Event::GetType</text>
</a>
</g>
</g>
<!-- Node70&#45;&gt;Node71 -->
<g id="edge1" class="edge">
<title>Node70&#45;&gt;Node71</title>
<path fill="none" stroke="#191970" d="M77.3397,-95.6858C95.9807,-108.3102 130.5687,-130.2732 163,-143 171.4915,-146.3323 180.7172,-149.1691 189.8144,-151.5541"/>
<polygon fill="#191970" stroke="#191970" points="189.0472,-154.9697 199.5944,-153.9667 190.7238,-148.1734 189.0472,-154.9697"/>
</g>
<!-- Node72 -->
<g id="node3" class="node">
<title>Node72</title>
<g id="a_node3"><a xlink:href="classFloDisplay.html#a5860339e2de95b54b15fab648430f68a" target="_top" xlink:title="FloDisplay::GetFloDisplayType">
<polygon fill="#ffffff" stroke="#000000" points="163,-114.5 163,-133.5 327,-133.5 327,-114.5 163,-114.5"/>
<text text-anchor="middle" x="245" y="-121.5" font-family="Helvetica,sans-Serif" font-size="10.00" fill="#000000">FloDisplay::GetFloDisplayType</text>
</a>
</g>
</g>
<!-- Node70&#45;&gt;Node72 -->
<g id="edge2" class="edge">
<title>Node70&#45;&gt;Node72</title>
<path fill="none" stroke="#191970" d="M109.3001,-95.589C133.6826,-100.6939 163.8567,-107.0113 189.5557,-112.3918"/>
<polygon fill="#191970" stroke="#191970" points="189.0242,-115.8564 199.5292,-114.4799 190.4587,-109.0049 189.0242,-115.8564"/>
</g>
<!-- Node73 -->
<g id="node4" class="node">
<title>Node73</title>
<g id="a_node4"><a xlink:href="classFloLayoutElement.html#a9db58f740fb624d6ccbbf249aa178064" target="_top" xlink:title="FloLayoutElement::Inside">
<polygon fill="#ffffff" stroke="#000000" points="175,-76.5 175,-95.5 315,-95.5 315,-76.5 175,-76.5"/>
<text text-anchor="middle" x="245" y="-83.5" font-family="Helvetica,sans-Serif" font-size="10.00" fill="#000000">FloLayoutElement::Inside</text>
</a>
</g>
</g>
<!-- Node70&#45;&gt;Node73 -->
<g id="edge3" class="edge">
<title>Node70&#45;&gt;Node73</title>
<path fill="none" stroke="#191970" d="M127.2349,-86C139.4051,-86 152.2886,-86 164.8942,-86"/>
<polygon fill="#191970" stroke="#191970" points="164.9253,-89.5001 174.9252,-86 164.9252,-82.5001 164.9253,-89.5001"/>
</g>
<!-- Node75 -->
<g id="node6" class="node">
<title>Node75</title>
<g id="a_node6"><a xlink:href="classEvent.html#aa67af0ae99b897e4f0ce42068c4e4c00" target="_top" xlink:title="Event::GetEventByType">
<polygon fill="#ffffff" stroke="#000000" points="179.5,-38.5 179.5,-57.5 310.5,-57.5 310.5,-38.5 179.5,-38.5"/>
<text text-anchor="middle" x="245" y="-45.5" font-family="Helvetica,sans-Serif" font-size="10.00" fill="#000000">Event::GetEventByType</text>
</a>
</g>
</g>
<!-- Node70&#45;&gt;Node75 -->
<g id="edge5" class="edge">
<title>Node70&#45;&gt;Node75</title>
<path fill="none" stroke="#191970" d="M109.3001,-76.411C133.6826,-71.3061 163.8567,-64.9887 189.5557,-59.6082"/>
<polygon fill="#191970" stroke="#191970" points="190.4587,-62.9951 199.5292,-57.5201 189.0242,-56.1436 190.4587,-62.9951"/>
</g>
<!-- Node76 -->
<g id="node7" class="node">
<title>Node76</title>
<g id="a_node7"><a xlink:href="classFloDisplay.html#a55f03b836ca01139c7f8c98296dcd42e" target="_top" xlink:title="FloDisplay::SetShow">
<polygon fill="#ffffff" stroke="#000000" points="187.5,-.5 187.5,-19.5 302.5,-19.5 302.5,-.5 187.5,-.5"/>
<text text-anchor="middle" x="245" y="-7.5" font-family="Helvetica,sans-Serif" font-size="10.00" fill="#000000">FloDisplay::SetShow</text>
</a>
</g>
</g>
<!-- Node70&#45;&gt;Node76 -->
<g id="edge6" class="edge">
<title>Node70&#45;&gt;Node76</title>
<path fill="none" stroke="#191970" d="M77.3397,-76.3142C95.9807,-63.6898 130.5687,-41.7268 163,-29 169.3978,-26.4893 176.2125,-24.2599 183.0749,-22.2931"/>
<polygon fill="#191970" stroke="#191970" points="184.3693,-25.5696 193.1204,-19.5972 182.5549,-18.8089 184.3693,-25.5696"/>
</g>
<!-- Node74 -->
<g id="node5" class="node">
<title>Node74</title>
<g id="a_node5"><a xlink:href="classFloLayoutElementGeometry.html#abe763af912cc7667a7c7b64f74f6a824" target="_top" xlink:title="FloLayoutElementGeometry\l::Inside">
<polygon fill="#ffffff" stroke="#000000" points="363,-71 363,-101 516,-101 516,-71 363,-71"/>
<text text-anchor="start" x="371" y="-89" font-family="Helvetica,sans-Serif" font-size="10.00" fill="#000000">FloLayoutElementGeometry</text>
<text text-anchor="middle" x="439.5" y="-78" font-family="Helvetica,sans-Serif" font-size="10.00" fill="#000000">::Inside</text>
</a>
</g>
</g>
<!-- Node73&#45;&gt;Node74 -->
<g id="edge4" class="edge">
<title>Node73&#45;&gt;Node74</title>
<path fill="none" stroke="#191970" d="M315.219,-86C327.4111,-86 340.219,-86 352.7892,-86"/>
<polygon fill="#191970" stroke="#191970" points="352.803,-89.5001 362.803,-86 352.8029,-82.5001 352.803,-89.5001"/>
</g>
</g>
</svg>
