<?xml version="1.0" encoding="UTF-8" standalone="no"?>
<!DOCTYPE svg PUBLIC "-//W3C//DTD SVG 1.1//EN"
 "http://www.w3.org/Graphics/SVG/1.1/DTD/svg11.dtd">
<!-- Generated by graphviz version 2.40.1 (20161225.0304)
 -->
<!-- Title: LoopManager::StripePulseOff Pages: 1 -->
<svg width="537pt" height="28pt"
 viewBox="0.00 0.00 537.00 28.00" xmlns="http://www.w3.org/2000/svg" xmlns:xlink="http://www.w3.org/1999/xlink">
<g id="graph0" class="graph" transform="scale(1 1) rotate(0) translate(4 24)">
<title>LoopManager::StripePulseOff</title>
<polygon fill="#ffffff" stroke="transparent" points="-4,4 -4,-24 533,-24 533,4 -4,4"/>
<!-- Node1156 -->
<g id="node1" class="node">
<title>Node1156</title>
<polygon fill="#bfbfbf" stroke="#000000" points="0,-.5 0,-19.5 157,-19.5 157,-.5 0,-.5"/>
<text text-anchor="middle" x="78.5" y="-7.5" font-family="Helvetica,sans-Serif" font-size="10.00" fill="#000000">LoopManager::StripePulseOff</text>
</g>
<!-- Node1157 -->
<g id="node2" class="node">
<title>Node1157</title>
<g id="a_node2"><a xlink:href="classLoopManager.html#a8efb4c8acabceb10faa8660c14c89d71" target="_top" xlink:title="LoopManager::DeletePulse">
<polygon fill="#ffffff" stroke="#000000" points="193,-.5 193,-19.5 339,-19.5 339,-.5 193,-.5"/>
<text text-anchor="middle" x="266" y="-7.5" font-family="Helvetica,sans-Serif" font-size="10.00" fill="#000000">LoopManager::DeletePulse</text>
</a>
</g>
</g>
<!-- Node1156&#45;&gt;Node1157 -->
<g id="edge1" class="edge">
<title>Node1156&#45;&gt;Node1157</title>
<path fill="none" stroke="#191970" d="M167.2403,-10C175.8283,-10 184.4725,-10 192.8836,-10"/>
<polygon fill="#191970" stroke="#191970" points="167.2019,-6.5001 157.2019,-10 167.2019,-13.5001 167.2019,-6.5001"/>
</g>
<!-- Node1158 -->
<g id="node3" class="node">
<title>Node1158</title>
<g id="a_node3"><a xlink:href="classLoopManager.html#a4aada2d07b7ce0a67a8119ece4805966" target="_top" xlink:title="LoopManager::ReceiveEvent">
<polygon fill="#ffffff" stroke="#000000" points="375,-.5 375,-19.5 529,-19.5 529,-.5 375,-.5"/>
<text text-anchor="middle" x="452" y="-7.5" font-family="Helvetica,sans-Serif" font-size="10.00" fill="#000000">LoopManager::ReceiveEvent</text>
</a>
</g>
</g>
<!-- Node1157&#45;&gt;Node1158 -->
<g id="edge2" class="edge">
<title>Node1157&#45;&gt;Node1158</title>
<path fill="none" stroke="#191970" d="M349.4738,-10C357.918,-10 366.4682,-10 374.8418,-10"/>
<polygon fill="#191970" stroke="#191970" points="349.2452,-6.5001 339.2451,-10 349.2451,-13.5001 349.2452,-6.5001"/>
</g>
</g>
</svg>
