<?xml version="1.0" encoding="UTF-8" standalone="no"?>
<!DOCTYPE svg PUBLIC "-//W3C//DTD SVG 1.1//EN"
 "http://www.w3.org/Graphics/SVG/1.1/DTD/svg11.dtd">
<!-- Generated by graphviz version 2.40.1 (20161225.0304)
 -->
<!-- Title: LoopManager::GetLongCountForAllPlayingLoops Pages: 1 -->
<svg width="534pt" height="39pt"
 viewBox="0.00 0.00 534.00 39.00" xmlns="http://www.w3.org/2000/svg" xmlns:xlink="http://www.w3.org/1999/xlink">
<g id="graph0" class="graph" transform="scale(1 1) rotate(0) translate(4 35)">
<title>LoopManager::GetLongCountForAllPlayingLoops</title>
<polygon fill="#ffffff" stroke="transparent" points="-4,4 -4,-35 530,-35 530,4 -4,4"/>
<!-- Node394 -->
<g id="node1" class="node">
<title>Node394</title>
<polygon fill="#bfbfbf" stroke="#000000" points="0,-.5 0,-30.5 157,-30.5 157,-.5 0,-.5"/>
<text text-anchor="start" x="8" y="-18.5" font-family="Helvetica,sans-Serif" font-size="10.00" fill="#000000">LoopManager::GetLongCount</text>
<text text-anchor="middle" x="78.5" y="-7.5" font-family="Helvetica,sans-Serif" font-size="10.00" fill="#000000">ForAllPlayingLoops</text>
</g>
<!-- Node395 -->
<g id="node2" class="node">
<title>Node395</title>
<g id="a_node2"><a xlink:href="classOSCClient.html#acbb974bf11667aa6fb48c111ae14a4fe" target="_top" xlink:title="OSCClient::SendPlayingLoops">
<polygon fill="#ffffff" stroke="#000000" points="193,-6 193,-25 353,-25 353,-6 193,-6"/>
<text text-anchor="middle" x="273" y="-13" font-family="Helvetica,sans-Serif" font-size="10.00" fill="#000000">OSCClient::SendPlayingLoops</text>
</a>
</g>
</g>
<!-- Node394&#45;&gt;Node395 -->
<g id="edge1" class="edge">
<title>Node394&#45;&gt;Node395</title>
<path fill="none" stroke="#191970" d="M167.0876,-15.5C175.6878,-15.5 184.379,-15.5 192.8894,-15.5"/>
<polygon fill="#191970" stroke="#191970" points="167.05,-12.0001 157.05,-15.5 167.0499,-19.0001 167.05,-12.0001"/>
</g>
<!-- Node396 -->
<g id="node3" class="node">
<title>Node396</title>
<g id="a_node3"><a xlink:href="classOSCClient.html#a8b38ea5b76702f9e763daeb694091116" target="_top" xlink:title="OSCClient::ReceiveEvent">
<polygon fill="#ffffff" stroke="#000000" points="389,-6 389,-25 526,-25 526,-6 389,-6"/>
<text text-anchor="middle" x="457.5" y="-13" font-family="Helvetica,sans-Serif" font-size="10.00" fill="#000000">OSCClient::ReceiveEvent</text>
</a>
</g>
</g>
<!-- Node395&#45;&gt;Node396 -->
<g id="edge2" class="edge">
<title>Node395&#45;&gt;Node396</title>
<path fill="none" stroke="#191970" d="M363.1768,-15.5C371.7687,-15.5 380.3847,-15.5 388.7263,-15.5"/>
<polygon fill="#191970" stroke="#191970" points="363.1195,-12.0001 353.1195,-15.5 363.1194,-19.0001 363.1195,-12.0001"/>
</g>
</g>
</svg>
