<?xml version="1.0" encoding="UTF-8" standalone="no"?>
<!DOCTYPE svg PUBLIC "-//W3C//DTD SVG 1.1//EN"
 "http://www.w3.org/Graphics/SVG/1.1/DTD/svg11.dtd">
<!-- Generated by graphviz version 2.40.1 (20161225.0304)
 -->
<!-- Title: InputMatrix::MatchBinding Pages: 1 -->
<svg width="962pt" height="47pt"
 viewBox="0.00 0.00 962.00 47.00" xmlns="http://www.w3.org/2000/svg" xmlns:xlink="http://www.w3.org/1999/xlink">
<g id="graph0" class="graph" transform="scale(1 1) rotate(0) translate(4 43)">
<title>InputMatrix::MatchBinding</title>
<polygon fill="#ffffff" stroke="transparent" points="-4,4 -4,-43 958,-43 958,4 -4,4"/>
<!-- Node96 -->
<g id="node1" class="node">
<title>Node96</title>
<polygon fill="#bfbfbf" stroke="#000000" points="0,-19.5 0,-38.5 144,-38.5 144,-19.5 0,-19.5"/>
<text text-anchor="middle" x="72" y="-26.5" font-family="Helvetica,sans-Serif" font-size="10.00" fill="#000000">InputMatrix::MatchBinding</text>
</g>
<!-- Node97 -->
<g id="node2" class="node">
<title>Node97</title>
<g id="a_node2"><a xlink:href="classInputMatrix.html#a807406bec8679e3cce28776cee3a01d3" target="_top" xlink:title="InputMatrix::CheckConditions">
<polygon fill="#ffffff" stroke="#000000" points="180,-19.5 180,-38.5 340,-38.5 340,-19.5 180,-19.5"/>
<text text-anchor="middle" x="260" y="-26.5" font-family="Helvetica,sans-Serif" font-size="10.00" fill="#000000">InputMatrix::CheckConditions</text>
</a>
</g>
</g>
<!-- Node96&#45;&gt;Node97 -->
<g id="edge1" class="edge">
<title>Node96&#45;&gt;Node97</title>
<path fill="none" stroke="#191970" d="M144.148,-29C152.5581,-29 161.2153,-29 169.8295,-29"/>
<polygon fill="#191970" stroke="#191970" points="169.9048,-32.5001 179.9047,-29 169.9047,-25.5001 169.9048,-32.5001"/>
</g>
<!-- Node98 -->
<g id="node3" class="node">
<title>Node98</title>
<g id="a_node3"><a xlink:href="classCfgToken.html#a5e30ffe3bc7cf2483e390cf023eaa6c0" target="_top" xlink:title="CfgToken::Evaluate">
<polygon fill="#ffffff" stroke="#000000" points="563,-19.5 563,-38.5 673,-38.5 673,-19.5 563,-19.5"/>
<text text-anchor="middle" x="618" y="-26.5" font-family="Helvetica,sans-Serif" font-size="10.00" fill="#000000">CfgToken::Evaluate</text>
</a>
</g>
</g>
<!-- Node97&#45;&gt;Node98 -->
<g id="edge2" class="edge">
<title>Node97&#45;&gt;Node98</title>
<path fill="none" stroke="#191970" d="M340.3422,-29C404.4574,-29 493.1308,-29 552.8701,-29"/>
<polygon fill="#191970" stroke="#191970" points="552.9372,-32.5001 562.9372,-29 552.9372,-25.5001 552.9372,-32.5001"/>
</g>
<!-- Node101 -->
<g id="node6" class="node">
<title>Node101</title>
<g id="a_node6"><a xlink:href="classParsedExpression.html#a8b8c5462181f05c11f51df722809ac7e" target="_top" xlink:title="ParsedExpression::Evaluate">
<polygon fill="#ffffff" stroke="#000000" points="376,-.5 376,-19.5 527,-19.5 527,-.5 376,-.5"/>
<text text-anchor="middle" x="451.5" y="-7.5" font-family="Helvetica,sans-Serif" font-size="10.00" fill="#000000">ParsedExpression::Evaluate</text>
</a>
</g>
</g>
<!-- Node97&#45;&gt;Node101 -->
<g id="edge5" class="edge">
<title>Node97&#45;&gt;Node101</title>
<path fill="none" stroke="#191970" d="M340.1037,-21.0524C348.4832,-20.221 357.027,-19.3733 365.4691,-18.5357"/>
<polygon fill="#191970" stroke="#191970" points="366.0926,-21.9911 375.6981,-17.5208 365.4014,-15.0253 366.0926,-21.9911"/>
</g>
<!-- Node99 -->
<g id="node4" class="node">
<title>Node99</title>
<g id="a_node4"><a xlink:href="classUserVariable.html#a7cbb83559d78173a8b7810c3ecc3842f" target="_top" xlink:title="UserVariable::SetFrom">
<polygon fill="#ffffff" stroke="#000000" points="709,-19.5 709,-38.5 834,-38.5 834,-19.5 709,-19.5"/>
<text text-anchor="middle" x="771.5" y="-26.5" font-family="Helvetica,sans-Serif" font-size="10.00" fill="#000000">UserVariable::SetFrom</text>
</a>
</g>
</g>
<!-- Node98&#45;&gt;Node99 -->
<g id="edge3" class="edge">
<title>Node98&#45;&gt;Node99</title>
<path fill="none" stroke="#191970" d="M673.417,-29C681.598,-29 690.1303,-29 698.5998,-29"/>
<polygon fill="#191970" stroke="#191970" points="698.872,-32.5001 708.872,-29 698.8719,-25.5001 698.872,-32.5001"/>
</g>
<!-- Node100 -->
<g id="node5" class="node">
<title>Node100</title>
<g id="a_node5"><a xlink:href="classRange.html#a378dde258315602c6929b84cb10f8f8d" target="_top" xlink:title="Range::Range">
<polygon fill="#ffffff" stroke="#000000" points="870,-19.5 870,-38.5 954,-38.5 954,-19.5 870,-19.5"/>
<text text-anchor="middle" x="912" y="-26.5" font-family="Helvetica,sans-Serif" font-size="10.00" fill="#000000">Range::Range</text>
</a>
</g>
</g>
<!-- Node99&#45;&gt;Node100 -->
<g id="edge4" class="edge">
<title>Node99&#45;&gt;Node100</title>
<path fill="none" stroke="#191970" d="M834.353,-29C842.7782,-29 851.347,-29 859.5672,-29"/>
<polygon fill="#191970" stroke="#191970" points="859.7561,-32.5001 869.7561,-29 859.756,-25.5001 859.7561,-32.5001"/>
</g>
<!-- Node101&#45;&gt;Node98 -->
<g id="edge6" class="edge">
<title>Node101&#45;&gt;Node98</title>
<path fill="none" stroke="#191970" d="M527.4415,-18.666C535.856,-19.6262 544.3709,-20.5979 552.6387,-21.5414"/>
<polygon fill="#191970" stroke="#191970" points="552.2454,-25.0191 562.5778,-22.6755 553.0391,-18.0642 552.2454,-25.0191"/>
</g>
</g>
</svg>
