<?xml version="1.0" encoding="UTF-8" standalone="no"?>
<!DOCTYPE svg PUBLIC "-//W3C//DTD SVG 1.1//EN"
 "http://www.w3.org/Graphics/SVG/1.1/DTD/svg11.dtd">
<!-- Generated by graphviz version 2.40.1 (20161225.0304)
 -->
<!-- Title: LoopManager::GetRoundedLength Pages: 1 -->
<svg width="472pt" height="142pt"
 viewBox="0.00 0.00 472.00 142.00" xmlns="http://www.w3.org/2000/svg" xmlns:xlink="http://www.w3.org/1999/xlink">
<g id="graph0" class="graph" transform="scale(1 1) rotate(0) translate(4 138)">
<title>LoopManager::GetRoundedLength</title>
<polygon fill="#ffffff" stroke="transparent" points="-4,4 -4,-138 468,-138 468,4 -4,4"/>
<!-- Node506 -->
<g id="node1" class="node">
<title>Node506</title>
<polygon fill="#bfbfbf" stroke="#000000" points="0,-57.5 0,-76.5 180,-76.5 180,-57.5 0,-57.5"/>
<text text-anchor="middle" x="90" y="-64.5" font-family="Helvetica,sans-Serif" font-size="10.00" fill="#000000">LoopManager::GetRoundedLength</text>
</g>
<!-- Node507 -->
<g id="node2" class="node">
<title>Node507</title>
<g id="a_node2"><a xlink:href="classFweelin.html#a10bb364ecf38990653b49a98c5a89c90" target="_top" xlink:title="Fweelin::getTMAP">
<polygon fill="#ffffff" stroke="#000000" points="232,-114.5 232,-133.5 335,-133.5 335,-114.5 232,-114.5"/>
<text text-anchor="middle" x="283.5" y="-121.5" font-family="Helvetica,sans-Serif" font-size="10.00" fill="#000000">Fweelin::getTMAP</text>
</a>
</g>
</g>
<!-- Node506&#45;&gt;Node507 -->
<g id="edge1" class="edge">
<title>Node506&#45;&gt;Node507</title>
<path fill="none" stroke="#191970" d="M121.0208,-76.5302C146.4956,-84.3145 183.5359,-95.5365 216,-105 223.5605,-107.2039 231.61,-109.5072 239.4186,-111.7189"/>
<polygon fill="#191970" stroke="#191970" points="238.5512,-115.1107 249.1258,-114.457 240.4516,-108.3736 238.5512,-115.1107"/>
</g>
<!-- Node508 -->
<g id="node3" class="node">
<title>Node508</title>
<g id="a_node3"><a xlink:href="classTriggerMap.html#aca3f85b40f3aa29a280c2d7511b84217" target="_top" xlink:title="TriggerMap::GetMap">
<polygon fill="#ffffff" stroke="#000000" points="227,-76.5 227,-95.5 340,-95.5 340,-76.5 227,-76.5"/>
<text text-anchor="middle" x="283.5" y="-83.5" font-family="Helvetica,sans-Serif" font-size="10.00" fill="#000000">TriggerMap::GetMap</text>
</a>
</g>
</g>
<!-- Node506&#45;&gt;Node508 -->
<g id="edge2" class="edge">
<title>Node506&#45;&gt;Node508</title>
<path fill="none" stroke="#191970" d="M180.2351,-75.8603C192.5041,-77.065 204.9134,-78.2835 216.6691,-79.4378"/>
<polygon fill="#191970" stroke="#191970" points="216.5175,-82.9396 226.8116,-80.4337 217.2016,-75.9732 216.5175,-82.9396"/>
</g>
<!-- Node509 -->
<g id="node4" class="node">
<title>Node509</title>
<g id="a_node4"><a xlink:href="classPulse.html#ac23f657cca68747e251b1b927a11ba0f" target="_top" xlink:title="Pulse::QuantizeLength">
<polygon fill="#ffffff" stroke="#000000" points="221,-38.5 221,-57.5 346,-57.5 346,-38.5 221,-38.5"/>
<text text-anchor="middle" x="283.5" y="-45.5" font-family="Helvetica,sans-Serif" font-size="10.00" fill="#000000">Pulse::QuantizeLength</text>
</a>
</g>
</g>
<!-- Node506&#45;&gt;Node509 -->
<g id="edge3" class="edge">
<title>Node506&#45;&gt;Node509</title>
<path fill="none" stroke="#191970" d="M180.2351,-58.1397C190.3996,-57.1416 200.6604,-56.1341 210.5661,-55.1615"/>
<polygon fill="#191970" stroke="#191970" points="211.1313,-58.6229 220.7414,-54.1623 210.4472,-51.6564 211.1313,-58.6229"/>
</g>
<!-- Node511 -->
<g id="node6" class="node">
<title>Node511</title>
<g id="a_node6"><a xlink:href="classAudioBlock.html#a380880c91c3af2322d232ce2de83b881" target="_top" xlink:title="AudioBlock::GetTotalLen">
<polygon fill="#ffffff" stroke="#000000" points="216,-.5 216,-19.5 351,-19.5 351,-.5 216,-.5"/>
<text text-anchor="middle" x="283.5" y="-7.5" font-family="Helvetica,sans-Serif" font-size="10.00" fill="#000000">AudioBlock::GetTotalLen</text>
</a>
</g>
</g>
<!-- Node506&#45;&gt;Node511 -->
<g id="edge5" class="edge">
<title>Node506&#45;&gt;Node511</title>
<path fill="none" stroke="#191970" d="M121.0208,-57.4698C146.4956,-49.6855 183.5359,-38.4635 216,-29 223.5605,-26.7961 231.61,-24.4928 239.4186,-22.2811"/>
<polygon fill="#191970" stroke="#191970" points="240.4516,-25.6264 249.1258,-19.543 238.5512,-18.8893 240.4516,-25.6264"/>
</g>
<!-- Node510 -->
<g id="node5" class="node">
<title>Node510</title>
<g id="a_node5"><a xlink:href="classPulse.html#a7df09d55ecd7193d5491170e6888350a" target="_top" xlink:title="Pulse::round">
<polygon fill="#ffffff" stroke="#000000" points="387,-38.5 387,-57.5 464,-57.5 464,-38.5 387,-38.5"/>
<text text-anchor="middle" x="425.5" y="-45.5" font-family="Helvetica,sans-Serif" font-size="10.00" fill="#000000">Pulse::round</text>
</a>
</g>
</g>
<!-- Node509&#45;&gt;Node510 -->
<g id="edge4" class="edge">
<title>Node509&#45;&gt;Node510</title>
<path fill="none" stroke="#191970" d="M346.1966,-48C356.453,-48 366.9438,-48 376.7969,-48"/>
<polygon fill="#191970" stroke="#191970" points="376.7976,-51.5001 386.7976,-48 376.7975,-44.5001 376.7976,-51.5001"/>
</g>
</g>
</svg>
