<?xml version="1.0" encoding="UTF-8" standalone="no"?>
<!DOCTYPE svg PUBLIC "-//W3C//DTD SVG 1.1//EN"
 "http://www.w3.org/Graphics/SVG/1.1/DTD/svg11.dtd">
<!-- Generated by graphviz version 2.40.1 (20161225.0304)
 -->
<!-- Title: FloConfig::PrepareLoadConfigFile Pages: 1 -->
<svg width="685pt" height="47pt"
 viewBox="0.00 0.00 685.00 47.00" xmlns="http://www.w3.org/2000/svg" xmlns:xlink="http://www.w3.org/1999/xlink">
<g id="graph0" class="graph" transform="scale(1 1) rotate(0) translate(4 43)">
<title>FloConfig::PrepareLoadConfigFile</title>
<polygon fill="#ffffff" stroke="transparent" points="-4,4 -4,-43 681,-43 681,4 -4,4"/>
<!-- Node304 -->
<g id="node1" class="node">
<title>Node304</title>
<polygon fill="#bfbfbf" stroke="#000000" points="0,-.5 0,-19.5 176,-19.5 176,-.5 0,-.5"/>
<text text-anchor="middle" x="88" y="-7.5" font-family="Helvetica,sans-Serif" font-size="10.00" fill="#000000">FloConfig::PrepareLoadConfigFile</text>
</g>
<!-- Node305 -->
<g id="node2" class="node">
<title>Node305</title>
<g id="a_node2"><a xlink:href="classFloConfig.html#a5cc18494ea2e32020314e08e43c920c5" target="_top" xlink:title="FloConfig::ConfigureInterfaces">
<polygon fill="#ffffff" stroke="#000000" points="212,-19.5 212,-38.5 375,-38.5 375,-19.5 212,-19.5"/>
<text text-anchor="middle" x="293.5" y="-26.5" font-family="Helvetica,sans-Serif" font-size="10.00" fill="#000000">FloConfig::ConfigureInterfaces</text>
</a>
</g>
</g>
<!-- Node304&#45;&gt;Node305 -->
<g id="edge1" class="edge">
<title>Node304&#45;&gt;Node305</title>
<path fill="none" stroke="#191970" d="M186.1126,-19.0712C194.7183,-19.8669 203.3675,-20.6666 211.818,-21.4479"/>
<polygon fill="#191970" stroke="#191970" points="186.3246,-15.576 176.0448,-18.1404 185.6801,-22.5463 186.3246,-15.576"/>
</g>
<!-- Node307 -->
<g id="node4" class="node">
<title>Node307</title>
<g id="a_node4"><a xlink:href="classFloConfig.html#a865bfdba679c01b96854166af2103cf2" target="_top" xlink:title="FloConfig::Parse">
<polygon fill="#ffffff" stroke="#000000" points="583,-.5 583,-19.5 677,-19.5 677,-.5 583,-.5"/>
<text text-anchor="middle" x="630" y="-7.5" font-family="Helvetica,sans-Serif" font-size="10.00" fill="#000000">FloConfig::Parse</text>
</a>
</g>
</g>
<!-- Node304&#45;&gt;Node307 -->
<g id="edge5" class="edge">
<title>Node304&#45;&gt;Node307</title>
<path fill="none" stroke="#191970" d="M186.3478,-10C303.6044,-10 494.7542,-10 582.8326,-10"/>
<polygon fill="#191970" stroke="#191970" points="186.288,-6.5001 176.2879,-10 186.2879,-13.5001 186.288,-6.5001"/>
</g>
<!-- Node306 -->
<g id="node3" class="node">
<title>Node306</title>
<g id="a_node3"><a xlink:href="classFloConfig.html#a60461cb1265c667f106326ed8067d521" target="_top" xlink:title="FloConfig::ConfigureRoot">
<polygon fill="#ffffff" stroke="#000000" points="411,-19.5 411,-38.5 547,-38.5 547,-19.5 411,-19.5"/>
<text text-anchor="middle" x="479" y="-26.5" font-family="Helvetica,sans-Serif" font-size="10.00" fill="#000000">FloConfig::ConfigureRoot</text>
</a>
</g>
</g>
<!-- Node305&#45;&gt;Node306 -->
<g id="edge2" class="edge">
<title>Node305&#45;&gt;Node306</title>
<path fill="none" stroke="#191970" d="M385.262,-22.2503C393.9103,-22.2444 402.57,-22.3167 410.9404,-22.4672"/>
<polygon fill="#191970" stroke="#191970" points="385.118,-18.7508 375.1329,-22.2933 385.1477,-25.7508 385.118,-18.7508"/>
</g>
<!-- Node306&#45;&gt;Node305 -->
<g id="edge3" class="edge">
<title>Node306&#45;&gt;Node305</title>
<path fill="none" stroke="#191970" d="M400.7205,-35.6764C392.259,-35.7631 383.6328,-35.7732 375.1329,-35.7067"/>
<polygon fill="#191970" stroke="#191970" points="400.9906,-39.1731 410.9404,-35.5328 400.8922,-32.1738 400.9906,-39.1731"/>
</g>
<!-- Node306&#45;&gt;Node307 -->
<g id="edge4" class="edge">
<title>Node306&#45;&gt;Node307</title>
<path fill="none" stroke="#191970" d="M557.6002,-19.1099C566.2648,-18.0197 574.8749,-16.9363 582.9729,-15.9173"/>
<polygon fill="#191970" stroke="#191970" points="556.9159,-15.6683 547.4311,-20.3895 557.7898,-22.6136 556.9159,-15.6683"/>
</g>
</g>
</svg>
