<?xml version="1.0" encoding="UTF-8" standalone="no"?>
<!DOCTYPE svg PUBLIC "-//W3C//DTD SVG 1.1//EN"
 "http://www.w3.org/Graphics/SVG/1.1/DTD/svg11.dtd">
<!-- Generated by graphviz version 2.40.1 (20161225.0304)
 -->
<!-- Title: AudioIO::get_srate Pages: 1 -->
<svg width="659pt" height="376pt"
 viewBox="0.00 0.00 659.00 376.00" xmlns="http://www.w3.org/2000/svg" xmlns:xlink="http://www.w3.org/1999/xlink">
<g id="graph0" class="graph" transform="scale(1 1) rotate(0) translate(4 372)">
<title>AudioIO::get_srate</title>
<polygon fill="#ffffff" stroke="transparent" points="-4,4 -4,-372 655,-372 655,4 -4,4"/>
<!-- Node41 -->
<g id="node1" class="node">
<title>Node41</title>
<polygon fill="#bfbfbf" stroke="#000000" points="0,-177.5 0,-196.5 107,-196.5 107,-177.5 0,-177.5"/>
<text text-anchor="middle" x="53.5" y="-184.5" font-family="Helvetica,sans-Serif" font-size="10.00" fill="#000000">AudioIO::get_srate</text>
</g>
<!-- Node42 -->
<g id="node2" class="node">
<title>Node42</title>
<g id="a_node2"><a xlink:href="classSndFileDecoder.html#a74a2b4f793067771c904e4a64a11811f" target="_top" xlink:title="SndFileDecoder::ReadFromFile">
<polygon fill="#ffffff" stroke="#000000" points="147,-348.5 147,-367.5 309,-367.5 309,-348.5 147,-348.5"/>
<text text-anchor="middle" x="228" y="-355.5" font-family="Helvetica,sans-Serif" font-size="10.00" fill="#000000">SndFileDecoder::ReadFromFile</text>
</a>
</g>
</g>
<!-- Node41&#45;&gt;Node42 -->
<g id="edge1" class="edge">
<title>Node41&#45;&gt;Node42</title>
<path fill="none" stroke="#191970" d="M59.2766,-206.4224C70.069,-239.1833 96.5114,-305.1559 143,-339 148.2566,-342.8269 154.1455,-345.9042 160.3059,-348.3758"/>
<polygon fill="#191970" stroke="#191970" points="62.551,-205.1677 56.2102,-196.6798 55.874,-207.2693 62.551,-205.1677"/>
</g>
<!-- Node43 -->
<g id="node3" class="node">
<title>Node43</title>
<g id="a_node3"><a xlink:href="classVorbisDecoder.html#af68926dd65a6491b87318ee505a89063" target="_top" xlink:title="VorbisDecoder::ReadFromFile">
<polygon fill="#ffffff" stroke="#000000" points="149,-310.5 149,-329.5 307,-329.5 307,-310.5 149,-310.5"/>
<text text-anchor="middle" x="228" y="-317.5" font-family="Helvetica,sans-Serif" font-size="10.00" fill="#000000">VorbisDecoder::ReadFromFile</text>
</a>
</g>
</g>
<!-- Node41&#45;&gt;Node43 -->
<g id="edge2" class="edge">
<title>Node41&#45;&gt;Node43</title>
<path fill="none" stroke="#191970" d="M62.9411,-205.8879C76.8208,-231.6137 105.2315,-277.1859 143,-301 149.1396,-304.8712 155.9651,-307.9586 163.0035,-310.4202"/>
<polygon fill="#191970" stroke="#191970" points="65.9229,-204.0364 58.1941,-196.7896 59.7168,-207.2745 65.9229,-204.0364"/>
</g>
<!-- Node44 -->
<g id="node4" class="node">
<title>Node44</title>
<g id="a_node4"><a xlink:href="classSndFileEncoder.html#a5d5ba47e9db796dad8cc1d75c27f473c" target="_top" xlink:title="SndFileEncoder::SndFileEncoder">
<polygon fill="#ffffff" stroke="#000000" points="143,-272.5 143,-291.5 313,-291.5 313,-272.5 143,-272.5"/>
<text text-anchor="middle" x="228" y="-279.5" font-family="Helvetica,sans-Serif" font-size="10.00" fill="#000000">SndFileEncoder::SndFileEncoder</text>
</a>
</g>
</g>
<!-- Node41&#45;&gt;Node44 -->
<g id="edge3" class="edge">
<title>Node41&#45;&gt;Node44</title>
<path fill="none" stroke="#191970" d="M69.0167,-204.4041C85.6015,-221.9 113.5184,-248.3213 143,-263 150.851,-266.9089 159.5075,-270.0219 168.2017,-272.499"/>
<polygon fill="#191970" stroke="#191970" points="71.1848,-201.5931 61.8282,-196.6227 66.0431,-206.3431 71.1848,-201.5931"/>
</g>
<!-- Node45 -->
<g id="node5" class="node">
<title>Node45</title>
<g id="a_node5"><a xlink:href="classVorbisEncoder.html#a97a04788b45c6ad2417eaa6af44986e6" target="_top" xlink:title="VorbisEncoder::VorbisEncoder">
<polygon fill="#ffffff" stroke="#000000" points="147.5,-234.5 147.5,-253.5 308.5,-253.5 308.5,-234.5 147.5,-234.5"/>
<text text-anchor="middle" x="228" y="-241.5" font-family="Helvetica,sans-Serif" font-size="10.00" fill="#000000">VorbisEncoder::VorbisEncoder</text>
</a>
</g>
</g>
<!-- Node41&#45;&gt;Node45 -->
<g id="edge4" class="edge">
<title>Node41&#45;&gt;Node45</title>
<path fill="none" stroke="#191970" d="M82.5244,-200.9104C99.7955,-208.7847 122.3093,-218.3559 143,-225 154.2297,-228.606 166.5072,-231.7785 178.1516,-234.4468"/>
<polygon fill="#191970" stroke="#191970" points="83.5596,-197.5327 73.0147,-196.5052 80.6173,-203.8843 83.5596,-197.5327"/>
</g>
<!-- Node46 -->
<g id="node6" class="node">
<title>Node46</title>
<g id="a_node6"><a xlink:href="classAudioBuffers.html#a0ef951c1d9fa74a04d269cf8cbfe218d" target="_top" xlink:title="AudioBuffers::MixInputs">
<polygon fill="#ffffff" stroke="#000000" points="162,-196.5 162,-215.5 294,-215.5 294,-196.5 162,-196.5"/>
<text text-anchor="middle" x="228" y="-203.5" font-family="Helvetica,sans-Serif" font-size="10.00" fill="#000000">AudioBuffers::MixInputs</text>
</a>
</g>
</g>
<!-- Node41&#45;&gt;Node46 -->
<g id="edge5" class="edge">
<title>Node41&#45;&gt;Node46</title>
<path fill="none" stroke="#191970" d="M117.582,-193.9774C131.9849,-195.5456 147.2959,-197.2127 161.7841,-198.7902"/>
<polygon fill="#191970" stroke="#191970" points="117.5997,-190.4587 107.2796,-192.8557 116.842,-197.4176 117.5997,-190.4587"/>
</g>
<!-- Node49 -->
<g id="node9" class="node">
<title>Node49</title>
<g id="a_node9"><a xlink:href="classPulse.html#ad159d5b915010a5fd93eb397aa47aa39" target="_top" xlink:title="Pulse::Pulse">
<polygon fill="#ffffff" stroke="#000000" points="190.5,-158.5 190.5,-177.5 265.5,-177.5 265.5,-158.5 190.5,-158.5"/>
<text text-anchor="middle" x="228" y="-165.5" font-family="Helvetica,sans-Serif" font-size="10.00" fill="#000000">Pulse::Pulse</text>
</a>
</g>
</g>
<!-- Node41&#45;&gt;Node49 -->
<g id="edge8" class="edge">
<title>Node41&#45;&gt;Node49</title>
<path fill="none" stroke="#191970" d="M117.2638,-180.0572C141.8439,-177.3809 169.111,-174.412 190.4373,-172.0899"/>
<polygon fill="#191970" stroke="#191970" points="116.842,-176.5824 107.2796,-181.1443 117.5997,-183.5413 116.842,-176.5824"/>
</g>
<!-- Node50 -->
<g id="node10" class="node">
<title>Node50</title>
<g id="a_node10"><a xlink:href="classPulse.html#adf28cef50c1f7543db7171b67126c38f" target="_top" xlink:title="Pulse::process">
<polygon fill="#ffffff" stroke="#000000" points="185,-120.5 185,-139.5 271,-139.5 271,-120.5 185,-120.5"/>
<text text-anchor="middle" x="228" y="-127.5" font-family="Helvetica,sans-Serif" font-size="10.00" fill="#000000">Pulse::process</text>
</a>
</g>
</g>
<!-- Node41&#45;&gt;Node50 -->
<g id="edge9" class="edge">
<title>Node41&#45;&gt;Node50</title>
<path fill="none" stroke="#191970" d="M82.5244,-173.0896C99.7955,-165.2153 122.3093,-155.6441 143,-149 156.3893,-144.7005 171.2681,-141.0174 184.7872,-138.0702"/>
<polygon fill="#191970" stroke="#191970" points="80.6173,-170.1157 73.0147,-177.4948 83.5596,-176.4673 80.6173,-170.1157"/>
</g>
<!-- Node51 -->
<g id="node11" class="node">
<title>Node51</title>
<g id="a_node11"><a xlink:href="classMidiIO.html#aef220bcce8b89bea36032298868a919e" target="_top" xlink:title="MidiIO::run_midi_thread">
<polygon fill="#ffffff" stroke="#000000" points="353,-88.5 353,-107.5 486,-107.5 486,-88.5 353,-88.5"/>
<text text-anchor="middle" x="419.5" y="-95.5" font-family="Helvetica,sans-Serif" font-size="10.00" fill="#000000">MidiIO::run_midi_thread</text>
</a>
</g>
</g>
<!-- Node41&#45;&gt;Node51 -->
<g id="edge10" class="edge">
<title>Node41&#45;&gt;Node51</title>
<path fill="none" stroke="#191970" d="M67.594,-169.6152C83.6538,-151.2617 111.7534,-123.3173 143,-111 210.733,-84.2998 295.1344,-84.6489 352.754,-89.3829"/>
<polygon fill="#191970" stroke="#191970" points="64.8909,-167.3912 61.0942,-177.2824 70.2305,-171.9177 64.8909,-167.3912"/>
</g>
<!-- Node53 -->
<g id="node13" class="node">
<title>Node53</title>
<g id="a_node13"><a xlink:href="classMidiIO.html#a1753eb05e14eb572a5f52b9616480d55" target="_top" xlink:title="MidiIO::SetMIDIForPatch">
<polygon fill="#ffffff" stroke="#000000" points="162,-44.5 162,-63.5 294,-63.5 294,-44.5 162,-44.5"/>
<text text-anchor="middle" x="228" y="-51.5" font-family="Helvetica,sans-Serif" font-size="10.00" fill="#000000">MidiIO::SetMIDIForPatch</text>
</a>
</g>
</g>
<!-- Node41&#45;&gt;Node53 -->
<g id="edge12" class="edge">
<title>Node41&#45;&gt;Node53</title>
<path fill="none" stroke="#191970" d="M63.7463,-168.5394C78.2285,-144.1572 106.9804,-101.5606 143,-78 152.6244,-71.7047 163.9051,-67.0381 175.0455,-63.5862"/>
<polygon fill="#191970" stroke="#191970" points="60.5529,-167.071 58.5912,-177.4827 66.6175,-170.5668 60.5529,-167.071"/>
</g>
<!-- Node56 -->
<g id="node16" class="node">
<title>Node56</title>
<g id="a_node16"><a xlink:href="classOSCClient.html#acbb974bf11667aa6fb48c111ae14a4fe" target="_top" xlink:title="OSCClient::SendPlayingLoops">
<polygon fill="#ffffff" stroke="#000000" points="148,-3.5 148,-22.5 308,-22.5 308,-3.5 148,-3.5"/>
<text text-anchor="middle" x="228" y="-10.5" font-family="Helvetica,sans-Serif" font-size="10.00" fill="#000000">OSCClient::SendPlayingLoops</text>
</a>
</g>
</g>
<!-- Node41&#45;&gt;Node56 -->
<g id="edge16" class="edge">
<title>Node41&#45;&gt;Node56</title>
<path fill="none" stroke="#191970" d="M59.3982,-167.7418C70.3732,-135.2274 97.0823,-69.6146 143,-35 150.0598,-29.678 158.2838,-25.6383 166.7819,-22.573"/>
<polygon fill="#191970" stroke="#191970" points="56.0195,-166.8151 56.2744,-177.4069 62.6803,-168.968 56.0195,-166.8151"/>
</g>
<!-- Node47 -->
<g id="node7" class="node">
<title>Node47</title>
<g id="a_node7"><a xlink:href="classRecordProcessor.html#ad36d69ec9d41b424eb2e6c5fa2e0cf3a" target="_top" xlink:title="RecordProcessor::process">
<polygon fill="#ffffff" stroke="#000000" points="349.5,-218.5 349.5,-237.5 489.5,-237.5 489.5,-218.5 349.5,-218.5"/>
<text text-anchor="middle" x="419.5" y="-225.5" font-family="Helvetica,sans-Serif" font-size="10.00" fill="#000000">RecordProcessor::process</text>
</a>
</g>
</g>
<!-- Node46&#45;&gt;Node47 -->
<g id="edge6" class="edge">
<title>Node46&#45;&gt;Node47</title>
<path fill="none" stroke="#191970" d="M304.3471,-214.7709C319.2224,-216.4799 334.7499,-218.2637 349.4108,-219.948"/>
<polygon fill="#191970" stroke="#191970" points="304.5057,-211.2662 294.1716,-213.602 303.7068,-218.2205 304.5057,-211.2662"/>
</g>
<!-- Node48 -->
<g id="node8" class="node">
<title>Node48</title>
<g id="a_node8"><a xlink:href="classPassthroughProcessor.html#a10fbf639d2b8899ef15011532da47ad8" target="_top" xlink:title="PassthroughProcessor\l::process">
<polygon fill="#ffffff" stroke="#000000" points="358,-169 358,-199 481,-199 481,-169 358,-169"/>
<text text-anchor="start" x="366" y="-187" font-family="Helvetica,sans-Serif" font-size="10.00" fill="#000000">PassthroughProcessor</text>
<text text-anchor="middle" x="419.5" y="-176" font-family="Helvetica,sans-Serif" font-size="10.00" fill="#000000">::process</text>
</a>
</g>
</g>
<!-- Node46&#45;&gt;Node48 -->
<g id="edge7" class="edge">
<title>Node46&#45;&gt;Node48</title>
<path fill="none" stroke="#191970" d="M304.4797,-197.2138C322.2004,-195.178 340.8396,-193.0367 357.8319,-191.0846"/>
<polygon fill="#191970" stroke="#191970" points="303.7068,-193.7795 294.1716,-198.398 304.5057,-200.7338 303.7068,-193.7795"/>
</g>
<!-- Node52 -->
<g id="node12" class="node">
<title>Node52</title>
<g id="a_node12"><a xlink:href="classMidiIO.html#a222509803679fcf4bcb7b4b4a34cf0cd" target="_top" xlink:title="MidiIO::activate">
<polygon fill="#ffffff" stroke="#000000" points="542,-85.5 542,-104.5 635,-104.5 635,-85.5 542,-85.5"/>
<text text-anchor="middle" x="588.5" y="-92.5" font-family="Helvetica,sans-Serif" font-size="10.00" fill="#000000">MidiIO::activate</text>
</a>
</g>
</g>
<!-- Node51&#45;&gt;Node52 -->
<g id="edge11" class="edge">
<title>Node51&#45;&gt;Node52</title>
<path fill="none" stroke="#191970" d="M496.434,-96.6343C511.9749,-96.3584 527.8599,-96.0765 541.9636,-95.8261"/>
<polygon fill="#191970" stroke="#191970" points="496.2295,-93.1373 486.2933,-96.8143 496.3539,-100.1362 496.2295,-93.1373"/>
</g>
<!-- Node54 -->
<g id="node14" class="node">
<title>Node54</title>
<g id="a_node14"><a xlink:href="classPatchBrowser.html#a90246446ed1a2650a2a7555f5d76c653" target="_top" xlink:title="PatchBrowser::SetMIDIFor\lPatch">
<polygon fill="#ffffff" stroke="#000000" points="349,-39 349,-69 490,-69 490,-39 349,-39"/>
<text text-anchor="start" x="357" y="-57" font-family="Helvetica,sans-Serif" font-size="10.00" fill="#000000">PatchBrowser::SetMIDIFor</text>
<text text-anchor="middle" x="419.5" y="-46" font-family="Helvetica,sans-Serif" font-size="10.00" fill="#000000">Patch</text>
</a>
</g>
</g>
<!-- Node53&#45;&gt;Node54 -->
<g id="edge13" class="edge">
<title>Node53&#45;&gt;Node54</title>
<path fill="none" stroke="#191970" d="M304.2222,-54C318.9137,-54 334.2457,-54 348.7541,-54"/>
<polygon fill="#191970" stroke="#191970" points="304.1716,-50.5001 294.1716,-54 304.1716,-57.5001 304.1716,-50.5001"/>
</g>
<!-- Node54&#45;&gt;Node52 -->
<g id="edge15" class="edge">
<title>Node54&#45;&gt;Node52</title>
<path fill="none" stroke="#191970" d="M491.3968,-71.4424C511.1844,-76.243 531.9154,-81.2724 549.1169,-85.4455"/>
<polygon fill="#191970" stroke="#191970" points="492.013,-67.9905 481.4697,-69.0341 490.3626,-74.7931 492.013,-67.9905"/>
</g>
<!-- Node55 -->
<g id="node15" class="node">
<title>Node55</title>
<g id="a_node15"><a xlink:href="classFweelin.html#acacaa80535c0688358984d2070fedb71" target="_top" xlink:title="Fweelin::ItemSelected">
<polygon fill="#ffffff" stroke="#000000" points="526,-44.5 526,-63.5 651,-63.5 651,-44.5 526,-44.5"/>
<text text-anchor="middle" x="588.5" y="-51.5" font-family="Helvetica,sans-Serif" font-size="10.00" fill="#000000">Fweelin::ItemSelected</text>
</a>
</g>
</g>
<!-- Node54&#45;&gt;Node55 -->
<g id="edge14" class="edge">
<title>Node54&#45;&gt;Node55</title>
<path fill="none" stroke="#191970" d="M500.2564,-54C508.8684,-54 517.5324,-54 525.8896,-54"/>
<polygon fill="#191970" stroke="#191970" points="500.192,-50.5001 490.192,-54 500.192,-57.5001 500.192,-50.5001"/>
</g>
<!-- Node57 -->
<g id="node17" class="node">
<title>Node57</title>
<g id="a_node17"><a xlink:href="classOSCClient.html#a8b38ea5b76702f9e763daeb694091116" target="_top" xlink:title="OSCClient::ReceiveEvent">
<polygon fill="#ffffff" stroke="#000000" points="351,-.5 351,-19.5 488,-19.5 488,-.5 351,-.5"/>
<text text-anchor="middle" x="419.5" y="-7.5" font-family="Helvetica,sans-Serif" font-size="10.00" fill="#000000">OSCClient::ReceiveEvent</text>
</a>
</g>
</g>
<!-- Node56&#45;&gt;Node57 -->
<g id="edge17" class="edge">
<title>Node56&#45;&gt;Node57</title>
<path fill="none" stroke="#191970" d="M318.1821,-11.5872C329.205,-11.4145 340.3265,-11.2403 350.9599,-11.0737"/>
<polygon fill="#191970" stroke="#191970" points="318.0476,-8.0888 308.1037,-11.7451 318.1573,-15.0879 318.0476,-8.0888"/>
</g>
</g>
</svg>
