<?xml version="1.0" encoding="UTF-8" standalone="no"?>
<!DOCTYPE svg PUBLIC "-//W3C//DTD SVG 1.1//EN"
 "http://www.w3.org/Graphics/SVG/1.1/DTD/svg11.dtd">
<!-- Generated by graphviz version 2.40.1 (20161225.0304)
 -->
<!-- Title: Saveable::RenameSaveable Pages: 1 -->
<svg width="541pt" height="56pt"
 viewBox="0.00 0.00 541.00 55.50" xmlns="http://www.w3.org/2000/svg" xmlns:xlink="http://www.w3.org/1999/xlink">
<g id="graph0" class="graph" transform="scale(1 1) rotate(0) translate(4 51.5)">
<title>Saveable::RenameSaveable</title>
<polygon fill="#ffffff" stroke="transparent" points="-4,4 -4,-51.5 537,-51.5 537,4 -4,4"/>
<!-- Node45 -->
<g id="node1" class="node">
<title>Node45</title>
<polygon fill="#bfbfbf" stroke="#000000" points="0,-28 0,-47 152,-47 152,-28 0,-28"/>
<text text-anchor="middle" x="76" y="-35" font-family="Helvetica,sans-Serif" font-size="10.00" fill="#000000">Saveable::RenameSaveable</text>
</g>
<!-- Node46 -->
<g id="node2" class="node">
<title>Node46</title>
<g id="a_node2"><a xlink:href="classLoopManager.html#a7954eacf6a4f8d0300c4100133a4b725" target="_top" xlink:title="LoopManager::ItemRenamed">
<polygon fill="#ffffff" stroke="#000000" points="377,-28 377,-47 533,-47 533,-28 377,-28"/>
<text text-anchor="middle" x="455" y="-35" font-family="Helvetica,sans-Serif" font-size="10.00" fill="#000000">LoopManager::ItemRenamed</text>
</a>
</g>
</g>
<!-- Node45&#45;&gt;Node46 -->
<g id="edge1" class="edge">
<title>Node45&#45;&gt;Node46</title>
<path fill="none" stroke="#191970" d="M162.355,-40.045C171.0179,-40.2307 179.6822,-40.3886 188,-40.5 255.9939,-41.4105 273.0059,-41.3945 341,-40.5 352.5811,-40.3476 364.8223,-40.1083 376.8172,-39.8296"/>
<polygon fill="#191970" stroke="#191970" points="162.2836,-36.5426 152.2069,-39.8153 162.1251,-43.5408 162.2836,-36.5426"/>
</g>
<!-- Node47 -->
<g id="node3" class="node">
<title>Node47</title>
<g id="a_node3"><a xlink:href="classSaveable.html#ae80419c61613dd2ec659d23b3fe0e788" target="_top" xlink:title="Saveable::SetSaveableHash\lFromText">
<polygon fill="#ffffff" stroke="#000000" points="188,-.5 188,-30.5 341,-30.5 341,-.5 188,-.5"/>
<text text-anchor="start" x="196" y="-18.5" font-family="Helvetica,sans-Serif" font-size="10.00" fill="#000000">Saveable::SetSaveableHash</text>
<text text-anchor="middle" x="264.5" y="-7.5" font-family="Helvetica,sans-Serif" font-size="10.00" fill="#000000">FromText</text>
</a>
</g>
</g>
<!-- Node45&#45;&gt;Node47 -->
<g id="edge2" class="edge">
<title>Node45&#45;&gt;Node47</title>
<path fill="none" stroke="#191970" d="M162.117,-27.4492C170.6769,-26.4502 179.3271,-25.4406 187.7821,-24.4538"/>
<polygon fill="#191970" stroke="#191970" points="161.6536,-23.9794 152.1268,-28.6152 162.4652,-30.9322 161.6536,-23.9794"/>
</g>
<!-- Node47&#45;&gt;Node46 -->
<g id="edge3" class="edge">
<title>Node47&#45;&gt;Node46</title>
<path fill="none" stroke="#191970" d="M351.1817,-25.5105C359.7696,-26.5023 368.4512,-27.5049 376.9441,-28.4857"/>
<polygon fill="#191970" stroke="#191970" points="351.4957,-22.0236 341.1602,-24.3531 350.6926,-28.9774 351.4957,-22.0236"/>
</g>
</g>
</svg>
