<?xml version="1.0" encoding="UTF-8" standalone="no"?>
<!DOCTYPE svg PUBLIC "-//W3C//DTD SVG 1.1//EN"
 "http://www.w3.org/Graphics/SVG/1.1/DTD/svg11.dtd">
<!-- Generated by graphviz version 2.40.1 (20161225.0304)
 -->
<!-- Title: BlockReadManager::Manage Pages: 1 -->
<svg width="1403pt" height="592pt"
 viewBox="0.00 0.00 1403.00 592.00" xmlns="http://www.w3.org/2000/svg" xmlns:xlink="http://www.w3.org/1999/xlink">
<g id="graph0" class="graph" transform="scale(1 1) rotate(0) translate(4 588)">
<title>BlockReadManager::Manage</title>
<polygon fill="#ffffff" stroke="transparent" points="-4,4 -4,-588 1399,-588 1399,4 -4,4"/>
<!-- Node45 -->
<g id="node1" class="node">
<title>Node45</title>
<polygon fill="#bfbfbf" stroke="#000000" points="0,-126.5 0,-145.5 154,-145.5 154,-126.5 0,-126.5"/>
<text text-anchor="middle" x="77" y="-133.5" font-family="Helvetica,sans-Serif" font-size="10.00" fill="#000000">BlockReadManager::Manage</text>
</g>
<!-- Node46 -->
<g id="node2" class="node">
<title>Node46</title>
<g id="a_node2"><a xlink:href="classAutoReadControl.html#a8599ca391178672554471e6261d5abb7" target="_top" xlink:title="AutoReadControl::GetRead\lBlock">
<polygon fill="#ffffff" stroke="#000000" points="191.5,-279 191.5,-309 337.5,-309 337.5,-279 191.5,-279"/>
<text text-anchor="start" x="199.5" y="-297" font-family="Helvetica,sans-Serif" font-size="10.00" fill="#000000">AutoReadControl::GetRead</text>
<text text-anchor="middle" x="264.5" y="-286" font-family="Helvetica,sans-Serif" font-size="10.00" fill="#000000">Block</text>
</a>
</g>
</g>
<!-- Node45&#45;&gt;Node46 -->
<g id="edge1" class="edge">
<title>Node45&#45;&gt;Node46</title>
<path fill="none" stroke="#191970" d="M82.5434,-145.5863C97.0455,-169.8392 138.5662,-234.1779 190,-269 192.9126,-270.9719 195.9941,-272.8002 199.181,-274.4937"/>
<polygon fill="#191970" stroke="#191970" points="197.8591,-277.7416 208.3885,-278.9174 200.8905,-271.432 197.8591,-277.7416"/>
</g>
<!-- Node47 -->
<g id="node3" class="node">
<title>Node47</title>
<g id="a_node3"><a xlink:href="classBlockReadManager.html#af12804c61f944904eedf8c9edf5cd3bd" target="_top" xlink:title="BlockReadManager::Start">
<polygon fill="#ffffff" stroke="#000000" points="195,-240.5 195,-259.5 334,-259.5 334,-240.5 195,-240.5"/>
<text text-anchor="middle" x="264.5" y="-247.5" font-family="Helvetica,sans-Serif" font-size="10.00" fill="#000000">BlockReadManager::Start</text>
</a>
</g>
</g>
<!-- Node45&#45;&gt;Node47 -->
<g id="edge2" class="edge">
<title>Node45&#45;&gt;Node47</title>
<path fill="none" stroke="#191970" d="M92.6636,-145.5235C125.3382,-165.3896 200.9699,-211.3737 240.0863,-235.1565"/>
<polygon fill="#191970" stroke="#191970" points="238.3861,-238.2189 248.7491,-240.4234 242.0227,-232.2376 238.3861,-238.2189"/>
</g>
<!-- Node58 -->
<g id="node14" class="node">
<title>Node58</title>
<g id="a_node14"><a xlink:href="classPreallocated.html#a9195f3c7f49432b1dd7be89e53c6a5b1" target="_top" xlink:title="Preallocated::RTNew">
<polygon fill="#ffffff" stroke="#000000" points="406,-107.5 406,-126.5 523,-126.5 523,-107.5 406,-107.5"/>
<text text-anchor="middle" x="464.5" y="-114.5" font-family="Helvetica,sans-Serif" font-size="10.00" fill="#000000">Preallocated::RTNew</text>
</a>
</g>
</g>
<!-- Node45&#45;&gt;Node58 -->
<g id="edge46" class="edge">
<title>Node45&#45;&gt;Node58</title>
<path fill="none" stroke="#191970" d="M154.0208,-132.2235C224.5604,-128.7648 328.0106,-123.6924 395.8008,-120.3685"/>
<polygon fill="#191970" stroke="#191970" points="396.133,-123.8565 405.9496,-119.8709 395.7901,-116.8649 396.133,-123.8565"/>
</g>
<!-- Node67 -->
<g id="node23" class="node">
<title>Node67</title>
<g id="a_node23"><a xlink:href="classBlockReadManager.html#a0956beb932559fdea3ecca152db2bd0a" target="_top" xlink:title="BlockReadManager::End">
<polygon fill="#ffffff" stroke="#000000" points="397.5,-145.5 397.5,-164.5 531.5,-164.5 531.5,-145.5 397.5,-145.5"/>
<text text-anchor="middle" x="464.5" y="-152.5" font-family="Helvetica,sans-Serif" font-size="10.00" fill="#000000">BlockReadManager::End</text>
</a>
</g>
</g>
<!-- Node45&#45;&gt;Node67 -->
<g id="edge49" class="edge">
<title>Node45&#45;&gt;Node67</title>
<path fill="none" stroke="#191970" d="M154.1945,-140.1578C166.1812,-140.7864 178.4236,-141.4185 190,-142 256.6136,-145.3458 332.3328,-148.9142 387.3477,-151.4643"/>
<polygon fill="#191970" stroke="#191970" points="387.2212,-154.9621 397.3723,-151.9283 387.5449,-147.9696 387.2212,-154.9621"/>
</g>
<!-- Node82 -->
<g id="node38" class="node">
<title>Node82</title>
<g id="a_node38"><a xlink:href="classAudioBlockIterator.html#abaa576b7e2830581ae169b42fded76d3" target="_top" xlink:title="AudioBlockIterator\l::GetCurBlock">
<polygon fill="#ffffff" stroke="#000000" points="211,-77 211,-107 318,-107 318,-77 211,-77"/>
<text text-anchor="start" x="219" y="-95" font-family="Helvetica,sans-Serif" font-size="10.00" fill="#000000">AudioBlockIterator</text>
<text text-anchor="middle" x="264.5" y="-84" font-family="Helvetica,sans-Serif" font-size="10.00" fill="#000000">::GetCurBlock</text>
</a>
</g>
</g>
<!-- Node45&#45;&gt;Node82 -->
<g id="edge45" class="edge">
<title>Node45&#45;&gt;Node82</title>
<path fill="none" stroke="#191970" d="M117.6847,-126.4527C141.9538,-120.7575 173.2971,-113.4023 200.7875,-106.9512"/>
<polygon fill="#191970" stroke="#191970" points="201.7851,-110.3123 210.721,-104.6201 200.1858,-103.4974 201.7851,-110.3123"/>
</g>
<!-- Node83 -->
<g id="node39" class="node">
<title>Node83</title>
<g id="a_node39"><a xlink:href="classAudioBlock.html#a06cdbcd25758a3f9c56eb90656ff2bd5" target="_top" xlink:title="AudioBlock::Link">
<polygon fill="#ffffff" stroke="#000000" points="215.5,-38.5 215.5,-57.5 313.5,-57.5 313.5,-38.5 215.5,-38.5"/>
<text text-anchor="middle" x="264.5" y="-45.5" font-family="Helvetica,sans-Serif" font-size="10.00" fill="#000000">AudioBlock::Link</text>
</a>
</g>
</g>
<!-- Node45&#45;&gt;Node83 -->
<g id="edge47" class="edge">
<title>Node45&#45;&gt;Node83</title>
<path fill="none" stroke="#191970" d="M89.8696,-126.3539C110.1507,-111.5781 151.2385,-83.3402 190,-67 195.8117,-64.5501 202.0159,-62.3572 208.2699,-60.4101"/>
<polygon fill="#191970" stroke="#191970" points="209.4665,-63.7071 218.0892,-57.5508 207.5094,-56.9862 209.4665,-63.7071"/>
</g>
<!-- Node84 -->
<g id="node40" class="node">
<title>Node84</title>
<g id="a_node40"><a xlink:href="classiFileDecoder.html#ad7747116bc04c6ca21531118ffd5db49" target="_top" xlink:title="iFileDecoder::ReadSamples">
<polygon fill="#ffffff" stroke="#000000" points="190,-.5 190,-19.5 339,-19.5 339,-.5 190,-.5"/>
<text text-anchor="middle" x="264.5" y="-7.5" font-family="Helvetica,sans-Serif" font-size="10.00" fill="#000000">iFileDecoder::ReadSamples</text>
</a>
</g>
</g>
<!-- Node45&#45;&gt;Node84 -->
<g id="edge48" class="edge">
<title>Node45&#45;&gt;Node84</title>
<path fill="none" stroke="#191970" d="M84.3092,-126.3095C100.7521,-105.217 142.9182,-54.9611 190,-29 194.1641,-26.7039 198.612,-24.6789 203.1841,-22.894"/>
<polygon fill="#191970" stroke="#191970" points="204.4151,-26.1713 212.6921,-19.5576 202.0973,-19.5662 204.4151,-26.1713"/>
</g>
<!-- Node48 -->
<g id="node4" class="node">
<title>Node48</title>
<g id="a_node4"><a xlink:href="classBlockManager.html#a42884d55a4c50d9aa57b98e8211e9747" target="_top" xlink:title="BlockManager::GetApp">
<polygon fill="#ffffff" stroke="#000000" points="400.5,-221.5 400.5,-240.5 528.5,-240.5 528.5,-221.5 400.5,-221.5"/>
<text text-anchor="middle" x="464.5" y="-228.5" font-family="Helvetica,sans-Serif" font-size="10.00" fill="#000000">BlockManager::GetApp</text>
</a>
</g>
</g>
<!-- Node47&#45;&gt;Node48 -->
<g id="edge3" class="edge">
<title>Node47&#45;&gt;Node48</title>
<path fill="none" stroke="#191970" d="M334.1695,-243.3814C352.3373,-241.6555 371.9804,-239.7894 390.3701,-238.0423"/>
<polygon fill="#191970" stroke="#191970" points="390.8162,-241.5158 400.4403,-237.0857 390.1541,-234.5472 390.8162,-241.5158"/>
</g>
<!-- Node49 -->
<g id="node5" class="node">
<title>Node49</title>
<g id="a_node5"><a xlink:href="classFweelin.html#a284c4fa5ca72714cdaa4ad4b21ef4ff0" target="_top" xlink:title="Fweelin::getPRE_AUDIOBLOCK">
<polygon fill="#ffffff" stroke="#000000" points="382,-183.5 382,-202.5 547,-202.5 547,-183.5 382,-183.5"/>
<text text-anchor="middle" x="464.5" y="-190.5" font-family="Helvetica,sans-Serif" font-size="10.00" fill="#000000">Fweelin::getPRE_AUDIOBLOCK</text>
</a>
</g>
</g>
<!-- Node47&#45;&gt;Node49 -->
<g id="edge4" class="edge">
<title>Node47&#45;&gt;Node49</title>
<path fill="none" stroke="#191970" d="M289.6797,-240.3564C311.8994,-232.0841 345.283,-220.2309 375,-212 384.3164,-209.4196 394.2615,-206.9922 404.0097,-204.791"/>
<polygon fill="#191970" stroke="#191970" points="405.0467,-208.1467 414.0625,-202.582 403.5443,-201.3098 405.0467,-208.1467"/>
</g>
<!-- Node50 -->
<g id="node6" class="node">
<title>Node50</title>
<g id="a_node6"><a xlink:href="classPreallocatedType.html#a232eab10b1d49ee50f435d175c4ceda5" target="_top" xlink:title="PreallocatedType::RTNewWithWait">
<polygon fill="#ffffff" stroke="#000000" points="590,-523.5 590,-542.5 774,-542.5 774,-523.5 590,-523.5"/>
<text text-anchor="middle" x="682" y="-530.5" font-family="Helvetica,sans-Serif" font-size="10.00" fill="#000000">PreallocatedType::RTNewWithWait</text>
</a>
</g>
</g>
<!-- Node47&#45;&gt;Node50 -->
<g id="edge5" class="edge">
<title>Node47&#45;&gt;Node50</title>
<path fill="none" stroke="#191970" d="M326.7185,-259.5753C331.277,-262.0814 335.4644,-265.1791 339,-269 402.422,-337.5394 309.3467,-409.5948 375,-476 427.4749,-529.0758 512.3057,-541.5484 579.5107,-541.74"/>
<polygon fill="#191970" stroke="#191970" points="579.7365,-545.2388 589.7144,-541.6763 579.6927,-538.2389 579.7365,-545.2388"/>
</g>
<!-- Node57 -->
<g id="node13" class="node">
<title>Node57</title>
<g id="a_node13"><a xlink:href="classFweelin.html#a8bbb791d815a8c4f39f9ce672828b50e" target="_top" xlink:title="Fweelin::getPRE_EXTRACHANNEL">
<polygon fill="#ffffff" stroke="#000000" points="375,-335.5 375,-354.5 554,-354.5 554,-335.5 375,-335.5"/>
<text text-anchor="middle" x="464.5" y="-342.5" font-family="Helvetica,sans-Serif" font-size="10.00" fill="#000000">Fweelin::getPRE_EXTRACHANNEL</text>
</a>
</g>
</g>
<!-- Node47&#45;&gt;Node57 -->
<g id="edge12" class="edge">
<title>Node47&#45;&gt;Node57</title>
<path fill="none" stroke="#191970" d="M321.4798,-259.6346C327.7151,-262.0844 333.7097,-265.1541 339,-269 363.2357,-286.6185 350.4123,-308.8762 375,-326 377.7373,-327.9064 380.6278,-329.6278 383.6279,-331.1819"/>
<polygon fill="#191970" stroke="#191970" points="382.3579,-334.4484 392.9135,-335.3594 385.2299,-328.0647 382.3579,-334.4484"/>
</g>
<!-- Node47&#45;&gt;Node58 -->
<g id="edge13" class="edge">
<title>Node47&#45;&gt;Node58</title>
<path fill="none" stroke="#191970" d="M270.8959,-240.1873C286.0469,-217.7968 326.5156,-162.8082 375,-136 381.4987,-132.4067 388.6086,-129.4922 395.8898,-127.1283"/>
<polygon fill="#191970" stroke="#191970" points="397.2517,-130.3778 405.8834,-124.2342 395.3045,-123.6541 397.2517,-130.3778"/>
</g>
<!-- Node59 -->
<g id="node15" class="node">
<title>Node59</title>
<g id="a_node15"><a xlink:href="classPreallocated.html#aaf2139a79ca16de70acd9bc4564171b7" target="_top" xlink:title="Preallocated::RTDelete">
<polygon fill="#ffffff" stroke="#000000" points="1030,-254.5 1030,-273.5 1158,-273.5 1158,-254.5 1030,-254.5"/>
<text text-anchor="middle" x="1094" y="-261.5" font-family="Helvetica,sans-Serif" font-size="10.00" fill="#000000">Preallocated::RTDelete</text>
</a>
</g>
</g>
<!-- Node47&#45;&gt;Node59 -->
<g id="edge14" class="edge">
<title>Node47&#45;&gt;Node59</title>
<path fill="none" stroke="#191970" d="M324.5109,-259.6303C329.7754,-262.1007 334.7197,-265.1761 339,-269 372.6721,-299.0816 337.8439,-338.3457 375,-364 437.2428,-406.9753 755.4569,-428.7867 981,-349 1020.6364,-334.9785 1057.8141,-301.6745 1078.0829,-281.1639"/>
<polygon fill="#191970" stroke="#191970" points="1080.8102,-283.3776 1085.2269,-273.7472 1075.7686,-278.5214 1080.8102,-283.3776"/>
</g>
<!-- Node60 -->
<g id="node16" class="node">
<title>Node60</title>
<g id="a_node16"><a xlink:href="classAudioBlock.html#aa3129140d4e8c54e83afbef223cf8a65" target="_top" xlink:title="AudioBlock::AddExtendedData">
<polygon fill="#ffffff" stroke="#000000" points="382,-297.5 382,-316.5 547,-316.5 547,-297.5 382,-297.5"/>
<text text-anchor="middle" x="464.5" y="-304.5" font-family="Helvetica,sans-Serif" font-size="10.00" fill="#000000">AudioBlock::AddExtendedData</text>
</a>
</g>
</g>
<!-- Node47&#45;&gt;Node60 -->
<g id="edge15" class="edge">
<title>Node47&#45;&gt;Node60</title>
<path fill="none" stroke="#191970" d="M309.1601,-259.5625C319.1216,-262.1978 329.5335,-265.3537 339,-269 355.8826,-275.5028 357.9891,-281.8406 375,-288 382.3511,-290.6617 390.1838,-293.0023 398.0413,-295.0468"/>
<polygon fill="#191970" stroke="#191970" points="397.4272,-298.4998 407.9728,-297.4801 399.093,-291.7009 397.4272,-298.4998"/>
</g>
<!-- Node61 -->
<g id="node17" class="node">
<title>Node61</title>
<g id="a_node17"><a xlink:href="classBlockManager.html#af050835c736257358a3f572f8422ff1d" target="_top" xlink:title="BlockManager::PeakAvgOn">
<polygon fill="#ffffff" stroke="#000000" points="391,-447.5 391,-466.5 538,-466.5 538,-447.5 391,-447.5"/>
<text text-anchor="middle" x="464.5" y="-454.5" font-family="Helvetica,sans-Serif" font-size="10.00" fill="#000000">BlockManager::PeakAvgOn</text>
</a>
</g>
</g>
<!-- Node47&#45;&gt;Node61 -->
<g id="edge16" class="edge">
<title>Node47&#45;&gt;Node61</title>
<path fill="none" stroke="#191970" d="M325.5913,-259.6063C330.5101,-262.0926 335.0832,-265.1778 339,-269 381.2951,-310.2731 340.318,-349.1512 375,-397 389.6237,-417.1755 413.2603,-432.5997 432.5713,-442.7547"/>
<polygon fill="#191970" stroke="#191970" points="431.1385,-445.9517 441.6454,-447.3143 434.2815,-439.6969 431.1385,-445.9517"/>
</g>
<!-- Node66 -->
<g id="node22" class="node">
<title>Node66</title>
<g id="a_node22"><a xlink:href="classiFileDecoder.html#a0e057264373a2a0cf4a9a1d0b3c0cd76" target="_top" xlink:title="iFileDecoder::ReadFromFile">
<polygon fill="#ffffff" stroke="#000000" points="391,-259.5 391,-278.5 538,-278.5 538,-259.5 391,-259.5"/>
<text text-anchor="middle" x="464.5" y="-266.5" font-family="Helvetica,sans-Serif" font-size="10.00" fill="#000000">iFileDecoder::ReadFromFile</text>
</a>
</g>
</g>
<!-- Node47&#45;&gt;Node66 -->
<g id="edge22" class="edge">
<title>Node47&#45;&gt;Node66</title>
<path fill="none" stroke="#191970" d="M334.1695,-256.6186C349.1508,-258.0418 365.1353,-259.5604 380.5929,-261.0288"/>
<polygon fill="#191970" stroke="#191970" points="380.3726,-264.5236 390.6588,-261.9851 381.0347,-257.5549 380.3726,-264.5236"/>
</g>
<!-- Node47&#45;&gt;Node67 -->
<g id="edge23" class="edge">
<title>Node47&#45;&gt;Node67</title>
<path fill="none" stroke="#191970" d="M275.2348,-240.4196C294.0411,-224.1677 334.7826,-191.2808 375,-174 380.8423,-171.4897 387.0459,-169.2998 393.3549,-167.3917"/>
<polygon fill="#191970" stroke="#191970" points="394.6234,-170.6718 403.3192,-164.6193 392.747,-163.9279 394.6234,-170.6718"/>
</g>
<!-- Node51 -->
<g id="node7" class="node">
<title>Node51</title>
<g id="a_node7"><a xlink:href="classPreallocatedType.html#ae8a5326530dd0f38ecbb094f7818bd42" target="_top" xlink:title="PreallocatedType::RTNew">
<polygon fill="#ffffff" stroke="#000000" points="825.5,-526.5 825.5,-545.5 965.5,-545.5 965.5,-526.5 825.5,-526.5"/>
<text text-anchor="middle" x="895.5" y="-533.5" font-family="Helvetica,sans-Serif" font-size="10.00" fill="#000000">PreallocatedType::RTNew</text>
</a>
</g>
</g>
<!-- Node50&#45;&gt;Node51 -->
<g id="edge6" class="edge">
<title>Node50&#45;&gt;Node51</title>
<path fill="none" stroke="#191970" d="M774.0923,-534.294C787.7623,-534.4861 801.7592,-534.6828 815.1632,-534.8711"/>
<polygon fill="#191970" stroke="#191970" points="815.2343,-538.3724 825.2825,-535.0133 815.3327,-531.3731 815.2343,-538.3724"/>
</g>
<!-- Node52 -->
<g id="node8" class="node">
<title>Node52</title>
<g id="a_node8"><a xlink:href="classRTStore.html#a2be0d247570dc611a379ab0a80dd14da" target="_top" xlink:title="RTStore::FindItemWithState">
<polygon fill="#ffffff" stroke="#000000" points="1019,-564.5 1019,-583.5 1169,-583.5 1169,-564.5 1019,-564.5"/>
<text text-anchor="middle" x="1094" y="-571.5" font-family="Helvetica,sans-Serif" font-size="10.00" fill="#000000">RTStore::FindItemWithState</text>
</a>
</g>
</g>
<!-- Node51&#45;&gt;Node52 -->
<g id="edge7" class="edge">
<title>Node51&#45;&gt;Node52</title>
<path fill="none" stroke="#191970" d="M945.3337,-545.54C972.2339,-550.6896 1005.6362,-557.084 1033.9614,-562.5065"/>
<polygon fill="#191970" stroke="#191970" points="1033.666,-566.0134 1044.1458,-564.4561 1034.9822,-559.1382 1033.666,-566.0134"/>
</g>
<!-- Node53 -->
<g id="node9" class="node">
<title>Node53</title>
<g id="a_node9"><a xlink:href="classRTStore.html#af3c93f31bd68ce149a812b05d9e7cd86" target="_top" xlink:title="RTStore::ChangeStateAtIdx">
<polygon fill="#ffffff" stroke="#000000" points="1020,-526.5 1020,-545.5 1168,-545.5 1168,-526.5 1020,-526.5"/>
<text text-anchor="middle" x="1094" y="-533.5" font-family="Helvetica,sans-Serif" font-size="10.00" fill="#000000">RTStore::ChangeStateAtIdx</text>
</a>
</g>
</g>
<!-- Node51&#45;&gt;Node53 -->
<g id="edge8" class="edge">
<title>Node51&#45;&gt;Node53</title>
<path fill="none" stroke="#191970" d="M965.763,-536C979.9898,-536 995.0876,-536 1009.7393,-536"/>
<polygon fill="#191970" stroke="#191970" points="1009.7954,-539.5001 1019.7954,-536 1009.7953,-532.5001 1009.7954,-539.5001"/>
</g>
<!-- Node54 -->
<g id="node10" class="node">
<title>Node54</title>
<g id="a_node10"><a xlink:href="classMemoryManager.html#a3971e97751f5eccd04086eb2e6fb6f43" target="_top" xlink:title="MemoryManager::WakeUp">
<polygon fill="#ffffff" stroke="#000000" points="1021.5,-488.5 1021.5,-507.5 1166.5,-507.5 1166.5,-488.5 1021.5,-488.5"/>
<text text-anchor="middle" x="1094" y="-495.5" font-family="Helvetica,sans-Serif" font-size="10.00" fill="#000000">MemoryManager::WakeUp</text>
</a>
</g>
</g>
<!-- Node51&#45;&gt;Node54 -->
<g id="edge9" class="edge">
<title>Node51&#45;&gt;Node54</title>
<path fill="none" stroke="#191970" d="M945.3337,-526.46C972.2339,-521.3104 1005.6362,-514.916 1033.9614,-509.4935"/>
<polygon fill="#191970" stroke="#191970" points="1034.9822,-512.8618 1044.1458,-507.5439 1033.666,-505.9866 1034.9822,-512.8618"/>
</g>
<!-- Node55 -->
<g id="node11" class="node">
<title>Node55</title>
<g id="a_node11"><a xlink:href="classSRMWRingBuffer.html#a47699ccc0600c38559c8e10f0ca9bf3c" target="_top" xlink:title="SRMWRingBuffer::WriteElement">
<polygon fill="#ffffff" stroke="#000000" points="1216,-507.5 1216,-526.5 1386,-526.5 1386,-507.5 1216,-507.5"/>
<text text-anchor="middle" x="1301" y="-514.5" font-family="Helvetica,sans-Serif" font-size="10.00" fill="#000000">SRMWRingBuffer::WriteElement</text>
</a>
</g>
</g>
<!-- Node54&#45;&gt;Node55 -->
<g id="edge10" class="edge">
<title>Node54&#45;&gt;Node55</title>
<path fill="none" stroke="#191970" d="M1166.6894,-504.672C1179.3144,-505.8308 1192.6125,-507.0514 1205.7329,-508.2557"/>
<polygon fill="#191970" stroke="#191970" points="1205.4395,-511.7434 1215.7175,-509.1721 1206.0793,-504.7727 1205.4395,-511.7434"/>
</g>
<!-- Node56 -->
<g id="node12" class="node">
<title>Node56</title>
<g id="a_node12"><a xlink:href="classMemoryManager.html#ab15be510a88e9eab04db2d6554d7e947" target="_top" xlink:title="MemoryManager::WakeupIfNeeded">
<polygon fill="#ffffff" stroke="#000000" points="1207,-469.5 1207,-488.5 1395,-488.5 1395,-469.5 1207,-469.5"/>
<text text-anchor="middle" x="1301" y="-476.5" font-family="Helvetica,sans-Serif" font-size="10.00" fill="#000000">MemoryManager::WakeupIfNeeded</text>
</a>
</g>
</g>
<!-- Node54&#45;&gt;Node56 -->
<g id="edge11" class="edge">
<title>Node54&#45;&gt;Node56</title>
<path fill="none" stroke="#191970" d="M1166.6894,-491.328C1176.3875,-490.4379 1186.4828,-489.5112 1196.5896,-488.5836"/>
<polygon fill="#191970" stroke="#191970" points="1197.0478,-492.0563 1206.686,-487.6568 1196.4079,-485.0856 1197.0478,-492.0563"/>
</g>
<!-- Node61&#45;&gt;Node50 -->
<g id="edge18" class="edge">
<title>Node61&#45;&gt;Node50</title>
<path fill="none" stroke="#191970" d="M484.2162,-466.6066C513.9961,-481.0041 569.1812,-507.2164 590,-514 598.2247,-516.6799 606.9904,-519.065 615.72,-521.1623"/>
<polygon fill="#191970" stroke="#191970" points="615.0009,-524.5881 625.5298,-523.4083 616.5632,-517.7647 615.0009,-524.5881"/>
</g>
<!-- Node62 -->
<g id="node18" class="node">
<title>Node62</title>
<g id="a_node18"><a xlink:href="classBlockManager.html#ae59dae7f7f6572b004dcdacc740204ac" target="_top" xlink:title="BlockManager::DelManager">
<polygon fill="#ffffff" stroke="#000000" points="820.5,-320.5 820.5,-339.5 970.5,-339.5 970.5,-320.5 820.5,-320.5"/>
<text text-anchor="middle" x="895.5" y="-327.5" font-family="Helvetica,sans-Serif" font-size="10.00" fill="#000000">BlockManager::DelManager</text>
</a>
</g>
</g>
<!-- Node61&#45;&gt;Node62 -->
<g id="edge17" class="edge">
<title>Node61&#45;&gt;Node62</title>
<path fill="none" stroke="#191970" d="M496.8951,-447.4544C573.8211,-424.7871 767.4502,-367.7316 853.3418,-342.4225"/>
<polygon fill="#191970" stroke="#191970" points="854.4206,-345.7535 863.0236,-339.5696 852.442,-339.0389 854.4206,-345.7535"/>
</g>
<!-- Node63 -->
<g id="node19" class="node">
<title>Node63</title>
<g id="a_node19"><a xlink:href="classPeaksAvgsManager.html#a4523d9df43dc9ee00f25cad935271380" target="_top" xlink:title="PeaksAvgsManager::Setup">
<polygon fill="#ffffff" stroke="#000000" points="609.5,-485.5 609.5,-504.5 754.5,-504.5 754.5,-485.5 609.5,-485.5"/>
<text text-anchor="middle" x="682" y="-492.5" font-family="Helvetica,sans-Serif" font-size="10.00" fill="#000000">PeaksAvgsManager::Setup</text>
</a>
</g>
</g>
<!-- Node61&#45;&gt;Node63 -->
<g id="edge19" class="edge">
<title>Node61&#45;&gt;Node63</title>
<path fill="none" stroke="#191970" d="M519.1037,-466.54C548.9665,-471.7574 586.1426,-478.2525 617.4368,-483.72"/>
<polygon fill="#191970" stroke="#191970" points="616.9207,-487.1828 627.3738,-485.4561 618.1255,-480.2872 616.9207,-487.1828"/>
</g>
<!-- Node65 -->
<g id="node21" class="node">
<title>Node65</title>
<g id="a_node21"><a xlink:href="classBlockManager.html#aa5e8b71de591a2e25779a1eacdc09704" target="_top" xlink:title="BlockManager::AddManager">
<polygon fill="#ffffff" stroke="#000000" points="606,-447.5 606,-466.5 758,-466.5 758,-447.5 606,-447.5"/>
<text text-anchor="middle" x="682" y="-454.5" font-family="Helvetica,sans-Serif" font-size="10.00" fill="#000000">BlockManager::AddManager</text>
</a>
</g>
</g>
<!-- Node61&#45;&gt;Node65 -->
<g id="edge21" class="edge">
<title>Node61&#45;&gt;Node65</title>
<path fill="none" stroke="#191970" d="M538.1356,-457C556.6258,-457 576.6331,-457 595.6806,-457"/>
<polygon fill="#191970" stroke="#191970" points="595.8432,-460.5001 605.8431,-457 595.8431,-453.5001 595.8432,-460.5001"/>
</g>
<!-- Node64 -->
<g id="node20" class="node">
<title>Node64</title>
<g id="a_node20"><a xlink:href="classAudioBlockIterator.html#a1dc8579425203e09e42b1776095cc10b" target="_top" xlink:title="AudioBlockIterator\l::AudioBlockIterator">
<polygon fill="#ffffff" stroke="#000000" points="839,-477 839,-507 952,-507 952,-477 839,-477"/>
<text text-anchor="start" x="847" y="-495" font-family="Helvetica,sans-Serif" font-size="10.00" fill="#000000">AudioBlockIterator</text>
<text text-anchor="middle" x="895.5" y="-484" font-family="Helvetica,sans-Serif" font-size="10.00" fill="#000000">::AudioBlockIterator</text>
</a>
</g>
</g>
<!-- Node63&#45;&gt;Node64 -->
<g id="edge20" class="edge">
<title>Node63&#45;&gt;Node64</title>
<path fill="none" stroke="#191970" d="M754.5793,-493.9802C778.5885,-493.6428 805.1758,-493.2692 828.7282,-492.9382"/>
<polygon fill="#191970" stroke="#191970" points="829.0169,-496.4346 838.9667,-492.7944 828.9184,-489.4353 829.0169,-496.4346"/>
</g>
<!-- Node68 -->
<g id="node24" class="node">
<title>Node68</title>
<g id="a_node24"><a xlink:href="classiFileDecoder.html#a3a9e784a7831ca8990d66f045bb1f2e7" target="_top" xlink:title="iFileDecoder::Stop">
<polygon fill="#ffffff" stroke="#000000" points="630,-33.5 630,-52.5 734,-52.5 734,-33.5 630,-33.5"/>
<text text-anchor="middle" x="682" y="-40.5" font-family="Helvetica,sans-Serif" font-size="10.00" fill="#000000">iFileDecoder::Stop</text>
</a>
</g>
</g>
<!-- Node67&#45;&gt;Node68 -->
<g id="edge24" class="edge">
<title>Node67&#45;&gt;Node68</title>
<path fill="none" stroke="#191970" d="M531.5691,-147.888C539.6457,-145.0384 547.3679,-141.1856 554,-136 582.8125,-113.4718 561.1254,-84.4485 590,-62 598.6751,-55.2556 609.1563,-50.7451 619.8921,-47.76"/>
<polygon fill="#191970" stroke="#191970" points="620.8498,-51.1302 629.7786,-45.4269 619.242,-44.3173 620.8498,-51.1302"/>
</g>
<!-- Node69 -->
<g id="node25" class="node">
<title>Node69</title>
<g id="a_node25"><a xlink:href="classAudioBlockIterator.html#a33e1c3a6381e3c0ba5dd129885509eb3" target="_top" xlink:title="AudioBlockIterator\l::EndChain">
<polygon fill="#ffffff" stroke="#000000" points="628.5,-262 628.5,-292 735.5,-292 735.5,-262 628.5,-262"/>
<text text-anchor="start" x="636.5" y="-280" font-family="Helvetica,sans-Serif" font-size="10.00" fill="#000000">AudioBlockIterator</text>
<text text-anchor="middle" x="682" y="-269" font-family="Helvetica,sans-Serif" font-size="10.00" fill="#000000">::EndChain</text>
</a>
</g>
</g>
<!-- Node67&#45;&gt;Node69 -->
<g id="edge25" class="edge">
<title>Node67&#45;&gt;Node69</title>
<path fill="none" stroke="#191970" d="M531.6694,-161.985C539.73,-164.8549 547.421,-168.7471 554,-174 583.837,-197.8229 560.8435,-227.3489 590,-252 598.1415,-258.8835 608.0106,-263.8857 618.2224,-267.5176"/>
<polygon fill="#191970" stroke="#191970" points="617.4841,-270.9538 628.0729,-270.5966 619.5725,-264.2725 617.4841,-270.9538"/>
</g>
<!-- Node71 -->
<g id="node27" class="node">
<title>Node71</title>
<g id="a_node27"><a xlink:href="classPeaksAvgsManager.html#ad10e0ee30593b6e27e9928390d04ce58" target="_top" xlink:title="PeaksAvgsManager::Manage">
<polygon fill="#ffffff" stroke="#000000" points="604.5,-71.5 604.5,-90.5 759.5,-90.5 759.5,-71.5 604.5,-71.5"/>
<text text-anchor="middle" x="682" y="-78.5" font-family="Helvetica,sans-Serif" font-size="10.00" fill="#000000">PeaksAvgsManager::Manage</text>
</a>
</g>
</g>
<!-- Node67&#45;&gt;Node71 -->
<g id="edge28" class="edge">
<title>Node67&#45;&gt;Node71</title>
<path fill="none" stroke="#191970" d="M531.0622,-145.3963C539.045,-142.9435 546.8801,-139.8646 554,-136 573.8867,-125.2057 570.0835,-110.7393 590,-100 594.2617,-97.702 598.7723,-95.6815 603.4166,-93.9049"/>
<polygon fill="#191970" stroke="#191970" points="604.773,-97.1401 613.1007,-90.5904 602.5061,-90.5173 604.773,-97.1401"/>
</g>
<!-- Node72 -->
<g id="node28" class="node">
<title>Node72</title>
<g id="a_node28"><a xlink:href="classPeaksAvgsManager.html#a7d5c60dc637af4095167410c4ae924f4" target="_top" xlink:title="PeaksAvgsManager::End">
<polygon fill="#ffffff" stroke="#000000" points="614.5,-223.5 614.5,-242.5 749.5,-242.5 749.5,-223.5 614.5,-223.5"/>
<text text-anchor="middle" x="682" y="-230.5" font-family="Helvetica,sans-Serif" font-size="10.00" fill="#000000">PeaksAvgsManager::End</text>
</a>
</g>
</g>
<!-- Node67&#45;&gt;Node72 -->
<g id="edge29" class="edge">
<title>Node67&#45;&gt;Node72</title>
<path fill="none" stroke="#191970" d="M531.7298,-164.3948C539.5162,-166.8844 547.1218,-170.029 554,-174 574.7134,-185.9585 569.2536,-202.0988 590,-214 594.6861,-216.6882 599.6999,-218.9989 604.8781,-220.9846"/>
<polygon fill="#191970" stroke="#191970" points="603.7465,-224.2966 614.341,-224.2196 606.0108,-217.6729 603.7465,-224.2966"/>
</g>
<!-- Node73 -->
<g id="node29" class="node">
<title>Node73</title>
<g id="a_node29"><a xlink:href="classBlockManager.html#a7380825963fc62c90186a0b3c72e8d89" target="_top" xlink:title="BlockManager::PeakAvgOff">
<polygon fill="#ffffff" stroke="#000000" points="608,-317.5 608,-336.5 756,-336.5 756,-317.5 608,-317.5"/>
<text text-anchor="middle" x="682" y="-324.5" font-family="Helvetica,sans-Serif" font-size="10.00" fill="#000000">BlockManager::PeakAvgOff</text>
</a>
</g>
</g>
<!-- Node67&#45;&gt;Node73 -->
<g id="edge30" class="edge">
<title>Node67&#45;&gt;Node73</title>
<path fill="none" stroke="#191970" d="M531.5803,-160.7102C539.8485,-163.7528 547.6188,-168.0329 554,-174 596.8517,-214.0713 548.4988,-259.5317 590,-301 594.8909,-305.887 600.626,-309.872 606.8012,-313.1192"/>
<polygon fill="#191970" stroke="#191970" points="605.5655,-316.4024 616.1163,-317.3678 608.4704,-310.0336 605.5655,-316.4024"/>
</g>
<!-- Node74 -->
<g id="node30" class="node">
<title>Node74</title>
<g id="a_node30"><a xlink:href="classAudioBlock.html#adeb97443eade7fd99e54dc15a05dfaef" target="_top" xlink:title="AudioBlock::DeleteChain">
<polygon fill="#ffffff" stroke="#000000" points="827,-223.5 827,-242.5 964,-242.5 964,-223.5 827,-223.5"/>
<text text-anchor="middle" x="895.5" y="-230.5" font-family="Helvetica,sans-Serif" font-size="10.00" fill="#000000">AudioBlock::DeleteChain</text>
</a>
</g>
</g>
<!-- Node67&#45;&gt;Node74 -->
<g id="edge32" class="edge">
<title>Node67&#45;&gt;Node74</title>
<path fill="none" stroke="#191970" d="M531.6875,-145.9661C596.8476,-140.2478 696.8934,-139.6919 774,-176 795.0477,-185.911 789.7594,-202.5304 810,-214 813.9771,-216.2537 818.1992,-218.24 822.5539,-219.9908"/>
<polygon fill="#191970" stroke="#191970" points="821.6607,-223.3884 832.2553,-223.4596 824.0175,-216.7971 821.6607,-223.3884"/>
</g>
<!-- Node76 -->
<g id="node32" class="node">
<title>Node76</title>
<g id="a_node32"><a xlink:href="classAudioBlock.html#a09c778d19d7d45dbb68951fabff2f518" target="_top" xlink:title="AudioBlock::Smooth">
<polygon fill="#ffffff" stroke="#000000" points="624.5,-109.5 624.5,-128.5 739.5,-128.5 739.5,-109.5 624.5,-109.5"/>
<text text-anchor="middle" x="682" y="-116.5" font-family="Helvetica,sans-Serif" font-size="10.00" fill="#000000">AudioBlock::Smooth</text>
</a>
</g>
</g>
<!-- Node67&#45;&gt;Node76 -->
<g id="edge35" class="edge">
<title>Node67&#45;&gt;Node76</title>
<path fill="none" stroke="#191970" d="M521.9301,-145.4943C550.1885,-140.8171 584.4454,-135.147 614.0054,-130.2543"/>
<polygon fill="#191970" stroke="#191970" points="614.9535,-133.6451 624.2477,-128.559 613.8104,-126.739 614.9535,-133.6451"/>
</g>
<!-- Node81 -->
<g id="node37" class="node">
<title>Node81</title>
<g id="a_node37"><a xlink:href="classAutoReadControl.html#a4a665022d2569bfb0eab015b0d1e1b75" target="_top" xlink:title="AutoReadControl::ReadComplete">
<polygon fill="#ffffff" stroke="#000000" points="594,-185.5 594,-204.5 770,-204.5 770,-185.5 594,-185.5"/>
<text text-anchor="middle" x="682" y="-192.5" font-family="Helvetica,sans-Serif" font-size="10.00" fill="#000000">AutoReadControl::ReadComplete</text>
</a>
</g>
</g>
<!-- Node67&#45;&gt;Node81 -->
<g id="edge44" class="edge">
<title>Node67&#45;&gt;Node81</title>
<path fill="none" stroke="#191970" d="M516.3203,-164.5302C547.5204,-170.2681 587.427,-177.6073 620.2564,-183.6449"/>
<polygon fill="#191970" stroke="#191970" points="619.732,-187.107 630.2002,-185.4736 620.9982,-180.2225 619.732,-187.107"/>
</g>
<!-- Node70 -->
<g id="node26" class="node">
<title>Node70</title>
<g id="a_node26"><a xlink:href="classAudioBlock.html#a1577ddd5048ce06dbddfae7702b35c81" target="_top" xlink:title="AudioBlock::ChopChain">
<polygon fill="#ffffff" stroke="#000000" points="830.5,-264.5 830.5,-283.5 960.5,-283.5 960.5,-264.5 830.5,-264.5"/>
<text text-anchor="middle" x="895.5" y="-271.5" font-family="Helvetica,sans-Serif" font-size="10.00" fill="#000000">AudioBlock::ChopChain</text>
</a>
</g>
</g>
<!-- Node69&#45;&gt;Node70 -->
<g id="edge26" class="edge">
<title>Node69&#45;&gt;Node70</title>
<path fill="none" stroke="#191970" d="M735.5995,-276.2468C761.2321,-275.8867 792.3537,-275.4494 820.3043,-275.0566"/>
<polygon fill="#191970" stroke="#191970" points="820.4925,-278.5544 830.4424,-274.9142 820.3941,-271.5551 820.4925,-278.5544"/>
</g>
<!-- Node70&#45;&gt;Node59 -->
<g id="edge27" class="edge">
<title>Node70&#45;&gt;Node59</title>
<path fill="none" stroke="#191970" d="M960.7713,-270.7118C979.5449,-269.766 1000.1631,-268.7273 1019.452,-267.7556"/>
<polygon fill="#191970" stroke="#191970" points="1019.8936,-271.2379 1029.7048,-267.2391 1019.5414,-264.2467 1019.8936,-271.2379"/>
</g>
<!-- Node73&#45;&gt;Node62 -->
<g id="edge31" class="edge">
<title>Node73&#45;&gt;Node62</title>
<path fill="none" stroke="#191970" d="M756.0728,-328.0408C773.5715,-328.2867 792.3666,-328.5508 810.3133,-328.803"/>
<polygon fill="#191970" stroke="#191970" points="810.4248,-332.3048 820.473,-328.9458 810.5232,-325.3055 810.4248,-332.3048"/>
</g>
<!-- Node74&#45;&gt;Node59 -->
<g id="edge34" class="edge">
<title>Node74&#45;&gt;Node59</title>
<path fill="none" stroke="#191970" d="M956.4055,-242.5117C977.3613,-245.7844 1001.012,-249.4779 1022.719,-252.868"/>
<polygon fill="#191970" stroke="#191970" points="1022.4473,-256.3679 1032.8677,-254.4529 1023.5275,-249.4517 1022.4473,-256.3679"/>
</g>
<!-- Node75 -->
<g id="node31" class="node">
<title>Node75</title>
<g id="a_node31"><a xlink:href="classBlockExtendedData.html#ae33e9550384a32abf2a91386334a2be9" target="_top" xlink:title="BlockExtendedData::\lGetType">
<polygon fill="#ffffff" stroke="#000000" points="1034.5,-188 1034.5,-218 1153.5,-218 1153.5,-188 1034.5,-188"/>
<text text-anchor="start" x="1042.5" y="-206" font-family="Helvetica,sans-Serif" font-size="10.00" fill="#000000">BlockExtendedData::</text>
<text text-anchor="middle" x="1094" y="-195" font-family="Helvetica,sans-Serif" font-size="10.00" fill="#000000">GetType</text>
</a>
</g>
</g>
<!-- Node74&#45;&gt;Node75 -->
<g id="edge33" class="edge">
<title>Node74&#45;&gt;Node75</title>
<path fill="none" stroke="#191970" d="M958.5794,-223.4666C979.5518,-220.297 1003.0205,-216.75 1024.4536,-213.5108"/>
<polygon fill="#191970" stroke="#191970" points="1025.1009,-216.9528 1034.4655,-211.9977 1024.0548,-210.0314 1025.1009,-216.9528"/>
</g>
<!-- Node77 -->
<g id="node33" class="node">
<title>Node77</title>
<g id="a_node33"><a xlink:href="classAudioBlock.html#a380880c91c3af2322d232ce2de83b881" target="_top" xlink:title="AudioBlock::GetTotalLen">
<polygon fill="#ffffff" stroke="#000000" points="1026.5,-85.5 1026.5,-104.5 1161.5,-104.5 1161.5,-85.5 1026.5,-85.5"/>
<text text-anchor="middle" x="1094" y="-92.5" font-family="Helvetica,sans-Serif" font-size="10.00" fill="#000000">AudioBlock::GetTotalLen</text>
</a>
</g>
</g>
<!-- Node76&#45;&gt;Node77 -->
<g id="edge36" class="edge">
<title>Node76&#45;&gt;Node77</title>
<path fill="none" stroke="#191970" d="M739.583,-111.7884C761.5834,-109.2733 786.9229,-106.666 810,-105 879.6313,-99.973 959.0564,-97.448 1016.1736,-96.195"/>
<polygon fill="#191970" stroke="#191970" points="1016.2898,-99.6934 1026.2136,-95.9828 1016.1419,-92.695 1016.2898,-99.6934"/>
</g>
<!-- Node78 -->
<g id="node34" class="node">
<title>Node78</title>
<g id="a_node34"><a xlink:href="classAudioBlock.html#a4f53140535b4c56db4c5360f3fb9eb7d" target="_top" xlink:title="AudioBlock::SetPtrsFromAbs\lOffset">
<polygon fill="#ffffff" stroke="#000000" points="1017,-134 1017,-164 1171,-164 1171,-134 1017,-134"/>
<text text-anchor="start" x="1025" y="-152" font-family="Helvetica,sans-Serif" font-size="10.00" fill="#000000">AudioBlock::SetPtrsFromAbs</text>
<text text-anchor="middle" x="1094" y="-141" font-family="Helvetica,sans-Serif" font-size="10.00" fill="#000000">Offset</text>
</a>
</g>
</g>
<!-- Node76&#45;&gt;Node78 -->
<g id="edge37" class="edge">
<title>Node76&#45;&gt;Node78</title>
<path fill="none" stroke="#191970" d="M739.6404,-122.0872C799.8839,-125.4488 897.1374,-131.2556 981,-138 989.3317,-138.6701 998.0038,-139.42 1006.6749,-140.2049"/>
<polygon fill="#191970" stroke="#191970" points="1006.5545,-143.7085 1016.8332,-141.1397 1007.196,-136.7379 1006.5545,-143.7085"/>
</g>
<!-- Node79 -->
<g id="node35" class="node">
<title>Node79</title>
<g id="a_node35"><a xlink:href="classAudioBlock.html#ae7aec1591ed6f228799c11b650b2cc1b" target="_top" xlink:title="AudioBlock::GetExtendedData">
<polygon fill="#ffffff" stroke="#000000" points="813.5,-185.5 813.5,-204.5 977.5,-204.5 977.5,-185.5 813.5,-185.5"/>
<text text-anchor="middle" x="895.5" y="-192.5" font-family="Helvetica,sans-Serif" font-size="10.00" fill="#000000">AudioBlock::GetExtendedData</text>
</a>
</g>
</g>
<!-- Node76&#45;&gt;Node79 -->
<g id="edge38" class="edge">
<title>Node76&#45;&gt;Node79</title>
<path fill="none" stroke="#191970" d="M736.6988,-128.6116C749.4016,-132.092 762.5471,-136.7646 774,-143 793.0629,-153.3786 790.7508,-165.9711 810,-176 814.5197,-178.3548 819.3214,-180.4186 824.2539,-182.2274"/>
<polygon fill="#191970" stroke="#191970" points="823.2675,-185.5875 833.8607,-185.4007 825.4631,-178.9407 823.2675,-185.5875"/>
</g>
<!-- Node80 -->
<g id="node36" class="node">
<title>Node80</title>
<g id="a_node36"><a xlink:href="classAudioBlock.html#aa9e0bc3fa297c7c97aedda16f240108f" target="_top" xlink:title="AudioBlock::HackTotalLengthBy">
<polygon fill="#ffffff" stroke="#000000" points="810,-147.5 810,-166.5 981,-166.5 981,-147.5 810,-147.5"/>
<text text-anchor="middle" x="895.5" y="-154.5" font-family="Helvetica,sans-Serif" font-size="10.00" fill="#000000">AudioBlock::HackTotalLengthBy</text>
</a>
</g>
</g>
<!-- Node76&#45;&gt;Node80 -->
<g id="edge40" class="edge">
<title>Node76&#45;&gt;Node80</title>
<path fill="none" stroke="#191970" d="M735.5995,-128.54C764.7862,-133.7348 801.0897,-140.1963 831.7249,-145.6489"/>
<polygon fill="#191970" stroke="#191970" points="831.4198,-149.1496 841.8785,-147.4561 832.6465,-142.2579 831.4198,-149.1496"/>
</g>
<!-- Node79&#45;&gt;Node75 -->
<g id="edge39" class="edge">
<title>Node79&#45;&gt;Node75</title>
<path fill="none" stroke="#191970" d="M977.6704,-198.3117C993.0957,-198.9333 1009.0886,-199.5779 1024.0975,-200.1828"/>
<polygon fill="#191970" stroke="#191970" points="1024.1792,-203.6888 1034.3121,-200.5944 1024.4611,-196.6945 1024.1792,-203.6888"/>
</g>
<!-- Node80&#45;&gt;Node59 -->
<g id="edge43" class="edge">
<title>Node80&#45;&gt;Node59</title>
<path fill="none" stroke="#191970" d="M961.9567,-166.5545C968.6873,-169.0267 975.1777,-172.1235 981,-176 1004.0944,-191.3762 995.816,-209.0831 1017,-227 1028.4816,-236.7109 1042.9468,-244.5335 1056.2312,-250.4403"/>
<polygon fill="#191970" stroke="#191970" points="1055.0616,-253.7455 1065.636,-254.4024 1057.7793,-247.2945 1055.0616,-253.7455"/>
</g>
<!-- Node80&#45;&gt;Node77 -->
<g id="edge41" class="edge">
<title>Node80&#45;&gt;Node77</title>
<path fill="none" stroke="#191970" d="M926.0806,-147.4484C960.3225,-136.7532 1015.9537,-119.3772 1053.7169,-107.5821"/>
<polygon fill="#191970" stroke="#191970" points="1054.8829,-110.8848 1063.3846,-104.5625 1052.7959,-104.2031 1054.8829,-110.8848"/>
</g>
<!-- Node80&#45;&gt;Node78 -->
<g id="edge42" class="edge">
<title>Node80&#45;&gt;Node78</title>
<path fill="none" stroke="#191970" d="M981.1221,-153.5492C989.5517,-153.2095 998.115,-152.8644 1006.5625,-152.5239"/>
<polygon fill="#191970" stroke="#191970" points="1006.9415,-156.0116 1016.7924,-152.1116 1006.6595,-149.0173 1006.9415,-156.0116"/>
</g>
</g>
</svg>
