<?xml version="1.0" encoding="UTF-8" standalone="no"?>
<!DOCTYPE svg PUBLIC "-//W3C//DTD SVG 1.1//EN"
 "http://www.w3.org/Graphics/SVG/1.1/DTD/svg11.dtd">
<!-- Generated by graphviz version 2.40.1 (20161225.0304)
 -->
<!-- Title: LoopManager::SaveNewScene Pages: 1 -->
<svg width="555pt" height="47pt"
 viewBox="0.00 0.00 555.00 47.00" xmlns="http://www.w3.org/2000/svg" xmlns:xlink="http://www.w3.org/1999/xlink">
<g id="graph0" class="graph" transform="scale(1 1) rotate(0) translate(4 43)">
<title>LoopManager::SaveNewScene</title>
<polygon fill="#ffffff" stroke="transparent" points="-4,4 -4,-43 551,-43 551,4 -4,4"/>
<!-- Node968 -->
<g id="node1" class="node">
<title>Node968</title>
<polygon fill="#bfbfbf" stroke="#000000" points="0,-.5 0,-19.5 163,-19.5 163,-.5 0,-.5"/>
<text text-anchor="middle" x="81.5" y="-7.5" font-family="Helvetica,sans-Serif" font-size="10.00" fill="#000000">LoopManager::SaveNewScene</text>
</g>
<!-- Node969 -->
<g id="node2" class="node">
<title>Node969</title>
<g id="a_node2"><a xlink:href="classLoopManager.html#abd2cda6ecc976fd447167d5de7cc5912" target="_top" xlink:title="LoopManager::SaveCurScene">
<polygon fill="#ffffff" stroke="#000000" points="199,-19.5 199,-38.5 357,-38.5 357,-19.5 199,-19.5"/>
<text text-anchor="middle" x="278" y="-26.5" font-family="Helvetica,sans-Serif" font-size="10.00" fill="#000000">LoopManager::SaveCurScene</text>
</a>
</g>
</g>
<!-- Node968&#45;&gt;Node969 -->
<g id="edge1" class="edge">
<title>Node968&#45;&gt;Node969</title>
<path fill="none" stroke="#191970" d="M173.1537,-18.8622C181.7352,-19.692 190.3841,-20.5282 198.8369,-21.3456"/>
<polygon fill="#191970" stroke="#191970" points="173.4171,-15.3714 163.1266,-17.8926 172.7433,-22.3389 173.4171,-15.3714"/>
</g>
<!-- Node970 -->
<g id="node3" class="node">
<title>Node970</title>
<g id="a_node3"><a xlink:href="classLoopManager.html#a4aada2d07b7ce0a67a8119ece4805966" target="_top" xlink:title="LoopManager::ReceiveEvent">
<polygon fill="#ffffff" stroke="#000000" points="393,-.5 393,-19.5 547,-19.5 547,-.5 393,-.5"/>
<text text-anchor="middle" x="470" y="-7.5" font-family="Helvetica,sans-Serif" font-size="10.00" fill="#000000">LoopManager::ReceiveEvent</text>
</a>
</g>
</g>
<!-- Node968&#45;&gt;Node970 -->
<g id="edge3" class="edge">
<title>Node968&#45;&gt;Node970</title>
<path fill="none" stroke="#191970" d="M173.5213,-10C240.3391,-10 329.7252,-10 392.824,-10"/>
<polygon fill="#191970" stroke="#191970" points="173.4162,-6.5001 163.4161,-10 173.4161,-13.5001 173.4162,-6.5001"/>
</g>
<!-- Node969&#45;&gt;Node970 -->
<g id="edge2" class="edge">
<title>Node969&#45;&gt;Node970</title>
<path fill="none" stroke="#191970" d="M367.2044,-20.1725C375.7671,-19.3251 384.4022,-18.4706 392.8355,-17.6361"/>
<polygon fill="#191970" stroke="#191970" points="366.8089,-16.6944 357.2022,-21.1623 367.4983,-23.6604 366.8089,-16.6944"/>
</g>
</g>
</svg>
