<?xml version="1.0" encoding="UTF-8" standalone="no"?>
<!DOCTYPE svg PUBLIC "-//W3C//DTD SVG 1.1//EN"
 "http://www.w3.org/Graphics/SVG/1.1/DTD/svg11.dtd">
<!-- Generated by graphviz version 2.40.1 (20161225.0304)
 -->
<!-- Title: Fweelin::getAUDIOMEM Pages: 1 -->
<svg width="886pt" height="180pt"
 viewBox="0.00 0.00 886.00 180.00" xmlns="http://www.w3.org/2000/svg" xmlns:xlink="http://www.w3.org/1999/xlink">
<g id="graph0" class="graph" transform="scale(1 1) rotate(0) translate(4 176)">
<title>Fweelin::getAUDIOMEM</title>
<polygon fill="#ffffff" stroke="transparent" points="-4,4 -4,-176 882,-176 882,4 -4,4"/>
<!-- Node81 -->
<g id="node1" class="node">
<title>Node81</title>
<polygon fill="#bfbfbf" stroke="#000000" points="0,-57.5 0,-76.5 131,-76.5 131,-57.5 0,-57.5"/>
<text text-anchor="middle" x="65.5" y="-64.5" font-family="Helvetica,sans-Serif" font-size="10.00" fill="#000000">Fweelin::getAUDIOMEM</text>
</g>
<!-- Node82 -->
<g id="node2" class="node">
<title>Node82</title>
<g id="a_node2"><a xlink:href="classLoopManager.html#a5630b6fefdfc931ac0ab511c6b77cecf" target="_top" xlink:title="LoopManager::StripePulseOn">
<polygon fill="#ffffff" stroke="#000000" points="167.5,-114.5 167.5,-133.5 323.5,-133.5 323.5,-114.5 167.5,-114.5"/>
<text text-anchor="middle" x="245.5" y="-121.5" font-family="Helvetica,sans-Serif" font-size="10.00" fill="#000000">LoopManager::StripePulseOn</text>
</a>
</g>
</g>
<!-- Node81&#45;&gt;Node82 -->
<g id="edge1" class="edge">
<title>Node81&#45;&gt;Node82</title>
<path fill="none" stroke="#191970" d="M105.4656,-79.6558C138.6463,-90.163 185.1263,-104.8816 215.2738,-114.4284"/>
<polygon fill="#191970" stroke="#191970" points="106.218,-76.2228 95.628,-76.5405 104.1047,-82.8962 106.218,-76.2228"/>
</g>
<!-- Node87 -->
<g id="node7" class="node">
<title>Node87</title>
<g id="a_node7"><a xlink:href="classLoopManager.html#a810b5807daa4272b2275d955190326df" target="_top" xlink:title="LoopManager::StripePulseOff">
<polygon fill="#ffffff" stroke="#000000" points="167,-57.5 167,-76.5 324,-76.5 324,-57.5 167,-57.5"/>
<text text-anchor="middle" x="245.5" y="-64.5" font-family="Helvetica,sans-Serif" font-size="10.00" fill="#000000">LoopManager::StripePulseOff</text>
</a>
</g>
</g>
<!-- Node81&#45;&gt;Node87 -->
<g id="edge8" class="edge">
<title>Node81&#45;&gt;Node87</title>
<path fill="none" stroke="#191970" d="M141.3876,-67C149.7851,-67 158.3507,-67 166.7821,-67"/>
<polygon fill="#191970" stroke="#191970" points="141.2482,-63.5001 131.2482,-67 141.2482,-70.5001 141.2482,-63.5001"/>
</g>
<!-- Node89 -->
<g id="node9" class="node">
<title>Node89</title>
<g id="a_node9"><a xlink:href="classLoopManager.html#add3b21cda3c0eddecabf19d24c610cdc" target="_top" xlink:title="LoopManager::Activate">
<polygon fill="#ffffff" stroke="#000000" points="369,-19.5 369,-38.5 497,-38.5 497,-19.5 369,-19.5"/>
<text text-anchor="middle" x="433" y="-26.5" font-family="Helvetica,sans-Serif" font-size="10.00" fill="#000000">LoopManager::Activate</text>
</a>
</g>
</g>
<!-- Node81&#45;&gt;Node89 -->
<g id="edge11" class="edge">
<title>Node81&#45;&gt;Node89</title>
<path fill="none" stroke="#191970" d="M120.4659,-55.5313C135.4999,-52.7172 151.831,-49.9551 167,-48 235.648,-39.1523 314.8333,-34.1587 368.8371,-31.5351"/>
<polygon fill="#191970" stroke="#191970" points="119.4586,-52.1605 110.2952,-57.4785 120.775,-59.0356 119.4586,-52.1605"/>
</g>
<!-- Node83 -->
<g id="node3" class="node">
<title>Node83</title>
<g id="a_node3"><a xlink:href="classLoopManager.html#ab79aef15f1e783de1ab6827378bea274" target="_top" xlink:title="LoopManager::SelectPulse">
<polygon fill="#ffffff" stroke="#000000" points="361,-133.5 361,-152.5 505,-152.5 505,-133.5 361,-133.5"/>
<text text-anchor="middle" x="433" y="-140.5" font-family="Helvetica,sans-Serif" font-size="10.00" fill="#000000">LoopManager::SelectPulse</text>
</a>
</g>
</g>
<!-- Node82&#45;&gt;Node83 -->
<g id="edge2" class="edge">
<title>Node82&#45;&gt;Node83</title>
<path fill="none" stroke="#191970" d="M333.863,-132.9541C342.9424,-133.8742 352.0893,-134.801 360.9617,-135.7001"/>
<polygon fill="#191970" stroke="#191970" points="333.9611,-129.4462 323.6592,-131.9201 333.2553,-136.4106 333.9611,-129.4462"/>
</g>
<!-- Node84 -->
<g id="node4" class="node">
<title>Node84</title>
<g id="a_node4"><a xlink:href="classLoopManager.html#a67c6f44d33880b35c875a8e6ea8babac" target="_top" xlink:title="LoopManager::TapPulse">
<polygon fill="#ffffff" stroke="#000000" points="549.5,-152.5 549.5,-171.5 680.5,-171.5 680.5,-152.5 549.5,-152.5"/>
<text text-anchor="middle" x="615" y="-159.5" font-family="Helvetica,sans-Serif" font-size="10.00" fill="#000000">LoopManager::TapPulse</text>
</a>
</g>
</g>
<!-- Node82&#45;&gt;Node84 -->
<g id="edge7" class="edge">
<title>Node82&#45;&gt;Node84</title>
<path fill="none" stroke="#191970" d="M276.7732,-137.4073C299.4122,-146.3574 331.0022,-157.3138 360,-162 423.6983,-172.294 497.5217,-170.8665 549.2937,-167.7277"/>
<polygon fill="#191970" stroke="#191970" points="277.9308,-134.1001 267.3482,-133.5926 275.3046,-140.5888 277.9308,-134.1001"/>
</g>
<!-- Node86 -->
<g id="node6" class="node">
<title>Node86</title>
<g id="a_node6"><a xlink:href="classLoopManager.html#a705436ae811a121ed3285ab34b144bfe" target="_top" xlink:title="LoopManager::CreatePulse">
<polygon fill="#ffffff" stroke="#000000" points="360,-95.5 360,-114.5 506,-114.5 506,-95.5 360,-95.5"/>
<text text-anchor="middle" x="433" y="-102.5" font-family="Helvetica,sans-Serif" font-size="10.00" fill="#000000">LoopManager::CreatePulse</text>
</a>
</g>
</g>
<!-- Node82&#45;&gt;Node86 -->
<g id="edge6" class="edge">
<title>Node82&#45;&gt;Node86</title>
<path fill="none" stroke="#191970" d="M333.813,-115.0509C342.5024,-114.1704 351.2543,-113.2836 359.7687,-112.4208"/>
<polygon fill="#191970" stroke="#191970" points="333.2553,-111.5894 323.6592,-116.0799 333.9611,-118.5538 333.2553,-111.5894"/>
</g>
<!-- Node83&#45;&gt;Node84 -->
<g id="edge3" class="edge">
<title>Node83&#45;&gt;Node84</title>
<path fill="none" stroke="#191970" d="M515.1939,-151.5807C526.6508,-152.7767 538.2956,-153.9924 549.3928,-155.1509"/>
<polygon fill="#191970" stroke="#191970" points="515.502,-148.0939 505.1926,-150.5366 514.7751,-155.0561 515.502,-148.0939"/>
</g>
<!-- Node85 -->
<g id="node5" class="node">
<title>Node85</title>
<g id="a_node5"><a xlink:href="classLoopManager.html#a4aada2d07b7ce0a67a8119ece4805966" target="_top" xlink:title="LoopManager::ReceiveEvent">
<polygon fill="#ffffff" stroke="#000000" points="724,-76.5 724,-95.5 878,-95.5 878,-76.5 724,-76.5"/>
<text text-anchor="middle" x="801" y="-83.5" font-family="Helvetica,sans-Serif" font-size="10.00" fill="#000000">LoopManager::ReceiveEvent</text>
</a>
</g>
</g>
<!-- Node83&#45;&gt;Node85 -->
<g id="edge5" class="edge">
<title>Node83&#45;&gt;Node85</title>
<path fill="none" stroke="#191970" d="M509.0012,-132.0529C559.7305,-124.6528 627.9056,-114.529 688,-105 706.7638,-102.0247 727.2536,-98.6251 745.5703,-95.5319"/>
<polygon fill="#191970" stroke="#191970" points="508.4866,-128.5908 499.0955,-133.4956 509.4955,-135.5178 508.4866,-128.5908"/>
</g>
<!-- Node84&#45;&gt;Node85 -->
<g id="edge4" class="edge">
<title>Node84&#45;&gt;Node85</title>
<path fill="none" stroke="#191970" d="M656.2776,-149.3356C666.7121,-145.8869 677.8379,-141.9938 688,-138 721.7665,-124.7297 759.8795,-106.4821 782.0922,-95.505"/>
<polygon fill="#191970" stroke="#191970" points="654.9713,-146.0797 646.5392,-152.4946 657.1313,-152.7382 654.9713,-146.0797"/>
</g>
<!-- Node88 -->
<g id="node8" class="node">
<title>Node88</title>
<g id="a_node8"><a xlink:href="classLoopManager.html#a8efb4c8acabceb10faa8660c14c89d71" target="_top" xlink:title="LoopManager::DeletePulse">
<polygon fill="#ffffff" stroke="#000000" points="542,-76.5 542,-95.5 688,-95.5 688,-76.5 542,-76.5"/>
<text text-anchor="middle" x="615" y="-83.5" font-family="Helvetica,sans-Serif" font-size="10.00" fill="#000000">LoopManager::DeletePulse</text>
</a>
</g>
</g>
<!-- Node87&#45;&gt;Node88 -->
<g id="edge9" class="edge">
<title>Node87&#45;&gt;Node88</title>
<path fill="none" stroke="#191970" d="M334.3236,-71.5674C397.8563,-74.8343 482.3333,-79.1782 541.9573,-82.2441"/>
<polygon fill="#191970" stroke="#191970" points="334.4804,-68.0709 324.3138,-71.0527 334.1208,-75.0617 334.4804,-68.0709"/>
</g>
<!-- Node88&#45;&gt;Node85 -->
<g id="edge10" class="edge">
<title>Node88&#45;&gt;Node85</title>
<path fill="none" stroke="#191970" d="M698.4738,-86C706.918,-86 715.4682,-86 723.8418,-86"/>
<polygon fill="#191970" stroke="#191970" points="698.2452,-82.5001 688.2451,-86 698.2451,-89.5001 698.2452,-82.5001"/>
</g>
<!-- Node89&#45;&gt;Node85 -->
<g id="edge14" class="edge">
<title>Node89&#45;&gt;Node85</title>
<path fill="none" stroke="#191970" d="M507.1721,-39.6804C558.0837,-47.1027 627.1803,-57.356 688,-67 706.7638,-69.9753 727.2536,-73.3749 745.5703,-76.4681"/>
<polygon fill="#191970" stroke="#191970" points="507.64,-36.2117 497.2401,-38.2346 506.6316,-43.1387 507.64,-36.2117"/>
</g>
<!-- Node90 -->
<g id="node10" class="node">
<title>Node90</title>
<g id="a_node10"><a xlink:href="classFweelin.html#a4654015e2bc7cc94f3bfc421899a60d3" target="_top" xlink:title="Fweelin::TriggerSnapshot">
<polygon fill="#ffffff" stroke="#000000" points="546,-.5 546,-19.5 684,-19.5 684,-.5 546,-.5"/>
<text text-anchor="middle" x="615" y="-7.5" font-family="Helvetica,sans-Serif" font-size="10.00" fill="#000000">Fweelin::TriggerSnapshot</text>
</a>
</g>
</g>
<!-- Node89&#45;&gt;Node90 -->
<g id="edge12" class="edge">
<title>Node89&#45;&gt;Node90</title>
<path fill="none" stroke="#191970" d="M507.2773,-21.2458C520.031,-19.9143 533.2386,-18.5355 545.8509,-17.2189"/>
<polygon fill="#191970" stroke="#191970" points="506.7489,-17.7818 497.1664,-22.3013 507.4758,-24.744 506.7489,-17.7818"/>
</g>
<!-- Node90&#45;&gt;Node85 -->
<g id="edge13" class="edge">
<title>Node90&#45;&gt;Node85</title>
<path fill="none" stroke="#191970" d="M656.2776,-22.6644C666.7121,-26.1131 677.8379,-30.0062 688,-34 721.7665,-47.2703 759.8795,-65.5179 782.0922,-76.495"/>
<polygon fill="#191970" stroke="#191970" points="657.1313,-19.2618 646.5392,-19.5054 654.9713,-25.9203 657.1313,-19.2618"/>
</g>
</g>
</svg>
