<?xml version="1.0" encoding="UTF-8" standalone="no"?>
<!DOCTYPE svg PUBLIC "-//W3C//DTD SVG 1.1//EN"
 "http://www.w3.org/Graphics/SVG/1.1/DTD/svg11.dtd">
<!-- Generated by graphviz version 2.40.1 (20161225.0304)
 -->
<!-- Title: Browser::GetDisplayName Pages: 1 -->
<svg width="769pt" height="66pt"
 viewBox="0.00 0.00 769.00 66.00" xmlns="http://www.w3.org/2000/svg" xmlns:xlink="http://www.w3.org/1999/xlink">
<g id="graph0" class="graph" transform="scale(1 1) rotate(0) translate(4 62)">
<title>Browser::GetDisplayName</title>
<polygon fill="#ffffff" stroke="transparent" points="-4,4 -4,-62 765,-62 765,4 -4,4"/>
<!-- Node42 -->
<g id="node1" class="node">
<title>Node42</title>
<polygon fill="#bfbfbf" stroke="#000000" points="0,-19.5 0,-38.5 146,-38.5 146,-19.5 0,-19.5"/>
<text text-anchor="middle" x="73" y="-26.5" font-family="Helvetica,sans-Serif" font-size="10.00" fill="#000000">Browser::GetDisplayName</text>
</g>
<!-- Node43 -->
<g id="node2" class="node">
<title>Node43</title>
<g id="a_node2"><a xlink:href="classLoopManager.html#a175985d1a7e21f019251ff996217cbb0" target="_top" xlink:title="LoopManager::AddLoopToBrowser">
<polygon fill="#ffffff" stroke="#000000" points="185,-38.5 185,-57.5 365,-57.5 365,-38.5 185,-38.5"/>
<text text-anchor="middle" x="275" y="-45.5" font-family="Helvetica,sans-Serif" font-size="10.00" fill="#000000">LoopManager::AddLoopToBrowser</text>
</a>
</g>
</g>
<!-- Node42&#45;&gt;Node43 -->
<g id="edge1" class="edge">
<title>Node42&#45;&gt;Node43</title>
<path fill="none" stroke="#191970" d="M156.3143,-36.8365C165.7151,-37.7207 175.3269,-38.6248 184.8102,-39.5168"/>
<polygon fill="#191970" stroke="#191970" points="156.4961,-33.3382 146.2122,-35.8863 155.8405,-40.3075 156.4961,-33.3382"/>
</g>
<!-- Node46 -->
<g id="node5" class="node">
<title>Node46</title>
<g id="a_node5"><a xlink:href="classLoopManager.html#a0c2604681ae7de5415cef3f2690e4a0c" target="_top" xlink:title="LoopManager::AddSceneToBrowser">
<polygon fill="#ffffff" stroke="#000000" points="182,-.5 182,-19.5 368,-19.5 368,-.5 182,-.5"/>
<text text-anchor="middle" x="275" y="-7.5" font-family="Helvetica,sans-Serif" font-size="10.00" fill="#000000">LoopManager::AddSceneToBrowser</text>
</a>
</g>
</g>
<!-- Node42&#45;&gt;Node46 -->
<g id="edge4" class="edge">
<title>Node42&#45;&gt;Node46</title>
<path fill="none" stroke="#191970" d="M156.3143,-21.1635C164.6772,-20.3769 173.2071,-19.5746 181.6648,-18.779"/>
<polygon fill="#191970" stroke="#191970" points="155.8405,-17.6925 146.2122,-22.1137 156.4961,-24.6618 155.8405,-17.6925"/>
</g>
<!-- Node44 -->
<g id="node3" class="node">
<title>Node44</title>
<g id="a_node3"><a xlink:href="classLoopManager.html#a306ffe72c9623e33cad280ec3609c359" target="_top" xlink:title="LoopManager::SetupSaveLoop">
<polygon fill="#ffffff" stroke="#000000" points="404,-38.5 404,-57.5 567,-57.5 567,-38.5 404,-38.5"/>
<text text-anchor="middle" x="485.5" y="-45.5" font-family="Helvetica,sans-Serif" font-size="10.00" fill="#000000">LoopManager::SetupSaveLoop</text>
</a>
</g>
</g>
<!-- Node43&#45;&gt;Node44 -->
<g id="edge2" class="edge">
<title>Node43&#45;&gt;Node44</title>
<path fill="none" stroke="#191970" d="M375.4629,-48C384.9652,-48 394.5197,-48 403.8157,-48"/>
<polygon fill="#191970" stroke="#191970" points="375.187,-44.5001 365.187,-48 375.187,-51.5001 375.187,-44.5001"/>
</g>
<!-- Node45 -->
<g id="node4" class="node">
<title>Node45</title>
<g id="a_node4"><a xlink:href="classLoopManager.html#a00143be12c150c0a89c4f99c1e8d5e70" target="_top" xlink:title="LoopManager::GetWriteBlock">
<polygon fill="#ffffff" stroke="#000000" points="603,-19.5 603,-38.5 761,-38.5 761,-19.5 603,-19.5"/>
<text text-anchor="middle" x="682" y="-26.5" font-family="Helvetica,sans-Serif" font-size="10.00" fill="#000000">LoopManager::GetWriteBlock</text>
</a>
</g>
</g>
<!-- Node44&#45;&gt;Node45 -->
<g id="edge3" class="edge">
<title>Node44&#45;&gt;Node45</title>
<path fill="none" stroke="#191970" d="M577.1537,-39.1378C585.7352,-38.308 594.3841,-37.4718 602.8369,-36.6544"/>
<polygon fill="#191970" stroke="#191970" points="576.7433,-35.6611 567.1266,-40.1074 577.4171,-42.6286 576.7433,-35.6611"/>
</g>
<!-- Node47 -->
<g id="node6" class="node">
<title>Node47</title>
<g id="a_node6"><a xlink:href="classTriggerMap.html#a92e251eec5a7c5741807805b6869fab8" target="_top" xlink:title="TriggerMap::GoSave">
<polygon fill="#ffffff" stroke="#000000" points="429,-.5 429,-19.5 542,-19.5 542,-.5 429,-.5"/>
<text text-anchor="middle" x="485.5" y="-7.5" font-family="Helvetica,sans-Serif" font-size="10.00" fill="#000000">TriggerMap::GoSave</text>
</a>
</g>
</g>
<!-- Node46&#45;&gt;Node47 -->
<g id="edge5" class="edge">
<title>Node46&#45;&gt;Node47</title>
<path fill="none" stroke="#191970" d="M378.4595,-10C395.8407,-10 413.2871,-10 428.9017,-10"/>
<polygon fill="#191970" stroke="#191970" points="378.2477,-6.5001 368.2476,-10 378.2476,-13.5001 378.2477,-6.5001"/>
</g>
<!-- Node47&#45;&gt;Node45 -->
<g id="edge6" class="edge">
<title>Node47&#45;&gt;Node45</title>
<path fill="none" stroke="#191970" d="M552.0413,-16.434C568.3532,-18.0112 585.9711,-19.7148 602.812,-21.3431"/>
<polygon fill="#191970" stroke="#191970" points="552.3628,-12.9489 542.0723,-15.4701 551.689,-19.9164 552.3628,-12.9489"/>
</g>
</g>
</svg>
