<?xml version="1.0" encoding="UTF-8" standalone="no"?>
<!DOCTYPE svg PUBLIC "-//W3C//DTD SVG 1.1//EN"
 "http://www.w3.org/Graphics/SVG/1.1/DTD/svg11.dtd">
<!-- Generated by graphviz version 2.40.1 (20161225.0304)
 -->
<!-- Title: LoopManager::DeleteLoop Pages: 1 -->
<svg width="536pt" height="85pt"
 viewBox="0.00 0.00 536.00 85.00" xmlns="http://www.w3.org/2000/svg" xmlns:xlink="http://www.w3.org/1999/xlink">
<g id="graph0" class="graph" transform="scale(1 1) rotate(0) translate(4 81)">
<title>LoopManager::DeleteLoop</title>
<polygon fill="#ffffff" stroke="transparent" points="-4,4 -4,-81 532,-81 532,4 -4,4"/>
<!-- Node284 -->
<g id="node1" class="node">
<title>Node284</title>
<polygon fill="#bfbfbf" stroke="#000000" points="0,-19.5 0,-38.5 143,-38.5 143,-19.5 0,-19.5"/>
<text text-anchor="middle" x="71.5" y="-26.5" font-family="Helvetica,sans-Serif" font-size="10.00" fill="#000000">LoopManager::DeleteLoop</text>
</g>
<!-- Node285 -->
<g id="node2" class="node">
<title>Node285</title>
<g id="a_node2"><a xlink:href="classLoopManager.html#a6048a702c9cec3676a1c56792b16ec44" target="_top" xlink:title="LoopManager::ReadComplete">
<polygon fill="#ffffff" stroke="#000000" points="179,-57.5 179,-76.5 338,-76.5 338,-57.5 179,-57.5"/>
<text text-anchor="middle" x="258.5" y="-64.5" font-family="Helvetica,sans-Serif" font-size="10.00" fill="#000000">LoopManager::ReadComplete</text>
</a>
</g>
</g>
<!-- Node284&#45;&gt;Node285 -->
<g id="edge1" class="edge">
<title>Node284&#45;&gt;Node285</title>
<path fill="none" stroke="#191970" d="M128.631,-40.6095C155.2267,-46.014 186.4731,-52.3635 211.6513,-57.4799"/>
<polygon fill="#191970" stroke="#191970" points="129.1847,-37.1506 118.688,-38.589 127.7907,-44.0104 129.1847,-37.1506"/>
</g>
<!-- Node286 -->
<g id="node3" class="node">
<title>Node286</title>
<g id="a_node3"><a xlink:href="classLoopManager.html#a8efb4c8acabceb10faa8660c14c89d71" target="_top" xlink:title="LoopManager::DeletePulse">
<polygon fill="#ffffff" stroke="#000000" points="185.5,-19.5 185.5,-38.5 331.5,-38.5 331.5,-19.5 185.5,-19.5"/>
<text text-anchor="middle" x="258.5" y="-26.5" font-family="Helvetica,sans-Serif" font-size="10.00" fill="#000000">LoopManager::DeletePulse</text>
</a>
</g>
</g>
<!-- Node284&#45;&gt;Node286 -->
<g id="edge2" class="edge">
<title>Node284&#45;&gt;Node286</title>
<path fill="none" stroke="#191970" d="M153.3914,-29C164.0385,-29 174.8895,-29 185.3807,-29"/>
<polygon fill="#191970" stroke="#191970" points="153.2643,-25.5001 143.2643,-29 153.2642,-32.5001 153.2643,-25.5001"/>
</g>
<!-- Node287 -->
<g id="node4" class="node">
<title>Node287</title>
<g id="a_node4"><a xlink:href="classLoopManager.html#a4aada2d07b7ce0a67a8119ece4805966" target="_top" xlink:title="LoopManager::ReceiveEvent">
<polygon fill="#ffffff" stroke="#000000" points="374,-.5 374,-19.5 528,-19.5 528,-.5 374,-.5"/>
<text text-anchor="middle" x="451" y="-7.5" font-family="Helvetica,sans-Serif" font-size="10.00" fill="#000000">LoopManager::ReceiveEvent</text>
</a>
</g>
</g>
<!-- Node284&#45;&gt;Node287 -->
<g id="edge4" class="edge">
<title>Node284&#45;&gt;Node287</title>
<path fill="none" stroke="#191970" d="M125.0476,-17.6359C142.1981,-14.5077 161.3236,-11.5501 179,-10 244.5056,-4.2557 319.2266,-4.7605 373.7562,-6.4158"/>
<polygon fill="#191970" stroke="#191970" points="124.3841,-14.1993 115.2038,-19.4882 125.6786,-21.0786 124.3841,-14.1993"/>
</g>
<!-- Node286&#45;&gt;Node287 -->
<g id="edge3" class="edge">
<title>Node286&#45;&gt;Node287</title>
<path fill="none" stroke="#191970" d="M341.6986,-20.7882C352.3711,-19.7348 363.2618,-18.6599 373.8326,-17.6165"/>
<polygon fill="#191970" stroke="#191970" points="341.1583,-17.3244 331.5505,-21.7898 341.8459,-24.2906 341.1583,-17.3244"/>
</g>
</g>
</svg>
