<?xml version="1.0" encoding="UTF-8" standalone="no"?>
<!DOCTYPE svg PUBLIC "-//W3C//DTD SVG 1.1//EN"
 "http://www.w3.org/Graphics/SVG/1.1/DTD/svg11.dtd">
<!-- Generated by graphviz version 2.40.1 (20161225.0304)
 -->
<!-- Title: RenameUIVars Pages: 1 -->
<svg width="297pt" height="171pt"
 viewBox="0.00 0.00 297.00 171.00" xmlns="http://www.w3.org/2000/svg" xmlns:xlink="http://www.w3.org/1999/xlink">
<g id="graph0" class="graph" transform="scale(1 1) rotate(0) translate(4 167)">
<title>RenameUIVars</title>
<polygon fill="#ffffff" stroke="transparent" points="-4,4 -4,-167 293,-167 293,4 -4,4"/>
<!-- Node1 -->
<g id="node1" class="node">
<title>Node1</title>
<polygon fill="#bfbfbf" stroke="#000000" points="50.5,-.5 50.5,-57.5 157.5,-57.5 157.5,-.5 50.5,-.5"/>
<text text-anchor="middle" x="104" y="-45.5" font-family="Helvetica,sans-Serif" font-size="10.00" fill="#000000">RenameUIVars</text>
<polyline fill="none" stroke="#000000" points="50.5,-38.5 157.5,-38.5 "/>
<text text-anchor="middle" x="104" y="-26.5" font-family="Helvetica,sans-Serif" font-size="10.00" fill="#000000"> </text>
<polyline fill="none" stroke="#000000" points="50.5,-19.5 157.5,-19.5 "/>
<text text-anchor="start" x="58.5" y="-7.5" font-family="Helvetica,sans-Serif" font-size="10.00" fill="#000000">+ RenameUIVars()</text>
</g>
<!-- Node2 -->
<g id="node2" class="node">
<title>Node2</title>
<polygon fill="#ffffff" stroke="#bfbfbf" points="0,-105.5 0,-162.5 50,-162.5 50,-105.5 0,-105.5"/>
<text text-anchor="middle" x="25" y="-150.5" font-family="Helvetica,sans-Serif" font-size="10.00" fill="#000000">double</text>
<polyline fill="none" stroke="#bfbfbf" points="0,-143.5 50,-143.5 "/>
<text text-anchor="middle" x="25" y="-131.5" font-family="Helvetica,sans-Serif" font-size="10.00" fill="#000000"> </text>
<polyline fill="none" stroke="#bfbfbf" points="0,-124.5 50,-124.5 "/>
<text text-anchor="middle" x="25" y="-112.5" font-family="Helvetica,sans-Serif" font-size="10.00" fill="#000000"> </text>
</g>
<!-- Node2&#45;&gt;Node1 -->
<g id="edge1" class="edge">
<title>Node2&#45;&gt;Node1</title>
<path fill="none" stroke="#404040" d="M20.059,-105.3563C19.7182,-95.4841 20.9709,-84.7254 26,-76 29.7822,-69.4379 34.8803,-63.686 40.6694,-58.6707"/>
<polygon fill="none" stroke="#404040" points="40.6952,-58.6511 43.0484,-51.8348 50.2455,-51.3853 47.8923,-58.2017 40.6952,-58.6511"/>
<text text-anchor="middle" x="94" y="-79" font-family="Helvetica,sans-Serif" font-size="10.00" fill="#000000"> +rename_cursor_blinktime</text>
</g>
<!-- Node3 -->
<g id="node3" class="node">
<title>Node3</title>
<polygon fill="#ffffff" stroke="#bfbfbf" points="165,-105.5 165,-162.5 203,-162.5 203,-105.5 165,-105.5"/>
<text text-anchor="middle" x="184" y="-150.5" font-family="Helvetica,sans-Serif" font-size="10.00" fill="#000000">char</text>
<polyline fill="none" stroke="#bfbfbf" points="165,-143.5 203,-143.5 "/>
<text text-anchor="middle" x="184" y="-131.5" font-family="Helvetica,sans-Serif" font-size="10.00" fill="#000000"> </text>
<polyline fill="none" stroke="#bfbfbf" points="165,-124.5 203,-124.5 "/>
<text text-anchor="middle" x="184" y="-112.5" font-family="Helvetica,sans-Serif" font-size="10.00" fill="#000000"> </text>
</g>
<!-- Node3&#45;&gt;Node1 -->
<g id="edge2" class="edge">
<title>Node3&#45;&gt;Node1</title>
<path fill="none" stroke="#404040" d="M176.4791,-105.3574C173.0489,-95.4853 168.3113,-84.7263 162,-76 159.5327,-72.5886 156.7577,-69.2862 153.7927,-66.12"/>
<polygon fill="none" stroke="#404040" points="153.6251,-65.9566 146.5365,-64.6329 145.0319,-57.5805 152.1205,-58.9042 153.6251,-65.9566"/>
<text text-anchor="middle" x="228.5" y="-79" font-family="Helvetica,sans-Serif" font-size="10.00" fill="#000000"> +rename_cursor_toggle</text>
</g>
</g>
</svg>
