<?xml version="1.0" encoding="UTF-8" standalone="no"?>
<!DOCTYPE svg PUBLIC "-//W3C//DTD SVG 1.1//EN"
 "http://www.w3.org/Graphics/SVG/1.1/DTD/svg11.dtd">
<!-- Generated by graphviz version 2.40.1 (20161225.0304)
 -->
<!-- Title: AutoLimitProcessor::process Pages: 1 -->
<svg width="335pt" height="142pt"
 viewBox="0.00 0.00 335.00 142.00" xmlns="http://www.w3.org/2000/svg" xmlns:xlink="http://www.w3.org/1999/xlink">
<g id="graph0" class="graph" transform="scale(1 1) rotate(0) translate(4 138)">
<title>AutoLimitProcessor::process</title>
<polygon fill="#ffffff" stroke="transparent" points="-4,4 -4,-138 331,-138 331,4 -4,4"/>
<!-- Node12 -->
<g id="node1" class="node">
<title>Node12</title>
<polygon fill="#bfbfbf" stroke="#000000" points="0,-52 0,-82 111,-82 111,-52 0,-52"/>
<text text-anchor="start" x="8" y="-70" font-family="Helvetica,sans-Serif" font-size="10.00" fill="#000000">AutoLimitProcessor</text>
<text text-anchor="middle" x="55.5" y="-59" font-family="Helvetica,sans-Serif" font-size="10.00" fill="#000000">::process</text>
</g>
<!-- Node13 -->
<g id="node2" class="node">
<title>Node13</title>
<g id="a_node2"><a xlink:href="classFweelin.html#a681d7ca8d0789199af135f22c26a5409" target="_top" xlink:title="Fweelin::getCFG">
<polygon fill="#ffffff" stroke="#000000" points="189.5,-114.5 189.5,-133.5 284.5,-133.5 284.5,-114.5 189.5,-114.5"/>
<text text-anchor="middle" x="237" y="-121.5" font-family="Helvetica,sans-Serif" font-size="10.00" fill="#000000">Fweelin::getCFG</text>
</a>
</g>
</g>
<!-- Node12&#45;&gt;Node13 -->
<g id="edge1" class="edge">
<title>Node12&#45;&gt;Node13</title>
<path fill="none" stroke="#191970" d="M87.567,-82.0362C104.881,-89.7135 126.7932,-98.7307 147,-105 157.3929,-108.2245 168.6296,-111.0786 179.5245,-113.5309"/>
<polygon fill="#191970" stroke="#191970" points="178.8857,-116.9737 189.3999,-115.6693 180.3671,-110.1322 178.8857,-116.9737"/>
</g>
<!-- Node14 -->
<g id="node3" class="node">
<title>Node14</title>
<g id="a_node3"><a xlink:href="classFloConfig.html#a79e959eadf1d1568dd28da09052831bf" target="_top" xlink:title="FloConfig::GetMaxLimiterGain">
<polygon fill="#ffffff" stroke="#000000" points="156,-76.5 156,-95.5 318,-95.5 318,-76.5 156,-76.5"/>
<text text-anchor="middle" x="237" y="-83.5" font-family="Helvetica,sans-Serif" font-size="10.00" fill="#000000">FloConfig::GetMaxLimiterGain</text>
</a>
</g>
</g>
<!-- Node12&#45;&gt;Node14 -->
<g id="edge2" class="edge">
<title>Node12&#45;&gt;Node14</title>
<path fill="none" stroke="#191970" d="M111.437,-72.8557C122.3126,-73.9942 133.9744,-75.2149 145.6495,-76.4371"/>
<polygon fill="#191970" stroke="#191970" points="145.5833,-79.9492 155.8934,-77.5095 146.3121,-72.9873 145.5833,-79.9492"/>
</g>
<!-- Node15 -->
<g id="node4" class="node">
<title>Node15</title>
<g id="a_node4"><a xlink:href="classFloConfig.html#a28a35578641ab8f0f8bf9db338abd856" target="_top" xlink:title="FloConfig::GetLimiterThreshhold">
<polygon fill="#ffffff" stroke="#000000" points="150.5,-38.5 150.5,-57.5 323.5,-57.5 323.5,-38.5 150.5,-38.5"/>
<text text-anchor="middle" x="237" y="-45.5" font-family="Helvetica,sans-Serif" font-size="10.00" fill="#000000">FloConfig::GetLimiterThreshhold</text>
</a>
</g>
</g>
<!-- Node12&#45;&gt;Node15 -->
<g id="edge3" class="edge">
<title>Node12&#45;&gt;Node15</title>
<path fill="none" stroke="#191970" d="M111.437,-61.1443C120.559,-60.1894 130.2341,-59.1766 140.0062,-58.1536"/>
<polygon fill="#191970" stroke="#191970" points="140.6245,-61.6081 150.2058,-57.0859 139.8957,-54.6461 140.6245,-61.6081"/>
</g>
<!-- Node16 -->
<g id="node5" class="node">
<title>Node16</title>
<g id="a_node5"><a xlink:href="classFloConfig.html#a5d6c14dc286302dc59bbcc570a8f052f" target="_top" xlink:title="FloConfig::GetLimiterReleaseRate">
<polygon fill="#ffffff" stroke="#000000" points="147,-.5 147,-19.5 327,-19.5 327,-.5 147,-.5"/>
<text text-anchor="middle" x="237" y="-7.5" font-family="Helvetica,sans-Serif" font-size="10.00" fill="#000000">FloConfig::GetLimiterReleaseRate</text>
</a>
</g>
</g>
<!-- Node12&#45;&gt;Node16 -->
<g id="edge4" class="edge">
<title>Node12&#45;&gt;Node16</title>
<path fill="none" stroke="#191970" d="M87.567,-51.9638C104.881,-44.2865 126.7932,-35.2693 147,-29 155.6246,-26.3241 164.8303,-23.9034 173.9395,-21.7556"/>
<polygon fill="#191970" stroke="#191970" points="174.7741,-25.1553 183.7541,-19.533 173.228,-18.3282 174.7741,-25.1553"/>
</g>
</g>
</svg>
