<?xml version="1.0" encoding="UTF-8" standalone="no"?>
<!DOCTYPE svg PUBLIC "-//W3C//DTD SVG 1.1//EN"
 "http://www.w3.org/Graphics/SVG/1.1/DTD/svg11.dtd">
<!-- Generated by graphviz version 2.40.1 (20161225.0304)
 -->
<!-- Title: InputMatrix::~InputMatrix Pages: 1 -->
<svg width="347pt" height="218pt"
 viewBox="0.00 0.00 347.00 218.00" xmlns="http://www.w3.org/2000/svg" xmlns:xlink="http://www.w3.org/1999/xlink">
<g id="graph0" class="graph" transform="scale(1 1) rotate(0) translate(4 214)">
<title>InputMatrix::~InputMatrix</title>
<polygon fill="#ffffff" stroke="transparent" points="-4,4 -4,-214 343,-214 343,4 -4,4"/>
<!-- Node2 -->
<g id="node1" class="node">
<title>Node2</title>
<polygon fill="#bfbfbf" stroke="#000000" points="0,-95.5 0,-114.5 142,-114.5 142,-95.5 0,-95.5"/>
<text text-anchor="middle" x="71" y="-102.5" font-family="Helvetica,sans-Serif" font-size="10.00" fill="#000000">InputMatrix::~InputMatrix</text>
</g>
<!-- Node3 -->
<g id="node2" class="node">
<title>Node3</title>
<g id="a_node2"><a xlink:href="classFweelin.html#a21e51d7b639faaecc415624ab6c16a71" target="_top" xlink:title="Fweelin::getEMG">
<polygon fill="#ffffff" stroke="#000000" points="209.5,-190.5 209.5,-209.5 307.5,-209.5 307.5,-190.5 209.5,-190.5"/>
<text text-anchor="middle" x="258.5" y="-197.5" font-family="Helvetica,sans-Serif" font-size="10.00" fill="#000000">Fweelin::getEMG</text>
</a>
</g>
</g>
<!-- Node2&#45;&gt;Node3 -->
<g id="edge1" class="edge">
<title>Node2&#45;&gt;Node3</title>
<path fill="none" stroke="#191970" d="M81.3762,-114.5022C99.5588,-130.636 138.9687,-163.3498 178,-181 184.8231,-184.0855 192.2069,-186.7023 199.6397,-188.9134"/>
<polygon fill="#191970" stroke="#191970" points="198.8263,-192.3195 209.3961,-191.5917 200.6794,-185.5693 198.8263,-192.3195"/>
</g>
<!-- Node4 -->
<g id="node3" class="node">
<title>Node4</title>
<g id="a_node3"><a xlink:href="classEventManager.html#abfc3ddd37f9bd472a41ab43632e44736" target="_top" xlink:title="EventManager::UnlistenEvent">
<polygon fill="#ffffff" stroke="#000000" points="178,-152.5 178,-171.5 339,-171.5 339,-152.5 178,-152.5"/>
<text text-anchor="middle" x="258.5" y="-159.5" font-family="Helvetica,sans-Serif" font-size="10.00" fill="#000000">EventManager::UnlistenEvent</text>
</a>
</g>
</g>
<!-- Node2&#45;&gt;Node4 -->
<g id="edge2" class="edge">
<title>Node2&#45;&gt;Node4</title>
<path fill="none" stroke="#191970" d="M95.3986,-114.5262C116.9251,-122.7232 149.2576,-134.5319 178,-143 186.4066,-145.4768 195.3802,-147.8525 204.1727,-150.0346"/>
<polygon fill="#191970" stroke="#191970" points="203.4398,-153.4582 213.9828,-152.411 205.0879,-146.655 203.4398,-153.4582"/>
</g>
<!-- Node5 -->
<g id="node4" class="node">
<title>Node5</title>
<g id="a_node4"><a xlink:href="classEvent.html#a54c555e0e79c1aa8eaf3dac82e500ee9" target="_top" xlink:title="Event::GetParamIdxByType">
<polygon fill="#ffffff" stroke="#000000" points="184,-114.5 184,-133.5 333,-133.5 333,-114.5 184,-114.5"/>
<text text-anchor="middle" x="258.5" y="-121.5" font-family="Helvetica,sans-Serif" font-size="10.00" fill="#000000">Event::GetParamIdxByType</text>
</a>
</g>
</g>
<!-- Node2&#45;&gt;Node5 -->
<g id="edge3" class="edge">
<title>Node2&#45;&gt;Node5</title>
<path fill="none" stroke="#191970" d="M142.1531,-112.2102C152.5161,-113.2603 163.2709,-114.3501 173.8688,-115.424"/>
<polygon fill="#191970" stroke="#191970" points="173.6617,-118.9209 183.9637,-116.447 174.3675,-111.9566 173.6617,-118.9209"/>
</g>
<!-- Node6 -->
<g id="node5" class="node">
<title>Node6</title>
<g id="a_node5"><a xlink:href="classEvent.html#aa67af0ae99b897e4f0ce42068c4e4c00" target="_top" xlink:title="Event::GetEventByType">
<polygon fill="#ffffff" stroke="#000000" points="193,-76.5 193,-95.5 324,-95.5 324,-76.5 193,-76.5"/>
<text text-anchor="middle" x="258.5" y="-83.5" font-family="Helvetica,sans-Serif" font-size="10.00" fill="#000000">Event::GetEventByType</text>
</a>
</g>
</g>
<!-- Node2&#45;&gt;Node6 -->
<g id="edge4" class="edge">
<title>Node2&#45;&gt;Node6</title>
<path fill="none" stroke="#191970" d="M142.1531,-97.7898C155.4444,-96.443 169.3801,-95.0308 182.8027,-93.6707"/>
<polygon fill="#191970" stroke="#191970" points="183.3517,-97.133 192.9478,-92.6426 182.6459,-90.1687 183.3517,-97.133"/>
</g>
<!-- Node7 -->
<g id="node6" class="node">
<title>Node7</title>
<g id="a_node6"><a xlink:href="classEvent.html#a26e6e1967674bcda9abad999b0954ed9" target="_top" xlink:title="Event::GetParam">
<polygon fill="#ffffff" stroke="#000000" points="209.5,-38.5 209.5,-57.5 307.5,-57.5 307.5,-38.5 209.5,-38.5"/>
<text text-anchor="middle" x="258.5" y="-45.5" font-family="Helvetica,sans-Serif" font-size="10.00" fill="#000000">Event::GetParam</text>
</a>
</g>
</g>
<!-- Node2&#45;&gt;Node7 -->
<g id="edge5" class="edge">
<title>Node2&#45;&gt;Node7</title>
<path fill="none" stroke="#191970" d="M95.3986,-95.4738C116.9251,-87.2768 149.2576,-75.4681 178,-67 186.4066,-64.5232 195.3802,-62.1475 204.1727,-59.9654"/>
<polygon fill="#191970" stroke="#191970" points="205.0879,-63.345 213.9828,-57.589 203.4398,-56.5418 205.0879,-63.345"/>
</g>
<!-- Node8 -->
<g id="node7" class="node">
<title>Node8</title>
<g id="a_node7"><a xlink:href="classPreallocated.html#aaf2139a79ca16de70acd9bc4564171b7" target="_top" xlink:title="Preallocated::RTDelete">
<polygon fill="#ffffff" stroke="#000000" points="194.5,-.5 194.5,-19.5 322.5,-19.5 322.5,-.5 194.5,-.5"/>
<text text-anchor="middle" x="258.5" y="-7.5" font-family="Helvetica,sans-Serif" font-size="10.00" fill="#000000">Preallocated::RTDelete</text>
</a>
</g>
</g>
<!-- Node2&#45;&gt;Node8 -->
<g id="edge6" class="edge">
<title>Node2&#45;&gt;Node8</title>
<path fill="none" stroke="#191970" d="M81.3762,-95.4978C99.5588,-79.364 138.9687,-46.6502 178,-29 183.4483,-26.5362 189.254,-24.3713 195.1568,-22.4731"/>
<polygon fill="#191970" stroke="#191970" points="196.5377,-25.7148 205.1362,-19.5249 194.5543,-19.0016 196.5377,-25.7148"/>
</g>
</g>
</svg>
