<?xml version="1.0" encoding="UTF-8" standalone="no"?>
<!DOCTYPE svg PUBLIC "-//W3C//DTD SVG 1.1//EN"
 "http://www.w3.org/Graphics/SVG/1.1/DTD/svg11.dtd">
<!-- Generated by graphviz version 2.40.1 (20161225.0304)
 -->
<!-- Title: AudioIO::srate_callback Pages: 1 -->
<svg width="395pt" height="47pt"
 viewBox="0.00 0.00 395.00 47.00" xmlns="http://www.w3.org/2000/svg" xmlns:xlink="http://www.w3.org/1999/xlink">
<g id="graph0" class="graph" transform="scale(1 1) rotate(0) translate(4 43)">
<title>AudioIO::srate_callback</title>
<polygon fill="#ffffff" stroke="transparent" points="-4,4 -4,-43 391,-43 391,4 -4,4"/>
<!-- Node143 -->
<g id="node1" class="node">
<title>Node143</title>
<polygon fill="#bfbfbf" stroke="#000000" points="0,-.5 0,-19.5 131,-19.5 131,-.5 0,-.5"/>
<text text-anchor="middle" x="65.5" y="-7.5" font-family="Helvetica,sans-Serif" font-size="10.00" fill="#000000">AudioIO::srate_callback</text>
</g>
<!-- Node144 -->
<g id="node2" class="node">
<title>Node144</title>
<g id="a_node2"><a xlink:href="classAudioIO.html#a1e4157d1900df901a60d5a2260d7509c" target="_top" xlink:title="AudioIO::open">
<polygon fill="#ffffff" stroke="#000000" points="167,-19.5 167,-38.5 252,-38.5 252,-19.5 167,-19.5"/>
<text text-anchor="middle" x="209.5" y="-26.5" font-family="Helvetica,sans-Serif" font-size="10.00" fill="#000000">AudioIO::open</text>
</a>
</g>
</g>
<!-- Node143&#45;&gt;Node144 -->
<g id="edge1" class="edge">
<title>Node143&#45;&gt;Node144</title>
<path fill="none" stroke="#191970" d="M141.1839,-19.9861C150.0427,-21.1549 158.8269,-22.314 166.9982,-23.3921"/>
<polygon fill="#191970" stroke="#191970" points="141.5511,-16.5043 131.1791,-18.666 140.6353,-23.4441 141.5511,-16.5043"/>
</g>
<!-- Node145 -->
<g id="node3" class="node">
<title>Node145</title>
<g id="a_node3"><a xlink:href="classAudioIO.html#a012ce924f59ced78f2fac75e6e33b55c" target="_top" xlink:title="AudioIO::AudioIO">
<polygon fill="#ffffff" stroke="#000000" points="288,-.5 288,-19.5 387,-19.5 387,-.5 288,-.5"/>
<text text-anchor="middle" x="337.5" y="-7.5" font-family="Helvetica,sans-Serif" font-size="10.00" fill="#000000">AudioIO::AudioIO</text>
</a>
</g>
</g>
<!-- Node143&#45;&gt;Node145 -->
<g id="edge3" class="edge">
<title>Node143&#45;&gt;Node145</title>
<path fill="none" stroke="#191970" d="M141.4246,-10C188.1424,-10 246.6968,-10 287.6011,-10"/>
<polygon fill="#191970" stroke="#191970" points="141.3436,-6.5001 131.3436,-10 141.3436,-13.5001 141.3436,-6.5001"/>
</g>
<!-- Node144&#45;&gt;Node145 -->
<g id="edge2" class="edge">
<title>Node144&#45;&gt;Node145</title>
<path fill="none" stroke="#191970" d="M262.0252,-21.2033C270.6053,-19.9297 279.4699,-18.6138 287.9747,-17.3514"/>
<polygon fill="#191970" stroke="#191970" points="261.4998,-17.7428 252.1221,-22.6733 262.5277,-24.667 261.4998,-17.7428"/>
</g>
</g>
</svg>
