<?xml version="1.0" encoding="UTF-8" standalone="no"?>
<!DOCTYPE svg PUBLIC "-//W3C//DTD SVG 1.1//EN"
 "http://www.w3.org/Graphics/SVG/1.1/DTD/svg11.dtd">
<!-- Generated by graphviz version 2.40.1 (20161225.0304)
 -->
<!-- Title: Fweelin::getSDLIO Pages: 1 -->
<svg width="648pt" height="116pt"
 viewBox="0.00 0.00 648.00 115.50" xmlns="http://www.w3.org/2000/svg" xmlns:xlink="http://www.w3.org/1999/xlink">
<g id="graph0" class="graph" transform="scale(1 1) rotate(0) translate(4 111.5)">
<title>Fweelin::getSDLIO</title>
<polygon fill="#ffffff" stroke="transparent" points="-4,4 -4,-111.5 644,-111.5 644,4 -4,4"/>
<!-- Node431 -->
<g id="node1" class="node">
<title>Node431</title>
<polygon fill="#bfbfbf" stroke="#000000" points="0,-31 0,-50 105,-50 105,-31 0,-31"/>
<text text-anchor="middle" x="52.5" y="-38" font-family="Helvetica,sans-Serif" font-size="10.00" fill="#000000">Fweelin::getSDLIO</text>
</g>
<!-- Node432 -->
<g id="node2" class="node">
<title>Node432</title>
<g id="a_node2"><a xlink:href="classItemRenamer.html#a142fa081aa16f3ce9bddfcb44619a90f" target="_top" xlink:title="ItemRenamer::ItemRenamer">
<polygon fill="#ffffff" stroke="#000000" points="141,-50 141,-69 296,-69 296,-50 141,-50"/>
<text text-anchor="middle" x="218.5" y="-57" font-family="Helvetica,sans-Serif" font-size="10.00" fill="#000000">ItemRenamer::ItemRenamer</text>
</a>
</g>
</g>
<!-- Node431&#45;&gt;Node432 -->
<g id="edge1" class="edge">
<title>Node431&#45;&gt;Node432</title>
<path fill="none" stroke="#191970" d="M115.1059,-47.6657C123.5134,-48.628 132.2186,-49.6244 140.8463,-50.6119"/>
<polygon fill="#191970" stroke="#191970" points="115.3566,-44.1717 105.0234,-46.5117 114.5605,-51.1263 115.3566,-44.1717"/>
</g>
<!-- Node437 -->
<g id="node7" class="node">
<title>Node437</title>
<g id="a_node7"><a xlink:href="classItemRenamer.html#abec484b81397379c8ec02a8cc2fb881a" target="_top" xlink:title="ItemRenamer::HookEvent">
<polygon fill="#ffffff" stroke="#000000" points="147.5,-12 147.5,-31 289.5,-31 289.5,-12 147.5,-12"/>
<text text-anchor="middle" x="218.5" y="-19" font-family="Helvetica,sans-Serif" font-size="10.00" fill="#000000">ItemRenamer::HookEvent</text>
</a>
</g>
</g>
<!-- Node431&#45;&gt;Node437 -->
<g id="edge6" class="edge">
<title>Node431&#45;&gt;Node437</title>
<path fill="none" stroke="#191970" d="M115.0182,-33.3443C125.6204,-32.1308 136.6982,-30.8629 147.4991,-29.6266"/>
<polygon fill="#191970" stroke="#191970" points="114.5605,-29.8737 105.0234,-34.4883 115.3566,-36.8283 114.5605,-29.8737"/>
</g>
<!-- Node433 -->
<g id="node3" class="node">
<title>Node433</title>
<g id="a_node3"><a xlink:href="classBrowser.html#a517f5d012c377402b3bdbfd10e4c8db5" target="_top" xlink:title="Browser::Rename">
<polygon fill="#ffffff" stroke="#000000" points="340,-88 340,-107 442,-107 442,-88 340,-88"/>
<text text-anchor="middle" x="391" y="-95" font-family="Helvetica,sans-Serif" font-size="10.00" fill="#000000">Browser::Rename</text>
</a>
</g>
</g>
<!-- Node432&#45;&gt;Node433 -->
<g id="edge2" class="edge">
<title>Node432&#45;&gt;Node433</title>
<path fill="none" stroke="#191970" d="M271.8505,-71.2526C296.242,-76.6258 324.7627,-82.9086 347.784,-87.9799"/>
<polygon fill="#191970" stroke="#191970" points="272.5479,-67.8224 262.029,-69.089 271.0419,-74.6584 272.5479,-67.8224"/>
</g>
<!-- Node434 -->
<g id="node4" class="node">
<title>Node434</title>
<g id="a_node4"><a xlink:href="classLoopTray.html#a2b7540addc2966370cc4034d36c552f8" target="_top" xlink:title="LoopTray::Rename">
<polygon fill="#ffffff" stroke="#000000" points="338.5,-50 338.5,-69 443.5,-69 443.5,-50 338.5,-50"/>
<text text-anchor="middle" x="391" y="-57" font-family="Helvetica,sans-Serif" font-size="10.00" fill="#000000">LoopTray::Rename</text>
</a>
</g>
</g>
<!-- Node432&#45;&gt;Node434 -->
<g id="edge3" class="edge">
<title>Node432&#45;&gt;Node434</title>
<path fill="none" stroke="#191970" d="M306.2636,-59.5C317.2652,-59.5 328.2341,-59.5 338.4537,-59.5"/>
<polygon fill="#191970" stroke="#191970" points="306.1714,-56.0001 296.1713,-59.5 306.1713,-63.0001 306.1714,-56.0001"/>
</g>
<!-- Node435 -->
<g id="node5" class="node">
<title>Node435</title>
<g id="a_node5"><a xlink:href="classFloDisplaySnapshots.html#afb7aeeaa71af5466e371927d3c11f39f" target="_top" xlink:title="FloDisplaySnapshots\l::Rename">
<polygon fill="#ffffff" stroke="#000000" points="332,-.5 332,-30.5 450,-30.5 450,-.5 332,-.5"/>
<text text-anchor="start" x="340" y="-18.5" font-family="Helvetica,sans-Serif" font-size="10.00" fill="#000000">FloDisplaySnapshots</text>
<text text-anchor="middle" x="391" y="-7.5" font-family="Helvetica,sans-Serif" font-size="10.00" fill="#000000">::Rename</text>
</a>
</g>
</g>
<!-- Node432&#45;&gt;Node435 -->
<g id="edge4" class="edge">
<title>Node432&#45;&gt;Node435</title>
<path fill="none" stroke="#191970" d="M267.9102,-47.5189C277.2475,-45.2173 286.9287,-42.8054 296,-40.5 308.4795,-37.3285 321.8611,-33.8532 334.5271,-30.5291"/>
<polygon fill="#191970" stroke="#191970" points="266.835,-44.1789 257.9583,-49.9629 268.5045,-50.9769 266.835,-44.1789"/>
</g>
<!-- Node436 -->
<g id="node6" class="node">
<title>Node436</title>
<g id="a_node6"><a xlink:href="classLoopManager.html#a4aada2d07b7ce0a67a8119ece4805966" target="_top" xlink:title="LoopManager::ReceiveEvent">
<polygon fill="#ffffff" stroke="#000000" points="486,-6 486,-25 640,-25 640,-6 486,-6"/>
<text text-anchor="middle" x="563" y="-13" font-family="Helvetica,sans-Serif" font-size="10.00" fill="#000000">LoopManager::ReceiveEvent</text>
</a>
</g>
</g>
<!-- Node435&#45;&gt;Node436 -->
<g id="edge5" class="edge">
<title>Node435&#45;&gt;Node436</title>
<path fill="none" stroke="#191970" d="M460.2909,-15.5C468.6778,-15.5 477.2852,-15.5 485.7772,-15.5"/>
<polygon fill="#191970" stroke="#191970" points="460.1927,-12.0001 450.1926,-15.5 460.1926,-19.0001 460.1927,-12.0001"/>
</g>
</g>
</svg>
