<?xml version="1.0" encoding="UTF-8" standalone="no"?>
<!DOCTYPE svg PUBLIC "-//W3C//DTD SVG 1.1//EN"
 "http://www.w3.org/Graphics/SVG/1.1/DTD/svg11.dtd">
<!-- Generated by graphviz version 2.40.1 (20161225.0304)
 -->
<!-- Title: Fweelin::ItemSelected Pages: 1 -->
<svg width="928pt" height="332pt"
 viewBox="0.00 0.00 928.00 332.00" xmlns="http://www.w3.org/2000/svg" xmlns:xlink="http://www.w3.org/1999/xlink">
<g id="graph0" class="graph" transform="scale(1 1) rotate(0) translate(4 328)">
<title>Fweelin::ItemSelected</title>
<polygon fill="#ffffff" stroke="transparent" points="-4,4 -4,-328 924,-328 924,4 -4,4"/>
<!-- Node573 -->
<g id="node1" class="node">
<title>Node573</title>
<polygon fill="#bfbfbf" stroke="#000000" points="0,-190.5 0,-209.5 125,-209.5 125,-190.5 0,-190.5"/>
<text text-anchor="middle" x="62.5" y="-197.5" font-family="Helvetica,sans-Serif" font-size="10.00" fill="#000000">Fweelin::ItemSelected</text>
</g>
<!-- Node574 -->
<g id="node2" class="node">
<title>Node574</title>
<g id="a_node2"><a xlink:href="classBrowserItem.html#a4ebfa0b72dd5eec1c43ed1b65287ae47" target="_top" xlink:title="BrowserItem::GetType">
<polygon fill="#ffffff" stroke="#000000" points="185,-234.5 185,-253.5 310,-253.5 310,-234.5 185,-234.5"/>
<text text-anchor="middle" x="247.5" y="-241.5" font-family="Helvetica,sans-Serif" font-size="10.00" fill="#000000">BrowserItem::GetType</text>
</a>
</g>
</g>
<!-- Node573&#45;&gt;Node574 -->
<g id="edge1" class="edge">
<title>Node573&#45;&gt;Node574</title>
<path fill="none" stroke="#191970" d="M98.9176,-209.5421C117.4669,-214.3262 140.3976,-220.1241 161,-225 171.2046,-227.4151 182.1115,-229.8919 192.6221,-232.2262"/>
<polygon fill="#191970" stroke="#191970" points="192.0229,-235.678 202.5421,-234.4138 193.5305,-228.8423 192.0229,-235.678"/>
</g>
<!-- Node575 -->
<g id="node3" class="node">
<title>Node575</title>
<g id="a_node3"><a xlink:href="classPatchBrowser.html#a90246446ed1a2650a2a7555f5d76c653" target="_top" xlink:title="PatchBrowser::SetMIDIFor\lPatch">
<polygon fill="#ffffff" stroke="#000000" points="177,-185 177,-215 318,-215 318,-185 177,-185"/>
<text text-anchor="start" x="185" y="-203" font-family="Helvetica,sans-Serif" font-size="10.00" fill="#000000">PatchBrowser::SetMIDIFor</text>
<text text-anchor="middle" x="247.5" y="-192" font-family="Helvetica,sans-Serif" font-size="10.00" fill="#000000">Patch</text>
</a>
</g>
</g>
<!-- Node573&#45;&gt;Node575 -->
<g id="edge2" class="edge">
<title>Node573&#45;&gt;Node575</title>
<path fill="none" stroke="#191970" d="M125.1326,-200C138.5443,-200 152.8945,-200 166.8765,-200"/>
<polygon fill="#191970" stroke="#191970" points="166.974,-203.5001 176.9739,-200 166.9739,-196.5001 166.974,-203.5001"/>
</g>
<!-- Node589 -->
<g id="node17" class="node">
<title>Node589</title>
<g id="a_node17"><a xlink:href="classPatchBrowser.html#acda4f762d99d8556a2a8384c17b70f30" target="_top" xlink:title="PatchBrowser::GetCurPatchBank">
<polygon fill="#ffffff" stroke="#000000" points="161,-146.5 161,-165.5 334,-165.5 334,-146.5 161,-146.5"/>
<text text-anchor="middle" x="247.5" y="-153.5" font-family="Helvetica,sans-Serif" font-size="10.00" fill="#000000">PatchBrowser::GetCurPatchBank</text>
</a>
</g>
</g>
<!-- Node573&#45;&gt;Node589 -->
<g id="edge16" class="edge">
<title>Node573&#45;&gt;Node589</title>
<path fill="none" stroke="#191970" d="M101.3043,-190.4335C119.4291,-185.9938 141.3063,-180.6758 161,-176 172.251,-173.3287 184.3366,-170.5054 195.8012,-167.8487"/>
<polygon fill="#191970" stroke="#191970" points="196.7252,-171.2275 205.6798,-165.5648 195.1484,-164.4074 196.7252,-171.2275"/>
</g>
<!-- Node576 -->
<g id="node4" class="node">
<title>Node576</title>
<g id="a_node4"><a xlink:href="classFweelin.html#aee46aec225c2ee5c88854dc9943e7d62" target="_top" xlink:title="Fweelin::getMIDI">
<polygon fill="#ffffff" stroke="#000000" points="387,-209.5 387,-228.5 485,-228.5 485,-209.5 387,-209.5"/>
<text text-anchor="middle" x="436" y="-216.5" font-family="Helvetica,sans-Serif" font-size="10.00" fill="#000000">Fweelin::getMIDI</text>
</a>
</g>
</g>
<!-- Node575&#45;&gt;Node576 -->
<g id="edge3" class="edge">
<title>Node575&#45;&gt;Node576</title>
<path fill="none" stroke="#191970" d="M318.2267,-207.129C337.5305,-209.0747 358.2406,-211.1622 376.8278,-213.0357"/>
<polygon fill="#191970" stroke="#191970" points="376.6125,-216.5316 386.9131,-214.0523 377.3146,-209.5669 376.6125,-216.5316"/>
</g>
<!-- Node577 -->
<g id="node5" class="node">
<title>Node577</title>
<g id="a_node5"><a xlink:href="classMidiIO.html#a1753eb05e14eb572a5f52b9616480d55" target="_top" xlink:title="MidiIO::SetMIDIForPatch">
<polygon fill="#ffffff" stroke="#000000" points="370,-171.5 370,-190.5 502,-190.5 502,-171.5 370,-171.5"/>
<text text-anchor="middle" x="436" y="-178.5" font-family="Helvetica,sans-Serif" font-size="10.00" fill="#000000">MidiIO::SetMIDIForPatch</text>
</a>
</g>
</g>
<!-- Node575&#45;&gt;Node577 -->
<g id="edge4" class="edge">
<title>Node575&#45;&gt;Node577</title>
<path fill="none" stroke="#191970" d="M318.2267,-192.871C331.7129,-191.5117 345.8855,-190.0832 359.5411,-188.7067"/>
<polygon fill="#191970" stroke="#191970" points="360.2643,-192.1517 369.8629,-187.6663 359.5623,-185.1869 360.2643,-192.1517"/>
</g>
<!-- Node578 -->
<g id="node6" class="node">
<title>Node578</title>
<g id="a_node6"><a xlink:href="classPatchItem.html#a193dba9833309437fed1241957cd20dd" target="_top" xlink:title="PatchItem::IsCombi">
<polygon fill="#ffffff" stroke="#000000" points="578,-304.5 578,-323.5 689,-323.5 689,-304.5 578,-304.5"/>
<text text-anchor="middle" x="633.5" y="-311.5" font-family="Helvetica,sans-Serif" font-size="10.00" fill="#000000">PatchItem::IsCombi</text>
</a>
</g>
</g>
<!-- Node577&#45;&gt;Node578 -->
<g id="edge5" class="edge">
<title>Node577&#45;&gt;Node578</title>
<path fill="none" stroke="#191970" d="M487.5726,-190.5665C492.8395,-193.0304 497.7906,-196.1221 502,-200 535.2081,-230.5931 503.538,-265.8267 538,-295 546.4955,-302.1917 556.9384,-306.9409 567.7651,-310.0282"/>
<polygon fill="#191970" stroke="#191970" points="567.2314,-313.4991 577.771,-312.4187 568.858,-306.6907 567.2314,-313.4991"/>
</g>
<!-- Node579 -->
<g id="node7" class="node">
<title>Node579</title>
<g id="a_node7"><a xlink:href="classPatchItem.html#a80e0a72bb7db8f68cd4f7bc32bb36361" target="_top" xlink:title="PatchItem::GetZone">
<polygon fill="#ffffff" stroke="#000000" points="577,-266.5 577,-285.5 690,-285.5 690,-266.5 577,-266.5"/>
<text text-anchor="middle" x="633.5" y="-273.5" font-family="Helvetica,sans-Serif" font-size="10.00" fill="#000000">PatchItem::GetZone</text>
</a>
</g>
</g>
<!-- Node577&#45;&gt;Node579 -->
<g id="edge6" class="edge">
<title>Node577&#45;&gt;Node579</title>
<path fill="none" stroke="#191970" d="M484.8104,-190.6007C490.9368,-193.0547 496.8505,-196.1347 502,-200 525.9634,-217.9871 513.3033,-240.0338 538,-257 546.6585,-262.9482 556.7404,-267.1282 567.0447,-270.0479"/>
<polygon fill="#191970" stroke="#191970" points="566.407,-273.4952 576.9529,-272.4777 568.0743,-266.6966 566.407,-273.4952"/>
</g>
<!-- Node580 -->
<g id="node8" class="node">
<title>Node580</title>
<g id="a_node8"><a xlink:href="classMidiIO.html#a768bb4ca3d6df0d4d7b2dfcc95ce8417" target="_top" xlink:title="MidiIO::getBP">
<polygon fill="#ffffff" stroke="#000000" points="592.5,-228.5 592.5,-247.5 674.5,-247.5 674.5,-228.5 592.5,-228.5"/>
<text text-anchor="middle" x="633.5" y="-235.5" font-family="Helvetica,sans-Serif" font-size="10.00" fill="#000000">MidiIO::getBP</text>
</a>
</g>
</g>
<!-- Node577&#45;&gt;Node580 -->
<g id="edge7" class="edge">
<title>Node577&#45;&gt;Node580</title>
<path fill="none" stroke="#191970" d="M474.1462,-190.539C483.3887,-193.2435 493.152,-196.4356 502,-200 518.7812,-206.7603 520.9501,-212.9495 538,-219 552.1093,-224.0069 567.8858,-227.8235 582.4874,-230.6741"/>
<polygon fill="#191970" stroke="#191970" points="581.9049,-234.1256 592.3736,-232.496 583.1736,-227.2415 581.9049,-234.1256"/>
</g>
<!-- Node581 -->
<g id="node9" class="node">
<title>Node581</title>
<g id="a_node9"><a xlink:href="classFweelin.html#acb51892233f08f4b0b9f2e7d7a625448" target="_top" xlink:title="Fweelin::getAUDIO">
<polygon fill="#ffffff" stroke="#000000" points="579.5,-190.5 579.5,-209.5 687.5,-209.5 687.5,-190.5 579.5,-190.5"/>
<text text-anchor="middle" x="633.5" y="-197.5" font-family="Helvetica,sans-Serif" font-size="10.00" fill="#000000">Fweelin::getAUDIO</text>
</a>
</g>
</g>
<!-- Node577&#45;&gt;Node581 -->
<g id="edge8" class="edge">
<title>Node577&#45;&gt;Node581</title>
<path fill="none" stroke="#191970" d="M502.0392,-187.3531C523.7239,-189.4393 547.781,-191.7536 569.3252,-193.8262"/>
<polygon fill="#191970" stroke="#191970" points="569.0635,-197.3171 579.3527,-194.7909 569.7338,-190.3493 569.0635,-197.3171"/>
</g>
<!-- Node582 -->
<g id="node10" class="node">
<title>Node582</title>
<g id="a_node10"><a xlink:href="classAudioIO.html#ab175bb73ae9aadb84940dace46c71fd8" target="_top" xlink:title="AudioIO::get_srate">
<polygon fill="#ffffff" stroke="#000000" points="580,-152.5 580,-171.5 687,-171.5 687,-152.5 580,-152.5"/>
<text text-anchor="middle" x="633.5" y="-159.5" font-family="Helvetica,sans-Serif" font-size="10.00" fill="#000000">AudioIO::get_srate</text>
</a>
</g>
</g>
<!-- Node577&#45;&gt;Node582 -->
<g id="edge9" class="edge">
<title>Node577&#45;&gt;Node582</title>
<path fill="none" stroke="#191970" d="M502.0392,-174.6469C523.9175,-172.5421 548.2108,-170.205 569.9017,-168.1183"/>
<polygon fill="#191970" stroke="#191970" points="570.3728,-171.5893 579.9916,-167.1476 569.7024,-164.6214 570.3728,-171.5893"/>
</g>
<!-- Node583 -->
<g id="node11" class="node">
<title>Node583</title>
<g id="a_node11"><a xlink:href="classEvent.html#aa67af0ae99b897e4f0ce42068c4e4c00" target="_top" xlink:title="Event::GetEventByType">
<polygon fill="#ffffff" stroke="#000000" points="568,-114.5 568,-133.5 699,-133.5 699,-114.5 568,-114.5"/>
<text text-anchor="middle" x="633.5" y="-121.5" font-family="Helvetica,sans-Serif" font-size="10.00" fill="#000000">Event::GetEventByType</text>
</a>
</g>
</g>
<!-- Node577&#45;&gt;Node583 -->
<g id="edge10" class="edge">
<title>Node577&#45;&gt;Node583</title>
<path fill="none" stroke="#191970" d="M458.3411,-171.4931C478.7788,-163.0822 510.0036,-150.9446 538,-143 547.5747,-140.283 557.7964,-137.8107 567.8613,-135.6144"/>
<polygon fill="#191970" stroke="#191970" points="568.7804,-138.9977 577.844,-133.5112 567.3373,-132.148 568.7804,-138.9977"/>
</g>
<!-- Node584 -->
<g id="node12" class="node">
<title>Node584</title>
<g id="a_node12"><a xlink:href="classFweelin.html#a21e51d7b639faaecc415624ab6c16a71" target="_top" xlink:title="Fweelin::getEMG">
<polygon fill="#ffffff" stroke="#000000" points="584.5,-76.5 584.5,-95.5 682.5,-95.5 682.5,-76.5 584.5,-76.5"/>
<text text-anchor="middle" x="633.5" y="-83.5" font-family="Helvetica,sans-Serif" font-size="10.00" fill="#000000">Fweelin::getEMG</text>
</a>
</g>
</g>
<!-- Node577&#45;&gt;Node584 -->
<g id="edge11" class="edge">
<title>Node577&#45;&gt;Node584</title>
<path fill="none" stroke="#191970" d="M445.7371,-171.3321C462.8372,-154.948 500.0639,-121.8672 538,-105 549.2231,-100.01 561.7681,-96.322 573.9808,-93.5989"/>
<polygon fill="#191970" stroke="#191970" points="575.0256,-96.958 584.125,-91.531 573.6273,-90.099 575.0256,-96.958"/>
</g>
<!-- Node585 -->
<g id="node13" class="node">
<title>Node585</title>
<g id="a_node13"><a xlink:href="classEventManager.html#a4a73f2e7ff1724f28427f7c0d5725c8e" target="_top" xlink:title="EventManager::BroadcastEventNow">
<polygon fill="#ffffff" stroke="#000000" points="538,-38.5 538,-57.5 729,-57.5 729,-38.5 538,-38.5"/>
<text text-anchor="middle" x="633.5" y="-45.5" font-family="Helvetica,sans-Serif" font-size="10.00" fill="#000000">EventManager::BroadcastEventNow</text>
</a>
</g>
</g>
<!-- Node577&#45;&gt;Node585 -->
<g id="edge12" class="edge">
<title>Node577&#45;&gt;Node585</title>
<path fill="none" stroke="#191970" d="M441.4815,-171.4724C454.8372,-149.1973 491.4089,-93.5924 538,-67 541.9044,-64.7715 546.0282,-62.801 550.2837,-61.0589"/>
<polygon fill="#191970" stroke="#191970" points="551.5796,-64.3119 559.776,-57.5985 549.182,-57.7352 551.5796,-64.3119"/>
</g>
<!-- Node586 -->
<g id="node14" class="node">
<title>Node586</title>
<g id="a_node14"><a xlink:href="classEvent.html#ac4c4170579544b41dff38ca1b8110e30" target="_top" xlink:title="Event::GetType">
<polygon fill="#ffffff" stroke="#000000" points="797.5,-76.5 797.5,-95.5 887.5,-95.5 887.5,-76.5 797.5,-76.5"/>
<text text-anchor="middle" x="842.5" y="-83.5" font-family="Helvetica,sans-Serif" font-size="10.00" fill="#000000">Event::GetType</text>
</a>
</g>
</g>
<!-- Node585&#45;&gt;Node586 -->
<g id="edge13" class="edge">
<title>Node585&#45;&gt;Node586</title>
<path fill="none" stroke="#191970" d="M685.9698,-57.54C716.9568,-63.174 756.1385,-70.2979 787.5488,-76.0089"/>
<polygon fill="#191970" stroke="#191970" points="786.9888,-79.4644 797.4536,-77.8097 788.241,-72.5773 786.9888,-79.4644"/>
</g>
<!-- Node587 -->
<g id="node15" class="node">
<title>Node587</title>
<g id="a_node15"><a xlink:href="classEventListener.html#a831820a9229e852bd7e2fad686b725b2" target="_top" xlink:title="EventListener::ReceiveEvent">
<polygon fill="#ffffff" stroke="#000000" points="765,-38.5 765,-57.5 920,-57.5 920,-38.5 765,-38.5"/>
<text text-anchor="middle" x="842.5" y="-45.5" font-family="Helvetica,sans-Serif" font-size="10.00" fill="#000000">EventListener::ReceiveEvent</text>
</a>
</g>
</g>
<!-- Node585&#45;&gt;Node587 -->
<g id="edge14" class="edge">
<title>Node585&#45;&gt;Node587</title>
<path fill="none" stroke="#191970" d="M729.1311,-48C737.6132,-48 746.1737,-48 754.5871,-48"/>
<polygon fill="#191970" stroke="#191970" points="754.7614,-51.5001 764.7614,-48 754.7614,-44.5001 754.7614,-51.5001"/>
</g>
<!-- Node588 -->
<g id="node16" class="node">
<title>Node588</title>
<g id="a_node16"><a xlink:href="classPreallocated.html#aaf2139a79ca16de70acd9bc4564171b7" target="_top" xlink:title="Preallocated::RTDelete">
<polygon fill="#ffffff" stroke="#000000" points="778.5,-.5 778.5,-19.5 906.5,-19.5 906.5,-.5 778.5,-.5"/>
<text text-anchor="middle" x="842.5" y="-7.5" font-family="Helvetica,sans-Serif" font-size="10.00" fill="#000000">Preallocated::RTDelete</text>
</a>
</g>
</g>
<!-- Node585&#45;&gt;Node588 -->
<g id="edge15" class="edge">
<title>Node585&#45;&gt;Node588</title>
<path fill="none" stroke="#191970" d="M685.9698,-38.46C714.5413,-33.2652 750.0796,-26.8037 780.0691,-21.3511"/>
<polygon fill="#191970" stroke="#191970" points="780.7961,-24.7764 790.0087,-19.5439 779.5438,-17.8893 780.7961,-24.7764"/>
</g>
</g>
</svg>
