<?xml version="1.0" encoding="UTF-8" standalone="no"?>
<!DOCTYPE svg PUBLIC "-//W3C//DTD SVG 1.1//EN"
 "http://www.w3.org/Graphics/SVG/1.1/DTD/svg11.dtd">
<!-- Generated by graphviz version 2.40.1 (20161225.0304)
 -->
<!-- Title: RecordProcessor::RecordProcessor Pages: 1 -->
<svg width="1212pt" height="715pt"
 viewBox="0.00 0.00 1212.00 715.00" xmlns="http://www.w3.org/2000/svg" xmlns:xlink="http://www.w3.org/1999/xlink">
<g id="graph0" class="graph" transform="scale(1 1) rotate(0) translate(4 711)">
<title>RecordProcessor::RecordProcessor</title>
<polygon fill="#ffffff" stroke="transparent" points="-4,4 -4,-711 1208,-711 1208,4 -4,4"/>
<!-- Node27 -->
<g id="node1" class="node">
<title>Node27</title>
<polygon fill="#bfbfbf" stroke="#000000" points="0,-339.5 0,-358.5 183,-358.5 183,-339.5 0,-339.5"/>
<text text-anchor="middle" x="91.5" y="-346.5" font-family="Helvetica,sans-Serif" font-size="10.00" fill="#000000">RecordProcessor::RecordProcessor</text>
</g>
<!-- Node28 -->
<g id="node2" class="node">
<title>Node28</title>
<g id="a_node2"><a xlink:href="classFweelin.html#a284c4fa5ca72714cdaa4ad4b21ef4ff0" target="_top" xlink:title="Fweelin::getPRE_AUDIOBLOCK">
<polygon fill="#ffffff" stroke="#000000" points="226,-687.5 226,-706.5 391,-706.5 391,-687.5 226,-687.5"/>
<text text-anchor="middle" x="308.5" y="-694.5" font-family="Helvetica,sans-Serif" font-size="10.00" fill="#000000">Fweelin::getPRE_AUDIOBLOCK</text>
</a>
</g>
</g>
<!-- Node27&#45;&gt;Node28 -->
<g id="edge1" class="edge">
<title>Node27&#45;&gt;Node28</title>
<path fill="none" stroke="#191970" d="M92.2443,-358.6942C96.1338,-402.3899 118.0041,-582.8094 219,-673 223.5353,-677.0501 228.6823,-680.4274 234.1617,-683.2423"/>
<polygon fill="#191970" stroke="#191970" points="233.0884,-686.5957 243.6473,-687.4681 235.937,-680.2015 233.0884,-686.5957"/>
</g>
<!-- Node29 -->
<g id="node3" class="node">
<title>Node29</title>
<g id="a_node3"><a xlink:href="classPreallocatedType.html#ae8a5326530dd0f38ecbb094f7818bd42" target="_top" xlink:title="PreallocatedType::RTNew">
<polygon fill="#ffffff" stroke="#000000" points="654,-630.5 654,-649.5 794,-649.5 794,-630.5 654,-630.5"/>
<text text-anchor="middle" x="724" y="-637.5" font-family="Helvetica,sans-Serif" font-size="10.00" fill="#000000">PreallocatedType::RTNew</text>
</a>
</g>
</g>
<!-- Node27&#45;&gt;Node29 -->
<g id="edge2" class="edge">
<title>Node27&#45;&gt;Node29</title>
<path fill="none" stroke="#191970" d="M92.9813,-358.5379C99.5176,-397.1226 129.5374,-542.6962 219,-608 358.8332,-710.0721 582.6392,-673.9566 678.2687,-651.9203"/>
<polygon fill="#191970" stroke="#191970" points="679.2733,-655.2794 688.2013,-649.5749 677.6646,-648.4667 679.2733,-655.2794"/>
</g>
<!-- Node35 -->
<g id="node9" class="node">
<title>Node35</title>
<g id="a_node9"><a xlink:href="classFweelin.html#a538440216608aed67e6940c2903c3072" target="_top" xlink:title="Fweelin::getBUFSZ">
<polygon fill="#ffffff" stroke="#000000" points="254.5,-503.5 254.5,-522.5 362.5,-522.5 362.5,-503.5 254.5,-503.5"/>
<text text-anchor="middle" x="308.5" y="-510.5" font-family="Helvetica,sans-Serif" font-size="10.00" fill="#000000">Fweelin::getBUFSZ</text>
</a>
</g>
</g>
<!-- Node27&#45;&gt;Node35 -->
<g id="edge8" class="edge">
<title>Node27&#45;&gt;Node35</title>
<path fill="none" stroke="#191970" d="M96.9191,-358.6678C112.262,-385.0738 158.8185,-458.7905 219,-494 226.8535,-498.5947 235.6734,-502.0845 244.634,-504.7338"/>
<polygon fill="#191970" stroke="#191970" points="243.8124,-508.1366 254.3734,-507.2912 245.5903,-501.3662 243.8124,-508.1366"/>
</g>
<!-- Node36 -->
<g id="node10" class="node">
<title>Node36</title>
<g id="a_node10"><a xlink:href="classInputSettings.html#a5a8a6bddc5f4e5bf8f7356d167a693b1" target="_top" xlink:title="InputSettings::IsSelected\lStereo">
<polygon fill="#ffffff" stroke="#000000" points="240,-454 240,-484 377,-484 377,-454 240,-454"/>
<text text-anchor="start" x="248" y="-472" font-family="Helvetica,sans-Serif" font-size="10.00" fill="#000000">InputSettings::IsSelected</text>
<text text-anchor="middle" x="308.5" y="-461" font-family="Helvetica,sans-Serif" font-size="10.00" fill="#000000">Stereo</text>
</a>
</g>
</g>
<!-- Node27&#45;&gt;Node36 -->
<g id="edge9" class="edge">
<title>Node27&#45;&gt;Node36</title>
<path fill="none" stroke="#191970" d="M101.5372,-358.5705C121.9953,-377.5746 170.6805,-420.2781 219,-444 223.6772,-446.2962 228.5988,-448.411 233.6286,-450.3535"/>
<polygon fill="#191970" stroke="#191970" points="232.8046,-453.777 243.3989,-453.8792 235.1806,-447.1926 232.8046,-453.777"/>
</g>
<!-- Node39 -->
<g id="node13" class="node">
<title>Node39</title>
<g id="a_node13"><a xlink:href="classFweelin.html#a8bbb791d815a8c4f39f9ce672828b50e" target="_top" xlink:title="Fweelin::getPRE_EXTRACHANNEL">
<polygon fill="#ffffff" stroke="#000000" points="219,-415.5 219,-434.5 398,-434.5 398,-415.5 219,-415.5"/>
<text text-anchor="middle" x="308.5" y="-422.5" font-family="Helvetica,sans-Serif" font-size="10.00" fill="#000000">Fweelin::getPRE_EXTRACHANNEL</text>
</a>
</g>
</g>
<!-- Node27&#45;&gt;Node39 -->
<g id="edge12" class="edge">
<title>Node27&#45;&gt;Node39</title>
<path fill="none" stroke="#191970" d="M109.598,-358.5624C133.8873,-371.0501 178.6533,-392.8622 219,-406 227.2304,-408.68 236.0122,-411.08 244.7377,-413.1977"/>
<polygon fill="#191970" stroke="#191970" points="244.0006,-416.6196 254.5327,-415.4686 245.5816,-409.8004 244.0006,-416.6196"/>
</g>
<!-- Node40 -->
<g id="node14" class="node">
<title>Node40</title>
<g id="a_node14"><a xlink:href="classPulse.html#a0cb99bfae020d317e791a161b43be165" target="_top" xlink:title="Pulse::GetPct">
<polygon fill="#ffffff" stroke="#000000" points="268,-377.5 268,-396.5 349,-396.5 349,-377.5 268,-377.5"/>
<text text-anchor="middle" x="308.5" y="-384.5" font-family="Helvetica,sans-Serif" font-size="10.00" fill="#000000">Pulse::GetPct</text>
</a>
</g>
</g>
<!-- Node27&#45;&gt;Node40 -->
<g id="edge13" class="edge">
<title>Node27&#45;&gt;Node40</title>
<path fill="none" stroke="#191970" d="M145.9782,-358.54C180.2248,-364.5371 224.1117,-372.2223 257.6458,-378.0947"/>
<polygon fill="#191970" stroke="#191970" points="257.2445,-381.5776 267.6984,-379.855 258.452,-374.6825 257.2445,-381.5776"/>
</g>
<!-- Node41 -->
<g id="node15" class="node">
<title>Node41</title>
<g id="a_node15"><a xlink:href="classAudioBlock.html#ae7aec1591ed6f228799c11b650b2cc1b" target="_top" xlink:title="AudioBlock::GetExtendedData">
<polygon fill="#ffffff" stroke="#000000" points="444,-361.5 444,-380.5 608,-380.5 608,-361.5 444,-361.5"/>
<text text-anchor="middle" x="526" y="-368.5" font-family="Helvetica,sans-Serif" font-size="10.00" fill="#000000">AudioBlock::GetExtendedData</text>
</a>
</g>
</g>
<!-- Node27&#45;&gt;Node41 -->
<g id="edge14" class="edge">
<title>Node27&#45;&gt;Node41</title>
<path fill="none" stroke="#191970" d="M183.1153,-353.6388C256.7128,-357.3652 359.6189,-362.5756 433.4603,-366.3144"/>
<polygon fill="#191970" stroke="#191970" points="433.5164,-369.8217 443.6806,-366.8319 433.8705,-362.8306 433.5164,-369.8217"/>
</g>
<!-- Node43 -->
<g id="node17" class="node">
<title>Node43</title>
<g id="a_node17"><a xlink:href="classAudioBlockIterator.html#afdaa1beeae81dbfb277fae51bee42ca0" target="_top" xlink:title="AudioBlockIterator\l::GetTotalLength2Cur">
<polygon fill="#ffffff" stroke="#000000" points="249,-214 249,-244 368,-244 368,-214 249,-214"/>
<text text-anchor="start" x="257" y="-232" font-family="Helvetica,sans-Serif" font-size="10.00" fill="#000000">AudioBlockIterator</text>
<text text-anchor="middle" x="308.5" y="-221" font-family="Helvetica,sans-Serif" font-size="10.00" fill="#000000">::GetTotalLength2Cur</text>
</a>
</g>
</g>
<!-- Node27&#45;&gt;Node43 -->
<g id="edge16" class="edge">
<title>Node27&#45;&gt;Node43</title>
<path fill="none" stroke="#191970" d="M102.7213,-339.3467C124.0796,-321.3828 172.5967,-282.5155 219,-259 227.354,-254.7665 236.4383,-250.9281 245.5106,-247.5194"/>
<polygon fill="#191970" stroke="#191970" points="246.7088,-250.808 254.9294,-244.1242 244.335,-244.2228 246.7088,-250.808"/>
</g>
<!-- Node44 -->
<g id="node18" class="node">
<title>Node44</title>
<g id="a_node18"><a xlink:href="classBED__MarkerPoints.html#a1e0a70d1a829da1887e4e9b343550008" target="_top" xlink:title="BED_MarkerPoints::GetMarker\lNBeforeCur">
<polygon fill="#ffffff" stroke="#000000" points="227,-165 227,-195 390,-195 390,-165 227,-165"/>
<text text-anchor="start" x="235" y="-183" font-family="Helvetica,sans-Serif" font-size="10.00" fill="#000000">BED_MarkerPoints::GetMarker</text>
<text text-anchor="middle" x="308.5" y="-172" font-family="Helvetica,sans-Serif" font-size="10.00" fill="#000000">NBeforeCur</text>
</a>
</g>
</g>
<!-- Node27&#45;&gt;Node44 -->
<g id="edge17" class="edge">
<title>Node27&#45;&gt;Node44</title>
<path fill="none" stroke="#191970" d="M97.2857,-339.2232C113.2085,-313.1888 160.41,-241.6711 219,-205 222.3654,-202.8936 225.9108,-200.9612 229.5706,-199.1887"/>
<polygon fill="#191970" stroke="#191970" points="231.1186,-202.3316 238.8658,-195.1044 228.3026,-195.9229 231.1186,-202.3316"/>
</g>
<!-- Node45 -->
<g id="node19" class="node">
<title>Node45</title>
<g id="a_node19"><a xlink:href="classAudioBlock.html#aea20227efbc9017f7fb247cb2d851086" target="_top" xlink:title="AudioBlock::GenerateSubChain">
<polygon fill="#ffffff" stroke="#000000" points="224.5,-301.5 224.5,-320.5 392.5,-320.5 392.5,-301.5 224.5,-301.5"/>
<text text-anchor="middle" x="308.5" y="-308.5" font-family="Helvetica,sans-Serif" font-size="10.00" fill="#000000">AudioBlock::GenerateSubChain</text>
</a>
</g>
</g>
<!-- Node27&#45;&gt;Node45 -->
<g id="edge18" class="edge">
<title>Node27&#45;&gt;Node45</title>
<path fill="none" stroke="#191970" d="M145.9782,-339.46C175.7723,-334.2426 212.863,-327.7475 244.0852,-322.28"/>
<polygon fill="#191970" stroke="#191970" points="244.7531,-325.7164 253.9994,-320.5439 243.5456,-318.8213 244.7531,-325.7164"/>
</g>
<!-- Node47 -->
<g id="node21" class="node">
<title>Node47</title>
<g id="a_node21"><a xlink:href="classPreallocated.html#a9195f3c7f49432b1dd7be89e53c6a5b1" target="_top" xlink:title="Preallocated::RTNew">
<polygon fill="#ffffff" stroke="#000000" points="467.5,-235.5 467.5,-254.5 584.5,-254.5 584.5,-235.5 467.5,-235.5"/>
<text text-anchor="middle" x="526" y="-242.5" font-family="Helvetica,sans-Serif" font-size="10.00" fill="#000000">Preallocated::RTNew</text>
</a>
</g>
</g>
<!-- Node27&#45;&gt;Node47 -->
<g id="edge26" class="edge">
<title>Node27&#45;&gt;Node47</title>
<path fill="none" stroke="#191970" d="M109.0777,-339.3088C133.1495,-326.47 178.0611,-304.0457 219,-292 298.8686,-268.4998 394.0735,-256.2498 457.0602,-250.228"/>
<polygon fill="#191970" stroke="#191970" points="457.6385,-253.6895 467.2718,-249.2794 456.9909,-246.7195 457.6385,-253.6895"/>
</g>
<!-- Node49 -->
<g id="node23" class="node">
<title>Node49</title>
<g id="a_node23"><a xlink:href="classAudioBlock.html#a6382f2b9753eb410723c8bf9095f5d82" target="_top" xlink:title="AudioBlock::InsertFirst">
<polygon fill="#ffffff" stroke="#000000" points="246,-126.5 246,-145.5 371,-145.5 371,-126.5 246,-126.5"/>
<text text-anchor="middle" x="308.5" y="-133.5" font-family="Helvetica,sans-Serif" font-size="10.00" fill="#000000">AudioBlock::InsertFirst</text>
</a>
</g>
</g>
<!-- Node27&#45;&gt;Node49 -->
<g id="edge23" class="edge">
<title>Node27&#45;&gt;Node49</title>
<path fill="none" stroke="#191970" d="M94.9555,-339.0578C106.6853,-306.8685 148.238,-204.7671 219,-156 224.248,-152.3833 230.0431,-149.4086 236.0861,-146.9636"/>
<polygon fill="#191970" stroke="#191970" points="237.4864,-150.1807 245.743,-143.5414 235.1482,-143.5827 237.4864,-150.1807"/>
</g>
<!-- Node50 -->
<g id="node24" class="node">
<title>Node50</title>
<g id="a_node24"><a xlink:href="classAudioBlockIterator.html#a9734740129f9f3cb815f6acbb1d6e2a7" target="_top" xlink:title="AudioBlockIterator\l::GenConstants">
<polygon fill="#ffffff" stroke="#000000" points="255,-77 255,-107 362,-107 362,-77 255,-77"/>
<text text-anchor="start" x="263" y="-95" font-family="Helvetica,sans-Serif" font-size="10.00" fill="#000000">AudioBlockIterator</text>
<text text-anchor="middle" x="308.5" y="-84" font-family="Helvetica,sans-Serif" font-size="10.00" fill="#000000">::GenConstants</text>
</a>
</g>
</g>
<!-- Node27&#45;&gt;Node50 -->
<g id="edge24" class="edge">
<title>Node27&#45;&gt;Node50</title>
<path fill="none" stroke="#191970" d="M93.9042,-339.2965C103.2341,-303.7155 140.4884,-179.244 219,-117 226.6,-110.9747 235.5662,-106.4006 244.8378,-102.9284"/>
<polygon fill="#191970" stroke="#191970" points="246.1806,-106.1704 254.5658,-99.6943 243.9722,-99.5279 246.1806,-106.1704"/>
</g>
<!-- Node52 -->
<g id="node26" class="node">
<title>Node52</title>
<g id="a_node26"><a xlink:href="classAudioBlock.html#aa3129140d4e8c54e83afbef223cf8a65" target="_top" xlink:title="AudioBlock::AddExtendedData">
<polygon fill="#ffffff" stroke="#000000" points="226,-38.5 226,-57.5 391,-57.5 391,-38.5 226,-38.5"/>
<text text-anchor="middle" x="308.5" y="-45.5" font-family="Helvetica,sans-Serif" font-size="10.00" fill="#000000">AudioBlock::AddExtendedData</text>
</a>
</g>
</g>
<!-- Node27&#45;&gt;Node52 -->
<g id="edge27" class="edge">
<title>Node27&#45;&gt;Node52</title>
<path fill="none" stroke="#191970" d="M92.7323,-339.3561C98.4356,-298.9333 126.0772,-141.7872 219,-67 221.0573,-65.3443 223.2248,-63.8234 225.4795,-62.427"/>
<polygon fill="#191970" stroke="#191970" points="227.3496,-65.3976 234.5603,-57.6352 224.0827,-59.2067 227.3496,-65.3976"/>
</g>
<!-- Node53 -->
<g id="node27" class="node">
<title>Node53</title>
<g id="a_node27"><a xlink:href="classFweelin.html#a600688955c7470a1b7a2fa95ddcc4118" target="_top" xlink:title="Fweelin::getBMG">
<polygon fill="#ffffff" stroke="#000000" points="259.5,-.5 259.5,-19.5 357.5,-19.5 357.5,-.5 259.5,-.5"/>
<text text-anchor="middle" x="308.5" y="-7.5" font-family="Helvetica,sans-Serif" font-size="10.00" fill="#000000">Fweelin::getBMG</text>
</a>
</g>
</g>
<!-- Node27&#45;&gt;Node53 -->
<g id="edge28" class="edge">
<title>Node27&#45;&gt;Node53</title>
<path fill="none" stroke="#191970" d="M92.1775,-339.2972C95.7774,-295.5852 116.5783,-115.3407 219,-29 227.5546,-21.7886 238.1773,-17.1071 249.0824,-14.1094"/>
<polygon fill="#191970" stroke="#191970" points="250.1613,-17.4529 259.1255,-11.8054 248.596,-10.6301 250.1613,-17.4529"/>
</g>
<!-- Node54 -->
<g id="node28" class="node">
<title>Node54</title>
<g id="a_node28"><a xlink:href="classBlockManager.html#af050835c736257358a3f572f8422ff1d" target="_top" xlink:title="BlockManager::PeakAvgOn">
<polygon fill="#ffffff" stroke="#000000" points="235,-541.5 235,-560.5 382,-560.5 382,-541.5 235,-541.5"/>
<text text-anchor="middle" x="308.5" y="-548.5" font-family="Helvetica,sans-Serif" font-size="10.00" fill="#000000">BlockManager::PeakAvgOn</text>
</a>
</g>
</g>
<!-- Node27&#45;&gt;Node54 -->
<g id="edge29" class="edge">
<title>Node27&#45;&gt;Node54</title>
<path fill="none" stroke="#191970" d="M95.266,-358.8957C107.6462,-389.9968 150.2712,-486.4061 219,-532 222.0941,-534.0526 225.3693,-535.8887 228.7668,-537.5308"/>
<polygon fill="#191970" stroke="#191970" points="227.4319,-540.7664 238.0053,-541.4399 230.1597,-534.3197 227.4319,-540.7664"/>
</g>
<!-- Node60 -->
<g id="node34" class="node">
<title>Node60</title>
<g id="a_node34"><a xlink:href="classBlockManager.html#ac12004ae7d335e81c7cbd463cd614b34" target="_top" xlink:title="BlockManager::GrowChainOn">
<polygon fill="#ffffff" stroke="#000000" points="229.5,-579.5 229.5,-598.5 387.5,-598.5 387.5,-579.5 229.5,-579.5"/>
<text text-anchor="middle" x="308.5" y="-586.5" font-family="Helvetica,sans-Serif" font-size="10.00" fill="#000000">BlockManager::GrowChainOn</text>
</a>
</g>
</g>
<!-- Node27&#45;&gt;Node60 -->
<g id="edge36" class="edge">
<title>Node27&#45;&gt;Node60</title>
<path fill="none" stroke="#191970" d="M94.0615,-358.8906C103.6955,-393.9917 141.2383,-513.4989 219,-570 221.552,-571.8543 224.2467,-573.5352 227.0466,-575.0585"/>
<polygon fill="#191970" stroke="#191970" points="225.7612,-578.3216 236.3003,-579.4065 228.738,-571.9861 225.7612,-578.3216"/>
</g>
<!-- Node30 -->
<g id="node4" class="node">
<title>Node30</title>
<g id="a_node4"><a xlink:href="classRTStore.html#a2be0d247570dc611a379ab0a80dd14da" target="_top" xlink:title="RTStore::FindItemWithState">
<polygon fill="#ffffff" stroke="#000000" points="830,-668.5 830,-687.5 980,-687.5 980,-668.5 830,-668.5"/>
<text text-anchor="middle" x="905" y="-675.5" font-family="Helvetica,sans-Serif" font-size="10.00" fill="#000000">RTStore::FindItemWithState</text>
</a>
</g>
</g>
<!-- Node29&#45;&gt;Node30 -->
<g id="edge3" class="edge">
<title>Node29&#45;&gt;Node30</title>
<path fill="none" stroke="#191970" d="M769.6739,-649.589C793.9892,-654.6939 824.0802,-661.0113 849.7084,-666.3918"/>
<polygon fill="#191970" stroke="#191970" points="849.1487,-669.8505 859.6545,-668.4799 850.587,-662.9999 849.1487,-669.8505"/>
</g>
<!-- Node31 -->
<g id="node5" class="node">
<title>Node31</title>
<g id="a_node5"><a xlink:href="classRTStore.html#af3c93f31bd68ce149a812b05d9e7cd86" target="_top" xlink:title="RTStore::ChangeStateAtIdx">
<polygon fill="#ffffff" stroke="#000000" points="831,-630.5 831,-649.5 979,-649.5 979,-630.5 831,-630.5"/>
<text text-anchor="middle" x="905" y="-637.5" font-family="Helvetica,sans-Serif" font-size="10.00" fill="#000000">RTStore::ChangeStateAtIdx</text>
</a>
</g>
</g>
<!-- Node29&#45;&gt;Node31 -->
<g id="edge4" class="edge">
<title>Node29&#45;&gt;Node31</title>
<path fill="none" stroke="#191970" d="M794.2384,-640C802.9745,-640 811.9761,-640 820.8945,-640"/>
<polygon fill="#191970" stroke="#191970" points="820.9097,-643.5001 830.9097,-640 820.9096,-636.5001 820.9097,-643.5001"/>
</g>
<!-- Node32 -->
<g id="node6" class="node">
<title>Node32</title>
<g id="a_node6"><a xlink:href="classMemoryManager.html#a3971e97751f5eccd04086eb2e6fb6f43" target="_top" xlink:title="MemoryManager::WakeUp">
<polygon fill="#ffffff" stroke="#000000" points="832.5,-592.5 832.5,-611.5 977.5,-611.5 977.5,-592.5 832.5,-592.5"/>
<text text-anchor="middle" x="905" y="-599.5" font-family="Helvetica,sans-Serif" font-size="10.00" fill="#000000">MemoryManager::WakeUp</text>
</a>
</g>
</g>
<!-- Node29&#45;&gt;Node32 -->
<g id="edge5" class="edge">
<title>Node29&#45;&gt;Node32</title>
<path fill="none" stroke="#191970" d="M769.6739,-630.411C793.9892,-625.3061 824.0802,-618.9887 849.7084,-613.6082"/>
<polygon fill="#191970" stroke="#191970" points="850.587,-617.0001 859.6545,-611.5201 849.1487,-610.1495 850.587,-617.0001"/>
</g>
<!-- Node33 -->
<g id="node7" class="node">
<title>Node33</title>
<g id="a_node7"><a xlink:href="classSRMWRingBuffer.html#a47699ccc0600c38559c8e10f0ca9bf3c" target="_top" xlink:title="SRMWRingBuffer::WriteElement">
<polygon fill="#ffffff" stroke="#000000" points="1025,-611.5 1025,-630.5 1195,-630.5 1195,-611.5 1025,-611.5"/>
<text text-anchor="middle" x="1110" y="-618.5" font-family="Helvetica,sans-Serif" font-size="10.00" fill="#000000">SRMWRingBuffer::WriteElement</text>
</a>
</g>
</g>
<!-- Node32&#45;&gt;Node33 -->
<g id="edge6" class="edge">
<title>Node32&#45;&gt;Node33</title>
<path fill="none" stroke="#191970" d="M977.5638,-608.7254C989.6514,-609.8457 1002.3479,-611.0225 1014.8957,-612.1855"/>
<polygon fill="#191970" stroke="#191970" points="1014.6322,-615.6759 1024.9125,-613.1138 1015.2783,-608.7058 1014.6322,-615.6759"/>
</g>
<!-- Node34 -->
<g id="node8" class="node">
<title>Node34</title>
<g id="a_node8"><a xlink:href="classMemoryManager.html#ab15be510a88e9eab04db2d6554d7e947" target="_top" xlink:title="MemoryManager::WakeupIfNeeded">
<polygon fill="#ffffff" stroke="#000000" points="1016,-573.5 1016,-592.5 1204,-592.5 1204,-573.5 1016,-573.5"/>
<text text-anchor="middle" x="1110" y="-580.5" font-family="Helvetica,sans-Serif" font-size="10.00" fill="#000000">MemoryManager::WakeupIfNeeded</text>
</a>
</g>
</g>
<!-- Node32&#45;&gt;Node34 -->
<g id="edge7" class="edge">
<title>Node32&#45;&gt;Node34</title>
<path fill="none" stroke="#191970" d="M977.5638,-595.2746C986.7962,-594.4189 996.3838,-593.5303 1005.9891,-592.64"/>
<polygon fill="#191970" stroke="#191970" points="1006.3568,-596.1211 1015.991,-591.713 1005.7107,-589.1509 1006.3568,-596.1211"/>
</g>
<!-- Node37 -->
<g id="node11" class="node">
<title>Node37</title>
<g id="a_node11"><a xlink:href="classFweelin.html#a681d7ca8d0789199af135f22c26a5409" target="_top" xlink:title="Fweelin::getCFG">
<polygon fill="#ffffff" stroke="#000000" points="478.5,-459.5 478.5,-478.5 573.5,-478.5 573.5,-459.5 478.5,-459.5"/>
<text text-anchor="middle" x="526" y="-466.5" font-family="Helvetica,sans-Serif" font-size="10.00" fill="#000000">Fweelin::getCFG</text>
</a>
</g>
</g>
<!-- Node36&#45;&gt;Node37 -->
<g id="edge10" class="edge">
<title>Node36&#45;&gt;Node37</title>
<path fill="none" stroke="#191970" d="M377.0198,-469C406.4082,-469 440.3594,-469 468.422,-469"/>
<polygon fill="#191970" stroke="#191970" points="468.4751,-472.5001 478.475,-469 468.475,-465.5001 468.4751,-472.5001"/>
</g>
<!-- Node38 -->
<g id="node12" class="node">
<title>Node38</title>
<g id="a_node12"><a xlink:href="classFloConfig.html#a0e52ff5b53cc10e2f65463b38eb7efc6" target="_top" xlink:title="FloConfig::IsStereoInput">
<polygon fill="#ffffff" stroke="#000000" points="460,-421.5 460,-440.5 592,-440.5 592,-421.5 460,-421.5"/>
<text text-anchor="middle" x="526" y="-428.5" font-family="Helvetica,sans-Serif" font-size="10.00" fill="#000000">FloConfig::IsStereoInput</text>
</a>
</g>
</g>
<!-- Node36&#45;&gt;Node38 -->
<g id="edge11" class="edge">
<title>Node36&#45;&gt;Node38</title>
<path fill="none" stroke="#191970" d="M377.0198,-457.0287C404.071,-452.3025 434.9882,-446.9009 461.6203,-442.2479"/>
<polygon fill="#191970" stroke="#191970" points="462.3522,-445.6732 471.6006,-440.5043 461.1474,-438.7776 462.3522,-445.6732"/>
</g>
<!-- Node42 -->
<g id="node16" class="node">
<title>Node42</title>
<g id="a_node16"><a xlink:href="classBlockExtendedData.html#ae33e9550384a32abf2a91386334a2be9" target="_top" xlink:title="BlockExtendedData::\lGetType">
<polygon fill="#ffffff" stroke="#000000" points="664.5,-356 664.5,-386 783.5,-386 783.5,-356 664.5,-356"/>
<text text-anchor="start" x="672.5" y="-374" font-family="Helvetica,sans-Serif" font-size="10.00" fill="#000000">BlockExtendedData::</text>
<text text-anchor="middle" x="724" y="-363" font-family="Helvetica,sans-Serif" font-size="10.00" fill="#000000">GetType</text>
</a>
</g>
</g>
<!-- Node41&#45;&gt;Node42 -->
<g id="edge15" class="edge">
<title>Node41&#45;&gt;Node42</title>
<path fill="none" stroke="#191970" d="M608.2497,-371C623.5298,-371 639.3583,-371 654.2215,-371"/>
<polygon fill="#191970" stroke="#191970" points="654.3386,-374.5001 664.3386,-371 654.3386,-367.5001 654.3386,-374.5001"/>
</g>
<!-- Node45&#45;&gt;Node41 -->
<g id="edge20" class="edge">
<title>Node45&#45;&gt;Node41</title>
<path fill="none" stroke="#191970" d="M350.4231,-320.5866C365.5971,-324.4883 382.7459,-329.4044 398,-335 414.6118,-341.0937 417.2175,-346.3934 434,-352 442.0052,-354.6743 450.5333,-357.0439 459.046,-359.1225"/>
<polygon fill="#191970" stroke="#191970" points="458.4675,-362.5812 468.9996,-361.4299 460.0484,-355.762 458.4675,-362.5812"/>
</g>
<!-- Node46 -->
<g id="node20" class="node">
<title>Node46</title>
<g id="a_node20"><a xlink:href="classAudioBlock.html#a380880c91c3af2322d232ce2de83b881" target="_top" xlink:title="AudioBlock::GetTotalLen">
<polygon fill="#ffffff" stroke="#000000" points="458.5,-323.5 458.5,-342.5 593.5,-342.5 593.5,-323.5 458.5,-323.5"/>
<text text-anchor="middle" x="526" y="-330.5" font-family="Helvetica,sans-Serif" font-size="10.00" fill="#000000">AudioBlock::GetTotalLen</text>
</a>
</g>
</g>
<!-- Node45&#45;&gt;Node46 -->
<g id="edge19" class="edge">
<title>Node45&#45;&gt;Node46</title>
<path fill="none" stroke="#191970" d="M392.5912,-319.5058C410.8631,-321.354 430.1153,-323.3013 448.1341,-325.1239"/>
<polygon fill="#191970" stroke="#191970" points="447.9911,-328.6272 458.2925,-326.1514 448.6956,-321.6628 447.9911,-328.6272"/>
</g>
<!-- Node45&#45;&gt;Node47 -->
<g id="edge21" class="edge">
<title>Node45&#45;&gt;Node47</title>
<path fill="none" stroke="#191970" d="M353.9655,-301.4938C368.3446,-297.7816 384.103,-292.9621 398,-287 415.2322,-279.607 416.5956,-271.9779 434,-265 441.5501,-261.973 449.6415,-259.367 457.7784,-257.1328"/>
<polygon fill="#191970" stroke="#191970" points="458.8766,-260.4645 467.6928,-254.5887 457.1367,-253.6842 458.8766,-260.4645"/>
</g>
<!-- Node48 -->
<g id="node22" class="node">
<title>Node48</title>
<g id="a_node22"><a xlink:href="classAudioBlock.html#a4f53140535b4c56db4c5360f3fb9eb7d" target="_top" xlink:title="AudioBlock::SetPtrsFromAbs\lOffset">
<polygon fill="#ffffff" stroke="#000000" points="449,-274 449,-304 603,-304 603,-274 449,-274"/>
<text text-anchor="start" x="457" y="-292" font-family="Helvetica,sans-Serif" font-size="10.00" fill="#000000">AudioBlock::SetPtrsFromAbs</text>
<text text-anchor="middle" x="526" y="-281" font-family="Helvetica,sans-Serif" font-size="10.00" fill="#000000">Offset</text>
</a>
</g>
</g>
<!-- Node45&#45;&gt;Node48 -->
<g id="edge22" class="edge">
<title>Node45&#45;&gt;Node48</title>
<path fill="none" stroke="#191970" d="M392.5912,-302.4942C407.6457,-300.9715 423.3658,-299.3814 438.5132,-297.8492"/>
<polygon fill="#191970" stroke="#191970" points="439.2961,-301.288 448.8931,-296.7993 438.5916,-294.3235 439.2961,-301.288"/>
</g>
<!-- Node51 -->
<g id="node25" class="node">
<title>Node51</title>
<g id="a_node25"><a xlink:href="classAudioBlockIterator.html#a0f7c8e5a1f76446f134fc6d00662db5f" target="_top" xlink:title="AudioBlockIterator\l::GenCnt">
<polygon fill="#ffffff" stroke="#000000" points="472.5,-77 472.5,-107 579.5,-107 579.5,-77 472.5,-77"/>
<text text-anchor="start" x="480.5" y="-95" font-family="Helvetica,sans-Serif" font-size="10.00" fill="#000000">AudioBlockIterator</text>
<text text-anchor="middle" x="526" y="-84" font-family="Helvetica,sans-Serif" font-size="10.00" fill="#000000">::GenCnt</text>
</a>
</g>
</g>
<!-- Node50&#45;&gt;Node51 -->
<g id="edge25" class="edge">
<title>Node50&#45;&gt;Node51</title>
<path fill="none" stroke="#191970" d="M362.2641,-92C392.5718,-92 430.6116,-92 462.3959,-92"/>
<polygon fill="#191970" stroke="#191970" points="462.478,-95.5001 472.4779,-92 462.4779,-88.5001 462.478,-95.5001"/>
</g>
<!-- Node55 -->
<g id="node29" class="node">
<title>Node55</title>
<g id="a_node29"><a xlink:href="classBlockManager.html#ae59dae7f7f6572b004dcdacc740204ac" target="_top" xlink:title="BlockManager::DelManager">
<polygon fill="#ffffff" stroke="#000000" points="451,-573.5 451,-592.5 601,-592.5 601,-573.5 451,-573.5"/>
<text text-anchor="middle" x="526" y="-580.5" font-family="Helvetica,sans-Serif" font-size="10.00" fill="#000000">BlockManager::DelManager</text>
</a>
</g>
</g>
<!-- Node54&#45;&gt;Node55 -->
<g id="edge30" class="edge">
<title>Node54&#45;&gt;Node55</title>
<path fill="none" stroke="#191970" d="M373.1683,-560.5144C397.7096,-564.1251 425.8562,-568.2662 451.2522,-572.0026"/>
<polygon fill="#191970" stroke="#191970" points="450.8023,-575.474 461.2053,-573.467 451.8213,-568.5486 450.8023,-575.474"/>
</g>
<!-- Node56 -->
<g id="node30" class="node">
<title>Node56</title>
<g id="a_node30"><a xlink:href="classPreallocatedType.html#a232eab10b1d49ee50f435d175c4ceda5" target="_top" xlink:title="PreallocatedType::RTNewWithWait">
<polygon fill="#ffffff" stroke="#000000" points="434,-611.5 434,-630.5 618,-630.5 618,-611.5 434,-611.5"/>
<text text-anchor="middle" x="526" y="-618.5" font-family="Helvetica,sans-Serif" font-size="10.00" fill="#000000">PreallocatedType::RTNewWithWait</text>
</a>
</g>
</g>
<!-- Node54&#45;&gt;Node56 -->
<g id="edge31" class="edge">
<title>Node54&#45;&gt;Node56</title>
<path fill="none" stroke="#191970" d="M373.4336,-560.5942C381.9362,-563.0493 390.3444,-566.1313 398,-570 417.1062,-579.6552 414.8672,-592.3976 434,-602 438.8285,-604.4233 443.9477,-606.5376 449.2017,-608.3823"/>
<polygon fill="#191970" stroke="#191970" points="448.1803,-611.7301 458.7706,-611.42 450.2984,-605.0582 448.1803,-611.7301"/>
</g>
<!-- Node57 -->
<g id="node31" class="node">
<title>Node57</title>
<g id="a_node31"><a xlink:href="classPeaksAvgsManager.html#a4523d9df43dc9ee00f25cad935271380" target="_top" xlink:title="PeaksAvgsManager::Setup">
<polygon fill="#ffffff" stroke="#000000" points="453.5,-497.5 453.5,-516.5 598.5,-516.5 598.5,-497.5 453.5,-497.5"/>
<text text-anchor="middle" x="526" y="-504.5" font-family="Helvetica,sans-Serif" font-size="10.00" fill="#000000">PeaksAvgsManager::Setup</text>
</a>
</g>
</g>
<!-- Node54&#45;&gt;Node57 -->
<g id="edge33" class="edge">
<title>Node54&#45;&gt;Node57</title>
<path fill="none" stroke="#191970" d="M355.6943,-541.4527C388.8986,-534.7355 433.5187,-525.7089 468.7568,-518.5802"/>
<polygon fill="#191970" stroke="#191970" points="469.7904,-521.9421 478.8978,-516.5287 468.4024,-515.0811 469.7904,-521.9421"/>
</g>
<!-- Node59 -->
<g id="node33" class="node">
<title>Node59</title>
<g id="a_node33"><a xlink:href="classBlockManager.html#aa5e8b71de591a2e25779a1eacdc09704" target="_top" xlink:title="BlockManager::AddManager">
<polygon fill="#ffffff" stroke="#000000" points="450,-535.5 450,-554.5 602,-554.5 602,-535.5 450,-535.5"/>
<text text-anchor="middle" x="526" y="-542.5" font-family="Helvetica,sans-Serif" font-size="10.00" fill="#000000">BlockManager::AddManager</text>
</a>
</g>
</g>
<!-- Node54&#45;&gt;Node59 -->
<g id="edge35" class="edge">
<title>Node54&#45;&gt;Node59</title>
<path fill="none" stroke="#191970" d="M382.1356,-548.9687C400.6258,-548.4586 420.6331,-547.9067 439.6806,-547.3812"/>
<polygon fill="#191970" stroke="#191970" points="439.9435,-550.8754 449.8431,-547.1009 439.7504,-543.8781 439.9435,-550.8754"/>
</g>
<!-- Node56&#45;&gt;Node29 -->
<g id="edge32" class="edge">
<title>Node56&#45;&gt;Node29</title>
<path fill="none" stroke="#191970" d="M618.0442,-629.8325C626.588,-630.6524 635.2013,-631.4789 643.6278,-632.2875"/>
<polygon fill="#191970" stroke="#191970" points="643.5077,-635.792 653.7963,-633.2633 644.1764,-628.824 643.5077,-635.792"/>
</g>
<!-- Node58 -->
<g id="node32" class="node">
<title>Node58</title>
<g id="a_node32"><a xlink:href="classAudioBlockIterator.html#a1dc8579425203e09e42b1776095cc10b" target="_top" xlink:title="AudioBlockIterator\l::AudioBlockIterator">
<polygon fill="#ffffff" stroke="#000000" points="667.5,-492 667.5,-522 780.5,-522 780.5,-492 667.5,-492"/>
<text text-anchor="start" x="675.5" y="-510" font-family="Helvetica,sans-Serif" font-size="10.00" fill="#000000">AudioBlockIterator</text>
<text text-anchor="middle" x="724" y="-499" font-family="Helvetica,sans-Serif" font-size="10.00" fill="#000000">::AudioBlockIterator</text>
</a>
</g>
</g>
<!-- Node57&#45;&gt;Node58 -->
<g id="edge34" class="edge">
<title>Node57&#45;&gt;Node58</title>
<path fill="none" stroke="#191970" d="M598.6036,-507C617.694,-507 638.1972,-507 656.9798,-507"/>
<polygon fill="#191970" stroke="#191970" points="657.2177,-510.5001 667.2176,-507 657.2176,-503.5001 657.2177,-510.5001"/>
</g>
<!-- Node60&#45;&gt;Node55 -->
<g id="edge37" class="edge">
<title>Node60&#45;&gt;Node55</title>
<path fill="none" stroke="#191970" d="M387.6378,-586.8169C404.8987,-586.3407 423.237,-585.8348 440.7248,-585.3524"/>
<polygon fill="#191970" stroke="#191970" points="441.0089,-588.846 450.9085,-585.0715 440.8158,-581.8487 441.0089,-588.846"/>
</g>
<!-- Node60&#45;&gt;Node56 -->
<g id="edge38" class="edge">
<title>Node60&#45;&gt;Node56</title>
<path fill="none" stroke="#191970" d="M373.1683,-598.5144C397.7096,-602.1251 425.8562,-606.2662 451.2522,-610.0026"/>
<polygon fill="#191970" stroke="#191970" points="450.8023,-613.474 461.2053,-611.467 451.8213,-606.5486 450.8023,-613.474"/>
</g>
<!-- Node60&#45;&gt;Node59 -->
<g id="edge39" class="edge">
<title>Node60&#45;&gt;Node59</title>
<path fill="none" stroke="#191970" d="M355.6943,-579.4527C388.8986,-572.7355 433.5187,-563.7089 468.7568,-556.5802"/>
<polygon fill="#191970" stroke="#191970" points="469.7904,-559.9421 478.8978,-554.5287 468.4024,-553.0811 469.7904,-559.9421"/>
</g>
</g>
</svg>
