<?xml version="1.0" encoding="UTF-8" standalone="no"?>
<!DOCTYPE svg PUBLIC "-//W3C//DTD SVG 1.1//EN"
 "http://www.w3.org/Graphics/SVG/1.1/DTD/svg11.dtd">
<!-- Generated by graphviz version 2.40.1 (20161225.0304)
 -->
<!-- Title: LoopManager::AddLoopToBrowser Pages: 1 -->
<svg width="546pt" height="180pt"
 viewBox="0.00 0.00 546.00 180.00" xmlns="http://www.w3.org/2000/svg" xmlns:xlink="http://www.w3.org/1999/xlink">
<g id="graph0" class="graph" transform="scale(1 1) rotate(0) translate(4 176)">
<title>LoopManager::AddLoopToBrowser</title>
<polygon fill="#ffffff" stroke="transparent" points="-4,4 -4,-176 542,-176 542,4 -4,4"/>
<!-- Node63 -->
<g id="node1" class="node">
<title>Node63</title>
<polygon fill="#bfbfbf" stroke="#000000" points="0,-38.5 0,-57.5 180,-57.5 180,-38.5 0,-38.5"/>
<text text-anchor="middle" x="90" y="-45.5" font-family="Helvetica,sans-Serif" font-size="10.00" fill="#000000">LoopManager::AddLoopToBrowser</text>
</g>
<!-- Node64 -->
<g id="node2" class="node">
<title>Node64</title>
<g id="a_node2"><a xlink:href="classBrowser.html#a614d2a2fddedf26b70ffba07b73a0678" target="_top" xlink:title="Browser::GetDisplayName">
<polygon fill="#ffffff" stroke="#000000" points="216,-76.5 216,-95.5 362,-95.5 362,-76.5 216,-76.5"/>
<text text-anchor="middle" x="289" y="-83.5" font-family="Helvetica,sans-Serif" font-size="10.00" fill="#000000">Browser::GetDisplayName</text>
</a>
</g>
</g>
<!-- Node63&#45;&gt;Node64 -->
<g id="edge1" class="edge">
<title>Node63&#45;&gt;Node64</title>
<path fill="none" stroke="#191970" d="M139.9592,-57.54C167.0454,-62.7122 200.7075,-69.1401 229.1835,-74.5778"/>
<polygon fill="#191970" stroke="#191970" points="228.5412,-78.0183 239.0202,-76.4561 229.8542,-71.1425 228.5412,-78.0183"/>
</g>
<!-- Node69 -->
<g id="node7" class="node">
<title>Node69</title>
<g id="a_node7"><a xlink:href="classBrowser.html#ade418b60a9e0e49826acb66811ac8af0" target="_top" xlink:title="Browser::AddItem">
<polygon fill="#ffffff" stroke="#000000" points="237,-19.5 237,-38.5 341,-38.5 341,-19.5 237,-19.5"/>
<text text-anchor="middle" x="289" y="-26.5" font-family="Helvetica,sans-Serif" font-size="10.00" fill="#000000">Browser::AddItem</text>
</a>
</g>
</g>
<!-- Node63&#45;&gt;Node69 -->
<g id="edge6" class="edge">
<title>Node63&#45;&gt;Node69</title>
<path fill="none" stroke="#191970" d="M180.184,-39.3895C195.976,-37.8817 212.0838,-36.3438 226.8973,-34.9294"/>
<polygon fill="#191970" stroke="#191970" points="227.3043,-38.4066 236.9263,-33.9719 226.6389,-31.4382 227.3043,-38.4066"/>
</g>
<!-- Node65 -->
<g id="node3" class="node">
<title>Node65</title>
<g id="a_node3"><a xlink:href="classFweelin.html#a681d7ca8d0789199af135f22c26a5409" target="_top" xlink:title="Fweelin::getCFG">
<polygon fill="#ffffff" stroke="#000000" points="420.5,-152.5 420.5,-171.5 515.5,-171.5 515.5,-152.5 420.5,-152.5"/>
<text text-anchor="middle" x="468" y="-159.5" font-family="Helvetica,sans-Serif" font-size="10.00" fill="#000000">Fweelin::getCFG</text>
</a>
</g>
</g>
<!-- Node64&#45;&gt;Node65 -->
<g id="edge2" class="edge">
<title>Node64&#45;&gt;Node65</title>
<path fill="none" stroke="#191970" d="M304.737,-95.6257C325.4813,-107.9833 363.4034,-129.4444 398,-143 404.0015,-145.3515 410.4017,-147.5223 416.8011,-149.4906"/>
<polygon fill="#191970" stroke="#191970" points="416.2189,-152.9668 426.7993,-152.4138 418.1833,-146.2481 416.2189,-152.9668"/>
</g>
<!-- Node66 -->
<g id="node4" class="node">
<title>Node66</title>
<g id="a_node4"><a xlink:href="classFloConfig.html#a9acc5e0790ab29fe30856d58c5ffa0e8" target="_top" xlink:title="FloConfig::GetLibraryPath">
<polygon fill="#ffffff" stroke="#000000" points="398,-114.5 398,-133.5 538,-133.5 538,-114.5 398,-114.5"/>
<text text-anchor="middle" x="468" y="-121.5" font-family="Helvetica,sans-Serif" font-size="10.00" fill="#000000">FloConfig::GetLibraryPath</text>
</a>
</g>
</g>
<!-- Node64&#45;&gt;Node66 -->
<g id="edge3" class="edge">
<title>Node64&#45;&gt;Node66</title>
<path fill="none" stroke="#191970" d="M334.1693,-95.589C358.2159,-100.6939 387.9744,-107.0113 413.3194,-112.3918"/>
<polygon fill="#191970" stroke="#191970" points="412.6467,-115.8269 423.1556,-114.4799 414.1004,-108.9795 412.6467,-115.8269"/>
</g>
<!-- Node67 -->
<g id="node5" class="node">
<title>Node67</title>
<g id="a_node5"><a xlink:href="classSaveable.html#a4e8b7b5e6fe537a5c68c35927741a6e3" target="_top" xlink:title="Saveable::SplitFilename">
<polygon fill="#ffffff" stroke="#000000" points="401,-76.5 401,-95.5 535,-95.5 535,-76.5 401,-76.5"/>
<text text-anchor="middle" x="468" y="-83.5" font-family="Helvetica,sans-Serif" font-size="10.00" fill="#000000">Saveable::SplitFilename</text>
</a>
</g>
</g>
<!-- Node64&#45;&gt;Node67 -->
<g id="edge4" class="edge">
<title>Node64&#45;&gt;Node67</title>
<path fill="none" stroke="#191970" d="M362.0643,-86C371.5063,-86 381.2011,-86 390.7085,-86"/>
<polygon fill="#191970" stroke="#191970" points="390.9308,-89.5001 400.9308,-86 390.9308,-82.5001 390.9308,-89.5001"/>
</g>
<!-- Node68 -->
<g id="node6" class="node">
<title>Node68</title>
<g id="a_node6"><a xlink:href="classSaveable.html#afd744adf4ac3fbee68114daa3c513326" target="_top" xlink:title="Saveable::GetHashFirst">
<polygon fill="#ffffff" stroke="#000000" points="403,-38.5 403,-57.5 533,-57.5 533,-38.5 403,-38.5"/>
<text text-anchor="middle" x="468" y="-45.5" font-family="Helvetica,sans-Serif" font-size="10.00" fill="#000000">Saveable::GetHashFirst</text>
</a>
</g>
</g>
<!-- Node64&#45;&gt;Node68 -->
<g id="edge5" class="edge">
<title>Node64&#45;&gt;Node68</title>
<path fill="none" stroke="#191970" d="M334.1693,-76.411C358.2159,-71.3061 387.9744,-64.9887 413.3194,-59.6082"/>
<polygon fill="#191970" stroke="#191970" points="414.1004,-63.0205 423.1556,-57.5201 412.6467,-56.1731 414.1004,-63.0205"/>
</g>
<!-- Node70 -->
<g id="node8" class="node">
<title>Node70</title>
<g id="a_node8"><a xlink:href="classBrowserItem.html#ae46a902950af8f0613490012a75c8194" target="_top" xlink:title="BrowserItem::Compare">
<polygon fill="#ffffff" stroke="#000000" points="403.5,-.5 403.5,-19.5 532.5,-19.5 532.5,-.5 403.5,-.5"/>
<text text-anchor="middle" x="468" y="-7.5" font-family="Helvetica,sans-Serif" font-size="10.00" fill="#000000">BrowserItem::Compare</text>
</a>
</g>
</g>
<!-- Node69&#45;&gt;Node70 -->
<g id="edge7" class="edge">
<title>Node69&#45;&gt;Node70</title>
<path fill="none" stroke="#191970" d="M341.2554,-23.4533C357.4727,-21.732 375.6756,-19.7998 393.1174,-17.9484"/>
<polygon fill="#191970" stroke="#191970" points="393.7034,-21.406 403.2781,-16.8699 392.9645,-14.4451 393.7034,-21.406"/>
</g>
</g>
</svg>
