<?xml version="1.0" encoding="UTF-8" standalone="no"?>
<!DOCTYPE svg PUBLIC "-//W3C//DTD SVG 1.1//EN"
 "http://www.w3.org/Graphics/SVG/1.1/DTD/svg11.dtd">
<!-- Generated by graphviz version 2.40.1 (20161225.0304)
 -->
<!-- Title: FloConfig::IsStereoInput Pages: 1 -->
<svg width="679pt" height="78pt"
 viewBox="0.00 0.00 679.00 77.50" xmlns="http://www.w3.org/2000/svg" xmlns:xlink="http://www.w3.org/1999/xlink">
<g id="graph0" class="graph" transform="scale(1 1) rotate(0) translate(4 73.5)">
<title>FloConfig::IsStereoInput</title>
<polygon fill="#ffffff" stroke="transparent" points="-4,4 -4,-73.5 675,-73.5 675,4 -4,4"/>
<!-- Node265 -->
<g id="node1" class="node">
<title>Node265</title>
<polygon fill="#bfbfbf" stroke="#000000" points="0,-28 0,-47 132,-47 132,-28 0,-28"/>
<text text-anchor="middle" x="66" y="-35" font-family="Helvetica,sans-Serif" font-size="10.00" fill="#000000">FloConfig::IsStereoInput</text>
</g>
<!-- Node266 -->
<g id="node2" class="node">
<title>Node266</title>
<g id="a_node2"><a xlink:href="classAudioBuffers.html#ac3ab00f9fd05d68fc10fb5e6dca83fa2" target="_top" xlink:title="AudioBuffers::IsStereoInput">
<polygon fill="#ffffff" stroke="#000000" points="168,-50 168,-69 317,-69 317,-50 168,-50"/>
<text text-anchor="middle" x="242.5" y="-57" font-family="Helvetica,sans-Serif" font-size="10.00" fill="#000000">AudioBuffers::IsStereoInput</text>
</a>
</g>
</g>
<!-- Node265&#45;&gt;Node266 -->
<g id="edge1" class="edge">
<title>Node265&#45;&gt;Node266</title>
<path fill="none" stroke="#191970" d="M142.1557,-46.9925C150.6928,-48.0566 159.3838,-49.1399 167.9009,-50.2015"/>
<polygon fill="#191970" stroke="#191970" points="142.5804,-43.5184 132.2242,-45.7546 141.7145,-50.4647 142.5804,-43.5184"/>
</g>
<!-- Node269 -->
<g id="node5" class="node">
<title>Node269</title>
<g id="a_node5"><a xlink:href="classInputSettings.html#a5a8a6bddc5f4e5bf8f7356d167a693b1" target="_top" xlink:title="InputSettings::IsSelected\lStereo">
<polygon fill="#ffffff" stroke="#000000" points="174,-.5 174,-30.5 311,-30.5 311,-.5 174,-.5"/>
<text text-anchor="start" x="182" y="-18.5" font-family="Helvetica,sans-Serif" font-size="10.00" fill="#000000">InputSettings::IsSelected</text>
<text text-anchor="middle" x="242.5" y="-7.5" font-family="Helvetica,sans-Serif" font-size="10.00" fill="#000000">Stereo</text>
</a>
</g>
</g>
<!-- Node265&#45;&gt;Node269 -->
<g id="edge4" class="edge">
<title>Node265&#45;&gt;Node269</title>
<path fill="none" stroke="#191970" d="M142.2142,-28.0002C152.7289,-26.6896 163.4759,-25.35 173.843,-24.0578"/>
<polygon fill="#191970" stroke="#191970" points="141.7145,-24.5353 132.2242,-29.2454 142.5804,-31.4816 141.7145,-24.5353"/>
</g>
<!-- Node267 -->
<g id="node3" class="node">
<title>Node267</title>
<g id="a_node3"><a xlink:href="classAudioIO.html#a1e4157d1900df901a60d5a2260d7509c" target="_top" xlink:title="AudioIO::open">
<polygon fill="#ffffff" stroke="#000000" points="402,-50 402,-69 487,-69 487,-50 402,-50"/>
<text text-anchor="middle" x="444.5" y="-57" font-family="Helvetica,sans-Serif" font-size="10.00" fill="#000000">AudioIO::open</text>
</a>
</g>
</g>
<!-- Node266&#45;&gt;Node267 -->
<g id="edge2" class="edge">
<title>Node266&#45;&gt;Node267</title>
<path fill="none" stroke="#191970" d="M327.2876,-59.5C352.9921,-59.5 380.1351,-59.5 401.8211,-59.5"/>
<polygon fill="#191970" stroke="#191970" points="327.1435,-56.0001 317.1434,-59.5 327.1434,-63.0001 327.1435,-56.0001"/>
</g>
<!-- Node268 -->
<g id="node4" class="node">
<title>Node268</title>
<g id="a_node4"><a xlink:href="classAudioIO.html#a012ce924f59ced78f2fac75e6e33b55c" target="_top" xlink:title="AudioIO::AudioIO">
<polygon fill="#ffffff" stroke="#000000" points="572,-50 572,-69 671,-69 671,-50 572,-50"/>
<text text-anchor="middle" x="621.5" y="-57" font-family="Helvetica,sans-Serif" font-size="10.00" fill="#000000">AudioIO::AudioIO</text>
</a>
</g>
</g>
<!-- Node267&#45;&gt;Node268 -->
<g id="edge3" class="edge">
<title>Node267&#45;&gt;Node268</title>
<path fill="none" stroke="#191970" d="M497.5178,-59.5C521.0852,-59.5 548.6759,-59.5 571.8388,-59.5"/>
<polygon fill="#191970" stroke="#191970" points="497.3468,-56.0001 487.3468,-59.5 497.3467,-63.0001 497.3468,-56.0001"/>
</g>
<!-- Node270 -->
<g id="node6" class="node">
<title>Node270</title>
<g id="a_node6"><a xlink:href="classRecordProcessor.html#aa20c0f68a5ee5e4739759b3783b6e4d1" target="_top" xlink:title="RecordProcessor::RecordProcessor">
<polygon fill="#ffffff" stroke="#000000" points="353,-6 353,-25 536,-25 536,-6 353,-6"/>
<text text-anchor="middle" x="444.5" y="-13" font-family="Helvetica,sans-Serif" font-size="10.00" fill="#000000">RecordProcessor::RecordProcessor</text>
</a>
</g>
</g>
<!-- Node269&#45;&gt;Node270 -->
<g id="edge5" class="edge">
<title>Node269&#45;&gt;Node270</title>
<path fill="none" stroke="#191970" d="M321.348,-15.5C331.651,-15.5 342.2774,-15.5 352.7693,-15.5"/>
<polygon fill="#191970" stroke="#191970" points="321.1699,-12.0001 311.1699,-15.5 321.1698,-19.0001 321.1699,-12.0001"/>
</g>
</g>
</svg>
