<?xml version="1.0" encoding="UTF-8" standalone="no"?>
<!DOCTYPE svg PUBLIC "-//W3C//DTD SVG 1.1//EN"
 "http://www.w3.org/Graphics/SVG/1.1/DTD/svg11.dtd">
<!-- Generated by graphviz version 2.40.1 (20161225.0304)
 -->
<!-- Title: Fweelin::getABUFS Pages: 1 -->
<svg width="537pt" height="116pt"
 viewBox="0.00 0.00 537.00 115.50" xmlns="http://www.w3.org/2000/svg" xmlns:xlink="http://www.w3.org/1999/xlink">
<g id="graph0" class="graph" transform="scale(1 1) rotate(0) translate(4 111.5)">
<title>Fweelin::getABUFS</title>
<polygon fill="#ffffff" stroke="transparent" points="-4,4 -4,-111.5 533,-111.5 533,4 -4,4"/>
<!-- Node25 -->
<g id="node1" class="node">
<title>Node25</title>
<polygon fill="#bfbfbf" stroke="#000000" points="0,-50 0,-69 108,-69 108,-50 0,-50"/>
<text text-anchor="middle" x="54" y="-57" font-family="Helvetica,sans-Serif" font-size="10.00" fill="#000000">Fweelin::getABUFS</text>
</g>
<!-- Node26 -->
<g id="node2" class="node">
<title>Node26</title>
<g id="a_node2"><a xlink:href="classAudioIO.html#aa131b2f89b09eeb058f56676833bf2df" target="_top" xlink:title="AudioIO::process">
<polygon fill="#ffffff" stroke="#000000" points="159.5,-50 159.5,-69 257.5,-69 257.5,-50 159.5,-50"/>
<text text-anchor="middle" x="208.5" y="-57" font-family="Helvetica,sans-Serif" font-size="10.00" fill="#000000">AudioIO::process</text>
</a>
</g>
</g>
<!-- Node25&#45;&gt;Node26 -->
<g id="edge1" class="edge">
<title>Node25&#45;&gt;Node26</title>
<path fill="none" stroke="#191970" d="M118.3857,-59.5C132.0999,-59.5 146.3706,-59.5 159.403,-59.5"/>
<polygon fill="#191970" stroke="#191970" points="118.0366,-56.0001 108.0366,-59.5 118.0366,-63.0001 118.0366,-56.0001"/>
</g>
<!-- Node27 -->
<g id="node3" class="node">
<title>Node27</title>
<g id="a_node3"><a xlink:href="classAudioIO.html#a1e4157d1900df901a60d5a2260d7509c" target="_top" xlink:title="AudioIO::open">
<polygon fill="#ffffff" stroke="#000000" points="309,-88 309,-107 394,-107 394,-88 309,-88"/>
<text text-anchor="middle" x="351.5" y="-95" font-family="Helvetica,sans-Serif" font-size="10.00" fill="#000000">AudioIO::open</text>
</a>
</g>
</g>
<!-- Node25&#45;&gt;Node27 -->
<g id="edge5" class="edge">
<title>Node25&#45;&gt;Node27</title>
<path fill="none" stroke="#191970" d="M104.2384,-71.188C117.143,-73.892 131.0417,-76.5457 144,-78.5 200.6963,-87.0505 266.7286,-92.2964 308.8027,-95.0521"/>
<polygon fill="#191970" stroke="#191970" points="104.651,-67.697 94.1393,-69.0212 103.1825,-74.5412 104.651,-67.697"/>
</g>
<!-- Node29 -->
<g id="node5" class="node">
<title>Node29</title>
<g id="a_node5"><a xlink:href="classPassthroughProcessor.html#a0fc1ce3afffa11bf7d0e8a36fdc55fcb" target="_top" xlink:title="PassthroughProcessor\l::PassthroughProcessor">
<polygon fill="#ffffff" stroke="#000000" points="144,-.5 144,-30.5 273,-30.5 273,-.5 144,-.5"/>
<text text-anchor="start" x="152" y="-18.5" font-family="Helvetica,sans-Serif" font-size="10.00" fill="#000000">PassthroughProcessor</text>
<text text-anchor="middle" x="208.5" y="-7.5" font-family="Helvetica,sans-Serif" font-size="10.00" fill="#000000">::PassthroughProcessor</text>
</a>
</g>
</g>
<!-- Node25&#45;&gt;Node29 -->
<g id="edge6" class="edge">
<title>Node25&#45;&gt;Node29</title>
<path fill="none" stroke="#191970" d="M97.2311,-47.1882C115.3414,-42.0306 136.5689,-35.9852 155.6,-30.5654"/>
<polygon fill="#191970" stroke="#191970" points="96.1831,-43.8474 87.5242,-49.9527 98.1005,-50.5798 96.1831,-43.8474"/>
</g>
<!-- Node26&#45;&gt;Node27 -->
<g id="edge2" class="edge">
<title>Node26&#45;&gt;Node27</title>
<path fill="none" stroke="#191970" d="M254.3133,-71.6742C274.0871,-76.9287 296.8838,-82.9866 315.4266,-87.9141"/>
<polygon fill="#191970" stroke="#191970" points="255.1484,-68.2747 244.5849,-69.089 253.3506,-75.0399 255.1484,-68.2747"/>
</g>
<!-- Node28 -->
<g id="node4" class="node">
<title>Node28</title>
<g id="a_node4"><a xlink:href="classAudioIO.html#a012ce924f59ced78f2fac75e6e33b55c" target="_top" xlink:title="AudioIO::AudioIO">
<polygon fill="#ffffff" stroke="#000000" points="430,-69 430,-88 529,-88 529,-69 430,-69"/>
<text text-anchor="middle" x="479.5" y="-76" font-family="Helvetica,sans-Serif" font-size="10.00" fill="#000000">AudioIO::AudioIO</text>
</a>
</g>
</g>
<!-- Node26&#45;&gt;Node28 -->
<g id="edge4" class="edge">
<title>Node26&#45;&gt;Node28</title>
<path fill="none" stroke="#191970" d="M267.6245,-63.6453C316.1657,-67.0485 384.126,-71.8133 429.8733,-75.0206"/>
<polygon fill="#191970" stroke="#191970" points="267.7964,-60.1488 257.5761,-62.9408 267.3067,-67.1317 267.7964,-60.1488"/>
</g>
<!-- Node27&#45;&gt;Node28 -->
<g id="edge3" class="edge">
<title>Node27&#45;&gt;Node28</title>
<path fill="none" stroke="#191970" d="M404.0252,-89.7033C412.6053,-88.4297 421.4699,-87.1138 429.9747,-85.8514"/>
<polygon fill="#191970" stroke="#191970" points="403.4998,-86.2428 394.1221,-91.1733 404.5277,-93.167 403.4998,-86.2428"/>
</g>
</g>
</svg>
