<?xml version="1.0" encoding="UTF-8" standalone="no"?>
<!DOCTYPE svg PUBLIC "-//W3C//DTD SVG 1.1//EN"
 "http://www.w3.org/Graphics/SVG/1.1/DTD/svg11.dtd">
<!-- Generated by graphviz version 2.40.1 (20161225.0304)
 -->
<!-- Title: Fweelin::getMIDI Pages: 1 -->
<svg width="823pt" height="218pt"
 viewBox="0.00 0.00 823.00 218.00" xmlns="http://www.w3.org/2000/svg" xmlns:xlink="http://www.w3.org/1999/xlink">
<g id="graph0" class="graph" transform="scale(1 1) rotate(0) translate(4 214)">
<title>Fweelin::getMIDI</title>
<polygon fill="#ffffff" stroke="transparent" points="-4,4 -4,-214 819,-214 819,4 -4,4"/>
<!-- Node354 -->
<g id="node1" class="node">
<title>Node354</title>
<polygon fill="#bfbfbf" stroke="#000000" points="0,-76.5 0,-95.5 98,-95.5 98,-76.5 0,-76.5"/>
<text text-anchor="middle" x="49" y="-83.5" font-family="Helvetica,sans-Serif" font-size="10.00" fill="#000000">Fweelin::getMIDI</text>
</g>
<!-- Node355 -->
<g id="node2" class="node">
<title>Node355</title>
<g id="a_node2"><a xlink:href="classFweelinMac.html#a9c6e892f28fd965f628c826f36eb80de" target="_top" xlink:title="FweelinMac::SetMIDIInput">
<polygon fill="#ffffff" stroke="#000000" points="134,-177.5 134,-196.5 276,-196.5 276,-177.5 134,-177.5"/>
<text text-anchor="middle" x="205" y="-184.5" font-family="Helvetica,sans-Serif" font-size="10.00" fill="#000000">FweelinMac::SetMIDIInput</text>
</a>
</g>
</g>
<!-- Node354&#45;&gt;Node355 -->
<g id="edge1" class="edge">
<title>Node354&#45;&gt;Node355</title>
<path fill="none" stroke="#191970" d="M66.821,-102.7761C83.3432,-117.7482 109.0651,-139.621 134,-155 148.3847,-163.872 165.6495,-171.7093 179.5523,-177.4072"/>
<polygon fill="#191970" stroke="#191970" points="68.8012,-99.842 59.0723,-95.6466 64.0615,-104.9932 68.8012,-99.842"/>
</g>
<!-- Node357 -->
<g id="node4" class="node">
<title>Node357</title>
<g id="a_node4"><a xlink:href="classPatchBrowser.html#a90246446ed1a2650a2a7555f5d76c653" target="_top" xlink:title="PatchBrowser::SetMIDIFor\lPatch">
<polygon fill="#ffffff" stroke="#000000" points="134.5,-115 134.5,-145 275.5,-145 275.5,-115 134.5,-115"/>
<text text-anchor="start" x="142.5" y="-133" font-family="Helvetica,sans-Serif" font-size="10.00" fill="#000000">PatchBrowser::SetMIDIFor</text>
<text text-anchor="middle" x="205" y="-122" font-family="Helvetica,sans-Serif" font-size="10.00" fill="#000000">Patch</text>
</a>
</g>
</g>
<!-- Node354&#45;&gt;Node357 -->
<g id="edge3" class="edge">
<title>Node354&#45;&gt;Node357</title>
<path fill="none" stroke="#191970" d="M92.6508,-98.3118C110.937,-103.4694 132.3705,-109.5148 151.5864,-114.9346"/>
<polygon fill="#191970" stroke="#191970" points="93.4243,-94.8934 82.8497,-95.5473 91.524,-101.6306 93.4243,-94.8934"/>
</g>
<!-- Node360 -->
<g id="node7" class="node">
<title>Node360</title>
<g id="a_node7"><a xlink:href="classLoopManager.html#a4aada2d07b7ce0a67a8119ece4805966" target="_top" xlink:title="LoopManager::ReceiveEvent">
<polygon fill="#ffffff" stroke="#000000" points="661,-38.5 661,-57.5 815,-57.5 815,-38.5 661,-38.5"/>
<text text-anchor="middle" x="738" y="-45.5" font-family="Helvetica,sans-Serif" font-size="10.00" fill="#000000">LoopManager::ReceiveEvent</text>
</a>
</g>
</g>
<!-- Node354&#45;&gt;Node360 -->
<g id="edge6" class="edge">
<title>Node354&#45;&gt;Node360</title>
<path fill="none" stroke="#191970" d="M108.0413,-85.1289C212.4669,-83.2339 436.5208,-77.5762 625,-62 639.0861,-60.8359 654.1186,-59.23 668.47,-57.5198"/>
<polygon fill="#191970" stroke="#191970" points="107.9496,-81.6299 98.0129,-85.306 108.0732,-88.6288 107.9496,-81.6299"/>
</g>
<!-- Node361 -->
<g id="node8" class="node">
<title>Node361</title>
<g id="a_node8"><a xlink:href="classPulse.html#aec20778ec5fcc2a6cefed47add36272f" target="_top" xlink:title="Pulse::SetMIDIClock">
<polygon fill="#ffffff" stroke="#000000" points="148.5,-38.5 148.5,-57.5 261.5,-57.5 261.5,-38.5 148.5,-38.5"/>
<text text-anchor="middle" x="205" y="-45.5" font-family="Helvetica,sans-Serif" font-size="10.00" fill="#000000">Pulse::SetMIDIClock</text>
</a>
</g>
</g>
<!-- Node354&#45;&gt;Node361 -->
<g id="edge7" class="edge">
<title>Node354&#45;&gt;Node361</title>
<path fill="none" stroke="#191970" d="M98.1317,-74.032C119.9927,-68.7069 145.3761,-62.5238 165.9177,-57.5201"/>
<polygon fill="#191970" stroke="#191970" points="97.2529,-70.6437 88.3654,-76.411 98.9097,-77.4448 97.2529,-70.6437"/>
</g>
<!-- Node365 -->
<g id="node12" class="node">
<title>Node365</title>
<g id="a_node12"><a xlink:href="classPulse.html#adf28cef50c1f7543db7171b67126c38f" target="_top" xlink:title="Pulse::process">
<polygon fill="#ffffff" stroke="#000000" points="162,-.5 162,-19.5 248,-19.5 248,-.5 162,-.5"/>
<text text-anchor="middle" x="205" y="-7.5" font-family="Helvetica,sans-Serif" font-size="10.00" fill="#000000">Pulse::process</text>
</a>
</g>
</g>
<!-- Node354&#45;&gt;Node365 -->
<g id="edge13" class="edge">
<title>Node354&#45;&gt;Node365</title>
<path fill="none" stroke="#191970" d="M68.9504,-69.8399C85.5015,-57.141 110.1105,-39.8435 134,-29 142.7144,-25.0445 152.4167,-21.7759 161.78,-19.1312"/>
<polygon fill="#191970" stroke="#191970" points="66.3528,-67.4288 60.6402,-76.3516 70.6703,-72.9388 66.3528,-67.4288"/>
</g>
<!-- Node356 -->
<g id="node3" class="node">
<title>Node356</title>
<g id="a_node3"><a xlink:href="interfaceSDLMain.html#a4eb59c3526cd5c89162332b6e1168f59" target="_top" xlink:title="&#45;[SDLMain setMIDIInput:]">
<polygon fill="#ffffff" stroke="#000000" points="316.5,-190.5 316.5,-209.5 453.5,-209.5 453.5,-190.5 316.5,-190.5"/>
<text text-anchor="middle" x="385" y="-197.5" font-family="Helvetica,sans-Serif" font-size="10.00" fill="#000000">&#45;[SDLMain setMIDIInput:]</text>
</a>
</g>
</g>
<!-- Node355&#45;&gt;Node356 -->
<g id="edge2" class="edge">
<title>Node355&#45;&gt;Node356</title>
<path fill="none" stroke="#191970" d="M286.1786,-192.8629C296.2854,-193.5928 306.5421,-194.3336 316.4322,-195.0479"/>
<polygon fill="#191970" stroke="#191970" points="286.3669,-189.3675 276.1408,-192.1379 285.8626,-196.3493 286.3669,-189.3675"/>
</g>
<!-- Node358 -->
<g id="node5" class="node">
<title>Node358</title>
<g id="a_node5"><a xlink:href="classFweelin.html#acacaa80535c0688358984d2070fedb71" target="_top" xlink:title="Fweelin::ItemSelected">
<polygon fill="#ffffff" stroke="#000000" points="322.5,-152.5 322.5,-171.5 447.5,-171.5 447.5,-152.5 322.5,-152.5"/>
<text text-anchor="middle" x="385" y="-159.5" font-family="Helvetica,sans-Serif" font-size="10.00" fill="#000000">Fweelin::ItemSelected</text>
</a>
</g>
</g>
<!-- Node357&#45;&gt;Node358 -->
<g id="edge4" class="edge">
<title>Node357&#45;&gt;Node358</title>
<path fill="none" stroke="#191970" d="M285.7516,-144.3558C301.2741,-147.1154 317.1675,-149.9409 331.5584,-152.4993"/>
<polygon fill="#191970" stroke="#191970" points="286.0824,-140.8598 275.6241,-142.5554 284.8571,-147.7518 286.0824,-140.8598"/>
</g>
<!-- Node359 -->
<g id="node6" class="node">
<title>Node359</title>
<g id="a_node6"><a xlink:href="classMidiIO.html#a222509803679fcf4bcb7b4b4a34cf0cd" target="_top" xlink:title="MidiIO::activate">
<polygon fill="#ffffff" stroke="#000000" points="338.5,-114.5 338.5,-133.5 431.5,-133.5 431.5,-114.5 338.5,-114.5"/>
<text text-anchor="middle" x="385" y="-121.5" font-family="Helvetica,sans-Serif" font-size="10.00" fill="#000000">MidiIO::activate</text>
</a>
</g>
</g>
<!-- Node357&#45;&gt;Node359 -->
<g id="edge5" class="edge">
<title>Node357&#45;&gt;Node359</title>
<path fill="none" stroke="#191970" d="M285.8454,-127.3052C303.8414,-126.7053 322.3306,-126.089 338.395,-125.5535"/>
<polygon fill="#191970" stroke="#191970" points="285.502,-123.8146 275.6241,-127.6459 285.7352,-130.8107 285.502,-123.8146"/>
</g>
<!-- Node362 -->
<g id="node9" class="node">
<title>Node362</title>
<g id="a_node9"><a xlink:href="classLoopManager.html#ab79aef15f1e783de1ab6827378bea274" target="_top" xlink:title="LoopManager::SelectPulse">
<polygon fill="#ffffff" stroke="#000000" points="313,-38.5 313,-57.5 457,-57.5 457,-38.5 313,-38.5"/>
<text text-anchor="middle" x="385" y="-45.5" font-family="Helvetica,sans-Serif" font-size="10.00" fill="#000000">LoopManager::SelectPulse</text>
</a>
</g>
</g>
<!-- Node361&#45;&gt;Node362 -->
<g id="edge8" class="edge">
<title>Node361&#45;&gt;Node362</title>
<path fill="none" stroke="#191970" d="M271.9904,-48C285.328,-48 299.3883,-48 312.889,-48"/>
<polygon fill="#191970" stroke="#191970" points="271.9532,-44.5001 261.9531,-48 271.9531,-51.5001 271.9532,-44.5001"/>
</g>
<!-- Node364 -->
<g id="node11" class="node">
<title>Node364</title>
<g id="a_node11"><a xlink:href="classLoopManager.html#a705436ae811a121ed3285ab34b144bfe" target="_top" xlink:title="LoopManager::CreatePulse">
<polygon fill="#ffffff" stroke="#000000" points="312,-.5 312,-19.5 458,-19.5 458,-.5 312,-.5"/>
<text text-anchor="middle" x="385" y="-7.5" font-family="Helvetica,sans-Serif" font-size="10.00" fill="#000000">LoopManager::CreatePulse</text>
</a>
</g>
</g>
<!-- Node361&#45;&gt;Node364 -->
<g id="edge12" class="edge">
<title>Node361&#45;&gt;Node364</title>
<path fill="none" stroke="#191970" d="M260.331,-36.319C285.8574,-30.9301 315.7761,-24.6139 339.905,-19.5201"/>
<polygon fill="#191970" stroke="#191970" points="259.483,-32.9208 250.4216,-38.411 260.9289,-39.7699 259.483,-32.9208"/>
</g>
<!-- Node362&#45;&gt;Node360 -->
<g id="edge11" class="edge">
<title>Node362&#45;&gt;Node360</title>
<path fill="none" stroke="#191970" d="M467.5901,-48C526.0026,-48 603.776,-48 660.9178,-48"/>
<polygon fill="#191970" stroke="#191970" points="467.2867,-44.5001 457.2866,-48 467.2866,-51.5001 467.2867,-44.5001"/>
</g>
<!-- Node363 -->
<g id="node10" class="node">
<title>Node363</title>
<g id="a_node10"><a xlink:href="classLoopManager.html#a67c6f44d33880b35c875a8e6ea8babac" target="_top" xlink:title="LoopManager::TapPulse">
<polygon fill="#ffffff" stroke="#000000" points="494,-.5 494,-19.5 625,-19.5 625,-.5 494,-.5"/>
<text text-anchor="middle" x="559.5" y="-7.5" font-family="Helvetica,sans-Serif" font-size="10.00" fill="#000000">LoopManager::TapPulse</text>
</a>
</g>
</g>
<!-- Node362&#45;&gt;Node363 -->
<g id="edge9" class="edge">
<title>Node362&#45;&gt;Node363</title>
<path fill="none" stroke="#191970" d="M438.9691,-36.2474C463.6433,-30.8742 492.4948,-24.5914 515.7829,-19.5201"/>
<polygon fill="#191970" stroke="#191970" points="438.06,-32.8633 429.0337,-38.411 439.5495,-39.703 438.06,-32.8633"/>
</g>
<!-- Node363&#45;&gt;Node360 -->
<g id="edge10" class="edge">
<title>Node363&#45;&gt;Node360</title>
<path fill="none" stroke="#191970" d="M614.3699,-21.681C639.6836,-27.0699 669.3529,-33.3861 693.2808,-38.4799"/>
<polygon fill="#191970" stroke="#191970" points="615.0527,-18.248 604.5431,-19.589 613.5951,-25.0946 615.0527,-18.248"/>
</g>
</g>
</svg>
