<?xml version="1.0" encoding="UTF-8" standalone="no"?>
<!DOCTYPE svg PUBLIC "-//W3C//DTD SVG 1.1//EN"
 "http://www.w3.org/Graphics/SVG/1.1/DTD/svg11.dtd">
<!-- Generated by graphviz version 2.40.1 (20161225.0304)
 -->
<!-- Title: Preallocated::GetMgr Pages: 1 -->
<svg width="516pt" height="39pt"
 viewBox="0.00 0.00 516.00 39.00" xmlns="http://www.w3.org/2000/svg" xmlns:xlink="http://www.w3.org/1999/xlink">
<g id="graph0" class="graph" transform="scale(1 1) rotate(0) translate(4 35)">
<title>Preallocated::GetMgr</title>
<polygon fill="#ffffff" stroke="transparent" points="-4,4 -4,-35 512,-35 512,4 -4,4"/>
<!-- Node5 -->
<g id="node1" class="node">
<title>Node5</title>
<polygon fill="#bfbfbf" stroke="#000000" points="0,-6 0,-25 119,-25 119,-6 0,-6"/>
<text text-anchor="middle" x="59.5" y="-13" font-family="Helvetica,sans-Serif" font-size="10.00" fill="#000000">Preallocated::GetMgr</text>
</g>
<!-- Node6 -->
<g id="node2" class="node">
<title>Node6</title>
<g id="a_node2"><a xlink:href="classEventManager.html#ab363d5886ccb130eaab896bf0f7faebb" target="_top" xlink:title="EventManager::run_dispatch\l_thread">
<polygon fill="#ffffff" stroke="#000000" points="155,-.5 155,-30.5 310,-30.5 310,-.5 155,-.5"/>
<text text-anchor="start" x="163" y="-18.5" font-family="Helvetica,sans-Serif" font-size="10.00" fill="#000000">EventManager::run_dispatch</text>
<text text-anchor="middle" x="232.5" y="-7.5" font-family="Helvetica,sans-Serif" font-size="10.00" fill="#000000">_thread</text>
</a>
</g>
</g>
<!-- Node5&#45;&gt;Node6 -->
<g id="edge1" class="edge">
<title>Node5&#45;&gt;Node6</title>
<path fill="none" stroke="#191970" d="M129.1937,-15.5C137.6294,-15.5 146.2868,-15.5 154.8282,-15.5"/>
<polygon fill="#191970" stroke="#191970" points="129.0368,-12.0001 119.0368,-15.5 129.0368,-19.0001 129.0368,-12.0001"/>
</g>
<!-- Node7 -->
<g id="node3" class="node">
<title>Node7</title>
<g id="a_node3"><a xlink:href="classEventManager.html#a89099b22114f158b5c530edfea52371d" target="_top" xlink:title="EventManager::EventManager">
<polygon fill="#ffffff" stroke="#000000" points="346,-6 346,-25 508,-25 508,-6 346,-6"/>
<text text-anchor="middle" x="427" y="-13" font-family="Helvetica,sans-Serif" font-size="10.00" fill="#000000">EventManager::EventManager</text>
</a>
</g>
</g>
<!-- Node6&#45;&gt;Node7 -->
<g id="edge2" class="edge">
<title>Node6&#45;&gt;Node7</title>
<path fill="none" stroke="#191970" d="M320.4773,-15.5C328.9473,-15.5 337.5121,-15.5 345.9114,-15.5"/>
<polygon fill="#191970" stroke="#191970" points="320.2101,-12.0001 310.2101,-15.5 320.21,-19.0001 320.2101,-12.0001"/>
</g>
</g>
</svg>
