<?xml version="1.0" encoding="UTF-8" standalone="no"?>
<!DOCTYPE svg PUBLIC "-//W3C//DTD SVG 1.1//EN"
 "http://www.w3.org/Graphics/SVG/1.1/DTD/svg11.dtd">
<!-- Generated by graphviz version 2.40.1 (20161225.0304)
 -->
<!-- Title: BlockManager::StripeBlockOff Pages: 1 -->
<svg width="520pt" height="39pt"
 viewBox="0.00 0.00 520.00 39.00" xmlns="http://www.w3.org/2000/svg" xmlns:xlink="http://www.w3.org/1999/xlink">
<g id="graph0" class="graph" transform="scale(1 1) rotate(0) translate(4 35)">
<title>BlockManager::StripeBlockOff</title>
<polygon fill="#ffffff" stroke="transparent" points="-4,4 -4,-35 516,-35 516,4 -4,4"/>
<!-- Node178 -->
<g id="node1" class="node">
<title>Node178</title>
<polygon fill="#bfbfbf" stroke="#000000" points="0,-6 0,-25 161,-25 161,-6 0,-6"/>
<text text-anchor="middle" x="80.5" y="-13" font-family="Helvetica,sans-Serif" font-size="10.00" fill="#000000">BlockManager::StripeBlockOff</text>
</g>
<!-- Node179 -->
<g id="node2" class="node">
<title>Node179</title>
<g id="a_node2"><a xlink:href="classBlockManager.html#a5566277a4ec6c8a5347470433843b998" target="_top" xlink:title="BlockManager::DelHiManager">
<polygon fill="#ffffff" stroke="#000000" points="197,-6 197,-25 358,-25 358,-6 197,-6"/>
<text text-anchor="middle" x="277.5" y="-13" font-family="Helvetica,sans-Serif" font-size="10.00" fill="#000000">BlockManager::DelHiManager</text>
</a>
</g>
</g>
<!-- Node178&#45;&gt;Node179 -->
<g id="edge1" class="edge">
<title>Node178&#45;&gt;Node179</title>
<path fill="none" stroke="#191970" d="M161.1959,-15.5C169.6733,-15.5 178.3327,-15.5 186.9115,-15.5"/>
<polygon fill="#191970" stroke="#191970" points="186.9297,-19.0001 196.9296,-15.5 186.9296,-12.0001 186.9297,-19.0001"/>
</g>
<!-- Node180 -->
<g id="node3" class="node">
<title>Node180</title>
<g id="a_node3"><a xlink:href="classHiPriManagedChain.html#a65066950fc82d852fd81af83cf558b4f" target="_top" xlink:title="HiPriManagedChain::\lGetType">
<polygon fill="#ffffff" stroke="#000000" points="394,-.5 394,-30.5 512,-30.5 512,-.5 394,-.5"/>
<text text-anchor="start" x="402" y="-18.5" font-family="Helvetica,sans-Serif" font-size="10.00" fill="#000000">HiPriManagedChain::</text>
<text text-anchor="middle" x="453" y="-7.5" font-family="Helvetica,sans-Serif" font-size="10.00" fill="#000000">GetType</text>
</a>
</g>
</g>
<!-- Node179&#45;&gt;Node180 -->
<g id="edge2" class="edge">
<title>Node179&#45;&gt;Node180</title>
<path fill="none" stroke="#191970" d="M358.0589,-15.5C366.6433,-15.5 375.32,-15.5 383.7576,-15.5"/>
<polygon fill="#191970" stroke="#191970" points="383.9086,-19.0001 393.9086,-15.5 383.9086,-12.0001 383.9086,-19.0001"/>
</g>
</g>
</svg>
