<?xml version="1.0" encoding="UTF-8" standalone="no"?>
<!DOCTYPE svg PUBLIC "-//W3C//DTD SVG 1.1//EN"
 "http://www.w3.org/Graphics/SVG/1.1/DTD/svg11.dtd">
<!-- Generated by graphviz version 2.40.1 (20161225.0304)
 -->
<!-- Title: Pulse::round Pages: 1 -->
<svg width="831pt" height="104pt"
 viewBox="0.00 0.00 831.00 104.00" xmlns="http://www.w3.org/2000/svg" xmlns:xlink="http://www.w3.org/1999/xlink">
<g id="graph0" class="graph" transform="scale(1 1) rotate(0) translate(4 100)">
<title>Pulse::round</title>
<polygon fill="#ffffff" stroke="transparent" points="-4,4 -4,-100 827,-100 827,4 -4,4"/>
<!-- Node119 -->
<g id="node1" class="node">
<title>Node119</title>
<polygon fill="#bfbfbf" stroke="#000000" points="0,-38.5 0,-57.5 77,-57.5 77,-38.5 0,-38.5"/>
<text text-anchor="middle" x="38.5" y="-45.5" font-family="Helvetica,sans-Serif" font-size="10.00" fill="#000000">Pulse::round</text>
</g>
<!-- Node120 -->
<g id="node2" class="node">
<title>Node120</title>
<g id="a_node2"><a xlink:href="classPulse.html#ac23f657cca68747e251b1b927a11ba0f" target="_top" xlink:title="Pulse::QuantizeLength">
<polygon fill="#ffffff" stroke="#000000" points="113,-38.5 113,-57.5 238,-57.5 238,-38.5 113,-38.5"/>
<text text-anchor="middle" x="175.5" y="-45.5" font-family="Helvetica,sans-Serif" font-size="10.00" fill="#000000">Pulse::QuantizeLength</text>
</a>
</g>
</g>
<!-- Node119&#45;&gt;Node120 -->
<g id="edge1" class="edge">
<title>Node119&#45;&gt;Node120</title>
<path fill="none" stroke="#191970" d="M87.2737,-48C95.5743,-48 104.2974,-48 112.8956,-48"/>
<polygon fill="#191970" stroke="#191970" points="87.0268,-44.5001 77.0267,-48 87.0267,-51.5001 87.0268,-44.5001"/>
</g>
<!-- Node121 -->
<g id="node3" class="node">
<title>Node121</title>
<g id="a_node3"><a xlink:href="classLoopManager.html#ada4d7a3e7f2d1a07b295aae79c1c5489" target="_top" xlink:title="LoopManager::GetRoundedLength">
<polygon fill="#ffffff" stroke="#000000" points="274,-76.5 274,-95.5 454,-95.5 454,-76.5 274,-76.5"/>
<text text-anchor="middle" x="364" y="-83.5" font-family="Helvetica,sans-Serif" font-size="10.00" fill="#000000">LoopManager::GetRoundedLength</text>
</a>
</g>
</g>
<!-- Node120&#45;&gt;Node121 -->
<g id="edge2" class="edge">
<title>Node120&#45;&gt;Node121</title>
<path fill="none" stroke="#191970" d="M233.0893,-59.6095C259.8983,-65.014 291.3954,-71.3635 316.7755,-76.4799"/>
<polygon fill="#191970" stroke="#191970" points="233.561,-56.1343 223.0665,-57.589 232.1776,-62.9962 233.561,-56.1343"/>
</g>
<!-- Node125 -->
<g id="node7" class="node">
<title>Node125</title>
<g id="a_node7"><a xlink:href="classLoopManager.html#aa0d9e2fff052bf7776c1146f3f2a452e" target="_top" xlink:title="LoopManager::GetPos">
<polygon fill="#ffffff" stroke="#000000" points="303,-38.5 303,-57.5 425,-57.5 425,-38.5 303,-38.5"/>
<text text-anchor="middle" x="364" y="-45.5" font-family="Helvetica,sans-Serif" font-size="10.00" fill="#000000">LoopManager::GetPos</text>
</a>
</g>
</g>
<!-- Node120&#45;&gt;Node125 -->
<g id="edge6" class="edge">
<title>Node120&#45;&gt;Node125</title>
<path fill="none" stroke="#191970" d="M248.2084,-48C266.2896,-48 285.4885,-48 302.9454,-48"/>
<polygon fill="#191970" stroke="#191970" points="248.006,-44.5001 238.0059,-48 248.0059,-51.5001 248.006,-44.5001"/>
</g>
<!-- Node126 -->
<g id="node8" class="node">
<title>Node126</title>
<g id="a_node8"><a xlink:href="classLoopManager.html#a306ffe72c9623e33cad280ec3609c359" target="_top" xlink:title="LoopManager::SetupSaveLoop">
<polygon fill="#ffffff" stroke="#000000" points="282.5,-.5 282.5,-19.5 445.5,-19.5 445.5,-.5 282.5,-.5"/>
<text text-anchor="middle" x="364" y="-7.5" font-family="Helvetica,sans-Serif" font-size="10.00" fill="#000000">LoopManager::SetupSaveLoop</text>
</a>
</g>
</g>
<!-- Node120&#45;&gt;Node126 -->
<g id="edge8" class="edge">
<title>Node120&#45;&gt;Node126</title>
<path fill="none" stroke="#191970" d="M233.0893,-36.3905C259.8983,-30.986 291.3954,-24.6365 316.7755,-19.5201"/>
<polygon fill="#191970" stroke="#191970" points="232.1776,-33.0038 223.0665,-38.411 233.561,-39.8657 232.1776,-33.0038"/>
</g>
<!-- Node122 -->
<g id="node4" class="node">
<title>Node122</title>
<g id="a_node4"><a xlink:href="classOSCClient.html#acbb974bf11667aa6fb48c111ae14a4fe" target="_top" xlink:title="OSCClient::SendPlayingLoops">
<polygon fill="#ffffff" stroke="#000000" points="490,-76.5 490,-95.5 650,-95.5 650,-76.5 490,-76.5"/>
<text text-anchor="middle" x="570" y="-83.5" font-family="Helvetica,sans-Serif" font-size="10.00" fill="#000000">OSCClient::SendPlayingLoops</text>
</a>
</g>
</g>
<!-- Node121&#45;&gt;Node122 -->
<g id="edge3" class="edge">
<title>Node121&#45;&gt;Node122</title>
<path fill="none" stroke="#191970" d="M464.1444,-86C472.7619,-86 481.4061,-86 489.8355,-86"/>
<polygon fill="#191970" stroke="#191970" points="464.055,-82.5001 454.0549,-86 464.0549,-89.5001 464.055,-82.5001"/>
</g>
<!-- Node124 -->
<g id="node6" class="node">
<title>Node124</title>
<g id="a_node6"><a xlink:href="classVideoIO.html#adca60a99be6e51d8af7ce2a32f92349a" target="_top" xlink:title="VideoIO::DrawLoop">
<polygon fill="#ffffff" stroke="#000000" points="515,-38.5 515,-57.5 625,-57.5 625,-38.5 515,-38.5"/>
<text text-anchor="middle" x="570" y="-45.5" font-family="Helvetica,sans-Serif" font-size="10.00" fill="#000000">VideoIO::DrawLoop</text>
</a>
</g>
</g>
<!-- Node121&#45;&gt;Node124 -->
<g id="edge5" class="edge">
<title>Node121&#45;&gt;Node124</title>
<path fill="none" stroke="#191970" d="M425.8982,-74.5819C455.3731,-69.1448 490.2197,-62.7168 518.2621,-57.5439"/>
<polygon fill="#191970" stroke="#191970" points="424.9157,-71.204 415.7166,-76.46 426.1856,-78.0878 424.9157,-71.204"/>
</g>
<!-- Node123 -->
<g id="node5" class="node">
<title>Node123</title>
<g id="a_node5"><a xlink:href="classOSCClient.html#a8b38ea5b76702f9e763daeb694091116" target="_top" xlink:title="OSCClient::ReceiveEvent">
<polygon fill="#ffffff" stroke="#000000" points="686,-76.5 686,-95.5 823,-95.5 823,-76.5 686,-76.5"/>
<text text-anchor="middle" x="754.5" y="-83.5" font-family="Helvetica,sans-Serif" font-size="10.00" fill="#000000">OSCClient::ReceiveEvent</text>
</a>
</g>
</g>
<!-- Node122&#45;&gt;Node123 -->
<g id="edge4" class="edge">
<title>Node122&#45;&gt;Node123</title>
<path fill="none" stroke="#191970" d="M660.1768,-86C668.7687,-86 677.3847,-86 685.7263,-86"/>
<polygon fill="#191970" stroke="#191970" points="660.1195,-82.5001 650.1195,-86 660.1194,-89.5001 660.1195,-82.5001"/>
</g>
<!-- Node125&#45;&gt;Node124 -->
<g id="edge7" class="edge">
<title>Node125&#45;&gt;Node124</title>
<path fill="none" stroke="#191970" d="M435.4491,-48C461.5029,-48 490.5379,-48 514.948,-48"/>
<polygon fill="#191970" stroke="#191970" points="435.2491,-44.5001 425.249,-48 435.249,-51.5001 435.2491,-44.5001"/>
</g>
<!-- Node127 -->
<g id="node9" class="node">
<title>Node127</title>
<g id="a_node9"><a xlink:href="classLoopManager.html#a00143be12c150c0a89c4f99c1e8d5e70" target="_top" xlink:title="LoopManager::GetWriteBlock">
<polygon fill="#ffffff" stroke="#000000" points="491,-.5 491,-19.5 649,-19.5 649,-.5 491,-.5"/>
<text text-anchor="middle" x="570" y="-7.5" font-family="Helvetica,sans-Serif" font-size="10.00" fill="#000000">LoopManager::GetWriteBlock</text>
</a>
</g>
</g>
<!-- Node126&#45;&gt;Node127 -->
<g id="edge9" class="edge">
<title>Node126&#45;&gt;Node127</title>
<path fill="none" stroke="#191970" d="M455.8704,-10C467.5028,-10 479.3267,-10 490.7394,-10"/>
<polygon fill="#191970" stroke="#191970" points="455.7126,-6.5001 445.7125,-10 455.7125,-13.5001 455.7126,-6.5001"/>
</g>
</g>
</svg>
