<?xml version="1.0" encoding="UTF-8" standalone="no"?>
<!DOCTYPE svg PUBLIC "-//W3C//DTD SVG 1.1//EN"
 "http://www.w3.org/Graphics/SVG/1.1/DTD/svg11.dtd">
<!-- Generated by graphviz version 2.40.1 (20161225.0304)
 -->
<!-- Title: Preallocated::RTDelete Pages: 1 -->
<svg width="1159pt" height="1171pt"
 viewBox="0.00 0.00 1159.00 1170.63" xmlns="http://www.w3.org/2000/svg" xmlns:xlink="http://www.w3.org/1999/xlink">
<g id="graph0" class="graph" transform="scale(1 1) rotate(0) translate(4 1166.6288)">
<title>Preallocated::RTDelete</title>
<polygon fill="#ffffff" stroke="transparent" points="-4,4 -4,-1166.6288 1155,-1166.6288 1155,4 -4,4"/>
<!-- Node26 -->
<g id="node1" class="node">
<title>Node26</title>
<polygon fill="#bfbfbf" stroke="#000000" points="0,-773.5 0,-792.5 128,-792.5 128,-773.5 0,-773.5"/>
<text text-anchor="middle" x="64" y="-780.5" font-family="Helvetica,sans-Serif" font-size="10.00" fill="#000000">Preallocated::RTDelete</text>
</g>
<!-- Node27 -->
<g id="node2" class="node">
<title>Node27</title>
<g id="a_node2"><a xlink:href="classBlockReadManager.html#af12804c61f944904eedf8c9edf5cd3bd" target="_top" xlink:title="BlockReadManager::Start">
<polygon fill="#ffffff" stroke="#000000" points="811,-1085.5 811,-1104.5 950,-1104.5 950,-1085.5 811,-1085.5"/>
<text text-anchor="middle" x="880.5" y="-1092.5" font-family="Helvetica,sans-Serif" font-size="10.00" fill="#000000">BlockReadManager::Start</text>
</a>
</g>
</g>
<!-- Node26&#45;&gt;Node27 -->
<g id="edge1" class="edge">
<title>Node26&#45;&gt;Node27</title>
<path fill="none" stroke="#191970" d="M67.9709,-802.4852C80.3402,-861.1423 119.9939,-1034.1113 164,-1068 378.5103,-1233.1921 745.7162,-1137.1763 851.3132,-1104.5603"/>
<polygon fill="#191970" stroke="#191970" points="71.3858,-801.7156 65.9254,-792.6362 64.5321,-803.139 71.3858,-801.7156"/>
</g>
<!-- Node29 -->
<g id="node4" class="node">
<title>Node29</title>
<g id="a_node4"><a xlink:href="classBED__MarkerPoints.html#a04b3a4befe381fde86811c635e498cfd" target="_top" xlink:title="BED_MarkerPoints::\l~BED_MarkerPoints">
<polygon fill="#ffffff" stroke="#000000" points="202.5,-484 202.5,-514 316.5,-514 316.5,-484 202.5,-484"/>
<text text-anchor="start" x="210.5" y="-502" font-family="Helvetica,sans-Serif" font-size="10.00" fill="#000000">BED_MarkerPoints::</text>
<text text-anchor="middle" x="259.5" y="-491" font-family="Helvetica,sans-Serif" font-size="10.00" fill="#000000">~BED_MarkerPoints</text>
</a>
</g>
</g>
<!-- Node26&#45;&gt;Node29 -->
<g id="edge3" class="edge">
<title>Node26&#45;&gt;Node29</title>
<path fill="none" stroke="#191970" d="M65.6502,-763.1579C70.7748,-714.6782 90.7921,-589.4073 164,-524 174.6079,-514.5225 188.3759,-508.5626 202.1399,-504.8356"/>
<polygon fill="#191970" stroke="#191970" points="62.1514,-762.9791 64.6851,-773.2665 69.1197,-763.6444 62.1514,-762.9791"/>
</g>
<!-- Node30 -->
<g id="node5" class="node">
<title>Node30</title>
<g id="a_node5"><a xlink:href="classAudioBlock.html#a1577ddd5048ce06dbddfae7702b35c81" target="_top" xlink:title="AudioBlock::ChopChain">
<polygon fill="#ffffff" stroke="#000000" points="194.5,-1039.5 194.5,-1058.5 324.5,-1058.5 324.5,-1039.5 194.5,-1039.5"/>
<text text-anchor="middle" x="259.5" y="-1046.5" font-family="Helvetica,sans-Serif" font-size="10.00" fill="#000000">AudioBlock::ChopChain</text>
</a>
</g>
</g>
<!-- Node26&#45;&gt;Node30 -->
<g id="edge4" class="edge">
<title>Node26&#45;&gt;Node30</title>
<path fill="none" stroke="#191970" d="M66.8774,-802.7282C74.4193,-847.373 98.8802,-956.9245 164,-1017 175.4384,-1027.5524 190.4661,-1034.6352 205.205,-1039.3855"/>
<polygon fill="#191970" stroke="#191970" points="70.2978,-801.9498 65.2768,-792.6203 63.384,-803.0446 70.2978,-801.9498"/>
</g>
<!-- Node39 -->
<g id="node11" class="node">
<title>Node39</title>
<g id="a_node11"><a xlink:href="classAudioBlock.html#adeb97443eade7fd99e54dc15a05dfaef" target="_top" xlink:title="AudioBlock::DeleteChain">
<polygon fill="#ffffff" stroke="#000000" points="409,-969.5 409,-988.5 546,-988.5 546,-969.5 409,-969.5"/>
<text text-anchor="middle" x="477.5" y="-976.5" font-family="Helvetica,sans-Serif" font-size="10.00" fill="#000000">AudioBlock::DeleteChain</text>
</a>
</g>
</g>
<!-- Node26&#45;&gt;Node39 -->
<g id="edge12" class="edge">
<title>Node26&#45;&gt;Node39</title>
<path fill="none" stroke="#191970" d="M72.0425,-802.2822C85.93,-833.0068 117.464,-892.5967 164,-922 238.4755,-969.0566 341.6086,-979.6256 408.9253,-980.8931"/>
<polygon fill="#191970" stroke="#191970" points="75.0761,-800.4825 67.8706,-792.7152 68.6596,-803.2806 75.0761,-800.4825"/>
</g>
<!-- Node40 -->
<g id="node12" class="node">
<title>Node40</title>
<g id="a_node12"><a xlink:href="classLoopManager.html#a332a9868980750f28fbf0e05b2336174" target="_top" xlink:title="LoopManager::DeleteLoop">
<polygon fill="#ffffff" stroke="#000000" points="610.5,-817.5 610.5,-836.5 753.5,-836.5 753.5,-817.5 610.5,-817.5"/>
<text text-anchor="middle" x="682" y="-824.5" font-family="Helvetica,sans-Serif" font-size="10.00" fill="#000000">LoopManager::DeleteLoop</text>
</a>
</g>
</g>
<!-- Node26&#45;&gt;Node40 -->
<g id="edge28" class="edge">
<title>Node26&#45;&gt;Node40</title>
<path fill="none" stroke="#191970" d="M136.3385,-793.8355C145.6332,-795.0193 155.0319,-796.114 164,-797 322.8955,-812.6977 510.084,-821.0396 610.2129,-824.6864"/>
<polygon fill="#191970" stroke="#191970" points="136.689,-790.3516 126.3188,-792.5216 135.7788,-797.2922 136.689,-790.3516"/>
</g>
<!-- Node44 -->
<g id="node16" class="node">
<title>Node44</title>
<g id="a_node16"><a xlink:href="classAudioBlock.html#aa9e0bc3fa297c7c97aedda16f240108f" target="_top" xlink:title="AudioBlock::HackTotalLengthBy">
<polygon fill="#ffffff" stroke="#000000" points="174,-988.5 174,-1007.5 345,-1007.5 345,-988.5 174,-988.5"/>
<text text-anchor="middle" x="259.5" y="-995.5" font-family="Helvetica,sans-Serif" font-size="10.00" fill="#000000">AudioBlock::HackTotalLengthBy</text>
</a>
</g>
</g>
<!-- Node26&#45;&gt;Node44 -->
<g id="edge19" class="edge">
<title>Node26&#45;&gt;Node44</title>
<path fill="none" stroke="#191970" d="M69.5314,-802.5194C80.9952,-839.5182 110.8182,-920.1565 164,-965 177.1424,-976.0818 194.2177,-983.5151 210.2889,-988.4693"/>
<polygon fill="#191970" stroke="#191970" points="72.8793,-801.4982 66.6685,-792.9148 66.171,-803.4979 72.8793,-801.4982"/>
</g>
<!-- Node46 -->
<g id="node18" class="node">
<title>Node46</title>
<g id="a_node18"><a xlink:href="classStripeBlockManager.html#a0e646e1141635492c59ee6582ffabbe9" target="_top" xlink:title="StripeBlockManager\l::Manage">
<polygon fill="#ffffff" stroke="#000000" points="202.5,-435 202.5,-465 316.5,-465 316.5,-435 202.5,-435"/>
<text text-anchor="start" x="210.5" y="-453" font-family="Helvetica,sans-Serif" font-size="10.00" fill="#000000">StripeBlockManager</text>
<text text-anchor="middle" x="259.5" y="-442" font-family="Helvetica,sans-Serif" font-size="10.00" fill="#000000">::Manage</text>
</a>
</g>
</g>
<!-- Node26&#45;&gt;Node46 -->
<g id="edge23" class="edge">
<title>Node26&#45;&gt;Node46</title>
<path fill="none" stroke="#191970" d="M67.791,-763.525C80.0574,-702.4252 120.4079,-516.1383 164,-475 174.4702,-465.1192 188.3514,-459.031 202.2779,-455.3103"/>
<polygon fill="#191970" stroke="#191970" points="64.3421,-762.9243 65.833,-773.4137 71.2088,-764.284 64.3421,-762.9243"/>
</g>
<!-- Node47 -->
<g id="node19" class="node">
<title>Node47</title>
<g id="a_node19"><a xlink:href="classBlockManager.html#a07b5a821c70151176fbf3db215dbba82" target="_top" xlink:title="BlockManager::run_manage\l_thread">
<polygon fill="#ffffff" stroke="#000000" points="183.5,-386 183.5,-416 335.5,-416 335.5,-386 183.5,-386"/>
<text text-anchor="start" x="191.5" y="-404" font-family="Helvetica,sans-Serif" font-size="10.00" fill="#000000">BlockManager::run_manage</text>
<text text-anchor="middle" x="259.5" y="-393" font-family="Helvetica,sans-Serif" font-size="10.00" fill="#000000">_thread</text>
</a>
</g>
</g>
<!-- Node26&#45;&gt;Node47 -->
<g id="edge24" class="edge">
<title>Node26&#45;&gt;Node47</title>
<path fill="none" stroke="#191970" d="M66.93,-763.1492C77.3161,-695.3901 114.4274,-474.7332 164,-426 169.622,-420.4732 176.3071,-416.1253 183.4917,-412.7113"/>
<polygon fill="#191970" stroke="#191970" points="63.4279,-762.901 65.3985,-773.311 70.3498,-763.9442 63.4279,-762.901"/>
</g>
<!-- Node49 -->
<g id="node21" class="node">
<title>Node49</title>
<g id="a_node21"><a xlink:href="classInputMatrix.html#a941629c2da3685c5379825be93413ed9" target="_top" xlink:title="InputMatrix::~InputMatrix">
<polygon fill="#ffffff" stroke="#000000" points="188.5,-347.5 188.5,-366.5 330.5,-366.5 330.5,-347.5 188.5,-347.5"/>
<text text-anchor="middle" x="259.5" y="-354.5" font-family="Helvetica,sans-Serif" font-size="10.00" fill="#000000">InputMatrix::~InputMatrix</text>
</a>
</g>
</g>
<!-- Node26&#45;&gt;Node49 -->
<g id="edge26" class="edge">
<title>Node26&#45;&gt;Node49</title>
<path fill="none" stroke="#191970" d="M66.1025,-763.2619C74.3486,-689.599 106.8698,-432.1617 164,-377 170.8243,-370.4109 179.2327,-365.7475 188.2058,-362.4826"/>
<polygon fill="#191970" stroke="#191970" points="62.5966,-763.1257 64.9874,-773.4473 69.555,-763.8876 62.5966,-763.1257"/>
</g>
<!-- Node50 -->
<g id="node22" class="node">
<title>Node50</title>
<g id="a_node22"><a xlink:href="classInputMatrix.html#a792ede8dc637e3d8e6c4aa8141596d18" target="_top" xlink:title="InputMatrix::CreateBinding">
<polygon fill="#ffffff" stroke="#000000" points="186,-309.5 186,-328.5 333,-328.5 333,-309.5 186,-309.5"/>
<text text-anchor="middle" x="259.5" y="-316.5" font-family="Helvetica,sans-Serif" font-size="10.00" fill="#000000">InputMatrix::CreateBinding</text>
</a>
</g>
</g>
<!-- Node26&#45;&gt;Node50 -->
<g id="edge27" class="edge">
<title>Node26&#45;&gt;Node50</title>
<path fill="none" stroke="#191970" d="M65.6592,-762.8942C72.5611,-684.2598 101.5993,-398.8806 164,-338 170.171,-331.9793 177.6734,-327.6035 185.7319,-324.456"/>
<polygon fill="#191970" stroke="#191970" points="62.1333,-763.0499 64.7698,-773.3115 69.1079,-763.6455 62.1333,-763.0499"/>
</g>
<!-- Node51 -->
<g id="node23" class="node">
<title>Node51</title>
<g id="a_node23"><a xlink:href="classRootProcessor.html#acb13a2a0320ef6b5a57ede966e468842" target="_top" xlink:title="RootProcessor::UpdateProcessors">
<polygon fill="#ffffff" stroke="#000000" points="170,-136.5 170,-155.5 349,-155.5 349,-136.5 170,-136.5"/>
<text text-anchor="middle" x="259.5" y="-143.5" font-family="Helvetica,sans-Serif" font-size="10.00" fill="#000000">RootProcessor::UpdateProcessors</text>
</a>
</g>
</g>
<!-- Node26&#45;&gt;Node51 -->
<g id="edge29" class="edge">
<title>Node26&#45;&gt;Node51</title>
<path fill="none" stroke="#191970" d="M65.5794,-763.4576C71.4936,-696.5617 95.6059,-471.4247 164,-300 187.5492,-240.9758 233.395,-179.2157 251.6884,-155.787"/>
<polygon fill="#191970" stroke="#191970" points="62.0907,-763.1772 64.7306,-773.4378 69.0655,-763.7704 62.0907,-763.1772"/>
</g>
<!-- Node53 -->
<g id="node25" class="node">
<title>Node53</title>
<g id="a_node25"><a xlink:href="classEventManager.html#ae53beeffe291f5bf2896cb42685b07b0" target="_top" xlink:title="EventManager::DeleteQueue">
<polygon fill="#ffffff" stroke="#000000" points="181.5,-893.5 181.5,-912.5 337.5,-912.5 337.5,-893.5 181.5,-893.5"/>
<text text-anchor="middle" x="259.5" y="-900.5" font-family="Helvetica,sans-Serif" font-size="10.00" fill="#000000">EventManager::DeleteQueue</text>
</a>
</g>
</g>
<!-- Node26&#45;&gt;Node53 -->
<g id="edge31" class="edge">
<title>Node26&#45;&gt;Node53</title>
<path fill="none" stroke="#191970" d="M77.4556,-800.6485C94.9914,-822.3946 127.7291,-858.9205 164,-879 175.4417,-885.3341 188.5732,-890.0258 201.3628,-893.4909"/>
<polygon fill="#191970" stroke="#191970" points="80.0407,-798.274 71.1038,-792.5835 74.5415,-802.6051 80.0407,-798.274"/>
</g>
<!-- Node56 -->
<g id="node28" class="node">
<title>Node56</title>
<g id="a_node28"><a xlink:href="classEventManager.html#a42550b5fb771dea0b93254ab602ed3ab" target="_top" xlink:title="EventManager::RemoveEvent">
<polygon fill="#ffffff" stroke="#000000" points="397.5,-855.5 397.5,-874.5 557.5,-874.5 557.5,-855.5 397.5,-855.5"/>
<text text-anchor="middle" x="477.5" y="-862.5" font-family="Helvetica,sans-Serif" font-size="10.00" fill="#000000">EventManager::RemoveEvent</text>
</a>
</g>
</g>
<!-- Node26&#45;&gt;Node56 -->
<g id="edge35" class="edge">
<title>Node26&#45;&gt;Node56</title>
<path fill="none" stroke="#191970" d="M84.7183,-798.7801C104.0832,-812.5781 134.3808,-831.8054 164,-841 240.7647,-864.8298 332.9414,-869.1864 397.4027,-868.5875"/>
<polygon fill="#191970" stroke="#191970" points="86.5262,-795.7664 76.3865,-792.6944 82.3974,-801.4191 86.5262,-795.7664"/>
</g>
<!-- Node58 -->
<g id="node30" class="node">
<title>Node58</title>
<g id="a_node30"><a xlink:href="classEventManager.html#ab363d5886ccb130eaab896bf0f7faebb" target="_top" xlink:title="EventManager::run_dispatch\l_thread">
<polygon fill="#ffffff" stroke="#000000" points="400,-768 400,-798 555,-798 555,-768 400,-768"/>
<text text-anchor="start" x="408" y="-786" font-family="Helvetica,sans-Serif" font-size="10.00" fill="#000000">EventManager::run_dispatch</text>
<text text-anchor="middle" x="477.5" y="-775" font-family="Helvetica,sans-Serif" font-size="10.00" fill="#000000">_thread</text>
</a>
</g>
</g>
<!-- Node26&#45;&gt;Node58 -->
<g id="edge39" class="edge">
<title>Node26&#45;&gt;Node58</title>
<path fill="none" stroke="#191970" d="M138.3041,-783C212.1115,-783 324.81,-783 399.7873,-783"/>
<polygon fill="#191970" stroke="#191970" points="138.1557,-779.5001 128.1557,-783 138.1556,-786.5001 138.1557,-779.5001"/>
</g>
<!-- Node60 -->
<g id="node32" class="node">
<title>Node60</title>
<g id="a_node32"><a xlink:href="classEventManager.html#a4a73f2e7ff1724f28427f7c0d5725c8e" target="_top" xlink:title="EventManager::BroadcastEventNow">
<polygon fill="#ffffff" stroke="#000000" points="164,-533.5 164,-552.5 355,-552.5 355,-533.5 164,-533.5"/>
<text text-anchor="middle" x="259.5" y="-540.5" font-family="Helvetica,sans-Serif" font-size="10.00" fill="#000000">EventManager::BroadcastEventNow</text>
</a>
</g>
</g>
<!-- Node26&#45;&gt;Node60 -->
<g id="edge41" class="edge">
<title>Node26&#45;&gt;Node60</title>
<path fill="none" stroke="#191970" d="M78.3003,-765.4447C116.8819,-718.081 222.1827,-588.8115 251.7099,-552.5634"/>
<polygon fill="#191970" stroke="#191970" points="75.508,-763.3307 71.906,-773.2945 80.9353,-767.7517 75.508,-763.3307"/>
</g>
<!-- Node28 -->
<g id="node3" class="node">
<title>Node28</title>
<g id="a_node3"><a xlink:href="classBlockReadManager.html#aa990976dec4a3ec5bd6384b54ce5f09b" target="_top" xlink:title="BlockReadManager::Manage">
<polygon fill="#ffffff" stroke="#000000" points="997,-1041.5 997,-1060.5 1151,-1060.5 1151,-1041.5 997,-1041.5"/>
<text text-anchor="middle" x="1074" y="-1048.5" font-family="Helvetica,sans-Serif" font-size="10.00" fill="#000000">BlockReadManager::Manage</text>
</a>
</g>
</g>
<!-- Node27&#45;&gt;Node28 -->
<g id="edge2" class="edge">
<title>Node27&#45;&gt;Node28</title>
<path fill="none" stroke="#191970" d="M932.3232,-1083.2159C963.5596,-1076.1131 1002.8271,-1067.184 1032.0953,-1060.5287"/>
<polygon fill="#191970" stroke="#191970" points="931.4616,-1079.8224 922.4866,-1085.4527 933.0138,-1086.6482 931.4616,-1079.8224"/>
</g>
<!-- Node31 -->
<g id="node6" class="node">
<title>Node31</title>
<g id="a_node6"><a xlink:href="classAudioBlockIterator.html#a33e1c3a6381e3c0ba5dd129885509eb3" target="_top" xlink:title="AudioBlockIterator\l::EndChain">
<polygon fill="#ffffff" stroke="#000000" points="424,-1046 424,-1076 531,-1076 531,-1046 424,-1046"/>
<text text-anchor="start" x="432" y="-1064" font-family="Helvetica,sans-Serif" font-size="10.00" fill="#000000">AudioBlockIterator</text>
<text text-anchor="middle" x="477.5" y="-1053" font-family="Helvetica,sans-Serif" font-size="10.00" fill="#000000">::EndChain</text>
</a>
</g>
</g>
<!-- Node30&#45;&gt;Node31 -->
<g id="edge5" class="edge">
<title>Node30&#45;&gt;Node31</title>
<path fill="none" stroke="#191970" d="M334.7972,-1053.1448C364.0612,-1054.7557 396.9199,-1056.5644 423.7238,-1058.0398"/>
<polygon fill="#191970" stroke="#191970" points="334.7892,-1049.6392 324.6119,-1052.5841 334.4044,-1056.6286 334.7892,-1049.6392"/>
</g>
<!-- Node32 -->
<g id="node7" class="node">
<title>Node32</title>
<g id="a_node7"><a xlink:href="classBlockReadManager.html#a0956beb932559fdea3ecca152db2bd0a" target="_top" xlink:title="BlockReadManager::End">
<polygon fill="#ffffff" stroke="#000000" points="615,-1007.5 615,-1026.5 749,-1026.5 749,-1007.5 615,-1007.5"/>
<text text-anchor="middle" x="682" y="-1014.5" font-family="Helvetica,sans-Serif" font-size="10.00" fill="#000000">BlockReadManager::End</text>
</a>
</g>
</g>
<!-- Node31&#45;&gt;Node32 -->
<g id="edge6" class="edge">
<title>Node31&#45;&gt;Node32</title>
<path fill="none" stroke="#191970" d="M541.1725,-1047.3003C572.4628,-1040.5679 609.401,-1032.6203 637.595,-1026.5541"/>
<polygon fill="#191970" stroke="#191970" points="540.27,-1043.9143 531.23,-1049.4395 541.7425,-1050.7577 540.27,-1043.9143"/>
</g>
<!-- Node35 -->
<g id="node10" class="node">
<title>Node35</title>
<g id="a_node10"><a xlink:href="classRecordProcessor.html#a9984f573bbc265321ad0604f97b23820" target="_top" xlink:title="RecordProcessor::EndNow">
<polygon fill="#ffffff" stroke="#ff0000" points="610.5,-1048.5 610.5,-1067.5 753.5,-1067.5 753.5,-1048.5 610.5,-1048.5"/>
<text text-anchor="middle" x="682" y="-1055.5" font-family="Helvetica,sans-Serif" font-size="10.00" fill="#000000">RecordProcessor::EndNow</text>
</a>
</g>
</g>
<!-- Node31&#45;&gt;Node35 -->
<g id="edge11" class="edge">
<title>Node31&#45;&gt;Node35</title>
<path fill="none" stroke="#191970" d="M541.3757,-1060.0629C563.203,-1059.7427 587.7593,-1059.3825 610.1705,-1059.0537"/>
<polygon fill="#191970" stroke="#191970" points="541.1775,-1056.5654 531.23,-1060.2118 541.2803,-1063.5646 541.1775,-1056.5654"/>
</g>
<!-- Node32&#45;&gt;Node27 -->
<g id="edge8" class="edge">
<title>Node32&#45;&gt;Node27</title>
<path fill="none" stroke="#191970" d="M743.9993,-1029.7509C750.9743,-1032.3067 757.7945,-1035.359 764,-1039 783.7891,-1050.6109 780.0371,-1064.6906 800,-1076 806.8717,-1079.893 814.5064,-1082.9902 822.2592,-1085.4539"/>
<polygon fill="#191970" stroke="#191970" points="745.0288,-1026.4048 734.4352,-1026.5648 742.8164,-1033.046 745.0288,-1026.4048"/>
</g>
<!-- Node32&#45;&gt;Node28 -->
<g id="edge9" class="edge">
<title>Node32&#45;&gt;Node28</title>
<path fill="none" stroke="#191970" d="M759.2876,-1016.1833C815.4501,-1016.4612 893.1836,-1018.647 961,-1027 986.6777,-1030.1627 1015.1703,-1036.2321 1037.1207,-1041.4758"/>
<polygon fill="#191970" stroke="#191970" points="759.0697,-1012.6828 749.0592,-1016.1526 759.0486,-1019.6827 759.0697,-1012.6828"/>
</g>
<!-- Node33 -->
<g id="node8" class="node">
<title>Node33</title>
<g id="a_node8"><a xlink:href="classBlockReadManager.html#a935aa663d9fa5b6d346f77c7b3882e2b" target="_top" xlink:title="BlockReadManager::\l~BlockReadManager">
<polygon fill="#ffffff" stroke="#000000" points="821.5,-1036 821.5,-1066 939.5,-1066 939.5,-1036 821.5,-1036"/>
<text text-anchor="start" x="829.5" y="-1054" font-family="Helvetica,sans-Serif" font-size="10.00" fill="#000000">BlockReadManager::</text>
<text text-anchor="middle" x="880.5" y="-1043" font-family="Helvetica,sans-Serif" font-size="10.00" fill="#000000">~BlockReadManager</text>
</a>
</g>
</g>
<!-- Node32&#45;&gt;Node33 -->
<g id="edge7" class="edge">
<title>Node32&#45;&gt;Node33</title>
<path fill="none" stroke="#191970" d="M747.5817,-1028.2331C771.4367,-1032.3191 798.2354,-1036.9093 821.4872,-1040.892"/>
<polygon fill="#191970" stroke="#191970" points="748.0046,-1024.7547 737.5573,-1026.5161 746.8228,-1031.6542 748.0046,-1024.7547"/>
</g>
<!-- Node34 -->
<g id="node9" class="node">
<title>Node34</title>
<g id="a_node9"><a xlink:href="classLoopManager.html#aadca58536e41c8b0b8fd148ac40b23c0" target="_top" xlink:title="LoopManager::~LoopManager">
<polygon fill="#ffffff" stroke="#000000" points="800,-940.5 800,-959.5 961,-959.5 961,-940.5 800,-940.5"/>
<text text-anchor="middle" x="880.5" y="-947.5" font-family="Helvetica,sans-Serif" font-size="10.00" fill="#000000">LoopManager::~LoopManager</text>
</a>
</g>
</g>
<!-- Node32&#45;&gt;Node34 -->
<g id="edge10" class="edge">
<title>Node32&#45;&gt;Node34</title>
<path fill="none" stroke="#191970" d="M720.2703,-1004.0826C758.8489,-991.0611 817.4976,-971.2653 852.1125,-959.5817"/>
<polygon fill="#191970" stroke="#191970" points="718.7957,-1000.8862 710.4402,-1007.4005 721.0344,-1007.5186 718.7957,-1000.8862"/>
</g>
<!-- Node39&#45;&gt;Node32 -->
<g id="edge13" class="edge">
<title>Node39&#45;&gt;Node32</title>
<path fill="none" stroke="#191970" d="M538.9475,-990.4181C568.2078,-995.8552 602.8006,-1002.2832 630.6389,-1007.4561"/>
<polygon fill="#191970" stroke="#191970" points="539.3112,-986.9259 528.84,-988.54 538.0323,-993.808 539.3112,-986.9259"/>
</g>
<!-- Node39&#45;&gt;Node40 -->
<g id="edge14" class="edge">
<title>Node39&#45;&gt;Node40</title>
<path fill="none" stroke="#191970" d="M507.4174,-964.6397C525.6319,-954.7026 548.3316,-940.0362 564,-922 588.5115,-893.7843 570.8921,-869.445 600,-846 604.7799,-842.15 610.1986,-839.0519 615.9177,-836.5626"/>
<polygon fill="#191970" stroke="#191970" points="505.5865,-961.648 498.3623,-969.3979 508.8426,-967.8446 505.5865,-961.648"/>
</g>
<!-- Node41 -->
<g id="node13" class="node">
<title>Node41</title>
<g id="a_node13"><a xlink:href="classLoopManager.html#a6048a702c9cec3676a1c56792b16ec44" target="_top" xlink:title="LoopManager::ReadComplete">
<polygon fill="#ffffff" stroke="#000000" points="801,-779.5 801,-798.5 960,-798.5 960,-779.5 801,-779.5"/>
<text text-anchor="middle" x="880.5" y="-786.5" font-family="Helvetica,sans-Serif" font-size="10.00" fill="#000000">LoopManager::ReadComplete</text>
</a>
</g>
</g>
<!-- Node40&#45;&gt;Node41 -->
<g id="edge15" class="edge">
<title>Node40&#45;&gt;Node41</title>
<path fill="none" stroke="#191970" d="M742.017,-815.5106C770.3396,-810.0886 803.7423,-803.6942 830.6458,-798.5439"/>
<polygon fill="#191970" stroke="#191970" points="740.9973,-812.1422 731.8337,-817.46 742.3135,-819.0173 740.9973,-812.1422"/>
</g>
<!-- Node42 -->
<g id="node14" class="node">
<title>Node42</title>
<g id="a_node14"><a xlink:href="classLoopManager.html#a8efb4c8acabceb10faa8660c14c89d71" target="_top" xlink:title="LoopManager::DeletePulse">
<polygon fill="#ffffff" stroke="#000000" points="807.5,-855.5 807.5,-874.5 953.5,-874.5 953.5,-855.5 807.5,-855.5"/>
<text text-anchor="middle" x="880.5" y="-862.5" font-family="Helvetica,sans-Serif" font-size="10.00" fill="#000000">LoopManager::DeletePulse</text>
</a>
</g>
</g>
<!-- Node40&#45;&gt;Node42 -->
<g id="edge16" class="edge">
<title>Node40&#45;&gt;Node42</title>
<path fill="none" stroke="#191970" d="M742.017,-838.4894C770.3396,-843.9114 803.7423,-850.3058 830.6458,-855.4561"/>
<polygon fill="#191970" stroke="#191970" points="742.3135,-834.9827 731.8337,-836.54 740.9973,-841.8578 742.3135,-834.9827"/>
</g>
<!-- Node43 -->
<g id="node15" class="node">
<title>Node43</title>
<g id="a_node15"><a xlink:href="classLoopManager.html#a4aada2d07b7ce0a67a8119ece4805966" target="_top" xlink:title="LoopManager::ReceiveEvent">
<polygon fill="#ffffff" stroke="#000000" points="997,-836.5 997,-855.5 1151,-855.5 1151,-836.5 997,-836.5"/>
<text text-anchor="middle" x="1074" y="-843.5" font-family="Helvetica,sans-Serif" font-size="10.00" fill="#000000">LoopManager::ReceiveEvent</text>
</a>
</g>
</g>
<!-- Node40&#45;&gt;Node43 -->
<g id="edge18" class="edge">
<title>Node40&#45;&gt;Node43</title>
<path fill="none" stroke="#191970" d="M764.2248,-830.9854C832.7839,-834.3084 929.7527,-839.0084 996.8568,-842.2609"/>
<polygon fill="#191970" stroke="#191970" points="764.0566,-827.4732 753.8988,-830.4849 763.7176,-834.465 764.0566,-827.4732"/>
</g>
<!-- Node42&#45;&gt;Node43 -->
<g id="edge17" class="edge">
<title>Node42&#45;&gt;Node43</title>
<path fill="none" stroke="#191970" d="M963.6881,-856.8317C974.7057,-855.7498 985.9626,-854.6445 996.8721,-853.5733"/>
<polygon fill="#191970" stroke="#191970" points="963.2641,-853.3564 953.6541,-857.8169 963.9482,-860.3229 963.2641,-853.3564"/>
</g>
<!-- Node45 -->
<g id="node17" class="node">
<title>Node45</title>
<g id="a_node17"><a xlink:href="classAudioBlock.html#a09c778d19d7d45dbb68951fabff2f518" target="_top" xlink:title="AudioBlock::Smooth">
<polygon fill="#ffffff" stroke="#000000" points="420,-1007.5 420,-1026.5 535,-1026.5 535,-1007.5 420,-1007.5"/>
<text text-anchor="middle" x="477.5" y="-1014.5" font-family="Helvetica,sans-Serif" font-size="10.00" fill="#000000">AudioBlock::Smooth</text>
</a>
</g>
</g>
<!-- Node44&#45;&gt;Node45 -->
<g id="edge20" class="edge">
<title>Node44&#45;&gt;Node45</title>
<path fill="none" stroke="#191970" d="M355.0931,-1006.3315C377.1297,-1008.2521 399.9085,-1010.2374 419.7528,-1011.967"/>
<polygon fill="#191970" stroke="#191970" points="355.2998,-1002.8363 345.0337,-1005.4548 354.692,-1009.8099 355.2998,-1002.8363"/>
</g>
<!-- Node45&#45;&gt;Node32 -->
<g id="edge21" class="edge">
<title>Node45&#45;&gt;Node32</title>
<path fill="none" stroke="#191970" d="M545.107,-1017C567.5103,-1017 592.4299,-1017 614.8023,-1017"/>
<polygon fill="#191970" stroke="#191970" points="545.0089,-1013.5001 535.0089,-1017 545.0088,-1020.5001 545.0089,-1013.5001"/>
</g>
<!-- Node45&#45;&gt;Node35 -->
<g id="edge22" class="edge">
<title>Node45&#45;&gt;Node35</title>
<path fill="none" stroke="#191970" d="M534.8627,-1028.5006C566.2792,-1034.7993 604.7494,-1042.5121 634.473,-1048.4714"/>
<polygon fill="#191970" stroke="#191970" points="535.4234,-1025.0434 524.9304,-1026.5093 534.0473,-1031.9068 535.4234,-1025.0434"/>
</g>
<!-- Node48 -->
<g id="node20" class="node">
<title>Node48</title>
<g id="a_node20"><a xlink:href="classBlockManager.html#ae3d80b63628951b60e95fab855a09855" target="_top" xlink:title="BlockManager::BlockManager">
<polygon fill="#ffffff" stroke="#000000" points="397,-38.5 397,-57.5 558,-57.5 558,-38.5 397,-38.5"/>
<text text-anchor="middle" x="477.5" y="-45.5" font-family="Helvetica,sans-Serif" font-size="10.00" fill="#000000">BlockManager::BlockManager</text>
</a>
</g>
</g>
<!-- Node47&#45;&gt;Node48 -->
<g id="edge25" class="edge">
<title>Node47&#45;&gt;Node48</title>
<path fill="none" stroke="#191970" d="M344.4375,-385.3793C348.3153,-382.6955 351.8806,-379.59 355,-376 445.6859,-271.6328 298.2545,-169.5413 391,-67 394.4035,-63.237 398.3669,-60.1284 402.6893,-57.5681"/>
<polygon fill="#191970" stroke="#191970" points="342.3662,-382.536 335.5007,-390.6054 345.8998,-388.5786 342.3662,-382.536"/>
</g>
<!-- Node52 -->
<g id="node24" class="node">
<title>Node52</title>
<g id="a_node24"><a xlink:href="classRootProcessor.html#a014d1405fbd7d67ee4edeb19713ded04" target="_top" xlink:title="RootProcessor::process">
<polygon fill="#ffffff" stroke="#000000" points="413,-.5 413,-19.5 542,-19.5 542,-.5 413,-.5"/>
<text text-anchor="middle" x="477.5" y="-7.5" font-family="Helvetica,sans-Serif" font-size="10.00" fill="#000000">RootProcessor::process</text>
</a>
</g>
</g>
<!-- Node51&#45;&gt;Node52 -->
<g id="edge30" class="edge">
<title>Node51&#45;&gt;Node52</title>
<path fill="none" stroke="#191970" d="M273.8812,-128.4371C296.1517,-102.4704 341.5971,-54.1987 391,-29 398.6701,-25.0878 407.1237,-21.978 415.6509,-19.5067"/>
<polygon fill="#191970" stroke="#191970" points="271.0061,-126.4177 267.2448,-136.3225 276.3618,-130.9251 271.0061,-126.4177"/>
</g>
<!-- Node53&#45;&gt;Node34 -->
<g id="edge32" class="edge">
<title>Node53&#45;&gt;Node34</title>
<path fill="none" stroke="#191970" d="M327.7328,-914.001C348.0465,-916.9669 370.3845,-919.925 391,-922 534.5557,-936.4495 702.6036,-944.0396 799.7774,-947.5191"/>
<polygon fill="#191970" stroke="#191970" points="328.0337,-910.5074 317.6282,-912.5013 327.006,-917.4316 328.0337,-910.5074"/>
</g>
<!-- Node54 -->
<g id="node26" class="node">
<title>Node54</title>
<g id="a_node26"><a xlink:href="classLoopManager.html#af213761ccf6208b94354a3658de91cfb" target="_top" xlink:title="LoopManager::CheckSaveMap">
<polygon fill="#ffffff" stroke="#000000" points="396.5,-893.5 396.5,-912.5 558.5,-912.5 558.5,-893.5 396.5,-893.5"/>
<text text-anchor="middle" x="477.5" y="-900.5" font-family="Helvetica,sans-Serif" font-size="10.00" fill="#000000">LoopManager::CheckSaveMap</text>
</a>
</g>
</g>
<!-- Node53&#45;&gt;Node54 -->
<g id="edge33" class="edge">
<title>Node53&#45;&gt;Node54</title>
<path fill="none" stroke="#191970" d="M347.9793,-903C363.9499,-903 380.5302,-903 396.2813,-903"/>
<polygon fill="#191970" stroke="#191970" points="347.5873,-899.5001 337.5873,-903 347.5872,-906.5001 347.5873,-899.5001"/>
</g>
<!-- Node55 -->
<g id="node27" class="node">
<title>Node55</title>
<g id="a_node27"><a xlink:href="classLoopManager.html#a00143be12c150c0a89c4f99c1e8d5e70" target="_top" xlink:title="LoopManager::GetWriteBlock">
<polygon fill="#ffffff" stroke="#000000" points="603,-893.5 603,-912.5 761,-912.5 761,-893.5 603,-893.5"/>
<text text-anchor="middle" x="682" y="-900.5" font-family="Helvetica,sans-Serif" font-size="10.00" fill="#000000">LoopManager::GetWriteBlock</text>
</a>
</g>
</g>
<!-- Node54&#45;&gt;Node55 -->
<g id="edge34" class="edge">
<title>Node54&#45;&gt;Node55</title>
<path fill="none" stroke="#191970" d="M568.6246,-903C580.0839,-903 591.7319,-903 602.9835,-903"/>
<polygon fill="#191970" stroke="#191970" points="568.6176,-899.5001 558.6175,-903 568.6175,-906.5001 568.6176,-899.5001"/>
</g>
<!-- Node56&#45;&gt;Node41 -->
<g id="edge38" class="edge">
<title>Node56&#45;&gt;Node41</title>
<path fill="none" stroke="#191970" d="M501.8195,-850.3981C525.8435,-836.7817 564.0993,-817.2271 600,-808 666.3005,-790.9597 744.145,-786.8878 800.9852,-786.6893"/>
<polygon fill="#191970" stroke="#191970" points="499.9512,-847.4353 493.0435,-855.4686 503.4532,-853.4963 499.9512,-847.4353"/>
</g>
<!-- Node56&#45;&gt;Node55 -->
<g id="edge36" class="edge">
<title>Node56&#45;&gt;Node55</title>
<path fill="none" stroke="#191970" d="M538.9475,-876.4181C568.2078,-881.8552 602.8006,-888.2832 630.6389,-893.4561"/>
<polygon fill="#191970" stroke="#191970" points="539.3112,-872.9259 528.84,-874.54 538.0323,-879.808 539.3112,-872.9259"/>
</g>
<!-- Node57 -->
<g id="node29" class="node">
<title>Node57</title>
<g id="a_node29"><a xlink:href="classLoopManager.html#a564ecf9fdbe0fa8709ebc046afc148d5" target="_top" xlink:title="LoopManager::GetReadBlock">
<polygon fill="#ffffff" stroke="#000000" points="604,-855.5 604,-874.5 760,-874.5 760,-855.5 604,-855.5"/>
<text text-anchor="middle" x="682" y="-862.5" font-family="Helvetica,sans-Serif" font-size="10.00" fill="#000000">LoopManager::GetReadBlock</text>
</a>
</g>
</g>
<!-- Node56&#45;&gt;Node57 -->
<g id="edge37" class="edge">
<title>Node56&#45;&gt;Node57</title>
<path fill="none" stroke="#191970" d="M568.0917,-865C579.9555,-865 592.0314,-865 603.6693,-865"/>
<polygon fill="#191970" stroke="#191970" points="567.7369,-861.5001 557.7369,-865 567.7368,-868.5001 567.7369,-861.5001"/>
</g>
<!-- Node59 -->
<g id="node31" class="node">
<title>Node59</title>
<g id="a_node31"><a xlink:href="classEventManager.html#a89099b22114f158b5c530edfea52371d" target="_top" xlink:title="EventManager::EventManager">
<polygon fill="#ffffff" stroke="#000000" points="601,-741.5 601,-760.5 763,-760.5 763,-741.5 601,-741.5"/>
<text text-anchor="middle" x="682" y="-748.5" font-family="Helvetica,sans-Serif" font-size="10.00" fill="#000000">EventManager::EventManager</text>
</a>
</g>
</g>
<!-- Node58&#45;&gt;Node59 -->
<g id="edge40" class="edge">
<title>Node58&#45;&gt;Node59</title>
<path fill="none" stroke="#191970" d="M565.1664,-769.282C583.9777,-766.3384 603.4614,-763.2897 620.9997,-760.5453"/>
<polygon fill="#191970" stroke="#191970" points="564.4429,-765.8526 555.1043,-770.8565 565.5252,-772.7684 564.4429,-765.8526"/>
</g>
<!-- Node60&#45;&gt;Node58 -->
<g id="edge54" class="edge">
<title>Node60&#45;&gt;Node58</title>
<path fill="none" stroke="#191970" d="M265.9246,-562.5654C280.8324,-604.8683 321.872,-705.2727 391,-758 396.0959,-761.8869 401.7783,-765.1701 407.7286,-767.9431"/>
<polygon fill="#191970" stroke="#191970" points="269.1703,-561.2394 262.6243,-552.9087 262.5464,-563.5033 269.1703,-561.2394"/>
</g>
<!-- Node61 -->
<g id="node33" class="node">
<title>Node61</title>
<g id="a_node33"><a xlink:href="classFweelinMac.html#ae3b1a5e95aea6b8827a079d965bb0df6" target="_top" xlink:title="FweelinMac::SetDebugMode">
<polygon fill="#ffffff" stroke="#000000" points="401,-228.5 401,-247.5 554,-247.5 554,-228.5 401,-228.5"/>
<text text-anchor="middle" x="477.5" y="-235.5" font-family="Helvetica,sans-Serif" font-size="10.00" fill="#000000">FweelinMac::SetDebugMode</text>
</a>
</g>
</g>
<!-- Node60&#45;&gt;Node61 -->
<g id="edge42" class="edge">
<title>Node60&#45;&gt;Node61</title>
<path fill="none" stroke="#191970" d="M351.6038,-527.2905C352.7811,-526.251 353.9148,-525.155 355,-524 436.9883,-436.7321 309.881,-345.0766 391,-257 394.4373,-253.2679 398.4258,-250.1822 402.7663,-247.6383"/>
<polygon fill="#191970" stroke="#191970" points="349.2825,-524.6509 343.2539,-533.3634 353.3999,-530.312 349.2825,-524.6509"/>
</g>
<!-- Node63 -->
<g id="node35" class="node">
<title>Node63</title>
<g id="a_node35"><a xlink:href="classFweelinMac.html#a1454097dbdc67c119aa91662e66cb4b2" target="_top" xlink:title="FweelinMac::Quit">
<polygon fill="#ffffff" stroke="#ff0000" points="427.5,-190.5 427.5,-209.5 527.5,-209.5 527.5,-190.5 427.5,-190.5"/>
<text text-anchor="middle" x="477.5" y="-197.5" font-family="Helvetica,sans-Serif" font-size="10.00" fill="#000000">FweelinMac::Quit</text>
</a>
</g>
</g>
<!-- Node60&#45;&gt;Node63 -->
<g id="edge44" class="edge">
<title>Node60&#45;&gt;Node63</title>
<path fill="none" stroke="#191970" d="M351.6304,-527.3154C352.7996,-526.2682 353.9244,-525.164 355,-524 447.6359,-423.7509 299.3626,-320.1627 391,-219 400.2901,-208.7443 413.7391,-203.3513 427.2747,-200.6695"/>
<polygon fill="#191970" stroke="#191970" points="349.3031,-524.6826 343.3257,-533.4302 353.4535,-530.3195 349.3031,-524.6826"/>
</g>
<!-- Node65 -->
<g id="node36" class="node">
<title>Node65</title>
<g id="a_node36"><a xlink:href="classFweelinMac.html#ab485e9439ebef90a89b724c4219f9474" target="_top" xlink:title="FweelinMac::ShowHelp">
<polygon fill="#ffffff" stroke="#ff0000" points="413.5,-152.5 413.5,-171.5 541.5,-171.5 541.5,-152.5 413.5,-152.5"/>
<text text-anchor="middle" x="477.5" y="-159.5" font-family="Helvetica,sans-Serif" font-size="10.00" fill="#000000">FweelinMac::ShowHelp</text>
</a>
</g>
</g>
<!-- Node60&#45;&gt;Node65 -->
<g id="edge45" class="edge">
<title>Node60&#45;&gt;Node65</title>
<path fill="none" stroke="#191970" d="M351.6514,-527.3347C352.8141,-526.2815 353.932,-525.1709 355,-524 458.2984,-410.7536 288.8296,-295.2651 391,-181 397.0466,-174.2376 404.9006,-169.5831 413.4078,-166.4239"/>
<polygon fill="#191970" stroke="#191970" points="349.3194,-524.7071 343.3821,-533.482 353.4956,-530.3249 349.3194,-524.7071"/>
</g>
<!-- Node67 -->
<g id="node37" class="node">
<title>Node67</title>
<g id="a_node37"><a xlink:href="classBrowser.html#a71b602afb445cf9d41ef51ddc2696485" target="_top" xlink:title="Browser::MoveTo">
<polygon fill="#ffffff" stroke="#000000" points="428,-114.5 428,-133.5 527,-133.5 527,-114.5 428,-114.5"/>
<text text-anchor="middle" x="477.5" y="-121.5" font-family="Helvetica,sans-Serif" font-size="10.00" fill="#000000">Browser::MoveTo</text>
</a>
</g>
</g>
<!-- Node60&#45;&gt;Node67 -->
<g id="edge46" class="edge">
<title>Node60&#45;&gt;Node67</title>
<path fill="none" stroke="#191970" d="M352.1175,-526.9345C353.1141,-526.001 354.0761,-525.0235 355,-524 411.9856,-460.8725 334.6431,-206.6895 391,-143 400.272,-132.5217 413.8821,-127.092 427.5747,-124.4457"/>
<polygon fill="#191970" stroke="#191970" points="349.6665,-524.4029 343.8525,-533.26 353.9209,-529.9617 349.6665,-524.4029"/>
</g>
<!-- Node68 -->
<g id="node38" class="node">
<title>Node68</title>
<g id="a_node38"><a xlink:href="classInputMatrix.html#aa74204a205a10f2b60809ea124db9173" target="_top" xlink:title="InputMatrix::ReceiveEvent">
<polygon fill="#ffffff" stroke="#000000" points="405.5,-76.5 405.5,-95.5 549.5,-95.5 549.5,-76.5 405.5,-76.5"/>
<text text-anchor="middle" x="477.5" y="-83.5" font-family="Helvetica,sans-Serif" font-size="10.00" fill="#000000">InputMatrix::ReceiveEvent</text>
</a>
</g>
</g>
<!-- Node60&#45;&gt;Node68 -->
<g id="edge47" class="edge">
<title>Node60&#45;&gt;Node68</title>
<path fill="none" stroke="#191970" d="M352.1297,-526.9455C353.1226,-526.0086 354.0805,-525.0274 355,-524 417.3258,-454.364 329.3677,-175.2506 391,-105 395.056,-100.3769 399.9563,-96.7346 405.338,-93.8795"/>
<polygon fill="#191970" stroke="#191970" points="349.6757,-524.4178 343.889,-533.2928 353.9472,-529.9635 349.6757,-524.4178"/>
</g>
<!-- Node69 -->
<g id="node39" class="node">
<title>Node69</title>
<g id="a_node39"><a xlink:href="classFloConfig.html#a87625b8761486bb3bc5d40ee2b70d7e4" target="_top" xlink:title="FloConfig::StartInterfaces">
<polygon fill="#ffffff" stroke="#000000" points="407.5,-729.5 407.5,-748.5 547.5,-748.5 547.5,-729.5 407.5,-729.5"/>
<text text-anchor="middle" x="477.5" y="-736.5" font-family="Helvetica,sans-Serif" font-size="10.00" fill="#000000">FloConfig::StartInterfaces</text>
</a>
</g>
</g>
<!-- Node60&#45;&gt;Node69 -->
<g id="edge48" class="edge">
<title>Node60&#45;&gt;Node69</title>
<path fill="none" stroke="#191970" d="M267.9663,-562.0986C285.3362,-598.9326 328.6808,-679.7006 391,-720 396.9391,-723.8406 403.5367,-726.9144 410.3644,-729.373"/>
<polygon fill="#191970" stroke="#191970" points="270.9396,-560.1858 263.5885,-552.5561 264.5772,-563.1047 270.9396,-560.1858"/>
</g>
<!-- Node70 -->
<g id="node40" class="node">
<title>Node70</title>
<g id="a_node40"><a xlink:href="classTriggerMap.html#af9da9145253cd2713f7c1c60701666fa" target="_top" xlink:title="TriggerMap::SetMap">
<polygon fill="#ffffff" stroke="#ff0000" points="421.5,-304.5 421.5,-323.5 533.5,-323.5 533.5,-304.5 421.5,-304.5"/>
<text text-anchor="middle" x="477.5" y="-311.5" font-family="Helvetica,sans-Serif" font-size="10.00" fill="#000000">TriggerMap::SetMap</text>
</a>
</g>
</g>
<!-- Node60&#45;&gt;Node70 -->
<g id="edge49" class="edge">
<title>Node60&#45;&gt;Node70</title>
<path fill="none" stroke="#191970" d="M351.0252,-527.6236C352.4053,-526.4868 353.7326,-525.2802 355,-524 415.7734,-462.6101 330.8383,-394.9894 391,-333 399.1382,-324.6146 410.068,-319.5334 421.4146,-316.5337"/>
<polygon fill="#191970" stroke="#191970" points="348.8661,-524.8601 342.594,-533.399 352.822,-530.6352 348.8661,-524.8601"/>
</g>
<!-- Node74 -->
<g id="node41" class="node">
<title>Node74</title>
<g id="a_node41"><a xlink:href="classPulse.html#aec20778ec5fcc2a6cefed47add36272f" target="_top" xlink:title="Pulse::SetMIDIClock">
<polygon fill="#ffffff" stroke="#ff0000" points="421,-691.5 421,-710.5 534,-710.5 534,-691.5 421,-691.5"/>
<text text-anchor="middle" x="477.5" y="-698.5" font-family="Helvetica,sans-Serif" font-size="10.00" fill="#000000">Pulse::SetMIDIClock</text>
</a>
</g>
</g>
<!-- Node60&#45;&gt;Node74 -->
<g id="edge52" class="edge">
<title>Node60&#45;&gt;Node74</title>
<path fill="none" stroke="#191970" d="M271.2953,-561.2901C291.7886,-591.4858 336.9886,-651.4563 391,-682 400.1008,-687.1466 410.47,-690.8996 420.7916,-693.6363"/>
<polygon fill="#191970" stroke="#191970" points="273.9775,-559.0021 265.53,-552.6076 268.146,-562.8744 273.9775,-559.0021"/>
</g>
<!-- Node78 -->
<g id="node42" class="node">
<title>Node78</title>
<g id="a_node42"><a xlink:href="classPulse.html#adf28cef50c1f7543db7171b67126c38f" target="_top" xlink:title="Pulse::process">
<polygon fill="#ffffff" stroke="#000000" points="434.5,-653.5 434.5,-672.5 520.5,-672.5 520.5,-653.5 434.5,-653.5"/>
<text text-anchor="middle" x="477.5" y="-660.5" font-family="Helvetica,sans-Serif" font-size="10.00" fill="#000000">Pulse::process</text>
</a>
</g>
</g>
<!-- Node60&#45;&gt;Node78 -->
<g id="edge53" class="edge">
<title>Node60&#45;&gt;Node78</title>
<path fill="none" stroke="#191970" d="M276.0955,-559.7314C299.5669,-582.3957 344.775,-622.4867 391,-644 404.5214,-650.2929 420.215,-654.5448 434.4933,-657.3989"/>
<polygon fill="#191970" stroke="#191970" points="278.3206,-557.011 268.7338,-552.5005 273.4154,-562.0049 278.3206,-557.011"/>
</g>
<!-- Node79 -->
<g id="node43" class="node">
<title>Node79</title>
<g id="a_node43"><a xlink:href="classMidiIO.html#a5fcccad3304e6bb1ad7b85048c63752f" target="_top" xlink:title="MidiIO::ReceiveNoteOffEvent">
<polygon fill="#ffffff" stroke="#ff0000" points="399,-615.5 399,-634.5 556,-634.5 556,-615.5 399,-615.5"/>
<text text-anchor="middle" x="477.5" y="-622.5" font-family="Helvetica,sans-Serif" font-size="10.00" fill="#000000">MidiIO::ReceiveNoteOffEvent</text>
</a>
</g>
</g>
<!-- Node60&#45;&gt;Node79 -->
<g id="edge55" class="edge">
<title>Node60&#45;&gt;Node79</title>
<path fill="none" stroke="#191970" d="M285.2324,-557.5258C311.2111,-571.6578 352.8401,-592.8654 391,-606 401.7583,-609.703 413.5247,-612.8528 424.8174,-615.4598"/>
<polygon fill="#191970" stroke="#191970" points="286.8532,-554.4228 276.4047,-552.6674 283.478,-560.5554 286.8532,-554.4228"/>
</g>
<!-- Node82 -->
<g id="node44" class="node">
<title>Node82</title>
<g id="a_node44"><a xlink:href="classMidiIO.html#ad5430028f18c43ed962f2438e2994263" target="_top" xlink:title="MidiIO::ReceiveNoteOnEvent">
<polygon fill="#ffffff" stroke="#ff0000" points="399.5,-577.5 399.5,-596.5 555.5,-596.5 555.5,-577.5 399.5,-577.5"/>
<text text-anchor="middle" x="477.5" y="-584.5" font-family="Helvetica,sans-Serif" font-size="10.00" fill="#000000">MidiIO::ReceiveNoteOnEvent</text>
</a>
</g>
</g>
<!-- Node60&#45;&gt;Node82 -->
<g id="edge56" class="edge">
<title>Node60&#45;&gt;Node82</title>
<path fill="none" stroke="#191970" d="M316.9728,-554.6C352.3093,-561.7322 397.0301,-570.7584 430.2896,-577.4713"/>
<polygon fill="#191970" stroke="#191970" points="317.2976,-551.0951 306.8028,-552.5473 315.9126,-557.9567 317.2976,-551.0951"/>
</g>
<!-- Node83 -->
<g id="node45" class="node">
<title>Node83</title>
<g id="a_node45"><a xlink:href="classMidiIO.html#a001f1cae37f9d400fd18f2eb6b8863f9" target="_top" xlink:title="MidiIO::ReceivePitchBend\lEvent">
<polygon fill="#ffffff" stroke="#ff0000" points="407.5,-528 407.5,-558 547.5,-558 547.5,-528 407.5,-528"/>
<text text-anchor="start" x="415.5" y="-546" font-family="Helvetica,sans-Serif" font-size="10.00" fill="#000000">MidiIO::ReceivePitchBend</text>
<text text-anchor="middle" x="477.5" y="-535" font-family="Helvetica,sans-Serif" font-size="10.00" fill="#000000">Event</text>
</a>
</g>
</g>
<!-- Node60&#45;&gt;Node83 -->
<g id="edge57" class="edge">
<title>Node60&#45;&gt;Node83</title>
<path fill="none" stroke="#191970" d="M365.4137,-543C379.5889,-543 393.8338,-543 407.1884,-543"/>
<polygon fill="#191970" stroke="#191970" points="365.118,-539.5001 355.118,-543 365.1179,-546.5001 365.118,-539.5001"/>
</g>
<!-- Node84 -->
<g id="node46" class="node">
<title>Node84</title>
<g id="a_node46"><a xlink:href="classMidiIO.html#a3c920e2fb0aa4e148743ade4e2663121" target="_top" xlink:title="MidiIO::ReceiveChannelPressure\lEvent">
<polygon fill="#ffffff" stroke="#ff0000" points="391,-479 391,-509 564,-509 564,-479 391,-479"/>
<text text-anchor="start" x="399" y="-497" font-family="Helvetica,sans-Serif" font-size="10.00" fill="#000000">MidiIO::ReceiveChannelPressure</text>
<text text-anchor="middle" x="477.5" y="-486" font-family="Helvetica,sans-Serif" font-size="10.00" fill="#000000">Event</text>
</a>
</g>
</g>
<!-- Node60&#45;&gt;Node84 -->
<g id="edge58" class="edge">
<title>Node60&#45;&gt;Node84</title>
<path fill="none" stroke="#191970" d="M319.7815,-531.4233C331.4837,-529.0584 343.6395,-526.5199 355,-524 375.735,-519.4007 398.3441,-513.9797 418.4301,-509.02"/>
<polygon fill="#191970" stroke="#191970" points="318.7646,-528.0573 309.646,-533.452 320.1385,-534.9212 318.7646,-528.0573"/>
</g>
<!-- Node85 -->
<g id="node47" class="node">
<title>Node85</title>
<g id="a_node47"><a xlink:href="classMidiIO.html#a1890f712cf869eba7a225a068ab90c21" target="_top" xlink:title="MidiIO::ReceiveProgramChange\lEvent">
<polygon fill="#ffffff" stroke="#ff0000" points="392.5,-430 392.5,-460 562.5,-460 562.5,-430 392.5,-430"/>
<text text-anchor="start" x="400.5" y="-448" font-family="Helvetica,sans-Serif" font-size="10.00" fill="#000000">MidiIO::ReceiveProgramChange</text>
<text text-anchor="middle" x="477.5" y="-437" font-family="Helvetica,sans-Serif" font-size="10.00" fill="#000000">Event</text>
</a>
</g>
</g>
<!-- Node60&#45;&gt;Node85 -->
<g id="edge59" class="edge">
<title>Node60&#45;&gt;Node85</title>
<path fill="none" stroke="#191970" d="M345.6535,-529.3847C348.8985,-527.7756 352.0296,-525.9871 355,-524 378.9746,-507.9619 367.7282,-487.0418 391,-470 396.297,-466.121 402.1842,-462.8419 408.3254,-460.0703"/>
<polygon fill="#191970" stroke="#191970" points="344.0304,-526.2735 336.246,-533.4606 346.8132,-532.6966 344.0304,-526.2735"/>
</g>
<!-- Node86 -->
<g id="node48" class="node">
<title>Node86</title>
<g id="a_node48"><a xlink:href="classMidiIO.html#a6fcfe9477a84a6ccc6a449765aff6f63" target="_top" xlink:title="MidiIO::ReceiveControlChange\lEvent">
<polygon fill="#ffffff" stroke="#ff0000" points="395.5,-381 395.5,-411 559.5,-411 559.5,-381 395.5,-381"/>
<text text-anchor="start" x="403.5" y="-399" font-family="Helvetica,sans-Serif" font-size="10.00" fill="#000000">MidiIO::ReceiveControlChange</text>
<text text-anchor="middle" x="477.5" y="-388" font-family="Helvetica,sans-Serif" font-size="10.00" fill="#000000">Event</text>
</a>
</g>
</g>
<!-- Node60&#45;&gt;Node86 -->
<g id="edge60" class="edge">
<title>Node60&#45;&gt;Node86</title>
<path fill="none" stroke="#191970" d="M349.4639,-528.2725C351.3874,-526.9534 353.2376,-525.5317 355,-524 391.602,-492.1897 355.7819,-454.3361 391,-421 395.087,-417.1314 399.735,-413.8565 404.7056,-411.0848"/>
<polygon fill="#191970" stroke="#191970" points="347.4924,-525.3702 340.6066,-533.4224 351.0109,-531.4217 347.4924,-525.3702"/>
</g>
<!-- Node87 -->
<g id="node49" class="node">
<title>Node87</title>
<g id="a_node49"><a xlink:href="classMidiIO.html#a1753eb05e14eb572a5f52b9616480d55" target="_top" xlink:title="MidiIO::SetMIDIForPatch">
<polygon fill="#ffffff" stroke="#ff0000" points="411.5,-342.5 411.5,-361.5 543.5,-361.5 543.5,-342.5 411.5,-342.5"/>
<text text-anchor="middle" x="477.5" y="-349.5" font-family="Helvetica,sans-Serif" font-size="10.00" fill="#000000">MidiIO::SetMIDIForPatch</text>
</a>
</g>
</g>
<!-- Node60&#45;&gt;Node87 -->
<g id="edge61" class="edge">
<title>Node60&#45;&gt;Node87</title>
<path fill="none" stroke="#191970" d="M350.4108,-527.9593C352.0068,-526.7262 353.5399,-525.4082 355,-524 404.9702,-475.8052 341.7787,-420.9593 391,-372 396.6826,-366.3476 403.6256,-362.1664 411.0825,-359.0918"/>
<polygon fill="#191970" stroke="#191970" points="348.4405,-525.0654 341.9532,-533.4419 352.2482,-530.9392 348.4405,-525.0654"/>
</g>
<!-- Node90 -->
<g id="node50" class="node">
<title>Node90</title>
<g id="a_node50"><a xlink:href="classSDLIO.html#ad1b1bf6d23251b3014749b18497c1b91" target="_top" xlink:title="SDLIO::run_sdl_thread">
<polygon fill="#ffffff" stroke="#ff0000" points="415.5,-266.5 415.5,-285.5 539.5,-285.5 539.5,-266.5 415.5,-266.5"/>
<text text-anchor="middle" x="477.5" y="-273.5" font-family="Helvetica,sans-Serif" font-size="10.00" fill="#000000">SDLIO::run_sdl_thread</text>
</a>
</g>
</g>
<!-- Node60&#45;&gt;Node90 -->
<g id="edge62" class="edge">
<title>Node60&#45;&gt;Node90</title>
<path fill="none" stroke="#191970" d="M351.5687,-527.2573C352.7568,-526.2279 353.9023,-525.1431 355,-524 426.363,-449.6896 320.3773,-370.0143 391,-295 397.6398,-287.9473 406.2502,-283.2152 415.4592,-280.0886"/>
<polygon fill="#191970" stroke="#191970" points="349.2557,-524.6085 343.1598,-533.274 353.3291,-530.3014 349.2557,-524.6085"/>
</g>
<!-- Node62 -->
<g id="node34" class="node">
<title>Node62</title>
<g id="a_node34"><a xlink:href="interfaceSDLMain.html#a77e54985a7877b9a5acfa0d2c427b921" target="_top" xlink:title="&#45;[SDLMain toggleDebugMode:]">
<polygon fill="#ffffff" stroke="#000000" points="600,-228.5 600,-247.5 764,-247.5 764,-228.5 600,-228.5"/>
<text text-anchor="middle" x="682" y="-235.5" font-family="Helvetica,sans-Serif" font-size="10.00" fill="#000000">&#45;[SDLMain toggleDebugMode:]</text>
</a>
</g>
</g>
<!-- Node61&#45;&gt;Node62 -->
<g id="edge43" class="edge">
<title>Node61&#45;&gt;Node62</title>
<path fill="none" stroke="#191970" d="M564.4236,-238C576.1213,-238 588.093,-238 599.7071,-238"/>
<polygon fill="#191970" stroke="#191970" points="564.2301,-234.5001 554.2301,-238 564.23,-241.5001 564.2301,-234.5001"/>
</g>
<!-- Node70&#45;&gt;Node40 -->
<g id="edge51" class="edge">
<title>Node70&#45;&gt;Node40</title>
<path fill="none" stroke="#191970" d="M543.5542,-319.0158C551.3345,-322.1677 558.4603,-326.6632 564,-333 628.1321,-406.3596 551.3497,-685.5742 600,-770 612.9846,-792.533 638.9054,-808.2295 658.1448,-817.365"/>
<polygon fill="#191970" stroke="#191970" points="544.395,-315.6079 533.802,-315.804 542.2053,-322.2566 544.395,-315.6079"/>
</g>
<!-- Node70&#45;&gt;Node41 -->
<g id="edge50" class="edge">
<title>Node70&#45;&gt;Node41</title>
<path fill="none" stroke="#191970" d="M543.5114,-322.9844C550.7617,-325.5491 557.7643,-328.8236 564,-333 747.7562,-456.0715 856.4093,-724.9597 876.9349,-779.3091"/>
<polygon fill="#191970" stroke="#191970" points="544.107,-319.5057 533.5199,-319.9089 542.0477,-326.1959 544.107,-319.5057"/>
</g>
</g>
</svg>
