<?xml version="1.0" encoding="UTF-8" standalone="no"?>
<!DOCTYPE svg PUBLIC "-//W3C//DTD SVG 1.1//EN"
 "http://www.w3.org/Graphics/SVG/1.1/DTD/svg11.dtd">
<!-- Generated by graphviz version 2.40.1 (20161225.0304)
 -->
<!-- Title: RecordProcessor::GetFirstRecordedBlock Pages: 1 -->
<svg width="712pt" height="85pt"
 viewBox="0.00 0.00 712.00 85.00" xmlns="http://www.w3.org/2000/svg" xmlns:xlink="http://www.w3.org/1999/xlink">
<g id="graph0" class="graph" transform="scale(1 1) rotate(0) translate(4 81)">
<title>RecordProcessor::GetFirstRecordedBlock</title>
<polygon fill="#ffffff" stroke="transparent" points="-4,4 -4,-81 708,-81 708,4 -4,4"/>
<!-- Node156 -->
<g id="node1" class="node">
<title>Node156</title>
<polygon fill="#bfbfbf" stroke="#000000" points="0,-14 0,-44 140,-44 140,-14 0,-14"/>
<text text-anchor="start" x="8" y="-32" font-family="Helvetica,sans-Serif" font-size="10.00" fill="#000000">RecordProcessor::GetFirst</text>
<text text-anchor="middle" x="70" y="-21" font-family="Helvetica,sans-Serif" font-size="10.00" fill="#000000">RecordedBlock</text>
</g>
<!-- Node157 -->
<g id="node2" class="node">
<title>Node157</title>
<g id="a_node2"><a xlink:href="classLoopManager.html#a332a9868980750f28fbf0e05b2336174" target="_top" xlink:title="LoopManager::DeleteLoop">
<polygon fill="#ffffff" stroke="#000000" points="176,-19.5 176,-38.5 319,-38.5 319,-19.5 176,-19.5"/>
<text text-anchor="middle" x="247.5" y="-26.5" font-family="Helvetica,sans-Serif" font-size="10.00" fill="#000000">LoopManager::DeleteLoop</text>
</a>
</g>
</g>
<!-- Node156&#45;&gt;Node157 -->
<g id="edge1" class="edge">
<title>Node156&#45;&gt;Node157</title>
<path fill="none" stroke="#191970" d="M150.4134,-29C158.884,-29 167.4569,-29 175.8196,-29"/>
<polygon fill="#191970" stroke="#191970" points="150.1527,-25.5001 140.1527,-29 150.1527,-32.5001 150.1527,-25.5001"/>
</g>
<!-- Node158 -->
<g id="node3" class="node">
<title>Node158</title>
<g id="a_node3"><a xlink:href="classLoopManager.html#a6048a702c9cec3676a1c56792b16ec44" target="_top" xlink:title="LoopManager::ReadComplete">
<polygon fill="#ffffff" stroke="#000000" points="355,-57.5 355,-76.5 514,-76.5 514,-57.5 355,-57.5"/>
<text text-anchor="middle" x="434.5" y="-64.5" font-family="Helvetica,sans-Serif" font-size="10.00" fill="#000000">LoopManager::ReadComplete</text>
</a>
</g>
</g>
<!-- Node157&#45;&gt;Node158 -->
<g id="edge2" class="edge">
<title>Node157&#45;&gt;Node158</title>
<path fill="none" stroke="#191970" d="M304.631,-40.6095C331.2267,-46.014 362.4731,-52.3635 387.6513,-57.4799"/>
<polygon fill="#191970" stroke="#191970" points="305.1847,-37.1506 294.688,-38.589 303.7907,-44.0104 305.1847,-37.1506"/>
</g>
<!-- Node159 -->
<g id="node4" class="node">
<title>Node159</title>
<g id="a_node4"><a xlink:href="classLoopManager.html#a8efb4c8acabceb10faa8660c14c89d71" target="_top" xlink:title="LoopManager::DeletePulse">
<polygon fill="#ffffff" stroke="#000000" points="361.5,-19.5 361.5,-38.5 507.5,-38.5 507.5,-19.5 361.5,-19.5"/>
<text text-anchor="middle" x="434.5" y="-26.5" font-family="Helvetica,sans-Serif" font-size="10.00" fill="#000000">LoopManager::DeletePulse</text>
</a>
</g>
</g>
<!-- Node157&#45;&gt;Node159 -->
<g id="edge3" class="edge">
<title>Node157&#45;&gt;Node159</title>
<path fill="none" stroke="#191970" d="M329.3914,-29C340.0385,-29 350.8895,-29 361.3807,-29"/>
<polygon fill="#191970" stroke="#191970" points="329.2643,-25.5001 319.2643,-29 329.2642,-32.5001 329.2643,-25.5001"/>
</g>
<!-- Node160 -->
<g id="node5" class="node">
<title>Node160</title>
<g id="a_node5"><a xlink:href="classLoopManager.html#a4aada2d07b7ce0a67a8119ece4805966" target="_top" xlink:title="LoopManager::ReceiveEvent">
<polygon fill="#ffffff" stroke="#000000" points="550,-.5 550,-19.5 704,-19.5 704,-.5 550,-.5"/>
<text text-anchor="middle" x="627" y="-7.5" font-family="Helvetica,sans-Serif" font-size="10.00" fill="#000000">LoopManager::ReceiveEvent</text>
</a>
</g>
</g>
<!-- Node157&#45;&gt;Node160 -->
<g id="edge5" class="edge">
<title>Node157&#45;&gt;Node160</title>
<path fill="none" stroke="#191970" d="M301.0476,-17.6359C318.1981,-14.5077 337.3236,-11.5501 355,-10 420.5056,-4.2557 495.2266,-4.7605 549.7562,-6.4158"/>
<polygon fill="#191970" stroke="#191970" points="300.3841,-14.1993 291.2038,-19.4882 301.6786,-21.0786 300.3841,-14.1993"/>
</g>
<!-- Node159&#45;&gt;Node160 -->
<g id="edge4" class="edge">
<title>Node159&#45;&gt;Node160</title>
<path fill="none" stroke="#191970" d="M517.6986,-20.7882C528.3711,-19.7348 539.2618,-18.6599 549.8326,-17.6165"/>
<polygon fill="#191970" stroke="#191970" points="517.1583,-17.3244 507.5505,-21.7898 517.8459,-24.2906 517.1583,-17.3244"/>
</g>
</g>
</svg>
