<?xml version="1.0" encoding="UTF-8" standalone="no"?>
<!DOCTYPE svg PUBLIC "-//W3C//DTD SVG 1.1//EN"
 "http://www.w3.org/Graphics/SVG/1.1/DTD/svg11.dtd">
<!-- Generated by graphviz version 2.40.1 (20161225.0304)
 -->
<!-- Title: Processor::process Pages: 1 -->
<svg width="1067pt" height="408pt"
 viewBox="0.00 0.00 1067.00 408.00" xmlns="http://www.w3.org/2000/svg" xmlns:xlink="http://www.w3.org/1999/xlink">
<g id="graph0" class="graph" transform="scale(1 1) rotate(0) translate(4 404)">
<title>Processor::process</title>
<polygon fill="#ffffff" stroke="transparent" points="-4,4 -4,-404 1063,-404 1063,4 -4,4"/>
<!-- Node43 -->
<g id="node1" class="node">
<title>Node43</title>
<polygon fill="#bfbfbf" stroke="#000000" points="0,-171.5 0,-190.5 107,-190.5 107,-171.5 0,-171.5"/>
<text text-anchor="middle" x="53.5" y="-178.5" font-family="Helvetica,sans-Serif" font-size="10.00" fill="#000000">Processor::process</text>
</g>
<!-- Node44 -->
<g id="node2" class="node">
<title>Node44</title>
<g id="a_node2"><a xlink:href="classAudioIO.html#aa131b2f89b09eeb058f56676833bf2df" target="_top" xlink:title="AudioIO::process">
<polygon fill="#ffffff" stroke="#000000" points="171.5,-342.5 171.5,-361.5 269.5,-361.5 269.5,-342.5 171.5,-342.5"/>
<text text-anchor="middle" x="220.5" y="-349.5" font-family="Helvetica,sans-Serif" font-size="10.00" fill="#000000">AudioIO::process</text>
</a>
</g>
</g>
<!-- Node43&#45;&gt;Node44 -->
<g id="edge1" class="edge">
<title>Node43&#45;&gt;Node44</title>
<path fill="none" stroke="#191970" d="M70.0076,-197.903C104.645,-233.37 183.9515,-314.5761 211.1466,-342.4226"/>
<polygon fill="#191970" stroke="#191970" points="72.4481,-195.3925 62.9571,-190.6837 67.4401,-200.2834 72.4481,-195.3925"/>
</g>
<!-- Node47 -->
<g id="node5" class="node">
<title>Node47</title>
<g id="a_node5"><a xlink:href="classProcessor.html#a1ff3aad172b41d0c3c9a1bd06cd6a4ef" target="_top" xlink:title="Processor::dopreprocess">
<polygon fill="#ffffff" stroke="#000000" points="153,-171.5 153,-190.5 288,-190.5 288,-171.5 153,-171.5"/>
<text text-anchor="middle" x="220.5" y="-178.5" font-family="Helvetica,sans-Serif" font-size="10.00" fill="#000000">Processor::dopreprocess</text>
</a>
</g>
</g>
<!-- Node43&#45;&gt;Node47 -->
<g id="edge5" class="edge">
<title>Node43&#45;&gt;Node47</title>
<path fill="none" stroke="#191970" d="M117.2974,-181C128.9058,-181 141.053,-181 152.7703,-181"/>
<polygon fill="#191970" stroke="#191970" points="117.2591,-177.5001 107.2591,-181 117.2591,-184.5001 117.2591,-177.5001"/>
</g>
<!-- Node63 -->
<g id="node21" class="node">
<title>Node63</title>
<g id="a_node21"><a xlink:href="classRootProcessor.html#ae6ad61c89d499509728d7720ee71df68" target="_top" xlink:title="RootProcessor::processchain">
<polygon fill="#ffffff" stroke="#000000" points="143,-95.5 143,-114.5 298,-114.5 298,-95.5 143,-95.5"/>
<text text-anchor="middle" x="220.5" y="-102.5" font-family="Helvetica,sans-Serif" font-size="10.00" fill="#000000">RootProcessor::processchain</text>
</a>
</g>
</g>
<!-- Node43&#45;&gt;Node63 -->
<g id="edge31" class="edge">
<title>Node43&#45;&gt;Node63</title>
<path fill="none" stroke="#191970" d="M83.96,-167.138C117.4539,-151.8952 170.377,-127.8104 199.5211,-114.5473"/>
<polygon fill="#191970" stroke="#191970" points="82.3027,-164.0467 74.6507,-171.3745 85.2022,-170.418 82.3027,-164.0467"/>
</g>
<!-- Node45 -->
<g id="node3" class="node">
<title>Node45</title>
<g id="a_node3"><a xlink:href="classAudioIO.html#a1e4157d1900df901a60d5a2260d7509c" target="_top" xlink:title="AudioIO::open">
<polygon fill="#ffffff" stroke="#000000" points="361.5,-342.5 361.5,-361.5 446.5,-361.5 446.5,-342.5 361.5,-342.5"/>
<text text-anchor="middle" x="404" y="-349.5" font-family="Helvetica,sans-Serif" font-size="10.00" fill="#000000">AudioIO::open</text>
</a>
</g>
</g>
<!-- Node44&#45;&gt;Node45 -->
<g id="edge2" class="edge">
<title>Node44&#45;&gt;Node45</title>
<path fill="none" stroke="#191970" d="M279.9811,-352C306.4694,-352 337.0699,-352 361.2469,-352"/>
<polygon fill="#191970" stroke="#191970" points="279.6747,-348.5001 269.6746,-352 279.6746,-355.5001 279.6747,-348.5001"/>
</g>
<!-- Node46 -->
<g id="node4" class="node">
<title>Node46</title>
<g id="a_node4"><a xlink:href="classAudioIO.html#a012ce924f59ced78f2fac75e6e33b55c" target="_top" xlink:title="AudioIO::AudioIO">
<polygon fill="#ffffff" stroke="#000000" points="542.5,-380.5 542.5,-399.5 641.5,-399.5 641.5,-380.5 542.5,-380.5"/>
<text text-anchor="middle" x="592" y="-387.5" font-family="Helvetica,sans-Serif" font-size="10.00" fill="#000000">AudioIO::AudioIO</text>
</a>
</g>
</g>
<!-- Node44&#45;&gt;Node46 -->
<g id="edge4" class="edge">
<title>Node44&#45;&gt;Node46</title>
<path fill="none" stroke="#191970" d="M279.5845,-362.9529C297.0576,-365.9041 316.2575,-368.8663 334,-371 406.2385,-379.6875 490.3667,-384.9885 542.4086,-387.7101"/>
<polygon fill="#191970" stroke="#191970" points="279.9687,-359.4677 269.5203,-361.2228 278.7828,-366.3665 279.9687,-359.4677"/>
</g>
<!-- Node45&#45;&gt;Node46 -->
<g id="edge3" class="edge">
<title>Node45&#45;&gt;Node46</title>
<path fill="none" stroke="#191970" d="M456.5775,-362.6274C484.2986,-368.2306 518.0277,-375.0482 544.8894,-380.4777"/>
<polygon fill="#191970" stroke="#191970" points="457.1553,-359.1735 446.6601,-360.6228 455.7684,-366.0347 457.1553,-359.1735"/>
</g>
<!-- Node48 -->
<g id="node6" class="node">
<title>Node48</title>
<g id="a_node6"><a xlink:href="classLoopManager.html#ad385aa5de4038bffcb67aadd4052c90c" target="_top" xlink:title="LoopManager::SetLoopVolume">
<polygon fill="#ffffff" stroke="#000000" points="510,-228.5 510,-247.5 674,-247.5 674,-228.5 510,-228.5"/>
<text text-anchor="middle" x="592" y="-235.5" font-family="Helvetica,sans-Serif" font-size="10.00" fill="#000000">LoopManager::SetLoopVolume</text>
</a>
</g>
</g>
<!-- Node47&#45;&gt;Node48 -->
<g id="edge6" class="edge">
<title>Node47&#45;&gt;Node48</title>
<path fill="none" stroke="#191970" d="M286.2796,-192.2366C301.9113,-194.8445 318.5386,-197.5675 334,-200 398.7391,-210.1853 472.7528,-221.0015 524.855,-228.4787"/>
<polygon fill="#191970" stroke="#191970" points="286.6142,-188.7439 276.1734,-190.5436 285.4577,-195.6477 286.6142,-188.7439"/>
</g>
<!-- Node51 -->
<g id="node9" class="node">
<title>Node51</title>
<g id="a_node9"><a xlink:href="classRootProcessor.html#adc75260f6db8566d3e3eaaea2d5a6323" target="_top" xlink:title="RootProcessor::AddChild">
<polygon fill="#ffffff" stroke="#000000" points="336.5,-285.5 336.5,-304.5 471.5,-304.5 471.5,-285.5 336.5,-285.5"/>
<text text-anchor="middle" x="404" y="-292.5" font-family="Helvetica,sans-Serif" font-size="10.00" fill="#000000">RootProcessor::AddChild</text>
</a>
</g>
</g>
<!-- Node47&#45;&gt;Node51 -->
<g id="edge10" class="edge">
<title>Node47&#45;&gt;Node51</title>
<path fill="none" stroke="#191970" d="M244.6225,-196.169C267.5748,-210.5834 303.0945,-232.8415 334,-252 352.6683,-263.5726 374.2078,-276.7826 388.4083,-285.4722"/>
<polygon fill="#191970" stroke="#191970" points="246.2256,-193.0428 235.8961,-190.6864 242.5016,-198.97 246.2256,-193.0428"/>
</g>
<!-- Node55 -->
<g id="node13" class="node">
<title>Node55</title>
<g id="a_node13"><a xlink:href="classRootProcessor.html#a479ddcf191d529562b634e65e7ea05b3" target="_top" xlink:title="RootProcessor::DelChild">
<polygon fill="#ffffff" stroke="#000000" points="337.5,-171.5 337.5,-190.5 470.5,-190.5 470.5,-171.5 337.5,-171.5"/>
<text text-anchor="middle" x="404" y="-178.5" font-family="Helvetica,sans-Serif" font-size="10.00" fill="#000000">RootProcessor::DelChild</text>
</a>
</g>
</g>
<!-- Node47&#45;&gt;Node55 -->
<g id="edge17" class="edge">
<title>Node47&#45;&gt;Node55</title>
<path fill="none" stroke="#191970" d="M298.3214,-181C311.2592,-181 324.5754,-181 337.2083,-181"/>
<polygon fill="#191970" stroke="#191970" points="298.0469,-177.5001 288.0469,-181 298.0468,-184.5001 298.0469,-177.5001"/>
</g>
<!-- Node60 -->
<g id="node18" class="node">
<title>Node60</title>
<g id="a_node18"><a xlink:href="classRecordProcessor.html#a8fbde2e8b6f9e9dafb89ef0b06e6a11a" target="_top" xlink:title="RecordProcessor::Jump">
<polygon fill="#ffffff" stroke="#000000" points="340,-95.5 340,-114.5 468,-114.5 468,-95.5 340,-95.5"/>
<text text-anchor="middle" x="404" y="-102.5" font-family="Helvetica,sans-Serif" font-size="10.00" fill="#000000">RecordProcessor::Jump</text>
</a>
</g>
</g>
<!-- Node47&#45;&gt;Node60 -->
<g id="edge28" class="edge">
<title>Node47&#45;&gt;Node60</title>
<path fill="none" stroke="#191970" d="M245.8649,-166.4103C268.4387,-153.8796 302.6429,-135.9903 334,-124 343.2919,-120.4469 353.5151,-117.2774 363.2099,-114.5931"/>
<polygon fill="#191970" stroke="#191970" points="243.95,-163.4715 236.9446,-171.4198 247.3776,-169.5749 243.95,-163.4715"/>
</g>
<!-- Node62 -->
<g id="node20" class="node">
<title>Node62</title>
<g id="a_node20"><a xlink:href="classPlayProcessor.html#a13ce406fdf45f876f305b01c031f04a2" target="_top" xlink:title="PlayProcessor::PulseSync">
<polygon fill="#ffffff" stroke="#000000" points="334,-133.5 334,-152.5 474,-152.5 474,-133.5 334,-133.5"/>
<text text-anchor="middle" x="404" y="-140.5" font-family="Helvetica,sans-Serif" font-size="10.00" fill="#000000">PlayProcessor::PulseSync</text>
</a>
</g>
</g>
<!-- Node47&#45;&gt;Node62 -->
<g id="edge30" class="edge">
<title>Node47&#45;&gt;Node62</title>
<path fill="none" stroke="#191970" d="M276.9069,-169.319C302.9296,-163.9301 333.4301,-157.6139 358.0282,-152.5201"/>
<polygon fill="#191970" stroke="#191970" points="275.8873,-165.9558 266.8048,-171.411 277.3068,-172.8104 275.8873,-165.9558"/>
</g>
<!-- Node49 -->
<g id="node7" class="node">
<title>Node49</title>
<g id="a_node7"><a xlink:href="classFweelin.html#a4654015e2bc7cc94f3bfc421899a60d3" target="_top" xlink:title="Fweelin::TriggerSnapshot">
<polygon fill="#ffffff" stroke="#000000" points="720.5,-266.5 720.5,-285.5 858.5,-285.5 858.5,-266.5 720.5,-266.5"/>
<text text-anchor="middle" x="789.5" y="-273.5" font-family="Helvetica,sans-Serif" font-size="10.00" fill="#000000">Fweelin::TriggerSnapshot</text>
</a>
</g>
</g>
<!-- Node48&#45;&gt;Node49 -->
<g id="edge7" class="edge">
<title>Node48&#45;&gt;Node49</title>
<path fill="none" stroke="#191970" d="M651.7147,-249.4894C679.8946,-254.9114 713.129,-261.3058 739.8969,-266.4561"/>
<polygon fill="#191970" stroke="#191970" points="652.0639,-245.9925 641.5827,-247.54 650.7412,-252.8664 652.0639,-245.9925"/>
</g>
<!-- Node50 -->
<g id="node8" class="node">
<title>Node50</title>
<g id="a_node8"><a xlink:href="classLoopManager.html#a4aada2d07b7ce0a67a8119ece4805966" target="_top" xlink:title="LoopManager::ReceiveEvent">
<polygon fill="#ffffff" stroke="#000000" points="905,-209.5 905,-228.5 1059,-228.5 1059,-209.5 905,-209.5"/>
<text text-anchor="middle" x="982" y="-216.5" font-family="Helvetica,sans-Serif" font-size="10.00" fill="#000000">LoopManager::ReceiveEvent</text>
</a>
</g>
</g>
<!-- Node48&#45;&gt;Node50 -->
<g id="edge9" class="edge">
<title>Node48&#45;&gt;Node50</title>
<path fill="none" stroke="#191970" d="M684.3936,-233.4988C751.5836,-230.2254 841.4994,-225.8449 904.8544,-222.7584"/>
<polygon fill="#191970" stroke="#191970" points="684.0502,-230.0113 674.2324,-233.9938 684.3909,-237.003 684.0502,-230.0113"/>
</g>
<!-- Node49&#45;&gt;Node50 -->
<g id="edge8" class="edge">
<title>Node49&#45;&gt;Node50</title>
<path fill="none" stroke="#191970" d="M831.3265,-263.615C866.8675,-253.0912 917.1557,-238.2007 949.6747,-228.5716"/>
<polygon fill="#191970" stroke="#191970" points="830.3149,-260.2643 821.7202,-266.4595 832.3024,-266.9762 830.3149,-260.2643"/>
</g>
<!-- Node52 -->
<g id="node10" class="node">
<title>Node52</title>
<g id="a_node10"><a xlink:href="classLoopManager.html#a705436ae811a121ed3285ab34b144bfe" target="_top" xlink:title="LoopManager::CreatePulse">
<polygon fill="#ffffff" stroke="#000000" points="519,-342.5 519,-361.5 665,-361.5 665,-342.5 519,-342.5"/>
<text text-anchor="middle" x="592" y="-349.5" font-family="Helvetica,sans-Serif" font-size="10.00" fill="#000000">LoopManager::CreatePulse</text>
</a>
</g>
</g>
<!-- Node51&#45;&gt;Node52 -->
<g id="edge11" class="edge">
<title>Node51&#45;&gt;Node52</title>
<path fill="none" stroke="#191970" d="M443.761,-307.5548C463.6319,-313.7842 488.0598,-321.3746 510,-328 526.046,-332.8455 543.9032,-338.0895 558.8463,-342.4361"/>
<polygon fill="#191970" stroke="#191970" points="444.7029,-304.1821 434.1136,-304.5251 442.6055,-310.8605 444.7029,-304.1821"/>
</g>
<!-- Node53 -->
<g id="node11" class="node">
<title>Node53</title>
<g id="a_node11"><a xlink:href="classLoopManager.html#a67c6f44d33880b35c875a8e6ea8babac" target="_top" xlink:title="LoopManager::TapPulse">
<polygon fill="#ffffff" stroke="#000000" points="724,-342.5 724,-361.5 855,-361.5 855,-342.5 724,-342.5"/>
<text text-anchor="middle" x="789.5" y="-349.5" font-family="Helvetica,sans-Serif" font-size="10.00" fill="#000000">LoopManager::TapPulse</text>
</a>
</g>
</g>
<!-- Node51&#45;&gt;Node53 -->
<g id="edge12" class="edge">
<title>Node51&#45;&gt;Node53</title>
<path fill="none" stroke="#191970" d="M481.934,-305.4808C535.9028,-312.8582 609.3759,-323.1383 674,-333 693.2855,-335.943 714.349,-339.3506 733.1451,-342.4605"/>
<polygon fill="#191970" stroke="#191970" points="482.1313,-301.9754 471.75,-304.0915 481.1851,-308.9111 482.1313,-301.9754"/>
</g>
<!-- Node54 -->
<g id="node12" class="node">
<title>Node54</title>
<g id="a_node12"><a xlink:href="classLoopManager.html#add3b21cda3c0eddecabf19d24c610cdc" target="_top" xlink:title="LoopManager::Activate">
<polygon fill="#ffffff" stroke="#000000" points="528,-266.5 528,-285.5 656,-285.5 656,-266.5 528,-266.5"/>
<text text-anchor="middle" x="592" y="-273.5" font-family="Helvetica,sans-Serif" font-size="10.00" fill="#000000">LoopManager::Activate</text>
</a>
</g>
</g>
<!-- Node51&#45;&gt;Node54 -->
<g id="edge14" class="edge">
<title>Node51&#45;&gt;Node54</title>
<path fill="none" stroke="#191970" d="M481.6035,-287.1571C496.9757,-285.6035 512.9517,-283.9889 527.8176,-282.4865"/>
<polygon fill="#191970" stroke="#191970" points="481.2041,-283.6795 471.6067,-288.1674 481.908,-290.6441 481.2041,-283.6795"/>
</g>
<!-- Node53&#45;&gt;Node50 -->
<g id="edge13" class="edge">
<title>Node53&#45;&gt;Node50</title>
<path fill="none" stroke="#191970" d="M844.086,-339.2943C852.7173,-336.2307 861.319,-332.5034 869,-328 915.7929,-300.5653 958.1192,-249.9183 974.6479,-228.7246"/>
<polygon fill="#191970" stroke="#191970" points="842.7884,-336.0363 834.3761,-342.4771 844.9688,-342.6881 842.7884,-336.0363"/>
</g>
<!-- Node54&#45;&gt;Node49 -->
<g id="edge15" class="edge">
<title>Node54&#45;&gt;Node49</title>
<path fill="none" stroke="#191970" d="M666.3776,-276C684.0444,-276 702.8212,-276 720.2485,-276"/>
<polygon fill="#191970" stroke="#191970" points="666.1226,-272.5001 656.1226,-276 666.1226,-279.5001 666.1226,-272.5001"/>
</g>
<!-- Node54&#45;&gt;Node50 -->
<g id="edge16" class="edge">
<title>Node54&#45;&gt;Node50</title>
<path fill="none" stroke="#191970" d="M634.2081,-288.0928C689.4561,-301.8654 788.701,-319.4912 869,-295 912.1926,-281.8262 953.8359,-246.0044 972.1983,-228.6628"/>
<polygon fill="#191970" stroke="#191970" points="634.9751,-284.6763 624.4186,-285.5771 633.2327,-291.456 634.9751,-284.6763"/>
</g>
<!-- Node55&#45;&gt;Node50 -->
<g id="edge27" class="edge">
<title>Node55&#45;&gt;Node50</title>
<path fill="none" stroke="#191970" d="M465.6036,-167.2591C468.5461,-165.6917 471.3666,-163.9454 474,-162 498.0999,-144.1962 484.5902,-120.8783 510,-105 645.5634,-20.2879 724.2863,-15.0919 869,-83 926.8035,-110.1248 965.274,-182.953 977.6682,-209.31"/>
<polygon fill="#191970" stroke="#191970" points="464.106,-164.0953 456.4754,-171.4455 467.0241,-170.4581 464.106,-164.0953"/>
</g>
<!-- Node56 -->
<g id="node14" class="node">
<title>Node56</title>
<g id="a_node14"><a xlink:href="classLoopManager.html#a8efb4c8acabceb10faa8660c14c89d71" target="_top" xlink:title="LoopManager::DeletePulse">
<polygon fill="#ffffff" stroke="#000000" points="716.5,-152.5 716.5,-171.5 862.5,-171.5 862.5,-152.5 716.5,-152.5"/>
<text text-anchor="middle" x="789.5" y="-159.5" font-family="Helvetica,sans-Serif" font-size="10.00" fill="#000000">LoopManager::DeletePulse</text>
</a>
</g>
</g>
<!-- Node55&#45;&gt;Node56 -->
<g id="edge18" class="edge">
<title>Node55&#45;&gt;Node56</title>
<path fill="none" stroke="#191970" d="M481.0094,-177.2045C549.541,-173.8268 649.0725,-168.9212 716.3936,-165.6032"/>
<polygon fill="#191970" stroke="#191970" points="480.5244,-173.724 470.7089,-177.7121 480.8691,-180.7155 480.5244,-173.724"/>
</g>
<!-- Node57 -->
<g id="node15" class="node">
<title>Node57</title>
<g id="a_node15"><a xlink:href="classLoopManager.html#a332a9868980750f28fbf0e05b2336174" target="_top" xlink:title="LoopManager::DeleteLoop">
<polygon fill="#ffffff" stroke="#000000" points="520.5,-114.5 520.5,-133.5 663.5,-133.5 663.5,-114.5 520.5,-114.5"/>
<text text-anchor="middle" x="592" y="-121.5" font-family="Helvetica,sans-Serif" font-size="10.00" fill="#000000">LoopManager::DeleteLoop</text>
</a>
</g>
</g>
<!-- Node55&#45;&gt;Node57 -->
<g id="edge20" class="edge">
<title>Node55&#45;&gt;Node57</title>
<path fill="none" stroke="#191970" d="M451.7225,-168.7741C459.2172,-166.6451 466.8475,-164.3541 474,-162 490.3067,-156.6329 493.7469,-153.5274 510,-148 525.3074,-142.7943 542.4453,-137.6706 557.0799,-133.5028"/>
<polygon fill="#191970" stroke="#191970" points="450.7003,-165.4254 441.9997,-171.4711 452.5714,-172.1707 450.7003,-165.4254"/>
</g>
<!-- Node59 -->
<g id="node17" class="node">
<title>Node59</title>
<g id="a_node17"><a xlink:href="classLoopManager.html#a861cdd2ace9aeb53b4ecf92728215265" target="_top" xlink:title="LoopManager::Deactivate">
<polygon fill="#ffffff" stroke="#000000" points="521.5,-190.5 521.5,-209.5 662.5,-209.5 662.5,-190.5 521.5,-190.5"/>
<text text-anchor="middle" x="592" y="-197.5" font-family="Helvetica,sans-Serif" font-size="10.00" fill="#000000">LoopManager::Deactivate</text>
</a>
</g>
</g>
<!-- Node55&#45;&gt;Node59 -->
<g id="edge24" class="edge">
<title>Node55&#45;&gt;Node59</title>
<path fill="none" stroke="#191970" d="M480.7212,-188.7537C494.1766,-190.1136 508.1211,-191.5229 521.4002,-192.8649"/>
<polygon fill="#191970" stroke="#191970" points="480.8476,-185.2488 470.5463,-187.7254 480.1437,-192.2133 480.8476,-185.2488"/>
</g>
<!-- Node56&#45;&gt;Node50 -->
<g id="edge19" class="edge">
<title>Node56&#45;&gt;Node50</title>
<path fill="none" stroke="#191970" d="M831.3265,-174.385C866.8675,-184.9088 917.1557,-199.7993 949.6747,-209.4284"/>
<polygon fill="#191970" stroke="#191970" points="832.3024,-171.0238 821.7202,-171.5405 830.3149,-177.7357 832.3024,-171.0238"/>
</g>
<!-- Node57&#45;&gt;Node50 -->
<g id="edge23" class="edge">
<title>Node57&#45;&gt;Node50</title>
<path fill="none" stroke="#191970" d="M628.4582,-111.4809C683.086,-94.8877 788.369,-71.3933 869,-105 921.2163,-126.7636 961.6752,-185.6946 976.1896,-209.1629"/>
<polygon fill="#191970" stroke="#191970" points="627.3628,-108.1563 618.8648,-114.4836 629.4538,-114.8367 627.3628,-108.1563"/>
</g>
<!-- Node57&#45;&gt;Node56 -->
<g id="edge22" class="edge">
<title>Node57&#45;&gt;Node56</title>
<path fill="none" stroke="#191970" d="M651.7147,-135.4894C679.8946,-140.9114 713.129,-147.3058 739.8969,-152.4561"/>
<polygon fill="#191970" stroke="#191970" points="652.0639,-131.9925 641.5827,-133.54 650.7412,-138.8664 652.0639,-131.9925"/>
</g>
<!-- Node58 -->
<g id="node16" class="node">
<title>Node58</title>
<g id="a_node16"><a xlink:href="classLoopManager.html#a6048a702c9cec3676a1c56792b16ec44" target="_top" xlink:title="LoopManager::ReadComplete">
<polygon fill="#ffffff" stroke="#000000" points="710,-114.5 710,-133.5 869,-133.5 869,-114.5 710,-114.5"/>
<text text-anchor="middle" x="789.5" y="-121.5" font-family="Helvetica,sans-Serif" font-size="10.00" fill="#000000">LoopManager::ReadComplete</text>
</a>
</g>
</g>
<!-- Node57&#45;&gt;Node58 -->
<g id="edge21" class="edge">
<title>Node57&#45;&gt;Node58</title>
<path fill="none" stroke="#191970" d="M673.9077,-124C685.7768,-124 697.9804,-124 709.8052,-124"/>
<polygon fill="#191970" stroke="#191970" points="673.5813,-120.5001 663.5813,-124 673.5812,-127.5001 673.5813,-120.5001"/>
</g>
<!-- Node59&#45;&gt;Node49 -->
<g id="edge25" class="edge">
<title>Node59&#45;&gt;Node49</title>
<path fill="none" stroke="#191970" d="M651.2692,-212.0108C658.996,-214.0774 666.7428,-216.4078 674,-219 710.8514,-232.1629 751.2933,-253.9658 773.196,-266.4451"/>
<polygon fill="#191970" stroke="#191970" points="652.0851,-208.6069 641.5309,-209.5344 650.3599,-215.391 652.0851,-208.6069"/>
</g>
<!-- Node59&#45;&gt;Node50 -->
<g id="edge26" class="edge">
<title>Node59&#45;&gt;Node50</title>
<path fill="none" stroke="#191970" d="M672.8847,-203.9405C741.0207,-207.26 837.8363,-211.9766 904.8858,-215.2432"/>
<polygon fill="#191970" stroke="#191970" points="672.7846,-200.4316 662.6261,-203.4408 672.4439,-207.4233 672.7846,-200.4316"/>
</g>
<!-- Node61 -->
<g id="node19" class="node">
<title>Node61</title>
<g id="a_node19"><a xlink:href="classRecordProcessor.html#a6168d8dc850602a348dc74ab1224263a" target="_top" xlink:title="RecordProcessor::PulseSync">
<polygon fill="#ffffff" stroke="#000000" points="516,-.5 516,-19.5 668,-19.5 668,-.5 516,-.5"/>
<text text-anchor="middle" x="592" y="-7.5" font-family="Helvetica,sans-Serif" font-size="10.00" fill="#000000">RecordProcessor::PulseSync</text>
</a>
</g>
</g>
<!-- Node60&#45;&gt;Node61 -->
<g id="edge29" class="edge">
<title>Node60&#45;&gt;Node61</title>
<path fill="none" stroke="#191970" d="M465.3342,-91.2116C468.3635,-89.6563 471.2747,-87.9257 474,-86 496.9564,-69.7788 487.2044,-50.4464 510,-34 518.7814,-27.6644 529.2225,-22.9906 539.6625,-19.5459"/>
<polygon fill="#191970" stroke="#191970" points="463.6805,-88.1163 455.9593,-95.3713 466.5195,-94.5147 463.6805,-88.1163"/>
</g>
<!-- Node64 -->
<g id="node22" class="node">
<title>Node64</title>
<g id="a_node22"><a xlink:href="classRootProcessor.html#a014d1405fbd7d67ee4edeb19713ded04" target="_top" xlink:title="RootProcessor::process">
<polygon fill="#ffffff" stroke="#000000" points="339.5,-57.5 339.5,-76.5 468.5,-76.5 468.5,-57.5 339.5,-57.5"/>
<text text-anchor="middle" x="404" y="-64.5" font-family="Helvetica,sans-Serif" font-size="10.00" fill="#000000">RootProcessor::process</text>
</a>
</g>
</g>
<!-- Node63&#45;&gt;Node64 -->
<g id="edge32" class="edge">
<title>Node63&#45;&gt;Node64</title>
<path fill="none" stroke="#191970" d="M276.9069,-93.319C302.9296,-87.9301 333.4301,-81.6139 358.0282,-76.5201"/>
<polygon fill="#191970" stroke="#191970" points="275.8873,-89.9558 266.8048,-95.411 277.3068,-96.8104 275.8873,-89.9558"/>
</g>
</g>
</svg>
