<?xml version="1.0" encoding="UTF-8" standalone="no"?>
<!DOCTYPE svg PUBLIC "-//W3C//DTD SVG 1.1//EN"
 "http://www.w3.org/Graphics/SVG/1.1/DTD/svg11.dtd">
<!-- Generated by graphviz version 2.40.1 (20161225.0304)
 -->
<!-- Title: MemoryManager::WakeupIfNeeded Pages: 1 -->
<svg width="1392pt" height="294pt"
 viewBox="0.00 0.00 1392.00 294.00" xmlns="http://www.w3.org/2000/svg" xmlns:xlink="http://www.w3.org/1999/xlink">
<g id="graph0" class="graph" transform="scale(1 1) rotate(0) translate(4 290)">
<title>MemoryManager::WakeupIfNeeded</title>
<polygon fill="#ffffff" stroke="transparent" points="-4,4 -4,-290 1388,-290 1388,4 -4,4"/>
<!-- Node77 -->
<g id="node1" class="node">
<title>Node77</title>
<polygon fill="#bfbfbf" stroke="#000000" points="0,-147.5 0,-166.5 188,-166.5 188,-147.5 0,-147.5"/>
<text text-anchor="middle" x="94" y="-154.5" font-family="Helvetica,sans-Serif" font-size="10.00" fill="#000000">MemoryManager::WakeupIfNeeded</text>
</g>
<!-- Node78 -->
<g id="node2" class="node">
<title>Node78</title>
<g id="a_node2"><a xlink:href="classAudioIO.html#aa131b2f89b09eeb058f56676833bf2df" target="_top" xlink:title="AudioIO::process">
<polygon fill="#ffffff" stroke="#000000" points="247.5,-180.5 247.5,-199.5 345.5,-199.5 345.5,-180.5 247.5,-180.5"/>
<text text-anchor="middle" x="296.5" y="-187.5" font-family="Helvetica,sans-Serif" font-size="10.00" fill="#000000">AudioIO::process</text>
</a>
</g>
</g>
<!-- Node77&#45;&gt;Node78 -->
<g id="edge1" class="edge">
<title>Node77&#45;&gt;Node78</title>
<path fill="none" stroke="#191970" d="M162.3567,-168.1396C190.159,-172.6704 221.6736,-177.8061 247.1678,-181.9607"/>
<polygon fill="#191970" stroke="#191970" points="162.7325,-164.6548 152.2997,-166.5007 161.6065,-171.5636 162.7325,-164.6548"/>
</g>
<!-- Node81 -->
<g id="node5" class="node">
<title>Node81</title>
<g id="a_node5"><a xlink:href="classMemoryManager.html#a3971e97751f5eccd04086eb2e6fb6f43" target="_top" xlink:title="MemoryManager::WakeUp">
<polygon fill="#ffffff" stroke="#000000" points="224,-128.5 224,-147.5 369,-147.5 369,-128.5 224,-128.5"/>
<text text-anchor="middle" x="296.5" y="-135.5" font-family="Helvetica,sans-Serif" font-size="10.00" fill="#000000">MemoryManager::WakeUp</text>
</a>
</g>
</g>
<!-- Node77&#45;&gt;Node81 -->
<g id="edge5" class="edge">
<title>Node77&#45;&gt;Node81</title>
<path fill="none" stroke="#191970" d="M198.2617,-147.2174C206.8886,-146.408 215.4863,-145.6013 223.804,-144.8209"/>
<polygon fill="#191970" stroke="#191970" points="197.7654,-143.7485 188.1361,-148.1675 198.4193,-150.7179 197.7654,-143.7485"/>
</g>
<!-- Node79 -->
<g id="node3" class="node">
<title>Node79</title>
<g id="a_node3"><a xlink:href="classAudioIO.html#a1e4157d1900df901a60d5a2260d7509c" target="_top" xlink:title="AudioIO::open">
<polygon fill="#ffffff" stroke="#000000" points="437.5,-218.5 437.5,-237.5 522.5,-237.5 522.5,-218.5 437.5,-218.5"/>
<text text-anchor="middle" x="480" y="-225.5" font-family="Helvetica,sans-Serif" font-size="10.00" fill="#000000">AudioIO::open</text>
</a>
</g>
</g>
<!-- Node78&#45;&gt;Node79 -->
<g id="edge2" class="edge">
<title>Node78&#45;&gt;Node79</title>
<path fill="none" stroke="#191970" d="M352.6207,-201.6217C379.9372,-207.2785 412.2421,-213.9684 437.4835,-219.1955"/>
<polygon fill="#191970" stroke="#191970" points="353.3068,-198.1896 342.8048,-199.589 351.8873,-205.0442 353.3068,-198.1896"/>
</g>
<!-- Node80 -->
<g id="node4" class="node">
<title>Node80</title>
<g id="a_node4"><a xlink:href="classAudioIO.html#a012ce924f59ced78f2fac75e6e33b55c" target="_top" xlink:title="AudioIO::AudioIO">
<polygon fill="#ffffff" stroke="#000000" points="633.5,-218.5 633.5,-237.5 732.5,-237.5 732.5,-218.5 633.5,-218.5"/>
<text text-anchor="middle" x="683" y="-225.5" font-family="Helvetica,sans-Serif" font-size="10.00" fill="#000000">AudioIO::AudioIO</text>
</a>
</g>
</g>
<!-- Node78&#45;&gt;Node80 -->
<g id="edge4" class="edge">
<title>Node78&#45;&gt;Node80</title>
<path fill="none" stroke="#191970" d="M355.8092,-193.1088C408.2778,-196.1568 486.8631,-201.4494 555,-209 580.9017,-211.8703 609.6112,-216.0405 633.2658,-219.7433"/>
<polygon fill="#191970" stroke="#191970" points="355.8582,-189.6059 345.6746,-192.5291 355.4584,-196.5945 355.8582,-189.6059"/>
</g>
<!-- Node79&#45;&gt;Node80 -->
<g id="edge3" class="edge">
<title>Node79&#45;&gt;Node80</title>
<path fill="none" stroke="#191970" d="M532.757,-228C563.8111,-228 602.8479,-228 633.3467,-228"/>
<polygon fill="#191970" stroke="#191970" points="532.5555,-224.5001 522.5555,-228 532.5554,-231.5001 532.5555,-224.5001"/>
</g>
<!-- Node82 -->
<g id="node6" class="node">
<title>Node82</title>
<g id="a_node6"><a xlink:href="classPreallocatedType.html#ae8a5326530dd0f38ecbb094f7818bd42" target="_top" xlink:title="PreallocatedType::RTNew">
<polygon fill="#ffffff" stroke="#000000" points="410,-128.5 410,-147.5 550,-147.5 550,-128.5 410,-128.5"/>
<text text-anchor="middle" x="480" y="-135.5" font-family="Helvetica,sans-Serif" font-size="10.00" fill="#000000">PreallocatedType::RTNew</text>
</a>
</g>
</g>
<!-- Node81&#45;&gt;Node82 -->
<g id="edge6" class="edge">
<title>Node81&#45;&gt;Node82</title>
<path fill="none" stroke="#191970" d="M379.1807,-138C389.407,-138 399.7851,-138 409.8001,-138"/>
<polygon fill="#191970" stroke="#191970" points="379.0241,-134.5001 369.0241,-138 379.024,-141.5001 379.0241,-134.5001"/>
</g>
<!-- Node96 -->
<g id="node20" class="node">
<title>Node96</title>
<g id="a_node20"><a xlink:href="classPreallocatedType.html#afe3e5f83fa9c611ec4b94d6870979f27" target="_top" xlink:title="PreallocatedType::RTDelete">
<polygon fill="#ffffff" stroke="#000000" points="405,-90.5 405,-109.5 555,-109.5 555,-90.5 405,-90.5"/>
<text text-anchor="middle" x="480" y="-97.5" font-family="Helvetica,sans-Serif" font-size="10.00" fill="#000000">PreallocatedType::RTDelete</text>
</a>
</g>
</g>
<!-- Node81&#45;&gt;Node96 -->
<g id="edge22" class="edge">
<title>Node81&#45;&gt;Node96</title>
<path fill="none" stroke="#191970" d="M352.9069,-126.319C378.9296,-120.9301 409.4301,-114.6139 434.0282,-109.5201"/>
<polygon fill="#191970" stroke="#191970" points="351.8873,-122.9558 342.8048,-128.411 353.3068,-129.8104 351.8873,-122.9558"/>
</g>
<!-- Node83 -->
<g id="node7" class="node">
<title>Node83</title>
<g id="a_node7"><a xlink:href="classAudioBlockIterator.html#a5cc11c9589308f5da0fea19c701c84b3" target="_top" xlink:title="AudioBlockIterator\l::PutFragment">
<polygon fill="#ffffff" stroke="#000000" points="629.5,-169 629.5,-199 736.5,-199 736.5,-169 629.5,-169"/>
<text text-anchor="start" x="637.5" y="-187" font-family="Helvetica,sans-Serif" font-size="10.00" fill="#000000">AudioBlockIterator</text>
<text text-anchor="middle" x="683" y="-176" font-family="Helvetica,sans-Serif" font-size="10.00" fill="#000000">::PutFragment</text>
</a>
</g>
</g>
<!-- Node82&#45;&gt;Node83 -->
<g id="edge7" class="edge">
<title>Node82&#45;&gt;Node83</title>
<path fill="none" stroke="#191970" d="M531.8794,-149.7559C561.7522,-156.5251 599.2307,-165.0178 629.3903,-171.852"/>
<polygon fill="#191970" stroke="#191970" points="532.588,-146.3278 522.0617,-147.5312 531.041,-153.1547 532.588,-146.3278"/>
</g>
<!-- Node89 -->
<g id="node13" class="node">
<title>Node89</title>
<g id="a_node13"><a xlink:href="classRecordProcessor.html#aa20c0f68a5ee5e4739759b3783b6e4d1" target="_top" xlink:title="RecordProcessor::RecordProcessor">
<polygon fill="#ffffff" stroke="#000000" points="1011,-95.5 1011,-114.5 1194,-114.5 1194,-95.5 1011,-95.5"/>
<text text-anchor="middle" x="1102.5" y="-102.5" font-family="Helvetica,sans-Serif" font-size="10.00" fill="#000000">RecordProcessor::RecordProcessor</text>
</a>
</g>
</g>
<!-- Node82&#45;&gt;Node89 -->
<g id="edge13" class="edge">
<title>Node82&#45;&gt;Node89</title>
<path fill="none" stroke="#191970" d="M560.4098,-133.7373C676.1802,-127.6001 889.24,-116.3053 1010.9237,-109.8546"/>
<polygon fill="#191970" stroke="#191970" points="559.9993,-130.2541 550.1986,-134.2786 560.3699,-137.2443 559.9993,-130.2541"/>
</g>
<!-- Node90 -->
<g id="node14" class="node">
<title>Node90</title>
<g id="a_node14"><a xlink:href="classPreallocatedType.html#a232eab10b1d49ee50f435d175c4ceda5" target="_top" xlink:title="PreallocatedType::RTNewWithWait">
<polygon fill="#ffffff" stroke="#000000" points="591,-57.5 591,-76.5 775,-76.5 775,-57.5 591,-57.5"/>
<text text-anchor="middle" x="683" y="-64.5" font-family="Helvetica,sans-Serif" font-size="10.00" fill="#000000">PreallocatedType::RTNewWithWait</text>
</a>
</g>
</g>
<!-- Node82&#45;&gt;Node90 -->
<g id="edge14" class="edge">
<title>Node82&#45;&gt;Node90</title>
<path fill="none" stroke="#191970" d="M531.7657,-125.8813C539.6016,-123.7604 547.5516,-121.4435 555,-119 593.5166,-106.3642 636.9625,-87.7497 662.0436,-76.557"/>
<polygon fill="#191970" stroke="#191970" points="530.7316,-122.5341 521.9475,-128.4578 532.5085,-129.3048 530.7316,-122.5341"/>
</g>
<!-- Node84 -->
<g id="node8" class="node">
<title>Node84</title>
<g id="a_node8"><a xlink:href="classSndFileDecoder.html#a6f533159127e8f633a12c6fe3f86b4a2" target="_top" xlink:title="SndFileDecoder::ReadSamples">
<polygon fill="#ffffff" stroke="#000000" points="811,-266.5 811,-285.5 975,-285.5 975,-266.5 811,-266.5"/>
<text text-anchor="middle" x="893" y="-273.5" font-family="Helvetica,sans-Serif" font-size="10.00" fill="#000000">SndFileDecoder::ReadSamples</text>
</a>
</g>
</g>
<!-- Node83&#45;&gt;Node84 -->
<g id="edge8" class="edge">
<title>Node83&#45;&gt;Node84</title>
<path fill="none" stroke="#191970" d="M746.3647,-195.2345C756.4513,-198.6707 766.3862,-203.1535 775,-209 797.0643,-223.9759 788.6578,-242.442 811,-257 816.9993,-260.9091 823.7062,-264.0178 830.63,-266.4894"/>
<polygon fill="#191970" stroke="#191970" points="747.2729,-191.852 736.6855,-192.2503 745.2105,-198.5413 747.2729,-191.852"/>
</g>
<!-- Node85 -->
<g id="node9" class="node">
<title>Node85</title>
<g id="a_node9"><a xlink:href="classVorbisDecoder.html#a605d498b0a32990607910576964da546" target="_top" xlink:title="VorbisDecoder::ReadSamples">
<polygon fill="#ffffff" stroke="#000000" points="813.5,-228.5 813.5,-247.5 972.5,-247.5 972.5,-228.5 813.5,-228.5"/>
<text text-anchor="middle" x="893" y="-235.5" font-family="Helvetica,sans-Serif" font-size="10.00" fill="#000000">VorbisDecoder::ReadSamples</text>
</a>
</g>
</g>
<!-- Node83&#45;&gt;Node85 -->
<g id="edge9" class="edge">
<title>Node83&#45;&gt;Node85</title>
<path fill="none" stroke="#191970" d="M746.4145,-201.1821C755.9954,-203.7926 765.7607,-206.4614 775,-209 791.0124,-213.3995 794.9076,-214.9026 811,-219 823.7453,-222.2452 837.6639,-225.5569 850.3557,-228.4873"/>
<polygon fill="#191970" stroke="#191970" points="747.095,-197.7401 736.5268,-198.4908 745.2565,-204.4943 747.095,-197.7401"/>
</g>
<!-- Node86 -->
<g id="node10" class="node">
<title>Node86</title>
<g id="a_node10"><a xlink:href="classRecordProcessor.html#a8fbde2e8b6f9e9dafb89ef0b06e6a11a" target="_top" xlink:title="RecordProcessor::Jump">
<polygon fill="#ffffff" stroke="#000000" points="829,-190.5 829,-209.5 957,-209.5 957,-190.5 829,-190.5"/>
<text text-anchor="middle" x="893" y="-197.5" font-family="Helvetica,sans-Serif" font-size="10.00" fill="#000000">RecordProcessor::Jump</text>
</a>
</g>
</g>
<!-- Node83&#45;&gt;Node86 -->
<g id="edge10" class="edge">
<title>Node83&#45;&gt;Node86</title>
<path fill="none" stroke="#191970" d="M746.6538,-188.8498C772.6436,-190.83 802.6554,-193.1166 828.7101,-195.1017"/>
<polygon fill="#191970" stroke="#191970" points="746.7723,-185.3488 736.5352,-188.0789 746.2404,-192.3286 746.7723,-185.3488"/>
</g>
<!-- Node88 -->
<g id="node12" class="node">
<title>Node88</title>
<g id="a_node12"><a xlink:href="classRecordProcessor.html#ad36d69ec9d41b424eb2e6c5fa2e0cf3a" target="_top" xlink:title="RecordProcessor::process">
<polygon fill="#ffffff" stroke="#000000" points="823,-152.5 823,-171.5 963,-171.5 963,-152.5 823,-152.5"/>
<text text-anchor="middle" x="893" y="-159.5" font-family="Helvetica,sans-Serif" font-size="10.00" fill="#000000">RecordProcessor::process</text>
</a>
</g>
</g>
<!-- Node83&#45;&gt;Node88 -->
<g id="edge12" class="edge">
<title>Node83&#45;&gt;Node88</title>
<path fill="none" stroke="#191970" d="M746.627,-177.3343C770.7114,-174.8112 798.2529,-171.9259 822.8997,-169.3438"/>
<polygon fill="#191970" stroke="#191970" points="746.1161,-173.8686 736.5352,-178.3915 746.8455,-180.8305 746.1161,-173.8686"/>
</g>
<!-- Node87 -->
<g id="node11" class="node">
<title>Node87</title>
<g id="a_node11"><a xlink:href="classRecordProcessor.html#a6168d8dc850602a348dc74ab1224263a" target="_top" xlink:title="RecordProcessor::PulseSync">
<polygon fill="#ffffff" stroke="#000000" points="1026.5,-190.5 1026.5,-209.5 1178.5,-209.5 1178.5,-190.5 1026.5,-190.5"/>
<text text-anchor="middle" x="1102.5" y="-197.5" font-family="Helvetica,sans-Serif" font-size="10.00" fill="#000000">RecordProcessor::PulseSync</text>
</a>
</g>
</g>
<!-- Node86&#45;&gt;Node87 -->
<g id="edge11" class="edge">
<title>Node86&#45;&gt;Node87</title>
<path fill="none" stroke="#191970" d="M967.4059,-200C986.4799,-200 1007.023,-200 1026.1914,-200"/>
<polygon fill="#191970" stroke="#191970" points="967.2807,-196.5001 957.2807,-200 967.2806,-203.5001 967.2807,-196.5001"/>
</g>
<!-- Node91 -->
<g id="node15" class="node">
<title>Node91</title>
<g id="a_node15"><a xlink:href="classBlockReadManager.html#af12804c61f944904eedf8c9edf5cd3bd" target="_top" xlink:title="BlockReadManager::Start">
<polygon fill="#ffffff" stroke="#000000" points="1033,-38.5 1033,-57.5 1172,-57.5 1172,-38.5 1033,-38.5"/>
<text text-anchor="middle" x="1102.5" y="-45.5" font-family="Helvetica,sans-Serif" font-size="10.00" fill="#000000">BlockReadManager::Start</text>
</a>
</g>
</g>
<!-- Node90&#45;&gt;Node91 -->
<g id="edge15" class="edge">
<title>Node90&#45;&gt;Node91</title>
<path fill="none" stroke="#191970" d="M785.2428,-62.3692C862.0598,-58.89 965.2423,-54.2167 1032.7756,-51.158"/>
<polygon fill="#191970" stroke="#191970" points="784.8924,-58.8814 775.0611,-62.8304 785.2092,-65.8742 784.8924,-58.8814"/>
</g>
<!-- Node93 -->
<g id="node17" class="node">
<title>Node93</title>
<g id="a_node17"><a xlink:href="classBlockManager.html#ac12004ae7d335e81c7cbd463cd614b34" target="_top" xlink:title="BlockManager::GrowChainOn">
<polygon fill="#ffffff" stroke="#000000" points="814,-76.5 814,-95.5 972,-95.5 972,-76.5 814,-76.5"/>
<text text-anchor="middle" x="893" y="-83.5" font-family="Helvetica,sans-Serif" font-size="10.00" fill="#000000">BlockManager::GrowChainOn</text>
</a>
</g>
</g>
<!-- Node90&#45;&gt;Node93 -->
<g id="edge17" class="edge">
<title>Node90&#45;&gt;Node93</title>
<path fill="none" stroke="#191970" d="M785.1205,-76.2395C794.7518,-77.1109 804.4154,-77.9852 813.7869,-78.8331"/>
<polygon fill="#191970" stroke="#191970" points="785.3838,-72.7491 775.1091,-75.3337 784.753,-79.7206 785.3838,-72.7491"/>
</g>
<!-- Node94 -->
<g id="node18" class="node">
<title>Node94</title>
<g id="a_node18"><a xlink:href="classBlockManager.html#af050835c736257358a3f572f8422ff1d" target="_top" xlink:title="BlockManager::PeakAvgOn">
<polygon fill="#ffffff" stroke="#000000" points="819.5,-.5 819.5,-19.5 966.5,-19.5 966.5,-.5 819.5,-.5"/>
<text text-anchor="middle" x="893" y="-7.5" font-family="Helvetica,sans-Serif" font-size="10.00" fill="#000000">BlockManager::PeakAvgOn</text>
</a>
</g>
</g>
<!-- Node90&#45;&gt;Node94 -->
<g id="edge19" class="edge">
<title>Node90&#45;&gt;Node94</title>
<path fill="none" stroke="#191970" d="M728.1327,-54.7497C766.9317,-44.2185 822.1092,-29.2418 857.736,-19.5716"/>
<polygon fill="#191970" stroke="#191970" points="726.8832,-51.4621 718.1493,-57.4595 728.7169,-58.2177 726.8832,-51.4621"/>
</g>
<!-- Node92 -->
<g id="node16" class="node">
<title>Node92</title>
<g id="a_node16"><a xlink:href="classBlockReadManager.html#aa990976dec4a3ec5bd6384b54ce5f09b" target="_top" xlink:title="BlockReadManager::Manage">
<polygon fill="#ffffff" stroke="#000000" points="1230,-38.5 1230,-57.5 1384,-57.5 1384,-38.5 1230,-38.5"/>
<text text-anchor="middle" x="1307" y="-45.5" font-family="Helvetica,sans-Serif" font-size="10.00" fill="#000000">BlockReadManager::Manage</text>
</a>
</g>
</g>
<!-- Node91&#45;&gt;Node92 -->
<g id="edge16" class="edge">
<title>Node91&#45;&gt;Node92</title>
<path fill="none" stroke="#191970" d="M1182.2097,-48C1197.9047,-48 1214.3454,-48 1229.9508,-48"/>
<polygon fill="#191970" stroke="#191970" points="1182.0198,-44.5001 1172.0197,-48 1182.0197,-51.5001 1182.0198,-44.5001"/>
</g>
<!-- Node93&#45;&gt;Node89 -->
<g id="edge18" class="edge">
<title>Node93&#45;&gt;Node89</title>
<path fill="none" stroke="#191970" d="M982.3643,-94.1046C991.8042,-94.9608 1001.4144,-95.8323 1010.8793,-96.6907"/>
<polygon fill="#191970" stroke="#191970" points="982.4783,-90.6007 972.203,-93.1831 981.8459,-97.5721 982.4783,-90.6007"/>
</g>
<!-- Node94&#45;&gt;Node91 -->
<g id="edge20" class="edge">
<title>Node94&#45;&gt;Node91</title>
<path fill="none" stroke="#191970" d="M955.5575,-21.347C985.616,-26.7991 1021.2397,-33.2607 1049.8831,-38.4561"/>
<polygon fill="#191970" stroke="#191970" points="956.0594,-17.8809 945.5953,-19.54 954.8101,-24.7686 956.0594,-17.8809"/>
</g>
<!-- Node95 -->
<g id="node19" class="node">
<title>Node95</title>
<g id="a_node19"><a xlink:href="classRecordProcessor.html#a1aea5f833c59a12398b05b514b26b572" target="_top" xlink:title="RecordProcessor::RecordProcessor">
<polygon fill="#ffffff" stroke="#000000" points="1011,-.5 1011,-19.5 1194,-19.5 1194,-.5 1011,-.5"/>
<text text-anchor="middle" x="1102.5" y="-7.5" font-family="Helvetica,sans-Serif" font-size="10.00" fill="#000000">RecordProcessor::RecordProcessor</text>
</a>
</g>
</g>
<!-- Node94&#45;&gt;Node95 -->
<g id="edge21" class="edge">
<title>Node94&#45;&gt;Node95</title>
<path fill="none" stroke="#191970" d="M976.7226,-10C987.8993,-10 999.4092,-10 1010.7144,-10"/>
<polygon fill="#191970" stroke="#191970" points="976.5673,-6.5001 966.5673,-10 976.5672,-13.5001 976.5673,-6.5001"/>
</g>
</g>
</svg>
