<?xml version="1.0" encoding="UTF-8" standalone="no"?>
<!DOCTYPE svg PUBLIC "-//W3C//DTD SVG 1.1//EN"
 "http://www.w3.org/Graphics/SVG/1.1/DTD/svg11.dtd">
<!-- Generated by graphviz version 2.40.1 (20161225.0304)
 -->
<!-- Title: RootProcessor::AdjustOutputVolume Pages: 1 -->
<svg width="541pt" height="39pt"
 viewBox="0.00 0.00 541.00 39.00" xmlns="http://www.w3.org/2000/svg" xmlns:xlink="http://www.w3.org/1999/xlink">
<g id="graph0" class="graph" transform="scale(1 1) rotate(0) translate(4 35)">
<title>RootProcessor::AdjustOutputVolume</title>
<polygon fill="#ffffff" stroke="transparent" points="-4,4 -4,-35 537,-35 537,4 -4,4"/>
<!-- Node35 -->
<g id="node1" class="node">
<title>Node35</title>
<polygon fill="#bfbfbf" stroke="#000000" points="0,-.5 0,-30.5 155,-30.5 155,-.5 0,-.5"/>
<text text-anchor="start" x="8" y="-18.5" font-family="Helvetica,sans-Serif" font-size="10.00" fill="#000000">RootProcessor::AdjustOutput</text>
<text text-anchor="middle" x="77.5" y="-7.5" font-family="Helvetica,sans-Serif" font-size="10.00" fill="#000000">Volume</text>
</g>
<!-- Node36 -->
<g id="node2" class="node">
<title>Node36</title>
<g id="a_node2"><a xlink:href="classLoopManager.html#aea540a972ff4cba15544e2af9ed33ff6" target="_top" xlink:title="LoopManager::AdjustOutput\lVolume">
<polygon fill="#ffffff" stroke="#000000" points="191,-.5 191,-30.5 343,-30.5 343,-.5 191,-.5"/>
<text text-anchor="start" x="199" y="-18.5" font-family="Helvetica,sans-Serif" font-size="10.00" fill="#000000">LoopManager::AdjustOutput</text>
<text text-anchor="middle" x="267" y="-7.5" font-family="Helvetica,sans-Serif" font-size="10.00" fill="#000000">Volume</text>
</a>
</g>
</g>
<!-- Node35&#45;&gt;Node36 -->
<g id="edge1" class="edge">
<title>Node35&#45;&gt;Node36</title>
<path fill="none" stroke="#191970" d="M165.3899,-15.5C173.8512,-15.5 182.3858,-15.5 190.722,-15.5"/>
<polygon fill="#191970" stroke="#191970" points="165.1237,-12.0001 155.1237,-15.5 165.1236,-19.0001 165.1237,-12.0001"/>
</g>
<!-- Node37 -->
<g id="node3" class="node">
<title>Node37</title>
<g id="a_node3"><a xlink:href="classLoopManager.html#a4aada2d07b7ce0a67a8119ece4805966" target="_top" xlink:title="LoopManager::ReceiveEvent">
<polygon fill="#ffffff" stroke="#000000" points="379,-6 379,-25 533,-25 533,-6 379,-6"/>
<text text-anchor="middle" x="456" y="-13" font-family="Helvetica,sans-Serif" font-size="10.00" fill="#000000">LoopManager::ReceiveEvent</text>
</a>
</g>
</g>
<!-- Node36&#45;&gt;Node37 -->
<g id="edge2" class="edge">
<title>Node36&#45;&gt;Node37</title>
<path fill="none" stroke="#191970" d="M353.0869,-15.5C361.6826,-15.5 370.3719,-15.5 378.8672,-15.5"/>
<polygon fill="#191970" stroke="#191970" points="353.0566,-12.0001 343.0566,-15.5 353.0565,-19.0001 353.0566,-12.0001"/>
</g>
</g>
</svg>
