<?xml version="1.0" encoding="UTF-8" standalone="no"?>
<!DOCTYPE svg PUBLIC "-//W3C//DTD SVG 1.1//EN"
 "http://www.w3.org/Graphics/SVG/1.1/DTD/svg11.dtd">
<!-- Generated by graphviz version 2.40.1 (20161225.0304)
 -->
<!-- Title: CfgMathOperation Pages: 1 -->
<svg width="499pt" height="546pt"
 viewBox="0.00 0.00 499.12 546.00" xmlns="http://www.w3.org/2000/svg" xmlns:xlink="http://www.w3.org/1999/xlink">
<g id="graph0" class="graph" transform="scale(1 1) rotate(0) translate(4 542)">
<title>CfgMathOperation</title>
<polygon fill="#ffffff" stroke="transparent" points="-4,4 -4,-542 495.1203,-542 495.1203,4 -4,4"/>
<!-- Node1 -->
<g id="node1" class="node">
<title>Node1</title>
<polygon fill="#bfbfbf" stroke="#000000" points="120.6448,-.5 120.6448,-57.5 244.6448,-57.5 244.6448,-.5 120.6448,-.5"/>
<text text-anchor="middle" x="182.6448" y="-45.5" font-family="Helvetica,sans-Serif" font-size="10.00" fill="#000000">CfgMathOperation</text>
<polyline fill="none" stroke="#000000" points="120.6448,-38.5 244.6448,-38.5 "/>
<text text-anchor="middle" x="182.6448" y="-26.5" font-family="Helvetica,sans-Serif" font-size="10.00" fill="#000000"> </text>
<polyline fill="none" stroke="#000000" points="120.6448,-19.5 244.6448,-19.5 "/>
<text text-anchor="start" x="128.6448" y="-7.5" font-family="Helvetica,sans-Serif" font-size="10.00" fill="#000000">+ CfgMathOperation()</text>
</g>
<!-- Node1&#45;&gt;Node1 -->
<g id="edge14" class="edge">
<title>Node1&#45;&gt;Node1</title>
<path fill="none" stroke="#404040" d="M244.6994,-38.1019C255.3003,-36.8582 262.6448,-33.8242 262.6448,-29 262.6448,-26.2864 260.321,-24.1392 256.4009,-22.5585"/>
<polygon fill="none" stroke="#404040" points="256.4008,-22.5585 249.6633,-25.1288 244.6994,-19.8981 251.4369,-17.3278 256.4008,-22.5585"/>
<text text-anchor="middle" x="279.6448" y="-26.5" font-family="Helvetica,sans-Serif" font-size="10.00" fill="#000000"> +next</text>
</g>
<!-- Node2 -->
<g id="node2" class="node">
<title>Node2</title>
<g id="a_node2"><a xlink:href="classCfgToken.html" target="_top" xlink:title="{CfgToken\n||+ CfgToken()\l+ Print()\l+ Evaluate()\l}">
<polygon fill="#ffffff" stroke="#000000" points="142.6448,-105.5 142.6448,-184.5 222.6448,-184.5 222.6448,-105.5 142.6448,-105.5"/>
<text text-anchor="middle" x="182.6448" y="-172.5" font-family="Helvetica,sans-Serif" font-size="10.00" fill="#000000">CfgToken</text>
<polyline fill="none" stroke="#000000" points="142.6448,-165.5 222.6448,-165.5 "/>
<text text-anchor="middle" x="182.6448" y="-153.5" font-family="Helvetica,sans-Serif" font-size="10.00" fill="#000000"> </text>
<polyline fill="none" stroke="#000000" points="142.6448,-146.5 222.6448,-146.5 "/>
<text text-anchor="start" x="150.6448" y="-134.5" font-family="Helvetica,sans-Serif" font-size="10.00" fill="#000000">+ CfgToken()</text>
<text text-anchor="start" x="150.6448" y="-123.5" font-family="Helvetica,sans-Serif" font-size="10.00" fill="#000000">+ Print()</text>
<text text-anchor="start" x="150.6448" y="-112.5" font-family="Helvetica,sans-Serif" font-size="10.00" fill="#000000">+ Evaluate()</text>
</a>
</g>
</g>
<!-- Node2&#45;&gt;Node1 -->
<g id="edge1" class="edge">
<title>Node2&#45;&gt;Node1</title>
<path fill="none" stroke="#404040" d="M182.6448,-105.4038C182.6448,-93.9323 182.6448,-81.3893 182.6448,-69.8431"/>
<polygon fill="none" stroke="#404040" points="182.6449,-69.8034 178.6449,-63.8034 182.6448,-57.8034 186.6449,-63.8034 182.6449,-69.8034"/>
<text text-anchor="middle" x="208.6448" y="-79" font-family="Helvetica,sans-Serif" font-size="10.00" fill="#000000"> +operand</text>
</g>
<!-- Node3 -->
<g id="node3" class="node">
<title>Node3</title>
<polygon fill="#ffffff" stroke="#bfbfbf" points="27.6448,-298.5 27.6448,-355.5 111.6448,-355.5 111.6448,-298.5 27.6448,-298.5"/>
<text text-anchor="middle" x="69.6448" y="-343.5" font-family="Helvetica,sans-Serif" font-size="10.00" fill="#000000">CfgTokenType</text>
<polyline fill="none" stroke="#bfbfbf" points="27.6448,-336.5 111.6448,-336.5 "/>
<text text-anchor="middle" x="69.6448" y="-324.5" font-family="Helvetica,sans-Serif" font-size="10.00" fill="#000000"> </text>
<polyline fill="none" stroke="#bfbfbf" points="27.6448,-317.5 111.6448,-317.5 "/>
<text text-anchor="middle" x="69.6448" y="-305.5" font-family="Helvetica,sans-Serif" font-size="10.00" fill="#000000"> </text>
</g>
<!-- Node3&#45;&gt;Node2 -->
<g id="edge2" class="edge">
<title>Node3&#45;&gt;Node2</title>
<path fill="none" stroke="#404040" d="M86.2983,-298.4697C95.9093,-282.1447 108.3034,-261.3283 119.6448,-243 129.33,-227.3483 140.0901,-210.4409 149.9373,-195.1483"/>
<polygon fill="none" stroke="#404040" points="150.0747,-194.9353 149.9691,-187.725 156.5842,-184.8543 156.6898,-192.0646 150.0747,-194.9353"/>
<text text-anchor="middle" x="157.1448" y="-211.5" font-family="Helvetica,sans-Serif" font-size="10.00" fill="#000000"> +cvt</text>
</g>
<!-- Node4 -->
<g id="node4" class="node">
<title>Node4</title>
<g id="a_node4"><a xlink:href="classUserVariable.html" target="_top" xlink:title="{UserVariable\n||+ UserVariable()\l+ ~UserVariable()\l+ RaisePrecision()\l+ operator\&gt;()\l+ operator==()\l+ operator!=()\l+ operator+=()\l+ GetDelta()\l+ operator&#45;=()\l+ operator*=()\land 18 more...\l}">
<polygon fill="#ffffff" stroke="#000000" points="129.1448,-243.5 129.1448,-410.5 236.1448,-410.5 236.1448,-243.5 129.1448,-243.5"/>
<text text-anchor="middle" x="182.6448" y="-398.5" font-family="Helvetica,sans-Serif" font-size="10.00" fill="#000000">UserVariable</text>
<polyline fill="none" stroke="#000000" points="129.1448,-391.5 236.1448,-391.5 "/>
<text text-anchor="middle" x="182.6448" y="-379.5" font-family="Helvetica,sans-Serif" font-size="10.00" fill="#000000"> </text>
<polyline fill="none" stroke="#000000" points="129.1448,-372.5 236.1448,-372.5 "/>
<text text-anchor="start" x="137.1448" y="-360.5" font-family="Helvetica,sans-Serif" font-size="10.00" fill="#000000">+ UserVariable()</text>
<text text-anchor="start" x="137.1448" y="-349.5" font-family="Helvetica,sans-Serif" font-size="10.00" fill="#000000">+ ~UserVariable()</text>
<text text-anchor="start" x="137.1448" y="-338.5" font-family="Helvetica,sans-Serif" font-size="10.00" fill="#000000">+ RaisePrecision()</text>
<text text-anchor="start" x="137.1448" y="-327.5" font-family="Helvetica,sans-Serif" font-size="10.00" fill="#000000">+ operator&gt;()</text>
<text text-anchor="start" x="137.1448" y="-316.5" font-family="Helvetica,sans-Serif" font-size="10.00" fill="#000000">+ operator==()</text>
<text text-anchor="start" x="137.1448" y="-305.5" font-family="Helvetica,sans-Serif" font-size="10.00" fill="#000000">+ operator!=()</text>
<text text-anchor="start" x="137.1448" y="-294.5" font-family="Helvetica,sans-Serif" font-size="10.00" fill="#000000">+ operator+=()</text>
<text text-anchor="start" x="137.1448" y="-283.5" font-family="Helvetica,sans-Serif" font-size="10.00" fill="#000000">+ GetDelta()</text>
<text text-anchor="start" x="137.1448" y="-272.5" font-family="Helvetica,sans-Serif" font-size="10.00" fill="#000000">+ operator&#45;=()</text>
<text text-anchor="start" x="137.1448" y="-261.5" font-family="Helvetica,sans-Serif" font-size="10.00" fill="#000000">+ operator*=()</text>
<text text-anchor="start" x="137.1448" y="-250.5" font-family="Helvetica,sans-Serif" font-size="10.00" fill="#000000">and 18 more...</text>
</a>
</g>
</g>
<!-- Node4&#45;&gt;Node2 -->
<g id="edge3" class="edge">
<title>Node4&#45;&gt;Node2</title>
<path fill="none" stroke="#404040" d="M182.6448,-243.4574C182.6448,-227.7014 182.6448,-211.6452 182.6448,-197.1953"/>
<polygon fill="none" stroke="#404040" points="182.6449,-196.9583 178.6449,-190.9583 182.6448,-184.9583 186.6449,-190.9582 182.6449,-196.9583"/>
<text text-anchor="middle" x="196.1448" y="-217" font-family="Helvetica,sans-Serif" font-size="10.00" fill="#000000"> +val</text>
<text text-anchor="middle" x="196.1448" y="-206" font-family="Helvetica,sans-Serif" font-size="10.00" fill="#000000">+var</text>
</g>
<!-- Node4&#45;&gt;Node4 -->
<g id="edge6" class="edge">
<title>Node4&#45;&gt;Node4</title>
<path fill="none" stroke="#404040" d="M236.277,-347.0656C246.7253,-344.7354 254.1448,-338.0469 254.1448,-327 254.1448,-320.4409 251.5291,-315.4183 247.2169,-311.9322"/>
<polygon fill="none" stroke="#404040" points="247.192,-311.9209 240.0723,-313.0659 236.277,-306.9344 243.3967,-305.7893 247.192,-311.9209"/>
<text text-anchor="middle" x="271.1448" y="-324.5" font-family="Helvetica,sans-Serif" font-size="10.00" fill="#000000"> +next</text>
</g>
<!-- Node5 -->
<g id="node5" class="node">
<title>Node5</title>
<polygon fill="#ffffff" stroke="#bfbfbf" points="81.6448,-480.5 81.6448,-537.5 119.6448,-537.5 119.6448,-480.5 81.6448,-480.5"/>
<text text-anchor="middle" x="100.6448" y="-525.5" font-family="Helvetica,sans-Serif" font-size="10.00" fill="#000000">char</text>
<polyline fill="none" stroke="#bfbfbf" points="81.6448,-518.5 119.6448,-518.5 "/>
<text text-anchor="middle" x="100.6448" y="-506.5" font-family="Helvetica,sans-Serif" font-size="10.00" fill="#000000"> </text>
<polyline fill="none" stroke="#bfbfbf" points="81.6448,-499.5 119.6448,-499.5 "/>
<text text-anchor="middle" x="100.6448" y="-487.5" font-family="Helvetica,sans-Serif" font-size="10.00" fill="#000000"> </text>
</g>
<!-- Node5&#45;&gt;Node1 -->
<g id="edge12" class="edge">
<title>Node5&#45;&gt;Node1</title>
<path fill="none" stroke="#404040" d="M81.2976,-493.3763C61.2243,-475.7981 31.0645,-445.1966 18.6448,-411 -6.8439,-340.8186 -5.3344,-313.7115 18.6448,-243 42.8223,-171.7037 101.3537,-105.5239 141.529,-66.1734"/>
<polygon fill="none" stroke="#404040" points="141.6657,-66.0417 143.2105,-58.998 150.3066,-57.7149 148.7617,-64.7586 141.6657,-66.0417"/>
<text text-anchor="middle" x="63.1448" y="-217" font-family="Helvetica,sans-Serif" font-size="10.00" fill="#000000"> +otype</text>
<text text-anchor="middle" x="63.1448" y="-206" font-family="Helvetica,sans-Serif" font-size="10.00" fill="#000000">+operators</text>
</g>
<!-- Node5&#45;&gt;Node4 -->
<g id="edge4" class="edge">
<title>Node5&#45;&gt;Node4</title>
<path fill="none" stroke="#404040" d="M95.7291,-480.4666C94.2773,-464.6641 94.6292,-445.0337 101.6448,-429 106.3078,-418.3433 112.9387,-419.7134 120.6448,-411 120.7311,-410.9024 120.8174,-410.8047 120.9038,-410.7069"/>
<polygon fill="none" stroke="#404040" points="121.1236,-410.4496 121.9809,-403.2896 128.9198,-401.3271 128.0625,-408.4871 121.1236,-410.4496"/>
<text text-anchor="middle" x="121.1448" y="-454" font-family="Helvetica,sans-Serif" font-size="10.00" fill="#000000"> +value</text>
<text text-anchor="middle" x="121.1448" y="-443" font-family="Helvetica,sans-Serif" font-size="10.00" fill="#000000">+data</text>
<text text-anchor="middle" x="121.1448" y="-432" font-family="Helvetica,sans-Serif" font-size="10.00" fill="#000000">+name</text>
</g>
<!-- Node7 -->
<g id="node7" class="node">
<title>Node7</title>
<g id="a_node7"><a xlink:href="classEventParameter.html" target="_top" xlink:title="{EventParameter\n||+ EventParameter()\l}">
<polygon fill="#ffffff" stroke="#000000" points="306.1448,-298.5 306.1448,-355.5 419.1448,-355.5 419.1448,-298.5 306.1448,-298.5"/>
<text text-anchor="middle" x="362.6448" y="-343.5" font-family="Helvetica,sans-Serif" font-size="10.00" fill="#000000">EventParameter</text>
<polyline fill="none" stroke="#000000" points="306.1448,-336.5 419.1448,-336.5 "/>
<text text-anchor="middle" x="362.6448" y="-324.5" font-family="Helvetica,sans-Serif" font-size="10.00" fill="#000000"> </text>
<polyline fill="none" stroke="#000000" points="306.1448,-317.5 419.1448,-317.5 "/>
<text text-anchor="start" x="314.1448" y="-305.5" font-family="Helvetica,sans-Serif" font-size="10.00" fill="#000000">+ EventParameter()</text>
</a>
</g>
</g>
<!-- Node5&#45;&gt;Node7 -->
<g id="edge8" class="edge">
<title>Node5&#45;&gt;Node7</title>
<path fill="none" stroke="#404040" d="M119.8681,-486.4202C139.1334,-464.044 166.8781,-432.5938 173.6448,-429 222.4391,-403.0855 248.8385,-438.6948 296.6448,-411 314.9433,-400.3995 330.0347,-382.5777 341.1458,-366.0704"/>
<polygon fill="none" stroke="#404040" points="341.4272,-365.6277 341.2714,-358.4183 347.8663,-355.5016 348.0222,-362.711 341.4272,-365.6277"/>
<text text-anchor="middle" x="193.6448" y="-443" font-family="Helvetica,sans-Serif" font-size="10.00" fill="#000000"> +name</text>
</g>
<!-- Node6 -->
<g id="node6" class="node">
<title>Node6</title>
<polygon fill="#ffffff" stroke="#bfbfbf" points="280.1448,-480.5 280.1448,-537.5 365.1448,-537.5 365.1448,-480.5 280.1448,-480.5"/>
<text text-anchor="middle" x="322.6448" y="-525.5" font-family="Helvetica,sans-Serif" font-size="10.00" fill="#000000">CoreDataType</text>
<polyline fill="none" stroke="#bfbfbf" points="280.1448,-518.5 365.1448,-518.5 "/>
<text text-anchor="middle" x="322.6448" y="-506.5" font-family="Helvetica,sans-Serif" font-size="10.00" fill="#000000"> </text>
<polyline fill="none" stroke="#bfbfbf" points="280.1448,-499.5 365.1448,-499.5 "/>
<text text-anchor="middle" x="322.6448" y="-487.5" font-family="Helvetica,sans-Serif" font-size="10.00" fill="#000000"> </text>
</g>
<!-- Node6&#45;&gt;Node4 -->
<g id="edge5" class="edge">
<title>Node6&#45;&gt;Node4</title>
<path fill="none" stroke="#404040" d="M300.4614,-480.1616C285.0796,-460.1652 263.7971,-432.498 243.5478,-406.1739"/>
<polygon fill="none" stroke="#404040" points="243.4637,-406.0645 236.6349,-403.7476 236.1471,-396.5529 242.9759,-398.8698 243.4637,-406.0645"/>
<text text-anchor="middle" x="302.6448" y="-443" font-family="Helvetica,sans-Serif" font-size="10.00" fill="#000000"> +type</text>
</g>
<!-- Node6&#45;&gt;Node7 -->
<g id="edge10" class="edge">
<title>Node6&#45;&gt;Node7</title>
<path fill="none" stroke="#404040" d="M325.5996,-480.323C327.426,-465.0038 330.1037,-445.8766 333.6448,-429 337.9556,-408.4555 344.1794,-385.977 349.757,-367.363"/>
<polygon fill="none" stroke="#404040" points="349.7989,-367.2253 347.7249,-360.3189 353.3023,-355.7481 355.3764,-362.6545 349.7989,-367.2253"/>
<text text-anchor="middle" x="353.6448" y="-443" font-family="Helvetica,sans-Serif" font-size="10.00" fill="#000000"> +dtype</text>
</g>
<!-- Node7&#45;&gt;Node2 -->
<g id="edge7" class="edge">
<title>Node7&#45;&gt;Node2</title>
<path fill="none" stroke="#404040" d="M342.2437,-298.2551C329.8147,-281.4806 313.1851,-260.2863 296.6448,-243 276.7728,-222.2317 252.9,-201.1951 232.1468,-183.9648"/>
<polygon fill="none" stroke="#404040" points="232.1279,-183.9493 224.9527,-183.2304 222.8565,-176.3307 230.0317,-177.0495 232.1279,-183.9493"/>
<text text-anchor="middle" x="304.1448" y="-211.5" font-family="Helvetica,sans-Serif" font-size="10.00" fill="#000000"> +evparam</text>
</g>
<!-- Node8 -->
<g id="node8" class="node">
<title>Node8</title>
<polygon fill="#ffffff" stroke="#bfbfbf" points="390.1448,-480.5 390.1448,-537.5 419.1448,-537.5 419.1448,-480.5 390.1448,-480.5"/>
<text text-anchor="middle" x="404.6448" y="-525.5" font-family="Helvetica,sans-Serif" font-size="10.00" fill="#000000">int</text>
<polyline fill="none" stroke="#bfbfbf" points="390.1448,-518.5 419.1448,-518.5 "/>
<text text-anchor="middle" x="404.6448" y="-506.5" font-family="Helvetica,sans-Serif" font-size="10.00" fill="#000000"> </text>
<polyline fill="none" stroke="#bfbfbf" points="390.1448,-499.5 419.1448,-499.5 "/>
<text text-anchor="middle" x="404.6448" y="-487.5" font-family="Helvetica,sans-Serif" font-size="10.00" fill="#000000"> </text>
</g>
<!-- Node8&#45;&gt;Node1 -->
<g id="edge13" class="edge">
<title>Node8&#45;&gt;Node1</title>
<path fill="none" stroke="#404040" d="M419.2315,-502.0257C433.2954,-494.3981 453.7206,-480.7183 462.6448,-462 487.7579,-409.3265 524.5658,-412.3836 428.6448,-243 384.2661,-164.6332 300.035,-101.0189 242.6265,-64.0882"/>
<polygon fill="none" stroke="#404040" points="242.3721,-63.9271 235.1629,-64.0953 232.2349,-57.5054 239.444,-57.3372 242.3721,-63.9271"/>
<text text-anchor="middle" x="441.1448" y="-211.5" font-family="Helvetica,sans-Serif" font-size="10.00" fill="#000000"> +numops</text>
</g>
<!-- Node8&#45;&gt;Node7 -->
<g id="edge9" class="edge">
<title>Node8&#45;&gt;Node7</title>
<path fill="none" stroke="#404040" d="M397.9898,-480.1616C390.9856,-449.8099 379.903,-401.7856 372.0163,-367.6097"/>
<polygon fill="none" stroke="#404040" points="371.9671,-367.3962 366.7203,-362.4493 369.2687,-355.7035 374.5155,-360.6504 371.9671,-367.3962"/>
<text text-anchor="middle" x="425.6448" y="-443" font-family="Helvetica,sans-Serif" font-size="10.00" fill="#000000"> +max_index</text>
</g>
<!-- Node9 -->
<g id="node9" class="node">
<title>Node9</title>
<polygon fill="#ffffff" stroke="#bfbfbf" points="206.6448,-480.5 206.6448,-537.5 244.6448,-537.5 244.6448,-480.5 206.6448,-480.5"/>
<text text-anchor="middle" x="225.6448" y="-525.5" font-family="Helvetica,sans-Serif" font-size="10.00" fill="#000000">long</text>
<polyline fill="none" stroke="#bfbfbf" points="206.6448,-518.5 244.6448,-518.5 "/>
<text text-anchor="middle" x="225.6448" y="-506.5" font-family="Helvetica,sans-Serif" font-size="10.00" fill="#000000"> </text>
<polyline fill="none" stroke="#bfbfbf" points="206.6448,-499.5 244.6448,-499.5 "/>
<text text-anchor="middle" x="225.6448" y="-487.5" font-family="Helvetica,sans-Serif" font-size="10.00" fill="#000000"> </text>
</g>
<!-- Node9&#45;&gt;Node7 -->
<g id="edge11" class="edge">
<title>Node9&#45;&gt;Node7</title>
<path fill="none" stroke="#404040" d="M218.0273,-480.2575C215.4076,-463.6084 215.4912,-443.2004 226.6448,-429 246.487,-403.7376 269.7443,-428.5575 296.6448,-411 314.099,-399.608 328.9479,-382.0298 340.1152,-365.8923"/>
<polygon fill="none" stroke="#404040" points="340.3104,-365.5959 340.2712,-358.3849 346.9124,-355.5752 346.9517,-362.7863 340.3104,-365.5959"/>
<text text-anchor="middle" x="240.1448" y="-443" font-family="Helvetica,sans-Serif" font-size="10.00" fill="#000000"> +ofs</text>
</g>
</g>
</svg>
