<?xml version="1.0" encoding="UTF-8" standalone="no"?>
<!DOCTYPE svg PUBLIC "-//W3C//DTD SVG 1.1//EN"
 "http://www.w3.org/Graphics/SVG/1.1/DTD/svg11.dtd">
<!-- Generated by graphviz version 2.40.1 (20161225.0304)
 -->
<!-- Title: BlockManager::StripeBlockOff Pages: 1 -->
<svg width="734pt" height="28pt"
 viewBox="0.00 0.00 734.00 28.00" xmlns="http://www.w3.org/2000/svg" xmlns:xlink="http://www.w3.org/1999/xlink">
<g id="graph0" class="graph" transform="scale(1 1) rotate(0) translate(4 24)">
<title>BlockManager::StripeBlockOff</title>
<polygon fill="#ffffff" stroke="transparent" points="-4,4 -4,-24 730,-24 730,4 -4,4"/>
<!-- Node181 -->
<g id="node1" class="node">
<title>Node181</title>
<polygon fill="#bfbfbf" stroke="#000000" points="0,-.5 0,-19.5 161,-19.5 161,-.5 0,-.5"/>
<text text-anchor="middle" x="80.5" y="-7.5" font-family="Helvetica,sans-Serif" font-size="10.00" fill="#000000">BlockManager::StripeBlockOff</text>
</g>
<!-- Node182 -->
<g id="node2" class="node">
<title>Node182</title>
<g id="a_node2"><a xlink:href="classLoopManager.html#a810b5807daa4272b2275d955190326df" target="_top" xlink:title="LoopManager::StripePulseOff">
<polygon fill="#ffffff" stroke="#000000" points="197,-.5 197,-19.5 354,-19.5 354,-.5 197,-.5"/>
<text text-anchor="middle" x="275.5" y="-7.5" font-family="Helvetica,sans-Serif" font-size="10.00" fill="#000000">LoopManager::StripePulseOff</text>
</a>
</g>
</g>
<!-- Node181&#45;&gt;Node182 -->
<g id="edge1" class="edge">
<title>Node181&#45;&gt;Node182</title>
<path fill="none" stroke="#191970" d="M171.4647,-10C179.903,-10 188.4068,-10 196.7218,-10"/>
<polygon fill="#191970" stroke="#191970" points="171.2216,-6.5001 161.2216,-10 171.2215,-13.5001 171.2216,-6.5001"/>
</g>
<!-- Node183 -->
<g id="node3" class="node">
<title>Node183</title>
<g id="a_node3"><a xlink:href="classLoopManager.html#a8efb4c8acabceb10faa8660c14c89d71" target="_top" xlink:title="LoopManager::DeletePulse">
<polygon fill="#ffffff" stroke="#000000" points="390,-.5 390,-19.5 536,-19.5 536,-.5 390,-.5"/>
<text text-anchor="middle" x="463" y="-7.5" font-family="Helvetica,sans-Serif" font-size="10.00" fill="#000000">LoopManager::DeletePulse</text>
</a>
</g>
</g>
<!-- Node182&#45;&gt;Node183 -->
<g id="edge2" class="edge">
<title>Node182&#45;&gt;Node183</title>
<path fill="none" stroke="#191970" d="M364.2403,-10C372.8283,-10 381.4725,-10 389.8836,-10"/>
<polygon fill="#191970" stroke="#191970" points="364.2019,-6.5001 354.2019,-10 364.2019,-13.5001 364.2019,-6.5001"/>
</g>
<!-- Node184 -->
<g id="node4" class="node">
<title>Node184</title>
<g id="a_node4"><a xlink:href="classLoopManager.html#a4aada2d07b7ce0a67a8119ece4805966" target="_top" xlink:title="LoopManager::ReceiveEvent">
<polygon fill="#ffffff" stroke="#000000" points="572,-.5 572,-19.5 726,-19.5 726,-.5 572,-.5"/>
<text text-anchor="middle" x="649" y="-7.5" font-family="Helvetica,sans-Serif" font-size="10.00" fill="#000000">LoopManager::ReceiveEvent</text>
</a>
</g>
</g>
<!-- Node183&#45;&gt;Node184 -->
<g id="edge3" class="edge">
<title>Node183&#45;&gt;Node184</title>
<path fill="none" stroke="#191970" d="M546.4738,-10C554.918,-10 563.4682,-10 571.8418,-10"/>
<polygon fill="#191970" stroke="#191970" points="546.2452,-6.5001 536.2451,-10 546.2451,-13.5001 546.2452,-6.5001"/>
</g>
</g>
</svg>
