<?xml version="1.0" encoding="UTF-8" standalone="no"?>
<!DOCTYPE svg PUBLIC "-//W3C//DTD SVG 1.1//EN"
 "http://www.w3.org/Graphics/SVG/1.1/DTD/svg11.dtd">
<!-- Generated by graphviz version 2.40.1 (20161225.0304)
 -->
<!-- Title: PreallocatedType::Cleanup Pages: 1 -->
<svg width="555pt" height="83pt"
 viewBox="0.00 0.00 555.00 83.00" xmlns="http://www.w3.org/2000/svg" xmlns:xlink="http://www.w3.org/1999/xlink">
<g id="graph0" class="graph" transform="scale(1 1) rotate(0) translate(4 79)">
<title>PreallocatedType::Cleanup</title>
<polygon fill="#ffffff" stroke="transparent" points="-4,4 -4,-79 551,-79 551,4 -4,4"/>
<!-- Node14 -->
<g id="node1" class="node">
<title>Node14</title>
<polygon fill="#bfbfbf" stroke="#000000" points="0,-28 0,-47 146,-47 146,-28 0,-28"/>
<text text-anchor="middle" x="73" y="-35" font-family="Helvetica,sans-Serif" font-size="10.00" fill="#000000">PreallocatedType::Cleanup</text>
</g>
<!-- Node15 -->
<g id="node2" class="node">
<title>Node15</title>
<g id="a_node2"><a xlink:href="classMemoryManager.html#a0eaa6fee33190f085bf0b70e9578ac74" target="_top" xlink:title="MemoryManager::DelType">
<polygon fill="#ffffff" stroke="#000000" points="182,-50 182,-69 325,-69 325,-50 182,-50"/>
<text text-anchor="middle" x="253.5" y="-57" font-family="Helvetica,sans-Serif" font-size="10.00" fill="#000000">MemoryManager::DelType</text>
</a>
</g>
</g>
<!-- Node14&#45;&gt;Node15 -->
<g id="edge1" class="edge">
<title>Node14&#45;&gt;Node15</title>
<path fill="none" stroke="#191970" d="M156.2104,-47.642C164.8251,-48.692 173.5258,-49.7525 181.9961,-50.7848"/>
<polygon fill="#191970" stroke="#191970" points="156.5061,-44.1522 146.1561,-46.4165 155.6591,-51.1008 156.5061,-44.1522"/>
</g>
<!-- Node17 -->
<g id="node4" class="node">
<title>Node17</title>
<g id="a_node4"><a xlink:href="classMemoryManager.html#a8db8172ce6d7ac082b38a28af3394b72" target="_top" xlink:title="MemoryManager::run\l_mgr_thread">
<polygon fill="#ffffff" stroke="#000000" points="193.5,-.5 193.5,-30.5 313.5,-30.5 313.5,-.5 193.5,-.5"/>
<text text-anchor="start" x="201.5" y="-18.5" font-family="Helvetica,sans-Serif" font-size="10.00" fill="#000000">MemoryManager::run</text>
<text text-anchor="middle" x="253.5" y="-7.5" font-family="Helvetica,sans-Serif" font-size="10.00" fill="#000000">_mgr_thread</text>
</a>
</g>
</g>
<!-- Node14&#45;&gt;Node17 -->
<g id="edge3" class="edge">
<title>Node14&#45;&gt;Node17</title>
<path fill="none" stroke="#191970" d="M156.1268,-27.3682C168.6317,-25.8441 181.32,-24.2976 193.2236,-22.8467"/>
<polygon fill="#191970" stroke="#191970" points="155.6591,-23.8992 146.1561,-28.5835 156.5061,-30.8478 155.6591,-23.8992"/>
</g>
<!-- Node16 -->
<g id="node3" class="node">
<title>Node16</title>
<g id="a_node3"><a xlink:href="classPreallocatedType.html#af4e0a39c76f628d3c8fd38c60468b74f" target="_top" xlink:title="PreallocatedType::\l~PreallocatedType">
<polygon fill="#ffffff" stroke="#000000" points="400,-44.5 400,-74.5 508,-74.5 508,-44.5 400,-44.5"/>
<text text-anchor="start" x="408" y="-62.5" font-family="Helvetica,sans-Serif" font-size="10.00" fill="#000000">PreallocatedType::</text>
<text text-anchor="middle" x="454" y="-51.5" font-family="Helvetica,sans-Serif" font-size="10.00" fill="#000000">~PreallocatedType</text>
</a>
</g>
</g>
<!-- Node15&#45;&gt;Node16 -->
<g id="edge2" class="edge">
<title>Node15&#45;&gt;Node16</title>
<path fill="none" stroke="#191970" d="M335.2624,-59.5C357.0129,-59.5 379.9661,-59.5 399.8332,-59.5"/>
<polygon fill="#191970" stroke="#191970" points="335.036,-56.0001 325.036,-59.5 335.0359,-63.0001 335.036,-56.0001"/>
</g>
<!-- Node18 -->
<g id="node5" class="node">
<title>Node18</title>
<g id="a_node5"><a xlink:href="classMemoryManager.html#ae925e8ad4d8fe6f0565e9d5729f59593" target="_top" xlink:title="MemoryManager::MemoryManager">
<polygon fill="#ffffff" stroke="#000000" points="361,-6 361,-25 547,-25 547,-6 361,-6"/>
<text text-anchor="middle" x="454" y="-13" font-family="Helvetica,sans-Serif" font-size="10.00" fill="#000000">MemoryManager::MemoryManager</text>
</a>
</g>
</g>
<!-- Node17&#45;&gt;Node18 -->
<g id="edge4" class="edge">
<title>Node17&#45;&gt;Node18</title>
<path fill="none" stroke="#191970" d="M323.9684,-15.5C335.9059,-15.5 348.463,-15.5 360.8738,-15.5"/>
<polygon fill="#191970" stroke="#191970" points="323.6566,-12.0001 313.6566,-15.5 323.6566,-19.0001 323.6566,-12.0001"/>
</g>
</g>
</svg>
