<?xml version="1.0" encoding="UTF-8" standalone="no"?>
<!DOCTYPE svg PUBLIC "-//W3C//DTD SVG 1.1//EN"
 "http://www.w3.org/Graphics/SVG/1.1/DTD/svg11.dtd">
<!-- Generated by graphviz version 2.40.1 (20161225.0304)
 -->
<!-- Title: MidiIO::ReceiveProgramChangeEvent Pages: 1 -->
<svg width="596pt" height="218pt"
 viewBox="0.00 0.00 596.00 218.00" xmlns="http://www.w3.org/2000/svg" xmlns:xlink="http://www.w3.org/1999/xlink">
<g id="graph0" class="graph" transform="scale(1 1) rotate(0) translate(4 214)">
<title>MidiIO::ReceiveProgramChangeEvent</title>
<polygon fill="#ffffff" stroke="transparent" points="-4,4 -4,-214 592,-214 592,4 -4,4"/>
<!-- Node285 -->
<g id="node1" class="node">
<title>Node285</title>
<polygon fill="#bfbfbf" stroke="#000000" points="0,-109 0,-139 170,-139 170,-109 0,-109"/>
<text text-anchor="start" x="8" y="-127" font-family="Helvetica,sans-Serif" font-size="10.00" fill="#000000">MidiIO::ReceiveProgramChange</text>
<text text-anchor="middle" x="85" y="-116" font-family="Helvetica,sans-Serif" font-size="10.00" fill="#000000">Event</text>
</g>
<!-- Node286 -->
<g id="node2" class="node">
<title>Node286</title>
<g id="a_node2"><a xlink:href="classEvent.html#aa67af0ae99b897e4f0ce42068c4e4c00" target="_top" xlink:title="Event::GetEventByType">
<polygon fill="#ffffff" stroke="#000000" points="236,-190.5 236,-209.5 367,-209.5 367,-190.5 236,-190.5"/>
<text text-anchor="middle" x="301.5" y="-197.5" font-family="Helvetica,sans-Serif" font-size="10.00" fill="#000000">Event::GetEventByType</text>
</a>
</g>
</g>
<!-- Node285&#45;&gt;Node286 -->
<g id="edge1" class="edge">
<title>Node285&#45;&gt;Node286</title>
<path fill="none" stroke="#191970" d="M112.086,-139.109C136.1054,-151.93 172.4771,-169.9535 206,-181 214.2824,-183.7292 223.1047,-186.13 231.913,-188.224"/>
<polygon fill="#191970" stroke="#191970" points="231.2973,-191.6729 241.8223,-190.4588 232.8374,-184.8444 231.2973,-191.6729"/>
</g>
<!-- Node287 -->
<g id="node3" class="node">
<title>Node287</title>
<g id="a_node3"><a xlink:href="classFweelin.html#a681d7ca8d0789199af135f22c26a5409" target="_top" xlink:title="Fweelin::getCFG">
<polygon fill="#ffffff" stroke="#000000" points="254,-152.5 254,-171.5 349,-171.5 349,-152.5 254,-152.5"/>
<text text-anchor="middle" x="301.5" y="-159.5" font-family="Helvetica,sans-Serif" font-size="10.00" fill="#000000">Fweelin::getCFG</text>
</a>
</g>
</g>
<!-- Node285&#45;&gt;Node287 -->
<g id="edge2" class="edge">
<title>Node285&#45;&gt;Node287</title>
<path fill="none" stroke="#191970" d="M170.2558,-138.9641C194.8832,-143.2867 221.1752,-147.9014 243.7093,-151.8566"/>
<polygon fill="#191970" stroke="#191970" points="243.3243,-155.3424 253.7788,-153.624 244.5345,-148.4478 243.3243,-155.3424"/>
</g>
<!-- Node288 -->
<g id="node4" class="node">
<title>Node288</title>
<g id="a_node4"><a xlink:href="classFloConfig.html#aaedfda90b488c27061a73b3bc98faf9a" target="_top" xlink:title="FloConfig::IsDebugInfo">
<polygon fill="#ffffff" stroke="#000000" points="238.5,-114.5 238.5,-133.5 364.5,-133.5 364.5,-114.5 238.5,-114.5"/>
<text text-anchor="middle" x="301.5" y="-121.5" font-family="Helvetica,sans-Serif" font-size="10.00" fill="#000000">FloConfig::IsDebugInfo</text>
</a>
</g>
</g>
<!-- Node285&#45;&gt;Node288 -->
<g id="edge3" class="edge">
<title>Node285&#45;&gt;Node288</title>
<path fill="none" stroke="#191970" d="M170.2558,-124C189.4252,-124 209.6032,-124 228.2325,-124"/>
<polygon fill="#191970" stroke="#191970" points="228.4065,-127.5001 238.4065,-124 228.4064,-120.5001 228.4065,-127.5001"/>
</g>
<!-- Node289 -->
<g id="node5" class="node">
<title>Node289</title>
<g id="a_node5"><a xlink:href="classFweelin.html#a21e51d7b639faaecc415624ab6c16a71" target="_top" xlink:title="Fweelin::getEMG">
<polygon fill="#ffffff" stroke="#000000" points="252.5,-76.5 252.5,-95.5 350.5,-95.5 350.5,-76.5 252.5,-76.5"/>
<text text-anchor="middle" x="301.5" y="-83.5" font-family="Helvetica,sans-Serif" font-size="10.00" fill="#000000">Fweelin::getEMG</text>
</a>
</g>
</g>
<!-- Node285&#45;&gt;Node289 -->
<g id="edge4" class="edge">
<title>Node285&#45;&gt;Node289</title>
<path fill="none" stroke="#191970" d="M170.2558,-109.0359C194.3701,-104.8034 220.0805,-100.2907 242.296,-96.3915"/>
<polygon fill="#191970" stroke="#191970" points="242.9947,-99.8224 252.239,-94.6463 241.7845,-92.9278 242.9947,-99.8224"/>
</g>
<!-- Node290 -->
<g id="node6" class="node">
<title>Node290</title>
<g id="a_node6"><a xlink:href="classEventManager.html#a4a73f2e7ff1724f28427f7c0d5725c8e" target="_top" xlink:title="EventManager::BroadcastEventNow">
<polygon fill="#ffffff" stroke="#000000" points="206,-38.5 206,-57.5 397,-57.5 397,-38.5 206,-38.5"/>
<text text-anchor="middle" x="301.5" y="-45.5" font-family="Helvetica,sans-Serif" font-size="10.00" fill="#000000">EventManager::BroadcastEventNow</text>
</a>
</g>
</g>
<!-- Node285&#45;&gt;Node290 -->
<g id="edge5" class="edge">
<title>Node285&#45;&gt;Node290</title>
<path fill="none" stroke="#191970" d="M112.086,-108.891C136.1054,-96.07 172.4771,-78.0465 206,-67 214.2824,-64.2708 223.1047,-61.87 231.913,-59.776"/>
<polygon fill="#191970" stroke="#191970" points="232.8374,-63.1556 241.8223,-57.5412 231.2973,-56.3271 232.8374,-63.1556"/>
</g>
<!-- Node291 -->
<g id="node7" class="node">
<title>Node291</title>
<g id="a_node7"><a xlink:href="classEvent.html#ac4c4170579544b41dff38ca1b8110e30" target="_top" xlink:title="Event::GetType">
<polygon fill="#ffffff" stroke="#000000" points="465.5,-76.5 465.5,-95.5 555.5,-95.5 555.5,-76.5 465.5,-76.5"/>
<text text-anchor="middle" x="510.5" y="-83.5" font-family="Helvetica,sans-Serif" font-size="10.00" fill="#000000">Event::GetType</text>
</a>
</g>
</g>
<!-- Node290&#45;&gt;Node291 -->
<g id="edge6" class="edge">
<title>Node290&#45;&gt;Node291</title>
<path fill="none" stroke="#191970" d="M353.9698,-57.54C384.9568,-63.174 424.1385,-70.2979 455.5488,-76.0089"/>
<polygon fill="#191970" stroke="#191970" points="454.9888,-79.4644 465.4536,-77.8097 456.241,-72.5773 454.9888,-79.4644"/>
</g>
<!-- Node292 -->
<g id="node8" class="node">
<title>Node292</title>
<g id="a_node8"><a xlink:href="classEventListener.html#a831820a9229e852bd7e2fad686b725b2" target="_top" xlink:title="EventListener::ReceiveEvent">
<polygon fill="#ffffff" stroke="#000000" points="433,-38.5 433,-57.5 588,-57.5 588,-38.5 433,-38.5"/>
<text text-anchor="middle" x="510.5" y="-45.5" font-family="Helvetica,sans-Serif" font-size="10.00" fill="#000000">EventListener::ReceiveEvent</text>
</a>
</g>
</g>
<!-- Node290&#45;&gt;Node292 -->
<g id="edge7" class="edge">
<title>Node290&#45;&gt;Node292</title>
<path fill="none" stroke="#191970" d="M397.1311,-48C405.6132,-48 414.1737,-48 422.5871,-48"/>
<polygon fill="#191970" stroke="#191970" points="422.7614,-51.5001 432.7614,-48 422.7614,-44.5001 422.7614,-51.5001"/>
</g>
<!-- Node293 -->
<g id="node9" class="node">
<title>Node293</title>
<g id="a_node9"><a xlink:href="classPreallocated.html#aaf2139a79ca16de70acd9bc4564171b7" target="_top" xlink:title="Preallocated::RTDelete">
<polygon fill="#ffffff" stroke="#000000" points="446.5,-.5 446.5,-19.5 574.5,-19.5 574.5,-.5 446.5,-.5"/>
<text text-anchor="middle" x="510.5" y="-7.5" font-family="Helvetica,sans-Serif" font-size="10.00" fill="#000000">Preallocated::RTDelete</text>
</a>
</g>
</g>
<!-- Node290&#45;&gt;Node293 -->
<g id="edge8" class="edge">
<title>Node290&#45;&gt;Node293</title>
<path fill="none" stroke="#191970" d="M353.9698,-38.46C382.5413,-33.2652 418.0796,-26.8037 448.0691,-21.3511"/>
<polygon fill="#191970" stroke="#191970" points="448.7961,-24.7764 458.0087,-19.5439 447.5438,-17.8893 448.7961,-24.7764"/>
</g>
</g>
</svg>
