<?xml version="1.0" encoding="UTF-8" standalone="no"?>
<!DOCTYPE svg PUBLIC "-//W3C//DTD SVG 1.1//EN"
 "http://www.w3.org/Graphics/SVG/1.1/DTD/svg11.dtd">
<!-- Generated by graphviz version 2.40.1 (20161225.0304)
 -->
<!-- Title: BlockManager::GrowChainOn Pages: 1 -->
<svg width="972pt" height="123pt"
 viewBox="0.00 0.00 972.00 123.00" xmlns="http://www.w3.org/2000/svg" xmlns:xlink="http://www.w3.org/1999/xlink">
<g id="graph0" class="graph" transform="scale(1 1) rotate(0) translate(4 119)">
<title>BlockManager::GrowChainOn</title>
<polygon fill="#ffffff" stroke="transparent" points="-4,4 -4,-119 968,-119 968,4 -4,4"/>
<!-- Node94 -->
<g id="node1" class="node">
<title>Node94</title>
<polygon fill="#bfbfbf" stroke="#000000" points="0,-57.5 0,-76.5 158,-76.5 158,-57.5 0,-57.5"/>
<text text-anchor="middle" x="79" y="-64.5" font-family="Helvetica,sans-Serif" font-size="10.00" fill="#000000">BlockManager::GrowChainOn</text>
</g>
<!-- Node95 -->
<g id="node2" class="node">
<title>Node95</title>
<g id="a_node2"><a xlink:href="classBlockManager.html#ae59dae7f7f6572b004dcdacc740204ac" target="_top" xlink:title="BlockManager::DelManager">
<polygon fill="#ffffff" stroke="#000000" points="211,-95.5 211,-114.5 361,-114.5 361,-95.5 211,-95.5"/>
<text text-anchor="middle" x="286" y="-102.5" font-family="Helvetica,sans-Serif" font-size="10.00" fill="#000000">BlockManager::DelManager</text>
</a>
</g>
</g>
<!-- Node94&#45;&gt;Node95 -->
<g id="edge1" class="edge">
<title>Node94&#45;&gt;Node95</title>
<path fill="none" stroke="#191970" d="M130.9677,-76.54C159.2658,-81.7348 194.464,-88.1963 224.1665,-93.6489"/>
<polygon fill="#191970" stroke="#191970" points="223.5433,-97.0929 234.011,-95.4561 224.8073,-90.208 223.5433,-97.0929"/>
</g>
<!-- Node96 -->
<g id="node3" class="node">
<title>Node96</title>
<g id="a_node3"><a xlink:href="classPreallocatedType.html#a232eab10b1d49ee50f435d175c4ceda5" target="_top" xlink:title="PreallocatedType::RTNewWithWait">
<polygon fill="#ffffff" stroke="#000000" points="194,-57.5 194,-76.5 378,-76.5 378,-57.5 194,-57.5"/>
<text text-anchor="middle" x="286" y="-64.5" font-family="Helvetica,sans-Serif" font-size="10.00" fill="#000000">PreallocatedType::RTNewWithWait</text>
</a>
</g>
</g>
<!-- Node94&#45;&gt;Node96 -->
<g id="edge2" class="edge">
<title>Node94&#45;&gt;Node96</title>
<path fill="none" stroke="#191970" d="M158.1439,-67C166.5114,-67 175.104,-67 183.6858,-67"/>
<polygon fill="#191970" stroke="#191970" points="183.741,-70.5001 193.7409,-67 183.7409,-63.5001 183.741,-70.5001"/>
</g>
<!-- Node103 -->
<g id="node10" class="node">
<title>Node103</title>
<g id="a_node10"><a xlink:href="classBlockManager.html#aa5e8b71de591a2e25779a1eacdc09704" target="_top" xlink:title="BlockManager::AddManager">
<polygon fill="#ffffff" stroke="#000000" points="210,-19.5 210,-38.5 362,-38.5 362,-19.5 210,-19.5"/>
<text text-anchor="middle" x="286" y="-26.5" font-family="Helvetica,sans-Serif" font-size="10.00" fill="#000000">BlockManager::AddManager</text>
</a>
</g>
</g>
<!-- Node94&#45;&gt;Node103 -->
<g id="edge9" class="edge">
<title>Node94&#45;&gt;Node103</title>
<path fill="none" stroke="#191970" d="M130.9677,-57.46C159.2658,-52.2652 194.464,-45.8037 224.1665,-40.3511"/>
<polygon fill="#191970" stroke="#191970" points="224.8073,-43.792 234.011,-38.5439 223.5433,-36.9071 224.8073,-43.792"/>
</g>
<!-- Node97 -->
<g id="node4" class="node">
<title>Node97</title>
<g id="a_node4"><a xlink:href="classPreallocatedType.html#ae8a5326530dd0f38ecbb094f7818bd42" target="_top" xlink:title="PreallocatedType::RTNew">
<polygon fill="#ffffff" stroke="#000000" points="414,-57.5 414,-76.5 554,-76.5 554,-57.5 414,-57.5"/>
<text text-anchor="middle" x="484" y="-64.5" font-family="Helvetica,sans-Serif" font-size="10.00" fill="#000000">PreallocatedType::RTNew</text>
</a>
</g>
</g>
<!-- Node96&#45;&gt;Node97 -->
<g id="edge3" class="edge">
<title>Node96&#45;&gt;Node97</title>
<path fill="none" stroke="#191970" d="M378.0442,-67C386.588,-67 395.2013,-67 403.6278,-67"/>
<polygon fill="#191970" stroke="#191970" points="403.7964,-70.5001 413.7963,-67 403.7963,-63.5001 403.7964,-70.5001"/>
</g>
<!-- Node98 -->
<g id="node5" class="node">
<title>Node98</title>
<g id="a_node5"><a xlink:href="classRTStore.html#a2be0d247570dc611a379ab0a80dd14da" target="_top" xlink:title="RTStore::FindItemWithState">
<polygon fill="#ffffff" stroke="#000000" points="590,-95.5 590,-114.5 740,-114.5 740,-95.5 590,-95.5"/>
<text text-anchor="middle" x="665" y="-102.5" font-family="Helvetica,sans-Serif" font-size="10.00" fill="#000000">RTStore::FindItemWithState</text>
</a>
</g>
</g>
<!-- Node97&#45;&gt;Node98 -->
<g id="edge4" class="edge">
<title>Node97&#45;&gt;Node98</title>
<path fill="none" stroke="#191970" d="M529.6739,-76.589C553.9892,-81.6939 584.0802,-88.0113 609.7084,-93.3918"/>
<polygon fill="#191970" stroke="#191970" points="609.1487,-96.8505 619.6545,-95.4799 610.587,-89.9999 609.1487,-96.8505"/>
</g>
<!-- Node99 -->
<g id="node6" class="node">
<title>Node99</title>
<g id="a_node6"><a xlink:href="classRTStore.html#af3c93f31bd68ce149a812b05d9e7cd86" target="_top" xlink:title="RTStore::ChangeStateAtIdx">
<polygon fill="#ffffff" stroke="#000000" points="591,-57.5 591,-76.5 739,-76.5 739,-57.5 591,-57.5"/>
<text text-anchor="middle" x="665" y="-64.5" font-family="Helvetica,sans-Serif" font-size="10.00" fill="#000000">RTStore::ChangeStateAtIdx</text>
</a>
</g>
</g>
<!-- Node97&#45;&gt;Node99 -->
<g id="edge5" class="edge">
<title>Node97&#45;&gt;Node99</title>
<path fill="none" stroke="#191970" d="M554.2384,-67C562.9745,-67 571.9761,-67 580.8945,-67"/>
<polygon fill="#191970" stroke="#191970" points="580.9097,-70.5001 590.9097,-67 580.9096,-63.5001 580.9097,-70.5001"/>
</g>
<!-- Node100 -->
<g id="node7" class="node">
<title>Node100</title>
<g id="a_node7"><a xlink:href="classMemoryManager.html#a3971e97751f5eccd04086eb2e6fb6f43" target="_top" xlink:title="MemoryManager::WakeUp">
<polygon fill="#ffffff" stroke="#000000" points="592.5,-19.5 592.5,-38.5 737.5,-38.5 737.5,-19.5 592.5,-19.5"/>
<text text-anchor="middle" x="665" y="-26.5" font-family="Helvetica,sans-Serif" font-size="10.00" fill="#000000">MemoryManager::WakeUp</text>
</a>
</g>
</g>
<!-- Node97&#45;&gt;Node100 -->
<g id="edge6" class="edge">
<title>Node97&#45;&gt;Node100</title>
<path fill="none" stroke="#191970" d="M529.6739,-57.411C553.9892,-52.3061 584.0802,-45.9887 609.7084,-40.6082"/>
<polygon fill="#191970" stroke="#191970" points="610.587,-44.0001 619.6545,-38.5201 609.1487,-37.1495 610.587,-44.0001"/>
</g>
<!-- Node101 -->
<g id="node8" class="node">
<title>Node101</title>
<g id="a_node8"><a xlink:href="classSRMWRingBuffer.html#a47699ccc0600c38559c8e10f0ca9bf3c" target="_top" xlink:title="SRMWRingBuffer::WriteElement">
<polygon fill="#ffffff" stroke="#000000" points="785,-38.5 785,-57.5 955,-57.5 955,-38.5 785,-38.5"/>
<text text-anchor="middle" x="870" y="-45.5" font-family="Helvetica,sans-Serif" font-size="10.00" fill="#000000">SRMWRingBuffer::WriteElement</text>
</a>
</g>
</g>
<!-- Node100&#45;&gt;Node101 -->
<g id="edge7" class="edge">
<title>Node100&#45;&gt;Node101</title>
<path fill="none" stroke="#191970" d="M737.5638,-35.7254C749.6514,-36.8457 762.3479,-38.0225 774.8957,-39.1855"/>
<polygon fill="#191970" stroke="#191970" points="774.6322,-42.6759 784.9125,-40.1138 775.2783,-35.7058 774.6322,-42.6759"/>
</g>
<!-- Node102 -->
<g id="node9" class="node">
<title>Node102</title>
<g id="a_node9"><a xlink:href="classMemoryManager.html#ab15be510a88e9eab04db2d6554d7e947" target="_top" xlink:title="MemoryManager::WakeupIfNeeded">
<polygon fill="#ffffff" stroke="#000000" points="776,-.5 776,-19.5 964,-19.5 964,-.5 776,-.5"/>
<text text-anchor="middle" x="870" y="-7.5" font-family="Helvetica,sans-Serif" font-size="10.00" fill="#000000">MemoryManager::WakeupIfNeeded</text>
</a>
</g>
</g>
<!-- Node100&#45;&gt;Node102 -->
<g id="edge8" class="edge">
<title>Node100&#45;&gt;Node102</title>
<path fill="none" stroke="#191970" d="M737.5638,-22.2746C746.7962,-21.4189 756.3838,-20.5303 765.9891,-19.64"/>
<polygon fill="#191970" stroke="#191970" points="766.3568,-23.1211 775.991,-18.713 765.7107,-16.1509 766.3568,-23.1211"/>
</g>
</g>
</svg>
