<?xml version="1.0" encoding="UTF-8" standalone="no"?>
<!DOCTYPE svg PUBLIC "-//W3C//DTD SVG 1.1//EN"
 "http://www.w3.org/Graphics/SVG/1.1/DTD/svg11.dtd">
<!-- Generated by graphviz version 2.40.1 (20161225.0304)
 -->
<!-- Title: HardwareMixerInterface::ALSAMixerControlSet Pages: 1 -->
<svg width="837pt" height="347pt"
 viewBox="0.00 0.00 837.00 347.00" xmlns="http://www.w3.org/2000/svg" xmlns:xlink="http://www.w3.org/1999/xlink">
<g id="graph0" class="graph" transform="scale(1 1) rotate(0) translate(4 343)">
<title>HardwareMixerInterface::ALSAMixerControlSet</title>
<polygon fill="#ffffff" stroke="transparent" points="-4,4 -4,-343 833,-343 833,4 -4,4"/>
<!-- Node16 -->
<g id="node1" class="node">
<title>Node16</title>
<polygon fill="#bfbfbf" stroke="#000000" points="0,-195.5 0,-225.5 134,-225.5 134,-195.5 0,-195.5"/>
<text text-anchor="start" x="8" y="-213.5" font-family="Helvetica,sans-Serif" font-size="10.00" fill="#000000">HardwareMixerInterface</text>
<text text-anchor="middle" x="67" y="-202.5" font-family="Helvetica,sans-Serif" font-size="10.00" fill="#000000">::ALSAMixerControlSet</text>
</g>
<!-- Node17 -->
<g id="node2" class="node">
<title>Node17</title>
<g id="a_node2"><a xlink:href="classHardwareMixerInterface.html#a4de903c52121c3cae45ae147a288bd69" target="_top" xlink:title="HardwareMixerInterface\l::cset">
<polygon fill="#ffffff" stroke="#000000" points="170,-195.5 170,-225.5 304,-225.5 304,-195.5 170,-195.5"/>
<text text-anchor="start" x="178" y="-213.5" font-family="Helvetica,sans-Serif" font-size="10.00" fill="#000000">HardwareMixerInterface</text>
<text text-anchor="middle" x="237" y="-202.5" font-family="Helvetica,sans-Serif" font-size="10.00" fill="#000000">::cset</text>
</a>
</g>
</g>
<!-- Node16&#45;&gt;Node17 -->
<g id="edge1" class="edge">
<title>Node16&#45;&gt;Node17</title>
<path fill="none" stroke="#191970" d="M134.1885,-210.5C142.5021,-210.5 151.0537,-210.5 159.5056,-210.5"/>
<polygon fill="#191970" stroke="#191970" points="159.7429,-214.0001 169.7428,-210.5 159.7428,-207.0001 159.7429,-214.0001"/>
</g>
<!-- Node18 -->
<g id="node3" class="node">
<title>Node18</title>
<g id="a_node3"><a xlink:href="classHardwareMixerInterface.html#ad84ba3216d4d254bd96b2b8abfcbf8e7" target="_top" xlink:title="HardwareMixerInterface\l::parse_control_id">
<polygon fill="#ffffff" stroke="#000000" points="347.5,-308.5 347.5,-338.5 481.5,-338.5 481.5,-308.5 347.5,-308.5"/>
<text text-anchor="start" x="355.5" y="-326.5" font-family="Helvetica,sans-Serif" font-size="10.00" fill="#000000">HardwareMixerInterface</text>
<text text-anchor="middle" x="414.5" y="-315.5" font-family="Helvetica,sans-Serif" font-size="10.00" fill="#000000">::parse_control_id</text>
</a>
</g>
</g>
<!-- Node17&#45;&gt;Node18 -->
<g id="edge2" class="edge">
<title>Node17&#45;&gt;Node18</title>
<path fill="none" stroke="#191970" d="M252.6613,-225.619C271.9545,-243.6258 306.326,-273.7449 340,-293.5 346.7649,-297.4687 354.1538,-301.1417 361.5658,-304.4574"/>
<polygon fill="#191970" stroke="#191970" points="360.3511,-307.7445 370.9216,-308.4615 363.1053,-301.3091 360.3511,-307.7445"/>
</g>
<!-- Node19 -->
<g id="node4" class="node">
<title>Node19</title>
<g id="a_node4"><a xlink:href="classHardwareMixerInterface.html#a2257580b0d7e0d6cf844b117ec479e97" target="_top" xlink:title="HardwareMixerInterface\l::show_control_id">
<polygon fill="#ffffff" stroke="#000000" points="525,-217.5 525,-247.5 659,-247.5 659,-217.5 525,-217.5"/>
<text text-anchor="start" x="533" y="-235.5" font-family="Helvetica,sans-Serif" font-size="10.00" fill="#000000">HardwareMixerInterface</text>
<text text-anchor="middle" x="592" y="-224.5" font-family="Helvetica,sans-Serif" font-size="10.00" fill="#000000">::show_control_id</text>
</a>
</g>
</g>
<!-- Node17&#45;&gt;Node19 -->
<g id="edge3" class="edge">
<title>Node17&#45;&gt;Node19</title>
<path fill="none" stroke="#191970" d="M260.4075,-225.6822C280.5738,-237.8018 310.9417,-253.8198 340,-260.5 404.5387,-275.3369 423.3601,-269.2629 489,-260.5 504.8208,-258.3879 521.6555,-254.5274 537.0309,-250.3341"/>
<polygon fill="#191970" stroke="#191970" points="538.2273,-253.6331 546.8986,-247.5455 536.3236,-246.8969 538.2273,-253.6331"/>
</g>
<!-- Node21 -->
<g id="node6" class="node">
<title>Node21</title>
<g id="a_node6"><a xlink:href="classHardwareMixerInterface.html#a0c800fb8690ee55bf201a495b261578a" target="_top" xlink:title="HardwareMixerInterface\l::get_integer">
<polygon fill="#ffffff" stroke="#000000" points="347.5,-220.5 347.5,-250.5 481.5,-250.5 481.5,-220.5 347.5,-220.5"/>
<text text-anchor="start" x="355.5" y="-238.5" font-family="Helvetica,sans-Serif" font-size="10.00" fill="#000000">HardwareMixerInterface</text>
<text text-anchor="middle" x="414.5" y="-227.5" font-family="Helvetica,sans-Serif" font-size="10.00" fill="#000000">::get_integer</text>
</a>
</g>
</g>
<!-- Node17&#45;&gt;Node21 -->
<g id="edge5" class="edge">
<title>Node17&#45;&gt;Node21</title>
<path fill="none" stroke="#191970" d="M304.1051,-219.9514C314.9288,-221.4759 326.2098,-223.0648 337.2495,-224.6196"/>
<polygon fill="#191970" stroke="#191970" points="336.9095,-228.1062 347.3,-226.0352 337.8859,-221.1746 336.9095,-228.1062"/>
</g>
<!-- Node22 -->
<g id="node7" class="node">
<title>Node22</title>
<g id="a_node7"><a xlink:href="classHardwareMixerInterface.html#a67048ba3bbe5856c027d5f2b0cd59f2c" target="_top" xlink:title="HardwareMixerInterface\l::get_integer64">
<polygon fill="#ffffff" stroke="#000000" points="347.5,-171.5 347.5,-201.5 481.5,-201.5 481.5,-171.5 347.5,-171.5"/>
<text text-anchor="start" x="355.5" y="-189.5" font-family="Helvetica,sans-Serif" font-size="10.00" fill="#000000">HardwareMixerInterface</text>
<text text-anchor="middle" x="414.5" y="-178.5" font-family="Helvetica,sans-Serif" font-size="10.00" fill="#000000">::get_integer64</text>
</a>
</g>
</g>
<!-- Node17&#45;&gt;Node22 -->
<g id="edge6" class="edge">
<title>Node17&#45;&gt;Node22</title>
<path fill="none" stroke="#191970" d="M304.1051,-201.4266C314.9288,-199.9632 326.2098,-198.4378 337.2495,-196.9451"/>
<polygon fill="#191970" stroke="#191970" points="337.8591,-200.3946 347.3,-195.5862 336.9211,-193.4578 337.8591,-200.3946"/>
</g>
<!-- Node23 -->
<g id="node8" class="node">
<title>Node23</title>
<g id="a_node8"><a xlink:href="classHardwareMixerInterface.html#aca390089f43e673345469d921b3e2ca6" target="_top" xlink:title="HardwareMixerInterface\l::get_ctl_enum_item_index">
<polygon fill="#ffffff" stroke="#000000" points="340,-122.5 340,-152.5 489,-152.5 489,-122.5 340,-122.5"/>
<text text-anchor="start" x="348" y="-140.5" font-family="Helvetica,sans-Serif" font-size="10.00" fill="#000000">HardwareMixerInterface</text>
<text text-anchor="middle" x="414.5" y="-129.5" font-family="Helvetica,sans-Serif" font-size="10.00" fill="#000000">::get_ctl_enum_item_index</text>
</a>
</g>
</g>
<!-- Node17&#45;&gt;Node23 -->
<g id="edge7" class="edge">
<title>Node17&#45;&gt;Node23</title>
<path fill="none" stroke="#191970" d="M267.2532,-195.3061C287.5707,-185.3752 315.0827,-172.4502 340,-162.5 345.5194,-160.296 351.3176,-158.1181 357.1399,-156.0213"/>
<polygon fill="#191970" stroke="#191970" points="358.6464,-159.2016 366.9162,-152.5789 356.3214,-152.599 358.6464,-159.2016"/>
</g>
<!-- Node24 -->
<g id="node9" class="node">
<title>Node24</title>
<g id="a_node9"><a xlink:href="classHardwareMixerInterface.html#af7595788a2e9a99336ae2c52128a4b0e" target="_top" xlink:title="HardwareMixerInterface\l::show_control">
<polygon fill="#ffffff" stroke="#000000" points="347.5,-73.5 347.5,-103.5 481.5,-103.5 481.5,-73.5 347.5,-73.5"/>
<text text-anchor="start" x="355.5" y="-91.5" font-family="Helvetica,sans-Serif" font-size="10.00" fill="#000000">HardwareMixerInterface</text>
<text text-anchor="middle" x="414.5" y="-80.5" font-family="Helvetica,sans-Serif" font-size="10.00" fill="#000000">::show_control</text>
</a>
</g>
</g>
<!-- Node17&#45;&gt;Node24 -->
<g id="edge8" class="edge">
<title>Node17&#45;&gt;Node24</title>
<path fill="none" stroke="#191970" d="M249.4122,-195.2288C267.3456,-174.0845 302.4893,-135.9639 340,-113.5 343.5552,-111.3709 347.3156,-109.3951 351.1825,-107.5661"/>
<polygon fill="#191970" stroke="#191970" points="352.588,-110.7716 360.3518,-103.5622 349.7867,-104.3565 352.588,-110.7716"/>
</g>
<!-- Node20 -->
<g id="node5" class="node">
<title>Node20</title>
<g id="a_node5"><a xlink:href="classHardwareMixerInterface.html#a3ff59589b6384ae17852d4916c6e13fb" target="_top" xlink:title="HardwareMixerInterface\l::control_iface">
<polygon fill="#ffffff" stroke="#000000" points="695,-217.5 695,-247.5 829,-247.5 829,-217.5 695,-217.5"/>
<text text-anchor="start" x="703" y="-235.5" font-family="Helvetica,sans-Serif" font-size="10.00" fill="#000000">HardwareMixerInterface</text>
<text text-anchor="middle" x="762" y="-224.5" font-family="Helvetica,sans-Serif" font-size="10.00" fill="#000000">::control_iface</text>
</a>
</g>
</g>
<!-- Node19&#45;&gt;Node20 -->
<g id="edge4" class="edge">
<title>Node19&#45;&gt;Node20</title>
<path fill="none" stroke="#191970" d="M659.1885,-232.5C667.5021,-232.5 676.0537,-232.5 684.5056,-232.5"/>
<polygon fill="#191970" stroke="#191970" points="684.7429,-236.0001 694.7428,-232.5 684.7428,-229.0001 684.7429,-236.0001"/>
</g>
<!-- Node24&#45;&gt;Node19 -->
<g id="edge9" class="edge">
<title>Node24&#45;&gt;Node19</title>
<path fill="none" stroke="#191970" d="M471.6488,-103.5473C477.7852,-106.3478 483.7104,-109.6395 489,-113.5 510.8284,-129.4309 507.6206,-141.8064 525,-162.5 538.9276,-179.0835 555.7904,-196.6897 569.1145,-210.0965"/>
<polygon fill="#191970" stroke="#191970" points="566.95,-212.881 576.5016,-217.4655 571.8936,-207.9252 566.95,-212.881"/>
</g>
<!-- Node25 -->
<g id="node10" class="node">
<title>Node25</title>
<g id="a_node10"><a xlink:href="classHardwareMixerInterface.html#afdd621575ff5f274921fa82bf2615b59" target="_top" xlink:title="HardwareMixerInterface\l::control_type">
<polygon fill="#ffffff" stroke="#000000" points="525,-122.5 525,-152.5 659,-152.5 659,-122.5 525,-122.5"/>
<text text-anchor="start" x="533" y="-140.5" font-family="Helvetica,sans-Serif" font-size="10.00" fill="#000000">HardwareMixerInterface</text>
<text text-anchor="middle" x="592" y="-129.5" font-family="Helvetica,sans-Serif" font-size="10.00" fill="#000000">::control_type</text>
</a>
</g>
</g>
<!-- Node24&#45;&gt;Node25 -->
<g id="edge10" class="edge">
<title>Node24&#45;&gt;Node25</title>
<path fill="none" stroke="#191970" d="M469.2042,-103.6014C487.6803,-108.7019 508.4768,-114.4429 527.6308,-119.7305"/>
<polygon fill="#191970" stroke="#191970" points="526.9056,-123.1611 537.4764,-122.4484 528.7684,-116.4135 526.9056,-123.1611"/>
</g>
<!-- Node26 -->
<g id="node11" class="node">
<title>Node26</title>
<g id="a_node11"><a xlink:href="classHardwareMixerInterface.html#a69e280de4603d6fdbf76ff2f027e49dc" target="_top" xlink:title="HardwareMixerInterface\l::control_access">
<polygon fill="#ffffff" stroke="#000000" points="525,-73.5 525,-103.5 659,-103.5 659,-73.5 525,-73.5"/>
<text text-anchor="start" x="533" y="-91.5" font-family="Helvetica,sans-Serif" font-size="10.00" fill="#000000">HardwareMixerInterface</text>
<text text-anchor="middle" x="592" y="-80.5" font-family="Helvetica,sans-Serif" font-size="10.00" fill="#000000">::control_access</text>
</a>
</g>
</g>
<!-- Node24&#45;&gt;Node26 -->
<g id="edge11" class="edge">
<title>Node24&#45;&gt;Node26</title>
<path fill="none" stroke="#191970" d="M481.6051,-88.5C492.4288,-88.5 503.7098,-88.5 514.7495,-88.5"/>
<polygon fill="#191970" stroke="#191970" points="514.8,-92.0001 524.8,-88.5 514.7999,-85.0001 514.8,-92.0001"/>
</g>
<!-- Node27 -->
<g id="node12" class="node">
<title>Node27</title>
<g id="a_node12"><a xlink:href="classHardwareMixerInterface.html#a90284e772b2ef20f2b57f8a604d99aa7" target="_top" xlink:title="HardwareMixerInterface\l::decode_tlv">
<polygon fill="#ffffff" stroke="#000000" points="525,-24.5 525,-54.5 659,-54.5 659,-24.5 525,-24.5"/>
<text text-anchor="start" x="533" y="-42.5" font-family="Helvetica,sans-Serif" font-size="10.00" fill="#000000">HardwareMixerInterface</text>
<text text-anchor="middle" x="592" y="-31.5" font-family="Helvetica,sans-Serif" font-size="10.00" fill="#000000">::decode_tlv</text>
</a>
</g>
</g>
<!-- Node24&#45;&gt;Node27 -->
<g id="edge12" class="edge">
<title>Node24&#45;&gt;Node27</title>
<path fill="none" stroke="#191970" d="M469.2042,-73.3986C487.6803,-68.2981 508.4768,-62.5571 527.6308,-57.2695"/>
<polygon fill="#191970" stroke="#191970" points="528.7684,-60.5865 537.4764,-54.5516 526.9056,-53.8389 528.7684,-60.5865"/>
</g>
<!-- Node28 -->
<g id="node13" class="node">
<title>Node28</title>
<g id="a_node13"><a xlink:href="classHardwareMixerInterface.html#a875745a57c9eb77178634b95b10935fc" target="_top" xlink:title="HardwareMixerInterface\l::print_spaces">
<polygon fill="#ffffff" stroke="#000000" points="695,-49.5 695,-79.5 829,-79.5 829,-49.5 695,-49.5"/>
<text text-anchor="start" x="703" y="-67.5" font-family="Helvetica,sans-Serif" font-size="10.00" fill="#000000">HardwareMixerInterface</text>
<text text-anchor="middle" x="762" y="-56.5" font-family="Helvetica,sans-Serif" font-size="10.00" fill="#000000">::print_spaces</text>
</a>
</g>
</g>
<!-- Node27&#45;&gt;Node28 -->
<g id="edge13" class="edge">
<title>Node27&#45;&gt;Node28</title>
<path fill="none" stroke="#191970" d="M659.1885,-49.3807C667.5935,-50.6167 676.2417,-51.8885 684.7842,-53.1447"/>
<polygon fill="#191970" stroke="#191970" points="684.34,-56.617 694.7428,-54.6092 685.3585,-49.6915 684.34,-56.617"/>
</g>
<!-- Node29 -->
<g id="node14" class="node">
<title>Node29</title>
<g id="a_node14"><a xlink:href="classHardwareMixerInterface.html#a712aa490075ca1d3ef2f1b019ae620bb" target="_top" xlink:title="HardwareMixerInterface\l::print_dB">
<polygon fill="#ffffff" stroke="#000000" points="695,-.5 695,-30.5 829,-30.5 829,-.5 695,-.5"/>
<text text-anchor="start" x="703" y="-18.5" font-family="Helvetica,sans-Serif" font-size="10.00" fill="#000000">HardwareMixerInterface</text>
<text text-anchor="middle" x="762" y="-7.5" font-family="Helvetica,sans-Serif" font-size="10.00" fill="#000000">::print_dB</text>
</a>
</g>
</g>
<!-- Node27&#45;&gt;Node29 -->
<g id="edge14" class="edge">
<title>Node27&#45;&gt;Node29</title>
<path fill="none" stroke="#191970" d="M659.1885,-30.0146C667.5935,-28.828 676.2417,-27.6071 684.7842,-26.4011"/>
<polygon fill="#191970" stroke="#191970" points="685.3303,-29.8588 694.7428,-24.9951 684.3517,-22.9275 685.3303,-29.8588"/>
</g>
</g>
</svg>
