<?xml version="1.0" encoding="UTF-8" standalone="no"?>
<!DOCTYPE svg PUBLIC "-//W3C//DTD SVG 1.1//EN"
 "http://www.w3.org/Graphics/SVG/1.1/DTD/svg11.dtd">
<!-- Generated by graphviz version 2.40.1 (20161225.0304)
 -->
<!-- Title: AudioLevel::fader_to_dB Pages: 1 -->
<svg width="542pt" height="142pt"
 viewBox="0.00 0.00 542.00 142.00" xmlns="http://www.w3.org/2000/svg" xmlns:xlink="http://www.w3.org/1999/xlink">
<g id="graph0" class="graph" transform="scale(1 1) rotate(0) translate(4 138)">
<title>AudioLevel::fader_to_dB</title>
<polygon fill="#ffffff" stroke="transparent" points="-4,4 -4,-138 538,-138 538,4 -4,4"/>
<!-- Node8 -->
<g id="node1" class="node">
<title>Node8</title>
<polygon fill="#bfbfbf" stroke="#000000" points="0,-57.5 0,-76.5 135,-76.5 135,-57.5 0,-57.5"/>
<text text-anchor="middle" x="67.5" y="-64.5" font-family="Helvetica,sans-Serif" font-size="10.00" fill="#000000">AudioLevel::fader_to_dB</text>
</g>
<!-- Node9 -->
<g id="node2" class="node">
<title>Node9</title>
<g id="a_node2"><a xlink:href="classInputMatrix.html#aa74204a205a10f2b60809ea124db9173" target="_top" xlink:title="InputMatrix::ReceiveEvent">
<polygon fill="#ffffff" stroke="#000000" points="185.5,-114.5 185.5,-133.5 329.5,-133.5 329.5,-114.5 185.5,-114.5"/>
<text text-anchor="middle" x="257.5" y="-121.5" font-family="Helvetica,sans-Serif" font-size="10.00" fill="#000000">InputMatrix::ReceiveEvent</text>
</a>
</g>
</g>
<!-- Node8&#45;&gt;Node9 -->
<g id="edge1" class="edge">
<title>Node8&#45;&gt;Node9</title>
<path fill="none" stroke="#191970" d="M99.9908,-80.2186C120.1951,-88.1146 146.8403,-97.9469 171,-105 183.1026,-108.5332 196.3269,-111.7524 208.7125,-114.4962"/>
<polygon fill="#191970" stroke="#191970" points="101.2153,-76.9392 90.6288,-76.5186 98.6424,-83.4492 101.2153,-76.9392"/>
</g>
<!-- Node10 -->
<g id="node3" class="node">
<title>Node10</title>
<g id="a_node3"><a xlink:href="classLoopManager.html#a82f420b74ebb790061772cb2ea23d83d" target="_top" xlink:title="LoopManager::SetOutputVolume">
<polygon fill="#ffffff" stroke="#000000" points="171,-76.5 171,-95.5 344,-95.5 344,-76.5 171,-76.5"/>
<text text-anchor="middle" x="257.5" y="-83.5" font-family="Helvetica,sans-Serif" font-size="10.00" fill="#000000">LoopManager::SetOutputVolume</text>
</a>
</g>
</g>
<!-- Node8&#45;&gt;Node10 -->
<g id="edge2" class="edge">
<title>Node8&#45;&gt;Node10</title>
<path fill="none" stroke="#191970" d="M145.2357,-74.7736C153.7017,-75.6202 162.3569,-76.4857 170.9202,-77.342"/>
<polygon fill="#191970" stroke="#191970" points="145.3205,-71.2647 135.0219,-73.7522 144.6239,-78.2299 145.3205,-71.2647"/>
</g>
<!-- Node12 -->
<g id="node5" class="node">
<title>Node12</title>
<g id="a_node5"><a xlink:href="classLoopManager.html#ad636c6280f2a5a6bfe45f94946dc3a9f" target="_top" xlink:title="LoopManager::SetInputVolume">
<polygon fill="#ffffff" stroke="#000000" points="175,-38.5 175,-57.5 340,-57.5 340,-38.5 175,-38.5"/>
<text text-anchor="middle" x="257.5" y="-45.5" font-family="Helvetica,sans-Serif" font-size="10.00" fill="#000000">LoopManager::SetInputVolume</text>
</a>
</g>
</g>
<!-- Node8&#45;&gt;Node12 -->
<g id="edge4" class="edge">
<title>Node8&#45;&gt;Node12</title>
<path fill="none" stroke="#191970" d="M145.1333,-59.2367C154.9426,-58.2557 165.0077,-57.2492 174.8908,-56.2609"/>
<polygon fill="#191970" stroke="#191970" points="144.6239,-55.7701 135.0219,-60.2478 145.3205,-62.7353 144.6239,-55.7701"/>
</g>
<!-- Node13 -->
<g id="node6" class="node">
<title>Node13</title>
<g id="a_node6"><a xlink:href="classInputSettings.html#a6f6f097348037e0c518e8564847f6aff" target="_top" xlink:title="InputSettings::SetInputVol">
<polygon fill="#ffffff" stroke="#000000" points="186,-.5 186,-19.5 329,-19.5 329,-.5 186,-.5"/>
<text text-anchor="middle" x="257.5" y="-7.5" font-family="Helvetica,sans-Serif" font-size="10.00" fill="#000000">InputSettings::SetInputVol</text>
</a>
</g>
</g>
<!-- Node8&#45;&gt;Node13 -->
<g id="edge6" class="edge">
<title>Node8&#45;&gt;Node13</title>
<path fill="none" stroke="#191970" d="M99.9908,-53.7814C120.1951,-45.8854 146.8403,-36.0531 171,-29 183.1026,-25.4668 196.3269,-22.2476 208.7125,-19.5038"/>
<polygon fill="#191970" stroke="#191970" points="98.6424,-50.5508 90.6288,-57.4814 101.2153,-57.0608 98.6424,-50.5508"/>
</g>
<!-- Node11 -->
<g id="node4" class="node">
<title>Node11</title>
<g id="a_node4"><a xlink:href="classLoopManager.html#a4aada2d07b7ce0a67a8119ece4805966" target="_top" xlink:title="LoopManager::ReceiveEvent">
<polygon fill="#ffffff" stroke="#000000" points="380,-38.5 380,-57.5 534,-57.5 534,-38.5 380,-38.5"/>
<text text-anchor="middle" x="457" y="-45.5" font-family="Helvetica,sans-Serif" font-size="10.00" fill="#000000">LoopManager::ReceiveEvent</text>
</a>
</g>
</g>
<!-- Node10&#45;&gt;Node11 -->
<g id="edge3" class="edge">
<title>Node10&#45;&gt;Node11</title>
<path fill="none" stroke="#191970" d="M317.4451,-74.5819C345.99,-69.1448 379.7371,-62.7168 406.8946,-57.5439"/>
<polygon fill="#191970" stroke="#191970" points="316.7532,-71.1507 307.5848,-76.46 318.0631,-78.027 316.7532,-71.1507"/>
</g>
<!-- Node12&#45;&gt;Node11 -->
<g id="edge5" class="edge">
<title>Node12&#45;&gt;Node11</title>
<path fill="none" stroke="#191970" d="M350.3479,-48C360.2442,-48 370.2315,-48 379.9177,-48"/>
<polygon fill="#191970" stroke="#191970" points="350.0844,-44.5001 340.0844,-48 350.0843,-51.5001 350.0844,-44.5001"/>
</g>
<!-- Node13&#45;&gt;Node11 -->
<g id="edge7" class="edge">
<title>Node13&#45;&gt;Node11</title>
<path fill="none" stroke="#191970" d="M317.4451,-21.4181C345.99,-26.8552 379.7371,-33.2832 406.8946,-38.4561"/>
<polygon fill="#191970" stroke="#191970" points="318.0631,-17.973 307.5848,-19.54 316.7532,-24.8493 318.0631,-17.973"/>
</g>
</g>
</svg>
