<?xml version="1.0" encoding="UTF-8" standalone="no"?>
<!DOCTYPE svg PUBLIC "-//W3C//DTD SVG 1.1//EN"
 "http://www.w3.org/Graphics/SVG/1.1/DTD/svg11.dtd">
<!-- Generated by graphviz version 2.40.1 (20161225.0304)
 -->
<!-- Title: MidiIO::getBP Pages: 1 -->
<svg width="638pt" height="116pt"
 viewBox="0.00 0.00 638.00 116.00" xmlns="http://www.w3.org/2000/svg" xmlns:xlink="http://www.w3.org/1999/xlink">
<g id="graph0" class="graph" transform="scale(1 1) rotate(0) translate(4 112)">
<title>MidiIO::getBP</title>
<polygon fill="#ffffff" stroke="transparent" points="-4,4 -4,-112 634,-112 634,4 -4,4"/>
<!-- Node107 -->
<g id="node1" class="node">
<title>Node107</title>
<polygon fill="#bfbfbf" stroke="#000000" points="0,-44.5 0,-63.5 82,-63.5 82,-44.5 0,-44.5"/>
<text text-anchor="middle" x="41" y="-51.5" font-family="Helvetica,sans-Serif" font-size="10.00" fill="#000000">MidiIO::getBP</text>
</g>
<!-- Node108 -->
<g id="node2" class="node">
<title>Node108</title>
<g id="a_node2"><a xlink:href="classMidiIO.html#a1753eb05e14eb572a5f52b9616480d55" target="_top" xlink:title="MidiIO::SetMIDIForPatch">
<polygon fill="#ffffff" stroke="#000000" points="139,-44.5 139,-63.5 271,-63.5 271,-44.5 139,-44.5"/>
<text text-anchor="middle" x="205" y="-51.5" font-family="Helvetica,sans-Serif" font-size="10.00" fill="#000000">MidiIO::SetMIDIForPatch</text>
</a>
</g>
</g>
<!-- Node107&#45;&gt;Node108 -->
<g id="edge1" class="edge">
<title>Node107&#45;&gt;Node108</title>
<path fill="none" stroke="#191970" d="M92.7198,-54C107.32,-54 123.4102,-54 138.7381,-54"/>
<polygon fill="#191970" stroke="#191970" points="92.3842,-50.5001 82.3841,-54 92.3841,-57.5001 92.3842,-50.5001"/>
</g>
<!-- Node112 -->
<g id="node6" class="node">
<title>Node112</title>
<g id="a_node6"><a xlink:href="classMidiIO.html#a9f130a6f6732fcdc5c111a5708afb64f" target="_top" xlink:title="MidiIO::EchoEventToPortChannel">
<polygon fill="#ffffff" stroke="#000000" points="118,-85.5 118,-104.5 292,-104.5 292,-85.5 118,-85.5"/>
<text text-anchor="middle" x="205" y="-92.5" font-family="Helvetica,sans-Serif" font-size="10.00" fill="#000000">MidiIO::EchoEventToPortChannel</text>
</a>
</g>
</g>
<!-- Node107&#45;&gt;Node112 -->
<g id="edge5" class="edge">
<title>Node107&#45;&gt;Node112</title>
<path fill="none" stroke="#191970" d="M88.9768,-65.9942C113.795,-72.1987 143.6675,-79.6669 166.8854,-85.4714"/>
<polygon fill="#191970" stroke="#191970" points="89.5874,-62.5392 79.0371,-63.5093 87.8896,-69.3302 89.5874,-62.5392"/>
</g>
<!-- Node115 -->
<g id="node9" class="node">
<title>Node115</title>
<g id="a_node9"><a xlink:href="classMidiIO.html#a6551af8e78f2eed77b3193c83fa52d15" target="_top" xlink:title="MidiIO::CheckUnbypass">
<polygon fill="#ffffff" stroke="#000000" points="139.5,-3.5 139.5,-22.5 270.5,-22.5 270.5,-3.5 139.5,-3.5"/>
<text text-anchor="middle" x="205" y="-10.5" font-family="Helvetica,sans-Serif" font-size="10.00" fill="#000000">MidiIO::CheckUnbypass</text>
</a>
</g>
</g>
<!-- Node107&#45;&gt;Node115 -->
<g id="edge8" class="edge">
<title>Node107&#45;&gt;Node115</title>
<path fill="none" stroke="#191970" d="M88.9768,-42.0058C113.795,-35.8013 143.6675,-28.3331 166.8854,-22.5286"/>
<polygon fill="#191970" stroke="#191970" points="87.8896,-38.6698 79.0371,-44.4907 89.5874,-45.4608 87.8896,-38.6698"/>
</g>
<!-- Node109 -->
<g id="node3" class="node">
<title>Node109</title>
<g id="a_node3"><a xlink:href="classPatchBrowser.html#a90246446ed1a2650a2a7555f5d76c653" target="_top" xlink:title="PatchBrowser::SetMIDIFor\lPatch">
<polygon fill="#ffffff" stroke="#000000" points="328,-39 328,-69 469,-69 469,-39 328,-39"/>
<text text-anchor="start" x="336" y="-57" font-family="Helvetica,sans-Serif" font-size="10.00" fill="#000000">PatchBrowser::SetMIDIFor</text>
<text text-anchor="middle" x="398.5" y="-46" font-family="Helvetica,sans-Serif" font-size="10.00" fill="#000000">Patch</text>
</a>
</g>
</g>
<!-- Node108&#45;&gt;Node109 -->
<g id="edge2" class="edge">
<title>Node108&#45;&gt;Node109</title>
<path fill="none" stroke="#191970" d="M281.4874,-54C296.7541,-54 312.7256,-54 327.7875,-54"/>
<polygon fill="#191970" stroke="#191970" points="281.0506,-50.5001 271.0505,-54 281.0505,-57.5001 281.0506,-50.5001"/>
</g>
<!-- Node110 -->
<g id="node4" class="node">
<title>Node110</title>
<g id="a_node4"><a xlink:href="classFweelin.html#acacaa80535c0688358984d2070fedb71" target="_top" xlink:title="Fweelin::ItemSelected">
<polygon fill="#ffffff" stroke="#000000" points="505,-44.5 505,-63.5 630,-63.5 630,-44.5 505,-44.5"/>
<text text-anchor="middle" x="567.5" y="-51.5" font-family="Helvetica,sans-Serif" font-size="10.00" fill="#000000">Fweelin::ItemSelected</text>
</a>
</g>
</g>
<!-- Node109&#45;&gt;Node110 -->
<g id="edge3" class="edge">
<title>Node109&#45;&gt;Node110</title>
<path fill="none" stroke="#191970" d="M479.2564,-54C487.8684,-54 496.5324,-54 504.8896,-54"/>
<polygon fill="#191970" stroke="#191970" points="479.192,-50.5001 469.192,-54 479.192,-57.5001 479.192,-50.5001"/>
</g>
<!-- Node111 -->
<g id="node5" class="node">
<title>Node111</title>
<g id="a_node5"><a xlink:href="classMidiIO.html#a222509803679fcf4bcb7b4b4a34cf0cd" target="_top" xlink:title="MidiIO::activate">
<polygon fill="#ffffff" stroke="#000000" points="521,-3.5 521,-22.5 614,-22.5 614,-3.5 521,-3.5"/>
<text text-anchor="middle" x="567.5" y="-10.5" font-family="Helvetica,sans-Serif" font-size="10.00" fill="#000000">MidiIO::activate</text>
</a>
</g>
</g>
<!-- Node109&#45;&gt;Node111 -->
<g id="edge4" class="edge">
<title>Node109&#45;&gt;Node111</title>
<path fill="none" stroke="#191970" d="M470.3968,-36.5576C490.1844,-31.757 510.9154,-26.7276 528.1169,-22.5545"/>
<polygon fill="#191970" stroke="#191970" points="469.3626,-33.2069 460.4697,-38.9659 471.013,-40.0095 469.3626,-33.2069"/>
</g>
<!-- Node113 -->
<g id="node7" class="node">
<title>Node113</title>
<g id="a_node7"><a xlink:href="classMidiIO.html#aae58e8a30b732a5eee97d76785a5909a" target="_top" xlink:title="MidiIO::EchoEvent">
<polygon fill="#ffffff" stroke="#000000" points="346.5,-88.5 346.5,-107.5 450.5,-107.5 450.5,-88.5 346.5,-88.5"/>
<text text-anchor="middle" x="398.5" y="-95.5" font-family="Helvetica,sans-Serif" font-size="10.00" fill="#000000">MidiIO::EchoEvent</text>
</a>
</g>
</g>
<!-- Node112&#45;&gt;Node113 -->
<g id="edge6" class="edge">
<title>Node112&#45;&gt;Node113</title>
<path fill="none" stroke="#191970" d="M302.1609,-96.5064C317.4514,-96.7434 332.7282,-96.9803 346.4636,-97.1932"/>
<polygon fill="#191970" stroke="#191970" points="302.18,-93.0063 292.127,-96.3508 302.0715,-100.0055 302.18,-93.0063"/>
</g>
<!-- Node114 -->
<g id="node8" class="node">
<title>Node114</title>
<g id="a_node8"><a xlink:href="classMidiIO.html#a90cc0dad2841a9386a0c86efc1d9dce6" target="_top" xlink:title="MidiIO::ReceiveEvent">
<polygon fill="#ffffff" stroke="#000000" points="508,-88.5 508,-107.5 627,-107.5 627,-88.5 508,-88.5"/>
<text text-anchor="middle" x="567.5" y="-95.5" font-family="Helvetica,sans-Serif" font-size="10.00" fill="#000000">MidiIO::ReceiveEvent</text>
</a>
</g>
</g>
<!-- Node113&#45;&gt;Node114 -->
<g id="edge7" class="edge">
<title>Node113&#45;&gt;Node114</title>
<path fill="none" stroke="#191970" d="M461.0066,-98C476.3395,-98 492.7109,-98 507.903,-98"/>
<polygon fill="#191970" stroke="#191970" points="460.5846,-94.5001 450.5846,-98 460.5845,-101.5001 460.5846,-94.5001"/>
</g>
<!-- Node116 -->
<g id="node10" class="node">
<title>Node116</title>
<g id="a_node10"><a xlink:href="classMidiIO.html#aef220bcce8b89bea36032298868a919e" target="_top" xlink:title="MidiIO::run_midi_thread">
<polygon fill="#ffffff" stroke="#000000" points="332,-.5 332,-19.5 465,-19.5 465,-.5 332,-.5"/>
<text text-anchor="middle" x="398.5" y="-7.5" font-family="Helvetica,sans-Serif" font-size="10.00" fill="#000000">MidiIO::run_midi_thread</text>
</a>
</g>
</g>
<!-- Node115&#45;&gt;Node116 -->
<g id="edge9" class="edge">
<title>Node115&#45;&gt;Node116</title>
<path fill="none" stroke="#191970" d="M280.8391,-11.8242C297.6423,-11.5637 315.3293,-11.2895 331.739,-11.0351"/>
<polygon fill="#191970" stroke="#191970" points="280.4548,-8.3296 270.5103,-11.9843 280.5634,-15.3288 280.4548,-8.3296"/>
</g>
<!-- Node116&#45;&gt;Node111 -->
<g id="edge10" class="edge">
<title>Node116&#45;&gt;Node111</title>
<path fill="none" stroke="#191970" d="M475.434,-11.3657C490.9749,-11.6416 506.8599,-11.9235 520.9636,-12.1739"/>
<polygon fill="#191970" stroke="#191970" points="475.3539,-7.8638 465.2933,-11.1857 475.2295,-14.8627 475.3539,-7.8638"/>
</g>
</g>
</svg>
