<?xml version="1.0" encoding="UTF-8" standalone="no"?>
<!DOCTYPE svg PUBLIC "-//W3C//DTD SVG 1.1//EN"
 "http://www.w3.org/Graphics/SVG/1.1/DTD/svg11.dtd">
<!-- Generated by graphviz version 2.40.1 (20161225.0304)
 -->
<!-- Title: InputMatrix::CreateBinding Pages: 1 -->
<svg width="1026pt" height="522pt"
 viewBox="0.00 0.00 1026.00 522.00" xmlns="http://www.w3.org/2000/svg" xmlns:xlink="http://www.w3.org/1999/xlink">
<g id="graph0" class="graph" transform="scale(1 1) rotate(0) translate(4 518)">
<title>InputMatrix::CreateBinding</title>
<polygon fill="#ffffff" stroke="transparent" points="-4,4 -4,-518 1022,-518 1022,4 -4,4"/>
<!-- Node23 -->
<g id="node1" class="node">
<title>Node23</title>
<polygon fill="#bfbfbf" stroke="#000000" points="0,-361.5 0,-380.5 147,-380.5 147,-361.5 0,-361.5"/>
<text text-anchor="middle" x="73.5" y="-368.5" font-family="Helvetica,sans-Serif" font-size="10.00" fill="#000000">InputMatrix::CreateBinding</text>
</g>
<!-- Node24 -->
<g id="node2" class="node">
<title>Node24</title>
<g id="a_node2"><a xlink:href="classEvent.html#a28e62812f848678a30531c56a44c8e57" target="_top" xlink:title="Event::GetEventByName">
<polygon fill="#ffffff" stroke="#000000" points="205.5,-494.5 205.5,-513.5 342.5,-513.5 342.5,-494.5 205.5,-494.5"/>
<text text-anchor="middle" x="274" y="-501.5" font-family="Helvetica,sans-Serif" font-size="10.00" fill="#000000">Event::GetEventByName</text>
</a>
</g>
</g>
<!-- Node23&#45;&gt;Node24 -->
<g id="edge1" class="edge">
<title>Node23&#45;&gt;Node24</title>
<path fill="none" stroke="#191970" d="M80.2454,-380.5357C95.804,-401.7997 136.4571,-453.3212 183,-480 191.0156,-484.5946 199.9301,-488.3305 208.9553,-491.3627"/>
<polygon fill="#191970" stroke="#191970" points="208.1674,-494.7823 218.7547,-494.3842 210.23,-488.093 208.1674,-494.7823"/>
</g>
<!-- Node26 -->
<g id="node4" class="node">
<title>Node26</title>
<g id="a_node4"><a xlink:href="classEvent.html#ac4c4170579544b41dff38ca1b8110e30" target="_top" xlink:title="Event::GetType">
<polygon fill="#ffffff" stroke="#000000" points="435,-418.5 435,-437.5 525,-437.5 525,-418.5 435,-418.5"/>
<text text-anchor="middle" x="480" y="-425.5" font-family="Helvetica,sans-Serif" font-size="10.00" fill="#000000">Event::GetType</text>
</a>
</g>
</g>
<!-- Node23&#45;&gt;Node26 -->
<g id="edge3" class="edge">
<title>Node23&#45;&gt;Node26</title>
<path fill="none" stroke="#191970" d="M147.2749,-379.9116C206.2629,-387.207 291.0354,-398.0721 365,-409 384.5991,-411.8957 406.0271,-415.3554 425.0186,-418.5243"/>
<polygon fill="#191970" stroke="#191970" points="424.5559,-421.9955 434.9974,-420.1997 425.715,-415.0922 424.5559,-421.9955"/>
</g>
<!-- Node27 -->
<g id="node5" class="node">
<title>Node27</title>
<g id="a_node5"><a xlink:href="classEvent.html#a54c555e0e79c1aa8eaf3dac82e500ee9" target="_top" xlink:title="Event::GetParamIdxByType">
<polygon fill="#ffffff" stroke="#000000" points="199.5,-418.5 199.5,-437.5 348.5,-437.5 348.5,-418.5 199.5,-418.5"/>
<text text-anchor="middle" x="274" y="-425.5" font-family="Helvetica,sans-Serif" font-size="10.00" fill="#000000">Event::GetParamIdxByType</text>
</a>
</g>
</g>
<!-- Node23&#45;&gt;Node27 -->
<g id="edge4" class="edge">
<title>Node23&#45;&gt;Node27</title>
<path fill="none" stroke="#191970" d="M104.096,-380.5323C126.0091,-387.2831 156.2497,-396.4441 183,-404 197.1709,-408.0027 212.6426,-412.1617 226.7428,-415.8708"/>
<polygon fill="#191970" stroke="#191970" points="226.1691,-419.3384 236.7294,-418.4834 227.9408,-412.5663 226.1691,-419.3384"/>
</g>
<!-- Node28 -->
<g id="node6" class="node">
<title>Node28</title>
<g id="a_node6"><a xlink:href="classEvent.html#a26e6e1967674bcda9abad999b0954ed9" target="_top" xlink:title="Event::GetParam">
<polygon fill="#ffffff" stroke="#000000" points="782,-380.5 782,-399.5 880,-399.5 880,-380.5 782,-380.5"/>
<text text-anchor="middle" x="831" y="-387.5" font-family="Helvetica,sans-Serif" font-size="10.00" fill="#000000">Event::GetParam</text>
</a>
</g>
</g>
<!-- Node23&#45;&gt;Node28 -->
<g id="edge5" class="edge">
<title>Node23&#45;&gt;Node28</title>
<path fill="none" stroke="#191970" d="M82.9352,-380.6571C100.6265,-397.9892 140.8196,-433.7964 183,-447 406.7671,-517.0453 693.7957,-435.9837 794.2924,-402.843"/>
<polygon fill="#191970" stroke="#191970" points="795.6018,-406.0958 803.9765,-399.6062 793.3827,-399.4568 795.6018,-406.0958"/>
</g>
<!-- Node29 -->
<g id="node7" class="node">
<title>Node29</title>
<g id="a_node7"><a xlink:href="classEvent.html#a707ea2bcadc7c249ac52c72b36e876b9" target="_top" xlink:title="Event::GetEventName">
<polygon fill="#ffffff" stroke="#000000" points="211.5,-342.5 211.5,-361.5 336.5,-361.5 336.5,-342.5 211.5,-342.5"/>
<text text-anchor="middle" x="274" y="-349.5" font-family="Helvetica,sans-Serif" font-size="10.00" fill="#000000">Event::GetEventName</text>
</a>
</g>
</g>
<!-- Node23&#45;&gt;Node29 -->
<g id="edge6" class="edge">
<title>Node23&#45;&gt;Node29</title>
<path fill="none" stroke="#191970" d="M147.0203,-364.033C164.678,-362.3597 183.5292,-360.5733 201.1559,-358.9029"/>
<polygon fill="#191970" stroke="#191970" points="201.7494,-362.3625 211.3746,-357.9346 201.0889,-355.3937 201.7494,-362.3625"/>
</g>
<!-- Node30 -->
<g id="node8" class="node">
<title>Node30</title>
<g id="a_node8"><a xlink:href="classInputMatrix.html#a767b7c5cd149e18a51105922aa9e8abb" target="_top" xlink:title="InputMatrix::CreateConditions">
<polygon fill="#ffffff" stroke="#000000" points="193,-304.5 193,-323.5 355,-323.5 355,-304.5 193,-304.5"/>
<text text-anchor="middle" x="274" y="-311.5" font-family="Helvetica,sans-Serif" font-size="10.00" fill="#000000">InputMatrix::CreateConditions</text>
</a>
</g>
</g>
<!-- Node23&#45;&gt;Node30 -->
<g id="edge7" class="edge">
<title>Node23&#45;&gt;Node30</title>
<path fill="none" stroke="#191970" d="M98.0036,-361.4827C120.0101,-353.1798 153.3273,-341.21 183,-333 192.5663,-330.3532 202.7881,-327.8815 212.7984,-325.6536"/>
<polygon fill="#191970" stroke="#191970" points="213.6726,-329.0456 222.706,-323.5096 212.192,-322.2039 213.6726,-329.0456"/>
</g>
<!-- Node44 -->
<g id="node22" class="node">
<title>Node44</title>
<g id="a_node22"><a xlink:href="classInputMatrix.html#ab36ad421b65b64d6e64f228b84792b4c" target="_top" xlink:title="InputMatrix::CreateParameterSets">
<polygon fill="#ffffff" stroke="#000000" points="183,-209.5 183,-228.5 365,-228.5 365,-209.5 183,-209.5"/>
<text text-anchor="middle" x="274" y="-216.5" font-family="Helvetica,sans-Serif" font-size="10.00" fill="#000000">InputMatrix::CreateParameterSets</text>
</a>
</g>
</g>
<!-- Node23&#45;&gt;Node44 -->
<g id="edge25" class="edge">
<title>Node23&#45;&gt;Node44</title>
<path fill="none" stroke="#191970" d="M86.0422,-361.4917C119.6582,-336.0073 212.0242,-265.9841 253.4381,-234.588"/>
<polygon fill="#191970" stroke="#191970" points="255.6081,-237.3351 261.4626,-228.5047 251.3792,-231.7569 255.6081,-237.3351"/>
</g>
<!-- Node47 -->
<g id="node25" class="node">
<title>Node47</title>
<g id="a_node25"><a xlink:href="classPreallocated.html#aaf2139a79ca16de70acd9bc4564171b7" target="_top" xlink:title="Preallocated::RTDelete">
<polygon fill="#ffffff" stroke="#000000" points="210,-171.5 210,-190.5 338,-190.5 338,-171.5 210,-171.5"/>
<text text-anchor="middle" x="274" y="-178.5" font-family="Helvetica,sans-Serif" font-size="10.00" fill="#000000">Preallocated::RTDelete</text>
</a>
</g>
</g>
<!-- Node23&#45;&gt;Node47 -->
<g id="edge36" class="edge">
<title>Node23&#45;&gt;Node47</title>
<path fill="none" stroke="#191970" d="M76.6391,-361.341C86.7542,-331.8509 121.4677,-242.4165 183,-200 188.2322,-196.3933 194.0076,-193.4465 200.0355,-191.0421"/>
<polygon fill="#191970" stroke="#191970" points="201.3765,-194.2815 209.6737,-187.6932 199.0789,-187.6693 201.3765,-194.2815"/>
</g>
<!-- Node25 -->
<g id="node3" class="node">
<title>Node25</title>
<g id="a_node3"><a xlink:href="classEvent.html#aa67af0ae99b897e4f0ce42068c4e4c00" target="_top" xlink:title="Event::GetEventByType">
<polygon fill="#ffffff" stroke="#000000" points="414.5,-494.5 414.5,-513.5 545.5,-513.5 545.5,-494.5 414.5,-494.5"/>
<text text-anchor="middle" x="480" y="-501.5" font-family="Helvetica,sans-Serif" font-size="10.00" fill="#000000">Event::GetEventByType</text>
</a>
</g>
</g>
<!-- Node24&#45;&gt;Node25 -->
<g id="edge2" class="edge">
<title>Node24&#45;&gt;Node25</title>
<path fill="none" stroke="#191970" d="M342.595,-504C362.4199,-504 384.166,-504 404.3924,-504"/>
<polygon fill="#191970" stroke="#191970" points="404.4975,-507.5001 414.4974,-504 404.4974,-500.5001 404.4975,-507.5001"/>
</g>
<!-- Node30&#45;&gt;Node26 -->
<g id="edge11" class="edge">
<title>Node30&#45;&gt;Node26</title>
<path fill="none" stroke="#191970" d="M348.5367,-323.5607C354.417,-326.0699 360.0033,-329.1723 365,-333 393.0865,-354.5151 373.8996,-381.2553 401,-404 408.015,-409.8875 416.4491,-414.3312 425.1571,-417.685"/>
<polygon fill="#191970" stroke="#191970" points="424.0651,-421.0104 434.6595,-420.9132 426.3168,-414.3824 424.0651,-421.0104"/>
</g>
<!-- Node30&#45;&gt;Node28 -->
<g id="edge10" class="edge">
<title>Node30&#45;&gt;Node28</title>
<path fill="none" stroke="#191970" d="M332.9929,-323.6066C343.804,-326.1268 354.8664,-329.2265 365,-333 382.1527,-339.3872 383.4951,-347.6528 401,-353 528.7786,-392.0324 687.1716,-394.6409 771.538,-392.6296"/>
<polygon fill="#191970" stroke="#191970" points="771.7984,-396.1239 781.7006,-392.3561 771.6101,-389.1264 771.7984,-396.1239"/>
</g>
<!-- Node31 -->
<g id="node9" class="node">
<title>Node31</title>
<g id="a_node9"><a xlink:href="classInputMatrix.html#a9c70a379d4cd4ab0e820ad141246c5ce" target="_top" xlink:title="InputMatrix::RemoveSpaces">
<polygon fill="#ffffff" stroke="#000000" points="404,-228.5 404,-247.5 556,-247.5 556,-228.5 404,-228.5"/>
<text text-anchor="middle" x="480" y="-235.5" font-family="Helvetica,sans-Serif" font-size="10.00" fill="#000000">InputMatrix::RemoveSpaces</text>
</a>
</g>
</g>
<!-- Node30&#45;&gt;Node31 -->
<g id="edge8" class="edge">
<title>Node30&#45;&gt;Node31</title>
<path fill="none" stroke="#191970" d="M292.4937,-304.3832C316.8343,-292.0352 361.2032,-270.5846 401,-257 408.4155,-254.4687 416.3324,-252.1414 424.1838,-250.0487"/>
<polygon fill="#191970" stroke="#191970" points="425.2301,-253.3938 434.0514,-247.5257 423.496,-246.612 425.2301,-253.3938"/>
</g>
<!-- Node32 -->
<g id="node10" class="node">
<title>Node32</title>
<g id="a_node10"><a xlink:href="classEvent.html#acf5ff334c2594af821ffe232e3b4ae07" target="_top" xlink:title="Event::GetNumParams">
<polygon fill="#ffffff" stroke="#000000" points="767.5,-266.5 767.5,-285.5 894.5,-285.5 894.5,-266.5 767.5,-266.5"/>
<text text-anchor="middle" x="831" y="-273.5" font-family="Helvetica,sans-Serif" font-size="10.00" fill="#000000">Event::GetNumParams</text>
</a>
</g>
</g>
<!-- Node30&#45;&gt;Node32 -->
<g id="edge9" class="edge">
<title>Node30&#45;&gt;Node32</title>
<path fill="none" stroke="#191970" d="M325.7082,-323.5137C348.6784,-327.2794 376.0995,-331.1477 401,-333 471.0287,-338.2094 494.4921,-360.7469 559,-333 580.3713,-323.8075 574.0151,-305.0433 595,-295 645.4515,-270.8542 708.9455,-267.0088 757.3634,-268.7051"/>
<polygon fill="#191970" stroke="#191970" points="757.3131,-272.2062 767.4563,-269.1459 757.6185,-265.2128 757.3131,-272.2062"/>
</g>
<!-- Node33 -->
<g id="node11" class="node">
<title>Node33</title>
<g id="a_node11"><a xlink:href="classInputMatrix.html#a0f597dbf1d6c784c851626005fb2ee72" target="_top" xlink:title="InputMatrix::ParseExpression">
<polygon fill="#ffffff" stroke="#000000" points="401,-304.5 401,-323.5 559,-323.5 559,-304.5 401,-304.5"/>
<text text-anchor="middle" x="480" y="-311.5" font-family="Helvetica,sans-Serif" font-size="10.00" fill="#000000">InputMatrix::ParseExpression</text>
</a>
</g>
</g>
<!-- Node30&#45;&gt;Node33 -->
<g id="edge12" class="edge">
<title>Node30&#45;&gt;Node33</title>
<path fill="none" stroke="#191970" d="M355.1209,-314C366.7899,-314 378.8517,-314 390.6691,-314"/>
<polygon fill="#191970" stroke="#191970" points="390.9753,-317.5001 400.9752,-314 390.9752,-310.5001 390.9753,-317.5001"/>
</g>
<!-- Node37 -->
<g id="node15" class="node">
<title>Node37</title>
<g id="a_node15"><a xlink:href="classParsedExpression.html#a18b7d8e3e735dc63abfb35f4e398e8ee" target="_top" xlink:title="ParsedExpression::IsStatic">
<polygon fill="#ffffff" stroke="#000000" points="408,-266.5 408,-285.5 552,-285.5 552,-266.5 408,-266.5"/>
<text text-anchor="middle" x="480" y="-273.5" font-family="Helvetica,sans-Serif" font-size="10.00" fill="#000000">ParsedExpression::IsStatic</text>
</a>
</g>
</g>
<!-- Node30&#45;&gt;Node37 -->
<g id="edge18" class="edge">
<title>Node30&#45;&gt;Node37</title>
<path fill="none" stroke="#191970" d="M325.7166,-304.46C353.7556,-299.2878 388.6018,-292.8599 418.0794,-287.4222"/>
<polygon fill="#191970" stroke="#191970" points="419.063,-290.7999 428.2621,-285.5439 417.7931,-283.9161 419.063,-290.7999"/>
</g>
<!-- Node38 -->
<g id="node16" class="node">
<title>Node38</title>
<g id="a_node16"><a xlink:href="classParsedExpression.html#a8b8c5462181f05c11f51df722809ac7e" target="_top" xlink:title="ParsedExpression::Evaluate">
<polygon fill="#ffffff" stroke="#000000" points="404.5,-76.5 404.5,-95.5 555.5,-95.5 555.5,-76.5 404.5,-76.5"/>
<text text-anchor="middle" x="480" y="-83.5" font-family="Helvetica,sans-Serif" font-size="10.00" fill="#000000">ParsedExpression::Evaluate</text>
</a>
</g>
</g>
<!-- Node30&#45;&gt;Node38 -->
<g id="edge19" class="edge">
<title>Node30&#45;&gt;Node38</title>
<path fill="none" stroke="#191970" d="M289.9823,-304.3622C310.0518,-291.5195 344.35,-267.011 365,-238 391.1836,-201.215 373.531,-178.8353 401,-143 414.6298,-125.219 435.307,-110.5774 452.0887,-100.5873"/>
<polygon fill="#191970" stroke="#191970" points="453.9978,-103.5275 460.9416,-95.5253 450.5232,-97.4507 453.9978,-103.5275"/>
</g>
<!-- Node42 -->
<g id="node20" class="node">
<title>Node42</title>
<g id="a_node20"><a xlink:href="classParsedExpression.html#a0d3a48a6f1743c631cc6892a2f37d545" target="_top" xlink:title="ParsedExpression::Print">
<polygon fill="#ffffff" stroke="#000000" points="414.5,-152.5 414.5,-171.5 545.5,-171.5 545.5,-152.5 414.5,-152.5"/>
<text text-anchor="middle" x="480" y="-159.5" font-family="Helvetica,sans-Serif" font-size="10.00" fill="#000000">ParsedExpression::Print</text>
</a>
</g>
</g>
<!-- Node30&#45;&gt;Node42 -->
<g id="edge23" class="edge">
<title>Node30&#45;&gt;Node42</title>
<path fill="none" stroke="#191970" d="M286.5646,-304.4892C309.304,-287.3015 358.8394,-249.975 401,-219 420.3199,-204.8058 442.4656,-188.8546 458.3843,-177.444"/>
<polygon fill="#191970" stroke="#191970" points="460.4366,-180.2793 466.53,-171.612 456.3616,-174.5877 460.4366,-180.2793"/>
</g>
<!-- Node34 -->
<g id="node12" class="node">
<title>Node34</title>
<g id="a_node12"><a xlink:href="classInputMatrix.html#a3fef785cfe7cbdd8c5cef1b3988a5928" target="_top" xlink:title="InputMatrix::ParseToken">
<polygon fill="#ffffff" stroke="#000000" points="595,-304.5 595,-323.5 728,-323.5 728,-304.5 595,-304.5"/>
<text text-anchor="middle" x="661.5" y="-311.5" font-family="Helvetica,sans-Serif" font-size="10.00" fill="#000000">InputMatrix::ParseToken</text>
</a>
</g>
</g>
<!-- Node33&#45;&gt;Node34 -->
<g id="edge13" class="edge">
<title>Node33&#45;&gt;Node34</title>
<path fill="none" stroke="#191970" d="M559.0806,-314C567.5699,-314 576.1978,-314 584.6603,-314"/>
<polygon fill="#191970" stroke="#191970" points="584.8804,-317.5001 594.8804,-314 584.8803,-310.5001 584.8804,-317.5001"/>
</g>
<!-- Node34&#45;&gt;Node28 -->
<g id="edge16" class="edge">
<title>Node34&#45;&gt;Node28</title>
<path fill="none" stroke="#191970" d="M696.1699,-323.6121C706.7872,-327.3074 718.2338,-332.0906 728,-338 746.5702,-349.2365 745.0479,-360.4204 764,-371 767.9672,-373.2146 772.2133,-375.1884 776.5711,-376.9444"/>
<polygon fill="#191970" stroke="#191970" points="775.6301,-380.3263 786.2242,-380.4497 778.0194,-373.7466 775.6301,-380.3263"/>
</g>
<!-- Node34&#45;&gt;Node32 -->
<g id="edge15" class="edge">
<title>Node34&#45;&gt;Node32</title>
<path fill="none" stroke="#191970" d="M704.272,-304.411C726.8409,-299.3513 754.7232,-293.1004 778.5833,-287.7512"/>
<polygon fill="#191970" stroke="#191970" points="779.5435,-291.1229 788.5356,-285.5201 778.0121,-284.2925 779.5435,-291.1229"/>
</g>
<!-- Node35 -->
<g id="node13" class="node">
<title>Node35</title>
<g id="a_node13"><a xlink:href="classSDLIO.html#abaeb854236eac3b6f32bd3f180035c04" target="_top" xlink:title="SDLIO::GetSDLKey">
<polygon fill="#ffffff" stroke="#000000" points="778,-304.5 778,-323.5 884,-323.5 884,-304.5 778,-304.5"/>
<text text-anchor="middle" x="831" y="-311.5" font-family="Helvetica,sans-Serif" font-size="10.00" fill="#000000">SDLIO::GetSDLKey</text>
</a>
</g>
</g>
<!-- Node34&#45;&gt;Node35 -->
<g id="edge14" class="edge">
<title>Node34&#45;&gt;Node35</title>
<path fill="none" stroke="#191970" d="M728.0044,-314C741.031,-314 754.6613,-314 767.5839,-314"/>
<polygon fill="#191970" stroke="#191970" points="767.7707,-317.5001 777.7707,-314 767.7706,-310.5001 767.7707,-317.5001"/>
</g>
<!-- Node36 -->
<g id="node14" class="node">
<title>Node36</title>
<g id="a_node14"><a xlink:href="classInputMatrix.html#acafdb1d056b52e894a11496f3f322078" target="_top" xlink:title="InputMatrix::SetVariable">
<polygon fill="#ffffff" stroke="#000000" points="764,-342.5 764,-361.5 898,-361.5 898,-342.5 764,-342.5"/>
<text text-anchor="middle" x="831" y="-349.5" font-family="Helvetica,sans-Serif" font-size="10.00" fill="#000000">InputMatrix::SetVariable</text>
</a>
</g>
</g>
<!-- Node34&#45;&gt;Node36 -->
<g id="edge17" class="edge">
<title>Node34&#45;&gt;Node36</title>
<path fill="none" stroke="#191970" d="M704.272,-323.589C726.8409,-328.6487 754.7232,-334.8996 778.5833,-340.2488"/>
<polygon fill="#191970" stroke="#191970" points="778.0121,-343.7075 788.5356,-342.4799 779.5435,-336.8771 778.0121,-343.7075"/>
</g>
<!-- Node39 -->
<g id="node17" class="node">
<title>Node39</title>
<g id="a_node17"><a xlink:href="classCfgToken.html#a5e30ffe3bc7cf2483e390cf023eaa6c0" target="_top" xlink:title="CfgToken::Evaluate">
<polygon fill="#ffffff" stroke="#000000" points="606.5,-76.5 606.5,-95.5 716.5,-95.5 716.5,-76.5 606.5,-76.5"/>
<text text-anchor="middle" x="661.5" y="-83.5" font-family="Helvetica,sans-Serif" font-size="10.00" fill="#000000">CfgToken::Evaluate</text>
</a>
</g>
</g>
<!-- Node38&#45;&gt;Node39 -->
<g id="edge20" class="edge">
<title>Node38&#45;&gt;Node39</title>
<path fill="none" stroke="#191970" d="M555.6581,-86C569.0895,-86 582.9747,-86 596.092,-86"/>
<polygon fill="#191970" stroke="#191970" points="596.4239,-89.5001 606.4238,-86 596.4238,-82.5001 596.4239,-89.5001"/>
</g>
<!-- Node40 -->
<g id="node18" class="node">
<title>Node40</title>
<g id="a_node18"><a xlink:href="classUserVariable.html#a7cbb83559d78173a8b7810c3ecc3842f" target="_top" xlink:title="UserVariable::SetFrom">
<polygon fill="#ffffff" stroke="#000000" points="768.5,-76.5 768.5,-95.5 893.5,-95.5 893.5,-76.5 768.5,-76.5"/>
<text text-anchor="middle" x="831" y="-83.5" font-family="Helvetica,sans-Serif" font-size="10.00" fill="#000000">UserVariable::SetFrom</text>
</a>
</g>
</g>
<!-- Node39&#45;&gt;Node40 -->
<g id="edge21" class="edge">
<title>Node39&#45;&gt;Node40</title>
<path fill="none" stroke="#191970" d="M716.5318,-86C729.8332,-86 744.2528,-86 758.2289,-86"/>
<polygon fill="#191970" stroke="#191970" points="758.305,-89.5001 768.3049,-86 758.3049,-82.5001 758.305,-89.5001"/>
</g>
<!-- Node41 -->
<g id="node19" class="node">
<title>Node41</title>
<g id="a_node19"><a xlink:href="classRange.html#a378dde258315602c6929b84cb10f8f8d" target="_top" xlink:title="Range::Range">
<polygon fill="#ffffff" stroke="#000000" points="934,-76.5 934,-95.5 1018,-95.5 1018,-76.5 934,-76.5"/>
<text text-anchor="middle" x="976" y="-83.5" font-family="Helvetica,sans-Serif" font-size="10.00" fill="#000000">Range::Range</text>
</a>
</g>
</g>
<!-- Node40&#45;&gt;Node41 -->
<g id="edge22" class="edge">
<title>Node40&#45;&gt;Node41</title>
<path fill="none" stroke="#191970" d="M893.7558,-86C903.6484,-86 913.7876,-86 923.4184,-86"/>
<polygon fill="#191970" stroke="#191970" points="923.6336,-89.5001 933.6336,-86 923.6336,-82.5001 923.6336,-89.5001"/>
</g>
<!-- Node43 -->
<g id="node21" class="node">
<title>Node43</title>
<g id="a_node21"><a xlink:href="classCfgToken.html#abba9204af7f225da0c2c0793c119cf8b" target="_top" xlink:title="CfgToken::Print">
<polygon fill="#ffffff" stroke="#000000" points="616.5,-152.5 616.5,-171.5 706.5,-171.5 706.5,-152.5 616.5,-152.5"/>
<text text-anchor="middle" x="661.5" y="-159.5" font-family="Helvetica,sans-Serif" font-size="10.00" fill="#000000">CfgToken::Print</text>
</a>
</g>
</g>
<!-- Node42&#45;&gt;Node43 -->
<g id="edge24" class="edge">
<title>Node42&#45;&gt;Node43</title>
<path fill="none" stroke="#191970" d="M545.5257,-162C565.4081,-162 587.0452,-162 606.1869,-162"/>
<polygon fill="#191970" stroke="#191970" points="606.2411,-165.5001 616.2411,-162 606.2411,-158.5001 606.2411,-165.5001"/>
</g>
<!-- Node44&#45;&gt;Node26 -->
<g id="edge29" class="edge">
<title>Node44&#45;&gt;Node26</title>
<path fill="none" stroke="#191970" d="M286.9189,-228.7135C305.0831,-242.6053 338.8714,-269.3151 365,-295 385.7931,-315.44 439.5943,-379.439 465.5599,-410.6028"/>
<polygon fill="#191970" stroke="#191970" points="463.0088,-413.009 472.0948,-418.4584 468.3902,-408.5323 463.0088,-413.009"/>
</g>
<!-- Node44&#45;&gt;Node28 -->
<g id="edge28" class="edge">
<title>Node44&#45;&gt;Node28</title>
<path fill="none" stroke="#191970" d="M347.3064,-209.4897C420.4796,-201.6408 526.5742,-195.2355 559,-219 601.8558,-250.4085 556.1577,-296.7455 595,-333 620.3576,-356.6682 710.659,-373.4636 771.9154,-382.4404"/>
<polygon fill="#191970" stroke="#191970" points="771.4639,-385.9114 781.8596,-383.8667 772.4579,-378.9823 771.4639,-385.9114"/>
</g>
<!-- Node44&#45;&gt;Node31 -->
<g id="edge26" class="edge">
<title>Node44&#45;&gt;Node31</title>
<path fill="none" stroke="#191970" d="M365.2542,-227.4167C374.7382,-228.2914 384.3568,-229.1785 393.7826,-230.0479"/>
<polygon fill="#191970" stroke="#191970" points="393.6404,-233.5496 403.9196,-230.9829 394.2834,-226.5791 393.6404,-233.5496"/>
</g>
<!-- Node44&#45;&gt;Node32 -->
<g id="edge27" class="edge">
<title>Node44&#45;&gt;Node32</title>
<path fill="none" stroke="#191970" d="M346.7809,-209.4681C353.24,-206.9725 359.4311,-203.8646 365,-200 389.6163,-182.9174 374.759,-157.4632 401,-143 464.6403,-107.9235 662.7558,-111.0057 728,-143 776.7664,-166.9139 809.0373,-226.2744 823.0428,-256.9588"/>
<polygon fill="#191970" stroke="#191970" points="819.8638,-258.4245 827.0897,-266.1729 826.2729,-255.6096 819.8638,-258.4245"/>
</g>
<!-- Node44&#45;&gt;Node33 -->
<g id="edge30" class="edge">
<title>Node44&#45;&gt;Node33</title>
<path fill="none" stroke="#191970" d="M287.01,-228.6288C309.2548,-244.6565 356.5154,-276.8369 401,-295 407.1421,-297.5078 413.6938,-299.7355 420.2973,-301.7013"/>
<polygon fill="#191970" stroke="#191970" points="419.395,-305.0831 429.9675,-304.3962 421.2741,-298.3401 419.395,-305.0831"/>
</g>
<!-- Node44&#45;&gt;Node37 -->
<g id="edge31" class="edge">
<title>Node44&#45;&gt;Node37</title>
<path fill="none" stroke="#191970" d="M304.1464,-228.5271C329.7956,-236.5109 367.6688,-248.0125 401,-257 409.9019,-259.4003 419.4078,-261.8135 428.629,-264.0765"/>
<polygon fill="#191970" stroke="#191970" points="427.938,-267.5103 438.4812,-266.4654 429.5876,-260.7074 427.938,-267.5103"/>
</g>
<!-- Node44&#45;&gt;Node38 -->
<g id="edge32" class="edge">
<title>Node44&#45;&gt;Node38</title>
<path fill="none" stroke="#191970" d="M350.2457,-209.2953C355.5501,-206.7942 360.5489,-203.7344 365,-200 398.0041,-172.3102 369.2618,-139.1323 401,-110 405.3973,-105.9638 410.4542,-102.6056 415.8399,-99.8117"/>
<polygon fill="#191970" stroke="#191970" points="417.4708,-102.916 425.1555,-95.6224 414.5997,-96.5318 417.4708,-102.916"/>
</g>
<!-- Node44&#45;&gt;Node42 -->
<g id="edge35" class="edge">
<title>Node44&#45;&gt;Node42</title>
<path fill="none" stroke="#191970" d="M327.2997,-209.4091C339.7688,-206.7423 352.9311,-203.58 365,-200 381.4585,-195.1179 384.7753,-191.6102 401,-186 412.4209,-182.0508 424.8871,-178.0999 436.4715,-174.5767"/>
<polygon fill="#191970" stroke="#191970" points="437.806,-177.8304 446.3764,-171.6015 435.7922,-171.1264 437.806,-177.8304"/>
</g>
<!-- Node45 -->
<g id="node23" class="node">
<title>Node45</title>
<g id="a_node23"><a xlink:href="classInputMatrix.html#a4bdbe216f1921d686a02c4416ac8d6db" target="_top" xlink:title="InputMatrix::StoreParameter">
<polygon fill="#ffffff" stroke="#000000" points="403,-38.5 403,-57.5 557,-57.5 557,-38.5 403,-38.5"/>
<text text-anchor="middle" x="480" y="-45.5" font-family="Helvetica,sans-Serif" font-size="10.00" fill="#000000">InputMatrix::StoreParameter</text>
</a>
</g>
</g>
<!-- Node44&#45;&gt;Node45 -->
<g id="edge33" class="edge">
<title>Node44&#45;&gt;Node45</title>
<path fill="none" stroke="#191970" d="M351.6048,-209.4104C356.4712,-206.8651 361.008,-203.765 365,-200 409.55,-157.9831 357.0892,-109.6845 401,-67 402.4793,-65.562 404.0474,-64.2263 405.6894,-62.9859"/>
<polygon fill="#191970" stroke="#191970" points="407.7984,-65.7961 414.4451,-57.5456 404.104,-59.8504 407.7984,-65.7961"/>
</g>
<!-- Node46 -->
<g id="node24" class="node">
<title>Node46</title>
<g id="a_node24"><a xlink:href="classUserVariable.html#ae466385812bffba8ef308668d47f561e" target="_top" xlink:title="UserVariable::Print">
<polygon fill="#ffffff" stroke="#000000" points="426.5,-.5 426.5,-19.5 533.5,-19.5 533.5,-.5 426.5,-.5"/>
<text text-anchor="middle" x="480" y="-7.5" font-family="Helvetica,sans-Serif" font-size="10.00" fill="#000000">UserVariable::Print</text>
</a>
</g>
</g>
<!-- Node44&#45;&gt;Node46 -->
<g id="edge34" class="edge">
<title>Node44&#45;&gt;Node46</title>
<path fill="none" stroke="#191970" d="M352.2733,-209.4317C356.9213,-206.8714 361.2308,-203.7629 365,-200 419.9637,-145.1275 346.8708,-84.6958 401,-29 405.5163,-24.353 410.9556,-20.7619 416.8411,-17.9975"/>
<polygon fill="#191970" stroke="#191970" points="418.327,-21.1754 426.3887,-14.3008 415.7995,-14.6476 418.327,-21.1754"/>
</g>
</g>
</svg>
