<?xml version="1.0" encoding="UTF-8" standalone="no"?>
<!DOCTYPE svg PUBLIC "-//W3C//DTD SVG 1.1//EN"
 "http://www.w3.org/Graphics/SVG/1.1/DTD/svg11.dtd">
<!-- Generated by graphviz version 2.40.1 (20161225.0304)
 -->
<!-- Title: Fweelin::getSTREAMSIZE Pages: 1 -->
<svg width="345pt" height="66pt"
 viewBox="0.00 0.00 345.00 66.00" xmlns="http://www.w3.org/2000/svg" xmlns:xlink="http://www.w3.org/1999/xlink">
<g id="graph0" class="graph" transform="scale(1 1) rotate(0) translate(4 62)">
<title>Fweelin::getSTREAMSIZE</title>
<polygon fill="#ffffff" stroke="transparent" points="-4,4 -4,-62 341,-62 341,4 -4,4"/>
<!-- Node472 -->
<g id="node1" class="node">
<title>Node472</title>
<polygon fill="#bfbfbf" stroke="#000000" points="0,-19.5 0,-38.5 137,-38.5 137,-19.5 0,-19.5"/>
<text text-anchor="middle" x="68.5" y="-26.5" font-family="Helvetica,sans-Serif" font-size="10.00" fill="#000000">Fweelin::getSTREAMSIZE</text>
</g>
<!-- Node473 -->
<g id="node2" class="node">
<title>Node473</title>
<g id="a_node2"><a xlink:href="classFileStreamer.html#a631bdb9be843ff46d0a7c33db9d816fd" target="_top" xlink:title="FileStreamer::GetOutputName">
<polygon fill="#ffffff" stroke="#000000" points="173,-38.5 173,-57.5 337,-57.5 337,-38.5 173,-38.5"/>
<text text-anchor="middle" x="255" y="-45.5" font-family="Helvetica,sans-Serif" font-size="10.00" fill="#000000">FileStreamer::GetOutputName</text>
</a>
</g>
</g>
<!-- Node472&#45;&gt;Node473 -->
<g id="edge1" class="edge">
<title>Node472&#45;&gt;Node473</title>
<path fill="none" stroke="#191970" d="M137.1512,-35.994C145.5121,-36.8457 154.1571,-37.7265 162.7902,-38.606"/>
<polygon fill="#191970" stroke="#191970" points="162.5983,-42.1044 172.9015,-39.6361 163.3078,-35.1405 162.5983,-42.1044"/>
</g>
<!-- Node474 -->
<g id="node3" class="node">
<title>Node474</title>
<g id="a_node3"><a xlink:href="classFileStreamer.html#afefb7454ef94c06c37db8a9b5b8200a1" target="_top" xlink:title="FileStreamer::GetOutputSize">
<polygon fill="#ffffff" stroke="#000000" points="177.5,-.5 177.5,-19.5 332.5,-19.5 332.5,-.5 177.5,-.5"/>
<text text-anchor="middle" x="255" y="-7.5" font-family="Helvetica,sans-Serif" font-size="10.00" fill="#000000">FileStreamer::GetOutputSize</text>
</a>
</g>
</g>
<!-- Node472&#45;&gt;Node474 -->
<g id="edge2" class="edge">
<title>Node472&#45;&gt;Node474</title>
<path fill="none" stroke="#191970" d="M137.1512,-22.006C146.9661,-21.0061 157.1726,-19.9663 167.2918,-18.9354"/>
<polygon fill="#191970" stroke="#191970" points="167.7704,-22.4049 177.3641,-17.9093 167.0609,-15.4409 167.7704,-22.4049"/>
</g>
</g>
</svg>
