<?xml version="1.0" encoding="UTF-8" standalone="no"?>
<!DOCTYPE svg PUBLIC "-//W3C//DTD SVG 1.1//EN"
 "http://www.w3.org/Graphics/SVG/1.1/DTD/svg11.dtd">
<!-- Generated by graphviz version 2.40.1 (20161225.0304)
 -->
<!-- Title: FloConfig::GetMaxSnapshots Pages: 1 -->
<svg width="958pt" height="268pt"
 viewBox="0.00 0.00 958.00 268.00" xmlns="http://www.w3.org/2000/svg" xmlns:xlink="http://www.w3.org/1999/xlink">
<g id="graph0" class="graph" transform="scale(1 1) rotate(0) translate(4 264)">
<title>FloConfig::GetMaxSnapshots</title>
<polygon fill="#ffffff" stroke="transparent" points="-4,4 -4,-264 954,-264 954,4 -4,4"/>
<!-- Node191 -->
<g id="node1" class="node">
<title>Node191</title>
<polygon fill="#bfbfbf" stroke="#000000" points="0,-152.5 0,-171.5 155,-171.5 155,-152.5 0,-152.5"/>
<text text-anchor="middle" x="77.5" y="-159.5" font-family="Helvetica,sans-Serif" font-size="10.00" fill="#000000">FloConfig::GetMaxSnapshots</text>
</g>
<!-- Node192 -->
<g id="node2" class="node">
<title>Node192</title>
<g id="a_node2"><a xlink:href="classTriggerMap.html#a92e251eec5a7c5741807805b6869fab8" target="_top" xlink:title="TriggerMap::GoSave">
<polygon fill="#ffffff" stroke="#000000" points="219,-240.5 219,-259.5 332,-259.5 332,-240.5 219,-240.5"/>
<text text-anchor="middle" x="275.5" y="-247.5" font-family="Helvetica,sans-Serif" font-size="10.00" fill="#000000">TriggerMap::GoSave</text>
</a>
</g>
</g>
<!-- Node191&#45;&gt;Node192 -->
<g id="edge1" class="edge">
<title>Node191&#45;&gt;Node192</title>
<path fill="none" stroke="#191970" d="M98.2732,-177.5022C120.2348,-193.1815 156.4188,-217.0392 191,-231 200.3418,-234.7714 210.5818,-237.8702 220.6098,-240.39"/>
<polygon fill="#191970" stroke="#191970" points="100.1966,-174.5736 90.047,-171.5345 96.0861,-180.2397 100.1966,-174.5736"/>
</g>
<!-- Node194 -->
<g id="node4" class="node">
<title>Node194</title>
<g id="a_node4"><a xlink:href="classLoopManager.html#a7acf07456e2837b96814226e81fdac30" target="_top" xlink:title="LoopManager::UpdateLoopLists\l_ItemAdded">
<polygon fill="#ffffff" stroke="#000000" points="191,-191 191,-221 360,-221 360,-191 191,-191"/>
<text text-anchor="start" x="199" y="-209" font-family="Helvetica,sans-Serif" font-size="10.00" fill="#000000">LoopManager::UpdateLoopLists</text>
<text text-anchor="middle" x="275.5" y="-198" font-family="Helvetica,sans-Serif" font-size="10.00" fill="#000000">_ItemAdded</text>
</a>
</g>
</g>
<!-- Node191&#45;&gt;Node194 -->
<g id="edge3" class="edge">
<title>Node191&#45;&gt;Node194</title>
<path fill="none" stroke="#191970" d="M130.3409,-173.7424C154.0933,-179.0207 182.4131,-185.314 207.7059,-190.9346"/>
<polygon fill="#191970" stroke="#191970" points="130.9842,-170.3001 120.4631,-171.5473 129.4656,-177.1334 130.9842,-170.3001"/>
</g>
<!-- Node197 -->
<g id="node7" class="node">
<title>Node197</title>
<g id="a_node7"><a xlink:href="classLoopManager.html#a4aada2d07b7ce0a67a8119ece4805966" target="_top" xlink:title="LoopManager::ReceiveEvent">
<polygon fill="#ffffff" stroke="#000000" points="796,-133.5 796,-152.5 950,-152.5 950,-133.5 796,-133.5"/>
<text text-anchor="middle" x="873" y="-140.5" font-family="Helvetica,sans-Serif" font-size="10.00" fill="#000000">LoopManager::ReceiveEvent</text>
</a>
</g>
</g>
<!-- Node191&#45;&gt;Node197 -->
<g id="edge17" class="edge">
<title>Node191&#45;&gt;Node197</title>
<path fill="none" stroke="#191970" d="M165.2964,-159.903C321.9648,-156.1611 647.1837,-148.3935 795.8393,-144.8429"/>
<polygon fill="#191970" stroke="#191970" points="165.1378,-156.4057 155.2243,-160.1436 165.3051,-163.4037 165.1378,-156.4057"/>
</g>
<!-- Node198 -->
<g id="node8" class="node">
<title>Node198</title>
<g id="a_node8"><a xlink:href="classLoopManager.html#af9b1708b49b00b353059227a458e1887" target="_top" xlink:title="LoopManager::UpdateLoopLists\l_ItemRemoved">
<polygon fill="#ffffff" stroke="#000000" points="191,-87 191,-117 360,-117 360,-87 191,-87"/>
<text text-anchor="start" x="199" y="-105" font-family="Helvetica,sans-Serif" font-size="10.00" fill="#000000">LoopManager::UpdateLoopLists</text>
<text text-anchor="middle" x="275.5" y="-94" font-family="Helvetica,sans-Serif" font-size="10.00" fill="#000000">_ItemRemoved</text>
</a>
</g>
</g>
<!-- Node191&#45;&gt;Node198 -->
<g id="edge8" class="edge">
<title>Node191&#45;&gt;Node198</title>
<path fill="none" stroke="#191970" d="M118.5444,-149.5623C149.6934,-140.1232 192.657,-127.1039 225.7599,-117.0728"/>
<polygon fill="#191970" stroke="#191970" points="117.4289,-146.2431 108.8737,-152.4928 119.459,-152.9423 117.4289,-146.2431"/>
</g>
<!-- Node202 -->
<g id="node12" class="node">
<title>Node202</title>
<g id="a_node12"><a xlink:href="classLoopManager.html#aeabdbc5dd40563f5c4577228908f5179" target="_top" xlink:title="LoopManager::UpdateLoopLists\l_ItemMoved">
<polygon fill="#ffffff" stroke="#000000" points="396,-3 396,-33 565,-33 565,-3 396,-3"/>
<text text-anchor="start" x="404" y="-21" font-family="Helvetica,sans-Serif" font-size="10.00" fill="#000000">LoopManager::UpdateLoopLists</text>
<text text-anchor="middle" x="480.5" y="-10" font-family="Helvetica,sans-Serif" font-size="10.00" fill="#000000">_ItemMoved</text>
</a>
</g>
</g>
<!-- Node191&#45;&gt;Node202 -->
<g id="edge14" class="edge">
<title>Node191&#45;&gt;Node202</title>
<path fill="none" stroke="#191970" d="M94.6272,-145.523C115.6119,-126.2936 153.072,-94.9714 191,-78 256.3584,-48.7544 336.4505,-33.5655 395.8113,-25.798"/>
<polygon fill="#191970" stroke="#191970" points="92.0981,-143.0959 87.1789,-152.4796 96.8761,-148.2117 92.0981,-143.0959"/>
</g>
<!-- Node193 -->
<g id="node3" class="node">
<title>Node193</title>
<g id="a_node3"><a xlink:href="classLoopManager.html#a00143be12c150c0a89c4f99c1e8d5e70" target="_top" xlink:title="LoopManager::GetWriteBlock">
<polygon fill="#ffffff" stroke="#000000" points="401.5,-240.5 401.5,-259.5 559.5,-259.5 559.5,-240.5 401.5,-240.5"/>
<text text-anchor="middle" x="480.5" y="-247.5" font-family="Helvetica,sans-Serif" font-size="10.00" fill="#000000">LoopManager::GetWriteBlock</text>
</a>
</g>
</g>
<!-- Node192&#45;&gt;Node193 -->
<g id="edge2" class="edge">
<title>Node192&#45;&gt;Node193</title>
<path fill="none" stroke="#191970" d="M342.0813,-250C361.0386,-250 381.8724,-250 401.4925,-250"/>
<polygon fill="#191970" stroke="#191970" points="342.0599,-246.5001 332.0598,-250 342.0598,-253.5001 342.0599,-246.5001"/>
</g>
<!-- Node195 -->
<g id="node5" class="node">
<title>Node195</title>
<g id="a_node5"><a xlink:href="classLoopManager.html#a861cdd2ace9aeb53b4ecf92728215265" target="_top" xlink:title="LoopManager::Deactivate">
<polygon fill="#ffffff" stroke="#000000" points="410,-196.5 410,-215.5 551,-215.5 551,-196.5 410,-196.5"/>
<text text-anchor="middle" x="480.5" y="-203.5" font-family="Helvetica,sans-Serif" font-size="10.00" fill="#000000">LoopManager::Deactivate</text>
</a>
</g>
</g>
<!-- Node194&#45;&gt;Node195 -->
<g id="edge4" class="edge">
<title>Node194&#45;&gt;Node195</title>
<path fill="none" stroke="#191970" d="M370.2109,-206C383.5434,-206 397.0528,-206 409.8296,-206"/>
<polygon fill="#191970" stroke="#191970" points="370.0649,-202.5001 360.0649,-206 370.0649,-209.5001 370.0649,-202.5001"/>
</g>
<!-- Node196 -->
<g id="node6" class="node">
<title>Node196</title>
<g id="a_node6"><a xlink:href="classFweelin.html#a4654015e2bc7cc94f3bfc421899a60d3" target="_top" xlink:title="Fweelin::TriggerSnapshot">
<polygon fill="#ffffff" stroke="#000000" points="611.5,-228.5 611.5,-247.5 749.5,-247.5 749.5,-228.5 611.5,-228.5"/>
<text text-anchor="middle" x="680.5" y="-235.5" font-family="Helvetica,sans-Serif" font-size="10.00" fill="#000000">Fweelin::TriggerSnapshot</text>
</a>
</g>
</g>
<!-- Node195&#45;&gt;Node196 -->
<g id="edge5" class="edge">
<title>Node195&#45;&gt;Node196</title>
<path fill="none" stroke="#191970" d="M550.0444,-217.1271C573.1439,-220.823 598.6403,-224.9024 620.9187,-228.467"/>
<polygon fill="#191970" stroke="#191970" points="550.3925,-213.6384 539.9651,-215.5144 549.2865,-220.5504 550.3925,-213.6384"/>
</g>
<!-- Node195&#45;&gt;Node197 -->
<g id="edge7" class="edge">
<title>Node195&#45;&gt;Node197</title>
<path fill="none" stroke="#191970" d="M561.3263,-201.1306C617.4507,-196.8233 693.75,-189.1215 760,-176 789.6711,-170.1233 822.8028,-160.012 845.4769,-152.5265"/>
<polygon fill="#191970" stroke="#191970" points="560.7996,-197.6601 551.0884,-201.8958 561.3215,-204.6406 560.7996,-197.6601"/>
</g>
<!-- Node196&#45;&gt;Node197 -->
<g id="edge6" class="edge">
<title>Node196&#45;&gt;Node197</title>
<path fill="none" stroke="#191970" d="M729.3948,-225.4923C739.6929,-222.2375 750.3541,-218.3898 760,-214 798.591,-196.4373 839.7521,-167.7027 860.0888,-152.743"/>
<polygon fill="#191970" stroke="#191970" points="728.2371,-222.1858 719.6776,-228.4297 730.2626,-228.8863 728.2371,-222.1858"/>
</g>
<!-- Node199 -->
<g id="node9" class="node">
<title>Node199</title>
<g id="a_node9"><a xlink:href="classLoopManager.html#a332a9868980750f28fbf0e05b2336174" target="_top" xlink:title="LoopManager::DeleteLoop">
<polygon fill="#ffffff" stroke="#000000" points="409,-84.5 409,-103.5 552,-103.5 552,-84.5 409,-84.5"/>
<text text-anchor="middle" x="480.5" y="-91.5" font-family="Helvetica,sans-Serif" font-size="10.00" fill="#000000">LoopManager::DeleteLoop</text>
</a>
</g>
</g>
<!-- Node198&#45;&gt;Node199 -->
<g id="edge9" class="edge">
<title>Node198&#45;&gt;Node199</title>
<path fill="none" stroke="#191970" d="M370.3913,-98.2969C383.3306,-97.792 396.4325,-97.2807 408.8662,-96.7955"/>
<polygon fill="#191970" stroke="#191970" points="369.9208,-94.8125 360.0649,-98.6999 370.1938,-101.8072 369.9208,-94.8125"/>
</g>
<!-- Node199&#45;&gt;Node197 -->
<g id="edge13" class="edge">
<title>Node199&#45;&gt;Node197</title>
<path fill="none" stroke="#191970" d="M561.9924,-104.1736C630.9696,-112.7847 729.1044,-125.036 796.5954,-133.4616"/>
<polygon fill="#191970" stroke="#191970" points="562.3907,-100.6962 552.0342,-102.9304 561.5235,-107.6423 562.3907,-100.6962"/>
</g>
<!-- Node200 -->
<g id="node10" class="node">
<title>Node200</title>
<g id="a_node10"><a xlink:href="classLoopManager.html#a6048a702c9cec3676a1c56792b16ec44" target="_top" xlink:title="LoopManager::ReadComplete">
<polygon fill="#ffffff" stroke="#000000" points="601,-76.5 601,-95.5 760,-95.5 760,-76.5 601,-76.5"/>
<text text-anchor="middle" x="680.5" y="-83.5" font-family="Helvetica,sans-Serif" font-size="10.00" fill="#000000">LoopManager::ReadComplete</text>
</a>
</g>
</g>
<!-- Node199&#45;&gt;Node200 -->
<g id="edge10" class="edge">
<title>Node199&#45;&gt;Node200</title>
<path fill="none" stroke="#191970" d="M562.2617,-90.7295C575.013,-90.2195 588.1739,-89.693 600.8767,-89.1849"/>
<polygon fill="#191970" stroke="#191970" points="561.9918,-87.2374 552.1397,-91.1344 562.2716,-94.2318 561.9918,-87.2374"/>
</g>
<!-- Node201 -->
<g id="node11" class="node">
<title>Node201</title>
<g id="a_node11"><a xlink:href="classLoopManager.html#a8efb4c8acabceb10faa8660c14c89d71" target="_top" xlink:title="LoopManager::DeletePulse">
<polygon fill="#ffffff" stroke="#000000" points="607.5,-38.5 607.5,-57.5 753.5,-57.5 753.5,-38.5 607.5,-38.5"/>
<text text-anchor="middle" x="680.5" y="-45.5" font-family="Helvetica,sans-Serif" font-size="10.00" fill="#000000">LoopManager::DeletePulse</text>
</a>
</g>
</g>
<!-- Node199&#45;&gt;Node201 -->
<g id="edge11" class="edge">
<title>Node199&#45;&gt;Node201</title>
<path fill="none" stroke="#191970" d="M531.9453,-82.1676C565.2408,-74.5096 608.0193,-64.6706 639.113,-57.519"/>
<polygon fill="#191970" stroke="#191970" points="530.9011,-78.8163 521.9401,-84.4688 532.4702,-85.6382 530.9011,-78.8163"/>
</g>
<!-- Node201&#45;&gt;Node197 -->
<g id="edge12" class="edge">
<title>Node201&#45;&gt;Node197</title>
<path fill="none" stroke="#191970" d="M742.0106,-60.3534C748.1895,-62.288 754.2859,-64.4938 760,-67 800.488,-84.7581 842.1206,-117.1252 861.6219,-133.2829"/>
<polygon fill="#191970" stroke="#191970" points="742.8552,-56.9542 732.2762,-57.5322 740.9067,-63.6775 742.8552,-56.9542"/>
</g>
<!-- Node203 -->
<g id="node13" class="node">
<title>Node203</title>
<g id="a_node13"><a xlink:href="classLoopManager.html#af67b2c3a3417115739cccbe6360828fe" target="_top" xlink:title="LoopManager::MoveLoop">
<polygon fill="#ffffff" stroke="#000000" points="612,-.5 612,-19.5 749,-19.5 749,-.5 612,-.5"/>
<text text-anchor="middle" x="680.5" y="-7.5" font-family="Helvetica,sans-Serif" font-size="10.00" fill="#000000">LoopManager::MoveLoop</text>
</a>
</g>
</g>
<!-- Node202&#45;&gt;Node203 -->
<g id="edge15" class="edge">
<title>Node202&#45;&gt;Node203</title>
<path fill="none" stroke="#191970" d="M575.3,-14.208C587.5772,-13.7169 599.9592,-13.2216 611.7031,-12.7519"/>
<polygon fill="#191970" stroke="#191970" points="574.8802,-10.7219 565.0281,-14.6189 575.16,-17.7163 574.8802,-10.7219"/>
</g>
<!-- Node203&#45;&gt;Node197 -->
<g id="edge16" class="edge">
<title>Node203&#45;&gt;Node197</title>
<path fill="none" stroke="#191970" d="M747.3397,-23.0108C751.7321,-24.7624 755.9953,-26.7484 760,-29 808.8248,-56.4517 850.6405,-111.0733 866.3546,-133.2764"/>
<polygon fill="#191970" stroke="#191970" points="748.1627,-19.5889 737.568,-19.5388 745.819,-26.185 748.1627,-19.5889"/>
</g>
</g>
</svg>
