<?xml version="1.0" encoding="UTF-8" standalone="no"?>
<!DOCTYPE svg PUBLIC "-//W3C//DTD SVG 1.1//EN"
 "http://www.w3.org/Graphics/SVG/1.1/DTD/svg11.dtd">
<!-- Generated by graphviz version 2.40.1 (20161225.0304)
 -->
<!-- Title: Browser::Rename Pages: 1 -->
<svg width="477pt" height="180pt"
 viewBox="0.00 0.00 477.00 180.00" xmlns="http://www.w3.org/2000/svg" xmlns:xlink="http://www.w3.org/1999/xlink">
<g id="graph0" class="graph" transform="scale(1 1) rotate(0) translate(4 176)">
<title>Browser::Rename</title>
<polygon fill="#ffffff" stroke="transparent" points="-4,4 -4,-176 473,-176 473,4 -4,4"/>
<!-- Node89 -->
<g id="node1" class="node">
<title>Node89</title>
<polygon fill="#bfbfbf" stroke="#000000" points="0,-76.5 0,-95.5 102,-95.5 102,-76.5 0,-76.5"/>
<text text-anchor="middle" x="51" y="-83.5" font-family="Helvetica,sans-Serif" font-size="10.00" fill="#000000">Browser::Rename</text>
</g>
<!-- Node90 -->
<g id="node2" class="node">
<title>Node90</title>
<g id="a_node2"><a xlink:href="classItemRenamer.html#a142fa081aa16f3ce9bddfcb44619a90f" target="_top" xlink:title="ItemRenamer::ItemRenamer">
<polygon fill="#ffffff" stroke="#000000" points="138,-76.5 138,-95.5 293,-95.5 293,-76.5 138,-76.5"/>
<text text-anchor="middle" x="215.5" y="-83.5" font-family="Helvetica,sans-Serif" font-size="10.00" fill="#000000">ItemRenamer::ItemRenamer</text>
</a>
</g>
</g>
<!-- Node89&#45;&gt;Node90 -->
<g id="edge1" class="edge">
<title>Node89&#45;&gt;Node90</title>
<path fill="none" stroke="#191970" d="M102.1471,-86C110.2818,-86 118.8925,-86 127.588,-86"/>
<polygon fill="#191970" stroke="#191970" points="127.8113,-89.5001 137.8112,-86 127.8112,-82.5001 127.8113,-89.5001"/>
</g>
<!-- Node91 -->
<g id="node3" class="node">
<title>Node91</title>
<g id="a_node3"><a xlink:href="classFweelin.html#a681d7ca8d0789199af135f22c26a5409" target="_top" xlink:title="Fweelin::getCFG">
<polygon fill="#ffffff" stroke="#000000" points="351.5,-152.5 351.5,-171.5 446.5,-171.5 446.5,-152.5 351.5,-152.5"/>
<text text-anchor="middle" x="399" y="-159.5" font-family="Helvetica,sans-Serif" font-size="10.00" fill="#000000">Fweelin::getCFG</text>
</a>
</g>
</g>
<!-- Node90&#45;&gt;Node91 -->
<g id="edge2" class="edge">
<title>Node90&#45;&gt;Node91</title>
<path fill="none" stroke="#191970" d="M231.9446,-95.5802C253.608,-107.8888 293.1633,-129.2968 329,-143 335.243,-145.3872 341.9064,-147.6013 348.5475,-149.6114"/>
<polygon fill="#191970" stroke="#191970" points="347.6311,-152.9898 358.2099,-152.4069 349.5766,-146.2655 347.6311,-152.9898"/>
</g>
<!-- Node92 -->
<g id="node4" class="node">
<title>Node92</title>
<g id="a_node4"><a xlink:href="classFloConfig.html#aac54136f9c70ae1996a104ac86b691dd" target="_top" xlink:title="FloConfig::AddEventHook">
<polygon fill="#ffffff" stroke="#000000" points="329,-114.5 329,-133.5 469,-133.5 469,-114.5 329,-114.5"/>
<text text-anchor="middle" x="399" y="-121.5" font-family="Helvetica,sans-Serif" font-size="10.00" fill="#000000">FloConfig::AddEventHook</text>
</a>
</g>
</g>
<!-- Node90&#45;&gt;Node92 -->
<g id="edge3" class="edge">
<title>Node90&#45;&gt;Node92</title>
<path fill="none" stroke="#191970" d="M261.8048,-95.589C286.4559,-100.6939 316.9625,-107.0113 342.9447,-112.3918"/>
<polygon fill="#191970" stroke="#191970" points="342.5262,-115.8793 353.0282,-114.4799 343.9457,-109.0248 342.5262,-115.8793"/>
</g>
<!-- Node93 -->
<g id="node5" class="node">
<title>Node93</title>
<g id="a_node5"><a xlink:href="classFweelin.html#aa35dbda0867fa05ac034bbe6109fe7b3" target="_top" xlink:title="Fweelin::getSDLIO">
<polygon fill="#ffffff" stroke="#000000" points="346.5,-76.5 346.5,-95.5 451.5,-95.5 451.5,-76.5 346.5,-76.5"/>
<text text-anchor="middle" x="399" y="-83.5" font-family="Helvetica,sans-Serif" font-size="10.00" fill="#000000">Fweelin::getSDLIO</text>
</a>
</g>
</g>
<!-- Node90&#45;&gt;Node93 -->
<g id="edge4" class="edge">
<title>Node90&#45;&gt;Node93</title>
<path fill="none" stroke="#191970" d="M293.0545,-86C307.3967,-86 322.2131,-86 336.0559,-86"/>
<polygon fill="#191970" stroke="#191970" points="336.4278,-89.5001 346.4278,-86 336.4277,-82.5001 336.4278,-89.5001"/>
</g>
<!-- Node94 -->
<g id="node6" class="node">
<title>Node94</title>
<g id="a_node6"><a xlink:href="classSDLIO.html#abf96a6353a25f3ea3ae662f6d84f4353" target="_top" xlink:title="SDLIO::EnableUNICODE">
<polygon fill="#ffffff" stroke="#000000" points="333.5,-38.5 333.5,-57.5 464.5,-57.5 464.5,-38.5 333.5,-38.5"/>
<text text-anchor="middle" x="399" y="-45.5" font-family="Helvetica,sans-Serif" font-size="10.00" fill="#000000">SDLIO::EnableUNICODE</text>
</a>
</g>
</g>
<!-- Node90&#45;&gt;Node94 -->
<g id="edge5" class="edge">
<title>Node90&#45;&gt;Node94</title>
<path fill="none" stroke="#191970" d="M261.8048,-76.411C286.4559,-71.3061 316.9625,-64.9887 342.9447,-59.6082"/>
<polygon fill="#191970" stroke="#191970" points="343.9457,-62.9752 353.0282,-57.5201 342.5262,-56.1207 343.9457,-62.9752"/>
</g>
<!-- Node95 -->
<g id="node7" class="node">
<title>Node95</title>
<g id="a_node7"><a xlink:href="classSDLIO.html#ab44a16efa49008f84b68bf849aaea01d" target="_top" xlink:title="SDLIO::EnableKeyRepeat">
<polygon fill="#ffffff" stroke="#000000" points="330.5,-.5 330.5,-19.5 467.5,-19.5 467.5,-.5 330.5,-.5"/>
<text text-anchor="middle" x="399" y="-7.5" font-family="Helvetica,sans-Serif" font-size="10.00" fill="#000000">SDLIO::EnableKeyRepeat</text>
</a>
</g>
</g>
<!-- Node90&#45;&gt;Node95 -->
<g id="edge6" class="edge">
<title>Node90&#45;&gt;Node95</title>
<path fill="none" stroke="#191970" d="M231.9446,-76.4198C253.608,-64.1112 293.1633,-42.7032 329,-29 335.243,-26.6128 341.9064,-24.3987 348.5475,-22.3886"/>
<polygon fill="#191970" stroke="#191970" points="349.5766,-25.7345 358.2099,-19.5931 347.6311,-19.0102 349.5766,-25.7345"/>
</g>
</g>
</svg>
