<?xml version="1.0" encoding="UTF-8" standalone="no"?>
<!DOCTYPE svg PUBLIC "-//W3C//DTD SVG 1.1//EN"
 "http://www.w3.org/Graphics/SVG/1.1/DTD/svg11.dtd">
<!-- Generated by graphviz version 2.40.1 (20161225.0304)
 -->
<!-- Title: HardwareMixerInterface::get_ctl_enum_item_index Pages: 1 -->
<svg width="687pt" height="99pt"
 viewBox="0.00 0.00 687.00 99.00" xmlns="http://www.w3.org/2000/svg" xmlns:xlink="http://www.w3.org/1999/xlink">
<g id="graph0" class="graph" transform="scale(1 1) rotate(0) translate(4 95)">
<title>HardwareMixerInterface::get_ctl_enum_item_index</title>
<polygon fill="#ffffff" stroke="transparent" points="-4,4 -4,-95 683,-95 683,4 -4,4"/>
<!-- Node82 -->
<g id="node1" class="node">
<title>Node82</title>
<polygon fill="#bfbfbf" stroke="#000000" points="0,-.5 0,-30.5 149,-30.5 149,-.5 0,-.5"/>
<text text-anchor="start" x="8" y="-18.5" font-family="Helvetica,sans-Serif" font-size="10.00" fill="#000000">HardwareMixerInterface</text>
<text text-anchor="middle" x="74.5" y="-7.5" font-family="Helvetica,sans-Serif" font-size="10.00" fill="#000000">::get_ctl_enum_item_index</text>
</g>
<!-- Node83 -->
<g id="node2" class="node">
<title>Node83</title>
<g id="a_node2"><a xlink:href="classHardwareMixerInterface.html#a4de903c52121c3cae45ae147a288bd69" target="_top" xlink:title="HardwareMixerInterface\l::cset">
<polygon fill="#ffffff" stroke="#000000" points="185,-22.5 185,-52.5 319,-52.5 319,-22.5 185,-22.5"/>
<text text-anchor="start" x="193" y="-40.5" font-family="Helvetica,sans-Serif" font-size="10.00" fill="#000000">HardwareMixerInterface</text>
<text text-anchor="middle" x="252" y="-29.5" font-family="Helvetica,sans-Serif" font-size="10.00" fill="#000000">::cset</text>
</a>
</g>
</g>
<!-- Node82&#45;&gt;Node83 -->
<g id="edge1" class="edge">
<title>Node82&#45;&gt;Node83</title>
<path fill="none" stroke="#191970" d="M159.0737,-25.9824C167.6885,-27.0501 176.3558,-28.1244 184.75,-29.1648"/>
<polygon fill="#191970" stroke="#191970" points="159.3591,-22.491 149.0045,-24.7344 158.498,-29.4379 159.3591,-22.491"/>
</g>
<!-- Node85 -->
<g id="node4" class="node">
<title>Node85</title>
<g id="a_node4"><a xlink:href="classHardwareMixerInterface.html#af861d7e76ac7844ed799ee67ae648b43" target="_top" xlink:title="HardwareMixerInterface\l::HardwareMixerInterface">
<polygon fill="#ffffff" stroke="#000000" points="532,-16.5 532,-46.5 672,-46.5 672,-16.5 532,-16.5"/>
<text text-anchor="start" x="540" y="-34.5" font-family="Helvetica,sans-Serif" font-size="10.00" fill="#000000">HardwareMixerInterface</text>
<text text-anchor="middle" x="602" y="-23.5" font-family="Helvetica,sans-Serif" font-size="10.00" fill="#000000">::HardwareMixerInterface</text>
</a>
</g>
</g>
<!-- Node82&#45;&gt;Node85 -->
<g id="edge6" class="edge">
<title>Node82&#45;&gt;Node85</title>
<path fill="none" stroke="#191970" d="M159.2674,-12.9644C167.9578,-12.7746 176.6556,-12.6133 185,-12.5 244.5501,-11.6918 259.4779,-10.5042 319,-12.5 391.715,-14.9382 474.7627,-20.8909 531.9947,-25.4892"/>
<polygon fill="#191970" stroke="#191970" points="159.0071,-9.4694 149.0905,-13.1991 159.1686,-16.4675 159.0071,-9.4694"/>
</g>
<!-- Node84 -->
<g id="node3" class="node">
<title>Node84</title>
<g id="a_node3"><a xlink:href="classHardwareMixerInterface.html#ab575fcbde123baa1dbd1338d69491e8d" target="_top" xlink:title="HardwareMixerInterface\l::ALSAMixerControlSet">
<polygon fill="#ffffff" stroke="#000000" points="355,-60.5 355,-90.5 489,-90.5 489,-60.5 355,-60.5"/>
<text text-anchor="start" x="363" y="-78.5" font-family="Helvetica,sans-Serif" font-size="10.00" fill="#000000">HardwareMixerInterface</text>
<text text-anchor="middle" x="422" y="-67.5" font-family="Helvetica,sans-Serif" font-size="10.00" fill="#000000">::ALSAMixerControlSet</text>
</a>
</g>
</g>
<!-- Node83&#45;&gt;Node84 -->
<g id="edge2" class="edge">
<title>Node83&#45;&gt;Node84</title>
<path fill="none" stroke="#191970" d="M329.146,-54.7444C337.6879,-56.6538 346.3366,-58.587 354.7428,-60.466"/>
<polygon fill="#191970" stroke="#191970" points="329.7112,-51.2844 319.1885,-52.5186 328.1841,-58.1158 329.7112,-51.2844"/>
</g>
<!-- Node83&#45;&gt;Node85 -->
<g id="edge5" class="edge">
<title>Node83&#45;&gt;Node85</title>
<path fill="none" stroke="#191970" d="M329.3318,-36.1743C389.842,-35.137 473.2706,-33.7068 531.8589,-32.7024"/>
<polygon fill="#191970" stroke="#191970" points="329.0079,-32.6793 319.0694,-36.3502 329.128,-39.6782 329.0079,-32.6793"/>
</g>
<!-- Node84&#45;&gt;Node85 -->
<g id="edge3" class="edge">
<title>Node84&#45;&gt;Node85</title>
<path fill="none" stroke="#191970" d="M493.5314,-58.0145C509.0843,-54.2127 525.4061,-50.223 540.5292,-46.5262"/>
<polygon fill="#191970" stroke="#191970" points="492.3252,-54.7063 483.4423,-60.4808 493.9875,-61.5061 492.3252,-54.7063"/>
</g>
<!-- Node86 -->
<g id="node5" class="node">
<title>Node86</title>
<g id="a_node5"><a xlink:href="classLoopManager.html#a4aada2d07b7ce0a67a8119ece4805966" target="_top" xlink:title="LoopManager::ReceiveEvent">
<polygon fill="#ffffff" stroke="#000000" points="525,-66 525,-85 679,-85 679,-66 525,-66"/>
<text text-anchor="middle" x="602" y="-73" font-family="Helvetica,sans-Serif" font-size="10.00" fill="#000000">LoopManager::ReceiveEvent</text>
</a>
</g>
</g>
<!-- Node84&#45;&gt;Node86 -->
<g id="edge4" class="edge">
<title>Node84&#45;&gt;Node86</title>
<path fill="none" stroke="#191970" d="M499.285,-75.5C507.7758,-75.5 516.4206,-75.5 524.9091,-75.5"/>
<polygon fill="#191970" stroke="#191970" points="499.0254,-72.0001 489.0254,-75.5 499.0253,-79.0001 499.0254,-72.0001"/>
</g>
</g>
</svg>
