<?xml version="1.0" encoding="UTF-8" standalone="no"?>
<!DOCTYPE svg PUBLIC "-//W3C//DTD SVG 1.1//EN"
 "http://www.w3.org/Graphics/SVG/1.1/DTD/svg11.dtd">
<!-- Generated by graphviz version 2.40.1 (20161225.0304)
 -->
<!-- Title: Processor::Halt Pages: 1 -->
<svg width="831pt" height="186pt"
 viewBox="0.00 0.00 831.00 185.50" xmlns="http://www.w3.org/2000/svg" xmlns:xlink="http://www.w3.org/1999/xlink">
<g id="graph0" class="graph" transform="scale(1 1) rotate(0) translate(4 181.5013)">
<title>Processor::Halt</title>
<polygon fill="#ffffff" stroke="transparent" points="-4,4 -4,-181.5013 827,-181.5013 827,4 -4,4"/>
<!-- Node34 -->
<g id="node1" class="node">
<title>Node34</title>
<polygon fill="#bfbfbf" stroke="#000000" points="0,-81.2823 0,-100.2823 90,-100.2823 90,-81.2823 0,-81.2823"/>
<text text-anchor="middle" x="45" y="-88.2823" font-family="Helvetica,sans-Serif" font-size="10.00" fill="#000000">Processor::Halt</text>
</g>
<!-- Node35 -->
<g id="node2" class="node">
<title>Node35</title>
<g id="a_node2"><a xlink:href="classRootProcessor.html#a479ddcf191d529562b634e65e7ea05b3" target="_top" xlink:title="RootProcessor::DelChild">
<polygon fill="#ffffff" stroke="#000000" points="126,-81.2823 126,-100.2823 259,-100.2823 259,-81.2823 126,-81.2823"/>
<text text-anchor="middle" x="192.5" y="-88.2823" font-family="Helvetica,sans-Serif" font-size="10.00" fill="#000000">RootProcessor::DelChild</text>
</a>
</g>
</g>
<!-- Node34&#45;&gt;Node35 -->
<g id="edge1" class="edge">
<title>Node34&#45;&gt;Node35</title>
<path fill="none" stroke="#191970" d="M100.1382,-90.7823C108.5713,-90.7823 117.3517,-90.7823 125.998,-90.7823"/>
<polygon fill="#191970" stroke="#191970" points="100.0564,-87.2824 90.0563,-90.7823 100.0563,-94.2824 100.0564,-87.2824"/>
</g>
<!-- Node36 -->
<g id="node3" class="node">
<title>Node36</title>
<g id="a_node3"><a xlink:href="classLoopManager.html#a8efb4c8acabceb10faa8660c14c89d71" target="_top" xlink:title="LoopManager::DeletePulse">
<polygon fill="#ffffff" stroke="#000000" points="480.5,-62.2823 480.5,-81.2823 626.5,-81.2823 626.5,-62.2823 480.5,-62.2823"/>
<text text-anchor="middle" x="553.5" y="-69.2823" font-family="Helvetica,sans-Serif" font-size="10.00" fill="#000000">LoopManager::DeletePulse</text>
</a>
</g>
</g>
<!-- Node35&#45;&gt;Node36 -->
<g id="edge2" class="edge">
<title>Node35&#45;&gt;Node36</title>
<path fill="none" stroke="#191970" d="M269.3107,-86.7397C331.692,-83.4564 419.0763,-78.8573 480.4293,-75.6282"/>
<polygon fill="#191970" stroke="#191970" points="268.9359,-83.2545 259.1337,-87.2753 269.3038,-90.2448 268.9359,-83.2545"/>
</g>
<!-- Node37 -->
<g id="node4" class="node">
<title>Node37</title>
<g id="a_node4"><a xlink:href="classLoopManager.html#a4aada2d07b7ce0a67a8119ece4805966" target="_top" xlink:title="LoopManager::ReceiveEvent">
<polygon fill="#ffffff" stroke="#000000" points="669,-100.2823 669,-119.2823 823,-119.2823 823,-100.2823 669,-100.2823"/>
<text text-anchor="middle" x="746" y="-107.2823" font-family="Helvetica,sans-Serif" font-size="10.00" fill="#000000">LoopManager::ReceiveEvent</text>
</a>
</g>
</g>
<!-- Node35&#45;&gt;Node37 -->
<g id="edge12" class="edge">
<title>Node35&#45;&gt;Node37</title>
<path fill="none" stroke="#191970" d="M222.6749,-104.3446C294.3995,-134.7722 480.4949,-203.0685 633,-166.7823 671.4766,-157.6274 711.7109,-133.1667 732.209,-119.45"/>
<polygon fill="#191970" stroke="#191970" points="223.8975,-101.0603 213.3287,-100.3173 221.1273,-107.4889 223.8975,-101.0603"/>
</g>
<!-- Node38 -->
<g id="node5" class="node">
<title>Node38</title>
<g id="a_node5"><a xlink:href="classLoopManager.html#a332a9868980750f28fbf0e05b2336174" target="_top" xlink:title="LoopManager::DeleteLoop">
<polygon fill="#ffffff" stroke="#000000" points="295,-24.2823 295,-43.2823 438,-43.2823 438,-24.2823 295,-24.2823"/>
<text text-anchor="middle" x="366.5" y="-31.2823" font-family="Helvetica,sans-Serif" font-size="10.00" fill="#000000">LoopManager::DeleteLoop</text>
</a>
</g>
</g>
<!-- Node35&#45;&gt;Node38 -->
<g id="edge4" class="edge">
<title>Node35&#45;&gt;Node38</title>
<path fill="none" stroke="#191970" d="M231.1334,-78.1265C263.2081,-67.6193 308.1387,-52.9007 337.2813,-43.354"/>
<polygon fill="#191970" stroke="#191970" points="230.0372,-74.8026 221.6237,-81.2418 232.2164,-81.4547 230.0372,-74.8026"/>
</g>
<!-- Node40 -->
<g id="node7" class="node">
<title>Node40</title>
<g id="a_node7"><a xlink:href="classLoopManager.html#a861cdd2ace9aeb53b4ecf92728215265" target="_top" xlink:title="LoopManager::Deactivate">
<polygon fill="#ffffff" stroke="#000000" points="296,-100.2823 296,-119.2823 437,-119.2823 437,-100.2823 296,-100.2823"/>
<text text-anchor="middle" x="366.5" y="-107.2823" font-family="Helvetica,sans-Serif" font-size="10.00" fill="#000000">LoopManager::Deactivate</text>
</a>
</g>
</g>
<!-- Node35&#45;&gt;Node40 -->
<g id="edge8" class="edge">
<title>Node35&#45;&gt;Node40</title>
<path fill="none" stroke="#191970" d="M269.49,-99.1893C278.2637,-100.1473 287.1751,-101.1204 295.8608,-102.0689"/>
<polygon fill="#191970" stroke="#191970" points="269.5962,-95.6802 259.2753,-98.0739 268.8363,-102.6388 269.5962,-95.6802"/>
</g>
<!-- Node36&#45;&gt;Node37 -->
<g id="edge3" class="edge">
<title>Node36&#45;&gt;Node37</title>
<path fill="none" stroke="#191970" d="M611.9498,-83.3205C639.4057,-88.7403 671.7405,-95.1233 697.7734,-100.2623"/>
<polygon fill="#191970" stroke="#191970" points="612.5644,-79.8743 602.0759,-81.3713 611.2087,-86.7418 612.5644,-79.8743"/>
</g>
<!-- Node38&#45;&gt;Node36 -->
<g id="edge6" class="edge">
<title>Node38&#45;&gt;Node36</title>
<path fill="none" stroke="#191970" d="M423.631,-45.3918C450.2267,-50.7963 481.4731,-57.1459 506.6513,-62.2623"/>
<polygon fill="#191970" stroke="#191970" points="424.1847,-41.9329 413.688,-43.3713 422.7907,-48.7927 424.1847,-41.9329"/>
</g>
<!-- Node38&#45;&gt;Node37 -->
<g id="edge7" class="edge">
<title>Node38&#45;&gt;Node37</title>
<path fill="none" stroke="#191970" d="M404.8577,-21.4603C457.8978,-6.5314 555.8256,13.3481 633,-14.7823 680.6785,-32.1613 722.2015,-79.4867 738.5693,-100.039"/>
<polygon fill="#191970" stroke="#191970" points="403.8066,-18.1208 395.1794,-24.2709 405.7588,-24.8431 403.8066,-18.1208"/>
</g>
<!-- Node39 -->
<g id="node6" class="node">
<title>Node39</title>
<g id="a_node6"><a xlink:href="classLoopManager.html#a6048a702c9cec3676a1c56792b16ec44" target="_top" xlink:title="LoopManager::ReadComplete">
<polygon fill="#ffffff" stroke="#000000" points="474,-24.2823 474,-43.2823 633,-43.2823 633,-24.2823 474,-24.2823"/>
<text text-anchor="middle" x="553.5" y="-31.2823" font-family="Helvetica,sans-Serif" font-size="10.00" fill="#000000">LoopManager::ReadComplete</text>
</a>
</g>
</g>
<!-- Node38&#45;&gt;Node39 -->
<g id="edge5" class="edge">
<title>Node38&#45;&gt;Node39</title>
<path fill="none" stroke="#191970" d="M448.4578,-33.7823C456.8816,-33.7823 465.4323,-33.7823 473.8308,-33.7823"/>
<polygon fill="#191970" stroke="#191970" points="448.2643,-30.2824 438.2643,-33.7823 448.2642,-37.2824 448.2643,-30.2824"/>
</g>
<!-- Node40&#45;&gt;Node37 -->
<g id="edge11" class="edge">
<title>Node40&#45;&gt;Node37</title>
<path fill="none" stroke="#191970" d="M447.7086,-109.7823C513.1547,-109.7823 604.5568,-109.7823 668.8872,-109.7823"/>
<polygon fill="#191970" stroke="#191970" points="447.4359,-106.2824 437.4359,-109.7823 447.4358,-113.2824 447.4359,-106.2824"/>
</g>
<!-- Node41 -->
<g id="node8" class="node">
<title>Node41</title>
<g id="a_node8"><a xlink:href="classFweelin.html#a4654015e2bc7cc94f3bfc421899a60d3" target="_top" xlink:title="Fweelin::TriggerSnapshot">
<polygon fill="#ffffff" stroke="#000000" points="484.5,-138.2823 484.5,-157.2823 622.5,-157.2823 622.5,-138.2823 484.5,-138.2823"/>
<text text-anchor="middle" x="553.5" y="-145.2823" font-family="Helvetica,sans-Serif" font-size="10.00" fill="#000000">Fweelin::TriggerSnapshot</text>
</a>
</g>
</g>
<!-- Node40&#45;&gt;Node41 -->
<g id="edge9" class="edge">
<title>Node40&#45;&gt;Node41</title>
<path fill="none" stroke="#191970" d="M423.631,-121.3918C450.2267,-126.7963 481.4731,-133.1459 506.6513,-138.2623"/>
<polygon fill="#191970" stroke="#191970" points="424.1847,-117.9329 413.688,-119.3713 422.7907,-124.7927 424.1847,-117.9329"/>
</g>
<!-- Node41&#45;&gt;Node37 -->
<g id="edge10" class="edge">
<title>Node41&#45;&gt;Node37</title>
<path fill="none" stroke="#191970" d="M611.9498,-136.2442C639.4057,-130.8243 671.7405,-124.4413 697.7734,-119.3024"/>
<polygon fill="#191970" stroke="#191970" points="611.2087,-132.8229 602.0759,-138.1933 612.5644,-139.6903 611.2087,-132.8229"/>
</g>
</g>
</svg>
