<?xml version="1.0" encoding="UTF-8" standalone="no"?>
<!DOCTYPE svg PUBLIC "-//W3C//DTD SVG 1.1//EN"
 "http://www.w3.org/Graphics/SVG/1.1/DTD/svg11.dtd">
<!-- Generated by graphviz version 2.40.1 (20161225.0304)
 -->
<!-- Title: FloConfig::Parse Pages: 1 -->
<svg width="879pt" height="291pt"
 viewBox="0.00 0.00 879.00 291.22" xmlns="http://www.w3.org/2000/svg" xmlns:xlink="http://www.w3.org/1999/xlink">
<g id="graph0" class="graph" transform="scale(1 1) rotate(0) translate(4 287.2218)">
<title>FloConfig::Parse</title>
<polygon fill="#ffffff" stroke="transparent" points="-4,4 -4,-287.2218 875,-287.2218 875,4 -4,4"/>
<!-- Node290 -->
<g id="node1" class="node">
<title>Node290</title>
<polygon fill="#bfbfbf" stroke="#000000" points="0,-187.7218 0,-206.7218 94,-206.7218 94,-187.7218 0,-187.7218"/>
<text text-anchor="middle" x="47" y="-194.7218" font-family="Helvetica,sans-Serif" font-size="10.00" fill="#000000">FloConfig::Parse</text>
</g>
<!-- Node291 -->
<g id="node2" class="node">
<title>Node291</title>
<g id="a_node2"><a xlink:href="classEvent.html#a6fbbfdd1b99ee20a663554873b89ad88" target="_top" xlink:title="Event::SetupEventTypeTable">
<polygon fill="#ffffff" stroke="#000000" points="130,-263.7218 130,-282.7218 284,-282.7218 284,-263.7218 130,-263.7218"/>
<text text-anchor="middle" x="207" y="-270.7218" font-family="Helvetica,sans-Serif" font-size="10.00" fill="#000000">Event::SetupEventTypeTable</text>
</a>
</g>
</g>
<!-- Node290&#45;&gt;Node291 -->
<g id="edge1" class="edge">
<title>Node290&#45;&gt;Node291</title>
<path fill="none" stroke="#191970" d="M58.0273,-206.7515C73.2267,-219.4073 101.9314,-241.6249 130,-254.2218 135.3918,-256.6416 141.1402,-258.7841 146.9739,-260.6742"/>
<polygon fill="#191970" stroke="#191970" points="146.2408,-264.1081 156.8245,-263.6213 148.2473,-257.4018 146.2408,-264.1081"/>
</g>
<!-- Node292 -->
<g id="node3" class="node">
<title>Node292</title>
<g id="a_node3"><a xlink:href="classFweelin.html#a2fd02f86f34253432dd13776434f16db" target="_top" xlink:title="Fweelin::getMMG">
<polygon fill="#ffffff" stroke="#000000" points="157,-225.7218 157,-244.7218 257,-244.7218 257,-225.7218 157,-225.7218"/>
<text text-anchor="middle" x="207" y="-232.7218" font-family="Helvetica,sans-Serif" font-size="10.00" fill="#000000">Fweelin::getMMG</text>
</a>
</g>
</g>
<!-- Node290&#45;&gt;Node292 -->
<g id="edge2" class="edge">
<title>Node290&#45;&gt;Node292</title>
<path fill="none" stroke="#191970" d="M87.3748,-206.8108C108.4885,-211.8253 134.5287,-218.0098 156.9169,-223.327"/>
<polygon fill="#191970" stroke="#191970" points="156.3774,-226.7962 166.9156,-225.7017 157.995,-219.9856 156.3774,-226.7962"/>
</g>
<!-- Node293 -->
<g id="node4" class="node">
<title>Node293</title>
<g id="a_node4"><a xlink:href="classFloConfig.html#a075086c8c0438a9663946af1a89a5cde" target="_top" xlink:title="FloConfig::PrepareLoadConfigFile">
<polygon fill="#ffffff" stroke="#000000" points="519,-149.7218 519,-168.7218 695,-168.7218 695,-149.7218 519,-149.7218"/>
<text text-anchor="middle" x="607" y="-156.7218" font-family="Helvetica,sans-Serif" font-size="10.00" fill="#000000">FloConfig::PrepareLoadConfigFile</text>
</a>
</g>
</g>
<!-- Node290&#45;&gt;Node293 -->
<g id="edge3" class="edge">
<title>Node290&#45;&gt;Node293</title>
<path fill="none" stroke="#191970" d="M94.217,-196.84C174.3461,-195.8173 341.9941,-192.0558 483,-178.2218 502.7496,-176.2841 524.1492,-173.3188 543.5222,-170.3029"/>
<polygon fill="#191970" stroke="#191970" points="544.1217,-173.7516 553.4489,-168.7263 543.0236,-166.8383 544.1217,-173.7516"/>
</g>
<!-- Node294 -->
<g id="node5" class="node">
<title>Node294</title>
<g id="a_node5"><a xlink:href="classFloConfig.html#ad00b1211eaa7345ebf870a192a29b23b" target="_top" xlink:title="FloConfig::CopyConfigFile">
<polygon fill="#ffffff" stroke="#000000" points="731,-67.7218 731,-86.7218 871,-86.7218 871,-67.7218 731,-67.7218"/>
<text text-anchor="middle" x="801" y="-74.7218" font-family="Helvetica,sans-Serif" font-size="10.00" fill="#000000">FloConfig::CopyConfigFile</text>
</a>
</g>
</g>
<!-- Node290&#45;&gt;Node294 -->
<g id="edge5" class="edge">
<title>Node290&#45;&gt;Node294</title>
<path fill="none" stroke="#191970" d="M55.5209,-187.6268C69.8433,-171.8594 100.1182,-140.0441 130,-118.2218 207.743,-61.4469 226.7354,-38.0769 320,-14.2218 484.5139,27.8574 688.2579,-35.4269 767.3853,-64.208"/>
<polygon fill="#191970" stroke="#191970" points="766.2482,-67.519 776.8415,-67.7006 768.6735,-60.9526 766.2482,-67.519"/>
</g>
<!-- Node295 -->
<g id="node6" class="node">
<title>Node295</title>
<g id="a_node6"><a xlink:href="classFloConfig.html#a60461cb1265c667f106326ed8067d521" target="_top" xlink:title="FloConfig::ConfigureRoot">
<polygon fill="#ffffff" stroke="#000000" points="139,-127.7218 139,-146.7218 275,-146.7218 275,-127.7218 139,-127.7218"/>
<text text-anchor="middle" x="207" y="-134.7218" font-family="Helvetica,sans-Serif" font-size="10.00" fill="#000000">FloConfig::ConfigureRoot</text>
</a>
</g>
</g>
<!-- Node290&#45;&gt;Node295 -->
<g id="edge6" class="edge">
<title>Node290&#45;&gt;Node295</title>
<path fill="none" stroke="#191970" d="M72.3525,-187.7146C99.1902,-177.6505 141.7451,-161.6924 171.8212,-150.4138"/>
<polygon fill="#191970" stroke="#191970" points="173.3674,-153.5721 181.5017,-146.7836 170.9095,-147.0178 173.3674,-153.5721"/>
</g>
<!-- Node293&#45;&gt;Node294 -->
<g id="edge4" class="edge">
<title>Node293&#45;&gt;Node294</title>
<path fill="none" stroke="#191970" d="M629.6339,-149.6548C664.0953,-135.0887 729.8532,-107.2941 769.1302,-90.6925"/>
<polygon fill="#191970" stroke="#191970" points="770.6619,-93.845 778.5102,-86.7278 767.9366,-87.3973 770.6619,-93.845"/>
</g>
<!-- Node296 -->
<g id="node7" class="node">
<title>Node296</title>
<g id="a_node7"><a xlink:href="classFloConfig.html#a96460020d4ac390b2ab318d49ac42c95" target="_top" xlink:title="FloConfig::ConfigureBasics">
<polygon fill="#ffffff" stroke="#000000" points="328.5,-61.7218 328.5,-80.7218 474.5,-80.7218 474.5,-61.7218 328.5,-61.7218"/>
<text text-anchor="middle" x="401.5" y="-68.7218" font-family="Helvetica,sans-Serif" font-size="10.00" fill="#000000">FloConfig::ConfigureBasics</text>
</a>
</g>
</g>
<!-- Node295&#45;&gt;Node296 -->
<g id="edge7" class="edge">
<title>Node295&#45;&gt;Node296</title>
<path fill="none" stroke="#191970" d="M227.9012,-127.6373C250.3272,-117.6094 287.1586,-101.873 320,-91.2218 328.8543,-88.3501 338.3653,-85.6661 347.6538,-83.255"/>
<polygon fill="#191970" stroke="#191970" points="348.7611,-86.5855 357.6039,-80.7497 347.052,-79.7973 348.7611,-86.5855"/>
</g>
<!-- Node298 -->
<g id="node9" class="node">
<title>Node298</title>
<g id="a_node9"><a xlink:href="classFloConfig.html#ac5e0848d86cfc85a1bc8642de0bf35ed" target="_top" xlink:title="FloConfig::ConfigureGraphics">
<polygon fill="#ffffff" stroke="#000000" points="323,-23.7218 323,-42.7218 480,-42.7218 480,-23.7218 323,-23.7218"/>
<text text-anchor="middle" x="401.5" y="-30.7218" font-family="Helvetica,sans-Serif" font-size="10.00" fill="#000000">FloConfig::ConfigureGraphics</text>
</a>
</g>
</g>
<!-- Node295&#45;&gt;Node298 -->
<g id="edge9" class="edge">
<title>Node295&#45;&gt;Node298</title>
<path fill="none" stroke="#191970" d="M216.6492,-127.6806C235.0852,-110.0077 277.2955,-72.1687 320,-52.2218 325.3127,-49.7402 330.976,-47.5689 336.7471,-45.6717"/>
<polygon fill="#191970" stroke="#191970" points="337.9515,-48.9644 346.5187,-42.7311 335.9343,-42.2613 337.9515,-48.9644"/>
</g>
<!-- Node299 -->
<g id="node10" class="node">
<title>Node299</title>
<g id="a_node10"><a xlink:href="classFloConfig.html#a065ae173e7ad5b3d913229b1a581a6bd" target="_top" xlink:title="FloConfig::ConfigureEvent\lBindings">
<polygon fill="#ffffff" stroke="#000000" points="330.5,-100.2218 330.5,-130.2218 472.5,-130.2218 472.5,-100.2218 330.5,-100.2218"/>
<text text-anchor="start" x="338.5" y="-118.2218" font-family="Helvetica,sans-Serif" font-size="10.00" fill="#000000">FloConfig::ConfigureEvent</text>
<text text-anchor="middle" x="401.5" y="-107.2218" font-family="Helvetica,sans-Serif" font-size="10.00" fill="#000000">Bindings</text>
</a>
</g>
</g>
<!-- Node295&#45;&gt;Node299 -->
<g id="edge10" class="edge">
<title>Node295&#45;&gt;Node299</title>
<path fill="none" stroke="#191970" d="M275.0267,-129.5272C289.5348,-127.8862 304.9996,-126.137 319.9553,-124.4453"/>
<polygon fill="#191970" stroke="#191970" points="320.6667,-127.8873 330.21,-123.2854 319.8799,-120.9316 320.6667,-127.8873"/>
</g>
<!-- Node300 -->
<g id="node11" class="node">
<title>Node300</title>
<g id="a_node11"><a xlink:href="classFloConfig.html#a5cc18494ea2e32020314e08e43c920c5" target="_top" xlink:title="FloConfig::ConfigureInterfaces">
<polygon fill="#ffffff" stroke="#000000" points="320,-149.7218 320,-168.7218 483,-168.7218 483,-149.7218 320,-149.7218"/>
<text text-anchor="middle" x="401.5" y="-156.7218" font-family="Helvetica,sans-Serif" font-size="10.00" fill="#000000">FloConfig::ConfigureInterfaces</text>
</a>
</g>
</g>
<!-- Node295&#45;&gt;Node300 -->
<g id="edge11" class="edge">
<title>Node295&#45;&gt;Node300</title>
<path fill="none" stroke="#191970" d="M275.0267,-138.4448C301.5782,-140.9275 331.3336,-144.5024 355.3094,-148.1534"/>
<polygon fill="#191970" stroke="#191970" points="354.7804,-151.6132 365.2047,-149.7198 355.875,-144.6993 354.7804,-151.6132"/>
</g>
<!-- Node297 -->
<g id="node8" class="node">
<title>Node297</title>
<g id="a_node8"><a xlink:href="classAudioBuffers.html#a3178afd68c48f41060d100606623a704" target="_top" xlink:title="AudioBuffers::GetIntAudioIns">
<polygon fill="#ffffff" stroke="#000000" points="528.5,-61.7218 528.5,-80.7218 685.5,-80.7218 685.5,-61.7218 528.5,-61.7218"/>
<text text-anchor="middle" x="607" y="-68.7218" font-family="Helvetica,sans-Serif" font-size="10.00" fill="#000000">AudioBuffers::GetIntAudioIns</text>
</a>
</g>
</g>
<!-- Node296&#45;&gt;Node297 -->
<g id="edge8" class="edge">
<title>Node296&#45;&gt;Node297</title>
<path fill="none" stroke="#191970" d="M474.5302,-71.2218C488.684,-71.2218 503.661,-71.2218 518.2539,-71.2218"/>
<polygon fill="#191970" stroke="#191970" points="518.2806,-74.7219 528.2806,-71.2218 518.2805,-67.7219 518.2806,-74.7219"/>
</g>
<!-- Node300&#45;&gt;Node293 -->
<g id="edge12" class="edge">
<title>Node300&#45;&gt;Node293</title>
<path fill="none" stroke="#191970" d="M483.0142,-159.2218C491.4712,-159.2218 500.1288,-159.2218 508.7443,-159.2218"/>
<polygon fill="#191970" stroke="#191970" points="508.8242,-162.7219 518.8241,-159.2218 508.8241,-155.7219 508.8242,-162.7219"/>
</g>
<!-- Node300&#45;&gt;Node295 -->
<g id="edge13" class="edge">
<title>Node300&#45;&gt;Node295</title>
<path fill="none" stroke="#191970" d="M319.9391,-156.6677C297.2962,-154.3355 273.4879,-151.3719 253.5999,-148.3524"/>
<polygon fill="#191970" stroke="#191970" points="254.0074,-144.8734 243.584,-146.7713 252.9159,-151.7878 254.0074,-144.8734"/>
</g>
</g>
</svg>
