<?xml version="1.0" encoding="UTF-8" standalone="no"?>
<!DOCTYPE svg PUBLIC "-//W3C//DTD SVG 1.1//EN"
 "http://www.w3.org/Graphics/SVG/1.1/DTD/svg11.dtd">
<!-- Generated by graphviz version 2.40.1 (20161225.0304)
 -->
<!-- Title: EventListenerItem Pages: 1 -->
<svg width="397pt" height="171pt"
 viewBox="0.00 0.00 397.00 171.00" xmlns="http://www.w3.org/2000/svg" xmlns:xlink="http://www.w3.org/1999/xlink">
<g id="graph0" class="graph" transform="scale(1 1) rotate(0) translate(4 167)">
<title>EventListenerItem</title>
<polygon fill="#ffffff" stroke="transparent" points="-4,4 -4,-167 393,-167 393,4 -4,4"/>
<!-- Node1 -->
<g id="node1" class="node">
<title>Node1</title>
<polygon fill="#bfbfbf" stroke="#000000" points="132,-.5 132,-57.5 257,-57.5 257,-.5 132,-.5"/>
<text text-anchor="middle" x="194.5" y="-45.5" font-family="Helvetica,sans-Serif" font-size="10.00" fill="#000000">EventListenerItem</text>
<polyline fill="none" stroke="#000000" points="132,-38.5 257,-38.5 "/>
<text text-anchor="middle" x="194.5" y="-26.5" font-family="Helvetica,sans-Serif" font-size="10.00" fill="#000000"> </text>
<polyline fill="none" stroke="#000000" points="132,-19.5 257,-19.5 "/>
<text text-anchor="start" x="140" y="-7.5" font-family="Helvetica,sans-Serif" font-size="10.00" fill="#000000">+ EventListenerItem()</text>
</g>
<!-- Node1&#45;&gt;Node1 -->
<g id="edge5" class="edge">
<title>Node1&#45;&gt;Node1</title>
<path fill="none" stroke="#404040" d="M257.2782,-38.0621C267.7643,-36.7941 275,-33.7734 275,-29 275,-26.3895 272.836,-24.3033 269.1598,-22.7412"/>
<polygon fill="none" stroke="#404040" points="268.9575,-22.6935 262.1993,-25.2088 257.2782,-19.9379 264.0364,-17.4226 268.9575,-22.6935"/>
<text text-anchor="middle" x="292" y="-26.5" font-family="Helvetica,sans-Serif" font-size="10.00" fill="#000000"> +next</text>
</g>
<!-- Node2 -->
<g id="node2" class="node">
<title>Node2</title>
<g id="a_node2"><a xlink:href="classEventListener.html" target="_top" xlink:title="{EventListener\n||+ ReceiveEvent()\l}">
<polygon fill="#ffffff" stroke="#000000" points="0,-105.5 0,-162.5 101,-162.5 101,-105.5 0,-105.5"/>
<text text-anchor="middle" x="50.5" y="-150.5" font-family="Helvetica,sans-Serif" font-size="10.00" fill="#000000">EventListener</text>
<polyline fill="none" stroke="#000000" points="0,-143.5 101,-143.5 "/>
<text text-anchor="middle" x="50.5" y="-131.5" font-family="Helvetica,sans-Serif" font-size="10.00" fill="#000000"> </text>
<polyline fill="none" stroke="#000000" points="0,-124.5 101,-124.5 "/>
<text text-anchor="start" x="8" y="-112.5" font-family="Helvetica,sans-Serif" font-size="10.00" fill="#000000">+ ReceiveEvent()</text>
</a>
</g>
</g>
<!-- Node2&#45;&gt;Node1 -->
<g id="edge1" class="edge">
<title>Node2&#45;&gt;Node1</title>
<path fill="none" stroke="#404040" d="M56.2031,-105.3371C59.4888,-95.0013 64.6007,-83.9403 72.5,-76 85.6974,-62.734 103.0471,-53.1381 120.506,-46.2241"/>
<polygon fill="none" stroke="#404040" points="120.6764,-46.1621 124.9457,-40.3507 131.9521,-42.0564 127.6828,-47.8679 120.6764,-46.1621"/>
<text text-anchor="middle" x="102" y="-79" font-family="Helvetica,sans-Serif" font-size="10.00" fill="#000000"> +callwhom</text>
</g>
<!-- Node3 -->
<g id="node3" class="node">
<title>Node3</title>
<polygon fill="#ffffff" stroke="#bfbfbf" points="119.5,-105.5 119.5,-162.5 157.5,-162.5 157.5,-105.5 119.5,-105.5"/>
<text text-anchor="middle" x="138.5" y="-150.5" font-family="Helvetica,sans-Serif" font-size="10.00" fill="#000000">char</text>
<polyline fill="none" stroke="#bfbfbf" points="119.5,-143.5 157.5,-143.5 "/>
<text text-anchor="middle" x="138.5" y="-131.5" font-family="Helvetica,sans-Serif" font-size="10.00" fill="#000000"> </text>
<polyline fill="none" stroke="#bfbfbf" points="119.5,-124.5 157.5,-124.5 "/>
<text text-anchor="middle" x="138.5" y="-112.5" font-family="Helvetica,sans-Serif" font-size="10.00" fill="#000000"> </text>
</g>
<!-- Node3&#45;&gt;Node1 -->
<g id="edge2" class="edge">
<title>Node3&#45;&gt;Node1</title>
<path fill="none" stroke="#404040" d="M134.3706,-105.4893C134.1366,-95.7359 135.2492,-85.0187 139.5,-76 140.981,-72.8579 142.7839,-69.8461 144.8219,-66.9732"/>
<polygon fill="none" stroke="#404040" points="144.8335,-66.9593 145.6132,-59.7904 152.5304,-57.7529 151.7508,-64.9217 144.8335,-66.9593"/>
<text text-anchor="middle" x="184" y="-79" font-family="Helvetica,sans-Serif" font-size="10.00" fill="#000000"> +block_self_calls</text>
</g>
<!-- Node4 -->
<g id="node4" class="node">
<title>Node4</title>
<polygon fill="#ffffff" stroke="#bfbfbf" points="217,-105.5 217,-162.5 284,-162.5 284,-105.5 217,-105.5"/>
<text text-anchor="middle" x="250.5" y="-150.5" font-family="Helvetica,sans-Serif" font-size="10.00" fill="#000000">EventType</text>
<polyline fill="none" stroke="#bfbfbf" points="217,-143.5 284,-143.5 "/>
<text text-anchor="middle" x="250.5" y="-131.5" font-family="Helvetica,sans-Serif" font-size="10.00" fill="#000000"> </text>
<polyline fill="none" stroke="#bfbfbf" points="217,-124.5 284,-124.5 "/>
<text text-anchor="middle" x="250.5" y="-112.5" font-family="Helvetica,sans-Serif" font-size="10.00" fill="#000000"> </text>
</g>
<!-- Node4&#45;&gt;Node1 -->
<g id="edge3" class="edge">
<title>Node4&#45;&gt;Node1</title>
<path fill="none" stroke="#404040" d="M241.3185,-105.3125C237.8159,-95.7496 233.4569,-85.1955 228.5,-76 227.0365,-73.2851 225.4366,-70.5471 223.7539,-67.8305"/>
<polygon fill="none" stroke="#404040" points="223.579,-67.5656 216.9348,-64.763 216.9663,-57.552 223.6105,-60.3546 223.579,-67.5656"/>
<text text-anchor="middle" x="255" y="-79" font-family="Helvetica,sans-Serif" font-size="10.00" fill="#000000"> +oftype</text>
</g>
<!-- Node5 -->
<g id="node5" class="node">
<title>Node5</title>
<g id="a_node5"><a xlink:href="classEventProducer.html" target="_top" xlink:title="{EventProducer\n||}">
<polygon fill="#ffffff" stroke="#000000" points="302,-105.5 302,-162.5 389,-162.5 389,-105.5 302,-105.5"/>
<text text-anchor="middle" x="345.5" y="-150.5" font-family="Helvetica,sans-Serif" font-size="10.00" fill="#000000">EventProducer</text>
<polyline fill="none" stroke="#000000" points="302,-143.5 389,-143.5 "/>
<text text-anchor="middle" x="345.5" y="-131.5" font-family="Helvetica,sans-Serif" font-size="10.00" fill="#000000"> </text>
<polyline fill="none" stroke="#000000" points="302,-124.5 389,-124.5 "/>
<text text-anchor="middle" x="345.5" y="-112.5" font-family="Helvetica,sans-Serif" font-size="10.00" fill="#000000"> </text>
</a>
</g>
</g>
<!-- Node5&#45;&gt;Node1 -->
<g id="edge4" class="edge">
<title>Node5&#45;&gt;Node1</title>
<path fill="none" stroke="#404040" d="M316.2737,-105.3481C305.4803,-95.4752 292.8586,-84.718 280.5,-76 274.6214,-71.8531 268.3387,-67.794 261.9458,-63.9067"/>
<polygon fill="none" stroke="#404040" points="261.4757,-63.6299 254.2758,-64.0329 251.1347,-57.5418 258.3346,-57.1389 261.4757,-63.6299"/>
<text text-anchor="middle" x="327.5" y="-79" font-family="Helvetica,sans-Serif" font-size="10.00" fill="#000000"> +eventsfrom</text>
</g>
</g>
</svg>
