<?xml version="1.0" encoding="UTF-8" standalone="no"?>
<!DOCTYPE svg PUBLIC "-//W3C//DTD SVG 1.1//EN"
 "http://www.w3.org/Graphics/SVG/1.1/DTD/svg11.dtd">
<!-- Generated by graphviz version 2.40.1 (20161225.0304)
 -->
<!-- Title: SRMWRingBuffer&lt; T &gt; Pages: 1 -->
<svg width="157pt" height="237pt"
 viewBox="0.00 0.00 157.00 237.00" xmlns="http://www.w3.org/2000/svg" xmlns:xlink="http://www.w3.org/1999/xlink">
<g id="graph0" class="graph" transform="scale(1 1) rotate(0) translate(4 233)">
<title>SRMWRingBuffer&lt; T &gt;</title>
<polygon fill="#ffffff" stroke="transparent" points="-4,4 -4,-233 153,-233 153,4 -4,4"/>
<!-- Node0 -->
<g id="node1" class="node">
<title>Node0</title>
<polygon fill="#bfbfbf" stroke="#000000" points="2.5,-.5 2.5,-134.5 146.5,-134.5 146.5,-.5 2.5,-.5"/>
<text text-anchor="middle" x="74.5" y="-122.5" font-family="Helvetica,sans-Serif" font-size="10.00" fill="#000000">SRMWRingBuffer&lt; T &gt;</text>
<polyline fill="none" stroke="#000000" points="2.5,-115.5 146.5,-115.5 "/>
<text text-anchor="start" x="10.5" y="-103.5" font-family="Helvetica,sans-Serif" font-size="10.00" fill="#000000">&#45; wbufs</text>
<text text-anchor="start" x="10.5" y="-92.5" font-family="Helvetica,sans-Serif" font-size="10.00" fill="#000000">&#45; numel</text>
<text text-anchor="start" x="10.5" y="-81.5" font-family="Helvetica,sans-Serif" font-size="10.00" fill="#000000">&#45; num_writers</text>
<text text-anchor="start" x="10.5" y="-70.5" font-family="Helvetica,sans-Serif" font-size="10.00" fill="#000000">&#45; tmpread</text>
<polyline fill="none" stroke="#000000" points="2.5,-63.5 146.5,-63.5 "/>
<text text-anchor="start" x="10.5" y="-51.5" font-family="Helvetica,sans-Serif" font-size="10.00" fill="#000000">+ SRMWRingBuffer()</text>
<text text-anchor="start" x="10.5" y="-40.5" font-family="Helvetica,sans-Serif" font-size="10.00" fill="#000000">+ ~SRMWRingBuffer()</text>
<text text-anchor="start" x="10.5" y="-29.5" font-family="Helvetica,sans-Serif" font-size="10.00" fill="#000000">+ WriteElement()</text>
<text text-anchor="start" x="10.5" y="-18.5" font-family="Helvetica,sans-Serif" font-size="10.00" fill="#000000">+ ReadElement()</text>
<text text-anchor="start" x="10.5" y="-7.5" font-family="Helvetica,sans-Serif" font-size="10.00" fill="#000000">&#45; UpdateNumRWThreads()</text>
</g>
<!-- Node1 -->
<g id="node2" class="node">
<title>Node1</title>
<g id="a_node2"><a xlink:href="classRTDataStruct__Updater.html" target="_top" xlink:title="{RTDataStruct_Updater\n||# UpdateNumRWThreads()\l}">
<polygon fill="#ffffff" stroke="#000000" points="0,-171.5 0,-228.5 149,-228.5 149,-171.5 0,-171.5"/>
<text text-anchor="middle" x="74.5" y="-216.5" font-family="Helvetica,sans-Serif" font-size="10.00" fill="#000000">RTDataStruct_Updater</text>
<polyline fill="none" stroke="#000000" points="0,-209.5 149,-209.5 "/>
<text text-anchor="middle" x="74.5" y="-197.5" font-family="Helvetica,sans-Serif" font-size="10.00" fill="#000000"> </text>
<polyline fill="none" stroke="#000000" points="0,-190.5 149,-190.5 "/>
<text text-anchor="start" x="8" y="-178.5" font-family="Helvetica,sans-Serif" font-size="10.00" fill="#000000"># UpdateNumRWThreads()</text>
</a>
</g>
</g>
<!-- Node1&#45;&gt;Node0 -->
<g id="edge1" class="edge">
<title>Node1&#45;&gt;Node0</title>
<path fill="none" stroke="#191970" d="M74.5,-161.0752C74.5,-152.7041 74.5,-143.6273 74.5,-134.5309"/>
<polygon fill="none" stroke="#191970" points="71.0001,-161.2494 74.5,-171.2495 78.0001,-161.2495 71.0001,-161.2494"/>
</g>
</g>
</svg>
