<?xml version="1.0" encoding="UTF-8" standalone="no"?>
<!DOCTYPE svg PUBLIC "-//W3C//DTD SVG 1.1//EN"
 "http://www.w3.org/Graphics/SVG/1.1/DTD/svg11.dtd">
<!-- Generated by graphviz version 2.40.1 (20161225.0304)
 -->
<!-- Title: CombiZone Pages: 1 -->
<svg width="289pt" height="237pt"
 viewBox="0.00 0.00 289.00 237.00" xmlns="http://www.w3.org/2000/svg" xmlns:xlink="http://www.w3.org/1999/xlink">
<g id="graph0" class="graph" transform="scale(1 1) rotate(0) translate(4 233)">
<title>CombiZone</title>
<polygon fill="#ffffff" stroke="transparent" points="-4,4 -4,-233 285,-233 285,4 -4,4"/>
<!-- Node1 -->
<g id="node1" class="node">
<title>Node1</title>
<polygon fill="#bfbfbf" stroke="#000000" points="73,-.5 73,-57.5 161,-57.5 161,-.5 73,-.5"/>
<text text-anchor="middle" x="117" y="-45.5" font-family="Helvetica,sans-Serif" font-size="10.00" fill="#000000">CombiZone</text>
<polyline fill="none" stroke="#000000" points="73,-38.5 161,-38.5 "/>
<text text-anchor="middle" x="117" y="-26.5" font-family="Helvetica,sans-Serif" font-size="10.00" fill="#000000"> </text>
<polyline fill="none" stroke="#000000" points="73,-19.5 161,-19.5 "/>
<text text-anchor="start" x="81" y="-7.5" font-family="Helvetica,sans-Serif" font-size="10.00" fill="#000000">+ SetupZone()</text>
</g>
<!-- Node2 -->
<g id="node2" class="node">
<title>Node2</title>
<polygon fill="#ffffff" stroke="#bfbfbf" points="0,-171.5 0,-228.5 38,-228.5 38,-171.5 0,-171.5"/>
<text text-anchor="middle" x="19" y="-216.5" font-family="Helvetica,sans-Serif" font-size="10.00" fill="#000000">float</text>
<polyline fill="none" stroke="#bfbfbf" points="0,-209.5 38,-209.5 "/>
<text text-anchor="middle" x="19" y="-197.5" font-family="Helvetica,sans-Serif" font-size="10.00" fill="#000000"> </text>
<polyline fill="none" stroke="#bfbfbf" points="0,-190.5 38,-190.5 "/>
<text text-anchor="middle" x="19" y="-178.5" font-family="Helvetica,sans-Serif" font-size="10.00" fill="#000000"> </text>
</g>
<!-- Node2&#45;&gt;Node1 -->
<g id="edge1" class="edge">
<title>Node2&#45;&gt;Node1</title>
<path fill="none" stroke="#404040" d="M16.7525,-171.4308C16.0727,-144.568 18.889,-104.3538 38,-76 44.2229,-66.7675 52.9212,-59.0765 62.2836,-52.7725"/>
<polygon fill="none" stroke="#404040" points="62.3731,-52.718 65.4124,-46.1786 72.6177,-46.4691 69.5784,-53.0084 62.3731,-52.718"/>
<text text-anchor="middle" x="75.5" y="-117.5" font-family="Helvetica,sans-Serif" font-size="10.00" fill="#000000"> +bypasstime1</text>
<text text-anchor="middle" x="75.5" y="-106.5" font-family="Helvetica,sans-Serif" font-size="10.00" fill="#000000">+bypasstime2</text>
</g>
<!-- Node3 -->
<g id="node3" class="node">
<title>Node3</title>
<polygon fill="#ffffff" stroke="#bfbfbf" points="98,-171.5 98,-228.5 136,-228.5 136,-171.5 98,-171.5"/>
<text text-anchor="middle" x="117" y="-216.5" font-family="Helvetica,sans-Serif" font-size="10.00" fill="#000000">char</text>
<polyline fill="none" stroke="#bfbfbf" points="98,-209.5 136,-209.5 "/>
<text text-anchor="middle" x="117" y="-197.5" font-family="Helvetica,sans-Serif" font-size="10.00" fill="#000000"> </text>
<polyline fill="none" stroke="#bfbfbf" points="98,-190.5 136,-190.5 "/>
<text text-anchor="middle" x="117" y="-178.5" font-family="Helvetica,sans-Serif" font-size="10.00" fill="#000000"> </text>
</g>
<!-- Node3&#45;&gt;Node1 -->
<g id="edge2" class="edge">
<title>Node3&#45;&gt;Node1</title>
<path fill="none" stroke="#404040" d="M117,-171.3784C117,-143.6352 117,-101.2695 117,-69.9596"/>
<polygon fill="none" stroke="#404040" points="117.0001,-69.7149 113,-63.715 117,-57.7149 121,-63.7149 117.0001,-69.7149"/>
<text text-anchor="middle" x="145.5" y="-117.5" font-family="Helvetica,sans-Serif" font-size="10.00" fill="#000000"> +bypasscc</text>
<text text-anchor="middle" x="145.5" y="-106.5" font-family="Helvetica,sans-Serif" font-size="10.00" fill="#000000">+port_r</text>
</g>
<!-- Node4 -->
<g id="node4" class="node">
<title>Node4</title>
<polygon fill="#ffffff" stroke="#bfbfbf" points="182.5,-171.5 182.5,-228.5 211.5,-228.5 211.5,-171.5 182.5,-171.5"/>
<text text-anchor="middle" x="197" y="-216.5" font-family="Helvetica,sans-Serif" font-size="10.00" fill="#000000">int</text>
<polyline fill="none" stroke="#bfbfbf" points="182.5,-209.5 211.5,-209.5 "/>
<text text-anchor="middle" x="197" y="-197.5" font-family="Helvetica,sans-Serif" font-size="10.00" fill="#000000"> </text>
<polyline fill="none" stroke="#bfbfbf" points="182.5,-190.5 211.5,-190.5 "/>
<text text-anchor="middle" x="197" y="-178.5" font-family="Helvetica,sans-Serif" font-size="10.00" fill="#000000"> </text>
</g>
<!-- Node4&#45;&gt;Node1 -->
<g id="edge3" class="edge">
<title>Node4&#45;&gt;Node1</title>
<path fill="none" stroke="#404040" d="M197.481,-171.4693C196.7019,-145.0006 192.3216,-105.382 175,-76 173.0871,-72.7552 170.861,-69.6415 168.4176,-66.6708"/>
<polygon fill="none" stroke="#404040" points="168.1991,-66.4378 161.1771,-64.7974 159.9905,-57.6846 167.0126,-59.325 168.1991,-66.4378"/>
<text text-anchor="middle" x="238.5" y="-145" font-family="Helvetica,sans-Serif" font-size="10.00" fill="#000000"> +bypasschannel</text>
<text text-anchor="middle" x="238.5" y="-134" font-family="Helvetica,sans-Serif" font-size="10.00" fill="#000000">+prog</text>
<text text-anchor="middle" x="238.5" y="-123" font-family="Helvetica,sans-Serif" font-size="10.00" fill="#000000">+bank</text>
<text text-anchor="middle" x="238.5" y="-112" font-family="Helvetica,sans-Serif" font-size="10.00" fill="#000000">+channel</text>
<text text-anchor="middle" x="238.5" y="-101" font-family="Helvetica,sans-Serif" font-size="10.00" fill="#000000">+port</text>
<text text-anchor="middle" x="238.5" y="-90" font-family="Helvetica,sans-Serif" font-size="10.00" fill="#000000">+kr_hi</text>
<text text-anchor="middle" x="238.5" y="-79" font-family="Helvetica,sans-Serif" font-size="10.00" fill="#000000">+kr_lo</text>
</g>
</g>
</svg>
