<?xml version="1.0" encoding="UTF-8" standalone="no"?>
<!DOCTYPE svg PUBLIC "-//W3C//DTD SVG 1.1//EN"
 "http://www.w3.org/Graphics/SVG/1.1/DTD/svg11.dtd">
<!-- Generated by graphviz version 2.40.1 (20161225.0304)
 -->
<!-- Title: MidiIO::OutputStop Pages: 1 -->
<svg width="621pt" height="28pt"
 viewBox="0.00 0.00 621.00 28.00" xmlns="http://www.w3.org/2000/svg" xmlns:xlink="http://www.w3.org/1999/xlink">
<g id="graph0" class="graph" transform="scale(1 1) rotate(0) translate(4 24)">
<title>MidiIO::OutputStop</title>
<polygon fill="#ffffff" stroke="transparent" points="-4,4 -4,-24 617,-24 617,4 -4,4"/>
<!-- Node196 -->
<g id="node1" class="node">
<title>Node196</title>
<polygon fill="#bfbfbf" stroke="#000000" points="0,-.5 0,-19.5 108,-19.5 108,-.5 0,-.5"/>
<text text-anchor="middle" x="54" y="-7.5" font-family="Helvetica,sans-Serif" font-size="10.00" fill="#000000">MidiIO::OutputStop</text>
</g>
<!-- Node197 -->
<g id="node2" class="node">
<title>Node197</title>
<g id="a_node2"><a xlink:href="classMidiIO.html#a9f130a6f6732fcdc5c111a5708afb64f" target="_top" xlink:title="MidiIO::EchoEventToPortChannel">
<polygon fill="#ffffff" stroke="#000000" points="144,-.5 144,-19.5 318,-19.5 318,-.5 144,-.5"/>
<text text-anchor="middle" x="231" y="-7.5" font-family="Helvetica,sans-Serif" font-size="10.00" fill="#000000">MidiIO::EchoEventToPortChannel</text>
</a>
</g>
</g>
<!-- Node196&#45;&gt;Node197 -->
<g id="edge1" class="edge">
<title>Node196&#45;&gt;Node197</title>
<path fill="none" stroke="#191970" d="M118.145,-10C126.5545,-10 135.2823,-10 143.9908,-10"/>
<polygon fill="#191970" stroke="#191970" points="118.0676,-6.5001 108.0676,-10 118.0676,-13.5001 118.0676,-6.5001"/>
</g>
<!-- Node198 -->
<g id="node3" class="node">
<title>Node198</title>
<g id="a_node3"><a xlink:href="classMidiIO.html#aae58e8a30b732a5eee97d76785a5909a" target="_top" xlink:title="MidiIO::EchoEvent">
<polygon fill="#ffffff" stroke="#000000" points="354,-.5 354,-19.5 458,-19.5 458,-.5 354,-.5"/>
<text text-anchor="middle" x="406" y="-7.5" font-family="Helvetica,sans-Serif" font-size="10.00" fill="#000000">MidiIO::EchoEvent</text>
</a>
</g>
</g>
<!-- Node197&#45;&gt;Node198 -->
<g id="edge2" class="edge">
<title>Node197&#45;&gt;Node198</title>
<path fill="none" stroke="#191970" d="M328.4822,-10C337.1696,-10 345.7241,-10 353.797,-10"/>
<polygon fill="#191970" stroke="#191970" points="328.2437,-6.5001 318.2437,-10 328.2436,-13.5001 328.2437,-6.5001"/>
</g>
<!-- Node199 -->
<g id="node4" class="node">
<title>Node199</title>
<g id="a_node4"><a xlink:href="classMidiIO.html#a90cc0dad2841a9386a0c86efc1d9dce6" target="_top" xlink:title="MidiIO::ReceiveEvent">
<polygon fill="#ffffff" stroke="#000000" points="494,-.5 494,-19.5 613,-19.5 613,-.5 494,-.5"/>
<text text-anchor="middle" x="553.5" y="-7.5" font-family="Helvetica,sans-Serif" font-size="10.00" fill="#000000">MidiIO::ReceiveEvent</text>
</a>
</g>
</g>
<!-- Node198&#45;&gt;Node199 -->
<g id="edge3" class="edge">
<title>Node198&#45;&gt;Node199</title>
<path fill="none" stroke="#191970" d="M468.2392,-10C476.7419,-10 485.4539,-10 493.908,-10"/>
<polygon fill="#191970" stroke="#191970" points="468.003,-6.5001 458.003,-10 468.0029,-13.5001 468.003,-6.5001"/>
</g>
</g>
</svg>
