<?xml version="1.0" encoding="UTF-8" standalone="no"?>
<!DOCTYPE svg PUBLIC "-//W3C//DTD SVG 1.1//EN"
 "http://www.w3.org/Graphics/SVG/1.1/DTD/svg11.dtd">
<!-- Generated by graphviz version 2.40.1 (20161225.0304)
 -->
<!-- Title: RootProcessor::AddChild Pages: 1 -->
<svg width="689pt" height="142pt"
 viewBox="0.00 0.00 689.00 142.00" xmlns="http://www.w3.org/2000/svg" xmlns:xlink="http://www.w3.org/1999/xlink">
<g id="graph0" class="graph" transform="scale(1 1) rotate(0) translate(4 138)">
<title>RootProcessor::AddChild</title>
<polygon fill="#ffffff" stroke="transparent" points="-4,4 -4,-138 685,-138 685,4 -4,4"/>
<!-- Node18 -->
<g id="node1" class="node">
<title>Node18</title>
<polygon fill="#bfbfbf" stroke="#000000" points="0,-76.5 0,-95.5 135,-95.5 135,-76.5 0,-76.5"/>
<text text-anchor="middle" x="67.5" y="-83.5" font-family="Helvetica,sans-Serif" font-size="10.00" fill="#000000">RootProcessor::AddChild</text>
</g>
<!-- Node19 -->
<g id="node2" class="node">
<title>Node19</title>
<g id="a_node2"><a xlink:href="classLoopManager.html#a705436ae811a121ed3285ab34b144bfe" target="_top" xlink:title="LoopManager::CreatePulse">
<polygon fill="#ffffff" stroke="#000000" points="171,-114.5 171,-133.5 317,-133.5 317,-114.5 171,-114.5"/>
<text text-anchor="middle" x="244" y="-121.5" font-family="Helvetica,sans-Serif" font-size="10.00" fill="#000000">LoopManager::CreatePulse</text>
</a>
</g>
</g>
<!-- Node18&#45;&gt;Node19 -->
<g id="edge1" class="edge">
<title>Node18&#45;&gt;Node19</title>
<path fill="none" stroke="#191970" d="M122.0876,-97.7526C147.0447,-103.1258 176.2268,-109.4086 199.7819,-114.4799"/>
<polygon fill="#191970" stroke="#191970" points="122.5511,-94.2722 112.0384,-95.589 121.0777,-101.1154 122.5511,-94.2722"/>
</g>
<!-- Node20 -->
<g id="node3" class="node">
<title>Node20</title>
<g id="a_node3"><a xlink:href="classLoopManager.html#a67c6f44d33880b35c875a8e6ea8babac" target="_top" xlink:title="LoopManager::TapPulse">
<polygon fill="#ffffff" stroke="#000000" points="356.5,-76.5 356.5,-95.5 487.5,-95.5 487.5,-76.5 356.5,-76.5"/>
<text text-anchor="middle" x="422" y="-83.5" font-family="Helvetica,sans-Serif" font-size="10.00" fill="#000000">LoopManager::TapPulse</text>
</a>
</g>
</g>
<!-- Node18&#45;&gt;Node20 -->
<g id="edge2" class="edge">
<title>Node18&#45;&gt;Node20</title>
<path fill="none" stroke="#191970" d="M145.3218,-86C208.4879,-86 296.5562,-86 356.2371,-86"/>
<polygon fill="#191970" stroke="#191970" points="145.0132,-82.5001 135.0132,-86 145.0131,-89.5001 145.0132,-82.5001"/>
</g>
<!-- Node22 -->
<g id="node5" class="node">
<title>Node22</title>
<g id="a_node5"><a xlink:href="classLoopManager.html#add3b21cda3c0eddecabf19d24c610cdc" target="_top" xlink:title="LoopManager::Activate">
<polygon fill="#ffffff" stroke="#000000" points="180,-38.5 180,-57.5 308,-57.5 308,-38.5 180,-38.5"/>
<text text-anchor="middle" x="244" y="-45.5" font-family="Helvetica,sans-Serif" font-size="10.00" fill="#000000">LoopManager::Activate</text>
</a>
</g>
</g>
<!-- Node18&#45;&gt;Node22 -->
<g id="edge4" class="edge">
<title>Node18&#45;&gt;Node22</title>
<path fill="none" stroke="#191970" d="M122.0876,-74.2474C147.0447,-68.8742 176.2268,-62.5914 199.7819,-57.5201"/>
<polygon fill="#191970" stroke="#191970" points="121.0777,-70.8846 112.0384,-76.411 122.5511,-77.7278 121.0777,-70.8846"/>
</g>
<!-- Node21 -->
<g id="node4" class="node">
<title>Node21</title>
<g id="a_node4"><a xlink:href="classLoopManager.html#a4aada2d07b7ce0a67a8119ece4805966" target="_top" xlink:title="LoopManager::ReceiveEvent">
<polygon fill="#ffffff" stroke="#000000" points="527,-38.5 527,-57.5 681,-57.5 681,-38.5 527,-38.5"/>
<text text-anchor="middle" x="604" y="-45.5" font-family="Helvetica,sans-Serif" font-size="10.00" fill="#000000">LoopManager::ReceiveEvent</text>
</a>
</g>
</g>
<!-- Node20&#45;&gt;Node21 -->
<g id="edge3" class="edge">
<title>Node20&#45;&gt;Node21</title>
<path fill="none" stroke="#191970" d="M477.9458,-74.319C503.7558,-68.9301 534.0069,-62.6139 558.404,-57.5201"/>
<polygon fill="#191970" stroke="#191970" points="476.9998,-70.941 467.9263,-76.411 478.4306,-77.7932 476.9998,-70.941"/>
</g>
<!-- Node22&#45;&gt;Node21 -->
<g id="edge7" class="edge">
<title>Node22&#45;&gt;Node21</title>
<path fill="none" stroke="#191970" d="M318.6658,-48C379.5307,-48 465.1864,-48 526.7416,-48"/>
<polygon fill="#191970" stroke="#191970" points="318.3608,-44.5001 308.3608,-48 318.3608,-51.5001 318.3608,-44.5001"/>
</g>
<!-- Node23 -->
<g id="node6" class="node">
<title>Node23</title>
<g id="a_node6"><a xlink:href="classFweelin.html#a4654015e2bc7cc94f3bfc421899a60d3" target="_top" xlink:title="Fweelin::TriggerSnapshot">
<polygon fill="#ffffff" stroke="#000000" points="353,-.5 353,-19.5 491,-19.5 491,-.5 353,-.5"/>
<text text-anchor="middle" x="422" y="-7.5" font-family="Helvetica,sans-Serif" font-size="10.00" fill="#000000">Fweelin::TriggerSnapshot</text>
</a>
</g>
</g>
<!-- Node22&#45;&gt;Node23 -->
<g id="edge5" class="edge">
<title>Node22&#45;&gt;Node23</title>
<path fill="none" stroke="#191970" d="M298.7162,-36.319C323.959,-30.9301 353.5452,-24.6139 377.4061,-19.5201"/>
<polygon fill="#191970" stroke="#191970" points="297.9658,-32.9003 288.9169,-38.411 299.4273,-39.746 297.9658,-32.9003"/>
</g>
<!-- Node23&#45;&gt;Node21 -->
<g id="edge6" class="edge">
<title>Node23&#45;&gt;Node21</title>
<path fill="none" stroke="#191970" d="M477.9458,-21.681C503.7558,-27.0699 534.0069,-33.3861 558.404,-38.4799"/>
<polygon fill="#191970" stroke="#191970" points="478.4306,-18.2068 467.9263,-19.589 476.9998,-25.059 478.4306,-18.2068"/>
</g>
</g>
</svg>
