<?xml version="1.0" encoding="UTF-8" standalone="no"?>
<!DOCTYPE svg PUBLIC "-//W3C//DTD SVG 1.1//EN"
 "http://www.w3.org/Graphics/SVG/1.1/DTD/svg11.dtd">
<!-- Generated by graphviz version 2.40.1 (20161225.0304)
 -->
<!-- Title: ManagedChain::GetType Pages: 1 -->
<svg width="553pt" height="116pt"
 viewBox="0.00 0.00 553.00 115.50" xmlns="http://www.w3.org/2000/svg" xmlns:xlink="http://www.w3.org/1999/xlink">
<g id="graph0" class="graph" transform="scale(1 1) rotate(0) translate(4 111.5)">
<title>ManagedChain::GetType</title>
<polygon fill="#ffffff" stroke="transparent" points="-4,4 -4,-111.5 549,-111.5 549,4 -4,4"/>
<!-- Node5 -->
<g id="node1" class="node">
<title>Node5</title>
<polygon fill="#bfbfbf" stroke="#000000" points="0,-50 0,-69 134,-69 134,-50 0,-50"/>
<text text-anchor="middle" x="67" y="-57" font-family="Helvetica,sans-Serif" font-size="10.00" fill="#000000">ManagedChain::GetType</text>
</g>
<!-- Node6 -->
<g id="node2" class="node">
<title>Node6</title>
<g id="a_node2"><a xlink:href="classBlockManager.html#a28028dbf822172d59d148cab4614e97c" target="_top" xlink:title="BlockManager::GetBlockManager">
<polygon fill="#ffffff" stroke="#000000" points="170,-88 170,-107 348,-107 348,-88 170,-88"/>
<text text-anchor="middle" x="259" y="-95" font-family="Helvetica,sans-Serif" font-size="10.00" fill="#000000">BlockManager::GetBlockManager</text>
</a>
</g>
</g>
<!-- Node5&#45;&gt;Node6 -->
<g id="edge1" class="edge">
<title>Node5&#45;&gt;Node6</title>
<path fill="none" stroke="#191970" d="M125.298,-71.0381C152.6826,-76.458 184.9334,-82.841 210.8987,-87.9799"/>
<polygon fill="#191970" stroke="#191970" points="125.939,-67.5972 115.4497,-69.089 124.5799,-74.464 125.939,-67.5972"/>
</g>
<!-- Node7 -->
<g id="node3" class="node">
<title>Node7</title>
<g id="a_node3"><a xlink:href="classBlockManager.html#af1d0fec9c4363daed34026a3461a2e58" target="_top" xlink:title="BlockManager::DelManager">
<polygon fill="#ffffff" stroke="#000000" points="184,-50 184,-69 334,-69 334,-50 184,-50"/>
<text text-anchor="middle" x="259" y="-57" font-family="Helvetica,sans-Serif" font-size="10.00" fill="#000000">BlockManager::DelManager</text>
</a>
</g>
</g>
<!-- Node5&#45;&gt;Node7 -->
<g id="edge2" class="edge">
<title>Node5&#45;&gt;Node7</title>
<path fill="none" stroke="#191970" d="M144.4187,-59.5C157.369,-59.5 170.7883,-59.5 183.6848,-59.5"/>
<polygon fill="#191970" stroke="#191970" points="144.1523,-56.0001 134.1523,-59.5 144.1522,-63.0001 144.1523,-56.0001"/>
</g>
<!-- Node8 -->
<g id="node4" class="node">
<title>Node8</title>
<g id="a_node4"><a xlink:href="classBlockManager.html#a07b5a821c70151176fbf3db215dbba82" target="_top" xlink:title="BlockManager::run_manage\l_thread">
<polygon fill="#ffffff" stroke="#000000" points="183,-.5 183,-30.5 335,-30.5 335,-.5 183,-.5"/>
<text text-anchor="start" x="191" y="-18.5" font-family="Helvetica,sans-Serif" font-size="10.00" fill="#000000">BlockManager::run_manage</text>
<text text-anchor="middle" x="259" y="-7.5" font-family="Helvetica,sans-Serif" font-size="10.00" fill="#000000">_thread</text>
</a>
</g>
</g>
<!-- Node5&#45;&gt;Node8 -->
<g id="edge3" class="edge">
<title>Node5&#45;&gt;Node8</title>
<path fill="none" stroke="#191970" d="M118.5484,-47.6868C141.5174,-42.4231 168.8434,-36.1609 193.2602,-30.5654"/>
<polygon fill="#191970" stroke="#191970" points="117.6266,-44.3073 108.6611,-49.9527 119.1903,-51.1304 117.6266,-44.3073"/>
</g>
<!-- Node9 -->
<g id="node5" class="node">
<title>Node9</title>
<g id="a_node5"><a xlink:href="classBlockManager.html#ae3d80b63628951b60e95fab855a09855" target="_top" xlink:title="BlockManager::BlockManager">
<polygon fill="#ffffff" stroke="#000000" points="384,-6 384,-25 545,-25 545,-6 384,-6"/>
<text text-anchor="middle" x="464.5" y="-13" font-family="Helvetica,sans-Serif" font-size="10.00" fill="#000000">BlockManager::BlockManager</text>
</a>
</g>
</g>
<!-- Node8&#45;&gt;Node9 -->
<g id="edge4" class="edge">
<title>Node8&#45;&gt;Node9</title>
<path fill="none" stroke="#191970" d="M345.3814,-15.5C358.1531,-15.5 371.2711,-15.5 383.9185,-15.5"/>
<polygon fill="#191970" stroke="#191970" points="345.2286,-12.0001 335.2286,-15.5 345.2285,-19.0001 345.2286,-12.0001"/>
</g>
</g>
</svg>
