<?xml version="1.0" encoding="UTF-8" standalone="no"?>
<!DOCTYPE svg PUBLIC "-//W3C//DTD SVG 1.1//EN"
 "http://www.w3.org/Graphics/SVG/1.1/DTD/svg11.dtd">
<!-- Generated by graphviz version 2.40.1 (20161225.0304)
 -->
<!-- Title: RootProcessor::GetOutputVolume Pages: 1 -->
<svg width="902pt" height="53pt"
 viewBox="0.00 0.00 902.00 52.50" xmlns="http://www.w3.org/2000/svg" xmlns:xlink="http://www.w3.org/1999/xlink">
<g id="graph0" class="graph" transform="scale(1 1) rotate(0) translate(4 48.5)">
<title>RootProcessor::GetOutputVolume</title>
<polygon fill="#ffffff" stroke="transparent" points="-4,4 -4,-48.5 898,-48.5 898,4 -4,4"/>
<!-- Node60 -->
<g id="node1" class="node">
<title>Node60</title>
<polygon fill="#bfbfbf" stroke="#000000" points="0,-.5 0,-30.5 142,-30.5 142,-.5 0,-.5"/>
<text text-anchor="start" x="8" y="-18.5" font-family="Helvetica,sans-Serif" font-size="10.00" fill="#000000">RootProcessor::GetOutput</text>
<text text-anchor="middle" x="71" y="-7.5" font-family="Helvetica,sans-Serif" font-size="10.00" fill="#000000">Volume</text>
</g>
<!-- Node61 -->
<g id="node2" class="node">
<title>Node61</title>
<g id="a_node2"><a xlink:href="classLoopManager.html#a8f64a19e15059db80af9cd9f1fa0c05b" target="_top" xlink:title="LoopManager::GetOutputVolume">
<polygon fill="#ffffff" stroke="#000000" points="178,-6 178,-25 353,-25 353,-6 178,-6"/>
<text text-anchor="middle" x="265.5" y="-13" font-family="Helvetica,sans-Serif" font-size="10.00" fill="#000000">LoopManager::GetOutputVolume</text>
</a>
</g>
</g>
<!-- Node60&#45;&gt;Node61 -->
<g id="edge1" class="edge">
<title>Node60&#45;&gt;Node61</title>
<path fill="none" stroke="#191970" d="M152.2313,-15.5C160.6642,-15.5 169.2624,-15.5 177.7627,-15.5"/>
<polygon fill="#191970" stroke="#191970" points="152.0446,-12.0001 142.0446,-15.5 152.0445,-19.0001 152.0446,-12.0001"/>
</g>
<!-- Node62 -->
<g id="node3" class="node">
<title>Node62</title>
<g id="a_node3"><a xlink:href="classLoopManager.html#a861cdd2ace9aeb53b4ecf92728215265" target="_top" xlink:title="LoopManager::Deactivate">
<polygon fill="#ffffff" stroke="#000000" points="389,-6 389,-25 530,-25 530,-6 389,-6"/>
<text text-anchor="middle" x="459.5" y="-13" font-family="Helvetica,sans-Serif" font-size="10.00" fill="#000000">LoopManager::Deactivate</text>
</a>
</g>
</g>
<!-- Node61&#45;&gt;Node62 -->
<g id="edge2" class="edge">
<title>Node61&#45;&gt;Node62</title>
<path fill="none" stroke="#191970" d="M363.2462,-15.5C371.8703,-15.5 380.4865,-15.5 388.8221,-15.5"/>
<polygon fill="#191970" stroke="#191970" points="363.1351,-12.0001 353.1351,-15.5 363.135,-19.0001 363.1351,-12.0001"/>
</g>
<!-- Node63 -->
<g id="node4" class="node">
<title>Node63</title>
<g id="a_node4"><a xlink:href="classFweelin.html#a4654015e2bc7cc94f3bfc421899a60d3" target="_top" xlink:title="Fweelin::TriggerSnapshot">
<polygon fill="#ffffff" stroke="#000000" points="566,-25 566,-44 704,-44 704,-25 566,-25"/>
<text text-anchor="middle" x="635" y="-32" font-family="Helvetica,sans-Serif" font-size="10.00" fill="#000000">Fweelin::TriggerSnapshot</text>
</a>
</g>
</g>
<!-- Node62&#45;&gt;Node63 -->
<g id="edge3" class="edge">
<title>Node62&#45;&gt;Node63</title>
<path fill="none" stroke="#191970" d="M540.1714,-24.2337C548.7832,-25.166 557.4866,-26.1082 565.9467,-27.0241"/>
<polygon fill="#191970" stroke="#191970" points="540.4426,-20.7427 530.124,-23.1459 539.6891,-27.702 540.4426,-20.7427"/>
</g>
<!-- Node64 -->
<g id="node5" class="node">
<title>Node64</title>
<g id="a_node5"><a xlink:href="classLoopManager.html#a4aada2d07b7ce0a67a8119ece4805966" target="_top" xlink:title="LoopManager::ReceiveEvent">
<polygon fill="#ffffff" stroke="#000000" points="740,-6 740,-25 894,-25 894,-6 740,-6"/>
<text text-anchor="middle" x="817" y="-13" font-family="Helvetica,sans-Serif" font-size="10.00" fill="#000000">LoopManager::ReceiveEvent</text>
</a>
</g>
</g>
<!-- Node62&#45;&gt;Node64 -->
<g id="edge5" class="edge">
<title>Node62&#45;&gt;Node64</title>
<path fill="none" stroke="#191970" d="M540.2745,-15.5C599.9925,-15.5 680.8225,-15.5 739.6996,-15.5"/>
<polygon fill="#191970" stroke="#191970" points="540.1305,-12.0001 530.1305,-15.5 540.1305,-19.0001 540.1305,-12.0001"/>
</g>
<!-- Node63&#45;&gt;Node64 -->
<g id="edge4" class="edge">
<title>Node63&#45;&gt;Node64</title>
<path fill="none" stroke="#191970" d="M714.2897,-26.2225C722.7435,-25.34 731.3344,-24.4431 739.7641,-23.5631"/>
<polygon fill="#191970" stroke="#191970" points="713.6484,-22.7703 704.0659,-27.2898 714.3753,-29.7325 713.6484,-22.7703"/>
</g>
</g>
</svg>
