<?xml version="1.0" encoding="UTF-8" standalone="no"?>
<!DOCTYPE svg PUBLIC "-//W3C//DTD SVG 1.1//EN"
 "http://www.w3.org/Graphics/SVG/1.1/DTD/svg11.dtd">
<!-- Generated by graphviz version 2.40.1 (20161225.0304)
 -->
<!-- Title: MidiIO::CheckUnbypass Pages: 1 -->
<svg width="309pt" height="142pt"
 viewBox="0.00 0.00 309.00 142.00" xmlns="http://www.w3.org/2000/svg" xmlns:xlink="http://www.w3.org/1999/xlink">
<g id="graph0" class="graph" transform="scale(1 1) rotate(0) translate(4 138)">
<title>MidiIO::CheckUnbypass</title>
<polygon fill="#ffffff" stroke="transparent" points="-4,4 -4,-138 305,-138 305,4 -4,4"/>
<!-- Node52 -->
<g id="node1" class="node">
<title>Node52</title>
<polygon fill="#bfbfbf" stroke="#000000" points="0,-57.5 0,-76.5 131,-76.5 131,-57.5 0,-57.5"/>
<text text-anchor="middle" x="65.5" y="-64.5" font-family="Helvetica,sans-Serif" font-size="10.00" fill="#000000">MidiIO::CheckUnbypass</text>
</g>
<!-- Node53 -->
<g id="node2" class="node">
<title>Node53</title>
<g id="a_node2"><a xlink:href="classPatchItem.html#a193dba9833309437fed1241957cd20dd" target="_top" xlink:title="PatchItem::IsCombi">
<polygon fill="#ffffff" stroke="#000000" points="178.5,-114.5 178.5,-133.5 289.5,-133.5 289.5,-114.5 178.5,-114.5"/>
<text text-anchor="middle" x="234" y="-121.5" font-family="Helvetica,sans-Serif" font-size="10.00" fill="#000000">PatchItem::IsCombi</text>
</a>
</g>
</g>
<!-- Node52&#45;&gt;Node53 -->
<g id="edge1" class="edge">
<title>Node52&#45;&gt;Node53</title>
<path fill="none" stroke="#191970" d="M89.5026,-76.6208C109.9463,-84.6618 140.1847,-96.1946 167,-105 173.9497,-107.2821 181.3566,-109.5467 188.6165,-111.6747"/>
<polygon fill="#191970" stroke="#191970" points="187.7905,-115.0789 198.3684,-114.4805 189.726,-108.3518 187.7905,-115.0789"/>
</g>
<!-- Node54 -->
<g id="node3" class="node">
<title>Node54</title>
<g id="a_node3"><a xlink:href="classPatchItem.html#a80e0a72bb7db8f68cd4f7bc32bb36361" target="_top" xlink:title="PatchItem::GetZone">
<polygon fill="#ffffff" stroke="#000000" points="177.5,-76.5 177.5,-95.5 290.5,-95.5 290.5,-76.5 177.5,-76.5"/>
<text text-anchor="middle" x="234" y="-83.5" font-family="Helvetica,sans-Serif" font-size="10.00" fill="#000000">PatchItem::GetZone</text>
</a>
</g>
</g>
<!-- Node52&#45;&gt;Node54 -->
<g id="edge2" class="edge">
<title>Node52&#45;&gt;Node54</title>
<path fill="none" stroke="#191970" d="M131.129,-74.4003C142.9216,-75.73 155.2266,-77.1175 167.0559,-78.4514"/>
<polygon fill="#191970" stroke="#191970" points="166.9748,-81.9644 177.304,-79.607 167.7592,-75.0084 166.9748,-81.9644"/>
</g>
<!-- Node55 -->
<g id="node4" class="node">
<title>Node55</title>
<g id="a_node4"><a xlink:href="classMidiIO.html#a768bb4ca3d6df0d4d7b2dfcc95ce8417" target="_top" xlink:title="MidiIO::getBP">
<polygon fill="#ffffff" stroke="#000000" points="193,-38.5 193,-57.5 275,-57.5 275,-38.5 193,-38.5"/>
<text text-anchor="middle" x="234" y="-45.5" font-family="Helvetica,sans-Serif" font-size="10.00" fill="#000000">MidiIO::getBP</text>
</a>
</g>
</g>
<!-- Node52&#45;&gt;Node55 -->
<g id="edge3" class="edge">
<title>Node52&#45;&gt;Node55</title>
<path fill="none" stroke="#191970" d="M131.129,-59.5997C148.1086,-57.6851 166.1505,-55.6507 182.3052,-53.8291"/>
<polygon fill="#191970" stroke="#191970" points="183.0736,-57.2647 192.6184,-52.6662 182.2892,-50.3088 183.0736,-57.2647"/>
</g>
<!-- Node56 -->
<g id="node5" class="node">
<title>Node56</title>
<g id="a_node5"><a xlink:href="classMidiIO.html#ade75d48e27670a86a2a109f99ea847b7" target="_top" xlink:title="MidiIO::OutputController">
<polygon fill="#ffffff" stroke="#000000" points="167,-.5 167,-19.5 301,-19.5 301,-.5 167,-.5"/>
<text text-anchor="middle" x="234" y="-7.5" font-family="Helvetica,sans-Serif" font-size="10.00" fill="#000000">MidiIO::OutputController</text>
</a>
</g>
</g>
<!-- Node52&#45;&gt;Node56 -->
<g id="edge4" class="edge">
<title>Node52&#45;&gt;Node56</title>
<path fill="none" stroke="#191970" d="M89.5026,-57.3792C109.9463,-49.3382 140.1847,-37.8054 167,-29 173.9497,-26.7179 181.3566,-24.4533 188.6165,-22.3253"/>
<polygon fill="#191970" stroke="#191970" points="189.726,-25.6482 198.3684,-19.5195 187.7905,-18.9211 189.726,-25.6482"/>
</g>
</g>
</svg>
