<?xml version="1.0" encoding="UTF-8" standalone="no"?>
<!DOCTYPE svg PUBLIC "-//W3C//DTD SVG 1.1//EN"
 "http://www.w3.org/Graphics/SVG/1.1/DTD/svg11.dtd">
<!-- Generated by graphviz version 2.40.1 (20161225.0304)
 -->
<!-- Title: Preallocated::RTNew Pages: 1 -->
<svg width="548pt" height="325pt"
 viewBox="0.00 0.00 548.00 325.00" xmlns="http://www.w3.org/2000/svg" xmlns:xlink="http://www.w3.org/1999/xlink">
<g id="graph0" class="graph" transform="scale(1 1) rotate(0) translate(4 321)">
<title>Preallocated::RTNew</title>
<polygon fill="#ffffff" stroke="transparent" points="-4,4 -4,-321 544,-321 544,4 -4,4"/>
<!-- Node96 -->
<g id="node1" class="node">
<title>Node96</title>
<polygon fill="#bfbfbf" stroke="#000000" points="0,-164.5 0,-183.5 117,-183.5 117,-164.5 0,-164.5"/>
<text text-anchor="middle" x="58.5" y="-171.5" font-family="Helvetica,sans-Serif" font-size="10.00" fill="#000000">Preallocated::RTNew</text>
</g>
<!-- Node97 -->
<g id="node2" class="node">
<title>Node97</title>
<g id="a_node2"><a xlink:href="classBlockReadManager.html#af12804c61f944904eedf8c9edf5cd3bd" target="_top" xlink:title="BlockReadManager::Start">
<polygon fill="#ffffff" stroke="#000000" points="167.5,-297.5 167.5,-316.5 306.5,-316.5 306.5,-297.5 167.5,-297.5"/>
<text text-anchor="middle" x="237" y="-304.5" font-family="Helvetica,sans-Serif" font-size="10.00" fill="#000000">BlockReadManager::Start</text>
</a>
</g>
</g>
<!-- Node96&#45;&gt;Node97 -->
<g id="edge1" class="edge">
<title>Node96&#45;&gt;Node97</title>
<path fill="none" stroke="#191970" d="M69.3786,-192.1073C84.905,-216.401 115.709,-259.2334 153,-283 162.8484,-289.2767 174.3718,-293.9488 185.6716,-297.4138"/>
<polygon fill="#191970" stroke="#191970" points="72.2783,-190.1425 64.0236,-183.5008 66.3348,-193.8405 72.2783,-190.1425"/>
</g>
<!-- Node98 -->
<g id="node3" class="node">
<title>Node98</title>
<g id="a_node3"><a xlink:href="classBlockReadManager.html#aa990976dec4a3ec5bd6384b54ce5f09b" target="_top" xlink:title="BlockReadManager::Manage">
<polygon fill="#ffffff" stroke="#000000" points="371.5,-278.5 371.5,-297.5 525.5,-297.5 525.5,-278.5 371.5,-278.5"/>
<text text-anchor="middle" x="448.5" y="-285.5" font-family="Helvetica,sans-Serif" font-size="10.00" fill="#000000">BlockReadManager::Manage</text>
</a>
</g>
</g>
<!-- Node96&#45;&gt;Node98 -->
<g id="edge3" class="edge">
<title>Node96&#45;&gt;Node98</title>
<path fill="none" stroke="#191970" d="M74.066,-191.1831C91.4214,-209.1198 121.2523,-236.4797 153,-250 222.9556,-279.7918 310.0059,-287.8992 371.4525,-289.4022"/>
<polygon fill="#191970" stroke="#191970" points="76.4117,-188.5687 67.0077,-183.6886 71.3158,-193.368 76.4117,-188.5687"/>
</g>
<!-- Node99 -->
<g id="node4" class="node">
<title>Node99</title>
<g id="a_node4"><a xlink:href="classAudioBlock.html#aea20227efbc9017f7fb247cb2d851086" target="_top" xlink:title="AudioBlock::GenerateSubChain">
<polygon fill="#ffffff" stroke="#000000" points="153,-221.5 153,-240.5 321,-240.5 321,-221.5 153,-221.5"/>
<text text-anchor="middle" x="237" y="-228.5" font-family="Helvetica,sans-Serif" font-size="10.00" fill="#000000">AudioBlock::GenerateSubChain</text>
</a>
</g>
</g>
<!-- Node96&#45;&gt;Node99 -->
<g id="edge4" class="edge">
<title>Node96&#45;&gt;Node99</title>
<path fill="none" stroke="#191970" d="M94.2956,-187.0464C111.8976,-193.3218 133.4758,-200.8075 153,-207 168.9029,-212.0439 186.6482,-217.1844 201.7165,-221.4071"/>
<polygon fill="#191970" stroke="#191970" points="95.0314,-183.592 84.4369,-183.5103 92.6681,-190.181 95.0314,-183.592"/>
</g>
<!-- Node100 -->
<g id="node5" class="node">
<title>Node100</title>
<g id="a_node5"><a xlink:href="classRecordProcessor.html#aa20c0f68a5ee5e4739759b3783b6e4d1" target="_top" xlink:title="RecordProcessor::RecordProcessor">
<polygon fill="#ffffff" stroke="#000000" points="357,-202.5 357,-221.5 540,-221.5 540,-202.5 357,-202.5"/>
<text text-anchor="middle" x="448.5" y="-209.5" font-family="Helvetica,sans-Serif" font-size="10.00" fill="#000000">RecordProcessor::RecordProcessor</text>
</a>
</g>
</g>
<!-- Node96&#45;&gt;Node100 -->
<g id="edge12" class="edge">
<title>Node96&#45;&gt;Node100</title>
<path fill="none" stroke="#191970" d="M127.2751,-180.7012C191.1178,-186.9217 286.614,-196.2265 356.8973,-203.0746"/>
<polygon fill="#191970" stroke="#191970" points="127.6015,-177.2165 117.3092,-179.7301 126.9226,-184.1835 127.6015,-177.2165"/>
</g>
<!-- Node101 -->
<g id="node6" class="node">
<title>Node101</title>
<g id="a_node6"><a xlink:href="classGrowChainManager.html#a7aa3e16e4a681f3765981df1e9828001" target="_top" xlink:title="GrowChainManager::Manage">
<polygon fill="#ffffff" stroke="#000000" points="159,-145.5 159,-164.5 315,-164.5 315,-145.5 159,-145.5"/>
<text text-anchor="middle" x="237" y="-152.5" font-family="Helvetica,sans-Serif" font-size="10.00" fill="#000000">GrowChainManager::Manage</text>
</a>
</g>
</g>
<!-- Node96&#45;&gt;Node101 -->
<g id="edge6" class="edge">
<title>Node96&#45;&gt;Node101</title>
<path fill="none" stroke="#191970" d="M127.5103,-166.6544C137.724,-165.5672 148.311,-164.4403 158.6972,-163.3348"/>
<polygon fill="#191970" stroke="#191970" points="127.0156,-163.1872 117.4423,-167.726 127.7566,-170.1478 127.0156,-163.1872"/>
</g>
<!-- Node102 -->
<g id="node7" class="node">
<title>Node102</title>
<g id="a_node7"><a xlink:href="classStripeBlockManager.html#a0e646e1141635492c59ee6582ffabbe9" target="_top" xlink:title="StripeBlockManager\l::Manage">
<polygon fill="#ffffff" stroke="#000000" points="180,-96 180,-126 294,-126 294,-96 180,-96"/>
<text text-anchor="start" x="188" y="-114" font-family="Helvetica,sans-Serif" font-size="10.00" fill="#000000">StripeBlockManager</text>
<text text-anchor="middle" x="237" y="-103" font-family="Helvetica,sans-Serif" font-size="10.00" fill="#000000">::Manage</text>
</a>
</g>
</g>
<!-- Node96&#45;&gt;Node102 -->
<g id="edge7" class="edge">
<title>Node96&#45;&gt;Node102</title>
<path fill="none" stroke="#191970" d="M90.0881,-160.4413C108.3192,-152.8322 131.7721,-143.4089 153,-136 162.7687,-132.5906 173.2745,-129.2285 183.4366,-126.1291"/>
<polygon fill="#191970" stroke="#191970" points="88.6677,-157.2416 80.8076,-164.3458 91.3824,-163.6938 88.6677,-157.2416"/>
</g>
<!-- Node103 -->
<g id="node8" class="node">
<title>Node103</title>
<g id="a_node8"><a xlink:href="classInputMatrix.html#aa74204a205a10f2b60809ea124db9173" target="_top" xlink:title="InputMatrix::ReceiveEvent">
<polygon fill="#ffffff" stroke="#000000" points="165,-57.5 165,-76.5 309,-76.5 309,-57.5 165,-57.5"/>
<text text-anchor="middle" x="237" y="-64.5" font-family="Helvetica,sans-Serif" font-size="10.00" fill="#000000">InputMatrix::ReceiveEvent</text>
</a>
</g>
</g>
<!-- Node96&#45;&gt;Node103 -->
<g id="edge8" class="edge">
<title>Node96&#45;&gt;Node103</title>
<path fill="none" stroke="#191970" d="M72.561,-156.5075C89.5194,-136.6112 119.9011,-104.6087 153,-87 161.2055,-82.6347 170.3634,-79.2107 179.5312,-76.5281"/>
<polygon fill="#191970" stroke="#191970" points="69.6515,-154.5324 65.949,-164.4593 75.0338,-159.008 69.6515,-154.5324"/>
</g>
<!-- Node104 -->
<g id="node9" class="node">
<title>Node104</title>
<g id="a_node9"><a xlink:href="classFweelin.html#a268997890fa59492e27b4787c6bdc41f" target="_top" xlink:title="Fweelin::go">
<polygon fill="#ffffff" stroke="#000000" points="201,-19.5 201,-38.5 273,-38.5 273,-19.5 201,-19.5"/>
<text text-anchor="middle" x="237" y="-26.5" font-family="Helvetica,sans-Serif" font-size="10.00" fill="#000000">Fweelin::go</text>
</a>
</g>
</g>
<!-- Node96&#45;&gt;Node104 -->
<g id="edge9" class="edge">
<title>Node96&#45;&gt;Node104</title>
<path fill="none" stroke="#191970" d="M67.2258,-155.1407C81.194,-127.1485 111.3053,-75.0124 153,-48 167.1797,-38.8135 185.2079,-34.035 200.9244,-31.563"/>
<polygon fill="#191970" stroke="#191970" points="64.0141,-153.7428 62.8184,-164.27 70.318,-156.7862 64.0141,-153.7428"/>
</g>
<!-- Node97&#45;&gt;Node98 -->
<g id="edge2" class="edge">
<title>Node97&#45;&gt;Node98</title>
<path fill="none" stroke="#191970" d="M316.892,-299.8229C334.6964,-298.2235 353.5427,-296.5304 371.2388,-294.9407"/>
<polygon fill="#191970" stroke="#191970" points="316.1926,-296.3716 306.5459,-300.7524 316.819,-303.3435 316.1926,-296.3716"/>
</g>
<!-- Node99&#45;&gt;Node100 -->
<g id="edge5" class="edge">
<title>Node99&#45;&gt;Node100</title>
<path fill="none" stroke="#191970" d="M331.1865,-222.5388C339.7468,-221.7698 348.4094,-220.9916 356.9463,-220.2247"/>
<polygon fill="#191970" stroke="#191970" points="330.8448,-219.0553 321.1981,-223.4361 331.4712,-226.0272 330.8448,-219.0553"/>
</g>
<!-- Node105 -->
<g id="node10" class="node">
<title>Node105</title>
<g id="a_node10"><a xlink:href="fweelin_8cc.html#a97b0fa62b7b0972875f5f589322c4c24" target="_top" xlink:title="main">
<polygon fill="#ffffff" stroke="#000000" points="428,-38.5 428,-57.5 469,-57.5 469,-38.5 428,-38.5"/>
<text text-anchor="middle" x="448.5" y="-45.5" font-family="Helvetica,sans-Serif" font-size="10.00" fill="#000000">main</text>
</a>
</g>
</g>
<!-- Node104&#45;&gt;Node105 -->
<g id="edge10" class="edge">
<title>Node104&#45;&gt;Node105</title>
<path fill="none" stroke="#191970" d="M283.4741,-33.175C328.5244,-37.2221 394.7747,-43.1736 427.9636,-46.1551"/>
<polygon fill="#191970" stroke="#191970" points="283.6312,-29.6751 273.3581,-32.2662 283.0048,-36.647 283.6312,-29.6751"/>
</g>
<!-- Node106 -->
<g id="node11" class="node">
<title>Node106</title>
<g id="a_node11"><a xlink:href="classLoopTray.html#a307e6abe64c403e39fc463ec282bde27" target="_top" xlink:title="LoopTray::Draw">
<polygon fill="#ffffff" stroke="#000000" points="403,-.5 403,-19.5 494,-19.5 494,-.5 403,-.5"/>
<text text-anchor="middle" x="448.5" y="-7.5" font-family="Helvetica,sans-Serif" font-size="10.00" fill="#000000">LoopTray::Draw</text>
</a>
</g>
</g>
<!-- Node104&#45;&gt;Node106 -->
<g id="edge11" class="edge">
<title>Node104&#45;&gt;Node106</title>
<path fill="none" stroke="#191970" d="M283.438,-24.8283C318.8566,-21.6465 367.3948,-17.286 402.6636,-14.1177"/>
<polygon fill="#191970" stroke="#191970" points="283.0048,-21.353 273.3581,-25.7338 283.6312,-28.3249 283.0048,-21.353"/>
</g>
</g>
</svg>
