<?xml version="1.0" encoding="UTF-8" standalone="no"?>
<!DOCTYPE svg PUBLIC "-//W3C//DTD SVG 1.1//EN"
 "http://www.w3.org/Graphics/SVG/1.1/DTD/svg11.dtd">
<!-- Generated by graphviz version 2.40.1 (20161225.0304)
 -->
<!-- Title: RT_RWThreads::RegisterRTDataStruct Pages: 1 -->
<svg width="405pt" height="78pt"
 viewBox="0.00 0.00 405.00 77.50" xmlns="http://www.w3.org/2000/svg" xmlns:xlink="http://www.w3.org/1999/xlink">
<g id="graph0" class="graph" transform="scale(1 1) rotate(0) translate(4 73.5)">
<title>RT_RWThreads::RegisterRTDataStruct</title>
<polygon fill="#ffffff" stroke="transparent" points="-4,4 -4,-73.5 401,-73.5 401,4 -4,4"/>
<!-- Node25 -->
<g id="node1" class="node">
<title>Node25</title>
<polygon fill="#bfbfbf" stroke="#000000" points="0,-17 0,-47 170,-47 170,-17 0,-17"/>
<text text-anchor="start" x="8" y="-35" font-family="Helvetica,sans-Serif" font-size="10.00" fill="#000000">RT_RWThreads::RegisterRTData</text>
<text text-anchor="middle" x="85" y="-24" font-family="Helvetica,sans-Serif" font-size="10.00" fill="#000000">Struct</text>
</g>
<!-- Node26 -->
<g id="node2" class="node">
<title>Node26</title>
<g id="a_node2"><a xlink:href="classSRMWRingBuffer.html#a03fb13c8c6f62d761caba04b2ffd43d9" target="_top" xlink:title="SRMWRingBuffer\&lt; MemoryManager\lUpdate \&gt;::SRMWRingBuffer">
<polygon fill="#ffffff" stroke="#000000" points="206,-39 206,-69 397,-69 397,-39 206,-39"/>
<text text-anchor="start" x="214" y="-57" font-family="Helvetica,sans-Serif" font-size="10.00" fill="#000000">SRMWRingBuffer&lt; MemoryManager</text>
<text text-anchor="middle" x="301.5" y="-46" font-family="Helvetica,sans-Serif" font-size="10.00" fill="#000000">Update &gt;::SRMWRingBuffer</text>
</a>
</g>
</g>
<!-- Node25&#45;&gt;Node26 -->
<g id="edge1" class="edge">
<title>Node25&#45;&gt;Node26</title>
<path fill="none" stroke="#191970" d="M180.2164,-41.6756C188.7554,-42.5433 197.4042,-43.4221 205.9461,-44.2901"/>
<polygon fill="#191970" stroke="#191970" points="180.5584,-38.1924 170.2558,-40.6634 179.8507,-45.1565 180.5584,-38.1924"/>
</g>
<!-- Node27 -->
<g id="node3" class="node">
<title>Node27</title>
<g id="a_node3"><a xlink:href="classRT__RCU.html#aa5f078d656ff8815e076b17ad7515129" target="_top" xlink:title="RT_RCU::RT_RCU">
<polygon fill="#ffffff" stroke="#000000" points="252.5,-.5 252.5,-19.5 350.5,-19.5 350.5,-.5 252.5,-.5"/>
<text text-anchor="middle" x="301.5" y="-7.5" font-family="Helvetica,sans-Serif" font-size="10.00" fill="#000000">RT_RCU::RT_RCU</text>
</a>
</g>
</g>
<!-- Node25&#45;&gt;Node27 -->
<g id="edge2" class="edge">
<title>Node25&#45;&gt;Node27</title>
<path fill="none" stroke="#191970" d="M180.4372,-22.302C205.2286,-19.7828 230.9292,-17.1712 252.239,-15.0057"/>
<polygon fill="#191970" stroke="#191970" points="179.8507,-18.8435 170.2558,-23.3366 180.5584,-25.8076 179.8507,-18.8435"/>
</g>
</g>
</svg>
