<?xml version="1.0" encoding="UTF-8" standalone="no"?>
<!DOCTYPE svg PUBLIC "-//W3C//DTD SVG 1.1//EN"
 "http://www.w3.org/Graphics/SVG/1.1/DTD/svg11.dtd">
<!-- Generated by graphviz version 2.40.1 (20161225.0304)
 -->
<!-- Title: LoopManager::StripePulseOn Pages: 1 -->
<svg width="703pt" height="104pt"
 viewBox="0.00 0.00 703.00 104.00" xmlns="http://www.w3.org/2000/svg" xmlns:xlink="http://www.w3.org/1999/xlink">
<g id="graph0" class="graph" transform="scale(1 1) rotate(0) translate(4 100)">
<title>LoopManager::StripePulseOn</title>
<polygon fill="#ffffff" stroke="transparent" points="-4,4 -4,-100 699,-100 699,4 -4,4"/>
<!-- Node1171 -->
<g id="node1" class="node">
<title>Node1171</title>
<polygon fill="#bfbfbf" stroke="#000000" points="0,-38.5 0,-57.5 156,-57.5 156,-38.5 0,-38.5"/>
<text text-anchor="middle" x="78" y="-45.5" font-family="Helvetica,sans-Serif" font-size="10.00" fill="#000000">LoopManager::StripePulseOn</text>
</g>
<!-- Node1172 -->
<g id="node2" class="node">
<title>Node1172</title>
<g id="a_node2"><a xlink:href="classLoopManager.html#ab79aef15f1e783de1ab6827378bea274" target="_top" xlink:title="LoopManager::SelectPulse">
<polygon fill="#ffffff" stroke="#000000" points="193,-38.5 193,-57.5 337,-57.5 337,-38.5 193,-38.5"/>
<text text-anchor="middle" x="265" y="-45.5" font-family="Helvetica,sans-Serif" font-size="10.00" fill="#000000">LoopManager::SelectPulse</text>
</a>
</g>
</g>
<!-- Node1171&#45;&gt;Node1172 -->
<g id="edge1" class="edge">
<title>Node1171&#45;&gt;Node1172</title>
<path fill="none" stroke="#191970" d="M166.5039,-48C175.3023,-48 184.1598,-48 192.7636,-48"/>
<polygon fill="#191970" stroke="#191970" points="166.2214,-44.5001 156.2213,-48 166.2213,-51.5001 166.2214,-44.5001"/>
</g>
<!-- Node1173 -->
<g id="node3" class="node">
<title>Node1173</title>
<g id="a_node3"><a xlink:href="classLoopManager.html#a67c6f44d33880b35c875a8e6ea8babac" target="_top" xlink:title="LoopManager::TapPulse">
<polygon fill="#ffffff" stroke="#000000" points="374,-76.5 374,-95.5 505,-95.5 505,-76.5 374,-76.5"/>
<text text-anchor="middle" x="439.5" y="-83.5" font-family="Helvetica,sans-Serif" font-size="10.00" fill="#000000">LoopManager::TapPulse</text>
</a>
</g>
</g>
<!-- Node1171&#45;&gt;Node1173 -->
<g id="edge6" class="edge">
<title>Node1171&#45;&gt;Node1173</title>
<path fill="none" stroke="#191970" d="M139.0784,-59.2037C156.1609,-62.058 174.7668,-64.9066 192,-67 253.4972,-74.4704 323.9691,-79.5421 373.946,-82.5534"/>
<polygon fill="#191970" stroke="#191970" points="139.6636,-55.7531 129.2185,-57.5282 138.4908,-62.6541 139.6636,-55.7531"/>
</g>
<!-- Node1175 -->
<g id="node5" class="node">
<title>Node1175</title>
<g id="a_node5"><a xlink:href="classLoopManager.html#a705436ae811a121ed3285ab34b144bfe" target="_top" xlink:title="LoopManager::CreatePulse">
<polygon fill="#ffffff" stroke="#000000" points="192,-.5 192,-19.5 338,-19.5 338,-.5 192,-.5"/>
<text text-anchor="middle" x="265" y="-7.5" font-family="Helvetica,sans-Serif" font-size="10.00" fill="#000000">LoopManager::CreatePulse</text>
</a>
</g>
</g>
<!-- Node1171&#45;&gt;Node1175 -->
<g id="edge5" class="edge">
<title>Node1171&#45;&gt;Node1175</title>
<path fill="none" stroke="#191970" d="M135.131,-36.3905C161.7267,-30.986 192.9731,-24.6365 218.1513,-19.5201"/>
<polygon fill="#191970" stroke="#191970" points="134.2907,-32.9896 125.188,-38.411 135.6847,-39.8494 134.2907,-32.9896"/>
</g>
<!-- Node1172&#45;&gt;Node1173 -->
<g id="edge2" class="edge">
<title>Node1172&#45;&gt;Node1173</title>
<path fill="none" stroke="#191970" d="M318.9691,-59.7526C343.6433,-65.1258 372.4948,-71.4086 395.7829,-76.4799"/>
<polygon fill="#191970" stroke="#191970" points="319.5495,-56.297 309.0337,-57.589 318.06,-63.1367 319.5495,-56.297"/>
</g>
<!-- Node1174 -->
<g id="node4" class="node">
<title>Node1174</title>
<g id="a_node4"><a xlink:href="classLoopManager.html#a4aada2d07b7ce0a67a8119ece4805966" target="_top" xlink:title="LoopManager::ReceiveEvent">
<polygon fill="#ffffff" stroke="#000000" points="541,-57.5 541,-76.5 695,-76.5 695,-57.5 541,-57.5"/>
<text text-anchor="middle" x="618" y="-64.5" font-family="Helvetica,sans-Serif" font-size="10.00" fill="#000000">LoopManager::ReceiveEvent</text>
</a>
</g>
</g>
<!-- Node1172&#45;&gt;Node1174 -->
<g id="edge4" class="edge">
<title>Node1172&#45;&gt;Node1174</title>
<path fill="none" stroke="#191970" d="M347.5901,-52.4454C406.0026,-55.5894 483.776,-59.7755 540.9178,-62.8511"/>
<polygon fill="#191970" stroke="#191970" points="347.4603,-48.9334 337.2866,-51.8908 347.084,-55.9233 347.4603,-48.9334"/>
</g>
<!-- Node1173&#45;&gt;Node1174 -->
<g id="edge3" class="edge">
<title>Node1173&#45;&gt;Node1174</title>
<path fill="none" stroke="#191970" d="M515.4152,-77.9194C523.8683,-77.0196 532.4846,-76.1025 540.9516,-75.2012"/>
<polygon fill="#191970" stroke="#191970" points="514.7797,-74.4672 505.2064,-79.006 515.5207,-81.4279 514.7797,-74.4672"/>
</g>
</g>
</svg>
