<?xml version="1.0" encoding="UTF-8" standalone="no"?>
<!DOCTYPE svg PUBLIC "-//W3C//DTD SVG 1.1//EN"
 "http://www.w3.org/Graphics/SVG/1.1/DTD/svg11.dtd">
<!-- Generated by graphviz version 2.40.1 (20161225.0304)
 -->
<!-- Title: LoopManager::GetCurLoad Pages: 1 -->
<svg width="481pt" height="39pt"
 viewBox="0.00 0.00 481.00 39.00" xmlns="http://www.w3.org/2000/svg" xmlns:xlink="http://www.w3.org/1999/xlink">
<g id="graph0" class="graph" transform="scale(1 1) rotate(0) translate(4 35)">
<title>LoopManager::GetCurLoad</title>
<polygon fill="#ffffff" stroke="transparent" points="-4,4 -4,-35 477,-35 477,4 -4,4"/>
<!-- Node342 -->
<g id="node1" class="node">
<title>Node342</title>
<polygon fill="#bfbfbf" stroke="#000000" points="0,-6 0,-25 145,-25 145,-6 0,-6"/>
<text text-anchor="middle" x="72.5" y="-13" font-family="Helvetica,sans-Serif" font-size="10.00" fill="#000000">LoopManager::GetCurLoad</text>
</g>
<!-- Node343 -->
<g id="node2" class="node">
<title>Node343</title>
<g id="a_node2"><a xlink:href="classVideoIO.html#a50e4ccae99e278ed7d65d9db86f18c92" target="_top" xlink:title="VideoIO::video_event_loop">
<polygon fill="#ffffff" stroke="#000000" points="181,-6 181,-25 328,-25 328,-6 181,-6"/>
<text text-anchor="middle" x="254.5" y="-13" font-family="Helvetica,sans-Serif" font-size="10.00" fill="#000000">VideoIO::video_event_loop</text>
</a>
</g>
</g>
<!-- Node342&#45;&gt;Node343 -->
<g id="edge1" class="edge">
<title>Node342&#45;&gt;Node343</title>
<path fill="none" stroke="#191970" d="M155.433,-15.5C163.8632,-15.5 172.3865,-15.5 180.7104,-15.5"/>
<polygon fill="#191970" stroke="#191970" points="155.2159,-12.0001 145.2159,-15.5 155.2158,-19.0001 155.2159,-12.0001"/>
</g>
<!-- Node344 -->
<g id="node3" class="node">
<title>Node344</title>
<g id="a_node3"><a xlink:href="classVideoIO.html#adb25c81a2bfe792fd4f64e23a4e21176" target="_top" xlink:title="VideoIO::run_video\l_thread">
<polygon fill="#ffffff" stroke="#000000" points="364,-.5 364,-30.5 473,-30.5 473,-.5 364,-.5"/>
<text text-anchor="start" x="372" y="-18.5" font-family="Helvetica,sans-Serif" font-size="10.00" fill="#000000">VideoIO::run_video</text>
<text text-anchor="middle" x="418.5" y="-7.5" font-family="Helvetica,sans-Serif" font-size="10.00" fill="#000000">_thread</text>
</a>
</g>
</g>
<!-- Node343&#45;&gt;Node344 -->
<g id="edge2" class="edge">
<title>Node343&#45;&gt;Node344</title>
<path fill="none" stroke="#191970" d="M338.4193,-15.5C347.0101,-15.5 355.5729,-15.5 363.7301,-15.5"/>
<polygon fill="#191970" stroke="#191970" points="338.3441,-12.0001 328.344,-15.5 338.344,-19.0001 338.3441,-12.0001"/>
</g>
</g>
</svg>
