<?xml version="1.0" encoding="UTF-8" standalone="no"?>
<!DOCTYPE svg PUBLIC "-//W3C//DTD SVG 1.1//EN"
 "http://www.w3.org/Graphics/SVG/1.1/DTD/svg11.dtd">
<!-- Generated by graphviz version 2.40.1 (20161225.0304)
 -->
<!-- Title: BlockWriteManager::Start Pages: 1 -->
<svg width="321pt" height="192pt"
 viewBox="0.00 0.00 321.00 191.50" xmlns="http://www.w3.org/2000/svg" xmlns:xlink="http://www.w3.org/1999/xlink">
<g id="graph0" class="graph" transform="scale(1 1) rotate(0) translate(4 187.5)">
<title>BlockWriteManager::Start</title>
<polygon fill="#ffffff" stroke="transparent" points="-4,4 -4,-187.5 317,-187.5 317,4 -4,4"/>
<!-- Node35 -->
<g id="node1" class="node">
<title>Node35</title>
<polygon fill="#bfbfbf" stroke="#000000" points="0,-82.5 0,-112.5 117,-112.5 117,-82.5 0,-82.5"/>
<text text-anchor="start" x="8" y="-100.5" font-family="Helvetica,sans-Serif" font-size="10.00" fill="#000000">BlockWriteManager::</text>
<text text-anchor="middle" x="58.5" y="-89.5" font-family="Helvetica,sans-Serif" font-size="10.00" fill="#000000">Start</text>
</g>
<!-- Node36 -->
<g id="node2" class="node">
<title>Node36</title>
<g id="a_node2"><a xlink:href="classBlockManager.html#a42884d55a4c50d9aa57b98e8211e9747" target="_top" xlink:title="BlockManager::GetApp">
<polygon fill="#ffffff" stroke="#000000" points="169,-164 169,-183 297,-183 297,-164 169,-164"/>
<text text-anchor="middle" x="233" y="-171" font-family="Helvetica,sans-Serif" font-size="10.00" fill="#000000">BlockManager::GetApp</text>
</a>
</g>
</g>
<!-- Node35&#45;&gt;Node36 -->
<g id="edge1" class="edge">
<title>Node35&#45;&gt;Node36</title>
<path fill="none" stroke="#191970" d="M79.2691,-112.6235C97.7814,-125.4537 126.0417,-143.4827 153,-154.5 159.2149,-157.0399 165.8463,-159.2878 172.5315,-161.2653"/>
<polygon fill="#191970" stroke="#191970" points="171.7512,-164.6808 182.3223,-163.9716 173.6162,-157.9338 171.7512,-164.6808"/>
</g>
<!-- Node37 -->
<g id="node3" class="node">
<title>Node37</title>
<g id="a_node3"><a xlink:href="classFweelin.html#a681d7ca8d0789199af135f22c26a5409" target="_top" xlink:title="Fweelin::getCFG">
<polygon fill="#ffffff" stroke="#000000" points="185.5,-126 185.5,-145 280.5,-145 280.5,-126 185.5,-126"/>
<text text-anchor="middle" x="233" y="-133" font-family="Helvetica,sans-Serif" font-size="10.00" fill="#000000">Fweelin::getCFG</text>
</a>
</g>
</g>
<!-- Node35&#45;&gt;Node37 -->
<g id="edge2" class="edge">
<title>Node35&#45;&gt;Node37</title>
<path fill="none" stroke="#191970" d="M117.0914,-110.2592C137.1583,-114.629 159.5005,-119.4944 179.1723,-123.7782"/>
<polygon fill="#191970" stroke="#191970" points="178.674,-127.2517 189.1898,-125.9597 180.1635,-120.4119 178.674,-127.2517"/>
</g>
<!-- Node38 -->
<g id="node4" class="node">
<title>Node38</title>
<g id="a_node4"><a xlink:href="classFloConfig.html#a0b52185644573f2b0bae10f391ec69fd" target="_top" xlink:title="FloConfig::GetLoopOutFormat">
<polygon fill="#ffffff" stroke="#000000" points="153,-88 153,-107 313,-107 313,-88 153,-88"/>
<text text-anchor="middle" x="233" y="-95" font-family="Helvetica,sans-Serif" font-size="10.00" fill="#000000">FloConfig::GetLoopOutFormat</text>
</a>
</g>
</g>
<!-- Node35&#45;&gt;Node38 -->
<g id="edge3" class="edge">
<title>Node35&#45;&gt;Node38</title>
<path fill="none" stroke="#191970" d="M117.0914,-97.5C125.3465,-97.5 133.9867,-97.5 142.6676,-97.5"/>
<polygon fill="#191970" stroke="#191970" points="142.8563,-101.0001 152.8563,-97.5 142.8563,-94.0001 142.8563,-101.0001"/>
</g>
<!-- Node39 -->
<g id="node5" class="node">
<title>Node39</title>
<g id="a_node5"><a xlink:href="classAudioBlock.html#a5d7b94e41f0f024f767cb5e2d219b3ea" target="_top" xlink:title="AudioBlock::IsStereo">
<polygon fill="#ffffff" stroke="#000000" points="174.5,-50 174.5,-69 291.5,-69 291.5,-50 174.5,-50"/>
<text text-anchor="middle" x="233" y="-57" font-family="Helvetica,sans-Serif" font-size="10.00" fill="#000000">AudioBlock::IsStereo</text>
</a>
</g>
</g>
<!-- Node35&#45;&gt;Node39 -->
<g id="edge4" class="edge">
<title>Node35&#45;&gt;Node39</title>
<path fill="none" stroke="#191970" d="M117.0914,-84.7408C137.1583,-80.371 159.5005,-75.5056 179.1723,-71.2218"/>
<polygon fill="#191970" stroke="#191970" points="180.1635,-74.5881 189.1898,-69.0403 178.674,-67.7483 180.1635,-74.5881"/>
</g>
<!-- Node40 -->
<g id="node6" class="node">
<title>Node40</title>
<g id="a_node6"><a xlink:href="classiFileEncoder.html#ae134e439d1cf7a729ead45d624f6bb23" target="_top" xlink:title="iFileEncoder::SetupFileFor\lWriting">
<polygon fill="#ffffff" stroke="#000000" points="163,-.5 163,-30.5 303,-30.5 303,-.5 163,-.5"/>
<text text-anchor="start" x="171" y="-18.5" font-family="Helvetica,sans-Serif" font-size="10.00" fill="#000000">iFileEncoder::SetupFileFor</text>
<text text-anchor="middle" x="233" y="-7.5" font-family="Helvetica,sans-Serif" font-size="10.00" fill="#000000">Writing</text>
</a>
</g>
</g>
<!-- Node35&#45;&gt;Node40 -->
<g id="edge5" class="edge">
<title>Node35&#45;&gt;Node40</title>
<path fill="none" stroke="#191970" d="M80.2081,-82.3408C98.852,-69.8352 126.7914,-52.2927 153,-40.5 158.0591,-38.2236 163.3857,-36.0708 168.7878,-34.0552"/>
<polygon fill="#191970" stroke="#191970" points="170.3054,-37.2301 178.5519,-30.5783 167.9572,-30.6357 170.3054,-37.2301"/>
</g>
</g>
</svg>
