<?xml version="1.0" encoding="UTF-8" standalone="no"?>
<!DOCTYPE svg PUBLIC "-//W3C//DTD SVG 1.1//EN"
 "http://www.w3.org/Graphics/SVG/1.1/DTD/svg11.dtd">
<!-- Generated by graphviz version 2.40.1 (20161225.0304)
 -->
<!-- Title: BrowserItem Pages: 1 -->
<svg width="166pt" height="226pt"
 viewBox="0.00 0.00 166.00 226.00" xmlns="http://www.w3.org/2000/svg" xmlns:xlink="http://www.w3.org/1999/xlink">
<g id="graph0" class="graph" transform="scale(1 1) rotate(0) translate(4 222)">
<title>BrowserItem</title>
<polygon fill="#ffffff" stroke="transparent" points="-4,4 -4,-222 162,-222 162,4 -4,4"/>
<!-- Node6 -->
<g id="node1" class="node">
<title>Node6</title>
<polygon fill="#bfbfbf" stroke="#000000" points="0,-.5 0,-101.5 106,-101.5 106,-.5 0,-.5"/>
<text text-anchor="middle" x="53" y="-89.5" font-family="Helvetica,sans-Serif" font-size="10.00" fill="#000000">BrowserItem</text>
<polyline fill="none" stroke="#000000" points="0,-82.5 106,-82.5 "/>
<text text-anchor="middle" x="53" y="-70.5" font-family="Helvetica,sans-Serif" font-size="10.00" fill="#000000"> </text>
<polyline fill="none" stroke="#000000" points="0,-63.5 106,-63.5 "/>
<text text-anchor="start" x="8" y="-51.5" font-family="Helvetica,sans-Serif" font-size="10.00" fill="#000000">+ BrowserItem()</text>
<text text-anchor="start" x="8" y="-40.5" font-family="Helvetica,sans-Serif" font-size="10.00" fill="#000000">+ ~BrowserItem()</text>
<text text-anchor="start" x="8" y="-29.5" font-family="Helvetica,sans-Serif" font-size="10.00" fill="#000000">+ GetType()</text>
<text text-anchor="start" x="8" y="-18.5" font-family="Helvetica,sans-Serif" font-size="10.00" fill="#000000">+ Compare()</text>
<text text-anchor="start" x="8" y="-7.5" font-family="Helvetica,sans-Serif" font-size="10.00" fill="#000000">+ MatchItem()</text>
</g>
<!-- Node6&#45;&gt;Node6 -->
<g id="edge2" class="edge">
<title>Node6&#45;&gt;Node6</title>
<path fill="none" stroke="#404040" d="M106.2572,-65.3326C116.6323,-63.6682 124,-58.8906 124,-51 124,-46.5615 121.6688,-43.1081 117.7825,-40.6396"/>
<polygon fill="none" stroke="#404040" points="117.6023,-40.5775 110.6263,-42.4042 106.2572,-36.6674 113.2331,-34.8408 117.6023,-40.5775"/>
<text text-anchor="middle" x="141" y="-54" font-family="Helvetica,sans-Serif" font-size="10.00" fill="#000000"> +prev</text>
<text text-anchor="middle" x="141" y="-43" font-family="Helvetica,sans-Serif" font-size="10.00" fill="#000000">+next</text>
</g>
<!-- Node7 -->
<g id="node2" class="node">
<title>Node7</title>
<polygon fill="#ffffff" stroke="#bfbfbf" points="34,-160.5 34,-217.5 72,-217.5 72,-160.5 34,-160.5"/>
<text text-anchor="middle" x="53" y="-205.5" font-family="Helvetica,sans-Serif" font-size="10.00" fill="#000000">char</text>
<polyline fill="none" stroke="#bfbfbf" points="34,-198.5 72,-198.5 "/>
<text text-anchor="middle" x="53" y="-186.5" font-family="Helvetica,sans-Serif" font-size="10.00" fill="#000000"> </text>
<polyline fill="none" stroke="#bfbfbf" points="34,-179.5 72,-179.5 "/>
<text text-anchor="middle" x="53" y="-167.5" font-family="Helvetica,sans-Serif" font-size="10.00" fill="#000000"> </text>
</g>
<!-- Node7&#45;&gt;Node6 -->
<g id="edge1" class="edge">
<title>Node7&#45;&gt;Node6</title>
<path fill="none" stroke="#404040" d="M53,-160.4063C53,-146.8804 53,-130.1561 53,-113.8884"/>
<polygon fill="none" stroke="#404040" points="53.0001,-113.5979 49,-107.5979 53,-101.5979 57,-107.5979 53.0001,-113.5979"/>
<text text-anchor="middle" x="91" y="-134" font-family="Helvetica,sans-Serif" font-size="10.00" fill="#000000"> +name</text>
<text text-anchor="middle" x="91" y="-123" font-family="Helvetica,sans-Serif" font-size="10.00" fill="#000000">+default_name</text>
</g>
</g>
</svg>
