<?xml version="1.0" encoding="UTF-8" standalone="no"?>
<!DOCTYPE svg PUBLIC "-//W3C//DTD SVG 1.1//EN"
 "http://www.w3.org/Graphics/SVG/1.1/DTD/svg11.dtd">
<!-- Generated by graphviz version 2.40.1 (20161225.0304)
 -->
<!-- Title: FloConfig::ConfigureInterfaces Pages: 1 -->
<svg width="769pt" height="154pt"
 viewBox="0.00 0.00 769.00 153.50" xmlns="http://www.w3.org/2000/svg" xmlns:xlink="http://www.w3.org/1999/xlink">
<g id="graph0" class="graph" transform="scale(1 1) rotate(0) translate(4 149.5)">
<title>FloConfig::ConfigureInterfaces</title>
<polygon fill="#ffffff" stroke="transparent" points="-4,4 -4,-149.5 765,-149.5 765,4 -4,4"/>
<!-- Node49 -->
<g id="node1" class="node">
<title>Node49</title>
<polygon fill="#bfbfbf" stroke="#000000" points="0,-69 0,-88 163,-88 163,-69 0,-69"/>
<text text-anchor="middle" x="81.5" y="-76" font-family="Helvetica,sans-Serif" font-size="10.00" fill="#000000">FloConfig::ConfigureInterfaces</text>
</g>
<!-- Node50 -->
<g id="node2" class="node">
<title>Node50</title>
<g id="a_node2"><a xlink:href="classFloConfig.html#a075086c8c0438a9663946af1a89a5cde" target="_top" xlink:title="FloConfig::PrepareLoadConfigFile">
<polygon fill="#ffffff" stroke="#000000" points="199,-116 199,-135 375,-135 375,-116 199,-116"/>
<text text-anchor="middle" x="287" y="-123" font-family="Helvetica,sans-Serif" font-size="10.00" fill="#000000">FloConfig::PrepareLoadConfigFile</text>
</a>
</g>
</g>
<!-- Node49&#45;&gt;Node50 -->
<g id="edge1" class="edge">
<title>Node49&#45;&gt;Node50</title>
<path fill="none" stroke="#191970" d="M123.086,-88.0112C155.4293,-95.4084 200.4853,-105.7132 235.1758,-113.6473"/>
<polygon fill="#191970" stroke="#191970" points="234.595,-117.1047 245.1237,-115.9224 236.1558,-110.2809 234.595,-117.1047"/>
</g>
<!-- Node52 -->
<g id="node4" class="node">
<title>Node52</title>
<g id="a_node4"><a xlink:href="classFloConfig.html#a60461cb1265c667f106326ed8067d521" target="_top" xlink:title="FloConfig::ConfigureRoot">
<polygon fill="#ffffff" stroke="#000000" points="219,-69 219,-88 355,-88 355,-69 219,-69"/>
<text text-anchor="middle" x="287" y="-76" font-family="Helvetica,sans-Serif" font-size="10.00" fill="#000000">FloConfig::ConfigureRoot</text>
</a>
</g>
</g>
<!-- Node49&#45;&gt;Node52 -->
<g id="edge3" class="edge">
<title>Node49&#45;&gt;Node52</title>
<path fill="none" stroke="#191970" d="M163.0142,-71.8798C178.0371,-71.6937 193.6934,-71.7077 208.6213,-71.9217"/>
<polygon fill="#191970" stroke="#191970" points="208.7627,-75.4246 218.8229,-72.1018 208.8863,-68.4257 208.7627,-75.4246"/>
</g>
<!-- Node51 -->
<g id="node3" class="node">
<title>Node51</title>
<g id="a_node3"><a xlink:href="classFloConfig.html#ad00b1211eaa7345ebf870a192a29b23b" target="_top" xlink:title="FloConfig::CopyConfigFile">
<polygon fill="#ffffff" stroke="#000000" points="419.5,-126 419.5,-145 559.5,-145 559.5,-126 419.5,-126"/>
<text text-anchor="middle" x="489.5" y="-133" font-family="Helvetica,sans-Serif" font-size="10.00" fill="#000000">FloConfig::CopyConfigFile</text>
</a>
</g>
</g>
<!-- Node50&#45;&gt;Node51 -->
<g id="edge2" class="edge">
<title>Node50&#45;&gt;Node51</title>
<path fill="none" stroke="#191970" d="M375.2304,-129.8571C386.4913,-130.4132 397.9708,-130.98 409.099,-131.5296"/>
<polygon fill="#191970" stroke="#191970" points="409.0432,-135.031 419.2037,-132.0286 409.3885,-128.0395 409.0432,-135.031"/>
</g>
<!-- Node52&#45;&gt;Node49 -->
<g id="edge8" class="edge">
<title>Node52&#45;&gt;Node49</title>
<path fill="none" stroke="#191970" d="M218.8229,-84.8982C204.1641,-85.2075 188.4425,-85.3128 173.0595,-85.2143"/>
<polygon fill="#191970" stroke="#191970" points="173.0466,-81.7141 163.0142,-85.1202 172.9809,-88.7138 173.0466,-81.7141"/>
</g>
<!-- Node53 -->
<g id="node5" class="node">
<title>Node53</title>
<g id="a_node5"><a xlink:href="classFloConfig.html#a96460020d4ac390b2ab318d49ac42c95" target="_top" xlink:title="FloConfig::ConfigureBasics">
<polygon fill="#ffffff" stroke="#000000" points="416.5,-88 416.5,-107 562.5,-107 562.5,-88 416.5,-88"/>
<text text-anchor="middle" x="489.5" y="-95" font-family="Helvetica,sans-Serif" font-size="10.00" fill="#000000">FloConfig::ConfigureBasics</text>
</a>
</g>
</g>
<!-- Node52&#45;&gt;Node53 -->
<g id="edge4" class="edge">
<title>Node52&#45;&gt;Node53</title>
<path fill="none" stroke="#191970" d="M355.275,-84.906C371.5346,-86.4316 389.0678,-88.0767 405.9263,-89.6585"/>
<polygon fill="#191970" stroke="#191970" points="406.0352,-93.184 416.3185,-90.6336 406.6892,-86.2146 406.0352,-93.184"/>
</g>
<!-- Node55 -->
<g id="node7" class="node">
<title>Node55</title>
<g id="a_node7"><a xlink:href="classFloConfig.html#ac5e0848d86cfc85a1bc8642de0bf35ed" target="_top" xlink:title="FloConfig::ConfigureGraphics">
<polygon fill="#ffffff" stroke="#000000" points="411,-50 411,-69 568,-69 568,-50 411,-50"/>
<text text-anchor="middle" x="489.5" y="-57" font-family="Helvetica,sans-Serif" font-size="10.00" fill="#000000">FloConfig::ConfigureGraphics</text>
</a>
</g>
</g>
<!-- Node52&#45;&gt;Node55 -->
<g id="edge6" class="edge">
<title>Node52&#45;&gt;Node55</title>
<path fill="none" stroke="#191970" d="M355.275,-72.094C369.7351,-70.7372 385.2026,-69.2859 400.307,-67.8687"/>
<polygon fill="#191970" stroke="#191970" points="401.0597,-71.3136 410.689,-66.8946 400.4057,-64.3442 401.0597,-71.3136"/>
</g>
<!-- Node56 -->
<g id="node8" class="node">
<title>Node56</title>
<g id="a_node8"><a xlink:href="classFloConfig.html#a065ae173e7ad5b3d913229b1a581a6bd" target="_top" xlink:title="FloConfig::ConfigureEvent\lBindings">
<polygon fill="#ffffff" stroke="#000000" points="418.5,-.5 418.5,-30.5 560.5,-30.5 560.5,-.5 418.5,-.5"/>
<text text-anchor="start" x="426.5" y="-18.5" font-family="Helvetica,sans-Serif" font-size="10.00" fill="#000000">FloConfig::ConfigureEvent</text>
<text text-anchor="middle" x="489.5" y="-7.5" font-family="Helvetica,sans-Serif" font-size="10.00" fill="#000000">Bindings</text>
</a>
</g>
</g>
<!-- Node52&#45;&gt;Node56 -->
<g id="edge7" class="edge">
<title>Node52&#45;&gt;Node56</title>
<path fill="none" stroke="#191970" d="M317.7554,-68.9317C347.8189,-59.5786 394.3437,-45.1042 431.3905,-33.5785"/>
<polygon fill="#191970" stroke="#191970" points="432.5678,-36.8778 441.0766,-30.565 430.4883,-30.1938 432.5678,-36.8778"/>
</g>
<!-- Node54 -->
<g id="node6" class="node">
<title>Node54</title>
<g id="a_node6"><a xlink:href="classAudioBuffers.html#a3178afd68c48f41060d100606623a704" target="_top" xlink:title="AudioBuffers::GetIntAudioIns">
<polygon fill="#ffffff" stroke="#000000" points="604,-88 604,-107 761,-107 761,-88 604,-88"/>
<text text-anchor="middle" x="682.5" y="-95" font-family="Helvetica,sans-Serif" font-size="10.00" fill="#000000">AudioBuffers::GetIntAudioIns</text>
</a>
</g>
</g>
<!-- Node53&#45;&gt;Node54 -->
<g id="edge5" class="edge">
<title>Node53&#45;&gt;Node54</title>
<path fill="none" stroke="#191970" d="M562.7402,-97.5C572.8174,-97.5 583.2545,-97.5 593.5753,-97.5"/>
<polygon fill="#191970" stroke="#191970" points="593.8397,-101.0001 603.8397,-97.5 593.8397,-94.0001 593.8397,-101.0001"/>
</g>
</g>
</svg>
