<?xml version="1.0" encoding="UTF-8" standalone="no"?>
<!DOCTYPE svg PUBLIC "-//W3C//DTD SVG 1.1//EN"
 "http://www.w3.org/Graphics/SVG/1.1/DTD/svg11.dtd">
<!-- Generated by graphviz version 2.40.1 (20161225.0304)
 -->
<!-- Title: RootProcessor::AdjustInputVolume Pages: 1 -->
<svg width="524pt" height="39pt"
 viewBox="0.00 0.00 524.00 39.00" xmlns="http://www.w3.org/2000/svg" xmlns:xlink="http://www.w3.org/1999/xlink">
<g id="graph0" class="graph" transform="scale(1 1) rotate(0) translate(4 35)">
<title>RootProcessor::AdjustInputVolume</title>
<polygon fill="#ffffff" stroke="transparent" points="-4,4 -4,-35 520,-35 520,4 -4,4"/>
<!-- Node28 -->
<g id="node1" class="node">
<title>Node28</title>
<polygon fill="#bfbfbf" stroke="#000000" points="0,-.5 0,-30.5 147,-30.5 147,-.5 0,-.5"/>
<text text-anchor="start" x="8" y="-18.5" font-family="Helvetica,sans-Serif" font-size="10.00" fill="#000000">RootProcessor::AdjustInput</text>
<text text-anchor="middle" x="73.5" y="-7.5" font-family="Helvetica,sans-Serif" font-size="10.00" fill="#000000">Volume</text>
</g>
<!-- Node29 -->
<g id="node2" class="node">
<title>Node29</title>
<g id="a_node2"><a xlink:href="classLoopManager.html#a3a31dbd91e9ad302fc64ea941f0a0165" target="_top" xlink:title="LoopManager::AdjustInput\lVolume">
<polygon fill="#ffffff" stroke="#000000" points="183,-.5 183,-30.5 326,-30.5 326,-.5 183,-.5"/>
<text text-anchor="start" x="191" y="-18.5" font-family="Helvetica,sans-Serif" font-size="10.00" fill="#000000">LoopManager::AdjustInput</text>
<text text-anchor="middle" x="254.5" y="-7.5" font-family="Helvetica,sans-Serif" font-size="10.00" fill="#000000">Volume</text>
</a>
</g>
</g>
<!-- Node28&#45;&gt;Node29 -->
<g id="edge1" class="edge">
<title>Node28&#45;&gt;Node29</title>
<path fill="none" stroke="#191970" d="M157.1878,-15.5C165.8129,-15.5 174.5211,-15.5 182.9965,-15.5"/>
<polygon fill="#191970" stroke="#191970" points="157.1197,-12.0001 147.1196,-15.5 157.1196,-19.0001 157.1197,-12.0001"/>
</g>
<!-- Node30 -->
<g id="node3" class="node">
<title>Node30</title>
<g id="a_node3"><a xlink:href="classLoopManager.html#a4aada2d07b7ce0a67a8119ece4805966" target="_top" xlink:title="LoopManager::ReceiveEvent">
<polygon fill="#ffffff" stroke="#000000" points="362,-6 362,-25 516,-25 516,-6 362,-6"/>
<text text-anchor="middle" x="439" y="-13" font-family="Helvetica,sans-Serif" font-size="10.00" fill="#000000">LoopManager::ReceiveEvent</text>
</a>
</g>
</g>
<!-- Node29&#45;&gt;Node30 -->
<g id="edge2" class="edge">
<title>Node29&#45;&gt;Node30</title>
<path fill="none" stroke="#191970" d="M336.1042,-15.5C344.6936,-15.5 353.4077,-15.5 361.9433,-15.5"/>
<polygon fill="#191970" stroke="#191970" points="336.0966,-12.0001 326.0966,-15.5 336.0966,-19.0001 336.0966,-12.0001"/>
</g>
</g>
</svg>
