<?xml version="1.0" encoding="UTF-8" standalone="no"?>
<!DOCTYPE svg PUBLIC "-//W3C//DTD SVG 1.1//EN"
 "http://www.w3.org/Graphics/SVG/1.1/DTD/svg11.dtd">
<!-- Generated by graphviz version 2.40.1 (20161225.0304)
 -->
<!-- Title: Pulse::process Pages: 1 -->
<svg width="512pt" height="712pt"
 viewBox="0.00 0.00 512.00 712.00" xmlns="http://www.w3.org/2000/svg" xmlns:xlink="http://www.w3.org/1999/xlink">
<g id="graph0" class="graph" transform="scale(1 1) rotate(0) translate(4 708)">
<title>Pulse::process</title>
<polygon fill="#ffffff" stroke="transparent" points="-4,4 -4,-708 508,-708 508,4 -4,4"/>
<!-- Node81 -->
<g id="node1" class="node">
<title>Node81</title>
<polygon fill="#bfbfbf" stroke="#000000" points="0,-342.5 0,-361.5 86,-361.5 86,-342.5 0,-342.5"/>
<text text-anchor="middle" x="43" y="-349.5" font-family="Helvetica,sans-Serif" font-size="10.00" fill="#000000">Pulse::process</text>
</g>
<!-- Node82 -->
<g id="node2" class="node">
<title>Node82</title>
<g id="a_node2"><a xlink:href="classFweelin.html#acb51892233f08f4b0b9f2e7d7a625448" target="_top" xlink:title="Fweelin::getAUDIO">
<polygon fill="#ffffff" stroke="#000000" points="163.5,-684.5 163.5,-703.5 271.5,-703.5 271.5,-684.5 163.5,-684.5"/>
<text text-anchor="middle" x="217.5" y="-691.5" font-family="Helvetica,sans-Serif" font-size="10.00" fill="#000000">Fweelin::getAUDIO</text>
</a>
</g>
</g>
<!-- Node81&#45;&gt;Node82 -->
<g id="edge1" class="edge">
<title>Node81&#45;&gt;Node82</title>
<path fill="none" stroke="#191970" d="M43.9896,-361.7513C49.1619,-410.7684 74.6721,-629.6867 122,-675 130.6809,-683.3114 141.9055,-688.4719 153.5915,-691.5904"/>
<polygon fill="#191970" stroke="#191970" points="152.9532,-695.0335 163.4705,-693.7541 154.4509,-688.1956 152.9532,-695.0335"/>
</g>
<!-- Node83 -->
<g id="node3" class="node">
<title>Node83</title>
<g id="a_node3"><a xlink:href="classAudioIO.html#a9504a97713d7196e73234ddb38b88e1e" target="_top" xlink:title="AudioIO::IsTransportRolling">
<polygon fill="#ffffff" stroke="#000000" points="144,-646.5 144,-665.5 291,-665.5 291,-646.5 144,-646.5"/>
<text text-anchor="middle" x="217.5" y="-653.5" font-family="Helvetica,sans-Serif" font-size="10.00" fill="#000000">AudioIO::IsTransportRolling</text>
</a>
</g>
</g>
<!-- Node81&#45;&gt;Node83 -->
<g id="edge2" class="edge">
<title>Node81&#45;&gt;Node83</title>
<path fill="none" stroke="#191970" d="M44.3327,-361.7962C50.7231,-407.325 79.6721,-597.6946 122,-637 125.6776,-640.415 129.7865,-643.2934 134.1773,-645.7138"/>
<polygon fill="#191970" stroke="#191970" points="132.9943,-649.0235 143.5379,-650.064 135.9444,-642.6755 132.9943,-649.0235"/>
</g>
<!-- Node84 -->
<g id="node4" class="node">
<title>Node84</title>
<g id="a_node4"><a xlink:href="classAudioIO.html#a9adeba1df5a78a18e0052cefa964b8c5" target="_top" xlink:title="AudioIO::IsTimebaseMaster">
<polygon fill="#ffffff" stroke="#000000" points="142.5,-608.5 142.5,-627.5 292.5,-627.5 292.5,-608.5 142.5,-608.5"/>
<text text-anchor="middle" x="217.5" y="-615.5" font-family="Helvetica,sans-Serif" font-size="10.00" fill="#000000">AudioIO::IsTimebaseMaster</text>
</a>
</g>
</g>
<!-- Node81&#45;&gt;Node84 -->
<g id="edge3" class="edge">
<title>Node81&#45;&gt;Node84</title>
<path fill="none" stroke="#191970" d="M44.733,-361.5883C52.4002,-402.9561 84.553,-565.5679 122,-599 125.4265,-602.0591 129.2015,-604.6829 133.2124,-606.9293"/>
<polygon fill="#191970" stroke="#191970" points="131.7925,-610.1296 142.3261,-611.2666 134.8006,-603.8089 131.7925,-610.1296"/>
</g>
<!-- Node85 -->
<g id="node5" class="node">
<title>Node85</title>
<g id="a_node5"><a xlink:href="classFweelin.html#acd22ca1ad294b86d1d180de907418d27" target="_top" xlink:title="Fweelin::GetSyncType">
<polygon fill="#ffffff" stroke="#000000" points="156,-570.5 156,-589.5 279,-589.5 279,-570.5 156,-570.5"/>
<text text-anchor="middle" x="217.5" y="-577.5" font-family="Helvetica,sans-Serif" font-size="10.00" fill="#000000">Fweelin::GetSyncType</text>
</a>
</g>
</g>
<!-- Node81&#45;&gt;Node85 -->
<g id="edge4" class="edge">
<title>Node81&#45;&gt;Node85</title>
<path fill="none" stroke="#191970" d="M43.5012,-361.7461C45.7815,-395.2841 58.0727,-506.8374 122,-561 129.0092,-566.9386 137.3461,-571.2121 146.1311,-574.2598"/>
<polygon fill="#191970" stroke="#191970" points="145.2166,-577.639 155.7981,-577.1066 147.1941,-570.9241 145.2166,-577.639"/>
</g>
<!-- Node86 -->
<g id="node6" class="node">
<title>Node86</title>
<g id="a_node6"><a xlink:href="classFweelin.html#af5750c2388bfe7d280182c3a8c3cab13" target="_top" xlink:title="Fweelin::GetSyncSpeed">
<polygon fill="#ffffff" stroke="#000000" points="152,-532.5 152,-551.5 283,-551.5 283,-532.5 152,-532.5"/>
<text text-anchor="middle" x="217.5" y="-539.5" font-family="Helvetica,sans-Serif" font-size="10.00" fill="#000000">Fweelin::GetSyncSpeed</text>
</a>
</g>
</g>
<!-- Node81&#45;&gt;Node86 -->
<g id="edge5" class="edge">
<title>Node81&#45;&gt;Node86</title>
<path fill="none" stroke="#191970" d="M44.3724,-361.6161C49.1012,-390.9827 67.5379,-480.0996 122,-523 127.9344,-527.6746 134.7069,-531.2961 141.8442,-534.0898"/>
<polygon fill="#191970" stroke="#191970" points="141.1647,-537.5531 151.7585,-537.4074 143.3861,-530.9149 141.1647,-537.5531"/>
</g>
<!-- Node87 -->
<g id="node7" class="node">
<title>Node87</title>
<g id="a_node7"><a xlink:href="classAudioIO.html#a2935e9f84bda188dbc46c6a66309769c" target="_top" xlink:title="AudioIO::GetTransport_BPM">
<polygon fill="#ffffff" stroke="#000000" points="143,-494.5 143,-513.5 292,-513.5 292,-494.5 143,-494.5"/>
<text text-anchor="middle" x="217.5" y="-501.5" font-family="Helvetica,sans-Serif" font-size="10.00" fill="#000000">AudioIO::GetTransport_BPM</text>
</a>
</g>
</g>
<!-- Node81&#45;&gt;Node87 -->
<g id="edge6" class="edge">
<title>Node81&#45;&gt;Node87</title>
<path fill="none" stroke="#191970" d="M45.6945,-361.5828C53.2019,-386.4003 76.8317,-453.0531 122,-485 125.6703,-487.596 129.6087,-489.8577 133.7198,-491.8265"/>
<polygon fill="#191970" stroke="#191970" points="132.3822,-495.0608 142.9587,-495.6848 135.0798,-488.6014 132.3822,-495.0608"/>
</g>
<!-- Node88 -->
<g id="node8" class="node">
<title>Node88</title>
<g id="a_node8"><a xlink:href="classAudioIO.html#aaee52b2ff10fa3bf532898c34c279b4e" target="_top" xlink:title="AudioIO::GetTransport_BPB">
<polygon fill="#ffffff" stroke="#000000" points="143.5,-456.5 143.5,-475.5 291.5,-475.5 291.5,-456.5 143.5,-456.5"/>
<text text-anchor="middle" x="217.5" y="-463.5" font-family="Helvetica,sans-Serif" font-size="10.00" fill="#000000">AudioIO::GetTransport_BPB</text>
</a>
</g>
</g>
<!-- Node81&#45;&gt;Node88 -->
<g id="edge7" class="edge">
<title>Node81&#45;&gt;Node88</title>
<path fill="none" stroke="#191970" d="M48.0304,-361.6665C58.7552,-381.2354 85.8689,-425.5017 122,-447 125.6773,-449.188 129.5611,-451.1291 133.5746,-452.8507"/>
<polygon fill="#191970" stroke="#191970" points="132.5473,-456.2045 143.1385,-456.4824 135.0323,-449.6604 132.5473,-456.2045"/>
</g>
<!-- Node89 -->
<g id="node9" class="node">
<title>Node89</title>
<g id="a_node9"><a xlink:href="classAudioIO.html#ab175bb73ae9aadb84940dace46c71fd8" target="_top" xlink:title="AudioIO::get_srate">
<polygon fill="#ffffff" stroke="#000000" points="164,-418.5 164,-437.5 271,-437.5 271,-418.5 164,-418.5"/>
<text text-anchor="middle" x="217.5" y="-425.5" font-family="Helvetica,sans-Serif" font-size="10.00" fill="#000000">AudioIO::get_srate</text>
</a>
</g>
</g>
<!-- Node81&#45;&gt;Node89 -->
<g id="edge8" class="edge">
<title>Node81&#45;&gt;Node89</title>
<path fill="none" stroke="#191970" d="M53.3274,-361.7385C67.6034,-374.6309 94.7092,-397.1157 122,-409 131.9678,-413.3407 142.9545,-416.6995 153.8192,-419.296"/>
<polygon fill="#191970" stroke="#191970" points="153.2118,-422.7459 163.7298,-421.4724 154.7133,-415.9088 153.2118,-422.7459"/>
</g>
<!-- Node90 -->
<g id="node10" class="node">
<title>Node90</title>
<g id="a_node10"><a xlink:href="classAudioIO.html#aaea83a348af3c117891f503b29fef2b4" target="_top" xlink:title="AudioIO::GetTransport_Beat">
<polygon fill="#ffffff" stroke="#000000" points="142,-380.5 142,-399.5 293,-399.5 293,-380.5 142,-380.5"/>
<text text-anchor="middle" x="217.5" y="-387.5" font-family="Helvetica,sans-Serif" font-size="10.00" fill="#000000">AudioIO::GetTransport_Beat</text>
</a>
</g>
</g>
<!-- Node81&#45;&gt;Node90 -->
<g id="edge9" class="edge">
<title>Node81&#45;&gt;Node90</title>
<path fill="none" stroke="#191970" d="M81.5037,-361.5838C94.3571,-364.6967 108.7732,-368.0949 122,-371 133.3657,-373.4963 145.5239,-376.0239 157.2268,-378.3855"/>
<polygon fill="#191970" stroke="#191970" points="156.8702,-381.8834 167.3626,-380.4131 158.2434,-375.0194 156.8702,-381.8834"/>
</g>
<!-- Node91 -->
<g id="node11" class="node">
<title>Node91</title>
<g id="a_node11"><a xlink:href="classAudioIO.html#a9a7728f785ca7acc2e47105f696f25c4" target="_top" xlink:title="AudioIO::GetTransport_Bar">
<polygon fill="#ffffff" stroke="#000000" points="145,-342.5 145,-361.5 290,-361.5 290,-342.5 145,-342.5"/>
<text text-anchor="middle" x="217.5" y="-349.5" font-family="Helvetica,sans-Serif" font-size="10.00" fill="#000000">AudioIO::GetTransport_Bar</text>
</a>
</g>
</g>
<!-- Node81&#45;&gt;Node91 -->
<g id="edge10" class="edge">
<title>Node81&#45;&gt;Node91</title>
<path fill="none" stroke="#191970" d="M86.1348,-352C100.8449,-352 117.8253,-352 134.5914,-352"/>
<polygon fill="#191970" stroke="#191970" points="134.9808,-355.5001 144.9807,-352 134.9807,-348.5001 134.9808,-355.5001"/>
</g>
<!-- Node92 -->
<g id="node12" class="node">
<title>Node92</title>
<g id="a_node12"><a xlink:href="classPulse.html#a7fe0049b23a1e2ac3ef33d326bcefe24" target="_top" xlink:title="Pulse::Wrap">
<polygon fill="#ffffff" stroke="#000000" points="180.5,-304.5 180.5,-323.5 254.5,-323.5 254.5,-304.5 180.5,-304.5"/>
<text text-anchor="middle" x="217.5" y="-311.5" font-family="Helvetica,sans-Serif" font-size="10.00" fill="#000000">Pulse::Wrap</text>
</a>
</g>
</g>
<!-- Node81&#45;&gt;Node92 -->
<g id="edge11" class="edge">
<title>Node81&#45;&gt;Node92</title>
<path fill="none" stroke="#191970" d="M81.5037,-342.4162C94.3571,-339.3033 108.7732,-335.9051 122,-333 137.7115,-329.5491 154.9376,-326.0386 170.3815,-322.9895"/>
<polygon fill="#191970" stroke="#191970" points="171.099,-326.4155 180.2393,-321.0577 169.7528,-319.5462 171.099,-326.4155"/>
</g>
<!-- Node93 -->
<g id="node13" class="node">
<title>Node93</title>
<g id="a_node13"><a xlink:href="classFweelin.html#a538440216608aed67e6940c2903c3072" target="_top" xlink:title="Fweelin::getBUFSZ">
<polygon fill="#ffffff" stroke="#000000" points="163.5,-266.5 163.5,-285.5 271.5,-285.5 271.5,-266.5 163.5,-266.5"/>
<text text-anchor="middle" x="217.5" y="-273.5" font-family="Helvetica,sans-Serif" font-size="10.00" fill="#000000">Fweelin::getBUFSZ</text>
</a>
</g>
</g>
<!-- Node81&#45;&gt;Node93 -->
<g id="edge12" class="edge">
<title>Node81&#45;&gt;Node93</title>
<path fill="none" stroke="#191970" d="M53.3274,-342.2615C67.6034,-329.3691 94.7092,-306.8843 122,-295 131.8491,-290.711 142.6931,-287.3806 153.4311,-284.7971"/>
<polygon fill="#191970" stroke="#191970" points="154.2236,-288.2065 163.2312,-282.6285 152.7111,-281.3718 154.2236,-288.2065"/>
</g>
<!-- Node94 -->
<g id="node14" class="node">
<title>Node94</title>
<g id="a_node14"><a xlink:href="classFweelin.html#aee46aec225c2ee5c88854dc9943e7d62" target="_top" xlink:title="Fweelin::getMIDI">
<polygon fill="#ffffff" stroke="#000000" points="168.5,-228.5 168.5,-247.5 266.5,-247.5 266.5,-228.5 168.5,-228.5"/>
<text text-anchor="middle" x="217.5" y="-235.5" font-family="Helvetica,sans-Serif" font-size="10.00" fill="#000000">Fweelin::getMIDI</text>
</a>
</g>
</g>
<!-- Node81&#45;&gt;Node94 -->
<g id="edge13" class="edge">
<title>Node81&#45;&gt;Node94</title>
<path fill="none" stroke="#191970" d="M48.0304,-342.3335C58.7552,-322.7646 85.8689,-278.4983 122,-257 132.8901,-250.5203 145.5908,-246.2063 158.1082,-243.3451"/>
<polygon fill="#191970" stroke="#191970" points="158.9524,-246.7456 168.0695,-241.3485 157.5766,-239.8822 158.9524,-246.7456"/>
</g>
<!-- Node95 -->
<g id="node15" class="node">
<title>Node95</title>
<g id="a_node15"><a xlink:href="classMidiIO.html#ab468c4eab816c7f75f28f9113c3072e4" target="_top" xlink:title="MidiIO::GetMIDISyncTransmit">
<polygon fill="#ffffff" stroke="#000000" points="138.5,-190.5 138.5,-209.5 296.5,-209.5 296.5,-190.5 138.5,-190.5"/>
<text text-anchor="middle" x="217.5" y="-197.5" font-family="Helvetica,sans-Serif" font-size="10.00" fill="#000000">MidiIO::GetMIDISyncTransmit</text>
</a>
</g>
</g>
<!-- Node81&#45;&gt;Node95 -->
<g id="edge14" class="edge">
<title>Node81&#45;&gt;Node95</title>
<path fill="none" stroke="#191970" d="M45.6945,-342.4172C53.2019,-317.5997 76.8317,-250.9469 122,-219 124.6913,-217.0965 127.5267,-215.3727 130.4686,-213.8123"/>
<polygon fill="#191970" stroke="#191970" points="131.966,-216.9761 139.5765,-209.6051 129.0305,-210.6213 131.966,-216.9761"/>
</g>
<!-- Node96 -->
<g id="node16" class="node">
<title>Node96</title>
<g id="a_node16"><a xlink:href="classEvent.html#aa67af0ae99b897e4f0ce42068c4e4c00" target="_top" xlink:title="Event::GetEventByType">
<polygon fill="#ffffff" stroke="#000000" points="152,-152.5 152,-171.5 283,-171.5 283,-152.5 152,-152.5"/>
<text text-anchor="middle" x="217.5" y="-159.5" font-family="Helvetica,sans-Serif" font-size="10.00" fill="#000000">Event::GetEventByType</text>
</a>
</g>
</g>
<!-- Node81&#45;&gt;Node96 -->
<g id="edge15" class="edge">
<title>Node81&#45;&gt;Node96</title>
<path fill="none" stroke="#191970" d="M44.3724,-342.3839C49.1012,-313.0173 67.5379,-223.9004 122,-181 127.9344,-176.3254 134.7069,-172.7039 141.8442,-169.9102"/>
<polygon fill="#191970" stroke="#191970" points="143.3861,-173.0851 151.7585,-166.5926 141.1647,-166.4469 143.3861,-173.0851"/>
</g>
<!-- Node97 -->
<g id="node17" class="node">
<title>Node97</title>
<g id="a_node17"><a xlink:href="classFweelin.html#a21e51d7b639faaecc415624ab6c16a71" target="_top" xlink:title="Fweelin::getEMG">
<polygon fill="#ffffff" stroke="#000000" points="168.5,-114.5 168.5,-133.5 266.5,-133.5 266.5,-114.5 168.5,-114.5"/>
<text text-anchor="middle" x="217.5" y="-121.5" font-family="Helvetica,sans-Serif" font-size="10.00" fill="#000000">Fweelin::getEMG</text>
</a>
</g>
</g>
<!-- Node81&#45;&gt;Node97 -->
<g id="edge16" class="edge">
<title>Node81&#45;&gt;Node97</title>
<path fill="none" stroke="#191970" d="M43.5012,-342.2539C45.7815,-308.7159 58.0727,-197.1626 122,-143 132.1752,-134.379 145.1484,-129.267 158.2288,-126.3201"/>
<polygon fill="#191970" stroke="#191970" points="159.0153,-129.7339 168.2078,-124.4663 157.7368,-122.8517 159.0153,-129.7339"/>
</g>
<!-- Node98 -->
<g id="node18" class="node">
<title>Node98</title>
<g id="a_node18"><a xlink:href="classEventManager.html#a4a73f2e7ff1724f28427f7c0d5725c8e" target="_top" xlink:title="EventManager::BroadcastEventNow">
<polygon fill="#ffffff" stroke="#000000" points="122,-76.5 122,-95.5 313,-95.5 313,-76.5 122,-76.5"/>
<text text-anchor="middle" x="217.5" y="-83.5" font-family="Helvetica,sans-Serif" font-size="10.00" fill="#000000">EventManager::BroadcastEventNow</text>
</a>
</g>
</g>
<!-- Node81&#45;&gt;Node98 -->
<g id="edge17" class="edge">
<title>Node81&#45;&gt;Node98</title>
<path fill="none" stroke="#191970" d="M44.733,-342.4117C52.4002,-301.0439 84.553,-138.4321 122,-105 123.5605,-103.6068 125.1934,-102.3039 126.8878,-101.0858"/>
<polygon fill="#191970" stroke="#191970" points="129.0819,-103.849 135.8247,-95.6768 125.4574,-97.8604 129.0819,-103.849"/>
</g>
<!-- Node102 -->
<g id="node22" class="node">
<title>Node102</title>
<g id="a_node22"><a xlink:href="classFweelin.html#a600688955c7470a1b7a2fa95ddcc4118" target="_top" xlink:title="Fweelin::getBMG">
<polygon fill="#ffffff" stroke="#000000" points="168.5,-38.5 168.5,-57.5 266.5,-57.5 266.5,-38.5 168.5,-38.5"/>
<text text-anchor="middle" x="217.5" y="-45.5" font-family="Helvetica,sans-Serif" font-size="10.00" fill="#000000">Fweelin::getBMG</text>
</a>
</g>
</g>
<!-- Node81&#45;&gt;Node102 -->
<g id="edge21" class="edge">
<title>Node81&#45;&gt;Node102</title>
<path fill="none" stroke="#191970" d="M44.3327,-342.2038C50.7231,-296.675 79.6721,-106.3054 122,-67 131.8714,-57.8335 144.8507,-52.5327 158.0466,-49.5791"/>
<polygon fill="#191970" stroke="#191970" points="158.9156,-52.9788 168.1319,-47.7529 157.6683,-46.0908 158.9156,-52.9788"/>
</g>
<!-- Node103 -->
<g id="node23" class="node">
<title>Node103</title>
<g id="a_node23"><a xlink:href="classBlockManager.html#a845ba7e7c39fae3959ee2f7076b756c5" target="_top" xlink:title="BlockManager::HiPriTrigger">
<polygon fill="#ffffff" stroke="#000000" points="143.5,-.5 143.5,-19.5 291.5,-19.5 291.5,-.5 143.5,-.5"/>
<text text-anchor="middle" x="217.5" y="-7.5" font-family="Helvetica,sans-Serif" font-size="10.00" fill="#000000">BlockManager::HiPriTrigger</text>
</a>
</g>
</g>
<!-- Node81&#45;&gt;Node103 -->
<g id="edge22" class="edge">
<title>Node81&#45;&gt;Node103</title>
<path fill="none" stroke="#191970" d="M43.9896,-342.2487C49.1619,-293.2316 74.6721,-74.3133 122,-29 125.625,-25.5293 129.6936,-22.608 134.0541,-20.1555"/>
<polygon fill="#191970" stroke="#191970" points="135.821,-23.1917 143.366,-15.7537 132.8294,-16.8631 135.821,-23.1917"/>
</g>
<!-- Node99 -->
<g id="node19" class="node">
<title>Node99</title>
<g id="a_node19"><a xlink:href="classEvent.html#ac4c4170579544b41dff38ca1b8110e30" target="_top" xlink:title="Event::GetType">
<polygon fill="#ffffff" stroke="#000000" points="381.5,-114.5 381.5,-133.5 471.5,-133.5 471.5,-114.5 381.5,-114.5"/>
<text text-anchor="middle" x="426.5" y="-121.5" font-family="Helvetica,sans-Serif" font-size="10.00" fill="#000000">Event::GetType</text>
</a>
</g>
</g>
<!-- Node98&#45;&gt;Node99 -->
<g id="edge18" class="edge">
<title>Node98&#45;&gt;Node99</title>
<path fill="none" stroke="#191970" d="M269.9698,-95.54C300.9568,-101.174 340.1385,-108.2979 371.5488,-114.0089"/>
<polygon fill="#191970" stroke="#191970" points="370.9888,-117.4644 381.4536,-115.8097 372.241,-110.5773 370.9888,-117.4644"/>
</g>
<!-- Node100 -->
<g id="node20" class="node">
<title>Node100</title>
<g id="a_node20"><a xlink:href="classEventListener.html#a831820a9229e852bd7e2fad686b725b2" target="_top" xlink:title="EventListener::ReceiveEvent">
<polygon fill="#ffffff" stroke="#000000" points="349,-76.5 349,-95.5 504,-95.5 504,-76.5 349,-76.5"/>
<text text-anchor="middle" x="426.5" y="-83.5" font-family="Helvetica,sans-Serif" font-size="10.00" fill="#000000">EventListener::ReceiveEvent</text>
</a>
</g>
</g>
<!-- Node98&#45;&gt;Node100 -->
<g id="edge19" class="edge">
<title>Node98&#45;&gt;Node100</title>
<path fill="none" stroke="#191970" d="M313.1311,-86C321.6132,-86 330.1737,-86 338.5871,-86"/>
<polygon fill="#191970" stroke="#191970" points="338.7614,-89.5001 348.7614,-86 338.7614,-82.5001 338.7614,-89.5001"/>
</g>
<!-- Node101 -->
<g id="node21" class="node">
<title>Node101</title>
<g id="a_node21"><a xlink:href="classPreallocated.html#aaf2139a79ca16de70acd9bc4564171b7" target="_top" xlink:title="Preallocated::RTDelete">
<polygon fill="#ffffff" stroke="#000000" points="362.5,-38.5 362.5,-57.5 490.5,-57.5 490.5,-38.5 362.5,-38.5"/>
<text text-anchor="middle" x="426.5" y="-45.5" font-family="Helvetica,sans-Serif" font-size="10.00" fill="#000000">Preallocated::RTDelete</text>
</a>
</g>
</g>
<!-- Node98&#45;&gt;Node101 -->
<g id="edge20" class="edge">
<title>Node98&#45;&gt;Node101</title>
<path fill="none" stroke="#191970" d="M269.9698,-76.46C298.5413,-71.2652 334.0796,-64.8037 364.0691,-59.3511"/>
<polygon fill="#191970" stroke="#191970" points="364.7961,-62.7764 374.0087,-57.5439 363.5438,-55.8893 364.7961,-62.7764"/>
</g>
<!-- Node104 -->
<g id="node24" class="node">
<title>Node104</title>
<g id="a_node24"><a xlink:href="classManagedChain.html#a24205aa4547a5a79484244a941760662" target="_top" xlink:title="ManagedChain::Manage">
<polygon fill="#ffffff" stroke="#000000" points="360,-.5 360,-19.5 493,-19.5 493,-.5 360,-.5"/>
<text text-anchor="middle" x="426.5" y="-7.5" font-family="Helvetica,sans-Serif" font-size="10.00" fill="#000000">ManagedChain::Manage</text>
</a>
</g>
</g>
<!-- Node103&#45;&gt;Node104 -->
<g id="edge23" class="edge">
<title>Node103&#45;&gt;Node104</title>
<path fill="none" stroke="#191970" d="M291.7741,-10C310.571,-10 330.7956,-10 349.714,-10"/>
<polygon fill="#191970" stroke="#191970" points="349.7718,-13.5001 359.7717,-10 349.7717,-6.5001 349.7718,-13.5001"/>
</g>
</g>
</svg>
