<?xml version="1.0" encoding="UTF-8" standalone="no"?>
<!DOCTYPE svg PUBLIC "-//W3C//DTD SVG 1.1//EN"
 "http://www.w3.org/Graphics/SVG/1.1/DTD/svg11.dtd">
<!-- Generated by graphviz version 2.40.1 (20161225.0304)
 -->
<!-- Title: CfgToken::Print Pages: 1 -->
<svg width="666pt" height="116pt"
 viewBox="0.00 0.00 666.00 115.50" xmlns="http://www.w3.org/2000/svg" xmlns:xlink="http://www.w3.org/1999/xlink">
<g id="graph0" class="graph" transform="scale(1 1) rotate(0) translate(4 111.5)">
<title>CfgToken::Print</title>
<polygon fill="#ffffff" stroke="transparent" points="-4,4 -4,-111.5 662,-111.5 662,4 -4,4"/>
<!-- Node24 -->
<g id="node1" class="node">
<title>Node24</title>
<polygon fill="#bfbfbf" stroke="#000000" points="0,-28 0,-47 90,-47 90,-28 0,-28"/>
<text text-anchor="middle" x="45" y="-35" font-family="Helvetica,sans-Serif" font-size="10.00" fill="#000000">CfgToken::Print</text>
</g>
<!-- Node25 -->
<g id="node2" class="node">
<title>Node25</title>
<g id="a_node2"><a xlink:href="classParsedExpression.html#a0d3a48a6f1743c631cc6892a2f37d545" target="_top" xlink:title="ParsedExpression::Print">
<polygon fill="#ffffff" stroke="#000000" points="126,-50 126,-69 257,-69 257,-50 126,-50"/>
<text text-anchor="middle" x="191.5" y="-57" font-family="Helvetica,sans-Serif" font-size="10.00" fill="#000000">ParsedExpression::Print</text>
</a>
</g>
</g>
<!-- Node24&#45;&gt;Node25 -->
<g id="edge1" class="edge">
<title>Node24&#45;&gt;Node25</title>
<path fill="none" stroke="#191970" d="M100.2466,-45.7964C109.3675,-47.1661 118.8854,-48.5954 128.1856,-49.992"/>
<polygon fill="#191970" stroke="#191970" points="100.5591,-42.3042 90.1502,-44.2802 99.5195,-49.2266 100.5591,-42.3042"/>
</g>
<!-- Node30 -->
<g id="node7" class="node">
<title>Node30</title>
<g id="a_node7"><a xlink:href="classParsedExpression.html#ad5786c9f763dee1580050648f130a6c0" target="_top" xlink:title="ParsedExpression::\l~ParsedExpression">
<polygon fill="#ffffff" stroke="#000000" points="136.5,-.5 136.5,-30.5 246.5,-30.5 246.5,-.5 136.5,-.5"/>
<text text-anchor="start" x="144.5" y="-18.5" font-family="Helvetica,sans-Serif" font-size="10.00" fill="#000000">ParsedExpression::</text>
<text text-anchor="middle" x="191.5" y="-7.5" font-family="Helvetica,sans-Serif" font-size="10.00" fill="#000000">~ParsedExpression</text>
</a>
</g>
</g>
<!-- Node24&#45;&gt;Node30 -->
<g id="edge7" class="edge">
<title>Node24&#45;&gt;Node30</title>
<path fill="none" stroke="#191970" d="M100.3309,-29.1909C112.1483,-27.4163 124.6286,-25.5421 136.4359,-23.769"/>
<polygon fill="#191970" stroke="#191970" points="99.5195,-25.7734 90.1502,-30.7198 100.5591,-32.6958 99.5195,-25.7734"/>
</g>
<!-- Node26 -->
<g id="node3" class="node">
<title>Node26</title>
<g id="a_node3"><a xlink:href="classInputMatrix.html#ab36ad421b65b64d6e64f228b84792b4c" target="_top" xlink:title="InputMatrix::CreateParameterSets">
<polygon fill="#ffffff" stroke="#000000" points="293,-88 293,-107 475,-107 475,-88 293,-88"/>
<text text-anchor="middle" x="384" y="-95" font-family="Helvetica,sans-Serif" font-size="10.00" fill="#000000">InputMatrix::CreateParameterSets</text>
</a>
</g>
</g>
<!-- Node25&#45;&gt;Node26 -->
<g id="edge2" class="edge">
<title>Node25&#45;&gt;Node26</title>
<path fill="none" stroke="#191970" d="M249.9498,-71.0381C277.4057,-76.458 309.7405,-82.841 335.7734,-87.9799"/>
<polygon fill="#191970" stroke="#191970" points="250.5644,-67.592 240.0759,-69.089 249.2087,-74.4595 250.5644,-67.592"/>
</g>
<!-- Node28 -->
<g id="node5" class="node">
<title>Node28</title>
<g id="a_node5"><a xlink:href="classInputMatrix.html#a767b7c5cd149e18a51105922aa9e8abb" target="_top" xlink:title="InputMatrix::CreateConditions">
<polygon fill="#ffffff" stroke="#000000" points="303,-50 303,-69 465,-69 465,-50 303,-50"/>
<text text-anchor="middle" x="384" y="-57" font-family="Helvetica,sans-Serif" font-size="10.00" fill="#000000">InputMatrix::CreateConditions</text>
</a>
</g>
</g>
<!-- Node25&#45;&gt;Node28 -->
<g id="edge4" class="edge">
<title>Node25&#45;&gt;Node28</title>
<path fill="none" stroke="#191970" d="M267.3482,-59.5C279.0297,-59.5 291.1315,-59.5 302.9217,-59.5"/>
<polygon fill="#191970" stroke="#191970" points="267.2092,-56.0001 257.2092,-59.5 267.2091,-63.0001 267.2092,-56.0001"/>
</g>
<!-- Node29 -->
<g id="node6" class="node">
<title>Node29</title>
<g id="a_node6"><a xlink:href="classFloConfig.html#a84e84f401372ccc9c70b7a96765b96b9" target="_top" xlink:title="FloConfig::ConfigureDisplay\l_Common">
<polygon fill="#ffffff" stroke="#000000" points="308.5,-.5 308.5,-30.5 459.5,-30.5 459.5,-.5 308.5,-.5"/>
<text text-anchor="start" x="316.5" y="-18.5" font-family="Helvetica,sans-Serif" font-size="10.00" fill="#000000">FloConfig::ConfigureDisplay</text>
<text text-anchor="middle" x="384" y="-7.5" font-family="Helvetica,sans-Serif" font-size="10.00" fill="#000000">_Common</text>
</a>
</g>
</g>
<!-- Node25&#45;&gt;Node29 -->
<g id="edge6" class="edge">
<title>Node25&#45;&gt;Node29</title>
<path fill="none" stroke="#191970" d="M243.1826,-47.6868C266.2115,-42.4231 293.6086,-36.1609 318.089,-30.5654"/>
<polygon fill="#191970" stroke="#191970" points="242.2383,-44.3123 233.2696,-49.9527 243.7981,-51.1363 242.2383,-44.3123"/>
</g>
<!-- Node27 -->
<g id="node4" class="node">
<title>Node27</title>
<g id="a_node4"><a xlink:href="classInputMatrix.html#a792ede8dc637e3d8e6c4aa8141596d18" target="_top" xlink:title="InputMatrix::CreateBinding">
<polygon fill="#ffffff" stroke="#000000" points="511,-69 511,-88 658,-88 658,-69 511,-69"/>
<text text-anchor="middle" x="584.5" y="-76" font-family="Helvetica,sans-Serif" font-size="10.00" fill="#000000">InputMatrix::CreateBinding</text>
</a>
</g>
</g>
<!-- Node26&#45;&gt;Node27 -->
<g id="edge3" class="edge">
<title>Node26&#45;&gt;Node27</title>
<path fill="none" stroke="#191970" d="M485.3074,-87.8998C493.9636,-87.0795 502.6093,-86.2602 510.9864,-85.4664"/>
<polygon fill="#191970" stroke="#191970" points="484.7816,-84.4339 475.1564,-88.8617 485.442,-91.4026 484.7816,-84.4339"/>
</g>
<!-- Node28&#45;&gt;Node27 -->
<g id="edge5" class="edge">
<title>Node28&#45;&gt;Node27</title>
<path fill="none" stroke="#191970" d="M475.2344,-68.1456C487.1722,-69.2769 499.282,-70.4245 510.8792,-71.5235"/>
<polygon fill="#191970" stroke="#191970" points="475.5476,-64.6597 465.262,-67.2006 474.8872,-71.6285 475.5476,-64.6597"/>
</g>
</g>
</svg>
