<?xml version="1.0" encoding="UTF-8" standalone="no"?>
<!DOCTYPE svg PUBLIC "-//W3C//DTD SVG 1.1//EN"
 "http://www.w3.org/Graphics/SVG/1.1/DTD/svg11.dtd">
<!-- Generated by graphviz version 2.40.1 (20161225.0304)
 -->
<!-- Title: BlockManager::PeakAvgOn Pages: 1 -->
<svg width="961pt" height="145pt"
 viewBox="0.00 0.00 961.00 145.00" xmlns="http://www.w3.org/2000/svg" xmlns:xlink="http://www.w3.org/1999/xlink">
<g id="graph0" class="graph" transform="scale(1 1) rotate(0) translate(4 141)">
<title>BlockManager::PeakAvgOn</title>
<polygon fill="#ffffff" stroke="transparent" points="-4,4 -4,-141 957,-141 957,4 -4,4"/>
<!-- Node140 -->
<g id="node1" class="node">
<title>Node140</title>
<polygon fill="#bfbfbf" stroke="#000000" points="0,-57.5 0,-76.5 147,-76.5 147,-57.5 0,-57.5"/>
<text text-anchor="middle" x="73.5" y="-64.5" font-family="Helvetica,sans-Serif" font-size="10.00" fill="#000000">BlockManager::PeakAvgOn</text>
</g>
<!-- Node141 -->
<g id="node2" class="node">
<title>Node141</title>
<g id="a_node2"><a xlink:href="classBlockManager.html#ae59dae7f7f6572b004dcdacc740204ac" target="_top" xlink:title="BlockManager::DelManager">
<polygon fill="#ffffff" stroke="#000000" points="200,-114.5 200,-133.5 350,-133.5 350,-114.5 200,-114.5"/>
<text text-anchor="middle" x="275" y="-121.5" font-family="Helvetica,sans-Serif" font-size="10.00" fill="#000000">BlockManager::DelManager</text>
</a>
</g>
</g>
<!-- Node140&#45;&gt;Node141 -->
<g id="edge1" class="edge">
<title>Node140&#45;&gt;Node141</title>
<path fill="none" stroke="#191970" d="M97.9993,-76.5329C120.0029,-84.8462 153.3183,-96.8223 183,-105 192.552,-107.6317 202.7514,-110.0843 212.7529,-112.2947"/>
<polygon fill="#191970" stroke="#191970" points="212.1453,-115.7439 222.6573,-114.4219 213.6153,-108.9 212.1453,-115.7439"/>
</g>
<!-- Node142 -->
<g id="node3" class="node">
<title>Node142</title>
<g id="a_node3"><a xlink:href="classPreallocatedType.html#a232eab10b1d49ee50f435d175c4ceda5" target="_top" xlink:title="PreallocatedType::RTNewWithWait">
<polygon fill="#ffffff" stroke="#000000" points="183,-76.5 183,-95.5 367,-95.5 367,-76.5 183,-76.5"/>
<text text-anchor="middle" x="275" y="-83.5" font-family="Helvetica,sans-Serif" font-size="10.00" fill="#000000">PreallocatedType::RTNewWithWait</text>
</a>
</g>
</g>
<!-- Node140&#45;&gt;Node142 -->
<g id="edge2" class="edge">
<title>Node140&#45;&gt;Node142</title>
<path fill="none" stroke="#191970" d="M147.1015,-73.9401C155.4244,-74.7249 164.0144,-75.5349 172.6203,-76.3463"/>
<polygon fill="#191970" stroke="#191970" points="172.4306,-79.8439 182.715,-77.2982 173.0878,-72.8748 172.4306,-79.8439"/>
</g>
<!-- Node149 -->
<g id="node10" class="node">
<title>Node149</title>
<g id="a_node10"><a xlink:href="classPeaksAvgsManager.html#a4523d9df43dc9ee00f25cad935271380" target="_top" xlink:title="PeaksAvgsManager::Setup">
<polygon fill="#ffffff" stroke="#000000" points="202.5,-38.5 202.5,-57.5 347.5,-57.5 347.5,-38.5 202.5,-38.5"/>
<text text-anchor="middle" x="275" y="-45.5" font-family="Helvetica,sans-Serif" font-size="10.00" fill="#000000">PeaksAvgsManager::Setup</text>
</a>
</g>
</g>
<!-- Node140&#45;&gt;Node149 -->
<g id="edge9" class="edge">
<title>Node140&#45;&gt;Node149</title>
<path fill="none" stroke="#191970" d="M147.1015,-60.0599C161.7166,-58.6818 177.1554,-57.226 192.0574,-55.8209"/>
<polygon fill="#191970" stroke="#191970" points="192.6444,-59.2812 202.2717,-54.8578 191.9872,-52.3121 192.6444,-59.2812"/>
</g>
<!-- Node151 -->
<g id="node12" class="node">
<title>Node151</title>
<g id="a_node12"><a xlink:href="classBlockManager.html#aa5e8b71de591a2e25779a1eacdc09704" target="_top" xlink:title="BlockManager::AddManager">
<polygon fill="#ffffff" stroke="#000000" points="199,-.5 199,-19.5 351,-19.5 351,-.5 199,-.5"/>
<text text-anchor="middle" x="275" y="-7.5" font-family="Helvetica,sans-Serif" font-size="10.00" fill="#000000">BlockManager::AddManager</text>
</a>
</g>
</g>
<!-- Node140&#45;&gt;Node151 -->
<g id="edge11" class="edge">
<title>Node140&#45;&gt;Node151</title>
<path fill="none" stroke="#191970" d="M97.9993,-57.4671C120.0029,-49.1538 153.3183,-37.1777 183,-29 192.552,-26.3683 202.7514,-23.9157 212.7529,-21.7053"/>
<polygon fill="#191970" stroke="#191970" points="213.6153,-25.1 222.6573,-19.5781 212.1453,-18.2561 213.6153,-25.1"/>
</g>
<!-- Node143 -->
<g id="node4" class="node">
<title>Node143</title>
<g id="a_node4"><a xlink:href="classPreallocatedType.html#ae8a5326530dd0f38ecbb094f7818bd42" target="_top" xlink:title="PreallocatedType::RTNew">
<polygon fill="#ffffff" stroke="#000000" points="403,-79.5 403,-98.5 543,-98.5 543,-79.5 403,-79.5"/>
<text text-anchor="middle" x="473" y="-86.5" font-family="Helvetica,sans-Serif" font-size="10.00" fill="#000000">PreallocatedType::RTNew</text>
</a>
</g>
</g>
<!-- Node142&#45;&gt;Node143 -->
<g id="edge3" class="edge">
<title>Node142&#45;&gt;Node143</title>
<path fill="none" stroke="#191970" d="M367.0442,-87.3946C375.588,-87.5241 384.2013,-87.6546 392.6278,-87.7822"/>
<polygon fill="#191970" stroke="#191970" points="392.7444,-91.2843 402.7963,-87.9363 392.8506,-84.2851 392.7444,-91.2843"/>
</g>
<!-- Node144 -->
<g id="node5" class="node">
<title>Node144</title>
<g id="a_node5"><a xlink:href="classRTStore.html#a2be0d247570dc611a379ab0a80dd14da" target="_top" xlink:title="RTStore::FindItemWithState">
<polygon fill="#ffffff" stroke="#000000" points="579,-117.5 579,-136.5 729,-136.5 729,-117.5 579,-117.5"/>
<text text-anchor="middle" x="654" y="-124.5" font-family="Helvetica,sans-Serif" font-size="10.00" fill="#000000">RTStore::FindItemWithState</text>
</a>
</g>
</g>
<!-- Node143&#45;&gt;Node144 -->
<g id="edge4" class="edge">
<title>Node143&#45;&gt;Node144</title>
<path fill="none" stroke="#191970" d="M518.6739,-98.589C542.9892,-103.6939 573.0802,-110.0113 598.7084,-115.3918"/>
<polygon fill="#191970" stroke="#191970" points="598.1487,-118.8505 608.6545,-117.4799 599.587,-111.9999 598.1487,-118.8505"/>
</g>
<!-- Node145 -->
<g id="node6" class="node">
<title>Node145</title>
<g id="a_node6"><a xlink:href="classRTStore.html#af3c93f31bd68ce149a812b05d9e7cd86" target="_top" xlink:title="RTStore::ChangeStateAtIdx">
<polygon fill="#ffffff" stroke="#000000" points="580,-79.5 580,-98.5 728,-98.5 728,-79.5 580,-79.5"/>
<text text-anchor="middle" x="654" y="-86.5" font-family="Helvetica,sans-Serif" font-size="10.00" fill="#000000">RTStore::ChangeStateAtIdx</text>
</a>
</g>
</g>
<!-- Node143&#45;&gt;Node145 -->
<g id="edge5" class="edge">
<title>Node143&#45;&gt;Node145</title>
<path fill="none" stroke="#191970" d="M543.2384,-89C551.9745,-89 560.9761,-89 569.8945,-89"/>
<polygon fill="#191970" stroke="#191970" points="569.9097,-92.5001 579.9097,-89 569.9096,-85.5001 569.9097,-92.5001"/>
</g>
<!-- Node146 -->
<g id="node7" class="node">
<title>Node146</title>
<g id="a_node7"><a xlink:href="classMemoryManager.html#a3971e97751f5eccd04086eb2e6fb6f43" target="_top" xlink:title="MemoryManager::WakeUp">
<polygon fill="#ffffff" stroke="#000000" points="581.5,-41.5 581.5,-60.5 726.5,-60.5 726.5,-41.5 581.5,-41.5"/>
<text text-anchor="middle" x="654" y="-48.5" font-family="Helvetica,sans-Serif" font-size="10.00" fill="#000000">MemoryManager::WakeUp</text>
</a>
</g>
</g>
<!-- Node143&#45;&gt;Node146 -->
<g id="edge6" class="edge">
<title>Node143&#45;&gt;Node146</title>
<path fill="none" stroke="#191970" d="M518.6739,-79.411C542.9892,-74.3061 573.0802,-67.9887 598.7084,-62.6082"/>
<polygon fill="#191970" stroke="#191970" points="599.587,-66.0001 608.6545,-60.5201 598.1487,-59.1495 599.587,-66.0001"/>
</g>
<!-- Node147 -->
<g id="node8" class="node">
<title>Node147</title>
<g id="a_node8"><a xlink:href="classSRMWRingBuffer.html#a47699ccc0600c38559c8e10f0ca9bf3c" target="_top" xlink:title="SRMWRingBuffer::WriteElement">
<polygon fill="#ffffff" stroke="#000000" points="774,-60.5 774,-79.5 944,-79.5 944,-60.5 774,-60.5"/>
<text text-anchor="middle" x="859" y="-67.5" font-family="Helvetica,sans-Serif" font-size="10.00" fill="#000000">SRMWRingBuffer::WriteElement</text>
</a>
</g>
</g>
<!-- Node146&#45;&gt;Node147 -->
<g id="edge7" class="edge">
<title>Node146&#45;&gt;Node147</title>
<path fill="none" stroke="#191970" d="M726.5638,-57.7254C738.6514,-58.8457 751.3479,-60.0225 763.8957,-61.1855"/>
<polygon fill="#191970" stroke="#191970" points="763.6322,-64.6759 773.9125,-62.1138 764.2783,-57.7058 763.6322,-64.6759"/>
</g>
<!-- Node148 -->
<g id="node9" class="node">
<title>Node148</title>
<g id="a_node9"><a xlink:href="classMemoryManager.html#ab15be510a88e9eab04db2d6554d7e947" target="_top" xlink:title="MemoryManager::WakeupIfNeeded">
<polygon fill="#ffffff" stroke="#000000" points="765,-22.5 765,-41.5 953,-41.5 953,-22.5 765,-22.5"/>
<text text-anchor="middle" x="859" y="-29.5" font-family="Helvetica,sans-Serif" font-size="10.00" fill="#000000">MemoryManager::WakeupIfNeeded</text>
</a>
</g>
</g>
<!-- Node146&#45;&gt;Node148 -->
<g id="edge8" class="edge">
<title>Node146&#45;&gt;Node148</title>
<path fill="none" stroke="#191970" d="M726.5638,-44.2746C735.7962,-43.4189 745.3838,-42.5303 754.9891,-41.64"/>
<polygon fill="#191970" stroke="#191970" points="755.3568,-45.1211 764.991,-40.713 754.7107,-38.1509 755.3568,-45.1211"/>
</g>
<!-- Node150 -->
<g id="node11" class="node">
<title>Node150</title>
<g id="a_node11"><a xlink:href="classAudioBlockIterator.html#a1dc8579425203e09e42b1776095cc10b" target="_top" xlink:title="AudioBlockIterator\l::AudioBlockIterator">
<polygon fill="#ffffff" stroke="#000000" points="416.5,-30 416.5,-60 529.5,-60 529.5,-30 416.5,-30"/>
<text text-anchor="start" x="424.5" y="-48" font-family="Helvetica,sans-Serif" font-size="10.00" fill="#000000">AudioBlockIterator</text>
<text text-anchor="middle" x="473" y="-37" font-family="Helvetica,sans-Serif" font-size="10.00" fill="#000000">::AudioBlockIterator</text>
</a>
</g>
</g>
<!-- Node149&#45;&gt;Node150 -->
<g id="edge10" class="edge">
<title>Node149&#45;&gt;Node150</title>
<path fill="none" stroke="#191970" d="M347.6036,-46.8999C366.694,-46.6107 387.1972,-46.3 405.9798,-46.0155"/>
<polygon fill="#191970" stroke="#191970" points="406.2718,-49.5115 416.2176,-45.8603 406.1657,-42.5123 406.2718,-49.5115"/>
</g>
</g>
</svg>
