<?xml version="1.0" encoding="UTF-8" standalone="no"?>
<!DOCTYPE svg PUBLIC "-//W3C//DTD SVG 1.1//EN"
 "http://www.w3.org/Graphics/SVG/1.1/DTD/svg11.dtd">
<!-- Generated by graphviz version 2.40.1 (20161225.0304)
 -->
<!-- Title: EventManager::UnlistenEvent Pages: 1 -->
<svg width="685pt" height="411pt"
 viewBox="0.00 0.00 685.00 411.00" xmlns="http://www.w3.org/2000/svg" xmlns:xlink="http://www.w3.org/1999/xlink">
<g id="graph0" class="graph" transform="scale(1 1) rotate(0) translate(4 407)">
<title>EventManager::UnlistenEvent</title>
<polygon fill="#ffffff" stroke="transparent" points="-4,4 -4,-407 681,-407 681,4 -4,4"/>
<!-- Node128 -->
<g id="node1" class="node">
<title>Node128</title>
<polygon fill="#bfbfbf" stroke="#000000" points="0,-212.5 0,-231.5 161,-231.5 161,-212.5 0,-212.5"/>
<text text-anchor="middle" x="80.5" y="-219.5" font-family="Helvetica,sans-Serif" font-size="10.00" fill="#000000">EventManager::UnlistenEvent</text>
</g>
<!-- Node129 -->
<g id="node2" class="node">
<title>Node129</title>
<g id="a_node2"><a xlink:href="classBrowser.html#a53b7061ec24c8189cfd72a6bed8ef6b7" target="_top" xlink:title="Browser::~Browser">
<polygon fill="#ffffff" stroke="#000000" points="226.5,-383.5 226.5,-402.5 336.5,-402.5 336.5,-383.5 226.5,-383.5"/>
<text text-anchor="middle" x="281.5" y="-390.5" font-family="Helvetica,sans-Serif" font-size="10.00" fill="#000000">Browser::~Browser</text>
</a>
</g>
</g>
<!-- Node128&#45;&gt;Node129 -->
<g id="edge1" class="edge">
<title>Node128&#45;&gt;Node129</title>
<path fill="none" stroke="#191970" d="M89.4915,-241.04C105.9571,-273.7179 144.1769,-340.2156 197,-374 205.7404,-379.5901 215.9078,-383.5471 226.0981,-386.3452"/>
<polygon fill="#191970" stroke="#191970" points="92.4605,-239.1446 84.919,-231.703 86.1739,-242.2233 92.4605,-239.1446"/>
</g>
<!-- Node130 -->
<g id="node3" class="node">
<title>Node130</title>
<g id="a_node3"><a xlink:href="classLoopTray.html#a972a3fcb0906760d4dea5b852ee34eb2" target="_top" xlink:title="LoopTray::~LoopTray">
<polygon fill="#ffffff" stroke="#000000" points="223,-345.5 223,-364.5 340,-364.5 340,-345.5 223,-345.5"/>
<text text-anchor="middle" x="281.5" y="-352.5" font-family="Helvetica,sans-Serif" font-size="10.00" fill="#000000">LoopTray::~LoopTray</text>
</a>
</g>
</g>
<!-- Node128&#45;&gt;Node130 -->
<g id="edge2" class="edge">
<title>Node128&#45;&gt;Node130</title>
<path fill="none" stroke="#191970" d="M93.4384,-239.8295C112.9191,-265.3001 152.2962,-311.7021 197,-336 204.9266,-340.3084 213.7794,-343.6409 222.6887,-346.2183"/>
<polygon fill="#191970" stroke="#191970" points="96.1956,-237.6723 87.4014,-231.7637 90.5915,-241.8668 96.1956,-237.6723"/>
</g>
<!-- Node131 -->
<g id="node4" class="node">
<title>Node131</title>
<g id="a_node4"><a xlink:href="classPatchBrowser.html#acaa6ebdc72e5d29e692422347ccf28aa" target="_top" xlink:title="PatchBrowser::~PatchBrowser">
<polygon fill="#ffffff" stroke="#000000" points="200,-307.5 200,-326.5 363,-326.5 363,-307.5 200,-307.5"/>
<text text-anchor="middle" x="281.5" y="-314.5" font-family="Helvetica,sans-Serif" font-size="10.00" fill="#000000">PatchBrowser::~PatchBrowser</text>
</a>
</g>
</g>
<!-- Node128&#45;&gt;Node131 -->
<g id="edge3" class="edge">
<title>Node128&#45;&gt;Node131</title>
<path fill="none" stroke="#191970" d="M100.2474,-238.0789C122.4681,-255.3788 160.2743,-282.4898 197,-298 206.0037,-301.8025 215.8827,-304.8989 225.6122,-307.4027"/>
<polygon fill="#191970" stroke="#191970" points="102.2747,-235.2199 92.2613,-231.7583 97.9305,-240.7088 102.2747,-235.2199"/>
</g>
<!-- Node132 -->
<g id="node5" class="node">
<title>Node132</title>
<g id="a_node5"><a xlink:href="classInputMatrix.html#a941629c2da3685c5379825be93413ed9" target="_top" xlink:title="InputMatrix::~InputMatrix">
<polygon fill="#ffffff" stroke="#000000" points="210.5,-269.5 210.5,-288.5 352.5,-288.5 352.5,-269.5 210.5,-269.5"/>
<text text-anchor="middle" x="281.5" y="-276.5" font-family="Helvetica,sans-Serif" font-size="10.00" fill="#000000">InputMatrix::~InputMatrix</text>
</a>
</g>
</g>
<!-- Node128&#45;&gt;Node132 -->
<g id="edge4" class="edge">
<title>Node128&#45;&gt;Node132</title>
<path fill="none" stroke="#191970" d="M117.2028,-234.9537C140.0065,-242.7564 170.0173,-252.5835 197,-260 209.3239,-263.3874 222.7796,-266.6199 235.257,-269.4271"/>
<polygon fill="#191970" stroke="#191970" points="118.1806,-231.5887 107.5859,-231.6372 115.8984,-238.2062 118.1806,-231.5887"/>
</g>
<!-- Node133 -->
<g id="node6" class="node">
<title>Node133</title>
<g id="a_node6"><a xlink:href="classLoopManager.html#aadca58536e41c8b0b8fd148ac40b23c0" target="_top" xlink:title="LoopManager::~LoopManager">
<polygon fill="#ffffff" stroke="#000000" points="201,-231.5 201,-250.5 362,-250.5 362,-231.5 201,-231.5"/>
<text text-anchor="middle" x="281.5" y="-238.5" font-family="Helvetica,sans-Serif" font-size="10.00" fill="#000000">LoopManager::~LoopManager</text>
</a>
</g>
</g>
<!-- Node128&#45;&gt;Node133 -->
<g id="edge5" class="edge">
<title>Node128&#45;&gt;Node133</title>
<path fill="none" stroke="#191970" d="M171.3107,-230.5841C181.1716,-231.5162 191.1581,-232.4602 200.8857,-233.3797"/>
<polygon fill="#191970" stroke="#191970" points="171.3813,-227.0752 161.0962,-229.6185 170.7224,-234.0442 171.3813,-227.0752"/>
</g>
<!-- Node134 -->
<g id="node7" class="node">
<title>Node134</title>
<g id="a_node7"><a xlink:href="classRootProcessor.html#afbc20497636d11e4ac4e1c34e91fa000" target="_top" xlink:title="RootProcessor::~RootProcessor">
<polygon fill="#ffffff" stroke="#000000" points="197,-193.5 197,-212.5 366,-212.5 366,-193.5 197,-193.5"/>
<text text-anchor="middle" x="281.5" y="-200.5" font-family="Helvetica,sans-Serif" font-size="10.00" fill="#000000">RootProcessor::~RootProcessor</text>
</a>
</g>
</g>
<!-- Node128&#45;&gt;Node134 -->
<g id="edge6" class="edge">
<title>Node128&#45;&gt;Node134</title>
<path fill="none" stroke="#191970" d="M171.1239,-213.4336C179.7171,-212.6213 188.4075,-211.7998 196.9405,-210.9932"/>
<polygon fill="#191970" stroke="#191970" points="170.7224,-209.9558 161.0962,-214.3815 171.3813,-216.9247 170.7224,-209.9558"/>
</g>
<!-- Node135 -->
<g id="node8" class="node">
<title>Node135</title>
<g id="a_node8"><a xlink:href="classFileStreamer.html#a89b7803d85f99c20fb0e3722c12b4323" target="_top" xlink:title="FileStreamer::run_encode\l_thread">
<polygon fill="#ffffff" stroke="#000000" points="211.5,-144 211.5,-174 351.5,-174 351.5,-144 211.5,-144"/>
<text text-anchor="start" x="219.5" y="-162" font-family="Helvetica,sans-Serif" font-size="10.00" fill="#000000">FileStreamer::run_encode</text>
<text text-anchor="middle" x="281.5" y="-151" font-family="Helvetica,sans-Serif" font-size="10.00" fill="#000000">_thread</text>
</a>
</g>
</g>
<!-- Node128&#45;&gt;Node135 -->
<g id="edge7" class="edge">
<title>Node128&#45;&gt;Node135</title>
<path fill="none" stroke="#191970" d="M118.7598,-209.2256C141.4522,-201.7227 170.8096,-192.144 197,-184 207.5183,-180.7293 218.8041,-177.3208 229.5938,-174.1108"/>
<polygon fill="#191970" stroke="#191970" points="117.5465,-205.9404 109.1554,-212.4087 119.7488,-212.585 117.5465,-205.9404"/>
</g>
<!-- Node137 -->
<g id="node10" class="node">
<title>Node137</title>
<g id="a_node10"><a xlink:href="classMidiIO.html#a2fc0035cc0c0e522da0768eca0bdfc61" target="_top" xlink:title="MidiIO::unlisten_events">
<polygon fill="#ffffff" stroke="#000000" points="216,-105.5 216,-124.5 347,-124.5 347,-105.5 216,-105.5"/>
<text text-anchor="middle" x="281.5" y="-112.5" font-family="Helvetica,sans-Serif" font-size="10.00" fill="#000000">MidiIO::unlisten_events</text>
</a>
</g>
</g>
<!-- Node128&#45;&gt;Node137 -->
<g id="edge9" class="edge">
<title>Node128&#45;&gt;Node137</title>
<path fill="none" stroke="#191970" d="M97.8501,-205.3766C119.3886,-185.6611 158.0609,-153.1856 197,-135 206.1517,-130.7259 216.301,-127.3191 226.2989,-124.6184"/>
<polygon fill="#191970" stroke="#191970" points="95.4011,-202.8746 90.4693,-212.2517 100.1722,-207.9968 95.4011,-202.8746"/>
</g>
<!-- Node140 -->
<g id="node13" class="node">
<title>Node140</title>
<g id="a_node13"><a xlink:href="classOSCClient.html#a362085391b8f3b76e014a314b1aaa02e" target="_top" xlink:title="OSCClient::~OSCClient">
<polygon fill="#ffffff" stroke="#000000" points="217.5,-67.5 217.5,-86.5 345.5,-86.5 345.5,-67.5 217.5,-67.5"/>
<text text-anchor="middle" x="281.5" y="-74.5" font-family="Helvetica,sans-Serif" font-size="10.00" fill="#000000">OSCClient::~OSCClient</text>
</a>
</g>
</g>
<!-- Node128&#45;&gt;Node140 -->
<g id="edge12" class="edge">
<title>Node128&#45;&gt;Node140</title>
<path fill="none" stroke="#191970" d="M91.9085,-203.876C110.4084,-176.0752 149.6914,-123.2673 197,-96 203.7743,-92.0955 211.2829,-88.9933 218.9482,-86.5285"/>
<polygon fill="#191970" stroke="#191970" points="88.966,-201.9807 86.4498,-212.2725 94.8348,-205.7962 88.966,-201.9807"/>
</g>
<!-- Node141 -->
<g id="node14" class="node">
<title>Node141</title>
<g id="a_node14"><a xlink:href="classSDLIO.html#ad1b1bf6d23251b3014749b18497c1b91" target="_top" xlink:title="SDLIO::run_sdl_thread">
<polygon fill="#ffffff" stroke="#000000" points="219.5,-29.5 219.5,-48.5 343.5,-48.5 343.5,-29.5 219.5,-29.5"/>
<text text-anchor="middle" x="281.5" y="-36.5" font-family="Helvetica,sans-Serif" font-size="10.00" fill="#000000">SDLIO::run_sdl_thread</text>
</a>
</g>
</g>
<!-- Node128&#45;&gt;Node141 -->
<g id="edge13" class="edge">
<title>Node128&#45;&gt;Node141</title>
<path fill="none" stroke="#191970" d="M88.4241,-202.9171C103.8627,-168.2254 141.4021,-94.9977 197,-58 203.7598,-53.5017 211.4275,-50.0557 219.3195,-47.4183"/>
<polygon fill="#191970" stroke="#191970" points="85.0962,-201.7953 84.3468,-212.3636 91.5231,-204.5693 85.0962,-201.7953"/>
</g>
<!-- Node136 -->
<g id="node9" class="node">
<title>Node136</title>
<g id="a_node9"><a xlink:href="classFileStreamer.html#a1cc038c52d8211d59503a4e7f8a16cd9" target="_top" xlink:title="FileStreamer::FileStreamer">
<polygon fill="#ffffff" stroke="#000000" points="402,-149.5 402,-168.5 548,-168.5 548,-149.5 402,-149.5"/>
<text text-anchor="middle" x="475" y="-156.5" font-family="Helvetica,sans-Serif" font-size="10.00" fill="#000000">FileStreamer::FileStreamer</text>
</a>
</g>
</g>
<!-- Node135&#45;&gt;Node136 -->
<g id="edge8" class="edge">
<title>Node135&#45;&gt;Node136</title>
<path fill="none" stroke="#191970" d="M361.7022,-159C375.0037,-159 388.7354,-159 401.8508,-159"/>
<polygon fill="#191970" stroke="#191970" points="361.6316,-155.5001 351.6315,-159 361.6315,-162.5001 361.6316,-155.5001"/>
</g>
<!-- Node138 -->
<g id="node11" class="node">
<title>Node138</title>
<g id="a_node11"><a xlink:href="classMidiIO.html#aef220bcce8b89bea36032298868a919e" target="_top" xlink:title="MidiIO::run_midi_thread">
<polygon fill="#ffffff" stroke="#000000" points="408.5,-105.5 408.5,-124.5 541.5,-124.5 541.5,-105.5 408.5,-105.5"/>
<text text-anchor="middle" x="475" y="-112.5" font-family="Helvetica,sans-Serif" font-size="10.00" fill="#000000">MidiIO::run_midi_thread</text>
</a>
</g>
</g>
<!-- Node137&#45;&gt;Node138 -->
<g id="edge10" class="edge">
<title>Node137&#45;&gt;Node138</title>
<path fill="none" stroke="#191970" d="M357.3391,-115C374.1423,-115 391.8293,-115 408.239,-115"/>
<polygon fill="#191970" stroke="#191970" points="357.0103,-111.5001 347.0103,-115 357.0102,-118.5001 357.0103,-111.5001"/>
</g>
<!-- Node139 -->
<g id="node12" class="node">
<title>Node139</title>
<g id="a_node12"><a xlink:href="classMidiIO.html#a222509803679fcf4bcb7b4b4a34cf0cd" target="_top" xlink:title="MidiIO::activate">
<polygon fill="#ffffff" stroke="#000000" points="584,-105.5 584,-124.5 677,-124.5 677,-105.5 584,-105.5"/>
<text text-anchor="middle" x="630.5" y="-112.5" font-family="Helvetica,sans-Serif" font-size="10.00" fill="#000000">MidiIO::activate</text>
</a>
</g>
</g>
<!-- Node138&#45;&gt;Node139 -->
<g id="edge11" class="edge">
<title>Node138&#45;&gt;Node139</title>
<path fill="none" stroke="#191970" d="M551.8598,-115C562.7953,-115 573.7542,-115 583.8712,-115"/>
<polygon fill="#191970" stroke="#191970" points="551.8485,-111.5001 541.8484,-115 551.8484,-118.5001 551.8485,-111.5001"/>
</g>
<!-- Node142 -->
<g id="node15" class="node">
<title>Node142</title>
<g id="a_node15"><a xlink:href="classFweelin.html#a268997890fa59492e27b4787c6bdc41f" target="_top" xlink:title="Fweelin::go">
<polygon fill="#ffffff" stroke="#000000" points="439,-38.5 439,-57.5 511,-57.5 511,-38.5 439,-38.5"/>
<text text-anchor="middle" x="475" y="-45.5" font-family="Helvetica,sans-Serif" font-size="10.00" fill="#000000">Fweelin::go</text>
</a>
</g>
</g>
<!-- Node141&#45;&gt;Node142 -->
<g id="edge14" class="edge">
<title>Node141&#45;&gt;Node142</title>
<path fill="none" stroke="#191970" d="M353.6615,-42.3563C382.7524,-43.7094 415.0198,-45.2102 438.9626,-46.3238"/>
<polygon fill="#191970" stroke="#191970" points="353.6749,-38.8533 343.523,-41.8848 353.3496,-45.8457 353.6749,-38.8533"/>
</g>
<!-- Node145 -->
<g id="node18" class="node">
<title>Node145</title>
<g id="a_node18"><a xlink:href="classSDLIO.html#a219c64dd0f01ca0fe0319ba7a0a3379e" target="_top" xlink:title="SDLIO::activate">
<polygon fill="#ffffff" stroke="#000000" points="429,-.5 429,-19.5 521,-19.5 521,-.5 429,-.5"/>
<text text-anchor="middle" x="475" y="-7.5" font-family="Helvetica,sans-Serif" font-size="10.00" fill="#000000">SDLIO::activate</text>
</a>
</g>
</g>
<!-- Node141&#45;&gt;Node145 -->
<g id="edge17" class="edge">
<title>Node141&#45;&gt;Node145</title>
<path fill="none" stroke="#191970" d="M353.4409,-28.2182C378.7117,-24.4308 406.4041,-20.2805 428.9664,-16.8991"/>
<polygon fill="#191970" stroke="#191970" points="352.8938,-24.761 343.523,-29.7046 353.9314,-31.6837 352.8938,-24.761"/>
</g>
<!-- Node143 -->
<g id="node16" class="node">
<title>Node143</title>
<g id="a_node16"><a xlink:href="fweelin_8cc.html#a97b0fa62b7b0972875f5f589322c4c24" target="_top" xlink:title="main">
<polygon fill="#ffffff" stroke="#000000" points="610,-48.5 610,-67.5 651,-67.5 651,-48.5 610,-48.5"/>
<text text-anchor="middle" x="630.5" y="-55.5" font-family="Helvetica,sans-Serif" font-size="10.00" fill="#000000">main</text>
</a>
</g>
</g>
<!-- Node142&#45;&gt;Node143 -->
<g id="edge15" class="edge">
<title>Node142&#45;&gt;Node143</title>
<path fill="none" stroke="#191970" d="M521.1493,-50.9678C550.6179,-52.8629 587.3848,-55.2273 609.8909,-56.6747"/>
<polygon fill="#191970" stroke="#191970" points="521.2697,-47.4684 511.0657,-50.3193 520.8204,-54.454 521.2697,-47.4684"/>
</g>
<!-- Node144 -->
<g id="node17" class="node">
<title>Node144</title>
<g id="a_node17"><a xlink:href="classLoopTray.html#a307e6abe64c403e39fc463ec282bde27" target="_top" xlink:title="LoopTray::Draw">
<polygon fill="#ffffff" stroke="#000000" points="585,-10.5 585,-29.5 676,-29.5 676,-10.5 585,-10.5"/>
<text text-anchor="middle" x="630.5" y="-17.5" font-family="Helvetica,sans-Serif" font-size="10.00" fill="#000000">LoopTray::Draw</text>
</a>
</g>
</g>
<!-- Node142&#45;&gt;Node144 -->
<g id="edge16" class="edge">
<title>Node142&#45;&gt;Node144</title>
<path fill="none" stroke="#191970" d="M520.9587,-39.7245C541.1257,-36.0931 564.74,-31.841 584.8694,-28.2164"/>
<polygon fill="#191970" stroke="#191970" points="520.2871,-36.289 511.0657,-41.5059 521.5277,-43.1782 520.2871,-36.289"/>
</g>
</g>
</svg>
