<?xml version="1.0" encoding="UTF-8" standalone="no"?>
<!DOCTYPE svg PUBLIC "-//W3C//DTD SVG 1.1//EN"
 "http://www.w3.org/Graphics/SVG/1.1/DTD/svg11.dtd">
<!-- Generated by graphviz version 2.40.1 (20161225.0304)
 -->
<!-- Title: TriggerMap::SetMap Pages: 1 -->
<svg width="684pt" height="198pt"
 viewBox="0.00 0.00 684.00 198.14" xmlns="http://www.w3.org/2000/svg" xmlns:xlink="http://www.w3.org/1999/xlink">
<g id="graph0" class="graph" transform="scale(1 1) rotate(0) translate(4 194.1401)">
<title>TriggerMap::SetMap</title>
<polygon fill="#ffffff" stroke="transparent" points="-4,4 -4,-194.1401 680,-194.1401 680,4 -4,4"/>
<!-- Node128 -->
<g id="node1" class="node">
<title>Node128</title>
<polygon fill="#bfbfbf" stroke="#000000" points="0,-113.6401 0,-132.6401 112,-132.6401 112,-113.6401 0,-113.6401"/>
<text text-anchor="middle" x="56" y="-120.6401" font-family="Helvetica,sans-Serif" font-size="10.00" fill="#000000">TriggerMap::SetMap</text>
</g>
<!-- Node129 -->
<g id="node2" class="node">
<title>Node129</title>
<g id="a_node2"><a xlink:href="classLoopManager.html#a6048a702c9cec3676a1c56792b16ec44" target="_top" xlink:title="LoopManager::ReadComplete">
<polygon fill="#ffffff" stroke="#000000" points="327,-132.6401 327,-151.6401 486,-151.6401 486,-132.6401 327,-132.6401"/>
<text text-anchor="middle" x="406.5" y="-139.6401" font-family="Helvetica,sans-Serif" font-size="10.00" fill="#000000">LoopManager::ReadComplete</text>
</a>
</g>
</g>
<!-- Node128&#45;&gt;Node129 -->
<g id="edge1" class="edge">
<title>Node128&#45;&gt;Node129</title>
<path fill="none" stroke="#191970" d="M122.4851,-126.7441C180.5966,-129.8942 265.0961,-134.4748 326.8155,-137.8205"/>
<polygon fill="#191970" stroke="#191970" points="122.4887,-123.2392 112.3139,-126.1927 122.1097,-130.229 122.4887,-123.2392"/>
</g>
<!-- Node130 -->
<g id="node3" class="node">
<title>Node130</title>
<g id="a_node3"><a xlink:href="classLoopManager.html#af67b2c3a3417115739cccbe6360828fe" target="_top" xlink:title="LoopManager::MoveLoop">
<polygon fill="#ffffff" stroke="#000000" points="151,-170.6401 151,-189.6401 288,-189.6401 288,-170.6401 151,-170.6401"/>
<text text-anchor="middle" x="219.5" y="-177.6401" font-family="Helvetica,sans-Serif" font-size="10.00" fill="#000000">LoopManager::MoveLoop</text>
</a>
</g>
</g>
<!-- Node128&#45;&gt;Node130 -->
<g id="edge2" class="edge">
<title>Node128&#45;&gt;Node130</title>
<path fill="none" stroke="#191970" d="M91.6801,-136.1309C108.7025,-142.2793 129.3736,-149.6741 148,-156.1401 161.9778,-160.9923 177.5468,-166.2371 190.5789,-170.5824"/>
<polygon fill="#191970" stroke="#191970" points="92.7165,-132.7839 82.1222,-132.6714 90.334,-139.366 92.7165,-132.7839"/>
</g>
<!-- Node132 -->
<g id="node5" class="node">
<title>Node132</title>
<g id="a_node5"><a xlink:href="classLoopManager.html#a332a9868980750f28fbf0e05b2336174" target="_top" xlink:title="LoopManager::DeleteLoop">
<polygon fill="#ffffff" stroke="#000000" points="148,-94.6401 148,-113.6401 291,-113.6401 291,-94.6401 148,-94.6401"/>
<text text-anchor="middle" x="219.5" y="-101.6401" font-family="Helvetica,sans-Serif" font-size="10.00" fill="#000000">LoopManager::DeleteLoop</text>
</a>
</g>
</g>
<!-- Node128&#45;&gt;Node132 -->
<g id="edge4" class="edge">
<title>Node128&#45;&gt;Node132</title>
<path fill="none" stroke="#191970" d="M122.3613,-115.4283C130.7481,-114.4537 139.3591,-113.4531 147.8237,-112.4694"/>
<polygon fill="#191970" stroke="#191970" points="121.7965,-111.9703 112.2674,-116.6013 122.6046,-118.9235 121.7965,-111.9703"/>
</g>
<!-- Node134 -->
<g id="node7" class="node">
<title>Node134</title>
<g id="a_node7"><a xlink:href="classLoopManager.html#a861cdd2ace9aeb53b4ecf92728215265" target="_top" xlink:title="LoopManager::Deactivate">
<polygon fill="#ffffff" stroke="#000000" points="149,-18.6401 149,-37.6401 290,-37.6401 290,-18.6401 149,-18.6401"/>
<text text-anchor="middle" x="219.5" y="-25.6401" font-family="Helvetica,sans-Serif" font-size="10.00" fill="#000000">LoopManager::Deactivate</text>
</a>
</g>
</g>
<!-- Node128&#45;&gt;Node134 -->
<g id="edge9" class="edge">
<title>Node128&#45;&gt;Node134</title>
<path fill="none" stroke="#191970" d="M81.4134,-108.3738C115.2644,-88.7051 174.204,-54.4588 202.8791,-37.7975"/>
<polygon fill="#191970" stroke="#191970" points="79.4651,-105.4579 72.577,-113.5081 82.9818,-111.5104 79.4651,-105.4579"/>
</g>
<!-- Node131 -->
<g id="node4" class="node">
<title>Node131</title>
<g id="a_node4"><a xlink:href="classLoopManager.html#a4aada2d07b7ce0a67a8119ece4805966" target="_top" xlink:title="LoopManager::ReceiveEvent">
<polygon fill="#ffffff" stroke="#000000" points="522,-56.6401 522,-75.6401 676,-75.6401 676,-56.6401 522,-56.6401"/>
<text text-anchor="middle" x="599" y="-63.6401" font-family="Helvetica,sans-Serif" font-size="10.00" fill="#000000">LoopManager::ReceiveEvent</text>
</a>
</g>
</g>
<!-- Node130&#45;&gt;Node131 -->
<g id="edge3" class="edge">
<title>Node130&#45;&gt;Node131</title>
<path fill="none" stroke="#191970" d="M298.4039,-187.0474C353.0214,-188.8716 426.332,-185.3275 486,-161.1401 532.7924,-142.172 574.4845,-96.14 591.2166,-75.9297"/>
<polygon fill="#191970" stroke="#191970" points="298.2181,-183.5372 288.0853,-186.6319 297.9364,-190.5315 298.2181,-183.5372"/>
</g>
<!-- Node132&#45;&gt;Node129 -->
<g id="edge5" class="edge">
<title>Node132&#45;&gt;Node129</title>
<path fill="none" stroke="#191970" d="M276.631,-115.7496C303.2267,-121.154 334.4731,-127.5036 359.6513,-132.62"/>
<polygon fill="#191970" stroke="#191970" points="277.1847,-112.2906 266.688,-113.7291 275.7907,-119.1504 277.1847,-112.2906"/>
</g>
<!-- Node132&#45;&gt;Node131 -->
<g id="edge8" class="edge">
<title>Node132&#45;&gt;Node131</title>
<path fill="none" stroke="#191970" d="M301.2114,-100.3371C354.0466,-97.3796 424.2338,-92.5175 486,-85.1401 506.5432,-82.6863 529.0444,-79.0905 548.5224,-75.6855"/>
<polygon fill="#191970" stroke="#191970" points="301.0121,-96.8427 291.2189,-100.8854 301.3957,-103.8322 301.0121,-96.8427"/>
</g>
<!-- Node133 -->
<g id="node6" class="node">
<title>Node133</title>
<g id="a_node6"><a xlink:href="classLoopManager.html#a8efb4c8acabceb10faa8660c14c89d71" target="_top" xlink:title="LoopManager::DeletePulse">
<polygon fill="#ffffff" stroke="#000000" points="333.5,-56.6401 333.5,-75.6401 479.5,-75.6401 479.5,-56.6401 333.5,-56.6401"/>
<text text-anchor="middle" x="406.5" y="-63.6401" font-family="Helvetica,sans-Serif" font-size="10.00" fill="#000000">LoopManager::DeletePulse</text>
</a>
</g>
</g>
<!-- Node132&#45;&gt;Node133 -->
<g id="edge6" class="edge">
<title>Node132&#45;&gt;Node133</title>
<path fill="none" stroke="#191970" d="M276.631,-92.5305C303.2267,-87.1261 334.4731,-80.7765 359.6513,-75.6601"/>
<polygon fill="#191970" stroke="#191970" points="275.7907,-89.1297 266.688,-94.5511 277.1847,-95.9895 275.7907,-89.1297"/>
</g>
<!-- Node133&#45;&gt;Node131 -->
<g id="edge7" class="edge">
<title>Node133&#45;&gt;Node131</title>
<path fill="none" stroke="#191970" d="M489.6986,-66.1401C500.3711,-66.1401 511.2618,-66.1401 521.8326,-66.1401"/>
<polygon fill="#191970" stroke="#191970" points="489.5505,-62.6402 479.5505,-66.1401 489.5504,-69.6402 489.5505,-62.6402"/>
</g>
<!-- Node134&#45;&gt;Node131 -->
<g id="edge12" class="edge">
<title>Node134&#45;&gt;Node131</title>
<path fill="none" stroke="#191970" d="M266.1955,-16.3924C319.9511,-4.7945 410.5407,8.8143 486,-9.1401 524.4766,-18.2949 564.7109,-42.7557 585.209,-56.4724"/>
<polygon fill="#191970" stroke="#191970" points="265.2754,-13.0114 256.2749,-18.6007 266.7965,-19.8442 265.2754,-13.0114"/>
</g>
<!-- Node135 -->
<g id="node8" class="node">
<title>Node135</title>
<g id="a_node8"><a xlink:href="classFweelin.html#a4654015e2bc7cc94f3bfc421899a60d3" target="_top" xlink:title="Fweelin::TriggerSnapshot">
<polygon fill="#ffffff" stroke="#000000" points="337.5,-18.6401 337.5,-37.6401 475.5,-37.6401 475.5,-18.6401 337.5,-18.6401"/>
<text text-anchor="middle" x="406.5" y="-25.6401" font-family="Helvetica,sans-Serif" font-size="10.00" fill="#000000">Fweelin::TriggerSnapshot</text>
</a>
</g>
</g>
<!-- Node134&#45;&gt;Node135 -->
<g id="edge10" class="edge">
<title>Node134&#45;&gt;Node135</title>
<path fill="none" stroke="#191970" d="M300.4173,-28.1401C312.6899,-28.1401 325.257,-28.1401 337.2521,-28.1401"/>
<polygon fill="#191970" stroke="#191970" points="300.1967,-24.6402 290.1967,-28.1401 300.1966,-31.6402 300.1967,-24.6402"/>
</g>
<!-- Node135&#45;&gt;Node131 -->
<g id="edge11" class="edge">
<title>Node135&#45;&gt;Node131</title>
<path fill="none" stroke="#191970" d="M464.9498,-39.6782C492.4057,-45.0981 524.7405,-51.481 550.7734,-56.62"/>
<polygon fill="#191970" stroke="#191970" points="465.5644,-36.2321 455.0759,-37.7291 464.2087,-43.0995 465.5644,-36.2321"/>
</g>
</g>
</svg>
