<?xml version="1.0" encoding="UTF-8" standalone="no"?>
<!DOCTYPE svg PUBLIC "-//W3C//DTD SVG 1.1//EN"
 "http://www.w3.org/Graphics/SVG/1.1/DTD/svg11.dtd">
<!-- Generated by graphviz version 2.40.1 (20161225.0304)
 -->
<!-- Title: BlockWriteManager::~BlockWriteManager Pages: 1 -->
<svg width="469pt" height="39pt"
 viewBox="0.00 0.00 469.00 39.00" xmlns="http://www.w3.org/2000/svg" xmlns:xlink="http://www.w3.org/1999/xlink">
<g id="graph0" class="graph" transform="scale(1 1) rotate(0) translate(4 35)">
<title>BlockWriteManager::~BlockWriteManager</title>
<polygon fill="#ffffff" stroke="transparent" points="-4,4 -4,-35 465,-35 465,4 -4,4"/>
<!-- Node2 -->
<g id="node1" class="node">
<title>Node2</title>
<polygon fill="#bfbfbf" stroke="#000000" points="0,-.5 0,-30.5 119,-30.5 119,-.5 0,-.5"/>
<text text-anchor="start" x="8" y="-18.5" font-family="Helvetica,sans-Serif" font-size="10.00" fill="#000000">BlockWriteManager::</text>
<text text-anchor="middle" x="59.5" y="-7.5" font-family="Helvetica,sans-Serif" font-size="10.00" fill="#000000">~BlockWriteManager</text>
</g>
<!-- Node3 -->
<g id="node2" class="node">
<title>Node3</title>
<g id="a_node2"><a xlink:href="classBlockWriteManager.html#a71f78a8f8c3f49e7e311e8553b5fa029" target="_top" xlink:title="BlockWriteManager::End">
<polygon fill="#ffffff" stroke="#000000" points="155,-6 155,-25 290,-25 290,-6 155,-6"/>
<text text-anchor="middle" x="222.5" y="-13" font-family="Helvetica,sans-Serif" font-size="10.00" fill="#000000">BlockWriteManager::End</text>
</a>
</g>
</g>
<!-- Node2&#45;&gt;Node3 -->
<g id="edge1" class="edge">
<title>Node2&#45;&gt;Node3</title>
<path fill="none" stroke="#191970" d="M119.2696,-15.5C127.5634,-15.5 136.1811,-15.5 144.7435,-15.5"/>
<polygon fill="#191970" stroke="#191970" points="144.7471,-19.0001 154.747,-15.5 144.747,-12.0001 144.7471,-19.0001"/>
</g>
<!-- Node4 -->
<g id="node3" class="node">
<title>Node4</title>
<g id="a_node3"><a xlink:href="classiFileEncoder.html#a688c77631f58abe047c36ef552ec83bb" target="_top" xlink:title="iFileEncoder::PrepareFile\lForClosing">
<polygon fill="#ffffff" stroke="#000000" points="326,-.5 326,-30.5 461,-30.5 461,-.5 326,-.5"/>
<text text-anchor="start" x="334" y="-18.5" font-family="Helvetica,sans-Serif" font-size="10.00" fill="#000000">iFileEncoder::PrepareFile</text>
<text text-anchor="middle" x="393.5" y="-7.5" font-family="Helvetica,sans-Serif" font-size="10.00" fill="#000000">ForClosing</text>
</a>
</g>
</g>
<!-- Node3&#45;&gt;Node4 -->
<g id="edge2" class="edge">
<title>Node3&#45;&gt;Node4</title>
<path fill="none" stroke="#191970" d="M290.0837,-15.5C298.5381,-15.5 307.2372,-15.5 315.83,-15.5"/>
<polygon fill="#191970" stroke="#191970" points="315.8472,-19.0001 325.8472,-15.5 315.8472,-12.0001 315.8472,-19.0001"/>
</g>
</g>
</svg>
