<?xml version="1.0" encoding="UTF-8" standalone="no"?>
<!DOCTYPE svg PUBLIC "-//W3C//DTD SVG 1.1//EN"
 "http://www.w3.org/Graphics/SVG/1.1/DTD/svg11.dtd">
<!-- Generated by graphviz version 2.40.1 (20161225.0304)
 -->
<!-- Title: AudioBlock::AddExtendedData Pages: 1 -->
<svg width="780pt" height="180pt"
 viewBox="0.00 0.00 780.00 180.00" xmlns="http://www.w3.org/2000/svg" xmlns:xlink="http://www.w3.org/1999/xlink">
<g id="graph0" class="graph" transform="scale(1 1) rotate(0) translate(4 176)">
<title>AudioBlock::AddExtendedData</title>
<polygon fill="#ffffff" stroke="transparent" points="-4,4 -4,-176 776,-176 776,4 -4,4"/>
<!-- Node7 -->
<g id="node1" class="node">
<title>Node7</title>
<polygon fill="#bfbfbf" stroke="#000000" points="0,-76.5 0,-95.5 165,-95.5 165,-76.5 0,-76.5"/>
<text text-anchor="middle" x="82.5" y="-83.5" font-family="Helvetica,sans-Serif" font-size="10.00" fill="#000000">AudioBlock::AddExtendedData</text>
</g>
<!-- Node8 -->
<g id="node2" class="node">
<title>Node8</title>
<g id="a_node2"><a xlink:href="classBlockReadManager.html#af12804c61f944904eedf8c9edf5cd3bd" target="_top" xlink:title="BlockReadManager::Start">
<polygon fill="#ffffff" stroke="#000000" points="223,-136.5 223,-155.5 362,-155.5 362,-136.5 223,-136.5"/>
<text text-anchor="middle" x="292.5" y="-143.5" font-family="Helvetica,sans-Serif" font-size="10.00" fill="#000000">BlockReadManager::Start</text>
</a>
</g>
</g>
<!-- Node7&#45;&gt;Node8 -->
<g id="edge1" class="edge">
<title>Node7&#45;&gt;Node8</title>
<path fill="none" stroke="#191970" d="M125.4077,-98.2594C164.9452,-109.5558 222.8137,-126.0896 259.0335,-136.4382"/>
<polygon fill="#191970" stroke="#191970" points="126.3519,-94.8891 115.7751,-95.5072 124.4288,-101.6198 126.3519,-94.8891"/>
</g>
<!-- Node10 -->
<g id="node4" class="node">
<title>Node10</title>
<g id="a_node4"><a xlink:href="classAudioBlockIterator.html#a5cc11c9589308f5da0fea19c701c84b3" target="_top" xlink:title="AudioBlockIterator\l::PutFragment">
<polygon fill="#ffffff" stroke="#000000" points="239,-71 239,-101 346,-101 346,-71 239,-71"/>
<text text-anchor="start" x="247" y="-89" font-family="Helvetica,sans-Serif" font-size="10.00" fill="#000000">AudioBlockIterator</text>
<text text-anchor="middle" x="292.5" y="-78" font-family="Helvetica,sans-Serif" font-size="10.00" fill="#000000">::PutFragment</text>
</a>
</g>
</g>
<!-- Node7&#45;&gt;Node10 -->
<g id="edge3" class="edge">
<title>Node7&#45;&gt;Node10</title>
<path fill="none" stroke="#191970" d="M175.4472,-86C197.1652,-86 219.5803,-86 238.9095,-86"/>
<polygon fill="#191970" stroke="#191970" points="175.1961,-82.5001 165.1961,-86 175.1961,-89.5001 175.1961,-82.5001"/>
</g>
<!-- Node16 -->
<g id="node10" class="node">
<title>Node16</title>
<g id="a_node10"><a xlink:href="classRecordProcessor.html#aa20c0f68a5ee5e4739759b3783b6e4d1" target="_top" xlink:title="RecordProcessor::RecordProcessor">
<polygon fill="#ffffff" stroke="#000000" points="201,-32.5 201,-51.5 384,-51.5 384,-32.5 201,-32.5"/>
<text text-anchor="middle" x="292.5" y="-39.5" font-family="Helvetica,sans-Serif" font-size="10.00" fill="#000000">RecordProcessor::RecordProcessor</text>
</a>
</g>
</g>
<!-- Node7&#45;&gt;Node16 -->
<g id="edge9" class="edge">
<title>Node7&#45;&gt;Node16</title>
<path fill="none" stroke="#191970" d="M137.8637,-74.4C171.9035,-67.2678 214.9831,-58.2416 247.0221,-51.5287"/>
<polygon fill="#191970" stroke="#191970" points="137.1366,-70.9763 128.0669,-76.4527 138.5721,-77.8275 137.1366,-70.9763"/>
</g>
<!-- Node9 -->
<g id="node3" class="node">
<title>Node9</title>
<g id="a_node3"><a xlink:href="classBlockReadManager.html#aa990976dec4a3ec5bd6384b54ce5f09b" target="_top" xlink:title="BlockReadManager::Manage">
<polygon fill="#ffffff" stroke="#000000" points="425,-152.5 425,-171.5 579,-171.5 579,-152.5 425,-152.5"/>
<text text-anchor="middle" x="502" y="-159.5" font-family="Helvetica,sans-Serif" font-size="10.00" fill="#000000">BlockReadManager::Manage</text>
</a>
</g>
</g>
<!-- Node8&#45;&gt;Node9 -->
<g id="edge2" class="edge">
<title>Node8&#45;&gt;Node9</title>
<path fill="none" stroke="#191970" d="M372.3031,-152.0947C389.5743,-153.4138 407.8061,-154.8062 424.9683,-156.1169"/>
<polygon fill="#191970" stroke="#191970" points="372.498,-148.5995 362.2605,-151.3278 371.9649,-155.5792 372.498,-148.5995"/>
</g>
<!-- Node11 -->
<g id="node5" class="node">
<title>Node11</title>
<g id="a_node5"><a xlink:href="classSndFileDecoder.html#a6f533159127e8f633a12c6fe3f86b4a2" target="_top" xlink:title="SndFileDecoder::ReadSamples">
<polygon fill="#ffffff" stroke="#000000" points="420,-114.5 420,-133.5 584,-133.5 584,-114.5 420,-114.5"/>
<text text-anchor="middle" x="502" y="-121.5" font-family="Helvetica,sans-Serif" font-size="10.00" fill="#000000">SndFileDecoder::ReadSamples</text>
</a>
</g>
</g>
<!-- Node10&#45;&gt;Node11 -->
<g id="edge4" class="edge">
<title>Node10&#45;&gt;Node11</title>
<path fill="none" stroke="#191970" d="M356.0964,-97.5354C385.9918,-102.9579 421.2048,-109.345 449.5472,-114.4859"/>
<polygon fill="#191970" stroke="#191970" points="356.6435,-94.0776 346.1794,-95.7366 355.3942,-100.9652 356.6435,-94.0776"/>
</g>
<!-- Node12 -->
<g id="node6" class="node">
<title>Node12</title>
<g id="a_node6"><a xlink:href="classVorbisDecoder.html#a605d498b0a32990607910576964da546" target="_top" xlink:title="VorbisDecoder::ReadSamples">
<polygon fill="#ffffff" stroke="#000000" points="422.5,-76.5 422.5,-95.5 581.5,-95.5 581.5,-76.5 422.5,-76.5"/>
<text text-anchor="middle" x="502" y="-83.5" font-family="Helvetica,sans-Serif" font-size="10.00" fill="#000000">VorbisDecoder::ReadSamples</text>
</a>
</g>
</g>
<!-- Node10&#45;&gt;Node12 -->
<g id="edge5" class="edge">
<title>Node10&#45;&gt;Node12</title>
<path fill="none" stroke="#191970" d="M356.1916,-86C377.0459,-86 400.4796,-86 422.36,-86"/>
<polygon fill="#191970" stroke="#191970" points="356.1794,-82.5001 346.1794,-86 356.1794,-89.5001 356.1794,-82.5001"/>
</g>
<!-- Node13 -->
<g id="node7" class="node">
<title>Node13</title>
<g id="a_node7"><a xlink:href="classRecordProcessor.html#a8fbde2e8b6f9e9dafb89ef0b06e6a11a" target="_top" xlink:title="RecordProcessor::Jump">
<polygon fill="#ffffff" stroke="#000000" points="438,-38.5 438,-57.5 566,-57.5 566,-38.5 438,-38.5"/>
<text text-anchor="middle" x="502" y="-45.5" font-family="Helvetica,sans-Serif" font-size="10.00" fill="#000000">RecordProcessor::Jump</text>
</a>
</g>
</g>
<!-- Node10&#45;&gt;Node13 -->
<g id="edge6" class="edge">
<title>Node10&#45;&gt;Node13</title>
<path fill="none" stroke="#191970" d="M356.0964,-74.4646C385.9918,-69.0421 421.2048,-62.655 449.5472,-57.5141"/>
<polygon fill="#191970" stroke="#191970" points="355.3942,-71.0348 346.1794,-76.2634 356.6435,-77.9224 355.3942,-71.0348"/>
</g>
<!-- Node15 -->
<g id="node9" class="node">
<title>Node15</title>
<g id="a_node9"><a xlink:href="classRecordProcessor.html#ad36d69ec9d41b424eb2e6c5fa2e0cf3a" target="_top" xlink:title="RecordProcessor::process">
<polygon fill="#ffffff" stroke="#000000" points="432,-.5 432,-19.5 572,-19.5 572,-.5 432,-.5"/>
<text text-anchor="middle" x="502" y="-7.5" font-family="Helvetica,sans-Serif" font-size="10.00" fill="#000000">RecordProcessor::process</text>
</a>
</g>
</g>
<!-- Node10&#45;&gt;Node15 -->
<g id="edge8" class="edge">
<title>Node10&#45;&gt;Node15</title>
<path fill="none" stroke="#191970" d="M356.0013,-72.7557C365.6722,-69.5827 375.3133,-65.7082 384,-61 402.8206,-50.7993 400.9839,-38.8316 420,-29 427.529,-25.1074 435.8555,-22.0034 444.2317,-19.5304"/>
<polygon fill="#191970" stroke="#191970" points="354.8975,-69.4331 346.3547,-75.6998 356.9409,-76.1283 354.8975,-69.4331"/>
</g>
<!-- Node14 -->
<g id="node8" class="node">
<title>Node14</title>
<g id="a_node8"><a xlink:href="classRecordProcessor.html#a6168d8dc850602a348dc74ab1224263a" target="_top" xlink:title="RecordProcessor::PulseSync">
<polygon fill="#ffffff" stroke="#000000" points="620,-38.5 620,-57.5 772,-57.5 772,-38.5 620,-38.5"/>
<text text-anchor="middle" x="696" y="-45.5" font-family="Helvetica,sans-Serif" font-size="10.00" fill="#000000">RecordProcessor::PulseSync</text>
</a>
</g>
</g>
<!-- Node13&#45;&gt;Node14 -->
<g id="edge7" class="edge">
<title>Node13&#45;&gt;Node14</title>
<path fill="none" stroke="#191970" d="M576.3095,-48C590.5794,-48 605.5434,-48 619.8698,-48"/>
<polygon fill="#191970" stroke="#191970" points="576.0605,-44.5001 566.0605,-48 576.0605,-51.5001 576.0605,-44.5001"/>
</g>
</g>
</svg>
