<?xml version="1.0" encoding="UTF-8" standalone="no"?>
<!DOCTYPE svg PUBLIC "-//W3C//DTD SVG 1.1//EN"
 "http://www.w3.org/Graphics/SVG/1.1/DTD/svg11.dtd">
<!-- Generated by graphviz version 2.40.1 (20161225.0304)
 -->
<!-- Title: DLinkList Pages: 1 -->
<svg width="163pt" height="287pt"
 viewBox="0.00 0.00 163.00 287.00" xmlns="http://www.w3.org/2000/svg" xmlns:xlink="http://www.w3.org/1999/xlink">
<g id="graph0" class="graph" transform="scale(1 1) rotate(0) translate(4 283)">
<title>DLinkList</title>
<polygon fill="#ffffff" stroke="transparent" points="-4,4 -4,-283 159,-283 159,4 -4,4"/>
<!-- Node1 -->
<g id="node1" class="node">
<title>Node1</title>
<polygon fill="#bfbfbf" stroke="#000000" points="3.5,-.5 3.5,-57.5 79.5,-57.5 79.5,-.5 3.5,-.5"/>
<text text-anchor="middle" x="41.5" y="-45.5" font-family="Helvetica,sans-Serif" font-size="10.00" fill="#000000">DLinkList</text>
<polyline fill="none" stroke="#000000" points="3.5,-38.5 79.5,-38.5 "/>
<text text-anchor="middle" x="41.5" y="-26.5" font-family="Helvetica,sans-Serif" font-size="10.00" fill="#000000"> </text>
<polyline fill="none" stroke="#000000" points="3.5,-19.5 79.5,-19.5 "/>
<text text-anchor="start" x="11.5" y="-7.5" font-family="Helvetica,sans-Serif" font-size="10.00" fill="#000000">&#45; DLinkList()</text>
</g>
<!-- Node2 -->
<g id="node2" class="node">
<title>Node2</title>
<g id="a_node2"><a xlink:href="classDListItem.html" target="_top" xlink:title="{DListItem\n||+ DListItem()\l}">
<polygon fill="#ffffff" stroke="#000000" points="0,-105.5 0,-162.5 83,-162.5 83,-105.5 0,-105.5"/>
<text text-anchor="middle" x="41.5" y="-150.5" font-family="Helvetica,sans-Serif" font-size="10.00" fill="#000000">DListItem</text>
<polyline fill="none" stroke="#000000" points="0,-143.5 83,-143.5 "/>
<text text-anchor="middle" x="41.5" y="-131.5" font-family="Helvetica,sans-Serif" font-size="10.00" fill="#000000"> </text>
<polyline fill="none" stroke="#000000" points="0,-124.5 83,-124.5 "/>
<text text-anchor="start" x="8" y="-112.5" font-family="Helvetica,sans-Serif" font-size="10.00" fill="#000000">+ DListItem()</text>
</a>
</g>
</g>
<!-- Node2&#45;&gt;Node1 -->
<g id="edge1" class="edge">
<title>Node2&#45;&gt;Node1</title>
<path fill="none" stroke="#404040" d="M41.5,-105.3083C41.5,-94.4281 41.5,-81.817 41.5,-70.0192"/>
<polygon fill="none" stroke="#404040" points="41.5001,-69.657 37.5,-63.6571 41.5,-57.657 45.5,-63.657 41.5001,-69.657"/>
<text text-anchor="middle" x="54.5" y="-79" font-family="Helvetica,sans-Serif" font-size="10.00" fill="#000000"> &#45;first</text>
</g>
<!-- Node3 -->
<g id="node3" class="node">
<title>Node3</title>
<g id="a_node3"><a xlink:href="classSListItem.html" target="_top" xlink:title="{SListItem\n||+ SListItem()\l}">
<polygon fill="#ffffff" stroke="#000000" points="1,-221.5 1,-278.5 82,-278.5 82,-221.5 1,-221.5"/>
<text text-anchor="middle" x="41.5" y="-266.5" font-family="Helvetica,sans-Serif" font-size="10.00" fill="#000000">SListItem</text>
<polyline fill="none" stroke="#000000" points="1,-259.5 82,-259.5 "/>
<text text-anchor="middle" x="41.5" y="-247.5" font-family="Helvetica,sans-Serif" font-size="10.00" fill="#000000"> </text>
<polyline fill="none" stroke="#000000" points="1,-240.5 82,-240.5 "/>
<text text-anchor="start" x="9" y="-228.5" font-family="Helvetica,sans-Serif" font-size="10.00" fill="#000000">+ SListItem()</text>
</a>
</g>
</g>
<!-- Node3&#45;&gt;Node2 -->
<g id="edge2" class="edge">
<title>Node3&#45;&gt;Node2</title>
<path fill="none" stroke="#404040" d="M41.5,-221.3258C41.5,-207.3834 41.5,-190.3727 41.5,-175.0815"/>
<polygon fill="none" stroke="#404040" points="41.5001,-174.7463 37.5,-168.7464 41.5,-162.7463 45.5,-168.7463 41.5001,-174.7463"/>
<text text-anchor="middle" x="71" y="-195" font-family="Helvetica,sans-Serif" font-size="10.00" fill="#000000"> +slist_prev</text>
<text text-anchor="middle" x="71" y="-184" font-family="Helvetica,sans-Serif" font-size="10.00" fill="#000000">+slist_next</text>
</g>
<!-- Node3&#45;&gt;Node3 -->
<g id="edge3" class="edge">
<title>Node3&#45;&gt;Node3</title>
<path fill="none" stroke="#404040" d="M82.235,-260.7257C92.4013,-259.9756 100,-256.4004 100,-250 100,-246.4998 97.7274,-243.8445 94.0052,-242.0342"/>
<polygon fill="none" stroke="#404040" points="93.9181,-242.0138 87.1634,-244.5385 82.235,-239.2743 88.9897,-236.7497 93.9181,-242.0138"/>
<text text-anchor="middle" x="127.5" y="-247.5" font-family="Helvetica,sans-Serif" font-size="10.00" fill="#000000"> &#45;slist_next</text>
</g>
</g>
</svg>
