<?xml version="1.0" encoding="UTF-8" standalone="no"?>
<!DOCTYPE svg PUBLIC "-//W3C//DTD SVG 1.1//EN"
 "http://www.w3.org/Graphics/SVG/1.1/DTD/svg11.dtd">
<!-- Generated by graphviz version 2.40.1 (20161225.0304)
 -->
<!-- Title: RootProcessor::SetInputVolume Pages: 1 -->
<svg width="568pt" height="28pt"
 viewBox="0.00 0.00 568.00 28.00" xmlns="http://www.w3.org/2000/svg" xmlns:xlink="http://www.w3.org/1999/xlink">
<g id="graph0" class="graph" transform="scale(1 1) rotate(0) translate(4 24)">
<title>RootProcessor::SetInputVolume</title>
<polygon fill="#ffffff" stroke="transparent" points="-4,4 -4,-24 564,-24 564,4 -4,4"/>
<!-- Node103 -->
<g id="node1" class="node">
<title>Node103</title>
<polygon fill="#bfbfbf" stroke="#000000" points="0,-.5 0,-19.5 169,-19.5 169,-.5 0,-.5"/>
<text text-anchor="middle" x="84.5" y="-7.5" font-family="Helvetica,sans-Serif" font-size="10.00" fill="#000000">RootProcessor::SetInputVolume</text>
</g>
<!-- Node104 -->
<g id="node2" class="node">
<title>Node104</title>
<g id="a_node2"><a xlink:href="classLoopManager.html#ad636c6280f2a5a6bfe45f94946dc3a9f" target="_top" xlink:title="LoopManager::SetInputVolume">
<polygon fill="#ffffff" stroke="#000000" points="205,-.5 205,-19.5 370,-19.5 370,-.5 205,-.5"/>
<text text-anchor="middle" x="287.5" y="-7.5" font-family="Helvetica,sans-Serif" font-size="10.00" fill="#000000">LoopManager::SetInputVolume</text>
</a>
</g>
</g>
<!-- Node103&#45;&gt;Node104 -->
<g id="edge1" class="edge">
<title>Node103&#45;&gt;Node104</title>
<path fill="none" stroke="#191970" d="M179.1858,-10C187.7985,-10 196.4769,-10 204.9716,-10"/>
<polygon fill="#191970" stroke="#191970" points="179.1204,-6.5001 169.1203,-10 179.1203,-13.5001 179.1204,-6.5001"/>
</g>
<!-- Node105 -->
<g id="node3" class="node">
<title>Node105</title>
<g id="a_node3"><a xlink:href="classLoopManager.html#a4aada2d07b7ce0a67a8119ece4805966" target="_top" xlink:title="LoopManager::ReceiveEvent">
<polygon fill="#ffffff" stroke="#000000" points="406,-.5 406,-19.5 560,-19.5 560,-.5 406,-.5"/>
<text text-anchor="middle" x="483" y="-7.5" font-family="Helvetica,sans-Serif" font-size="10.00" fill="#000000">LoopManager::ReceiveEvent</text>
</a>
</g>
</g>
<!-- Node104&#45;&gt;Node105 -->
<g id="edge2" class="edge">
<title>Node104&#45;&gt;Node105</title>
<path fill="none" stroke="#191970" d="M380.2065,-10C388.8276,-10 397.5011,-10 405.958,-10"/>
<polygon fill="#191970" stroke="#191970" points="380.1263,-6.5001 370.1262,-10 380.1262,-13.5001 380.1263,-6.5001"/>
</g>
</g>
</svg>
