<?xml version="1.0" encoding="UTF-8" standalone="no"?>
<!DOCTYPE svg PUBLIC "-//W3C//DTD SVG 1.1//EN"
 "http://www.w3.org/Graphics/SVG/1.1/DTD/svg11.dtd">
<!-- Generated by graphviz version 2.40.1 (20161225.0304)
 -->
<!-- Title: Loop::GetNewLoop Pages: 1 -->
<svg width="696pt" height="85pt"
 viewBox="0.00 0.00 696.00 85.00" xmlns="http://www.w3.org/2000/svg" xmlns:xlink="http://www.w3.org/1999/xlink">
<g id="graph0" class="graph" transform="scale(1 1) rotate(0) translate(4 81)">
<title>Loop::GetNewLoop</title>
<polygon fill="#ffffff" stroke="transparent" points="-4,4 -4,-81 692,-81 692,4 -4,4"/>
<!-- Node6 -->
<g id="node1" class="node">
<title>Node6</title>
<polygon fill="#bfbfbf" stroke="#000000" points="0,-38.5 0,-57.5 108,-57.5 108,-38.5 0,-38.5"/>
<text text-anchor="middle" x="54" y="-45.5" font-family="Helvetica,sans-Serif" font-size="10.00" fill="#000000">Loop::GetNewLoop</text>
</g>
<!-- Node7 -->
<g id="node2" class="node">
<title>Node7</title>
<g id="a_node2"><a xlink:href="classLoopManager.html#ac70cdd5344c524d6aedfe5c67e856409" target="_top" xlink:title="LoopManager::SetupLoadLoop">
<polygon fill="#ffffff" stroke="#000000" points="144,-57.5 144,-76.5 306,-76.5 306,-57.5 144,-57.5"/>
<text text-anchor="middle" x="225" y="-64.5" font-family="Helvetica,sans-Serif" font-size="10.00" fill="#000000">LoopManager::SetupLoadLoop</text>
</a>
</g>
</g>
<!-- Node6&#45;&gt;Node7 -->
<g id="edge1" class="edge">
<title>Node6&#45;&gt;Node7</title>
<path fill="none" stroke="#191970" d="M118.1397,-55.1266C126.5036,-56.056 135.159,-57.0177 143.7567,-57.973"/>
<polygon fill="#191970" stroke="#191970" points="118.4308,-51.6375 108.1055,-54.0117 117.6578,-58.5947 118.4308,-51.6375"/>
</g>
<!-- Node9 -->
<g id="node4" class="node">
<title>Node9</title>
<g id="a_node4"><a xlink:href="classLoopManager.html#a861cdd2ace9aeb53b4ecf92728215265" target="_top" xlink:title="LoopManager::Deactivate">
<polygon fill="#ffffff" stroke="#000000" points="154.5,-19.5 154.5,-38.5 295.5,-38.5 295.5,-19.5 154.5,-19.5"/>
<text text-anchor="middle" x="225" y="-26.5" font-family="Helvetica,sans-Serif" font-size="10.00" fill="#000000">LoopManager::Deactivate</text>
</a>
</g>
</g>
<!-- Node6&#45;&gt;Node9 -->
<g id="edge3" class="edge">
<title>Node6&#45;&gt;Node9</title>
<path fill="none" stroke="#191970" d="M118.2776,-40.858C130.0483,-39.5502 142.3919,-38.1787 154.337,-36.8514"/>
<polygon fill="#191970" stroke="#191970" points="117.6578,-37.4053 108.1055,-41.9883 118.4308,-44.3625 117.6578,-37.4053"/>
</g>
<!-- Node8 -->
<g id="node3" class="node">
<title>Node8</title>
<g id="a_node3"><a xlink:href="classLoopManager.html#a564ecf9fdbe0fa8709ebc046afc148d5" target="_top" xlink:title="LoopManager::GetReadBlock">
<polygon fill="#ffffff" stroke="#000000" points="342,-57.5 342,-76.5 498,-76.5 498,-57.5 342,-57.5"/>
<text text-anchor="middle" x="420" y="-64.5" font-family="Helvetica,sans-Serif" font-size="10.00" fill="#000000">LoopManager::GetReadBlock</text>
</a>
</g>
</g>
<!-- Node7&#45;&gt;Node8 -->
<g id="edge2" class="edge">
<title>Node7&#45;&gt;Node8</title>
<path fill="none" stroke="#191970" d="M316.0433,-67C324.6358,-67 333.2954,-67 341.7537,-67"/>
<polygon fill="#191970" stroke="#191970" points="316.0035,-63.5001 306.0035,-67 316.0035,-70.5001 316.0035,-63.5001"/>
</g>
<!-- Node10 -->
<g id="node5" class="node">
<title>Node10</title>
<g id="a_node5"><a xlink:href="classFweelin.html#a4654015e2bc7cc94f3bfc421899a60d3" target="_top" xlink:title="Fweelin::TriggerSnapshot">
<polygon fill="#ffffff" stroke="#000000" points="351,-19.5 351,-38.5 489,-38.5 489,-19.5 351,-19.5"/>
<text text-anchor="middle" x="420" y="-26.5" font-family="Helvetica,sans-Serif" font-size="10.00" fill="#000000">Fweelin::TriggerSnapshot</text>
</a>
</g>
</g>
<!-- Node9&#45;&gt;Node10 -->
<g id="edge4" class="edge">
<title>Node9&#45;&gt;Node10</title>
<path fill="none" stroke="#191970" d="M305.9127,-29C320.8495,-29 336.3214,-29 350.8702,-29"/>
<polygon fill="#191970" stroke="#191970" points="305.6752,-25.5001 295.6752,-29 305.6751,-32.5001 305.6752,-25.5001"/>
</g>
<!-- Node11 -->
<g id="node6" class="node">
<title>Node11</title>
<g id="a_node6"><a xlink:href="classLoopManager.html#a4aada2d07b7ce0a67a8119ece4805966" target="_top" xlink:title="LoopManager::ReceiveEvent">
<polygon fill="#ffffff" stroke="#000000" points="534,-.5 534,-19.5 688,-19.5 688,-.5 534,-.5"/>
<text text-anchor="middle" x="611" y="-7.5" font-family="Helvetica,sans-Serif" font-size="10.00" fill="#000000">LoopManager::ReceiveEvent</text>
</a>
</g>
</g>
<!-- Node9&#45;&gt;Node11 -->
<g id="edge6" class="edge">
<title>Node9&#45;&gt;Node11</title>
<path fill="none" stroke="#191970" d="M282.5372,-17.7665C301.4055,-14.5897 322.5265,-11.5709 342,-10 406.472,-4.7992 479.919,-5.2258 533.759,-6.7131"/>
<polygon fill="#191970" stroke="#191970" points="281.8606,-14.3315 272.6048,-19.4871 283.0555,-21.2287 281.8606,-14.3315"/>
</g>
<!-- Node10&#45;&gt;Node11 -->
<g id="edge5" class="edge">
<title>Node10&#45;&gt;Node11</title>
<path fill="none" stroke="#191970" d="M499.212,-21.1203C510.6905,-19.9784 522.4925,-18.8044 533.928,-17.6668"/>
<polygon fill="#191970" stroke="#191970" points="498.8298,-17.6409 489.2254,-22.1137 499.5228,-24.6065 498.8298,-17.6409"/>
</g>
</g>
</svg>
