<?xml version="1.0" encoding="UTF-8" standalone="no"?>
<!DOCTYPE svg PUBLIC "-//W3C//DTD SVG 1.1//EN"
 "http://www.w3.org/Graphics/SVG/1.1/DTD/svg11.dtd">
<!-- Generated by graphviz version 2.40.1 (20161225.0304)
 -->
<!-- Title: FloConfig::GetLimiterReleaseRate Pages: 1 -->
<svg width="488pt" height="88pt"
 viewBox="0.00 0.00 488.00 88.00" xmlns="http://www.w3.org/2000/svg" xmlns:xlink="http://www.w3.org/1999/xlink">
<g id="graph0" class="graph" transform="scale(1 1) rotate(0) translate(4 84)">
<title>FloConfig::GetLimiterReleaseRate</title>
<polygon fill="#ffffff" stroke="transparent" points="-4,4 -4,-84 484,-84 484,4 -4,4"/>
<!-- Node165 -->
<g id="node1" class="node">
<title>Node165</title>
<polygon fill="#bfbfbf" stroke="#000000" points="0,-30 0,-49 180,-49 180,-30 0,-30"/>
<text text-anchor="middle" x="90" y="-37" font-family="Helvetica,sans-Serif" font-size="10.00" fill="#000000">FloConfig::GetLimiterReleaseRate</text>
</g>
<!-- Node166 -->
<g id="node2" class="node">
<title>Node166</title>
<g id="a_node2"><a xlink:href="classAutoLimitProcessor.html#a8b769b0b6d4eb0aa759d13a0387ade4c" target="_top" xlink:title="AutoLimitProcessor\l::ResetLimiter">
<polygon fill="#ffffff" stroke="#000000" points="216,-49.5 216,-79.5 327,-79.5 327,-49.5 216,-49.5"/>
<text text-anchor="start" x="224" y="-67.5" font-family="Helvetica,sans-Serif" font-size="10.00" fill="#000000">AutoLimitProcessor</text>
<text text-anchor="middle" x="271.5" y="-56.5" font-family="Helvetica,sans-Serif" font-size="10.00" fill="#000000">::ResetLimiter</text>
</a>
</g>
</g>
<!-- Node165&#45;&gt;Node166 -->
<g id="edge1" class="edge">
<title>Node165&#45;&gt;Node166</title>
<path fill="none" stroke="#191970" d="M169.34,-50.4284C185.0006,-52.5855 201.1218,-54.806 215.798,-56.8275"/>
<polygon fill="#191970" stroke="#191970" points="169.5192,-46.9201 159.1351,-49.0227 168.564,-53.8546 169.5192,-46.9201"/>
</g>
<!-- Node168 -->
<g id="node4" class="node">
<title>Node168</title>
<g id="a_node4"><a xlink:href="classAutoLimitProcessor.html#afd77c96b8603a53316f8beeea00341c6" target="_top" xlink:title="AutoLimitProcessor\l::process">
<polygon fill="#ffffff" stroke="#000000" points="216,-.5 216,-30.5 327,-30.5 327,-.5 216,-.5"/>
<text text-anchor="start" x="224" y="-18.5" font-family="Helvetica,sans-Serif" font-size="10.00" fill="#000000">AutoLimitProcessor</text>
<text text-anchor="middle" x="271.5" y="-7.5" font-family="Helvetica,sans-Serif" font-size="10.00" fill="#000000">::process</text>
</a>
</g>
</g>
<!-- Node165&#45;&gt;Node168 -->
<g id="edge3" class="edge">
<title>Node165&#45;&gt;Node168</title>
<path fill="none" stroke="#191970" d="M172.1589,-28.636C186.9401,-26.6815 202.028,-24.6864 215.8352,-22.8606"/>
<polygon fill="#191970" stroke="#191970" points="171.4491,-25.1993 161.9943,-29.9801 172.3668,-32.1389 171.4491,-25.1993"/>
</g>
<!-- Node167 -->
<g id="node3" class="node">
<title>Node167</title>
<g id="a_node3"><a xlink:href="classAutoLimitProcessor.html#a1f9aa779b4405ce033c0a77c39d80bb4" target="_top" xlink:title="AutoLimitProcessor\l::AutoLimitProcessor">
<polygon fill="#ffffff" stroke="#000000" points="363,-49.5 363,-79.5 480,-79.5 480,-49.5 363,-49.5"/>
<text text-anchor="start" x="371" y="-67.5" font-family="Helvetica,sans-Serif" font-size="10.00" fill="#000000">AutoLimitProcessor</text>
<text text-anchor="middle" x="421.5" y="-56.5" font-family="Helvetica,sans-Serif" font-size="10.00" fill="#000000">::AutoLimitProcessor</text>
</a>
</g>
</g>
<!-- Node166&#45;&gt;Node167 -->
<g id="edge2" class="edge">
<title>Node166&#45;&gt;Node167</title>
<path fill="none" stroke="#191970" d="M337.5291,-64.5C345.9568,-64.5 354.5378,-64.5 362.8381,-64.5"/>
<polygon fill="#191970" stroke="#191970" points="337.3545,-61.0001 327.3545,-64.5 337.3544,-68.0001 337.3545,-61.0001"/>
</g>
</g>
</svg>
