<?xml version="1.0" encoding="UTF-8" standalone="no"?>
<!DOCTYPE svg PUBLIC "-//W3C//DTD SVG 1.1//EN"
 "http://www.w3.org/Graphics/SVG/1.1/DTD/svg11.dtd">
<!-- Generated by graphviz version 2.40.1 (20161225.0304)
 -->
<!-- Title: SDLIO::GetSDLKey Pages: 1 -->
<svg width="879pt" height="85pt"
 viewBox="0.00 0.00 879.00 85.00" xmlns="http://www.w3.org/2000/svg" xmlns:xlink="http://www.w3.org/1999/xlink">
<g id="graph0" class="graph" transform="scale(1 1) rotate(0) translate(4 81)">
<title>SDLIO::GetSDLKey</title>
<polygon fill="#ffffff" stroke="transparent" points="-4,4 -4,-81 875,-81 875,4 -4,4"/>
<!-- Node47 -->
<g id="node1" class="node">
<title>Node47</title>
<polygon fill="#bfbfbf" stroke="#000000" points="0,-38.5 0,-57.5 106,-57.5 106,-38.5 0,-38.5"/>
<text text-anchor="middle" x="53" y="-45.5" font-family="Helvetica,sans-Serif" font-size="10.00" fill="#000000">SDLIO::GetSDLKey</text>
</g>
<!-- Node48 -->
<g id="node2" class="node">
<title>Node48</title>
<g id="a_node2"><a xlink:href="classInputMatrix.html#a0bea6c0ea81d9feee89332723249dc5f" target="_top" xlink:title="InputMatrix::AddOneKey">
<polygon fill="#ffffff" stroke="#000000" points="142,-57.5 142,-76.5 276,-76.5 276,-57.5 142,-57.5"/>
<text text-anchor="middle" x="209" y="-64.5" font-family="Helvetica,sans-Serif" font-size="10.00" fill="#000000">InputMatrix::AddOneKey</text>
</a>
</g>
</g>
<!-- Node47&#45;&gt;Node48 -->
<g id="edge1" class="edge">
<title>Node47&#45;&gt;Node48</title>
<path fill="none" stroke="#191970" d="M116.3728,-55.7185C124.7901,-56.7437 133.4432,-57.7976 141.9207,-58.8301"/>
<polygon fill="#191970" stroke="#191970" points="116.5999,-52.2204 106.25,-54.4856 115.7535,-59.169 116.5999,-52.2204"/>
</g>
<!-- Node50 -->
<g id="node4" class="node">
<title>Node50</title>
<g id="a_node4"><a xlink:href="classInputMatrix.html#a3fef785cfe7cbdd8c5cef1b3988a5928" target="_top" xlink:title="InputMatrix::ParseToken">
<polygon fill="#ffffff" stroke="#000000" points="142.5,-19.5 142.5,-38.5 275.5,-38.5 275.5,-19.5 142.5,-19.5"/>
<text text-anchor="middle" x="209" y="-26.5" font-family="Helvetica,sans-Serif" font-size="10.00" fill="#000000">InputMatrix::ParseToken</text>
</a>
</g>
</g>
<!-- Node47&#45;&gt;Node50 -->
<g id="edge3" class="edge">
<title>Node47&#45;&gt;Node50</title>
<path fill="none" stroke="#191970" d="M116.249,-40.2966C124.8874,-39.2445 133.7763,-38.1619 142.4708,-37.1029"/>
<polygon fill="#191970" stroke="#191970" points="115.7535,-36.831 106.25,-41.5144 116.5999,-43.7796 115.7535,-36.831"/>
</g>
<!-- Node49 -->
<g id="node3" class="node">
<title>Node49</title>
<g id="a_node3"><a xlink:href="classInputMatrix.html#a4fc37eabd1de7c948e5b1a7cf5a23ee5" target="_top" xlink:title="InputMatrix::ExtractKeys">
<polygon fill="#ffffff" stroke="#000000" points="323,-57.5 323,-76.5 459,-76.5 459,-57.5 323,-57.5"/>
<text text-anchor="middle" x="391" y="-64.5" font-family="Helvetica,sans-Serif" font-size="10.00" fill="#000000">InputMatrix::ExtractKeys</text>
</a>
</g>
</g>
<!-- Node48&#45;&gt;Node49 -->
<g id="edge2" class="edge">
<title>Node48&#45;&gt;Node49</title>
<path fill="none" stroke="#191970" d="M286.3375,-67C298.4588,-67 310.9109,-67 322.8072,-67"/>
<polygon fill="#191970" stroke="#191970" points="286.253,-63.5001 276.253,-67 286.253,-70.5001 286.253,-63.5001"/>
</g>
<!-- Node51 -->
<g id="node5" class="node">
<title>Node51</title>
<g id="a_node5"><a xlink:href="classInputMatrix.html#a0f597dbf1d6c784c851626005fb2ee72" target="_top" xlink:title="InputMatrix::ParseExpression">
<polygon fill="#ffffff" stroke="#000000" points="312,-19.5 312,-38.5 470,-38.5 470,-19.5 312,-19.5"/>
<text text-anchor="middle" x="391" y="-26.5" font-family="Helvetica,sans-Serif" font-size="10.00" fill="#000000">InputMatrix::ParseExpression</text>
</a>
</g>
</g>
<!-- Node50&#45;&gt;Node51 -->
<g id="edge4" class="edge">
<title>Node50&#45;&gt;Node51</title>
<path fill="none" stroke="#191970" d="M285.7854,-29C294.4306,-29 303.2512,-29 311.9248,-29"/>
<polygon fill="#191970" stroke="#191970" points="285.7367,-25.5001 275.7366,-29 285.7366,-32.5001 285.7367,-25.5001"/>
</g>
<!-- Node52 -->
<g id="node6" class="node">
<title>Node52</title>
<g id="a_node6"><a xlink:href="classInputMatrix.html#ab36ad421b65b64d6e64f228b84792b4c" target="_top" xlink:title="InputMatrix::CreateParameterSets">
<polygon fill="#ffffff" stroke="#000000" points="506,-38.5 506,-57.5 688,-57.5 688,-38.5 506,-38.5"/>
<text text-anchor="middle" x="597" y="-45.5" font-family="Helvetica,sans-Serif" font-size="10.00" fill="#000000">InputMatrix::CreateParameterSets</text>
</a>
</g>
</g>
<!-- Node51&#45;&gt;Node52 -->
<g id="edge5" class="edge">
<title>Node51&#45;&gt;Node52</title>
<path fill="none" stroke="#191970" d="M480.2839,-37.2349C488.7328,-38.0142 497.3071,-38.805 505.7739,-39.5859"/>
<polygon fill="#191970" stroke="#191970" points="480.335,-33.7249 470.0558,-36.2916 479.6921,-40.6953 480.335,-33.7249"/>
</g>
<!-- Node54 -->
<g id="node8" class="node">
<title>Node54</title>
<g id="a_node8"><a xlink:href="classInputMatrix.html#a767b7c5cd149e18a51105922aa9e8abb" target="_top" xlink:title="InputMatrix::CreateConditions">
<polygon fill="#ffffff" stroke="#000000" points="516,-.5 516,-19.5 678,-19.5 678,-.5 516,-.5"/>
<text text-anchor="middle" x="597" y="-7.5" font-family="Helvetica,sans-Serif" font-size="10.00" fill="#000000">InputMatrix::CreateConditions</text>
</a>
</g>
</g>
<!-- Node51&#45;&gt;Node54 -->
<g id="edge7" class="edge">
<title>Node51&#45;&gt;Node54</title>
<path fill="none" stroke="#191970" d="M480.3298,-20.7608C492.1102,-19.6743 504.1333,-18.5654 515.7682,-17.4923"/>
<polygon fill="#191970" stroke="#191970" points="479.6921,-17.3047 470.0558,-21.7084 480.335,-24.2751 479.6921,-17.3047"/>
</g>
<!-- Node53 -->
<g id="node7" class="node">
<title>Node53</title>
<g id="a_node7"><a xlink:href="classInputMatrix.html#a792ede8dc637e3d8e6c4aa8141596d18" target="_top" xlink:title="InputMatrix::CreateBinding">
<polygon fill="#ffffff" stroke="#000000" points="724,-19.5 724,-38.5 871,-38.5 871,-19.5 724,-19.5"/>
<text text-anchor="middle" x="797.5" y="-26.5" font-family="Helvetica,sans-Serif" font-size="10.00" fill="#000000">InputMatrix::CreateBinding</text>
</a>
</g>
</g>
<!-- Node52&#45;&gt;Node53 -->
<g id="edge6" class="edge">
<title>Node52&#45;&gt;Node53</title>
<path fill="none" stroke="#191970" d="M698.3074,-38.3998C706.9636,-37.5795 715.6093,-36.7602 723.9864,-35.9664"/>
<polygon fill="#191970" stroke="#191970" points="697.7816,-34.9339 688.1564,-39.3617 698.442,-41.9026 697.7816,-34.9339"/>
</g>
<!-- Node54&#45;&gt;Node53 -->
<g id="edge8" class="edge">
<title>Node54&#45;&gt;Node53</title>
<path fill="none" stroke="#191970" d="M688.2344,-18.6456C700.1722,-19.7769 712.282,-20.9245 723.8792,-22.0235"/>
<polygon fill="#191970" stroke="#191970" points="688.5476,-15.1597 678.262,-17.7006 687.8872,-22.1285 688.5476,-15.1597"/>
</g>
</g>
</svg>
