<?xml version="1.0" encoding="UTF-8" standalone="no"?>
<!DOCTYPE svg PUBLIC "-//W3C//DTD SVG 1.1//EN"
 "http://www.w3.org/Graphics/SVG/1.1/DTD/svg11.dtd">
<!-- Generated by graphviz version 2.40.1 (20161225.0304)
 -->
<!-- Title: MidiIO::SetMIDIForPatch Pages: 1 -->
<svg width="478pt" height="66pt"
 viewBox="0.00 0.00 478.00 66.00" xmlns="http://www.w3.org/2000/svg" xmlns:xlink="http://www.w3.org/1999/xlink">
<g id="graph0" class="graph" transform="scale(1 1) rotate(0) translate(4 62)">
<title>MidiIO::SetMIDIForPatch</title>
<polygon fill="#ffffff" stroke="transparent" points="-4,4 -4,-62 474,-62 474,4 -4,4"/>
<!-- Node360 -->
<g id="node1" class="node">
<title>Node360</title>
<polygon fill="#bfbfbf" stroke="#000000" points="0,-19.5 0,-38.5 132,-38.5 132,-19.5 0,-19.5"/>
<text text-anchor="middle" x="66" y="-26.5" font-family="Helvetica,sans-Serif" font-size="10.00" fill="#000000">MidiIO::SetMIDIForPatch</text>
</g>
<!-- Node361 -->
<g id="node2" class="node">
<title>Node361</title>
<g id="a_node2"><a xlink:href="classPatchBrowser.html#a90246446ed1a2650a2a7555f5d76c653" target="_top" xlink:title="PatchBrowser::SetMIDIFor\lPatch">
<polygon fill="#ffffff" stroke="#000000" points="168,-14 168,-44 309,-44 309,-14 168,-14"/>
<text text-anchor="start" x="176" y="-32" font-family="Helvetica,sans-Serif" font-size="10.00" fill="#000000">PatchBrowser::SetMIDIFor</text>
<text text-anchor="middle" x="238.5" y="-21" font-family="Helvetica,sans-Serif" font-size="10.00" fill="#000000">Patch</text>
</a>
</g>
</g>
<!-- Node360&#45;&gt;Node361 -->
<g id="edge1" class="edge">
<title>Node360&#45;&gt;Node361</title>
<path fill="none" stroke="#191970" d="M142.442,-29C150.9091,-29 159.5039,-29 167.8944,-29"/>
<polygon fill="#191970" stroke="#191970" points="142.1997,-25.5001 132.1997,-29 142.1996,-32.5001 142.1997,-25.5001"/>
</g>
<!-- Node362 -->
<g id="node3" class="node">
<title>Node362</title>
<g id="a_node3"><a xlink:href="classFweelin.html#acacaa80535c0688358984d2070fedb71" target="_top" xlink:title="Fweelin::ItemSelected">
<polygon fill="#ffffff" stroke="#000000" points="345,-38.5 345,-57.5 470,-57.5 470,-38.5 345,-38.5"/>
<text text-anchor="middle" x="407.5" y="-45.5" font-family="Helvetica,sans-Serif" font-size="10.00" fill="#000000">Fweelin::ItemSelected</text>
</a>
</g>
</g>
<!-- Node361&#45;&gt;Node362 -->
<g id="edge2" class="edge">
<title>Node361&#45;&gt;Node362</title>
<path fill="none" stroke="#191970" d="M319.2564,-38.0791C327.8684,-39.0473 336.5324,-40.0214 344.8896,-40.961"/>
<polygon fill="#191970" stroke="#191970" points="319.5205,-34.5868 309.192,-36.9476 318.7383,-41.543 319.5205,-34.5868"/>
</g>
<!-- Node363 -->
<g id="node4" class="node">
<title>Node363</title>
<g id="a_node4"><a xlink:href="classMidiIO.html#a222509803679fcf4bcb7b4b4a34cf0cd" target="_top" xlink:title="MidiIO::activate">
<polygon fill="#ffffff" stroke="#000000" points="361,-.5 361,-19.5 454,-19.5 454,-.5 361,-.5"/>
<text text-anchor="middle" x="407.5" y="-7.5" font-family="Helvetica,sans-Serif" font-size="10.00" fill="#000000">MidiIO::activate</text>
</a>
</g>
</g>
<!-- Node361&#45;&gt;Node363 -->
<g id="edge3" class="edge">
<title>Node361&#45;&gt;Node363</title>
<path fill="none" stroke="#191970" d="M319.4365,-19.9006C333.569,-18.3118 347.8347,-16.7079 360.6485,-15.2673"/>
<polygon fill="#191970" stroke="#191970" points="318.7383,-16.457 309.192,-21.0524 319.5205,-23.4132 318.7383,-16.457"/>
</g>
</g>
</svg>
