<?xml version="1.0" encoding="UTF-8" standalone="no"?>
<!DOCTYPE svg PUBLIC "-//W3C//DTD SVG 1.1//EN"
 "http://www.w3.org/Graphics/SVG/1.1/DTD/svg11.dtd">
<!-- Generated by graphviz version 2.40.1 (20161225.0304)
 -->
<!-- Title: RecordProcessor::FadeOut_Input Pages: 1 -->
<svg width="515pt" height="66pt"
 viewBox="0.00 0.00 515.00 66.00" xmlns="http://www.w3.org/2000/svg" xmlns:xlink="http://www.w3.org/1999/xlink">
<g id="graph0" class="graph" transform="scale(1 1) rotate(0) translate(4 62)">
<title>RecordProcessor::FadeOut_Input</title>
<polygon fill="#ffffff" stroke="transparent" points="-4,4 -4,-62 511,-62 511,4 -4,4"/>
<!-- Node151 -->
<g id="node1" class="node">
<title>Node151</title>
<polygon fill="#bfbfbf" stroke="#000000" points="0,-14 0,-44 143,-44 143,-14 0,-14"/>
<text text-anchor="start" x="8" y="-32" font-family="Helvetica,sans-Serif" font-size="10.00" fill="#000000">RecordProcessor::FadeOut</text>
<text text-anchor="middle" x="71.5" y="-21" font-family="Helvetica,sans-Serif" font-size="10.00" fill="#000000">_Input</text>
</g>
<!-- Node152 -->
<g id="node2" class="node">
<title>Node152</title>
<g id="a_node2"><a xlink:href="classRecordProcessor.html#a8fbde2e8b6f9e9dafb89ef0b06e6a11a" target="_top" xlink:title="RecordProcessor::Jump">
<polygon fill="#ffffff" stroke="#000000" points="185,-38.5 185,-57.5 313,-57.5 313,-38.5 185,-38.5"/>
<text text-anchor="middle" x="249" y="-45.5" font-family="Helvetica,sans-Serif" font-size="10.00" fill="#000000">RecordProcessor::Jump</text>
</a>
</g>
</g>
<!-- Node151&#45;&gt;Node152 -->
<g id="edge1" class="edge">
<title>Node151&#45;&gt;Node152</title>
<path fill="none" stroke="#191970" d="M153.2614,-37.7519C163.8351,-38.8838 174.5418,-40.0298 184.7763,-41.1254"/>
<polygon fill="#191970" stroke="#191970" points="153.5002,-34.2576 143.1844,-36.6733 152.7551,-41.2178 153.5002,-34.2576"/>
</g>
<!-- Node154 -->
<g id="node4" class="node">
<title>Node154</title>
<g id="a_node4"><a xlink:href="classRecordProcessor.html#ad36d69ec9d41b424eb2e6c5fa2e0cf3a" target="_top" xlink:title="RecordProcessor::process">
<polygon fill="#ffffff" stroke="#000000" points="179,-.5 179,-19.5 319,-19.5 319,-.5 179,-.5"/>
<text text-anchor="middle" x="249" y="-7.5" font-family="Helvetica,sans-Serif" font-size="10.00" fill="#000000">RecordProcessor::process</text>
</a>
</g>
</g>
<!-- Node151&#45;&gt;Node154 -->
<g id="edge3" class="edge">
<title>Node151&#45;&gt;Node154</title>
<path fill="none" stroke="#191970" d="M153.1677,-20.2581C161.7229,-19.3423 170.3664,-18.4171 178.7776,-17.5168"/>
<polygon fill="#191970" stroke="#191970" points="152.7551,-16.7822 143.1844,-21.3267 153.5002,-23.7424 152.7551,-16.7822"/>
</g>
<!-- Node153 -->
<g id="node3" class="node">
<title>Node153</title>
<g id="a_node3"><a xlink:href="classRecordProcessor.html#a6168d8dc850602a348dc74ab1224263a" target="_top" xlink:title="RecordProcessor::PulseSync">
<polygon fill="#ffffff" stroke="#000000" points="355,-38.5 355,-57.5 507,-57.5 507,-38.5 355,-38.5"/>
<text text-anchor="middle" x="431" y="-45.5" font-family="Helvetica,sans-Serif" font-size="10.00" fill="#000000">RecordProcessor::PulseSync</text>
</a>
</g>
</g>
<!-- Node152&#45;&gt;Node153 -->
<g id="edge2" class="edge">
<title>Node152&#45;&gt;Node153</title>
<path fill="none" stroke="#191970" d="M323.4397,-48C333.8334,-48 344.5254,-48 354.9483,-48"/>
<polygon fill="#191970" stroke="#191970" points="323.1664,-44.5001 313.1664,-48 323.1664,-51.5001 323.1664,-44.5001"/>
</g>
</g>
</svg>
