<?xml version="1.0" encoding="UTF-8" standalone="no"?>
<!DOCTYPE svg PUBLIC "-//W3C//DTD SVG 1.1//EN"
 "http://www.w3.org/Graphics/SVG/1.1/DTD/svg11.dtd">
<!-- Generated by graphviz version 2.40.1 (20161225.0304)
 -->
<!-- Title: RootProcessor::RootProcessor Pages: 1 -->
<svg width="732pt" height="142pt"
 viewBox="0.00 0.00 732.00 142.00" xmlns="http://www.w3.org/2000/svg" xmlns:xlink="http://www.w3.org/1999/xlink">
<g id="graph0" class="graph" transform="scale(1 1) rotate(0) translate(4 138)">
<title>RootProcessor::RootProcessor</title>
<polygon fill="#ffffff" stroke="transparent" points="-4,4 -4,-138 728,-138 728,4 -4,4"/>
<!-- Node0 -->
<g id="node1" class="node">
<title>Node0</title>
<polygon fill="#bfbfbf" stroke="#000000" points="0,-57.5 0,-76.5 161,-76.5 161,-57.5 0,-57.5"/>
<text text-anchor="middle" x="80.5" y="-64.5" font-family="Helvetica,sans-Serif" font-size="10.00" fill="#000000">RootProcessor::RootProcessor</text>
</g>
<!-- Node1 -->
<g id="node2" class="node">
<title>Node1</title>
<g id="a_node2"><a xlink:href="classFweelin.html#a538440216608aed67e6940c2903c3072" target="_top" xlink:title="Fweelin::getBUFSZ">
<polygon fill="#ffffff" stroke="#000000" points="222,-114.5 222,-133.5 330,-133.5 330,-114.5 222,-114.5"/>
<text text-anchor="middle" x="276" y="-121.5" font-family="Helvetica,sans-Serif" font-size="10.00" fill="#000000">Fweelin::getBUFSZ</text>
</a>
</g>
</g>
<!-- Node0&#45;&gt;Node1 -->
<g id="edge1" class="edge">
<title>Node0&#45;&gt;Node1</title>
<path fill="none" stroke="#191970" d="M107.6182,-76.5212C131.1107,-84.6066 166.0884,-96.2563 197,-105 205.5801,-107.427 214.7396,-109.8139 223.6691,-112.0324"/>
<polygon fill="#191970" stroke="#191970" points="223.0654,-115.4877 233.6101,-114.4589 224.7253,-108.6874 223.0654,-115.4877"/>
</g>
<!-- Node2 -->
<g id="node3" class="node">
<title>Node2</title>
<g id="a_node3"><a xlink:href="classAudioBuffers.html#ae41352754c280c76eb03a902cbe6819a" target="_top" xlink:title="AudioBuffers::IsStereoMaster">
<polygon fill="#ffffff" stroke="#000000" points="197,-76.5 197,-95.5 355,-95.5 355,-76.5 197,-76.5"/>
<text text-anchor="middle" x="276" y="-83.5" font-family="Helvetica,sans-Serif" font-size="10.00" fill="#000000">AudioBuffers::IsStereoMaster</text>
</a>
</g>
</g>
<!-- Node0&#45;&gt;Node2 -->
<g id="edge2" class="edge">
<title>Node0&#45;&gt;Node2</title>
<path fill="none" stroke="#191970" d="M161.146,-74.8377C169.6131,-75.6606 178.2569,-76.5007 186.8125,-77.3322"/>
<polygon fill="#191970" stroke="#191970" points="186.508,-80.819 196.7997,-78.3028 187.1852,-73.8518 186.508,-80.819"/>
</g>
<!-- Node6 -->
<g id="node7" class="node">
<title>Node6</title>
<g id="a_node7"><a xlink:href="classFweelin.html#a21e51d7b639faaecc415624ab6c16a71" target="_top" xlink:title="Fweelin::getEMG">
<polygon fill="#ffffff" stroke="#000000" points="227,-38.5 227,-57.5 325,-57.5 325,-38.5 227,-38.5"/>
<text text-anchor="middle" x="276" y="-45.5" font-family="Helvetica,sans-Serif" font-size="10.00" fill="#000000">Fweelin::getEMG</text>
</a>
</g>
</g>
<!-- Node0&#45;&gt;Node6 -->
<g id="edge6" class="edge">
<title>Node0&#45;&gt;Node6</title>
<path fill="none" stroke="#191970" d="M161.146,-59.1623C179.7861,-57.3507 199.2826,-55.4559 216.8094,-53.7525"/>
<polygon fill="#191970" stroke="#191970" points="217.2655,-57.2248 226.88,-52.7738 216.5883,-50.2576 217.2655,-57.2248"/>
</g>
<!-- Node7 -->
<g id="node8" class="node">
<title>Node7</title>
<g id="a_node8"><a xlink:href="classEventManager.html#a900be2c959408f76e6926c96197bd773" target="_top" xlink:title="EventManager::ListenEvent">
<polygon fill="#ffffff" stroke="#000000" points="201.5,-.5 201.5,-19.5 350.5,-19.5 350.5,-.5 201.5,-.5"/>
<text text-anchor="middle" x="276" y="-7.5" font-family="Helvetica,sans-Serif" font-size="10.00" fill="#000000">EventManager::ListenEvent</text>
</a>
</g>
</g>
<!-- Node0&#45;&gt;Node7 -->
<g id="edge7" class="edge">
<title>Node0&#45;&gt;Node7</title>
<path fill="none" stroke="#191970" d="M107.6182,-57.4788C131.1107,-49.3934 166.0884,-37.7437 197,-29 205.5801,-26.573 214.7396,-24.1861 223.6691,-21.9676"/>
<polygon fill="#191970" stroke="#191970" points="224.7253,-25.3126 233.6101,-19.5411 223.0654,-18.5123 224.7253,-25.3126"/>
</g>
<!-- Node3 -->
<g id="node4" class="node">
<title>Node3</title>
<g id="a_node4"><a xlink:href="classFweelin.html#a681d7ca8d0789199af135f22c26a5409" target="_top" xlink:title="Fweelin::getCFG">
<polygon fill="#ffffff" stroke="#000000" points="413.5,-95.5 413.5,-114.5 508.5,-114.5 508.5,-95.5 413.5,-95.5"/>
<text text-anchor="middle" x="461" y="-102.5" font-family="Helvetica,sans-Serif" font-size="10.00" fill="#000000">Fweelin::getCFG</text>
</a>
</g>
</g>
<!-- Node2&#45;&gt;Node3 -->
<g id="edge3" class="edge">
<title>Node2&#45;&gt;Node3</title>
<path fill="none" stroke="#191970" d="M355.2617,-94.1404C371.3576,-95.7935 387.9994,-97.5026 403.1833,-99.0621"/>
<polygon fill="#191970" stroke="#191970" points="403.1324,-102.5752 413.4377,-100.1152 403.8476,-95.6118 403.1324,-102.5752"/>
</g>
<!-- Node4 -->
<g id="node5" class="node">
<title>Node4</title>
<g id="a_node5"><a xlink:href="classFloConfig.html#ac0e1101c8fc196548c0e1dc26251ea2b" target="_top" xlink:title="FloConfig::IsStereoMaster">
<polygon fill="#ffffff" stroke="#000000" points="391,-57.5 391,-76.5 531,-76.5 531,-57.5 391,-57.5"/>
<text text-anchor="middle" x="461" y="-64.5" font-family="Helvetica,sans-Serif" font-size="10.00" fill="#000000">FloConfig::IsStereoMaster</text>
</a>
</g>
</g>
<!-- Node2&#45;&gt;Node4 -->
<g id="edge4" class="edge">
<title>Node2&#45;&gt;Node4</title>
<path fill="none" stroke="#191970" d="M355.2617,-77.8596C363.6981,-76.9932 372.2845,-76.1113 380.7323,-75.2437"/>
<polygon fill="#191970" stroke="#191970" points="381.3586,-78.6979 390.9487,-74.1945 380.6434,-71.7345 381.3586,-78.6979"/>
</g>
<!-- Node5 -->
<g id="node6" class="node">
<title>Node5</title>
<g id="a_node6"><a xlink:href="classAudioBuffers.html#a3178afd68c48f41060d100606623a704" target="_top" xlink:title="AudioBuffers::GetIntAudioIns">
<polygon fill="#ffffff" stroke="#000000" points="567,-57.5 567,-76.5 724,-76.5 724,-57.5 567,-57.5"/>
<text text-anchor="middle" x="645.5" y="-64.5" font-family="Helvetica,sans-Serif" font-size="10.00" fill="#000000">AudioBuffers::GetIntAudioIns</text>
</a>
</g>
</g>
<!-- Node4&#45;&gt;Node5 -->
<g id="edge5" class="edge">
<title>Node4&#45;&gt;Node5</title>
<path fill="none" stroke="#191970" d="M531.0146,-67C539.4407,-67 548.1299,-67 556.7777,-67"/>
<polygon fill="#191970" stroke="#191970" points="556.8922,-70.5001 566.8922,-67 556.8922,-63.5001 556.8922,-70.5001"/>
</g>
</g>
</svg>
