<?xml version="1.0" encoding="UTF-8" standalone="no"?>
<!DOCTYPE svg PUBLIC "-//W3C//DTD SVG 1.1//EN"
 "http://www.w3.org/Graphics/SVG/1.1/DTD/svg11.dtd">
<!-- Generated by graphviz version 2.40.1 (20161225.0304)
 -->
<!-- Title: FloDisplayBar Pages: 1 -->
<svg width="944pt" height="1004pt"
 viewBox="0.00 0.00 944.00 1004.00" xmlns="http://www.w3.org/2000/svg" xmlns:xlink="http://www.w3.org/1999/xlink">
<g id="graph0" class="graph" transform="scale(1 1) rotate(0) translate(4 1000)">
<title>FloDisplayBar</title>
<polygon fill="#ffffff" stroke="transparent" points="-4,4 -4,-1000 940,-1000 940,4 -4,4"/>
<!-- Node3 -->
<g id="node1" class="node">
<title>Node3</title>
<polygon fill="#bfbfbf" stroke="#000000" points="712.5,-.5 712.5,-68.5 815.5,-68.5 815.5,-.5 712.5,-.5"/>
<text text-anchor="middle" x="764" y="-56.5" font-family="Helvetica,sans-Serif" font-size="10.00" fill="#000000">FloDisplayBar</text>
<polyline fill="none" stroke="#000000" points="712.5,-49.5 815.5,-49.5 "/>
<text text-anchor="middle" x="764" y="-37.5" font-family="Helvetica,sans-Serif" font-size="10.00" fill="#000000"> </text>
<polyline fill="none" stroke="#000000" points="712.5,-30.5 815.5,-30.5 "/>
<text text-anchor="start" x="720.5" y="-18.5" font-family="Helvetica,sans-Serif" font-size="10.00" fill="#000000">+ FloDisplayBar()</text>
<text text-anchor="start" x="720.5" y="-7.5" font-family="Helvetica,sans-Serif" font-size="10.00" fill="#000000">+ Draw()</text>
</g>
<!-- Node4 -->
<g id="node2" class="node">
<title>Node4</title>
<g id="a_node2"><a xlink:href="classFloDisplay.html" target="_top" xlink:title="{FloDisplay\n||+ FloDisplay()\l+ ~FloDisplay()\l+ Draw()\l+ GetFloDisplayType()\l+ SetShow()\l}">
<polygon fill="#ffffff" stroke="#000000" points="513,-127.5 513,-228.5 639,-228.5 639,-127.5 513,-127.5"/>
<text text-anchor="middle" x="576" y="-216.5" font-family="Helvetica,sans-Serif" font-size="10.00" fill="#000000">FloDisplay</text>
<polyline fill="none" stroke="#000000" points="513,-209.5 639,-209.5 "/>
<text text-anchor="middle" x="576" y="-197.5" font-family="Helvetica,sans-Serif" font-size="10.00" fill="#000000"> </text>
<polyline fill="none" stroke="#000000" points="513,-190.5 639,-190.5 "/>
<text text-anchor="start" x="521" y="-178.5" font-family="Helvetica,sans-Serif" font-size="10.00" fill="#000000">+ FloDisplay()</text>
<text text-anchor="start" x="521" y="-167.5" font-family="Helvetica,sans-Serif" font-size="10.00" fill="#000000">+ ~FloDisplay()</text>
<text text-anchor="start" x="521" y="-156.5" font-family="Helvetica,sans-Serif" font-size="10.00" fill="#000000">+ Draw()</text>
<text text-anchor="start" x="521" y="-145.5" font-family="Helvetica,sans-Serif" font-size="10.00" fill="#000000">+ GetFloDisplayType()</text>
<text text-anchor="start" x="521" y="-134.5" font-family="Helvetica,sans-Serif" font-size="10.00" fill="#000000">+ SetShow()</text>
</a>
</g>
</g>
<!-- Node4&#45;&gt;Node3 -->
<g id="edge1" class="edge">
<title>Node4&#45;&gt;Node3</title>
<path fill="none" stroke="#191970" d="M647.2547,-123.6114C671.5017,-105.1037 697.8969,-84.9564 719.4457,-68.5082"/>
<polygon fill="none" stroke="#191970" points="644.9497,-120.9678 639.1243,-129.8174 649.1969,-126.5321 644.9497,-120.9678"/>
</g>
<!-- Node4&#45;&gt;Node4 -->
<g id="edge26" class="edge">
<title>Node4&#45;&gt;Node4</title>
<path fill="none" stroke="#404040" d="M639.1681,-190.896C649.7194,-189.0916 657,-184.793 657,-178 657,-174.179 654.6964,-171.1471 650.8028,-168.9045"/>
<polygon fill="none" stroke="#404040" points="650.575,-168.8301 643.6295,-170.7693 639.1681,-165.104 646.1136,-163.1648 650.575,-168.8301"/>
<text text-anchor="middle" x="674" y="-175.5" font-family="Helvetica,sans-Serif" font-size="10.00" fill="#000000"> +next</text>
</g>
<!-- Node5 -->
<g id="node3" class="node">
<title>Node5</title>
<polygon fill="#ffffff" stroke="#bfbfbf" points="538,-938.5 538,-995.5 576,-995.5 576,-938.5 538,-938.5"/>
<text text-anchor="middle" x="557" y="-983.5" font-family="Helvetica,sans-Serif" font-size="10.00" fill="#000000">char</text>
<polyline fill="none" stroke="#bfbfbf" points="538,-976.5 576,-976.5 "/>
<text text-anchor="middle" x="557" y="-964.5" font-family="Helvetica,sans-Serif" font-size="10.00" fill="#000000"> </text>
<polyline fill="none" stroke="#bfbfbf" points="538,-957.5 576,-957.5 "/>
<text text-anchor="middle" x="557" y="-945.5" font-family="Helvetica,sans-Serif" font-size="10.00" fill="#000000"> </text>
</g>
<!-- Node5&#45;&gt;Node3 -->
<g id="edge27" class="edge">
<title>Node5&#45;&gt;Node3</title>
<path fill="none" stroke="#404040" d="M576.0044,-963.167C614.8963,-954.2411 703.3977,-928.1635 745,-869 767.0167,-837.6895 764,-823.2764 764,-785 764,-785 764,-785 764,-178 764,-145.5934 764,-109.0702 764,-80.9807"/>
<polygon fill="none" stroke="#404040" points="764.0001,-80.7132 760,-74.7132 764,-68.7132 768,-74.7132 764.0001,-80.7132"/>
<text text-anchor="middle" x="787" y="-457" font-family="Helvetica,sans-Serif" font-size="10.00" fill="#000000"> +marks</text>
<text text-anchor="middle" x="787" y="-446" font-family="Helvetica,sans-Serif" font-size="10.00" fill="#000000">+dbscale</text>
</g>
<!-- Node5&#45;&gt;Node4 -->
<g id="edge2" class="edge">
<title>Node5&#45;&gt;Node4</title>
<path fill="none" stroke="#404040" d="M561.8437,-938.4111C567.4729,-902.6485 576,-839.4837 576,-785 576,-785 576,-785 576,-327 576,-298.7508 576,-267.4889 576,-240.9252"/>
<polygon fill="none" stroke="#404040" points="576.0001,-240.6886 572,-234.6886 576,-228.6886 580,-234.6886 576.0001,-240.6886"/>
<text text-anchor="middle" x="607" y="-531.5" font-family="Helvetica,sans-Serif" font-size="10.00" fill="#000000"> +forceshow</text>
<text text-anchor="middle" x="607" y="-520.5" font-family="Helvetica,sans-Serif" font-size="10.00" fill="#000000">+show</text>
<text text-anchor="middle" x="607" y="-509.5" font-family="Helvetica,sans-Serif" font-size="10.00" fill="#000000">+title</text>
</g>
<!-- Node6 -->
<g id="node4" class="node">
<title>Node6</title>
<g id="a_node4"><a xlink:href="classFloFont.html" target="_top" xlink:title="{FloFont\n||+ FloFont()\l+ ~FloFont()\l}">
<polygon fill="#ffffff" stroke="#000000" points="604.5,-751 604.5,-819 683.5,-819 683.5,-751 604.5,-751"/>
<text text-anchor="middle" x="644" y="-807" font-family="Helvetica,sans-Serif" font-size="10.00" fill="#000000">FloFont</text>
<polyline fill="none" stroke="#000000" points="604.5,-800 683.5,-800 "/>
<text text-anchor="middle" x="644" y="-788" font-family="Helvetica,sans-Serif" font-size="10.00" fill="#000000"> </text>
<polyline fill="none" stroke="#000000" points="604.5,-781 683.5,-781 "/>
<text text-anchor="start" x="612.5" y="-769" font-family="Helvetica,sans-Serif" font-size="10.00" fill="#000000">+ FloFont()</text>
<text text-anchor="start" x="612.5" y="-758" font-family="Helvetica,sans-Serif" font-size="10.00" fill="#000000">+ ~FloFont()</text>
</a>
</g>
</g>
<!-- Node5&#45;&gt;Node6 -->
<g id="edge4" class="edge">
<title>Node5&#45;&gt;Node6</title>
<path fill="none" stroke="#404040" d="M576.2717,-941.8333C581.0879,-934.9562 586.0118,-927.3644 590,-920 605.4973,-891.3831 619.0809,-857.3513 628.7479,-830.6162"/>
<polygon fill="none" stroke="#404040" points="628.7619,-830.5766 626.9992,-823.5842 632.7757,-819.2678 634.5384,-826.2601 628.7619,-830.5766"/>
<text text-anchor="middle" x="633.5" y="-906.5" font-family="Helvetica,sans-Serif" font-size="10.00" fill="#000000"> +filename</text>
<text text-anchor="middle" x="633.5" y="-895.5" font-family="Helvetica,sans-Serif" font-size="10.00" fill="#000000">+name</text>
</g>
<!-- Node12 -->
<g id="node10" class="node">
<title>Node12</title>
<g id="a_node10"><a xlink:href="classUserVariable.html" target="_top" xlink:title="{UserVariable\n||+ UserVariable()\l+ ~UserVariable()\l+ RaisePrecision()\l+ operator\&gt;()\l+ operator==()\l+ operator!=()\l+ operator+=()\l+ GetDelta()\l+ operator&#45;=()\l+ operator*=()\land 18 more...\l}">
<polygon fill="#ffffff" stroke="#000000" points="248.5,-701.5 248.5,-868.5 355.5,-868.5 355.5,-701.5 248.5,-701.5"/>
<text text-anchor="middle" x="302" y="-856.5" font-family="Helvetica,sans-Serif" font-size="10.00" fill="#000000">UserVariable</text>
<polyline fill="none" stroke="#000000" points="248.5,-849.5 355.5,-849.5 "/>
<text text-anchor="middle" x="302" y="-837.5" font-family="Helvetica,sans-Serif" font-size="10.00" fill="#000000"> </text>
<polyline fill="none" stroke="#000000" points="248.5,-830.5 355.5,-830.5 "/>
<text text-anchor="start" x="256.5" y="-818.5" font-family="Helvetica,sans-Serif" font-size="10.00" fill="#000000">+ UserVariable()</text>
<text text-anchor="start" x="256.5" y="-807.5" font-family="Helvetica,sans-Serif" font-size="10.00" fill="#000000">+ ~UserVariable()</text>
<text text-anchor="start" x="256.5" y="-796.5" font-family="Helvetica,sans-Serif" font-size="10.00" fill="#000000">+ RaisePrecision()</text>
<text text-anchor="start" x="256.5" y="-785.5" font-family="Helvetica,sans-Serif" font-size="10.00" fill="#000000">+ operator&gt;()</text>
<text text-anchor="start" x="256.5" y="-774.5" font-family="Helvetica,sans-Serif" font-size="10.00" fill="#000000">+ operator==()</text>
<text text-anchor="start" x="256.5" y="-763.5" font-family="Helvetica,sans-Serif" font-size="10.00" fill="#000000">+ operator!=()</text>
<text text-anchor="start" x="256.5" y="-752.5" font-family="Helvetica,sans-Serif" font-size="10.00" fill="#000000">+ operator+=()</text>
<text text-anchor="start" x="256.5" y="-741.5" font-family="Helvetica,sans-Serif" font-size="10.00" fill="#000000">+ GetDelta()</text>
<text text-anchor="start" x="256.5" y="-730.5" font-family="Helvetica,sans-Serif" font-size="10.00" fill="#000000">+ operator&#45;=()</text>
<text text-anchor="start" x="256.5" y="-719.5" font-family="Helvetica,sans-Serif" font-size="10.00" fill="#000000">+ operator*=()</text>
<text text-anchor="start" x="256.5" y="-708.5" font-family="Helvetica,sans-Serif" font-size="10.00" fill="#000000">and 18 more...</text>
</a>
</g>
</g>
<!-- Node5&#45;&gt;Node12 -->
<g id="edge13" class="edge">
<title>Node5&#45;&gt;Node12</title>
<path fill="none" stroke="#404040" d="M537.8356,-957.1765C522.444,-948.6881 500.8573,-935.383 485,-920 472.1682,-907.5521 475.9983,-898.12 462,-887 445.1335,-873.6015 435.8447,-879.4344 417,-869 399.6252,-859.3795 381.8314,-847.5259 365.5923,-835.7878"/>
<polygon fill="none" stroke="#404040" points="365.3681,-835.6231 358.1646,-835.2919 355.6996,-828.5152 362.9032,-828.8463 365.3681,-835.6231"/>
<text text-anchor="middle" x="504.5" y="-912" font-family="Helvetica,sans-Serif" font-size="10.00" fill="#000000"> +value</text>
<text text-anchor="middle" x="504.5" y="-901" font-family="Helvetica,sans-Serif" font-size="10.00" fill="#000000">+data</text>
<text text-anchor="middle" x="504.5" y="-890" font-family="Helvetica,sans-Serif" font-size="10.00" fill="#000000">+name</text>
</g>
<!-- Node14 -->
<g id="node12" class="node">
<title>Node14</title>
<g id="a_node12"><a xlink:href="classEventParameter.html" target="_top" xlink:title="{EventParameter\n||+ EventParameter()\l}">
<polygon fill="#ffffff" stroke="#000000" points="117.5,-756.5 117.5,-813.5 230.5,-813.5 230.5,-756.5 117.5,-756.5"/>
<text text-anchor="middle" x="174" y="-801.5" font-family="Helvetica,sans-Serif" font-size="10.00" fill="#000000">EventParameter</text>
<polyline fill="none" stroke="#000000" points="117.5,-794.5 230.5,-794.5 "/>
<text text-anchor="middle" x="174" y="-782.5" font-family="Helvetica,sans-Serif" font-size="10.00" fill="#000000"> </text>
<polyline fill="none" stroke="#000000" points="117.5,-775.5 230.5,-775.5 "/>
<text text-anchor="start" x="125.5" y="-763.5" font-family="Helvetica,sans-Serif" font-size="10.00" fill="#000000">+ EventParameter()</text>
</a>
</g>
</g>
<!-- Node5&#45;&gt;Node14 -->
<g id="edge17" class="edge">
<title>Node5&#45;&gt;Node14</title>
<path fill="none" stroke="#404040" d="M537.9605,-964.0197C509.6976,-958.8735 455.9093,-946.246 418,-920 402.4195,-909.213 407.617,-896.1097 391,-887 331.3482,-854.2981 298.2022,-902.509 239,-869 220.7022,-858.6433 205.8093,-840.8481 194.918,-824.2953"/>
<polygon fill="none" stroke="#404040" points="194.6653,-823.8875 188.1044,-820.895 188.3433,-813.6878 194.9042,-816.6803 194.6653,-823.8875"/>
<text text-anchor="middle" x="438" y="-901" font-family="Helvetica,sans-Serif" font-size="10.00" fill="#000000"> +name</text>
</g>
<!-- Node16 -->
<g id="node14" class="node">
<title>Node16</title>
<g id="a_node14"><a xlink:href="classCfgMathOperation.html" target="_top" xlink:title="{CfgMathOperation\n||+ CfgMathOperation()\l}">
<polygon fill="#ffffff" stroke="#000000" points="262,-425.5 262,-482.5 386,-482.5 386,-425.5 262,-425.5"/>
<text text-anchor="middle" x="324" y="-470.5" font-family="Helvetica,sans-Serif" font-size="10.00" fill="#000000">CfgMathOperation</text>
<polyline fill="none" stroke="#000000" points="262,-463.5 386,-463.5 "/>
<text text-anchor="middle" x="324" y="-451.5" font-family="Helvetica,sans-Serif" font-size="10.00" fill="#000000"> </text>
<polyline fill="none" stroke="#000000" points="262,-444.5 386,-444.5 "/>
<text text-anchor="start" x="270" y="-432.5" font-family="Helvetica,sans-Serif" font-size="10.00" fill="#000000">+ CfgMathOperation()</text>
</a>
</g>
</g>
<!-- Node5&#45;&gt;Node16 -->
<g id="edge23" class="edge">
<title>Node5&#45;&gt;Node16</title>
<path fill="none" stroke="#404040" d="M557.1788,-938.3412C556.5714,-888.375 551.1776,-782.8353 519,-701 517.7622,-697.8519 382.2809,-503.4982 380,-501 376.8175,-497.5142 373.3778,-494.0494 369.823,-490.673"/>
<polygon fill="none" stroke="#404040" points="369.7109,-490.5711 362.5803,-489.4962 360.83,-482.5007 367.9606,-483.5756 369.7109,-490.5711"/>
<text text-anchor="middle" x="534.5" y="-675" font-family="Helvetica,sans-Serif" font-size="10.00" fill="#000000"> +otype</text>
<text text-anchor="middle" x="534.5" y="-664" font-family="Helvetica,sans-Serif" font-size="10.00" fill="#000000">+operators</text>
</g>
<!-- Node6&#45;&gt;Node4 -->
<g id="edge3" class="edge">
<title>Node6&#45;&gt;Node4</title>
<path fill="none" stroke="#404040" d="M646.7003,-750.8102C649.3513,-714.251 653,-654.5664 653,-603 653,-603 653,-603 653,-327 653,-295.7777 639.4912,-264.5702 623.7901,-238.8428"/>
<polygon fill="none" stroke="#404040" points="623.6655,-238.6476 617.0644,-235.7449 617.205,-228.5351 623.8061,-231.4379 623.6655,-238.6476"/>
<text text-anchor="middle" x="668.5" y="-451.5" font-family="Helvetica,sans-Serif" font-size="10.00" fill="#000000"> +font</text>
</g>
<!-- Node6&#45;&gt;Node6 -->
<g id="edge6" class="edge">
<title>Node6&#45;&gt;Node6</title>
<path fill="none" stroke="#404040" d="M683.5057,-805.7834C693.7644,-804.5059 701.5,-797.5781 701.5,-785 701.5,-777.7283 698.9146,-772.345 694.7508,-768.8503"/>
<polygon fill="none" stroke="#404040" points="694.6007,-768.7885 687.5293,-770.2009 683.5057,-764.2166 690.5772,-762.8042 694.6007,-768.7885"/>
<text text-anchor="middle" x="718.5" y="-782.5" font-family="Helvetica,sans-Serif" font-size="10.00" fill="#000000"> +next</text>
</g>
<!-- Node7 -->
<g id="node5" class="node">
<title>Node7</title>
<polygon fill="#ffffff" stroke="#bfbfbf" points="763,-938.5 763,-995.5 831,-995.5 831,-938.5 763,-938.5"/>
<text text-anchor="middle" x="797" y="-983.5" font-family="Helvetica,sans-Serif" font-size="10.00" fill="#000000">TTF_Font *</text>
<polyline fill="none" stroke="#bfbfbf" points="763,-976.5 831,-976.5 "/>
<text text-anchor="middle" x="797" y="-964.5" font-family="Helvetica,sans-Serif" font-size="10.00" fill="#000000"> </text>
<polyline fill="none" stroke="#bfbfbf" points="763,-957.5 831,-957.5 "/>
<text text-anchor="middle" x="797" y="-945.5" font-family="Helvetica,sans-Serif" font-size="10.00" fill="#000000"> </text>
</g>
<!-- Node7&#45;&gt;Node6 -->
<g id="edge5" class="edge">
<title>Node7&#45;&gt;Node6</title>
<path fill="none" stroke="#404040" d="M772.7567,-938.1616C747.9562,-908.6603 709.1199,-862.4629 680.5807,-828.5143"/>
<polygon fill="none" stroke="#404040" points="680.5464,-828.4734 673.6236,-826.4546 672.8245,-819.2879 679.7472,-821.3067 680.5464,-828.4734"/>
<text text-anchor="middle" x="770.5" y="-901" font-family="Helvetica,sans-Serif" font-size="10.00" fill="#000000"> +font</text>
</g>
<!-- Node8 -->
<g id="node6" class="node">
<title>Node8</title>
<polygon fill="#ffffff" stroke="#bfbfbf" points="60.5,-938.5 60.5,-995.5 89.5,-995.5 89.5,-938.5 60.5,-938.5"/>
<text text-anchor="middle" x="75" y="-983.5" font-family="Helvetica,sans-Serif" font-size="10.00" fill="#000000">int</text>
<polyline fill="none" stroke="#bfbfbf" points="60.5,-976.5 89.5,-976.5 "/>
<text text-anchor="middle" x="75" y="-964.5" font-family="Helvetica,sans-Serif" font-size="10.00" fill="#000000"> </text>
<polyline fill="none" stroke="#bfbfbf" points="60.5,-957.5 89.5,-957.5 "/>
<text text-anchor="middle" x="75" y="-945.5" font-family="Helvetica,sans-Serif" font-size="10.00" fill="#000000"> </text>
</g>
<!-- Node8&#45;&gt;Node3 -->
<g id="edge29" class="edge">
<title>Node8&#45;&gt;Node3</title>
<path fill="none" stroke="#404040" d="M78.6025,-938.3448C88.6073,-858.3442 116,-636.2676 116,-603 116,-603 116,-603 116,-178 116,-118.5864 536.6203,-61.7618 700.0979,-41.9201"/>
<polygon fill="none" stroke="#404040" points="700.4253,-41.8807 705.9037,-37.1917 712.3392,-40.4453 706.8607,-45.1343 700.4253,-41.8807"/>
<text text-anchor="middle" x="145" y="-451.5" font-family="Helvetica,sans-Serif" font-size="10.00" fill="#000000"> +thickness</text>
</g>
<!-- Node8&#45;&gt;Node4 -->
<g id="edge8" class="edge">
<title>Node8&#45;&gt;Node4</title>
<path fill="none" stroke="#404040" d="M60.3612,-946.5655C38.5348,-914.0311 0,-847.711 0,-785 0,-785 0,-785 0,-327 0,-224.7348 344.6102,-191.5272 500.7278,-181.7303"/>
<polygon fill="none" stroke="#404040" points="501.0082,-181.7133 506.7543,-177.3565 512.9861,-180.985 507.2399,-185.3418 501.0082,-181.7133"/>
<text text-anchor="middle" x="17.5" y="-537" font-family="Helvetica,sans-Serif" font-size="10.00" fill="#000000"> +ypos</text>
<text text-anchor="middle" x="17.5" y="-526" font-family="Helvetica,sans-Serif" font-size="10.00" fill="#000000">+id</text>
<text text-anchor="middle" x="17.5" y="-515" font-family="Helvetica,sans-Serif" font-size="10.00" fill="#000000">+xpos</text>
<text text-anchor="middle" x="17.5" y="-504" font-family="Helvetica,sans-Serif" font-size="10.00" fill="#000000">+iid</text>
</g>
<!-- Node8&#45;&gt;Node6 -->
<g id="edge7" class="edge">
<title>Node8&#45;&gt;Node6</title>
<path fill="none" stroke="#404040" d="M89.8408,-963.1124C110.9094,-956.9659 149.7327,-943.2516 175,-920 187.4535,-908.54 179.5884,-895.8728 194,-887 255.5951,-849.0779 450.4193,-891.9942 519,-869 546.5168,-859.774 573.6718,-842.7564 595.6055,-826.4384"/>
<polygon fill="none" stroke="#404040" points="595.7686,-826.3136 598.1025,-819.4906 605.2983,-819.0208 602.9644,-825.8438 595.7686,-826.3136"/>
<text text-anchor="middle" x="209.5" y="-901" font-family="Helvetica,sans-Serif" font-size="10.00" fill="#000000"> +size</text>
</g>
<!-- Node8&#45;&gt;Node14 -->
<g id="edge18" class="edge">
<title>Node8&#45;&gt;Node14</title>
<path fill="none" stroke="#404040" d="M85.8432,-938.3327C92.0327,-922.8453 100.2821,-903.5583 109,-887 120.3377,-865.4656 134.7322,-842.5234 147.0919,-823.8619"/>
<polygon fill="none" stroke="#404040" points="147.2261,-823.6616 147.2427,-816.4505 153.9055,-813.6923 153.8889,-820.9034 147.2261,-823.6616"/>
<text text-anchor="middle" x="142" y="-901" font-family="Helvetica,sans-Serif" font-size="10.00" fill="#000000"> +max_index</text>
</g>
<!-- Node8&#45;&gt;Node16 -->
<g id="edge24" class="edge">
<title>Node8&#45;&gt;Node16</title>
<path fill="none" stroke="#404040" d="M63.3662,-938.1405C42.5066,-881.576 5.0106,-753.5861 51,-661 92.3346,-577.7851 184.876,-519.0498 250.7398,-485.9042"/>
<polygon fill="none" stroke="#404040" points="251.1244,-485.7147 254.7375,-479.474 261.8877,-480.4088 258.2747,-486.6495 251.1244,-485.7147"/>
<text text-anchor="middle" x="76.5" y="-669.5" font-family="Helvetica,sans-Serif" font-size="10.00" fill="#000000"> +numops</text>
</g>
<!-- Node9 -->
<g id="node7" class="node">
<title>Node9</title>
<g id="a_node7"><a xlink:href="classParsedExpression.html" target="_top" xlink:title="{ParsedExpression\n||+ ParsedExpression()\l+ ~ParsedExpression()\l+ Evaluate()\l+ IsStatic()\l+ Print()\l}">
<polygon fill="#ffffff" stroke="#000000" points="409.5,-276.5 409.5,-377.5 538.5,-377.5 538.5,-276.5 409.5,-276.5"/>
<text text-anchor="middle" x="474" y="-365.5" font-family="Helvetica,sans-Serif" font-size="10.00" fill="#000000">ParsedExpression</text>
<polyline fill="none" stroke="#000000" points="409.5,-358.5 538.5,-358.5 "/>
<text text-anchor="middle" x="474" y="-346.5" font-family="Helvetica,sans-Serif" font-size="10.00" fill="#000000"> </text>
<polyline fill="none" stroke="#000000" points="409.5,-339.5 538.5,-339.5 "/>
<text text-anchor="start" x="417.5" y="-327.5" font-family="Helvetica,sans-Serif" font-size="10.00" fill="#000000">+ ParsedExpression()</text>
<text text-anchor="start" x="417.5" y="-316.5" font-family="Helvetica,sans-Serif" font-size="10.00" fill="#000000">+ ~ParsedExpression()</text>
<text text-anchor="start" x="417.5" y="-305.5" font-family="Helvetica,sans-Serif" font-size="10.00" fill="#000000">+ Evaluate()</text>
<text text-anchor="start" x="417.5" y="-294.5" font-family="Helvetica,sans-Serif" font-size="10.00" fill="#000000">+ IsStatic()</text>
<text text-anchor="start" x="417.5" y="-283.5" font-family="Helvetica,sans-Serif" font-size="10.00" fill="#000000">+ Print()</text>
</a>
</g>
</g>
<!-- Node9&#45;&gt;Node4 -->
<g id="edge9" class="edge">
<title>Node9&#45;&gt;Node4</title>
<path fill="none" stroke="#404040" d="M508.8173,-276.1394C517.0233,-264.1523 525.8528,-251.2543 534.3267,-238.8757"/>
<polygon fill="none" stroke="#404040" points="534.561,-238.5335 534.6496,-231.3229 541.3396,-228.6314 541.251,-235.842 534.561,-238.5335"/>
<text text-anchor="middle" x="544" y="-250" font-family="Helvetica,sans-Serif" font-size="10.00" fill="#000000"> +exp</text>
</g>
<!-- Node10 -->
<g id="node8" class="node">
<title>Node10</title>
<g id="a_node8"><a xlink:href="classCfgToken.html" target="_top" xlink:title="{CfgToken\n||+ CfgToken()\l+ Print()\l+ Evaluate()\l}">
<polygon fill="#ffffff" stroke="#000000" points="284,-563.5 284,-642.5 364,-642.5 364,-563.5 284,-563.5"/>
<text text-anchor="middle" x="324" y="-630.5" font-family="Helvetica,sans-Serif" font-size="10.00" fill="#000000">CfgToken</text>
<polyline fill="none" stroke="#000000" points="284,-623.5 364,-623.5 "/>
<text text-anchor="middle" x="324" y="-611.5" font-family="Helvetica,sans-Serif" font-size="10.00" fill="#000000"> </text>
<polyline fill="none" stroke="#000000" points="284,-604.5 364,-604.5 "/>
<text text-anchor="start" x="292" y="-592.5" font-family="Helvetica,sans-Serif" font-size="10.00" fill="#000000">+ CfgToken()</text>
<text text-anchor="start" x="292" y="-581.5" font-family="Helvetica,sans-Serif" font-size="10.00" fill="#000000">+ Print()</text>
<text text-anchor="start" x="292" y="-570.5" font-family="Helvetica,sans-Serif" font-size="10.00" fill="#000000">+ Evaluate()</text>
</a>
</g>
</g>
<!-- Node10&#45;&gt;Node9 -->
<g id="edge10" class="edge">
<title>Node10&#45;&gt;Node9</title>
<path fill="none" stroke="#404040" d="M364.0053,-574.8749C391.8314,-553.0766 427.3358,-520.3545 447,-483 461.9561,-454.5891 468.885,-419.6254 471.9982,-390.0043"/>
<polygon fill="none" stroke="#404040" points="472.0325,-389.6228 468.588,-383.2876 473.1111,-377.6714 476.5556,-384.0066 472.0325,-389.6228"/>
<text text-anchor="middle" x="484" y="-451.5" font-family="Helvetica,sans-Serif" font-size="10.00" fill="#000000"> +start</text>
</g>
<!-- Node10&#45;&gt;Node16 -->
<g id="edge22" class="edge">
<title>Node10&#45;&gt;Node16</title>
<path fill="none" stroke="#404040" d="M324,-563.4619C324,-542.3723 324,-516.4485 324,-495.1238"/>
<polygon fill="none" stroke="#404040" points="324.0001,-494.8487 320,-488.8488 324,-482.8487 328,-488.8487 324.0001,-494.8487"/>
<text text-anchor="middle" x="350" y="-520.5" font-family="Helvetica,sans-Serif" font-size="10.00" fill="#000000"> +operand</text>
</g>
<!-- Node11 -->
<g id="node9" class="node">
<title>Node11</title>
<polygon fill="#ffffff" stroke="#bfbfbf" points="426,-756.5 426,-813.5 510,-813.5 510,-756.5 426,-756.5"/>
<text text-anchor="middle" x="468" y="-801.5" font-family="Helvetica,sans-Serif" font-size="10.00" fill="#000000">CfgTokenType</text>
<polyline fill="none" stroke="#bfbfbf" points="426,-794.5 510,-794.5 "/>
<text text-anchor="middle" x="468" y="-782.5" font-family="Helvetica,sans-Serif" font-size="10.00" fill="#000000"> </text>
<polyline fill="none" stroke="#bfbfbf" points="426,-775.5 510,-775.5 "/>
<text text-anchor="middle" x="468" y="-763.5" font-family="Helvetica,sans-Serif" font-size="10.00" fill="#000000"> </text>
</g>
<!-- Node11&#45;&gt;Node10 -->
<g id="edge11" class="edge">
<title>Node11&#45;&gt;Node10</title>
<path fill="none" stroke="#404040" d="M452.2437,-756.4565C442.5603,-739.7513 429.4616,-718.5591 416,-701 402.9442,-683.9702 387.3978,-666.5305 372.8343,-651.1725"/>
<polygon fill="none" stroke="#404040" points="372.7114,-651.0446 365.6704,-649.4876 364.3995,-642.3894 371.4405,-643.9463 372.7114,-651.0446"/>
<text text-anchor="middle" x="413.5" y="-669.5" font-family="Helvetica,sans-Serif" font-size="10.00" fill="#000000"> +cvt</text>
</g>
<!-- Node12&#45;&gt;Node10 -->
<g id="edge12" class="edge">
<title>Node12&#45;&gt;Node10</title>
<path fill="none" stroke="#404040" d="M312.0986,-701.4574C314.0031,-685.7014 315.944,-669.6452 317.6907,-655.1953"/>
<polygon fill="none" stroke="#404040" points="317.7297,-654.8715 314.4787,-648.4348 319.1699,-642.9583 322.4209,-649.395 317.7297,-654.8715"/>
<text text-anchor="middle" x="330.5" y="-675" font-family="Helvetica,sans-Serif" font-size="10.00" fill="#000000"> +val</text>
<text text-anchor="middle" x="330.5" y="-664" font-family="Helvetica,sans-Serif" font-size="10.00" fill="#000000">+var</text>
</g>
<!-- Node12&#45;&gt;Node12 -->
<g id="edge15" class="edge">
<title>Node12&#45;&gt;Node12</title>
<path fill="none" stroke="#404040" d="M355.6322,-805.0656C366.0804,-802.7354 373.5,-796.0469 373.5,-785 373.5,-778.4409 370.8843,-773.4183 366.5721,-769.9322"/>
<polygon fill="none" stroke="#404040" points="366.5471,-769.9209 359.4275,-771.0659 355.6322,-764.9344 362.7518,-763.7893 366.5471,-769.9209"/>
<text text-anchor="middle" x="390.5" y="-782.5" font-family="Helvetica,sans-Serif" font-size="10.00" fill="#000000"> +next</text>
</g>
<!-- Node13 -->
<g id="node11" class="node">
<title>Node13</title>
<polygon fill="#ffffff" stroke="#bfbfbf" points="228.5,-938.5 228.5,-995.5 313.5,-995.5 313.5,-938.5 228.5,-938.5"/>
<text text-anchor="middle" x="271" y="-983.5" font-family="Helvetica,sans-Serif" font-size="10.00" fill="#000000">CoreDataType</text>
<polyline fill="none" stroke="#bfbfbf" points="228.5,-976.5 313.5,-976.5 "/>
<text text-anchor="middle" x="271" y="-964.5" font-family="Helvetica,sans-Serif" font-size="10.00" fill="#000000"> </text>
<polyline fill="none" stroke="#bfbfbf" points="228.5,-957.5 313.5,-957.5 "/>
<text text-anchor="middle" x="271" y="-945.5" font-family="Helvetica,sans-Serif" font-size="10.00" fill="#000000"> </text>
</g>
<!-- Node13&#45;&gt;Node12 -->
<g id="edge14" class="edge">
<title>Node13&#45;&gt;Node12</title>
<path fill="none" stroke="#404040" d="M285.6188,-938.4798C288.1418,-932.5078 290.4482,-926.1527 292,-920 295.1684,-907.4381 297.4359,-894.0265 299.0437,-880.7136"/>
<polygon fill="none" stroke="#404040" points="299.0691,-880.4747 295.7279,-874.0844 300.3416,-868.5424 303.6828,-874.9327 299.0691,-880.4747"/>
<text text-anchor="middle" x="316" y="-901" font-family="Helvetica,sans-Serif" font-size="10.00" fill="#000000"> +type</text>
</g>
<!-- Node13&#45;&gt;Node14 -->
<g id="edge19" class="edge">
<title>Node13&#45;&gt;Node14</title>
<path fill="none" stroke="#404040" d="M256.109,-938.45C248.113,-923.1668 238.0632,-904.0334 229,-887 217.9401,-866.2141 205.4979,-843.116 195.2487,-824.1638"/>
<polygon fill="none" stroke="#404040" points="195.2068,-824.0862 188.8329,-820.7136 189.4946,-813.5329 195.8684,-816.9055 195.2068,-824.0862"/>
<text text-anchor="middle" x="267" y="-901" font-family="Helvetica,sans-Serif" font-size="10.00" fill="#000000"> +dtype</text>
</g>
<!-- Node14&#45;&gt;Node10 -->
<g id="edge16" class="edge">
<title>Node14&#45;&gt;Node10</title>
<path fill="none" stroke="#404040" d="M189.8399,-756.3156C205.0204,-730.0963 229.4888,-690.9581 256,-661 261.7264,-654.5291 268.1791,-648.129 274.7713,-642.0749"/>
<polygon fill="none" stroke="#404040" points="274.8213,-642.0305 276.6497,-635.055 283.7918,-634.0599 281.9635,-641.0353 274.8213,-642.0305"/>
<text text-anchor="middle" x="283.5" y="-669.5" font-family="Helvetica,sans-Serif" font-size="10.00" fill="#000000"> +evparam</text>
</g>
<!-- Node15 -->
<g id="node13" class="node">
<title>Node15</title>
<polygon fill="#ffffff" stroke="#bfbfbf" points="352,-938.5 352,-995.5 390,-995.5 390,-938.5 352,-938.5"/>
<text text-anchor="middle" x="371" y="-983.5" font-family="Helvetica,sans-Serif" font-size="10.00" fill="#000000">long</text>
<polyline fill="none" stroke="#bfbfbf" points="352,-976.5 390,-976.5 "/>
<text text-anchor="middle" x="371" y="-964.5" font-family="Helvetica,sans-Serif" font-size="10.00" fill="#000000"> </text>
<polyline fill="none" stroke="#bfbfbf" points="352,-957.5 390,-957.5 "/>
<text text-anchor="middle" x="371" y="-945.5" font-family="Helvetica,sans-Serif" font-size="10.00" fill="#000000"> </text>
</g>
<!-- Node15&#45;&gt;Node14 -->
<g id="edge20" class="edge">
<title>Node15&#45;&gt;Node14</title>
<path fill="none" stroke="#404040" d="M365.9486,-938.4234C361.3597,-920.9677 352.784,-899.6413 337,-887 302.435,-859.317 276.824,-892.0311 239,-869 221.1709,-858.1438 206.3997,-840.4634 195.4684,-824.117"/>
<polygon fill="none" stroke="#404040" points="195.2632,-823.7927 188.6745,-820.8619 188.8458,-813.6528 195.4345,-816.5837 195.2632,-823.7927"/>
<text text-anchor="middle" x="373.5" y="-901" font-family="Helvetica,sans-Serif" font-size="10.00" fill="#000000"> +ofs</text>
</g>
<!-- Node16&#45;&gt;Node9 -->
<g id="edge21" class="edge">
<title>Node16&#45;&gt;Node9</title>
<path fill="none" stroke="#404040" d="M357.6629,-425.4987C371.5986,-413.6998 388.3034,-399.5565 404.6483,-385.7178"/>
<polygon fill="none" stroke="#404040" points="405.0483,-385.3791 407.0428,-378.4493 414.2067,-377.625 412.2122,-384.5548 405.0483,-385.3791"/>
<text text-anchor="middle" x="405.5" y="-399" font-family="Helvetica,sans-Serif" font-size="10.00" fill="#000000"> +ops</text>
</g>
<!-- Node16&#45;&gt;Node16 -->
<g id="edge25" class="edge">
<title>Node16&#45;&gt;Node16</title>
<path fill="none" stroke="#404040" d="M386.0546,-463.1019C396.6554,-461.8582 404,-458.8242 404,-454 404,-451.2864 401.6761,-449.1392 397.756,-447.5585"/>
<polygon fill="none" stroke="#404040" points="397.756,-447.5585 391.0185,-450.1288 386.0546,-444.8981 392.7921,-442.3278 397.756,-447.5585"/>
<text text-anchor="middle" x="421" y="-451.5" font-family="Helvetica,sans-Serif" font-size="10.00" fill="#000000"> +next</text>
</g>
<!-- Node17 -->
<g id="node15" class="node">
<title>Node17</title>
<polygon fill="#ffffff" stroke="#bfbfbf" points="792,-149.5 792,-206.5 830,-206.5 830,-149.5 792,-149.5"/>
<text text-anchor="middle" x="811" y="-194.5" font-family="Helvetica,sans-Serif" font-size="10.00" fill="#000000">float</text>
<polyline fill="none" stroke="#bfbfbf" points="792,-187.5 830,-187.5 "/>
<text text-anchor="middle" x="811" y="-175.5" font-family="Helvetica,sans-Serif" font-size="10.00" fill="#000000"> </text>
<polyline fill="none" stroke="#bfbfbf" points="792,-168.5 830,-168.5 "/>
<text text-anchor="middle" x="811" y="-156.5" font-family="Helvetica,sans-Serif" font-size="10.00" fill="#000000"> </text>
</g>
<!-- Node17&#45;&gt;Node3 -->
<g id="edge28" class="edge">
<title>Node17&#45;&gt;Node3</title>
<path fill="none" stroke="#404040" d="M801.6018,-149.3055C795.1231,-129.5249 786.3753,-102.8162 778.9475,-80.1377"/>
<polygon fill="none" stroke="#404040" points="778.9378,-80.1077 773.2689,-75.6508 775.2026,-68.7037 780.8715,-73.1607 778.9378,-80.1077"/>
<text text-anchor="middle" x="813.5" y="-101" font-family="Helvetica,sans-Serif" font-size="10.00" fill="#000000"> +barscale</text>
<text text-anchor="middle" x="813.5" y="-90" font-family="Helvetica,sans-Serif" font-size="10.00" fill="#000000">+maxdb</text>
</g>
<!-- Node18 -->
<g id="node16" class="node">
<title>Node18</title>
<polygon fill="#ffffff" stroke="#bfbfbf" points="848,-149.5 848,-206.5 936,-206.5 936,-149.5 848,-149.5"/>
<text text-anchor="middle" x="892" y="-194.5" font-family="Helvetica,sans-Serif" font-size="10.00" fill="#000000">CfgOrientation</text>
<polyline fill="none" stroke="#bfbfbf" points="848,-187.5 936,-187.5 "/>
<text text-anchor="middle" x="892" y="-175.5" font-family="Helvetica,sans-Serif" font-size="10.00" fill="#000000"> </text>
<polyline fill="none" stroke="#bfbfbf" points="848,-168.5 936,-168.5 "/>
<text text-anchor="middle" x="892" y="-156.5" font-family="Helvetica,sans-Serif" font-size="10.00" fill="#000000"> </text>
</g>
<!-- Node18&#45;&gt;Node3 -->
<g id="edge30" class="edge">
<title>Node18&#45;&gt;Node3</title>
<path fill="none" stroke="#404040" d="M881.374,-149.4476C873.2319,-130.2591 860.5789,-105.2406 844,-87 838.5197,-80.9704 832.2029,-75.3242 825.5711,-70.1357"/>
<polygon fill="none" stroke="#404040" points="825.3581,-69.9791 818.1546,-69.6472 815.6903,-62.8702 822.8938,-63.202 825.3581,-69.9791"/>
<text text-anchor="middle" x="879" y="-95.5" font-family="Helvetica,sans-Serif" font-size="10.00" fill="#000000"> +orient</text>
</g>
</g>
</svg>
