<?xml version="1.0" encoding="UTF-8" standalone="no"?>
<!DOCTYPE svg PUBLIC "-//W3C//DTD SVG 1.1//EN"
 "http://www.w3.org/Graphics/SVG/1.1/DTD/svg11.dtd">
<!-- Generated by graphviz version 2.40.1 (20161225.0304)
 -->
<!-- Title: FloLayoutBox Pages: 1 -->
<svg width="405pt" height="248pt"
 viewBox="0.00 0.00 405.00 248.00" xmlns="http://www.w3.org/2000/svg" xmlns:xlink="http://www.w3.org/1999/xlink">
<g id="graph0" class="graph" transform="scale(1 1) rotate(0) translate(4 244)">
<title>FloLayoutBox</title>
<polygon fill="#ffffff" stroke="transparent" points="-4,4 -4,-244 401,-244 401,4 -4,4"/>
<!-- Node2 -->
<g id="node1" class="node">
<title>Node2</title>
<polygon fill="#bfbfbf" stroke="#000000" points="227.5,-.5 227.5,-68.5 310.5,-68.5 310.5,-.5 227.5,-.5"/>
<text text-anchor="middle" x="269" y="-56.5" font-family="Helvetica,sans-Serif" font-size="10.00" fill="#000000">FloLayoutBox</text>
<polyline fill="none" stroke="#000000" points="227.5,-49.5 310.5,-49.5 "/>
<text text-anchor="middle" x="269" y="-37.5" font-family="Helvetica,sans-Serif" font-size="10.00" fill="#000000"> </text>
<polyline fill="none" stroke="#000000" points="227.5,-30.5 310.5,-30.5 "/>
<text text-anchor="start" x="235.5" y="-18.5" font-family="Helvetica,sans-Serif" font-size="10.00" fill="#000000">+ Draw()</text>
<text text-anchor="start" x="235.5" y="-7.5" font-family="Helvetica,sans-Serif" font-size="10.00" fill="#000000">+ Inside()</text>
</g>
<!-- Node3 -->
<g id="node2" class="node">
<title>Node3</title>
<g id="a_node2"><a xlink:href="classFloLayoutElementGeometry.html" target="_top" xlink:title="{FloLayoutElementGeometry\n||+ FloLayoutElementGeometry()\l+ ~FloLayoutElementGeometry()\l+ Draw()\l+ Inside()\l}">
<polygon fill="#ffffff" stroke="#000000" points="0,-149.5 0,-239.5 180,-239.5 180,-149.5 0,-149.5"/>
<text text-anchor="middle" x="90" y="-227.5" font-family="Helvetica,sans-Serif" font-size="10.00" fill="#000000">FloLayoutElementGeometry</text>
<polyline fill="none" stroke="#000000" points="0,-220.5 180,-220.5 "/>
<text text-anchor="middle" x="90" y="-208.5" font-family="Helvetica,sans-Serif" font-size="10.00" fill="#000000"> </text>
<polyline fill="none" stroke="#000000" points="0,-201.5 180,-201.5 "/>
<text text-anchor="start" x="8" y="-189.5" font-family="Helvetica,sans-Serif" font-size="10.00" fill="#000000">+ FloLayoutElementGeometry()</text>
<text text-anchor="start" x="8" y="-178.5" font-family="Helvetica,sans-Serif" font-size="10.00" fill="#000000">+ ~FloLayoutElementGeometry()</text>
<text text-anchor="start" x="8" y="-167.5" font-family="Helvetica,sans-Serif" font-size="10.00" fill="#000000">+ Draw()</text>
<text text-anchor="start" x="8" y="-156.5" font-family="Helvetica,sans-Serif" font-size="10.00" fill="#000000">+ Inside()</text>
</a>
</g>
</g>
<!-- Node3&#45;&gt;Node2 -->
<g id="edge1" class="edge">
<title>Node3&#45;&gt;Node2</title>
<path fill="none" stroke="#191970" d="M148.3319,-142.3598C175.4252,-118.1423 206.8731,-90.0325 230.871,-68.5818"/>
<polygon fill="none" stroke="#191970" points="145.9386,-139.8046 140.8154,-149.0784 150.6036,-145.0236 145.9386,-139.8046"/>
</g>
<!-- Node3&#45;&gt;Node3 -->
<g id="edge2" class="edge">
<title>Node3&#45;&gt;Node3</title>
<path fill="none" stroke="#404040" d="M180.2021,-208.0352C190.9688,-205.5742 198,-201.0625 198,-194.5 198,-190.7061 195.65,-187.5975 191.5867,-185.1745"/>
<polygon fill="none" stroke="#404040" points="191.4574,-185.1267 184.4425,-186.7975 180.2021,-180.9648 187.217,-179.294 191.4574,-185.1267"/>
<text text-anchor="middle" x="215" y="-192" font-family="Helvetica,sans-Serif" font-size="10.00" fill="#000000"> +next</text>
</g>
<!-- Node4 -->
<g id="node3" class="node">
<title>Node4</title>
<polygon fill="#ffffff" stroke="#bfbfbf" points="250,-166 250,-223 288,-223 288,-166 250,-166"/>
<text text-anchor="middle" x="269" y="-211" font-family="Helvetica,sans-Serif" font-size="10.00" fill="#000000">char</text>
<polyline fill="none" stroke="#bfbfbf" points="250,-204 288,-204 "/>
<text text-anchor="middle" x="269" y="-192" font-family="Helvetica,sans-Serif" font-size="10.00" fill="#000000"> </text>
<polyline fill="none" stroke="#bfbfbf" points="250,-185 288,-185 "/>
<text text-anchor="middle" x="269" y="-173" font-family="Helvetica,sans-Serif" font-size="10.00" fill="#000000"> </text>
</g>
<!-- Node4&#45;&gt;Node2 -->
<g id="edge3" class="edge">
<title>Node4&#45;&gt;Node2</title>
<path fill="none" stroke="#404040" d="M269,-165.8952C269,-142.2769 269,-108.2944 269,-80.806"/>
<polygon fill="none" stroke="#404040" points="269.0001,-80.6937 265,-74.6937 269,-68.6937 273,-74.6936 269.0001,-80.6937"/>
<text text-anchor="middle" x="301.5" y="-123" font-family="Helvetica,sans-Serif" font-size="10.00" fill="#000000"> +linebottom</text>
<text text-anchor="middle" x="301.5" y="-112" font-family="Helvetica,sans-Serif" font-size="10.00" fill="#000000">+linetop</text>
<text text-anchor="middle" x="301.5" y="-101" font-family="Helvetica,sans-Serif" font-size="10.00" fill="#000000">+lineleft</text>
<text text-anchor="middle" x="301.5" y="-90" font-family="Helvetica,sans-Serif" font-size="10.00" fill="#000000">+lineright</text>
</g>
<!-- Node5 -->
<g id="node4" class="node">
<title>Node5</title>
<polygon fill="#ffffff" stroke="#bfbfbf" points="342.5,-166 342.5,-223 371.5,-223 371.5,-166 342.5,-166"/>
<text text-anchor="middle" x="357" y="-211" font-family="Helvetica,sans-Serif" font-size="10.00" fill="#000000">int</text>
<polyline fill="none" stroke="#bfbfbf" points="342.5,-204 371.5,-204 "/>
<text text-anchor="middle" x="357" y="-192" font-family="Helvetica,sans-Serif" font-size="10.00" fill="#000000"> </text>
<polyline fill="none" stroke="#bfbfbf" points="342.5,-185 371.5,-185 "/>
<text text-anchor="middle" x="357" y="-173" font-family="Helvetica,sans-Serif" font-size="10.00" fill="#000000"> </text>
</g>
<!-- Node5&#45;&gt;Node2 -->
<g id="edge4" class="edge">
<title>Node5&#45;&gt;Node2</title>
<path fill="none" stroke="#404040" d="M356.3964,-165.6113C354.7255,-142.7713 349.6454,-110.8686 335,-87 330.9297,-80.3664 325.7042,-74.2241 319.9786,-68.655"/>
<polygon fill="none" stroke="#404040" points="319.6386,-68.3532 312.4959,-67.3619 310.6639,-60.3873 317.8065,-61.3787 319.6386,-68.3532"/>
<text text-anchor="middle" x="373.5" y="-123" font-family="Helvetica,sans-Serif" font-size="10.00" fill="#000000"> +bottom</text>
<text text-anchor="middle" x="373.5" y="-112" font-family="Helvetica,sans-Serif" font-size="10.00" fill="#000000">+top</text>
<text text-anchor="middle" x="373.5" y="-101" font-family="Helvetica,sans-Serif" font-size="10.00" fill="#000000">+right</text>
<text text-anchor="middle" x="373.5" y="-90" font-family="Helvetica,sans-Serif" font-size="10.00" fill="#000000">+left</text>
</g>
</g>
</svg>
