<?xml version="1.0" encoding="UTF-8" standalone="no"?>
<!DOCTYPE svg PUBLIC "-//W3C//DTD SVG 1.1//EN"
 "http://www.w3.org/Graphics/SVG/1.1/DTD/svg11.dtd">
<!-- Generated by graphviz version 2.40.1 (20161225.0304)
 -->
<!-- Title: MidiIO::GetMIDISyncTransmit Pages: 1 -->
<svg width="854pt" height="104pt"
 viewBox="0.00 0.00 854.00 104.00" xmlns="http://www.w3.org/2000/svg" xmlns:xlink="http://www.w3.org/1999/xlink">
<g id="graph0" class="graph" transform="scale(1 1) rotate(0) translate(4 100)">
<title>MidiIO::GetMIDISyncTransmit</title>
<polygon fill="#ffffff" stroke="transparent" points="-4,4 -4,-100 850,-100 850,4 -4,4"/>
<!-- Node118 -->
<g id="node1" class="node">
<title>Node118</title>
<polygon fill="#bfbfbf" stroke="#000000" points="0,-19.5 0,-38.5 158,-38.5 158,-19.5 0,-19.5"/>
<text text-anchor="middle" x="79" y="-26.5" font-family="Helvetica,sans-Serif" font-size="10.00" fill="#000000">MidiIO::GetMIDISyncTransmit</text>
</g>
<!-- Node119 -->
<g id="node2" class="node">
<title>Node119</title>
<g id="a_node2"><a xlink:href="classPulse.html#aec20778ec5fcc2a6cefed47add36272f" target="_top" xlink:title="Pulse::SetMIDIClock">
<polygon fill="#ffffff" stroke="#000000" points="194,-38.5 194,-57.5 307,-57.5 307,-38.5 194,-38.5"/>
<text text-anchor="middle" x="250.5" y="-45.5" font-family="Helvetica,sans-Serif" font-size="10.00" fill="#000000">Pulse::SetMIDIClock</text>
</a>
</g>
</g>
<!-- Node118&#45;&gt;Node119 -->
<g id="edge1" class="edge">
<title>Node118&#45;&gt;Node119</title>
<path fill="none" stroke="#191970" d="M168.3145,-38.8949C176.9092,-39.8471 185.456,-40.794 193.6089,-41.6972"/>
<polygon fill="#191970" stroke="#191970" points="168.5485,-35.3995 158.2239,-37.777 167.7776,-42.3569 168.5485,-35.3995"/>
</g>
<!-- Node124 -->
<g id="node7" class="node">
<title>Node124</title>
<g id="a_node7"><a xlink:href="classPulse.html#adf28cef50c1f7543db7171b67126c38f" target="_top" xlink:title="Pulse::process">
<polygon fill="#ffffff" stroke="#000000" points="207.5,-.5 207.5,-19.5 293.5,-19.5 293.5,-.5 207.5,-.5"/>
<text text-anchor="middle" x="250.5" y="-7.5" font-family="Helvetica,sans-Serif" font-size="10.00" fill="#000000">Pulse::process</text>
</a>
</g>
</g>
<!-- Node118&#45;&gt;Node124 -->
<g id="edge7" class="edge">
<title>Node118&#45;&gt;Node124</title>
<path fill="none" stroke="#191970" d="M168.5123,-19.0832C181.9637,-17.5929 195.2913,-16.1164 207.1679,-14.8006"/>
<polygon fill="#191970" stroke="#191970" points="167.7776,-15.6431 158.2239,-20.223 168.5485,-22.6005 167.7776,-15.6431"/>
</g>
<!-- Node120 -->
<g id="node3" class="node">
<title>Node120</title>
<g id="a_node3"><a xlink:href="classLoopManager.html#ab79aef15f1e783de1ab6827378bea274" target="_top" xlink:title="LoopManager::SelectPulse">
<polygon fill="#ffffff" stroke="#000000" points="344,-57.5 344,-76.5 488,-76.5 488,-57.5 344,-57.5"/>
<text text-anchor="middle" x="416" y="-64.5" font-family="Helvetica,sans-Serif" font-size="10.00" fill="#000000">LoopManager::SelectPulse</text>
</a>
</g>
</g>
<!-- Node119&#45;&gt;Node120 -->
<g id="edge2" class="edge">
<title>Node119&#45;&gt;Node120</title>
<path fill="none" stroke="#191970" d="M317.4745,-55.6889C326.1228,-56.6818 335.0097,-57.702 343.7384,-58.7041"/>
<polygon fill="#191970" stroke="#191970" points="317.7897,-52.2022 307.4557,-54.5387 316.9912,-59.1565 317.7897,-52.2022"/>
</g>
<!-- Node123 -->
<g id="node6" class="node">
<title>Node123</title>
<g id="a_node6"><a xlink:href="classLoopManager.html#a705436ae811a121ed3285ab34b144bfe" target="_top" xlink:title="LoopManager::CreatePulse">
<polygon fill="#ffffff" stroke="#000000" points="343,-19.5 343,-38.5 489,-38.5 489,-19.5 343,-19.5"/>
<text text-anchor="middle" x="416" y="-26.5" font-family="Helvetica,sans-Serif" font-size="10.00" fill="#000000">LoopManager::CreatePulse</text>
</a>
</g>
</g>
<!-- Node119&#45;&gt;Node123 -->
<g id="edge6" class="edge">
<title>Node119&#45;&gt;Node123</title>
<path fill="none" stroke="#191970" d="M317.5061,-40.3075C325.8556,-39.3489 334.4271,-38.3649 342.8635,-37.3963"/>
<polygon fill="#191970" stroke="#191970" points="316.9912,-36.8435 307.4557,-41.4613 317.7897,-43.7978 316.9912,-36.8435"/>
</g>
<!-- Node121 -->
<g id="node4" class="node">
<title>Node121</title>
<g id="a_node4"><a xlink:href="classLoopManager.html#a67c6f44d33880b35c875a8e6ea8babac" target="_top" xlink:title="LoopManager::TapPulse">
<polygon fill="#ffffff" stroke="#000000" points="525,-76.5 525,-95.5 656,-95.5 656,-76.5 525,-76.5"/>
<text text-anchor="middle" x="590.5" y="-83.5" font-family="Helvetica,sans-Serif" font-size="10.00" fill="#000000">LoopManager::TapPulse</text>
</a>
</g>
</g>
<!-- Node120&#45;&gt;Node121 -->
<g id="edge3" class="edge">
<title>Node120&#45;&gt;Node121</title>
<path fill="none" stroke="#191970" d="M498.2266,-75.953C507.1197,-76.9213 516.0826,-77.8972 524.7442,-78.8403"/>
<polygon fill="#191970" stroke="#191970" points="498.5556,-72.4683 488.2355,-74.8652 497.7978,-79.4271 498.5556,-72.4683"/>
</g>
<!-- Node122 -->
<g id="node5" class="node">
<title>Node122</title>
<g id="a_node5"><a xlink:href="classLoopManager.html#a4aada2d07b7ce0a67a8119ece4805966" target="_top" xlink:title="LoopManager::ReceiveEvent">
<polygon fill="#ffffff" stroke="#000000" points="692,-57.5 692,-76.5 846,-76.5 846,-57.5 692,-57.5"/>
<text text-anchor="middle" x="769" y="-64.5" font-family="Helvetica,sans-Serif" font-size="10.00" fill="#000000">LoopManager::ReceiveEvent</text>
</a>
</g>
</g>
<!-- Node120&#45;&gt;Node122 -->
<g id="edge5" class="edge">
<title>Node120&#45;&gt;Node122</title>
<path fill="none" stroke="#191970" d="M498.5901,-67C557.0026,-67 634.776,-67 691.9178,-67"/>
<polygon fill="#191970" stroke="#191970" points="498.2867,-63.5001 488.2866,-67 498.2866,-70.5001 498.2867,-63.5001"/>
</g>
<!-- Node121&#45;&gt;Node122 -->
<g id="edge4" class="edge">
<title>Node121&#45;&gt;Node122</title>
<path fill="none" stroke="#191970" d="M666.4152,-77.9194C674.8683,-77.0196 683.4846,-76.1025 691.9516,-75.2012"/>
<polygon fill="#191970" stroke="#191970" points="665.7797,-74.4672 656.2064,-79.006 666.5207,-81.4279 665.7797,-74.4672"/>
</g>
</g>
</svg>
