<?xml version="1.0" encoding="UTF-8" standalone="no"?>
<!DOCTYPE svg PUBLIC "-//W3C//DTD SVG 1.1//EN"
 "http://www.w3.org/Graphics/SVG/1.1/DTD/svg11.dtd">
<!-- Generated by graphviz version 2.40.1 (20161225.0304)
 -->
<!-- Title: VideoIO::run_video_thread Pages: 1 -->
<svg width="656pt" height="849pt"
 viewBox="0.00 0.00 656.00 849.00" xmlns="http://www.w3.org/2000/svg" xmlns:xlink="http://www.w3.org/1999/xlink">
<g id="graph0" class="graph" transform="scale(1 1) rotate(0) translate(4 845)">
<title>VideoIO::run_video_thread</title>
<polygon fill="#ffffff" stroke="transparent" points="-4,4 -4,-845 652,-845 652,4 -4,4"/>
<!-- Node78 -->
<g id="node1" class="node">
<title>Node78</title>
<polygon fill="#bfbfbf" stroke="#000000" points="0,-490 0,-520 109,-520 109,-490 0,-490"/>
<text text-anchor="start" x="8" y="-508" font-family="Helvetica,sans-Serif" font-size="10.00" fill="#000000">VideoIO::run_video</text>
<text text-anchor="middle" x="54.5" y="-497" font-family="Helvetica,sans-Serif" font-size="10.00" fill="#000000">_thread</text>
</g>
<!-- Node79 -->
<g id="node2" class="node">
<title>Node79</title>
<g id="a_node2"><a xlink:href="classFweelin.html#a681d7ca8d0789199af135f22c26a5409" target="_top" xlink:title="Fweelin::getCFG">
<polygon fill="#ffffff" stroke="#000000" points="171,-571.5 171,-590.5 266,-590.5 266,-571.5 171,-571.5"/>
<text text-anchor="middle" x="218.5" y="-578.5" font-family="Helvetica,sans-Serif" font-size="10.00" fill="#000000">Fweelin::getCFG</text>
</a>
</g>
</g>
<!-- Node78&#45;&gt;Node79 -->
<g id="edge1" class="edge">
<title>Node78&#45;&gt;Node79</title>
<path fill="none" stroke="#191970" d="M74.3427,-520.0399C92.0411,-532.8166 119.0872,-550.8139 145,-562 150.7175,-564.4681 156.8283,-566.6725 162.9925,-568.6262"/>
<polygon fill="#191970" stroke="#191970" points="162.0919,-572.0097 172.674,-571.4922 164.0788,-565.2976 162.0919,-572.0097"/>
</g>
<!-- Node80 -->
<g id="node3" class="node">
<title>Node80</title>
<g id="a_node3"><a xlink:href="classFloConfig.html#aed1a16c75b826011d233e2b8d60a0285" target="_top" xlink:title="FloConfig::GetFonts">
<polygon fill="#ffffff" stroke="#000000" points="163,-533.5 163,-552.5 274,-552.5 274,-533.5 163,-533.5"/>
<text text-anchor="middle" x="218.5" y="-540.5" font-family="Helvetica,sans-Serif" font-size="10.00" fill="#000000">FloConfig::GetFonts</text>
</a>
</g>
</g>
<!-- Node78&#45;&gt;Node80 -->
<g id="edge2" class="edge">
<title>Node78&#45;&gt;Node80</title>
<path fill="none" stroke="#191970" d="M109.1096,-517.6534C127.8998,-522.0073 148.8578,-526.8634 167.3612,-531.1508"/>
<polygon fill="#191970" stroke="#191970" points="166.827,-534.6196 177.359,-533.4673 168.4071,-527.8003 166.827,-534.6196"/>
</g>
<!-- Node81 -->
<g id="node4" class="node">
<title>Node81</title>
<g id="a_node4"><a xlink:href="classFweelin.html#aee6ec35a548fe04f7d0d5b8199d2234a" target="_top" xlink:title="Fweelin::IsRunning">
<polygon fill="#ffffff" stroke="#000000" points="165,-495.5 165,-514.5 272,-514.5 272,-495.5 165,-495.5"/>
<text text-anchor="middle" x="218.5" y="-502.5" font-family="Helvetica,sans-Serif" font-size="10.00" fill="#000000">Fweelin::IsRunning</text>
</a>
</g>
</g>
<!-- Node78&#45;&gt;Node81 -->
<g id="edge3" class="edge">
<title>Node78&#45;&gt;Node81</title>
<path fill="none" stroke="#191970" d="M109.1096,-505C123.7213,-505 139.6438,-505 154.7037,-505"/>
<polygon fill="#191970" stroke="#191970" points="154.9652,-508.5001 164.9652,-505 154.9651,-501.5001 154.9652,-508.5001"/>
</g>
<!-- Node82 -->
<g id="node5" class="node">
<title>Node82</title>
<g id="a_node5"><a xlink:href="classVideoIO.html#a67f2262d656bf186948f956f98544a7d" target="_top" xlink:title="VideoIO::SetVideoMode">
<polygon fill="#ffffff" stroke="#000000" points="153,-457.5 153,-476.5 284,-476.5 284,-457.5 153,-457.5"/>
<text text-anchor="middle" x="218.5" y="-464.5" font-family="Helvetica,sans-Serif" font-size="10.00" fill="#000000">VideoIO::SetVideoMode</text>
</a>
</g>
</g>
<!-- Node78&#45;&gt;Node82 -->
<g id="edge4" class="edge">
<title>Node78&#45;&gt;Node82</title>
<path fill="none" stroke="#191970" d="M109.1096,-492.3466C127.8998,-487.9927 148.8578,-483.1366 167.3612,-478.8492"/>
<polygon fill="#191970" stroke="#191970" points="168.4071,-482.1997 177.359,-476.5327 166.827,-475.3804 168.4071,-482.1997"/>
</g>
<!-- Node83 -->
<g id="node6" class="node">
<title>Node83</title>
<g id="a_node6"><a xlink:href="classVideoIO.html#a50e4ccae99e278ed7d65d9db86f18c92" target="_top" xlink:title="VideoIO::video_event_loop">
<polygon fill="#ffffff" stroke="#000000" points="145,-419.5 145,-438.5 292,-438.5 292,-419.5 145,-419.5"/>
<text text-anchor="middle" x="218.5" y="-426.5" font-family="Helvetica,sans-Serif" font-size="10.00" fill="#000000">VideoIO::video_event_loop</text>
</a>
</g>
</g>
<!-- Node78&#45;&gt;Node83 -->
<g id="edge5" class="edge">
<title>Node78&#45;&gt;Node83</title>
<path fill="none" stroke="#191970" d="M74.3427,-489.9601C92.0411,-477.1834 119.0872,-459.1861 145,-448 150.7175,-445.5319 156.8283,-443.3275 162.9925,-441.3738"/>
<polygon fill="#191970" stroke="#191970" points="164.0788,-444.7024 172.674,-438.5078 162.0919,-437.9903 164.0788,-444.7024"/>
</g>
<!-- Node84 -->
<g id="node7" class="node">
<title>Node84</title>
<g id="a_node7"><a xlink:href="classFloConfig.html#aff71b918ab4b4a0e08c905a0392327b4" target="_top" xlink:title="FloConfig::GetLayouts">
<polygon fill="#ffffff" stroke="#000000" points="352,-821.5 352,-840.5 475,-840.5 475,-821.5 352,-821.5"/>
<text text-anchor="middle" x="413.5" y="-828.5" font-family="Helvetica,sans-Serif" font-size="10.00" fill="#000000">FloConfig::GetLayouts</text>
</a>
</g>
</g>
<!-- Node83&#45;&gt;Node84 -->
<g id="edge6" class="edge">
<title>Node83&#45;&gt;Node84</title>
<path fill="none" stroke="#191970" d="M280.5351,-438.5929C284.8321,-441.1027 288.7422,-444.196 292,-448 344.8727,-509.7373 274.0765,-751.1784 328,-812 332.0713,-816.5921 336.9839,-820.2085 342.3715,-823.0427"/>
<polygon fill="#191970" stroke="#191970" points="341.2528,-826.3715 351.822,-827.1083 344.019,-819.9413 341.2528,-826.3715"/>
</g>
<!-- Node85 -->
<g id="node8" class="node">
<title>Node85</title>
<g id="a_node8"><a xlink:href="classFloConfig.html#aa62370595b1af139846a7900c3b5d9b6" target="_top" xlink:title="FloConfig::GetNumHelpLines">
<polygon fill="#ffffff" stroke="#000000" points="335.5,-783.5 335.5,-802.5 491.5,-802.5 491.5,-783.5 335.5,-783.5"/>
<text text-anchor="middle" x="413.5" y="-790.5" font-family="Helvetica,sans-Serif" font-size="10.00" fill="#000000">FloConfig::GetNumHelpLines</text>
</a>
</g>
</g>
<!-- Node83&#45;&gt;Node85 -->
<g id="edge7" class="edge">
<title>Node83&#45;&gt;Node85</title>
<path fill="none" stroke="#191970" d="M280.488,-438.6334C284.7952,-441.1344 288.7206,-444.2146 292,-448 387.4488,-558.174 230.676,-665.4789 328,-774 329.047,-775.1674 330.1483,-776.2716 331.298,-777.3158"/>
<polygon fill="#191970" stroke="#191970" points="329.3942,-780.2604 339.5225,-783.3698 333.5439,-774.6229 329.3942,-780.2604"/>
</g>
<!-- Node86 -->
<g id="node9" class="node">
<title>Node86</title>
<g id="a_node9"><a xlink:href="classFloConfig.html#a6f9a4416995b8fb9f97f92278b082fa2" target="_top" xlink:title="FloConfig::GetHelpLine">
<polygon fill="#ffffff" stroke="#000000" points="349.5,-745.5 349.5,-764.5 477.5,-764.5 477.5,-745.5 349.5,-745.5"/>
<text text-anchor="middle" x="413.5" y="-752.5" font-family="Helvetica,sans-Serif" font-size="10.00" fill="#000000">FloConfig::GetHelpLine</text>
</a>
</g>
</g>
<!-- Node83&#45;&gt;Node86 -->
<g id="edge8" class="edge">
<title>Node83&#45;&gt;Node86</title>
<path fill="none" stroke="#191970" d="M280.429,-438.6849C284.7491,-441.1747 288.6935,-444.2383 292,-448 377.164,-544.887 241.1872,-640.5876 328,-736 331.5545,-739.9066 335.7184,-743.1029 340.261,-745.7096"/>
<polygon fill="#191970" stroke="#191970" points="338.8657,-748.9214 349.4027,-750.0278 341.8556,-742.592 338.8657,-748.9214"/>
</g>
<!-- Node87 -->
<g id="node10" class="node">
<title>Node87</title>
<g id="a_node10"><a xlink:href="fweelin__videoio_8cc.html#a0bb68d7f77df8d1848af0e9fc6716197" target="_top" xlink:title="mygettime">
<polygon fill="#ffffff" stroke="#000000" points="378,-707.5 378,-726.5 449,-726.5 449,-707.5 378,-707.5"/>
<text text-anchor="middle" x="413.5" y="-714.5" font-family="Helvetica,sans-Serif" font-size="10.00" fill="#000000">mygettime</text>
</a>
</g>
</g>
<!-- Node83&#45;&gt;Node87 -->
<g id="edge9" class="edge">
<title>Node83&#45;&gt;Node87</title>
<path fill="none" stroke="#191970" d="M280.0099,-438.5581C284.4802,-441.0679 288.5706,-444.1711 292,-448 366.8964,-531.6195 251.6808,-615.6771 328,-698 338.1634,-708.9629 353.1303,-714.3077 367.7124,-716.7327"/>
<polygon fill="#191970" stroke="#191970" points="367.3257,-720.2115 377.6824,-717.9782 368.1934,-713.2655 367.3257,-720.2115"/>
</g>
<!-- Node88 -->
<g id="node11" class="node">
<title>Node88</title>
<g id="a_node11"><a xlink:href="classLoopManager.html#af9eaf8cfd1e8ce743fea88e21a0b295a" target="_top" xlink:title="LoopManager::GetPulseByIndex">
<polygon fill="#ffffff" stroke="#000000" points="328,-669.5 328,-688.5 499,-688.5 499,-669.5 328,-669.5"/>
<text text-anchor="middle" x="413.5" y="-676.5" font-family="Helvetica,sans-Serif" font-size="10.00" fill="#000000">LoopManager::GetPulseByIndex</text>
</a>
</g>
</g>
<!-- Node83&#45;&gt;Node88 -->
<g id="edge10" class="edge">
<title>Node83&#45;&gt;Node88</title>
<path fill="none" stroke="#191970" d="M279.9065,-438.6519C284.3989,-441.1417 288.5226,-444.2146 292,-448 356.6552,-518.3814 262.1475,-590.7377 328,-660 329.2246,-661.288 330.5155,-662.4979 331.8642,-663.6343"/>
<polygon fill="#191970" stroke="#191970" points="329.9445,-666.5621 340.1606,-669.3693 333.9249,-660.8039 329.9445,-666.5621"/>
</g>
<!-- Node89 -->
<g id="node12" class="node">
<title>Node89</title>
<g id="a_node12"><a xlink:href="classPulse.html#a0cb99bfae020d317e791a161b43be165" target="_top" xlink:title="Pulse::GetPct">
<polygon fill="#ffffff" stroke="#000000" points="373,-631.5 373,-650.5 454,-650.5 454,-631.5 373,-631.5"/>
<text text-anchor="middle" x="413.5" y="-638.5" font-family="Helvetica,sans-Serif" font-size="10.00" fill="#000000">Pulse::GetPct</text>
</a>
</g>
</g>
<!-- Node83&#45;&gt;Node89 -->
<g id="edge11" class="edge">
<title>Node83&#45;&gt;Node89</title>
<path fill="none" stroke="#191970" d="M279.413,-438.5992C284.0707,-441.0934 288.3645,-444.1821 292,-448 346.4578,-505.1908 272.5695,-565.7514 328,-622 337.1797,-631.3152 349.842,-636.5158 362.6107,-639.3151"/>
<polygon fill="#191970" stroke="#191970" points="362.3591,-642.8234 372.8092,-641.078 363.5515,-635.9257 362.3591,-642.8234"/>
</g>
<!-- Node90 -->
<g id="node13" class="node">
<title>Node90</title>
<g id="a_node13"><a xlink:href="classLoopManager.html#a081849cd73540c791b32be3aab90dec4" target="_top" xlink:title="LoopManager::LockLoops">
<polygon fill="#ffffff" stroke="#000000" points="344,-593.5 344,-612.5 483,-612.5 483,-593.5 344,-593.5"/>
<text text-anchor="middle" x="413.5" y="-600.5" font-family="Helvetica,sans-Serif" font-size="10.00" fill="#000000">LoopManager::LockLoops</text>
</a>
</g>
</g>
<!-- Node83&#45;&gt;Node90 -->
<g id="edge12" class="edge">
<title>Node83&#45;&gt;Node90</title>
<path fill="none" stroke="#191970" d="M278.8393,-438.6322C283.678,-441.1132 288.1679,-444.1901 292,-448 336.3409,-492.0842 282.9097,-540.6826 328,-584 330.1588,-586.074 332.4913,-587.9413 334.9579,-589.6215"/>
<polygon fill="#191970" stroke="#191970" points="333.3793,-592.75 343.8039,-594.6417 336.8343,-586.662 333.3793,-592.75"/>
</g>
<!-- Node91 -->
<g id="node14" class="node">
<title>Node91</title>
<g id="a_node14"><a xlink:href="classLoopManager.html#ab5444c4b3ee3ccbab1160e23d7363752" target="_top" xlink:title="LoopManager::GetSlot">
<polygon fill="#ffffff" stroke="#000000" points="351.5,-555.5 351.5,-574.5 475.5,-574.5 475.5,-555.5 351.5,-555.5"/>
<text text-anchor="middle" x="413.5" y="-562.5" font-family="Helvetica,sans-Serif" font-size="10.00" fill="#000000">LoopManager::GetSlot</text>
</a>
</g>
</g>
<!-- Node83&#45;&gt;Node91 -->
<g id="edge13" class="edge">
<title>Node83&#45;&gt;Node91</title>
<path fill="none" stroke="#191970" d="M277.3887,-438.5007C282.7091,-440.9917 287.7014,-444.1075 292,-448 326.3952,-479.1457 293.0758,-515.4487 328,-546 332.1487,-549.6293 336.8369,-552.6117 341.8285,-555.0577"/>
<polygon fill="#191970" stroke="#191970" points="340.5126,-558.3009 351.0902,-558.9049 343.198,-551.8365 340.5126,-558.3009"/>
</g>
<!-- Node94 -->
<g id="node17" class="node">
<title>Node94</title>
<g id="a_node17"><a xlink:href="classLoopManager.html#a038d8bb8230e77094aa6cfc2f9b3fc00" target="_top" xlink:title="LoopManager::IsActive">
<polygon fill="#ffffff" stroke="#000000" points="350,-517.5 350,-536.5 477,-536.5 477,-517.5 350,-517.5"/>
<text text-anchor="middle" x="413.5" y="-524.5" font-family="Helvetica,sans-Serif" font-size="10.00" fill="#000000">LoopManager::IsActive</text>
</a>
</g>
</g>
<!-- Node83&#45;&gt;Node94 -->
<g id="edge16" class="edge">
<title>Node83&#45;&gt;Node94</title>
<path fill="none" stroke="#191970" d="M274.8047,-438.5963C280.9406,-441.0528 286.8264,-444.1346 292,-448 316.9128,-466.6135 302.7717,-489.8164 328,-508 331.8819,-510.7979 336.1013,-513.195 340.5167,-515.2476"/>
<polygon fill="#191970" stroke="#191970" points="339.2264,-518.5011 349.8097,-518.9951 341.8444,-512.0091 339.2264,-518.5011"/>
</g>
<!-- Node95 -->
<g id="node18" class="node">
<title>Node95</title>
<g id="a_node18"><a xlink:href="classLoopManager.html#ad91cfa5fc2818dd578edbd4470c389e7" target="_top" xlink:title="LoopManager::UnlockLoops">
<polygon fill="#ffffff" stroke="#000000" points="338.5,-479.5 338.5,-498.5 488.5,-498.5 488.5,-479.5 338.5,-479.5"/>
<text text-anchor="middle" x="413.5" y="-486.5" font-family="Helvetica,sans-Serif" font-size="10.00" fill="#000000">LoopManager::UnlockLoops</text>
</a>
</g>
</g>
<!-- Node83&#45;&gt;Node95 -->
<g id="edge17" class="edge">
<title>Node83&#45;&gt;Node95</title>
<path fill="none" stroke="#191970" d="M264.2869,-438.5992C273.6257,-441.1754 283.2624,-444.298 292,-448 309.2654,-455.3151 310.6117,-462.982 328,-470 334.3475,-472.5619 341.1064,-474.8103 347.9357,-476.7762"/>
<polygon fill="#191970" stroke="#191970" points="347.3872,-480.2526 357.9522,-479.4581 349.1977,-473.4907 347.3872,-480.2526"/>
</g>
<!-- Node96 -->
<g id="node19" class="node">
<title>Node96</title>
<g id="a_node19"><a xlink:href="classLoopManager.html#ab9c9e72e1a23b34c15a87dc13fb02672" target="_top" xlink:title="LoopManager::GetTriggerVol">
<polygon fill="#ffffff" stroke="#000000" points="337,-441.5 337,-460.5 490,-460.5 490,-441.5 337,-441.5"/>
<text text-anchor="middle" x="413.5" y="-448.5" font-family="Helvetica,sans-Serif" font-size="10.00" fill="#000000">LoopManager::GetTriggerVol</text>
</a>
</g>
</g>
<!-- Node83&#45;&gt;Node96 -->
<g id="edge18" class="edge">
<title>Node83&#45;&gt;Node96</title>
<path fill="none" stroke="#191970" d="M292.2211,-437.3173C303.4825,-438.5878 315.1945,-439.9091 326.7052,-441.2078"/>
<polygon fill="#191970" stroke="#191970" points="326.4229,-444.698 336.7523,-442.3413 327.2077,-437.7422 326.4229,-444.698"/>
</g>
<!-- Node97 -->
<g id="node20" class="node">
<title>Node97</title>
<g id="a_node20"><a xlink:href="classFloLayoutElementGeometry.html#aa2fe7c6e08976e7c095aae7fc17dd4fa" target="_top" xlink:title="FloLayoutElementGeometry\l::Draw">
<polygon fill="#ffffff" stroke="#000000" points="337,-392 337,-422 490,-422 490,-392 337,-392"/>
<text text-anchor="start" x="345" y="-410" font-family="Helvetica,sans-Serif" font-size="10.00" fill="#000000">FloLayoutElementGeometry</text>
<text text-anchor="middle" x="413.5" y="-399" font-family="Helvetica,sans-Serif" font-size="10.00" fill="#000000">::Draw</text>
</a>
</g>
</g>
<!-- Node83&#45;&gt;Node97 -->
<g id="edge19" class="edge">
<title>Node83&#45;&gt;Node97</title>
<path fill="none" stroke="#191970" d="M292.2211,-420.6827C303.4825,-419.4122 315.1945,-418.0909 326.7052,-416.7922"/>
<polygon fill="#191970" stroke="#191970" points="327.2077,-420.2578 336.7523,-415.6587 326.4229,-413.302 327.2077,-420.2578"/>
</g>
<!-- Node98 -->
<g id="node21" class="node">
<title>Node98</title>
<g id="a_node21"><a xlink:href="classLoopManager.html#ade69a979908f9f04f0be3da541d4fbbe" target="_top" xlink:title="LoopManager::GetCurPulse\lIndex">
<polygon fill="#ffffff" stroke="#000000" points="339.5,-343 339.5,-373 487.5,-373 487.5,-343 339.5,-343"/>
<text text-anchor="start" x="347.5" y="-361" font-family="Helvetica,sans-Serif" font-size="10.00" fill="#000000">LoopManager::GetCurPulse</text>
<text text-anchor="middle" x="413.5" y="-350" font-family="Helvetica,sans-Serif" font-size="10.00" fill="#000000">Index</text>
</a>
</g>
</g>
<!-- Node83&#45;&gt;Node98 -->
<g id="edge20" class="edge">
<title>Node83&#45;&gt;Node98</title>
<path fill="none" stroke="#191970" d="M238.7651,-419.3451C260.5061,-409.2145 296.2045,-393.2312 328,-382 333.8194,-379.9444 339.9095,-377.9448 346.0433,-376.034"/>
<polygon fill="#191970" stroke="#191970" points="347.1322,-379.3613 355.6856,-373.1091 345.1001,-372.6627 347.1322,-379.3613"/>
</g>
<!-- Node99 -->
<g id="node22" class="node">
<title>Node99</title>
<g id="a_node22"><a xlink:href="classPulse.html#a8fd91586bcc1fc32f417b7fe1769ea73" target="_top" xlink:title="Pulse::GetLongCount_Len">
<polygon fill="#ffffff" stroke="#000000" points="343.5,-304.5 343.5,-323.5 483.5,-323.5 483.5,-304.5 343.5,-304.5"/>
<text text-anchor="middle" x="413.5" y="-311.5" font-family="Helvetica,sans-Serif" font-size="10.00" fill="#000000">Pulse::GetLongCount_Len</text>
</a>
</g>
</g>
<!-- Node83&#45;&gt;Node99 -->
<g id="edge21" class="edge">
<title>Node83&#45;&gt;Node99</title>
<path fill="none" stroke="#191970" d="M226.4421,-419.3443C243.0959,-399.7771 283.8034,-355.4078 328,-333 332.6281,-330.6535 337.5417,-328.595 342.5823,-326.7894"/>
<polygon fill="#191970" stroke="#191970" points="343.9516,-330.0252 352.3907,-323.6195 341.7989,-323.3644 343.9516,-330.0252"/>
</g>
<!-- Node100 -->
<g id="node23" class="node">
<title>Node100</title>
<g id="a_node23"><a xlink:href="classPulse.html#a4c6ecc5176c3dd0cbf85cf276d82f6f5" target="_top" xlink:title="Pulse::GetLongCount_Cur">
<polygon fill="#ffffff" stroke="#000000" points="343.5,-266.5 343.5,-285.5 483.5,-285.5 483.5,-266.5 343.5,-266.5"/>
<text text-anchor="middle" x="413.5" y="-273.5" font-family="Helvetica,sans-Serif" font-size="10.00" fill="#000000">Pulse::GetLongCount_Cur</text>
</a>
</g>
</g>
<!-- Node83&#45;&gt;Node100 -->
<g id="edge22" class="edge">
<title>Node83&#45;&gt;Node100</title>
<path fill="none" stroke="#191970" d="M223.3695,-419.3768C236.5136,-394.4489 275.3082,-327.4633 328,-295 331.5683,-292.8016 335.3593,-290.8563 339.2837,-289.1352"/>
<polygon fill="#191970" stroke="#191970" points="340.5792,-292.3869 348.6408,-285.5123 338.0517,-285.8591 340.5792,-292.3869"/>
</g>
<!-- Node101 -->
<g id="node24" class="node">
<title>Node101</title>
<g id="a_node24"><a xlink:href="classFloConfig.html#a0ed71f68af879a252be8152f69721a7c" target="_top" xlink:title="FloConfig::GetVSize">
<polygon fill="#ffffff" stroke="#000000" points="357.5,-228.5 357.5,-247.5 469.5,-247.5 469.5,-228.5 357.5,-228.5"/>
<text text-anchor="middle" x="413.5" y="-235.5" font-family="Helvetica,sans-Serif" font-size="10.00" fill="#000000">FloConfig::GetVSize</text>
</a>
</g>
</g>
<!-- Node83&#45;&gt;Node101 -->
<g id="edge23" class="edge">
<title>Node83&#45;&gt;Node101</title>
<path fill="none" stroke="#191970" d="M221.6458,-419.3204C231.7803,-389.7612 266.5438,-300.0695 328,-257 333.9927,-252.8002 340.7538,-249.508 347.7826,-246.9306"/>
<polygon fill="#191970" stroke="#191970" points="349.0197,-250.2099 357.4864,-243.8408 346.8958,-243.5399 349.0197,-250.2099"/>
</g>
<!-- Node102 -->
<g id="node25" class="node">
<title>Node102</title>
<g id="a_node25"><a xlink:href="classFloConfig.html#a518f2634c4851c307d07acfa6e6fcb01" target="_top" xlink:title="FloConfig::GetDisplays">
<polygon fill="#ffffff" stroke="#000000" points="350,-190.5 350,-209.5 477,-209.5 477,-190.5 350,-190.5"/>
<text text-anchor="middle" x="413.5" y="-197.5" font-family="Helvetica,sans-Serif" font-size="10.00" fill="#000000">FloConfig::GetDisplays</text>
</a>
</g>
</g>
<!-- Node83&#45;&gt;Node102 -->
<g id="edge24" class="edge">
<title>Node83&#45;&gt;Node102</title>
<path fill="none" stroke="#191970" d="M220.5236,-419.1808C228.0252,-385.3956 257.5354,-273.0596 328,-219 331.8682,-216.0324 336.1085,-213.5101 340.5672,-211.3681"/>
<polygon fill="#191970" stroke="#191970" points="342.0682,-214.5351 349.9766,-207.4848 339.3977,-208.0645 342.0682,-214.5351"/>
</g>
<!-- Node103 -->
<g id="node26" class="node">
<title>Node103</title>
<g id="a_node26"><a xlink:href="classFloDisplay.html#af489585ad5534b5b6c7122eaec75fdef" target="_top" xlink:title="FloDisplay::Draw">
<polygon fill="#ffffff" stroke="#000000" points="364.5,-152.5 364.5,-171.5 462.5,-171.5 462.5,-152.5 364.5,-152.5"/>
<text text-anchor="middle" x="413.5" y="-159.5" font-family="Helvetica,sans-Serif" font-size="10.00" fill="#000000">FloDisplay::Draw</text>
</a>
</g>
</g>
<!-- Node83&#45;&gt;Node103 -->
<g id="edge25" class="edge">
<title>Node83&#45;&gt;Node103</title>
<path fill="none" stroke="#191970" d="M219.6714,-419.3082C224.7191,-382.0027 248.1157,-246.5078 328,-181 335.5922,-174.7742 344.7938,-170.4802 354.3101,-167.5397"/>
<polygon fill="#191970" stroke="#191970" points="355.4918,-170.8488 364.2866,-164.9411 353.7273,-164.0748 355.4918,-170.8488"/>
</g>
<!-- Node104 -->
<g id="node27" class="node">
<title>Node104</title>
<g id="a_node27"><a xlink:href="classLoopManager.html#a43eaf9dbece24065fe0f97483beb61e6" target="_top" xlink:title="LoopManager::GetNumSave">
<polygon fill="#ffffff" stroke="#000000" points="337.5,-114.5 337.5,-133.5 489.5,-133.5 489.5,-114.5 337.5,-114.5"/>
<text text-anchor="middle" x="413.5" y="-121.5" font-family="Helvetica,sans-Serif" font-size="10.00" fill="#000000">LoopManager::GetNumSave</text>
</a>
</g>
</g>
<!-- Node83&#45;&gt;Node104 -->
<g id="edge26" class="edge">
<title>Node83&#45;&gt;Node104</title>
<path fill="none" stroke="#191970" d="M219.0525,-419.286C221.9171,-378.5578 238.6359,-220.1079 328,-143 329.7773,-141.4665 331.6511,-140.0488 333.6034,-138.7386"/>
<polygon fill="#191970" stroke="#191970" points="335.6207,-141.6191 342.6096,-133.6564 332.1805,-135.5228 335.6207,-141.6191"/>
</g>
<!-- Node105 -->
<g id="node28" class="node">
<title>Node105</title>
<g id="a_node28"><a xlink:href="classLoopManager.html#a277bfb07ed010109914e805614067dd8" target="_top" xlink:title="LoopManager::GetCurSave">
<polygon fill="#ffffff" stroke="#000000" points="340.5,-76.5 340.5,-95.5 486.5,-95.5 486.5,-76.5 340.5,-76.5"/>
<text text-anchor="middle" x="413.5" y="-83.5" font-family="Helvetica,sans-Serif" font-size="10.00" fill="#000000">LoopManager::GetCurSave</text>
</a>
</g>
</g>
<!-- Node83&#45;&gt;Node105 -->
<g id="edge27" class="edge">
<title>Node83&#45;&gt;Node105</title>
<path fill="none" stroke="#191970" d="M220.4669,-419.2022C230.544,-369.9537 277.8617,-150.0304 328,-105 329.7005,-103.4728 331.496,-102.0594 333.3696,-100.7517"/>
<polygon fill="#191970" stroke="#191970" points="335.1772,-103.7492 342.0317,-95.6704 331.6353,-97.7114 335.1772,-103.7492"/>
</g>
<!-- Node106 -->
<g id="node29" class="node">
<title>Node106</title>
<g id="a_node29"><a xlink:href="classLoopManager.html#ac7ee7dba76d1e81f2428080d956be4b4" target="_top" xlink:title="LoopManager::GetNumLoad">
<polygon fill="#ffffff" stroke="#000000" points="337.5,-38.5 337.5,-57.5 489.5,-57.5 489.5,-38.5 337.5,-38.5"/>
<text text-anchor="middle" x="413.5" y="-45.5" font-family="Helvetica,sans-Serif" font-size="10.00" fill="#000000">LoopManager::GetNumLoad</text>
</a>
</g>
</g>
<!-- Node83&#45;&gt;Node106 -->
<g id="edge28" class="edge">
<title>Node83&#45;&gt;Node106</title>
<path fill="none" stroke="#191970" d="M220.0579,-419.4753C228.7532,-367.4522 272.8822,-118.1281 328,-67 329.6757,-65.4456 331.4494,-64.0082 333.3038,-62.6795"/>
<polygon fill="#191970" stroke="#191970" points="335.1231,-65.6696 341.8977,-57.5237 331.5219,-59.667 335.1231,-65.6696"/>
</g>
<!-- Node107 -->
<g id="node30" class="node">
<title>Node107</title>
<g id="a_node30"><a xlink:href="classLoopManager.html#a052cd75c7c1d8eca7230b24f676eb0f4" target="_top" xlink:title="LoopManager::GetCurLoad">
<polygon fill="#ffffff" stroke="#000000" points="341,-.5 341,-19.5 486,-19.5 486,-.5 341,-.5"/>
<text text-anchor="middle" x="413.5" y="-7.5" font-family="Helvetica,sans-Serif" font-size="10.00" fill="#000000">LoopManager::GetCurLoad</text>
</a>
</g>
</g>
<!-- Node83&#45;&gt;Node107 -->
<g id="edge29" class="edge">
<title>Node83&#45;&gt;Node107</title>
<path fill="none" stroke="#191970" d="M219.8038,-419.2274C227.4351,-363.4765 268.0485,-86.1101 328,-29 329.4863,-27.5841 331.0537,-26.2647 332.6893,-25.0356"/>
<polygon fill="#191970" stroke="#191970" points="334.7478,-27.8766 341.3784,-19.6131 331.0418,-21.9381 334.7478,-27.8766"/>
</g>
<!-- Node92 -->
<g id="node15" class="node">
<title>Node92</title>
<g id="a_node15"><a xlink:href="classFweelin.html#a10bb364ecf38990653b49a98c5a89c90" target="_top" xlink:title="Fweelin::getTMAP">
<polygon fill="#ffffff" stroke="#000000" points="540,-574.5 540,-593.5 643,-593.5 643,-574.5 540,-574.5"/>
<text text-anchor="middle" x="591.5" y="-581.5" font-family="Helvetica,sans-Serif" font-size="10.00" fill="#000000">Fweelin::getTMAP</text>
</a>
</g>
</g>
<!-- Node91&#45;&gt;Node92 -->
<g id="edge14" class="edge">
<title>Node91&#45;&gt;Node92</title>
<path fill="none" stroke="#191970" d="M475.7558,-571.6453C493.2712,-573.5149 512.3102,-575.5472 529.7935,-577.4133"/>
<polygon fill="#191970" stroke="#191970" points="529.5693,-580.9092 539.8843,-578.4905 530.3123,-573.9488 529.5693,-580.9092"/>
</g>
<!-- Node93 -->
<g id="node16" class="node">
<title>Node93</title>
<g id="a_node16"><a xlink:href="classTriggerMap.html#aca3f85b40f3aa29a280c2d7511b84217" target="_top" xlink:title="TriggerMap::GetMap">
<polygon fill="#ffffff" stroke="#000000" points="535,-536.5 535,-555.5 648,-555.5 648,-536.5 535,-536.5"/>
<text text-anchor="middle" x="591.5" y="-543.5" font-family="Helvetica,sans-Serif" font-size="10.00" fill="#000000">TriggerMap::GetMap</text>
</a>
</g>
</g>
<!-- Node91&#45;&gt;Node93 -->
<g id="edge15" class="edge">
<title>Node91&#45;&gt;Node93</title>
<path fill="none" stroke="#191970" d="M475.7558,-558.3547C491.5458,-556.6693 508.5739,-554.8517 524.5842,-553.1427"/>
<polygon fill="#191970" stroke="#191970" points="525.3631,-556.5795 534.9351,-552.0378 524.6201,-549.6191 525.3631,-556.5795"/>
</g>
</g>
</svg>
