<?xml version="1.0" encoding="UTF-8" standalone="no"?>
<!DOCTYPE svg PUBLIC "-//W3C//DTD SVG 1.1//EN"
 "http://www.w3.org/Graphics/SVG/1.1/DTD/svg11.dtd">
<!-- Generated by graphviz version 2.40.1 (20161225.0304)
 -->
<!-- Title: Saveable::SetSaveableHashFromText Pages: 1 -->
<svg width="519pt" height="104pt"
 viewBox="0.00 0.00 519.00 104.00" xmlns="http://www.w3.org/2000/svg" xmlns:xlink="http://www.w3.org/1999/xlink">
<g id="graph0" class="graph" transform="scale(1 1) rotate(0) translate(4 100)">
<title>Saveable::SetSaveableHashFromText</title>
<polygon fill="#ffffff" stroke="transparent" points="-4,4 -4,-100 515,-100 515,4 -4,4"/>
<!-- Node57 -->
<g id="node1" class="node">
<title>Node57</title>
<polygon fill="#bfbfbf" stroke="#000000" points="0,-33 0,-63 153,-63 153,-33 0,-33"/>
<text text-anchor="start" x="8" y="-51" font-family="Helvetica,sans-Serif" font-size="10.00" fill="#000000">Saveable::SetSaveableHash</text>
<text text-anchor="middle" x="76.5" y="-40" font-family="Helvetica,sans-Serif" font-size="10.00" fill="#000000">FromText</text>
</g>
<!-- Node58 -->
<g id="node2" class="node">
<title>Node58</title>
<g id="a_node2"><a xlink:href="classSaveable.html#a60561f2bd64b6e0044bae84729d3a01a" target="_top" xlink:title="Saveable::SetSaveStatus">
<polygon fill="#ffffff" stroke="#000000" points="196,-76.5 196,-95.5 334,-95.5 334,-76.5 196,-76.5"/>
<text text-anchor="middle" x="265" y="-83.5" font-family="Helvetica,sans-Serif" font-size="10.00" fill="#000000">Saveable::SetSaveStatus</text>
</a>
</g>
</g>
<!-- Node57&#45;&gt;Node58 -->
<g id="edge1" class="edge">
<title>Node57&#45;&gt;Node58</title>
<path fill="none" stroke="#191970" d="M151.0002,-63.0186C169.9277,-66.8342 189.9677,-70.8741 207.8786,-74.4848"/>
<polygon fill="#191970" stroke="#191970" points="207.3759,-77.9538 217.8704,-76.4991 208.7593,-71.0919 207.3759,-77.9538"/>
</g>
<!-- Node59 -->
<g id="node3" class="node">
<title>Node59</title>
<g id="a_node3"><a xlink:href="classSaveable.html#a4e8b7b5e6fe537a5c68c35927741a6e3" target="_top" xlink:title="Saveable::SplitFilename">
<polygon fill="#ffffff" stroke="#000000" points="377,-19.5 377,-38.5 511,-38.5 511,-19.5 377,-19.5"/>
<text text-anchor="middle" x="444" y="-26.5" font-family="Helvetica,sans-Serif" font-size="10.00" fill="#000000">Saveable::SplitFilename</text>
</a>
</g>
</g>
<!-- Node57&#45;&gt;Node59 -->
<g id="edge2" class="edge">
<title>Node57&#45;&gt;Node59</title>
<path fill="none" stroke="#191970" d="M153.0927,-44.0401C215.6621,-40.8052 303.7121,-36.253 366.5206,-33.0057"/>
<polygon fill="#191970" stroke="#191970" points="366.961,-36.4877 376.7669,-32.476 366.5995,-29.4971 366.961,-36.4877"/>
</g>
<!-- Node60 -->
<g id="node4" class="node">
<title>Node60</title>
<g id="a_node4"><a xlink:href="classSaveable.html#adae4cd33642810eed468c68042afe01e" target="_top" xlink:title="Saveable::RenameSaveable">
<polygon fill="#ffffff" stroke="#000000" points="189,-.5 189,-19.5 341,-19.5 341,-.5 189,-.5"/>
<text text-anchor="middle" x="265" y="-7.5" font-family="Helvetica,sans-Serif" font-size="10.00" fill="#000000">Saveable::RenameSaveable</text>
</a>
</g>
</g>
<!-- Node57&#45;&gt;Node60 -->
<g id="edge3" class="edge">
<title>Node57&#45;&gt;Node60</title>
<path fill="none" stroke="#191970" d="M151.0002,-32.9814C169.9277,-29.1658 189.9677,-25.1259 207.8786,-21.5152"/>
<polygon fill="#191970" stroke="#191970" points="208.7593,-24.9081 217.8704,-19.5009 207.3759,-18.0462 208.7593,-24.9081"/>
</g>
<!-- Node60&#45;&gt;Node59 -->
<g id="edge4" class="edge">
<title>Node60&#45;&gt;Node59</title>
<path fill="none" stroke="#191970" d="M341.1717,-18.0853C349.7207,-18.9927 358.4358,-19.9178 366.9953,-20.8263"/>
<polygon fill="#191970" stroke="#191970" points="366.6391,-24.3081 376.9527,-21.8832 367.378,-17.3472 366.6391,-24.3081"/>
</g>
</g>
</svg>
