<?xml version="1.0" encoding="UTF-8" standalone="no"?>
<!DOCTYPE svg PUBLIC "-//W3C//DTD SVG 1.1//EN"
 "http://www.w3.org/Graphics/SVG/1.1/DTD/svg11.dtd">
<!-- Generated by graphviz version 2.40.1 (20161225.0304)
 -->
<!-- Title: Fweelin::getAUDIOMEMI Pages: 1 -->
<svg width="880pt" height="142pt"
 viewBox="0.00 0.00 880.00 142.00" xmlns="http://www.w3.org/2000/svg" xmlns:xlink="http://www.w3.org/1999/xlink">
<g id="graph0" class="graph" transform="scale(1 1) rotate(0) translate(4 138)">
<title>Fweelin::getAUDIOMEMI</title>
<polygon fill="#ffffff" stroke="transparent" points="-4,4 -4,-138 876,-138 876,4 -4,4"/>
<!-- Node92 -->
<g id="node1" class="node">
<title>Node92</title>
<polygon fill="#bfbfbf" stroke="#000000" points="0,-38.5 0,-57.5 134,-57.5 134,-38.5 0,-38.5"/>
<text text-anchor="middle" x="67" y="-45.5" font-family="Helvetica,sans-Serif" font-size="10.00" fill="#000000">Fweelin::getAUDIOMEMI</text>
</g>
<!-- Node93 -->
<g id="node2" class="node">
<title>Node93</title>
<g id="a_node2"><a xlink:href="classLoopManager.html#a5630b6fefdfc931ac0ab511c6b77cecf" target="_top" xlink:title="LoopManager::StripePulseOn">
<polygon fill="#ffffff" stroke="#000000" points="170,-57.5 170,-76.5 326,-76.5 326,-57.5 170,-57.5"/>
<text text-anchor="middle" x="248" y="-64.5" font-family="Helvetica,sans-Serif" font-size="10.00" fill="#000000">LoopManager::StripePulseOn</text>
</a>
</g>
</g>
<!-- Node92&#45;&gt;Node93 -->
<g id="edge1" class="edge">
<title>Node92&#45;&gt;Node93</title>
<path fill="none" stroke="#191970" d="M144.1005,-56.0934C152.6651,-56.9925 161.3935,-57.9087 169.9696,-58.809"/>
<polygon fill="#191970" stroke="#191970" points="144.4513,-52.6111 134.1405,-55.0479 143.7204,-59.5728 144.4513,-52.6111"/>
</g>
<!-- Node98 -->
<g id="node7" class="node">
<title>Node98</title>
<g id="a_node7"><a xlink:href="classLoopManager.html#add3b21cda3c0eddecabf19d24c610cdc" target="_top" xlink:title="LoopManager::Activate">
<polygon fill="#ffffff" stroke="#000000" points="371,-.5 371,-19.5 499,-19.5 499,-.5 371,-.5"/>
<text text-anchor="middle" x="435" y="-7.5" font-family="Helvetica,sans-Serif" font-size="10.00" fill="#000000">LoopManager::Activate</text>
</a>
</g>
</g>
<!-- Node92&#45;&gt;Node98 -->
<g id="edge8" class="edge">
<title>Node92&#45;&gt;Node98</title>
<path fill="none" stroke="#191970" d="M144.1856,-40.0297C211.4254,-33.0865 307.7769,-23.1372 370.8574,-16.6234"/>
<polygon fill="#191970" stroke="#191970" points="143.6565,-36.5657 134.069,-41.0744 144.3756,-43.5287 143.6565,-36.5657"/>
</g>
<!-- Node94 -->
<g id="node3" class="node">
<title>Node94</title>
<g id="a_node3"><a xlink:href="classLoopManager.html#ab79aef15f1e783de1ab6827378bea274" target="_top" xlink:title="LoopManager::SelectPulse">
<polygon fill="#ffffff" stroke="#000000" points="363,-76.5 363,-95.5 507,-95.5 507,-76.5 363,-76.5"/>
<text text-anchor="middle" x="435" y="-83.5" font-family="Helvetica,sans-Serif" font-size="10.00" fill="#000000">LoopManager::SelectPulse</text>
</a>
</g>
</g>
<!-- Node93&#45;&gt;Node94 -->
<g id="edge2" class="edge">
<title>Node93&#45;&gt;Node94</title>
<path fill="none" stroke="#191970" d="M336.217,-75.9632C345.1097,-76.8668 354.0663,-77.7768 362.7636,-78.6605"/>
<polygon fill="#191970" stroke="#191970" points="336.5239,-72.4765 326.2213,-74.9476 335.8163,-79.4406 336.5239,-72.4765"/>
</g>
<!-- Node95 -->
<g id="node4" class="node">
<title>Node95</title>
<g id="a_node4"><a xlink:href="classLoopManager.html#a67c6f44d33880b35c875a8e6ea8babac" target="_top" xlink:title="LoopManager::TapPulse">
<polygon fill="#ffffff" stroke="#000000" points="547.5,-114.5 547.5,-133.5 678.5,-133.5 678.5,-114.5 547.5,-114.5"/>
<text text-anchor="middle" x="613" y="-121.5" font-family="Helvetica,sans-Serif" font-size="10.00" fill="#000000">LoopManager::TapPulse</text>
</a>
</g>
</g>
<!-- Node93&#45;&gt;Node95 -->
<g id="edge7" class="edge">
<title>Node93&#45;&gt;Node95</title>
<path fill="none" stroke="#191970" d="M280.5242,-80.225C303.0187,-88.7763 333.8514,-99.3335 362,-105 424.1203,-117.5053 496.3948,-121.9399 547.3915,-123.4345"/>
<polygon fill="#191970" stroke="#191970" points="281.7105,-76.9311 271.1214,-76.5828 279.1821,-83.4585 281.7105,-76.9311"/>
</g>
<!-- Node97 -->
<g id="node6" class="node">
<title>Node97</title>
<g id="a_node6"><a xlink:href="classLoopManager.html#a705436ae811a121ed3285ab34b144bfe" target="_top" xlink:title="LoopManager::CreatePulse">
<polygon fill="#ffffff" stroke="#000000" points="362,-38.5 362,-57.5 508,-57.5 508,-38.5 362,-38.5"/>
<text text-anchor="middle" x="435" y="-45.5" font-family="Helvetica,sans-Serif" font-size="10.00" fill="#000000">LoopManager::CreatePulse</text>
</a>
</g>
</g>
<!-- Node93&#45;&gt;Node97 -->
<g id="edge6" class="edge">
<title>Node93&#45;&gt;Node97</title>
<path fill="none" stroke="#191970" d="M336.2478,-58.0336C344.8269,-57.162 353.4651,-56.2843 361.8724,-55.4301"/>
<polygon fill="#191970" stroke="#191970" points="335.8163,-54.5594 326.2213,-59.0524 336.5239,-61.5235 335.8163,-54.5594"/>
</g>
<!-- Node94&#45;&gt;Node95 -->
<g id="edge3" class="edge">
<title>Node94&#45;&gt;Node95</title>
<path fill="none" stroke="#191970" d="M489.7162,-97.681C514.959,-103.0699 544.5452,-109.3861 568.4061,-114.4799"/>
<polygon fill="#191970" stroke="#191970" points="490.4273,-94.254 479.9169,-95.589 488.9658,-101.0997 490.4273,-94.254"/>
</g>
<!-- Node96 -->
<g id="node5" class="node">
<title>Node96</title>
<g id="a_node5"><a xlink:href="classLoopManager.html#a4aada2d07b7ce0a67a8119ece4805966" target="_top" xlink:title="LoopManager::ReceiveEvent">
<polygon fill="#ffffff" stroke="#000000" points="718,-57.5 718,-76.5 872,-76.5 872,-57.5 718,-57.5"/>
<text text-anchor="middle" x="795" y="-64.5" font-family="Helvetica,sans-Serif" font-size="10.00" fill="#000000">LoopManager::ReceiveEvent</text>
</a>
</g>
</g>
<!-- Node94&#45;&gt;Node96 -->
<g id="edge5" class="edge">
<title>Node94&#45;&gt;Node96</title>
<path fill="none" stroke="#191970" d="M517.6482,-81.638C577.8416,-78.4611 658.8094,-74.1878 717.7166,-71.0788"/>
<polygon fill="#191970" stroke="#191970" points="517.2199,-78.1556 507.4183,-82.1779 517.5889,-85.1459 517.2199,-78.1556"/>
</g>
<!-- Node95&#45;&gt;Node96 -->
<g id="edge4" class="edge">
<title>Node95&#45;&gt;Node96</title>
<path fill="none" stroke="#191970" d="M653.4097,-111.3442C686.959,-100.837 733.9554,-86.1184 764.4379,-76.5716"/>
<polygon fill="#191970" stroke="#191970" points="651.9596,-108.1307 643.4627,-114.4595 654.0517,-114.8107 651.9596,-108.1307"/>
</g>
<!-- Node98&#45;&gt;Node96 -->
<g id="edge11" class="edge">
<title>Node98&#45;&gt;Node96</title>
<path fill="none" stroke="#191970" d="M498.3609,-21.2908C513.3162,-23.8875 529.2118,-26.592 544,-29 606.8576,-39.2352 678.7253,-50.0229 729.4046,-57.4784"/>
<polygon fill="#191970" stroke="#191970" points="498.6353,-17.7859 488.1826,-19.5152 497.4323,-24.6817 498.6353,-17.7859"/>
</g>
<!-- Node99 -->
<g id="node8" class="node">
<title>Node99</title>
<g id="a_node8"><a xlink:href="classFweelin.html#a4654015e2bc7cc94f3bfc421899a60d3" target="_top" xlink:title="Fweelin::TriggerSnapshot">
<polygon fill="#ffffff" stroke="#000000" points="544,-.5 544,-19.5 682,-19.5 682,-.5 544,-.5"/>
<text text-anchor="middle" x="613" y="-7.5" font-family="Helvetica,sans-Serif" font-size="10.00" fill="#000000">Fweelin::TriggerSnapshot</text>
</a>
</g>
</g>
<!-- Node98&#45;&gt;Node99 -->
<g id="edge9" class="edge">
<title>Node98&#45;&gt;Node99</title>
<path fill="none" stroke="#191970" d="M509.0304,-10C520.5563,-10 532.427,-10 543.8392,-10"/>
<polygon fill="#191970" stroke="#191970" points="509.0106,-6.5001 499.0106,-10 509.0106,-13.5001 509.0106,-6.5001"/>
</g>
<!-- Node99&#45;&gt;Node96 -->
<g id="edge10" class="edge">
<title>Node99&#45;&gt;Node96</title>
<path fill="none" stroke="#191970" d="M653.4097,-22.6558C686.959,-33.163 733.9554,-47.8816 764.4379,-57.4284"/>
<polygon fill="#191970" stroke="#191970" points="654.0517,-19.1893 643.4627,-19.5405 651.9596,-25.8693 654.0517,-19.1893"/>
</g>
</g>
</svg>
