<?xml version="1.0" encoding="UTF-8" standalone="no"?>
<!DOCTYPE svg PUBLIC "-//W3C//DTD SVG 1.1//EN"
 "http://www.w3.org/Graphics/SVG/1.1/DTD/svg11.dtd">
<!-- Generated by graphviz version 2.40.1 (20161225.0304)
 -->
<!-- Title: LoopManager::AddSceneToBrowser Pages: 1 -->
<svg width="552pt" height="180pt"
 viewBox="0.00 0.00 552.00 180.00" xmlns="http://www.w3.org/2000/svg" xmlns:xlink="http://www.w3.org/1999/xlink">
<g id="graph0" class="graph" transform="scale(1 1) rotate(0) translate(4 176)">
<title>LoopManager::AddSceneToBrowser</title>
<polygon fill="#ffffff" stroke="transparent" points="-4,4 -4,-176 548,-176 548,4 -4,4"/>
<!-- Node91 -->
<g id="node1" class="node">
<title>Node91</title>
<polygon fill="#bfbfbf" stroke="#000000" points="0,-38.5 0,-57.5 186,-57.5 186,-38.5 0,-38.5"/>
<text text-anchor="middle" x="93" y="-45.5" font-family="Helvetica,sans-Serif" font-size="10.00" fill="#000000">LoopManager::AddSceneToBrowser</text>
</g>
<!-- Node92 -->
<g id="node2" class="node">
<title>Node92</title>
<g id="a_node2"><a xlink:href="classBrowser.html#a614d2a2fddedf26b70ffba07b73a0678" target="_top" xlink:title="Browser::GetDisplayName">
<polygon fill="#ffffff" stroke="#000000" points="222,-76.5 222,-95.5 368,-95.5 368,-76.5 222,-76.5"/>
<text text-anchor="middle" x="295" y="-83.5" font-family="Helvetica,sans-Serif" font-size="10.00" fill="#000000">Browser::GetDisplayName</text>
</a>
</g>
</g>
<!-- Node91&#45;&gt;Node92 -->
<g id="edge1" class="edge">
<title>Node91&#45;&gt;Node92</title>
<path fill="none" stroke="#191970" d="M143.7124,-57.54C171.2069,-62.7122 205.3765,-69.1401 234.2817,-74.5778"/>
<polygon fill="#191970" stroke="#191970" points="233.792,-78.0469 244.2667,-76.4561 235.0862,-71.1676 233.792,-78.0469"/>
</g>
<!-- Node97 -->
<g id="node7" class="node">
<title>Node97</title>
<g id="a_node7"><a xlink:href="classBrowser.html#ade418b60a9e0e49826acb66811ac8af0" target="_top" xlink:title="Browser::AddItem">
<polygon fill="#ffffff" stroke="#000000" points="243,-19.5 243,-38.5 347,-38.5 347,-19.5 243,-19.5"/>
<text text-anchor="middle" x="295" y="-26.5" font-family="Helvetica,sans-Serif" font-size="10.00" fill="#000000">Browser::AddItem</text>
</a>
</g>
</g>
<!-- Node91&#45;&gt;Node97 -->
<g id="edge6" class="edge">
<title>Node91&#45;&gt;Node97</title>
<path fill="none" stroke="#191970" d="M186.0181,-39.2508C201.9188,-37.7552 218.085,-36.2346 232.9271,-34.8385"/>
<polygon fill="#191970" stroke="#191970" points="233.343,-38.315 242.9713,-33.8938 232.6874,-31.3457 233.343,-38.315"/>
</g>
<!-- Node93 -->
<g id="node3" class="node">
<title>Node93</title>
<g id="a_node3"><a xlink:href="classFweelin.html#a681d7ca8d0789199af135f22c26a5409" target="_top" xlink:title="Fweelin::getCFG">
<polygon fill="#ffffff" stroke="#000000" points="426.5,-152.5 426.5,-171.5 521.5,-171.5 521.5,-152.5 426.5,-152.5"/>
<text text-anchor="middle" x="474" y="-159.5" font-family="Helvetica,sans-Serif" font-size="10.00" fill="#000000">Fweelin::getCFG</text>
</a>
</g>
</g>
<!-- Node92&#45;&gt;Node93 -->
<g id="edge2" class="edge">
<title>Node92&#45;&gt;Node93</title>
<path fill="none" stroke="#191970" d="M310.737,-95.6257C331.4813,-107.9833 369.4034,-129.4444 404,-143 410.0015,-145.3515 416.4017,-147.5223 422.8011,-149.4906"/>
<polygon fill="#191970" stroke="#191970" points="422.2189,-152.9668 432.7993,-152.4138 424.1833,-146.2481 422.2189,-152.9668"/>
</g>
<!-- Node94 -->
<g id="node4" class="node">
<title>Node94</title>
<g id="a_node4"><a xlink:href="classFloConfig.html#a9acc5e0790ab29fe30856d58c5ffa0e8" target="_top" xlink:title="FloConfig::GetLibraryPath">
<polygon fill="#ffffff" stroke="#000000" points="404,-114.5 404,-133.5 544,-133.5 544,-114.5 404,-114.5"/>
<text text-anchor="middle" x="474" y="-121.5" font-family="Helvetica,sans-Serif" font-size="10.00" fill="#000000">FloConfig::GetLibraryPath</text>
</a>
</g>
</g>
<!-- Node92&#45;&gt;Node94 -->
<g id="edge3" class="edge">
<title>Node92&#45;&gt;Node94</title>
<path fill="none" stroke="#191970" d="M340.1693,-95.589C364.2159,-100.6939 393.9744,-107.0113 419.3194,-112.3918"/>
<polygon fill="#191970" stroke="#191970" points="418.6467,-115.8269 429.1556,-114.4799 420.1004,-108.9795 418.6467,-115.8269"/>
</g>
<!-- Node95 -->
<g id="node5" class="node">
<title>Node95</title>
<g id="a_node5"><a xlink:href="classSaveable.html#a4e8b7b5e6fe537a5c68c35927741a6e3" target="_top" xlink:title="Saveable::SplitFilename">
<polygon fill="#ffffff" stroke="#000000" points="407,-76.5 407,-95.5 541,-95.5 541,-76.5 407,-76.5"/>
<text text-anchor="middle" x="474" y="-83.5" font-family="Helvetica,sans-Serif" font-size="10.00" fill="#000000">Saveable::SplitFilename</text>
</a>
</g>
</g>
<!-- Node92&#45;&gt;Node95 -->
<g id="edge4" class="edge">
<title>Node92&#45;&gt;Node95</title>
<path fill="none" stroke="#191970" d="M368.0643,-86C377.5063,-86 387.2011,-86 396.7085,-86"/>
<polygon fill="#191970" stroke="#191970" points="396.9308,-89.5001 406.9308,-86 396.9308,-82.5001 396.9308,-89.5001"/>
</g>
<!-- Node96 -->
<g id="node6" class="node">
<title>Node96</title>
<g id="a_node6"><a xlink:href="classSaveable.html#afd744adf4ac3fbee68114daa3c513326" target="_top" xlink:title="Saveable::GetHashFirst">
<polygon fill="#ffffff" stroke="#000000" points="409,-38.5 409,-57.5 539,-57.5 539,-38.5 409,-38.5"/>
<text text-anchor="middle" x="474" y="-45.5" font-family="Helvetica,sans-Serif" font-size="10.00" fill="#000000">Saveable::GetHashFirst</text>
</a>
</g>
</g>
<!-- Node92&#45;&gt;Node96 -->
<g id="edge5" class="edge">
<title>Node92&#45;&gt;Node96</title>
<path fill="none" stroke="#191970" d="M340.1693,-76.411C364.2159,-71.3061 393.9744,-64.9887 419.3194,-59.6082"/>
<polygon fill="#191970" stroke="#191970" points="420.1004,-63.0205 429.1556,-57.5201 418.6467,-56.1731 420.1004,-63.0205"/>
</g>
<!-- Node98 -->
<g id="node8" class="node">
<title>Node98</title>
<g id="a_node8"><a xlink:href="classBrowserItem.html#ae46a902950af8f0613490012a75c8194" target="_top" xlink:title="BrowserItem::Compare">
<polygon fill="#ffffff" stroke="#000000" points="409.5,-.5 409.5,-19.5 538.5,-19.5 538.5,-.5 409.5,-.5"/>
<text text-anchor="middle" x="474" y="-7.5" font-family="Helvetica,sans-Serif" font-size="10.00" fill="#000000">BrowserItem::Compare</text>
</a>
</g>
</g>
<!-- Node97&#45;&gt;Node98 -->
<g id="edge7" class="edge">
<title>Node97&#45;&gt;Node98</title>
<path fill="none" stroke="#191970" d="M347.2554,-23.4533C363.4727,-21.732 381.6756,-19.7998 399.1174,-17.9484"/>
<polygon fill="#191970" stroke="#191970" points="399.7034,-21.406 409.2781,-16.8699 398.9645,-14.4451 399.7034,-21.406"/>
</g>
</g>
</svg>
