<?xml version="1.0" encoding="UTF-8" standalone="no"?>
<!DOCTYPE svg PUBLIC "-//W3C//DTD SVG 1.1//EN"
 "http://www.w3.org/Graphics/SVG/1.1/DTD/svg11.dtd">
<!-- Generated by graphviz version 2.40.1 (20161225.0304)
 -->
<!-- Title: LoopManager::~LoopManager Pages: 1 -->
<svg width="996pt" height="620pt"
 viewBox="0.00 0.00 996.00 619.50" xmlns="http://www.w3.org/2000/svg" xmlns:xlink="http://www.w3.org/1999/xlink">
<g id="graph0" class="graph" transform="scale(1 1) rotate(0) translate(4 615.5)">
<title>LoopManager::~LoopManager</title>
<polygon fill="#ffffff" stroke="transparent" points="-4,4 -4,-615.5 992,-615.5 992,4 -4,4"/>
<!-- Node13 -->
<g id="node1" class="node">
<title>Node13</title>
<polygon fill="#bfbfbf" stroke="#000000" points="0,-162 0,-181 161,-181 161,-162 0,-162"/>
<text text-anchor="middle" x="80.5" y="-169" font-family="Helvetica,sans-Serif" font-size="10.00" fill="#000000">LoopManager::~LoopManager</text>
</g>
<!-- Node14 -->
<g id="node2" class="node">
<title>Node14</title>
<g id="a_node2"><a xlink:href="classBlockReadManager.html#a0956beb932559fdea3ecca152db2bd0a" target="_top" xlink:title="BlockReadManager::End">
<polygon fill="#ffffff" stroke="#000000" points="221,-440 221,-459 355,-459 355,-440 221,-440"/>
<text text-anchor="middle" x="288" y="-447" font-family="Helvetica,sans-Serif" font-size="10.00" fill="#000000">BlockReadManager::End</text>
</a>
</g>
</g>
<!-- Node13&#45;&gt;Node14 -->
<g id="edge1" class="edge">
<title>Node13&#45;&gt;Node14</title>
<path fill="none" stroke="#191970" d="M87.6426,-181.0694C117.8226,-221.5033 235.1554,-378.7009 274.8159,-431.8365"/>
<polygon fill="#191970" stroke="#191970" points="272.101,-434.0506 280.8874,-439.9709 277.7107,-429.8635 272.101,-434.0506"/>
</g>
<!-- Node22 -->
<g id="node10" class="node">
<title>Node22</title>
<g id="a_node10"><a xlink:href="classBlockManager.html#ae59dae7f7f6572b004dcdacc740204ac" target="_top" xlink:title="BlockManager::DelManager">
<polygon fill="#ffffff" stroke="#000000" points="637.5,-301 637.5,-320 787.5,-320 787.5,-301 637.5,-301"/>
<text text-anchor="middle" x="712.5" y="-308" font-family="Helvetica,sans-Serif" font-size="10.00" fill="#000000">BlockManager::DelManager</text>
</a>
</g>
</g>
<!-- Node13&#45;&gt;Node22 -->
<g id="edge26" class="edge">
<title>Node13&#45;&gt;Node22</title>
<path fill="none" stroke="#191970" d="M90.0278,-181.1327C108.6626,-199.2908 152.0543,-238.2997 197,-255.5 236.1584,-270.4855 491.4273,-292.7952 627.4559,-303.8273"/>
<polygon fill="#191970" stroke="#191970" points="627.1895,-307.3171 637.439,-304.6341 627.7534,-300.3399 627.1895,-307.3171"/>
</g>
<!-- Node31 -->
<g id="node19" class="node">
<title>Node31</title>
<g id="a_node19"><a xlink:href="classBlockWriteManager.html#a71f78a8f8c3f49e7e311e8553b5fa029" target="_top" xlink:title="BlockWriteManager::End">
<polygon fill="#ffffff" stroke="#000000" points="220.5,-48 220.5,-67 355.5,-67 355.5,-48 220.5,-48"/>
<text text-anchor="middle" x="288" y="-55" font-family="Helvetica,sans-Serif" font-size="10.00" fill="#000000">BlockWriteManager::End</text>
</a>
</g>
</g>
<!-- Node13&#45;&gt;Node31 -->
<g id="edge23" class="edge">
<title>Node13&#45;&gt;Node31</title>
<path fill="none" stroke="#191970" d="M89.0901,-161.9189C107.0672,-142.5077 150.829,-98.517 197,-76.5 202.2262,-74.0079 207.7747,-71.8411 213.4526,-69.9574"/>
<polygon fill="#191970" stroke="#191970" points="214.5337,-73.2871 223.096,-67.0471 212.5113,-66.5856 214.5337,-73.2871"/>
</g>
<!-- Node33 -->
<g id="node21" class="node">
<title>Node33</title>
<g id="a_node21"><a xlink:href="classFweelin.html#a600688955c7470a1b7a2fa95ddcc4118" target="_top" xlink:title="Fweelin::getBMG">
<polygon fill="#ffffff" stroke="#000000" points="239,-200 239,-219 337,-219 337,-200 239,-200"/>
<text text-anchor="middle" x="288" y="-207" font-family="Helvetica,sans-Serif" font-size="10.00" fill="#000000">Fweelin::getBMG</text>
</a>
</g>
</g>
<!-- Node13&#45;&gt;Node33 -->
<g id="edge25" class="edge">
<title>Node13&#45;&gt;Node33</title>
<path fill="none" stroke="#191970" d="M132.5932,-181.04C161.8225,-186.3928 198.3958,-193.0906 228.7186,-198.6436"/>
<polygon fill="#191970" stroke="#191970" points="228.2758,-202.1207 238.7427,-200.4794 229.5368,-195.2352 228.2758,-202.1207"/>
</g>
<!-- Node34 -->
<g id="node22" class="node">
<title>Node34</title>
<g id="a_node22"><a xlink:href="classLoop.html#a835d55bc9c05882d6804fe44deaae232" target="_top" xlink:title="Loop::TakedownLoopPreallocation">
<polygon fill="#ffffff" stroke="#000000" points="197,-162 197,-181 379,-181 379,-162 197,-162"/>
<text text-anchor="middle" x="288" y="-169" font-family="Helvetica,sans-Serif" font-size="10.00" fill="#000000">Loop::TakedownLoopPreallocation</text>
</a>
</g>
</g>
<!-- Node13&#45;&gt;Node34 -->
<g id="edge27" class="edge">
<title>Node13&#45;&gt;Node34</title>
<path fill="none" stroke="#191970" d="M161.0219,-171.5C169.4555,-171.5 178.105,-171.5 186.7315,-171.5"/>
<polygon fill="#191970" stroke="#191970" points="186.8336,-175.0001 196.8336,-171.5 186.8335,-168.0001 186.8336,-175.0001"/>
</g>
<!-- Node35 -->
<g id="node23" class="node">
<title>Node35</title>
<g id="a_node23"><a xlink:href="classFweelin.html#a21e51d7b639faaecc415624ab6c16a71" target="_top" xlink:title="Fweelin::getEMG">
<polygon fill="#ffffff" stroke="#000000" points="239,-124 239,-143 337,-143 337,-124 239,-124"/>
<text text-anchor="middle" x="288" y="-131" font-family="Helvetica,sans-Serif" font-size="10.00" fill="#000000">Fweelin::getEMG</text>
</a>
</g>
</g>
<!-- Node13&#45;&gt;Node35 -->
<g id="edge28" class="edge">
<title>Node13&#45;&gt;Node35</title>
<path fill="none" stroke="#191970" d="M132.5932,-161.96C161.8225,-156.6072 198.3958,-149.9094 228.7186,-144.3564"/>
<polygon fill="#191970" stroke="#191970" points="229.5368,-147.7648 238.7427,-142.5206 228.2758,-140.8793 229.5368,-147.7648"/>
</g>
<!-- Node36 -->
<g id="node24" class="node">
<title>Node36</title>
<g id="a_node24"><a xlink:href="classEventManager.html#abfc3ddd37f9bd472a41ab43632e44736" target="_top" xlink:title="EventManager::UnlistenEvent">
<polygon fill="#ffffff" stroke="#000000" points="207.5,-86 207.5,-105 368.5,-105 368.5,-86 207.5,-86"/>
<text text-anchor="middle" x="288" y="-93" font-family="Helvetica,sans-Serif" font-size="10.00" fill="#000000">EventManager::UnlistenEvent</text>
</a>
</g>
</g>
<!-- Node13&#45;&gt;Node36 -->
<g id="edge29" class="edge">
<title>Node13&#45;&gt;Node36</title>
<path fill="none" stroke="#191970" d="M96.9144,-161.8316C118.9729,-149.2265 159.7273,-127.2848 197,-114.5 204.7059,-111.8568 212.9108,-109.5173 221.1184,-107.4645"/>
<polygon fill="#191970" stroke="#191970" points="222.1734,-110.8116 231.0978,-105.1015 220.5604,-103.9999 222.1734,-110.8116"/>
</g>
<!-- Node37 -->
<g id="node25" class="node">
<title>Node37</title>
<g id="a_node25"><a xlink:href="classEventManager.html#ae53beeffe291f5bf2896cb42685b07b0" target="_top" xlink:title="EventManager::DeleteQueue">
<polygon fill="#ffffff" stroke="#000000" points="634.5,-238 634.5,-257 790.5,-257 790.5,-238 634.5,-238"/>
<text text-anchor="middle" x="712.5" y="-245" font-family="Helvetica,sans-Serif" font-size="10.00" fill="#000000">EventManager::DeleteQueue</text>
</a>
</g>
</g>
<!-- Node13&#45;&gt;Node37 -->
<g id="edge30" class="edge">
<title>Node13&#45;&gt;Node37</title>
<path fill="none" stroke="#191970" d="M95.1688,-181.2049C116.5259,-194.7293 157.9077,-218.6872 197,-228.5 343.2701,-265.216 520.1582,-261.8506 624.0962,-255.2472"/>
<polygon fill="#191970" stroke="#191970" points="624.4853,-258.7293 634.233,-254.5782 624.0242,-251.7445 624.4853,-258.7293"/>
</g>
<!-- Node38 -->
<g id="node26" class="node">
<title>Node38</title>
<g id="a_node26"><a xlink:href="classBlockManager.html#aed9f3464448ad90022bc613002b912f2" target="_top" xlink:title="BlockManager::RefDeleted">
<polygon fill="#ffffff" stroke="#000000" points="215,-9 215,-28 361,-28 361,-9 215,-9"/>
<text text-anchor="middle" x="288" y="-16" font-family="Helvetica,sans-Serif" font-size="10.00" fill="#000000">BlockManager::RefDeleted</text>
</a>
</g>
</g>
<!-- Node13&#45;&gt;Node38 -->
<g id="edge32" class="edge">
<title>Node13&#45;&gt;Node38</title>
<path fill="none" stroke="#191970" d="M85.8669,-161.9438C100.3005,-137.1902 142.5663,-70.6785 197,-38.5 201.4972,-35.8415 206.3081,-33.5354 211.2818,-31.5352"/>
<polygon fill="#191970" stroke="#191970" points="212.7727,-34.7191 221.008,-28.0534 210.4134,-28.1286 212.7727,-34.7191"/>
</g>
<!-- Node15 -->
<g id="node3" class="node">
<title>Node15</title>
<g id="a_node3"><a xlink:href="classiFileDecoder.html#a3a9e784a7831ca8990d66f045bb1f2e7" target="_top" xlink:title="iFileDecoder::Stop">
<polygon fill="#ffffff" stroke="#000000" points="451,-592 451,-611 555,-611 555,-592 451,-592"/>
<text text-anchor="middle" x="503" y="-599" font-family="Helvetica,sans-Serif" font-size="10.00" fill="#000000">iFileDecoder::Stop</text>
</a>
</g>
</g>
<!-- Node14&#45;&gt;Node15 -->
<g id="edge2" class="edge">
<title>Node14&#45;&gt;Node15</title>
<path fill="none" stroke="#191970" d="M294.0748,-459.0608C310.3501,-483.8254 357.6187,-550.3612 415,-582.5 423.0115,-586.9872 431.9805,-590.4155 441.0456,-593.0346"/>
<polygon fill="#191970" stroke="#191970" points="440.3219,-596.4624 450.8792,-595.5708 442.0702,-589.6842 440.3219,-596.4624"/>
</g>
<!-- Node16 -->
<g id="node4" class="node">
<title>Node16</title>
<g id="a_node4"><a xlink:href="classAudioBlockIterator.html#a33e1c3a6381e3c0ba5dd129885509eb3" target="_top" xlink:title="AudioBlockIterator\l::EndChain">
<polygon fill="#ffffff" stroke="#000000" points="449.5,-390.5 449.5,-420.5 556.5,-420.5 556.5,-390.5 449.5,-390.5"/>
<text text-anchor="start" x="457.5" y="-408.5" font-family="Helvetica,sans-Serif" font-size="10.00" fill="#000000">AudioBlockIterator</text>
<text text-anchor="middle" x="503" y="-397.5" font-family="Helvetica,sans-Serif" font-size="10.00" fill="#000000">::EndChain</text>
</a>
</g>
</g>
<!-- Node14&#45;&gt;Node16 -->
<g id="edge3" class="edge">
<title>Node14&#45;&gt;Node16</title>
<path fill="none" stroke="#191970" d="M334.6518,-439.9527C365.2071,-433.6995 405.5416,-425.445 439.0698,-418.5834"/>
<polygon fill="#191970" stroke="#191970" points="440.1431,-421.9364 449.2383,-416.5024 438.7396,-415.0785 440.1431,-421.9364"/>
</g>
<!-- Node19 -->
<g id="node7" class="node">
<title>Node19</title>
<g id="a_node7"><a xlink:href="classPeaksAvgsManager.html#ad10e0ee30593b6e27e9928390d04ce58" target="_top" xlink:title="PeaksAvgsManager::Manage">
<polygon fill="#ffffff" stroke="#000000" points="425.5,-554 425.5,-573 580.5,-573 580.5,-554 425.5,-554"/>
<text text-anchor="middle" x="503" y="-561" font-family="Helvetica,sans-Serif" font-size="10.00" fill="#000000">PeaksAvgsManager::Manage</text>
</a>
</g>
</g>
<!-- Node14&#45;&gt;Node19 -->
<g id="edge6" class="edge">
<title>Node14&#45;&gt;Node19</title>
<path fill="none" stroke="#191970" d="M297.5653,-459.0225C317.5334,-478.3258 365.8875,-522.1278 415,-544.5 420.6005,-547.0512 426.5601,-549.2671 432.6357,-551.1905"/>
<polygon fill="#191970" stroke="#191970" points="431.6645,-554.553 442.2437,-553.9783 433.6152,-547.8303 431.6645,-554.553"/>
</g>
<!-- Node20 -->
<g id="node8" class="node">
<title>Node20</title>
<g id="a_node8"><a xlink:href="classPeaksAvgsManager.html#a7d5c60dc637af4095167410c4ae924f4" target="_top" xlink:title="PeaksAvgsManager::End">
<polygon fill="#ffffff" stroke="#000000" points="435.5,-516 435.5,-535 570.5,-535 570.5,-516 435.5,-516"/>
<text text-anchor="middle" x="503" y="-523" font-family="Helvetica,sans-Serif" font-size="10.00" fill="#000000">PeaksAvgsManager::End</text>
</a>
</g>
</g>
<!-- Node14&#45;&gt;Node20 -->
<g id="edge7" class="edge">
<title>Node14&#45;&gt;Node20</title>
<path fill="none" stroke="#191970" d="M306.0289,-459.0456C330.2249,-471.5146 374.8175,-493.3061 415,-506.5 423.005,-509.1284 431.5407,-511.4924 440.0286,-513.5867"/>
<polygon fill="#191970" stroke="#191970" points="439.3999,-517.0343 449.9361,-515.9211 441.0053,-510.2209 439.3999,-517.0343"/>
</g>
<!-- Node21 -->
<g id="node9" class="node">
<title>Node21</title>
<g id="a_node9"><a xlink:href="classBlockManager.html#a7380825963fc62c90186a0b3c72e8d89" target="_top" xlink:title="BlockManager::PeakAvgOff">
<polygon fill="#ffffff" stroke="#000000" points="429,-352 429,-371 577,-371 577,-352 429,-352"/>
<text text-anchor="middle" x="503" y="-359" font-family="Helvetica,sans-Serif" font-size="10.00" fill="#000000">BlockManager::PeakAvgOff</text>
</a>
</g>
</g>
<!-- Node14&#45;&gt;Node21 -->
<g id="edge8" class="edge">
<title>Node14&#45;&gt;Node21</title>
<path fill="none" stroke="#191970" d="M302.6322,-439.9727C325.651,-425.3831 372.1255,-397.5175 415,-381.5 423.1042,-378.4723 431.8066,-375.8203 440.472,-373.5227"/>
<polygon fill="#191970" stroke="#191970" points="441.3597,-376.9085 450.206,-371.0781 439.6546,-370.1193 441.3597,-376.9085"/>
</g>
<!-- Node23 -->
<g id="node11" class="node">
<title>Node23</title>
<g id="a_node11"><a xlink:href="classAudioBlock.html#adeb97443eade7fd99e54dc15a05dfaef" target="_top" xlink:title="AudioBlock::DeleteChain">
<polygon fill="#ffffff" stroke="#000000" points="644,-402 644,-421 781,-421 781,-402 644,-402"/>
<text text-anchor="middle" x="712.5" y="-409" font-family="Helvetica,sans-Serif" font-size="10.00" fill="#000000">AudioBlock::DeleteChain</text>
</a>
</g>
</g>
<!-- Node14&#45;&gt;Node23 -->
<g id="edge10" class="edge">
<title>Node14&#45;&gt;Node23</title>
<path fill="none" stroke="#191970" d="M355.2467,-447.0681C416.7493,-444.4204 510.1801,-439.3341 591,-430.5 609.7133,-428.4545 629.9492,-425.5642 648.4389,-422.6536"/>
<polygon fill="#191970" stroke="#191970" points="649.1903,-426.0779 658.5106,-421.0397 648.0827,-419.1661 649.1903,-426.0779"/>
</g>
<!-- Node25 -->
<g id="node13" class="node">
<title>Node25</title>
<g id="a_node13"><a xlink:href="classAudioBlock.html#a09c778d19d7d45dbb68951fabff2f518" target="_top" xlink:title="AudioBlock::Smooth">
<polygon fill="#ffffff" stroke="#000000" points="445.5,-478 445.5,-497 560.5,-497 560.5,-478 445.5,-478"/>
<text text-anchor="middle" x="503" y="-485" font-family="Helvetica,sans-Serif" font-size="10.00" fill="#000000">AudioBlock::Smooth</text>
</a>
</g>
</g>
<!-- Node14&#45;&gt;Node25 -->
<g id="edge13" class="edge">
<title>Node14&#45;&gt;Node25</title>
<path fill="none" stroke="#191970" d="M341.9761,-459.04C371.3678,-464.2348 407.9264,-470.6963 438.7768,-476.1489"/>
<polygon fill="#191970" stroke="#191970" points="438.5452,-479.6622 449.0017,-477.9561 439.7635,-472.769 438.5452,-479.6622"/>
</g>
<!-- Node30 -->
<g id="node18" class="node">
<title>Node30</title>
<g id="a_node18"><a xlink:href="classAutoReadControl.html#a4a665022d2569bfb0eab015b0d1e1b75" target="_top" xlink:title="AutoReadControl::ReadComplete">
<polygon fill="#ffffff" stroke="#000000" points="415,-314 415,-333 591,-333 591,-314 415,-314"/>
<text text-anchor="middle" x="503" y="-321" font-family="Helvetica,sans-Serif" font-size="10.00" fill="#000000">AutoReadControl::ReadComplete</text>
</a>
</g>
</g>
<!-- Node14&#45;&gt;Node30 -->
<g id="edge22" class="edge">
<title>Node14&#45;&gt;Node30</title>
<path fill="none" stroke="#191970" d="M296.425,-439.709C315.3244,-418.416 363.4986,-367.7851 415,-342.5 419.9105,-340.0891 425.1232,-337.9823 430.4637,-336.1415"/>
<polygon fill="#191970" stroke="#191970" points="431.6755,-339.4298 440.1769,-333.1071 429.5881,-332.7483 431.6755,-339.4298"/>
</g>
<!-- Node17 -->
<g id="node5" class="node">
<title>Node17</title>
<g id="a_node5"><a xlink:href="classAudioBlock.html#a1577ddd5048ce06dbddfae7702b35c81" target="_top" xlink:title="AudioBlock::ChopChain">
<polygon fill="#ffffff" stroke="#000000" points="647.5,-364 647.5,-383 777.5,-383 777.5,-364 647.5,-364"/>
<text text-anchor="middle" x="712.5" y="-371" font-family="Helvetica,sans-Serif" font-size="10.00" fill="#000000">AudioBlock::ChopChain</text>
</a>
</g>
</g>
<!-- Node16&#45;&gt;Node17 -->
<g id="edge4" class="edge">
<title>Node16&#45;&gt;Node17</title>
<path fill="none" stroke="#191970" d="M556.6794,-397.3008C582.0533,-393.425 612.7206,-388.7408 640.1134,-384.5567"/>
<polygon fill="#191970" stroke="#191970" points="640.6847,-388.0101 650.0415,-383.0402 639.6276,-381.0903 640.6847,-388.0101"/>
</g>
<!-- Node18 -->
<g id="node6" class="node">
<title>Node18</title>
<g id="a_node6"><a xlink:href="classPreallocated.html#aaf2139a79ca16de70acd9bc4564171b7" target="_top" xlink:title="Preallocated::RTDelete">
<polygon fill="#ffffff" stroke="#000000" points="847,-378 847,-397 975,-397 975,-378 847,-378"/>
<text text-anchor="middle" x="911" y="-385" font-family="Helvetica,sans-Serif" font-size="10.00" fill="#000000">Preallocated::RTDelete</text>
</a>
</g>
</g>
<!-- Node17&#45;&gt;Node18 -->
<g id="edge5" class="edge">
<title>Node17&#45;&gt;Node18</title>
<path fill="none" stroke="#191970" d="M777.7713,-378.1035C796.6314,-379.4337 817.3532,-380.8952 836.7186,-382.261"/>
<polygon fill="#191970" stroke="#191970" points="836.4833,-385.753 846.7048,-382.9653 836.9759,-378.7704 836.4833,-385.753"/>
</g>
<!-- Node21&#45;&gt;Node22 -->
<g id="edge9" class="edge">
<title>Node21&#45;&gt;Node22</title>
<path fill="none" stroke="#191970" d="M549.2166,-351.9291C562.7142,-349.0238 577.4721,-345.7401 591,-342.5 616.6853,-336.348 645.2538,-328.8569 668.2323,-322.6697"/>
<polygon fill="#191970" stroke="#191970" points="669.2996,-326.0068 678.0388,-320.0171 667.4718,-319.2496 669.2996,-326.0068"/>
</g>
<!-- Node23&#45;&gt;Node18 -->
<g id="edge12" class="edge">
<title>Node23&#45;&gt;Node18</title>
<path fill="none" stroke="#191970" d="M781.0904,-403.207C799.0553,-401.0349 818.5063,-398.6831 836.7515,-396.4771"/>
<polygon fill="#191970" stroke="#191970" points="837.239,-399.9438 846.7466,-395.2687 836.3987,-392.9944 837.239,-399.9438"/>
</g>
<!-- Node24 -->
<g id="node12" class="node">
<title>Node24</title>
<g id="a_node12"><a xlink:href="classBlockExtendedData.html#ae33e9550384a32abf2a91386334a2be9" target="_top" xlink:title="BlockExtendedData::\lGetType">
<polygon fill="#ffffff" stroke="#000000" points="851.5,-426.5 851.5,-456.5 970.5,-456.5 970.5,-426.5 851.5,-426.5"/>
<text text-anchor="start" x="859.5" y="-444.5" font-family="Helvetica,sans-Serif" font-size="10.00" fill="#000000">BlockExtendedData::</text>
<text text-anchor="middle" x="911" y="-433.5" font-family="Helvetica,sans-Serif" font-size="10.00" fill="#000000">GetType</text>
</a>
</g>
</g>
<!-- Node23&#45;&gt;Node24 -->
<g id="edge11" class="edge">
<title>Node23&#45;&gt;Node24</title>
<path fill="none" stroke="#191970" d="M775.5794,-421.0334C796.5518,-424.203 820.0205,-427.75 841.4536,-430.9892"/>
<polygon fill="#191970" stroke="#191970" points="841.0548,-434.4686 851.4655,-432.5023 842.1009,-427.5472 841.0548,-434.4686"/>
</g>
<!-- Node26 -->
<g id="node14" class="node">
<title>Node26</title>
<g id="a_node14"><a xlink:href="classAudioBlock.html#a380880c91c3af2322d232ce2de83b881" target="_top" xlink:title="AudioBlock::GetTotalLen">
<polygon fill="#ffffff" stroke="#000000" points="843.5,-546 843.5,-565 978.5,-565 978.5,-546 843.5,-546"/>
<text text-anchor="middle" x="911" y="-553" font-family="Helvetica,sans-Serif" font-size="10.00" fill="#000000">AudioBlock::GetTotalLen</text>
</a>
</g>
</g>
<!-- Node25&#45;&gt;Node26 -->
<g id="edge14" class="edge">
<title>Node25&#45;&gt;Node26</title>
<path fill="none" stroke="#191970" d="M560.6854,-494.7579C571.1866,-497.5044 581.7374,-501.288 591,-506.5 611.2751,-517.9085 605.8106,-534.8956 627,-544.5 697.2043,-576.3212 787.4784,-573.4032 847.188,-566.2936"/>
<polygon fill="#191970" stroke="#191970" points="847.7522,-569.7502 857.2342,-565.0235 846.8741,-562.8055 847.7522,-569.7502"/>
</g>
<!-- Node27 -->
<g id="node15" class="node">
<title>Node27</title>
<g id="a_node15"><a xlink:href="classAudioBlock.html#a4f53140535b4c56db4c5360f3fb9eb7d" target="_top" xlink:title="AudioBlock::SetPtrsFromAbs\lOffset">
<polygon fill="#ffffff" stroke="#000000" points="834,-480.5 834,-510.5 988,-510.5 988,-480.5 834,-480.5"/>
<text text-anchor="start" x="842" y="-498.5" font-family="Helvetica,sans-Serif" font-size="10.00" fill="#000000">AudioBlock::SetPtrsFromAbs</text>
<text text-anchor="middle" x="911" y="-487.5" font-family="Helvetica,sans-Serif" font-size="10.00" fill="#000000">Offset</text>
</a>
</g>
</g>
<!-- Node25&#45;&gt;Node27 -->
<g id="edge15" class="edge">
<title>Node25&#45;&gt;Node27</title>
<path fill="none" stroke="#191970" d="M560.5911,-488.6292C629.0179,-489.9709 743.8943,-492.2234 823.3678,-493.7817"/>
<polygon fill="#191970" stroke="#191970" points="823.7841,-497.2905 833.8509,-493.9873 823.9214,-490.2918 823.7841,-497.2905"/>
</g>
<!-- Node28 -->
<g id="node16" class="node">
<title>Node28</title>
<g id="a_node16"><a xlink:href="classAudioBlock.html#ae7aec1591ed6f228799c11b650b2cc1b" target="_top" xlink:title="AudioBlock::GetExtendedData">
<polygon fill="#ffffff" stroke="#000000" points="630.5,-440 630.5,-459 794.5,-459 794.5,-440 630.5,-440"/>
<text text-anchor="middle" x="712.5" y="-447" font-family="Helvetica,sans-Serif" font-size="10.00" fill="#000000">AudioBlock::GetExtendedData</text>
</a>
</g>
</g>
<!-- Node25&#45;&gt;Node28 -->
<g id="edge16" class="edge">
<title>Node25&#45;&gt;Node28</title>
<path fill="none" stroke="#191970" d="M555.5953,-477.96C584.2352,-472.7652 619.8585,-466.3037 649.9198,-460.8511"/>
<polygon fill="#191970" stroke="#191970" points="650.6683,-464.2725 659.8831,-459.0439 649.4189,-457.3849 650.6683,-464.2725"/>
</g>
<!-- Node29 -->
<g id="node17" class="node">
<title>Node29</title>
<g id="a_node17"><a xlink:href="classAudioBlock.html#aa9e0bc3fa297c7c97aedda16f240108f" target="_top" xlink:title="AudioBlock::HackTotalLengthBy">
<polygon fill="#ffffff" stroke="#000000" points="627,-516 627,-535 798,-535 798,-516 627,-516"/>
<text text-anchor="middle" x="712.5" y="-523" font-family="Helvetica,sans-Serif" font-size="10.00" fill="#000000">AudioBlock::HackTotalLengthBy</text>
</a>
</g>
</g>
<!-- Node25&#45;&gt;Node29 -->
<g id="edge18" class="edge">
<title>Node25&#45;&gt;Node29</title>
<path fill="none" stroke="#191970" d="M555.5953,-497.04C584.2352,-502.2348 619.8585,-508.6963 649.9198,-514.1489"/>
<polygon fill="#191970" stroke="#191970" points="649.4189,-517.6151 659.8831,-515.9561 650.6683,-510.7275 649.4189,-517.6151"/>
</g>
<!-- Node28&#45;&gt;Node24 -->
<g id="edge17" class="edge">
<title>Node28&#45;&gt;Node24</title>
<path fill="none" stroke="#191970" d="M794.6704,-446.1883C810.0957,-445.5667 826.0886,-444.9221 841.0975,-444.3172"/>
<polygon fill="#191970" stroke="#191970" points="841.4611,-447.8055 851.3121,-443.9056 841.1792,-440.8112 841.4611,-447.8055"/>
</g>
<!-- Node29&#45;&gt;Node18 -->
<g id="edge21" class="edge">
<title>Node29&#45;&gt;Node18</title>
<path fill="none" stroke="#191970" d="M730.925,-515.8655C749.2634,-505.7002 777.5491,-488.4128 798,-468.5 817.8784,-449.1447 812.147,-434.5946 834,-417.5 842.9112,-410.5292 853.639,-405.0062 864.2185,-400.7007"/>
<polygon fill="#191970" stroke="#191970" points="865.7094,-403.8794 873.8364,-397.0822 863.2444,-397.3277 865.7094,-403.8794"/>
</g>
<!-- Node29&#45;&gt;Node26 -->
<g id="edge19" class="edge">
<title>Node29&#45;&gt;Node26</title>
<path fill="none" stroke="#191970" d="M775.5794,-535.0334C795.4813,-538.0413 817.6312,-541.3889 838.1563,-544.4909"/>
<polygon fill="#191970" stroke="#191970" points="837.674,-547.9576 848.0847,-545.9914 838.7201,-541.0362 837.674,-547.9576"/>
</g>
<!-- Node29&#45;&gt;Node27 -->
<g id="edge20" class="edge">
<title>Node29&#45;&gt;Node27</title>
<path fill="none" stroke="#191970" d="M775.5794,-515.9666C790.9032,-513.6507 807.5597,-511.1333 823.781,-508.6817"/>
<polygon fill="#191970" stroke="#191970" points="824.4444,-512.1213 833.8091,-507.1661 823.3983,-505.1999 824.4444,-512.1213"/>
</g>
<!-- Node32 -->
<g id="node20" class="node">
<title>Node32</title>
<g id="a_node20"><a xlink:href="classiFileEncoder.html#a688c77631f58abe047c36ef552ec83bb" target="_top" xlink:title="iFileEncoder::PrepareFile\lForClosing">
<polygon fill="#ffffff" stroke="#000000" points="435.5,-44.5 435.5,-74.5 570.5,-74.5 570.5,-44.5 435.5,-44.5"/>
<text text-anchor="start" x="443.5" y="-62.5" font-family="Helvetica,sans-Serif" font-size="10.00" fill="#000000">iFileEncoder::PrepareFile</text>
<text text-anchor="middle" x="503" y="-51.5" font-family="Helvetica,sans-Serif" font-size="10.00" fill="#000000">ForClosing</text>
</a>
</g>
</g>
<!-- Node31&#45;&gt;Node32 -->
<g id="edge24" class="edge">
<title>Node31&#45;&gt;Node32</title>
<path fill="none" stroke="#191970" d="M355.7322,-58.1301C377.7206,-58.3346 402.2931,-58.5632 424.9695,-58.7741"/>
<polygon fill="#191970" stroke="#191970" points="425.2068,-62.2764 435.239,-58.8697 425.272,-55.2767 425.2068,-62.2764"/>
</g>
<!-- Node37&#45;&gt;Node18 -->
<g id="edge31" class="edge">
<title>Node37&#45;&gt;Node18</title>
<path fill="none" stroke="#191970" d="M734.3484,-257.0489C752.0983,-265.1999 777.4665,-277.7589 798,-291.5 834.6121,-316.0009 872.7729,-350.646 894.0499,-370.9231"/>
<polygon fill="#191970" stroke="#191970" points="891.7076,-373.5264 901.3395,-377.9398 896.5621,-368.4832 891.7076,-373.5264"/>
</g>
<!-- Node39 -->
<g id="node27" class="node">
<title>Node39</title>
<g id="a_node27"><a xlink:href="classBlockManager.html#ac251e0ace481edc4b8da20dca37472a6" target="_top" xlink:title="BlockManager::HiRefDeleted">
<polygon fill="#ffffff" stroke="#000000" points="425,-6 425,-25 581,-25 581,-6 425,-6"/>
<text text-anchor="middle" x="503" y="-13" font-family="Helvetica,sans-Serif" font-size="10.00" fill="#000000">BlockManager::HiRefDeleted</text>
</a>
</g>
</g>
<!-- Node38&#45;&gt;Node39 -->
<g id="edge33" class="edge">
<title>Node38&#45;&gt;Node39</title>
<path fill="none" stroke="#191970" d="M361.0892,-17.4802C378.2873,-17.2402 396.7989,-16.9819 414.5898,-16.7336"/>
<polygon fill="#191970" stroke="#191970" points="415.016,-20.2281 424.9662,-16.5888 414.9183,-13.2288 415.016,-20.2281"/>
</g>
<!-- Node40 -->
<g id="node28" class="node">
<title>Node40</title>
<g id="a_node28"><a xlink:href="classHiPriManagedChain.html#ac1e45103a45f1dc90be396aeb8c226eb" target="_top" xlink:title="HiPriManagedChain::\lRefDeleted">
<polygon fill="#ffffff" stroke="#000000" points="653.5,-.5 653.5,-30.5 771.5,-30.5 771.5,-.5 653.5,-.5"/>
<text text-anchor="start" x="661.5" y="-18.5" font-family="Helvetica,sans-Serif" font-size="10.00" fill="#000000">HiPriManagedChain::</text>
<text text-anchor="middle" x="712.5" y="-7.5" font-family="Helvetica,sans-Serif" font-size="10.00" fill="#000000">RefDeleted</text>
</a>
</g>
</g>
<!-- Node39&#45;&gt;Node40 -->
<g id="edge34" class="edge">
<title>Node39&#45;&gt;Node40</title>
<path fill="none" stroke="#191970" d="M581.0101,-15.5C601.4179,-15.5 623.2769,-15.5 643.197,-15.5"/>
<polygon fill="#191970" stroke="#191970" points="643.4193,-19.0001 653.4193,-15.5 643.4192,-12.0001 643.4193,-19.0001"/>
</g>
</g>
</svg>
