<?xml version="1.0" encoding="UTF-8" standalone="no"?>
<!DOCTYPE svg PUBLIC "-//W3C//DTD SVG 1.1//EN"
 "http://www.w3.org/Graphics/SVG/1.1/DTD/svg11.dtd">
<!-- Generated by graphviz version 2.40.1 (20161225.0304)
 -->
<!-- Title: SLinkList::FindAndRemove Pages: 1 -->
<svg width="475pt" height="39pt"
 viewBox="0.00 0.00 475.00 39.00" xmlns="http://www.w3.org/2000/svg" xmlns:xlink="http://www.w3.org/1999/xlink">
<g id="graph0" class="graph" transform="scale(1 1) rotate(0) translate(4 35)">
<title>SLinkList::FindAndRemove</title>
<polygon fill="#ffffff" stroke="transparent" points="-4,4 -4,-35 471,-35 471,4 -4,4"/>
<!-- Node7 -->
<g id="node1" class="node">
<title>Node7</title>
<polygon fill="#bfbfbf" stroke="#000000" points="0,-6 0,-25 144,-25 144,-6 0,-6"/>
<text text-anchor="middle" x="72" y="-13" font-family="Helvetica,sans-Serif" font-size="10.00" fill="#000000">SLinkList::FindAndRemove</text>
</g>
<!-- Node8 -->
<g id="node2" class="node">
<title>Node8</title>
<g id="a_node2"><a xlink:href="classMemoryManager.html#a0eaa6fee33190f085bf0b70e9578ac74" target="_top" xlink:title="MemoryManager::DelType">
<polygon fill="#ffffff" stroke="#000000" points="180,-6 180,-25 323,-25 323,-6 180,-6"/>
<text text-anchor="middle" x="251.5" y="-13" font-family="Helvetica,sans-Serif" font-size="10.00" fill="#000000">MemoryManager::DelType</text>
</a>
</g>
</g>
<!-- Node7&#45;&gt;Node8 -->
<g id="edge1" class="edge">
<title>Node7&#45;&gt;Node8</title>
<path fill="none" stroke="#191970" d="M154.2599,-15.5C162.8532,-15.5 171.5386,-15.5 179.9982,-15.5"/>
<polygon fill="#191970" stroke="#191970" points="154.2337,-12.0001 144.2336,-15.5 154.2336,-19.0001 154.2337,-12.0001"/>
</g>
<!-- Node9 -->
<g id="node3" class="node">
<title>Node9</title>
<g id="a_node3"><a xlink:href="classPreallocatedType.html#af4e0a39c76f628d3c8fd38c60468b74f" target="_top" xlink:title="PreallocatedType::\l~PreallocatedType">
<polygon fill="#ffffff" stroke="#000000" points="359,-.5 359,-30.5 467,-30.5 467,-.5 359,-.5"/>
<text text-anchor="start" x="367" y="-18.5" font-family="Helvetica,sans-Serif" font-size="10.00" fill="#000000">PreallocatedType::</text>
<text text-anchor="middle" x="413" y="-7.5" font-family="Helvetica,sans-Serif" font-size="10.00" fill="#000000">~PreallocatedType</text>
</a>
</g>
</g>
<!-- Node8&#45;&gt;Node9 -->
<g id="edge2" class="edge">
<title>Node8&#45;&gt;Node9</title>
<path fill="none" stroke="#191970" d="M333.4095,-15.5C342.0545,-15.5 350.6817,-15.5 358.8947,-15.5"/>
<polygon fill="#191970" stroke="#191970" points="333.2768,-12.0001 323.2768,-15.5 333.2767,-19.0001 333.2768,-12.0001"/>
</g>
</g>
</svg>
