<?xml version="1.0" encoding="UTF-8" standalone="no"?>
<!DOCTYPE svg PUBLIC "-//W3C//DTD SVG 1.1//EN"
 "http://www.w3.org/Graphics/SVG/1.1/DTD/svg11.dtd">
<!-- Generated by graphviz version 2.40.1 (20161225.0304)
 -->
<!-- Title: MidiIO::listen_events Pages: 1 -->
<svg width="312pt" height="142pt"
 viewBox="0.00 0.00 312.00 142.00" xmlns="http://www.w3.org/2000/svg" xmlns:xlink="http://www.w3.org/1999/xlink">
<g id="graph0" class="graph" transform="scale(1 1) rotate(0) translate(4 138)">
<title>MidiIO::listen_events</title>
<polygon fill="#ffffff" stroke="transparent" points="-4,4 -4,-138 308,-138 308,4 -4,4"/>
<!-- Node127 -->
<g id="node1" class="node">
<title>Node127</title>
<polygon fill="#bfbfbf" stroke="#000000" points="0,-57.5 0,-76.5 119,-76.5 119,-57.5 0,-57.5"/>
<text text-anchor="middle" x="59.5" y="-64.5" font-family="Helvetica,sans-Serif" font-size="10.00" fill="#000000">MidiIO::listen_events</text>
</g>
<!-- Node128 -->
<g id="node2" class="node">
<title>Node128</title>
<g id="a_node2"><a xlink:href="classFweelin.html#a681d7ca8d0789199af135f22c26a5409" target="_top" xlink:title="Fweelin::getCFG">
<polygon fill="#ffffff" stroke="#000000" points="182,-114.5 182,-133.5 277,-133.5 277,-114.5 182,-114.5"/>
<text text-anchor="middle" x="229.5" y="-121.5" font-family="Helvetica,sans-Serif" font-size="10.00" fill="#000000">Fweelin::getCFG</text>
</a>
</g>
</g>
<!-- Node127&#45;&gt;Node128 -->
<g id="edge1" class="edge">
<title>Node127&#45;&gt;Node128</title>
<path fill="none" stroke="#191970" d="M81.206,-76.5685C100.3739,-84.7926 129.2047,-96.6173 155,-105 162.4977,-107.4365 170.5013,-109.7601 178.3783,-111.8932"/>
<polygon fill="#191970" stroke="#191970" points="177.679,-115.3283 188.2404,-114.4874 179.4598,-108.5585 177.679,-115.3283"/>
</g>
<!-- Node129 -->
<g id="node3" class="node">
<title>Node129</title>
<g id="a_node3"><a xlink:href="classFweelin.html#a21e51d7b639faaecc415624ab6c16a71" target="_top" xlink:title="Fweelin::getEMG">
<polygon fill="#ffffff" stroke="#000000" points="180.5,-76.5 180.5,-95.5 278.5,-95.5 278.5,-76.5 180.5,-76.5"/>
<text text-anchor="middle" x="229.5" y="-83.5" font-family="Helvetica,sans-Serif" font-size="10.00" fill="#000000">Fweelin::getEMG</text>
</a>
</g>
</g>
<!-- Node127&#45;&gt;Node129 -->
<g id="edge2" class="edge">
<title>Node127&#45;&gt;Node129</title>
<path fill="none" stroke="#191970" d="M119.4356,-73.6987C135.9808,-75.5479 153.9175,-77.5525 170.4141,-79.3963"/>
<polygon fill="#191970" stroke="#191970" points="170.1473,-82.8882 180.4742,-80.5206 170.9249,-75.9315 170.1473,-82.8882"/>
</g>
<!-- Node130 -->
<g id="node4" class="node">
<title>Node130</title>
<g id="a_node4"><a xlink:href="classEventManager.html#a900be2c959408f76e6926c96197bd773" target="_top" xlink:title="EventManager::ListenEvent">
<polygon fill="#ffffff" stroke="#000000" points="155,-38.5 155,-57.5 304,-57.5 304,-38.5 155,-38.5"/>
<text text-anchor="middle" x="229.5" y="-45.5" font-family="Helvetica,sans-Serif" font-size="10.00" fill="#000000">EventManager::ListenEvent</text>
</a>
</g>
</g>
<!-- Node127&#45;&gt;Node130 -->
<g id="edge3" class="edge">
<title>Node127&#45;&gt;Node130</title>
<path fill="none" stroke="#191970" d="M119.4356,-60.3013C127.6806,-59.3798 136.2711,-58.4197 144.8568,-57.4601"/>
<polygon fill="#191970" stroke="#191970" points="145.363,-60.9254 154.9123,-56.3363 144.5854,-53.9687 145.363,-60.9254"/>
</g>
<!-- Node131 -->
<g id="node5" class="node">
<title>Node131</title>
<g id="a_node5"><a xlink:href="classFloConfig.html#aec6fbf3c9b048a875b3f4ef86cbf6f83" target="_top" xlink:title="FloConfig::GetInputMatrix">
<polygon fill="#ffffff" stroke="#000000" points="159.5,-.5 159.5,-19.5 299.5,-19.5 299.5,-.5 159.5,-.5"/>
<text text-anchor="middle" x="229.5" y="-7.5" font-family="Helvetica,sans-Serif" font-size="10.00" fill="#000000">FloConfig::GetInputMatrix</text>
</a>
</g>
</g>
<!-- Node127&#45;&gt;Node131 -->
<g id="edge4" class="edge">
<title>Node127&#45;&gt;Node131</title>
<path fill="none" stroke="#191970" d="M81.206,-57.4315C100.3739,-49.2074 129.2047,-37.3827 155,-29 162.4977,-26.5635 170.5013,-24.2399 178.3783,-22.1068"/>
<polygon fill="#191970" stroke="#191970" points="179.4598,-25.4415 188.2404,-19.5126 177.679,-18.6717 179.4598,-25.4415"/>
</g>
</g>
</svg>
