<?xml version="1.0" encoding="UTF-8" standalone="no"?>
<!DOCTYPE svg PUBLIC "-//W3C//DTD SVG 1.1//EN"
 "http://www.w3.org/Graphics/SVG/1.1/DTD/svg11.dtd">
<!-- Generated by graphviz version 2.40.1 (20161225.0304)
 -->
<!-- Title: FloConfig::ConfigureDisplay_Common Pages: 1 -->
<svg width="773pt" height="66pt"
 viewBox="0.00 0.00 773.00 66.00" xmlns="http://www.w3.org/2000/svg" xmlns:xlink="http://www.w3.org/1999/xlink">
<g id="graph0" class="graph" transform="scale(1 1) rotate(0) translate(4 62)">
<title>FloConfig::ConfigureDisplay_Common</title>
<polygon fill="#ffffff" stroke="transparent" points="-4,4 -4,-62 769,-62 769,4 -4,4"/>
<!-- Node29 -->
<g id="node1" class="node">
<title>Node29</title>
<polygon fill="#bfbfbf" stroke="#000000" points="0,-14 0,-44 151,-44 151,-14 0,-14"/>
<text text-anchor="start" x="8" y="-32" font-family="Helvetica,sans-Serif" font-size="10.00" fill="#000000">FloConfig::ConfigureDisplay</text>
<text text-anchor="middle" x="75.5" y="-21" font-family="Helvetica,sans-Serif" font-size="10.00" fill="#000000">_Common</text>
</g>
<!-- Node30 -->
<g id="node2" class="node">
<title>Node30</title>
<g id="a_node2"><a xlink:href="classParsedExpression.html#a8b8c5462181f05c11f51df722809ac7e" target="_top" xlink:title="ParsedExpression::Evaluate">
<polygon fill="#ffffff" stroke="#000000" points="187,-38.5 187,-57.5 338,-57.5 338,-38.5 187,-38.5"/>
<text text-anchor="middle" x="262.5" y="-45.5" font-family="Helvetica,sans-Serif" font-size="10.00" fill="#000000">ParsedExpression::Evaluate</text>
</a>
</g>
</g>
<!-- Node29&#45;&gt;Node30 -->
<g id="edge1" class="edge">
<title>Node29&#45;&gt;Node30</title>
<path fill="none" stroke="#191970" d="M151.021,-36.6733C159.4724,-37.532 168.1275,-38.4113 176.6957,-39.2819"/>
<polygon fill="#191970" stroke="#191970" points="176.3943,-42.7692 186.6969,-40.2981 177.1019,-35.8051 176.3943,-42.7692"/>
</g>
<!-- Node34 -->
<g id="node6" class="node">
<title>Node34</title>
<g id="a_node6"><a xlink:href="classParsedExpression.html#a0d3a48a6f1743c631cc6892a2f37d545" target="_top" xlink:title="ParsedExpression::Print">
<polygon fill="#ffffff" stroke="#000000" points="197,-.5 197,-19.5 328,-19.5 328,-.5 197,-.5"/>
<text text-anchor="middle" x="262.5" y="-7.5" font-family="Helvetica,sans-Serif" font-size="10.00" fill="#000000">ParsedExpression::Print</text>
</a>
</g>
</g>
<!-- Node29&#45;&gt;Node34 -->
<g id="edge5" class="edge">
<title>Node29&#45;&gt;Node34</title>
<path fill="none" stroke="#191970" d="M151.021,-21.3267C162.7811,-20.1319 174.9355,-18.8969 186.7016,-17.7014"/>
<polygon fill="#191970" stroke="#191970" points="187.3271,-21.156 196.922,-16.663 186.6194,-14.1919 187.3271,-21.156"/>
</g>
<!-- Node31 -->
<g id="node3" class="node">
<title>Node31</title>
<g id="a_node3"><a xlink:href="classCfgToken.html#a5e30ffe3bc7cf2483e390cf023eaa6c0" target="_top" xlink:title="CfgToken::Evaluate">
<polygon fill="#ffffff" stroke="#000000" points="374,-38.5 374,-57.5 484,-57.5 484,-38.5 374,-38.5"/>
<text text-anchor="middle" x="429" y="-45.5" font-family="Helvetica,sans-Serif" font-size="10.00" fill="#000000">CfgToken::Evaluate</text>
</a>
</g>
</g>
<!-- Node30&#45;&gt;Node31 -->
<g id="edge2" class="edge">
<title>Node30&#45;&gt;Node31</title>
<path fill="none" stroke="#191970" d="M338.4415,-48C346.7636,-48 355.1838,-48 363.3661,-48"/>
<polygon fill="#191970" stroke="#191970" points="363.5778,-51.5001 373.5778,-48 363.5778,-44.5001 363.5778,-51.5001"/>
</g>
<!-- Node32 -->
<g id="node4" class="node">
<title>Node32</title>
<g id="a_node4"><a xlink:href="classUserVariable.html#a7cbb83559d78173a8b7810c3ecc3842f" target="_top" xlink:title="UserVariable::SetFrom">
<polygon fill="#ffffff" stroke="#000000" points="520,-38.5 520,-57.5 645,-57.5 645,-38.5 520,-38.5"/>
<text text-anchor="middle" x="582.5" y="-45.5" font-family="Helvetica,sans-Serif" font-size="10.00" fill="#000000">UserVariable::SetFrom</text>
</a>
</g>
</g>
<!-- Node31&#45;&gt;Node32 -->
<g id="edge3" class="edge">
<title>Node31&#45;&gt;Node32</title>
<path fill="none" stroke="#191970" d="M484.417,-48C492.598,-48 501.1303,-48 509.5998,-48"/>
<polygon fill="#191970" stroke="#191970" points="509.872,-51.5001 519.872,-48 509.8719,-44.5001 509.872,-51.5001"/>
</g>
<!-- Node33 -->
<g id="node5" class="node">
<title>Node33</title>
<g id="a_node5"><a xlink:href="classRange.html#a378dde258315602c6929b84cb10f8f8d" target="_top" xlink:title="Range::Range">
<polygon fill="#ffffff" stroke="#000000" points="681,-38.5 681,-57.5 765,-57.5 765,-38.5 681,-38.5"/>
<text text-anchor="middle" x="723" y="-45.5" font-family="Helvetica,sans-Serif" font-size="10.00" fill="#000000">Range::Range</text>
</a>
</g>
</g>
<!-- Node32&#45;&gt;Node33 -->
<g id="edge4" class="edge">
<title>Node32&#45;&gt;Node33</title>
<path fill="none" stroke="#191970" d="M645.353,-48C653.7782,-48 662.347,-48 670.5672,-48"/>
<polygon fill="#191970" stroke="#191970" points="670.7561,-51.5001 680.7561,-48 670.756,-44.5001 670.7561,-51.5001"/>
</g>
<!-- Node35 -->
<g id="node7" class="node">
<title>Node35</title>
<g id="a_node7"><a xlink:href="classCfgToken.html#abba9204af7f225da0c2c0793c119cf8b" target="_top" xlink:title="CfgToken::Print">
<polygon fill="#ffffff" stroke="#000000" points="384,-.5 384,-19.5 474,-19.5 474,-.5 384,-.5"/>
<text text-anchor="middle" x="429" y="-7.5" font-family="Helvetica,sans-Serif" font-size="10.00" fill="#000000">CfgToken::Print</text>
</a>
</g>
</g>
<!-- Node34&#45;&gt;Node35 -->
<g id="edge6" class="edge">
<title>Node34&#45;&gt;Node35</title>
<path fill="none" stroke="#191970" d="M328.3052,-10C343.2998,-10 359.0849,-10 373.5946,-10"/>
<polygon fill="#191970" stroke="#191970" points="373.905,-13.5001 383.905,-10 373.9049,-6.5001 373.905,-13.5001"/>
</g>
</g>
</svg>
