<?xml version="1.0" encoding="UTF-8" standalone="no"?>
<!DOCTYPE svg PUBLIC "-//W3C//DTD SVG 1.1//EN"
 "http://www.w3.org/Graphics/SVG/1.1/DTD/svg11.dtd">
<!-- Generated by graphviz version 2.40.1 (20161225.0304)
 -->
<!-- Title: HardwareMixerInterface::cset Pages: 1 -->
<svg width="667pt" height="347pt"
 viewBox="0.00 0.00 667.00 347.00" xmlns="http://www.w3.org/2000/svg" xmlns:xlink="http://www.w3.org/1999/xlink">
<g id="graph0" class="graph" transform="scale(1 1) rotate(0) translate(4 343)">
<title>HardwareMixerInterface::cset</title>
<polygon fill="#ffffff" stroke="transparent" points="-4,4 -4,-343 663,-343 663,4 -4,4"/>
<!-- Node55 -->
<g id="node1" class="node">
<title>Node55</title>
<polygon fill="#bfbfbf" stroke="#000000" points="0,-195.5 0,-225.5 134,-225.5 134,-195.5 0,-195.5"/>
<text text-anchor="start" x="8" y="-213.5" font-family="Helvetica,sans-Serif" font-size="10.00" fill="#000000">HardwareMixerInterface</text>
<text text-anchor="middle" x="67" y="-202.5" font-family="Helvetica,sans-Serif" font-size="10.00" fill="#000000">::cset</text>
</g>
<!-- Node56 -->
<g id="node2" class="node">
<title>Node56</title>
<g id="a_node2"><a xlink:href="classHardwareMixerInterface.html#ad84ba3216d4d254bd96b2b8abfcbf8e7" target="_top" xlink:title="HardwareMixerInterface\l::parse_control_id">
<polygon fill="#ffffff" stroke="#000000" points="177.5,-308.5 177.5,-338.5 311.5,-338.5 311.5,-308.5 177.5,-308.5"/>
<text text-anchor="start" x="185.5" y="-326.5" font-family="Helvetica,sans-Serif" font-size="10.00" fill="#000000">HardwareMixerInterface</text>
<text text-anchor="middle" x="244.5" y="-315.5" font-family="Helvetica,sans-Serif" font-size="10.00" fill="#000000">::parse_control_id</text>
</a>
</g>
</g>
<!-- Node55&#45;&gt;Node56 -->
<g id="edge1" class="edge">
<title>Node55&#45;&gt;Node56</title>
<path fill="none" stroke="#191970" d="M82.6613,-225.619C101.9545,-243.6258 136.326,-273.7449 170,-293.5 176.7649,-297.4687 184.1538,-301.1417 191.5658,-304.4574"/>
<polygon fill="#191970" stroke="#191970" points="190.3511,-307.7445 200.9216,-308.4615 193.1053,-301.3091 190.3511,-307.7445"/>
</g>
<!-- Node57 -->
<g id="node3" class="node">
<title>Node57</title>
<g id="a_node3"><a xlink:href="classHardwareMixerInterface.html#a2257580b0d7e0d6cf844b117ec479e97" target="_top" xlink:title="HardwareMixerInterface\l::show_control_id">
<polygon fill="#ffffff" stroke="#000000" points="355,-217.5 355,-247.5 489,-247.5 489,-217.5 355,-217.5"/>
<text text-anchor="start" x="363" y="-235.5" font-family="Helvetica,sans-Serif" font-size="10.00" fill="#000000">HardwareMixerInterface</text>
<text text-anchor="middle" x="422" y="-224.5" font-family="Helvetica,sans-Serif" font-size="10.00" fill="#000000">::show_control_id</text>
</a>
</g>
</g>
<!-- Node55&#45;&gt;Node57 -->
<g id="edge2" class="edge">
<title>Node55&#45;&gt;Node57</title>
<path fill="none" stroke="#191970" d="M90.4075,-225.6822C110.5738,-237.8018 140.9417,-253.8198 170,-260.5 234.5387,-275.3369 253.3601,-269.2629 319,-260.5 334.8208,-258.3879 351.6555,-254.5274 367.0309,-250.3341"/>
<polygon fill="#191970" stroke="#191970" points="368.2273,-253.6331 376.8986,-247.5455 366.3236,-246.8969 368.2273,-253.6331"/>
</g>
<!-- Node59 -->
<g id="node5" class="node">
<title>Node59</title>
<g id="a_node5"><a xlink:href="classHardwareMixerInterface.html#a0c800fb8690ee55bf201a495b261578a" target="_top" xlink:title="HardwareMixerInterface\l::get_integer">
<polygon fill="#ffffff" stroke="#000000" points="177.5,-220.5 177.5,-250.5 311.5,-250.5 311.5,-220.5 177.5,-220.5"/>
<text text-anchor="start" x="185.5" y="-238.5" font-family="Helvetica,sans-Serif" font-size="10.00" fill="#000000">HardwareMixerInterface</text>
<text text-anchor="middle" x="244.5" y="-227.5" font-family="Helvetica,sans-Serif" font-size="10.00" fill="#000000">::get_integer</text>
</a>
</g>
</g>
<!-- Node55&#45;&gt;Node59 -->
<g id="edge4" class="edge">
<title>Node55&#45;&gt;Node59</title>
<path fill="none" stroke="#191970" d="M134.1051,-219.9514C144.9288,-221.4759 156.2098,-223.0648 167.2495,-224.6196"/>
<polygon fill="#191970" stroke="#191970" points="166.9095,-228.1062 177.3,-226.0352 167.8859,-221.1746 166.9095,-228.1062"/>
</g>
<!-- Node60 -->
<g id="node6" class="node">
<title>Node60</title>
<g id="a_node6"><a xlink:href="classHardwareMixerInterface.html#a67048ba3bbe5856c027d5f2b0cd59f2c" target="_top" xlink:title="HardwareMixerInterface\l::get_integer64">
<polygon fill="#ffffff" stroke="#000000" points="177.5,-171.5 177.5,-201.5 311.5,-201.5 311.5,-171.5 177.5,-171.5"/>
<text text-anchor="start" x="185.5" y="-189.5" font-family="Helvetica,sans-Serif" font-size="10.00" fill="#000000">HardwareMixerInterface</text>
<text text-anchor="middle" x="244.5" y="-178.5" font-family="Helvetica,sans-Serif" font-size="10.00" fill="#000000">::get_integer64</text>
</a>
</g>
</g>
<!-- Node55&#45;&gt;Node60 -->
<g id="edge5" class="edge">
<title>Node55&#45;&gt;Node60</title>
<path fill="none" stroke="#191970" d="M134.1051,-201.4266C144.9288,-199.9632 156.2098,-198.4378 167.2495,-196.9451"/>
<polygon fill="#191970" stroke="#191970" points="167.8591,-200.3946 177.3,-195.5862 166.9211,-193.4578 167.8591,-200.3946"/>
</g>
<!-- Node61 -->
<g id="node7" class="node">
<title>Node61</title>
<g id="a_node7"><a xlink:href="classHardwareMixerInterface.html#aca390089f43e673345469d921b3e2ca6" target="_top" xlink:title="HardwareMixerInterface\l::get_ctl_enum_item_index">
<polygon fill="#ffffff" stroke="#000000" points="170,-122.5 170,-152.5 319,-152.5 319,-122.5 170,-122.5"/>
<text text-anchor="start" x="178" y="-140.5" font-family="Helvetica,sans-Serif" font-size="10.00" fill="#000000">HardwareMixerInterface</text>
<text text-anchor="middle" x="244.5" y="-129.5" font-family="Helvetica,sans-Serif" font-size="10.00" fill="#000000">::get_ctl_enum_item_index</text>
</a>
</g>
</g>
<!-- Node55&#45;&gt;Node61 -->
<g id="edge6" class="edge">
<title>Node55&#45;&gt;Node61</title>
<path fill="none" stroke="#191970" d="M97.2532,-195.3061C117.5707,-185.3752 145.0827,-172.4502 170,-162.5 175.5194,-160.296 181.3176,-158.1181 187.1399,-156.0213"/>
<polygon fill="#191970" stroke="#191970" points="188.6464,-159.2016 196.9162,-152.5789 186.3214,-152.599 188.6464,-159.2016"/>
</g>
<!-- Node62 -->
<g id="node8" class="node">
<title>Node62</title>
<g id="a_node8"><a xlink:href="classHardwareMixerInterface.html#af7595788a2e9a99336ae2c52128a4b0e" target="_top" xlink:title="HardwareMixerInterface\l::show_control">
<polygon fill="#ffffff" stroke="#000000" points="177.5,-73.5 177.5,-103.5 311.5,-103.5 311.5,-73.5 177.5,-73.5"/>
<text text-anchor="start" x="185.5" y="-91.5" font-family="Helvetica,sans-Serif" font-size="10.00" fill="#000000">HardwareMixerInterface</text>
<text text-anchor="middle" x="244.5" y="-80.5" font-family="Helvetica,sans-Serif" font-size="10.00" fill="#000000">::show_control</text>
</a>
</g>
</g>
<!-- Node55&#45;&gt;Node62 -->
<g id="edge7" class="edge">
<title>Node55&#45;&gt;Node62</title>
<path fill="none" stroke="#191970" d="M79.4122,-195.2288C97.3456,-174.0845 132.4893,-135.9639 170,-113.5 173.5552,-111.3709 177.3156,-109.3951 181.1825,-107.5661"/>
<polygon fill="#191970" stroke="#191970" points="182.588,-110.7716 190.3518,-103.5622 179.7867,-104.3565 182.588,-110.7716"/>
</g>
<!-- Node58 -->
<g id="node4" class="node">
<title>Node58</title>
<g id="a_node4"><a xlink:href="classHardwareMixerInterface.html#a3ff59589b6384ae17852d4916c6e13fb" target="_top" xlink:title="HardwareMixerInterface\l::control_iface">
<polygon fill="#ffffff" stroke="#000000" points="525,-217.5 525,-247.5 659,-247.5 659,-217.5 525,-217.5"/>
<text text-anchor="start" x="533" y="-235.5" font-family="Helvetica,sans-Serif" font-size="10.00" fill="#000000">HardwareMixerInterface</text>
<text text-anchor="middle" x="592" y="-224.5" font-family="Helvetica,sans-Serif" font-size="10.00" fill="#000000">::control_iface</text>
</a>
</g>
</g>
<!-- Node57&#45;&gt;Node58 -->
<g id="edge3" class="edge">
<title>Node57&#45;&gt;Node58</title>
<path fill="none" stroke="#191970" d="M489.1885,-232.5C497.5021,-232.5 506.0537,-232.5 514.5056,-232.5"/>
<polygon fill="#191970" stroke="#191970" points="514.7429,-236.0001 524.7428,-232.5 514.7428,-229.0001 514.7429,-236.0001"/>
</g>
<!-- Node62&#45;&gt;Node57 -->
<g id="edge8" class="edge">
<title>Node62&#45;&gt;Node57</title>
<path fill="none" stroke="#191970" d="M301.6488,-103.5473C307.7852,-106.3478 313.7104,-109.6395 319,-113.5 340.8284,-129.4309 337.6206,-141.8064 355,-162.5 368.9276,-179.0835 385.7904,-196.6897 399.1145,-210.0965"/>
<polygon fill="#191970" stroke="#191970" points="396.95,-212.881 406.5016,-217.4655 401.8936,-207.9252 396.95,-212.881"/>
</g>
<!-- Node63 -->
<g id="node9" class="node">
<title>Node63</title>
<g id="a_node9"><a xlink:href="classHardwareMixerInterface.html#afdd621575ff5f274921fa82bf2615b59" target="_top" xlink:title="HardwareMixerInterface\l::control_type">
<polygon fill="#ffffff" stroke="#000000" points="355,-122.5 355,-152.5 489,-152.5 489,-122.5 355,-122.5"/>
<text text-anchor="start" x="363" y="-140.5" font-family="Helvetica,sans-Serif" font-size="10.00" fill="#000000">HardwareMixerInterface</text>
<text text-anchor="middle" x="422" y="-129.5" font-family="Helvetica,sans-Serif" font-size="10.00" fill="#000000">::control_type</text>
</a>
</g>
</g>
<!-- Node62&#45;&gt;Node63 -->
<g id="edge9" class="edge">
<title>Node62&#45;&gt;Node63</title>
<path fill="none" stroke="#191970" d="M299.2042,-103.6014C317.6803,-108.7019 338.4768,-114.4429 357.6308,-119.7305"/>
<polygon fill="#191970" stroke="#191970" points="356.9056,-123.1611 367.4764,-122.4484 358.7684,-116.4135 356.9056,-123.1611"/>
</g>
<!-- Node64 -->
<g id="node10" class="node">
<title>Node64</title>
<g id="a_node10"><a xlink:href="classHardwareMixerInterface.html#a69e280de4603d6fdbf76ff2f027e49dc" target="_top" xlink:title="HardwareMixerInterface\l::control_access">
<polygon fill="#ffffff" stroke="#000000" points="355,-73.5 355,-103.5 489,-103.5 489,-73.5 355,-73.5"/>
<text text-anchor="start" x="363" y="-91.5" font-family="Helvetica,sans-Serif" font-size="10.00" fill="#000000">HardwareMixerInterface</text>
<text text-anchor="middle" x="422" y="-80.5" font-family="Helvetica,sans-Serif" font-size="10.00" fill="#000000">::control_access</text>
</a>
</g>
</g>
<!-- Node62&#45;&gt;Node64 -->
<g id="edge10" class="edge">
<title>Node62&#45;&gt;Node64</title>
<path fill="none" stroke="#191970" d="M311.6051,-88.5C322.4288,-88.5 333.7098,-88.5 344.7495,-88.5"/>
<polygon fill="#191970" stroke="#191970" points="344.8,-92.0001 354.8,-88.5 344.7999,-85.0001 344.8,-92.0001"/>
</g>
<!-- Node65 -->
<g id="node11" class="node">
<title>Node65</title>
<g id="a_node11"><a xlink:href="classHardwareMixerInterface.html#a90284e772b2ef20f2b57f8a604d99aa7" target="_top" xlink:title="HardwareMixerInterface\l::decode_tlv">
<polygon fill="#ffffff" stroke="#000000" points="355,-24.5 355,-54.5 489,-54.5 489,-24.5 355,-24.5"/>
<text text-anchor="start" x="363" y="-42.5" font-family="Helvetica,sans-Serif" font-size="10.00" fill="#000000">HardwareMixerInterface</text>
<text text-anchor="middle" x="422" y="-31.5" font-family="Helvetica,sans-Serif" font-size="10.00" fill="#000000">::decode_tlv</text>
</a>
</g>
</g>
<!-- Node62&#45;&gt;Node65 -->
<g id="edge11" class="edge">
<title>Node62&#45;&gt;Node65</title>
<path fill="none" stroke="#191970" d="M299.2042,-73.3986C317.6803,-68.2981 338.4768,-62.5571 357.6308,-57.2695"/>
<polygon fill="#191970" stroke="#191970" points="358.7684,-60.5865 367.4764,-54.5516 356.9056,-53.8389 358.7684,-60.5865"/>
</g>
<!-- Node66 -->
<g id="node12" class="node">
<title>Node66</title>
<g id="a_node12"><a xlink:href="classHardwareMixerInterface.html#a875745a57c9eb77178634b95b10935fc" target="_top" xlink:title="HardwareMixerInterface\l::print_spaces">
<polygon fill="#ffffff" stroke="#000000" points="525,-49.5 525,-79.5 659,-79.5 659,-49.5 525,-49.5"/>
<text text-anchor="start" x="533" y="-67.5" font-family="Helvetica,sans-Serif" font-size="10.00" fill="#000000">HardwareMixerInterface</text>
<text text-anchor="middle" x="592" y="-56.5" font-family="Helvetica,sans-Serif" font-size="10.00" fill="#000000">::print_spaces</text>
</a>
</g>
</g>
<!-- Node65&#45;&gt;Node66 -->
<g id="edge12" class="edge">
<title>Node65&#45;&gt;Node66</title>
<path fill="none" stroke="#191970" d="M489.1885,-49.3807C497.5935,-50.6167 506.2417,-51.8885 514.7842,-53.1447"/>
<polygon fill="#191970" stroke="#191970" points="514.34,-56.617 524.7428,-54.6092 515.3585,-49.6915 514.34,-56.617"/>
</g>
<!-- Node67 -->
<g id="node13" class="node">
<title>Node67</title>
<g id="a_node13"><a xlink:href="classHardwareMixerInterface.html#a712aa490075ca1d3ef2f1b019ae620bb" target="_top" xlink:title="HardwareMixerInterface\l::print_dB">
<polygon fill="#ffffff" stroke="#000000" points="525,-.5 525,-30.5 659,-30.5 659,-.5 525,-.5"/>
<text text-anchor="start" x="533" y="-18.5" font-family="Helvetica,sans-Serif" font-size="10.00" fill="#000000">HardwareMixerInterface</text>
<text text-anchor="middle" x="592" y="-7.5" font-family="Helvetica,sans-Serif" font-size="10.00" fill="#000000">::print_dB</text>
</a>
</g>
</g>
<!-- Node65&#45;&gt;Node67 -->
<g id="edge13" class="edge">
<title>Node65&#45;&gt;Node67</title>
<path fill="none" stroke="#191970" d="M489.1885,-30.0146C497.5935,-28.828 506.2417,-27.6071 514.7842,-26.4011"/>
<polygon fill="#191970" stroke="#191970" points="515.3303,-29.8588 524.7428,-24.9951 514.3517,-22.9275 515.3303,-29.8588"/>
</g>
</g>
</svg>
