<?xml version="1.0" encoding="UTF-8" standalone="no"?>
<!DOCTYPE svg PUBLIC "-//W3C//DTD SVG 1.1//EN"
 "http://www.w3.org/Graphics/SVG/1.1/DTD/svg11.dtd">
<!-- Generated by graphviz version 2.40.1 (20161225.0304)
 -->
<!-- Title: MidiIO::ReceiveNoteOffEvent Pages: 1 -->
<svg width="463pt" height="28pt"
 viewBox="0.00 0.00 463.00 28.00" xmlns="http://www.w3.org/2000/svg" xmlns:xlink="http://www.w3.org/1999/xlink">
<g id="graph0" class="graph" transform="scale(1 1) rotate(0) translate(4 24)">
<title>MidiIO::ReceiveNoteOffEvent</title>
<polygon fill="#ffffff" stroke="transparent" points="-4,4 -4,-24 459,-24 459,4 -4,4"/>
<!-- Node258 -->
<g id="node1" class="node">
<title>Node258</title>
<polygon fill="#bfbfbf" stroke="#000000" points="0,-.5 0,-19.5 157,-19.5 157,-.5 0,-.5"/>
<text text-anchor="middle" x="78.5" y="-7.5" font-family="Helvetica,sans-Serif" font-size="10.00" fill="#000000">MidiIO::ReceiveNoteOffEvent</text>
</g>
<!-- Node259 -->
<g id="node2" class="node">
<title>Node259</title>
<g id="a_node2"><a xlink:href="classMidiIO.html#aef220bcce8b89bea36032298868a919e" target="_top" xlink:title="MidiIO::run_midi_thread">
<polygon fill="#ffffff" stroke="#000000" points="193,-.5 193,-19.5 326,-19.5 326,-.5 193,-.5"/>
<text text-anchor="middle" x="259.5" y="-7.5" font-family="Helvetica,sans-Serif" font-size="10.00" fill="#000000">MidiIO::run_midi_thread</text>
</a>
</g>
</g>
<!-- Node258&#45;&gt;Node259 -->
<g id="edge1" class="edge">
<title>Node258&#45;&gt;Node259</title>
<path fill="none" stroke="#191970" d="M167.2094,-10C175.8461,-10 184.5045,-10 192.8699,-10"/>
<polygon fill="#191970" stroke="#191970" points="167.0996,-6.5001 157.0996,-10 167.0995,-13.5001 167.0996,-6.5001"/>
</g>
<!-- Node260 -->
<g id="node3" class="node">
<title>Node260</title>
<g id="a_node3"><a xlink:href="classMidiIO.html#a222509803679fcf4bcb7b4b4a34cf0cd" target="_top" xlink:title="MidiIO::activate">
<polygon fill="#ffffff" stroke="#000000" points="362,-.5 362,-19.5 455,-19.5 455,-.5 362,-.5"/>
<text text-anchor="middle" x="408.5" y="-7.5" font-family="Helvetica,sans-Serif" font-size="10.00" fill="#000000">MidiIO::activate</text>
</a>
</g>
</g>
<!-- Node259&#45;&gt;Node260 -->
<g id="edge2" class="edge">
<title>Node259&#45;&gt;Node260</title>
<path fill="none" stroke="#191970" d="M336.3918,-10C345.1189,-10 353.8022,-10 361.962,-10"/>
<polygon fill="#191970" stroke="#191970" points="336.1556,-6.5001 326.1555,-10 336.1555,-13.5001 336.1556,-6.5001"/>
</g>
</g>
</svg>
