<?xml version="1.0" encoding="UTF-8" standalone="no"?>
<!DOCTYPE svg PUBLIC "-//W3C//DTD SVG 1.1//EN"
 "http://www.w3.org/Graphics/SVG/1.1/DTD/svg11.dtd">
<!-- Generated by graphviz version 2.40.1 (20161225.0304)
 -->
<!-- Title: RecordProcessor::~RecordProcessor Pages: 1 -->
<svg width="746pt" height="268pt"
 viewBox="0.00 0.00 746.00 267.50" xmlns="http://www.w3.org/2000/svg" xmlns:xlink="http://www.w3.org/1999/xlink">
<g id="graph0" class="graph" transform="scale(1 1) rotate(0) translate(4 263.5)">
<title>RecordProcessor::~RecordProcessor</title>
<polygon fill="#ffffff" stroke="transparent" points="-4,4 -4,-263.5 742,-263.5 742,4 -4,4"/>
<!-- Node62 -->
<g id="node1" class="node">
<title>Node62</title>
<polygon fill="#bfbfbf" stroke="#000000" points="0,-52 0,-82 144,-82 144,-52 0,-52"/>
<text text-anchor="start" x="8" y="-70" font-family="Helvetica,sans-Serif" font-size="10.00" fill="#000000">RecordProcessor::~Record</text>
<text text-anchor="middle" x="72" y="-59" font-family="Helvetica,sans-Serif" font-size="10.00" fill="#000000">Processor</text>
</g>
<!-- Node63 -->
<g id="node2" class="node">
<title>Node63</title>
<g id="a_node2"><a xlink:href="classRecordProcessor.html#a5bce44b8a038567efcf660cfeeae93f4" target="_top" xlink:title="RecordProcessor::AbortRecording">
<polygon fill="#ffffff" stroke="#000000" points="180,-133.5 180,-152.5 357,-152.5 357,-133.5 180,-133.5"/>
<text text-anchor="middle" x="268.5" y="-140.5" font-family="Helvetica,sans-Serif" font-size="10.00" fill="#000000">RecordProcessor::AbortRecording</text>
</a>
</g>
</g>
<!-- Node62&#45;&gt;Node63 -->
<g id="edge1" class="edge">
<title>Node62&#45;&gt;Node63</title>
<path fill="none" stroke="#191970" d="M110.8221,-82.0152C146.7571,-95.9137 199.6816,-116.3832 234.1234,-129.7042"/>
<polygon fill="#191970" stroke="#191970" points="233.1592,-133.0839 243.7484,-133.4269 235.6843,-126.5552 233.1592,-133.0839"/>
</g>
<!-- Node66 -->
<g id="node5" class="node">
<title>Node66</title>
<g id="a_node5"><a xlink:href="classFweelin.html#a600688955c7470a1b7a2fa95ddcc4118" target="_top" xlink:title="Fweelin::getBMG">
<polygon fill="#ffffff" stroke="#000000" points="423.5,-76.5 423.5,-95.5 521.5,-95.5 521.5,-76.5 423.5,-76.5"/>
<text text-anchor="middle" x="472.5" y="-83.5" font-family="Helvetica,sans-Serif" font-size="10.00" fill="#000000">Fweelin::getBMG</text>
</a>
</g>
</g>
<!-- Node62&#45;&gt;Node66 -->
<g id="edge9" class="edge">
<title>Node62&#45;&gt;Node66</title>
<path fill="none" stroke="#191970" d="M144.0639,-70.4188C221.0164,-74.0694 341.5381,-79.7871 413.2015,-83.1868"/>
<polygon fill="#191970" stroke="#191970" points="413.2546,-86.6932 423.4092,-83.6711 413.5864,-79.7011 413.2546,-86.6932"/>
</g>
<!-- Node70 -->
<g id="node9" class="node">
<title>Node70</title>
<g id="a_node9"><a xlink:href="classBlockManager.html#aed9f3464448ad90022bc613002b912f2" target="_top" xlink:title="BlockManager::RefDeleted">
<polygon fill="#ffffff" stroke="#000000" points="195.5,-38.5 195.5,-57.5 341.5,-57.5 341.5,-38.5 195.5,-38.5"/>
<text text-anchor="middle" x="268.5" y="-45.5" font-family="Helvetica,sans-Serif" font-size="10.00" fill="#000000">BlockManager::RefDeleted</text>
</a>
</g>
</g>
<!-- Node62&#45;&gt;Node70 -->
<g id="edge10" class="edge">
<title>Node62&#45;&gt;Node70</title>
<path fill="none" stroke="#191970" d="M144.0536,-60.033C157.4081,-58.7417 171.4591,-57.3831 185.1178,-56.0624"/>
<polygon fill="#191970" stroke="#191970" points="185.8514,-59.5079 195.4681,-55.0616 185.1777,-52.5404 185.8514,-59.5079"/>
</g>
<!-- Node73 -->
<g id="node12" class="node">
<title>Node73</title>
<g id="a_node12"><a xlink:href="classPulse.html#a3251783157dd6440cb94ca966d2de06e" target="_top" xlink:title="Pulse::DelPulseSync">
<polygon fill="#ffffff" stroke="#000000" points="211,-.5 211,-19.5 326,-19.5 326,-.5 211,-.5"/>
<text text-anchor="middle" x="268.5" y="-7.5" font-family="Helvetica,sans-Serif" font-size="10.00" fill="#000000">Pulse::DelPulseSync</text>
</a>
</g>
</g>
<!-- Node62&#45;&gt;Node73 -->
<g id="edge13" class="edge">
<title>Node62&#45;&gt;Node73</title>
<path fill="none" stroke="#191970" d="M110.8617,-51.9827C131.2488,-44.4482 156.7565,-35.5556 180,-29 189.2048,-26.4039 199.0347,-23.9683 208.6723,-21.7637"/>
<polygon fill="#191970" stroke="#191970" points="209.6104,-25.1406 218.6119,-19.5527 208.0905,-18.3076 209.6104,-25.1406"/>
</g>
<!-- Node64 -->
<g id="node3" class="node">
<title>Node64</title>
<g id="a_node3"><a xlink:href="classAudioBlockIterator.html#a48be225cf6283fb66268a832abd89b30" target="_top" xlink:title="AudioBlockIterator\l::Stop">
<polygon fill="#ffffff" stroke="#000000" points="419,-229 419,-259 526,-259 526,-229 419,-229"/>
<text text-anchor="start" x="427" y="-247" font-family="Helvetica,sans-Serif" font-size="10.00" fill="#000000">AudioBlockIterator</text>
<text text-anchor="middle" x="472.5" y="-236" font-family="Helvetica,sans-Serif" font-size="10.00" fill="#000000">::Stop</text>
</a>
</g>
</g>
<!-- Node63&#45;&gt;Node64 -->
<g id="edge2" class="edge">
<title>Node63&#45;&gt;Node64</title>
<path fill="none" stroke="#191970" d="M281.7159,-152.5702C303.8246,-168.2271 350.115,-199.5202 393,-219 398.2322,-221.3766 403.7546,-223.6176 409.3511,-225.7078"/>
<polygon fill="#191970" stroke="#191970" points="408.2069,-229.0156 418.8015,-229.0803 410.5597,-222.4228 408.2069,-229.0156"/>
</g>
<!-- Node65 -->
<g id="node4" class="node">
<title>Node65</title>
<g id="a_node4"><a xlink:href="classPeaksAvgsManager.html#a7d5c60dc637af4095167410c4ae924f4" target="_top" xlink:title="PeaksAvgsManager::End">
<polygon fill="#ffffff" stroke="#000000" points="405,-190.5 405,-209.5 540,-209.5 540,-190.5 405,-190.5"/>
<text text-anchor="middle" x="472.5" y="-197.5" font-family="Helvetica,sans-Serif" font-size="10.00" fill="#000000">PeaksAvgsManager::End</text>
</a>
</g>
</g>
<!-- Node63&#45;&gt;Node65 -->
<g id="edge3" class="edge">
<title>Node63&#45;&gt;Node65</title>
<path fill="none" stroke="#191970" d="M298.0343,-152.5763C323.1671,-160.5901 360.2886,-172.1081 393,-181 401.8497,-183.4056 411.2976,-185.8075 420.4777,-188.0542"/>
<polygon fill="#191970" stroke="#191970" points="419.7509,-191.4792 430.293,-190.424 421.3938,-184.6747 419.7509,-191.4792"/>
</g>
<!-- Node63&#45;&gt;Node66 -->
<g id="edge4" class="edge">
<title>Node63&#45;&gt;Node66</title>
<path fill="none" stroke="#191970" d="M298.0343,-133.4237C323.1671,-125.4099 360.2886,-113.8919 393,-105 401.8497,-102.5944 411.2976,-100.1925 420.4777,-97.9458"/>
<polygon fill="#191970" stroke="#191970" points="421.3938,-101.3253 430.293,-95.576 419.7509,-94.5208 421.3938,-101.3253"/>
</g>
<!-- Node67 -->
<g id="node6" class="node">
<title>Node67</title>
<g id="a_node6"><a xlink:href="classBlockManager.html#a7380825963fc62c90186a0b3c72e8d89" target="_top" xlink:title="BlockManager::PeakAvgOff">
<polygon fill="#ffffff" stroke="#000000" points="398.5,-152.5 398.5,-171.5 546.5,-171.5 546.5,-152.5 398.5,-152.5"/>
<text text-anchor="middle" x="472.5" y="-159.5" font-family="Helvetica,sans-Serif" font-size="10.00" fill="#000000">BlockManager::PeakAvgOff</text>
</a>
</g>
</g>
<!-- Node63&#45;&gt;Node67 -->
<g id="edge5" class="edge">
<title>Node63&#45;&gt;Node67</title>
<path fill="none" stroke="#191970" d="M357.0874,-151.2508C367.41,-152.2122 377.9191,-153.191 388.1818,-154.1468"/>
<polygon fill="#191970" stroke="#191970" points="388.0649,-157.651 398.3464,-155.0935 388.7141,-150.6812 388.0649,-157.651"/>
</g>
<!-- Node69 -->
<g id="node8" class="node">
<title>Node69</title>
<g id="a_node8"><a xlink:href="classBlockManager.html#add099506b29910e9dabdab9f6a1af92f" target="_top" xlink:title="BlockManager::GrowChainOff">
<polygon fill="#ffffff" stroke="#000000" points="393,-114.5 393,-133.5 552,-133.5 552,-114.5 393,-114.5"/>
<text text-anchor="middle" x="472.5" y="-121.5" font-family="Helvetica,sans-Serif" font-size="10.00" fill="#000000">BlockManager::GrowChainOff</text>
</a>
</g>
</g>
<!-- Node63&#45;&gt;Node69 -->
<g id="edge7" class="edge">
<title>Node63&#45;&gt;Node69</title>
<path fill="none" stroke="#191970" d="M357.0874,-134.7492C365.666,-133.9502 374.3734,-133.1392 382.9613,-132.3394"/>
<polygon fill="#191970" stroke="#191970" points="383.3405,-135.8193 392.9728,-131.4069 382.6913,-128.8495 383.3405,-135.8193"/>
</g>
<!-- Node68 -->
<g id="node7" class="node">
<title>Node68</title>
<g id="a_node7"><a xlink:href="classBlockManager.html#ae59dae7f7f6572b004dcdacc740204ac" target="_top" xlink:title="BlockManager::DelManager">
<polygon fill="#ffffff" stroke="#000000" points="588,-133.5 588,-152.5 738,-152.5 738,-133.5 588,-133.5"/>
<text text-anchor="middle" x="663" y="-140.5" font-family="Helvetica,sans-Serif" font-size="10.00" fill="#000000">BlockManager::DelManager</text>
</a>
</g>
</g>
<!-- Node67&#45;&gt;Node68 -->
<g id="edge6" class="edge">
<title>Node67&#45;&gt;Node68</title>
<path fill="none" stroke="#191970" d="M546.6978,-154.5997C556.8053,-153.5916 567.2459,-152.5503 577.5326,-151.5243"/>
<polygon fill="#191970" stroke="#191970" points="578.1467,-154.9805 587.75,-150.5053 577.4519,-148.0151 578.1467,-154.9805"/>
</g>
<!-- Node69&#45;&gt;Node68 -->
<g id="edge8" class="edge">
<title>Node69&#45;&gt;Node68</title>
<path fill="none" stroke="#191970" d="M552.1854,-131.9476C560.686,-132.7955 569.3567,-133.6602 577.9165,-134.514"/>
<polygon fill="#191970" stroke="#191970" points="577.5994,-137.9996 587.8974,-135.5094 578.2941,-131.0342 577.5994,-137.9996"/>
</g>
<!-- Node71 -->
<g id="node10" class="node">
<title>Node71</title>
<g id="a_node10"><a xlink:href="classBlockManager.html#ac251e0ace481edc4b8da20dca37472a6" target="_top" xlink:title="BlockManager::HiRefDeleted">
<polygon fill="#ffffff" stroke="#000000" points="394.5,-38.5 394.5,-57.5 550.5,-57.5 550.5,-38.5 394.5,-38.5"/>
<text text-anchor="middle" x="472.5" y="-45.5" font-family="Helvetica,sans-Serif" font-size="10.00" fill="#000000">BlockManager::HiRefDeleted</text>
</a>
</g>
</g>
<!-- Node70&#45;&gt;Node71 -->
<g id="edge11" class="edge">
<title>Node70&#45;&gt;Node71</title>
<path fill="none" stroke="#191970" d="M341.5725,-48C355.3722,-48 369.9419,-48 384.1517,-48"/>
<polygon fill="#191970" stroke="#191970" points="384.4189,-51.5001 394.4189,-48 384.4189,-44.5001 384.4189,-51.5001"/>
</g>
<!-- Node72 -->
<g id="node11" class="node">
<title>Node72</title>
<g id="a_node11"><a xlink:href="classHiPriManagedChain.html#ac1e45103a45f1dc90be396aeb8c226eb" target="_top" xlink:title="HiPriManagedChain::\lRefDeleted">
<polygon fill="#ffffff" stroke="#000000" points="604,-33 604,-63 722,-63 722,-33 604,-33"/>
<text text-anchor="start" x="612" y="-51" font-family="Helvetica,sans-Serif" font-size="10.00" fill="#000000">HiPriManagedChain::</text>
<text text-anchor="middle" x="663" y="-40" font-family="Helvetica,sans-Serif" font-size="10.00" fill="#000000">RefDeleted</text>
</a>
</g>
</g>
<!-- Node71&#45;&gt;Node72 -->
<g id="edge12" class="edge">
<title>Node71&#45;&gt;Node72</title>
<path fill="none" stroke="#191970" d="M550.5333,-48C564.8375,-48 579.6776,-48 593.7047,-48"/>
<polygon fill="#191970" stroke="#191970" points="593.7557,-51.5001 603.7556,-48 593.7556,-44.5001 593.7557,-51.5001"/>
</g>
</g>
</svg>
