<?xml version="1.0" encoding="UTF-8" standalone="no"?>
<!DOCTYPE svg PUBLIC "-//W3C//DTD SVG 1.1//EN"
 "http://www.w3.org/Graphics/SVG/1.1/DTD/svg11.dtd">
<!-- Generated by graphviz version 2.40.1 (20161225.0304)
 -->
<!-- Title: MemoryManager::ProcessQueue Pages: 1 -->
<svg width="559pt" height="39pt"
 viewBox="0.00 0.00 559.00 39.00" xmlns="http://www.w3.org/2000/svg" xmlns:xlink="http://www.w3.org/1999/xlink">
<g id="graph0" class="graph" transform="scale(1 1) rotate(0) translate(4 35)">
<title>MemoryManager::ProcessQueue</title>
<polygon fill="#ffffff" stroke="transparent" points="-4,4 -4,-35 555,-35 555,4 -4,4"/>
<!-- Node38 -->
<g id="node1" class="node">
<title>Node38</title>
<polygon fill="#bfbfbf" stroke="#000000" points="0,-6 0,-25 173,-25 173,-6 0,-6"/>
<text text-anchor="middle" x="86.5" y="-13" font-family="Helvetica,sans-Serif" font-size="10.00" fill="#000000">MemoryManager::ProcessQueue</text>
</g>
<!-- Node39 -->
<g id="node2" class="node">
<title>Node39</title>
<g id="a_node2"><a xlink:href="classMemoryManager.html#a8db8172ce6d7ac082b38a28af3394b72" target="_top" xlink:title="MemoryManager::run\l_mgr_thread">
<polygon fill="#ffffff" stroke="#000000" points="209,-.5 209,-30.5 329,-30.5 329,-.5 209,-.5"/>
<text text-anchor="start" x="217" y="-18.5" font-family="Helvetica,sans-Serif" font-size="10.00" fill="#000000">MemoryManager::run</text>
<text text-anchor="middle" x="269" y="-7.5" font-family="Helvetica,sans-Serif" font-size="10.00" fill="#000000">_mgr_thread</text>
</a>
</g>
</g>
<!-- Node38&#45;&gt;Node39 -->
<g id="edge1" class="edge">
<title>Node38&#45;&gt;Node39</title>
<path fill="none" stroke="#191970" d="M183.3788,-15.5C192.0331,-15.5 200.6196,-15.5 208.8254,-15.5"/>
<polygon fill="#191970" stroke="#191970" points="183.207,-12.0001 173.207,-15.5 183.207,-19.0001 183.207,-12.0001"/>
</g>
<!-- Node40 -->
<g id="node3" class="node">
<title>Node40</title>
<g id="a_node3"><a xlink:href="classMemoryManager.html#ae925e8ad4d8fe6f0565e9d5729f59593" target="_top" xlink:title="MemoryManager::MemoryManager">
<polygon fill="#ffffff" stroke="#000000" points="365,-6 365,-25 551,-25 551,-6 365,-6"/>
<text text-anchor="middle" x="458" y="-13" font-family="Helvetica,sans-Serif" font-size="10.00" fill="#000000">MemoryManager::MemoryManager</text>
</a>
</g>
</g>
<!-- Node39&#45;&gt;Node40 -->
<g id="edge2" class="edge">
<title>Node39&#45;&gt;Node40</title>
<path fill="none" stroke="#191970" d="M339.1727,-15.5C347.5915,-15.5 356.2867,-15.5 364.9653,-15.5"/>
<polygon fill="#191970" stroke="#191970" points="339.0605,-12.0001 329.0605,-15.5 339.0604,-19.0001 339.0605,-12.0001"/>
</g>
</g>
</svg>
