<?xml version="1.0" encoding="UTF-8" standalone="no"?>
<!DOCTYPE svg PUBLIC "-//W3C//DTD SVG 1.1//EN"
 "http://www.w3.org/Graphics/SVG/1.1/DTD/svg11.dtd">
<!-- Generated by graphviz version 2.40.1 (20161225.0304)
 -->
<!-- Title: RecordProcessor::EndNow Pages: 1 -->
<svg width="766pt" height="534pt"
 viewBox="0.00 0.00 766.00 534.00" xmlns="http://www.w3.org/2000/svg" xmlns:xlink="http://www.w3.org/1999/xlink">
<g id="graph0" class="graph" transform="scale(1 1) rotate(0) translate(4 530)">
<title>RecordProcessor::EndNow</title>
<polygon fill="#ffffff" stroke="transparent" points="-4,4 -4,-530 762,-530 762,4 -4,4"/>
<!-- Node120 -->
<g id="node1" class="node">
<title>Node120</title>
<polygon fill="#bfbfbf" stroke="#000000" points="0,-304.5 0,-323.5 143,-323.5 143,-304.5 0,-304.5"/>
<text text-anchor="middle" x="71.5" y="-311.5" font-family="Helvetica,sans-Serif" font-size="10.00" fill="#000000">RecordProcessor::EndNow</text>
</g>
<!-- Node121 -->
<g id="node2" class="node">
<title>Node121</title>
<g id="a_node2"><a xlink:href="classEvent.html#aa67af0ae99b897e4f0ce42068c4e4c00" target="_top" xlink:title="Event::GetEventByType">
<polygon fill="#ffffff" stroke="#000000" points="202,-506.5 202,-525.5 333,-525.5 333,-506.5 202,-506.5"/>
<text text-anchor="middle" x="267.5" y="-513.5" font-family="Helvetica,sans-Serif" font-size="10.00" fill="#000000">Event::GetEventByType</text>
</a>
</g>
</g>
<!-- Node120&#45;&gt;Node121 -->
<g id="edge1" class="edge">
<title>Node120&#45;&gt;Node121</title>
<path fill="none" stroke="#191970" d="M74.195,-323.8649C83.2075,-354.8747 115.3787,-451.0426 179,-497 183.0087,-499.8957 187.3692,-502.3667 191.9343,-504.4734"/>
<polygon fill="#191970" stroke="#191970" points="190.9601,-507.8529 201.5453,-508.3059 193.553,-501.3508 190.9601,-507.8529"/>
</g>
<!-- Node122 -->
<g id="node3" class="node">
<title>Node122</title>
<g id="a_node3"><a xlink:href="classAudioBlockIterator.html#afdaa1beeae81dbfb277fae51bee42ca0" target="_top" xlink:title="AudioBlockIterator\l::GetTotalLength2Cur">
<polygon fill="#ffffff" stroke="#000000" points="208,-457 208,-487 327,-487 327,-457 208,-457"/>
<text text-anchor="start" x="216" y="-475" font-family="Helvetica,sans-Serif" font-size="10.00" fill="#000000">AudioBlockIterator</text>
<text text-anchor="middle" x="267.5" y="-464" font-family="Helvetica,sans-Serif" font-size="10.00" fill="#000000">::GetTotalLength2Cur</text>
</a>
</g>
</g>
<!-- Node120&#45;&gt;Node122 -->
<g id="edge2" class="edge">
<title>Node120&#45;&gt;Node122</title>
<path fill="none" stroke="#191970" d="M76.9546,-323.5635C90.8807,-347.1484 130.1242,-408.5962 179,-442 185.0775,-446.1537 191.781,-449.7774 198.6975,-452.9285"/>
<polygon fill="#191970" stroke="#191970" points="197.6478,-456.284 208.2224,-456.9379 200.3636,-449.8323 197.6478,-456.284"/>
</g>
<!-- Node123 -->
<g id="node4" class="node">
<title>Node123</title>
<g id="a_node4"><a xlink:href="classRecordProcessor.html#a5bce44b8a038567efcf660cfeeae93f4" target="_top" xlink:title="RecordProcessor::AbortRecording">
<polygon fill="#ffffff" stroke="#000000" points="179,-342.5 179,-361.5 356,-361.5 356,-342.5 179,-342.5"/>
<text text-anchor="middle" x="267.5" y="-349.5" font-family="Helvetica,sans-Serif" font-size="10.00" fill="#000000">RecordProcessor::AbortRecording</text>
</a>
</g>
</g>
<!-- Node120&#45;&gt;Node123 -->
<g id="edge3" class="edge">
<title>Node120&#45;&gt;Node123</title>
<path fill="none" stroke="#191970" d="M120.7061,-323.54C147.2674,-328.6896 180.2491,-335.084 208.2175,-340.5065"/>
<polygon fill="#191970" stroke="#191970" points="207.7903,-343.9887 218.2737,-342.4561 209.1227,-337.1167 207.7903,-343.9887"/>
</g>
<!-- Node125 -->
<g id="node6" class="node">
<title>Node125</title>
<g id="a_node6"><a xlink:href="classPeaksAvgsManager.html#a7d5c60dc637af4095167410c4ae924f4" target="_top" xlink:title="PeaksAvgsManager::End">
<polygon fill="#ffffff" stroke="#000000" points="412.5,-430.5 412.5,-449.5 547.5,-449.5 547.5,-430.5 412.5,-430.5"/>
<text text-anchor="middle" x="480" y="-437.5" font-family="Helvetica,sans-Serif" font-size="10.00" fill="#000000">PeaksAvgsManager::End</text>
</a>
</g>
</g>
<!-- Node120&#45;&gt;Node125 -->
<g id="edge25" class="edge">
<title>Node120&#45;&gt;Node125</title>
<path fill="none" stroke="#191970" d="M80.1498,-323.6438C97.1023,-341.8409 136.745,-381.0246 179,-399 250.6007,-429.4591 339.6461,-438.4278 402.2475,-440.56"/>
<polygon fill="#191970" stroke="#191970" points="402.3521,-444.0644 412.4492,-440.855 402.5546,-437.0673 402.3521,-444.0644"/>
</g>
<!-- Node126 -->
<g id="node7" class="node">
<title>Node126</title>
<g id="a_node7"><a xlink:href="classFweelin.html#a600688955c7470a1b7a2fa95ddcc4118" target="_top" xlink:title="Fweelin::getBMG">
<polygon fill="#ffffff" stroke="#000000" points="431,-392.5 431,-411.5 529,-411.5 529,-392.5 431,-392.5"/>
<text text-anchor="middle" x="480" y="-399.5" font-family="Helvetica,sans-Serif" font-size="10.00" fill="#000000">Fweelin::getBMG</text>
</a>
</g>
</g>
<!-- Node120&#45;&gt;Node126 -->
<g id="edge14" class="edge">
<title>Node120&#45;&gt;Node126</title>
<path fill="none" stroke="#191970" d="M85.3382,-323.6046C105.1051,-336.7791 143.0237,-360.0647 179,-371 260.2489,-395.6963 358.9037,-401.5643 420.5876,-402.5351"/>
<polygon fill="#191970" stroke="#191970" points="420.8707,-406.0386 430.9114,-402.6572 420.9535,-399.0391 420.8707,-406.0386"/>
</g>
<!-- Node127 -->
<g id="node8" class="node">
<title>Node127</title>
<g id="a_node8"><a xlink:href="classBlockManager.html#a7380825963fc62c90186a0b3c72e8d89" target="_top" xlink:title="BlockManager::PeakAvgOff">
<polygon fill="#ffffff" stroke="#000000" points="406,-304.5 406,-323.5 554,-323.5 554,-304.5 406,-304.5"/>
<text text-anchor="middle" x="480" y="-311.5" font-family="Helvetica,sans-Serif" font-size="10.00" fill="#000000">BlockManager::PeakAvgOff</text>
</a>
</g>
</g>
<!-- Node120&#45;&gt;Node127 -->
<g id="edge26" class="edge">
<title>Node120&#45;&gt;Node127</title>
<path fill="none" stroke="#191970" d="M143.1227,-314C213.493,-314 320.8674,-314 395.4039,-314"/>
<polygon fill="#191970" stroke="#191970" points="395.6962,-317.5001 405.6962,-314 395.6961,-310.5001 395.6962,-317.5001"/>
</g>
<!-- Node129 -->
<g id="node10" class="node">
<title>Node129</title>
<g id="a_node10"><a xlink:href="classBlockManager.html#add099506b29910e9dabdab9f6a1af92f" target="_top" xlink:title="BlockManager::GrowChainOff">
<polygon fill="#ffffff" stroke="#000000" points="400.5,-266.5 400.5,-285.5 559.5,-285.5 559.5,-266.5 400.5,-266.5"/>
<text text-anchor="middle" x="480" y="-273.5" font-family="Helvetica,sans-Serif" font-size="10.00" fill="#000000">BlockManager::GrowChainOff</text>
</a>
</g>
</g>
<!-- Node120&#45;&gt;Node129 -->
<g id="edge15" class="edge">
<title>Node120&#45;&gt;Node129</title>
<path fill="none" stroke="#191970" d="M143.1227,-307.3374C211.854,-300.9438 315.8856,-291.2665 390.1431,-284.3588"/>
<polygon fill="#191970" stroke="#191970" points="390.784,-287.8144 400.4168,-283.4031 390.1355,-280.8445 390.784,-287.8144"/>
</g>
<!-- Node130 -->
<g id="node11" class="node">
<title>Node130</title>
<g id="a_node11"><a xlink:href="classAudioBlockIterator.html#a33e1c3a6381e3c0ba5dd129885509eb3" target="_top" xlink:title="AudioBlockIterator\l::EndChain">
<polygon fill="#ffffff" stroke="#000000" points="214,-217 214,-247 321,-247 321,-217 214,-217"/>
<text text-anchor="start" x="222" y="-235" font-family="Helvetica,sans-Serif" font-size="10.00" fill="#000000">AudioBlockIterator</text>
<text text-anchor="middle" x="267.5" y="-224" font-family="Helvetica,sans-Serif" font-size="10.00" fill="#000000">::EndChain</text>
</a>
</g>
</g>
<!-- Node120&#45;&gt;Node130 -->
<g id="edge11" class="edge">
<title>Node120&#45;&gt;Node130</title>
<path fill="none" stroke="#191970" d="M89.4489,-304.4699C110.5443,-293.4691 146.7682,-275.1994 179,-262 188.7844,-257.9931 199.3227,-254.0821 209.5969,-250.4778"/>
<polygon fill="#191970" stroke="#191970" points="211.019,-253.6898 219.3333,-247.1229 208.7386,-247.0716 211.019,-253.6898"/>
</g>
<!-- Node133 -->
<g id="node14" class="node">
<title>Node133</title>
<g id="a_node14"><a xlink:href="classAudioBlock.html#a09c778d19d7d45dbb68951fabff2f518" target="_top" xlink:title="AudioBlock::Smooth">
<polygon fill="#ffffff" stroke="#000000" points="210,-165.5 210,-184.5 325,-184.5 325,-165.5 210,-165.5"/>
<text text-anchor="middle" x="267.5" y="-172.5" font-family="Helvetica,sans-Serif" font-size="10.00" fill="#000000">AudioBlock::Smooth</text>
</a>
</g>
</g>
<!-- Node120&#45;&gt;Node133 -->
<g id="edge16" class="edge">
<title>Node120&#45;&gt;Node133</title>
<path fill="none" stroke="#191970" d="M78.8155,-304.439C94.8653,-284.0528 135.2426,-235.9018 179,-208 192.0313,-199.6906 207.463,-193.0267 221.7613,-187.9229"/>
<polygon fill="#191970" stroke="#191970" points="223.0921,-191.1674 231.4356,-184.6378 220.8412,-184.5391 223.0921,-191.1674"/>
</g>
<!-- Node139 -->
<g id="node20" class="node">
<title>Node139</title>
<g id="a_node20"><a xlink:href="classFweelin.html#a21e51d7b639faaecc415624ab6c16a71" target="_top" xlink:title="Fweelin::getEMG">
<polygon fill="#ffffff" stroke="#000000" points="218.5,-127.5 218.5,-146.5 316.5,-146.5 316.5,-127.5 218.5,-127.5"/>
<text text-anchor="middle" x="267.5" y="-134.5" font-family="Helvetica,sans-Serif" font-size="10.00" fill="#000000">Fweelin::getEMG</text>
</a>
</g>
</g>
<!-- Node120&#45;&gt;Node139 -->
<g id="edge27" class="edge">
<title>Node120&#45;&gt;Node139</title>
<path fill="none" stroke="#191970" d="M75.0667,-304.2973C85.89,-276.301 121.1999,-194.9032 179,-156 187.7927,-150.0819 198.0952,-145.9634 208.5016,-143.107"/>
<polygon fill="#191970" stroke="#191970" points="209.546,-146.4563 218.4649,-140.7375 207.9264,-139.6462 209.546,-146.4563"/>
</g>
<!-- Node140 -->
<g id="node21" class="node">
<title>Node140</title>
<g id="a_node21"><a xlink:href="classEventManager.html#ac7c4b4ceee333a360274d73d166b8c69" target="_top" xlink:title="EventManager::BroadcastEvent">
<polygon fill="#ffffff" stroke="#000000" points="183,-38.5 183,-57.5 352,-57.5 352,-38.5 183,-38.5"/>
<text text-anchor="middle" x="267.5" y="-45.5" font-family="Helvetica,sans-Serif" font-size="10.00" fill="#000000">EventManager::BroadcastEvent</text>
</a>
</g>
</g>
<!-- Node120&#45;&gt;Node140 -->
<g id="edge28" class="edge">
<title>Node120&#45;&gt;Node140</title>
<path fill="none" stroke="#191970" d="M75.2289,-304.1895C87.022,-274.0171 125.8933,-180.8424 179,-118 197.6659,-95.9122 224.2326,-76.0216 243.3814,-63.1389"/>
<polygon fill="#191970" stroke="#191970" points="245.427,-65.9827 251.8602,-57.5646 241.5815,-60.1336 245.427,-65.9827"/>
</g>
<!-- Node124 -->
<g id="node5" class="node">
<title>Node124</title>
<g id="a_node5"><a xlink:href="classAudioBlockIterator.html#a48be225cf6283fb66268a832abd89b30" target="_top" xlink:title="AudioBlockIterator\l::Stop">
<polygon fill="#ffffff" stroke="#000000" points="426.5,-343 426.5,-373 533.5,-373 533.5,-343 426.5,-343"/>
<text text-anchor="start" x="434.5" y="-361" font-family="Helvetica,sans-Serif" font-size="10.00" fill="#000000">AudioBlockIterator</text>
<text text-anchor="middle" x="480" y="-350" font-family="Helvetica,sans-Serif" font-size="10.00" fill="#000000">::Stop</text>
</a>
</g>
</g>
<!-- Node123&#45;&gt;Node124 -->
<g id="edge4" class="edge">
<title>Node123&#45;&gt;Node124</title>
<path fill="none" stroke="#191970" d="M356.0804,-354.5011C376.3523,-355.0735 397.5071,-355.6708 416.4805,-356.2065"/>
<polygon fill="#191970" stroke="#191970" points="416.3864,-359.7052 426.4813,-356.4889 416.5841,-352.7079 416.3864,-359.7052"/>
</g>
<!-- Node123&#45;&gt;Node125 -->
<g id="edge5" class="edge">
<title>Node123&#45;&gt;Node125</title>
<path fill="none" stroke="#191970" d="M281.4038,-361.5092C303.7398,-376.3597 349.4342,-405.0092 392,-421 399.0197,-423.6371 406.499,-425.9531 414.0191,-427.9757"/>
<polygon fill="#191970" stroke="#191970" points="413.3408,-431.4142 423.8933,-430.4679 415.054,-424.627 413.3408,-431.4142"/>
</g>
<!-- Node123&#45;&gt;Node126 -->
<g id="edge6" class="edge">
<title>Node123&#45;&gt;Node126</title>
<path fill="none" stroke="#191970" d="M304.4712,-361.5286C329.1999,-367.8223 362.4929,-376.1428 392,-383 402.3833,-385.413 413.4802,-387.8889 424.1733,-390.2228"/>
<polygon fill="#191970" stroke="#191970" points="423.7509,-393.7125 434.2654,-392.4104 425.2338,-386.8713 423.7509,-393.7125"/>
</g>
<!-- Node123&#45;&gt;Node127 -->
<g id="edge7" class="edge">
<title>Node123&#45;&gt;Node127</title>
<path fill="none" stroke="#191970" d="M320.8484,-342.46C349.8984,-337.2652 386.0319,-330.8037 416.5236,-325.3511"/>
<polygon fill="#191970" stroke="#191970" points="417.4019,-328.7496 426.6296,-323.5439 416.1696,-321.8589 417.4019,-328.7496"/>
</g>
<!-- Node123&#45;&gt;Node129 -->
<g id="edge9" class="edge">
<title>Node123&#45;&gt;Node129</title>
<path fill="none" stroke="#191970" d="M285.1485,-342.434C308.8399,-329.9422 352.5236,-308.1257 392,-295 399.9951,-292.3417 408.5251,-289.9604 417.0101,-287.8574"/>
<polygon fill="#191970" stroke="#191970" points="417.9885,-291.2227 426.9155,-285.5166 416.3786,-284.4103 417.9885,-291.2227"/>
</g>
<!-- Node128 -->
<g id="node9" class="node">
<title>Node128</title>
<g id="a_node9"><a xlink:href="classBlockManager.html#ae59dae7f7f6572b004dcdacc740204ac" target="_top" xlink:title="BlockManager::DelManager">
<polygon fill="#ffffff" stroke="#000000" points="606,-267.5 606,-286.5 756,-286.5 756,-267.5 606,-267.5"/>
<text text-anchor="middle" x="681" y="-274.5" font-family="Helvetica,sans-Serif" font-size="10.00" fill="#000000">BlockManager::DelManager</text>
</a>
</g>
</g>
<!-- Node127&#45;&gt;Node128 -->
<g id="edge8" class="edge">
<title>Node127&#45;&gt;Node128</title>
<path fill="none" stroke="#191970" d="M531.7625,-304.4716C558.3866,-299.5706 591.0319,-293.5613 618.9939,-288.4141"/>
<polygon fill="#191970" stroke="#191970" points="619.8629,-291.813 629.064,-286.5604 618.5955,-284.9287 619.8629,-291.813"/>
</g>
<!-- Node129&#45;&gt;Node128 -->
<g id="edge10" class="edge">
<title>Node129&#45;&gt;Node128</title>
<path fill="none" stroke="#191970" d="M559.7292,-276.3967C571.5126,-276.4553 583.6944,-276.5159 595.5877,-276.5751"/>
<polygon fill="#191970" stroke="#191970" points="595.9306,-280.0767 605.9479,-276.6266 595.9655,-273.0768 595.9306,-280.0767"/>
</g>
<!-- Node131 -->
<g id="node12" class="node">
<title>Node131</title>
<g id="a_node12"><a xlink:href="classAudioBlock.html#a1577ddd5048ce06dbddfae7702b35c81" target="_top" xlink:title="AudioBlock::ChopChain">
<polygon fill="#ffffff" stroke="#000000" points="415,-228.5 415,-247.5 545,-247.5 545,-228.5 415,-228.5"/>
<text text-anchor="middle" x="480" y="-235.5" font-family="Helvetica,sans-Serif" font-size="10.00" fill="#000000">AudioBlock::ChopChain</text>
</a>
</g>
</g>
<!-- Node130&#45;&gt;Node131 -->
<g id="edge12" class="edge">
<title>Node130&#45;&gt;Node131</title>
<path fill="none" stroke="#191970" d="M321.1227,-233.5141C346.4182,-234.2283 377.0378,-235.0928 404.6185,-235.8716"/>
<polygon fill="#191970" stroke="#191970" points="404.532,-239.3704 414.6268,-236.1542 404.7296,-232.3732 404.532,-239.3704"/>
</g>
<!-- Node132 -->
<g id="node13" class="node">
<title>Node132</title>
<g id="a_node13"><a xlink:href="classPreallocated.html#aaf2139a79ca16de70acd9bc4564171b7" target="_top" xlink:title="Preallocated::RTDelete">
<polygon fill="#ffffff" stroke="#000000" points="617,-226.5 617,-245.5 745,-245.5 745,-226.5 617,-226.5"/>
<text text-anchor="middle" x="681" y="-233.5" font-family="Helvetica,sans-Serif" font-size="10.00" fill="#000000">Preallocated::RTDelete</text>
</a>
</g>
</g>
<!-- Node131&#45;&gt;Node132 -->
<g id="edge13" class="edge">
<title>Node131&#45;&gt;Node132</title>
<path fill="none" stroke="#191970" d="M545.2589,-237.3507C564.8715,-237.1555 586.5342,-236.94 606.6868,-236.7394"/>
<polygon fill="#191970" stroke="#191970" points="606.79,-240.2387 616.7546,-236.6393 606.7202,-233.239 606.79,-240.2387"/>
</g>
<!-- Node134 -->
<g id="node15" class="node">
<title>Node134</title>
<g id="a_node15"><a xlink:href="classAudioBlock.html#a380880c91c3af2322d232ce2de83b881" target="_top" xlink:title="AudioBlock::GetTotalLen">
<polygon fill="#ffffff" stroke="#000000" points="613.5,-183.5 613.5,-202.5 748.5,-202.5 748.5,-183.5 613.5,-183.5"/>
<text text-anchor="middle" x="681" y="-190.5" font-family="Helvetica,sans-Serif" font-size="10.00" fill="#000000">AudioBlock::GetTotalLen</text>
</a>
</g>
</g>
<!-- Node133&#45;&gt;Node134 -->
<g id="edge17" class="edge">
<title>Node133&#45;&gt;Node134</title>
<path fill="none" stroke="#191970" d="M325.1686,-174.6842C385.7084,-174.6963 483.6346,-175.688 568,-181 579.3452,-181.7143 591.3081,-182.7151 603.0357,-183.837"/>
<polygon fill="#191970" stroke="#191970" points="602.9634,-187.3469 613.2598,-184.8501 603.6537,-180.381 602.9634,-187.3469"/>
</g>
<!-- Node135 -->
<g id="node16" class="node">
<title>Node135</title>
<g id="a_node16"><a xlink:href="classAudioBlock.html#a4f53140535b4c56db4c5360f3fb9eb7d" target="_top" xlink:title="AudioBlock::SetPtrsFromAbs\lOffset">
<polygon fill="#ffffff" stroke="#000000" points="604,-124 604,-154 758,-154 758,-124 604,-124"/>
<text text-anchor="start" x="612" y="-142" font-family="Helvetica,sans-Serif" font-size="10.00" fill="#000000">AudioBlock::SetPtrsFromAbs</text>
<text text-anchor="middle" x="681" y="-131" font-family="Helvetica,sans-Serif" font-size="10.00" fill="#000000">Offset</text>
</a>
</g>
</g>
<!-- Node133&#45;&gt;Node135 -->
<g id="edge18" class="edge">
<title>Node133&#45;&gt;Node135</title>
<path fill="none" stroke="#191970" d="M325.4308,-169.9564C395.1312,-163.8882 512.8356,-153.6407 593.5949,-146.6096"/>
<polygon fill="#191970" stroke="#191970" points="594.089,-150.08 603.7477,-145.7257 593.4818,-143.1063 594.089,-150.08"/>
</g>
<!-- Node136 -->
<g id="node17" class="node">
<title>Node136</title>
<g id="a_node17"><a xlink:href="classAudioBlock.html#ae7aec1591ed6f228799c11b650b2cc1b" target="_top" xlink:title="AudioBlock::GetExtendedData">
<polygon fill="#ffffff" stroke="#000000" points="398,-76.5 398,-95.5 562,-95.5 562,-76.5 398,-76.5"/>
<text text-anchor="middle" x="480" y="-83.5" font-family="Helvetica,sans-Serif" font-size="10.00" fill="#000000">AudioBlock::GetExtendedData</text>
</a>
</g>
</g>
<!-- Node133&#45;&gt;Node136 -->
<g id="edge19" class="edge">
<title>Node133&#45;&gt;Node136</title>
<path fill="none" stroke="#191970" d="M325.4639,-168.6037C336.1418,-165.783 346.808,-161.7516 356,-156 378.0078,-142.2293 370.3775,-124.3681 392,-110 398.7513,-105.5138 406.321,-101.8621 414.1119,-98.8905"/>
<polygon fill="#191970" stroke="#191970" points="415.37,-102.1591 423.6847,-95.5928 413.09,-95.5407 415.37,-102.1591"/>
</g>
<!-- Node138 -->
<g id="node19" class="node">
<title>Node138</title>
<g id="a_node19"><a xlink:href="classAudioBlock.html#aa9e0bc3fa297c7c97aedda16f240108f" target="_top" xlink:title="AudioBlock::HackTotalLengthBy">
<polygon fill="#ffffff" stroke="#000000" points="394.5,-190.5 394.5,-209.5 565.5,-209.5 565.5,-190.5 394.5,-190.5"/>
<text text-anchor="middle" x="480" y="-197.5" font-family="Helvetica,sans-Serif" font-size="10.00" fill="#000000">AudioBlock::HackTotalLengthBy</text>
</a>
</g>
</g>
<!-- Node133&#45;&gt;Node138 -->
<g id="edge21" class="edge">
<title>Node133&#45;&gt;Node138</title>
<path fill="none" stroke="#191970" d="M325.0056,-181.7654C344.636,-184.0748 367.1007,-186.7177 388.7215,-189.2613"/>
<polygon fill="#191970" stroke="#191970" points="388.5752,-192.7682 398.9157,-190.4607 389.3931,-185.8161 388.5752,-192.7682"/>
</g>
<!-- Node137 -->
<g id="node18" class="node">
<title>Node137</title>
<g id="a_node18"><a xlink:href="classBlockExtendedData.html#ae33e9550384a32abf2a91386334a2be9" target="_top" xlink:title="BlockExtendedData::\lGetType">
<polygon fill="#ffffff" stroke="#000000" points="621.5,-71 621.5,-101 740.5,-101 740.5,-71 621.5,-71"/>
<text text-anchor="start" x="629.5" y="-89" font-family="Helvetica,sans-Serif" font-size="10.00" fill="#000000">BlockExtendedData::</text>
<text text-anchor="middle" x="681" y="-78" font-family="Helvetica,sans-Serif" font-size="10.00" fill="#000000">GetType</text>
</a>
</g>
</g>
<!-- Node136&#45;&gt;Node137 -->
<g id="edge20" class="edge">
<title>Node136&#45;&gt;Node137</title>
<path fill="none" stroke="#191970" d="M562.0443,-86C578.3398,-86 595.3058,-86 611.1481,-86"/>
<polygon fill="#191970" stroke="#191970" points="611.3782,-89.5001 621.3782,-86 611.3782,-82.5001 611.3782,-89.5001"/>
</g>
<!-- Node138&#45;&gt;Node132 -->
<g id="edge24" class="edge">
<title>Node138&#45;&gt;Node132</title>
<path fill="none" stroke="#191970" d="M533.0733,-209.5057C558.9599,-214.1421 590.2935,-219.7541 617.4469,-224.6173"/>
<polygon fill="#191970" stroke="#191970" points="617.1685,-228.1231 627.6289,-226.441 618.4026,-221.2328 617.1685,-228.1231"/>
</g>
<!-- Node138&#45;&gt;Node134 -->
<g id="edge22" class="edge">
<title>Node138&#45;&gt;Node134</title>
<path fill="none" stroke="#191970" d="M565.5336,-197.0212C578.055,-196.5851 590.8935,-196.138 603.248,-195.7078"/>
<polygon fill="#191970" stroke="#191970" points="603.6223,-199.197 613.4944,-195.3509 603.3786,-192.2012 603.6223,-199.197"/>
</g>
<!-- Node138&#45;&gt;Node135 -->
<g id="edge23" class="edge">
<title>Node138&#45;&gt;Node135</title>
<path fill="none" stroke="#191970" d="M511.4063,-190.4688C540.7751,-181.5558 585.4016,-168.0124 621.506,-157.0554"/>
<polygon fill="#191970" stroke="#191970" points="622.891,-160.2928 631.4436,-154.0395 620.8581,-153.5945 622.891,-160.2928"/>
</g>
<!-- Node141 -->
<g id="node22" class="node">
<title>Node141</title>
<g id="a_node22"><a xlink:href="classSRMWRingBuffer.html#a47699ccc0600c38559c8e10f0ca9bf3c" target="_top" xlink:title="SRMWRingBuffer::WriteElement">
<polygon fill="#ffffff" stroke="#000000" points="395,-38.5 395,-57.5 565,-57.5 565,-38.5 395,-38.5"/>
<text text-anchor="middle" x="480" y="-45.5" font-family="Helvetica,sans-Serif" font-size="10.00" fill="#000000">SRMWRingBuffer::WriteElement</text>
</a>
</g>
</g>
<!-- Node140&#45;&gt;Node141 -->
<g id="edge29" class="edge">
<title>Node140&#45;&gt;Node141</title>
<path fill="none" stroke="#191970" d="M352.0962,-48C362.7091,-48 373.623,-48 384.3898,-48"/>
<polygon fill="#191970" stroke="#191970" points="384.6528,-51.5001 394.6528,-48 384.6527,-44.5001 384.6528,-51.5001"/>
</g>
<!-- Node142 -->
<g id="node23" class="node">
<title>Node142</title>
<g id="a_node23"><a xlink:href="classEventManager.html#a529567a1f3b56ecbc97aceec5ee0b46e" target="_top" xlink:title="EventManager::WakeupIfNeeded">
<polygon fill="#ffffff" stroke="#000000" points="392,-.5 392,-19.5 568,-19.5 568,-.5 392,-.5"/>
<text text-anchor="middle" x="480" y="-7.5" font-family="Helvetica,sans-Serif" font-size="10.00" fill="#000000">EventManager::WakeupIfNeeded</text>
</a>
</g>
</g>
<!-- Node140&#45;&gt;Node142 -->
<g id="edge30" class="edge">
<title>Node140&#45;&gt;Node142</title>
<path fill="none" stroke="#191970" d="M320.8484,-38.46C349.8984,-33.2652 386.0319,-26.8037 416.5236,-21.3511"/>
<polygon fill="#191970" stroke="#191970" points="417.4019,-24.7496 426.6296,-19.5439 416.1696,-17.8589 417.4019,-24.7496"/>
</g>
</g>
</svg>
