<?xml version="1.0" encoding="UTF-8" standalone="no"?>
<!DOCTYPE svg PUBLIC "-//W3C//DTD SVG 1.1//EN"
 "http://www.w3.org/Graphics/SVG/1.1/DTD/svg11.dtd">
<!-- Generated by graphviz version 2.40.1 (20161225.0304)
 -->
<!-- Title: LoopManager::GetSlot Pages: 1 -->
<svg width="701pt" height="218pt"
 viewBox="0.00 0.00 701.00 218.00" xmlns="http://www.w3.org/2000/svg" xmlns:xlink="http://www.w3.org/1999/xlink">
<g id="graph0" class="graph" transform="scale(1 1) rotate(0) translate(4 214)">
<title>LoopManager::GetSlot</title>
<polygon fill="#ffffff" stroke="transparent" points="-4,4 -4,-214 697,-214 697,4 -4,4"/>
<!-- Node519 -->
<g id="node1" class="node">
<title>Node519</title>
<polygon fill="#bfbfbf" stroke="#000000" points="0,-76.5 0,-95.5 124,-95.5 124,-76.5 0,-76.5"/>
<text text-anchor="middle" x="62" y="-83.5" font-family="Helvetica,sans-Serif" font-size="10.00" fill="#000000">LoopManager::GetSlot</text>
</g>
<!-- Node520 -->
<g id="node2" class="node">
<title>Node520</title>
<g id="a_node2"><a xlink:href="classLoopManager.html#afe784bb20bf5fc2605fdc3273b3c1be8" target="_top" xlink:title="LoopManager::RenameLoop">
<polygon fill="#ffffff" stroke="#000000" points="160,-152.5 160,-171.5 311,-171.5 311,-152.5 160,-152.5"/>
<text text-anchor="middle" x="235.5" y="-159.5" font-family="Helvetica,sans-Serif" font-size="10.00" fill="#000000">LoopManager::RenameLoop</text>
</a>
</g>
</g>
<!-- Node519&#45;&gt;Node520 -->
<g id="edge1" class="edge">
<title>Node519&#45;&gt;Node520</title>
<path fill="none" stroke="#191970" d="M84.0146,-101.2259C103.2955,-113.9574 132.4602,-131.7867 160,-143 169.1384,-146.7209 179.2043,-149.8647 188.9256,-152.4579"/>
<polygon fill="#191970" stroke="#191970" points="85.8971,-98.2741 75.6434,-95.607 81.9959,-104.0863 85.8971,-98.2741"/>
</g>
<!-- Node523 -->
<g id="node5" class="node">
<title>Node523</title>
<g id="a_node5"><a xlink:href="classLoopManager.html#a7d068368e26e78955a044fce68b0cfea" target="_top" xlink:title="LoopManager::GetPulse">
<polygon fill="#ffffff" stroke="#000000" points="170,-114.5 170,-133.5 301,-133.5 301,-114.5 170,-114.5"/>
<text text-anchor="middle" x="235.5" y="-121.5" font-family="Helvetica,sans-Serif" font-size="10.00" fill="#000000">LoopManager::GetPulse</text>
</a>
</g>
</g>
<!-- Node519&#45;&gt;Node523 -->
<g id="edge4" class="edge">
<title>Node519&#45;&gt;Node523</title>
<path fill="none" stroke="#191970" d="M115.6598,-97.7526C140.1927,-103.1258 168.8787,-109.4086 192.0335,-114.4799"/>
<polygon fill="#191970" stroke="#191970" points="116.2987,-94.3096 105.7814,-95.589 114.801,-101.1475 116.2987,-94.3096"/>
</g>
<!-- Node525 -->
<g id="node7" class="node">
<title>Node525</title>
<g id="a_node7"><a xlink:href="classVideoIO.html#adca60a99be6e51d8af7ce2a32f92349a" target="_top" xlink:title="VideoIO::DrawLoop">
<polygon fill="#ffffff" stroke="#000000" points="370,-76.5 370,-95.5 480,-95.5 480,-76.5 370,-76.5"/>
<text text-anchor="middle" x="425" y="-83.5" font-family="Helvetica,sans-Serif" font-size="10.00" fill="#000000">VideoIO::DrawLoop</text>
</a>
</g>
</g>
<!-- Node519&#45;&gt;Node525 -->
<g id="edge8" class="edge">
<title>Node519&#45;&gt;Node525</title>
<path fill="none" stroke="#191970" d="M134.8127,-86C204.1999,-86 307.1367,-86 369.9375,-86"/>
<polygon fill="#191970" stroke="#191970" points="134.402,-82.5001 124.4019,-86 134.4019,-89.5001 134.402,-82.5001"/>
</g>
<!-- Node526 -->
<g id="node8" class="node">
<title>Node526</title>
<g id="a_node8"><a xlink:href="classVideoIO.html#a50e4ccae99e278ed7d65d9db86f18c92" target="_top" xlink:title="VideoIO::video_event_loop">
<polygon fill="#ffffff" stroke="#000000" points="162,-38.5 162,-57.5 309,-57.5 309,-38.5 162,-38.5"/>
<text text-anchor="middle" x="235.5" y="-45.5" font-family="Helvetica,sans-Serif" font-size="10.00" fill="#000000">VideoIO::video_event_loop</text>
</a>
</g>
</g>
<!-- Node519&#45;&gt;Node526 -->
<g id="edge9" class="edge">
<title>Node519&#45;&gt;Node526</title>
<path fill="none" stroke="#191970" d="M115.6598,-74.2474C140.1927,-68.8742 168.8787,-62.5914 192.0335,-57.5201"/>
<polygon fill="#191970" stroke="#191970" points="114.801,-70.8525 105.7814,-76.411 116.2987,-77.6904 114.801,-70.8525"/>
</g>
<!-- Node528 -->
<g id="node10" class="node">
<title>Node528</title>
<g id="a_node10"><a xlink:href="classLoopTray.html#adb34eb649311a401b0cbf8d4b09613c7" target="_top" xlink:title="LoopTray::Draw_Item">
<polygon fill="#ffffff" stroke="#000000" points="176,-.5 176,-19.5 295,-19.5 295,-.5 176,-.5"/>
<text text-anchor="middle" x="235.5" y="-7.5" font-family="Helvetica,sans-Serif" font-size="10.00" fill="#000000">LoopTray::Draw_Item</text>
</a>
</g>
</g>
<!-- Node519&#45;&gt;Node528 -->
<g id="edge11" class="edge">
<title>Node519&#45;&gt;Node528</title>
<path fill="none" stroke="#191970" d="M84.0146,-70.7741C103.2955,-58.0426 132.4602,-40.2133 160,-29 169.1384,-25.2791 179.2043,-22.1353 188.9256,-19.5421"/>
<polygon fill="#191970" stroke="#191970" points="81.9959,-67.9137 75.6434,-76.393 85.8971,-73.7259 81.9959,-67.9137"/>
</g>
<!-- Node521 -->
<g id="node3" class="node">
<title>Node521</title>
<g id="a_node3"><a xlink:href="classLoopManager.html#a242f1bd7eba01c186de801ba393503e7" target="_top" xlink:title="LoopManager::ItemRenamed">
<polygon fill="#ffffff" stroke="#000000" points="347,-190.5 347,-209.5 503,-209.5 503,-190.5 347,-190.5"/>
<text text-anchor="middle" x="425" y="-197.5" font-family="Helvetica,sans-Serif" font-size="10.00" fill="#000000">LoopManager::ItemRenamed</text>
</a>
</g>
</g>
<!-- Node520&#45;&gt;Node521 -->
<g id="edge2" class="edge">
<title>Node520&#45;&gt;Node521</title>
<path fill="none" stroke="#191970" d="M293.3948,-173.6095C320.346,-179.014 352.0102,-185.3635 377.525,-190.4799"/>
<polygon fill="#191970" stroke="#191970" points="293.8118,-170.1235 283.3189,-171.589 292.4355,-176.9869 293.8118,-170.1235"/>
</g>
<!-- Node522 -->
<g id="node4" class="node">
<title>Node522</title>
<g id="a_node4"><a xlink:href="classLoopManager.html#a4aada2d07b7ce0a67a8119ece4805966" target="_top" xlink:title="LoopManager::ReceiveEvent">
<polygon fill="#ffffff" stroke="#000000" points="539,-133.5 539,-152.5 693,-152.5 693,-133.5 539,-133.5"/>
<text text-anchor="middle" x="616" y="-140.5" font-family="Helvetica,sans-Serif" font-size="10.00" fill="#000000">LoopManager::ReceiveEvent</text>
</a>
</g>
</g>
<!-- Node520&#45;&gt;Node522 -->
<g id="edge3" class="edge">
<title>Node520&#45;&gt;Node522</title>
<path fill="none" stroke="#191970" d="M321.4026,-157.7105C386.7309,-154.4484 475.8267,-149.9995 538.8833,-146.8508"/>
<polygon fill="#191970" stroke="#191970" points="320.9425,-154.229 311.1295,-158.2235 321.2916,-161.2203 320.9425,-154.229"/>
</g>
<!-- Node524 -->
<g id="node6" class="node">
<title>Node524</title>
<g id="a_node6"><a xlink:href="classLoopManager.html#a8efb4c8acabceb10faa8660c14c89d71" target="_top" xlink:title="LoopManager::DeletePulse">
<polygon fill="#ffffff" stroke="#000000" points="352,-114.5 352,-133.5 498,-133.5 498,-114.5 352,-114.5"/>
<text text-anchor="middle" x="425" y="-121.5" font-family="Helvetica,sans-Serif" font-size="10.00" fill="#000000">LoopManager::DeletePulse</text>
</a>
</g>
</g>
<!-- Node523&#45;&gt;Node524 -->
<g id="edge5" class="edge">
<title>Node523&#45;&gt;Node524</title>
<path fill="none" stroke="#191970" d="M311.352,-124C324.7253,-124 338.6221,-124 351.9175,-124"/>
<polygon fill="#191970" stroke="#191970" points="311.2461,-120.5001 301.2461,-124 311.246,-127.5001 311.2461,-120.5001"/>
</g>
<!-- Node523&#45;&gt;Node525 -->
<g id="edge7" class="edge">
<title>Node523&#45;&gt;Node525</title>
<path fill="none" stroke="#191970" d="M293.3948,-112.3905C320.346,-106.986 352.0102,-100.6365 377.525,-95.5201"/>
<polygon fill="#191970" stroke="#191970" points="292.4355,-109.0131 283.3189,-114.411 293.8118,-115.8765 292.4355,-109.0131"/>
</g>
<!-- Node524&#45;&gt;Node522 -->
<g id="edge6" class="edge">
<title>Node524&#45;&gt;Node522</title>
<path fill="none" stroke="#191970" d="M508.1567,-132.2721C518.3685,-133.288 528.7717,-134.3228 538.8888,-135.3293"/>
<polygon fill="#191970" stroke="#191970" points="508.3238,-128.7716 498.0265,-131.2644 507.6309,-135.7372 508.3238,-128.7716"/>
</g>
<!-- Node527 -->
<g id="node9" class="node">
<title>Node527</title>
<g id="a_node9"><a xlink:href="classVideoIO.html#adb25c81a2bfe792fd4f64e23a4e21176" target="_top" xlink:title="VideoIO::run_video\l_thread">
<polygon fill="#ffffff" stroke="#000000" points="370.5,-27 370.5,-57 479.5,-57 479.5,-27 370.5,-27"/>
<text text-anchor="start" x="378.5" y="-45" font-family="Helvetica,sans-Serif" font-size="10.00" fill="#000000">VideoIO::run_video</text>
<text text-anchor="middle" x="425" y="-34" font-family="Helvetica,sans-Serif" font-size="10.00" fill="#000000">_thread</text>
</a>
</g>
</g>
<!-- Node526&#45;&gt;Node527 -->
<g id="edge10" class="edge">
<title>Node526&#45;&gt;Node527</title>
<path fill="none" stroke="#191970" d="M319.1669,-45.3509C336.5008,-44.8021 354.3363,-44.2374 370.3099,-43.7316"/>
<polygon fill="#191970" stroke="#191970" points="318.9211,-41.8568 309.0369,-45.6717 319.1427,-48.8533 318.9211,-41.8568"/>
</g>
</g>
</svg>
