<?xml version="1.0" encoding="UTF-8" standalone="no"?>
<!DOCTYPE svg PUBLIC "-//W3C//DTD SVG 1.1//EN"
 "http://www.w3.org/Graphics/SVG/1.1/DTD/svg11.dtd">
<!-- Generated by graphviz version 2.40.1 (20161225.0304)
 -->
<!-- Title: LoopBrowserItem Pages: 1 -->
<svg width="137pt" height="281pt"
 viewBox="0.00 0.00 137.00 281.00" xmlns="http://www.w3.org/2000/svg" xmlns:xlink="http://www.w3.org/1999/xlink">
<g id="graph0" class="graph" transform="scale(1 1) rotate(0) translate(4 277)">
<title>LoopBrowserItem</title>
<polygon fill="#ffffff" stroke="transparent" points="-4,4 -4,-277 133,-277 133,4 -4,4"/>
<!-- Node0 -->
<g id="node1" class="node">
<title>Node0</title>
<polygon fill="#bfbfbf" stroke="#000000" points="0,-.5 0,-101.5 129,-101.5 129,-.5 0,-.5"/>
<text text-anchor="middle" x="64.5" y="-89.5" font-family="Helvetica,sans-Serif" font-size="10.00" fill="#000000">LoopBrowserItem</text>
<polyline fill="none" stroke="#000000" points="0,-82.5 129,-82.5 "/>
<text text-anchor="start" x="8" y="-70.5" font-family="Helvetica,sans-Serif" font-size="10.00" fill="#000000">+ time</text>
<text text-anchor="start" x="8" y="-59.5" font-family="Helvetica,sans-Serif" font-size="10.00" fill="#000000">+ filename</text>
<polyline fill="none" stroke="#000000" points="0,-52.5 129,-52.5 "/>
<text text-anchor="start" x="8" y="-40.5" font-family="Helvetica,sans-Serif" font-size="10.00" fill="#000000">+ LoopBrowserItem()</text>
<text text-anchor="start" x="8" y="-29.5" font-family="Helvetica,sans-Serif" font-size="10.00" fill="#000000">+ ~LoopBrowserItem()</text>
<text text-anchor="start" x="8" y="-18.5" font-family="Helvetica,sans-Serif" font-size="10.00" fill="#000000">+ Compare()</text>
<text text-anchor="start" x="8" y="-7.5" font-family="Helvetica,sans-Serif" font-size="10.00" fill="#000000">+ GetType()</text>
</g>
<!-- Node1 -->
<g id="node2" class="node">
<title>Node1</title>
<g id="a_node2"><a xlink:href="classBrowserItem.html" target="_top" xlink:title="{BrowserItem\n|+ default_name\l+ name\l+ next\l+ prev\l|+ BrowserItem()\l+ ~BrowserItem()\l+ GetType()\l+ Compare()\l+ MatchItem()\l}">
<polygon fill="#ffffff" stroke="#000000" points="11.5,-138.5 11.5,-272.5 117.5,-272.5 117.5,-138.5 11.5,-138.5"/>
<text text-anchor="middle" x="64.5" y="-260.5" font-family="Helvetica,sans-Serif" font-size="10.00" fill="#000000">BrowserItem</text>
<polyline fill="none" stroke="#000000" points="11.5,-253.5 117.5,-253.5 "/>
<text text-anchor="start" x="19.5" y="-241.5" font-family="Helvetica,sans-Serif" font-size="10.00" fill="#000000">+ default_name</text>
<text text-anchor="start" x="19.5" y="-230.5" font-family="Helvetica,sans-Serif" font-size="10.00" fill="#000000">+ name</text>
<text text-anchor="start" x="19.5" y="-219.5" font-family="Helvetica,sans-Serif" font-size="10.00" fill="#000000">+ next</text>
<text text-anchor="start" x="19.5" y="-208.5" font-family="Helvetica,sans-Serif" font-size="10.00" fill="#000000">+ prev</text>
<polyline fill="none" stroke="#000000" points="11.5,-201.5 117.5,-201.5 "/>
<text text-anchor="start" x="19.5" y="-189.5" font-family="Helvetica,sans-Serif" font-size="10.00" fill="#000000">+ BrowserItem()</text>
<text text-anchor="start" x="19.5" y="-178.5" font-family="Helvetica,sans-Serif" font-size="10.00" fill="#000000">+ ~BrowserItem()</text>
<text text-anchor="start" x="19.5" y="-167.5" font-family="Helvetica,sans-Serif" font-size="10.00" fill="#000000">+ GetType()</text>
<text text-anchor="start" x="19.5" y="-156.5" font-family="Helvetica,sans-Serif" font-size="10.00" fill="#000000">+ Compare()</text>
<text text-anchor="start" x="19.5" y="-145.5" font-family="Helvetica,sans-Serif" font-size="10.00" fill="#000000">+ MatchItem()</text>
</a>
</g>
</g>
<!-- Node1&#45;&gt;Node0 -->
<g id="edge1" class="edge">
<title>Node1&#45;&gt;Node0</title>
<path fill="none" stroke="#191970" d="M64.5,-128.1277C64.5,-119.1994 64.5,-110.2733 64.5,-101.8265"/>
<polygon fill="none" stroke="#191970" points="61.0001,-128.1835 64.5,-138.1835 68.0001,-128.1835 61.0001,-128.1835"/>
</g>
</g>
</svg>
