<?xml version="1.0" encoding="UTF-8" standalone="no"?>
<!DOCTYPE svg PUBLIC "-//W3C//DTD SVG 1.1//EN"
 "http://www.w3.org/Graphics/SVG/1.1/DTD/svg11.dtd">
<!-- Generated by graphviz version 2.40.1 (20161225.0304)
 -->
<!-- Title: AudioBlockIterator::PutFragment Pages: 1 -->
<svg width="726pt" height="173pt"
 viewBox="0.00 0.00 726.00 172.50" xmlns="http://www.w3.org/2000/svg" xmlns:xlink="http://www.w3.org/1999/xlink">
<g id="graph0" class="graph" transform="scale(1 1) rotate(0) translate(4 168.5)">
<title>AudioBlockIterator::PutFragment</title>
<polygon fill="#ffffff" stroke="transparent" points="-4,4 -4,-168.5 722,-168.5 722,4 -4,4"/>
<!-- Node82 -->
<g id="node1" class="node">
<title>Node82</title>
<polygon fill="#bfbfbf" stroke="#000000" points="0,-63 0,-93 107,-93 107,-63 0,-63"/>
<text text-anchor="start" x="8" y="-81" font-family="Helvetica,sans-Serif" font-size="10.00" fill="#000000">AudioBlockIterator</text>
<text text-anchor="middle" x="53.5" y="-70" font-family="Helvetica,sans-Serif" font-size="10.00" fill="#000000">::PutFragment</text>
</g>
<!-- Node83 -->
<g id="node2" class="node">
<title>Node83</title>
<g id="a_node2"><a xlink:href="classAudioBlock.html#ae7aec1591ed6f228799c11b650b2cc1b" target="_top" xlink:title="AudioBlock::GetExtendedData">
<polygon fill="#ffffff" stroke="#000000" points="143.5,-128.5 143.5,-147.5 307.5,-147.5 307.5,-128.5 143.5,-128.5"/>
<text text-anchor="middle" x="225.5" y="-135.5" font-family="Helvetica,sans-Serif" font-size="10.00" fill="#000000">AudioBlock::GetExtendedData</text>
</a>
</g>
</g>
<!-- Node82&#45;&gt;Node83 -->
<g id="edge1" class="edge">
<title>Node82&#45;&gt;Node83</title>
<path fill="none" stroke="#191970" d="M96.9029,-93.1405C125.1413,-102.9912 161.5772,-115.7014 188.4515,-125.0761"/>
<polygon fill="#191970" stroke="#191970" points="187.6513,-128.5037 198.2461,-128.4928 189.9569,-121.8943 187.6513,-128.5037"/>
</g>
<!-- Node85 -->
<g id="node4" class="node">
<title>Node85</title>
<g id="a_node4"><a xlink:href="classPreallocatedType.html#ae8a5326530dd0f38ecbb094f7818bd42" target="_top" xlink:title="PreallocatedType::RTNew">
<polygon fill="#ffffff" stroke="#000000" points="155.5,-68.5 155.5,-87.5 295.5,-87.5 295.5,-68.5 155.5,-68.5"/>
<text text-anchor="middle" x="225.5" y="-75.5" font-family="Helvetica,sans-Serif" font-size="10.00" fill="#000000">PreallocatedType::RTNew</text>
</a>
</g>
</g>
<!-- Node82&#45;&gt;Node85 -->
<g id="edge3" class="edge">
<title>Node82&#45;&gt;Node85</title>
<path fill="none" stroke="#191970" d="M107.45,-78C119.4216,-78 132.3602,-78 145.1324,-78"/>
<polygon fill="#191970" stroke="#191970" points="145.3182,-81.5001 155.3181,-78 145.3181,-74.5001 145.3182,-81.5001"/>
</g>
<!-- Node91 -->
<g id="node10" class="node">
<title>Node91</title>
<g id="a_node10"><a xlink:href="classAudioBlock.html#aa3129140d4e8c54e83afbef223cf8a65" target="_top" xlink:title="AudioBlock::AddExtendedData">
<polygon fill="#ffffff" stroke="#000000" points="143,-30.5 143,-49.5 308,-49.5 308,-30.5 143,-30.5"/>
<text text-anchor="middle" x="225.5" y="-37.5" font-family="Helvetica,sans-Serif" font-size="10.00" fill="#000000">AudioBlock::AddExtendedData</text>
</a>
</g>
</g>
<!-- Node82&#45;&gt;Node91 -->
<g id="edge9" class="edge">
<title>Node82&#45;&gt;Node91</title>
<path fill="none" stroke="#191970" d="M107.45,-66.0808C128.1929,-61.4981 151.8388,-56.274 172.4923,-51.711"/>
<polygon fill="#191970" stroke="#191970" points="173.3556,-55.1048 182.3651,-49.5298 171.8455,-48.2696 173.3556,-55.1048"/>
</g>
<!-- Node84 -->
<g id="node3" class="node">
<title>Node84</title>
<g id="a_node3"><a xlink:href="classBlockExtendedData.html#ae33e9550384a32abf2a91386334a2be9" target="_top" xlink:title="BlockExtendedData::\lGetType">
<polygon fill="#ffffff" stroke="#000000" points="359.5,-134 359.5,-164 478.5,-164 478.5,-134 359.5,-134"/>
<text text-anchor="start" x="367.5" y="-152" font-family="Helvetica,sans-Serif" font-size="10.00" fill="#000000">BlockExtendedData::</text>
<text text-anchor="middle" x="419" y="-141" font-family="Helvetica,sans-Serif" font-size="10.00" fill="#000000">GetType</text>
</a>
</g>
</g>
<!-- Node83&#45;&gt;Node84 -->
<g id="edge2" class="edge">
<title>Node83&#45;&gt;Node84</title>
<path fill="none" stroke="#191970" d="M307.5614,-142.665C321.4333,-143.4536 335.7176,-144.2656 349.2376,-145.0342"/>
<polygon fill="#191970" stroke="#191970" points="349.2255,-148.539 359.408,-145.6123 349.6228,-141.5503 349.2255,-148.539"/>
</g>
<!-- Node86 -->
<g id="node5" class="node">
<title>Node86</title>
<g id="a_node5"><a xlink:href="classRTStore.html#a2be0d247570dc611a379ab0a80dd14da" target="_top" xlink:title="RTStore::FindItemWithState">
<polygon fill="#ffffff" stroke="#000000" points="344,-95.5 344,-114.5 494,-114.5 494,-95.5 344,-95.5"/>
<text text-anchor="middle" x="419" y="-102.5" font-family="Helvetica,sans-Serif" font-size="10.00" fill="#000000">RTStore::FindItemWithState</text>
</a>
</g>
</g>
<!-- Node85&#45;&gt;Node86 -->
<g id="edge4" class="edge">
<title>Node85&#45;&gt;Node86</title>
<path fill="none" stroke="#191970" d="M293.7209,-87.5192C308.8945,-89.6364 325.0963,-91.8972 340.6406,-94.0661"/>
<polygon fill="#191970" stroke="#191970" points="340.3552,-97.5601 350.743,-95.4758 341.3227,-90.6273 340.3552,-97.5601"/>
</g>
<!-- Node87 -->
<g id="node6" class="node">
<title>Node87</title>
<g id="a_node6"><a xlink:href="classRTStore.html#af3c93f31bd68ce149a812b05d9e7cd86" target="_top" xlink:title="RTStore::ChangeStateAtIdx">
<polygon fill="#ffffff" stroke="#000000" points="345,-57.5 345,-76.5 493,-76.5 493,-57.5 345,-57.5"/>
<text text-anchor="middle" x="419" y="-64.5" font-family="Helvetica,sans-Serif" font-size="10.00" fill="#000000">RTStore::ChangeStateAtIdx</text>
</a>
</g>
</g>
<!-- Node85&#45;&gt;Node87 -->
<g id="edge5" class="edge">
<title>Node85&#45;&gt;Node87</title>
<path fill="none" stroke="#191970" d="M295.6315,-74.0132C308.2622,-73.2952 321.5493,-72.5398 334.5361,-71.8016"/>
<polygon fill="#191970" stroke="#191970" points="335.0835,-75.2762 344.8687,-71.2142 334.6861,-68.2875 335.0835,-75.2762"/>
</g>
<!-- Node88 -->
<g id="node7" class="node">
<title>Node88</title>
<g id="a_node7"><a xlink:href="classMemoryManager.html#a3971e97751f5eccd04086eb2e6fb6f43" target="_top" xlink:title="MemoryManager::WakeUp">
<polygon fill="#ffffff" stroke="#000000" points="346.5,-19.5 346.5,-38.5 491.5,-38.5 491.5,-19.5 346.5,-19.5"/>
<text text-anchor="middle" x="419" y="-26.5" font-family="Helvetica,sans-Serif" font-size="10.00" fill="#000000">MemoryManager::WakeUp</text>
</a>
</g>
</g>
<!-- Node85&#45;&gt;Node88 -->
<g id="edge6" class="edge">
<title>Node85&#45;&gt;Node88</title>
<path fill="none" stroke="#191970" d="M269.7415,-68.413C282.1625,-65.5583 295.6474,-62.3052 308,-59 324.1617,-54.6755 327.8863,-52.5 344,-48 352.4597,-45.6375 361.491,-43.2422 370.25,-40.9851"/>
<polygon fill="#191970" stroke="#191970" points="371.1534,-44.3668 379.9786,-38.5045 369.4238,-37.5839 371.1534,-44.3668"/>
</g>
<!-- Node89 -->
<g id="node8" class="node">
<title>Node89</title>
<g id="a_node8"><a xlink:href="classSRMWRingBuffer.html#a47699ccc0600c38559c8e10f0ca9bf3c" target="_top" xlink:title="SRMWRingBuffer::WriteElement">
<polygon fill="#ffffff" stroke="#000000" points="539,-38.5 539,-57.5 709,-57.5 709,-38.5 539,-38.5"/>
<text text-anchor="middle" x="624" y="-45.5" font-family="Helvetica,sans-Serif" font-size="10.00" fill="#000000">SRMWRingBuffer::WriteElement</text>
</a>
</g>
</g>
<!-- Node88&#45;&gt;Node89 -->
<g id="edge7" class="edge">
<title>Node88&#45;&gt;Node89</title>
<path fill="none" stroke="#191970" d="M491.5638,-35.7254C503.6514,-36.8457 516.3479,-38.0225 528.8957,-39.1855"/>
<polygon fill="#191970" stroke="#191970" points="528.6322,-42.6759 538.9125,-40.1138 529.2783,-35.7058 528.6322,-42.6759"/>
</g>
<!-- Node90 -->
<g id="node9" class="node">
<title>Node90</title>
<g id="a_node9"><a xlink:href="classMemoryManager.html#ab15be510a88e9eab04db2d6554d7e947" target="_top" xlink:title="MemoryManager::WakeupIfNeeded">
<polygon fill="#ffffff" stroke="#000000" points="530,-.5 530,-19.5 718,-19.5 718,-.5 530,-.5"/>
<text text-anchor="middle" x="624" y="-7.5" font-family="Helvetica,sans-Serif" font-size="10.00" fill="#000000">MemoryManager::WakeupIfNeeded</text>
</a>
</g>
</g>
<!-- Node88&#45;&gt;Node90 -->
<g id="edge8" class="edge">
<title>Node88&#45;&gt;Node90</title>
<path fill="none" stroke="#191970" d="M491.5638,-22.2746C500.7962,-21.4189 510.3838,-20.5303 519.9891,-19.64"/>
<polygon fill="#191970" stroke="#191970" points="520.3568,-23.1211 529.991,-18.713 519.7107,-16.1509 520.3568,-23.1211"/>
</g>
</g>
</svg>
