<?xml version="1.0" encoding="UTF-8" standalone="no"?>
<!DOCTYPE svg PUBLIC "-//W3C//DTD SVG 1.1//EN"
 "http://www.w3.org/Graphics/SVG/1.1/DTD/svg11.dtd">
<!-- Generated by graphviz version 2.40.1 (20161225.0304)
 -->
<!-- Title: Snapshot Pages: 1 -->
<svg width="297pt" height="331pt"
 viewBox="0.00 0.00 296.50 331.00" xmlns="http://www.w3.org/2000/svg" xmlns:xlink="http://www.w3.org/1999/xlink">
<g id="graph0" class="graph" transform="scale(1 1) rotate(0) translate(4 327)">
<title>Snapshot</title>
<polygon fill="#ffffff" stroke="transparent" points="-4,4 -4,-327 292.5,-327 292.5,4 -4,4"/>
<!-- Node1 -->
<g id="node1" class="node">
<title>Node1</title>
<polygon fill="#bfbfbf" stroke="#000000" points="17.5,-.5 17.5,-90.5 130.5,-90.5 130.5,-.5 17.5,-.5"/>
<text text-anchor="middle" x="74" y="-78.5" font-family="Helvetica,sans-Serif" font-size="10.00" fill="#000000">Snapshot</text>
<polyline fill="none" stroke="#000000" points="17.5,-71.5 130.5,-71.5 "/>
<text text-anchor="middle" x="74" y="-59.5" font-family="Helvetica,sans-Serif" font-size="10.00" fill="#000000"> </text>
<polyline fill="none" stroke="#000000" points="17.5,-52.5 130.5,-52.5 "/>
<text text-anchor="start" x="25.5" y="-40.5" font-family="Helvetica,sans-Serif" font-size="10.00" fill="#000000">+ Snapshot()</text>
<text text-anchor="start" x="25.5" y="-29.5" font-family="Helvetica,sans-Serif" font-size="10.00" fill="#000000">+ ~Snapshot()</text>
<text text-anchor="start" x="25.5" y="-18.5" font-family="Helvetica,sans-Serif" font-size="10.00" fill="#000000">+ DeleteSnapshot()</text>
<text text-anchor="start" x="25.5" y="-7.5" font-family="Helvetica,sans-Serif" font-size="10.00" fill="#000000">+ CreateSnapshot()</text>
</g>
<!-- Node2 -->
<g id="node2" class="node">
<title>Node2</title>
<polygon fill="#ffffff" stroke="#bfbfbf" points="0,-149.5 0,-206.5 38,-206.5 38,-149.5 0,-149.5"/>
<text text-anchor="middle" x="19" y="-194.5" font-family="Helvetica,sans-Serif" font-size="10.00" fill="#000000">char</text>
<polyline fill="none" stroke="#bfbfbf" points="0,-187.5 38,-187.5 "/>
<text text-anchor="middle" x="19" y="-175.5" font-family="Helvetica,sans-Serif" font-size="10.00" fill="#000000"> </text>
<polyline fill="none" stroke="#bfbfbf" points="0,-168.5 38,-168.5 "/>
<text text-anchor="middle" x="19" y="-156.5" font-family="Helvetica,sans-Serif" font-size="10.00" fill="#000000"> </text>
</g>
<!-- Node2&#45;&gt;Node1 -->
<g id="edge1" class="edge">
<title>Node2&#45;&gt;Node1</title>
<path fill="none" stroke="#404040" d="M15.1279,-149.3253C14.4828,-136.6008 15.2359,-121.6719 20,-109 21.0098,-106.3141 22.1871,-103.6633 23.4999,-101.0584"/>
<polygon fill="none" stroke="#404040" points="23.5334,-101.0009 23.1003,-93.8027 29.5782,-90.6345 30.0112,-97.8326 23.5334,-101.0009"/>
<text text-anchor="middle" x="40" y="-123" font-family="Helvetica,sans-Serif" font-size="10.00" fill="#000000"> +name</text>
<text text-anchor="middle" x="40" y="-112" font-family="Helvetica,sans-Serif" font-size="10.00" fill="#000000">+exists</text>
</g>
<!-- Node3 -->
<g id="node3" class="node">
<title>Node3</title>
<polygon fill="#ffffff" stroke="#bfbfbf" points="81.5,-265.5 81.5,-322.5 110.5,-322.5 110.5,-265.5 81.5,-265.5"/>
<text text-anchor="middle" x="96" y="-310.5" font-family="Helvetica,sans-Serif" font-size="10.00" fill="#000000">int</text>
<polyline fill="none" stroke="#bfbfbf" points="81.5,-303.5 110.5,-303.5 "/>
<text text-anchor="middle" x="96" y="-291.5" font-family="Helvetica,sans-Serif" font-size="10.00" fill="#000000"> </text>
<polyline fill="none" stroke="#bfbfbf" points="81.5,-284.5 110.5,-284.5 "/>
<text text-anchor="middle" x="96" y="-272.5" font-family="Helvetica,sans-Serif" font-size="10.00" fill="#000000"> </text>
</g>
<!-- Node3&#45;&gt;Node1 -->
<g id="edge2" class="edge">
<title>Node3&#45;&gt;Node1</title>
<path fill="none" stroke="#404040" d="M91.0572,-265.4797C88.2913,-248.5364 85.006,-226.5983 83,-207 79.4817,-172.6259 77.2663,-133.9851 75.9142,-103.1204"/>
<polygon fill="none" stroke="#404040" points="75.902,-102.8269 71.6561,-96.9984 75.4033,-90.8373 79.6492,-96.6659 75.902,-102.8269"/>
<text text-anchor="middle" x="104" y="-175.5" font-family="Helvetica,sans-Serif" font-size="10.00" fill="#000000"> +numls</text>
</g>
<!-- Node4 -->
<g id="node4" class="node">
<title>Node4</title>
<g id="a_node4"><a xlink:href="classLoopSnapshot.html" target="_top" xlink:title="{LoopSnapshot\n||+ LoopSnapshot()\l}">
<polygon fill="#ffffff" stroke="#000000" points="134,-149.5 134,-206.5 238,-206.5 238,-149.5 134,-149.5"/>
<text text-anchor="middle" x="186" y="-194.5" font-family="Helvetica,sans-Serif" font-size="10.00" fill="#000000">LoopSnapshot</text>
<polyline fill="none" stroke="#000000" points="134,-187.5 238,-187.5 "/>
<text text-anchor="middle" x="186" y="-175.5" font-family="Helvetica,sans-Serif" font-size="10.00" fill="#000000"> </text>
<polyline fill="none" stroke="#000000" points="134,-168.5 238,-168.5 "/>
<text text-anchor="start" x="142" y="-156.5" font-family="Helvetica,sans-Serif" font-size="10.00" fill="#000000">+ LoopSnapshot()</text>
</a>
</g>
</g>
<!-- Node3&#45;&gt;Node4 -->
<g id="edge6" class="edge">
<title>Node3&#45;&gt;Node4</title>
<path fill="none" stroke="#404040" d="M110.6813,-271.4423C119.8595,-257.7176 132.1509,-240.0011 144,-225 146.4079,-221.9515 148.9557,-218.8447 151.5582,-215.7544"/>
<polygon fill="none" stroke="#404040" points="151.6087,-215.6958 152.4974,-208.5396 159.4449,-206.6076 158.5562,-213.7637 151.6087,-215.6958"/>
<text text-anchor="middle" x="161.5" y="-233.5" font-family="Helvetica,sans-Serif" font-size="10.00" fill="#000000"> +l_idx</text>
</g>
<!-- Node4&#45;&gt;Node1 -->
<g id="edge3" class="edge">
<title>Node4&#45;&gt;Node1</title>
<path fill="none" stroke="#404040" d="M161.6977,-149.2495C149.4839,-134.8001 134.2705,-116.8021 119.9612,-99.8737"/>
<polygon fill="none" stroke="#404040" points="119.876,-99.773 112.9478,-97.7729 112.1293,-90.6084 119.0576,-92.6084 119.876,-99.773"/>
<text text-anchor="middle" x="154" y="-117.5" font-family="Helvetica,sans-Serif" font-size="10.00" fill="#000000"> +ls</text>
</g>
<!-- Node5 -->
<g id="node5" class="node">
<title>Node5</title>
<polygon fill="#ffffff" stroke="#bfbfbf" points="161,-265.5 161,-322.5 199,-322.5 199,-265.5 161,-265.5"/>
<text text-anchor="middle" x="180" y="-310.5" font-family="Helvetica,sans-Serif" font-size="10.00" fill="#000000">float</text>
<polyline fill="none" stroke="#bfbfbf" points="161,-303.5 199,-303.5 "/>
<text text-anchor="middle" x="180" y="-291.5" font-family="Helvetica,sans-Serif" font-size="10.00" fill="#000000"> </text>
<polyline fill="none" stroke="#bfbfbf" points="161,-284.5 199,-284.5 "/>
<text text-anchor="middle" x="180" y="-272.5" font-family="Helvetica,sans-Serif" font-size="10.00" fill="#000000"> </text>
</g>
<!-- Node5&#45;&gt;Node4 -->
<g id="edge4" class="edge">
<title>Node5&#45;&gt;Node4</title>
<path fill="none" stroke="#404040" d="M181.4831,-265.3258C182.2043,-251.3834 183.0842,-234.3727 183.8751,-219.0815"/>
<polygon fill="none" stroke="#404040" points="183.8932,-218.7303 180.2085,-212.5317 184.5131,-206.7463 188.1978,-212.945 183.8932,-218.7303"/>
<text text-anchor="middle" x="201.5" y="-239" font-family="Helvetica,sans-Serif" font-size="10.00" fill="#000000"> +l_vol</text>
<text text-anchor="middle" x="201.5" y="-228" font-family="Helvetica,sans-Serif" font-size="10.00" fill="#000000">+t_vol</text>
</g>
<!-- Node6 -->
<g id="node6" class="node">
<title>Node6</title>
<polygon fill="#ffffff" stroke="#bfbfbf" points="217.5,-265.5 217.5,-322.5 288.5,-322.5 288.5,-265.5 217.5,-265.5"/>
<text text-anchor="middle" x="253" y="-310.5" font-family="Helvetica,sans-Serif" font-size="10.00" fill="#000000">LoopStatus</text>
<polyline fill="none" stroke="#bfbfbf" points="217.5,-303.5 288.5,-303.5 "/>
<text text-anchor="middle" x="253" y="-291.5" font-family="Helvetica,sans-Serif" font-size="10.00" fill="#000000"> </text>
<polyline fill="none" stroke="#bfbfbf" points="217.5,-284.5 288.5,-284.5 "/>
<text text-anchor="middle" x="253" y="-272.5" font-family="Helvetica,sans-Serif" font-size="10.00" fill="#000000"> </text>
</g>
<!-- Node6&#45;&gt;Node4 -->
<g id="edge5" class="edge">
<title>Node6&#45;&gt;Node4</title>
<path fill="none" stroke="#404040" d="M242.4616,-265.3248C237.3025,-252.6004 230.5702,-237.6715 223,-225 221.3348,-222.2127 219.5244,-219.4051 217.6292,-216.6239"/>
<polygon fill="none" stroke="#404040" points="217.5258,-216.4805 210.7708,-213.9566 210.5025,-206.7505 217.2575,-209.2744 217.5258,-216.4805"/>
<text text-anchor="middle" x="256" y="-233.5" font-family="Helvetica,sans-Serif" font-size="10.00" fill="#000000"> +status</text>
</g>
</g>
</svg>
