<?xml version="1.0" encoding="UTF-8" standalone="no"?>
<!DOCTYPE svg PUBLIC "-//W3C//DTD SVG 1.1//EN"
 "http://www.w3.org/Graphics/SVG/1.1/DTD/svg11.dtd">
<!-- Generated by graphviz version 2.40.1 (20161225.0304)
 -->
<!-- Title: RootProcessor::GetSampleCnt Pages: 1 -->
<svg width="725pt" height="192pt"
 viewBox="0.00 0.00 725.00 192.00" xmlns="http://www.w3.org/2000/svg" xmlns:xlink="http://www.w3.org/1999/xlink">
<g id="graph0" class="graph" transform="scale(1 1) rotate(0) translate(4 188)">
<title>RootProcessor::GetSampleCnt</title>
<polygon fill="#ffffff" stroke="transparent" points="-4,4 -4,-188 721,-188 721,4 -4,4"/>
<!-- Node66 -->
<g id="node1" class="node">
<title>Node66</title>
<polygon fill="#bfbfbf" stroke="#000000" points="0,-82.5 0,-101.5 162,-101.5 162,-82.5 0,-82.5"/>
<text text-anchor="middle" x="81" y="-89.5" font-family="Helvetica,sans-Serif" font-size="10.00" fill="#000000">RootProcessor::GetSampleCnt</text>
</g>
<!-- Node67 -->
<g id="node2" class="node">
<title>Node67</title>
<g id="a_node2"><a xlink:href="classLoopManager.html#a67c6f44d33880b35c875a8e6ea8babac" target="_top" xlink:title="LoopManager::TapPulse">
<polygon fill="#ffffff" stroke="#000000" points="219.5,-164.5 219.5,-183.5 350.5,-183.5 350.5,-164.5 219.5,-164.5"/>
<text text-anchor="middle" x="285" y="-171.5" font-family="Helvetica,sans-Serif" font-size="10.00" fill="#000000">LoopManager::TapPulse</text>
</a>
</g>
</g>
<!-- Node66&#45;&gt;Node67 -->
<g id="edge1" class="edge">
<title>Node66&#45;&gt;Node67</title>
<path fill="none" stroke="#191970" d="M104.1929,-107.0113C127.1659,-121.2612 163.7716,-142.3317 198,-155 208.1493,-158.7564 219.253,-161.8791 230.0303,-164.4338"/>
<polygon fill="#191970" stroke="#191970" points="105.8432,-103.9145 95.5157,-101.5496 102.1143,-109.8387 105.8432,-103.9145"/>
</g>
<!-- Node69 -->
<g id="node4" class="node">
<title>Node69</title>
<g id="a_node4"><a xlink:href="classFileStreamer.html#ac88e06227e5c2075c8e669e7637af147" target="_top" xlink:title="FileStreamer::ReceiveEvent">
<polygon fill="#ffffff" stroke="#000000" points="210,-126.5 210,-145.5 360,-145.5 360,-126.5 210,-126.5"/>
<text text-anchor="middle" x="285" y="-133.5" font-family="Helvetica,sans-Serif" font-size="10.00" fill="#000000">FileStreamer::ReceiveEvent</text>
</a>
</g>
</g>
<!-- Node66&#45;&gt;Node69 -->
<g id="edge3" class="edge">
<title>Node66&#45;&gt;Node69</title>
<path fill="none" stroke="#191970" d="M135.2082,-103.692C168.2081,-110.8096 209.8314,-119.7872 240.8214,-126.4713"/>
<polygon fill="#191970" stroke="#191970" points="135.7781,-100.2345 125.265,-101.5473 134.3022,-107.0771 135.7781,-100.2345"/>
</g>
<!-- Node70 -->
<g id="node5" class="node">
<title>Node70</title>
<g id="a_node5"><a xlink:href="classFileStreamer.html#a89b7803d85f99c20fb0e3722c12b4323" target="_top" xlink:title="FileStreamer::run_encode\l_thread">
<polygon fill="#ffffff" stroke="#000000" points="215,-77 215,-107 355,-107 355,-77 215,-77"/>
<text text-anchor="start" x="223" y="-95" font-family="Helvetica,sans-Serif" font-size="10.00" fill="#000000">FileStreamer::run_encode</text>
<text text-anchor="middle" x="285" y="-84" font-family="Helvetica,sans-Serif" font-size="10.00" fill="#000000">_thread</text>
</a>
</g>
</g>
<!-- Node66&#45;&gt;Node70 -->
<g id="edge4" class="edge">
<title>Node66&#45;&gt;Node70</title>
<path fill="none" stroke="#191970" d="M172.5146,-92C186.752,-92 201.2647,-92 214.9275,-92"/>
<polygon fill="#191970" stroke="#191970" points="172.2124,-88.5001 162.2124,-92 172.2123,-95.5001 172.2124,-88.5001"/>
</g>
<!-- Node72 -->
<g id="node7" class="node">
<title>Node72</title>
<g id="a_node7"><a xlink:href="classMidiIO.html#a9f130a6f6732fcdc5c111a5708afb64f" target="_top" xlink:title="MidiIO::EchoEventToPortChannel">
<polygon fill="#ffffff" stroke="#000000" points="198,-38.5 198,-57.5 372,-57.5 372,-38.5 198,-38.5"/>
<text text-anchor="middle" x="285" y="-45.5" font-family="Helvetica,sans-Serif" font-size="10.00" fill="#000000">MidiIO::EchoEventToPortChannel</text>
</a>
</g>
</g>
<!-- Node66&#45;&gt;Node72 -->
<g id="edge6" class="edge">
<title>Node66&#45;&gt;Node72</title>
<path fill="none" stroke="#191970" d="M135.2082,-80.308C168.2081,-73.1904 209.8314,-64.2128 240.8214,-57.5287"/>
<polygon fill="#191970" stroke="#191970" points="134.3022,-76.9229 125.265,-82.4527 135.7781,-83.7655 134.3022,-76.9229"/>
</g>
<!-- Node75 -->
<g id="node10" class="node">
<title>Node75</title>
<g id="a_node10"><a xlink:href="classMidiIO.html#a690fe0a8460ce500fa09580f3b9de957" target="_top" xlink:title="MidiIO::CheckBypass">
<polygon fill="#ffffff" stroke="#000000" points="225.5,-.5 225.5,-19.5 344.5,-19.5 344.5,-.5 225.5,-.5"/>
<text text-anchor="middle" x="285" y="-7.5" font-family="Helvetica,sans-Serif" font-size="10.00" fill="#000000">MidiIO::CheckBypass</text>
</a>
</g>
</g>
<!-- Node66&#45;&gt;Node75 -->
<g id="edge9" class="edge">
<title>Node66&#45;&gt;Node75</title>
<path fill="none" stroke="#191970" d="M104.1929,-76.9887C127.1659,-62.7388 163.7716,-41.6683 198,-29 208.1493,-25.2436 219.253,-22.1209 230.0303,-19.5662"/>
<polygon fill="#191970" stroke="#191970" points="102.1143,-74.1613 95.5157,-82.4504 105.8432,-80.0855 102.1143,-74.1613"/>
</g>
<!-- Node68 -->
<g id="node3" class="node">
<title>Node68</title>
<g id="a_node3"><a xlink:href="classLoopManager.html#a4aada2d07b7ce0a67a8119ece4805966" target="_top" xlink:title="LoopManager::ReceiveEvent">
<polygon fill="#ffffff" stroke="#000000" points="408,-164.5 408,-183.5 562,-183.5 562,-164.5 408,-164.5"/>
<text text-anchor="middle" x="485" y="-171.5" font-family="Helvetica,sans-Serif" font-size="10.00" fill="#000000">LoopManager::ReceiveEvent</text>
</a>
</g>
</g>
<!-- Node67&#45;&gt;Node68 -->
<g id="edge2" class="edge">
<title>Node67&#45;&gt;Node68</title>
<path fill="none" stroke="#191970" d="M361.1742,-174C376.4186,-174 392.4473,-174 407.7284,-174"/>
<polygon fill="#191970" stroke="#191970" points="360.7645,-170.5001 350.7645,-174 360.7645,-177.5001 360.7645,-170.5001"/>
</g>
<!-- Node71 -->
<g id="node6" class="node">
<title>Node71</title>
<g id="a_node6"><a xlink:href="classFileStreamer.html#a1cc038c52d8211d59503a4e7f8a16cd9" target="_top" xlink:title="FileStreamer::FileStreamer">
<polygon fill="#ffffff" stroke="#000000" points="412,-82.5 412,-101.5 558,-101.5 558,-82.5 412,-82.5"/>
<text text-anchor="middle" x="485" y="-89.5" font-family="Helvetica,sans-Serif" font-size="10.00" fill="#000000">FileStreamer::FileStreamer</text>
</a>
</g>
</g>
<!-- Node70&#45;&gt;Node71 -->
<g id="edge5" class="edge">
<title>Node70&#45;&gt;Node71</title>
<path fill="none" stroke="#191970" d="M365.2474,-92C380.6568,-92 396.7178,-92 411.8872,-92"/>
<polygon fill="#191970" stroke="#191970" points="365.2313,-88.5001 355.2313,-92 365.2313,-95.5001 365.2313,-88.5001"/>
</g>
<!-- Node73 -->
<g id="node8" class="node">
<title>Node73</title>
<g id="a_node8"><a xlink:href="classMidiIO.html#aae58e8a30b732a5eee97d76785a5909a" target="_top" xlink:title="MidiIO::EchoEvent">
<polygon fill="#ffffff" stroke="#000000" points="433,-38.5 433,-57.5 537,-57.5 537,-38.5 433,-38.5"/>
<text text-anchor="middle" x="485" y="-45.5" font-family="Helvetica,sans-Serif" font-size="10.00" fill="#000000">MidiIO::EchoEvent</text>
</a>
</g>
</g>
<!-- Node72&#45;&gt;Node73 -->
<g id="edge7" class="edge">
<title>Node72&#45;&gt;Node73</title>
<path fill="none" stroke="#191970" d="M382.3922,-48C399.851,-48 417.4158,-48 432.9561,-48"/>
<polygon fill="#191970" stroke="#191970" points="382.1411,-44.5001 372.1411,-48 382.1411,-51.5001 382.1411,-44.5001"/>
</g>
<!-- Node74 -->
<g id="node9" class="node">
<title>Node74</title>
<g id="a_node9"><a xlink:href="classMidiIO.html#a90cc0dad2841a9386a0c86efc1d9dce6" target="_top" xlink:title="MidiIO::ReceiveEvent">
<polygon fill="#ffffff" stroke="#000000" points="598,-38.5 598,-57.5 717,-57.5 717,-38.5 598,-38.5"/>
<text text-anchor="middle" x="657.5" y="-45.5" font-family="Helvetica,sans-Serif" font-size="10.00" fill="#000000">MidiIO::ReceiveEvent</text>
</a>
</g>
</g>
<!-- Node73&#45;&gt;Node74 -->
<g id="edge8" class="edge">
<title>Node73&#45;&gt;Node74</title>
<path fill="none" stroke="#191970" d="M547.3039,-48C563.7951,-48 581.5546,-48 597.8985,-48"/>
<polygon fill="#191970" stroke="#191970" points="547.2238,-44.5001 537.2238,-48 547.2238,-51.5001 547.2238,-44.5001"/>
</g>
<!-- Node76 -->
<g id="node11" class="node">
<title>Node76</title>
<g id="a_node11"><a xlink:href="classMidiIO.html#aef220bcce8b89bea36032298868a919e" target="_top" xlink:title="MidiIO::run_midi_thread">
<polygon fill="#ffffff" stroke="#000000" points="418.5,-.5 418.5,-19.5 551.5,-19.5 551.5,-.5 418.5,-.5"/>
<text text-anchor="middle" x="485" y="-7.5" font-family="Helvetica,sans-Serif" font-size="10.00" fill="#000000">MidiIO::run_midi_thread</text>
</a>
</g>
</g>
<!-- Node75&#45;&gt;Node76 -->
<g id="edge10" class="edge">
<title>Node75&#45;&gt;Node76</title>
<path fill="none" stroke="#191970" d="M354.9646,-10C375.4981,-10 397.894,-10 418.2232,-10"/>
<polygon fill="#191970" stroke="#191970" points="354.7357,-6.5001 344.7357,-10 354.7357,-13.5001 354.7357,-6.5001"/>
</g>
<!-- Node77 -->
<g id="node12" class="node">
<title>Node77</title>
<g id="a_node12"><a xlink:href="classMidiIO.html#a222509803679fcf4bcb7b4b4a34cf0cd" target="_top" xlink:title="MidiIO::activate">
<polygon fill="#ffffff" stroke="#000000" points="611,-.5 611,-19.5 704,-19.5 704,-.5 611,-.5"/>
<text text-anchor="middle" x="657.5" y="-7.5" font-family="Helvetica,sans-Serif" font-size="10.00" fill="#000000">MidiIO::activate</text>
</a>
</g>
</g>
<!-- Node76&#45;&gt;Node77 -->
<g id="edge11" class="edge">
<title>Node76&#45;&gt;Node77</title>
<path fill="none" stroke="#191970" d="M561.9663,-10C578.5985,-10 595.6966,-10 610.7479,-10"/>
<polygon fill="#191970" stroke="#191970" points="561.693,-6.5001 551.693,-10 561.693,-13.5001 561.693,-6.5001"/>
</g>
</g>
</svg>
