<?xml version="1.0" encoding="UTF-8" standalone="no"?>
<!DOCTYPE svg PUBLIC "-//W3C//DTD SVG 1.1//EN"
 "http://www.w3.org/Graphics/SVG/1.1/DTD/svg11.dtd">
<!-- Generated by graphviz version 2.40.1 (20161225.0304)
 -->
<!-- Title: MemoryManager Pages: 1 -->
<svg width="1244pt" height="1180pt"
 viewBox="0.00 0.00 1244.00 1180.00" xmlns="http://www.w3.org/2000/svg" xmlns:xlink="http://www.w3.org/1999/xlink">
<g id="graph0" class="graph" transform="scale(1 1) rotate(0) translate(4 1176)">
<title>MemoryManager</title>
<polygon fill="#ffffff" stroke="transparent" points="-4,4 -4,-1176 1240,-1176 1240,4 -4,4"/>
<!-- Node1 -->
<g id="node1" class="node">
<title>Node1</title>
<polygon fill="#bfbfbf" stroke="#000000" points="760.5,-739.5 760.5,-873.5 885.5,-873.5 885.5,-739.5 760.5,-739.5"/>
<text text-anchor="middle" x="823" y="-861.5" font-family="Helvetica,sans-Serif" font-size="10.00" fill="#000000">MemoryManager</text>
<polyline fill="none" stroke="#000000" points="760.5,-854.5 885.5,-854.5 "/>
<text text-anchor="middle" x="823" y="-842.5" font-family="Helvetica,sans-Serif" font-size="10.00" fill="#000000"> </text>
<polyline fill="none" stroke="#000000" points="760.5,-835.5 885.5,-835.5 "/>
<text text-anchor="start" x="768.5" y="-823.5" font-family="Helvetica,sans-Serif" font-size="10.00" fill="#000000">+ MemoryManager()</text>
<text text-anchor="start" x="768.5" y="-812.5" font-family="Helvetica,sans-Serif" font-size="10.00" fill="#000000">+ ~MemoryManager()</text>
<text text-anchor="start" x="768.5" y="-801.5" font-family="Helvetica,sans-Serif" font-size="10.00" fill="#000000">+ AddType()</text>
<text text-anchor="start" x="768.5" y="-790.5" font-family="Helvetica,sans-Serif" font-size="10.00" fill="#000000">+ DelType()</text>
<text text-anchor="start" x="768.5" y="-779.5" font-family="Helvetica,sans-Serif" font-size="10.00" fill="#000000">+ WakeUp()</text>
<text text-anchor="start" x="768.5" y="-768.5" font-family="Helvetica,sans-Serif" font-size="10.00" fill="#000000">+ WakeupIfNeeded()</text>
<text text-anchor="start" x="768.5" y="-757.5" font-family="Helvetica,sans-Serif" font-size="10.00" fill="#000000">&#45; ProcessQueue()</text>
<text text-anchor="start" x="768.5" y="-746.5" font-family="Helvetica,sans-Serif" font-size="10.00" fill="#000000">&#45; run_mgr_thread()</text>
</g>
<!-- Node13 -->
<g id="node13" class="node">
<title>Node13</title>
<g id="a_node13"><a xlink:href="classPreallocatedType.html" target="_top" xlink:title="{PreallocatedType\n||+ PreallocatedType()\l+ ~PreallocatedType()\l+ RTNew()\l+ RTNewWithWait()\l+ RTDelete()\l+ GoPreallocate()\l+ GoPostdelete()\l+ Cleanup()\l+ GetBlockSize()\l}">
<polygon fill="#ffffff" stroke="#000000" points="492.5,-513.5 492.5,-658.5 619.5,-658.5 619.5,-513.5 492.5,-513.5"/>
<text text-anchor="middle" x="556" y="-646.5" font-family="Helvetica,sans-Serif" font-size="10.00" fill="#000000">PreallocatedType</text>
<polyline fill="none" stroke="#000000" points="492.5,-639.5 619.5,-639.5 "/>
<text text-anchor="middle" x="556" y="-627.5" font-family="Helvetica,sans-Serif" font-size="10.00" fill="#000000"> </text>
<polyline fill="none" stroke="#000000" points="492.5,-620.5 619.5,-620.5 "/>
<text text-anchor="start" x="500.5" y="-608.5" font-family="Helvetica,sans-Serif" font-size="10.00" fill="#000000">+ PreallocatedType()</text>
<text text-anchor="start" x="500.5" y="-597.5" font-family="Helvetica,sans-Serif" font-size="10.00" fill="#000000">+ ~PreallocatedType()</text>
<text text-anchor="start" x="500.5" y="-586.5" font-family="Helvetica,sans-Serif" font-size="10.00" fill="#000000">+ RTNew()</text>
<text text-anchor="start" x="500.5" y="-575.5" font-family="Helvetica,sans-Serif" font-size="10.00" fill="#000000">+ RTNewWithWait()</text>
<text text-anchor="start" x="500.5" y="-564.5" font-family="Helvetica,sans-Serif" font-size="10.00" fill="#000000">+ RTDelete()</text>
<text text-anchor="start" x="500.5" y="-553.5" font-family="Helvetica,sans-Serif" font-size="10.00" fill="#000000">+ GoPreallocate()</text>
<text text-anchor="start" x="500.5" y="-542.5" font-family="Helvetica,sans-Serif" font-size="10.00" fill="#000000">+ GoPostdelete()</text>
<text text-anchor="start" x="500.5" y="-531.5" font-family="Helvetica,sans-Serif" font-size="10.00" fill="#000000">+ Cleanup()</text>
<text text-anchor="start" x="500.5" y="-520.5" font-family="Helvetica,sans-Serif" font-size="10.00" fill="#000000">+ GetBlockSize()</text>
</a>
</g>
</g>
<!-- Node1&#45;&gt;Node13 -->
<g id="edge17" class="edge">
<title>Node1&#45;&gt;Node13</title>
<path fill="none" stroke="#404040" d="M760.4004,-754.8025C721.0763,-722.3271 670.1901,-680.3031 629.0285,-646.31"/>
<polygon fill="none" stroke="#404040" points="628.8494,-646.1622 621.676,-645.4257 619.5967,-638.5209 626.7701,-639.2573 628.8494,-646.1622"/>
<text text-anchor="middle" x="732.5" y="-696.5" font-family="Helvetica,sans-Serif" font-size="10.00" fill="#000000"> &#45;mmgr</text>
</g>
<!-- Node2 -->
<g id="node2" class="node">
<title>Node2</title>
<polygon fill="#ffffff" stroke="#bfbfbf" points="536,-987.5 536,-1044.5 574,-1044.5 574,-987.5 536,-987.5"/>
<text text-anchor="middle" x="555" y="-1032.5" font-family="Helvetica,sans-Serif" font-size="10.00" fill="#000000">char</text>
<polyline fill="none" stroke="#bfbfbf" points="536,-1025.5 574,-1025.5 "/>
<text text-anchor="middle" x="555" y="-1013.5" font-family="Helvetica,sans-Serif" font-size="10.00" fill="#000000"> </text>
<polyline fill="none" stroke="#bfbfbf" points="536,-1006.5 574,-1006.5 "/>
<text text-anchor="middle" x="555" y="-994.5" font-family="Helvetica,sans-Serif" font-size="10.00" fill="#000000"> </text>
</g>
<!-- Node2&#45;&gt;Node1 -->
<g id="edge1" class="edge">
<title>Node2&#45;&gt;Node1</title>
<path fill="none" stroke="#404040" d="M562.7664,-987.2082C572.2924,-952.7547 588.0316,-898.8264 595,-892 614.888,-872.5172 628.7229,-883.1992 655,-874 686.167,-863.0889 720.0457,-849.7658 749.162,-837.8477"/>
<polygon fill="none" stroke="#404040" points="749.3914,-837.7533 753.4167,-831.7702 760.4877,-833.1847 756.4624,-839.1678 749.3914,-837.7533"/>
<text text-anchor="middle" x="635" y="-917" font-family="Helvetica,sans-Serif" font-size="10.00" fill="#000000"> &#45;needs_wakeup</text>
</g>
<!-- Node12 -->
<g id="node12" class="node">
<title>Node12</title>
<g id="a_node12"><a xlink:href="classPreallocated.html" target="_top" xlink:title="{Preallocated\n|&#45; FWMEM_DEFINE_DELBLOCK\l|+ Preallocated()\l+ ~Preallocated()\l+ operator new()\l+ operator delete()\l+ RTNew()\l+ RTNewWithWait()\l+ RTDelete()\l+ GetMgr()\l+ SetupPreallocated()\l&#45; NewInstance()\l&#45; Recycle()\l}">
<polygon fill="#ffffff" stroke="#000000" points="196,-287.5 196,-454.5 354,-454.5 354,-287.5 196,-287.5"/>
<text text-anchor="middle" x="275" y="-442.5" font-family="Helvetica,sans-Serif" font-size="10.00" fill="#000000">Preallocated</text>
<polyline fill="none" stroke="#000000" points="196,-435.5 354,-435.5 "/>
<text text-anchor="start" x="204" y="-423.5" font-family="Helvetica,sans-Serif" font-size="10.00" fill="#000000">&#45; FWMEM_DEFINE_DELBLOCK</text>
<polyline fill="none" stroke="#000000" points="196,-416.5 354,-416.5 "/>
<text text-anchor="start" x="204" y="-404.5" font-family="Helvetica,sans-Serif" font-size="10.00" fill="#000000">+ Preallocated()</text>
<text text-anchor="start" x="204" y="-393.5" font-family="Helvetica,sans-Serif" font-size="10.00" fill="#000000">+ ~Preallocated()</text>
<text text-anchor="start" x="204" y="-382.5" font-family="Helvetica,sans-Serif" font-size="10.00" fill="#000000">+ operator new()</text>
<text text-anchor="start" x="204" y="-371.5" font-family="Helvetica,sans-Serif" font-size="10.00" fill="#000000">+ operator delete()</text>
<text text-anchor="start" x="204" y="-360.5" font-family="Helvetica,sans-Serif" font-size="10.00" fill="#000000">+ RTNew()</text>
<text text-anchor="start" x="204" y="-349.5" font-family="Helvetica,sans-Serif" font-size="10.00" fill="#000000">+ RTNewWithWait()</text>
<text text-anchor="start" x="204" y="-338.5" font-family="Helvetica,sans-Serif" font-size="10.00" fill="#000000">+ RTDelete()</text>
<text text-anchor="start" x="204" y="-327.5" font-family="Helvetica,sans-Serif" font-size="10.00" fill="#000000">+ GetMgr()</text>
<text text-anchor="start" x="204" y="-316.5" font-family="Helvetica,sans-Serif" font-size="10.00" fill="#000000">+ SetupPreallocated()</text>
<text text-anchor="start" x="204" y="-305.5" font-family="Helvetica,sans-Serif" font-size="10.00" fill="#000000">&#45; NewInstance()</text>
<text text-anchor="start" x="204" y="-294.5" font-family="Helvetica,sans-Serif" font-size="10.00" fill="#000000">&#45; Recycle()</text>
</a>
</g>
</g>
<!-- Node2&#45;&gt;Node12 -->
<g id="edge25" class="edge">
<title>Node2&#45;&gt;Node12</title>
<path fill="none" stroke="#404040" d="M554.6739,-987.3373C553.308,-923.5203 546.3281,-772.6871 511,-739 458.2522,-688.7023 398.6745,-773.386 348,-721 331.8841,-704.3398 336.5028,-535.7378 332,-513 328.3687,-494.663 325.5981,-490.4899 319,-473 318.1092,-470.6387 317.1945,-468.2523 316.2607,-465.8496"/>
<polygon fill="none" stroke="#404040" points="316.191,-465.6737 310.2614,-461.57 311.7688,-454.5182 317.6984,-458.6219 316.191,-465.6737"/>
<text text-anchor="middle" x="421.5" y="-713" font-family="Helvetica,sans-Serif" font-size="10.00" fill="#000000"> +PREALLOC_BASE_INSTANCE</text>
<text text-anchor="middle" x="421.5" y="-702" font-family="Helvetica,sans-Serif" font-size="10.00" fill="#000000">&#45;prealloc_status</text>
<text text-anchor="middle" x="421.5" y="-691" font-family="Helvetica,sans-Serif" font-size="10.00" fill="#000000">+PREALLOC_FREE</text>
<text text-anchor="middle" x="421.5" y="-680" font-family="Helvetica,sans-Serif" font-size="10.00" fill="#000000">+PREALLOC_IN_USE</text>
</g>
<!-- Node2&#45;&gt;Node13 -->
<g id="edge18" class="edge">
<title>Node2&#45;&gt;Node13</title>
<path fill="none" stroke="#404040" d="M560.2915,-987.3437C570.3365,-928.8512 590.0472,-791.5614 577,-677 576.7666,-674.951 576.5046,-672.8811 576.2174,-670.7972"/>
<polygon fill="none" stroke="#404040" points="576.1886,-670.6141 571.3033,-665.31 574.3204,-658.7604 579.2058,-664.0645 576.1886,-670.6141"/>
<text text-anchor="middle" x="615.5" y="-804" font-family="Helvetica,sans-Serif" font-size="10.00" fill="#000000"> &#45;block_mode</text>
</g>
<!-- Node3 -->
<g id="node3" class="node">
<title>Node3</title>
<polygon fill="#ffffff" stroke="#bfbfbf" points="679,-987.5 679,-1044.5 779,-1044.5 779,-987.5 679,-987.5"/>
<text text-anchor="middle" x="729" y="-1032.5" font-family="Helvetica,sans-Serif" font-size="10.00" fill="#000000">pthread_mutex_t</text>
<polyline fill="none" stroke="#bfbfbf" points="679,-1025.5 779,-1025.5 "/>
<text text-anchor="middle" x="729" y="-1013.5" font-family="Helvetica,sans-Serif" font-size="10.00" fill="#000000"> </text>
<polyline fill="none" stroke="#bfbfbf" points="679,-1006.5 779,-1006.5 "/>
<text text-anchor="middle" x="729" y="-994.5" font-family="Helvetica,sans-Serif" font-size="10.00" fill="#000000"> </text>
</g>
<!-- Node3&#45;&gt;Node1 -->
<g id="edge2" class="edge">
<title>Node3&#45;&gt;Node1</title>
<path fill="none" stroke="#404040" d="M723.965,-987.2981C720.7435,-961.2417 719.3808,-922.3632 733,-892 737.7133,-881.4919 744.3804,-871.6453 751.9803,-862.6419"/>
<polygon fill="none" stroke="#404040" points="752.1393,-862.4664 753.2024,-855.3341 760.195,-853.5722 759.1319,-860.7046 752.1393,-862.4664"/>
<text text-anchor="middle" x="777.5" y="-917" font-family="Helvetica,sans-Serif" font-size="10.00" fill="#000000"> &#45;mgr_thread_lock</text>
</g>
<!-- Node4 -->
<g id="node4" class="node">
<title>Node4</title>
<g id="a_node4"><a xlink:href="classSLinkList.html" target="_top" xlink:title="{SLinkList\n||+ SLinkList()\l+ AddToHead()\l+ FindAndRemove()\l+ GetFirstItem()\l+ GetNextItem()\l}">
<polygon fill="#ffffff" stroke="#000000" points="989.5,-965.5 989.5,-1066.5 1102.5,-1066.5 1102.5,-965.5 989.5,-965.5"/>
<text text-anchor="middle" x="1046" y="-1054.5" font-family="Helvetica,sans-Serif" font-size="10.00" fill="#000000">SLinkList</text>
<polyline fill="none" stroke="#000000" points="989.5,-1047.5 1102.5,-1047.5 "/>
<text text-anchor="middle" x="1046" y="-1035.5" font-family="Helvetica,sans-Serif" font-size="10.00" fill="#000000"> </text>
<polyline fill="none" stroke="#000000" points="989.5,-1028.5 1102.5,-1028.5 "/>
<text text-anchor="start" x="997.5" y="-1016.5" font-family="Helvetica,sans-Serif" font-size="10.00" fill="#000000">+ SLinkList()</text>
<text text-anchor="start" x="997.5" y="-1005.5" font-family="Helvetica,sans-Serif" font-size="10.00" fill="#000000">+ AddToHead()</text>
<text text-anchor="start" x="997.5" y="-994.5" font-family="Helvetica,sans-Serif" font-size="10.00" fill="#000000">+ FindAndRemove()</text>
<text text-anchor="start" x="997.5" y="-983.5" font-family="Helvetica,sans-Serif" font-size="10.00" fill="#000000">+ GetFirstItem()</text>
<text text-anchor="start" x="997.5" y="-972.5" font-family="Helvetica,sans-Serif" font-size="10.00" fill="#000000">+ GetNextItem()</text>
</a>
</g>
</g>
<!-- Node4&#45;&gt;Node1 -->
<g id="edge3" class="edge">
<title>Node4&#45;&gt;Node1</title>
<path fill="none" stroke="#404040" d="M1017.9483,-965.2901C1003.0747,-941.2753 983.2751,-913.2683 961,-892 941.9067,-873.7697 918.3111,-857.4338 896.0639,-844.0465"/>
<polygon fill="none" stroke="#404040" points="895.9661,-843.9891 888.7667,-844.3998 885.6187,-837.9121 892.8181,-837.5015 895.9661,-843.9891"/>
<text text-anchor="middle" x="1016" y="-917" font-family="Helvetica,sans-Serif" font-size="10.00" fill="#000000"> &#45;pts</text>
</g>
<!-- Node5 -->
<g id="node5" class="node">
<title>Node5</title>
<g id="a_node5"><a xlink:href="classSListItem.html" target="_top" xlink:title="{SListItem\n||+ SListItem()\l}">
<polygon fill="#ffffff" stroke="#000000" points="1068.5,-1114.5 1068.5,-1171.5 1149.5,-1171.5 1149.5,-1114.5 1068.5,-1114.5"/>
<text text-anchor="middle" x="1109" y="-1159.5" font-family="Helvetica,sans-Serif" font-size="10.00" fill="#000000">SListItem</text>
<polyline fill="none" stroke="#000000" points="1068.5,-1152.5 1149.5,-1152.5 "/>
<text text-anchor="middle" x="1109" y="-1140.5" font-family="Helvetica,sans-Serif" font-size="10.00" fill="#000000"> </text>
<polyline fill="none" stroke="#000000" points="1068.5,-1133.5 1149.5,-1133.5 "/>
<text text-anchor="start" x="1076.5" y="-1121.5" font-family="Helvetica,sans-Serif" font-size="10.00" fill="#000000">+ SListItem()</text>
</a>
</g>
</g>
<!-- Node5&#45;&gt;Node4 -->
<g id="edge4" class="edge">
<title>Node5&#45;&gt;Node4</title>
<path fill="none" stroke="#404040" d="M1094.8616,-1114.4987C1089.3915,-1103.4717 1082.9056,-1090.397 1076.4766,-1077.437"/>
<polygon fill="none" stroke="#404040" points="1076.4459,-1077.375 1070.1962,-1073.7776 1071.1132,-1066.625 1077.3629,-1070.2224 1076.4459,-1077.375"/>
<text text-anchor="middle" x="1097" y="-1088" font-family="Helvetica,sans-Serif" font-size="10.00" fill="#000000"> &#45;first</text>
</g>
<!-- Node5&#45;&gt;Node5 -->
<g id="edge5" class="edge">
<title>Node5&#45;&gt;Node5</title>
<path fill="none" stroke="#404040" d="M1149.735,-1152.6161C1159.9013,-1151.9436 1167.5,-1148.7383 1167.5,-1143 1167.5,-1139.8619 1165.2274,-1137.4813 1161.5052,-1135.8582"/>
<polygon fill="none" stroke="#404040" points="1161.4783,-1135.8526 1154.7837,-1138.5327 1149.735,-1133.3839 1156.4296,-1130.7038 1161.4783,-1135.8526"/>
<text text-anchor="middle" x="1195" y="-1140.5" font-family="Helvetica,sans-Serif" font-size="10.00" fill="#000000"> &#45;slist_next</text>
</g>
<!-- Node5&#45;&gt;Node13 -->
<g id="edge15" class="edge">
<title>Node5&#45;&gt;Node13</title>
<path fill="none" stroke="#191970" d="M1118.2275,-1104.3271C1125.1642,-1067.1207 1130.6189,-1010.0361 1112,-965 1058.6804,-836.0288 1008.0487,-819.4328 894,-739 806.6198,-677.3752 690.4415,-631.338 619.5536,-606.5846"/>
<polygon fill="none" stroke="#191970" points="1114.7685,-1103.7769 1116.2505,-1114.2676 1121.634,-1105.1424 1114.7685,-1103.7769"/>
</g>
<!-- Node6 -->
<g id="node6" class="node">
<title>Node6</title>
<polygon fill="#ffffff" stroke="#bfbfbf" points="797.5,-987.5 797.5,-1044.5 860.5,-1044.5 860.5,-987.5 797.5,-987.5"/>
<text text-anchor="middle" x="829" y="-1032.5" font-family="Helvetica,sans-Serif" font-size="10.00" fill="#000000">pthread_t</text>
<polyline fill="none" stroke="#bfbfbf" points="797.5,-1025.5 860.5,-1025.5 "/>
<text text-anchor="middle" x="829" y="-1013.5" font-family="Helvetica,sans-Serif" font-size="10.00" fill="#000000"> </text>
<polyline fill="none" stroke="#bfbfbf" points="797.5,-1006.5 860.5,-1006.5 "/>
<text text-anchor="middle" x="829" y="-994.5" font-family="Helvetica,sans-Serif" font-size="10.00" fill="#000000"> </text>
</g>
<!-- Node6&#45;&gt;Node1 -->
<g id="edge6" class="edge">
<title>Node6&#45;&gt;Node1</title>
<path fill="none" stroke="#404040" d="M828.1783,-987.3092C827.4319,-961.2456 826.295,-921.5515 825.2765,-885.9886"/>
<polygon fill="none" stroke="#404040" points="825.2657,-885.6061 821.0955,-879.7231 824.922,-873.611 829.0922,-879.494 825.2657,-885.6061"/>
<text text-anchor="middle" x="859" y="-917" font-family="Helvetica,sans-Serif" font-size="10.00" fill="#000000"> &#45;mgr_thread</text>
</g>
<!-- Node7 -->
<g id="node7" class="node">
<title>Node7</title>
<polygon fill="#ffffff" stroke="#bfbfbf" points="210.5,-1114.5 210.5,-1171.5 239.5,-1171.5 239.5,-1114.5 210.5,-1114.5"/>
<text text-anchor="middle" x="225" y="-1159.5" font-family="Helvetica,sans-Serif" font-size="10.00" fill="#000000">int</text>
<polyline fill="none" stroke="#bfbfbf" points="210.5,-1152.5 239.5,-1152.5 "/>
<text text-anchor="middle" x="225" y="-1140.5" font-family="Helvetica,sans-Serif" font-size="10.00" fill="#000000"> </text>
<polyline fill="none" stroke="#bfbfbf" points="210.5,-1133.5 239.5,-1133.5 "/>
<text text-anchor="middle" x="225" y="-1121.5" font-family="Helvetica,sans-Serif" font-size="10.00" fill="#000000"> </text>
</g>
<!-- Node7&#45;&gt;Node1 -->
<g id="edge7" class="edge">
<title>Node7&#45;&gt;Node1</title>
<path fill="none" stroke="#404040" d="M239.5546,-1140.7686C303.3537,-1130.8741 556.3176,-1090.4185 583,-1067 619.1314,-1035.2883 584.529,-998.5092 619,-965 637.7456,-946.7775 653.4754,-961.8375 675,-947 700.7739,-929.2333 697.0128,-914.2825 719,-892 728.9401,-881.9264 739.9959,-871.8351 751.0835,-862.2981"/>
<polygon fill="none" stroke="#404040" points="751.2207,-862.182 753.2167,-855.2526 760.3808,-854.4299 758.3848,-861.3593 751.2207,-862.182"/>
<text text-anchor="middle" x="644.5" y="-1013.5" font-family="Helvetica,sans-Serif" font-size="10.00" fill="#000000"> &#45;threadgo</text>
</g>
<!-- Node9 -->
<g id="node9" class="node">
<title>Node9</title>
<g id="a_node9"><a xlink:href="classSRMWRingBuffer.html" target="_top" xlink:title="{SRMWRingBuffer\&lt; MemoryManager\lUpdate \&gt;\n||+ SRMWRingBuffer()\l+ ~SRMWRingBuffer()\l+ WriteElement()\l+ ReadElement()\l&#45; UpdateNumRWThreads()\l}">
<polygon fill="#ffffff" stroke="#000000" points="834.5,-.5 834.5,-112.5 1025.5,-112.5 1025.5,-.5 834.5,-.5"/>
<text text-anchor="start" x="842.5" y="-100.5" font-family="Helvetica,sans-Serif" font-size="10.00" fill="#000000">SRMWRingBuffer&lt; MemoryManager</text>
<text text-anchor="middle" x="930" y="-89.5" font-family="Helvetica,sans-Serif" font-size="10.00" fill="#000000">Update &gt;</text>
<polyline fill="none" stroke="#000000" points="834.5,-82.5 1025.5,-82.5 "/>
<text text-anchor="middle" x="930" y="-70.5" font-family="Helvetica,sans-Serif" font-size="10.00" fill="#000000"> </text>
<polyline fill="none" stroke="#000000" points="834.5,-63.5 1025.5,-63.5 "/>
<text text-anchor="start" x="842.5" y="-51.5" font-family="Helvetica,sans-Serif" font-size="10.00" fill="#000000">+ SRMWRingBuffer()</text>
<text text-anchor="start" x="842.5" y="-40.5" font-family="Helvetica,sans-Serif" font-size="10.00" fill="#000000">+ ~SRMWRingBuffer()</text>
<text text-anchor="start" x="842.5" y="-29.5" font-family="Helvetica,sans-Serif" font-size="10.00" fill="#000000">+ WriteElement()</text>
<text text-anchor="start" x="842.5" y="-18.5" font-family="Helvetica,sans-Serif" font-size="10.00" fill="#000000">+ ReadElement()</text>
<text text-anchor="start" x="842.5" y="-7.5" font-family="Helvetica,sans-Serif" font-size="10.00" fill="#000000">&#45; UpdateNumRWThreads()</text>
</a>
</g>
</g>
<!-- Node7&#45;&gt;Node9 -->
<g id="edge33" class="edge">
<title>Node7&#45;&gt;Node9</title>
<path fill="none" stroke="#404040" d="M210.2371,-1141.7635C160.1807,-1136.6906 0,-1112.888 0,-1016 0,-1016 0,-1016 0,-200 0,-117.6131 577.4299,-75.9645 822.298,-62.0067"/>
<polygon fill="none" stroke="#404040" points="822.4298,-61.9994 828.1949,-57.6677 834.4107,-61.3234 828.6456,-65.655 822.4298,-61.9994"/>
<text text-anchor="middle" x="34" y="-589" font-family="Helvetica,sans-Serif" font-size="10.00" fill="#000000"> &#45;num_writers</text>
<text text-anchor="middle" x="34" y="-578" font-family="Helvetica,sans-Serif" font-size="10.00" fill="#000000">&#45;numel</text>
</g>
<!-- Node11 -->
<g id="node11" class="node">
<title>Node11</title>
<g id="a_node11"><a xlink:href="classMemoryManagerUpdate.html" target="_top" xlink:title="{MemoryManagerUpdate\n||+ MemoryManagerUpdate()\l+ MemoryManagerUpdate()\l+ IsValid()\l}">
<polygon fill="#ffffff" stroke="#000000" points="541,-160.5 541,-239.5 693,-239.5 693,-160.5 541,-160.5"/>
<text text-anchor="middle" x="617" y="-227.5" font-family="Helvetica,sans-Serif" font-size="10.00" fill="#000000">MemoryManagerUpdate</text>
<polyline fill="none" stroke="#000000" points="541,-220.5 693,-220.5 "/>
<text text-anchor="middle" x="617" y="-208.5" font-family="Helvetica,sans-Serif" font-size="10.00" fill="#000000"> </text>
<polyline fill="none" stroke="#000000" points="541,-201.5 693,-201.5 "/>
<text text-anchor="start" x="549" y="-189.5" font-family="Helvetica,sans-Serif" font-size="10.00" fill="#000000">+ MemoryManagerUpdate()</text>
<text text-anchor="start" x="549" y="-178.5" font-family="Helvetica,sans-Serif" font-size="10.00" fill="#000000">+ MemoryManagerUpdate()</text>
<text text-anchor="start" x="549" y="-167.5" font-family="Helvetica,sans-Serif" font-size="10.00" fill="#000000">+ IsValid()</text>
</a>
</g>
</g>
<!-- Node7&#45;&gt;Node11 -->
<g id="edge30" class="edge">
<title>Node7&#45;&gt;Node11</title>
<path fill="none" stroke="#404040" d="M210.2021,-1136.9056C176.3179,-1121.8552 96,-1079.4844 96,-1016 96,-1016 96,-1016 96,-371 96,-315.9588 137.9901,-312.0512 187,-287 245.5275,-257.0839 420.5965,-227.9605 528.4554,-212.1597"/>
<polygon fill="none" stroke="#404040" points="528.7406,-212.1183 534.1031,-207.2971 540.6159,-210.3929 535.2534,-215.214 528.7406,-212.1183"/>
<text text-anchor="middle" x="129" y="-696.5" font-family="Helvetica,sans-Serif" font-size="10.00" fill="#000000"> +update_idx</text>
</g>
<!-- Node7&#45;&gt;Node12 -->
<g id="edge26" class="edge">
<title>Node7&#45;&gt;Node12</title>
<path fill="none" stroke="#404040" d="M216.2659,-1114.3034C201.9198,-1065.5069 173.9638,-962.9928 164,-874 155.039,-793.9633 170.3467,-589.3419 196,-513 201.3148,-497.1837 208.3905,-481.0962 216.1298,-465.7069"/>
<polygon fill="none" stroke="#404040" points="216.3446,-465.2924 215.5544,-458.1247 221.8668,-454.6384 222.657,-461.8061 216.3446,-465.2924"/>
<text text-anchor="middle" x="215.5" y="-804" font-family="Helvetica,sans-Serif" font-size="10.00" fill="#000000"> +prealloc_num_free</text>
</g>
<!-- Node7&#45;&gt;Node13 -->
<g id="edge19" class="edge">
<title>Node7&#45;&gt;Node13</title>
<path fill="none" stroke="#404040" d="M224.4259,-1114.4371C223.6903,-1076.2773 222.4557,-1006.5538 222,-947 221.8129,-922.5563 208.0091,-912.0446 222,-892 235.279,-872.9753 254.9569,-890.7598 271,-874 314.5435,-828.5115 294.343,-798.8234 314,-739 323.0819,-711.3605 315.0969,-698.22 335,-677 373.4022,-636.0568 432.9347,-612.9738 480.54,-600.3083"/>
<polygon fill="none" stroke="#404040" points="480.7344,-600.2591 485.5665,-594.9065 492.3659,-597.3082 487.5338,-602.6608 480.7344,-600.2591"/>
<text text-anchor="start" x="222" y="-939" font-family="Helvetica,sans-Serif" font-size="10.00" fill="#000000"> +PREALLOC_DEFAULT_NUM</text>
<text text-anchor="middle" x="291" y="-928" font-family="Helvetica,sans-Serif" font-size="10.00" fill="#000000">_INSTANCES</text>
<text text-anchor="middle" x="291" y="-917" font-family="Helvetica,sans-Serif" font-size="10.00" fill="#000000">&#45;prealloc_num_instances</text>
<text text-anchor="middle" x="291" y="-906" font-family="Helvetica,sans-Serif" font-size="10.00" fill="#000000">&#45;instance_size</text>
<text text-anchor="middle" x="291" y="-895" font-family="Helvetica,sans-Serif" font-size="10.00" fill="#000000">&#45;block_last_idx</text>
</g>
<!-- Node14 -->
<g id="node14" class="node">
<title>Node14</title>
<g id="a_node14"><a xlink:href="classRTStore.html" target="_top" xlink:title="{RTStore\&lt; PreallocatedInstance \&gt;\n||+ RTStore()\l+ ~RTStore()\l+ FindItemWithState()\l+ ChangeStateAtIdx()\l+ GetItemAtIdx()\l}">
<polygon fill="#ffffff" stroke="#000000" points="323.5,-756 323.5,-857 502.5,-857 502.5,-756 323.5,-756"/>
<text text-anchor="middle" x="413" y="-845" font-family="Helvetica,sans-Serif" font-size="10.00" fill="#000000">RTStore&lt; PreallocatedInstance &gt;</text>
<polyline fill="none" stroke="#000000" points="323.5,-838 502.5,-838 "/>
<text text-anchor="middle" x="413" y="-826" font-family="Helvetica,sans-Serif" font-size="10.00" fill="#000000"> </text>
<polyline fill="none" stroke="#000000" points="323.5,-819 502.5,-819 "/>
<text text-anchor="start" x="331.5" y="-807" font-family="Helvetica,sans-Serif" font-size="10.00" fill="#000000">+ RTStore()</text>
<text text-anchor="start" x="331.5" y="-796" font-family="Helvetica,sans-Serif" font-size="10.00" fill="#000000">+ ~RTStore()</text>
<text text-anchor="start" x="331.5" y="-785" font-family="Helvetica,sans-Serif" font-size="10.00" fill="#000000">+ FindItemWithState()</text>
<text text-anchor="start" x="331.5" y="-774" font-family="Helvetica,sans-Serif" font-size="10.00" fill="#000000">+ ChangeStateAtIdx()</text>
<text text-anchor="start" x="331.5" y="-763" font-family="Helvetica,sans-Serif" font-size="10.00" fill="#000000">+ GetItemAtIdx()</text>
</a>
</g>
</g>
<!-- Node7&#45;&gt;Node14 -->
<g id="edge21" class="edge">
<title>Node7&#45;&gt;Node14</title>
<path fill="none" stroke="#404040" d="M233.6801,-1114.2604C248.8171,-1064.2318 278.5795,-966.2999 280,-965 308.1669,-939.224 335.3752,-972.2665 364,-947 386.3541,-927.2685 398.5115,-896.7693 405.1228,-869.2227"/>
<polygon fill="none" stroke="#404040" points="405.1788,-868.9623 402.5336,-862.2539 407.7085,-857.2319 410.3538,-863.9403 405.1788,-868.9623"/>
<text text-anchor="middle" x="320" y="-1030" font-family="Helvetica,sans-Serif" font-size="10.00" fill="#000000"> +ITEM_DONE</text>
<text text-anchor="middle" x="320" y="-1019" font-family="Helvetica,sans-Serif" font-size="10.00" fill="#000000">&#45;num_items</text>
<text text-anchor="middle" x="320" y="-1008" font-family="Helvetica,sans-Serif" font-size="10.00" fill="#000000">+ITEM_BUSY</text>
<text text-anchor="middle" x="320" y="-997" font-family="Helvetica,sans-Serif" font-size="10.00" fill="#000000">+ITEM_WAITING</text>
</g>
<!-- Node15 -->
<g id="node15" class="node">
<title>Node15</title>
<g id="a_node15"><a xlink:href="classRTStore_1_1RTStoreItem.html" target="_top" xlink:title="{RTStore\&lt; T \&gt;::RTStoreItem\n||+ RTStoreItem()\l}">
<polygon fill="#ffffff" stroke="#000000" points="369.5,-987.5 369.5,-1044.5 518.5,-1044.5 518.5,-987.5 369.5,-987.5"/>
<text text-anchor="middle" x="444" y="-1032.5" font-family="Helvetica,sans-Serif" font-size="10.00" fill="#000000">RTStore&lt; T &gt;::RTStoreItem</text>
<polyline fill="none" stroke="#000000" points="369.5,-1025.5 518.5,-1025.5 "/>
<text text-anchor="middle" x="444" y="-1013.5" font-family="Helvetica,sans-Serif" font-size="10.00" fill="#000000"> </text>
<polyline fill="none" stroke="#000000" points="369.5,-1006.5 518.5,-1006.5 "/>
<text text-anchor="start" x="377.5" y="-994.5" font-family="Helvetica,sans-Serif" font-size="10.00" fill="#000000">+ RTStoreItem()</text>
</a>
</g>
</g>
<!-- Node7&#45;&gt;Node15 -->
<g id="edge24" class="edge">
<title>Node7&#45;&gt;Node15</title>
<path fill="none" stroke="#404040" d="M239.7093,-1134.47C268.7472,-1117.6306 334.8857,-1079.2763 384.0889,-1050.7429"/>
<polygon fill="none" stroke="#404040" points="384.2442,-1050.653 387.4279,-1044.1827 394.625,-1044.633 391.4412,-1051.1033 384.2442,-1050.653"/>
<text text-anchor="middle" x="357" y="-1088" font-family="Helvetica,sans-Serif" font-size="10.00" fill="#000000"> +item_status</text>
</g>
<!-- Node8 -->
<g id="node8" class="node">
<title>Node8</title>
<polygon fill="#ffffff" stroke="#bfbfbf" points="879,-987.5 879,-1044.5 971,-1044.5 971,-987.5 879,-987.5"/>
<text text-anchor="middle" x="925" y="-1032.5" font-family="Helvetica,sans-Serif" font-size="10.00" fill="#000000">pthread_cond_t</text>
<polyline fill="none" stroke="#bfbfbf" points="879,-1025.5 971,-1025.5 "/>
<text text-anchor="middle" x="925" y="-1013.5" font-family="Helvetica,sans-Serif" font-size="10.00" fill="#000000"> </text>
<polyline fill="none" stroke="#bfbfbf" points="879,-1006.5 971,-1006.5 "/>
<text text-anchor="middle" x="925" y="-994.5" font-family="Helvetica,sans-Serif" font-size="10.00" fill="#000000"> </text>
</g>
<!-- Node8&#45;&gt;Node1 -->
<g id="edge8" class="edge">
<title>Node8&#45;&gt;Node1</title>
<path fill="none" stroke="#404040" d="M921.8807,-987.377C918.1831,-961.3745 910.4561,-922.5306 895,-892 893.6195,-889.2731 892.1364,-886.5581 890.5684,-883.8639"/>
<polygon fill="none" stroke="#404040" points="890.5062,-883.7645 883.9318,-880.8018 884.1379,-873.5937 890.7124,-876.5563 890.5062,-883.7645"/>
<text text-anchor="middle" x="935" y="-917" font-family="Helvetica,sans-Serif" font-size="10.00" fill="#000000"> &#45;mgr_go</text>
</g>
<!-- Node9&#45;&gt;Node1 -->
<g id="edge9" class="edge">
<title>Node9&#45;&gt;Node1</title>
<path fill="none" stroke="#404040" d="M930,-112.7249C930,-139.2049 930,-171.2253 930,-200 930,-586 930,-586 930,-586 930,-636.886 906.6497,-688.3485 881.7652,-728.7441"/>
<polygon fill="none" stroke="#404040" points="881.6683,-728.8971 881.8362,-736.1063 875.2462,-739.0341 875.0783,-731.8249 881.6683,-728.8971"/>
<text text-anchor="middle" x="968" y="-368.5" font-family="Helvetica,sans-Serif" font-size="10.00" fill="#000000"> &#45;update_queue</text>
</g>
<!-- Node10 -->
<g id="node10" class="node">
<title>Node10</title>
<g id="a_node10"><a xlink:href="classRTDataStruct__Updater.html" target="_top" xlink:title="{RTDataStruct_Updater\n||# UpdateNumRWThreads()\l}">
<polygon fill="#ffffff" stroke="#000000" points="957.5,-171.5 957.5,-228.5 1106.5,-228.5 1106.5,-171.5 957.5,-171.5"/>
<text text-anchor="middle" x="1032" y="-216.5" font-family="Helvetica,sans-Serif" font-size="10.00" fill="#000000">RTDataStruct_Updater</text>
<polyline fill="none" stroke="#000000" points="957.5,-209.5 1106.5,-209.5 "/>
<text text-anchor="middle" x="1032" y="-197.5" font-family="Helvetica,sans-Serif" font-size="10.00" fill="#000000"> </text>
<polyline fill="none" stroke="#000000" points="957.5,-190.5 1106.5,-190.5 "/>
<text text-anchor="start" x="965.5" y="-178.5" font-family="Helvetica,sans-Serif" font-size="10.00" fill="#000000"># UpdateNumRWThreads()</text>
</a>
</g>
</g>
<!-- Node10&#45;&gt;Node9 -->
<g id="edge10" class="edge">
<title>Node10&#45;&gt;Node9</title>
<path fill="none" stroke="#191970" d="M1005.7763,-163.1068C994.8851,-147.7845 982.0027,-129.6606 969.9786,-112.7445"/>
<polygon fill="none" stroke="#191970" points="1002.9576,-165.1825 1011.6039,-171.3055 1008.6631,-161.127 1002.9576,-165.1825"/>
</g>
<!-- Node11&#45;&gt;Node9 -->
<g id="edge11" class="edge">
<title>Node11&#45;&gt;Node9</title>
<path fill="none" stroke="#404040" d="M693.1682,-165.0794C732.2873,-147.1447 780.5938,-124.9977 823.3552,-105.3931"/>
<polygon fill="none" stroke="#404040" points="823.4782,-105.3367 827.2653,-99.2001 834.3864,-100.3356 830.5994,-106.4722 823.4782,-105.3367"/>
<text text-anchor="middle" x="789.5" y="-134" font-family="Helvetica,sans-Serif" font-size="10.00" fill="#000000"> &#45;tmpread</text>
</g>
<!-- Node12&#45;&gt;Node11 -->
<g id="edge12" class="edge">
<title>Node12&#45;&gt;Node11</title>
<path fill="none" stroke="#404040" d="M354.3213,-331.3394C406.8419,-305.0791 475.7441,-270.6279 529.8026,-243.5987"/>
<polygon fill="none" stroke="#404040" points="530.0208,-243.4897 533.5985,-237.2286 540.7539,-238.123 537.1762,-244.3841 530.0208,-243.4897"/>
<text text-anchor="middle" x="517.5" y="-261" font-family="Helvetica,sans-Serif" font-size="10.00" fill="#000000"> +tofree</text>
</g>
<!-- Node12&#45;&gt;Node12 -->
<g id="edge13" class="edge">
<title>Node12&#45;&gt;Node12</title>
<path fill="none" stroke="#404040" d="M354.1632,-388.632C364.8708,-385.6762 372,-379.7988 372,-371 372,-365.7757 369.4867,-361.5813 365.2033,-358.4169"/>
<polygon fill="none" stroke="#404040" points="365.0761,-358.3588 357.956,-359.501 354.1632,-353.368 361.2833,-352.2257 365.0761,-358.3588"/>
<text text-anchor="middle" x="411" y="-368.5" font-family="Helvetica,sans-Serif" font-size="10.00" fill="#000000"> +prealloc_next</text>
</g>
<!-- Node12&#45;&gt;Node13 -->
<g id="edge16" class="edge">
<title>Node12&#45;&gt;Node13</title>
<path fill="none" stroke="#404040" d="M354.1214,-408.72C386.4041,-423.6903 424.2497,-440.7095 459,-455 480.4572,-463.8239 491.1926,-457.0068 508,-473 516.7435,-481.3199 523.9675,-491.4879 529.9163,-502.2792"/>
<polygon fill="none" stroke="#404040" points="530.0389,-502.5219 536.3144,-506.074 535.4492,-513.233 529.1737,-509.6809 530.0389,-502.5219"/>
<text text-anchor="middle" x="561" y="-487" font-family="Helvetica,sans-Serif" font-size="10.00" fill="#000000"> &#45;blocks_list</text>
<text text-anchor="middle" x="561" y="-476" font-family="Helvetica,sans-Serif" font-size="10.00" fill="#000000">&#45;prealloc_base</text>
</g>
<!-- Node13&#45;&gt;Node11 -->
<g id="edge28" class="edge">
<title>Node13&#45;&gt;Node11</title>
<path fill="none" stroke="#404040" d="M619.5051,-569.1527C674.1747,-550.9138 749.668,-515.9163 785,-455 822.462,-390.4112 823.8032,-350.792 785,-287 767.0612,-257.5087 735.5381,-237.5691 704.6073,-224.309"/>
<polygon fill="none" stroke="#404040" points="704.389,-224.2207 697.3268,-225.6787 693.2648,-219.7205 700.327,-218.2626 704.389,-224.2207"/>
<text text-anchor="middle" x="841.5" y="-368.5" font-family="Helvetica,sans-Serif" font-size="10.00" fill="#000000"> +which_pt</text>
</g>
<!-- Node13&#45;&gt;Node12 -->
<g id="edge14" class="edge">
<title>Node13&#45;&gt;Node12</title>
<path fill="none" stroke="#404040" d="M492.2368,-537.2132C454.2297,-508.133 405.4156,-470.7842 363.6905,-438.8593"/>
<polygon fill="none" stroke="#404040" points="363.6079,-438.7961 356.4121,-438.3269 354.0775,-431.5042 361.2734,-431.9733 363.6079,-438.7961"/>
<text text-anchor="middle" x="468.5" y="-481.5" font-family="Helvetica,sans-Serif" font-size="10.00" fill="#000000"> &#45;prealloc_mgr</text>
</g>
<!-- Node14&#45;&gt;Node13 -->
<g id="edge20" class="edge">
<title>Node14&#45;&gt;Node13</title>
<path fill="none" stroke="#404040" d="M470.6116,-755.5578C480.8757,-744.8001 490.8705,-733.0394 499,-721 505.4559,-711.4391 514.4912,-691.7096 523.4682,-670.216"/>
<polygon fill="none" stroke="#404040" points="523.575,-669.9564 522.1603,-662.8854 528.1433,-658.86 529.558,-665.931 523.575,-669.9564"/>
<text text-anchor="middle" x="547.5" y="-696.5" font-family="Helvetica,sans-Serif" font-size="10.00" fill="#000000"> &#45;ready_list</text>
</g>
<!-- Node15&#45;&gt;Node14 -->
<g id="edge22" class="edge">
<title>Node15&#45;&gt;Node14</title>
<path fill="none" stroke="#404040" d="M439.7546,-987.3092C435.286,-957.1101 428.1097,-908.6122 422.3139,-869.4436"/>
<polygon fill="none" stroke="#404040" points="422.2816,-869.2248 417.4463,-863.875 420.5249,-857.3541 425.3602,-862.7039 422.2816,-869.2248"/>
<text text-anchor="middle" x="451.5" y="-917" font-family="Helvetica,sans-Serif" font-size="10.00" fill="#000000"> &#45;items</text>
</g>
<!-- Node16 -->
<g id="node16" class="node">
<title>Node16</title>
<g id="a_node16"><a xlink:href="classT.html" target="_top" xlink:title="{T\n||}">
<polygon fill="#ffffff" stroke="#000000" points="429.5,-1114.5 429.5,-1171.5 458.5,-1171.5 458.5,-1114.5 429.5,-1114.5"/>
<text text-anchor="middle" x="444" y="-1159.5" font-family="Helvetica,sans-Serif" font-size="10.00" fill="#000000">T</text>
<polyline fill="none" stroke="#000000" points="429.5,-1152.5 458.5,-1152.5 "/>
<text text-anchor="middle" x="444" y="-1140.5" font-family="Helvetica,sans-Serif" font-size="10.00" fill="#000000"> </text>
<polyline fill="none" stroke="#000000" points="429.5,-1133.5 458.5,-1133.5 "/>
<text text-anchor="middle" x="444" y="-1121.5" font-family="Helvetica,sans-Serif" font-size="10.00" fill="#000000"> </text>
</a>
</g>
</g>
<!-- Node16&#45;&gt;Node15 -->
<g id="edge23" class="edge">
<title>Node16&#45;&gt;Node15</title>
<path fill="none" stroke="#191970" d="M444,-1104.286C444,-1085.1438 444,-1062.4372 444,-1044.8456"/>
<polygon fill="none" stroke="#191970" points="440.5001,-1104.4987 444,-1114.4987 447.5001,-1104.4988 440.5001,-1104.4987"/>
</g>
<!-- Node17 -->
<g id="node17" class="node">
<title>Node17</title>
<polygon fill="#ffffff" stroke="#bfbfbf" points="205,-557.5 205,-614.5 323,-614.5 323,-557.5 205,-557.5"/>
<text text-anchor="middle" x="264" y="-602.5" font-family="Helvetica,sans-Serif" font-size="10.00" fill="#000000">anonymous:&#45;predata</text>
<polyline fill="none" stroke="#bfbfbf" points="205,-595.5 323,-595.5 "/>
<text text-anchor="middle" x="264" y="-583.5" font-family="Helvetica,sans-Serif" font-size="10.00" fill="#000000"> </text>
<polyline fill="none" stroke="#bfbfbf" points="205,-576.5 323,-576.5 "/>
<text text-anchor="middle" x="264" y="-564.5" font-family="Helvetica,sans-Serif" font-size="10.00" fill="#000000"> </text>
</g>
<!-- Node17&#45;&gt;Node12 -->
<g id="edge27" class="edge">
<title>Node17&#45;&gt;Node12</title>
<path fill="none" stroke="#404040" d="M265.4607,-557.4497C266.6527,-534.1527 268.4087,-499.8305 270.0902,-466.9635"/>
<polygon fill="none" stroke="#404040" points="270.092,-466.9279 266.4038,-460.7314 270.7052,-454.9436 274.3934,-461.1402 270.092,-466.9279"/>
<text text-anchor="middle" x="292.5" y="-481.5" font-family="Helvetica,sans-Serif" font-size="10.00" fill="#000000"> &#45;predata</text>
</g>
<!-- Node18 -->
<g id="node18" class="node">
<title>Node18</title>
<polygon fill="#ffffff" stroke="#bfbfbf" points="468,-342.5 468,-399.5 602,-399.5 602,-342.5 468,-342.5"/>
<text text-anchor="middle" x="535" y="-387.5" font-family="Helvetica,sans-Serif" font-size="10.00" fill="#000000">anonymous:+updatedat</text>
<polyline fill="none" stroke="#bfbfbf" points="468,-380.5 602,-380.5 "/>
<text text-anchor="middle" x="535" y="-368.5" font-family="Helvetica,sans-Serif" font-size="10.00" fill="#000000"> </text>
<polyline fill="none" stroke="#bfbfbf" points="468,-361.5 602,-361.5 "/>
<text text-anchor="middle" x="535" y="-349.5" font-family="Helvetica,sans-Serif" font-size="10.00" fill="#000000"> </text>
</g>
<!-- Node18&#45;&gt;Node11 -->
<g id="edge29" class="edge">
<title>Node18&#45;&gt;Node11</title>
<path fill="none" stroke="#404040" d="M545.2315,-342.0776C553.7998,-318.8862 566.8697,-285.7455 581,-258 582.2933,-255.4605 583.6613,-252.8863 585.0786,-250.3063"/>
<polygon fill="none" stroke="#404040" points="585.162,-250.1602 584.6667,-242.9662 591.1168,-239.7419 591.6122,-246.936 585.162,-250.1602"/>
<text text-anchor="middle" x="611.5" y="-261" font-family="Helvetica,sans-Serif" font-size="10.00" fill="#000000"> +updatedat</text>
</g>
<!-- Node19 -->
<g id="node19" class="node">
<title>Node19</title>
<polygon fill="#ffffff" stroke="#bfbfbf" points="620,-342.5 620,-399.5 776,-399.5 776,-342.5 620,-342.5"/>
<text text-anchor="middle" x="698" y="-387.5" font-family="Helvetica,sans-Serif" font-size="10.00" fill="#000000">MemoryManagerUpdateType</text>
<polyline fill="none" stroke="#bfbfbf" points="620,-380.5 776,-380.5 "/>
<text text-anchor="middle" x="698" y="-368.5" font-family="Helvetica,sans-Serif" font-size="10.00" fill="#000000"> </text>
<polyline fill="none" stroke="#bfbfbf" points="620,-361.5 776,-361.5 "/>
<text text-anchor="middle" x="698" y="-349.5" font-family="Helvetica,sans-Serif" font-size="10.00" fill="#000000"> </text>
</g>
<!-- Node19&#45;&gt;Node11 -->
<g id="edge31" class="edge">
<title>Node19&#45;&gt;Node11</title>
<path fill="none" stroke="#404040" d="M684.4424,-342.3784C672.6217,-317.4237 655.197,-280.638 641.0202,-250.7093"/>
<polygon fill="none" stroke="#404040" points="640.9014,-250.4584 634.7179,-246.7484 635.7643,-239.6136 641.9478,-243.3236 640.9014,-250.4584"/>
<text text-anchor="middle" x="684.5" y="-261" font-family="Helvetica,sans-Serif" font-size="10.00" fill="#000000"> +update_type</text>
</g>
<!-- Node20 -->
<g id="node20" class="node">
<title>Node20</title>
<polygon fill="#ffffff" stroke="#bfbfbf" points="1124,-171.5 1124,-228.5 1236,-228.5 1236,-171.5 1124,-171.5"/>
<text text-anchor="middle" x="1180" y="-216.5" font-family="Helvetica,sans-Serif" font-size="10.00" fill="#000000">jack_ringbuffer_t **</text>
<polyline fill="none" stroke="#bfbfbf" points="1124,-209.5 1236,-209.5 "/>
<text text-anchor="middle" x="1180" y="-197.5" font-family="Helvetica,sans-Serif" font-size="10.00" fill="#000000"> </text>
<polyline fill="none" stroke="#bfbfbf" points="1124,-190.5 1236,-190.5 "/>
<text text-anchor="middle" x="1180" y="-178.5" font-family="Helvetica,sans-Serif" font-size="10.00" fill="#000000"> </text>
</g>
<!-- Node20&#45;&gt;Node9 -->
<g id="edge32" class="edge">
<title>Node20&#45;&gt;Node9</title>
<path fill="none" stroke="#404040" d="M1134.7231,-171.306C1128.4637,-167.4553 1122.0933,-163.5964 1116,-160 1090.4066,-144.8945 1062.5377,-129.0656 1036.3488,-114.4586"/>
<polygon fill="none" stroke="#404040" points="1036.1166,-114.3295 1028.9287,-114.9081 1025.63,-108.4957 1032.8179,-107.9171 1036.1166,-114.3295"/>
<text text-anchor="middle" x="1098.5" y="-134" font-family="Helvetica,sans-Serif" font-size="10.00" fill="#000000"> &#45;wbufs</text>
</g>
</g>
</svg>
