<?xml version="1.0" encoding="UTF-8" standalone="no"?>
<!DOCTYPE svg PUBLIC "-//W3C//DTD SVG 1.1//EN"
 "http://www.w3.org/Graphics/SVG/1.1/DTD/svg11.dtd">
<!-- Generated by graphviz version 2.40.1 (20161225.0304)
 -->
<!-- Title: ParsedExpression Pages: 1 -->
<svg width="513pt" height="695pt"
 viewBox="0.00 0.00 512.92 695.00" xmlns="http://www.w3.org/2000/svg" xmlns:xlink="http://www.w3.org/1999/xlink">
<g id="graph0" class="graph" transform="scale(1 1) rotate(0) translate(4 691)">
<title>ParsedExpression</title>
<polygon fill="#ffffff" stroke="transparent" points="-4,4 -4,-691 508.9204,-691 508.9204,4 -4,4"/>
<!-- Node1 -->
<g id="node1" class="node">
<title>Node1</title>
<polygon fill="#bfbfbf" stroke="#000000" points="133,-.5 133,-101.5 262,-101.5 262,-.5 133,-.5"/>
<text text-anchor="middle" x="197.5" y="-89.5" font-family="Helvetica,sans-Serif" font-size="10.00" fill="#000000">ParsedExpression</text>
<polyline fill="none" stroke="#000000" points="133,-82.5 262,-82.5 "/>
<text text-anchor="middle" x="197.5" y="-70.5" font-family="Helvetica,sans-Serif" font-size="10.00" fill="#000000"> </text>
<polyline fill="none" stroke="#000000" points="133,-63.5 262,-63.5 "/>
<text text-anchor="start" x="141" y="-51.5" font-family="Helvetica,sans-Serif" font-size="10.00" fill="#000000">+ ParsedExpression()</text>
<text text-anchor="start" x="141" y="-40.5" font-family="Helvetica,sans-Serif" font-size="10.00" fill="#000000">+ ~ParsedExpression()</text>
<text text-anchor="start" x="141" y="-29.5" font-family="Helvetica,sans-Serif" font-size="10.00" fill="#000000">+ Evaluate()</text>
<text text-anchor="start" x="141" y="-18.5" font-family="Helvetica,sans-Serif" font-size="10.00" fill="#000000">+ IsStatic()</text>
<text text-anchor="start" x="141" y="-7.5" font-family="Helvetica,sans-Serif" font-size="10.00" fill="#000000">+ Print()</text>
</g>
<!-- Node2 -->
<g id="node2" class="node">
<title>Node2</title>
<g id="a_node2"><a xlink:href="classCfgToken.html" target="_top" xlink:title="{CfgToken\n||+ CfgToken()\l+ Print()\l+ Evaluate()\l}">
<polygon fill="#ffffff" stroke="#000000" points="179.5,-254.5 179.5,-333.5 259.5,-333.5 259.5,-254.5 179.5,-254.5"/>
<text text-anchor="middle" x="219.5" y="-321.5" font-family="Helvetica,sans-Serif" font-size="10.00" fill="#000000">CfgToken</text>
<polyline fill="none" stroke="#000000" points="179.5,-314.5 259.5,-314.5 "/>
<text text-anchor="middle" x="219.5" y="-302.5" font-family="Helvetica,sans-Serif" font-size="10.00" fill="#000000"> </text>
<polyline fill="none" stroke="#000000" points="179.5,-295.5 259.5,-295.5 "/>
<text text-anchor="start" x="187.5" y="-283.5" font-family="Helvetica,sans-Serif" font-size="10.00" fill="#000000">+ CfgToken()</text>
<text text-anchor="start" x="187.5" y="-272.5" font-family="Helvetica,sans-Serif" font-size="10.00" fill="#000000">+ Print()</text>
<text text-anchor="start" x="187.5" y="-261.5" font-family="Helvetica,sans-Serif" font-size="10.00" fill="#000000">+ Evaluate()</text>
</a>
</g>
</g>
<!-- Node2&#45;&gt;Node1 -->
<g id="edge1" class="edge">
<title>Node2&#45;&gt;Node1</title>
<path fill="none" stroke="#404040" d="M203.313,-254.397C198.1331,-239.7629 193.0758,-222.8728 190.5,-207 185.5634,-176.5792 186.3913,-142.4147 188.8376,-113.8298"/>
<polygon fill="none" stroke="#404040" points="188.871,-113.4816 185.462,-107.1271 190.0166,-101.5364 193.4255,-107.8909 188.871,-113.4816"/>
<text text-anchor="middle" x="207.5" y="-175.5" font-family="Helvetica,sans-Serif" font-size="10.00" fill="#000000"> +start</text>
</g>
<!-- Node10 -->
<g id="node10" class="node">
<title>Node10</title>
<g id="a_node10"><a xlink:href="classCfgMathOperation.html" target="_top" xlink:title="{CfgMathOperation\n||+ CfgMathOperation()\l}">
<polygon fill="#ffffff" stroke="#000000" points="233.5,-149.5 233.5,-206.5 357.5,-206.5 357.5,-149.5 233.5,-149.5"/>
<text text-anchor="middle" x="295.5" y="-194.5" font-family="Helvetica,sans-Serif" font-size="10.00" fill="#000000">CfgMathOperation</text>
<polyline fill="none" stroke="#000000" points="233.5,-187.5 357.5,-187.5 "/>
<text text-anchor="middle" x="295.5" y="-175.5" font-family="Helvetica,sans-Serif" font-size="10.00" fill="#000000"> </text>
<polyline fill="none" stroke="#000000" points="233.5,-168.5 357.5,-168.5 "/>
<text text-anchor="start" x="241.5" y="-156.5" font-family="Helvetica,sans-Serif" font-size="10.00" fill="#000000">+ CfgMathOperation()</text>
</a>
</g>
</g>
<!-- Node2&#45;&gt;Node10 -->
<g id="edge13" class="edge">
<title>Node2&#45;&gt;Node10</title>
<path fill="none" stroke="#404040" d="M215.6468,-254.222C216.2786,-244.1478 218.4464,-233.721 223.5,-225 225.5208,-221.5128 227.9162,-218.2383 230.5847,-215.1705"/>
<polygon fill="none" stroke="#404040" points="230.7575,-215.0004 232.2265,-207.9405 239.3083,-206.5811 237.8393,-213.641 230.7575,-215.0004"/>
<text text-anchor="middle" x="249.5" y="-228" font-family="Helvetica,sans-Serif" font-size="10.00" fill="#000000"> +operand</text>
</g>
<!-- Node3 -->
<g id="node3" class="node">
<title>Node3</title>
<polygon fill="#ffffff" stroke="#bfbfbf" points="177.5,-447.5 177.5,-504.5 261.5,-504.5 261.5,-447.5 177.5,-447.5"/>
<text text-anchor="middle" x="219.5" y="-492.5" font-family="Helvetica,sans-Serif" font-size="10.00" fill="#000000">CfgTokenType</text>
<polyline fill="none" stroke="#bfbfbf" points="177.5,-485.5 261.5,-485.5 "/>
<text text-anchor="middle" x="219.5" y="-473.5" font-family="Helvetica,sans-Serif" font-size="10.00" fill="#000000"> </text>
<polyline fill="none" stroke="#bfbfbf" points="177.5,-466.5 261.5,-466.5 "/>
<text text-anchor="middle" x="219.5" y="-454.5" font-family="Helvetica,sans-Serif" font-size="10.00" fill="#000000"> </text>
</g>
<!-- Node3&#45;&gt;Node2 -->
<g id="edge2" class="edge">
<title>Node3&#45;&gt;Node2</title>
<path fill="none" stroke="#404040" d="M219.5,-447.1616C219.5,-419.9649 219.5,-378.5787 219.5,-345.6807"/>
<polygon fill="none" stroke="#404040" points="219.5001,-345.5351 215.5,-339.5351 219.5,-333.5351 223.5,-339.5351 219.5001,-345.5351"/>
<text text-anchor="middle" x="233" y="-360.5" font-family="Helvetica,sans-Serif" font-size="10.00" fill="#000000"> +cvt</text>
</g>
<!-- Node4 -->
<g id="node4" class="node">
<title>Node4</title>
<g id="a_node4"><a xlink:href="classUserVariable.html" target="_top" xlink:title="{UserVariable\n||+ UserVariable()\l+ ~UserVariable()\l+ RaisePrecision()\l+ operator\&gt;()\l+ operator==()\l+ operator!=()\l+ operator+=()\l+ GetDelta()\l+ operator&#45;=()\l+ operator*=()\land 18 more...\l}">
<polygon fill="#ffffff" stroke="#000000" points="0,-392.5 0,-559.5 107,-559.5 107,-392.5 0,-392.5"/>
<text text-anchor="middle" x="53.5" y="-547.5" font-family="Helvetica,sans-Serif" font-size="10.00" fill="#000000">UserVariable</text>
<polyline fill="none" stroke="#000000" points="0,-540.5 107,-540.5 "/>
<text text-anchor="middle" x="53.5" y="-528.5" font-family="Helvetica,sans-Serif" font-size="10.00" fill="#000000"> </text>
<polyline fill="none" stroke="#000000" points="0,-521.5 107,-521.5 "/>
<text text-anchor="start" x="8" y="-509.5" font-family="Helvetica,sans-Serif" font-size="10.00" fill="#000000">+ UserVariable()</text>
<text text-anchor="start" x="8" y="-498.5" font-family="Helvetica,sans-Serif" font-size="10.00" fill="#000000">+ ~UserVariable()</text>
<text text-anchor="start" x="8" y="-487.5" font-family="Helvetica,sans-Serif" font-size="10.00" fill="#000000">+ RaisePrecision()</text>
<text text-anchor="start" x="8" y="-476.5" font-family="Helvetica,sans-Serif" font-size="10.00" fill="#000000">+ operator&gt;()</text>
<text text-anchor="start" x="8" y="-465.5" font-family="Helvetica,sans-Serif" font-size="10.00" fill="#000000">+ operator==()</text>
<text text-anchor="start" x="8" y="-454.5" font-family="Helvetica,sans-Serif" font-size="10.00" fill="#000000">+ operator!=()</text>
<text text-anchor="start" x="8" y="-443.5" font-family="Helvetica,sans-Serif" font-size="10.00" fill="#000000">+ operator+=()</text>
<text text-anchor="start" x="8" y="-432.5" font-family="Helvetica,sans-Serif" font-size="10.00" fill="#000000">+ GetDelta()</text>
<text text-anchor="start" x="8" y="-421.5" font-family="Helvetica,sans-Serif" font-size="10.00" fill="#000000">+ operator&#45;=()</text>
<text text-anchor="start" x="8" y="-410.5" font-family="Helvetica,sans-Serif" font-size="10.00" fill="#000000">+ operator*=()</text>
<text text-anchor="start" x="8" y="-399.5" font-family="Helvetica,sans-Serif" font-size="10.00" fill="#000000">and 18 more...</text>
</a>
</g>
</g>
<!-- Node4&#45;&gt;Node2 -->
<g id="edge3" class="edge">
<title>Node4&#45;&gt;Node2</title>
<path fill="none" stroke="#404040" d="M107.1662,-417.1612C129.1595,-393.0481 154.3063,-365.4775 175.2238,-342.5438"/>
<polygon fill="none" stroke="#404040" points="175.2263,-342.541 176.3143,-335.4125 183.3129,-333.675 182.225,-340.8036 175.2263,-342.541"/>
<text text-anchor="middle" x="180" y="-366" font-family="Helvetica,sans-Serif" font-size="10.00" fill="#000000"> +val</text>
<text text-anchor="middle" x="180" y="-355" font-family="Helvetica,sans-Serif" font-size="10.00" fill="#000000">+var</text>
</g>
<!-- Node4&#45;&gt;Node4 -->
<g id="edge6" class="edge">
<title>Node4&#45;&gt;Node4</title>
<path fill="none" stroke="#404040" d="M107.1322,-496.0656C117.5804,-493.7354 125,-487.0469 125,-476 125,-469.4409 122.3843,-464.4183 118.0721,-460.9322"/>
<polygon fill="none" stroke="#404040" points="118.0471,-460.9209 110.9275,-462.0659 107.1322,-455.9344 114.2518,-454.7893 118.0471,-460.9209"/>
<text text-anchor="middle" x="142" y="-473.5" font-family="Helvetica,sans-Serif" font-size="10.00" fill="#000000"> +next</text>
</g>
<!-- Node5 -->
<g id="node5" class="node">
<title>Node5</title>
<polygon fill="#ffffff" stroke="#bfbfbf" points="270.5,-629.5 270.5,-686.5 308.5,-686.5 308.5,-629.5 270.5,-629.5"/>
<text text-anchor="middle" x="289.5" y="-674.5" font-family="Helvetica,sans-Serif" font-size="10.00" fill="#000000">char</text>
<polyline fill="none" stroke="#bfbfbf" points="270.5,-667.5 308.5,-667.5 "/>
<text text-anchor="middle" x="289.5" y="-655.5" font-family="Helvetica,sans-Serif" font-size="10.00" fill="#000000"> </text>
<polyline fill="none" stroke="#bfbfbf" points="270.5,-648.5 308.5,-648.5 "/>
<text text-anchor="middle" x="289.5" y="-636.5" font-family="Helvetica,sans-Serif" font-size="10.00" fill="#000000"> </text>
</g>
<!-- Node5&#45;&gt;Node4 -->
<g id="edge4" class="edge">
<title>Node5&#45;&gt;Node4</title>
<path fill="none" stroke="#404040" d="M270.3395,-641.3492C251.1938,-624.8753 220.7641,-599.1327 193.5,-578 182.6786,-569.6122 179.5837,-568.0379 168.5,-560 151.9251,-547.9798 134.0397,-534.9463 117.4261,-522.8129"/>
<polygon fill="none" stroke="#404040" points="116.9584,-522.4712 109.7539,-522.1611 107.2692,-515.3915 114.4737,-515.7016 116.9584,-522.4712"/>
<text text-anchor="middle" x="253" y="-603" font-family="Helvetica,sans-Serif" font-size="10.00" fill="#000000"> +value</text>
<text text-anchor="middle" x="253" y="-592" font-family="Helvetica,sans-Serif" font-size="10.00" fill="#000000">+data</text>
<text text-anchor="middle" x="253" y="-581" font-family="Helvetica,sans-Serif" font-size="10.00" fill="#000000">+name</text>
</g>
<!-- Node7 -->
<g id="node7" class="node">
<title>Node7</title>
<g id="a_node7"><a xlink:href="classEventParameter.html" target="_top" xlink:title="{EventParameter\n||+ EventParameter()\l}">
<polygon fill="#ffffff" stroke="#000000" points="318,-447.5 318,-504.5 431,-504.5 431,-447.5 318,-447.5"/>
<text text-anchor="middle" x="374.5" y="-492.5" font-family="Helvetica,sans-Serif" font-size="10.00" fill="#000000">EventParameter</text>
<polyline fill="none" stroke="#000000" points="318,-485.5 431,-485.5 "/>
<text text-anchor="middle" x="374.5" y="-473.5" font-family="Helvetica,sans-Serif" font-size="10.00" fill="#000000"> </text>
<polyline fill="none" stroke="#000000" points="318,-466.5 431,-466.5 "/>
<text text-anchor="start" x="326" y="-454.5" font-family="Helvetica,sans-Serif" font-size="10.00" fill="#000000">+ EventParameter()</text>
</a>
</g>
</g>
<!-- Node5&#45;&gt;Node7 -->
<g id="edge8" class="edge">
<title>Node5&#45;&gt;Node7</title>
<path fill="none" stroke="#404040" d="M302.9685,-629.1616C317.2681,-598.5436 339.9668,-549.9417 355.9525,-515.7136"/>
<polygon fill="none" stroke="#404040" points="356.0166,-515.5762 354.9313,-508.4472 361.0945,-504.7035 362.1798,-511.8325 356.0166,-515.5762"/>
<text text-anchor="middle" x="343.5" y="-592" font-family="Helvetica,sans-Serif" font-size="10.00" fill="#000000"> +name</text>
</g>
<!-- Node5&#45;&gt;Node10 -->
<g id="edge14" class="edge">
<title>Node5&#45;&gt;Node10</title>
<path fill="none" stroke="#404040" d="M289.1704,-629.3097C288.6211,-575.1174 287.7422,-453.9849 289.5,-352 290.2864,-306.3769 292.2317,-254.0549 293.6957,-218.7993"/>
<polygon fill="none" stroke="#404040" points="293.7034,-218.6159 289.9604,-212.4523 294.2103,-206.6266 297.9533,-212.7902 293.7034,-218.6159"/>
<text text-anchor="middle" x="317" y="-366" font-family="Helvetica,sans-Serif" font-size="10.00" fill="#000000"> +otype</text>
<text text-anchor="middle" x="317" y="-355" font-family="Helvetica,sans-Serif" font-size="10.00" fill="#000000">+operators</text>
</g>
<!-- Node6 -->
<g id="node6" class="node">
<title>Node6</title>
<polygon fill="#ffffff" stroke="#bfbfbf" points="63,-629.5 63,-686.5 148,-686.5 148,-629.5 63,-629.5"/>
<text text-anchor="middle" x="105.5" y="-674.5" font-family="Helvetica,sans-Serif" font-size="10.00" fill="#000000">CoreDataType</text>
<polyline fill="none" stroke="#bfbfbf" points="63,-667.5 148,-667.5 "/>
<text text-anchor="middle" x="105.5" y="-655.5" font-family="Helvetica,sans-Serif" font-size="10.00" fill="#000000"> </text>
<polyline fill="none" stroke="#bfbfbf" points="63,-648.5 148,-648.5 "/>
<text text-anchor="middle" x="105.5" y="-636.5" font-family="Helvetica,sans-Serif" font-size="10.00" fill="#000000"> </text>
</g>
<!-- Node6&#45;&gt;Node4 -->
<g id="edge5" class="edge">
<title>Node6&#45;&gt;Node4</title>
<path fill="none" stroke="#404040" d="M97.2604,-629.1616C92.7178,-613.2622 86.7895,-592.5133 80.7703,-571.4459"/>
<polygon fill="none" stroke="#404040" points="80.7218,-571.2761 75.2274,-566.6059 77.4251,-559.7378 82.9195,-564.4081 80.7218,-571.2761"/>
<text text-anchor="middle" x="109.5" y="-592" font-family="Helvetica,sans-Serif" font-size="10.00" fill="#000000"> +type</text>
</g>
<!-- Node6&#45;&gt;Node7 -->
<g id="edge10" class="edge">
<title>Node6&#45;&gt;Node7</title>
<path fill="none" stroke="#404040" d="M119.8151,-629.087C130.7317,-607.5642 144.6855,-581.3493 149.5,-578 194.1318,-546.9509 220.7137,-581.8489 270.5,-560 295.59,-548.9892 319.6562,-530.2702 338.3071,-513.2938"/>
<polygon fill="none" stroke="#404040" points="338.5218,-513.0925 340.1625,-506.0705 347.2754,-504.8842 345.6347,-511.9062 338.5218,-513.0925"/>
<text text-anchor="middle" x="169.5" y="-592" font-family="Helvetica,sans-Serif" font-size="10.00" fill="#000000"> +dtype</text>
</g>
<!-- Node7&#45;&gt;Node2 -->
<g id="edge7" class="edge">
<title>Node7&#45;&gt;Node2</title>
<path fill="none" stroke="#404040" d="M375.5639,-447.3025C375.0827,-419.9661 370.2845,-379.0785 348.5,-352 329.2597,-328.084 298.0521,-313.6951 271.1516,-305.2316"/>
<polygon fill="none" stroke="#404040" points="271.0664,-305.2068 264.1873,-307.3698 259.5449,-301.8518 266.424,-299.6888 271.0664,-305.2068"/>
<text text-anchor="middle" x="388" y="-360.5" font-family="Helvetica,sans-Serif" font-size="10.00" fill="#000000"> +evparam</text>
</g>
<!-- Node8 -->
<g id="node8" class="node">
<title>Node8</title>
<polygon fill="#ffffff" stroke="#bfbfbf" points="462,-629.5 462,-686.5 491,-686.5 491,-629.5 462,-629.5"/>
<text text-anchor="middle" x="476.5" y="-674.5" font-family="Helvetica,sans-Serif" font-size="10.00" fill="#000000">int</text>
<polyline fill="none" stroke="#bfbfbf" points="462,-667.5 491,-667.5 "/>
<text text-anchor="middle" x="476.5" y="-655.5" font-family="Helvetica,sans-Serif" font-size="10.00" fill="#000000"> </text>
<polyline fill="none" stroke="#bfbfbf" points="462,-648.5 491,-648.5 "/>
<text text-anchor="middle" x="476.5" y="-636.5" font-family="Helvetica,sans-Serif" font-size="10.00" fill="#000000"> </text>
</g>
<!-- Node8&#45;&gt;Node7 -->
<g id="edge9" class="edge">
<title>Node8&#45;&gt;Node7</title>
<path fill="none" stroke="#404040" d="M461.6482,-642.7546C453.5639,-633.9456 443.7606,-622.382 436.5,-611 417.203,-580.7489 400.5687,-543.5065 389.4023,-515.8063"/>
<polygon fill="none" stroke="#404040" points="389.371,-515.727 383.4454,-511.6175 384.9597,-504.5672 390.8853,-508.6766 389.371,-515.727"/>
<text text-anchor="middle" x="469.5" y="-592" font-family="Helvetica,sans-Serif" font-size="10.00" fill="#000000"> +max_index</text>
</g>
<!-- Node8&#45;&gt;Node10 -->
<g id="edge15" class="edge">
<title>Node8&#45;&gt;Node10</title>
<path fill="none" stroke="#404040" d="M491.1009,-636.9705C495.6919,-629.1757 500.1691,-620.029 502.5,-611 506.1662,-596.7989 504.8493,-592.4773 502.5,-578 485.3598,-472.3776 475.5486,-443.1506 419.5,-352 389.7904,-303.6839 351.3336,-251.0098 325.1779,-216.4207"/>
<polygon fill="none" stroke="#404040" points="325.0727,-216.2822 318.2576,-213.9252 317.8121,-206.7279 324.6272,-209.0848 325.0727,-216.2822"/>
<text text-anchor="middle" x="458" y="-360.5" font-family="Helvetica,sans-Serif" font-size="10.00" fill="#000000"> +numops</text>
</g>
<!-- Node9 -->
<g id="node9" class="node">
<title>Node9</title>
<polygon fill="#ffffff" stroke="#bfbfbf" points="366.5,-629.5 366.5,-686.5 404.5,-686.5 404.5,-629.5 366.5,-629.5"/>
<text text-anchor="middle" x="385.5" y="-674.5" font-family="Helvetica,sans-Serif" font-size="10.00" fill="#000000">long</text>
<polyline fill="none" stroke="#bfbfbf" points="366.5,-667.5 404.5,-667.5 "/>
<text text-anchor="middle" x="385.5" y="-655.5" font-family="Helvetica,sans-Serif" font-size="10.00" fill="#000000"> </text>
<polyline fill="none" stroke="#bfbfbf" points="366.5,-648.5 404.5,-648.5 "/>
<text text-anchor="middle" x="385.5" y="-636.5" font-family="Helvetica,sans-Serif" font-size="10.00" fill="#000000"> </text>
</g>
<!-- Node9&#45;&gt;Node7 -->
<g id="edge11" class="edge">
<title>Node9&#45;&gt;Node7</title>
<path fill="none" stroke="#404040" d="M383.757,-629.1616C381.9306,-598.943 379.0455,-551.2065 376.9817,-517.0602"/>
<polygon fill="none" stroke="#404040" points="376.9589,-516.6817 372.6041,-510.9339 376.2348,-504.7035 380.5896,-510.4512 376.9589,-516.6817"/>
<text text-anchor="middle" x="396" y="-592" font-family="Helvetica,sans-Serif" font-size="10.00" fill="#000000"> +ofs</text>
</g>
<!-- Node10&#45;&gt;Node1 -->
<g id="edge12" class="edge">
<title>Node10&#45;&gt;Node1</title>
<path fill="none" stroke="#404040" d="M273.5069,-149.4987C264.7426,-138.1409 254.3019,-124.6107 244.0083,-111.2709"/>
<polygon fill="none" stroke="#404040" points="243.896,-111.1254 237.0637,-108.8189 236.565,-101.625 243.3973,-103.9315 243.896,-111.1254"/>
<text text-anchor="middle" x="272" y="-123" font-family="Helvetica,sans-Serif" font-size="10.00" fill="#000000"> +ops</text>
</g>
<!-- Node10&#45;&gt;Node10 -->
<g id="edge16" class="edge">
<title>Node10&#45;&gt;Node10</title>
<path fill="none" stroke="#404040" d="M357.5546,-187.1019C368.1554,-185.8582 375.5,-182.8242 375.5,-178 375.5,-175.2864 373.1761,-173.1392 369.256,-171.5585"/>
<polygon fill="none" stroke="#404040" points="369.256,-171.5585 362.5185,-174.1288 357.5546,-168.8981 364.2921,-166.3278 369.256,-171.5585"/>
<text text-anchor="middle" x="392.5" y="-175.5" font-family="Helvetica,sans-Serif" font-size="10.00" fill="#000000"> +next</text>
</g>
</g>
</svg>
