<?xml version="1.0" encoding="UTF-8" standalone="no"?>
<!DOCTYPE svg PUBLIC "-//W3C//DTD SVG 1.1//EN"
 "http://www.w3.org/Graphics/SVG/1.1/DTD/svg11.dtd">
<!-- Generated by graphviz version 2.40.1 (20161225.0304)
 -->
<!-- Title: LoopList::Scan Pages: 1 -->
<svg width="662pt" height="59pt"
 viewBox="0.00 0.00 662.00 58.50" xmlns="http://www.w3.org/2000/svg" xmlns:xlink="http://www.w3.org/1999/xlink">
<g id="graph0" class="graph" transform="scale(1 1) rotate(0) translate(4 54.5)">
<title>LoopList::Scan</title>
<polygon fill="#ffffff" stroke="transparent" points="-4,4 -4,-54.5 658,-54.5 658,4 -4,4"/>
<!-- Node17 -->
<g id="node1" class="node">
<title>Node17</title>
<polygon fill="#bfbfbf" stroke="#000000" points="0,-3.5 0,-22.5 86,-22.5 86,-3.5 0,-3.5"/>
<text text-anchor="middle" x="43" y="-10.5" font-family="Helvetica,sans-Serif" font-size="10.00" fill="#000000">LoopList::Scan</text>
</g>
<!-- Node18 -->
<g id="node2" class="node">
<title>Node18</title>
<g id="a_node2"><a xlink:href="classLoopManager.html#aeabdbc5dd40563f5c4577228908f5179" target="_top" xlink:title="LoopManager::UpdateLoopLists\l_ItemMoved">
<polygon fill="#ffffff" stroke="#000000" points="122,-20 122,-50 291,-50 291,-20 122,-20"/>
<text text-anchor="start" x="130" y="-38" font-family="Helvetica,sans-Serif" font-size="10.00" fill="#000000">LoopManager::UpdateLoopLists</text>
<text text-anchor="middle" x="206.5" y="-27" font-family="Helvetica,sans-Serif" font-size="10.00" fill="#000000">_ItemMoved</text>
</a>
</g>
</g>
<!-- Node17&#45;&gt;Node18 -->
<g id="edge1" class="edge">
<title>Node17&#45;&gt;Node18</title>
<path fill="none" stroke="#191970" d="M96.4461,-20.1915C104.5919,-21.2876 113.1655,-22.4412 121.783,-23.6008"/>
<polygon fill="#191970" stroke="#191970" points="96.7632,-16.7027 86.3857,-18.8378 95.8297,-23.6402 96.7632,-16.7027"/>
</g>
<!-- Node20 -->
<g id="node4" class="node">
<title>Node20</title>
<g id="a_node4"><a xlink:href="classLoopManager.html#a4aada2d07b7ce0a67a8119ece4805966" target="_top" xlink:title="LoopManager::ReceiveEvent">
<polygon fill="#ffffff" stroke="#000000" points="500,-.5 500,-19.5 654,-19.5 654,-.5 500,-.5"/>
<text text-anchor="middle" x="577" y="-7.5" font-family="Helvetica,sans-Serif" font-size="10.00" fill="#000000">LoopManager::ReceiveEvent</text>
</a>
</g>
</g>
<!-- Node17&#45;&gt;Node20 -->
<g id="edge4" class="edge">
<title>Node17&#45;&gt;Node20</title>
<path fill="none" stroke="#191970" d="M96.0707,-10.7077C104.7348,-10.4132 113.6163,-10.1591 122,-10 254.6844,-7.4816 409.1727,-8.2686 499.7048,-9.1072"/>
<polygon fill="#191970" stroke="#191970" points="95.9099,-7.2112 86.0423,-11.0689 96.1619,-14.2066 95.9099,-7.2112"/>
</g>
<!-- Node19 -->
<g id="node3" class="node">
<title>Node19</title>
<g id="a_node3"><a xlink:href="classLoopManager.html#af67b2c3a3417115739cccbe6360828fe" target="_top" xlink:title="LoopManager::MoveLoop">
<polygon fill="#ffffff" stroke="#000000" points="327,-22.5 327,-41.5 464,-41.5 464,-22.5 327,-22.5"/>
<text text-anchor="middle" x="395.5" y="-29.5" font-family="Helvetica,sans-Serif" font-size="10.00" fill="#000000">LoopManager::MoveLoop</text>
</a>
</g>
</g>
<!-- Node18&#45;&gt;Node19 -->
<g id="edge2" class="edge">
<title>Node18&#45;&gt;Node19</title>
<path fill="none" stroke="#191970" d="M301.2007,-33.4968C309.862,-33.3593 318.5209,-33.2219 326.8866,-33.0891"/>
<polygon fill="#191970" stroke="#191970" points="300.9928,-29.9996 291.0496,-33.6579 301.104,-36.9987 300.9928,-29.9996"/>
</g>
<!-- Node19&#45;&gt;Node20 -->
<g id="edge3" class="edge">
<title>Node19&#45;&gt;Node20</title>
<path fill="none" stroke="#191970" d="M474.047,-22.4792C482.5787,-21.445 491.257,-20.3931 499.7727,-19.3609"/>
<polygon fill="#191970" stroke="#191970" points="473.6235,-19.0048 464.1174,-23.6827 474.4659,-25.9539 473.6235,-19.0048"/>
</g>
</g>
</svg>
