<?xml version="1.0" encoding="UTF-8" standalone="no"?>
<!DOCTYPE svg PUBLIC "-//W3C//DTD SVG 1.1//EN"
 "http://www.w3.org/Graphics/SVG/1.1/DTD/svg11.dtd">
<!-- Generated by graphviz version 2.40.1 (20161225.0304)
 -->
<!-- Title: Browser::GetDisplayName Pages: 1 -->
<svg width="330pt" height="142pt"
 viewBox="0.00 0.00 330.00 142.00" xmlns="http://www.w3.org/2000/svg" xmlns:xlink="http://www.w3.org/1999/xlink">
<g id="graph0" class="graph" transform="scale(1 1) rotate(0) translate(4 138)">
<title>Browser::GetDisplayName</title>
<polygon fill="#ffffff" stroke="transparent" points="-4,4 -4,-138 326,-138 326,4 -4,4"/>
<!-- Node37 -->
<g id="node1" class="node">
<title>Node37</title>
<polygon fill="#bfbfbf" stroke="#000000" points="0,-57.5 0,-76.5 146,-76.5 146,-57.5 0,-57.5"/>
<text text-anchor="middle" x="73" y="-64.5" font-family="Helvetica,sans-Serif" font-size="10.00" fill="#000000">Browser::GetDisplayName</text>
</g>
<!-- Node38 -->
<g id="node2" class="node">
<title>Node38</title>
<g id="a_node2"><a xlink:href="classFweelin.html#a681d7ca8d0789199af135f22c26a5409" target="_top" xlink:title="Fweelin::getCFG">
<polygon fill="#ffffff" stroke="#000000" points="204.5,-114.5 204.5,-133.5 299.5,-133.5 299.5,-114.5 204.5,-114.5"/>
<text text-anchor="middle" x="252" y="-121.5" font-family="Helvetica,sans-Serif" font-size="10.00" fill="#000000">Fweelin::getCFG</text>
</a>
</g>
</g>
<!-- Node37&#45;&gt;Node38 -->
<g id="edge1" class="edge">
<title>Node37&#45;&gt;Node38</title>
<path fill="none" stroke="#191970" d="M98.8176,-76.5769C120.7973,-84.5912 153.2839,-96.1093 182,-105 189.443,-107.3044 197.3774,-109.6048 205.1308,-111.7685"/>
<polygon fill="#191970" stroke="#191970" points="204.2344,-115.1519 214.8044,-114.4262 206.0889,-108.402 204.2344,-115.1519"/>
</g>
<!-- Node39 -->
<g id="node3" class="node">
<title>Node39</title>
<g id="a_node3"><a xlink:href="classFloConfig.html#a9acc5e0790ab29fe30856d58c5ffa0e8" target="_top" xlink:title="FloConfig::GetLibraryPath">
<polygon fill="#ffffff" stroke="#000000" points="182,-76.5 182,-95.5 322,-95.5 322,-76.5 182,-76.5"/>
<text text-anchor="middle" x="252" y="-83.5" font-family="Helvetica,sans-Serif" font-size="10.00" fill="#000000">FloConfig::GetLibraryPath</text>
</a>
</g>
</g>
<!-- Node37&#45;&gt;Node39 -->
<g id="edge2" class="edge">
<title>Node37&#45;&gt;Node39</title>
<path fill="none" stroke="#191970" d="M146.0643,-74.7554C154.5411,-75.6552 163.2217,-76.5766 171.7875,-77.4858"/>
<polygon fill="#191970" stroke="#191970" points="171.4576,-80.9704 181.7712,-78.5455 172.1965,-74.0095 171.4576,-80.9704"/>
</g>
<!-- Node40 -->
<g id="node4" class="node">
<title>Node40</title>
<g id="a_node4"><a xlink:href="classSaveable.html#a4e8b7b5e6fe537a5c68c35927741a6e3" target="_top" xlink:title="Saveable::SplitFilename">
<polygon fill="#ffffff" stroke="#000000" points="185,-38.5 185,-57.5 319,-57.5 319,-38.5 185,-38.5"/>
<text text-anchor="middle" x="252" y="-45.5" font-family="Helvetica,sans-Serif" font-size="10.00" fill="#000000">Saveable::SplitFilename</text>
</a>
</g>
</g>
<!-- Node37&#45;&gt;Node40 -->
<g id="edge3" class="edge">
<title>Node37&#45;&gt;Node40</title>
<path fill="none" stroke="#191970" d="M146.0643,-59.2446C155.5063,-58.2423 165.2011,-57.2133 174.7085,-56.2041"/>
<polygon fill="#191970" stroke="#191970" points="175.3561,-59.6551 184.9308,-55.1191 174.6172,-52.6942 175.3561,-59.6551"/>
</g>
<!-- Node41 -->
<g id="node5" class="node">
<title>Node41</title>
<g id="a_node5"><a xlink:href="classSaveable.html#afd744adf4ac3fbee68114daa3c513326" target="_top" xlink:title="Saveable::GetHashFirst">
<polygon fill="#ffffff" stroke="#000000" points="187,-.5 187,-19.5 317,-19.5 317,-.5 187,-.5"/>
<text text-anchor="middle" x="252" y="-7.5" font-family="Helvetica,sans-Serif" font-size="10.00" fill="#000000">Saveable::GetHashFirst</text>
</a>
</g>
</g>
<!-- Node37&#45;&gt;Node41 -->
<g id="edge4" class="edge">
<title>Node37&#45;&gt;Node41</title>
<path fill="none" stroke="#191970" d="M98.8176,-57.4231C120.7973,-49.4088 153.2839,-37.8907 182,-29 189.443,-26.6956 197.3774,-24.3952 205.1308,-22.2315"/>
<polygon fill="#191970" stroke="#191970" points="206.0889,-25.598 214.8044,-19.5738 204.2344,-18.8481 206.0889,-25.598"/>
</g>
</g>
</svg>
