<?xml version="1.0" encoding="UTF-8" standalone="no"?>
<!DOCTYPE svg PUBLIC "-//W3C//DTD SVG 1.1//EN"
 "http://www.w3.org/Graphics/SVG/1.1/DTD/svg11.dtd">
<!-- Generated by graphviz version 2.40.1 (20161225.0304)
 -->
<!-- Title: LoopManager::GetPulse Pages: 1 -->
<svg width="448pt" height="66pt"
 viewBox="0.00 0.00 448.00 66.00" xmlns="http://www.w3.org/2000/svg" xmlns:xlink="http://www.w3.org/1999/xlink">
<g id="graph0" class="graph" transform="scale(1 1) rotate(0) translate(4 62)">
<title>LoopManager::GetPulse</title>
<polygon fill="#ffffff" stroke="transparent" points="-4,4 -4,-62 444,-62 444,4 -4,4"/>
<!-- Node441 -->
<g id="node1" class="node">
<title>Node441</title>
<polygon fill="#bfbfbf" stroke="#000000" points="0,-19.5 0,-38.5 131,-38.5 131,-19.5 0,-19.5"/>
<text text-anchor="middle" x="65.5" y="-26.5" font-family="Helvetica,sans-Serif" font-size="10.00" fill="#000000">LoopManager::GetPulse</text>
</g>
<!-- Node442 -->
<g id="node2" class="node">
<title>Node442</title>
<g id="a_node2"><a xlink:href="classLoopManager.html#ab5444c4b3ee3ccbab1160e23d7363752" target="_top" xlink:title="LoopManager::GetSlot">
<polygon fill="#ffffff" stroke="#000000" points="167,-19.5 167,-38.5 291,-38.5 291,-19.5 167,-19.5"/>
<text text-anchor="middle" x="229" y="-26.5" font-family="Helvetica,sans-Serif" font-size="10.00" fill="#000000">LoopManager::GetSlot</text>
</a>
</g>
</g>
<!-- Node441&#45;&gt;Node442 -->
<g id="edge1" class="edge">
<title>Node441&#45;&gt;Node442</title>
<path fill="none" stroke="#191970" d="M131.0596,-29C139.46,-29 148.098,-29 156.5994,-29"/>
<polygon fill="#191970" stroke="#191970" points="156.8762,-32.5001 166.8762,-29 156.8761,-25.5001 156.8762,-32.5001"/>
</g>
<!-- Node443 -->
<g id="node3" class="node">
<title>Node443</title>
<g id="a_node3"><a xlink:href="classFweelin.html#a10bb364ecf38990653b49a98c5a89c90" target="_top" xlink:title="Fweelin::getTMAP">
<polygon fill="#ffffff" stroke="#000000" points="332,-38.5 332,-57.5 435,-57.5 435,-38.5 332,-38.5"/>
<text text-anchor="middle" x="383.5" y="-45.5" font-family="Helvetica,sans-Serif" font-size="10.00" fill="#000000">Fweelin::getTMAP</text>
</a>
</g>
</g>
<!-- Node442&#45;&gt;Node443 -->
<g id="edge2" class="edge">
<title>Node442&#45;&gt;Node443</title>
<path fill="none" stroke="#191970" d="M291.3957,-36.6733C301.3409,-37.8963 311.6274,-39.1613 321.562,-40.383"/>
<polygon fill="#191970" stroke="#191970" points="321.4059,-43.8901 331.7583,-41.6369 322.2603,-36.9425 321.4059,-43.8901"/>
</g>
<!-- Node444 -->
<g id="node4" class="node">
<title>Node444</title>
<g id="a_node4"><a xlink:href="classTriggerMap.html#aca3f85b40f3aa29a280c2d7511b84217" target="_top" xlink:title="TriggerMap::GetMap">
<polygon fill="#ffffff" stroke="#000000" points="327,-.5 327,-19.5 440,-19.5 440,-.5 327,-.5"/>
<text text-anchor="middle" x="383.5" y="-7.5" font-family="Helvetica,sans-Serif" font-size="10.00" fill="#000000">TriggerMap::GetMap</text>
</a>
</g>
</g>
<!-- Node442&#45;&gt;Node444 -->
<g id="edge3" class="edge">
<title>Node442&#45;&gt;Node444</title>
<path fill="none" stroke="#191970" d="M291.3957,-21.3267C299.7314,-20.3016 308.3068,-19.2471 316.7138,-18.2132"/>
<polygon fill="#191970" stroke="#191970" points="317.3595,-21.6602 326.8575,-16.9657 316.505,-14.7126 317.3595,-21.6602"/>
</g>
</g>
</svg>
