<?xml version="1.0" encoding="UTF-8" standalone="no"?>
<!DOCTYPE svg PUBLIC "-//W3C//DTD SVG 1.1//EN"
 "http://www.w3.org/Graphics/SVG/1.1/DTD/svg11.dtd">
<!-- Generated by graphviz version 2.40.1 (20161225.0304)
 -->
<!-- Title: AudioIO::RelocateTransport Pages: 1 -->
<svg width="922pt" height="199pt"
 viewBox="0.00 0.00 922.00 198.85" xmlns="http://www.w3.org/2000/svg" xmlns:xlink="http://www.w3.org/1999/xlink">
<g id="graph0" class="graph" transform="scale(1 1) rotate(0) translate(4 194.8495)">
<title>AudioIO::RelocateTransport</title>
<polygon fill="#ffffff" stroke="transparent" points="-4,4 -4,-194.8495 918,-194.8495 918,4 -4,4"/>
<!-- Node132 -->
<g id="node1" class="node">
<title>Node132</title>
<polygon fill="#bfbfbf" stroke="#000000" points="0,-43.3495 0,-62.3495 148,-62.3495 148,-43.3495 0,-43.3495"/>
<text text-anchor="middle" x="74" y="-50.3495" font-family="Helvetica,sans-Serif" font-size="10.00" fill="#000000">AudioIO::RelocateTransport</text>
</g>
<!-- Node133 -->
<g id="node2" class="node">
<title>Node133</title>
<g id="a_node2"><a xlink:href="classAudioIO.html#a53438a70443717836d12c04b3c7850d0" target="_top" xlink:title="AudioIO::GetTimeScale">
<polygon fill="#ffffff" stroke="#000000" points="185,-89.3495 185,-108.3495 314,-108.3495 314,-89.3495 185,-89.3495"/>
<text text-anchor="middle" x="249.5" y="-96.3495" font-family="Helvetica,sans-Serif" font-size="10.00" fill="#000000">AudioIO::GetTimeScale</text>
</a>
</g>
</g>
<!-- Node132&#45;&gt;Node133 -->
<g id="edge1" class="edge">
<title>Node132&#45;&gt;Node133</title>
<path fill="none" stroke="#191970" d="M120.2808,-64.9801C149.3292,-72.5939 186.251,-82.2714 213.1829,-89.3305"/>
<polygon fill="#191970" stroke="#191970" points="120.9244,-61.5306 110.3637,-62.3807 119.1495,-68.3019 120.9244,-61.5306"/>
</g>
<!-- Node141 -->
<g id="node10" class="node">
<title>Node141</title>
<g id="a_node10"><a xlink:href="classLoopManager.html#a67c6f44d33880b35c875a8e6ea8babac" target="_top" xlink:title="LoopManager::TapPulse">
<polygon fill="#ffffff" stroke="#000000" points="184,-24.3495 184,-43.3495 315,-43.3495 315,-24.3495 184,-24.3495"/>
<text text-anchor="middle" x="249.5" y="-31.3495" font-family="Helvetica,sans-Serif" font-size="10.00" fill="#000000">LoopManager::TapPulse</text>
</a>
</g>
</g>
<!-- Node132&#45;&gt;Node141 -->
<g id="edge12" class="edge">
<title>Node132&#45;&gt;Node141</title>
<path fill="none" stroke="#191970" d="M158.2587,-43.7275C166.8845,-42.7936 175.5554,-41.8549 183.9373,-40.9474"/>
<polygon fill="#191970" stroke="#191970" points="157.7386,-40.2632 148.1734,-44.8193 158.4921,-47.2226 157.7386,-40.2632"/>
</g>
<!-- Node134 -->
<g id="node3" class="node">
<title>Node134</title>
<g id="a_node3"><a xlink:href="classLoopManager.html#a58a134fe97355ce8f17e261da1142c64" target="_top" xlink:title="LoopManager::AdjustLoopVolume">
<polygon fill="#ffffff" stroke="#000000" points="545,-171.3495 545,-190.3495 724,-190.3495 724,-171.3495 545,-171.3495"/>
<text text-anchor="middle" x="634.5" y="-178.3495" font-family="Helvetica,sans-Serif" font-size="10.00" fill="#000000">LoopManager::AdjustLoopVolume</text>
</a>
</g>
</g>
<!-- Node133&#45;&gt;Node134 -->
<g id="edge2" class="edge">
<title>Node133&#45;&gt;Node134</title>
<path fill="none" stroke="#191970" d="M268.7645,-114.8677C288.1769,-129.9783 319.6676,-151.7712 351,-161.8495 413.6911,-182.0146 488.094,-186.3151 544.9451,-185.8135"/>
<polygon fill="#191970" stroke="#191970" points="270.7381,-111.9647 260.7392,-108.4612 266.3709,-117.4353 270.7381,-111.9647"/>
</g>
<!-- Node136 -->
<g id="node5" class="node">
<title>Node136</title>
<g id="a_node5"><a xlink:href="classInputSettings.html#a485faa0edfa19afb7c673f7ac8f3f4ff" target="_top" xlink:title="InputSettings::AdjustInputVol">
<polygon fill="#ffffff" stroke="#000000" points="351,-133.3495 351,-152.3495 509,-152.3495 509,-133.3495 351,-133.3495"/>
<text text-anchor="middle" x="430" y="-140.3495" font-family="Helvetica,sans-Serif" font-size="10.00" fill="#000000">InputSettings::AdjustInputVol</text>
</a>
</g>
</g>
<!-- Node133&#45;&gt;Node136 -->
<g id="edge4" class="edge">
<title>Node133&#45;&gt;Node136</title>
<path fill="none" stroke="#191970" d="M298.1619,-110.8925C314.9034,-115.0205 333.7689,-119.6554 351,-123.8495 363.7468,-126.9521 377.6581,-130.308 390.2056,-133.3236"/>
<polygon fill="#191970" stroke="#191970" points="298.5934,-107.3941 288.046,-108.3962 296.9162,-114.1902 298.5934,-107.3941"/>
</g>
<!-- Node137 -->
<g id="node6" class="node">
<title>Node137</title>
<g id="a_node6"><a xlink:href="classRootProcessor.html#acbec725df020a7e0592399291eb701a6" target="_top" xlink:title="RootProcessor::AdjustOutput\lVolume">
<polygon fill="#ffffff" stroke="#000000" points="352.5,-83.8495 352.5,-113.8495 507.5,-113.8495 507.5,-83.8495 352.5,-83.8495"/>
<text text-anchor="start" x="360.5" y="-101.8495" font-family="Helvetica,sans-Serif" font-size="10.00" fill="#000000">RootProcessor::AdjustOutput</text>
<text text-anchor="middle" x="430" y="-90.8495" font-family="Helvetica,sans-Serif" font-size="10.00" fill="#000000">Volume</text>
</a>
</g>
</g>
<!-- Node133&#45;&gt;Node137 -->
<g id="edge6" class="edge">
<title>Node133&#45;&gt;Node137</title>
<path fill="none" stroke="#191970" d="M324.4135,-98.8495C333.6006,-98.8495 343.0062,-98.8495 352.2343,-98.8495"/>
<polygon fill="#191970" stroke="#191970" points="324.1548,-95.3496 314.1548,-98.8495 324.1548,-102.3496 324.1548,-95.3496"/>
</g>
<!-- Node139 -->
<g id="node8" class="node">
<title>Node139</title>
<g id="a_node8"><a xlink:href="classRootProcessor.html#af1a55b84d3f7d50eb13cc8f0c0a5c315" target="_top" xlink:title="RootProcessor::AdjustInput\lVolume">
<polygon fill="#ffffff" stroke="#000000" points="356.5,-34.8495 356.5,-64.8495 503.5,-64.8495 503.5,-34.8495 356.5,-34.8495"/>
<text text-anchor="start" x="364.5" y="-52.8495" font-family="Helvetica,sans-Serif" font-size="10.00" fill="#000000">RootProcessor::AdjustInput</text>
<text text-anchor="middle" x="430" y="-41.8495" font-family="Helvetica,sans-Serif" font-size="10.00" fill="#000000">Volume</text>
</a>
</g>
</g>
<!-- Node133&#45;&gt;Node139 -->
<g id="edge9" class="edge">
<title>Node133&#45;&gt;Node139</title>
<path fill="none" stroke="#191970" d="M294.4024,-86.6599C318.6825,-80.0686 348.8788,-71.8713 374.6087,-64.8864"/>
<polygon fill="#191970" stroke="#191970" points="293.4645,-83.2878 284.7307,-89.2855 295.2984,-90.0433 293.4645,-83.2878"/>
</g>
<!-- Node135 -->
<g id="node4" class="node">
<title>Node135</title>
<g id="a_node4"><a xlink:href="classLoopManager.html#a4aada2d07b7ce0a67a8119ece4805966" target="_top" xlink:title="LoopManager::ReceiveEvent">
<polygon fill="#ffffff" stroke="#000000" points="760,-89.3495 760,-108.3495 914,-108.3495 914,-89.3495 760,-89.3495"/>
<text text-anchor="middle" x="837" y="-96.3495" font-family="Helvetica,sans-Serif" font-size="10.00" fill="#000000">LoopManager::ReceiveEvent</text>
</a>
</g>
</g>
<!-- Node134&#45;&gt;Node135 -->
<g id="edge3" class="edge">
<title>Node134&#45;&gt;Node135</title>
<path fill="none" stroke="#191970" d="M687.1016,-168.74C699.372,-165.3686 712.275,-161.3716 724,-156.8495 760.0048,-142.9631 799.5892,-120.9586 821.0342,-108.4241"/>
<polygon fill="#191970" stroke="#191970" points="686.1982,-165.3585 677.4313,-171.3077 687.9946,-172.1241 686.1982,-165.3585"/>
</g>
<!-- Node136&#45;&gt;Node135 -->
<g id="edge5" class="edge">
<title>Node136&#45;&gt;Node135</title>
<path fill="none" stroke="#191970" d="M519.5717,-140.6204C578.004,-138.2914 655.8064,-133.5383 724,-123.8495 749.8605,-120.1753 778.5961,-113.7858 800.6181,-108.3863"/>
<polygon fill="#191970" stroke="#191970" points="519.1215,-137.1349 509.2624,-141.0142 519.3888,-144.1298 519.1215,-137.1349"/>
</g>
<!-- Node138 -->
<g id="node7" class="node">
<title>Node138</title>
<g id="a_node7"><a xlink:href="classLoopManager.html#aea540a972ff4cba15544e2af9ed33ff6" target="_top" xlink:title="LoopManager::AdjustOutput\lVolume">
<polygon fill="#ffffff" stroke="#000000" points="558.5,-83.8495 558.5,-113.8495 710.5,-113.8495 710.5,-83.8495 558.5,-83.8495"/>
<text text-anchor="start" x="566.5" y="-101.8495" font-family="Helvetica,sans-Serif" font-size="10.00" fill="#000000">LoopManager::AdjustOutput</text>
<text text-anchor="middle" x="634.5" y="-90.8495" font-family="Helvetica,sans-Serif" font-size="10.00" fill="#000000">Volume</text>
</a>
</g>
</g>
<!-- Node137&#45;&gt;Node138 -->
<g id="edge7" class="edge">
<title>Node137&#45;&gt;Node138</title>
<path fill="none" stroke="#191970" d="M517.8241,-98.8495C531.2962,-98.8495 545.1093,-98.8495 558.3023,-98.8495"/>
<polygon fill="#191970" stroke="#191970" points="517.6043,-95.3496 507.6043,-98.8495 517.6042,-102.3496 517.6043,-95.3496"/>
</g>
<!-- Node138&#45;&gt;Node135 -->
<g id="edge8" class="edge">
<title>Node138&#45;&gt;Node135</title>
<path fill="none" stroke="#191970" d="M721.0161,-98.8495C733.9019,-98.8495 747.1132,-98.8495 759.7907,-98.8495"/>
<polygon fill="#191970" stroke="#191970" points="720.7681,-95.3496 710.768,-98.8495 720.768,-102.3496 720.7681,-95.3496"/>
</g>
<!-- Node140 -->
<g id="node9" class="node">
<title>Node140</title>
<g id="a_node9"><a xlink:href="classLoopManager.html#a3a31dbd91e9ad302fc64ea941f0a0165" target="_top" xlink:title="LoopManager::AdjustInput\lVolume">
<polygon fill="#ffffff" stroke="#000000" points="563,-34.8495 563,-64.8495 706,-64.8495 706,-34.8495 563,-34.8495"/>
<text text-anchor="start" x="571" y="-52.8495" font-family="Helvetica,sans-Serif" font-size="10.00" fill="#000000">LoopManager::AdjustInput</text>
<text text-anchor="middle" x="634.5" y="-41.8495" font-family="Helvetica,sans-Serif" font-size="10.00" fill="#000000">Volume</text>
</a>
</g>
</g>
<!-- Node139&#45;&gt;Node140 -->
<g id="edge10" class="edge">
<title>Node139&#45;&gt;Node140</title>
<path fill="none" stroke="#191970" d="M513.6352,-49.8495C530.0103,-49.8495 547.0446,-49.8495 562.9809,-49.8495"/>
<polygon fill="#191970" stroke="#191970" points="513.5403,-46.3496 503.5403,-49.8495 513.5402,-53.3496 513.5403,-46.3496"/>
</g>
<!-- Node140&#45;&gt;Node135 -->
<g id="edge11" class="edge">
<title>Node140&#45;&gt;Node135</title>
<path fill="none" stroke="#191970" d="M706.4423,-67.2578C737.1305,-74.6835 771.7493,-83.0604 797.6243,-89.3215"/>
<polygon fill="#191970" stroke="#191970" points="707.1755,-63.8342 696.6329,-64.8841 705.5292,-70.6379 707.1755,-63.8342"/>
</g>
<!-- Node141&#45;&gt;Node135 -->
<g id="edge13" class="edge">
<title>Node141&#45;&gt;Node135</title>
<path fill="none" stroke="#191970" d="M303.4764,-22.3938C393.0469,-5.6643 577.081,18.9762 724,-24.8495 766.6965,-37.5858 808.2606,-72.179 826.8541,-89.1695"/>
<polygon fill="#191970" stroke="#191970" points="302.7154,-18.9758 293.5488,-24.2885 304.0277,-25.8517 302.7154,-18.9758"/>
</g>
</g>
</svg>
