<?xml version="1.0" encoding="UTF-8" standalone="no"?>
<!DOCTYPE svg PUBLIC "-//W3C//DTD SVG 1.1//EN"
 "http://www.w3.org/Graphics/SVG/1.1/DTD/svg11.dtd">
<!-- Generated by graphviz version 2.40.1 (20161225.0304)
 -->
<!-- Title: LoopManager::GetPos Pages: 1 -->
<svg width="414pt" height="142pt"
 viewBox="0.00 0.00 414.00 142.00" xmlns="http://www.w3.org/2000/svg" xmlns:xlink="http://www.w3.org/1999/xlink">
<g id="graph0" class="graph" transform="scale(1 1) rotate(0) translate(4 138)">
<title>LoopManager::GetPos</title>
<polygon fill="#ffffff" stroke="transparent" points="-4,4 -4,-138 410,-138 410,4 -4,4"/>
<!-- Node428 -->
<g id="node1" class="node">
<title>Node428</title>
<polygon fill="#bfbfbf" stroke="#000000" points="0,-57.5 0,-76.5 122,-76.5 122,-57.5 0,-57.5"/>
<text text-anchor="middle" x="61" y="-64.5" font-family="Helvetica,sans-Serif" font-size="10.00" fill="#000000">LoopManager::GetPos</text>
</g>
<!-- Node429 -->
<g id="node2" class="node">
<title>Node429</title>
<g id="a_node2"><a xlink:href="classFweelin.html#a10bb364ecf38990653b49a98c5a89c90" target="_top" xlink:title="Fweelin::getTMAP">
<polygon fill="#ffffff" stroke="#000000" points="174,-114.5 174,-133.5 277,-133.5 277,-114.5 174,-114.5"/>
<text text-anchor="middle" x="225.5" y="-121.5" font-family="Helvetica,sans-Serif" font-size="10.00" fill="#000000">Fweelin::getTMAP</text>
</a>
</g>
</g>
<!-- Node428&#45;&gt;Node429 -->
<g id="edge1" class="edge">
<title>Node428&#45;&gt;Node429</title>
<path fill="none" stroke="#191970" d="M83.5019,-76.5476C103.0138,-84.6495 132.1094,-96.3085 158,-105 164.9031,-107.3174 172.2652,-109.589 179.495,-111.7099"/>
<polygon fill="#191970" stroke="#191970" points="178.6389,-115.1054 189.2163,-114.4986 180.5691,-108.3768 178.6389,-115.1054"/>
</g>
<!-- Node430 -->
<g id="node3" class="node">
<title>Node430</title>
<g id="a_node3"><a xlink:href="classTriggerMap.html#aca3f85b40f3aa29a280c2d7511b84217" target="_top" xlink:title="TriggerMap::GetMap">
<polygon fill="#ffffff" stroke="#000000" points="169,-76.5 169,-95.5 282,-95.5 282,-76.5 169,-76.5"/>
<text text-anchor="middle" x="225.5" y="-83.5" font-family="Helvetica,sans-Serif" font-size="10.00" fill="#000000">TriggerMap::GetMap</text>
</a>
</g>
</g>
<!-- Node428&#45;&gt;Node430 -->
<g id="edge2" class="edge">
<title>Node428&#45;&gt;Node430</title>
<path fill="none" stroke="#191970" d="M122.2537,-74.0749C134.1717,-75.4514 146.7199,-76.9008 158.8033,-78.2964"/>
<polygon fill="#191970" stroke="#191970" points="158.4845,-81.7828 168.8201,-79.4534 159.2877,-74.829 158.4845,-81.7828"/>
</g>
<!-- Node431 -->
<g id="node4" class="node">
<title>Node431</title>
<g id="a_node4"><a xlink:href="classAudioBlock.html#a380880c91c3af2322d232ce2de83b881" target="_top" xlink:title="AudioBlock::GetTotalLen">
<polygon fill="#ffffff" stroke="#000000" points="158,-38.5 158,-57.5 293,-57.5 293,-38.5 158,-38.5"/>
<text text-anchor="middle" x="225.5" y="-45.5" font-family="Helvetica,sans-Serif" font-size="10.00" fill="#000000">AudioBlock::GetTotalLen</text>
</a>
</g>
</g>
<!-- Node428&#45;&gt;Node431 -->
<g id="edge3" class="edge">
<title>Node428&#45;&gt;Node431</title>
<path fill="none" stroke="#191970" d="M122.2537,-59.9251C130.592,-58.962 139.2388,-57.9633 147.8191,-56.9723"/>
<polygon fill="#191970" stroke="#191970" points="148.3063,-60.4394 157.8386,-55.815 147.503,-53.4856 148.3063,-60.4394"/>
</g>
<!-- Node432 -->
<g id="node5" class="node">
<title>Node432</title>
<g id="a_node5"><a xlink:href="classPulse.html#ac23f657cca68747e251b1b927a11ba0f" target="_top" xlink:title="Pulse::QuantizeLength">
<polygon fill="#ffffff" stroke="#000000" points="163,-.5 163,-19.5 288,-19.5 288,-.5 163,-.5"/>
<text text-anchor="middle" x="225.5" y="-7.5" font-family="Helvetica,sans-Serif" font-size="10.00" fill="#000000">Pulse::QuantizeLength</text>
</a>
</g>
</g>
<!-- Node428&#45;&gt;Node432 -->
<g id="edge4" class="edge">
<title>Node428&#45;&gt;Node432</title>
<path fill="none" stroke="#191970" d="M83.5019,-57.4524C103.0138,-49.3505 132.1094,-37.6915 158,-29 164.9031,-26.6826 172.2652,-24.411 179.495,-22.2901"/>
<polygon fill="#191970" stroke="#191970" points="180.5691,-25.6232 189.2163,-19.5014 178.6389,-18.8946 180.5691,-25.6232"/>
</g>
<!-- Node433 -->
<g id="node6" class="node">
<title>Node433</title>
<g id="a_node6"><a xlink:href="classPulse.html#a7df09d55ecd7193d5491170e6888350a" target="_top" xlink:title="Pulse::round">
<polygon fill="#ffffff" stroke="#000000" points="329,-.5 329,-19.5 406,-19.5 406,-.5 329,-.5"/>
<text text-anchor="middle" x="367.5" y="-7.5" font-family="Helvetica,sans-Serif" font-size="10.00" fill="#000000">Pulse::round</text>
</a>
</g>
</g>
<!-- Node432&#45;&gt;Node433 -->
<g id="edge5" class="edge">
<title>Node432&#45;&gt;Node433</title>
<path fill="none" stroke="#191970" d="M288.1966,-10C298.453,-10 308.9438,-10 318.7969,-10"/>
<polygon fill="#191970" stroke="#191970" points="318.7976,-13.5001 328.7976,-10 318.7975,-6.5001 318.7976,-13.5001"/>
</g>
</g>
</svg>
