<?xml version="1.0" encoding="UTF-8" standalone="no"?>
<!DOCTYPE svg PUBLIC "-//W3C//DTD SVG 1.1//EN"
 "http://www.w3.org/Graphics/SVG/1.1/DTD/svg11.dtd">
<!-- Generated by graphviz version 2.40.1 (20161225.0304)
 -->
<!-- Title: ItemRenamer::IsRenaming Pages: 1 -->
<svg width="533pt" height="66pt"
 viewBox="0.00 0.00 533.00 66.00" xmlns="http://www.w3.org/2000/svg" xmlns:xlink="http://www.w3.org/1999/xlink">
<g id="graph0" class="graph" transform="scale(1 1) rotate(0) translate(4 62)">
<title>ItemRenamer::IsRenaming</title>
<polygon fill="#ffffff" stroke="transparent" points="-4,4 -4,-62 529,-62 529,4 -4,4"/>
<!-- Node28 -->
<g id="node1" class="node">
<title>Node28</title>
<polygon fill="#bfbfbf" stroke="#000000" points="0,-19.5 0,-38.5 146,-38.5 146,-19.5 0,-19.5"/>
<text text-anchor="middle" x="73" y="-26.5" font-family="Helvetica,sans-Serif" font-size="10.00" fill="#000000">ItemRenamer::IsRenaming</text>
</g>
<!-- Node29 -->
<g id="node2" class="node">
<title>Node29</title>
<g id="a_node2"><a xlink:href="classLoopManager.html#afe784bb20bf5fc2605fdc3273b3c1be8" target="_top" xlink:title="LoopManager::RenameLoop">
<polygon fill="#ffffff" stroke="#000000" points="182,-19.5 182,-38.5 333,-38.5 333,-19.5 182,-19.5"/>
<text text-anchor="middle" x="257.5" y="-26.5" font-family="Helvetica,sans-Serif" font-size="10.00" fill="#000000">LoopManager::RenameLoop</text>
</a>
</g>
</g>
<!-- Node28&#45;&gt;Node29 -->
<g id="edge1" class="edge">
<title>Node28&#45;&gt;Node29</title>
<path fill="none" stroke="#191970" d="M156.2009,-29C164.7902,-29 173.4853,-29 181.9843,-29"/>
<polygon fill="#191970" stroke="#191970" points="156.1843,-25.5001 146.1843,-29 156.1842,-32.5001 156.1843,-25.5001"/>
</g>
<!-- Node30 -->
<g id="node3" class="node">
<title>Node30</title>
<g id="a_node3"><a xlink:href="classLoopManager.html#a242f1bd7eba01c186de801ba393503e7" target="_top" xlink:title="LoopManager::ItemRenamed">
<polygon fill="#ffffff" stroke="#000000" points="369,-38.5 369,-57.5 525,-57.5 525,-38.5 369,-38.5"/>
<text text-anchor="middle" x="447" y="-45.5" font-family="Helvetica,sans-Serif" font-size="10.00" fill="#000000">LoopManager::ItemRenamed</text>
</a>
</g>
</g>
<!-- Node29&#45;&gt;Node30 -->
<g id="edge2" class="edge">
<title>Node29&#45;&gt;Node30</title>
<path fill="none" stroke="#191970" d="M343.2083,-37.5934C351.7767,-38.4525 360.4447,-39.3216 368.9285,-40.1722"/>
<polygon fill="#191970" stroke="#191970" points="343.5117,-34.1064 333.2124,-36.5912 342.8133,-41.0715 343.5117,-34.1064"/>
</g>
<!-- Node31 -->
<g id="node4" class="node">
<title>Node31</title>
<g id="a_node4"><a xlink:href="classLoopManager.html#a4aada2d07b7ce0a67a8119ece4805966" target="_top" xlink:title="LoopManager::ReceiveEvent">
<polygon fill="#ffffff" stroke="#000000" points="370,-.5 370,-19.5 524,-19.5 524,-.5 370,-.5"/>
<text text-anchor="middle" x="447" y="-7.5" font-family="Helvetica,sans-Serif" font-size="10.00" fill="#000000">LoopManager::ReceiveEvent</text>
</a>
</g>
</g>
<!-- Node29&#45;&gt;Node31 -->
<g id="edge3" class="edge">
<title>Node29&#45;&gt;Node31</title>
<path fill="none" stroke="#191970" d="M343.1862,-20.4088C352.0756,-19.5175 361.0723,-18.6154 369.8596,-17.7344"/>
<polygon fill="#191970" stroke="#191970" points="342.8133,-16.9285 333.2124,-21.4088 343.5117,-23.8936 342.8133,-16.9285"/>
</g>
</g>
</svg>
