<?xml version="1.0" encoding="UTF-8" standalone="no"?>
<!DOCTYPE svg PUBLIC "-//W3C//DTD SVG 1.1//EN"
 "http://www.w3.org/Graphics/SVG/1.1/DTD/svg11.dtd">
<!-- Generated by graphviz version 2.40.1 (20161225.0304)
 -->
<!-- Title: Saveable::GetHashFirst Pages: 1 -->
<svg width="935pt" height="66pt"
 viewBox="0.00 0.00 935.00 66.00" xmlns="http://www.w3.org/2000/svg" xmlns:xlink="http://www.w3.org/1999/xlink">
<g id="graph0" class="graph" transform="scale(1 1) rotate(0) translate(4 62)">
<title>Saveable::GetHashFirst</title>
<polygon fill="#ffffff" stroke="transparent" points="-4,4 -4,-62 931,-62 931,4 -4,4"/>
<!-- Node11 -->
<g id="node1" class="node">
<title>Node11</title>
<polygon fill="#bfbfbf" stroke="#000000" points="0,-19.5 0,-38.5 130,-38.5 130,-19.5 0,-19.5"/>
<text text-anchor="middle" x="65" y="-26.5" font-family="Helvetica,sans-Serif" font-size="10.00" fill="#000000">Saveable::GetHashFirst</text>
</g>
<!-- Node12 -->
<g id="node2" class="node">
<title>Node12</title>
<g id="a_node2"><a xlink:href="classBrowser.html#a614d2a2fddedf26b70ffba07b73a0678" target="_top" xlink:title="Browser::GetDisplayName">
<polygon fill="#ffffff" stroke="#000000" points="166,-19.5 166,-38.5 312,-38.5 312,-19.5 166,-19.5"/>
<text text-anchor="middle" x="239" y="-26.5" font-family="Helvetica,sans-Serif" font-size="10.00" fill="#000000">Browser::GetDisplayName</text>
</a>
</g>
</g>
<!-- Node11&#45;&gt;Node12 -->
<g id="edge1" class="edge">
<title>Node11&#45;&gt;Node12</title>
<path fill="none" stroke="#191970" d="M140.4369,-29C148.8358,-29 157.381,-29 165.752,-29"/>
<polygon fill="#191970" stroke="#191970" points="140.2863,-25.5001 130.2862,-29 140.2862,-32.5001 140.2863,-25.5001"/>
</g>
<!-- Node13 -->
<g id="node3" class="node">
<title>Node13</title>
<g id="a_node3"><a xlink:href="classLoopManager.html#a175985d1a7e21f019251ff996217cbb0" target="_top" xlink:title="LoopManager::AddLoopToBrowser">
<polygon fill="#ffffff" stroke="#000000" points="351,-38.5 351,-57.5 531,-57.5 531,-38.5 351,-38.5"/>
<text text-anchor="middle" x="441" y="-45.5" font-family="Helvetica,sans-Serif" font-size="10.00" fill="#000000">LoopManager::AddLoopToBrowser</text>
</a>
</g>
</g>
<!-- Node12&#45;&gt;Node13 -->
<g id="edge2" class="edge">
<title>Node12&#45;&gt;Node13</title>
<path fill="none" stroke="#191970" d="M322.3143,-36.8365C331.7151,-37.7207 341.3269,-38.6248 350.8102,-39.5168"/>
<polygon fill="#191970" stroke="#191970" points="322.4961,-33.3382 312.2122,-35.8863 321.8405,-40.3075 322.4961,-33.3382"/>
</g>
<!-- Node16 -->
<g id="node6" class="node">
<title>Node16</title>
<g id="a_node6"><a xlink:href="classLoopManager.html#a0c2604681ae7de5415cef3f2690e4a0c" target="_top" xlink:title="LoopManager::AddSceneToBrowser">
<polygon fill="#ffffff" stroke="#000000" points="348,-.5 348,-19.5 534,-19.5 534,-.5 348,-.5"/>
<text text-anchor="middle" x="441" y="-7.5" font-family="Helvetica,sans-Serif" font-size="10.00" fill="#000000">LoopManager::AddSceneToBrowser</text>
</a>
</g>
</g>
<!-- Node12&#45;&gt;Node16 -->
<g id="edge5" class="edge">
<title>Node12&#45;&gt;Node16</title>
<path fill="none" stroke="#191970" d="M322.3143,-21.1635C330.6772,-20.3769 339.2071,-19.5746 347.6648,-18.779"/>
<polygon fill="#191970" stroke="#191970" points="321.8405,-17.6925 312.2122,-22.1137 322.4961,-24.6618 321.8405,-17.6925"/>
</g>
<!-- Node14 -->
<g id="node4" class="node">
<title>Node14</title>
<g id="a_node4"><a xlink:href="classLoopManager.html#a306ffe72c9623e33cad280ec3609c359" target="_top" xlink:title="LoopManager::SetupSaveLoop">
<polygon fill="#ffffff" stroke="#000000" points="570,-38.5 570,-57.5 733,-57.5 733,-38.5 570,-38.5"/>
<text text-anchor="middle" x="651.5" y="-45.5" font-family="Helvetica,sans-Serif" font-size="10.00" fill="#000000">LoopManager::SetupSaveLoop</text>
</a>
</g>
</g>
<!-- Node13&#45;&gt;Node14 -->
<g id="edge3" class="edge">
<title>Node13&#45;&gt;Node14</title>
<path fill="none" stroke="#191970" d="M541.4629,-48C550.9652,-48 560.5197,-48 569.8157,-48"/>
<polygon fill="#191970" stroke="#191970" points="541.187,-44.5001 531.187,-48 541.187,-51.5001 541.187,-44.5001"/>
</g>
<!-- Node15 -->
<g id="node5" class="node">
<title>Node15</title>
<g id="a_node5"><a xlink:href="classLoopManager.html#a00143be12c150c0a89c4f99c1e8d5e70" target="_top" xlink:title="LoopManager::GetWriteBlock">
<polygon fill="#ffffff" stroke="#000000" points="769,-19.5 769,-38.5 927,-38.5 927,-19.5 769,-19.5"/>
<text text-anchor="middle" x="848" y="-26.5" font-family="Helvetica,sans-Serif" font-size="10.00" fill="#000000">LoopManager::GetWriteBlock</text>
</a>
</g>
</g>
<!-- Node14&#45;&gt;Node15 -->
<g id="edge4" class="edge">
<title>Node14&#45;&gt;Node15</title>
<path fill="none" stroke="#191970" d="M743.1537,-39.1378C751.7352,-38.308 760.3841,-37.4718 768.8369,-36.6544"/>
<polygon fill="#191970" stroke="#191970" points="742.7433,-35.6611 733.1266,-40.1074 743.4171,-42.6286 742.7433,-35.6611"/>
</g>
<!-- Node17 -->
<g id="node7" class="node">
<title>Node17</title>
<g id="a_node7"><a xlink:href="classTriggerMap.html#a92e251eec5a7c5741807805b6869fab8" target="_top" xlink:title="TriggerMap::GoSave">
<polygon fill="#ffffff" stroke="#000000" points="595,-.5 595,-19.5 708,-19.5 708,-.5 595,-.5"/>
<text text-anchor="middle" x="651.5" y="-7.5" font-family="Helvetica,sans-Serif" font-size="10.00" fill="#000000">TriggerMap::GoSave</text>
</a>
</g>
</g>
<!-- Node16&#45;&gt;Node17 -->
<g id="edge6" class="edge">
<title>Node16&#45;&gt;Node17</title>
<path fill="none" stroke="#191970" d="M544.4595,-10C561.8407,-10 579.2871,-10 594.9017,-10"/>
<polygon fill="#191970" stroke="#191970" points="544.2477,-6.5001 534.2476,-10 544.2476,-13.5001 544.2477,-6.5001"/>
</g>
<!-- Node17&#45;&gt;Node15 -->
<g id="edge7" class="edge">
<title>Node17&#45;&gt;Node15</title>
<path fill="none" stroke="#191970" d="M718.0413,-16.434C734.3532,-18.0112 751.9711,-19.7148 768.812,-21.3431"/>
<polygon fill="#191970" stroke="#191970" points="718.3628,-12.9489 708.0723,-15.4701 717.689,-19.9164 718.3628,-12.9489"/>
</g>
</g>
</svg>
