<?xml version="1.0" encoding="UTF-8" standalone="no"?>
<!DOCTYPE svg PUBLIC "-//W3C//DTD SVG 1.1//EN"
 "http://www.w3.org/Graphics/SVG/1.1/DTD/svg11.dtd">
<!-- Generated by graphviz version 2.40.1 (20161225.0304)
 -->
<!-- Title: UserVariable::SetFrom Pages: 1 -->
<svg width="1093pt" height="520pt"
 viewBox="0.00 0.00 1093.00 520.00" xmlns="http://www.w3.org/2000/svg" xmlns:xlink="http://www.w3.org/1999/xlink">
<g id="graph0" class="graph" transform="scale(1 1) rotate(0) translate(4 516)">
<title>UserVariable::SetFrom</title>
<polygon fill="#ffffff" stroke="transparent" points="-4,4 -4,-516 1089,-516 1089,4 -4,4"/>
<!-- Node79 -->
<g id="node1" class="node">
<title>Node79</title>
<polygon fill="#bfbfbf" stroke="#000000" points="0,-118.5 0,-137.5 125,-137.5 125,-118.5 0,-118.5"/>
<text text-anchor="middle" x="62.5" y="-125.5" font-family="Helvetica,sans-Serif" font-size="10.00" fill="#000000">UserVariable::SetFrom</text>
</g>
<!-- Node80 -->
<g id="node2" class="node">
<title>Node80</title>
<g id="a_node2"><a xlink:href="classCfgToken.html#a5e30ffe3bc7cf2483e390cf023eaa6c0" target="_top" xlink:title="CfgToken::Evaluate">
<polygon fill="#ffffff" stroke="#000000" points="161,-290.5 161,-309.5 271,-309.5 271,-290.5 161,-290.5"/>
<text text-anchor="middle" x="216" y="-297.5" font-family="Helvetica,sans-Serif" font-size="10.00" fill="#000000">CfgToken::Evaluate</text>
</a>
</g>
</g>
<!-- Node79&#45;&gt;Node80 -->
<g id="edge1" class="edge">
<title>Node79&#45;&gt;Node80</title>
<path fill="none" stroke="#191970" d="M78.0767,-145.454C110.1222,-181.3617 182.5111,-262.475 207.4027,-290.3665"/>
<polygon fill="#191970" stroke="#191970" points="80.4624,-142.8708 71.1926,-137.7403 75.2398,-147.5317 80.4624,-142.8708"/>
</g>
<!-- Node86 -->
<g id="node8" class="node">
<title>Node86</title>
<g id="a_node8"><a xlink:href="classInputMatrix.html#aa74204a205a10f2b60809ea124db9173" target="_top" xlink:title="InputMatrix::ReceiveEvent">
<polygon fill="#ffffff" stroke="#000000" points="941,-340.5 941,-359.5 1085,-359.5 1085,-340.5 941,-340.5"/>
<text text-anchor="middle" x="1013" y="-347.5" font-family="Helvetica,sans-Serif" font-size="10.00" fill="#000000">InputMatrix::ReceiveEvent</text>
</a>
</g>
</g>
<!-- Node79&#45;&gt;Node86 -->
<g id="edge22" class="edge">
<title>Node79&#45;&gt;Node86</title>
<path fill="none" stroke="#191970" d="M84.1688,-112.5702C134.1667,-78.5314 262.5188,0 382.5,0 382.5,0 382.5,0 585,0 806.2508,0 976.0583,-283.7461 1007.6919,-340.2737"/>
<polygon fill="#191970" stroke="#191970" points="82.0007,-109.814 75.7647,-118.3792 85.9809,-115.5723 82.0007,-109.814"/>
</g>
<!-- Node81 -->
<g id="node3" class="node">
<title>Node81</title>
<g id="a_node3"><a xlink:href="classParsedExpression.html#a8b8c5462181f05c11f51df722809ac7e" target="_top" xlink:title="ParsedExpression::Evaluate">
<polygon fill="#ffffff" stroke="#000000" points="307,-271.5 307,-290.5 458,-290.5 458,-271.5 307,-271.5"/>
<text text-anchor="middle" x="382.5" y="-278.5" font-family="Helvetica,sans-Serif" font-size="10.00" fill="#000000">ParsedExpression::Evaluate</text>
</a>
</g>
</g>
<!-- Node80&#45;&gt;Node81 -->
<g id="edge2" class="edge">
<title>Node80&#45;&gt;Node81</title>
<path fill="none" stroke="#191970" d="M281.4578,-292.5303C289.7899,-291.5795 298.3715,-290.6003 306.8471,-289.6331"/>
<polygon fill="#191970" stroke="#191970" points="280.9808,-289.062 271.4421,-293.6733 281.7745,-296.0168 280.9808,-289.062"/>
</g>
<!-- Node87 -->
<g id="node9" class="node">
<title>Node87</title>
<g id="a_node9"><a xlink:href="classInputMatrix.html#a807406bec8679e3cce28776cee3a01d3" target="_top" xlink:title="InputMatrix::CheckConditions">
<polygon fill="#ffffff" stroke="#000000" points="505,-492.5 505,-511.5 665,-511.5 665,-492.5 505,-492.5"/>
<text text-anchor="middle" x="585" y="-499.5" font-family="Helvetica,sans-Serif" font-size="10.00" fill="#000000">InputMatrix::CheckConditions</text>
</a>
</g>
</g>
<!-- Node80&#45;&gt;Node87 -->
<g id="edge20" class="edge">
<title>Node80&#45;&gt;Node87</title>
<path fill="none" stroke="#191970" d="M281.3274,-302.2906C344.0323,-305.8565 432.8237,-314.938 458,-338 506.9634,-382.8516 446.1749,-436.9365 494,-483 497.836,-486.6947 502.1952,-489.7526 506.8789,-492.2765"/>
<polygon fill="#191970" stroke="#191970" points="281.2856,-298.7834 271.113,-301.7448 280.912,-305.7735 281.2856,-298.7834"/>
</g>
<!-- Node97 -->
<g id="node19" class="node">
<title>Node97</title>
<g id="a_node19"><a xlink:href="classParsedExpression.html#ad5786c9f763dee1580050648f130a6c0" target="_top" xlink:title="ParsedExpression::\l~ParsedExpression">
<polygon fill="#ffffff" stroke="#000000" points="327.5,-348 327.5,-378 437.5,-378 437.5,-348 327.5,-348"/>
<text text-anchor="start" x="335.5" y="-366" font-family="Helvetica,sans-Serif" font-size="10.00" fill="#000000">ParsedExpression::</text>
<text text-anchor="middle" x="382.5" y="-355" font-family="Helvetica,sans-Serif" font-size="10.00" fill="#000000">~ParsedExpression</text>
</a>
</g>
</g>
<!-- Node80&#45;&gt;Node97 -->
<g id="edge21" class="edge">
<title>Node80&#45;&gt;Node97</title>
<path fill="none" stroke="#191970" d="M250.6638,-313.116C277.4819,-323.2634 314.6484,-337.3264 342.6852,-347.935"/>
<polygon fill="#191970" stroke="#191970" points="251.8793,-309.8338 241.2878,-309.5683 249.402,-316.3808 251.8793,-309.8338"/>
</g>
<!-- Node82 -->
<g id="node4" class="node">
<title>Node82</title>
<g id="a_node4"><a xlink:href="classInputMatrix.html#ab36ad421b65b64d6e64f228b84792b4c" target="_top" xlink:title="InputMatrix::CreateParameterSets">
<polygon fill="#ffffff" stroke="#000000" points="494,-416.5 494,-435.5 676,-435.5 676,-416.5 494,-416.5"/>
<text text-anchor="middle" x="585" y="-423.5" font-family="Helvetica,sans-Serif" font-size="10.00" fill="#000000">InputMatrix::CreateParameterSets</text>
</a>
</g>
</g>
<!-- Node81&#45;&gt;Node82 -->
<g id="edge3" class="edge">
<title>Node81&#45;&gt;Node82</title>
<path fill="none" stroke="#191970" d="M444.1493,-294.9967C449.2038,-297.7531 453.9255,-301.0519 458,-305 492.5248,-338.4536 457.8155,-375.3489 494,-407 498.3732,-410.8253 503.316,-413.9505 508.5817,-416.4968"/>
<polygon fill="#191970" stroke="#191970" points="445.3,-291.6708 434.7596,-290.598 442.3305,-298.0097 445.3,-291.6708"/>
</g>
<!-- Node84 -->
<g id="node6" class="node">
<title>Node84</title>
<g id="a_node6"><a xlink:href="classInputMatrix.html#a767b7c5cd149e18a51105922aa9e8abb" target="_top" xlink:title="InputMatrix::CreateConditions">
<polygon fill="#ffffff" stroke="#000000" points="504,-378.5 504,-397.5 666,-397.5 666,-378.5 504,-378.5"/>
<text text-anchor="middle" x="585" y="-385.5" font-family="Helvetica,sans-Serif" font-size="10.00" fill="#000000">InputMatrix::CreateConditions</text>
</a>
</g>
</g>
<!-- Node81&#45;&gt;Node84 -->
<g id="edge5" class="edge">
<title>Node81&#45;&gt;Node84</title>
<path fill="none" stroke="#191970" d="M440.0839,-294.4128C446.4825,-297.2914 452.6203,-300.7785 458,-305 482.1659,-323.9635 469.3684,-345.6454 494,-364 502.5159,-370.3458 512.574,-375.0163 522.842,-378.4532"/>
<polygon fill="#191970" stroke="#191970" points="441.1654,-291.076 430.5805,-290.616 438.5683,-297.5764 441.1654,-291.076"/>
</g>
<!-- Node85 -->
<g id="node7" class="node">
<title>Node85</title>
<g id="a_node7"><a xlink:href="classInputMatrix.html#a00d9617869e0fc8ab7101a4f2ff22591" target="_top" xlink:title="InputMatrix::SetDynamicParameters">
<polygon fill="#ffffff" stroke="#000000" points="712,-340.5 712,-359.5 905,-359.5 905,-340.5 712,-340.5"/>
<text text-anchor="middle" x="808.5" y="-347.5" font-family="Helvetica,sans-Serif" font-size="10.00" fill="#000000">InputMatrix::SetDynamicParameters</text>
</a>
</g>
</g>
<!-- Node81&#45;&gt;Node85 -->
<g id="edge7" class="edge">
<title>Node81&#45;&gt;Node85</title>
<path fill="none" stroke="#191970" d="M429.9725,-293.6959C439.461,-296.8947 449.2076,-300.6724 458,-305 475.4774,-313.6023 475.6048,-323.5911 494,-330 564.1355,-354.4351 648.3232,-358.5794 711.9387,-357.0814"/>
<polygon fill="#191970" stroke="#191970" points="430.8197,-290.2921 420.2286,-290.5733 428.6834,-296.9582 430.8197,-290.2921"/>
</g>
<!-- Node81&#45;&gt;Node87 -->
<g id="edge9" class="edge">
<title>Node81&#45;&gt;Node87</title>
<path fill="none" stroke="#191970" d="M445.9873,-295.1549C450.4393,-297.8833 454.5297,-301.1322 458,-305 511.9023,-365.0759 437.1068,-425.7485 494,-483 497.7542,-486.7778 502.0526,-489.8974 506.6926,-492.4657"/>
<polygon fill="#191970" stroke="#191970" points="447.5375,-292.0163 437.0484,-290.5236 444.3173,-298.2316 447.5375,-292.0163"/>
</g>
<!-- Node89 -->
<g id="node11" class="node">
<title>Node89</title>
<g id="a_node11"><a xlink:href="classFloConfig.html#a84e84f401372ccc9c70b7a96765b96b9" target="_top" xlink:title="FloConfig::ConfigureDisplay\l_Common">
<polygon fill="#ffffff" stroke="#000000" points="509.5,-242 509.5,-272 660.5,-272 660.5,-242 509.5,-242"/>
<text text-anchor="start" x="517.5" y="-260" font-family="Helvetica,sans-Serif" font-size="10.00" fill="#000000">FloConfig::ConfigureDisplay</text>
<text text-anchor="middle" x="585" y="-249" font-family="Helvetica,sans-Serif" font-size="10.00" fill="#000000">_Common</text>
</a>
</g>
</g>
<!-- Node81&#45;&gt;Node89 -->
<g id="edge12" class="edge">
<title>Node81&#45;&gt;Node89</title>
<path fill="none" stroke="#191970" d="M468.4981,-270.8076C482.0937,-269.1963 496.0647,-267.5405 509.4002,-265.96"/>
<polygon fill="#191970" stroke="#191970" points="467.71,-267.3764 458.1915,-272.0292 468.534,-274.3278 467.71,-267.3764"/>
</g>
<!-- Node90 -->
<g id="node12" class="node">
<title>Node90</title>
<g id="a_node12"><a xlink:href="classFloConfig.html#a0418811597242166fc9cfd76a0e086c9" target="_top" xlink:title="FloConfig::ConfigureDisplay">
<polygon fill="#ffffff" stroke="#000000" points="509.5,-203.5 509.5,-222.5 660.5,-222.5 660.5,-203.5 509.5,-203.5"/>
<text text-anchor="middle" x="585" y="-210.5" font-family="Helvetica,sans-Serif" font-size="10.00" fill="#000000">FloConfig::ConfigureDisplay</text>
</a>
</g>
</g>
<!-- Node81&#45;&gt;Node90 -->
<g id="edge13" class="edge">
<title>Node81&#45;&gt;Node90</title>
<path fill="none" stroke="#191970" d="M410.1268,-266.9256C432.3171,-256.0981 464.5309,-241.438 494,-232 505.5277,-228.3081 518.1115,-225.1486 530.1431,-222.5265"/>
<polygon fill="#191970" stroke="#191970" points="408.3877,-263.881 400.9754,-271.4513 411.4907,-270.1557 408.3877,-263.881"/>
</g>
<!-- Node91 -->
<g id="node13" class="node">
<title>Node91</title>
<g id="a_node13"><a xlink:href="classFloDisplayText.html#a7fba83ced538ac59c4e7e9b0fd5c7c5f" target="_top" xlink:title="FloDisplayText::Draw">
<polygon fill="#ffffff" stroke="#000000" points="525.5,-165.5 525.5,-184.5 644.5,-184.5 644.5,-165.5 525.5,-165.5"/>
<text text-anchor="middle" x="585" y="-172.5" font-family="Helvetica,sans-Serif" font-size="10.00" fill="#000000">FloDisplayText::Draw</text>
</a>
</g>
</g>
<!-- Node81&#45;&gt;Node91 -->
<g id="edge14" class="edge">
<title>Node81&#45;&gt;Node91</title>
<path fill="none" stroke="#191970" d="M398.8374,-264.2213C419.2236,-244.3102 456.0479,-211.5996 494,-194 503.8099,-189.4509 514.7181,-185.9815 525.4778,-183.3383"/>
<polygon fill="#191970" stroke="#191970" points="396.2374,-261.8711 391.6238,-271.4086 401.1781,-266.8299 396.2374,-261.8711"/>
</g>
<!-- Node92 -->
<g id="node14" class="node">
<title>Node92</title>
<g id="a_node14"><a xlink:href="classFloDisplaySwitch.html#acdd027d06c761826dd773346a94f5875" target="_top" xlink:title="FloDisplaySwitch::Draw">
<polygon fill="#ffffff" stroke="#000000" points="519.5,-127.5 519.5,-146.5 650.5,-146.5 650.5,-127.5 519.5,-127.5"/>
<text text-anchor="middle" x="585" y="-134.5" font-family="Helvetica,sans-Serif" font-size="10.00" fill="#000000">FloDisplaySwitch::Draw</text>
</a>
</g>
</g>
<!-- Node81&#45;&gt;Node92 -->
<g id="edge15" class="edge">
<title>Node81&#45;&gt;Node92</title>
<path fill="none" stroke="#191970" d="M393.4376,-262.5659C410.9567,-234.769 448.0565,-182.5578 494,-156 501.8248,-151.4769 510.5807,-148.0234 519.4859,-145.3881"/>
<polygon fill="#191970" stroke="#191970" points="390.3259,-260.9447 388.0751,-271.2977 396.2909,-264.608 390.3259,-260.9447"/>
</g>
<!-- Node93 -->
<g id="node15" class="node">
<title>Node93</title>
<g id="a_node15"><a xlink:href="classFloDisplayCircleSwitch.html#a592f8a024274ed06523ad2e71402fe05" target="_top" xlink:title="FloDisplayCircleSwitch\l::Draw">
<polygon fill="#ffffff" stroke="#000000" points="521,-78 521,-108 649,-108 649,-78 521,-78"/>
<text text-anchor="start" x="529" y="-96" font-family="Helvetica,sans-Serif" font-size="10.00" fill="#000000">FloDisplayCircleSwitch</text>
<text text-anchor="middle" x="585" y="-85" font-family="Helvetica,sans-Serif" font-size="10.00" fill="#000000">::Draw</text>
</a>
</g>
</g>
<!-- Node81&#45;&gt;Node93 -->
<g id="edge16" class="edge">
<title>Node81&#45;&gt;Node93</title>
<path fill="none" stroke="#191970" d="M390.2627,-261.795C405.1157,-227.5251 440.8744,-155.8854 494,-118 502.0037,-112.2923 511.2544,-107.8869 520.728,-104.4867"/>
<polygon fill="#191970" stroke="#191970" points="386.978,-260.5771 386.3282,-271.152 393.4308,-263.2904 386.978,-260.5771"/>
</g>
<!-- Node94 -->
<g id="node16" class="node">
<title>Node94</title>
<g id="a_node16"><a xlink:href="classFloDisplayTextSwitch.html#adae37b9c2217f4edb941b5fb1dcac359" target="_top" xlink:title="FloDisplayTextSwitch\l::Draw">
<polygon fill="#ffffff" stroke="#000000" points="525,-29 525,-59 645,-59 645,-29 525,-29"/>
<text text-anchor="start" x="533" y="-47" font-family="Helvetica,sans-Serif" font-size="10.00" fill="#000000">FloDisplayTextSwitch</text>
<text text-anchor="middle" x="585" y="-36" font-family="Helvetica,sans-Serif" font-size="10.00" fill="#000000">::Draw</text>
</a>
</g>
</g>
<!-- Node81&#45;&gt;Node94 -->
<g id="edge17" class="edge">
<title>Node81&#45;&gt;Node94</title>
<path fill="none" stroke="#191970" d="M387.0805,-261.2689C397.9331,-219.0485 429.2949,-119.6013 494,-68 502.9419,-60.869 513.7976,-55.8433 524.8519,-52.3048"/>
<polygon fill="#191970" stroke="#191970" points="383.6419,-260.5951 384.6532,-271.1416 390.4395,-262.2664 383.6419,-260.5951"/>
</g>
<!-- Node95 -->
<g id="node17" class="node">
<title>Node95</title>
<g id="a_node17"><a xlink:href="classFloDisplayBar.html#aa49253add55fdb47e70ee4344dfc38e2" target="_top" xlink:title="FloDisplayBar::Draw">
<polygon fill="#ffffff" stroke="#000000" points="527,-454.5 527,-473.5 643,-473.5 643,-454.5 527,-454.5"/>
<text text-anchor="middle" x="585" y="-461.5" font-family="Helvetica,sans-Serif" font-size="10.00" fill="#000000">FloDisplayBar::Draw</text>
</a>
</g>
</g>
<!-- Node81&#45;&gt;Node95 -->
<g id="edge18" class="edge">
<title>Node81&#45;&gt;Node95</title>
<path fill="none" stroke="#191970" d="M445.5522,-295.2254C450.135,-297.9372 454.3725,-301.1631 458,-305 502.1373,-351.6851 447.5413,-400.6243 494,-445 502.9865,-453.5836 514.7998,-458.7226 526.9264,-461.7125"/>
<polygon fill="#191970" stroke="#191970" points="446.8898,-291.9806 436.3828,-290.6186 443.7472,-298.2356 446.8898,-291.9806"/>
</g>
<!-- Node96 -->
<g id="node18" class="node">
<title>Node96</title>
<g id="a_node18"><a xlink:href="classFloDisplayBarSwitch.html#a272468a8334d56f0c493b5273774c88d" target="_top" xlink:title="FloDisplayBarSwitch\l::Draw">
<polygon fill="#ffffff" stroke="#000000" points="527,-291 527,-321 643,-321 643,-291 527,-291"/>
<text text-anchor="start" x="535" y="-309" font-family="Helvetica,sans-Serif" font-size="10.00" fill="#000000">FloDisplayBarSwitch</text>
<text text-anchor="middle" x="585" y="-298" font-family="Helvetica,sans-Serif" font-size="10.00" fill="#000000">::Draw</text>
</a>
</g>
</g>
<!-- Node81&#45;&gt;Node96 -->
<g id="edge19" class="edge">
<title>Node81&#45;&gt;Node96</title>
<path fill="none" stroke="#191970" d="M468.1306,-291.5717C487.9074,-294.0133 508.4989,-296.5554 526.7883,-298.8134"/>
<polygon fill="#191970" stroke="#191970" points="468.545,-288.0964 458.1915,-290.3446 467.6873,-295.0436 468.545,-288.0964"/>
</g>
<!-- Node83 -->
<g id="node5" class="node">
<title>Node83</title>
<g id="a_node5"><a xlink:href="classInputMatrix.html#a792ede8dc637e3d8e6c4aa8141596d18" target="_top" xlink:title="InputMatrix::CreateBinding">
<polygon fill="#ffffff" stroke="#000000" points="735,-397.5 735,-416.5 882,-416.5 882,-397.5 735,-397.5"/>
<text text-anchor="middle" x="808.5" y="-404.5" font-family="Helvetica,sans-Serif" font-size="10.00" fill="#000000">InputMatrix::CreateBinding</text>
</a>
</g>
</g>
<!-- Node82&#45;&gt;Node83 -->
<g id="edge4" class="edge">
<title>Node82&#45;&gt;Node83</title>
<path fill="none" stroke="#191970" d="M686.3751,-417.382C702.754,-415.9896 719.4328,-414.5717 734.9876,-413.2494"/>
<polygon fill="#191970" stroke="#191970" points="685.8959,-413.91 676.2284,-418.2446 686.4889,-420.8848 685.8959,-413.91"/>
</g>
<!-- Node84&#45;&gt;Node83 -->
<g id="edge6" class="edge">
<title>Node84&#45;&gt;Node83</title>
<path fill="none" stroke="#191970" d="M676.124,-395.7466C695.6521,-397.4067 716.0508,-399.1408 734.8218,-400.7365"/>
<polygon fill="#191970" stroke="#191970" points="676.2652,-392.246 666.0046,-394.8863 675.6722,-399.2209 676.2652,-392.246"/>
</g>
<!-- Node85&#45;&gt;Node86 -->
<g id="edge8" class="edge">
<title>Node85&#45;&gt;Node86</title>
<path fill="none" stroke="#191970" d="M915.2802,-350C923.9813,-350 932.6385,-350 940.9993,-350"/>
<polygon fill="#191970" stroke="#191970" points="915.061,-346.5001 905.061,-350 915.0609,-353.5001 915.061,-346.5001"/>
</g>
<!-- Node88 -->
<g id="node10" class="node">
<title>Node88</title>
<g id="a_node10"><a xlink:href="classInputMatrix.html#a3de81b8f75cd4030108b107bfb584246" target="_top" xlink:title="InputMatrix::MatchBinding">
<polygon fill="#ffffff" stroke="#000000" points="736.5,-463.5 736.5,-482.5 880.5,-482.5 880.5,-463.5 736.5,-463.5"/>
<text text-anchor="middle" x="808.5" y="-470.5" font-family="Helvetica,sans-Serif" font-size="10.00" fill="#000000">InputMatrix::MatchBinding</text>
</a>
</g>
</g>
<!-- Node87&#45;&gt;Node88 -->
<g id="edge10" class="edge">
<title>Node87&#45;&gt;Node88</title>
<path fill="none" stroke="#191970" d="M668.6189,-491.1501C690.9359,-488.2544 714.8538,-485.151 736.4873,-482.3439"/>
<polygon fill="#191970" stroke="#191970" points="667.9583,-487.7064 658.4918,-492.4641 668.8591,-494.6482 667.9583,-487.7064"/>
</g>
<!-- Node88&#45;&gt;Node86 -->
<g id="edge11" class="edge">
<title>Node88&#45;&gt;Node86</title>
<path fill="none" stroke="#191970" d="M840.0671,-459.1786C859.2437,-450.4043 883.9954,-438.398 905,-426 941.3296,-404.5565 981.2283,-374.6763 1000.7977,-359.5649"/>
<polygon fill="#191970" stroke="#191970" points="838.5409,-456.0275 830.8699,-463.3354 841.4239,-462.4063 838.5409,-456.0275"/>
</g>
</g>
</svg>
