<?xml version="1.0" encoding="UTF-8" standalone="no"?>
<!DOCTYPE svg PUBLIC "-//W3C//DTD SVG 1.1//EN"
 "http://www.w3.org/Graphics/SVG/1.1/DTD/svg11.dtd">
<!-- Generated by graphviz version 2.40.1 (20161225.0304)
 -->
<!-- Title: LoopManager::LoadScene Pages: 1 -->
<svg width="713pt" height="389pt"
 viewBox="0.00 0.00 713.00 389.00" xmlns="http://www.w3.org/2000/svg" xmlns:xlink="http://www.w3.org/1999/xlink">
<g id="graph0" class="graph" transform="scale(1 1) rotate(0) translate(4 385)">
<title>LoopManager::LoadScene</title>
<polygon fill="#ffffff" stroke="transparent" points="-4,4 -4,-385 709,-385 709,4 -4,4"/>
<!-- Node644 -->
<g id="node1" class="node">
<title>Node644</title>
<polygon fill="#bfbfbf" stroke="#000000" points="0,-247.5 0,-266.5 140,-266.5 140,-247.5 0,-247.5"/>
<text text-anchor="middle" x="70" y="-254.5" font-family="Helvetica,sans-Serif" font-size="10.00" fill="#000000">LoopManager::LoadScene</text>
</g>
<!-- Node645 -->
<g id="node2" class="node">
<title>Node645</title>
<g id="a_node2"><a xlink:href="classFweelin.html#a681d7ca8d0789199af135f22c26a5409" target="_top" xlink:title="Fweelin::getCFG">
<polygon fill="#ffffff" stroke="#000000" points="198.5,-361.5 198.5,-380.5 293.5,-380.5 293.5,-361.5 198.5,-361.5"/>
<text text-anchor="middle" x="246" y="-368.5" font-family="Helvetica,sans-Serif" font-size="10.00" fill="#000000">Fweelin::getCFG</text>
</a>
</g>
</g>
<!-- Node644&#45;&gt;Node645 -->
<g id="edge1" class="edge">
<title>Node644&#45;&gt;Node645</title>
<path fill="none" stroke="#191970" d="M77.9756,-266.6912C94.3204,-285.9123 133.6619,-328.9868 176,-352 180.2042,-354.2852 184.7026,-356.3107 189.3153,-358.1031"/>
<polygon fill="#191970" stroke="#191970" points="188.2915,-361.453 198.8863,-361.4636 190.6105,-354.8483 188.2915,-361.453"/>
</g>
<!-- Node646 -->
<g id="node3" class="node">
<title>Node646</title>
<g id="a_node3"><a xlink:href="classFloConfig.html#a9acc5e0790ab29fe30856d58c5ffa0e8" target="_top" xlink:title="FloConfig::GetLibraryPath">
<polygon fill="#ffffff" stroke="#000000" points="176,-323.5 176,-342.5 316,-342.5 316,-323.5 176,-323.5"/>
<text text-anchor="middle" x="246" y="-330.5" font-family="Helvetica,sans-Serif" font-size="10.00" fill="#000000">FloConfig::GetLibraryPath</text>
</a>
</g>
</g>
<!-- Node644&#45;&gt;Node646 -->
<g id="edge2" class="edge">
<title>Node644&#45;&gt;Node646</title>
<path fill="none" stroke="#191970" d="M85.264,-266.6555C105.3942,-279.0453 142.2261,-300.5412 176,-314 181.9879,-316.3861 188.3798,-318.5777 194.7748,-320.5571"/>
<polygon fill="#191970" stroke="#191970" points="194.1881,-324.0324 204.769,-323.4903 196.1594,-317.3158 194.1881,-324.0324"/>
</g>
<!-- Node647 -->
<g id="node4" class="node">
<title>Node647</title>
<g id="a_node4"><a xlink:href="classLoopManager.html#a87e2d8190169a6cdc93207c661b5e47d" target="_top" xlink:title="LoopManager::LoadLoop">
<polygon fill="#ffffff" stroke="#000000" points="179,-285.5 179,-304.5 313,-304.5 313,-285.5 179,-285.5"/>
<text text-anchor="middle" x="246" y="-292.5" font-family="Helvetica,sans-Serif" font-size="10.00" fill="#000000">LoopManager::LoadLoop</text>
</a>
</g>
</g>
<!-- Node644&#45;&gt;Node647 -->
<g id="edge3" class="edge">
<title>Node644&#45;&gt;Node647</title>
<path fill="none" stroke="#191970" d="M114.4122,-266.589C137.9512,-271.6713 167.0567,-277.9554 191.9048,-283.3203"/>
<polygon fill="#191970" stroke="#191970" points="191.3937,-286.7906 201.9071,-285.4799 192.8711,-279.9482 191.3937,-286.7906"/>
</g>
<!-- Node651 -->
<g id="node8" class="node">
<title>Node651</title>
<g id="a_node8"><a xlink:href="classFweelin.html#ab8bb05f929945b7e66914fb9150b4e58" target="_top" xlink:title="Fweelin::getSNAP">
<polygon fill="#ffffff" stroke="#000000" points="195,-247.5 195,-266.5 297,-266.5 297,-247.5 195,-247.5"/>
<text text-anchor="middle" x="246" y="-254.5" font-family="Helvetica,sans-Serif" font-size="10.00" fill="#000000">Fweelin::getSNAP</text>
</a>
</g>
</g>
<!-- Node644&#45;&gt;Node651 -->
<g id="edge7" class="edge">
<title>Node644&#45;&gt;Node651</title>
<path fill="none" stroke="#191970" d="M140.0656,-257C154.7989,-257 170.2327,-257 184.6188,-257"/>
<polygon fill="#191970" stroke="#191970" points="184.8839,-260.5001 194.8839,-257 184.8839,-253.5001 184.8839,-260.5001"/>
</g>
<!-- Node652 -->
<g id="node9" class="node">
<title>Node652</title>
<g id="a_node9"><a xlink:href="classFweelin.html#a91b18ce962a309b483f19e75c5f5a040" target="_top" xlink:title="Fweelin::getSNAPS">
<polygon fill="#ffffff" stroke="#000000" points="192,-209.5 192,-228.5 300,-228.5 300,-209.5 192,-209.5"/>
<text text-anchor="middle" x="246" y="-216.5" font-family="Helvetica,sans-Serif" font-size="10.00" fill="#000000">Fweelin::getSNAPS</text>
</a>
</g>
</g>
<!-- Node644&#45;&gt;Node652 -->
<g id="edge8" class="edge">
<title>Node644&#45;&gt;Node652</title>
<path fill="none" stroke="#191970" d="M114.4122,-247.411C137.9512,-242.3287 167.0567,-236.0446 191.9048,-230.6797"/>
<polygon fill="#191970" stroke="#191970" points="192.8711,-234.0518 201.9071,-228.5201 191.3937,-227.2094 192.8711,-234.0518"/>
</g>
<!-- Node653 -->
<g id="node10" class="node">
<title>Node653</title>
<g id="a_node10"><a xlink:href="classFweelin.html#a057cfd43583e073f0216dd275e4b26a7" target="_top" xlink:title="Fweelin::LoadSnapshot">
<polygon fill="#ffffff" stroke="#000000" points="182,-171.5 182,-190.5 310,-190.5 310,-171.5 182,-171.5"/>
<text text-anchor="middle" x="246" y="-178.5" font-family="Helvetica,sans-Serif" font-size="10.00" fill="#000000">Fweelin::LoadSnapshot</text>
</a>
</g>
</g>
<!-- Node644&#45;&gt;Node653 -->
<g id="edge9" class="edge">
<title>Node644&#45;&gt;Node653</title>
<path fill="none" stroke="#191970" d="M85.264,-247.3445C105.3942,-234.9547 142.2261,-213.4588 176,-200 181.9879,-197.6139 188.3798,-195.4223 194.7748,-193.4429"/>
<polygon fill="#191970" stroke="#191970" points="196.1594,-196.6842 204.769,-190.5097 194.1881,-189.9676 196.1594,-196.6842"/>
</g>
<!-- Node663 -->
<g id="node20" class="node">
<title>Node663</title>
<g id="a_node20"><a xlink:href="classFweelin.html#a5f9e0154dbb2ea46fb51beb0042cbcb6" target="_top" xlink:title="Fweelin::setCURSCENE">
<polygon fill="#ffffff" stroke="#000000" points="182,-133.5 182,-152.5 310,-152.5 310,-133.5 182,-133.5"/>
<text text-anchor="middle" x="246" y="-140.5" font-family="Helvetica,sans-Serif" font-size="10.00" fill="#000000">Fweelin::setCURSCENE</text>
</a>
</g>
</g>
<!-- Node644&#45;&gt;Node663 -->
<g id="edge19" class="edge">
<title>Node644&#45;&gt;Node663</title>
<path fill="none" stroke="#191970" d="M77.9756,-247.3088C94.3204,-228.0877 133.6619,-185.0132 176,-162 180.2042,-159.7148 184.7026,-157.6893 189.3153,-155.8969"/>
<polygon fill="#191970" stroke="#191970" points="190.6105,-159.1517 198.8863,-152.5364 188.2915,-152.547 190.6105,-159.1517"/>
</g>
<!-- Node648 -->
<g id="node5" class="node">
<title>Node648</title>
<g id="a_node5"><a xlink:href="classLoopManager.html#a5db9d5ddb2f42a75645a2541c7b3cc79" target="_top" xlink:title="LoopManager::AddLoopToLoad\lQueue">
<polygon fill="#ffffff" stroke="#000000" points="352,-280 352,-310 516,-310 516,-280 352,-280"/>
<text text-anchor="start" x="360" y="-298" font-family="Helvetica,sans-Serif" font-size="10.00" fill="#000000">LoopManager::AddLoopToLoad</text>
<text text-anchor="middle" x="434" y="-287" font-family="Helvetica,sans-Serif" font-size="10.00" fill="#000000">Queue</text>
</a>
</g>
</g>
<!-- Node647&#45;&gt;Node648 -->
<g id="edge4" class="edge">
<title>Node647&#45;&gt;Node648</title>
<path fill="none" stroke="#191970" d="M313.0761,-295C322.3896,-295 332.0881,-295 341.7618,-295"/>
<polygon fill="#191970" stroke="#191970" points="341.8167,-298.5001 351.8166,-295 341.8166,-291.5001 341.8167,-298.5001"/>
</g>
<!-- Node649 -->
<g id="node6" class="node">
<title>Node649</title>
<g id="a_node6"><a xlink:href="classEvent.html#aa67af0ae99b897e4f0ce42068c4e4c00" target="_top" xlink:title="Event::GetEventByType">
<polygon fill="#ffffff" stroke="#000000" points="563,-314.5 563,-333.5 694,-333.5 694,-314.5 563,-314.5"/>
<text text-anchor="middle" x="628.5" y="-321.5" font-family="Helvetica,sans-Serif" font-size="10.00" fill="#000000">Event::GetEventByType</text>
</a>
</g>
</g>
<!-- Node648&#45;&gt;Node649 -->
<g id="edge5" class="edge">
<title>Node648&#45;&gt;Node649</title>
<path fill="none" stroke="#191970" d="M516.2036,-307.2566C528.9658,-309.1594 542.0823,-311.1151 554.645,-312.9882"/>
<polygon fill="#191970" stroke="#191970" points="554.1772,-316.4571 564.584,-314.4701 555.2095,-309.5336 554.1772,-316.4571"/>
</g>
<!-- Node650 -->
<g id="node7" class="node">
<title>Node650</title>
<g id="a_node7"><a xlink:href="classEventManager.html#a215075d1cc20ee7e2d55e9bb54ca516f" target="_top" xlink:title="EventManager::QueueEvent">
<polygon fill="#ffffff" stroke="#000000" points="552.5,-276.5 552.5,-295.5 704.5,-295.5 704.5,-276.5 552.5,-276.5"/>
<text text-anchor="middle" x="628.5" y="-283.5" font-family="Helvetica,sans-Serif" font-size="10.00" fill="#000000">EventManager::QueueEvent</text>
</a>
</g>
</g>
<!-- Node648&#45;&gt;Node650 -->
<g id="edge6" class="edge">
<title>Node648&#45;&gt;Node650</title>
<path fill="none" stroke="#191970" d="M516.2036,-291.1962C524.8478,-290.7962 533.6545,-290.3887 542.3417,-289.9868"/>
<polygon fill="#191970" stroke="#191970" points="542.6402,-293.4768 552.4677,-289.5182 542.3166,-286.4843 542.6402,-293.4768"/>
</g>
<!-- Node654 -->
<g id="node11" class="node">
<title>Node654</title>
<g id="a_node11"><a xlink:href="classTriggerMap.html#ac8dd153318fc2546c999bd5184c827cf" target="_top" xlink:title="TriggerMap::TouchMap">
<polygon fill="#ffffff" stroke="#000000" points="372,-190.5 372,-209.5 496,-209.5 496,-190.5 372,-190.5"/>
<text text-anchor="middle" x="434" y="-197.5" font-family="Helvetica,sans-Serif" font-size="10.00" fill="#000000">TriggerMap::TouchMap</text>
</a>
</g>
</g>
<!-- Node653&#45;&gt;Node654 -->
<g id="edge10" class="edge">
<title>Node653&#45;&gt;Node654</title>
<path fill="none" stroke="#191970" d="M310.1731,-187.4856C326.6457,-189.1504 344.4816,-190.9529 361.3492,-192.6576"/>
<polygon fill="#191970" stroke="#191970" points="361.4045,-196.181 371.7057,-193.7043 362.1084,-189.2164 361.4045,-196.181"/>
</g>
<!-- Node657 -->
<g id="node14" class="node">
<title>Node657</title>
<g id="a_node14"><a xlink:href="classSnapshot.html#a1616e84bbc439dfb50eb827a27e4f6fd" target="_top" xlink:title="Snapshot::CreateSnapshot">
<polygon fill="#ffffff" stroke="#000000" points="361.5,-95.5 361.5,-114.5 506.5,-114.5 506.5,-95.5 361.5,-95.5"/>
<text text-anchor="middle" x="434" y="-102.5" font-family="Helvetica,sans-Serif" font-size="10.00" fill="#000000">Snapshot::CreateSnapshot</text>
</a>
</g>
</g>
<!-- Node653&#45;&gt;Node657 -->
<g id="edge13" class="edge">
<title>Node653&#45;&gt;Node657</title>
<path fill="none" stroke="#191970" d="M286.3833,-171.4057C296.1882,-168.7029 306.563,-165.5254 316,-162 348.593,-149.8241 384.3551,-131.8542 407.8687,-119.358"/>
<polygon fill="#191970" stroke="#191970" points="409.6964,-122.3493 416.8498,-114.534 406.384,-116.1825 409.6964,-122.3493"/>
</g>
<!-- Node655 -->
<g id="node12" class="node">
<title>Node655</title>
<g id="a_node12"><a xlink:href="fweelin__event_8h.html#a0bb68d7f77df8d1848af0e9fc6716197" target="_top" xlink:title="mygettime">
<polygon fill="#ffffff" stroke="#000000" points="593,-228.5 593,-247.5 664,-247.5 664,-228.5 593,-228.5"/>
<text text-anchor="middle" x="628.5" y="-235.5" font-family="Helvetica,sans-Serif" font-size="10.00" fill="#000000">mygettime</text>
</a>
</g>
</g>
<!-- Node654&#45;&gt;Node655 -->
<g id="edge11" class="edge">
<title>Node654&#45;&gt;Node655</title>
<path fill="none" stroke="#191970" d="M482.8295,-209.54C513.5639,-215.5446 552.9608,-223.2417 583.0323,-229.1168"/>
<polygon fill="#191970" stroke="#191970" points="582.3613,-232.5519 592.8469,-231.0344 583.7036,-225.6817 582.3613,-232.5519"/>
</g>
<!-- Node656 -->
<g id="node13" class="node">
<title>Node656</title>
<g id="a_node13"><a xlink:href="classSaveable.html#a60561f2bd64b6e0044bae84729d3a01a" target="_top" xlink:title="Saveable::SetSaveStatus">
<polygon fill="#ffffff" stroke="#000000" points="559.5,-190.5 559.5,-209.5 697.5,-209.5 697.5,-190.5 559.5,-190.5"/>
<text text-anchor="middle" x="628.5" y="-197.5" font-family="Helvetica,sans-Serif" font-size="10.00" fill="#000000">Saveable::SetSaveStatus</text>
</a>
</g>
</g>
<!-- Node654&#45;&gt;Node656 -->
<g id="edge12" class="edge">
<title>Node654&#45;&gt;Node656</title>
<path fill="none" stroke="#191970" d="M496.0758,-200C512.8971,-200 531.3411,-200 548.9797,-200"/>
<polygon fill="#191970" stroke="#191970" points="549.2537,-203.5001 559.2537,-200 549.2536,-196.5001 549.2537,-203.5001"/>
</g>
<!-- Node658 -->
<g id="node15" class="node">
<title>Node658</title>
<g id="a_node15"><a xlink:href="classTriggerMap.html#a17fce9bb5d04e10463484c2bd6dff6f4" target="_top" xlink:title="TriggerMap::CountLoops">
<polygon fill="#ffffff" stroke="#000000" points="562,-152.5 562,-171.5 695,-171.5 695,-152.5 562,-152.5"/>
<text text-anchor="middle" x="628.5" y="-159.5" font-family="Helvetica,sans-Serif" font-size="10.00" fill="#000000">TriggerMap::CountLoops</text>
</a>
</g>
</g>
<!-- Node657&#45;&gt;Node658 -->
<g id="edge14" class="edge">
<title>Node657&#45;&gt;Node658</title>
<path fill="none" stroke="#191970" d="M461.9694,-114.601C485.7761,-122.6299 520.9517,-134.1561 552,-143 560.415,-145.3969 569.3985,-147.7818 578.1416,-150.011"/>
<polygon fill="#191970" stroke="#191970" points="577.3163,-153.4123 587.8677,-152.4541 579.0217,-146.6233 577.3163,-153.4123"/>
</g>
<!-- Node659 -->
<g id="node16" class="node">
<title>Node659</title>
<g id="a_node16"><a xlink:href="classTriggerMap.html#aa7d410849b2b17c3623c6d105241418e" target="_top" xlink:title="TriggerMap::GetMapSize">
<polygon fill="#ffffff" stroke="#000000" points="561.5,-114.5 561.5,-133.5 695.5,-133.5 695.5,-114.5 561.5,-114.5"/>
<text text-anchor="middle" x="628.5" y="-121.5" font-family="Helvetica,sans-Serif" font-size="10.00" fill="#000000">TriggerMap::GetMapSize</text>
</a>
</g>
</g>
<!-- Node657&#45;&gt;Node659 -->
<g id="edge15" class="edge">
<title>Node657&#45;&gt;Node659</title>
<path fill="none" stroke="#191970" d="M506.7012,-112.1019C521.2543,-113.5236 536.5921,-115.0218 551.2913,-116.4578"/>
<polygon fill="#191970" stroke="#191970" points="551.0552,-119.9513 561.3482,-117.4402 551.7359,-112.9844 551.0552,-119.9513"/>
</g>
<!-- Node660 -->
<g id="node17" class="node">
<title>Node660</title>
<g id="a_node17"><a xlink:href="classTriggerMap.html#aca3f85b40f3aa29a280c2d7511b84217" target="_top" xlink:title="TriggerMap::GetMap">
<polygon fill="#ffffff" stroke="#000000" points="572,-76.5 572,-95.5 685,-95.5 685,-76.5 572,-76.5"/>
<text text-anchor="middle" x="628.5" y="-83.5" font-family="Helvetica,sans-Serif" font-size="10.00" fill="#000000">TriggerMap::GetMap</text>
</a>
</g>
</g>
<!-- Node657&#45;&gt;Node660 -->
<g id="edge16" class="edge">
<title>Node657&#45;&gt;Node660</title>
<path fill="none" stroke="#191970" d="M506.7012,-97.8981C524.7408,-96.1359 543.9862,-94.2558 561.7264,-92.5229"/>
<polygon fill="#191970" stroke="#191970" points="562.3649,-95.9773 571.9772,-91.5215 561.6843,-89.0104 562.3649,-95.9773"/>
</g>
<!-- Node661 -->
<g id="node18" class="node">
<title>Node661</title>
<g id="a_node18"><a xlink:href="classLoopManager.html#a66574bbc447d4f891ef382469c521b05" target="_top" xlink:title="LoopManager::GetStatus">
<polygon fill="#ffffff" stroke="#000000" points="560.5,-38.5 560.5,-57.5 696.5,-57.5 696.5,-38.5 560.5,-38.5"/>
<text text-anchor="middle" x="628.5" y="-45.5" font-family="Helvetica,sans-Serif" font-size="10.00" fill="#000000">LoopManager::GetStatus</text>
</a>
</g>
</g>
<!-- Node657&#45;&gt;Node661 -->
<g id="edge17" class="edge">
<title>Node657&#45;&gt;Node661</title>
<path fill="none" stroke="#191970" d="M461.9694,-95.399C485.7761,-87.3701 520.9517,-75.8439 552,-67 560.415,-64.6031 569.3985,-62.2182 578.1416,-59.989"/>
<polygon fill="#191970" stroke="#191970" points="579.0217,-63.3767 587.8677,-57.5459 577.3163,-56.5877 579.0217,-63.3767"/>
</g>
<!-- Node662 -->
<g id="node19" class="node">
<title>Node662</title>
<g id="a_node19"><a xlink:href="classLoopManager.html#ab9c9e72e1a23b34c15a87dc13fb02672" target="_top" xlink:title="LoopManager::GetTriggerVol">
<polygon fill="#ffffff" stroke="#000000" points="552,-.5 552,-19.5 705,-19.5 705,-.5 552,-.5"/>
<text text-anchor="middle" x="628.5" y="-7.5" font-family="Helvetica,sans-Serif" font-size="10.00" fill="#000000">LoopManager::GetTriggerVol</text>
</a>
</g>
</g>
<!-- Node657&#45;&gt;Node662 -->
<g id="edge18" class="edge">
<title>Node657&#45;&gt;Node662</title>
<path fill="none" stroke="#191970" d="M445.9795,-95.3514C466.4879,-79.2945 510.1698,-47.0722 552,-29 557.6884,-26.5424 563.7579,-24.3597 569.8958,-22.4316"/>
<polygon fill="#191970" stroke="#191970" points="570.9361,-25.7741 579.5521,-19.6084 568.9718,-19.0553 570.9361,-25.7741"/>
</g>
</g>
</svg>
