<?xml version="1.0" encoding="UTF-8" standalone="no"?>
<!DOCTYPE svg PUBLIC "-//W3C//DTD SVG 1.1//EN"
 "http://www.w3.org/Graphics/SVG/1.1/DTD/svg11.dtd">
<!-- Generated by graphviz version 2.40.1 (20161225.0304)
 -->
<!-- Title: LoopBrowserItem Pages: 1 -->
<svg width="311pt" height="364pt"
 viewBox="0.00 0.00 311.03 364.00" xmlns="http://www.w3.org/2000/svg" xmlns:xlink="http://www.w3.org/1999/xlink">
<g id="graph0" class="graph" transform="scale(1 1) rotate(0) translate(4 360)">
<title>LoopBrowserItem</title>
<polygon fill="#ffffff" stroke="transparent" points="-4,4 -4,-360 307.0277,-360 307.0277,4 -4,4"/>
<!-- Node2 -->
<g id="node1" class="node">
<title>Node2</title>
<polygon fill="#bfbfbf" stroke="#000000" points="67.5277,-.5 67.5277,-90.5 196.5277,-90.5 196.5277,-.5 67.5277,-.5"/>
<text text-anchor="middle" x="132.0277" y="-78.5" font-family="Helvetica,sans-Serif" font-size="10.00" fill="#000000">LoopBrowserItem</text>
<polyline fill="none" stroke="#000000" points="67.5277,-71.5 196.5277,-71.5 "/>
<text text-anchor="middle" x="132.0277" y="-59.5" font-family="Helvetica,sans-Serif" font-size="10.00" fill="#000000"> </text>
<polyline fill="none" stroke="#000000" points="67.5277,-52.5 196.5277,-52.5 "/>
<text text-anchor="start" x="75.5277" y="-40.5" font-family="Helvetica,sans-Serif" font-size="10.00" fill="#000000">+ LoopBrowserItem()</text>
<text text-anchor="start" x="75.5277" y="-29.5" font-family="Helvetica,sans-Serif" font-size="10.00" fill="#000000">+ ~LoopBrowserItem()</text>
<text text-anchor="start" x="75.5277" y="-18.5" font-family="Helvetica,sans-Serif" font-size="10.00" fill="#000000">+ Compare()</text>
<text text-anchor="start" x="75.5277" y="-7.5" font-family="Helvetica,sans-Serif" font-size="10.00" fill="#000000">+ GetType()</text>
</g>
<!-- Node3 -->
<g id="node2" class="node">
<title>Node3</title>
<g id="a_node2"><a xlink:href="classBrowserItem.html" target="_top" xlink:title="{BrowserItem\n||+ BrowserItem()\l+ ~BrowserItem()\l+ GetType()\l+ Compare()\l+ MatchItem()\l}">
<polygon fill="#ffffff" stroke="#000000" points="79.0277,-138.5 79.0277,-239.5 185.0277,-239.5 185.0277,-138.5 79.0277,-138.5"/>
<text text-anchor="middle" x="132.0277" y="-227.5" font-family="Helvetica,sans-Serif" font-size="10.00" fill="#000000">BrowserItem</text>
<polyline fill="none" stroke="#000000" points="79.0277,-220.5 185.0277,-220.5 "/>
<text text-anchor="middle" x="132.0277" y="-208.5" font-family="Helvetica,sans-Serif" font-size="10.00" fill="#000000"> </text>
<polyline fill="none" stroke="#000000" points="79.0277,-201.5 185.0277,-201.5 "/>
<text text-anchor="start" x="87.0277" y="-189.5" font-family="Helvetica,sans-Serif" font-size="10.00" fill="#000000">+ BrowserItem()</text>
<text text-anchor="start" x="87.0277" y="-178.5" font-family="Helvetica,sans-Serif" font-size="10.00" fill="#000000">+ ~BrowserItem()</text>
<text text-anchor="start" x="87.0277" y="-167.5" font-family="Helvetica,sans-Serif" font-size="10.00" fill="#000000">+ GetType()</text>
<text text-anchor="start" x="87.0277" y="-156.5" font-family="Helvetica,sans-Serif" font-size="10.00" fill="#000000">+ Compare()</text>
<text text-anchor="start" x="87.0277" y="-145.5" font-family="Helvetica,sans-Serif" font-size="10.00" fill="#000000">+ MatchItem()</text>
</a>
</g>
</g>
<!-- Node3&#45;&gt;Node2 -->
<g id="edge1" class="edge">
<title>Node3&#45;&gt;Node2</title>
<path fill="none" stroke="#191970" d="M132.0277,-128.0667C132.0277,-115.5908 132.0277,-102.6683 132.0277,-90.855"/>
<polygon fill="none" stroke="#191970" points="128.5278,-128.4072 132.0277,-138.4073 135.5278,-128.4073 128.5278,-128.4072"/>
</g>
<!-- Node3&#45;&gt;Node3 -->
<g id="edge3" class="edge">
<title>Node3&#45;&gt;Node3</title>
<path fill="none" stroke="#404040" d="M185.2849,-202.2576C195.66,-200.718 203.0277,-196.2988 203.0277,-189 203.0277,-184.8944 200.6965,-181.6999 196.8102,-179.4166"/>
<polygon fill="none" stroke="#404040" points="196.718,-179.3873 189.7864,-181.3758 185.2849,-175.7424 192.2164,-173.7538 196.718,-179.3873"/>
<text text-anchor="middle" x="220.0277" y="-192" font-family="Helvetica,sans-Serif" font-size="10.00" fill="#000000"> +prev</text>
<text text-anchor="middle" x="220.0277" y="-181" font-family="Helvetica,sans-Serif" font-size="10.00" fill="#000000">+next</text>
</g>
<!-- Node4 -->
<g id="node3" class="node">
<title>Node4</title>
<polygon fill="#ffffff" stroke="#bfbfbf" points="3.0277,-298.5 3.0277,-355.5 41.0277,-355.5 41.0277,-298.5 3.0277,-298.5"/>
<text text-anchor="middle" x="22.0277" y="-343.5" font-family="Helvetica,sans-Serif" font-size="10.00" fill="#000000">char</text>
<polyline fill="none" stroke="#bfbfbf" points="3.0277,-336.5 41.0277,-336.5 "/>
<text text-anchor="middle" x="22.0277" y="-324.5" font-family="Helvetica,sans-Serif" font-size="10.00" fill="#000000"> </text>
<polyline fill="none" stroke="#bfbfbf" points="3.0277,-317.5 41.0277,-317.5 "/>
<text text-anchor="middle" x="22.0277" y="-305.5" font-family="Helvetica,sans-Serif" font-size="10.00" fill="#000000"> </text>
</g>
<!-- Node4&#45;&gt;Node2 -->
<g id="edge5" class="edge">
<title>Node4&#45;&gt;Node2</title>
<path fill="none" stroke="#404040" d="M13.0261,-298.4029C2.5965,-259.8406 -10.156,-190.0136 15.0277,-138 24.5962,-118.2374 40.6629,-101.4181 57.873,-87.7605"/>
<polygon fill="none" stroke="#404040" points="57.9308,-87.717 60.3186,-80.9127 67.5178,-80.4997 65.1301,-87.304 57.9308,-87.717"/>
<text text-anchor="middle" x="42.5277" y="-186.5" font-family="Helvetica,sans-Serif" font-size="10.00" fill="#000000"> +filename</text>
</g>
<!-- Node4&#45;&gt;Node3 -->
<g id="edge2" class="edge">
<title>Node4&#45;&gt;Node3</title>
<path fill="none" stroke="#404040" d="M41.1882,-302.9622C53.0889,-288.0324 68.9546,-268.1281 84.094,-249.135"/>
<polygon fill="none" stroke="#404040" points="84.2029,-248.9984 84.8148,-241.8133 91.6826,-239.6147 91.0706,-246.7998 84.2029,-248.9984"/>
<text text-anchor="middle" x="115.0277" y="-272" font-family="Helvetica,sans-Serif" font-size="10.00" fill="#000000"> +name</text>
<text text-anchor="middle" x="115.0277" y="-261" font-family="Helvetica,sans-Serif" font-size="10.00" fill="#000000">+default_name</text>
</g>
<!-- Node5 -->
<g id="node4" class="node">
<title>Node5</title>
<polygon fill="#ffffff" stroke="#bfbfbf" points="255.0277,-160.5 255.0277,-217.5 303.0277,-217.5 303.0277,-160.5 255.0277,-160.5"/>
<text text-anchor="middle" x="279.0277" y="-205.5" font-family="Helvetica,sans-Serif" font-size="10.00" fill="#000000">time_t</text>
<polyline fill="none" stroke="#bfbfbf" points="255.0277,-198.5 303.0277,-198.5 "/>
<text text-anchor="middle" x="279.0277" y="-186.5" font-family="Helvetica,sans-Serif" font-size="10.00" fill="#000000"> </text>
<polyline fill="none" stroke="#bfbfbf" points="255.0277,-179.5 303.0277,-179.5 "/>
<text text-anchor="middle" x="279.0277" y="-167.5" font-family="Helvetica,sans-Serif" font-size="10.00" fill="#000000"> </text>
</g>
<!-- Node5&#45;&gt;Node2 -->
<g id="edge4" class="edge">
<title>Node5&#45;&gt;Node2</title>
<path fill="none" stroke="#404040" d="M262.7149,-160.3269C257.8002,-152.7178 252.0876,-144.748 246.0277,-138 233.5949,-124.1554 218.9817,-110.6842 204.4428,-98.4995"/>
<polygon fill="none" stroke="#404040" points="204.1994,-98.2998 197.0237,-97.5856 194.9231,-90.6872 202.0988,-91.4014 204.1994,-98.2998"/>
<text text-anchor="middle" x="243.0277" y="-112" font-family="Helvetica,sans-Serif" font-size="10.00" fill="#000000"> +time</text>
</g>
</g>
</svg>
