<?xml version="1.0" encoding="UTF-8" standalone="no"?>
<!DOCTYPE svg PUBLIC "-//W3C//DTD SVG 1.1//EN"
 "http://www.w3.org/Graphics/SVG/1.1/DTD/svg11.dtd">
<!-- Generated by graphviz version 2.40.1 (20161225.0304)
 -->
<!-- Title: LoopManager::StripePulseOff Pages: 1 -->
<svg width="713pt" height="142pt"
 viewBox="0.00 0.00 713.00 142.00" xmlns="http://www.w3.org/2000/svg" xmlns:xlink="http://www.w3.org/1999/xlink">
<g id="graph0" class="graph" transform="scale(1 1) rotate(0) translate(4 138)">
<title>LoopManager::StripePulseOff</title>
<polygon fill="#ffffff" stroke="transparent" points="-4,4 -4,-138 709,-138 709,4 -4,4"/>
<!-- Node1149 -->
<g id="node1" class="node">
<title>Node1149</title>
<polygon fill="#bfbfbf" stroke="#000000" points="0,-57.5 0,-76.5 157,-76.5 157,-57.5 0,-57.5"/>
<text text-anchor="middle" x="78.5" y="-64.5" font-family="Helvetica,sans-Serif" font-size="10.00" fill="#000000">LoopManager::StripePulseOff</text>
</g>
<!-- Node1150 -->
<g id="node2" class="node">
<title>Node1150</title>
<g id="a_node2"><a xlink:href="classFweelin.html#a600688955c7470a1b7a2fa95ddcc4118" target="_top" xlink:title="Fweelin::getBMG">
<polygon fill="#ffffff" stroke="#000000" points="224.5,-114.5 224.5,-133.5 322.5,-133.5 322.5,-114.5 224.5,-114.5"/>
<text text-anchor="middle" x="273.5" y="-121.5" font-family="Helvetica,sans-Serif" font-size="10.00" fill="#000000">Fweelin::getBMG</text>
</a>
</g>
</g>
<!-- Node1149&#45;&gt;Node1150 -->
<g id="edge1" class="edge">
<title>Node1149&#45;&gt;Node1150</title>
<path fill="none" stroke="#191970" d="M105.1286,-76.5827C128.2028,-84.7066 162.5715,-96.3781 193,-105 201.7255,-107.4724 211.0453,-109.8812 220.135,-112.1075"/>
<polygon fill="#191970" stroke="#191970" points="219.3281,-115.5131 229.869,-114.4459 220.9632,-108.7068 219.3281,-115.5131"/>
</g>
<!-- Node1151 -->
<g id="node3" class="node">
<title>Node1151</title>
<g id="a_node3"><a xlink:href="classBlockManager.html#a290ea3b68216dc3fbd0f5dadab956290" target="_top" xlink:title="BlockManager::StripeBlockOff">
<polygon fill="#ffffff" stroke="#000000" points="193,-76.5 193,-95.5 354,-95.5 354,-76.5 193,-76.5"/>
<text text-anchor="middle" x="273.5" y="-83.5" font-family="Helvetica,sans-Serif" font-size="10.00" fill="#000000">BlockManager::StripeBlockOff</text>
</a>
</g>
</g>
<!-- Node1149&#45;&gt;Node1151 -->
<g id="edge2" class="edge">
<title>Node1149&#45;&gt;Node1151</title>
<path fill="none" stroke="#191970" d="M157.2519,-74.6733C165.685,-75.4949 174.3125,-76.3356 182.8691,-77.1693"/>
<polygon fill="#191970" stroke="#191970" points="182.5731,-80.6569 192.8654,-78.1433 183.252,-73.6899 182.5731,-80.6569"/>
</g>
<!-- Node1154 -->
<g id="node6" class="node">
<title>Node1154</title>
<g id="a_node6"><a xlink:href="classFweelin.html#a079cfb110e3dd58369b57009b4e74342" target="_top" xlink:title="Fweelin::getAMPEAKS">
<polygon fill="#ffffff" stroke="#000000" points="212.5,-38.5 212.5,-57.5 334.5,-57.5 334.5,-38.5 212.5,-38.5"/>
<text text-anchor="middle" x="273.5" y="-45.5" font-family="Helvetica,sans-Serif" font-size="10.00" fill="#000000">Fweelin::getAMPEAKS</text>
</a>
</g>
</g>
<!-- Node1149&#45;&gt;Node1154 -->
<g id="edge5" class="edge">
<title>Node1149&#45;&gt;Node1154</title>
<path fill="none" stroke="#191970" d="M157.2519,-59.3267C172.1956,-57.8707 187.7499,-56.3551 202.4382,-54.924"/>
<polygon fill="#191970" stroke="#191970" points="202.8372,-58.4018 212.4506,-53.9484 202.1583,-51.4348 202.8372,-58.4018"/>
</g>
<!-- Node1155 -->
<g id="node7" class="node">
<title>Node1155</title>
<g id="a_node7"><a xlink:href="classFweelin.html#a6532e9aca57e2ec68ee5336113152bd5" target="_top" xlink:title="Fweelin::getAUDIOMEM">
<polygon fill="#ffffff" stroke="#000000" points="208,-.5 208,-19.5 339,-19.5 339,-.5 208,-.5"/>
<text text-anchor="middle" x="273.5" y="-7.5" font-family="Helvetica,sans-Serif" font-size="10.00" fill="#000000">Fweelin::getAUDIOMEM</text>
</a>
</g>
</g>
<!-- Node1149&#45;&gt;Node1155 -->
<g id="edge6" class="edge">
<title>Node1149&#45;&gt;Node1155</title>
<path fill="none" stroke="#191970" d="M105.1286,-57.4173C128.2028,-49.2934 162.5715,-37.6219 193,-29 201.7255,-26.5276 211.0453,-24.1188 220.135,-21.8925"/>
<polygon fill="#191970" stroke="#191970" points="220.9632,-25.2932 229.869,-19.5541 219.3281,-18.4869 220.9632,-25.2932"/>
</g>
<!-- Node1152 -->
<g id="node4" class="node">
<title>Node1152</title>
<g id="a_node4"><a xlink:href="classBlockManager.html#a5566277a4ec6c8a5347470433843b998" target="_top" xlink:title="BlockManager::DelHiManager">
<polygon fill="#ffffff" stroke="#000000" points="390,-76.5 390,-95.5 551,-95.5 551,-76.5 390,-76.5"/>
<text text-anchor="middle" x="470.5" y="-83.5" font-family="Helvetica,sans-Serif" font-size="10.00" fill="#000000">BlockManager::DelHiManager</text>
</a>
</g>
</g>
<!-- Node1151&#45;&gt;Node1152 -->
<g id="edge3" class="edge">
<title>Node1151&#45;&gt;Node1152</title>
<path fill="none" stroke="#191970" d="M354.1959,-86C362.6733,-86 371.3327,-86 379.9115,-86"/>
<polygon fill="#191970" stroke="#191970" points="379.9297,-89.5001 389.9296,-86 379.9296,-82.5001 379.9297,-89.5001"/>
</g>
<!-- Node1153 -->
<g id="node5" class="node">
<title>Node1153</title>
<g id="a_node5"><a xlink:href="classHiPriManagedChain.html#a65066950fc82d852fd81af83cf558b4f" target="_top" xlink:title="HiPriManagedChain::\lGetType">
<polygon fill="#ffffff" stroke="#000000" points="587,-71 587,-101 705,-101 705,-71 587,-71"/>
<text text-anchor="start" x="595" y="-89" font-family="Helvetica,sans-Serif" font-size="10.00" fill="#000000">HiPriManagedChain::</text>
<text text-anchor="middle" x="646" y="-78" font-family="Helvetica,sans-Serif" font-size="10.00" fill="#000000">GetType</text>
</a>
</g>
</g>
<!-- Node1152&#45;&gt;Node1153 -->
<g id="edge4" class="edge">
<title>Node1152&#45;&gt;Node1153</title>
<path fill="none" stroke="#191970" d="M551.0589,-86C559.6433,-86 568.32,-86 576.7576,-86"/>
<polygon fill="#191970" stroke="#191970" points="576.9086,-89.5001 586.9086,-86 576.9086,-82.5001 576.9086,-89.5001"/>
</g>
</g>
</svg>
