<?xml version="1.0" encoding="UTF-8" standalone="no"?>
<!DOCTYPE svg PUBLIC "-//W3C//DTD SVG 1.1//EN"
 "http://www.w3.org/Graphics/SVG/1.1/DTD/svg11.dtd">
<!-- Generated by graphviz version 2.40.1 (20161225.0304)
 -->
<!-- Title: LoopList Pages: 1 -->
<svg width="142pt" height="226pt"
 viewBox="0.00 0.00 142.00 226.00" xmlns="http://www.w3.org/2000/svg" xmlns:xlink="http://www.w3.org/1999/xlink">
<g id="graph0" class="graph" transform="scale(1 1) rotate(0) translate(4 222)">
<title>LoopList</title>
<polygon fill="#ffffff" stroke="transparent" points="-4,4 -4,-222 138,-222 138,4 -4,4"/>
<!-- Node1 -->
<g id="node1" class="node">
<title>Node1</title>
<polygon fill="#bfbfbf" stroke="#000000" points="0,-.5 0,-112.5 82,-112.5 82,-.5 0,-.5"/>
<text text-anchor="middle" x="41" y="-100.5" font-family="Helvetica,sans-Serif" font-size="10.00" fill="#000000">LoopList</text>
<polyline fill="none" stroke="#000000" points="0,-93.5 82,-93.5 "/>
<text text-anchor="middle" x="41" y="-81.5" font-family="Helvetica,sans-Serif" font-size="10.00" fill="#000000"> </text>
<polyline fill="none" stroke="#000000" points="0,-74.5 82,-74.5 "/>
<text text-anchor="start" x="8" y="-62.5" font-family="Helvetica,sans-Serif" font-size="10.00" fill="#000000">+ LoopList()</text>
<text text-anchor="start" x="8" y="-51.5" font-family="Helvetica,sans-Serif" font-size="10.00" fill="#000000">+ Scan()</text>
<text text-anchor="start" x="8" y="-40.5" font-family="Helvetica,sans-Serif" font-size="10.00" fill="#000000">+ AddBegin()</text>
<text text-anchor="start" x="8" y="-29.5" font-family="Helvetica,sans-Serif" font-size="10.00" fill="#000000">+ Remove()</text>
<text text-anchor="start" x="8" y="-18.5" font-family="Helvetica,sans-Serif" font-size="10.00" fill="#000000">+ Remove()</text>
<text text-anchor="start" x="8" y="-7.5" font-family="Helvetica,sans-Serif" font-size="10.00" fill="#000000">+ Delete()</text>
</g>
<!-- Node1&#45;&gt;Node1 -->
<g id="edge1" class="edge">
<title>Node1&#45;&gt;Node1</title>
<path fill="none" stroke="#404040" d="M82.0831,-71.294C92.3363,-70.2595 100,-65.3281 100,-56.5 100,-51.5342 97.5752,-47.8013 93.6286,-45.3014"/>
<polygon fill="none" stroke="#404040" points="93.5404,-45.2741 86.6224,-47.3091 82.0831,-41.706 89.0011,-39.6709 93.5404,-45.2741"/>
<text text-anchor="middle" x="117" y="-54" font-family="Helvetica,sans-Serif" font-size="10.00" fill="#000000"> +next</text>
</g>
<!-- Node2 -->
<g id="node2" class="node">
<title>Node2</title>
<polygon fill="#ffffff" stroke="#bfbfbf" points="26.5,-160.5 26.5,-217.5 55.5,-217.5 55.5,-160.5 26.5,-160.5"/>
<text text-anchor="middle" x="41" y="-205.5" font-family="Helvetica,sans-Serif" font-size="10.00" fill="#000000">int</text>
<polyline fill="none" stroke="#bfbfbf" points="26.5,-198.5 55.5,-198.5 "/>
<text text-anchor="middle" x="41" y="-186.5" font-family="Helvetica,sans-Serif" font-size="10.00" fill="#000000"> </text>
<polyline fill="none" stroke="#bfbfbf" points="26.5,-179.5 55.5,-179.5 "/>
<text text-anchor="middle" x="41" y="-167.5" font-family="Helvetica,sans-Serif" font-size="10.00" fill="#000000"> </text>
</g>
<!-- Node2&#45;&gt;Node1 -->
<g id="edge2" class="edge">
<title>Node2&#45;&gt;Node1</title>
<path fill="none" stroke="#404040" d="M41,-160.2495C41,-149.8031 41,-137.502 41,-125.0912"/>
<polygon fill="none" stroke="#404040" points="41.0001,-124.7084 37,-118.7085 41,-112.7084 45,-118.7084 41.0001,-124.7084"/>
<text text-anchor="middle" x="58.5" y="-134" font-family="Helvetica,sans-Serif" font-size="10.00" fill="#000000"> +l_idx</text>
</g>
</g>
</svg>
