<?xml version="1.0" encoding="UTF-8" standalone="no"?>
<!DOCTYPE svg PUBLIC "-//W3C//DTD SVG 1.1//EN"
 "http://www.w3.org/Graphics/SVG/1.1/DTD/svg11.dtd">
<!-- Generated by graphviz version 2.40.1 (20161225.0304)
 -->
<!-- Title: LibraryHelper::GetNextAvailableStreamOutFilename Pages: 1 -->
<svg width="554pt" height="39pt"
 viewBox="0.00 0.00 554.00 39.00" xmlns="http://www.w3.org/2000/svg" xmlns:xlink="http://www.w3.org/1999/xlink">
<g id="graph0" class="graph" transform="scale(1 1) rotate(0) translate(4 35)">
<title>LibraryHelper::GetNextAvailableStreamOutFilename</title>
<polygon fill="#ffffff" stroke="transparent" points="-4,4 -4,-35 550,-35 550,4 -4,4"/>
<!-- Node15 -->
<g id="node1" class="node">
<title>Node15</title>
<polygon fill="#bfbfbf" stroke="#000000" points="0,-.5 0,-30.5 174,-30.5 174,-.5 0,-.5"/>
<text text-anchor="start" x="8" y="-18.5" font-family="Helvetica,sans-Serif" font-size="10.00" fill="#000000">LibraryHelper::GetNextAvailable</text>
<text text-anchor="middle" x="87" y="-7.5" font-family="Helvetica,sans-Serif" font-size="10.00" fill="#000000">StreamOutFilename</text>
</g>
<!-- Node16 -->
<g id="node2" class="node">
<title>Node16</title>
<g id="a_node2"><a xlink:href="classFweelin.html#acf7d1726196e974a15abe8fe499cc399" target="_top" xlink:title="Fweelin::ToggleDiskOutput">
<polygon fill="#ffffff" stroke="#000000" points="210,-6 210,-25 356,-25 356,-6 210,-6"/>
<text text-anchor="middle" x="283" y="-13" font-family="Helvetica,sans-Serif" font-size="10.00" fill="#000000">Fweelin::ToggleDiskOutput</text>
</a>
</g>
</g>
<!-- Node15&#45;&gt;Node16 -->
<g id="edge1" class="edge">
<title>Node15&#45;&gt;Node16</title>
<path fill="none" stroke="#191970" d="M184.2387,-15.5C192.8839,-15.5 201.5369,-15.5 209.9287,-15.5"/>
<polygon fill="#191970" stroke="#191970" points="184.1099,-12.0001 174.1099,-15.5 184.1098,-19.0001 184.1099,-12.0001"/>
</g>
<!-- Node17 -->
<g id="node3" class="node">
<title>Node17</title>
<g id="a_node3"><a xlink:href="classLoopManager.html#a4aada2d07b7ce0a67a8119ece4805966" target="_top" xlink:title="LoopManager::ReceiveEvent">
<polygon fill="#ffffff" stroke="#000000" points="392,-6 392,-25 546,-25 546,-6 392,-6"/>
<text text-anchor="middle" x="469" y="-13" font-family="Helvetica,sans-Serif" font-size="10.00" fill="#000000">LoopManager::ReceiveEvent</text>
</a>
</g>
</g>
<!-- Node16&#45;&gt;Node17 -->
<g id="edge2" class="edge">
<title>Node16&#45;&gt;Node17</title>
<path fill="none" stroke="#191970" d="M366.4738,-15.5C374.918,-15.5 383.4682,-15.5 391.8418,-15.5"/>
<polygon fill="#191970" stroke="#191970" points="366.2452,-12.0001 356.2451,-15.5 366.2451,-19.0001 366.2452,-12.0001"/>
</g>
</g>
</svg>
