<?xml version="1.0" encoding="UTF-8" standalone="no"?>
<!DOCTYPE svg PUBLIC "-//W3C//DTD SVG 1.1//EN"
 "http://www.w3.org/Graphics/SVG/1.1/DTD/svg11.dtd">
<!-- Generated by graphviz version 2.40.1 (20161225.0304)
 -->
<!-- Title: Processor::dopreprocess Pages: 1 -->
<svg width="904pt" height="337pt"
 viewBox="0.00 0.00 904.00 337.00" xmlns="http://www.w3.org/2000/svg" xmlns:xlink="http://www.w3.org/1999/xlink">
<g id="graph0" class="graph" transform="scale(1 1) rotate(0) translate(4 333)">
<title>Processor::dopreprocess</title>
<polygon fill="#ffffff" stroke="transparent" points="-4,4 -4,-333 900,-333 900,4 -4,4"/>
<!-- Node10 -->
<g id="node1" class="node">
<title>Node10</title>
<polygon fill="#bfbfbf" stroke="#000000" points="0,-114.5 0,-133.5 135,-133.5 135,-114.5 0,-114.5"/>
<text text-anchor="middle" x="67.5" y="-121.5" font-family="Helvetica,sans-Serif" font-size="10.00" fill="#000000">Processor::dopreprocess</text>
</g>
<!-- Node11 -->
<g id="node2" class="node">
<title>Node11</title>
<g id="a_node2"><a xlink:href="classLoopManager.html#ad385aa5de4038bffcb67aadd4052c90c" target="_top" xlink:title="LoopManager::SetLoopVolume">
<polygon fill="#ffffff" stroke="#000000" points="347,-190.5 347,-209.5 511,-209.5 511,-190.5 347,-190.5"/>
<text text-anchor="middle" x="429" y="-197.5" font-family="Helvetica,sans-Serif" font-size="10.00" fill="#000000">LoopManager::SetLoopVolume</text>
</a>
</g>
</g>
<!-- Node10&#45;&gt;Node11 -->
<g id="edge1" class="edge">
<title>Node10&#45;&gt;Node11</title>
<path fill="none" stroke="#191970" d="M123.0905,-135.6871C194.6521,-150.7318 317.6317,-176.5865 383.7676,-190.4906"/>
<polygon fill="#191970" stroke="#191970" points="123.4244,-132.1808 112.9182,-133.5485 121.9842,-139.0311 123.4244,-132.1808"/>
</g>
<!-- Node14 -->
<g id="node5" class="node">
<title>Node14</title>
<g id="a_node5"><a xlink:href="classRootProcessor.html#adc75260f6db8566d3e3eaaea2d5a6323" target="_top" xlink:title="RootProcessor::AddChild">
<polygon fill="#ffffff" stroke="#000000" points="173.5,-242.5 173.5,-261.5 308.5,-261.5 308.5,-242.5 173.5,-242.5"/>
<text text-anchor="middle" x="241" y="-249.5" font-family="Helvetica,sans-Serif" font-size="10.00" fill="#000000">RootProcessor::AddChild</text>
</a>
</g>
</g>
<!-- Node10&#45;&gt;Node14 -->
<g id="edge5" class="edge">
<title>Node10&#45;&gt;Node14</title>
<path fill="none" stroke="#191970" d="M85.8307,-140.3528C106.058,-158.0843 139.8798,-186.8199 171,-209 188.4218,-221.4169 209.46,-234.0456 223.8953,-242.3749"/>
<polygon fill="#191970" stroke="#191970" points="88.1009,-137.6882 78.2869,-133.6963 83.4695,-142.9371 88.1009,-137.6882"/>
</g>
<!-- Node18 -->
<g id="node9" class="node">
<title>Node18</title>
<g id="a_node9"><a xlink:href="classRootProcessor.html#a479ddcf191d529562b634e65e7ea05b3" target="_top" xlink:title="RootProcessor::DelChild">
<polygon fill="#ffffff" stroke="#000000" points="174.5,-114.5 174.5,-133.5 307.5,-133.5 307.5,-114.5 174.5,-114.5"/>
<text text-anchor="middle" x="241" y="-121.5" font-family="Helvetica,sans-Serif" font-size="10.00" fill="#000000">RootProcessor::DelChild</text>
</a>
</g>
</g>
<!-- Node10&#45;&gt;Node18 -->
<g id="edge12" class="edge">
<title>Node10&#45;&gt;Node18</title>
<path fill="none" stroke="#191970" d="M145.1832,-124C154.9558,-124 164.8835,-124 174.4631,-124"/>
<polygon fill="#191970" stroke="#191970" points="145.0765,-120.5001 135.0764,-124 145.0764,-127.5001 145.0765,-120.5001"/>
</g>
<!-- Node23 -->
<g id="node14" class="node">
<title>Node23</title>
<g id="a_node14"><a xlink:href="classRecordProcessor.html#a8fbde2e8b6f9e9dafb89ef0b06e6a11a" target="_top" xlink:title="RecordProcessor::Jump">
<polygon fill="#ffffff" stroke="#000000" points="177,-76.5 177,-95.5 305,-95.5 305,-76.5 177,-76.5"/>
<text text-anchor="middle" x="241" y="-83.5" font-family="Helvetica,sans-Serif" font-size="10.00" fill="#000000">RecordProcessor::Jump</text>
</a>
</g>
</g>
<!-- Node10&#45;&gt;Node23 -->
<g id="edge23" class="edge">
<title>Node10&#45;&gt;Node23</title>
<path fill="none" stroke="#191970" d="M121.1598,-112.2474C145.6927,-106.8742 174.3787,-100.5914 197.5335,-95.5201"/>
<polygon fill="#191970" stroke="#191970" points="120.301,-108.8525 111.2814,-114.411 121.7987,-115.6904 120.301,-108.8525"/>
</g>
<!-- Node25 -->
<g id="node16" class="node">
<title>Node25</title>
<g id="a_node16"><a xlink:href="classPlayProcessor.html#a13ce406fdf45f876f305b01c031f04a2" target="_top" xlink:title="PlayProcessor::PulseSync">
<polygon fill="#ffffff" stroke="#000000" points="171,-38.5 171,-57.5 311,-57.5 311,-38.5 171,-38.5"/>
<text text-anchor="middle" x="241" y="-45.5" font-family="Helvetica,sans-Serif" font-size="10.00" fill="#000000">PlayProcessor::PulseSync</text>
</a>
</g>
</g>
<!-- Node10&#45;&gt;Node25 -->
<g id="edge25" class="edge">
<title>Node10&#45;&gt;Node25</title>
<path fill="none" stroke="#191970" d="M91.0034,-108.9313C111.4785,-96.3299 142.3038,-78.6023 171,-67 179.9893,-63.3655 189.9038,-60.1985 199.3737,-57.5465"/>
<polygon fill="#191970" stroke="#191970" points="88.9994,-106.0563 82.369,-114.32 92.7055,-111.9947 88.9994,-106.0563"/>
</g>
<!-- Node12 -->
<g id="node3" class="node">
<title>Node12</title>
<g id="a_node3"><a xlink:href="classFweelin.html#a4654015e2bc7cc94f3bfc421899a60d3" target="_top" xlink:title="Fweelin::TriggerSnapshot">
<polygon fill="#ffffff" stroke="#000000" points="557.5,-190.5 557.5,-209.5 695.5,-209.5 695.5,-190.5 557.5,-190.5"/>
<text text-anchor="middle" x="626.5" y="-197.5" font-family="Helvetica,sans-Serif" font-size="10.00" fill="#000000">Fweelin::TriggerSnapshot</text>
</a>
</g>
</g>
<!-- Node11&#45;&gt;Node12 -->
<g id="edge2" class="edge">
<title>Node11&#45;&gt;Node12</title>
<path fill="none" stroke="#191970" d="M521.1905,-200C533.3285,-200 545.5992,-200 557.2648,-200"/>
<polygon fill="#191970" stroke="#191970" points="521.042,-196.5001 511.042,-200 521.042,-203.5001 521.042,-196.5001"/>
</g>
<!-- Node13 -->
<g id="node4" class="node">
<title>Node13</title>
<g id="a_node4"><a xlink:href="classLoopManager.html#a4aada2d07b7ce0a67a8119ece4805966" target="_top" xlink:title="LoopManager::ReceiveEvent">
<polygon fill="#ffffff" stroke="#000000" points="742,-171.5 742,-190.5 896,-190.5 896,-171.5 742,-171.5"/>
<text text-anchor="middle" x="819" y="-178.5" font-family="Helvetica,sans-Serif" font-size="10.00" fill="#000000">LoopManager::ReceiveEvent</text>
</a>
</g>
</g>
<!-- Node11&#45;&gt;Node13 -->
<g id="edge4" class="edge">
<title>Node11&#45;&gt;Node13</title>
<path fill="none" stroke="#191970" d="M484.9898,-211.3443C541.1932,-220.9761 630.0924,-231.4214 706,-219 738.8858,-213.6186 775.1015,-199.9761 797.4517,-190.5919"/>
<polygon fill="#191970" stroke="#191970" points="485.3425,-207.8526 474.8864,-209.561 484.1257,-214.746 485.3425,-207.8526"/>
</g>
<!-- Node12&#45;&gt;Node13 -->
<g id="edge3" class="edge">
<title>Node12&#45;&gt;Node13</title>
<path fill="none" stroke="#191970" d="M705.6768,-192.1851C717.6464,-191.0037 729.9799,-189.7864 741.9046,-188.6094"/>
<polygon fill="#191970" stroke="#191970" points="705.3328,-188.702 695.725,-193.1674 706.0204,-195.6682 705.3328,-188.702"/>
</g>
<!-- Node15 -->
<g id="node6" class="node">
<title>Node15</title>
<g id="a_node6"><a xlink:href="classLoopManager.html#a705436ae811a121ed3285ab34b144bfe" target="_top" xlink:title="LoopManager::CreatePulse">
<polygon fill="#ffffff" stroke="#000000" points="356,-309.5 356,-328.5 502,-328.5 502,-309.5 356,-309.5"/>
<text text-anchor="middle" x="429" y="-316.5" font-family="Helvetica,sans-Serif" font-size="10.00" fill="#000000">LoopManager::CreatePulse</text>
</a>
</g>
</g>
<!-- Node14&#45;&gt;Node15 -->
<g id="edge6" class="edge">
<title>Node14&#45;&gt;Node15</title>
<path fill="none" stroke="#191970" d="M272.0402,-265.5546C293.0054,-274.4705 321.4185,-286.093 347,-295 362.1292,-300.2677 379.0874,-305.3623 393.6386,-309.4922"/>
<polygon fill="#191970" stroke="#191970" points="273.2509,-262.2657 262.6807,-261.5438 270.4937,-268.6998 273.2509,-262.2657"/>
</g>
<!-- Node16 -->
<g id="node7" class="node">
<title>Node16</title>
<g id="a_node7"><a xlink:href="classLoopManager.html#a67c6f44d33880b35c875a8e6ea8babac" target="_top" xlink:title="LoopManager::TapPulse">
<polygon fill="#ffffff" stroke="#000000" points="561,-304.5 561,-323.5 692,-323.5 692,-304.5 561,-304.5"/>
<text text-anchor="middle" x="626.5" y="-311.5" font-family="Helvetica,sans-Serif" font-size="10.00" fill="#000000">LoopManager::TapPulse</text>
</a>
</g>
</g>
<!-- Node14&#45;&gt;Node16 -->
<g id="edge7" class="edge">
<title>Node14&#45;&gt;Node16</title>
<path fill="none" stroke="#191970" d="M310.4569,-263.1708C383.7975,-274.9661 498.1787,-293.3621 567.3596,-304.4884"/>
<polygon fill="#191970" stroke="#191970" points="310.8185,-259.684 300.3895,-261.5516 309.7069,-266.5952 310.8185,-259.684"/>
</g>
<!-- Node17 -->
<g id="node8" class="node">
<title>Node17</title>
<g id="a_node8"><a xlink:href="classLoopManager.html#add3b21cda3c0eddecabf19d24c610cdc" target="_top" xlink:title="LoopManager::Activate">
<polygon fill="#ffffff" stroke="#000000" points="365,-233.5 365,-252.5 493,-252.5 493,-233.5 365,-233.5"/>
<text text-anchor="middle" x="429" y="-240.5" font-family="Helvetica,sans-Serif" font-size="10.00" fill="#000000">LoopManager::Activate</text>
</a>
</g>
</g>
<!-- Node14&#45;&gt;Node17 -->
<g id="edge9" class="edge">
<title>Node14&#45;&gt;Node17</title>
<path fill="none" stroke="#191970" d="M318.6035,-248.2849C333.9757,-247.549 349.9517,-246.7842 364.8176,-246.0726"/>
<polygon fill="#191970" stroke="#191970" points="318.4279,-244.7892 308.6067,-248.7635 318.7627,-251.7812 318.4279,-244.7892"/>
</g>
<!-- Node16&#45;&gt;Node13 -->
<g id="edge8" class="edge">
<title>Node16&#45;&gt;Node13</title>
<path fill="none" stroke="#191970" d="M681.086,-301.2943C689.7173,-298.2307 698.319,-294.5034 706,-290 752.7929,-262.5653 795.1192,-211.9183 811.6479,-190.7246"/>
<polygon fill="#191970" stroke="#191970" points="679.7884,-298.0363 671.3761,-304.4771 681.9688,-304.6881 679.7884,-298.0363"/>
</g>
<!-- Node17&#45;&gt;Node12 -->
<g id="edge10" class="edge">
<title>Node17&#45;&gt;Node12</title>
<path fill="none" stroke="#191970" d="M482.7359,-231.3005C514.1453,-224.462 553.2846,-215.9406 582.7909,-209.5164"/>
<polygon fill="#191970" stroke="#191970" points="481.8581,-227.9096 472.8317,-233.4569 483.3474,-234.7493 481.8581,-227.9096"/>
</g>
<!-- Node17&#45;&gt;Node13 -->
<g id="edge11" class="edge">
<title>Node17&#45;&gt;Node13</title>
<path fill="none" stroke="#191970" d="M503.5131,-249.1234C559.9148,-251.7803 638.8668,-251.2389 706,-235 743.4063,-225.9517 783.1055,-203.6012 804.0452,-190.6684"/>
<polygon fill="#191970" stroke="#191970" points="503.4194,-245.6139 493.252,-248.5931 503.058,-252.6046 503.4194,-245.6139"/>
</g>
<!-- Node18&#45;&gt;Node13 -->
<g id="edge22" class="edge">
<title>Node18&#45;&gt;Node13</title>
<path fill="none" stroke="#191970" d="M317.8261,-128.647C371.8892,-132.1029 445.9215,-137.208 511,-143 597.8246,-150.7274 619.5487,-152.847 706,-164 723.2163,-166.2211 741.8649,-168.9098 758.9553,-171.4871"/>
<polygon fill="#191970" stroke="#191970" points="317.8314,-125.1404 307.6297,-127.9997 317.3878,-132.1264 317.8314,-125.1404"/>
</g>
<!-- Node19 -->
<g id="node10" class="node">
<title>Node19</title>
<g id="a_node10"><a xlink:href="classLoopManager.html#a8efb4c8acabceb10faa8660c14c89d71" target="_top" xlink:title="LoopManager::DeletePulse">
<polygon fill="#ffffff" stroke="#000000" points="553.5,-76.5 553.5,-95.5 699.5,-95.5 699.5,-76.5 553.5,-76.5"/>
<text text-anchor="middle" x="626.5" y="-83.5" font-family="Helvetica,sans-Serif" font-size="10.00" fill="#000000">LoopManager::DeletePulse</text>
</a>
</g>
</g>
<!-- Node18&#45;&gt;Node19 -->
<g id="edge13" class="edge">
<title>Node18&#45;&gt;Node19</title>
<path fill="none" stroke="#191970" d="M317.8292,-113.4325C327.6387,-112.207 337.5498,-111.0293 347,-110 416.9619,-102.3802 496.9941,-95.7158 553.4379,-91.3561"/>
<polygon fill="#191970" stroke="#191970" points="317.1466,-109.991 307.6671,-114.7228 318.0283,-116.9353 317.1466,-109.991"/>
</g>
<!-- Node20 -->
<g id="node11" class="node">
<title>Node20</title>
<g id="a_node11"><a xlink:href="classLoopManager.html#a332a9868980750f28fbf0e05b2336174" target="_top" xlink:title="LoopManager::DeleteLoop">
<polygon fill="#ffffff" stroke="#000000" points="357.5,-38.5 357.5,-57.5 500.5,-57.5 500.5,-38.5 357.5,-38.5"/>
<text text-anchor="middle" x="429" y="-45.5" font-family="Helvetica,sans-Serif" font-size="10.00" fill="#000000">LoopManager::DeleteLoop</text>
</a>
</g>
</g>
<!-- Node18&#45;&gt;Node20 -->
<g id="edge15" class="edge">
<title>Node18&#45;&gt;Node20</title>
<path fill="none" stroke="#191970" d="M298.286,-110.9284C302.6917,-109.1807 306.9827,-107.2129 311,-105 330.0115,-94.5275 328.0925,-82.6591 347,-72 357.9832,-65.8082 370.713,-61.0823 382.8186,-57.5314"/>
<polygon fill="#191970" stroke="#191970" points="296.7625,-107.7558 288.52,-114.4124 299.1147,-114.3488 296.7625,-107.7558"/>
</g>
<!-- Node22 -->
<g id="node13" class="node">
<title>Node22</title>
<g id="a_node13"><a xlink:href="classLoopManager.html#a861cdd2ace9aeb53b4ecf92728215265" target="_top" xlink:title="LoopManager::Deactivate">
<polygon fill="#ffffff" stroke="#000000" points="358.5,-152.5 358.5,-171.5 499.5,-171.5 499.5,-152.5 358.5,-152.5"/>
<text text-anchor="middle" x="429" y="-159.5" font-family="Helvetica,sans-Serif" font-size="10.00" fill="#000000">LoopManager::Deactivate</text>
</a>
</g>
</g>
<!-- Node18&#45;&gt;Node22 -->
<g id="edge19" class="edge">
<title>Node18&#45;&gt;Node22</title>
<path fill="none" stroke="#191970" d="M298.4365,-135.6095C325.1744,-141.014 356.5879,-147.3635 381.9008,-152.4799"/>
<polygon fill="#191970" stroke="#191970" points="298.9356,-132.1397 288.4403,-133.589 297.5487,-139.0009 298.9356,-132.1397"/>
</g>
<!-- Node19&#45;&gt;Node13 -->
<g id="edge14" class="edge">
<title>Node19&#45;&gt;Node13</title>
<path fill="none" stroke="#191970" d="M675.3948,-98.5077C685.6929,-101.7625 696.3541,-105.6102 706,-110 744.591,-127.5627 785.7521,-156.2973 806.0888,-171.257"/>
<polygon fill="#191970" stroke="#191970" points="676.2626,-95.1137 665.6776,-95.5703 674.2371,-101.8142 676.2626,-95.1137"/>
</g>
<!-- Node20&#45;&gt;Node13 -->
<g id="edge18" class="edge">
<title>Node20&#45;&gt;Node13</title>
<path fill="none" stroke="#191970" d="M489.5144,-36.7562C559.3892,-24.9976 669.4143,-10.6105 706,-29 767.9911,-60.1593 804.5588,-143.2136 815.4991,-171.4496"/>
<polygon fill="#191970" stroke="#191970" points="488.7764,-33.3315 479.5098,-38.4678 489.9568,-40.2313 488.7764,-33.3315"/>
</g>
<!-- Node20&#45;&gt;Node19 -->
<g id="edge17" class="edge">
<title>Node20&#45;&gt;Node19</title>
<path fill="none" stroke="#191970" d="M488.7147,-59.4894C516.8946,-64.9114 550.129,-71.3058 576.8969,-76.4561"/>
<polygon fill="#191970" stroke="#191970" points="489.0639,-55.9925 478.5827,-57.54 487.7412,-62.8664 489.0639,-55.9925"/>
</g>
<!-- Node21 -->
<g id="node12" class="node">
<title>Node21</title>
<g id="a_node12"><a xlink:href="classLoopManager.html#a6048a702c9cec3676a1c56792b16ec44" target="_top" xlink:title="LoopManager::ReadComplete">
<polygon fill="#ffffff" stroke="#000000" points="547,-38.5 547,-57.5 706,-57.5 706,-38.5 547,-38.5"/>
<text text-anchor="middle" x="626.5" y="-45.5" font-family="Helvetica,sans-Serif" font-size="10.00" fill="#000000">LoopManager::ReadComplete</text>
</a>
</g>
</g>
<!-- Node20&#45;&gt;Node21 -->
<g id="edge16" class="edge">
<title>Node20&#45;&gt;Node21</title>
<path fill="none" stroke="#191970" d="M510.9077,-48C522.7768,-48 534.9804,-48 546.8052,-48"/>
<polygon fill="#191970" stroke="#191970" points="510.5813,-44.5001 500.5813,-48 510.5812,-51.5001 510.5813,-44.5001"/>
</g>
<!-- Node22&#45;&gt;Node12 -->
<g id="edge20" class="edge">
<title>Node22&#45;&gt;Node12</title>
<path fill="none" stroke="#191970" d="M488.7147,-173.4894C516.8946,-178.9114 550.129,-185.3058 576.8969,-190.4561"/>
<polygon fill="#191970" stroke="#191970" points="489.0639,-169.9925 478.5827,-171.54 487.7412,-176.8664 489.0639,-169.9925"/>
</g>
<!-- Node22&#45;&gt;Node13 -->
<g id="edge21" class="edge">
<title>Node22&#45;&gt;Node13</title>
<path fill="none" stroke="#191970" d="M509.8847,-165.9405C578.0207,-169.26 674.8363,-173.9766 741.8858,-177.2432"/>
<polygon fill="#191970" stroke="#191970" points="509.7846,-162.4316 499.6261,-165.4408 509.4439,-169.4233 509.7846,-162.4316"/>
</g>
<!-- Node24 -->
<g id="node15" class="node">
<title>Node24</title>
<g id="a_node15"><a xlink:href="classRecordProcessor.html#a6168d8dc850602a348dc74ab1224263a" target="_top" xlink:title="RecordProcessor::PulseSync">
<polygon fill="#ffffff" stroke="#000000" points="353,-.5 353,-19.5 505,-19.5 505,-.5 353,-.5"/>
<text text-anchor="middle" x="429" y="-7.5" font-family="Helvetica,sans-Serif" font-size="10.00" fill="#000000">RecordProcessor::PulseSync</text>
</a>
</g>
</g>
<!-- Node23&#45;&gt;Node24 -->
<g id="edge24" class="edge">
<title>Node23&#45;&gt;Node24</title>
<path fill="none" stroke="#191970" d="M299.4222,-72.8339C303.4492,-71.1162 307.352,-69.1804 311,-67 330.9693,-55.0642 326.8113,-40.5607 347,-29 353.7211,-25.1513 361.1739,-22.0818 368.7674,-19.6339"/>
<polygon fill="#191970" stroke="#191970" points="297.9717,-69.6406 289.862,-76.4586 300.4534,-76.186 297.9717,-69.6406"/>
</g>
</g>
</svg>
