<?xml version="1.0" encoding="UTF-8" standalone="no"?>
<!DOCTYPE svg PUBLIC "-//W3C//DTD SVG 1.1//EN"
 "http://www.w3.org/Graphics/SVG/1.1/DTD/svg11.dtd">
<!-- Generated by graphviz version 2.40.1 (20161225.0304)
 -->
<!-- Title: LoopTray::Setup Pages: 1 -->
<svg width="417pt" height="164pt"
 viewBox="0.00 0.00 417.00 163.75" xmlns="http://www.w3.org/2000/svg" xmlns:xlink="http://www.w3.org/1999/xlink">
<g id="graph0" class="graph" transform="scale(1 1) rotate(0) translate(4 159.7487)">
<title>LoopTray::Setup</title>
<polygon fill="#ffffff" stroke="transparent" points="-4,4 -4,-159.7487 413,-159.7487 413,4 -4,4"/>
<!-- Node72 -->
<g id="node1" class="node">
<title>Node72</title>
<polygon fill="#bfbfbf" stroke="#000000" points="0,-76.5 0,-95.5 93,-95.5 93,-76.5 0,-76.5"/>
<text text-anchor="middle" x="46.5" y="-83.5" font-family="Helvetica,sans-Serif" font-size="10.00" fill="#000000">LoopTray::Setup</text>
</g>
<!-- Node73 -->
<g id="node2" class="node">
<title>Node73</title>
<g id="a_node2"><a xlink:href="classBrowser.html#a8e239fa3c820e6217144facca1c5f7f6" target="_top" xlink:title="Browser::Setup">
<polygon fill="#ffffff" stroke="#000000" points="131.5,-114.5 131.5,-133.5 221.5,-133.5 221.5,-114.5 131.5,-114.5"/>
<text text-anchor="middle" x="176.5" y="-121.5" font-family="Helvetica,sans-Serif" font-size="10.00" fill="#000000">Browser::Setup</text>
</a>
</g>
</g>
<!-- Node72&#45;&gt;Node73 -->
<g id="edge1" class="edge">
<title>Node72&#45;&gt;Node73</title>
<path fill="none" stroke="#191970" d="M79.3045,-95.589C95.7783,-100.4044 115.9434,-106.2988 133.6273,-111.468"/>
<polygon fill="#191970" stroke="#191970" points="133.1256,-114.9677 143.706,-114.4141 135.0897,-108.2489 133.1256,-114.9677"/>
</g>
<!-- Node74 -->
<g id="node3" class="node">
<title>Node74</title>
<g id="a_node3"><a xlink:href="classFweelin.html#a21e51d7b639faaecc415624ab6c16a71" target="_top" xlink:title="Fweelin::getEMG">
<polygon fill="#ffffff" stroke="#000000" points="285.5,-133.5 285.5,-152.5 383.5,-152.5 383.5,-133.5 285.5,-133.5"/>
<text text-anchor="middle" x="334.5" y="-140.5" font-family="Helvetica,sans-Serif" font-size="10.00" fill="#000000">Fweelin::getEMG</text>
</a>
</g>
</g>
<!-- Node72&#45;&gt;Node74 -->
<g id="edge6" class="edge">
<title>Node72&#45;&gt;Node74</title>
<path fill="none" stroke="#191970" d="M56.0864,-95.6215C70.4511,-109.2808 99.0847,-133.6707 129,-143 176.512,-157.817 233.2635,-156.486 275.0772,-152.2059"/>
<polygon fill="#191970" stroke="#191970" points="275.5486,-155.6752 285.102,-151.0945 274.7771,-148.7178 275.5486,-155.6752"/>
</g>
<!-- Node75 -->
<g id="node4" class="node">
<title>Node75</title>
<g id="a_node4"><a xlink:href="classEventManager.html#a900be2c959408f76e6926c96197bd773" target="_top" xlink:title="EventManager::ListenEvent">
<polygon fill="#ffffff" stroke="#000000" points="260,-95.5 260,-114.5 409,-114.5 409,-95.5 260,-95.5"/>
<text text-anchor="middle" x="334.5" y="-102.5" font-family="Helvetica,sans-Serif" font-size="10.00" fill="#000000">EventManager::ListenEvent</text>
</a>
</g>
</g>
<!-- Node72&#45;&gt;Node75 -->
<g id="edge7" class="edge">
<title>Node72&#45;&gt;Node75</title>
<path fill="none" stroke="#191970" d="M93.0923,-89.0738C135.3299,-91.8603 198.6161,-96.0354 249.7949,-99.4118"/>
<polygon fill="#191970" stroke="#191970" points="249.6507,-102.9098 259.8595,-100.0758 250.1116,-95.925 249.6507,-102.9098"/>
</g>
<!-- Node76 -->
<g id="node5" class="node">
<title>Node76</title>
<g id="a_node5"><a xlink:href="classFweelin.html#a681d7ca8d0789199af135f22c26a5409" target="_top" xlink:title="Fweelin::getCFG">
<polygon fill="#ffffff" stroke="#000000" points="129,-38.5 129,-57.5 224,-57.5 224,-38.5 129,-38.5"/>
<text text-anchor="middle" x="176.5" y="-45.5" font-family="Helvetica,sans-Serif" font-size="10.00" fill="#000000">Fweelin::getCFG</text>
</a>
</g>
</g>
<!-- Node72&#45;&gt;Node76 -->
<g id="edge4" class="edge">
<title>Node72&#45;&gt;Node76</title>
<path fill="none" stroke="#191970" d="M79.3045,-76.411C95.7783,-71.5956 115.9434,-65.7012 133.6273,-60.532"/>
<polygon fill="#191970" stroke="#191970" points="135.0897,-63.7511 143.706,-57.5859 133.1256,-57.0323 135.0897,-63.7511"/>
</g>
<!-- Node77 -->
<g id="node6" class="node">
<title>Node77</title>
<g id="a_node6"><a xlink:href="classFloConfig.html#ad6f9cbd1c8cdb635e6a1cbc20f53575f" target="_top" xlink:title="FloConfig::XCvt">
<polygon fill="#ffffff" stroke="#000000" points="131.5,-.5 131.5,-19.5 221.5,-19.5 221.5,-.5 131.5,-.5"/>
<text text-anchor="middle" x="176.5" y="-7.5" font-family="Helvetica,sans-Serif" font-size="10.00" fill="#000000">FloConfig::XCvt</text>
</a>
</g>
</g>
<!-- Node72&#45;&gt;Node77 -->
<g id="edge5" class="edge">
<title>Node72&#45;&gt;Node77</title>
<path fill="none" stroke="#191970" d="M58.5246,-76.4013C74.116,-64.2658 102.4625,-43.2419 129,-29 132.5095,-27.1166 136.247,-25.31 140.0249,-23.6111"/>
<polygon fill="#191970" stroke="#191970" points="141.5596,-26.7618 149.3923,-19.6275 138.8202,-20.3201 141.5596,-26.7618"/>
</g>
<!-- Node73&#45;&gt;Node74 -->
<g id="edge2" class="edge">
<title>Node73&#45;&gt;Node74</title>
<path fill="none" stroke="#191970" d="M221.7765,-129.4446C238.3942,-131.443 257.4628,-133.736 275.1324,-135.8609"/>
<polygon fill="#191970" stroke="#191970" points="274.9988,-139.3699 285.3452,-137.089 275.8346,-132.42 274.9988,-139.3699"/>
</g>
<!-- Node73&#45;&gt;Node75 -->
<g id="edge3" class="edge">
<title>Node73&#45;&gt;Node75</title>
<path fill="none" stroke="#191970" d="M221.7765,-118.5554C230.6424,-117.4892 240.206,-116.3391 249.8826,-115.1755"/>
<polygon fill="#191970" stroke="#191970" points="250.4724,-118.6299 259.983,-113.9609 249.6366,-111.68 250.4724,-118.6299"/>
</g>
</g>
</svg>
