<?xml version="1.0" encoding="UTF-8" standalone="no"?>
<!DOCTYPE svg PUBLIC "-//W3C//DTD SVG 1.1//EN"
 "http://www.w3.org/Graphics/SVG/1.1/DTD/svg11.dtd">
<!-- Generated by graphviz version 2.40.1 (20161225.0304)
 -->
<!-- Title: AudioIO::timebase_callback Pages: 1 -->
<svg width="344pt" height="218pt"
 viewBox="0.00 0.00 344.00 218.00" xmlns="http://www.w3.org/2000/svg" xmlns:xlink="http://www.w3.org/1999/xlink">
<g id="graph0" class="graph" transform="scale(1 1) rotate(0) translate(4 214)">
<title>AudioIO::timebase_callback</title>
<polygon fill="#ffffff" stroke="transparent" points="-4,4 -4,-214 340,-214 340,4 -4,4"/>
<!-- Node146 -->
<g id="node1" class="node">
<title>Node146</title>
<polygon fill="#bfbfbf" stroke="#000000" points="0,-95.5 0,-114.5 152,-114.5 152,-95.5 0,-95.5"/>
<text text-anchor="middle" x="76" y="-102.5" font-family="Helvetica,sans-Serif" font-size="10.00" fill="#000000">AudioIO::timebase_callback</text>
</g>
<!-- Node147 -->
<g id="node2" class="node">
<title>Node147</title>
<g id="a_node2"><a xlink:href="classFweelin.html#a7b1253ea49ee57244a0d8cca152d72e5" target="_top" xlink:title="Fweelin::getLOOPMGR">
<polygon fill="#ffffff" stroke="#000000" points="199.5,-190.5 199.5,-209.5 324.5,-209.5 324.5,-190.5 199.5,-190.5"/>
<text text-anchor="middle" x="262" y="-197.5" font-family="Helvetica,sans-Serif" font-size="10.00" fill="#000000">Fweelin::getLOOPMGR</text>
</a>
</g>
</g>
<!-- Node146&#45;&gt;Node147 -->
<g id="edge1" class="edge">
<title>Node146&#45;&gt;Node147</title>
<path fill="none" stroke="#191970" d="M87.2936,-114.6493C106.6461,-130.7074 147.9446,-162.9312 188,-181 193.3445,-183.4109 199.0496,-185.5556 204.8314,-187.4543"/>
<polygon fill="#191970" stroke="#191970" points="203.9984,-190.8592 214.5842,-190.4209 206.0355,-184.1622 203.9984,-190.8592"/>
</g>
<!-- Node148 -->
<g id="node3" class="node">
<title>Node148</title>
<g id="a_node3"><a xlink:href="classLoopManager.html#a28c81cf1fb5fdf13a633e33d06975a0d" target="_top" xlink:title="LoopManager::GetCurPulse">
<polygon fill="#ffffff" stroke="#000000" points="188,-152.5 188,-171.5 336,-171.5 336,-152.5 188,-152.5"/>
<text text-anchor="middle" x="262" y="-159.5" font-family="Helvetica,sans-Serif" font-size="10.00" fill="#000000">LoopManager::GetCurPulse</text>
</a>
</g>
</g>
<!-- Node146&#45;&gt;Node148 -->
<g id="edge2" class="edge">
<title>Node146&#45;&gt;Node148</title>
<path fill="none" stroke="#191970" d="M102.521,-114.6318C125.1011,-122.6795 158.4794,-134.216 188,-143 196.041,-145.3927 204.6259,-147.7628 212.995,-149.9756"/>
<polygon fill="#191970" stroke="#191970" points="212.116,-153.3633 222.675,-152.4928 213.8777,-146.5886 212.116,-153.3633"/>
</g>
<!-- Node149 -->
<g id="node4" class="node">
<title>Node149</title>
<g id="a_node4"><a xlink:href="classPulse.html#a677b6d7a3863a655360ee7c613aefde7" target="_top" xlink:title="Pulse::GetPos">
<polygon fill="#ffffff" stroke="#000000" points="220.5,-114.5 220.5,-133.5 303.5,-133.5 303.5,-114.5 220.5,-114.5"/>
<text text-anchor="middle" x="262" y="-121.5" font-family="Helvetica,sans-Serif" font-size="10.00" fill="#000000">Pulse::GetPos</text>
</a>
</g>
</g>
<!-- Node146&#45;&gt;Node149 -->
<g id="edge3" class="edge">
<title>Node146&#45;&gt;Node149</title>
<path fill="none" stroke="#191970" d="M152.19,-112.7828C171.7377,-114.7797 192.3103,-116.8812 210.2969,-118.7185"/>
<polygon fill="#191970" stroke="#191970" points="209.9758,-122.2038 220.2797,-119.7382 210.6872,-115.2401 209.9758,-122.2038"/>
</g>
<!-- Node150 -->
<g id="node5" class="node">
<title>Node150</title>
<g id="a_node5"><a xlink:href="classPulse.html#ae4c83e1199ea7a74791c9d0fe80a54f5" target="_top" xlink:title="Pulse::GetLength">
<polygon fill="#ffffff" stroke="#000000" points="212.5,-76.5 212.5,-95.5 311.5,-95.5 311.5,-76.5 212.5,-76.5"/>
<text text-anchor="middle" x="262" y="-83.5" font-family="Helvetica,sans-Serif" font-size="10.00" fill="#000000">Pulse::GetLength</text>
</a>
</g>
</g>
<!-- Node146&#45;&gt;Node150 -->
<g id="edge4" class="edge">
<title>Node146&#45;&gt;Node150</title>
<path fill="none" stroke="#191970" d="M152.19,-97.2172C168.8142,-95.519 186.1796,-93.7451 202.0653,-92.1224"/>
<polygon fill="#191970" stroke="#191970" points="202.6756,-95.5783 212.2681,-91.0801 201.9641,-88.6146 202.6756,-95.5783"/>
</g>
<!-- Node151 -->
<g id="node6" class="node">
<title>Node151</title>
<g id="a_node6"><a xlink:href="classFweelin.html#af5750c2388bfe7d280182c3a8c3cab13" target="_top" xlink:title="Fweelin::GetSyncSpeed">
<polygon fill="#ffffff" stroke="#000000" points="196.5,-38.5 196.5,-57.5 327.5,-57.5 327.5,-38.5 196.5,-38.5"/>
<text text-anchor="middle" x="262" y="-45.5" font-family="Helvetica,sans-Serif" font-size="10.00" fill="#000000">Fweelin::GetSyncSpeed</text>
</a>
</g>
</g>
<!-- Node146&#45;&gt;Node151 -->
<g id="edge5" class="edge">
<title>Node146&#45;&gt;Node151</title>
<path fill="none" stroke="#191970" d="M102.521,-95.3682C125.1011,-87.3205 158.4794,-75.784 188,-67 196.041,-64.6073 204.6259,-62.2372 212.995,-60.0244"/>
<polygon fill="#191970" stroke="#191970" points="213.8777,-63.4114 222.675,-57.5072 212.116,-56.6367 213.8777,-63.4114"/>
</g>
<!-- Node152 -->
<g id="node7" class="node">
<title>Node152</title>
<g id="a_node7"><a xlink:href="classFweelin.html#acd22ca1ad294b86d1d180de907418d27" target="_top" xlink:title="Fweelin::GetSyncType">
<polygon fill="#ffffff" stroke="#000000" points="200.5,-.5 200.5,-19.5 323.5,-19.5 323.5,-.5 200.5,-.5"/>
<text text-anchor="middle" x="262" y="-7.5" font-family="Helvetica,sans-Serif" font-size="10.00" fill="#000000">Fweelin::GetSyncType</text>
</a>
</g>
</g>
<!-- Node146&#45;&gt;Node152 -->
<g id="edge6" class="edge">
<title>Node146&#45;&gt;Node152</title>
<path fill="none" stroke="#191970" d="M87.2936,-95.3507C106.6461,-79.2926 147.9446,-47.0688 188,-29 193.3445,-26.5891 199.0496,-24.4444 204.8314,-22.5457"/>
<polygon fill="#191970" stroke="#191970" points="206.0355,-25.8378 214.5842,-19.5791 203.9984,-19.1408 206.0355,-25.8378"/>
</g>
</g>
</svg>
