<?xml version="1.0" encoding="UTF-8" standalone="no"?>
<!DOCTYPE svg PUBLIC "-//W3C//DTD SVG 1.1//EN"
 "http://www.w3.org/Graphics/SVG/1.1/DTD/svg11.dtd">
<!-- Generated by graphviz version 2.40.1 (20161225.0304)
 -->
<!-- Title: BlockReadManager::End Pages: 1 -->
<svg width="751pt" height="306pt"
 viewBox="0.00 0.00 751.00 306.00" xmlns="http://www.w3.org/2000/svg" xmlns:xlink="http://www.w3.org/1999/xlink">
<g id="graph0" class="graph" transform="scale(1 1) rotate(0) translate(4 302)">
<title>BlockReadManager::End</title>
<polygon fill="#ffffff" stroke="transparent" points="-4,4 -4,-302 747,-302 747,4 -4,4"/>
<!-- Node21 -->
<g id="node1" class="node">
<title>Node21</title>
<polygon fill="#bfbfbf" stroke="#000000" points="0,-133.5 0,-152.5 134,-152.5 134,-133.5 0,-133.5"/>
<text text-anchor="middle" x="67" y="-140.5" font-family="Helvetica,sans-Serif" font-size="10.00" fill="#000000">BlockReadManager::End</text>
</g>
<!-- Node22 -->
<g id="node2" class="node">
<title>Node22</title>
<g id="a_node2"><a xlink:href="classiFileDecoder.html#a3a9e784a7831ca8990d66f045bb1f2e7" target="_top" xlink:title="iFileDecoder::Stop">
<polygon fill="#ffffff" stroke="#000000" points="206,-278.5 206,-297.5 310,-297.5 310,-278.5 206,-278.5"/>
<text text-anchor="middle" x="258" y="-285.5" font-family="Helvetica,sans-Serif" font-size="10.00" fill="#000000">iFileDecoder::Stop</text>
</a>
</g>
</g>
<!-- Node21&#45;&gt;Node22 -->
<g id="edge1" class="edge">
<title>Node21&#45;&gt;Node22</title>
<path fill="none" stroke="#191970" d="M71.9371,-152.7608C84.6205,-176.7684 120.8344,-238.919 170,-269 177.9307,-273.8522 186.9271,-277.4754 196.0657,-280.1786"/>
<polygon fill="#191970" stroke="#191970" points="195.4348,-283.631 205.9942,-282.7655 197.1998,-276.8572 195.4348,-283.631"/>
</g>
<!-- Node23 -->
<g id="node3" class="node">
<title>Node23</title>
<g id="a_node3"><a xlink:href="classAudioBlockIterator.html#a33e1c3a6381e3c0ba5dd129885509eb3" target="_top" xlink:title="AudioBlockIterator\l::EndChain">
<polygon fill="#ffffff" stroke="#000000" points="204.5,-229 204.5,-259 311.5,-259 311.5,-229 204.5,-229"/>
<text text-anchor="start" x="212.5" y="-247" font-family="Helvetica,sans-Serif" font-size="10.00" fill="#000000">AudioBlockIterator</text>
<text text-anchor="middle" x="258" y="-236" font-family="Helvetica,sans-Serif" font-size="10.00" fill="#000000">::EndChain</text>
</a>
</g>
</g>
<!-- Node21&#45;&gt;Node23 -->
<g id="edge2" class="edge">
<title>Node21&#45;&gt;Node23</title>
<path fill="none" stroke="#191970" d="M78.6879,-152.6706C97.1169,-167.5334 134.4933,-196.1404 170,-214 178.2598,-218.1546 187.2292,-221.952 196.1769,-225.344"/>
<polygon fill="#191970" stroke="#191970" points="195.2491,-228.7309 205.8431,-228.8633 197.6439,-222.1533 195.2491,-228.7309"/>
</g>
<!-- Node26 -->
<g id="node6" class="node">
<title>Node26</title>
<g id="a_node6"><a xlink:href="classPeaksAvgsManager.html#ad10e0ee30593b6e27e9928390d04ce58" target="_top" xlink:title="PeaksAvgsManager::Manage">
<polygon fill="#ffffff" stroke="#000000" points="180.5,-114.5 180.5,-133.5 335.5,-133.5 335.5,-114.5 180.5,-114.5"/>
<text text-anchor="middle" x="258" y="-121.5" font-family="Helvetica,sans-Serif" font-size="10.00" fill="#000000">PeaksAvgsManager::Manage</text>
</a>
</g>
</g>
<!-- Node21&#45;&gt;Node26 -->
<g id="edge5" class="edge">
<title>Node21&#45;&gt;Node26</title>
<path fill="none" stroke="#191970" d="M134.0709,-136.328C145.7436,-135.1669 158.0398,-133.9437 170.1699,-132.737"/>
<polygon fill="#191970" stroke="#191970" points="170.6984,-136.2018 180.3028,-131.729 170.0054,-129.2362 170.6984,-136.2018"/>
</g>
<!-- Node27 -->
<g id="node7" class="node">
<title>Node27</title>
<g id="a_node7"><a xlink:href="classPeaksAvgsManager.html#a7d5c60dc637af4095167410c4ae924f4" target="_top" xlink:title="PeaksAvgsManager::End">
<polygon fill="#ffffff" stroke="#000000" points="190.5,-76.5 190.5,-95.5 325.5,-95.5 325.5,-76.5 190.5,-76.5"/>
<text text-anchor="middle" x="258" y="-83.5" font-family="Helvetica,sans-Serif" font-size="10.00" fill="#000000">PeaksAvgsManager::End</text>
</a>
</g>
</g>
<!-- Node21&#45;&gt;Node27 -->
<g id="edge6" class="edge">
<title>Node21&#45;&gt;Node27</title>
<path fill="none" stroke="#191970" d="M90.0052,-133.4508C110.6766,-125.127 141.9984,-113.1443 170,-105 179.0223,-102.3758 188.6601,-99.9364 198.1266,-97.7396"/>
<polygon fill="#191970" stroke="#191970" points="198.9095,-101.151 207.8969,-95.5406 197.3724,-94.3219 198.9095,-101.151"/>
</g>
<!-- Node28 -->
<g id="node8" class="node">
<title>Node28</title>
<g id="a_node8"><a xlink:href="classBlockManager.html#a7380825963fc62c90186a0b3c72e8d89" target="_top" xlink:title="BlockManager::PeakAvgOff">
<polygon fill="#ffffff" stroke="#000000" points="184,-38.5 184,-57.5 332,-57.5 332,-38.5 184,-38.5"/>
<text text-anchor="middle" x="258" y="-45.5" font-family="Helvetica,sans-Serif" font-size="10.00" fill="#000000">BlockManager::PeakAvgOff</text>
</a>
</g>
</g>
<!-- Node21&#45;&gt;Node28 -->
<g id="edge7" class="edge">
<title>Node21&#45;&gt;Node28</title>
<path fill="none" stroke="#191970" d="M76.8815,-133.4014C94.2232,-117.122 131.9233,-84.1947 170,-67 175.6089,-64.4672 181.5742,-62.264 187.6536,-60.349"/>
<polygon fill="#191970" stroke="#191970" points="188.631,-63.7098 197.266,-57.5709 186.6874,-56.985 188.631,-63.7098"/>
</g>
<!-- Node30 -->
<g id="node10" class="node">
<title>Node30</title>
<g id="a_node10"><a xlink:href="classAudioBlock.html#adeb97443eade7fd99e54dc15a05dfaef" target="_top" xlink:title="AudioBlock::DeleteChain">
<polygon fill="#ffffff" stroke="#000000" points="399,-228.5 399,-247.5 536,-247.5 536,-228.5 399,-228.5"/>
<text text-anchor="middle" x="467.5" y="-235.5" font-family="Helvetica,sans-Serif" font-size="10.00" fill="#000000">AudioBlock::DeleteChain</text>
</a>
</g>
</g>
<!-- Node21&#45;&gt;Node30 -->
<g id="edge9" class="edge">
<title>Node21&#45;&gt;Node30</title>
<path fill="none" stroke="#191970" d="M89.5566,-152.5433C110.1923,-160.9788 141.7216,-173.132 170,-181 243.9955,-201.5881 330.3916,-217.2373 390.9547,-226.8818"/>
<polygon fill="#191970" stroke="#191970" points="390.7761,-230.3968 401.1989,-228.4952 391.8652,-223.482 390.7761,-230.3968"/>
</g>
<!-- Node32 -->
<g id="node12" class="node">
<title>Node32</title>
<g id="a_node12"><a xlink:href="classAudioBlock.html#a09c778d19d7d45dbb68951fabff2f518" target="_top" xlink:title="AudioBlock::Smooth">
<polygon fill="#ffffff" stroke="#000000" points="200.5,-152.5 200.5,-171.5 315.5,-171.5 315.5,-152.5 200.5,-152.5"/>
<text text-anchor="middle" x="258" y="-159.5" font-family="Helvetica,sans-Serif" font-size="10.00" fill="#000000">AudioBlock::Smooth</text>
</a>
</g>
</g>
<!-- Node21&#45;&gt;Node32 -->
<g id="edge12" class="edge">
<title>Node21&#45;&gt;Node32</title>
<path fill="none" stroke="#191970" d="M134.0709,-149.672C152.3005,-151.4854 172.0507,-153.4501 190.3141,-155.2668"/>
<polygon fill="#191970" stroke="#191970" points="189.991,-158.7519 200.2884,-156.2591 190.684,-151.7863 189.991,-158.7519"/>
</g>
<!-- Node37 -->
<g id="node17" class="node">
<title>Node37</title>
<g id="a_node17"><a xlink:href="classAutoReadControl.html#a4a665022d2569bfb0eab015b0d1e1b75" target="_top" xlink:title="AutoReadControl::ReadComplete">
<polygon fill="#ffffff" stroke="#000000" points="170,-.5 170,-19.5 346,-19.5 346,-.5 170,-.5"/>
<text text-anchor="middle" x="258" y="-7.5" font-family="Helvetica,sans-Serif" font-size="10.00" fill="#000000">AutoReadControl::ReadComplete</text>
</a>
</g>
</g>
<!-- Node21&#45;&gt;Node37 -->
<g id="edge21" class="edge">
<title>Node21&#45;&gt;Node37</title>
<path fill="none" stroke="#191970" d="M72.7933,-133.1919C86.5614,-110.8111 123.5892,-55.8415 170,-29 173.911,-26.7381 178.0608,-24.7447 182.3455,-22.9881"/>
<polygon fill="#191970" stroke="#191970" points="183.7022,-26.219 191.9009,-19.5084 181.3069,-19.6415 183.7022,-26.219"/>
</g>
<!-- Node24 -->
<g id="node4" class="node">
<title>Node24</title>
<g id="a_node4"><a xlink:href="classAudioBlock.html#a1577ddd5048ce06dbddfae7702b35c81" target="_top" xlink:title="AudioBlock::ChopChain">
<polygon fill="#ffffff" stroke="#000000" points="402.5,-266.5 402.5,-285.5 532.5,-285.5 532.5,-266.5 402.5,-266.5"/>
<text text-anchor="middle" x="467.5" y="-273.5" font-family="Helvetica,sans-Serif" font-size="10.00" fill="#000000">AudioBlock::ChopChain</text>
</a>
</g>
</g>
<!-- Node23&#45;&gt;Node24 -->
<g id="edge3" class="edge">
<title>Node23&#45;&gt;Node24</title>
<path fill="none" stroke="#191970" d="M311.6794,-252.1992C337.0533,-256.075 367.7206,-260.7592 395.1134,-264.9433"/>
<polygon fill="#191970" stroke="#191970" points="394.6276,-268.4097 405.0415,-266.4598 395.6847,-261.4899 394.6276,-268.4097"/>
</g>
<!-- Node25 -->
<g id="node5" class="node">
<title>Node25</title>
<g id="a_node5"><a xlink:href="classPreallocated.html#aaf2139a79ca16de70acd9bc4564171b7" target="_top" xlink:title="Preallocated::RTDelete">
<polygon fill="#ffffff" stroke="#000000" points="602,-234.5 602,-253.5 730,-253.5 730,-234.5 602,-234.5"/>
<text text-anchor="middle" x="666" y="-241.5" font-family="Helvetica,sans-Serif" font-size="10.00" fill="#000000">Preallocated::RTDelete</text>
</a>
</g>
</g>
<!-- Node24&#45;&gt;Node25 -->
<g id="edge4" class="edge">
<title>Node24&#45;&gt;Node25</title>
<path fill="none" stroke="#191970" d="M526.5191,-266.4856C548.6193,-262.9228 573.923,-258.8436 596.8575,-255.1464"/>
<polygon fill="#191970" stroke="#191970" points="597.5501,-258.58 606.8655,-253.533 596.4359,-251.6692 597.5501,-258.58"/>
</g>
<!-- Node29 -->
<g id="node9" class="node">
<title>Node29</title>
<g id="a_node9"><a xlink:href="classBlockManager.html#ae59dae7f7f6572b004dcdacc740204ac" target="_top" xlink:title="BlockManager::DelManager">
<polygon fill="#ffffff" stroke="#000000" points="392.5,-38.5 392.5,-57.5 542.5,-57.5 542.5,-38.5 392.5,-38.5"/>
<text text-anchor="middle" x="467.5" y="-45.5" font-family="Helvetica,sans-Serif" font-size="10.00" fill="#000000">BlockManager::DelManager</text>
</a>
</g>
</g>
<!-- Node28&#45;&gt;Node29 -->
<g id="edge8" class="edge">
<title>Node28&#45;&gt;Node29</title>
<path fill="none" stroke="#191970" d="M332.1567,-48C348.3379,-48 365.5867,-48 382.1634,-48"/>
<polygon fill="#191970" stroke="#191970" points="382.3824,-51.5001 392.3824,-48 382.3823,-44.5001 382.3824,-51.5001"/>
</g>
<!-- Node30&#45;&gt;Node25 -->
<g id="edge11" class="edge">
<title>Node30&#45;&gt;Node25</title>
<path fill="none" stroke="#191970" d="M536.0904,-240.0733C553.9721,-240.6138 573.3262,-241.1988 591.498,-241.7481"/>
<polygon fill="#191970" stroke="#191970" points="591.6454,-245.254 601.7466,-242.0578 591.8569,-238.2572 591.6454,-245.254"/>
</g>
<!-- Node31 -->
<g id="node11" class="node">
<title>Node31</title>
<g id="a_node11"><a xlink:href="classBlockExtendedData.html#ae33e9550384a32abf2a91386334a2be9" target="_top" xlink:title="BlockExtendedData::\lGetType">
<polygon fill="#ffffff" stroke="#000000" points="606.5,-185 606.5,-215 725.5,-215 725.5,-185 606.5,-185"/>
<text text-anchor="start" x="614.5" y="-203" font-family="Helvetica,sans-Serif" font-size="10.00" fill="#000000">BlockExtendedData::</text>
<text text-anchor="middle" x="666" y="-192" font-family="Helvetica,sans-Serif" font-size="10.00" fill="#000000">GetType</text>
</a>
</g>
</g>
<!-- Node30&#45;&gt;Node31 -->
<g id="edge10" class="edge">
<title>Node30&#45;&gt;Node31</title>
<path fill="none" stroke="#191970" d="M517.3337,-228.46C541.2645,-223.8788 570.3414,-218.3125 596.4115,-213.3217"/>
<polygon fill="#191970" stroke="#191970" points="597.0754,-216.7583 606.239,-211.4404 595.7592,-209.8831 597.0754,-216.7583"/>
</g>
<!-- Node33 -->
<g id="node13" class="node">
<title>Node33</title>
<g id="a_node13"><a xlink:href="classAudioBlock.html#a380880c91c3af2322d232ce2de83b881" target="_top" xlink:title="AudioBlock::GetTotalLen">
<polygon fill="#ffffff" stroke="#000000" points="598.5,-140.5 598.5,-159.5 733.5,-159.5 733.5,-140.5 598.5,-140.5"/>
<text text-anchor="middle" x="666" y="-147.5" font-family="Helvetica,sans-Serif" font-size="10.00" fill="#000000">AudioBlock::GetTotalLen</text>
</a>
</g>
</g>
<!-- Node32&#45;&gt;Node33 -->
<g id="edge13" class="edge">
<title>Node32&#45;&gt;Node33</title>
<path fill="none" stroke="#191970" d="M308.4775,-152.4865C330.9033,-148.7209 357.6779,-144.8526 382,-143 457.7805,-137.2279 477.0364,-140.6494 553,-143 564.3204,-143.3503 576.2696,-143.8975 587.9909,-144.5353"/>
<polygon fill="#191970" stroke="#191970" points="588.0288,-148.043 598.2114,-145.1164 588.4262,-141.0543 588.0288,-148.043"/>
</g>
<!-- Node34 -->
<g id="node14" class="node">
<title>Node34</title>
<g id="a_node14"><a xlink:href="classAudioBlock.html#a4f53140535b4c56db4c5360f3fb9eb7d" target="_top" xlink:title="AudioBlock::SetPtrsFromAbs\lOffset">
<polygon fill="#ffffff" stroke="#000000" points="589,-78 589,-108 743,-108 743,-78 589,-78"/>
<text text-anchor="start" x="597" y="-96" font-family="Helvetica,sans-Serif" font-size="10.00" fill="#000000">AudioBlock::SetPtrsFromAbs</text>
<text text-anchor="middle" x="666" y="-85" font-family="Helvetica,sans-Serif" font-size="10.00" fill="#000000">Offset</text>
</a>
</g>
</g>
<!-- Node32&#45;&gt;Node34 -->
<g id="edge14" class="edge">
<title>Node32&#45;&gt;Node34</title>
<path fill="none" stroke="#191970" d="M302.2865,-152.4394C331.4375,-146.1994 366.9015,-138.7237 382,-136 447.8557,-124.12 522.7059,-112.8794 579.0253,-104.8722"/>
<polygon fill="#191970" stroke="#191970" points="579.5527,-108.3325 588.9635,-103.4654 578.5716,-101.4016 579.5527,-108.3325"/>
</g>
<!-- Node35 -->
<g id="node15" class="node">
<title>Node35</title>
<g id="a_node15"><a xlink:href="classAudioBlock.html#ae7aec1591ed6f228799c11b650b2cc1b" target="_top" xlink:title="AudioBlock::GetExtendedData">
<polygon fill="#ffffff" stroke="#000000" points="385.5,-190.5 385.5,-209.5 549.5,-209.5 549.5,-190.5 385.5,-190.5"/>
<text text-anchor="middle" x="467.5" y="-197.5" font-family="Helvetica,sans-Serif" font-size="10.00" fill="#000000">AudioBlock::GetExtendedData</text>
</a>
</g>
</g>
<!-- Node32&#45;&gt;Node35 -->
<g id="edge15" class="edge">
<title>Node32&#45;&gt;Node35</title>
<path fill="none" stroke="#191970" d="M310.5953,-171.54C339.2352,-176.7348 374.8585,-183.1963 404.9198,-188.6489"/>
<polygon fill="#191970" stroke="#191970" points="404.4189,-192.1151 414.8831,-190.4561 405.6683,-185.2275 404.4189,-192.1151"/>
</g>
<!-- Node36 -->
<g id="node16" class="node">
<title>Node36</title>
<g id="a_node16"><a xlink:href="classAudioBlock.html#aa9e0bc3fa297c7c97aedda16f240108f" target="_top" xlink:title="AudioBlock::HackTotalLengthBy">
<polygon fill="#ffffff" stroke="#000000" points="382,-152.5 382,-171.5 553,-171.5 553,-152.5 382,-152.5"/>
<text text-anchor="middle" x="467.5" y="-159.5" font-family="Helvetica,sans-Serif" font-size="10.00" fill="#000000">AudioBlock::HackTotalLengthBy</text>
</a>
</g>
</g>
<!-- Node32&#45;&gt;Node36 -->
<g id="edge17" class="edge">
<title>Node32&#45;&gt;Node36</title>
<path fill="none" stroke="#191970" d="M315.5239,-162C332.9567,-162 352.5966,-162 371.8255,-162"/>
<polygon fill="#191970" stroke="#191970" points="371.8297,-165.5001 381.8297,-162 371.8297,-158.5001 371.8297,-165.5001"/>
</g>
<!-- Node35&#45;&gt;Node31 -->
<g id="edge16" class="edge">
<title>Node35&#45;&gt;Node31</title>
<path fill="none" stroke="#191970" d="M549.6704,-200C565.0957,-200 581.0886,-200 596.0975,-200"/>
<polygon fill="#191970" stroke="#191970" points="596.3121,-203.5001 606.3121,-200 596.312,-196.5001 596.3121,-203.5001"/>
</g>
<!-- Node36&#45;&gt;Node25 -->
<g id="edge20" class="edge">
<title>Node36&#45;&gt;Node25</title>
<path fill="none" stroke="#191970" d="M532.3568,-171.516C539.6069,-173.9866 546.6552,-177.0937 553,-181 574.516,-194.2469 567.6395,-211.5038 589,-225 592.3739,-227.1317 595.9708,-229.0242 599.697,-230.7045"/>
<polygon fill="#191970" stroke="#191970" points="598.5862,-234.029 609.1724,-234.459 601.1649,-227.5213 598.5862,-234.029"/>
</g>
<!-- Node36&#45;&gt;Node33 -->
<g id="edge18" class="edge">
<title>Node36&#45;&gt;Node33</title>
<path fill="none" stroke="#191970" d="M553.1221,-156.8239C564.8086,-156.1174 576.7521,-155.3953 588.2877,-154.698"/>
<polygon fill="#191970" stroke="#191970" points="588.5329,-158.1896 598.3034,-154.0925 588.1104,-151.2024 588.5329,-158.1896"/>
</g>
<!-- Node36&#45;&gt;Node34 -->
<g id="edge19" class="edge">
<title>Node36&#45;&gt;Node34</title>
<path fill="none" stroke="#191970" d="M495.1006,-152.4058C525.4153,-141.8682 574.8255,-124.6929 612.74,-111.5136"/>
<polygon fill="#191970" stroke="#191970" points="614.3106,-114.6731 622.607,-108.0837 612.0122,-108.0612 614.3106,-114.6731"/>
</g>
</g>
</svg>
