<?xml version="1.0" encoding="UTF-8" standalone="no"?>
<!DOCTYPE svg PUBLIC "-//W3C//DTD SVG 1.1//EN"
 "http://www.w3.org/Graphics/SVG/1.1/DTD/svg11.dtd">
<!-- Generated by graphviz version 2.40.1 (20161225.0304)
 -->
<!-- Title: TriggerMap::SetMap Pages: 1 -->
<svg width="538pt" height="142pt"
 viewBox="0.00 0.00 538.00 142.00" xmlns="http://www.w3.org/2000/svg" xmlns:xlink="http://www.w3.org/1999/xlink">
<g id="graph0" class="graph" transform="scale(1 1) rotate(0) translate(4 138)">
<title>TriggerMap::SetMap</title>
<polygon fill="#ffffff" stroke="transparent" points="-4,4 -4,-138 534,-138 534,4 -4,4"/>
<!-- Node121 -->
<g id="node1" class="node">
<title>Node121</title>
<polygon fill="#bfbfbf" stroke="#000000" points="0,-76.5 0,-95.5 112,-95.5 112,-76.5 0,-76.5"/>
<text text-anchor="middle" x="56" y="-83.5" font-family="Helvetica,sans-Serif" font-size="10.00" fill="#000000">TriggerMap::SetMap</text>
</g>
<!-- Node122 -->
<g id="node2" class="node">
<title>Node122</title>
<g id="a_node2"><a xlink:href="classEvent.html#aa67af0ae99b897e4f0ce42068c4e4c00" target="_top" xlink:title="Event::GetEventByType">
<polygon fill="#ffffff" stroke="#000000" points="178,-114.5 178,-133.5 309,-133.5 309,-114.5 178,-114.5"/>
<text text-anchor="middle" x="243.5" y="-121.5" font-family="Helvetica,sans-Serif" font-size="10.00" fill="#000000">Event::GetEventByType</text>
</a>
</g>
</g>
<!-- Node121&#45;&gt;Node122 -->
<g id="edge1" class="edge">
<title>Node121&#45;&gt;Node122</title>
<path fill="none" stroke="#191970" d="M101.8466,-95.5367C116.5799,-98.5831 132.9749,-101.9539 148,-105 160.0375,-107.4404 172.9347,-110.026 185.2341,-112.4779"/>
<polygon fill="#191970" stroke="#191970" points="184.902,-115.9804 195.3929,-114.4998 186.2685,-109.115 184.902,-115.9804"/>
</g>
<!-- Node123 -->
<g id="node3" class="node">
<title>Node123</title>
<g id="a_node3"><a xlink:href="classFweelin.html#a21e51d7b639faaecc415624ab6c16a71" target="_top" xlink:title="Fweelin::getEMG">
<polygon fill="#ffffff" stroke="#000000" points="194.5,-76.5 194.5,-95.5 292.5,-95.5 292.5,-76.5 194.5,-76.5"/>
<text text-anchor="middle" x="243.5" y="-83.5" font-family="Helvetica,sans-Serif" font-size="10.00" fill="#000000">Fweelin::getEMG</text>
</a>
</g>
</g>
<!-- Node121&#45;&gt;Node123 -->
<g id="edge2" class="edge">
<title>Node121&#45;&gt;Node123</title>
<path fill="none" stroke="#191970" d="M112.0022,-86C134.8441,-86 161.2751,-86 184.4233,-86"/>
<polygon fill="#191970" stroke="#191970" points="184.4619,-89.5001 194.4619,-86 184.4619,-82.5001 184.4619,-89.5001"/>
</g>
<!-- Node124 -->
<g id="node4" class="node">
<title>Node124</title>
<g id="a_node4"><a xlink:href="classEventManager.html#a4a73f2e7ff1724f28427f7c0d5725c8e" target="_top" xlink:title="EventManager::BroadcastEventNow">
<polygon fill="#ffffff" stroke="#000000" points="148,-38.5 148,-57.5 339,-57.5 339,-38.5 148,-38.5"/>
<text text-anchor="middle" x="243.5" y="-45.5" font-family="Helvetica,sans-Serif" font-size="10.00" fill="#000000">EventManager::BroadcastEventNow</text>
</a>
</g>
</g>
<!-- Node121&#45;&gt;Node124 -->
<g id="edge3" class="edge">
<title>Node121&#45;&gt;Node124</title>
<path fill="none" stroke="#191970" d="M101.8466,-76.4633C116.5799,-73.4169 132.9749,-70.0461 148,-67 160.0375,-64.5596 172.9347,-61.974 185.2341,-59.5221"/>
<polygon fill="#191970" stroke="#191970" points="186.2685,-62.885 195.3929,-57.5002 184.902,-56.0196 186.2685,-62.885"/>
</g>
<!-- Node125 -->
<g id="node5" class="node">
<title>Node125</title>
<g id="a_node5"><a xlink:href="classEvent.html#ac4c4170579544b41dff38ca1b8110e30" target="_top" xlink:title="Event::GetType">
<polygon fill="#ffffff" stroke="#000000" points="407.5,-76.5 407.5,-95.5 497.5,-95.5 497.5,-76.5 407.5,-76.5"/>
<text text-anchor="middle" x="452.5" y="-83.5" font-family="Helvetica,sans-Serif" font-size="10.00" fill="#000000">Event::GetType</text>
</a>
</g>
</g>
<!-- Node124&#45;&gt;Node125 -->
<g id="edge4" class="edge">
<title>Node124&#45;&gt;Node125</title>
<path fill="none" stroke="#191970" d="M295.9698,-57.54C326.9568,-63.174 366.1385,-70.2979 397.5488,-76.0089"/>
<polygon fill="#191970" stroke="#191970" points="396.9888,-79.4644 407.4536,-77.8097 398.241,-72.5773 396.9888,-79.4644"/>
</g>
<!-- Node126 -->
<g id="node6" class="node">
<title>Node126</title>
<g id="a_node6"><a xlink:href="classEventListener.html#a831820a9229e852bd7e2fad686b725b2" target="_top" xlink:title="EventListener::ReceiveEvent">
<polygon fill="#ffffff" stroke="#000000" points="375,-38.5 375,-57.5 530,-57.5 530,-38.5 375,-38.5"/>
<text text-anchor="middle" x="452.5" y="-45.5" font-family="Helvetica,sans-Serif" font-size="10.00" fill="#000000">EventListener::ReceiveEvent</text>
</a>
</g>
</g>
<!-- Node124&#45;&gt;Node126 -->
<g id="edge5" class="edge">
<title>Node124&#45;&gt;Node126</title>
<path fill="none" stroke="#191970" d="M339.1311,-48C347.6132,-48 356.1737,-48 364.5871,-48"/>
<polygon fill="#191970" stroke="#191970" points="364.7614,-51.5001 374.7614,-48 364.7614,-44.5001 364.7614,-51.5001"/>
</g>
<!-- Node127 -->
<g id="node7" class="node">
<title>Node127</title>
<g id="a_node7"><a xlink:href="classPreallocated.html#aaf2139a79ca16de70acd9bc4564171b7" target="_top" xlink:title="Preallocated::RTDelete">
<polygon fill="#ffffff" stroke="#000000" points="388.5,-.5 388.5,-19.5 516.5,-19.5 516.5,-.5 388.5,-.5"/>
<text text-anchor="middle" x="452.5" y="-7.5" font-family="Helvetica,sans-Serif" font-size="10.00" fill="#000000">Preallocated::RTDelete</text>
</a>
</g>
</g>
<!-- Node124&#45;&gt;Node127 -->
<g id="edge6" class="edge">
<title>Node124&#45;&gt;Node127</title>
<path fill="none" stroke="#191970" d="M295.9698,-38.46C324.5413,-33.2652 360.0796,-26.8037 390.0691,-21.3511"/>
<polygon fill="#191970" stroke="#191970" points="390.7961,-24.7764 400.0087,-19.5439 389.5438,-17.8893 390.7961,-24.7764"/>
</g>
</g>
</svg>
