<?xml version="1.0" encoding="UTF-8" standalone="no"?>
<!DOCTYPE svg PUBLIC "-//W3C//DTD SVG 1.1//EN"
 "http://www.w3.org/Graphics/SVG/1.1/DTD/svg11.dtd">
<!-- Generated by graphviz version 2.40.1 (20161225.0304)
 -->
<!-- Title: FloConfig::ConfigureEventBindings Pages: 1 -->
<svg width="521pt" height="72pt"
 viewBox="0.00 0.00 521.00 71.50" xmlns="http://www.w3.org/2000/svg" xmlns:xlink="http://www.w3.org/1999/xlink">
<g id="graph0" class="graph" transform="scale(1 1) rotate(0) translate(4 67.5)">
<title>FloConfig::ConfigureEventBindings</title>
<polygon fill="#ffffff" stroke="transparent" points="-4,4 -4,-67.5 517,-67.5 517,4 -4,4"/>
<!-- Node40 -->
<g id="node1" class="node">
<title>Node40</title>
<polygon fill="#bfbfbf" stroke="#000000" points="0,-33 0,-63 142,-63 142,-33 0,-33"/>
<text text-anchor="start" x="8" y="-51" font-family="Helvetica,sans-Serif" font-size="10.00" fill="#000000">FloConfig::ConfigureEvent</text>
<text text-anchor="middle" x="71" y="-40" font-family="Helvetica,sans-Serif" font-size="10.00" fill="#000000">Bindings</text>
</g>
<!-- Node41 -->
<g id="node2" class="node">
<title>Node41</title>
<g id="a_node2"><a xlink:href="classFloConfig.html#a60461cb1265c667f106326ed8067d521" target="_top" xlink:title="FloConfig::ConfigureRoot">
<polygon fill="#ffffff" stroke="#000000" points="178,-38.5 178,-57.5 314,-57.5 314,-38.5 178,-38.5"/>
<text text-anchor="middle" x="246" y="-45.5" font-family="Helvetica,sans-Serif" font-size="10.00" fill="#000000">FloConfig::ConfigureRoot</text>
</a>
</g>
</g>
<!-- Node40&#45;&gt;Node41 -->
<g id="edge1" class="edge">
<title>Node40&#45;&gt;Node41</title>
<path fill="none" stroke="#191970" d="M152.2373,-48C160.8543,-48 169.5527,-48 177.996,-48"/>
<polygon fill="#191970" stroke="#191970" points="152.1792,-44.5001 142.1792,-48 152.1792,-51.5001 152.1792,-44.5001"/>
</g>
<!-- Node42 -->
<g id="node3" class="node">
<title>Node42</title>
<g id="a_node3"><a xlink:href="classFloConfig.html#a5cc18494ea2e32020314e08e43c920c5" target="_top" xlink:title="FloConfig::ConfigureInterfaces">
<polygon fill="#ffffff" stroke="#000000" points="350,-38.5 350,-57.5 513,-57.5 513,-38.5 350,-38.5"/>
<text text-anchor="middle" x="431.5" y="-45.5" font-family="Helvetica,sans-Serif" font-size="10.00" fill="#000000">FloConfig::ConfigureInterfaces</text>
</a>
</g>
</g>
<!-- Node41&#45;&gt;Node42 -->
<g id="edge2" class="edge">
<title>Node41&#45;&gt;Node42</title>
<path fill="none" stroke="#191970" d="M324.2744,-41.3236C332.7648,-41.2366 341.4212,-41.2267 349.9493,-41.2939"/>
<polygon fill="#191970" stroke="#191970" points="323.9697,-37.8275 314.02,-41.4679 324.0683,-44.8268 323.9697,-37.8275"/>
</g>
<!-- Node43 -->
<g id="node4" class="node">
<title>Node43</title>
<g id="a_node4"><a xlink:href="classFloConfig.html#a865bfdba679c01b96854166af2103cf2" target="_top" xlink:title="FloConfig::Parse">
<polygon fill="#ffffff" stroke="#000000" points="384.5,-.5 384.5,-19.5 478.5,-19.5 478.5,-.5 384.5,-.5"/>
<text text-anchor="middle" x="431.5" y="-7.5" font-family="Helvetica,sans-Serif" font-size="10.00" fill="#000000">FloConfig::Parse</text>
</a>
</g>
</g>
<!-- Node41&#45;&gt;Node43 -->
<g id="edge4" class="edge">
<title>Node41&#45;&gt;Node43</title>
<path fill="none" stroke="#191970" d="M302.6727,-36.3905C329.0551,-30.986 360.0509,-24.6365 385.0271,-19.5201"/>
<polygon fill="#191970" stroke="#191970" points="301.9036,-32.9753 292.8095,-38.411 303.3085,-39.8329 301.9036,-32.9753"/>
</g>
<!-- Node42&#45;&gt;Node41 -->
<g id="edge3" class="edge">
<title>Node42&#45;&gt;Node41</title>
<path fill="none" stroke="#191970" d="M339.786,-54.7496C331.1081,-54.7559 322.4182,-54.6834 314.02,-54.5321"/>
<polygon fill="#191970" stroke="#191970" points="339.9644,-58.249 349.9493,-54.7061 339.9344,-51.2491 339.9644,-58.249"/>
</g>
</g>
</svg>
