<?xml version="1.0" encoding="UTF-8" standalone="no"?>
<!DOCTYPE svg PUBLIC "-//W3C//DTD SVG 1.1//EN"
 "http://www.w3.org/Graphics/SVG/1.1/DTD/svg11.dtd">
<!-- Generated by graphviz version 2.40.1 (20161225.0304)
 -->
<!-- Title: AudioBlockIterator::NextFragment Pages: 1 -->
<svg width="613pt" height="39pt"
 viewBox="0.00 0.00 613.00 39.00" xmlns="http://www.w3.org/2000/svg" xmlns:xlink="http://www.w3.org/1999/xlink">
<g id="graph0" class="graph" transform="scale(1 1) rotate(0) translate(4 35)">
<title>AudioBlockIterator::NextFragment</title>
<polygon fill="#ffffff" stroke="transparent" points="-4,4 -4,-35 609,-35 609,4 -4,4"/>
<!-- Node70 -->
<g id="node1" class="node">
<title>Node70</title>
<polygon fill="#bfbfbf" stroke="#000000" points="0,-.5 0,-30.5 107,-30.5 107,-.5 0,-.5"/>
<text text-anchor="start" x="8" y="-18.5" font-family="Helvetica,sans-Serif" font-size="10.00" fill="#000000">AudioBlockIterator</text>
<text text-anchor="middle" x="53.5" y="-7.5" font-family="Helvetica,sans-Serif" font-size="10.00" fill="#000000">::NextFragment</text>
</g>
<!-- Node71 -->
<g id="node2" class="node">
<title>Node71</title>
<g id="a_node2"><a xlink:href="classAudioBlockIterator.html#a86cfc4c09c380d6304ed3aa6ff2ea17b" target="_top" xlink:title="AudioBlockIterator\l::GetFragment">
<polygon fill="#ffffff" stroke="#000000" points="143,-.5 143,-30.5 250,-30.5 250,-.5 143,-.5"/>
<text text-anchor="start" x="151" y="-18.5" font-family="Helvetica,sans-Serif" font-size="10.00" fill="#000000">AudioBlockIterator</text>
<text text-anchor="middle" x="196.5" y="-7.5" font-family="Helvetica,sans-Serif" font-size="10.00" fill="#000000">::GetFragment</text>
</a>
</g>
</g>
<!-- Node70&#45;&gt;Node71 -->
<g id="edge1" class="edge">
<title>Node70&#45;&gt;Node71</title>
<path fill="none" stroke="#191970" d="M107.1548,-15.5C115.3808,-15.5 123.9436,-15.5 132.3684,-15.5"/>
<polygon fill="#191970" stroke="#191970" points="132.5445,-19.0001 142.5445,-15.5 132.5445,-12.0001 132.5445,-19.0001"/>
</g>
<!-- Node72 -->
<g id="node3" class="node">
<title>Node72</title>
<g id="a_node3"><a xlink:href="classAudioBlock.html#ae7aec1591ed6f228799c11b650b2cc1b" target="_top" xlink:title="AudioBlock::GetExtendedData">
<polygon fill="#ffffff" stroke="#000000" points="286,-6 286,-25 450,-25 450,-6 286,-6"/>
<text text-anchor="middle" x="368" y="-13" font-family="Helvetica,sans-Serif" font-size="10.00" fill="#000000">AudioBlock::GetExtendedData</text>
</a>
</g>
</g>
<!-- Node71&#45;&gt;Node72 -->
<g id="edge2" class="edge">
<title>Node71&#45;&gt;Node72</title>
<path fill="none" stroke="#191970" d="M250.2931,-15.5C258.4127,-15.5 266.9784,-15.5 275.6345,-15.5"/>
<polygon fill="#191970" stroke="#191970" points="275.8163,-19.0001 285.8162,-15.5 275.8162,-12.0001 275.8163,-19.0001"/>
</g>
<!-- Node73 -->
<g id="node4" class="node">
<title>Node73</title>
<g id="a_node4"><a xlink:href="classBlockExtendedData.html#ae33e9550384a32abf2a91386334a2be9" target="_top" xlink:title="BlockExtendedData::\lGetType">
<polygon fill="#ffffff" stroke="#000000" points="486,-.5 486,-30.5 605,-30.5 605,-.5 486,-.5"/>
<text text-anchor="start" x="494" y="-18.5" font-family="Helvetica,sans-Serif" font-size="10.00" fill="#000000">BlockExtendedData::</text>
<text text-anchor="middle" x="545.5" y="-7.5" font-family="Helvetica,sans-Serif" font-size="10.00" fill="#000000">GetType</text>
</a>
</g>
</g>
<!-- Node72&#45;&gt;Node73 -->
<g id="edge3" class="edge">
<title>Node72&#45;&gt;Node73</title>
<path fill="none" stroke="#191970" d="M450.2549,-15.5C458.7652,-15.5 467.3555,-15.5 475.7106,-15.5"/>
<polygon fill="#191970" stroke="#191970" points="475.7642,-19.0001 485.7642,-15.5 475.7641,-12.0001 475.7642,-19.0001"/>
</g>
</g>
</svg>
