<?xml version="1.0" encoding="UTF-8" standalone="no"?>
<!DOCTYPE svg PUBLIC "-//W3C//DTD SVG 1.1//EN"
 "http://www.w3.org/Graphics/SVG/1.1/DTD/svg11.dtd">
<!-- Generated by graphviz version 2.40.1 (20161225.0304)
 -->
<!-- Title: FloDisplayBarSwitch Pages: 1 -->
<svg width="1061pt" height="1121pt"
 viewBox="0.00 0.00 1060.50 1121.00" xmlns="http://www.w3.org/2000/svg" xmlns:xlink="http://www.w3.org/1999/xlink">
<g id="graph0" class="graph" transform="scale(1 1) rotate(0) translate(4 1117)">
<title>FloDisplayBarSwitch</title>
<polygon fill="#ffffff" stroke="transparent" points="-4,4 -4,-1117 1056.5,-1117 1056.5,4 -4,4"/>
<!-- Node3 -->
<g id="node1" class="node">
<title>Node3</title>
<polygon fill="#bfbfbf" stroke="#000000" points="729,-.5 729,-79.5 872,-79.5 872,-.5 729,-.5"/>
<text text-anchor="middle" x="800.5" y="-67.5" font-family="Helvetica,sans-Serif" font-size="10.00" fill="#000000">FloDisplayBarSwitch</text>
<polyline fill="none" stroke="#000000" points="729,-60.5 872,-60.5 "/>
<text text-anchor="middle" x="800.5" y="-48.5" font-family="Helvetica,sans-Serif" font-size="10.00" fill="#000000"> </text>
<polyline fill="none" stroke="#000000" points="729,-41.5 872,-41.5 "/>
<text text-anchor="start" x="737" y="-29.5" font-family="Helvetica,sans-Serif" font-size="10.00" fill="#000000">+ FloDisplayBarSwitch()</text>
<text text-anchor="start" x="737" y="-18.5" font-family="Helvetica,sans-Serif" font-size="10.00" fill="#000000">+ ~FloDisplayBarSwitch()</text>
<text text-anchor="start" x="737" y="-7.5" font-family="Helvetica,sans-Serif" font-size="10.00" fill="#000000">+ Draw()</text>
</g>
<!-- Node4 -->
<g id="node2" class="node">
<title>Node4</title>
<g id="a_node2"><a xlink:href="classFloDisplayBar.html" target="_top" xlink:title="{FloDisplayBar\n||+ FloDisplayBar()\l+ Draw()\l}">
<polygon fill="#ffffff" stroke="#000000" points="749,-117.5 749,-185.5 852,-185.5 852,-117.5 749,-117.5"/>
<text text-anchor="middle" x="800.5" y="-173.5" font-family="Helvetica,sans-Serif" font-size="10.00" fill="#000000">FloDisplayBar</text>
<polyline fill="none" stroke="#000000" points="749,-166.5 852,-166.5 "/>
<text text-anchor="middle" x="800.5" y="-154.5" font-family="Helvetica,sans-Serif" font-size="10.00" fill="#000000"> </text>
<polyline fill="none" stroke="#000000" points="749,-147.5 852,-147.5 "/>
<text text-anchor="start" x="757" y="-135.5" font-family="Helvetica,sans-Serif" font-size="10.00" fill="#000000">+ FloDisplayBar()</text>
<text text-anchor="start" x="757" y="-124.5" font-family="Helvetica,sans-Serif" font-size="10.00" fill="#000000">+ Draw()</text>
</a>
</g>
</g>
<!-- Node4&#45;&gt;Node3 -->
<g id="edge1" class="edge">
<title>Node4&#45;&gt;Node3</title>
<path fill="none" stroke="#191970" d="M800.5,-107.3732C800.5,-98.2436 800.5,-88.6788 800.5,-79.718"/>
<polygon fill="none" stroke="#191970" points="797.0001,-107.4404 800.5,-117.4405 804.0001,-107.4405 797.0001,-107.4404"/>
</g>
<!-- Node5 -->
<g id="node3" class="node">
<title>Node5</title>
<g id="a_node3"><a xlink:href="classFloDisplay.html" target="_top" xlink:title="{FloDisplay\n||+ FloDisplay()\l+ ~FloDisplay()\l+ Draw()\l+ GetFloDisplayType()\l+ SetShow()\l}">
<polygon fill="#ffffff" stroke="#000000" points="522.5,-244.5 522.5,-345.5 648.5,-345.5 648.5,-244.5 522.5,-244.5"/>
<text text-anchor="middle" x="585.5" y="-333.5" font-family="Helvetica,sans-Serif" font-size="10.00" fill="#000000">FloDisplay</text>
<polyline fill="none" stroke="#000000" points="522.5,-326.5 648.5,-326.5 "/>
<text text-anchor="middle" x="585.5" y="-314.5" font-family="Helvetica,sans-Serif" font-size="10.00" fill="#000000"> </text>
<polyline fill="none" stroke="#000000" points="522.5,-307.5 648.5,-307.5 "/>
<text text-anchor="start" x="530.5" y="-295.5" font-family="Helvetica,sans-Serif" font-size="10.00" fill="#000000">+ FloDisplay()</text>
<text text-anchor="start" x="530.5" y="-284.5" font-family="Helvetica,sans-Serif" font-size="10.00" fill="#000000">+ ~FloDisplay()</text>
<text text-anchor="start" x="530.5" y="-273.5" font-family="Helvetica,sans-Serif" font-size="10.00" fill="#000000">+ Draw()</text>
<text text-anchor="start" x="530.5" y="-262.5" font-family="Helvetica,sans-Serif" font-size="10.00" fill="#000000">+ GetFloDisplayType()</text>
<text text-anchor="start" x="530.5" y="-251.5" font-family="Helvetica,sans-Serif" font-size="10.00" fill="#000000">+ SetShow()</text>
</a>
</g>
</g>
<!-- Node5&#45;&gt;Node4 -->
<g id="edge2" class="edge">
<title>Node5&#45;&gt;Node4</title>
<path fill="none" stroke="#191970" d="M656.981,-243.3121C675.5438,-230.2389 695.6286,-216.3969 714.5,-204 725.4653,-196.7968 737.387,-189.3081 748.7636,-182.3195"/>
<polygon fill="none" stroke="#191970" points="654.7157,-240.6272 648.569,-249.2567 658.7556,-246.3438 654.7157,-240.6272"/>
</g>
<!-- Node5&#45;&gt;Node5 -->
<g id="edge27" class="edge">
<title>Node5&#45;&gt;Node5</title>
<path fill="none" stroke="#404040" d="M648.6681,-307.896C659.2194,-306.0916 666.5,-301.793 666.5,-295 666.5,-291.179 664.1964,-288.1471 660.3028,-285.9045"/>
<polygon fill="none" stroke="#404040" points="660.075,-285.8301 653.1295,-287.7693 648.6681,-282.104 655.6136,-280.1648 660.075,-285.8301"/>
<text text-anchor="middle" x="683.5" y="-292.5" font-family="Helvetica,sans-Serif" font-size="10.00" fill="#000000"> +next</text>
</g>
<!-- Node6 -->
<g id="node4" class="node">
<title>Node6</title>
<polygon fill="#ffffff" stroke="#bfbfbf" points="439.5,-1055.5 439.5,-1112.5 477.5,-1112.5 477.5,-1055.5 439.5,-1055.5"/>
<text text-anchor="middle" x="458.5" y="-1100.5" font-family="Helvetica,sans-Serif" font-size="10.00" fill="#000000">char</text>
<polyline fill="none" stroke="#bfbfbf" points="439.5,-1093.5 477.5,-1093.5 "/>
<text text-anchor="middle" x="458.5" y="-1081.5" font-family="Helvetica,sans-Serif" font-size="10.00" fill="#000000"> </text>
<polyline fill="none" stroke="#bfbfbf" points="439.5,-1074.5 477.5,-1074.5 "/>
<text text-anchor="middle" x="458.5" y="-1062.5" font-family="Helvetica,sans-Serif" font-size="10.00" fill="#000000"> </text>
</g>
<!-- Node6&#45;&gt;Node3 -->
<g id="edge33" class="edge">
<title>Node6&#45;&gt;Node3</title>
<path fill="none" stroke="#404040" d="M452.3745,-1055.3768C432.2327,-961.2447 369.2876,-666.9711 368.5,-662 358.465,-598.6648 353.5,-582.6253 353.5,-518.5 353.5,-518.5 353.5,-518.5 353.5,-151.5 353.5,-77.5041 587.0166,-52.2249 716.4883,-43.8958"/>
<polygon fill="none" stroke="#404040" points="716.7046,-43.8825 722.4462,-39.5197 728.6817,-43.1416 722.9401,-47.5044 716.7046,-43.8825"/>
<text text-anchor="middle" x="382" y="-516" font-family="Helvetica,sans-Serif" font-size="10.00" fill="#000000"> +calibrate</text>
</g>
<!-- Node6&#45;&gt;Node4 -->
<g id="edge28" class="edge">
<title>Node6&#45;&gt;Node4</title>
<path fill="none" stroke="#404040" d="M477.5766,-1055.8978C481.401,-1049.7861 485.2408,-1043.2701 488.5,-1037 499.8056,-1015.2498 500.9524,-1008.9745 509.5,-986 562.4282,-843.7376 584.5312,-810.1656 617.5,-662 629.1626,-609.5868 618.3487,-594.0596 631.5,-542 654.4632,-451.1 675.7991,-433.4893 709.5,-346 726.8894,-300.8563 726.9615,-287.8009 747.5,-244 754.9611,-228.0882 764.1789,-211.2545 772.8237,-196.3718"/>
<polygon fill="none" stroke="#404040" points="772.8904,-196.2585 772.4913,-189.0585 778.9839,-185.9207 779.3831,-193.1208 772.8904,-196.2585"/>
<text text-anchor="middle" x="654.5" y="-574" font-family="Helvetica,sans-Serif" font-size="10.00" fill="#000000"> +marks</text>
<text text-anchor="middle" x="654.5" y="-563" font-family="Helvetica,sans-Serif" font-size="10.00" fill="#000000">+dbscale</text>
</g>
<!-- Node6&#45;&gt;Node5 -->
<g id="edge3" class="edge">
<title>Node6&#45;&gt;Node5</title>
<path fill="none" stroke="#404040" d="M466.0891,-1055.2223C467.6056,-1049.2142 469.1468,-1042.9105 470.5,-1037 491.7027,-944.3884 520.7589,-706.4281 555.5,-618 558.9283,-609.2737 563.6812,-608.9418 566.5,-600 591.9594,-519.2387 593.058,-420.623 590.2758,-357.8099"/>
<polygon fill="none" stroke="#404040" points="590.2717,-357.7256 585.9776,-351.9324 589.6737,-345.7405 593.9677,-351.5338 590.2717,-357.7256"/>
<text text-anchor="middle" x="586.5" y="-648.5" font-family="Helvetica,sans-Serif" font-size="10.00" fill="#000000"> +forceshow</text>
<text text-anchor="middle" x="586.5" y="-637.5" font-family="Helvetica,sans-Serif" font-size="10.00" fill="#000000">+show</text>
<text text-anchor="middle" x="586.5" y="-626.5" font-family="Helvetica,sans-Serif" font-size="10.00" fill="#000000">+title</text>
</g>
<!-- Node7 -->
<g id="node5" class="node">
<title>Node7</title>
<g id="a_node5"><a xlink:href="classFloFont.html" target="_top" xlink:title="{FloFont\n||+ FloFont()\l+ ~FloFont()\l}">
<polygon fill="#ffffff" stroke="#000000" points="637,-868 637,-936 716,-936 716,-868 637,-868"/>
<text text-anchor="middle" x="676.5" y="-924" font-family="Helvetica,sans-Serif" font-size="10.00" fill="#000000">FloFont</text>
<polyline fill="none" stroke="#000000" points="637,-917 716,-917 "/>
<text text-anchor="middle" x="676.5" y="-905" font-family="Helvetica,sans-Serif" font-size="10.00" fill="#000000"> </text>
<polyline fill="none" stroke="#000000" points="637,-898 716,-898 "/>
<text text-anchor="start" x="645" y="-886" font-family="Helvetica,sans-Serif" font-size="10.00" fill="#000000">+ FloFont()</text>
<text text-anchor="start" x="645" y="-875" font-family="Helvetica,sans-Serif" font-size="10.00" fill="#000000">+ ~FloFont()</text>
</a>
</g>
</g>
<!-- Node6&#45;&gt;Node7 -->
<g id="edge5" class="edge">
<title>Node6&#45;&gt;Node7</title>
<path fill="none" stroke="#404040" d="M477.7297,-1082.7873C508.8687,-1079.8761 570.7416,-1070.041 609.5,-1037 624.2142,-1024.4564 644.2696,-981.4013 658.5949,-947.2451"/>
<polygon fill="none" stroke="#404040" points="658.6342,-947.15 657.229,-940.0771 663.2174,-936.0597 664.6225,-943.1326 658.6342,-947.15"/>
<text text-anchor="middle" x="660" y="-1023.5" font-family="Helvetica,sans-Serif" font-size="10.00" fill="#000000"> +filename</text>
<text text-anchor="middle" x="660" y="-1012.5" font-family="Helvetica,sans-Serif" font-size="10.00" fill="#000000">+name</text>
</g>
<!-- Node13 -->
<g id="node11" class="node">
<title>Node13</title>
<g id="a_node11"><a xlink:href="classUserVariable.html" target="_top" xlink:title="{UserVariable\n||+ UserVariable()\l+ ~UserVariable()\l+ RaisePrecision()\l+ operator\&gt;()\l+ operator==()\l+ operator!=()\l+ operator+=()\l+ GetDelta()\l+ operator&#45;=()\l+ operator*=()\land 18 more...\l}">
<polygon fill="#ffffff" stroke="#000000" points="0,-818.5 0,-985.5 107,-985.5 107,-818.5 0,-818.5"/>
<text text-anchor="middle" x="53.5" y="-973.5" font-family="Helvetica,sans-Serif" font-size="10.00" fill="#000000">UserVariable</text>
<polyline fill="none" stroke="#000000" points="0,-966.5 107,-966.5 "/>
<text text-anchor="middle" x="53.5" y="-954.5" font-family="Helvetica,sans-Serif" font-size="10.00" fill="#000000"> </text>
<polyline fill="none" stroke="#000000" points="0,-947.5 107,-947.5 "/>
<text text-anchor="start" x="8" y="-935.5" font-family="Helvetica,sans-Serif" font-size="10.00" fill="#000000">+ UserVariable()</text>
<text text-anchor="start" x="8" y="-924.5" font-family="Helvetica,sans-Serif" font-size="10.00" fill="#000000">+ ~UserVariable()</text>
<text text-anchor="start" x="8" y="-913.5" font-family="Helvetica,sans-Serif" font-size="10.00" fill="#000000">+ RaisePrecision()</text>
<text text-anchor="start" x="8" y="-902.5" font-family="Helvetica,sans-Serif" font-size="10.00" fill="#000000">+ operator&gt;()</text>
<text text-anchor="start" x="8" y="-891.5" font-family="Helvetica,sans-Serif" font-size="10.00" fill="#000000">+ operator==()</text>
<text text-anchor="start" x="8" y="-880.5" font-family="Helvetica,sans-Serif" font-size="10.00" fill="#000000">+ operator!=()</text>
<text text-anchor="start" x="8" y="-869.5" font-family="Helvetica,sans-Serif" font-size="10.00" fill="#000000">+ operator+=()</text>
<text text-anchor="start" x="8" y="-858.5" font-family="Helvetica,sans-Serif" font-size="10.00" fill="#000000">+ GetDelta()</text>
<text text-anchor="start" x="8" y="-847.5" font-family="Helvetica,sans-Serif" font-size="10.00" fill="#000000">+ operator&#45;=()</text>
<text text-anchor="start" x="8" y="-836.5" font-family="Helvetica,sans-Serif" font-size="10.00" fill="#000000">+ operator*=()</text>
<text text-anchor="start" x="8" y="-825.5" font-family="Helvetica,sans-Serif" font-size="10.00" fill="#000000">and 18 more...</text>
</a>
</g>
</g>
<!-- Node6&#45;&gt;Node13 -->
<g id="edge14" class="edge">
<title>Node6&#45;&gt;Node13</title>
<path fill="none" stroke="#404040" d="M439.1829,-1081.2569C381.7356,-1073.0063 214.5755,-1048.2927 192.5,-1037 182.912,-1032.0953 148.1355,-998.3176 115.7693,-965.7799"/>
<polygon fill="none" stroke="#404040" points="115.6195,-965.629 108.5544,-964.1852 107.1698,-957.1083 114.2349,-958.552 115.6195,-965.629"/>
<text text-anchor="middle" x="212" y="-1029" font-family="Helvetica,sans-Serif" font-size="10.00" fill="#000000"> +value</text>
<text text-anchor="middle" x="212" y="-1018" font-family="Helvetica,sans-Serif" font-size="10.00" fill="#000000">+data</text>
<text text-anchor="middle" x="212" y="-1007" font-family="Helvetica,sans-Serif" font-size="10.00" fill="#000000">+name</text>
</g>
<!-- Node15 -->
<g id="node13" class="node">
<title>Node15</title>
<g id="a_node13"><a xlink:href="classEventParameter.html" target="_top" xlink:title="{EventParameter\n||+ EventParameter()\l}">
<polygon fill="#ffffff" stroke="#000000" points="177,-873.5 177,-930.5 290,-930.5 290,-873.5 177,-873.5"/>
<text text-anchor="middle" x="233.5" y="-918.5" font-family="Helvetica,sans-Serif" font-size="10.00" fill="#000000">EventParameter</text>
<polyline fill="none" stroke="#000000" points="177,-911.5 290,-911.5 "/>
<text text-anchor="middle" x="233.5" y="-899.5" font-family="Helvetica,sans-Serif" font-size="10.00" fill="#000000"> </text>
<polyline fill="none" stroke="#000000" points="177,-892.5 290,-892.5 "/>
<text text-anchor="start" x="185" y="-880.5" font-family="Helvetica,sans-Serif" font-size="10.00" fill="#000000">+ EventParameter()</text>
</a>
</g>
</g>
<!-- Node6&#45;&gt;Node15 -->
<g id="edge18" class="edge">
<title>Node6&#45;&gt;Node15</title>
<path fill="none" stroke="#404040" d="M439.2814,-1075.41C420.2831,-1066.637 390.6397,-1052.1837 366.5,-1037 334.8222,-1017.0749 326.1644,-1012.2584 299.5,-986 285.5422,-972.2547 271.8667,-955.5521 260.6167,-940.6725"/>
<polygon fill="none" stroke="#404040" points="260.3869,-940.3623 253.6007,-937.9234 253.242,-930.7212 260.0282,-933.1601 260.3869,-940.3623"/>
<text text-anchor="middle" x="386.5" y="-1018" font-family="Helvetica,sans-Serif" font-size="10.00" fill="#000000"> +name</text>
</g>
<!-- Node17 -->
<g id="node15" class="node">
<title>Node17</title>
<g id="a_node15"><a xlink:href="classCfgMathOperation.html" target="_top" xlink:title="{CfgMathOperation\n||+ CfgMathOperation()\l}">
<polygon fill="#ffffff" stroke="#000000" points="381.5,-542.5 381.5,-599.5 505.5,-599.5 505.5,-542.5 381.5,-542.5"/>
<text text-anchor="middle" x="443.5" y="-587.5" font-family="Helvetica,sans-Serif" font-size="10.00" fill="#000000">CfgMathOperation</text>
<polyline fill="none" stroke="#000000" points="381.5,-580.5 505.5,-580.5 "/>
<text text-anchor="middle" x="443.5" y="-568.5" font-family="Helvetica,sans-Serif" font-size="10.00" fill="#000000"> </text>
<polyline fill="none" stroke="#000000" points="381.5,-561.5 505.5,-561.5 "/>
<text text-anchor="start" x="389.5" y="-549.5" font-family="Helvetica,sans-Serif" font-size="10.00" fill="#000000">+ CfgMathOperation()</text>
</a>
</g>
</g>
<!-- Node6&#45;&gt;Node17 -->
<g id="edge24" class="edge">
<title>Node6&#45;&gt;Node17</title>
<path fill="none" stroke="#404040" d="M457.6614,-1055.3197C455.1434,-969.2059 447.642,-712.6578 444.7015,-612.0922"/>
<polygon fill="none" stroke="#404040" points="444.6928,-611.7894 440.5191,-605.9089 444.3419,-599.7945 448.5156,-605.675 444.6928,-611.7894"/>
<text text-anchor="middle" x="478" y="-792" font-family="Helvetica,sans-Serif" font-size="10.00" fill="#000000"> +otype</text>
<text text-anchor="middle" x="478" y="-781" font-family="Helvetica,sans-Serif" font-size="10.00" fill="#000000">+operators</text>
</g>
<!-- Node7&#45;&gt;Node5 -->
<g id="edge4" class="edge">
<title>Node7&#45;&gt;Node5</title>
<path fill="none" stroke="#404040" d="M681.4281,-867.8668C689.7459,-803.478 703.6168,-659.956 681.5,-542 669.19,-476.3464 639.9639,-405.7139 616.9693,-356.8681"/>
<polygon fill="none" stroke="#404040" points="616.8863,-356.6939 610.6929,-353.0004 611.7202,-345.8628 617.9136,-349.5563 616.8863,-356.6939"/>
<text text-anchor="middle" x="705" y="-568.5" font-family="Helvetica,sans-Serif" font-size="10.00" fill="#000000"> +font</text>
</g>
<!-- Node7&#45;&gt;Node7 -->
<g id="edge7" class="edge">
<title>Node7&#45;&gt;Node7</title>
<path fill="none" stroke="#404040" d="M716.0057,-922.7834C726.2644,-921.5059 734,-914.5781 734,-902 734,-894.7283 731.4146,-889.345 727.2508,-885.8503"/>
<polygon fill="none" stroke="#404040" points="727.1007,-885.7885 720.0293,-887.2009 716.0057,-881.2166 723.0772,-879.8042 727.1007,-885.7885"/>
<text text-anchor="middle" x="751" y="-899.5" font-family="Helvetica,sans-Serif" font-size="10.00" fill="#000000"> +next</text>
</g>
<!-- Node8 -->
<g id="node6" class="node">
<title>Node8</title>
<polygon fill="#ffffff" stroke="#bfbfbf" points="675.5,-1055.5 675.5,-1112.5 743.5,-1112.5 743.5,-1055.5 675.5,-1055.5"/>
<text text-anchor="middle" x="709.5" y="-1100.5" font-family="Helvetica,sans-Serif" font-size="10.00" fill="#000000">TTF_Font *</text>
<polyline fill="none" stroke="#bfbfbf" points="675.5,-1093.5 743.5,-1093.5 "/>
<text text-anchor="middle" x="709.5" y="-1081.5" font-family="Helvetica,sans-Serif" font-size="10.00" fill="#000000"> </text>
<polyline fill="none" stroke="#bfbfbf" points="675.5,-1074.5 743.5,-1074.5 "/>
<text text-anchor="middle" x="709.5" y="-1062.5" font-family="Helvetica,sans-Serif" font-size="10.00" fill="#000000"> </text>
</g>
<!-- Node8&#45;&gt;Node7 -->
<g id="edge6" class="edge">
<title>Node8&#45;&gt;Node7</title>
<path fill="none" stroke="#404040" d="M704.2711,-1055.1616C699.0591,-1026.4167 690.973,-981.821 684.8677,-948.1494"/>
<polygon fill="none" stroke="#404040" points="684.858,-948.0954 679.8517,-942.9053 682.717,-936.2879 687.7234,-941.478 684.858,-948.0954"/>
<text text-anchor="middle" x="717" y="-1018" font-family="Helvetica,sans-Serif" font-size="10.00" fill="#000000"> +font</text>
</g>
<!-- Node9 -->
<g id="node7" class="node">
<title>Node9</title>
<polygon fill="#ffffff" stroke="#bfbfbf" points="807,-1055.5 807,-1112.5 836,-1112.5 836,-1055.5 807,-1055.5"/>
<text text-anchor="middle" x="821.5" y="-1100.5" font-family="Helvetica,sans-Serif" font-size="10.00" fill="#000000">int</text>
<polyline fill="none" stroke="#bfbfbf" points="807,-1093.5 836,-1093.5 "/>
<text text-anchor="middle" x="821.5" y="-1081.5" font-family="Helvetica,sans-Serif" font-size="10.00" fill="#000000"> </text>
<polyline fill="none" stroke="#bfbfbf" points="807,-1074.5 836,-1074.5 "/>
<text text-anchor="middle" x="821.5" y="-1062.5" font-family="Helvetica,sans-Serif" font-size="10.00" fill="#000000"> </text>
</g>
<!-- Node9&#45;&gt;Node3 -->
<g id="edge34" class="edge">
<title>Node9&#45;&gt;Node3</title>
<path fill="none" stroke="#404040" d="M836.1567,-1078.6691C881.5062,-1061.1302 1016.5,-1000.6374 1016.5,-902 1016.5,-902 1016.5,-902 1016.5,-151.5 1016.5,-89.2857 944.8695,-61.7498 884.1078,-49.5837"/>
<polygon fill="none" stroke="#404040" points="883.9216,-49.549 877.2901,-52.3816 872.1248,-47.3497 878.7563,-44.5171 883.9216,-49.549"/>
<text text-anchor="middle" x="1034.5" y="-516" font-family="Helvetica,sans-Serif" font-size="10.00" fill="#000000"> +color</text>
</g>
<!-- Node9&#45;&gt;Node4 -->
<g id="edge30" class="edge">
<title>Node9&#45;&gt;Node4</title>
<path fill="none" stroke="#404040" d="M834.7665,-1055.3792C849.8776,-1020.1028 872.5,-957.9484 872.5,-902 872.5,-902 872.5,-902 872.5,-369.5 872.5,-294.6652 875.8736,-270.4733 841.5,-204 840.0824,-201.2585 838.5147,-198.5181 836.8438,-195.8082"/>
<polygon fill="none" stroke="#404040" points="836.6643,-195.5403 830.0017,-192.7818 829.9855,-185.5707 836.6481,-188.3292 836.6643,-195.5403"/>
<text text-anchor="middle" x="901.5" y="-568.5" font-family="Helvetica,sans-Serif" font-size="10.00" fill="#000000"> +thickness</text>
</g>
<!-- Node9&#45;&gt;Node5 -->
<g id="edge9" class="edge">
<title>Node9&#45;&gt;Node5</title>
<path fill="none" stroke="#404040" d="M821.179,-1055.4341C818.8692,-956.4955 800.972,-622.0012 666.5,-393 658.9153,-380.0835 649.6602,-367.1288 640.1531,-355.0636"/>
<polygon fill="none" stroke="#404040" points="640.0445,-354.9292 633.1621,-352.7768 632.5018,-345.596 639.3842,-347.7483 640.0445,-354.9292"/>
<text text-anchor="middle" x="787" y="-654" font-family="Helvetica,sans-Serif" font-size="10.00" fill="#000000"> +ypos</text>
<text text-anchor="middle" x="787" y="-643" font-family="Helvetica,sans-Serif" font-size="10.00" fill="#000000">+id</text>
<text text-anchor="middle" x="787" y="-632" font-family="Helvetica,sans-Serif" font-size="10.00" fill="#000000">+xpos</text>
<text text-anchor="middle" x="787" y="-621" font-family="Helvetica,sans-Serif" font-size="10.00" fill="#000000">+iid</text>
</g>
<!-- Node9&#45;&gt;Node7 -->
<g id="edge8" class="edge">
<title>Node9&#45;&gt;Node7</title>
<path fill="none" stroke="#404040" d="M806.8704,-1073.8763C794.6879,-1065.0143 777.3223,-1051.3434 764.5,-1037 739.8085,-1009.3796 717.1153,-974.2116 700.9597,-946.6949"/>
<polygon fill="none" stroke="#404040" points="700.8859,-946.5671 694.4206,-943.3732 694.8822,-936.1768 701.3475,-939.3708 700.8859,-946.5671"/>
<text text-anchor="middle" x="780" y="-1018" font-family="Helvetica,sans-Serif" font-size="10.00" fill="#000000"> +size</text>
</g>
<!-- Node9&#45;&gt;Node15 -->
<g id="edge19" class="edge">
<title>Node9&#45;&gt;Node15</title>
<path fill="none" stroke="#404040" d="M806.8872,-1076.2654C793.2277,-1069.4257 772.0585,-1059.8089 752.5,-1055 660.2436,-1032.3167 633.1765,-1052.8272 539.5,-1037 481.1474,-1027.141 468.4331,-1016.0819 410.5,-1004 361.5749,-993.7967 342.5504,-1011.3859 299.5,-986 281.4151,-975.3357 266.4188,-957.6775 255.3158,-941.2961"/>
<polygon fill="none" stroke="#404040" points="255.0647,-940.9043 248.4591,-938.0119 248.5885,-930.8019 255.1941,-933.6944 255.0647,-940.9043"/>
<text text-anchor="middle" x="572.5" y="-1018" font-family="Helvetica,sans-Serif" font-size="10.00" fill="#000000"> +max_index</text>
</g>
<!-- Node9&#45;&gt;Node17 -->
<g id="edge25" class="edge">
<title>Node9&#45;&gt;Node17</title>
<path fill="none" stroke="#404040" d="M822.0282,-1055.2048C821.8409,-1004.5777 816.3934,-897.4592 777.5,-818 724.2664,-709.2438 694.7709,-682.8259 592.5,-618 569.8547,-603.6459 542.483,-593.3695 517.411,-586.1618"/>
<polygon fill="none" stroke="#404040" points="517.2761,-586.1251 510.4344,-588.4034 505.6999,-582.9643 512.5416,-580.6859 517.2761,-586.1251"/>
<text text-anchor="middle" x="793" y="-786.5" font-family="Helvetica,sans-Serif" font-size="10.00" fill="#000000"> +numops</text>
</g>
<!-- Node10 -->
<g id="node8" class="node">
<title>Node10</title>
<g id="a_node8"><a xlink:href="classParsedExpression.html" target="_top" xlink:title="{ParsedExpression\n||+ ParsedExpression()\l+ ~ParsedExpression()\l+ Evaluate()\l+ IsStatic()\l+ Print()\l}">
<polygon fill="#ffffff" stroke="#000000" points="405,-393.5 405,-494.5 534,-494.5 534,-393.5 405,-393.5"/>
<text text-anchor="middle" x="469.5" y="-482.5" font-family="Helvetica,sans-Serif" font-size="10.00" fill="#000000">ParsedExpression</text>
<polyline fill="none" stroke="#000000" points="405,-475.5 534,-475.5 "/>
<text text-anchor="middle" x="469.5" y="-463.5" font-family="Helvetica,sans-Serif" font-size="10.00" fill="#000000"> </text>
<polyline fill="none" stroke="#000000" points="405,-456.5 534,-456.5 "/>
<text text-anchor="start" x="413" y="-444.5" font-family="Helvetica,sans-Serif" font-size="10.00" fill="#000000">+ ParsedExpression()</text>
<text text-anchor="start" x="413" y="-433.5" font-family="Helvetica,sans-Serif" font-size="10.00" fill="#000000">+ ~ParsedExpression()</text>
<text text-anchor="start" x="413" y="-422.5" font-family="Helvetica,sans-Serif" font-size="10.00" fill="#000000">+ Evaluate()</text>
<text text-anchor="start" x="413" y="-411.5" font-family="Helvetica,sans-Serif" font-size="10.00" fill="#000000">+ IsStatic()</text>
<text text-anchor="start" x="413" y="-400.5" font-family="Helvetica,sans-Serif" font-size="10.00" fill="#000000">+ Print()</text>
</a>
</g>
</g>
<!-- Node10&#45;&gt;Node3 -->
<g id="edge35" class="edge">
<title>Node10&#45;&gt;Node3</title>
<path fill="none" stroke="#404040" d="M470.6797,-393.2558C473.8848,-350.3053 483.8688,-288.7661 513.5,-244 563.6805,-168.1886 652.4174,-111.6127 717.9772,-77.5086"/>
<polygon fill="none" stroke="#404040" points="718.0172,-77.4882 721.5368,-71.1943 728.7002,-72.0224 725.1806,-78.3163 718.0172,-77.4882"/>
<text text-anchor="middle" x="575" y="-212.5" font-family="Helvetica,sans-Serif" font-size="10.00" fill="#000000"> +switchexp</text>
</g>
<!-- Node10&#45;&gt;Node5 -->
<g id="edge10" class="edge">
<title>Node10&#45;&gt;Node5</title>
<path fill="none" stroke="#404040" d="M509.0962,-393.1394C518.6151,-380.9125 528.8718,-367.738 538.6845,-355.1337"/>
<polygon fill="none" stroke="#404040" points="538.7105,-355.1002 539.2401,-347.9086 546.0823,-345.6314 545.5527,-352.823 538.7105,-355.1002"/>
<text text-anchor="middle" x="546.5" y="-367" font-family="Helvetica,sans-Serif" font-size="10.00" fill="#000000"> +exp</text>
</g>
<!-- Node11 -->
<g id="node9" class="node">
<title>Node11</title>
<g id="a_node9"><a xlink:href="classCfgToken.html" target="_top" xlink:title="{CfgToken\n||+ CfgToken()\l+ Print()\l+ Evaluate()\l}">
<polygon fill="#ffffff" stroke="#000000" points="251.5,-680.5 251.5,-759.5 331.5,-759.5 331.5,-680.5 251.5,-680.5"/>
<text text-anchor="middle" x="291.5" y="-747.5" font-family="Helvetica,sans-Serif" font-size="10.00" fill="#000000">CfgToken</text>
<polyline fill="none" stroke="#000000" points="251.5,-740.5 331.5,-740.5 "/>
<text text-anchor="middle" x="291.5" y="-728.5" font-family="Helvetica,sans-Serif" font-size="10.00" fill="#000000"> </text>
<polyline fill="none" stroke="#000000" points="251.5,-721.5 331.5,-721.5 "/>
<text text-anchor="start" x="259.5" y="-709.5" font-family="Helvetica,sans-Serif" font-size="10.00" fill="#000000">+ CfgToken()</text>
<text text-anchor="start" x="259.5" y="-698.5" font-family="Helvetica,sans-Serif" font-size="10.00" fill="#000000">+ Print()</text>
<text text-anchor="start" x="259.5" y="-687.5" font-family="Helvetica,sans-Serif" font-size="10.00" fill="#000000">+ Evaluate()</text>
</a>
</g>
</g>
<!-- Node11&#45;&gt;Node10 -->
<g id="edge11" class="edge">
<title>Node11&#45;&gt;Node10</title>
<path fill="none" stroke="#404040" d="M289.2506,-680.4003C288.7556,-635.3883 294.4447,-561.8435 331.5,-513 347.0826,-492.4602 370.4552,-477.6117 393.5575,-467.0783"/>
<polygon fill="none" stroke="#404040" points="393.8098,-466.9703 397.7515,-460.9319 404.8415,-462.248 400.8998,-468.2864 393.8098,-466.9703"/>
<text text-anchor="middle" x="331.5" y="-568.5" font-family="Helvetica,sans-Serif" font-size="10.00" fill="#000000"> +start</text>
</g>
<!-- Node11&#45;&gt;Node17 -->
<g id="edge23" class="edge">
<title>Node11&#45;&gt;Node17</title>
<path fill="none" stroke="#404040" d="M329.9347,-680.347C348.6162,-661.2897 371.5161,-638.2444 392.5,-618 395.912,-614.7083 399.4809,-611.3172 403.0777,-607.9353"/>
<polygon fill="none" stroke="#404040" points="403.228,-607.7952 404.8867,-600.7774 412.0026,-599.6094 410.3439,-606.6271 403.228,-607.7952"/>
<text text-anchor="middle" x="418.5" y="-637.5" font-family="Helvetica,sans-Serif" font-size="10.00" fill="#000000"> +operand</text>
</g>
<!-- Node12 -->
<g id="node10" class="node">
<title>Node12</title>
<polygon fill="#ffffff" stroke="#bfbfbf" points="308.5,-873.5 308.5,-930.5 392.5,-930.5 392.5,-873.5 308.5,-873.5"/>
<text text-anchor="middle" x="350.5" y="-918.5" font-family="Helvetica,sans-Serif" font-size="10.00" fill="#000000">CfgTokenType</text>
<polyline fill="none" stroke="#bfbfbf" points="308.5,-911.5 392.5,-911.5 "/>
<text text-anchor="middle" x="350.5" y="-899.5" font-family="Helvetica,sans-Serif" font-size="10.00" fill="#000000"> </text>
<polyline fill="none" stroke="#bfbfbf" points="308.5,-892.5 392.5,-892.5 "/>
<text text-anchor="middle" x="350.5" y="-880.5" font-family="Helvetica,sans-Serif" font-size="10.00" fill="#000000"> </text>
</g>
<!-- Node12&#45;&gt;Node11 -->
<g id="edge12" class="edge">
<title>Node12&#45;&gt;Node11</title>
<path fill="none" stroke="#404040" d="M348.6063,-873.3207C346.1712,-847.6216 340.69,-809.2691 328.5,-778 327.5307,-775.5135 326.4487,-773.0193 325.2811,-770.5376"/>
<polygon fill="none" stroke="#404040" points="325.2337,-770.4463 318.9167,-766.9683 319.6976,-759.7996 326.0145,-763.2775 325.2337,-770.4463"/>
<text text-anchor="middle" x="349" y="-786.5" font-family="Helvetica,sans-Serif" font-size="10.00" fill="#000000"> +cvt</text>
</g>
<!-- Node13&#45;&gt;Node11 -->
<g id="edge13" class="edge">
<title>Node13&#45;&gt;Node11</title>
<path fill="none" stroke="#404040" d="M107.2086,-860.9287C147.527,-830.097 202.3281,-788.1903 241.6739,-758.1023"/>
<polygon fill="none" stroke="#404040" points="241.7935,-758.0109 244.1299,-751.1887 251.3258,-750.7214 248.9895,-757.5436 241.7935,-758.0109"/>
<text text-anchor="middle" x="229" y="-792" font-family="Helvetica,sans-Serif" font-size="10.00" fill="#000000"> +val</text>
<text text-anchor="middle" x="229" y="-781" font-family="Helvetica,sans-Serif" font-size="10.00" fill="#000000">+var</text>
</g>
<!-- Node13&#45;&gt;Node13 -->
<g id="edge16" class="edge">
<title>Node13&#45;&gt;Node13</title>
<path fill="none" stroke="#404040" d="M107.1322,-922.0656C117.5804,-919.7354 125,-913.0469 125,-902 125,-895.4409 122.3843,-890.4183 118.0721,-886.9322"/>
<polygon fill="none" stroke="#404040" points="118.0471,-886.9209 110.9275,-888.0659 107.1322,-881.9344 114.2518,-880.7893 118.0471,-886.9209"/>
<text text-anchor="middle" x="142" y="-899.5" font-family="Helvetica,sans-Serif" font-size="10.00" fill="#000000"> +next</text>
</g>
<!-- Node14 -->
<g id="node12" class="node">
<title>Node14</title>
<polygon fill="#ffffff" stroke="#bfbfbf" points="40,-1055.5 40,-1112.5 125,-1112.5 125,-1055.5 40,-1055.5"/>
<text text-anchor="middle" x="82.5" y="-1100.5" font-family="Helvetica,sans-Serif" font-size="10.00" fill="#000000">CoreDataType</text>
<polyline fill="none" stroke="#bfbfbf" points="40,-1093.5 125,-1093.5 "/>
<text text-anchor="middle" x="82.5" y="-1081.5" font-family="Helvetica,sans-Serif" font-size="10.00" fill="#000000"> </text>
<polyline fill="none" stroke="#bfbfbf" points="40,-1074.5 125,-1074.5 "/>
<text text-anchor="middle" x="82.5" y="-1062.5" font-family="Helvetica,sans-Serif" font-size="10.00" fill="#000000"> </text>
</g>
<!-- Node14&#45;&gt;Node13 -->
<g id="edge15" class="edge">
<title>Node14&#45;&gt;Node13</title>
<path fill="none" stroke="#404040" d="M62.1881,-1055.2512C59.0273,-1049.4526 56.2373,-1043.2206 54.5,-1037 51.0246,-1024.5559 48.9995,-1011.2114 47.9613,-997.9312"/>
<polygon fill="none" stroke="#404040" points="47.9518,-997.7617 43.6184,-991.9979 47.2721,-985.7809 51.6055,-991.5447 47.9518,-997.7617"/>
<text text-anchor="middle" x="71.5" y="-1018" font-family="Helvetica,sans-Serif" font-size="10.00" fill="#000000"> +type</text>
</g>
<!-- Node14&#45;&gt;Node15 -->
<g id="edge20" class="edge">
<title>Node14&#45;&gt;Node15</title>
<path fill="none" stroke="#404040" d="M86.4382,-1055.3999C90.1883,-1038.3799 97.4597,-1017.5333 111.5,-1004 130.3226,-985.8571 146.0407,-1000.9317 167.5,-986 184.4839,-974.1824 199.1992,-956.712 210.3978,-940.7601"/>
<polygon fill="none" stroke="#404040" points="210.5491,-940.5346 210.5722,-933.3235 217.2375,-930.5713 217.2144,-937.7824 210.5491,-940.5346"/>
<text text-anchor="middle" x="131.5" y="-1018" font-family="Helvetica,sans-Serif" font-size="10.00" fill="#000000"> +dtype</text>
</g>
<!-- Node15&#45;&gt;Node11 -->
<g id="edge17" class="edge">
<title>Node15&#45;&gt;Node11</title>
<path fill="none" stroke="#404040" d="M242.6903,-873.1616C251.3955,-845.8451 264.6627,-804.2137 275.1687,-771.2464"/>
<polygon fill="none" stroke="#404040" points="275.2572,-770.9686 273.2679,-764.0373 278.9009,-759.5351 280.8902,-766.4664 275.2572,-770.9686"/>
<text text-anchor="middle" x="301" y="-786.5" font-family="Helvetica,sans-Serif" font-size="10.00" fill="#000000"> +evparam</text>
</g>
<!-- Node16 -->
<g id="node14" class="node">
<title>Node16</title>
<polygon fill="#ffffff" stroke="#bfbfbf" points="216.5,-1055.5 216.5,-1112.5 254.5,-1112.5 254.5,-1055.5 216.5,-1055.5"/>
<text text-anchor="middle" x="235.5" y="-1100.5" font-family="Helvetica,sans-Serif" font-size="10.00" fill="#000000">long</text>
<polyline fill="none" stroke="#bfbfbf" points="216.5,-1093.5 254.5,-1093.5 "/>
<text text-anchor="middle" x="235.5" y="-1081.5" font-family="Helvetica,sans-Serif" font-size="10.00" fill="#000000"> </text>
<polyline fill="none" stroke="#bfbfbf" points="216.5,-1074.5 254.5,-1074.5 "/>
<text text-anchor="middle" x="235.5" y="-1062.5" font-family="Helvetica,sans-Serif" font-size="10.00" fill="#000000"> </text>
</g>
<!-- Node16&#45;&gt;Node15 -->
<g id="edge21" class="edge">
<title>Node16&#45;&gt;Node15</title>
<path fill="none" stroke="#404040" d="M235.1831,-1055.1616C234.851,-1024.943 234.3264,-977.2065 233.9512,-943.0602"/>
<polygon fill="none" stroke="#404040" points="233.9474,-942.7028 229.8816,-936.7471 233.8154,-930.7035 237.8812,-936.6592 233.9474,-942.7028"/>
<text text-anchor="middle" x="249" y="-1018" font-family="Helvetica,sans-Serif" font-size="10.00" fill="#000000"> +ofs</text>
</g>
<!-- Node17&#45;&gt;Node10 -->
<g id="edge22" class="edge">
<title>Node17&#45;&gt;Node10</title>
<path fill="none" stroke="#404040" d="M449.3349,-542.4987C451.5247,-531.8025 454.1089,-519.1796 456.6835,-506.6036"/>
<polygon fill="none" stroke="#404040" points="456.729,-506.3812 454.0137,-499.7008 459.1358,-494.625 461.8511,-501.3054 456.729,-506.3812"/>
<text text-anchor="middle" x="470" y="-516" font-family="Helvetica,sans-Serif" font-size="10.00" fill="#000000"> +ops</text>
</g>
<!-- Node17&#45;&gt;Node17 -->
<g id="edge26" class="edge">
<title>Node17&#45;&gt;Node17</title>
<path fill="none" stroke="#404040" d="M505.5546,-580.1019C516.1554,-578.8582 523.5,-575.8242 523.5,-571 523.5,-568.2864 521.1761,-566.1392 517.256,-564.5585"/>
<polygon fill="none" stroke="#404040" points="517.256,-564.5585 510.5185,-567.1288 505.5546,-561.8981 512.2921,-559.3278 517.256,-564.5585"/>
<text text-anchor="middle" x="540.5" y="-568.5" font-family="Helvetica,sans-Serif" font-size="10.00" fill="#000000"> +next</text>
</g>
<!-- Node18 -->
<g id="node16" class="node">
<title>Node18</title>
<polygon fill="#ffffff" stroke="#bfbfbf" points="918.5,-266.5 918.5,-323.5 956.5,-323.5 956.5,-266.5 918.5,-266.5"/>
<text text-anchor="middle" x="937.5" y="-311.5" font-family="Helvetica,sans-Serif" font-size="10.00" fill="#000000">float</text>
<polyline fill="none" stroke="#bfbfbf" points="918.5,-304.5 956.5,-304.5 "/>
<text text-anchor="middle" x="937.5" y="-292.5" font-family="Helvetica,sans-Serif" font-size="10.00" fill="#000000"> </text>
<polyline fill="none" stroke="#bfbfbf" points="918.5,-285.5 956.5,-285.5 "/>
<text text-anchor="middle" x="937.5" y="-273.5" font-family="Helvetica,sans-Serif" font-size="10.00" fill="#000000"> </text>
</g>
<!-- Node18&#45;&gt;Node3 -->
<g id="edge32" class="edge">
<title>Node18&#45;&gt;Node3</title>
<path fill="none" stroke="#404040" d="M944.8701,-266.2327C948.1886,-247.8682 949.9057,-223.8667 942.5,-204 925.6778,-158.8724 890.2299,-117.9078 858.9615,-88.2074"/>
<polygon fill="none" stroke="#404040" points="858.6419,-87.9109 851.523,-86.7616 849.8459,-79.7482 856.9648,-80.8975 858.6419,-87.9109"/>
<text text-anchor="middle" x="948.5" y="-149" font-family="Helvetica,sans-Serif" font-size="10.00" fill="#000000"> +cval</text>
</g>
<!-- Node18&#45;&gt;Node4 -->
<g id="edge29" class="edge">
<title>Node18&#45;&gt;Node4</title>
<path fill="none" stroke="#404040" d="M918.2622,-266.9335C904.7958,-248.1933 885.8204,-223.5029 866.5,-204 863.1189,-200.587 859.5203,-197.1864 855.8154,-193.8511"/>
<polygon fill="none" stroke="#404040" points="855.5143,-193.5898 848.3609,-192.6787 846.4507,-185.7252 853.6041,-186.6363 855.5143,-193.5898"/>
<text text-anchor="middle" x="912" y="-218" font-family="Helvetica,sans-Serif" font-size="10.00" fill="#000000"> +barscale</text>
<text text-anchor="middle" x="912" y="-207" font-family="Helvetica,sans-Serif" font-size="10.00" fill="#000000">+maxdb</text>
</g>
<!-- Node19 -->
<g id="node17" class="node">
<title>Node19</title>
<polygon fill="#ffffff" stroke="#bfbfbf" points="756.5,-266.5 756.5,-323.5 844.5,-323.5 844.5,-266.5 756.5,-266.5"/>
<text text-anchor="middle" x="800.5" y="-311.5" font-family="Helvetica,sans-Serif" font-size="10.00" fill="#000000">CfgOrientation</text>
<polyline fill="none" stroke="#bfbfbf" points="756.5,-304.5 844.5,-304.5 "/>
<text text-anchor="middle" x="800.5" y="-292.5" font-family="Helvetica,sans-Serif" font-size="10.00" fill="#000000"> </text>
<polyline fill="none" stroke="#bfbfbf" points="756.5,-285.5 844.5,-285.5 "/>
<text text-anchor="middle" x="800.5" y="-273.5" font-family="Helvetica,sans-Serif" font-size="10.00" fill="#000000"> </text>
</g>
<!-- Node19&#45;&gt;Node4 -->
<g id="edge31" class="edge">
<title>Node19&#45;&gt;Node4</title>
<path fill="none" stroke="#404040" d="M800.5,-266.3055C800.5,-246.7064 800.5,-220.3057 800.5,-197.7629"/>
<polygon fill="none" stroke="#404040" points="800.5001,-197.7037 796.5,-191.7038 800.5,-185.7037 804.5,-191.7037 800.5001,-197.7037"/>
<text text-anchor="middle" x="820.5" y="-212.5" font-family="Helvetica,sans-Serif" font-size="10.00" fill="#000000"> +orient</text>
</g>
</g>
</svg>
