<?xml version="1.0" encoding="UTF-8" standalone="no"?>
<!DOCTYPE svg PUBLIC "-//W3C//DTD SVG 1.1//EN"
 "http://www.w3.org/Graphics/SVG/1.1/DTD/svg11.dtd">
<!-- Generated by graphviz version 2.40.1 (20161225.0304)
 -->
<!-- Title: FloDisplayTextSwitch Pages: 1 -->
<svg width="808pt" height="983pt"
 viewBox="0.00 0.00 807.50 983.00" xmlns="http://www.w3.org/2000/svg" xmlns:xlink="http://www.w3.org/1999/xlink">
<g id="graph0" class="graph" transform="scale(1 1) rotate(0) translate(4 979)">
<title>FloDisplayTextSwitch</title>
<polygon fill="#ffffff" stroke="transparent" points="-4,4 -4,-979 803.5,-979 803.5,4 -4,4"/>
<!-- Node2 -->
<g id="node1" class="node">
<title>Node2</title>
<polygon fill="#bfbfbf" stroke="#000000" points="0,-.5 0,-68.5 139,-68.5 139,-.5 0,-.5"/>
<text text-anchor="middle" x="69.5" y="-56.5" font-family="Helvetica,sans-Serif" font-size="10.00" fill="#000000">FloDisplayTextSwitch</text>
<polyline fill="none" stroke="#000000" points="0,-49.5 139,-49.5 "/>
<text text-anchor="middle" x="69.5" y="-37.5" font-family="Helvetica,sans-Serif" font-size="10.00" fill="#000000"> </text>
<polyline fill="none" stroke="#000000" points="0,-30.5 139,-30.5 "/>
<text text-anchor="start" x="8" y="-18.5" font-family="Helvetica,sans-Serif" font-size="10.00" fill="#000000">+ FloDisplayTextSwitch()</text>
<text text-anchor="start" x="8" y="-7.5" font-family="Helvetica,sans-Serif" font-size="10.00" fill="#000000">+ Draw()</text>
</g>
<!-- Node3 -->
<g id="node2" class="node">
<title>Node3</title>
<g id="a_node2"><a xlink:href="classFloDisplay.html" target="_top" xlink:title="{FloDisplay\n||+ FloDisplay()\l+ ~FloDisplay()\l+ Draw()\l+ GetFloDisplayType()\l+ SetShow()\l}">
<polygon fill="#ffffff" stroke="#000000" points="141.5,-106.5 141.5,-207.5 267.5,-207.5 267.5,-106.5 141.5,-106.5"/>
<text text-anchor="middle" x="204.5" y="-195.5" font-family="Helvetica,sans-Serif" font-size="10.00" fill="#000000">FloDisplay</text>
<polyline fill="none" stroke="#000000" points="141.5,-188.5 267.5,-188.5 "/>
<text text-anchor="middle" x="204.5" y="-176.5" font-family="Helvetica,sans-Serif" font-size="10.00" fill="#000000"> </text>
<polyline fill="none" stroke="#000000" points="141.5,-169.5 267.5,-169.5 "/>
<text text-anchor="start" x="149.5" y="-157.5" font-family="Helvetica,sans-Serif" font-size="10.00" fill="#000000">+ FloDisplay()</text>
<text text-anchor="start" x="149.5" y="-146.5" font-family="Helvetica,sans-Serif" font-size="10.00" fill="#000000">+ ~FloDisplay()</text>
<text text-anchor="start" x="149.5" y="-135.5" font-family="Helvetica,sans-Serif" font-size="10.00" fill="#000000">+ Draw()</text>
<text text-anchor="start" x="149.5" y="-124.5" font-family="Helvetica,sans-Serif" font-size="10.00" fill="#000000">+ GetFloDisplayType()</text>
<text text-anchor="start" x="149.5" y="-113.5" font-family="Helvetica,sans-Serif" font-size="10.00" fill="#000000">+ SetShow()</text>
</a>
</g>
</g>
<!-- Node3&#45;&gt;Node2 -->
<g id="edge1" class="edge">
<title>Node3&#45;&gt;Node2</title>
<path fill="none" stroke="#191970" d="M141.1615,-99.5261C129.4617,-88.9097 117.5947,-78.1414 106.9733,-68.5036"/>
<polygon fill="none" stroke="#191970" points="139.0533,-102.3394 148.8109,-106.4673 143.7573,-97.1554 139.0533,-102.3394"/>
</g>
<!-- Node3&#45;&gt;Node3 -->
<g id="edge26" class="edge">
<title>Node3&#45;&gt;Node3</title>
<path fill="none" stroke="#404040" d="M267.6681,-168.8504C278.2194,-167.1923 285.5,-163.2422 285.5,-157 285.5,-153.4888 283.1964,-150.7028 279.3028,-148.642"/>
<polygon fill="none" stroke="#404040" points="279.1615,-148.5996 272.2648,-150.7057 267.6681,-145.1496 274.5648,-143.0435 279.1615,-148.5996"/>
<text text-anchor="middle" x="302.5" y="-154.5" font-family="Helvetica,sans-Serif" font-size="10.00" fill="#000000"> +next</text>
</g>
<!-- Node4 -->
<g id="node3" class="node">
<title>Node4</title>
<polygon fill="#ffffff" stroke="#bfbfbf" points="204.5,-917.5 204.5,-974.5 242.5,-974.5 242.5,-917.5 204.5,-917.5"/>
<text text-anchor="middle" x="223.5" y="-962.5" font-family="Helvetica,sans-Serif" font-size="10.00" fill="#000000">char</text>
<polyline fill="none" stroke="#bfbfbf" points="204.5,-955.5 242.5,-955.5 "/>
<text text-anchor="middle" x="223.5" y="-943.5" font-family="Helvetica,sans-Serif" font-size="10.00" fill="#000000"> </text>
<polyline fill="none" stroke="#bfbfbf" points="204.5,-936.5 242.5,-936.5 "/>
<text text-anchor="middle" x="223.5" y="-924.5" font-family="Helvetica,sans-Serif" font-size="10.00" fill="#000000"> </text>
</g>
<!-- Node4&#45;&gt;Node2 -->
<g id="edge27" class="edge">
<title>Node4&#45;&gt;Node2</title>
<path fill="none" stroke="#404040" d="M204.4109,-940.5084C167.3289,-929.7461 88.2383,-906.2939 77.5,-899 23.0352,-862.0054 16.5,-829.8408 16.5,-764 16.5,-764 16.5,-764 16.5,-157 16.5,-129.718 27.7099,-101.6202 39.8189,-79.2274"/>
<polygon fill="none" stroke="#404040" points="39.8606,-79.154 39.3479,-71.9611 45.7903,-68.7214 46.303,-75.9143 39.8606,-79.154"/>
<text text-anchor="middle" x="35" y="-436" font-family="Helvetica,sans-Serif" font-size="10.00" fill="#000000"> +text0</text>
<text text-anchor="middle" x="35" y="-425" font-family="Helvetica,sans-Serif" font-size="10.00" fill="#000000">+text1</text>
</g>
<!-- Node4&#45;&gt;Node3 -->
<g id="edge2" class="edge">
<title>Node4&#45;&gt;Node3</title>
<path fill="none" stroke="#404040" d="M218.6563,-917.4111C213.0271,-881.6485 204.5,-818.4837 204.5,-764 204.5,-764 204.5,-764 204.5,-306 204.5,-277.7508 204.5,-246.4889 204.5,-219.9252"/>
<polygon fill="none" stroke="#404040" points="204.5001,-219.6886 200.5,-213.6886 204.5,-207.6886 208.5,-213.6886 204.5001,-219.6886"/>
<text text-anchor="middle" x="235.5" y="-510.5" font-family="Helvetica,sans-Serif" font-size="10.00" fill="#000000"> +forceshow</text>
<text text-anchor="middle" x="235.5" y="-499.5" font-family="Helvetica,sans-Serif" font-size="10.00" fill="#000000">+show</text>
<text text-anchor="middle" x="235.5" y="-488.5" font-family="Helvetica,sans-Serif" font-size="10.00" fill="#000000">+title</text>
</g>
<!-- Node5 -->
<g id="node4" class="node">
<title>Node5</title>
<g id="a_node4"><a xlink:href="classFloFont.html" target="_top" xlink:title="{FloFont\n||+ FloFont()\l+ ~FloFont()\l}">
<polygon fill="#ffffff" stroke="#000000" points="45,-730 45,-798 124,-798 124,-730 45,-730"/>
<text text-anchor="middle" x="84.5" y="-786" font-family="Helvetica,sans-Serif" font-size="10.00" fill="#000000">FloFont</text>
<polyline fill="none" stroke="#000000" points="45,-779 124,-779 "/>
<text text-anchor="middle" x="84.5" y="-767" font-family="Helvetica,sans-Serif" font-size="10.00" fill="#000000"> </text>
<polyline fill="none" stroke="#000000" points="45,-760 124,-760 "/>
<text text-anchor="start" x="53" y="-748" font-family="Helvetica,sans-Serif" font-size="10.00" fill="#000000">+ FloFont()</text>
<text text-anchor="start" x="53" y="-737" font-family="Helvetica,sans-Serif" font-size="10.00" fill="#000000">+ ~FloFont()</text>
</a>
</g>
</g>
<!-- Node4&#45;&gt;Node5 -->
<g id="edge4" class="edge">
<title>Node4&#45;&gt;Node5</title>
<path fill="none" stroke="#404040" d="M204.4736,-940.2965C184.7129,-933.4658 154.1312,-920.2115 135.5,-899 113.5359,-873.994 100.6339,-838.5883 93.3034,-810.3094"/>
<polygon fill="none" stroke="#404040" points="93.2159,-809.946 87.9212,-805.0504 90.4038,-798.2801 95.6985,-803.1757 93.2159,-809.946"/>
<text text-anchor="middle" x="163" y="-885.5" font-family="Helvetica,sans-Serif" font-size="10.00" fill="#000000"> +filename</text>
<text text-anchor="middle" x="163" y="-874.5" font-family="Helvetica,sans-Serif" font-size="10.00" fill="#000000">+name</text>
</g>
<!-- Node11 -->
<g id="node10" class="node">
<title>Node11</title>
<g id="a_node10"><a xlink:href="classUserVariable.html" target="_top" xlink:title="{UserVariable\n||+ UserVariable()\l+ ~UserVariable()\l+ RaisePrecision()\l+ operator\&gt;()\l+ operator==()\l+ operator!=()\l+ operator+=()\l+ GetDelta()\l+ operator&#45;=()\l+ operator*=()\land 18 more...\l}">
<polygon fill="#ffffff" stroke="#000000" points="372,-680.5 372,-847.5 479,-847.5 479,-680.5 372,-680.5"/>
<text text-anchor="middle" x="425.5" y="-835.5" font-family="Helvetica,sans-Serif" font-size="10.00" fill="#000000">UserVariable</text>
<polyline fill="none" stroke="#000000" points="372,-828.5 479,-828.5 "/>
<text text-anchor="middle" x="425.5" y="-816.5" font-family="Helvetica,sans-Serif" font-size="10.00" fill="#000000"> </text>
<polyline fill="none" stroke="#000000" points="372,-809.5 479,-809.5 "/>
<text text-anchor="start" x="380" y="-797.5" font-family="Helvetica,sans-Serif" font-size="10.00" fill="#000000">+ UserVariable()</text>
<text text-anchor="start" x="380" y="-786.5" font-family="Helvetica,sans-Serif" font-size="10.00" fill="#000000">+ ~UserVariable()</text>
<text text-anchor="start" x="380" y="-775.5" font-family="Helvetica,sans-Serif" font-size="10.00" fill="#000000">+ RaisePrecision()</text>
<text text-anchor="start" x="380" y="-764.5" font-family="Helvetica,sans-Serif" font-size="10.00" fill="#000000">+ operator&gt;()</text>
<text text-anchor="start" x="380" y="-753.5" font-family="Helvetica,sans-Serif" font-size="10.00" fill="#000000">+ operator==()</text>
<text text-anchor="start" x="380" y="-742.5" font-family="Helvetica,sans-Serif" font-size="10.00" fill="#000000">+ operator!=()</text>
<text text-anchor="start" x="380" y="-731.5" font-family="Helvetica,sans-Serif" font-size="10.00" fill="#000000">+ operator+=()</text>
<text text-anchor="start" x="380" y="-720.5" font-family="Helvetica,sans-Serif" font-size="10.00" fill="#000000">+ GetDelta()</text>
<text text-anchor="start" x="380" y="-709.5" font-family="Helvetica,sans-Serif" font-size="10.00" fill="#000000">+ operator&#45;=()</text>
<text text-anchor="start" x="380" y="-698.5" font-family="Helvetica,sans-Serif" font-size="10.00" fill="#000000">+ operator*=()</text>
<text text-anchor="start" x="380" y="-687.5" font-family="Helvetica,sans-Serif" font-size="10.00" fill="#000000">and 18 more...</text>
</a>
</g>
</g>
<!-- Node4&#45;&gt;Node11 -->
<g id="edge13" class="edge">
<title>Node4&#45;&gt;Node11</title>
<path fill="none" stroke="#404040" d="M241.9746,-917.2541C254.5206,-899.9581 272.598,-878.8677 293.5,-866 317.97,-850.9357 333.3634,-862.791 361.3539,-848.1148"/>
<polygon fill="none" stroke="#404040" points="361.5725,-847.9814 364.61,-841.4412 371.8153,-841.7296 368.7778,-848.2698 361.5725,-847.9814"/>
<text text-anchor="middle" x="313" y="-891" font-family="Helvetica,sans-Serif" font-size="10.00" fill="#000000"> +value</text>
<text text-anchor="middle" x="313" y="-880" font-family="Helvetica,sans-Serif" font-size="10.00" fill="#000000">+data</text>
<text text-anchor="middle" x="313" y="-869" font-family="Helvetica,sans-Serif" font-size="10.00" fill="#000000">+name</text>
</g>
<!-- Node13 -->
<g id="node12" class="node">
<title>Node13</title>
<g id="a_node12"><a xlink:href="classEventParameter.html" target="_top" xlink:title="{EventParameter\n||+ EventParameter()\l}">
<polygon fill="#ffffff" stroke="#000000" points="549,-735.5 549,-792.5 662,-792.5 662,-735.5 549,-735.5"/>
<text text-anchor="middle" x="605.5" y="-780.5" font-family="Helvetica,sans-Serif" font-size="10.00" fill="#000000">EventParameter</text>
<polyline fill="none" stroke="#000000" points="549,-773.5 662,-773.5 "/>
<text text-anchor="middle" x="605.5" y="-761.5" font-family="Helvetica,sans-Serif" font-size="10.00" fill="#000000"> </text>
<polyline fill="none" stroke="#000000" points="549,-754.5 662,-754.5 "/>
<text text-anchor="start" x="557" y="-742.5" font-family="Helvetica,sans-Serif" font-size="10.00" fill="#000000">+ EventParameter()</text>
</a>
</g>
</g>
<!-- Node4&#45;&gt;Node13 -->
<g id="edge17" class="edge">
<title>Node4&#45;&gt;Node13</title>
<path fill="none" stroke="#404040" d="M242.8323,-940.3362C265.6201,-933.0799 303.9913,-919.0048 332.5,-899 348.9722,-887.4413 345.4622,-874.9206 363.5,-866 433.982,-831.1431 470.623,-885.9299 539.5,-848 558.0241,-837.799 573.1402,-820.0208 584.2092,-803.4389"/>
<polygon fill="none" stroke="#404040" points="584.5067,-802.9657 584.314,-795.7572 590.8939,-792.8067 591.0866,-800.0153 584.5067,-802.9657"/>
<text text-anchor="middle" x="383.5" y="-880" font-family="Helvetica,sans-Serif" font-size="10.00" fill="#000000"> +name</text>
</g>
<!-- Node15 -->
<g id="node14" class="node">
<title>Node15</title>
<g id="a_node14"><a xlink:href="classCfgMathOperation.html" target="_top" xlink:title="{CfgMathOperation\n||+ CfgMathOperation()\l}">
<polygon fill="#ffffff" stroke="#000000" points="333.5,-404.5 333.5,-461.5 457.5,-461.5 457.5,-404.5 333.5,-404.5"/>
<text text-anchor="middle" x="395.5" y="-449.5" font-family="Helvetica,sans-Serif" font-size="10.00" fill="#000000">CfgMathOperation</text>
<polyline fill="none" stroke="#000000" points="333.5,-442.5 457.5,-442.5 "/>
<text text-anchor="middle" x="395.5" y="-430.5" font-family="Helvetica,sans-Serif" font-size="10.00" fill="#000000"> </text>
<polyline fill="none" stroke="#000000" points="333.5,-423.5 457.5,-423.5 "/>
<text text-anchor="start" x="341.5" y="-411.5" font-family="Helvetica,sans-Serif" font-size="10.00" fill="#000000">+ CfgMathOperation()</text>
</a>
</g>
</g>
<!-- Node4&#45;&gt;Node15 -->
<g id="edge23" class="edge">
<title>Node4&#45;&gt;Node15</title>
<path fill="none" stroke="#404040" d="M224.2887,-917.2906C226.3731,-867.689 233.955,-763.263 261.5,-680 287.4264,-601.6298 337.6192,-518.954 368.6746,-471.9006"/>
<polygon fill="none" stroke="#404040" points="368.7167,-471.8375 368.717,-464.6264 375.3736,-461.8532 375.3732,-469.0643 368.7167,-471.8375"/>
<text text-anchor="middle" x="304" y="-654" font-family="Helvetica,sans-Serif" font-size="10.00" fill="#000000"> +otype</text>
<text text-anchor="middle" x="304" y="-643" font-family="Helvetica,sans-Serif" font-size="10.00" fill="#000000">+operators</text>
</g>
<!-- Node5&#45;&gt;Node3 -->
<g id="edge3" class="edge">
<title>Node5&#45;&gt;Node3</title>
<path fill="none" stroke="#404040" d="M94.4906,-729.783C104.2034,-693.4506 117.5,-634.1827 117.5,-582 117.5,-582 117.5,-582 117.5,-306 117.5,-274.1344 132.5228,-243.0231 150.0831,-217.5417"/>
<polygon fill="none" stroke="#404040" points="150.1601,-217.435 150.4267,-210.2288 157.1811,-207.7033 156.9145,-214.9095 150.1601,-217.435"/>
<text text-anchor="middle" x="133" y="-430.5" font-family="Helvetica,sans-Serif" font-size="10.00" fill="#000000"> +font</text>
</g>
<!-- Node5&#45;&gt;Node5 -->
<g id="edge6" class="edge">
<title>Node5&#45;&gt;Node5</title>
<path fill="none" stroke="#404040" d="M124.0057,-784.7834C134.2644,-783.5059 142,-776.5781 142,-764 142,-756.7283 139.4146,-751.345 135.2508,-747.8503"/>
<polygon fill="none" stroke="#404040" points="135.1007,-747.7885 128.0293,-749.2009 124.0057,-743.2166 131.0772,-741.8042 135.1007,-747.7885"/>
<text text-anchor="middle" x="159" y="-761.5" font-family="Helvetica,sans-Serif" font-size="10.00" fill="#000000"> +next</text>
</g>
<!-- Node6 -->
<g id="node5" class="node">
<title>Node6</title>
<polygon fill="#ffffff" stroke="#bfbfbf" points="46.5,-917.5 46.5,-974.5 114.5,-974.5 114.5,-917.5 46.5,-917.5"/>
<text text-anchor="middle" x="80.5" y="-962.5" font-family="Helvetica,sans-Serif" font-size="10.00" fill="#000000">TTF_Font *</text>
<polyline fill="none" stroke="#bfbfbf" points="46.5,-955.5 114.5,-955.5 "/>
<text text-anchor="middle" x="80.5" y="-943.5" font-family="Helvetica,sans-Serif" font-size="10.00" fill="#000000"> </text>
<polyline fill="none" stroke="#bfbfbf" points="46.5,-936.5 114.5,-936.5 "/>
<text text-anchor="middle" x="80.5" y="-924.5" font-family="Helvetica,sans-Serif" font-size="10.00" fill="#000000"> </text>
</g>
<!-- Node6&#45;&gt;Node5 -->
<g id="edge5" class="edge">
<title>Node6&#45;&gt;Node5</title>
<path fill="none" stroke="#404040" d="M80.7395,-917.4885C80.8972,-902.2162 81.1421,-883.0809 81.5,-866 81.8793,-847.8991 82.4338,-827.9951 82.9633,-810.6122"/>
<polygon fill="none" stroke="#404040" points="82.968,-810.4564 79.1567,-804.3348 83.3415,-798.4622 87.1528,-804.5838 82.968,-810.4564"/>
<text text-anchor="middle" x="97" y="-880" font-family="Helvetica,sans-Serif" font-size="10.00" fill="#000000"> +font</text>
</g>
<!-- Node7 -->
<g id="node6" class="node">
<title>Node7</title>
<polygon fill="#ffffff" stroke="#bfbfbf" points="631,-917.5 631,-974.5 660,-974.5 660,-917.5 631,-917.5"/>
<text text-anchor="middle" x="645.5" y="-962.5" font-family="Helvetica,sans-Serif" font-size="10.00" fill="#000000">int</text>
<polyline fill="none" stroke="#bfbfbf" points="631,-955.5 660,-955.5 "/>
<text text-anchor="middle" x="645.5" y="-943.5" font-family="Helvetica,sans-Serif" font-size="10.00" fill="#000000"> </text>
<polyline fill="none" stroke="#bfbfbf" points="631,-936.5 660,-936.5 "/>
<text text-anchor="middle" x="645.5" y="-924.5" font-family="Helvetica,sans-Serif" font-size="10.00" fill="#000000"> </text>
</g>
<!-- Node7&#45;&gt;Node3 -->
<g id="edge8" class="edge">
<title>Node7&#45;&gt;Node3</title>
<path fill="none" stroke="#404040" d="M660.3788,-936.8828C670.0236,-931.0505 682.9054,-923.4051 694.5,-917 709.8112,-908.5417 718.5729,-912.6592 729.5,-899 768.2204,-850.5985 764.5,-825.9837 764.5,-764 764.5,-764 764.5,-764 764.5,-306 764.5,-206.8235 432.3391,-172.0318 279.6505,-161.2778"/>
<polygon fill="none" stroke="#404040" points="279.6225,-161.276 273.3633,-164.8568 267.6506,-160.4562 273.9098,-156.8754 279.6225,-161.276"/>
<text text-anchor="middle" x="782" y="-516" font-family="Helvetica,sans-Serif" font-size="10.00" fill="#000000"> +ypos</text>
<text text-anchor="middle" x="782" y="-505" font-family="Helvetica,sans-Serif" font-size="10.00" fill="#000000">+id</text>
<text text-anchor="middle" x="782" y="-494" font-family="Helvetica,sans-Serif" font-size="10.00" fill="#000000">+xpos</text>
<text text-anchor="middle" x="782" y="-483" font-family="Helvetica,sans-Serif" font-size="10.00" fill="#000000">+iid</text>
</g>
<!-- Node7&#45;&gt;Node5 -->
<g id="edge7" class="edge">
<title>Node7&#45;&gt;Node5</title>
<path fill="none" stroke="#404040" d="M630.8517,-939.7232C614.8392,-933.1076 588.2868,-922.8519 564.5,-917 508.2873,-903.1709 487.1194,-925.2021 435.5,-899 417.2826,-889.7528 421.775,-875.1327 403.5,-866 346.5939,-837.5621 322.5572,-865.8614 261.5,-848 216.8715,-834.9445 169.4332,-811.8789 134.9123,-793.217"/>
<polygon fill="none" stroke="#404040" points="134.7,-793.1006 127.5158,-793.7231 124.178,-787.331 131.3622,-786.7085 134.7,-793.1006"/>
<text text-anchor="middle" x="451" y="-880" font-family="Helvetica,sans-Serif" font-size="10.00" fill="#000000"> +size</text>
</g>
<!-- Node7&#45;&gt;Node13 -->
<g id="edge18" class="edge">
<title>Node7&#45;&gt;Node13</title>
<path fill="none" stroke="#404040" d="M630.8057,-931.797C622.9076,-923.1459 613.9076,-911.3959 609.5,-899 598.7513,-868.7705 598.3501,-832.2888 600.3057,-804.8744"/>
<polygon fill="none" stroke="#404040" points="600.3343,-804.5469 596.8726,-798.221 601.3805,-792.5926 604.8422,-798.9185 600.3343,-804.5469"/>
<text text-anchor="middle" x="642.5" y="-880" font-family="Helvetica,sans-Serif" font-size="10.00" fill="#000000"> +max_index</text>
</g>
<!-- Node7&#45;&gt;Node15 -->
<g id="edge24" class="edge">
<title>Node7&#45;&gt;Node15</title>
<path fill="none" stroke="#404040" d="M660.0965,-928.4379C666.12,-920.0722 672.4073,-909.5933 675.5,-899 690.2614,-848.4379 746.6701,-846.6151 670.5,-680 626.4313,-583.6038 524.7584,-508.7789 458.1541,-467.8155"/>
<polygon fill="none" stroke="#404040" points="458.0447,-467.7493 450.8404,-468.0631 447.7798,-461.5337 454.9841,-461.2199 458.0447,-467.7493"/>
<text text-anchor="middle" x="686" y="-648.5" font-family="Helvetica,sans-Serif" font-size="10.00" fill="#000000"> +numops</text>
</g>
<!-- Node8 -->
<g id="node7" class="node">
<title>Node8</title>
<g id="a_node7"><a xlink:href="classParsedExpression.html" target="_top" xlink:title="{ParsedExpression\n||+ ParsedExpression()\l+ ~ParsedExpression()\l+ Evaluate()\l+ IsStatic()\l+ Print()\l}">
<polygon fill="#ffffff" stroke="#000000" points="233,-255.5 233,-356.5 362,-356.5 362,-255.5 233,-255.5"/>
<text text-anchor="middle" x="297.5" y="-344.5" font-family="Helvetica,sans-Serif" font-size="10.00" fill="#000000">ParsedExpression</text>
<polyline fill="none" stroke="#000000" points="233,-337.5 362,-337.5 "/>
<text text-anchor="middle" x="297.5" y="-325.5" font-family="Helvetica,sans-Serif" font-size="10.00" fill="#000000"> </text>
<polyline fill="none" stroke="#000000" points="233,-318.5 362,-318.5 "/>
<text text-anchor="start" x="241" y="-306.5" font-family="Helvetica,sans-Serif" font-size="10.00" fill="#000000">+ ParsedExpression()</text>
<text text-anchor="start" x="241" y="-295.5" font-family="Helvetica,sans-Serif" font-size="10.00" fill="#000000">+ ~ParsedExpression()</text>
<text text-anchor="start" x="241" y="-284.5" font-family="Helvetica,sans-Serif" font-size="10.00" fill="#000000">+ Evaluate()</text>
<text text-anchor="start" x="241" y="-273.5" font-family="Helvetica,sans-Serif" font-size="10.00" fill="#000000">+ IsStatic()</text>
<text text-anchor="start" x="241" y="-262.5" font-family="Helvetica,sans-Serif" font-size="10.00" fill="#000000">+ Print()</text>
</a>
</g>
</g>
<!-- Node8&#45;&gt;Node3 -->
<g id="edge9" class="edge">
<title>Node8&#45;&gt;Node3</title>
<path fill="none" stroke="#404040" d="M265.7548,-255.1394C258.2729,-243.1523 250.2225,-230.2543 242.4963,-217.8757"/>
<polygon fill="none" stroke="#404040" points="242.456,-217.8112 235.8858,-214.8393 236.1021,-207.6314 242.6724,-210.6033 242.456,-217.8112"/>
<text text-anchor="middle" x="269.5" y="-229" font-family="Helvetica,sans-Serif" font-size="10.00" fill="#000000"> +exp</text>
</g>
<!-- Node9 -->
<g id="node8" class="node">
<title>Node9</title>
<g id="a_node8"><a xlink:href="classCfgToken.html" target="_top" xlink:title="{CfgToken\n||+ CfgToken()\l+ Print()\l+ Evaluate()\l}">
<polygon fill="#ffffff" stroke="#000000" points="355.5,-542.5 355.5,-621.5 435.5,-621.5 435.5,-542.5 355.5,-542.5"/>
<text text-anchor="middle" x="395.5" y="-609.5" font-family="Helvetica,sans-Serif" font-size="10.00" fill="#000000">CfgToken</text>
<polyline fill="none" stroke="#000000" points="355.5,-602.5 435.5,-602.5 "/>
<text text-anchor="middle" x="395.5" y="-590.5" font-family="Helvetica,sans-Serif" font-size="10.00" fill="#000000"> </text>
<polyline fill="none" stroke="#000000" points="355.5,-583.5 435.5,-583.5 "/>
<text text-anchor="start" x="363.5" y="-571.5" font-family="Helvetica,sans-Serif" font-size="10.00" fill="#000000">+ CfgToken()</text>
<text text-anchor="start" x="363.5" y="-560.5" font-family="Helvetica,sans-Serif" font-size="10.00" fill="#000000">+ Print()</text>
<text text-anchor="start" x="363.5" y="-549.5" font-family="Helvetica,sans-Serif" font-size="10.00" fill="#000000">+ Evaluate()</text>
</a>
</g>
</g>
<!-- Node9&#45;&gt;Node8 -->
<g id="edge10" class="edge">
<title>Node9&#45;&gt;Node8</title>
<path fill="none" stroke="#404040" d="M355.3108,-549.6292C331.4943,-527.742 303.4985,-496.595 290.5,-462 279.4865,-432.6881 279.8358,-398.0708 283.5367,-368.9021"/>
<polygon fill="none" stroke="#404040" points="283.5747,-368.6408 280.4814,-362.1269 285.3046,-356.7662 288.3979,-363.2802 283.5747,-368.6408"/>
<text text-anchor="middle" x="307.5" y="-430.5" font-family="Helvetica,sans-Serif" font-size="10.00" fill="#000000"> +start</text>
</g>
<!-- Node9&#45;&gt;Node15 -->
<g id="edge22" class="edge">
<title>Node9&#45;&gt;Node15</title>
<path fill="none" stroke="#404040" d="M395.5,-542.4619C395.5,-521.3723 395.5,-495.4485 395.5,-474.1238"/>
<polygon fill="none" stroke="#404040" points="395.5001,-473.8487 391.5,-467.8488 395.5,-461.8487 399.5,-467.8487 395.5001,-473.8487"/>
<text text-anchor="middle" x="421.5" y="-499.5" font-family="Helvetica,sans-Serif" font-size="10.00" fill="#000000"> +operand</text>
</g>
<!-- Node10 -->
<g id="node9" class="node">
<title>Node10</title>
<polygon fill="#ffffff" stroke="#bfbfbf" points="270.5,-735.5 270.5,-792.5 354.5,-792.5 354.5,-735.5 270.5,-735.5"/>
<text text-anchor="middle" x="312.5" y="-780.5" font-family="Helvetica,sans-Serif" font-size="10.00" fill="#000000">CfgTokenType</text>
<polyline fill="none" stroke="#bfbfbf" points="270.5,-773.5 354.5,-773.5 "/>
<text text-anchor="middle" x="312.5" y="-761.5" font-family="Helvetica,sans-Serif" font-size="10.00" fill="#000000"> </text>
<polyline fill="none" stroke="#bfbfbf" points="270.5,-754.5 354.5,-754.5 "/>
<text text-anchor="middle" x="312.5" y="-742.5" font-family="Helvetica,sans-Serif" font-size="10.00" fill="#000000"> </text>
</g>
<!-- Node10&#45;&gt;Node9 -->
<g id="edge11" class="edge">
<title>Node10&#45;&gt;Node9</title>
<path fill="none" stroke="#404040" d="M325.6516,-735.1616C338.1638,-707.7252 357.2615,-665.8483 372.327,-632.8131"/>
<polygon fill="none" stroke="#404040" points="372.491,-632.4533 371.3412,-625.3345 377.4703,-621.5351 378.62,-628.654 372.491,-632.4533"/>
<text text-anchor="middle" x="383" y="-648.5" font-family="Helvetica,sans-Serif" font-size="10.00" fill="#000000"> +cvt</text>
</g>
<!-- Node11&#45;&gt;Node9 -->
<g id="edge12" class="edge">
<title>Node11&#45;&gt;Node9</title>
<path fill="none" stroke="#404040" d="M411.7292,-680.4574C409.1321,-664.7014 406.4855,-648.6452 404.1036,-634.1953"/>
<polygon fill="none" stroke="#404040" points="404.0383,-633.7985 399.1157,-628.529 402.0865,-621.9583 407.0092,-627.2278 404.0383,-633.7985"/>
<text text-anchor="middle" x="422" y="-654" font-family="Helvetica,sans-Serif" font-size="10.00" fill="#000000"> +val</text>
<text text-anchor="middle" x="422" y="-643" font-family="Helvetica,sans-Serif" font-size="10.00" fill="#000000">+var</text>
</g>
<!-- Node11&#45;&gt;Node11 -->
<g id="edge15" class="edge">
<title>Node11&#45;&gt;Node11</title>
<path fill="none" stroke="#404040" d="M479.1322,-784.0656C489.5804,-781.7354 497,-775.0469 497,-764 497,-757.4409 494.3843,-752.4183 490.0721,-748.9322"/>
<polygon fill="none" stroke="#404040" points="490.0471,-748.9209 482.9275,-750.0659 479.1322,-743.9344 486.2518,-742.7893 490.0471,-748.9209"/>
<text text-anchor="middle" x="514" y="-761.5" font-family="Helvetica,sans-Serif" font-size="10.00" fill="#000000"> +next</text>
</g>
<!-- Node12 -->
<g id="node11" class="node">
<title>Node12</title>
<polygon fill="#ffffff" stroke="#bfbfbf" points="471,-917.5 471,-974.5 556,-974.5 556,-917.5 471,-917.5"/>
<text text-anchor="middle" x="513.5" y="-962.5" font-family="Helvetica,sans-Serif" font-size="10.00" fill="#000000">CoreDataType</text>
<polyline fill="none" stroke="#bfbfbf" points="471,-955.5 556,-955.5 "/>
<text text-anchor="middle" x="513.5" y="-943.5" font-family="Helvetica,sans-Serif" font-size="10.00" fill="#000000"> </text>
<polyline fill="none" stroke="#bfbfbf" points="471,-936.5 556,-936.5 "/>
<text text-anchor="middle" x="513.5" y="-924.5" font-family="Helvetica,sans-Serif" font-size="10.00" fill="#000000"> </text>
</g>
<!-- Node12&#45;&gt;Node11 -->
<g id="edge14" class="edge">
<title>Node12&#45;&gt;Node11</title>
<path fill="none" stroke="#404040" d="M496.4887,-917.4102C493.072,-911.3885 489.5861,-905.0318 486.5,-899 479.9563,-886.2103 473.364,-872.5745 467.0558,-859.0707"/>
<polygon fill="none" stroke="#404040" points="466.8707,-858.6706 460.7207,-854.9052 461.8311,-847.7801 467.9811,-851.5455 466.8707,-858.6706"/>
<text text-anchor="middle" x="503.5" y="-880" font-family="Helvetica,sans-Serif" font-size="10.00" fill="#000000"> +type</text>
</g>
<!-- Node12&#45;&gt;Node13 -->
<g id="edge19" class="edge">
<title>Node12&#45;&gt;Node13</title>
<path fill="none" stroke="#404040" d="M528.0777,-917.1616C543.5549,-886.5436 568.1229,-837.9417 585.425,-803.7136"/>
<polygon fill="none" stroke="#404040" points="585.5769,-803.413 584.7139,-796.2537 590.9905,-792.7035 591.8535,-799.8628 585.5769,-803.413"/>
<text text-anchor="middle" x="571.5" y="-880" font-family="Helvetica,sans-Serif" font-size="10.00" fill="#000000"> +dtype</text>
</g>
<!-- Node13&#45;&gt;Node9 -->
<g id="edge16" class="edge">
<title>Node13&#45;&gt;Node9</title>
<path fill="none" stroke="#404040" d="M586.3609,-735.3367C574.1235,-718.1893 557.2572,-696.5821 539.5,-680 511.1544,-653.5301 475.069,-628.986 446.1128,-611.0815"/>
<polygon fill="none" stroke="#404040" points="446.0422,-611.0386 438.8371,-611.3322 435.7948,-604.7942 443,-604.5006 446.0422,-611.0386"/>
<text text-anchor="middle" x="546" y="-648.5" font-family="Helvetica,sans-Serif" font-size="10.00" fill="#000000"> +evparam</text>
</g>
<!-- Node14 -->
<g id="node13" class="node">
<title>Node14</title>
<polygon fill="#ffffff" stroke="#bfbfbf" points="703.5,-917.5 703.5,-974.5 741.5,-974.5 741.5,-917.5 703.5,-917.5"/>
<text text-anchor="middle" x="722.5" y="-962.5" font-family="Helvetica,sans-Serif" font-size="10.00" fill="#000000">long</text>
<polyline fill="none" stroke="#bfbfbf" points="703.5,-955.5 741.5,-955.5 "/>
<text text-anchor="middle" x="722.5" y="-943.5" font-family="Helvetica,sans-Serif" font-size="10.00" fill="#000000"> </text>
<polyline fill="none" stroke="#bfbfbf" points="703.5,-936.5 741.5,-936.5 "/>
<text text-anchor="middle" x="722.5" y="-924.5" font-family="Helvetica,sans-Serif" font-size="10.00" fill="#000000"> </text>
</g>
<!-- Node14&#45;&gt;Node13 -->
<g id="edge20" class="edge">
<title>Node14&#45;&gt;Node13</title>
<path fill="none" stroke="#404040" d="M708.2819,-917.3352C700.3062,-901.8487 689.8928,-882.5616 679.5,-866 665.897,-844.3228 649.2748,-821.159 635.2327,-802.3932"/>
<polygon fill="none" stroke="#404040" points="635.173,-802.314 628.3658,-799.9343 627.9442,-792.7355 634.7514,-795.1152 635.173,-802.314"/>
<text text-anchor="middle" x="712" y="-880" font-family="Helvetica,sans-Serif" font-size="10.00" fill="#000000"> +ofs</text>
</g>
<!-- Node15&#45;&gt;Node8 -->
<g id="edge21" class="edge">
<title>Node15&#45;&gt;Node8</title>
<path fill="none" stroke="#404040" d="M373.5069,-404.4987C364.7426,-393.1409 354.3019,-379.6107 344.0083,-366.2709"/>
<polygon fill="none" stroke="#404040" points="343.896,-366.1254 337.0637,-363.8189 336.565,-356.625 343.3973,-358.9315 343.896,-366.1254"/>
<text text-anchor="middle" x="373" y="-378" font-family="Helvetica,sans-Serif" font-size="10.00" fill="#000000"> +ops</text>
</g>
<!-- Node15&#45;&gt;Node15 -->
<g id="edge25" class="edge">
<title>Node15&#45;&gt;Node15</title>
<path fill="none" stroke="#404040" d="M457.5546,-442.1019C468.1554,-440.8582 475.5,-437.8242 475.5,-433 475.5,-430.2864 473.1761,-428.1392 469.256,-426.5585"/>
<polygon fill="none" stroke="#404040" points="469.256,-426.5585 462.5185,-429.1288 457.5546,-423.8981 464.2921,-421.3278 469.256,-426.5585"/>
<text text-anchor="middle" x="492.5" y="-430.5" font-family="Helvetica,sans-Serif" font-size="10.00" fill="#000000"> +next</text>
</g>
</g>
</svg>
