<?xml version="1.0" encoding="UTF-8" standalone="no"?>
<!DOCTYPE svg PUBLIC "-//W3C//DTD SVG 1.1//EN"
 "http://www.w3.org/Graphics/SVG/1.1/DTD/svg11.dtd">
<!-- Generated by graphviz version 2.40.1 (20161225.0304)
 -->
<!-- Title: TriggerMap::GetLastUpdate Pages: 1 -->
<svg width="549pt" height="28pt"
 viewBox="0.00 0.00 549.00 28.00" xmlns="http://www.w3.org/2000/svg" xmlns:xlink="http://www.w3.org/1999/xlink">
<g id="graph0" class="graph" transform="scale(1 1) rotate(0) translate(4 24)">
<title>TriggerMap::GetLastUpdate</title>
<polygon fill="#ffffff" stroke="transparent" points="-4,4 -4,-24 545,-24 545,4 -4,4"/>
<!-- Node15 -->
<g id="node1" class="node">
<title>Node15</title>
<polygon fill="#bfbfbf" stroke="#000000" points="0,-.5 0,-19.5 149,-19.5 149,-.5 0,-.5"/>
<text text-anchor="middle" x="74.5" y="-7.5" font-family="Helvetica,sans-Serif" font-size="10.00" fill="#000000">TriggerMap::GetLastUpdate</text>
</g>
<!-- Node16 -->
<g id="node2" class="node">
<title>Node16</title>
<g id="a_node2"><a xlink:href="classLoopManager.html#af213761ccf6208b94354a3658de91cfb" target="_top" xlink:title="LoopManager::CheckSaveMap">
<polygon fill="#ffffff" stroke="#000000" points="185,-.5 185,-19.5 347,-19.5 347,-.5 185,-.5"/>
<text text-anchor="middle" x="266" y="-7.5" font-family="Helvetica,sans-Serif" font-size="10.00" fill="#000000">LoopManager::CheckSaveMap</text>
</a>
</g>
</g>
<!-- Node15&#45;&gt;Node16 -->
<g id="edge1" class="edge">
<title>Node15&#45;&gt;Node16</title>
<path fill="none" stroke="#191970" d="M159.1011,-10C167.6934,-10 176.407,-10 184.9603,-10"/>
<polygon fill="#191970" stroke="#191970" points="159.0873,-6.5001 149.0872,-10 159.0872,-13.5001 159.0873,-6.5001"/>
</g>
<!-- Node17 -->
<g id="node3" class="node">
<title>Node17</title>
<g id="a_node3"><a xlink:href="classLoopManager.html#a00143be12c150c0a89c4f99c1e8d5e70" target="_top" xlink:title="LoopManager::GetWriteBlock">
<polygon fill="#ffffff" stroke="#000000" points="383,-.5 383,-19.5 541,-19.5 541,-.5 383,-.5"/>
<text text-anchor="middle" x="462" y="-7.5" font-family="Helvetica,sans-Serif" font-size="10.00" fill="#000000">LoopManager::GetWriteBlock</text>
</a>
</g>
</g>
<!-- Node16&#45;&gt;Node17 -->
<g id="edge2" class="edge">
<title>Node16&#45;&gt;Node17</title>
<path fill="none" stroke="#191970" d="M357.1516,-10C365.7248,-10 374.3683,-10 382.8178,-10"/>
<polygon fill="#191970" stroke="#191970" points="357.1356,-6.5001 347.1355,-10 357.1355,-13.5001 357.1356,-6.5001"/>
</g>
</g>
</svg>
