<?xml version="1.0" encoding="UTF-8" standalone="no"?>
<!DOCTYPE svg PUBLIC "-//W3C//DTD SVG 1.1//EN"
 "http://www.w3.org/Graphics/SVG/1.1/DTD/svg11.dtd">
<!-- Generated by graphviz version 2.40.1 (20161225.0304)
 -->
<!-- Title: Pulse::SwitchMetronome Pages: 1 -->
<svg width="802pt" height="85pt"
 viewBox="0.00 0.00 802.00 85.00" xmlns="http://www.w3.org/2000/svg" xmlns:xlink="http://www.w3.org/1999/xlink">
<g id="graph0" class="graph" transform="scale(1 1) rotate(0) translate(4 81)">
<title>Pulse::SwitchMetronome</title>
<polygon fill="#ffffff" stroke="transparent" points="-4,4 -4,-81 798,-81 798,4 -4,4"/>
<!-- Node151 -->
<g id="node1" class="node">
<title>Node151</title>
<polygon fill="#bfbfbf" stroke="#000000" points="0,-38.5 0,-57.5 137,-57.5 137,-38.5 0,-38.5"/>
<text text-anchor="middle" x="68.5" y="-45.5" font-family="Helvetica,sans-Serif" font-size="10.00" fill="#000000">Pulse::SwitchMetronome</text>
</g>
<!-- Node152 -->
<g id="node2" class="node">
<title>Node152</title>
<g id="a_node2"><a xlink:href="classLoopManager.html#af5d0dda7bbd8b05498ff3aea948001b2" target="_top" xlink:title="LoopManager::SwitchMetronome">
<polygon fill="#ffffff" stroke="#000000" points="173,-57.5 173,-76.5 349,-76.5 349,-57.5 173,-57.5"/>
<text text-anchor="middle" x="261" y="-64.5" font-family="Helvetica,sans-Serif" font-size="10.00" fill="#000000">LoopManager::SwitchMetronome</text>
</a>
</g>
</g>
<!-- Node151&#45;&gt;Node152 -->
<g id="edge1" class="edge">
<title>Node151&#45;&gt;Node152</title>
<path fill="none" stroke="#191970" d="M147.3276,-55.7804C155.7348,-56.6102 164.3255,-57.4581 172.8315,-58.2977"/>
<polygon fill="#191970" stroke="#191970" points="147.4771,-52.2782 137.1816,-54.779 146.7895,-59.2444 147.4771,-52.2782"/>
</g>
<!-- Node154 -->
<g id="node4" class="node">
<title>Node154</title>
<g id="a_node4"><a xlink:href="classSDLIO.html#a491e66a604fb750866d5de45dfa6aae0" target="_top" xlink:title="SDLIO::handle_key">
<polygon fill="#ffffff" stroke="#000000" points="207,-19.5 207,-38.5 315,-38.5 315,-19.5 207,-19.5"/>
<text text-anchor="middle" x="261" y="-26.5" font-family="Helvetica,sans-Serif" font-size="10.00" fill="#000000">SDLIO::handle_key</text>
</a>
</g>
</g>
<!-- Node151&#45;&gt;Node154 -->
<g id="edge3" class="edge">
<title>Node151&#45;&gt;Node154</title>
<path fill="none" stroke="#191970" d="M147.2318,-40.2291C167.2721,-38.2511 188.3611,-36.1696 206.8637,-34.3433"/>
<polygon fill="#191970" stroke="#191970" points="146.7895,-36.7556 137.1816,-41.221 147.4771,-43.7218 146.7895,-36.7556"/>
</g>
<!-- Node153 -->
<g id="node3" class="node">
<title>Node153</title>
<g id="a_node3"><a xlink:href="classLoopManager.html#a4aada2d07b7ce0a67a8119ece4805966" target="_top" xlink:title="LoopManager::ReceiveEvent">
<polygon fill="#ffffff" stroke="#000000" points="385,-57.5 385,-76.5 539,-76.5 539,-57.5 385,-57.5"/>
<text text-anchor="middle" x="462" y="-64.5" font-family="Helvetica,sans-Serif" font-size="10.00" fill="#000000">LoopManager::ReceiveEvent</text>
</a>
</g>
</g>
<!-- Node152&#45;&gt;Node153 -->
<g id="edge2" class="edge">
<title>Node152&#45;&gt;Node153</title>
<path fill="none" stroke="#191970" d="M359.259,-67C367.8822,-67 376.5273,-67 384.9404,-67"/>
<polygon fill="#191970" stroke="#191970" points="359.1616,-63.5001 349.1615,-67 359.1615,-70.5001 359.1616,-63.5001"/>
</g>
<!-- Node155 -->
<g id="node5" class="node">
<title>Node155</title>
<g id="a_node5"><a xlink:href="classSDLIO.html#ad1b1bf6d23251b3014749b18497c1b91" target="_top" xlink:title="SDLIO::run_sdl_thread">
<polygon fill="#ffffff" stroke="#000000" points="400,-19.5 400,-38.5 524,-38.5 524,-19.5 400,-19.5"/>
<text text-anchor="middle" x="462" y="-26.5" font-family="Helvetica,sans-Serif" font-size="10.00" fill="#000000">SDLIO::run_sdl_thread</text>
</a>
</g>
</g>
<!-- Node154&#45;&gt;Node155 -->
<g id="edge4" class="edge">
<title>Node154&#45;&gt;Node155</title>
<path fill="none" stroke="#191970" d="M325.1721,-29C349.1049,-29 376.2137,-29 399.952,-29"/>
<polygon fill="#191970" stroke="#191970" points="325.1288,-25.5001 315.1287,-29 325.1287,-32.5001 325.1288,-25.5001"/>
</g>
<!-- Node156 -->
<g id="node6" class="node">
<title>Node156</title>
<g id="a_node6"><a xlink:href="classFweelin.html#a268997890fa59492e27b4787c6bdc41f" target="_top" xlink:title="Fweelin::go">
<polygon fill="#ffffff" stroke="#000000" points="585,-38.5 585,-57.5 657,-57.5 657,-38.5 585,-38.5"/>
<text text-anchor="middle" x="621" y="-45.5" font-family="Helvetica,sans-Serif" font-size="10.00" fill="#000000">Fweelin::go</text>
</a>
</g>
</g>
<!-- Node155&#45;&gt;Node156 -->
<g id="edge5" class="edge">
<title>Node155&#45;&gt;Node156</title>
<path fill="none" stroke="#191970" d="M534.5938,-37.6747C552.0648,-39.7625 569.984,-41.9038 584.9422,-43.6912"/>
<polygon fill="#191970" stroke="#191970" points="534.7293,-34.1661 524.3847,-36.4548 533.8987,-41.1167 534.7293,-34.1661"/>
</g>
<!-- Node159 -->
<g id="node9" class="node">
<title>Node159</title>
<g id="a_node9"><a xlink:href="classSDLIO.html#a219c64dd0f01ca0fe0319ba7a0a3379e" target="_top" xlink:title="SDLIO::activate">
<polygon fill="#ffffff" stroke="#000000" points="575,-.5 575,-19.5 667,-19.5 667,-.5 575,-.5"/>
<text text-anchor="middle" x="621" y="-7.5" font-family="Helvetica,sans-Serif" font-size="10.00" fill="#000000">SDLIO::activate</text>
</a>
</g>
</g>
<!-- Node155&#45;&gt;Node159 -->
<g id="edge8" class="edge">
<title>Node155&#45;&gt;Node159</title>
<path fill="none" stroke="#191970" d="M534.6685,-20.3163C548.219,-18.6971 562.0362,-17.046 574.5297,-15.5531"/>
<polygon fill="#191970" stroke="#191970" points="533.8987,-16.8833 524.3847,-21.5452 534.7293,-23.8339 533.8987,-16.8833"/>
</g>
<!-- Node157 -->
<g id="node7" class="node">
<title>Node157</title>
<g id="a_node7"><a xlink:href="fweelin_8cc.html#a97b0fa62b7b0972875f5f589322c4c24" target="_top" xlink:title="main">
<polygon fill="#ffffff" stroke="#000000" points="728,-57.5 728,-76.5 769,-76.5 769,-57.5 728,-57.5"/>
<text text-anchor="middle" x="748.5" y="-64.5" font-family="Helvetica,sans-Serif" font-size="10.00" fill="#000000">main</text>
</a>
</g>
</g>
<!-- Node156&#45;&gt;Node157 -->
<g id="edge6" class="edge">
<title>Node156&#45;&gt;Node157</title>
<path fill="none" stroke="#191970" d="M667.127,-54.8738C687.8883,-57.9677 711.3559,-61.4648 727.7356,-63.9057"/>
<polygon fill="#191970" stroke="#191970" points="667.602,-51.406 657.1953,-53.3938 666.5702,-58.3296 667.602,-51.406"/>
</g>
<!-- Node158 -->
<g id="node8" class="node">
<title>Node158</title>
<g id="a_node8"><a xlink:href="classLoopTray.html#a307e6abe64c403e39fc463ec282bde27" target="_top" xlink:title="LoopTray::Draw">
<polygon fill="#ffffff" stroke="#000000" points="703,-19.5 703,-38.5 794,-38.5 794,-19.5 703,-19.5"/>
<text text-anchor="middle" x="748.5" y="-26.5" font-family="Helvetica,sans-Serif" font-size="10.00" fill="#000000">LoopTray::Draw</text>
</a>
</g>
</g>
<!-- Node156&#45;&gt;Node158 -->
<g id="edge7" class="edge">
<title>Node156&#45;&gt;Node158</title>
<path fill="none" stroke="#191970" d="M667.1051,-41.1294C678.6768,-39.405 691.0904,-37.5552 702.6497,-35.8326"/>
<polygon fill="#191970" stroke="#191970" points="666.5702,-37.6704 657.1953,-42.6062 667.602,-44.594 666.5702,-37.6704"/>
</g>
</g>
</svg>
