<?xml version="1.0" encoding="UTF-8" standalone="no"?>
<!DOCTYPE svg PUBLIC "-//W3C//DTD SVG 1.1//EN"
 "http://www.w3.org/Graphics/SVG/1.1/DTD/svg11.dtd">
<!-- Generated by graphviz version 2.40.1 (20161225.0304)
 -->
<!-- Title: PatchBrowser::ReceiveEvent Pages: 1 -->
<svg width="453pt" height="47pt"
 viewBox="0.00 0.00 453.00 47.00" xmlns="http://www.w3.org/2000/svg" xmlns:xlink="http://www.w3.org/1999/xlink">
<g id="graph0" class="graph" transform="scale(1 1) rotate(0) translate(4 43)">
<title>PatchBrowser::ReceiveEvent</title>
<polygon fill="#ffffff" stroke="transparent" points="-4,4 -4,-43 449,-43 449,4 -4,4"/>
<!-- Node22 -->
<g id="node1" class="node">
<title>Node22</title>
<polygon fill="#bfbfbf" stroke="#000000" points="0,-19.5 0,-38.5 155,-38.5 155,-19.5 0,-19.5"/>
<text text-anchor="middle" x="77.5" y="-26.5" font-family="Helvetica,sans-Serif" font-size="10.00" fill="#000000">PatchBrowser::ReceiveEvent</text>
</g>
<!-- Node23 -->
<g id="node2" class="node">
<title>Node23</title>
<g id="a_node2"><a xlink:href="classEvent.html#ac4c4170579544b41dff38ca1b8110e30" target="_top" xlink:title="Event::GetType">
<polygon fill="#ffffff" stroke="#000000" points="355,-19.5 355,-38.5 445,-38.5 445,-19.5 355,-19.5"/>
<text text-anchor="middle" x="400" y="-26.5" font-family="Helvetica,sans-Serif" font-size="10.00" fill="#000000">Event::GetType</text>
</a>
</g>
</g>
<!-- Node22&#45;&gt;Node23 -->
<g id="edge1" class="edge">
<title>Node22&#45;&gt;Node23</title>
<path fill="none" stroke="#191970" d="M155.1572,-29C213.6927,-29 292.5419,-29 344.759,-29"/>
<polygon fill="#191970" stroke="#191970" points="344.8335,-32.5001 354.8335,-29 344.8334,-25.5001 344.8335,-32.5001"/>
</g>
<!-- Node24 -->
<g id="node3" class="node">
<title>Node24</title>
<g id="a_node3"><a xlink:href="classBrowser.html#a18b4b2d6dca19f3bbcf16ab06516499d" target="_top" xlink:title="Browser::ReceiveEvent">
<polygon fill="#ffffff" stroke="#000000" points="191,-.5 191,-19.5 319,-19.5 319,-.5 191,-.5"/>
<text text-anchor="middle" x="255" y="-7.5" font-family="Helvetica,sans-Serif" font-size="10.00" fill="#000000">Browser::ReceiveEvent</text>
</a>
</g>
</g>
<!-- Node22&#45;&gt;Node24 -->
<g id="edge2" class="edge">
<title>Node22&#45;&gt;Node24</title>
<path fill="none" stroke="#191970" d="M155.0959,-20.694C163.5849,-19.7853 172.2123,-18.8618 180.6607,-17.9575"/>
<polygon fill="#191970" stroke="#191970" points="181.2851,-21.4107 190.8557,-16.8662 180.54,-14.4505 181.2851,-21.4107"/>
</g>
<!-- Node24&#45;&gt;Node23 -->
<g id="edge3" class="edge">
<title>Node24&#45;&gt;Node23</title>
<path fill="none" stroke="#191970" d="M319.0212,-18.389C327.5431,-19.5056 336.2235,-20.6431 344.5825,-21.7384"/>
<polygon fill="#191970" stroke="#191970" points="344.2172,-25.2204 354.5872,-23.0494 345.1267,-18.2797 344.2172,-25.2204"/>
</g>
</g>
</svg>
