<?xml version="1.0" encoding="UTF-8" standalone="no"?>
<!DOCTYPE svg PUBLIC "-//W3C//DTD SVG 1.1//EN"
 "http://www.w3.org/Graphics/SVG/1.1/DTD/svg11.dtd">
<!-- Generated by graphviz version 2.40.1 (20161225.0304)
 -->
<!-- Title: FloDisplayCircleSwitch::Draw Pages: 1 -->
<svg width="750pt" height="104pt"
 viewBox="0.00 0.00 750.00 104.00" xmlns="http://www.w3.org/2000/svg" xmlns:xlink="http://www.w3.org/1999/xlink">
<g id="graph0" class="graph" transform="scale(1 1) rotate(0) translate(4 100)">
<title>FloDisplayCircleSwitch::Draw</title>
<polygon fill="#ffffff" stroke="transparent" points="-4,4 -4,-100 746,-100 746,4 -4,4"/>
<!-- Node2 -->
<g id="node1" class="node">
<title>Node2</title>
<polygon fill="#bfbfbf" stroke="#000000" points="0,-33 0,-63 128,-63 128,-33 0,-33"/>
<text text-anchor="start" x="8" y="-51" font-family="Helvetica,sans-Serif" font-size="10.00" fill="#000000">FloDisplayCircleSwitch</text>
<text text-anchor="middle" x="64" y="-40" font-family="Helvetica,sans-Serif" font-size="10.00" fill="#000000">::Draw</text>
</g>
<!-- Node3 -->
<g id="node2" class="node">
<title>Node3</title>
<g id="a_node2"><a xlink:href="fweelin__event_8h.html#a0bb68d7f77df8d1848af0e9fc6716197" target="_top" xlink:title="mygettime">
<polygon fill="#ffffff" stroke="#000000" points="204,-76.5 204,-95.5 275,-95.5 275,-76.5 204,-76.5"/>
<text text-anchor="middle" x="239.5" y="-83.5" font-family="Helvetica,sans-Serif" font-size="10.00" fill="#000000">mygettime</text>
</a>
</g>
</g>
<!-- Node2&#45;&gt;Node3 -->
<g id="edge1" class="edge">
<title>Node2&#45;&gt;Node3</title>
<path fill="none" stroke="#191970" d="M128.3532,-61.934C150.1121,-66.6454 173.9416,-71.805 193.9364,-76.1344"/>
<polygon fill="#191970" stroke="#191970" points="193.1996,-79.5559 203.7138,-78.2514 194.681,-72.7144 193.1996,-79.5559"/>
</g>
<!-- Node4 -->
<g id="node3" class="node">
<title>Node4</title>
<g id="a_node3"><a xlink:href="classParsedExpression.html#a8b8c5462181f05c11f51df722809ac7e" target="_top" xlink:title="ParsedExpression::Evaluate">
<polygon fill="#ffffff" stroke="#000000" points="164,-38.5 164,-57.5 315,-57.5 315,-38.5 164,-38.5"/>
<text text-anchor="middle" x="239.5" y="-45.5" font-family="Helvetica,sans-Serif" font-size="10.00" fill="#000000">ParsedExpression::Evaluate</text>
</a>
</g>
</g>
<!-- Node2&#45;&gt;Node4 -->
<g id="edge2" class="edge">
<title>Node2&#45;&gt;Node4</title>
<path fill="none" stroke="#191970" d="M128.3532,-48C136.6502,-48 145.2482,-48 153.8199,-48"/>
<polygon fill="#191970" stroke="#191970" points="153.8506,-51.5001 163.8506,-48 153.8506,-44.5001 153.8506,-51.5001"/>
</g>
<!-- Node8 -->
<g id="node7" class="node">
<title>Node8</title>
<g id="a_node7"><a xlink:href="classVideoIO.html#a8a7592b69863218540f5185683f8b3fc" target="_top" xlink:title="VideoIO::draw_text">
<polygon fill="#ffffff" stroke="#000000" points="184.5,-.5 184.5,-19.5 294.5,-19.5 294.5,-.5 184.5,-.5"/>
<text text-anchor="middle" x="239.5" y="-7.5" font-family="Helvetica,sans-Serif" font-size="10.00" fill="#000000">VideoIO::draw_text</text>
</a>
</g>
</g>
<!-- Node2&#45;&gt;Node8 -->
<g id="edge6" class="edge">
<title>Node2&#45;&gt;Node8</title>
<path fill="none" stroke="#191970" d="M128.3532,-34.066C147.1727,-29.9911 167.5412,-25.5808 185.6377,-21.6625"/>
<polygon fill="#191970" stroke="#191970" points="186.4006,-25.0785 195.4334,-19.5415 184.9192,-18.237 186.4006,-25.0785"/>
</g>
<!-- Node5 -->
<g id="node4" class="node">
<title>Node5</title>
<g id="a_node4"><a xlink:href="classCfgToken.html#a5e30ffe3bc7cf2483e390cf023eaa6c0" target="_top" xlink:title="CfgToken::Evaluate">
<polygon fill="#ffffff" stroke="#000000" points="351,-38.5 351,-57.5 461,-57.5 461,-38.5 351,-38.5"/>
<text text-anchor="middle" x="406" y="-45.5" font-family="Helvetica,sans-Serif" font-size="10.00" fill="#000000">CfgToken::Evaluate</text>
</a>
</g>
</g>
<!-- Node4&#45;&gt;Node5 -->
<g id="edge3" class="edge">
<title>Node4&#45;&gt;Node5</title>
<path fill="none" stroke="#191970" d="M315.4415,-48C323.7636,-48 332.1838,-48 340.3661,-48"/>
<polygon fill="#191970" stroke="#191970" points="340.5778,-51.5001 350.5778,-48 340.5778,-44.5001 340.5778,-51.5001"/>
</g>
<!-- Node6 -->
<g id="node5" class="node">
<title>Node6</title>
<g id="a_node5"><a xlink:href="classUserVariable.html#a7cbb83559d78173a8b7810c3ecc3842f" target="_top" xlink:title="UserVariable::SetFrom">
<polygon fill="#ffffff" stroke="#000000" points="497,-38.5 497,-57.5 622,-57.5 622,-38.5 497,-38.5"/>
<text text-anchor="middle" x="559.5" y="-45.5" font-family="Helvetica,sans-Serif" font-size="10.00" fill="#000000">UserVariable::SetFrom</text>
</a>
</g>
</g>
<!-- Node5&#45;&gt;Node6 -->
<g id="edge4" class="edge">
<title>Node5&#45;&gt;Node6</title>
<path fill="none" stroke="#191970" d="M461.417,-48C469.598,-48 478.1303,-48 486.5998,-48"/>
<polygon fill="#191970" stroke="#191970" points="486.872,-51.5001 496.872,-48 486.8719,-44.5001 486.872,-51.5001"/>
</g>
<!-- Node7 -->
<g id="node6" class="node">
<title>Node7</title>
<g id="a_node6"><a xlink:href="classRange.html#a378dde258315602c6929b84cb10f8f8d" target="_top" xlink:title="Range::Range">
<polygon fill="#ffffff" stroke="#000000" points="658,-38.5 658,-57.5 742,-57.5 742,-38.5 658,-38.5"/>
<text text-anchor="middle" x="700" y="-45.5" font-family="Helvetica,sans-Serif" font-size="10.00" fill="#000000">Range::Range</text>
</a>
</g>
</g>
<!-- Node6&#45;&gt;Node7 -->
<g id="edge5" class="edge">
<title>Node6&#45;&gt;Node7</title>
<path fill="none" stroke="#191970" d="M622.353,-48C630.7782,-48 639.347,-48 647.5672,-48"/>
<polygon fill="#191970" stroke="#191970" points="647.7561,-51.5001 657.7561,-48 647.756,-44.5001 647.7561,-51.5001"/>
</g>
</g>
</svg>
