<?xml version="1.0" encoding="UTF-8" standalone="no"?>
<!DOCTYPE svg PUBLIC "-//W3C//DTD SVG 1.1//EN"
 "http://www.w3.org/Graphics/SVG/1.1/DTD/svg11.dtd">
<!-- Generated by graphviz version 2.40.1 (20161225.0304)
 -->
<!-- Title: AudioBuffers::GetIntAudioIns Pages: 1 -->
<svg width="741pt" height="142pt"
 viewBox="0.00 0.00 741.00 142.00" xmlns="http://www.w3.org/2000/svg" xmlns:xlink="http://www.w3.org/1999/xlink">
<g id="graph0" class="graph" transform="scale(1 1) rotate(0) translate(4 138)">
<title>AudioBuffers::GetIntAudioIns</title>
<polygon fill="#ffffff" stroke="transparent" points="-4,4 -4,-138 737,-138 737,4 -4,4"/>
<!-- Node14 -->
<g id="node1" class="node">
<title>Node14</title>
<polygon fill="#bfbfbf" stroke="#000000" points="0,-43.5 0,-62.5 157,-62.5 157,-43.5 0,-43.5"/>
<text text-anchor="middle" x="78.5" y="-50.5" font-family="Helvetica,sans-Serif" font-size="10.00" fill="#000000">AudioBuffers::GetIntAudioIns</text>
</g>
<!-- Node15 -->
<g id="node2" class="node">
<title>Node15</title>
<g id="a_node2"><a xlink:href="classFloConfig.html#a96460020d4ac390b2ab318d49ac42c95" target="_top" xlink:title="FloConfig::ConfigureBasics">
<polygon fill="#ffffff" stroke="#000000" points="193.5,-86.5 193.5,-105.5 339.5,-105.5 339.5,-86.5 193.5,-86.5"/>
<text text-anchor="middle" x="266.5" y="-93.5" font-family="Helvetica,sans-Serif" font-size="10.00" fill="#000000">FloConfig::ConfigureBasics</text>
</a>
</g>
</g>
<!-- Node14&#45;&gt;Node15 -->
<g id="edge1" class="edge">
<title>Node14&#45;&gt;Node15</title>
<path fill="none" stroke="#191970" d="M130.0398,-64.7884C159.8721,-71.6117 196.9279,-80.0872 224.8933,-86.4836"/>
<polygon fill="#191970" stroke="#191970" points="130.752,-61.3609 120.2233,-62.5431 129.1912,-68.1847 130.752,-61.3609"/>
</g>
<!-- Node19 -->
<g id="node6" class="node">
<title>Node19</title>
<g id="a_node6"><a xlink:href="classFloConfig.html#ac0e1101c8fc196548c0e1dc26251ea2b" target="_top" xlink:title="FloConfig::IsStereoMaster">
<polygon fill="#ffffff" stroke="#000000" points="196.5,-43.5 196.5,-62.5 336.5,-62.5 336.5,-43.5 196.5,-43.5"/>
<text text-anchor="middle" x="266.5" y="-50.5" font-family="Helvetica,sans-Serif" font-size="10.00" fill="#000000">FloConfig::IsStereoMaster</text>
</a>
</g>
</g>
<!-- Node14&#45;&gt;Node19 -->
<g id="edge6" class="edge">
<title>Node14&#45;&gt;Node19</title>
<path fill="none" stroke="#191970" d="M167.2412,-53C176.9777,-53 186.7898,-53 196.2576,-53"/>
<polygon fill="#191970" stroke="#191970" points="167.1397,-49.5001 157.1396,-53 167.1396,-56.5001 167.1397,-49.5001"/>
</g>
<!-- Node23 -->
<g id="node10" class="node">
<title>Node23</title>
<g id="a_node10"><a xlink:href="classAudioBuffers.html#aec3e43d2ecc488ec1c9944611ea9c8dd" target="_top" xlink:title="AudioBuffers::AudioBuffers">
<polygon fill="#ffffff" stroke="#000000" points="193,-5.5 193,-24.5 340,-24.5 340,-5.5 193,-5.5"/>
<text text-anchor="middle" x="266.5" y="-12.5" font-family="Helvetica,sans-Serif" font-size="10.00" fill="#000000">AudioBuffers::AudioBuffers</text>
</a>
</g>
</g>
<!-- Node14&#45;&gt;Node23 -->
<g id="edge10" class="edge">
<title>Node14&#45;&gt;Node23</title>
<path fill="none" stroke="#191970" d="M135.9365,-41.3905C162.6744,-35.986 194.0879,-29.6365 219.4008,-24.5201"/>
<polygon fill="#191970" stroke="#191970" points="135.0487,-37.9991 125.9403,-43.411 136.4356,-44.8603 135.0487,-37.9991"/>
</g>
<!-- Node16 -->
<g id="node3" class="node">
<title>Node16</title>
<g id="a_node3"><a xlink:href="classFloConfig.html#a60461cb1265c667f106326ed8067d521" target="_top" xlink:title="FloConfig::ConfigureRoot">
<polygon fill="#ffffff" stroke="#000000" points="387,-95.5 387,-114.5 523,-114.5 523,-95.5 387,-95.5"/>
<text text-anchor="middle" x="455" y="-102.5" font-family="Helvetica,sans-Serif" font-size="10.00" fill="#000000">FloConfig::ConfigureRoot</text>
</a>
</g>
</g>
<!-- Node15&#45;&gt;Node16 -->
<g id="edge2" class="edge">
<title>Node15&#45;&gt;Node16</title>
<path fill="none" stroke="#191970" d="M349.9326,-99.9835C362.2679,-100.5725 374.8536,-101.1734 386.8296,-101.7452"/>
<polygon fill="#191970" stroke="#191970" points="349.8044,-96.4735 339.6488,-99.4925 349.4705,-103.4655 349.8044,-96.4735"/>
</g>
<!-- Node17 -->
<g id="node4" class="node">
<title>Node17</title>
<g id="a_node4"><a xlink:href="classFloConfig.html#a5cc18494ea2e32020314e08e43c920c5" target="_top" xlink:title="FloConfig::ConfigureInterfaces">
<polygon fill="#ffffff" stroke="#000000" points="570,-114.5 570,-133.5 733,-133.5 733,-114.5 570,-114.5"/>
<text text-anchor="middle" x="651.5" y="-121.5" font-family="Helvetica,sans-Serif" font-size="10.00" fill="#000000">FloConfig::ConfigureInterfaces</text>
</a>
</g>
</g>
<!-- Node16&#45;&gt;Node17 -->
<g id="edge3" class="edge">
<title>Node16&#45;&gt;Node17</title>
<path fill="none" stroke="#191970" d="M533.2542,-105.9424C559.8596,-108.1759 588.5077,-111.2921 610.9415,-114.4928"/>
<polygon fill="#191970" stroke="#191970" points="533.4232,-102.4448 523.1747,-105.1313 532.8617,-109.4222 533.4232,-102.4448"/>
</g>
<!-- Node18 -->
<g id="node5" class="node">
<title>Node18</title>
<g id="a_node5"><a xlink:href="classFloConfig.html#a865bfdba679c01b96854166af2103cf2" target="_top" xlink:title="FloConfig::Parse">
<polygon fill="#ffffff" stroke="#000000" points="604.5,-76.5 604.5,-95.5 698.5,-95.5 698.5,-76.5 604.5,-76.5"/>
<text text-anchor="middle" x="651.5" y="-83.5" font-family="Helvetica,sans-Serif" font-size="10.00" fill="#000000">FloConfig::Parse</text>
</a>
</g>
</g>
<!-- Node16&#45;&gt;Node18 -->
<g id="edge5" class="edge">
<title>Node16&#45;&gt;Node18</title>
<path fill="none" stroke="#191970" d="M533.3715,-97.4221C557.4428,-95.0946 583.1756,-92.6064 604.4587,-90.5485"/>
<polygon fill="#191970" stroke="#191970" points="532.7914,-93.9618 523.1747,-98.408 533.4652,-100.9293 532.7914,-93.9618"/>
</g>
<!-- Node17&#45;&gt;Node16 -->
<g id="edge4" class="edge">
<title>Node17&#45;&gt;Node16</title>
<path fill="none" stroke="#191970" d="M559.6404,-121.8552C537.2104,-119.7757 514.3344,-117.1823 495.7149,-114.5295"/>
<polygon fill="#191970" stroke="#191970" points="559.6257,-125.3678 569.8978,-122.7728 560.2495,-118.3956 559.6257,-125.3678"/>
</g>
<!-- Node20 -->
<g id="node7" class="node">
<title>Node20</title>
<g id="a_node7"><a xlink:href="classAudioBuffers.html#ae41352754c280c76eb03a902cbe6819a" target="_top" xlink:title="AudioBuffers::IsStereoMaster">
<polygon fill="#ffffff" stroke="#000000" points="376,-38.5 376,-57.5 534,-57.5 534,-38.5 376,-38.5"/>
<text text-anchor="middle" x="455" y="-45.5" font-family="Helvetica,sans-Serif" font-size="10.00" fill="#000000">AudioBuffers::IsStereoMaster</text>
</a>
</g>
</g>
<!-- Node19&#45;&gt;Node20 -->
<g id="edge7" class="edge">
<title>Node19&#45;&gt;Node20</title>
<path fill="none" stroke="#191970" d="M346.9812,-50.8652C356.5526,-50.6113 366.3176,-50.3523 375.8698,-50.0989"/>
<polygon fill="#191970" stroke="#191970" points="346.5941,-47.3742 336.6904,-51.1382 346.7798,-54.3717 346.5941,-47.3742"/>
</g>
<!-- Node21 -->
<g id="node8" class="node">
<title>Node21</title>
<g id="a_node8"><a xlink:href="classProcessor.html#a2d113c5c4d42aad6cfd6db30614be629" target="_top" xlink:title="Processor::Processor">
<polygon fill="#ffffff" stroke="#000000" points="593,-38.5 593,-57.5 710,-57.5 710,-38.5 593,-38.5"/>
<text text-anchor="middle" x="651.5" y="-45.5" font-family="Helvetica,sans-Serif" font-size="10.00" fill="#000000">Processor::Processor</text>
</a>
</g>
</g>
<!-- Node20&#45;&gt;Node21 -->
<g id="edge8" class="edge">
<title>Node20&#45;&gt;Node21</title>
<path fill="none" stroke="#191970" d="M544.27,-48C560.7416,-48 577.5526,-48 592.8305,-48"/>
<polygon fill="#191970" stroke="#191970" points="544.0747,-44.5001 534.0747,-48 544.0746,-51.5001 544.0747,-44.5001"/>
</g>
<!-- Node22 -->
<g id="node9" class="node">
<title>Node22</title>
<g id="a_node9"><a xlink:href="classRootProcessor.html#aec5fac86449797c873b0c6a1c364309c" target="_top" xlink:title="RootProcessor::RootProcessor">
<polygon fill="#ffffff" stroke="#000000" points="571,-.5 571,-19.5 732,-19.5 732,-.5 571,-.5"/>
<text text-anchor="middle" x="651.5" y="-7.5" font-family="Helvetica,sans-Serif" font-size="10.00" fill="#000000">RootProcessor::RootProcessor</text>
</a>
</g>
</g>
<!-- Node20&#45;&gt;Node22 -->
<g id="edge9" class="edge">
<title>Node20&#45;&gt;Node22</title>
<path fill="none" stroke="#191970" d="M514.4123,-36.5106C542.4495,-31.0886 575.5157,-24.6942 602.1481,-19.5439"/>
<polygon fill="#191970" stroke="#191970" points="513.4852,-33.125 504.3316,-38.46 514.8143,-39.9976 513.4852,-33.125"/>
</g>
</g>
</svg>
