<?xml version="1.0" encoding="UTF-8" standalone="no"?>
<!DOCTYPE svg PUBLIC "-//W3C//DTD SVG 1.1//EN"
 "http://www.w3.org/Graphics/SVG/1.1/DTD/svg11.dtd">
<!-- Generated by graphviz version 2.40.1 (20161225.0304)
 -->
<!-- Title: MidiIO::ReceiveEvent Pages: 1 -->
<svg width="705pt" height="522pt"
 viewBox="0.00 0.00 705.00 522.00" xmlns="http://www.w3.org/2000/svg" xmlns:xlink="http://www.w3.org/1999/xlink">
<g id="graph0" class="graph" transform="scale(1 1) rotate(0) translate(4 518)">
<title>MidiIO::ReceiveEvent</title>
<polygon fill="#ffffff" stroke="transparent" points="-4,4 -4,-518 701,-518 701,4 -4,4"/>
<!-- Node224 -->
<g id="node1" class="node">
<title>Node224</title>
<polygon fill="#bfbfbf" stroke="#000000" points="0,-323.5 0,-342.5 119,-342.5 119,-323.5 0,-323.5"/>
<text text-anchor="middle" x="59.5" y="-330.5" font-family="Helvetica,sans-Serif" font-size="10.00" fill="#000000">MidiIO::ReceiveEvent</text>
</g>
<!-- Node225 -->
<g id="node2" class="node">
<title>Node225</title>
<g id="a_node2"><a xlink:href="classEvent.html#ac4c4170579544b41dff38ca1b8110e30" target="_top" xlink:title="Event::GetType">
<polygon fill="#ffffff" stroke="#000000" points="568,-494.5 568,-513.5 658,-513.5 658,-494.5 568,-494.5"/>
<text text-anchor="middle" x="613" y="-501.5" font-family="Helvetica,sans-Serif" font-size="10.00" fill="#000000">Event::GetType</text>
</a>
</g>
</g>
<!-- Node224&#45;&gt;Node225 -->
<g id="edge1" class="edge">
<title>Node224&#45;&gt;Node225</title>
<path fill="none" stroke="#191970" d="M71.3622,-342.8522C106.2819,-371.1891 212.8104,-452.9215 317,-485 398.067,-509.9594 497.359,-510.6653 557.8596,-507.9955"/>
<polygon fill="#191970" stroke="#191970" points="558.1419,-511.486 567.9592,-507.5023 557.8004,-504.4943 558.1419,-511.486"/>
</g>
<!-- Node226 -->
<g id="node3" class="node">
<title>Node226</title>
<g id="a_node3"><a xlink:href="classMidiIO.html#a3333bf971ca424495ddbd61e956445bc" target="_top" xlink:title="MidiIO::SetBenderTune">
<polygon fill="#ffffff" stroke="#000000" points="155,-285.5 155,-304.5 281,-304.5 281,-285.5 155,-285.5"/>
<text text-anchor="middle" x="218" y="-292.5" font-family="Helvetica,sans-Serif" font-size="10.00" fill="#000000">MidiIO::SetBenderTune</text>
</a>
</g>
</g>
<!-- Node224&#45;&gt;Node226 -->
<g id="edge2" class="edge">
<title>Node224&#45;&gt;Node226</title>
<path fill="none" stroke="#191970" d="M99.4962,-323.411C120.412,-318.3965 146.2081,-312.2119 168.3864,-306.8947"/>
<polygon fill="#191970" stroke="#191970" points="169.383,-310.2551 178.2914,-304.5201 167.7509,-303.448 169.383,-310.2551"/>
</g>
<!-- Node227 -->
<g id="node4" class="node">
<title>Node227</title>
<g id="a_node4"><a xlink:href="classMidiIO.html#aae58e8a30b732a5eee97d76785a5909a" target="_top" xlink:title="MidiIO::EchoEvent">
<polygon fill="#ffffff" stroke="#000000" points="166,-323.5 166,-342.5 270,-342.5 270,-323.5 166,-323.5"/>
<text text-anchor="middle" x="218" y="-330.5" font-family="Helvetica,sans-Serif" font-size="10.00" fill="#000000">MidiIO::EchoEvent</text>
</a>
</g>
</g>
<!-- Node224&#45;&gt;Node227 -->
<g id="edge3" class="edge">
<title>Node224&#45;&gt;Node227</title>
<path fill="none" stroke="#191970" d="M119.4221,-333C131.2198,-333 143.6262,-333 155.5062,-333"/>
<polygon fill="#191970" stroke="#191970" points="155.7821,-336.5001 165.7821,-333 155.7821,-329.5001 155.7821,-336.5001"/>
</g>
<!-- Node227&#45;&gt;Node225 -->
<g id="edge4" class="edge">
<title>Node227&#45;&gt;Node225</title>
<path fill="none" stroke="#191970" d="M270.1988,-333.7358C340.4124,-335.7882 460.2689,-343.3685 493,-371 533.6001,-405.2745 489.8952,-449.0288 529,-485 537.0881,-492.4399 547.4561,-497.1739 558.1282,-500.1425"/>
<polygon fill="#191970" stroke="#191970" points="557.4282,-503.5728 567.9578,-502.3994 558.9947,-496.7503 557.4282,-503.5728"/>
</g>
<!-- Node228 -->
<g id="node5" class="node">
<title>Node228</title>
<g id="a_node5"><a xlink:href="classFweelin.html#a681d7ca8d0789199af135f22c26a5409" target="_top" xlink:title="Fweelin::getCFG">
<polygon fill="#ffffff" stroke="#000000" points="565.5,-456.5 565.5,-475.5 660.5,-475.5 660.5,-456.5 565.5,-456.5"/>
<text text-anchor="middle" x="613" y="-463.5" font-family="Helvetica,sans-Serif" font-size="10.00" fill="#000000">Fweelin::getCFG</text>
</a>
</g>
</g>
<!-- Node227&#45;&gt;Node228 -->
<g id="edge5" class="edge">
<title>Node227&#45;&gt;Node228</title>
<path fill="none" stroke="#191970" d="M247.5545,-323.4625C302.0202,-307.8696 419.3812,-283.7588 493,-338 534.0737,-368.2625 491.2258,-412.7075 529,-447 536.4725,-453.7837 545.8443,-458.311 555.5944,-461.3002"/>
<polygon fill="#191970" stroke="#191970" points="554.8595,-464.7247 565.4142,-463.8033 556.5886,-457.9416 554.8595,-464.7247"/>
</g>
<!-- Node229 -->
<g id="node6" class="node">
<title>Node229</title>
<g id="a_node6"><a xlink:href="classFloConfig.html#aa4a3222eb6e05faeac2e61cf2ea2e32d" target="_top" xlink:title="FloConfig::GetMIDISyncOuts">
<polygon fill="#ffffff" stroke="#000000" points="329,-228.5 329,-247.5 481,-247.5 481,-228.5 329,-228.5"/>
<text text-anchor="middle" x="405" y="-235.5" font-family="Helvetica,sans-Serif" font-size="10.00" fill="#000000">FloConfig::GetMIDISyncOuts</text>
</a>
</g>
</g>
<!-- Node227&#45;&gt;Node229 -->
<g id="edge6" class="edge">
<title>Node227&#45;&gt;Node229</title>
<path fill="none" stroke="#191970" d="M263.9509,-323.4208C270.0288,-320.9602 275.9078,-317.8727 281,-314 304.8495,-295.8622 292.442,-274.1663 317,-257 319.7542,-255.0748 322.6665,-253.3389 325.6909,-251.7741"/>
<polygon fill="#191970" stroke="#191970" points="327.3621,-254.8606 335.0544,-247.5751 324.4978,-248.4734 327.3621,-254.8606"/>
</g>
<!-- Node230 -->
<g id="node7" class="node">
<title>Node230</title>
<g id="a_node7"><a xlink:href="classFloConfig.html#a5fd605df948e783b360f7c2063ee31b8" target="_top" xlink:title="FloConfig::GetNumMIDISyncOuts">
<polygon fill="#ffffff" stroke="#000000" points="317,-190.5 317,-209.5 493,-209.5 493,-190.5 317,-190.5"/>
<text text-anchor="middle" x="405" y="-197.5" font-family="Helvetica,sans-Serif" font-size="10.00" fill="#000000">FloConfig::GetNumMIDISyncOuts</text>
</a>
</g>
</g>
<!-- Node227&#45;&gt;Node230 -->
<g id="edge7" class="edge">
<title>Node227&#45;&gt;Node230</title>
<path fill="none" stroke="#191970" d="M266.6158,-323.4607C271.8751,-320.996 276.8234,-317.8966 281,-314 314.0145,-283.1981 282.7762,-248.4525 317,-219 318.7807,-217.4675 320.6557,-216.0495 322.6078,-214.7378"/>
<polygon fill="#191970" stroke="#191970" points="324.6297,-217.6151 331.6069,-209.6422 321.1805,-211.5239 324.6297,-217.6151"/>
</g>
<!-- Node231 -->
<g id="node8" class="node">
<title>Node231</title>
<g id="a_node8"><a xlink:href="classMidiIO.html#a8b3bd89f9467c68bf87b966ecbf22ea4" target="_top" xlink:title="MidiIO::OutputStartOnPort">
<polygon fill="#ffffff" stroke="#000000" points="333.5,-152.5 333.5,-171.5 476.5,-171.5 476.5,-152.5 333.5,-152.5"/>
<text text-anchor="middle" x="405" y="-159.5" font-family="Helvetica,sans-Serif" font-size="10.00" fill="#000000">MidiIO::OutputStartOnPort</text>
</a>
</g>
</g>
<!-- Node227&#45;&gt;Node231 -->
<g id="edge8" class="edge">
<title>Node227&#45;&gt;Node231</title>
<path fill="none" stroke="#191970" d="M267.9267,-323.3855C272.7664,-320.9276 277.2579,-317.8505 281,-314 323.679,-270.0839 272.5933,-223.1683 317,-181 319.3057,-178.8105 321.8008,-176.849 324.4404,-175.093"/>
<polygon fill="#191970" stroke="#191970" points="326.2725,-178.079 333.308,-170.1573 322.8681,-171.9626 326.2725,-178.079"/>
</g>
<!-- Node232 -->
<g id="node9" class="node">
<title>Node232</title>
<g id="a_node9"><a xlink:href="classMidiIO.html#a9f130a6f6732fcdc5c111a5708afb64f" target="_top" xlink:title="MidiIO::EchoEventToPortChannel">
<polygon fill="#ffffff" stroke="#000000" points="318,-266.5 318,-285.5 492,-285.5 492,-266.5 318,-266.5"/>
<text text-anchor="middle" x="405" y="-273.5" font-family="Helvetica,sans-Serif" font-size="10.00" fill="#000000">MidiIO::EchoEventToPortChannel</text>
</a>
</g>
</g>
<!-- Node227&#45;&gt;Node232 -->
<g id="edge9" class="edge">
<title>Node227&#45;&gt;Node232</title>
<path fill="none" stroke="#191970" d="M251.5052,-323.4241C261.081,-320.5445 271.4955,-317.2758 281,-314 297.2304,-308.4062 300.6965,-305.377 317,-300 329.8231,-295.7709 343.8665,-291.6965 356.8948,-288.1429"/>
<polygon fill="#191970" stroke="#191970" points="357.8712,-291.5048 366.6227,-285.5331 356.0573,-284.7439 357.8712,-291.5048"/>
</g>
<!-- Node245 -->
<g id="node22" class="node">
<title>Node245</title>
<g id="a_node22"><a xlink:href="classMidiIO.html#a86380cf62a271e59f5b7d5b1eba74f30" target="_top" xlink:title="MidiIO::OutputEndOnPort">
<polygon fill="#ffffff" stroke="#000000" points="336.5,-456.5 336.5,-475.5 473.5,-475.5 473.5,-456.5 336.5,-456.5"/>
<text text-anchor="middle" x="405" y="-463.5" font-family="Helvetica,sans-Serif" font-size="10.00" fill="#000000">MidiIO::OutputEndOnPort</text>
</a>
</g>
</g>
<!-- Node227&#45;&gt;Node245 -->
<g id="edge24" class="edge">
<title>Node227&#45;&gt;Node245</title>
<path fill="none" stroke="#191970" d="M223.4659,-342.8104C236.4839,-365.196 271.6519,-420.1749 317,-447 320.7078,-449.1933 324.6373,-451.1346 328.6978,-452.8527"/>
<polygon fill="#191970" stroke="#191970" points="327.7748,-456.2442 338.3672,-456.47 330.2275,-449.688 327.7748,-456.2442"/>
</g>
<!-- Node246 -->
<g id="node23" class="node">
<title>Node246</title>
<g id="a_node23"><a xlink:href="classPatchItem.html#a193dba9833309437fed1241957cd20dd" target="_top" xlink:title="PatchItem::IsCombi">
<polygon fill="#ffffff" stroke="#000000" points="349.5,-418.5 349.5,-437.5 460.5,-437.5 460.5,-418.5 349.5,-418.5"/>
<text text-anchor="middle" x="405" y="-425.5" font-family="Helvetica,sans-Serif" font-size="10.00" fill="#000000">PatchItem::IsCombi</text>
</a>
</g>
</g>
<!-- Node227&#45;&gt;Node246 -->
<g id="edge25" class="edge">
<title>Node227&#45;&gt;Node246</title>
<path fill="none" stroke="#191970" d="M227.4202,-342.6149C243.9711,-358.9189 280.0352,-391.8822 317,-409 324.0804,-412.2788 331.7457,-415.0014 339.4987,-417.2599"/>
<polygon fill="#191970" stroke="#191970" points="338.7645,-420.6863 349.3285,-419.8796 340.5671,-413.9224 338.7645,-420.6863"/>
</g>
<!-- Node247 -->
<g id="node24" class="node">
<title>Node247</title>
<g id="a_node24"><a xlink:href="classPatchItem.html#a80e0a72bb7db8f68cd4f7bc32bb36361" target="_top" xlink:title="PatchItem::GetZone">
<polygon fill="#ffffff" stroke="#000000" points="348.5,-380.5 348.5,-399.5 461.5,-399.5 461.5,-380.5 348.5,-380.5"/>
<text text-anchor="middle" x="405" y="-387.5" font-family="Helvetica,sans-Serif" font-size="10.00" fill="#000000">PatchItem::GetZone</text>
</a>
</g>
</g>
<!-- Node227&#45;&gt;Node247 -->
<g id="edge26" class="edge">
<title>Node227&#45;&gt;Node247</title>
<path fill="none" stroke="#191970" d="M245.1836,-342.5135C265.0013,-349.3383 292.5508,-358.5974 317,-366 330.2854,-370.0225 344.7902,-374.1042 358.1216,-377.7329"/>
<polygon fill="#191970" stroke="#191970" points="357.4814,-381.1852 368.0479,-380.411 359.3048,-374.4269 357.4814,-381.1852"/>
</g>
<!-- Node232&#45;&gt;Node225 -->
<g id="edge11" class="edge">
<title>Node232&#45;&gt;Node225</title>
<path fill="none" stroke="#191970" d="M426.4995,-285.5766C446.7399,-295.7062 476.3612,-313.6059 493,-338 530.9023,-393.5685 481.0176,-437.8605 529,-485 536.8393,-492.7016 547.1014,-497.547 557.7489,-500.5414"/>
<polygon fill="#191970" stroke="#191970" points="557.0472,-503.9713 567.5771,-502.7999 558.615,-497.1491 557.0472,-503.9713"/>
</g>
<!-- Node232&#45;&gt;Node228 -->
<g id="edge10" class="edge">
<title>Node232&#45;&gt;Node228</title>
<path fill="none" stroke="#191970" d="M471.3193,-285.6152C479.394,-289.0959 486.9222,-293.7615 493,-300 539.9386,-348.179 481.0176,-399.8605 529,-447 536.2794,-454.1515 545.6478,-458.8402 555.4739,-461.8711"/>
<polygon fill="#191970" stroke="#191970" points="554.8394,-465.3207 565.3923,-464.3791 556.5555,-458.5343 554.8394,-465.3207"/>
</g>
<!-- Node233 -->
<g id="node10" class="node">
<title>Node233</title>
<g id="a_node10"><a xlink:href="classMidiIO.html#a05eef19c13d0ab29813202dfcf93528a" target="_top" xlink:title="MidiIO::OutputClock">
<polygon fill="#ffffff" stroke="#000000" points="556.5,-190.5 556.5,-209.5 669.5,-209.5 669.5,-190.5 556.5,-190.5"/>
<text text-anchor="middle" x="613" y="-197.5" font-family="Helvetica,sans-Serif" font-size="10.00" fill="#000000">MidiIO::OutputClock</text>
</a>
</g>
</g>
<!-- Node232&#45;&gt;Node233 -->
<g id="edge12" class="edge">
<title>Node232&#45;&gt;Node233</title>
<path fill="none" stroke="#191970" d="M470.5497,-266.4816C478.3815,-264.0145 486.053,-260.909 493,-257 513.2751,-245.5915 508.7811,-230.5078 529,-219 534.4577,-215.8937 540.3855,-213.2953 546.4824,-211.1217"/>
<polygon fill="#191970" stroke="#191970" points="547.6904,-214.4103 556.159,-208.0437 545.5685,-207.7396 547.6904,-214.4103"/>
</g>
<!-- Node234 -->
<g id="node11" class="node">
<title>Node234</title>
<g id="a_node11"><a xlink:href="classMidiIO.html#ae64abd814691dd54b95cc3b0e59325ee" target="_top" xlink:title="MidiIO::OutputSPP">
<polygon fill="#ffffff" stroke="#000000" points="561,-152.5 561,-171.5 665,-171.5 665,-152.5 561,-152.5"/>
<text text-anchor="middle" x="613" y="-159.5" font-family="Helvetica,sans-Serif" font-size="10.00" fill="#000000">MidiIO::OutputSPP</text>
</a>
</g>
</g>
<!-- Node232&#45;&gt;Node234 -->
<g id="edge13" class="edge">
<title>Node232&#45;&gt;Node234</title>
<path fill="none" stroke="#191970" d="M477.2005,-266.3535C482.8611,-263.8626 488.2241,-260.7878 493,-257 522.2834,-233.7746 499.8307,-204.3686 529,-181 535.4707,-175.816 543.0796,-171.9864 551.0299,-169.1676"/>
<polygon fill="#191970" stroke="#191970" points="552.2801,-172.4463 560.8433,-166.2075 550.2585,-165.7446 552.2801,-172.4463"/>
</g>
<!-- Node235 -->
<g id="node12" class="node">
<title>Node235</title>
<g id="a_node12"><a xlink:href="classMidiIO.html#ad2ef39322497b4f96e8ef39d3e015846" target="_top" xlink:title="MidiIO::OutputStart">
<polygon fill="#ffffff" stroke="#000000" points="558,-114.5 558,-133.5 668,-133.5 668,-114.5 558,-114.5"/>
<text text-anchor="middle" x="613" y="-121.5" font-family="Helvetica,sans-Serif" font-size="10.00" fill="#000000">MidiIO::OutputStart</text>
</a>
</g>
</g>
<!-- Node232&#45;&gt;Node235 -->
<g id="edge14" class="edge">
<title>Node232&#45;&gt;Node235</title>
<path fill="none" stroke="#191970" d="M479.0524,-266.4163C484.1101,-263.888 488.8402,-260.789 493,-257 532.2807,-221.2209 489.8952,-178.9712 529,-143 534.5227,-137.9198 541.1085,-134.1013 548.1282,-131.245"/>
<polygon fill="#191970" stroke="#191970" points="549.5698,-134.4517 557.9104,-127.9183 547.316,-127.8244 549.5698,-134.4517"/>
</g>
<!-- Node236 -->
<g id="node13" class="node">
<title>Node236</title>
<g id="a_node13"><a xlink:href="classMidiIO.html#a12a6021bb83e81c66933f76c1b38fc3c" target="_top" xlink:title="MidiIO::OutputStop">
<polygon fill="#ffffff" stroke="#000000" points="559,-76.5 559,-95.5 667,-95.5 667,-76.5 559,-76.5"/>
<text text-anchor="middle" x="613" y="-83.5" font-family="Helvetica,sans-Serif" font-size="10.00" fill="#000000">MidiIO::OutputStop</text>
</a>
</g>
</g>
<!-- Node232&#45;&gt;Node236 -->
<g id="edge15" class="edge">
<title>Node232&#45;&gt;Node236</title>
<path fill="none" stroke="#191970" d="M480.1941,-266.309C484.866,-263.7871 489.2051,-260.7201 493,-257 542.5768,-208.4007 479.662,-153.8417 529,-105 534.6782,-99.379 541.6459,-95.2767 549.1174,-92.3041"/>
<polygon fill="#191970" stroke="#191970" points="550.3909,-95.5696 558.7916,-89.1137 548.1985,-88.9218 550.3909,-95.5696"/>
</g>
<!-- Node237 -->
<g id="node14" class="node">
<title>Node237</title>
<g id="a_node14"><a xlink:href="classMidiIO.html#ade75d48e27670a86a2a109f99ea847b7" target="_top" xlink:title="MidiIO::OutputController">
<polygon fill="#ffffff" stroke="#000000" points="546,-38.5 546,-57.5 680,-57.5 680,-38.5 546,-38.5"/>
<text text-anchor="middle" x="613" y="-45.5" font-family="Helvetica,sans-Serif" font-size="10.00" fill="#000000">MidiIO::OutputController</text>
</a>
</g>
</g>
<!-- Node232&#45;&gt;Node237 -->
<g id="edge16" class="edge">
<title>Node232&#45;&gt;Node237</title>
<path fill="none" stroke="#191970" d="M480.7938,-266.2729C485.2649,-263.7499 489.3995,-260.6932 493,-257 552.9972,-195.4598 469.3052,-128.8336 529,-67 531.3885,-64.5259 534.0259,-62.343 536.8481,-60.419"/>
<polygon fill="#191970" stroke="#191970" points="538.7984,-63.338 545.8053,-55.391 535.372,-57.2339 538.7984,-63.338"/>
</g>
<!-- Node238 -->
<g id="node15" class="node">
<title>Node238</title>
<g id="a_node15"><a xlink:href="classMidiIO.html#a768bb4ca3d6df0d4d7b2dfcc95ce8417" target="_top" xlink:title="MidiIO::getBP">
<polygon fill="#ffffff" stroke="#000000" points="572,-.5 572,-19.5 654,-19.5 654,-.5 572,-.5"/>
<text text-anchor="middle" x="613" y="-7.5" font-family="Helvetica,sans-Serif" font-size="10.00" fill="#000000">MidiIO::getBP</text>
</a>
</g>
</g>
<!-- Node232&#45;&gt;Node238 -->
<g id="edge17" class="edge">
<title>Node232&#45;&gt;Node238</title>
<path fill="none" stroke="#191970" d="M480.9236,-266.3975C485.3642,-263.8453 489.4565,-260.7479 493,-257 563.4802,-182.4549 458.886,-103.8897 529,-29 537.6276,-19.7847 549.7011,-14.5812 562.0092,-11.7457"/>
<polygon fill="#191970" stroke="#191970" points="562.6589,-15.1851 571.8689,-9.948 561.4032,-8.2986 562.6589,-15.1851"/>
</g>
<!-- Node239 -->
<g id="node16" class="node">
<title>Node239</title>
<g id="a_node16"><a xlink:href="classFweelin.html#a4422f3a93561eff272cd5f7ecb0782ee" target="_top" xlink:title="Fweelin::getRP">
<polygon fill="#ffffff" stroke="#000000" points="568.5,-418.5 568.5,-437.5 657.5,-437.5 657.5,-418.5 568.5,-418.5"/>
<text text-anchor="middle" x="613" y="-425.5" font-family="Helvetica,sans-Serif" font-size="10.00" fill="#000000">Fweelin::getRP</text>
</a>
</g>
</g>
<!-- Node232&#45;&gt;Node239 -->
<g id="edge18" class="edge">
<title>Node232&#45;&gt;Node239</title>
<path fill="none" stroke="#191970" d="M469.5369,-285.5185C478.1752,-288.9901 486.3364,-293.6789 493,-300 530.0141,-335.1116 491.2258,-374.7075 529,-409 537.2215,-416.4637 547.7421,-421.1959 558.536,-424.1534"/>
<polygon fill="#191970" stroke="#191970" points="557.942,-427.6074 568.4676,-426.3979 559.4851,-420.7795 557.942,-427.6074"/>
</g>
<!-- Node240 -->
<g id="node17" class="node">
<title>Node240</title>
<g id="a_node17"><a xlink:href="classRootProcessor.html#a2aef0ef0e079427ff5c0b5604fbe7e51" target="_top" xlink:title="RootProcessor::GetSampleCnt">
<polygon fill="#ffffff" stroke="#000000" points="532,-380.5 532,-399.5 694,-399.5 694,-380.5 532,-380.5"/>
<text text-anchor="middle" x="613" y="-387.5" font-family="Helvetica,sans-Serif" font-size="10.00" fill="#000000">RootProcessor::GetSampleCnt</text>
</a>
</g>
</g>
<!-- Node232&#45;&gt;Node240 -->
<g id="edge19" class="edge">
<title>Node232&#45;&gt;Node240</title>
<path fill="none" stroke="#191970" d="M466.449,-285.607C476.0106,-289.0423 485.267,-293.6967 493,-300 520.4238,-322.3537 501.0932,-349.2523 529,-371 531.3218,-372.8094 533.7834,-374.4529 536.3494,-375.9452"/>
<polygon fill="#191970" stroke="#191970" points="534.9126,-379.1396 545.425,-380.4586 538.0296,-372.8718 534.9126,-379.1396"/>
</g>
<!-- Node241 -->
<g id="node18" class="node">
<title>Node241</title>
<g id="a_node18"><a xlink:href="classMidiIO.html#a181e7eb8c9539f60b3ef934abcd3c5d5" target="_top" xlink:title="MidiIO::OutputProgramChange">
<polygon fill="#ffffff" stroke="#000000" points="531,-342.5 531,-361.5 695,-361.5 695,-342.5 531,-342.5"/>
<text text-anchor="middle" x="613" y="-349.5" font-family="Helvetica,sans-Serif" font-size="10.00" fill="#000000">MidiIO::OutputProgramChange</text>
</a>
</g>
</g>
<!-- Node232&#45;&gt;Node241 -->
<g id="edge20" class="edge">
<title>Node232&#45;&gt;Node241</title>
<path fill="none" stroke="#191970" d="M456.3999,-285.6266C468.8346,-289.1266 481.7686,-293.8043 493,-300 512.0052,-310.484 509.7698,-322.9348 529,-333 533.5205,-335.3661 538.3284,-337.4389 543.2669,-339.2548"/>
<polygon fill="#191970" stroke="#191970" points="542.29,-342.6181 552.8833,-342.4393 544.4906,-335.973 542.29,-342.6181"/>
</g>
<!-- Node242 -->
<g id="node19" class="node">
<title>Node242</title>
<g id="a_node19"><a xlink:href="classMidiIO.html#a99ddfc2bfcf9976ac7bab5e281a71f5e" target="_top" xlink:title="MidiIO::OutputChannelPressure">
<polygon fill="#ffffff" stroke="#000000" points="529,-304.5 529,-323.5 697,-323.5 697,-304.5 529,-304.5"/>
<text text-anchor="middle" x="613" y="-311.5" font-family="Helvetica,sans-Serif" font-size="10.00" fill="#000000">MidiIO::OutputChannelPressure</text>
</a>
</g>
</g>
<!-- Node232&#45;&gt;Node242 -->
<g id="edge21" class="edge">
<title>Node232&#45;&gt;Node242</title>
<path fill="none" stroke="#191970" d="M457.2187,-285.54C485.6535,-290.7348 521.0218,-297.1963 550.8678,-302.6489"/>
<polygon fill="#191970" stroke="#191970" points="550.2936,-306.1019 560.7598,-304.4561 551.5517,-299.2158 550.2936,-306.1019"/>
</g>
<!-- Node243 -->
<g id="node20" class="node">
<title>Node243</title>
<g id="a_node20"><a xlink:href="classMidiIO.html#a1632e2b71ba1d177a572c2e7e56c5ba3" target="_top" xlink:title="MidiIO::OutputPitchBend">
<polygon fill="#ffffff" stroke="#000000" points="545.5,-266.5 545.5,-285.5 680.5,-285.5 680.5,-266.5 545.5,-266.5"/>
<text text-anchor="middle" x="613" y="-273.5" font-family="Helvetica,sans-Serif" font-size="10.00" fill="#000000">MidiIO::OutputPitchBend</text>
</a>
</g>
</g>
<!-- Node232&#45;&gt;Node243 -->
<g id="edge22" class="edge">
<title>Node232&#45;&gt;Node243</title>
<path fill="none" stroke="#191970" d="M492.0055,-276C506.3384,-276 521.1138,-276 535.203,-276"/>
<polygon fill="#191970" stroke="#191970" points="535.3247,-279.5001 545.3246,-276 535.3246,-272.5001 535.3247,-279.5001"/>
</g>
<!-- Node244 -->
<g id="node21" class="node">
<title>Node244</title>
<g id="a_node21"><a xlink:href="classMidiIO.html#a5dc5d753cb512121574bc55483237572" target="_top" xlink:title="MidiIO::OutputNote">
<polygon fill="#ffffff" stroke="#000000" points="558,-228.5 558,-247.5 668,-247.5 668,-228.5 558,-228.5"/>
<text text-anchor="middle" x="613" y="-235.5" font-family="Helvetica,sans-Serif" font-size="10.00" fill="#000000">MidiIO::OutputNote</text>
</a>
</g>
</g>
<!-- Node232&#45;&gt;Node244 -->
<g id="edge23" class="edge">
<title>Node232&#45;&gt;Node244</title>
<path fill="none" stroke="#191970" d="M457.2187,-266.46C485.6535,-261.2652 521.0218,-254.8037 550.8678,-249.3511"/>
<polygon fill="#191970" stroke="#191970" points="551.5517,-252.7842 560.7598,-247.5439 550.2936,-245.8981 551.5517,-252.7842"/>
</g>
</g>
</svg>
