<?xml version="1.0" encoding="UTF-8" standalone="no"?>
<!DOCTYPE svg PUBLIC "-//W3C//DTD SVG 1.1//EN"
 "http://www.w3.org/Graphics/SVG/1.1/DTD/svg11.dtd">
<!-- Generated by graphviz version 2.40.1 (20161225.0304)
 -->
<!-- Title: HardwareMixerInterface::control_type Pages: 1 -->
<svg width="842pt" height="137pt"
 viewBox="0.00 0.00 842.00 137.00" xmlns="http://www.w3.org/2000/svg" xmlns:xlink="http://www.w3.org/1999/xlink">
<g id="graph0" class="graph" transform="scale(1 1) rotate(0) translate(4 133)">
<title>HardwareMixerInterface::control_type</title>
<polygon fill="#ffffff" stroke="transparent" points="-4,4 -4,-133 838,-133 838,4 -4,4"/>
<!-- Node49 -->
<g id="node1" class="node">
<title>Node49</title>
<polygon fill="#bfbfbf" stroke="#000000" points="0,-.5 0,-30.5 134,-30.5 134,-.5 0,-.5"/>
<text text-anchor="start" x="8" y="-18.5" font-family="Helvetica,sans-Serif" font-size="10.00" fill="#000000">HardwareMixerInterface</text>
<text text-anchor="middle" x="67" y="-7.5" font-family="Helvetica,sans-Serif" font-size="10.00" fill="#000000">::control_type</text>
</g>
<!-- Node50 -->
<g id="node2" class="node">
<title>Node50</title>
<g id="a_node2"><a xlink:href="classHardwareMixerInterface.html#af7595788a2e9a99336ae2c52128a4b0e" target="_top" xlink:title="HardwareMixerInterface\l::show_control">
<polygon fill="#ffffff" stroke="#000000" points="170,-22.5 170,-52.5 304,-52.5 304,-22.5 170,-22.5"/>
<text text-anchor="start" x="178" y="-40.5" font-family="Helvetica,sans-Serif" font-size="10.00" fill="#000000">HardwareMixerInterface</text>
<text text-anchor="middle" x="237" y="-29.5" font-family="Helvetica,sans-Serif" font-size="10.00" fill="#000000">::show_control</text>
</a>
</g>
</g>
<!-- Node49&#45;&gt;Node50 -->
<g id="edge1" class="edge">
<title>Node49&#45;&gt;Node50</title>
<path fill="none" stroke="#191970" d="M144.146,-25.4836C152.6879,-26.589 161.3366,-27.7083 169.7428,-28.7961"/>
<polygon fill="#191970" stroke="#191970" points="144.555,-22.0074 134.1885,-24.195 143.6566,-28.9495 144.555,-22.0074"/>
</g>
<!-- Node53 -->
<g id="node5" class="node">
<title>Node53</title>
<g id="a_node5"><a xlink:href="classHardwareMixerInterface.html#af861d7e76ac7844ed799ee67ae648b43" target="_top" xlink:title="HardwareMixerInterface\l::HardwareMixerInterface">
<polygon fill="#ffffff" stroke="#000000" points="687,-35.5 687,-65.5 827,-65.5 827,-35.5 687,-35.5"/>
<text text-anchor="start" x="695" y="-53.5" font-family="Helvetica,sans-Serif" font-size="10.00" fill="#000000">HardwareMixerInterface</text>
<text text-anchor="middle" x="757" y="-42.5" font-family="Helvetica,sans-Serif" font-size="10.00" fill="#000000">::HardwareMixerInterface</text>
</a>
</g>
</g>
<!-- Node49&#45;&gt;Node53 -->
<g id="edge8" class="edge">
<title>Node49&#45;&gt;Node53</title>
<path fill="none" stroke="#191970" d="M144.2059,-13.0072C152.9061,-12.7989 161.6431,-12.6217 170,-12.5 229.5492,-11.633 244.4966,-10.0086 304,-12.5 439.8242,-18.1868 597.9557,-33.4246 686.8839,-42.786"/>
<polygon fill="#191970" stroke="#191970" points="143.9428,-9.5127 134.0346,-13.2647 144.12,-16.5104 143.9428,-9.5127"/>
</g>
<!-- Node51 -->
<g id="node3" class="node">
<title>Node51</title>
<g id="a_node3"><a xlink:href="classHardwareMixerInterface.html#a4de903c52121c3cae45ae147a288bd69" target="_top" xlink:title="HardwareMixerInterface\l::cset">
<polygon fill="#ffffff" stroke="#000000" points="340,-60.5 340,-90.5 474,-90.5 474,-60.5 340,-60.5"/>
<text text-anchor="start" x="348" y="-78.5" font-family="Helvetica,sans-Serif" font-size="10.00" fill="#000000">HardwareMixerInterface</text>
<text text-anchor="middle" x="407" y="-67.5" font-family="Helvetica,sans-Serif" font-size="10.00" fill="#000000">::cset</text>
</a>
</g>
</g>
<!-- Node50&#45;&gt;Node51 -->
<g id="edge2" class="edge">
<title>Node50&#45;&gt;Node51</title>
<path fill="none" stroke="#191970" d="M314.146,-54.7444C322.6879,-56.6538 331.3366,-58.587 339.7428,-60.466"/>
<polygon fill="#191970" stroke="#191970" points="314.7112,-51.2844 304.1885,-52.5186 313.1841,-58.1158 314.7112,-51.2844"/>
</g>
<!-- Node50&#45;&gt;Node53 -->
<g id="edge7" class="edge">
<title>Node50&#45;&gt;Node53</title>
<path fill="none" stroke="#191970" d="M314.2874,-39.4322C414.9677,-41.9492 589.5597,-46.314 686.6838,-48.7421"/>
<polygon fill="#191970" stroke="#191970" points="314.2663,-35.9307 304.1819,-39.1795 314.0913,-42.9285 314.2663,-35.9307"/>
</g>
<!-- Node52 -->
<g id="node4" class="node">
<title>Node52</title>
<g id="a_node4"><a xlink:href="classHardwareMixerInterface.html#ab575fcbde123baa1dbd1338d69491e8d" target="_top" xlink:title="HardwareMixerInterface\l::ALSAMixerControlSet">
<polygon fill="#ffffff" stroke="#000000" points="510,-98.5 510,-128.5 644,-128.5 644,-98.5 510,-98.5"/>
<text text-anchor="start" x="518" y="-116.5" font-family="Helvetica,sans-Serif" font-size="10.00" fill="#000000">HardwareMixerInterface</text>
<text text-anchor="middle" x="577" y="-105.5" font-family="Helvetica,sans-Serif" font-size="10.00" fill="#000000">::ALSAMixerControlSet</text>
</a>
</g>
</g>
<!-- Node51&#45;&gt;Node52 -->
<g id="edge3" class="edge">
<title>Node51&#45;&gt;Node52</title>
<path fill="none" stroke="#191970" d="M484.146,-92.7444C492.6879,-94.6538 501.3366,-96.587 509.7428,-98.466"/>
<polygon fill="#191970" stroke="#191970" points="484.7112,-89.2844 474.1885,-90.5186 483.1841,-96.1158 484.7112,-89.2844"/>
</g>
<!-- Node51&#45;&gt;Node53 -->
<g id="edge6" class="edge">
<title>Node51&#45;&gt;Node53</title>
<path fill="none" stroke="#191970" d="M484.3318,-69.9763C544.842,-65.6541 628.2706,-59.695 686.8589,-55.5101"/>
<polygon fill="#191970" stroke="#191970" points="483.7946,-66.5057 474.0694,-70.7093 484.2934,-73.4879 483.7946,-66.5057"/>
</g>
<!-- Node52&#45;&gt;Node53 -->
<g id="edge4" class="edge">
<title>Node52&#45;&gt;Node53</title>
<path fill="none" stroke="#191970" d="M629.7186,-95.0485C656.5056,-85.673 688.6448,-74.4243 713.9257,-65.576"/>
<polygon fill="#191970" stroke="#191970" points="628.3968,-91.8029 620.1145,-98.4099 630.7093,-98.4099 628.3968,-91.8029"/>
</g>
<!-- Node54 -->
<g id="node6" class="node">
<title>Node54</title>
<g id="a_node6"><a xlink:href="classLoopManager.html#a4aada2d07b7ce0a67a8119ece4805966" target="_top" xlink:title="LoopManager::ReceiveEvent">
<polygon fill="#ffffff" stroke="#000000" points="680,-104 680,-123 834,-123 834,-104 680,-104"/>
<text text-anchor="middle" x="757" y="-111" font-family="Helvetica,sans-Serif" font-size="10.00" fill="#000000">LoopManager::ReceiveEvent</text>
</a>
</g>
</g>
<!-- Node52&#45;&gt;Node54 -->
<g id="edge5" class="edge">
<title>Node52&#45;&gt;Node54</title>
<path fill="none" stroke="#191970" d="M654.285,-113.5C662.7758,-113.5 671.4206,-113.5 679.9091,-113.5"/>
<polygon fill="#191970" stroke="#191970" points="654.0254,-110.0001 644.0254,-113.5 654.0253,-117.0001 654.0254,-110.0001"/>
</g>
</g>
</svg>
