<?xml version="1.0" encoding="UTF-8" standalone="no"?>
<!DOCTYPE svg PUBLIC "-//W3C//DTD SVG 1.1//EN"
 "http://www.w3.org/Graphics/SVG/1.1/DTD/svg11.dtd">
<!-- Generated by graphviz version 2.40.1 (20161225.0304)
 -->
<!-- Title: ParsedExpression::~ParsedExpression Pages: 1 -->
<svg width="545pt" height="66pt"
 viewBox="0.00 0.00 545.00 66.00" xmlns="http://www.w3.org/2000/svg" xmlns:xlink="http://www.w3.org/1999/xlink">
<g id="graph0" class="graph" transform="scale(1 1) rotate(0) translate(4 62)">
<title>ParsedExpression::~ParsedExpression</title>
<polygon fill="#ffffff" stroke="transparent" points="-4,4 -4,-62 541,-62 541,4 -4,4"/>
<!-- Node2 -->
<g id="node1" class="node">
<title>Node2</title>
<polygon fill="#bfbfbf" stroke="#000000" points="0,-14 0,-44 110,-44 110,-14 0,-14"/>
<text text-anchor="start" x="8" y="-32" font-family="Helvetica,sans-Serif" font-size="10.00" fill="#000000">ParsedExpression::</text>
<text text-anchor="middle" x="55" y="-21" font-family="Helvetica,sans-Serif" font-size="10.00" fill="#000000">~ParsedExpression</text>
</g>
<!-- Node3 -->
<g id="node2" class="node">
<title>Node3</title>
<g id="a_node2"><a xlink:href="classCfgToken.html#a5e30ffe3bc7cf2483e390cf023eaa6c0" target="_top" xlink:title="CfgToken::Evaluate">
<polygon fill="#ffffff" stroke="#000000" points="146,-38.5 146,-57.5 256,-57.5 256,-38.5 146,-38.5"/>
<text text-anchor="middle" x="201" y="-45.5" font-family="Helvetica,sans-Serif" font-size="10.00" fill="#000000">CfgToken::Evaluate</text>
</a>
</g>
</g>
<!-- Node2&#45;&gt;Node3 -->
<g id="edge1" class="edge">
<title>Node2&#45;&gt;Node3</title>
<path fill="none" stroke="#191970" d="M110.1963,-36.1831C118.5541,-37.2707 127.2434,-38.4015 135.7888,-39.5136"/>
<polygon fill="#191970" stroke="#191970" points="135.3575,-42.9869 145.7256,-40.8068 136.2609,-36.0454 135.3575,-42.9869"/>
</g>
<!-- Node6 -->
<g id="node5" class="node">
<title>Node6</title>
<g id="a_node5"><a xlink:href="classCfgToken.html#abba9204af7f225da0c2c0793c119cf8b" target="_top" xlink:title="CfgToken::Print">
<polygon fill="#ffffff" stroke="#000000" points="156,-.5 156,-19.5 246,-19.5 246,-.5 156,-.5"/>
<text text-anchor="middle" x="201" y="-7.5" font-family="Helvetica,sans-Serif" font-size="10.00" fill="#000000">CfgToken::Print</text>
</a>
</g>
</g>
<!-- Node2&#45;&gt;Node6 -->
<g id="edge4" class="edge">
<title>Node2&#45;&gt;Node6</title>
<path fill="none" stroke="#191970" d="M110.1963,-21.8169C121.8132,-20.3051 134.0706,-18.71 145.6915,-17.1977"/>
<polygon fill="#191970" stroke="#191970" points="146.2432,-20.6555 155.7079,-15.8942 145.3398,-13.714 146.2432,-20.6555"/>
</g>
<!-- Node4 -->
<g id="node3" class="node">
<title>Node4</title>
<g id="a_node3"><a xlink:href="classUserVariable.html#a7cbb83559d78173a8b7810c3ecc3842f" target="_top" xlink:title="UserVariable::SetFrom">
<polygon fill="#ffffff" stroke="#000000" points="292,-38.5 292,-57.5 417,-57.5 417,-38.5 292,-38.5"/>
<text text-anchor="middle" x="354.5" y="-45.5" font-family="Helvetica,sans-Serif" font-size="10.00" fill="#000000">UserVariable::SetFrom</text>
</a>
</g>
</g>
<!-- Node3&#45;&gt;Node4 -->
<g id="edge2" class="edge">
<title>Node3&#45;&gt;Node4</title>
<path fill="none" stroke="#191970" d="M256.417,-48C264.598,-48 273.1303,-48 281.5998,-48"/>
<polygon fill="#191970" stroke="#191970" points="281.872,-51.5001 291.872,-48 281.8719,-44.5001 281.872,-51.5001"/>
</g>
<!-- Node5 -->
<g id="node4" class="node">
<title>Node5</title>
<g id="a_node4"><a xlink:href="classRange.html#a378dde258315602c6929b84cb10f8f8d" target="_top" xlink:title="Range::Range">
<polygon fill="#ffffff" stroke="#000000" points="453,-38.5 453,-57.5 537,-57.5 537,-38.5 453,-38.5"/>
<text text-anchor="middle" x="495" y="-45.5" font-family="Helvetica,sans-Serif" font-size="10.00" fill="#000000">Range::Range</text>
</a>
</g>
</g>
<!-- Node4&#45;&gt;Node5 -->
<g id="edge3" class="edge">
<title>Node4&#45;&gt;Node5</title>
<path fill="none" stroke="#191970" d="M417.353,-48C425.7782,-48 434.347,-48 442.5672,-48"/>
<polygon fill="#191970" stroke="#191970" points="442.7561,-51.5001 452.7561,-48 442.756,-44.5001 442.7561,-51.5001"/>
</g>
</g>
</svg>
