<?xml version="1.0" encoding="UTF-8" standalone="no"?>
<!DOCTYPE svg PUBLIC "-//W3C//DTD SVG 1.1//EN"
 "http://www.w3.org/Graphics/SVG/1.1/DTD/svg11.dtd">
<!-- Generated by graphviz version 2.40.1 (20161225.0304)
 -->
<!-- Title: BlockManager::RefDeleted Pages: 1 -->
<svg width="742pt" height="192pt"
 viewBox="0.00 0.00 742.00 192.00" xmlns="http://www.w3.org/2000/svg" xmlns:xlink="http://www.w3.org/1999/xlink">
<g id="graph0" class="graph" transform="scale(1 1) rotate(0) translate(4 188)">
<title>BlockManager::RefDeleted</title>
<polygon fill="#ffffff" stroke="transparent" points="-4,4 -4,-188 738,-188 738,4 -4,4"/>
<!-- Node159 -->
<g id="node1" class="node">
<title>Node159</title>
<polygon fill="#bfbfbf" stroke="#000000" points="0,-88.5 0,-107.5 146,-107.5 146,-88.5 0,-88.5"/>
<text text-anchor="middle" x="73" y="-95.5" font-family="Helvetica,sans-Serif" font-size="10.00" fill="#000000">BlockManager::RefDeleted</text>
</g>
<!-- Node160 -->
<g id="node2" class="node">
<title>Node160</title>
<g id="a_node2"><a xlink:href="classLoopManager.html#aadca58536e41c8b0b8fd148ac40b23c0" target="_top" xlink:title="LoopManager::~LoopManager">
<polygon fill="#ffffff" stroke="#000000" points="185,-164.5 185,-183.5 346,-183.5 346,-164.5 185,-164.5"/>
<text text-anchor="middle" x="265.5" y="-171.5" font-family="Helvetica,sans-Serif" font-size="10.00" fill="#000000">LoopManager::~LoopManager</text>
</a>
</g>
</g>
<!-- Node159&#45;&gt;Node160 -->
<g id="edge1" class="edge">
<title>Node159&#45;&gt;Node160</title>
<path fill="none" stroke="#191970" d="M97.0825,-112.9145C118.6341,-125.6885 151.4511,-143.7524 182,-155 192.0451,-158.6984 203.0448,-161.8194 213.6676,-164.3952"/>
<polygon fill="#191970" stroke="#191970" points="98.6719,-109.7861 88.2987,-107.6302 95.0634,-115.7844 98.6719,-109.7861"/>
</g>
<!-- Node161 -->
<g id="node3" class="node">
<title>Node161</title>
<g id="a_node3"><a xlink:href="classLoopManager.html#a332a9868980750f28fbf0e05b2336174" target="_top" xlink:title="LoopManager::DeleteLoop">
<polygon fill="#ffffff" stroke="#000000" points="194,-126.5 194,-145.5 337,-145.5 337,-126.5 194,-126.5"/>
<text text-anchor="middle" x="265.5" y="-133.5" font-family="Helvetica,sans-Serif" font-size="10.00" fill="#000000">LoopManager::DeleteLoop</text>
</a>
</g>
</g>
<!-- Node159&#45;&gt;Node161 -->
<g id="edge2" class="edge">
<title>Node159&#45;&gt;Node161</title>
<path fill="none" stroke="#191970" d="M131.4498,-109.5381C158.9057,-114.958 191.2405,-121.341 217.2734,-126.4799"/>
<polygon fill="#191970" stroke="#191970" points="132.0644,-106.092 121.5759,-107.589 130.7087,-112.9595 132.0644,-106.092"/>
</g>
<!-- Node165 -->
<g id="node7" class="node">
<title>Node165</title>
<g id="a_node7"><a xlink:href="classPulse.html#a0081f88108dfc1585a23eae533be0190" target="_top" xlink:title="Pulse::~Pulse">
<polygon fill="#ffffff" stroke="#000000" points="224,-88.5 224,-107.5 307,-107.5 307,-88.5 224,-88.5"/>
<text text-anchor="middle" x="265.5" y="-95.5" font-family="Helvetica,sans-Serif" font-size="10.00" fill="#000000">Pulse::~Pulse</text>
</a>
</g>
</g>
<!-- Node159&#45;&gt;Node165 -->
<g id="edge7" class="edge">
<title>Node159&#45;&gt;Node165</title>
<path fill="none" stroke="#191970" d="M156.3141,-98C179.6267,-98 203.9704,-98 223.7401,-98"/>
<polygon fill="#191970" stroke="#191970" points="156.0505,-94.5001 146.0505,-98 156.0504,-101.5001 156.0505,-94.5001"/>
</g>
<!-- Node166 -->
<g id="node8" class="node">
<title>Node166</title>
<g id="a_node8"><a xlink:href="classRecordProcessor.html#a63fbf98c72bafa6c2e24a3962bdae70c" target="_top" xlink:title="RecordProcessor::~Record\lProcessor">
<polygon fill="#ffffff" stroke="#000000" points="193.5,-39 193.5,-69 337.5,-69 337.5,-39 193.5,-39"/>
<text text-anchor="start" x="201.5" y="-57" font-family="Helvetica,sans-Serif" font-size="10.00" fill="#000000">RecordProcessor::~Record</text>
<text text-anchor="middle" x="265.5" y="-46" font-family="Helvetica,sans-Serif" font-size="10.00" fill="#000000">Processor</text>
</a>
</g>
</g>
<!-- Node159&#45;&gt;Node166 -->
<g id="edge8" class="edge">
<title>Node159&#45;&gt;Node166</title>
<path fill="none" stroke="#191970" d="M124.6826,-86.1868C147.7115,-80.9231 175.1086,-74.6609 199.589,-69.0654"/>
<polygon fill="#191970" stroke="#191970" points="123.7383,-82.8123 114.7696,-88.4527 125.2981,-89.6363 123.7383,-82.8123"/>
</g>
<!-- Node167 -->
<g id="node9" class="node">
<title>Node167</title>
<g id="a_node9"><a xlink:href="classPlayProcessor.html#a3df8da4a26e768d00b0cfada90b37cc9" target="_top" xlink:title="PlayProcessor::~PlayProcessor">
<polygon fill="#ffffff" stroke="#000000" points="182,-.5 182,-19.5 349,-19.5 349,-.5 182,-.5"/>
<text text-anchor="middle" x="265.5" y="-7.5" font-family="Helvetica,sans-Serif" font-size="10.00" fill="#000000">PlayProcessor::~PlayProcessor</text>
</a>
</g>
</g>
<!-- Node159&#45;&gt;Node167 -->
<g id="edge9" class="edge">
<title>Node159&#45;&gt;Node167</title>
<path fill="none" stroke="#191970" d="M93.1356,-82.2655C114.1768,-66.5657 148.705,-42.8437 182,-29 191.1976,-25.1757 201.3003,-22.0518 211.2043,-19.5236"/>
<polygon fill="#191970" stroke="#191970" points="90.836,-79.6169 84.9865,-88.4506 95.068,-85.1927 90.836,-79.6169"/>
</g>
<!-- Node162 -->
<g id="node4" class="node">
<title>Node162</title>
<g id="a_node4"><a xlink:href="classLoopManager.html#a6048a702c9cec3676a1c56792b16ec44" target="_top" xlink:title="LoopManager::ReadComplete">
<polygon fill="#ffffff" stroke="#000000" points="385,-164.5 385,-183.5 544,-183.5 544,-164.5 385,-164.5"/>
<text text-anchor="middle" x="464.5" y="-171.5" font-family="Helvetica,sans-Serif" font-size="10.00" fill="#000000">LoopManager::ReadComplete</text>
</a>
</g>
</g>
<!-- Node161&#45;&gt;Node162 -->
<g id="edge3" class="edge">
<title>Node161&#45;&gt;Node162</title>
<path fill="none" stroke="#191970" d="M325.2949,-147.4181C353.7682,-152.8552 387.4307,-159.2832 414.5202,-164.4561"/>
<polygon fill="#191970" stroke="#191970" points="325.9383,-143.9778 315.4592,-145.54 324.6253,-150.8536 325.9383,-143.9778"/>
</g>
<!-- Node163 -->
<g id="node5" class="node">
<title>Node163</title>
<g id="a_node5"><a xlink:href="classLoopManager.html#a8efb4c8acabceb10faa8660c14c89d71" target="_top" xlink:title="LoopManager::DeletePulse">
<polygon fill="#ffffff" stroke="#000000" points="391.5,-126.5 391.5,-145.5 537.5,-145.5 537.5,-126.5 391.5,-126.5"/>
<text text-anchor="middle" x="464.5" y="-133.5" font-family="Helvetica,sans-Serif" font-size="10.00" fill="#000000">LoopManager::DeletePulse</text>
</a>
</g>
</g>
<!-- Node161&#45;&gt;Node163 -->
<g id="edge4" class="edge">
<title>Node161&#45;&gt;Node163</title>
<path fill="none" stroke="#191970" d="M347.0833,-136C361.7046,-136 376.8596,-136 391.2288,-136"/>
<polygon fill="#191970" stroke="#191970" points="347.0625,-132.5001 337.0624,-136 347.0624,-139.5001 347.0625,-132.5001"/>
</g>
<!-- Node164 -->
<g id="node6" class="node">
<title>Node164</title>
<g id="a_node6"><a xlink:href="classLoopManager.html#a4aada2d07b7ce0a67a8119ece4805966" target="_top" xlink:title="LoopManager::ReceiveEvent">
<polygon fill="#ffffff" stroke="#000000" points="580,-107.5 580,-126.5 734,-126.5 734,-107.5 580,-107.5"/>
<text text-anchor="middle" x="657" y="-114.5" font-family="Helvetica,sans-Serif" font-size="10.00" fill="#000000">LoopManager::ReceiveEvent</text>
</a>
</g>
</g>
<!-- Node161&#45;&gt;Node164 -->
<g id="edge6" class="edge">
<title>Node161&#45;&gt;Node164</title>
<path fill="none" stroke="#191970" d="M324.0097,-124.8102C343.3492,-121.6173 365.0267,-118.5779 385,-117 450.5527,-111.8212 525.2696,-112.2764 579.7856,-113.7687"/>
<polygon fill="#191970" stroke="#191970" points="323.4042,-121.3628 314.1309,-126.4869 324.5757,-128.2641 323.4042,-121.3628"/>
</g>
<!-- Node163&#45;&gt;Node164 -->
<g id="edge5" class="edge">
<title>Node163&#45;&gt;Node164</title>
<path fill="none" stroke="#191970" d="M547.6986,-127.7882C558.3711,-126.7348 569.2618,-125.6599 579.8326,-124.6165"/>
<polygon fill="#191970" stroke="#191970" points="547.1583,-124.3244 537.5505,-128.7898 547.8459,-131.2906 547.1583,-124.3244"/>
</g>
</g>
</svg>
