<?xml version="1.0" encoding="UTF-8" standalone="no"?>
<!DOCTYPE svg PUBLIC "-//W3C//DTD SVG 1.1//EN"
 "http://www.w3.org/Graphics/SVG/1.1/DTD/svg11.dtd">
<!-- Generated by graphviz version 2.40.1 (20161225.0304)
 -->
<!-- Title: LoopManager::Activate Pages: 1 -->
<svg width="500pt" height="47pt"
 viewBox="0.00 0.00 500.00 47.00" xmlns="http://www.w3.org/2000/svg" xmlns:xlink="http://www.w3.org/1999/xlink">
<g id="graph0" class="graph" transform="scale(1 1) rotate(0) translate(4 43)">
<title>LoopManager::Activate</title>
<polygon fill="#ffffff" stroke="transparent" points="-4,4 -4,-43 496,-43 496,4 -4,4"/>
<!-- Node60 -->
<g id="node1" class="node">
<title>Node60</title>
<polygon fill="#bfbfbf" stroke="#000000" points="0,-.5 0,-19.5 128,-19.5 128,-.5 0,-.5"/>
<text text-anchor="middle" x="64" y="-7.5" font-family="Helvetica,sans-Serif" font-size="10.00" fill="#000000">LoopManager::Activate</text>
</g>
<!-- Node61 -->
<g id="node2" class="node">
<title>Node61</title>
<g id="a_node2"><a xlink:href="classFweelin.html#a4654015e2bc7cc94f3bfc421899a60d3" target="_top" xlink:title="Fweelin::TriggerSnapshot">
<polygon fill="#ffffff" stroke="#000000" points="164,-19.5 164,-38.5 302,-38.5 302,-19.5 164,-19.5"/>
<text text-anchor="middle" x="233" y="-26.5" font-family="Helvetica,sans-Serif" font-size="10.00" fill="#000000">Fweelin::TriggerSnapshot</text>
</a>
</g>
</g>
<!-- Node60&#45;&gt;Node61 -->
<g id="edge1" class="edge">
<title>Node60&#45;&gt;Node61</title>
<path fill="none" stroke="#191970" d="M138.5155,-18.3775C146.9026,-19.3204 155.4228,-20.2783 163.7393,-21.2133"/>
<polygon fill="#191970" stroke="#191970" points="138.7022,-14.8765 128.3738,-17.2373 137.9201,-21.8327 138.7022,-14.8765"/>
</g>
<!-- Node62 -->
<g id="node3" class="node">
<title>Node62</title>
<g id="a_node3"><a xlink:href="classLoopManager.html#a4aada2d07b7ce0a67a8119ece4805966" target="_top" xlink:title="LoopManager::ReceiveEvent">
<polygon fill="#ffffff" stroke="#000000" points="338,-.5 338,-19.5 492,-19.5 492,-.5 338,-.5"/>
<text text-anchor="middle" x="415" y="-7.5" font-family="Helvetica,sans-Serif" font-size="10.00" fill="#000000">LoopManager::ReceiveEvent</text>
</a>
</g>
</g>
<!-- Node60&#45;&gt;Node62 -->
<g id="edge3" class="edge">
<title>Node60&#45;&gt;Node62</title>
<path fill="none" stroke="#191970" d="M138.6822,-10C197.3009,-10 278.6266,-10 337.8664,-10"/>
<polygon fill="#191970" stroke="#191970" points="138.3788,-6.5001 128.3788,-10 138.3788,-13.5001 138.3788,-6.5001"/>
</g>
<!-- Node61&#45;&gt;Node62 -->
<g id="edge2" class="edge">
<title>Node61&#45;&gt;Node62</title>
<path fill="none" stroke="#191970" d="M312.2897,-20.7225C320.7435,-19.84 329.3344,-18.9431 337.7641,-18.0631"/>
<polygon fill="#191970" stroke="#191970" points="311.6484,-17.2703 302.0659,-21.7898 312.3753,-24.2325 311.6484,-17.2703"/>
</g>
</g>
</svg>
