<?xml version="1.0" encoding="UTF-8" standalone="no"?>
<!DOCTYPE svg PUBLIC "-//W3C//DTD SVG 1.1//EN"
 "http://www.w3.org/Graphics/SVG/1.1/DTD/svg11.dtd">
<!-- Generated by graphviz version 2.40.1 (20161225.0304)
 -->
<!-- Title: FloDisplayBarSwitch::Draw Pages: 1 -->
<svg width="738pt" height="104pt"
 viewBox="0.00 0.00 738.00 104.00" xmlns="http://www.w3.org/2000/svg" xmlns:xlink="http://www.w3.org/1999/xlink">
<g id="graph0" class="graph" transform="scale(1 1) rotate(0) translate(4 100)">
<title>FloDisplayBarSwitch::Draw</title>
<polygon fill="#ffffff" stroke="transparent" points="-4,4 -4,-100 734,-100 734,4 -4,4"/>
<!-- Node4 -->
<g id="node1" class="node">
<title>Node4</title>
<polygon fill="#bfbfbf" stroke="#000000" points="0,-33 0,-63 116,-63 116,-33 0,-33"/>
<text text-anchor="start" x="8" y="-51" font-family="Helvetica,sans-Serif" font-size="10.00" fill="#000000">FloDisplayBarSwitch</text>
<text text-anchor="middle" x="58" y="-40" font-family="Helvetica,sans-Serif" font-size="10.00" fill="#000000">::Draw</text>
</g>
<!-- Node5 -->
<g id="node2" class="node">
<title>Node5</title>
<g id="a_node2"><a xlink:href="classVideoIO.html#a8a7592b69863218540f5185683f8b3fc" target="_top" xlink:title="VideoIO::draw_text">
<polygon fill="#ffffff" stroke="#000000" points="172.5,-76.5 172.5,-95.5 282.5,-95.5 282.5,-76.5 172.5,-76.5"/>
<text text-anchor="middle" x="227.5" y="-83.5" font-family="Helvetica,sans-Serif" font-size="10.00" fill="#000000">VideoIO::draw_text</text>
</a>
</g>
</g>
<!-- Node4&#45;&gt;Node5 -->
<g id="edge1" class="edge">
<title>Node4&#45;&gt;Node5</title>
<path fill="none" stroke="#191970" d="M116.3323,-61.0774C135.4892,-65.3722 156.6471,-70.1156 175.3178,-74.3013"/>
<polygon fill="#191970" stroke="#191970" points="174.594,-77.7259 185.1175,-76.4983 176.1254,-70.8954 174.594,-77.7259"/>
</g>
<!-- Node6 -->
<g id="node3" class="node">
<title>Node6</title>
<g id="a_node3"><a xlink:href="classParsedExpression.html#a8b8c5462181f05c11f51df722809ac7e" target="_top" xlink:title="ParsedExpression::Evaluate">
<polygon fill="#ffffff" stroke="#000000" points="152,-38.5 152,-57.5 303,-57.5 303,-38.5 152,-38.5"/>
<text text-anchor="middle" x="227.5" y="-45.5" font-family="Helvetica,sans-Serif" font-size="10.00" fill="#000000">ParsedExpression::Evaluate</text>
</a>
</g>
</g>
<!-- Node4&#45;&gt;Node6 -->
<g id="edge2" class="edge">
<title>Node4&#45;&gt;Node6</title>
<path fill="none" stroke="#191970" d="M116.3323,-48C124.5918,-48 133.2232,-48 141.8669,-48"/>
<polygon fill="#191970" stroke="#191970" points="141.998,-51.5001 151.998,-48 141.9979,-44.5001 141.998,-51.5001"/>
</g>
<!-- Node10 -->
<g id="node7" class="node">
<title>Node10</title>
<g id="a_node7"><a xlink:href="classAudioLevel.html#a1caa1395a52d7e61691c54f0286914dd" target="_top" xlink:title="AudioLevel::dB_to_fader">
<polygon fill="#ffffff" stroke="#000000" points="160,-.5 160,-19.5 295,-19.5 295,-.5 160,-.5"/>
<text text-anchor="middle" x="227.5" y="-7.5" font-family="Helvetica,sans-Serif" font-size="10.00" fill="#000000">AudioLevel::dB_to_fader</text>
</a>
</g>
</g>
<!-- Node4&#45;&gt;Node10 -->
<g id="edge6" class="edge">
<title>Node4&#45;&gt;Node10</title>
<path fill="none" stroke="#191970" d="M116.3323,-34.9226C135.4892,-30.6278 156.6471,-25.8844 175.3178,-21.6987"/>
<polygon fill="#191970" stroke="#191970" points="176.1254,-25.1046 185.1175,-19.5017 174.594,-18.2741 176.1254,-25.1046"/>
</g>
<!-- Node7 -->
<g id="node4" class="node">
<title>Node7</title>
<g id="a_node4"><a xlink:href="classCfgToken.html#a5e30ffe3bc7cf2483e390cf023eaa6c0" target="_top" xlink:title="CfgToken::Evaluate">
<polygon fill="#ffffff" stroke="#000000" points="339,-38.5 339,-57.5 449,-57.5 449,-38.5 339,-38.5"/>
<text text-anchor="middle" x="394" y="-45.5" font-family="Helvetica,sans-Serif" font-size="10.00" fill="#000000">CfgToken::Evaluate</text>
</a>
</g>
</g>
<!-- Node6&#45;&gt;Node7 -->
<g id="edge3" class="edge">
<title>Node6&#45;&gt;Node7</title>
<path fill="none" stroke="#191970" d="M303.4415,-48C311.7636,-48 320.1838,-48 328.3661,-48"/>
<polygon fill="#191970" stroke="#191970" points="328.5778,-51.5001 338.5778,-48 328.5778,-44.5001 328.5778,-51.5001"/>
</g>
<!-- Node8 -->
<g id="node5" class="node">
<title>Node8</title>
<g id="a_node5"><a xlink:href="classUserVariable.html#a7cbb83559d78173a8b7810c3ecc3842f" target="_top" xlink:title="UserVariable::SetFrom">
<polygon fill="#ffffff" stroke="#000000" points="485,-38.5 485,-57.5 610,-57.5 610,-38.5 485,-38.5"/>
<text text-anchor="middle" x="547.5" y="-45.5" font-family="Helvetica,sans-Serif" font-size="10.00" fill="#000000">UserVariable::SetFrom</text>
</a>
</g>
</g>
<!-- Node7&#45;&gt;Node8 -->
<g id="edge4" class="edge">
<title>Node7&#45;&gt;Node8</title>
<path fill="none" stroke="#191970" d="M449.417,-48C457.598,-48 466.1303,-48 474.5998,-48"/>
<polygon fill="#191970" stroke="#191970" points="474.872,-51.5001 484.872,-48 474.8719,-44.5001 474.872,-51.5001"/>
</g>
<!-- Node9 -->
<g id="node6" class="node">
<title>Node9</title>
<g id="a_node6"><a xlink:href="classRange.html#a378dde258315602c6929b84cb10f8f8d" target="_top" xlink:title="Range::Range">
<polygon fill="#ffffff" stroke="#000000" points="646,-38.5 646,-57.5 730,-57.5 730,-38.5 646,-38.5"/>
<text text-anchor="middle" x="688" y="-45.5" font-family="Helvetica,sans-Serif" font-size="10.00" fill="#000000">Range::Range</text>
</a>
</g>
</g>
<!-- Node8&#45;&gt;Node9 -->
<g id="edge5" class="edge">
<title>Node8&#45;&gt;Node9</title>
<path fill="none" stroke="#191970" d="M610.353,-48C618.7782,-48 627.347,-48 635.5672,-48"/>
<polygon fill="#191970" stroke="#191970" points="635.7561,-51.5001 645.7561,-48 635.756,-44.5001 635.7561,-51.5001"/>
</g>
<!-- Node11 -->
<g id="node8" class="node">
<title>Node11</title>
<g id="a_node8"><a xlink:href="fweelin__core__dsp_8cc.html#aa8e70840b54e71eb9300384906358f42" target="_top" xlink:title="iec_dB_to_fader">
<polygon fill="#ffffff" stroke="#000000" points="346.5,-.5 346.5,-19.5 441.5,-19.5 441.5,-.5 346.5,-.5"/>
<text text-anchor="middle" x="394" y="-7.5" font-family="Helvetica,sans-Serif" font-size="10.00" fill="#000000">iec_dB_to_fader</text>
</a>
</g>
</g>
<!-- Node10&#45;&gt;Node11 -->
<g id="edge7" class="edge">
<title>Node10&#45;&gt;Node11</title>
<path fill="none" stroke="#191970" d="M295.2219,-10C308.7907,-10 322.9302,-10 336.1285,-10"/>
<polygon fill="#191970" stroke="#191970" points="336.4828,-13.5001 346.4828,-10 336.4827,-6.5001 336.4828,-13.5001"/>
</g>
</g>
</svg>
