<?xml version="1.0" encoding="UTF-8" standalone="no"?>
<!DOCTYPE svg PUBLIC "-//W3C//DTD SVG 1.1//EN"
 "http://www.w3.org/Graphics/SVG/1.1/DTD/svg11.dtd">
<!-- Generated by graphviz version 2.40.1 (20161225.0304)
 -->
<!-- Title: LoopManager::CreatePulse Pages: 1 -->
<svg width="927pt" height="599pt"
 viewBox="0.00 0.00 927.00 599.45" xmlns="http://www.w3.org/2000/svg" xmlns:xlink="http://www.w3.org/1999/xlink">
<g id="graph0" class="graph" transform="scale(1 1) rotate(0) translate(4 595.4502)">
<title>LoopManager::CreatePulse</title>
<polygon fill="#ffffff" stroke="transparent" points="-4,4 -4,-595.4502 923,-595.4502 923,4 -4,4"/>
<!-- Node147 -->
<g id="node1" class="node">
<title>Node147</title>
<polygon fill="#bfbfbf" stroke="#000000" points="0,-437.5 0,-456.5 146,-456.5 146,-437.5 0,-437.5"/>
<text text-anchor="middle" x="73" y="-444.5" font-family="Helvetica,sans-Serif" font-size="10.00" fill="#000000">LoopManager::CreatePulse</text>
</g>
<!-- Node148 -->
<g id="node2" class="node">
<title>Node148</title>
<g id="a_node2"><a xlink:href="classFweelin.html#a10bb364ecf38990653b49a98c5a89c90" target="_top" xlink:title="Fweelin::getTMAP">
<polygon fill="#ffffff" stroke="#000000" points="418,-570.5 418,-589.5 521,-589.5 521,-570.5 418,-570.5"/>
<text text-anchor="middle" x="469.5" y="-577.5" font-family="Helvetica,sans-Serif" font-size="10.00" fill="#000000">Fweelin::getTMAP</text>
</a>
</g>
</g>
<!-- Node147&#45;&gt;Node148 -->
<g id="edge1" class="edge">
<title>Node147&#45;&gt;Node148</title>
<path fill="none" stroke="#191970" d="M78.6051,-456.6111C92.6064,-479.5778 131.6346,-537.4792 182,-561 253.9791,-594.6145 347.2959,-593.8348 407.7753,-588.3981"/>
<polygon fill="#191970" stroke="#191970" points="408.3159,-591.8622 417.9315,-587.4136 407.6404,-584.8949 408.3159,-591.8622"/>
</g>
<!-- Node149 -->
<g id="node3" class="node">
<title>Node149</title>
<g id="a_node3"><a xlink:href="classTriggerMap.html#aca3f85b40f3aa29a280c2d7511b84217" target="_top" xlink:title="TriggerMap::GetMap">
<polygon fill="#ffffff" stroke="#000000" points="413,-494.5 413,-513.5 526,-513.5 526,-494.5 413,-494.5"/>
<text text-anchor="middle" x="469.5" y="-501.5" font-family="Helvetica,sans-Serif" font-size="10.00" fill="#000000">TriggerMap::GetMap</text>
</a>
</g>
</g>
<!-- Node147&#45;&gt;Node149 -->
<g id="edge2" class="edge">
<title>Node147&#45;&gt;Node149</title>
<path fill="none" stroke="#191970" d="M95.0494,-456.6672C116.7235,-465.6916 150.9715,-478.687 182,-485 256.5643,-500.1708 344.0261,-504.021 402.7308,-504.6476"/>
<polygon fill="#191970" stroke="#191970" points="402.9579,-508.1493 412.9849,-504.7273 403.0124,-501.1496 402.9579,-508.1493"/>
</g>
<!-- Node150 -->
<g id="node4" class="node">
<title>Node150</title>
<g id="a_node4"><a xlink:href="classLoopManager.html#ade17096b555db9f73679815e53a19429" target="_top" xlink:title="LoopManager::GetLength">
<polygon fill="#ffffff" stroke="#000000" points="191,-532.5 191,-551.5 329,-551.5 329,-532.5 191,-532.5"/>
<text text-anchor="middle" x="260" y="-539.5" font-family="Helvetica,sans-Serif" font-size="10.00" fill="#000000">LoopManager::GetLength</text>
</a>
</g>
</g>
<!-- Node147&#45;&gt;Node150 -->
<g id="edge3" class="edge">
<title>Node147&#45;&gt;Node150</title>
<path fill="none" stroke="#191970" d="M85.0857,-456.5078C104.5216,-471.4091 144.3665,-500.3784 182,-518 191.3347,-522.3709 201.6631,-526.1958 211.6665,-529.4319"/>
<polygon fill="#191970" stroke="#191970" points="210.9253,-532.866 221.5128,-532.4703 212.9894,-526.1772 210.9253,-532.866"/>
</g>
<!-- Node152 -->
<g id="node6" class="node">
<title>Node152</title>
<g id="a_node6"><a xlink:href="classFweelin.html#a4422f3a93561eff272cd5f7ecb0782ee" target="_top" xlink:title="Fweelin::getRP">
<polygon fill="#ffffff" stroke="#000000" points="215.5,-456.5 215.5,-475.5 304.5,-475.5 304.5,-456.5 215.5,-456.5"/>
<text text-anchor="middle" x="260" y="-463.5" font-family="Helvetica,sans-Serif" font-size="10.00" fill="#000000">Fweelin::getRP</text>
</a>
</g>
</g>
<!-- Node147&#45;&gt;Node152 -->
<g id="edge7" class="edge">
<title>Node147&#45;&gt;Node152</title>
<path fill="none" stroke="#191970" d="M146.1025,-454.4275C165.8089,-456.4298 186.7861,-458.5612 205.2971,-460.442"/>
<polygon fill="#191970" stroke="#191970" points="205.0009,-463.9298 215.3035,-461.4586 205.7086,-456.9656 205.0009,-463.9298"/>
</g>
<!-- Node153 -->
<g id="node7" class="node">
<title>Node153</title>
<g id="a_node7"><a xlink:href="classRootProcessor.html#adc75260f6db8566d3e3eaaea2d5a6323" target="_top" xlink:title="RootProcessor::AddChild">
<polygon fill="#ffffff" stroke="#000000" points="192.5,-418.5 192.5,-437.5 327.5,-437.5 327.5,-418.5 192.5,-418.5"/>
<text text-anchor="middle" x="260" y="-425.5" font-family="Helvetica,sans-Serif" font-size="10.00" fill="#000000">RootProcessor::AddChild</text>
</a>
</g>
</g>
<!-- Node147&#45;&gt;Node153 -->
<g id="edge8" class="edge">
<title>Node147&#45;&gt;Node153</title>
<path fill="none" stroke="#191970" d="M146.1025,-439.5725C158.0269,-438.3609 170.4166,-437.1021 182.4436,-435.8801"/>
<polygon fill="#191970" stroke="#191970" points="182.8478,-439.3571 192.4428,-434.8641 182.1402,-432.393 182.8478,-439.3571"/>
</g>
<!-- Node158 -->
<g id="node12" class="node">
<title>Node158</title>
<g id="a_node12"><a xlink:href="classLoopManager.html#a5630b6fefdfc931ac0ab511c6b77cecf" target="_top" xlink:title="LoopManager::StripePulseOn">
<polygon fill="#ffffff" stroke="#000000" points="182,-133.5 182,-152.5 338,-152.5 338,-133.5 182,-133.5"/>
<text text-anchor="middle" x="260" y="-140.5" font-family="Helvetica,sans-Serif" font-size="10.00" fill="#000000">LoopManager::StripePulseOn</text>
</a>
</g>
</g>
<!-- Node147&#45;&gt;Node158 -->
<g id="edge13" class="edge">
<title>Node147&#45;&gt;Node158</title>
<path fill="none" stroke="#191970" d="M79.01,-437.2297C105.6626,-393.9015 213.4213,-218.7214 248.7341,-161.3147"/>
<polygon fill="#191970" stroke="#191970" points="251.8473,-162.9337 254.1056,-152.5823 245.885,-159.2661 251.8473,-162.9337"/>
</g>
<!-- Node170 -->
<g id="node24" class="node">
<title>Node170</title>
<g id="a_node24"><a xlink:href="classLoopManager.html#a28c81cf1fb5fdf13a633e33d06975a0d" target="_top" xlink:title="LoopManager::GetCurPulse">
<polygon fill="#ffffff" stroke="#000000" points="186,-95.5 186,-114.5 334,-114.5 334,-95.5 186,-95.5"/>
<text text-anchor="middle" x="260" y="-102.5" font-family="Helvetica,sans-Serif" font-size="10.00" fill="#000000">LoopManager::GetCurPulse</text>
</a>
</g>
</g>
<!-- Node147&#45;&gt;Node170 -->
<g id="edge25" class="edge">
<title>Node147&#45;&gt;Node170</title>
<path fill="none" stroke="#191970" d="M74.9734,-437.2521C85.0798,-388.2512 132.4917,-169.3998 182,-124 183.711,-122.431 185.5295,-120.9857 187.4344,-119.6547"/>
<polygon fill="#191970" stroke="#191970" points="189.3834,-122.5703 196.2732,-114.5216 185.868,-116.517 189.3834,-122.5703"/>
</g>
<!-- Node171 -->
<g id="node25" class="node">
<title>Node171</title>
<g id="a_node25"><a xlink:href="classPulse.html#aec20778ec5fcc2a6cefed47add36272f" target="_top" xlink:title="Pulse::SetMIDIClock">
<polygon fill="#ffffff" stroke="#000000" points="203.5,-323.5 203.5,-342.5 316.5,-342.5 316.5,-323.5 203.5,-323.5"/>
<text text-anchor="middle" x="260" y="-330.5" font-family="Helvetica,sans-Serif" font-size="10.00" fill="#000000">Pulse::SetMIDIClock</text>
</a>
</g>
</g>
<!-- Node147&#45;&gt;Node171 -->
<g id="edge26" class="edge">
<title>Node147&#45;&gt;Node171</title>
<path fill="none" stroke="#191970" d="M88.6219,-437.4765C121.2093,-417.6104 196.6393,-371.6263 235.6514,-347.8435"/>
<polygon fill="#191970" stroke="#191970" points="237.5745,-350.7703 244.2911,-342.5766 233.9307,-344.7934 237.5745,-350.7703"/>
</g>
<!-- Node150&#45;&gt;Node148 -->
<g id="edge4" class="edge">
<title>Node150&#45;&gt;Node148</title>
<path fill="none" stroke="#191970" d="M312.5953,-551.54C341.5618,-556.794 377.6721,-563.3439 407.9463,-568.8351"/>
<polygon fill="#191970" stroke="#191970" points="407.5065,-572.3124 417.9707,-570.6534 408.7559,-565.4248 407.5065,-572.3124"/>
</g>
<!-- Node150&#45;&gt;Node149 -->
<g id="edge5" class="edge">
<title>Node150&#45;&gt;Node149</title>
<path fill="none" stroke="#191970" d="M312.5953,-532.46C341.2352,-527.2652 376.8585,-520.8037 406.9198,-515.3511"/>
<polygon fill="#191970" stroke="#191970" points="407.6683,-518.7725 416.8831,-513.5439 406.4189,-511.8849 407.6683,-518.7725"/>
</g>
<!-- Node151 -->
<g id="node5" class="node">
<title>Node151</title>
<g id="a_node5"><a xlink:href="classAudioBlock.html#a380880c91c3af2322d232ce2de83b881" target="_top" xlink:title="AudioBlock::GetTotalLen">
<polygon fill="#ffffff" stroke="#000000" points="402,-532.5 402,-551.5 537,-551.5 537,-532.5 402,-532.5"/>
<text text-anchor="middle" x="469.5" y="-539.5" font-family="Helvetica,sans-Serif" font-size="10.00" fill="#000000">AudioBlock::GetTotalLen</text>
</a>
</g>
</g>
<!-- Node150&#45;&gt;Node151 -->
<g id="edge6" class="edge">
<title>Node150&#45;&gt;Node151</title>
<path fill="none" stroke="#191970" d="M329.1787,-542C349.1627,-542 371.1067,-542 391.5837,-542"/>
<polygon fill="#191970" stroke="#191970" points="391.8204,-545.5001 401.8204,-542 391.8203,-538.5001 391.8204,-545.5001"/>
</g>
<!-- Node154 -->
<g id="node8" class="node">
<title>Node154</title>
<g id="a_node8"><a xlink:href="classProcessor.html#a1ff3aad172b41d0c3c9a1bd06cd6a4ef" target="_top" xlink:title="Processor::dopreprocess">
<polygon fill="#ffffff" stroke="#000000" points="402,-456.5 402,-475.5 537,-475.5 537,-456.5 402,-456.5"/>
<text text-anchor="middle" x="469.5" y="-463.5" font-family="Helvetica,sans-Serif" font-size="10.00" fill="#000000">Processor::dopreprocess</text>
</a>
</g>
</g>
<!-- Node153&#45;&gt;Node154 -->
<g id="edge9" class="edge">
<title>Node153&#45;&gt;Node154</title>
<path fill="none" stroke="#191970" d="M312.5953,-437.54C341.2352,-442.7348 376.8585,-449.1963 406.9198,-454.6489"/>
<polygon fill="#191970" stroke="#191970" points="406.4189,-458.1151 416.8831,-456.4561 407.6683,-451.2275 406.4189,-458.1151"/>
</g>
<!-- Node156 -->
<g id="node10" class="node">
<title>Node156</title>
<g id="a_node10"><a xlink:href="classEvent.html#aa67af0ae99b897e4f0ce42068c4e4c00" target="_top" xlink:title="Event::GetEventByType">
<polygon fill="#ffffff" stroke="#000000" points="404,-380.5 404,-399.5 535,-399.5 535,-380.5 404,-380.5"/>
<text text-anchor="middle" x="469.5" y="-387.5" font-family="Helvetica,sans-Serif" font-size="10.00" fill="#000000">Event::GetEventByType</text>
</a>
</g>
</g>
<!-- Node153&#45;&gt;Node156 -->
<g id="edge11" class="edge">
<title>Node153&#45;&gt;Node156</title>
<path fill="none" stroke="#191970" d="M312.5953,-418.46C341.2352,-413.2652 376.8585,-406.8037 406.9198,-401.3511"/>
<polygon fill="#191970" stroke="#191970" points="407.6683,-404.7725 416.8831,-399.5439 406.4189,-397.8849 407.6683,-404.7725"/>
</g>
<!-- Node157 -->
<g id="node11" class="node">
<title>Node157</title>
<g id="a_node11"><a xlink:href="classSRMWRingBuffer.html#a47699ccc0600c38559c8e10f0ca9bf3c" target="_top" xlink:title="SRMWRingBuffer::WriteElement">
<polygon fill="#ffffff" stroke="#000000" points="384.5,-418.5 384.5,-437.5 554.5,-437.5 554.5,-418.5 384.5,-418.5"/>
<text text-anchor="middle" x="469.5" y="-425.5" font-family="Helvetica,sans-Serif" font-size="10.00" fill="#000000">SRMWRingBuffer::WriteElement</text>
</a>
</g>
</g>
<!-- Node153&#45;&gt;Node157 -->
<g id="edge12" class="edge">
<title>Node153&#45;&gt;Node157</title>
<path fill="none" stroke="#191970" d="M327.7293,-428C342.5374,-428 358.4782,-428 374.1369,-428"/>
<polygon fill="#191970" stroke="#191970" points="374.3716,-431.5001 384.3715,-428 374.3715,-424.5001 374.3716,-431.5001"/>
</g>
<!-- Node155 -->
<g id="node9" class="node">
<title>Node155</title>
<g id="a_node9"><a xlink:href="classProcessor.html#a2a6ea9cec150529a6b61898634540254" target="_top" xlink:title="Processor::process">
<polygon fill="#ffffff" stroke="#000000" points="629.5,-456.5 629.5,-475.5 736.5,-475.5 736.5,-456.5 629.5,-456.5"/>
<text text-anchor="middle" x="683" y="-463.5" font-family="Helvetica,sans-Serif" font-size="10.00" fill="#000000">Processor::process</text>
</a>
</g>
</g>
<!-- Node154&#45;&gt;Node155 -->
<g id="edge10" class="edge">
<title>Node154&#45;&gt;Node155</title>
<path fill="none" stroke="#191970" d="M537.0527,-466C563.368,-466 593.3736,-466 619.3067,-466"/>
<polygon fill="#191970" stroke="#191970" points="619.4005,-469.5001 629.4005,-466 619.4005,-462.5001 619.4005,-469.5001"/>
</g>
<!-- Node159 -->
<g id="node13" class="node">
<title>Node159</title>
<g id="a_node13"><a xlink:href="classFweelin.html#a600688955c7470a1b7a2fa95ddcc4118" target="_top" xlink:title="Fweelin::getBMG">
<polygon fill="#ffffff" stroke="#000000" points="420.5,-190.5 420.5,-209.5 518.5,-209.5 518.5,-190.5 420.5,-190.5"/>
<text text-anchor="middle" x="469.5" y="-197.5" font-family="Helvetica,sans-Serif" font-size="10.00" fill="#000000">Fweelin::getBMG</text>
</a>
</g>
</g>
<!-- Node158&#45;&gt;Node159 -->
<g id="edge14" class="edge">
<title>Node158&#45;&gt;Node159</title>
<path fill="none" stroke="#191970" d="M285.5291,-152.5332C308.4521,-160.8466 343.1459,-172.8229 374,-181 385.6172,-184.0789 398.1472,-186.913 410.1871,-189.4009"/>
<polygon fill="#191970" stroke="#191970" points="409.6605,-192.865 420.1545,-191.407 411.0417,-186.0026 409.6605,-192.865"/>
</g>
<!-- Node160 -->
<g id="node14" class="node">
<title>Node160</title>
<g id="a_node14"><a xlink:href="classBlockManager.html#a718110289099d5b729ce3b28d0ac09fb" target="_top" xlink:title="BlockManager::StripeBlockOn">
<polygon fill="#ffffff" stroke="#000000" points="389,-152.5 389,-171.5 550,-171.5 550,-152.5 389,-152.5"/>
<text text-anchor="middle" x="469.5" y="-159.5" font-family="Helvetica,sans-Serif" font-size="10.00" fill="#000000">BlockManager::StripeBlockOn</text>
</a>
</g>
</g>
<!-- Node158&#45;&gt;Node160 -->
<g id="edge15" class="edge">
<title>Node158&#45;&gt;Node160</title>
<path fill="none" stroke="#191970" d="M338.0101,-150.0749C351.2669,-151.2772 365.136,-152.535 378.6883,-153.7641"/>
<polygon fill="#191970" stroke="#191970" points="378.6994,-157.2794 388.9747,-154.697 379.3317,-150.308 378.6994,-157.2794"/>
</g>
<!-- Node166 -->
<g id="node20" class="node">
<title>Node166</title>
<g id="a_node20"><a xlink:href="classFweelin.html#a079cfb110e3dd58369b57009b4e74342" target="_top" xlink:title="Fweelin::getAMPEAKS">
<polygon fill="#ffffff" stroke="#000000" points="408.5,-114.5 408.5,-133.5 530.5,-133.5 530.5,-114.5 408.5,-114.5"/>
<text text-anchor="middle" x="469.5" y="-121.5" font-family="Helvetica,sans-Serif" font-size="10.00" fill="#000000">Fweelin::getAMPEAKS</text>
</a>
</g>
</g>
<!-- Node158&#45;&gt;Node166 -->
<g id="edge21" class="edge">
<title>Node158&#45;&gt;Node166</title>
<path fill="none" stroke="#191970" d="M338.0101,-135.9251C357.8235,-134.1282 379.0048,-132.2072 398.4516,-130.4435"/>
<polygon fill="#191970" stroke="#191970" points="398.8035,-133.9261 408.4464,-129.5371 398.1712,-126.9547 398.8035,-133.9261"/>
</g>
<!-- Node167 -->
<g id="node21" class="node">
<title>Node167</title>
<g id="a_node21"><a xlink:href="classFweelin.html#a2759e5c9c967464b0861c9f80821945f" target="_top" xlink:title="Fweelin::getAMPEAKSI">
<polygon fill="#ffffff" stroke="#000000" points="407,-76.5 407,-95.5 532,-95.5 532,-76.5 407,-76.5"/>
<text text-anchor="middle" x="469.5" y="-83.5" font-family="Helvetica,sans-Serif" font-size="10.00" fill="#000000">Fweelin::getAMPEAKSI</text>
</a>
</g>
</g>
<!-- Node158&#45;&gt;Node167 -->
<g id="edge22" class="edge">
<title>Node158&#45;&gt;Node167</title>
<path fill="none" stroke="#191970" d="M307.1794,-133.4927C317.4831,-130.8694 328.2253,-127.7047 338,-124 354.9174,-117.5882 356.9501,-111.0505 374,-105 381.6452,-102.287 389.78,-99.9234 397.952,-97.8737"/>
<polygon fill="#191970" stroke="#191970" points="398.9782,-101.2278 407.9083,-95.5267 397.372,-94.4145 398.9782,-101.2278"/>
</g>
<!-- Node168 -->
<g id="node22" class="node">
<title>Node168</title>
<g id="a_node22"><a xlink:href="classFweelin.html#a6532e9aca57e2ec68ee5336113152bd5" target="_top" xlink:title="Fweelin::getAUDIOMEM">
<polygon fill="#ffffff" stroke="#000000" points="404,-38.5 404,-57.5 535,-57.5 535,-38.5 404,-38.5"/>
<text text-anchor="middle" x="469.5" y="-45.5" font-family="Helvetica,sans-Serif" font-size="10.00" fill="#000000">Fweelin::getAUDIOMEM</text>
</a>
</g>
</g>
<!-- Node158&#45;&gt;Node168 -->
<g id="edge23" class="edge">
<title>Node158&#45;&gt;Node168</title>
<path fill="none" stroke="#191970" d="M320.0431,-133.4864C326.4302,-131.013 332.5676,-127.9046 338,-124 362.3302,-106.5123 349.3033,-83.9662 374,-67 380.1308,-62.7883 386.9753,-59.463 394.1071,-56.844"/>
<polygon fill="#191970" stroke="#191970" points="395.5094,-60.0703 403.9702,-53.6933 393.3794,-53.4023 395.5094,-60.0703"/>
</g>
<!-- Node169 -->
<g id="node23" class="node">
<title>Node169</title>
<g id="a_node23"><a xlink:href="classFweelin.html#ad34a1444de8b2ddef487facd33e626f6" target="_top" xlink:title="Fweelin::getAUDIOMEMI">
<polygon fill="#ffffff" stroke="#000000" points="402.5,-.5 402.5,-19.5 536.5,-19.5 536.5,-.5 402.5,-.5"/>
<text text-anchor="middle" x="469.5" y="-7.5" font-family="Helvetica,sans-Serif" font-size="10.00" fill="#000000">Fweelin::getAUDIOMEMI</text>
</a>
</g>
</g>
<!-- Node158&#45;&gt;Node169 -->
<g id="edge24" class="edge">
<title>Node158&#45;&gt;Node169</title>
<path fill="none" stroke="#191970" d="M323.1949,-133.4928C328.567,-130.9923 333.6136,-127.8764 338,-124 371.8337,-94.1002 339.538,-58.1733 374,-29 379.5884,-24.2692 386.0195,-20.5954 392.8481,-17.7562"/>
<polygon fill="#191970" stroke="#191970" points="394.1097,-21.0225 402.3646,-14.3812 391.7698,-14.4251 394.1097,-21.0225"/>
</g>
<!-- Node161 -->
<g id="node15" class="node">
<title>Node161</title>
<g id="a_node15"><a xlink:href="classBlockManager.html#a5566277a4ec6c8a5347470433843b998" target="_top" xlink:title="BlockManager::DelHiManager">
<polygon fill="#ffffff" stroke="#000000" points="602.5,-190.5 602.5,-209.5 763.5,-209.5 763.5,-190.5 602.5,-190.5"/>
<text text-anchor="middle" x="683" y="-197.5" font-family="Helvetica,sans-Serif" font-size="10.00" fill="#000000">BlockManager::DelHiManager</text>
</a>
</g>
</g>
<!-- Node160&#45;&gt;Node161 -->
<g id="edge16" class="edge">
<title>Node160&#45;&gt;Node161</title>
<path fill="none" stroke="#191970" d="M523.0995,-171.54C552.2862,-176.7348 588.5897,-183.1963 619.2249,-188.6489"/>
<polygon fill="#191970" stroke="#191970" points="618.9198,-192.1496 629.3785,-190.4561 620.1465,-185.2579 618.9198,-192.1496"/>
</g>
<!-- Node163 -->
<g id="node17" class="node">
<title>Node163</title>
<g id="a_node17"><a xlink:href="classFweelin.html#a6cb99744f75b371673c3e90031797972" target="_top" xlink:title="Fweelin::getPRE_TIMEMARKER">
<polygon fill="#ffffff" stroke="#000000" points="601,-152.5 601,-171.5 765,-171.5 765,-152.5 601,-152.5"/>
<text text-anchor="middle" x="683" y="-159.5" font-family="Helvetica,sans-Serif" font-size="10.00" fill="#000000">Fweelin::getPRE_TIMEMARKER</text>
</a>
</g>
</g>
<!-- Node160&#45;&gt;Node163 -->
<g id="edge18" class="edge">
<title>Node160&#45;&gt;Node163</title>
<path fill="none" stroke="#191970" d="M550.2152,-162C563.389,-162 577.1263,-162 590.5559,-162"/>
<polygon fill="#191970" stroke="#191970" points="590.7512,-165.5001 600.7512,-162 590.7511,-158.5001 590.7512,-165.5001"/>
</g>
<!-- Node164 -->
<g id="node18" class="node">
<title>Node164</title>
<g id="a_node18"><a xlink:href="classStripeBlockManager.html#a0bd66e4d0743493ad80c17203301a2db" target="_top" xlink:title="StripeBlockManager\l::Setup">
<polygon fill="#ffffff" stroke="#000000" points="626,-103 626,-133 740,-133 740,-103 626,-103"/>
<text text-anchor="start" x="634" y="-121" font-family="Helvetica,sans-Serif" font-size="10.00" fill="#000000">StripeBlockManager</text>
<text text-anchor="middle" x="683" y="-110" font-family="Helvetica,sans-Serif" font-size="10.00" fill="#000000">::Setup</text>
</a>
</g>
</g>
<!-- Node160&#45;&gt;Node164 -->
<g id="edge19" class="edge">
<title>Node160&#45;&gt;Node164</title>
<path fill="none" stroke="#191970" d="M518.1068,-152.4505C533.1471,-149.4631 549.7656,-146.1291 565,-143 581.3925,-139.633 599.0493,-135.9319 615.5838,-132.4335"/>
<polygon fill="#191970" stroke="#191970" points="616.6558,-135.7841 625.7125,-130.2862 615.204,-128.9363 616.6558,-135.7841"/>
</g>
<!-- Node165 -->
<g id="node19" class="node">
<title>Node165</title>
<g id="a_node19"><a xlink:href="classBlockManager.html#ac62e5c20f032e777abfe76aad9cecee1" target="_top" xlink:title="BlockManager::AddHiManager">
<polygon fill="#ffffff" stroke="#000000" points="601.5,-64.5 601.5,-83.5 764.5,-83.5 764.5,-64.5 601.5,-64.5"/>
<text text-anchor="middle" x="683" y="-71.5" font-family="Helvetica,sans-Serif" font-size="10.00" fill="#000000">BlockManager::AddHiManager</text>
</a>
</g>
</g>
<!-- Node160&#45;&gt;Node165 -->
<g id="edge20" class="edge">
<title>Node160&#45;&gt;Node165</title>
<path fill="none" stroke="#191970" d="M545.5749,-152.358C552.4152,-149.8848 559.0102,-146.8121 565,-143 587.798,-128.4907 578.518,-108.9943 601,-94 604.8058,-91.4617 608.9029,-89.2451 613.1635,-87.3094"/>
<polygon fill="#191970" stroke="#191970" points="614.7108,-90.4605 622.7026,-83.5048 612.1175,-83.9585 614.7108,-90.4605"/>
</g>
<!-- Node162 -->
<g id="node16" class="node">
<title>Node162</title>
<g id="a_node16"><a xlink:href="classHiPriManagedChain.html#a65066950fc82d852fd81af83cf558b4f" target="_top" xlink:title="HiPriManagedChain::\lGetType">
<polygon fill="#ffffff" stroke="#000000" points="801,-185 801,-215 919,-215 919,-185 801,-185"/>
<text text-anchor="start" x="809" y="-203" font-family="Helvetica,sans-Serif" font-size="10.00" fill="#000000">HiPriManagedChain::</text>
<text text-anchor="middle" x="860" y="-192" font-family="Helvetica,sans-Serif" font-size="10.00" fill="#000000">GetType</text>
</a>
</g>
</g>
<!-- Node161&#45;&gt;Node162 -->
<g id="edge17" class="edge">
<title>Node161&#45;&gt;Node162</title>
<path fill="none" stroke="#191970" d="M763.7306,-200C772.7085,-200 781.794,-200 790.6134,-200"/>
<polygon fill="#191970" stroke="#191970" points="790.8222,-203.5001 800.8222,-200 790.8222,-196.5001 790.8222,-203.5001"/>
</g>
<!-- Node171&#45;&gt;Node156 -->
<g id="edge29" class="edge">
<title>Node171&#45;&gt;Node156</title>
<path fill="none" stroke="#191970" d="M285.5291,-342.5332C308.4521,-350.8466 343.1459,-362.8229 374,-371 384.0923,-373.6747 394.8735,-376.1647 405.4237,-378.4035"/>
<polygon fill="#191970" stroke="#191970" points="404.937,-381.8767 415.4381,-380.4708 406.3522,-375.0213 404.937,-381.8767"/>
</g>
<!-- Node172 -->
<g id="node26" class="node">
<title>Node172</title>
<g id="a_node26"><a xlink:href="classFweelin.html#aee46aec225c2ee5c88854dc9943e7d62" target="_top" xlink:title="Fweelin::getMIDI">
<polygon fill="#ffffff" stroke="#000000" points="420.5,-342.5 420.5,-361.5 518.5,-361.5 518.5,-342.5 420.5,-342.5"/>
<text text-anchor="middle" x="469.5" y="-349.5" font-family="Helvetica,sans-Serif" font-size="10.00" fill="#000000">Fweelin::getMIDI</text>
</a>
</g>
</g>
<!-- Node171&#45;&gt;Node172 -->
<g id="edge27" class="edge">
<title>Node171&#45;&gt;Node172</title>
<path fill="none" stroke="#191970" d="M316.6937,-338.1417C345.6364,-340.7665 380.8283,-343.9582 410.1409,-346.6166"/>
<polygon fill="#191970" stroke="#191970" points="409.9687,-350.1153 420.244,-347.5329 410.601,-343.1439 409.9687,-350.1153"/>
</g>
<!-- Node173 -->
<g id="node27" class="node">
<title>Node173</title>
<g id="a_node27"><a xlink:href="classMidiIO.html#ab468c4eab816c7f75f28f9113c3072e4" target="_top" xlink:title="MidiIO::GetMIDISyncTransmit">
<polygon fill="#ffffff" stroke="#000000" points="390.5,-304.5 390.5,-323.5 548.5,-323.5 548.5,-304.5 390.5,-304.5"/>
<text text-anchor="middle" x="469.5" y="-311.5" font-family="Helvetica,sans-Serif" font-size="10.00" fill="#000000">MidiIO::GetMIDISyncTransmit</text>
</a>
</g>
</g>
<!-- Node171&#45;&gt;Node173 -->
<g id="edge28" class="edge">
<title>Node171&#45;&gt;Node173</title>
<path fill="none" stroke="#191970" d="M316.6937,-327.8583C336.2563,-326.0842 358.6738,-324.0511 380.2011,-322.0987"/>
<polygon fill="#191970" stroke="#191970" points="380.7042,-325.5675 390.3472,-321.1785 380.0719,-318.5961 380.7042,-325.5675"/>
</g>
<!-- Node174 -->
<g id="node28" class="node">
<title>Node174</title>
<g id="a_node28"><a xlink:href="classFweelin.html#a21e51d7b639faaecc415624ab6c16a71" target="_top" xlink:title="Fweelin::getEMG">
<polygon fill="#ffffff" stroke="#000000" points="420.5,-266.5 420.5,-285.5 518.5,-285.5 518.5,-266.5 420.5,-266.5"/>
<text text-anchor="middle" x="469.5" y="-273.5" font-family="Helvetica,sans-Serif" font-size="10.00" fill="#000000">Fweelin::getEMG</text>
</a>
</g>
</g>
<!-- Node171&#45;&gt;Node174 -->
<g id="edge30" class="edge">
<title>Node171&#45;&gt;Node174</title>
<path fill="none" stroke="#191970" d="M285.5291,-323.4668C308.4521,-315.1534 343.1459,-303.1771 374,-295 385.6172,-291.9211 398.1472,-289.087 410.1871,-286.5991"/>
<polygon fill="#191970" stroke="#191970" points="411.0417,-289.9974 420.1545,-284.593 409.6605,-283.135 411.0417,-289.9974"/>
</g>
<!-- Node175 -->
<g id="node29" class="node">
<title>Node175</title>
<g id="a_node29"><a xlink:href="classEventManager.html#a4a73f2e7ff1724f28427f7c0d5725c8e" target="_top" xlink:title="EventManager::BroadcastEventNow">
<polygon fill="#ffffff" stroke="#000000" points="374,-228.5 374,-247.5 565,-247.5 565,-228.5 374,-228.5"/>
<text text-anchor="middle" x="469.5" y="-235.5" font-family="Helvetica,sans-Serif" font-size="10.00" fill="#000000">EventManager::BroadcastEventNow</text>
</a>
</g>
</g>
<!-- Node171&#45;&gt;Node175 -->
<g id="edge31" class="edge">
<title>Node171&#45;&gt;Node175</title>
<path fill="none" stroke="#191970" d="M271.1104,-323.3797C290.566,-307.0676 332.6766,-274.0924 374,-257 380.2973,-254.3953 386.9795,-252.1397 393.7691,-250.188"/>
<polygon fill="#191970" stroke="#191970" points="394.9912,-253.4851 403.7613,-247.5406 393.1984,-246.7185 394.9912,-253.4851"/>
</g>
<!-- Node176 -->
<g id="node30" class="node">
<title>Node176</title>
<g id="a_node30"><a xlink:href="classEvent.html#ac4c4170579544b41dff38ca1b8110e30" target="_top" xlink:title="Event::GetType">
<polygon fill="#ffffff" stroke="#000000" points="638,-304.5 638,-323.5 728,-323.5 728,-304.5 638,-304.5"/>
<text text-anchor="middle" x="683" y="-311.5" font-family="Helvetica,sans-Serif" font-size="10.00" fill="#000000">Event::GetType</text>
</a>
</g>
</g>
<!-- Node175&#45;&gt;Node176 -->
<g id="edge32" class="edge">
<title>Node175&#45;&gt;Node176</title>
<path fill="none" stroke="#191970" d="M542.6165,-247.6359C550.4235,-250.0899 558.0442,-253.1602 565,-257 585.3672,-268.2434 580.8113,-283.4393 601,-295 609.2825,-299.7428 618.6761,-303.3023 628.0749,-305.9735"/>
<polygon fill="#191970" stroke="#191970" points="627.2712,-309.3804 637.8249,-308.4481 628.9932,-302.5956 627.2712,-309.3804"/>
</g>
<!-- Node177 -->
<g id="node31" class="node">
<title>Node177</title>
<g id="a_node31"><a xlink:href="classEventListener.html#a831820a9229e852bd7e2fad686b725b2" target="_top" xlink:title="EventListener::ReceiveEvent">
<polygon fill="#ffffff" stroke="#000000" points="605.5,-266.5 605.5,-285.5 760.5,-285.5 760.5,-266.5 605.5,-266.5"/>
<text text-anchor="middle" x="683" y="-273.5" font-family="Helvetica,sans-Serif" font-size="10.00" fill="#000000">EventListener::ReceiveEvent</text>
</a>
</g>
</g>
<!-- Node175&#45;&gt;Node177 -->
<g id="edge33" class="edge">
<title>Node175&#45;&gt;Node177</title>
<path fill="none" stroke="#191970" d="M523.0995,-247.54C552.2862,-252.7348 588.5897,-259.1963 619.2249,-264.6489"/>
<polygon fill="#191970" stroke="#191970" points="618.9198,-268.1496 629.3785,-266.4561 620.1465,-261.2579 618.9198,-268.1496"/>
</g>
<!-- Node178 -->
<g id="node32" class="node">
<title>Node178</title>
<g id="a_node32"><a xlink:href="classPreallocated.html#aaf2139a79ca16de70acd9bc4564171b7" target="_top" xlink:title="Preallocated::RTDelete">
<polygon fill="#ffffff" stroke="#000000" points="619,-228.5 619,-247.5 747,-247.5 747,-228.5 619,-228.5"/>
<text text-anchor="middle" x="683" y="-235.5" font-family="Helvetica,sans-Serif" font-size="10.00" fill="#000000">Preallocated::RTDelete</text>
</a>
</g>
</g>
<!-- Node175&#45;&gt;Node178 -->
<g id="edge34" class="edge">
<title>Node175&#45;&gt;Node178</title>
<path fill="none" stroke="#191970" d="M565.0098,-238C579.6618,-238 594.5994,-238 608.702,-238"/>
<polygon fill="#191970" stroke="#191970" points="608.8073,-241.5001 618.8073,-238 608.8073,-234.5001 608.8073,-241.5001"/>
</g>
</g>
</svg>
