<?xml version="1.0" encoding="UTF-8" standalone="no"?>
<!DOCTYPE svg PUBLIC "-//W3C//DTD SVG 1.1//EN"
 "http://www.w3.org/Graphics/SVG/1.1/DTD/svg11.dtd">
<!-- Generated by graphviz version 2.40.1 (20161225.0304)
 -->
<!-- Title: ItemRenamer::ItemRenamer Pages: 1 -->
<svg width="507pt" height="116pt"
 viewBox="0.00 0.00 507.00 115.50" xmlns="http://www.w3.org/2000/svg" xmlns:xlink="http://www.w3.org/1999/xlink">
<g id="graph0" class="graph" transform="scale(1 1) rotate(0) translate(4 111.5)">
<title>ItemRenamer::ItemRenamer</title>
<polygon fill="#ffffff" stroke="transparent" points="-4,4 -4,-111.5 503,-111.5 503,4 -4,4"/>
<!-- Node6 -->
<g id="node1" class="node">
<title>Node6</title>
<polygon fill="#bfbfbf" stroke="#000000" points="0,-50 0,-69 155,-69 155,-50 0,-50"/>
<text text-anchor="middle" x="77.5" y="-57" font-family="Helvetica,sans-Serif" font-size="10.00" fill="#000000">ItemRenamer::ItemRenamer</text>
</g>
<!-- Node7 -->
<g id="node2" class="node">
<title>Node7</title>
<g id="a_node2"><a xlink:href="classBrowser.html#a517f5d012c377402b3bdbfd10e4c8db5" target="_top" xlink:title="Browser::Rename">
<polygon fill="#ffffff" stroke="#000000" points="199,-88 199,-107 301,-107 301,-88 199,-88"/>
<text text-anchor="middle" x="250" y="-95" font-family="Helvetica,sans-Serif" font-size="10.00" fill="#000000">Browser::Rename</text>
</a>
</g>
</g>
<!-- Node6&#45;&gt;Node7 -->
<g id="edge1" class="edge">
<title>Node6&#45;&gt;Node7</title>
<path fill="none" stroke="#191970" d="M130.8505,-71.2526C155.242,-76.6258 183.7627,-82.9086 206.784,-87.9799"/>
<polygon fill="#191970" stroke="#191970" points="131.5479,-67.8224 121.029,-69.089 130.0419,-74.6584 131.5479,-67.8224"/>
</g>
<!-- Node8 -->
<g id="node3" class="node">
<title>Node8</title>
<g id="a_node3"><a xlink:href="classLoopTray.html#a2b7540addc2966370cc4034d36c552f8" target="_top" xlink:title="LoopTray::Rename">
<polygon fill="#ffffff" stroke="#000000" points="197.5,-50 197.5,-69 302.5,-69 302.5,-50 197.5,-50"/>
<text text-anchor="middle" x="250" y="-57" font-family="Helvetica,sans-Serif" font-size="10.00" fill="#000000">LoopTray::Rename</text>
</a>
</g>
</g>
<!-- Node6&#45;&gt;Node8 -->
<g id="edge2" class="edge">
<title>Node6&#45;&gt;Node8</title>
<path fill="none" stroke="#191970" d="M165.2636,-59.5C176.2652,-59.5 187.2341,-59.5 197.4537,-59.5"/>
<polygon fill="#191970" stroke="#191970" points="165.1714,-56.0001 155.1713,-59.5 165.1713,-63.0001 165.1714,-56.0001"/>
</g>
<!-- Node9 -->
<g id="node4" class="node">
<title>Node9</title>
<g id="a_node4"><a xlink:href="classFloDisplaySnapshots.html#afb7aeeaa71af5466e371927d3c11f39f" target="_top" xlink:title="FloDisplaySnapshots\l::Rename">
<polygon fill="#ffffff" stroke="#000000" points="191,-.5 191,-30.5 309,-30.5 309,-.5 191,-.5"/>
<text text-anchor="start" x="199" y="-18.5" font-family="Helvetica,sans-Serif" font-size="10.00" fill="#000000">FloDisplaySnapshots</text>
<text text-anchor="middle" x="250" y="-7.5" font-family="Helvetica,sans-Serif" font-size="10.00" fill="#000000">::Rename</text>
</a>
</g>
</g>
<!-- Node6&#45;&gt;Node9 -->
<g id="edge3" class="edge">
<title>Node6&#45;&gt;Node9</title>
<path fill="none" stroke="#191970" d="M124.648,-47.4739C145.1093,-42.2547 169.295,-36.0856 190.9369,-30.5654"/>
<polygon fill="#191970" stroke="#191970" points="123.7546,-44.0896 114.9299,-49.9527 125.4848,-50.8724 123.7546,-44.0896"/>
</g>
<!-- Node10 -->
<g id="node5" class="node">
<title>Node10</title>
<g id="a_node5"><a xlink:href="classLoopManager.html#a4aada2d07b7ce0a67a8119ece4805966" target="_top" xlink:title="LoopManager::ReceiveEvent">
<polygon fill="#ffffff" stroke="#000000" points="345,-6 345,-25 499,-25 499,-6 345,-6"/>
<text text-anchor="middle" x="422" y="-13" font-family="Helvetica,sans-Serif" font-size="10.00" fill="#000000">LoopManager::ReceiveEvent</text>
</a>
</g>
</g>
<!-- Node9&#45;&gt;Node10 -->
<g id="edge4" class="edge">
<title>Node9&#45;&gt;Node10</title>
<path fill="none" stroke="#191970" d="M319.2909,-15.5C327.6778,-15.5 336.2852,-15.5 344.7772,-15.5"/>
<polygon fill="#191970" stroke="#191970" points="319.1927,-12.0001 309.1926,-15.5 319.1926,-19.0001 319.1927,-12.0001"/>
</g>
</g>
</svg>
