<?xml version="1.0" encoding="UTF-8" standalone="no"?>
<!DOCTYPE svg PUBLIC "-//W3C//DTD SVG 1.1//EN"
 "http://www.w3.org/Graphics/SVG/1.1/DTD/svg11.dtd">
<!-- Generated by graphviz version 2.40.1 (20161225.0304)
 -->
<!-- Title: UserVariable Pages: 1 -->
<svg width="173pt" height="303pt"
 viewBox="0.00 0.00 172.50 303.00" xmlns="http://www.w3.org/2000/svg" xmlns:xlink="http://www.w3.org/1999/xlink">
<g id="graph0" class="graph" transform="scale(1 1) rotate(0) translate(4 299)">
<title>UserVariable</title>
<polygon fill="#ffffff" stroke="transparent" points="-4,4 -4,-299 168.5,-299 168.5,4 -4,4"/>
<!-- Node1 -->
<g id="node1" class="node">
<title>Node1</title>
<polygon fill="#bfbfbf" stroke="#000000" points="5.5,-.5 5.5,-167.5 112.5,-167.5 112.5,-.5 5.5,-.5"/>
<text text-anchor="middle" x="59" y="-155.5" font-family="Helvetica,sans-Serif" font-size="10.00" fill="#000000">UserVariable</text>
<polyline fill="none" stroke="#000000" points="5.5,-148.5 112.5,-148.5 "/>
<text text-anchor="middle" x="59" y="-136.5" font-family="Helvetica,sans-Serif" font-size="10.00" fill="#000000"> </text>
<polyline fill="none" stroke="#000000" points="5.5,-129.5 112.5,-129.5 "/>
<text text-anchor="start" x="13.5" y="-117.5" font-family="Helvetica,sans-Serif" font-size="10.00" fill="#000000">+ UserVariable()</text>
<text text-anchor="start" x="13.5" y="-106.5" font-family="Helvetica,sans-Serif" font-size="10.00" fill="#000000">+ ~UserVariable()</text>
<text text-anchor="start" x="13.5" y="-95.5" font-family="Helvetica,sans-Serif" font-size="10.00" fill="#000000">+ RaisePrecision()</text>
<text text-anchor="start" x="13.5" y="-84.5" font-family="Helvetica,sans-Serif" font-size="10.00" fill="#000000">+ operator&gt;()</text>
<text text-anchor="start" x="13.5" y="-73.5" font-family="Helvetica,sans-Serif" font-size="10.00" fill="#000000">+ operator==()</text>
<text text-anchor="start" x="13.5" y="-62.5" font-family="Helvetica,sans-Serif" font-size="10.00" fill="#000000">+ operator!=()</text>
<text text-anchor="start" x="13.5" y="-51.5" font-family="Helvetica,sans-Serif" font-size="10.00" fill="#000000">+ operator+=()</text>
<text text-anchor="start" x="13.5" y="-40.5" font-family="Helvetica,sans-Serif" font-size="10.00" fill="#000000">+ GetDelta()</text>
<text text-anchor="start" x="13.5" y="-29.5" font-family="Helvetica,sans-Serif" font-size="10.00" fill="#000000">+ operator&#45;=()</text>
<text text-anchor="start" x="13.5" y="-18.5" font-family="Helvetica,sans-Serif" font-size="10.00" fill="#000000">+ operator*=()</text>
<text text-anchor="start" x="13.5" y="-7.5" font-family="Helvetica,sans-Serif" font-size="10.00" fill="#000000">and 18 more...</text>
</g>
<!-- Node1&#45;&gt;Node1 -->
<g id="edge3" class="edge">
<title>Node1&#45;&gt;Node1</title>
<path fill="none" stroke="#404040" d="M112.6322,-105.1406C123.0804,-102.6855 130.5,-95.6387 130.5,-84 130.5,-77.0895 127.8843,-71.7979 123.5721,-68.125"/>
<polygon fill="none" stroke="#404040" points="123.4449,-68.0639 116.3038,-69.0659 112.6322,-62.8594 119.7734,-61.8574 123.4449,-68.0639"/>
<text text-anchor="middle" x="147.5" y="-81.5" font-family="Helvetica,sans-Serif" font-size="10.00" fill="#000000"> +next</text>
</g>
<!-- Node2 -->
<g id="node2" class="node">
<title>Node2</title>
<polygon fill="#ffffff" stroke="#bfbfbf" points="0,-237.5 0,-294.5 38,-294.5 38,-237.5 0,-237.5"/>
<text text-anchor="middle" x="19" y="-282.5" font-family="Helvetica,sans-Serif" font-size="10.00" fill="#000000">char</text>
<polyline fill="none" stroke="#bfbfbf" points="0,-275.5 38,-275.5 "/>
<text text-anchor="middle" x="19" y="-263.5" font-family="Helvetica,sans-Serif" font-size="10.00" fill="#000000"> </text>
<polyline fill="none" stroke="#bfbfbf" points="0,-256.5 38,-256.5 "/>
<text text-anchor="middle" x="19" y="-244.5" font-family="Helvetica,sans-Serif" font-size="10.00" fill="#000000"> </text>
</g>
<!-- Node2&#45;&gt;Node1 -->
<g id="edge1" class="edge">
<title>Node2&#45;&gt;Node1</title>
<path fill="none" stroke="#404040" d="M25.3381,-237.1616C28.8163,-221.3358 33.3505,-200.7053 37.9586,-179.7385"/>
<polygon fill="none" stroke="#404040" points="38.0201,-179.4581 35.4013,-172.7393 40.5961,-167.7378 43.2149,-174.4566 38.0201,-179.4581"/>
<text text-anchor="middle" x="55.5" y="-211" font-family="Helvetica,sans-Serif" font-size="10.00" fill="#000000"> +value</text>
<text text-anchor="middle" x="55.5" y="-200" font-family="Helvetica,sans-Serif" font-size="10.00" fill="#000000">+data</text>
<text text-anchor="middle" x="55.5" y="-189" font-family="Helvetica,sans-Serif" font-size="10.00" fill="#000000">+name</text>
</g>
<!-- Node3 -->
<g id="node3" class="node">
<title>Node3</title>
<polygon fill="#ffffff" stroke="#bfbfbf" points="56.5,-237.5 56.5,-294.5 141.5,-294.5 141.5,-237.5 56.5,-237.5"/>
<text text-anchor="middle" x="99" y="-282.5" font-family="Helvetica,sans-Serif" font-size="10.00" fill="#000000">CoreDataType</text>
<polyline fill="none" stroke="#bfbfbf" points="56.5,-275.5 141.5,-275.5 "/>
<text text-anchor="middle" x="99" y="-263.5" font-family="Helvetica,sans-Serif" font-size="10.00" fill="#000000"> </text>
<polyline fill="none" stroke="#bfbfbf" points="56.5,-256.5 141.5,-256.5 "/>
<text text-anchor="middle" x="99" y="-244.5" font-family="Helvetica,sans-Serif" font-size="10.00" fill="#000000"> </text>
</g>
<!-- Node3&#45;&gt;Node1 -->
<g id="edge2" class="edge">
<title>Node3&#45;&gt;Node1</title>
<path fill="none" stroke="#404040" d="M92.6619,-237.1616C89.1837,-221.3358 84.6495,-200.7053 80.0414,-179.7385"/>
<polygon fill="none" stroke="#404040" points="79.9799,-179.4581 74.7851,-174.4566 77.4039,-167.7378 82.5987,-172.7393 79.9799,-179.4581"/>
<text text-anchor="middle" x="105" y="-200" font-family="Helvetica,sans-Serif" font-size="10.00" fill="#000000"> +type</text>
</g>
</g>
</svg>
