<?xml version="1.0" encoding="UTF-8" standalone="no"?>
<!DOCTYPE svg PUBLIC "-//W3C//DTD SVG 1.1//EN"
 "http://www.w3.org/Graphics/SVG/1.1/DTD/svg11.dtd">
<!-- Generated by graphviz version 2.40.1 (20161225.0304)
 -->
<!-- Title: LoopManager::GetCurPulse Pages: 1 -->
<svg width="835pt" height="275pt"
 viewBox="0.00 0.00 835.00 275.00" xmlns="http://www.w3.org/2000/svg" xmlns:xlink="http://www.w3.org/1999/xlink">
<g id="graph0" class="graph" transform="scale(1 1) rotate(0) translate(4 271)">
<title>LoopManager::GetCurPulse</title>
<polygon fill="#ffffff" stroke="transparent" points="-4,4 -4,-271 831,-271 831,4 -4,4"/>
<!-- Node346 -->
<g id="node1" class="node">
<title>Node346</title>
<polygon fill="#bfbfbf" stroke="#000000" points="0,-124.5 0,-143.5 148,-143.5 148,-124.5 0,-124.5"/>
<text text-anchor="middle" x="74" y="-131.5" font-family="Helvetica,sans-Serif" font-size="10.00" fill="#000000">LoopManager::GetCurPulse</text>
</g>
<!-- Node347 -->
<g id="node2" class="node">
<title>Node347</title>
<g id="a_node2"><a xlink:href="classAudioIO.html#ab0eea49d0c149eba8716d8402a9caa73" target="_top" xlink:title="AudioIO::timebase_callback">
<polygon fill="#ffffff" stroke="#000000" points="184,-209.5 184,-228.5 336,-228.5 336,-209.5 184,-209.5"/>
<text text-anchor="middle" x="260" y="-216.5" font-family="Helvetica,sans-Serif" font-size="10.00" fill="#000000">AudioIO::timebase_callback</text>
</a>
</g>
</g>
<!-- Node346&#45;&gt;Node347 -->
<g id="edge1" class="edge">
<title>Node346&#45;&gt;Node347</title>
<path fill="none" stroke="#191970" d="M99.8534,-148.5675C121.8651,-160.6847 154.5162,-177.9908 184,-191 199.4377,-197.8116 217.1018,-204.3897 231.513,-209.4565"/>
<polygon fill="#191970" stroke="#191970" points="101.2677,-145.3496 90.8252,-143.5597 97.8723,-151.471 101.2677,-145.3496"/>
</g>
<!-- Node350 -->
<g id="node5" class="node">
<title>Node350</title>
<g id="a_node5"><a xlink:href="classLoopManager.html#ab79aef15f1e783de1ab6827378bea274" target="_top" xlink:title="LoopManager::SelectPulse">
<polygon fill="#ffffff" stroke="#000000" points="188,-162.5 188,-181.5 332,-181.5 332,-162.5 188,-162.5"/>
<text text-anchor="middle" x="260" y="-169.5" font-family="Helvetica,sans-Serif" font-size="10.00" fill="#000000">LoopManager::SelectPulse</text>
</a>
</g>
</g>
<!-- Node346&#45;&gt;Node350 -->
<g id="edge5" class="edge">
<title>Node346&#45;&gt;Node350</title>
<path fill="none" stroke="#191970" d="M130.8255,-145.6095C157.279,-151.014 188.3583,-157.3635 213.4019,-162.4799"/>
<polygon fill="#191970" stroke="#191970" points="131.4339,-142.1616 120.9357,-143.589 130.0327,-149.0199 131.4339,-142.1616"/>
</g>
<!-- Node353 -->
<g id="node8" class="node">
<title>Node353</title>
<g id="a_node8"><a xlink:href="classLoopManager.html#a705436ae811a121ed3285ab34b144bfe" target="_top" xlink:title="LoopManager::CreatePulse">
<polygon fill="#ffffff" stroke="#000000" points="187,-124.5 187,-143.5 333,-143.5 333,-124.5 187,-124.5"/>
<text text-anchor="middle" x="260" y="-131.5" font-family="Helvetica,sans-Serif" font-size="10.00" fill="#000000">LoopManager::CreatePulse</text>
</a>
</g>
</g>
<!-- Node346&#45;&gt;Node353 -->
<g id="edge9" class="edge">
<title>Node346&#45;&gt;Node353</title>
<path fill="none" stroke="#191970" d="M158.3047,-134C167.8201,-134 177.4581,-134 186.8153,-134"/>
<polygon fill="#191970" stroke="#191970" points="158.0466,-130.5001 148.0466,-134 158.0465,-137.5001 158.0466,-130.5001"/>
</g>
<!-- Node354 -->
<g id="node9" class="node">
<title>Node354</title>
<g id="a_node9"><a xlink:href="classLoopManager.html#add3b21cda3c0eddecabf19d24c610cdc" target="_top" xlink:title="LoopManager::Activate">
<polygon fill="#ffffff" stroke="#000000" points="196,-86.5 196,-105.5 324,-105.5 324,-86.5 196,-86.5"/>
<text text-anchor="middle" x="260" y="-93.5" font-family="Helvetica,sans-Serif" font-size="10.00" fill="#000000">LoopManager::Activate</text>
</a>
</g>
</g>
<!-- Node346&#45;&gt;Node354 -->
<g id="edge10" class="edge">
<title>Node346&#45;&gt;Node354</title>
<path fill="none" stroke="#191970" d="M130.8255,-122.3905C157.279,-116.986 188.3583,-110.6365 213.4019,-105.5201"/>
<polygon fill="#191970" stroke="#191970" points="130.0327,-118.9801 120.9357,-124.411 131.4339,-125.8384 130.0327,-118.9801"/>
</g>
<!-- Node356 -->
<g id="node11" class="node">
<title>Node356</title>
<g id="a_node11"><a xlink:href="classSDLIO.html#a491e66a604fb750866d5de45dfa6aae0" target="_top" xlink:title="SDLIO::handle_key">
<polygon fill="#ffffff" stroke="#000000" points="206,-29.5 206,-48.5 314,-48.5 314,-29.5 206,-29.5"/>
<text text-anchor="middle" x="260" y="-36.5" font-family="Helvetica,sans-Serif" font-size="10.00" fill="#000000">SDLIO::handle_key</text>
</a>
</g>
</g>
<!-- Node346&#45;&gt;Node356 -->
<g id="edge14" class="edge">
<title>Node346&#45;&gt;Node356</title>
<path fill="none" stroke="#191970" d="M101.1235,-119.8067C123.3532,-108.2076 155.6551,-91.4292 184,-77 203.1938,-67.2292 225.2142,-56.2435 240.5941,-48.6066"/>
<polygon fill="#191970" stroke="#191970" points="99.4978,-116.7071 92.254,-124.4387 102.7383,-122.9119 99.4978,-116.7071"/>
</g>
<!-- Node348 -->
<g id="node3" class="node">
<title>Node348</title>
<g id="a_node3"><a xlink:href="classAudioIO.html#a1e4157d1900df901a60d5a2260d7509c" target="_top" xlink:title="AudioIO::open">
<polygon fill="#ffffff" stroke="#000000" points="398.5,-247.5 398.5,-266.5 483.5,-266.5 483.5,-247.5 398.5,-247.5"/>
<text text-anchor="middle" x="441" y="-254.5" font-family="Helvetica,sans-Serif" font-size="10.00" fill="#000000">AudioIO::open</text>
</a>
</g>
</g>
<!-- Node347&#45;&gt;Node348 -->
<g id="edge2" class="edge">
<title>Node347&#45;&gt;Node348</title>
<path fill="none" stroke="#191970" d="M315.6358,-230.6804C342.2996,-236.2784 373.7297,-242.877 398.4492,-248.0667"/>
<polygon fill="#191970" stroke="#191970" points="316.1797,-227.2184 305.6739,-228.589 314.7414,-234.0691 316.1797,-227.2184"/>
</g>
<!-- Node349 -->
<g id="node4" class="node">
<title>Node349</title>
<g id="a_node4"><a xlink:href="classAudioIO.html#a012ce924f59ced78f2fac75e6e33b55c" target="_top" xlink:title="AudioIO::AudioIO">
<polygon fill="#ffffff" stroke="#000000" points="573.5,-228.5 573.5,-247.5 672.5,-247.5 672.5,-228.5 573.5,-228.5"/>
<text text-anchor="middle" x="623" y="-235.5" font-family="Helvetica,sans-Serif" font-size="10.00" fill="#000000">AudioIO::AudioIO</text>
</a>
</g>
</g>
<!-- Node347&#45;&gt;Node349 -->
<g id="edge4" class="edge">
<title>Node347&#45;&gt;Node349</title>
<path fill="none" stroke="#191970" d="M346.3508,-223.5197C417.2319,-227.2298 515.1059,-232.3526 573.4349,-235.4057"/>
<polygon fill="#191970" stroke="#191970" points="346.266,-220.0106 336.0967,-222.983 345.9,-227.001 346.266,-220.0106"/>
</g>
<!-- Node348&#45;&gt;Node349 -->
<g id="edge3" class="edge">
<title>Node348&#45;&gt;Node349</title>
<path fill="none" stroke="#191970" d="M493.7245,-251.4958C518.7612,-248.8821 548.5248,-245.7749 573.1784,-243.2012"/>
<polygon fill="#191970" stroke="#191970" points="493.2534,-248.0259 483.6709,-252.5453 493.9803,-254.988 493.2534,-248.0259"/>
</g>
<!-- Node351 -->
<g id="node6" class="node">
<title>Node351</title>
<g id="a_node6"><a xlink:href="classLoopManager.html#a67c6f44d33880b35c875a8e6ea8babac" target="_top" xlink:title="LoopManager::TapPulse">
<polygon fill="#ffffff" stroke="#000000" points="375.5,-171.5 375.5,-190.5 506.5,-190.5 506.5,-171.5 375.5,-171.5"/>
<text text-anchor="middle" x="441" y="-178.5" font-family="Helvetica,sans-Serif" font-size="10.00" fill="#000000">LoopManager::TapPulse</text>
</a>
</g>
</g>
<!-- Node350&#45;&gt;Node351 -->
<g id="edge6" class="edge">
<title>Node350&#45;&gt;Node351</title>
<path fill="none" stroke="#191970" d="M342.1932,-176.087C353.3042,-176.6394 364.5836,-177.2003 375.3539,-177.7358"/>
<polygon fill="#191970" stroke="#191970" points="342.2176,-172.5839 332.0561,-175.5829 341.8699,-179.5753 342.2176,-172.5839"/>
</g>
<!-- Node352 -->
<g id="node7" class="node">
<title>Node352</title>
<g id="a_node7"><a xlink:href="classLoopManager.html#a4aada2d07b7ce0a67a8119ece4805966" target="_top" xlink:title="LoopManager::ReceiveEvent">
<polygon fill="#ffffff" stroke="#000000" points="546,-114.5 546,-133.5 700,-133.5 700,-114.5 546,-114.5"/>
<text text-anchor="middle" x="623" y="-121.5" font-family="Helvetica,sans-Serif" font-size="10.00" fill="#000000">LoopManager::ReceiveEvent</text>
</a>
</g>
</g>
<!-- Node350&#45;&gt;Node352 -->
<g id="edge8" class="edge">
<title>Node350&#45;&gt;Node352</title>
<path fill="none" stroke="#191970" d="M342.4222,-161.1012C405.2427,-152.7944 490.8958,-141.4683 550.9854,-133.5226"/>
<polygon fill="#191970" stroke="#191970" points="341.606,-157.6786 332.1511,-162.4594 342.5237,-164.6182 341.606,-157.6786"/>
</g>
<!-- Node351&#45;&gt;Node352 -->
<g id="edge7" class="edge">
<title>Node351&#45;&gt;Node352</title>
<path fill="none" stroke="#191970" d="M481.4097,-168.3442C514.959,-157.837 561.9554,-143.1184 592.4379,-133.5716"/>
<polygon fill="#191970" stroke="#191970" points="479.9596,-165.1307 471.4627,-171.4595 482.0517,-171.8107 479.9596,-165.1307"/>
</g>
<!-- Node354&#45;&gt;Node352 -->
<g id="edge13" class="edge">
<title>Node354&#45;&gt;Node352</title>
<path fill="none" stroke="#191970" d="M334.1078,-101.7163C395.7505,-106.4711 483.2022,-113.2167 545.7116,-118.0384"/>
<polygon fill="#191970" stroke="#191970" points="334.3011,-98.2209 324.0615,-100.9414 333.7627,-105.2002 334.3011,-98.2209"/>
</g>
<!-- Node355 -->
<g id="node10" class="node">
<title>Node355</title>
<g id="a_node10"><a xlink:href="classFweelin.html#a4654015e2bc7cc94f3bfc421899a60d3" target="_top" xlink:title="Fweelin::TriggerSnapshot">
<polygon fill="#ffffff" stroke="#000000" points="372,-57.5 372,-76.5 510,-76.5 510,-57.5 372,-57.5"/>
<text text-anchor="middle" x="441" y="-64.5" font-family="Helvetica,sans-Serif" font-size="10.00" fill="#000000">Fweelin::TriggerSnapshot</text>
</a>
</g>
</g>
<!-- Node354&#45;&gt;Node355 -->
<g id="edge11" class="edge">
<title>Node354&#45;&gt;Node355</title>
<path fill="none" stroke="#191970" d="M329.4678,-84.8698C346.6117,-82.123 364.8217,-79.2054 381.4474,-76.5416"/>
<polygon fill="#191970" stroke="#191970" points="328.8372,-81.4261 319.5169,-86.4641 329.9447,-88.338 328.8372,-81.4261"/>
</g>
<!-- Node355&#45;&gt;Node352 -->
<g id="edge12" class="edge">
<title>Node355&#45;&gt;Node352</title>
<path fill="none" stroke="#191970" d="M481.4097,-79.6558C514.959,-90.163 561.9554,-104.8816 592.4379,-114.4284"/>
<polygon fill="#191970" stroke="#191970" points="482.0517,-76.1893 471.4627,-76.5405 479.9596,-82.8693 482.0517,-76.1893"/>
</g>
<!-- Node357 -->
<g id="node12" class="node">
<title>Node357</title>
<g id="a_node12"><a xlink:href="classSDLIO.html#ad1b1bf6d23251b3014749b18497c1b91" target="_top" xlink:title="SDLIO::run_sdl_thread">
<polygon fill="#ffffff" stroke="#000000" points="379,-19.5 379,-38.5 503,-38.5 503,-19.5 379,-19.5"/>
<text text-anchor="middle" x="441" y="-26.5" font-family="Helvetica,sans-Serif" font-size="10.00" fill="#000000">SDLIO::run_sdl_thread</text>
</a>
</g>
</g>
<!-- Node356&#45;&gt;Node357 -->
<g id="edge15" class="edge">
<title>Node356&#45;&gt;Node357</title>
<path fill="none" stroke="#191970" d="M324.5123,-35.4358C342.1685,-34.4603 361.2666,-33.4052 378.7912,-32.437"/>
<polygon fill="#191970" stroke="#191970" points="324.0976,-31.9533 314.306,-35.9997 324.4838,-38.9426 324.0976,-31.9533"/>
</g>
<!-- Node358 -->
<g id="node13" class="node">
<title>Node358</title>
<g id="a_node13"><a xlink:href="classFweelin.html#a268997890fa59492e27b4787c6bdc41f" target="_top" xlink:title="Fweelin::go">
<polygon fill="#ffffff" stroke="#000000" points="587,-38.5 587,-57.5 659,-57.5 659,-38.5 587,-38.5"/>
<text text-anchor="middle" x="623" y="-45.5" font-family="Helvetica,sans-Serif" font-size="10.00" fill="#000000">Fweelin::go</text>
</a>
</g>
</g>
<!-- Node357&#45;&gt;Node358 -->
<g id="edge16" class="edge">
<title>Node357&#45;&gt;Node358</title>
<path fill="none" stroke="#191970" d="M513.083,-36.5252C538.409,-39.1691 565.7801,-42.0265 586.8735,-44.2286"/>
<polygon fill="#191970" stroke="#191970" points="513.4344,-33.0429 503.125,-35.4856 512.7075,-40.0051 513.4344,-33.0429"/>
</g>
<!-- Node361 -->
<g id="node16" class="node">
<title>Node361</title>
<g id="a_node16"><a xlink:href="classSDLIO.html#a219c64dd0f01ca0fe0319ba7a0a3379e" target="_top" xlink:title="SDLIO::activate">
<polygon fill="#ffffff" stroke="#000000" points="577,-.5 577,-19.5 669,-19.5 669,-.5 577,-.5"/>
<text text-anchor="middle" x="623" y="-7.5" font-family="Helvetica,sans-Serif" font-size="10.00" fill="#000000">SDLIO::activate</text>
</a>
</g>
</g>
<!-- Node357&#45;&gt;Node361 -->
<g id="edge19" class="edge">
<title>Node357&#45;&gt;Node361</title>
<path fill="none" stroke="#191970" d="M513.2009,-21.4625C534.682,-19.22 557.6244,-16.8249 576.9534,-14.8071"/>
<polygon fill="#191970" stroke="#191970" points="512.7075,-17.9949 503.125,-22.5144 513.4344,-24.9571 512.7075,-17.9949"/>
</g>
<!-- Node359 -->
<g id="node14" class="node">
<title>Node359</title>
<g id="a_node14"><a xlink:href="fweelin_8cc.html#a97b0fa62b7b0972875f5f589322c4c24" target="_top" xlink:title="main">
<polygon fill="#ffffff" stroke="#000000" points="761,-57.5 761,-76.5 802,-76.5 802,-57.5 761,-57.5"/>
<text text-anchor="middle" x="781.5" y="-64.5" font-family="Helvetica,sans-Serif" font-size="10.00" fill="#000000">main</text>
</a>
</g>
</g>
<!-- Node358&#45;&gt;Node359 -->
<g id="edge17" class="edge">
<title>Node358&#45;&gt;Node359</title>
<path fill="none" stroke="#191970" d="M669.3083,-53.5512C699.6151,-57.1841 737.7409,-61.7544 760.8348,-64.5228"/>
<polygon fill="#191970" stroke="#191970" points="669.7086,-50.0742 659.3631,-52.359 668.8754,-57.0244 669.7086,-50.0742"/>
</g>
<!-- Node360 -->
<g id="node15" class="node">
<title>Node360</title>
<g id="a_node15"><a xlink:href="classLoopTray.html#a307e6abe64c403e39fc463ec282bde27" target="_top" xlink:title="LoopTray::Draw">
<polygon fill="#ffffff" stroke="#000000" points="736,-19.5 736,-38.5 827,-38.5 827,-19.5 736,-19.5"/>
<text text-anchor="middle" x="781.5" y="-26.5" font-family="Helvetica,sans-Serif" font-size="10.00" fill="#000000">LoopTray::Draw</text>
</a>
</g>
</g>
<!-- Node358&#45;&gt;Node360 -->
<g id="edge18" class="edge">
<title>Node358&#45;&gt;Node360</title>
<path fill="none" stroke="#191970" d="M669.3313,-42.4461C690.3174,-39.9304 715.049,-36.9657 735.9417,-34.4612"/>
<polygon fill="#191970" stroke="#191970" points="668.8754,-38.9756 659.3631,-43.641 669.7086,-45.9258 668.8754,-38.9756"/>
</g>
</g>
</svg>
