<?xml version="1.0" encoding="UTF-8" standalone="no"?>
<!DOCTYPE svg PUBLIC "-//W3C//DTD SVG 1.1//EN"
 "http://www.w3.org/Graphics/SVG/1.1/DTD/svg11.dtd">
<!-- Generated by graphviz version 2.40.1 (20161225.0304)
 -->
<!-- Title: InputMatrix::ParseToken Pages: 1 -->
<svg width="736pt" height="66pt"
 viewBox="0.00 0.00 736.00 66.00" xmlns="http://www.w3.org/2000/svg" xmlns:xlink="http://www.w3.org/1999/xlink">
<g id="graph0" class="graph" transform="scale(1 1) rotate(0) translate(4 62)">
<title>InputMatrix::ParseToken</title>
<polygon fill="#ffffff" stroke="transparent" points="-4,4 -4,-62 732,-62 732,4 -4,4"/>
<!-- Node119 -->
<g id="node1" class="node">
<title>Node119</title>
<polygon fill="#bfbfbf" stroke="#000000" points="0,-19.5 0,-38.5 133,-38.5 133,-19.5 0,-19.5"/>
<text text-anchor="middle" x="66.5" y="-26.5" font-family="Helvetica,sans-Serif" font-size="10.00" fill="#000000">InputMatrix::ParseToken</text>
</g>
<!-- Node120 -->
<g id="node2" class="node">
<title>Node120</title>
<g id="a_node2"><a xlink:href="classInputMatrix.html#a0f597dbf1d6c784c851626005fb2ee72" target="_top" xlink:title="InputMatrix::ParseExpression">
<polygon fill="#ffffff" stroke="#000000" points="169,-19.5 169,-38.5 327,-38.5 327,-19.5 169,-19.5"/>
<text text-anchor="middle" x="248" y="-26.5" font-family="Helvetica,sans-Serif" font-size="10.00" fill="#000000">InputMatrix::ParseExpression</text>
</a>
</g>
</g>
<!-- Node119&#45;&gt;Node120 -->
<g id="edge1" class="edge">
<title>Node119&#45;&gt;Node120</title>
<path fill="none" stroke="#191970" d="M143.2659,-29C151.7226,-29 160.3454,-29 168.8308,-29"/>
<polygon fill="#191970" stroke="#191970" points="143.0533,-25.5001 133.0533,-29 143.0533,-32.5001 143.0533,-25.5001"/>
</g>
<!-- Node121 -->
<g id="node3" class="node">
<title>Node121</title>
<g id="a_node3"><a xlink:href="classInputMatrix.html#ab36ad421b65b64d6e64f228b84792b4c" target="_top" xlink:title="InputMatrix::CreateParameterSets">
<polygon fill="#ffffff" stroke="#000000" points="363,-38.5 363,-57.5 545,-57.5 545,-38.5 363,-38.5"/>
<text text-anchor="middle" x="454" y="-45.5" font-family="Helvetica,sans-Serif" font-size="10.00" fill="#000000">InputMatrix::CreateParameterSets</text>
</a>
</g>
</g>
<!-- Node120&#45;&gt;Node121 -->
<g id="edge2" class="edge">
<title>Node120&#45;&gt;Node121</title>
<path fill="none" stroke="#191970" d="M337.2839,-37.2349C345.7328,-38.0142 354.3071,-38.805 362.7739,-39.5859"/>
<polygon fill="#191970" stroke="#191970" points="337.335,-33.7249 327.0558,-36.2916 336.6921,-40.6953 337.335,-33.7249"/>
</g>
<!-- Node123 -->
<g id="node5" class="node">
<title>Node123</title>
<g id="a_node5"><a xlink:href="classInputMatrix.html#a767b7c5cd149e18a51105922aa9e8abb" target="_top" xlink:title="InputMatrix::CreateConditions">
<polygon fill="#ffffff" stroke="#000000" points="373,-.5 373,-19.5 535,-19.5 535,-.5 373,-.5"/>
<text text-anchor="middle" x="454" y="-7.5" font-family="Helvetica,sans-Serif" font-size="10.00" fill="#000000">InputMatrix::CreateConditions</text>
</a>
</g>
</g>
<!-- Node120&#45;&gt;Node123 -->
<g id="edge4" class="edge">
<title>Node120&#45;&gt;Node123</title>
<path fill="none" stroke="#191970" d="M337.3298,-20.7608C349.1102,-19.6743 361.1333,-18.5654 372.7682,-17.4923"/>
<polygon fill="#191970" stroke="#191970" points="336.6921,-17.3047 327.0558,-21.7084 337.335,-24.2751 336.6921,-17.3047"/>
</g>
<!-- Node122 -->
<g id="node4" class="node">
<title>Node122</title>
<g id="a_node4"><a xlink:href="classInputMatrix.html#a792ede8dc637e3d8e6c4aa8141596d18" target="_top" xlink:title="InputMatrix::CreateBinding">
<polygon fill="#ffffff" stroke="#000000" points="581,-19.5 581,-38.5 728,-38.5 728,-19.5 581,-19.5"/>
<text text-anchor="middle" x="654.5" y="-26.5" font-family="Helvetica,sans-Serif" font-size="10.00" fill="#000000">InputMatrix::CreateBinding</text>
</a>
</g>
</g>
<!-- Node121&#45;&gt;Node122 -->
<g id="edge3" class="edge">
<title>Node121&#45;&gt;Node122</title>
<path fill="none" stroke="#191970" d="M555.3074,-38.3998C563.9636,-37.5795 572.6093,-36.7602 580.9864,-35.9664"/>
<polygon fill="#191970" stroke="#191970" points="554.7816,-34.9339 545.1564,-39.3617 555.442,-41.9026 554.7816,-34.9339"/>
</g>
<!-- Node123&#45;&gt;Node122 -->
<g id="edge5" class="edge">
<title>Node123&#45;&gt;Node122</title>
<path fill="none" stroke="#191970" d="M545.2344,-18.6456C557.1722,-19.7769 569.282,-20.9245 580.8792,-22.0235"/>
<polygon fill="#191970" stroke="#191970" points="545.5476,-15.1597 535.262,-17.7006 544.8872,-22.1285 545.5476,-15.1597"/>
</g>
</g>
</svg>
