<?xml version="1.0" encoding="UTF-8" standalone="no"?>
<!DOCTYPE svg PUBLIC "-//W3C//DTD SVG 1.1//EN"
 "http://www.w3.org/Graphics/SVG/1.1/DTD/svg11.dtd">
<!-- Generated by graphviz version 2.40.1 (20161225.0304)
 -->
<!-- Title: Fweelin::getEMG Pages: 1 -->
<svg width="716pt" height="1491pt"
 viewBox="0.00 0.00 716.00 1491.00" xmlns="http://www.w3.org/2000/svg" xmlns:xlink="http://www.w3.org/1999/xlink">
<g id="graph0" class="graph" transform="scale(1 1) rotate(0) translate(4 1487)">
<title>Fweelin::getEMG</title>
<polygon fill="#ffffff" stroke="transparent" points="-4,4 -4,-1487 712,-1487 712,4 -4,4"/>
<!-- Node244 -->
<g id="node1" class="node">
<title>Node244</title>
<polygon fill="#bfbfbf" stroke="#000000" points="0,-760.5 0,-779.5 98,-779.5 98,-760.5 0,-760.5"/>
<text text-anchor="middle" x="49" y="-767.5" font-family="Helvetica,sans-Serif" font-size="10.00" fill="#000000">Fweelin::getEMG</text>
</g>
<!-- Node245 -->
<g id="node2" class="node">
<title>Node245</title>
<g id="a_node2"><a xlink:href="classFweelinMac.html#ae3b1a5e95aea6b8827a079d965bb0df6" target="_top" xlink:title="FweelinMac::SetDebugMode">
<polygon fill="#ffffff" stroke="#000000" points="147,-1463.5 147,-1482.5 300,-1482.5 300,-1463.5 147,-1463.5"/>
<text text-anchor="middle" x="223.5" y="-1470.5" font-family="Helvetica,sans-Serif" font-size="10.00" fill="#000000">FweelinMac::SetDebugMode</text>
</a>
</g>
</g>
<!-- Node244&#45;&gt;Node245 -->
<g id="edge1" class="edge">
<title>Node244&#45;&gt;Node245</title>
<path fill="none" stroke="#191970" d="M50.0984,-789.6635C56.2372,-896.4293 87.6922,-1403.5509 134,-1454 137.7595,-1458.0957 142.164,-1461.4267 146.9667,-1464.1254"/>
<polygon fill="#191970" stroke="#191970" points="53.59,-789.4143 49.5287,-779.6288 46.6013,-789.8112 53.59,-789.4143"/>
</g>
<!-- Node247 -->
<g id="node4" class="node">
<title>Node247</title>
<g id="a_node4"><a xlink:href="classFweelinMac.html#a1454097dbdc67c119aa91662e66cb4b2" target="_top" xlink:title="FweelinMac::Quit">
<polygon fill="#ffffff" stroke="#000000" points="173.5,-1425.5 173.5,-1444.5 273.5,-1444.5 273.5,-1425.5 173.5,-1425.5"/>
<text text-anchor="middle" x="223.5" y="-1432.5" font-family="Helvetica,sans-Serif" font-size="10.00" fill="#000000">FweelinMac::Quit</text>
</a>
</g>
</g>
<!-- Node244&#45;&gt;Node247 -->
<g id="edge3" class="edge">
<title>Node244&#45;&gt;Node247</title>
<path fill="none" stroke="#191970" d="M50.2612,-789.8563C57.015,-893.4174 90.2366,-1368.6657 134,-1416 144.0286,-1426.8469 158.5824,-1432.3203 173.0501,-1434.893"/>
<polygon fill="#191970" stroke="#191970" points="53.7503,-789.5728 49.6141,-779.8188 46.7648,-790.0232 53.7503,-789.5728"/>
</g>
<!-- Node249 -->
<g id="node6" class="node">
<title>Node249</title>
<g id="a_node6"><a xlink:href="classFweelinMac.html#ab485e9439ebef90a89b724c4219f9474" target="_top" xlink:title="FweelinMac::ShowHelp">
<polygon fill="#ffffff" stroke="#000000" points="159.5,-1387.5 159.5,-1406.5 287.5,-1406.5 287.5,-1387.5 159.5,-1387.5"/>
<text text-anchor="middle" x="223.5" y="-1394.5" font-family="Helvetica,sans-Serif" font-size="10.00" fill="#000000">FweelinMac::ShowHelp</text>
</a>
</g>
</g>
<!-- Node244&#45;&gt;Node249 -->
<g id="edge5" class="edge">
<title>Node244&#45;&gt;Node249</title>
<path fill="none" stroke="#191970" d="M50.4364,-789.9202C57.8199,-889.8775 92.7574,-1333.7519 134,-1378 140.8232,-1385.3204 149.7084,-1390.1885 159.2275,-1393.3679"/>
<polygon fill="#191970" stroke="#191970" points="53.9099,-789.429 49.6903,-779.7107 46.9285,-789.9392 53.9099,-789.429"/>
</g>
<!-- Node251 -->
<g id="node8" class="node">
<title>Node251</title>
<g id="a_node8"><a xlink:href="classAudioIO.html#aa131b2f89b09eeb058f56676833bf2df" target="_top" xlink:title="AudioIO::process">
<polygon fill="#ffffff" stroke="#000000" points="174.5,-1349.5 174.5,-1368.5 272.5,-1368.5 272.5,-1349.5 174.5,-1349.5"/>
<text text-anchor="middle" x="223.5" y="-1356.5" font-family="Helvetica,sans-Serif" font-size="10.00" fill="#000000">AudioIO::process</text>
</a>
</g>
</g>
<!-- Node244&#45;&gt;Node251 -->
<g id="edge7" class="edge">
<title>Node244&#45;&gt;Node251</title>
<path fill="none" stroke="#191970" d="M50.6006,-789.57C58.5794,-885.0162 95.2166,-1298.7693 134,-1340 144.3392,-1350.9916 159.3299,-1356.4419 174.0959,-1358.9499"/>
<polygon fill="#191970" stroke="#191970" points="54.0847,-789.2317 49.7715,-779.5546 47.1086,-789.8093 54.0847,-789.2317"/>
</g>
<!-- Node254 -->
<g id="node11" class="node">
<title>Node254</title>
<g id="a_node11"><a xlink:href="classBrowser.html#a53b7061ec24c8189cfd72a6bed8ef6b7" target="_top" xlink:title="Browser::~Browser">
<polygon fill="#ffffff" stroke="#000000" points="168.5,-1311.5 168.5,-1330.5 278.5,-1330.5 278.5,-1311.5 168.5,-1311.5"/>
<text text-anchor="middle" x="223.5" y="-1318.5" font-family="Helvetica,sans-Serif" font-size="10.00" fill="#000000">Browser::~Browser</text>
</a>
</g>
</g>
<!-- Node244&#45;&gt;Node254 -->
<g id="edge11" class="edge">
<title>Node244&#45;&gt;Node254</title>
<path fill="none" stroke="#191970" d="M49.4074,-789.6461C51.5949,-875.8989 64.6104,-1220.1393 134,-1297 142.9476,-1306.9109 155.5012,-1312.9181 168.3821,-1316.511"/>
<polygon fill="#191970" stroke="#191970" points="52.9063,-789.5518 49.1741,-779.6361 45.9082,-789.715 52.9063,-789.5518"/>
</g>
<!-- Node255 -->
<g id="node12" class="node">
<title>Node255</title>
<g id="a_node12"><a xlink:href="classBrowser.html#a8e239fa3c820e6217144facca1c5f7f6" target="_top" xlink:title="Browser::Setup">
<polygon fill="#ffffff" stroke="#000000" points="178.5,-1235.5 178.5,-1254.5 268.5,-1254.5 268.5,-1235.5 178.5,-1235.5"/>
<text text-anchor="middle" x="223.5" y="-1242.5" font-family="Helvetica,sans-Serif" font-size="10.00" fill="#000000">Browser::Setup</text>
</a>
</g>
</g>
<!-- Node244&#45;&gt;Node255 -->
<g id="edge12" class="edge">
<title>Node244&#45;&gt;Node255</title>
<path fill="none" stroke="#191970" d="M49.9963,-789.7377C54.35,-868.1546 74.2399,-1156.5353 134,-1221 145.3742,-1233.2696 162.2778,-1239.5311 178.3411,-1242.6411"/>
<polygon fill="#191970" stroke="#191970" points="53.4909,-789.5428 49.4638,-779.7432 46.5009,-789.9153 53.4909,-789.5428"/>
</g>
<!-- Node256 -->
<g id="node13" class="node">
<title>Node256</title>
<g id="a_node13"><a xlink:href="classLoopTray.html#aa6e5078f941f8d743b5a113856bff562" target="_top" xlink:title="LoopTray::Setup">
<polygon fill="#ffffff" stroke="#000000" points="384.5,-1254.5 384.5,-1273.5 477.5,-1273.5 477.5,-1254.5 384.5,-1254.5"/>
<text text-anchor="middle" x="431" y="-1261.5" font-family="Helvetica,sans-Serif" font-size="10.00" fill="#000000">LoopTray::Setup</text>
</a>
</g>
</g>
<!-- Node244&#45;&gt;Node256 -->
<g id="edge18" class="edge">
<title>Node244&#45;&gt;Node256</title>
<path fill="none" stroke="#191970" d="M50.8852,-789.5498C59.5475,-877.38 96.7039,-1232.5732 134,-1264 212.8611,-1330.4507 349.7761,-1293.0722 405.9028,-1273.5393"/>
<polygon fill="#191970" stroke="#191970" points="54.3682,-789.2036 49.9128,-779.5911 47.4013,-789.8839 54.3682,-789.2036"/>
</g>
<!-- Node257 -->
<g id="node14" class="node">
<title>Node257</title>
<g id="a_node14"><a xlink:href="classPatchBrowser.html#a320e40941d8bb13c599f793b1deea805" target="_top" xlink:title="PatchBrowser::Setup">
<polygon fill="#ffffff" stroke="#000000" points="373,-1206.5 373,-1225.5 489,-1225.5 489,-1206.5 373,-1206.5"/>
<text text-anchor="middle" x="431" y="-1213.5" font-family="Helvetica,sans-Serif" font-size="10.00" fill="#000000">PatchBrowser::Setup</text>
</a>
</g>
</g>
<!-- Node244&#45;&gt;Node257 -->
<g id="edge21" class="edge">
<title>Node244&#45;&gt;Node257</title>
<path fill="none" stroke="#191970" d="M50.0179,-789.9941C54.313,-865.77 73.6129,-1133.7307 134,-1188 167.9949,-1218.5509 296.2917,-1220.2846 372.6975,-1218.4151"/>
<polygon fill="#191970" stroke="#191970" points="53.4879,-789.3414 49.4534,-779.5448 46.4981,-789.719 53.4879,-789.3414"/>
</g>
<!-- Node260 -->
<g id="node16" class="node">
<title>Node260</title>
<g id="a_node16"><a xlink:href="classBrowser.html#a71b602afb445cf9d41ef51ddc2696485" target="_top" xlink:title="Browser::MoveTo">
<polygon fill="#ffffff" stroke="#000000" points="174,-1121.5 174,-1140.5 273,-1140.5 273,-1121.5 174,-1121.5"/>
<text text-anchor="middle" x="223.5" y="-1128.5" font-family="Helvetica,sans-Serif" font-size="10.00" fill="#000000">Browser::MoveTo</text>
</a>
</g>
</g>
<!-- Node244&#45;&gt;Node260 -->
<g id="edge16" class="edge">
<title>Node244&#45;&gt;Node260</title>
<path fill="none" stroke="#191970" d="M51.1935,-789.9112C58.8734,-855.9685 86.6813,-1066.2825 134,-1112 144.624,-1122.2645 159.3406,-1127.5787 173.7742,-1130.1846"/>
<polygon fill="#191970" stroke="#191970" points="54.6332,-789.1813 50.0279,-779.6397 47.6778,-789.9706 54.6332,-789.1813"/>
</g>
<!-- Node261 -->
<g id="node17" class="node">
<title>Node261</title>
<g id="a_node17"><a xlink:href="classLoopTray.html#a972a3fcb0906760d4dea5b852ee34eb2" target="_top" xlink:title="LoopTray::~LoopTray">
<polygon fill="#ffffff" stroke="#000000" points="165,-1083.5 165,-1102.5 282,-1102.5 282,-1083.5 165,-1083.5"/>
<text text-anchor="middle" x="223.5" y="-1090.5" font-family="Helvetica,sans-Serif" font-size="10.00" fill="#000000">LoopTray::~LoopTray</text>
</a>
</g>
</g>
<!-- Node244&#45;&gt;Node261 -->
<g id="edge17" class="edge">
<title>Node244&#45;&gt;Node261</title>
<path fill="none" stroke="#191970" d="M51.8747,-790.0568C61.0561,-851.31 91.5785,-1034.1885 134,-1074 142.4554,-1081.9351 153.3661,-1086.8897 164.6444,-1089.9184"/>
<polygon fill="#191970" stroke="#191970" points="55.2843,-789.1851 50.368,-779.8001 48.3586,-790.2026 55.2843,-789.1851"/>
</g>
<!-- Node262 -->
<g id="node18" class="node">
<title>Node262</title>
<g id="a_node18"><a xlink:href="classLoopTray.html#ad51e58a17792f36a249b1543a96a02a6" target="_top" xlink:title="LoopTray::MouseButton">
<polygon fill="#ffffff" stroke="#000000" points="159,-1045.5 159,-1064.5 288,-1064.5 288,-1045.5 159,-1045.5"/>
<text text-anchor="middle" x="223.5" y="-1052.5" font-family="Helvetica,sans-Serif" font-size="10.00" fill="#000000">LoopTray::MouseButton</text>
</a>
</g>
</g>
<!-- Node244&#45;&gt;Node262 -->
<g id="edge19" class="edge">
<title>Node244&#45;&gt;Node262</title>
<path fill="none" stroke="#191970" d="M52.6572,-789.7185C63.3732,-845.387 96.3274,-1001.9219 134,-1036 141.068,-1042.3936 149.7392,-1046.8339 158.8739,-1049.8853"/>
<polygon fill="#191970" stroke="#191970" points="56.0638,-788.8967 50.7648,-779.7222 49.186,-790.1988 56.0638,-788.8967"/>
</g>
<!-- Node263 -->
<g id="node19" class="node">
<title>Node263</title>
<g id="a_node19"><a xlink:href="classPatchBrowser.html#acaa6ebdc72e5d29e692422347ccf28aa" target="_top" xlink:title="PatchBrowser::~PatchBrowser">
<polygon fill="#ffffff" stroke="#000000" points="142,-1007.5 142,-1026.5 305,-1026.5 305,-1007.5 142,-1007.5"/>
<text text-anchor="middle" x="223.5" y="-1014.5" font-family="Helvetica,sans-Serif" font-size="10.00" fill="#000000">PatchBrowser::~PatchBrowser</text>
</a>
</g>
</g>
<!-- Node244&#45;&gt;Node263 -->
<g id="edge20" class="edge">
<title>Node244&#45;&gt;Node263</title>
<path fill="none" stroke="#191970" d="M50.2056,-789.6745C54.0399,-834.1141 69.8393,-942.6769 134,-998 138.3308,-1001.7342 143.2134,-1004.794 148.4071,-1007.295"/>
<polygon fill="#191970" stroke="#191970" points="53.6886,-789.3154 49.4523,-779.6044 46.7081,-789.8377 53.6886,-789.3154"/>
</g>
<!-- Node264 -->
<g id="node20" class="node">
<title>Node264</title>
<g id="a_node20"><a xlink:href="classInputMatrix.html#a92fb22b30d84329f548bc51931c3c99e" target="_top" xlink:title="InputMatrix::Start">
<polygon fill="#ffffff" stroke="#000000" points="173,-969.5 173,-988.5 274,-988.5 274,-969.5 173,-969.5"/>
<text text-anchor="middle" x="223.5" y="-976.5" font-family="Helvetica,sans-Serif" font-size="10.00" fill="#000000">InputMatrix::Start</text>
</a>
</g>
</g>
<!-- Node244&#45;&gt;Node264 -->
<g id="edge22" class="edge">
<title>Node244&#45;&gt;Node264</title>
<path fill="none" stroke="#191970" d="M51.8663,-789.8143C58.6103,-828.8543 79.2559,-915.7614 134,-960 144.9957,-968.8856 159.1634,-973.8894 172.9685,-976.6364"/>
<polygon fill="#191970" stroke="#191970" points="55.2905,-789.0617 50.2561,-779.7395 48.3782,-790.1665 55.2905,-789.0617"/>
</g>
<!-- Node265 -->
<g id="node21" class="node">
<title>Node265</title>
<g id="a_node21"><a xlink:href="classInputMatrix.html#a941629c2da3685c5379825be93413ed9" target="_top" xlink:title="InputMatrix::~InputMatrix">
<polygon fill="#ffffff" stroke="#000000" points="152.5,-931.5 152.5,-950.5 294.5,-950.5 294.5,-931.5 152.5,-931.5"/>
<text text-anchor="middle" x="223.5" y="-938.5" font-family="Helvetica,sans-Serif" font-size="10.00" fill="#000000">InputMatrix::~InputMatrix</text>
</a>
</g>
</g>
<!-- Node244&#45;&gt;Node265 -->
<g id="edge23" class="edge">
<title>Node244&#45;&gt;Node265</title>
<path fill="none" stroke="#191970" d="M54.1551,-789.4577C63.9079,-822.2715 88.2954,-888.3215 134,-922 139.4987,-926.0519 145.6753,-929.2786 152.1469,-931.8431"/>
<polygon fill="#191970" stroke="#191970" points="57.4852,-788.3708 51.3991,-779.6984 50.7486,-790.2733 57.4852,-788.3708"/>
</g>
<!-- Node266 -->
<g id="node22" class="node">
<title>Node266</title>
<g id="a_node22"><a xlink:href="classInputMatrix.html#aa74204a205a10f2b60809ea124db9173" target="_top" xlink:title="InputMatrix::ReceiveEvent">
<polygon fill="#ffffff" stroke="#000000" points="151.5,-893.5 151.5,-912.5 295.5,-912.5 295.5,-893.5 151.5,-893.5"/>
<text text-anchor="middle" x="223.5" y="-900.5" font-family="Helvetica,sans-Serif" font-size="10.00" fill="#000000">InputMatrix::ReceiveEvent</text>
</a>
</g>
</g>
<!-- Node244&#45;&gt;Node266 -->
<g id="edge24" class="edge">
<title>Node244&#45;&gt;Node266</title>
<path fill="none" stroke="#191970" d="M57.6783,-788.9409C70.5223,-814.7287 97.1105,-860.3734 134,-884 140.0193,-887.8552 146.6879,-890.9421 153.5915,-893.4117"/>
<polygon fill="#191970" stroke="#191970" points="60.782,-787.3185 53.2981,-779.819 54.4718,-790.3487 60.782,-787.3185"/>
</g>
<!-- Node267 -->
<g id="node23" class="node">
<title>Node267</title>
<g id="a_node23"><a xlink:href="classFloConfig.html#a87625b8761486bb3bc5d40ee2b70d7e4" target="_top" xlink:title="FloConfig::StartInterfaces">
<polygon fill="#ffffff" stroke="#000000" points="153.5,-855.5 153.5,-874.5 293.5,-874.5 293.5,-855.5 153.5,-855.5"/>
<text text-anchor="middle" x="223.5" y="-862.5" font-family="Helvetica,sans-Serif" font-size="10.00" fill="#000000">FloConfig::StartInterfaces</text>
</a>
</g>
</g>
<!-- Node244&#45;&gt;Node267 -->
<g id="edge25" class="edge">
<title>Node244&#45;&gt;Node267</title>
<path fill="none" stroke="#191970" d="M63.5226,-787.4908C79.1009,-805.0567 105.4767,-831.5337 134,-846 141.65,-849.8799 150.0549,-852.9683 158.5559,-855.4266"/>
<polygon fill="#191970" stroke="#191970" points="65.9625,-784.9608 56.7804,-779.675 60.6621,-789.5332 65.9625,-784.9608"/>
</g>
<!-- Node268 -->
<g id="node24" class="node">
<title>Node268</title>
<g id="a_node24"><a xlink:href="classLoopManager.html#a70967ac90529ee371dc5350cbced90a5" target="_top" xlink:title="LoopManager::LoopManager">
<polygon fill="#ffffff" stroke="#000000" points="147,-1159.5 147,-1178.5 300,-1178.5 300,-1159.5 147,-1159.5"/>
<text text-anchor="middle" x="223.5" y="-1166.5" font-family="Helvetica,sans-Serif" font-size="10.00" fill="#000000">LoopManager::LoopManager</text>
</a>
</g>
</g>
<!-- Node244&#45;&gt;Node268 -->
<g id="edge26" class="edge">
<title>Node244&#45;&gt;Node268</title>
<path fill="none" stroke="#191970" d="M50.6517,-789.7904C56.9464,-860.376 81.7578,-1098.323 134,-1150 137.8396,-1153.7981 142.238,-1156.9224 146.9791,-1159.485"/>
<polygon fill="#191970" stroke="#191970" points="54.1206,-789.2797 49.771,-779.6189 47.1467,-789.8836 54.1206,-789.2797"/>
</g>
<!-- Node269 -->
<g id="node25" class="node">
<title>Node269</title>
<g id="a_node25"><a xlink:href="classLoopManager.html#aadca58536e41c8b0b8fd148ac40b23c0" target="_top" xlink:title="LoopManager::~LoopManager">
<polygon fill="#ffffff" stroke="#000000" points="143,-817.5 143,-836.5 304,-836.5 304,-817.5 143,-817.5"/>
<text text-anchor="middle" x="223.5" y="-824.5" font-family="Helvetica,sans-Serif" font-size="10.00" fill="#000000">LoopManager::~LoopManager</text>
</a>
</g>
</g>
<!-- Node244&#45;&gt;Node269 -->
<g id="edge28" class="edge">
<title>Node244&#45;&gt;Node269</title>
<path fill="none" stroke="#191970" d="M76.464,-784.0595C92.8323,-791.9846 114.2133,-801.557 134,-808 145.3279,-811.6886 157.7002,-814.8467 169.5327,-817.4686"/>
<polygon fill="#191970" stroke="#191970" points="77.9729,-780.9012 67.4558,-779.6198 74.8783,-787.1801 77.9729,-780.9012"/>
</g>
<!-- Node270 -->
<g id="node26" class="node">
<title>Node270</title>
<g id="a_node26"><a xlink:href="classTriggerMap.html#af9da9145253cd2713f7c1c60701666fa" target="_top" xlink:title="TriggerMap::SetMap">
<polygon fill="#ffffff" stroke="#000000" points="167.5,-779.5 167.5,-798.5 279.5,-798.5 279.5,-779.5 167.5,-779.5"/>
<text text-anchor="middle" x="223.5" y="-786.5" font-family="Helvetica,sans-Serif" font-size="10.00" fill="#000000">TriggerMap::SetMap</text>
</a>
</g>
</g>
<!-- Node244&#45;&gt;Node270 -->
<g id="edge29" class="edge">
<title>Node244&#45;&gt;Node270</title>
<path fill="none" stroke="#191970" d="M108.1769,-776.4433C127.3268,-778.5284 148.4962,-780.8334 167.4149,-782.8933"/>
<polygon fill="#191970" stroke="#191970" points="108.3925,-772.9462 98.0724,-775.3431 107.6347,-779.9051 108.3925,-772.9462"/>
</g>
<!-- Node278 -->
<g id="node31" class="node">
<title>Node278</title>
<g id="a_node31"><a xlink:href="classPulse.html#aec20778ec5fcc2a6cefed47add36272f" target="_top" xlink:title="Pulse::SetMIDIClock">
<polygon fill="#ffffff" stroke="#ff0000" points="167,-741.5 167,-760.5 280,-760.5 280,-741.5 167,-741.5"/>
<text text-anchor="middle" x="223.5" y="-748.5" font-family="Helvetica,sans-Serif" font-size="10.00" fill="#000000">Pulse::SetMIDIClock</text>
</a>
</g>
</g>
<!-- Node244&#45;&gt;Node278 -->
<g id="edge35" class="edge">
<title>Node244&#45;&gt;Node278</title>
<path fill="none" stroke="#191970" d="M108.0805,-763.5672C127.0447,-761.5023 147.9978,-759.2209 166.7883,-757.1749"/>
<polygon fill="#191970" stroke="#191970" points="107.6347,-760.0949 98.0724,-764.6569 108.3925,-767.0538 107.6347,-760.0949"/>
</g>
<!-- Node282 -->
<g id="node33" class="node">
<title>Node282</title>
<g id="a_node33"><a xlink:href="classPulse.html#adf28cef50c1f7543db7171b67126c38f" target="_top" xlink:title="Pulse::process">
<polygon fill="#ffffff" stroke="#000000" points="180.5,-703.5 180.5,-722.5 266.5,-722.5 266.5,-703.5 180.5,-703.5"/>
<text text-anchor="middle" x="223.5" y="-710.5" font-family="Helvetica,sans-Serif" font-size="10.00" fill="#000000">Pulse::process</text>
</a>
</g>
</g>
<!-- Node244&#45;&gt;Node282 -->
<g id="edge37" class="edge">
<title>Node244&#45;&gt;Node282</title>
<path fill="none" stroke="#191970" d="M76.464,-755.9405C92.8323,-748.0154 114.2133,-738.443 134,-732 148.8018,-727.1802 165.3868,-723.2662 180.2206,-720.2708"/>
<polygon fill="#191970" stroke="#191970" points="74.8783,-752.8199 67.4558,-760.3802 77.9729,-759.0988 74.8783,-752.8199"/>
</g>
<!-- Node283 -->
<g id="node34" class="node">
<title>Node283</title>
<g id="a_node34"><a xlink:href="classRootProcessor.html#aec5fac86449797c873b0c6a1c364309c" target="_top" xlink:title="RootProcessor::RootProcessor">
<polygon fill="#ffffff" stroke="#000000" points="143,-665.5 143,-684.5 304,-684.5 304,-665.5 143,-665.5"/>
<text text-anchor="middle" x="223.5" y="-672.5" font-family="Helvetica,sans-Serif" font-size="10.00" fill="#000000">RootProcessor::RootProcessor</text>
</a>
</g>
</g>
<!-- Node244&#45;&gt;Node283 -->
<g id="edge38" class="edge">
<title>Node244&#45;&gt;Node283</title>
<path fill="none" stroke="#191970" d="M63.5226,-752.5092C79.1009,-734.9433 105.4767,-708.4663 134,-694 141.65,-690.1201 150.0549,-687.0317 158.5559,-684.5734"/>
<polygon fill="#191970" stroke="#191970" points="60.6621,-750.4668 56.7804,-760.325 65.9625,-755.0392 60.6621,-750.4668"/>
</g>
<!-- Node284 -->
<g id="node35" class="node">
<title>Node284</title>
<g id="a_node35"><a xlink:href="classRootProcessor.html#afbc20497636d11e4ac4e1c34e91fa000" target="_top" xlink:title="RootProcessor::~RootProcessor">
<polygon fill="#ffffff" stroke="#000000" points="139,-627.5 139,-646.5 308,-646.5 308,-627.5 139,-627.5"/>
<text text-anchor="middle" x="223.5" y="-634.5" font-family="Helvetica,sans-Serif" font-size="10.00" fill="#000000">RootProcessor::~RootProcessor</text>
</a>
</g>
</g>
<!-- Node244&#45;&gt;Node284 -->
<g id="edge39" class="edge">
<title>Node244&#45;&gt;Node284</title>
<path fill="none" stroke="#191970" d="M57.6783,-751.0591C70.5223,-725.2713 97.1105,-679.6266 134,-656 140.0193,-652.1448 146.6879,-649.0579 153.5915,-646.5883"/>
<polygon fill="#191970" stroke="#191970" points="54.4718,-749.6513 53.2981,-760.181 60.782,-752.6815 54.4718,-749.6513"/>
</g>
<!-- Node285 -->
<g id="node36" class="node">
<title>Node285</title>
<g id="a_node36"><a xlink:href="classRootProcessor.html#acb13a2a0320ef6b5a57ede966e468842" target="_top" xlink:title="RootProcessor::UpdateProcessors">
<polygon fill="#ffffff" stroke="#ff0000" points="134,-589.5 134,-608.5 313,-608.5 313,-589.5 134,-589.5"/>
<text text-anchor="middle" x="223.5" y="-596.5" font-family="Helvetica,sans-Serif" font-size="10.00" fill="#000000">RootProcessor::UpdateProcessors</text>
</a>
</g>
</g>
<!-- Node244&#45;&gt;Node285 -->
<g id="edge40" class="edge">
<title>Node244&#45;&gt;Node285</title>
<path fill="none" stroke="#191970" d="M54.1551,-750.5423C63.9079,-717.7285 88.2954,-651.6785 134,-618 139.243,-614.1366 145.1022,-611.0234 151.2459,-608.5191"/>
<polygon fill="#191970" stroke="#191970" points="50.7486,-749.7267 51.3991,-760.3016 57.4852,-751.6292 50.7486,-749.7267"/>
</g>
<!-- Node287 -->
<g id="node37" class="node">
<title>Node287</title>
<g id="a_node37"><a xlink:href="classRecordProcessor.html#a9984f573bbc265321ad0604f97b23820" target="_top" xlink:title="RecordProcessor::EndNow">
<polygon fill="#ffffff" stroke="#ff0000" points="152,-551.5 152,-570.5 295,-570.5 295,-551.5 152,-551.5"/>
<text text-anchor="middle" x="223.5" y="-558.5" font-family="Helvetica,sans-Serif" font-size="10.00" fill="#000000">RecordProcessor::EndNow</text>
</a>
</g>
</g>
<!-- Node244&#45;&gt;Node287 -->
<g id="edge41" class="edge">
<title>Node244&#45;&gt;Node287</title>
<path fill="none" stroke="#191970" d="M51.8663,-750.1857C58.6103,-711.1457 79.2559,-624.2386 134,-580 139.3125,-575.707 145.3655,-572.32 151.7603,-569.656"/>
<polygon fill="#191970" stroke="#191970" points="48.3782,-749.8335 50.2561,-760.2605 55.2905,-750.9383 48.3782,-749.8335"/>
</g>
<!-- Node291 -->
<g id="node38" class="node">
<title>Node291</title>
<g id="a_node38"><a xlink:href="classFileStreamer.html#a89b7803d85f99c20fb0e3722c12b4323" target="_top" xlink:title="FileStreamer::run_encode\l_thread">
<polygon fill="#ffffff" stroke="#ff0000" points="153.5,-502 153.5,-532 293.5,-532 293.5,-502 153.5,-502"/>
<text text-anchor="start" x="161.5" y="-520" font-family="Helvetica,sans-Serif" font-size="10.00" fill="#000000">FileStreamer::run_encode</text>
<text text-anchor="middle" x="223.5" y="-509" font-family="Helvetica,sans-Serif" font-size="10.00" fill="#000000">_thread</text>
</a>
</g>
</g>
<!-- Node244&#45;&gt;Node291 -->
<g id="edge42" class="edge">
<title>Node244&#45;&gt;Node291</title>
<path fill="none" stroke="#191970" d="M50.5169,-749.9995C54.9663,-705.7677 71.9054,-599.0597 134,-542 139.5832,-536.8695 146.1331,-532.7802 153.1065,-529.5227"/>
<polygon fill="#191970" stroke="#191970" points="47.0223,-749.7842 49.6174,-760.0562 53.9945,-750.4079 47.0223,-749.7842"/>
</g>
<!-- Node293 -->
<g id="node39" class="node">
<title>Node293</title>
<g id="a_node39"><a xlink:href="classMidiIO.html#a510f4d3b7afdc23558eaf7d99945624a" target="_top" xlink:title="MidiIO::listen_events">
<polygon fill="#ffffff" stroke="#ff0000" points="164,-463.5 164,-482.5 283,-482.5 283,-463.5 164,-463.5"/>
<text text-anchor="middle" x="223.5" y="-470.5" font-family="Helvetica,sans-Serif" font-size="10.00" fill="#000000">MidiIO::listen_events</text>
</a>
</g>
</g>
<!-- Node244&#45;&gt;Node293 -->
<g id="edge43" class="edge">
<title>Node244&#45;&gt;Node293</title>
<path fill="none" stroke="#191970" d="M52.3255,-750.5333C62.4726,-693.402 94.7501,-527.9559 134,-492 142.316,-484.3819 152.9036,-479.5279 163.863,-476.4909"/>
<polygon fill="#191970" stroke="#191970" points="48.8671,-749.9921 50.5956,-760.4449 55.7629,-751.1956 48.8671,-749.9921"/>
</g>
<!-- Node296 -->
<g id="node40" class="node">
<title>Node296</title>
<g id="a_node40"><a xlink:href="classMidiIO.html#a2fc0035cc0c0e522da0768eca0bdfc61" target="_top" xlink:title="MidiIO::unlisten_events">
<polygon fill="#ffffff" stroke="#ff0000" points="158,-425.5 158,-444.5 289,-444.5 289,-425.5 158,-425.5"/>
<text text-anchor="middle" x="223.5" y="-432.5" font-family="Helvetica,sans-Serif" font-size="10.00" fill="#000000">MidiIO::unlisten_events</text>
</a>
</g>
</g>
<!-- Node244&#45;&gt;Node296 -->
<g id="edge44" class="edge">
<title>Node244&#45;&gt;Node296</title>
<path fill="none" stroke="#191970" d="M51.5866,-750.3881C60.2096,-687.9978 89.9424,-495.7579 134,-454 140.6867,-447.6623 148.9376,-443.2211 157.7007,-440.1423"/>
<polygon fill="#191970" stroke="#191970" points="48.0962,-750.082 50.2235,-760.461 55.033,-751.0208 48.0962,-750.082"/>
</g>
<!-- Node297 -->
<g id="node41" class="node">
<title>Node297</title>
<g id="a_node41"><a xlink:href="classMidiIO.html#a5fcccad3304e6bb1ad7b85048c63752f" target="_top" xlink:title="MidiIO::ReceiveNoteOffEvent">
<polygon fill="#ffffff" stroke="#ff0000" points="145,-387.5 145,-406.5 302,-406.5 302,-387.5 145,-387.5"/>
<text text-anchor="middle" x="223.5" y="-394.5" font-family="Helvetica,sans-Serif" font-size="10.00" fill="#000000">MidiIO::ReceiveNoteOffEvent</text>
</a>
</g>
</g>
<!-- Node244&#45;&gt;Node297 -->
<g id="edge45" class="edge">
<title>Node244&#45;&gt;Node297</title>
<path fill="none" stroke="#191970" d="M50.995,-750.2649C58.2042,-682.9084 85.0964,-463.6261 134,-416 137.8691,-412.232 142.2892,-409.1297 147.0456,-406.5828"/>
<polygon fill="#191970" stroke="#191970" points="47.4977,-750.0576 49.9409,-760.3668 54.4599,-750.7841 47.4977,-750.0576"/>
</g>
<!-- Node298 -->
<g id="node42" class="node">
<title>Node298</title>
<g id="a_node42"><a xlink:href="classMidiIO.html#ad5430028f18c43ed962f2438e2994263" target="_top" xlink:title="MidiIO::ReceiveNoteOnEvent">
<polygon fill="#ffffff" stroke="#ff0000" points="145.5,-349.5 145.5,-368.5 301.5,-368.5 301.5,-349.5 145.5,-349.5"/>
<text text-anchor="middle" x="223.5" y="-356.5" font-family="Helvetica,sans-Serif" font-size="10.00" fill="#000000">MidiIO::ReceiveNoteOnEvent</text>
</a>
</g>
</g>
<!-- Node244&#45;&gt;Node298 -->
<g id="edge46" class="edge">
<title>Node244&#45;&gt;Node298</title>
<path fill="none" stroke="#191970" d="M50.5175,-750.0647C56.4211,-677.87 80.2428,-431.5241 134,-378 137.7146,-374.3015 141.9588,-371.2408 146.5342,-368.7149"/>
<polygon fill="#191970" stroke="#191970" points="46.9964,-750.1944 49.6961,-760.4395 53.9746,-750.7469 46.9964,-750.1944"/>
</g>
<!-- Node299 -->
<g id="node43" class="node">
<title>Node299</title>
<g id="a_node43"><a xlink:href="classMidiIO.html#a001f1cae37f9d400fd18f2eb6b8863f9" target="_top" xlink:title="MidiIO::ReceivePitchBend\lEvent">
<polygon fill="#ffffff" stroke="#ff0000" points="153.5,-300 153.5,-330 293.5,-330 293.5,-300 153.5,-300"/>
<text text-anchor="start" x="161.5" y="-318" font-family="Helvetica,sans-Serif" font-size="10.00" fill="#000000">MidiIO::ReceivePitchBend</text>
<text text-anchor="middle" x="223.5" y="-307" font-family="Helvetica,sans-Serif" font-size="10.00" fill="#000000">Event</text>
</a>
</g>
</g>
<!-- Node244&#45;&gt;Node299 -->
<g id="edge47" class="edge">
<title>Node244&#45;&gt;Node299</title>
<path fill="none" stroke="#191970" d="M50.2159,-750.2366C55.2889,-674.1494 77.2115,-401.3527 134,-340 139.3698,-334.1986 145.963,-329.7021 153.1144,-326.2236"/>
<polygon fill="#191970" stroke="#191970" points="46.715,-750.1398 49.5654,-760.344 53.7005,-750.5894 46.715,-750.1398"/>
</g>
<!-- Node300 -->
<g id="node44" class="node">
<title>Node300</title>
<g id="a_node44"><a xlink:href="classMidiIO.html#a3c920e2fb0aa4e148743ade4e2663121" target="_top" xlink:title="MidiIO::ReceiveChannelPressure\lEvent">
<polygon fill="#ffffff" stroke="#ff0000" points="137,-251 137,-281 310,-281 310,-251 137,-251"/>
<text text-anchor="start" x="145" y="-269" font-family="Helvetica,sans-Serif" font-size="10.00" fill="#000000">MidiIO::ReceiveChannelPressure</text>
<text text-anchor="middle" x="223.5" y="-258" font-family="Helvetica,sans-Serif" font-size="10.00" fill="#000000">Event</text>
</a>
</g>
</g>
<!-- Node244&#45;&gt;Node300 -->
<g id="edge48" class="edge">
<title>Node244&#45;&gt;Node300</title>
<path fill="none" stroke="#191970" d="M49.7592,-750.0736C53.2784,-668.2468 70.6309,-359.1178 134,-290 137.1527,-286.5612 140.7397,-283.5936 144.6221,-281.0345"/>
<polygon fill="#191970" stroke="#191970" points="46.2469,-750.3071 49.3365,-760.4414 53.2411,-750.5923 46.2469,-750.3071"/>
</g>
<!-- Node301 -->
<g id="node45" class="node">
<title>Node301</title>
<g id="a_node45"><a xlink:href="classMidiIO.html#a1890f712cf869eba7a225a068ab90c21" target="_top" xlink:title="MidiIO::ReceiveProgramChange\lEvent">
<polygon fill="#ffffff" stroke="#ff0000" points="138.5,-202 138.5,-232 308.5,-232 308.5,-202 138.5,-202"/>
<text text-anchor="start" x="146.5" y="-220" font-family="Helvetica,sans-Serif" font-size="10.00" fill="#000000">MidiIO::ReceiveProgramChange</text>
<text text-anchor="middle" x="223.5" y="-209" font-family="Helvetica,sans-Serif" font-size="10.00" fill="#000000">Event</text>
</a>
</g>
</g>
<!-- Node244&#45;&gt;Node301 -->
<g id="edge49" class="edge">
<title>Node244&#45;&gt;Node301</title>
<path fill="none" stroke="#191970" d="M49.3961,-750.28C51.5355,-663.7026 64.3766,-318.1657 134,-241 137.0175,-237.6557 140.4455,-234.7558 144.1583,-232.2432"/>
<polygon fill="#191970" stroke="#191970" points="45.8959,-750.2509 49.1685,-760.3277 52.8942,-750.4095 45.8959,-750.2509"/>
</g>
<!-- Node302 -->
<g id="node46" class="node">
<title>Node302</title>
<g id="a_node46"><a xlink:href="classMidiIO.html#a6fcfe9477a84a6ccc6a449765aff6f63" target="_top" xlink:title="MidiIO::ReceiveControlChange\lEvent">
<polygon fill="#ffffff" stroke="#ff0000" points="141.5,-153 141.5,-183 305.5,-183 305.5,-153 141.5,-153"/>
<text text-anchor="start" x="149.5" y="-171" font-family="Helvetica,sans-Serif" font-size="10.00" fill="#000000">MidiIO::ReceiveControlChange</text>
<text text-anchor="middle" x="223.5" y="-160" font-family="Helvetica,sans-Serif" font-size="10.00" fill="#000000">Event</text>
</a>
</g>
</g>
<!-- Node244&#45;&gt;Node302 -->
<g id="edge50" class="edge">
<title>Node244&#45;&gt;Node302</title>
<path fill="none" stroke="#191970" d="M50.626,-750.1977C58.7251,-653.613 95.8445,-234.8588 134,-192 136.9951,-188.6357 140.4058,-185.7202 144.1052,-183.1956"/>
<polygon fill="#191970" stroke="#191970" points="47.1241,-750.0769 49.784,-760.3323 54.1,-750.6565 47.1241,-750.0769"/>
</g>
<!-- Node303 -->
<g id="node47" class="node">
<title>Node303</title>
<g id="a_node47"><a xlink:href="classMidiIO.html#a1753eb05e14eb572a5f52b9616480d55" target="_top" xlink:title="MidiIO::SetMIDIForPatch">
<polygon fill="#ffffff" stroke="#ff0000" points="157.5,-114.5 157.5,-133.5 289.5,-133.5 289.5,-114.5 157.5,-114.5"/>
<text text-anchor="middle" x="223.5" y="-121.5" font-family="Helvetica,sans-Serif" font-size="10.00" fill="#000000">MidiIO::SetMIDIForPatch</text>
</a>
</g>
</g>
<!-- Node244&#45;&gt;Node303 -->
<g id="edge51" class="edge">
<title>Node244&#45;&gt;Node303</title>
<path fill="none" stroke="#191970" d="M50.3248,-750.4189C57.3416,-649.2652 91.4547,-188.8363 134,-143 140.3757,-136.1311 148.5665,-131.4191 157.397,-128.2347"/>
<polygon fill="#191970" stroke="#191970" points="46.828,-750.2528 49.6353,-760.469 53.8116,-750.732 46.828,-750.2528"/>
</g>
<!-- Node306 -->
<g id="node48" class="node">
<title>Node306</title>
<g id="a_node48"><a xlink:href="classOSCClient.html#a806e1356ff13e16073d59b0b93fb941d" target="_top" xlink:title="OSCClient::OSCClient">
<polygon fill="#ffffff" stroke="#000000" points="163.5,-76.5 163.5,-95.5 283.5,-95.5 283.5,-76.5 163.5,-76.5"/>
<text text-anchor="middle" x="223.5" y="-83.5" font-family="Helvetica,sans-Serif" font-size="10.00" fill="#000000">OSCClient::OSCClient</text>
</a>
</g>
</g>
<!-- Node244&#45;&gt;Node306 -->
<g id="edge52" class="edge">
<title>Node244&#45;&gt;Node306</title>
<path fill="none" stroke="#191970" d="M50.1778,-750.2328C56.6209,-645.0362 88.9662,-153.8894 134,-105 141.7485,-96.5881 152.2181,-91.4049 163.2652,-88.2997"/>
<polygon fill="#191970" stroke="#191970" points="46.6735,-750.1995 49.5631,-760.3926 53.6607,-750.6223 46.6735,-750.1995"/>
</g>
<!-- Node307 -->
<g id="node49" class="node">
<title>Node307</title>
<g id="a_node49"><a xlink:href="classOSCClient.html#a362085391b8f3b76e014a314b1aaa02e" target="_top" xlink:title="OSCClient::~OSCClient">
<polygon fill="#ffffff" stroke="#000000" points="159.5,-38.5 159.5,-57.5 287.5,-57.5 287.5,-38.5 159.5,-38.5"/>
<text text-anchor="middle" x="223.5" y="-45.5" font-family="Helvetica,sans-Serif" font-size="10.00" fill="#000000">OSCClient::~OSCClient</text>
</a>
</g>
</g>
<!-- Node244&#45;&gt;Node307 -->
<g id="edge53" class="edge">
<title>Node244&#45;&gt;Node307</title>
<path fill="none" stroke="#191970" d="M50.0401,-750.1377C55.9229,-641.1698 86.4609,-118.9628 134,-67 140.7549,-59.6165 149.6054,-54.7164 159.1111,-51.5246"/>
<polygon fill="#191970" stroke="#191970" points="46.5325,-750.1885 49.4956,-760.3605 53.5226,-750.5608 46.5325,-750.1885"/>
</g>
<!-- Node308 -->
<g id="node50" class="node">
<title>Node308</title>
<g id="a_node50"><a xlink:href="classSDLIO.html#ad1b1bf6d23251b3014749b18497c1b91" target="_top" xlink:title="SDLIO::run_sdl_thread">
<polygon fill="#ffffff" stroke="#ff0000" points="161.5,-.5 161.5,-19.5 285.5,-19.5 285.5,-.5 161.5,-.5"/>
<text text-anchor="middle" x="223.5" y="-7.5" font-family="Helvetica,sans-Serif" font-size="10.00" fill="#000000">SDLIO::run_sdl_thread</text>
</a>
</g>
</g>
<!-- Node244&#45;&gt;Node308 -->
<g id="edge54" class="edge">
<title>Node244&#45;&gt;Node308</title>
<path fill="none" stroke="#191970" d="M49.9115,-750.1298C55.2479,-637.6683 83.9392,-84.0562 134,-29 141.2666,-21.0083 150.9876,-15.9216 161.3465,-12.7605"/>
<polygon fill="#191970" stroke="#191970" points="46.4037,-750.2179 49.4328,-760.3705 53.3961,-750.5448 46.4037,-750.2179"/>
</g>
<!-- Node246 -->
<g id="node3" class="node">
<title>Node246</title>
<g id="a_node3"><a xlink:href="interfaceSDLMain.html#a77e54985a7877b9a5acfa0d2c427b921" target="_top" xlink:title="&#45;[SDLMain toggleDebugMode:]">
<polygon fill="#ffffff" stroke="#000000" points="349,-1463.5 349,-1482.5 513,-1482.5 513,-1463.5 349,-1463.5"/>
<text text-anchor="middle" x="431" y="-1470.5" font-family="Helvetica,sans-Serif" font-size="10.00" fill="#000000">&#45;[SDLMain toggleDebugMode:]</text>
</a>
</g>
</g>
<!-- Node245&#45;&gt;Node246 -->
<g id="edge2" class="edge">
<title>Node245&#45;&gt;Node246</title>
<path fill="none" stroke="#191970" d="M310.2899,-1473C323.0136,-1473 336.0872,-1473 348.7169,-1473"/>
<polygon fill="#191970" stroke="#191970" points="310.1758,-1469.5001 300.1758,-1473 310.1758,-1476.5001 310.1758,-1469.5001"/>
</g>
<!-- Node248 -->
<g id="node5" class="node">
<title>Node248</title>
<g id="a_node5"><a xlink:href="interfaceSDLMain.html#a3a93b24c8af36c43942a8e9e43fd711d" target="_top" xlink:title="&#45;[SDLMain quitFW:]">
<polygon fill="#ffffff" stroke="#000000" points="376.5,-1425.5 376.5,-1444.5 485.5,-1444.5 485.5,-1425.5 376.5,-1425.5"/>
<text text-anchor="middle" x="431" y="-1432.5" font-family="Helvetica,sans-Serif" font-size="10.00" fill="#000000">&#45;[SDLMain quitFW:]</text>
</a>
</g>
</g>
<!-- Node247&#45;&gt;Node248 -->
<g id="edge4" class="edge">
<title>Node247&#45;&gt;Node248</title>
<path fill="none" stroke="#191970" d="M283.7935,-1435C312.9594,-1435 347.7178,-1435 376.134,-1435"/>
<polygon fill="#191970" stroke="#191970" points="283.73,-1431.5001 273.73,-1435 283.7299,-1438.5001 283.73,-1431.5001"/>
</g>
<!-- Node250 -->
<g id="node7" class="node">
<title>Node250</title>
<g id="a_node7"><a xlink:href="interfaceSDLMain.html#a4f87fa7a68047939f25b47c0c2b8bfdc" target="_top" xlink:title="&#45;[SDLMain showHelp:]">
<polygon fill="#ffffff" stroke="#000000" points="369,-1387.5 369,-1406.5 493,-1406.5 493,-1387.5 369,-1387.5"/>
<text text-anchor="middle" x="431" y="-1394.5" font-family="Helvetica,sans-Serif" font-size="10.00" fill="#000000">&#45;[SDLMain showHelp:]</text>
</a>
</g>
</g>
<!-- Node249&#45;&gt;Node250 -->
<g id="edge6" class="edge">
<title>Node249&#45;&gt;Node250</title>
<path fill="none" stroke="#191970" d="M297.8962,-1397C321.1435,-1397 346.5334,-1397 368.8469,-1397"/>
<polygon fill="#191970" stroke="#191970" points="297.7333,-1393.5001 287.7333,-1397 297.7332,-1400.5001 297.7333,-1393.5001"/>
</g>
<!-- Node252 -->
<g id="node9" class="node">
<title>Node252</title>
<g id="a_node9"><a xlink:href="classAudioIO.html#a1e4157d1900df901a60d5a2260d7509c" target="_top" xlink:title="AudioIO::open">
<polygon fill="#ffffff" stroke="#000000" points="388.5,-1311.5 388.5,-1330.5 473.5,-1330.5 473.5,-1311.5 388.5,-1311.5"/>
<text text-anchor="middle" x="431" y="-1318.5" font-family="Helvetica,sans-Serif" font-size="10.00" fill="#000000">AudioIO::open</text>
</a>
</g>
</g>
<!-- Node251&#45;&gt;Node252 -->
<g id="edge8" class="edge">
<title>Node251&#45;&gt;Node252</title>
<path fill="none" stroke="#191970" d="M282.8731,-1348.1268C316.5992,-1341.9505 358.0344,-1334.3624 388.4968,-1328.7837"/>
<polygon fill="#191970" stroke="#191970" points="281.8805,-1344.7503 272.6746,-1349.9945 283.1415,-1351.6358 281.8805,-1344.7503"/>
</g>
<!-- Node253 -->
<g id="node10" class="node">
<title>Node253</title>
<g id="a_node10"><a xlink:href="classAudioIO.html#a012ce924f59ced78f2fac75e6e33b55c" target="_top" xlink:title="AudioIO::AudioIO">
<polygon fill="#ffffff" stroke="#000000" points="579,-1330.5 579,-1349.5 678,-1349.5 678,-1330.5 579,-1330.5"/>
<text text-anchor="middle" x="628.5" y="-1337.5" font-family="Helvetica,sans-Serif" font-size="10.00" fill="#000000">AudioIO::AudioIO</text>
</a>
</g>
</g>
<!-- Node251&#45;&gt;Node253 -->
<g id="edge10" class="edge">
<title>Node251&#45;&gt;Node253</title>
<path fill="none" stroke="#191970" d="M283.1743,-1356.2005C363.3386,-1352.4397 504.336,-1345.825 578.9539,-1342.3244"/>
<polygon fill="#191970" stroke="#191970" points="282.581,-1352.7244 272.7561,-1356.6892 282.9091,-1359.7167 282.581,-1352.7244"/>
</g>
<!-- Node252&#45;&gt;Node253 -->
<g id="edge9" class="edge">
<title>Node252&#45;&gt;Node253</title>
<path fill="none" stroke="#191970" d="M483.9569,-1326.0946C513.4081,-1328.9279 549.839,-1332.4326 578.7581,-1335.2147"/>
<polygon fill="#191970" stroke="#191970" points="484.1438,-1322.5965 473.8546,-1325.1227 483.4734,-1329.5643 484.1438,-1322.5965"/>
</g>
<!-- Node255&#45;&gt;Node256 -->
<g id="edge13" class="edge">
<title>Node255&#45;&gt;Node256</title>
<path fill="none" stroke="#191970" d="M278.8866,-1250.0715C311.778,-1253.0833 353.0237,-1256.86 384.2652,-1259.7207"/>
<polygon fill="#191970" stroke="#191970" points="278.8019,-1246.5492 268.5244,-1249.1227 278.1636,-1253.5201 278.8019,-1246.5492"/>
</g>
<!-- Node255&#45;&gt;Node257 -->
<g id="edge14" class="edge">
<title>Node255&#45;&gt;Node257</title>
<path fill="none" stroke="#191970" d="M278.4956,-1237.3139C307.5213,-1233.2573 343.1365,-1228.2797 372.6475,-1224.1553"/>
<polygon fill="#191970" stroke="#191970" points="277.9437,-1233.8569 268.5244,-1238.7074 278.9126,-1240.7895 277.9437,-1233.8569"/>
</g>
<!-- Node258 -->
<g id="node15" class="node">
<title>Node258</title>
<g id="a_node15"><a xlink:href="classFweelin.html#a1e47b97764f07dfd37458e91c0c54adf" target="_top" xlink:title="Fweelin::setup">
<polygon fill="#ffffff" stroke="#ff0000" points="387.5,-1163.5 387.5,-1182.5 474.5,-1182.5 474.5,-1163.5 387.5,-1163.5"/>
<text text-anchor="middle" x="431" y="-1170.5" font-family="Helvetica,sans-Serif" font-size="10.00" fill="#000000">Fweelin::setup</text>
</a>
</g>
</g>
<!-- Node255&#45;&gt;Node258 -->
<g id="edge15" class="edge">
<title>Node255&#45;&gt;Node258</title>
<path fill="none" stroke="#191970" d="M256.3199,-1231.6147C281.4877,-1221.5538 317.1896,-1207.719 349,-1197 364.3219,-1191.837 381.4619,-1186.7197 396.0942,-1182.5452"/>
<polygon fill="#191970" stroke="#191970" points="254.8613,-1228.4288 246.888,-1235.4056 257.4718,-1234.9238 254.8613,-1228.4288"/>
</g>
<!-- Node268&#45;&gt;Node258 -->
<g id="edge27" class="edge">
<title>Node268&#45;&gt;Node258</title>
<path fill="none" stroke="#191970" d="M310.2857,-1170.673C336.8995,-1171.186 365.0442,-1171.7286 387.4568,-1172.1606"/>
<polygon fill="#191970" stroke="#191970" points="310.2414,-1167.1716 300.1758,-1170.4781 310.1065,-1174.1703 310.2414,-1167.1716"/>
</g>
<!-- Node271 -->
<g id="node27" class="node">
<title>Node271</title>
<g id="a_node27"><a xlink:href="classLoopManager.html#a6048a702c9cec3676a1c56792b16ec44" target="_top" xlink:title="LoopManager::ReadComplete">
<polygon fill="#ffffff" stroke="#000000" points="549,-798.5 549,-817.5 708,-817.5 708,-798.5 549,-798.5"/>
<text text-anchor="middle" x="628.5" y="-805.5" font-family="Helvetica,sans-Serif" font-size="10.00" fill="#000000">LoopManager::ReadComplete</text>
</a>
</g>
</g>
<!-- Node270&#45;&gt;Node271 -->
<g id="edge30" class="edge">
<title>Node270&#45;&gt;Node271</title>
<path fill="none" stroke="#191970" d="M289.4753,-798.2064C297.6796,-800.7231 305.7295,-803.9255 313,-808 333.2948,-819.3734 327.6287,-836.8075 349,-846 439.8712,-885.0866 561.3585,-838.8301 608.5676,-817.5765"/>
<polygon fill="#191970" stroke="#191970" points="290.3802,-794.8254 279.8106,-795.5558 288.5287,-801.5761 290.3802,-794.8254"/>
</g>
<!-- Node272 -->
<g id="node28" class="node">
<title>Node272</title>
<g id="a_node28"><a xlink:href="classLoopManager.html#af67b2c3a3417115739cccbe6360828fe" target="_top" xlink:title="LoopManager::MoveLoop">
<polygon fill="#ffffff" stroke="#ff0000" points="362.5,-817.5 362.5,-836.5 499.5,-836.5 499.5,-817.5 362.5,-817.5"/>
<text text-anchor="middle" x="431" y="-824.5" font-family="Helvetica,sans-Serif" font-size="10.00" fill="#000000">LoopManager::MoveLoop</text>
</a>
</g>
</g>
<!-- Node270&#45;&gt;Node272 -->
<g id="edge31" class="edge">
<title>Node270&#45;&gt;Node272</title>
<path fill="none" stroke="#191970" d="M285.4603,-800.347C315.2318,-805.7991 350.5154,-812.2607 378.8854,-817.4561"/>
<polygon fill="#191970" stroke="#191970" points="286.0601,-796.8987 275.5932,-798.54 284.7991,-803.7842 286.0601,-796.8987"/>
</g>
<!-- Node274 -->
<g id="node29" class="node">
<title>Node274</title>
<g id="a_node29"><a xlink:href="classLoopManager.html#a332a9868980750f28fbf0e05b2336174" target="_top" xlink:title="LoopManager::DeleteLoop">
<polygon fill="#ffffff" stroke="#ff0000" points="359.5,-741.5 359.5,-760.5 502.5,-760.5 502.5,-741.5 359.5,-741.5"/>
<text text-anchor="middle" x="431" y="-748.5" font-family="Helvetica,sans-Serif" font-size="10.00" fill="#000000">LoopManager::DeleteLoop</text>
</a>
</g>
</g>
<!-- Node270&#45;&gt;Node274 -->
<g id="edge32" class="edge">
<title>Node270&#45;&gt;Node274</title>
<path fill="none" stroke="#191970" d="M285.4603,-777.653C315.2318,-772.2009 350.5154,-765.7393 378.8854,-760.5439"/>
<polygon fill="#191970" stroke="#191970" points="284.7991,-774.2158 275.5932,-779.46 286.0601,-781.1013 284.7991,-774.2158"/>
</g>
<!-- Node276 -->
<g id="node30" class="node">
<title>Node276</title>
<g id="a_node30"><a xlink:href="classLoopManager.html#a861cdd2ace9aeb53b4ecf92728215265" target="_top" xlink:title="LoopManager::Deactivate">
<polygon fill="#ffffff" stroke="#ff0000" points="360.5,-779.5 360.5,-798.5 501.5,-798.5 501.5,-779.5 360.5,-779.5"/>
<text text-anchor="middle" x="431" y="-786.5" font-family="Helvetica,sans-Serif" font-size="10.00" fill="#000000">LoopManager::Deactivate</text>
</a>
</g>
</g>
<!-- Node270&#45;&gt;Node276 -->
<g id="edge34" class="edge">
<title>Node270&#45;&gt;Node276</title>
<path fill="none" stroke="#191970" d="M289.7793,-789C312.2758,-789 337.4875,-789 360.3144,-789"/>
<polygon fill="#191970" stroke="#191970" points="289.6525,-785.5001 279.6525,-789 289.6525,-792.5001 289.6525,-785.5001"/>
</g>
<!-- Node274&#45;&gt;Node271 -->
<g id="edge33" class="edge">
<title>Node274&#45;&gt;Node271</title>
<path fill="none" stroke="#191970" d="M485.3596,-762.8687C494.6187,-765.0977 504.112,-767.5137 513,-770 543.6968,-778.5872 578.3652,-790.265 601.6401,-798.3998"/>
<polygon fill="#191970" stroke="#191970" points="485.9808,-759.4193 475.4443,-760.529 484.3731,-766.2321 485.9808,-759.4193"/>
</g>
<!-- Node279 -->
<g id="node32" class="node">
<title>Node279</title>
<g id="a_node32"><a xlink:href="classLoopManager.html#ab79aef15f1e783de1ab6827378bea274" target="_top" xlink:title="LoopManager::SelectPulse">
<polygon fill="#ffffff" stroke="#ff0000" points="359,-703.5 359,-722.5 503,-722.5 503,-703.5 359,-703.5"/>
<text text-anchor="middle" x="431" y="-710.5" font-family="Helvetica,sans-Serif" font-size="10.00" fill="#000000">LoopManager::SelectPulse</text>
</a>
</g>
</g>
<!-- Node278&#45;&gt;Node279 -->
<g id="edge36" class="edge">
<title>Node278&#45;&gt;Node279</title>
<path fill="none" stroke="#191970" d="M285.4603,-739.653C315.2318,-734.2009 350.5154,-727.7393 378.8854,-722.5439"/>
<polygon fill="#191970" stroke="#191970" points="284.7991,-736.2158 275.5932,-741.46 286.0601,-743.1013 284.7991,-736.2158"/>
</g>
</g>
</svg>
