<?xml version="1.0" encoding="UTF-8" standalone="no"?>
<!DOCTYPE svg PUBLIC "-//W3C//DTD SVG 1.1//EN"
 "http://www.w3.org/Graphics/SVG/1.1/DTD/svg11.dtd">
<!-- Generated by graphviz version 2.40.1 (20161225.0304)
 -->
<!-- Title: iFileEncoder::PrepareFileForClosing Pages: 1 -->
<svg width="516pt" height="165pt"
 viewBox="0.00 0.00 516.00 164.50" xmlns="http://www.w3.org/2000/svg" xmlns:xlink="http://www.w3.org/1999/xlink">
<g id="graph0" class="graph" transform="scale(1 1) rotate(0) translate(4 160.5)">
<title>iFileEncoder::PrepareFileForClosing</title>
<polygon fill="#ffffff" stroke="transparent" points="-4,4 -4,-160.5 512,-160.5 512,4 -4,4"/>
<!-- Node8 -->
<g id="node1" class="node">
<title>Node8</title>
<polygon fill="#bfbfbf" stroke="#000000" points="0,-36 0,-66 135,-66 135,-36 0,-36"/>
<text text-anchor="start" x="8" y="-54" font-family="Helvetica,sans-Serif" font-size="10.00" fill="#000000">iFileEncoder::PrepareFile</text>
<text text-anchor="middle" x="67.5" y="-43" font-family="Helvetica,sans-Serif" font-size="10.00" fill="#000000">ForClosing</text>
</g>
<!-- Node9 -->
<g id="node2" class="node">
<title>Node9</title>
<g id="a_node2"><a xlink:href="classBlockWriteManager.html#a71f78a8f8c3f49e7e311e8553b5fa029" target="_top" xlink:title="BlockWriteManager::End">
<polygon fill="#ffffff" stroke="#000000" points="173.5,-72.5 173.5,-91.5 308.5,-91.5 308.5,-72.5 173.5,-72.5"/>
<text text-anchor="middle" x="241" y="-79.5" font-family="Helvetica,sans-Serif" font-size="10.00" fill="#000000">BlockWriteManager::End</text>
</a>
</g>
</g>
<!-- Node8&#45;&gt;Node9 -->
<g id="edge1" class="edge">
<title>Node8&#45;&gt;Node9</title>
<path fill="none" stroke="#191970" d="M144.9654,-64.8411C159.3576,-67.4126 174.0946,-70.0457 187.5674,-72.453"/>
<polygon fill="#191970" stroke="#191970" points="145.5362,-61.3877 135.0764,-63.0742 144.3049,-68.2786 145.5362,-61.3877"/>
</g>
<!-- Node13 -->
<g id="node6" class="node">
<title>Node13</title>
<g id="a_node6"><a xlink:href="classFileStreamer.html#a89b7803d85f99c20fb0e3722c12b4323" target="_top" xlink:title="FileStreamer::run_encode\l_thread">
<polygon fill="#ffffff" stroke="#000000" points="171,-14 171,-44 311,-44 311,-14 171,-14"/>
<text text-anchor="start" x="179" y="-32" font-family="Helvetica,sans-Serif" font-size="10.00" fill="#000000">FileStreamer::run_encode</text>
<text text-anchor="middle" x="241" y="-21" font-family="Helvetica,sans-Serif" font-size="10.00" fill="#000000">_thread</text>
</a>
</g>
</g>
<!-- Node8&#45;&gt;Node13 -->
<g id="edge5" class="edge">
<title>Node8&#45;&gt;Node13</title>
<path fill="none" stroke="#191970" d="M145.0471,-41.1669C153.6051,-40.0818 162.284,-38.9813 170.7455,-37.9084"/>
<polygon fill="#191970" stroke="#191970" points="144.5567,-37.701 135.0764,-42.4312 145.4373,-44.6454 144.5567,-37.701"/>
</g>
<!-- Node10 -->
<g id="node3" class="node">
<title>Node10</title>
<g id="a_node3"><a xlink:href="classBlockWriteManager.html#ac169c86e8b5a32eee41db76a58d9aee5" target="_top" xlink:title="BlockWriteManager::\l~BlockWriteManager">
<polygon fill="#ffffff" stroke="#000000" points="368,-126 368,-156 487,-156 487,-126 368,-126"/>
<text text-anchor="start" x="376" y="-144" font-family="Helvetica,sans-Serif" font-size="10.00" fill="#000000">BlockWriteManager::</text>
<text text-anchor="middle" x="427.5" y="-133" font-family="Helvetica,sans-Serif" font-size="10.00" fill="#000000">~BlockWriteManager</text>
</a>
</g>
</g>
<!-- Node9&#45;&gt;Node10 -->
<g id="edge2" class="edge">
<title>Node9&#45;&gt;Node10</title>
<path fill="none" stroke="#191970" d="M279.0185,-94.8511C299.1748,-101.5889 324.3815,-109.8958 347,-117 356.4611,-119.9716 366.5759,-123.058 376.3294,-125.9884"/>
<polygon fill="#191970" stroke="#191970" points="279.8655,-91.4437 269.2716,-91.5838 277.6406,-98.0807 279.8655,-91.4437"/>
</g>
<!-- Node11 -->
<g id="node4" class="node">
<title>Node11</title>
<g id="a_node4"><a xlink:href="classBlockWriteManager.html#a0b50330873c237f482c48aa06a4b1a9a" target="_top" xlink:title="BlockWriteManager::\lManage">
<polygon fill="#ffffff" stroke="#000000" points="369,-77 369,-107 486,-107 486,-77 369,-77"/>
<text text-anchor="start" x="377" y="-95" font-family="Helvetica,sans-Serif" font-size="10.00" fill="#000000">BlockWriteManager::</text>
<text text-anchor="middle" x="427.5" y="-84" font-family="Helvetica,sans-Serif" font-size="10.00" fill="#000000">Manage</text>
</a>
</g>
</g>
<!-- Node9&#45;&gt;Node11 -->
<g id="edge3" class="edge">
<title>Node9&#45;&gt;Node11</title>
<path fill="none" stroke="#191970" d="M318.8804,-86.1759C335.5723,-87.0709 352.9399,-88.0021 368.7637,-88.8506"/>
<polygon fill="#191970" stroke="#191970" points="318.7676,-82.6649 308.5945,-85.6244 318.3927,-89.6549 318.7676,-82.6649"/>
</g>
<!-- Node12 -->
<g id="node5" class="node">
<title>Node12</title>
<g id="a_node5"><a xlink:href="classLoopManager.html#aadca58536e41c8b0b8fd148ac40b23c0" target="_top" xlink:title="LoopManager::~LoopManager">
<polygon fill="#ffffff" stroke="#000000" points="347,-38.5 347,-57.5 508,-57.5 508,-38.5 347,-38.5"/>
<text text-anchor="middle" x="427.5" y="-45.5" font-family="Helvetica,sans-Serif" font-size="10.00" fill="#000000">LoopManager::~LoopManager</text>
</a>
</g>
</g>
<!-- Node9&#45;&gt;Node12 -->
<g id="edge4" class="edge">
<title>Node9&#45;&gt;Node12</title>
<path fill="none" stroke="#191970" d="M303.5531,-70.5962C326.7901,-66.36 352.8896,-61.6019 375.1239,-57.5485"/>
<polygon fill="#191970" stroke="#191970" points="302.6571,-67.2018 293.447,-72.4386 303.9126,-74.0883 302.6571,-67.2018"/>
</g>
<!-- Node14 -->
<g id="node7" class="node">
<title>Node14</title>
<g id="a_node7"><a xlink:href="classFileStreamer.html#a1cc038c52d8211d59503a4e7f8a16cd9" target="_top" xlink:title="FileStreamer::FileStreamer">
<polygon fill="#ffffff" stroke="#000000" points="354.5,-.5 354.5,-19.5 500.5,-19.5 500.5,-.5 354.5,-.5"/>
<text text-anchor="middle" x="427.5" y="-7.5" font-family="Helvetica,sans-Serif" font-size="10.00" fill="#000000">FileStreamer::FileStreamer</text>
</a>
</g>
</g>
<!-- Node13&#45;&gt;Node14 -->
<g id="edge6" class="edge">
<title>Node13&#45;&gt;Node14</title>
<path fill="none" stroke="#191970" d="M321.2203,-20.8274C332.1801,-19.7109 343.3848,-18.5694 354.2127,-17.4663"/>
<polygon fill="#191970" stroke="#191970" points="320.8356,-17.3484 311.2419,-21.844 321.5452,-24.3124 320.8356,-17.3484"/>
</g>
</g>
</svg>
