<?xml version="1.0" encoding="UTF-8" standalone="no"?>
<!DOCTYPE svg PUBLIC "-//W3C//DTD SVG 1.1//EN"
 "http://www.w3.org/Graphics/SVG/1.1/DTD/svg11.dtd">
<!-- Generated by graphviz version 2.40.1 (20161225.0304)
 -->
<!-- Title: FloDisplaySwitch::Draw Pages: 1 -->
<svg width="753pt" height="66pt"
 viewBox="0.00 0.00 753.00 66.00" xmlns="http://www.w3.org/2000/svg" xmlns:xlink="http://www.w3.org/1999/xlink">
<g id="graph0" class="graph" transform="scale(1 1) rotate(0) translate(4 62)">
<title>FloDisplaySwitch::Draw</title>
<polygon fill="#ffffff" stroke="transparent" points="-4,4 -4,-62 749,-62 749,4 -4,4"/>
<!-- Node2 -->
<g id="node1" class="node">
<title>Node2</title>
<polygon fill="#bfbfbf" stroke="#000000" points="0,-19.5 0,-38.5 131,-38.5 131,-19.5 0,-19.5"/>
<text text-anchor="middle" x="65.5" y="-26.5" font-family="Helvetica,sans-Serif" font-size="10.00" fill="#000000">FloDisplaySwitch::Draw</text>
</g>
<!-- Node3 -->
<g id="node2" class="node">
<title>Node3</title>
<g id="a_node2"><a xlink:href="classParsedExpression.html#a8b8c5462181f05c11f51df722809ac7e" target="_top" xlink:title="ParsedExpression::Evaluate">
<polygon fill="#ffffff" stroke="#000000" points="167,-38.5 167,-57.5 318,-57.5 318,-38.5 167,-38.5"/>
<text text-anchor="middle" x="242.5" y="-45.5" font-family="Helvetica,sans-Serif" font-size="10.00" fill="#000000">ParsedExpression::Evaluate</text>
</a>
</g>
</g>
<!-- Node2&#45;&gt;Node3 -->
<g id="edge1" class="edge">
<title>Node2&#45;&gt;Node3</title>
<path fill="none" stroke="#191970" d="M131.1567,-36.0479C139.5009,-36.9436 148.1359,-37.8705 156.7364,-38.7937"/>
<polygon fill="#191970" stroke="#191970" points="156.4808,-42.2863 166.7973,-39.8737 157.228,-35.3263 156.4808,-42.2863"/>
</g>
<!-- Node7 -->
<g id="node6" class="node">
<title>Node7</title>
<g id="a_node6"><a xlink:href="classVideoIO.html#a8a7592b69863218540f5185683f8b3fc" target="_top" xlink:title="VideoIO::draw_text">
<polygon fill="#ffffff" stroke="#000000" points="187.5,-.5 187.5,-19.5 297.5,-19.5 297.5,-.5 187.5,-.5"/>
<text text-anchor="middle" x="242.5" y="-7.5" font-family="Helvetica,sans-Serif" font-size="10.00" fill="#000000">VideoIO::draw_text</text>
</a>
</g>
</g>
<!-- Node2&#45;&gt;Node7 -->
<g id="edge5" class="edge">
<title>Node2&#45;&gt;Node7</title>
<path fill="none" stroke="#191970" d="M131.1567,-21.9521C146.1848,-20.3389 162.1563,-18.6245 177.1706,-17.0128"/>
<polygon fill="#191970" stroke="#191970" points="177.8195,-20.4633 187.3888,-15.9159 177.0723,-13.5033 177.8195,-20.4633"/>
</g>
<!-- Node4 -->
<g id="node3" class="node">
<title>Node4</title>
<g id="a_node3"><a xlink:href="classCfgToken.html#a5e30ffe3bc7cf2483e390cf023eaa6c0" target="_top" xlink:title="CfgToken::Evaluate">
<polygon fill="#ffffff" stroke="#000000" points="354,-38.5 354,-57.5 464,-57.5 464,-38.5 354,-38.5"/>
<text text-anchor="middle" x="409" y="-45.5" font-family="Helvetica,sans-Serif" font-size="10.00" fill="#000000">CfgToken::Evaluate</text>
</a>
</g>
</g>
<!-- Node3&#45;&gt;Node4 -->
<g id="edge2" class="edge">
<title>Node3&#45;&gt;Node4</title>
<path fill="none" stroke="#191970" d="M318.4415,-48C326.7636,-48 335.1838,-48 343.3661,-48"/>
<polygon fill="#191970" stroke="#191970" points="343.5778,-51.5001 353.5778,-48 343.5778,-44.5001 343.5778,-51.5001"/>
</g>
<!-- Node5 -->
<g id="node4" class="node">
<title>Node5</title>
<g id="a_node4"><a xlink:href="classUserVariable.html#a7cbb83559d78173a8b7810c3ecc3842f" target="_top" xlink:title="UserVariable::SetFrom">
<polygon fill="#ffffff" stroke="#000000" points="500,-38.5 500,-57.5 625,-57.5 625,-38.5 500,-38.5"/>
<text text-anchor="middle" x="562.5" y="-45.5" font-family="Helvetica,sans-Serif" font-size="10.00" fill="#000000">UserVariable::SetFrom</text>
</a>
</g>
</g>
<!-- Node4&#45;&gt;Node5 -->
<g id="edge3" class="edge">
<title>Node4&#45;&gt;Node5</title>
<path fill="none" stroke="#191970" d="M464.417,-48C472.598,-48 481.1303,-48 489.5998,-48"/>
<polygon fill="#191970" stroke="#191970" points="489.872,-51.5001 499.872,-48 489.8719,-44.5001 489.872,-51.5001"/>
</g>
<!-- Node6 -->
<g id="node5" class="node">
<title>Node6</title>
<g id="a_node5"><a xlink:href="classRange.html#a378dde258315602c6929b84cb10f8f8d" target="_top" xlink:title="Range::Range">
<polygon fill="#ffffff" stroke="#000000" points="661,-38.5 661,-57.5 745,-57.5 745,-38.5 661,-38.5"/>
<text text-anchor="middle" x="703" y="-45.5" font-family="Helvetica,sans-Serif" font-size="10.00" fill="#000000">Range::Range</text>
</a>
</g>
</g>
<!-- Node5&#45;&gt;Node6 -->
<g id="edge4" class="edge">
<title>Node5&#45;&gt;Node6</title>
<path fill="none" stroke="#191970" d="M625.353,-48C633.7782,-48 642.347,-48 650.5672,-48"/>
<polygon fill="#191970" stroke="#191970" points="650.7561,-51.5001 660.7561,-48 650.756,-44.5001 650.7561,-51.5001"/>
</g>
</g>
</svg>
