<?xml version="1.0" encoding="UTF-8" standalone="no"?>
<!DOCTYPE svg PUBLIC "-//W3C//DTD SVG 1.1//EN"
 "http://www.w3.org/Graphics/SVG/1.1/DTD/svg11.dtd">
<!-- Generated by graphviz version 2.40.1 (20161225.0304)
 -->
<!-- Title: LoopManager::SetAutoLoopSaving Pages: 1 -->
<svg width="876pt" height="91pt"
 viewBox="0.00 0.00 876.00 90.50" xmlns="http://www.w3.org/2000/svg" xmlns:xlink="http://www.w3.org/1999/xlink">
<g id="graph0" class="graph" transform="scale(1 1) rotate(0) translate(4 86.5)">
<title>LoopManager::SetAutoLoopSaving</title>
<polygon fill="#ffffff" stroke="transparent" points="-4,4 -4,-86.5 872,-86.5 872,4 -4,4"/>
<!-- Node1008 -->
<g id="node1" class="node">
<title>Node1008</title>
<polygon fill="#bfbfbf" stroke="#000000" points="0,-.5 0,-30.5 149,-30.5 149,-.5 0,-.5"/>
<text text-anchor="start" x="8" y="-18.5" font-family="Helvetica,sans-Serif" font-size="10.00" fill="#000000">LoopManager::SetAutoLoop</text>
<text text-anchor="middle" x="74.5" y="-7.5" font-family="Helvetica,sans-Serif" font-size="10.00" fill="#000000">Saving</text>
</g>
<!-- Node1009 -->
<g id="node2" class="node">
<title>Node1009</title>
<g id="a_node2"><a xlink:href="classTriggerMap.html#aaa7bec4f62540981d1e5703fe8ed575e" target="_top" xlink:title="TriggerMap::Save">
<polygon fill="#ffffff" stroke="#000000" points="185,-25 185,-44 285,-44 285,-25 185,-25"/>
<text text-anchor="middle" x="235" y="-32" font-family="Helvetica,sans-Serif" font-size="10.00" fill="#000000">TriggerMap::Save</text>
</a>
</g>
</g>
<!-- Node1008&#45;&gt;Node1009 -->
<g id="edge1" class="edge">
<title>Node1008&#45;&gt;Node1009</title>
<path fill="none" stroke="#191970" d="M159.0661,-25.5109C167.8769,-26.554 176.6181,-27.5887 184.8633,-28.5648"/>
<polygon fill="#191970" stroke="#191970" points="159.4537,-22.0325 149.1116,-24.3325 158.6307,-28.9839 159.4537,-22.0325"/>
</g>
<!-- Node1012 -->
<g id="node5" class="node">
<title>Node1012</title>
<g id="a_node5"><a xlink:href="classLoopManager.html#a4aada2d07b7ce0a67a8119ece4805966" target="_top" xlink:title="LoopManager::ReceiveEvent">
<polygon fill="#ffffff" stroke="#000000" points="714,-25 714,-44 868,-44 868,-25 714,-25"/>
<text text-anchor="middle" x="791" y="-32" font-family="Helvetica,sans-Serif" font-size="10.00" fill="#000000">LoopManager::ReceiveEvent</text>
</a>
</g>
</g>
<!-- Node1008&#45;&gt;Node1012 -->
<g id="edge7" class="edge">
<title>Node1008&#45;&gt;Node1012</title>
<path fill="none" stroke="#191970" d="M159.3616,-13.9722C242.1948,-12.8416 371.7869,-12.0309 484,-15.5 562.3279,-17.9215 651.7363,-23.8103 713.7826,-28.3955"/>
<polygon fill="#191970" stroke="#191970" points="159.1952,-10.4741 149.2457,-14.115 159.2941,-17.4734 159.1952,-10.4741"/>
</g>
<!-- Node1010 -->
<g id="node3" class="node">
<title>Node1010</title>
<g id="a_node3"><a xlink:href="classLoopManager.html#ac2adaa8b989e1284abf17fc07eb0baf2" target="_top" xlink:title="LoopManager::SaveNewScene">
<polygon fill="#ffffff" stroke="#000000" points="321,-25 321,-44 484,-44 484,-25 321,-25"/>
<text text-anchor="middle" x="402.5" y="-32" font-family="Helvetica,sans-Serif" font-size="10.00" fill="#000000">LoopManager::SaveNewScene</text>
</a>
</g>
</g>
<!-- Node1009&#45;&gt;Node1010 -->
<g id="edge2" class="edge">
<title>Node1009&#45;&gt;Node1010</title>
<path fill="none" stroke="#191970" d="M295.5263,-34.5C303.7945,-34.5 312.3907,-34.5 320.9561,-34.5"/>
<polygon fill="#191970" stroke="#191970" points="295.2556,-31.0001 285.2555,-34.5 295.2555,-38.0001 295.2556,-31.0001"/>
</g>
<!-- Node1011 -->
<g id="node4" class="node">
<title>Node1011</title>
<g id="a_node4"><a xlink:href="classLoopManager.html#abd2cda6ecc976fd447167d5de7cc5912" target="_top" xlink:title="LoopManager::SaveCurScene">
<polygon fill="#ffffff" stroke="#000000" points="520,-63 520,-82 678,-82 678,-63 520,-63"/>
<text text-anchor="middle" x="599" y="-70" font-family="Helvetica,sans-Serif" font-size="10.00" fill="#000000">LoopManager::SaveCurScene</text>
</a>
</g>
</g>
<!-- Node1009&#45;&gt;Node1011 -->
<g id="edge6" class="edge">
<title>Node1009&#45;&gt;Node1011</title>
<path fill="none" stroke="#191970" d="M282.2431,-46.2649C294.7738,-49.0203 308.3411,-51.6794 321,-53.5 387.6782,-63.0895 464.0715,-67.8683 519.8824,-70.2327"/>
<polygon fill="#191970" stroke="#191970" points="282.979,-42.843 272.453,-44.0487 281.4335,-49.6703 282.979,-42.843"/>
</g>
<!-- Node1010&#45;&gt;Node1011 -->
<g id="edge3" class="edge">
<title>Node1010&#45;&gt;Node1011</title>
<path fill="none" stroke="#191970" d="M461.9123,-45.9894C489.9495,-51.4114 523.0157,-57.8058 549.6481,-62.9561"/>
<polygon fill="#191970" stroke="#191970" points="462.3143,-42.5024 451.8316,-44.04 460.9852,-49.375 462.3143,-42.5024"/>
</g>
<!-- Node1010&#45;&gt;Node1012 -->
<g id="edge5" class="edge">
<title>Node1010&#45;&gt;Node1012</title>
<path fill="none" stroke="#191970" d="M494.5213,-34.5C561.3391,-34.5 650.7252,-34.5 713.824,-34.5"/>
<polygon fill="#191970" stroke="#191970" points="494.4162,-31.0001 484.4161,-34.5 494.4161,-38.0001 494.4162,-31.0001"/>
</g>
<!-- Node1011&#45;&gt;Node1012 -->
<g id="edge4" class="edge">
<title>Node1011&#45;&gt;Node1012</title>
<path fill="none" stroke="#191970" d="M657.298,-60.9619C684.6826,-55.542 716.9334,-49.159 742.8987,-44.0201"/>
<polygon fill="#191970" stroke="#191970" points="656.5799,-57.536 647.4497,-62.911 657.939,-64.4028 656.5799,-57.536"/>
</g>
</g>
</svg>
