<?xml version="1.0" encoding="UTF-8" standalone="no"?>
<!DOCTYPE svg PUBLIC "-//W3C//DTD SVG 1.1//EN"
 "http://www.w3.org/Graphics/SVG/1.1/DTD/svg11.dtd">
<!-- Generated by graphviz version 2.40.1 (20161225.0304)
 -->
<!-- Title: BypassInfo Pages: 1 -->
<svg width="253pt" height="204pt"
 viewBox="0.00 0.00 253.00 204.00" xmlns="http://www.w3.org/2000/svg" xmlns:xlink="http://www.w3.org/1999/xlink">
<g id="graph0" class="graph" transform="scale(1 1) rotate(0) translate(4 200)">
<title>BypassInfo</title>
<polygon fill="#ffffff" stroke="transparent" points="-4,4 -4,-200 249,-200 249,4 -4,4"/>
<!-- Node1 -->
<g id="node1" class="node">
<title>Node1</title>
<polygon fill="#bfbfbf" stroke="#000000" points="52.5,-.5 52.5,-57.5 141.5,-57.5 141.5,-.5 52.5,-.5"/>
<text text-anchor="middle" x="97" y="-45.5" font-family="Helvetica,sans-Serif" font-size="10.00" fill="#000000">BypassInfo</text>
<polyline fill="none" stroke="#000000" points="52.5,-38.5 141.5,-38.5 "/>
<text text-anchor="middle" x="97" y="-26.5" font-family="Helvetica,sans-Serif" font-size="10.00" fill="#000000"> </text>
<polyline fill="none" stroke="#000000" points="52.5,-19.5 141.5,-19.5 "/>
<text text-anchor="start" x="60.5" y="-7.5" font-family="Helvetica,sans-Serif" font-size="10.00" fill="#000000">+ BypassInfo()</text>
</g>
<!-- Node2 -->
<g id="node2" class="node">
<title>Node2</title>
<polygon fill="#ffffff" stroke="#bfbfbf" points="0,-138.5 0,-195.5 38,-195.5 38,-138.5 0,-138.5"/>
<text text-anchor="middle" x="19" y="-183.5" font-family="Helvetica,sans-Serif" font-size="10.00" fill="#000000">char</text>
<polyline fill="none" stroke="#bfbfbf" points="0,-176.5 38,-176.5 "/>
<text text-anchor="middle" x="19" y="-164.5" font-family="Helvetica,sans-Serif" font-size="10.00" fill="#000000"> </text>
<polyline fill="none" stroke="#bfbfbf" points="0,-157.5 38,-157.5 "/>
<text text-anchor="middle" x="19" y="-145.5" font-family="Helvetica,sans-Serif" font-size="10.00" fill="#000000"> </text>
</g>
<!-- Node2&#45;&gt;Node1 -->
<g id="edge1" class="edge">
<title>Node2&#45;&gt;Node1</title>
<path fill="none" stroke="#404040" d="M19.9838,-138.4954C21.7794,-119.565 26.4056,-94.8271 38,-76 40.0601,-72.6547 42.4477,-69.448 45.0576,-66.3934"/>
<polygon fill="none" stroke="#404040" points="45.1156,-66.3333 46.4044,-59.2383 53.4494,-57.6992 52.1605,-64.7942 45.1156,-66.3333"/>
<text text-anchor="middle" x="65.5" y="-112" font-family="Helvetica,sans-Serif" font-size="10.00" fill="#000000"> +active</text>
<text text-anchor="middle" x="65.5" y="-101" font-family="Helvetica,sans-Serif" font-size="10.00" fill="#000000">+bypasscc</text>
<text text-anchor="middle" x="65.5" y="-90" font-family="Helvetica,sans-Serif" font-size="10.00" fill="#000000">+bypassed</text>
<text text-anchor="middle" x="65.5" y="-79" font-family="Helvetica,sans-Serif" font-size="10.00" fill="#000000">+sp</text>
</g>
<!-- Node3 -->
<g id="node3" class="node">
<title>Node3</title>
<polygon fill="#ffffff" stroke="#bfbfbf" points="82.5,-138.5 82.5,-195.5 111.5,-195.5 111.5,-138.5 82.5,-138.5"/>
<text text-anchor="middle" x="97" y="-183.5" font-family="Helvetica,sans-Serif" font-size="10.00" fill="#000000">int</text>
<polyline fill="none" stroke="#bfbfbf" points="82.5,-176.5 111.5,-176.5 "/>
<text text-anchor="middle" x="97" y="-164.5" font-family="Helvetica,sans-Serif" font-size="10.00" fill="#000000"> </text>
<polyline fill="none" stroke="#bfbfbf" points="82.5,-157.5 111.5,-157.5 "/>
<text text-anchor="middle" x="97" y="-145.5" font-family="Helvetica,sans-Serif" font-size="10.00" fill="#000000"> </text>
</g>
<!-- Node3&#45;&gt;Node1 -->
<g id="edge2" class="edge">
<title>Node3&#45;&gt;Node1</title>
<path fill="none" stroke="#404040" d="M97,-138.4063C97,-118.5153 97,-91.7072 97,-69.6065"/>
<polygon fill="none" stroke="#404040" points="97.0001,-69.5571 93,-63.5571 97,-57.5571 101,-63.557 97.0001,-69.5571"/>
<text text-anchor="middle" x="124.5" y="-95.5" font-family="Helvetica,sans-Serif" font-size="10.00" fill="#000000"> +numheld</text>
</g>
<!-- Node4 -->
<g id="node4" class="node">
<title>Node4</title>
<polygon fill="#ffffff" stroke="#bfbfbf" points="130,-138.5 130,-195.5 222,-195.5 222,-138.5 130,-138.5"/>
<text text-anchor="middle" x="176" y="-183.5" font-family="Helvetica,sans-Serif" font-size="10.00" fill="#000000">jack_nframes_t</text>
<polyline fill="none" stroke="#bfbfbf" points="130,-176.5 222,-176.5 "/>
<text text-anchor="middle" x="176" y="-164.5" font-family="Helvetica,sans-Serif" font-size="10.00" fill="#000000"> </text>
<polyline fill="none" stroke="#bfbfbf" points="130,-157.5 222,-157.5 "/>
<text text-anchor="middle" x="176" y="-145.5" font-family="Helvetica,sans-Serif" font-size="10.00" fill="#000000"> </text>
</g>
<!-- Node4&#45;&gt;Node1 -->
<g id="edge3" class="edge">
<title>Node4&#45;&gt;Node1</title>
<path fill="none" stroke="#404040" d="M173.7605,-138.1116C171.2035,-119.2492 165.7275,-94.7377 154,-76 151.9246,-72.684 149.5346,-69.491 146.9345,-66.4387"/>
<polygon fill="none" stroke="#404040" points="146.8969,-66.3994 139.86,-64.8236 138.6081,-57.722 145.645,-59.2978 146.8969,-66.3994"/>
<text text-anchor="middle" x="207.5" y="-112" font-family="Helvetica,sans-Serif" font-size="10.00" fill="#000000"> +notepresscnt</text>
<text text-anchor="middle" x="207.5" y="-101" font-family="Helvetica,sans-Serif" font-size="10.00" fill="#000000">+bypasslen1</text>
<text text-anchor="middle" x="207.5" y="-90" font-family="Helvetica,sans-Serif" font-size="10.00" fill="#000000">+bypasslen2</text>
<text text-anchor="middle" x="207.5" y="-79" font-family="Helvetica,sans-Serif" font-size="10.00" fill="#000000">+releasecnt</text>
</g>
</g>
</svg>
