<?xml version="1.0" encoding="UTF-8" standalone="no"?>
<!DOCTYPE svg PUBLIC "-//W3C//DTD SVG 1.1//EN"
 "http://www.w3.org/Graphics/SVG/1.1/DTD/svg11.dtd">
<!-- Generated by graphviz version 2.40.1 (20161225.0304)
 -->
<!-- Title: Pulse::GetPos Pages: 1 -->
<svg width="537pt" height="199pt"
 viewBox="0.00 0.00 537.00 199.00" xmlns="http://www.w3.org/2000/svg" xmlns:xlink="http://www.w3.org/1999/xlink">
<g id="graph0" class="graph" transform="scale(1 1) rotate(0) translate(4 195)">
<title>Pulse::GetPos</title>
<polygon fill="#ffffff" stroke="transparent" points="-4,4 -4,-195 533,-195 533,4 -4,4"/>
<!-- Node65 -->
<g id="node1" class="node">
<title>Node65</title>
<polygon fill="#bfbfbf" stroke="#000000" points="0,-76.5 0,-95.5 83,-95.5 83,-76.5 0,-76.5"/>
<text text-anchor="middle" x="41.5" y="-83.5" font-family="Helvetica,sans-Serif" font-size="10.00" fill="#000000">Pulse::GetPos</text>
</g>
<!-- Node66 -->
<g id="node2" class="node">
<title>Node66</title>
<g id="a_node2"><a xlink:href="classAudioIO.html#ab0eea49d0c149eba8716d8402a9caa73" target="_top" xlink:title="AudioIO::timebase_callback">
<polygon fill="#ffffff" stroke="#000000" points="120,-152.5 120,-171.5 272,-171.5 272,-152.5 120,-152.5"/>
<text text-anchor="middle" x="196" y="-159.5" font-family="Helvetica,sans-Serif" font-size="10.00" fill="#000000">AudioIO::timebase_callback</text>
</a>
</g>
</g>
<!-- Node65&#45;&gt;Node66 -->
<g id="edge1" class="edge">
<title>Node65&#45;&gt;Node66</title>
<path fill="none" stroke="#191970" d="M59.555,-102.5044C74.4746,-115.308 96.747,-132.5771 119,-143 127.1049,-146.7962 136.0581,-149.8895 144.9063,-152.3922"/>
<polygon fill="#191970" stroke="#191970" points="61.4943,-99.5486 51.6759,-95.5673 56.8685,-104.8025 61.4943,-99.5486"/>
</g>
<!-- Node69 -->
<g id="node5" class="node">
<title>Node69</title>
<g id="a_node5"><a xlink:href="classLoopManager.html#a4aada2d07b7ce0a67a8119ece4805966" target="_top" xlink:title="LoopManager::ReceiveEvent">
<polygon fill="#ffffff" stroke="#000000" points="119,-114.5 119,-133.5 273,-133.5 273,-114.5 119,-114.5"/>
<text text-anchor="middle" x="196" y="-121.5" font-family="Helvetica,sans-Serif" font-size="10.00" fill="#000000">LoopManager::ReceiveEvent</text>
</a>
</g>
</g>
<!-- Node65&#45;&gt;Node69 -->
<g id="edge5" class="edge">
<title>Node65&#45;&gt;Node69</title>
<path fill="none" stroke="#191970" d="M90.4521,-98.04C112.0365,-103.3488 137.041,-109.4988 157.2935,-114.4799"/>
<polygon fill="#191970" stroke="#191970" points="91.0334,-94.5787 80.4869,-95.589 89.3615,-101.3762 91.0334,-94.5787"/>
</g>
<!-- Node70 -->
<g id="node6" class="node">
<title>Node70</title>
<g id="a_node6"><a xlink:href="classRecordProcessor.html#a6168d8dc850602a348dc74ab1224263a" target="_top" xlink:title="RecordProcessor::PulseSync">
<polygon fill="#ffffff" stroke="#000000" points="120,-76.5 120,-95.5 272,-95.5 272,-76.5 120,-76.5"/>
<text text-anchor="middle" x="196" y="-83.5" font-family="Helvetica,sans-Serif" font-size="10.00" fill="#000000">RecordProcessor::PulseSync</text>
</a>
</g>
</g>
<!-- Node65&#45;&gt;Node70 -->
<g id="edge6" class="edge">
<title>Node65&#45;&gt;Node70</title>
<path fill="none" stroke="#191970" d="M93.4463,-86C101.9708,-86 110.9575,-86 119.9231,-86"/>
<polygon fill="#191970" stroke="#191970" points="93.31,-82.5001 83.3099,-86 93.3099,-89.5001 93.31,-82.5001"/>
</g>
<!-- Node71 -->
<g id="node7" class="node">
<title>Node71</title>
<g id="a_node7"><a xlink:href="classRecordProcessor.html#ab035edfb707f8f1066b3597df7ddda7d" target="_top" xlink:title="RecordProcessor::End">
<polygon fill="#ffffff" stroke="#000000" points="135.5,-38.5 135.5,-57.5 256.5,-57.5 256.5,-38.5 135.5,-38.5"/>
<text text-anchor="middle" x="196" y="-45.5" font-family="Helvetica,sans-Serif" font-size="10.00" fill="#000000">RecordProcessor::End</text>
</a>
</g>
</g>
<!-- Node65&#45;&gt;Node71 -->
<g id="edge7" class="edge">
<title>Node65&#45;&gt;Node71</title>
<path fill="none" stroke="#191970" d="M90.4521,-73.96C112.0365,-68.6512 137.041,-62.5012 157.2935,-57.5201"/>
<polygon fill="#191970" stroke="#191970" points="89.3615,-70.6238 80.4869,-76.411 91.0334,-77.4213 89.3615,-70.6238"/>
</g>
<!-- Node72 -->
<g id="node8" class="node">
<title>Node72</title>
<g id="a_node8"><a xlink:href="classPlayProcessor.html#a13ce406fdf45f876f305b01c031f04a2" target="_top" xlink:title="PlayProcessor::PulseSync">
<polygon fill="#ffffff" stroke="#000000" points="126,-.5 126,-19.5 266,-19.5 266,-.5 126,-.5"/>
<text text-anchor="middle" x="196" y="-7.5" font-family="Helvetica,sans-Serif" font-size="10.00" fill="#000000">PlayProcessor::PulseSync</text>
</a>
</g>
</g>
<!-- Node65&#45;&gt;Node72 -->
<g id="edge8" class="edge">
<title>Node65&#45;&gt;Node72</title>
<path fill="none" stroke="#191970" d="M59.555,-69.4956C74.4746,-56.692 96.747,-39.4229 119,-29 127.1049,-25.2038 136.0581,-22.1105 144.9063,-19.6078"/>
<polygon fill="#191970" stroke="#191970" points="56.8685,-67.1975 51.6759,-76.4327 61.4943,-72.4514 56.8685,-67.1975"/>
</g>
<!-- Node67 -->
<g id="node3" class="node">
<title>Node67</title>
<g id="a_node3"><a xlink:href="classAudioIO.html#a1e4157d1900df901a60d5a2260d7509c" target="_top" xlink:title="AudioIO::open">
<polygon fill="#ffffff" stroke="#000000" points="309,-171.5 309,-190.5 394,-190.5 394,-171.5 309,-171.5"/>
<text text-anchor="middle" x="351.5" y="-178.5" font-family="Helvetica,sans-Serif" font-size="10.00" fill="#000000">AudioIO::open</text>
</a>
</g>
</g>
<!-- Node66&#45;&gt;Node67 -->
<g id="edge2" class="edge">
<title>Node66&#45;&gt;Node67</title>
<path fill="none" stroke="#191970" d="M282.4064,-172.5577C291.607,-173.6819 300.6438,-174.7861 308.9929,-175.8062"/>
<polygon fill="#191970" stroke="#191970" points="282.7341,-169.0718 272.3834,-171.333 281.885,-176.0201 282.7341,-169.0718"/>
</g>
<!-- Node68 -->
<g id="node4" class="node">
<title>Node68</title>
<g id="a_node4"><a xlink:href="classAudioIO.html#a012ce924f59ced78f2fac75e6e33b55c" target="_top" xlink:title="AudioIO::AudioIO">
<polygon fill="#ffffff" stroke="#000000" points="430,-152.5 430,-171.5 529,-171.5 529,-152.5 430,-152.5"/>
<text text-anchor="middle" x="479.5" y="-159.5" font-family="Helvetica,sans-Serif" font-size="10.00" fill="#000000">AudioIO::AudioIO</text>
</a>
</g>
</g>
<!-- Node66&#45;&gt;Node68 -->
<g id="edge4" class="edge">
<title>Node66&#45;&gt;Node68</title>
<path fill="none" stroke="#191970" d="M282.4848,-162C330.7676,-162 389.1932,-162 429.826,-162"/>
<polygon fill="#191970" stroke="#191970" points="282.3458,-158.5001 272.3457,-162 282.3457,-165.5001 282.3458,-158.5001"/>
</g>
<!-- Node67&#45;&gt;Node68 -->
<g id="edge3" class="edge">
<title>Node67&#45;&gt;Node68</title>
<path fill="none" stroke="#191970" d="M404.0252,-173.2033C412.6053,-171.9297 421.4699,-170.6138 429.9747,-169.3514"/>
<polygon fill="#191970" stroke="#191970" points="403.4998,-169.7428 394.1221,-174.6733 404.5277,-176.667 403.4998,-169.7428"/>
</g>
</g>
</svg>
