<?xml version="1.0" encoding="UTF-8" standalone="no"?>
<!DOCTYPE svg PUBLIC "-//W3C//DTD SVG 1.1//EN"
 "http://www.w3.org/Graphics/SVG/1.1/DTD/svg11.dtd">
<!-- Generated by graphviz version 2.40.1 (20161225.0304)
 -->
<!-- Title: HardwareMixerInterface::control_iface Pages: 1 -->
<svg width="1012pt" height="182pt"
 viewBox="0.00 0.00 1012.00 181.50" xmlns="http://www.w3.org/2000/svg" xmlns:xlink="http://www.w3.org/1999/xlink">
<g id="graph0" class="graph" transform="scale(1 1) rotate(0) translate(4 177.5)">
<title>HardwareMixerInterface::control_iface</title>
<polygon fill="#ffffff" stroke="transparent" points="-4,4 -4,-177.5 1008,-177.5 1008,4 -4,4"/>
<!-- Node41 -->
<g id="node1" class="node">
<title>Node41</title>
<polygon fill="#bfbfbf" stroke="#000000" points="0,-7 0,-37 134,-37 134,-7 0,-7"/>
<text text-anchor="start" x="8" y="-25" font-family="Helvetica,sans-Serif" font-size="10.00" fill="#000000">HardwareMixerInterface</text>
<text text-anchor="middle" x="67" y="-14" font-family="Helvetica,sans-Serif" font-size="10.00" fill="#000000">::control_iface</text>
</g>
<!-- Node42 -->
<g id="node2" class="node">
<title>Node42</title>
<g id="a_node2"><a xlink:href="classHardwareMixerInterface.html#a2257580b0d7e0d6cf844b117ec479e97" target="_top" xlink:title="HardwareMixerInterface\l::show_control_id">
<polygon fill="#ffffff" stroke="#000000" points="170,-48 170,-78 304,-78 304,-48 170,-48"/>
<text text-anchor="start" x="178" y="-66" font-family="Helvetica,sans-Serif" font-size="10.00" fill="#000000">HardwareMixerInterface</text>
<text text-anchor="middle" x="237" y="-55" font-family="Helvetica,sans-Serif" font-size="10.00" fill="#000000">::show_control_id</text>
</a>
</g>
</g>
<!-- Node41&#45;&gt;Node42 -->
<g id="edge1" class="edge">
<title>Node41&#45;&gt;Node42</title>
<path fill="none" stroke="#191970" d="M139.1586,-39.403C150.9711,-42.2519 163.1223,-45.1824 174.6711,-47.9677"/>
<polygon fill="#191970" stroke="#191970" points="139.8783,-35.9762 129.3364,-37.0341 138.2371,-42.7811 139.8783,-35.9762"/>
</g>
<!-- Node46 -->
<g id="node6" class="node">
<title>Node46</title>
<g id="a_node6"><a xlink:href="classHardwareMixerInterface.html#af861d7e76ac7844ed799ee67ae648b43" target="_top" xlink:title="HardwareMixerInterface\l::HardwareMixerInterface">
<polygon fill="#ffffff" stroke="#000000" points="857,-61 857,-91 997,-91 997,-61 857,-61"/>
<text text-anchor="start" x="865" y="-79" font-family="Helvetica,sans-Serif" font-size="10.00" fill="#000000">HardwareMixerInterface</text>
<text text-anchor="middle" x="927" y="-68" font-family="Helvetica,sans-Serif" font-size="10.00" fill="#000000">::HardwareMixerInterface</text>
</a>
</g>
</g>
<!-- Node41&#45;&gt;Node46 -->
<g id="edge11" class="edge">
<title>Node41&#45;&gt;Node46</title>
<path fill="none" stroke="#191970" d="M144.3327,-14.1399C213.186,-7.8237 316.6979,0 407,0 407,0 407,0 577,0 690.7893,0 820.746,-38.8361 885.6093,-60.9848"/>
<polygon fill="#191970" stroke="#191970" points="143.6427,-10.6888 134.0095,-15.0994 144.2906,-17.6588 143.6427,-10.6888"/>
</g>
<!-- Node43 -->
<g id="node3" class="node">
<title>Node43</title>
<g id="a_node3"><a xlink:href="classHardwareMixerInterface.html#af7595788a2e9a99336ae2c52128a4b0e" target="_top" xlink:title="HardwareMixerInterface\l::show_control">
<polygon fill="#ffffff" stroke="#000000" points="340,-67 340,-97 474,-97 474,-67 340,-67"/>
<text text-anchor="start" x="348" y="-85" font-family="Helvetica,sans-Serif" font-size="10.00" fill="#000000">HardwareMixerInterface</text>
<text text-anchor="middle" x="407" y="-74" font-family="Helvetica,sans-Serif" font-size="10.00" fill="#000000">::show_control</text>
</a>
</g>
</g>
<!-- Node42&#45;&gt;Node43 -->
<g id="edge2" class="edge">
<title>Node42&#45;&gt;Node43</title>
<path fill="none" stroke="#191970" d="M314.146,-71.6222C322.6879,-72.5769 331.3366,-73.5435 339.7428,-74.483"/>
<polygon fill="#191970" stroke="#191970" points="314.5154,-68.1418 304.1885,-70.5093 313.7378,-75.0985 314.5154,-68.1418"/>
</g>
<!-- Node44 -->
<g id="node4" class="node">
<title>Node44</title>
<g id="a_node4"><a xlink:href="classHardwareMixerInterface.html#a4de903c52121c3cae45ae147a288bd69" target="_top" xlink:title="HardwareMixerInterface\l::cset">
<polygon fill="#ffffff" stroke="#000000" points="510,-108 510,-138 644,-138 644,-108 510,-108"/>
<text text-anchor="start" x="518" y="-126" font-family="Helvetica,sans-Serif" font-size="10.00" fill="#000000">HardwareMixerInterface</text>
<text text-anchor="middle" x="577" y="-115" font-family="Helvetica,sans-Serif" font-size="10.00" fill="#000000">::cset</text>
</a>
</g>
</g>
<!-- Node42&#45;&gt;Node44 -->
<g id="edge9" class="edge">
<title>Node42&#45;&gt;Node44</title>
<path fill="none" stroke="#191970" d="M274.2231,-82.5021C293.3542,-91.5847 317.3545,-101.5646 340,-107 396.2411,-120.499 461.9921,-124.0093 509.9528,-124.4241"/>
<polygon fill="#191970" stroke="#191970" points="275.4969,-79.2296 264.9735,-78.0017 272.4343,-85.5241 275.4969,-79.2296"/>
</g>
<!-- Node42&#45;&gt;Node46 -->
<g id="edge10" class="edge">
<title>Node42&#45;&gt;Node46</title>
<path fill="none" stroke="#191970" d="M314.1964,-58.8455C322.8983,-58.4982 331.6384,-58.2028 340,-58 526.7824,-53.4691 746.9376,-64.648 856.9806,-71.3675"/>
<polygon fill="#191970" stroke="#191970" points="313.8672,-55.3561 304.0237,-59.2746 314.1623,-62.3499 313.8672,-55.3561"/>
</g>
<!-- Node43&#45;&gt;Node44 -->
<g id="edge3" class="edge">
<title>Node43&#45;&gt;Node44</title>
<path fill="none" stroke="#191970" d="M479.1586,-99.403C490.9711,-102.2519 503.1223,-105.1824 514.6711,-107.9677"/>
<polygon fill="#191970" stroke="#191970" points="479.8783,-95.9762 469.3364,-97.0341 478.2371,-102.7811 479.8783,-95.9762"/>
</g>
<!-- Node43&#45;&gt;Node46 -->
<g id="edge8" class="edge">
<title>Node43&#45;&gt;Node46</title>
<path fill="none" stroke="#191970" d="M484.2874,-81.1082C584.9677,-79.9465 759.5597,-77.932 856.6838,-76.8113"/>
<polygon fill="#191970" stroke="#191970" points="484.1408,-77.6096 474.1819,-81.2248 484.2216,-84.6091 484.1408,-77.6096"/>
</g>
<!-- Node45 -->
<g id="node5" class="node">
<title>Node45</title>
<g id="a_node5"><a xlink:href="classHardwareMixerInterface.html#ab575fcbde123baa1dbd1338d69491e8d" target="_top" xlink:title="HardwareMixerInterface\l::ALSAMixerControlSet">
<polygon fill="#ffffff" stroke="#000000" points="680,-143 680,-173 814,-173 814,-143 680,-143"/>
<text text-anchor="start" x="688" y="-161" font-family="Helvetica,sans-Serif" font-size="10.00" fill="#000000">HardwareMixerInterface</text>
<text text-anchor="middle" x="747" y="-150" font-family="Helvetica,sans-Serif" font-size="10.00" fill="#000000">::ALSAMixerControlSet</text>
</a>
</g>
</g>
<!-- Node44&#45;&gt;Node45 -->
<g id="edge4" class="edge">
<title>Node44&#45;&gt;Node45</title>
<path fill="none" stroke="#191970" d="M654.146,-138.883C662.6879,-140.6416 671.3366,-142.4222 679.7428,-144.1529"/>
<polygon fill="#191970" stroke="#191970" points="654.6889,-135.4214 644.1885,-136.8329 653.2773,-142.2776 654.6889,-135.4214"/>
</g>
<!-- Node44&#45;&gt;Node46 -->
<g id="edge7" class="edge">
<title>Node44&#45;&gt;Node46</title>
<path fill="none" stroke="#191970" d="M654.3318,-112.6154C714.842,-104.4898 798.2706,-93.2865 856.8589,-85.419"/>
<polygon fill="#191970" stroke="#191970" points="653.5146,-109.1937 644.0694,-113.9935 654.4463,-116.1314 653.5146,-109.1937"/>
</g>
<!-- Node45&#45;&gt;Node46 -->
<g id="edge5" class="edge">
<title>Node45&#45;&gt;Node46</title>
<path fill="none" stroke="#191970" d="M789.9763,-138.8355C797.9686,-135.2492 806.2428,-131.5214 814,-128 841.1367,-115.6812 871.8531,-101.533 894.4043,-91.1074"/>
<polygon fill="#191970" stroke="#191970" points="788.4662,-135.6768 780.7714,-142.9598 791.3284,-142.065 788.4662,-135.6768"/>
</g>
<!-- Node47 -->
<g id="node7" class="node">
<title>Node47</title>
<g id="a_node7"><a xlink:href="classLoopManager.html#a4aada2d07b7ce0a67a8119ece4805966" target="_top" xlink:title="LoopManager::ReceiveEvent">
<polygon fill="#ffffff" stroke="#000000" points="850,-148.5 850,-167.5 1004,-167.5 1004,-148.5 850,-148.5"/>
<text text-anchor="middle" x="927" y="-155.5" font-family="Helvetica,sans-Serif" font-size="10.00" fill="#000000">LoopManager::ReceiveEvent</text>
</a>
</g>
</g>
<!-- Node45&#45;&gt;Node47 -->
<g id="edge6" class="edge">
<title>Node45&#45;&gt;Node47</title>
<path fill="none" stroke="#191970" d="M824.285,-158C832.7758,-158 841.4206,-158 849.9091,-158"/>
<polygon fill="#191970" stroke="#191970" points="824.0254,-154.5001 814.0254,-158 824.0253,-161.5001 824.0254,-154.5001"/>
</g>
</g>
</svg>
