<?xml version="1.0" encoding="UTF-8" standalone="no"?>
<!DOCTYPE svg PUBLIC "-//W3C//DTD SVG 1.1//EN"
 "http://www.w3.org/Graphics/SVG/1.1/DTD/svg11.dtd">
<!-- Generated by graphviz version 2.40.1 (20161225.0304)
 -->
<!-- Title: BlockManager::StripeBlockOn Pages: 1 -->
<svg width="900pt" height="104pt"
 viewBox="0.00 0.00 900.00 104.00" xmlns="http://www.w3.org/2000/svg" xmlns:xlink="http://www.w3.org/1999/xlink">
<g id="graph0" class="graph" transform="scale(1 1) rotate(0) translate(4 100)">
<title>BlockManager::StripeBlockOn</title>
<polygon fill="#ffffff" stroke="transparent" points="-4,4 -4,-100 896,-100 896,4 -4,4"/>
<!-- Node191 -->
<g id="node1" class="node">
<title>Node191</title>
<polygon fill="#bfbfbf" stroke="#000000" points="0,-38.5 0,-57.5 161,-57.5 161,-38.5 0,-38.5"/>
<text text-anchor="middle" x="80.5" y="-45.5" font-family="Helvetica,sans-Serif" font-size="10.00" fill="#000000">BlockManager::StripeBlockOn</text>
</g>
<!-- Node192 -->
<g id="node2" class="node">
<title>Node192</title>
<g id="a_node2"><a xlink:href="classLoopManager.html#a5630b6fefdfc931ac0ab511c6b77cecf" target="_top" xlink:title="LoopManager::StripePulseOn">
<polygon fill="#ffffff" stroke="#000000" points="197,-38.5 197,-57.5 353,-57.5 353,-38.5 197,-38.5"/>
<text text-anchor="middle" x="275" y="-45.5" font-family="Helvetica,sans-Serif" font-size="10.00" fill="#000000">LoopManager::StripePulseOn</text>
</a>
</g>
</g>
<!-- Node191&#45;&gt;Node192 -->
<g id="edge1" class="edge">
<title>Node191&#45;&gt;Node192</title>
<path fill="none" stroke="#191970" d="M171.0432,-48C179.6273,-48 188.2813,-48 196.7362,-48"/>
<polygon fill="#191970" stroke="#191970" points="171.0146,-44.5001 161.0146,-48 171.0146,-51.5001 171.0146,-44.5001"/>
</g>
<!-- Node193 -->
<g id="node3" class="node">
<title>Node193</title>
<g id="a_node3"><a xlink:href="classLoopManager.html#ab79aef15f1e783de1ab6827378bea274" target="_top" xlink:title="LoopManager::SelectPulse">
<polygon fill="#ffffff" stroke="#000000" points="390,-38.5 390,-57.5 534,-57.5 534,-38.5 390,-38.5"/>
<text text-anchor="middle" x="462" y="-45.5" font-family="Helvetica,sans-Serif" font-size="10.00" fill="#000000">LoopManager::SelectPulse</text>
</a>
</g>
</g>
<!-- Node192&#45;&gt;Node193 -->
<g id="edge2" class="edge">
<title>Node192&#45;&gt;Node193</title>
<path fill="none" stroke="#191970" d="M363.5039,-48C372.3023,-48 381.1598,-48 389.7636,-48"/>
<polygon fill="#191970" stroke="#191970" points="363.2214,-44.5001 353.2213,-48 363.2213,-51.5001 363.2214,-44.5001"/>
</g>
<!-- Node194 -->
<g id="node4" class="node">
<title>Node194</title>
<g id="a_node4"><a xlink:href="classLoopManager.html#a67c6f44d33880b35c875a8e6ea8babac" target="_top" xlink:title="LoopManager::TapPulse">
<polygon fill="#ffffff" stroke="#000000" points="571,-76.5 571,-95.5 702,-95.5 702,-76.5 571,-76.5"/>
<text text-anchor="middle" x="636.5" y="-83.5" font-family="Helvetica,sans-Serif" font-size="10.00" fill="#000000">LoopManager::TapPulse</text>
</a>
</g>
</g>
<!-- Node192&#45;&gt;Node194 -->
<g id="edge7" class="edge">
<title>Node192&#45;&gt;Node194</title>
<path fill="none" stroke="#191970" d="M336.0784,-59.2037C353.1609,-62.058 371.7668,-64.9066 389,-67 450.4972,-74.4704 520.9691,-79.5421 570.946,-82.5534"/>
<polygon fill="#191970" stroke="#191970" points="336.6636,-55.7531 326.2185,-57.5282 335.4908,-62.6541 336.6636,-55.7531"/>
</g>
<!-- Node196 -->
<g id="node6" class="node">
<title>Node196</title>
<g id="a_node6"><a xlink:href="classLoopManager.html#a705436ae811a121ed3285ab34b144bfe" target="_top" xlink:title="LoopManager::CreatePulse">
<polygon fill="#ffffff" stroke="#000000" points="389,-.5 389,-19.5 535,-19.5 535,-.5 389,-.5"/>
<text text-anchor="middle" x="462" y="-7.5" font-family="Helvetica,sans-Serif" font-size="10.00" fill="#000000">LoopManager::CreatePulse</text>
</a>
</g>
</g>
<!-- Node192&#45;&gt;Node196 -->
<g id="edge6" class="edge">
<title>Node192&#45;&gt;Node196</title>
<path fill="none" stroke="#191970" d="M332.131,-36.3905C358.7267,-30.986 389.9731,-24.6365 415.1513,-19.5201"/>
<polygon fill="#191970" stroke="#191970" points="331.2907,-32.9896 322.188,-38.411 332.6847,-39.8494 331.2907,-32.9896"/>
</g>
<!-- Node193&#45;&gt;Node194 -->
<g id="edge3" class="edge">
<title>Node193&#45;&gt;Node194</title>
<path fill="none" stroke="#191970" d="M515.9691,-59.7526C540.6433,-65.1258 569.4948,-71.4086 592.7829,-76.4799"/>
<polygon fill="#191970" stroke="#191970" points="516.5495,-56.297 506.0337,-57.589 515.06,-63.1367 516.5495,-56.297"/>
</g>
<!-- Node195 -->
<g id="node5" class="node">
<title>Node195</title>
<g id="a_node5"><a xlink:href="classLoopManager.html#a4aada2d07b7ce0a67a8119ece4805966" target="_top" xlink:title="LoopManager::ReceiveEvent">
<polygon fill="#ffffff" stroke="#000000" points="738,-57.5 738,-76.5 892,-76.5 892,-57.5 738,-57.5"/>
<text text-anchor="middle" x="815" y="-64.5" font-family="Helvetica,sans-Serif" font-size="10.00" fill="#000000">LoopManager::ReceiveEvent</text>
</a>
</g>
</g>
<!-- Node193&#45;&gt;Node195 -->
<g id="edge5" class="edge">
<title>Node193&#45;&gt;Node195</title>
<path fill="none" stroke="#191970" d="M544.5901,-52.4454C603.0026,-55.5894 680.776,-59.7755 737.9178,-62.8511"/>
<polygon fill="#191970" stroke="#191970" points="544.4603,-48.9334 534.2866,-51.8908 544.084,-55.9233 544.4603,-48.9334"/>
</g>
<!-- Node194&#45;&gt;Node195 -->
<g id="edge4" class="edge">
<title>Node194&#45;&gt;Node195</title>
<path fill="none" stroke="#191970" d="M712.4152,-77.9194C720.8683,-77.0196 729.4846,-76.1025 737.9516,-75.2012"/>
<polygon fill="#191970" stroke="#191970" points="711.7797,-74.4672 702.2064,-79.006 712.5207,-81.4279 711.7797,-74.4672"/>
</g>
</g>
</svg>
