<?xml version="1.0" encoding="UTF-8" standalone="no"?>
<!DOCTYPE svg PUBLIC "-//W3C//DTD SVG 1.1//EN"
 "http://www.w3.org/Graphics/SVG/1.1/DTD/svg11.dtd">
<!-- Generated by graphviz version 2.40.1 (20161225.0304)
 -->
<!-- Title: CircularMap Pages: 1 -->
<svg width="231pt" height="281pt"
 viewBox="0.00 0.00 230.50 281.00" xmlns="http://www.w3.org/2000/svg" xmlns:xlink="http://www.w3.org/1999/xlink">
<g id="graph0" class="graph" transform="scale(1 1) rotate(0) translate(4 277)">
<title>CircularMap</title>
<polygon fill="#ffffff" stroke="transparent" points="-4,4 -4,-277 226.5,-277 226.5,4 -4,4"/>
<!-- Node1 -->
<g id="node1" class="node">
<title>Node1</title>
<polygon fill="#bfbfbf" stroke="#000000" points="40,-.5 40,-101.5 141,-101.5 141,-.5 40,-.5"/>
<text text-anchor="middle" x="90.5" y="-89.5" font-family="Helvetica,sans-Serif" font-size="10.00" fill="#000000">CircularMap</text>
<polyline fill="none" stroke="#000000" points="40,-82.5 141,-82.5 "/>
<text text-anchor="middle" x="90.5" y="-70.5" font-family="Helvetica,sans-Serif" font-size="10.00" fill="#000000"> </text>
<polyline fill="none" stroke="#000000" points="40,-63.5 141,-63.5 "/>
<text text-anchor="start" x="48" y="-51.5" font-family="Helvetica,sans-Serif" font-size="10.00" fill="#000000">+ CircularMap()</text>
<text text-anchor="start" x="48" y="-40.5" font-family="Helvetica,sans-Serif" font-size="10.00" fill="#000000">+ ~CircularMap()</text>
<text text-anchor="start" x="48" y="-29.5" font-family="Helvetica,sans-Serif" font-size="10.00" fill="#000000">+ Map()</text>
<text text-anchor="start" x="48" y="-18.5" font-family="Helvetica,sans-Serif" font-size="10.00" fill="#000000">+ Scan()</text>
<text text-anchor="start" x="48" y="-7.5" font-family="Helvetica,sans-Serif" font-size="10.00" fill="#000000">+ Link()</text>
</g>
<!-- Node1&#45;&gt;Node1 -->
<g id="edge3" class="edge">
<title>Node1&#45;&gt;Node1</title>
<path fill="none" stroke="#404040" d="M141.2839,-70.1168C151.6075,-68.0344 159,-61.6621 159,-51 159,-44.836 156.5292,-40.1057 152.4497,-36.8093"/>
<polygon fill="none" stroke="#404040" points="152.2629,-36.7269 145.1588,-37.9647 141.2839,-31.8832 148.388,-30.6454 152.2629,-36.7269"/>
<text text-anchor="middle" x="176" y="-48.5" font-family="Helvetica,sans-Serif" font-size="10.00" fill="#000000"> +next</text>
</g>
<!-- Node2 -->
<g id="node2" class="node">
<title>Node2</title>
<polygon fill="#ffffff" stroke="#bfbfbf" points="0,-215.5 0,-272.5 29,-272.5 29,-215.5 0,-215.5"/>
<text text-anchor="middle" x="14.5" y="-260.5" font-family="Helvetica,sans-Serif" font-size="10.00" fill="#000000">int</text>
<polyline fill="none" stroke="#bfbfbf" points="0,-253.5 29,-253.5 "/>
<text text-anchor="middle" x="14.5" y="-241.5" font-family="Helvetica,sans-Serif" font-size="10.00" fill="#000000"> </text>
<polyline fill="none" stroke="#bfbfbf" points="0,-234.5 29,-234.5 "/>
<text text-anchor="middle" x="14.5" y="-222.5" font-family="Helvetica,sans-Serif" font-size="10.00" fill="#000000"> </text>
</g>
<!-- Node2&#45;&gt;Node1 -->
<g id="edge1" class="edge">
<title>Node2&#45;&gt;Node1</title>
<path fill="none" stroke="#404040" d="M14.6033,-215.4603C15.6693,-189.5144 19.7412,-150.7071 33.5,-120 34.6794,-117.3679 35.9874,-114.7547 37.3992,-112.1716"/>
<polygon fill="none" stroke="#404040" points="37.4982,-112.0083 37.1916,-104.8037 43.7241,-101.7497 44.0307,-108.9543 37.4982,-112.0083"/>
<text text-anchor="middle" x="60" y="-189" font-family="Helvetica,sans-Serif" font-size="10.00" fill="#000000"> +rsize</text>
<text text-anchor="middle" x="60" y="-178" font-family="Helvetica,sans-Serif" font-size="10.00" fill="#000000">+in_ys</text>
<text text-anchor="middle" x="60" y="-167" font-family="Helvetica,sans-Serif" font-size="10.00" fill="#000000">+in_xs</text>
<text text-anchor="middle" x="60" y="-156" font-family="Helvetica,sans-Serif" font-size="10.00" fill="#000000">+map_ys</text>
<text text-anchor="middle" x="60" y="-145" font-family="Helvetica,sans-Serif" font-size="10.00" fill="#000000">+scanmap</text>
<text text-anchor="middle" x="60" y="-134" font-family="Helvetica,sans-Serif" font-size="10.00" fill="#000000">+rinner</text>
<text text-anchor="middle" x="60" y="-123" font-family="Helvetica,sans-Serif" font-size="10.00" fill="#000000">+map_xs</text>
</g>
<!-- Node3 -->
<g id="node3" class="node">
<title>Node3</title>
<polygon fill="#ffffff" stroke="#bfbfbf" points="62.5,-215.5 62.5,-272.5 118.5,-272.5 118.5,-215.5 62.5,-215.5"/>
<text text-anchor="middle" x="90.5" y="-260.5" font-family="Helvetica,sans-Serif" font-size="10.00" fill="#000000">Uint8 **</text>
<polyline fill="none" stroke="#bfbfbf" points="62.5,-253.5 118.5,-253.5 "/>
<text text-anchor="middle" x="90.5" y="-241.5" font-family="Helvetica,sans-Serif" font-size="10.00" fill="#000000"> </text>
<polyline fill="none" stroke="#bfbfbf" points="62.5,-234.5 118.5,-234.5 "/>
<text text-anchor="middle" x="90.5" y="-222.5" font-family="Helvetica,sans-Serif" font-size="10.00" fill="#000000"> </text>
</g>
<!-- Node3&#45;&gt;Node1 -->
<g id="edge2" class="edge">
<title>Node3&#45;&gt;Node1</title>
<path fill="none" stroke="#404040" d="M90.5,-215.1059C90.5,-188.5077 90.5,-148.1388 90.5,-114.0965"/>
<polygon fill="none" stroke="#404040" points="90.5001,-113.8781 86.5,-107.8781 90.5,-101.8781 94.5,-107.878 90.5001,-113.8781"/>
<text text-anchor="middle" x="107.5" y="-156" font-family="Helvetica,sans-Serif" font-size="10.00" fill="#000000"> +map</text>
</g>
<!-- Node4 -->
<g id="node4" class="node">
<title>Node4</title>
<polygon fill="#ffffff" stroke="#bfbfbf" points="136.5,-215.5 136.5,-272.5 222.5,-272.5 222.5,-215.5 136.5,-215.5"/>
<text text-anchor="middle" x="179.5" y="-260.5" font-family="Helvetica,sans-Serif" font-size="10.00" fill="#000000">SDL_Surface *</text>
<polyline fill="none" stroke="#bfbfbf" points="136.5,-253.5 222.5,-253.5 "/>
<text text-anchor="middle" x="179.5" y="-241.5" font-family="Helvetica,sans-Serif" font-size="10.00" fill="#000000"> </text>
<polyline fill="none" stroke="#bfbfbf" points="136.5,-234.5 222.5,-234.5 "/>
<text text-anchor="middle" x="179.5" y="-222.5" font-family="Helvetica,sans-Serif" font-size="10.00" fill="#000000"> </text>
</g>
<!-- Node4&#45;&gt;Node1 -->
<g id="edge4" class="edge">
<title>Node4&#45;&gt;Node1</title>
<path fill="none" stroke="#404040" d="M168.6571,-215.0316C158.9009,-189.6405 143.7878,-151.9085 128.5,-120 127.2785,-117.4505 126.0065,-114.8628 124.7001,-112.2598"/>
<polygon fill="none" stroke="#404040" points="124.6693,-112.1998 118.3667,-108.6957 119.1771,-101.5303 125.4797,-105.0343 124.6693,-112.1998"/>
<text text-anchor="middle" x="171" y="-156" font-family="Helvetica,sans-Serif" font-size="10.00" fill="#000000"> +in</text>
</g>
</g>
</svg>
