<?xml version="1.0" encoding="UTF-8" standalone="no"?>
<!DOCTYPE svg PUBLIC "-//W3C//DTD SVG 1.1//EN"
 "http://www.w3.org/Graphics/SVG/1.1/DTD/svg11.dtd">
<!-- Generated by graphviz version 2.40.1 (20161225.0304)
 -->
<!-- Title: FloConfig::GetFaderMaxDB Pages: 1 -->
<svg width="553pt" height="142pt"
 viewBox="0.00 0.00 553.00 142.00" xmlns="http://www.w3.org/2000/svg" xmlns:xlink="http://www.w3.org/1999/xlink">
<g id="graph0" class="graph" transform="scale(1 1) rotate(0) translate(4 138)">
<title>FloConfig::GetFaderMaxDB</title>
<polygon fill="#ffffff" stroke="transparent" points="-4,4 -4,-138 549,-138 549,4 -4,4"/>
<!-- Node120 -->
<g id="node1" class="node">
<title>Node120</title>
<polygon fill="#bfbfbf" stroke="#000000" points="0,-57.5 0,-76.5 146,-76.5 146,-57.5 0,-57.5"/>
<text text-anchor="middle" x="73" y="-64.5" font-family="Helvetica,sans-Serif" font-size="10.00" fill="#000000">FloConfig::GetFaderMaxDB</text>
</g>
<!-- Node121 -->
<g id="node2" class="node">
<title>Node121</title>
<g id="a_node2"><a xlink:href="classInputMatrix.html#aa74204a205a10f2b60809ea124db9173" target="_top" xlink:title="InputMatrix::ReceiveEvent">
<polygon fill="#ffffff" stroke="#000000" points="196.5,-114.5 196.5,-133.5 340.5,-133.5 340.5,-114.5 196.5,-114.5"/>
<text text-anchor="middle" x="268.5" y="-121.5" font-family="Helvetica,sans-Serif" font-size="10.00" fill="#000000">InputMatrix::ReceiveEvent</text>
</a>
</g>
</g>
<!-- Node120&#45;&gt;Node121 -->
<g id="edge1" class="edge">
<title>Node120&#45;&gt;Node121</title>
<path fill="none" stroke="#191970" d="M107.4099,-80.1787C128.6956,-88.0343 156.697,-97.838 182,-105 194.2791,-108.4756 207.6887,-111.6947 220.205,-114.4583"/>
<polygon fill="#191970" stroke="#191970" points="108.4322,-76.8246 97.8395,-76.6113 105.9872,-83.3837 108.4322,-76.8246"/>
</g>
<!-- Node122 -->
<g id="node3" class="node">
<title>Node122</title>
<g id="a_node3"><a xlink:href="classLoopManager.html#a82f420b74ebb790061772cb2ea23d83d" target="_top" xlink:title="LoopManager::SetOutputVolume">
<polygon fill="#ffffff" stroke="#000000" points="182,-76.5 182,-95.5 355,-95.5 355,-76.5 182,-76.5"/>
<text text-anchor="middle" x="268.5" y="-83.5" font-family="Helvetica,sans-Serif" font-size="10.00" fill="#000000">LoopManager::SetOutputVolume</text>
</a>
</g>
</g>
<!-- Node120&#45;&gt;Node122 -->
<g id="edge2" class="edge">
<title>Node120&#45;&gt;Node122</title>
<path fill="none" stroke="#191970" d="M156.0616,-75.0725C164.6432,-75.9065 173.3793,-76.7555 181.9972,-77.5931"/>
<polygon fill="#191970" stroke="#191970" points="156.3667,-71.5857 146.075,-74.1019 155.6895,-78.5529 156.3667,-71.5857"/>
</g>
<!-- Node124 -->
<g id="node5" class="node">
<title>Node124</title>
<g id="a_node5"><a xlink:href="classLoopManager.html#ad636c6280f2a5a6bfe45f94946dc3a9f" target="_top" xlink:title="LoopManager::SetInputVolume">
<polygon fill="#ffffff" stroke="#000000" points="186,-38.5 186,-57.5 351,-57.5 351,-38.5 186,-38.5"/>
<text text-anchor="middle" x="268.5" y="-45.5" font-family="Helvetica,sans-Serif" font-size="10.00" fill="#000000">LoopManager::SetInputVolume</text>
</a>
</g>
</g>
<!-- Node120&#45;&gt;Node124 -->
<g id="edge4" class="edge">
<title>Node120&#45;&gt;Node124</title>
<path fill="none" stroke="#191970" d="M156.2482,-58.9094C166.0967,-57.9522 176.1461,-56.9756 185.9844,-56.0194"/>
<polygon fill="#191970" stroke="#191970" points="155.6895,-55.4471 146.075,-59.8981 156.3667,-62.4143 155.6895,-55.4471"/>
</g>
<!-- Node125 -->
<g id="node6" class="node">
<title>Node125</title>
<g id="a_node6"><a xlink:href="classInputSettings.html#a6f6f097348037e0c518e8564847f6aff" target="_top" xlink:title="InputSettings::SetInputVol">
<polygon fill="#ffffff" stroke="#000000" points="197,-.5 197,-19.5 340,-19.5 340,-.5 197,-.5"/>
<text text-anchor="middle" x="268.5" y="-7.5" font-family="Helvetica,sans-Serif" font-size="10.00" fill="#000000">InputSettings::SetInputVol</text>
</a>
</g>
</g>
<!-- Node120&#45;&gt;Node125 -->
<g id="edge6" class="edge">
<title>Node120&#45;&gt;Node125</title>
<path fill="none" stroke="#191970" d="M107.4099,-53.8213C128.6956,-45.9657 156.697,-36.162 182,-29 194.2791,-25.5244 207.6887,-22.3053 220.205,-19.5417"/>
<polygon fill="#191970" stroke="#191970" points="105.9872,-50.6163 97.8395,-57.3887 108.4322,-57.1754 105.9872,-50.6163"/>
</g>
<!-- Node123 -->
<g id="node4" class="node">
<title>Node123</title>
<g id="a_node4"><a xlink:href="classLoopManager.html#a4aada2d07b7ce0a67a8119ece4805966" target="_top" xlink:title="LoopManager::ReceiveEvent">
<polygon fill="#ffffff" stroke="#000000" points="391,-38.5 391,-57.5 545,-57.5 545,-38.5 391,-38.5"/>
<text text-anchor="middle" x="468" y="-45.5" font-family="Helvetica,sans-Serif" font-size="10.00" fill="#000000">LoopManager::ReceiveEvent</text>
</a>
</g>
</g>
<!-- Node122&#45;&gt;Node123 -->
<g id="edge3" class="edge">
<title>Node122&#45;&gt;Node123</title>
<path fill="none" stroke="#191970" d="M328.4451,-74.5819C356.99,-69.1448 390.7371,-62.7168 417.8946,-57.5439"/>
<polygon fill="#191970" stroke="#191970" points="327.7532,-71.1507 318.5848,-76.46 329.0631,-78.027 327.7532,-71.1507"/>
</g>
<!-- Node124&#45;&gt;Node123 -->
<g id="edge5" class="edge">
<title>Node124&#45;&gt;Node123</title>
<path fill="none" stroke="#191970" d="M361.3479,-48C371.2442,-48 381.2315,-48 390.9177,-48"/>
<polygon fill="#191970" stroke="#191970" points="361.0844,-44.5001 351.0844,-48 361.0843,-51.5001 361.0844,-44.5001"/>
</g>
<!-- Node125&#45;&gt;Node123 -->
<g id="edge7" class="edge">
<title>Node125&#45;&gt;Node123</title>
<path fill="none" stroke="#191970" d="M328.4451,-21.4181C356.99,-26.8552 390.7371,-33.2832 417.8946,-38.4561"/>
<polygon fill="#191970" stroke="#191970" points="329.0631,-17.973 318.5848,-19.54 327.7532,-24.8493 329.0631,-17.973"/>
</g>
</g>
</svg>
