<?xml version="1.0" encoding="UTF-8" standalone="no"?>
<!DOCTYPE svg PUBLIC "-//W3C//DTD SVG 1.1//EN"
 "http://www.w3.org/Graphics/SVG/1.1/DTD/svg11.dtd">
<!-- Generated by graphviz version 2.40.1 (20161225.0304)
 -->
<!-- Title: Loop::Save Pages: 1 -->
<svg width="968pt" height="85pt"
 viewBox="0.00 0.00 968.00 85.00" xmlns="http://www.w3.org/2000/svg" xmlns:xlink="http://www.w3.org/1999/xlink">
<g id="graph0" class="graph" transform="scale(1 1) rotate(0) translate(4 81)">
<title>Loop::Save</title>
<polygon fill="#ffffff" stroke="transparent" points="-4,4 -4,-81 964,-81 964,4 -4,4"/>
<!-- Node30 -->
<g id="node1" class="node">
<title>Node30</title>
<polygon fill="#bfbfbf" stroke="#000000" points="0,-.5 0,-19.5 70,-19.5 70,-.5 0,-.5"/>
<text text-anchor="middle" x="35" y="-7.5" font-family="Helvetica,sans-Serif" font-size="10.00" fill="#000000">Loop::Save</text>
</g>
<!-- Node31 -->
<g id="node2" class="node">
<title>Node31</title>
<g id="a_node2"><a xlink:href="classLoopManager.html#a87ecdd3c80b3c16018a50a397f906b03" target="_top" xlink:title="LoopManager::SaveLoop">
<polygon fill="#ffffff" stroke="#000000" points="106,-.5 106,-19.5 241,-19.5 241,-.5 106,-.5"/>
<text text-anchor="middle" x="173.5" y="-7.5" font-family="Helvetica,sans-Serif" font-size="10.00" fill="#000000">LoopManager::SaveLoop</text>
</a>
</g>
</g>
<!-- Node30&#45;&gt;Node31 -->
<g id="edge1" class="edge">
<title>Node30&#45;&gt;Node31</title>
<path fill="none" stroke="#191970" d="M80.3685,-10C88.5579,-10 97.255,-10 105.9173,-10"/>
<polygon fill="#191970" stroke="#191970" points="80.3078,-6.5001 70.3078,-10 80.3077,-13.5001 80.3078,-6.5001"/>
</g>
<!-- Node32 -->
<g id="node3" class="node">
<title>Node32</title>
<g id="a_node3"><a xlink:href="classTriggerMap.html#aaa7bec4f62540981d1e5703fe8ed575e" target="_top" xlink:title="TriggerMap::Save">
<polygon fill="#ffffff" stroke="#000000" points="277,-19.5 277,-38.5 377,-38.5 377,-19.5 277,-19.5"/>
<text text-anchor="middle" x="327" y="-26.5" font-family="Helvetica,sans-Serif" font-size="10.00" fill="#000000">TriggerMap::Save</text>
</a>
</g>
</g>
<!-- Node31&#45;&gt;Node32 -->
<g id="edge2" class="edge">
<title>Node31&#45;&gt;Node32</title>
<path fill="none" stroke="#191970" d="M251.3466,-19.6357C259.9416,-20.6996 268.5183,-21.7612 276.6454,-22.7672"/>
<polygon fill="#191970" stroke="#191970" points="251.6284,-16.144 241.2742,-18.389 250.7684,-23.091 251.6284,-16.144"/>
</g>
<!-- Node35 -->
<g id="node6" class="node">
<title>Node35</title>
<g id="a_node6"><a xlink:href="classLoopManager.html#a4aada2d07b7ce0a67a8119ece4805966" target="_top" xlink:title="LoopManager::ReceiveEvent">
<polygon fill="#ffffff" stroke="#000000" points="806,-19.5 806,-38.5 960,-38.5 960,-19.5 806,-19.5"/>
<text text-anchor="middle" x="883" y="-26.5" font-family="Helvetica,sans-Serif" font-size="10.00" fill="#000000">LoopManager::ReceiveEvent</text>
</a>
</g>
</g>
<!-- Node31&#45;&gt;Node35 -->
<g id="edge8" class="edge">
<title>Node31&#45;&gt;Node35</title>
<path fill="none" stroke="#191970" d="M251.3018,-8.5763C332.3898,-7.4265 463.1381,-6.5109 576,-10 654.3279,-12.4215 743.7363,-18.3103 805.7826,-22.8955"/>
<polygon fill="#191970" stroke="#191970" points="251.1228,-5.0785 241.1752,-8.7248 251.2255,-12.0777 251.1228,-5.0785"/>
</g>
<!-- Node33 -->
<g id="node4" class="node">
<title>Node33</title>
<g id="a_node4"><a xlink:href="classLoopManager.html#ac2adaa8b989e1284abf17fc07eb0baf2" target="_top" xlink:title="LoopManager::SaveNewScene">
<polygon fill="#ffffff" stroke="#000000" points="413,-19.5 413,-38.5 576,-38.5 576,-19.5 413,-19.5"/>
<text text-anchor="middle" x="494.5" y="-26.5" font-family="Helvetica,sans-Serif" font-size="10.00" fill="#000000">LoopManager::SaveNewScene</text>
</a>
</g>
</g>
<!-- Node32&#45;&gt;Node33 -->
<g id="edge3" class="edge">
<title>Node32&#45;&gt;Node33</title>
<path fill="none" stroke="#191970" d="M387.5263,-29C395.7945,-29 404.3907,-29 412.9561,-29"/>
<polygon fill="#191970" stroke="#191970" points="387.2556,-25.5001 377.2555,-29 387.2555,-32.5001 387.2556,-25.5001"/>
</g>
<!-- Node34 -->
<g id="node5" class="node">
<title>Node34</title>
<g id="a_node5"><a xlink:href="classLoopManager.html#abd2cda6ecc976fd447167d5de7cc5912" target="_top" xlink:title="LoopManager::SaveCurScene">
<polygon fill="#ffffff" stroke="#000000" points="612,-57.5 612,-76.5 770,-76.5 770,-57.5 612,-57.5"/>
<text text-anchor="middle" x="691" y="-64.5" font-family="Helvetica,sans-Serif" font-size="10.00" fill="#000000">LoopManager::SaveCurScene</text>
</a>
</g>
</g>
<!-- Node32&#45;&gt;Node34 -->
<g id="edge7" class="edge">
<title>Node32&#45;&gt;Node34</title>
<path fill="none" stroke="#191970" d="M374.2431,-40.7649C386.7738,-43.5203 400.3411,-46.1794 413,-48 479.6782,-57.5895 556.0715,-62.3683 611.8824,-64.7327"/>
<polygon fill="#191970" stroke="#191970" points="374.979,-37.343 364.453,-38.5487 373.4335,-44.1703 374.979,-37.343"/>
</g>
<!-- Node33&#45;&gt;Node34 -->
<g id="edge4" class="edge">
<title>Node33&#45;&gt;Node34</title>
<path fill="none" stroke="#191970" d="M553.9123,-40.4894C581.9495,-45.9114 615.0157,-52.3058 641.6481,-57.4561"/>
<polygon fill="#191970" stroke="#191970" points="554.3143,-37.0024 543.8316,-38.54 552.9852,-43.875 554.3143,-37.0024"/>
</g>
<!-- Node33&#45;&gt;Node35 -->
<g id="edge6" class="edge">
<title>Node33&#45;&gt;Node35</title>
<path fill="none" stroke="#191970" d="M586.5213,-29C653.3391,-29 742.7252,-29 805.824,-29"/>
<polygon fill="#191970" stroke="#191970" points="586.4162,-25.5001 576.4161,-29 586.4161,-32.5001 586.4162,-25.5001"/>
</g>
<!-- Node34&#45;&gt;Node35 -->
<g id="edge5" class="edge">
<title>Node34&#45;&gt;Node35</title>
<path fill="none" stroke="#191970" d="M749.298,-55.4619C776.6826,-50.042 808.9334,-43.659 834.8987,-38.5201"/>
<polygon fill="#191970" stroke="#191970" points="748.5799,-52.036 739.4497,-57.411 749.939,-58.9028 748.5799,-52.036"/>
</g>
</g>
</svg>
