<?xml version="1.0" encoding="UTF-8" standalone="no"?>
<!DOCTYPE svg PUBLIC "-//W3C//DTD SVG 1.1//EN"
 "http://www.w3.org/Graphics/SVG/1.1/DTD/svg11.dtd">
<!-- Generated by graphviz version 2.40.1 (20161225.0304)
 -->
<!-- Title: BlockManager::HiRefDeleted Pages: 1 -->
<svg width="934pt" height="192pt"
 viewBox="0.00 0.00 934.00 192.00" xmlns="http://www.w3.org/2000/svg" xmlns:xlink="http://www.w3.org/1999/xlink">
<g id="graph0" class="graph" transform="scale(1 1) rotate(0) translate(4 188)">
<title>BlockManager::HiRefDeleted</title>
<polygon fill="#ffffff" stroke="transparent" points="-4,4 -4,-188 930,-188 930,4 -4,4"/>
<!-- Node112 -->
<g id="node1" class="node">
<title>Node112</title>
<polygon fill="#bfbfbf" stroke="#000000" points="0,-88.5 0,-107.5 156,-107.5 156,-88.5 0,-88.5"/>
<text text-anchor="middle" x="78" y="-95.5" font-family="Helvetica,sans-Serif" font-size="10.00" fill="#000000">BlockManager::HiRefDeleted</text>
</g>
<!-- Node113 -->
<g id="node2" class="node">
<title>Node113</title>
<g id="a_node2"><a xlink:href="classBlockManager.html#aed9f3464448ad90022bc613002b912f2" target="_top" xlink:title="BlockManager::RefDeleted">
<polygon fill="#ffffff" stroke="#000000" points="192,-88.5 192,-107.5 338,-107.5 338,-88.5 192,-88.5"/>
<text text-anchor="middle" x="265" y="-95.5" font-family="Helvetica,sans-Serif" font-size="10.00" fill="#000000">BlockManager::RefDeleted</text>
</a>
</g>
</g>
<!-- Node112&#45;&gt;Node113 -->
<g id="edge1" class="edge">
<title>Node112&#45;&gt;Node113</title>
<path fill="none" stroke="#191970" d="M166.2478,-98C174.8269,-98 183.4651,-98 191.8724,-98"/>
<polygon fill="#191970" stroke="#191970" points="166.2214,-94.5001 156.2213,-98 166.2213,-101.5001 166.2214,-94.5001"/>
</g>
<!-- Node114 -->
<g id="node3" class="node">
<title>Node114</title>
<g id="a_node3"><a xlink:href="classLoopManager.html#aadca58536e41c8b0b8fd148ac40b23c0" target="_top" xlink:title="LoopManager::~LoopManager">
<polygon fill="#ffffff" stroke="#000000" points="377,-164.5 377,-183.5 538,-183.5 538,-164.5 377,-164.5"/>
<text text-anchor="middle" x="457.5" y="-171.5" font-family="Helvetica,sans-Serif" font-size="10.00" fill="#000000">LoopManager::~LoopManager</text>
</a>
</g>
</g>
<!-- Node113&#45;&gt;Node114 -->
<g id="edge2" class="edge">
<title>Node113&#45;&gt;Node114</title>
<path fill="none" stroke="#191970" d="M289.0825,-112.9145C310.6341,-125.6885 343.4511,-143.7524 374,-155 384.0451,-158.6984 395.0448,-161.8194 405.6676,-164.3952"/>
<polygon fill="#191970" stroke="#191970" points="290.6719,-109.7861 280.2987,-107.6302 287.0634,-115.7844 290.6719,-109.7861"/>
</g>
<!-- Node115 -->
<g id="node4" class="node">
<title>Node115</title>
<g id="a_node4"><a xlink:href="classLoopManager.html#a332a9868980750f28fbf0e05b2336174" target="_top" xlink:title="LoopManager::DeleteLoop">
<polygon fill="#ffffff" stroke="#000000" points="386,-126.5 386,-145.5 529,-145.5 529,-126.5 386,-126.5"/>
<text text-anchor="middle" x="457.5" y="-133.5" font-family="Helvetica,sans-Serif" font-size="10.00" fill="#000000">LoopManager::DeleteLoop</text>
</a>
</g>
</g>
<!-- Node113&#45;&gt;Node115 -->
<g id="edge3" class="edge">
<title>Node113&#45;&gt;Node115</title>
<path fill="none" stroke="#191970" d="M323.4498,-109.5381C350.9057,-114.958 383.2405,-121.341 409.2734,-126.4799"/>
<polygon fill="#191970" stroke="#191970" points="324.0644,-106.092 313.5759,-107.589 322.7087,-112.9595 324.0644,-106.092"/>
</g>
<!-- Node119 -->
<g id="node8" class="node">
<title>Node119</title>
<g id="a_node8"><a xlink:href="classPulse.html#a0081f88108dfc1585a23eae533be0190" target="_top" xlink:title="Pulse::~Pulse">
<polygon fill="#ffffff" stroke="#000000" points="416,-88.5 416,-107.5 499,-107.5 499,-88.5 416,-88.5"/>
<text text-anchor="middle" x="457.5" y="-95.5" font-family="Helvetica,sans-Serif" font-size="10.00" fill="#000000">Pulse::~Pulse</text>
</a>
</g>
</g>
<!-- Node113&#45;&gt;Node119 -->
<g id="edge8" class="edge">
<title>Node113&#45;&gt;Node119</title>
<path fill="none" stroke="#191970" d="M348.3141,-98C371.6267,-98 395.9704,-98 415.7401,-98"/>
<polygon fill="#191970" stroke="#191970" points="348.0505,-94.5001 338.0505,-98 348.0504,-101.5001 348.0505,-94.5001"/>
</g>
<!-- Node120 -->
<g id="node9" class="node">
<title>Node120</title>
<g id="a_node9"><a xlink:href="classRecordProcessor.html#a63fbf98c72bafa6c2e24a3962bdae70c" target="_top" xlink:title="RecordProcessor::~Record\lProcessor">
<polygon fill="#ffffff" stroke="#000000" points="385.5,-39 385.5,-69 529.5,-69 529.5,-39 385.5,-39"/>
<text text-anchor="start" x="393.5" y="-57" font-family="Helvetica,sans-Serif" font-size="10.00" fill="#000000">RecordProcessor::~Record</text>
<text text-anchor="middle" x="457.5" y="-46" font-family="Helvetica,sans-Serif" font-size="10.00" fill="#000000">Processor</text>
</a>
</g>
</g>
<!-- Node113&#45;&gt;Node120 -->
<g id="edge9" class="edge">
<title>Node113&#45;&gt;Node120</title>
<path fill="none" stroke="#191970" d="M316.6826,-86.1868C339.7115,-80.9231 367.1086,-74.6609 391.589,-69.0654"/>
<polygon fill="#191970" stroke="#191970" points="315.7383,-82.8123 306.7696,-88.4527 317.2981,-89.6363 315.7383,-82.8123"/>
</g>
<!-- Node121 -->
<g id="node10" class="node">
<title>Node121</title>
<g id="a_node10"><a xlink:href="classPlayProcessor.html#a3df8da4a26e768d00b0cfada90b37cc9" target="_top" xlink:title="PlayProcessor::~PlayProcessor">
<polygon fill="#ffffff" stroke="#000000" points="374,-.5 374,-19.5 541,-19.5 541,-.5 374,-.5"/>
<text text-anchor="middle" x="457.5" y="-7.5" font-family="Helvetica,sans-Serif" font-size="10.00" fill="#000000">PlayProcessor::~PlayProcessor</text>
</a>
</g>
</g>
<!-- Node113&#45;&gt;Node121 -->
<g id="edge10" class="edge">
<title>Node113&#45;&gt;Node121</title>
<path fill="none" stroke="#191970" d="M285.1356,-82.2655C306.1768,-66.5657 340.705,-42.8437 374,-29 383.1976,-25.1757 393.3003,-22.0518 403.2043,-19.5236"/>
<polygon fill="#191970" stroke="#191970" points="282.836,-79.6169 276.9865,-88.4506 287.068,-85.1927 282.836,-79.6169"/>
</g>
<!-- Node116 -->
<g id="node5" class="node">
<title>Node116</title>
<g id="a_node5"><a xlink:href="classLoopManager.html#a6048a702c9cec3676a1c56792b16ec44" target="_top" xlink:title="LoopManager::ReadComplete">
<polygon fill="#ffffff" stroke="#000000" points="577,-164.5 577,-183.5 736,-183.5 736,-164.5 577,-164.5"/>
<text text-anchor="middle" x="656.5" y="-171.5" font-family="Helvetica,sans-Serif" font-size="10.00" fill="#000000">LoopManager::ReadComplete</text>
</a>
</g>
</g>
<!-- Node115&#45;&gt;Node116 -->
<g id="edge4" class="edge">
<title>Node115&#45;&gt;Node116</title>
<path fill="none" stroke="#191970" d="M517.2949,-147.4181C545.7682,-152.8552 579.4307,-159.2832 606.5202,-164.4561"/>
<polygon fill="#191970" stroke="#191970" points="517.9383,-143.9778 507.4592,-145.54 516.6253,-150.8536 517.9383,-143.9778"/>
</g>
<!-- Node117 -->
<g id="node6" class="node">
<title>Node117</title>
<g id="a_node6"><a xlink:href="classLoopManager.html#a8efb4c8acabceb10faa8660c14c89d71" target="_top" xlink:title="LoopManager::DeletePulse">
<polygon fill="#ffffff" stroke="#000000" points="583.5,-126.5 583.5,-145.5 729.5,-145.5 729.5,-126.5 583.5,-126.5"/>
<text text-anchor="middle" x="656.5" y="-133.5" font-family="Helvetica,sans-Serif" font-size="10.00" fill="#000000">LoopManager::DeletePulse</text>
</a>
</g>
</g>
<!-- Node115&#45;&gt;Node117 -->
<g id="edge5" class="edge">
<title>Node115&#45;&gt;Node117</title>
<path fill="none" stroke="#191970" d="M539.0833,-136C553.7046,-136 568.8596,-136 583.2288,-136"/>
<polygon fill="#191970" stroke="#191970" points="539.0625,-132.5001 529.0624,-136 539.0624,-139.5001 539.0625,-132.5001"/>
</g>
<!-- Node118 -->
<g id="node7" class="node">
<title>Node118</title>
<g id="a_node7"><a xlink:href="classLoopManager.html#a4aada2d07b7ce0a67a8119ece4805966" target="_top" xlink:title="LoopManager::ReceiveEvent">
<polygon fill="#ffffff" stroke="#000000" points="772,-107.5 772,-126.5 926,-126.5 926,-107.5 772,-107.5"/>
<text text-anchor="middle" x="849" y="-114.5" font-family="Helvetica,sans-Serif" font-size="10.00" fill="#000000">LoopManager::ReceiveEvent</text>
</a>
</g>
</g>
<!-- Node115&#45;&gt;Node118 -->
<g id="edge7" class="edge">
<title>Node115&#45;&gt;Node118</title>
<path fill="none" stroke="#191970" d="M516.0097,-124.8102C535.3492,-121.6173 557.0267,-118.5779 577,-117 642.5527,-111.8212 717.2696,-112.2764 771.7856,-113.7687"/>
<polygon fill="#191970" stroke="#191970" points="515.4042,-121.3628 506.1309,-126.4869 516.5757,-128.2641 515.4042,-121.3628"/>
</g>
<!-- Node117&#45;&gt;Node118 -->
<g id="edge6" class="edge">
<title>Node117&#45;&gt;Node118</title>
<path fill="none" stroke="#191970" d="M739.6986,-127.7882C750.3711,-126.7348 761.2618,-125.6599 771.8326,-124.6165"/>
<polygon fill="#191970" stroke="#191970" points="739.1583,-124.3244 729.5505,-128.7898 739.8459,-131.2906 739.1583,-124.3244"/>
</g>
</g>
</svg>
