<?xml version="1.0" encoding="UTF-8" standalone="no"?>
<!DOCTYPE svg PUBLIC "-//W3C//DTD SVG 1.1//EN"
 "http://www.w3.org/Graphics/SVG/1.1/DTD/svg11.dtd">
<!-- Generated by graphviz version 2.40.1 (20161225.0304)
 -->
<!-- Title: UserVariable::RaisePrecision Pages: 1 -->
<svg width="508pt" height="28pt"
 viewBox="0.00 0.00 508.00 28.00" xmlns="http://www.w3.org/2000/svg" xmlns:xlink="http://www.w3.org/1999/xlink">
<g id="graph0" class="graph" transform="scale(1 1) rotate(0) translate(4 24)">
<title>UserVariable::RaisePrecision</title>
<polygon fill="#ffffff" stroke="transparent" points="-4,4 -4,-24 504,-24 504,4 -4,4"/>
<!-- Node74 -->
<g id="node1" class="node">
<title>Node74</title>
<polygon fill="#bfbfbf" stroke="#000000" points="0,-.5 0,-19.5 156,-19.5 156,-.5 0,-.5"/>
<text text-anchor="middle" x="78" y="-7.5" font-family="Helvetica,sans-Serif" font-size="10.00" fill="#000000">UserVariable::RaisePrecision</text>
</g>
<!-- Node75 -->
<g id="node2" class="node">
<title>Node75</title>
<g id="a_node2"><a xlink:href="classUserVariable.html#aa1e6fe7fdb8740952e74869c877665ec" target="_top" xlink:title="UserVariable::GetDelta">
<polygon fill="#ffffff" stroke="#000000" points="192,-.5 192,-19.5 320,-19.5 320,-.5 192,-.5"/>
<text text-anchor="middle" x="256" y="-7.5" font-family="Helvetica,sans-Serif" font-size="10.00" fill="#000000">UserVariable::GetDelta</text>
</a>
</g>
</g>
<!-- Node74&#45;&gt;Node75 -->
<g id="edge1" class="edge">
<title>Node74&#45;&gt;Node75</title>
<path fill="none" stroke="#191970" d="M166.2056,-10C174.8573,-10 183.519,-10 191.8637,-10"/>
<polygon fill="#191970" stroke="#191970" points="166.0734,-6.5001 156.0734,-10 166.0734,-13.5001 166.0734,-6.5001"/>
</g>
<!-- Node76 -->
<g id="node3" class="node">
<title>Node76</title>
<g id="a_node3"><a xlink:href="classInputMatrix.html#aa74204a205a10f2b60809ea124db9173" target="_top" xlink:title="InputMatrix::ReceiveEvent">
<polygon fill="#ffffff" stroke="#000000" points="356,-.5 356,-19.5 500,-19.5 500,-.5 356,-.5"/>
<text text-anchor="middle" x="428" y="-7.5" font-family="Helvetica,sans-Serif" font-size="10.00" fill="#000000">InputMatrix::ReceiveEvent</text>
</a>
</g>
</g>
<!-- Node75&#45;&gt;Node76 -->
<g id="edge2" class="edge">
<title>Node75&#45;&gt;Node76</title>
<path fill="none" stroke="#191970" d="M330.2731,-10C338.7385,-10 347.3584,-10 355.7963,-10"/>
<polygon fill="#191970" stroke="#191970" points="330.0465,-6.5001 320.0465,-10 330.0464,-13.5001 330.0465,-6.5001"/>
</g>
</g>
</svg>
