<?xml version="1.0" encoding="UTF-8" standalone="no"?>
<!DOCTYPE svg PUBLIC "-//W3C//DTD SVG 1.1//EN"
 "http://www.w3.org/Graphics/SVG/1.1/DTD/svg11.dtd">
<!-- Generated by graphviz version 2.40.1 (20161225.0304)
 -->
<!-- Title: AudioBlockIterator::NextFragment Pages: 1 -->
<svg width="509pt" height="230pt"
 viewBox="0.00 0.00 509.00 230.00" xmlns="http://www.w3.org/2000/svg" xmlns:xlink="http://www.w3.org/1999/xlink">
<g id="graph0" class="graph" transform="scale(1 1) rotate(0) translate(4 226)">
<title>AudioBlockIterator::NextFragment</title>
<polygon fill="#ffffff" stroke="transparent" points="-4,4 -4,-226 505,-226 505,4 -4,4"/>
<!-- Node74 -->
<g id="node1" class="node">
<title>Node74</title>
<polygon fill="#bfbfbf" stroke="#000000" points="0,-93 0,-123 107,-123 107,-93 0,-93"/>
<text text-anchor="start" x="8" y="-111" font-family="Helvetica,sans-Serif" font-size="10.00" fill="#000000">AudioBlockIterator</text>
<text text-anchor="middle" x="53.5" y="-100" font-family="Helvetica,sans-Serif" font-size="10.00" fill="#000000">::NextFragment</text>
</g>
<!-- Node75 -->
<g id="node2" class="node">
<title>Node75</title>
<g id="a_node2"><a xlink:href="classSndFileDecoder.html#a6f533159127e8f633a12c6fe3f86b4a2" target="_top" xlink:title="SndFileDecoder::ReadSamples">
<polygon fill="#ffffff" stroke="#000000" points="143,-202.5 143,-221.5 307,-221.5 307,-202.5 143,-202.5"/>
<text text-anchor="middle" x="225" y="-209.5" font-family="Helvetica,sans-Serif" font-size="10.00" fill="#000000">SndFileDecoder::ReadSamples</text>
</a>
</g>
</g>
<!-- Node74&#45;&gt;Node75 -->
<g id="edge1" class="edge">
<title>Node74&#45;&gt;Node75</title>
<path fill="none" stroke="#191970" d="M71.5285,-130.9493C88.0565,-150.4048 114.2696,-177.5405 143,-193 150.2064,-196.8777 158.1838,-199.9681 166.2501,-202.43"/>
<polygon fill="#191970" stroke="#191970" points="74.1331,-128.607 65.0589,-123.1379 68.742,-133.072 74.1331,-128.607"/>
</g>
<!-- Node76 -->
<g id="node3" class="node">
<title>Node76</title>
<g id="a_node3"><a xlink:href="classVorbisDecoder.html#a605d498b0a32990607910576964da546" target="_top" xlink:title="VorbisDecoder::ReadSamples">
<polygon fill="#ffffff" stroke="#000000" points="145.5,-164.5 145.5,-183.5 304.5,-183.5 304.5,-164.5 145.5,-164.5"/>
<text text-anchor="middle" x="225" y="-171.5" font-family="Helvetica,sans-Serif" font-size="10.00" fill="#000000">VorbisDecoder::ReadSamples</text>
</a>
</g>
</g>
<!-- Node74&#45;&gt;Node76 -->
<g id="edge2" class="edge">
<title>Node74&#45;&gt;Node76</title>
<path fill="none" stroke="#191970" d="M86.8612,-128.1321C103.3042,-137.3688 123.7046,-147.8334 143,-155 153.0002,-158.7142 163.9649,-161.8551 174.5309,-164.4477"/>
<polygon fill="#191970" stroke="#191970" points="88.5831,-125.085 78.1654,-123.1557 85.1062,-131.1605 88.5831,-125.085"/>
</g>
<!-- Node77 -->
<g id="node4" class="node">
<title>Node77</title>
<g id="a_node4"><a xlink:href="classBlockWriteManager.html#a0b50330873c237f482c48aa06a4b1a9a" target="_top" xlink:title="BlockWriteManager::\lManage">
<polygon fill="#ffffff" stroke="#000000" points="166.5,-115 166.5,-145 283.5,-145 283.5,-115 166.5,-115"/>
<text text-anchor="start" x="174.5" y="-133" font-family="Helvetica,sans-Serif" font-size="10.00" fill="#000000">BlockWriteManager::</text>
<text text-anchor="middle" x="225" y="-122" font-family="Helvetica,sans-Serif" font-size="10.00" fill="#000000">Manage</text>
</a>
</g>
</g>
<!-- Node74&#45;&gt;Node77 -->
<g id="edge3" class="edge">
<title>Node74&#45;&gt;Node77</title>
<path fill="none" stroke="#191970" d="M117.6126,-116.2244C133.5897,-118.2739 150.639,-120.461 166.3383,-122.4749"/>
<polygon fill="#191970" stroke="#191970" points="117.6572,-112.7015 107.2931,-114.9006 116.7665,-119.6446 117.6572,-112.7015"/>
</g>
<!-- Node78 -->
<g id="node5" class="node">
<title>Node78</title>
<g id="a_node5"><a xlink:href="classLoopManager.html#a306ffe72c9623e33cad280ec3609c359" target="_top" xlink:title="LoopManager::SetupSaveLoop">
<polygon fill="#ffffff" stroke="#000000" points="143.5,-76.5 143.5,-95.5 306.5,-95.5 306.5,-76.5 143.5,-76.5"/>
<text text-anchor="middle" x="225" y="-83.5" font-family="Helvetica,sans-Serif" font-size="10.00" fill="#000000">LoopManager::SetupSaveLoop</text>
</a>
</g>
</g>
<!-- Node74&#45;&gt;Node78 -->
<g id="edge4" class="edge">
<title>Node74&#45;&gt;Node78</title>
<path fill="none" stroke="#191970" d="M117.4859,-99.7919C128.3008,-98.4046 139.6102,-96.9538 150.6621,-95.5361"/>
<polygon fill="#191970" stroke="#191970" points="116.7665,-96.3554 107.2931,-101.0994 117.6572,-103.2985 116.7665,-96.3554"/>
</g>
<!-- Node80 -->
<g id="node7" class="node">
<title>Node80</title>
<g id="a_node7"><a xlink:href="classRecordProcessor.html#ad36d69ec9d41b424eb2e6c5fa2e0cf3a" target="_top" xlink:title="RecordProcessor::process">
<polygon fill="#ffffff" stroke="#000000" points="155,-38.5 155,-57.5 295,-57.5 295,-38.5 155,-38.5"/>
<text text-anchor="middle" x="225" y="-45.5" font-family="Helvetica,sans-Serif" font-size="10.00" fill="#000000">RecordProcessor::process</text>
</a>
</g>
</g>
<!-- Node74&#45;&gt;Node80 -->
<g id="edge6" class="edge">
<title>Node74&#45;&gt;Node80</title>
<path fill="none" stroke="#191970" d="M91.6488,-88.4626C107.2754,-81.007 125.7191,-72.8927 143,-67 153.6501,-63.3684 165.3119,-60.2025 176.4134,-57.5507"/>
<polygon fill="#191970" stroke="#191970" points="89.7848,-85.4769 82.3185,-92.994 92.8429,-91.7736 89.7848,-85.4769"/>
</g>
<!-- Node81 -->
<g id="node8" class="node">
<title>Node81</title>
<g id="a_node8"><a xlink:href="classPlayProcessor.html#a46bc1b738f48261e0c430f7345f4d99f" target="_top" xlink:title="PlayProcessor::process">
<polygon fill="#ffffff" stroke="#000000" points="161,-.5 161,-19.5 289,-19.5 289,-.5 161,-.5"/>
<text text-anchor="middle" x="225" y="-7.5" font-family="Helvetica,sans-Serif" font-size="10.00" fill="#000000">PlayProcessor::process</text>
</a>
</g>
</g>
<!-- Node74&#45;&gt;Node81 -->
<g id="edge7" class="edge">
<title>Node74&#45;&gt;Node81</title>
<path fill="none" stroke="#191970" d="M73.4828,-84.9685C90.2763,-67.0612 115.8346,-42.985 143,-29 150.5357,-25.1205 158.8659,-22.0237 167.2438,-19.5539"/>
<polygon fill="#191970" stroke="#191970" points="70.5749,-82.962 66.4093,-92.7036 75.7406,-87.6859 70.5749,-82.962"/>
</g>
<!-- Node79 -->
<g id="node6" class="node">
<title>Node79</title>
<g id="a_node6"><a xlink:href="classLoopManager.html#a00143be12c150c0a89c4f99c1e8d5e70" target="_top" xlink:title="LoopManager::GetWriteBlock">
<polygon fill="#ffffff" stroke="#000000" points="343,-76.5 343,-95.5 501,-95.5 501,-76.5 343,-76.5"/>
<text text-anchor="middle" x="422" y="-83.5" font-family="Helvetica,sans-Serif" font-size="10.00" fill="#000000">LoopManager::GetWriteBlock</text>
</a>
</g>
</g>
<!-- Node78&#45;&gt;Node79 -->
<g id="edge5" class="edge">
<title>Node78&#45;&gt;Node79</title>
<path fill="none" stroke="#191970" d="M316.707,-86C325.4014,-86 334.1667,-86 342.7302,-86"/>
<polygon fill="#191970" stroke="#191970" points="316.5495,-82.5001 306.5495,-86 316.5494,-89.5001 316.5495,-82.5001"/>
</g>
</g>
</svg>
