<?xml version="1.0" encoding="UTF-8" standalone="no"?>
<!DOCTYPE svg PUBLIC "-//W3C//DTD SVG 1.1//EN"
 "http://www.w3.org/Graphics/SVG/1.1/DTD/svg11.dtd">
<!-- Generated by graphviz version 2.40.1 (20161225.0304)
 -->
<!-- Title: SRMWRingBuffer::WriteElement Pages: 1 -->
<svg width="1427pt" height="503pt"
 viewBox="0.00 0.00 1427.00 503.00" xmlns="http://www.w3.org/2000/svg" xmlns:xlink="http://www.w3.org/1999/xlink">
<g id="graph0" class="graph" transform="scale(1 1) rotate(0) translate(4 499)">
<title>SRMWRingBuffer::WriteElement</title>
<polygon fill="#ffffff" stroke="transparent" points="-4,4 -4,-499 1423,-499 1423,4 -4,4"/>
<!-- Node16 -->
<g id="node1" class="node">
<title>Node16</title>
<polygon fill="#bfbfbf" stroke="#000000" points="0,-337.5 0,-356.5 170,-356.5 170,-337.5 0,-337.5"/>
<text text-anchor="middle" x="85" y="-344.5" font-family="Helvetica,sans-Serif" font-size="10.00" fill="#000000">SRMWRingBuffer::WriteElement</text>
</g>
<!-- Node17 -->
<g id="node2" class="node">
<title>Node17</title>
<g id="a_node2"><a xlink:href="classRootProcessor.html#adc75260f6db8566d3e3eaaea2d5a6323" target="_top" xlink:title="RootProcessor::AddChild">
<polygon fill="#ffffff" stroke="#000000" points="223,-408.5 223,-427.5 358,-427.5 358,-408.5 223,-408.5"/>
<text text-anchor="middle" x="290.5" y="-415.5" font-family="Helvetica,sans-Serif" font-size="10.00" fill="#000000">RootProcessor::AddChild</text>
</a>
</g>
</g>
<!-- Node16&#45;&gt;Node17 -->
<g id="edge1" class="edge">
<title>Node16&#45;&gt;Node17</title>
<path fill="none" stroke="#191970" d="M122.2352,-359.8647C162.7629,-373.867 226.6188,-395.9291 262.897,-408.4632"/>
<polygon fill="#191970" stroke="#191970" points="123.3094,-356.5329 112.7146,-356.5754 121.0234,-363.1491 123.3094,-356.5329"/>
</g>
<!-- Node23 -->
<g id="node8" class="node">
<title>Node23</title>
<g id="a_node8"><a xlink:href="classRootProcessor.html#ae6ad61c89d499509728d7720ee71df68" target="_top" xlink:title="RootProcessor::processchain">
<polygon fill="#ffffff" stroke="#000000" points="213,-351.5 213,-370.5 368,-370.5 368,-351.5 213,-351.5"/>
<text text-anchor="middle" x="290.5" y="-358.5" font-family="Helvetica,sans-Serif" font-size="10.00" fill="#000000">RootProcessor::processchain</text>
</a>
</g>
</g>
<!-- Node16&#45;&gt;Node23 -->
<g id="edge9" class="edge">
<title>Node16&#45;&gt;Node23</title>
<path fill="none" stroke="#191970" d="M180.0673,-353.4766C191.0067,-354.2219 202.0628,-354.9751 212.736,-355.7022"/>
<polygon fill="#191970" stroke="#191970" points="180.2829,-349.9833 170.0681,-352.7954 179.8071,-356.9671 180.2829,-349.9833"/>
</g>
<!-- Node25 -->
<g id="node10" class="node">
<title>Node25</title>
<g id="a_node10"><a xlink:href="classEventManager.html#ac7c4b4ceee333a360274d73d166b8c69" target="_top" xlink:title="EventManager::BroadcastEvent">
<polygon fill="#ffffff" stroke="#000000" points="206,-299.5 206,-318.5 375,-318.5 375,-299.5 206,-299.5"/>
<text text-anchor="middle" x="290.5" y="-306.5" font-family="Helvetica,sans-Serif" font-size="10.00" fill="#000000">EventManager::BroadcastEvent</text>
</a>
</g>
</g>
<!-- Node16&#45;&gt;Node25 -->
<g id="edge11" class="edge">
<title>Node16&#45;&gt;Node25</title>
<path fill="none" stroke="#191970" d="M146.748,-335.5819C176.1514,-330.1448 210.9134,-323.7168 238.8877,-318.5439"/>
<polygon fill="#191970" stroke="#191970" points="145.7879,-332.2 136.5911,-337.46 147.0608,-339.0833 145.7879,-332.2"/>
</g>
<!-- Node32 -->
<g id="node17" class="node">
<title>Node32</title>
<g id="a_node17"><a xlink:href="classMemoryManager.html#a3971e97751f5eccd04086eb2e6fb6f43" target="_top" xlink:title="MemoryManager::WakeUp">
<polygon fill="#ffffff" stroke="#000000" points="218,-152.5 218,-171.5 363,-171.5 363,-152.5 218,-152.5"/>
<text text-anchor="middle" x="290.5" y="-159.5" font-family="Helvetica,sans-Serif" font-size="10.00" fill="#000000">MemoryManager::WakeUp</text>
</a>
</g>
</g>
<!-- Node16&#45;&gt;Node32 -->
<g id="edge19" class="edge">
<title>Node16&#45;&gt;Node32</title>
<path fill="none" stroke="#191970" d="M103.2903,-330.5343C145.119,-292.8783 246.7016,-201.4292 279.8473,-171.59"/>
<polygon fill="#191970" stroke="#191970" points="100.8496,-328.0222 95.7592,-337.3141 105.533,-333.2246 100.8496,-328.0222"/>
</g>
<!-- Node18 -->
<g id="node3" class="node">
<title>Node18</title>
<g id="a_node3"><a xlink:href="classLoopManager.html#a705436ae811a121ed3285ab34b144bfe" target="_top" xlink:title="LoopManager::CreatePulse">
<polygon fill="#ffffff" stroke="#000000" points="427.5,-475.5 427.5,-494.5 573.5,-494.5 573.5,-475.5 427.5,-475.5"/>
<text text-anchor="middle" x="500.5" y="-482.5" font-family="Helvetica,sans-Serif" font-size="10.00" fill="#000000">LoopManager::CreatePulse</text>
</a>
</g>
</g>
<!-- Node17&#45;&gt;Node18 -->
<g id="edge2" class="edge">
<title>Node17&#45;&gt;Node18</title>
<path fill="none" stroke="#191970" d="M325.0585,-431.1697C349.0136,-440.0917 381.7403,-451.8727 411,-461 427.5859,-466.1738 446.1065,-471.2537 461.9775,-475.3981"/>
<polygon fill="#191970" stroke="#191970" points="326.2809,-427.8902 315.6886,-427.6592 323.825,-434.4452 326.2809,-427.8902"/>
</g>
<!-- Node19 -->
<g id="node4" class="node">
<title>Node19</title>
<g id="a_node4"><a xlink:href="classLoopManager.html#a67c6f44d33880b35c875a8e6ea8babac" target="_top" xlink:title="LoopManager::TapPulse">
<polygon fill="#ffffff" stroke="#000000" points="652.5,-437.5 652.5,-456.5 783.5,-456.5 783.5,-437.5 652.5,-437.5"/>
<text text-anchor="middle" x="718" y="-444.5" font-family="Helvetica,sans-Serif" font-size="10.00" fill="#000000">LoopManager::TapPulse</text>
</a>
</g>
</g>
<!-- Node17&#45;&gt;Node19 -->
<g id="edge3" class="edge">
<title>Node17&#45;&gt;Node19</title>
<path fill="none" stroke="#191970" d="M368.2764,-424.6955C382.4857,-425.8502 397.1847,-426.9994 411,-428 494.2204,-434.0277 590.2198,-439.7754 652.3968,-443.3394"/>
<polygon fill="#191970" stroke="#191970" points="368.2887,-421.1849 358.036,-423.8559 367.7165,-428.1615 368.2887,-421.1849"/>
</g>
<!-- Node21 -->
<g id="node6" class="node">
<title>Node21</title>
<g id="a_node6"><a xlink:href="classLoopManager.html#add3b21cda3c0eddecabf19d24c610cdc" target="_top" xlink:title="LoopManager::Activate">
<polygon fill="#ffffff" stroke="#000000" points="436.5,-399.5 436.5,-418.5 564.5,-418.5 564.5,-399.5 436.5,-399.5"/>
<text text-anchor="middle" x="500.5" y="-406.5" font-family="Helvetica,sans-Serif" font-size="10.00" fill="#000000">LoopManager::Activate</text>
</a>
</g>
</g>
<!-- Node17&#45;&gt;Node21 -->
<g id="edge5" class="edge">
<title>Node17&#45;&gt;Node21</title>
<path fill="none" stroke="#191970" d="M368.2428,-414.6682C390.6224,-413.709 414.7769,-412.6738 436.2425,-411.7539"/>
<polygon fill="#191970" stroke="#191970" points="367.9422,-411.1777 358.1013,-415.1028 368.242,-418.1713 367.9422,-411.1777"/>
</g>
<!-- Node20 -->
<g id="node5" class="node">
<title>Node20</title>
<g id="a_node5"><a xlink:href="classLoopManager.html#a4aada2d07b7ce0a67a8119ece4805966" target="_top" xlink:title="LoopManager::ReceiveEvent">
<polygon fill="#ffffff" stroke="#000000" points="851,-399.5 851,-418.5 1005,-418.5 1005,-399.5 851,-399.5"/>
<text text-anchor="middle" x="928" y="-406.5" font-family="Helvetica,sans-Serif" font-size="10.00" fill="#000000">LoopManager::ReceiveEvent</text>
</a>
</g>
</g>
<!-- Node19&#45;&gt;Node20 -->
<g id="edge4" class="edge">
<title>Node19&#45;&gt;Node20</title>
<path fill="none" stroke="#191970" d="M780.7068,-435.653C810.837,-430.2009 846.5458,-423.7393 875.2575,-418.5439"/>
<polygon fill="#191970" stroke="#191970" points="779.9378,-432.2353 770.7208,-437.46 781.1842,-439.1234 779.9378,-432.2353"/>
</g>
<!-- Node21&#45;&gt;Node20 -->
<g id="edge8" class="edge">
<title>Node21&#45;&gt;Node20</title>
<path fill="none" stroke="#191970" d="M574.6417,-409C651.9293,-409 772.5019,-409 850.8798,-409"/>
<polygon fill="#191970" stroke="#191970" points="574.5011,-405.5001 564.5011,-409 574.501,-412.5001 574.5011,-405.5001"/>
</g>
<!-- Node22 -->
<g id="node7" class="node">
<title>Node22</title>
<g id="a_node7"><a xlink:href="classFweelin.html#a4654015e2bc7cc94f3bfc421899a60d3" target="_top" xlink:title="Fweelin::TriggerSnapshot">
<polygon fill="#ffffff" stroke="#000000" points="649,-361.5 649,-380.5 787,-380.5 787,-361.5 649,-361.5"/>
<text text-anchor="middle" x="718" y="-368.5" font-family="Helvetica,sans-Serif" font-size="10.00" fill="#000000">Fweelin::TriggerSnapshot</text>
</a>
</g>
</g>
<!-- Node21&#45;&gt;Node22 -->
<g id="edge6" class="edge">
<title>Node21&#45;&gt;Node22</title>
<path fill="none" stroke="#191970" d="M565.0397,-397.7241C596.3309,-392.2571 633.5074,-385.7619 663.3738,-380.5439"/>
<polygon fill="#191970" stroke="#191970" points="564.3521,-394.2911 555.1037,-399.46 565.5569,-401.1867 564.3521,-394.2911"/>
</g>
<!-- Node22&#45;&gt;Node20 -->
<g id="edge7" class="edge">
<title>Node22&#45;&gt;Node20</title>
<path fill="none" stroke="#191970" d="M780.7068,-382.347C810.837,-387.7991 846.5458,-394.2607 875.2575,-399.4561"/>
<polygon fill="#191970" stroke="#191970" points="781.1842,-378.8766 770.7208,-380.54 779.9378,-385.7647 781.1842,-378.8766"/>
</g>
<!-- Node24 -->
<g id="node9" class="node">
<title>Node24</title>
<g id="a_node9"><a xlink:href="classRootProcessor.html#a014d1405fbd7d67ee4edeb19713ded04" target="_top" xlink:title="RootProcessor::process">
<polygon fill="#ffffff" stroke="#000000" points="653.5,-323.5 653.5,-342.5 782.5,-342.5 782.5,-323.5 653.5,-323.5"/>
<text text-anchor="middle" x="718" y="-330.5" font-family="Helvetica,sans-Serif" font-size="10.00" fill="#000000">RootProcessor::process</text>
</a>
</g>
</g>
<!-- Node23&#45;&gt;Node24 -->
<g id="edge10" class="edge">
<title>Node23&#45;&gt;Node24</title>
<path fill="none" stroke="#191970" d="M378.3734,-361.0673C438.1467,-360.449 518.9763,-358.3165 590,-352 614.2795,-349.8407 640.971,-346.0988 663.6686,-342.5036"/>
<polygon fill="#191970" stroke="#191970" points="378.1845,-357.5687 368.2169,-361.1599 378.2484,-364.5684 378.1845,-357.5687"/>
</g>
<!-- Node26 -->
<g id="node11" class="node">
<title>Node26</title>
<g id="a_node11"><a xlink:href="classLoopTray.html#ad51e58a17792f36a249b1543a96a02a6" target="_top" xlink:title="LoopTray::MouseButton">
<polygon fill="#ffffff" stroke="#000000" points="436,-323.5 436,-342.5 565,-342.5 565,-323.5 436,-323.5"/>
<text text-anchor="middle" x="500.5" y="-330.5" font-family="Helvetica,sans-Serif" font-size="10.00" fill="#000000">LoopTray::MouseButton</text>
</a>
</g>
</g>
<!-- Node25&#45;&gt;Node26 -->
<g id="edge12" class="edge">
<title>Node25&#45;&gt;Node26</title>
<path fill="none" stroke="#191970" d="M384.0237,-319.6884C401.4985,-321.6855 419.4025,-323.7317 435.7683,-325.6021"/>
<polygon fill="#191970" stroke="#191970" points="384.1319,-316.1781 373.7992,-318.5199 383.3371,-323.1328 384.1319,-316.1781"/>
</g>
<!-- Node27 -->
<g id="node12" class="node">
<title>Node27</title>
<g id="a_node12"><a xlink:href="classRootProcessor.html#acb13a2a0320ef6b5a57ede966e468842" target="_top" xlink:title="RootProcessor::UpdateProcessors">
<polygon fill="#ffffff" stroke="#000000" points="411,-285.5 411,-304.5 590,-304.5 590,-285.5 411,-285.5"/>
<text text-anchor="middle" x="500.5" y="-292.5" font-family="Helvetica,sans-Serif" font-size="10.00" fill="#000000">RootProcessor::UpdateProcessors</text>
</a>
</g>
</g>
<!-- Node25&#45;&gt;Node27 -->
<g id="edge13" class="edge">
<title>Node25&#45;&gt;Node27</title>
<path fill="none" stroke="#191970" d="M385.2615,-302.6826C393.7166,-302.1189 402.2612,-301.5493 410.6731,-300.9885"/>
<polygon fill="#191970" stroke="#191970" points="384.7523,-299.2087 375.0073,-303.3662 385.218,-306.1931 384.7523,-299.2087"/>
</g>
<!-- Node28 -->
<g id="node13" class="node">
<title>Node28</title>
<g id="a_node13"><a xlink:href="classRecordProcessor.html#a9984f573bbc265321ad0604f97b23820" target="_top" xlink:title="RecordProcessor::EndNow">
<polygon fill="#ffffff" stroke="#000000" points="646.5,-275.5 646.5,-294.5 789.5,-294.5 789.5,-275.5 646.5,-275.5"/>
<text text-anchor="middle" x="718" y="-282.5" font-family="Helvetica,sans-Serif" font-size="10.00" fill="#000000">RecordProcessor::EndNow</text>
</a>
</g>
</g>
<!-- Node25&#45;&gt;Node28 -->
<g id="edge15" class="edge">
<title>Node25&#45;&gt;Node28</title>
<path fill="none" stroke="#191970" d="M326.9564,-296.277C350.588,-288.7166 382.2209,-279.8695 411,-276 491.0617,-265.2354 583.8815,-270.3637 646.3195,-276.3442"/>
<polygon fill="#191970" stroke="#191970" points="325.7659,-292.9839 317.3501,-299.4201 327.9427,-299.6368 325.7659,-292.9839"/>
</g>
<!-- Node27&#45;&gt;Node24 -->
<g id="edge14" class="edge">
<title>Node27&#45;&gt;Node24</title>
<path fill="none" stroke="#191970" d="M565.0397,-306.2759C596.3309,-311.7429 633.5074,-318.2381 663.3738,-323.4561"/>
<polygon fill="#191970" stroke="#191970" points="565.5569,-302.8133 555.1037,-304.54 564.3521,-309.7089 565.5569,-302.8133"/>
</g>
<!-- Node29 -->
<g id="node14" class="node">
<title>Node29</title>
<g id="a_node14"><a xlink:href="classRecordProcessor.html#a6168d8dc850602a348dc74ab1224263a" target="_top" xlink:title="RecordProcessor::PulseSync">
<polygon fill="#ffffff" stroke="#000000" points="1061.5,-161.5 1061.5,-180.5 1213.5,-180.5 1213.5,-161.5 1061.5,-161.5"/>
<text text-anchor="middle" x="1137.5" y="-168.5" font-family="Helvetica,sans-Serif" font-size="10.00" fill="#000000">RecordProcessor::PulseSync</text>
</a>
</g>
</g>
<!-- Node28&#45;&gt;Node29 -->
<g id="edge16" class="edge">
<title>Node28&#45;&gt;Node29</title>
<path fill="none" stroke="#191970" d="M763.1311,-297.4511C778.241,-302.0862 795.0408,-307.7547 810,-314 826.6951,-320.97 828.439,-328.6502 846,-333 916.7508,-350.5248 944.4311,-364.8357 1010,-333 1078.2568,-299.8593 1120.9016,-210.5097 1133.5444,-180.7748"/>
<polygon fill="#191970" stroke="#191970" points="764.0661,-294.0776 753.4822,-294.5588 762.0561,-300.7828 764.0661,-294.0776"/>
</g>
<!-- Node30 -->
<g id="node15" class="node">
<title>Node30</title>
<g id="a_node15"><a xlink:href="classRecordProcessor.html#ab035edfb707f8f1066b3597df7ddda7d" target="_top" xlink:title="RecordProcessor::End">
<polygon fill="#ffffff" stroke="#000000" points="867.5,-304.5 867.5,-323.5 988.5,-323.5 988.5,-304.5 867.5,-304.5"/>
<text text-anchor="middle" x="928" y="-311.5" font-family="Helvetica,sans-Serif" font-size="10.00" fill="#000000">RecordProcessor::End</text>
</a>
</g>
</g>
<!-- Node28&#45;&gt;Node30 -->
<g id="edge17" class="edge">
<title>Node28&#45;&gt;Node30</title>
<path fill="none" stroke="#191970" d="M797.2346,-295.9419C820.4712,-299.1508 845.5022,-302.6074 867.3821,-305.629"/>
<polygon fill="#191970" stroke="#191970" points="797.4375,-292.4368 787.0527,-294.5359 796.4799,-299.371 797.4375,-292.4368"/>
</g>
<!-- Node31 -->
<g id="node16" class="node">
<title>Node31</title>
<g id="a_node16"><a xlink:href="classRecordProcessor.html#ad36d69ec9d41b424eb2e6c5fa2e0cf3a" target="_top" xlink:title="RecordProcessor::process">
<polygon fill="#ffffff" stroke="#000000" points="858,-266.5 858,-285.5 998,-285.5 998,-266.5 858,-266.5"/>
<text text-anchor="middle" x="928" y="-273.5" font-family="Helvetica,sans-Serif" font-size="10.00" fill="#000000">RecordProcessor::process</text>
</a>
</g>
</g>
<!-- Node28&#45;&gt;Node31 -->
<g id="edge18" class="edge">
<title>Node28&#45;&gt;Node31</title>
<path fill="none" stroke="#191970" d="M799.8646,-281.4915C818.9713,-280.6727 839.1536,-279.8077 857.7069,-279.0126"/>
<polygon fill="#191970" stroke="#191970" points="799.5237,-278.0028 789.6827,-281.9279 799.8235,-284.9964 799.5237,-278.0028"/>
</g>
<!-- Node33 -->
<g id="node18" class="node">
<title>Node33</title>
<g id="a_node18"><a xlink:href="classPreallocatedType.html#ae8a5326530dd0f38ecbb094f7818bd42" target="_top" xlink:title="PreallocatedType::RTNew">
<polygon fill="#ffffff" stroke="#000000" points="430.5,-152.5 430.5,-171.5 570.5,-171.5 570.5,-152.5 430.5,-152.5"/>
<text text-anchor="middle" x="500.5" y="-159.5" font-family="Helvetica,sans-Serif" font-size="10.00" fill="#000000">PreallocatedType::RTNew</text>
</a>
</g>
</g>
<!-- Node32&#45;&gt;Node33 -->
<g id="edge20" class="edge">
<title>Node32&#45;&gt;Node33</title>
<path fill="none" stroke="#191970" d="M373.1628,-162C392.1037,-162 412.0614,-162 430.4134,-162"/>
<polygon fill="#191970" stroke="#191970" points="373.0642,-158.5001 363.0641,-162 373.0641,-165.5001 373.0642,-158.5001"/>
</g>
<!-- Node45 -->
<g id="node30" class="node">
<title>Node45</title>
<g id="a_node30"><a xlink:href="classPreallocatedType.html#afe3e5f83fa9c611ec4b94d6870979f27" target="_top" xlink:title="PreallocatedType::RTDelete">
<polygon fill="#ffffff" stroke="#000000" points="425.5,-114.5 425.5,-133.5 575.5,-133.5 575.5,-114.5 425.5,-114.5"/>
<text text-anchor="middle" x="500.5" y="-121.5" font-family="Helvetica,sans-Serif" font-size="10.00" fill="#000000">PreallocatedType::RTDelete</text>
</a>
</g>
</g>
<!-- Node32&#45;&gt;Node45 -->
<g id="edge36" class="edge">
<title>Node32&#45;&gt;Node45</title>
<path fill="none" stroke="#191970" d="M353.2068,-150.653C383.337,-145.2009 419.0458,-138.7393 447.7575,-133.5439"/>
<polygon fill="#191970" stroke="#191970" points="352.4378,-147.2353 343.2208,-152.46 353.6842,-154.1234 352.4378,-147.2353"/>
</g>
<!-- Node34 -->
<g id="node19" class="node">
<title>Node34</title>
<g id="a_node19"><a xlink:href="classAudioBlockIterator.html#a5cc11c9589308f5da0fea19c701c84b3" target="_top" xlink:title="AudioBlockIterator\l::PutFragment">
<polygon fill="#ffffff" stroke="#000000" points="664.5,-185 664.5,-215 771.5,-215 771.5,-185 664.5,-185"/>
<text text-anchor="start" x="672.5" y="-203" font-family="Helvetica,sans-Serif" font-size="10.00" fill="#000000">AudioBlockIterator</text>
<text text-anchor="middle" x="718" y="-192" font-family="Helvetica,sans-Serif" font-size="10.00" fill="#000000">::PutFragment</text>
</a>
</g>
</g>
<!-- Node33&#45;&gt;Node34 -->
<g id="edge21" class="edge">
<title>Node33&#45;&gt;Node34</title>
<path fill="none" stroke="#191970" d="M565.1169,-173.2894C596.6559,-178.7996 634.1589,-185.3519 664.1274,-190.5878"/>
<polygon fill="#191970" stroke="#191970" points="565.5569,-169.8133 555.1037,-171.54 564.3521,-176.7089 565.5569,-169.8133"/>
</g>
<!-- Node38 -->
<g id="node23" class="node">
<title>Node38</title>
<g id="a_node23"><a xlink:href="classRecordProcessor.html#aa20c0f68a5ee5e4739759b3783b6e4d1" target="_top" xlink:title="RecordProcessor::RecordProcessor">
<polygon fill="#ffffff" stroke="#000000" points="1046,-104.5 1046,-123.5 1229,-123.5 1229,-104.5 1046,-104.5"/>
<text text-anchor="middle" x="1137.5" y="-111.5" font-family="Helvetica,sans-Serif" font-size="10.00" fill="#000000">RecordProcessor::RecordProcessor</text>
</a>
</g>
</g>
<!-- Node33&#45;&gt;Node38 -->
<g id="edge27" class="edge">
<title>Node33&#45;&gt;Node38</title>
<path fill="none" stroke="#191970" d="M580.9113,-155.9408C699.6296,-146.9949 921.1815,-130.3003 1045.9726,-120.8969"/>
<polygon fill="#191970" stroke="#191970" points="580.5066,-152.4612 570.7979,-156.7028 581.0326,-159.4414 580.5066,-152.4612"/>
</g>
<!-- Node39 -->
<g id="node24" class="node">
<title>Node39</title>
<g id="a_node24"><a xlink:href="classPreallocatedType.html#a232eab10b1d49ee50f435d175c4ceda5" target="_top" xlink:title="PreallocatedType::RTNewWithWait">
<polygon fill="#ffffff" stroke="#000000" points="626,-57.5 626,-76.5 810,-76.5 810,-57.5 626,-57.5"/>
<text text-anchor="middle" x="718" y="-64.5" font-family="Helvetica,sans-Serif" font-size="10.00" fill="#000000">PreallocatedType::RTNewWithWait</text>
</a>
</g>
</g>
<!-- Node33&#45;&gt;Node39 -->
<g id="edge28" class="edge">
<title>Node33&#45;&gt;Node39</title>
<path fill="none" stroke="#191970" d="M575.6378,-149.2116C580.6045,-147.4074 585.4391,-145.3488 590,-143 609.2966,-133.0625 607.9593,-122.0684 626,-110 646.9554,-95.9818 673.2062,-84.2074 692.2978,-76.5441"/>
<polygon fill="#191970" stroke="#191970" points="574.3773,-145.9413 565.9611,-152.377 576.5537,-152.5944 574.3773,-145.9413"/>
</g>
<!-- Node34&#45;&gt;Node31 -->
<g id="edge26" class="edge">
<title>Node34&#45;&gt;Node31</title>
<path fill="none" stroke="#191970" d="M756.5038,-219.4698C781.5235,-231.5355 815.1164,-246.6516 846,-257 856.8078,-260.6214 868.642,-263.7999 879.8738,-266.4692"/>
<polygon fill="#191970" stroke="#191970" points="757.8805,-216.2472 747.358,-215.0112 754.813,-222.5394 757.8805,-216.2472"/>
</g>
<!-- Node35 -->
<g id="node20" class="node">
<title>Node35</title>
<g id="a_node20"><a xlink:href="classSndFileDecoder.html#a6f533159127e8f633a12c6fe3f86b4a2" target="_top" xlink:title="SndFileDecoder::ReadSamples">
<polygon fill="#ffffff" stroke="#000000" points="846,-228.5 846,-247.5 1010,-247.5 1010,-228.5 846,-228.5"/>
<text text-anchor="middle" x="928" y="-235.5" font-family="Helvetica,sans-Serif" font-size="10.00" fill="#000000">SndFileDecoder::ReadSamples</text>
</a>
</g>
</g>
<!-- Node34&#45;&gt;Node35 -->
<g id="edge22" class="edge">
<title>Node34&#45;&gt;Node35</title>
<path fill="none" stroke="#191970" d="M781.4777,-211.4864C811.4559,-216.9111 846.8169,-223.3097 875.2898,-228.462"/>
<polygon fill="#191970" stroke="#191970" points="781.9987,-208.0239 771.5352,-209.6873 780.7522,-214.9121 781.9987,-208.0239"/>
</g>
<!-- Node36 -->
<g id="node21" class="node">
<title>Node36</title>
<g id="a_node21"><a xlink:href="classVorbisDecoder.html#a605d498b0a32990607910576964da546" target="_top" xlink:title="VorbisDecoder::ReadSamples">
<polygon fill="#ffffff" stroke="#000000" points="848.5,-190.5 848.5,-209.5 1007.5,-209.5 1007.5,-190.5 848.5,-190.5"/>
<text text-anchor="middle" x="928" y="-197.5" font-family="Helvetica,sans-Serif" font-size="10.00" fill="#000000">VorbisDecoder::ReadSamples</text>
</a>
</g>
</g>
<!-- Node34&#45;&gt;Node36 -->
<g id="edge23" class="edge">
<title>Node34&#45;&gt;Node36</title>
<path fill="none" stroke="#191970" d="M781.627,-200C802.6531,-200 826.314,-200 848.3834,-200"/>
<polygon fill="#191970" stroke="#191970" points="781.5353,-196.5001 771.5352,-200 781.5352,-203.5001 781.5353,-196.5001"/>
</g>
<!-- Node37 -->
<g id="node22" class="node">
<title>Node37</title>
<g id="a_node22"><a xlink:href="classRecordProcessor.html#a8fbde2e8b6f9e9dafb89ef0b06e6a11a" target="_top" xlink:title="RecordProcessor::Jump">
<polygon fill="#ffffff" stroke="#000000" points="864,-152.5 864,-171.5 992,-171.5 992,-152.5 864,-152.5"/>
<text text-anchor="middle" x="928" y="-159.5" font-family="Helvetica,sans-Serif" font-size="10.00" fill="#000000">RecordProcessor::Jump</text>
</a>
</g>
</g>
<!-- Node34&#45;&gt;Node37 -->
<g id="edge24" class="edge">
<title>Node34&#45;&gt;Node37</title>
<path fill="none" stroke="#191970" d="M781.4777,-188.5136C811.4559,-183.0889 846.8169,-176.6903 875.2898,-171.538"/>
<polygon fill="#191970" stroke="#191970" points="780.7522,-185.0879 771.5352,-190.3127 781.9987,-191.9761 780.7522,-185.0879"/>
</g>
<!-- Node37&#45;&gt;Node29 -->
<g id="edge25" class="edge">
<title>Node37&#45;&gt;Node29</title>
<path fill="none" stroke="#191970" d="M1002.4059,-165.1964C1021.4799,-166.0158 1042.023,-166.8984 1061.1914,-167.7218"/>
<polygon fill="#191970" stroke="#191970" points="1002.4217,-161.694 992.2807,-164.7615 1002.1212,-168.6875 1002.4217,-161.694"/>
</g>
<!-- Node40 -->
<g id="node25" class="node">
<title>Node40</title>
<g id="a_node25"><a xlink:href="classBlockReadManager.html#af12804c61f944904eedf8c9edf5cd3bd" target="_top" xlink:title="BlockReadManager::Start">
<polygon fill="#ffffff" stroke="#000000" points="1068,-38.5 1068,-57.5 1207,-57.5 1207,-38.5 1068,-38.5"/>
<text text-anchor="middle" x="1137.5" y="-45.5" font-family="Helvetica,sans-Serif" font-size="10.00" fill="#000000">BlockReadManager::Start</text>
</a>
</g>
</g>
<!-- Node39&#45;&gt;Node40 -->
<g id="edge29" class="edge">
<title>Node39&#45;&gt;Node40</title>
<path fill="none" stroke="#191970" d="M820.2428,-62.3692C897.0598,-58.89 1000.2423,-54.2167 1067.7756,-51.158"/>
<polygon fill="#191970" stroke="#191970" points="819.8924,-58.8814 810.0611,-62.8304 820.2092,-65.8742 819.8924,-58.8814"/>
</g>
<!-- Node42 -->
<g id="node27" class="node">
<title>Node42</title>
<g id="a_node27"><a xlink:href="classBlockManager.html#ac12004ae7d335e81c7cbd463cd614b34" target="_top" xlink:title="BlockManager::GrowChainOn">
<polygon fill="#ffffff" stroke="#000000" points="849,-76.5 849,-95.5 1007,-95.5 1007,-76.5 849,-76.5"/>
<text text-anchor="middle" x="928" y="-83.5" font-family="Helvetica,sans-Serif" font-size="10.00" fill="#000000">BlockManager::GrowChainOn</text>
</a>
</g>
</g>
<!-- Node39&#45;&gt;Node42 -->
<g id="edge31" class="edge">
<title>Node39&#45;&gt;Node42</title>
<path fill="none" stroke="#191970" d="M820.1205,-76.2395C829.7518,-77.1109 839.4154,-77.9852 848.7869,-78.8331"/>
<polygon fill="#191970" stroke="#191970" points="820.3838,-72.7491 810.1091,-75.3337 819.753,-79.7206 820.3838,-72.7491"/>
</g>
<!-- Node43 -->
<g id="node28" class="node">
<title>Node43</title>
<g id="a_node28"><a xlink:href="classBlockManager.html#af050835c736257358a3f572f8422ff1d" target="_top" xlink:title="BlockManager::PeakAvgOn">
<polygon fill="#ffffff" stroke="#000000" points="854.5,-.5 854.5,-19.5 1001.5,-19.5 1001.5,-.5 854.5,-.5"/>
<text text-anchor="middle" x="928" y="-7.5" font-family="Helvetica,sans-Serif" font-size="10.00" fill="#000000">BlockManager::PeakAvgOn</text>
</a>
</g>
</g>
<!-- Node39&#45;&gt;Node43 -->
<g id="edge33" class="edge">
<title>Node39&#45;&gt;Node43</title>
<path fill="none" stroke="#191970" d="M763.1327,-54.7497C801.9317,-44.2185 857.1092,-29.2418 892.736,-19.5716"/>
<polygon fill="#191970" stroke="#191970" points="761.8832,-51.4621 753.1493,-57.4595 763.7169,-58.2177 761.8832,-51.4621"/>
</g>
<!-- Node41 -->
<g id="node26" class="node">
<title>Node41</title>
<g id="a_node26"><a xlink:href="classBlockReadManager.html#aa990976dec4a3ec5bd6384b54ce5f09b" target="_top" xlink:title="BlockReadManager::Manage">
<polygon fill="#ffffff" stroke="#000000" points="1265,-38.5 1265,-57.5 1419,-57.5 1419,-38.5 1265,-38.5"/>
<text text-anchor="middle" x="1342" y="-45.5" font-family="Helvetica,sans-Serif" font-size="10.00" fill="#000000">BlockReadManager::Manage</text>
</a>
</g>
</g>
<!-- Node40&#45;&gt;Node41 -->
<g id="edge30" class="edge">
<title>Node40&#45;&gt;Node41</title>
<path fill="none" stroke="#191970" d="M1217.2097,-48C1232.9047,-48 1249.3454,-48 1264.9508,-48"/>
<polygon fill="#191970" stroke="#191970" points="1217.0198,-44.5001 1207.0197,-48 1217.0197,-51.5001 1217.0198,-44.5001"/>
</g>
<!-- Node42&#45;&gt;Node38 -->
<g id="edge32" class="edge">
<title>Node42&#45;&gt;Node38</title>
<path fill="none" stroke="#191970" d="M1009.2193,-96.8551C1027.9848,-99.3631 1047.8127,-102.0132 1066.1217,-104.4602"/>
<polygon fill="#191970" stroke="#191970" points="1009.595,-93.3743 999.2195,-95.5186 1008.6677,-100.3126 1009.595,-93.3743"/>
</g>
<!-- Node43&#45;&gt;Node40 -->
<g id="edge34" class="edge">
<title>Node43&#45;&gt;Node40</title>
<path fill="none" stroke="#191970" d="M990.5575,-21.347C1020.616,-26.7991 1056.2397,-33.2607 1084.8831,-38.4561"/>
<polygon fill="#191970" stroke="#191970" points="991.0594,-17.8809 980.5953,-19.54 989.8101,-24.7686 991.0594,-17.8809"/>
</g>
<!-- Node44 -->
<g id="node29" class="node">
<title>Node44</title>
<g id="a_node29"><a xlink:href="classRecordProcessor.html#a1aea5f833c59a12398b05b514b26b572" target="_top" xlink:title="RecordProcessor::RecordProcessor">
<polygon fill="#ffffff" stroke="#000000" points="1046,-.5 1046,-19.5 1229,-19.5 1229,-.5 1046,-.5"/>
<text text-anchor="middle" x="1137.5" y="-7.5" font-family="Helvetica,sans-Serif" font-size="10.00" fill="#000000">RecordProcessor::RecordProcessor</text>
</a>
</g>
</g>
<!-- Node43&#45;&gt;Node44 -->
<g id="edge35" class="edge">
<title>Node43&#45;&gt;Node44</title>
<path fill="none" stroke="#191970" d="M1011.7226,-10C1022.8993,-10 1034.4092,-10 1045.7144,-10"/>
<polygon fill="#191970" stroke="#191970" points="1011.5673,-6.5001 1001.5673,-10 1011.5672,-13.5001 1011.5673,-6.5001"/>
</g>
</g>
</svg>
