<?xml version="1.0" encoding="UTF-8" standalone="no"?>
<!DOCTYPE svg PUBLIC "-//W3C//DTD SVG 1.1//EN"
 "http://www.w3.org/Graphics/SVG/1.1/DTD/svg11.dtd">
<!-- Generated by graphviz version 2.40.1 (20161225.0304)
 -->
<!-- Title: AudioIO::AudioIO Pages: 1 -->
<svg width="674pt" height="598pt"
 viewBox="0.00 0.00 674.00 598.00" xmlns="http://www.w3.org/2000/svg" xmlns:xlink="http://www.w3.org/1999/xlink">
<g id="graph0" class="graph" transform="scale(1 1) rotate(0) translate(4 594)">
<title>AudioIO::AudioIO</title>
<polygon fill="#ffffff" stroke="transparent" points="-4,4 -4,-594 670,-594 670,4 -4,4"/>
<!-- Node0 -->
<g id="node1" class="node">
<title>Node0</title>
<polygon fill="#bfbfbf" stroke="#000000" points="0,-192.5 0,-211.5 99,-211.5 99,-192.5 0,-192.5"/>
<text text-anchor="middle" x="49.5" y="-199.5" font-family="Helvetica,sans-Serif" font-size="10.00" fill="#000000">AudioIO::AudioIO</text>
</g>
<!-- Node1 -->
<g id="node2" class="node">
<title>Node1</title>
<g id="a_node2"><a xlink:href="classAudioIO.html#a1e4157d1900df901a60d5a2260d7509c" target="_top" xlink:title="AudioIO::open">
<polygon fill="#ffffff" stroke="#000000" points="144,-268.5 144,-287.5 229,-287.5 229,-268.5 144,-268.5"/>
<text text-anchor="middle" x="186.5" y="-275.5" font-family="Helvetica,sans-Serif" font-size="10.00" fill="#000000">AudioIO::open</text>
</a>
</g>
</g>
<!-- Node0&#45;&gt;Node1 -->
<g id="edge1" class="edge">
<title>Node0&#45;&gt;Node1</title>
<path fill="none" stroke="#191970" d="M66.8511,-211.6255C90.4243,-224.7025 132.7738,-248.1957 160.2475,-263.4366"/>
<polygon fill="#191970" stroke="#191970" points="158.8473,-266.6623 169.2897,-268.4527 162.243,-260.541 158.8473,-266.6623"/>
</g>
<!-- Node2 -->
<g id="node3" class="node">
<title>Node2</title>
<g id="a_node3"><a xlink:href="classAudioIO.html#aa131b2f89b09eeb058f56676833bf2df" target="_top" xlink:title="AudioIO::process">
<polygon fill="#ffffff" stroke="#000000" points="309,-418.5 309,-437.5 407,-437.5 407,-418.5 309,-418.5"/>
<text text-anchor="middle" x="358" y="-425.5" font-family="Helvetica,sans-Serif" font-size="10.00" fill="#000000">AudioIO::process</text>
</a>
</g>
</g>
<!-- Node0&#45;&gt;Node2 -->
<g id="edge30" class="edge">
<title>Node0&#45;&gt;Node2</title>
<path fill="none" stroke="#191970" d="M53.4232,-211.5296C63.5519,-235.0646 92.7728,-296.593 135,-332 186.4124,-375.1087 260.1059,-401.724 308.4952,-415.69"/>
<polygon fill="#191970" stroke="#191970" points="307.8457,-419.143 318.4197,-418.4796 309.7399,-412.4042 307.8457,-419.143"/>
</g>
<!-- Node10 -->
<g id="node11" class="node">
<title>Node10</title>
<g id="a_node11"><a xlink:href="classAudioIO.html#abcf8dccefe322a27606e2b78078232af" target="_top" xlink:title="AudioIO::srate_callback">
<polygon fill="#ffffff" stroke="#000000" points="292.5,-354.5 292.5,-373.5 423.5,-373.5 423.5,-354.5 292.5,-354.5"/>
<text text-anchor="middle" x="358" y="-361.5" font-family="Helvetica,sans-Serif" font-size="10.00" fill="#000000">AudioIO::srate_callback</text>
</a>
</g>
</g>
<!-- Node0&#45;&gt;Node10 -->
<g id="edge32" class="edge">
<title>Node0&#45;&gt;Node10</title>
<path fill="none" stroke="#191970" d="M55.525,-211.6656C67.9751,-230.8404 98.4539,-273.8359 135,-297 180.4883,-325.8319 239.0256,-342.8003 284.7109,-352.4446"/>
<polygon fill="#191970" stroke="#191970" points="284.0519,-355.8822 294.5496,-354.4511 285.4507,-349.0234 284.0519,-355.8822"/>
</g>
<!-- Node11 -->
<g id="node12" class="node">
<title>Node11</title>
<g id="a_node12"><a xlink:href="classAudioIO.html#abc9956c9b03e8d4d128520f918806917" target="_top" xlink:title="AudioIO::audio_shutdown">
<polygon fill="#ffffff" stroke="#000000" points="288,-202.5 288,-221.5 428,-221.5 428,-202.5 288,-202.5"/>
<text text-anchor="middle" x="358" y="-209.5" font-family="Helvetica,sans-Serif" font-size="10.00" fill="#000000">AudioIO::audio_shutdown</text>
</a>
</g>
</g>
<!-- Node0&#45;&gt;Node11 -->
<g id="edge33" class="edge">
<title>Node0&#45;&gt;Node11</title>
<path fill="none" stroke="#191970" d="M99.0659,-203.6067C147.169,-205.1659 220.9897,-207.5588 277.5199,-209.3912"/>
<polygon fill="#191970" stroke="#191970" points="277.7558,-212.9006 287.864,-209.7265 277.9826,-205.9043 277.7558,-212.9006"/>
</g>
<!-- Node12 -->
<g id="node13" class="node">
<title>Node12</title>
<g id="a_node13"><a xlink:href="classAudioIO.html#ab0eea49d0c149eba8716d8402a9caa73" target="_top" xlink:title="AudioIO::timebase_callback">
<polygon fill="#ffffff" stroke="#000000" points="282,-152.5 282,-171.5 434,-171.5 434,-152.5 282,-152.5"/>
<text text-anchor="middle" x="358" y="-159.5" font-family="Helvetica,sans-Serif" font-size="10.00" fill="#000000">AudioIO::timebase_callback</text>
</a>
</g>
</g>
<!-- Node0&#45;&gt;Node12 -->
<g id="edge31" class="edge">
<title>Node0&#45;&gt;Node12</title>
<path fill="none" stroke="#191970" d="M99.0659,-195.5733C146.3851,-189.4379 218.5905,-180.0758 274.7425,-172.7951"/>
<polygon fill="#191970" stroke="#191970" points="275.2075,-176.2642 284.6744,-171.5074 274.3073,-169.3223 275.2075,-176.2642"/>
</g>
<!-- Node24 -->
<g id="node25" class="node">
<title>Node24</title>
<g id="a_node25"><a xlink:href="classAudioIO.html#ae7028461c6455577c1dc73722ff231ad" target="_top" xlink:title="AudioIO::activate">
<polygon fill="#ffffff" stroke="#000000" points="136,-135.5 136,-154.5 237,-154.5 237,-135.5 136,-135.5"/>
<text text-anchor="middle" x="186.5" y="-142.5" font-family="Helvetica,sans-Serif" font-size="10.00" fill="#000000">AudioIO::activate</text>
</a>
</g>
</g>
<!-- Node0&#45;&gt;Node24 -->
<g id="edge26" class="edge">
<title>Node0&#45;&gt;Node24</title>
<path fill="none" stroke="#191970" d="M72.4307,-192.4595C94.7565,-183.1706 128.9018,-168.9642 154.0184,-158.5143"/>
<polygon fill="#191970" stroke="#191970" points="155.6062,-161.6445 163.4945,-154.5716 152.9172,-155.1816 155.6062,-161.6445"/>
</g>
<!-- Node26 -->
<g id="node27" class="node">
<title>Node26</title>
<g id="a_node27"><a xlink:href="classAudioIO.html#a3ff15c18911a37f7d456838920b7d40d" target="_top" xlink:title="AudioIO::close">
<polygon fill="#ffffff" stroke="#000000" points="143.5,-97.5 143.5,-116.5 229.5,-116.5 229.5,-97.5 143.5,-97.5"/>
<text text-anchor="middle" x="186.5" y="-104.5" font-family="Helvetica,sans-Serif" font-size="10.00" fill="#000000">AudioIO::close</text>
</a>
</g>
</g>
<!-- Node0&#45;&gt;Node26 -->
<g id="edge28" class="edge">
<title>Node0&#45;&gt;Node26</title>
<path fill="none" stroke="#191970" d="M58.0754,-192.3208C72.5385,-176.507 103.3169,-144.9935 135,-126 138.3525,-123.9902 141.9528,-122.1367 145.6353,-120.441"/>
<polygon fill="#191970" stroke="#191970" points="147.0084,-123.6605 154.8644,-116.5518 144.29,-117.2099 147.0084,-123.6605"/>
</g>
<!-- Node27 -->
<g id="node28" class="node">
<title>Node27</title>
<g id="a_node28"><a xlink:href="classAudioIO.html#a1bef309084b0324f171b957b1caed224" target="_top" xlink:title="AudioIO::getbufsz">
<polygon fill="#ffffff" stroke="#000000" points="135,-59.5 135,-78.5 238,-78.5 238,-59.5 135,-59.5"/>
<text text-anchor="middle" x="186.5" y="-66.5" font-family="Helvetica,sans-Serif" font-size="10.00" fill="#000000">AudioIO::getbufsz</text>
</a>
</g>
</g>
<!-- Node0&#45;&gt;Node27 -->
<g id="edge29" class="edge">
<title>Node0&#45;&gt;Node27</title>
<path fill="none" stroke="#191970" d="M54.2883,-192.2653C65.4566,-170.514 95.3238,-117.5633 135,-88 137.48,-86.1521 140.1589,-84.4673 142.9464,-82.9341"/>
<polygon fill="#191970" stroke="#191970" points="144.6063,-86.0198 152.1085,-78.5386 141.5785,-79.7085 144.6063,-86.0198"/>
</g>
<!-- Node1&#45;&gt;Node2 -->
<g id="edge2" class="edge">
<title>Node1&#45;&gt;Node2</title>
<path fill="none" stroke="#191970" d="M192.7258,-287.757C205.8112,-307.676 237.9512,-353.6135 274,-383 289.436,-395.5832 308.9281,-406.2824 325.2489,-414.0872"/>
<polygon fill="#191970" stroke="#191970" points="323.892,-417.3158 334.4372,-418.3404 326.8326,-410.9634 323.892,-417.3158"/>
</g>
<!-- Node7 -->
<g id="node8" class="node">
<title>Node7</title>
<g id="a_node8"><a xlink:href="classFweelin.html#a8a0d86de153c3778719cdd96fa2f7e5a" target="_top" xlink:title="Fweelin::getABUFS">
<polygon fill="#ffffff" stroke="#000000" points="518,-342.5 518,-361.5 626,-361.5 626,-342.5 518,-342.5"/>
<text text-anchor="middle" x="572" y="-349.5" font-family="Helvetica,sans-Serif" font-size="10.00" fill="#000000">Fweelin::getABUFS</text>
</a>
</g>
</g>
<!-- Node1&#45;&gt;Node7 -->
<g id="edge19" class="edge">
<title>Node1&#45;&gt;Node7</title>
<path fill="none" stroke="#191970" d="M211.4435,-287.5272C228.7734,-293.8333 252.5219,-301.8587 274,-307 353.4891,-326.0278 446.9295,-338.5896 507.697,-345.4917"/>
<polygon fill="#191970" stroke="#191970" points="507.5794,-349.0002 517.9064,-346.6329 508.3571,-342.0435 507.5794,-349.0002"/>
</g>
<!-- Node1&#45;&gt;Node10 -->
<g id="edge10" class="edge">
<title>Node1&#45;&gt;Node10</title>
<path fill="none" stroke="#191970" d="M197.3314,-287.5402C213.1459,-301.0151 243.9537,-325.5831 274,-340 283.4299,-344.5247 293.8748,-348.3532 304.1036,-351.5323"/>
<polygon fill="#191970" stroke="#191970" points="303.2231,-354.9215 313.8042,-354.3829 305.1966,-348.2055 303.2231,-354.9215"/>
</g>
<!-- Node1&#45;&gt;Node11 -->
<g id="edge11" class="edge">
<title>Node1&#45;&gt;Node11</title>
<path fill="none" stroke="#191970" d="M201.398,-268.3733C218.3559,-257.8086 247.187,-241.0216 274,-231 280.8364,-228.4448 288.1197,-226.1733 295.431,-224.1701"/>
<polygon fill="#191970" stroke="#191970" points="296.5703,-227.4908 305.3788,-221.6034 294.8214,-220.7128 296.5703,-227.4908"/>
</g>
<!-- Node1&#45;&gt;Node12 -->
<g id="edge12" class="edge">
<title>Node1&#45;&gt;Node12</title>
<path fill="none" stroke="#191970" d="M194.1601,-268.2412C208.2467,-250.8819 239.9546,-214.4504 274,-193 285.7381,-185.6044 299.5014,-179.5976 312.4511,-174.9101"/>
<polygon fill="#191970" stroke="#191970" points="313.8262,-178.1386 322.1482,-171.5816 311.5535,-171.5178 313.8262,-178.1386"/>
</g>
<!-- Node19 -->
<g id="node20" class="node">
<title>Node19</title>
<g id="a_node20"><a xlink:href="classAudioBuffers.html#ac3ab00f9fd05d68fc10fb5e6dca83fa2" target="_top" xlink:title="AudioBuffers::IsStereoInput">
<polygon fill="#ffffff" stroke="#000000" points="283.5,-240.5 283.5,-259.5 432.5,-259.5 432.5,-240.5 283.5,-240.5"/>
<text text-anchor="middle" x="358" y="-247.5" font-family="Helvetica,sans-Serif" font-size="10.00" fill="#000000">AudioBuffers::IsStereoInput</text>
</a>
</g>
</g>
<!-- Node1&#45;&gt;Node19 -->
<g id="edge20" class="edge">
<title>Node1&#45;&gt;Node19</title>
<path fill="none" stroke="#191970" d="M229.3343,-271.0066C247.4973,-268.0413 269.1213,-264.5108 289.4092,-261.1985"/>
<polygon fill="#191970" stroke="#191970" points="290.2492,-264.6078 299.5546,-259.5421 289.1212,-257.6992 290.2492,-264.6078"/>
</g>
<!-- Node22 -->
<g id="node23" class="node">
<title>Node22</title>
<g id="a_node23"><a xlink:href="classAudioBuffers.html#a00b2ced8d7c01b0a4ea90b70ec1a0cf5" target="_top" xlink:title="AudioBuffers::IsStereoOutput">
<polygon fill="#ffffff" stroke="#000000" points="279,-278.5 279,-297.5 437,-297.5 437,-278.5 279,-278.5"/>
<text text-anchor="middle" x="358" y="-285.5" font-family="Helvetica,sans-Serif" font-size="10.00" fill="#000000">AudioBuffers::IsStereoOutput</text>
</a>
</g>
</g>
<!-- Node1&#45;&gt;Node22 -->
<g id="edge23" class="edge">
<title>Node1&#45;&gt;Node22</title>
<path fill="none" stroke="#191970" d="M229.3343,-280.4976C241.4693,-281.2052 255.1492,-282.0029 268.9435,-282.8072"/>
<polygon fill="#191970" stroke="#191970" points="268.8007,-286.3047 278.9875,-283.3929 269.2083,-279.3166 268.8007,-286.3047"/>
</g>
<!-- Node3 -->
<g id="node4" class="node">
<title>Node3</title>
<g id="a_node4"><a xlink:href="classFweelin.html#a21e51d7b639faaecc415624ab6c16a71" target="_top" xlink:title="Fweelin::getEMG">
<polygon fill="#ffffff" stroke="#000000" points="523,-570.5 523,-589.5 621,-589.5 621,-570.5 523,-570.5"/>
<text text-anchor="middle" x="572" y="-577.5" font-family="Helvetica,sans-Serif" font-size="10.00" fill="#000000">Fweelin::getEMG</text>
</a>
</g>
</g>
<!-- Node2&#45;&gt;Node3 -->
<g id="edge3" class="edge">
<title>Node2&#45;&gt;Node3</title>
<path fill="none" stroke="#191970" d="M363.5752,-437.608C378.556,-462.4864 422.3422,-529.2736 478,-561 488.5094,-566.9906 500.6251,-571.1113 512.5887,-573.9408"/>
<polygon fill="#191970" stroke="#191970" points="512.0592,-577.4057 522.5639,-576.0267 513.492,-570.5539 512.0592,-577.4057"/>
</g>
<!-- Node4 -->
<g id="node5" class="node">
<title>Node4</title>
<g id="a_node5"><a xlink:href="classEventManager.html#a529567a1f3b56ecbc97aceec5ee0b46e" target="_top" xlink:title="EventManager::WakeupIfNeeded">
<polygon fill="#ffffff" stroke="#000000" points="484,-532.5 484,-551.5 660,-551.5 660,-532.5 484,-532.5"/>
<text text-anchor="middle" x="572" y="-539.5" font-family="Helvetica,sans-Serif" font-size="10.00" fill="#000000">EventManager::WakeupIfNeeded</text>
</a>
</g>
</g>
<!-- Node2&#45;&gt;Node4 -->
<g id="edge4" class="edge">
<title>Node2&#45;&gt;Node4</title>
<path fill="none" stroke="#191970" d="M366.9005,-437.5961C385.5144,-457.0352 430.7598,-501.0746 478,-523 483.3211,-525.4697 488.9582,-527.6195 494.7234,-529.4906"/>
<polygon fill="#191970" stroke="#191970" points="493.9318,-532.9062 504.5137,-532.3839 495.9156,-526.1932 493.9318,-532.9062"/>
</g>
<!-- Node5 -->
<g id="node6" class="node">
<title>Node5</title>
<g id="a_node6"><a xlink:href="classFweelin.html#a2fd02f86f34253432dd13776434f16db" target="_top" xlink:title="Fweelin::getMMG">
<polygon fill="#ffffff" stroke="#000000" points="522,-494.5 522,-513.5 622,-513.5 622,-494.5 522,-494.5"/>
<text text-anchor="middle" x="572" y="-501.5" font-family="Helvetica,sans-Serif" font-size="10.00" fill="#000000">Fweelin::getMMG</text>
</a>
</g>
</g>
<!-- Node2&#45;&gt;Node5 -->
<g id="edge5" class="edge">
<title>Node2&#45;&gt;Node5</title>
<path fill="none" stroke="#191970" d="M374.9369,-437.6783C397.6904,-450.2943 439.7051,-472.2481 478,-485 488.7516,-488.5802 500.4307,-491.5997 511.7841,-494.1036"/>
<polygon fill="#191970" stroke="#191970" points="511.1404,-497.5447 521.646,-496.1724 512.5776,-490.6938 511.1404,-497.5447"/>
</g>
<!-- Node6 -->
<g id="node7" class="node">
<title>Node6</title>
<g id="a_node7"><a xlink:href="classMemoryManager.html#ab15be510a88e9eab04db2d6554d7e947" target="_top" xlink:title="MemoryManager::WakeupIfNeeded">
<polygon fill="#ffffff" stroke="#000000" points="478,-456.5 478,-475.5 666,-475.5 666,-456.5 478,-456.5"/>
<text text-anchor="middle" x="572" y="-463.5" font-family="Helvetica,sans-Serif" font-size="10.00" fill="#000000">MemoryManager::WakeupIfNeeded</text>
</a>
</g>
</g>
<!-- Node2&#45;&gt;Node6 -->
<g id="edge6" class="edge">
<title>Node2&#45;&gt;Node6</title>
<path fill="none" stroke="#191970" d="M407.0959,-436.718C437.0485,-442.0367 475.6641,-448.8936 507.9966,-454.6349"/>
<polygon fill="#191970" stroke="#191970" points="507.7966,-458.1541 518.2545,-456.4564 509.0205,-451.2619 507.7966,-458.1541"/>
</g>
<!-- Node2&#45;&gt;Node7 -->
<g id="edge7" class="edge">
<title>Node2&#45;&gt;Node7</title>
<path fill="none" stroke="#191970" d="M374.9369,-418.3217C397.6904,-405.7057 439.7051,-383.7519 478,-371 487.478,-367.8439 497.6768,-365.1235 507.7378,-362.808"/>
<polygon fill="#191970" stroke="#191970" points="508.699,-366.1806 517.7211,-360.6262 507.2044,-359.342 508.699,-366.1806"/>
</g>
<!-- Node8 -->
<g id="node9" class="node">
<title>Node8</title>
<g id="a_node9"><a xlink:href="classFweelin.html#a538440216608aed67e6940c2903c3072" target="_top" xlink:title="Fweelin::getBUFSZ">
<polygon fill="#ffffff" stroke="#000000" points="518,-418.5 518,-437.5 626,-437.5 626,-418.5 518,-418.5"/>
<text text-anchor="middle" x="572" y="-425.5" font-family="Helvetica,sans-Serif" font-size="10.00" fill="#000000">Fweelin::getBUFSZ</text>
</a>
</g>
</g>
<!-- Node2&#45;&gt;Node8 -->
<g id="edge8" class="edge">
<title>Node2&#45;&gt;Node8</title>
<path fill="none" stroke="#191970" d="M407.0959,-428C436.9372,-428 475.3771,-428 507.6358,-428"/>
<polygon fill="#191970" stroke="#191970" points="507.8735,-431.5001 517.8735,-428 507.8734,-424.5001 507.8735,-431.5001"/>
</g>
<!-- Node9 -->
<g id="node10" class="node">
<title>Node9</title>
<g id="a_node10"><a xlink:href="classProcessor.html#a2a6ea9cec150529a6b61898634540254" target="_top" xlink:title="Processor::process">
<polygon fill="#ffffff" stroke="#000000" points="518.5,-380.5 518.5,-399.5 625.5,-399.5 625.5,-380.5 518.5,-380.5"/>
<text text-anchor="middle" x="572" y="-387.5" font-family="Helvetica,sans-Serif" font-size="10.00" fill="#000000">Processor::process</text>
</a>
</g>
</g>
<!-- Node2&#45;&gt;Node9 -->
<g id="edge9" class="edge">
<title>Node2&#45;&gt;Node9</title>
<path fill="none" stroke="#191970" d="M407.0959,-419.282C437.0485,-413.9633 475.6641,-407.1064 507.9966,-401.3651"/>
<polygon fill="#191970" stroke="#191970" points="509.0205,-404.7381 518.2545,-399.5436 507.7966,-397.8459 509.0205,-404.7381"/>
</g>
<!-- Node13 -->
<g id="node14" class="node">
<title>Node13</title>
<g id="a_node14"><a xlink:href="classFweelin.html#a7b1253ea49ee57244a0d8cca152d72e5" target="_top" xlink:title="Fweelin::getLOOPMGR">
<polygon fill="#ffffff" stroke="#000000" points="509.5,-76.5 509.5,-95.5 634.5,-95.5 634.5,-76.5 509.5,-76.5"/>
<text text-anchor="middle" x="572" y="-83.5" font-family="Helvetica,sans-Serif" font-size="10.00" fill="#000000">Fweelin::getLOOPMGR</text>
</a>
</g>
</g>
<!-- Node12&#45;&gt;Node13 -->
<g id="edge13" class="edge">
<title>Node12&#45;&gt;Node13</title>
<path fill="none" stroke="#191970" d="M417.0076,-152.4558C425.7009,-149.7838 434.3087,-146.3672 442,-142 461.9518,-130.671 457.8568,-115.9851 478,-105 484.7833,-101.3007 492.1961,-98.3183 499.7875,-95.9143"/>
<polygon fill="#191970" stroke="#191970" points="500.7999,-99.2653 509.4646,-93.1683 498.889,-92.5312 500.7999,-99.2653"/>
</g>
<!-- Node14 -->
<g id="node15" class="node">
<title>Node14</title>
<g id="a_node15"><a xlink:href="classLoopManager.html#a28c81cf1fb5fdf13a633e33d06975a0d" target="_top" xlink:title="LoopManager::GetCurPulse">
<polygon fill="#ffffff" stroke="#000000" points="498,-38.5 498,-57.5 646,-57.5 646,-38.5 498,-38.5"/>
<text text-anchor="middle" x="572" y="-45.5" font-family="Helvetica,sans-Serif" font-size="10.00" fill="#000000">LoopManager::GetCurPulse</text>
</a>
</g>
</g>
<!-- Node12&#45;&gt;Node14 -->
<g id="edge14" class="edge">
<title>Node12&#45;&gt;Node14</title>
<path fill="none" stroke="#191970" d="M424.0006,-152.4424C430.4802,-149.7465 436.6315,-146.3281 442,-142 470.785,-118.7936 448.8213,-89.7093 478,-67 481.2334,-64.4835 484.7139,-62.2752 488.3639,-60.3391"/>
<polygon fill="#191970" stroke="#191970" points="490.093,-63.3976 497.7423,-56.0669 487.1911,-57.0274 490.093,-63.3976"/>
</g>
<!-- Node15 -->
<g id="node16" class="node">
<title>Node15</title>
<g id="a_node16"><a xlink:href="classPulse.html#a677b6d7a3863a655360ee7c613aefde7" target="_top" xlink:title="Pulse::GetPos">
<polygon fill="#ffffff" stroke="#000000" points="530.5,-.5 530.5,-19.5 613.5,-19.5 613.5,-.5 530.5,-.5"/>
<text text-anchor="middle" x="572" y="-7.5" font-family="Helvetica,sans-Serif" font-size="10.00" fill="#000000">Pulse::GetPos</text>
</a>
</g>
</g>
<!-- Node12&#45;&gt;Node15 -->
<g id="edge15" class="edge">
<title>Node12&#45;&gt;Node15</title>
<path fill="none" stroke="#191970" d="M426.2838,-152.4167C432.023,-149.6986 437.3848,-146.2828 442,-142 480.6364,-106.1461 438.7544,-64.1859 478,-29 489.4824,-18.7054 504.9614,-13.373 520.0418,-10.7596"/>
<polygon fill="#191970" stroke="#191970" points="520.9265,-14.1717 530.3643,-9.3572 519.9841,-7.2354 520.9265,-14.1717"/>
</g>
<!-- Node16 -->
<g id="node17" class="node">
<title>Node16</title>
<g id="a_node17"><a xlink:href="classPulse.html#ae4c83e1199ea7a74791c9d0fe80a54f5" target="_top" xlink:title="Pulse::GetLength">
<polygon fill="#ffffff" stroke="#000000" points="522.5,-190.5 522.5,-209.5 621.5,-209.5 621.5,-190.5 522.5,-190.5"/>
<text text-anchor="middle" x="572" y="-197.5" font-family="Helvetica,sans-Serif" font-size="10.00" fill="#000000">Pulse::GetLength</text>
</a>
</g>
</g>
<!-- Node12&#45;&gt;Node16 -->
<g id="edge16" class="edge">
<title>Node12&#45;&gt;Node16</title>
<path fill="none" stroke="#191970" d="M411.725,-171.54C442.3362,-176.9756 480.7575,-183.7981 512.3079,-189.4005"/>
<polygon fill="#191970" stroke="#191970" points="511.8335,-192.8709 522.2915,-191.1733 513.0575,-185.9787 511.8335,-192.8709"/>
</g>
<!-- Node17 -->
<g id="node18" class="node">
<title>Node17</title>
<g id="a_node18"><a xlink:href="classFweelin.html#af5750c2388bfe7d280182c3a8c3cab13" target="_top" xlink:title="Fweelin::GetSyncSpeed">
<polygon fill="#ffffff" stroke="#000000" points="506.5,-152.5 506.5,-171.5 637.5,-171.5 637.5,-152.5 506.5,-152.5"/>
<text text-anchor="middle" x="572" y="-159.5" font-family="Helvetica,sans-Serif" font-size="10.00" fill="#000000">Fweelin::GetSyncSpeed</text>
</a>
</g>
</g>
<!-- Node12&#45;&gt;Node17 -->
<g id="edge17" class="edge">
<title>Node12&#45;&gt;Node17</title>
<path fill="none" stroke="#191970" d="M434.0509,-162C454.2972,-162 476.1609,-162 496.3838,-162"/>
<polygon fill="#191970" stroke="#191970" points="496.4776,-165.5001 506.4776,-162 496.4775,-158.5001 496.4776,-165.5001"/>
</g>
<!-- Node18 -->
<g id="node19" class="node">
<title>Node18</title>
<g id="a_node19"><a xlink:href="classFweelin.html#acd22ca1ad294b86d1d180de907418d27" target="_top" xlink:title="Fweelin::GetSyncType">
<polygon fill="#ffffff" stroke="#000000" points="510.5,-114.5 510.5,-133.5 633.5,-133.5 633.5,-114.5 510.5,-114.5"/>
<text text-anchor="middle" x="572" y="-121.5" font-family="Helvetica,sans-Serif" font-size="10.00" fill="#000000">Fweelin::GetSyncType</text>
</a>
</g>
</g>
<!-- Node12&#45;&gt;Node18 -->
<g id="edge18" class="edge">
<title>Node12&#45;&gt;Node18</title>
<path fill="none" stroke="#191970" d="M411.725,-152.46C440.9801,-147.2652 477.3686,-140.8037 508.0756,-135.3511"/>
<polygon fill="#191970" stroke="#191970" points="509.0189,-138.7384 518.2529,-133.5439 507.795,-131.8462 509.0189,-138.7384"/>
</g>
<!-- Node20 -->
<g id="node21" class="node">
<title>Node20</title>
<g id="a_node21"><a xlink:href="classFweelin.html#a681d7ca8d0789199af135f22c26a5409" target="_top" xlink:title="Fweelin::getCFG">
<polygon fill="#ffffff" stroke="#000000" points="524.5,-266.5 524.5,-285.5 619.5,-285.5 619.5,-266.5 524.5,-266.5"/>
<text text-anchor="middle" x="572" y="-273.5" font-family="Helvetica,sans-Serif" font-size="10.00" fill="#000000">Fweelin::getCFG</text>
</a>
</g>
</g>
<!-- Node19&#45;&gt;Node20 -->
<g id="edge21" class="edge">
<title>Node19&#45;&gt;Node20</title>
<path fill="none" stroke="#191970" d="M432.5464,-259.057C459.3691,-262.3159 489.197,-265.9398 514.3606,-268.9971"/>
<polygon fill="#191970" stroke="#191970" points="514.1267,-272.4943 524.4758,-270.226 514.971,-265.5454 514.1267,-272.4943"/>
</g>
<!-- Node21 -->
<g id="node22" class="node">
<title>Node21</title>
<g id="a_node22"><a xlink:href="classFloConfig.html#a0e52ff5b53cc10e2f65463b38eb7efc6" target="_top" xlink:title="FloConfig::IsStereoInput">
<polygon fill="#ffffff" stroke="#000000" points="506,-228.5 506,-247.5 638,-247.5 638,-228.5 506,-228.5"/>
<text text-anchor="middle" x="572" y="-235.5" font-family="Helvetica,sans-Serif" font-size="10.00" fill="#000000">FloConfig::IsStereoInput</text>
</a>
</g>
</g>
<!-- Node19&#45;&gt;Node21 -->
<g id="edge22" class="edge">
<title>Node19&#45;&gt;Node21</title>
<path fill="none" stroke="#191970" d="M432.5464,-245.8198C452.9783,-244.6741 475.154,-243.4306 495.6835,-242.2794"/>
<polygon fill="#191970" stroke="#191970" points="496.1432,-245.7592 505.9315,-241.7048 495.7512,-238.7702 496.1432,-245.7592"/>
</g>
<!-- Node22&#45;&gt;Node20 -->
<g id="edge24" class="edge">
<title>Node22&#45;&gt;Node20</title>
<path fill="none" stroke="#191970" d="M437.0777,-283.5657C462.5917,-282.135 490.3832,-280.5766 514.0764,-279.2481"/>
<polygon fill="#191970" stroke="#191970" points="514.5167,-282.729 524.305,-278.6745 514.1247,-275.7399 514.5167,-282.729"/>
</g>
<!-- Node23 -->
<g id="node24" class="node">
<title>Node23</title>
<g id="a_node24"><a xlink:href="classFloConfig.html#a628790e9a17bd5e68d7461fa0d0733cd" target="_top" xlink:title="FloConfig::IsStereoOutput">
<polygon fill="#ffffff" stroke="#000000" points="502,-304.5 502,-323.5 642,-323.5 642,-304.5 502,-304.5"/>
<text text-anchor="middle" x="572" y="-311.5" font-family="Helvetica,sans-Serif" font-size="10.00" fill="#000000">FloConfig::IsStereoOutput</text>
</a>
</g>
</g>
<!-- Node22&#45;&gt;Node23 -->
<g id="edge25" class="edge">
<title>Node22&#45;&gt;Node23</title>
<path fill="none" stroke="#191970" d="M436.4705,-297.5338C454.4034,-299.7126 473.4896,-302.0314 491.5058,-304.2203"/>
<polygon fill="#191970" stroke="#191970" points="491.3315,-307.7248 501.6806,-305.4565 492.1758,-300.7759 491.3315,-307.7248"/>
</g>
<!-- Node25 -->
<g id="node26" class="node">
<title>Node25</title>
<g id="a_node26"><a xlink:href="classRT__RWThreads.html#af83b41e330638728272af35ff18dfa01" target="_top" xlink:title="RT_RWThreads::RegisterReader\lOrWriter">
<polygon fill="#ffffff" stroke="#000000" points="274,-103 274,-133 442,-133 442,-103 274,-103"/>
<text text-anchor="start" x="282" y="-121" font-family="Helvetica,sans-Serif" font-size="10.00" fill="#000000">RT_RWThreads::RegisterReader</text>
<text text-anchor="middle" x="358" y="-110" font-family="Helvetica,sans-Serif" font-size="10.00" fill="#000000">OrWriter</text>
</a>
</g>
</g>
<!-- Node24&#45;&gt;Node25 -->
<g id="edge27" class="edge">
<title>Node24&#45;&gt;Node25</title>
<path fill="none" stroke="#191970" d="M237.0281,-137.0451C245.5176,-135.7086 254.5646,-134.2843 263.7429,-132.8393"/>
<polygon fill="#191970" stroke="#191970" points="264.3997,-136.2791 273.7337,-131.2664 263.311,-129.3643 264.3997,-136.2791"/>
</g>
</g>
</svg>
