<?xml version="1.0" encoding="UTF-8" standalone="no"?>
<!DOCTYPE svg PUBLIC "-//W3C//DTD SVG 1.1//EN"
 "http://www.w3.org/Graphics/SVG/1.1/DTD/svg11.dtd">
<!-- Generated by graphviz version 2.40.1 (20161225.0304)
 -->
<!-- Title: LoopManager::SaveLoop Pages: 1 -->
<svg width="862pt" height="85pt"
 viewBox="0.00 0.00 862.00 85.00" xmlns="http://www.w3.org/2000/svg" xmlns:xlink="http://www.w3.org/1999/xlink">
<g id="graph0" class="graph" transform="scale(1 1) rotate(0) translate(4 81)">
<title>LoopManager::SaveLoop</title>
<polygon fill="#ffffff" stroke="transparent" points="-4,4 -4,-81 858,-81 858,4 -4,4"/>
<!-- Node948 -->
<g id="node1" class="node">
<title>Node948</title>
<polygon fill="#bfbfbf" stroke="#000000" points="0,-.5 0,-19.5 135,-19.5 135,-.5 0,-.5"/>
<text text-anchor="middle" x="67.5" y="-7.5" font-family="Helvetica,sans-Serif" font-size="10.00" fill="#000000">LoopManager::SaveLoop</text>
</g>
<!-- Node949 -->
<g id="node2" class="node">
<title>Node949</title>
<g id="a_node2"><a xlink:href="classTriggerMap.html#aaa7bec4f62540981d1e5703fe8ed575e" target="_top" xlink:title="TriggerMap::Save">
<polygon fill="#ffffff" stroke="#000000" points="171,-19.5 171,-38.5 271,-38.5 271,-19.5 171,-19.5"/>
<text text-anchor="middle" x="221" y="-26.5" font-family="Helvetica,sans-Serif" font-size="10.00" fill="#000000">TriggerMap::Save</text>
</a>
</g>
</g>
<!-- Node948&#45;&gt;Node949 -->
<g id="edge1" class="edge">
<title>Node948&#45;&gt;Node949</title>
<path fill="none" stroke="#191970" d="M145.3466,-19.6357C153.9416,-20.6996 162.5183,-21.7612 170.6454,-22.7672"/>
<polygon fill="#191970" stroke="#191970" points="145.6284,-16.144 135.2742,-18.389 144.7684,-23.091 145.6284,-16.144"/>
</g>
<!-- Node952 -->
<g id="node5" class="node">
<title>Node952</title>
<g id="a_node5"><a xlink:href="classLoopManager.html#a4aada2d07b7ce0a67a8119ece4805966" target="_top" xlink:title="LoopManager::ReceiveEvent">
<polygon fill="#ffffff" stroke="#000000" points="700,-19.5 700,-38.5 854,-38.5 854,-19.5 700,-19.5"/>
<text text-anchor="middle" x="777" y="-26.5" font-family="Helvetica,sans-Serif" font-size="10.00" fill="#000000">LoopManager::ReceiveEvent</text>
</a>
</g>
</g>
<!-- Node948&#45;&gt;Node952 -->
<g id="edge7" class="edge">
<title>Node948&#45;&gt;Node952</title>
<path fill="none" stroke="#191970" d="M145.3018,-8.5763C226.3898,-7.4265 357.1381,-6.5109 470,-10 548.3279,-12.4215 637.7363,-18.3103 699.7826,-22.8955"/>
<polygon fill="#191970" stroke="#191970" points="145.1228,-5.0785 135.1752,-8.7248 145.2255,-12.0777 145.1228,-5.0785"/>
</g>
<!-- Node950 -->
<g id="node3" class="node">
<title>Node950</title>
<g id="a_node3"><a xlink:href="classLoopManager.html#ac2adaa8b989e1284abf17fc07eb0baf2" target="_top" xlink:title="LoopManager::SaveNewScene">
<polygon fill="#ffffff" stroke="#000000" points="307,-19.5 307,-38.5 470,-38.5 470,-19.5 307,-19.5"/>
<text text-anchor="middle" x="388.5" y="-26.5" font-family="Helvetica,sans-Serif" font-size="10.00" fill="#000000">LoopManager::SaveNewScene</text>
</a>
</g>
</g>
<!-- Node949&#45;&gt;Node950 -->
<g id="edge2" class="edge">
<title>Node949&#45;&gt;Node950</title>
<path fill="none" stroke="#191970" d="M281.5263,-29C289.7945,-29 298.3907,-29 306.9561,-29"/>
<polygon fill="#191970" stroke="#191970" points="281.2556,-25.5001 271.2555,-29 281.2555,-32.5001 281.2556,-25.5001"/>
</g>
<!-- Node951 -->
<g id="node4" class="node">
<title>Node951</title>
<g id="a_node4"><a xlink:href="classLoopManager.html#abd2cda6ecc976fd447167d5de7cc5912" target="_top" xlink:title="LoopManager::SaveCurScene">
<polygon fill="#ffffff" stroke="#000000" points="506,-57.5 506,-76.5 664,-76.5 664,-57.5 506,-57.5"/>
<text text-anchor="middle" x="585" y="-64.5" font-family="Helvetica,sans-Serif" font-size="10.00" fill="#000000">LoopManager::SaveCurScene</text>
</a>
</g>
</g>
<!-- Node949&#45;&gt;Node951 -->
<g id="edge6" class="edge">
<title>Node949&#45;&gt;Node951</title>
<path fill="none" stroke="#191970" d="M268.2431,-40.7649C280.7738,-43.5203 294.3411,-46.1794 307,-48 373.6782,-57.5895 450.0715,-62.3683 505.8824,-64.7327"/>
<polygon fill="#191970" stroke="#191970" points="268.979,-37.343 258.453,-38.5487 267.4335,-44.1703 268.979,-37.343"/>
</g>
<!-- Node950&#45;&gt;Node951 -->
<g id="edge3" class="edge">
<title>Node950&#45;&gt;Node951</title>
<path fill="none" stroke="#191970" d="M447.9123,-40.4894C475.9495,-45.9114 509.0157,-52.3058 535.6481,-57.4561"/>
<polygon fill="#191970" stroke="#191970" points="448.3143,-37.0024 437.8316,-38.54 446.9852,-43.875 448.3143,-37.0024"/>
</g>
<!-- Node950&#45;&gt;Node952 -->
<g id="edge5" class="edge">
<title>Node950&#45;&gt;Node952</title>
<path fill="none" stroke="#191970" d="M480.5213,-29C547.3391,-29 636.7252,-29 699.824,-29"/>
<polygon fill="#191970" stroke="#191970" points="480.4162,-25.5001 470.4161,-29 480.4161,-32.5001 480.4162,-25.5001"/>
</g>
<!-- Node951&#45;&gt;Node952 -->
<g id="edge4" class="edge">
<title>Node951&#45;&gt;Node952</title>
<path fill="none" stroke="#191970" d="M643.298,-55.4619C670.6826,-50.042 702.9334,-43.659 728.8987,-38.5201"/>
<polygon fill="#191970" stroke="#191970" points="642.5799,-52.036 633.4497,-57.411 643.939,-58.9028 642.5799,-52.036"/>
</g>
</g>
</svg>
