<?xml version="1.0" encoding="UTF-8" standalone="no"?>
<!DOCTYPE svg PUBLIC "-//W3C//DTD SVG 1.1//EN"
 "http://www.w3.org/Graphics/SVG/1.1/DTD/svg11.dtd">
<!-- Generated by graphviz version 2.40.1 (20161225.0304)
 -->
<!-- Title: FloFont Pages: 1 -->
<svg width="197pt" height="193pt"
 viewBox="0.00 0.00 196.50 193.00" xmlns="http://www.w3.org/2000/svg" xmlns:xlink="http://www.w3.org/1999/xlink">
<g id="graph0" class="graph" transform="scale(1 1) rotate(0) translate(4 189)">
<title>FloFont</title>
<polygon fill="#ffffff" stroke="transparent" points="-4,4 -4,-189 192.5,-189 192.5,4 -4,4"/>
<!-- Node1 -->
<g id="node1" class="node">
<title>Node1</title>
<polygon fill="#bfbfbf" stroke="#000000" points="57.5,-.5 57.5,-68.5 136.5,-68.5 136.5,-.5 57.5,-.5"/>
<text text-anchor="middle" x="97" y="-56.5" font-family="Helvetica,sans-Serif" font-size="10.00" fill="#000000">FloFont</text>
<polyline fill="none" stroke="#000000" points="57.5,-49.5 136.5,-49.5 "/>
<text text-anchor="middle" x="97" y="-37.5" font-family="Helvetica,sans-Serif" font-size="10.00" fill="#000000"> </text>
<polyline fill="none" stroke="#000000" points="57.5,-30.5 136.5,-30.5 "/>
<text text-anchor="start" x="65.5" y="-18.5" font-family="Helvetica,sans-Serif" font-size="10.00" fill="#000000">+ FloFont()</text>
<text text-anchor="start" x="65.5" y="-7.5" font-family="Helvetica,sans-Serif" font-size="10.00" fill="#000000">+ ~FloFont()</text>
</g>
<!-- Node1&#45;&gt;Node1 -->
<g id="edge3" class="edge">
<title>Node1&#45;&gt;Node1</title>
<path fill="none" stroke="#404040" d="M136.5057,-46.0051C146.7644,-45.2979 154.5,-41.4629 154.5,-34.5 154.5,-30.6922 152.1865,-27.8198 148.412,-25.8829"/>
<polygon fill="none" stroke="#404040" points="148.1676,-25.8237 141.3937,-28.2966 136.5057,-22.9949 143.2796,-20.522 148.1676,-25.8237"/>
<text text-anchor="middle" x="171.5" y="-32" font-family="Helvetica,sans-Serif" font-size="10.00" fill="#000000"> +next</text>
</g>
<!-- Node2 -->
<g id="node2" class="node">
<title>Node2</title>
<polygon fill="#ffffff" stroke="#bfbfbf" points="0,-127.5 0,-184.5 38,-184.5 38,-127.5 0,-127.5"/>
<text text-anchor="middle" x="19" y="-172.5" font-family="Helvetica,sans-Serif" font-size="10.00" fill="#000000">char</text>
<polyline fill="none" stroke="#bfbfbf" points="0,-165.5 38,-165.5 "/>
<text text-anchor="middle" x="19" y="-153.5" font-family="Helvetica,sans-Serif" font-size="10.00" fill="#000000"> </text>
<polyline fill="none" stroke="#bfbfbf" points="0,-146.5 38,-146.5 "/>
<text text-anchor="middle" x="19" y="-134.5" font-family="Helvetica,sans-Serif" font-size="10.00" fill="#000000"> </text>
</g>
<!-- Node2&#45;&gt;Node1 -->
<g id="edge1" class="edge">
<title>Node2&#45;&gt;Node1</title>
<path fill="none" stroke="#404040" d="M23.0771,-127.3063C25.8562,-114.2918 30.4565,-99.1353 38,-87 41.0945,-82.0219 44.8008,-77.2424 48.8282,-72.7339"/>
<polygon fill="none" stroke="#404040" points="49.0779,-72.4777 50.4008,-65.389 57.453,-63.8836 56.1301,-70.9724 49.0779,-72.4777"/>
<text text-anchor="middle" x="65.5" y="-101" font-family="Helvetica,sans-Serif" font-size="10.00" fill="#000000"> +filename</text>
<text text-anchor="middle" x="65.5" y="-90" font-family="Helvetica,sans-Serif" font-size="10.00" fill="#000000">+name</text>
</g>
<!-- Node3 -->
<g id="node3" class="node">
<title>Node3</title>
<polygon fill="#ffffff" stroke="#bfbfbf" points="63,-127.5 63,-184.5 131,-184.5 131,-127.5 63,-127.5"/>
<text text-anchor="middle" x="97" y="-172.5" font-family="Helvetica,sans-Serif" font-size="10.00" fill="#000000">TTF_Font *</text>
<polyline fill="none" stroke="#bfbfbf" points="63,-165.5 131,-165.5 "/>
<text text-anchor="middle" x="97" y="-153.5" font-family="Helvetica,sans-Serif" font-size="10.00" fill="#000000"> </text>
<polyline fill="none" stroke="#bfbfbf" points="63,-146.5 131,-146.5 "/>
<text text-anchor="middle" x="97" y="-134.5" font-family="Helvetica,sans-Serif" font-size="10.00" fill="#000000"> </text>
</g>
<!-- Node3&#45;&gt;Node1 -->
<g id="edge2" class="edge">
<title>Node3&#45;&gt;Node1</title>
<path fill="none" stroke="#404040" d="M97,-127.2062C97,-113.3632 97,-96.4255 97,-80.8327"/>
<polygon fill="none" stroke="#404040" points="97.0001,-80.7007 93,-74.7008 97,-68.7007 101,-74.7007 97.0001,-80.7007"/>
<text text-anchor="middle" x="112.5" y="-95.5" font-family="Helvetica,sans-Serif" font-size="10.00" fill="#000000"> +font</text>
</g>
<!-- Node4 -->
<g id="node4" class="node">
<title>Node4</title>
<polygon fill="#ffffff" stroke="#bfbfbf" points="149.5,-127.5 149.5,-184.5 178.5,-184.5 178.5,-127.5 149.5,-127.5"/>
<text text-anchor="middle" x="164" y="-172.5" font-family="Helvetica,sans-Serif" font-size="10.00" fill="#000000">int</text>
<polyline fill="none" stroke="#bfbfbf" points="149.5,-165.5 178.5,-165.5 "/>
<text text-anchor="middle" x="164" y="-153.5" font-family="Helvetica,sans-Serif" font-size="10.00" fill="#000000"> </text>
<polyline fill="none" stroke="#bfbfbf" points="149.5,-146.5 178.5,-146.5 "/>
<text text-anchor="middle" x="164" y="-134.5" font-family="Helvetica,sans-Serif" font-size="10.00" fill="#000000"> </text>
</g>
<!-- Node4&#45;&gt;Node1 -->
<g id="edge4" class="edge">
<title>Node4&#45;&gt;Node1</title>
<path fill="none" stroke="#404040" d="M151.8825,-127.3091C146.2636,-114.7186 139.2343,-99.8991 132,-87 130.5231,-84.3666 128.9585,-81.6916 127.3422,-79.0147"/>
<polygon fill="none" stroke="#404040" points="127.2929,-78.9358 120.7195,-75.9709 120.9281,-68.7628 127.5015,-71.7277 127.2929,-78.9358"/>
<text text-anchor="middle" x="157.5" y="-95.5" font-family="Helvetica,sans-Serif" font-size="10.00" fill="#000000"> +size</text>
</g>
</g>
</svg>
