<?xml version="1.0" encoding="UTF-8" standalone="no"?>
<!DOCTYPE svg PUBLIC "-//W3C//DTD SVG 1.1//EN"
 "http://www.w3.org/Graphics/SVG/1.1/DTD/svg11.dtd">
<!-- Generated by graphviz version 2.40.1 (20161225.0304)
 -->
<!-- Title: PeaksAvgsManager::Setup Pages: 1 -->
<svg width="745pt" height="66pt"
 viewBox="0.00 0.00 745.00 66.00" xmlns="http://www.w3.org/2000/svg" xmlns:xlink="http://www.w3.org/1999/xlink">
<g id="graph0" class="graph" transform="scale(1 1) rotate(0) translate(4 62)">
<title>PeaksAvgsManager::Setup</title>
<polygon fill="#ffffff" stroke="transparent" points="-4,4 -4,-62 741,-62 741,4 -4,4"/>
<!-- Node45 -->
<g id="node1" class="node">
<title>Node45</title>
<polygon fill="#bfbfbf" stroke="#000000" points="0,-19.5 0,-38.5 145,-38.5 145,-19.5 0,-19.5"/>
<text text-anchor="middle" x="72.5" y="-26.5" font-family="Helvetica,sans-Serif" font-size="10.00" fill="#000000">PeaksAvgsManager::Setup</text>
</g>
<!-- Node46 -->
<g id="node2" class="node">
<title>Node46</title>
<g id="a_node2"><a xlink:href="classBlockManager.html#af050835c736257358a3f572f8422ff1d" target="_top" xlink:title="BlockManager::PeakAvgOn">
<polygon fill="#ffffff" stroke="#000000" points="181,-19.5 181,-38.5 328,-38.5 328,-19.5 181,-19.5"/>
<text text-anchor="middle" x="254.5" y="-26.5" font-family="Helvetica,sans-Serif" font-size="10.00" fill="#000000">BlockManager::PeakAvgOn</text>
</a>
</g>
</g>
<!-- Node45&#45;&gt;Node46 -->
<g id="edge1" class="edge">
<title>Node45&#45;&gt;Node46</title>
<path fill="none" stroke="#191970" d="M155.433,-29C163.8632,-29 172.3865,-29 180.7104,-29"/>
<polygon fill="#191970" stroke="#191970" points="155.2159,-25.5001 145.2159,-29 155.2158,-32.5001 155.2159,-25.5001"/>
</g>
<!-- Node47 -->
<g id="node3" class="node">
<title>Node47</title>
<g id="a_node3"><a xlink:href="classBlockReadManager.html#af12804c61f944904eedf8c9edf5cd3bd" target="_top" xlink:title="BlockReadManager::Start">
<polygon fill="#ffffff" stroke="#000000" points="386,-38.5 386,-57.5 525,-57.5 525,-38.5 386,-38.5"/>
<text text-anchor="middle" x="455.5" y="-45.5" font-family="Helvetica,sans-Serif" font-size="10.00" fill="#000000">BlockReadManager::Start</text>
</a>
</g>
</g>
<!-- Node46&#45;&gt;Node47 -->
<g id="edge2" class="edge">
<title>Node46&#45;&gt;Node47</title>
<path fill="none" stroke="#191970" d="M338.4646,-36.9369C354.2269,-38.4269 370.5473,-39.9696 385.8169,-41.413"/>
<polygon fill="#191970" stroke="#191970" points="338.4887,-33.4237 328.2036,-35.967 337.8299,-40.3926 338.4887,-33.4237"/>
</g>
<!-- Node49 -->
<g id="node5" class="node">
<title>Node49</title>
<g id="a_node5"><a xlink:href="classRecordProcessor.html#a1aea5f833c59a12398b05b514b26b572" target="_top" xlink:title="RecordProcessor::RecordProcessor">
<polygon fill="#ffffff" stroke="#000000" points="364,-.5 364,-19.5 547,-19.5 547,-.5 364,-.5"/>
<text text-anchor="middle" x="455.5" y="-7.5" font-family="Helvetica,sans-Serif" font-size="10.00" fill="#000000">RecordProcessor::RecordProcessor</text>
</a>
</g>
</g>
<!-- Node46&#45;&gt;Node49 -->
<g id="edge4" class="edge">
<title>Node46&#45;&gt;Node49</title>
<path fill="none" stroke="#191970" d="M338.3225,-21.0765C346.696,-20.285 355.2285,-19.4784 363.6785,-18.6796"/>
<polygon fill="#191970" stroke="#191970" points="337.8299,-17.6074 328.2036,-22.033 338.4887,-24.5763 337.8299,-17.6074"/>
</g>
<!-- Node48 -->
<g id="node4" class="node">
<title>Node48</title>
<g id="a_node4"><a xlink:href="classBlockReadManager.html#aa990976dec4a3ec5bd6384b54ce5f09b" target="_top" xlink:title="BlockReadManager::Manage">
<polygon fill="#ffffff" stroke="#000000" points="583,-38.5 583,-57.5 737,-57.5 737,-38.5 583,-38.5"/>
<text text-anchor="middle" x="660" y="-45.5" font-family="Helvetica,sans-Serif" font-size="10.00" fill="#000000">BlockReadManager::Manage</text>
</a>
</g>
</g>
<!-- Node47&#45;&gt;Node48 -->
<g id="edge3" class="edge">
<title>Node47&#45;&gt;Node48</title>
<path fill="none" stroke="#191970" d="M535.2097,-48C550.9047,-48 567.3454,-48 582.9508,-48"/>
<polygon fill="#191970" stroke="#191970" points="535.0198,-44.5001 525.0197,-48 535.0197,-51.5001 535.0198,-44.5001"/>
</g>
</g>
</svg>
