<?xml version="1.0" encoding="UTF-8" standalone="no"?>
<!DOCTYPE svg PUBLIC "-//W3C//DTD SVG 1.1//EN"
 "http://www.w3.org/Graphics/SVG/1.1/DTD/svg11.dtd">
<!-- Generated by graphviz version 2.40.1 (20161225.0304)
 -->
<!-- Title: LoopManager::SetOutputVolume Pages: 1 -->
<svg width="494pt" height="192pt"
 viewBox="0.00 0.00 494.00 192.00" xmlns="http://www.w3.org/2000/svg" xmlns:xlink="http://www.w3.org/1999/xlink">
<g id="graph0" class="graph" transform="scale(1 1) rotate(0) translate(4 188)">
<title>LoopManager::SetOutputVolume</title>
<polygon fill="#ffffff" stroke="transparent" points="-4,4 -4,-188 490,-188 490,4 -4,4"/>
<!-- Node1037 -->
<g id="node1" class="node">
<title>Node1037</title>
<polygon fill="#bfbfbf" stroke="#000000" points="0,-76.5 0,-95.5 173,-95.5 173,-76.5 0,-76.5"/>
<text text-anchor="middle" x="86.5" y="-83.5" font-family="Helvetica,sans-Serif" font-size="10.00" fill="#000000">LoopManager::SetOutputVolume</text>
</g>
<!-- Node1038 -->
<g id="node2" class="node">
<title>Node1038</title>
<g id="a_node2"><a xlink:href="classFweelin.html#a4422f3a93561eff272cd5f7ecb0782ee" target="_top" xlink:title="Fweelin::getRP">
<polygon fill="#ffffff" stroke="#000000" points="237.5,-164.5 237.5,-183.5 326.5,-183.5 326.5,-164.5 237.5,-164.5"/>
<text text-anchor="middle" x="282" y="-171.5" font-family="Helvetica,sans-Serif" font-size="10.00" fill="#000000">Fweelin::getRP</text>
</a>
</g>
</g>
<!-- Node1037&#45;&gt;Node1038 -->
<g id="edge1" class="edge">
<title>Node1037&#45;&gt;Node1038</title>
<path fill="none" stroke="#191970" d="M100.5982,-95.552C122.7806,-110.2019 167.5811,-138.2741 209,-155 214.9767,-157.4135 221.3536,-159.6013 227.7559,-161.561"/>
<polygon fill="#191970" stroke="#191970" points="227.2055,-165.0448 237.7837,-164.4523 229.1448,-158.3188 227.2055,-165.0448"/>
</g>
<!-- Node1039 -->
<g id="node3" class="node">
<title>Node1039</title>
<g id="a_node3"><a xlink:href="classRootProcessor.html#af5d2bd13961bbb4ae28aa0f667ae9cc2" target="_top" xlink:title="RootProcessor::SetOutput\lVolume">
<polygon fill="#ffffff" stroke="#000000" points="212,-115 212,-145 352,-145 352,-115 212,-115"/>
<text text-anchor="start" x="220" y="-133" font-family="Helvetica,sans-Serif" font-size="10.00" fill="#000000">RootProcessor::SetOutput</text>
<text text-anchor="middle" x="282" y="-122" font-family="Helvetica,sans-Serif" font-size="10.00" fill="#000000">Volume</text>
</a>
</g>
</g>
<!-- Node1037&#45;&gt;Node1039 -->
<g id="edge2" class="edge">
<title>Node1037&#45;&gt;Node1039</title>
<path fill="none" stroke="#191970" d="M128.9206,-95.5473C151.2264,-100.5676 179.2636,-106.8777 205.2283,-112.7215"/>
<polygon fill="#191970" stroke="#191970" points="204.5374,-116.1534 215.0618,-114.9346 206.0744,-109.3243 204.5374,-116.1534"/>
</g>
<!-- Node1040 -->
<g id="node4" class="node">
<title>Node1040</title>
<g id="a_node4"><a xlink:href="classAudioLevel.html#a6237f0fe89cafad73b27ffdd837c20d3" target="_top" xlink:title="AudioLevel::fader_to_dB">
<polygon fill="#ffffff" stroke="#000000" points="214.5,-76.5 214.5,-95.5 349.5,-95.5 349.5,-76.5 214.5,-76.5"/>
<text text-anchor="middle" x="282" y="-83.5" font-family="Helvetica,sans-Serif" font-size="10.00" fill="#000000">AudioLevel::fader_to_dB</text>
</a>
</g>
</g>
<!-- Node1037&#45;&gt;Node1040 -->
<g id="edge3" class="edge">
<title>Node1037&#45;&gt;Node1040</title>
<path fill="none" stroke="#191970" d="M173.1029,-86C183.444,-86 193.9537,-86 204.1609,-86"/>
<polygon fill="#191970" stroke="#191970" points="204.2499,-89.5001 214.2499,-86 204.2498,-82.5001 204.2499,-89.5001"/>
</g>
<!-- Node1043 -->
<g id="node7" class="node">
<title>Node1043</title>
<g id="a_node7"><a xlink:href="classFweelin.html#a681d7ca8d0789199af135f22c26a5409" target="_top" xlink:title="Fweelin::getCFG">
<polygon fill="#ffffff" stroke="#000000" points="234.5,-38.5 234.5,-57.5 329.5,-57.5 329.5,-38.5 234.5,-38.5"/>
<text text-anchor="middle" x="282" y="-45.5" font-family="Helvetica,sans-Serif" font-size="10.00" fill="#000000">Fweelin::getCFG</text>
</a>
</g>
</g>
<!-- Node1037&#45;&gt;Node1043 -->
<g id="edge6" class="edge">
<title>Node1037&#45;&gt;Node1043</title>
<path fill="none" stroke="#191970" d="M135.5806,-76.46C162.4771,-71.2321 195.9739,-64.7212 224.1381,-59.2468"/>
<polygon fill="#191970" stroke="#191970" points="225.1026,-62.6249 234.251,-57.2811 223.7669,-55.7535 225.1026,-62.6249"/>
</g>
<!-- Node1044 -->
<g id="node8" class="node">
<title>Node1044</title>
<g id="a_node8"><a xlink:href="classFloConfig.html#afe89a160de65636f17710e04713e5127" target="_top" xlink:title="FloConfig::GetFaderMaxDB">
<polygon fill="#ffffff" stroke="#000000" points="209,-.5 209,-19.5 355,-19.5 355,-.5 209,-.5"/>
<text text-anchor="middle" x="282" y="-7.5" font-family="Helvetica,sans-Serif" font-size="10.00" fill="#000000">FloConfig::GetFaderMaxDB</text>
</a>
</g>
</g>
<!-- Node1037&#45;&gt;Node1044 -->
<g id="edge7" class="edge">
<title>Node1037&#45;&gt;Node1044</title>
<path fill="none" stroke="#191970" d="M104.3315,-76.4514C127.8022,-64.1771 170.5909,-42.8061 209,-29 215.7781,-26.5636 223.0133,-24.2971 230.1963,-22.24"/>
<polygon fill="#191970" stroke="#191970" points="231.1972,-25.5947 239.9111,-19.5682 229.3409,-18.8453 231.1972,-25.5947"/>
</g>
<!-- Node1041 -->
<g id="node5" class="node">
<title>Node1041</title>
<g id="a_node5"><a xlink:href="fweelin__core__dsp_8cc.html#aa8e70840b54e71eb9300384906358f42" target="_top" xlink:title="iec_dB_to_fader">
<polygon fill="#ffffff" stroke="#000000" points="391,-95.5 391,-114.5 486,-114.5 486,-95.5 391,-95.5"/>
<text text-anchor="middle" x="438.5" y="-102.5" font-family="Helvetica,sans-Serif" font-size="10.00" fill="#000000">iec_dB_to_fader</text>
</a>
</g>
</g>
<!-- Node1040&#45;&gt;Node1041 -->
<g id="edge4" class="edge">
<title>Node1040&#45;&gt;Node1041</title>
<path fill="none" stroke="#191970" d="M349.733,-94.2232C360.1417,-95.4869 370.8034,-96.7812 380.963,-98.0147"/>
<polygon fill="#191970" stroke="#191970" points="380.5784,-101.4936 390.9274,-99.2244 381.4221,-94.5446 380.5784,-101.4936"/>
</g>
<!-- Node1042 -->
<g id="node6" class="node">
<title>Node1042</title>
<g id="a_node6"><a xlink:href="fweelin__core__dsp_8cc.html#aef093fccb62a8f826bff45f18e39cf5d" target="_top" xlink:title="iec_fader_to_dB">
<polygon fill="#ffffff" stroke="#000000" points="391,-57.5 391,-76.5 486,-76.5 486,-57.5 391,-57.5"/>
<text text-anchor="middle" x="438.5" y="-64.5" font-family="Helvetica,sans-Serif" font-size="10.00" fill="#000000">iec_fader_to_dB</text>
</a>
</g>
</g>
<!-- Node1040&#45;&gt;Node1042 -->
<g id="edge5" class="edge">
<title>Node1040&#45;&gt;Node1042</title>
<path fill="none" stroke="#191970" d="M349.733,-77.7768C360.1417,-76.5131 370.8034,-75.2188 380.963,-73.9853"/>
<polygon fill="#191970" stroke="#191970" points="381.4221,-77.4554 390.9274,-72.7756 380.5784,-70.5064 381.4221,-77.4554"/>
</g>
</g>
</svg>
