<?xml version="1.0" encoding="UTF-8" standalone="no"?>
<!DOCTYPE svg PUBLIC "-//W3C//DTD SVG 1.1//EN"
 "http://www.w3.org/Graphics/SVG/1.1/DTD/svg11.dtd">
<!-- Generated by graphviz version 2.40.1 (20161225.0304)
 -->
<!-- Title: PlayProcessor::PlayProcessor Pages: 1 -->
<svg width="510pt" height="138pt"
 viewBox="0.00 0.00 510.00 137.50" xmlns="http://www.w3.org/2000/svg" xmlns:xlink="http://www.w3.org/1999/xlink">
<g id="graph0" class="graph" transform="scale(1 1) rotate(0) translate(4 133.5)">
<title>PlayProcessor::PlayProcessor</title>
<polygon fill="#ffffff" stroke="transparent" points="-4,4 -4,-133.5 506,-133.5 506,4 -4,4"/>
<!-- Node0 -->
<g id="node1" class="node">
<title>Node0</title>
<polygon fill="#bfbfbf" stroke="#000000" points="0,-72 0,-91 159,-91 159,-72 0,-72"/>
<text text-anchor="middle" x="79.5" y="-79" font-family="Helvetica,sans-Serif" font-size="10.00" fill="#000000">PlayProcessor::PlayProcessor</text>
</g>
<!-- Node1 -->
<g id="node2" class="node">
<title>Node1</title>
<g id="a_node2"><a xlink:href="classAudioBlock.html#a5d7b94e41f0f024f767cb5e2d219b3ea" target="_top" xlink:title="AudioBlock::IsStereo">
<polygon fill="#ffffff" stroke="#000000" points="195,-110 195,-129 312,-129 312,-110 195,-110"/>
<text text-anchor="middle" x="253.5" y="-117" font-family="Helvetica,sans-Serif" font-size="10.00" fill="#000000">AudioBlock::IsStereo</text>
</a>
</g>
</g>
<!-- Node0&#45;&gt;Node1 -->
<g id="edge1" class="edge">
<title>Node0&#45;&gt;Node1</title>
<path fill="none" stroke="#191970" d="M123.4075,-91.089C146.679,-96.1713 175.4538,-102.4554 200.0195,-107.8203"/>
<polygon fill="#191970" stroke="#191970" points="199.3917,-111.2657 209.9082,-109.9799 200.8852,-104.4268 199.3917,-111.2657"/>
</g>
<!-- Node2 -->
<g id="node3" class="node">
<title>Node2</title>
<g id="a_node3"><a xlink:href="classFweelin.html#a538440216608aed67e6940c2903c3072" target="_top" xlink:title="Fweelin::getBUFSZ">
<polygon fill="#ffffff" stroke="#000000" points="199.5,-72 199.5,-91 307.5,-91 307.5,-72 199.5,-72"/>
<text text-anchor="middle" x="253.5" y="-79" font-family="Helvetica,sans-Serif" font-size="10.00" fill="#000000">Fweelin::getBUFSZ</text>
</a>
</g>
</g>
<!-- Node0&#45;&gt;Node2 -->
<g id="edge2" class="edge">
<title>Node0&#45;&gt;Node2</title>
<path fill="none" stroke="#191970" d="M159.1163,-81.5C169.2113,-81.5 179.4399,-81.5 189.2531,-81.5"/>
<polygon fill="#191970" stroke="#191970" points="189.3062,-85.0001 199.3061,-81.5 189.3061,-78.0001 189.3062,-85.0001"/>
</g>
<!-- Node3 -->
<g id="node4" class="node">
<title>Node3</title>
<g id="a_node4"><a xlink:href="classAudioBlockIterator.html#aee775d7a85e66fa08144b582658a9cac" target="_top" xlink:title="AudioBlockIterator\l::Jump">
<polygon fill="#ffffff" stroke="#000000" points="200,-22.5 200,-52.5 307,-52.5 307,-22.5 200,-22.5"/>
<text text-anchor="start" x="208" y="-40.5" font-family="Helvetica,sans-Serif" font-size="10.00" fill="#000000">AudioBlockIterator</text>
<text text-anchor="middle" x="253.5" y="-29.5" font-family="Helvetica,sans-Serif" font-size="10.00" fill="#000000">::Jump</text>
</a>
</g>
</g>
<!-- Node0&#45;&gt;Node3 -->
<g id="edge3" class="edge">
<title>Node0&#45;&gt;Node3</title>
<path fill="none" stroke="#191970" d="M117.2554,-71.9527C138.5145,-66.5768 165.6229,-59.7218 190.0521,-53.5443"/>
<polygon fill="#191970" stroke="#191970" points="191.1379,-56.88 199.9746,-51.0352 189.4217,-50.0936 191.1379,-56.88"/>
</g>
<!-- Node4 -->
<g id="node5" class="node">
<title>Node4</title>
<g id="a_node5"><a xlink:href="classAudioBlock.html#a380880c91c3af2322d232ce2de83b881" target="_top" xlink:title="AudioBlock::GetTotalLen">
<polygon fill="#ffffff" stroke="#000000" points="357.5,-50 357.5,-69 492.5,-69 492.5,-50 357.5,-50"/>
<text text-anchor="middle" x="425" y="-57" font-family="Helvetica,sans-Serif" font-size="10.00" fill="#000000">AudioBlock::GetTotalLen</text>
</a>
</g>
</g>
<!-- Node3&#45;&gt;Node4 -->
<g id="edge4" class="edge">
<title>Node3&#45;&gt;Node4</title>
<path fill="none" stroke="#191970" d="M307.2931,-44.4006C319.9744,-46.0273 333.7438,-47.7937 347.2464,-49.5258"/>
<polygon fill="#191970" stroke="#191970" points="347.1334,-53.0399 357.4975,-50.8408 348.0242,-46.0968 347.1334,-53.0399"/>
</g>
<!-- Node5 -->
<g id="node6" class="node">
<title>Node5</title>
<g id="a_node6"><a xlink:href="classAudioBlock.html#a4f53140535b4c56db4c5360f3fb9eb7d" target="_top" xlink:title="AudioBlock::SetPtrsFromAbs\lOffset">
<polygon fill="#ffffff" stroke="#000000" points="348,-.5 348,-30.5 502,-30.5 502,-.5 348,-.5"/>
<text text-anchor="start" x="356" y="-18.5" font-family="Helvetica,sans-Serif" font-size="10.00" fill="#000000">AudioBlock::SetPtrsFromAbs</text>
<text text-anchor="middle" x="425" y="-7.5" font-family="Helvetica,sans-Serif" font-size="10.00" fill="#000000">Offset</text>
</a>
</g>
</g>
<!-- Node3&#45;&gt;Node5 -->
<g id="edge5" class="edge">
<title>Node3&#45;&gt;Node5</title>
<path fill="none" stroke="#191970" d="M307.2931,-30.5994C317.0451,-29.3484 327.4405,-28.0149 337.8632,-26.6779"/>
<polygon fill="#191970" stroke="#191970" points="338.371,-30.1415 347.8444,-25.3975 337.4803,-23.1984 338.371,-30.1415"/>
</g>
</g>
</svg>
