<?xml version="1.0" encoding="UTF-8" standalone="no"?>
<!DOCTYPE svg PUBLIC "-//W3C//DTD SVG 1.1//EN"
 "http://www.w3.org/Graphics/SVG/1.1/DTD/svg11.dtd">
<!-- Generated by graphviz version 2.40.1 (20161225.0304)
 -->
<!-- Title: LoopManager::GetPulse Pages: 1 -->
<svg width="511pt" height="66pt"
 viewBox="0.00 0.00 511.00 66.00" xmlns="http://www.w3.org/2000/svg" xmlns:xlink="http://www.w3.org/1999/xlink">
<g id="graph0" class="graph" transform="scale(1 1) rotate(0) translate(4 62)">
<title>LoopManager::GetPulse</title>
<polygon fill="#ffffff" stroke="transparent" points="-4,4 -4,-62 507,-62 507,4 -4,4"/>
<!-- Node445 -->
<g id="node1" class="node">
<title>Node445</title>
<polygon fill="#bfbfbf" stroke="#000000" points="0,-19.5 0,-38.5 131,-38.5 131,-19.5 0,-19.5"/>
<text text-anchor="middle" x="65.5" y="-26.5" font-family="Helvetica,sans-Serif" font-size="10.00" fill="#000000">LoopManager::GetPulse</text>
</g>
<!-- Node446 -->
<g id="node2" class="node">
<title>Node446</title>
<g id="a_node2"><a xlink:href="classLoopManager.html#a8efb4c8acabceb10faa8660c14c89d71" target="_top" xlink:title="LoopManager::DeletePulse">
<polygon fill="#ffffff" stroke="#000000" points="167,-38.5 167,-57.5 313,-57.5 313,-38.5 167,-38.5"/>
<text text-anchor="middle" x="240" y="-45.5" font-family="Helvetica,sans-Serif" font-size="10.00" fill="#000000">LoopManager::DeletePulse</text>
</a>
</g>
</g>
<!-- Node445&#45;&gt;Node446 -->
<g id="edge1" class="edge">
<title>Node445&#45;&gt;Node446</title>
<path fill="none" stroke="#191970" d="M141.6266,-37.2889C150.0269,-38.2035 158.5669,-39.1334 166.9284,-40.0438"/>
<polygon fill="#191970" stroke="#191970" points="141.7911,-33.7862 131.471,-36.1831 141.0333,-40.745 141.7911,-33.7862"/>
</g>
<!-- Node448 -->
<g id="node4" class="node">
<title>Node448</title>
<g id="a_node4"><a xlink:href="classVideoIO.html#adca60a99be6e51d8af7ce2a32f92349a" target="_top" xlink:title="VideoIO::DrawLoop">
<polygon fill="#ffffff" stroke="#000000" points="185,-.5 185,-19.5 295,-19.5 295,-.5 185,-.5"/>
<text text-anchor="middle" x="240" y="-7.5" font-family="Helvetica,sans-Serif" font-size="10.00" fill="#000000">VideoIO::DrawLoop</text>
</a>
</g>
</g>
<!-- Node445&#45;&gt;Node448 -->
<g id="edge3" class="edge">
<title>Node445&#45;&gt;Node448</title>
<path fill="none" stroke="#191970" d="M141.4605,-20.7292C156.0177,-19.1442 171.0012,-17.5128 184.7534,-16.0154"/>
<polygon fill="#191970" stroke="#191970" points="141.0333,-17.255 131.471,-21.8169 141.7911,-24.2138 141.0333,-17.255"/>
</g>
<!-- Node447 -->
<g id="node3" class="node">
<title>Node447</title>
<g id="a_node3"><a xlink:href="classLoopManager.html#a4aada2d07b7ce0a67a8119ece4805966" target="_top" xlink:title="LoopManager::ReceiveEvent">
<polygon fill="#ffffff" stroke="#000000" points="349,-38.5 349,-57.5 503,-57.5 503,-38.5 349,-38.5"/>
<text text-anchor="middle" x="426" y="-45.5" font-family="Helvetica,sans-Serif" font-size="10.00" fill="#000000">LoopManager::ReceiveEvent</text>
</a>
</g>
</g>
<!-- Node446&#45;&gt;Node447 -->
<g id="edge2" class="edge">
<title>Node446&#45;&gt;Node447</title>
<path fill="none" stroke="#191970" d="M323.4738,-48C331.918,-48 340.4682,-48 348.8418,-48"/>
<polygon fill="#191970" stroke="#191970" points="323.2452,-44.5001 313.2451,-48 323.2451,-51.5001 323.2452,-44.5001"/>
</g>
</g>
</svg>
