<?xml version="1.0" encoding="UTF-8" standalone="no"?>
<!DOCTYPE svg PUBLIC "-//W3C//DTD SVG 1.1//EN"
 "http://www.w3.org/Graphics/SVG/1.1/DTD/svg11.dtd">
<!-- Generated by graphviz version 2.40.1 (20161225.0304)
 -->
<!-- Title: BlockExtendedData Pages: 1 -->
<svg width="200pt" height="99pt"
 viewBox="0.00 0.00 200.00 99.00" xmlns="http://www.w3.org/2000/svg" xmlns:xlink="http://www.w3.org/1999/xlink">
<g id="graph0" class="graph" transform="scale(1 1) rotate(0) translate(4 95)">
<title>BlockExtendedData</title>
<polygon fill="#ffffff" stroke="transparent" points="-4,4 -4,-95 196,-95 196,4 -4,4"/>
<!-- Node4 -->
<g id="node1" class="node">
<title>Node4</title>
<polygon fill="#bfbfbf" stroke="#000000" points="0,-.5 0,-90.5 140,-90.5 140,-.5 0,-.5"/>
<text text-anchor="middle" x="70" y="-78.5" font-family="Helvetica,sans-Serif" font-size="10.00" fill="#000000">BlockExtendedData</text>
<polyline fill="none" stroke="#000000" points="0,-71.5 140,-71.5 "/>
<text text-anchor="middle" x="70" y="-59.5" font-family="Helvetica,sans-Serif" font-size="10.00" fill="#000000"> </text>
<polyline fill="none" stroke="#000000" points="0,-52.5 140,-52.5 "/>
<text text-anchor="start" x="8" y="-40.5" font-family="Helvetica,sans-Serif" font-size="10.00" fill="#000000">+ BlockExtendedData()</text>
<text text-anchor="start" x="8" y="-29.5" font-family="Helvetica,sans-Serif" font-size="10.00" fill="#000000">+ BlockExtendedData()</text>
<text text-anchor="start" x="8" y="-18.5" font-family="Helvetica,sans-Serif" font-size="10.00" fill="#000000">+ ~BlockExtendedData()</text>
<text text-anchor="start" x="8" y="-7.5" font-family="Helvetica,sans-Serif" font-size="10.00" fill="#000000">+ GetType()</text>
</g>
<!-- Node4&#45;&gt;Node4 -->
<g id="edge1" class="edge">
<title>Node4&#45;&gt;Node4</title>
<path fill="none" stroke="#404040" d="M140.0708,-60.8877C150.749,-58.5394 158,-53.4102 158,-45.5 158,-40.9269 155.5765,-37.2833 151.4684,-34.5692"/>
<polygon fill="none" stroke="#404040" points="151.2467,-34.4826 144.202,-36.0227 140.0708,-30.1123 147.1156,-28.5721 151.2467,-34.4826"/>
<text text-anchor="middle" x="175" y="-43" font-family="Helvetica,sans-Serif" font-size="10.00" fill="#000000"> +next</text>
</g>
</g>
</svg>
