<?xml version="1.0" encoding="UTF-8" standalone="no"?>
<!DOCTYPE svg PUBLIC "-//W3C//DTD SVG 1.1//EN"
 "http://www.w3.org/Graphics/SVG/1.1/DTD/svg11.dtd">
<!-- Generated by graphviz version 2.40.1 (20161225.0304)
 -->
<!-- Title: RTStore::GetItemAtIdx Pages: 1 -->
<svg width="930pt" height="39pt"
 viewBox="0.00 0.00 930.00 39.00" xmlns="http://www.w3.org/2000/svg" xmlns:xlink="http://www.w3.org/1999/xlink">
<g id="graph0" class="graph" transform="scale(1 1) rotate(0) translate(4 35)">
<title>RTStore::GetItemAtIdx</title>
<polygon fill="#ffffff" stroke="transparent" points="-4,4 -4,-35 926,-35 926,4 -4,4"/>
<!-- Node43 -->
<g id="node1" class="node">
<title>Node43</title>
<polygon fill="#bfbfbf" stroke="#000000" points="0,-6 0,-25 125,-25 125,-6 0,-6"/>
<text text-anchor="middle" x="62.5" y="-13" font-family="Helvetica,sans-Serif" font-size="10.00" fill="#000000">RTStore::GetItemAtIdx</text>
</g>
<!-- Node44 -->
<g id="node2" class="node">
<title>Node44</title>
<g id="a_node2"><a xlink:href="classPreallocatedType.html#a58ec3848b8d6e75e6e65f6be93e79276" target="_top" xlink:title="PreallocatedType::GoPreallocate">
<polygon fill="#ffffff" stroke="#000000" points="161,-6 161,-25 335,-25 335,-6 161,-6"/>
<text text-anchor="middle" x="248" y="-13" font-family="Helvetica,sans-Serif" font-size="10.00" fill="#000000">PreallocatedType::GoPreallocate</text>
</a>
</g>
</g>
<!-- Node43&#45;&gt;Node44 -->
<g id="edge1" class="edge">
<title>Node43&#45;&gt;Node44</title>
<path fill="none" stroke="#191970" d="M135.1389,-15.5C143.5254,-15.5 152.1423,-15.5 160.6972,-15.5"/>
<polygon fill="#191970" stroke="#191970" points="135.0433,-12.0001 125.0432,-15.5 135.0432,-19.0001 135.0433,-12.0001"/>
</g>
<!-- Node45 -->
<g id="node3" class="node">
<title>Node45</title>
<g id="a_node3"><a xlink:href="classMemoryManager.html#aaa906e019f7d28b616b038a4e4ee9006" target="_top" xlink:title="MemoryManager::ProcessQueue">
<polygon fill="#ffffff" stroke="#000000" points="371,-6 371,-25 544,-25 544,-6 371,-6"/>
<text text-anchor="middle" x="457.5" y="-13" font-family="Helvetica,sans-Serif" font-size="10.00" fill="#000000">MemoryManager::ProcessQueue</text>
</a>
</g>
</g>
<!-- Node44&#45;&gt;Node45 -->
<g id="edge2" class="edge">
<title>Node44&#45;&gt;Node45</title>
<path fill="none" stroke="#191970" d="M345.0462,-15.5C353.6201,-15.5 362.2632,-15.5 370.7441,-15.5"/>
<polygon fill="#191970" stroke="#191970" points="345.0269,-12.0001 335.0268,-15.5 345.0268,-19.0001 345.0269,-12.0001"/>
</g>
<!-- Node46 -->
<g id="node4" class="node">
<title>Node46</title>
<g id="a_node4"><a xlink:href="classMemoryManager.html#a8db8172ce6d7ac082b38a28af3394b72" target="_top" xlink:title="MemoryManager::run\l_mgr_thread">
<polygon fill="#ffffff" stroke="#000000" points="580,-.5 580,-30.5 700,-30.5 700,-.5 580,-.5"/>
<text text-anchor="start" x="588" y="-18.5" font-family="Helvetica,sans-Serif" font-size="10.00" fill="#000000">MemoryManager::run</text>
<text text-anchor="middle" x="640" y="-7.5" font-family="Helvetica,sans-Serif" font-size="10.00" fill="#000000">_mgr_thread</text>
</a>
</g>
</g>
<!-- Node45&#45;&gt;Node46 -->
<g id="edge3" class="edge">
<title>Node45&#45;&gt;Node46</title>
<path fill="none" stroke="#191970" d="M554.3788,-15.5C563.0331,-15.5 571.6196,-15.5 579.8254,-15.5"/>
<polygon fill="#191970" stroke="#191970" points="554.207,-12.0001 544.207,-15.5 554.207,-19.0001 554.207,-12.0001"/>
</g>
<!-- Node47 -->
<g id="node5" class="node">
<title>Node47</title>
<g id="a_node5"><a xlink:href="classMemoryManager.html#ae925e8ad4d8fe6f0565e9d5729f59593" target="_top" xlink:title="MemoryManager::MemoryManager">
<polygon fill="#ffffff" stroke="#000000" points="736,-6 736,-25 922,-25 922,-6 736,-6"/>
<text text-anchor="middle" x="829" y="-13" font-family="Helvetica,sans-Serif" font-size="10.00" fill="#000000">MemoryManager::MemoryManager</text>
</a>
</g>
</g>
<!-- Node46&#45;&gt;Node47 -->
<g id="edge4" class="edge">
<title>Node46&#45;&gt;Node47</title>
<path fill="none" stroke="#191970" d="M710.1727,-15.5C718.5915,-15.5 727.2867,-15.5 735.9653,-15.5"/>
<polygon fill="#191970" stroke="#191970" points="710.0605,-12.0001 700.0605,-15.5 710.0604,-19.0001 710.0605,-12.0001"/>
</g>
</g>
</svg>
