<?xml version="1.0" encoding="UTF-8" standalone="no"?>
<!DOCTYPE svg PUBLIC "-//W3C//DTD SVG 1.1//EN"
 "http://www.w3.org/Graphics/SVG/1.1/DTD/svg11.dtd">
<!-- Generated by graphviz version 2.40.1 (20161225.0304)
 -->
<!-- Title: Preallocated::NewInstance Pages: 1 -->
<svg width="966pt" height="72pt"
 viewBox="0.00 0.00 966.00 71.50" xmlns="http://www.w3.org/2000/svg" xmlns:xlink="http://www.w3.org/1999/xlink">
<g id="graph0" class="graph" transform="scale(1 1) rotate(0) translate(4 67.5)">
<title>Preallocated::NewInstance</title>
<polygon fill="#ffffff" stroke="transparent" points="-4,4 -4,-67.5 962,-67.5 962,4 -4,4"/>
<!-- Node9 -->
<g id="node1" class="node">
<title>Node9</title>
<polygon fill="#bfbfbf" stroke="#000000" points="0,-25 0,-44 146,-44 146,-25 0,-25"/>
<text text-anchor="middle" x="73" y="-32" font-family="Helvetica,sans-Serif" font-size="10.00" fill="#000000">Preallocated::NewInstance</text>
</g>
<!-- Node10 -->
<g id="node2" class="node">
<title>Node10</title>
<g id="a_node2"><a xlink:href="classPreallocatedType.html#a47a56c8e647fd52937675b473657fb9c" target="_top" xlink:title="PreallocatedType::PreallocatedType">
<polygon fill="#ffffff" stroke="#000000" points="182,-44 182,-63 371,-63 371,-44 182,-44"/>
<text text-anchor="middle" x="276.5" y="-51" font-family="Helvetica,sans-Serif" font-size="10.00" fill="#000000">PreallocatedType::PreallocatedType</text>
</a>
</g>
</g>
<!-- Node9&#45;&gt;Node10 -->
<g id="edge1" class="edge">
<title>Node9&#45;&gt;Node10</title>
<path fill="none" stroke="#191970" d="M156.379,-42.2848C164.8243,-43.0733 173.4442,-43.8781 181.9955,-44.6765"/>
<polygon fill="#191970" stroke="#191970" points="156.4628,-38.7775 146.1807,-41.3326 155.812,-45.7471 156.4628,-38.7775"/>
</g>
<!-- Node11 -->
<g id="node3" class="node">
<title>Node11</title>
<g id="a_node3"><a xlink:href="classPreallocatedType.html#a58ec3848b8d6e75e6e65f6be93e79276" target="_top" xlink:title="PreallocatedType::GoPreallocate">
<polygon fill="#ffffff" stroke="#000000" points="189.5,-6 189.5,-25 363.5,-25 363.5,-6 189.5,-6"/>
<text text-anchor="middle" x="276.5" y="-13" font-family="Helvetica,sans-Serif" font-size="10.00" fill="#000000">PreallocatedType::GoPreallocate</text>
</a>
</g>
</g>
<!-- Node9&#45;&gt;Node11 -->
<g id="edge2" class="edge">
<title>Node9&#45;&gt;Node11</title>
<path fill="none" stroke="#191970" d="M156.1498,-26.7366C167.113,-25.713 178.3745,-24.6616 189.4015,-23.632"/>
<polygon fill="#191970" stroke="#191970" points="155.812,-23.2529 146.1807,-27.6674 156.4628,-30.2225 155.812,-23.2529"/>
</g>
<!-- Node12 -->
<g id="node4" class="node">
<title>Node12</title>
<g id="a_node4"><a xlink:href="classMemoryManager.html#aaa906e019f7d28b616b038a4e4ee9006" target="_top" xlink:title="MemoryManager::ProcessQueue">
<polygon fill="#ffffff" stroke="#000000" points="407,-6 407,-25 580,-25 580,-6 407,-6"/>
<text text-anchor="middle" x="493.5" y="-13" font-family="Helvetica,sans-Serif" font-size="10.00" fill="#000000">MemoryManager::ProcessQueue</text>
</a>
</g>
</g>
<!-- Node11&#45;&gt;Node12 -->
<g id="edge3" class="edge">
<title>Node11&#45;&gt;Node12</title>
<path fill="none" stroke="#191970" d="M373.6153,-15.5C384.6803,-15.5 395.905,-15.5 406.8223,-15.5"/>
<polygon fill="#191970" stroke="#191970" points="373.5119,-12.0001 363.5119,-15.5 373.5118,-19.0001 373.5119,-12.0001"/>
</g>
<!-- Node13 -->
<g id="node5" class="node">
<title>Node13</title>
<g id="a_node5"><a xlink:href="classMemoryManager.html#a8db8172ce6d7ac082b38a28af3394b72" target="_top" xlink:title="MemoryManager::run\l_mgr_thread">
<polygon fill="#ffffff" stroke="#000000" points="616,-.5 616,-30.5 736,-30.5 736,-.5 616,-.5"/>
<text text-anchor="start" x="624" y="-18.5" font-family="Helvetica,sans-Serif" font-size="10.00" fill="#000000">MemoryManager::run</text>
<text text-anchor="middle" x="676" y="-7.5" font-family="Helvetica,sans-Serif" font-size="10.00" fill="#000000">_mgr_thread</text>
</a>
</g>
</g>
<!-- Node12&#45;&gt;Node13 -->
<g id="edge4" class="edge">
<title>Node12&#45;&gt;Node13</title>
<path fill="none" stroke="#191970" d="M590.3788,-15.5C599.0331,-15.5 607.6196,-15.5 615.8254,-15.5"/>
<polygon fill="#191970" stroke="#191970" points="590.207,-12.0001 580.207,-15.5 590.207,-19.0001 590.207,-12.0001"/>
</g>
<!-- Node14 -->
<g id="node6" class="node">
<title>Node14</title>
<g id="a_node6"><a xlink:href="classMemoryManager.html#ae925e8ad4d8fe6f0565e9d5729f59593" target="_top" xlink:title="MemoryManager::MemoryManager">
<polygon fill="#ffffff" stroke="#000000" points="772,-6 772,-25 958,-25 958,-6 772,-6"/>
<text text-anchor="middle" x="865" y="-13" font-family="Helvetica,sans-Serif" font-size="10.00" fill="#000000">MemoryManager::MemoryManager</text>
</a>
</g>
</g>
<!-- Node13&#45;&gt;Node14 -->
<g id="edge5" class="edge">
<title>Node13&#45;&gt;Node14</title>
<path fill="none" stroke="#191970" d="M746.1727,-15.5C754.5915,-15.5 763.2867,-15.5 771.9653,-15.5"/>
<polygon fill="#191970" stroke="#191970" points="746.0605,-12.0001 736.0605,-15.5 746.0604,-19.0001 746.0605,-12.0001"/>
</g>
</g>
</svg>
