<?xml version="1.0" encoding="UTF-8" standalone="no"?>
<!DOCTYPE svg PUBLIC "-//W3C//DTD SVG 1.1//EN"
 "http://www.w3.org/Graphics/SVG/1.1/DTD/svg11.dtd">
<!-- Generated by graphviz version 2.40.1 (20161225.0304)
 -->
<!-- Title: SDLIO::activate Pages: 1 -->
<svg width="722pt" height="408pt"
 viewBox="0.00 0.00 722.00 408.00" xmlns="http://www.w3.org/2000/svg" xmlns:xlink="http://www.w3.org/1999/xlink">
<g id="graph0" class="graph" transform="scale(1 1) rotate(0) translate(4 404)">
<title>SDLIO::activate</title>
<polygon fill="#ffffff" stroke="transparent" points="-4,4 -4,-404 718,-404 718,4 -4,4"/>
<!-- Node4 -->
<g id="node1" class="node">
<title>Node4</title>
<polygon fill="#bfbfbf" stroke="#000000" points="0,-206.5 0,-225.5 92,-225.5 92,-206.5 0,-206.5"/>
<text text-anchor="middle" x="46" y="-213.5" font-family="Helvetica,sans-Serif" font-size="10.00" fill="#000000">SDLIO::activate</text>
</g>
<!-- Node5 -->
<g id="node2" class="node">
<title>Node5</title>
<g id="a_node2"><a xlink:href="classSDLIO.html#ad1b1bf6d23251b3014749b18497c1b91" target="_top" xlink:title="SDLIO::run_sdl_thread">
<polygon fill="#ffffff" stroke="#000000" points="150,-228.5 150,-247.5 274,-247.5 274,-228.5 150,-228.5"/>
<text text-anchor="middle" x="212" y="-235.5" font-family="Helvetica,sans-Serif" font-size="10.00" fill="#000000">SDLIO::run_sdl_thread</text>
</a>
</g>
</g>
<!-- Node4&#45;&gt;Node5 -->
<g id="edge1" class="edge">
<title>Node4&#45;&gt;Node5</title>
<path fill="none" stroke="#191970" d="M92.2403,-222.1282C107.017,-224.0866 123.7418,-226.3031 139.9052,-228.4453"/>
<polygon fill="#191970" stroke="#191970" points="139.501,-231.9222 149.8742,-229.7665 140.4207,-224.9829 139.501,-231.9222"/>
</g>
<!-- Node24 -->
<g id="node21" class="node">
<title>Node24</title>
<g id="a_node21"><a xlink:href="classRT__RWThreads.html#af83b41e330638728272af35ff18dfa01" target="_top" xlink:title="RT_RWThreads::RegisterReader\lOrWriter">
<polygon fill="#ffffff" stroke="#000000" points="128,-179 128,-209 296,-209 296,-179 128,-179"/>
<text text-anchor="start" x="136" y="-197" font-family="Helvetica,sans-Serif" font-size="10.00" fill="#000000">RT_RWThreads::RegisterReader</text>
<text text-anchor="middle" x="212" y="-186" font-family="Helvetica,sans-Serif" font-size="10.00" fill="#000000">OrWriter</text>
</a>
</g>
</g>
<!-- Node4&#45;&gt;Node24 -->
<g id="edge21" class="edge">
<title>Node4&#45;&gt;Node24</title>
<path fill="none" stroke="#191970" d="M92.2403,-209.8718C100.3257,-208.8002 108.9943,-207.6514 117.8351,-206.4797"/>
<polygon fill="#191970" stroke="#191970" points="118.4143,-209.9336 127.8678,-205.1501 117.4946,-202.9943 118.4143,-209.9336"/>
</g>
<!-- Node6 -->
<g id="node3" class="node">
<title>Node6</title>
<g id="a_node3"><a xlink:href="classFweelin.html#a21e51d7b639faaecc415624ab6c16a71" target="_top" xlink:title="Fweelin::getEMG">
<polygon fill="#ffffff" stroke="#000000" points="378.5,-380.5 378.5,-399.5 476.5,-399.5 476.5,-380.5 378.5,-380.5"/>
<text text-anchor="middle" x="427.5" y="-387.5" font-family="Helvetica,sans-Serif" font-size="10.00" fill="#000000">Fweelin::getEMG</text>
</a>
</g>
</g>
<!-- Node5&#45;&gt;Node6 -->
<g id="edge2" class="edge">
<title>Node5&#45;&gt;Node6</title>
<path fill="none" stroke="#191970" d="M217.5697,-247.6177C232.5371,-272.5196 276.2938,-339.3585 332,-371 343.0186,-377.2586 355.7726,-381.4811 368.301,-384.3232"/>
<polygon fill="#191970" stroke="#191970" points="367.77,-387.7863 378.2627,-386.3191 369.1452,-380.9227 367.77,-387.7863"/>
</g>
<!-- Node7 -->
<g id="node4" class="node">
<title>Node7</title>
<g id="a_node4"><a xlink:href="classEventManager.html#a900be2c959408f76e6926c96197bd773" target="_top" xlink:title="EventManager::ListenEvent">
<polygon fill="#ffffff" stroke="#000000" points="353,-342.5 353,-361.5 502,-361.5 502,-342.5 353,-342.5"/>
<text text-anchor="middle" x="427.5" y="-349.5" font-family="Helvetica,sans-Serif" font-size="10.00" fill="#000000">EventManager::ListenEvent</text>
</a>
</g>
</g>
<!-- Node5&#45;&gt;Node7 -->
<g id="edge3" class="edge">
<title>Node5&#45;&gt;Node7</title>
<path fill="none" stroke="#191970" d="M220.895,-247.608C239.4987,-267.069 284.7264,-311.1467 332,-333 337.4066,-335.4993 343.134,-337.6706 348.9914,-339.5567"/>
<polygon fill="#191970" stroke="#191970" points="348.3577,-343.018 358.9383,-342.4694 350.3249,-336.3001 348.3577,-343.018"/>
</g>
<!-- Node8 -->
<g id="node5" class="node">
<title>Node8</title>
<g id="a_node5"><a xlink:href="classEvent.html#aa67af0ae99b897e4f0ce42068c4e4c00" target="_top" xlink:title="Event::GetEventByType">
<polygon fill="#ffffff" stroke="#000000" points="362,-304.5 362,-323.5 493,-323.5 493,-304.5 362,-304.5"/>
<text text-anchor="middle" x="427.5" y="-311.5" font-family="Helvetica,sans-Serif" font-size="10.00" fill="#000000">Event::GetEventByType</text>
</a>
</g>
</g>
<!-- Node5&#45;&gt;Node8 -->
<g id="edge4" class="edge">
<title>Node5&#45;&gt;Node8</title>
<path fill="none" stroke="#191970" d="M228.931,-247.6959C251.6782,-260.3313 293.6857,-282.3065 332,-295 340.278,-297.7425 349.0977,-300.1512 357.9046,-302.2494"/>
<polygon fill="#191970" stroke="#191970" points="357.2874,-305.6981 367.8129,-304.4875 358.8298,-298.8701 357.2874,-305.6981"/>
</g>
<!-- Node9 -->
<g id="node6" class="node">
<title>Node9</title>
<g id="a_node6"><a xlink:href="classEventManager.html#a4a73f2e7ff1724f28427f7c0d5725c8e" target="_top" xlink:title="EventManager::BroadcastEventNow">
<polygon fill="#ffffff" stroke="#000000" points="332,-266.5 332,-285.5 523,-285.5 523,-266.5 332,-266.5"/>
<text text-anchor="middle" x="427.5" y="-273.5" font-family="Helvetica,sans-Serif" font-size="10.00" fill="#000000">EventManager::BroadcastEventNow</text>
</a>
</g>
</g>
<!-- Node5&#45;&gt;Node9 -->
<g id="edge5" class="edge">
<title>Node5&#45;&gt;Node9</title>
<path fill="none" stroke="#191970" d="M266.1016,-247.54C295.5617,-252.7348 332.2053,-259.1963 363.1275,-264.6489"/>
<polygon fill="#191970" stroke="#191970" points="362.9203,-268.1663 373.3762,-266.4561 364.1359,-261.2727 362.9203,-268.1663"/>
</g>
<!-- Node13 -->
<g id="node10" class="node">
<title>Node13</title>
<g id="a_node10"><a xlink:href="classFweelin.html#a681d7ca8d0789199af135f22c26a5409" target="_top" xlink:title="Fweelin::getCFG">
<polygon fill="#ffffff" stroke="#000000" points="589,-228.5 589,-247.5 684,-247.5 684,-228.5 589,-228.5"/>
<text text-anchor="middle" x="636.5" y="-235.5" font-family="Helvetica,sans-Serif" font-size="10.00" fill="#000000">Fweelin::getCFG</text>
</a>
</g>
</g>
<!-- Node5&#45;&gt;Node13 -->
<g id="edge9" class="edge">
<title>Node5&#45;&gt;Node13</title>
<path fill="none" stroke="#191970" d="M274.1806,-238C356.0575,-238 498.9339,-238 578.6114,-238"/>
<polygon fill="#191970" stroke="#191970" points="578.9501,-241.5001 588.95,-238 578.95,-234.5001 578.9501,-241.5001"/>
</g>
<!-- Node14 -->
<g id="node11" class="node">
<title>Node14</title>
<g id="a_node11"><a xlink:href="classFloConfig.html#aaedfda90b488c27061a73b3bc98faf9a" target="_top" xlink:title="FloConfig::IsDebugInfo">
<polygon fill="#ffffff" stroke="#000000" points="364.5,-190.5 364.5,-209.5 490.5,-209.5 490.5,-190.5 364.5,-190.5"/>
<text text-anchor="middle" x="427.5" y="-197.5" font-family="Helvetica,sans-Serif" font-size="10.00" fill="#000000">FloConfig::IsDebugInfo</text>
</a>
</g>
</g>
<!-- Node5&#45;&gt;Node14 -->
<g id="edge10" class="edge">
<title>Node5&#45;&gt;Node14</title>
<path fill="none" stroke="#191970" d="M266.1016,-228.46C295.5617,-223.2652 332.2053,-216.8037 363.1275,-211.3511"/>
<polygon fill="#191970" stroke="#191970" points="364.1359,-214.7273 373.3762,-209.5439 362.9203,-207.8337 364.1359,-214.7273"/>
</g>
<!-- Node15 -->
<g id="node12" class="node">
<title>Node15</title>
<g id="a_node12"><a xlink:href="classSDLIO.html#ab0043db04cba9d0a26b8cce4b20f85f8" target="_top" xlink:title="SDLIO::GetSDLName">
<polygon fill="#ffffff" stroke="#000000" points="369,-152.5 369,-171.5 486,-171.5 486,-152.5 369,-152.5"/>
<text text-anchor="middle" x="427.5" y="-159.5" font-family="Helvetica,sans-Serif" font-size="10.00" fill="#000000">SDLIO::GetSDLName</text>
</a>
</g>
</g>
<!-- Node5&#45;&gt;Node15 -->
<g id="edge11" class="edge">
<title>Node5&#45;&gt;Node15</title>
<path fill="none" stroke="#191970" d="M274.138,-228.3598C281.765,-225.9133 289.2429,-222.8459 296,-219 316.2189,-207.4922 311.6328,-192.2434 332,-181 340.3479,-176.3917 349.6534,-172.8917 359.0893,-170.2354"/>
<polygon fill="#191970" stroke="#191970" points="360.0895,-173.593 368.9351,-167.7616 358.3836,-166.804 360.0895,-173.593"/>
</g>
<!-- Node16 -->
<g id="node13" class="node">
<title>Node16</title>
<g id="a_node13"><a xlink:href="classSDLIO.html#a491e66a604fb750866d5de45dfa6aae0" target="_top" xlink:title="SDLIO::handle_key">
<polygon fill="#ffffff" stroke="#000000" points="373.5,-114.5 373.5,-133.5 481.5,-133.5 481.5,-114.5 373.5,-114.5"/>
<text text-anchor="middle" x="427.5" y="-121.5" font-family="Helvetica,sans-Serif" font-size="10.00" fill="#000000">SDLIO::handle_key</text>
</a>
</g>
</g>
<!-- Node5&#45;&gt;Node16 -->
<g id="edge12" class="edge">
<title>Node5&#45;&gt;Node16</title>
<path fill="none" stroke="#191970" d="M274.1649,-230.7631C282.0447,-227.9509 289.5821,-224.1416 296,-219 325.1693,-195.6314 302.5287,-165.9866 332,-143 341.0725,-135.9237 352.0714,-131.2671 363.331,-128.2438"/>
<polygon fill="#191970" stroke="#191970" points="364.2763,-131.6183 373.251,-125.9876 362.7238,-124.7926 364.2763,-131.6183"/>
</g>
<!-- Node23 -->
<g id="node20" class="node">
<title>Node23</title>
<g id="a_node20"><a xlink:href="classEventManager.html#abfc3ddd37f9bd472a41ab43632e44736" target="_top" xlink:title="EventManager::UnlistenEvent">
<polygon fill="#ffffff" stroke="#000000" points="347,-76.5 347,-95.5 508,-95.5 508,-76.5 347,-76.5"/>
<text text-anchor="middle" x="427.5" y="-83.5" font-family="Helvetica,sans-Serif" font-size="10.00" fill="#000000">EventManager::UnlistenEvent</text>
</a>
</g>
</g>
<!-- Node5&#45;&gt;Node23 -->
<g id="edge20" class="edge">
<title>Node5&#45;&gt;Node23</title>
<path fill="none" stroke="#191970" d="M274.4164,-231.7092C282.3518,-228.7662 289.8377,-224.6685 296,-219 335.1048,-183.0288 292.4298,-140.4586 332,-105 333.7901,-103.3959 335.6759,-101.9114 337.6414,-100.5381"/>
<polygon fill="#191970" stroke="#191970" points="339.8706,-103.2878 346.7188,-95.2037 336.324,-97.2527 339.8706,-103.2878"/>
</g>
<!-- Node10 -->
<g id="node7" class="node">
<title>Node10</title>
<g id="a_node7"><a xlink:href="classEvent.html#ac4c4170579544b41dff38ca1b8110e30" target="_top" xlink:title="Event::GetType">
<polygon fill="#ffffff" stroke="#000000" points="591.5,-342.5 591.5,-361.5 681.5,-361.5 681.5,-342.5 591.5,-342.5"/>
<text text-anchor="middle" x="636.5" y="-349.5" font-family="Helvetica,sans-Serif" font-size="10.00" fill="#000000">Event::GetType</text>
</a>
</g>
</g>
<!-- Node9&#45;&gt;Node10 -->
<g id="edge6" class="edge">
<title>Node9&#45;&gt;Node10</title>
<path fill="none" stroke="#191970" d="M500.6165,-285.6359C508.4235,-288.0899 516.0442,-291.1602 523,-295 543.3672,-306.2434 538.8853,-321.311 559,-333 565.9826,-337.0577 573.804,-340.2527 581.7201,-342.7674"/>
<polygon fill="#191970" stroke="#191970" points="580.7969,-346.1436 591.3728,-345.5096 582.7099,-339.41 580.7969,-346.1436"/>
</g>
<!-- Node11 -->
<g id="node8" class="node">
<title>Node11</title>
<g id="a_node8"><a xlink:href="classEventListener.html#a831820a9229e852bd7e2fad686b725b2" target="_top" xlink:title="EventListener::ReceiveEvent">
<polygon fill="#ffffff" stroke="#000000" points="559,-304.5 559,-323.5 714,-323.5 714,-304.5 559,-304.5"/>
<text text-anchor="middle" x="636.5" y="-311.5" font-family="Helvetica,sans-Serif" font-size="10.00" fill="#000000">EventListener::ReceiveEvent</text>
</a>
</g>
</g>
<!-- Node9&#45;&gt;Node11 -->
<g id="edge7" class="edge">
<title>Node9&#45;&gt;Node11</title>
<path fill="none" stroke="#191970" d="M479.9698,-285.54C508.5413,-290.7348 544.0796,-297.1963 574.0691,-302.6489"/>
<polygon fill="#191970" stroke="#191970" points="573.5438,-306.1107 584.0087,-304.4561 574.7961,-299.2236 573.5438,-306.1107"/>
</g>
<!-- Node12 -->
<g id="node9" class="node">
<title>Node12</title>
<g id="a_node9"><a xlink:href="classPreallocated.html#aaf2139a79ca16de70acd9bc4564171b7" target="_top" xlink:title="Preallocated::RTDelete">
<polygon fill="#ffffff" stroke="#000000" points="572.5,-266.5 572.5,-285.5 700.5,-285.5 700.5,-266.5 572.5,-266.5"/>
<text text-anchor="middle" x="636.5" y="-273.5" font-family="Helvetica,sans-Serif" font-size="10.00" fill="#000000">Preallocated::RTDelete</text>
</a>
</g>
</g>
<!-- Node9&#45;&gt;Node12 -->
<g id="edge8" class="edge">
<title>Node9&#45;&gt;Node12</title>
<path fill="none" stroke="#191970" d="M523.1311,-276C536.277,-276 549.6115,-276 562.2943,-276"/>
<polygon fill="#191970" stroke="#191970" points="562.3099,-279.5001 572.3099,-276 562.3098,-272.5001 562.3099,-279.5001"/>
</g>
<!-- Node16&#45;&gt;Node13 -->
<g id="edge14" class="edge">
<title>Node16&#45;&gt;Node13</title>
<path fill="none" stroke="#191970" d="M481.749,-125.9876C496.3195,-128.7467 511.2699,-133.8509 523,-143 552.4713,-165.9866 530.0419,-195.3702 559,-219 564.8295,-223.7569 571.6739,-227.3506 578.84,-230.0605"/>
<polygon fill="#191970" stroke="#191970" points="578.1553,-233.5163 588.7464,-233.2343 580.2911,-226.8501 578.1553,-233.5163"/>
</g>
<!-- Node17 -->
<g id="node14" class="node">
<title>Node17</title>
<g id="a_node14"><a xlink:href="classFweelin.html#a4422f3a93561eff272cd5f7ecb0782ee" target="_top" xlink:title="Fweelin::getRP">
<polygon fill="#ffffff" stroke="#000000" points="592,-190.5 592,-209.5 681,-209.5 681,-190.5 592,-190.5"/>
<text text-anchor="middle" x="636.5" y="-197.5" font-family="Helvetica,sans-Serif" font-size="10.00" fill="#000000">Fweelin::getRP</text>
</a>
</g>
</g>
<!-- Node16&#45;&gt;Node17 -->
<g id="edge13" class="edge">
<title>Node16&#45;&gt;Node17</title>
<path fill="none" stroke="#191970" d="M481.568,-128.8117C495.6661,-131.6281 510.4204,-136.0556 523,-143 543.3672,-154.2434 538.8853,-169.311 559,-181 566.0678,-185.1072 573.9949,-188.3305 582.0097,-190.8591"/>
<polygon fill="#191970" stroke="#191970" points="581.2031,-194.268 591.7776,-193.6116 583.1018,-187.5304 581.2031,-194.268"/>
</g>
<!-- Node18 -->
<g id="node15" class="node">
<title>Node18</title>
<g id="a_node15"><a xlink:href="classFweelin.html#a7b1253ea49ee57244a0d8cca152d72e5" target="_top" xlink:title="Fweelin::getLOOPMGR">
<polygon fill="#ffffff" stroke="#000000" points="574,-152.5 574,-171.5 699,-171.5 699,-152.5 574,-152.5"/>
<text text-anchor="middle" x="636.5" y="-159.5" font-family="Helvetica,sans-Serif" font-size="10.00" fill="#000000">Fweelin::getLOOPMGR</text>
</a>
</g>
</g>
<!-- Node16&#45;&gt;Node18 -->
<g id="edge15" class="edge">
<title>Node16&#45;&gt;Node18</title>
<path fill="none" stroke="#191970" d="M479.9698,-133.54C508.5413,-138.7348 544.0796,-145.1963 574.0691,-150.6489"/>
<polygon fill="#191970" stroke="#191970" points="573.5438,-154.1107 584.0087,-152.4561 574.7961,-147.2236 573.5438,-154.1107"/>
</g>
<!-- Node19 -->
<g id="node16" class="node">
<title>Node19</title>
<g id="a_node16"><a xlink:href="classLoopManager.html#a855f253885183cbe40f1b9e1b176895d" target="_top" xlink:title="LoopManager::SetSubdivide">
<polygon fill="#ffffff" stroke="#000000" points="560.5,-114.5 560.5,-133.5 712.5,-133.5 712.5,-114.5 560.5,-114.5"/>
<text text-anchor="middle" x="636.5" y="-121.5" font-family="Helvetica,sans-Serif" font-size="10.00" fill="#000000">LoopManager::SetSubdivide</text>
</a>
</g>
</g>
<!-- Node16&#45;&gt;Node19 -->
<g id="edge16" class="edge">
<title>Node16&#45;&gt;Node19</title>
<path fill="none" stroke="#191970" d="M481.5945,-124C502.4554,-124 526.8402,-124 550.0075,-124"/>
<polygon fill="#191970" stroke="#191970" points="550.1972,-127.5001 560.1972,-124 550.1972,-120.5001 550.1972,-127.5001"/>
</g>
<!-- Node20 -->
<g id="node17" class="node">
<title>Node20</title>
<g id="a_node17"><a xlink:href="classLoopManager.html#a28c81cf1fb5fdf13a633e33d06975a0d" target="_top" xlink:title="LoopManager::GetCurPulse">
<polygon fill="#ffffff" stroke="#000000" points="562.5,-76.5 562.5,-95.5 710.5,-95.5 710.5,-76.5 562.5,-76.5"/>
<text text-anchor="middle" x="636.5" y="-83.5" font-family="Helvetica,sans-Serif" font-size="10.00" fill="#000000">LoopManager::GetCurPulse</text>
</a>
</g>
</g>
<!-- Node16&#45;&gt;Node20 -->
<g id="edge17" class="edge">
<title>Node16&#45;&gt;Node20</title>
<path fill="none" stroke="#191970" d="M479.9698,-114.46C508.5413,-109.2652 544.0796,-102.8037 574.0691,-97.3511"/>
<polygon fill="#191970" stroke="#191970" points="574.7961,-100.7764 584.0087,-95.5439 573.5438,-93.8893 574.7961,-100.7764"/>
</g>
<!-- Node21 -->
<g id="node18" class="node">
<title>Node21</title>
<g id="a_node18"><a xlink:href="classPulse.html#a360cef541dc2460d10b6d2f5e29cc7b8" target="_top" xlink:title="Pulse::SwitchMetronome">
<polygon fill="#ffffff" stroke="#000000" points="568,-38.5 568,-57.5 705,-57.5 705,-38.5 568,-38.5"/>
<text text-anchor="middle" x="636.5" y="-45.5" font-family="Helvetica,sans-Serif" font-size="10.00" fill="#000000">Pulse::SwitchMetronome</text>
</a>
</g>
</g>
<!-- Node16&#45;&gt;Node21 -->
<g id="edge18" class="edge">
<title>Node16&#45;&gt;Node21</title>
<path fill="none" stroke="#191970" d="M481.568,-119.1883C495.6661,-116.3719 510.4204,-111.9444 523,-105 543.3672,-93.7566 538.8853,-78.689 559,-67 562.8778,-64.7466 567.0143,-62.7592 571.282,-61.0067"/>
<polygon fill="#191970" stroke="#191970" points="572.5943,-64.2535 580.7849,-57.533 570.191,-57.679 572.5943,-64.2535"/>
</g>
<!-- Node22 -->
<g id="node19" class="node">
<title>Node22</title>
<g id="a_node19"><a xlink:href="classPulse.html#a1bbb8df37e9d9c23cd3835995378a80b" target="_top" xlink:title="Pulse::IsMetronomeActive">
<polygon fill="#ffffff" stroke="#000000" points="565,-.5 565,-19.5 708,-19.5 708,-.5 565,-.5"/>
<text text-anchor="middle" x="636.5" y="-7.5" font-family="Helvetica,sans-Serif" font-size="10.00" fill="#000000">Pulse::IsMetronomeActive</text>
</a>
</g>
</g>
<!-- Node16&#45;&gt;Node22 -->
<g id="edge19" class="edge">
<title>Node16&#45;&gt;Node22</title>
<path fill="none" stroke="#191970" d="M481.749,-122.0124C496.3195,-119.2533 511.2699,-114.1491 523,-105 552.4713,-82.0134 530.0419,-52.6298 559,-29 561.0662,-27.314 563.2598,-25.7741 565.5501,-24.368"/>
<polygon fill="#191970" stroke="#191970" points="567.5261,-27.2862 574.7976,-19.5806 564.3079,-21.0698 567.5261,-27.2862"/>
</g>
</g>
</svg>
