<?xml version="1.0" encoding="UTF-8" standalone="no"?>
<!DOCTYPE svg PUBLIC "-//W3C//DTD SVG 1.1//EN"
 "http://www.w3.org/Graphics/SVG/1.1/DTD/svg11.dtd">
<!-- Generated by graphviz version 2.40.1 (20161225.0304)
 -->
<!-- Title: StripeBlockManager::Setup Pages: 1 -->
<svg width="1050pt" height="104pt"
 viewBox="0.00 0.00 1050.00 104.00" xmlns="http://www.w3.org/2000/svg" xmlns:xlink="http://www.w3.org/1999/xlink">
<g id="graph0" class="graph" transform="scale(1 1) rotate(0) translate(4 100)">
<title>StripeBlockManager::Setup</title>
<polygon fill="#ffffff" stroke="transparent" points="-4,4 -4,-100 1046,-100 1046,4 -4,4"/>
<!-- Node11 -->
<g id="node1" class="node">
<title>Node11</title>
<polygon fill="#bfbfbf" stroke="#000000" points="0,-33 0,-63 114,-63 114,-33 0,-33"/>
<text text-anchor="start" x="8" y="-51" font-family="Helvetica,sans-Serif" font-size="10.00" fill="#000000">StripeBlockManager</text>
<text text-anchor="middle" x="57" y="-40" font-family="Helvetica,sans-Serif" font-size="10.00" fill="#000000">::Setup</text>
</g>
<!-- Node12 -->
<g id="node2" class="node">
<title>Node12</title>
<g id="a_node2"><a xlink:href="classBlockManager.html#a718110289099d5b729ce3b28d0ac09fb" target="_top" xlink:title="BlockManager::StripeBlockOn">
<polygon fill="#ffffff" stroke="#000000" points="150,-38.5 150,-57.5 311,-57.5 311,-38.5 150,-38.5"/>
<text text-anchor="middle" x="230.5" y="-45.5" font-family="Helvetica,sans-Serif" font-size="10.00" fill="#000000">BlockManager::StripeBlockOn</text>
</a>
</g>
</g>
<!-- Node11&#45;&gt;Node12 -->
<g id="edge1" class="edge">
<title>Node11&#45;&gt;Node12</title>
<path fill="none" stroke="#191970" d="M124.304,-48C132.6333,-48 141.2147,-48 149.7193,-48"/>
<polygon fill="#191970" stroke="#191970" points="124.2913,-44.5001 114.2912,-48 124.2912,-51.5001 124.2913,-44.5001"/>
</g>
<!-- Node13 -->
<g id="node3" class="node">
<title>Node13</title>
<g id="a_node3"><a xlink:href="classLoopManager.html#a5630b6fefdfc931ac0ab511c6b77cecf" target="_top" xlink:title="LoopManager::StripePulseOn">
<polygon fill="#ffffff" stroke="#000000" points="347,-38.5 347,-57.5 503,-57.5 503,-38.5 347,-38.5"/>
<text text-anchor="middle" x="425" y="-45.5" font-family="Helvetica,sans-Serif" font-size="10.00" fill="#000000">LoopManager::StripePulseOn</text>
</a>
</g>
</g>
<!-- Node12&#45;&gt;Node13 -->
<g id="edge2" class="edge">
<title>Node12&#45;&gt;Node13</title>
<path fill="none" stroke="#191970" d="M321.0432,-48C329.6273,-48 338.2813,-48 346.7362,-48"/>
<polygon fill="#191970" stroke="#191970" points="321.0146,-44.5001 311.0146,-48 321.0146,-51.5001 321.0146,-44.5001"/>
</g>
<!-- Node14 -->
<g id="node4" class="node">
<title>Node14</title>
<g id="a_node4"><a xlink:href="classLoopManager.html#ab79aef15f1e783de1ab6827378bea274" target="_top" xlink:title="LoopManager::SelectPulse">
<polygon fill="#ffffff" stroke="#000000" points="540,-38.5 540,-57.5 684,-57.5 684,-38.5 540,-38.5"/>
<text text-anchor="middle" x="612" y="-45.5" font-family="Helvetica,sans-Serif" font-size="10.00" fill="#000000">LoopManager::SelectPulse</text>
</a>
</g>
</g>
<!-- Node13&#45;&gt;Node14 -->
<g id="edge3" class="edge">
<title>Node13&#45;&gt;Node14</title>
<path fill="none" stroke="#191970" d="M513.5039,-48C522.3023,-48 531.1598,-48 539.7636,-48"/>
<polygon fill="#191970" stroke="#191970" points="513.2214,-44.5001 503.2213,-48 513.2213,-51.5001 513.2214,-44.5001"/>
</g>
<!-- Node15 -->
<g id="node5" class="node">
<title>Node15</title>
<g id="a_node5"><a xlink:href="classLoopManager.html#a67c6f44d33880b35c875a8e6ea8babac" target="_top" xlink:title="LoopManager::TapPulse">
<polygon fill="#ffffff" stroke="#000000" points="721,-76.5 721,-95.5 852,-95.5 852,-76.5 721,-76.5"/>
<text text-anchor="middle" x="786.5" y="-83.5" font-family="Helvetica,sans-Serif" font-size="10.00" fill="#000000">LoopManager::TapPulse</text>
</a>
</g>
</g>
<!-- Node13&#45;&gt;Node15 -->
<g id="edge8" class="edge">
<title>Node13&#45;&gt;Node15</title>
<path fill="none" stroke="#191970" d="M486.0784,-59.2037C503.1609,-62.058 521.7668,-64.9066 539,-67 600.4972,-74.4704 670.9691,-79.5421 720.946,-82.5534"/>
<polygon fill="#191970" stroke="#191970" points="486.6636,-55.7531 476.2185,-57.5282 485.4908,-62.6541 486.6636,-55.7531"/>
</g>
<!-- Node17 -->
<g id="node7" class="node">
<title>Node17</title>
<g id="a_node7"><a xlink:href="classLoopManager.html#a705436ae811a121ed3285ab34b144bfe" target="_top" xlink:title="LoopManager::CreatePulse">
<polygon fill="#ffffff" stroke="#000000" points="539,-.5 539,-19.5 685,-19.5 685,-.5 539,-.5"/>
<text text-anchor="middle" x="612" y="-7.5" font-family="Helvetica,sans-Serif" font-size="10.00" fill="#000000">LoopManager::CreatePulse</text>
</a>
</g>
</g>
<!-- Node13&#45;&gt;Node17 -->
<g id="edge7" class="edge">
<title>Node13&#45;&gt;Node17</title>
<path fill="none" stroke="#191970" d="M482.131,-36.3905C508.7267,-30.986 539.9731,-24.6365 565.1513,-19.5201"/>
<polygon fill="#191970" stroke="#191970" points="481.2907,-32.9896 472.188,-38.411 482.6847,-39.8494 481.2907,-32.9896"/>
</g>
<!-- Node14&#45;&gt;Node15 -->
<g id="edge4" class="edge">
<title>Node14&#45;&gt;Node15</title>
<path fill="none" stroke="#191970" d="M665.9691,-59.7526C690.6433,-65.1258 719.4948,-71.4086 742.7829,-76.4799"/>
<polygon fill="#191970" stroke="#191970" points="666.5495,-56.297 656.0337,-57.589 665.06,-63.1367 666.5495,-56.297"/>
</g>
<!-- Node16 -->
<g id="node6" class="node">
<title>Node16</title>
<g id="a_node6"><a xlink:href="classLoopManager.html#a4aada2d07b7ce0a67a8119ece4805966" target="_top" xlink:title="LoopManager::ReceiveEvent">
<polygon fill="#ffffff" stroke="#000000" points="888,-57.5 888,-76.5 1042,-76.5 1042,-57.5 888,-57.5"/>
<text text-anchor="middle" x="965" y="-64.5" font-family="Helvetica,sans-Serif" font-size="10.00" fill="#000000">LoopManager::ReceiveEvent</text>
</a>
</g>
</g>
<!-- Node14&#45;&gt;Node16 -->
<g id="edge6" class="edge">
<title>Node14&#45;&gt;Node16</title>
<path fill="none" stroke="#191970" d="M694.5901,-52.4454C753.0026,-55.5894 830.776,-59.7755 887.9178,-62.8511"/>
<polygon fill="#191970" stroke="#191970" points="694.4603,-48.9334 684.2866,-51.8908 694.084,-55.9233 694.4603,-48.9334"/>
</g>
<!-- Node15&#45;&gt;Node16 -->
<g id="edge5" class="edge">
<title>Node15&#45;&gt;Node16</title>
<path fill="none" stroke="#191970" d="M862.4152,-77.9194C870.8683,-77.0196 879.4846,-76.1025 887.9516,-75.2012"/>
<polygon fill="#191970" stroke="#191970" points="861.7797,-74.4672 852.2064,-79.006 862.5207,-81.4279 861.7797,-74.4672"/>
</g>
</g>
</svg>
