<?xml version="1.0" encoding="UTF-8" standalone="no"?>
<!DOCTYPE svg PUBLIC "-//W3C//DTD SVG 1.1//EN"
 "http://www.w3.org/Graphics/SVG/1.1/DTD/svg11.dtd">
<!-- Generated by graphviz version 2.40.1 (20161225.0304)
 -->
<!-- Title: Pulse::IsMetronomeActive Pages: 1 -->
<svg width="710pt" height="85pt"
 viewBox="0.00 0.00 710.00 85.00" xmlns="http://www.w3.org/2000/svg" xmlns:xlink="http://www.w3.org/1999/xlink">
<g id="graph0" class="graph" transform="scale(1 1) rotate(0) translate(4 81)">
<title>Pulse::IsMetronomeActive</title>
<polygon fill="#ffffff" stroke="transparent" points="-4,4 -4,-81 706,-81 706,4 -4,4"/>
<!-- Node74 -->
<g id="node1" class="node">
<title>Node74</title>
<polygon fill="#bfbfbf" stroke="#000000" points="0,-19.5 0,-38.5 143,-38.5 143,-19.5 0,-19.5"/>
<text text-anchor="middle" x="71.5" y="-26.5" font-family="Helvetica,sans-Serif" font-size="10.00" fill="#000000">Pulse::IsMetronomeActive</text>
</g>
<!-- Node75 -->
<g id="node2" class="node">
<title>Node75</title>
<g id="a_node2"><a xlink:href="classSDLIO.html#a491e66a604fb750866d5de45dfa6aae0" target="_top" xlink:title="SDLIO::handle_key">
<polygon fill="#ffffff" stroke="#000000" points="179,-19.5 179,-38.5 287,-38.5 287,-19.5 179,-19.5"/>
<text text-anchor="middle" x="233" y="-26.5" font-family="Helvetica,sans-Serif" font-size="10.00" fill="#000000">SDLIO::handle_key</text>
</a>
</g>
</g>
<!-- Node74&#45;&gt;Node75 -->
<g id="edge1" class="edge">
<title>Node74&#45;&gt;Node75</title>
<path fill="none" stroke="#191970" d="M153.4095,-29C162.0545,-29 170.6817,-29 178.8947,-29"/>
<polygon fill="#191970" stroke="#191970" points="153.2768,-25.5001 143.2768,-29 153.2767,-32.5001 153.2768,-25.5001"/>
</g>
<!-- Node76 -->
<g id="node3" class="node">
<title>Node76</title>
<g id="a_node3"><a xlink:href="classSDLIO.html#ad1b1bf6d23251b3014749b18497c1b91" target="_top" xlink:title="SDLIO::run_sdl_thread">
<polygon fill="#ffffff" stroke="#000000" points="323,-19.5 323,-38.5 447,-38.5 447,-19.5 323,-19.5"/>
<text text-anchor="middle" x="385" y="-26.5" font-family="Helvetica,sans-Serif" font-size="10.00" fill="#000000">SDLIO::run_sdl_thread</text>
</a>
</g>
</g>
<!-- Node75&#45;&gt;Node76 -->
<g id="edge2" class="edge">
<title>Node75&#45;&gt;Node76</title>
<path fill="none" stroke="#191970" d="M297.2393,-29C305.725,-29 314.4111,-29 322.8606,-29"/>
<polygon fill="#191970" stroke="#191970" points="297.0175,-25.5001 287.0175,-29 297.0175,-32.5001 297.0175,-25.5001"/>
</g>
<!-- Node77 -->
<g id="node4" class="node">
<title>Node77</title>
<g id="a_node4"><a xlink:href="classFweelin.html#a268997890fa59492e27b4787c6bdc41f" target="_top" xlink:title="Fweelin::go">
<polygon fill="#ffffff" stroke="#000000" points="493,-38.5 493,-57.5 565,-57.5 565,-38.5 493,-38.5"/>
<text text-anchor="middle" x="529" y="-45.5" font-family="Helvetica,sans-Serif" font-size="10.00" fill="#000000">Fweelin::go</text>
</a>
</g>
</g>
<!-- Node76&#45;&gt;Node77 -->
<g id="edge3" class="edge">
<title>Node76&#45;&gt;Node77</title>
<path fill="none" stroke="#191970" d="M457.5557,-38.5733C469.7682,-40.1847 481.9594,-41.7933 492.7237,-43.2135"/>
<polygon fill="#191970" stroke="#191970" points="457.6949,-35.0614 447.323,-37.2232 456.7792,-42.0013 457.6949,-35.0614"/>
</g>
<!-- Node80 -->
<g id="node7" class="node">
<title>Node80</title>
<g id="a_node7"><a xlink:href="classSDLIO.html#a219c64dd0f01ca0fe0319ba7a0a3379e" target="_top" xlink:title="SDLIO::activate">
<polygon fill="#ffffff" stroke="#000000" points="483,-.5 483,-19.5 575,-19.5 575,-.5 483,-.5"/>
<text text-anchor="middle" x="529" y="-7.5" font-family="Helvetica,sans-Serif" font-size="10.00" fill="#000000">SDLIO::activate</text>
</a>
</g>
</g>
<!-- Node76&#45;&gt;Node80 -->
<g id="edge6" class="edge">
<title>Node76&#45;&gt;Node80</title>
<path fill="none" stroke="#191970" d="M457.3832,-19.4494C465.9752,-18.3158 474.56,-17.1831 482.648,-16.1159"/>
<polygon fill="#191970" stroke="#191970" points="456.7792,-15.9987 447.323,-20.7768 457.6949,-22.9386 456.7792,-15.9987"/>
</g>
<!-- Node78 -->
<g id="node5" class="node">
<title>Node78</title>
<g id="a_node5"><a xlink:href="fweelin_8cc.html#a97b0fa62b7b0972875f5f589322c4c24" target="_top" xlink:title="main">
<polygon fill="#ffffff" stroke="#000000" points="636,-57.5 636,-76.5 677,-76.5 677,-57.5 636,-57.5"/>
<text text-anchor="middle" x="656.5" y="-64.5" font-family="Helvetica,sans-Serif" font-size="10.00" fill="#000000">main</text>
</a>
</g>
</g>
<!-- Node77&#45;&gt;Node78 -->
<g id="edge4" class="edge">
<title>Node77&#45;&gt;Node78</title>
<path fill="none" stroke="#191970" d="M575.127,-54.8738C595.8883,-57.9677 619.3559,-61.4648 635.7356,-63.9057"/>
<polygon fill="#191970" stroke="#191970" points="575.602,-51.406 565.1953,-53.3938 574.5702,-58.3296 575.602,-51.406"/>
</g>
<!-- Node79 -->
<g id="node6" class="node">
<title>Node79</title>
<g id="a_node6"><a xlink:href="classLoopTray.html#a307e6abe64c403e39fc463ec282bde27" target="_top" xlink:title="LoopTray::Draw">
<polygon fill="#ffffff" stroke="#000000" points="611,-19.5 611,-38.5 702,-38.5 702,-19.5 611,-19.5"/>
<text text-anchor="middle" x="656.5" y="-26.5" font-family="Helvetica,sans-Serif" font-size="10.00" fill="#000000">LoopTray::Draw</text>
</a>
</g>
</g>
<!-- Node77&#45;&gt;Node79 -->
<g id="edge5" class="edge">
<title>Node77&#45;&gt;Node79</title>
<path fill="none" stroke="#191970" d="M575.1051,-41.1294C586.6768,-39.405 599.0904,-37.5552 610.6497,-35.8326"/>
<polygon fill="#191970" stroke="#191970" points="574.5702,-37.6704 565.1953,-42.6062 575.602,-44.594 574.5702,-37.6704"/>
</g>
</g>
</svg>
