<?xml version="1.0" encoding="UTF-8" standalone="no"?>
<!DOCTYPE svg PUBLIC "-//W3C//DTD SVG 1.1//EN"
 "http://www.w3.org/Graphics/SVG/1.1/DTD/svg11.dtd">
<!-- Generated by graphviz version 2.40.1 (20161225.0304)
 -->
<!-- Title: AudioBlockIterator::AudioBlockIterator Pages: 1 -->
<svg width="894pt" height="66pt"
 viewBox="0.00 0.00 894.00 66.00" xmlns="http://www.w3.org/2000/svg" xmlns:xlink="http://www.w3.org/1999/xlink">
<g id="graph0" class="graph" transform="scale(1 1) rotate(0) translate(4 62)">
<title>AudioBlockIterator::AudioBlockIterator</title>
<polygon fill="#ffffff" stroke="transparent" points="-4,4 -4,-62 890,-62 890,4 -4,4"/>
<!-- Node1 -->
<g id="node1" class="node">
<title>Node1</title>
<polygon fill="#bfbfbf" stroke="#000000" points="0,-14 0,-44 113,-44 113,-14 0,-14"/>
<text text-anchor="start" x="8" y="-32" font-family="Helvetica,sans-Serif" font-size="10.00" fill="#000000">AudioBlockIterator</text>
<text text-anchor="middle" x="56.5" y="-21" font-family="Helvetica,sans-Serif" font-size="10.00" fill="#000000">::AudioBlockIterator</text>
</g>
<!-- Node2 -->
<g id="node2" class="node">
<title>Node2</title>
<g id="a_node2"><a xlink:href="classPeaksAvgsManager.html#a4523d9df43dc9ee00f25cad935271380" target="_top" xlink:title="PeaksAvgsManager::Setup">
<polygon fill="#ffffff" stroke="#000000" points="149,-19.5 149,-38.5 294,-38.5 294,-19.5 149,-19.5"/>
<text text-anchor="middle" x="221.5" y="-26.5" font-family="Helvetica,sans-Serif" font-size="10.00" fill="#000000">PeaksAvgsManager::Setup</text>
</a>
</g>
</g>
<!-- Node1&#45;&gt;Node2 -->
<g id="edge1" class="edge">
<title>Node1&#45;&gt;Node2</title>
<path fill="none" stroke="#191970" d="M123.3869,-29C131.7809,-29 140.3987,-29 148.8754,-29"/>
<polygon fill="#191970" stroke="#191970" points="123.2837,-25.5001 113.2836,-29 123.2836,-32.5001 123.2837,-25.5001"/>
</g>
<!-- Node3 -->
<g id="node3" class="node">
<title>Node3</title>
<g id="a_node3"><a xlink:href="classBlockManager.html#af050835c736257358a3f572f8422ff1d" target="_top" xlink:title="BlockManager::PeakAvgOn">
<polygon fill="#ffffff" stroke="#000000" points="330,-19.5 330,-38.5 477,-38.5 477,-19.5 330,-19.5"/>
<text text-anchor="middle" x="403.5" y="-26.5" font-family="Helvetica,sans-Serif" font-size="10.00" fill="#000000">BlockManager::PeakAvgOn</text>
</a>
</g>
</g>
<!-- Node2&#45;&gt;Node3 -->
<g id="edge2" class="edge">
<title>Node2&#45;&gt;Node3</title>
<path fill="none" stroke="#191970" d="M304.433,-29C312.8632,-29 321.3865,-29 329.7104,-29"/>
<polygon fill="#191970" stroke="#191970" points="304.2159,-25.5001 294.2159,-29 304.2158,-32.5001 304.2159,-25.5001"/>
</g>
<!-- Node4 -->
<g id="node4" class="node">
<title>Node4</title>
<g id="a_node4"><a xlink:href="classBlockReadManager.html#af12804c61f944904eedf8c9edf5cd3bd" target="_top" xlink:title="BlockReadManager::Start">
<polygon fill="#ffffff" stroke="#000000" points="535,-38.5 535,-57.5 674,-57.5 674,-38.5 535,-38.5"/>
<text text-anchor="middle" x="604.5" y="-45.5" font-family="Helvetica,sans-Serif" font-size="10.00" fill="#000000">BlockReadManager::Start</text>
</a>
</g>
</g>
<!-- Node3&#45;&gt;Node4 -->
<g id="edge3" class="edge">
<title>Node3&#45;&gt;Node4</title>
<path fill="none" stroke="#191970" d="M487.4646,-36.9369C503.2269,-38.4269 519.5473,-39.9696 534.8169,-41.413"/>
<polygon fill="#191970" stroke="#191970" points="487.4887,-33.4237 477.2036,-35.967 486.8299,-40.3926 487.4887,-33.4237"/>
</g>
<!-- Node6 -->
<g id="node6" class="node">
<title>Node6</title>
<g id="a_node6"><a xlink:href="classRecordProcessor.html#a1aea5f833c59a12398b05b514b26b572" target="_top" xlink:title="RecordProcessor::RecordProcessor">
<polygon fill="#ffffff" stroke="#000000" points="513,-.5 513,-19.5 696,-19.5 696,-.5 513,-.5"/>
<text text-anchor="middle" x="604.5" y="-7.5" font-family="Helvetica,sans-Serif" font-size="10.00" fill="#000000">RecordProcessor::RecordProcessor</text>
</a>
</g>
</g>
<!-- Node3&#45;&gt;Node6 -->
<g id="edge5" class="edge">
<title>Node3&#45;&gt;Node6</title>
<path fill="none" stroke="#191970" d="M487.3225,-21.0765C495.696,-20.285 504.2285,-19.4784 512.6785,-18.6796"/>
<polygon fill="#191970" stroke="#191970" points="486.8299,-17.6074 477.2036,-22.033 487.4887,-24.5763 486.8299,-17.6074"/>
</g>
<!-- Node5 -->
<g id="node5" class="node">
<title>Node5</title>
<g id="a_node5"><a xlink:href="classBlockReadManager.html#aa990976dec4a3ec5bd6384b54ce5f09b" target="_top" xlink:title="BlockReadManager::Manage">
<polygon fill="#ffffff" stroke="#000000" points="732,-38.5 732,-57.5 886,-57.5 886,-38.5 732,-38.5"/>
<text text-anchor="middle" x="809" y="-45.5" font-family="Helvetica,sans-Serif" font-size="10.00" fill="#000000">BlockReadManager::Manage</text>
</a>
</g>
</g>
<!-- Node4&#45;&gt;Node5 -->
<g id="edge4" class="edge">
<title>Node4&#45;&gt;Node5</title>
<path fill="none" stroke="#191970" d="M684.2097,-48C699.9047,-48 716.3454,-48 731.9508,-48"/>
<polygon fill="#191970" stroke="#191970" points="684.0198,-44.5001 674.0197,-48 684.0197,-51.5001 684.0198,-44.5001"/>
</g>
</g>
</svg>
