<?xml version="1.0" encoding="UTF-8" standalone="no"?>
<!DOCTYPE svg PUBLIC "-//W3C//DTD SVG 1.1//EN"
 "http://www.w3.org/Graphics/SVG/1.1/DTD/svg11.dtd">
<!-- Generated by graphviz version 2.40.1 (20161225.0304)
 -->
<!-- Title: T Pages: 1 -->
<svg width="157pt" height="160pt"
 viewBox="0.00 0.00 157.00 160.00" xmlns="http://www.w3.org/2000/svg" xmlns:xlink="http://www.w3.org/1999/xlink">
<g id="graph0" class="graph" transform="scale(1 1) rotate(0) translate(4 156)">
<title>T</title>
<polygon fill="#ffffff" stroke="transparent" points="-4,4 -4,-156 153,-156 153,4 -4,4"/>
<!-- Node0 -->
<g id="node1" class="node">
<title>Node0</title>
<polygon fill="#bfbfbf" stroke="#000000" points="60,-94.5 60,-151.5 89,-151.5 89,-94.5 60,-94.5"/>
<text text-anchor="middle" x="74.5" y="-139.5" font-family="Helvetica,sans-Serif" font-size="10.00" fill="#000000">T</text>
<polyline fill="none" stroke="#000000" points="60,-132.5 89,-132.5 "/>
<text text-anchor="middle" x="74.5" y="-120.5" font-family="Helvetica,sans-Serif" font-size="10.00" fill="#000000"> </text>
<polyline fill="none" stroke="#000000" points="60,-113.5 89,-113.5 "/>
<text text-anchor="middle" x="74.5" y="-101.5" font-family="Helvetica,sans-Serif" font-size="10.00" fill="#000000"> </text>
</g>
<!-- Node1 -->
<g id="node2" class="node">
<title>Node1</title>
<g id="a_node2"><a xlink:href="classRTStore_1_1RTStoreItem.html" target="_top" xlink:title="{RTStore\&lt; T \&gt;::RTStoreItem\n|+ item_status\l|+ RTStoreItem()\l}">
<polygon fill="#ffffff" stroke="#000000" points="0,-.5 0,-57.5 149,-57.5 149,-.5 0,-.5"/>
<text text-anchor="middle" x="74.5" y="-45.5" font-family="Helvetica,sans-Serif" font-size="10.00" fill="#000000">RTStore&lt; T &gt;::RTStoreItem</text>
<polyline fill="none" stroke="#000000" points="0,-38.5 149,-38.5 "/>
<text text-anchor="start" x="8" y="-26.5" font-family="Helvetica,sans-Serif" font-size="10.00" fill="#000000">+ item_status</text>
<polyline fill="none" stroke="#000000" points="0,-19.5 149,-19.5 "/>
<text text-anchor="start" x="8" y="-7.5" font-family="Helvetica,sans-Serif" font-size="10.00" fill="#000000">+ RTStoreItem()</text>
</a>
</g>
</g>
<!-- Node0&#45;&gt;Node1 -->
<g id="edge1" class="edge">
<title>Node0&#45;&gt;Node1</title>
<path fill="none" stroke="#191970" d="M74.5,-84.1035C74.5,-75.2052 74.5,-65.9073 74.5,-57.538"/>
<polygon fill="none" stroke="#191970" points="71.0001,-84.2861 74.5,-94.2861 78.0001,-84.2862 71.0001,-84.2861"/>
</g>
</g>
</svg>
