<?xml version="1.0" encoding="UTF-8" standalone="no"?>
<!DOCTYPE svg PUBLIC "-//W3C//DTD SVG 1.1//EN"
 "http://www.w3.org/Graphics/SVG/1.1/DTD/svg11.dtd">
<!-- Generated by graphviz version 2.40.1 (20161225.0304)
 -->
<!-- Title: iec_dB_to_fader Pages: 1 -->
<svg width="673pt" height="230pt"
 viewBox="0.00 0.00 673.00 229.50" xmlns="http://www.w3.org/2000/svg" xmlns:xlink="http://www.w3.org/1999/xlink">
<g id="graph0" class="graph" transform="scale(1 1) rotate(0) translate(4 225.5)">
<title>iec_dB_to_fader</title>
<polygon fill="#ffffff" stroke="transparent" points="-4,4 -4,-225.5 669,-225.5 669,4 -4,4"/>
<!-- Node1 -->
<g id="node1" class="node">
<title>Node1</title>
<polygon fill="#bfbfbf" stroke="#000000" points="0,-88 0,-107 95,-107 95,-88 0,-88"/>
<text text-anchor="middle" x="47.5" y="-95" font-family="Helvetica,sans-Serif" font-size="10.00" fill="#000000">iec_dB_to_fader</text>
</g>
<!-- Node2 -->
<g id="node2" class="node">
<title>Node2</title>
<g id="a_node2"><a xlink:href="classAudioLevel.html#a6237f0fe89cafad73b27ffdd837c20d3" target="_top" xlink:title="AudioLevel::fader_to_dB">
<polygon fill="#ffffff" stroke="#000000" points="131,-126 131,-145 266,-145 266,-126 131,-126"/>
<text text-anchor="middle" x="198.5" y="-133" font-family="Helvetica,sans-Serif" font-size="10.00" fill="#000000">AudioLevel::fader_to_dB</text>
</a>
</g>
</g>
<!-- Node1&#45;&gt;Node2 -->
<g id="edge1" class="edge">
<title>Node1&#45;&gt;Node2</title>
<path fill="none" stroke="#191970" d="M95.3431,-109.54C116.4386,-114.8488 140.8766,-120.9988 160.6703,-125.9799"/>
<polygon fill="#191970" stroke="#191970" points="96.1555,-106.1354 85.6037,-107.089 94.4471,-112.9237 96.1555,-106.1354"/>
</g>
<!-- Node8 -->
<g id="node8" class="node">
<title>Node8</title>
<g id="a_node8"><a xlink:href="classAudioLevel.html#a1caa1395a52d7e61691c54f0286914dd" target="_top" xlink:title="AudioLevel::dB_to_fader">
<polygon fill="#ffffff" stroke="#000000" points="131,-50 131,-69 266,-69 266,-50 131,-50"/>
<text text-anchor="middle" x="198.5" y="-57" font-family="Helvetica,sans-Serif" font-size="10.00" fill="#000000">AudioLevel::dB_to_fader</text>
</a>
</g>
</g>
<!-- Node1&#45;&gt;Node8 -->
<g id="edge9" class="edge">
<title>Node1&#45;&gt;Node8</title>
<path fill="none" stroke="#191970" d="M95.3431,-85.46C116.4386,-80.1512 140.8766,-74.0012 160.6703,-69.0201"/>
<polygon fill="#191970" stroke="#191970" points="94.4471,-82.0763 85.6037,-87.911 96.1555,-88.8646 94.4471,-82.0763"/>
</g>
<!-- Node3 -->
<g id="node3" class="node">
<title>Node3</title>
<g id="a_node3"><a xlink:href="classInputMatrix.html#aa74204a205a10f2b60809ea124db9173" target="_top" xlink:title="InputMatrix::ReceiveEvent">
<polygon fill="#ffffff" stroke="#000000" points="316.5,-202 316.5,-221 460.5,-221 460.5,-202 316.5,-202"/>
<text text-anchor="middle" x="388.5" y="-209" font-family="Helvetica,sans-Serif" font-size="10.00" fill="#000000">InputMatrix::ReceiveEvent</text>
</a>
</g>
</g>
<!-- Node2&#45;&gt;Node3 -->
<g id="edge2" class="edge">
<title>Node2&#45;&gt;Node3</title>
<path fill="none" stroke="#191970" d="M221.514,-150.7041C241.8992,-163.5427 272.8627,-181.539 302,-192.5 312.0736,-196.2895 323.1056,-199.4272 333.8187,-201.9863"/>
<polygon fill="#191970" stroke="#191970" points="223.2456,-147.6569 212.9367,-145.212 219.4709,-153.552 223.2456,-147.6569"/>
</g>
<!-- Node4 -->
<g id="node4" class="node">
<title>Node4</title>
<g id="a_node4"><a xlink:href="classLoopManager.html#a82f420b74ebb790061772cb2ea23d83d" target="_top" xlink:title="LoopManager::SetOutputVolume">
<polygon fill="#ffffff" stroke="#000000" points="302,-164 302,-183 475,-183 475,-164 302,-164"/>
<text text-anchor="middle" x="388.5" y="-171" font-family="Helvetica,sans-Serif" font-size="10.00" fill="#000000">LoopManager::SetOutputVolume</text>
</a>
</g>
</g>
<!-- Node2&#45;&gt;Node4 -->
<g id="edge3" class="edge">
<title>Node2&#45;&gt;Node4</title>
<path fill="none" stroke="#191970" d="M256.5475,-147.1095C283.5699,-152.514 315.3176,-158.8635 340.8997,-163.9799"/>
<polygon fill="#191970" stroke="#191970" points="256.9373,-143.6182 246.445,-145.089 255.5644,-150.4823 256.9373,-143.6182"/>
</g>
<!-- Node6 -->
<g id="node6" class="node">
<title>Node6</title>
<g id="a_node6"><a xlink:href="classLoopManager.html#ad636c6280f2a5a6bfe45f94946dc3a9f" target="_top" xlink:title="LoopManager::SetInputVolume">
<polygon fill="#ffffff" stroke="#000000" points="306,-126 306,-145 471,-145 471,-126 306,-126"/>
<text text-anchor="middle" x="388.5" y="-133" font-family="Helvetica,sans-Serif" font-size="10.00" fill="#000000">LoopManager::SetInputVolume</text>
</a>
</g>
</g>
<!-- Node2&#45;&gt;Node6 -->
<g id="edge5" class="edge">
<title>Node2&#45;&gt;Node6</title>
<path fill="none" stroke="#191970" d="M276.1333,-135.5C285.9426,-135.5 296.0077,-135.5 305.8908,-135.5"/>
<polygon fill="#191970" stroke="#191970" points="276.0219,-132.0001 266.0219,-135.5 276.0218,-139.0001 276.0219,-132.0001"/>
</g>
<!-- Node7 -->
<g id="node7" class="node">
<title>Node7</title>
<g id="a_node7"><a xlink:href="classInputSettings.html#a6f6f097348037e0c518e8564847f6aff" target="_top" xlink:title="InputSettings::SetInputVol">
<polygon fill="#ffffff" stroke="#000000" points="317,-88 317,-107 460,-107 460,-88 317,-88"/>
<text text-anchor="middle" x="388.5" y="-95" font-family="Helvetica,sans-Serif" font-size="10.00" fill="#000000">InputSettings::SetInputVol</text>
</a>
</g>
</g>
<!-- Node2&#45;&gt;Node7 -->
<g id="edge7" class="edge">
<title>Node2&#45;&gt;Node7</title>
<path fill="none" stroke="#191970" d="M256.5475,-123.8905C283.5699,-118.486 315.3176,-112.1365 340.8997,-107.0201"/>
<polygon fill="#191970" stroke="#191970" points="255.5644,-120.5177 246.445,-125.911 256.9373,-127.3818 255.5644,-120.5177"/>
</g>
<!-- Node5 -->
<g id="node5" class="node">
<title>Node5</title>
<g id="a_node5"><a xlink:href="classLoopManager.html#a4aada2d07b7ce0a67a8119ece4805966" target="_top" xlink:title="LoopManager::ReceiveEvent">
<polygon fill="#ffffff" stroke="#000000" points="511,-126 511,-145 665,-145 665,-126 511,-126"/>
<text text-anchor="middle" x="588" y="-133" font-family="Helvetica,sans-Serif" font-size="10.00" fill="#000000">LoopManager::ReceiveEvent</text>
</a>
</g>
</g>
<!-- Node4&#45;&gt;Node5 -->
<g id="edge4" class="edge">
<title>Node4&#45;&gt;Node5</title>
<path fill="none" stroke="#191970" d="M448.4451,-162.0819C476.99,-156.6448 510.7371,-150.2168 537.8946,-145.0439"/>
<polygon fill="#191970" stroke="#191970" points="447.7532,-158.6507 438.5848,-163.96 449.0631,-165.527 447.7532,-158.6507"/>
</g>
<!-- Node6&#45;&gt;Node5 -->
<g id="edge6" class="edge">
<title>Node6&#45;&gt;Node5</title>
<path fill="none" stroke="#191970" d="M481.3479,-135.5C491.2442,-135.5 501.2315,-135.5 510.9177,-135.5"/>
<polygon fill="#191970" stroke="#191970" points="481.0844,-132.0001 471.0844,-135.5 481.0843,-139.0001 481.0844,-132.0001"/>
</g>
<!-- Node7&#45;&gt;Node5 -->
<g id="edge8" class="edge">
<title>Node7&#45;&gt;Node5</title>
<path fill="none" stroke="#191970" d="M448.4451,-108.9181C476.99,-114.3552 510.7371,-120.7832 537.8946,-125.9561"/>
<polygon fill="#191970" stroke="#191970" points="449.0631,-105.473 438.5848,-107.04 447.7532,-112.3493 449.0631,-105.473"/>
</g>
<!-- Node9 -->
<g id="node9" class="node">
<title>Node9</title>
<g id="a_node9"><a xlink:href="classFloDisplayBar.html#aa49253add55fdb47e70ee4344dfc38e2" target="_top" xlink:title="FloDisplayBar::Draw">
<polygon fill="#ffffff" stroke="#000000" points="330.5,-50 330.5,-69 446.5,-69 446.5,-50 330.5,-50"/>
<text text-anchor="middle" x="388.5" y="-57" font-family="Helvetica,sans-Serif" font-size="10.00" fill="#000000">FloDisplayBar::Draw</text>
</a>
</g>
</g>
<!-- Node8&#45;&gt;Node9 -->
<g id="edge10" class="edge">
<title>Node8&#45;&gt;Node9</title>
<path fill="none" stroke="#191970" d="M276.2498,-59.5C294.3255,-59.5 313.2633,-59.5 330.3259,-59.5"/>
<polygon fill="#191970" stroke="#191970" points="276.0219,-56.0001 266.0219,-59.5 276.0218,-63.0001 276.0219,-56.0001"/>
</g>
<!-- Node10 -->
<g id="node10" class="node">
<title>Node10</title>
<g id="a_node10"><a xlink:href="classFloDisplayBarSwitch.html#a272468a8334d56f0c493b5273774c88d" target="_top" xlink:title="FloDisplayBarSwitch\l::Draw">
<polygon fill="#ffffff" stroke="#000000" points="330.5,-.5 330.5,-30.5 446.5,-30.5 446.5,-.5 330.5,-.5"/>
<text text-anchor="start" x="338.5" y="-18.5" font-family="Helvetica,sans-Serif" font-size="10.00" fill="#000000">FloDisplayBarSwitch</text>
<text text-anchor="middle" x="388.5" y="-7.5" font-family="Helvetica,sans-Serif" font-size="10.00" fill="#000000">::Draw</text>
</a>
</g>
</g>
<!-- Node8&#45;&gt;Node10 -->
<g id="edge11" class="edge">
<title>Node8&#45;&gt;Node10</title>
<path fill="none" stroke="#191970" d="M249.704,-47.6422C274.6095,-41.8746 304.6561,-34.9165 330.4148,-28.9513"/>
<polygon fill="#191970" stroke="#191970" points="248.6797,-44.2867 239.7272,-49.9527 250.259,-51.1063 248.6797,-44.2867"/>
</g>
</g>
</svg>
