<?xml version="1.0" encoding="UTF-8" standalone="no"?>
<!DOCTYPE svg PUBLIC "-//W3C//DTD SVG 1.1//EN"
 "http://www.w3.org/Graphics/SVG/1.1/DTD/svg11.dtd">
<!-- Generated by graphviz version 2.40.1 (20161225.0304)
 -->
<!-- Title: src/fweelin_videoio.h Pages: 1 -->
<svg width="1920pt" height="319pt"
 viewBox="0.00 0.00 1919.65 319.00" xmlns="http://www.w3.org/2000/svg" xmlns:xlink="http://www.w3.org/1999/xlink">
<g id="graph0" class="graph" transform="scale(1 1) rotate(0) translate(4 315)">
<title>src/fweelin_videoio.h</title>
<polygon fill="#ffffff" stroke="transparent" points="-4,4 -4,-315 1915.6529,-315 1915.6529,4 -4,4"/>
<!-- Node18 -->
<g id="node1" class="node">
<title>Node18</title>
<polygon fill="#bfbfbf" stroke="#000000" points="1031.5,-291.5 1031.5,-310.5 1151.5,-310.5 1151.5,-291.5 1031.5,-291.5"/>
<text text-anchor="middle" x="1091.5" y="-298.5" font-family="Helvetica,sans-Serif" font-size="10.00" fill="#000000">src/fweelin_videoio.h</text>
</g>
<!-- Node19 -->
<g id="node2" class="node">
<title>Node19</title>
<g id="a_node2"><a xlink:href="fweelin_8cc.html" target="_top" xlink:title="src/fweelin.cc">
<polygon fill="#ffffff" stroke="#000000" points="0,-.5 0,-19.5 83,-19.5 83,-.5 0,-.5"/>
<text text-anchor="middle" x="41.5" y="-7.5" font-family="Helvetica,sans-Serif" font-size="10.00" fill="#000000">src/fweelin.cc</text>
</a>
</g>
</g>
<!-- Node18&#45;&gt;Node19 -->
<g id="edge1" class="edge">
<title>Node18&#45;&gt;Node19</title>
<path fill="none" stroke="#191970" d="M1021.1257,-297.1938C785.8684,-284.0102 41.5,-238.3938 41.5,-189 41.5,-189 41.5,-189 41.5,-133 41.5,-90.7188 41.5,-40.262 41.5,-19.5691"/>
<polygon fill="#191970" stroke="#191970" points="1021.0967,-300.6975 1031.2762,-297.7601 1021.4867,-293.7084 1021.0967,-300.6975"/>
</g>
<!-- Node20 -->
<g id="node3" class="node">
<title>Node20</title>
<g id="a_node3"><a xlink:href="fweelin__core_8h.html" target="_top" xlink:title="src/fweelin_core.h">
<polygon fill="#ffffff" stroke="#000000" points="933,-123.5 933,-142.5 1038,-142.5 1038,-123.5 933,-123.5"/>
<text text-anchor="middle" x="985.5" y="-130.5" font-family="Helvetica,sans-Serif" font-size="10.00" fill="#000000">src/fweelin_core.h</text>
</a>
</g>
</g>
<!-- Node18&#45;&gt;Node20 -->
<g id="edge2" class="edge">
<title>Node18&#45;&gt;Node20</title>
<path fill="none" stroke="#191970" d="M1062.2367,-286.2517C1049.3948,-278.4928 1035.091,-267.8961 1025.5,-255 998.8962,-219.2285 989.4468,-164.8871 986.5857,-142.8244"/>
<polygon fill="#191970" stroke="#191970" points="1060.8213,-289.4738 1071.2411,-291.3921 1064.2918,-283.3947 1060.8213,-289.4738"/>
</g>
<!-- Node36 -->
<g id="node19" class="node">
<title>Node36</title>
<g id="a_node19"><a xlink:href="fweelin__videoio_8cc.html" target="_top" xlink:title="src/fweelin_videoio.cc">
<polygon fill="#ffffff" stroke="#000000" points="1438,-62 1438,-81 1563,-81 1563,-62 1438,-62"/>
<text text-anchor="middle" x="1500.5" y="-69" font-family="Helvetica,sans-Serif" font-size="10.00" fill="#000000">src/fweelin_videoio.cc</text>
</a>
</g>
</g>
<!-- Node18&#45;&gt;Node36 -->
<g id="edge41" class="edge">
<title>Node18&#45;&gt;Node36</title>
<path fill="none" stroke="#191970" d="M1117.5984,-286.3555C1194.6031,-243.1463 1419.4586,-116.9743 1483.3737,-81.11"/>
<polygon fill="#191970" stroke="#191970" points="1115.5617,-283.485 1108.5535,-291.4309 1118.9871,-289.5896 1115.5617,-283.485"/>
</g>
<!-- Node37 -->
<g id="node20" class="node">
<title>Node37</title>
<g id="a_node20"><a xlink:href="fweelin__videoio__displays_8cc.html" target="_top" xlink:title="src/fweelin_videoio\l_displays.cc">
<polygon fill="#ffffff" stroke="#000000" points="1734,-56.5 1734,-86.5 1845,-86.5 1845,-56.5 1734,-56.5"/>
<text text-anchor="start" x="1742" y="-74.5" font-family="Helvetica,sans-Serif" font-size="10.00" fill="#000000">src/fweelin_videoio</text>
<text text-anchor="middle" x="1789.5" y="-63.5" font-family="Helvetica,sans-Serif" font-size="10.00" fill="#000000">_displays.cc</text>
</a>
</g>
</g>
<!-- Node18&#45;&gt;Node37 -->
<g id="edge42" class="edge">
<title>Node18&#45;&gt;Node37</title>
<path fill="none" stroke="#191970" d="M1161.9431,-295.9919C1323.8723,-282.8658 1714.7544,-241.4389 1793.5,-143 1806.159,-127.1752 1801.0759,-102.5154 1795.7121,-86.687"/>
<polygon fill="#191970" stroke="#191970" points="1161.3039,-292.5317 1151.6139,-296.8159 1161.8606,-299.5095 1161.3039,-292.5317"/>
</g>
<!-- Node38 -->
<g id="node21" class="node">
<title>Node38</title>
<g id="a_node21"><a xlink:href="fweelin__config_8h.html" target="_top" xlink:title="src/fweelin_config.h">
<polygon fill="#ffffff" stroke="#000000" points="1035,-235.5 1035,-254.5 1148,-254.5 1148,-235.5 1035,-235.5"/>
<text text-anchor="middle" x="1091.5" y="-242.5" font-family="Helvetica,sans-Serif" font-size="10.00" fill="#000000">src/fweelin_config.h</text>
</a>
</g>
</g>
<!-- Node18&#45;&gt;Node38 -->
<g id="edge27" class="edge">
<title>Node18&#45;&gt;Node38</title>
<path fill="none" stroke="#191970" d="M1091.5,-281.1575C1091.5,-272.155 1091.5,-261.9199 1091.5,-254.6427"/>
<polygon fill="#191970" stroke="#191970" points="1088.0001,-281.2455 1091.5,-291.2455 1095.0001,-281.2456 1088.0001,-281.2455"/>
</g>
<!-- Node20&#45;&gt;Node19 -->
<g id="edge4" class="edge">
<title>Node20&#45;&gt;Node19</title>
<path fill="none" stroke="#191970" d="M922.4568,-131.1097C744.2838,-125.531 245.329,-108.1924 174.5,-87 125.6782,-72.3922 75.6724,-36.7195 53.4264,-19.5462"/>
<polygon fill="#191970" stroke="#191970" points="922.6127,-134.6162 932.7168,-131.4291 922.8305,-127.6196 922.6127,-134.6162"/>
</g>
<!-- Node21 -->
<g id="node4" class="node">
<title>Node21</title>
<g id="a_node4"><a xlink:href="FweelinMac_8mm.html" target="_top" xlink:title="MacOSX/FweelinMac.mm">
<polygon fill="#ffffff" stroke="#000000" points="769,-62 769,-81 908,-81 908,-62 769,-62"/>
<text text-anchor="middle" x="838.5" y="-69" font-family="Helvetica,sans-Serif" font-size="10.00" fill="#000000">MacOSX/FweelinMac.mm</text>
</a>
</g>
</g>
<!-- Node20&#45;&gt;Node21 -->
<g id="edge3" class="edge">
<title>Node20&#45;&gt;Node21</title>
<path fill="none" stroke="#191970" d="M953.221,-119.4955C925.4045,-107.858 885.9467,-91.3501 861.3075,-81.0419"/>
<polygon fill="#191970" stroke="#191970" points="951.9552,-122.7599 962.5313,-123.3906 954.6569,-116.3022 951.9552,-122.7599"/>
</g>
<!-- Node22 -->
<g id="node5" class="node">
<title>Node22</title>
<g id="a_node5"><a xlink:href="fweelin__amixer_8h.html" target="_top" xlink:title="src/fweelin_amixer.h">
<polygon fill="#ffffff" stroke="#000000" points="926.5,-62 926.5,-81 1044.5,-81 1044.5,-62 926.5,-62"/>
<text text-anchor="middle" x="985.5" y="-69" font-family="Helvetica,sans-Serif" font-size="10.00" fill="#000000">src/fweelin_amixer.h</text>
</a>
</g>
</g>
<!-- Node20&#45;&gt;Node22 -->
<g id="edge5" class="edge">
<title>Node20&#45;&gt;Node22</title>
<path fill="none" stroke="#191970" d="M979.1492,-113.2462C978.3402,-102.5519 978.7608,-89.814 980.4112,-81.2449"/>
<polygon fill="#191970" stroke="#191970" points="975.7055,-113.9113 980.4375,-123.3906 982.6497,-113.0293 975.7055,-113.9113"/>
</g>
<!-- Node24 -->
<g id="node7" class="node">
<title>Node24</title>
<g id="a_node7"><a xlink:href="fweelin__core__dsp_8h.html" target="_top" xlink:title="src/fweelin_core_dsp.h">
<polygon fill="#ffffff" stroke="#000000" points="183.5,-62 183.5,-81 311.5,-81 311.5,-62 183.5,-62"/>
<text text-anchor="middle" x="247.5" y="-69" font-family="Helvetica,sans-Serif" font-size="10.00" fill="#000000">src/fweelin_core_dsp.h</text>
</a>
</g>
</g>
<!-- Node20&#45;&gt;Node24 -->
<g id="edge8" class="edge">
<title>Node20&#45;&gt;Node24</title>
<path fill="none" stroke="#191970" d="M922.961,-131.4401C804.0896,-127.7829 538.0258,-116.6094 316.5,-87 305.0048,-85.4635 292.6554,-83.2666 281.5679,-81.0079"/>
<polygon fill="#191970" stroke="#191970" points="922.8742,-134.939 932.9749,-131.741 923.0846,-127.9421 922.8742,-134.939"/>
</g>
<!-- Node26 -->
<g id="node9" class="node">
<title>Node26</title>
<g id="a_node9"><a xlink:href="fweelin__config_8cc.html" target="_top" xlink:title="src/fweelin_config.cc">
<polygon fill="#ffffff" stroke="#000000" points="1575.5,-.5 1575.5,-19.5 1693.5,-19.5 1693.5,-.5 1575.5,-.5"/>
<text text-anchor="middle" x="1634.5" y="-7.5" font-family="Helvetica,sans-Serif" font-size="10.00" fill="#000000">src/fweelin_config.cc</text>
</a>
</g>
</g>
<!-- Node20&#45;&gt;Node26 -->
<g id="edge16" class="edge">
<title>Node20&#45;&gt;Node26</title>
<path fill="none" stroke="#191970" d="M1048.4563,-126.66C1098.3888,-120.3164 1169.3677,-108.3396 1228.5,-87 1255.2588,-77.3433 1257.4795,-64.8983 1284.5,-56 1337.1084,-38.6752 1489.9076,-22.8833 1575.1913,-15.0963"/>
<polygon fill="#191970" stroke="#191970" points="1047.9441,-123.1965 1038.4466,-127.892 1048.7993,-130.1441 1047.9441,-123.1965"/>
</g>
<!-- Node28 -->
<g id="node11" class="node">
<title>Node28</title>
<g id="a_node11"><a xlink:href="fweelin__block_8cc.html" target="_top" xlink:title="src/fweelin_block.cc">
<polygon fill="#ffffff" stroke="#000000" points="368,-62 368,-81 483,-81 483,-62 368,-62"/>
<text text-anchor="middle" x="425.5" y="-69" font-family="Helvetica,sans-Serif" font-size="10.00" fill="#000000">src/fweelin_block.cc</text>
</a>
</g>
</g>
<!-- Node20&#45;&gt;Node28 -->
<g id="edge14" class="edge">
<title>Node20&#45;&gt;Node28</title>
<path fill="none" stroke="#191970" d="M922.7099,-129.9312C828.5361,-124.7027 645.3401,-112.1044 491.5,-87 481.8584,-85.4266 471.531,-83.2442 461.976,-81.013"/>
<polygon fill="#191970" stroke="#191970" points="922.7435,-133.4382 932.9194,-130.4884 923.125,-126.4486 922.7435,-133.4382"/>
</g>
<!-- Node29 -->
<g id="node12" class="node">
<title>Node29</title>
<g id="a_node12"><a xlink:href="fweelin__browser_8cc.html" target="_top" xlink:title="src/fweelin_browser.cc">
<polygon fill="#ffffff" stroke="#000000" points="1293,-62 1293,-81 1420,-81 1420,-62 1293,-62"/>
<text text-anchor="middle" x="1356.5" y="-69" font-family="Helvetica,sans-Serif" font-size="10.00" fill="#000000">src/fweelin_browser.cc</text>
</a>
</g>
</g>
<!-- Node20&#45;&gt;Node29 -->
<g id="edge15" class="edge">
<title>Node20&#45;&gt;Node29</title>
<path fill="none" stroke="#191970" d="M1047.9812,-123.9386C1107.3849,-115.1467 1199.1862,-101.1006 1278.5,-87 1288.695,-85.1875 1299.6111,-83.1067 1309.9508,-81.0702"/>
<polygon fill="#191970" stroke="#191970" points="1047.3873,-120.4882 1038.0054,-125.4107 1048.4093,-127.4132 1047.3873,-120.4882"/>
</g>
<!-- Node30 -->
<g id="node13" class="node">
<title>Node30</title>
<g id="a_node13"><a xlink:href="fweelin__core_8cc.html" target="_top" xlink:title="src/fweelin_core.cc">
<polygon fill="#ffffff" stroke="#000000" points="1171.5,-.5 1171.5,-19.5 1281.5,-19.5 1281.5,-.5 1171.5,-.5"/>
<text text-anchor="middle" x="1226.5" y="-7.5" font-family="Helvetica,sans-Serif" font-size="10.00" fill="#000000">src/fweelin_core.cc</text>
</a>
</g>
</g>
<!-- Node20&#45;&gt;Node30 -->
<g id="edge17" class="edge">
<title>Node20&#45;&gt;Node30</title>
<path fill="none" stroke="#191970" d="M1048.3308,-127.4224C1105.7754,-121.0389 1185.1014,-108.5717 1207.5,-87 1226.1449,-69.0434 1227.6519,-35.9339 1227.137,-19.6115"/>
<polygon fill="#191970" stroke="#191970" points="1047.8061,-123.9585 1038.2374,-128.507 1048.5541,-130.9184 1047.8061,-123.9585"/>
</g>
<!-- Node31 -->
<g id="node14" class="node">
<title>Node31</title>
<g id="a_node14"><a xlink:href="fweelin__looplibrary_8h.html" target="_top" xlink:title="src/fweelin_looplibrary.h">
<polygon fill="#ffffff" stroke="#000000" points="1063,-62 1063,-81 1198,-81 1198,-62 1063,-62"/>
<text text-anchor="middle" x="1130.5" y="-69" font-family="Helvetica,sans-Serif" font-size="10.00" fill="#000000">src/fweelin_looplibrary.h</text>
</a>
</g>
</g>
<!-- Node20&#45;&gt;Node31 -->
<g id="edge18" class="edge">
<title>Node20&#45;&gt;Node31</title>
<path fill="none" stroke="#191970" d="M1017.6999,-119.3428C1045.1176,-107.7139 1083.805,-91.3051 1108.0028,-81.0419"/>
<polygon fill="#191970" stroke="#191970" points="1015.9958,-116.2637 1008.1563,-123.3906 1018.7291,-122.708 1015.9958,-116.2637"/>
</g>
<!-- Node32 -->
<g id="node15" class="node">
<title>Node32</title>
<g id="a_node15"><a xlink:href="fweelin__osc_8cc.html" target="_top" xlink:title="src/fweelin_osc.cc">
<polygon fill="#ffffff" stroke="#000000" points="598,-.5 598,-19.5 703,-19.5 703,-.5 598,-.5"/>
<text text-anchor="middle" x="650.5" y="-7.5" font-family="Helvetica,sans-Serif" font-size="10.00" fill="#000000">src/fweelin_osc.cc</text>
</a>
</g>
</g>
<!-- Node20&#45;&gt;Node32 -->
<g id="edge22" class="edge">
<title>Node20&#45;&gt;Node32</title>
<path fill="none" stroke="#191970" d="M922.5619,-130.6716C767.3673,-124.6262 377.5206,-107.4672 358.5,-87 349.1208,-76.9075 349.5477,-66.473 358.5,-56 373.839,-38.0554 517.9758,-22.1425 597.8395,-14.6109"/>
<polygon fill="#191970" stroke="#191970" points="922.7528,-134.1815 932.8806,-131.0707 923.0234,-127.1868 922.7528,-134.1815"/>
</g>
<!-- Node33 -->
<g id="node16" class="node">
<title>Node33</title>
<g id="a_node16"><a xlink:href="fweelin__midiio_8cc.html" target="_top" xlink:title="src/fweelin_midiio.cc">
<polygon fill="#ffffff" stroke="#000000" points="501,-62 501,-81 620,-81 620,-62 501,-62"/>
<text text-anchor="middle" x="560.5" y="-69" font-family="Helvetica,sans-Serif" font-size="10.00" fill="#000000">src/fweelin_midiio.cc</text>
</a>
</g>
</g>
<!-- Node20&#45;&gt;Node33 -->
<g id="edge21" class="edge">
<title>Node20&#45;&gt;Node33</title>
<path fill="none" stroke="#191970" d="M922.6237,-126.6538C851.2795,-119.0411 731.5715,-105.0193 629.5,-87 619.9483,-85.3138 609.7209,-83.1922 600.1445,-81.0646"/>
<polygon fill="#191970" stroke="#191970" points="922.4782,-130.1579 932.7911,-127.7302 923.2152,-123.1968 922.4782,-130.1579"/>
</g>
<!-- Node34 -->
<g id="node17" class="node">
<title>Node34</title>
<g id="a_node17"><a xlink:href="fweelin__paramset_8cc.html" target="_top" xlink:title="src/fweelin_paramset.cc">
<polygon fill="#ffffff" stroke="#000000" points="1581,-62 1581,-81 1716,-81 1716,-62 1581,-62"/>
<text text-anchor="middle" x="1648.5" y="-69" font-family="Helvetica,sans-Serif" font-size="10.00" fill="#000000">src/fweelin_paramset.cc</text>
</a>
</g>
</g>
<!-- Node20&#45;&gt;Node34 -->
<g id="edge23" class="edge">
<title>Node20&#45;&gt;Node34</title>
<path fill="none" stroke="#191970" d="M1048.4056,-130.611C1156.1497,-125.9525 1382.7481,-113.6815 1572.5,-87 1583.5679,-85.4437 1595.448,-83.2673 1606.4501,-81.0364"/>
<polygon fill="#191970" stroke="#191970" points="1048.1973,-127.1166 1038.355,-131.0383 1048.4947,-134.1103 1048.1973,-127.1166"/>
</g>
<!-- Node35 -->
<g id="node18" class="node">
<title>Node35</title>
<g id="a_node18"><a xlink:href="fweelin__sdlio_8cc.html" target="_top" xlink:title="src/fweelin_sdlio.cc">
<polygon fill="#ffffff" stroke="#000000" points="638.5,-62 638.5,-81 750.5,-81 750.5,-62 638.5,-62"/>
<text text-anchor="middle" x="694.5" y="-69" font-family="Helvetica,sans-Serif" font-size="10.00" fill="#000000">src/fweelin_sdlio.cc</text>
</a>
</g>
</g>
<!-- Node20&#45;&gt;Node35 -->
<g id="edge24" class="edge">
<title>Node20&#45;&gt;Node35</title>
<path fill="none" stroke="#191970" d="M926.0026,-121.4517C880.3619,-112.4571 815.8405,-99.4477 759.5,-87 751.1173,-85.148 742.1497,-83.0715 733.6356,-81.0551"/>
<polygon fill="#191970" stroke="#191970" points="925.535,-124.9267 936.0224,-123.4216 926.8854,-118.0582 925.535,-124.9267"/>
</g>
<!-- Node20&#45;&gt;Node36 -->
<g id="edge25" class="edge">
<title>Node20&#45;&gt;Node36</title>
<path fill="none" stroke="#191970" d="M1048.1833,-128.7235C1134.435,-122.3351 1294.3916,-108.6771 1429.5,-87 1439.5905,-85.3811 1450.4036,-83.2349 1460.4719,-81.0571"/>
<polygon fill="#191970" stroke="#191970" points="1047.7544,-125.2455 1038.0368,-129.4666 1048.2658,-132.2268 1047.7544,-125.2455"/>
</g>
<!-- Node20&#45;&gt;Node37 -->
<g id="edge26" class="edge">
<title>Node20&#45;&gt;Node37</title>
<path fill="none" stroke="#191970" d="M1048.4846,-130.509C1202.616,-124.1837 1595.6377,-106.6065 1725.5,-87 1728.213,-86.5904 1730.9798,-86.1214 1733.7665,-85.6076"/>
<polygon fill="#191970" stroke="#191970" points="1048.0935,-127.022 1038.2446,-130.9271 1048.3791,-134.0162 1048.0935,-127.022"/>
</g>
<!-- Node22&#45;&gt;Node20 -->
<g id="edge6" class="edge">
<title>Node22&#45;&gt;Node20</title>
<path fill="none" stroke="#191970" d="M991.8635,-91.4235C992.6596,-102.1392 992.2259,-114.8657 990.5625,-123.3906"/>
<polygon fill="#191970" stroke="#191970" points="995.3044,-90.7324 990.5888,-81.2449 988.3586,-91.6023 995.3044,-90.7324"/>
</g>
<!-- Node23 -->
<g id="node6" class="node">
<title>Node23</title>
<g id="a_node6"><a xlink:href="fweelin__amixer_8cc.html" target="_top" xlink:title="src/fweelin_amixer.cc">
<polygon fill="#ffffff" stroke="#000000" points="924.5,-.5 924.5,-19.5 1046.5,-19.5 1046.5,-.5 924.5,-.5"/>
<text text-anchor="middle" x="985.5" y="-7.5" font-family="Helvetica,sans-Serif" font-size="10.00" fill="#000000">src/fweelin_amixer.cc</text>
</a>
</g>
</g>
<!-- Node22&#45;&gt;Node23 -->
<g id="edge7" class="edge">
<title>Node22&#45;&gt;Node23</title>
<path fill="none" stroke="#191970" d="M985.5,-51.7462C985.5,-41.0519 985.5,-28.314 985.5,-19.7449"/>
<polygon fill="#191970" stroke="#191970" points="982.0001,-51.8906 985.5,-61.8906 989.0001,-51.8907 982.0001,-51.8906"/>
</g>
<!-- Node24&#45;&gt;Node19 -->
<g id="edge10" class="edge">
<title>Node24&#45;&gt;Node19</title>
<path fill="none" stroke="#191970" d="M205.5446,-58.9745C166.4402,-47.3001 108.97,-30.1427 73.4615,-19.5419"/>
<polygon fill="#191970" stroke="#191970" points="204.7291,-62.3836 215.3125,-61.8906 206.7317,-55.6761 204.7291,-62.3836"/>
</g>
<!-- Node24&#45;&gt;Node20 -->
<g id="edge9" class="edge">
<title>Node24&#45;&gt;Node20</title>
<path fill="none" stroke="#191970" d="M308.9392,-82.8857C317.5344,-84.4501 326.2378,-85.8957 334.5,-87 555.936,-116.5974 821.874,-127.7738 932.9221,-131.4356"/>
<polygon fill="#191970" stroke="#191970" points="309.406,-79.4123 298.932,-81.0079 308.115,-86.2922 309.406,-79.4123"/>
</g>
<!-- Node25 -->
<g id="node8" class="node">
<title>Node25</title>
<g id="a_node8"><a xlink:href="fweelin__audioio_8cc.html" target="_top" xlink:title="src/fweelin_audioio.cc">
<polygon fill="#ffffff" stroke="#000000" points="101,-.5 101,-19.5 226,-19.5 226,-.5 101,-.5"/>
<text text-anchor="middle" x="163.5" y="-7.5" font-family="Helvetica,sans-Serif" font-size="10.00" fill="#000000">src/fweelin_audioio.cc</text>
</a>
</g>
</g>
<!-- Node24&#45;&gt;Node25 -->
<g id="edge11" class="edge">
<title>Node24&#45;&gt;Node25</title>
<path fill="none" stroke="#191970" d="M226.2863,-55.9685C210.627,-44.5037 189.8131,-29.265 176.5328,-19.5419"/>
<polygon fill="#191970" stroke="#191970" points="224.2388,-58.8072 234.375,-61.8906 228.374,-53.1592 224.2388,-58.8072"/>
</g>
<!-- Node24&#45;&gt;Node26 -->
<g id="edge12" class="edge">
<title>Node24&#45;&gt;Node26</title>
<path fill="none" stroke="#191970" d="M317.7608,-60.5787C331.2542,-58.7961 345.2934,-57.157 358.5,-56 480.2992,-45.329 1339.8816,-18.8854 1575.1163,-11.781"/>
<polygon fill="#191970" stroke="#191970" points="317.0089,-57.1486 307.5717,-61.9642 317.9521,-64.0848 317.0089,-57.1486"/>
</g>
<!-- Node27 -->
<g id="node10" class="node">
<title>Node27</title>
<g id="a_node10"><a xlink:href="fweelin__core__dsp_8cc.html" target="_top" xlink:title="src/fweelin_core_dsp.cc">
<polygon fill="#ffffff" stroke="#000000" points="244.5,-.5 244.5,-19.5 376.5,-19.5 376.5,-.5 244.5,-.5"/>
<text text-anchor="middle" x="310.5" y="-7.5" font-family="Helvetica,sans-Serif" font-size="10.00" fill="#000000">src/fweelin_core_dsp.cc</text>
</a>
</g>
</g>
<!-- Node24&#45;&gt;Node27 -->
<g id="edge13" class="edge">
<title>Node24&#45;&gt;Node27</title>
<path fill="none" stroke="#191970" d="M264.6838,-54.7253C276.18,-43.5028 290.9077,-29.1258 300.5175,-19.7449"/>
<polygon fill="#191970" stroke="#191970" points="262.0546,-52.4007 257.3438,-61.8906 266.9444,-57.4097 262.0546,-52.4007"/>
</g>
<!-- Node31&#45;&gt;Node30 -->
<g id="edge19" class="edge">
<title>Node31&#45;&gt;Node30</title>
<path fill="none" stroke="#191970" d="M1154.2486,-56.286C1172.1993,-44.7864 1196.2873,-29.355 1211.6053,-19.5419"/>
<polygon fill="#191970" stroke="#191970" points="1152.0323,-53.5492 1145.5,-61.8906 1155.8083,-59.4434 1152.0323,-53.5492"/>
</g>
<!-- Node31&#45;&gt;Node32 -->
<g id="edge20" class="edge">
<title>Node31&#45;&gt;Node32</title>
<path fill="none" stroke="#191970" d="M1076.3076,-59.9904C1068.6682,-58.5434 1060.8992,-57.1649 1053.5,-56 928.4608,-36.3151 780.3298,-21.5951 703.1805,-14.5727"/>
<polygon fill="#191970" stroke="#191970" points="1075.7497,-63.4474 1086.2338,-61.9198 1077.0854,-56.576 1075.7497,-63.4474"/>
</g>
<!-- Node38&#45;&gt;Node20 -->
<g id="edge28" class="edge">
<title>Node38&#45;&gt;Node20</title>
<path fill="none" stroke="#191970" d="M1073.0665,-228.5416C1063.6902,-219.9603 1052.2464,-209.1592 1042.5,-199 1024.0528,-179.7715 1004.0291,-155.7869 993.3158,-142.6743"/>
<polygon fill="#191970" stroke="#191970" points="1070.9186,-231.3185 1080.6793,-235.4393 1075.6188,-226.1311 1070.9186,-231.3185"/>
</g>
<!-- Node38&#45;&gt;Node25 -->
<g id="edge32" class="edge">
<title>Node38&#45;&gt;Node25</title>
<path fill="none" stroke="#191970" d="M1024.7607,-241.1968C851.9226,-230.6658 393.4025,-198.2003 252.5,-143 208.9857,-125.9528 186.0935,-127.9101 163.5,-87 151.6086,-65.4682 156.8111,-35.1101 160.6781,-19.7368"/>
<polygon fill="#191970" stroke="#191970" points="1024.5519,-244.6905 1034.7449,-241.8001 1024.9742,-237.7033 1024.5519,-244.6905"/>
</g>
<!-- Node38&#45;&gt;Node26 -->
<g id="edge33" class="edge">
<title>Node38&#45;&gt;Node26</title>
<path fill="none" stroke="#191970" d="M1158.4152,-243.8484C1338.7907,-239.0542 1826.8041,-214.3327 1905.5,-87 1912.7434,-75.2799 1914.3899,-66.526 1905.5,-56 1891.971,-39.981 1769.2917,-24.2764 1693.707,-16.0045"/>
<polygon fill="#191970" stroke="#191970" points="1158.1716,-240.3534 1148.2636,-244.1057 1158.3491,-247.3511 1158.1716,-240.3534"/>
</g>
<!-- Node38&#45;&gt;Node27 -->
<g id="edge40" class="edge">
<title>Node38&#45;&gt;Node27</title>
<path fill="none" stroke="#191970" d="M1024.613,-238.4234C822.6844,-217.9029 229.6799,-152.5005 174.5,-87 145.8308,-52.9686 209.7085,-30.9391 259.3232,-19.5006"/>
<polygon fill="#191970" stroke="#191970" points="1024.4846,-241.9282 1034.7862,-239.4528 1025.1894,-234.9638 1024.4846,-241.9282"/>
</g>
<!-- Node39 -->
<g id="node22" class="node">
<title>Node39</title>
<g id="a_node22"><a xlink:href="fweelin__browser_8h.html" target="_top" xlink:title="src/fweelin_browser.h">
<polygon fill="#ffffff" stroke="#000000" points="1051.5,-179.5 1051.5,-198.5 1173.5,-198.5 1173.5,-179.5 1051.5,-179.5"/>
<text text-anchor="middle" x="1112.5" y="-186.5" font-family="Helvetica,sans-Serif" font-size="10.00" fill="#000000">src/fweelin_browser.h</text>
</a>
</g>
</g>
<!-- Node38&#45;&gt;Node39 -->
<g id="edge29" class="edge">
<title>Node38&#45;&gt;Node39</title>
<path fill="none" stroke="#191970" d="M1098.719,-225.7493C1102.1476,-216.6064 1106.0951,-206.0798 1108.884,-198.6427"/>
<polygon fill="#191970" stroke="#191970" points="1095.3921,-224.6533 1095.1579,-235.2455 1101.9464,-227.1112 1095.3921,-224.6533"/>
</g>
<!-- Node40 -->
<g id="node23" class="node">
<title>Node40</title>
<g id="a_node23"><a xlink:href="fweelin__paramset_8h.html" target="_top" xlink:title="src/fweelin_paramset.h">
<polygon fill="#ffffff" stroke="#000000" points="1653,-123.5 1653,-142.5 1784,-142.5 1784,-123.5 1653,-123.5"/>
<text text-anchor="middle" x="1718.5" y="-130.5" font-family="Helvetica,sans-Serif" font-size="10.00" fill="#000000">src/fweelin_paramset.h</text>
</a>
</g>
</g>
<!-- Node38&#45;&gt;Node40 -->
<g id="edge34" class="edge">
<title>Node38&#45;&gt;Node40</title>
<path fill="none" stroke="#191970" d="M1154.7539,-233.7011C1278.355,-211.6224 1549.8999,-163.1168 1665.1185,-142.5355"/>
<polygon fill="#191970" stroke="#191970" points="1153.9159,-230.2953 1144.6872,-235.4993 1155.1469,-237.1862 1153.9159,-230.2953"/>
</g>
<!-- Node39&#45;&gt;Node20 -->
<g id="edge30" class="edge">
<title>Node39&#45;&gt;Node20</title>
<path fill="none" stroke="#191970" d="M1081.3108,-175.2473C1058.2463,-165.0771 1027.4288,-151.4883 1007.0472,-142.5011"/>
<polygon fill="#191970" stroke="#191970" points="1080.1058,-178.5411 1090.6679,-179.3733 1082.9301,-172.1361 1080.1058,-178.5411"/>
</g>
<!-- Node39&#45;&gt;Node29 -->
<g id="edge31" class="edge">
<title>Node39&#45;&gt;Node29</title>
<path fill="none" stroke="#191970" d="M1141.5019,-175.0339C1191.7095,-150.8561 1293.568,-101.8054 1336.5988,-81.0836"/>
<polygon fill="#191970" stroke="#191970" points="1139.9587,-171.8923 1132.4675,-179.3845 1142.9959,-178.1991 1139.9587,-171.8923"/>
</g>
<!-- Node40&#45;&gt;Node26 -->
<g id="edge35" class="edge">
<title>Node40&#45;&gt;Node26</title>
<path fill="none" stroke="#191970" d="M1794.2913,-123.9633C1852.8576,-113.8929 1919.0398,-93.7914 1887.5,-56 1863.2927,-26.9945 1760.5085,-16.2356 1693.6278,-12.2746"/>
<polygon fill="#191970" stroke="#191970" points="1793.5267,-120.5418 1784.2237,-125.6118 1794.6579,-127.4498 1793.5267,-120.5418"/>
</g>
<!-- Node40&#45;&gt;Node30 -->
<g id="edge36" class="edge">
<title>Node40&#45;&gt;Node30</title>
<path fill="none" stroke="#191970" d="M1777.9514,-121.0689C1826.6788,-108.75 1883.2731,-86.9578 1854.5,-56 1835.1149,-35.1431 1431.213,-17.763 1281.604,-12.0182"/>
<polygon fill="#191970" stroke="#191970" points="1776.9145,-117.7189 1768.0229,-123.48 1778.5664,-124.5212 1776.9145,-117.7189"/>
</g>
<!-- Node40&#45;&gt;Node34 -->
<g id="edge37" class="edge">
<title>Node40&#45;&gt;Node34</title>
<path fill="none" stroke="#191970" d="M1699.7743,-116.5482C1686.9485,-105.2798 1670.3719,-90.716 1659.5917,-81.2449"/>
<polygon fill="#191970" stroke="#191970" points="1697.7399,-119.4197 1707.5625,-123.3906 1702.3601,-114.161 1697.7399,-119.4197"/>
</g>
<!-- Node40&#45;&gt;Node36 -->
<g id="edge38" class="edge">
<title>Node40&#45;&gt;Node36</title>
<path fill="none" stroke="#191970" d="M1674.6267,-120.6229C1633.2352,-108.9459 1572.0598,-91.6877 1534.3233,-81.0419"/>
<polygon fill="#191970" stroke="#191970" points="1673.8628,-124.044 1684.4375,-123.3906 1675.7635,-117.3069 1673.8628,-124.044"/>
</g>
<!-- Node40&#45;&gt;Node37 -->
<g id="edge39" class="edge">
<title>Node40&#45;&gt;Node37</title>
<path fill="none" stroke="#191970" d="M1737.2444,-116.7637C1748.0568,-107.398 1761.5602,-95.7014 1772.1314,-86.5446"/>
<polygon fill="#191970" stroke="#191970" points="1734.8609,-114.1978 1729.5938,-123.3906 1739.444,-119.4888 1734.8609,-114.1978"/>
</g>
</g>
</svg>
