<?xml version="1.0" encoding="UTF-8" standalone="no"?>
<!DOCTYPE svg PUBLIC "-//W3C//DTD SVG 1.1//EN"
 "http://www.w3.org/Graphics/SVG/1.1/DTD/svg11.dtd">
<!-- Generated by graphviz version 2.40.1 (20161225.0304)
 -->
<!-- Title: src/fweelin_core_dsp.h Pages: 1 -->
<svg width="1382pt" height="532pt"
 viewBox="0.00 0.00 1381.50 532.00" xmlns="http://www.w3.org/2000/svg" xmlns:xlink="http://www.w3.org/1999/xlink">
<g id="graph0" class="graph" transform="scale(1 1) rotate(0) translate(4 528)">
<title>src/fweelin_core_dsp.h</title>
<polygon fill="#ffffff" stroke="transparent" points="-4,4 -4,-528 1377.5,-528 1377.5,4 -4,4"/>
<!-- Node0 -->
<g id="node1" class="node">
<title>Node0</title>
<polygon fill="#bfbfbf" stroke="#000000" points="298,-504.5 298,-523.5 426,-523.5 426,-504.5 298,-504.5"/>
<text text-anchor="middle" x="362" y="-511.5" font-family="Helvetica,sans-Serif" font-size="10.00" fill="#000000">src/fweelin_core_dsp.h</text>
</g>
<!-- Node1 -->
<g id="node2" class="node">
<title>Node1</title>
<polygon fill="#ffffff" stroke="#bfbfbf" points="0,-448.5 0,-467.5 44,-467.5 44,-448.5 0,-448.5"/>
<text text-anchor="middle" x="22" y="-455.5" font-family="Helvetica,sans-Serif" font-size="10.00" fill="#000000">string</text>
</g>
<!-- Node0&#45;&gt;Node1 -->
<g id="edge1" class="edge">
<title>Node0&#45;&gt;Node1</title>
<path fill="none" stroke="#191970" d="M297.8033,-507.557C237.1099,-500.7628 143.4414,-488.4636 53.9877,-467.9306"/>
<polygon fill="#191970" stroke="#191970" points="54.7617,-464.5173 44.2279,-465.6532 53.1709,-471.3341 54.7617,-464.5173"/>
</g>
<!-- Node2 -->
<g id="node3" class="node">
<title>Node2</title>
<polygon fill="#ffffff" stroke="#bfbfbf" points="62,-448.5 62,-467.5 118,-467.5 118,-448.5 62,-448.5"/>
<text text-anchor="middle" x="90" y="-455.5" font-family="Helvetica,sans-Serif" font-size="10.00" fill="#000000">sstream</text>
</g>
<!-- Node0&#45;&gt;Node2 -->
<g id="edge2" class="edge">
<title>Node0&#45;&gt;Node2</title>
<path fill="none" stroke="#191970" d="M311.6388,-504.474C264.9676,-495.5165 193.6572,-481.5012 132,-468 130.7644,-467.7294 129.5092,-467.4511 128.2424,-467.1672"/>
<polygon fill="#191970" stroke="#191970" points="128.9638,-463.7418 118.4344,-464.9178 127.399,-470.5647 128.9638,-463.7418"/>
</g>
<!-- Node3 -->
<g id="node4" class="node">
<title>Node3</title>
<g id="a_node4"><a xlink:href="fweelin__core_8h.html" target="_top" xlink:title="fweelin_core.h">
<polygon fill="#ffffff" stroke="#000000" points="572,-448.5 572,-467.5 660,-467.5 660,-448.5 572,-448.5"/>
<text text-anchor="middle" x="616" y="-455.5" font-family="Helvetica,sans-Serif" font-size="10.00" fill="#000000">fweelin_core.h</text>
</a>
</g>
</g>
<!-- Node0&#45;&gt;Node3 -->
<g id="edge3" class="edge">
<title>Node0&#45;&gt;Node3</title>
<path fill="none" stroke="#191970" d="M400.146,-504.4369C443.1691,-494.521 513.2609,-479.0518 561.9032,-468.7263"/>
<polygon fill="#191970" stroke="#191970" points="562.8799,-472.0972 571.9399,-466.6048 561.4322,-465.2485 562.8799,-472.0972"/>
</g>
<!-- Node12 -->
<g id="node13" class="node">
<title>Node12</title>
<g id="a_node13"><a xlink:href="fweelin__event_8h.html" target="_top" xlink:title="fweelin_event.h">
<polygon fill="#ffffff" stroke="#000000" points="148.5,-224.5 148.5,-243.5 243.5,-243.5 243.5,-224.5 148.5,-224.5"/>
<text text-anchor="middle" x="196" y="-231.5" font-family="Helvetica,sans-Serif" font-size="10.00" fill="#000000">fweelin_event.h</text>
</a>
</g>
</g>
<!-- Node0&#45;&gt;Node12 -->
<g id="edge65" class="edge">
<title>Node0&#45;&gt;Node12</title>
<path fill="none" stroke="#191970" d="M297.7777,-507.7504C234.1068,-497.595 146,-471.0647 146,-402 146,-402 146,-402 146,-346 146,-315.4754 152.0909,-307.6606 165,-280 169.606,-270.1306 176.1925,-260.0038 182.1106,-251.7731"/>
<polygon fill="#191970" stroke="#191970" points="184.9685,-253.7956 188.1448,-243.6881 179.3586,-249.6087 184.9685,-253.7956"/>
</g>
<!-- Node19 -->
<g id="node20" class="node">
<title>Node19</title>
<g id="a_node20"><a xlink:href="fweelin__block_8h.html" target="_top" xlink:title="fweelin_block.h">
<polygon fill="#ffffff" stroke="#000000" points="971.5,-168.5 971.5,-187.5 1064.5,-187.5 1064.5,-168.5 971.5,-168.5"/>
<text text-anchor="middle" x="1018" y="-175.5" font-family="Helvetica,sans-Serif" font-size="10.00" fill="#000000">fweelin_block.h</text>
</a>
</g>
</g>
<!-- Node0&#45;&gt;Node19 -->
<g id="edge66" class="edge">
<title>Node0&#45;&gt;Node19</title>
<path fill="none" stroke="#191970" d="M426.1398,-512.824C632.9729,-508.1914 1269,-487.0325 1269,-402 1269,-402 1269,-402 1269,-290 1269,-252.9295 1249.2199,-243.9885 1218,-224 1194.5601,-208.9927 1125.2381,-195.1699 1074.768,-186.6755"/>
<polygon fill="#191970" stroke="#191970" points="1075.0637,-183.1769 1064.6264,-184.9971 1073.9207,-190.083 1075.0637,-183.1769"/>
</g>
<!-- Node3&#45;&gt;Node0 -->
<g id="edge45" class="edge">
<title>Node3&#45;&gt;Node0</title>
<path fill="none" stroke="#191970" d="M578.0251,-467.5237C536.3372,-477.1336 469.0888,-491.9883 420.6418,-502.3073"/>
<polygon fill="#191970" stroke="#191970" points="419.6608,-498.9374 410.6051,-504.4369 421.1138,-505.785 419.6608,-498.9374"/>
</g>
<!-- Node4 -->
<g id="node5" class="node">
<title>Node4</title>
<polygon fill="#ffffff" stroke="#bfbfbf" points="861.5,-392.5 861.5,-411.5 940.5,-411.5 940.5,-392.5 861.5,-392.5"/>
<text text-anchor="middle" x="901" y="-399.5" font-family="Helvetica,sans-Serif" font-size="10.00" fill="#000000">nettle/md5.h</text>
</g>
<!-- Node3&#45;&gt;Node4 -->
<g id="edge4" class="edge">
<title>Node3&#45;&gt;Node4</title>
<path fill="none" stroke="#191970" d="M660.1525,-449.6174C705.638,-440.94 778.8675,-426.8543 851.2511,-412.3342"/>
<polygon fill="#191970" stroke="#191970" points="852.3419,-415.685 861.4561,-410.283 850.9625,-408.8223 852.3419,-415.685"/>
</g>
<!-- Node5 -->
<g id="node6" class="node">
<title>Node5</title>
<g id="a_node6"><a xlink:href="fweelin__amixer_8h.html" target="_top" xlink:title="fweelin_amixer.h">
<polygon fill="#ffffff" stroke="#000000" points="958.5,-392.5 958.5,-411.5 1059.5,-411.5 1059.5,-392.5 958.5,-392.5"/>
<text text-anchor="middle" x="1009" y="-399.5" font-family="Helvetica,sans-Serif" font-size="10.00" fill="#000000">fweelin_amixer.h</text>
</a>
</g>
</g>
<!-- Node3&#45;&gt;Node5 -->
<g id="edge5" class="edge">
<title>Node3&#45;&gt;Node5</title>
<path fill="none" stroke="#191970" d="M660.2327,-451.55C722.8885,-443.0645 840.6212,-427.4152 941,-412 943.3394,-411.6407 945.7296,-411.2662 948.1494,-410.882"/>
<polygon fill="#191970" stroke="#191970" points="948.8936,-414.3074 958.21,-409.2623 947.7808,-407.3964 948.8936,-414.3074"/>
</g>
<!-- Node11 -->
<g id="node12" class="node">
<title>Node11</title>
<g id="a_node12"><a xlink:href="fweelin__midiio_8h.html" target="_top" xlink:title="fweelin_midiio.h">
<polygon fill="#ffffff" stroke="#000000" points="606,-392.5 606,-411.5 704,-411.5 704,-392.5 606,-392.5"/>
<text text-anchor="middle" x="655" y="-399.5" font-family="Helvetica,sans-Serif" font-size="10.00" fill="#000000">fweelin_midiio.h</text>
</a>
</g>
</g>
<!-- Node3&#45;&gt;Node11 -->
<g id="edge12" class="edge">
<title>Node3&#45;&gt;Node11</title>
<path fill="none" stroke="#191970" d="M622.7933,-448.2455C628.2178,-440.4564 635.9661,-429.3308 642.5033,-419.9439"/>
<polygon fill="#191970" stroke="#191970" points="645.4417,-421.849 648.2846,-411.6427 639.6975,-417.8485 645.4417,-421.849"/>
</g>
<!-- Node3&#45;&gt;Node12 -->
<g id="edge47" class="edge">
<title>Node3&#45;&gt;Node12</title>
<path fill="none" stroke="#191970" d="M571.874,-456.1761C500.5426,-452.3911 364.1295,-441.4257 327,-412 277.3231,-372.6302 314.3317,-328.0569 273,-280 261.2279,-266.3124 244.3257,-255.5878 229.3546,-247.9499"/>
<polygon fill="#191970" stroke="#191970" points="230.872,-244.796 220.3456,-243.5941 227.825,-251.098 230.872,-244.796"/>
</g>
<!-- Node3&#45;&gt;Node19 -->
<g id="edge46" class="edge">
<title>Node3&#45;&gt;Node19</title>
<path fill="none" stroke="#191970" d="M660.1482,-455.0519C758.3114,-448.2478 992.0676,-430.6005 1069,-412 1144.5687,-393.7292 1231,-423.746 1231,-346 1231,-346 1231,-346 1231,-290 1231,-219.356 1138.0778,-193.1716 1074.9828,-183.5348"/>
<polygon fill="#191970" stroke="#191970" points="1075.1378,-180.0216 1064.7438,-182.0744 1074.1493,-186.9514 1075.1378,-180.0216"/>
</g>
<!-- Node24 -->
<g id="node25" class="node">
<title>Node24</title>
<g id="a_node25"><a xlink:href="fweelin__audioio_8h.html" target="_top" xlink:title="fweelin_audioio.h">
<polygon fill="#ffffff" stroke="#000000" points="1270.5,-112.5 1270.5,-131.5 1373.5,-131.5 1373.5,-112.5 1270.5,-112.5"/>
<text text-anchor="middle" x="1322" y="-119.5" font-family="Helvetica,sans-Serif" font-size="10.00" fill="#000000">fweelin_audioio.h</text>
</a>
</g>
</g>
<!-- Node3&#45;&gt;Node24 -->
<g id="edge40" class="edge">
<title>Node3&#45;&gt;Node24</title>
<path fill="none" stroke="#191970" d="M660.247,-455.86C771.1593,-450.2302 1058.8101,-433.9172 1152,-412 1229.6887,-393.7285 1319,-425.8084 1319,-346 1319,-346 1319,-346 1319,-234 1319,-201.7 1320.2622,-164.1791 1321.1492,-141.8005"/>
<polygon fill="#191970" stroke="#191970" points="1324.6553,-141.7217 1321.5702,-131.5861 1317.6613,-141.4334 1324.6553,-141.7217"/>
</g>
<!-- Node27 -->
<g id="node28" class="node">
<title>Node27</title>
<g id="a_node28"><a xlink:href="fweelin__videoio_8h.html" target="_top" xlink:title="fweelin_videoio.h">
<polygon fill="#ffffff" stroke="#000000" points="434.5,-280.5 434.5,-299.5 537.5,-299.5 537.5,-280.5 434.5,-280.5"/>
<text text-anchor="middle" x="486" y="-287.5" font-family="Helvetica,sans-Serif" font-size="10.00" fill="#000000">fweelin_videoio.h</text>
</a>
</g>
</g>
<!-- Node3&#45;&gt;Node27 -->
<g id="edge32" class="edge">
<title>Node3&#45;&gt;Node27</title>
<path fill="none" stroke="#191970" d="M600.6216,-448.4193C587.8681,-439.9457 569.8145,-426.6751 557,-412 528.6662,-379.5523 505.7677,-334.1439 494.1992,-308.8722"/>
<polygon fill="#191970" stroke="#191970" points="497.3565,-307.3589 490.0781,-299.6598 490.9667,-310.2173 497.3565,-307.3589"/>
</g>
<!-- Node30 -->
<g id="node31" class="node">
<title>Node30</title>
<g id="a_node31"><a xlink:href="fweelin__sdlio_8h.html" target="_top" xlink:title="fweelin_sdlio.h">
<polygon fill="#ffffff" stroke="#000000" points="174,-280.5 174,-299.5 264,-299.5 264,-280.5 174,-280.5"/>
<text text-anchor="middle" x="219" y="-287.5" font-family="Helvetica,sans-Serif" font-size="10.00" fill="#000000">fweelin_sdlio.h</text>
</a>
</g>
</g>
<!-- Node3&#45;&gt;Node30 -->
<g id="edge37" class="edge">
<title>Node3&#45;&gt;Node30</title>
<path fill="none" stroke="#191970" d="M571.8147,-457.0738C491.1309,-454.5718 324.0119,-445.3936 278,-412 243.8599,-387.2225 228.6005,-337.3076 222.5213,-309.6208"/>
<polygon fill="#191970" stroke="#191970" points="225.9032,-308.6837 220.506,-299.5666 219.0397,-310.0595 225.9032,-308.6837"/>
</g>
<!-- Node31 -->
<g id="node32" class="node">
<title>Node31</title>
<g id="a_node32"><a xlink:href="fweelin__rcu_8h.html" target="_top" xlink:title="fweelin_rcu.h">
<polygon fill="#ffffff" stroke="#000000" points="701,-168.5 701,-187.5 783,-187.5 783,-168.5 701,-168.5"/>
<text text-anchor="middle" x="742" y="-175.5" font-family="Helvetica,sans-Serif" font-size="10.00" fill="#000000">fweelin_rcu.h</text>
</a>
</g>
</g>
<!-- Node3&#45;&gt;Node31 -->
<g id="edge41" class="edge">
<title>Node3&#45;&gt;Node31</title>
<path fill="none" stroke="#191970" d="M608.3871,-448.1905C598.7549,-434.494 584.8057,-409.3714 597,-392 618.0419,-362.0246 716.2267,-343.8457 752,-336 797.9667,-325.9187 1142.1697,-334.6613 1174,-300 1227.9636,-241.2369 919.2798,-198.4317 793.5083,-183.6466"/>
<polygon fill="#191970" stroke="#191970" points="793.6839,-180.1435 783.3469,-182.4664 792.8762,-187.0968 793.6839,-180.1435"/>
</g>
<!-- Node33 -->
<g id="node34" class="node">
<title>Node33</title>
<g id="a_node34"><a xlink:href="fweelin__config_8h.html" target="_top" xlink:title="fweelin_config.h">
<polygon fill="#ffffff" stroke="#000000" points="560,-336.5 560,-355.5 656,-355.5 656,-336.5 560,-336.5"/>
<text text-anchor="middle" x="608" y="-343.5" font-family="Helvetica,sans-Serif" font-size="10.00" fill="#000000">fweelin_config.h</text>
</a>
</g>
</g>
<!-- Node3&#45;&gt;Node33 -->
<g id="edge48" class="edge">
<title>Node3&#45;&gt;Node33</title>
<path fill="none" stroke="#191970" d="M598.9433,-448.377C586.6911,-440.4014 571.1292,-427.8248 564,-412 555.791,-393.7783 571.0296,-375.0058 585.7692,-362.1628"/>
<polygon fill="#191970" stroke="#191970" points="588.1975,-364.6997 593.7544,-355.6791 583.785,-359.2654 588.1975,-364.6997"/>
</g>
<!-- Node37 -->
<g id="node38" class="node">
<title>Node37</title>
<g id="a_node38"><a xlink:href="fweelin__fluidsynth_8h.html" target="_top" xlink:title="fweelin_fluidsynth.h">
<polygon fill="#ffffff" stroke="#000000" points="1049.5,-280.5 1049.5,-299.5 1164.5,-299.5 1164.5,-280.5 1049.5,-280.5"/>
<text text-anchor="middle" x="1107" y="-287.5" font-family="Helvetica,sans-Serif" font-size="10.00" fill="#000000">fweelin_fluidsynth.h</text>
</a>
</g>
</g>
<!-- Node3&#45;&gt;Node37 -->
<g id="edge62" class="edge">
<title>Node3&#45;&gt;Node37</title>
<path fill="none" stroke="#191970" d="M648.8732,-448.4585C669.3298,-441.17 695.0659,-429.3813 713,-412 740.2625,-385.5777 720.9165,-357.7991 752,-336 803.9038,-299.5994 972.1581,-308.3608 1035,-300 1036.3018,-299.8268 1037.6167,-299.6512 1038.9416,-299.4736"/>
<polygon fill="#191970" stroke="#191970" points="1039.7983,-302.8897 1049.2393,-298.0817 1038.8606,-295.9528 1039.7983,-302.8897"/>
</g>
<!-- Node38 -->
<g id="node39" class="node">
<title>Node38</title>
<g id="a_node39"><a xlink:href="fweelin__browser_8h.html" target="_top" xlink:title="fweelin_browser.h">
<polygon fill="#ffffff" stroke="#000000" points="336.5,-392.5 336.5,-411.5 441.5,-411.5 441.5,-392.5 336.5,-392.5"/>
<text text-anchor="middle" x="389" y="-399.5" font-family="Helvetica,sans-Serif" font-size="10.00" fill="#000000">fweelin_browser.h</text>
</a>
</g>
</g>
<!-- Node3&#45;&gt;Node38 -->
<g id="edge59" class="edge">
<title>Node3&#45;&gt;Node38</title>
<path fill="none" stroke="#191970" d="M577.2352,-448.4369C538.6308,-438.9133 479.2616,-424.2672 437.5428,-413.9753"/>
<polygon fill="#191970" stroke="#191970" points="438.1521,-410.5208 427.6049,-411.5237 436.4755,-417.317 438.1521,-410.5208"/>
</g>
<!-- Node39 -->
<g id="node40" class="node">
<title>Node39</title>
<g id="a_node40"><a xlink:href="fweelin__osc_8h.html" target="_top" xlink:title="fweelin_osc.h">
<polygon fill="#ffffff" stroke="#000000" points="760.5,-392.5 760.5,-411.5 843.5,-411.5 843.5,-392.5 760.5,-392.5"/>
<text text-anchor="middle" x="802" y="-399.5" font-family="Helvetica,sans-Serif" font-size="10.00" fill="#000000">fweelin_osc.h</text>
</a>
</g>
</g>
<!-- Node3&#45;&gt;Node39 -->
<g id="edge63" class="edge">
<title>Node3&#45;&gt;Node39</title>
<path fill="none" stroke="#191970" d="M647.9745,-448.3733C679.1713,-438.9807 726.771,-424.6496 760.7932,-414.4064"/>
<polygon fill="#191970" stroke="#191970" points="761.8763,-417.7355 770.4427,-411.5011 759.8582,-411.0327 761.8763,-417.7355"/>
</g>
<!-- Node5&#45;&gt;Node3 -->
<g id="edge11" class="edge">
<title>Node5&#45;&gt;Node3</title>
<path fill="none" stroke="#191970" d="M962.1072,-411.5186C961.0636,-411.6817 960.0269,-411.8423 959,-412 857.4692,-427.5921 738.1839,-443.4237 670.2988,-451.8393"/>
<polygon fill="#191970" stroke="#191970" points="669.7571,-448.3795 660.2599,-453.0757 670.6128,-455.327 669.7571,-448.3795"/>
</g>
<!-- Node6 -->
<g id="node7" class="node">
<title>Node6</title>
<polygon fill="#ffffff" stroke="#bfbfbf" points="1081,-336.5 1081,-355.5 1131,-355.5 1131,-336.5 1081,-336.5"/>
<text text-anchor="middle" x="1106" y="-343.5" font-family="Helvetica,sans-Serif" font-size="10.00" fill="#000000">stdio.h</text>
</g>
<!-- Node5&#45;&gt;Node6 -->
<g id="edge6" class="edge">
<title>Node5&#45;&gt;Node6</title>
<path fill="none" stroke="#191970" d="M1025.8961,-392.2455C1040.918,-383.5731 1063.1043,-370.7645 1080.321,-360.825"/>
<polygon fill="#191970" stroke="#191970" points="1082.3871,-363.6737 1089.2975,-355.6427 1078.8872,-357.6114 1082.3871,-363.6737"/>
</g>
<!-- Node7 -->
<g id="node8" class="node">
<title>Node7</title>
<polygon fill="#ffffff" stroke="#bfbfbf" points="1149.5,-336.5 1149.5,-355.5 1202.5,-355.5 1202.5,-336.5 1149.5,-336.5"/>
<text text-anchor="middle" x="1176" y="-343.5" font-family="Helvetica,sans-Serif" font-size="10.00" fill="#000000">stdlib.h</text>
</g>
<!-- Node5&#45;&gt;Node7 -->
<g id="edge7" class="edge">
<title>Node5&#45;&gt;Node7</title>
<path fill="none" stroke="#191970" d="M1037.7083,-392.3733C1065.8604,-382.933 1108.8896,-368.5041 1139.4664,-358.2508"/>
<polygon fill="#191970" stroke="#191970" points="1140.9507,-361.4447 1149.319,-354.9469 1138.7251,-354.8079 1140.9507,-361.4447"/>
</g>
<!-- Node8 -->
<g id="node9" class="node">
<title>Node8</title>
<polygon fill="#ffffff" stroke="#bfbfbf" points="940.5,-336.5 940.5,-355.5 993.5,-355.5 993.5,-336.5 940.5,-336.5"/>
<text text-anchor="middle" x="967" y="-343.5" font-family="Helvetica,sans-Serif" font-size="10.00" fill="#000000">ctype.h</text>
</g>
<!-- Node5&#45;&gt;Node8 -->
<g id="edge8" class="edge">
<title>Node5&#45;&gt;Node8</title>
<path fill="none" stroke="#191970" d="M1001.6842,-392.2455C995.7821,-384.3761 987.3258,-373.101 980.2406,-363.6542"/>
<polygon fill="#191970" stroke="#191970" points="983.0321,-361.5427 974.232,-355.6427 977.432,-365.7427 983.0321,-361.5427"/>
</g>
<!-- Node9 -->
<g id="node10" class="node">
<title>Node9</title>
<polygon fill="#ffffff" stroke="#bfbfbf" points="1011.5,-336.5 1011.5,-355.5 1062.5,-355.5 1062.5,-336.5 1011.5,-336.5"/>
<text text-anchor="middle" x="1037" y="-343.5" font-family="Helvetica,sans-Serif" font-size="10.00" fill="#000000">math.h</text>
</g>
<!-- Node5&#45;&gt;Node9 -->
<g id="edge9" class="edge">
<title>Node5&#45;&gt;Node9</title>
<path fill="none" stroke="#191970" d="M1013.8772,-392.2455C1017.6513,-384.6973 1022.9921,-374.0158 1027.5901,-364.8197"/>
<polygon fill="#191970" stroke="#191970" points="1030.837,-366.1522 1032.1787,-355.6427 1024.576,-363.0217 1030.837,-366.1522"/>
</g>
<!-- Node10 -->
<g id="node11" class="node">
<title>Node10</title>
<polygon fill="#ffffff" stroke="#bfbfbf" points="826,-336.5 826,-355.5 922,-355.5 922,-336.5 826,-336.5"/>
<text text-anchor="middle" x="874" y="-343.5" font-family="Helvetica,sans-Serif" font-size="10.00" fill="#000000">alsa/asoundlib.h</text>
</g>
<!-- Node5&#45;&gt;Node10 -->
<g id="edge10" class="edge">
<title>Node5&#45;&gt;Node10</title>
<path fill="none" stroke="#191970" d="M985.7927,-392.3733C963.8301,-383.2629 930.6668,-369.5062 906.1599,-359.3404"/>
<polygon fill="#191970" stroke="#191970" points="907.4824,-356.0999 896.9045,-355.5011 904.8003,-362.5657 907.4824,-356.0999"/>
</g>
<!-- Node11&#45;&gt;Node10 -->
<g id="edge13" class="edge">
<title>Node11&#45;&gt;Node10</title>
<path fill="none" stroke="#191970" d="M692.6474,-392.3733C729.852,-382.8598 786.8703,-368.2797 827.0216,-358.0127"/>
<polygon fill="#191970" stroke="#191970" points="828.0227,-361.3695 836.8438,-355.5011 826.2884,-354.5877 828.0227,-361.3695"/>
</g>
<!-- Node11&#45;&gt;Node12 -->
<g id="edge14" class="edge">
<title>Node11&#45;&gt;Node12</title>
<path fill="none" stroke="#191970" d="M628.9746,-392.4354C580.3602,-374.5338 472.486,-334.6438 382,-300 359.2622,-291.2946 353.8623,-288.373 331,-280 298.7999,-268.2072 261.9295,-255.7112 234.8659,-246.7243"/>
<polygon fill="#191970" stroke="#191970" points="235.9589,-243.3994 225.3656,-243.5799 233.7593,-250.0449 235.9589,-243.3994"/>
</g>
<!-- Node13 -->
<g id="node14" class="node">
<title>Node13</title>
<polygon fill="#ffffff" stroke="#bfbfbf" points="254,-168.5 254,-187.5 334,-187.5 334,-168.5 254,-168.5"/>
<text text-anchor="middle" x="294" y="-175.5" font-family="Helvetica,sans-Serif" font-size="10.00" fill="#000000">linux/limits.h</text>
</g>
<!-- Node12&#45;&gt;Node13 -->
<g id="edge15" class="edge">
<title>Node12&#45;&gt;Node13</title>
<path fill="none" stroke="#191970" d="M213.0703,-224.2455C228.247,-215.5731 250.6621,-202.7645 268.0563,-192.825"/>
<polygon fill="#191970" stroke="#191970" points="270.1794,-195.643 277.1253,-187.6427 266.7064,-189.5653 270.1794,-195.643"/>
</g>
<!-- Node14 -->
<g id="node15" class="node">
<title>Node14</title>
<polygon fill="#ffffff" stroke="#bfbfbf" points="92.5,-168.5 92.5,-187.5 155.5,-187.5 155.5,-168.5 92.5,-168.5"/>
<text text-anchor="middle" x="124" y="-175.5" font-family="Helvetica,sans-Serif" font-size="10.00" fill="#000000">pthread.h</text>
</g>
<!-- Node12&#45;&gt;Node14 -->
<g id="edge16" class="edge">
<title>Node12&#45;&gt;Node14</title>
<path fill="none" stroke="#191970" d="M183.4586,-224.2455C172.7213,-215.8943 157.0527,-203.7076 144.4953,-193.9408"/>
<polygon fill="#191970" stroke="#191970" points="146.4401,-191.0194 136.3977,-187.6427 142.1425,-196.5449 146.4401,-191.0194"/>
</g>
<!-- Node15 -->
<g id="node16" class="node">
<title>Node15</title>
<polygon fill="#ffffff" stroke="#bfbfbf" points="352,-168.5 352,-187.5 418,-187.5 418,-168.5 352,-168.5"/>
<text text-anchor="middle" x="385" y="-175.5" font-family="Helvetica,sans-Serif" font-size="10.00" fill="#000000">SDL/SDL.h</text>
</g>
<!-- Node12&#45;&gt;Node15 -->
<g id="edge17" class="edge">
<title>Node12&#45;&gt;Node15</title>
<path fill="none" stroke="#191970" d="M228.4903,-224.3733C260.1902,-214.9807 308.5576,-200.6496 343.1286,-190.4064"/>
<polygon fill="#191970" stroke="#191970" points="344.3401,-193.6979 352.9337,-187.5011 342.3514,-186.9863 344.3401,-193.6979"/>
</g>
<!-- Node16 -->
<g id="node17" class="node">
<title>Node16</title>
<polygon fill="#ffffff" stroke="#bfbfbf" points="296.5,-.5 296.5,-19.5 391.5,-19.5 391.5,-.5 296.5,-.5"/>
<text text-anchor="middle" x="344" y="-7.5" font-family="Helvetica,sans-Serif" font-size="10.00" fill="#000000">jack/ringbuffer.h</text>
</g>
<!-- Node12&#45;&gt;Node16 -->
<g id="edge18" class="edge">
<title>Node12&#45;&gt;Node16</title>
<path fill="none" stroke="#191970" d="M198.7043,-224.2007C202.5829,-210.9465 210.4389,-186.8019 221,-168 252.3196,-112.2418 302.1453,-55.0271 327.7049,-27.2442"/>
<polygon fill="#191970" stroke="#191970" points="330.5651,-29.308 334.8108,-19.601 325.4384,-24.5417 330.5651,-29.308"/>
</g>
<!-- Node17 -->
<g id="node18" class="node">
<title>Node17</title>
<g id="a_node18"><a xlink:href="fweelin__datatypes_8h.html" target="_top" xlink:title="fweelin_datatypes.h">
<polygon fill="#ffffff" stroke="#000000" points="537,-56.5 537,-75.5 653,-75.5 653,-56.5 537,-56.5"/>
<text text-anchor="middle" x="595" y="-63.5" font-family="Helvetica,sans-Serif" font-size="10.00" fill="#000000">fweelin_datatypes.h</text>
</a>
</g>
</g>
<!-- Node12&#45;&gt;Node17 -->
<g id="edge19" class="edge">
<title>Node12&#45;&gt;Node17</title>
<path fill="none" stroke="#191970" d="M200.5714,-224.3623C207.9079,-209.9343 223.6794,-182.8338 245,-168 330.8429,-108.2748 451.6759,-83.1554 526.5723,-72.8508"/>
<polygon fill="#191970" stroke="#191970" points="527.3732,-76.2754 536.8273,-71.4931 526.4544,-69.336 527.3732,-76.2754"/>
</g>
<!-- Node12&#45;&gt;Node19 -->
<g id="edge22" class="edge">
<title>Node12&#45;&gt;Node19</title>
<path fill="none" stroke="#191970" d="M243.9549,-227.6377C256.3199,-226.3346 269.6058,-225.044 282,-224 534.812,-202.7052 837.8378,-186.5373 961.4623,-180.5378"/>
<polygon fill="#191970" stroke="#191970" points="961.6382,-184.0335 971.4581,-180.056 961.3011,-177.0416 961.6382,-184.0335"/>
</g>
<!-- Node17&#45;&gt;Node16 -->
<g id="edge20" class="edge">
<title>Node17&#45;&gt;Node16</title>
<path fill="none" stroke="#191970" d="M552.1368,-56.4369C509.0898,-46.8328 442.6927,-32.0191 396.509,-21.7152"/>
<polygon fill="#191970" stroke="#191970" points="397.2087,-18.2853 386.6865,-19.5237 395.6843,-25.1173 397.2087,-18.2853"/>
</g>
<!-- Node18 -->
<g id="node19" class="node">
<title>Node18</title>
<polygon fill="#ffffff" stroke="#bfbfbf" points="567,-.5 567,-19.5 623,-19.5 623,-.5 567,-.5"/>
<text text-anchor="middle" x="595" y="-7.5" font-family="Helvetica,sans-Serif" font-size="10.00" fill="#000000">assert.h</text>
</g>
<!-- Node17&#45;&gt;Node18 -->
<g id="edge21" class="edge">
<title>Node17&#45;&gt;Node18</title>
<path fill="none" stroke="#191970" d="M595,-56.2455C595,-48.9382 595,-38.6944 595,-29.7046"/>
<polygon fill="#191970" stroke="#191970" points="598.5001,-29.6426 595,-19.6427 591.5001,-29.6427 598.5001,-29.6426"/>
</g>
<!-- Node19&#45;&gt;Node12 -->
<g id="edge31" class="edge">
<title>Node19&#45;&gt;Node12</title>
<path fill="none" stroke="#191970" d="M971.4682,-180.503C857.0151,-186.4745 553.303,-202.6639 300,-224 285.0959,-225.2554 268.9025,-226.8674 253.7844,-228.4289"/>
<polygon fill="#191970" stroke="#191970" points="253.1031,-224.9808 243.5189,-229.4968 253.8275,-231.9432 253.1031,-224.9808"/>
</g>
<!-- Node20 -->
<g id="node21" class="node">
<title>Node20</title>
<polygon fill="#ffffff" stroke="#bfbfbf" points="1165.5,-112.5 1165.5,-131.5 1252.5,-131.5 1252.5,-112.5 1165.5,-112.5"/>
<text text-anchor="middle" x="1209" y="-119.5" font-family="Helvetica,sans-Serif" font-size="10.00" fill="#000000">vorbis/codec.h</text>
</g>
<!-- Node19&#45;&gt;Node20 -->
<g id="edge23" class="edge">
<title>Node19&#45;&gt;Node20</title>
<path fill="none" stroke="#191970" d="M1050.8341,-168.3733C1082.8695,-158.9807 1131.7487,-144.6496 1166.6855,-134.4064"/>
<polygon fill="#191970" stroke="#191970" points="1167.9831,-137.6733 1176.5944,-131.5011 1166.0136,-130.9561 1167.9831,-137.6733"/>
</g>
<!-- Node21 -->
<g id="node22" class="node">
<title>Node21</title>
<polygon fill="#ffffff" stroke="#bfbfbf" points="843,-112.5 843,-131.5 947,-131.5 947,-112.5 843,-112.5"/>
<text text-anchor="middle" x="895" y="-119.5" font-family="Helvetica,sans-Serif" font-size="10.00" fill="#000000">vorbis/vorbisfile.h</text>
</g>
<!-- Node19&#45;&gt;Node21 -->
<g id="edge24" class="edge">
<title>Node19&#45;&gt;Node21</title>
<path fill="none" stroke="#191970" d="M996.8555,-168.3733C977.1108,-159.3838 947.4302,-145.8706 925.1945,-135.7471"/>
<polygon fill="#191970" stroke="#191970" points="926.42,-132.4594 915.8685,-131.5011 923.5194,-138.8302 926.42,-132.4594"/>
</g>
<!-- Node22 -->
<g id="node23" class="node">
<title>Node22</title>
<polygon fill="#ffffff" stroke="#bfbfbf" points="965,-112.5 965,-131.5 1071,-131.5 1071,-112.5 965,-112.5"/>
<text text-anchor="middle" x="1018" y="-119.5" font-family="Helvetica,sans-Serif" font-size="10.00" fill="#000000">vorbis/vorbisenc.h</text>
</g>
<!-- Node19&#45;&gt;Node22 -->
<g id="edge25" class="edge">
<title>Node19&#45;&gt;Node22</title>
<path fill="none" stroke="#191970" d="M1018,-168.2455C1018,-160.9382 1018,-150.6944 1018,-141.7046"/>
<polygon fill="#191970" stroke="#191970" points="1021.5001,-141.6426 1018,-131.6427 1014.5001,-141.6427 1021.5001,-141.6426"/>
</g>
<!-- Node23 -->
<g id="node24" class="node">
<title>Node23</title>
<polygon fill="#ffffff" stroke="#bfbfbf" points="1089,-112.5 1089,-131.5 1147,-131.5 1147,-112.5 1089,-112.5"/>
<text text-anchor="middle" x="1118" y="-119.5" font-family="Helvetica,sans-Serif" font-size="10.00" fill="#000000">sndfile.h</text>
</g>
<!-- Node19&#45;&gt;Node23 -->
<g id="edge26" class="edge">
<title>Node19&#45;&gt;Node23</title>
<path fill="none" stroke="#191970" d="M1035.4187,-168.2455C1051.0485,-159.4928 1074.2019,-146.527 1092.0185,-136.5496"/>
<polygon fill="#191970" stroke="#191970" points="1093.766,-139.5825 1100.7809,-131.6427 1090.3457,-133.475 1093.766,-139.5825"/>
</g>
<!-- Node19&#45;&gt;Node24 -->
<g id="edge27" class="edge">
<title>Node19&#45;&gt;Node24</title>
<path fill="none" stroke="#191970" d="M1064.502,-169.4338C1116.9087,-159.78 1202.331,-144.0443 1260.2867,-133.3682"/>
<polygon fill="#191970" stroke="#191970" points="1261.2153,-136.7562 1270.4158,-131.5024 1259.9471,-129.872 1261.2153,-136.7562"/>
</g>
<!-- Node26 -->
<g id="node27" class="node">
<title>Node26</title>
<g id="a_node27"><a xlink:href="fweelin__mem_8h.html" target="_top" xlink:title="fweelin_mem.h">
<polygon fill="#ffffff" stroke="#000000" points="733,-112.5 733,-131.5 825,-131.5 825,-112.5 733,-112.5"/>
<text text-anchor="middle" x="779" y="-119.5" font-family="Helvetica,sans-Serif" font-size="10.00" fill="#000000">fweelin_mem.h</text>
</a>
</g>
</g>
<!-- Node19&#45;&gt;Node26 -->
<g id="edge29" class="edge">
<title>Node19&#45;&gt;Node26</title>
<path fill="none" stroke="#191970" d="M977.186,-168.4369C936.3689,-158.8731 873.5041,-144.1432 829.5528,-133.845"/>
<polygon fill="#191970" stroke="#191970" points="830.1805,-130.3973 819.6457,-131.5237 828.5835,-137.2128 830.1805,-130.3973"/>
</g>
<!-- Node25 -->
<g id="node26" class="node">
<title>Node25</title>
<polygon fill="#ffffff" stroke="#bfbfbf" points="1287.5,-56.5 1287.5,-75.5 1356.5,-75.5 1356.5,-56.5 1287.5,-56.5"/>
<text text-anchor="middle" x="1322" y="-63.5" font-family="Helvetica,sans-Serif" font-size="10.00" fill="#000000">jack/jack.h</text>
</g>
<!-- Node24&#45;&gt;Node25 -->
<g id="edge28" class="edge">
<title>Node24&#45;&gt;Node25</title>
<path fill="none" stroke="#191970" d="M1322,-112.2455C1322,-104.9382 1322,-94.6944 1322,-85.7046"/>
<polygon fill="#191970" stroke="#191970" points="1325.5001,-85.6426 1322,-75.6427 1318.5001,-85.6427 1325.5001,-85.6426"/>
</g>
<!-- Node26&#45;&gt;Node17 -->
<g id="edge30" class="edge">
<title>Node26&#45;&gt;Node17</title>
<path fill="none" stroke="#191970" d="M747.3693,-112.3733C716.6404,-103.021 669.824,-88.7725 636.1978,-78.5385"/>
<polygon fill="#191970" stroke="#191970" points="636.8038,-75.0644 626.218,-75.5011 634.7656,-81.7612 636.8038,-75.0644"/>
</g>
<!-- Node27&#45;&gt;Node12 -->
<g id="edge33" class="edge">
<title>Node27&#45;&gt;Node12</title>
<path fill="none" stroke="#191970" d="M436.4767,-280.4369C385.8682,-270.6642 307.3261,-255.4974 253.8798,-245.1768"/>
<polygon fill="#191970" stroke="#191970" points="254.3552,-241.704 243.873,-243.2444 253.028,-248.577 254.3552,-241.704"/>
</g>
<!-- Node27&#45;&gt;Node15 -->
<g id="edge34" class="edge">
<title>Node27&#45;&gt;Node15</title>
<path fill="none" stroke="#191970" d="M434.4577,-281.2268C379.7698,-271.3963 299.9861,-255.3525 291,-244 272.0765,-220.093 309.2936,-201.199 342.338,-189.8585"/>
<polygon fill="#191970" stroke="#191970" points="343.5231,-193.1535 351.9437,-186.7234 341.3512,-186.4989 343.5231,-193.1535"/>
</g>
<!-- Node28 -->
<g id="node29" class="node">
<title>Node28</title>
<polygon fill="#ffffff" stroke="#bfbfbf" points="300.5,-224.5 300.5,-243.5 437.5,-243.5 437.5,-224.5 300.5,-224.5"/>
<text text-anchor="middle" x="369" y="-231.5" font-family="Helvetica,sans-Serif" font-size="10.00" fill="#000000">SDL/SDL_gfxPrimitives.h</text>
</g>
<!-- Node27&#45;&gt;Node28 -->
<g id="edge35" class="edge">
<title>Node27&#45;&gt;Node28</title>
<path fill="none" stroke="#191970" d="M465.887,-280.3733C447.1897,-271.4241 419.1256,-257.9917 398.0066,-247.8835"/>
<polygon fill="#191970" stroke="#191970" points="399.3817,-244.6614 388.8506,-243.5011 396.3595,-250.9755 399.3817,-244.6614"/>
</g>
<!-- Node29 -->
<g id="node30" class="node">
<title>Node29</title>
<polygon fill="#ffffff" stroke="#bfbfbf" points="456,-224.5 456,-243.5 538,-243.5 538,-224.5 456,-224.5"/>
<text text-anchor="middle" x="497" y="-231.5" font-family="Helvetica,sans-Serif" font-size="10.00" fill="#000000">SDL/SDL_ttf.h</text>
</g>
<!-- Node27&#45;&gt;Node29 -->
<g id="edge36" class="edge">
<title>Node27&#45;&gt;Node29</title>
<path fill="none" stroke="#191970" d="M487.9161,-280.2455C489.3514,-272.9382 491.3636,-262.6944 493.1295,-253.7046"/>
<polygon fill="#191970" stroke="#191970" points="496.6127,-254.1298 495.1059,-243.6427 489.744,-252.7805 496.6127,-254.1298"/>
</g>
<!-- Node30&#45;&gt;Node12 -->
<g id="edge39" class="edge">
<title>Node30&#45;&gt;Node12</title>
<path fill="none" stroke="#191970" d="M214.9937,-280.2455C211.9265,-272.7776 207.5997,-262.2427 203.8503,-253.1137"/>
<polygon fill="#191970" stroke="#191970" points="206.9972,-251.5631 199.9604,-243.6427 200.5221,-254.2226 206.9972,-251.5631"/>
</g>
<!-- Node30&#45;&gt;Node14 -->
<g id="edge38" class="edge">
<title>Node30&#45;&gt;Node14</title>
<path fill="none" stroke="#191970" d="M190.5013,-280.3814C173.0767,-273.062 151.7557,-261.2681 139,-244 129.194,-230.725 125.6329,-212.1498 124.4159,-198.0862"/>
<polygon fill="#191970" stroke="#191970" points="127.9033,-197.7583 123.8679,-187.9621 120.9136,-198.1367 127.9033,-197.7583"/>
</g>
<!-- Node31&#45;&gt;Node17 -->
<g id="edge43" class="edge">
<title>Node31&#45;&gt;Node17</title>
<path fill="none" stroke="#191970" d="M735.7402,-168.4309C726.2977,-154.5725 707.2416,-128.7462 686,-112 669.1094,-98.684 647.7535,-87.6461 629.9756,-79.7234"/>
<polygon fill="#191970" stroke="#191970" points="631.0869,-76.3911 620.5182,-75.6477 628.3165,-82.8196 631.0869,-76.3911"/>
</g>
<!-- Node31&#45;&gt;Node26 -->
<g id="edge44" class="edge">
<title>Node31&#45;&gt;Node26</title>
<path fill="none" stroke="#191970" d="M748.4449,-168.2455C753.5382,-160.5367 760.7908,-149.5598 766.952,-140.2348"/>
<polygon fill="#191970" stroke="#191970" points="770.0365,-141.9155 772.6289,-131.6427 764.1962,-138.0566 770.0365,-141.9155"/>
</g>
<!-- Node32 -->
<g id="node33" class="node">
<title>Node32</title>
<polygon fill="#ffffff" stroke="#bfbfbf" points="623.5,-112.5 623.5,-131.5 676.5,-131.5 676.5,-112.5 623.5,-112.5"/>
<text text-anchor="middle" x="650" y="-119.5" font-family="Helvetica,sans-Serif" font-size="10.00" fill="#000000">stdint.h</text>
</g>
<!-- Node31&#45;&gt;Node32 -->
<g id="edge42" class="edge">
<title>Node31&#45;&gt;Node32</title>
<path fill="none" stroke="#191970" d="M725.9748,-168.2455C711.8592,-159.6534 691.0737,-147.0014 674.8101,-137.1018"/>
<polygon fill="#191970" stroke="#191970" points="676.2034,-133.8525 665.8415,-131.6427 672.5637,-139.8319 676.2034,-133.8525"/>
</g>
<!-- Node33&#45;&gt;Node12 -->
<g id="edge56" class="edge">
<title>Node33&#45;&gt;Node12</title>
<path fill="none" stroke="#191970" d="M559.8714,-336.51C522.5323,-328.526 469.7688,-315.8771 425,-300 405.1351,-292.955 401.8783,-287.0071 382,-280 339.9891,-265.1911 291.0356,-253.2884 253.8977,-245.3035"/>
<polygon fill="#191970" stroke="#191970" points="254.2599,-241.8027 243.7518,-243.1561 252.8103,-248.651 254.2599,-241.8027"/>
</g>
<!-- Node33&#45;&gt;Node15 -->
<g id="edge49" class="edge">
<title>Node33&#45;&gt;Node15</title>
<path fill="none" stroke="#191970" d="M604.3707,-336.3984C594.3811,-310.4313 565.9641,-239.7127 547,-224 528.9054,-209.0077 469.6617,-194.7065 428.0795,-186.1395"/>
<polygon fill="#191970" stroke="#191970" points="428.6821,-182.6906 418.1869,-184.1402 427.2954,-189.5519 428.6821,-182.6906"/>
</g>
<!-- Node33&#45;&gt;Node17 -->
<g id="edge54" class="edge">
<title>Node33&#45;&gt;Node17</title>
<path fill="none" stroke="#191970" d="M607.5525,-336.3618C605.6852,-296.1418 598.4922,-141.2159 595.9206,-85.8288"/>
<polygon fill="#191970" stroke="#191970" points="599.4057,-85.4246 595.4456,-75.5977 592.4133,-85.7493 599.4057,-85.4246"/>
</g>
<!-- Node33&#45;&gt;Node19 -->
<g id="edge53" class="edge">
<title>Node33&#45;&gt;Node19</title>
<path fill="none" stroke="#191970" d="M656.2394,-338.8887C663.2024,-337.8972 670.2827,-336.908 677,-336 740.6983,-327.39 912.4217,-338.3573 964,-300 997.3248,-275.2173 1010.4583,-225.3045 1015.3368,-197.6194"/>
<polygon fill="#191970" stroke="#191970" points="1018.8217,-197.9876 1016.9143,-187.5659 1011.9063,-196.9024 1018.8217,-197.9876"/>
</g>
<!-- Node33&#45;&gt;Node24 -->
<g id="edge55" class="edge">
<title>Node33&#45;&gt;Node24</title>
<path fill="none" stroke="#191970" d="M656.18,-342.3633C743.9378,-335.374 926.3778,-319.0582 987,-300 1051.9734,-279.5739 1230.6273,-175.9657 1296.861,-136.9177"/>
<polygon fill="#191970" stroke="#191970" points="1298.9609,-139.7424 1305.7906,-131.6426 1295.4005,-133.7154 1298.9609,-139.7424"/>
</g>
<!-- Node33&#45;&gt;Node27 -->
<g id="edge57" class="edge">
<title>Node33&#45;&gt;Node27</title>
<path fill="none" stroke="#191970" d="M587.0275,-336.3733C567.4433,-327.3838 538.0039,-313.8706 515.949,-303.7471"/>
<polygon fill="#191970" stroke="#191970" points="517.2473,-300.4919 506.6989,-299.5011 514.3271,-306.8538 517.2473,-300.4919"/>
</g>
<!-- Node34 -->
<g id="node35" class="node">
<title>Node34</title>
<polygon fill="#ffffff" stroke="#bfbfbf" points="632,-280.5 632,-299.5 750,-299.5 750,-280.5 632,-280.5"/>
<text text-anchor="middle" x="691" y="-287.5" font-family="Helvetica,sans-Serif" font-size="10.00" fill="#000000">libxml/xmlmemory.h</text>
</g>
<!-- Node33&#45;&gt;Node34 -->
<g id="edge50" class="edge">
<title>Node33&#45;&gt;Node34</title>
<path fill="none" stroke="#191970" d="M622.4575,-336.2455C635.0732,-327.7337 653.5944,-315.2375 668.2045,-305.3801"/>
<polygon fill="#191970" stroke="#191970" points="670.3761,-308.1371 676.7082,-299.6427 666.4609,-302.3343 670.3761,-308.1371"/>
</g>
<!-- Node35 -->
<g id="node36" class="node">
<title>Node35</title>
<polygon fill="#ffffff" stroke="#bfbfbf" points="768.5,-280.5 768.5,-299.5 857.5,-299.5 857.5,-280.5 768.5,-280.5"/>
<text text-anchor="middle" x="813" y="-287.5" font-family="Helvetica,sans-Serif" font-size="10.00" fill="#000000">libxml/parser.h</text>
</g>
<!-- Node33&#45;&gt;Node35 -->
<g id="edge51" class="edge">
<title>Node33&#45;&gt;Node35</title>
<path fill="none" stroke="#191970" d="M643.2408,-336.3733C677.9194,-326.9001 730.9883,-312.4032 768.5462,-302.1435"/>
<polygon fill="#191970" stroke="#191970" points="769.4949,-305.5126 778.2191,-299.5011 767.6502,-298.7601 769.4949,-305.5126"/>
</g>
<!-- Node36 -->
<g id="node37" class="node">
<title>Node36</title>
<polygon fill="#ffffff" stroke="#bfbfbf" points="875.5,-280.5 875.5,-299.5 954.5,-299.5 954.5,-280.5 875.5,-280.5"/>
<text text-anchor="middle" x="915" y="-287.5" font-family="Helvetica,sans-Serif" font-size="10.00" fill="#000000">libxml/tree.h</text>
</g>
<!-- Node33&#45;&gt;Node36 -->
<g id="edge52" class="edge">
<title>Node33&#45;&gt;Node36</title>
<path fill="none" stroke="#191970" d="M656.291,-337.8631C706.2345,-329.3494 786.7408,-315.3521 865.3876,-300.2733"/>
<polygon fill="#191970" stroke="#191970" points="866.308,-303.6605 875.466,-298.333 864.9846,-296.7867 866.308,-303.6605"/>
</g>
<!-- Node33&#45;&gt;Node37 -->
<g id="edge58" class="edge">
<title>Node33&#45;&gt;Node37</title>
<path fill="none" stroke="#191970" d="M656.22,-338.7376C663.1858,-337.7682 670.272,-336.8254 677,-336 835.7235,-316.5272 876.2195,-319.0029 1035,-300 1036.304,-299.8439 1037.6209,-299.684 1038.9476,-299.5209"/>
<polygon fill="#191970" stroke="#191970" points="1039.7752,-302.9441 1049.2563,-298.2155 1038.8958,-295.9996 1039.7752,-302.9441"/>
</g>
<!-- Node38&#45;&gt;Node12 -->
<g id="edge60" class="edge">
<title>Node38&#45;&gt;Node12</title>
<path fill="none" stroke="#191970" d="M384.8292,-392.3738C374.5873,-369.767 346.0827,-312.7287 306,-280 287.5214,-264.9117 263.3869,-254.0858 242.434,-246.7424"/>
<polygon fill="#191970" stroke="#191970" points="243.3472,-243.3575 232.7535,-243.5124 241.1316,-249.9976 243.3472,-243.3575"/>
</g>
<!-- Node38&#45;&gt;Node33 -->
<g id="edge61" class="edge">
<title>Node38&#45;&gt;Node33</title>
<path fill="none" stroke="#191970" d="M426.6474,-392.3733C463.852,-382.8598 520.8703,-368.2797 561.0216,-358.0127"/>
<polygon fill="#191970" stroke="#191970" points="562.0227,-361.3695 570.8438,-355.5011 560.2884,-354.5877 562.0227,-361.3695"/>
</g>
<!-- Node40 -->
<g id="node41" class="node">
<title>Node40</title>
<polygon fill="#ffffff" stroke="#bfbfbf" points="760.5,-336.5 760.5,-355.5 807.5,-355.5 807.5,-336.5 760.5,-336.5"/>
<text text-anchor="middle" x="784" y="-343.5" font-family="Helvetica,sans-Serif" font-size="10.00" fill="#000000">lo/lo.h</text>
</g>
<!-- Node39&#45;&gt;Node40 -->
<g id="edge64" class="edge">
<title>Node39&#45;&gt;Node40</title>
<path fill="none" stroke="#191970" d="M798.8646,-392.2455C796.49,-384.8579 793.1507,-374.4689 790.2385,-365.4087"/>
<polygon fill="#191970" stroke="#191970" points="793.4917,-364.0919 787.0994,-355.6427 786.8275,-366.234 793.4917,-364.0919"/>
</g>
</g>
</svg>
