<?xml version="1.0" encoding="UTF-8" standalone="no"?>
<!DOCTYPE svg PUBLIC "-//W3C//DTD SVG 1.1//EN"
 "http://www.w3.org/Graphics/SVG/1.1/DTD/svg11.dtd">
<!-- Generated by graphviz version 2.40.1 (20161225.0304)
 -->
<!-- Title: src/fweelin_core_dsp.h Pages: 1 -->
<svg width="1720pt" height="207pt"
 viewBox="0.00 0.00 1719.50 207.00" xmlns="http://www.w3.org/2000/svg" xmlns:xlink="http://www.w3.org/1999/xlink">
<g id="graph0" class="graph" transform="scale(1 1) rotate(0) translate(4 203)">
<title>src/fweelin_core_dsp.h</title>
<polygon fill="#ffffff" stroke="transparent" points="-4,4 -4,-203 1715.5,-203 1715.5,4 -4,4"/>
<!-- Node41 -->
<g id="node1" class="node">
<title>Node41</title>
<polygon fill="#bfbfbf" stroke="#000000" points="656.5,-179.5 656.5,-198.5 784.5,-198.5 784.5,-179.5 656.5,-179.5"/>
<text text-anchor="middle" x="720.5" y="-186.5" font-family="Helvetica,sans-Serif" font-size="10.00" fill="#000000">src/fweelin_core_dsp.h</text>
</g>
<!-- Node42 -->
<g id="node2" class="node">
<title>Node42</title>
<g id="a_node2"><a xlink:href="fweelin__core_8h.html" target="_top" xlink:title="src/fweelin_core.h">
<polygon fill="#ffffff" stroke="#000000" points="668,-123.5 668,-142.5 773,-142.5 773,-123.5 668,-123.5"/>
<text text-anchor="middle" x="720.5" y="-130.5" font-family="Helvetica,sans-Serif" font-size="10.00" fill="#000000">src/fweelin_core.h</text>
</a>
</g>
</g>
<!-- Node41&#45;&gt;Node42 -->
<g id="edge1" class="edge">
<title>Node41&#45;&gt;Node42</title>
<path fill="none" stroke="#191970" d="M714.0113,-169.1575C713.419,-160.155 713.8335,-149.9199 715.2549,-142.6427"/>
<polygon fill="#191970" stroke="#191970" points="710.5561,-169.739 715.2332,-179.2455 717.5053,-168.8972 710.5561,-169.739"/>
</g>
<!-- Node44 -->
<g id="node4" class="node">
<title>Node44</title>
<g id="a_node4"><a xlink:href="fweelin_8cc.html" target="_top" xlink:title="src/fweelin.cc">
<polygon fill="#ffffff" stroke="#000000" points="0,-62 0,-81 83,-81 83,-62 0,-62"/>
<text text-anchor="middle" x="41.5" y="-69" font-family="Helvetica,sans-Serif" font-size="10.00" fill="#000000">src/fweelin.cc</text>
</a>
</g>
</g>
<!-- Node41&#45;&gt;Node44 -->
<g id="edge21" class="edge">
<title>Node41&#45;&gt;Node44</title>
<path fill="none" stroke="#191970" d="M646.0803,-180.6531C527.7569,-166.5472 289.9195,-134.779 92.5,-87 85.3944,-85.2803 77.8176,-83.1459 70.737,-81.0166"/>
<polygon fill="#191970" stroke="#191970" points="645.7755,-184.1414 656.1176,-181.8414 646.5985,-177.1899 645.7755,-184.1414"/>
</g>
<!-- Node49 -->
<g id="node9" class="node">
<title>Node49</title>
<g id="a_node9"><a xlink:href="fweelin__config_8cc.html" target="_top" xlink:title="src/fweelin_config.cc">
<polygon fill="#ffffff" stroke="#000000" points="101.5,-62 101.5,-81 219.5,-81 219.5,-62 101.5,-62"/>
<text text-anchor="middle" x="160.5" y="-69" font-family="Helvetica,sans-Serif" font-size="10.00" fill="#000000">src/fweelin_config.cc</text>
</a>
</g>
</g>
<!-- Node41&#45;&gt;Node49 -->
<g id="edge23" class="edge">
<title>Node41&#45;&gt;Node49</title>
<path fill="none" stroke="#191970" d="M663.0037,-177.4622C571.0884,-158.9315 385.4223,-121.1474 228.5,-87 219.863,-85.1205 210.6225,-83.0526 201.8249,-81.0565"/>
<polygon fill="#191970" stroke="#191970" points="662.4447,-180.9198 672.939,-179.4638 663.8272,-174.0577 662.4447,-180.9198"/>
</g>
<!-- Node58 -->
<g id="node18" class="node">
<title>Node58</title>
<g id="a_node18"><a xlink:href="fweelin__audioio_8cc.html" target="_top" xlink:title="src/fweelin_audioio.cc">
<polygon fill="#ffffff" stroke="#000000" points="791,-123.5 791,-142.5 916,-142.5 916,-123.5 791,-123.5"/>
<text text-anchor="middle" x="853.5" y="-130.5" font-family="Helvetica,sans-Serif" font-size="10.00" fill="#000000">src/fweelin_audioio.cc</text>
</a>
</g>
</g>
<!-- Node41&#45;&gt;Node58 -->
<g id="edge22" class="edge">
<title>Node41&#45;&gt;Node58</title>
<path fill="none" stroke="#191970" d="M752.8397,-175.3833C777.0285,-165.1985 809.495,-151.5284 830.9348,-142.5011"/>
<polygon fill="#191970" stroke="#191970" points="751.2217,-172.2669 743.3635,-179.3733 753.9381,-178.7184 751.2217,-172.2669"/>
</g>
<!-- Node59 -->
<g id="node19" class="node">
<title>Node59</title>
<g id="a_node19"><a xlink:href="fweelin__core__dsp_8cc.html" target="_top" xlink:title="src/fweelin_core_dsp.cc">
<polygon fill="#ffffff" stroke="#000000" points="934.5,-123.5 934.5,-142.5 1066.5,-142.5 1066.5,-123.5 934.5,-123.5"/>
<text text-anchor="middle" x="1000.5" y="-130.5" font-family="Helvetica,sans-Serif" font-size="10.00" fill="#000000">src/fweelin_core_dsp.cc</text>
</a>
</g>
</g>
<!-- Node41&#45;&gt;Node59 -->
<g id="edge24" class="edge">
<title>Node41&#45;&gt;Node59</title>
<path fill="none" stroke="#191970" d="M778.3171,-177.4366C829.9364,-167.1127 904.631,-152.1738 952.8816,-142.5237"/>
<polygon fill="#191970" stroke="#191970" points="777.4349,-174.0436 768.3156,-179.4369 778.8078,-180.9077 777.4349,-174.0436"/>
</g>
<!-- Node42&#45;&gt;Node41 -->
<g id="edge7" class="edge">
<title>Node42&#45;&gt;Node41</title>
<path fill="none" stroke="#191970" d="M726.9795,-152.7046C727.5821,-161.6944 727.1779,-171.9382 725.7668,-179.2455"/>
<polygon fill="#191970" stroke="#191970" points="730.4368,-152.1421 725.7451,-142.6427 723.4889,-152.9945 730.4368,-152.1421"/>
</g>
<!-- Node43 -->
<g id="node3" class="node">
<title>Node43</title>
<g id="a_node3"><a xlink:href="FweelinMac_8mm.html" target="_top" xlink:title="MacOSX/FweelinMac.mm">
<polygon fill="#ffffff" stroke="#000000" points="1067,-62 1067,-81 1206,-81 1206,-62 1067,-62"/>
<text text-anchor="middle" x="1136.5" y="-69" font-family="Helvetica,sans-Serif" font-size="10.00" fill="#000000">MacOSX/FweelinMac.mm</text>
</a>
</g>
</g>
<!-- Node42&#45;&gt;Node43 -->
<g id="edge2" class="edge">
<title>Node42&#45;&gt;Node43</title>
<path fill="none" stroke="#191970" d="M783.2008,-122.7904C905.6131,-105.0778 938.6276,-106.3936 1057.5,-87 1068.2596,-85.2446 1079.7965,-83.12 1090.6382,-81.0141"/>
<polygon fill="#191970" stroke="#191970" points="782.4446,-119.3636 773.0554,-124.2721 783.4563,-126.2902 782.4446,-119.3636"/>
</g>
<!-- Node42&#45;&gt;Node44 -->
<g id="edge3" class="edge">
<title>Node42&#45;&gt;Node44</title>
<path fill="none" stroke="#191970" d="M657.5029,-130.1653C520.5874,-123.7143 199.6008,-106.9413 92.5,-87 84.676,-85.5432 76.3532,-83.316 68.7497,-81.0003"/>
<polygon fill="#191970" stroke="#191970" points="657.6691,-133.6768 667.8219,-130.6483 657.9965,-126.6844 657.6691,-133.6768"/>
</g>
<!-- Node45 -->
<g id="node5" class="node">
<title>Node45</title>
<g id="a_node5"><a xlink:href="fweelin__amixer_8h.html" target="_top" xlink:title="src/fweelin_amixer.h">
<polygon fill="#ffffff" stroke="#000000" points="237.5,-62 237.5,-81 355.5,-81 355.5,-62 237.5,-62"/>
<text text-anchor="middle" x="296.5" y="-69" font-family="Helvetica,sans-Serif" font-size="10.00" fill="#000000">src/fweelin_amixer.h</text>
</a>
</g>
</g>
<!-- Node42&#45;&gt;Node45 -->
<g id="edge4" class="edge">
<title>Node42&#45;&gt;Node45</title>
<path fill="none" stroke="#191970" d="M657.7617,-127.3922C584.6416,-120.0092 460.682,-105.7389 355.5,-87 346.0827,-85.3222 336.002,-83.2039 326.8286,-81.0767"/>
<polygon fill="#191970" stroke="#191970" points="657.4363,-130.877 667.7346,-128.388 658.1319,-123.9117 657.4363,-130.877"/>
</g>
<!-- Node47 -->
<g id="node7" class="node">
<title>Node47</title>
<g id="a_node7"><a xlink:href="fweelin__block_8cc.html" target="_top" xlink:title="src/fweelin_block.cc">
<polygon fill="#ffffff" stroke="#000000" points="1263,-62 1263,-81 1378,-81 1378,-62 1263,-62"/>
<text text-anchor="middle" x="1320.5" y="-69" font-family="Helvetica,sans-Serif" font-size="10.00" fill="#000000">src/fweelin_block.cc</text>
</a>
</g>
</g>
<!-- Node42&#45;&gt;Node47 -->
<g id="edge8" class="edge">
<title>Node42&#45;&gt;Node47</title>
<path fill="none" stroke="#191970" d="M783.0003,-122.9112C989.9159,-98.7155 1045.7167,-116.5055 1248.5,-87 1259.0021,-85.4719 1270.2627,-83.3054 1280.6861,-81.075"/>
<polygon fill="#191970" stroke="#191970" points="782.549,-119.4401 773.0318,-124.0954 783.3749,-126.3912 782.549,-119.4401"/>
</g>
<!-- Node48 -->
<g id="node8" class="node">
<title>Node48</title>
<g id="a_node8"><a xlink:href="fweelin__browser_8cc.html" target="_top" xlink:title="src/fweelin_browser.cc">
<polygon fill="#ffffff" stroke="#000000" points="1396,-62 1396,-81 1523,-81 1523,-62 1396,-62"/>
<text text-anchor="middle" x="1459.5" y="-69" font-family="Helvetica,sans-Serif" font-size="10.00" fill="#000000">src/fweelin_browser.cc</text>
</a>
</g>
</g>
<!-- Node42&#45;&gt;Node48 -->
<g id="edge9" class="edge">
<title>Node42&#45;&gt;Node48</title>
<path fill="none" stroke="#191970" d="M783.0639,-122.9319C1051.4014,-93.8675 1123.4351,-123.0522 1387.5,-87 1398.2685,-85.5298 1409.8237,-83.3271 1420.456,-81.0404"/>
<polygon fill="#191970" stroke="#191970" points="782.5822,-119.4637 773.025,-124.0364 783.3478,-126.4217 782.5822,-119.4637"/>
</g>
<!-- Node42&#45;&gt;Node49 -->
<g id="edge10" class="edge">
<title>Node42&#45;&gt;Node49</title>
<path fill="none" stroke="#191970" d="M657.6102,-129.7615C563.7338,-124.3318 381.595,-111.4973 228.5,-87 218.6959,-85.4312 208.1957,-83.2771 198.4513,-81.0736"/>
<polygon fill="#191970" stroke="#191970" points="657.6066,-133.2669 667.7895,-130.3411 658.0047,-126.2782 657.6066,-133.2669"/>
</g>
<!-- Node50 -->
<g id="node10" class="node">
<title>Node50</title>
<g id="a_node10"><a xlink:href="fweelin__core_8cc.html" target="_top" xlink:title="src/fweelin_core.cc">
<polygon fill="#ffffff" stroke="#000000" points="1601.5,-.5 1601.5,-19.5 1711.5,-19.5 1711.5,-.5 1601.5,-.5"/>
<text text-anchor="middle" x="1656.5" y="-7.5" font-family="Helvetica,sans-Serif" font-size="10.00" fill="#000000">src/fweelin_core.cc</text>
</a>
</g>
</g>
<!-- Node42&#45;&gt;Node50 -->
<g id="edge11" class="edge">
<title>Node42&#45;&gt;Node50</title>
<path fill="none" stroke="#191970" d="M783.262,-123.3111C894.3059,-118.2768 1652.0341,-121.8252 1685.5,-87 1704.0089,-67.7393 1680.0035,-35.5313 1665.7185,-19.5684"/>
<polygon fill="#191970" stroke="#191970" points="782.7724,-119.8353 773.018,-123.9707 783.2223,-126.8208 782.7724,-119.8353"/>
</g>
<!-- Node51 -->
<g id="node11" class="node">
<title>Node51</title>
<g id="a_node11"><a xlink:href="fweelin__looplibrary_8h.html" target="_top" xlink:title="src/fweelin_looplibrary.h">
<polygon fill="#ffffff" stroke="#000000" points="1541,-62 1541,-81 1676,-81 1676,-62 1541,-62"/>
<text text-anchor="middle" x="1608.5" y="-69" font-family="Helvetica,sans-Serif" font-size="10.00" fill="#000000">src/fweelin_looplibrary.h</text>
</a>
</g>
</g>
<!-- Node42&#45;&gt;Node51 -->
<g id="edge12" class="edge">
<title>Node42&#45;&gt;Node51</title>
<path fill="none" stroke="#191970" d="M783.4247,-122.9119C1115.6261,-88.7369 1204.3271,-128.0845 1532.5,-87 1543.9911,-85.5614 1556.3385,-83.3401 1567.6701,-81.0244"/>
<polygon fill="#191970" stroke="#191970" points="782.6034,-119.4786 773.0208,-123.998 783.3302,-126.4407 782.6034,-119.4786"/>
</g>
<!-- Node52 -->
<g id="node12" class="node">
<title>Node52</title>
<g id="a_node12"><a xlink:href="fweelin__osc_8cc.html" target="_top" xlink:title="src/fweelin_osc.cc">
<polygon fill="#ffffff" stroke="#000000" points="1306,-.5 1306,-19.5 1411,-19.5 1411,-.5 1306,-.5"/>
<text text-anchor="middle" x="1358.5" y="-7.5" font-family="Helvetica,sans-Serif" font-size="10.00" fill="#000000">src/fweelin_osc.cc</text>
</a>
</g>
</g>
<!-- Node42&#45;&gt;Node52 -->
<g id="edge16" class="edge">
<title>Node42&#45;&gt;Node52</title>
<path fill="none" stroke="#191970" d="M783.2213,-122.9705C892.624,-111.8131 1127.3313,-120.9229 1214.5,-87 1235.4604,-78.843 1235.1841,-67.5228 1254.5,-56 1279.5937,-41.0305 1310.4325,-27.995 1331.9867,-19.6605"/>
<polygon fill="#191970" stroke="#191970" points="782.5807,-119.5203 773.0343,-124.1156 783.3627,-126.4765 782.5807,-119.5203"/>
</g>
<!-- Node53 -->
<g id="node13" class="node">
<title>Node53</title>
<g id="a_node13"><a xlink:href="fweelin__midiio_8cc.html" target="_top" xlink:title="src/fweelin_midiio.cc">
<polygon fill="#ffffff" stroke="#000000" points="374,-62 374,-81 493,-81 493,-62 374,-62"/>
<text text-anchor="middle" x="433.5" y="-69" font-family="Helvetica,sans-Serif" font-size="10.00" fill="#000000">src/fweelin_midiio.cc</text>
</a>
</g>
</g>
<!-- Node42&#45;&gt;Node53 -->
<g id="edge15" class="edge">
<title>Node42&#45;&gt;Node53</title>
<path fill="none" stroke="#191970" d="M663.8975,-121.3875C619.6448,-112.2418 556.6016,-99.066 501.5,-87 492.8655,-85.1092 483.626,-83.0364 474.8286,-81.0392"/>
<polygon fill="#191970" stroke="#191970" points="663.3829,-124.855 673.884,-123.4489 664.7981,-117.9995 663.3829,-124.855"/>
</g>
<!-- Node54 -->
<g id="node14" class="node">
<title>Node54</title>
<g id="a_node14"><a xlink:href="fweelin__paramset_8cc.html" target="_top" xlink:title="src/fweelin_paramset.cc">
<polygon fill="#ffffff" stroke="#000000" points="511,-62 511,-81 646,-81 646,-62 511,-62"/>
<text text-anchor="middle" x="578.5" y="-69" font-family="Helvetica,sans-Serif" font-size="10.00" fill="#000000">src/fweelin_paramset.cc</text>
</a>
</g>
</g>
<!-- Node42&#45;&gt;Node54 -->
<g id="edge17" class="edge">
<title>Node42&#45;&gt;Node54</title>
<path fill="none" stroke="#191970" d="M688.9663,-119.3428C662.1159,-107.7139 624.2289,-91.3051 600.5317,-81.0419"/>
<polygon fill="#191970" stroke="#191970" points="687.7451,-122.628 698.3125,-123.3906 690.5272,-116.2046 687.7451,-122.628"/>
</g>
<!-- Node55 -->
<g id="node15" class="node">
<title>Node55</title>
<g id="a_node15"><a xlink:href="fweelin__sdlio_8cc.html" target="_top" xlink:title="src/fweelin_sdlio.cc">
<polygon fill="#ffffff" stroke="#000000" points="664.5,-62 664.5,-81 776.5,-81 776.5,-62 664.5,-62"/>
<text text-anchor="middle" x="720.5" y="-69" font-family="Helvetica,sans-Serif" font-size="10.00" fill="#000000">src/fweelin_sdlio.cc</text>
</a>
</g>
</g>
<!-- Node42&#45;&gt;Node55 -->
<g id="edge18" class="edge">
<title>Node42&#45;&gt;Node55</title>
<path fill="none" stroke="#191970" d="M720.5,-113.2462C720.5,-102.5519 720.5,-89.814 720.5,-81.2449"/>
<polygon fill="#191970" stroke="#191970" points="717.0001,-113.3906 720.5,-123.3906 724.0001,-113.3907 717.0001,-113.3906"/>
</g>
<!-- Node56 -->
<g id="node16" class="node">
<title>Node56</title>
<g id="a_node16"><a xlink:href="fweelin__videoio_8cc.html" target="_top" xlink:title="src/fweelin_videoio.cc">
<polygon fill="#ffffff" stroke="#000000" points="795,-62 795,-81 920,-81 920,-62 795,-62"/>
<text text-anchor="middle" x="857.5" y="-69" font-family="Helvetica,sans-Serif" font-size="10.00" fill="#000000">src/fweelin_videoio.cc</text>
</a>
</g>
</g>
<!-- Node42&#45;&gt;Node56 -->
<g id="edge19" class="edge">
<title>Node42&#45;&gt;Node56</title>
<path fill="none" stroke="#191970" d="M751.2648,-119.1895C777.1487,-107.5701 813.4815,-91.2601 836.2441,-81.0419"/>
<polygon fill="#191970" stroke="#191970" points="749.5958,-116.1022 741.9063,-123.3906 752.4626,-122.4883 749.5958,-116.1022"/>
</g>
<!-- Node57 -->
<g id="node17" class="node">
<title>Node57</title>
<g id="a_node17"><a xlink:href="fweelin__videoio__displays_8cc.html" target="_top" xlink:title="src/fweelin_videoio\l_displays.cc">
<polygon fill="#ffffff" stroke="#000000" points="938,-56.5 938,-86.5 1049,-86.5 1049,-56.5 938,-56.5"/>
<text text-anchor="start" x="946" y="-74.5" font-family="Helvetica,sans-Serif" font-size="10.00" fill="#000000">src/fweelin_videoio</text>
<text text-anchor="middle" x="993.5" y="-63.5" font-family="Helvetica,sans-Serif" font-size="10.00" fill="#000000">_displays.cc</text>
</a>
</g>
</g>
<!-- Node42&#45;&gt;Node57 -->
<g id="edge20" class="edge">
<title>Node42&#45;&gt;Node57</title>
<path fill="none" stroke="#191970" d="M774.7919,-121.2489C816.7945,-112.0959 876.3875,-98.975 928.5,-87 931.5527,-86.2985 934.6846,-85.5726 937.8449,-84.8351"/>
<polygon fill="#191970" stroke="#191970" points="773.8019,-117.8824 764.7751,-123.4292 775.2907,-124.7222 773.8019,-117.8824"/>
</g>
<!-- Node45&#45;&gt;Node42 -->
<g id="edge5" class="edge">
<title>Node45&#45;&gt;Node42</title>
<path fill="none" stroke="#191970" d="M354.397,-83.2497C360.8541,-84.6082 367.3199,-85.899 373.5,-87 477.3405,-105.4999 599.4827,-119.6444 667.7377,-127.1063"/>
<polygon fill="#191970" stroke="#191970" points="354.8122,-79.759 344.2996,-81.0767 353.3394,-86.6023 354.8122,-79.759"/>
</g>
<!-- Node46 -->
<g id="node6" class="node">
<title>Node46</title>
<g id="a_node6"><a xlink:href="fweelin__amixer_8cc.html" target="_top" xlink:title="src/fweelin_amixer.cc">
<polygon fill="#ffffff" stroke="#000000" points="235.5,-.5 235.5,-19.5 357.5,-19.5 357.5,-.5 235.5,-.5"/>
<text text-anchor="middle" x="296.5" y="-7.5" font-family="Helvetica,sans-Serif" font-size="10.00" fill="#000000">src/fweelin_amixer.cc</text>
</a>
</g>
</g>
<!-- Node45&#45;&gt;Node46 -->
<g id="edge6" class="edge">
<title>Node45&#45;&gt;Node46</title>
<path fill="none" stroke="#191970" d="M296.5,-51.7462C296.5,-41.0519 296.5,-28.314 296.5,-19.7449"/>
<polygon fill="#191970" stroke="#191970" points="293.0001,-51.8906 296.5,-61.8906 300.0001,-51.8907 293.0001,-51.8906"/>
</g>
<!-- Node51&#45;&gt;Node50 -->
<g id="edge13" class="edge">
<title>Node51&#45;&gt;Node50</title>
<path fill="none" stroke="#191970" d="M1622.3564,-53.7465C1630.9956,-42.6775 1641.7837,-28.8552 1648.8943,-19.7449"/>
<polygon fill="#191970" stroke="#191970" points="1619.3936,-51.854 1616,-61.8906 1624.9119,-56.1609 1619.3936,-51.854"/>
</g>
<!-- Node51&#45;&gt;Node52 -->
<g id="edge14" class="edge">
<title>Node51&#45;&gt;Node52</title>
<path fill="none" stroke="#191970" d="M1559.9682,-59.5612C1512.5225,-47.8895 1441.2075,-30.346 1397.3792,-19.5643"/>
<polygon fill="#191970" stroke="#191970" points="1559.1652,-62.9679 1569.7118,-61.9581 1560.8374,-56.1706 1559.1652,-62.9679"/>
</g>
</g>
</svg>
