<?xml version="1.0" encoding="UTF-8" standalone="no"?>
<!DOCTYPE svg PUBLIC "-//W3C//DTD SVG 1.1//EN"
 "http://www.w3.org/Graphics/SVG/1.1/DTD/svg11.dtd">
<!-- Generated by graphviz version 2.40.1 (20161225.0304)
 -->
<!-- Title: mygettime Pages: 1 -->
<svg width="669pt" height="306pt"
 viewBox="0.00 0.00 669.00 305.50" xmlns="http://www.w3.org/2000/svg" xmlns:xlink="http://www.w3.org/1999/xlink">
<g id="graph0" class="graph" transform="scale(1 1) rotate(0) translate(4 301.5)">
<title>mygettime</title>
<polygon fill="#ffffff" stroke="transparent" points="-4,4 -4,-301.5 665,-301.5 665,4 -4,4"/>
<!-- Node1 -->
<g id="node1" class="node">
<title>Node1</title>
<polygon fill="#bfbfbf" stroke="#000000" points="0,-145 0,-164 71,-164 71,-145 0,-145"/>
<text text-anchor="middle" x="35.5" y="-152" font-family="Helvetica,sans-Serif" font-size="10.00" fill="#000000">mygettime</text>
</g>
<!-- Node2 -->
<g id="node2" class="node">
<title>Node2</title>
<g id="a_node2"><a xlink:href="classBrowser.html#a71b602afb445cf9d41ef51ddc2696485" target="_top" xlink:title="Browser::MoveTo">
<polygon fill="#ffffff" stroke="#000000" points="142.5,-278 142.5,-297 241.5,-297 241.5,-278 142.5,-278"/>
<text text-anchor="middle" x="192" y="-285" font-family="Helvetica,sans-Serif" font-size="10.00" fill="#000000">Browser::MoveTo</text>
</a>
</g>
</g>
<!-- Node1&#45;&gt;Node2 -->
<g id="edge1" class="edge">
<title>Node1&#45;&gt;Node2</title>
<path fill="none" stroke="#191970" d="M42.1344,-173.6982C52.0603,-199.4468 73.2966,-244.6788 107,-268.5 117.3725,-275.8312 130.0896,-280.3969 142.496,-283.2227"/>
<polygon fill="#191970" stroke="#191970" points="45.4055,-172.4524 38.6727,-164.2719 38.8345,-174.8655 45.4055,-172.4524"/>
</g>
<!-- Node3 -->
<g id="node3" class="node">
<title>Node3</title>
<g id="a_node3"><a xlink:href="classPatchBrowser.html#abc016bb41caba0f8e6a55746169198d8" target="_top" xlink:title="PatchBrowser::PB_MoveTo">
<polygon fill="#ffffff" stroke="#000000" points="120.5,-240 120.5,-259 263.5,-259 263.5,-240 120.5,-240"/>
<text text-anchor="middle" x="192" y="-247" font-family="Helvetica,sans-Serif" font-size="10.00" fill="#000000">PatchBrowser::PB_MoveTo</text>
</a>
</g>
</g>
<!-- Node1&#45;&gt;Node3 -->
<g id="edge2" class="edge">
<title>Node1&#45;&gt;Node3</title>
<path fill="none" stroke="#191970" d="M47.4762,-172.4623C60.1569,-190.0198 81.8012,-216.1421 107,-230.5 113.8318,-234.3927 121.3953,-237.4879 129.1113,-239.949"/>
<polygon fill="#191970" stroke="#191970" points="50.2829,-170.3682 41.6908,-164.1693 44.5419,-174.3733 50.2829,-170.3682"/>
</g>
<!-- Node4 -->
<g id="node4" class="node">
<title>Node4</title>
<g id="a_node4"><a xlink:href="classPatchBrowser.html#aaf90630fae2ca039c53fe9e33f6a4d6e" target="_top" xlink:title="PatchBrowser::PB_MoveToIndex">
<polygon fill="#ffffff" stroke="#000000" points="107,-202 107,-221 277,-221 277,-202 107,-202"/>
<text text-anchor="middle" x="192" y="-209" font-family="Helvetica,sans-Serif" font-size="10.00" fill="#000000">PatchBrowser::PB_MoveToIndex</text>
</a>
</g>
</g>
<!-- Node1&#45;&gt;Node4 -->
<g id="edge3" class="edge">
<title>Node1&#45;&gt;Node4</title>
<path fill="none" stroke="#191970" d="M59.256,-169.2042C72.8243,-177.0643 90.3955,-186.3595 107,-192.5 117.0695,-196.2238 128.0918,-199.3435 138.7637,-201.9078"/>
<polygon fill="#191970" stroke="#191970" points="60.9496,-166.1394 50.5632,-164.0484 57.3787,-172.1601 60.9496,-166.1394"/>
</g>
<!-- Node5 -->
<g id="node5" class="node">
<title>Node5</title>
<g id="a_node5"><a xlink:href="classItemRenamer.html#a1769ff20cc01293b9ef3c4bf17cca172" target="_top" xlink:title="ItemRenamer::UpdateUIVars">
<polygon fill="#ffffff" stroke="#000000" points="114.5,-164 114.5,-183 269.5,-183 269.5,-164 114.5,-164"/>
<text text-anchor="middle" x="192" y="-171" font-family="Helvetica,sans-Serif" font-size="10.00" fill="#000000">ItemRenamer::UpdateUIVars</text>
</a>
</g>
</g>
<!-- Node1&#45;&gt;Node5 -->
<g id="edge4" class="edge">
<title>Node1&#45;&gt;Node5</title>
<path fill="none" stroke="#191970" d="M81.1409,-160.0411C91.6224,-161.3136 103.0546,-162.7015 114.4664,-164.087"/>
<polygon fill="#191970" stroke="#191970" points="81.3612,-156.5422 71.0123,-158.8114 80.5175,-163.4912 81.3612,-156.5422"/>
</g>
<!-- Node7 -->
<g id="node7" class="node">
<title>Node7</title>
<g id="a_node7"><a xlink:href="classLoopManager.html#a306ffe72c9623e33cad280ec3609c359" target="_top" xlink:title="LoopManager::SetupSaveLoop">
<polygon fill="#ffffff" stroke="#000000" points="110.5,-126 110.5,-145 273.5,-145 273.5,-126 110.5,-126"/>
<text text-anchor="middle" x="192" y="-133" font-family="Helvetica,sans-Serif" font-size="10.00" fill="#000000">LoopManager::SetupSaveLoop</text>
</a>
</g>
</g>
<!-- Node1&#45;&gt;Node7 -->
<g id="edge6" class="edge">
<title>Node1&#45;&gt;Node7</title>
<path fill="none" stroke="#191970" d="M81.2433,-148.9465C91.4055,-147.7127 102.4573,-146.371 113.5154,-145.0285"/>
<polygon fill="#191970" stroke="#191970" points="80.5175,-145.5088 71.0123,-150.1886 81.3612,-152.4578 80.5175,-145.5088"/>
</g>
<!-- Node9 -->
<g id="node9" class="node">
<title>Node9</title>
<g id="a_node9"><a xlink:href="classTriggerMap.html#ac8dd153318fc2546c999bd5184c827cf" target="_top" xlink:title="TriggerMap::TouchMap">
<polygon fill="#ffffff" stroke="#000000" points="130,-88 130,-107 254,-107 254,-88 130,-88"/>
<text text-anchor="middle" x="192" y="-95" font-family="Helvetica,sans-Serif" font-size="10.00" fill="#000000">TriggerMap::TouchMap</text>
</a>
</g>
</g>
<!-- Node1&#45;&gt;Node9 -->
<g id="edge8" class="edge">
<title>Node1&#45;&gt;Node9</title>
<path fill="none" stroke="#191970" d="M59.256,-139.7958C72.8243,-131.9357 90.3955,-122.6405 107,-116.5 117.0695,-112.7762 128.0918,-109.6565 138.7637,-107.0922"/>
<polygon fill="#191970" stroke="#191970" points="57.3787,-136.8399 50.5632,-144.9516 60.9496,-142.8606 57.3787,-136.8399"/>
</g>
<!-- Node15 -->
<g id="node15" class="node">
<title>Node15</title>
<g id="a_node15"><a xlink:href="classBrowser.html#a2a4eb726037fdc8fa85b51483eef8c0b" target="_top" xlink:title="Browser::Draw">
<polygon fill="#ffffff" stroke="#000000" points="148,-50 148,-69 236,-69 236,-50 148,-50"/>
<text text-anchor="middle" x="192" y="-57" font-family="Helvetica,sans-Serif" font-size="10.00" fill="#000000">Browser::Draw</text>
</a>
</g>
</g>
<!-- Node1&#45;&gt;Node15 -->
<g id="edge14" class="edge">
<title>Node1&#45;&gt;Node15</title>
<path fill="none" stroke="#191970" d="M47.4762,-136.5377C60.1569,-118.9802 81.8012,-92.8579 107,-78.5 119.3498,-71.4633 134.0905,-67.0324 147.8012,-64.2425"/>
<polygon fill="#191970" stroke="#191970" points="44.5419,-134.6267 41.6908,-144.8307 50.2829,-138.6318 44.5419,-134.6267"/>
</g>
<!-- Node16 -->
<g id="node16" class="node">
<title>Node16</title>
<g id="a_node16"><a xlink:href="classFloDisplayCircleSwitch.html#a592f8a024274ed06523ad2e71402fe05" target="_top" xlink:title="FloDisplayCircleSwitch\l::Draw">
<polygon fill="#ffffff" stroke="#000000" points="128,-.5 128,-30.5 256,-30.5 256,-.5 128,-.5"/>
<text text-anchor="start" x="136" y="-18.5" font-family="Helvetica,sans-Serif" font-size="10.00" fill="#000000">FloDisplayCircleSwitch</text>
<text text-anchor="middle" x="192" y="-7.5" font-family="Helvetica,sans-Serif" font-size="10.00" fill="#000000">::Draw</text>
</a>
</g>
</g>
<!-- Node1&#45;&gt;Node16 -->
<g id="edge15" class="edge">
<title>Node1&#45;&gt;Node16</title>
<path fill="none" stroke="#191970" d="M45.1527,-135.7283C60.3386,-106.8515 89.8424,-53.4983 107,-40.5 113.253,-35.7628 120.3881,-31.9209 127.8056,-28.8056"/>
<polygon fill="#191970" stroke="#191970" points="41.9353,-134.3292 40.4221,-144.8154 48.1443,-137.5616 41.9353,-134.3292"/>
</g>
<!-- Node6 -->
<g id="node6" class="node">
<title>Node6</title>
<g id="a_node6"><a xlink:href="classVideoIO.html#adca60a99be6e51d8af7ce2a32f92349a" target="_top" xlink:title="VideoIO::DrawLoop">
<polygon fill="#ffffff" stroke="#000000" points="337,-164 337,-183 447,-183 447,-164 337,-164"/>
<text text-anchor="middle" x="392" y="-171" font-family="Helvetica,sans-Serif" font-size="10.00" fill="#000000">VideoIO::DrawLoop</text>
</a>
</g>
</g>
<!-- Node5&#45;&gt;Node6 -->
<g id="edge5" class="edge">
<title>Node5&#45;&gt;Node6</title>
<path fill="none" stroke="#191970" d="M279.675,-173.5C299.0587,-173.5 319.0697,-173.5 336.7348,-173.5"/>
<polygon fill="#191970" stroke="#191970" points="279.6115,-170.0001 269.6115,-173.5 279.6114,-177.0001 279.6115,-170.0001"/>
</g>
<!-- Node8 -->
<g id="node8" class="node">
<title>Node8</title>
<g id="a_node8"><a xlink:href="classLoopManager.html#a00143be12c150c0a89c4f99c1e8d5e70" target="_top" xlink:title="LoopManager::GetWriteBlock">
<polygon fill="#ffffff" stroke="#000000" points="313,-126 313,-145 471,-145 471,-126 313,-126"/>
<text text-anchor="middle" x="392" y="-133" font-family="Helvetica,sans-Serif" font-size="10.00" fill="#000000">LoopManager::GetWriteBlock</text>
</a>
</g>
</g>
<!-- Node7&#45;&gt;Node8 -->
<g id="edge7" class="edge">
<title>Node7&#45;&gt;Node8</title>
<path fill="none" stroke="#191970" d="M283.7304,-135.5C293.4683,-135.5 303.3116,-135.5 312.8874,-135.5"/>
<polygon fill="#191970" stroke="#191970" points="283.6362,-132.0001 273.6361,-135.5 283.6361,-139.0001 283.6362,-132.0001"/>
</g>
<!-- Node10 -->
<g id="node10" class="node">
<title>Node10</title>
<g id="a_node10"><a xlink:href="classFweelin.html#a46ac4eb76aa2025f2bec97c23658abef" target="_top" xlink:title="Fweelin::CreateSnapshot">
<polygon fill="#ffffff" stroke="#000000" points="323.5,-88 323.5,-107 460.5,-107 460.5,-88 323.5,-88"/>
<text text-anchor="middle" x="392" y="-95" font-family="Helvetica,sans-Serif" font-size="10.00" fill="#000000">Fweelin::CreateSnapshot</text>
</a>
</g>
</g>
<!-- Node9&#45;&gt;Node10 -->
<g id="edge9" class="edge">
<title>Node9&#45;&gt;Node10</title>
<path fill="none" stroke="#191970" d="M264.3741,-97.5C283.5706,-97.5 304.241,-97.5 323.2391,-97.5"/>
<polygon fill="#191970" stroke="#191970" points="264.185,-94.0001 254.1849,-97.5 264.1849,-101.0001 264.185,-94.0001"/>
</g>
<!-- Node11 -->
<g id="node11" class="node">
<title>Node11</title>
<g id="a_node11"><a xlink:href="classFweelin.html#aae8cb8c1b763a13c1d906e45b5d0690b" target="_top" xlink:title="Fweelin::SwapSnapshots">
<polygon fill="#ffffff" stroke="#000000" points="323.5,-50 323.5,-69 460.5,-69 460.5,-50 323.5,-50"/>
<text text-anchor="middle" x="392" y="-57" font-family="Helvetica,sans-Serif" font-size="10.00" fill="#000000">Fweelin::SwapSnapshots</text>
</a>
</g>
</g>
<!-- Node9&#45;&gt;Node11 -->
<g id="edge10" class="edge">
<title>Node9&#45;&gt;Node11</title>
<path fill="none" stroke="#191970" d="M252.0954,-86.0819C280.7118,-80.6448 314.5434,-74.2168 341.7691,-69.0439"/>
<polygon fill="#191970" stroke="#191970" points="251.3812,-82.6549 242.2103,-87.96 252.6879,-89.5318 251.3812,-82.6549"/>
</g>
<!-- Node13 -->
<g id="node13" class="node">
<title>Node13</title>
<g id="a_node13"><a xlink:href="classFweelin.html#a057cfd43583e073f0216dd275e4b26a7" target="_top" xlink:title="Fweelin::LoadSnapshot">
<polygon fill="#ffffff" stroke="#000000" points="328,-12 328,-31 456,-31 456,-12 328,-12"/>
<text text-anchor="middle" x="392" y="-19" font-family="Helvetica,sans-Serif" font-size="10.00" fill="#000000">Fweelin::LoadSnapshot</text>
</a>
</g>
</g>
<!-- Node9&#45;&gt;Node13 -->
<g id="edge12" class="edge">
<title>Node9&#45;&gt;Node13</title>
<path fill="none" stroke="#191970" d="M263.9119,-84.7106C268.4561,-82.9068 272.8615,-80.8485 277,-78.5 297.2335,-67.0178 292.8596,-52.1448 313,-40.5 319.7166,-36.6166 327.1937,-33.5248 334.7944,-31.0638"/>
<polygon fill="#191970" stroke="#191970" points="262.6889,-81.4306 254.4304,-88.0674 265.0252,-88.0293 262.6889,-81.4306"/>
</g>
<!-- Node12 -->
<g id="node12" class="node">
<title>Node12</title>
<g id="a_node12"><a xlink:href="classLoopManager.html#a4aada2d07b7ce0a67a8119ece4805966" target="_top" xlink:title="LoopManager::ReceiveEvent">
<polygon fill="#ffffff" stroke="#000000" points="507,-50 507,-69 661,-69 661,-50 507,-50"/>
<text text-anchor="middle" x="584" y="-57" font-family="Helvetica,sans-Serif" font-size="10.00" fill="#000000">LoopManager::ReceiveEvent</text>
</a>
</g>
</g>
<!-- Node11&#45;&gt;Node12 -->
<g id="edge11" class="edge">
<title>Node11&#45;&gt;Node12</title>
<path fill="none" stroke="#191970" d="M470.8089,-59.5C482.6635,-59.5 494.8797,-59.5 506.7022,-59.5"/>
<polygon fill="#191970" stroke="#191970" points="470.5033,-56.0001 460.5033,-59.5 470.5032,-63.0001 470.5033,-56.0001"/>
</g>
<!-- Node14 -->
<g id="node14" class="node">
<title>Node14</title>
<g id="a_node14"><a xlink:href="classLoopManager.html#a05a6a438d14482e2f22aa802cfb432e8" target="_top" xlink:title="LoopManager::LoadScene">
<polygon fill="#ffffff" stroke="#000000" points="514,-12 514,-31 654,-31 654,-12 514,-12"/>
<text text-anchor="middle" x="584" y="-19" font-family="Helvetica,sans-Serif" font-size="10.00" fill="#000000">LoopManager::LoadScene</text>
</a>
</g>
</g>
<!-- Node13&#45;&gt;Node14 -->
<g id="edge13" class="edge">
<title>Node13&#45;&gt;Node14</title>
<path fill="none" stroke="#191970" d="M466.3443,-21.5C481.9868,-21.5 498.4386,-21.5 513.9185,-21.5"/>
<polygon fill="#191970" stroke="#191970" points="466.2002,-18.0001 456.2002,-21.5 466.2001,-25.0001 466.2002,-18.0001"/>
</g>
</g>
</svg>
