<?xml version="1.0" encoding="UTF-8" standalone="no"?>
<!DOCTYPE svg PUBLIC "-//W3C//DTD SVG 1.1//EN"
 "http://www.w3.org/Graphics/SVG/1.1/DTD/svg11.dtd">
<!-- Generated by graphviz version 2.40.1 (20161225.0304)
 -->
<!-- Title: math_gcd Pages: 1 -->
<svg width="1028pt" height="135pt"
 viewBox="0.00 0.00 1028.00 134.67" xmlns="http://www.w3.org/2000/svg" xmlns:xlink="http://www.w3.org/1999/xlink">
<g id="graph0" class="graph" transform="scale(1 1) rotate(0) translate(4 130.666)">
<title>math_gcd</title>
<polygon fill="#ffffff" stroke="transparent" points="-4,4 -4,-130.666 1024,-130.666 1024,4 -4,4"/>
<!-- Node20 -->
<g id="node1" class="node">
<title>Node20</title>
<polygon fill="#bfbfbf" stroke="#000000" points="0,-70.166 0,-89.166 65,-89.166 65,-70.166 0,-70.166"/>
<text text-anchor="middle" x="32.5" y="-77.166" font-family="Helvetica,sans-Serif" font-size="10.00" fill="#000000">math_gcd</text>
</g>
<!-- Node21 -->
<g id="node2" class="node">
<title>Node21</title>
<g id="a_node2"><a xlink:href="fweelin__core__dsp_8h.html#a69d68c70844804445ba3e106f23c76a4" target="_top" xlink:title="math_gcd">
<polygon fill="#ffffff" stroke="#000000" points="101,-89.166 101,-108.166 166,-108.166 166,-89.166 101,-89.166"/>
<text text-anchor="middle" x="133.5" y="-96.166" font-family="Helvetica,sans-Serif" font-size="10.00" fill="#000000">math_gcd</text>
</a>
</g>
</g>
<!-- Node20&#45;&gt;Node21 -->
<g id="edge1" class="edge">
<title>Node20&#45;&gt;Node21</title>
<path fill="none" stroke="#191970" d="M74.9196,-87.6459C83.5377,-89.2671 92.4782,-90.949 100.7017,-92.496"/>
<polygon fill="#191970" stroke="#191970" points="75.4877,-84.1914 65.013,-85.7823 74.1935,-91.0708 75.4877,-84.1914"/>
</g>
<!-- Node22 -->
<g id="node3" class="node">
<title>Node22</title>
<g id="a_node3"><a xlink:href="fweelin__core__dsp_8h.html#abc995860348321dce04aba6aea4adbb4" target="_top" xlink:title="math_lcm">
<polygon fill="#ffffff" stroke="#000000" points="202,-70.166 202,-89.166 267,-89.166 267,-70.166 202,-70.166"/>
<text text-anchor="middle" x="234.5" y="-77.166" font-family="Helvetica,sans-Serif" font-size="10.00" fill="#000000">math_lcm</text>
</a>
</g>
</g>
<!-- Node20&#45;&gt;Node22 -->
<g id="edge15" class="edge">
<title>Node20&#45;&gt;Node22</title>
<path fill="none" stroke="#191970" d="M75.6116,-79.666C113.4458,-79.666 167.6413,-79.666 201.9444,-79.666"/>
<polygon fill="#191970" stroke="#191970" points="75.4044,-76.1661 65.4044,-79.666 75.4043,-83.1661 75.4044,-76.1661"/>
</g>
<!-- Node21&#45;&gt;Node21 -->
<g id="edge2" class="edge">
<title>Node21&#45;&gt;Node21</title>
<path fill="none" stroke="#191970" d="M114.9824,-118.066C116.2191,-122.9805 122.3916,-126.666 133.5,-126.666 151.2734,-126.666 156.4111,-117.2312 148.9129,-108.423"/>
<polygon fill="#191970" stroke="#191970" points="118.3539,-119.0145 118.0871,-108.423 111.6907,-116.8691 118.3539,-119.0145"/>
</g>
<!-- Node21&#45;&gt;Node22 -->
<g id="edge3" class="edge">
<title>Node21&#45;&gt;Node22</title>
<path fill="none" stroke="#191970" d="M175.9196,-90.686C184.5377,-89.0648 193.4782,-87.3829 201.7017,-85.836"/>
<polygon fill="#191970" stroke="#191970" points="175.1935,-87.2612 166.013,-92.5497 176.4877,-94.1405 175.1935,-87.2612"/>
</g>
<!-- Node23 -->
<g id="node4" class="node">
<title>Node23</title>
<g id="a_node4"><a xlink:href="classLoopManager.html#a87f2148eddda1d6e097ecb6612e56dfa" target="_top" xlink:title="LoopManager::GetLongCount\lForAllPlayingLoops">
<polygon fill="#ffffff" stroke="#000000" points="303,-86.666 303,-116.666 460,-116.666 460,-86.666 303,-86.666"/>
<text text-anchor="start" x="311" y="-104.666" font-family="Helvetica,sans-Serif" font-size="10.00" fill="#000000">LoopManager::GetLongCount</text>
<text text-anchor="middle" x="381.5" y="-93.666" font-family="Helvetica,sans-Serif" font-size="10.00" fill="#000000">ForAllPlayingLoops</text>
</a>
</g>
</g>
<!-- Node22&#45;&gt;Node23 -->
<g id="edge4" class="edge">
<title>Node22&#45;&gt;Node23</title>
<path fill="none" stroke="#191970" d="M277.1035,-86.042C285.2763,-87.2651 294.0722,-88.5815 302.9668,-89.9127"/>
<polygon fill="#191970" stroke="#191970" points="277.532,-82.5672 267.1241,-84.5485 276.4959,-89.4901 277.532,-82.5672"/>
</g>
<!-- Node26 -->
<g id="node7" class="node">
<title>Node26</title>
<g id="a_node7"><a xlink:href="classPulse.html#a4769535b925a7444569205947eaa2da1" target="_top" xlink:title="Pulse::ExtendLongCount">
<polygon fill="#ffffff" stroke="#000000" points="314.5,-48.166 314.5,-67.166 448.5,-67.166 448.5,-48.166 314.5,-48.166"/>
<text text-anchor="middle" x="381.5" y="-55.166" font-family="Helvetica,sans-Serif" font-size="10.00" fill="#000000">Pulse::ExtendLongCount</text>
</a>
</g>
</g>
<!-- Node22&#45;&gt;Node26 -->
<g id="edge7" class="edge">
<title>Node22&#45;&gt;Node26</title>
<path fill="none" stroke="#191970" d="M277.3827,-73.2482C290.0605,-71.3508 304.2182,-69.232 317.9087,-67.183"/>
<polygon fill="#191970" stroke="#191970" points="276.4959,-69.8418 267.1241,-74.7835 277.532,-76.7647 276.4959,-69.8418"/>
</g>
<!-- Node24 -->
<g id="node5" class="node">
<title>Node24</title>
<g id="a_node5"><a xlink:href="classOSCClient.html#acbb974bf11667aa6fb48c111ae14a4fe" target="_top" xlink:title="OSCClient::SendPlayingLoops">
<polygon fill="#ffffff" stroke="#000000" points="496,-92.166 496,-111.166 656,-111.166 656,-92.166 496,-92.166"/>
<text text-anchor="middle" x="576" y="-99.166" font-family="Helvetica,sans-Serif" font-size="10.00" fill="#000000">OSCClient::SendPlayingLoops</text>
</a>
</g>
</g>
<!-- Node23&#45;&gt;Node24 -->
<g id="edge5" class="edge">
<title>Node23&#45;&gt;Node24</title>
<path fill="none" stroke="#191970" d="M470.0876,-101.666C478.6878,-101.666 487.379,-101.666 495.8894,-101.666"/>
<polygon fill="#191970" stroke="#191970" points="470.05,-98.1661 460.05,-101.666 470.0499,-105.1661 470.05,-98.1661"/>
</g>
<!-- Node25 -->
<g id="node6" class="node">
<title>Node25</title>
<g id="a_node6"><a xlink:href="classOSCClient.html#a8b38ea5b76702f9e763daeb694091116" target="_top" xlink:title="OSCClient::ReceiveEvent">
<polygon fill="#ffffff" stroke="#000000" points="692.5,-92.166 692.5,-111.166 829.5,-111.166 829.5,-92.166 692.5,-92.166"/>
<text text-anchor="middle" x="761" y="-99.166" font-family="Helvetica,sans-Serif" font-size="10.00" fill="#000000">OSCClient::ReceiveEvent</text>
</a>
</g>
</g>
<!-- Node24&#45;&gt;Node25 -->
<g id="edge6" class="edge">
<title>Node24&#45;&gt;Node25</title>
<path fill="none" stroke="#191970" d="M666.3345,-101.666C675.1065,-101.666 683.9045,-101.666 692.4127,-101.666"/>
<polygon fill="#191970" stroke="#191970" points="666.0678,-98.1661 656.0677,-101.666 666.0677,-105.1661 666.0678,-98.1661"/>
</g>
<!-- Node27 -->
<g id="node8" class="node">
<title>Node27</title>
<g id="a_node8"><a xlink:href="classLoopManager.html#add3b21cda3c0eddecabf19d24c610cdc" target="_top" xlink:title="LoopManager::Activate">
<polygon fill="#ffffff" stroke="#000000" points="512,-49.166 512,-68.166 640,-68.166 640,-49.166 512,-49.166"/>
<text text-anchor="middle" x="576" y="-56.166" font-family="Helvetica,sans-Serif" font-size="10.00" fill="#000000">LoopManager::Activate</text>
</a>
</g>
</g>
<!-- Node26&#45;&gt;Node27 -->
<g id="edge8" class="edge">
<title>Node26&#45;&gt;Node27</title>
<path fill="none" stroke="#191970" d="M458.9005,-58.0639C476.4182,-58.154 494.8334,-58.2487 511.7396,-58.3356"/>
<polygon fill="#191970" stroke="#191970" points="458.7261,-54.5631 448.7082,-58.0115 458.6901,-61.563 458.7261,-54.5631"/>
</g>
<!-- Node30 -->
<g id="node11" class="node">
<title>Node30</title>
<g id="a_node11"><a xlink:href="classLoopManager.html#a861cdd2ace9aeb53b4ecf92728215265" target="_top" xlink:title="LoopManager::Deactivate">
<polygon fill="#ffffff" stroke="#000000" points="505.5,-11.166 505.5,-30.166 646.5,-30.166 646.5,-11.166 505.5,-11.166"/>
<text text-anchor="middle" x="576" y="-18.166" font-family="Helvetica,sans-Serif" font-size="10.00" fill="#000000">LoopManager::Deactivate</text>
</a>
</g>
</g>
<!-- Node26&#45;&gt;Node30 -->
<g id="edge12" class="edge">
<title>Node26&#45;&gt;Node30</title>
<path fill="none" stroke="#191970" d="M441.6807,-46.2177C468.6397,-41.0893 500.0682,-35.1106 525.7435,-30.2263"/>
<polygon fill="#191970" stroke="#191970" points="440.7583,-42.8303 431.5886,-48.1375 442.0665,-49.707 440.7583,-42.8303"/>
</g>
<!-- Node28 -->
<g id="node9" class="node">
<title>Node28</title>
<g id="a_node9"><a xlink:href="classFweelin.html#a4654015e2bc7cc94f3bfc421899a60d3" target="_top" xlink:title="Fweelin::TriggerSnapshot">
<polygon fill="#ffffff" stroke="#000000" points="692,-13.166 692,-32.166 830,-32.166 830,-13.166 692,-13.166"/>
<text text-anchor="middle" x="761" y="-20.166" font-family="Helvetica,sans-Serif" font-size="10.00" fill="#000000">Fweelin::TriggerSnapshot</text>
</a>
</g>
</g>
<!-- Node27&#45;&gt;Node28 -->
<g id="edge9" class="edge">
<title>Node27&#45;&gt;Node28</title>
<path fill="none" stroke="#191970" d="M635.1072,-47.164C659.904,-42.3387 688.3989,-36.7938 712.001,-32.2009"/>
<polygon fill="#191970" stroke="#191970" points="634.2382,-43.7674 625.0909,-49.1131 635.5754,-50.6385 634.2382,-43.7674"/>
</g>
<!-- Node29 -->
<g id="node10" class="node">
<title>Node29</title>
<g id="a_node10"><a xlink:href="classLoopManager.html#a4aada2d07b7ce0a67a8119ece4805966" target="_top" xlink:title="LoopManager::ReceiveEvent">
<polygon fill="#ffffff" stroke="#000000" points="866,-13.166 866,-32.166 1020,-32.166 1020,-13.166 866,-13.166"/>
<text text-anchor="middle" x="943" y="-20.166" font-family="Helvetica,sans-Serif" font-size="10.00" fill="#000000">LoopManager::ReceiveEvent</text>
</a>
</g>
</g>
<!-- Node27&#45;&gt;Node29 -->
<g id="edge11" class="edge">
<title>Node27&#45;&gt;Node29</title>
<path fill="none" stroke="#191970" d="M650.3213,-55.6475C701.0566,-53.1079 769.7356,-48.7313 830,-41.666 850.6472,-39.2453 873.2671,-35.6349 892.8087,-32.2095"/>
<polygon fill="#191970" stroke="#191970" points="649.9168,-52.163 640.0994,-56.1465 650.2582,-59.1546 649.9168,-52.163"/>
</g>
<!-- Node28&#45;&gt;Node29 -->
<g id="edge10" class="edge">
<title>Node28&#45;&gt;Node29</title>
<path fill="none" stroke="#191970" d="M840.2897,-22.666C848.7435,-22.666 857.3344,-22.666 865.7641,-22.666"/>
<polygon fill="#191970" stroke="#191970" points="840.0659,-19.1661 830.0659,-22.666 840.0659,-26.1661 840.0659,-19.1661"/>
</g>
<!-- Node30&#45;&gt;Node28 -->
<g id="edge13" class="edge">
<title>Node30&#45;&gt;Node28</title>
<path fill="none" stroke="#191970" d="M656.8877,-21.5404C668.5384,-21.6664 680.4388,-21.795 691.8338,-21.9182"/>
<polygon fill="#191970" stroke="#191970" points="656.7697,-18.039 646.7324,-21.4306 656.694,-25.0386 656.7697,-18.039"/>
</g>
<!-- Node30&#45;&gt;Node29 -->
<g id="edge14" class="edge">
<title>Node30&#45;&gt;Node29</title>
<path fill="none" stroke="#191970" d="M639.8533,-9.6072C656.7539,-7.1471 675.0208,-4.9035 692,-3.666 753.1711,.7926 768.8793,1.4367 830,-3.666 852.2034,-5.5196 876.6077,-9.388 897.0373,-13.1535"/>
<polygon fill="#191970" stroke="#191970" points="638.8986,-6.2114 629.5305,-11.1599 639.9399,-13.1335 638.8986,-6.2114"/>
</g>
</g>
</svg>
