<?xml version="1.0" encoding="UTF-8" standalone="no"?>
<!DOCTYPE svg PUBLIC "-//W3C//DTD SVG 1.1//EN"
 "http://www.w3.org/Graphics/SVG/1.1/DTD/svg11.dtd">
<!-- Generated by graphviz version 2.40.1 (20161225.0304)
 -->
<!-- Title: src/fweelin_core.h Pages: 1 -->
<svg width="1708pt" height="151pt"
 viewBox="0.00 0.00 1708.00 151.00" xmlns="http://www.w3.org/2000/svg" xmlns:xlink="http://www.w3.org/1999/xlink">
<g id="graph0" class="graph" transform="scale(1 1) rotate(0) translate(4 147)">
<title>src/fweelin_core.h</title>
<polygon fill="#ffffff" stroke="transparent" points="-4,4 -4,-147 1704,-147 1704,4 -4,4"/>
<!-- Node41 -->
<g id="node1" class="node">
<title>Node41</title>
<polygon fill="#bfbfbf" stroke="#000000" points="660,-123.5 660,-142.5 765,-142.5 765,-123.5 660,-123.5"/>
<text text-anchor="middle" x="712.5" y="-130.5" font-family="Helvetica,sans-Serif" font-size="10.00" fill="#000000">src/fweelin_core.h</text>
</g>
<!-- Node42 -->
<g id="node2" class="node">
<title>Node42</title>
<g id="a_node2"><a xlink:href="FweelinMac_8mm.html" target="_top" xlink:title="MacOSX/FweelinMac.mm">
<polygon fill="#ffffff" stroke="#000000" points="0,-62 0,-81 139,-81 139,-62 0,-62"/>
<text text-anchor="middle" x="69.5" y="-69" font-family="Helvetica,sans-Serif" font-size="10.00" fill="#000000">MacOSX/FweelinMac.mm</text>
</a>
</g>
</g>
<!-- Node41&#45;&gt;Node42 -->
<g id="edge1" class="edge">
<title>Node41&#45;&gt;Node42</title>
<path fill="none" stroke="#191970" d="M649.7452,-130.1879C545.3443,-124.9938 329.5566,-112.0646 148.5,-87 137.1473,-85.4284 124.962,-83.2733 113.6423,-81.0697"/>
<polygon fill="#191970" stroke="#191970" points="649.6393,-133.6868 659.7989,-130.6812 649.9825,-126.6952 649.6393,-133.6868"/>
</g>
<!-- Node43 -->
<g id="node3" class="node">
<title>Node43</title>
<g id="a_node3"><a xlink:href="fweelin_8cc.html" target="_top" xlink:title="src/fweelin.cc">
<polygon fill="#ffffff" stroke="#000000" points="228,-.5 228,-19.5 311,-19.5 311,-.5 228,-.5"/>
<text text-anchor="middle" x="269.5" y="-7.5" font-family="Helvetica,sans-Serif" font-size="10.00" fill="#000000">src/fweelin.cc</text>
</a>
</g>
</g>
<!-- Node41&#45;&gt;Node43 -->
<g id="edge2" class="edge">
<title>Node41&#45;&gt;Node43</title>
<path fill="none" stroke="#191970" d="M649.7415,-131.8085C553.806,-128.9639 376.1542,-119.3578 322.5,-87 296.0956,-71.076 279.6906,-36.3743 272.9868,-19.5397"/>
<polygon fill="#191970" stroke="#191970" points="649.7987,-135.3114 659.893,-132.0933 649.9951,-128.3142 649.7987,-135.3114"/>
</g>
<!-- Node44 -->
<g id="node4" class="node">
<title>Node44</title>
<g id="a_node4"><a xlink:href="fweelin__amixer_8h.html" target="_top" xlink:title="src/fweelin_amixer.h">
<polygon fill="#ffffff" stroke="#000000" points="157.5,-62 157.5,-81 275.5,-81 275.5,-62 157.5,-62"/>
<text text-anchor="middle" x="216.5" y="-69" font-family="Helvetica,sans-Serif" font-size="10.00" fill="#000000">src/fweelin_amixer.h</text>
</a>
</g>
</g>
<!-- Node41&#45;&gt;Node44 -->
<g id="edge3" class="edge">
<title>Node41&#45;&gt;Node44</title>
<path fill="none" stroke="#191970" d="M649.5945,-128.6429C565.0772,-121.9952 410.7387,-107.8537 280.5,-87 270.1375,-85.3408 259.0243,-83.1798 248.9579,-81.0006"/>
<polygon fill="#191970" stroke="#191970" points="649.5577,-132.1505 659.7988,-129.4356 650.0999,-125.1715 649.5577,-132.1505"/>
</g>
<!-- Node46 -->
<g id="node6" class="node">
<title>Node46</title>
<g id="a_node6"><a xlink:href="fweelin__core__dsp_8h.html" target="_top" xlink:title="src/fweelin_core_dsp.h">
<polygon fill="#ffffff" stroke="#000000" points="331.5,-62 331.5,-81 459.5,-81 459.5,-62 331.5,-62"/>
<text text-anchor="middle" x="395.5" y="-69" font-family="Helvetica,sans-Serif" font-size="10.00" fill="#000000">src/fweelin_core_dsp.h</text>
</a>
</g>
</g>
<!-- Node41&#45;&gt;Node46 -->
<g id="edge6" class="edge">
<title>Node41&#45;&gt;Node46</title>
<path fill="none" stroke="#191970" d="M649.8688,-122.4162C599.5502,-113.1531 527.3496,-99.2928 464.5,-87 454.7442,-85.0919 444.3061,-83.031 434.5415,-81.0542"/>
<polygon fill="#191970" stroke="#191970" points="649.4798,-125.9032 659.9469,-124.2633 650.7417,-119.0178 649.4798,-125.9032"/>
</g>
<!-- Node48 -->
<g id="node8" class="node">
<title>Node48</title>
<g id="a_node8"><a xlink:href="fweelin__config_8cc.html" target="_top" xlink:title="src/fweelin_config.cc">
<polygon fill="#ffffff" stroke="#000000" points="623.5,-.5 623.5,-19.5 741.5,-19.5 741.5,-.5 623.5,-.5"/>
<text text-anchor="middle" x="682.5" y="-7.5" font-family="Helvetica,sans-Serif" font-size="10.00" fill="#000000">src/fweelin_config.cc</text>
</a>
</g>
</g>
<!-- Node41&#45;&gt;Node48 -->
<g id="edge14" class="edge">
<title>Node41&#45;&gt;Node48</title>
<path fill="none" stroke="#191970" d="M649.4193,-127.4632C595.6055,-121.2781 524.2063,-109.0963 506.5,-87 497.8844,-76.2483 498.079,-66.9048 506.5,-56 514.4142,-45.7515 584.4188,-29.7555 633.7125,-19.5819"/>
<polygon fill="#191970" stroke="#191970" points="649.2622,-130.9671 659.5858,-128.5854 650.0302,-124.0093 649.2622,-130.9671"/>
</g>
<!-- Node50 -->
<g id="node10" class="node">
<title>Node50</title>
<g id="a_node10"><a xlink:href="fweelin__block_8cc.html" target="_top" xlink:title="src/fweelin_block.cc">
<polygon fill="#ffffff" stroke="#000000" points="516,-62 516,-81 631,-81 631,-62 516,-62"/>
<text text-anchor="middle" x="573.5" y="-69" font-family="Helvetica,sans-Serif" font-size="10.00" fill="#000000">src/fweelin_block.cc</text>
</a>
</g>
</g>
<!-- Node41&#45;&gt;Node50 -->
<g id="edge12" class="edge">
<title>Node41&#45;&gt;Node50</title>
<path fill="none" stroke="#191970" d="M681.6325,-119.3428C655.3494,-107.7139 618.2628,-91.3051 595.0662,-81.0419"/>
<polygon fill="#191970" stroke="#191970" points="680.2202,-122.5452 690.7813,-123.3906 683.0525,-116.1437 680.2202,-122.5452"/>
</g>
<!-- Node51 -->
<g id="node11" class="node">
<title>Node51</title>
<g id="a_node11"><a xlink:href="fweelin__browser_8cc.html" target="_top" xlink:title="src/fweelin_browser.cc">
<polygon fill="#ffffff" stroke="#000000" points="649,-62 649,-81 776,-81 776,-62 649,-62"/>
<text text-anchor="middle" x="712.5" y="-69" font-family="Helvetica,sans-Serif" font-size="10.00" fill="#000000">src/fweelin_browser.cc</text>
</a>
</g>
</g>
<!-- Node41&#45;&gt;Node51 -->
<g id="edge13" class="edge">
<title>Node41&#45;&gt;Node51</title>
<path fill="none" stroke="#191970" d="M712.5,-113.2462C712.5,-102.5519 712.5,-89.814 712.5,-81.2449"/>
<polygon fill="#191970" stroke="#191970" points="709.0001,-113.3906 712.5,-123.3906 716.0001,-113.3907 709.0001,-113.3906"/>
</g>
<!-- Node52 -->
<g id="node12" class="node">
<title>Node52</title>
<g id="a_node12"><a xlink:href="fweelin__core_8cc.html" target="_top" xlink:title="src/fweelin_core.cc">
<polygon fill="#ffffff" stroke="#000000" points="773.5,-.5 773.5,-19.5 883.5,-19.5 883.5,-.5 773.5,-.5"/>
<text text-anchor="middle" x="828.5" y="-7.5" font-family="Helvetica,sans-Serif" font-size="10.00" fill="#000000">src/fweelin_core.cc</text>
</a>
</g>
</g>
<!-- Node41&#45;&gt;Node52 -->
<g id="edge15" class="edge">
<title>Node41&#45;&gt;Node52</title>
<path fill="none" stroke="#191970" d="M741.8541,-118.5527C755.932,-110.6147 772.3359,-99.7801 784.5,-87 804.0316,-66.4793 818.217,-35.6788 824.6513,-19.9767"/>
<polygon fill="#191970" stroke="#191970" points="740.1347,-115.5035 733.0068,-123.3421 743.4672,-121.6594 740.1347,-115.5035"/>
</g>
<!-- Node53 -->
<g id="node13" class="node">
<title>Node53</title>
<g id="a_node13"><a xlink:href="fweelin__looplibrary_8h.html" target="_top" xlink:title="src/fweelin_looplibrary.h">
<polygon fill="#ffffff" stroke="#000000" points="833,-62 833,-81 968,-81 968,-62 833,-62"/>
<text text-anchor="middle" x="900.5" y="-69" font-family="Helvetica,sans-Serif" font-size="10.00" fill="#000000">src/fweelin_looplibrary.h</text>
</a>
</g>
</g>
<!-- Node41&#45;&gt;Node53 -->
<g id="edge16" class="edge">
<title>Node41&#45;&gt;Node53</title>
<path fill="none" stroke="#191970" d="M751.4733,-120.2507C787.1442,-108.5818 839.1319,-91.5752 871.3313,-81.0419"/>
<polygon fill="#191970" stroke="#191970" points="750.2912,-116.9549 741.875,-123.3906 752.4676,-123.6079 750.2912,-116.9549"/>
</g>
<!-- Node54 -->
<g id="node14" class="node">
<title>Node54</title>
<g id="a_node14"><a xlink:href="fweelin__osc_8cc.html" target="_top" xlink:title="src/fweelin_osc.cc">
<polygon fill="#ffffff" stroke="#000000" points="930,-.5 930,-19.5 1035,-19.5 1035,-.5 930,-.5"/>
<text text-anchor="middle" x="982.5" y="-7.5" font-family="Helvetica,sans-Serif" font-size="10.00" fill="#000000">src/fweelin_osc.cc</text>
</a>
</g>
</g>
<!-- Node41&#45;&gt;Node54 -->
<g id="edge20" class="edge">
<title>Node41&#45;&gt;Node54</title>
<path fill="none" stroke="#191970" d="M775.0424,-130.8063C844.7663,-126.9303 951.2153,-116.2599 977.5,-87 994.2408,-68.3642 989.1923,-35.8681 985.2546,-19.7045"/>
<polygon fill="#191970" stroke="#191970" points="774.8389,-127.3121 765.0357,-131.3303 775.205,-134.3025 774.8389,-127.3121"/>
</g>
<!-- Node55 -->
<g id="node15" class="node">
<title>Node55</title>
<g id="a_node15"><a xlink:href="fweelin__midiio_8cc.html" target="_top" xlink:title="src/fweelin_midiio.cc">
<polygon fill="#ffffff" stroke="#000000" points="1025,-62 1025,-81 1144,-81 1144,-62 1025,-62"/>
<text text-anchor="middle" x="1084.5" y="-69" font-family="Helvetica,sans-Serif" font-size="10.00" fill="#000000">src/fweelin_midiio.cc</text>
</a>
</g>
</g>
<!-- Node41&#45;&gt;Node55 -->
<g id="edge19" class="edge">
<title>Node41&#45;&gt;Node55</title>
<path fill="none" stroke="#191970" d="M775.2678,-124.3034C835.6869,-115.6981 929.5559,-101.7138 1010.5,-87 1020.3149,-85.2159 1030.8242,-83.125 1040.7506,-81.0667"/>
<polygon fill="#191970" stroke="#191970" points="774.5359,-120.8721 765.1266,-125.742 775.5191,-127.8027 774.5359,-120.8721"/>
</g>
<!-- Node56 -->
<g id="node16" class="node">
<title>Node56</title>
<g id="a_node16"><a xlink:href="fweelin__paramset_8cc.html" target="_top" xlink:title="src/fweelin_paramset.cc">
<polygon fill="#ffffff" stroke="#000000" points="1162,-62 1162,-81 1297,-81 1297,-62 1162,-62"/>
<text text-anchor="middle" x="1229.5" y="-69" font-family="Helvetica,sans-Serif" font-size="10.00" fill="#000000">src/fweelin_paramset.cc</text>
</a>
</g>
</g>
<!-- Node41&#45;&gt;Node56 -->
<g id="edge21" class="edge">
<title>Node41&#45;&gt;Node56</title>
<path fill="none" stroke="#191970" d="M775.4178,-128.3735C861.2014,-121.6249 1019.5227,-107.5997 1153.5,-87 1164.2808,-85.3424 1175.848,-83.182 1186.6246,-81.0029"/>
<polygon fill="#191970" stroke="#191970" points="775.0202,-124.8938 765.3225,-129.1604 775.5643,-131.8726 775.0202,-124.8938"/>
</g>
<!-- Node57 -->
<g id="node17" class="node">
<title>Node57</title>
<g id="a_node17"><a xlink:href="fweelin__sdlio_8cc.html" target="_top" xlink:title="src/fweelin_sdlio.cc">
<polygon fill="#ffffff" stroke="#000000" points="1315.5,-62 1315.5,-81 1427.5,-81 1427.5,-62 1315.5,-62"/>
<text text-anchor="middle" x="1371.5" y="-69" font-family="Helvetica,sans-Serif" font-size="10.00" fill="#000000">src/fweelin_sdlio.cc</text>
</a>
</g>
</g>
<!-- Node41&#45;&gt;Node57 -->
<g id="edge22" class="edge">
<title>Node41&#45;&gt;Node57</title>
<path fill="none" stroke="#191970" d="M775.4129,-131.3662C884.25,-127.8194 1114.4603,-117.1423 1306.5,-87 1316.1271,-85.4889 1326.4347,-83.3007 1335.9397,-81.0424"/>
<polygon fill="#191970" stroke="#191970" points="775.1487,-127.8727 765.2645,-131.6876 775.3703,-134.8692 775.1487,-127.8727"/>
</g>
<!-- Node58 -->
<g id="node18" class="node">
<title>Node58</title>
<g id="a_node18"><a xlink:href="fweelin__videoio_8cc.html" target="_top" xlink:title="src/fweelin_videoio.cc">
<polygon fill="#ffffff" stroke="#000000" points="1446,-62 1446,-81 1571,-81 1571,-62 1446,-62"/>
<text text-anchor="middle" x="1508.5" y="-69" font-family="Helvetica,sans-Serif" font-size="10.00" fill="#000000">src/fweelin_videoio.cc</text>
</a>
</g>
</g>
<!-- Node41&#45;&gt;Node58 -->
<g id="edge23" class="edge">
<title>Node41&#45;&gt;Node58</title>
<path fill="none" stroke="#191970" d="M775.231,-132.1452C901.1669,-129.7403 1193.5094,-120.6843 1436.5,-87 1447.2655,-85.5076 1458.8196,-83.2975 1469.4519,-81.0108"/>
<polygon fill="#191970" stroke="#191970" points="774.9433,-128.6498 765.0092,-132.3327 775.0717,-135.6486 774.9433,-128.6498"/>
</g>
<!-- Node59 -->
<g id="node19" class="node">
<title>Node59</title>
<g id="a_node19"><a xlink:href="fweelin__videoio__displays_8cc.html" target="_top" xlink:title="src/fweelin_videoio\l_displays.cc">
<polygon fill="#ffffff" stroke="#000000" points="1589,-56.5 1589,-86.5 1700,-86.5 1700,-56.5 1589,-56.5"/>
<text text-anchor="start" x="1597" y="-74.5" font-family="Helvetica,sans-Serif" font-size="10.00" fill="#000000">src/fweelin_videoio</text>
<text text-anchor="middle" x="1644.5" y="-63.5" font-family="Helvetica,sans-Serif" font-size="10.00" fill="#000000">_displays.cc</text>
</a>
</g>
</g>
<!-- Node41&#45;&gt;Node59 -->
<g id="edge24" class="edge">
<title>Node41&#45;&gt;Node59</title>
<path fill="none" stroke="#191970" d="M775.309,-131.179C947.5643,-125.9445 1424.9362,-109.7605 1580.5,-87 1583.2149,-86.6028 1585.9832,-86.1438 1588.7711,-85.6382"/>
<polygon fill="#191970" stroke="#191970" points="775.0294,-127.6858 765.1396,-131.4861 775.2407,-134.6826 775.0294,-127.6858"/>
</g>
<!-- Node44&#45;&gt;Node41 -->
<g id="edge4" class="edge">
<title>Node44&#45;&gt;Node41</title>
<path fill="none" stroke="#191970" d="M276.2083,-82.9738C283.7267,-84.45 291.2948,-85.8463 298.5,-87 427.7885,-107.7016 580.8264,-121.7884 659.7589,-128.4962"/>
<polygon fill="#191970" stroke="#191970" points="276.8813,-79.5391 266.3878,-81.0006 275.5024,-86.402 276.8813,-79.5391"/>
</g>
<!-- Node45 -->
<g id="node5" class="node">
<title>Node45</title>
<g id="a_node5"><a xlink:href="fweelin__amixer_8cc.html" target="_top" xlink:title="src/fweelin_amixer.cc">
<polygon fill="#ffffff" stroke="#000000" points="87.5,-.5 87.5,-19.5 209.5,-19.5 209.5,-.5 87.5,-.5"/>
<text text-anchor="middle" x="148.5" y="-7.5" font-family="Helvetica,sans-Serif" font-size="10.00" fill="#000000">src/fweelin_amixer.cc</text>
</a>
</g>
</g>
<!-- Node44&#45;&gt;Node45 -->
<g id="edge5" class="edge">
<title>Node44&#45;&gt;Node45</title>
<path fill="none" stroke="#191970" d="M198.3094,-55.0482C185.85,-43.7798 169.747,-29.216 159.2748,-19.7449"/>
<polygon fill="#191970" stroke="#191970" points="196.1106,-57.7787 205.875,-61.8906 200.806,-52.5871 196.1106,-57.7787"/>
</g>
<!-- Node46&#45;&gt;Node41 -->
<g id="edge7" class="edge">
<title>Node46&#45;&gt;Node41</title>
<path fill="none" stroke="#191970" d="M462.2017,-83.0189C469.0827,-84.367 475.9453,-85.718 482.5,-87 547.8134,-99.7747 623.2254,-114.2422 669.4921,-123.4841"/>
<polygon fill="#191970" stroke="#191970" points="462.6265,-79.5358 452.141,-81.0542 461.2848,-86.406 462.6265,-79.5358"/>
</g>
<!-- Node46&#45;&gt;Node43 -->
<g id="edge8" class="edge">
<title>Node46&#45;&gt;Node43</title>
<path fill="none" stroke="#191970" d="M366.5739,-57.3813C342.8119,-45.7832 309.7997,-29.6701 289.0493,-19.5419"/>
<polygon fill="#191970" stroke="#191970" points="365.2906,-60.6496 375.8125,-61.8906 368.3611,-54.3589 365.2906,-60.6496"/>
</g>
<!-- Node47 -->
<g id="node7" class="node">
<title>Node47</title>
<g id="a_node7"><a xlink:href="fweelin__audioio_8cc.html" target="_top" xlink:title="src/fweelin_audioio.cc">
<polygon fill="#ffffff" stroke="#000000" points="480,-.5 480,-19.5 605,-19.5 605,-.5 480,-.5"/>
<text text-anchor="middle" x="542.5" y="-7.5" font-family="Helvetica,sans-Serif" font-size="10.00" fill="#000000">src/fweelin_audioio.cc</text>
</a>
</g>
</g>
<!-- Node46&#45;&gt;Node47 -->
<g id="edge9" class="edge">
<title>Node46&#45;&gt;Node47</title>
<path fill="none" stroke="#191970" d="M427.779,-57.9955C455.5955,-46.358 495.0533,-29.8501 519.6925,-19.5419"/>
<polygon fill="#191970" stroke="#191970" points="426.3431,-54.8022 418.4688,-61.8906 429.0448,-61.2599 426.3431,-54.8022"/>
</g>
<!-- Node46&#45;&gt;Node48 -->
<g id="edge10" class="edge">
<title>Node46&#45;&gt;Node48</title>
<path fill="none" stroke="#191970" d="M449.8529,-59.8529C504.3098,-48.1836 587.1307,-30.4363 637.8667,-19.5643"/>
<polygon fill="#191970" stroke="#191970" points="449.0735,-56.4404 440.0289,-61.9581 450.5403,-63.285 449.0735,-56.4404"/>
</g>
<!-- Node49 -->
<g id="node9" class="node">
<title>Node49</title>
<g id="a_node9"><a xlink:href="fweelin__core__dsp_8cc.html" target="_top" xlink:title="src/fweelin_core_dsp.cc">
<polygon fill="#ffffff" stroke="#000000" points="329.5,-.5 329.5,-19.5 461.5,-19.5 461.5,-.5 329.5,-.5"/>
<text text-anchor="middle" x="395.5" y="-7.5" font-family="Helvetica,sans-Serif" font-size="10.00" fill="#000000">src/fweelin_core_dsp.cc</text>
</a>
</g>
</g>
<!-- Node46&#45;&gt;Node49 -->
<g id="edge11" class="edge">
<title>Node46&#45;&gt;Node49</title>
<path fill="none" stroke="#191970" d="M395.5,-51.7462C395.5,-41.0519 395.5,-28.314 395.5,-19.7449"/>
<polygon fill="#191970" stroke="#191970" points="392.0001,-51.8906 395.5,-61.8906 399.0001,-51.8907 392.0001,-51.8906"/>
</g>
<!-- Node53&#45;&gt;Node52 -->
<g id="edge17" class="edge">
<title>Node53&#45;&gt;Node52</title>
<path fill="none" stroke="#191970" d="M881.6152,-55.3692C868.3723,-44.0576 851.1024,-29.3062 839.9086,-19.7449"/>
<polygon fill="#191970" stroke="#191970" points="879.373,-58.057 889.25,-61.8906 883.9195,-52.7344 879.373,-58.057"/>
</g>
<!-- Node53&#45;&gt;Node54 -->
<g id="edge18" class="edge">
<title>Node53&#45;&gt;Node54</title>
<path fill="none" stroke="#191970" d="M921.6345,-55.6491C936.8707,-44.222 956.9334,-29.1749 969.7775,-19.5419"/>
<polygon fill="#191970" stroke="#191970" points="919.2125,-53.0906 913.3125,-61.8906 923.4125,-58.6906 919.2125,-53.0906"/>
</g>
</g>
</svg>
