<?xml version="1.0" encoding="UTF-8" standalone="no"?>
<!DOCTYPE svg PUBLIC "-//W3C//DTD SVG 1.1//EN"
 "http://www.w3.org/Graphics/SVG/1.1/DTD/svg11.dtd">
<!-- Generated by graphviz version 2.40.1 (20161225.0304)
 -->
<!-- Title: MacOSX/FweelinMac.mm Pages: 1 -->
<svg width="1852pt" height="532pt"
 viewBox="0.00 0.00 1851.50 532.00" xmlns="http://www.w3.org/2000/svg" xmlns:xlink="http://www.w3.org/1999/xlink">
<g id="graph0" class="graph" transform="scale(1 1) rotate(0) translate(4 528)">
<title>MacOSX/FweelinMac.mm</title>
<polygon fill="#ffffff" stroke="transparent" points="-4,4 -4,-528 1847.5,-528 1847.5,4 -4,4"/>
<!-- Node0 -->
<g id="node1" class="node">
<title>Node0</title>
<polygon fill="#bfbfbf" stroke="#000000" points="84,-504.5 84,-523.5 223,-523.5 223,-504.5 84,-504.5"/>
<text text-anchor="middle" x="153.5" y="-511.5" font-family="Helvetica,sans-Serif" font-size="10.00" fill="#000000">MacOSX/FweelinMac.mm</text>
</g>
<!-- Node1 -->
<g id="node2" class="node">
<title>Node1</title>
<polygon fill="#ffffff" stroke="#bfbfbf" points="0,-392.5 0,-411.5 89,-411.5 89,-392.5 0,-392.5"/>
<text text-anchor="middle" x="44.5" y="-399.5" font-family="Helvetica,sans-Serif" font-size="10.00" fill="#000000">Cocoa/Cocoa.h</text>
</g>
<!-- Node0&#45;&gt;Node1 -->
<g id="edge1" class="edge">
<title>Node0&#45;&gt;Node1</title>
<path fill="none" stroke="#191970" d="M120.5387,-504.4965C101.3443,-497.3688 78.1199,-485.7392 63.5,-468 52.7292,-454.9311 48.0614,-436.048 46.04,-421.825"/>
<polygon fill="#191970" stroke="#191970" points="49.4899,-421.1764 44.9202,-411.6177 42.5317,-421.9398 49.4899,-421.1764"/>
</g>
<!-- Node2 -->
<g id="node3" class="node">
<title>Node2</title>
<g id="a_node3"><a xlink:href="FweelinMac_8h.html" target="_top" xlink:title="FweelinMac.h">
<polygon fill="#ffffff" stroke="#000000" points="159,-448.5 159,-467.5 242,-467.5 242,-448.5 159,-448.5"/>
<text text-anchor="middle" x="200.5" y="-455.5" font-family="Helvetica,sans-Serif" font-size="10.00" fill="#000000">FweelinMac.h</text>
</a>
</g>
</g>
<!-- Node0&#45;&gt;Node2 -->
<g id="edge2" class="edge">
<title>Node0&#45;&gt;Node2</title>
<path fill="none" stroke="#191970" d="M161.6868,-504.2455C168.3589,-496.2958 177.9479,-484.8706 185.9253,-475.3656"/>
<polygon fill="#191970" stroke="#191970" points="188.6592,-477.5525 192.407,-467.6427 183.2974,-473.0524 188.6592,-477.5525"/>
</g>
<!-- Node3 -->
<g id="node4" class="node">
<title>Node3</title>
<g id="a_node4"><a xlink:href="SDLMain_8h.html" target="_top" xlink:title="SDLMain.h">
<polygon fill="#ffffff" stroke="#000000" points="72.5,-448.5 72.5,-467.5 140.5,-467.5 140.5,-448.5 72.5,-448.5"/>
<text text-anchor="middle" x="106.5" y="-455.5" font-family="Helvetica,sans-Serif" font-size="10.00" fill="#000000">SDLMain.h</text>
</a>
</g>
</g>
<!-- Node0&#45;&gt;Node3 -->
<g id="edge3" class="edge">
<title>Node0&#45;&gt;Node3</title>
<path fill="none" stroke="#191970" d="M145.3132,-504.2455C138.6411,-496.2958 129.0521,-484.8706 121.0747,-475.3656"/>
<polygon fill="#191970" stroke="#191970" points="123.7026,-473.0524 114.593,-467.6427 118.3408,-477.5525 123.7026,-473.0524"/>
</g>
<!-- Node4 -->
<g id="node5" class="node">
<title>Node4</title>
<g id="a_node5"><a xlink:href="fweelin__core_8h.html" target="_top" xlink:title="fweelin_core.h">
<polygon fill="#ffffff" stroke="#000000" points="1150.5,-448.5 1150.5,-467.5 1238.5,-467.5 1238.5,-448.5 1150.5,-448.5"/>
<text text-anchor="middle" x="1194.5" y="-455.5" font-family="Helvetica,sans-Serif" font-size="10.00" fill="#000000">fweelin_core.h</text>
</a>
</g>
</g>
<!-- Node0&#45;&gt;Node4 -->
<g id="edge5" class="edge">
<title>Node0&#45;&gt;Node4</title>
<path fill="none" stroke="#191970" d="M223.0137,-510.2605C417.6408,-499.7907 965.167,-470.3368 1140.0657,-460.9283"/>
<polygon fill="#191970" stroke="#191970" points="1140.5142,-464.4093 1150.3117,-460.3771 1140.1381,-457.4194 1140.5142,-464.4093"/>
</g>
<!-- Node3&#45;&gt;Node1 -->
<g id="edge4" class="edge">
<title>Node3&#45;&gt;Node1</title>
<path fill="none" stroke="#191970" d="M95.7004,-448.2455C86.6322,-440.0549 73.4794,-428.1749 62.7755,-418.5069"/>
<polygon fill="#191970" stroke="#191970" points="64.9429,-415.7482 55.1758,-411.6427 60.2509,-420.9429 64.9429,-415.7482"/>
</g>
<!-- Node5 -->
<g id="node6" class="node">
<title>Node5</title>
<polygon fill="#ffffff" stroke="#bfbfbf" points="1479,-392.5 1479,-411.5 1558,-411.5 1558,-392.5 1479,-392.5"/>
<text text-anchor="middle" x="1518.5" y="-399.5" font-family="Helvetica,sans-Serif" font-size="10.00" fill="#000000">nettle/md5.h</text>
</g>
<!-- Node4&#45;&gt;Node5 -->
<g id="edge6" class="edge">
<title>Node4&#45;&gt;Node5</title>
<path fill="none" stroke="#191970" d="M1238.8804,-451.0745C1291.346,-442.7767 1381.5381,-428.1664 1469.1081,-412.0206"/>
<polygon fill="#191970" stroke="#191970" points="1469.7481,-415.4616 1478.9432,-410.1985 1468.4729,-408.5787 1469.7481,-415.4616"/>
</g>
<!-- Node6 -->
<g id="node7" class="node">
<title>Node6</title>
<g id="a_node7"><a xlink:href="fweelin__amixer_8h.html" target="_top" xlink:title="fweelin_amixer.h">
<polygon fill="#ffffff" stroke="#000000" points="1576,-392.5 1576,-411.5 1677,-411.5 1677,-392.5 1576,-392.5"/>
<text text-anchor="middle" x="1626.5" y="-399.5" font-family="Helvetica,sans-Serif" font-size="10.00" fill="#000000">fweelin_amixer.h</text>
</a>
</g>
</g>
<!-- Node4&#45;&gt;Node6 -->
<g id="edge7" class="edge">
<title>Node4&#45;&gt;Node6</title>
<path fill="none" stroke="#191970" d="M1238.7229,-452.5415C1307.3811,-444.5744 1443.2604,-428.8632 1558.5,-412 1560.8418,-411.6573 1563.2341,-411.2964 1565.6556,-410.9233"/>
<polygon fill="#191970" stroke="#191970" points="1566.3885,-414.3511 1575.721,-409.3356 1565.2978,-407.4365 1566.3885,-414.3511"/>
</g>
<!-- Node12 -->
<g id="node13" class="node">
<title>Node12</title>
<g id="a_node13"><a xlink:href="fweelin__midiio_8h.html" target="_top" xlink:title="fweelin_midiio.h">
<polygon fill="#ffffff" stroke="#000000" points="1362.5,-392.5 1362.5,-411.5 1460.5,-411.5 1460.5,-392.5 1362.5,-392.5"/>
<text text-anchor="middle" x="1411.5" y="-399.5" font-family="Helvetica,sans-Serif" font-size="10.00" fill="#000000">fweelin_midiio.h</text>
</a>
</g>
</g>
<!-- Node4&#45;&gt;Node12 -->
<g id="edge14" class="edge">
<title>Node4&#45;&gt;Node12</title>
<path fill="none" stroke="#191970" d="M1231.8036,-448.3733C1268.6685,-438.8598 1325.166,-424.2797 1364.9506,-414.0127"/>
<polygon fill="#191970" stroke="#191970" points="1365.875,-417.3889 1374.6831,-411.5011 1364.1258,-410.611 1365.875,-417.3889"/>
</g>
<!-- Node13 -->
<g id="node14" class="node">
<title>Node13</title>
<g id="a_node14"><a xlink:href="fweelin__event_8h.html" target="_top" xlink:title="fweelin_event.h">
<polygon fill="#ffffff" stroke="#000000" points="1140,-224.5 1140,-243.5 1235,-243.5 1235,-224.5 1140,-224.5"/>
<text text-anchor="middle" x="1187.5" y="-231.5" font-family="Helvetica,sans-Serif" font-size="10.00" fill="#000000">fweelin_event.h</text>
</a>
</g>
</g>
<!-- Node4&#45;&gt;Node13 -->
<g id="edge54" class="edge">
<title>Node4&#45;&gt;Node13</title>
<path fill="none" stroke="#191970" d="M1232.4488,-448.4828C1263.8548,-439.7482 1304.8291,-426.0642 1314.5,-412 1333.6384,-384.1673 1329.103,-366.458 1314.5,-336 1294.6119,-294.5185 1248.719,-264.5692 1217.9005,-248.2455"/>
<polygon fill="#191970" stroke="#191970" points="1219.3618,-245.0617 1208.8656,-243.6193 1216.1714,-251.2924 1219.3618,-245.0617"/>
</g>
<!-- Node20 -->
<g id="node21" class="node">
<title>Node20</title>
<g id="a_node21"><a xlink:href="fweelin__block_8h.html" target="_top" xlink:title="fweelin_block.h">
<polygon fill="#ffffff" stroke="#000000" points="934,-168.5 934,-187.5 1027,-187.5 1027,-168.5 934,-168.5"/>
<text text-anchor="middle" x="980.5" y="-175.5" font-family="Helvetica,sans-Serif" font-size="10.00" fill="#000000">fweelin_block.h</text>
</a>
</g>
</g>
<!-- Node4&#45;&gt;Node20 -->
<g id="edge53" class="edge">
<title>Node4&#45;&gt;Node20</title>
<path fill="none" stroke="#191970" d="M1150.2942,-456.0889C1082.2547,-452.2498 956.2805,-441.2956 923.5,-412 900.7399,-391.6596 904.5,-376.5246 904.5,-346 904.5,-346 904.5,-346 904.5,-290 904.5,-250.2361 937.7071,-214.1042 960.2208,-194.177"/>
<polygon fill="#191970" stroke="#191970" points="962.6079,-196.7412 967.9501,-187.5918 958.0683,-191.4128 962.6079,-196.7412"/>
</g>
<!-- Node25 -->
<g id="node26" class="node">
<title>Node25</title>
<g id="a_node26"><a xlink:href="fweelin__audioio_8h.html" target="_top" xlink:title="fweelin_audioio.h">
<polygon fill="#ffffff" stroke="#000000" points="360,-112.5 360,-131.5 463,-131.5 463,-112.5 360,-112.5"/>
<text text-anchor="middle" x="411.5" y="-119.5" font-family="Helvetica,sans-Serif" font-size="10.00" fill="#000000">fweelin_audioio.h</text>
</a>
</g>
</g>
<!-- Node4&#45;&gt;Node25 -->
<g id="edge42" class="edge">
<title>Node4&#45;&gt;Node25</title>
<path fill="none" stroke="#191970" d="M1150.2725,-455.7616C947.6091,-445.2189 117.5,-398.8127 117.5,-346 117.5,-346 117.5,-346 117.5,-234 117.5,-184.6784 263.8187,-149.2058 350.0103,-132.5887"/>
<polygon fill="#191970" stroke="#191970" points="350.7796,-136.0053 359.9527,-130.7039 349.4757,-129.1278 350.7796,-136.0053"/>
</g>
<!-- Node28 -->
<g id="node29" class="node">
<title>Node28</title>
<g id="a_node29"><a xlink:href="fweelin__videoio_8h.html" target="_top" xlink:title="fweelin_videoio.h">
<polygon fill="#ffffff" stroke="#000000" points="280,-280.5 280,-299.5 383,-299.5 383,-280.5 280,-280.5"/>
<text text-anchor="middle" x="331.5" y="-287.5" font-family="Helvetica,sans-Serif" font-size="10.00" fill="#000000">fweelin_videoio.h</text>
</a>
</g>
</g>
<!-- Node4&#45;&gt;Node28 -->
<g id="edge34" class="edge">
<title>Node4&#45;&gt;Node28</title>
<path fill="none" stroke="#191970" d="M1150.2653,-454.0528C1081.5028,-447.548 944.968,-433.1546 830.5,-412 659.8851,-380.469 460.4034,-326.4041 374.4637,-302.2644"/>
<polygon fill="#191970" stroke="#191970" points="375.3729,-298.8844 364.7985,-299.5411 373.4744,-305.622 375.3729,-298.8844"/>
</g>
<!-- Node31 -->
<g id="node32" class="node">
<title>Node31</title>
<g id="a_node32"><a xlink:href="fweelin__sdlio_8h.html" target="_top" xlink:title="fweelin_sdlio.h">
<polygon fill="#ffffff" stroke="#000000" points="1400.5,-280.5 1400.5,-299.5 1490.5,-299.5 1490.5,-280.5 1400.5,-280.5"/>
<text text-anchor="middle" x="1445.5" y="-287.5" font-family="Helvetica,sans-Serif" font-size="10.00" fill="#000000">fweelin_sdlio.h</text>
</a>
</g>
</g>
<!-- Node4&#45;&gt;Node31 -->
<g id="edge39" class="edge">
<title>Node4&#45;&gt;Node31</title>
<path fill="none" stroke="#191970" d="M1238.7282,-456.2132C1343.3477,-451.6098 1603.4634,-437.8552 1686.5,-412 1735.1357,-396.8562 1760.7419,-399.9464 1786.5,-356 1790.9948,-348.3313 1792.3502,-342.6924 1786.5,-336 1768.021,-314.8609 1592.7715,-299.9613 1500.9799,-293.5377"/>
<polygon fill="#191970" stroke="#191970" points="1500.9697,-290.0288 1490.7527,-292.8329 1500.4884,-297.0122 1500.9697,-290.0288"/>
</g>
<!-- Node32 -->
<g id="node33" class="node">
<title>Node32</title>
<g id="a_node33"><a xlink:href="fweelin__rcu_8h.html" target="_top" xlink:title="fweelin_rcu.h">
<polygon fill="#ffffff" stroke="#000000" points="1457.5,-168.5 1457.5,-187.5 1539.5,-187.5 1539.5,-168.5 1457.5,-168.5"/>
<text text-anchor="middle" x="1498.5" y="-175.5" font-family="Helvetica,sans-Serif" font-size="10.00" fill="#000000">fweelin_rcu.h</text>
</a>
</g>
</g>
<!-- Node4&#45;&gt;Node32 -->
<g id="edge43" class="edge">
<title>Node4&#45;&gt;Node32</title>
<path fill="none" stroke="#191970" d="M1238.6594,-456.7361C1350.0379,-453.147 1640.0206,-441.2004 1731.5,-412 1786.5417,-394.4306 1843.5,-403.7778 1843.5,-346 1843.5,-346 1843.5,-346 1843.5,-290 1843.5,-229.0131 1646.0013,-196.1974 1549.8632,-183.8362"/>
<polygon fill="#191970" stroke="#191970" points="1550.1312,-180.3424 1539.7724,-182.566 1549.257,-187.2876 1550.1312,-180.3424"/>
</g>
<!-- Node34 -->
<g id="node35" class="node">
<title>Node34</title>
<g id="a_node35"><a xlink:href="fweelin__core__dsp_8h.html" target="_top" xlink:title="fweelin_core_dsp.h">
<polygon fill="#ffffff" stroke="#000000" points="1056.5,-392.5 1056.5,-411.5 1166.5,-411.5 1166.5,-392.5 1056.5,-392.5"/>
<text text-anchor="middle" x="1111.5" y="-399.5" font-family="Helvetica,sans-Serif" font-size="10.00" fill="#000000">fweelin_core_dsp.h</text>
</a>
</g>
</g>
<!-- Node4&#45;&gt;Node34 -->
<g id="edge47" class="edge">
<title>Node4&#45;&gt;Node34</title>
<path fill="none" stroke="#191970" d="M1174.7757,-448.2455C1160.6508,-439.814 1142.0718,-427.4729 1128.5801,-417.6598"/>
<polygon fill="#191970" stroke="#191970" points="1130.6488,-414.8363 1120.5467,-411.6427 1126.4523,-420.439 1130.6488,-414.8363"/>
</g>
<!-- Node37 -->
<g id="node38" class="node">
<title>Node37</title>
<g id="a_node38"><a xlink:href="fweelin__config_8h.html" target="_top" xlink:title="fweelin_config.h">
<polygon fill="#ffffff" stroke="#000000" points="688.5,-336.5 688.5,-355.5 784.5,-355.5 784.5,-336.5 688.5,-336.5"/>
<text text-anchor="middle" x="736.5" y="-343.5" font-family="Helvetica,sans-Serif" font-size="10.00" fill="#000000">fweelin_config.h</text>
</a>
</g>
</g>
<!-- Node4&#45;&gt;Node37 -->
<g id="edge55" class="edge">
<title>Node4&#45;&gt;Node37</title>
<path fill="none" stroke="#191970" d="M1150.4623,-454.872C1090.6571,-449.8296 980.8513,-437.7399 890.5,-412 844.5577,-398.9117 794.1839,-375.4546 763.9712,-360.3184"/>
<polygon fill="#191970" stroke="#191970" points="765.4033,-357.1204 754.9014,-355.7201 762.2379,-363.3639 765.4033,-357.1204"/>
</g>
<!-- Node41 -->
<g id="node42" class="node">
<title>Node41</title>
<g id="a_node42"><a xlink:href="fweelin__fluidsynth_8h.html" target="_top" xlink:title="fweelin_fluidsynth.h">
<polygon fill="#ffffff" stroke="#000000" points="1047,-280.5 1047,-299.5 1162,-299.5 1162,-280.5 1047,-280.5"/>
<text text-anchor="middle" x="1104.5" y="-287.5" font-family="Helvetica,sans-Serif" font-size="10.00" fill="#000000">fweelin_fluidsynth.h</text>
</a>
</g>
</g>
<!-- Node4&#45;&gt;Node41 -->
<g id="edge69" class="edge">
<title>Node4&#45;&gt;Node41</title>
<path fill="none" stroke="#191970" d="M1197.4681,-448.3338C1205.0453,-422.8428 1223.674,-354.485 1211.5,-336 1201.084,-320.1843 1183.9681,-309.784 1166.4487,-302.9536"/>
<polygon fill="#191970" stroke="#191970" points="1167.309,-299.5455 1156.7142,-299.5144 1164.9771,-306.1457 1167.309,-299.5455"/>
</g>
<!-- Node42 -->
<g id="node43" class="node">
<title>Node42</title>
<g id="a_node43"><a xlink:href="fweelin__browser_8h.html" target="_top" xlink:title="fweelin_browser.h">
<polygon fill="#ffffff" stroke="#000000" points="933,-392.5 933,-411.5 1038,-411.5 1038,-392.5 933,-392.5"/>
<text text-anchor="middle" x="985.5" y="-399.5" font-family="Helvetica,sans-Serif" font-size="10.00" fill="#000000">fweelin_browser.h</text>
</a>
</g>
</g>
<!-- Node4&#45;&gt;Node42 -->
<g id="edge66" class="edge">
<title>Node4&#45;&gt;Node42</title>
<path fill="none" stroke="#191970" d="M1158.5716,-448.3733C1123.2163,-438.9001 1069.112,-424.4032 1030.8212,-414.1435"/>
<polygon fill="#191970" stroke="#191970" points="1031.5247,-410.7086 1020.9595,-411.5011 1029.713,-417.4701 1031.5247,-410.7086"/>
</g>
<!-- Node43 -->
<g id="node44" class="node">
<title>Node43</title>
<g id="a_node44"><a xlink:href="fweelin__osc_8h.html" target="_top" xlink:title="fweelin_osc.h">
<polygon fill="#ffffff" stroke="#000000" points="1223,-392.5 1223,-411.5 1306,-411.5 1306,-392.5 1223,-392.5"/>
<text text-anchor="middle" x="1264.5" y="-399.5" font-family="Helvetica,sans-Serif" font-size="10.00" fill="#000000">fweelin_osc.h</text>
</a>
</g>
</g>
<!-- Node4&#45;&gt;Node43 -->
<g id="edge70" class="edge">
<title>Node4&#45;&gt;Node43</title>
<path fill="none" stroke="#191970" d="M1206.6931,-448.2455C1217.1321,-439.8943 1232.3655,-427.7076 1244.574,-417.9408"/>
<polygon fill="#191970" stroke="#191970" points="1246.8244,-420.6227 1252.4467,-411.6427 1242.4515,-415.1566 1246.8244,-420.6227"/>
</g>
<!-- Node6&#45;&gt;Node4 -->
<g id="edge13" class="edge">
<title>Node6&#45;&gt;Node4</title>
<path fill="none" stroke="#191970" d="M1579.6102,-411.5387C1578.5657,-411.6956 1577.528,-411.8496 1576.5,-412 1460.2712,-429.0079 1323.0469,-444.844 1248.7094,-452.745"/>
<polygon fill="#191970" stroke="#191970" points="1248.2238,-449.2767 1238.6461,-453.8065 1248.9581,-456.2381 1248.2238,-449.2767"/>
</g>
<!-- Node7 -->
<g id="node8" class="node">
<title>Node7</title>
<polygon fill="#ffffff" stroke="#bfbfbf" points="1655.5,-336.5 1655.5,-355.5 1705.5,-355.5 1705.5,-336.5 1655.5,-336.5"/>
<text text-anchor="middle" x="1680.5" y="-343.5" font-family="Helvetica,sans-Serif" font-size="10.00" fill="#000000">stdio.h</text>
</g>
<!-- Node6&#45;&gt;Node7 -->
<g id="edge8" class="edge">
<title>Node6&#45;&gt;Node7</title>
<path fill="none" stroke="#191970" d="M1635.9061,-392.2455C1643.6493,-384.2155 1654.812,-372.6394 1664.0318,-363.0781"/>
<polygon fill="#191970" stroke="#191970" points="1666.7798,-365.2706 1671.2017,-355.6427 1661.7409,-360.4117 1666.7798,-365.2706"/>
</g>
<!-- Node8 -->
<g id="node9" class="node">
<title>Node8</title>
<polygon fill="#ffffff" stroke="#bfbfbf" points="1724,-336.5 1724,-355.5 1777,-355.5 1777,-336.5 1724,-336.5"/>
<text text-anchor="middle" x="1750.5" y="-343.5" font-family="Helvetica,sans-Serif" font-size="10.00" fill="#000000">stdlib.h</text>
</g>
<!-- Node6&#45;&gt;Node8 -->
<g id="edge9" class="edge">
<title>Node6&#45;&gt;Node8</title>
<path fill="none" stroke="#191970" d="M1647.8164,-392.3733C1667.7216,-383.3838 1697.6436,-369.8706 1720.06,-359.7471"/>
<polygon fill="#191970" stroke="#191970" points="1721.7887,-362.8068 1729.4618,-355.5011 1718.9075,-356.4272 1721.7887,-362.8068"/>
</g>
<!-- Node9 -->
<g id="node10" class="node">
<title>Node9</title>
<polygon fill="#ffffff" stroke="#bfbfbf" points="1515,-336.5 1515,-355.5 1568,-355.5 1568,-336.5 1515,-336.5"/>
<text text-anchor="middle" x="1541.5" y="-343.5" font-family="Helvetica,sans-Serif" font-size="10.00" fill="#000000">ctype.h</text>
</g>
<!-- Node6&#45;&gt;Node9 -->
<g id="edge10" class="edge">
<title>Node6&#45;&gt;Node9</title>
<path fill="none" stroke="#191970" d="M1611.6941,-392.2455C1598.7744,-383.7337 1579.8069,-371.2375 1564.8448,-361.3801"/>
<polygon fill="#191970" stroke="#191970" points="1566.4124,-358.2216 1556.1362,-355.6427 1562.5613,-364.067 1566.4124,-358.2216"/>
</g>
<!-- Node10 -->
<g id="node11" class="node">
<title>Node10</title>
<polygon fill="#ffffff" stroke="#bfbfbf" points="1586,-336.5 1586,-355.5 1637,-355.5 1637,-336.5 1586,-336.5"/>
<text text-anchor="middle" x="1611.5" y="-343.5" font-family="Helvetica,sans-Serif" font-size="10.00" fill="#000000">math.h</text>
</g>
<!-- Node6&#45;&gt;Node10 -->
<g id="edge11" class="edge">
<title>Node6&#45;&gt;Node10</title>
<path fill="none" stroke="#191970" d="M1623.8872,-392.2455C1621.9084,-384.8579 1619.1256,-374.4689 1616.6988,-365.4087"/>
<polygon fill="#191970" stroke="#191970" points="1620.0511,-364.3966 1614.0829,-355.6427 1613.2895,-366.2078 1620.0511,-364.3966"/>
</g>
<!-- Node11 -->
<g id="node12" class="node">
<title>Node11</title>
<polygon fill="#ffffff" stroke="#bfbfbf" points="1400.5,-336.5 1400.5,-355.5 1496.5,-355.5 1496.5,-336.5 1400.5,-336.5"/>
<text text-anchor="middle" x="1448.5" y="-343.5" font-family="Helvetica,sans-Serif" font-size="10.00" fill="#000000">alsa/asoundlib.h</text>
</g>
<!-- Node6&#45;&gt;Node11 -->
<g id="edge12" class="edge">
<title>Node6&#45;&gt;Node11</title>
<path fill="none" stroke="#191970" d="M1595.9007,-392.3733C1566.1739,-383.021 1520.8841,-368.7725 1488.3544,-358.5385"/>
<polygon fill="#191970" stroke="#191970" points="1489.2895,-355.1636 1478.7,-355.5011 1487.1887,-361.8409 1489.2895,-355.1636"/>
</g>
<!-- Node12&#45;&gt;Node11 -->
<g id="edge15" class="edge">
<title>Node12&#45;&gt;Node11</title>
<path fill="none" stroke="#191970" d="M1417.9449,-392.2455C1423.0382,-384.5367 1430.2908,-373.5598 1436.452,-364.2348"/>
<polygon fill="#191970" stroke="#191970" points="1439.5365,-365.9155 1442.1289,-355.6427 1433.6962,-362.0566 1439.5365,-365.9155"/>
</g>
<!-- Node12&#45;&gt;Node13 -->
<g id="edge16" class="edge">
<title>Node12&#45;&gt;Node13</title>
<path fill="none" stroke="#191970" d="M1407.0665,-392.3664C1394.373,-364.945 1358.1822,-287.9296 1348.5,-280 1332.4838,-266.883 1284.4529,-254.1227 1244.9888,-245.3825"/>
<polygon fill="#191970" stroke="#191970" points="1245.6798,-241.951 1235.1648,-243.2492 1244.1943,-248.7916 1245.6798,-241.951"/>
</g>
<!-- Node14 -->
<g id="node15" class="node">
<title>Node14</title>
<polygon fill="#ffffff" stroke="#bfbfbf" points="1213.5,-168.5 1213.5,-187.5 1293.5,-187.5 1293.5,-168.5 1213.5,-168.5"/>
<text text-anchor="middle" x="1253.5" y="-175.5" font-family="Helvetica,sans-Serif" font-size="10.00" fill="#000000">linux/limits.h</text>
</g>
<!-- Node13&#45;&gt;Node14 -->
<g id="edge17" class="edge">
<title>Node13&#45;&gt;Node14</title>
<path fill="none" stroke="#191970" d="M1198.9963,-224.2455C1208.7442,-215.9746 1222.9259,-203.9416 1234.3798,-194.2232"/>
<polygon fill="#191970" stroke="#191970" points="1236.7747,-196.7813 1242.1354,-187.6427 1232.2459,-191.4437 1236.7747,-196.7813"/>
</g>
<!-- Node15 -->
<g id="node16" class="node">
<title>Node15</title>
<polygon fill="#ffffff" stroke="#bfbfbf" points="1363,-168.5 1363,-187.5 1426,-187.5 1426,-168.5 1363,-168.5"/>
<text text-anchor="middle" x="1394.5" y="-175.5" font-family="Helvetica,sans-Serif" font-size="10.00" fill="#000000">pthread.h</text>
</g>
<!-- Node13&#45;&gt;Node15 -->
<g id="edge18" class="edge">
<title>Node13&#45;&gt;Node15</title>
<path fill="none" stroke="#191970" d="M1223.0846,-224.3733C1259.1627,-214.613 1314.9529,-199.52 1353.016,-189.2227"/>
<polygon fill="#191970" stroke="#191970" points="1354.0298,-192.5743 1362.7688,-186.5843 1352.2018,-185.8172 1354.0298,-192.5743"/>
</g>
<!-- Node16 -->
<g id="node17" class="node">
<title>Node16</title>
<polygon fill="#ffffff" stroke="#bfbfbf" points="621.5,-168.5 621.5,-187.5 687.5,-187.5 687.5,-168.5 621.5,-168.5"/>
<text text-anchor="middle" x="654.5" y="-175.5" font-family="Helvetica,sans-Serif" font-size="10.00" fill="#000000">SDL/SDL.h</text>
</g>
<!-- Node13&#45;&gt;Node16 -->
<g id="edge19" class="edge">
<title>Node13&#45;&gt;Node16</title>
<path fill="none" stroke="#191970" d="M1139.7307,-228.9811C1037.0488,-218.1927 796.6342,-192.9334 697.949,-182.565"/>
<polygon fill="#191970" stroke="#191970" points="698.0506,-179.0565 687.7396,-181.4923 697.3191,-186.0182 698.0506,-179.0565"/>
</g>
<!-- Node17 -->
<g id="node18" class="node">
<title>Node17</title>
<polygon fill="#ffffff" stroke="#bfbfbf" points="1159,-.5 1159,-19.5 1254,-19.5 1254,-.5 1159,-.5"/>
<text text-anchor="middle" x="1206.5" y="-7.5" font-family="Helvetica,sans-Serif" font-size="10.00" fill="#000000">jack/ringbuffer.h</text>
</g>
<!-- Node13&#45;&gt;Node17 -->
<g id="edge20" class="edge">
<title>Node13&#45;&gt;Node17</title>
<path fill="none" stroke="#191970" d="M1188.3164,-224.375C1191.191,-190.4851 1200.8821,-76.2317 1204.8177,-29.8332"/>
<polygon fill="#191970" stroke="#191970" points="1208.3288,-29.8492 1205.6866,-19.5891 1201.3539,-29.2575 1208.3288,-29.8492"/>
</g>
<!-- Node18 -->
<g id="node19" class="node">
<title>Node18</title>
<g id="a_node19"><a xlink:href="fweelin__datatypes_8h.html" target="_top" xlink:title="fweelin_datatypes.h">
<polygon fill="#ffffff" stroke="#000000" points="1263.5,-56.5 1263.5,-75.5 1379.5,-75.5 1379.5,-56.5 1263.5,-56.5"/>
<text text-anchor="middle" x="1321.5" y="-63.5" font-family="Helvetica,sans-Serif" font-size="10.00" fill="#000000">fweelin_datatypes.h</text>
</a>
</g>
</g>
<!-- Node13&#45;&gt;Node18 -->
<g id="edge21" class="edge">
<title>Node13&#45;&gt;Node18</title>
<path fill="none" stroke="#191970" d="M1235.0278,-226.4081C1258.8347,-220.1193 1286.026,-208.6919 1302.5,-188 1325.8772,-158.6374 1326.1648,-112.3704 1324.0114,-86.0576"/>
<polygon fill="#191970" stroke="#191970" points="1327.4623,-85.398 1322.962,-75.8065 1320.4987,-86.1109 1327.4623,-85.398"/>
</g>
<!-- Node13&#45;&gt;Node20 -->
<g id="edge24" class="edge">
<title>Node13&#45;&gt;Node20</title>
<path fill="none" stroke="#191970" d="M1146.6734,-224.3733C1109.9601,-214.9404 1056.5285,-200.5265 1020.1754,-190.2747"/>
<polygon fill="#191970" stroke="#191970" points="1020.9786,-186.8645 1010.4029,-187.5011 1019.0674,-193.5985 1020.9786,-186.8645"/>
</g>
<!-- Node18&#45;&gt;Node17 -->
<g id="edge22" class="edge">
<title>Node18&#45;&gt;Node17</title>
<path fill="none" stroke="#191970" d="M1301.7308,-56.3733C1283.3531,-47.4241 1255.7688,-33.9917 1235.0107,-23.8835"/>
<polygon fill="#191970" stroke="#191970" points="1236.5343,-20.7325 1226.0112,-19.5011 1233.4696,-27.026 1236.5343,-20.7325"/>
</g>
<!-- Node19 -->
<g id="node20" class="node">
<title>Node19</title>
<polygon fill="#ffffff" stroke="#bfbfbf" points="1293.5,-.5 1293.5,-19.5 1349.5,-19.5 1349.5,-.5 1293.5,-.5"/>
<text text-anchor="middle" x="1321.5" y="-7.5" font-family="Helvetica,sans-Serif" font-size="10.00" fill="#000000">assert.h</text>
</g>
<!-- Node18&#45;&gt;Node19 -->
<g id="edge23" class="edge">
<title>Node18&#45;&gt;Node19</title>
<path fill="none" stroke="#191970" d="M1321.5,-56.2455C1321.5,-48.9382 1321.5,-38.6944 1321.5,-29.7046"/>
<polygon fill="#191970" stroke="#191970" points="1325.0001,-29.6426 1321.5,-19.6427 1318.0001,-29.6427 1325.0001,-29.6426"/>
</g>
<!-- Node20&#45;&gt;Node13 -->
<g id="edge33" class="edge">
<title>Node20&#45;&gt;Node13</title>
<path fill="none" stroke="#191970" d="M1020.8375,-187.5011C1057.4014,-196.8895 1110.8339,-211.2996 1147.3383,-221.5882"/>
<polygon fill="#191970" stroke="#191970" points="1146.5819,-225.0117 1157.1575,-224.3733 1148.492,-218.2773 1146.5819,-225.0117"/>
</g>
<!-- Node21 -->
<g id="node22" class="node">
<title>Node21</title>
<polygon fill="#ffffff" stroke="#bfbfbf" points="1070,-112.5 1070,-131.5 1157,-131.5 1157,-112.5 1070,-112.5"/>
<text text-anchor="middle" x="1113.5" y="-119.5" font-family="Helvetica,sans-Serif" font-size="10.00" fill="#000000">vorbis/codec.h</text>
</g>
<!-- Node20&#45;&gt;Node21 -->
<g id="edge25" class="edge">
<title>Node20&#45;&gt;Node21</title>
<path fill="none" stroke="#191970" d="M1003.3635,-168.3733C1024.905,-159.3032 1057.3838,-145.6279 1081.4956,-135.4755"/>
<polygon fill="#191970" stroke="#191970" points="1083.0767,-138.6075 1090.9348,-131.5011 1080.3603,-132.156 1083.0767,-138.6075"/>
</g>
<!-- Node22 -->
<g id="node23" class="node">
<title>Node22</title>
<polygon fill="#ffffff" stroke="#bfbfbf" points="747.5,-112.5 747.5,-131.5 851.5,-131.5 851.5,-112.5 747.5,-112.5"/>
<text text-anchor="middle" x="799.5" y="-119.5" font-family="Helvetica,sans-Serif" font-size="10.00" fill="#000000">vorbis/vorbisfile.h</text>
</g>
<!-- Node20&#45;&gt;Node22 -->
<g id="edge26" class="edge">
<title>Node20&#45;&gt;Node22</title>
<path fill="none" stroke="#191970" d="M949.385,-168.3733C919.1571,-159.021 873.104,-144.7725 840.0261,-134.5385"/>
<polygon fill="#191970" stroke="#191970" points="840.7967,-131.1133 830.209,-131.5011 838.7277,-137.8005 840.7967,-131.1133"/>
</g>
<!-- Node23 -->
<g id="node24" class="node">
<title>Node23</title>
<polygon fill="#ffffff" stroke="#bfbfbf" points="869.5,-112.5 869.5,-131.5 975.5,-131.5 975.5,-112.5 869.5,-112.5"/>
<text text-anchor="middle" x="922.5" y="-119.5" font-family="Helvetica,sans-Serif" font-size="10.00" fill="#000000">vorbis/vorbisenc.h</text>
</g>
<!-- Node20&#45;&gt;Node23 -->
<g id="edge27" class="edge">
<title>Node20&#45;&gt;Node23</title>
<path fill="none" stroke="#191970" d="M970.3972,-168.2455C961.9972,-160.1352 949.8506,-148.4075 939.8916,-138.7919"/>
<polygon fill="#191970" stroke="#191970" points="942.1122,-136.0707 932.4871,-131.6427 937.25,-141.1066 942.1122,-136.0707"/>
</g>
<!-- Node24 -->
<g id="node25" class="node">
<title>Node24</title>
<polygon fill="#ffffff" stroke="#bfbfbf" points="993.5,-112.5 993.5,-131.5 1051.5,-131.5 1051.5,-112.5 993.5,-112.5"/>
<text text-anchor="middle" x="1022.5" y="-119.5" font-family="Helvetica,sans-Serif" font-size="10.00" fill="#000000">sndfile.h</text>
</g>
<!-- Node20&#45;&gt;Node24 -->
<g id="edge28" class="edge">
<title>Node20&#45;&gt;Node24</title>
<path fill="none" stroke="#191970" d="M987.8158,-168.2455C993.7179,-160.3761 1002.1742,-149.101 1009.2594,-139.6542"/>
<polygon fill="#191970" stroke="#191970" points="1012.068,-141.7427 1015.268,-131.6427 1006.4679,-137.5427 1012.068,-141.7427"/>
</g>
<!-- Node20&#45;&gt;Node25 -->
<g id="edge29" class="edge">
<title>Node20&#45;&gt;Node25</title>
<path fill="none" stroke="#191970" d="M933.9363,-173.4173C831.7814,-163.3634 587.9868,-139.3695 473.228,-128.0752"/>
<polygon fill="#191970" stroke="#191970" points="473.4922,-124.5843 463.1974,-127.088 472.8065,-131.5507 473.4922,-124.5843"/>
</g>
<!-- Node27 -->
<g id="node28" class="node">
<title>Node27</title>
<g id="a_node28"><a xlink:href="fweelin__mem_8h.html" target="_top" xlink:title="fweelin_mem.h">
<polygon fill="#ffffff" stroke="#000000" points="1349.5,-112.5 1349.5,-131.5 1441.5,-131.5 1441.5,-112.5 1349.5,-112.5"/>
<text text-anchor="middle" x="1395.5" y="-119.5" font-family="Helvetica,sans-Serif" font-size="10.00" fill="#000000">fweelin_mem.h</text>
</a>
</g>
</g>
<!-- Node20&#45;&gt;Node27 -->
<g id="edge31" class="edge">
<title>Node20&#45;&gt;Node27</title>
<path fill="none" stroke="#191970" d="M1027.2991,-171.6849C1104.117,-161.3192 1256.6471,-140.7368 1339.2311,-129.5929"/>
<polygon fill="#191970" stroke="#191970" points="1339.7469,-133.0551 1349.189,-128.2492 1338.8108,-126.118 1339.7469,-133.0551"/>
</g>
<!-- Node26 -->
<g id="node27" class="node">
<title>Node26</title>
<polygon fill="#ffffff" stroke="#bfbfbf" points="377,-56.5 377,-75.5 446,-75.5 446,-56.5 377,-56.5"/>
<text text-anchor="middle" x="411.5" y="-63.5" font-family="Helvetica,sans-Serif" font-size="10.00" fill="#000000">jack/jack.h</text>
</g>
<!-- Node25&#45;&gt;Node26 -->
<g id="edge30" class="edge">
<title>Node25&#45;&gt;Node26</title>
<path fill="none" stroke="#191970" d="M411.5,-112.2455C411.5,-104.9382 411.5,-94.6944 411.5,-85.7046"/>
<polygon fill="#191970" stroke="#191970" points="415.0001,-85.6426 411.5,-75.6427 408.0001,-85.6427 415.0001,-85.6426"/>
</g>
<!-- Node27&#45;&gt;Node18 -->
<g id="edge32" class="edge">
<title>Node27&#45;&gt;Node18</title>
<path fill="none" stroke="#191970" d="M1382.6102,-112.2455C1371.5746,-103.8943 1355.4708,-91.7076 1342.5647,-81.9408"/>
<polygon fill="#191970" stroke="#191970" points="1344.3283,-78.8862 1334.2421,-75.6427 1340.1041,-84.4681 1344.3283,-78.8862"/>
</g>
<!-- Node28&#45;&gt;Node13 -->
<g id="edge35" class="edge">
<title>Node28&#45;&gt;Node13</title>
<path fill="none" stroke="#191970" d="M383.1029,-284.3934C398.3535,-282.8431 415.0892,-281.246 430.5,-280 690.9044,-258.9448 1002.4109,-242.8939 1129.3626,-236.7389"/>
<polygon fill="#191970" stroke="#191970" points="1129.807,-240.2216 1139.6265,-236.2433 1129.4694,-233.2297 1129.807,-240.2216"/>
</g>
<!-- Node28&#45;&gt;Node16 -->
<g id="edge36" class="edge">
<title>Node28&#45;&gt;Node16</title>
<path fill="none" stroke="#191970" d="M359.0388,-280.4509C417.0829,-260.3242 552.0158,-213.5363 617.5128,-190.8253"/>
<polygon fill="#191970" stroke="#191970" points="618.7294,-194.1079 627.0309,-187.5249 616.4361,-187.4942 618.7294,-194.1079"/>
</g>
<!-- Node29 -->
<g id="node30" class="node">
<title>Node29</title>
<polygon fill="#ffffff" stroke="#bfbfbf" points="146,-224.5 146,-243.5 283,-243.5 283,-224.5 146,-224.5"/>
<text text-anchor="middle" x="214.5" y="-231.5" font-family="Helvetica,sans-Serif" font-size="10.00" fill="#000000">SDL/SDL_gfxPrimitives.h</text>
</g>
<!-- Node28&#45;&gt;Node29 -->
<g id="edge37" class="edge">
<title>Node28&#45;&gt;Node29</title>
<path fill="none" stroke="#191970" d="M311.387,-280.3733C292.6897,-271.4241 264.6256,-257.9917 243.5066,-247.8835"/>
<polygon fill="#191970" stroke="#191970" points="244.8817,-244.6614 234.3506,-243.5011 241.8595,-250.9755 244.8817,-244.6614"/>
</g>
<!-- Node30 -->
<g id="node31" class="node">
<title>Node30</title>
<polygon fill="#ffffff" stroke="#bfbfbf" points="301.5,-224.5 301.5,-243.5 383.5,-243.5 383.5,-224.5 301.5,-224.5"/>
<text text-anchor="middle" x="342.5" y="-231.5" font-family="Helvetica,sans-Serif" font-size="10.00" fill="#000000">SDL/SDL_ttf.h</text>
</g>
<!-- Node28&#45;&gt;Node30 -->
<g id="edge38" class="edge">
<title>Node28&#45;&gt;Node30</title>
<path fill="none" stroke="#191970" d="M333.4161,-280.2455C334.8514,-272.9382 336.8636,-262.6944 338.6295,-253.7046"/>
<polygon fill="#191970" stroke="#191970" points="342.1127,-254.1298 340.6059,-243.6427 335.244,-252.7805 342.1127,-254.1298"/>
</g>
<!-- Node31&#45;&gt;Node13 -->
<g id="edge41" class="edge">
<title>Node31&#45;&gt;Node13</title>
<path fill="none" stroke="#191970" d="M1401.4414,-280.4369C1357.1011,-270.8127 1288.6589,-255.957 1241.1751,-245.6504"/>
<polygon fill="#191970" stroke="#191970" points="1241.8918,-242.2245 1231.3769,-243.5237 1240.4069,-249.0653 1241.8918,-242.2245"/>
</g>
<!-- Node31&#45;&gt;Node15 -->
<g id="edge40" class="edge">
<title>Node31&#45;&gt;Node15</title>
<path fill="none" stroke="#191970" d="M1441.1518,-280.4509C1432.7209,-261.936 1414.0162,-220.8591 1403.0237,-196.7187"/>
<polygon fill="#191970" stroke="#191970" points="1406.1667,-195.1753 1398.8372,-187.5249 1399.7961,-198.0762 1406.1667,-195.1753"/>
</g>
<!-- Node32&#45;&gt;Node18 -->
<g id="edge45" class="edge">
<title>Node32&#45;&gt;Node18</title>
<path fill="none" stroke="#191970" d="M1493.7199,-168.0423C1486.3555,-153.6998 1470.9211,-127.2765 1450.5,-112 1429.3318,-96.1647 1402.2185,-85.4075 1378.3169,-78.3044"/>
<polygon fill="#191970" stroke="#191970" points="1379.2192,-74.9224 1368.6444,-75.5729 1377.3167,-81.659 1379.2192,-74.9224"/>
</g>
<!-- Node32&#45;&gt;Node27 -->
<g id="edge46" class="edge">
<title>Node32&#45;&gt;Node27</title>
<path fill="none" stroke="#191970" d="M1480.5588,-168.2455C1464.46,-159.4928 1440.6121,-146.527 1422.2609,-136.5496"/>
<polygon fill="#191970" stroke="#191970" points="1423.6929,-133.3444 1413.2356,-131.6427 1420.3493,-139.4942 1423.6929,-133.3444"/>
</g>
<!-- Node33 -->
<g id="node34" class="node">
<title>Node33</title>
<polygon fill="#ffffff" stroke="#bfbfbf" points="1498,-112.5 1498,-131.5 1551,-131.5 1551,-112.5 1498,-112.5"/>
<text text-anchor="middle" x="1524.5" y="-119.5" font-family="Helvetica,sans-Serif" font-size="10.00" fill="#000000">stdint.h</text>
</g>
<!-- Node32&#45;&gt;Node33 -->
<g id="edge44" class="edge">
<title>Node32&#45;&gt;Node33</title>
<path fill="none" stroke="#191970" d="M1503.0289,-168.2455C1506.5334,-160.6973 1511.4927,-150.0158 1515.7623,-140.8197"/>
<polygon fill="#191970" stroke="#191970" points="1518.9864,-142.1867 1520.023,-131.6427 1512.6373,-139.2389 1518.9864,-142.1867"/>
</g>
<!-- Node34&#45;&gt;Node4 -->
<g id="edge50" class="edge">
<title>Node34&#45;&gt;Node4</title>
<path fill="none" stroke="#191970" d="M1131.037,-411.6427C1145.1222,-420.0394 1163.7037,-432.3743 1177.2404,-442.2097"/>
<polygon fill="#191970" stroke="#191970" points="1175.2053,-445.0583 1185.3093,-448.2455 1179.3982,-439.453 1175.2053,-445.0583"/>
</g>
<!-- Node34&#45;&gt;Node13 -->
<g id="edge51" class="edge">
<title>Node34&#45;&gt;Node13</title>
<path fill="none" stroke="#191970" d="M1117.1481,-392.15C1124.5549,-379.2419 1137.9643,-355.9049 1149.5,-336 1158.7879,-319.9736 1163.4562,-317.1317 1170.5,-300 1176.6867,-284.9528 1181.1318,-267.0294 1183.9214,-253.6605"/>
<polygon fill="#191970" stroke="#191970" points="1187.3917,-254.1509 1185.8772,-243.6649 1180.522,-252.8067 1187.3917,-254.1509"/>
</g>
<!-- Node34&#45;&gt;Node20 -->
<g id="edge52" class="edge">
<title>Node34&#45;&gt;Node20</title>
<path fill="none" stroke="#191970" d="M1087.3598,-392.3481C1071.1346,-384.7181 1050.4295,-372.5816 1037.5,-356 999.6753,-307.491 986.6135,-233.2178 982.3816,-197.9377"/>
<polygon fill="#191970" stroke="#191970" points="985.8147,-197.1283 981.262,-187.5615 978.8551,-197.8793 985.8147,-197.1283"/>
</g>
<!-- Node35 -->
<g id="node36" class="node">
<title>Node35</title>
<polygon fill="#ffffff" stroke="#bfbfbf" points="1158.5,-336.5 1158.5,-355.5 1202.5,-355.5 1202.5,-336.5 1158.5,-336.5"/>
<text text-anchor="middle" x="1180.5" y="-343.5" font-family="Helvetica,sans-Serif" font-size="10.00" fill="#000000">string</text>
</g>
<!-- Node34&#45;&gt;Node35 -->
<g id="edge48" class="edge">
<title>Node34&#45;&gt;Node35</title>
<path fill="none" stroke="#191970" d="M1123.5189,-392.2455C1133.7098,-383.9746 1148.5362,-371.9416 1160.5107,-362.2232"/>
<polygon fill="#191970" stroke="#191970" points="1163.0598,-364.662 1168.6188,-355.6427 1158.6486,-359.2268 1163.0598,-364.662"/>
</g>
<!-- Node36 -->
<g id="node37" class="node">
<title>Node36</title>
<polygon fill="#ffffff" stroke="#bfbfbf" points="1046.5,-336.5 1046.5,-355.5 1102.5,-355.5 1102.5,-336.5 1046.5,-336.5"/>
<text text-anchor="middle" x="1074.5" y="-343.5" font-family="Helvetica,sans-Serif" font-size="10.00" fill="#000000">sstream</text>
</g>
<!-- Node34&#45;&gt;Node36 -->
<g id="edge49" class="edge">
<title>Node34&#45;&gt;Node36</title>
<path fill="none" stroke="#191970" d="M1105.0551,-392.2455C1099.9618,-384.5367 1092.7092,-373.5598 1086.548,-364.2348"/>
<polygon fill="#191970" stroke="#191970" points="1089.3038,-362.0566 1080.8711,-355.6427 1083.4635,-365.9155 1089.3038,-362.0566"/>
</g>
<!-- Node37&#45;&gt;Node13 -->
<g id="edge63" class="edge">
<title>Node37&#45;&gt;Node13</title>
<path fill="none" stroke="#191970" d="M774.952,-336.4509C856.9966,-316.0762 1049.0616,-268.3794 1139.191,-245.9969"/>
<polygon fill="#191970" stroke="#191970" points="1140.2837,-249.3319 1149.1453,-243.5249 1138.5965,-242.5383 1140.2837,-249.3319"/>
</g>
<!-- Node37&#45;&gt;Node16 -->
<g id="edge56" class="edge">
<title>Node37&#45;&gt;Node16</title>
<path fill="none" stroke="#191970" d="M718.4389,-336.365C705.2778,-328.3831 688.1299,-315.8039 678.5,-300 659.0187,-268.0287 654.9183,-223.3808 654.2998,-197.9074"/>
<polygon fill="#191970" stroke="#191970" points="657.7979,-197.6387 654.2179,-187.6671 650.7981,-197.6948 657.7979,-197.6387"/>
</g>
<!-- Node37&#45;&gt;Node18 -->
<g id="edge61" class="edge">
<title>Node37&#45;&gt;Node18</title>
<path fill="none" stroke="#191970" d="M784.5649,-338.7017C807.7027,-332.5067 833.4209,-321.0748 847.5,-300 852.4378,-292.6087 850.2742,-288.4449 847.5,-280 819.7218,-195.4403 678.0895,-177.3647 738.5,-112 755.7618,-93.3225 1103.2424,-75.699 1253.3771,-68.9243"/>
<polygon fill="#191970" stroke="#191970" points="1253.5739,-72.4191 1263.4071,-68.4746 1253.2603,-65.4261 1253.5739,-72.4191"/>
</g>
<!-- Node37&#45;&gt;Node20 -->
<g id="edge60" class="edge">
<title>Node37&#45;&gt;Node20</title>
<path fill="none" stroke="#191970" d="M727.501,-336.3513C716.0363,-322.8459 699.11,-297.9489 711.5,-280 736.9549,-243.1245 858.8704,-207.8337 929.5272,-190.0208"/>
<polygon fill="#191970" stroke="#191970" points="930.7048,-193.3345 939.5624,-187.5214 929.0129,-186.542 930.7048,-193.3345"/>
</g>
<!-- Node37&#45;&gt;Node25 -->
<g id="edge62" class="edge">
<title>Node37&#45;&gt;Node25</title>
<path fill="none" stroke="#191970" d="M688.1997,-341.9633C606.4797,-334.6671 448.0601,-318.3295 430.5,-300 389.1938,-256.8839 399.1858,-178.2287 406.7436,-141.6621"/>
<polygon fill="#191970" stroke="#191970" points="410.1933,-142.2728 408.9515,-131.751 403.3608,-140.7507 410.1933,-142.2728"/>
</g>
<!-- Node37&#45;&gt;Node28 -->
<g id="edge64" class="edge">
<title>Node37&#45;&gt;Node28</title>
<path fill="none" stroke="#191970" d="M688.4684,-339.7208C622.745,-331.0744 501.1183,-314.8791 397.5,-300 396.0302,-299.7889 394.5422,-299.574 393.0416,-299.356"/>
<polygon fill="#191970" stroke="#191970" points="393.4137,-295.8732 383.0113,-297.8836 392.3969,-302.799 393.4137,-295.8732"/>
</g>
<!-- Node38 -->
<g id="node39" class="node">
<title>Node38</title>
<polygon fill="#ffffff" stroke="#bfbfbf" points="720.5,-280.5 720.5,-299.5 838.5,-299.5 838.5,-280.5 720.5,-280.5"/>
<text text-anchor="middle" x="779.5" y="-287.5" font-family="Helvetica,sans-Serif" font-size="10.00" fill="#000000">libxml/xmlmemory.h</text>
</g>
<!-- Node37&#45;&gt;Node38 -->
<g id="edge57" class="edge">
<title>Node37&#45;&gt;Node38</title>
<path fill="none" stroke="#191970" d="M743.99,-336.2455C750.0326,-328.3761 758.6903,-317.101 765.9441,-307.6542"/>
<polygon fill="#191970" stroke="#191970" points="768.7815,-309.7058 772.0958,-299.6427 763.2295,-305.4426 768.7815,-309.7058"/>
</g>
<!-- Node39 -->
<g id="node40" class="node">
<title>Node39</title>
<polygon fill="#ffffff" stroke="#bfbfbf" points="440,-280.5 440,-299.5 529,-299.5 529,-280.5 440,-280.5"/>
<text text-anchor="middle" x="484.5" y="-287.5" font-family="Helvetica,sans-Serif" font-size="10.00" fill="#000000">libxml/parser.h</text>
</g>
<!-- Node37&#45;&gt;Node39 -->
<g id="edge58" class="edge">
<title>Node37&#45;&gt;Node39</title>
<path fill="none" stroke="#191970" d="M693.466,-336.4369C650.2475,-326.8328 583.5859,-312.0191 537.2182,-301.7152"/>
<polygon fill="#191970" stroke="#191970" points="537.8777,-298.2764 527.3565,-299.5237 536.3591,-305.1097 537.8777,-298.2764"/>
</g>
<!-- Node40 -->
<g id="node41" class="node">
<title>Node40</title>
<polygon fill="#ffffff" stroke="#bfbfbf" points="547,-280.5 547,-299.5 626,-299.5 626,-280.5 547,-280.5"/>
<text text-anchor="middle" x="586.5" y="-287.5" font-family="Helvetica,sans-Serif" font-size="10.00" fill="#000000">libxml/tree.h</text>
</g>
<!-- Node37&#45;&gt;Node40 -->
<g id="edge59" class="edge">
<title>Node37&#45;&gt;Node40</title>
<path fill="none" stroke="#191970" d="M710.7141,-336.3733C686.0953,-327.1822 648.81,-313.2624 621.5125,-303.0713"/>
<polygon fill="#191970" stroke="#191970" points="622.542,-299.7198 611.9494,-299.5011 620.0937,-306.2777 622.542,-299.7198"/>
</g>
<!-- Node37&#45;&gt;Node41 -->
<g id="edge65" class="edge">
<title>Node37&#45;&gt;Node41</title>
<path fill="none" stroke="#191970" d="M784.6096,-338.679C849.0841,-328.8676 963.8544,-311.4026 1036.9665,-300.2768"/>
<polygon fill="#191970" stroke="#191970" points="1037.6372,-303.7152 1046.9968,-298.7505 1036.5841,-296.7948 1037.6372,-303.7152"/>
</g>
<!-- Node42&#45;&gt;Node13 -->
<g id="edge67" class="edge">
<title>Node42&#45;&gt;Node13</title>
<path fill="none" stroke="#191970" d="M986.796,-392.4978C990.4163,-369.6587 1002.7561,-311.2637 1037.5,-280 1051.6586,-267.2596 1095.1134,-254.7111 1131.6302,-245.947"/>
<polygon fill="#191970" stroke="#191970" points="1132.7808,-249.2721 1141.7157,-243.5784 1131.1804,-242.4575 1132.7808,-249.2721"/>
</g>
<!-- Node42&#45;&gt;Node37 -->
<g id="edge68" class="edge">
<title>Node42&#45;&gt;Node37</title>
<path fill="none" stroke="#191970" d="M942.9783,-392.4369C900.3639,-382.8529 834.6824,-368.0812 788.879,-357.78"/>
<polygon fill="#191970" stroke="#191970" points="789.3706,-354.3032 778.8463,-355.5237 787.8346,-361.1326 789.3706,-354.3032"/>
</g>
<!-- Node44 -->
<g id="node45" class="node">
<title>Node44</title>
<polygon fill="#ffffff" stroke="#bfbfbf" points="1259,-336.5 1259,-355.5 1306,-355.5 1306,-336.5 1259,-336.5"/>
<text text-anchor="middle" x="1282.5" y="-343.5" font-family="Helvetica,sans-Serif" font-size="10.00" fill="#000000">lo/lo.h</text>
</g>
<!-- Node43&#45;&gt;Node44 -->
<g id="edge71" class="edge">
<title>Node43&#45;&gt;Node44</title>
<path fill="none" stroke="#191970" d="M1267.6354,-392.2455C1270.01,-384.8579 1273.3493,-374.4689 1276.2615,-365.4087"/>
<polygon fill="#191970" stroke="#191970" points="1279.6725,-366.234 1279.4006,-355.6427 1273.0083,-364.0919 1279.6725,-366.234"/>
</g>
</g>
</svg>
