<?xml version="1.0" encoding="UTF-8" standalone="no"?>
<!DOCTYPE svg PUBLIC "-//W3C//DTD SVG 1.1//EN"
 "http://www.w3.org/Graphics/SVG/1.1/DTD/svg11.dtd">
<!-- Generated by graphviz version 2.40.1 (20161225.0304)
 -->
<!-- Title: src/fweelin_sdlio.h Pages: 1 -->
<svg width="1816pt" height="207pt"
 viewBox="0.00 0.00 1815.50 207.00" xmlns="http://www.w3.org/2000/svg" xmlns:xlink="http://www.w3.org/1999/xlink">
<g id="graph0" class="graph" transform="scale(1 1) rotate(0) translate(4 203)">
<title>src/fweelin_sdlio.h</title>
<polygon fill="#ffffff" stroke="transparent" points="-4,4 -4,-203 1811.5,-203 1811.5,4 -4,4"/>
<!-- Node16 -->
<g id="node1" class="node">
<title>Node16</title>
<polygon fill="#bfbfbf" stroke="#000000" points="419,-179.5 419,-198.5 526,-198.5 526,-179.5 419,-179.5"/>
<text text-anchor="middle" x="472.5" y="-186.5" font-family="Helvetica,sans-Serif" font-size="10.00" fill="#000000">src/fweelin_sdlio.h</text>
</g>
<!-- Node17 -->
<g id="node2" class="node">
<title>Node17</title>
<g id="a_node2"><a xlink:href="fweelin_8cc.html" target="_top" xlink:title="src/fweelin.cc">
<polygon fill="#ffffff" stroke="#000000" points="0,-.5 0,-19.5 83,-19.5 83,-.5 0,-.5"/>
<text text-anchor="middle" x="41.5" y="-7.5" font-family="Helvetica,sans-Serif" font-size="10.00" fill="#000000">src/fweelin.cc</text>
</a>
</g>
</g>
<!-- Node16&#45;&gt;Node17 -->
<g id="edge1" class="edge">
<title>Node16&#45;&gt;Node17</title>
<path fill="none" stroke="#191970" d="M408.6379,-180.9266C306.3947,-166.7514 112.4622,-134.3301 63.5,-87 44.7073,-68.8338 41.6517,-35.8226 41.3543,-19.5671"/>
<polygon fill="#191970" stroke="#191970" points="408.4558,-184.4342 418.838,-182.3223 409.4049,-177.4988 408.4558,-184.4342"/>
</g>
<!-- Node18 -->
<g id="node3" class="node">
<title>Node18</title>
<g id="a_node3"><a xlink:href="fweelin__core_8h.html" target="_top" xlink:title="src/fweelin_core.h">
<polygon fill="#ffffff" stroke="#000000" points="698,-123.5 698,-142.5 803,-142.5 803,-123.5 698,-123.5"/>
<text text-anchor="middle" x="750.5" y="-130.5" font-family="Helvetica,sans-Serif" font-size="10.00" fill="#000000">src/fweelin_core.h</text>
</a>
</g>
</g>
<!-- Node16&#45;&gt;Node18 -->
<g id="edge2" class="edge">
<title>Node16&#45;&gt;Node18</title>
<path fill="none" stroke="#191970" d="M529.9041,-177.4366C581.1547,-167.1127 655.3158,-152.1738 703.2218,-142.5237"/>
<polygon fill="#191970" stroke="#191970" points="529.0859,-174.031 519.974,-179.4369 530.4683,-180.8932 529.0859,-174.031"/>
</g>
<!-- Node24 -->
<g id="node9" class="node">
<title>Node24</title>
<g id="a_node9"><a xlink:href="fweelin__config_8cc.html" target="_top" xlink:title="src/fweelin_config.cc">
<polygon fill="#ffffff" stroke="#000000" points="394.5,-.5 394.5,-19.5 512.5,-19.5 512.5,-.5 394.5,-.5"/>
<text text-anchor="middle" x="453.5" y="-7.5" font-family="Helvetica,sans-Serif" font-size="10.00" fill="#000000">src/fweelin_config.cc</text>
</a>
</g>
</g>
<!-- Node16&#45;&gt;Node24 -->
<g id="edge27" class="edge">
<title>Node16&#45;&gt;Node24</title>
<path fill="none" stroke="#191970" d="M419.4839,-176.6929C374.2348,-163.0803 311.953,-136.2405 282.5,-87 275.4275,-75.176 274.118,-66.9348 282.5,-56 290.1916,-45.9658 358.6054,-29.8334 406.5279,-19.5832"/>
<polygon fill="#191970" stroke="#191970" points="418.5713,-180.0723 429.1495,-179.4794 420.5104,-173.3462 418.5713,-180.0723"/>
</g>
<!-- Node33 -->
<g id="node18" class="node">
<title>Node33</title>
<g id="a_node18"><a xlink:href="fweelin__sdlio_8cc.html" target="_top" xlink:title="src/fweelin_sdlio.cc">
<polygon fill="#ffffff" stroke="#000000" points="1695.5,-62 1695.5,-81 1807.5,-81 1807.5,-62 1695.5,-62"/>
<text text-anchor="middle" x="1751.5" y="-69" font-family="Helvetica,sans-Serif" font-size="10.00" fill="#000000">src/fweelin_sdlio.cc</text>
</a>
</g>
</g>
<!-- Node16&#45;&gt;Node33 -->
<g id="edge28" class="edge">
<title>Node16&#45;&gt;Node33</title>
<path fill="none" stroke="#191970" d="M536.1794,-186.9386C717.1182,-180.3749 1249.3819,-156.1639 1685.5,-87 1695.1486,-85.4698 1705.4784,-83.3026 1715.0336,-81.0721"/>
<polygon fill="#191970" stroke="#191970" points="535.9108,-183.4459 526.0423,-187.3011 536.161,-190.4414 535.9108,-183.4459"/>
</g>
<!-- Node18&#45;&gt;Node17 -->
<g id="edge4" class="edge">
<title>Node18&#45;&gt;Node17</title>
<path fill="none" stroke="#191970" d="M687.6943,-131.542C534.2877,-127.5612 149.3086,-114.8887 98.5,-87 70.7975,-71.7942 52.8179,-36.7446 45.3885,-19.6829"/>
<polygon fill="#191970" stroke="#191970" points="687.809,-135.046 697.8952,-131.8027 687.9879,-128.0483 687.809,-135.046"/>
</g>
<!-- Node19 -->
<g id="node4" class="node">
<title>Node19</title>
<g id="a_node4"><a xlink:href="FweelinMac_8mm.html" target="_top" xlink:title="MacOSX/FweelinMac.mm">
<polygon fill="#ffffff" stroke="#000000" points="292,-62 292,-81 431,-81 431,-62 292,-62"/>
<text text-anchor="middle" x="361.5" y="-69" font-family="Helvetica,sans-Serif" font-size="10.00" fill="#000000">MacOSX/FweelinMac.mm</text>
</a>
</g>
</g>
<!-- Node18&#45;&gt;Node19 -->
<g id="edge3" class="edge">
<title>Node18&#45;&gt;Node19</title>
<path fill="none" stroke="#191970" d="M687.8207,-124.1595C626.0947,-115.3091 529.1723,-101.0256 445.5,-87 434.5309,-85.1613 422.7792,-83.0696 411.645,-81.0309"/>
<polygon fill="#191970" stroke="#191970" points="687.3991,-127.6348 697.794,-125.5861 688.3904,-120.7053 687.3991,-127.6348"/>
</g>
<!-- Node20 -->
<g id="node5" class="node">
<title>Node20</title>
<g id="a_node5"><a xlink:href="fweelin__amixer_8h.html" target="_top" xlink:title="src/fweelin_amixer.h">
<polygon fill="#ffffff" stroke="#000000" points="487.5,-62 487.5,-81 605.5,-81 605.5,-62 487.5,-62"/>
<text text-anchor="middle" x="546.5" y="-69" font-family="Helvetica,sans-Serif" font-size="10.00" fill="#000000">src/fweelin_amixer.h</text>
</a>
</g>
</g>
<!-- Node18&#45;&gt;Node20 -->
<g id="edge5" class="edge">
<title>Node18&#45;&gt;Node20</title>
<path fill="none" stroke="#191970" d="M703.9059,-120.6229C663.4078,-108.9459 606.3241,-91.6877 573.1019,-81.0419"/>
<polygon fill="#191970" stroke="#191970" points="702.9852,-123.9999 713.5625,-123.3906 704.9139,-117.2708 702.9852,-123.9999"/>
</g>
<!-- Node22 -->
<g id="node7" class="node">
<title>Node22</title>
<g id="a_node7"><a xlink:href="fweelin__core__dsp_8h.html" target="_top" xlink:title="src/fweelin_core_dsp.h">
<polygon fill="#ffffff" stroke="#000000" points="107.5,-62 107.5,-81 235.5,-81 235.5,-62 107.5,-62"/>
<text text-anchor="middle" x="171.5" y="-69" font-family="Helvetica,sans-Serif" font-size="10.00" fill="#000000">src/fweelin_core_dsp.h</text>
</a>
</g>
</g>
<!-- Node18&#45;&gt;Node22 -->
<g id="edge8" class="edge">
<title>Node18&#45;&gt;Node22</title>
<path fill="none" stroke="#191970" d="M687.7184,-128.1486C596.2396,-120.4749 421.4273,-104.5908 273.5,-87 258.5257,-85.2193 242.4449,-83.0963 227.5497,-81.0013"/>
<polygon fill="#191970" stroke="#191970" points="687.6612,-131.6559 697.9175,-128.9989 688.2429,-124.6801 687.6612,-131.6559"/>
</g>
<!-- Node18&#45;&gt;Node24 -->
<g id="edge16" class="edge">
<title>Node18&#45;&gt;Node24</title>
<path fill="none" stroke="#191970" d="M687.8514,-129.8107C617.478,-124.9818 509.0786,-113.4002 478.5,-87 458.4994,-69.7324 454.392,-36.3 453.6211,-19.7573"/>
<polygon fill="#191970" stroke="#191970" points="687.7363,-133.3106 697.9447,-130.4751 688.1962,-126.3257 687.7363,-133.3106"/>
</g>
<!-- Node26 -->
<g id="node11" class="node">
<title>Node26</title>
<g id="a_node11"><a xlink:href="fweelin__block_8cc.html" target="_top" xlink:title="src/fweelin_block.cc">
<polygon fill="#ffffff" stroke="#000000" points="624,-62 624,-81 739,-81 739,-62 624,-62"/>
<text text-anchor="middle" x="681.5" y="-69" font-family="Helvetica,sans-Serif" font-size="10.00" fill="#000000">src/fweelin_block.cc</text>
</a>
</g>
</g>
<!-- Node18&#45;&gt;Node26 -->
<g id="edge14" class="edge">
<title>Node18&#45;&gt;Node26</title>
<path fill="none" stroke="#191970" d="M732.0419,-116.5482C719.3992,-105.2798 703.0594,-90.716 692.4333,-81.2449"/>
<polygon fill="#191970" stroke="#191970" points="729.9248,-119.3497 739.7188,-123.3906 734.5824,-114.1241 729.9248,-119.3497"/>
</g>
<!-- Node27 -->
<g id="node12" class="node">
<title>Node27</title>
<g id="a_node12"><a xlink:href="fweelin__browser_8cc.html" target="_top" xlink:title="src/fweelin_browser.cc">
<polygon fill="#ffffff" stroke="#000000" points="757,-62 757,-81 884,-81 884,-62 757,-62"/>
<text text-anchor="middle" x="820.5" y="-69" font-family="Helvetica,sans-Serif" font-size="10.00" fill="#000000">src/fweelin_browser.cc</text>
</a>
</g>
</g>
<!-- Node18&#45;&gt;Node27 -->
<g id="edge15" class="edge">
<title>Node18&#45;&gt;Node27</title>
<path fill="none" stroke="#191970" d="M769.2257,-116.5482C782.0515,-105.2798 798.6281,-90.716 809.4083,-81.2449"/>
<polygon fill="#191970" stroke="#191970" points="766.6399,-114.161 761.4375,-123.3906 771.2601,-119.4197 766.6399,-114.161"/>
</g>
<!-- Node28 -->
<g id="node13" class="node">
<title>Node28</title>
<g id="a_node13"><a xlink:href="fweelin__core_8cc.html" target="_top" xlink:title="src/fweelin_core.cc">
<polygon fill="#ffffff" stroke="#000000" points="873.5,-.5 873.5,-19.5 983.5,-19.5 983.5,-.5 873.5,-.5"/>
<text text-anchor="middle" x="928.5" y="-7.5" font-family="Helvetica,sans-Serif" font-size="10.00" fill="#000000">src/fweelin_core.cc</text>
</a>
</g>
</g>
<!-- Node18&#45;&gt;Node28 -->
<g id="edge17" class="edge">
<title>Node18&#45;&gt;Node28</title>
<path fill="none" stroke="#191970" d="M812.9801,-124.2147C840.0136,-117.7268 870.4424,-106.4778 892.5,-87 913.2957,-68.6365 922.9627,-35.7178 926.6311,-19.5254"/>
<polygon fill="#191970" stroke="#191970" points="812.1945,-120.8038 803.1958,-126.396 813.7178,-127.6361 812.1945,-120.8038"/>
</g>
<!-- Node29 -->
<g id="node14" class="node">
<title>Node29</title>
<g id="a_node14"><a xlink:href="fweelin__looplibrary_8h.html" target="_top" xlink:title="src/fweelin_looplibrary.h">
<polygon fill="#ffffff" stroke="#000000" points="941,-62 941,-81 1076,-81 1076,-62 941,-62"/>
<text text-anchor="middle" x="1008.5" y="-69" font-family="Helvetica,sans-Serif" font-size="10.00" fill="#000000">src/fweelin_looplibrary.h</text>
</a>
</g>
</g>
<!-- Node18&#45;&gt;Node29 -->
<g id="edge18" class="edge">
<title>Node18&#45;&gt;Node29</title>
<path fill="none" stroke="#191970" d="M800.2779,-121.1343C849.2407,-109.463 923.0512,-91.8686 968.3767,-81.0643"/>
<polygon fill="#191970" stroke="#191970" points="799.4453,-117.7347 790.5294,-123.4581 801.0685,-124.5439 799.4453,-117.7347"/>
</g>
<!-- Node30 -->
<g id="node15" class="node">
<title>Node30</title>
<g id="a_node15"><a xlink:href="fweelin__osc_8cc.html" target="_top" xlink:title="src/fweelin_osc.cc">
<polygon fill="#ffffff" stroke="#000000" points="1035,-.5 1035,-19.5 1140,-19.5 1140,-.5 1035,-.5"/>
<text text-anchor="middle" x="1087.5" y="-7.5" font-family="Helvetica,sans-Serif" font-size="10.00" fill="#000000">src/fweelin_osc.cc</text>
</a>
</g>
</g>
<!-- Node18&#45;&gt;Node30 -->
<g id="edge22" class="edge">
<title>Node18&#45;&gt;Node30</title>
<path fill="none" stroke="#191970" d="M813.3476,-128.6569C905.0412,-121.6851 1066.5953,-106.7498 1084.5,-87 1101.3029,-68.4656 1095.1586,-35.9228 1090.6257,-19.7266"/>
<polygon fill="#191970" stroke="#191970" points="813.0516,-125.1692 803.3414,-129.4073 813.5751,-132.1496 813.0516,-125.1692"/>
</g>
<!-- Node31 -->
<g id="node16" class="node">
<title>Node31</title>
<g id="a_node16"><a xlink:href="fweelin__midiio_8cc.html" target="_top" xlink:title="src/fweelin_midiio.cc">
<polygon fill="#ffffff" stroke="#000000" points="1133,-62 1133,-81 1252,-81 1252,-62 1133,-62"/>
<text text-anchor="middle" x="1192.5" y="-69" font-family="Helvetica,sans-Serif" font-size="10.00" fill="#000000">src/fweelin_midiio.cc</text>
</a>
</g>
</g>
<!-- Node18&#45;&gt;Node31 -->
<g id="edge21" class="edge">
<title>Node18&#45;&gt;Node31</title>
<path fill="none" stroke="#191970" d="M813.1132,-126.7571C886.5251,-119.0716 1011.7483,-104.8211 1118.5,-87 1128.728,-85.2925 1139.6905,-83.1628 1149.96,-81.0341"/>
<polygon fill="#191970" stroke="#191970" points="812.69,-123.2821 803.1056,-127.7977 813.414,-130.2446 812.69,-123.2821"/>
</g>
<!-- Node32 -->
<g id="node17" class="node">
<title>Node32</title>
<g id="a_node17"><a xlink:href="fweelin__paramset_8cc.html" target="_top" xlink:title="src/fweelin_paramset.cc">
<polygon fill="#ffffff" stroke="#000000" points="1270,-62 1270,-81 1405,-81 1405,-62 1270,-62"/>
<text text-anchor="middle" x="1337.5" y="-69" font-family="Helvetica,sans-Serif" font-size="10.00" fill="#000000">src/fweelin_paramset.cc</text>
</a>
</g>
</g>
<!-- Node18&#45;&gt;Node32 -->
<g id="edge23" class="edge">
<title>Node18&#45;&gt;Node32</title>
<path fill="none" stroke="#191970" d="M813.3872,-129.5344C909.9223,-123.7177 1100.2811,-110.2811 1260.5,-87 1271.5655,-85.3921 1283.4423,-83.224 1294.4755,-81.0194"/>
<polygon fill="#191970" stroke="#191970" points="812.9888,-126.0519 803.2145,-130.14 813.4048,-133.0395 812.9888,-126.0519"/>
</g>
<!-- Node18&#45;&gt;Node33 -->
<g id="edge24" class="edge">
<title>Node18&#45;&gt;Node33</title>
<path fill="none" stroke="#191970" d="M813.4087,-131.3951C994.7552,-126.5319 1516.3819,-110.8175 1685.5,-87 1695.5234,-85.5884 1706.2606,-83.376 1716.101,-81.0601"/>
<polygon fill="#191970" stroke="#191970" points="813.1405,-127.9009 803.2373,-131.666 813.3269,-134.8984 813.1405,-127.9009"/>
</g>
<!-- Node34 -->
<g id="node19" class="node">
<title>Node34</title>
<g id="a_node19"><a xlink:href="fweelin__videoio_8cc.html" target="_top" xlink:title="src/fweelin_videoio.cc">
<polygon fill="#ffffff" stroke="#000000" points="1423,-62 1423,-81 1548,-81 1548,-62 1423,-62"/>
<text text-anchor="middle" x="1485.5" y="-69" font-family="Helvetica,sans-Serif" font-size="10.00" fill="#000000">src/fweelin_videoio.cc</text>
</a>
</g>
</g>
<!-- Node18&#45;&gt;Node34 -->
<g id="edge25" class="edge">
<title>Node18&#45;&gt;Node34</title>
<path fill="none" stroke="#191970" d="M813.495,-131.6212C931.6753,-128.3727 1194.4834,-118.0108 1413.5,-87 1424.1345,-85.4943 1435.542,-83.3078 1446.0704,-81.0495"/>
<polygon fill="#191970" stroke="#191970" points="813.098,-128.1305 803.195,-131.8963 813.2849,-135.128 813.098,-128.1305"/>
</g>
<!-- Node35 -->
<g id="node20" class="node">
<title>Node35</title>
<g id="a_node20"><a xlink:href="fweelin__videoio__displays_8cc.html" target="_top" xlink:title="src/fweelin_videoio\l_displays.cc">
<polygon fill="#ffffff" stroke="#000000" points="1566,-56.5 1566,-86.5 1677,-86.5 1677,-56.5 1566,-56.5"/>
<text text-anchor="start" x="1574" y="-74.5" font-family="Helvetica,sans-Serif" font-size="10.00" fill="#000000">src/fweelin_videoio</text>
<text text-anchor="middle" x="1621.5" y="-63.5" font-family="Helvetica,sans-Serif" font-size="10.00" fill="#000000">_displays.cc</text>
</a>
</g>
</g>
<!-- Node18&#45;&gt;Node35 -->
<g id="edge26" class="edge">
<title>Node18&#45;&gt;Node35</title>
<path fill="none" stroke="#191970" d="M813.5601,-130.8466C977.3466,-125.0218 1413.4246,-107.9729 1556.5,-87 1559.5992,-86.5457 1562.7677,-86.0148 1565.9564,-85.4285"/>
<polygon fill="#191970" stroke="#191970" points="813.0416,-127.3626 803.1716,-131.214 813.289,-134.3583 813.0416,-127.3626"/>
</g>
<!-- Node20&#45;&gt;Node18 -->
<g id="edge6" class="edge">
<title>Node20&#45;&gt;Node18</title>
<path fill="none" stroke="#191970" d="M592.8379,-83.8033C633.2659,-95.4566 690.3647,-112.7169 723.6875,-123.3906"/>
<polygon fill="#191970" stroke="#191970" points="593.7777,-80.4317 583.2005,-81.0419 591.8496,-87.161 593.7777,-80.4317"/>
</g>
<!-- Node21 -->
<g id="node6" class="node">
<title>Node21</title>
<g id="a_node6"><a xlink:href="fweelin__amixer_8cc.html" target="_top" xlink:title="src/fweelin_amixer.cc">
<polygon fill="#ffffff" stroke="#000000" points="530.5,-.5 530.5,-19.5 652.5,-19.5 652.5,-.5 530.5,-.5"/>
<text text-anchor="middle" x="591.5" y="-7.5" font-family="Helvetica,sans-Serif" font-size="10.00" fill="#000000">src/fweelin_amixer.cc</text>
</a>
</g>
</g>
<!-- Node20&#45;&gt;Node21 -->
<g id="edge7" class="edge">
<title>Node20&#45;&gt;Node21</title>
<path fill="none" stroke="#191970" d="M559.4904,-53.7465C567.5896,-42.6775 577.7035,-28.8552 584.3696,-19.7449"/>
<polygon fill="#191970" stroke="#191970" points="556.6118,-51.7535 553.5313,-61.8906 562.261,-55.8871 556.6118,-51.7535"/>
</g>
<!-- Node22&#45;&gt;Node17 -->
<g id="edge10" class="edge">
<title>Node22&#45;&gt;Node17</title>
<path fill="none" stroke="#191970" d="M141.9819,-57.5357C117.4423,-45.9265 83.1742,-29.7151 61.6699,-19.5419"/>
<polygon fill="#191970" stroke="#191970" points="140.6512,-60.778 151.1875,-61.8906 143.6447,-54.4504 140.6512,-60.778"/>
</g>
<!-- Node22&#45;&gt;Node18 -->
<g id="edge9" class="edge">
<title>Node22&#45;&gt;Node18</title>
<path fill="none" stroke="#191970" d="M245.5277,-81.0662C260.7771,-83.1401 276.6804,-85.2377 291.5,-87 438.6427,-104.4975 612.386,-120.3064 697.8411,-128.0258"/>
<polygon fill="#191970" stroke="#191970" points="246.0012,-77.5985 235.619,-79.7106 245.0523,-84.5339 246.0012,-77.5985"/>
</g>
<!-- Node23 -->
<g id="node8" class="node">
<title>Node23</title>
<g id="a_node8"><a xlink:href="fweelin__audioio_8cc.html" target="_top" xlink:title="src/fweelin_audioio.cc">
<polygon fill="#ffffff" stroke="#000000" points="101,-.5 101,-19.5 226,-19.5 226,-.5 101,-.5"/>
<text text-anchor="middle" x="163.5" y="-7.5" font-family="Helvetica,sans-Serif" font-size="10.00" fill="#000000">src/fweelin_audioio.cc</text>
</a>
</g>
</g>
<!-- Node22&#45;&gt;Node23 -->
<g id="edge11" class="edge">
<title>Node22&#45;&gt;Node23</title>
<path fill="none" stroke="#191970" d="M168.9304,-51.7462C167.5393,-41.0519 165.8823,-28.314 164.7676,-19.7449"/>
<polygon fill="#191970" stroke="#191970" points="165.4892,-52.4257 170.25,-61.8906 172.4307,-51.5227 165.4892,-52.4257"/>
</g>
<!-- Node22&#45;&gt;Node24 -->
<g id="edge12" class="edge">
<title>Node22&#45;&gt;Node24</title>
<path fill="none" stroke="#191970" d="M225.2394,-59.7802C278.7516,-48.11 359.8957,-30.4137 409.6443,-19.5643"/>
<polygon fill="#191970" stroke="#191970" points="224.2777,-56.4076 215.2531,-61.9581 225.7692,-63.2469 224.2777,-56.4076"/>
</g>
<!-- Node25 -->
<g id="node10" class="node">
<title>Node25</title>
<g id="a_node10"><a xlink:href="fweelin__core__dsp_8cc.html" target="_top" xlink:title="src/fweelin_core_dsp.cc">
<polygon fill="#ffffff" stroke="#000000" points="244.5,-.5 244.5,-19.5 376.5,-19.5 376.5,-.5 244.5,-.5"/>
<text text-anchor="middle" x="310.5" y="-7.5" font-family="Helvetica,sans-Serif" font-size="10.00" fill="#000000">src/fweelin_core_dsp.cc</text>
</a>
</g>
</g>
<!-- Node22&#45;&gt;Node25 -->
<g id="edge13" class="edge">
<title>Node22&#45;&gt;Node25</title>
<path fill="none" stroke="#191970" d="M202.3675,-57.8428C228.6506,-46.2139 265.7372,-29.8051 288.9338,-19.5419"/>
<polygon fill="#191970" stroke="#191970" points="200.9475,-54.6437 193.2188,-61.8906 203.7798,-61.0452 200.9475,-54.6437"/>
</g>
<!-- Node29&#45;&gt;Node28 -->
<g id="edge19" class="edge">
<title>Node29&#45;&gt;Node28</title>
<path fill="none" stroke="#191970" d="M987.881,-55.6491C973.0164,-44.222 953.443,-29.1749 940.9122,-19.5419"/>
<polygon fill="#191970" stroke="#191970" points="985.9387,-58.5707 996,-61.8906 990.2051,-53.021 985.9387,-58.5707"/>
</g>
<!-- Node29&#45;&gt;Node30 -->
<g id="edge20" class="edge">
<title>Node29&#45;&gt;Node30</title>
<path fill="none" stroke="#191970" d="M1028.8613,-55.6491C1043.54,-44.222 1062.8688,-29.1749 1075.2429,-19.5419"/>
<polygon fill="#191970" stroke="#191970" points="1026.5846,-52.9859 1020.8438,-61.8906 1030.8846,-58.5095 1026.5846,-52.9859"/>
</g>
</g>
</svg>
