<?xml version="1.0" encoding="UTF-8" standalone="no"?>
<!DOCTYPE svg PUBLIC "-//W3C//DTD SVG 1.1//EN"
 "http://www.w3.org/Graphics/SVG/1.1/DTD/svg11.dtd">
<!-- Generated by graphviz version 2.40.1 (20161225.0304)
 -->
<!-- Title: src/fweelin_amixer.cc Pages: 1 -->
<svg width="1499pt" height="588pt"
 viewBox="0.00 0.00 1499.00 588.00" xmlns="http://www.w3.org/2000/svg" xmlns:xlink="http://www.w3.org/1999/xlink">
<g id="graph0" class="graph" transform="scale(1 1) rotate(0) translate(4 584)">
<title>src/fweelin_amixer.cc</title>
<polygon fill="#ffffff" stroke="transparent" points="-4,4 -4,-584 1495,-584 1495,4 -4,4"/>
<!-- Node0 -->
<g id="node1" class="node">
<title>Node0</title>
<polygon fill="#bfbfbf" stroke="#000000" points="1100,-560.5 1100,-579.5 1222,-579.5 1222,-560.5 1100,-560.5"/>
<text text-anchor="middle" x="1161" y="-567.5" font-family="Helvetica,sans-Serif" font-size="10.00" fill="#000000">src/fweelin_amixer.cc</text>
</g>
<!-- Node1 -->
<g id="node2" class="node">
<title>Node1</title>
<g id="a_node2"><a xlink:href="fweelin__amixer_8h.html" target="_top" xlink:title="fweelin_amixer.h">
<polygon fill="#ffffff" stroke="#000000" points="884.5,-504.5 884.5,-523.5 985.5,-523.5 985.5,-504.5 884.5,-504.5"/>
<text text-anchor="middle" x="935" y="-511.5" font-family="Helvetica,sans-Serif" font-size="10.00" fill="#000000">fweelin_amixer.h</text>
</a>
</g>
</g>
<!-- Node0&#45;&gt;Node1 -->
<g id="edge1" class="edge">
<title>Node0&#45;&gt;Node1</title>
<path fill="none" stroke="#191970" d="M1122.406,-560.4369C1083.9716,-550.9133 1024.864,-536.2672 983.329,-525.9753"/>
<polygon fill="#191970" stroke="#191970" points="983.9831,-522.5316 973.4348,-523.5237 982.2994,-529.3261 983.9831,-522.5316"/>
</g>
<!-- Node6 -->
<g id="node7" class="node">
<title>Node6</title>
<polygon fill="#ffffff" stroke="#bfbfbf" points="1395,-336.5 1395,-355.5 1491,-355.5 1491,-336.5 1395,-336.5"/>
<text text-anchor="middle" x="1443" y="-343.5" font-family="Helvetica,sans-Serif" font-size="10.00" fill="#000000">alsa/asoundlib.h</text>
</g>
<!-- Node0&#45;&gt;Node6 -->
<g id="edge68" class="edge">
<title>Node0&#45;&gt;Node6</title>
<path fill="none" stroke="#191970" d="M1183.3201,-560.3543C1229.9198,-539.3009 1338.8686,-485.1915 1407,-412 1419.7379,-398.3161 1429.4917,-379.2834 1435.613,-365.171"/>
<polygon fill="#191970" stroke="#191970" points="1438.8544,-366.4913 1439.419,-355.9115 1432.38,-363.83 1438.8544,-366.4913"/>
</g>
<!-- Node2 -->
<g id="node3" class="node">
<title>Node2</title>
<polygon fill="#ffffff" stroke="#bfbfbf" points="655,-448.5 655,-467.5 705,-467.5 705,-448.5 655,-448.5"/>
<text text-anchor="middle" x="680" y="-455.5" font-family="Helvetica,sans-Serif" font-size="10.00" fill="#000000">stdio.h</text>
</g>
<!-- Node1&#45;&gt;Node2 -->
<g id="edge2" class="edge">
<title>Node1&#45;&gt;Node2</title>
<path fill="none" stroke="#191970" d="M884.2655,-504.6495C841.4954,-496.4938 778.4931,-483.8438 714.9727,-468.1032"/>
<polygon fill="#191970" stroke="#191970" points="715.7394,-464.6872 705.1889,-465.6548 714.0401,-471.4778 715.7394,-464.6872"/>
</g>
<!-- Node3 -->
<g id="node4" class="node">
<title>Node3</title>
<polygon fill="#ffffff" stroke="#bfbfbf" points="723.5,-448.5 723.5,-467.5 776.5,-467.5 776.5,-448.5 723.5,-448.5"/>
<text text-anchor="middle" x="750" y="-455.5" font-family="Helvetica,sans-Serif" font-size="10.00" fill="#000000">stdlib.h</text>
</g>
<!-- Node1&#45;&gt;Node3 -->
<g id="edge3" class="edge">
<title>Node1&#45;&gt;Node3</title>
<path fill="none" stroke="#191970" d="M903.1974,-504.3733C870.8035,-494.5676 820.6282,-479.3793 786.6009,-469.0792"/>
<polygon fill="#191970" stroke="#191970" points="787.1819,-465.5983 776.5967,-466.0509 785.1538,-472.2981 787.1819,-465.5983"/>
</g>
<!-- Node4 -->
<g id="node5" class="node">
<title>Node4</title>
<polygon fill="#ffffff" stroke="#bfbfbf" points="794.5,-448.5 794.5,-467.5 847.5,-467.5 847.5,-448.5 794.5,-448.5"/>
<text text-anchor="middle" x="821" y="-455.5" font-family="Helvetica,sans-Serif" font-size="10.00" fill="#000000">ctype.h</text>
</g>
<!-- Node1&#45;&gt;Node4 -->
<g id="edge4" class="edge">
<title>Node1&#45;&gt;Node4</title>
<path fill="none" stroke="#191970" d="M915.4027,-504.3733C897.2669,-495.4644 870.0865,-482.1127 849.5413,-472.0203"/>
<polygon fill="#191970" stroke="#191970" points="850.8603,-468.7688 840.3416,-467.5011 847.7739,-475.0517 850.8603,-468.7688"/>
</g>
<!-- Node5 -->
<g id="node6" class="node">
<title>Node5</title>
<polygon fill="#ffffff" stroke="#bfbfbf" points="865.5,-448.5 865.5,-467.5 916.5,-467.5 916.5,-448.5 865.5,-448.5"/>
<text text-anchor="middle" x="891" y="-455.5" font-family="Helvetica,sans-Serif" font-size="10.00" fill="#000000">math.h</text>
</g>
<!-- Node1&#45;&gt;Node5 -->
<g id="edge5" class="edge">
<title>Node1&#45;&gt;Node5</title>
<path fill="none" stroke="#191970" d="M927.3358,-504.2455C921.1527,-496.3761 912.2937,-485.101 904.8711,-475.6542"/>
<polygon fill="#191970" stroke="#191970" points="907.5068,-473.3435 898.5764,-467.6427 902.0025,-477.6683 907.5068,-473.3435"/>
</g>
<!-- Node1&#45;&gt;Node6 -->
<g id="edge6" class="edge">
<title>Node1&#45;&gt;Node6</title>
<path fill="none" stroke="#191970" d="M985.6137,-511.9367C1072.1319,-506.4238 1251.6373,-486.1945 1381,-412 1401.5541,-400.2114 1419.3964,-379.4268 1430.5956,-364.3251"/>
<polygon fill="#191970" stroke="#191970" points="1433.7254,-365.9637 1436.675,-355.7877 1428.0234,-361.9033 1433.7254,-365.9637"/>
</g>
<!-- Node7 -->
<g id="node8" class="node">
<title>Node7</title>
<g id="a_node8"><a xlink:href="fweelin__core_8h.html" target="_top" xlink:title="fweelin_core.h">
<polygon fill="#ffffff" stroke="#000000" points="935,-448.5 935,-467.5 1023,-467.5 1023,-448.5 935,-448.5"/>
<text text-anchor="middle" x="979" y="-455.5" font-family="Helvetica,sans-Serif" font-size="10.00" fill="#000000">fweelin_core.h</text>
</a>
</g>
</g>
<!-- Node1&#45;&gt;Node7 -->
<g id="edge7" class="edge">
<title>Node1&#45;&gt;Node7</title>
<path fill="none" stroke="#191970" d="M937.3974,-504.2455C942.1561,-496.2155 950.9168,-484.6394 959.3103,-475.0781"/>
<polygon fill="#191970" stroke="#191970" points="961.9642,-477.3633 966.1785,-467.6427 956.8221,-472.6136 961.9642,-477.3633"/>
</g>
<!-- Node7&#45;&gt;Node1 -->
<g id="edge9" class="edge">
<title>Node7&#45;&gt;Node1</title>
<path fill="none" stroke="#191970" d="M976.6688,-467.6427C971.9473,-475.6396 963.2036,-487.2085 954.8068,-496.7884"/>
<polygon fill="#191970" stroke="#191970" points="952.1366,-494.5211 947.9311,-504.2455 957.2829,-499.2662 952.1366,-494.5211"/>
</g>
<!-- Node8 -->
<g id="node9" class="node">
<title>Node8</title>
<polygon fill="#ffffff" stroke="#bfbfbf" points="617.5,-392.5 617.5,-411.5 696.5,-411.5 696.5,-392.5 617.5,-392.5"/>
<text text-anchor="middle" x="657" y="-399.5" font-family="Helvetica,sans-Serif" font-size="10.00" fill="#000000">nettle/md5.h</text>
</g>
<!-- Node7&#45;&gt;Node8 -->
<g id="edge8" class="edge">
<title>Node7&#45;&gt;Node8</title>
<path fill="none" stroke="#191970" d="M934.8092,-449.7388C931.4912,-449.1423 928.1935,-448.5569 925,-448 830.5403,-431.5271 804.0952,-430.1808 706.5158,-412.2258"/>
<polygon fill="#191970" stroke="#191970" points="706.9962,-408.7553 696.526,-410.3756 705.7214,-415.6382 706.9962,-408.7553"/>
</g>
<!-- Node9 -->
<g id="node10" class="node">
<title>Node9</title>
<g id="a_node10"><a xlink:href="fweelin__midiio_8h.html" target="_top" xlink:title="fweelin_midiio.h">
<polygon fill="#ffffff" stroke="#000000" points="1241,-392.5 1241,-411.5 1339,-411.5 1339,-392.5 1241,-392.5"/>
<text text-anchor="middle" x="1290" y="-399.5" font-family="Helvetica,sans-Serif" font-size="10.00" fill="#000000">fweelin_midiio.h</text>
</a>
</g>
</g>
<!-- Node7&#45;&gt;Node9 -->
<g id="edge10" class="edge">
<title>Node7&#45;&gt;Node9</title>
<path fill="none" stroke="#191970" d="M1023.2284,-450.036C1077.6033,-440.2451 1170.0974,-423.5902 1230.623,-412.6917"/>
<polygon fill="#191970" stroke="#191970" points="1231.5714,-416.0773 1240.7929,-410.8604 1230.3309,-409.1881 1231.5714,-416.0773"/>
</g>
<!-- Node10 -->
<g id="node11" class="node">
<title>Node10</title>
<g id="a_node11"><a xlink:href="fweelin__event_8h.html" target="_top" xlink:title="fweelin_event.h">
<polygon fill="#ffffff" stroke="#000000" points="1025.5,-224.5 1025.5,-243.5 1120.5,-243.5 1120.5,-224.5 1025.5,-224.5"/>
<text text-anchor="middle" x="1073" y="-231.5" font-family="Helvetica,sans-Serif" font-size="10.00" fill="#000000">fweelin_event.h</text>
</a>
</g>
</g>
<!-- Node7&#45;&gt;Node10 -->
<g id="edge50" class="edge">
<title>Node7&#45;&gt;Node10</title>
<path fill="none" stroke="#191970" d="M996.4336,-448.4781C1010.3462,-440.224 1029.6511,-427.2291 1043,-412 1061.6116,-390.767 1062.3945,-382.1679 1073,-356 1085.9654,-324.0093 1094.7503,-314.0359 1089,-280 1087.455,-270.8551 1084.2966,-261.1019 1081.191,-252.9405"/>
<polygon fill="#191970" stroke="#191970" points="1084.4127,-251.5713 1077.411,-243.6198 1077.9258,-254.2021 1084.4127,-251.5713"/>
</g>
<!-- Node17 -->
<g id="node18" class="node">
<title>Node17</title>
<g id="a_node18"><a xlink:href="fweelin__block_8h.html" target="_top" xlink:title="fweelin_block.h">
<polygon fill="#ffffff" stroke="#000000" points="831.5,-168.5 831.5,-187.5 924.5,-187.5 924.5,-168.5 831.5,-168.5"/>
<text text-anchor="middle" x="878" y="-175.5" font-family="Helvetica,sans-Serif" font-size="10.00" fill="#000000">fweelin_block.h</text>
</a>
</g>
</g>
<!-- Node7&#45;&gt;Node17 -->
<g id="edge49" class="edge">
<title>Node7&#45;&gt;Node17</title>
<path fill="none" stroke="#191970" d="M934.853,-449.4544C931.5249,-448.9237 928.2129,-448.4309 925,-448 734.9221,-422.5079 684.1311,-443.763 495,-412 395.4977,-395.2894 372.7504,-380.996 275,-356 178.0839,-331.2173 118.3073,-379.0464 57,-300 51.5523,-292.9761 51.1148,-286.6616 57,-280 107.6982,-222.6133 643.6356,-190.0553 821.2085,-180.7821"/>
<polygon fill="#191970" stroke="#191970" points="821.5813,-184.2676 831.3872,-180.2556 821.2197,-177.277 821.5813,-184.2676"/>
</g>
<!-- Node22 -->
<g id="node23" class="node">
<title>Node22</title>
<g id="a_node23"><a xlink:href="fweelin__audioio_8h.html" target="_top" xlink:title="fweelin_audioio.h">
<polygon fill="#ffffff" stroke="#000000" points="158.5,-112.5 158.5,-131.5 261.5,-131.5 261.5,-112.5 158.5,-112.5"/>
<text text-anchor="middle" x="210" y="-119.5" font-family="Helvetica,sans-Serif" font-size="10.00" fill="#000000">fweelin_audioio.h</text>
</a>
</g>
</g>
<!-- Node7&#45;&gt;Node22 -->
<g id="edge38" class="edge">
<title>Node7&#45;&gt;Node22</title>
<path fill="none" stroke="#191970" d="M934.8602,-449.3994C931.5305,-448.8814 928.2161,-448.4065 925,-448 822.4154,-435.0344 0,-449.4008 0,-346 0,-346 0,-346 0,-234 0,-166.1891 86.3037,-139.2926 148.2578,-128.7207"/>
<polygon fill="#191970" stroke="#191970" points="149.0387,-132.1403 158.3593,-127.1026 147.9315,-125.2284 149.0387,-132.1403"/>
</g>
<!-- Node25 -->
<g id="node26" class="node">
<title>Node25</title>
<g id="a_node26"><a xlink:href="fweelin__videoio_8h.html" target="_top" xlink:title="fweelin_videoio.h">
<polygon fill="#ffffff" stroke="#000000" points="693.5,-280.5 693.5,-299.5 796.5,-299.5 796.5,-280.5 693.5,-280.5"/>
<text text-anchor="middle" x="745" y="-287.5" font-family="Helvetica,sans-Serif" font-size="10.00" fill="#000000">fweelin_videoio.h</text>
</a>
</g>
</g>
<!-- Node7&#45;&gt;Node25 -->
<g id="edge30" class="edge">
<title>Node7&#45;&gt;Node25</title>
<path fill="none" stroke="#191970" d="M965.7487,-448.4862C927.1467,-420.772 814.5085,-339.9036 766.7785,-305.6358"/>
<polygon fill="#191970" stroke="#191970" points="768.5605,-302.6066 758.396,-299.6177 764.478,-308.2929 768.5605,-302.6066"/>
</g>
<!-- Node28 -->
<g id="node29" class="node">
<title>Node28</title>
<g id="a_node29"><a xlink:href="fweelin__sdlio_8h.html" target="_top" xlink:title="fweelin_sdlio.h">
<polygon fill="#ffffff" stroke="#000000" points="1139,-280.5 1139,-299.5 1229,-299.5 1229,-280.5 1139,-280.5"/>
<text text-anchor="middle" x="1184" y="-287.5" font-family="Helvetica,sans-Serif" font-size="10.00" fill="#000000">fweelin_sdlio.h</text>
</a>
</g>
</g>
<!-- Node7&#45;&gt;Node28 -->
<g id="edge35" class="edge">
<title>Node7&#45;&gt;Node28</title>
<path fill="none" stroke="#191970" d="M1012.915,-448.3875C1035.4189,-440.9008 1064.7875,-428.9162 1087,-412 1125.5594,-382.6347 1157.6467,-334.6371 1173.442,-308.456"/>
<polygon fill="#191970" stroke="#191970" points="1176.6144,-309.9664 1178.6775,-299.5744 1170.5841,-306.4117 1176.6144,-309.9664"/>
</g>
<!-- Node29 -->
<g id="node30" class="node">
<title>Node29</title>
<g id="a_node30"><a xlink:href="fweelin__rcu_8h.html" target="_top" xlink:title="fweelin_rcu.h">
<polygon fill="#ffffff" stroke="#000000" points="1307,-168.5 1307,-187.5 1389,-187.5 1389,-168.5 1307,-168.5"/>
<text text-anchor="middle" x="1348" y="-175.5" font-family="Helvetica,sans-Serif" font-size="10.00" fill="#000000">fweelin_rcu.h</text>
</a>
</g>
</g>
<!-- Node7&#45;&gt;Node29 -->
<g id="edge39" class="edge">
<title>Node7&#45;&gt;Node29</title>
<path fill="none" stroke="#191970" d="M1023.1488,-455.2074C1115.7309,-448.9668 1323.6778,-432.79 1348,-412 1371.2032,-392.1665 1367,-376.5246 1367,-346 1367,-346 1367,-346 1367,-290 1367,-257.2688 1359.0148,-219.9052 1353.3978,-197.6716"/>
<polygon fill="#191970" stroke="#191970" points="1356.7289,-196.5763 1350.8035,-187.7934 1349.9585,-198.3545 1356.7289,-196.5763"/>
</g>
<!-- Node31 -->
<g id="node32" class="node">
<title>Node31</title>
<g id="a_node32"><a xlink:href="fweelin__core__dsp_8h.html" target="_top" xlink:title="fweelin_core_dsp.h">
<polygon fill="#ffffff" stroke="#000000" points="924,-392.5 924,-411.5 1034,-411.5 1034,-392.5 924,-392.5"/>
<text text-anchor="middle" x="979" y="-399.5" font-family="Helvetica,sans-Serif" font-size="10.00" fill="#000000">fweelin_core_dsp.h</text>
</a>
</g>
</g>
<!-- Node7&#45;&gt;Node31 -->
<g id="edge43" class="edge">
<title>Node7&#45;&gt;Node31</title>
<path fill="none" stroke="#191970" d="M973.7332,-448.2455C972.3221,-440.9382 971.9179,-430.6944 972.5205,-421.7046"/>
<polygon fill="#191970" stroke="#191970" points="976.0111,-421.9945 973.7549,-411.6427 969.0632,-421.1421 976.0111,-421.9945"/>
</g>
<!-- Node34 -->
<g id="node35" class="node">
<title>Node34</title>
<g id="a_node35"><a xlink:href="fweelin__config_8h.html" target="_top" xlink:title="fweelin_config.h">
<polygon fill="#ffffff" stroke="#000000" points="541,-336.5 541,-355.5 637,-355.5 637,-336.5 541,-336.5"/>
<text text-anchor="middle" x="589" y="-343.5" font-family="Helvetica,sans-Serif" font-size="10.00" fill="#000000">fweelin_config.h</text>
</a>
</g>
</g>
<!-- Node7&#45;&gt;Node34 -->
<g id="edge51" class="edge">
<title>Node7&#45;&gt;Node34</title>
<path fill="none" stroke="#191970" d="M934.8379,-449.5614C931.5133,-449.006 928.2062,-448.4783 925,-448 854.8788,-437.5388 662.1434,-457.7702 608,-412 594.7935,-400.8359 590.4526,-381.1383 589.1707,-366.1594"/>
<polygon fill="#191970" stroke="#191970" points="592.6518,-365.6706 588.6906,-355.8442 585.6594,-365.9962 592.6518,-365.6706"/>
</g>
<!-- Node38 -->
<g id="node39" class="node">
<title>Node38</title>
<g id="a_node39"><a xlink:href="fweelin__fluidsynth_8h.html" target="_top" xlink:title="fweelin_fluidsynth.h">
<polygon fill="#ffffff" stroke="#000000" points="66.5,-280.5 66.5,-299.5 181.5,-299.5 181.5,-280.5 66.5,-280.5"/>
<text text-anchor="middle" x="124" y="-287.5" font-family="Helvetica,sans-Serif" font-size="10.00" fill="#000000">fweelin_fluidsynth.h</text>
</a>
</g>
</g>
<!-- Node7&#45;&gt;Node38 -->
<g id="edge65" class="edge">
<title>Node7&#45;&gt;Node38</title>
<path fill="none" stroke="#191970" d="M934.8409,-449.5408C931.5156,-448.9901 928.2076,-448.4692 925,-448 777.2678,-426.3912 737.8531,-438.9429 591,-412 430.5466,-382.5619 244.0701,-327.3462 163.9352,-302.5811"/>
<polygon fill="#191970" stroke="#191970" points="164.8351,-299.1958 154.247,-299.575 162.7606,-305.8814 164.8351,-299.1958"/>
</g>
<!-- Node39 -->
<g id="node40" class="node">
<title>Node39</title>
<g id="a_node40"><a xlink:href="fweelin__browser_8h.html" target="_top" xlink:title="fweelin_browser.h">
<polygon fill="#ffffff" stroke="#000000" points="714.5,-392.5 714.5,-411.5 819.5,-411.5 819.5,-392.5 714.5,-392.5"/>
<text text-anchor="middle" x="767" y="-399.5" font-family="Helvetica,sans-Serif" font-size="10.00" fill="#000000">fweelin_browser.h</text>
</a>
</g>
</g>
<!-- Node7&#45;&gt;Node39 -->
<g id="edge62" class="edge">
<title>Node7&#45;&gt;Node39</title>
<path fill="none" stroke="#191970" d="M942.5559,-448.3733C906.6931,-438.9001 851.8122,-424.4032 812.9718,-414.1435"/>
<polygon fill="#191970" stroke="#191970" points="813.5308,-410.6712 802.9685,-411.5011 811.743,-417.439 813.5308,-410.6712"/>
</g>
<!-- Node40 -->
<g id="node41" class="node">
<title>Node40</title>
<g id="a_node41"><a xlink:href="fweelin__osc_8h.html" target="_top" xlink:title="fweelin_osc.h">
<polygon fill="#ffffff" stroke="#000000" points="1139.5,-392.5 1139.5,-411.5 1222.5,-411.5 1222.5,-392.5 1139.5,-392.5"/>
<text text-anchor="middle" x="1181" y="-399.5" font-family="Helvetica,sans-Serif" font-size="10.00" fill="#000000">fweelin_osc.h</text>
</a>
</g>
</g>
<!-- Node7&#45;&gt;Node40 -->
<g id="edge66" class="edge">
<title>Node7&#45;&gt;Node40</title>
<path fill="none" stroke="#191970" d="M1013.725,-448.3733C1047.7508,-438.9404 1099.7437,-424.5265 1136.7234,-414.2747"/>
<polygon fill="#191970" stroke="#191970" points="1138.0266,-417.5455 1146.7281,-411.5011 1136.1565,-410.7999 1138.0266,-417.5455"/>
</g>
<!-- Node9&#45;&gt;Node6 -->
<g id="edge11" class="edge">
<title>Node9&#45;&gt;Node6</title>
<path fill="none" stroke="#191970" d="M1316.3016,-392.3733C1341.4128,-383.1822 1379.4438,-369.2624 1407.2872,-359.0713"/>
<polygon fill="#191970" stroke="#191970" points="1408.8538,-362.2251 1417.0416,-355.5011 1406.4478,-355.6516 1408.8538,-362.2251"/>
</g>
<!-- Node9&#45;&gt;Node10 -->
<g id="edge12" class="edge">
<title>Node9&#45;&gt;Node10</title>
<path fill="none" stroke="#191970" d="M1288.7552,-392.4401C1285.2487,-369.4729 1273.1424,-310.8151 1238,-280 1221.888,-265.8719 1171.6247,-253.0725 1130.7678,-244.5832"/>
<polygon fill="#191970" stroke="#191970" points="1131.3746,-241.1351 1120.8778,-242.5729 1129.9802,-247.9948 1131.3746,-241.1351"/>
</g>
<!-- Node11 -->
<g id="node12" class="node">
<title>Node11</title>
<polygon fill="#ffffff" stroke="#bfbfbf" points="1083,-168.5 1083,-187.5 1163,-187.5 1163,-168.5 1083,-168.5"/>
<text text-anchor="middle" x="1123" y="-175.5" font-family="Helvetica,sans-Serif" font-size="10.00" fill="#000000">linux/limits.h</text>
</g>
<!-- Node10&#45;&gt;Node11 -->
<g id="edge13" class="edge">
<title>Node10&#45;&gt;Node11</title>
<path fill="none" stroke="#191970" d="M1081.7093,-224.2455C1088.8073,-216.2958 1099.0084,-204.8706 1107.495,-195.3656"/>
<polygon fill="#191970" stroke="#191970" points="1110.3411,-197.4331 1114.3905,-187.6427 1105.1195,-192.771 1110.3411,-197.4331"/>
</g>
<!-- Node12 -->
<g id="node13" class="node">
<title>Node12</title>
<polygon fill="#ffffff" stroke="#bfbfbf" points="1225.5,-168.5 1225.5,-187.5 1288.5,-187.5 1288.5,-168.5 1225.5,-168.5"/>
<text text-anchor="middle" x="1257" y="-175.5" font-family="Helvetica,sans-Serif" font-size="10.00" fill="#000000">pthread.h</text>
</g>
<!-- Node10&#45;&gt;Node12 -->
<g id="edge14" class="edge">
<title>Node10&#45;&gt;Node12</title>
<path fill="none" stroke="#191970" d="M1104.6307,-224.3733C1135.3596,-215.021 1182.176,-200.7725 1215.8022,-190.5385"/>
<polygon fill="#191970" stroke="#191970" points="1217.2344,-193.7612 1225.782,-187.5011 1215.1962,-187.0644 1217.2344,-193.7612"/>
</g>
<!-- Node13 -->
<g id="node14" class="node">
<title>Node13</title>
<polygon fill="#ffffff" stroke="#bfbfbf" points="943,-168.5 943,-187.5 1009,-187.5 1009,-168.5 943,-168.5"/>
<text text-anchor="middle" x="976" y="-175.5" font-family="Helvetica,sans-Serif" font-size="10.00" fill="#000000">SDL/SDL.h</text>
</g>
<!-- Node10&#45;&gt;Node13 -->
<g id="edge15" class="edge">
<title>Node10&#45;&gt;Node13</title>
<path fill="none" stroke="#191970" d="M1056.1039,-224.2455C1041.082,-215.5731 1018.8957,-202.7645 1001.679,-192.825"/>
<polygon fill="#191970" stroke="#191970" points="1003.1128,-189.6114 992.7025,-187.6427 999.6129,-195.6737 1003.1128,-189.6114"/>
</g>
<!-- Node14 -->
<g id="node15" class="node">
<title>Node14</title>
<polygon fill="#ffffff" stroke="#bfbfbf" points="1007.5,-.5 1007.5,-19.5 1102.5,-19.5 1102.5,-.5 1007.5,-.5"/>
<text text-anchor="middle" x="1055" y="-7.5" font-family="Helvetica,sans-Serif" font-size="10.00" fill="#000000">jack/ringbuffer.h</text>
</g>
<!-- Node10&#45;&gt;Node14 -->
<g id="edge16" class="edge">
<title>Node10&#45;&gt;Node14</title>
<path fill="none" stroke="#191970" d="M1072.2266,-224.375C1069.5033,-190.4851 1060.3222,-76.2317 1056.5937,-29.8332"/>
<polygon fill="#191970" stroke="#191970" points="1060.0604,-29.2766 1055.7706,-19.5891 1053.0829,-29.8374 1060.0604,-29.2766"/>
</g>
<!-- Node15 -->
<g id="node16" class="node">
<title>Node15</title>
<g id="a_node16"><a xlink:href="fweelin__datatypes_8h.html" target="_top" xlink:title="fweelin_datatypes.h">
<polygon fill="#ffffff" stroke="#000000" points="1087,-56.5 1087,-75.5 1203,-75.5 1203,-56.5 1087,-56.5"/>
<text text-anchor="middle" x="1145" y="-63.5" font-family="Helvetica,sans-Serif" font-size="10.00" fill="#000000">fweelin_datatypes.h</text>
</a>
</g>
</g>
<!-- Node10&#45;&gt;Node15 -->
<g id="edge17" class="edge">
<title>Node10&#45;&gt;Node15</title>
<path fill="none" stroke="#191970" d="M1113.626,-224.4078C1134.0388,-217.5526 1157.4609,-206.2217 1172,-188 1193.328,-161.2699 1195.7777,-144.104 1184,-112 1179.9432,-100.9418 1171.9203,-90.7193 1164.2006,-82.7335"/>
<polygon fill="#191970" stroke="#191970" points="1166.3698,-79.9632 1156.74,-75.5451 1161.5128,-85.0041 1166.3698,-79.9632"/>
</g>
<!-- Node10&#45;&gt;Node17 -->
<g id="edge20" class="edge">
<title>Node10&#45;&gt;Node17</title>
<path fill="none" stroke="#191970" d="M1034.2363,-224.3733C999.6925,-214.9807 949.6314,-200.6496 915.4839,-190.4064"/>
<polygon fill="#191970" stroke="#191970" points="916.4519,-187.0426 905.867,-187.5011 914.4275,-193.7435 916.4519,-187.0426"/>
</g>
<!-- Node15&#45;&gt;Node14 -->
<g id="edge18" class="edge">
<title>Node15&#45;&gt;Node14</title>
<path fill="none" stroke="#191970" d="M1129.3232,-56.2455C1115.5144,-47.6534 1095.1807,-35.0014 1079.2708,-25.1018"/>
<polygon fill="#191970" stroke="#191970" points="1080.8368,-21.954 1070.4972,-19.6427 1077.1387,-27.8974 1080.8368,-21.954"/>
</g>
<!-- Node16 -->
<g id="node17" class="node">
<title>Node16</title>
<polygon fill="#ffffff" stroke="#bfbfbf" points="1121,-.5 1121,-19.5 1177,-19.5 1177,-.5 1121,-.5"/>
<text text-anchor="middle" x="1149" y="-7.5" font-family="Helvetica,sans-Serif" font-size="10.00" fill="#000000">assert.h</text>
</g>
<!-- Node15&#45;&gt;Node16 -->
<g id="edge19" class="edge">
<title>Node15&#45;&gt;Node16</title>
<path fill="none" stroke="#191970" d="M1145.6967,-56.2455C1146.2187,-48.9382 1146.9504,-38.6944 1147.5925,-29.7046"/>
<polygon fill="#191970" stroke="#191970" points="1151.0898,-29.8667 1148.3112,-19.6427 1144.1076,-29.3679 1151.0898,-29.8667"/>
</g>
<!-- Node17&#45;&gt;Node10 -->
<g id="edge29" class="edge">
<title>Node17&#45;&gt;Node10</title>
<path fill="none" stroke="#191970" d="M916.3016,-187.5011C950.706,-196.8494 1000.7683,-211.1765 1035.0574,-221.4561"/>
<polygon fill="#191970" stroke="#191970" points="1034.1355,-224.8337 1044.7203,-224.3733 1036.1586,-218.1324 1034.1355,-224.8337"/>
</g>
<!-- Node18 -->
<g id="node19" class="node">
<title>Node18</title>
<polygon fill="#ffffff" stroke="#bfbfbf" points="617.5,-112.5 617.5,-131.5 704.5,-131.5 704.5,-112.5 617.5,-112.5"/>
<text text-anchor="middle" x="661" y="-119.5" font-family="Helvetica,sans-Serif" font-size="10.00" fill="#000000">vorbis/codec.h</text>
</g>
<!-- Node17&#45;&gt;Node18 -->
<g id="edge21" class="edge">
<title>Node17&#45;&gt;Node18</title>
<path fill="none" stroke="#191970" d="M840.6964,-168.3733C803.8315,-158.8598 747.334,-144.2797 707.5494,-134.0127"/>
<polygon fill="#191970" stroke="#191970" points="708.3742,-130.611 697.8169,-131.5011 706.625,-137.3889 708.3742,-130.611"/>
</g>
<!-- Node19 -->
<g id="node20" class="node">
<title>Node19</title>
<polygon fill="#ffffff" stroke="#bfbfbf" points="723,-112.5 723,-131.5 827,-131.5 827,-112.5 723,-112.5"/>
<text text-anchor="middle" x="775" y="-119.5" font-family="Helvetica,sans-Serif" font-size="10.00" fill="#000000">vorbis/vorbisfile.h</text>
</g>
<!-- Node17&#45;&gt;Node19 -->
<g id="edge22" class="edge">
<title>Node17&#45;&gt;Node19</title>
<path fill="none" stroke="#191970" d="M860.0588,-168.2455C843.96,-159.4928 820.1121,-146.527 801.7609,-136.5496"/>
<polygon fill="#191970" stroke="#191970" points="803.1929,-133.3444 792.7356,-131.6427 799.8493,-139.4942 803.1929,-133.3444"/>
</g>
<!-- Node20 -->
<g id="node21" class="node">
<title>Node20</title>
<polygon fill="#ffffff" stroke="#bfbfbf" points="845,-112.5 845,-131.5 951,-131.5 951,-112.5 845,-112.5"/>
<text text-anchor="middle" x="898" y="-119.5" font-family="Helvetica,sans-Serif" font-size="10.00" fill="#000000">vorbis/vorbisenc.h</text>
</g>
<!-- Node17&#45;&gt;Node20 -->
<g id="edge23" class="edge">
<title>Node17&#45;&gt;Node20</title>
<path fill="none" stroke="#191970" d="M881.4837,-168.2455C884.1508,-160.7776 887.9133,-150.2427 891.1737,-141.1137"/>
<polygon fill="#191970" stroke="#191970" points="894.4889,-142.2373 894.5562,-131.6427 887.8967,-139.8829 894.4889,-142.2373"/>
</g>
<!-- Node21 -->
<g id="node22" class="node">
<title>Node21</title>
<polygon fill="#ffffff" stroke="#bfbfbf" points="969,-112.5 969,-131.5 1027,-131.5 1027,-112.5 969,-112.5"/>
<text text-anchor="middle" x="998" y="-119.5" font-family="Helvetica,sans-Serif" font-size="10.00" fill="#000000">sndfile.h</text>
</g>
<!-- Node17&#45;&gt;Node21 -->
<g id="edge24" class="edge">
<title>Node17&#45;&gt;Node21</title>
<path fill="none" stroke="#191970" d="M898.6287,-168.3733C917.8919,-159.3838 946.8486,-145.8706 968.5419,-135.7471"/>
<polygon fill="#191970" stroke="#191970" points="970.0587,-138.9017 977.6405,-131.5011 967.0985,-132.5584 970.0587,-138.9017"/>
</g>
<!-- Node17&#45;&gt;Node22 -->
<g id="edge25" class="edge">
<title>Node17&#45;&gt;Node22</title>
<path fill="none" stroke="#191970" d="M831.293,-174.0844C713.4223,-164.2031 403.8914,-138.2544 271.4993,-127.1556"/>
<polygon fill="#191970" stroke="#191970" points="271.7766,-123.6667 261.5192,-126.319 271.1918,-130.6422 271.7766,-123.6667"/>
</g>
<!-- Node24 -->
<g id="node25" class="node">
<title>Node24</title>
<g id="a_node25"><a xlink:href="fweelin__mem_8h.html" target="_top" xlink:title="fweelin_mem.h">
<polygon fill="#ffffff" stroke="#000000" points="1083,-112.5 1083,-131.5 1175,-131.5 1175,-112.5 1083,-112.5"/>
<text text-anchor="middle" x="1129" y="-119.5" font-family="Helvetica,sans-Serif" font-size="10.00" fill="#000000">fweelin_mem.h</text>
</a>
</g>
</g>
<!-- Node17&#45;&gt;Node24 -->
<g id="edge27" class="edge">
<title>Node17&#45;&gt;Node24</title>
<path fill="none" stroke="#191970" d="M920.8632,-168.4369C963.9102,-158.8328 1030.3073,-144.0191 1076.491,-133.7152"/>
<polygon fill="#191970" stroke="#191970" points="1077.3157,-137.1173 1086.3135,-131.5237 1075.7913,-130.2853 1077.3157,-137.1173"/>
</g>
<!-- Node23 -->
<g id="node24" class="node">
<title>Node23</title>
<polygon fill="#ffffff" stroke="#bfbfbf" points="175.5,-56.5 175.5,-75.5 244.5,-75.5 244.5,-56.5 175.5,-56.5"/>
<text text-anchor="middle" x="210" y="-63.5" font-family="Helvetica,sans-Serif" font-size="10.00" fill="#000000">jack/jack.h</text>
</g>
<!-- Node22&#45;&gt;Node23 -->
<g id="edge26" class="edge">
<title>Node22&#45;&gt;Node23</title>
<path fill="none" stroke="#191970" d="M210,-112.2455C210,-104.9382 210,-94.6944 210,-85.7046"/>
<polygon fill="#191970" stroke="#191970" points="213.5001,-85.6426 210,-75.6427 206.5001,-85.6427 213.5001,-85.6426"/>
</g>
<!-- Node24&#45;&gt;Node15 -->
<g id="edge28" class="edge">
<title>Node24&#45;&gt;Node15</title>
<path fill="none" stroke="#191970" d="M1131.787,-112.2455C1133.8977,-104.8579 1136.866,-94.4689 1139.4547,-85.4087"/>
<polygon fill="#191970" stroke="#191970" points="1142.863,-86.2195 1142.245,-75.6427 1136.1323,-84.2964 1142.863,-86.2195"/>
</g>
<!-- Node25&#45;&gt;Node10 -->
<g id="edge31" class="edge">
<title>Node25&#45;&gt;Node10</title>
<path fill="none" stroke="#191970" d="M796.6108,-281.1884C856.0823,-271.0347 953.5462,-254.3945 1015.4271,-243.8295"/>
<polygon fill="#191970" stroke="#191970" points="1016.15,-247.2568 1025.4183,-242.1237 1014.9719,-240.3567 1016.15,-247.2568"/>
</g>
<!-- Node25&#45;&gt;Node13 -->
<g id="edge32" class="edge">
<title>Node25&#45;&gt;Node13</title>
<path fill="none" stroke="#191970" d="M794.3763,-280.4384C847.9474,-269.7285 927.4288,-252.7296 939,-244 954.3578,-232.4136 964.2531,-212.4836 969.9095,-197.5484"/>
<polygon fill="#191970" stroke="#191970" points="973.3385,-198.3415 973.2967,-187.7468 966.7224,-196.0552 973.3385,-198.3415"/>
</g>
<!-- Node26 -->
<g id="node27" class="node">
<title>Node26</title>
<polygon fill="#ffffff" stroke="#bfbfbf" points="793.5,-224.5 793.5,-243.5 930.5,-243.5 930.5,-224.5 793.5,-224.5"/>
<text text-anchor="middle" x="862" y="-231.5" font-family="Helvetica,sans-Serif" font-size="10.00" fill="#000000">SDL/SDL_gfxPrimitives.h</text>
</g>
<!-- Node25&#45;&gt;Node26 -->
<g id="edge33" class="edge">
<title>Node25&#45;&gt;Node26</title>
<path fill="none" stroke="#191970" d="M765.113,-280.3733C783.8103,-271.4241 811.8744,-257.9917 832.9934,-247.8835"/>
<polygon fill="#191970" stroke="#191970" points="834.6405,-250.9755 842.1494,-243.5011 831.6183,-244.6614 834.6405,-250.9755"/>
</g>
<!-- Node27 -->
<g id="node28" class="node">
<title>Node27</title>
<polygon fill="#ffffff" stroke="#bfbfbf" points="693,-224.5 693,-243.5 775,-243.5 775,-224.5 693,-224.5"/>
<text text-anchor="middle" x="734" y="-231.5" font-family="Helvetica,sans-Serif" font-size="10.00" fill="#000000">SDL/SDL_ttf.h</text>
</g>
<!-- Node25&#45;&gt;Node27 -->
<g id="edge34" class="edge">
<title>Node25&#45;&gt;Node27</title>
<path fill="none" stroke="#191970" d="M743.0839,-280.2455C741.6486,-272.9382 739.6364,-262.6944 737.8705,-253.7046"/>
<polygon fill="#191970" stroke="#191970" points="741.256,-252.7805 735.8941,-243.6427 734.3873,-254.1298 741.256,-252.7805"/>
</g>
<!-- Node28&#45;&gt;Node10 -->
<g id="edge37" class="edge">
<title>Node28&#45;&gt;Node10</title>
<path fill="none" stroke="#191970" d="M1164.9184,-280.3733C1147.2598,-271.4644 1120.7947,-258.1127 1100.7902,-248.0203"/>
<polygon fill="#191970" stroke="#191970" points="1102.3372,-244.8806 1091.8326,-243.5011 1099.1842,-251.1303 1102.3372,-244.8806"/>
</g>
<!-- Node28&#45;&gt;Node12 -->
<g id="edge36" class="edge">
<title>Node28&#45;&gt;Node12</title>
<path fill="none" stroke="#191970" d="M1190.2239,-280.4509C1202.3995,-261.7707 1229.5443,-220.1238 1245.2182,-196.0761"/>
<polygon fill="#191970" stroke="#191970" points="1248.2635,-197.8137 1250.7918,-187.5249 1242.3992,-193.9913 1248.2635,-197.8137"/>
</g>
<!-- Node29&#45;&gt;Node15 -->
<g id="edge41" class="edge">
<title>Node29&#45;&gt;Node15</title>
<path fill="none" stroke="#191970" d="M1330.6923,-168.4509C1295.0366,-148.7788 1213.2159,-103.6363 1171.1009,-80.4005"/>
<polygon fill="#191970" stroke="#191970" points="1172.7104,-77.2912 1162.2639,-75.5249 1169.3289,-83.4202 1172.7104,-77.2912"/>
</g>
<!-- Node29&#45;&gt;Node24 -->
<g id="edge42" class="edge">
<title>Node29&#45;&gt;Node24</title>
<path fill="none" stroke="#191970" d="M1310.3526,-168.3733C1273.148,-158.8598 1216.1297,-144.2797 1175.9784,-134.0127"/>
<polygon fill="#191970" stroke="#191970" points="1176.7116,-130.5877 1166.1562,-131.5011 1174.9773,-137.3695 1176.7116,-130.5877"/>
</g>
<!-- Node30 -->
<g id="node31" class="node">
<title>Node30</title>
<polygon fill="#ffffff" stroke="#bfbfbf" points="1321.5,-112.5 1321.5,-131.5 1374.5,-131.5 1374.5,-112.5 1321.5,-112.5"/>
<text text-anchor="middle" x="1348" y="-119.5" font-family="Helvetica,sans-Serif" font-size="10.00" fill="#000000">stdint.h</text>
</g>
<!-- Node29&#45;&gt;Node30 -->
<g id="edge40" class="edge">
<title>Node29&#45;&gt;Node30</title>
<path fill="none" stroke="#191970" d="M1348,-168.2455C1348,-160.9382 1348,-150.6944 1348,-141.7046"/>
<polygon fill="#191970" stroke="#191970" points="1351.5001,-141.6426 1348,-131.6427 1344.5001,-141.6427 1351.5001,-141.6426"/>
</g>
<!-- Node31&#45;&gt;Node7 -->
<g id="edge46" class="edge">
<title>Node31&#45;&gt;Node7</title>
<path fill="none" stroke="#191970" d="M984.2451,-411.6427C985.6665,-418.9199 986.081,-429.155 985.4887,-438.1575"/>
<polygon fill="#191970" stroke="#191970" points="981.9947,-437.8972 984.2668,-448.2455 988.9439,-438.739 981.9947,-437.8972"/>
</g>
<!-- Node31&#45;&gt;Node10 -->
<g id="edge47" class="edge">
<title>Node31&#45;&gt;Node10</title>
<path fill="none" stroke="#191970" d="M1005.7657,-392.3875C1022.3373,-385.0164 1042.5691,-373.1627 1054,-356 1074.8053,-324.7623 1076.0391,-279.1851 1074.7407,-253.4957"/>
<polygon fill="#191970" stroke="#191970" points="1078.2318,-253.2444 1074.0532,-243.5084 1071.2483,-253.7252 1078.2318,-253.2444"/>
</g>
<!-- Node31&#45;&gt;Node17 -->
<g id="edge48" class="edge">
<title>Node31&#45;&gt;Node17</title>
<path fill="none" stroke="#191970" d="M957.8784,-392.4622C943.7497,-384.8191 926.2828,-372.6199 918,-356 891.5031,-302.8323 965.4969,-277.1677 939,-224 932.3997,-210.756 919.9673,-200.3192 908.0395,-192.7581"/>
<polygon fill="#191970" stroke="#191970" points="909.5199,-189.5691 899.1216,-187.5378 905.9835,-195.6102 909.5199,-189.5691"/>
</g>
<!-- Node32 -->
<g id="node33" class="node">
<title>Node32</title>
<polygon fill="#ffffff" stroke="#bfbfbf" points="927,-336.5 927,-355.5 971,-355.5 971,-336.5 927,-336.5"/>
<text text-anchor="middle" x="949" y="-343.5" font-family="Helvetica,sans-Serif" font-size="10.00" fill="#000000">string</text>
</g>
<!-- Node31&#45;&gt;Node32 -->
<g id="edge44" class="edge">
<title>Node31&#45;&gt;Node32</title>
<path fill="none" stroke="#191970" d="M973.7744,-392.2455C969.6877,-384.617 963.8865,-373.7881 958.925,-364.5267"/>
<polygon fill="#191970" stroke="#191970" points="961.9732,-362.8047 954.1657,-355.6427 955.8028,-366.1103 961.9732,-362.8047"/>
</g>
<!-- Node33 -->
<g id="node34" class="node">
<title>Node33</title>
<polygon fill="#ffffff" stroke="#bfbfbf" points="989,-336.5 989,-355.5 1045,-355.5 1045,-336.5 989,-336.5"/>
<text text-anchor="middle" x="1017" y="-343.5" font-family="Helvetica,sans-Serif" font-size="10.00" fill="#000000">sstream</text>
</g>
<!-- Node31&#45;&gt;Node33 -->
<g id="edge45" class="edge">
<title>Node31&#45;&gt;Node33</title>
<path fill="none" stroke="#191970" d="M985.6191,-392.2455C990.9046,-384.4564 998.4541,-373.3308 1004.8238,-363.9439"/>
<polygon fill="#191970" stroke="#191970" points="1007.7379,-365.8827 1010.4568,-355.6427 1001.9455,-361.9522 1007.7379,-365.8827"/>
</g>
<!-- Node34&#45;&gt;Node10 -->
<g id="edge59" class="edge">
<title>Node34&#45;&gt;Node10</title>
<path fill="none" stroke="#191970" d="M637.4067,-338.7813C681.7116,-331.4517 748.7374,-318.5342 805,-300 825.4024,-293.2789 828.5732,-286.6467 849,-280 904.2788,-262.0128 969.6044,-249.5529 1015.3988,-242.182"/>
<polygon fill="#191970" stroke="#191970" points="1016.1093,-245.6132 1025.4412,-240.5967 1015.0178,-238.6989 1016.1093,-245.6132"/>
</g>
<!-- Node34&#45;&gt;Node13 -->
<g id="edge52" class="edge">
<title>Node34&#45;&gt;Node13</title>
<path fill="none" stroke="#191970" d="M597.0125,-336.1875C604.5565,-326.9137 616.1389,-312.5852 626,-300 652.2066,-266.5539 647.366,-245.5263 684,-224 777.6755,-168.9559 820.6502,-206.4203 932.7441,-187.8067"/>
<polygon fill="#191970" stroke="#191970" points="933.4914,-191.2288 942.7244,-186.0326 932.2662,-184.3369 933.4914,-191.2288"/>
</g>
<!-- Node34&#45;&gt;Node15 -->
<g id="edge57" class="edge">
<title>Node34&#45;&gt;Node15</title>
<path fill="none" stroke="#191970" d="M589,-336.4116C589,-317.0538 589,-271.9167 589,-234 589,-234 589,-234 589,-178 589,-147.4754 584.4187,-131.3823 608,-112 643.4457,-82.8659 939.8062,-71.3724 1076.4627,-67.5903"/>
<polygon fill="#191970" stroke="#191970" points="1076.909,-71.0796 1086.8107,-67.3102 1076.7196,-64.0821 1076.909,-71.0796"/>
</g>
<!-- Node34&#45;&gt;Node17 -->
<g id="edge56" class="edge">
<title>Node34&#45;&gt;Node17</title>
<path fill="none" stroke="#191970" d="M592.6475,-336.3189C602.6954,-310.1487 631.3336,-238.959 651,-224 677.229,-204.0492 762.928,-190.7887 821.1911,-183.8301"/>
<polygon fill="#191970" stroke="#191970" points="821.8421,-187.278 831.3701,-182.6447 821.0324,-180.325 821.8421,-187.278"/>
</g>
<!-- Node34&#45;&gt;Node22 -->
<g id="edge58" class="edge">
<title>Node34&#45;&gt;Node22</title>
<path fill="none" stroke="#191970" d="M540.7238,-343.124C447.614,-337.1086 250.4658,-321.9159 229,-300 187.2195,-257.3434 197.4491,-178.458 205.155,-141.7479"/>
<polygon fill="#191970" stroke="#191970" points="208.6136,-142.3216 207.4051,-131.7959 201.7859,-140.7779 208.6136,-142.3216"/>
</g>
<!-- Node34&#45;&gt;Node25 -->
<g id="edge60" class="edge">
<title>Node34&#45;&gt;Node25</title>
<path fill="none" stroke="#191970" d="M615.8174,-336.3733C641.5332,-327.1419 680.538,-313.1402 708.9599,-302.9375"/>
<polygon fill="#191970" stroke="#191970" points="710.3032,-306.174 718.5326,-299.5011 707.9381,-299.5857 710.3032,-306.174"/>
</g>
<!-- Node35 -->
<g id="node36" class="node">
<title>Node35</title>
<polygon fill="#ffffff" stroke="#bfbfbf" points="443,-280.5 443,-299.5 561,-299.5 561,-280.5 443,-280.5"/>
<text text-anchor="middle" x="502" y="-287.5" font-family="Helvetica,sans-Serif" font-size="10.00" fill="#000000">libxml/xmlmemory.h</text>
</g>
<!-- Node34&#45;&gt;Node35 -->
<g id="edge53" class="edge">
<title>Node34&#45;&gt;Node35</title>
<path fill="none" stroke="#191970" d="M573.8458,-336.2455C560.4973,-327.6534 540.8414,-315.0014 525.4617,-305.1018"/>
<polygon fill="#191970" stroke="#191970" points="527.2836,-302.1121 516.9806,-299.6427 523.4949,-307.9982 527.2836,-302.1121"/>
</g>
<!-- Node36 -->
<g id="node37" class="node">
<title>Node36</title>
<polygon fill="#ffffff" stroke="#bfbfbf" points="238.5,-280.5 238.5,-299.5 327.5,-299.5 327.5,-280.5 238.5,-280.5"/>
<text text-anchor="middle" x="283" y="-287.5" font-family="Helvetica,sans-Serif" font-size="10.00" fill="#000000">libxml/parser.h</text>
</g>
<!-- Node34&#45;&gt;Node36 -->
<g id="edge54" class="edge">
<title>Node34&#45;&gt;Node36</title>
<path fill="none" stroke="#191970" d="M540.9515,-337.3618C492.2341,-328.5814 414.382,-314.4901 337.8295,-300.331"/>
<polygon fill="#191970" stroke="#191970" points="337.9991,-296.8029 327.529,-298.4239 336.7247,-303.686 337.9991,-296.8029"/>
</g>
<!-- Node37 -->
<g id="node38" class="node">
<title>Node37</title>
<polygon fill="#ffffff" stroke="#bfbfbf" points="345.5,-280.5 345.5,-299.5 424.5,-299.5 424.5,-280.5 345.5,-280.5"/>
<text text-anchor="middle" x="385" y="-287.5" font-family="Helvetica,sans-Serif" font-size="10.00" fill="#000000">libxml/tree.h</text>
</g>
<!-- Node34&#45;&gt;Node37 -->
<g id="edge55" class="edge">
<title>Node34&#45;&gt;Node37</title>
<path fill="none" stroke="#191970" d="M553.9311,-336.3733C519.5685,-326.9404 467.0608,-312.5265 429.7149,-302.2747"/>
<polygon fill="#191970" stroke="#191970" points="430.181,-298.7732 419.6112,-299.5011 428.328,-305.5235 430.181,-298.7732"/>
</g>
<!-- Node34&#45;&gt;Node38 -->
<g id="edge61" class="edge">
<title>Node34&#45;&gt;Node38</title>
<path fill="none" stroke="#191970" d="M540.8628,-340.7028C466.7323,-332.4691 320.1841,-315.8898 196,-300 194.6974,-299.8333 193.3816,-299.6637 192.0561,-299.4916"/>
<polygon fill="#191970" stroke="#191970" points="192.1259,-295.9705 181.754,-298.1326 191.2104,-302.9104 192.1259,-295.9705"/>
</g>
<!-- Node39&#45;&gt;Node10 -->
<g id="edge63" class="edge">
<title>Node39&#45;&gt;Node10</title>
<path fill="none" stroke="#191970" d="M784.3286,-392.4862C835.3329,-364.4839 985.177,-282.2166 1046.4392,-248.5824"/>
<polygon fill="#191970" stroke="#191970" points="1048.4008,-251.4983 1055.4821,-243.6177 1045.0319,-245.3623 1048.4008,-251.4983"/>
</g>
<!-- Node39&#45;&gt;Node34 -->
<g id="edge64" class="edge">
<title>Node39&#45;&gt;Node34</title>
<path fill="none" stroke="#191970" d="M736.4007,-392.3733C706.6739,-383.021 661.3841,-368.7725 628.8544,-358.5385"/>
<polygon fill="#191970" stroke="#191970" points="629.7895,-355.1636 619.2,-355.5011 627.6887,-361.8409 629.7895,-355.1636"/>
</g>
<!-- Node41 -->
<g id="node42" class="node">
<title>Node41</title>
<polygon fill="#ffffff" stroke="#bfbfbf" points="1177.5,-336.5 1177.5,-355.5 1224.5,-355.5 1224.5,-336.5 1177.5,-336.5"/>
<text text-anchor="middle" x="1201" y="-343.5" font-family="Helvetica,sans-Serif" font-size="10.00" fill="#000000">lo/lo.h</text>
</g>
<!-- Node40&#45;&gt;Node41 -->
<g id="edge67" class="edge">
<title>Node40&#45;&gt;Node41</title>
<path fill="none" stroke="#191970" d="M1184.4837,-392.2455C1187.1508,-384.7776 1190.9133,-374.2427 1194.1737,-365.1137"/>
<polygon fill="#191970" stroke="#191970" points="1197.4889,-366.2373 1197.5562,-355.6427 1190.8967,-363.8829 1197.4889,-366.2373"/>
</g>
</g>
</svg>
