<?xml version="1.0" encoding="UTF-8" standalone="no"?>
<!DOCTYPE svg PUBLIC "-//W3C//DTD SVG 1.1//EN"
 "http://www.w3.org/Graphics/SVG/1.1/DTD/svg11.dtd">
<!-- Generated by graphviz version 2.40.1 (20161225.0304)
 -->
<!-- Title: src/fweelin_mem.h Pages: 1 -->
<svg width="178pt" height="140pt"
 viewBox="0.00 0.00 177.50 140.00" xmlns="http://www.w3.org/2000/svg" xmlns:xlink="http://www.w3.org/1999/xlink">
<g id="graph0" class="graph" transform="scale(1 1) rotate(0) translate(4 136)">
<title>src/fweelin_mem.h</title>
<polygon fill="#ffffff" stroke="transparent" points="-4,4 -4,-136 173.5,-136 173.5,4 -4,4"/>
<!-- Node0 -->
<g id="node1" class="node">
<title>Node0</title>
<polygon fill="#bfbfbf" stroke="#000000" points="39.5,-112.5 39.5,-131.5 149.5,-131.5 149.5,-112.5 39.5,-112.5"/>
<text text-anchor="middle" x="94.5" y="-119.5" font-family="Helvetica,sans-Serif" font-size="10.00" fill="#000000">src/fweelin_mem.h</text>
</g>
<!-- Node1 -->
<g id="node2" class="node">
<title>Node1</title>
<g id="a_node2"><a xlink:href="fweelin__datatypes_8h.html" target="_top" xlink:title="fweelin_datatypes.h">
<polygon fill="#ffffff" stroke="#000000" points="36.5,-56.5 36.5,-75.5 152.5,-75.5 152.5,-56.5 36.5,-56.5"/>
<text text-anchor="middle" x="94.5" y="-63.5" font-family="Helvetica,sans-Serif" font-size="10.00" fill="#000000">fweelin_datatypes.h</text>
</a>
</g>
</g>
<!-- Node0&#45;&gt;Node1 -->
<g id="edge1" class="edge">
<title>Node0&#45;&gt;Node1</title>
<path fill="none" stroke="#191970" d="M94.5,-112.2455C94.5,-104.9382 94.5,-94.6944 94.5,-85.7046"/>
<polygon fill="#191970" stroke="#191970" points="98.0001,-85.6426 94.5,-75.6427 91.0001,-85.6427 98.0001,-85.6426"/>
</g>
<!-- Node2 -->
<g id="node3" class="node">
<title>Node2</title>
<polygon fill="#ffffff" stroke="#bfbfbf" points="0,-.5 0,-19.5 95,-19.5 95,-.5 0,-.5"/>
<text text-anchor="middle" x="47.5" y="-7.5" font-family="Helvetica,sans-Serif" font-size="10.00" fill="#000000">jack/ringbuffer.h</text>
</g>
<!-- Node1&#45;&gt;Node2 -->
<g id="edge2" class="edge">
<title>Node1&#45;&gt;Node2</title>
<path fill="none" stroke="#191970" d="M86.3132,-56.2455C79.6411,-48.2958 70.0521,-36.8706 62.0747,-27.3656"/>
<polygon fill="#191970" stroke="#191970" points="64.7026,-25.0524 55.593,-19.6427 59.3408,-29.5525 64.7026,-25.0524"/>
</g>
<!-- Node3 -->
<g id="node4" class="node">
<title>Node3</title>
<polygon fill="#ffffff" stroke="#bfbfbf" points="113.5,-.5 113.5,-19.5 169.5,-19.5 169.5,-.5 113.5,-.5"/>
<text text-anchor="middle" x="141.5" y="-7.5" font-family="Helvetica,sans-Serif" font-size="10.00" fill="#000000">assert.h</text>
</g>
<!-- Node1&#45;&gt;Node3 -->
<g id="edge3" class="edge">
<title>Node1&#45;&gt;Node3</title>
<path fill="none" stroke="#191970" d="M102.6868,-56.2455C109.3589,-48.2958 118.9479,-36.8706 126.9253,-27.3656"/>
<polygon fill="#191970" stroke="#191970" points="129.6592,-29.5525 133.407,-19.6427 124.2974,-25.0524 129.6592,-29.5525"/>
</g>
</g>
</svg>
