<?xml version="1.0" encoding="UTF-8" standalone="no"?>
<!DOCTYPE svg PUBLIC "-//W3C//DTD SVG 1.1//EN"
 "http://www.w3.org/Graphics/SVG/1.1/DTD/svg11.dtd">
<!-- Generated by graphviz version 2.40.1 (20161225.0304)
 -->
<!-- Title: src/fweelin_videoio.cc Pages: 1 -->
<svg width="1622pt" height="532pt"
 viewBox="0.00 0.00 1621.52 532.00" xmlns="http://www.w3.org/2000/svg" xmlns:xlink="http://www.w3.org/1999/xlink">
<g id="graph0" class="graph" transform="scale(1 1) rotate(0) translate(4 528)">
<title>src/fweelin_videoio.cc</title>
<polygon fill="#ffffff" stroke="transparent" points="-4,4 -4,-528 1617.5188,-528 1617.5188,4 -4,4"/>
<!-- Node0 -->
<g id="node1" class="node">
<title>Node0</title>
<polygon fill="#bfbfbf" stroke="#000000" points="876.5,-504.5 876.5,-523.5 1001.5,-523.5 1001.5,-504.5 876.5,-504.5"/>
<text text-anchor="middle" x="939" y="-511.5" font-family="Helvetica,sans-Serif" font-size="10.00" fill="#000000">src/fweelin_videoio.cc</text>
</g>
<!-- Node1 -->
<g id="node2" class="node">
<title>Node1</title>
<polygon fill="#ffffff" stroke="#bfbfbf" points="0,-448.5 0,-467.5 64,-467.5 64,-448.5 0,-448.5"/>
<text text-anchor="middle" x="32" y="-455.5" font-family="Helvetica,sans-Serif" font-size="10.00" fill="#000000">sys/stat.h</text>
</g>
<!-- Node0&#45;&gt;Node1 -->
<g id="edge1" class="edge">
<title>Node0&#45;&gt;Node1</title>
<path fill="none" stroke="#191970" d="M876.3502,-512.1881C707.8572,-507.0782 246.6812,-491.4701 74.0839,-467.8532"/>
<polygon fill="#191970" stroke="#191970" points="74.5113,-464.3789 64.1174,-466.4323 73.5233,-471.3088 74.5113,-464.3789"/>
</g>
<!-- Node2 -->
<g id="node3" class="node">
<title>Node2</title>
<polygon fill="#ffffff" stroke="#bfbfbf" points="82,-448.5 82,-467.5 150,-467.5 150,-448.5 82,-448.5"/>
<text text-anchor="middle" x="116" y="-455.5" font-family="Helvetica,sans-Serif" font-size="10.00" fill="#000000">sys/time.h</text>
</g>
<!-- Node0&#45;&gt;Node2 -->
<g id="edge2" class="edge">
<title>Node0&#45;&gt;Node2</title>
<path fill="none" stroke="#191970" d="M876.4212,-513.3794C744.2595,-511.3903 427.2054,-503.0375 164,-468 162.7422,-467.8326 161.4682,-467.6507 160.1841,-467.4567"/>
<polygon fill="#191970" stroke="#191970" points="160.6886,-463.9924 150.2437,-465.7686 159.5165,-470.8936 160.6886,-463.9924"/>
</g>
<!-- Node3 -->
<g id="node4" class="node">
<title>Node3</title>
<polygon fill="#ffffff" stroke="#bfbfbf" points="206,-336.5 206,-355.5 256,-355.5 256,-336.5 206,-336.5"/>
<text text-anchor="middle" x="231" y="-343.5" font-family="Helvetica,sans-Serif" font-size="10.00" fill="#000000">stdio.h</text>
</g>
<!-- Node0&#45;&gt;Node3 -->
<g id="edge3" class="edge">
<title>Node0&#45;&gt;Node3</title>
<path fill="none" stroke="#191970" d="M876.0571,-512.318C756.1255,-508.4819 499.3816,-497.0608 416,-468 347.924,-444.2737 280.3887,-389.9169 249.0757,-362.4823"/>
<polygon fill="#191970" stroke="#191970" points="251.0317,-359.5379 241.234,-355.5061 246.379,-364.7678 251.0317,-359.5379"/>
</g>
<!-- Node4 -->
<g id="node5" class="node">
<title>Node4</title>
<polygon fill="#ffffff" stroke="#bfbfbf" points="1005.5,-448.5 1005.5,-467.5 1056.5,-467.5 1056.5,-448.5 1005.5,-448.5"/>
<text text-anchor="middle" x="1031" y="-455.5" font-family="Helvetica,sans-Serif" font-size="10.00" fill="#000000">errno.h</text>
</g>
<!-- Node0&#45;&gt;Node4 -->
<g id="edge4" class="edge">
<title>Node0&#45;&gt;Node4</title>
<path fill="none" stroke="#191970" d="M955.0252,-504.2455C969.1408,-495.6534 989.9263,-483.0014 1006.1899,-473.1018"/>
<polygon fill="#191970" stroke="#191970" points="1008.4363,-475.8319 1015.1585,-467.6427 1004.7966,-469.8525 1008.4363,-475.8319"/>
</g>
<!-- Node5 -->
<g id="node6" class="node">
<title>Node5</title>
<polygon fill="#ffffff" stroke="#bfbfbf" points="1075,-448.5 1075,-467.5 1131,-467.5 1131,-448.5 1075,-448.5"/>
<text text-anchor="middle" x="1103" y="-455.5" font-family="Helvetica,sans-Serif" font-size="10.00" fill="#000000">unistd.h</text>
</g>
<!-- Node0&#45;&gt;Node5 -->
<g id="edge5" class="edge">
<title>Node0&#45;&gt;Node5</title>
<path fill="none" stroke="#191970" d="M967.1926,-504.3733C994.3453,-495.1016 1035.5907,-481.0178 1065.5025,-470.804"/>
<polygon fill="#191970" stroke="#191970" points="1066.8428,-474.0449 1075.1753,-467.5011 1064.5808,-467.4204 1066.8428,-474.0449"/>
</g>
<!-- Node6 -->
<g id="node7" class="node">
<title>Node6</title>
<polygon fill="#ffffff" stroke="#bfbfbf" points="274.5,-336.5 274.5,-355.5 327.5,-355.5 327.5,-336.5 274.5,-336.5"/>
<text text-anchor="middle" x="301" y="-343.5" font-family="Helvetica,sans-Serif" font-size="10.00" fill="#000000">stdlib.h</text>
</g>
<!-- Node0&#45;&gt;Node6 -->
<g id="edge6" class="edge">
<title>Node0&#45;&gt;Node6</title>
<path fill="none" stroke="#191970" d="M876.4547,-511.5904C765.0781,-506.7014 537.0304,-493.8201 462,-468 400.1271,-446.7078 342.9211,-391.646 316.4462,-363.3501"/>
<polygon fill="#191970" stroke="#191970" points="318.8689,-360.8136 309.5294,-355.8112 313.7109,-365.546 318.8689,-360.8136"/>
</g>
<!-- Node7 -->
<g id="node8" class="node">
<title>Node7</title>
<polygon fill="#ffffff" stroke="#bfbfbf" points="345.5,-336.5 345.5,-355.5 396.5,-355.5 396.5,-336.5 345.5,-336.5"/>
<text text-anchor="middle" x="371" y="-343.5" font-family="Helvetica,sans-Serif" font-size="10.00" fill="#000000">math.h</text>
</g>
<!-- Node0&#45;&gt;Node7 -->
<g id="edge7" class="edge">
<title>Node0&#45;&gt;Node7</title>
<path fill="none" stroke="#191970" d="M876.2257,-510.4711C747.6954,-501.9863 460.7025,-476.1824 390,-412 377.1958,-400.3766 372.8014,-380.7402 371.3975,-365.9005"/>
<polygon fill="#191970" stroke="#191970" points="374.8796,-365.4848 370.8171,-355.6997 367.8909,-365.8824 374.8796,-365.4848"/>
</g>
<!-- Node8 -->
<g id="node9" class="node">
<title>Node8</title>
<polygon fill="#ffffff" stroke="#bfbfbf" points="1149.5,-448.5 1149.5,-467.5 1202.5,-467.5 1202.5,-448.5 1149.5,-448.5"/>
<text text-anchor="middle" x="1176" y="-455.5" font-family="Helvetica,sans-Serif" font-size="10.00" fill="#000000">string.h</text>
</g>
<!-- Node0&#45;&gt;Node8 -->
<g id="edge8" class="edge">
<title>Node0&#45;&gt;Node8</title>
<path fill="none" stroke="#191970" d="M983.4505,-504.4421C1022.1207,-495.9892 1079.8922,-483.031 1139.3562,-468.079"/>
<polygon fill="#191970" stroke="#191970" points="1140.4637,-471.4092 1149.3,-465.5637 1138.7471,-464.6229 1140.4637,-471.4092"/>
</g>
<!-- Node9 -->
<g id="node10" class="node">
<title>Node9</title>
<polygon fill="#ffffff" stroke="#bfbfbf" points="1523.5,-168.5 1523.5,-187.5 1586.5,-187.5 1586.5,-168.5 1523.5,-168.5"/>
<text text-anchor="middle" x="1555" y="-175.5" font-family="Helvetica,sans-Serif" font-size="10.00" fill="#000000">pthread.h</text>
</g>
<!-- Node0&#45;&gt;Node9 -->
<g id="edge9" class="edge">
<title>Node0&#45;&gt;Node9</title>
<path fill="none" stroke="#191970" d="M944.2093,-504.2203C952.8772,-489.0784 971.8268,-460.4136 997,-448 1105.0632,-394.711 1434.417,-473.5462 1538,-412 1595.2684,-377.9727 1625.0576,-344.6505 1609,-280 1601.1195,-248.2719 1581.349,-215.554 1568.0456,-195.9963"/>
<polygon fill="#191970" stroke="#191970" points="1570.881,-193.9434 1562.2845,-187.7505 1565.1428,-197.9526 1570.881,-193.9434"/>
</g>
<!-- Node10 -->
<g id="node11" class="node">
<title>Node10</title>
<polygon fill="#ffffff" stroke="#bfbfbf" points="1221,-448.5 1221,-467.5 1275,-467.5 1275,-448.5 1221,-448.5"/>
<text text-anchor="middle" x="1248" y="-455.5" font-family="Helvetica,sans-Serif" font-size="10.00" fill="#000000">sched.h</text>
</g>
<!-- Node0&#45;&gt;Node10 -->
<g id="edge10" class="edge">
<title>Node0&#45;&gt;Node10</title>
<path fill="none" stroke="#191970" d="M1001.7034,-505.3294C1054.9904,-497.5299 1133.6751,-485.0002 1211.0328,-468.0396"/>
<polygon fill="#191970" stroke="#191970" points="1211.9449,-471.4224 1220.9492,-465.8391 1210.4284,-464.5887 1211.9449,-471.4224"/>
</g>
<!-- Node11 -->
<g id="node12" class="node">
<title>Node11</title>
<polygon fill="#ffffff" stroke="#bfbfbf" points="1293.5,-448.5 1293.5,-467.5 1370.5,-467.5 1370.5,-448.5 1293.5,-448.5"/>
<text text-anchor="middle" x="1332" y="-455.5" font-family="Helvetica,sans-Serif" font-size="10.00" fill="#000000">sys/mman.h</text>
</g>
<!-- Node0&#45;&gt;Node11 -->
<g id="edge11" class="edge">
<title>Node0&#45;&gt;Node11</title>
<path fill="none" stroke="#191970" d="M1001.5318,-507.0509C1068.6422,-499.2803 1178.5799,-485.6524 1283.1701,-468.0376"/>
<polygon fill="#191970" stroke="#191970" points="1284.0012,-471.4466 1293.2734,-466.3206 1282.8283,-464.5456 1284.0012,-471.4466"/>
</g>
<!-- Node12 -->
<g id="node13" class="node">
<title>Node12</title>
<g id="a_node13"><a xlink:href="fweelin__videoio_8h.html" target="_top" xlink:title="fweelin_videoio.h">
<polygon fill="#ffffff" stroke="#000000" points="360.5,-280.5 360.5,-299.5 463.5,-299.5 463.5,-280.5 360.5,-280.5"/>
<text text-anchor="middle" x="412" y="-287.5" font-family="Helvetica,sans-Serif" font-size="10.00" fill="#000000">fweelin_videoio.h</text>
</a>
</g>
</g>
<!-- Node0&#45;&gt;Node12 -->
<g id="edge12" class="edge">
<title>Node0&#45;&gt;Node12</title>
<path fill="none" stroke="#191970" d="M876.4014,-512.7781C748.5102,-509.6591 461.5158,-499.299 369,-468 282.5884,-438.7661 240.2631,-436.3112 197,-356 192.7844,-348.1744 191.4107,-342.9117 197,-336 215.9804,-312.5291 293.5686,-300.5018 350.1048,-294.7366"/>
<polygon fill="#191970" stroke="#191970" points="350.785,-298.1869 360.3975,-293.7316 350.1047,-291.22 350.785,-298.1869"/>
</g>
<!-- Node29 -->
<g id="node29" class="node">
<title>Node29</title>
<g id="a_node29"><a xlink:href="fweelin__core_8h.html" target="_top" xlink:title="fweelin_core.h">
<polygon fill="#ffffff" stroke="#000000" points="823,-448.5 823,-467.5 911,-467.5 911,-448.5 823,-448.5"/>
<text text-anchor="middle" x="867" y="-455.5" font-family="Helvetica,sans-Serif" font-size="10.00" fill="#000000">fweelin_core.h</text>
</a>
</g>
</g>
<!-- Node0&#45;&gt;Node29 -->
<g id="edge33" class="edge">
<title>Node0&#45;&gt;Node29</title>
<path fill="none" stroke="#191970" d="M926.4586,-504.2455C915.7213,-495.8943 900.0527,-483.7076 887.4953,-473.9408"/>
<polygon fill="#191970" stroke="#191970" points="889.4401,-471.0194 879.3977,-467.6427 885.1425,-476.5449 889.4401,-471.0194"/>
</g>
<!-- Node49 -->
<g id="node49" class="node">
<title>Node49</title>
<g id="a_node49"><a xlink:href="fweelin__paramset_8h.html" target="_top" xlink:title="fweelin_paramset.h">
<polygon fill="#ffffff" stroke="#000000" points="1360.5,-392.5 1360.5,-411.5 1473.5,-411.5 1473.5,-392.5 1360.5,-392.5"/>
<text text-anchor="middle" x="1417" y="-399.5" font-family="Helvetica,sans-Serif" font-size="10.00" fill="#000000">fweelin_paramset.h</text>
</a>
</g>
</g>
<!-- Node0&#45;&gt;Node49 -->
<g id="edge79" class="edge">
<title>Node0&#45;&gt;Node49</title>
<path fill="none" stroke="#191970" d="M939.4532,-504.0423C940.7136,-489.1963 945.4329,-461.5573 963,-448 1029.2089,-396.9037 1249.2765,-420.7115 1349.9224,-411.8913"/>
<polygon fill="#191970" stroke="#191970" points="1350.5628,-415.3437 1360.1469,-410.8275 1349.8384,-408.3813 1350.5628,-415.3437"/>
</g>
<!-- Node50 -->
<g id="node50" class="node">
<title>Node50</title>
<g id="a_node50"><a xlink:href="fweelin__logo_8h.html" target="_top" xlink:title="fweelin_logo.h">
<polygon fill="#ffffff" stroke="#000000" points="1389,-448.5 1389,-467.5 1477,-467.5 1477,-448.5 1389,-448.5"/>
<text text-anchor="middle" x="1433" y="-455.5" font-family="Helvetica,sans-Serif" font-size="10.00" fill="#000000">fweelin_logo.h</text>
</a>
</g>
</g>
<!-- Node0&#45;&gt;Node50 -->
<g id="edge82" class="edge">
<title>Node0&#45;&gt;Node50</title>
<path fill="none" stroke="#191970" d="M1001.6437,-509.1046C1085.3165,-502.2013 1238.3679,-488.3031 1378.7174,-468.0886"/>
<polygon fill="#191970" stroke="#191970" points="1379.4073,-471.5251 1388.7994,-466.6222 1378.3998,-464.598 1379.4073,-471.5251"/>
</g>
<!-- Node13 -->
<g id="node14" class="node">
<title>Node13</title>
<g id="a_node14"><a xlink:href="fweelin__event_8h.html" target="_top" xlink:title="fweelin_event.h">
<polygon fill="#ffffff" stroke="#000000" points="1186.5,-224.5 1186.5,-243.5 1281.5,-243.5 1281.5,-224.5 1186.5,-224.5"/>
<text text-anchor="middle" x="1234" y="-231.5" font-family="Helvetica,sans-Serif" font-size="10.00" fill="#000000">fweelin_event.h</text>
</a>
</g>
</g>
<!-- Node12&#45;&gt;Node13 -->
<g id="edge13" class="edge">
<title>Node12&#45;&gt;Node13</title>
<path fill="none" stroke="#191970" d="M463.7312,-286.4757C609.5363,-276.5425 1023.1446,-248.3648 1176.1556,-237.9407"/>
<polygon fill="#191970" stroke="#191970" points="1176.5447,-241.4224 1186.2837,-237.2507 1176.0689,-234.4386 1176.5447,-241.4224"/>
</g>
<!-- Node15 -->
<g id="node16" class="node">
<title>Node15</title>
<polygon fill="#ffffff" stroke="#bfbfbf" points="459,-168.5 459,-187.5 525,-187.5 525,-168.5 459,-168.5"/>
<text text-anchor="middle" x="492" y="-175.5" font-family="Helvetica,sans-Serif" font-size="10.00" fill="#000000">SDL/SDL.h</text>
</g>
<!-- Node12&#45;&gt;Node15 -->
<g id="edge30" class="edge">
<title>Node12&#45;&gt;Node15</title>
<path fill="none" stroke="#191970" d="M418.8208,-280.4509C432.2228,-261.688 462.1752,-219.7548 479.3157,-195.758"/>
<polygon fill="#191970" stroke="#191970" points="482.2322,-197.6966 485.1965,-187.5249 476.536,-193.6279 482.2322,-197.6966"/>
</g>
<!-- Node27 -->
<g id="node27" class="node">
<title>Node27</title>
<polygon fill="#ffffff" stroke="#bfbfbf" points="188.5,-224.5 188.5,-243.5 325.5,-243.5 325.5,-224.5 188.5,-224.5"/>
<text text-anchor="middle" x="257" y="-231.5" font-family="Helvetica,sans-Serif" font-size="10.00" fill="#000000">SDL/SDL_gfxPrimitives.h</text>
</g>
<!-- Node12&#45;&gt;Node27 -->
<g id="edge31" class="edge">
<title>Node12&#45;&gt;Node27</title>
<path fill="none" stroke="#191970" d="M385.3546,-280.3733C359.8036,-271.1419 321.0488,-257.1402 292.8091,-246.9375"/>
<polygon fill="#191970" stroke="#191970" points="293.8921,-243.6074 283.2978,-243.5011 291.5135,-250.1909 293.8921,-243.6074"/>
</g>
<!-- Node28 -->
<g id="node28" class="node">
<title>Node28</title>
<polygon fill="#ffffff" stroke="#bfbfbf" points="344,-224.5 344,-243.5 426,-243.5 426,-224.5 344,-224.5"/>
<text text-anchor="middle" x="385" y="-231.5" font-family="Helvetica,sans-Serif" font-size="10.00" fill="#000000">SDL/SDL_ttf.h</text>
</g>
<!-- Node12&#45;&gt;Node28 -->
<g id="edge32" class="edge">
<title>Node12&#45;&gt;Node28</title>
<path fill="none" stroke="#191970" d="M407.297,-280.2455C403.6576,-272.6973 398.5076,-262.0158 394.0738,-252.8197"/>
<polygon fill="#191970" stroke="#191970" points="397.1449,-251.1303 389.6491,-243.6427 390.8395,-254.1704 397.1449,-251.1303"/>
</g>
<!-- Node13&#45;&gt;Node9 -->
<g id="edge15" class="edge">
<title>Node13&#45;&gt;Node9</title>
<path fill="none" stroke="#191970" d="M1281.7103,-225.6767C1344.3182,-214.7545 1453.2255,-195.7551 1512.9082,-185.3431"/>
<polygon fill="#191970" stroke="#191970" points="1513.8558,-188.7308 1523.1055,-183.5642 1512.6527,-181.8349 1513.8558,-188.7308"/>
</g>
<!-- Node14 -->
<g id="node15" class="node">
<title>Node14</title>
<polygon fill="#ffffff" stroke="#bfbfbf" points="1194,-168.5 1194,-187.5 1274,-187.5 1274,-168.5 1194,-168.5"/>
<text text-anchor="middle" x="1234" y="-175.5" font-family="Helvetica,sans-Serif" font-size="10.00" fill="#000000">linux/limits.h</text>
</g>
<!-- Node13&#45;&gt;Node14 -->
<g id="edge14" class="edge">
<title>Node13&#45;&gt;Node14</title>
<path fill="none" stroke="#191970" d="M1234,-224.2455C1234,-216.9382 1234,-206.6944 1234,-197.7046"/>
<polygon fill="#191970" stroke="#191970" points="1237.5001,-197.6426 1234,-187.6427 1230.5001,-197.6427 1237.5001,-197.6426"/>
</g>
<!-- Node13&#45;&gt;Node15 -->
<g id="edge16" class="edge">
<title>Node13&#45;&gt;Node15</title>
<path fill="none" stroke="#191970" d="M1186.4558,-230.4118C1051.1421,-220.1994 665.331,-191.0816 535.3515,-181.2718"/>
<polygon fill="#191970" stroke="#191970" points="535.5995,-177.7807 525.3644,-180.5181 535.0726,-184.7608 535.5995,-177.7807"/>
</g>
<!-- Node16 -->
<g id="node17" class="node">
<title>Node16</title>
<polygon fill="#ffffff" stroke="#bfbfbf" points="1236.5,-.5 1236.5,-19.5 1331.5,-19.5 1331.5,-.5 1236.5,-.5"/>
<text text-anchor="middle" x="1284" y="-7.5" font-family="Helvetica,sans-Serif" font-size="10.00" fill="#000000">jack/ringbuffer.h</text>
</g>
<!-- Node13&#45;&gt;Node16 -->
<g id="edge17" class="edge">
<title>Node13&#45;&gt;Node16</title>
<path fill="none" stroke="#191970" d="M1281.7441,-225.5903C1320.5462,-217.6688 1370.784,-204.5563 1383,-188 1423.9769,-132.4642 1344.9242,-58.1435 1305.048,-25.9636"/>
<polygon fill="#191970" stroke="#191970" points="1306.984,-23.0328 1296.9659,-19.5847 1302.6471,-28.5275 1306.984,-23.0328"/>
</g>
<!-- Node17 -->
<g id="node18" class="node">
<title>Node17</title>
<g id="a_node18"><a xlink:href="fweelin__datatypes_8h.html" target="_top" xlink:title="fweelin_datatypes.h">
<polygon fill="#ffffff" stroke="#ff0000" points="1108,-56.5 1108,-75.5 1224,-75.5 1224,-56.5 1108,-56.5"/>
<text text-anchor="middle" x="1166" y="-63.5" font-family="Helvetica,sans-Serif" font-size="10.00" fill="#000000">fweelin_datatypes.h</text>
</a>
</g>
</g>
<!-- Node13&#45;&gt;Node17 -->
<g id="edge18" class="edge">
<title>Node13&#45;&gt;Node17</title>
<path fill="none" stroke="#191970" d="M1219.0391,-224.164C1207.7723,-215.9083 1192.9531,-203.0651 1185,-188 1167.6433,-155.1224 1165.0837,-110.7961 1165.2381,-85.6245"/>
<polygon fill="#191970" stroke="#191970" points="1168.7395,-85.5903 1165.4565,-75.517 1161.7412,-85.439 1168.7395,-85.5903"/>
</g>
<!-- Node19 -->
<g id="node19" class="node">
<title>Node19</title>
<g id="a_node19"><a xlink:href="fweelin__block_8h.html" target="_top" xlink:title="fweelin_block.h">
<polygon fill="#ffffff" stroke="#000000" points="846.5,-168.5 846.5,-187.5 939.5,-187.5 939.5,-168.5 846.5,-168.5"/>
<text text-anchor="middle" x="893" y="-175.5" font-family="Helvetica,sans-Serif" font-size="10.00" fill="#000000">fweelin_block.h</text>
</a>
</g>
</g>
<!-- Node13&#45;&gt;Node19 -->
<g id="edge20" class="edge">
<title>Node13&#45;&gt;Node19</title>
<path fill="none" stroke="#191970" d="M1186.4989,-226.9643C1124.3245,-217.1708 1015.7089,-199.3709 949.4271,-188.1437"/>
<polygon fill="#191970" stroke="#191970" points="950.0111,-184.6928 939.5661,-186.4685 948.8387,-191.5939 950.0111,-184.6928"/>
</g>
<!-- Node17&#45;&gt;Node16 -->
<g id="edge19" class="edge">
<title>Node17&#45;&gt;Node16</title>
<path fill="none" stroke="#191970" d="M1186.2849,-56.3733C1205.1421,-47.4241 1233.446,-33.9917 1254.7455,-23.8835"/>
<polygon fill="#191970" stroke="#191970" points="1256.4461,-26.9506 1263.9798,-19.5011 1253.4449,-20.6266 1256.4461,-26.9506"/>
</g>
<!-- Node19&#45;&gt;Node13 -->
<g id="edge29" class="edge">
<title>Node19&#45;&gt;Node13</title>
<path fill="none" stroke="#191970" d="M939.6208,-184.8971C1001.2237,-194.5941 1109.492,-212.3325 1176.2081,-223.6252"/>
<polygon fill="#191970" stroke="#191970" points="1175.6975,-227.0886 1186.1422,-225.3114 1176.8689,-220.1873 1175.6975,-227.0886"/>
</g>
<!-- Node20 -->
<g id="node20" class="node">
<title>Node20</title>
<polygon fill="#ffffff" stroke="#bfbfbf" points="940.5,-112.5 940.5,-131.5 1027.5,-131.5 1027.5,-112.5 940.5,-112.5"/>
<text text-anchor="middle" x="984" y="-119.5" font-family="Helvetica,sans-Serif" font-size="10.00" fill="#000000">vorbis/codec.h</text>
</g>
<!-- Node19&#45;&gt;Node20 -->
<g id="edge21" class="edge">
<title>Node19&#45;&gt;Node20</title>
<path fill="none" stroke="#191970" d="M908.851,-168.2455C922.8132,-159.6534 943.3728,-147.0014 959.4596,-137.1018"/>
<polygon fill="#191970" stroke="#191970" points="961.6484,-139.8645 968.3307,-131.6427 957.9797,-133.9029 961.6484,-139.8645"/>
</g>
<!-- Node21 -->
<g id="node21" class="node">
<title>Node21</title>
<polygon fill="#ffffff" stroke="#bfbfbf" points="618,-112.5 618,-131.5 722,-131.5 722,-112.5 618,-112.5"/>
<text text-anchor="middle" x="670" y="-119.5" font-family="Helvetica,sans-Serif" font-size="10.00" fill="#000000">vorbis/vorbisfile.h</text>
</g>
<!-- Node19&#45;&gt;Node21 -->
<g id="edge22" class="edge">
<title>Node19&#45;&gt;Node21</title>
<path fill="none" stroke="#191970" d="M854.9183,-168.4369C816.9941,-158.9133 758.6711,-144.2672 717.6874,-133.9753"/>
<polygon fill="#191970" stroke="#191970" points="718.476,-130.5647 707.9246,-131.5237 716.771,-137.3539 718.476,-130.5647"/>
</g>
<!-- Node22 -->
<g id="node22" class="node">
<title>Node22</title>
<polygon fill="#ffffff" stroke="#bfbfbf" points="740,-112.5 740,-131.5 846,-131.5 846,-112.5 740,-112.5"/>
<text text-anchor="middle" x="793" y="-119.5" font-family="Helvetica,sans-Serif" font-size="10.00" fill="#000000">vorbis/vorbisenc.h</text>
</g>
<!-- Node19&#45;&gt;Node22 -->
<g id="edge23" class="edge">
<title>Node19&#45;&gt;Node22</title>
<path fill="none" stroke="#191970" d="M875.5813,-168.2455C859.9515,-159.4928 836.7981,-146.527 818.9815,-136.5496"/>
<polygon fill="#191970" stroke="#191970" points="820.6543,-133.475 810.2191,-131.6427 817.234,-139.5825 820.6543,-133.475"/>
</g>
<!-- Node23 -->
<g id="node23" class="node">
<title>Node23</title>
<polygon fill="#ffffff" stroke="#bfbfbf" points="864,-112.5 864,-131.5 922,-131.5 922,-112.5 864,-112.5"/>
<text text-anchor="middle" x="893" y="-119.5" font-family="Helvetica,sans-Serif" font-size="10.00" fill="#000000">sndfile.h</text>
</g>
<!-- Node19&#45;&gt;Node23 -->
<g id="edge24" class="edge">
<title>Node19&#45;&gt;Node23</title>
<path fill="none" stroke="#191970" d="M893,-168.2455C893,-160.9382 893,-150.6944 893,-141.7046"/>
<polygon fill="#191970" stroke="#191970" points="896.5001,-141.6426 893,-131.6427 889.5001,-141.6427 896.5001,-141.6426"/>
</g>
<!-- Node24 -->
<g id="node24" class="node">
<title>Node24</title>
<g id="a_node24"><a xlink:href="fweelin__audioio_8h.html" target="_top" xlink:title="fweelin_audioio.h">
<polygon fill="#ffffff" stroke="#000000" points="108.5,-112.5 108.5,-131.5 211.5,-131.5 211.5,-112.5 108.5,-112.5"/>
<text text-anchor="middle" x="160" y="-119.5" font-family="Helvetica,sans-Serif" font-size="10.00" fill="#000000">fweelin_audioio.h</text>
</a>
</g>
</g>
<!-- Node19&#45;&gt;Node24 -->
<g id="edge25" class="edge">
<title>Node19&#45;&gt;Node24</title>
<path fill="none" stroke="#191970" d="M846.3124,-174.4331C718.9745,-164.7047 365.5898,-137.7067 221.9273,-126.7311"/>
<polygon fill="#191970" stroke="#191970" points="222.1896,-123.2411 211.952,-125.969 221.6563,-130.2207 222.1896,-123.2411"/>
</g>
<!-- Node26 -->
<g id="node26" class="node">
<title>Node26</title>
<g id="a_node26"><a xlink:href="fweelin__mem_8h.html" target="_top" xlink:title="fweelin_mem.h">
<polygon fill="#ffffff" stroke="#000000" points="1046,-112.5 1046,-131.5 1138,-131.5 1138,-112.5 1046,-112.5"/>
<text text-anchor="middle" x="1092" y="-119.5" font-family="Helvetica,sans-Serif" font-size="10.00" fill="#000000">fweelin_mem.h</text>
</a>
</g>
</g>
<!-- Node19&#45;&gt;Node26 -->
<g id="edge27" class="edge">
<title>Node19&#45;&gt;Node26</title>
<path fill="none" stroke="#191970" d="M927.2093,-168.3733C960.7297,-158.9404 1011.9505,-144.5265 1048.381,-134.2747"/>
<polygon fill="#191970" stroke="#191970" points="1049.5591,-137.5792 1058.2371,-131.5011 1047.6628,-130.8409 1049.5591,-137.5792"/>
</g>
<!-- Node25 -->
<g id="node25" class="node">
<title>Node25</title>
<polygon fill="#ffffff" stroke="#bfbfbf" points="125.5,-56.5 125.5,-75.5 194.5,-75.5 194.5,-56.5 125.5,-56.5"/>
<text text-anchor="middle" x="160" y="-63.5" font-family="Helvetica,sans-Serif" font-size="10.00" fill="#000000">jack/jack.h</text>
</g>
<!-- Node24&#45;&gt;Node25 -->
<g id="edge26" class="edge">
<title>Node24&#45;&gt;Node25</title>
<path fill="none" stroke="#191970" d="M160,-112.2455C160,-104.9382 160,-94.6944 160,-85.7046"/>
<polygon fill="#191970" stroke="#191970" points="163.5001,-85.6426 160,-75.6427 156.5001,-85.6427 163.5001,-85.6426"/>
</g>
<!-- Node26&#45;&gt;Node17 -->
<g id="edge28" class="edge">
<title>Node26&#45;&gt;Node17</title>
<path fill="none" stroke="#191970" d="M1104.8898,-112.2455C1115.9254,-103.8943 1132.0292,-91.7076 1144.9353,-81.9408"/>
<polygon fill="#191970" stroke="#191970" points="1147.3959,-84.4681 1153.2579,-75.6427 1143.1717,-78.8862 1147.3959,-84.4681"/>
</g>
<!-- Node29&#45;&gt;Node12 -->
<g id="edge45" class="edge">
<title>Node29&#45;&gt;Node12</title>
<path fill="none" stroke="#191970" d="M822.8047,-450.2861C795.9183,-443.7715 762.2121,-432.1574 738,-412 708.0044,-387.0276 726.128,-358.1619 694,-336 676.1704,-323.7011 551.4052,-306.7724 473.919,-297.2561"/>
<polygon fill="#191970" stroke="#191970" points="474.1321,-293.7562 463.782,-296.0202 473.2849,-300.7048 474.1321,-293.7562"/>
</g>
<!-- Node29&#45;&gt;Node13 -->
<g id="edge61" class="edge">
<title>Node29&#45;&gt;Node13</title>
<path fill="none" stroke="#191970" d="M911.0987,-451.8976C966.3066,-443.7259 1057.2496,-428.3512 1087,-412 1155.3833,-374.4156 1204.777,-291.0434 1224.5123,-253.2682"/>
<polygon fill="#191970" stroke="#191970" points="1227.8645,-254.3981 1229.2833,-243.8987 1221.6266,-251.2217 1227.8645,-254.3981"/>
</g>
<!-- Node29&#45;&gt;Node19 -->
<g id="edge60" class="edge">
<title>Node29&#45;&gt;Node19</title>
<path fill="none" stroke="#191970" d="M852.4569,-448.4044C839.0531,-439.399 818.7598,-425.3522 802,-412 762.3642,-380.423 760.4874,-362.0182 717,-336 676.823,-311.9624 644.8598,-338.3478 618,-300 612.9005,-292.7194 614.5265,-288.1821 618,-280 632.0022,-247.0169 644.3566,-240.8121 676,-224 703.2937,-209.4989 781.6682,-195.0985 836.3394,-186.3731"/>
<polygon fill="#191970" stroke="#191970" points="836.9207,-189.8248 846.2542,-184.8112 835.8314,-182.9101 836.9207,-189.8248"/>
</g>
<!-- Node29&#45;&gt;Node24 -->
<g id="edge49" class="edge">
<title>Node29&#45;&gt;Node24</title>
<path fill="none" stroke="#191970" d="M822.7142,-453.6403C749.0443,-445.9438 607.8896,-429.1354 593,-412 570.8372,-386.4944 614.0304,-360.7251 591,-336 534.8447,-275.7125 296.8011,-334.5369 222,-300 168.9189,-275.4916 158.6611,-246.1913 153,-188 151.4985,-172.566 153.5102,-155.1196 155.7562,-142.042"/>
<polygon fill="#191970" stroke="#191970" points="159.2676,-142.314 157.708,-131.8346 152.3921,-140.9993 159.2676,-142.314"/>
</g>
<!-- Node30 -->
<g id="node30" class="node">
<title>Node30</title>
<polygon fill="#ffffff" stroke="#bfbfbf" points="1134.5,-392.5 1134.5,-411.5 1213.5,-411.5 1213.5,-392.5 1134.5,-392.5"/>
<text text-anchor="middle" x="1174" y="-399.5" font-family="Helvetica,sans-Serif" font-size="10.00" fill="#000000">nettle/md5.h</text>
</g>
<!-- Node29&#45;&gt;Node30 -->
<g id="edge34" class="edge">
<title>Node29&#45;&gt;Node30</title>
<path fill="none" stroke="#191970" d="M911.3395,-449.9834C961.8584,-440.8391 1046.8889,-425.416 1120,-412 1121.4653,-411.7311 1122.9529,-411.4578 1124.4546,-411.1816"/>
<polygon fill="#191970" stroke="#191970" points="1125.2837,-414.5878 1134.4837,-409.3332 1124.0149,-407.7038 1125.2837,-414.5878"/>
</g>
<!-- Node31 -->
<g id="node31" class="node">
<title>Node31</title>
<g id="a_node31"><a xlink:href="fweelin__amixer_8h.html" target="_top" xlink:title="fweelin_amixer.h">
<polygon fill="#ffffff" stroke="#000000" points="399.5,-392.5 399.5,-411.5 500.5,-411.5 500.5,-392.5 399.5,-392.5"/>
<text text-anchor="middle" x="450" y="-399.5" font-family="Helvetica,sans-Serif" font-size="10.00" fill="#000000">fweelin_amixer.h</text>
</a>
</g>
</g>
<!-- Node29&#45;&gt;Node31 -->
<g id="edge35" class="edge">
<title>Node29&#45;&gt;Node31</title>
<path fill="none" stroke="#191970" d="M822.8375,-452.6305C747.8528,-442.9761 595.8244,-422.6003 510.8413,-410.8533"/>
<polygon fill="#191970" stroke="#191970" points="511.2053,-407.3704 500.8195,-409.4649 510.2445,-414.3042 511.2053,-407.3704"/>
</g>
<!-- Node34 -->
<g id="node34" class="node">
<title>Node34</title>
<g id="a_node34"><a xlink:href="fweelin__midiio_8h.html" target="_top" xlink:title="fweelin_midiio.h">
<polygon fill="#ffffff" stroke="#000000" points="818,-392.5 818,-411.5 916,-411.5 916,-392.5 818,-392.5"/>
<text text-anchor="middle" x="867" y="-399.5" font-family="Helvetica,sans-Serif" font-size="10.00" fill="#000000">fweelin_midiio.h</text>
</a>
</g>
</g>
<!-- Node29&#45;&gt;Node34 -->
<g id="edge42" class="edge">
<title>Node29&#45;&gt;Node34</title>
<path fill="none" stroke="#191970" d="M867,-448.2455C867,-440.9382 867,-430.6944 867,-421.7046"/>
<polygon fill="#191970" stroke="#191970" points="870.5001,-421.6426 867,-411.6427 863.5001,-421.6427 870.5001,-421.6426"/>
</g>
<!-- Node35 -->
<g id="node35" class="node">
<title>Node35</title>
<g id="a_node35"><a xlink:href="fweelin__sdlio_8h.html" target="_top" xlink:title="fweelin_sdlio.h">
<polygon fill="#ffffff" stroke="#000000" points="1510,-280.5 1510,-299.5 1600,-299.5 1600,-280.5 1510,-280.5"/>
<text text-anchor="middle" x="1555" y="-287.5" font-family="Helvetica,sans-Serif" font-size="10.00" fill="#000000">fweelin_sdlio.h</text>
</a>
</g>
</g>
<!-- Node29&#45;&gt;Node35 -->
<g id="edge46" class="edge">
<title>Node29&#45;&gt;Node35</title>
<path fill="none" stroke="#191970" d="M911.4154,-453.0105C927.6357,-451.2842 946.1358,-449.4267 963,-448 1024.3553,-442.8093 1467.4776,-449.9078 1516,-412 1547.4181,-387.4548 1553.9577,-337.4468 1555.0561,-309.6834"/>
<polygon fill="#191970" stroke="#191970" points="1558.557,-309.6652 1555.251,-299.5994 1551.5583,-309.5298 1558.557,-309.6652"/>
</g>
<!-- Node36 -->
<g id="node36" class="node">
<title>Node36</title>
<g id="a_node36"><a xlink:href="fweelin__rcu_8h.html" target="_top" xlink:title="fweelin_rcu.h">
<polygon fill="#ffffff" stroke="#000000" points="1292,-168.5 1292,-187.5 1374,-187.5 1374,-168.5 1292,-168.5"/>
<text text-anchor="middle" x="1333" y="-175.5" font-family="Helvetica,sans-Serif" font-size="10.00" fill="#000000">fweelin_rcu.h</text>
</a>
</g>
</g>
<!-- Node29&#45;&gt;Node36 -->
<g id="edge50" class="edge">
<title>Node29&#45;&gt;Node36</title>
<path fill="none" stroke="#191970" d="M911.4187,-453.0486C927.6393,-451.3262 946.1388,-449.4614 963,-448 1020.6998,-442.999 1443.4867,-454.3435 1483,-412 1550.6569,-339.4972 1413.0268,-232.6046 1356.1015,-193.2577"/>
<polygon fill="#191970" stroke="#191970" points="1357.9378,-190.2737 1347.7021,-187.5383 1353.9979,-196.0597 1357.9378,-190.2737"/>
</g>
<!-- Node38 -->
<g id="node38" class="node">
<title>Node38</title>
<g id="a_node38"><a xlink:href="fweelin__core__dsp_8h.html" target="_top" xlink:title="fweelin_core_dsp.h">
<polygon fill="#ffffff" stroke="#000000" points="1232,-392.5 1232,-411.5 1342,-411.5 1342,-392.5 1232,-392.5"/>
<text text-anchor="middle" x="1287" y="-399.5" font-family="Helvetica,sans-Serif" font-size="10.00" fill="#000000">fweelin_core_dsp.h</text>
</a>
</g>
</g>
<!-- Node29&#45;&gt;Node38 -->
<g id="edge54" class="edge">
<title>Node29&#45;&gt;Node38</title>
<path fill="none" stroke="#191970" d="M911.0856,-448.7372C912.7404,-448.4834 914.3824,-448.237 916,-448 1047.9981,-428.6604 1081.8538,-430.3003 1214,-412 1216.6248,-411.6365 1219.3085,-411.2552 1222.0253,-410.8625"/>
<polygon fill="#191970" stroke="#191970" points="1222.5752,-414.3193 1231.9596,-409.4016 1221.5568,-407.3938 1222.5752,-414.3193"/>
</g>
<!-- Node41 -->
<g id="node41" class="node">
<title>Node41</title>
<g id="a_node41"><a xlink:href="fweelin__config_8h.html" target="_top" xlink:title="fweelin_config.h">
<polygon fill="#ffffff" stroke="#000000" points="780,-336.5 780,-355.5 876,-355.5 876,-336.5 780,-336.5"/>
<text text-anchor="middle" x="828" y="-343.5" font-family="Helvetica,sans-Serif" font-size="10.00" fill="#000000">fweelin_config.h</text>
</a>
</g>
</g>
<!-- Node29&#45;&gt;Node41 -->
<g id="edge62" class="edge">
<title>Node29&#45;&gt;Node41</title>
<path fill="none" stroke="#191970" d="M847.1759,-448.3695C833.6785,-440.6136 816.8843,-428.3161 809,-412 801.6527,-396.7952 808.2498,-378.2141 815.6113,-364.6458"/>
<polygon fill="#191970" stroke="#191970" points="818.7895,-366.1507 820.9183,-355.7719 812.7818,-362.5578 818.7895,-366.1507"/>
</g>
<!-- Node45 -->
<g id="node45" class="node">
<title>Node45</title>
<g id="a_node45"><a xlink:href="fweelin__fluidsynth_8h.html" target="_top" xlink:title="fweelin_fluidsynth.h">
<polygon fill="#ffffff" stroke="#000000" points="1014.5,-280.5 1014.5,-299.5 1129.5,-299.5 1129.5,-280.5 1014.5,-280.5"/>
<text text-anchor="middle" x="1072" y="-287.5" font-family="Helvetica,sans-Serif" font-size="10.00" fill="#000000">fweelin_fluidsynth.h</text>
</a>
</g>
</g>
<!-- Node29&#45;&gt;Node45 -->
<g id="edge76" class="edge">
<title>Node29&#45;&gt;Node45</title>
<path fill="none" stroke="#191970" d="M879.5092,-448.209C891.2991,-438.9503 909.431,-424.632 925,-412 971.2131,-374.5049 1024.8632,-329.634 1052.8202,-306.1484"/>
<polygon fill="#191970" stroke="#191970" points="1055.233,-308.6924 1060.6349,-299.5781 1050.7283,-303.3344 1055.233,-308.6924"/>
</g>
<!-- Node46 -->
<g id="node46" class="node">
<title>Node46</title>
<g id="a_node46"><a xlink:href="fweelin__browser_8h.html" target="_top" xlink:title="fweelin_browser.h">
<polygon fill="#ffffff" stroke="#000000" points="972.5,-392.5 972.5,-411.5 1077.5,-411.5 1077.5,-392.5 972.5,-392.5"/>
<text text-anchor="middle" x="1025" y="-399.5" font-family="Helvetica,sans-Serif" font-size="10.00" fill="#000000">fweelin_browser.h</text>
</a>
</g>
</g>
<!-- Node29&#45;&gt;Node46 -->
<g id="edge73" class="edge">
<title>Node29&#45;&gt;Node46</title>
<path fill="none" stroke="#191970" d="M894.1612,-448.3733C920.2067,-439.1419 959.7116,-425.1402 988.4979,-414.9375"/>
<polygon fill="#191970" stroke="#191970" points="989.937,-418.1408 998.1933,-411.5011 987.5985,-411.5429 989.937,-418.1408"/>
</g>
<!-- Node47 -->
<g id="node47" class="node">
<title>Node47</title>
<g id="a_node47"><a xlink:href="fweelin__osc_8h.html" target="_top" xlink:title="fweelin_osc.h">
<polygon fill="#ffffff" stroke="#000000" points="602.5,-392.5 602.5,-411.5 685.5,-411.5 685.5,-392.5 602.5,-392.5"/>
<text text-anchor="middle" x="644" y="-399.5" font-family="Helvetica,sans-Serif" font-size="10.00" fill="#000000">fweelin_osc.h</text>
</a>
</g>
</g>
<!-- Node29&#45;&gt;Node47 -->
<g id="edge77" class="edge">
<title>Node29&#45;&gt;Node47</title>
<path fill="none" stroke="#191970" d="M828.9183,-448.4369C790.9941,-438.9133 732.6711,-424.2672 691.6874,-413.9753"/>
<polygon fill="#191970" stroke="#191970" points="692.476,-410.5647 681.9246,-411.5237 690.771,-417.3539 692.476,-410.5647"/>
</g>
<!-- Node31&#45;&gt;Node3 -->
<g id="edge36" class="edge">
<title>Node31&#45;&gt;Node3</title>
<path fill="none" stroke="#191970" d="M409.4528,-392.4406C374.0137,-383.9687 320.9459,-371.0028 266.1102,-356.2265"/>
<polygon fill="#191970" stroke="#191970" points="266.7846,-352.7831 256.2173,-353.5459 264.9539,-359.5395 266.7846,-352.7831"/>
</g>
<!-- Node31&#45;&gt;Node6 -->
<g id="edge37" class="edge">
<title>Node31&#45;&gt;Node6</title>
<path fill="none" stroke="#191970" d="M424.386,-392.3733C399.9313,-383.1822 362.8946,-369.2624 335.7791,-359.0713"/>
<polygon fill="#191970" stroke="#191970" points="336.8719,-355.7431 326.2798,-355.5011 334.4091,-362.2956 336.8719,-355.7431"/>
</g>
<!-- Node31&#45;&gt;Node7 -->
<g id="edge39" class="edge">
<title>Node31&#45;&gt;Node7</title>
<path fill="none" stroke="#191970" d="M436.2393,-392.2455C424.3448,-383.814 406.935,-371.4729 393.0915,-361.6598"/>
<polygon fill="#191970" stroke="#191970" points="394.7854,-358.5704 384.6031,-355.6427 390.7372,-364.2811 394.7854,-358.5704"/>
</g>
<!-- Node31&#45;&gt;Node29 -->
<g id="edge41" class="edge">
<title>Node31&#45;&gt;Node29</title>
<path fill="none" stroke="#191970" d="M500.5407,-408.1925C579.6065,-418.416 731.6311,-438.8116 812.8515,-450.0732"/>
<polygon fill="#191970" stroke="#191970" points="812.4863,-453.556 822.873,-451.4665 813.4503,-446.6227 812.4863,-453.556"/>
</g>
<!-- Node32 -->
<g id="node32" class="node">
<title>Node32</title>
<polygon fill="#ffffff" stroke="#bfbfbf" points="414.5,-336.5 414.5,-355.5 467.5,-355.5 467.5,-336.5 414.5,-336.5"/>
<text text-anchor="middle" x="441" y="-343.5" font-family="Helvetica,sans-Serif" font-size="10.00" fill="#000000">ctype.h</text>
</g>
<!-- Node31&#45;&gt;Node32 -->
<g id="edge38" class="edge">
<title>Node31&#45;&gt;Node32</title>
<path fill="none" stroke="#191970" d="M448.4323,-392.2455C447.2579,-384.9382 445.6116,-374.6944 444.1668,-365.7046"/>
<polygon fill="#191970" stroke="#191970" points="447.5922,-364.9606 442.5497,-355.6427 440.6809,-366.0714 447.5922,-364.9606"/>
</g>
<!-- Node33 -->
<g id="node33" class="node">
<title>Node33</title>
<polygon fill="#ffffff" stroke="#bfbfbf" points="486,-336.5 486,-355.5 582,-355.5 582,-336.5 486,-336.5"/>
<text text-anchor="middle" x="534" y="-343.5" font-family="Helvetica,sans-Serif" font-size="10.00" fill="#000000">alsa/asoundlib.h</text>
</g>
<!-- Node31&#45;&gt;Node33 -->
<g id="edge40" class="edge">
<title>Node31&#45;&gt;Node33</title>
<path fill="none" stroke="#191970" d="M464.6317,-392.2455C477.3994,-383.7337 496.1438,-371.2375 510.9299,-361.3801"/>
<polygon fill="#191970" stroke="#191970" points="513.1569,-364.1019 519.536,-355.6427 509.274,-358.2775 513.1569,-364.1019"/>
</g>
<!-- Node34&#45;&gt;Node13 -->
<g id="edge44" class="edge">
<title>Node34&#45;&gt;Node13</title>
<path fill="none" stroke="#191970" d="M900.3696,-392.4327C952.8246,-376.7513 1057.0405,-342.9797 1139,-300 1153.8245,-292.226 1189.6259,-266.5899 1212.7984,-249.6513"/>
<polygon fill="#191970" stroke="#191970" points="1214.9987,-252.378 1220.991,-243.6406 1210.8579,-246.734 1214.9987,-252.378"/>
</g>
<!-- Node34&#45;&gt;Node33 -->
<g id="edge43" class="edge">
<title>Node34&#45;&gt;Node33</title>
<path fill="none" stroke="#191970" d="M817.8647,-393.737C757.7593,-383.6292 656.1364,-366.5394 592.1828,-355.7845"/>
<polygon fill="#191970" stroke="#191970" points="592.6962,-352.3218 582.2542,-354.1148 591.5353,-359.2248 592.6962,-352.3218"/>
</g>
<!-- Node35&#45;&gt;Node9 -->
<g id="edge47" class="edge">
<title>Node35&#45;&gt;Node9</title>
<path fill="none" stroke="#191970" d="M1555,-280.4509C1555,-262.184 1555,-221.9553 1555,-197.6976"/>
<polygon fill="#191970" stroke="#191970" points="1558.5001,-197.5249 1555,-187.5249 1551.5001,-197.5249 1558.5001,-197.5249"/>
</g>
<!-- Node35&#45;&gt;Node13 -->
<g id="edge48" class="edge">
<title>Node35&#45;&gt;Node13</title>
<path fill="none" stroke="#191970" d="M1509.6894,-282.0953C1452.5558,-272.1281 1354.263,-254.9805 1291.7839,-244.0807"/>
<polygon fill="#191970" stroke="#191970" points="1292.1482,-240.5914 1281.6955,-242.3207 1290.9451,-247.4873 1292.1482,-240.5914"/>
</g>
<!-- Node36&#45;&gt;Node17 -->
<g id="edge52" class="edge">
<title>Node36&#45;&gt;Node17</title>
<path fill="none" stroke="#191970" d="M1318.7617,-168.4509C1289.7988,-149.0268 1223.8093,-104.7703 1188.7977,-81.2895"/>
<polygon fill="#191970" stroke="#191970" points="1190.457,-78.188 1180.2023,-75.5249 1186.558,-84.0017 1190.457,-78.188"/>
</g>
<!-- Node36&#45;&gt;Node26 -->
<g id="edge53" class="edge">
<title>Node36&#45;&gt;Node26</title>
<path fill="none" stroke="#191970" d="M1291.8445,-168.4369C1250.6858,-158.8731 1187.295,-144.1432 1142.9758,-133.845"/>
<polygon fill="#191970" stroke="#191970" points="1143.5185,-130.3779 1132.9858,-131.5237 1141.9341,-137.1963 1143.5185,-130.3779"/>
</g>
<!-- Node37 -->
<g id="node37" class="node">
<title>Node37</title>
<polygon fill="#ffffff" stroke="#bfbfbf" points="1306.5,-112.5 1306.5,-131.5 1359.5,-131.5 1359.5,-112.5 1306.5,-112.5"/>
<text text-anchor="middle" x="1333" y="-119.5" font-family="Helvetica,sans-Serif" font-size="10.00" fill="#000000">stdint.h</text>
</g>
<!-- Node36&#45;&gt;Node37 -->
<g id="edge51" class="edge">
<title>Node36&#45;&gt;Node37</title>
<path fill="none" stroke="#191970" d="M1333,-168.2455C1333,-160.9382 1333,-150.6944 1333,-141.7046"/>
<polygon fill="#191970" stroke="#191970" points="1336.5001,-141.6426 1333,-131.6427 1329.5001,-141.6427 1336.5001,-141.6426"/>
</g>
<!-- Node38&#45;&gt;Node13 -->
<g id="edge58" class="edge">
<title>Node38&#45;&gt;Node13</title>
<path fill="none" stroke="#191970" d="M1328.8462,-392.4646C1362.602,-382.5084 1402.1647,-364.3355 1387,-336 1362.9393,-291.0422 1309.3416,-262.4779 1272.4316,-247.352"/>
<polygon fill="#191970" stroke="#191970" points="1273.556,-244.0331 1262.9693,-243.6167 1270.9857,-250.5441 1273.556,-244.0331"/>
</g>
<!-- Node38&#45;&gt;Node19 -->
<g id="edge59" class="edge">
<title>Node38&#45;&gt;Node19</title>
<path fill="none" stroke="#191970" d="M1277.3848,-392.3008C1254.8866,-370.0259 1196.3649,-314.4821 1139,-280 1071.0164,-239.1351 983.6693,-207.2322 933.4451,-190.6326"/>
<polygon fill="#191970" stroke="#191970" points="934.5045,-187.2968 923.912,-187.5187 932.331,-193.9508 934.5045,-187.2968"/>
</g>
<!-- Node38&#45;&gt;Node29 -->
<g id="edge57" class="edge">
<title>Node38&#45;&gt;Node29</title>
<path fill="none" stroke="#191970" d="M1235.3707,-411.5281C1234.2386,-411.6883 1233.114,-411.8457 1232,-412 1099.8538,-430.3003 1065.9981,-428.6604 934,-448 929.8486,-448.6082 925.5366,-449.2786 921.1854,-449.9756"/>
<polygon fill="#191970" stroke="#191970" points="920.3247,-446.5697 911.0183,-451.6334 921.4512,-453.4784 920.3247,-446.5697"/>
</g>
<!-- Node39 -->
<g id="node39" class="node">
<title>Node39</title>
<polygon fill="#ffffff" stroke="#bfbfbf" points="1260,-336.5 1260,-355.5 1304,-355.5 1304,-336.5 1260,-336.5"/>
<text text-anchor="middle" x="1282" y="-343.5" font-family="Helvetica,sans-Serif" font-size="10.00" fill="#000000">string</text>
</g>
<!-- Node38&#45;&gt;Node39 -->
<g id="edge55" class="edge">
<title>Node38&#45;&gt;Node39</title>
<path fill="none" stroke="#191970" d="M1286.1291,-392.2455C1285.4766,-384.9382 1284.562,-374.6944 1283.7593,-365.7046"/>
<polygon fill="#191970" stroke="#191970" points="1287.2365,-365.2918 1282.861,-355.6427 1280.2642,-365.9143 1287.2365,-365.2918"/>
</g>
<!-- Node40 -->
<g id="node40" class="node">
<title>Node40</title>
<polygon fill="#ffffff" stroke="#bfbfbf" points="1322,-336.5 1322,-355.5 1378,-355.5 1378,-336.5 1322,-336.5"/>
<text text-anchor="middle" x="1350" y="-343.5" font-family="Helvetica,sans-Serif" font-size="10.00" fill="#000000">sstream</text>
</g>
<!-- Node38&#45;&gt;Node40 -->
<g id="edge56" class="edge">
<title>Node38&#45;&gt;Node40</title>
<path fill="none" stroke="#191970" d="M1297.9738,-392.2455C1307.1882,-384.0549 1320.5532,-372.1749 1331.4297,-362.5069"/>
<polygon fill="#191970" stroke="#191970" points="1334.0032,-364.9023 1339.152,-355.6427 1329.3526,-359.6704 1334.0032,-364.9023"/>
</g>
<!-- Node41&#45;&gt;Node12 -->
<g id="edge71" class="edge">
<title>Node41&#45;&gt;Node12</title>
<path fill="none" stroke="#191970" d="M779.8369,-339.9747C712.3187,-331.4587 585.7111,-315.2366 478,-300 476.5298,-299.792 475.0414,-299.5798 473.5404,-299.3643"/>
<polygon fill="#191970" stroke="#191970" points="473.9082,-295.8811 463.5084,-297.9044 472.9001,-302.8081 473.9082,-295.8811"/>
</g>
<!-- Node41&#45;&gt;Node13 -->
<g id="edge70" class="edge">
<title>Node41&#45;&gt;Node13</title>
<path fill="none" stroke="#191970" d="M861.6704,-336.449C890.1553,-327.9934 931.8327,-314.7327 967,-300 984.9667,-292.4731 987.6126,-286.4313 1006,-280 1062.285,-260.3134 1129.4973,-248.0329 1176.3038,-241.1647"/>
<polygon fill="#191970" stroke="#191970" points="1176.8617,-244.6206 1186.2652,-239.7394 1175.8702,-237.6912 1176.8617,-244.6206"/>
</g>
<!-- Node41&#45;&gt;Node15 -->
<g id="edge63" class="edge">
<title>Node41&#45;&gt;Node15</title>
<path fill="none" stroke="#191970" d="M779.7143,-340.2846C705.9717,-331.2006 571.9074,-313.1521 554,-300 519.6665,-274.7838 503.013,-225.0447 496.1158,-197.5027"/>
<polygon fill="#191970" stroke="#191970" points="499.4663,-196.457 493.7998,-187.5049 492.6469,-198.0368 499.4663,-196.457"/>
</g>
<!-- Node41&#45;&gt;Node17 -->
<g id="edge68" class="edge">
<title>Node41&#45;&gt;Node17</title>
<path fill="none" stroke="#191970" d="M779.9789,-339.4188C726.5967,-331.4245 644.4105,-316.8931 618,-300 586.9989,-280.1707 568,-270.8004 568,-234 568,-234 568,-234 568,-178 568,-143.4675 579.5361,-130.0103 609,-112 649.7876,-87.0679 957.851,-73.2621 1097.5231,-68.227"/>
<polygon fill="#191970" stroke="#191970" points="1097.8166,-71.7189 1107.6858,-67.8655 1097.5676,-64.7233 1097.8166,-71.7189"/>
</g>
<!-- Node41&#45;&gt;Node19 -->
<g id="edge67" class="edge">
<title>Node41&#45;&gt;Node19</title>
<path fill="none" stroke="#191970" d="M779.9069,-338.3138C723.0016,-328.7327 634.6977,-312.1411 625,-300 619.4524,-293.0547 619.9548,-287.3184 625,-280 650.3495,-243.2286 771.8161,-207.896 842.2138,-190.0488"/>
<polygon fill="#191970" stroke="#191970" points="843.3623,-193.3693 852.2122,-187.5443 841.6615,-186.579 843.3623,-193.3693"/>
</g>
<!-- Node41&#45;&gt;Node24 -->
<g id="edge69" class="edge">
<title>Node41&#45;&gt;Node24</title>
<path fill="none" stroke="#191970" d="M779.6117,-341.9384C666.6955,-332.3738 392.2326,-308.5924 351,-300 272.2966,-283.5991 231.1145,-305.2151 179,-244 154.4396,-215.1507 154.7365,-167.9817 157.274,-141.5421"/>
<polygon fill="#191970" stroke="#191970" points="160.7522,-141.9317 158.4328,-131.5939 153.7992,-141.1218 160.7522,-141.9317"/>
</g>
<!-- Node42 -->
<g id="node42" class="node">
<title>Node42</title>
<polygon fill="#ffffff" stroke="#bfbfbf" points="732,-280.5 732,-299.5 850,-299.5 850,-280.5 732,-280.5"/>
<text text-anchor="middle" x="791" y="-287.5" font-family="Helvetica,sans-Serif" font-size="10.00" fill="#000000">libxml/xmlmemory.h</text>
</g>
<!-- Node41&#45;&gt;Node42 -->
<g id="edge64" class="edge">
<title>Node41&#45;&gt;Node42</title>
<path fill="none" stroke="#191970" d="M821.5551,-336.2455C816.4618,-328.5367 809.2092,-317.5598 803.048,-308.2348"/>
<polygon fill="#191970" stroke="#191970" points="805.8038,-306.0566 797.3711,-299.6427 799.9635,-309.9155 805.8038,-306.0566"/>
</g>
<!-- Node43 -->
<g id="node43" class="node">
<title>Node43</title>
<polygon fill="#ffffff" stroke="#bfbfbf" points="868.5,-280.5 868.5,-299.5 957.5,-299.5 957.5,-280.5 868.5,-280.5"/>
<text text-anchor="middle" x="913" y="-287.5" font-family="Helvetica,sans-Serif" font-size="10.00" fill="#000000">libxml/parser.h</text>
</g>
<!-- Node41&#45;&gt;Node43 -->
<g id="edge65" class="edge">
<title>Node41&#45;&gt;Node43</title>
<path fill="none" stroke="#191970" d="M842.8059,-336.2455C855.7256,-327.7337 874.6931,-315.2375 889.6552,-305.3801"/>
<polygon fill="#191970" stroke="#191970" points="891.9387,-308.067 898.3638,-299.6427 888.0876,-302.2216 891.9387,-308.067"/>
</g>
<!-- Node44 -->
<g id="node44" class="node">
<title>Node44</title>
<polygon fill="#ffffff" stroke="#bfbfbf" points="634.5,-280.5 634.5,-299.5 713.5,-299.5 713.5,-280.5 634.5,-280.5"/>
<text text-anchor="middle" x="674" y="-287.5" font-family="Helvetica,sans-Serif" font-size="10.00" fill="#000000">libxml/tree.h</text>
</g>
<!-- Node41&#45;&gt;Node44 -->
<g id="edge66" class="edge">
<title>Node41&#45;&gt;Node44</title>
<path fill="none" stroke="#191970" d="M801.5265,-336.3733C776.1403,-327.1419 737.6355,-313.1402 709.578,-302.9375"/>
<polygon fill="#191970" stroke="#191970" points="710.7222,-299.6293 700.1281,-299.5011 708.3299,-306.2079 710.7222,-299.6293"/>
</g>
<!-- Node41&#45;&gt;Node45 -->
<g id="edge72" class="edge">
<title>Node41&#45;&gt;Node45</title>
<path fill="none" stroke="#191970" d="M869.6679,-336.4369C911.4266,-326.8529 975.7891,-312.0812 1020.6728,-301.78"/>
<polygon fill="#191970" stroke="#191970" points="1021.5404,-305.172 1030.504,-299.5237 1019.9745,-298.3494 1021.5404,-305.172"/>
</g>
<!-- Node46&#45;&gt;Node13 -->
<g id="edge74" class="edge">
<title>Node46&#45;&gt;Node13</title>
<path fill="none" stroke="#191970" d="M1041.2443,-392.3055C1069.2273,-375.2699 1127.7749,-338.1376 1172,-300 1189.5497,-284.8659 1207.4452,-265.278 1219.4697,-251.383"/>
<polygon fill="#191970" stroke="#191970" points="1222.317,-253.4381 1226.1423,-243.5579 1216.9906,-248.8961 1222.317,-253.4381"/>
</g>
<!-- Node46&#45;&gt;Node41 -->
<g id="edge75" class="edge">
<title>Node46&#45;&gt;Node41</title>
<path fill="none" stroke="#191970" d="M991.1345,-392.3733C957.951,-382.9404 907.245,-368.5265 871.1806,-358.2747"/>
<polygon fill="#191970" stroke="#191970" points="871.9995,-354.8689 861.4236,-355.5011 870.0855,-361.6021 871.9995,-354.8689"/>
</g>
<!-- Node48 -->
<g id="node48" class="node">
<title>Node48</title>
<polygon fill="#ffffff" stroke="#bfbfbf" points="638.5,-336.5 638.5,-355.5 685.5,-355.5 685.5,-336.5 638.5,-336.5"/>
<text text-anchor="middle" x="662" y="-343.5" font-family="Helvetica,sans-Serif" font-size="10.00" fill="#000000">lo/lo.h</text>
</g>
<!-- Node47&#45;&gt;Node48 -->
<g id="edge78" class="edge">
<title>Node47&#45;&gt;Node48</title>
<path fill="none" stroke="#191970" d="M647.1354,-392.2455C649.51,-384.8579 652.8493,-374.4689 655.7615,-365.4087"/>
<polygon fill="#191970" stroke="#191970" points="659.1725,-366.234 658.9006,-355.6427 652.5083,-364.0919 659.1725,-366.234"/>
</g>
<!-- Node49&#45;&gt;Node13 -->
<g id="edge80" class="edge">
<title>Node49&#45;&gt;Node13</title>
<path fill="none" stroke="#191970" d="M1416.0971,-392.1763C1414.5855,-378.8944 1410.793,-354.7186 1402,-336 1388.6581,-307.5978 1384.2762,-298.5959 1359,-280 1337.8125,-264.4122 1310.7745,-253.5948 1287.2682,-246.3862"/>
<polygon fill="#191970" stroke="#191970" points="1288.018,-242.959 1277.4377,-243.5143 1286.055,-249.6781 1288.018,-242.959"/>
</g>
<!-- Node49&#45;&gt;Node41 -->
<g id="edge81" class="edge">
<title>Node49&#45;&gt;Node41</title>
<path fill="none" stroke="#191970" d="M1360.149,-393.1551C1357.0568,-392.7462 1353.9918,-392.3579 1351,-392 1182.6865,-371.8671 982.9091,-356.7095 886.2086,-349.9235"/>
<polygon fill="#191970" stroke="#191970" points="886.2745,-346.4196 876.0552,-349.2152 885.7873,-353.4027 886.2745,-346.4196"/>
</g>
</g>
</svg>
