<?xml version="1.0" encoding="UTF-8" standalone="no"?>
<!DOCTYPE svg PUBLIC "-//W3C//DTD SVG 1.1//EN"
 "http://www.w3.org/Graphics/SVG/1.1/DTD/svg11.dtd">
<!-- Generated by graphviz version 2.40.1 (20161225.0304)
 -->
<!-- Title: src/fweelin_sdlio.cc Pages: 1 -->
<svg width="2322pt" height="532pt"
 viewBox="0.00 0.00 2322.00 532.00" xmlns="http://www.w3.org/2000/svg" xmlns:xlink="http://www.w3.org/1999/xlink">
<g id="graph0" class="graph" transform="scale(1 1) rotate(0) translate(4 528)">
<title>src/fweelin_sdlio.cc</title>
<polygon fill="#ffffff" stroke="transparent" points="-4,4 -4,-528 2318,-528 2318,4 -4,4"/>
<!-- Node0 -->
<g id="node1" class="node">
<title>Node0</title>
<polygon fill="#bfbfbf" stroke="#000000" points="1669,-504.5 1669,-523.5 1781,-523.5 1781,-504.5 1669,-504.5"/>
<text text-anchor="middle" x="1725" y="-511.5" font-family="Helvetica,sans-Serif" font-size="10.00" fill="#000000">src/fweelin_sdlio.cc</text>
</g>
<!-- Node1 -->
<g id="node2" class="node">
<title>Node1</title>
<polygon fill="#ffffff" stroke="#bfbfbf" points="0,-448.5 0,-467.5 68,-467.5 68,-448.5 0,-448.5"/>
<text text-anchor="middle" x="34" y="-455.5" font-family="Helvetica,sans-Serif" font-size="10.00" fill="#000000">sys/time.h</text>
</g>
<!-- Node0&#45;&gt;Node1 -->
<g id="edge1" class="edge">
<title>Node0&#45;&gt;Node1</title>
<path fill="none" stroke="#191970" d="M1668.8623,-513.7656C1418.1398,-512.5131 399.2467,-505.1894 82,-468 80.7398,-467.8523 79.4636,-467.6878 78.1775,-467.5092"/>
<polygon fill="#191970" stroke="#191970" points="78.6576,-464.0414 68.2272,-465.9008 77.5405,-470.9517 78.6576,-464.0414"/>
</g>
<!-- Node2 -->
<g id="node3" class="node">
<title>Node2</title>
<polygon fill="#ffffff" stroke="#bfbfbf" points="162,-336.5 162,-355.5 212,-355.5 212,-336.5 162,-336.5"/>
<text text-anchor="middle" x="187" y="-343.5" font-family="Helvetica,sans-Serif" font-size="10.00" fill="#000000">stdio.h</text>
</g>
<!-- Node0&#45;&gt;Node2 -->
<g id="edge2" class="edge">
<title>Node0&#45;&gt;Node2</title>
<path fill="none" stroke="#191970" d="M1668.9662,-513.5687C1431.9367,-511.5401 518.1489,-501.5911 394,-468 317.5308,-447.3096 240.6027,-390.1799 205.9775,-362.0597"/>
<polygon fill="#191970" stroke="#191970" points="208.0543,-359.2358 198.1119,-355.5754 203.6015,-364.6371 208.0543,-359.2358"/>
</g>
<!-- Node3 -->
<g id="node4" class="node">
<title>Node3</title>
<polygon fill="#ffffff" stroke="#bfbfbf" points="1820.5,-448.5 1820.5,-467.5 1871.5,-467.5 1871.5,-448.5 1820.5,-448.5"/>
<text text-anchor="middle" x="1846" y="-455.5" font-family="Helvetica,sans-Serif" font-size="10.00" fill="#000000">errno.h</text>
</g>
<!-- Node0&#45;&gt;Node3 -->
<g id="edge3" class="edge">
<title>Node0&#45;&gt;Node3</title>
<path fill="none" stroke="#191970" d="M1745.8006,-504.3733C1765.2243,-495.3838 1794.4224,-481.8706 1816.2964,-471.7471"/>
<polygon fill="#191970" stroke="#191970" points="1817.8656,-474.8776 1825.4708,-467.5011 1814.9255,-468.5249 1817.8656,-474.8776"/>
</g>
<!-- Node4 -->
<g id="node5" class="node">
<title>Node4</title>
<polygon fill="#ffffff" stroke="#bfbfbf" points="1890,-448.5 1890,-467.5 1946,-467.5 1946,-448.5 1890,-448.5"/>
<text text-anchor="middle" x="1918" y="-455.5" font-family="Helvetica,sans-Serif" font-size="10.00" fill="#000000">unistd.h</text>
</g>
<!-- Node0&#45;&gt;Node4 -->
<g id="edge4" class="edge">
<title>Node0&#45;&gt;Node4</title>
<path fill="none" stroke="#191970" d="M1758.1779,-504.3733C1792.0201,-494.5537 1844.465,-479.3366 1879.9661,-469.0357"/>
<polygon fill="#191970" stroke="#191970" points="1881.3213,-472.287 1889.9498,-466.1389 1879.3706,-465.5642 1881.3213,-472.287"/>
</g>
<!-- Node5 -->
<g id="node6" class="node">
<title>Node5</title>
<polygon fill="#ffffff" stroke="#bfbfbf" points="230.5,-336.5 230.5,-355.5 283.5,-355.5 283.5,-336.5 230.5,-336.5"/>
<text text-anchor="middle" x="257" y="-343.5" font-family="Helvetica,sans-Serif" font-size="10.00" fill="#000000">stdlib.h</text>
</g>
<!-- Node0&#45;&gt;Node5 -->
<g id="edge5" class="edge">
<title>Node0&#45;&gt;Node5</title>
<path fill="none" stroke="#191970" d="M1668.8143,-513.4313C1463.9099,-511.1079 757.1441,-500.8442 534,-468 435.8833,-453.5584 403.1025,-462.9217 318,-412 297.8203,-399.9253 280.2581,-379.1915 269.2261,-364.1799"/>
<polygon fill="#191970" stroke="#191970" points="271.8647,-361.8489 263.2359,-355.7011 266.1475,-365.888 271.8647,-361.8489"/>
</g>
<!-- Node6 -->
<g id="node7" class="node">
<title>Node6</title>
<polygon fill="#ffffff" stroke="#bfbfbf" points="301.5,-336.5 301.5,-355.5 352.5,-355.5 352.5,-336.5 301.5,-336.5"/>
<text text-anchor="middle" x="327" y="-343.5" font-family="Helvetica,sans-Serif" font-size="10.00" fill="#000000">math.h</text>
</g>
<!-- Node0&#45;&gt;Node6 -->
<g id="edge6" class="edge">
<title>Node0&#45;&gt;Node6</title>
<path fill="none" stroke="#191970" d="M1668.5918,-511.9635C1413.4976,-502.4908 378.1117,-461.1171 331,-412 319.4755,-399.9849 319.7251,-380.4006 322.1069,-365.6797"/>
<polygon fill="#191970" stroke="#191970" points="325.5984,-366.0765 324.1842,-355.5765 318.7419,-364.6667 325.5984,-366.0765"/>
</g>
<!-- Node7 -->
<g id="node8" class="node">
<title>Node7</title>
<polygon fill="#ffffff" stroke="#bfbfbf" points="1964.5,-448.5 1964.5,-467.5 2017.5,-467.5 2017.5,-448.5 1964.5,-448.5"/>
<text text-anchor="middle" x="1991" y="-455.5" font-family="Helvetica,sans-Serif" font-size="10.00" fill="#000000">string.h</text>
</g>
<!-- Node0&#45;&gt;Node7 -->
<g id="edge7" class="edge">
<title>Node0&#45;&gt;Node7</title>
<path fill="none" stroke="#191970" d="M1778.688,-504.4187C1823.2645,-496.2013 1888.5222,-483.5683 1954.5719,-467.9692"/>
<polygon fill="#191970" stroke="#191970" points="1955.404,-471.369 1964.3203,-465.6463 1953.7814,-464.5596 1955.404,-471.369"/>
</g>
<!-- Node8 -->
<g id="node9" class="node">
<title>Node8</title>
<polygon fill="#ffffff" stroke="#bfbfbf" points="692.5,-168.5 692.5,-187.5 755.5,-187.5 755.5,-168.5 692.5,-168.5"/>
<text text-anchor="middle" x="724" y="-175.5" font-family="Helvetica,sans-Serif" font-size="10.00" fill="#000000">pthread.h</text>
</g>
<!-- Node0&#45;&gt;Node8 -->
<g id="edge8" class="edge">
<title>Node0&#45;&gt;Node8</title>
<path fill="none" stroke="#191970" d="M1668.961,-513.0492C1409.3477,-508.5404 333.2631,-488.6719 265,-468 219.911,-454.3458 206.9751,-446.5984 175,-412 150.4621,-385.449 124.0636,-364.7377 146,-336 154.4299,-324.9565 551.4931,-222.2667 682.5321,-188.6191"/>
<polygon fill="#191970" stroke="#191970" points="683.4044,-192.0088 692.2204,-186.1328 681.6643,-185.2285 683.4044,-192.0088"/>
</g>
<!-- Node9 -->
<g id="node10" class="node">
<title>Node9</title>
<polygon fill="#ffffff" stroke="#bfbfbf" points="2036,-448.5 2036,-467.5 2090,-467.5 2090,-448.5 2036,-448.5"/>
<text text-anchor="middle" x="2063" y="-455.5" font-family="Helvetica,sans-Serif" font-size="10.00" fill="#000000">sched.h</text>
</g>
<!-- Node0&#45;&gt;Node9 -->
<g id="edge9" class="edge">
<title>Node0&#45;&gt;Node9</title>
<path fill="none" stroke="#191970" d="M1781.0246,-507.507C1839.7896,-500.2394 1934.9677,-487.1802 2026.0241,-468.0059"/>
<polygon fill="#191970" stroke="#191970" points="2026.9101,-471.3957 2035.9593,-465.8855 2025.449,-464.5499 2026.9101,-471.3957"/>
</g>
<!-- Node10 -->
<g id="node11" class="node">
<title>Node10</title>
<polygon fill="#ffffff" stroke="#bfbfbf" points="2108.5,-448.5 2108.5,-467.5 2185.5,-467.5 2185.5,-448.5 2108.5,-448.5"/>
<text text-anchor="middle" x="2147" y="-455.5" font-family="Helvetica,sans-Serif" font-size="10.00" fill="#000000">sys/mman.h</text>
</g>
<!-- Node0&#45;&gt;Node10 -->
<g id="edge10" class="edge">
<title>Node0&#45;&gt;Node10</title>
<path fill="none" stroke="#191970" d="M1781.2837,-508.5491C1852.65,-501.3102 1979.6704,-487.3363 2098.2959,-467.9982"/>
<polygon fill="#191970" stroke="#191970" points="2098.9806,-471.4327 2108.2792,-466.3546 2097.8434,-464.5257 2098.9806,-471.4327"/>
</g>
<!-- Node11 -->
<g id="node12" class="node">
<title>Node11</title>
<polygon fill="#ffffff" stroke="#bfbfbf" points="1531,-168.5 1531,-187.5 1597,-187.5 1597,-168.5 1531,-168.5"/>
<text text-anchor="middle" x="1564" y="-175.5" font-family="Helvetica,sans-Serif" font-size="10.00" fill="#000000">SDL/SDL.h</text>
</g>
<!-- Node0&#45;&gt;Node11 -->
<g id="edge11" class="edge">
<title>Node0&#45;&gt;Node11</title>
<path fill="none" stroke="#191970" d="M1736.0089,-504.4134C1779.4852,-465.447 1933.0786,-316.6107 1854,-224 1838.1924,-205.4873 1684.518,-188.9909 1607.5176,-181.8088"/>
<polygon fill="#191970" stroke="#191970" points="1607.4624,-178.289 1597.1837,-180.8579 1606.8209,-185.2596 1607.4624,-178.289"/>
</g>
<!-- Node12 -->
<g id="node13" class="node">
<title>Node12</title>
<polygon fill="#ffffff" stroke="#bfbfbf" points="2204,-448.5 2204,-467.5 2314,-467.5 2314,-448.5 2204,-448.5"/>
<text text-anchor="middle" x="2259" y="-455.5" font-family="Helvetica,sans-Serif" font-size="10.00" fill="#000000">SDL/SDL_joystick.h</text>
</g>
<!-- Node0&#45;&gt;Node12 -->
<g id="edge12" class="edge">
<title>Node0&#45;&gt;Node12</title>
<path fill="none" stroke="#191970" d="M1781.1863,-509.5511C1867.5649,-502.4801 2038.412,-487.58 2193.6677,-468.1089"/>
<polygon fill="#191970" stroke="#191970" points="2194.3882,-471.5458 2203.8705,-466.8198 2193.5106,-464.601 2194.3882,-471.5458"/>
</g>
<!-- Node13 -->
<g id="node14" class="node">
<title>Node13</title>
<polygon fill="#ffffff" stroke="#bfbfbf" points="1569.5,-224.5 1569.5,-243.5 1706.5,-243.5 1706.5,-224.5 1569.5,-224.5"/>
<text text-anchor="middle" x="1638" y="-231.5" font-family="Helvetica,sans-Serif" font-size="10.00" fill="#000000">SDL/SDL_gfxPrimitives.h</text>
</g>
<!-- Node0&#45;&gt;Node13 -->
<g id="edge13" class="edge">
<title>Node0&#45;&gt;Node13</title>
<path fill="none" stroke="#191970" d="M1720.8685,-504.3161C1713.0798,-485.1534 1697,-440.8832 1697,-402 1697,-402 1697,-402 1697,-346 1697,-315.4754 1692.5813,-306.8168 1678,-280 1672.1768,-269.2903 1663.4956,-258.9053 1655.7074,-250.7211"/>
<polygon fill="#191970" stroke="#191970" points="1658.1692,-248.2331 1648.6363,-243.6099 1653.2055,-253.1688 1658.1692,-248.2331"/>
</g>
<!-- Node14 -->
<g id="node15" class="node">
<title>Node14</title>
<polygon fill="#ffffff" stroke="#bfbfbf" points="1763,-224.5 1763,-243.5 1845,-243.5 1845,-224.5 1763,-224.5"/>
<text text-anchor="middle" x="1804" y="-231.5" font-family="Helvetica,sans-Serif" font-size="10.00" fill="#000000">SDL/SDL_ttf.h</text>
</g>
<!-- Node0&#45;&gt;Node14 -->
<g id="edge14" class="edge">
<title>Node0&#45;&gt;Node14</title>
<path fill="none" stroke="#191970" d="M1727.7194,-504.3618C1739.0909,-464.0577 1782.9614,-308.5671 1798.5032,-253.4825"/>
<polygon fill="#191970" stroke="#191970" points="1801.9451,-254.1724 1801.2921,-243.5977 1795.2081,-252.2715 1801.9451,-254.1724"/>
</g>
<!-- Node15 -->
<g id="node16" class="node">
<title>Node15</title>
<g id="a_node16"><a xlink:href="fweelin__sdlio_8h.html" target="_top" xlink:title="fweelin_sdlio.h">
<polygon fill="#ffffff" stroke="#000000" points="524,-280.5 524,-299.5 614,-299.5 614,-280.5 524,-280.5"/>
<text text-anchor="middle" x="569" y="-287.5" font-family="Helvetica,sans-Serif" font-size="10.00" fill="#000000">fweelin_sdlio.h</text>
</a>
</g>
</g>
<!-- Node0&#45;&gt;Node15 -->
<g id="edge15" class="edge">
<title>Node0&#45;&gt;Node15</title>
<path fill="none" stroke="#191970" d="M1668.6308,-513.8049C1424.7416,-512.7342 466.8753,-506.1181 338,-468 245.8309,-440.7387 200.0897,-439.7907 153,-356 148.6451,-348.251 147.0701,-342.6218 153,-336 176.6559,-309.5841 406.1087,-296.7076 513.759,-292.0814"/>
<polygon fill="#191970" stroke="#191970" points="513.9416,-295.5769 523.7855,-291.6593 513.6471,-288.5831 513.9416,-295.5769"/>
</g>
<!-- Node29 -->
<g id="node30" class="node">
<title>Node29</title>
<g id="a_node30"><a xlink:href="fweelin__core_8h.html" target="_top" xlink:title="fweelin_core.h">
<polygon fill="#ffffff" stroke="#000000" points="886,-448.5 886,-467.5 974,-467.5 974,-448.5 886,-448.5"/>
<text text-anchor="middle" x="930" y="-455.5" font-family="Helvetica,sans-Serif" font-size="10.00" fill="#000000">fweelin_core.h</text>
</a>
</g>
</g>
<!-- Node0&#45;&gt;Node29 -->
<g id="edge35" class="edge">
<title>Node0&#45;&gt;Node29</title>
<path fill="none" stroke="#191970" d="M1668.7804,-510.0399C1522.1402,-499.7105 1129.3725,-472.0439 984.5826,-461.8448"/>
<polygon fill="#191970" stroke="#191970" points="984.4074,-458.3239 974.1861,-461.1125 983.9155,-465.3066 984.4074,-458.3239"/>
</g>
<!-- Node15&#45;&gt;Node8 -->
<g id="edge16" class="edge">
<title>Node15&#45;&gt;Node8</title>
<path fill="none" stroke="#191970" d="M582.2152,-280.4509C608.9825,-261.1094 669.824,-217.1465 702.424,-193.5904"/>
<polygon fill="#191970" stroke="#191970" points="704.7627,-196.2186 710.8182,-187.5249 700.6629,-190.5448 704.7627,-196.2186"/>
</g>
<!-- Node16 -->
<g id="node17" class="node">
<title>Node16</title>
<g id="a_node17"><a xlink:href="fweelin__event_8h.html" target="_top" xlink:title="fweelin_event.h">
<polygon fill="#ffffff" stroke="#000000" points="748.5,-224.5 748.5,-243.5 843.5,-243.5 843.5,-224.5 748.5,-224.5"/>
<text text-anchor="middle" x="796" y="-231.5" font-family="Helvetica,sans-Serif" font-size="10.00" fill="#000000">fweelin_event.h</text>
</a>
</g>
</g>
<!-- Node15&#45;&gt;Node16 -->
<g id="edge17" class="edge">
<title>Node15&#45;&gt;Node16</title>
<path fill="none" stroke="#191970" d="M607.7648,-280.4369C646.3692,-270.9133 705.7384,-256.2672 747.4572,-245.9753"/>
<polygon fill="#191970" stroke="#191970" points="748.5245,-249.317 757.3951,-243.5237 746.8479,-242.5208 748.5245,-249.317"/>
</g>
<!-- Node16&#45;&gt;Node8 -->
<g id="edge19" class="edge">
<title>Node16&#45;&gt;Node8</title>
<path fill="none" stroke="#191970" d="M783.4586,-224.2455C772.7213,-215.8943 757.0527,-203.7076 744.4953,-193.9408"/>
<polygon fill="#191970" stroke="#191970" points="746.4401,-191.0194 736.3977,-187.6427 742.1425,-196.5449 746.4401,-191.0194"/>
</g>
<!-- Node16&#45;&gt;Node11 -->
<g id="edge20" class="edge">
<title>Node16&#45;&gt;Node11</title>
<path fill="none" stroke="#191970" d="M843.7517,-230.5181C983.0259,-220.3627 1387.339,-190.8815 1520.7348,-181.1548"/>
<polygon fill="#191970" stroke="#191970" points="1521.2467,-184.6268 1530.9656,-180.4088 1520.7375,-177.6454 1521.2467,-184.6268"/>
</g>
<!-- Node17 -->
<g id="node18" class="node">
<title>Node17</title>
<polygon fill="#ffffff" stroke="#bfbfbf" points="816,-168.5 816,-187.5 896,-187.5 896,-168.5 816,-168.5"/>
<text text-anchor="middle" x="856" y="-175.5" font-family="Helvetica,sans-Serif" font-size="10.00" fill="#000000">linux/limits.h</text>
</g>
<!-- Node16&#45;&gt;Node17 -->
<g id="edge18" class="edge">
<title>Node16&#45;&gt;Node17</title>
<path fill="none" stroke="#191970" d="M806.4512,-224.2455C815.2269,-216.0549 827.9554,-204.1749 838.314,-194.5069"/>
<polygon fill="#191970" stroke="#191970" points="840.7461,-197.0246 845.6686,-187.6427 835.9699,-191.9072 840.7461,-197.0246"/>
</g>
<!-- Node18 -->
<g id="node19" class="node">
<title>Node18</title>
<polygon fill="#ffffff" stroke="#bfbfbf" points="761.5,-.5 761.5,-19.5 856.5,-19.5 856.5,-.5 761.5,-.5"/>
<text text-anchor="middle" x="809" y="-7.5" font-family="Helvetica,sans-Serif" font-size="10.00" fill="#000000">jack/ringbuffer.h</text>
</g>
<!-- Node16&#45;&gt;Node18 -->
<g id="edge21" class="edge">
<title>Node16&#45;&gt;Node18</title>
<path fill="none" stroke="#191970" d="M796.5586,-224.375C798.5254,-190.4851 805.1562,-76.2317 807.849,-29.8332"/>
<polygon fill="#191970" stroke="#191970" points="811.3581,-29.7752 808.4435,-19.5891 804.3699,-29.3695 811.3581,-29.7752"/>
</g>
<!-- Node19 -->
<g id="node20" class="node">
<title>Node19</title>
<g id="a_node20"><a xlink:href="fweelin__datatypes_8h.html" target="_top" xlink:title="fweelin_datatypes.h">
<polygon fill="#ffffff" stroke="#000000" points="866,-56.5 866,-75.5 982,-75.5 982,-56.5 866,-56.5"/>
<text text-anchor="middle" x="924" y="-63.5" font-family="Helvetica,sans-Serif" font-size="10.00" fill="#000000">fweelin_datatypes.h</text>
</a>
</g>
</g>
<!-- Node16&#45;&gt;Node19 -->
<g id="edge22" class="edge">
<title>Node16&#45;&gt;Node19</title>
<path fill="none" stroke="#191970" d="M843.5915,-225.0468C865.5529,-218.4637 890.0198,-207.1836 905,-188 928.0996,-158.4186 928.4894,-112.2321 926.4283,-85.992"/>
<polygon fill="#191970" stroke="#191970" points="929.8848,-85.3788 925.4179,-75.7717 922.9187,-86.0675 929.8848,-85.3788"/>
</g>
<!-- Node21 -->
<g id="node22" class="node">
<title>Node21</title>
<g id="a_node22"><a xlink:href="fweelin__block_8h.html" target="_top" xlink:title="fweelin_block.h">
<polygon fill="#ffffff" stroke="#000000" points="1214.5,-168.5 1214.5,-187.5 1307.5,-187.5 1307.5,-168.5 1214.5,-168.5"/>
<text text-anchor="middle" x="1261" y="-175.5" font-family="Helvetica,sans-Serif" font-size="10.00" fill="#000000">fweelin_block.h</text>
</a>
</g>
</g>
<!-- Node16&#45;&gt;Node21 -->
<g id="edge25" class="edge">
<title>Node16&#45;&gt;Node21</title>
<path fill="none" stroke="#191970" d="M843.7492,-224.7395C845.5175,-224.4851 847.2718,-224.2379 849,-224 975.1845,-206.6317 1124.2431,-190.8425 1204.0322,-183.0716"/>
<polygon fill="#191970" stroke="#191970" points="1204.7353,-186.5201 1214.3521,-182.074 1204.0617,-179.5526 1204.7353,-186.5201"/>
</g>
<!-- Node19&#45;&gt;Node18 -->
<g id="edge23" class="edge">
<title>Node19&#45;&gt;Node18</title>
<path fill="none" stroke="#191970" d="M904.2308,-56.3733C885.8531,-47.4241 858.2688,-33.9917 837.5107,-23.8835"/>
<polygon fill="#191970" stroke="#191970" points="839.0343,-20.7325 828.5112,-19.5011 835.9696,-27.026 839.0343,-20.7325"/>
</g>
<!-- Node20 -->
<g id="node21" class="node">
<title>Node20</title>
<polygon fill="#ffffff" stroke="#bfbfbf" points="896,-.5 896,-19.5 952,-19.5 952,-.5 896,-.5"/>
<text text-anchor="middle" x="924" y="-7.5" font-family="Helvetica,sans-Serif" font-size="10.00" fill="#000000">assert.h</text>
</g>
<!-- Node19&#45;&gt;Node20 -->
<g id="edge24" class="edge">
<title>Node19&#45;&gt;Node20</title>
<path fill="none" stroke="#191970" d="M924,-56.2455C924,-48.9382 924,-38.6944 924,-29.7046"/>
<polygon fill="#191970" stroke="#191970" points="927.5001,-29.6426 924,-19.6427 920.5001,-29.6427 927.5001,-29.6426"/>
</g>
<!-- Node21&#45;&gt;Node16 -->
<g id="edge34" class="edge">
<title>Node21&#45;&gt;Node16</title>
<path fill="none" stroke="#191970" d="M1214.2992,-183.2181C1140.3834,-191.0397 992.3969,-206.7401 867,-224 862.6913,-224.5931 858.2201,-225.2441 853.7074,-225.9206"/>
<polygon fill="#191970" stroke="#191970" points="853.1674,-222.4624 843.8093,-227.4299 854.2227,-229.3824 853.1674,-222.4624"/>
</g>
<!-- Node22 -->
<g id="node23" class="node">
<title>Node22</title>
<polygon fill="#ffffff" stroke="#bfbfbf" points="1217.5,-112.5 1217.5,-131.5 1304.5,-131.5 1304.5,-112.5 1217.5,-112.5"/>
<text text-anchor="middle" x="1261" y="-119.5" font-family="Helvetica,sans-Serif" font-size="10.00" fill="#000000">vorbis/codec.h</text>
</g>
<!-- Node21&#45;&gt;Node22 -->
<g id="edge26" class="edge">
<title>Node21&#45;&gt;Node22</title>
<path fill="none" stroke="#191970" d="M1261,-168.2455C1261,-160.9382 1261,-150.6944 1261,-141.7046"/>
<polygon fill="#191970" stroke="#191970" points="1264.5001,-141.6426 1261,-131.6427 1257.5001,-141.6427 1264.5001,-141.6426"/>
</g>
<!-- Node23 -->
<g id="node24" class="node">
<title>Node23</title>
<polygon fill="#ffffff" stroke="#bfbfbf" points="1323,-112.5 1323,-131.5 1427,-131.5 1427,-112.5 1323,-112.5"/>
<text text-anchor="middle" x="1375" y="-119.5" font-family="Helvetica,sans-Serif" font-size="10.00" fill="#000000">vorbis/vorbisfile.h</text>
</g>
<!-- Node21&#45;&gt;Node23 -->
<g id="edge27" class="edge">
<title>Node21&#45;&gt;Node23</title>
<path fill="none" stroke="#191970" d="M1280.5973,-168.3733C1298.7331,-159.4644 1325.9135,-146.1127 1346.4587,-136.0203"/>
<polygon fill="#191970" stroke="#191970" points="1348.2261,-139.0517 1355.6584,-131.5011 1345.1397,-132.7688 1348.2261,-139.0517"/>
</g>
<!-- Node24 -->
<g id="node25" class="node">
<title>Node24</title>
<polygon fill="#ffffff" stroke="#bfbfbf" points="1445,-112.5 1445,-131.5 1551,-131.5 1551,-112.5 1445,-112.5"/>
<text text-anchor="middle" x="1498" y="-119.5" font-family="Helvetica,sans-Serif" font-size="10.00" fill="#000000">vorbis/vorbisenc.h</text>
</g>
<!-- Node21&#45;&gt;Node24 -->
<g id="edge28" class="edge">
<title>Node21&#45;&gt;Node24</title>
<path fill="none" stroke="#191970" d="M1301.4725,-168.4369C1341.948,-158.8731 1404.2867,-144.1432 1447.8703,-133.845"/>
<polygon fill="#191970" stroke="#191970" points="1448.7673,-137.2295 1457.6945,-131.5237 1447.1576,-130.4171 1448.7673,-137.2295"/>
</g>
<!-- Node25 -->
<g id="node26" class="node">
<title>Node25</title>
<polygon fill="#ffffff" stroke="#bfbfbf" points="1141,-112.5 1141,-131.5 1199,-131.5 1199,-112.5 1141,-112.5"/>
<text text-anchor="middle" x="1170" y="-119.5" font-family="Helvetica,sans-Serif" font-size="10.00" fill="#000000">sndfile.h</text>
</g>
<!-- Node21&#45;&gt;Node25 -->
<g id="edge29" class="edge">
<title>Node21&#45;&gt;Node25</title>
<path fill="none" stroke="#191970" d="M1245.149,-168.2455C1231.1868,-159.6534 1210.6272,-147.0014 1194.5404,-137.1018"/>
<polygon fill="#191970" stroke="#191970" points="1196.0203,-133.9029 1185.6693,-131.6427 1192.3516,-139.8645 1196.0203,-133.9029"/>
</g>
<!-- Node26 -->
<g id="node27" class="node">
<title>Node26</title>
<g id="a_node27"><a xlink:href="fweelin__audioio_8h.html" target="_top" xlink:title="fweelin_audioio.h">
<polygon fill="#ffffff" stroke="#000000" points="1569.5,-112.5 1569.5,-131.5 1672.5,-131.5 1672.5,-112.5 1569.5,-112.5"/>
<text text-anchor="middle" x="1621" y="-119.5" font-family="Helvetica,sans-Serif" font-size="10.00" fill="#000000">fweelin_audioio.h</text>
</a>
</g>
</g>
<!-- Node21&#45;&gt;Node26 -->
<g id="edge30" class="edge">
<title>Node21&#45;&gt;Node26</title>
<path fill="none" stroke="#191970" d="M1307.6337,-170.9708C1364.4673,-162.3719 1463.7068,-147.2534 1559.2891,-132.1007"/>
<polygon fill="#191970" stroke="#191970" points="1560.0936,-135.5169 1569.4211,-130.4922 1558.996,-128.6035 1560.0936,-135.5169"/>
</g>
<!-- Node28 -->
<g id="node29" class="node">
<title>Node28</title>
<g id="a_node29"><a xlink:href="fweelin__mem_8h.html" target="_top" xlink:title="fweelin_mem.h">
<polygon fill="#ffffff" stroke="#000000" points="1031,-112.5 1031,-131.5 1123,-131.5 1123,-112.5 1031,-112.5"/>
<text text-anchor="middle" x="1077" y="-119.5" font-family="Helvetica,sans-Serif" font-size="10.00" fill="#000000">fweelin_mem.h</text>
</a>
</g>
</g>
<!-- Node21&#45;&gt;Node28 -->
<g id="edge32" class="edge">
<title>Node21&#45;&gt;Node28</title>
<path fill="none" stroke="#191970" d="M1229.3693,-168.3733C1198.6404,-159.021 1151.824,-144.7725 1118.1978,-134.5385"/>
<polygon fill="#191970" stroke="#191970" points="1118.8038,-131.0644 1108.218,-131.5011 1116.7656,-137.7612 1118.8038,-131.0644"/>
</g>
<!-- Node27 -->
<g id="node28" class="node">
<title>Node27</title>
<polygon fill="#ffffff" stroke="#bfbfbf" points="1586.5,-56.5 1586.5,-75.5 1655.5,-75.5 1655.5,-56.5 1586.5,-56.5"/>
<text text-anchor="middle" x="1621" y="-63.5" font-family="Helvetica,sans-Serif" font-size="10.00" fill="#000000">jack/jack.h</text>
</g>
<!-- Node26&#45;&gt;Node27 -->
<g id="edge31" class="edge">
<title>Node26&#45;&gt;Node27</title>
<path fill="none" stroke="#191970" d="M1621,-112.2455C1621,-104.9382 1621,-94.6944 1621,-85.7046"/>
<polygon fill="#191970" stroke="#191970" points="1624.5001,-85.6426 1621,-75.6427 1617.5001,-85.6427 1624.5001,-85.6426"/>
</g>
<!-- Node28&#45;&gt;Node19 -->
<g id="edge33" class="edge">
<title>Node28&#45;&gt;Node19</title>
<path fill="none" stroke="#191970" d="M1050.6984,-112.3733C1025.5872,-103.1822 987.5562,-89.2624 959.7128,-79.0713"/>
<polygon fill="#191970" stroke="#191970" points="960.5522,-75.6516 949.9584,-75.5011 958.1462,-82.2251 960.5522,-75.6516"/>
</g>
<!-- Node29&#45;&gt;Node15 -->
<g id="edge52" class="edge">
<title>Node29&#45;&gt;Node15</title>
<path fill="none" stroke="#191970" d="M885.9472,-456.5289C811.1412,-453.2085 663.447,-442.8382 623,-412 614.2741,-405.3471 588.8794,-341.6992 576.2734,-309.0773"/>
<polygon fill="#191970" stroke="#191970" points="579.5199,-307.7679 572.6673,-299.6875 572.9852,-310.2776 579.5199,-307.7679"/>
</g>
<!-- Node29&#45;&gt;Node16 -->
<g id="edge65" class="edge">
<title>Node29&#45;&gt;Node16</title>
<path fill="none" stroke="#191970" d="M921.2813,-448.4006C900.2959,-424.8313 846.4609,-361.5389 816,-300 808.6969,-285.2458 803.4692,-267.3008 800.1943,-253.8489"/>
<polygon fill="#191970" stroke="#191970" points="803.5333,-252.7479 797.9,-243.7748 796.708,-254.3024 803.5333,-252.7479"/>
</g>
<!-- Node29&#45;&gt;Node21 -->
<g id="edge64" class="edge">
<title>Node29&#45;&gt;Node21</title>
<path fill="none" stroke="#191970" d="M974.2195,-455.562C1060.9097,-450.3084 1249.9692,-436.3797 1310,-412 1386.0994,-381.0945 1420.5463,-373.603 1457,-300 1488.0278,-237.3522 1385.7882,-203.4382 1317.4771,-188.1854"/>
<polygon fill="#191970" stroke="#191970" points="1318.1777,-184.7561 1307.6645,-186.0692 1316.7019,-191.5988 1318.1777,-184.7561"/>
</g>
<!-- Node29&#45;&gt;Node26 -->
<g id="edge53" class="edge">
<title>Node29&#45;&gt;Node26</title>
<path fill="none" stroke="#191970" d="M974.1391,-456.5514C1142.5121,-450.4498 1735,-423.4744 1735,-346 1735,-346 1735,-346 1735,-234 1735,-187.4628 1686.0617,-153.828 1652.3136,-136.1659"/>
<polygon fill="#191970" stroke="#191970" points="1653.7576,-132.9746 1643.251,-131.6105 1650.6138,-139.2289 1653.7576,-132.9746"/>
</g>
<!-- Node30 -->
<g id="node31" class="node">
<title>Node30</title>
<polygon fill="#ffffff" stroke="#bfbfbf" points="958.5,-392.5 958.5,-411.5 1037.5,-411.5 1037.5,-392.5 958.5,-392.5"/>
<text text-anchor="middle" x="998" y="-399.5" font-family="Helvetica,sans-Serif" font-size="10.00" fill="#000000">nettle/md5.h</text>
</g>
<!-- Node29&#45;&gt;Node30 -->
<g id="edge36" class="edge">
<title>Node29&#45;&gt;Node30</title>
<path fill="none" stroke="#191970" d="M941.8447,-448.2455C951.888,-439.9746 966.4995,-427.9416 978.3004,-418.2232"/>
<polygon fill="#191970" stroke="#191970" points="980.7967,-420.7015 986.291,-411.6427 976.3467,-415.298 980.7967,-420.7015"/>
</g>
<!-- Node31 -->
<g id="node32" class="node">
<title>Node31</title>
<g id="a_node32"><a xlink:href="fweelin__amixer_8h.html" target="_top" xlink:title="fweelin_amixer.h">
<polygon fill="#ffffff" stroke="#000000" points="340.5,-392.5 340.5,-411.5 441.5,-411.5 441.5,-392.5 340.5,-392.5"/>
<text text-anchor="middle" x="391" y="-399.5" font-family="Helvetica,sans-Serif" font-size="10.00" fill="#000000">fweelin_amixer.h</text>
</a>
</g>
</g>
<!-- Node29&#45;&gt;Node31 -->
<g id="edge37" class="edge">
<title>Node29&#45;&gt;Node31</title>
<path fill="none" stroke="#191970" d="M885.9554,-454.9502C802.4601,-448.5866 615.8554,-432.8437 452.0953,-412.6114"/>
<polygon fill="#191970" stroke="#191970" points="452.1962,-409.097 441.8404,-411.3347 451.3314,-416.0434 452.1962,-409.097"/>
</g>
<!-- Node34 -->
<g id="node35" class="node">
<title>Node34</title>
<g id="a_node35"><a xlink:href="fweelin__midiio_8h.html" target="_top" xlink:title="fweelin_midiio.h">
<polygon fill="#ffffff" stroke="#000000" points="632,-392.5 632,-411.5 730,-411.5 730,-392.5 632,-392.5"/>
<text text-anchor="middle" x="681" y="-399.5" font-family="Helvetica,sans-Serif" font-size="10.00" fill="#000000">fweelin_midiio.h</text>
</a>
</g>
</g>
<!-- Node29&#45;&gt;Node34 -->
<g id="edge44" class="edge">
<title>Node29&#45;&gt;Node34</title>
<path fill="none" stroke="#191970" d="M887.4783,-448.4369C844.8639,-438.8529 779.1824,-424.0812 733.379,-413.78"/>
<polygon fill="#191970" stroke="#191970" points="733.8706,-410.3032 723.3463,-411.5237 732.3346,-417.1326 733.8706,-410.3032"/>
</g>
<!-- Node35 -->
<g id="node36" class="node">
<title>Node35</title>
<g id="a_node36"><a xlink:href="fweelin__videoio_8h.html" target="_top" xlink:title="fweelin_videoio.h">
<polygon fill="#ffffff" stroke="#000000" points="1565.5,-280.5 1565.5,-299.5 1668.5,-299.5 1668.5,-280.5 1565.5,-280.5"/>
<text text-anchor="middle" x="1617" y="-287.5" font-family="Helvetica,sans-Serif" font-size="10.00" fill="#000000">fweelin_videoio.h</text>
</a>
</g>
</g>
<!-- Node29&#45;&gt;Node35 -->
<g id="edge47" class="edge">
<title>Node29&#45;&gt;Node35</title>
<path fill="none" stroke="#191970" d="M974.1932,-456.4585C1101.9039,-451.7337 1465.4073,-436.2838 1513,-412 1558.2635,-388.9047 1591.8629,-336.6972 1607.4126,-308.6504"/>
<polygon fill="#191970" stroke="#191970" points="1610.673,-309.9763 1612.313,-299.5091 1604.5036,-306.669 1610.673,-309.9763"/>
</g>
<!-- Node36 -->
<g id="node37" class="node">
<title>Node36</title>
<g id="a_node37"><a xlink:href="fweelin__rcu_8h.html" target="_top" xlink:title="fweelin_rcu.h">
<polygon fill="#ffffff" stroke="#000000" points="592,-168.5 592,-187.5 674,-187.5 674,-168.5 592,-168.5"/>
<text text-anchor="middle" x="633" y="-175.5" font-family="Helvetica,sans-Serif" font-size="10.00" fill="#000000">fweelin_rcu.h</text>
</a>
</g>
</g>
<!-- Node29&#45;&gt;Node36 -->
<g id="edge54" class="edge">
<title>Node29&#45;&gt;Node36</title>
<path fill="none" stroke="#191970" d="M885.8365,-455.5976C779.999,-448.7602 517.2178,-425.0135 471,-356 425.6289,-288.2509 543.5531,-220.3625 602.1899,-191.9113"/>
<polygon fill="#191970" stroke="#191970" points="603.8665,-194.9897 611.3932,-187.5332 600.8594,-188.6685 603.8665,-194.9897"/>
</g>
<!-- Node38 -->
<g id="node39" class="node">
<title>Node38</title>
<g id="a_node39"><a xlink:href="fweelin__core__dsp_8h.html" target="_top" xlink:title="fweelin_core_dsp.h">
<polygon fill="#ffffff" stroke="#000000" points="754,-392.5 754,-411.5 864,-411.5 864,-392.5 754,-392.5"/>
<text text-anchor="middle" x="809" y="-399.5" font-family="Helvetica,sans-Serif" font-size="10.00" fill="#000000">fweelin_core_dsp.h</text>
</a>
</g>
</g>
<!-- Node29&#45;&gt;Node38 -->
<g id="edge58" class="edge">
<title>Node29&#45;&gt;Node38</title>
<path fill="none" stroke="#191970" d="M903.9573,-448.3733C882.9651,-439.4644 853.8836,-426.1127 833.3554,-416.0203"/>
<polygon fill="#191970" stroke="#191970" points="834.8218,-412.8404 824.3119,-411.5011 831.6927,-419.1021 834.8218,-412.8404"/>
</g>
<!-- Node41 -->
<g id="node42" class="node">
<title>Node41</title>
<g id="a_node42"><a xlink:href="fweelin__config_8h.html" target="_top" xlink:title="fweelin_config.h">
<polygon fill="#ffffff" stroke="#000000" points="1121,-336.5 1121,-355.5 1217,-355.5 1217,-336.5 1121,-336.5"/>
<text text-anchor="middle" x="1169" y="-343.5" font-family="Helvetica,sans-Serif" font-size="10.00" fill="#000000">fweelin_config.h</text>
</a>
</g>
</g>
<!-- Node29&#45;&gt;Node41 -->
<g id="edge66" class="edge">
<title>Node29&#45;&gt;Node41</title>
<path fill="none" stroke="#191970" d="M974.2061,-456.0421C1036.602,-452.2462 1145.6406,-441.4717 1170,-412 1180.4721,-399.3302 1178.8951,-380.1382 1175.4838,-365.7105"/>
<polygon fill="#191970" stroke="#191970" points="1178.7699,-364.4675 1172.6867,-355.793 1172.0327,-366.3677 1178.7699,-364.4675"/>
</g>
<!-- Node45 -->
<g id="node46" class="node">
<title>Node45</title>
<g id="a_node46"><a xlink:href="fweelin__fluidsynth_8h.html" target="_top" xlink:title="fweelin_fluidsynth.h">
<polygon fill="#ffffff" stroke="#000000" points="824.5,-280.5 824.5,-299.5 939.5,-299.5 939.5,-280.5 824.5,-280.5"/>
<text text-anchor="middle" x="882" y="-287.5" font-family="Helvetica,sans-Serif" font-size="10.00" fill="#000000">fweelin_fluidsynth.h</text>
</a>
</g>
</g>
<!-- Node29&#45;&gt;Node45 -->
<g id="edge80" class="edge">
<title>Node29&#45;&gt;Node45</title>
<path fill="none" stroke="#191970" d="M929.0422,-448.261C926.7711,-427.2552 920.1555,-376.3291 906,-336 902.655,-326.4701 897.6361,-316.4638 893.0514,-308.2266"/>
<polygon fill="#191970" stroke="#191970" points="896.0382,-306.4001 887.9949,-299.504 889.9822,-309.9108 896.0382,-306.4001"/>
</g>
<!-- Node46 -->
<g id="node47" class="node">
<title>Node46</title>
<g id="a_node47"><a xlink:href="fweelin__browser_8h.html" target="_top" xlink:title="fweelin_browser.h">
<polygon fill="#ffffff" stroke="#000000" points="1055.5,-392.5 1055.5,-411.5 1160.5,-411.5 1160.5,-392.5 1055.5,-392.5"/>
<text text-anchor="middle" x="1108" y="-399.5" font-family="Helvetica,sans-Serif" font-size="10.00" fill="#000000">fweelin_browser.h</text>
</a>
</g>
</g>
<!-- Node29&#45;&gt;Node46 -->
<g id="edge77" class="edge">
<title>Node29&#45;&gt;Node46</title>
<path fill="none" stroke="#191970" d="M960.5993,-448.3733C990.3261,-439.021 1035.6159,-424.7725 1068.1456,-414.5385"/>
<polygon fill="#191970" stroke="#191970" points="1069.3113,-417.8409 1077.8,-411.5011 1067.2105,-411.1636 1069.3113,-417.8409"/>
</g>
<!-- Node47 -->
<g id="node48" class="node">
<title>Node47</title>
<g id="a_node48"><a xlink:href="fweelin__osc_8h.html" target="_top" xlink:title="fweelin_osc.h">
<polygon fill="#ffffff" stroke="#000000" points="1217.5,-392.5 1217.5,-411.5 1300.5,-411.5 1300.5,-392.5 1217.5,-392.5"/>
<text text-anchor="middle" x="1259" y="-399.5" font-family="Helvetica,sans-Serif" font-size="10.00" fill="#000000">fweelin_osc.h</text>
</a>
</g>
</g>
<!-- Node29&#45;&gt;Node47 -->
<g id="edge81" class="edge">
<title>Node29&#45;&gt;Node47</title>
<path fill="none" stroke="#191970" d="M974.4714,-450.6438C1028.523,-441.6712 1122.4944,-425.9702 1203,-412 1204.4596,-411.7467 1205.9404,-411.4888 1207.4349,-411.2276"/>
<polygon fill="#191970" stroke="#191970" points="1208.1755,-414.6512 1217.4181,-409.472 1206.963,-407.757 1208.1755,-414.6512"/>
</g>
<!-- Node31&#45;&gt;Node2 -->
<g id="edge38" class="edge">
<title>Node31&#45;&gt;Node2</title>
<path fill="none" stroke="#191970" d="M354.7894,-392.4466C322.4161,-383.8513 273.4331,-370.7131 222.1696,-356.2915"/>
<polygon fill="#191970" stroke="#191970" points="222.808,-352.835 212.2333,-353.488 220.9071,-359.572 222.808,-352.835"/>
</g>
<!-- Node31&#45;&gt;Node5 -->
<g id="edge39" class="edge">
<title>Node31&#45;&gt;Node5</title>
<path fill="none" stroke="#191970" d="M367.9646,-392.3733C346.2612,-383.3032 313.5382,-369.6279 289.245,-359.4755"/>
<polygon fill="#191970" stroke="#191970" points="290.3111,-356.1278 279.7348,-355.5011 287.6119,-362.5865 290.3111,-356.1278"/>
</g>
<!-- Node31&#45;&gt;Node6 -->
<g id="edge41" class="edge">
<title>Node31&#45;&gt;Node6</title>
<path fill="none" stroke="#191970" d="M379.8521,-392.2455C370.4913,-384.0549 356.9142,-372.1749 345.8651,-362.5069"/>
<polygon fill="#191970" stroke="#191970" points="347.8508,-359.5937 338.0202,-355.6427 343.2412,-364.8618 347.8508,-359.5937"/>
</g>
<!-- Node31&#45;&gt;Node29 -->
<g id="edge43" class="edge">
<title>Node31&#45;&gt;Node29</title>
<path fill="none" stroke="#191970" d="M441.7564,-408.7999C449.5809,-409.9441 457.523,-411.0628 465,-412 613.4008,-430.6016 788.752,-445.8832 875.6907,-453.2486"/>
<polygon fill="#191970" stroke="#191970" points="875.5876,-456.7523 885.8469,-454.1073 876.1773,-449.7772 875.5876,-456.7523"/>
</g>
<!-- Node32 -->
<g id="node33" class="node">
<title>Node32</title>
<polygon fill="#ffffff" stroke="#bfbfbf" points="370.5,-336.5 370.5,-355.5 423.5,-355.5 423.5,-336.5 370.5,-336.5"/>
<text text-anchor="middle" x="397" y="-343.5" font-family="Helvetica,sans-Serif" font-size="10.00" fill="#000000">ctype.h</text>
</g>
<!-- Node31&#45;&gt;Node32 -->
<g id="edge40" class="edge">
<title>Node31&#45;&gt;Node32</title>
<path fill="none" stroke="#191970" d="M392.0451,-392.2455C392.828,-384.9382 393.9256,-374.6944 394.8888,-365.7046"/>
<polygon fill="#191970" stroke="#191970" points="398.3815,-365.9587 395.9669,-355.6427 391.4214,-365.2129 398.3815,-365.9587"/>
</g>
<!-- Node33 -->
<g id="node34" class="node">
<title>Node33</title>
<polygon fill="#ffffff" stroke="#bfbfbf" points="480,-336.5 480,-355.5 576,-355.5 576,-336.5 480,-336.5"/>
<text text-anchor="middle" x="528" y="-343.5" font-family="Helvetica,sans-Serif" font-size="10.00" fill="#000000">alsa/asoundlib.h</text>
</g>
<!-- Node31&#45;&gt;Node33 -->
<g id="edge42" class="edge">
<title>Node31&#45;&gt;Node33</title>
<path fill="none" stroke="#191970" d="M414.5511,-392.3733C436.8391,-383.2629 470.4937,-369.5062 495.3637,-359.3404"/>
<polygon fill="#191970" stroke="#191970" points="496.8239,-362.5247 504.7562,-355.5011 494.1753,-356.0451 496.8239,-362.5247"/>
</g>
<!-- Node34&#45;&gt;Node16 -->
<g id="edge46" class="edge">
<title>Node34&#45;&gt;Node16</title>
<path fill="none" stroke="#191970" d="M673.6102,-392.219C664.5841,-378.9855 651.6096,-354.8643 661,-336 682.2074,-293.3965 730.6391,-263.8656 763.3443,-247.9238"/>
<polygon fill="#191970" stroke="#191970" points="764.9714,-251.0264 772.5285,-243.6006 761.9901,-244.693 764.9714,-251.0264"/>
</g>
<!-- Node34&#45;&gt;Node33 -->
<g id="edge45" class="edge">
<title>Node34&#45;&gt;Node33</title>
<path fill="none" stroke="#191970" d="M654.6984,-392.3733C629.5872,-383.1822 591.5562,-369.2624 563.7128,-359.0713"/>
<polygon fill="#191970" stroke="#191970" points="564.5522,-355.6516 553.9584,-355.5011 562.1462,-362.2251 564.5522,-355.6516"/>
</g>
<!-- Node35&#45;&gt;Node11 -->
<g id="edge49" class="edge">
<title>Node35&#45;&gt;Node11</title>
<path fill="none" stroke="#191970" d="M1598.1176,-280.3676C1585.03,-272.5389 1568.6351,-260.1524 1561,-244 1554.1153,-229.435 1555.6881,-210.9853 1558.5105,-197.2977"/>
<polygon fill="#191970" stroke="#191970" points="1561.9291,-198.0519 1560.9042,-187.5068 1555.1294,-196.3894 1561.9291,-198.0519"/>
</g>
<!-- Node35&#45;&gt;Node13 -->
<g id="edge50" class="edge">
<title>Node35&#45;&gt;Node13</title>
<path fill="none" stroke="#191970" d="M1620.6579,-280.2455C1623.4584,-272.7776 1627.409,-262.2427 1630.8324,-253.1137"/>
<polygon fill="#191970" stroke="#191970" points="1634.1499,-254.2349 1634.384,-243.6427 1627.5955,-251.777 1634.1499,-254.2349"/>
</g>
<!-- Node35&#45;&gt;Node14 -->
<g id="edge51" class="edge">
<title>Node35&#45;&gt;Node14</title>
<path fill="none" stroke="#191970" d="M1649.1464,-280.3733C1680.5109,-270.9807 1728.3665,-256.6496 1762.5716,-246.4064"/>
<polygon fill="#191970" stroke="#191970" points="1763.6975,-249.7229 1772.273,-243.5011 1761.6893,-243.0171 1763.6975,-249.7229"/>
</g>
<!-- Node35&#45;&gt;Node16 -->
<g id="edge48" class="edge">
<title>Node35&#45;&gt;Node16</title>
<path fill="none" stroke="#191970" d="M1565.3318,-286.4757C1419.704,-276.5425 1006.5989,-248.3648 853.774,-237.9407"/>
<polygon fill="#191970" stroke="#191970" points="853.8733,-234.4395 843.6583,-237.2507 853.3969,-241.4232 853.8733,-234.4395"/>
</g>
<!-- Node36&#45;&gt;Node19 -->
<g id="edge56" class="edge">
<title>Node36&#45;&gt;Node19</title>
<path fill="none" stroke="#191970" d="M657.8105,-168.4509C709.782,-148.4482 830.1739,-102.1117 889.5796,-79.2477"/>
<polygon fill="#191970" stroke="#191970" points="891.1769,-82.3833 899.2523,-75.5249 888.6625,-75.8505 891.1769,-82.3833"/>
</g>
<!-- Node36&#45;&gt;Node28 -->
<g id="edge57" class="edge">
<title>Node36&#45;&gt;Node28</title>
<path fill="none" stroke="#191970" d="M674.1477,-169.6492C677.4756,-169.06 680.7908,-168.5017 684,-168 803.2721,-149.3548 943.9862,-134.6314 1020.4994,-127.2317"/>
<polygon fill="#191970" stroke="#191970" points="1021.2412,-130.6767 1030.8607,-126.2366 1020.5719,-123.7087 1021.2412,-130.6767"/>
</g>
<!-- Node37 -->
<g id="node38" class="node">
<title>Node37</title>
<polygon fill="#ffffff" stroke="#bfbfbf" points="606.5,-112.5 606.5,-131.5 659.5,-131.5 659.5,-112.5 606.5,-112.5"/>
<text text-anchor="middle" x="633" y="-119.5" font-family="Helvetica,sans-Serif" font-size="10.00" fill="#000000">stdint.h</text>
</g>
<!-- Node36&#45;&gt;Node37 -->
<g id="edge55" class="edge">
<title>Node36&#45;&gt;Node37</title>
<path fill="none" stroke="#191970" d="M633,-168.2455C633,-160.9382 633,-150.6944 633,-141.7046"/>
<polygon fill="#191970" stroke="#191970" points="636.5001,-141.6426 633,-131.6427 629.5001,-141.6427 636.5001,-141.6426"/>
</g>
<!-- Node38&#45;&gt;Node16 -->
<g id="edge62" class="edge">
<title>Node38&#45;&gt;Node16</title>
<path fill="none" stroke="#191970" d="M809.4863,-392.1912C809.6926,-378.4957 808.3085,-353.3741 797,-336 781.4663,-312.1344 757.3277,-325.1642 744,-300 733.9668,-281.0562 752.5873,-262.1131 770.2711,-249.4122"/>
<polygon fill="#191970" stroke="#191970" points="772.4065,-252.1939 778.7474,-243.706 768.4974,-246.3871 772.4065,-252.1939"/>
</g>
<!-- Node38&#45;&gt;Node21 -->
<g id="edge63" class="edge">
<title>Node38&#45;&gt;Node21</title>
<path fill="none" stroke="#191970" d="M810.6209,-392.1631C812.0714,-382.872 814.1033,-368.5318 815,-356 815.1507,-353.8941 814.6736,-281.6426 816,-280 864.3607,-220.1128 1095.5085,-192.3837 1204.2323,-182.4893"/>
<polygon fill="#191970" stroke="#191970" points="1204.7116,-185.9605 1214.3616,-181.5869 1204.0904,-178.9881 1204.7116,-185.9605"/>
</g>
<!-- Node38&#45;&gt;Node29 -->
<g id="edge61" class="edge">
<title>Node38&#45;&gt;Node29</title>
<path fill="none" stroke="#191970" d="M835.0802,-411.6427C855.8995,-420.4793 884.6581,-433.6773 905.144,-443.7338"/>
<polygon fill="#191970" stroke="#191970" points="903.6794,-446.9144 914.1903,-448.2455 906.8036,-440.6503 903.6794,-446.9144"/>
</g>
<!-- Node39 -->
<g id="node40" class="node">
<title>Node39</title>
<polygon fill="#ffffff" stroke="#bfbfbf" points="744,-336.5 744,-355.5 788,-355.5 788,-336.5 744,-336.5"/>
<text text-anchor="middle" x="766" y="-343.5" font-family="Helvetica,sans-Serif" font-size="10.00" fill="#000000">string</text>
</g>
<!-- Node38&#45;&gt;Node39 -->
<g id="edge59" class="edge">
<title>Node38&#45;&gt;Node39</title>
<path fill="none" stroke="#191970" d="M801.51,-392.2455C795.4674,-384.3761 786.8097,-373.101 779.5559,-363.6542"/>
<polygon fill="#191970" stroke="#191970" points="782.2705,-361.4426 773.4042,-355.6427 776.7185,-365.7058 782.2705,-361.4426"/>
</g>
<!-- Node40 -->
<g id="node41" class="node">
<title>Node40</title>
<polygon fill="#ffffff" stroke="#bfbfbf" points="670,-336.5 670,-355.5 726,-355.5 726,-336.5 670,-336.5"/>
<text text-anchor="middle" x="698" y="-343.5" font-family="Helvetica,sans-Serif" font-size="10.00" fill="#000000">sstream</text>
</g>
<!-- Node38&#45;&gt;Node40 -->
<g id="edge60" class="edge">
<title>Node38&#45;&gt;Node40</title>
<path fill="none" stroke="#191970" d="M789.9184,-392.3733C772.2598,-383.4644 745.7947,-370.1127 725.7902,-360.0203"/>
<polygon fill="#191970" stroke="#191970" points="727.3372,-356.8806 716.8326,-355.5011 724.1842,-363.1303 727.3372,-356.8806"/>
</g>
<!-- Node41&#45;&gt;Node11 -->
<g id="edge67" class="edge">
<title>Node41&#45;&gt;Node11</title>
<path fill="none" stroke="#191970" d="M1146.1151,-336.4697C1120.0632,-324.2682 1083.2734,-302.0568 1101,-280 1153.5294,-214.6386 1415.738,-188.7066 1520.5794,-180.8442"/>
<polygon fill="#191970" stroke="#191970" points="1521.091,-184.3162 1530.8095,-180.0971 1520.5812,-177.3348 1521.091,-184.3162"/>
</g>
<!-- Node41&#45;&gt;Node16 -->
<g id="edge74" class="edge">
<title>Node41&#45;&gt;Node16</title>
<path fill="none" stroke="#191970" d="M1137.8511,-336.4299C1109.526,-327.5531 1066.6746,-313.6869 1030,-300 1008.3476,-291.9193 1003.9479,-287.2397 982,-280 939.4086,-265.9509 890.089,-253.941 852.9415,-245.7192"/>
<polygon fill="#191970" stroke="#191970" points="853.3193,-242.2192 842.8025,-243.5021 851.8239,-249.0576 853.3193,-242.2192"/>
</g>
<!-- Node41&#45;&gt;Node19 -->
<g id="edge72" class="edge">
<title>Node41&#45;&gt;Node19</title>
<path fill="none" stroke="#191970" d="M1147.8387,-336.3415C1131.429,-328.1837 1108.7381,-315.3855 1092,-300 1018.0318,-232.0092 956.6975,-126.6265 933.7197,-84.4084"/>
<polygon fill="#191970" stroke="#191970" points="936.7625,-82.6766 928.9462,-75.5243 930.5963,-85.9899 936.7625,-82.6766"/>
</g>
<!-- Node41&#45;&gt;Node21 -->
<g id="edge71" class="edge">
<title>Node41&#45;&gt;Node21</title>
<path fill="none" stroke="#191970" d="M1217.1037,-337.6878C1220.4525,-337.1148 1223.7764,-336.5478 1227,-336 1274.7583,-327.8846 1410.7017,-336.9747 1442,-300 1447.743,-293.2154 1446.4845,-287.6747 1442,-280 1413.8064,-231.7498 1353.4437,-204.5423 1310.176,-190.58"/>
<polygon fill="#191970" stroke="#191970" points="1310.9872,-187.1673 1300.3994,-187.5546 1308.9178,-193.8545 1310.9872,-187.1673"/>
</g>
<!-- Node41&#45;&gt;Node26 -->
<g id="edge73" class="edge">
<title>Node41&#45;&gt;Node26</title>
<path fill="none" stroke="#191970" d="M1217.0971,-337.6484C1220.4475,-337.0848 1223.7736,-336.5306 1227,-336 1329.0954,-319.2096 1373.6555,-361.3113 1457,-300 1509.676,-261.2497 1475.24,-213.7149 1522,-168 1537.2331,-153.1073 1558.1759,-142.4243 1576.8773,-135.1255"/>
<polygon fill="#191970" stroke="#191970" points="1578.2373,-138.3544 1586.4105,-131.6127 1575.8171,-131.7861 1578.2373,-138.3544"/>
</g>
<!-- Node41&#45;&gt;Node35 -->
<g id="edge75" class="edge">
<title>Node41&#45;&gt;Node35</title>
<path fill="none" stroke="#191970" d="M1217.0718,-337.4829C1220.4282,-336.9587 1223.7625,-336.4585 1227,-336 1370.4545,-315.6823 1407.3461,-318.8561 1551,-300 1552.2927,-299.8303 1553.5992,-299.6562 1554.9159,-299.4785"/>
<polygon fill="#191970" stroke="#191970" points="1555.7244,-302.8998 1565.1468,-298.0554 1554.7599,-295.9666 1555.7244,-302.8998"/>
</g>
<!-- Node42 -->
<g id="node43" class="node">
<title>Node42</title>
<polygon fill="#ffffff" stroke="#bfbfbf" points="1110,-280.5 1110,-299.5 1228,-299.5 1228,-280.5 1110,-280.5"/>
<text text-anchor="middle" x="1169" y="-287.5" font-family="Helvetica,sans-Serif" font-size="10.00" fill="#000000">libxml/xmlmemory.h</text>
</g>
<!-- Node41&#45;&gt;Node42 -->
<g id="edge68" class="edge">
<title>Node41&#45;&gt;Node42</title>
<path fill="none" stroke="#191970" d="M1169,-336.2455C1169,-328.9382 1169,-318.6944 1169,-309.7046"/>
<polygon fill="#191970" stroke="#191970" points="1172.5001,-309.6426 1169,-299.6427 1165.5001,-309.6427 1172.5001,-309.6426"/>
</g>
<!-- Node43 -->
<g id="node44" class="node">
<title>Node43</title>
<polygon fill="#ffffff" stroke="#bfbfbf" points="1246.5,-280.5 1246.5,-299.5 1335.5,-299.5 1335.5,-280.5 1246.5,-280.5"/>
<text text-anchor="middle" x="1291" y="-287.5" font-family="Helvetica,sans-Serif" font-size="10.00" fill="#000000">libxml/parser.h</text>
</g>
<!-- Node41&#45;&gt;Node43 -->
<g id="edge69" class="edge">
<title>Node41&#45;&gt;Node43</title>
<path fill="none" stroke="#191970" d="M1189.9725,-336.3733C1209.5567,-327.3838 1238.9961,-313.8706 1261.051,-303.7471"/>
<polygon fill="#191970" stroke="#191970" points="1262.6729,-306.8538 1270.3011,-299.5011 1259.7527,-300.4919 1262.6729,-306.8538"/>
</g>
<!-- Node44 -->
<g id="node45" class="node">
<title>Node44</title>
<polygon fill="#ffffff" stroke="#bfbfbf" points="1353.5,-280.5 1353.5,-299.5 1432.5,-299.5 1432.5,-280.5 1353.5,-280.5"/>
<text text-anchor="middle" x="1393" y="-287.5" font-family="Helvetica,sans-Serif" font-size="10.00" fill="#000000">libxml/tree.h</text>
</g>
<!-- Node41&#45;&gt;Node44 -->
<g id="edge70" class="edge">
<title>Node41&#45;&gt;Node44</title>
<path fill="none" stroke="#191970" d="M1207.2525,-336.4369C1245.3467,-326.9133 1303.9313,-312.2672 1345.0987,-301.9753"/>
<polygon fill="#191970" stroke="#191970" points="1346.0528,-305.3446 1354.9053,-299.5237 1344.355,-298.5536 1346.0528,-305.3446"/>
</g>
<!-- Node41&#45;&gt;Node45 -->
<g id="edge76" class="edge">
<title>Node41&#45;&gt;Node45</title>
<path fill="none" stroke="#191970" d="M1120.9627,-336.6269C1071.4916,-326.974 994.3177,-311.9157 941.1276,-301.5371"/>
<polygon fill="#191970" stroke="#191970" points="941.6413,-298.0714 931.1561,-299.5914 940.3007,-304.9418 941.6413,-298.0714"/>
</g>
<!-- Node46&#45;&gt;Node16 -->
<g id="edge78" class="edge">
<title>Node46&#45;&gt;Node16</title>
<path fill="none" stroke="#191970" d="M1096.7236,-392.4807C1066.0429,-366.724 981.2081,-296.4933 949,-280 918.834,-264.5525 882.6091,-253.3717 852.9813,-245.9038"/>
<polygon fill="#191970" stroke="#191970" points="853.75,-242.4888 843.2048,-243.5128 852.087,-249.2883 853.75,-242.4888"/>
</g>
<!-- Node46&#45;&gt;Node41 -->
<g id="edge79" class="edge">
<title>Node46&#45;&gt;Node41</title>
<path fill="none" stroke="#191970" d="M1118.6254,-392.2455C1127.5473,-384.0549 1140.488,-372.1749 1151.0192,-362.5069"/>
<polygon fill="#191970" stroke="#191970" points="1153.4968,-364.9837 1158.4964,-355.6427 1148.7629,-359.8271 1153.4968,-364.9837"/>
</g>
<!-- Node48 -->
<g id="node49" class="node">
<title>Node48</title>
<polygon fill="#ffffff" stroke="#bfbfbf" points="1235.5,-336.5 1235.5,-355.5 1282.5,-355.5 1282.5,-336.5 1235.5,-336.5"/>
<text text-anchor="middle" x="1259" y="-343.5" font-family="Helvetica,sans-Serif" font-size="10.00" fill="#000000">lo/lo.h</text>
</g>
<!-- Node47&#45;&gt;Node48 -->
<g id="edge82" class="edge">
<title>Node47&#45;&gt;Node48</title>
<path fill="none" stroke="#191970" d="M1259,-392.2455C1259,-384.9382 1259,-374.6944 1259,-365.7046"/>
<polygon fill="#191970" stroke="#191970" points="1262.5001,-365.6426 1259,-355.6427 1255.5001,-365.6427 1262.5001,-365.6426"/>
</g>
</g>
</svg>
