<?xml version="1.0" encoding="UTF-8" standalone="no"?>
<!DOCTYPE svg PUBLIC "-//W3C//DTD SVG 1.1//EN"
 "http://www.w3.org/Graphics/SVG/1.1/DTD/svg11.dtd">
<!-- Generated by graphviz version 2.40.1 (20161225.0304)
 -->
<!-- Title: src/fweelin_osc.h Pages: 1 -->
<svg width="1795pt" height="207pt"
 viewBox="0.00 0.00 1795.22 207.00" xmlns="http://www.w3.org/2000/svg" xmlns:xlink="http://www.w3.org/1999/xlink">
<g id="graph0" class="graph" transform="scale(1 1) rotate(0) translate(4 203)">
<title>src/fweelin_osc.h</title>
<polygon fill="#ffffff" stroke="transparent" points="-4,4 -4,-203 1791.2152,-203 1791.2152,4 -4,4"/>
<!-- Node2 -->
<g id="node1" class="node">
<title>Node2</title>
<polygon fill="#bfbfbf" stroke="#000000" points="1206.5,-179.5 1206.5,-198.5 1307.5,-198.5 1307.5,-179.5 1206.5,-179.5"/>
<text text-anchor="middle" x="1257" y="-186.5" font-family="Helvetica,sans-Serif" font-size="10.00" fill="#000000">src/fweelin_osc.h</text>
</g>
<!-- Node3 -->
<g id="node2" class="node">
<title>Node3</title>
<g id="a_node2"><a xlink:href="fweelin__core_8h.html" target="_top" xlink:title="src/fweelin_core.h">
<polygon fill="#ffffff" stroke="#000000" points="712.5,-123.5 712.5,-142.5 817.5,-142.5 817.5,-123.5 712.5,-123.5"/>
<text text-anchor="middle" x="765" y="-130.5" font-family="Helvetica,sans-Serif" font-size="10.00" fill="#000000">src/fweelin_core.h</text>
</a>
</g>
</g>
<!-- Node2&#45;&gt;Node3 -->
<g id="edge1" class="edge">
<title>Node2&#45;&gt;Node3</title>
<path fill="none" stroke="#191970" d="M1196.2217,-182.0821C1098.9011,-171.005 909.7221,-149.4724 817.7474,-139.0038"/>
<polygon fill="#191970" stroke="#191970" points="1195.8688,-185.5645 1206.2005,-183.2179 1196.6605,-178.6094 1195.8688,-185.5645"/>
</g>
<!-- Node16 -->
<g id="node15" class="node">
<title>Node16</title>
<g id="a_node15"><a xlink:href="fweelin__osc_8cc.html" target="_top" xlink:title="src/fweelin_osc.cc">
<polygon fill="#ffffff" stroke="#000000" points="856.5,-.5 856.5,-19.5 961.5,-19.5 961.5,-.5 856.5,-.5"/>
<text text-anchor="middle" x="909" y="-7.5" font-family="Helvetica,sans-Serif" font-size="10.00" fill="#000000">src/fweelin_osc.cc</text>
</a>
</g>
</g>
<!-- Node2&#45;&gt;Node16 -->
<g id="edge26" class="edge">
<title>Node2&#45;&gt;Node16</title>
<path fill="none" stroke="#191970" d="M1317.584,-183.6601C1468.6213,-169.2205 1845.1381,-125.7275 1779,-56 1750.7819,-26.2505 1145.9813,-13.8927 961.7746,-10.8103"/>
<polygon fill="#191970" stroke="#191970" points="1317.1644,-180.1841 1307.538,-184.6094 1317.823,-187.153 1317.1644,-180.1841"/>
</g>
<!-- Node4 -->
<g id="node3" class="node">
<title>Node4</title>
<g id="a_node3"><a xlink:href="FweelinMac_8mm.html" target="_top" xlink:title="MacOSX/FweelinMac.mm">
<polygon fill="#ffffff" stroke="#000000" points="1630.5,-62 1630.5,-81 1769.5,-81 1769.5,-62 1630.5,-62"/>
<text text-anchor="middle" x="1700" y="-69" font-family="Helvetica,sans-Serif" font-size="10.00" fill="#000000">MacOSX/FweelinMac.mm</text>
</a>
</g>
</g>
<!-- Node3&#45;&gt;Node4 -->
<g id="edge2" class="edge">
<title>Node3&#45;&gt;Node4</title>
<path fill="none" stroke="#191970" d="M827.569,-130.8017C998.032,-124.6275 1468.1569,-106.3145 1622,-87 1633.6441,-85.5381 1646.1548,-83.3382 1657.6731,-81.0516"/>
<polygon fill="#191970" stroke="#191970" points="827.3698,-127.3066 817.5025,-131.1648 827.6222,-134.302 827.3698,-127.3066"/>
</g>
<!-- Node5 -->
<g id="node4" class="node">
<title>Node5</title>
<g id="a_node4"><a xlink:href="fweelin_8cc.html" target="_top" xlink:title="src/fweelin.cc">
<polygon fill="#ffffff" stroke="#000000" points="140.5,-.5 140.5,-19.5 223.5,-19.5 223.5,-.5 140.5,-.5"/>
<text text-anchor="middle" x="182" y="-7.5" font-family="Helvetica,sans-Serif" font-size="10.00" fill="#000000">src/fweelin.cc</text>
</a>
</g>
</g>
<!-- Node3&#45;&gt;Node5 -->
<g id="edge3" class="edge">
<title>Node3&#45;&gt;Node5</title>
<path fill="none" stroke="#191970" d="M702.0638,-130.5401C570.3523,-124.9615 274.5357,-110.0197 235,-87 208.3533,-71.4849 192.0656,-36.5852 185.4385,-19.6212"/>
<polygon fill="#191970" stroke="#191970" points="702.2574,-134.0512 712.3951,-130.9727 702.5504,-127.0573 702.2574,-134.0512"/>
</g>
<!-- Node6 -->
<g id="node5" class="node">
<title>Node6</title>
<g id="a_node5"><a xlink:href="fweelin__amixer_8h.html" target="_top" xlink:title="src/fweelin_amixer.h">
<polygon fill="#ffffff" stroke="#000000" points="70,-62 70,-81 188,-81 188,-62 70,-62"/>
<text text-anchor="middle" x="129" y="-69" font-family="Helvetica,sans-Serif" font-size="10.00" fill="#000000">src/fweelin_amixer.h</text>
</a>
</g>
</g>
<!-- Node3&#45;&gt;Node6 -->
<g id="edge4" class="edge">
<title>Node3&#45;&gt;Node6</title>
<path fill="none" stroke="#191970" d="M702.1377,-130.7287C596.3279,-126.153 376.5887,-113.8784 193,-87 182.3598,-85.4422 170.9455,-83.2652 160.6843,-81.0343"/>
<polygon fill="#191970" stroke="#191970" points="702.1841,-134.2337 712.3234,-131.1604 702.4806,-127.24 702.1841,-134.2337"/>
</g>
<!-- Node8 -->
<g id="node7" class="node">
<title>Node8</title>
<g id="a_node7"><a xlink:href="fweelin__core__dsp_8h.html" target="_top" xlink:title="src/fweelin_core_dsp.h">
<polygon fill="#ffffff" stroke="#000000" points="244,-62 244,-81 372,-81 372,-62 244,-62"/>
<text text-anchor="middle" x="308" y="-69" font-family="Helvetica,sans-Serif" font-size="10.00" fill="#000000">src/fweelin_core_dsp.h</text>
</a>
</g>
</g>
<!-- Node3&#45;&gt;Node8 -->
<g id="edge7" class="edge">
<title>Node3&#45;&gt;Node8</title>
<path fill="none" stroke="#191970" d="M702.373,-127.4901C625.323,-119.9407 491.0023,-105.2189 377,-87 366.2296,-85.2788 354.6786,-83.1438 344.1189,-81.0143"/>
<polygon fill="#191970" stroke="#191970" points="702.1064,-130.9806 712.3978,-128.4632 702.7828,-124.0133 702.1064,-130.9806"/>
</g>
<!-- Node10 -->
<g id="node9" class="node">
<title>Node10</title>
<g id="a_node9"><a xlink:href="fweelin__config_8cc.html" target="_top" xlink:title="src/fweelin_config.cc">
<polygon fill="#ffffff" stroke="#000000" points="536,-.5 536,-19.5 654,-19.5 654,-.5 536,-.5"/>
<text text-anchor="middle" x="595" y="-7.5" font-family="Helvetica,sans-Serif" font-size="10.00" fill="#000000">src/fweelin_config.cc</text>
</a>
</g>
</g>
<!-- Node3&#45;&gt;Node10 -->
<g id="edge15" class="edge">
<title>Node3&#45;&gt;Node10</title>
<path fill="none" stroke="#191970" d="M702.1501,-129.0465C607.7164,-122.4577 438.2662,-107.8634 420,-87 410.9242,-76.6338 411.5866,-66.9107 420,-56 427.889,-45.7694 497.898,-29.693 546.9358,-19.5079"/>
<polygon fill="#191970" stroke="#191970" points="701.9466,-132.5406 712.1631,-129.7347 702.4267,-125.5571 701.9466,-132.5406"/>
</g>
<!-- Node12 -->
<g id="node11" class="node">
<title>Node12</title>
<g id="a_node11"><a xlink:href="fweelin__block_8cc.html" target="_top" xlink:title="src/fweelin_block.cc">
<polygon fill="#ffffff" stroke="#000000" points="428.5,-62 428.5,-81 543.5,-81 543.5,-62 428.5,-62"/>
<text text-anchor="middle" x="486" y="-69" font-family="Helvetica,sans-Serif" font-size="10.00" fill="#000000">src/fweelin_block.cc</text>
</a>
</g>
</g>
<!-- Node3&#45;&gt;Node12 -->
<g id="edge13" class="edge">
<title>Node3&#45;&gt;Node12</title>
<path fill="none" stroke="#191970" d="M710.3555,-121.3578C667.5156,-112.1788 606.4154,-98.9731 553,-87 544.4954,-85.0937 535.3931,-83.0142 526.7254,-81.0153"/>
<polygon fill="#191970" stroke="#191970" points="709.7822,-124.8143 720.2934,-123.4851 711.2475,-117.9694 709.7822,-124.8143"/>
</g>
<!-- Node13 -->
<g id="node12" class="node">
<title>Node13</title>
<g id="a_node12"><a xlink:href="fweelin__browser_8cc.html" target="_top" xlink:title="src/fweelin_browser.cc">
<polygon fill="#ffffff" stroke="#000000" points="561.5,-62 561.5,-81 688.5,-81 688.5,-62 561.5,-62"/>
<text text-anchor="middle" x="625" y="-69" font-family="Helvetica,sans-Serif" font-size="10.00" fill="#000000">src/fweelin_browser.cc</text>
</a>
</g>
</g>
<!-- Node3&#45;&gt;Node13 -->
<g id="edge14" class="edge">
<title>Node3&#45;&gt;Node13</title>
<path fill="none" stroke="#191970" d="M733.9105,-119.3428C707.4382,-107.7139 670.0848,-91.3051 646.7214,-81.0419"/>
<polygon fill="#191970" stroke="#191970" points="732.5617,-122.5731 743.125,-123.3906 735.3771,-116.1642 732.5617,-122.5731"/>
</g>
<!-- Node14 -->
<g id="node13" class="node">
<title>Node14</title>
<g id="a_node13"><a xlink:href="fweelin__core_8cc.html" target="_top" xlink:title="src/fweelin_core.cc">
<polygon fill="#ffffff" stroke="#000000" points="700,-.5 700,-19.5 810,-19.5 810,-.5 700,-.5"/>
<text text-anchor="middle" x="755" y="-7.5" font-family="Helvetica,sans-Serif" font-size="10.00" fill="#000000">src/fweelin_core.cc</text>
</a>
</g>
</g>
<!-- Node3&#45;&gt;Node14 -->
<g id="edge16" class="edge">
<title>Node3&#45;&gt;Node14</title>
<path fill="none" stroke="#191970" d="M750.8407,-114.9387C745.3812,-106.8664 739.7878,-96.9416 737,-87 730.2538,-62.9422 742.1976,-34.1733 749.6664,-19.5515"/>
<polygon fill="#191970" stroke="#191970" points="748.0952,-117.1151 756.7911,-123.1677 753.7676,-113.0134 748.0952,-117.1151"/>
</g>
<!-- Node15 -->
<g id="node14" class="node">
<title>Node15</title>
<g id="a_node14"><a xlink:href="fweelin__looplibrary_8h.html" target="_top" xlink:title="src/fweelin_looplibrary.h">
<polygon fill="#ffffff" stroke="#000000" points="745.5,-62 745.5,-81 880.5,-81 880.5,-62 745.5,-62"/>
<text text-anchor="middle" x="813" y="-69" font-family="Helvetica,sans-Serif" font-size="10.00" fill="#000000">src/fweelin_looplibrary.h</text>
</a>
</g>
</g>
<!-- Node3&#45;&gt;Node15 -->
<g id="edge17" class="edge">
<title>Node3&#45;&gt;Node15</title>
<path fill="none" stroke="#191970" d="M778.8564,-115.2465C787.4956,-104.1775 798.2837,-90.3552 805.3943,-81.2449"/>
<polygon fill="#191970" stroke="#191970" points="775.8936,-113.354 772.5,-123.3906 781.4119,-117.6609 775.8936,-113.354"/>
</g>
<!-- Node3&#45;&gt;Node16 -->
<g id="edge21" class="edge">
<title>Node3&#45;&gt;Node16</title>
<path fill="none" stroke="#191970" d="M827.5661,-122.6617C850.0827,-115.9835 873.8795,-105.0116 890,-87 907.1715,-67.814 909.3946,-35.5716 909.3456,-19.5846"/>
<polygon fill="#191970" stroke="#191970" points="826.4119,-119.3485 817.6831,-125.3533 828.2514,-126.1025 826.4119,-119.3485"/>
</g>
<!-- Node17 -->
<g id="node16" class="node">
<title>Node17</title>
<g id="a_node16"><a xlink:href="fweelin__midiio_8cc.html" target="_top" xlink:title="src/fweelin_midiio.cc">
<polygon fill="#ffffff" stroke="#000000" points="937.5,-62 937.5,-81 1056.5,-81 1056.5,-62 937.5,-62"/>
<text text-anchor="middle" x="997" y="-69" font-family="Helvetica,sans-Serif" font-size="10.00" fill="#000000">src/fweelin_midiio.cc</text>
</a>
</g>
</g>
<!-- Node3&#45;&gt;Node17 -->
<g id="edge20" class="edge">
<title>Node3&#45;&gt;Node17</title>
<path fill="none" stroke="#191970" d="M810.8691,-120.8407C854.8968,-109.1696 920.5027,-91.7784 960.9201,-81.0643"/>
<polygon fill="#191970" stroke="#191970" points="809.7647,-117.5125 800.9954,-123.4581 811.5584,-124.2788 809.7647,-117.5125"/>
</g>
<!-- Node18 -->
<g id="node17" class="node">
<title>Node18</title>
<g id="a_node17"><a xlink:href="fweelin__paramset_8cc.html" target="_top" xlink:title="src/fweelin_paramset.cc">
<polygon fill="#ffffff" stroke="#000000" points="1074.5,-62 1074.5,-81 1209.5,-81 1209.5,-62 1074.5,-62"/>
<text text-anchor="middle" x="1142" y="-69" font-family="Helvetica,sans-Serif" font-size="10.00" fill="#000000">src/fweelin_paramset.cc</text>
</a>
</g>
</g>
<!-- Node3&#45;&gt;Node18 -->
<g id="edge22" class="edge">
<title>Node3&#45;&gt;Node18</title>
<path fill="none" stroke="#191970" d="M827.8361,-124.3219C888.8327,-115.6798 983.964,-101.6248 1066,-87 1076.0754,-85.2038 1086.8667,-83.1081 1097.0609,-81.0489"/>
<polygon fill="#191970" stroke="#191970" points="827.0145,-120.9031 817.6018,-125.7665 827.9929,-127.8344 827.0145,-120.9031"/>
</g>
<!-- Node19 -->
<g id="node18" class="node">
<title>Node19</title>
<g id="a_node18"><a xlink:href="fweelin__sdlio_8cc.html" target="_top" xlink:title="src/fweelin_sdlio.cc">
<polygon fill="#ffffff" stroke="#000000" points="1228,-62 1228,-81 1340,-81 1340,-62 1228,-62"/>
<text text-anchor="middle" x="1284" y="-69" font-family="Helvetica,sans-Serif" font-size="10.00" fill="#000000">src/fweelin_sdlio.cc</text>
</a>
</g>
</g>
<!-- Node3&#45;&gt;Node19 -->
<g id="edge23" class="edge">
<title>Node3&#45;&gt;Node19</title>
<path fill="none" stroke="#191970" d="M827.8147,-129.2886C915.7579,-123.491 1080.369,-110.4451 1219,-87 1228.3797,-85.4137 1238.4196,-83.2533 1247.7343,-81.0494"/>
<polygon fill="#191970" stroke="#191970" points="827.4876,-125.8024 817.7356,-129.9433 827.9415,-132.7876 827.4876,-125.8024"/>
</g>
<!-- Node20 -->
<g id="node19" class="node">
<title>Node20</title>
<g id="a_node19"><a xlink:href="fweelin__videoio_8cc.html" target="_top" xlink:title="src/fweelin_videoio.cc">
<polygon fill="#ffffff" stroke="#000000" points="1358.5,-62 1358.5,-81 1483.5,-81 1483.5,-62 1358.5,-62"/>
<text text-anchor="middle" x="1421" y="-69" font-family="Helvetica,sans-Serif" font-size="10.00" fill="#000000">src/fweelin_videoio.cc</text>
</a>
</g>
</g>
<!-- Node3&#45;&gt;Node20 -->
<g id="edge24" class="edge">
<title>Node3&#45;&gt;Node20</title>
<path fill="none" stroke="#191970" d="M827.6156,-130.8102C934.8559,-126.4486 1160.3643,-114.6078 1349,-87 1359.5008,-85.4632 1370.761,-83.2935 1381.1843,-81.063"/>
<polygon fill="#191970" stroke="#191970" points="827.4644,-127.3134 817.6119,-131.2092 827.7435,-134.3078 827.4644,-127.3134"/>
</g>
<!-- Node21 -->
<g id="node20" class="node">
<title>Node21</title>
<g id="a_node20"><a xlink:href="fweelin__videoio__displays_8cc.html" target="_top" xlink:title="src/fweelin_videoio\l_displays.cc">
<polygon fill="#ffffff" stroke="#000000" points="1501.5,-56.5 1501.5,-86.5 1612.5,-86.5 1612.5,-56.5 1501.5,-56.5"/>
<text text-anchor="start" x="1509.5" y="-74.5" font-family="Helvetica,sans-Serif" font-size="10.00" fill="#000000">src/fweelin_videoio</text>
<text text-anchor="middle" x="1557" y="-63.5" font-family="Helvetica,sans-Serif" font-size="10.00" fill="#000000">_displays.cc</text>
</a>
</g>
</g>
<!-- Node3&#45;&gt;Node21 -->
<g id="edge25" class="edge">
<title>Node3&#45;&gt;Node21</title>
<path fill="none" stroke="#191970" d="M827.7829,-130.4434C979.9842,-124.018 1365.4748,-106.3202 1493,-87 1495.7128,-86.589 1498.4795,-86.1188 1501.266,-85.6042"/>
<polygon fill="#191970" stroke="#191970" points="827.5112,-126.9516 817.6669,-130.8683 827.8051,-133.9455 827.5112,-126.9516"/>
</g>
<!-- Node6&#45;&gt;Node3 -->
<g id="edge5" class="edge">
<title>Node6&#45;&gt;Node3</title>
<path fill="none" stroke="#191970" d="M188.1241,-83.0425C195.8293,-84.5344 203.6018,-85.9169 211,-87 394.1523,-113.8145 613.2836,-126.0945 712.1666,-130.6959"/>
<polygon fill="#191970" stroke="#191970" points="188.5627,-79.561 178.0708,-81.0343 187.1915,-86.4254 188.5627,-79.561"/>
</g>
<!-- Node7 -->
<g id="node6" class="node">
<title>Node7</title>
<g id="a_node6"><a xlink:href="fweelin__amixer_8cc.html" target="_top" xlink:title="src/fweelin_amixer.cc">
<polygon fill="#ffffff" stroke="#000000" points="0,-.5 0,-19.5 122,-19.5 122,-.5 0,-.5"/>
<text text-anchor="middle" x="61" y="-7.5" font-family="Helvetica,sans-Serif" font-size="10.00" fill="#000000">src/fweelin_amixer.cc</text>
</a>
</g>
</g>
<!-- Node6&#45;&gt;Node7 -->
<g id="edge6" class="edge">
<title>Node6&#45;&gt;Node7</title>
<path fill="none" stroke="#191970" d="M110.8094,-55.0482C98.35,-43.7798 82.247,-29.216 71.7748,-19.7449"/>
<polygon fill="#191970" stroke="#191970" points="108.6106,-57.7787 118.375,-61.8906 113.306,-52.5871 108.6106,-57.7787"/>
</g>
<!-- Node8&#45;&gt;Node3 -->
<g id="edge8" class="edge">
<title>Node8&#45;&gt;Node3</title>
<path fill="none" stroke="#191970" d="M371.5555,-82.9014C379.4682,-84.375 387.427,-85.7898 395,-87 507.7393,-105.0171 640.3493,-119.6141 712.3081,-127.2365"/>
<polygon fill="#191970" stroke="#191970" points="372.0665,-79.436 361.5899,-81.0143 370.7641,-86.3138 372.0665,-79.436"/>
</g>
<!-- Node8&#45;&gt;Node5 -->
<g id="edge9" class="edge">
<title>Node8&#45;&gt;Node5</title>
<path fill="none" stroke="#191970" d="M279.0739,-57.3813C255.3119,-45.7832 222.2997,-29.6701 201.5493,-19.5419"/>
<polygon fill="#191970" stroke="#191970" points="277.7906,-60.6496 288.3125,-61.8906 280.8611,-54.3589 277.7906,-60.6496"/>
</g>
<!-- Node9 -->
<g id="node8" class="node">
<title>Node9</title>
<g id="a_node8"><a xlink:href="fweelin__audioio_8cc.html" target="_top" xlink:title="src/fweelin_audioio.cc">
<polygon fill="#ffffff" stroke="#000000" points="392.5,-.5 392.5,-19.5 517.5,-19.5 517.5,-.5 392.5,-.5"/>
<text text-anchor="middle" x="455" y="-7.5" font-family="Helvetica,sans-Serif" font-size="10.00" fill="#000000">src/fweelin_audioio.cc</text>
</a>
</g>
</g>
<!-- Node8&#45;&gt;Node9 -->
<g id="edge10" class="edge">
<title>Node8&#45;&gt;Node9</title>
<path fill="none" stroke="#191970" d="M340.279,-57.9955C368.0955,-46.358 407.5533,-29.8501 432.1925,-19.5419"/>
<polygon fill="#191970" stroke="#191970" points="338.8431,-54.8022 330.9688,-61.8906 341.5448,-61.2599 338.8431,-54.8022"/>
</g>
<!-- Node8&#45;&gt;Node10 -->
<g id="edge11" class="edge">
<title>Node8&#45;&gt;Node10</title>
<path fill="none" stroke="#191970" d="M362.3529,-59.8529C416.8098,-48.1836 499.6307,-30.4363 550.3667,-19.5643"/>
<polygon fill="#191970" stroke="#191970" points="361.5735,-56.4404 352.5289,-61.9581 363.0403,-63.285 361.5735,-56.4404"/>
</g>
<!-- Node11 -->
<g id="node10" class="node">
<title>Node11</title>
<g id="a_node10"><a xlink:href="fweelin__core__dsp_8cc.html" target="_top" xlink:title="src/fweelin_core_dsp.cc">
<polygon fill="#ffffff" stroke="#000000" points="242,-.5 242,-19.5 374,-19.5 374,-.5 242,-.5"/>
<text text-anchor="middle" x="308" y="-7.5" font-family="Helvetica,sans-Serif" font-size="10.00" fill="#000000">src/fweelin_core_dsp.cc</text>
</a>
</g>
</g>
<!-- Node8&#45;&gt;Node11 -->
<g id="edge12" class="edge">
<title>Node8&#45;&gt;Node11</title>
<path fill="none" stroke="#191970" d="M308,-51.7462C308,-41.0519 308,-28.314 308,-19.7449"/>
<polygon fill="#191970" stroke="#191970" points="304.5001,-51.8906 308,-61.8906 311.5001,-51.8907 304.5001,-51.8906"/>
</g>
<!-- Node15&#45;&gt;Node14 -->
<g id="edge18" class="edge">
<title>Node15&#45;&gt;Node14</title>
<path fill="none" stroke="#191970" d="M796.8739,-54.4007C786.3358,-43.2268 772.9523,-29.0356 764.1903,-19.7449"/>
<polygon fill="#191970" stroke="#191970" points="794.5302,-57.0169 803.9375,-61.8906 799.6227,-52.2142 794.5302,-57.0169"/>
</g>
<!-- Node15&#45;&gt;Node16 -->
<g id="edge19" class="edge">
<title>Node15&#45;&gt;Node16</title>
<path fill="none" stroke="#191970" d="M836.7486,-56.286C854.6993,-44.7864 878.7873,-29.355 894.1053,-19.5419"/>
<polygon fill="#191970" stroke="#191970" points="834.5323,-53.5492 828,-61.8906 838.3083,-59.4434 834.5323,-53.5492"/>
</g>
</g>
</svg>
