<?xml version="1.0" encoding="UTF-8" standalone="no"?>
<!DOCTYPE svg PUBLIC "-//W3C//DTD SVG 1.1//EN"
 "http://www.w3.org/Graphics/SVG/1.1/DTD/svg11.dtd">
<!-- Generated by graphviz version 2.40.1 (20161225.0304)
 -->
<!-- Title: src/fweelin_core_dsp.cc Pages: 1 -->
<svg width="2329pt" height="476pt"
 viewBox="0.00 0.00 2329.00 476.00" xmlns="http://www.w3.org/2000/svg" xmlns:xlink="http://www.w3.org/1999/xlink">
<g id="graph0" class="graph" transform="scale(1 1) rotate(0) translate(4 472)">
<title>src/fweelin_core_dsp.cc</title>
<polygon fill="#ffffff" stroke="transparent" points="-4,4 -4,-472 2325,-472 2325,4 -4,4"/>
<!-- Node0 -->
<g id="node1" class="node">
<title>Node0</title>
<polygon fill="#bfbfbf" stroke="#000000" points="277,-448.5 277,-467.5 409,-467.5 409,-448.5 277,-448.5"/>
<text text-anchor="middle" x="343" y="-455.5" font-family="Helvetica,sans-Serif" font-size="10.00" fill="#000000">src/fweelin_core_dsp.cc</text>
</g>
<!-- Node1 -->
<g id="node2" class="node">
<title>Node1</title>
<polygon fill="#ffffff" stroke="#bfbfbf" points="0,-392.5 0,-411.5 68,-411.5 68,-392.5 0,-392.5"/>
<text text-anchor="middle" x="34" y="-399.5" font-family="Helvetica,sans-Serif" font-size="10.00" fill="#000000">sys/time.h</text>
</g>
<!-- Node0&#45;&gt;Node1 -->
<g id="edge1" class="edge">
<title>Node0&#45;&gt;Node1</title>
<path fill="none" stroke="#191970" d="M286.1382,-448.4998C233.2032,-439.5321 152.1474,-425.4853 82,-412 80.7304,-411.7559 79.4426,-411.5056 78.1431,-411.2507"/>
<polygon fill="#191970" stroke="#191970" points="78.5549,-407.7638 68.0623,-409.232 77.1804,-414.6275 78.5549,-407.7638"/>
</g>
<!-- Node2 -->
<g id="node3" class="node">
<title>Node2</title>
<polygon fill="#ffffff" stroke="#bfbfbf" points="253,-224.5 253,-243.5 303,-243.5 303,-224.5 253,-224.5"/>
<text text-anchor="middle" x="278" y="-231.5" font-family="Helvetica,sans-Serif" font-size="10.00" fill="#000000">stdio.h</text>
</g>
<!-- Node0&#45;&gt;Node2 -->
<g id="edge2" class="edge">
<title>Node0&#45;&gt;Node2</title>
<path fill="none" stroke="#191970" d="M340.207,-448.375C330.3312,-414.3415 296.9376,-299.262 283.5851,-253.247"/>
<polygon fill="#191970" stroke="#191970" points="286.9308,-252.2176 280.7826,-243.5891 280.2081,-254.1684 286.9308,-252.2176"/>
</g>
<!-- Node3 -->
<g id="node4" class="node">
<title>Node3</title>
<polygon fill="#ffffff" stroke="#bfbfbf" points="124.5,-392.5 124.5,-411.5 175.5,-411.5 175.5,-392.5 124.5,-392.5"/>
<text text-anchor="middle" x="150" y="-399.5" font-family="Helvetica,sans-Serif" font-size="10.00" fill="#000000">errno.h</text>
</g>
<!-- Node0&#45;&gt;Node3 -->
<g id="edge3" class="edge">
<title>Node0&#45;&gt;Node3</title>
<path fill="none" stroke="#191970" d="M309.8221,-448.3733C275.1951,-438.3261 221.0927,-422.6279 185.592,-412.3272"/>
<polygon fill="#191970" stroke="#191970" points="186.2385,-408.8705 175.6593,-409.4452 184.2878,-415.5932 186.2385,-408.8705"/>
</g>
<!-- Node4 -->
<g id="node5" class="node">
<title>Node4</title>
<polygon fill="#ffffff" stroke="#bfbfbf" points="194,-392.5 194,-411.5 250,-411.5 250,-392.5 194,-392.5"/>
<text text-anchor="middle" x="222" y="-399.5" font-family="Helvetica,sans-Serif" font-size="10.00" fill="#000000">unistd.h</text>
</g>
<!-- Node0&#45;&gt;Node4 -->
<g id="edge4" class="edge">
<title>Node0&#45;&gt;Node4</title>
<path fill="none" stroke="#191970" d="M322.1994,-448.3733C302.7757,-439.3838 273.5776,-425.8706 251.7036,-415.7471"/>
<polygon fill="#191970" stroke="#191970" points="253.0745,-412.5249 242.5292,-411.5011 250.1344,-418.8776 253.0745,-412.5249"/>
</g>
<!-- Node5 -->
<g id="node6" class="node">
<title>Node5</title>
<polygon fill="#ffffff" stroke="#bfbfbf" points="359.5,-224.5 359.5,-243.5 412.5,-243.5 412.5,-224.5 359.5,-224.5"/>
<text text-anchor="middle" x="386" y="-231.5" font-family="Helvetica,sans-Serif" font-size="10.00" fill="#000000">stdlib.h</text>
</g>
<!-- Node0&#45;&gt;Node5 -->
<g id="edge5" class="edge">
<title>Node0&#45;&gt;Node5</title>
<path fill="none" stroke="#191970" d="M340.1023,-448.1298C336.6954,-435.1998 331.8774,-411.8392 335,-392 343.1425,-340.267 365.4158,-282.3813 377.6609,-253.134"/>
<polygon fill="#191970" stroke="#191970" points="380.9726,-254.2905 381.6738,-243.7189 374.5331,-251.5459 380.9726,-254.2905"/>
</g>
<!-- Node6 -->
<g id="node7" class="node">
<title>Node6</title>
<polygon fill="#ffffff" stroke="#bfbfbf" points="469.5,-224.5 469.5,-243.5 520.5,-243.5 520.5,-224.5 469.5,-224.5"/>
<text text-anchor="middle" x="495" y="-231.5" font-family="Helvetica,sans-Serif" font-size="10.00" fill="#000000">math.h</text>
</g>
<!-- Node0&#45;&gt;Node6 -->
<g id="edge6" class="edge">
<title>Node0&#45;&gt;Node6</title>
<path fill="none" stroke="#191970" d="M360.5471,-448.3515C374.2815,-440.1131 393.1464,-427.2022 406,-412 448.2712,-362.005 476.727,-288.4965 488.6594,-253.6764"/>
<polygon fill="#191970" stroke="#191970" points="492.1065,-254.4031 491.9495,-243.8094 485.4659,-252.1888 492.1065,-254.4031"/>
</g>
<!-- Node7 -->
<g id="node8" class="node">
<title>Node7</title>
<polygon fill="#ffffff" stroke="#bfbfbf" points="344.5,-392.5 344.5,-411.5 397.5,-411.5 397.5,-392.5 344.5,-392.5"/>
<text text-anchor="middle" x="371" y="-399.5" font-family="Helvetica,sans-Serif" font-size="10.00" fill="#000000">string.h</text>
</g>
<!-- Node0&#45;&gt;Node7 -->
<g id="edge7" class="edge">
<title>Node0&#45;&gt;Node7</title>
<path fill="none" stroke="#191970" d="M347.8772,-448.2455C351.6513,-440.6973 356.9921,-430.0158 361.5901,-420.8197"/>
<polygon fill="#191970" stroke="#191970" points="364.837,-422.1522 366.1787,-411.6427 358.576,-419.0217 364.837,-422.1522"/>
</g>
<!-- Node8 -->
<g id="node9" class="node">
<title>Node8</title>
<polygon fill="#ffffff" stroke="#bfbfbf" points="317.5,-56.5 317.5,-75.5 380.5,-75.5 380.5,-56.5 317.5,-56.5"/>
<text text-anchor="middle" x="349" y="-63.5" font-family="Helvetica,sans-Serif" font-size="10.00" fill="#000000">pthread.h</text>
</g>
<!-- Node0&#45;&gt;Node8 -->
<g id="edge8" class="edge">
<title>Node0&#45;&gt;Node8</title>
<path fill="none" stroke="#191970" d="M276.9737,-452.2611C218.2678,-445.8401 138.2319,-433.4177 115,-412 92.5574,-391.3099 96,-376.5246 96,-346 96,-346 96,-346 96,-178 96,-132.331 235.5809,-92.7141 307.3905,-75.3545"/>
<polygon fill="#191970" stroke="#191970" points="308.5506,-78.6762 317.4689,-72.9566 306.9303,-71.8663 308.5506,-78.6762"/>
</g>
<!-- Node9 -->
<g id="node10" class="node">
<title>Node9</title>
<polygon fill="#ffffff" stroke="#bfbfbf" points="454,-392.5 454,-411.5 508,-411.5 508,-392.5 454,-392.5"/>
<text text-anchor="middle" x="481" y="-399.5" font-family="Helvetica,sans-Serif" font-size="10.00" fill="#000000">sched.h</text>
</g>
<!-- Node0&#45;&gt;Node9 -->
<g id="edge9" class="edge">
<title>Node0&#45;&gt;Node9</title>
<path fill="none" stroke="#191970" d="M366.723,-448.3733C389.1737,-439.2629 423.0739,-425.5062 448.1255,-415.3404"/>
<polygon fill="#191970" stroke="#191970" points="449.6365,-418.5045 457.5865,-411.5011 447.0043,-412.0182 449.6365,-418.5045"/>
</g>
<!-- Node10 -->
<g id="node11" class="node">
<title>Node10</title>
<polygon fill="#ffffff" stroke="#bfbfbf" points="526.5,-392.5 526.5,-411.5 603.5,-411.5 603.5,-392.5 526.5,-392.5"/>
<text text-anchor="middle" x="565" y="-399.5" font-family="Helvetica,sans-Serif" font-size="10.00" fill="#000000">sys/mman.h</text>
</g>
<!-- Node0&#45;&gt;Node10 -->
<g id="edge10" class="edge">
<title>Node0&#45;&gt;Node10</title>
<path fill="none" stroke="#191970" d="M380.9109,-448.4369C418.665,-438.9133 476.7265,-424.2672 517.5264,-413.9753"/>
<polygon fill="#191970" stroke="#191970" points="518.4053,-417.3633 527.2454,-411.5237 516.6931,-410.576 518.4053,-417.3633"/>
</g>
<!-- Node11 -->
<g id="node12" class="node">
<title>Node11</title>
<g id="a_node12"><a xlink:href="fweelin__config_8h.html" target="_top" xlink:title="fweelin_config.h">
<polygon fill="#ffffff" stroke="#000000" points="1169,-224.5 1169,-243.5 1265,-243.5 1265,-224.5 1169,-224.5"/>
<text text-anchor="middle" x="1217" y="-231.5" font-family="Helvetica,sans-Serif" font-size="10.00" fill="#000000">fweelin_config.h</text>
</a>
</g>
</g>
<!-- Node0&#45;&gt;Node11 -->
<g id="edge11" class="edge">
<title>Node0&#45;&gt;Node11</title>
<path fill="none" stroke="#191970" d="M409.1577,-449.8503C464.0144,-442.3402 543.7756,-429.6747 612,-412 783.4498,-367.583 817.2092,-326.8871 988,-280 1045.3791,-264.2478 1112.2153,-251.4407 1158.8165,-243.3777"/>
<polygon fill="#191970" stroke="#191970" points="1159.4697,-246.8169 1168.7361,-241.6802 1158.2889,-239.9172 1159.4697,-246.8169"/>
</g>
<!-- Node33 -->
<g id="node34" class="node">
<title>Node33</title>
<g id="a_node34"><a xlink:href="fweelin__core__dsp_8h.html" target="_top" xlink:title="fweelin_core_dsp.h">
<polygon fill="#ffffff" stroke="#000000" points="985,-392.5 985,-411.5 1095,-411.5 1095,-392.5 985,-392.5"/>
<text text-anchor="middle" x="1040" y="-399.5" font-family="Helvetica,sans-Serif" font-size="10.00" fill="#000000">fweelin_core_dsp.h</text>
</a>
</g>
</g>
<!-- Node0&#45;&gt;Node33 -->
<g id="edge43" class="edge">
<title>Node0&#45;&gt;Node33</title>
<path fill="none" stroke="#191970" d="M409.2004,-452.6812C542.5013,-441.9712 841.8314,-417.9217 974.5263,-407.2604"/>
<polygon fill="#191970" stroke="#191970" points="974.8645,-410.7446 984.5521,-406.4549 974.3039,-403.7671 974.8645,-410.7446"/>
</g>
<!-- Node12 -->
<g id="node13" class="node">
<title>Node12</title>
<polygon fill="#ffffff" stroke="#bfbfbf" points="1176,-56.5 1176,-75.5 1242,-75.5 1242,-56.5 1176,-56.5"/>
<text text-anchor="middle" x="1209" y="-63.5" font-family="Helvetica,sans-Serif" font-size="10.00" fill="#000000">SDL/SDL.h</text>
</g>
<!-- Node11&#45;&gt;Node12 -->
<g id="edge12" class="edge">
<title>Node11&#45;&gt;Node12</title>
<path fill="none" stroke="#191970" d="M1252.9006,-224.4286C1285.4251,-213.8334 1325.8712,-194.6599 1309,-168 1289.0134,-136.4172 1258.1632,-159.6361 1233,-132 1221.2259,-119.0688 1215.1114,-99.9084 1212.0106,-85.5589"/>
<polygon fill="#191970" stroke="#191970" points="1215.4482,-84.9003 1210.1831,-75.7063 1208.5656,-86.1769 1215.4482,-84.9003"/>
</g>
<!-- Node13 -->
<g id="node14" class="node">
<title>Node13</title>
<polygon fill="#ffffff" stroke="#bfbfbf" points="1058,-168.5 1058,-187.5 1176,-187.5 1176,-168.5 1058,-168.5"/>
<text text-anchor="middle" x="1117" y="-175.5" font-family="Helvetica,sans-Serif" font-size="10.00" fill="#000000">libxml/xmlmemory.h</text>
</g>
<!-- Node11&#45;&gt;Node13 -->
<g id="edge13" class="edge">
<title>Node11&#45;&gt;Node13</title>
<path fill="none" stroke="#191970" d="M1199.5813,-224.2455C1183.9515,-215.4928 1160.7981,-202.527 1142.9815,-192.5496"/>
<polygon fill="#191970" stroke="#191970" points="1144.6543,-189.475 1134.2191,-187.6427 1141.234,-195.5825 1144.6543,-189.475"/>
</g>
<!-- Node14 -->
<g id="node15" class="node">
<title>Node14</title>
<polygon fill="#ffffff" stroke="#bfbfbf" points="1194.5,-168.5 1194.5,-187.5 1283.5,-187.5 1283.5,-168.5 1194.5,-168.5"/>
<text text-anchor="middle" x="1239" y="-175.5" font-family="Helvetica,sans-Serif" font-size="10.00" fill="#000000">libxml/parser.h</text>
</g>
<!-- Node11&#45;&gt;Node14 -->
<g id="edge14" class="edge">
<title>Node11&#45;&gt;Node14</title>
<path fill="none" stroke="#191970" d="M1220.8321,-224.2455C1223.7659,-216.7776 1227.9047,-206.2427 1231.491,-197.1137"/>
<polygon fill="#191970" stroke="#191970" points="1234.8129,-198.23 1235.2118,-187.6427 1228.2976,-195.6704 1234.8129,-198.23"/>
</g>
<!-- Node15 -->
<g id="node16" class="node">
<title>Node15</title>
<polygon fill="#ffffff" stroke="#bfbfbf" points="960.5,-168.5 960.5,-187.5 1039.5,-187.5 1039.5,-168.5 960.5,-168.5"/>
<text text-anchor="middle" x="1000" y="-175.5" font-family="Helvetica,sans-Serif" font-size="10.00" fill="#000000">libxml/tree.h</text>
</g>
<!-- Node11&#45;&gt;Node15 -->
<g id="edge15" class="edge">
<title>Node11&#45;&gt;Node15</title>
<path fill="none" stroke="#191970" d="M1179.6964,-224.3733C1142.8315,-214.8598 1086.334,-200.2797 1046.5494,-190.0127"/>
<polygon fill="#191970" stroke="#191970" points="1047.3742,-186.611 1036.8169,-187.5011 1045.625,-193.3889 1047.3742,-186.611"/>
</g>
<!-- Node16 -->
<g id="node17" class="node">
<title>Node16</title>
<g id="a_node17"><a xlink:href="fweelin__block_8h.html" target="_top" xlink:title="fweelin_block.h">
<polygon fill="#ffffff" stroke="#000000" points="1794.5,-168.5 1794.5,-187.5 1887.5,-187.5 1887.5,-168.5 1794.5,-168.5"/>
<text text-anchor="middle" x="1841" y="-175.5" font-family="Helvetica,sans-Serif" font-size="10.00" fill="#000000">fweelin_block.h</text>
</a>
</g>
</g>
<!-- Node11&#45;&gt;Node16 -->
<g id="edge16" class="edge">
<title>Node11&#45;&gt;Node16</title>
<path fill="none" stroke="#191970" d="M1265.1863,-229.6756C1378.6565,-219.4924 1662.2665,-194.0402 1784.0144,-183.1141"/>
<polygon fill="#191970" stroke="#191970" points="1784.5919,-186.5764 1794.239,-182.1965 1783.9661,-179.6044 1784.5919,-186.5764"/>
</g>
<!-- Node21 -->
<g id="node22" class="node">
<title>Node21</title>
<g id="a_node22"><a xlink:href="fweelin__audioio_8h.html" target="_top" xlink:title="fweelin_audioio.h">
<polygon fill="#ffffff" stroke="#000000" points="1789.5,-112.5 1789.5,-131.5 1892.5,-131.5 1892.5,-112.5 1789.5,-112.5"/>
<text text-anchor="middle" x="1841" y="-119.5" font-family="Helvetica,sans-Serif" font-size="10.00" fill="#000000">fweelin_audioio.h</text>
</a>
</g>
</g>
<!-- Node11&#45;&gt;Node21 -->
<g id="edge35" class="edge">
<title>Node11&#45;&gt;Node21</title>
<path fill="none" stroke="#191970" d="M1265.2396,-230.5818C1358.794,-223.6292 1561.6042,-206.8899 1629,-188 1649.2951,-182.3116 1652.2047,-175.2382 1672,-168 1710.0452,-154.0886 1754.2594,-142.1989 1787.9195,-133.9941"/>
<polygon fill="#191970" stroke="#191970" points="1789.1039,-137.3091 1798.0084,-131.5679 1787.4672,-130.5031 1789.1039,-137.3091"/>
</g>
<!-- Node24 -->
<g id="node25" class="node">
<title>Node24</title>
<g id="a_node25"><a xlink:href="fweelin__datatypes_8h.html" target="_top" xlink:title="fweelin_datatypes.h">
<polygon fill="#ffffff" stroke="#000000" points="1260,-56.5 1260,-75.5 1376,-75.5 1376,-56.5 1260,-56.5"/>
<text text-anchor="middle" x="1318" y="-63.5" font-family="Helvetica,sans-Serif" font-size="10.00" fill="#000000">fweelin_datatypes.h</text>
</a>
</g>
</g>
<!-- Node11&#45;&gt;Node24 -->
<g id="edge34" class="edge">
<title>Node11&#45;&gt;Node24</title>
<path fill="none" stroke="#191970" d="M1265.0392,-225.7629C1286.9162,-219.3526 1310.8209,-208.0111 1324,-188 1328.8891,-180.5764 1326.2297,-176.6047 1324,-168 1319.4088,-150.2818 1308.5912,-149.7182 1304,-132 1301.7703,-123.3953 1302.6917,-120.7921 1304,-112 1305.3327,-103.0439 1308.0494,-93.419 1310.7381,-85.3"/>
<polygon fill="#191970" stroke="#191970" points="1314.1067,-86.272 1314.1376,-75.6772 1307.5064,-83.9402 1314.1067,-86.272"/>
</g>
<!-- Node27 -->
<g id="node28" class="node">
<title>Node27</title>
<g id="a_node28"><a xlink:href="fweelin__event_8h.html" target="_top" xlink:title="fweelin_event.h">
<polygon fill="#ffffff" stroke="#000000" points="1058.5,-112.5 1058.5,-131.5 1153.5,-131.5 1153.5,-112.5 1058.5,-112.5"/>
<text text-anchor="middle" x="1106" y="-119.5" font-family="Helvetica,sans-Serif" font-size="10.00" fill="#000000">fweelin_event.h</text>
</a>
</g>
</g>
<!-- Node11&#45;&gt;Node27 -->
<g id="edge36" class="edge">
<title>Node11&#45;&gt;Node27</title>
<path fill="none" stroke="#191970" d="M1243.4258,-224.4713C1272.031,-212.6879 1311.273,-191.3127 1293,-168 1277.1144,-147.7332 1212.6377,-135.201 1163.7991,-128.4334"/>
<polygon fill="#191970" stroke="#191970" points="1164.0134,-124.931 1153.638,-127.076 1163.0865,-131.8693 1164.0134,-124.931"/>
</g>
<!-- Node29 -->
<g id="node30" class="node">
<title>Node29</title>
<g id="a_node30"><a xlink:href="fweelin__videoio_8h.html" target="_top" xlink:title="fweelin_videoio.h">
<polygon fill="#ffffff" stroke="#000000" points="1416.5,-168.5 1416.5,-187.5 1519.5,-187.5 1519.5,-168.5 1416.5,-168.5"/>
<text text-anchor="middle" x="1468" y="-175.5" font-family="Helvetica,sans-Serif" font-size="10.00" fill="#000000">fweelin_videoio.h</text>
</a>
</g>
</g>
<!-- Node11&#45;&gt;Node29 -->
<g id="edge37" class="edge">
<title>Node11&#45;&gt;Node29</title>
<path fill="none" stroke="#191970" d="M1259.8632,-224.4369C1302.9102,-214.8328 1369.3073,-200.0191 1415.491,-189.7152"/>
<polygon fill="#191970" stroke="#191970" points="1416.3157,-193.1173 1425.3135,-187.5237 1414.7913,-186.2853 1416.3157,-193.1173"/>
</g>
<!-- Node32 -->
<g id="node33" class="node">
<title>Node32</title>
<g id="a_node33"><a xlink:href="fweelin__fluidsynth_8h.html" target="_top" xlink:title="fweelin_fluidsynth.h">
<polygon fill="#ffffff" stroke="#000000" points="827.5,-168.5 827.5,-187.5 942.5,-187.5 942.5,-168.5 827.5,-168.5"/>
<text text-anchor="middle" x="885" y="-175.5" font-family="Helvetica,sans-Serif" font-size="10.00" fill="#000000">fweelin_fluidsynth.h</text>
</a>
</g>
</g>
<!-- Node11&#45;&gt;Node32 -->
<g id="edge42" class="edge">
<title>Node11&#45;&gt;Node32</title>
<path fill="none" stroke="#191970" d="M1168.7243,-225.8571C1111.4512,-216.1966 1015.6579,-200.0387 951.4213,-189.2036"/>
<polygon fill="#191970" stroke="#191970" points="951.8363,-185.7242 941.3934,-187.5121 950.672,-192.6267 951.8363,-185.7242"/>
</g>
<!-- Node17 -->
<g id="node18" class="node">
<title>Node17</title>
<polygon fill="#ffffff" stroke="#bfbfbf" points="2111.5,-112.5 2111.5,-131.5 2198.5,-131.5 2198.5,-112.5 2111.5,-112.5"/>
<text text-anchor="middle" x="2155" y="-119.5" font-family="Helvetica,sans-Serif" font-size="10.00" fill="#000000">vorbis/codec.h</text>
</g>
<!-- Node16&#45;&gt;Node17 -->
<g id="edge17" class="edge">
<title>Node16&#45;&gt;Node17</title>
<path fill="none" stroke="#191970" d="M1887.7064,-169.9426C1937.9116,-161.2427 2020.3344,-146.8477 2101.4514,-132.0837"/>
<polygon fill="#191970" stroke="#191970" points="2102.1249,-135.5187 2111.335,-130.2818 2100.8693,-128.6322 2102.1249,-135.5187"/>
</g>
<!-- Node18 -->
<g id="node19" class="node">
<title>Node18</title>
<polygon fill="#ffffff" stroke="#bfbfbf" points="2217,-112.5 2217,-131.5 2321,-131.5 2321,-112.5 2217,-112.5"/>
<text text-anchor="middle" x="2269" y="-119.5" font-family="Helvetica,sans-Serif" font-size="10.00" fill="#000000">vorbis/vorbisfile.h</text>
</g>
<!-- Node16&#45;&gt;Node18 -->
<g id="edge18" class="edge">
<title>Node16&#45;&gt;Node18</title>
<path fill="none" stroke="#191970" d="M1887.7124,-172.7181C1955.6048,-164.9151 2085.7608,-149.4825 2206.6083,-132.1597"/>
<polygon fill="#191970" stroke="#191970" points="2207.3781,-135.585 2216.7766,-130.6944 2206.3796,-128.6566 2207.3781,-135.585"/>
</g>
<!-- Node19 -->
<g id="node20" class="node">
<title>Node19</title>
<polygon fill="#ffffff" stroke="#bfbfbf" points="1911,-112.5 1911,-131.5 2017,-131.5 2017,-112.5 1911,-112.5"/>
<text text-anchor="middle" x="1964" y="-119.5" font-family="Helvetica,sans-Serif" font-size="10.00" fill="#000000">vorbis/vorbisenc.h</text>
</g>
<!-- Node16&#45;&gt;Node19 -->
<g id="edge19" class="edge">
<title>Node16&#45;&gt;Node19</title>
<path fill="none" stroke="#191970" d="M1862.1445,-168.3733C1881.8892,-159.3838 1911.5698,-145.8706 1933.8055,-135.7471"/>
<polygon fill="#191970" stroke="#191970" points="1935.4806,-138.8302 1943.1315,-131.5011 1932.58,-132.4594 1935.4806,-138.8302"/>
</g>
<!-- Node20 -->
<g id="node21" class="node">
<title>Node20</title>
<polygon fill="#ffffff" stroke="#bfbfbf" points="2035,-112.5 2035,-131.5 2093,-131.5 2093,-112.5 2035,-112.5"/>
<text text-anchor="middle" x="2064" y="-119.5" font-family="Helvetica,sans-Serif" font-size="10.00" fill="#000000">sndfile.h</text>
</g>
<!-- Node16&#45;&gt;Node20 -->
<g id="edge20" class="edge">
<title>Node16&#45;&gt;Node20</title>
<path fill="none" stroke="#191970" d="M1880.0176,-168.4619C1915.436,-159.7671 1969.3601,-146.4388 2025.2483,-132.1696"/>
<polygon fill="#191970" stroke="#191970" points="2026.1437,-135.5534 2034.9645,-129.6844 2024.409,-128.7717 2026.1437,-135.5534"/>
</g>
<!-- Node16&#45;&gt;Node21 -->
<g id="edge21" class="edge">
<title>Node16&#45;&gt;Node21</title>
<path fill="none" stroke="#191970" d="M1841,-168.2455C1841,-160.9382 1841,-150.6944 1841,-141.7046"/>
<polygon fill="#191970" stroke="#191970" points="1844.5001,-141.6426 1841,-131.6427 1837.5001,-141.6427 1844.5001,-141.6426"/>
</g>
<!-- Node23 -->
<g id="node24" class="node">
<title>Node23</title>
<g id="a_node24"><a xlink:href="fweelin__mem_8h.html" target="_top" xlink:title="fweelin_mem.h">
<polygon fill="#ffffff" stroke="#000000" points="1679,-112.5 1679,-131.5 1771,-131.5 1771,-112.5 1679,-112.5"/>
<text text-anchor="middle" x="1725" y="-119.5" font-family="Helvetica,sans-Serif" font-size="10.00" fill="#000000">fweelin_mem.h</text>
</a>
</g>
</g>
<!-- Node16&#45;&gt;Node23 -->
<g id="edge23" class="edge">
<title>Node16&#45;&gt;Node23</title>
<path fill="none" stroke="#191970" d="M1821.0589,-168.3733C1802.5214,-159.4241 1774.6972,-145.9917 1753.7587,-135.8835"/>
<polygon fill="#191970" stroke="#191970" points="1755.2081,-132.6967 1744.6809,-131.5011 1752.1648,-139.0006 1755.2081,-132.6967"/>
</g>
<!-- Node16&#45;&gt;Node27 -->
<g id="edge27" class="edge">
<title>Node16&#45;&gt;Node27</title>
<path fill="none" stroke="#191970" d="M1794.3721,-174.706C1665.5089,-165.2138 1305.2091,-137.7767 1163.8654,-126.7103"/>
<polygon fill="#191970" stroke="#191970" points="1163.9155,-123.2036 1153.6724,-125.9108 1163.3681,-130.1821 1163.9155,-123.2036"/>
</g>
<!-- Node22 -->
<g id="node23" class="node">
<title>Node22</title>
<polygon fill="#ffffff" stroke="#bfbfbf" points="1806.5,-56.5 1806.5,-75.5 1875.5,-75.5 1875.5,-56.5 1806.5,-56.5"/>
<text text-anchor="middle" x="1841" y="-63.5" font-family="Helvetica,sans-Serif" font-size="10.00" fill="#000000">jack/jack.h</text>
</g>
<!-- Node21&#45;&gt;Node22 -->
<g id="edge22" class="edge">
<title>Node21&#45;&gt;Node22</title>
<path fill="none" stroke="#191970" d="M1841,-112.2455C1841,-104.9382 1841,-94.6944 1841,-85.7046"/>
<polygon fill="#191970" stroke="#191970" points="1844.5001,-85.6426 1841,-75.6427 1837.5001,-85.6427 1844.5001,-85.6426"/>
</g>
<!-- Node23&#45;&gt;Node24 -->
<g id="edge24" class="edge">
<title>Node23&#45;&gt;Node24</title>
<path fill="none" stroke="#191970" d="M1678.8148,-113.4301C1675.8345,-112.9304 1672.8767,-112.4492 1670,-112 1571.6248,-96.6387 1457.2284,-82.3459 1386.2101,-73.8908"/>
<polygon fill="#191970" stroke="#191970" points="1386.3964,-70.3884 1376.0538,-72.6862 1385.5719,-77.3397 1386.3964,-70.3884"/>
</g>
<!-- Node25 -->
<g id="node26" class="node">
<title>Node25</title>
<polygon fill="#ffffff" stroke="#bfbfbf" points="1138.5,-.5 1138.5,-19.5 1233.5,-19.5 1233.5,-.5 1138.5,-.5"/>
<text text-anchor="middle" x="1186" y="-7.5" font-family="Helvetica,sans-Serif" font-size="10.00" fill="#000000">jack/ringbuffer.h</text>
</g>
<!-- Node24&#45;&gt;Node25 -->
<g id="edge25" class="edge">
<title>Node24&#45;&gt;Node25</title>
<path fill="none" stroke="#191970" d="M1295.3084,-56.3733C1273.9289,-47.3032 1241.6943,-33.6279 1217.7638,-23.4755"/>
<polygon fill="#191970" stroke="#191970" points="1218.9683,-20.1846 1208.3955,-19.5011 1216.2344,-26.6287 1218.9683,-20.1846"/>
</g>
<!-- Node26 -->
<g id="node27" class="node">
<title>Node26</title>
<polygon fill="#ffffff" stroke="#bfbfbf" points="1290,-.5 1290,-19.5 1346,-19.5 1346,-.5 1290,-.5"/>
<text text-anchor="middle" x="1318" y="-7.5" font-family="Helvetica,sans-Serif" font-size="10.00" fill="#000000">assert.h</text>
</g>
<!-- Node24&#45;&gt;Node26 -->
<g id="edge26" class="edge">
<title>Node24&#45;&gt;Node26</title>
<path fill="none" stroke="#191970" d="M1318,-56.2455C1318,-48.9382 1318,-38.6944 1318,-29.7046"/>
<polygon fill="#191970" stroke="#191970" points="1321.5001,-29.6426 1318,-19.6427 1314.5001,-29.6427 1321.5001,-29.6426"/>
</g>
<!-- Node27&#45;&gt;Node8 -->
<g id="edge29" class="edge">
<title>Node27&#45;&gt;Node8</title>
<path fill="none" stroke="#191970" d="M1058.3595,-118.4757C920.1994,-108.2552 520.9367,-78.7192 390.655,-69.0815"/>
<polygon fill="#191970" stroke="#191970" points="390.9038,-65.5904 380.6728,-68.343 390.3873,-72.5713 390.9038,-65.5904"/>
</g>
<!-- Node27&#45;&gt;Node12 -->
<g id="edge30" class="edge">
<title>Node27&#45;&gt;Node12</title>
<path fill="none" stroke="#191970" d="M1123.9412,-112.2455C1140.04,-103.4928 1163.8879,-90.527 1182.2391,-80.5496"/>
<polygon fill="#191970" stroke="#191970" points="1184.1507,-83.4942 1191.2644,-75.6427 1180.8071,-77.3444 1184.1507,-83.4942"/>
</g>
<!-- Node27&#45;&gt;Node16 -->
<g id="edge33" class="edge">
<title>Node27&#45;&gt;Node16</title>
<path fill="none" stroke="#191970" d="M1153.72,-125.3745C1283.872,-134.9666 1644.1633,-162.4048 1784.2929,-173.3804"/>
<polygon fill="#191970" stroke="#191970" points="1784.1493,-176.8798 1794.3925,-174.1729 1784.6969,-169.9013 1784.1493,-176.8798"/>
</g>
<!-- Node27&#45;&gt;Node24 -->
<g id="edge32" class="edge">
<title>Node27&#45;&gt;Node24</title>
<path fill="none" stroke="#191970" d="M1142.4441,-112.3733C1178.3069,-102.9001 1233.1878,-88.4032 1272.0282,-78.1435"/>
<polygon fill="#191970" stroke="#191970" points="1273.257,-81.439 1282.0315,-75.5011 1271.4692,-74.6712 1273.257,-81.439"/>
</g>
<!-- Node27&#45;&gt;Node25 -->
<g id="edge31" class="edge">
<title>Node27&#45;&gt;Node25</title>
<path fill="none" stroke="#191970" d="M1112.8208,-112.4509C1126.2228,-93.688 1156.1752,-51.7548 1173.3157,-27.758"/>
<polygon fill="#191970" stroke="#191970" points="1176.2322,-29.6966 1179.1965,-19.5249 1170.536,-25.6279 1176.2322,-29.6966"/>
</g>
<!-- Node28 -->
<g id="node29" class="node">
<title>Node28</title>
<polygon fill="#ffffff" stroke="#bfbfbf" points="1040,-56.5 1040,-75.5 1120,-75.5 1120,-56.5 1040,-56.5"/>
<text text-anchor="middle" x="1080" y="-63.5" font-family="Helvetica,sans-Serif" font-size="10.00" fill="#000000">linux/limits.h</text>
</g>
<!-- Node27&#45;&gt;Node28 -->
<g id="edge28" class="edge">
<title>Node27&#45;&gt;Node28</title>
<path fill="none" stroke="#191970" d="M1101.4711,-112.2455C1097.9666,-104.6973 1093.0073,-94.0158 1088.7377,-84.8197"/>
<polygon fill="#191970" stroke="#191970" points="1091.8627,-83.2389 1084.477,-75.6427 1085.5136,-86.1867 1091.8627,-83.2389"/>
</g>
<!-- Node29&#45;&gt;Node12 -->
<g id="edge39" class="edge">
<title>Node29&#45;&gt;Node12</title>
<path fill="none" stroke="#191970" d="M1417.6588,-168.4528C1384.3919,-161.0527 1340.3805,-149.1416 1304,-132 1275.7417,-118.6854 1246.7507,-97.1847 1228.3499,-82.3613"/>
<polygon fill="#191970" stroke="#191970" points="1230.1673,-79.325 1220.2171,-75.6858 1225.7262,-84.7358 1230.1673,-79.325"/>
</g>
<!-- Node29&#45;&gt;Node27 -->
<g id="edge38" class="edge">
<title>Node29&#45;&gt;Node27</title>
<path fill="none" stroke="#191970" d="M1416.1342,-169.9766C1349.2395,-159.6282 1233.2413,-141.6837 1163.6491,-130.9181"/>
<polygon fill="#191970" stroke="#191970" points="1164.147,-127.4536 1153.7295,-129.3836 1163.0768,-134.3713 1164.147,-127.4536"/>
</g>
<!-- Node30 -->
<g id="node31" class="node">
<title>Node30</title>
<polygon fill="#ffffff" stroke="#bfbfbf" points="1413.5,-112.5 1413.5,-131.5 1550.5,-131.5 1550.5,-112.5 1413.5,-112.5"/>
<text text-anchor="middle" x="1482" y="-119.5" font-family="Helvetica,sans-Serif" font-size="10.00" fill="#000000">SDL/SDL_gfxPrimitives.h</text>
</g>
<!-- Node29&#45;&gt;Node30 -->
<g id="edge40" class="edge">
<title>Node29&#45;&gt;Node30</title>
<path fill="none" stroke="#191970" d="M1470.4386,-168.2455C1472.2855,-160.8579 1474.8828,-150.4689 1477.1478,-141.4087"/>
<polygon fill="#191970" stroke="#191970" points="1480.5594,-142.193 1479.5893,-131.6427 1473.7684,-140.4952 1480.5594,-142.193"/>
</g>
<!-- Node31 -->
<g id="node32" class="node">
<title>Node31</title>
<polygon fill="#ffffff" stroke="#bfbfbf" points="1313,-112.5 1313,-131.5 1395,-131.5 1395,-112.5 1313,-112.5"/>
<text text-anchor="middle" x="1354" y="-119.5" font-family="Helvetica,sans-Serif" font-size="10.00" fill="#000000">SDL/SDL_ttf.h</text>
</g>
<!-- Node29&#45;&gt;Node31 -->
<g id="edge41" class="edge">
<title>Node29&#45;&gt;Node31</title>
<path fill="none" stroke="#191970" d="M1448.4027,-168.3733C1430.2669,-159.4644 1403.0865,-146.1127 1382.5413,-136.0203"/>
<polygon fill="#191970" stroke="#191970" points="1383.8603,-132.7688 1373.3416,-131.5011 1380.7739,-139.0517 1383.8603,-132.7688"/>
</g>
<!-- Node33&#45;&gt;Node16 -->
<g id="edge78" class="edge">
<title>Node33&#45;&gt;Node16</title>
<path fill="none" stroke="#191970" d="M1095.2802,-397.9317C1262.5899,-385.1763 1755.5345,-344.1783 1812,-300 1842.7428,-275.947 1844.6478,-225.7417 1843.0295,-197.8159"/>
<polygon fill="#191970" stroke="#191970" points="1846.5045,-197.3612 1842.2261,-187.6687 1839.5263,-197.9137 1846.5045,-197.3612"/>
</g>
<!-- Node33&#45;&gt;Node27 -->
<g id="edge77" class="edge">
<title>Node33&#45;&gt;Node27</title>
<path fill="none" stroke="#191970" d="M984.9883,-397.4895C836.909,-384.6151 441,-345.0466 441,-290 441,-290 441,-290 441,-234 441,-172.6735 886.4634,-136.7076 1048.206,-125.6701"/>
<polygon fill="#191970" stroke="#191970" points="1048.7002,-129.1448 1058.4417,-124.9791 1048.2287,-122.1607 1048.7002,-129.1448"/>
</g>
<!-- Node34 -->
<g id="node35" class="node">
<title>Node34</title>
<polygon fill="#ffffff" stroke="#bfbfbf" points="950,-336.5 950,-355.5 994,-355.5 994,-336.5 950,-336.5"/>
<text text-anchor="middle" x="972" y="-343.5" font-family="Helvetica,sans-Serif" font-size="10.00" fill="#000000">string</text>
</g>
<!-- Node33&#45;&gt;Node34 -->
<g id="edge44" class="edge">
<title>Node33&#45;&gt;Node34</title>
<path fill="none" stroke="#191970" d="M1028.1553,-392.2455C1018.112,-383.9746 1003.5005,-371.9416 991.6996,-362.2232"/>
<polygon fill="#191970" stroke="#191970" points="993.6533,-359.298 983.709,-355.6427 989.2033,-364.7015 993.6533,-359.298"/>
</g>
<!-- Node35 -->
<g id="node36" class="node">
<title>Node35</title>
<polygon fill="#ffffff" stroke="#bfbfbf" points="1012,-336.5 1012,-355.5 1068,-355.5 1068,-336.5 1012,-336.5"/>
<text text-anchor="middle" x="1040" y="-343.5" font-family="Helvetica,sans-Serif" font-size="10.00" fill="#000000">sstream</text>
</g>
<!-- Node33&#45;&gt;Node35 -->
<g id="edge45" class="edge">
<title>Node33&#45;&gt;Node35</title>
<path fill="none" stroke="#191970" d="M1040,-392.2455C1040,-384.9382 1040,-374.6944 1040,-365.7046"/>
<polygon fill="#191970" stroke="#191970" points="1043.5001,-365.6426 1040,-355.6427 1036.5001,-365.6427 1043.5001,-365.6426"/>
</g>
<!-- Node36 -->
<g id="node37" class="node">
<title>Node36</title>
<g id="a_node37"><a xlink:href="fweelin__core_8h.html" target="_top" xlink:title="fweelin_core.h">
<polygon fill="#ffffff" stroke="#000000" points="1086,-336.5 1086,-355.5 1174,-355.5 1174,-336.5 1086,-336.5"/>
<text text-anchor="middle" x="1130" y="-343.5" font-family="Helvetica,sans-Serif" font-size="10.00" fill="#000000">fweelin_core.h</text>
</a>
</g>
</g>
<!-- Node33&#45;&gt;Node36 -->
<g id="edge46" class="edge">
<title>Node33&#45;&gt;Node36</title>
<path fill="none" stroke="#191970" d="M1050.41,-392.2455C1062.6731,-383.5731 1083.0019,-370.7645 1100.1378,-360.825"/>
<polygon fill="#191970" stroke="#191970" points="1102.2925,-363.6262 1109.2577,-355.6427 1098.8342,-357.5402 1102.2925,-363.6262"/>
</g>
<!-- Node36&#45;&gt;Node11 -->
<g id="edge70" class="edge">
<title>Node36&#45;&gt;Node11</title>
<path fill="none" stroke="#191970" d="M1137.4176,-336.4509C1152.0565,-317.6054 1184.8528,-275.3849 1203.4514,-251.4419"/>
<polygon fill="#191970" stroke="#191970" points="1206.2307,-253.5693 1209.6012,-243.5249 1200.7026,-249.2751 1206.2307,-253.5693"/>
</g>
<!-- Node36&#45;&gt;Node16 -->
<g id="edge68" class="edge">
<title>Node36&#45;&gt;Node16</title>
<path fill="none" stroke="#191970" d="M1174.4898,-345.5906C1314.7298,-343.9334 1741.2308,-335.9576 1791,-300 1808.2614,-287.5289 1826.8438,-228.7397 1835.7087,-197.5489"/>
<polygon fill="#191970" stroke="#191970" points="1839.1157,-198.3604 1838.4209,-187.7884 1832.3713,-196.4862 1839.1157,-198.3604"/>
</g>
<!-- Node36&#45;&gt;Node21 -->
<g id="edge62" class="edge">
<title>Node36&#45;&gt;Node21</title>
<path fill="none" stroke="#191970" d="M1174.0323,-343.5521C1236.1846,-339.2204 1352.6969,-327.8668 1448,-300 1593.3518,-257.4989 1754.2463,-171.103 1815.4694,-136.6568"/>
<polygon fill="#191970" stroke="#191970" points="1817.4436,-139.5612 1824.4219,-131.5892 1813.9953,-133.4695 1817.4436,-139.5612"/>
</g>
<!-- Node36&#45;&gt;Node27 -->
<g id="edge69" class="edge">
<title>Node36&#45;&gt;Node27</title>
<path fill="none" stroke="#191970" d="M1085.9309,-336.8432C1009.5531,-320.134 857.1753,-282.8267 820,-244 796.1279,-219.0675 781.5046,-194.1813 804,-168 819.6979,-149.73 965.2073,-134.2246 1048.3788,-126.761"/>
<polygon fill="#191970" stroke="#191970" points="1048.7943,-130.238 1058.4466,-125.8695 1048.1768,-123.2653 1048.7943,-130.238"/>
</g>
<!-- Node36&#45;&gt;Node29 -->
<g id="edge58" class="edge">
<title>Node36&#45;&gt;Node29</title>
<path fill="none" stroke="#191970" d="M1141.9809,-336.4275C1170.6391,-313.9368 1246.0523,-257.1312 1317,-224 1348.567,-209.2588 1386.0198,-197.8145 1415.7279,-190.0279"/>
<polygon fill="#191970" stroke="#191970" points="1416.6677,-193.4003 1425.4862,-187.528 1414.9304,-186.6192 1416.6677,-193.4003"/>
</g>
<!-- Node36&#45;&gt;Node32 -->
<g id="edge74" class="edge">
<title>Node36&#45;&gt;Node32</title>
<path fill="none" stroke="#191970" d="M1129.685,-336.2934C1128.7344,-322.2638 1125.0481,-296.2264 1111,-280 1067.9437,-230.2672 995.7621,-203.5634 944.5682,-190.1161"/>
<polygon fill="#191970" stroke="#191970" points="945.1771,-186.6599 934.6241,-187.6005 943.4603,-193.4462 945.1771,-186.6599"/>
</g>
<!-- Node36&#45;&gt;Node33 -->
<g id="edge67" class="edge">
<title>Node36&#45;&gt;Node33</title>
<path fill="none" stroke="#191970" d="M1119.748,-355.6427C1107.5545,-364.2794 1087.2469,-377.0824 1070.0837,-387.0465"/>
<polygon fill="#191970" stroke="#191970" points="1067.9053,-384.2589 1060.9436,-392.2455 1071.3664,-390.3435 1067.9053,-384.2589"/>
</g>
<!-- Node37 -->
<g id="node38" class="node">
<title>Node37</title>
<polygon fill="#ffffff" stroke="#bfbfbf" points="1359.5,-280.5 1359.5,-299.5 1438.5,-299.5 1438.5,-280.5 1359.5,-280.5"/>
<text text-anchor="middle" x="1399" y="-287.5" font-family="Helvetica,sans-Serif" font-size="10.00" fill="#000000">nettle/md5.h</text>
</g>
<!-- Node36&#45;&gt;Node37 -->
<g id="edge47" class="edge">
<title>Node36&#45;&gt;Node37</title>
<path fill="none" stroke="#191970" d="M1174.1187,-336.8154C1222.2272,-326.8003 1299.0489,-310.8077 1349.2639,-300.354"/>
<polygon fill="#191970" stroke="#191970" points="1350.1686,-303.7408 1359.2454,-298.2761 1348.7419,-296.8877 1350.1686,-303.7408"/>
</g>
<!-- Node38 -->
<g id="node39" class="node">
<title>Node38</title>
<g id="a_node39"><a xlink:href="fweelin__amixer_8h.html" target="_top" xlink:title="fweelin_amixer.h">
<polygon fill="#ffffff" stroke="#000000" points="507.5,-280.5 507.5,-299.5 608.5,-299.5 608.5,-280.5 507.5,-280.5"/>
<text text-anchor="middle" x="558" y="-287.5" font-family="Helvetica,sans-Serif" font-size="10.00" fill="#000000">fweelin_amixer.h</text>
</a>
</g>
</g>
<!-- Node36&#45;&gt;Node38 -->
<g id="edge48" class="edge">
<title>Node36&#45;&gt;Node38</title>
<path fill="none" stroke="#191970" d="M1085.8626,-338.7957C1079.8307,-337.748 1073.7547,-336.7663 1068,-336 868.5312,-309.4392 813.9155,-324.3291 615.3696,-300.7446"/>
<polygon fill="#191970" stroke="#191970" points="615.5368,-297.2395 605.1897,-299.5168 614.6986,-304.1891 615.5368,-297.2395"/>
</g>
<!-- Node41 -->
<g id="node42" class="node">
<title>Node41</title>
<g id="a_node42"><a xlink:href="fweelin__midiio_8h.html" target="_top" xlink:title="fweelin_midiio.h">
<polygon fill="#ffffff" stroke="#000000" points="627,-280.5 627,-299.5 725,-299.5 725,-280.5 627,-280.5"/>
<text text-anchor="middle" x="676" y="-287.5" font-family="Helvetica,sans-Serif" font-size="10.00" fill="#000000">fweelin_midiio.h</text>
</a>
</g>
</g>
<!-- Node36&#45;&gt;Node41 -->
<g id="edge55" class="edge">
<title>Node36&#45;&gt;Node41</title>
<path fill="none" stroke="#191970" d="M1085.7984,-337.385C1082.8252,-336.8905 1079.8718,-336.4232 1077,-336 927.5419,-313.9773 888.7624,-319.8481 739,-300 737.734,-299.8322 736.4543,-299.6593 735.1646,-299.4819"/>
<polygon fill="#191970" stroke="#191970" points="735.5398,-296.0001 725.1452,-298.0504 734.5496,-302.9297 735.5398,-296.0001"/>
</g>
<!-- Node42 -->
<g id="node43" class="node">
<title>Node42</title>
<g id="a_node43"><a xlink:href="fweelin__sdlio_8h.html" target="_top" xlink:title="fweelin_sdlio.h">
<polygon fill="#ffffff" stroke="#000000" points="304,-168.5 304,-187.5 394,-187.5 394,-168.5 304,-168.5"/>
<text text-anchor="middle" x="349" y="-175.5" font-family="Helvetica,sans-Serif" font-size="10.00" fill="#000000">fweelin_sdlio.h</text>
</a>
</g>
</g>
<!-- Node36&#45;&gt;Node42 -->
<g id="edge59" class="edge">
<title>Node36&#45;&gt;Node42</title>
<path fill="none" stroke="#191970" d="M1085.8184,-337.2383C1082.8403,-336.7792 1079.8804,-336.3599 1077,-336 821.1587,-304.0363 750.0627,-354.2295 498,-300 429.2442,-285.2077 390.4107,-301.56 350,-244 340.6477,-230.6789 341.3651,-211.8234 343.8574,-197.6751"/>
<polygon fill="#191970" stroke="#191970" points="347.3581,-198.0504 346.0783,-187.5332 340.5201,-196.553 347.3581,-198.0504"/>
</g>
<!-- Node43 -->
<g id="node44" class="node">
<title>Node43</title>
<g id="a_node44"><a xlink:href="fweelin__rcu_8h.html" target="_top" xlink:title="fweelin_rcu.h">
<polygon fill="#ffffff" stroke="#000000" points="1538,-168.5 1538,-187.5 1620,-187.5 1620,-168.5 1538,-168.5"/>
<text text-anchor="middle" x="1579" y="-175.5" font-family="Helvetica,sans-Serif" font-size="10.00" fill="#000000">fweelin_rcu.h</text>
</a>
</g>
</g>
<!-- Node36&#45;&gt;Node43 -->
<g id="edge63" class="edge">
<title>Node36&#45;&gt;Node43</title>
<path fill="none" stroke="#191970" d="M1155.4267,-336.4862C1231.4336,-308.0471 1457.0293,-223.6372 1544.1369,-191.0445"/>
<polygon fill="#191970" stroke="#191970" points="1545.4353,-194.2958 1553.5746,-187.5133 1542.9822,-187.7397 1545.4353,-194.2958"/>
</g>
<!-- Node45 -->
<g id="node46" class="node">
<title>Node45</title>
<g id="a_node46"><a xlink:href="fweelin__browser_8h.html" target="_top" xlink:title="fweelin_browser.h">
<polygon fill="#ffffff" stroke="#000000" points="996.5,-280.5 996.5,-299.5 1101.5,-299.5 1101.5,-280.5 996.5,-280.5"/>
<text text-anchor="middle" x="1049" y="-287.5" font-family="Helvetica,sans-Serif" font-size="10.00" fill="#000000">fweelin_browser.h</text>
</a>
</g>
</g>
<!-- Node36&#45;&gt;Node45 -->
<g id="edge71" class="edge">
<title>Node36&#45;&gt;Node45</title>
<path fill="none" stroke="#191970" d="M1115.8909,-336.2455C1103.5791,-327.7337 1085.5042,-315.2375 1071.2462,-305.3801"/>
<polygon fill="#191970" stroke="#191970" points="1073.1634,-302.4506 1062.9474,-299.6427 1069.1826,-308.2085 1073.1634,-302.4506"/>
</g>
<!-- Node46 -->
<g id="node47" class="node">
<title>Node46</title>
<g id="a_node47"><a xlink:href="fweelin__osc_8h.html" target="_top" xlink:title="fweelin_osc.h">
<polygon fill="#ffffff" stroke="#000000" points="1698.5,-280.5 1698.5,-299.5 1781.5,-299.5 1781.5,-280.5 1698.5,-280.5"/>
<text text-anchor="middle" x="1740" y="-287.5" font-family="Helvetica,sans-Serif" font-size="10.00" fill="#000000">fweelin_osc.h</text>
</a>
</g>
</g>
<!-- Node36&#45;&gt;Node46 -->
<g id="edge75" class="edge">
<title>Node36&#45;&gt;Node46</title>
<path fill="none" stroke="#191970" d="M1174.3147,-343.7365C1268.4584,-338.6169 1495.2318,-324.636 1684,-300 1685.4689,-299.8083 1686.958,-299.6047 1688.4598,-299.3913"/>
<polygon fill="#191970" stroke="#191970" points="1689.1201,-302.8312 1698.4774,-297.8622 1688.0637,-295.9113 1689.1201,-302.8312"/>
</g>
<!-- Node38&#45;&gt;Node2 -->
<g id="edge49" class="edge">
<title>Node38&#45;&gt;Node2</title>
<path fill="none" stroke="#191970" d="M510.1844,-280.4369C454.1889,-269.2378 362.7751,-250.955 312.9956,-240.9991"/>
<polygon fill="#191970" stroke="#191970" points="313.5251,-237.5358 303.0328,-239.0066 312.1522,-244.3998 313.5251,-237.5358"/>
</g>
<!-- Node38&#45;&gt;Node5 -->
<g id="edge50" class="edge">
<title>Node38&#45;&gt;Node5</title>
<path fill="none" stroke="#191970" d="M528.4321,-280.3733C499.0511,-270.8073 453.9368,-256.119 422.3764,-245.8435"/>
<polygon fill="#191970" stroke="#191970" points="423.2352,-242.4423 412.6429,-242.6744 421.068,-249.0984 423.2352,-242.4423"/>
</g>
<!-- Node38&#45;&gt;Node6 -->
<g id="edge52" class="edge">
<title>Node38&#45;&gt;Node6</title>
<path fill="none" stroke="#191970" d="M547.0262,-280.2455C537.8118,-272.0549 524.4468,-260.1749 513.5703,-250.5069"/>
<polygon fill="#191970" stroke="#191970" points="515.6474,-247.6704 505.848,-243.6427 510.9968,-252.9023 515.6474,-247.6704"/>
</g>
<!-- Node38&#45;&gt;Node36 -->
<g id="edge54" class="edge">
<title>Node38&#45;&gt;Node36</title>
<path fill="none" stroke="#191970" d="M608.8002,-297.4591C614.957,-298.3996 621.13,-299.282 627,-300 826.7408,-324.4312 881.361,-309.5059 1079.2281,-335.135"/>
<polygon fill="#191970" stroke="#191970" points="1079.0023,-338.6353 1089.3731,-336.4681 1079.9143,-331.695 1079.0023,-338.6353"/>
</g>
<!-- Node39 -->
<g id="node40" class="node">
<title>Node39</title>
<polygon fill="#ffffff" stroke="#bfbfbf" points="538.5,-224.5 538.5,-243.5 591.5,-243.5 591.5,-224.5 538.5,-224.5"/>
<text text-anchor="middle" x="565" y="-231.5" font-family="Helvetica,sans-Serif" font-size="10.00" fill="#000000">ctype.h</text>
</g>
<!-- Node38&#45;&gt;Node39 -->
<g id="edge51" class="edge">
<title>Node38&#45;&gt;Node39</title>
<path fill="none" stroke="#191970" d="M559.2193,-280.2455C560.1327,-272.9382 561.4132,-262.6944 562.5369,-253.7046"/>
<polygon fill="#191970" stroke="#191970" points="566.0272,-253.9996 563.7947,-243.6427 559.0813,-253.1313 566.0272,-253.9996"/>
</g>
<!-- Node40 -->
<g id="node41" class="node">
<title>Node40</title>
<polygon fill="#ffffff" stroke="#bfbfbf" points="610,-224.5 610,-243.5 706,-243.5 706,-224.5 610,-224.5"/>
<text text-anchor="middle" x="658" y="-231.5" font-family="Helvetica,sans-Serif" font-size="10.00" fill="#000000">alsa/asoundlib.h</text>
</g>
<!-- Node38&#45;&gt;Node40 -->
<g id="edge53" class="edge">
<title>Node38&#45;&gt;Node40</title>
<path fill="none" stroke="#191970" d="M575.4187,-280.2455C591.0485,-271.4928 614.2019,-258.527 632.0185,-248.5496"/>
<polygon fill="#191970" stroke="#191970" points="633.766,-251.5825 640.7809,-243.6427 630.3457,-245.475 633.766,-251.5825"/>
</g>
<!-- Node41&#45;&gt;Node27 -->
<g id="edge57" class="edge">
<title>Node41&#45;&gt;Node27</title>
<path fill="none" stroke="#191970" d="M683.7506,-280.3956C703.3908,-256.7999 757.8454,-195.8861 818,-168 857.8986,-149.5041 976.2525,-134.9294 1048.221,-127.4703"/>
<polygon fill="#191970" stroke="#191970" points="1048.8952,-130.9198 1058.4879,-126.4218 1048.184,-123.956 1048.8952,-130.9198"/>
</g>
<!-- Node41&#45;&gt;Node40 -->
<g id="edge56" class="edge">
<title>Node41&#45;&gt;Node40</title>
<path fill="none" stroke="#191970" d="M672.8646,-280.2455C670.49,-272.8579 667.1507,-262.4689 664.2385,-253.4087"/>
<polygon fill="#191970" stroke="#191970" points="667.4917,-252.0919 661.0994,-243.6427 660.8275,-254.234 667.4917,-252.0919"/>
</g>
<!-- Node42&#45;&gt;Node8 -->
<g id="edge60" class="edge">
<title>Node42&#45;&gt;Node8</title>
<path fill="none" stroke="#191970" d="M349,-168.4509C349,-150.184 349,-109.9553 349,-85.6976"/>
<polygon fill="#191970" stroke="#191970" points="352.5001,-85.5249 349,-75.5249 345.5001,-85.5249 352.5001,-85.5249"/>
</g>
<!-- Node42&#45;&gt;Node27 -->
<g id="edge61" class="edge">
<title>Node42&#45;&gt;Node27</title>
<path fill="none" stroke="#191970" d="M394.3177,-171.724C405.0207,-170.371 416.4017,-169.0374 427,-168 656.4317,-145.5416 930.5552,-130.5963 1047.9747,-124.7574"/>
<polygon fill="#191970" stroke="#191970" points="1048.3574,-128.2429 1058.1725,-124.2537 1048.0119,-121.2514 1048.3574,-128.2429"/>
</g>
<!-- Node43&#45;&gt;Node23 -->
<g id="edge66" class="edge">
<title>Node43&#45;&gt;Node23</title>
<path fill="none" stroke="#191970" d="M1604.0983,-168.3733C1627.9555,-159.2226 1664.0335,-145.3844 1690.571,-135.2057"/>
<polygon fill="#191970" stroke="#191970" points="1692.1459,-138.3503 1700.2292,-131.5011 1689.639,-131.8145 1692.1459,-138.3503"/>
</g>
<!-- Node43&#45;&gt;Node24 -->
<g id="edge65" class="edge">
<title>Node43&#45;&gt;Node24</title>
<path fill="none" stroke="#191970" d="M1579.1753,-168.3086C1578.875,-153.8104 1576.0377,-126.6195 1560,-112 1535.0386,-89.246 1448.7484,-77.0585 1386.3144,-71.0608"/>
<polygon fill="#191970" stroke="#191970" points="1386.4043,-67.5542 1376.1238,-70.1159 1385.7579,-74.5243 1386.4043,-67.5542"/>
</g>
<!-- Node44 -->
<g id="node45" class="node">
<title>Node44</title>
<polygon fill="#ffffff" stroke="#bfbfbf" points="1607.5,-112.5 1607.5,-131.5 1660.5,-131.5 1660.5,-112.5 1607.5,-112.5"/>
<text text-anchor="middle" x="1634" y="-119.5" font-family="Helvetica,sans-Serif" font-size="10.00" fill="#000000">stdint.h</text>
</g>
<!-- Node43&#45;&gt;Node44 -->
<g id="edge64" class="edge">
<title>Node43&#45;&gt;Node44</title>
<path fill="none" stroke="#191970" d="M1588.5803,-168.2455C1596.5458,-160.1352 1608.0641,-148.4075 1617.5079,-138.7919"/>
<polygon fill="#191970" stroke="#191970" points="1620.0195,-141.2297 1624.5295,-131.6427 1615.0253,-136.3247 1620.0195,-141.2297"/>
</g>
<!-- Node45&#45;&gt;Node11 -->
<g id="edge73" class="edge">
<title>Node45&#45;&gt;Node11</title>
<path fill="none" stroke="#191970" d="M1077.8802,-280.3733C1105.8161,-271.0613 1148.3142,-256.8953 1178.9869,-246.671"/>
<polygon fill="#191970" stroke="#191970" points="1180.1166,-249.9839 1188.4966,-243.5011 1177.903,-243.3431 1180.1166,-249.9839"/>
</g>
<!-- Node45&#45;&gt;Node27 -->
<g id="edge72" class="edge">
<title>Node45&#45;&gt;Node27</title>
<path fill="none" stroke="#191970" d="M996.38,-282.3668C912.3851,-268.0703 762.8143,-232.6996 818,-168 832.7408,-150.718 968.32,-135.0624 1048.0915,-127.2443"/>
<polygon fill="#191970" stroke="#191970" points="1048.8662,-130.6858 1058.4827,-126.2392 1048.1922,-123.7183 1048.8662,-130.6858"/>
</g>
<!-- Node47 -->
<g id="node48" class="node">
<title>Node47</title>
<polygon fill="#ffffff" stroke="#bfbfbf" points="1716.5,-224.5 1716.5,-243.5 1763.5,-243.5 1763.5,-224.5 1716.5,-224.5"/>
<text text-anchor="middle" x="1740" y="-231.5" font-family="Helvetica,sans-Serif" font-size="10.00" fill="#000000">lo/lo.h</text>
</g>
<!-- Node46&#45;&gt;Node47 -->
<g id="edge76" class="edge">
<title>Node46&#45;&gt;Node47</title>
<path fill="none" stroke="#191970" d="M1740,-280.2455C1740,-272.9382 1740,-262.6944 1740,-253.7046"/>
<polygon fill="#191970" stroke="#191970" points="1743.5001,-253.6426 1740,-243.6427 1736.5001,-253.6427 1743.5001,-253.6426"/>
</g>
</g>
</svg>
