<?xml version="1.0" encoding="UTF-8" standalone="no"?>
<!DOCTYPE svg PUBLIC "-//W3C//DTD SVG 1.1//EN"
 "http://www.w3.org/Graphics/SVG/1.1/DTD/svg11.dtd">
<!-- Generated by graphviz version 2.40.1 (20161225.0304)
 -->
<!-- Title: myround Pages: 1 -->
<svg width="518pt" height="28pt"
 viewBox="0.00 0.00 518.00 28.00" xmlns="http://www.w3.org/2000/svg" xmlns:xlink="http://www.w3.org/1999/xlink">
<g id="graph0" class="graph" transform="scale(1 1) rotate(0) translate(4 24)">
<title>myround</title>
<polygon fill="#ffffff" stroke="transparent" points="-4,4 -4,-24 514,-24 514,4 -4,4"/>
<!-- Node5 -->
<g id="node1" class="node">
<title>Node5</title>
<polygon fill="#bfbfbf" stroke="#000000" points="0,-.5 0,-19.5 60,-19.5 60,-.5 0,-.5"/>
<text text-anchor="middle" x="30" y="-7.5" font-family="Helvetica,sans-Serif" font-size="10.00" fill="#000000">myround</text>
</g>
<!-- Node6 -->
<g id="node2" class="node">
<title>Node6</title>
<g id="a_node2"><a xlink:href="classCircularMap.html#a67fde3f05bd5315b404a3fc80b4b4874" target="_top" xlink:title="CircularMap::CircularMap">
<polygon fill="#ffffff" stroke="#000000" points="96,-.5 96,-19.5 234,-19.5 234,-.5 96,-.5"/>
<text text-anchor="middle" x="165" y="-7.5" font-family="Helvetica,sans-Serif" font-size="10.00" fill="#000000">CircularMap::CircularMap</text>
</a>
</g>
</g>
<!-- Node5&#45;&gt;Node6 -->
<g id="edge1" class="edge">
<title>Node5&#45;&gt;Node6</title>
<path fill="none" stroke="#191970" d="M70.4834,-10C78.5387,-10 87.2089,-10 95.9142,-10"/>
<polygon fill="#191970" stroke="#191970" points="70.2967,-6.5001 60.2966,-10 70.2966,-13.5001 70.2967,-6.5001"/>
</g>
<!-- Node7 -->
<g id="node3" class="node">
<title>Node7</title>
<g id="a_node3"><a xlink:href="classVideoIO.html#a4d8da5474d57c6d5568977ca22938a40" target="_top" xlink:title="VideoIO::CreateMap">
<polygon fill="#ffffff" stroke="#000000" points="270,-.5 270,-19.5 383,-19.5 383,-.5 270,-.5"/>
<text text-anchor="middle" x="326.5" y="-7.5" font-family="Helvetica,sans-Serif" font-size="10.00" fill="#000000">VideoIO::CreateMap</text>
</a>
</g>
</g>
<!-- Node6&#45;&gt;Node7 -->
<g id="edge2" class="edge">
<title>Node6&#45;&gt;Node7</title>
<path fill="none" stroke="#191970" d="M244.4374,-10C252.9913,-10 261.5649,-10 269.774,-10"/>
<polygon fill="#191970" stroke="#191970" points="244.4278,-6.5001 234.4278,-10 244.4278,-13.5001 244.4278,-6.5001"/>
</g>
<!-- Node8 -->
<g id="node4" class="node">
<title>Node8</title>
<g id="a_node4"><a xlink:href="classLoopTray.html#a307e6abe64c403e39fc463ec282bde27" target="_top" xlink:title="LoopTray::Draw">
<polygon fill="#ffffff" stroke="#000000" points="419,-.5 419,-19.5 510,-19.5 510,-.5 419,-.5"/>
<text text-anchor="middle" x="464.5" y="-7.5" font-family="Helvetica,sans-Serif" font-size="10.00" fill="#000000">LoopTray::Draw</text>
</a>
</g>
</g>
<!-- Node7&#45;&gt;Node8 -->
<g id="edge3" class="edge">
<title>Node7&#45;&gt;Node8</title>
<path fill="none" stroke="#191970" d="M393.1654,-10C401.8484,-10 410.5807,-10 418.8115,-10"/>
<polygon fill="#191970" stroke="#191970" points="393.0281,-6.5001 383.0281,-10 393.028,-13.5001 393.0281,-6.5001"/>
</g>
</g>
</svg>
