<?xml version="1.0" encoding="UTF-8" standalone="no"?>
<!DOCTYPE svg PUBLIC "-//W3C//DTD SVG 1.1//EN"
 "http://www.w3.org/Graphics/SVG/1.1/DTD/svg11.dtd">
<!-- Generated by graphviz version 2.40.1 (20161225.0304)
 -->
<!-- Title: src/fweelin_audioio.cc Pages: 1 -->
<svg width="2048pt" height="476pt"
 viewBox="0.00 0.00 2047.50 476.00" xmlns="http://www.w3.org/2000/svg" xmlns:xlink="http://www.w3.org/1999/xlink">
<g id="graph0" class="graph" transform="scale(1 1) rotate(0) translate(4 472)">
<title>src/fweelin_audioio.cc</title>
<polygon fill="#ffffff" stroke="transparent" points="-4,4 -4,-472 2043.5,-472 2043.5,4 -4,4"/>
<!-- Node0 -->
<g id="node1" class="node">
<title>Node0</title>
<polygon fill="#bfbfbf" stroke="#000000" points="1411.5,-448.5 1411.5,-467.5 1536.5,-467.5 1536.5,-448.5 1411.5,-448.5"/>
<text text-anchor="middle" x="1474" y="-455.5" font-family="Helvetica,sans-Serif" font-size="10.00" fill="#000000">src/fweelin_audioio.cc</text>
</g>
<!-- Node1 -->
<g id="node2" class="node">
<title>Node1</title>
<polygon fill="#ffffff" stroke="#bfbfbf" points="0,-392.5 0,-411.5 68,-411.5 68,-392.5 0,-392.5"/>
<text text-anchor="middle" x="34" y="-399.5" font-family="Helvetica,sans-Serif" font-size="10.00" fill="#000000">sys/time.h</text>
</g>
<!-- Node0&#45;&gt;Node1 -->
<g id="edge1" class="edge">
<title>Node0&#45;&gt;Node1</title>
<path fill="none" stroke="#191970" d="M1411.2435,-457.364C1175.7452,-454.7536 344.7402,-443.4717 82,-412 80.7401,-411.8491 79.4643,-411.6819 78.1785,-411.5007"/>
<polygon fill="#191970" stroke="#191970" points="78.6625,-408.0335 68.2297,-409.8794 77.5365,-414.9423 78.6625,-408.0335"/>
</g>
<!-- Node2 -->
<g id="node3" class="node">
<title>Node2</title>
<polygon fill="#ffffff" stroke="#bfbfbf" points="124,-224.5 124,-243.5 174,-243.5 174,-224.5 124,-224.5"/>
<text text-anchor="middle" x="149" y="-231.5" font-family="Helvetica,sans-Serif" font-size="10.00" fill="#000000">stdio.h</text>
</g>
<!-- Node0&#45;&gt;Node2 -->
<g id="edge2" class="edge">
<title>Node0&#45;&gt;Node2</title>
<path fill="none" stroke="#191970" d="M1411.2882,-457.4938C1194.4244,-455.448 484.2504,-446.1815 388,-412 291.0037,-377.5536 200.4199,-289.1398 164.8652,-251.4461"/>
<polygon fill="#191970" stroke="#191970" points="167.1365,-248.7489 157.7635,-243.8094 162.0104,-253.5158 167.1365,-248.7489"/>
</g>
<!-- Node3 -->
<g id="node4" class="node">
<title>Node3</title>
<polygon fill="#ffffff" stroke="#bfbfbf" points="1540.5,-392.5 1540.5,-411.5 1591.5,-411.5 1591.5,-392.5 1540.5,-392.5"/>
<text text-anchor="middle" x="1566" y="-399.5" font-family="Helvetica,sans-Serif" font-size="10.00" fill="#000000">errno.h</text>
</g>
<!-- Node0&#45;&gt;Node3 -->
<g id="edge3" class="edge">
<title>Node0&#45;&gt;Node3</title>
<path fill="none" stroke="#191970" d="M1490.0252,-448.2455C1504.1408,-439.6534 1524.9263,-427.0014 1541.1899,-417.1018"/>
<polygon fill="#191970" stroke="#191970" points="1543.4363,-419.8319 1550.1585,-411.6427 1539.7966,-413.8525 1543.4363,-419.8319"/>
</g>
<!-- Node4 -->
<g id="node5" class="node">
<title>Node4</title>
<polygon fill="#ffffff" stroke="#bfbfbf" points="1610,-392.5 1610,-411.5 1666,-411.5 1666,-392.5 1610,-392.5"/>
<text text-anchor="middle" x="1638" y="-399.5" font-family="Helvetica,sans-Serif" font-size="10.00" fill="#000000">unistd.h</text>
</g>
<!-- Node0&#45;&gt;Node4 -->
<g id="edge4" class="edge">
<title>Node0&#45;&gt;Node4</title>
<path fill="none" stroke="#191970" d="M1502.1926,-448.3733C1529.3453,-439.1016 1570.5907,-425.0178 1600.5025,-414.804"/>
<polygon fill="#191970" stroke="#191970" points="1601.8428,-418.0449 1610.1753,-411.5011 1599.5808,-411.4204 1601.8428,-418.0449"/>
</g>
<!-- Node5 -->
<g id="node6" class="node">
<title>Node5</title>
<polygon fill="#ffffff" stroke="#bfbfbf" points="230.5,-224.5 230.5,-243.5 283.5,-243.5 283.5,-224.5 230.5,-224.5"/>
<text text-anchor="middle" x="257" y="-231.5" font-family="Helvetica,sans-Serif" font-size="10.00" fill="#000000">stdlib.h</text>
</g>
<!-- Node0&#45;&gt;Node5 -->
<g id="edge5" class="edge">
<title>Node0&#45;&gt;Node5</title>
<path fill="none" stroke="#191970" d="M1411.2799,-457.3763C1200.2401,-454.982 523.9354,-444.8047 432,-412 351.1017,-383.1336 290.5705,-292.2665 267.3618,-252.708"/>
<polygon fill="#191970" stroke="#191970" points="270.282,-250.7642 262.2758,-243.8251 264.2073,-254.2424 270.282,-250.7642"/>
</g>
<!-- Node6 -->
<g id="node7" class="node">
<title>Node6</title>
<polygon fill="#ffffff" stroke="#bfbfbf" points="301.5,-224.5 301.5,-243.5 352.5,-243.5 352.5,-224.5 301.5,-224.5"/>
<text text-anchor="middle" x="327" y="-231.5" font-family="Helvetica,sans-Serif" font-size="10.00" fill="#000000">math.h</text>
</g>
<!-- Node0&#45;&gt;Node6 -->
<g id="edge6" class="edge">
<title>Node0&#45;&gt;Node6</title>
<path fill="none" stroke="#191970" d="M1411.1291,-454.6132C1310.34,-448.7397 1106.5014,-435.0335 935,-412 662.2431,-375.3673 502.1237,-511.468 326,-300 315.4805,-287.3695 317.0632,-268.1728 320.4887,-253.7333"/>
<polygon fill="#191970" stroke="#191970" points="323.9427,-254.3813 323.2975,-243.8061 317.2071,-252.4754 323.9427,-254.3813"/>
</g>
<!-- Node7 -->
<g id="node8" class="node">
<title>Node7</title>
<polygon fill="#ffffff" stroke="#bfbfbf" points="1684.5,-392.5 1684.5,-411.5 1737.5,-411.5 1737.5,-392.5 1684.5,-392.5"/>
<text text-anchor="middle" x="1711" y="-399.5" font-family="Helvetica,sans-Serif" font-size="10.00" fill="#000000">string.h</text>
</g>
<!-- Node0&#45;&gt;Node7 -->
<g id="edge7" class="edge">
<title>Node0&#45;&gt;Node7</title>
<path fill="none" stroke="#191970" d="M1518.4505,-448.4421C1557.1207,-439.9892 1614.8922,-427.031 1674.3562,-412.079"/>
<polygon fill="#191970" stroke="#191970" points="1675.4637,-415.4092 1684.3,-409.5637 1673.7471,-408.6229 1675.4637,-415.4092"/>
</g>
<!-- Node8 -->
<g id="node9" class="node">
<title>Node8</title>
<polygon fill="#ffffff" stroke="#bfbfbf" points="315.5,-56.5 315.5,-75.5 378.5,-75.5 378.5,-56.5 315.5,-56.5"/>
<text text-anchor="middle" x="347" y="-63.5" font-family="Helvetica,sans-Serif" font-size="10.00" fill="#000000">pthread.h</text>
</g>
<!-- Node0&#45;&gt;Node8 -->
<g id="edge8" class="edge">
<title>Node0&#45;&gt;Node8</title>
<path fill="none" stroke="#191970" d="M1411.3352,-457.3237C1204.9007,-454.8039 547.4534,-444.3763 338,-412 227.8246,-394.9696 96,-457.4838 96,-346 96,-346 96,-346 96,-178 96,-132.6895 234.1307,-92.969 305.4513,-75.4801"/>
<polygon fill="#191970" stroke="#191970" points="306.5653,-78.8118 315.4648,-73.063 304.9227,-72.0072 306.5653,-78.8118"/>
</g>
<!-- Node9 -->
<g id="node10" class="node">
<title>Node9</title>
<polygon fill="#ffffff" stroke="#bfbfbf" points="1756,-392.5 1756,-411.5 1810,-411.5 1810,-392.5 1756,-392.5"/>
<text text-anchor="middle" x="1783" y="-399.5" font-family="Helvetica,sans-Serif" font-size="10.00" fill="#000000">sched.h</text>
</g>
<!-- Node0&#45;&gt;Node9 -->
<g id="edge9" class="edge">
<title>Node0&#45;&gt;Node9</title>
<path fill="none" stroke="#191970" d="M1536.7034,-449.3294C1589.9904,-441.5299 1668.6751,-429.0002 1746.0328,-412.0396"/>
<polygon fill="#191970" stroke="#191970" points="1746.9449,-415.4224 1755.9492,-409.8391 1745.4284,-408.5887 1746.9449,-415.4224"/>
</g>
<!-- Node10 -->
<g id="node11" class="node">
<title>Node10</title>
<polygon fill="#ffffff" stroke="#bfbfbf" points="1828.5,-392.5 1828.5,-411.5 1905.5,-411.5 1905.5,-392.5 1828.5,-392.5"/>
<text text-anchor="middle" x="1867" y="-399.5" font-family="Helvetica,sans-Serif" font-size="10.00" fill="#000000">sys/mman.h</text>
</g>
<!-- Node0&#45;&gt;Node10 -->
<g id="edge10" class="edge">
<title>Node0&#45;&gt;Node10</title>
<path fill="none" stroke="#191970" d="M1536.5318,-451.0509C1603.6422,-443.2803 1713.5799,-429.6524 1818.1701,-412.0376"/>
<polygon fill="#191970" stroke="#191970" points="1819.0012,-415.4466 1828.2734,-410.3206 1817.8283,-408.5456 1819.0012,-415.4466"/>
</g>
<!-- Node11 -->
<g id="node12" class="node">
<title>Node11</title>
<g id="a_node12"><a xlink:href="fweelin__config_8h.html" target="_top" xlink:title="fweelin_config.h">
<polygon fill="#ffffff" stroke="#000000" points="1100,-224.5 1100,-243.5 1196,-243.5 1196,-224.5 1100,-224.5"/>
<text text-anchor="middle" x="1148" y="-231.5" font-family="Helvetica,sans-Serif" font-size="10.00" fill="#000000">fweelin_config.h</text>
</a>
</g>
</g>
<!-- Node0&#45;&gt;Node11 -->
<g id="edge11" class="edge">
<title>Node0&#45;&gt;Node11</title>
<path fill="none" stroke="#191970" d="M1459.9922,-448.375C1408.9983,-413.3363 1232.9832,-292.3933 1170.3461,-249.3544"/>
<polygon fill="#191970" stroke="#191970" points="1172.1797,-246.3677 1161.9556,-243.5891 1168.2154,-252.137 1172.1797,-246.3677"/>
</g>
<!-- Node21 -->
<g id="node22" class="node">
<title>Node21</title>
<g id="a_node22"><a xlink:href="fweelin__audioio_8h.html" target="_top" xlink:title="fweelin_audioio.h">
<polygon fill="#ffffff" stroke="#000000" points="1508.5,-112.5 1508.5,-131.5 1611.5,-131.5 1611.5,-112.5 1508.5,-112.5"/>
<text text-anchor="middle" x="1560" y="-119.5" font-family="Helvetica,sans-Serif" font-size="10.00" fill="#000000">fweelin_audioio.h</text>
</a>
</g>
</g>
<!-- Node0&#45;&gt;Node21 -->
<g id="edge43" class="edge">
<title>Node0&#45;&gt;Node21</title>
<path fill="none" stroke="#191970" d="M1482.2301,-448.4112C1521.8412,-402.2146 1691.1887,-204.1618 1697,-188 1700.0077,-179.6354 1702.1895,-175.2167 1697,-168 1687.1436,-154.2933 1649.7893,-142.2854 1616.5721,-133.978"/>
<polygon fill="#191970" stroke="#191970" points="1616.9742,-130.4742 1606.4312,-131.5209 1615.3257,-137.2774 1616.9742,-130.4742"/>
</g>
<!-- Node33 -->
<g id="node34" class="node">
<title>Node33</title>
<g id="a_node34"><a xlink:href="fweelin__core__dsp_8h.html" target="_top" xlink:title="fweelin_core_dsp.h">
<polygon fill="#ffffff" stroke="#000000" points="944,-392.5 944,-411.5 1054,-411.5 1054,-392.5 944,-392.5"/>
<text text-anchor="middle" x="999" y="-399.5" font-family="Helvetica,sans-Serif" font-size="10.00" fill="#000000">fweelin_core_dsp.h</text>
</a>
</g>
</g>
<!-- Node0&#45;&gt;Node33 -->
<g id="edge44" class="edge">
<title>Node0&#45;&gt;Node33</title>
<path fill="none" stroke="#191970" d="M1411.4136,-450.6214C1321.3283,-440.0008 1155.9035,-420.4981 1064.3211,-409.701"/>
<polygon fill="#191970" stroke="#191970" points="1064.6818,-406.2194 1054.3408,-408.5244 1063.8622,-413.1712 1064.6818,-406.2194"/>
</g>
<!-- Node12 -->
<g id="node13" class="node">
<title>Node12</title>
<polygon fill="#ffffff" stroke="#bfbfbf" points="1112,-56.5 1112,-75.5 1178,-75.5 1178,-56.5 1112,-56.5"/>
<text text-anchor="middle" x="1145" y="-63.5" font-family="Helvetica,sans-Serif" font-size="10.00" fill="#000000">SDL/SDL.h</text>
</g>
<!-- Node11&#45;&gt;Node12 -->
<g id="edge12" class="edge">
<title>Node11&#45;&gt;Node12</title>
<path fill="none" stroke="#191970" d="M1163.618,-224.4791C1175.2472,-216.3972 1190.2332,-203.6339 1197,-188 1200.5308,-179.8425 1199.076,-176.6431 1197,-168 1189.42,-136.4425 1170.3552,-103.6461 1157.5395,-84.0292"/>
<polygon fill="#191970" stroke="#191970" points="1160.3076,-81.8729 1151.828,-75.5209 1154.4956,-85.7744 1160.3076,-81.8729"/>
</g>
<!-- Node13 -->
<g id="node14" class="node">
<title>Node13</title>
<polygon fill="#ffffff" stroke="#bfbfbf" points="1282,-168.5 1282,-187.5 1400,-187.5 1400,-168.5 1282,-168.5"/>
<text text-anchor="middle" x="1341" y="-175.5" font-family="Helvetica,sans-Serif" font-size="10.00" fill="#000000">libxml/xmlmemory.h</text>
</g>
<!-- Node11&#45;&gt;Node13 -->
<g id="edge13" class="edge">
<title>Node11&#45;&gt;Node13</title>
<path fill="none" stroke="#191970" d="M1181.1779,-224.3733C1213.5487,-214.9807 1262.9398,-200.6496 1298.2424,-190.4064"/>
<polygon fill="#191970" stroke="#191970" points="1299.6265,-193.6492 1308.2551,-187.5011 1297.6758,-186.9264 1299.6265,-193.6492"/>
</g>
<!-- Node14 -->
<g id="node15" class="node">
<title>Node14</title>
<polygon fill="#ffffff" stroke="#bfbfbf" points="1001.5,-168.5 1001.5,-187.5 1090.5,-187.5 1090.5,-168.5 1001.5,-168.5"/>
<text text-anchor="middle" x="1046" y="-175.5" font-family="Helvetica,sans-Serif" font-size="10.00" fill="#000000">libxml/parser.h</text>
</g>
<!-- Node11&#45;&gt;Node14 -->
<g id="edge14" class="edge">
<title>Node11&#45;&gt;Node14</title>
<path fill="none" stroke="#191970" d="M1130.233,-224.2455C1114.2905,-215.4928 1090.6741,-202.527 1072.5011,-192.5496"/>
<polygon fill="#191970" stroke="#191970" points="1074.0137,-189.3873 1063.5634,-187.6427 1070.6448,-195.5233 1074.0137,-189.3873"/>
</g>
<!-- Node15 -->
<g id="node16" class="node">
<title>Node15</title>
<polygon fill="#ffffff" stroke="#bfbfbf" points="1108.5,-168.5 1108.5,-187.5 1187.5,-187.5 1187.5,-168.5 1108.5,-168.5"/>
<text text-anchor="middle" x="1148" y="-175.5" font-family="Helvetica,sans-Serif" font-size="10.00" fill="#000000">libxml/tree.h</text>
</g>
<!-- Node11&#45;&gt;Node15 -->
<g id="edge15" class="edge">
<title>Node11&#45;&gt;Node15</title>
<path fill="none" stroke="#191970" d="M1148,-224.2455C1148,-216.9382 1148,-206.6944 1148,-197.7046"/>
<polygon fill="#191970" stroke="#191970" points="1151.5001,-197.6426 1148,-187.6427 1144.5001,-197.6427 1151.5001,-197.6426"/>
</g>
<!-- Node16 -->
<g id="node17" class="node">
<title>Node16</title>
<g id="a_node17"><a xlink:href="fweelin__block_8h.html" target="_top" xlink:title="fweelin_block.h">
<polygon fill="#ffffff" stroke="#000000" points="1594.5,-168.5 1594.5,-187.5 1687.5,-187.5 1687.5,-168.5 1594.5,-168.5"/>
<text text-anchor="middle" x="1641" y="-175.5" font-family="Helvetica,sans-Serif" font-size="10.00" fill="#000000">fweelin_block.h</text>
</a>
</g>
</g>
<!-- Node11&#45;&gt;Node16 -->
<g id="edge16" class="edge">
<title>Node11&#45;&gt;Node16</title>
<path fill="none" stroke="#191970" d="M1196.1685,-228.5285C1287.7823,-218.1221 1486.6919,-195.5279 1584.4523,-184.4233"/>
<polygon fill="#191970" stroke="#191970" points="1584.901,-187.8949 1594.442,-183.2885 1584.1108,-180.9396 1584.901,-187.8949"/>
</g>
<!-- Node11&#45;&gt;Node21 -->
<g id="edge35" class="edge">
<title>Node11&#45;&gt;Node21</title>
<path fill="none" stroke="#191970" d="M1196.2093,-232.3918C1281.9129,-228.7975 1456.7014,-217.932 1509,-188 1527.9696,-177.1431 1542.2993,-156.1453 1550.8661,-140.7388"/>
<polygon fill="#191970" stroke="#191970" points="1554.1207,-142.068 1555.6543,-131.5847 1547.918,-138.8235 1554.1207,-142.068"/>
</g>
<!-- Node24 -->
<g id="node25" class="node">
<title>Node24</title>
<g id="a_node25"><a xlink:href="fweelin__datatypes_8h.html" target="_top" xlink:title="fweelin_datatypes.h">
<polygon fill="#ffffff" stroke="#000000" points="1196,-56.5 1196,-75.5 1312,-75.5 1312,-56.5 1196,-56.5"/>
<text text-anchor="middle" x="1254" y="-63.5" font-family="Helvetica,sans-Serif" font-size="10.00" fill="#000000">fweelin_datatypes.h</text>
</a>
</g>
</g>
<!-- Node11&#45;&gt;Node24 -->
<g id="edge34" class="edge">
<title>Node11&#45;&gt;Node24</title>
<path fill="none" stroke="#191970" d="M1167.2782,-224.3682C1181.4596,-216.388 1200.2395,-203.8095 1212,-188 1235.2928,-156.6876 1246.3339,-111.4912 1251.0112,-85.8101"/>
<polygon fill="#191970" stroke="#191970" points="1254.4878,-86.2403 1252.6886,-75.7994 1247.584,-85.0834 1254.4878,-86.2403"/>
</g>
<!-- Node27 -->
<g id="node28" class="node">
<title>Node27</title>
<g id="a_node28"><a xlink:href="fweelin__event_8h.html" target="_top" xlink:title="fweelin_event.h">
<polygon fill="#ffffff" stroke="#000000" points="766.5,-112.5 766.5,-131.5 861.5,-131.5 861.5,-112.5 766.5,-112.5"/>
<text text-anchor="middle" x="814" y="-119.5" font-family="Helvetica,sans-Serif" font-size="10.00" fill="#000000">fweelin_event.h</text>
</a>
</g>
</g>
<!-- Node11&#45;&gt;Node27 -->
<g id="edge36" class="edge">
<title>Node11&#45;&gt;Node27</title>
<path fill="none" stroke="#191970" d="M1099.7195,-227.7478C1025.9318,-217.9239 891.556,-198.8744 872,-188 851.9068,-176.8269 835.3691,-155.933 825.1651,-140.6373"/>
<polygon fill="#191970" stroke="#191970" points="827.9751,-138.5336 819.655,-131.974 822.0685,-142.2903 827.9751,-138.5336"/>
</g>
<!-- Node29 -->
<g id="node30" class="node">
<title>Node29</title>
<g id="a_node30"><a xlink:href="fweelin__videoio_8h.html" target="_top" xlink:title="fweelin_videoio.h">
<polygon fill="#ffffff" stroke="#000000" points="880.5,-168.5 880.5,-187.5 983.5,-187.5 983.5,-168.5 880.5,-168.5"/>
<text text-anchor="middle" x="932" y="-175.5" font-family="Helvetica,sans-Serif" font-size="10.00" fill="#000000">fweelin_videoio.h</text>
</a>
</g>
</g>
<!-- Node11&#45;&gt;Node29 -->
<g id="edge37" class="edge">
<title>Node11&#45;&gt;Node29</title>
<path fill="none" stroke="#191970" d="M1110.8683,-224.3733C1074.1733,-214.8598 1017.9361,-200.2797 978.3349,-190.0127"/>
<polygon fill="#191970" stroke="#191970" points="979.2056,-186.6228 968.6472,-187.5011 977.4488,-193.3988 979.2056,-186.6228"/>
</g>
<!-- Node32 -->
<g id="node33" class="node">
<title>Node32</title>
<g id="a_node33"><a xlink:href="fweelin__fluidsynth_8h.html" target="_top" xlink:title="fweelin_fluidsynth.h">
<polygon fill="#ffffff" stroke="#000000" points="632.5,-168.5 632.5,-187.5 747.5,-187.5 747.5,-168.5 632.5,-168.5"/>
<text text-anchor="middle" x="690" y="-175.5" font-family="Helvetica,sans-Serif" font-size="10.00" fill="#000000">fweelin_fluidsynth.h</text>
</a>
</g>
</g>
<!-- Node11&#45;&gt;Node32 -->
<g id="edge42" class="edge">
<title>Node11&#45;&gt;Node32</title>
<path fill="none" stroke="#191970" d="M1099.8516,-228.1129C1017.9729,-218.1015 851.4053,-197.7351 757.7864,-186.2883"/>
<polygon fill="#191970" stroke="#191970" points="758.2019,-182.8131 747.851,-185.0735 757.3522,-189.7614 758.2019,-182.8131"/>
</g>
<!-- Node17 -->
<g id="node18" class="node">
<title>Node17</title>
<polygon fill="#ffffff" stroke="#bfbfbf" points="1952.5,-112.5 1952.5,-131.5 2039.5,-131.5 2039.5,-112.5 1952.5,-112.5"/>
<text text-anchor="middle" x="1996" y="-119.5" font-family="Helvetica,sans-Serif" font-size="10.00" fill="#000000">vorbis/codec.h</text>
</g>
<!-- Node16&#45;&gt;Node17 -->
<g id="edge17" class="edge">
<title>Node16&#45;&gt;Node17</title>
<path fill="none" stroke="#191970" d="M1687.6444,-171.417C1745.0745,-163.1959 1845.8422,-148.3958 1942.416,-132.0517"/>
<polygon fill="#191970" stroke="#191970" points="1943.0775,-135.4895 1952.3492,-130.3624 1941.9039,-128.5886 1943.0775,-135.4895"/>
</g>
<!-- Node18 -->
<g id="node19" class="node">
<title>Node18</title>
<polygon fill="#ffffff" stroke="#bfbfbf" points="1630,-112.5 1630,-131.5 1734,-131.5 1734,-112.5 1630,-112.5"/>
<text text-anchor="middle" x="1682" y="-119.5" font-family="Helvetica,sans-Serif" font-size="10.00" fill="#000000">vorbis/vorbisfile.h</text>
</g>
<!-- Node16&#45;&gt;Node18 -->
<g id="edge18" class="edge">
<title>Node16&#45;&gt;Node18</title>
<path fill="none" stroke="#191970" d="M1648.1417,-168.2455C1653.8444,-160.4564 1661.99,-149.3308 1668.8625,-139.9439"/>
<polygon fill="#191970" stroke="#191970" points="1671.8568,-141.7789 1674.9402,-131.6427 1666.2087,-137.6437 1671.8568,-141.7789"/>
</g>
<!-- Node19 -->
<g id="node20" class="node">
<title>Node19</title>
<polygon fill="#ffffff" stroke="#bfbfbf" points="1752,-112.5 1752,-131.5 1858,-131.5 1858,-112.5 1752,-112.5"/>
<text text-anchor="middle" x="1805" y="-119.5" font-family="Helvetica,sans-Serif" font-size="10.00" fill="#000000">vorbis/vorbisenc.h</text>
</g>
<!-- Node16&#45;&gt;Node19 -->
<g id="edge19" class="edge">
<title>Node16&#45;&gt;Node19</title>
<path fill="none" stroke="#191970" d="M1669.1926,-168.3733C1696.3453,-159.1016 1737.5907,-145.0178 1767.5025,-134.804"/>
<polygon fill="#191970" stroke="#191970" points="1768.8428,-138.0449 1777.1753,-131.5011 1766.5808,-131.4204 1768.8428,-138.0449"/>
</g>
<!-- Node20 -->
<g id="node21" class="node">
<title>Node20</title>
<polygon fill="#ffffff" stroke="#bfbfbf" points="1876,-112.5 1876,-131.5 1934,-131.5 1934,-112.5 1876,-112.5"/>
<text text-anchor="middle" x="1905" y="-119.5" font-family="Helvetica,sans-Serif" font-size="10.00" fill="#000000">sndfile.h</text>
</g>
<!-- Node16&#45;&gt;Node20 -->
<g id="edge20" class="edge">
<title>Node16&#45;&gt;Node20</title>
<path fill="none" stroke="#191970" d="M1687.9141,-169.2532C1731.5924,-160.9298 1798.728,-147.6801 1866.0626,-132.1246"/>
<polygon fill="#191970" stroke="#191970" points="1867.0494,-135.4886 1875.9959,-129.8131 1865.4629,-128.6707 1867.0494,-135.4886"/>
</g>
<!-- Node16&#45;&gt;Node21 -->
<g id="edge21" class="edge">
<title>Node16&#45;&gt;Node21</title>
<path fill="none" stroke="#191970" d="M1626.8909,-168.2455C1614.5791,-159.7337 1596.5042,-147.2375 1582.2462,-137.3801"/>
<polygon fill="#191970" stroke="#191970" points="1584.1634,-134.4506 1573.9474,-131.6427 1580.1826,-140.2085 1584.1634,-134.4506"/>
</g>
<!-- Node23 -->
<g id="node24" class="node">
<title>Node23</title>
<g id="a_node24"><a xlink:href="fweelin__mem_8h.html" target="_top" xlink:title="fweelin_mem.h">
<polygon fill="#ffffff" stroke="#000000" points="1398,-112.5 1398,-131.5 1490,-131.5 1490,-112.5 1398,-112.5"/>
<text text-anchor="middle" x="1444" y="-119.5" font-family="Helvetica,sans-Serif" font-size="10.00" fill="#000000">fweelin_mem.h</text>
</a>
</g>
</g>
<!-- Node16&#45;&gt;Node23 -->
<g id="edge23" class="edge">
<title>Node16&#45;&gt;Node23</title>
<path fill="none" stroke="#191970" d="M1607.1345,-168.3733C1573.951,-158.9404 1523.245,-144.5265 1487.1806,-134.2747"/>
<polygon fill="#191970" stroke="#191970" points="1487.9995,-130.8689 1477.4236,-131.5011 1486.0855,-137.6021 1487.9995,-130.8689"/>
</g>
<!-- Node16&#45;&gt;Node27 -->
<g id="edge27" class="edge">
<title>Node16&#45;&gt;Node27</title>
<path fill="none" stroke="#191970" d="M1594.3913,-174.8496C1566.7523,-172.7743 1531.3026,-170.0687 1500,-168 1219.9325,-149.4915 1145.8578,-164.2397 868.0376,-132.663"/>
<polygon fill="#191970" stroke="#191970" points="868.4016,-129.1819 858.068,-131.5201 867.6043,-136.1364 868.4016,-129.1819"/>
</g>
<!-- Node22 -->
<g id="node23" class="node">
<title>Node22</title>
<polygon fill="#ffffff" stroke="#bfbfbf" points="1525.5,-56.5 1525.5,-75.5 1594.5,-75.5 1594.5,-56.5 1525.5,-56.5"/>
<text text-anchor="middle" x="1560" y="-63.5" font-family="Helvetica,sans-Serif" font-size="10.00" fill="#000000">jack/jack.h</text>
</g>
<!-- Node21&#45;&gt;Node22 -->
<g id="edge22" class="edge">
<title>Node21&#45;&gt;Node22</title>
<path fill="none" stroke="#191970" d="M1560,-112.2455C1560,-104.9382 1560,-94.6944 1560,-85.7046"/>
<polygon fill="#191970" stroke="#191970" points="1563.5001,-85.6426 1560,-75.6427 1556.5001,-85.6427 1563.5001,-85.6426"/>
</g>
<!-- Node23&#45;&gt;Node24 -->
<g id="edge24" class="edge">
<title>Node23&#45;&gt;Node24</title>
<path fill="none" stroke="#191970" d="M1411.3378,-112.3733C1379.4702,-102.9807 1330.8469,-88.6496 1296.093,-78.4064"/>
<polygon fill="#191970" stroke="#191970" points="1296.8175,-74.9711 1286.236,-75.5011 1294.8385,-81.6855 1296.8175,-74.9711"/>
</g>
<!-- Node25 -->
<g id="node26" class="node">
<title>Node25</title>
<polygon fill="#ffffff" stroke="#bfbfbf" points="939.5,-.5 939.5,-19.5 1034.5,-19.5 1034.5,-.5 939.5,-.5"/>
<text text-anchor="middle" x="987" y="-7.5" font-family="Helvetica,sans-Serif" font-size="10.00" fill="#000000">jack/ringbuffer.h</text>
</g>
<!-- Node24&#45;&gt;Node25 -->
<g id="edge25" class="edge">
<title>Node24&#45;&gt;Node25</title>
<path fill="none" stroke="#191970" d="M1208.4044,-56.4369C1162.4215,-46.7925 1091.3912,-31.8948 1042.2394,-21.5858"/>
<polygon fill="#191970" stroke="#191970" points="1042.913,-18.151 1032.4075,-19.5237 1041.4761,-25.0019 1042.913,-18.151"/>
</g>
<!-- Node26 -->
<g id="node27" class="node">
<title>Node26</title>
<polygon fill="#ffffff" stroke="#bfbfbf" points="1226,-.5 1226,-19.5 1282,-19.5 1282,-.5 1226,-.5"/>
<text text-anchor="middle" x="1254" y="-7.5" font-family="Helvetica,sans-Serif" font-size="10.00" fill="#000000">assert.h</text>
</g>
<!-- Node24&#45;&gt;Node26 -->
<g id="edge26" class="edge">
<title>Node24&#45;&gt;Node26</title>
<path fill="none" stroke="#191970" d="M1254,-56.2455C1254,-48.9382 1254,-38.6944 1254,-29.7046"/>
<polygon fill="#191970" stroke="#191970" points="1257.5001,-29.6426 1254,-19.6427 1250.5001,-29.6427 1257.5001,-29.6426"/>
</g>
<!-- Node27&#45;&gt;Node8 -->
<g id="edge29" class="edge">
<title>Node27&#45;&gt;Node8</title>
<path fill="none" stroke="#191970" d="M766.2175,-116.2702C674.5178,-105.2741 475.2785,-81.3824 388.6359,-70.9927"/>
<polygon fill="#191970" stroke="#191970" points="388.9883,-67.51 378.6427,-69.7944 388.1548,-74.4602 388.9883,-67.51"/>
</g>
<!-- Node27&#45;&gt;Node12 -->
<g id="edge30" class="edge">
<title>Node27&#45;&gt;Node12</title>
<path fill="none" stroke="#191970" d="M861.5812,-113.6255C864.7683,-113.0729 867.9303,-112.5269 871,-112 952.5071,-98.0086 1047.7376,-82.1255 1101.7509,-73.1601"/>
<polygon fill="#191970" stroke="#191970" points="1102.3736,-76.6047 1111.6659,-71.5152 1101.2279,-69.6991 1102.3736,-76.6047"/>
</g>
<!-- Node27&#45;&gt;Node16 -->
<g id="edge33" class="edge">
<title>Node27&#45;&gt;Node16</title>
<path fill="none" stroke="#191970" d="M861.7413,-129.4428C867.9096,-130.4218 874.1115,-131.3197 880,-132 1162.1301,-164.5941 1234.6115,-149.272 1518,-168 1539.7767,-169.4391 1563.5605,-171.1866 1584.4066,-172.8156"/>
<polygon fill="#191970" stroke="#191970" points="1584.1378,-176.3052 1594.3825,-173.6039 1584.6893,-169.3269 1584.1378,-176.3052"/>
</g>
<!-- Node27&#45;&gt;Node24 -->
<g id="edge32" class="edge">
<title>Node27&#45;&gt;Node24</title>
<path fill="none" stroke="#191970" d="M861.5514,-113.437C864.7457,-112.9299 867.9175,-112.4456 871,-112 1007.6201,-92.2519 1045.112,-94.3239 1185.6156,-76.1406"/>
<polygon fill="#191970" stroke="#191970" points="1186.4502,-79.5614 1195.9127,-74.7958 1185.5436,-72.6204 1186.4502,-79.5614"/>
</g>
<!-- Node27&#45;&gt;Node25 -->
<g id="edge31" class="edge">
<title>Node27&#45;&gt;Node25</title>
<path fill="none" stroke="#191970" d="M814.0368,-112.0357C814.6407,-97.6852 817.8994,-71.2518 833,-56 846.7415,-42.1209 891.505,-29.6656 929.2534,-21.2272"/>
<polygon fill="#191970" stroke="#191970" points="930.1533,-24.6133 939.178,-19.0631 928.6619,-17.774 930.1533,-24.6133"/>
</g>
<!-- Node28 -->
<g id="node29" class="node">
<title>Node28</title>
<polygon fill="#ffffff" stroke="#bfbfbf" points="842,-56.5 842,-75.5 922,-75.5 922,-56.5 842,-56.5"/>
<text text-anchor="middle" x="882" y="-63.5" font-family="Helvetica,sans-Serif" font-size="10.00" fill="#000000">linux/limits.h</text>
</g>
<!-- Node27&#45;&gt;Node28 -->
<g id="edge28" class="edge">
<title>Node27&#45;&gt;Node28</title>
<path fill="none" stroke="#191970" d="M825.8447,-112.2455C835.888,-103.9746 850.4995,-91.9416 862.3004,-82.2232"/>
<polygon fill="#191970" stroke="#191970" points="864.7967,-84.7015 870.291,-75.6427 860.3467,-79.298 864.7967,-84.7015"/>
</g>
<!-- Node29&#45;&gt;Node12 -->
<g id="edge39" class="edge">
<title>Node29&#45;&gt;Node12</title>
<path fill="none" stroke="#191970" d="M983.508,-168.66C1037.7082,-158.3934 1116.6178,-142.0291 1127,-132 1139.3888,-120.0325 1143.5176,-100.4418 1144.7692,-85.7066"/>
<polygon fill="#191970" stroke="#191970" points="1148.2711,-85.7478 1145.2546,-75.5915 1141.2792,-85.4122 1148.2711,-85.7478"/>
</g>
<!-- Node29&#45;&gt;Node27 -->
<g id="edge38" class="edge">
<title>Node29&#45;&gt;Node27</title>
<path fill="none" stroke="#191970" d="M911.7151,-168.3733C892.8579,-159.4241 864.554,-145.9917 843.2545,-135.8835"/>
<polygon fill="#191970" stroke="#191970" points="844.5551,-132.6266 834.0202,-131.5011 841.5539,-138.9506 844.5551,-132.6266"/>
</g>
<!-- Node30 -->
<g id="node31" class="node">
<title>Node30</title>
<polygon fill="#ffffff" stroke="#bfbfbf" points="980.5,-112.5 980.5,-131.5 1117.5,-131.5 1117.5,-112.5 980.5,-112.5"/>
<text text-anchor="middle" x="1049" y="-119.5" font-family="Helvetica,sans-Serif" font-size="10.00" fill="#000000">SDL/SDL_gfxPrimitives.h</text>
</g>
<!-- Node29&#45;&gt;Node30 -->
<g id="edge40" class="edge">
<title>Node29&#45;&gt;Node30</title>
<path fill="none" stroke="#191970" d="M952.113,-168.3733C970.8103,-159.4241 998.8744,-145.9917 1019.9934,-135.8835"/>
<polygon fill="#191970" stroke="#191970" points="1021.6405,-138.9755 1029.1494,-131.5011 1018.6183,-132.6614 1021.6405,-138.9755"/>
</g>
<!-- Node31 -->
<g id="node32" class="node">
<title>Node31</title>
<polygon fill="#ffffff" stroke="#bfbfbf" points="880,-112.5 880,-131.5 962,-131.5 962,-112.5 880,-112.5"/>
<text text-anchor="middle" x="921" y="-119.5" font-family="Helvetica,sans-Serif" font-size="10.00" fill="#000000">SDL/SDL_ttf.h</text>
</g>
<!-- Node29&#45;&gt;Node31 -->
<g id="edge41" class="edge">
<title>Node29&#45;&gt;Node31</title>
<path fill="none" stroke="#191970" d="M930.0839,-168.2455C928.6486,-160.9382 926.6364,-150.6944 924.8705,-141.7046"/>
<polygon fill="#191970" stroke="#191970" points="928.256,-140.7805 922.8941,-131.6427 921.3873,-142.1298 928.256,-140.7805"/>
</g>
<!-- Node33&#45;&gt;Node16 -->
<g id="edge79" class="edge">
<title>Node33&#45;&gt;Node16</title>
<path fill="none" stroke="#191970" d="M1054.323,-398.0588C1146.2437,-389.8325 1334.6013,-365.7756 1479,-300 1538.1992,-273.034 1596.3311,-221.4438 1624.1001,-194.8195"/>
<polygon fill="#191970" stroke="#191970" points="1626.6791,-197.1936 1631.4078,-187.7125 1621.7987,-192.1754 1626.6791,-197.1936"/>
</g>
<!-- Node33&#45;&gt;Node27 -->
<g id="edge78" class="edge">
<title>Node33&#45;&gt;Node27</title>
<path fill="none" stroke="#191970" d="M1011.0693,-392.3325C1025.3852,-379.6219 1046.1124,-356.498 1036,-336 988.1759,-239.0598 909.7267,-273.0417 843,-188 832.0413,-174.0334 824.3235,-155.2819 819.6195,-141.3356"/>
<polygon fill="#191970" stroke="#191970" points="822.9482,-140.2532 816.606,-131.7663 816.2714,-142.3558 822.9482,-140.2532"/>
</g>
<!-- Node34 -->
<g id="node35" class="node">
<title>Node34</title>
<polygon fill="#ffffff" stroke="#bfbfbf" points="909,-336.5 909,-355.5 953,-355.5 953,-336.5 909,-336.5"/>
<text text-anchor="middle" x="931" y="-343.5" font-family="Helvetica,sans-Serif" font-size="10.00" fill="#000000">string</text>
</g>
<!-- Node33&#45;&gt;Node34 -->
<g id="edge45" class="edge">
<title>Node33&#45;&gt;Node34</title>
<path fill="none" stroke="#191970" d="M987.1553,-392.2455C977.112,-383.9746 962.5005,-371.9416 950.6996,-362.2232"/>
<polygon fill="#191970" stroke="#191970" points="952.6533,-359.298 942.709,-355.6427 948.2033,-364.7015 952.6533,-359.298"/>
</g>
<!-- Node35 -->
<g id="node36" class="node">
<title>Node35</title>
<polygon fill="#ffffff" stroke="#bfbfbf" points="971,-336.5 971,-355.5 1027,-355.5 1027,-336.5 971,-336.5"/>
<text text-anchor="middle" x="999" y="-343.5" font-family="Helvetica,sans-Serif" font-size="10.00" fill="#000000">sstream</text>
</g>
<!-- Node33&#45;&gt;Node35 -->
<g id="edge46" class="edge">
<title>Node33&#45;&gt;Node35</title>
<path fill="none" stroke="#191970" d="M999,-392.2455C999,-384.9382 999,-374.6944 999,-365.7046"/>
<polygon fill="#191970" stroke="#191970" points="1002.5001,-365.6426 999,-355.6427 995.5001,-365.6427 1002.5001,-365.6426"/>
</g>
<!-- Node36 -->
<g id="node37" class="node">
<title>Node36</title>
<g id="a_node37"><a xlink:href="fweelin__core_8h.html" target="_top" xlink:title="fweelin_core.h">
<polygon fill="#ffffff" stroke="#000000" points="773,-336.5 773,-355.5 861,-355.5 861,-336.5 773,-336.5"/>
<text text-anchor="middle" x="817" y="-343.5" font-family="Helvetica,sans-Serif" font-size="10.00" fill="#000000">fweelin_core.h</text>
</a>
</g>
</g>
<!-- Node33&#45;&gt;Node36 -->
<g id="edge47" class="edge">
<title>Node33&#45;&gt;Node36</title>
<path fill="none" stroke="#191970" d="M962.4711,-392.3733C930.3855,-383.0613 884.1747,-368.8953 852.4252,-358.671"/>
<polygon fill="#191970" stroke="#191970" points="853.2535,-355.2601 842.6614,-355.5011 851.0919,-361.918 853.2535,-355.2601"/>
</g>
<!-- Node36&#45;&gt;Node11 -->
<g id="edge71" class="edge">
<title>Node36&#45;&gt;Node11</title>
<path fill="none" stroke="#191970" d="M860.5617,-336.4965C896.5034,-328.2084 948.6177,-315.1574 993,-300 1037.7055,-284.7322 1087.7008,-262.4572 1118.5145,-248.0949"/>
<polygon fill="#191970" stroke="#191970" points="1120.2494,-251.1469 1127.8139,-243.7288 1117.2744,-244.8106 1120.2494,-251.1469"/>
</g>
<!-- Node36&#45;&gt;Node16 -->
<g id="edge69" class="edge">
<title>Node36&#45;&gt;Node16</title>
<path fill="none" stroke="#191970" d="M861.3194,-340.2069C873.8138,-338.6971 887.427,-337.168 900,-336 1021.9586,-324.6702 1336.9269,-347.0824 1450,-300 1497.0895,-280.3924 1493.0099,-251.4541 1536,-224 1557.1408,-210.4992 1582.9166,-199.142 1603.6388,-191.0903"/>
<polygon fill="#191970" stroke="#191970" points="1604.9546,-194.3346 1613.0655,-187.5181 1602.4741,-187.7888 1604.9546,-194.3346"/>
</g>
<!-- Node36&#45;&gt;Node21 -->
<g id="edge63" class="edge">
<title>Node36&#45;&gt;Node21</title>
<path fill="none" stroke="#191970" d="M861.4283,-339.3217C914.3947,-331.1284 1005.4926,-316.3036 1083,-300 1285.1099,-257.4865 1378.6552,-324.1021 1534,-188 1547.4344,-176.2298 1553.9916,-156.6129 1557.1522,-141.8178"/>
<polygon fill="#191970" stroke="#191970" points="1560.6547,-142.1127 1558.9645,-131.6535 1553.7634,-140.8838 1560.6547,-142.1127"/>
</g>
<!-- Node36&#45;&gt;Node27 -->
<g id="edge70" class="edge">
<title>Node36&#45;&gt;Node27</title>
<path fill="none" stroke="#191970" d="M772.9208,-343.0453C715.9005,-338.1992 621.3346,-326.3312 600,-300 587.6043,-284.7012 569.9396,-223.509 624,-168 642.2381,-149.2732 707.3224,-136.4277 756.2718,-129.1662"/>
<polygon fill="#191970" stroke="#191970" points="757.0501,-132.5903 766.4495,-127.7013 756.0528,-125.6617 757.0501,-132.5903"/>
</g>
<!-- Node36&#45;&gt;Node29 -->
<g id="edge59" class="edge">
<title>Node36&#45;&gt;Node29</title>
<path fill="none" stroke="#191970" d="M861.0173,-337.7188C898.5059,-329.6651 948.1344,-316.2812 960,-300 982.8119,-268.6989 960.288,-221.8473 944.4978,-196.2702"/>
<polygon fill="#191970" stroke="#191970" points="947.2523,-194.0842 938.8843,-187.586 941.3736,-197.8843 947.2523,-194.0842"/>
</g>
<!-- Node36&#45;&gt;Node32 -->
<g id="edge75" class="edge">
<title>Node36&#45;&gt;Node32</title>
<path fill="none" stroke="#191970" d="M790.0982,-336.3374C772.584,-328.8289 750.3987,-316.8389 736,-300 710.2426,-269.8774 698.2006,-223.89 693.1616,-197.8298"/>
<polygon fill="#191970" stroke="#191970" points="696.5551,-196.921 691.3629,-187.6856 689.6626,-198.1431 696.5551,-196.921"/>
</g>
<!-- Node36&#45;&gt;Node33 -->
<g id="edge68" class="edge">
<title>Node36&#45;&gt;Node33</title>
<path fill="none" stroke="#191970" d="M853.0959,-355.5011C885.0536,-364.7691 931.2653,-378.9309 963.1446,-389.1905"/>
<polygon fill="#191970" stroke="#191970" points="962.3631,-392.6165 972.9551,-392.3733 964.5232,-385.9581 962.3631,-392.6165"/>
</g>
<!-- Node37 -->
<g id="node38" class="node">
<title>Node37</title>
<polygon fill="#ffffff" stroke="#bfbfbf" points="608.5,-280.5 608.5,-299.5 687.5,-299.5 687.5,-280.5 608.5,-280.5"/>
<text text-anchor="middle" x="648" y="-287.5" font-family="Helvetica,sans-Serif" font-size="10.00" fill="#000000">nettle/md5.h</text>
</g>
<!-- Node36&#45;&gt;Node37 -->
<g id="edge48" class="edge">
<title>Node36&#45;&gt;Node37</title>
<path fill="none" stroke="#191970" d="M787.9479,-336.3733C759.8457,-327.0613 717.0946,-312.8953 686.2393,-302.671"/>
<polygon fill="#191970" stroke="#191970" points="687.2664,-299.3243 676.673,-299.5011 685.0645,-305.969 687.2664,-299.3243"/>
</g>
<!-- Node38 -->
<g id="node39" class="node">
<title>Node38</title>
<g id="a_node39"><a xlink:href="fweelin__amixer_8h.html" target="_top" xlink:title="fweelin_amixer.h">
<polygon fill="#ffffff" stroke="#000000" points="334.5,-280.5 334.5,-299.5 435.5,-299.5 435.5,-280.5 334.5,-280.5"/>
<text text-anchor="middle" x="385" y="-287.5" font-family="Helvetica,sans-Serif" font-size="10.00" fill="#000000">fweelin_amixer.h</text>
</a>
</g>
</g>
<!-- Node36&#45;&gt;Node38 -->
<g id="edge49" class="edge">
<title>Node36&#45;&gt;Node38</title>
<path fill="none" stroke="#191970" d="M772.9632,-341.766C703.6562,-334.4349 565.2331,-318.5158 443.098,-301.0149"/>
<polygon fill="#191970" stroke="#191970" points="443.2351,-297.4986 432.8379,-299.5353 442.2359,-304.4269 443.2351,-297.4986"/>
</g>
<!-- Node41 -->
<g id="node42" class="node">
<title>Node41</title>
<g id="a_node42"><a xlink:href="fweelin__midiio_8h.html" target="_top" xlink:title="fweelin_midiio.h">
<polygon fill="#ffffff" stroke="#000000" points="454,-280.5 454,-299.5 552,-299.5 552,-280.5 454,-280.5"/>
<text text-anchor="middle" x="503" y="-287.5" font-family="Helvetica,sans-Serif" font-size="10.00" fill="#000000">fweelin_midiio.h</text>
</a>
</g>
</g>
<!-- Node36&#45;&gt;Node41 -->
<g id="edge56" class="edge">
<title>Node36&#45;&gt;Node41</title>
<path fill="none" stroke="#191970" d="M772.6774,-338.0953C717.5104,-328.2566 623.1133,-311.4215 561.9052,-300.5054"/>
<polygon fill="#191970" stroke="#191970" points="562.4631,-297.0497 552.0039,-298.7395 561.234,-303.941 562.4631,-297.0497"/>
</g>
<!-- Node42 -->
<g id="node43" class="node">
<title>Node42</title>
<g id="a_node43"><a xlink:href="fweelin__sdlio_8h.html" target="_top" xlink:title="fweelin_sdlio.h">
<polygon fill="#ffffff" stroke="#000000" points="302,-168.5 302,-187.5 392,-187.5 392,-168.5 302,-168.5"/>
<text text-anchor="middle" x="347" y="-175.5" font-family="Helvetica,sans-Serif" font-size="10.00" fill="#000000">fweelin_sdlio.h</text>
</a>
</g>
</g>
<!-- Node36&#45;&gt;Node42 -->
<g id="edge60" class="edge">
<title>Node36&#45;&gt;Node42</title>
<path fill="none" stroke="#191970" d="M772.8954,-344.0968C668.5629,-339.2369 409.1274,-324.959 326,-300 275.3451,-284.7909 248.2111,-289.3518 221,-244 201.7101,-211.8501 249.6205,-194.62 291.8063,-185.921"/>
<polygon fill="#191970" stroke="#191970" points="292.6494,-189.323 301.8042,-183.9901 291.322,-182.45 292.6494,-189.323"/>
</g>
<!-- Node43 -->
<g id="node44" class="node">
<title>Node43</title>
<g id="a_node44"><a xlink:href="fweelin__rcu_8h.html" target="_top" xlink:title="fweelin_rcu.h">
<polygon fill="#ffffff" stroke="#000000" points="1418,-168.5 1418,-187.5 1500,-187.5 1500,-168.5 1418,-168.5"/>
<text text-anchor="middle" x="1459" y="-175.5" font-family="Helvetica,sans-Serif" font-size="10.00" fill="#000000">fweelin_rcu.h</text>
</a>
</g>
</g>
<!-- Node36&#45;&gt;Node43 -->
<g id="edge64" class="edge">
<title>Node36&#45;&gt;Node43</title>
<path fill="none" stroke="#191970" d="M861.2598,-337.4393C904.869,-328.7909 973.2987,-314.6478 1032,-300 1175.3598,-264.2272 1343.3783,-213.6427 1418.7934,-190.471"/>
<polygon fill="#191970" stroke="#191970" points="1419.8532,-193.8069 1428.3807,-187.5195 1417.7935,-187.1168 1419.8532,-193.8069"/>
</g>
<!-- Node45 -->
<g id="node46" class="node">
<title>Node45</title>
<g id="a_node46"><a xlink:href="fweelin__browser_8h.html" target="_top" xlink:title="fweelin_browser.h">
<polygon fill="#ffffff" stroke="#000000" points="845.5,-280.5 845.5,-299.5 950.5,-299.5 950.5,-280.5 845.5,-280.5"/>
<text text-anchor="middle" x="898" y="-287.5" font-family="Helvetica,sans-Serif" font-size="10.00" fill="#000000">fweelin_browser.h</text>
</a>
</g>
</g>
<!-- Node36&#45;&gt;Node45 -->
<g id="edge72" class="edge">
<title>Node36&#45;&gt;Node45</title>
<path fill="none" stroke="#191970" d="M831.1091,-336.2455C843.4209,-327.7337 861.4958,-315.2375 875.7538,-305.3801"/>
<polygon fill="#191970" stroke="#191970" points="877.8174,-308.2085 884.0526,-299.6427 873.8366,-302.4506 877.8174,-308.2085"/>
</g>
<!-- Node46 -->
<g id="node47" class="node">
<title>Node46</title>
<g id="a_node47"><a xlink:href="fweelin__osc_8h.html" target="_top" xlink:title="fweelin_osc.h">
<polygon fill="#ffffff" stroke="#000000" points="744.5,-280.5 744.5,-299.5 827.5,-299.5 827.5,-280.5 744.5,-280.5"/>
<text text-anchor="middle" x="786" y="-287.5" font-family="Helvetica,sans-Serif" font-size="10.00" fill="#000000">fweelin_osc.h</text>
</a>
</g>
</g>
<!-- Node36&#45;&gt;Node46 -->
<g id="edge76" class="edge">
<title>Node36&#45;&gt;Node46</title>
<path fill="none" stroke="#191970" d="M811.6002,-336.2455C807.3773,-328.617 801.3827,-317.7881 796.2559,-308.5267"/>
<polygon fill="#191970" stroke="#191970" points="799.2432,-306.6965 791.3379,-299.6427 793.119,-310.0867 799.2432,-306.6965"/>
</g>
<!-- Node38&#45;&gt;Node2 -->
<g id="edge50" class="edge">
<title>Node38&#45;&gt;Node2</title>
<path fill="none" stroke="#191970" d="M344.6983,-280.4369C299.5768,-269.7301 227.1698,-252.5488 184.2275,-242.3591"/>
<polygon fill="#191970" stroke="#191970" points="184.7761,-238.8921 174.2382,-239.9887 183.1599,-245.703 184.7761,-238.8921"/>
</g>
<!-- Node38&#45;&gt;Node5 -->
<g id="edge51" class="edge">
<title>Node38&#45;&gt;Node5</title>
<path fill="none" stroke="#191970" d="M362.996,-280.3733C342.3565,-271.3435 311.2842,-257.7494 288.1111,-247.6111"/>
<polygon fill="#191970" stroke="#191970" points="289.2813,-244.3028 278.7169,-243.5011 286.4755,-250.7159 289.2813,-244.3028"/>
</g>
<!-- Node38&#45;&gt;Node6 -->
<g id="edge53" class="edge">
<title>Node38&#45;&gt;Node6</title>
<path fill="none" stroke="#191970" d="M374.8972,-280.2455C366.4972,-272.1352 354.3506,-260.4075 344.3916,-250.7919"/>
<polygon fill="#191970" stroke="#191970" points="346.6122,-248.0707 336.9871,-243.6427 341.75,-253.1066 346.6122,-248.0707"/>
</g>
<!-- Node38&#45;&gt;Node36 -->
<g id="edge55" class="edge">
<title>Node38&#45;&gt;Node36</title>
<path fill="none" stroke="#191970" d="M435.5028,-297.1666C441.7641,-298.1605 448.043,-299.1357 454,-300 563.567,-315.8977 691.8022,-330.9815 762.8586,-339.3117"/>
<polygon fill="#191970" stroke="#191970" points="762.5789,-342.8028 772.9184,-340.491 763.394,-335.8504 762.5789,-342.8028"/>
</g>
<!-- Node39 -->
<g id="node40" class="node">
<title>Node39</title>
<polygon fill="#ffffff" stroke="#bfbfbf" points="370.5,-224.5 370.5,-243.5 423.5,-243.5 423.5,-224.5 370.5,-224.5"/>
<text text-anchor="middle" x="397" y="-231.5" font-family="Helvetica,sans-Serif" font-size="10.00" fill="#000000">ctype.h</text>
</g>
<!-- Node38&#45;&gt;Node39 -->
<g id="edge52" class="edge">
<title>Node38&#45;&gt;Node39</title>
<path fill="none" stroke="#191970" d="M387.0902,-280.2455C388.6561,-272.9382 390.8512,-262.6944 392.7776,-253.7046"/>
<polygon fill="#191970" stroke="#191970" points="396.2607,-254.1541 394.9337,-243.6427 389.416,-252.6873 396.2607,-254.1541"/>
</g>
<!-- Node40 -->
<g id="node41" class="node">
<title>Node40</title>
<polygon fill="#ffffff" stroke="#bfbfbf" points="442,-224.5 442,-243.5 538,-243.5 538,-224.5 442,-224.5"/>
<text text-anchor="middle" x="490" y="-231.5" font-family="Helvetica,sans-Serif" font-size="10.00" fill="#000000">alsa/asoundlib.h</text>
</g>
<!-- Node38&#45;&gt;Node40 -->
<g id="edge54" class="edge">
<title>Node38&#45;&gt;Node40</title>
<path fill="none" stroke="#191970" d="M403.2896,-280.2455C419.7762,-271.4527 444.2352,-258.4079 462.9765,-248.4125"/>
<polygon fill="#191970" stroke="#191970" points="464.7435,-251.4368 471.92,-243.6427 461.4494,-245.2604 464.7435,-251.4368"/>
</g>
<!-- Node41&#45;&gt;Node27 -->
<g id="edge58" class="edge">
<title>Node41&#45;&gt;Node27</title>
<path fill="none" stroke="#191970" d="M513.5548,-280.4174C522.9888,-271.5322 536.8496,-257.6607 547,-244 570.1467,-212.8487 558.6232,-190.8401 590,-168 616.04,-149.0447 699.0576,-135.6384 756.3648,-128.3619"/>
<polygon fill="#191970" stroke="#191970" points="756.8984,-131.8226 766.3912,-127.1176 756.0363,-124.8759 756.8984,-131.8226"/>
</g>
<!-- Node41&#45;&gt;Node40 -->
<g id="edge57" class="edge">
<title>Node41&#45;&gt;Node40</title>
<path fill="none" stroke="#191970" d="M500.7356,-280.2455C499.0206,-272.8579 496.6088,-262.4689 494.5056,-253.4087"/>
<polygon fill="#191970" stroke="#191970" points="497.9092,-252.5922 492.2385,-243.6427 491.0905,-254.1751 497.9092,-252.5922"/>
</g>
<!-- Node42&#45;&gt;Node8 -->
<g id="edge61" class="edge">
<title>Node42&#45;&gt;Node8</title>
<path fill="none" stroke="#191970" d="M347,-168.4509C347,-150.184 347,-109.9553 347,-85.6976"/>
<polygon fill="#191970" stroke="#191970" points="350.5001,-85.5249 347,-75.5249 343.5001,-85.5249 350.5001,-85.5249"/>
</g>
<!-- Node42&#45;&gt;Node27 -->
<g id="edge62" class="edge">
<title>Node42&#45;&gt;Node27</title>
<path fill="none" stroke="#191970" d="M392.2022,-172.5796C477.4771,-162.3539 661.9635,-140.2314 756.1419,-128.938"/>
<polygon fill="#191970" stroke="#191970" points="756.8306,-132.3806 766.3427,-127.7148 755.9971,-125.4304 756.8306,-132.3806"/>
</g>
<!-- Node43&#45;&gt;Node23 -->
<g id="edge67" class="edge">
<title>Node43&#45;&gt;Node23</title>
<path fill="none" stroke="#191970" d="M1456.3872,-168.2455C1454.4084,-160.8579 1451.6256,-150.4689 1449.1988,-141.4087"/>
<polygon fill="#191970" stroke="#191970" points="1452.5511,-140.3966 1446.5829,-131.6427 1445.7895,-142.2078 1452.5511,-140.3966"/>
</g>
<!-- Node43&#45;&gt;Node24 -->
<g id="edge66" class="edge">
<title>Node43&#45;&gt;Node24</title>
<path fill="none" stroke="#191970" d="M1444.2674,-168.3086C1423.7443,-154.9683 1385.2128,-130.4992 1351,-112 1329.4012,-100.3213 1304.344,-88.4805 1285.1079,-79.7373"/>
<polygon fill="#191970" stroke="#191970" points="1286.4563,-76.506 1275.9014,-75.5868 1283.5793,-82.8875 1286.4563,-76.506"/>
</g>
<!-- Node44 -->
<g id="node45" class="node">
<title>Node44</title>
<polygon fill="#ffffff" stroke="#bfbfbf" points="1288.5,-112.5 1288.5,-131.5 1341.5,-131.5 1341.5,-112.5 1288.5,-112.5"/>
<text text-anchor="middle" x="1315" y="-119.5" font-family="Helvetica,sans-Serif" font-size="10.00" fill="#000000">stdint.h</text>
</g>
<!-- Node43&#45;&gt;Node44 -->
<g id="edge65" class="edge">
<title>Node43&#45;&gt;Node44</title>
<path fill="none" stroke="#191970" d="M1434.2455,-168.3733C1410.7151,-159.2226 1375.1313,-145.3844 1348.9574,-135.2057"/>
<polygon fill="#191970" stroke="#191970" points="1350.0201,-131.8636 1339.4315,-131.5011 1347.4829,-138.3877 1350.0201,-131.8636"/>
</g>
<!-- Node45&#45;&gt;Node11 -->
<g id="edge74" class="edge">
<title>Node45&#45;&gt;Node11</title>
<path fill="none" stroke="#191970" d="M940.6925,-280.4369C983.5679,-270.8328 1049.7005,-256.0191 1095.7002,-245.7152"/>
<polygon fill="#191970" stroke="#191970" points="1096.4905,-249.1249 1105.4836,-243.5237 1094.9604,-242.2942 1096.4905,-249.1249"/>
</g>
<!-- Node45&#45;&gt;Node27 -->
<g id="edge73" class="edge">
<title>Node45&#45;&gt;Node27</title>
<path fill="none" stroke="#191970" d="M883.1088,-280.2804C860.1182,-264.2714 816.8734,-229.9166 800,-188 793.8654,-172.7605 798.6545,-154.4097 804.2394,-140.9306"/>
<polygon fill="#191970" stroke="#191970" points="807.4846,-142.2512 808.4976,-131.7049 801.1289,-139.3176 807.4846,-142.2512"/>
</g>
<!-- Node47 -->
<g id="node48" class="node">
<title>Node47</title>
<polygon fill="#ffffff" stroke="#bfbfbf" points="744.5,-224.5 744.5,-243.5 791.5,-243.5 791.5,-224.5 744.5,-224.5"/>
<text text-anchor="middle" x="768" y="-231.5" font-family="Helvetica,sans-Serif" font-size="10.00" fill="#000000">lo/lo.h</text>
</g>
<!-- Node46&#45;&gt;Node47 -->
<g id="edge77" class="edge">
<title>Node46&#45;&gt;Node47</title>
<path fill="none" stroke="#191970" d="M782.8646,-280.2455C780.49,-272.8579 777.1507,-262.4689 774.2385,-253.4087"/>
<polygon fill="#191970" stroke="#191970" points="777.4917,-252.0919 771.0994,-243.6427 770.8275,-254.234 777.4917,-252.0919"/>
</g>
</g>
</svg>
