<?xml version="1.0" encoding="UTF-8" standalone="no"?>
<!DOCTYPE svg PUBLIC "-//W3C//DTD SVG 1.1//EN"
 "http://www.w3.org/Graphics/SVG/1.1/DTD/svg11.dtd">
<!-- Generated by graphviz version 2.40.1 (20161225.0304)
 -->
<!-- Title: src/fweelin_rcu.h Pages: 1 -->
<svg width="210pt" height="196pt"
 viewBox="0.00 0.00 209.50 196.00" xmlns="http://www.w3.org/2000/svg" xmlns:xlink="http://www.w3.org/1999/xlink">
<g id="graph0" class="graph" transform="scale(1 1) rotate(0) translate(4 192)">
<title>src/fweelin_rcu.h</title>
<polygon fill="#ffffff" stroke="transparent" points="-4,4 -4,-192 205.5,-192 205.5,4 -4,4"/>
<!-- Node0 -->
<g id="node1" class="node">
<title>Node0</title>
<polygon fill="#bfbfbf" stroke="#000000" points="32,-168.5 32,-187.5 131,-187.5 131,-168.5 32,-168.5"/>
<text text-anchor="middle" x="81.5" y="-175.5" font-family="Helvetica,sans-Serif" font-size="10.00" fill="#000000">src/fweelin_rcu.h</text>
</g>
<!-- Node1 -->
<g id="node2" class="node">
<title>Node1</title>
<polygon fill="#ffffff" stroke="#bfbfbf" points="0,-112.5 0,-131.5 53,-131.5 53,-112.5 0,-112.5"/>
<text text-anchor="middle" x="26.5" y="-119.5" font-family="Helvetica,sans-Serif" font-size="10.00" fill="#000000">stdint.h</text>
</g>
<!-- Node0&#45;&gt;Node1 -->
<g id="edge1" class="edge">
<title>Node0&#45;&gt;Node1</title>
<path fill="none" stroke="#191970" d="M71.9197,-168.2455C63.9542,-160.1352 52.4359,-148.4075 42.9921,-138.7919"/>
<polygon fill="#191970" stroke="#191970" points="45.4747,-136.3247 35.9705,-131.6427 40.4805,-141.2297 45.4747,-136.3247"/>
</g>
<!-- Node2 -->
<g id="node3" class="node">
<title>Node2</title>
<g id="a_node3"><a xlink:href="fweelin__datatypes_8h.html" target="_top" xlink:title="fweelin_datatypes.h">
<polygon fill="#ffffff" stroke="#000000" points="60.5,-56.5 60.5,-75.5 176.5,-75.5 176.5,-56.5 60.5,-56.5"/>
<text text-anchor="middle" x="118.5" y="-63.5" font-family="Helvetica,sans-Serif" font-size="10.00" fill="#000000">fweelin_datatypes.h</text>
</a>
</g>
</g>
<!-- Node0&#45;&gt;Node2 -->
<g id="edge2" class="edge">
<title>Node0&#45;&gt;Node2</title>
<path fill="none" stroke="#191970" d="M84.0503,-168.0716C87.4578,-155.0788 93.8429,-131.6502 100.5,-112 103.5182,-103.0908 107.2546,-93.3714 110.5395,-85.1716"/>
<polygon fill="#191970" stroke="#191970" points="113.8368,-86.3546 114.371,-75.7733 107.3548,-83.712 113.8368,-86.3546"/>
</g>
<!-- Node5 -->
<g id="node6" class="node">
<title>Node5</title>
<g id="a_node6"><a xlink:href="fweelin__mem_8h.html" target="_top" xlink:title="fweelin_mem.h">
<polygon fill="#ffffff" stroke="#000000" points="109.5,-112.5 109.5,-131.5 201.5,-131.5 201.5,-112.5 109.5,-112.5"/>
<text text-anchor="middle" x="155.5" y="-119.5" font-family="Helvetica,sans-Serif" font-size="10.00" fill="#000000">fweelin_mem.h</text>
</a>
</g>
</g>
<!-- Node0&#45;&gt;Node5 -->
<g id="edge5" class="edge">
<title>Node0&#45;&gt;Node5</title>
<path fill="none" stroke="#191970" d="M94.3898,-168.2455C105.4254,-159.8943 121.5292,-147.7076 134.4353,-137.9408"/>
<polygon fill="#191970" stroke="#191970" points="136.8959,-140.4681 142.7579,-131.6427 132.6717,-134.8862 136.8959,-140.4681"/>
</g>
<!-- Node3 -->
<g id="node4" class="node">
<title>Node3</title>
<polygon fill="#ffffff" stroke="#bfbfbf" points="24,-.5 24,-19.5 119,-19.5 119,-.5 24,-.5"/>
<text text-anchor="middle" x="71.5" y="-7.5" font-family="Helvetica,sans-Serif" font-size="10.00" fill="#000000">jack/ringbuffer.h</text>
</g>
<!-- Node2&#45;&gt;Node3 -->
<g id="edge3" class="edge">
<title>Node2&#45;&gt;Node3</title>
<path fill="none" stroke="#191970" d="M110.3132,-56.2455C103.6411,-48.2958 94.0521,-36.8706 86.0747,-27.3656"/>
<polygon fill="#191970" stroke="#191970" points="88.7026,-25.0524 79.593,-19.6427 83.3408,-29.5525 88.7026,-25.0524"/>
</g>
<!-- Node4 -->
<g id="node5" class="node">
<title>Node4</title>
<polygon fill="#ffffff" stroke="#bfbfbf" points="137.5,-.5 137.5,-19.5 193.5,-19.5 193.5,-.5 137.5,-.5"/>
<text text-anchor="middle" x="165.5" y="-7.5" font-family="Helvetica,sans-Serif" font-size="10.00" fill="#000000">assert.h</text>
</g>
<!-- Node2&#45;&gt;Node4 -->
<g id="edge4" class="edge">
<title>Node2&#45;&gt;Node4</title>
<path fill="none" stroke="#191970" d="M126.6868,-56.2455C133.3589,-48.2958 142.9479,-36.8706 150.9253,-27.3656"/>
<polygon fill="#191970" stroke="#191970" points="153.6592,-29.5525 157.407,-19.6427 148.2974,-25.0524 153.6592,-29.5525"/>
</g>
<!-- Node5&#45;&gt;Node2 -->
<g id="edge6" class="edge">
<title>Node5&#45;&gt;Node2</title>
<path fill="none" stroke="#191970" d="M149.0551,-112.2455C143.9618,-104.5367 136.7092,-93.5598 130.548,-84.2348"/>
<polygon fill="#191970" stroke="#191970" points="133.3038,-82.0566 124.8711,-75.6427 127.4635,-85.9155 133.3038,-82.0566"/>
</g>
</g>
</svg>
