<?xml version="1.0" encoding="UTF-8" standalone="no"?>
<!DOCTYPE svg PUBLIC "-//W3C//DTD SVG 1.1//EN"
 "http://www.w3.org/Graphics/SVG/1.1/DTD/svg11.dtd">
<!-- Generated by graphviz version 2.40.1 (20161225.0304)
 -->
<!-- Title: src/fweelin_block.cc Pages: 1 -->
<svg width="1976pt" height="420pt"
 viewBox="0.00 0.00 1975.50 420.00" xmlns="http://www.w3.org/2000/svg" xmlns:xlink="http://www.w3.org/1999/xlink">
<g id="graph0" class="graph" transform="scale(1 1) rotate(0) translate(4 416)">
<title>src/fweelin_block.cc</title>
<polygon fill="#ffffff" stroke="transparent" points="-4,4 -4,-416 1971.5,-416 1971.5,4 -4,4"/>
<!-- Node0 -->
<g id="node1" class="node">
<title>Node0</title>
<polygon fill="#bfbfbf" stroke="#000000" points="285.5,-392.5 285.5,-411.5 400.5,-411.5 400.5,-392.5 285.5,-392.5"/>
<text text-anchor="middle" x="343" y="-399.5" font-family="Helvetica,sans-Serif" font-size="10.00" fill="#000000">src/fweelin_block.cc</text>
</g>
<!-- Node1 -->
<g id="node2" class="node">
<title>Node1</title>
<polygon fill="#ffffff" stroke="#bfbfbf" points="0,-336.5 0,-355.5 68,-355.5 68,-336.5 0,-336.5"/>
<text text-anchor="middle" x="34" y="-343.5" font-family="Helvetica,sans-Serif" font-size="10.00" fill="#000000">sys/time.h</text>
</g>
<!-- Node0&#45;&gt;Node1 -->
<g id="edge1" class="edge">
<title>Node0&#45;&gt;Node1</title>
<path fill="none" stroke="#191970" d="M286.1382,-392.4998C233.2032,-383.5321 152.1474,-369.4853 82,-356 80.7304,-355.7559 79.4426,-355.5056 78.1431,-355.2507"/>
<polygon fill="#191970" stroke="#191970" points="78.5549,-351.7638 68.0623,-353.232 77.1804,-358.6275 78.5549,-351.7638"/>
</g>
<!-- Node2 -->
<g id="node3" class="node">
<title>Node2</title>
<polygon fill="#ffffff" stroke="#bfbfbf" points="109,-224.5 109,-243.5 159,-243.5 159,-224.5 109,-224.5"/>
<text text-anchor="middle" x="134" y="-231.5" font-family="Helvetica,sans-Serif" font-size="10.00" fill="#000000">stdio.h</text>
</g>
<!-- Node0&#45;&gt;Node2 -->
<g id="edge2" class="edge">
<title>Node0&#45;&gt;Node2</title>
<path fill="none" stroke="#191970" d="M285.3251,-398.4907C224.9847,-393.4734 136.1311,-381.8202 115,-356 90.6828,-326.2868 109.6954,-278.4281 123.3084,-252.3619"/>
<polygon fill="#191970" stroke="#191970" points="126.4169,-253.9725 128.1598,-243.522 120.2803,-250.6047 126.4169,-253.9725"/>
</g>
<!-- Node3 -->
<g id="node4" class="node">
<title>Node3</title>
<polygon fill="#ffffff" stroke="#bfbfbf" points="124.5,-336.5 124.5,-355.5 175.5,-355.5 175.5,-336.5 124.5,-336.5"/>
<text text-anchor="middle" x="150" y="-343.5" font-family="Helvetica,sans-Serif" font-size="10.00" fill="#000000">errno.h</text>
</g>
<!-- Node0&#45;&gt;Node3 -->
<g id="edge3" class="edge">
<title>Node0&#45;&gt;Node3</title>
<path fill="none" stroke="#191970" d="M309.8221,-392.3733C275.1951,-382.3261 221.0927,-366.6279 185.592,-356.3272"/>
<polygon fill="#191970" stroke="#191970" points="186.2385,-352.8705 175.6593,-353.4452 184.2878,-359.5932 186.2385,-352.8705"/>
</g>
<!-- Node4 -->
<g id="node5" class="node">
<title>Node4</title>
<polygon fill="#ffffff" stroke="#bfbfbf" points="194,-336.5 194,-355.5 250,-355.5 250,-336.5 194,-336.5"/>
<text text-anchor="middle" x="222" y="-343.5" font-family="Helvetica,sans-Serif" font-size="10.00" fill="#000000">unistd.h</text>
</g>
<!-- Node0&#45;&gt;Node4 -->
<g id="edge4" class="edge">
<title>Node0&#45;&gt;Node4</title>
<path fill="none" stroke="#191970" d="M322.1994,-392.3733C302.7757,-383.3838 273.5776,-369.8706 251.7036,-359.7471"/>
<polygon fill="#191970" stroke="#191970" points="253.0745,-356.5249 242.5292,-355.5011 250.1344,-362.8776 253.0745,-356.5249"/>
</g>
<!-- Node5 -->
<g id="node6" class="node">
<title>Node5</title>
<polygon fill="#ffffff" stroke="#bfbfbf" points="252.5,-224.5 252.5,-243.5 305.5,-243.5 305.5,-224.5 252.5,-224.5"/>
<text text-anchor="middle" x="279" y="-231.5" font-family="Helvetica,sans-Serif" font-size="10.00" fill="#000000">stdlib.h</text>
</g>
<!-- Node0&#45;&gt;Node5 -->
<g id="edge5" class="edge">
<title>Node0&#45;&gt;Node5</title>
<path fill="none" stroke="#191970" d="M339.3757,-392.4862C329.1712,-365.6994 300.0501,-289.2565 286.3253,-253.2289"/>
<polygon fill="#191970" stroke="#191970" points="289.5747,-251.9268 282.744,-243.8279 283.0333,-254.4188 289.5747,-251.9268"/>
</g>
<!-- Node6 -->
<g id="node7" class="node">
<title>Node6</title>
<polygon fill="#ffffff" stroke="#bfbfbf" points="323.5,-224.5 323.5,-243.5 374.5,-243.5 374.5,-224.5 323.5,-224.5"/>
<text text-anchor="middle" x="349" y="-231.5" font-family="Helvetica,sans-Serif" font-size="10.00" fill="#000000">math.h</text>
</g>
<!-- Node0&#45;&gt;Node6 -->
<g id="edge6" class="edge">
<title>Node0&#45;&gt;Node6</title>
<path fill="none" stroke="#191970" d="M340.7893,-392.1936C338.8202,-382.9241 336.0874,-368.5985 335,-356 332.0955,-322.3473 330.0285,-313.4099 335,-280 336.3327,-271.0439 339.0494,-261.419 341.7381,-253.3"/>
<polygon fill="#191970" stroke="#191970" points="345.1067,-254.272 345.1376,-243.6772 338.5064,-251.9402 345.1067,-254.272"/>
</g>
<!-- Node7 -->
<g id="node8" class="node">
<title>Node7</title>
<polygon fill="#ffffff" stroke="#bfbfbf" points="344.5,-336.5 344.5,-355.5 397.5,-355.5 397.5,-336.5 344.5,-336.5"/>
<text text-anchor="middle" x="371" y="-343.5" font-family="Helvetica,sans-Serif" font-size="10.00" fill="#000000">string.h</text>
</g>
<!-- Node0&#45;&gt;Node7 -->
<g id="edge7" class="edge">
<title>Node0&#45;&gt;Node7</title>
<path fill="none" stroke="#191970" d="M347.8772,-392.2455C351.6513,-384.6973 356.9921,-374.0158 361.5901,-364.8197"/>
<polygon fill="#191970" stroke="#191970" points="364.837,-366.1522 366.1787,-355.6427 358.576,-363.0217 364.837,-366.1522"/>
</g>
<!-- Node8 -->
<g id="node9" class="node">
<title>Node8</title>
<polygon fill="#ffffff" stroke="#bfbfbf" points="558.5,-56.5 558.5,-75.5 621.5,-75.5 621.5,-56.5 558.5,-56.5"/>
<text text-anchor="middle" x="590" y="-63.5" font-family="Helvetica,sans-Serif" font-size="10.00" fill="#000000">pthread.h</text>
</g>
<!-- Node0&#45;&gt;Node8 -->
<g id="edge8" class="edge">
<title>Node0&#45;&gt;Node8</title>
<path fill="none" stroke="#191970" d="M370.7817,-392.4884C409.2356,-377.3504 474,-343.8598 474,-290 474,-290 474,-290 474,-178 474,-131.0456 523.7969,-97.5403 558.1371,-80.0171"/>
<polygon fill="#191970" stroke="#191970" points="559.9174,-83.0425 567.3587,-75.5006 556.8384,-76.756 559.9174,-83.0425"/>
</g>
<!-- Node9 -->
<g id="node10" class="node">
<title>Node9</title>
<polygon fill="#ffffff" stroke="#bfbfbf" points="502,-336.5 502,-355.5 556,-355.5 556,-336.5 502,-336.5"/>
<text text-anchor="middle" x="529" y="-343.5" font-family="Helvetica,sans-Serif" font-size="10.00" fill="#000000">sched.h</text>
</g>
<!-- Node0&#45;&gt;Node9 -->
<g id="edge9" class="edge">
<title>Node0&#45;&gt;Node9</title>
<path fill="none" stroke="#191970" d="M374.9745,-392.3733C407.5893,-382.5537 458.1321,-367.3366 492.3456,-357.0357"/>
<polygon fill="#191970" stroke="#191970" points="493.4008,-360.3733 501.9672,-354.1389 491.3827,-353.6705 493.4008,-360.3733"/>
</g>
<!-- Node10 -->
<g id="node11" class="node">
<title>Node10</title>
<polygon fill="#ffffff" stroke="#bfbfbf" points="574.5,-336.5 574.5,-355.5 651.5,-355.5 651.5,-336.5 574.5,-336.5"/>
<text text-anchor="middle" x="613" y="-343.5" font-family="Helvetica,sans-Serif" font-size="10.00" fill="#000000">sys/mman.h</text>
</g>
<!-- Node0&#45;&gt;Node10 -->
<g id="edge10" class="edge">
<title>Node0&#45;&gt;Node10</title>
<path fill="none" stroke="#191970" d="M388.9221,-392.4997C431.713,-383.6437 497.5768,-370.0041 564.5947,-356.0826"/>
<polygon fill="#191970" stroke="#191970" points="565.4094,-359.4881 574.4884,-354.0271 563.9855,-352.6345 565.4094,-359.4881"/>
</g>
<!-- Node11 -->
<g id="node12" class="node">
<title>Node11</title>
<g id="a_node12"><a xlink:href="fweelin__block_8h.html" target="_top" xlink:title="fweelin_block.h">
<polygon fill="#ffffff" stroke="#000000" points="1451.5,-168.5 1451.5,-187.5 1544.5,-187.5 1544.5,-168.5 1451.5,-168.5"/>
<text text-anchor="middle" x="1498" y="-175.5" font-family="Helvetica,sans-Serif" font-size="10.00" fill="#000000">fweelin_block.h</text>
</a>
</g>
</g>
<!-- Node0&#45;&gt;Node11 -->
<g id="edge11" class="edge">
<title>Node0&#45;&gt;Node11</title>
<path fill="none" stroke="#191970" d="M400.7755,-399.163C584.7071,-389.6424 1154.7999,-356.2302 1330,-300 1380.7326,-283.7175 1393.6266,-276.3018 1436,-244 1454.4297,-229.9508 1472.1918,-210.1984 1483.9447,-195.9687"/>
<polygon fill="#191970" stroke="#191970" points="1486.8814,-197.9027 1490.4382,-187.9227 1481.4341,-193.5064 1486.8814,-197.9027"/>
</g>
<!-- Node25 -->
<g id="node26" class="node">
<title>Node25</title>
<g id="a_node26"><a xlink:href="fweelin__core_8h.html" target="_top" xlink:title="fweelin_core.h">
<polygon fill="#ffffff" stroke="#000000" points="821,-336.5 821,-355.5 909,-355.5 909,-336.5 821,-336.5"/>
<text text-anchor="middle" x="865" y="-343.5" font-family="Helvetica,sans-Serif" font-size="10.00" fill="#000000">fweelin_core.h</text>
</a>
</g>
</g>
<!-- Node0&#45;&gt;Node25 -->
<g id="edge29" class="edge">
<title>Node0&#45;&gt;Node25</title>
<path fill="none" stroke="#191970" d="M400.8576,-395.7931C502.5101,-384.8878 711.7529,-362.4403 810.7762,-351.8171"/>
<polygon fill="#191970" stroke="#191970" points="811.2959,-355.2815 820.8655,-350.7347 810.5492,-348.3215 811.2959,-355.2815"/>
</g>
<!-- Node12 -->
<g id="node13" class="node">
<title>Node12</title>
<polygon fill="#ffffff" stroke="#bfbfbf" points="1759.5,-112.5 1759.5,-131.5 1846.5,-131.5 1846.5,-112.5 1759.5,-112.5"/>
<text text-anchor="middle" x="1803" y="-119.5" font-family="Helvetica,sans-Serif" font-size="10.00" fill="#000000">vorbis/codec.h</text>
</g>
<!-- Node11&#45;&gt;Node12 -->
<g id="edge12" class="edge">
<title>Node11&#45;&gt;Node12</title>
<path fill="none" stroke="#191970" d="M1544.9244,-169.5203C1593.4683,-160.7288 1671.7566,-146.4969 1749.3776,-132.1074"/>
<polygon fill="#191970" stroke="#191970" points="1750.1374,-135.5263 1759.3311,-130.2607 1748.8604,-128.6437 1750.1374,-135.5263"/>
</g>
<!-- Node13 -->
<g id="node14" class="node">
<title>Node13</title>
<polygon fill="#ffffff" stroke="#bfbfbf" points="1437,-112.5 1437,-131.5 1541,-131.5 1541,-112.5 1437,-112.5"/>
<text text-anchor="middle" x="1489" y="-119.5" font-family="Helvetica,sans-Serif" font-size="10.00" fill="#000000">vorbis/vorbisfile.h</text>
</g>
<!-- Node11&#45;&gt;Node13 -->
<g id="edge13" class="edge">
<title>Node11&#45;&gt;Node13</title>
<path fill="none" stroke="#191970" d="M1496.4323,-168.2455C1495.2579,-160.9382 1493.6116,-150.6944 1492.1668,-141.7046"/>
<polygon fill="#191970" stroke="#191970" points="1495.5922,-140.9606 1490.5497,-131.6427 1488.6809,-142.0714 1495.5922,-140.9606"/>
</g>
<!-- Node14 -->
<g id="node15" class="node">
<title>Node14</title>
<polygon fill="#ffffff" stroke="#bfbfbf" points="1559,-112.5 1559,-131.5 1665,-131.5 1665,-112.5 1559,-112.5"/>
<text text-anchor="middle" x="1612" y="-119.5" font-family="Helvetica,sans-Serif" font-size="10.00" fill="#000000">vorbis/vorbisenc.h</text>
</g>
<!-- Node11&#45;&gt;Node14 -->
<g id="edge14" class="edge">
<title>Node11&#45;&gt;Node14</title>
<path fill="none" stroke="#191970" d="M1517.5973,-168.3733C1535.7331,-159.4644 1562.9135,-146.1127 1583.4587,-136.0203"/>
<polygon fill="#191970" stroke="#191970" points="1585.2261,-139.0517 1592.6584,-131.5011 1582.1397,-132.7688 1585.2261,-139.0517"/>
</g>
<!-- Node15 -->
<g id="node16" class="node">
<title>Node15</title>
<polygon fill="#ffffff" stroke="#bfbfbf" points="1683,-112.5 1683,-131.5 1741,-131.5 1741,-112.5 1683,-112.5"/>
<text text-anchor="middle" x="1712" y="-119.5" font-family="Helvetica,sans-Serif" font-size="10.00" fill="#000000">sndfile.h</text>
</g>
<!-- Node11&#45;&gt;Node15 -->
<g id="edge15" class="edge">
<title>Node11&#45;&gt;Node15</title>
<path fill="none" stroke="#191970" d="M1534.7475,-168.4147C1568.3392,-159.6483 1619.659,-146.2448 1673.276,-132.1871"/>
<polygon fill="#191970" stroke="#191970" points="1674.1702,-135.571 1682.9552,-129.6487 1672.3944,-128.8 1674.1702,-135.571"/>
</g>
<!-- Node16 -->
<g id="node17" class="node">
<title>Node16</title>
<g id="a_node17"><a xlink:href="fweelin__audioio_8h.html" target="_top" xlink:title="fweelin_audioio.h">
<polygon fill="#ffffff" stroke="#000000" points="1864.5,-112.5 1864.5,-131.5 1967.5,-131.5 1967.5,-112.5 1864.5,-112.5"/>
<text text-anchor="middle" x="1916" y="-119.5" font-family="Helvetica,sans-Serif" font-size="10.00" fill="#000000">fweelin_audioio.h</text>
</a>
</g>
</g>
<!-- Node11&#45;&gt;Node16 -->
<g id="edge16" class="edge">
<title>Node11&#45;&gt;Node16</title>
<path fill="none" stroke="#191970" d="M1544.5959,-170.1553C1549.4555,-169.3988 1554.3253,-168.6662 1559,-168 1687.4224,-149.6986 1722.6825,-150.8639 1854.2507,-132.2035"/>
<polygon fill="#191970" stroke="#191970" points="1854.9083,-135.6452 1864.3121,-130.7647 1853.9173,-128.7156 1854.9083,-135.6452"/>
</g>
<!-- Node18 -->
<g id="node19" class="node">
<title>Node18</title>
<g id="a_node19"><a xlink:href="fweelin__mem_8h.html" target="_top" xlink:title="fweelin_mem.h">
<polygon fill="#ffffff" stroke="#000000" points="1327,-112.5 1327,-131.5 1419,-131.5 1419,-112.5 1327,-112.5"/>
<text text-anchor="middle" x="1373" y="-119.5" font-family="Helvetica,sans-Serif" font-size="10.00" fill="#000000">fweelin_mem.h</text>
</a>
</g>
</g>
<!-- Node11&#45;&gt;Node18 -->
<g id="edge18" class="edge">
<title>Node11&#45;&gt;Node18</title>
<path fill="none" stroke="#191970" d="M1476.5117,-168.3733C1456.356,-159.3435 1426.012,-145.7494 1403.382,-135.6111"/>
<polygon fill="#191970" stroke="#191970" points="1404.7649,-132.3955 1394.2079,-131.5011 1401.9029,-138.7838 1404.7649,-132.3955"/>
</g>
<!-- Node22 -->
<g id="node23" class="node">
<title>Node22</title>
<g id="a_node23"><a xlink:href="fweelin__event_8h.html" target="_top" xlink:title="fweelin_event.h">
<polygon fill="#ffffff" stroke="#000000" points="686.5,-112.5 686.5,-131.5 781.5,-131.5 781.5,-112.5 686.5,-112.5"/>
<text text-anchor="middle" x="734" y="-119.5" font-family="Helvetica,sans-Serif" font-size="10.00" fill="#000000">fweelin_event.h</text>
</a>
</g>
</g>
<!-- Node11&#45;&gt;Node22 -->
<g id="edge22" class="edge">
<title>Node11&#45;&gt;Node22</title>
<path fill="none" stroke="#191970" d="M1451.2469,-170.6461C1445.0836,-169.6427 1438.8824,-168.714 1433,-168 1195.9635,-139.2272 911.9458,-127.6534 791.9205,-123.7296"/>
<polygon fill="#191970" stroke="#191970" points="791.9563,-120.2291 781.849,-123.4058 791.7313,-127.2255 791.9563,-120.2291"/>
</g>
<!-- Node17 -->
<g id="node18" class="node">
<title>Node17</title>
<polygon fill="#ffffff" stroke="#bfbfbf" points="1881.5,-56.5 1881.5,-75.5 1950.5,-75.5 1950.5,-56.5 1881.5,-56.5"/>
<text text-anchor="middle" x="1916" y="-63.5" font-family="Helvetica,sans-Serif" font-size="10.00" fill="#000000">jack/jack.h</text>
</g>
<!-- Node16&#45;&gt;Node17 -->
<g id="edge17" class="edge">
<title>Node16&#45;&gt;Node17</title>
<path fill="none" stroke="#191970" d="M1916,-112.2455C1916,-104.9382 1916,-94.6944 1916,-85.7046"/>
<polygon fill="#191970" stroke="#191970" points="1919.5001,-85.6426 1916,-75.6427 1912.5001,-85.6427 1919.5001,-85.6426"/>
</g>
<!-- Node19 -->
<g id="node20" class="node">
<title>Node19</title>
<g id="a_node20"><a xlink:href="fweelin__datatypes_8h.html" target="_top" xlink:title="fweelin_datatypes.h">
<polygon fill="#ffffff" stroke="#000000" points="1131,-56.5 1131,-75.5 1247,-75.5 1247,-56.5 1131,-56.5"/>
<text text-anchor="middle" x="1189" y="-63.5" font-family="Helvetica,sans-Serif" font-size="10.00" fill="#000000">fweelin_datatypes.h</text>
</a>
</g>
</g>
<!-- Node18&#45;&gt;Node19 -->
<g id="edge19" class="edge">
<title>Node18&#45;&gt;Node19</title>
<path fill="none" stroke="#191970" d="M1341.3693,-112.3733C1310.6404,-103.021 1263.824,-88.7725 1230.1978,-78.5385"/>
<polygon fill="#191970" stroke="#191970" points="1230.8038,-75.0644 1220.218,-75.5011 1228.7656,-81.7612 1230.8038,-75.0644"/>
</g>
<!-- Node20 -->
<g id="node21" class="node">
<title>Node20</title>
<polygon fill="#ffffff" stroke="#bfbfbf" points="974.5,-.5 974.5,-19.5 1069.5,-19.5 1069.5,-.5 974.5,-.5"/>
<text text-anchor="middle" x="1022" y="-7.5" font-family="Helvetica,sans-Serif" font-size="10.00" fill="#000000">jack/ringbuffer.h</text>
</g>
<!-- Node19&#45;&gt;Node20 -->
<g id="edge20" class="edge">
<title>Node19&#45;&gt;Node20</title>
<path fill="none" stroke="#191970" d="M1160.2917,-56.3733C1132.6423,-47.1016 1090.6424,-33.0178 1060.1834,-22.804"/>
<polygon fill="#191970" stroke="#191970" points="1060.9276,-19.3621 1050.3337,-19.5011 1058.7021,-25.9989 1060.9276,-19.3621"/>
</g>
<!-- Node21 -->
<g id="node22" class="node">
<title>Node21</title>
<polygon fill="#ffffff" stroke="#bfbfbf" points="1161,-.5 1161,-19.5 1217,-19.5 1217,-.5 1161,-.5"/>
<text text-anchor="middle" x="1189" y="-7.5" font-family="Helvetica,sans-Serif" font-size="10.00" fill="#000000">assert.h</text>
</g>
<!-- Node19&#45;&gt;Node21 -->
<g id="edge21" class="edge">
<title>Node19&#45;&gt;Node21</title>
<path fill="none" stroke="#191970" d="M1189,-56.2455C1189,-48.9382 1189,-38.6944 1189,-29.7046"/>
<polygon fill="#191970" stroke="#191970" points="1192.5001,-29.6426 1189,-19.6427 1185.5001,-29.6427 1192.5001,-29.6426"/>
</g>
<!-- Node22&#45;&gt;Node8 -->
<g id="edge24" class="edge">
<title>Node22&#45;&gt;Node8</title>
<path fill="none" stroke="#191970" d="M709.2455,-112.3733C685.7151,-103.2226 650.1313,-89.3844 623.9574,-79.2057"/>
<polygon fill="#191970" stroke="#191970" points="625.0201,-75.8636 614.4315,-75.5011 622.4829,-82.3877 625.0201,-75.8636"/>
</g>
<!-- Node22&#45;&gt;Node11 -->
<g id="edge28" class="edge">
<title>Node22&#45;&gt;Node11</title>
<path fill="none" stroke="#191970" d="M781.6344,-123.1267C895.5956,-126.336 1192.3673,-137.2784 1444.7707,-167.2802"/>
<polygon fill="#191970" stroke="#191970" points="1444.5163,-170.7748 1454.8625,-168.4929 1445.3515,-163.8248 1444.5163,-170.7748"/>
</g>
<!-- Node22&#45;&gt;Node19 -->
<g id="edge27" class="edge">
<title>Node22&#45;&gt;Node19</title>
<path fill="none" stroke="#191970" d="M781.833,-116.1129C862.8731,-106.1387 1027.4233,-85.8864 1120.6178,-74.4163"/>
<polygon fill="#191970" stroke="#191970" points="1121.2921,-77.8598 1130.7897,-73.1643 1120.437,-70.9122 1121.2921,-77.8598"/>
</g>
<!-- Node22&#45;&gt;Node20 -->
<g id="edge26" class="edge">
<title>Node22&#45;&gt;Node20</title>
<path fill="none" stroke="#191970" d="M758.5547,-112.4509C809.9904,-92.4482 929.1412,-46.1117 987.9345,-23.2477"/>
<polygon fill="#191970" stroke="#191970" points="989.456,-26.4114 997.5074,-19.5249 986.9188,-19.8874 989.456,-26.4114"/>
</g>
<!-- Node23 -->
<g id="node24" class="node">
<title>Node23</title>
<polygon fill="#ffffff" stroke="#bfbfbf" points="694,-56.5 694,-75.5 774,-75.5 774,-56.5 694,-56.5"/>
<text text-anchor="middle" x="734" y="-63.5" font-family="Helvetica,sans-Serif" font-size="10.00" fill="#000000">linux/limits.h</text>
</g>
<!-- Node22&#45;&gt;Node23 -->
<g id="edge23" class="edge">
<title>Node22&#45;&gt;Node23</title>
<path fill="none" stroke="#191970" d="M734,-112.2455C734,-104.9382 734,-94.6944 734,-85.7046"/>
<polygon fill="#191970" stroke="#191970" points="737.5001,-85.6426 734,-75.6427 730.5001,-85.6427 737.5001,-85.6426"/>
</g>
<!-- Node24 -->
<g id="node25" class="node">
<title>Node24</title>
<polygon fill="#ffffff" stroke="#bfbfbf" points="474,-56.5 474,-75.5 540,-75.5 540,-56.5 474,-56.5"/>
<text text-anchor="middle" x="507" y="-63.5" font-family="Helvetica,sans-Serif" font-size="10.00" fill="#000000">SDL/SDL.h</text>
</g>
<!-- Node22&#45;&gt;Node24 -->
<g id="edge25" class="edge">
<title>Node22&#45;&gt;Node24</title>
<path fill="none" stroke="#191970" d="M695.2352,-112.4369C654.876,-102.4804 591.8215,-86.9251 549.9669,-76.5998"/>
<polygon fill="#191970" stroke="#191970" points="550.6181,-73.1555 540.0708,-74.1584 548.9414,-79.9518 550.6181,-73.1555"/>
</g>
<!-- Node25&#45;&gt;Node11 -->
<g id="edge60" class="edge">
<title>Node25&#45;&gt;Node11</title>
<path fill="none" stroke="#191970" d="M909.0712,-343.653C1003.5145,-338.2365 1222.5493,-323.4988 1293,-300 1366.8862,-275.3553 1442.8473,-221.0804 1477.961,-194.009"/>
<polygon fill="#191970" stroke="#191970" points="1480.2534,-196.6597 1485.982,-187.7471 1475.9458,-191.142 1480.2534,-196.6597"/>
</g>
<!-- Node25&#45;&gt;Node16 -->
<g id="edge49" class="edge">
<title>Node25&#45;&gt;Node16</title>
<path fill="none" stroke="#191970" d="M909.0153,-344.5215C992.0617,-341.0989 1177.2484,-330.4479 1330,-300 1544.331,-257.2775 1792.2578,-168.4096 1881.6605,-135.039"/>
<polygon fill="#191970" stroke="#191970" points="1882.9006,-138.312 1891.0364,-131.5254 1880.4441,-131.7572 1882.9006,-138.312"/>
</g>
<!-- Node25&#45;&gt;Node22 -->
<g id="edge61" class="edge">
<title>Node25&#45;&gt;Node22</title>
<path fill="none" stroke="#191970" d="M864.3317,-336.0799C862.9498,-322.2521 858.7411,-296.9744 846,-280 828.0129,-256.0366 811.9612,-263.25 789,-244 763.203,-222.3725 751.0973,-219.0112 738,-188 731.8589,-173.4595 731.1608,-155.4986 731.8303,-141.9862"/>
<polygon fill="#191970" stroke="#191970" points="735.3322,-142.098 732.6248,-131.8549 728.3536,-141.5506 735.3322,-142.098"/>
</g>
<!-- Node26 -->
<g id="node27" class="node">
<title>Node26</title>
<polygon fill="#ffffff" stroke="#bfbfbf" points="540.5,-280.5 540.5,-299.5 619.5,-299.5 619.5,-280.5 540.5,-280.5"/>
<text text-anchor="middle" x="580" y="-287.5" font-family="Helvetica,sans-Serif" font-size="10.00" fill="#000000">nettle/md5.h</text>
</g>
<!-- Node25&#45;&gt;Node26 -->
<g id="edge30" class="edge">
<title>Node25&#45;&gt;Node26</title>
<path fill="none" stroke="#191970" d="M820.8475,-337.6174C775.362,-328.94 702.1325,-314.8543 629.7489,-300.3342"/>
<polygon fill="#191970" stroke="#191970" points="630.0375,-296.8223 619.5439,-298.283 628.6581,-303.685 630.0375,-296.8223"/>
</g>
<!-- Node27 -->
<g id="node28" class="node">
<title>Node27</title>
<g id="a_node28"><a xlink:href="fweelin__amixer_8h.html" target="_top" xlink:title="fweelin_amixer.h">
<polygon fill="#ffffff" stroke="#000000" points="344.5,-280.5 344.5,-299.5 445.5,-299.5 445.5,-280.5 344.5,-280.5"/>
<text text-anchor="middle" x="395" y="-287.5" font-family="Helvetica,sans-Serif" font-size="10.00" fill="#000000">fweelin_amixer.h</text>
</a>
</g>
</g>
<!-- Node25&#45;&gt;Node27 -->
<g id="edge31" class="edge">
<title>Node25&#45;&gt;Node27</title>
<path fill="none" stroke="#191970" d="M820.9483,-341.2255C736.5053,-331.5661 552.0654,-309.6252 455.9174,-297.8369"/>
<polygon fill="#191970" stroke="#191970" points="456.1203,-294.3356 445.7681,-296.5899 455.2666,-301.2834 456.1203,-294.3356"/>
</g>
<!-- Node30 -->
<g id="node31" class="node">
<title>Node30</title>
<g id="a_node31"><a xlink:href="fweelin__midiio_8h.html" target="_top" xlink:title="fweelin_midiio.h">
<polygon fill="#ffffff" stroke="#000000" points="637,-280.5 637,-299.5 735,-299.5 735,-280.5 637,-280.5"/>
<text text-anchor="middle" x="686" y="-287.5" font-family="Helvetica,sans-Serif" font-size="10.00" fill="#000000">fweelin_midiio.h</text>
</a>
</g>
</g>
<!-- Node25&#45;&gt;Node30 -->
<g id="edge38" class="edge">
<title>Node25&#45;&gt;Node30</title>
<path fill="none" stroke="#191970" d="M834.2288,-336.3733C804.335,-327.021 758.7907,-312.7725 726.0783,-302.5385"/>
<polygon fill="#191970" stroke="#191970" points="726.9586,-299.1466 716.3697,-299.5011 724.8685,-305.8273 726.9586,-299.1466"/>
</g>
<!-- Node31 -->
<g id="node32" class="node">
<title>Node31</title>
<g id="a_node32"><a xlink:href="fweelin__videoio_8h.html" target="_top" xlink:title="fweelin_videoio.h">
<polygon fill="#ffffff" stroke="#000000" points="314.5,-168.5 314.5,-187.5 417.5,-187.5 417.5,-168.5 314.5,-168.5"/>
<text text-anchor="middle" x="366" y="-175.5" font-family="Helvetica,sans-Serif" font-size="10.00" fill="#000000">fweelin_videoio.h</text>
</a>
</g>
</g>
<!-- Node25&#45;&gt;Node31 -->
<g id="edge41" class="edge">
<title>Node25&#45;&gt;Node31</title>
<path fill="none" stroke="#191970" d="M820.9023,-343.3323C701.9974,-335.9758 380.6389,-314.9564 335,-300 289.5122,-285.0931 266.4518,-285.7297 243,-244 226.1442,-214.007 265.8114,-196.9823 304.4942,-187.7666"/>
<polygon fill="#191970" stroke="#191970" points="305.2726,-191.179 314.2725,-185.5887 303.7508,-184.3464 305.2726,-191.179"/>
</g>
<!-- Node34 -->
<g id="node35" class="node">
<title>Node34</title>
<g id="a_node35"><a xlink:href="fweelin__sdlio_8h.html" target="_top" xlink:title="fweelin_sdlio.h">
<polygon fill="#ffffff" stroke="#000000" points="540,-168.5 540,-187.5 630,-187.5 630,-168.5 540,-168.5"/>
<text text-anchor="middle" x="585" y="-175.5" font-family="Helvetica,sans-Serif" font-size="10.00" fill="#000000">fweelin_sdlio.h</text>
</a>
</g>
</g>
<!-- Node25&#45;&gt;Node34 -->
<g id="edge46" class="edge">
<title>Node25&#45;&gt;Node34</title>
<path fill="none" stroke="#191970" d="M820.8368,-343.0583C734.6804,-336.8723 550.9059,-321.31 532,-300 509.5814,-274.7307 516.8376,-254.6686 531,-224 536.8259,-211.384 548.0069,-200.9528 558.6905,-193.2314"/>
<polygon fill="#191970" stroke="#191970" points="560.6856,-196.1076 567.0401,-187.6299 556.7858,-190.2946 560.6856,-196.1076"/>
</g>
<!-- Node35 -->
<g id="node36" class="node">
<title>Node35</title>
<g id="a_node36"><a xlink:href="fweelin__rcu_8h.html" target="_top" xlink:title="fweelin_rcu.h">
<polygon fill="#ffffff" stroke="#000000" points="1351,-168.5 1351,-187.5 1433,-187.5 1433,-168.5 1351,-168.5"/>
<text text-anchor="middle" x="1392" y="-175.5" font-family="Helvetica,sans-Serif" font-size="10.00" fill="#000000">fweelin_rcu.h</text>
</a>
</g>
</g>
<!-- Node25&#45;&gt;Node35 -->
<g id="edge50" class="edge">
<title>Node25&#45;&gt;Node35</title>
<path fill="none" stroke="#191970" d="M908.4021,-336.4643C941.7403,-328.4955 988.5935,-315.8875 1028,-300 1094.3892,-273.2338 1102.7058,-248.4018 1170,-224 1174.0557,-222.5294 1276.7325,-201.4872 1341.01,-188.3779"/>
<polygon fill="#191970" stroke="#191970" points="1341.8761,-191.7734 1350.9754,-186.3463 1340.4778,-184.9145 1341.8761,-191.7734"/>
</g>
<!-- Node37 -->
<g id="node38" class="node">
<title>Node37</title>
<g id="a_node38"><a xlink:href="fweelin__core__dsp_8h.html" target="_top" xlink:title="fweelin_core_dsp.h">
<polygon fill="#ffffff" stroke="#000000" points="1147,-280.5 1147,-299.5 1257,-299.5 1257,-280.5 1147,-280.5"/>
<text text-anchor="middle" x="1202" y="-287.5" font-family="Helvetica,sans-Serif" font-size="10.00" fill="#000000">fweelin_core_dsp.h</text>
</a>
</g>
</g>
<!-- Node25&#45;&gt;Node37 -->
<g id="edge54" class="edge">
<title>Node25&#45;&gt;Node37</title>
<path fill="none" stroke="#191970" d="M909.0746,-337.8571C967.2037,-327.816 1069.7456,-310.7556 1136.8265,-299.9486"/>
<polygon fill="#191970" stroke="#191970" points="1137.5479,-303.3777 1146.866,-298.3356 1136.4374,-296.4663 1137.5479,-303.3777"/>
</g>
<!-- Node40 -->
<g id="node41" class="node">
<title>Node40</title>
<g id="a_node41"><a xlink:href="fweelin__config_8h.html" target="_top" xlink:title="fweelin_config.h">
<polygon fill="#ffffff" stroke="#000000" points="986,-224.5 986,-243.5 1082,-243.5 1082,-224.5 986,-224.5"/>
<text text-anchor="middle" x="1034" y="-231.5" font-family="Helvetica,sans-Serif" font-size="10.00" fill="#000000">fweelin_config.h</text>
</a>
</g>
</g>
<!-- Node25&#45;&gt;Node40 -->
<g id="edge62" class="edge">
<title>Node25&#45;&gt;Node40</title>
<path fill="none" stroke="#191970" d="M909.0772,-341.7757C940.2343,-336.6361 981.0842,-325.2449 1008,-300 1021.0276,-287.7811 1027.639,-268.2239 1030.9229,-253.5649"/>
<polygon fill="#191970" stroke="#191970" points="1034.4046,-253.9906 1032.8366,-243.5124 1027.5281,-252.6814 1034.4046,-253.9906"/>
</g>
<!-- Node44 -->
<g id="node45" class="node">
<title>Node44</title>
<g id="a_node45"><a xlink:href="fweelin__fluidsynth_8h.html" target="_top" xlink:title="fweelin_fluidsynth.h">
<polygon fill="#ffffff" stroke="#000000" points="1217.5,-168.5 1217.5,-187.5 1332.5,-187.5 1332.5,-168.5 1217.5,-168.5"/>
<text text-anchor="middle" x="1275" y="-175.5" font-family="Helvetica,sans-Serif" font-size="10.00" fill="#000000">fweelin_fluidsynth.h</text>
</a>
</g>
</g>
<!-- Node25&#45;&gt;Node44 -->
<g id="edge76" class="edge">
<title>Node25&#45;&gt;Node44</title>
<path fill="none" stroke="#191970" d="M909.2563,-345.3866C1000.6026,-343.4105 1206.4538,-335.0798 1266,-300 1298.8878,-280.6252 1317.1525,-260.5049 1306,-224 1302.8591,-213.7192 1296.5634,-203.6582 1290.4612,-195.5799"/>
<polygon fill="#191970" stroke="#191970" points="1293.0816,-193.2539 1284.0741,-187.6757 1287.637,-197.6535 1293.0816,-193.2539"/>
</g>
<!-- Node45 -->
<g id="node46" class="node">
<title>Node45</title>
<g id="a_node46"><a xlink:href="fweelin__browser_8h.html" target="_top" xlink:title="fweelin_browser.h">
<polygon fill="#ffffff" stroke="#000000" points="893.5,-280.5 893.5,-299.5 998.5,-299.5 998.5,-280.5 893.5,-280.5"/>
<text text-anchor="middle" x="946" y="-287.5" font-family="Helvetica,sans-Serif" font-size="10.00" fill="#000000">fweelin_browser.h</text>
</a>
</g>
</g>
<!-- Node25&#45;&gt;Node45 -->
<g id="edge73" class="edge">
<title>Node25&#45;&gt;Node45</title>
<path fill="none" stroke="#191970" d="M879.1091,-336.2455C891.4209,-327.7337 909.4958,-315.2375 923.7538,-305.3801"/>
<polygon fill="#191970" stroke="#191970" points="925.8174,-308.2085 932.0526,-299.6427 921.8366,-302.4506 925.8174,-308.2085"/>
</g>
<!-- Node46 -->
<g id="node47" class="node">
<title>Node46</title>
<g id="a_node47"><a xlink:href="fweelin__osc_8h.html" target="_top" xlink:title="fweelin_osc.h">
<polygon fill="#ffffff" stroke="#000000" points="753.5,-280.5 753.5,-299.5 836.5,-299.5 836.5,-280.5 753.5,-280.5"/>
<text text-anchor="middle" x="795" y="-287.5" font-family="Helvetica,sans-Serif" font-size="10.00" fill="#000000">fweelin_osc.h</text>
</a>
</g>
</g>
<!-- Node25&#45;&gt;Node46 -->
<g id="edge77" class="edge">
<title>Node25&#45;&gt;Node46</title>
<path fill="none" stroke="#191970" d="M852.8069,-336.2455C842.3679,-327.8943 827.1345,-315.7076 814.926,-305.9408"/>
<polygon fill="#191970" stroke="#191970" points="817.0485,-303.1566 807.0533,-299.6427 812.6756,-308.6227 817.0485,-303.1566"/>
</g>
<!-- Node27&#45;&gt;Node2 -->
<g id="edge32" class="edge">
<title>Node27&#45;&gt;Node2</title>
<path fill="none" stroke="#191970" d="M350.4291,-280.4369C299.1284,-269.4298 215.9356,-251.5801 169.0422,-241.5186"/>
<polygon fill="#191970" stroke="#191970" points="169.5667,-238.0516 159.0549,-239.3758 168.0981,-244.8958 169.5667,-238.0516"/>
</g>
<!-- Node27&#45;&gt;Node5 -->
<g id="edge33" class="edge">
<title>Node27&#45;&gt;Node5</title>
<path fill="none" stroke="#191970" d="M375.0589,-280.3733C356.5214,-271.4241 328.6972,-257.9917 307.7587,-247.8835"/>
<polygon fill="#191970" stroke="#191970" points="309.2081,-244.6967 298.6809,-243.5011 306.1648,-251.0006 309.2081,-244.6967"/>
</g>
<!-- Node27&#45;&gt;Node6 -->
<g id="edge35" class="edge">
<title>Node27&#45;&gt;Node6</title>
<path fill="none" stroke="#191970" d="M386.9874,-280.2455C380.5232,-272.3761 371.2615,-261.101 363.5017,-251.6542"/>
<polygon fill="#191970" stroke="#191970" points="365.9727,-249.1484 356.9208,-243.6427 360.5636,-253.5916 365.9727,-249.1484"/>
</g>
<!-- Node27&#45;&gt;Node25 -->
<g id="edge37" class="edge">
<title>Node27&#45;&gt;Node25</title>
<path fill="none" stroke="#191970" d="M445.7557,-295.543C534.9785,-305.7918 718.8623,-327.6844 810.5947,-338.9625"/>
<polygon fill="#191970" stroke="#191970" points="810.4262,-342.4682 820.7793,-340.2179 811.2826,-335.5208 810.4262,-342.4682"/>
</g>
<!-- Node28 -->
<g id="node29" class="node">
<title>Node28</title>
<polygon fill="#ffffff" stroke="#bfbfbf" points="392.5,-224.5 392.5,-243.5 445.5,-243.5 445.5,-224.5 392.5,-224.5"/>
<text text-anchor="middle" x="419" y="-231.5" font-family="Helvetica,sans-Serif" font-size="10.00" fill="#000000">ctype.h</text>
</g>
<!-- Node27&#45;&gt;Node28 -->
<g id="edge34" class="edge">
<title>Node27&#45;&gt;Node28</title>
<path fill="none" stroke="#191970" d="M399.1805,-280.2455C402.381,-272.7776 406.896,-262.2427 410.8084,-253.1137"/>
<polygon fill="#191970" stroke="#191970" points="414.1452,-254.2129 414.8674,-243.6427 407.7112,-251.4554 414.1452,-254.2129"/>
</g>
<!-- Node29 -->
<g id="node30" class="node">
<title>Node29</title>
<polygon fill="#ffffff" stroke="#bfbfbf" points="540,-224.5 540,-243.5 636,-243.5 636,-224.5 540,-224.5"/>
<text text-anchor="middle" x="588" y="-231.5" font-family="Helvetica,sans-Serif" font-size="10.00" fill="#000000">alsa/asoundlib.h</text>
</g>
<!-- Node27&#45;&gt;Node29 -->
<g id="edge36" class="edge">
<title>Node27&#45;&gt;Node29</title>
<path fill="none" stroke="#191970" d="M428.1779,-280.3733C460.5487,-270.9807 509.9398,-256.6496 545.2424,-246.4064"/>
<polygon fill="#191970" stroke="#191970" points="546.6265,-249.6492 555.2551,-243.5011 544.6758,-242.9264 546.6265,-249.6492"/>
</g>
<!-- Node30&#45;&gt;Node22 -->
<g id="edge40" class="edge">
<title>Node30&#45;&gt;Node22</title>
<path fill="none" stroke="#191970" d="M682.9171,-280.2672C676.7033,-258.8425 664.678,-206.4503 682,-168 687.5697,-155.6369 698.2863,-145.2563 708.5506,-137.5033"/>
<polygon fill="#191970" stroke="#191970" points="710.7618,-140.2277 716.9433,-131.623 706.7451,-134.4948 710.7618,-140.2277"/>
</g>
<!-- Node30&#45;&gt;Node29 -->
<g id="edge39" class="edge">
<title>Node30&#45;&gt;Node29</title>
<path fill="none" stroke="#191970" d="M668.9297,-280.2455C653.753,-271.5731 631.3379,-258.7645 613.9437,-248.825"/>
<polygon fill="#191970" stroke="#191970" points="615.2936,-245.5653 604.8747,-243.6427 611.8206,-251.643 615.2936,-245.5653"/>
</g>
<!-- Node31&#45;&gt;Node22 -->
<g id="edge42" class="edge">
<title>Node31&#45;&gt;Node22</title>
<path fill="none" stroke="#191970" d="M417.5563,-170.1545C485.6184,-159.7972 605.114,-141.6131 676.1753,-130.7994"/>
<polygon fill="#191970" stroke="#191970" points="676.9368,-134.2239 686.2964,-129.2592 675.8836,-127.3036 676.9368,-134.2239"/>
</g>
<!-- Node31&#45;&gt;Node24 -->
<g id="edge43" class="edge">
<title>Node31&#45;&gt;Node24</title>
<path fill="none" stroke="#191970" d="M378.0216,-168.4509C402.2671,-149.1921 457.2448,-105.5218 486.9912,-81.8935"/>
<polygon fill="#191970" stroke="#191970" points="489.3555,-84.4854 495.0088,-75.5249 485.0016,-79.0041 489.3555,-84.4854"/>
</g>
<!-- Node32 -->
<g id="node33" class="node">
<title>Node32</title>
<polygon fill="#ffffff" stroke="#bfbfbf" points="270.5,-112.5 270.5,-131.5 407.5,-131.5 407.5,-112.5 270.5,-112.5"/>
<text text-anchor="middle" x="339" y="-119.5" font-family="Helvetica,sans-Serif" font-size="10.00" fill="#000000">SDL/SDL_gfxPrimitives.h</text>
</g>
<!-- Node31&#45;&gt;Node32 -->
<g id="edge44" class="edge">
<title>Node31&#45;&gt;Node32</title>
<path fill="none" stroke="#191970" d="M361.297,-168.2455C357.6576,-160.6973 352.5076,-150.0158 348.0738,-140.8197"/>
<polygon fill="#191970" stroke="#191970" points="351.1449,-139.1303 343.6491,-131.6427 344.8395,-142.1704 351.1449,-139.1303"/>
</g>
<!-- Node33 -->
<g id="node34" class="node">
<title>Node33</title>
<polygon fill="#ffffff" stroke="#bfbfbf" points="170,-112.5 170,-131.5 252,-131.5 252,-112.5 170,-112.5"/>
<text text-anchor="middle" x="211" y="-119.5" font-family="Helvetica,sans-Serif" font-size="10.00" fill="#000000">SDL/SDL_ttf.h</text>
</g>
<!-- Node31&#45;&gt;Node33 -->
<g id="edge45" class="edge">
<title>Node31&#45;&gt;Node33</title>
<path fill="none" stroke="#191970" d="M339.3546,-168.3733C313.8036,-159.1419 275.0488,-145.1402 246.8091,-134.9375"/>
<polygon fill="#191970" stroke="#191970" points="247.8921,-131.6074 237.2978,-131.5011 245.5135,-138.1909 247.8921,-131.6074"/>
</g>
<!-- Node34&#45;&gt;Node8 -->
<g id="edge47" class="edge">
<title>Node34&#45;&gt;Node8</title>
<path fill="none" stroke="#191970" d="M585.4263,-168.4509C586.2418,-150.184 588.0377,-109.9553 589.1206,-85.6976"/>
<polygon fill="#191970" stroke="#191970" points="592.6252,-85.6711 589.5748,-75.5249 585.6322,-85.3588 592.6252,-85.6711"/>
</g>
<!-- Node34&#45;&gt;Node22 -->
<g id="edge48" class="edge">
<title>Node34&#45;&gt;Node22</title>
<path fill="none" stroke="#191970" d="M610.614,-168.3733C635.0687,-159.1822 672.1054,-145.2624 699.2209,-135.0713"/>
<polygon fill="#191970" stroke="#191970" points="700.5909,-138.2956 708.7202,-131.5011 698.1281,-131.7431 700.5909,-138.2956"/>
</g>
<!-- Node35&#45;&gt;Node18 -->
<g id="edge53" class="edge">
<title>Node35&#45;&gt;Node18</title>
<path fill="none" stroke="#191970" d="M1388.6905,-168.2455C1386.1567,-160.7776 1382.5823,-150.2427 1379.485,-141.1137"/>
<polygon fill="#191970" stroke="#191970" points="1382.7991,-139.9879 1376.2716,-131.6427 1376.1702,-142.237 1382.7991,-139.9879"/>
</g>
<!-- Node35&#45;&gt;Node19 -->
<g id="edge52" class="edge">
<title>Node35&#45;&gt;Node19</title>
<path fill="none" stroke="#191970" d="M1376.5996,-168.4978C1355.1747,-155.377 1315.0524,-131.1615 1280,-112 1259.5547,-100.8235 1236.0769,-88.9795 1218.0899,-80.1089"/>
<polygon fill="#191970" stroke="#191970" points="1219.2355,-76.7725 1208.7161,-75.5099 1216.1522,-83.0568 1219.2355,-76.7725"/>
</g>
<!-- Node36 -->
<g id="node37" class="node">
<title>Node36</title>
<polygon fill="#ffffff" stroke="#bfbfbf" points="1217.5,-112.5 1217.5,-131.5 1270.5,-131.5 1270.5,-112.5 1217.5,-112.5"/>
<text text-anchor="middle" x="1244" y="-119.5" font-family="Helvetica,sans-Serif" font-size="10.00" fill="#000000">stdint.h</text>
</g>
<!-- Node35&#45;&gt;Node36 -->
<g id="edge51" class="edge">
<title>Node35&#45;&gt;Node36</title>
<path fill="none" stroke="#191970" d="M1366.5579,-168.3733C1342.2674,-159.1822 1305.4792,-145.2624 1278.5457,-135.0713"/>
<polygon fill="#191970" stroke="#191970" points="1279.7016,-131.7666 1269.1101,-131.5011 1277.2243,-138.3136 1279.7016,-131.7666"/>
</g>
<!-- Node37&#45;&gt;Node11 -->
<g id="edge59" class="edge">
<title>Node37&#45;&gt;Node11</title>
<path fill="none" stroke="#191970" d="M1227.2368,-280.4509C1280.2105,-260.4069 1403.0681,-213.9202 1463.3619,-191.1063"/>
<polygon fill="#191970" stroke="#191970" points="1464.7129,-194.3374 1472.8271,-187.5249 1462.2356,-187.7904 1464.7129,-194.3374"/>
</g>
<!-- Node37&#45;&gt;Node22 -->
<g id="edge58" class="edge">
<title>Node37&#45;&gt;Node22</title>
<path fill="none" stroke="#191970" d="M1195.3247,-280.2724C1176.2435,-252.5962 1122.064,-174.9588 1110,-168 1057.2044,-137.546 883.7453,-127.077 792.0331,-123.6182"/>
<polygon fill="#191970" stroke="#191970" points="791.9252,-120.1121 781.8053,-123.2488 791.6724,-127.1076 791.9252,-120.1121"/>
</g>
<!-- Node37&#45;&gt;Node25 -->
<g id="edge57" class="edge">
<title>Node37&#45;&gt;Node25</title>
<path fill="none" stroke="#191970" d="M1150.0232,-299.5042C1087.4566,-310.2549 983.0602,-327.5876 919.4234,-337.7782"/>
<polygon fill="#191970" stroke="#191970" points="918.5121,-334.3793 909.1886,-339.4114 919.6152,-341.2918 918.5121,-334.3793"/>
</g>
<!-- Node38 -->
<g id="node39" class="node">
<title>Node38</title>
<polygon fill="#ffffff" stroke="#bfbfbf" points="1253,-224.5 1253,-243.5 1297,-243.5 1297,-224.5 1253,-224.5"/>
<text text-anchor="middle" x="1275" y="-231.5" font-family="Helvetica,sans-Serif" font-size="10.00" fill="#000000">string</text>
</g>
<!-- Node37&#45;&gt;Node38 -->
<g id="edge55" class="edge">
<title>Node37&#45;&gt;Node38</title>
<path fill="none" stroke="#191970" d="M1214.7156,-280.2455C1225.602,-271.8943 1241.4883,-259.7076 1254.22,-249.9408"/>
<polygon fill="#191970" stroke="#191970" points="1256.6261,-252.5063 1262.4301,-243.6427 1252.3654,-246.9523 1256.6261,-252.5063"/>
</g>
<!-- Node39 -->
<g id="node40" class="node">
<title>Node39</title>
<polygon fill="#ffffff" stroke="#bfbfbf" points="1179,-224.5 1179,-243.5 1235,-243.5 1235,-224.5 1179,-224.5"/>
<text text-anchor="middle" x="1207" y="-231.5" font-family="Helvetica,sans-Serif" font-size="10.00" fill="#000000">sstream</text>
</g>
<!-- Node37&#45;&gt;Node39 -->
<g id="edge56" class="edge">
<title>Node37&#45;&gt;Node39</title>
<path fill="none" stroke="#191970" d="M1202.8709,-280.2455C1203.5234,-272.9382 1204.438,-262.6944 1205.2407,-253.7046"/>
<polygon fill="#191970" stroke="#191970" points="1208.7358,-253.9143 1206.139,-243.6427 1201.7635,-253.2918 1208.7358,-253.9143"/>
</g>
<!-- Node40&#45;&gt;Node11 -->
<g id="edge67" class="edge">
<title>Node40&#45;&gt;Node11</title>
<path fill="none" stroke="#191970" d="M1082.1778,-229.5828C1156.7701,-222.5212 1304.9229,-207.6108 1441.087,-188.0511"/>
<polygon fill="#191970" stroke="#191970" points="1441.8906,-191.4714 1451.2856,-186.574 1440.8872,-184.5436 1441.8906,-191.4714"/>
</g>
<!-- Node40&#45;&gt;Node16 -->
<g id="edge69" class="edge">
<title>Node40&#45;&gt;Node16</title>
<path fill="none" stroke="#191970" d="M1082.272,-230.1847C1206.9134,-220.2722 1531.4031,-194.0546 1554,-188 1574.359,-182.545 1576.7833,-173.961 1597,-168 1705.4249,-136.0301 1739.2716,-148.8012 1854.398,-132.1803"/>
<polygon fill="#191970" stroke="#191970" points="1854.9272,-135.6402 1864.3036,-130.7072 1853.8975,-128.7163 1854.9272,-135.6402"/>
</g>
<!-- Node40&#45;&gt;Node19 -->
<g id="edge68" class="edge">
<title>Node40&#45;&gt;Node19</title>
<path fill="none" stroke="#191970" d="M1055.4209,-224.3376C1071.6982,-216.2609 1093.9484,-203.5715 1110,-188 1142.1381,-156.8233 1167.679,-110.2515 1180.3276,-84.6057"/>
<polygon fill="#191970" stroke="#191970" points="1183.4866,-86.1126 1184.6685,-75.5839 1177.1788,-83.0776 1183.4866,-86.1126"/>
</g>
<!-- Node40&#45;&gt;Node22 -->
<g id="edge70" class="edge">
<title>Node40&#45;&gt;Node22</title>
<path fill="none" stroke="#191970" d="M1053.5973,-224.468C1077.2936,-211.7135 1111.9068,-188.3405 1094,-168 1074.3917,-145.7268 888.6943,-131.3245 791.9699,-125.2704"/>
<polygon fill="#191970" stroke="#191970" points="791.9598,-121.7632 781.7636,-124.6419 791.5295,-128.75 791.9598,-121.7632"/>
</g>
<!-- Node40&#45;&gt;Node24 -->
<g id="edge63" class="edge">
<title>Node40&#45;&gt;Node24</title>
<path fill="none" stroke="#191970" d="M985.6013,-232.822C866.1087,-229.4626 564.3322,-218.063 531,-188 502.4,-162.205 502.0077,-113.106 504.3966,-85.7157"/>
<polygon fill="#191970" stroke="#191970" points="507.8789,-86.0671 505.4759,-75.7484 500.9196,-85.3135 507.8789,-86.0671"/>
</g>
<!-- Node40&#45;&gt;Node31 -->
<g id="edge71" class="edge">
<title>Node40&#45;&gt;Node31</title>
<path fill="none" stroke="#191970" d="M985.9591,-229.9726C867.2685,-220.0225 560.2485,-194.2843 428.0493,-183.2017"/>
<polygon fill="#191970" stroke="#191970" points="427.9582,-179.6819 417.7008,-182.3342 427.3734,-186.6574 427.9582,-179.6819"/>
</g>
<!-- Node41 -->
<g id="node42" class="node">
<title>Node41</title>
<polygon fill="#ffffff" stroke="#bfbfbf" points="762,-168.5 762,-187.5 880,-187.5 880,-168.5 762,-168.5"/>
<text text-anchor="middle" x="821" y="-175.5" font-family="Helvetica,sans-Serif" font-size="10.00" fill="#000000">libxml/xmlmemory.h</text>
</g>
<!-- Node40&#45;&gt;Node41 -->
<g id="edge64" class="edge">
<title>Node40&#45;&gt;Node41</title>
<path fill="none" stroke="#191970" d="M997.384,-224.3733C961.352,-214.9001 906.2122,-200.4032 867.1886,-190.1435"/>
<polygon fill="#191970" stroke="#191970" points="867.6995,-186.6589 857.1382,-187.5011 865.9196,-193.4289 867.6995,-186.6589"/>
</g>
<!-- Node42 -->
<g id="node43" class="node">
<title>Node42</title>
<polygon fill="#ffffff" stroke="#bfbfbf" points="898.5,-168.5 898.5,-187.5 987.5,-187.5 987.5,-168.5 898.5,-168.5"/>
<text text-anchor="middle" x="943" y="-175.5" font-family="Helvetica,sans-Serif" font-size="10.00" fill="#000000">libxml/parser.h</text>
</g>
<!-- Node40&#45;&gt;Node42 -->
<g id="edge65" class="edge">
<title>Node40&#45;&gt;Node42</title>
<path fill="none" stroke="#191970" d="M1018.149,-224.2455C1004.1868,-215.6534 983.6272,-203.0014 967.5404,-193.1018"/>
<polygon fill="#191970" stroke="#191970" points="969.0203,-189.9029 958.6693,-187.6427 965.3516,-195.8645 969.0203,-189.9029"/>
</g>
<!-- Node43 -->
<g id="node44" class="node">
<title>Node43</title>
<polygon fill="#ffffff" stroke="#bfbfbf" points="1005.5,-168.5 1005.5,-187.5 1084.5,-187.5 1084.5,-168.5 1005.5,-168.5"/>
<text text-anchor="middle" x="1045" y="-175.5" font-family="Helvetica,sans-Serif" font-size="10.00" fill="#000000">libxml/tree.h</text>
</g>
<!-- Node40&#45;&gt;Node43 -->
<g id="edge66" class="edge">
<title>Node40&#45;&gt;Node43</title>
<path fill="none" stroke="#191970" d="M1035.9161,-224.2455C1037.3514,-216.9382 1039.3636,-206.6944 1041.1295,-197.7046"/>
<polygon fill="#191970" stroke="#191970" points="1044.6127,-198.1298 1043.1059,-187.6427 1037.744,-196.7805 1044.6127,-198.1298"/>
</g>
<!-- Node40&#45;&gt;Node44 -->
<g id="edge72" class="edge">
<title>Node40&#45;&gt;Node44</title>
<path fill="none" stroke="#191970" d="M1075.1555,-224.4369C1116.3142,-214.8731 1179.705,-200.1432 1224.0242,-189.845"/>
<polygon fill="#191970" stroke="#191970" points="1225.0659,-193.1963 1234.0142,-187.5237 1223.4815,-186.3779 1225.0659,-193.1963"/>
</g>
<!-- Node45&#45;&gt;Node22 -->
<g id="edge74" class="edge">
<title>Node45&#45;&gt;Node22</title>
<path fill="none" stroke="#191970" d="M910.1973,-280.4833C866.6793,-267.0745 793.993,-238.4386 753,-188 742.3189,-174.8577 737.6413,-155.9827 735.5934,-141.7814"/>
<polygon fill="#191970" stroke="#191970" points="739.0435,-141.1405 734.4503,-131.5931 732.0871,-141.921 739.0435,-141.1405"/>
</g>
<!-- Node45&#45;&gt;Node40 -->
<g id="edge75" class="edge">
<title>Node45&#45;&gt;Node40</title>
<path fill="none" stroke="#191970" d="M961.3284,-280.2455C974.8303,-271.6534 994.7122,-259.0014 1010.2686,-249.1018"/>
<polygon fill="#191970" stroke="#191970" points="1012.2897,-251.9643 1018.8472,-243.6427 1008.5315,-246.0587 1012.2897,-251.9643"/>
</g>
<!-- Node47 -->
<g id="node48" class="node">
<title>Node47</title>
<polygon fill="#ffffff" stroke="#bfbfbf" points="692.5,-224.5 692.5,-243.5 739.5,-243.5 739.5,-224.5 692.5,-224.5"/>
<text text-anchor="middle" x="716" y="-231.5" font-family="Helvetica,sans-Serif" font-size="10.00" fill="#000000">lo/lo.h</text>
</g>
<!-- Node46&#45;&gt;Node47 -->
<g id="edge78" class="edge">
<title>Node46&#45;&gt;Node47</title>
<path fill="none" stroke="#191970" d="M781.2393,-280.2455C769.3448,-271.814 751.935,-259.4729 738.0915,-249.6598"/>
<polygon fill="#191970" stroke="#191970" points="739.7854,-246.5704 729.6031,-243.6427 735.7372,-252.2811 739.7854,-246.5704"/>
</g>
</g>
</svg>
