<?xml version="1.0" encoding="UTF-8" standalone="no"?>
<!DOCTYPE svg PUBLIC "-//W3C//DTD SVG 1.1//EN"
 "http://www.w3.org/Graphics/SVG/1.1/DTD/svg11.dtd">
<!-- Generated by graphviz version 2.40.1 (20161225.0304)
 -->
<!-- Title: src/fweelin_rcu.cc Pages: 1 -->
<svg width="928pt" height="252pt"
 viewBox="0.00 0.00 928.00 252.00" xmlns="http://www.w3.org/2000/svg" xmlns:xlink="http://www.w3.org/1999/xlink">
<g id="graph0" class="graph" transform="scale(1 1) rotate(0) translate(4 248)">
<title>src/fweelin_rcu.cc</title>
<polygon fill="#ffffff" stroke="transparent" points="-4,4 -4,-248 924,-248 924,4 -4,4"/>
<!-- Node0 -->
<g id="node1" class="node">
<title>Node0</title>
<polygon fill="#bfbfbf" stroke="#000000" points="343,-224.5 343,-243.5 447,-243.5 447,-224.5 343,-224.5"/>
<text text-anchor="middle" x="395" y="-231.5" font-family="Helvetica,sans-Serif" font-size="10.00" fill="#000000">src/fweelin_rcu.cc</text>
</g>
<!-- Node1 -->
<g id="node2" class="node">
<title>Node1</title>
<polygon fill="#ffffff" stroke="#bfbfbf" points="0,-168.5 0,-187.5 68,-187.5 68,-168.5 0,-168.5"/>
<text text-anchor="middle" x="34" y="-175.5" font-family="Helvetica,sans-Serif" font-size="10.00" fill="#000000">sys/time.h</text>
</g>
<!-- Node0&#45;&gt;Node1 -->
<g id="edge1" class="edge">
<title>Node0&#45;&gt;Node1</title>
<path fill="none" stroke="#191970" d="M342.7223,-227.8195C281.5603,-220.2809 177.0644,-206.4468 78.0805,-188.0818"/>
<polygon fill="#191970" stroke="#191970" points="78.6859,-184.6344 68.2122,-186.2322 77.3962,-191.5146 78.6859,-184.6344"/>
</g>
<!-- Node2 -->
<g id="node3" class="node">
<title>Node2</title>
<polygon fill="#ffffff" stroke="#bfbfbf" points="86,-168.5 86,-187.5 136,-187.5 136,-168.5 86,-168.5"/>
<text text-anchor="middle" x="111" y="-175.5" font-family="Helvetica,sans-Serif" font-size="10.00" fill="#000000">stdio.h</text>
</g>
<!-- Node0&#45;&gt;Node2 -->
<g id="edge2" class="edge">
<title>Node0&#45;&gt;Node2</title>
<path fill="none" stroke="#191970" d="M342.9599,-226.0461C294.3431,-218.2512 219.5922,-205.3382 146.0663,-188.0727"/>
<polygon fill="#191970" stroke="#191970" points="146.7111,-184.6285 136.1727,-185.7209 145.0922,-191.4387 146.7111,-184.6285"/>
</g>
<!-- Node3 -->
<g id="node4" class="node">
<title>Node3</title>
<polygon fill="#ffffff" stroke="#bfbfbf" points="154.5,-168.5 154.5,-187.5 205.5,-187.5 205.5,-168.5 154.5,-168.5"/>
<text text-anchor="middle" x="180" y="-175.5" font-family="Helvetica,sans-Serif" font-size="10.00" fill="#000000">errno.h</text>
</g>
<!-- Node0&#45;&gt;Node3 -->
<g id="edge3" class="edge">
<title>Node0&#45;&gt;Node3</title>
<path fill="none" stroke="#191970" d="M356.2939,-224.4424C321.8541,-215.8638 269.8752,-202.7349 215.4228,-188.0607"/>
<polygon fill="#191970" stroke="#191970" points="216.1581,-184.6339 205.5911,-185.4014 214.3304,-191.3911 216.1581,-184.6339"/>
</g>
<!-- Node4 -->
<g id="node5" class="node">
<title>Node4</title>
<polygon fill="#ffffff" stroke="#bfbfbf" points="224,-168.5 224,-187.5 280,-187.5 280,-168.5 224,-168.5"/>
<text text-anchor="middle" x="252" y="-175.5" font-family="Helvetica,sans-Serif" font-size="10.00" fill="#000000">unistd.h</text>
</g>
<!-- Node0&#45;&gt;Node4 -->
<g id="edge4" class="edge">
<title>Node0&#45;&gt;Node4</title>
<path fill="none" stroke="#191970" d="M370.4174,-224.3733C347.0504,-215.2226 311.7138,-201.3844 285.7216,-191.2057"/>
<polygon fill="#191970" stroke="#191970" points="286.8495,-187.8886 276.2618,-187.5011 284.297,-194.4066 286.8495,-187.8886"/>
</g>
<!-- Node5 -->
<g id="node6" class="node">
<title>Node5</title>
<polygon fill="#ffffff" stroke="#bfbfbf" points="298.5,-168.5 298.5,-187.5 351.5,-187.5 351.5,-168.5 298.5,-168.5"/>
<text text-anchor="middle" x="325" y="-175.5" font-family="Helvetica,sans-Serif" font-size="10.00" fill="#000000">stdlib.h</text>
</g>
<!-- Node0&#45;&gt;Node5 -->
<g id="edge5" class="edge">
<title>Node0&#45;&gt;Node5</title>
<path fill="none" stroke="#191970" d="M382.8069,-224.2455C372.3679,-215.8943 357.1345,-203.7076 344.926,-193.9408"/>
<polygon fill="#191970" stroke="#191970" points="347.0485,-191.1566 337.0533,-187.6427 342.6756,-196.6227 347.0485,-191.1566"/>
</g>
<!-- Node6 -->
<g id="node7" class="node">
<title>Node6</title>
<polygon fill="#ffffff" stroke="#bfbfbf" points="369.5,-168.5 369.5,-187.5 420.5,-187.5 420.5,-168.5 369.5,-168.5"/>
<text text-anchor="middle" x="395" y="-175.5" font-family="Helvetica,sans-Serif" font-size="10.00" fill="#000000">math.h</text>
</g>
<!-- Node0&#45;&gt;Node6 -->
<g id="edge6" class="edge">
<title>Node0&#45;&gt;Node6</title>
<path fill="none" stroke="#191970" d="M395,-224.2455C395,-216.9382 395,-206.6944 395,-197.7046"/>
<polygon fill="#191970" stroke="#191970" points="398.5001,-197.6426 395,-187.6427 391.5001,-197.6427 398.5001,-197.6426"/>
</g>
<!-- Node7 -->
<g id="node8" class="node">
<title>Node7</title>
<polygon fill="#ffffff" stroke="#bfbfbf" points="438.5,-168.5 438.5,-187.5 491.5,-187.5 491.5,-168.5 438.5,-168.5"/>
<text text-anchor="middle" x="465" y="-175.5" font-family="Helvetica,sans-Serif" font-size="10.00" fill="#000000">string.h</text>
</g>
<!-- Node0&#45;&gt;Node7 -->
<g id="edge7" class="edge">
<title>Node0&#45;&gt;Node7</title>
<path fill="none" stroke="#191970" d="M407.1931,-224.2455C417.6321,-215.8943 432.8655,-203.7076 445.074,-193.9408"/>
<polygon fill="#191970" stroke="#191970" points="447.3244,-196.6227 452.9467,-187.6427 442.9515,-191.1566 447.3244,-196.6227"/>
</g>
<!-- Node8 -->
<g id="node9" class="node">
<title>Node8</title>
<polygon fill="#ffffff" stroke="#bfbfbf" points="509.5,-168.5 509.5,-187.5 572.5,-187.5 572.5,-168.5 509.5,-168.5"/>
<text text-anchor="middle" x="541" y="-175.5" font-family="Helvetica,sans-Serif" font-size="10.00" fill="#000000">pthread.h</text>
</g>
<!-- Node0&#45;&gt;Node8 -->
<g id="edge8" class="edge">
<title>Node0&#45;&gt;Node8</title>
<path fill="none" stroke="#191970" d="M420.0983,-224.3733C443.9555,-215.2226 480.0335,-201.3844 506.571,-191.2057"/>
<polygon fill="#191970" stroke="#191970" points="508.1459,-194.3503 516.2292,-187.5011 505.639,-187.8145 508.1459,-194.3503"/>
</g>
<!-- Node9 -->
<g id="node10" class="node">
<title>Node9</title>
<polygon fill="#ffffff" stroke="#bfbfbf" points="591,-168.5 591,-187.5 645,-187.5 645,-168.5 591,-168.5"/>
<text text-anchor="middle" x="618" y="-175.5" font-family="Helvetica,sans-Serif" font-size="10.00" fill="#000000">sched.h</text>
</g>
<!-- Node0&#45;&gt;Node9 -->
<g id="edge9" class="edge">
<title>Node0&#45;&gt;Node9</title>
<path fill="none" stroke="#191970" d="M434.612,-224.4649C472.3103,-215.3287 530.6009,-201.0412 581,-188 581.1007,-187.974 581.2015,-187.9479 581.3024,-187.9217"/>
<polygon fill="#191970" stroke="#191970" points="582.1599,-191.3153 590.9399,-185.3856 580.3784,-184.5458 582.1599,-191.3153"/>
</g>
<!-- Node10 -->
<g id="node11" class="node">
<title>Node10</title>
<polygon fill="#ffffff" stroke="#bfbfbf" points="663.5,-168.5 663.5,-187.5 740.5,-187.5 740.5,-168.5 663.5,-168.5"/>
<text text-anchor="middle" x="702" y="-175.5" font-family="Helvetica,sans-Serif" font-size="10.00" fill="#000000">sys/mman.h</text>
</g>
<!-- Node0&#45;&gt;Node10 -->
<g id="edge10" class="edge">
<title>Node0&#45;&gt;Node10</title>
<path fill="none" stroke="#191970" d="M447.1724,-225.2009C497.39,-216.6263 575.7247,-202.9756 653.3,-188.0923"/>
<polygon fill="#191970" stroke="#191970" points="654.0898,-191.5046 663.2472,-186.1762 652.7657,-184.631 654.0898,-191.5046"/>
</g>
<!-- Node11 -->
<g id="node12" class="node">
<title>Node11</title>
<g id="a_node12"><a xlink:href="fweelin__rcu_8h.html" target="_top" xlink:title="fweelin_rcu.h">
<polygon fill="#ffffff" stroke="#000000" points="759,-168.5 759,-187.5 841,-187.5 841,-168.5 759,-168.5"/>
<text text-anchor="middle" x="800" y="-175.5" font-family="Helvetica,sans-Serif" font-size="10.00" fill="#000000">fweelin_rcu.h</text>
</a>
</g>
</g>
<!-- Node0&#45;&gt;Node11 -->
<g id="edge11" class="edge">
<title>Node0&#45;&gt;Node11</title>
<path fill="none" stroke="#191970" d="M447.0393,-228.3004C514.2371,-220.7047 635.0204,-206.2544 748.9063,-187.9188"/>
<polygon fill="#191970" stroke="#191970" points="749.5349,-191.3626 758.8451,-186.3057 748.4135,-184.453 749.5349,-191.3626"/>
</g>
<!-- Node12 -->
<g id="node13" class="node">
<title>Node12</title>
<polygon fill="#ffffff" stroke="#bfbfbf" points="718.5,-112.5 718.5,-131.5 771.5,-131.5 771.5,-112.5 718.5,-112.5"/>
<text text-anchor="middle" x="745" y="-119.5" font-family="Helvetica,sans-Serif" font-size="10.00" fill="#000000">stdint.h</text>
</g>
<!-- Node11&#45;&gt;Node12 -->
<g id="edge12" class="edge">
<title>Node11&#45;&gt;Node12</title>
<path fill="none" stroke="#191970" d="M790.4197,-168.2455C782.4542,-160.1352 770.9359,-148.4075 761.4921,-138.7919"/>
<polygon fill="#191970" stroke="#191970" points="763.9747,-136.3247 754.4705,-131.6427 758.9805,-141.2297 763.9747,-136.3247"/>
</g>
<!-- Node13 -->
<g id="node14" class="node">
<title>Node13</title>
<g id="a_node14"><a xlink:href="fweelin__datatypes_8h.html" target="_top" xlink:title="fweelin_datatypes.h">
<polygon fill="#ffffff" stroke="#000000" points="779,-56.5 779,-75.5 895,-75.5 895,-56.5 779,-56.5"/>
<text text-anchor="middle" x="837" y="-63.5" font-family="Helvetica,sans-Serif" font-size="10.00" fill="#000000">fweelin_datatypes.h</text>
</a>
</g>
</g>
<!-- Node11&#45;&gt;Node13 -->
<g id="edge13" class="edge">
<title>Node11&#45;&gt;Node13</title>
<path fill="none" stroke="#191970" d="M802.5503,-168.0716C805.9578,-155.0788 812.3429,-131.6502 819,-112 822.0182,-103.0908 825.7546,-93.3714 829.0395,-85.1716"/>
<polygon fill="#191970" stroke="#191970" points="832.3368,-86.3546 832.871,-75.7733 825.8548,-83.712 832.3368,-86.3546"/>
</g>
<!-- Node16 -->
<g id="node17" class="node">
<title>Node16</title>
<g id="a_node17"><a xlink:href="fweelin__mem_8h.html" target="_top" xlink:title="fweelin_mem.h">
<polygon fill="#ffffff" stroke="#000000" points="828,-112.5 828,-131.5 920,-131.5 920,-112.5 828,-112.5"/>
<text text-anchor="middle" x="874" y="-119.5" font-family="Helvetica,sans-Serif" font-size="10.00" fill="#000000">fweelin_mem.h</text>
</a>
</g>
</g>
<!-- Node11&#45;&gt;Node16 -->
<g id="edge16" class="edge">
<title>Node11&#45;&gt;Node16</title>
<path fill="none" stroke="#191970" d="M812.8898,-168.2455C823.9254,-159.8943 840.0292,-147.7076 852.9353,-137.9408"/>
<polygon fill="#191970" stroke="#191970" points="855.3959,-140.4681 861.2579,-131.6427 851.1717,-134.8862 855.3959,-140.4681"/>
</g>
<!-- Node14 -->
<g id="node15" class="node">
<title>Node14</title>
<polygon fill="#ffffff" stroke="#bfbfbf" points="742.5,-.5 742.5,-19.5 837.5,-19.5 837.5,-.5 742.5,-.5"/>
<text text-anchor="middle" x="790" y="-7.5" font-family="Helvetica,sans-Serif" font-size="10.00" fill="#000000">jack/ringbuffer.h</text>
</g>
<!-- Node13&#45;&gt;Node14 -->
<g id="edge14" class="edge">
<title>Node13&#45;&gt;Node14</title>
<path fill="none" stroke="#191970" d="M828.8132,-56.2455C822.1411,-48.2958 812.5521,-36.8706 804.5747,-27.3656"/>
<polygon fill="#191970" stroke="#191970" points="807.2026,-25.0524 798.093,-19.6427 801.8408,-29.5525 807.2026,-25.0524"/>
</g>
<!-- Node15 -->
<g id="node16" class="node">
<title>Node15</title>
<polygon fill="#ffffff" stroke="#bfbfbf" points="856,-.5 856,-19.5 912,-19.5 912,-.5 856,-.5"/>
<text text-anchor="middle" x="884" y="-7.5" font-family="Helvetica,sans-Serif" font-size="10.00" fill="#000000">assert.h</text>
</g>
<!-- Node13&#45;&gt;Node15 -->
<g id="edge15" class="edge">
<title>Node13&#45;&gt;Node15</title>
<path fill="none" stroke="#191970" d="M845.1868,-56.2455C851.8589,-48.2958 861.4479,-36.8706 869.4253,-27.3656"/>
<polygon fill="#191970" stroke="#191970" points="872.1592,-29.5525 875.907,-19.6427 866.7974,-25.0524 872.1592,-29.5525"/>
</g>
<!-- Node16&#45;&gt;Node13 -->
<g id="edge17" class="edge">
<title>Node16&#45;&gt;Node13</title>
<path fill="none" stroke="#191970" d="M867.5551,-112.2455C862.4618,-104.5367 855.2092,-93.5598 849.048,-84.2348"/>
<polygon fill="#191970" stroke="#191970" points="851.8038,-82.0566 843.3711,-75.6427 845.9635,-85.9155 851.8038,-82.0566"/>
</g>
</g>
</svg>
