<?xml version="1.0" encoding="UTF-8" standalone="no"?>
<!DOCTYPE svg PUBLIC "-//W3C//DTD SVG 1.1//EN"
 "http://www.w3.org/Graphics/SVG/1.1/DTD/svg11.dtd">
<!-- Generated by graphviz version 2.40.1 (20161225.0304)
 -->
<!-- Title: src/fweelin_mem.h Pages: 1 -->
<svg width="2126pt" height="487pt"
 viewBox="0.00 0.00 2125.91 487.00" xmlns="http://www.w3.org/2000/svg" xmlns:xlink="http://www.w3.org/1999/xlink">
<g id="graph0" class="graph" transform="scale(1 1) rotate(0) translate(4 483)">
<title>src/fweelin_mem.h</title>
<polygon fill="#ffffff" stroke="transparent" points="-4,4 -4,-483 2121.9122,-483 2121.9122,4 -4,4"/>
<!-- Node4 -->
<g id="node1" class="node">
<title>Node4</title>
<polygon fill="#bfbfbf" stroke="#000000" points="1148.9122,-459.5 1148.9122,-478.5 1258.9122,-478.5 1258.9122,-459.5 1148.9122,-459.5"/>
<text text-anchor="middle" x="1203.9122" y="-466.5" font-family="Helvetica,sans-Serif" font-size="10.00" fill="#000000">src/fweelin_mem.h</text>
</g>
<!-- Node5 -->
<g id="node2" class="node">
<title>Node5</title>
<g id="a_node2"><a xlink:href="fweelin__block_8h.html" target="_top" xlink:title="src/fweelin_block.h">
<polygon fill="#ffffff" stroke="#000000" points="1148.9122,-403.5 1148.9122,-422.5 1258.9122,-422.5 1258.9122,-403.5 1148.9122,-403.5"/>
<text text-anchor="middle" x="1203.9122" y="-410.5" font-family="Helvetica,sans-Serif" font-size="10.00" fill="#000000">src/fweelin_block.h</text>
</a>
</g>
</g>
<!-- Node4&#45;&gt;Node5 -->
<g id="edge1" class="edge">
<title>Node4&#45;&gt;Node5</title>
<path fill="none" stroke="#191970" d="M1203.9122,-449.1575C1203.9122,-440.155 1203.9122,-429.9199 1203.9122,-422.6427"/>
<polygon fill="#191970" stroke="#191970" points="1200.4123,-449.2455 1203.9122,-459.2455 1207.4123,-449.2456 1200.4123,-449.2455"/>
</g>
<!-- Node33 -->
<g id="node30" class="node">
<title>Node33</title>
<g id="a_node30"><a xlink:href="fweelin__rcu_8h.html" target="_top" xlink:title="src/fweelin_rcu.h">
<polygon fill="#ffffff" stroke="#000000" points="678.4122,-403.5 678.4122,-422.5 777.4122,-422.5 777.4122,-403.5 678.4122,-403.5"/>
<text text-anchor="middle" x="727.9122" y="-410.5" font-family="Helvetica,sans-Serif" font-size="10.00" fill="#000000">src/fweelin_rcu.h</text>
</a>
</g>
</g>
<!-- Node4&#45;&gt;Node33 -->
<g id="edge67" class="edge">
<title>Node4&#45;&gt;Node33</title>
<path fill="none" stroke="#191970" d="M1138.6411,-461.3211C1042.2419,-449.98 863.9076,-428.9995 777.4619,-418.8294"/>
<polygon fill="#191970" stroke="#191970" points="1138.5034,-464.8289 1148.8439,-462.5214 1139.3214,-457.8769 1138.5034,-464.8289"/>
</g>
<!-- Node35 -->
<g id="node32" class="node">
<title>Node35</title>
<g id="a_node32"><a xlink:href="fweelin__mem_8cc.html" target="_top" xlink:title="src/fweelin_mem.cc">
<polygon fill="#ffffff" stroke="#000000" points="1276.9122,-403.5 1276.9122,-422.5 1390.9122,-422.5 1390.9122,-403.5 1276.9122,-403.5"/>
<text text-anchor="middle" x="1333.9122" y="-410.5" font-family="Helvetica,sans-Serif" font-size="10.00" fill="#000000">src/fweelin_mem.cc</text>
</a>
</g>
</g>
<!-- Node4&#45;&gt;Node35 -->
<g id="edge70" class="edge">
<title>Node4&#45;&gt;Node35</title>
<path fill="none" stroke="#191970" d="M1235.5224,-455.3833C1259.1656,-445.1985 1290.8998,-431.5284 1311.856,-422.5011"/>
<polygon fill="#191970" stroke="#191970" points="1234.0594,-452.2025 1226.26,-459.3733 1236.8288,-458.6314 1234.0594,-452.2025"/>
</g>
<!-- Node6 -->
<g id="node3" class="node">
<title>Node6</title>
<g id="a_node3"><a xlink:href="fweelin__event_8h.html" target="_top" xlink:title="src/fweelin_event.h">
<polygon fill="#ffffff" stroke="#000000" points="1147.9122,-347.5 1147.9122,-366.5 1259.9122,-366.5 1259.9122,-347.5 1147.9122,-347.5"/>
<text text-anchor="middle" x="1203.9122" y="-354.5" font-family="Helvetica,sans-Serif" font-size="10.00" fill="#000000">src/fweelin_event.h</text>
</a>
</g>
</g>
<!-- Node5&#45;&gt;Node6 -->
<g id="edge2" class="edge">
<title>Node5&#45;&gt;Node6</title>
<path fill="none" stroke="#191970" d="M1197.4235,-393.1575C1196.8312,-384.155 1197.2457,-373.9199 1198.667,-366.6427"/>
<polygon fill="#191970" stroke="#191970" points="1193.9683,-393.739 1198.6453,-403.2455 1200.9175,-392.8972 1193.9683,-393.739"/>
</g>
<!-- Node9 -->
<g id="node6" class="node">
<title>Node9</title>
<g id="a_node6"><a xlink:href="fweelin__core_8h.html" target="_top" xlink:title="src/fweelin_core.h">
<polygon fill="#ffffff" stroke="#000000" points="969.4122,-123.5 969.4122,-142.5 1074.4122,-142.5 1074.4122,-123.5 969.4122,-123.5"/>
<text text-anchor="middle" x="1021.9122" y="-130.5" font-family="Helvetica,sans-Serif" font-size="10.00" fill="#000000">src/fweelin_core.h</text>
</a>
</g>
</g>
<!-- Node5&#45;&gt;Node9 -->
<g id="edge64" class="edge">
<title>Node5&#45;&gt;Node9</title>
<path fill="none" stroke="#191970" d="M1139.8488,-400.9299C1087.4327,-386.9097 1021.9122,-357.9871 1021.9122,-301 1021.9122,-301 1021.9122,-301 1021.9122,-245 1021.9122,-207.0833 1021.9122,-161.9462 1021.9122,-142.5884"/>
<polygon fill="#191970" stroke="#191970" points="1139.2449,-404.3876 1149.7989,-403.4584 1140.969,-397.6032 1139.2449,-404.3876"/>
</g>
<!-- Node13 -->
<g id="node10" class="node">
<title>Node13</title>
<g id="a_node10"><a xlink:href="fweelin__core__dsp_8h.html" target="_top" xlink:title="src/fweelin_core_dsp.h">
<polygon fill="#ffffff" stroke="#000000" points="1849.9122,-62 1849.9122,-81 1977.9122,-81 1977.9122,-62 1849.9122,-62"/>
<text text-anchor="middle" x="1913.9122" y="-69" font-family="Helvetica,sans-Serif" font-size="10.00" fill="#000000">src/fweelin_core_dsp.h</text>
</a>
</g>
</g>
<!-- Node5&#45;&gt;Node13 -->
<g id="edge63" class="edge">
<title>Node5&#45;&gt;Node13</title>
<path fill="none" stroke="#191970" d="M1269.3405,-403.0847C1399.9596,-390.3249 2081.9122,-389.4813 2081.9122,-301 2081.9122,-301 2081.9122,-301 2081.9122,-189 2081.9122,-127.247 2004.7458,-95.2277 1955.0096,-81.0036"/>
<polygon fill="#191970" stroke="#191970" points="1268.5856,-399.6486 1259.0544,-404.2753 1269.3905,-406.6022 1268.5856,-399.6486"/>
</g>
<!-- Node17 -->
<g id="node14" class="node">
<title>Node17</title>
<g id="a_node14"><a xlink:href="fweelin__block_8cc.html" target="_top" xlink:title="src/fweelin_block.cc">
<polygon fill="#ffffff" stroke="#000000" points="1640.4122,-62 1640.4122,-81 1755.4122,-81 1755.4122,-62 1640.4122,-62"/>
<text text-anchor="middle" x="1697.9122" y="-69" font-family="Helvetica,sans-Serif" font-size="10.00" fill="#000000">src/fweelin_block.cc</text>
</a>
</g>
</g>
<!-- Node5&#45;&gt;Node17 -->
<g id="edge66" class="edge">
<title>Node5&#45;&gt;Node17</title>
<path fill="none" stroke="#191970" d="M1269.1431,-402.0275C1427.984,-375.1997 1821.9122,-307.9645 1821.9122,-301 1821.9122,-301 1821.9122,-301 1821.9122,-245 1821.9122,-169.842 1743.941,-104.7832 1711.6561,-81.0662"/>
<polygon fill="#191970" stroke="#191970" points="1268.3051,-398.6193 1259.0272,-403.7351 1269.4703,-405.5217 1268.3051,-398.6193"/>
</g>
<!-- Node28 -->
<g id="node25" class="node">
<title>Node28</title>
<g id="a_node25"><a xlink:href="fweelin__config_8h.html" target="_top" xlink:title="src/fweelin_config.h">
<polygon fill="#ffffff" stroke="#000000" points="1276.4122,-235.5 1276.4122,-254.5 1389.4122,-254.5 1389.4122,-235.5 1276.4122,-235.5"/>
<text text-anchor="middle" x="1332.9122" y="-242.5" font-family="Helvetica,sans-Serif" font-size="10.00" fill="#000000">src/fweelin_config.h</text>
</a>
</g>
</g>
<!-- Node5&#45;&gt;Node28 -->
<g id="edge65" class="edge">
<title>Node5&#45;&gt;Node28</title>
<path fill="none" stroke="#191970" d="M1235.4588,-398.9439C1267.0924,-382.8574 1313.774,-353.176 1332.9122,-311 1341.2454,-292.6356 1338.1204,-268.3269 1335.3535,-254.9274"/>
<polygon fill="#191970" stroke="#191970" points="1233.6089,-395.9528 1226.1717,-403.4986 1236.6912,-402.2377 1233.6089,-395.9528"/>
</g>
<!-- Node6&#45;&gt;Node5 -->
<g id="edge32" class="edge">
<title>Node6&#45;&gt;Node5</title>
<path fill="none" stroke="#191970" d="M1210.3917,-376.7046C1210.9943,-385.6944 1210.5901,-395.9382 1209.179,-403.2455"/>
<polygon fill="#191970" stroke="#191970" points="1213.849,-376.1421 1209.1573,-366.6427 1206.9011,-376.9945 1213.849,-376.1421"/>
</g>
<!-- Node7 -->
<g id="node4" class="node">
<title>Node7</title>
<g id="a_node4"><a xlink:href="fweelin__midiio_8h.html" target="_top" xlink:title="src/fweelin_midiio.h">
<polygon fill="#ffffff" stroke="#000000" points="1428.4122,-179.5 1428.4122,-198.5 1543.4122,-198.5 1543.4122,-179.5 1428.4122,-179.5"/>
<text text-anchor="middle" x="1485.9122" y="-186.5" font-family="Helvetica,sans-Serif" font-size="10.00" fill="#000000">src/fweelin_midiio.h</text>
</a>
</g>
</g>
<!-- Node6&#45;&gt;Node7 -->
<g id="edge3" class="edge">
<title>Node6&#45;&gt;Node7</title>
<path fill="none" stroke="#191970" d="M1250.3276,-344.5302C1275.6182,-336.7444 1306.9587,-325.4437 1332.9122,-311 1392.8774,-277.6279 1453.4708,-220.9615 1476.3655,-198.5403"/>
<polygon fill="#191970" stroke="#191970" points="1249.1773,-341.2211 1240.6026,-347.4441 1251.1865,-347.9265 1249.1773,-341.2211"/>
</g>
<!-- Node6&#45;&gt;Node9 -->
<g id="edge58" class="edge">
<title>Node6&#45;&gt;Node9</title>
<path fill="none" stroke="#191970" d="M1176.9223,-342.2648C1163.6065,-334.1631 1147.8783,-323.2706 1135.9122,-311 1082.1084,-255.827 1039.8644,-171.3938 1026.4202,-142.832"/>
<polygon fill="#191970" stroke="#191970" points="1175.2847,-345.362 1185.6796,-347.4104 1178.8309,-339.3267 1175.2847,-345.362"/>
</g>
<!-- Node6&#45;&gt;Node13 -->
<g id="edge57" class="edge">
<title>Node6&#45;&gt;Node13</title>
<path fill="none" stroke="#191970" d="M1250.9402,-344.8571C1282.3888,-336.3385 1324.517,-324.1559 1360.9122,-311 1574.4255,-233.8203 1823.3092,-115.3985 1894.1856,-81.1081"/>
<polygon fill="#191970" stroke="#191970" points="1249.8769,-341.5185 1241.1257,-347.4907 1251.6912,-348.2793 1249.8769,-341.5185"/>
</g>
<!-- Node27 -->
<g id="node24" class="node">
<title>Node27</title>
<g id="a_node24"><a xlink:href="fweelin__videoio_8h.html" target="_top" xlink:title="src/fweelin_videoio.h">
<polygon fill="#ffffff" stroke="#000000" points="767.9122,-291.5 767.9122,-310.5 887.9122,-310.5 887.9122,-291.5 767.9122,-291.5"/>
<text text-anchor="middle" x="827.9122" y="-298.5" font-family="Helvetica,sans-Serif" font-size="10.00" fill="#000000">src/fweelin_videoio.h</text>
</a>
</g>
</g>
<!-- Node6&#45;&gt;Node27 -->
<g id="edge33" class="edge">
<title>Node6&#45;&gt;Node27</title>
<path fill="none" stroke="#191970" d="M1137.501,-347.109C1066.8697,-336.5894 956.1392,-320.0976 888.0144,-309.9514"/>
<polygon fill="#191970" stroke="#191970" points="1137.2147,-350.6049 1147.6212,-348.6162 1138.2459,-343.6812 1137.2147,-350.6049"/>
</g>
<!-- Node6&#45;&gt;Node28 -->
<g id="edge59" class="edge">
<title>Node6&#45;&gt;Node28</title>
<path fill="none" stroke="#191970" d="M1260.0662,-344.2539C1279.4654,-337.3211 1299.8398,-326.8038 1313.9122,-311 1328.185,-294.971 1331.78,-268.8534 1332.6566,-254.7588"/>
<polygon fill="#191970" stroke="#191970" points="1258.746,-341.0041 1250.3523,-347.469 1260.9456,-347.6495 1258.746,-341.0041"/>
</g>
<!-- Node29 -->
<g id="node26" class="node">
<title>Node29</title>
<g id="a_node26"><a xlink:href="fweelin__browser_8h.html" target="_top" xlink:title="src/fweelin_browser.h">
<polygon fill="#ffffff" stroke="#000000" points="1087.9122,-179.5 1087.9122,-198.5 1209.9122,-198.5 1209.9122,-179.5 1087.9122,-179.5"/>
<text text-anchor="middle" x="1148.9122" y="-186.5" font-family="Helvetica,sans-Serif" font-size="10.00" fill="#000000">src/fweelin_browser.h</text>
</a>
</g>
</g>
<!-- Node6&#45;&gt;Node29 -->
<g id="edge60" class="edge">
<title>Node6&#45;&gt;Node29</title>
<path fill="none" stroke="#191970" d="M1175.9406,-341.9168C1164.7421,-334.2694 1153.057,-323.8551 1146.9122,-311 1128.7322,-272.9667 1140.0249,-220.3432 1145.955,-198.7948"/>
<polygon fill="#191970" stroke="#191970" points="1174.3783,-345.0696 1184.7021,-347.4505 1178.1163,-339.1512 1174.3783,-345.0696"/>
</g>
<!-- Node30 -->
<g id="node27" class="node">
<title>Node30</title>
<g id="a_node27"><a xlink:href="fweelin__paramset_8h.html" target="_top" xlink:title="src/fweelin_paramset.h">
<polygon fill="#ffffff" stroke="#000000" points="328.4122,-123.5 328.4122,-142.5 459.4122,-142.5 459.4122,-123.5 328.4122,-123.5"/>
<text text-anchor="middle" x="393.9122" y="-130.5" font-family="Helvetica,sans-Serif" font-size="10.00" fill="#000000">src/fweelin_paramset.h</text>
</a>
</g>
</g>
<!-- Node6&#45;&gt;Node30 -->
<g id="edge61" class="edge">
<title>Node6&#45;&gt;Node30</title>
<path fill="none" stroke="#191970" d="M1137.5495,-352.9942C1031.3957,-346.1069 828.2934,-330.8285 758.9122,-311 614.1854,-269.6384 456.9899,-173.4623 408.785,-142.6688"/>
<polygon fill="#191970" stroke="#191970" points="1137.6193,-356.5058 1147.8231,-353.6541 1138.0681,-349.5202 1137.6193,-356.5058"/>
</g>
<!-- Node31 -->
<g id="node28" class="node">
<title>Node31</title>
<g id="a_node28"><a xlink:href="fweelin__sdlio_8h.html" target="_top" xlink:title="src/fweelin_sdlio.h">
<polygon fill="#ffffff" stroke="#000000" points="1266.4122,-179.5 1266.4122,-198.5 1373.4122,-198.5 1373.4122,-179.5 1266.4122,-179.5"/>
<text text-anchor="middle" x="1319.9122" y="-186.5" font-family="Helvetica,sans-Serif" font-size="10.00" fill="#000000">src/fweelin_sdlio.h</text>
</a>
</g>
</g>
<!-- Node6&#45;&gt;Node31 -->
<g id="edge52" class="edge">
<title>Node6&#45;&gt;Node31</title>
<path fill="none" stroke="#191970" d="M1189.3912,-338.8577C1180.4221,-325.3127 1172.0071,-306.5401 1179.9122,-291 1204.0457,-243.5575 1261.7331,-212.9587 1295.0387,-198.5915"/>
<polygon fill="#191970" stroke="#191970" points="1186.7984,-341.2449 1195.4954,-347.2958 1192.4699,-337.1421 1186.7984,-341.2449"/>
</g>
<!-- Node32 -->
<g id="node29" class="node">
<title>Node32</title>
<g id="a_node29"><a xlink:href="fweelin__event_8cc.html" target="_top" xlink:title="src/fweelin_event.cc">
<polygon fill="#ffffff" stroke="#000000" points="1188.9122,-291.5 1188.9122,-310.5 1304.9122,-310.5 1304.9122,-291.5 1188.9122,-291.5"/>
<text text-anchor="middle" x="1246.9122" y="-298.5" font-family="Helvetica,sans-Serif" font-size="10.00" fill="#000000">src/fweelin_event.cc</text>
</a>
</g>
</g>
<!-- Node6&#45;&gt;Node32 -->
<g id="edge62" class="edge">
<title>Node6&#45;&gt;Node32</title>
<path fill="none" stroke="#191970" d="M1217.5714,-339.2112C1224.8385,-329.7472 1233.4903,-318.4797 1239.508,-310.6427"/>
<polygon fill="#191970" stroke="#191970" points="1214.7165,-337.1824 1211.4022,-347.2455 1220.2685,-341.4456 1214.7165,-337.1824"/>
</g>
<!-- Node8 -->
<g id="node5" class="node">
<title>Node8</title>
<g id="a_node5"><a xlink:href="fweelin_8cc.html" target="_top" xlink:title="src/fweelin.cc">
<polygon fill="#ffffff" stroke="#000000" points="1356.4122,-.5 1356.4122,-19.5 1439.4122,-19.5 1439.4122,-.5 1356.4122,-.5"/>
<text text-anchor="middle" x="1397.9122" y="-7.5" font-family="Helvetica,sans-Serif" font-size="10.00" fill="#000000">src/fweelin.cc</text>
</a>
</g>
</g>
<!-- Node7&#45;&gt;Node8 -->
<g id="edge4" class="edge">
<title>Node7&#45;&gt;Node8</title>
<path fill="none" stroke="#191970" d="M1505.7192,-172.7196C1535.0708,-146.6183 1583.7067,-94.4416 1554.9122,-56 1541.0345,-37.4729 1481.1797,-23.89 1439.5229,-16.4663"/>
<polygon fill="#191970" stroke="#191970" points="1503.3138,-170.1724 1498.0323,-179.357 1507.8886,-175.4706 1503.3138,-170.1724"/>
</g>
<!-- Node7&#45;&gt;Node9 -->
<g id="edge5" class="edge">
<title>Node7&#45;&gt;Node9</title>
<path fill="none" stroke="#191970" d="M1417.9147,-180.7934C1324.7046,-169.5439 1159.2118,-149.5706 1074.7259,-139.3741"/>
<polygon fill="#191970" stroke="#191970" points="1417.7371,-184.2973 1428.0844,-182.0208 1418.5759,-177.3477 1417.7371,-184.2973"/>
</g>
<!-- Node15 -->
<g id="node12" class="node">
<title>Node15</title>
<g id="a_node12"><a xlink:href="fweelin__config_8cc.html" target="_top" xlink:title="src/fweelin_config.cc">
<polygon fill="#ffffff" stroke="#000000" points="1624.9122,-.5 1624.9122,-19.5 1742.9122,-19.5 1742.9122,-.5 1624.9122,-.5"/>
<text text-anchor="middle" x="1683.9122" y="-7.5" font-family="Helvetica,sans-Serif" font-size="10.00" fill="#000000">src/fweelin_config.cc</text>
</a>
</g>
</g>
<!-- Node7&#45;&gt;Node15 -->
<g id="edge30" class="edge">
<title>Node7&#45;&gt;Node15</title>
<path fill="none" stroke="#191970" d="M1539.4716,-177.0872C1612.8242,-159.5623 1738.4881,-124.7951 1764.9122,-87 1772.8067,-75.7083 1771.8435,-67.9073 1764.9122,-56 1754.4984,-38.1101 1734.2484,-26.6101 1716.6019,-19.5826"/>
<polygon fill="#191970" stroke="#191970" points="1538.4129,-173.7408 1529.4841,-179.4441 1540.0207,-180.5537 1538.4129,-173.7408"/>
</g>
<!-- Node22 -->
<g id="node19" class="node">
<title>Node22</title>
<g id="a_node19"><a xlink:href="fweelin__midiio_8cc.html" target="_top" xlink:title="src/fweelin_midiio.cc">
<polygon fill="#ffffff" stroke="#000000" points="1426.4122,-62 1426.4122,-81 1545.4122,-81 1545.4122,-62 1426.4122,-62"/>
<text text-anchor="middle" x="1485.9122" y="-69" font-family="Helvetica,sans-Serif" font-size="10.00" fill="#000000">src/fweelin_midiio.cc</text>
</a>
</g>
</g>
<!-- Node7&#45;&gt;Node22 -->
<g id="edge31" class="edge">
<title>Node7&#45;&gt;Node22</title>
<path fill="none" stroke="#191970" d="M1485.9122,-169.0662C1485.9122,-143.5834 1485.9122,-100.4662 1485.9122,-81.2484"/>
<polygon fill="#191970" stroke="#191970" points="1482.4123,-169.3844 1485.9122,-179.3845 1489.4123,-169.3845 1482.4123,-169.3844"/>
</g>
<!-- Node9&#45;&gt;Node8 -->
<g id="edge7" class="edge">
<title>Node9&#45;&gt;Node8</title>
<path fill="none" stroke="#191970" d="M959.8167,-120.6768C941.6309,-113.87 923.7415,-103.3244 912.9122,-87 905.2957,-75.5188 903.6412,-66.1919 912.9122,-56 942.507,-23.4655 1244.186,-13.4324 1356.2752,-10.8137"/>
<polygon fill="#191970" stroke="#191970" points="958.7235,-124.0018 969.3179,-123.9064 960.9763,-117.3743 958.7235,-124.0018"/>
</g>
<!-- Node10 -->
<g id="node7" class="node">
<title>Node10</title>
<g id="a_node7"><a xlink:href="FweelinMac_8mm.html" target="_top" xlink:title="MacOSX/FweelinMac.mm">
<polygon fill="#ffffff" stroke="#000000" points="955.4122,-62 955.4122,-81 1094.4122,-81 1094.4122,-62 955.4122,-62"/>
<text text-anchor="middle" x="1024.9122" y="-69" font-family="Helvetica,sans-Serif" font-size="10.00" fill="#000000">MacOSX/FweelinMac.mm</text>
</a>
</g>
</g>
<!-- Node9&#45;&gt;Node10 -->
<g id="edge6" class="edge">
<title>Node9&#45;&gt;Node10</title>
<path fill="none" stroke="#191970" d="M1022.8758,-113.2462C1023.3974,-102.5519 1024.0188,-89.814 1024.4368,-81.2449"/>
<polygon fill="#191970" stroke="#191970" points="1019.3724,-113.2319 1022.3809,-123.3906 1026.3641,-113.5731 1019.3724,-113.2319"/>
</g>
<!-- Node11 -->
<g id="node8" class="node">
<title>Node11</title>
<g id="a_node8"><a xlink:href="fweelin__amixer_8h.html" target="_top" xlink:title="src/fweelin_amixer.h">
<polygon fill="#ffffff" stroke="#000000" points="742.9122,-62 742.9122,-81 860.9122,-81 860.9122,-62 742.9122,-62"/>
<text text-anchor="middle" x="801.9122" y="-69" font-family="Helvetica,sans-Serif" font-size="10.00" fill="#000000">src/fweelin_amixer.h</text>
</a>
</g>
</g>
<!-- Node9&#45;&gt;Node11 -->
<g id="edge8" class="edge">
<title>Node9&#45;&gt;Node11</title>
<path fill="none" stroke="#191970" d="M972.9105,-120.8407C929.3614,-109.1696 867.2994,-91.7784 831.0722,-81.0643"/>
<polygon fill="#191970" stroke="#191970" points="972.1651,-124.2642 982.7293,-123.4581 973.9682,-117.5004 972.1651,-124.2642"/>
</g>
<!-- Node9&#45;&gt;Node13 -->
<g id="edge11" class="edge">
<title>Node9&#45;&gt;Node13</title>
<path fill="none" stroke="#191970" d="M1084.7881,-129.7419C1211.7862,-123.2641 1507.5524,-107.5971 1755.9122,-87 1786.6258,-84.4528 1820.8312,-80.9426 1849.6075,-77.9067"/>
<polygon fill="#191970" stroke="#191970" points="1084.2915,-126.2626 1074.4823,-130.2664 1084.6473,-133.2535 1084.2915,-126.2626"/>
</g>
<!-- Node9&#45;&gt;Node15 -->
<g id="edge19" class="edge">
<title>Node9&#45;&gt;Node15</title>
<path fill="none" stroke="#191970" d="M983.8851,-119.1435C969.6536,-111.8855 954.9911,-101.4324 946.9122,-87 940.1824,-74.9776 937.4781,-66.0412 946.9122,-56 958.4885,-43.6786 1451.653,-20.4188 1624.6735,-12.6222"/>
<polygon fill="#191970" stroke="#191970" points="982.561,-122.3882 993.1014,-123.4613 985.5308,-116.0494 982.561,-122.3882"/>
</g>
<!-- Node9&#45;&gt;Node17 -->
<g id="edge17" class="edge">
<title>Node9&#45;&gt;Node17</title>
<path fill="none" stroke="#191970" d="M1084.7269,-128.0267C1184.4381,-120.0311 1385.0528,-103.5334 1554.9122,-87 1582.9976,-84.2663 1614.1509,-80.9259 1640.1916,-78.0471"/>
<polygon fill="#191970" stroke="#191970" points="1084.2145,-124.5564 1074.5257,-128.8432 1084.7731,-131.5341 1084.2145,-124.5564"/>
</g>
<!-- Node18 -->
<g id="node15" class="node">
<title>Node18</title>
<g id="a_node15"><a xlink:href="fweelin__browser_8cc.html" target="_top" xlink:title="src/fweelin_browser.cc">
<polygon fill="#ffffff" stroke="#000000" points="1112.4122,-62 1112.4122,-81 1239.4122,-81 1239.4122,-62 1112.4122,-62"/>
<text text-anchor="middle" x="1175.9122" y="-69" font-family="Helvetica,sans-Serif" font-size="10.00" fill="#000000">src/fweelin_browser.cc</text>
</a>
</g>
</g>
<!-- Node9&#45;&gt;Node18 -->
<g id="edge18" class="edge">
<title>Node9&#45;&gt;Node18</title>
<path fill="none" stroke="#191970" d="M1055.3472,-119.6477C1084.5081,-108.0023 1126.0934,-91.3952 1152.0186,-81.0419"/>
<polygon fill="#191970" stroke="#191970" points="1053.9635,-116.4315 1045.9747,-123.3906 1056.5596,-122.9323 1053.9635,-116.4315"/>
</g>
<!-- Node19 -->
<g id="node16" class="node">
<title>Node19</title>
<g id="a_node16"><a xlink:href="fweelin__core_8cc.html" target="_top" xlink:title="src/fweelin_core.cc">
<polygon fill="#ffffff" stroke="#000000" points="429.9122,-.5 429.9122,-19.5 539.9122,-19.5 539.9122,-.5 429.9122,-.5"/>
<text text-anchor="middle" x="484.9122" y="-7.5" font-family="Helvetica,sans-Serif" font-size="10.00" fill="#000000">src/fweelin_core.cc</text>
</a>
</g>
</g>
<!-- Node9&#45;&gt;Node19 -->
<g id="edge20" class="edge">
<title>Node9&#45;&gt;Node19</title>
<path fill="none" stroke="#191970" d="M958.7202,-131.4454C828.1202,-127.6564 537.7807,-116.0359 503.9122,-87 484.1553,-70.0623 483.2146,-36.1646 484.0754,-19.5815"/>
<polygon fill="#191970" stroke="#191970" points="958.8756,-134.9511 968.9709,-131.7362 959.0742,-127.9539 958.8756,-134.9511"/>
</g>
<!-- Node20 -->
<g id="node17" class="node">
<title>Node20</title>
<g id="a_node17"><a xlink:href="fweelin__looplibrary_8h.html" target="_top" xlink:title="src/fweelin_looplibrary.h">
<polygon fill="#ffffff" stroke="#000000" points="513.4122,-62 513.4122,-81 648.4122,-81 648.4122,-62 513.4122,-62"/>
<text text-anchor="middle" x="580.9122" y="-69" font-family="Helvetica,sans-Serif" font-size="10.00" fill="#000000">src/fweelin_looplibrary.h</text>
</a>
</g>
</g>
<!-- Node9&#45;&gt;Node20 -->
<g id="edge21" class="edge">
<title>Node9&#45;&gt;Node20</title>
<path fill="none" stroke="#191970" d="M958.9212,-126.0758C887.1094,-117.916 766.2815,-103.3774 662.9122,-87 651.8937,-85.2543 640.085,-83.1564 628.9584,-81.0762"/>
<polygon fill="#191970" stroke="#191970" points="958.8229,-129.5869 969.1529,-127.2329 959.6095,-122.6312 958.8229,-129.5869"/>
</g>
<!-- Node21 -->
<g id="node18" class="node">
<title>Node21</title>
<g id="a_node18"><a xlink:href="fweelin__osc_8cc.html" target="_top" xlink:title="src/fweelin_osc.cc">
<polygon fill="#ffffff" stroke="#000000" points="588.4122,-.5 588.4122,-19.5 693.4122,-19.5 693.4122,-.5 588.4122,-.5"/>
<text text-anchor="middle" x="640.9122" y="-7.5" font-family="Helvetica,sans-Serif" font-size="10.00" fill="#000000">src/fweelin_osc.cc</text>
</a>
</g>
</g>
<!-- Node9&#45;&gt;Node21 -->
<g id="edge25" class="edge">
<title>Node9&#45;&gt;Node21</title>
<path fill="none" stroke="#191970" d="M958.7751,-126.8422C886.478,-119.1081 772.9884,-104.6838 733.9122,-87 697.8185,-70.6659 664.3289,-36.4806 649.2715,-19.7055"/>
<polygon fill="#191970" stroke="#191970" points="958.8172,-130.366 969.1292,-127.9344 959.5515,-123.4046 958.8172,-130.366"/>
</g>
<!-- Node9&#45;&gt;Node22 -->
<g id="edge24" class="edge">
<title>Node9&#45;&gt;Node22</title>
<path fill="none" stroke="#191970" d="M1084.7375,-125.208C1156.0765,-116.2896 1275.9358,-101.092 1378.9122,-87 1394.2547,-84.9004 1410.8209,-82.5443 1426.2288,-80.3151"/>
<polygon fill="#191970" stroke="#191970" points="1084.0611,-121.7652 1074.5719,-126.4774 1084.9285,-128.7112 1084.0611,-121.7652"/>
</g>
<!-- Node23 -->
<g id="node20" class="node">
<title>Node23</title>
<g id="a_node20"><a xlink:href="fweelin__paramset_8cc.html" target="_top" xlink:title="src/fweelin_paramset.cc">
<polygon fill="#ffffff" stroke="#000000" points="178.4122,-62 178.4122,-81 313.4122,-81 313.4122,-62 178.4122,-62"/>
<text text-anchor="middle" x="245.9122" y="-69" font-family="Helvetica,sans-Serif" font-size="10.00" fill="#000000">src/fweelin_paramset.cc</text>
</a>
</g>
</g>
<!-- Node9&#45;&gt;Node23 -->
<g id="edge26" class="edge">
<title>Node9&#45;&gt;Node23</title>
<path fill="none" stroke="#191970" d="M958.6215,-131.7117C835.4928,-128.5718 555.3179,-118.3233 321.9122,-87 310.7012,-85.4955 298.6648,-83.3095 287.5517,-81.0512"/>
<polygon fill="#191970" stroke="#191970" points="958.8986,-135.2196 968.9823,-131.9685 959.0721,-128.2217 958.8986,-135.2196"/>
</g>
<!-- Node24 -->
<g id="node21" class="node">
<title>Node24</title>
<g id="a_node21"><a xlink:href="fweelin__sdlio_8cc.html" target="_top" xlink:title="src/fweelin_sdlio.cc">
<polygon fill="#ffffff" stroke="#000000" points="1257.9122,-62 1257.9122,-81 1369.9122,-81 1369.9122,-62 1257.9122,-62"/>
<text text-anchor="middle" x="1313.9122" y="-69" font-family="Helvetica,sans-Serif" font-size="10.00" fill="#000000">src/fweelin_sdlio.cc</text>
</a>
</g>
</g>
<!-- Node9&#45;&gt;Node24 -->
<g id="edge27" class="edge">
<title>Node9&#45;&gt;Node24</title>
<path fill="none" stroke="#191970" d="M1081.6754,-121.4681C1127.5194,-112.482 1192.3269,-99.4762 1248.9122,-87 1257.2957,-85.1516 1266.2636,-83.0766 1274.7777,-81.0606"/>
<polygon fill="#191970" stroke="#191970" points="1080.7535,-118.082 1071.611,-123.436 1082.0968,-124.9519 1080.7535,-118.082"/>
</g>
<!-- Node25 -->
<g id="node22" class="node">
<title>Node25</title>
<g id="a_node22"><a xlink:href="fweelin__videoio_8cc.html" target="_top" xlink:title="src/fweelin_videoio.cc">
<polygon fill="#ffffff" stroke="#000000" points="331.4122,-62 331.4122,-81 456.4122,-81 456.4122,-62 331.4122,-62"/>
<text text-anchor="middle" x="393.9122" y="-69" font-family="Helvetica,sans-Serif" font-size="10.00" fill="#000000">src/fweelin_videoio.cc</text>
</a>
</g>
</g>
<!-- Node9&#45;&gt;Node25 -->
<g id="edge28" class="edge">
<title>Node9&#45;&gt;Node25</title>
<path fill="none" stroke="#191970" d="M959.0819,-130.1175C856.5104,-124.8825 646.8713,-111.9702 470.9122,-87 459.8414,-85.429 447.9626,-83.2741 436.9294,-81.0705"/>
<polygon fill="#191970" stroke="#191970" points="959.102,-133.6228 969.2653,-130.6298 959.4538,-126.6316 959.102,-133.6228"/>
</g>
<!-- Node26 -->
<g id="node23" class="node">
<title>Node26</title>
<g id="a_node23"><a xlink:href="fweelin__videoio__displays_8cc.html" target="_top" xlink:title="src/fweelin_videoio\l_displays.cc">
<polygon fill="#ffffff" stroke="#000000" points="49.4122,-56.5 49.4122,-86.5 160.4122,-86.5 160.4122,-56.5 49.4122,-56.5"/>
<text text-anchor="start" x="57.4122" y="-74.5" font-family="Helvetica,sans-Serif" font-size="10.00" fill="#000000">src/fweelin_videoio</text>
<text text-anchor="middle" x="104.9122" y="-63.5" font-family="Helvetica,sans-Serif" font-size="10.00" fill="#000000">_displays.cc</text>
</a>
</g>
</g>
<!-- Node9&#45;&gt;Node26 -->
<g id="edge29" class="edge">
<title>Node9&#45;&gt;Node26</title>
<path fill="none" stroke="#191970" d="M959.2898,-131.1174C789.2552,-125.7672 321.5153,-109.3998 168.9122,-87 166.1975,-86.6015 163.4293,-86.1415 160.6416,-85.6351"/>
<polygon fill="#191970" stroke="#191970" points="959.228,-134.6171 969.3325,-131.4315 959.4469,-127.6205 959.228,-134.6171"/>
</g>
<!-- Node11&#45;&gt;Node9 -->
<g id="edge9" class="edge">
<title>Node11&#45;&gt;Node9</title>
<path fill="none" stroke="#191970" d="M850.9006,-83.6557C894.3894,-95.3105 956.3474,-112.6718 992.5997,-123.3906"/>
<polygon fill="#191970" stroke="#191970" points="851.6592,-80.2358 841.0951,-81.0419 849.8561,-86.9996 851.6592,-80.2358"/>
</g>
<!-- Node12 -->
<g id="node9" class="node">
<title>Node12</title>
<g id="a_node9"><a xlink:href="fweelin__amixer_8cc.html" target="_top" xlink:title="src/fweelin_amixer.cc">
<polygon fill="#ffffff" stroke="#000000" points="740.9122,-.5 740.9122,-19.5 862.9122,-19.5 862.9122,-.5 740.9122,-.5"/>
<text text-anchor="middle" x="801.9122" y="-7.5" font-family="Helvetica,sans-Serif" font-size="10.00" fill="#000000">src/fweelin_amixer.cc</text>
</a>
</g>
</g>
<!-- Node11&#45;&gt;Node12 -->
<g id="edge10" class="edge">
<title>Node11&#45;&gt;Node12</title>
<path fill="none" stroke="#191970" d="M801.9122,-51.7462C801.9122,-41.0519 801.9122,-28.314 801.9122,-19.7449"/>
<polygon fill="#191970" stroke="#191970" points="798.4123,-51.8906 801.9122,-61.8906 805.4123,-51.8907 798.4123,-51.8906"/>
</g>
<!-- Node13&#45;&gt;Node8 -->
<g id="edge13" class="edge">
<title>Node13&#45;&gt;Node8</title>
<path fill="none" stroke="#191970" d="M1839.8352,-62.6711C1729.7871,-49.5549 1526.7431,-25.3549 1439.5145,-14.9584"/>
<polygon fill="#191970" stroke="#191970" points="1839.5196,-66.1581 1849.8635,-63.8663 1840.3481,-59.2073 1839.5196,-66.1581"/>
</g>
<!-- Node13&#45;&gt;Node9 -->
<g id="edge12" class="edge">
<title>Node13&#45;&gt;Node9</title>
<path fill="none" stroke="#191970" d="M1839.5255,-80.7647C1818.3704,-82.9865 1795.2951,-85.2267 1773.9122,-87 1512.1305,-108.7102 1197.6801,-124.943 1074.7028,-130.711"/>
<polygon fill="#191970" stroke="#191970" points="1840.1672,-84.2162 1849.7406,-79.6775 1839.4263,-77.2555 1840.1672,-84.2162"/>
</g>
<!-- Node14 -->
<g id="node11" class="node">
<title>Node14</title>
<g id="a_node11"><a xlink:href="fweelin__audioio_8cc.html" target="_top" xlink:title="src/fweelin_audioio.cc">
<polygon fill="#ffffff" stroke="#000000" points="1842.4122,-.5 1842.4122,-19.5 1967.4122,-19.5 1967.4122,-.5 1842.4122,-.5"/>
<text text-anchor="middle" x="1904.9122" y="-7.5" font-family="Helvetica,sans-Serif" font-size="10.00" fill="#000000">src/fweelin_audioio.cc</text>
</a>
</g>
</g>
<!-- Node13&#45;&gt;Node14 -->
<g id="edge14" class="edge">
<title>Node13&#45;&gt;Node14</title>
<path fill="none" stroke="#191970" d="M1911.0214,-51.7462C1909.4564,-41.0519 1907.5923,-28.314 1906.3382,-19.7449"/>
<polygon fill="#191970" stroke="#191970" points="1907.5947,-52.5028 1912.5059,-61.8906 1914.521,-51.4892 1907.5947,-52.5028"/>
</g>
<!-- Node13&#45;&gt;Node15 -->
<g id="edge15" class="edge">
<title>Node13&#45;&gt;Node15</title>
<path fill="none" stroke="#191970" d="M1868.4385,-59.3407C1824.7903,-47.6696 1759.75,-30.2784 1719.681,-19.5643"/>
<polygon fill="#191970" stroke="#191970" points="1867.6623,-62.7561 1878.227,-61.9581 1869.4706,-55.9937 1867.6623,-62.7561"/>
</g>
<!-- Node16 -->
<g id="node13" class="node">
<title>Node16</title>
<g id="a_node13"><a xlink:href="fweelin__core__dsp_8cc.html" target="_top" xlink:title="src/fweelin_core_dsp.cc">
<polygon fill="#ffffff" stroke="#000000" points="1985.9122,-.5 1985.9122,-19.5 2117.9122,-19.5 2117.9122,-.5 1985.9122,-.5"/>
<text text-anchor="middle" x="2051.9122" y="-7.5" font-family="Helvetica,sans-Serif" font-size="10.00" fill="#000000">src/fweelin_core_dsp.cc</text>
</a>
</g>
</g>
<!-- Node13&#45;&gt;Node16 -->
<g id="edge16" class="edge">
<title>Node13&#45;&gt;Node16</title>
<path fill="none" stroke="#191970" d="M1944.9015,-57.6895C1970.9744,-46.0701 2007.5724,-29.7601 2030.5011,-19.5419"/>
<polygon fill="#191970" stroke="#191970" points="1943.184,-54.6231 1935.4747,-61.8906 1946.0334,-61.0169 1943.184,-54.6231"/>
</g>
<!-- Node20&#45;&gt;Node19 -->
<g id="edge22" class="edge">
<title>Node20&#45;&gt;Node19</title>
<path fill="none" stroke="#191970" d="M557.1635,-56.286C539.2129,-44.7864 515.1248,-29.355 499.8068,-19.5419"/>
<polygon fill="#191970" stroke="#191970" points="555.6038,-59.4434 565.9122,-61.8906 559.3798,-53.5492 555.6038,-59.4434"/>
</g>
<!-- Node20&#45;&gt;Node21 -->
<g id="edge23" class="edge">
<title>Node20&#45;&gt;Node21</title>
<path fill="none" stroke="#191970" d="M597.2777,-54.7253C608.2265,-43.5028 622.2528,-29.1258 631.405,-19.7449"/>
<polygon fill="#191970" stroke="#191970" points="594.7652,-52.2886 590.2872,-61.8906 599.7757,-57.1769 594.7652,-52.2886"/>
</g>
<!-- Node27&#45;&gt;Node8 -->
<g id="edge34" class="edge">
<title>Node27&#45;&gt;Node8</title>
<path fill="none" stroke="#191970" d="M797.1464,-286.9047C763.6859,-269.2126 714.9122,-235.4561 714.9122,-189 714.9122,-189 714.9122,-189 714.9122,-133 714.9122,-97.7513 706.9303,-78.6814 733.9122,-56 757.7946,-35.924 1214.0864,-16.9782 1356.0945,-11.5478"/>
<polygon fill="#191970" stroke="#191970" points="795.6239,-290.057 806.1246,-291.466 798.7945,-283.8162 795.6239,-290.057"/>
</g>
<!-- Node27&#45;&gt;Node9 -->
<g id="edge35" class="edge">
<title>Node27&#45;&gt;Node9</title>
<path fill="none" stroke="#191970" d="M846.5443,-284.865C886.2881,-250.4477 978.3794,-170.6985 1010.5633,-142.8279"/>
<polygon fill="#191970" stroke="#191970" points="844.1666,-282.294 838.8983,-291.4862 848.749,-287.5857 844.1666,-282.294"/>
</g>
<!-- Node27&#45;&gt;Node25 -->
<g id="edge50" class="edge">
<title>Node27&#45;&gt;Node25</title>
<path fill="none" stroke="#191970" d="M786.8056,-288.3321C761.5388,-280.0048 728.7793,-268.2258 700.9122,-255 582.2677,-198.6911 450.1188,-110.1741 407.7614,-81.1021"/>
<polygon fill="#191970" stroke="#191970" points="785.8505,-291.7018 796.4426,-291.461 788.0123,-285.0439 785.8505,-291.7018"/>
</g>
<!-- Node27&#45;&gt;Node26 -->
<g id="edge51" class="edge">
<title>Node27&#45;&gt;Node26</title>
<path fill="none" stroke="#191970" d="M780.3839,-288.776C746.4127,-279.8654 699.6857,-267.2555 658.9122,-255 466.7909,-197.2532 240.4513,-119.0627 147.7529,-86.5969"/>
<polygon fill="#191970" stroke="#191970" points="779.9364,-292.2765 790.4964,-291.4181 781.706,-285.5039 779.9364,-292.2765"/>
</g>
<!-- Node27&#45;&gt;Node28 -->
<g id="edge36" class="edge">
<title>Node27&#45;&gt;Node28</title>
<path fill="none" stroke="#191970" d="M898.1792,-293.208C999.1751,-282.0085 1183.4088,-261.5786 1276.2426,-251.2842"/>
<polygon fill="#191970" stroke="#191970" points="897.6285,-289.7475 888.0752,-294.3285 898.4,-296.7049 897.6285,-289.7475"/>
</g>
<!-- Node28&#45;&gt;Node9 -->
<g id="edge37" class="edge">
<title>Node28&#45;&gt;Node9</title>
<path fill="none" stroke="#191970" d="M1308.9832,-230.0234C1281.2248,-212.8523 1236.9645,-186.1496 1218.9122,-179 1171.7275,-160.3127 1115.0443,-148.0656 1074.6188,-140.9423"/>
<polygon fill="#191970" stroke="#191970" points="1307.3611,-233.1361 1317.7025,-235.4392 1311.0545,-227.1897 1307.3611,-233.1361"/>
</g>
<!-- Node28&#45;&gt;Node14 -->
<g id="edge41" class="edge">
<title>Node28&#45;&gt;Node14</title>
<path fill="none" stroke="#191970" d="M1399.611,-239.3561C1551.6431,-224.9403 1916.2052,-181.0715 1986.9122,-87 1995.1903,-75.9864 1993.8747,-67.8891 1986.9122,-56 1976.4362,-38.1114 1956.1734,-26.6506 1938.4124,-19.6426"/>
<polygon fill="#191970" stroke="#191970" points="1399.1049,-235.888 1389.474,-240.3034 1399.7563,-242.8577 1399.1049,-235.888"/>
</g>
<!-- Node28&#45;&gt;Node15 -->
<g id="edge42" class="edge">
<title>Node28&#45;&gt;Node15</title>
<path fill="none" stroke="#191970" d="M1399.7909,-236.0057C1444.0964,-228.8433 1503.0226,-216.9896 1552.9122,-199 1653.1571,-162.8528 1709.9068,-178.2692 1764.9122,-87 1772.024,-75.1996 1771.8435,-67.9073 1764.9122,-56 1754.4984,-38.1101 1734.2484,-26.6101 1716.6019,-19.5826"/>
<polygon fill="#191970" stroke="#191970" points="1399.0474,-232.5796 1389.7147,-237.5947 1400.1379,-239.4941 1399.0474,-232.5796"/>
</g>
<!-- Node28&#45;&gt;Node16 -->
<g id="edge49" class="edge">
<title>Node28&#45;&gt;Node16</title>
<path fill="none" stroke="#191970" d="M1399.5794,-241.4015C1482.5613,-236.0683 1628.3123,-223.8888 1750.9122,-199 1835.9356,-181.7395 1861.8192,-184.6746 1937.9122,-143 1971.3565,-124.6832 1977.9647,-115.8383 2002.9122,-87 2021.9869,-64.9504 2038.9552,-34.8188 2046.991,-19.6139"/>
<polygon fill="#191970" stroke="#191970" points="1399.2905,-237.9127 1389.53,-242.0336 1399.73,-244.8989 1399.2905,-237.9127"/>
</g>
<!-- Node28&#45;&gt;Node29 -->
<g id="edge38" class="edge">
<title>Node28&#45;&gt;Node29</title>
<path fill="none" stroke="#191970" d="M1291.6964,-232.4561C1257.9206,-222.1765 1210.8458,-207.8494 1180.1301,-198.5011"/>
<polygon fill="#191970" stroke="#191970" points="1290.6956,-235.8099 1301.2814,-235.3733 1292.7338,-229.1132 1290.6956,-235.8099"/>
</g>
<!-- Node28&#45;&gt;Node30 -->
<g id="edge43" class="edge">
<title>Node28&#45;&gt;Node30</title>
<path fill="none" stroke="#191970" d="M1266.2991,-237.0547C1093.317,-216.4221 631.3814,-161.3243 459.5221,-140.8257"/>
<polygon fill="#191970" stroke="#191970" points="1265.944,-240.537 1276.2881,-238.2461 1266.7731,-233.5863 1265.944,-240.537"/>
</g>
<!-- Node29&#45;&gt;Node9 -->
<g id="edge39" class="edge">
<title>Node29&#45;&gt;Node9</title>
<path fill="none" stroke="#191970" d="M1117.723,-175.2473C1094.6584,-165.0771 1063.841,-151.4883 1043.4594,-142.5011"/>
<polygon fill="#191970" stroke="#191970" points="1116.518,-178.5411 1127.0801,-179.3733 1119.3423,-172.1361 1116.518,-178.5411"/>
</g>
<!-- Node29&#45;&gt;Node18 -->
<g id="edge40" class="edge">
<title>Node29&#45;&gt;Node18</title>
<path fill="none" stroke="#191970" d="M1153.4138,-169.4095C1159.259,-143.9723 1169.2362,-100.5527 1173.6721,-81.2484"/>
<polygon fill="#191970" stroke="#191970" points="1149.9502,-168.8546 1151.1217,-179.3845 1156.7724,-170.4223 1149.9502,-168.8546"/>
</g>
<!-- Node30&#45;&gt;Node15 -->
<g id="edge44" class="edge">
<title>Node30&#45;&gt;Node15</title>
<path fill="none" stroke="#191970" d="M317.9252,-128.3911C219.4008,-121.6269 57.9606,-107.5454 39.9122,-87 30.8192,-76.649 30.295,-65.866 39.9122,-56 67.2407,-27.9643 1409.7832,-21.3323 1448.9122,-20 1508.7016,-17.9642 1577.0198,-14.9836 1624.525,-12.8062"/>
<polygon fill="#191970" stroke="#191970" points="317.9264,-131.8991 328.1398,-129.0818 318.3987,-124.9151 317.9264,-131.8991"/>
</g>
<!-- Node30&#45;&gt;Node19 -->
<g id="edge45" class="edge">
<title>Node30&#45;&gt;Node19</title>
<path fill="none" stroke="#191970" d="M317.95,-129.3065C211.1193,-123.3225 27.1794,-109.8189 6.9122,-87 -2.2372,-76.6987 -2.3518,-66.1983 6.9122,-56 34.9054,-25.1835 310.233,-14.4516 429.8751,-11.2232"/>
<polygon fill="#191970" stroke="#191970" points="317.8622,-132.8069 328.0396,-129.8622 318.2472,-125.8175 317.8622,-132.8069"/>
</g>
<!-- Node30&#45;&gt;Node23 -->
<g id="edge46" class="edge">
<title>Node30&#45;&gt;Node23</title>
<path fill="none" stroke="#191970" d="M361.4136,-119.4955C333.4078,-107.858 293.6816,-91.3501 268.8748,-81.0419"/>
<polygon fill="#191970" stroke="#191970" points="360.2096,-122.7853 370.7872,-123.3906 362.8958,-116.3212 360.2096,-122.7853"/>
</g>
<!-- Node30&#45;&gt;Node25 -->
<g id="edge47" class="edge">
<title>Node30&#45;&gt;Node25</title>
<path fill="none" stroke="#191970" d="M393.9122,-113.2462C393.9122,-102.5519 393.9122,-89.814 393.9122,-81.2449"/>
<polygon fill="#191970" stroke="#191970" points="390.4123,-113.3906 393.9122,-123.3906 397.4123,-113.3907 390.4123,-113.3906"/>
</g>
<!-- Node30&#45;&gt;Node26 -->
<g id="edge48" class="edge">
<title>Node30&#45;&gt;Node26</title>
<path fill="none" stroke="#191970" d="M334.6681,-121.492C289.2241,-112.5185 224.9859,-99.5179 168.9122,-87 166.2343,-86.4022 163.4961,-85.7803 160.7323,-85.1439"/>
<polygon fill="#191970" stroke="#191970" points="334.1568,-124.9585 344.6447,-123.4569 335.5096,-118.0904 334.1568,-124.9585"/>
</g>
<!-- Node31&#45;&gt;Node8 -->
<g id="edge53" class="edge">
<title>Node31&#45;&gt;Node8</title>
<path fill="none" stroke="#191970" d="M1332.4295,-171.0132C1345.6774,-151.2359 1366.3674,-118.1217 1378.9122,-87 1388.2809,-63.7576 1393.9317,-34.6447 1396.4157,-19.7559"/>
<polygon fill="#191970" stroke="#191970" points="1329.4916,-169.1094 1326.7572,-179.3453 1335.278,-173.0487 1329.4916,-169.1094"/>
</g>
<!-- Node31&#45;&gt;Node9 -->
<g id="edge54" class="edge">
<title>Node31&#45;&gt;Node9</title>
<path fill="none" stroke="#191970" d="M1259.0637,-177.5654C1204.1035,-167.2373 1124.1581,-152.214 1072.5917,-142.5237"/>
<polygon fill="#191970" stroke="#191970" points="1258.5483,-181.0297 1269.0227,-179.4369 1259.8412,-174.1501 1258.5483,-181.0297"/>
</g>
<!-- Node31&#45;&gt;Node15 -->
<g id="edge55" class="edge">
<title>Node31&#45;&gt;Node15</title>
<path fill="none" stroke="#191970" d="M1354.3151,-175.6864C1400.6765,-157.3816 1485.4109,-122.639 1554.9122,-87 1597.6162,-65.1022 1645.5748,-34.9041 1669.1735,-19.6499"/>
<polygon fill="#191970" stroke="#191970" points="1352.7782,-172.5297 1344.7507,-179.4442 1355.338,-179.0449 1352.7782,-172.5297"/>
</g>
<!-- Node31&#45;&gt;Node24 -->
<g id="edge56" class="edge">
<title>Node31&#45;&gt;Node24</title>
<path fill="none" stroke="#191970" d="M1318.8943,-169.0662C1317.593,-143.5834 1315.3913,-100.4662 1314.41,-81.2484"/>
<polygon fill="#191970" stroke="#191970" points="1315.4157,-169.576 1319.4212,-179.3845 1322.4065,-169.219 1315.4157,-169.576"/>
</g>
<!-- Node33&#45;&gt;Node9 -->
<g id="edge68" class="edge">
<title>Node33&#45;&gt;Node9</title>
<path fill="none" stroke="#191970" d="M698.4979,-398.4416C677.7802,-386.0665 655.5922,-367.1426 666.9122,-347 735.9277,-224.1948 906.962,-164.0722 983.6455,-142.5744"/>
<polygon fill="#191970" stroke="#191970" points="697.0523,-401.6439 707.4855,-403.488 700.4795,-395.5402 697.0523,-401.6439"/>
</g>
<!-- Node34 -->
<g id="node31" class="node">
<title>Node34</title>
<g id="a_node31"><a xlink:href="fweelin__rcu_8cc.html" target="_top" xlink:title="src/fweelin_rcu.cc">
<polygon fill="#ffffff" stroke="#000000" points="675.9122,-347.5 675.9122,-366.5 779.9122,-366.5 779.9122,-347.5 675.9122,-347.5"/>
<text text-anchor="middle" x="727.9122" y="-354.5" font-family="Helvetica,sans-Serif" font-size="10.00" fill="#000000">src/fweelin_rcu.cc</text>
</a>
</g>
</g>
<!-- Node33&#45;&gt;Node34 -->
<g id="edge69" class="edge">
<title>Node33&#45;&gt;Node34</title>
<path fill="none" stroke="#191970" d="M727.9122,-393.1575C727.9122,-384.155 727.9122,-373.9199 727.9122,-366.6427"/>
<polygon fill="#191970" stroke="#191970" points="724.4123,-393.2455 727.9122,-403.2455 731.4123,-393.2456 724.4123,-393.2455"/>
</g>
</g>
</svg>
