<?xml version="1.0" encoding="UTF-8" standalone="no"?>
<!DOCTYPE svg PUBLIC "-//W3C//DTD SVG 1.1//EN"
 "http://www.w3.org/Graphics/SVG/1.1/DTD/svg11.dtd">
<!-- Generated by graphviz version 2.40.1 (20161225.0304)
 -->
<!-- Title: src/fweelin_browser.h Pages: 1 -->
<svg width="1867pt" height="207pt"
 viewBox="0.00 0.00 1866.50 207.00" xmlns="http://www.w3.org/2000/svg" xmlns:xlink="http://www.w3.org/1999/xlink">
<g id="graph0" class="graph" transform="scale(1 1) rotate(0) translate(4 203)">
<title>src/fweelin_browser.h</title>
<polygon fill="#ffffff" stroke="transparent" points="-4,4 -4,-203 1862.5,-203 1862.5,4 -4,4"/>
<!-- Node24 -->
<g id="node1" class="node">
<title>Node24</title>
<polygon fill="#bfbfbf" stroke="#000000" points="784,-179.5 784,-198.5 906,-198.5 906,-179.5 784,-179.5"/>
<text text-anchor="middle" x="845" y="-186.5" font-family="Helvetica,sans-Serif" font-size="10.00" fill="#000000">src/fweelin_browser.h</text>
</g>
<!-- Node25 -->
<g id="node2" class="node">
<title>Node25</title>
<g id="a_node2"><a xlink:href="fweelin__core_8h.html" target="_top" xlink:title="src/fweelin_core.h">
<polygon fill="#ffffff" stroke="#000000" points="752.5,-123.5 752.5,-142.5 857.5,-142.5 857.5,-123.5 752.5,-123.5"/>
<text text-anchor="middle" x="805" y="-130.5" font-family="Helvetica,sans-Serif" font-size="10.00" fill="#000000">src/fweelin_core.h</text>
</a>
</g>
</g>
<!-- Node24&#45;&gt;Node25 -->
<g id="edge1" class="edge">
<title>Node24&#45;&gt;Node25</title>
<path fill="none" stroke="#191970" d="M832.0864,-170.9209C825.3697,-161.5176 817.4283,-150.3997 811.8876,-142.6427"/>
<polygon fill="#191970" stroke="#191970" points="829.372,-173.1425 838.0325,-179.2455 835.0682,-169.0738 829.372,-173.1425"/>
</g>
<!-- Node35 -->
<g id="node12" class="node">
<title>Node35</title>
<g id="a_node12"><a xlink:href="fweelin__browser_8cc.html" target="_top" xlink:title="src/fweelin_browser.cc">
<polygon fill="#ffffff" stroke="#000000" points="1731.5,-62 1731.5,-81 1858.5,-81 1858.5,-62 1731.5,-62"/>
<text text-anchor="middle" x="1795" y="-69" font-family="Helvetica,sans-Serif" font-size="10.00" fill="#000000">src/fweelin_browser.cc</text>
</a>
</g>
</g>
<!-- Node24&#45;&gt;Node35 -->
<g id="edge26" class="edge">
<title>Node24&#45;&gt;Node35</title>
<path fill="none" stroke="#191970" d="M916.2221,-183.0722C1066.1286,-170.0807 1424.9652,-136.2742 1723,-87 1733.0921,-85.3315 1743.9079,-83.1921 1754.0095,-81.0391"/>
<polygon fill="#191970" stroke="#191970" points="915.8852,-179.5881 906.2231,-183.9347 916.4869,-186.5622 915.8852,-179.5881"/>
</g>
<!-- Node26 -->
<g id="node3" class="node">
<title>Node26</title>
<g id="a_node3"><a xlink:href="FweelinMac_8mm.html" target="_top" xlink:title="MacOSX/FweelinMac.mm">
<polygon fill="#ffffff" stroke="#000000" points="1574.5,-62 1574.5,-81 1713.5,-81 1713.5,-62 1574.5,-62"/>
<text text-anchor="middle" x="1644" y="-69" font-family="Helvetica,sans-Serif" font-size="10.00" fill="#000000">MacOSX/FweelinMac.mm</text>
</a>
</g>
</g>
<!-- Node25&#45;&gt;Node26 -->
<g id="edge2" class="edge">
<title>Node25&#45;&gt;Node26</title>
<path fill="none" stroke="#191970" d="M868.039,-132.0798C998.7193,-129.5374 1308.4617,-120.2163 1566,-87 1577.5021,-85.5165 1589.854,-83.3377 1601.2595,-81.0797"/>
<polygon fill="#191970" stroke="#191970" points="867.7531,-128.5845 857.8207,-132.2718 867.8847,-135.5833 867.7531,-128.5845"/>
</g>
<!-- Node27 -->
<g id="node4" class="node">
<title>Node27</title>
<g id="a_node4"><a xlink:href="fweelin_8cc.html" target="_top" xlink:title="src/fweelin.cc">
<polygon fill="#ffffff" stroke="#000000" points="140.5,-.5 140.5,-19.5 223.5,-19.5 223.5,-.5 140.5,-.5"/>
<text text-anchor="middle" x="182" y="-7.5" font-family="Helvetica,sans-Serif" font-size="10.00" fill="#000000">src/fweelin.cc</text>
</a>
</g>
</g>
<!-- Node25&#45;&gt;Node27 -->
<g id="edge3" class="edge">
<title>Node25&#45;&gt;Node27</title>
<path fill="none" stroke="#191970" d="M742.1148,-131.4994C629.4693,-128.0704 398.1167,-117.4504 324,-87 303.8393,-78.7171 304.5774,-67.3993 286,-56 261.2636,-40.8215 230.6438,-27.9071 209.0535,-19.6614"/>
<polygon fill="#191970" stroke="#191970" points="742.2104,-135.0036 752.3092,-131.7999 742.4167,-128.0067 742.2104,-135.0036"/>
</g>
<!-- Node28 -->
<g id="node5" class="node">
<title>Node28</title>
<g id="a_node5"><a xlink:href="fweelin__amixer_8h.html" target="_top" xlink:title="src/fweelin_amixer.h">
<polygon fill="#ffffff" stroke="#000000" points="159,-62 159,-81 277,-81 277,-62 159,-62"/>
<text text-anchor="middle" x="218" y="-69" font-family="Helvetica,sans-Serif" font-size="10.00" fill="#000000">src/fweelin_amixer.h</text>
</a>
</g>
</g>
<!-- Node25&#45;&gt;Node28 -->
<g id="edge4" class="edge">
<title>Node25&#45;&gt;Node28</title>
<path fill="none" stroke="#191970" d="M742.397,-130.1343C643.799,-124.8559 446.9336,-111.7989 282,-87 271.4941,-85.4204 260.2287,-83.2624 250.0641,-81.0586"/>
<polygon fill="#191970" stroke="#191970" points="742.3197,-133.635 752.4899,-130.6657 742.6878,-126.6447 742.3197,-133.635"/>
</g>
<!-- Node30 -->
<g id="node7" class="node">
<title>Node30</title>
<g id="a_node7"><a xlink:href="fweelin__core__dsp_8h.html" target="_top" xlink:title="src/fweelin_core_dsp.h">
<polygon fill="#ffffff" stroke="#000000" points="333,-62 333,-81 461,-81 461,-62 333,-62"/>
<text text-anchor="middle" x="397" y="-69" font-family="Helvetica,sans-Serif" font-size="10.00" fill="#000000">src/fweelin_core_dsp.h</text>
</a>
</g>
</g>
<!-- Node25&#45;&gt;Node30 -->
<g id="edge7" class="edge">
<title>Node25&#45;&gt;Node30</title>
<path fill="none" stroke="#191970" d="M742.194,-126.1506C673.8398,-117.9174 561.7558,-103.1743 466,-87 455.5175,-85.2294 444.2843,-83.1216 433.9452,-81.0397"/>
<polygon fill="#191970" stroke="#191970" points="742.0223,-129.6549 752.367,-127.3664 742.853,-122.7044 742.0223,-129.6549"/>
</g>
<!-- Node32 -->
<g id="node9" class="node">
<title>Node32</title>
<g id="a_node9"><a xlink:href="fweelin__config_8cc.html" target="_top" xlink:title="src/fweelin_config.cc">
<polygon fill="#ffffff" stroke="#000000" points="536,-.5 536,-19.5 654,-19.5 654,-.5 536,-.5"/>
<text text-anchor="middle" x="595" y="-7.5" font-family="Helvetica,sans-Serif" font-size="10.00" fill="#000000">src/fweelin_config.cc</text>
</a>
</g>
</g>
<!-- Node25&#45;&gt;Node32 -->
<g id="edge15" class="edge">
<title>Node25&#45;&gt;Node32</title>
<path fill="none" stroke="#191970" d="M742.3921,-127.6166C659.7952,-119.8707 523.0547,-104.5659 508,-87 499.0342,-76.5386 500.8902,-67.8016 508,-56 518.9327,-37.8527 539.6862,-26.4931 558.1816,-19.6034"/>
<polygon fill="#191970" stroke="#191970" points="742.1518,-131.1093 752.4318,-128.546 742.7971,-124.1391 742.1518,-131.1093"/>
</g>
<!-- Node34 -->
<g id="node11" class="node">
<title>Node34</title>
<g id="a_node11"><a xlink:href="fweelin__block_8cc.html" target="_top" xlink:title="src/fweelin_block.cc">
<polygon fill="#ffffff" stroke="#000000" points="517.5,-62 517.5,-81 632.5,-81 632.5,-62 517.5,-62"/>
<text text-anchor="middle" x="575" y="-69" font-family="Helvetica,sans-Serif" font-size="10.00" fill="#000000">src/fweelin_block.cc</text>
</a>
</g>
</g>
<!-- Node25&#45;&gt;Node34 -->
<g id="edge13" class="edge">
<title>Node25&#45;&gt;Node34</title>
<path fill="none" stroke="#191970" d="M759.5263,-120.8407C715.8781,-109.1696 650.8378,-91.7784 610.7689,-81.0643"/>
<polygon fill="#191970" stroke="#191970" points="758.7501,-124.2561 769.3149,-123.4581 760.5584,-117.4937 758.7501,-124.2561"/>
</g>
<!-- Node25&#45;&gt;Node35 -->
<g id="edge14" class="edge">
<title>Node25&#45;&gt;Node35</title>
<path fill="none" stroke="#191970" d="M867.6826,-131.1837C1046.531,-125.7909 1557.0396,-108.8752 1723,-87 1733.902,-85.563 1745.6047,-83.3423 1756.3398,-81.0265"/>
<polygon fill="#191970" stroke="#191970" points="867.5373,-127.6864 857.6468,-131.4847 867.7472,-134.6833 867.5373,-127.6864"/>
</g>
<!-- Node36 -->
<g id="node13" class="node">
<title>Node36</title>
<g id="a_node13"><a xlink:href="fweelin__core_8cc.html" target="_top" xlink:title="src/fweelin_core.cc">
<polygon fill="#ffffff" stroke="#000000" points="672,-.5 672,-19.5 782,-19.5 782,-.5 672,-.5"/>
<text text-anchor="middle" x="727" y="-7.5" font-family="Helvetica,sans-Serif" font-size="10.00" fill="#000000">src/fweelin_core.cc</text>
</a>
</g>
</g>
<!-- Node25&#45;&gt;Node36 -->
<g id="edge16" class="edge">
<title>Node25&#45;&gt;Node36</title>
<path fill="none" stroke="#191970" d="M754.757,-120.7879C724.073,-112.1993 689.0429,-99.9636 680,-87 663.6922,-63.6218 694.3274,-34.5662 713.401,-19.7218"/>
<polygon fill="#191970" stroke="#191970" points="753.9602,-124.1982 764.5282,-123.4445 755.7968,-117.4434 753.9602,-124.1982"/>
</g>
<!-- Node37 -->
<g id="node14" class="node">
<title>Node37</title>
<g id="a_node14"><a xlink:href="fweelin__looplibrary_8h.html" target="_top" xlink:title="src/fweelin_looplibrary.h">
<polygon fill="#ffffff" stroke="#000000" points="689.5,-62 689.5,-81 824.5,-81 824.5,-62 689.5,-62"/>
<text text-anchor="middle" x="757" y="-69" font-family="Helvetica,sans-Serif" font-size="10.00" fill="#000000">src/fweelin_looplibrary.h</text>
</a>
</g>
</g>
<!-- Node25&#45;&gt;Node37 -->
<g id="edge17" class="edge">
<title>Node25&#45;&gt;Node37</title>
<path fill="none" stroke="#191970" d="M791.1436,-115.2465C782.5044,-104.1775 771.7163,-90.3552 764.6057,-81.2449"/>
<polygon fill="#191970" stroke="#191970" points="788.5881,-117.6609 797.5,-123.3906 794.1064,-113.354 788.5881,-117.6609"/>
</g>
<!-- Node38 -->
<g id="node15" class="node">
<title>Node38</title>
<g id="a_node15"><a xlink:href="fweelin__osc_8cc.html" target="_top" xlink:title="src/fweelin_osc.cc">
<polygon fill="#ffffff" stroke="#000000" points="800.5,-.5 800.5,-19.5 905.5,-19.5 905.5,-.5 800.5,-.5"/>
<text text-anchor="middle" x="853" y="-7.5" font-family="Helvetica,sans-Serif" font-size="10.00" fill="#000000">src/fweelin_osc.cc</text>
</a>
</g>
</g>
<!-- Node25&#45;&gt;Node38 -->
<g id="edge21" class="edge">
<title>Node25&#45;&gt;Node38</title>
<path fill="none" stroke="#191970" d="M818.2919,-114.9216C823.8046,-106.7311 829.865,-96.7203 834,-87 843.8096,-63.9402 849.2744,-34.7503 851.6141,-19.8017"/>
<polygon fill="#191970" stroke="#191970" points="815.3051,-113.0851 812.4323,-123.283 821.0376,-117.1024 815.3051,-113.0851"/>
</g>
<!-- Node39 -->
<g id="node16" class="node">
<title>Node39</title>
<g id="a_node16"><a xlink:href="fweelin__midiio_8cc.html" target="_top" xlink:title="src/fweelin_midiio.cc">
<polygon fill="#ffffff" stroke="#000000" points="881.5,-62 881.5,-81 1000.5,-81 1000.5,-62 881.5,-62"/>
<text text-anchor="middle" x="941" y="-69" font-family="Helvetica,sans-Serif" font-size="10.00" fill="#000000">src/fweelin_midiio.cc</text>
</a>
</g>
</g>
<!-- Node25&#45;&gt;Node39 -->
<g id="edge20" class="edge">
<title>Node25&#45;&gt;Node39</title>
<path fill="none" stroke="#191970" d="M835.5402,-119.1895C861.2352,-107.5701 897.3028,-91.2601 919.8992,-81.0419"/>
<polygon fill="#191970" stroke="#191970" points="833.9195,-116.0811 826.25,-123.3906 836.8038,-122.4593 833.9195,-116.0811"/>
</g>
<!-- Node40 -->
<g id="node17" class="node">
<title>Node40</title>
<g id="a_node17"><a xlink:href="fweelin__paramset_8cc.html" target="_top" xlink:title="src/fweelin_paramset.cc">
<polygon fill="#ffffff" stroke="#000000" points="1018.5,-62 1018.5,-81 1153.5,-81 1153.5,-62 1018.5,-62"/>
<text text-anchor="middle" x="1086" y="-69" font-family="Helvetica,sans-Serif" font-size="10.00" fill="#000000">src/fweelin_paramset.cc</text>
</a>
</g>
</g>
<!-- Node25&#45;&gt;Node40 -->
<g id="edge22" class="edge">
<title>Node25&#45;&gt;Node40</title>
<path fill="none" stroke="#191970" d="M858.5488,-121.2802C911.8713,-109.61 992.7276,-91.9137 1042.2998,-81.0643"/>
<polygon fill="#191970" stroke="#191970" points="857.6184,-117.9009 848.5979,-123.4581 859.115,-124.7391 857.6184,-117.9009"/>
</g>
<!-- Node41 -->
<g id="node18" class="node">
<title>Node41</title>
<g id="a_node18"><a xlink:href="fweelin__sdlio_8cc.html" target="_top" xlink:title="src/fweelin_sdlio.cc">
<polygon fill="#ffffff" stroke="#000000" points="1172,-62 1172,-81 1284,-81 1284,-62 1172,-62"/>
<text text-anchor="middle" x="1228" y="-69" font-family="Helvetica,sans-Serif" font-size="10.00" fill="#000000">src/fweelin_sdlio.cc</text>
</a>
</g>
</g>
<!-- Node25&#45;&gt;Node41 -->
<g id="edge23" class="edge">
<title>Node25&#45;&gt;Node41</title>
<path fill="none" stroke="#191970" d="M867.9669,-126.9564C939.7162,-119.5964 1060.332,-105.7822 1163,-87 1172.1294,-85.3299 1181.9006,-83.1899 1191.0209,-81.0368"/>
<polygon fill="#191970" stroke="#191970" points="867.3383,-123.5022 857.7434,-127.9953 868.0461,-130.4663 867.3383,-123.5022"/>
</g>
<!-- Node42 -->
<g id="node19" class="node">
<title>Node42</title>
<g id="a_node19"><a xlink:href="fweelin__videoio_8cc.html" target="_top" xlink:title="src/fweelin_videoio.cc">
<polygon fill="#ffffff" stroke="#000000" points="1302.5,-62 1302.5,-81 1427.5,-81 1427.5,-62 1302.5,-62"/>
<text text-anchor="middle" x="1365" y="-69" font-family="Helvetica,sans-Serif" font-size="10.00" fill="#000000">src/fweelin_videoio.cc</text>
</a>
</g>
</g>
<!-- Node25&#45;&gt;Node42 -->
<g id="edge24" class="edge">
<title>Node25&#45;&gt;Node42</title>
<path fill="none" stroke="#191970" d="M867.7134,-129.4643C960.8874,-123.675 1141.2065,-110.4094 1293,-87 1303.3623,-85.4019 1314.4735,-83.2373 1324.7906,-81.0331"/>
<polygon fill="#191970" stroke="#191970" points="867.3753,-125.9783 857.6083,-130.084 867.8038,-132.9652 867.3753,-125.9783"/>
</g>
<!-- Node43 -->
<g id="node20" class="node">
<title>Node43</title>
<g id="a_node20"><a xlink:href="fweelin__videoio__displays_8cc.html" target="_top" xlink:title="src/fweelin_videoio\l_displays.cc">
<polygon fill="#ffffff" stroke="#000000" points="1445.5,-56.5 1445.5,-86.5 1556.5,-86.5 1556.5,-56.5 1445.5,-56.5"/>
<text text-anchor="start" x="1453.5" y="-74.5" font-family="Helvetica,sans-Serif" font-size="10.00" fill="#000000">src/fweelin_videoio</text>
<text text-anchor="middle" x="1501" y="-63.5" font-family="Helvetica,sans-Serif" font-size="10.00" fill="#000000">_displays.cc</text>
</a>
</g>
</g>
<!-- Node25&#45;&gt;Node43 -->
<g id="edge25" class="edge">
<title>Node25&#45;&gt;Node43</title>
<path fill="none" stroke="#191970" d="M868.0631,-131.8471C982.2107,-128.9986 1230.4143,-119.3082 1437,-87 1439.7108,-86.5761 1442.4758,-86.0954 1445.2611,-85.5723"/>
<polygon fill="#191970" stroke="#191970" points="867.6828,-128.3551 857.7698,-132.0943 867.851,-135.3531 867.6828,-128.3551"/>
</g>
<!-- Node28&#45;&gt;Node25 -->
<g id="edge5" class="edge">
<title>Node28&#45;&gt;Node25</title>
<path fill="none" stroke="#191970" d="M277.4102,-83.0452C285.023,-84.5237 292.6951,-85.9017 300,-87 464.3472,-111.7107 660.3996,-124.7629 752.4933,-130.0777"/>
<polygon fill="#191970" stroke="#191970" points="277.9646,-79.5868 267.4725,-81.0586 276.5924,-86.451 277.9646,-79.5868"/>
</g>
<!-- Node29 -->
<g id="node6" class="node">
<title>Node29</title>
<g id="a_node6"><a xlink:href="fweelin__amixer_8cc.html" target="_top" xlink:title="src/fweelin_amixer.cc">
<polygon fill="#ffffff" stroke="#000000" points="0,-.5 0,-19.5 122,-19.5 122,-.5 0,-.5"/>
<text text-anchor="middle" x="61" y="-7.5" font-family="Helvetica,sans-Serif" font-size="10.00" fill="#000000">src/fweelin_amixer.cc</text>
</a>
</g>
</g>
<!-- Node28&#45;&gt;Node29 -->
<g id="edge6" class="edge">
<title>Node28&#45;&gt;Node29</title>
<path fill="none" stroke="#191970" d="M183.9137,-58.1477C154.1847,-46.5023 111.7893,-29.8952 85.359,-19.5419"/>
<polygon fill="#191970" stroke="#191970" points="182.881,-61.5021 193.4688,-61.8906 185.4342,-54.9843 182.881,-61.5021"/>
</g>
<!-- Node30&#45;&gt;Node25 -->
<g id="edge8" class="edge">
<title>Node30&#45;&gt;Node25</title>
<path fill="none" stroke="#191970" d="M461.4336,-82.9397C469.0598,-84.3747 476.7114,-85.7689 484,-87 578.3973,-102.9448 688.6627,-117.4988 752.3949,-125.7963"/>
<polygon fill="#191970" stroke="#191970" points="461.9336,-79.472 451.4554,-81.0397 460.6242,-86.3485 461.9336,-79.472"/>
</g>
<!-- Node30&#45;&gt;Node27 -->
<g id="edge9" class="edge">
<title>Node30&#45;&gt;Node27</title>
<path fill="none" stroke="#191970" d="M353.7305,-59.1229C312.9086,-47.4459 252.575,-30.1877 215.3579,-19.5419"/>
<polygon fill="#191970" stroke="#191970" points="352.8293,-62.5054 363.4063,-61.8906 354.7544,-55.7753 352.8293,-62.5054"/>
</g>
<!-- Node31 -->
<g id="node8" class="node">
<title>Node31</title>
<g id="a_node8"><a xlink:href="fweelin__audioio_8cc.html" target="_top" xlink:title="src/fweelin_audioio.cc">
<polygon fill="#ffffff" stroke="#000000" points="392.5,-.5 392.5,-19.5 517.5,-19.5 517.5,-.5 392.5,-.5"/>
<text text-anchor="middle" x="455" y="-7.5" font-family="Helvetica,sans-Serif" font-size="10.00" fill="#000000">src/fweelin_audioio.cc</text>
</a>
</g>
</g>
<!-- Node30&#45;&gt;Node31 -->
<g id="edge10" class="edge">
<title>Node30&#45;&gt;Node31</title>
<path fill="none" stroke="#191970" d="M413.1261,-54.4007C423.6642,-43.2268 437.0477,-29.0356 445.8097,-19.7449"/>
<polygon fill="#191970" stroke="#191970" points="410.3773,-52.2142 406.0625,-61.8906 415.4698,-57.0169 410.3773,-52.2142"/>
</g>
<!-- Node30&#45;&gt;Node32 -->
<g id="edge11" class="edge">
<title>Node30&#45;&gt;Node32</title>
<path fill="none" stroke="#191970" d="M437.5657,-58.9001C475.1463,-47.2273 530.2227,-30.1202 564.2797,-19.5419"/>
<polygon fill="#191970" stroke="#191970" points="436.4492,-55.5818 427.9375,-61.8906 438.5257,-62.2668 436.4492,-55.5818"/>
</g>
<!-- Node33 -->
<g id="node10" class="node">
<title>Node33</title>
<g id="a_node10"><a xlink:href="fweelin__core__dsp_8cc.html" target="_top" xlink:title="src/fweelin_core_dsp.cc">
<polygon fill="#ffffff" stroke="#000000" points="242,-.5 242,-19.5 374,-19.5 374,-.5 242,-.5"/>
<text text-anchor="middle" x="308" y="-7.5" font-family="Helvetica,sans-Serif" font-size="10.00" fill="#000000">src/fweelin_core_dsp.cc</text>
</a>
</g>
</g>
<!-- Node30&#45;&gt;Node33 -->
<g id="edge12" class="edge">
<title>Node30&#45;&gt;Node33</title>
<path fill="none" stroke="#191970" d="M374.5236,-55.9685C357.9322,-44.5037 335.8794,-29.265 321.8086,-19.5419"/>
<polygon fill="#191970" stroke="#191970" points="372.8771,-59.0851 383.0938,-61.8906 376.8565,-53.3263 372.8771,-59.0851"/>
</g>
<!-- Node37&#45;&gt;Node36 -->
<g id="edge18" class="edge">
<title>Node37&#45;&gt;Node36</title>
<path fill="none" stroke="#191970" d="M747.8551,-52.753C742.5417,-41.8606 736.0657,-28.5846 731.7536,-19.7449"/>
<polygon fill="#191970" stroke="#191970" points="744.7825,-54.4374 752.3125,-61.8906 751.0739,-51.3684 744.7825,-54.4374"/>
</g>
<!-- Node37&#45;&gt;Node38 -->
<g id="edge19" class="edge">
<title>Node37&#45;&gt;Node38</title>
<path fill="none" stroke="#191970" d="M780.7486,-56.286C798.6993,-44.7864 822.7873,-29.355 838.1053,-19.5419"/>
<polygon fill="#191970" stroke="#191970" points="778.5323,-53.5492 772,-61.8906 782.3083,-59.4434 778.5323,-53.5492"/>
</g>
</g>
</svg>
