<?xml version="1.0" encoding="UTF-8" standalone="no"?>
<!DOCTYPE svg PUBLIC "-//W3C//DTD SVG 1.1//EN"
 "http://www.w3.org/Graphics/SVG/1.1/DTD/svg11.dtd">
<!-- Generated by graphviz version 2.40.1 (20161225.0304)
 -->
<!-- Title: src/fweelin_logo.h Pages: 1 -->
<svg width="262pt" height="95pt"
 viewBox="0.00 0.00 262.00 95.00" xmlns="http://www.w3.org/2000/svg" xmlns:xlink="http://www.w3.org/1999/xlink">
<g id="graph0" class="graph" transform="scale(1 1) rotate(0) translate(4 91)">
<title>src/fweelin_logo.h</title>
<polygon fill="#ffffff" stroke="transparent" points="-4,4 -4,-91 258,-91 258,4 -4,4"/>
<!-- Node1 -->
<g id="node1" class="node">
<title>Node1</title>
<polygon fill="#bfbfbf" stroke="#000000" points="78,-67.5 78,-86.5 183,-86.5 183,-67.5 78,-67.5"/>
<text text-anchor="middle" x="130.5" y="-74.5" font-family="Helvetica,sans-Serif" font-size="10.00" fill="#000000">src/fweelin_logo.h</text>
</g>
<!-- Node2 -->
<g id="node2" class="node">
<title>Node2</title>
<g id="a_node2"><a xlink:href="fweelin__videoio_8cc.html" target="_top" xlink:title="src/fweelin_videoio.cc">
<polygon fill="#ffffff" stroke="#000000" points="0,-6 0,-25 125,-25 125,-6 0,-6"/>
<text text-anchor="middle" x="62.5" y="-13" font-family="Helvetica,sans-Serif" font-size="10.00" fill="#000000">src/fweelin_videoio.cc</text>
</a>
</g>
</g>
<!-- Node1&#45;&gt;Node2 -->
<g id="edge1" class="edge">
<title>Node1&#45;&gt;Node2</title>
<path fill="none" stroke="#191970" d="M112.3094,-60.5482C99.85,-49.2798 83.747,-34.716 73.2748,-25.2449"/>
<polygon fill="#191970" stroke="#191970" points="110.1106,-63.2787 119.875,-67.3906 114.806,-58.0871 110.1106,-63.2787"/>
</g>
<!-- Node3 -->
<g id="node3" class="node">
<title>Node3</title>
<g id="a_node3"><a xlink:href="fweelin__videoio__displays_8cc.html" target="_top" xlink:title="src/fweelin_videoio\l_displays.cc">
<polygon fill="#ffffff" stroke="#000000" points="143,-.5 143,-30.5 254,-30.5 254,-.5 143,-.5"/>
<text text-anchor="start" x="151" y="-18.5" font-family="Helvetica,sans-Serif" font-size="10.00" fill="#000000">src/fweelin_videoio</text>
<text text-anchor="middle" x="198.5" y="-7.5" font-family="Helvetica,sans-Serif" font-size="10.00" fill="#000000">_displays.cc</text>
</a>
</g>
</g>
<!-- Node1&#45;&gt;Node3 -->
<g id="edge2" class="edge">
<title>Node1&#45;&gt;Node3</title>
<path fill="none" stroke="#191970" d="M148.7577,-60.4875C159.0612,-51.1689 171.84,-39.6116 181.8653,-30.5446"/>
<polygon fill="#191970" stroke="#191970" points="146.194,-58.0871 141.125,-67.3906 150.8894,-63.2787 146.194,-58.0871"/>
</g>
</g>
</svg>
