<?xml version="1.0" encoding="UTF-8" standalone="no"?>
<!DOCTYPE svg PUBLIC "-//W3C//DTD SVG 1.1//EN"
 "http://www.w3.org/Graphics/SVG/1.1/DTD/svg11.dtd">
<!-- Generated by graphviz version 2.40.1 (20161225.0304)
 -->
<!-- Title: src/fweelin_block.h Pages: 1 -->
<svg width="2128pt" height="431pt"
 viewBox="0.00 0.00 2128.42 431.00" xmlns="http://www.w3.org/2000/svg" xmlns:xlink="http://www.w3.org/1999/xlink">
<g id="graph0" class="graph" transform="scale(1 1) rotate(0) translate(4 427)">
<title>src/fweelin_block.h</title>
<polygon fill="#ffffff" stroke="transparent" points="-4,4 -4,-427 2124.4153,-427 2124.4153,4 -4,4"/>
<!-- Node15 -->
<g id="node1" class="node">
<title>Node15</title>
<polygon fill="#bfbfbf" stroke="#000000" points="1510.9153,-403.5 1510.9153,-422.5 1620.9153,-422.5 1620.9153,-403.5 1510.9153,-403.5"/>
<text text-anchor="middle" x="1565.9153" y="-410.5" font-family="Helvetica,sans-Serif" font-size="10.00" fill="#000000">src/fweelin_block.h</text>
</g>
<!-- Node16 -->
<g id="node2" class="node">
<title>Node16</title>
<g id="a_node2"><a xlink:href="fweelin__event_8h.html" target="_top" xlink:title="src/fweelin_event.h">
<polygon fill="#ffffff" stroke="#000000" points="1295.9153,-347.5 1295.9153,-366.5 1407.9153,-366.5 1407.9153,-347.5 1295.9153,-347.5"/>
<text text-anchor="middle" x="1351.9153" y="-354.5" font-family="Helvetica,sans-Serif" font-size="10.00" fill="#000000">src/fweelin_event.h</text>
</a>
</g>
</g>
<!-- Node15&#45;&gt;Node16 -->
<g id="edge1" class="edge">
<title>Node15&#45;&gt;Node16</title>
<path fill="none" stroke="#191970" d="M1514.3313,-400.982C1473.3666,-390.6781 1417.547,-376.0331 1383.0876,-366.5237"/>
<polygon fill="#191970" stroke="#191970" points="1513.5904,-404.4045 1524.141,-403.4369 1515.2899,-397.6139 1513.5904,-404.4045"/>
</g>
<!-- Node19 -->
<g id="node5" class="node">
<title>Node19</title>
<g id="a_node5"><a xlink:href="fweelin__core_8h.html" target="_top" xlink:title="src/fweelin_core.h">
<polygon fill="#ffffff" stroke="#000000" points="964.4153,-123.5 964.4153,-142.5 1069.4153,-142.5 1069.4153,-123.5 964.4153,-123.5"/>
<text text-anchor="middle" x="1016.9153" y="-130.5" font-family="Helvetica,sans-Serif" font-size="10.00" fill="#000000">src/fweelin_core.h</text>
</a>
</g>
</g>
<!-- Node15&#45;&gt;Node19 -->
<g id="edge63" class="edge">
<title>Node15&#45;&gt;Node19</title>
<path fill="none" stroke="#191970" d="M1500.7469,-410.4105C1249.3962,-400.0003 356.9153,-358.9556 356.9153,-301 356.9153,-301 356.9153,-301 356.9153,-245 356.9153,-183.5116 807.9375,-147.1461 964.2978,-136.3865"/>
<polygon fill="#191970" stroke="#191970" points="1500.6898,-413.911 1510.8255,-410.8257 1500.978,-406.917 1500.6898,-413.911"/>
</g>
<!-- Node23 -->
<g id="node9" class="node">
<title>Node23</title>
<g id="a_node9"><a xlink:href="fweelin__core__dsp_8h.html" target="_top" xlink:title="src/fweelin_core_dsp.h">
<polygon fill="#ffffff" stroke="#000000" points="1855.9153,-62 1855.9153,-81 1983.9153,-81 1983.9153,-62 1855.9153,-62"/>
<text text-anchor="middle" x="1919.9153" y="-69" font-family="Helvetica,sans-Serif" font-size="10.00" fill="#000000">src/fweelin_core_dsp.h</text>
</a>
</g>
</g>
<!-- Node15&#45;&gt;Node23 -->
<g id="edge62" class="edge">
<title>Node15&#45;&gt;Node23</title>
<path fill="none" stroke="#191970" d="M1631.5675,-408.8265C1748.3213,-399.5897 1979.9153,-372.2835 1979.9153,-301 1979.9153,-301 1979.9153,-301 1979.9153,-189 1979.9153,-144.5643 1945.4585,-99.9986 1928.7685,-81.0184"/>
<polygon fill="#191970" stroke="#191970" points="1631.0219,-405.358 1621.3196,-409.6141 1631.5584,-412.3374 1631.0219,-405.358"/>
</g>
<!-- Node27 -->
<g id="node13" class="node">
<title>Node27</title>
<g id="a_node13"><a xlink:href="fweelin__block_8cc.html" target="_top" xlink:title="src/fweelin_block.cc">
<polygon fill="#ffffff" stroke="#000000" points="1646.4153,-62 1646.4153,-81 1761.4153,-81 1761.4153,-62 1646.4153,-62"/>
<text text-anchor="middle" x="1703.9153" y="-69" font-family="Helvetica,sans-Serif" font-size="10.00" fill="#000000">src/fweelin_block.cc</text>
</a>
</g>
</g>
<!-- Node15&#45;&gt;Node27 -->
<g id="edge65" class="edge">
<title>Node15&#45;&gt;Node27</title>
<path fill="none" stroke="#191970" d="M1630.9575,-407.7645C1697.0972,-398.4646 1789.9153,-372.6494 1789.9153,-301 1789.9153,-301 1789.9153,-301 1789.9153,-189 1789.9153,-140.7162 1742.0429,-99.0738 1717.7327,-81.0401"/>
<polygon fill="#191970" stroke="#191970" points="1630.4589,-404.2999 1620.9988,-409.0702 1631.3689,-411.2405 1630.4589,-404.2999"/>
</g>
<!-- Node38 -->
<g id="node24" class="node">
<title>Node38</title>
<g id="a_node24"><a xlink:href="fweelin__config_8h.html" target="_top" xlink:title="src/fweelin_config.h">
<polygon fill="#ffffff" stroke="#000000" points="1342.4153,-235.5 1342.4153,-254.5 1455.4153,-254.5 1455.4153,-235.5 1342.4153,-235.5"/>
<text text-anchor="middle" x="1398.9153" y="-242.5" font-family="Helvetica,sans-Serif" font-size="10.00" fill="#000000">src/fweelin_config.h</text>
</a>
</g>
</g>
<!-- Node15&#45;&gt;Node38 -->
<g id="edge64" class="edge">
<title>Node15&#45;&gt;Node38</title>
<path fill="none" stroke="#191970" d="M1560.7336,-393.4389C1552.8077,-366.9775 1535.3028,-319.7833 1504.9153,-291 1486.0543,-273.1348 1459.1506,-261.573 1437.1676,-254.509"/>
<polygon fill="#191970" stroke="#191970" points="1557.461,-394.7282 1563.5535,-403.396 1564.1961,-392.8207 1557.461,-394.7282"/>
</g>
<!-- Node16&#45;&gt;Node15 -->
<g id="edge31" class="edge">
<title>Node16&#45;&gt;Node15</title>
<path fill="none" stroke="#191970" d="M1403.2191,-368.9475C1444.0617,-379.2179 1499.8023,-393.8396 1534.3694,-403.3733"/>
<polygon fill="#191970" stroke="#191970" points="1403.9909,-365.5328 1393.4404,-366.5011 1402.292,-372.3236 1403.9909,-365.5328"/>
</g>
<!-- Node17 -->
<g id="node3" class="node">
<title>Node17</title>
<g id="a_node3"><a xlink:href="fweelin__midiio_8h.html" target="_top" xlink:title="src/fweelin_midiio.h">
<polygon fill="#ffffff" stroke="#000000" points="1266.4153,-179.5 1266.4153,-198.5 1381.4153,-198.5 1381.4153,-179.5 1266.4153,-179.5"/>
<text text-anchor="middle" x="1323.9153" y="-186.5" font-family="Helvetica,sans-Serif" font-size="10.00" fill="#000000">src/fweelin_midiio.h</text>
</a>
</g>
</g>
<!-- Node16&#45;&gt;Node17 -->
<g id="edge2" class="edge">
<title>Node16&#45;&gt;Node17</title>
<path fill="none" stroke="#191970" d="M1348.3234,-337.4699C1344.585,-316.9571 1338.6289,-283.7469 1333.9153,-255 1330.6524,-235.1007 1327.2053,-211.7616 1325.3317,-198.8517"/>
<polygon fill="#191970" stroke="#191970" points="1344.9069,-338.2443 1350.1503,-347.4507 1351.7926,-336.9839 1344.9069,-338.2443"/>
</g>
<!-- Node16&#45;&gt;Node19 -->
<g id="edge57" class="edge">
<title>Node16&#45;&gt;Node19</title>
<path fill="none" stroke="#191970" d="M1319.8113,-343.3463C1265.4254,-319.273 1153.2617,-265.4791 1072.9153,-199 1052.3067,-181.9483 1033.2832,-156.7008 1023.604,-142.8986"/>
<polygon fill="#191970" stroke="#191970" points="1318.7092,-346.6846 1329.2732,-347.4918 1321.5183,-340.273 1318.7092,-346.6846"/>
</g>
<!-- Node16&#45;&gt;Node23 -->
<g id="edge56" class="edge">
<title>Node16&#45;&gt;Node23</title>
<path fill="none" stroke="#191970" d="M1412.9598,-345.2391C1446.74,-337.6337 1489.0241,-326.2792 1524.9153,-311 1685.7757,-242.5202 1859.1084,-116.9945 1907.0222,-81.238"/>
<polygon fill="#191970" stroke="#191970" points="1411.7816,-341.9144 1402.7658,-347.4792 1413.284,-348.7513 1411.7816,-341.9144"/>
</g>
<!-- Node37 -->
<g id="node23" class="node">
<title>Node37</title>
<g id="a_node23"><a xlink:href="fweelin__videoio_8h.html" target="_top" xlink:title="src/fweelin_videoio.h">
<polygon fill="#ffffff" stroke="#000000" points="758.9153,-291.5 758.9153,-310.5 878.9153,-310.5 878.9153,-291.5 758.9153,-291.5"/>
<text text-anchor="middle" x="818.9153" y="-298.5" font-family="Helvetica,sans-Serif" font-size="10.00" fill="#000000">src/fweelin_videoio.h</text>
</a>
</g>
</g>
<!-- Node16&#45;&gt;Node37 -->
<g id="edge32" class="edge">
<title>Node16&#45;&gt;Node37</title>
<path fill="none" stroke="#191970" d="M1285.7769,-350.0511C1181.3108,-339.0753 979.6736,-317.8902 879.0655,-307.3197"/>
<polygon fill="#191970" stroke="#191970" points="1285.5713,-353.5487 1295.8824,-351.1129 1286.3028,-346.587 1285.5713,-353.5487"/>
</g>
<!-- Node16&#45;&gt;Node38 -->
<g id="edge58" class="edge">
<title>Node16&#45;&gt;Node38</title>
<path fill="none" stroke="#191970" d="M1356.1245,-337.3175C1359.3346,-323.9389 1364.3268,-306.013 1370.9153,-291 1376.7012,-277.8159 1385.6585,-263.8475 1391.8778,-254.8095"/>
<polygon fill="#191970" stroke="#191970" points="1352.654,-336.7953 1353.8514,-347.3223 1359.4801,-338.3463 1352.654,-336.7953"/>
</g>
<!-- Node39 -->
<g id="node25" class="node">
<title>Node39</title>
<g id="a_node25"><a xlink:href="fweelin__browser_8h.html" target="_top" xlink:title="src/fweelin_browser.h">
<polygon fill="#ffffff" stroke="#000000" points="1123.9153,-179.5 1123.9153,-198.5 1245.9153,-198.5 1245.9153,-179.5 1123.9153,-179.5"/>
<text text-anchor="middle" x="1184.9153" y="-186.5" font-family="Helvetica,sans-Serif" font-size="10.00" fill="#000000">src/fweelin_browser.h</text>
</a>
</g>
</g>
<!-- Node16&#45;&gt;Node39 -->
<g id="edge59" class="edge">
<title>Node16&#45;&gt;Node39</title>
<path fill="none" stroke="#191970" d="M1335.008,-339.9915C1300.3407,-305.1166 1222.1575,-226.4652 1194.6847,-198.8279"/>
<polygon fill="#191970" stroke="#191970" points="1332.9259,-342.8616 1342.4582,-347.4862 1337.8905,-337.9266 1332.9259,-342.8616"/>
</g>
<!-- Node40 -->
<g id="node26" class="node">
<title>Node40</title>
<g id="a_node26"><a xlink:href="fweelin__paramset_8h.html" target="_top" xlink:title="src/fweelin_paramset.h">
<polygon fill="#ffffff" stroke="#000000" points="329.4153,-123.5 329.4153,-142.5 460.4153,-142.5 460.4153,-123.5 329.4153,-123.5"/>
<text text-anchor="middle" x="394.9153" y="-130.5" font-family="Helvetica,sans-Serif" font-size="10.00" fill="#000000">src/fweelin_paramset.h</text>
</a>
</g>
</g>
<!-- Node16&#45;&gt;Node40 -->
<g id="edge60" class="edge">
<title>Node16&#45;&gt;Node40</title>
<path fill="none" stroke="#191970" d="M1285.3834,-354.8995C1150.5682,-350.1554 849.5141,-336.948 749.9153,-311 692.5714,-296.0605 682.0916,-281.1494 628.9153,-255 547.3062,-214.8688 451.567,-163.6222 412.6763,-142.6258"/>
<polygon fill="#191970" stroke="#191970" points="1285.4596,-358.4042 1295.575,-355.2532 1285.7025,-351.4084 1285.4596,-358.4042"/>
</g>
<!-- Node41 -->
<g id="node27" class="node">
<title>Node41</title>
<g id="a_node27"><a xlink:href="fweelin__sdlio_8h.html" target="_top" xlink:title="src/fweelin_sdlio.h">
<polygon fill="#ffffff" stroke="#000000" points="1470.4153,-179.5 1470.4153,-198.5 1577.4153,-198.5 1577.4153,-179.5 1470.4153,-179.5"/>
<text text-anchor="middle" x="1523.9153" y="-186.5" font-family="Helvetica,sans-Serif" font-size="10.00" fill="#000000">src/fweelin_sdlio.h</text>
</a>
</g>
</g>
<!-- Node16&#45;&gt;Node41 -->
<g id="edge51" class="edge">
<title>Node16&#45;&gt;Node41</title>
<path fill="none" stroke="#191970" d="M1414.4225,-345.2308C1451.1341,-337.0248 1492.6753,-325.0512 1504.9153,-311 1533.3567,-278.3501 1528.7438,-221.2662 1525.5322,-198.6367"/>
<polygon fill="#191970" stroke="#191970" points="1413.2546,-341.9027 1404.2244,-347.444 1414.7392,-348.7434 1413.2546,-341.9027"/>
</g>
<!-- Node42 -->
<g id="node28" class="node">
<title>Node42</title>
<g id="a_node28"><a xlink:href="fweelin__event_8cc.html" target="_top" xlink:title="src/fweelin_event.cc">
<polygon fill="#ffffff" stroke="#000000" points="1379.9153,-291.5 1379.9153,-310.5 1495.9153,-310.5 1495.9153,-291.5 1379.9153,-291.5"/>
<text text-anchor="middle" x="1437.9153" y="-298.5" font-family="Helvetica,sans-Serif" font-size="10.00" fill="#000000">src/fweelin_event.cc</text>
</a>
</g>
</g>
<!-- Node16&#45;&gt;Node42 -->
<g id="edge61" class="edge">
<title>Node16&#45;&gt;Node42</title>
<path fill="none" stroke="#191970" d="M1375.3058,-341.769C1390.5452,-331.8456 1409.9662,-319.1994 1423.1069,-310.6427"/>
<polygon fill="#191970" stroke="#191970" points="1373.3655,-338.8558 1366.8954,-347.2455 1377.1852,-344.7218 1373.3655,-338.8558"/>
</g>
<!-- Node18 -->
<g id="node4" class="node">
<title>Node18</title>
<g id="a_node4"><a xlink:href="fweelin_8cc.html" target="_top" xlink:title="src/fweelin.cc">
<polygon fill="#ffffff" stroke="#000000" points="1370.4153,-.5 1370.4153,-19.5 1453.4153,-19.5 1453.4153,-.5 1370.4153,-.5"/>
<text text-anchor="middle" x="1411.9153" y="-7.5" font-family="Helvetica,sans-Serif" font-size="10.00" fill="#000000">src/fweelin.cc</text>
</a>
</g>
</g>
<!-- Node17&#45;&gt;Node18 -->
<g id="edge3" class="edge">
<title>Node17&#45;&gt;Node18</title>
<path fill="none" stroke="#191970" d="M1338.7546,-171.3256C1354.39,-151.8481 1378.6802,-119.019 1392.9153,-87 1403.0956,-64.1014 1408.404,-34.8435 1410.6223,-19.8421"/>
<polygon fill="#191970" stroke="#191970" points="1335.8675,-169.3273 1332.247,-179.2844 1341.2866,-173.7583 1335.8675,-169.3273"/>
</g>
<!-- Node17&#45;&gt;Node19 -->
<g id="edge4" class="edge">
<title>Node17&#45;&gt;Node19</title>
<path fill="none" stroke="#191970" d="M1261.5812,-177.6296C1204.9509,-167.2997 1122.3594,-152.2341 1069.1254,-142.5237"/>
<polygon fill="#191970" stroke="#191970" points="1261.0232,-181.0855 1271.4889,-179.4369 1262.2794,-174.1991 1261.0232,-181.0855"/>
</g>
<!-- Node25 -->
<g id="node11" class="node">
<title>Node25</title>
<g id="a_node11"><a xlink:href="fweelin__config_8cc.html" target="_top" xlink:title="src/fweelin_config.cc">
<polygon fill="#ffffff" stroke="#000000" points="1633.9153,-.5 1633.9153,-19.5 1751.9153,-19.5 1751.9153,-.5 1633.9153,-.5"/>
<text text-anchor="middle" x="1692.9153" y="-7.5" font-family="Helvetica,sans-Serif" font-size="10.00" fill="#000000">src/fweelin_config.cc</text>
</a>
</g>
</g>
<!-- Node17&#45;&gt;Node25 -->
<g id="edge29" class="edge">
<title>Node17&#45;&gt;Node25</title>
<path fill="none" stroke="#191970" d="M1358.276,-175.741C1404.9203,-157.3985 1490.5342,-122.5077 1560.9153,-87 1604.4993,-65.0116 1653.6227,-34.8532 1677.807,-19.6284"/>
<polygon fill="#191970" stroke="#191970" points="1356.9697,-172.4936 1348.9336,-179.3981 1359.5214,-179.012 1356.9697,-172.4936"/>
</g>
<!-- Node32 -->
<g id="node18" class="node">
<title>Node32</title>
<g id="a_node18"><a xlink:href="fweelin__midiio_8cc.html" target="_top" xlink:title="src/fweelin_midiio.cc">
<polygon fill="#ffffff" stroke="#000000" points="1264.4153,-62 1264.4153,-81 1383.4153,-81 1383.4153,-62 1264.4153,-62"/>
<text text-anchor="middle" x="1323.9153" y="-69" font-family="Helvetica,sans-Serif" font-size="10.00" fill="#000000">src/fweelin_midiio.cc</text>
</a>
</g>
</g>
<!-- Node17&#45;&gt;Node32 -->
<g id="edge30" class="edge">
<title>Node17&#45;&gt;Node32</title>
<path fill="none" stroke="#191970" d="M1323.9153,-169.0662C1323.9153,-143.5834 1323.9153,-100.4662 1323.9153,-81.2484"/>
<polygon fill="#191970" stroke="#191970" points="1320.4154,-169.3844 1323.9153,-179.3845 1327.4154,-169.3845 1320.4154,-169.3844"/>
</g>
<!-- Node19&#45;&gt;Node18 -->
<g id="edge6" class="edge">
<title>Node19&#45;&gt;Node18</title>
<path fill="none" stroke="#191970" d="M954.0831,-129.7258C890.9273,-124.9643 799.8671,-113.5798 777.9153,-87 769.1418,-76.3768 768.5321,-66.0887 777.9153,-56 798.1377,-34.2572 1232.5779,-16.5569 1370.3735,-11.4728"/>
<polygon fill="#191970" stroke="#191970" points="954.1303,-133.238 964.3546,-130.4609 954.63,-126.2559 954.1303,-133.238"/>
</g>
<!-- Node20 -->
<g id="node6" class="node">
<title>Node20</title>
<g id="a_node6"><a xlink:href="FweelinMac_8mm.html" target="_top" xlink:title="MacOSX/FweelinMac.mm">
<polygon fill="#ffffff" stroke="#000000" points="787.4153,-62 787.4153,-81 926.4153,-81 926.4153,-62 787.4153,-62"/>
<text text-anchor="middle" x="856.9153" y="-69" font-family="Helvetica,sans-Serif" font-size="10.00" fill="#000000">MacOSX/FweelinMac.mm</text>
</a>
</g>
</g>
<!-- Node19&#45;&gt;Node20 -->
<g id="edge5" class="edge">
<title>Node19&#45;&gt;Node20</title>
<path fill="none" stroke="#191970" d="M982.5721,-119.7993C952.2566,-108.1468 908.7922,-91.4402 881.7397,-81.0419"/>
<polygon fill="#191970" stroke="#191970" points="981.3253,-123.0697 991.9153,-123.3906 983.8368,-116.5357 981.3253,-123.0697"/>
</g>
<!-- Node21 -->
<g id="node7" class="node">
<title>Node21</title>
<g id="a_node7"><a xlink:href="fweelin__amixer_8h.html" target="_top" xlink:title="src/fweelin_amixer.h">
<polygon fill="#ffffff" stroke="#000000" points="944.9153,-62 944.9153,-81 1062.9153,-81 1062.9153,-62 944.9153,-62"/>
<text text-anchor="middle" x="1003.9153" y="-69" font-family="Helvetica,sans-Serif" font-size="10.00" fill="#000000">src/fweelin_amixer.h</text>
</a>
</g>
</g>
<!-- Node19&#45;&gt;Node21 -->
<g id="edge7" class="edge">
<title>Node19&#45;&gt;Node21</title>
<path fill="none" stroke="#191970" d="M1006.5838,-113.9189C1003.4159,-103.0901 1001.0508,-89.9944 1000.8864,-81.2449"/>
<polygon fill="#191970" stroke="#191970" points="1003.2751,-115.0603 1009.8215,-123.3906 1009.8988,-112.7961 1003.2751,-115.0603"/>
</g>
<!-- Node19&#45;&gt;Node23 -->
<g id="edge10" class="edge">
<title>Node19&#45;&gt;Node23</title>
<path fill="none" stroke="#191970" d="M1079.9252,-129.8202C1208.3752,-123.4286 1509.312,-107.8346 1761.9153,-87 1792.6301,-84.4667 1826.8356,-80.9575 1855.6116,-77.9187"/>
<polygon fill="#191970" stroke="#191970" points="1079.6875,-126.3276 1069.8733,-130.3191 1080.0346,-133.319 1079.6875,-126.3276"/>
</g>
<!-- Node19&#45;&gt;Node25 -->
<g id="edge18" class="edge">
<title>Node19&#45;&gt;Node25</title>
<path fill="none" stroke="#191970" d="M1036.4626,-116.743C1063.3552,-94.4122 1108.7189,-56.8839 1110.9153,-56 1158.5467,-36.8321 1495.3877,-19.1891 1633.7772,-12.6654"/>
<polygon fill="#191970" stroke="#191970" points="1033.9132,-114.3108 1028.4584,-123.3936 1038.3867,-119.6949 1033.9132,-114.3108"/>
</g>
<!-- Node19&#45;&gt;Node27 -->
<g id="edge16" class="edge">
<title>Node19&#45;&gt;Node27</title>
<path fill="none" stroke="#191970" d="M1079.5231,-128.1891C1180.7708,-120.3003 1386.7021,-103.8049 1560.9153,-87 1589.0031,-84.2906 1620.1566,-80.9531 1646.1969,-78.0699"/>
<polygon fill="#191970" stroke="#191970" points="1079.1659,-124.7062 1069.4674,-128.9711 1079.7087,-131.6851 1079.1659,-124.7062"/>
</g>
<!-- Node28 -->
<g id="node14" class="node">
<title>Node28</title>
<g id="a_node14"><a xlink:href="fweelin__browser_8cc.html" target="_top" xlink:title="src/fweelin_browser.cc">
<polygon fill="#ffffff" stroke="#000000" points="1119.4153,-62 1119.4153,-81 1246.4153,-81 1246.4153,-62 1119.4153,-62"/>
<text text-anchor="middle" x="1182.9153" y="-69" font-family="Helvetica,sans-Serif" font-size="10.00" fill="#000000">src/fweelin_browser.cc</text>
</a>
</g>
</g>
<!-- Node19&#45;&gt;Node28 -->
<g id="edge17" class="edge">
<title>Node19&#45;&gt;Node28</title>
<path fill="none" stroke="#191970" d="M1052.5464,-119.7993C1083.9987,-108.1468 1129.0931,-91.4402 1157.1599,-81.0419"/>
<polygon fill="#191970" stroke="#191970" points="1051.014,-116.6345 1042.8528,-123.3906 1053.4459,-123.1985 1051.014,-116.6345"/>
</g>
<!-- Node29 -->
<g id="node15" class="node">
<title>Node29</title>
<g id="a_node15"><a xlink:href="fweelin__core_8cc.html" target="_top" xlink:title="src/fweelin_core.cc">
<polygon fill="#ffffff" stroke="#000000" points="435.9153,-.5 435.9153,-19.5 545.9153,-19.5 545.9153,-.5 435.9153,-.5"/>
<text text-anchor="middle" x="490.9153" y="-7.5" font-family="Helvetica,sans-Serif" font-size="10.00" fill="#000000">src/fweelin_core.cc</text>
</a>
</g>
</g>
<!-- Node19&#45;&gt;Node29 -->
<g id="edge19" class="edge">
<title>Node19&#45;&gt;Node29</title>
<path fill="none" stroke="#191970" d="M954.1144,-131.3255C825.8304,-127.3331 542.9616,-115.3858 509.9153,-87 490.1747,-70.0434 489.2262,-36.1547 490.0819,-19.5776"/>
<polygon fill="#191970" stroke="#191970" points="954.0866,-134.8262 964.1886,-131.6326 954.2999,-127.8295 954.0866,-134.8262"/>
</g>
<!-- Node30 -->
<g id="node16" class="node">
<title>Node30</title>
<g id="a_node16"><a xlink:href="fweelin__looplibrary_8h.html" target="_top" xlink:title="src/fweelin_looplibrary.h">
<polygon fill="#ffffff" stroke="#000000" points="519.4153,-62 519.4153,-81 654.4153,-81 654.4153,-62 519.4153,-62"/>
<text text-anchor="middle" x="586.9153" y="-69" font-family="Helvetica,sans-Serif" font-size="10.00" fill="#000000">src/fweelin_looplibrary.h</text>
</a>
</g>
</g>
<!-- Node19&#45;&gt;Node30 -->
<g id="edge20" class="edge">
<title>Node19&#45;&gt;Node30</title>
<path fill="none" stroke="#191970" d="M954.2211,-124.0333C873.9772,-112.5565 735.5503,-92.7583 653.4838,-81.0208"/>
<polygon fill="#191970" stroke="#191970" points="953.794,-127.5077 964.1889,-125.4589 954.7852,-120.5782 953.794,-127.5077"/>
</g>
<!-- Node31 -->
<g id="node17" class="node">
<title>Node31</title>
<g id="a_node17"><a xlink:href="fweelin__osc_8cc.html" target="_top" xlink:title="src/fweelin_osc.cc">
<polygon fill="#ffffff" stroke="#000000" points="616.4153,-.5 616.4153,-19.5 721.4153,-19.5 721.4153,-.5 616.4153,-.5"/>
<text text-anchor="middle" x="668.9153" y="-7.5" font-family="Helvetica,sans-Serif" font-size="10.00" fill="#000000">src/fweelin_osc.cc</text>
</a>
</g>
</g>
<!-- Node19&#45;&gt;Node31 -->
<g id="edge24" class="edge">
<title>Node19&#45;&gt;Node31</title>
<path fill="none" stroke="#191970" d="M953.9261,-126.8696C885.2455,-119.3974 780.3768,-105.4496 744.9153,-87 713.4228,-70.6154 687.0065,-36.4541 675.3363,-19.6951"/>
<polygon fill="#191970" stroke="#191970" points="953.8872,-130.3854 964.2028,-127.9689 954.6318,-123.4251 953.8872,-130.3854"/>
</g>
<!-- Node19&#45;&gt;Node32 -->
<g id="edge23" class="edge">
<title>Node19&#45;&gt;Node32</title>
<path fill="none" stroke="#191970" d="M1079.2239,-121.6072C1127.5217,-112.6312 1196.0769,-99.5745 1255.9153,-87 1264.684,-85.1573 1274.0651,-83.0848 1282.972,-81.0693"/>
<polygon fill="#191970" stroke="#191970" points="1078.43,-118.1946 1069.2356,-123.4589 1079.7061,-125.0773 1078.43,-118.1946"/>
</g>
<!-- Node33 -->
<g id="node19" class="node">
<title>Node33</title>
<g id="a_node19"><a xlink:href="fweelin__paramset_8cc.html" target="_top" xlink:title="src/fweelin_paramset.cc">
<polygon fill="#ffffff" stroke="#000000" points="327.4153,-62 327.4153,-81 462.4153,-81 462.4153,-62 327.4153,-62"/>
<text text-anchor="middle" x="394.9153" y="-69" font-family="Helvetica,sans-Serif" font-size="10.00" fill="#000000">src/fweelin_paramset.cc</text>
</a>
</g>
</g>
<!-- Node19&#45;&gt;Node33 -->
<g id="edge25" class="edge">
<title>Node19&#45;&gt;Node33</title>
<path fill="none" stroke="#191970" d="M954.1876,-129.7357C853.2883,-124.0184 648.8321,-110.5084 476.9153,-87 465.1445,-85.3904 452.5012,-83.2217 440.7519,-81.0171"/>
<polygon fill="#191970" stroke="#191970" points="954.0312,-133.2323 964.2114,-130.2972 954.4228,-126.2432 954.0312,-133.2323"/>
</g>
<!-- Node34 -->
<g id="node20" class="node">
<title>Node34</title>
<g id="a_node20"><a xlink:href="fweelin__sdlio_8cc.html" target="_top" xlink:title="src/fweelin_sdlio.cc">
<polygon fill="#ffffff" stroke="#000000" points="1439.9153,-62 1439.9153,-81 1551.9153,-81 1551.9153,-62 1439.9153,-62"/>
<text text-anchor="middle" x="1495.9153" y="-69" font-family="Helvetica,sans-Serif" font-size="10.00" fill="#000000">src/fweelin_sdlio.cc</text>
</a>
</g>
</g>
<!-- Node19&#45;&gt;Node34 -->
<g id="edge26" class="edge">
<title>Node19&#45;&gt;Node34</title>
<path fill="none" stroke="#191970" d="M1079.773,-125.8476C1154.4923,-117.2212 1282.9166,-102.0023 1392.9153,-87 1408.1451,-84.9229 1424.6166,-82.5163 1439.8262,-80.228"/>
<polygon fill="#191970" stroke="#191970" points="1079.1274,-122.3988 1069.5938,-127.0204 1079.9287,-129.3528 1079.1274,-122.3988"/>
</g>
<!-- Node35 -->
<g id="node21" class="node">
<title>Node35</title>
<g id="a_node21"><a xlink:href="fweelin__videoio_8cc.html" target="_top" xlink:title="src/fweelin_videoio.cc">
<polygon fill="#ffffff" stroke="#000000" points="184.4153,-62 184.4153,-81 309.4153,-81 309.4153,-62 184.4153,-62"/>
<text text-anchor="middle" x="246.9153" y="-69" font-family="Helvetica,sans-Serif" font-size="10.00" fill="#000000">src/fweelin_videoio.cc</text>
</a>
</g>
</g>
<!-- Node19&#45;&gt;Node35 -->
<g id="edge27" class="edge">
<title>Node19&#45;&gt;Node35</title>
<path fill="none" stroke="#191970" d="M953.6754,-131.9933C830.6543,-129.3391 550.7669,-119.8912 317.9153,-87 307.2965,-85.5001 295.9019,-83.2874 285.4173,-81.0006"/>
<polygon fill="#191970" stroke="#191970" points="953.9566,-135.4998 964.0272,-132.2085 954.1022,-128.5013 953.9566,-135.4998"/>
</g>
<!-- Node36 -->
<g id="node22" class="node">
<title>Node36</title>
<g id="a_node22"><a xlink:href="fweelin__videoio__displays_8cc.html" target="_top" xlink:title="src/fweelin_videoio\l_displays.cc">
<polygon fill="#ffffff" stroke="#000000" points="16.4153,-56.5 16.4153,-86.5 127.4153,-86.5 127.4153,-56.5 16.4153,-56.5"/>
<text text-anchor="start" x="24.4153" y="-74.5" font-family="Helvetica,sans-Serif" font-size="10.00" fill="#000000">src/fweelin_videoio</text>
<text text-anchor="middle" x="71.9153" y="-63.5" font-family="Helvetica,sans-Serif" font-size="10.00" fill="#000000">_displays.cc</text>
</a>
</g>
</g>
<!-- Node19&#45;&gt;Node36 -->
<g id="edge28" class="edge">
<title>Node19&#45;&gt;Node36</title>
<path fill="none" stroke="#191970" d="M953.9369,-131.5989C813.6869,-128.0324 465.1187,-116.6954 174.9153,-87 159.5344,-85.4261 142.9383,-83.1746 127.6543,-80.8736"/>
<polygon fill="#191970" stroke="#191970" points="953.9862,-135.1012 964.0706,-131.8523 954.1612,-128.1033 953.9862,-135.1012"/>
</g>
<!-- Node21&#45;&gt;Node19 -->
<g id="edge8" class="edge">
<title>Node21&#45;&gt;Node19</title>
<path fill="none" stroke="#191970" d="M1014.2959,-90.7494C1017.4555,-101.6015 1019.805,-114.6862 1019.9465,-123.3906"/>
<polygon fill="#191970" stroke="#191970" points="1017.597,-89.5857 1011.0639,-81.2449 1010.9697,-91.8393 1017.597,-89.5857"/>
</g>
<!-- Node22 -->
<g id="node8" class="node">
<title>Node22</title>
<g id="a_node8"><a xlink:href="fweelin__amixer_8cc.html" target="_top" xlink:title="src/fweelin_amixer.cc">
<polygon fill="#ffffff" stroke="#000000" points="942.9153,-.5 942.9153,-19.5 1064.9153,-19.5 1064.9153,-.5 942.9153,-.5"/>
<text text-anchor="middle" x="1003.9153" y="-7.5" font-family="Helvetica,sans-Serif" font-size="10.00" fill="#000000">src/fweelin_amixer.cc</text>
</a>
</g>
</g>
<!-- Node21&#45;&gt;Node22 -->
<g id="edge9" class="edge">
<title>Node21&#45;&gt;Node22</title>
<path fill="none" stroke="#191970" d="M1003.9153,-51.7462C1003.9153,-41.0519 1003.9153,-28.314 1003.9153,-19.7449"/>
<polygon fill="#191970" stroke="#191970" points="1000.4154,-51.8906 1003.9153,-61.8906 1007.4154,-51.8907 1000.4154,-51.8906"/>
</g>
<!-- Node23&#45;&gt;Node18 -->
<g id="edge12" class="edge">
<title>Node23&#45;&gt;Node18</title>
<path fill="none" stroke="#191970" d="M1845.6391,-62.5079C1737.3372,-49.3966 1539.6446,-25.4633 1453.6844,-15.0567"/>
<polygon fill="#191970" stroke="#191970" points="1845.4859,-66.0148 1855.8341,-63.7421 1846.3273,-59.0656 1845.4859,-66.0148"/>
</g>
<!-- Node23&#45;&gt;Node19 -->
<g id="edge11" class="edge">
<title>Node23&#45;&gt;Node19</title>
<path fill="none" stroke="#191970" d="M1845.5297,-80.7779C1824.3746,-82.9996 1801.299,-85.2363 1779.9153,-87 1513.6093,-108.9648 1193.5838,-125.105 1069.5045,-130.7785"/>
<polygon fill="#191970" stroke="#191970" points="1846.1714,-84.2295 1855.7448,-79.6906 1845.4305,-77.2688 1846.1714,-84.2295"/>
</g>
<!-- Node24 -->
<g id="node10" class="node">
<title>Node24</title>
<g id="a_node10"><a xlink:href="fweelin__audioio_8cc.html" target="_top" xlink:title="src/fweelin_audioio.cc">
<polygon fill="#ffffff" stroke="#000000" points="1995.4153,-.5 1995.4153,-19.5 2120.4153,-19.5 2120.4153,-.5 1995.4153,-.5"/>
<text text-anchor="middle" x="2057.9153" y="-7.5" font-family="Helvetica,sans-Serif" font-size="10.00" fill="#000000">src/fweelin_audioio.cc</text>
</a>
</g>
</g>
<!-- Node23&#45;&gt;Node24 -->
<g id="edge13" class="edge">
<title>Node23&#45;&gt;Node24</title>
<path fill="none" stroke="#191970" d="M1950.9047,-57.6895C1976.9775,-46.0701 2013.5755,-29.7601 2036.5042,-19.5419"/>
<polygon fill="#191970" stroke="#191970" points="1949.1871,-54.6231 1941.4778,-61.8906 1952.0365,-61.0169 1949.1871,-54.6231"/>
</g>
<!-- Node23&#45;&gt;Node25 -->
<g id="edge14" class="edge">
<title>Node23&#45;&gt;Node25</title>
<path fill="none" stroke="#191970" d="M1874.7764,-59.2707C1831.6695,-47.592 1767.5956,-30.2328 1728.135,-19.5419"/>
<polygon fill="#191970" stroke="#191970" points="1873.8792,-62.6538 1884.4465,-61.8906 1875.7098,-55.8974 1873.8792,-62.6538"/>
</g>
<!-- Node26 -->
<g id="node12" class="node">
<title>Node26</title>
<g id="a_node12"><a xlink:href="fweelin__core__dsp_8cc.html" target="_top" xlink:title="src/fweelin_core_dsp.cc">
<polygon fill="#ffffff" stroke="#000000" points="1844.9153,-.5 1844.9153,-19.5 1976.9153,-19.5 1976.9153,-.5 1844.9153,-.5"/>
<text text-anchor="middle" x="1910.9153" y="-7.5" font-family="Helvetica,sans-Serif" font-size="10.00" fill="#000000">src/fweelin_core_dsp.cc</text>
</a>
</g>
</g>
<!-- Node23&#45;&gt;Node26 -->
<g id="edge15" class="edge">
<title>Node23&#45;&gt;Node26</title>
<path fill="none" stroke="#191970" d="M1917.0245,-51.7462C1915.4595,-41.0519 1913.5954,-28.314 1912.3414,-19.7449"/>
<polygon fill="#191970" stroke="#191970" points="1913.5979,-52.5028 1918.509,-61.8906 1920.5241,-51.4892 1913.5979,-52.5028"/>
</g>
<!-- Node30&#45;&gt;Node29 -->
<g id="edge21" class="edge">
<title>Node30&#45;&gt;Node29</title>
<path fill="none" stroke="#191970" d="M563.1667,-56.286C545.216,-44.7864 521.128,-29.355 505.81,-19.5419"/>
<polygon fill="#191970" stroke="#191970" points="561.6069,-59.4434 571.9153,-61.8906 565.383,-53.5492 561.6069,-59.4434"/>
</g>
<!-- Node30&#45;&gt;Node31 -->
<g id="edge22" class="edge">
<title>Node30&#45;&gt;Node31</title>
<path fill="none" stroke="#191970" d="M608.0498,-55.6491C623.286,-44.222 643.3487,-29.1749 656.1928,-19.5419"/>
<polygon fill="#191970" stroke="#191970" points="605.6278,-53.0906 599.7278,-61.8906 609.8278,-58.6906 605.6278,-53.0906"/>
</g>
<!-- Node37&#45;&gt;Node18 -->
<g id="edge33" class="edge">
<title>Node37&#45;&gt;Node18</title>
<path fill="none" stroke="#191970" d="M779.5078,-287.7076C739.3463,-271.3698 682.9153,-239.4392 682.9153,-189 682.9153,-189 682.9153,-189 682.9153,-133 682.9153,-82.0263 721.0388,-76.0228 767.9153,-56 823.0635,-32.444 1236.0325,-16.1263 1370.0536,-11.4061"/>
<polygon fill="#191970" stroke="#191970" points="778.4811,-291.0638 789.0695,-291.4325 781.0221,-284.5413 778.4811,-291.0638"/>
</g>
<!-- Node37&#45;&gt;Node19 -->
<g id="edge34" class="edge">
<title>Node37&#45;&gt;Node19</title>
<path fill="none" stroke="#191970" d="M837.9315,-284.865C878.4948,-250.4477 972.485,-170.6985 1005.3324,-142.8279"/>
<polygon fill="#191970" stroke="#191970" points="835.4886,-282.3476 830.1279,-291.4862 840.0175,-287.6852 835.4886,-282.3476"/>
</g>
<!-- Node37&#45;&gt;Node35 -->
<g id="edge49" class="edge">
<title>Node37&#45;&gt;Node35</title>
<path fill="none" stroke="#191970" d="M766.9628,-288.9896C737.4429,-281.2087 700.2384,-269.7642 668.9153,-255 572.5772,-209.5909 566.7752,-165.0292 468.9153,-123 460.6447,-119.4479 351.9279,-94.9167 289.7671,-81.0314"/>
<polygon fill="#191970" stroke="#191970" points="766.1028,-292.3822 776.6598,-291.4874 767.849,-285.6035 766.1028,-292.3822"/>
</g>
<!-- Node37&#45;&gt;Node36 -->
<g id="edge50" class="edge">
<title>Node37&#45;&gt;Node36</title>
<path fill="none" stroke="#191970" d="M765.3722,-289.252C727.14,-280.5682 674.604,-268.0337 628.9153,-255 434.3233,-199.4885 206.1514,-119.5677 113.8299,-86.5981"/>
<polygon fill="#191970" stroke="#191970" points="764.7386,-292.6969 775.2639,-291.4853 766.2803,-285.8688 764.7386,-292.6969"/>
</g>
<!-- Node37&#45;&gt;Node38 -->
<g id="edge35" class="edge">
<title>Node37&#45;&gt;Node38</title>
<path fill="none" stroke="#191970" d="M889.2779,-294.2064C1005.4929,-282.9856 1235.29,-260.7983 1341.9957,-250.4957"/>
<polygon fill="#191970" stroke="#191970" points="888.6896,-290.7468 879.0723,-295.1917 889.3624,-297.7144 888.6896,-290.7468"/>
</g>
<!-- Node38&#45;&gt;Node19 -->
<g id="edge36" class="edge">
<title>Node38&#45;&gt;Node19</title>
<path fill="none" stroke="#191970" d="M1332.0783,-237.534C1260.9225,-228.9923 1153.3748,-214.2114 1114.9153,-199 1080.0084,-185.1937 1044.9293,-157.4 1027.7617,-142.6715"/>
<polygon fill="#191970" stroke="#191970" points="1331.957,-241.0441 1342.3001,-238.7483 1332.7828,-234.093 1331.957,-241.0441"/>
</g>
<!-- Node38&#45;&gt;Node24 -->
<g id="edge40" class="edge">
<title>Node38&#45;&gt;Node24</title>
<path fill="none" stroke="#191970" d="M1465.5329,-238.1835C1527.5403,-231.0714 1622.2546,-218.2436 1702.9153,-199 1780.293,-180.5396 1798.3099,-170.6067 1872.9153,-143 1934.2208,-120.3147 1958.8071,-128.978 2008.9153,-87 2031.6288,-67.9718 2047.305,-35.6566 2054.1053,-19.619"/>
<polygon fill="#191970" stroke="#191970" points="1465.033,-234.7176 1455.4892,-239.3183 1465.819,-241.6734 1465.033,-234.7176"/>
</g>
<!-- Node38&#45;&gt;Node25 -->
<g id="edge41" class="edge">
<title>Node38&#45;&gt;Node25</title>
<path fill="none" stroke="#191970" d="M1465.7991,-237.013C1537.9708,-225.7649 1653.7196,-199.8715 1736.9153,-143 1773.7326,-117.8321 1810.5235,-93.8364 1786.9153,-56 1775.4701,-37.657 1754.3539,-26.4276 1735.0307,-19.6619"/>
<polygon fill="#191970" stroke="#191970" points="1464.843,-233.6175 1455.4761,-238.5682 1465.8859,-240.5394 1464.843,-233.6175"/>
</g>
<!-- Node38&#45;&gt;Node26 -->
<g id="edge48" class="edge">
<title>Node38&#45;&gt;Node26</title>
<path fill="none" stroke="#191970" d="M1465.4089,-236.0939C1518.5053,-228.3095 1594.5713,-215.6469 1659.9153,-199 1662.2796,-198.3977 1991.4914,-88.9812 1992.9153,-87 2000.9562,-75.812 1999.8778,-67.8891 1992.9153,-56 1982.4393,-38.1114 1962.1765,-26.6506 1944.4155,-19.6426"/>
<polygon fill="#191970" stroke="#191970" points="1464.8331,-232.6407 1455.4381,-237.538 1465.8365,-239.5684 1464.8331,-232.6407"/>
</g>
<!-- Node38&#45;&gt;Node39 -->
<g id="edge37" class="edge">
<title>Node38&#45;&gt;Node39</title>
<path fill="none" stroke="#191970" d="M1352.2387,-232.7856C1312.8739,-222.4845 1257.3301,-207.9497 1221.2232,-198.5011"/>
<polygon fill="#191970" stroke="#191970" points="1351.5671,-236.2276 1362.1274,-235.3733 1353.3392,-229.4556 1351.5671,-236.2276"/>
</g>
<!-- Node38&#45;&gt;Node40 -->
<g id="edge42" class="edge">
<title>Node38&#45;&gt;Node40</title>
<path fill="none" stroke="#191970" d="M1332.0335,-237.5391C1149.0554,-217.1272 641.7992,-160.5408 460.438,-140.3093"/>
<polygon fill="#191970" stroke="#191970" points="1331.7328,-241.0272 1342.0592,-238.6575 1332.5089,-234.0703 1331.7328,-241.0272"/>
</g>
<!-- Node39&#45;&gt;Node19 -->
<g id="edge38" class="edge">
<title>Node39&#45;&gt;Node19</title>
<path fill="none" stroke="#191970" d="M1146.4867,-176.1905C1115.708,-165.9309 1073.2227,-151.7691 1045.4187,-142.5011"/>
<polygon fill="#191970" stroke="#191970" points="1145.4414,-179.5313 1156.0351,-179.3733 1147.655,-172.8905 1145.4414,-179.5313"/>
</g>
<!-- Node39&#45;&gt;Node28 -->
<g id="edge39" class="edge">
<title>Node39&#45;&gt;Node28</title>
<path fill="none" stroke="#191970" d="M1184.576,-169.0662C1184.1422,-143.5834 1183.4083,-100.4662 1183.0812,-81.2484"/>
<polygon fill="#191970" stroke="#191970" points="1181.0819,-169.4455 1184.7516,-179.3845 1188.0808,-169.3263 1181.0819,-169.4455"/>
</g>
<!-- Node40&#45;&gt;Node25 -->
<g id="edge43" class="edge">
<title>Node40&#45;&gt;Node25</title>
<path fill="none" stroke="#191970" d="M318.9489,-121.9047C259.0902,-112.3846 184.2051,-98.4332 174.9153,-87 166.2269,-76.3071 165.31,-65.8775 174.9153,-56 199.8678,-30.3403 1427.1463,-21.2774 1462.9153,-20 1521.0321,-17.9245 1587.3839,-14.978 1633.8362,-12.8209"/>
<polygon fill="#191970" stroke="#191970" points="318.749,-125.4162 329.1711,-123.5111 319.8358,-118.501 318.749,-125.4162"/>
</g>
<!-- Node40&#45;&gt;Node29 -->
<g id="edge44" class="edge">
<title>Node40&#45;&gt;Node29</title>
<path fill="none" stroke="#191970" d="M319.1884,-129.3449C212.147,-123.3912 27.2649,-109.9047 6.9153,-87 -2.2356,-76.7001 -2.3547,-66.1928 6.9153,-56 35.3106,-24.778 314.7484,-14.2642 435.6437,-11.1584"/>
<polygon fill="#191970" stroke="#191970" points="319.1199,-132.8463 329.2961,-129.8976 319.5021,-125.8567 319.1199,-132.8463"/>
</g>
<!-- Node40&#45;&gt;Node33 -->
<g id="edge45" class="edge">
<title>Node40&#45;&gt;Node33</title>
<path fill="none" stroke="#191970" d="M394.9153,-113.2462C394.9153,-102.5519 394.9153,-89.814 394.9153,-81.2449"/>
<polygon fill="#191970" stroke="#191970" points="391.4154,-113.3906 394.9153,-123.3906 398.4154,-113.3907 391.4154,-113.3906"/>
</g>
<!-- Node40&#45;&gt;Node35 -->
<g id="edge46" class="edge">
<title>Node40&#45;&gt;Node35</title>
<path fill="none" stroke="#191970" d="M362.4168,-119.4955C334.4109,-107.858 294.6847,-91.3501 269.8779,-81.0419"/>
<polygon fill="#191970" stroke="#191970" points="361.2128,-122.7853 371.7903,-123.3906 363.8989,-116.3212 361.2128,-122.7853"/>
</g>
<!-- Node40&#45;&gt;Node36 -->
<g id="edge47" class="edge">
<title>Node40&#45;&gt;Node36</title>
<path fill="none" stroke="#191970" d="M329.0935,-121.7397C277.9544,-112.8204 205.3043,-99.7759 141.9153,-87 137.2786,-86.0655 132.4761,-85.0669 127.6591,-84.0438"/>
<polygon fill="#191970" stroke="#191970" points="328.5735,-125.2018 339.0254,-123.4673 329.7731,-118.3053 328.5735,-125.2018"/>
</g>
<!-- Node41&#45;&gt;Node18 -->
<g id="edge52" class="edge">
<title>Node41&#45;&gt;Node18</title>
<path fill="none" stroke="#191970" d="M1537.7732,-171.0564C1557.0619,-143.7351 1586.8681,-91.1737 1560.9153,-56 1548.0563,-38.5723 1493.0679,-24.9605 1453.635,-17.2024"/>
<polygon fill="#191970" stroke="#191970" points="1534.824,-169.1594 1531.7307,-179.2926 1540.468,-173.3001 1534.824,-169.1594"/>
</g>
<!-- Node41&#45;&gt;Node19 -->
<g id="edge53" class="edge">
<title>Node41&#45;&gt;Node19</title>
<path fill="none" stroke="#191970" d="M1460.0533,-181.9462C1358.8696,-170.7701 1163.5831,-149.2 1069.7612,-138.837"/>
<polygon fill="#191970" stroke="#191970" points="1459.8136,-185.4409 1470.1374,-183.06 1460.5821,-178.4832 1459.8136,-185.4409"/>
</g>
<!-- Node41&#45;&gt;Node25 -->
<g id="edge54" class="edge">
<title>Node41&#45;&gt;Node25</title>
<path fill="none" stroke="#191970" d="M1587.5502,-182.273C1646.27,-172.3127 1730.3136,-147.6941 1770.9153,-87 1778.576,-75.5483 1777.749,-67.9636 1770.9153,-56 1760.7785,-38.2536 1740.8227,-26.6687 1723.6344,-19.5638"/>
<polygon fill="#191970" stroke="#191970" points="1586.9492,-178.8246 1577.6268,-183.8587 1588.0538,-185.7369 1586.9492,-178.8246"/>
</g>
<!-- Node41&#45;&gt;Node34 -->
<g id="edge55" class="edge">
<title>Node41&#45;&gt;Node34</title>
<path fill="none" stroke="#191970" d="M1519.2469,-169.4095C1513.1853,-143.9723 1502.8385,-100.5527 1498.2383,-81.2484"/>
<polygon fill="#191970" stroke="#191970" points="1515.9011,-170.4682 1521.6239,-179.3845 1522.7105,-168.8455 1515.9011,-170.4682"/>
</g>
</g>
</svg>
