<?xml version="1.0" encoding="UTF-8" standalone="no"?>
<!DOCTYPE svg PUBLIC "-//W3C//DTD SVG 1.1//EN"
 "http://www.w3.org/Graphics/SVG/1.1/DTD/svg11.dtd">
<!-- Generated by graphviz version 2.40.1 (20161225.0304)
 -->
<!-- Title: Graphical Class Hierarchy Pages: 1 -->
<svg width="213pt" height="66pt"
 viewBox="0.00 0.00 213.00 66.00" xmlns="http://www.w3.org/2000/svg" xmlns:xlink="http://www.w3.org/1999/xlink">
<g id="graph0" class="graph" transform="scale(1 1) rotate(0) translate(4 62)">
<title>Graphical Class Hierarchy</title>
<polygon fill="#ffffff" stroke="transparent" points="-4,4 -4,-62 209,-62 209,4 -4,4"/>
<!-- Node0 -->
<g id="node1" class="node">
<title>Node0</title>
<g id="a_node1"><a xlink:href="classiFileDecoder.html" target="_top" xlink:title="iFileDecoder">
<polygon fill="#ffffff" stroke="#000000" points="0,-19.5 0,-38.5 77,-38.5 77,-19.5 0,-19.5"/>
<text text-anchor="middle" x="38.5" y="-26.5" font-family="Helvetica,sans-Serif" font-size="10.00" fill="#000000">iFileDecoder</text>
</a>
</g>
</g>
<!-- Node1 -->
<g id="node2" class="node">
<title>Node1</title>
<g id="a_node2"><a xlink:href="classSndFileDecoder.html" target="_top" xlink:title="SndFileDecoder">
<polygon fill="#ffffff" stroke="#000000" points="113,-38.5 113,-57.5 205,-57.5 205,-38.5 113,-38.5"/>
<text text-anchor="middle" x="159" y="-45.5" font-family="Helvetica,sans-Serif" font-size="10.00" fill="#000000">SndFileDecoder</text>
</a>
</g>
</g>
<!-- Node0&#45;&gt;Node1 -->
<g id="edge1" class="edge">
<title>Node0&#45;&gt;Node1</title>
<path fill="none" stroke="#191970" d="M87.3187,-36.6976C95.7025,-38.0195 104.3928,-39.3897 112.7077,-40.7008"/>
<polygon fill="#191970" stroke="#191970" points="87.7134,-33.2166 77.2902,-35.1163 86.623,-40.1312 87.7134,-33.2166"/>
</g>
<!-- Node2 -->
<g id="node3" class="node">
<title>Node2</title>
<g id="a_node3"><a xlink:href="classVorbisDecoder.html" target="_top" xlink:title="VorbisDecoder">
<polygon fill="#ffffff" stroke="#000000" points="115.5,-.5 115.5,-19.5 202.5,-19.5 202.5,-.5 115.5,-.5"/>
<text text-anchor="middle" x="159" y="-7.5" font-family="Helvetica,sans-Serif" font-size="10.00" fill="#000000">VorbisDecoder</text>
</a>
</g>
</g>
<!-- Node0&#45;&gt;Node2 -->
<g id="edge2" class="edge">
<title>Node0&#45;&gt;Node2</title>
<path fill="none" stroke="#191970" d="M87.1772,-21.3248C96.4671,-19.86 106.1385,-18.335 115.2624,-16.8964"/>
<polygon fill="#191970" stroke="#191970" points="86.623,-17.8688 77.2902,-22.8837 87.7134,-24.7834 86.623,-17.8688"/>
</g>
</g>
</svg>
