<?xml version="1.0" encoding="UTF-8" standalone="no"?>
<!DOCTYPE svg PUBLIC "-//W3C//DTD SVG 1.1//EN"
 "http://www.w3.org/Graphics/SVG/1.1/DTD/svg11.dtd">
<!-- Generated by graphviz version 2.40.1 (20161225.0304)
 -->
<!-- Title: Graphical Class Hierarchy Pages: 1 -->
<svg width="360pt" height="154pt"
 viewBox="0.00 0.00 360.00 153.50" xmlns="http://www.w3.org/2000/svg" xmlns:xlink="http://www.w3.org/1999/xlink">
<g id="graph0" class="graph" transform="scale(1 1) rotate(0) translate(4 149.5)">
<title>Graphical Class Hierarchy</title>
<polygon fill="#ffffff" stroke="transparent" points="-4,4 -4,-149.5 356,-149.5 356,4 -4,4"/>
<!-- Node0 -->
<g id="node1" class="node">
<title>Node0</title>
<g id="a_node1"><a xlink:href="classRTDataStruct__Updater.html" target="_top" xlink:title="RTDataStruct_Updater">
<polygon fill="#ffffff" stroke="#000000" points="0,-69 0,-88 125,-88 125,-69 0,-69"/>
<text text-anchor="middle" x="62.5" y="-76" font-family="Helvetica,sans-Serif" font-size="10.00" fill="#000000">RTDataStruct_Updater</text>
</a>
</g>
</g>
<!-- Node1 -->
<g id="node2" class="node">
<title>Node1</title>
<g id="a_node2"><a xlink:href="classRT__RCU.html" target="_top" xlink:title="RT_RCU">
<polygon fill="#ffffff" stroke="#000000" points="229.5,-126 229.5,-145 283.5,-145 283.5,-126 229.5,-126"/>
<text text-anchor="middle" x="256.5" y="-133" font-family="Helvetica,sans-Serif" font-size="10.00" fill="#000000">RT_RCU</text>
</a>
</g>
</g>
<!-- Node0&#45;&gt;Node1 -->
<g id="edge1" class="edge">
<title>Node0&#45;&gt;Node1</title>
<path fill="none" stroke="#191970" d="M93.4628,-92.0225C112.6327,-99.9967 137.9144,-109.8043 161,-116.5 183.73,-123.0925 210.1605,-128.1569 229.4461,-131.3928"/>
<polygon fill="#191970" stroke="#191970" points="94.6134,-88.7092 84.0394,-88.0458 91.8918,-95.1585 94.6134,-88.7092"/>
</g>
<!-- Node2 -->
<g id="node3" class="node">
<title>Node2</title>
<g id="a_node3"><a xlink:href="classSRMWRingBuffer.html" target="_top" xlink:title="SRMWRingBuffer\&lt; T \&gt;">
<polygon fill="#ffffff" stroke="#000000" points="193,-88 193,-107 320,-107 320,-88 193,-88"/>
<text text-anchor="middle" x="256.5" y="-95" font-family="Helvetica,sans-Serif" font-size="10.00" fill="#000000">SRMWRingBuffer&lt; T &gt;</text>
</a>
</g>
</g>
<!-- Node0&#45;&gt;Node2 -->
<g id="edge2" class="edge">
<title>Node0&#45;&gt;Node2</title>
<path fill="none" stroke="#191970" d="M135.2472,-85.6247C154.1165,-87.4727 174.2941,-89.4489 192.667,-91.2483"/>
<polygon fill="#191970" stroke="#191970" points="135.5119,-82.134 125.2183,-84.6425 134.8295,-89.1007 135.5119,-82.134"/>
</g>
<!-- Node3 -->
<g id="node4" class="node">
<title>Node3</title>
<g id="a_node4"><a xlink:href="classSRMWRingBuffer.html" target="_top" xlink:title="SRMWRingBuffer\&lt; Event *\&gt;">
<polygon fill="#ffffff" stroke="#000000" points="179.5,-50 179.5,-69 333.5,-69 333.5,-50 179.5,-50"/>
<text text-anchor="middle" x="256.5" y="-57" font-family="Helvetica,sans-Serif" font-size="10.00" fill="#000000">SRMWRingBuffer&lt; Event *&gt;</text>
</a>
</g>
</g>
<!-- Node0&#45;&gt;Node3 -->
<g id="edge3" class="edge">
<title>Node0&#45;&gt;Node3</title>
<path fill="none" stroke="#191970" d="M135.5082,-71.3497C149.8475,-69.9453 164.9331,-68.4679 179.4015,-67.0509"/>
<polygon fill="#191970" stroke="#191970" points="134.8295,-67.8993 125.2183,-72.3575 135.5119,-74.866 134.8295,-67.8993"/>
</g>
<!-- Node4 -->
<g id="node5" class="node">
<title>Node4</title>
<g id="a_node5"><a xlink:href="classSRMWRingBuffer.html" target="_top" xlink:title="SRMWRingBuffer\&lt; MemoryManager\lUpdate \&gt;">
<polygon fill="#ffffff" stroke="#000000" points="161,-.5 161,-30.5 352,-30.5 352,-.5 161,-.5"/>
<text text-anchor="start" x="169" y="-18.5" font-family="Helvetica,sans-Serif" font-size="10.00" fill="#000000">SRMWRingBuffer&lt; MemoryManager</text>
<text text-anchor="middle" x="256.5" y="-7.5" font-family="Helvetica,sans-Serif" font-size="10.00" fill="#000000">Update &gt;</text>
</a>
</g>
</g>
<!-- Node0&#45;&gt;Node4 -->
<g id="edge4" class="edge">
<title>Node0&#45;&gt;Node4</title>
<path fill="none" stroke="#191970" d="M94.743,-65.0088C113.8217,-57.2913 138.57,-47.7373 161,-40.5 171.8465,-37.0003 183.5021,-33.6318 194.8145,-30.5626"/>
<polygon fill="#191970" stroke="#191970" points="93.2595,-61.834 85.3252,-68.8552 95.9062,-68.3144 93.2595,-61.834"/>
</g>
</g>
</svg>
