<?xml version="1.0" encoding="UTF-8" standalone="no"?>
<!DOCTYPE svg PUBLIC "-//W3C//DTD SVG 1.1//EN"
 "http://www.w3.org/Graphics/SVG/1.1/DTD/svg11.dtd">
<!-- Generated by graphviz version 2.40.1 (20161225.0304)
 -->
<!-- Title: &#45;[SDLMain setMIDIInput:] Pages: 1 -->
<svg width="457pt" height="28pt"
 viewBox="0.00 0.00 457.00 28.00" xmlns="http://www.w3.org/2000/svg" xmlns:xlink="http://www.w3.org/1999/xlink">
<g id="graph0" class="graph" transform="scale(1 1) rotate(0) translate(4 24)">
<title>&#45;[SDLMain setMIDIInput:]</title>
<polygon fill="#ffffff" stroke="transparent" points="-4,4 -4,-24 453,-24 453,4 -4,4"/>
<!-- Node17 -->
<g id="node1" class="node">
<title>Node17</title>
<polygon fill="#bfbfbf" stroke="#000000" points="0,-.5 0,-19.5 137,-19.5 137,-.5 0,-.5"/>
<text text-anchor="middle" x="68.5" y="-7.5" font-family="Helvetica,sans-Serif" font-size="10.00" fill="#000000">&#45;[SDLMain setMIDIInput:]</text>
</g>
<!-- Node18 -->
<g id="node2" class="node">
<title>Node18</title>
<g id="a_node2"><a xlink:href="classFweelinMac.html#a9c6e892f28fd965f628c826f36eb80de" target="_top" xlink:title="FweelinMac::SetMIDIInput">
<polygon fill="#ffffff" stroke="#000000" points="173,-.5 173,-19.5 315,-19.5 315,-.5 173,-.5"/>
<text text-anchor="middle" x="244" y="-7.5" font-family="Helvetica,sans-Serif" font-size="10.00" fill="#000000">FweelinMac::SetMIDIInput</text>
</a>
</g>
</g>
<!-- Node17&#45;&gt;Node18 -->
<g id="edge1" class="edge">
<title>Node17&#45;&gt;Node18</title>
<path fill="none" stroke="#191970" d="M137.1069,-10C145.537,-10 154.2149,-10 162.8084,-10"/>
<polygon fill="#191970" stroke="#191970" points="162.8379,-13.5001 172.8378,-10 162.8378,-6.5001 162.8379,-13.5001"/>
</g>
<!-- Node19 -->
<g id="node3" class="node">
<title>Node19</title>
<g id="a_node3"><a xlink:href="classFweelin.html#aee46aec225c2ee5c88854dc9943e7d62" target="_top" xlink:title="Fweelin::getMIDI">
<polygon fill="#ffffff" stroke="#000000" points="351,-.5 351,-19.5 449,-19.5 449,-.5 351,-.5"/>
<text text-anchor="middle" x="400" y="-7.5" font-family="Helvetica,sans-Serif" font-size="10.00" fill="#000000">Fweelin::getMIDI</text>
</a>
</g>
</g>
<!-- Node18&#45;&gt;Node19 -->
<g id="edge2" class="edge">
<title>Node18&#45;&gt;Node19</title>
<path fill="none" stroke="#191970" d="M315.1524,-10C323.7218,-10 332.4024,-10 340.776,-10"/>
<polygon fill="#191970" stroke="#191970" points="340.8096,-13.5001 350.8096,-10 340.8096,-6.5001 340.8096,-13.5001"/>
</g>
</g>
</svg>
