<?xml version="1.0" encoding="UTF-8" standalone="no"?>
<!DOCTYPE svg PUBLIC "-//W3C//DTD SVG 1.1//EN"
 "http://www.w3.org/Graphics/SVG/1.1/DTD/svg11.dtd">
<!-- Generated by graphviz version 2.40.1 (20161225.0304)
 -->
<!-- Title: SDLMain Pages: 1 -->
<svg width="234pt" height="226pt"
 viewBox="0.00 0.00 233.50 226.00" xmlns="http://www.w3.org/2000/svg" xmlns:xlink="http://www.w3.org/1999/xlink">
<g id="graph0" class="graph" transform="scale(1 1) rotate(0) translate(4 222)">
<title>SDLMain</title>
<polygon fill="#ffffff" stroke="transparent" points="-4,4 -4,-222 229.5,-222 229.5,4 -4,4"/>
<!-- Node2 -->
<g id="node1" class="node">
<title>Node2</title>
<polygon fill="#bfbfbf" stroke="#000000" points="28,-.5 28,-112.5 156,-112.5 156,-.5 28,-.5"/>
<text text-anchor="middle" x="92" y="-100.5" font-family="Helvetica,sans-Serif" font-size="10.00" fill="#000000">SDLMain</text>
<polyline fill="none" stroke="#000000" points="28,-93.5 156,-93.5 "/>
<text text-anchor="middle" x="92" y="-81.5" font-family="Helvetica,sans-Serif" font-size="10.00" fill="#000000"> </text>
<polyline fill="none" stroke="#000000" points="28,-74.5 156,-74.5 "/>
<text text-anchor="start" x="36" y="-62.5" font-family="Helvetica,sans-Serif" font-size="10.00" fill="#000000">+ setMIDIInput:</text>
<text text-anchor="start" x="36" y="-51.5" font-family="Helvetica,sans-Serif" font-size="10.00" fill="#000000">+ toggleDebugMode:</text>
<text text-anchor="start" x="36" y="-40.5" font-family="Helvetica,sans-Serif" font-size="10.00" fill="#000000">+ quitFW:</text>
<text text-anchor="start" x="36" y="-29.5" font-family="Helvetica,sans-Serif" font-size="10.00" fill="#000000">+ showHelp:</text>
<text text-anchor="start" x="36" y="-18.5" font-family="Helvetica,sans-Serif" font-size="10.00" fill="#000000">+ clearMIDIInputList</text>
<text text-anchor="start" x="36" y="-7.5" font-family="Helvetica,sans-Serif" font-size="10.00" fill="#000000">+ addMIDIInputSource:</text>
</g>
<!-- Node3 -->
<g id="node2" class="node">
<title>Node3</title>
<g id="a_node2"><a xlink:href="classNSObject.html" target="_top" xlink:title="{NSObject\n||}">
<polygon fill="#ffffff" stroke="#000000" points="0,-160.5 0,-217.5 62,-217.5 62,-160.5 0,-160.5"/>
<text text-anchor="middle" x="31" y="-205.5" font-family="Helvetica,sans-Serif" font-size="10.00" fill="#000000">NSObject</text>
<polyline fill="none" stroke="#000000" points="0,-198.5 62,-198.5 "/>
<text text-anchor="middle" x="31" y="-186.5" font-family="Helvetica,sans-Serif" font-size="10.00" fill="#000000"> </text>
<polyline fill="none" stroke="#000000" points="0,-179.5 62,-179.5 "/>
<text text-anchor="middle" x="31" y="-167.5" font-family="Helvetica,sans-Serif" font-size="10.00" fill="#000000"> </text>
</a>
</g>
</g>
<!-- Node3&#45;&gt;Node2 -->
<g id="edge1" class="edge">
<title>Node3&#45;&gt;Node2</title>
<path fill="none" stroke="#191970" d="M48.4787,-151.034C53.9769,-139.0912 60.1702,-125.6386 66.1229,-112.7084"/>
<polygon fill="none" stroke="#191970" points="45.2388,-149.7022 44.2361,-160.2495 51.5973,-152.6295 45.2388,-149.7022"/>
</g>
<!-- Node4 -->
<g id="node3" class="node">
<title>Node4</title>
<polygon fill="#ffffff" stroke="#bfbfbf" points="80.5,-160.5 80.5,-217.5 225.5,-217.5 225.5,-160.5 80.5,-160.5"/>
<text text-anchor="middle" x="153" y="-205.5" font-family="Helvetica,sans-Serif" font-size="10.00" fill="#000000">IBOutlet NSPopUpButton *</text>
<polyline fill="none" stroke="#bfbfbf" points="80.5,-198.5 225.5,-198.5 "/>
<text text-anchor="middle" x="153" y="-186.5" font-family="Helvetica,sans-Serif" font-size="10.00" fill="#000000"> </text>
<polyline fill="none" stroke="#bfbfbf" points="80.5,-179.5 225.5,-179.5 "/>
<text text-anchor="middle" x="153" y="-167.5" font-family="Helvetica,sans-Serif" font-size="10.00" fill="#000000"> </text>
</g>
<!-- Node4&#45;&gt;Node2 -->
<g id="edge2" class="edge">
<title>Node4&#45;&gt;Node2</title>
<path fill="none" stroke="#404040" d="M139.7639,-160.2495C134.8043,-149.4767 128.9367,-136.7314 123.042,-123.9274"/>
<polygon fill="none" stroke="#404040" points="122.8954,-123.6088 116.7528,-119.8314 117.8771,-112.7084 124.0197,-116.4858 122.8954,-123.6088"/>
<text text-anchor="middle" x="165.5" y="-134" font-family="Helvetica,sans-Serif" font-size="10.00" fill="#000000"> #midiInputSel</text>
</g>
</g>
</svg>
