<?xml version="1.0" encoding="UTF-8" standalone="no"?>
<!DOCTYPE svg PUBLIC "-//W3C//DTD SVG 1.1//EN"
 "http://www.w3.org/Graphics/SVG/1.1/DTD/svg11.dtd">
<!-- Generated by graphviz version 2.40.1 (20161225.0304)
 -->
<!-- Title: MacOSX/SDLMain.mm Pages: 1 -->
<svg width="409pt" height="140pt"
 viewBox="0.00 0.00 409.00 140.00" xmlns="http://www.w3.org/2000/svg" xmlns:xlink="http://www.w3.org/1999/xlink">
<g id="graph0" class="graph" transform="scale(1 1) rotate(0) translate(4 136)">
<title>MacOSX/SDLMain.mm</title>
<polygon fill="#ffffff" stroke="transparent" points="-4,4 -4,-136 405,-136 405,4 -4,4"/>
<!-- Node0 -->
<g id="node1" class="node">
<title>Node0</title>
<polygon fill="#bfbfbf" stroke="#000000" points="128,-112.5 128,-131.5 252,-131.5 252,-112.5 128,-112.5"/>
<text text-anchor="middle" x="190" y="-119.5" font-family="Helvetica,sans-Serif" font-size="10.00" fill="#000000">MacOSX/SDLMain.mm</text>
</g>
<!-- Node1 -->
<g id="node2" class="node">
<title>Node1</title>
<polygon fill="#ffffff" stroke="#bfbfbf" points="0,-56.5 0,-75.5 44,-75.5 44,-56.5 0,-56.5"/>
<text text-anchor="middle" x="22" y="-63.5" font-family="Helvetica,sans-Serif" font-size="10.00" fill="#000000">SDL.h</text>
</g>
<!-- Node0&#45;&gt;Node1 -->
<g id="edge1" class="edge">
<title>Node0&#45;&gt;Node1</title>
<path fill="none" stroke="#191970" d="M161.1198,-112.3733C131.282,-102.4273 84.8315,-86.9438 53.9209,-76.6403"/>
<polygon fill="#191970" stroke="#191970" points="54.6741,-73.2021 44.0804,-73.3601 52.4604,-79.8429 54.6741,-73.2021"/>
</g>
<!-- Node2 -->
<g id="node3" class="node">
<title>Node2</title>
<g id="a_node3"><a xlink:href="SDLMain_8h.html" target="_top" xlink:title="SDLMain.h">
<polygon fill="#ffffff" stroke="#000000" points="62,-56.5 62,-75.5 130,-75.5 130,-56.5 62,-56.5"/>
<text text-anchor="middle" x="96" y="-63.5" font-family="Helvetica,sans-Serif" font-size="10.00" fill="#000000">SDLMain.h</text>
</a>
</g>
</g>
<!-- Node0&#45;&gt;Node2 -->
<g id="edge2" class="edge">
<title>Node0&#45;&gt;Node2</title>
<path fill="none" stroke="#191970" d="M173.6264,-112.2455C159.0692,-103.5731 137.569,-90.7645 120.8848,-80.825"/>
<polygon fill="#191970" stroke="#191970" points="122.5683,-77.7539 112.1859,-75.6427 118.9856,-83.7676 122.5683,-77.7539"/>
</g>
<!-- Node4 -->
<g id="node5" class="node">
<title>Node4</title>
<g id="a_node5"><a xlink:href="FweelinMac_8h.html" target="_top" xlink:title="FweelinMac.h">
<polygon fill="#ffffff" stroke="#000000" points="148.5,-56.5 148.5,-75.5 231.5,-75.5 231.5,-56.5 148.5,-56.5"/>
<text text-anchor="middle" x="190" y="-63.5" font-family="Helvetica,sans-Serif" font-size="10.00" fill="#000000">FweelinMac.h</text>
</a>
</g>
</g>
<!-- Node0&#45;&gt;Node4 -->
<g id="edge4" class="edge">
<title>Node0&#45;&gt;Node4</title>
<path fill="none" stroke="#191970" d="M190,-112.2455C190,-104.9382 190,-94.6944 190,-85.7046"/>
<polygon fill="#191970" stroke="#191970" points="193.5001,-85.6426 190,-75.6427 186.5001,-85.6427 193.5001,-85.6426"/>
</g>
<!-- Node5 -->
<g id="node6" class="node">
<title>Node5</title>
<polygon fill="#ffffff" stroke="#bfbfbf" points="249.5,-56.5 249.5,-75.5 326.5,-75.5 326.5,-56.5 249.5,-56.5"/>
<text text-anchor="middle" x="288" y="-63.5" font-family="Helvetica,sans-Serif" font-size="10.00" fill="#000000">sys/param.h</text>
</g>
<!-- Node0&#45;&gt;Node5 -->
<g id="edge5" class="edge">
<title>Node0&#45;&gt;Node5</title>
<path fill="none" stroke="#191970" d="M207.0703,-112.2455C222.247,-103.5731 244.6621,-90.7645 262.0563,-80.825"/>
<polygon fill="#191970" stroke="#191970" points="264.1794,-83.643 271.1253,-75.6427 260.7064,-77.5653 264.1794,-83.643"/>
</g>
<!-- Node6 -->
<g id="node7" class="node">
<title>Node6</title>
<polygon fill="#ffffff" stroke="#bfbfbf" points="345,-56.5 345,-75.5 401,-75.5 401,-56.5 345,-56.5"/>
<text text-anchor="middle" x="373" y="-63.5" font-family="Helvetica,sans-Serif" font-size="10.00" fill="#000000">unistd.h</text>
</g>
<!-- Node0&#45;&gt;Node6 -->
<g id="edge6" class="edge">
<title>Node0&#45;&gt;Node6</title>
<path fill="none" stroke="#191970" d="M221.4588,-112.3733C252.9468,-102.7376 301.4193,-87.9045 335.0295,-77.6194"/>
<polygon fill="#191970" stroke="#191970" points="336.4097,-80.8573 344.9478,-74.5843 334.3613,-74.1637 336.4097,-80.8573"/>
</g>
<!-- Node3 -->
<g id="node4" class="node">
<title>Node3</title>
<polygon fill="#ffffff" stroke="#bfbfbf" points="51.5,-.5 51.5,-19.5 140.5,-19.5 140.5,-.5 51.5,-.5"/>
<text text-anchor="middle" x="96" y="-7.5" font-family="Helvetica,sans-Serif" font-size="10.00" fill="#000000">Cocoa/Cocoa.h</text>
</g>
<!-- Node2&#45;&gt;Node3 -->
<g id="edge3" class="edge">
<title>Node2&#45;&gt;Node3</title>
<path fill="none" stroke="#191970" d="M96,-56.2455C96,-48.9382 96,-38.6944 96,-29.7046"/>
<polygon fill="#191970" stroke="#191970" points="99.5001,-29.6426 96,-19.6427 92.5001,-29.6427 99.5001,-29.6426"/>
</g>
</g>
</svg>
