<?xml version="1.0" encoding="UTF-8" standalone="no"?>
<!DOCTYPE svg PUBLIC "-//W3C//DTD SVG 1.1//EN"
 "http://www.w3.org/Graphics/SVG/1.1/DTD/svg11.dtd">
<!-- Generated by graphviz version 2.40.1 (20161225.0304)
 -->
<!-- Title: StackTraceInit Pages: 1 -->
<svg width="319pt" height="87pt"
 viewBox="0.00 0.00 319.00 87.22" xmlns="http://www.w3.org/2000/svg" xmlns:xlink="http://www.w3.org/1999/xlink">
<g id="graph0" class="graph" transform="scale(1 1) rotate(0) translate(4 83.2203)">
<title>StackTraceInit</title>
<polygon fill="#ffffff" stroke="transparent" points="-4,4 -4,-83.2203 315,-83.2203 315,4 -4,4"/>
<!-- Node5 -->
<g id="node1" class="node">
<title>Node5</title>
<polygon fill="#bfbfbf" stroke="#000000" points="0,-28.5 0,-47.5 85,-47.5 85,-28.5 0,-28.5"/>
<text text-anchor="middle" x="42.5" y="-35.5" font-family="Helvetica,sans-Serif" font-size="10.00" fill="#000000">StackTraceInit</text>
</g>
<!-- Node6 -->
<g id="node2" class="node">
<title>Node6</title>
<g id="a_node2"><a xlink:href="stacktrace_8c.html#a9239c8234a32f1e5635342e22e415e7c" target="_top" xlink:title="StackTrace">
<polygon fill="#ffffff" stroke="#000000" points="242,-47.5 242,-66.5 311,-66.5 311,-47.5 242,-47.5"/>
<text text-anchor="middle" x="276.5" y="-54.5" font-family="Helvetica,sans-Serif" font-size="10.00" fill="#000000">StackTrace</text>
</a>
</g>
</g>
<!-- Node5&#45;&gt;Node6 -->
<g id="edge1" class="edge">
<title>Node5&#45;&gt;Node6</title>
<path fill="none" stroke="#191970" d="M57.7013,-47.6567C73.0026,-56.7612 97.6229,-69.7668 121,-75 159.5281,-83.6249 204.4056,-76.6639 236.0182,-69.0291"/>
<polygon fill="#191970" stroke="#191970" points="236.9612,-72.4008 245.7911,-66.5455 235.237,-65.6164 236.9612,-72.4008"/>
</g>
<!-- Node7 -->
<g id="node3" class="node">
<title>Node7</title>
<g id="a_node3"><a xlink:href="SDLMain_8mm.html#a3c04138a5bfe5d72780bb7e82a18e627" target="_top" xlink:title="main">
<polygon fill="#ffffff" stroke="#000000" points="256,-.5 256,-19.5 297,-19.5 297,-.5 256,-.5"/>
<text text-anchor="middle" x="276.5" y="-7.5" font-family="Helvetica,sans-Serif" font-size="10.00" fill="#000000">main</text>
</a>
</g>
</g>
<!-- Node5&#45;&gt;Node7 -->
<g id="edge2" class="edge">
<title>Node5&#45;&gt;Node7</title>
<path fill="none" stroke="#191970" d="M76.2406,-28.4261C90.0112,-24.8885 106.1597,-21.2071 121,-19 163.8284,-12.6304 213.915,-10.7079 245.4249,-10.1613"/>
<polygon fill="#191970" stroke="#191970" points="245.802,-13.6565 255.7533,-10.0203 245.7064,-6.6572 245.802,-13.6565"/>
</g>
<!-- Node8 -->
<g id="node4" class="node">
<title>Node8</title>
<g id="a_node4"><a xlink:href="stacktrace_8c.html#adfad095b585f503ef968b332f2ca0948" target="_top" xlink:title="StackTraceInit">
<polygon fill="#ffffff" stroke="#000000" points="121,-28.5 121,-47.5 206,-47.5 206,-28.5 121,-28.5"/>
<text text-anchor="middle" x="163.5" y="-35.5" font-family="Helvetica,sans-Serif" font-size="10.00" fill="#000000">StackTraceInit</text>
</a>
</g>
</g>
<!-- Node5&#45;&gt;Node8 -->
<g id="edge3" class="edge">
<title>Node5&#45;&gt;Node8</title>
<path fill="none" stroke="#191970" d="M85.1601,-38C93.3834,-38 102.0896,-38 110.5925,-38"/>
<polygon fill="#191970" stroke="#191970" points="110.8174,-41.5001 120.8173,-38 110.8173,-34.5001 110.8174,-41.5001"/>
</g>
<!-- Node8&#45;&gt;Node6 -->
<g id="edge4" class="edge">
<title>Node8&#45;&gt;Node6</title>
<path fill="none" stroke="#191970" d="M206.2205,-45.1831C214.5739,-46.5876 223.3553,-48.0642 231.7719,-49.4794"/>
<polygon fill="#191970" stroke="#191970" points="231.3623,-52.9595 241.8043,-51.1662 232.5231,-46.0564 231.3623,-52.9595"/>
</g>
<!-- Node8&#45;&gt;Node7 -->
<g id="edge5" class="edge">
<title>Node8&#45;&gt;Node7</title>
<path fill="none" stroke="#191970" d="M202.0721,-28.4423C216.4398,-24.8822 232.5329,-20.8945 246.0692,-17.5404"/>
<polygon fill="#191970" stroke="#191970" points="246.9864,-20.919 255.8511,-15.1165 245.3028,-14.1245 246.9864,-20.919"/>
</g>
<!-- Node8&#45;&gt;Node8 -->
<g id="edge6" class="edge">
<title>Node8&#45;&gt;Node8</title>
<path fill="none" stroke="#191970" d="M146.2375,-47.7571C137.8396,-56.5653 143.5938,-66 163.5,-66 175.9414,-66 182.8546,-62.3146 184.2397,-57.4"/>
<polygon fill="#191970" stroke="#191970" points="187.4472,-55.9768 180.7625,-47.7571 180.8622,-58.3514 187.4472,-55.9768"/>
</g>
</g>
</svg>
