<?xml version="1.0" encoding="UTF-8" standalone="no"?>
<!DOCTYPE svg PUBLIC "-//W3C//DTD SVG 1.1//EN"
 "http://www.w3.org/Graphics/SVG/1.1/DTD/svg11.dtd">
<!-- Generated by graphviz version 2.40.1 (20161225.0304)
 -->
<!-- Title: StackTraceInit Pages: 1 -->
<svg width="170pt" height="46pt"
 viewBox="0.00 0.00 170.00 46.00" xmlns="http://www.w3.org/2000/svg" xmlns:xlink="http://www.w3.org/1999/xlink">
<g id="graph0" class="graph" transform="scale(1 1) rotate(0) translate(4 42)">
<title>StackTraceInit</title>
<polygon fill="#ffffff" stroke="transparent" points="-4,4 -4,-42 166,-42 166,4 -4,4"/>
<!-- Node9 -->
<g id="node1" class="node">
<title>Node9</title>
<polygon fill="#bfbfbf" stroke="#000000" points="0,-.5 0,-19.5 85,-19.5 85,-.5 0,-.5"/>
<text text-anchor="middle" x="42.5" y="-7.5" font-family="Helvetica,sans-Serif" font-size="10.00" fill="#000000">StackTraceInit</text>
</g>
<!-- Node9&#45;&gt;Node9 -->
<g id="edge2" class="edge">
<title>Node9&#45;&gt;Node9</title>
<path fill="none" stroke="#191970" d="M24.3527,-29.4C25.5647,-34.3146 31.6138,-38 42.5,-38 59.918,-38 64.9529,-28.5653 57.6046,-19.7571"/>
<polygon fill="#191970" stroke="#191970" points="27.724,-30.3468 27.3954,-19.7571 21.0485,-28.2404 27.724,-30.3468"/>
</g>
<!-- Node10 -->
<g id="node2" class="node">
<title>Node10</title>
<g id="a_node2"><a xlink:href="fweelin_8cc.html#a97b0fa62b7b0972875f5f589322c4c24" target="_top" xlink:title="main">
<polygon fill="#ffffff" stroke="#000000" points="121,-.5 121,-19.5 162,-19.5 162,-.5 121,-.5"/>
<text text-anchor="middle" x="141.5" y="-7.5" font-family="Helvetica,sans-Serif" font-size="10.00" fill="#000000">main</text>
</a>
</g>
</g>
<!-- Node9&#45;&gt;Node10 -->
<g id="edge1" class="edge">
<title>Node9&#45;&gt;Node10</title>
<path fill="none" stroke="#191970" d="M95.2726,-10C104.3208,-10 113.2225,-10 120.7614,-10"/>
<polygon fill="#191970" stroke="#191970" points="95.0595,-6.5001 85.0595,-10 95.0594,-13.5001 95.0595,-6.5001"/>
</g>
</g>
</svg>
