<?xml version="1.0" encoding="UTF-8" standalone="no"?>
<!DOCTYPE svg PUBLIC "-//W3C//DTD SVG 1.1//EN"
 "http://www.w3.org/Graphics/SVG/1.1/DTD/svg11.dtd">
<!-- Generated by graphviz version 2.40.1 (20161225.0304)
 -->
<!-- Title: StackTraceInit Pages: 1 -->
<svg width="291pt" height="57pt"
 viewBox="0.00 0.00 291.00 57.03" xmlns="http://www.w3.org/2000/svg" xmlns:xlink="http://www.w3.org/1999/xlink">
<g id="graph0" class="graph" transform="scale(1 1) rotate(0) translate(4 53.0291)">
<title>StackTraceInit</title>
<polygon fill="#ffffff" stroke="transparent" points="-4,4 -4,-53.0291 287,-53.0291 287,4 -4,4"/>
<!-- Node8 -->
<g id="node1" class="node">
<title>Node8</title>
<polygon fill="#bfbfbf" stroke="#000000" points="0,-28.5 0,-47.5 85,-47.5 85,-28.5 0,-28.5"/>
<text text-anchor="middle" x="42.5" y="-35.5" font-family="Helvetica,sans-Serif" font-size="10.00" fill="#000000">StackTraceInit</text>
</g>
<!-- Node9 -->
<g id="node2" class="node">
<title>Node9</title>
<g id="a_node2"><a xlink:href="fweelin_8cc.html#a97b0fa62b7b0972875f5f589322c4c24" target="_top" xlink:title="main">
<polygon fill="#ffffff" stroke="#000000" points="242,-28.5 242,-47.5 283,-47.5 283,-28.5 242,-28.5"/>
<text text-anchor="middle" x="262.5" y="-35.5" font-family="Helvetica,sans-Serif" font-size="10.00" fill="#000000">main</text>
</a>
</g>
</g>
<!-- Node8&#45;&gt;Node9 -->
<g id="edge1" class="edge">
<title>Node8&#45;&gt;Node9</title>
<path fill="none" stroke="#191970" d="M95.1715,-44.8756C103.7887,-45.7595 112.633,-46.5219 121,-47 158.7163,-49.155 168.34,-49.9807 206,-47 217.9811,-46.0517 231.2586,-43.9892 241.9304,-42.0777"/>
<polygon fill="#191970" stroke="#191970" points="95.5218,-41.3931 85.2021,-43.7919 94.7653,-48.3521 95.5218,-41.3931"/>
</g>
<!-- Node10 -->
<g id="node3" class="node">
<title>Node10</title>
<g id="a_node3"><a xlink:href="stacktrace_8h.html#a4f385b1b855f0bffa5aa1d25e1947c33" target="_top" xlink:title="StackTraceInit">
<polygon fill="#ffffff" stroke="#000000" points="121,-.5 121,-19.5 206,-19.5 206,-.5 121,-.5"/>
<text text-anchor="middle" x="163.5" y="-7.5" font-family="Helvetica,sans-Serif" font-size="10.00" fill="#000000">StackTraceInit</text>
</a>
</g>
</g>
<!-- Node8&#45;&gt;Node10 -->
<g id="edge2" class="edge">
<title>Node8&#45;&gt;Node10</title>
<path fill="none" stroke="#191970" d="M93.64,-26.166C103.2314,-23.9465 113.1445,-21.6525 122.3832,-19.5146"/>
<polygon fill="#191970" stroke="#191970" points="92.7564,-22.7779 83.8029,-28.4423 94.3346,-29.5976 92.7564,-22.7779"/>
</g>
<!-- Node10&#45;&gt;Node9 -->
<g id="edge3" class="edge">
<title>Node10&#45;&gt;Node9</title>
<path fill="none" stroke="#191970" d="M207.2337,-22.3691C219.2724,-25.774 231.7725,-29.3094 241.833,-32.1548"/>
<polygon fill="#191970" stroke="#191970" points="207.8684,-18.9114 197.2933,-19.5577 205.9633,-25.6472 207.8684,-18.9114"/>
</g>
<!-- Node10&#45;&gt;Node10 -->
<g id="edge4" class="edge">
<title>Node10&#45;&gt;Node10</title>
<path fill="none" stroke="#191970" d="M145.3527,-29.4C146.5647,-34.3146 152.6138,-38 163.5,-38 180.918,-38 185.9529,-28.5653 178.6046,-19.7571"/>
<polygon fill="#191970" stroke="#191970" points="148.724,-30.3468 148.3954,-19.7571 142.0485,-28.2404 148.724,-30.3468"/>
</g>
</g>
</svg>
