<?xml version="1.0" encoding="UTF-8" standalone="no"?>
<!DOCTYPE svg PUBLIC "-//W3C//DTD SVG 1.1//EN"
 "http://www.w3.org/Graphics/SVG/1.1/DTD/svg11.dtd">
<!-- Generated by graphviz version 2.40.1 (20161225.0304)
 -->
<!-- Title: StackTraceInit Pages: 1 -->
<svg width="198pt" height="66pt"
 viewBox="0.00 0.00 198.00 66.00" xmlns="http://www.w3.org/2000/svg" xmlns:xlink="http://www.w3.org/1999/xlink">
<g id="graph0" class="graph" transform="scale(1 1) rotate(0) translate(4 62)">
<title>StackTraceInit</title>
<polygon fill="#ffffff" stroke="transparent" points="-4,4 -4,-62 194,-62 194,4 -4,4"/>
<!-- Node5 -->
<g id="node1" class="node">
<title>Node5</title>
<polygon fill="#bfbfbf" stroke="#000000" points="0,-19.5 0,-38.5 85,-38.5 85,-19.5 0,-19.5"/>
<text text-anchor="middle" x="42.5" y="-26.5" font-family="Helvetica,sans-Serif" font-size="10.00" fill="#000000">StackTraceInit</text>
</g>
<!-- Node5&#45;&gt;Node5 -->
<g id="edge3" class="edge">
<title>Node5&#45;&gt;Node5</title>
<path fill="none" stroke="#191970" d="M25.2375,-38.7571C16.8396,-47.5653 22.5938,-57 42.5,-57 54.9414,-57 61.8546,-53.3146 63.2397,-48.4"/>
<polygon fill="#191970" stroke="#191970" points="66.4472,-46.9768 59.7625,-38.7571 59.8622,-49.3514 66.4472,-46.9768"/>
</g>
<!-- Node6 -->
<g id="node2" class="node">
<title>Node6</title>
<g id="a_node2"><a xlink:href="stacktrace_8c.html#a9239c8234a32f1e5635342e22e415e7c" target="_top" xlink:title="StackTrace">
<polygon fill="#ffffff" stroke="#000000" points="121,-38.5 121,-57.5 190,-57.5 190,-38.5 121,-38.5"/>
<text text-anchor="middle" x="155.5" y="-45.5" font-family="Helvetica,sans-Serif" font-size="10.00" fill="#000000">StackTrace</text>
</a>
</g>
</g>
<!-- Node5&#45;&gt;Node6 -->
<g id="edge1" class="edge">
<title>Node5&#45;&gt;Node6</title>
<path fill="none" stroke="#191970" d="M85.2205,-36.1831C93.5739,-37.5876 102.3553,-39.0642 110.7719,-40.4794"/>
<polygon fill="#191970" stroke="#191970" points="110.3623,-43.9595 120.8043,-42.1662 111.5231,-37.0564 110.3623,-43.9595"/>
</g>
<!-- Node7 -->
<g id="node3" class="node">
<title>Node7</title>
<g id="a_node3"><a xlink:href="SDLMain_8mm.html#a3c04138a5bfe5d72780bb7e82a18e627" target="_top" xlink:title="main">
<polygon fill="#ffffff" stroke="#000000" points="135,-.5 135,-19.5 176,-19.5 176,-.5 135,-.5"/>
<text text-anchor="middle" x="155.5" y="-7.5" font-family="Helvetica,sans-Serif" font-size="10.00" fill="#000000">main</text>
</a>
</g>
</g>
<!-- Node5&#45;&gt;Node7 -->
<g id="edge2" class="edge">
<title>Node5&#45;&gt;Node7</title>
<path fill="none" stroke="#191970" d="M85.2205,-21.8169C98.3687,-19.6061 112.5773,-17.2171 124.7551,-15.1695"/>
<polygon fill="#191970" stroke="#191970" points="125.575,-18.5809 134.8562,-13.4711 124.4143,-11.6778 125.575,-18.5809"/>
</g>
</g>
</svg>
